<svg xmlns="http://www.w3.org/2000/svg" width="16" height="16" viewBox="0 0 16 16" fill="none"><rect width="16" height="16" fill="none"/>
<path d="M12.75 1H3.25C2.01 1 1 2.01 1 3.25V12.75C1 13.99 2.01 15 3.25 15H12.75C13.99 15 15 13.99 15 12.75V3.25C15 2.01 13.99 1 12.75 1ZM2.5 3.25C2.5 2.84 2.84 2.5 3.25 2.5H12.75C13.16 2.5 13.5 2.84 13.5 3.25V5.5H2.5V3.25ZM13.5 7V9.5H8.75V7H13.5ZM2.5 7H7.25V9.5H2.5V7ZM3.25 13.5C2.84 13.5 2.5 13.16 2.5 12.75V11H7.25V13.5H3.25ZM12.75 13.5H8.75V11H13.5V12.75C13.5 13.16 13.16 13.5 12.75 13.5Z" fill="#000000"/>
</svg>
