<svg xmlns="http://www.w3.org/2000/svg" width="24" height="24" viewBox="0 0 24 24" fill="none"><rect width="24" height="24" fill="none"/>
<path fill-rule="evenodd" clip-rule="evenodd" d="M17.9142 4.50009C17.1332 3.71905 15.8668 3.71904 15.0858 4.50009L4.08579 15.5001C3.71071 15.8752 3.5 16.3839 3.5 16.9143V18.5001C3.5 19.6047 4.39543 20.5001 5.5 20.5001H7.08579C7.61622 20.5001 8.12493 20.2894 8.5 19.9143L19.5 8.91431C20.281 8.13326 20.281 6.86693 19.5 6.08588L17.9142 4.50009ZM14.9142 7.50008L16.5 5.91431L18.0858 7.50009L16.5 9.08587L14.9142 7.50008ZM13.5 8.91429L5.5 16.9143V18.5001H7.08579L15.0858 10.5001L13.5 8.91429Z" fill="#000000"/>
</svg>
