<svg xmlns="http://www.w3.org/2000/svg" width="24" height="24" viewBox="0 0 24 24" fill="none"><rect width="24" height="24" fill="none"/>
<path d="M13.9098 10.9989L12.6863 14.6354H15.1107L13.9551 10.9989H13.9098Z" fill="#000000"/>
<path fill-rule="evenodd" clip-rule="evenodd" d="M6.00037 3C6.00037 2.44772 6.44808 2 7.00037 2H14.1854C15.9603 2 17.3471 3.53245 17.1705 5.29851L17.0247 6.75677C17.0121 6.88251 17.1179 6.98825 17.2436 6.97568L18.7019 6.82985C20.4679 6.65325 22.0004 8.0401 22.0004 9.81496V21C22.0004 21.5523 21.5527 22 21.0004 22H7.00037C6.44808 22 6.00037 21.5523 6.00037 21V3ZM14.0004 9C14.9826 9 15.2693 9.58589 15.5179 10.3276L18.09 18H16.1868L15.6091 16.176H12.1651L11.5421 18H9.75218L12.4512 10.3276C12.7131 9.58348 13.0181 9 14.0004 9Z" fill="#000000"/>
<path d="M4.50037 7.60132L1.04241 19.2772C0.885573 19.8067 1.18772 20.3631 1.71727 20.52L4.52488 21.3515C4.50872 21.2366 4.50037 21.1193 4.50037 21V7.60132Z" fill="#000000"/>
</svg>
