<svg xmlns="http://www.w3.org/2000/svg" width="24" height="24" viewBox="0 0 24 24" fill="none"><rect width="24" height="24" fill="none"/>
<path fill-rule="evenodd" clip-rule="evenodd" d="M13.6 1.42872C13.105 1.14291 12.5525 1 12 1C11.4475 1 10.895 1.14291 10.4 1.42872L3.6 5.3547C2.60992 5.92632 2 6.98273 2 8.12598V15.874C2 17.0173 2.60992 18.0737 3.6 18.6453L10.4 22.5713C10.895 22.8571 11.4475 23 12 23C12.5525 23 13.105 22.8571 13.6 22.5713L20.4 18.6453C21.3901 18.0737 22 17.0173 22 15.874V8.12598C22 6.98273 21.3901 5.92632 20.4 5.3547L13.6 1.42872ZM12.5489 5.73949C12.2157 5.52076 11.7845 5.52076 11.4513 5.73949L7.45132 8.3655C7.16972 8.55037 7.00012 8.8646 7.00012 9.20146L7.00013 14.6873C7.00013 15.0242 7.16973 15.3384 7.45133 15.5233L11.4513 18.1493C11.7845 18.368 12.2157 18.368 12.5489 18.1493L16.5489 15.5233C17.0106 15.2202 17.1392 14.6002 16.8361 14.1385C16.533 13.6769 15.913 13.5483 15.4513 13.8514L12.0001 16.1171L9.79473 14.6693L16.5657 10.0262C16.8405 9.83769 17.0034 9.52465 17.0001 9.19138C16.9967 8.85811 16.8275 8.54841 16.5489 8.3655L12.5489 5.73949ZM14.2055 9.21954L9.00013 12.7891L9.00012 9.74119L12.0001 7.77169L14.2055 9.21954Z" fill="#000000"/>
</svg>
