<svg xmlns="http://www.w3.org/2000/svg" width="24" height="24" viewBox="0 0 24 24" fill="none"><rect width="24" height="24" fill="none"/>
<path fill-rule="evenodd" clip-rule="evenodd" d="M11.675 2.05322C11.8859 1.98291 12.1144 1.98291 12.3254 2.05322C12.3484 2.06788 14.5437 3.46271 16.1057 4.00049C17.7809 4.57724 20.5701 4.80288 20.5744 4.80322C20.9803 4.93853 21.2585 5.3042 21.2502 5.73193C21.1952 8.53957 20.4152 18.9543 12.0002 22.4976C3.58501 18.9543 2.80509 8.53957 2.75018 5.73193C2.74183 5.30419 3.0201 4.93852 3.42596 4.80322C3.43802 4.80224 6.21441 4.57388 7.88397 4.00049C9.45017 3.46251 11.653 2.06713 11.675 2.05322ZM10.9191 17.7056H12.7531V15.8716H10.9191V17.7056ZM11.8381 7.0835C10.9185 7.0835 10.0999 7.49045 9.5451 8.11865L8.93866 8.80518L10.3469 9.98975L10.9543 9.30225C11.1798 9.047 11.4956 8.89795 11.8381 8.89795C12.4681 8.89807 13.0391 9.42542 13.0392 10.1499C13.0392 10.489 12.911 10.7909 12.7082 11.0132C12.633 11.0956 12.537 11.195 12.4308 11.3052C12.1802 11.5654 11.8714 11.8866 11.6369 12.187C11.2777 12.6472 10.9084 13.2691 10.9084 14.0376H12.7678C12.7678 13.852 12.8558 13.6194 13.1164 13.2856C13.2953 13.0565 13.4788 12.8665 13.6887 12.6499C13.8138 12.5207 13.9484 12.3819 14.0969 12.2192C14.5968 11.6714 14.8986 10.9425 14.8986 10.1499C14.8985 8.48941 13.5614 7.08361 11.8381 7.0835Z" fill="#000000"/>
</svg>
