<svg xmlns="http://www.w3.org/2000/svg" width="24" height="24" viewBox="0 0 24 24" fill="none"><rect width="24" height="24" fill="none"/>
<path fill-rule="evenodd" clip-rule="evenodd" d="M2 6C2 4.34315 3.34315 3 5 3C9.33333 3 13.6667 3 18 3C19.6569 3 21 4.34315 21 6V12.0797C20.9294 12.093 20.859 12.1094 20.7888 12.1288L20.7737 12.133C20.7131 12.0959 20.6517 12.0599 20.5897 12.0248C20.3589 11.2164 19.7578 10.5879 19 10.3055V9H4V17C4 17.5523 4.44772 18 5 18H10.7509C10.3709 18.5936 10.2498 19.3177 10.4121 20H5C3.34315 20 2 18.6569 2 17V6ZM5 7C5.55228 7 6 6.55228 6 6C6 5.44772 5.55228 5 5 5C4.44772 5 4 5.44772 4 6C4 6.55228 4.44772 7 5 7ZM8 7C8.55228 7 9 6.55228 9 6C9 5.44772 8.55228 5 8 5C7.44772 5 7 5.44772 7 6C7 6.55228 7.44772 7 8 7ZM11 7C11.5523 7 12 6.55228 12 6C12 5.44772 11.5523 5 11 5C10.4477 5 10 5.44772 10 6C10 6.55228 10.4477 7 11 7Z" fill="#000000"/>
<path fill-rule="evenodd" clip-rule="evenodd" d="M21.7181 18.2628L22.4674 18.9646C22.6716 19.1558 22.7151 19.4634 22.5718 19.7038L21.9932 20.6745C21.8558 20.9048 21.5814 21.015 21.3229 20.9433L20.3728 20.6801C19.9478 21.0644 19.4453 21.3646 18.8916 21.5545L18.6707 22.4104C18.6027 22.6733 18.3657 22.8569 18.0942 22.8569H16.9033C16.6318 22.8569 16.3948 22.6733 16.3269 22.4104L16.1058 21.5535C15.5529 21.3634 15.0513 21.0634 14.6268 20.6795L13.6746 20.9433C13.4162 21.015 13.1418 20.9048 13.0044 20.6745L12.4257 19.7038C12.2825 19.4634 12.326 19.1558 12.5302 18.9646L13.2818 18.2606C13.2376 18.0137 13.2144 17.7594 13.2144 17.4997C13.2144 17.24 13.2376 16.9858 13.2817 16.7389L12.5302 16.035C12.326 15.8437 12.2825 15.536 12.4257 15.2957L13.0044 14.325C13.1418 14.0946 13.4162 13.9846 13.6746 14.0561L14.6267 14.3199C15.0512 13.936 15.5529 13.636 16.1058 13.446L16.3269 12.589C16.3948 12.3262 16.6318 12.1426 16.9033 12.1426H18.0942C18.3657 12.1426 18.6027 12.3262 18.6707 12.589L18.8915 13.4449C19.4453 13.6349 19.9478 13.9351 20.373 14.3194L21.3229 14.0561C21.5814 13.9846 21.8558 14.0946 21.9932 14.325L22.5718 15.2957C22.7151 15.536 22.6716 15.8437 22.4674 16.035L21.7181 16.7366C21.7626 16.9843 21.7858 17.2393 21.7858 17.4997C21.7858 17.7602 21.7626 18.0152 21.7181 18.2628ZM17.4999 15.891C18.3885 15.891 19.1089 16.6114 19.1089 17.5C19.1089 18.3886 18.3885 19.109 17.4999 19.109C16.6113 19.109 15.8908 18.3886 15.8908 17.5C15.8908 16.6114 16.6113 15.891 17.4999 15.891Z" fill="#000000"/>
</svg>
