<svg xmlns="http://www.w3.org/2000/svg" width="24" height="24" viewBox="0 0 24 24" fill="none"><rect width="24" height="24" fill="none"/>
<path fill-rule="evenodd" clip-rule="evenodd" d="M1 9C1 6.19974 1 4.79961 1.54497 3.73005C2.02433 2.78924 2.78924 2.02433 3.73005 1.54497C4.79961 1 6.19974 1 9 1H15C17.8003 1 19.2004 1 20.27 1.54497C21.2108 2.02433 21.9757 2.78924 22.455 3.73005C23 4.79961 23 6.19974 23 9V15C23 17.8003 23 19.2004 22.455 20.27C21.9757 21.2108 21.2108 21.9757 20.27 22.455C19.2004 23 17.8003 23 15 23H9C6.19974 23 4.79961 23 3.73005 22.455C2.78924 21.9757 2.02433 21.2108 1.54497 20.27C1 19.2004 1 17.8003 1 15V9ZM6 6H18V8H6V6ZM6 11H18V13H6V11ZM6 16H18V18H6V16Z" fill="#000000"/>
</svg>
