<svg xmlns="http://www.w3.org/2000/svg" width="24" height="24" viewBox="0 0 24 24" fill="none"><rect width="24" height="24" fill="none"/>
<path d="M11.3089 9.52298C10.9854 10.4518 10.2187 11.5889 9.13809 12.6137C9.04646 12.1681 8.99832 11.6912 8.99943 11.2105C9.00166 10.2447 9.20221 9.37164 9.53807 8.78058C9.85919 8.21547 10.2369 7.99503 10.6765 8.00001C10.6936 8.00021 10.7243 8.00216 10.7781 8.00957C11.2776 8.07845 11.3803 8.25634 11.4204 8.35341C11.4939 8.53098 11.5233 8.90741 11.3089 9.52298Z" fill="#000000"/>
<path fill-rule="evenodd" clip-rule="evenodd" d="M5 3C3.89543 3 3 3.89543 3 5V19C3 20.1046 3.89543 21 5 21H19C20.1046 21 21 20.1046 21 19V5C21 3.89543 20.1046 3 19 3H5ZM10.6992 6.00022C9.33305 5.98473 8.36877 6.78869 7.79814 7.79291C7.24224 8.77118 7.00122 10.0124 6.99847 11.2059C6.99634 12.1257 7.13534 13.081 7.42836 13.9451C6.66727 14.4246 5.84643 14.8043 5 15.035L5.52649 16.9645C6.54212 16.6876 7.50263 16.2479 8.37795 15.71C8.9981 16.4618 9.8682 17.01 11.0058 16.9998C11.8721 16.9981 12.7407 16.6212 13.6018 15.9485C14.1703 16.5309 14.922 17.0122 15.8713 16.9998C17.0053 16.9849 18.0435 16.2591 19 15.0642L17.4375 13.8148C16.6225 14.8331 16.0877 14.9968 15.845 15C15.5308 15.0041 15.0861 14.7438 14.5554 13.9481C14.3891 13.6988 14.1198 13.5372 13.8215 13.5077C13.5232 13.4782 13.2274 13.5839 13.0155 13.7957C12.0358 14.7749 11.368 14.9998 11.0002 14.9999L10.9901 15C10.6437 15.0035 10.3057 14.8636 9.99792 14.5297C11.5213 13.2297 12.6922 11.6345 13.1986 10.1804C13.4882 9.34898 13.6106 8.41419 13.2698 7.58973C12.8957 6.68477 12.077 6.16981 11.0515 6.02841C10.9505 6.01449 10.83 6.0017 10.6992 6.00022Z" fill="#000000"/>
</svg>
