<svg xmlns="http://www.w3.org/2000/svg" width="24" height="24" viewBox="0 0 24 24" fill="none"><rect width="24" height="24" fill="none"/>
<path d="M21 7C21 5.89543 20.1046 5 19 5H5C3.89543 5 3 5.89543 3 7V8H21V7Z" fill="#000000"/>
<path d="M9.41644 17H5C3.89543 17 3 16.1046 3 15V10H14.9285C14.4878 10.3052 14.1231 10.7505 13.9042 11.3359L13.3584 12.7954L11.8017 12.8634C9.61248 12.9591 8.50755 15.2916 9.41644 17Z" fill="#000000"/>
<path d="M21 10V12.8505L19.7387 12.7954L19.193 11.3359C18.9741 10.7505 18.6094 10.3052 18.1687 10H21Z" fill="#000000"/>
<path d="M17.0356 11.8768C16.8518 11.3855 16.1569 11.3855 15.9732 11.8768L14.9559 14.5974C14.8762 14.8106 14.6768 14.9554 14.4495 14.9653L11.5476 15.0921C11.0236 15.115 10.8089 15.7759 11.2194 16.1025L13.4925 17.9107C13.6706 18.0524 13.7467 18.2868 13.6859 18.506L12.9098 21.3051C12.7696 21.8105 13.3318 22.219 13.7692 21.9295L16.1914 20.3264C16.3812 20.2008 16.6276 20.2008 16.8174 20.3264L19.2396 21.9295C19.677 22.219 20.2391 21.8105 20.099 21.3051L19.3229 18.506C19.2621 18.2868 19.3382 18.0524 19.5163 17.9107L21.7894 16.1025C22.1999 15.7759 21.9852 15.115 21.4611 15.0921L18.5593 14.9653C18.3319 14.9554 18.1326 14.8106 18.0529 14.5974L17.0356 11.8768Z" fill="#000000"/>
</svg>
