<svg xmlns="http://www.w3.org/2000/svg" width="24" height="24" viewBox="0 0 24 24" fill="none"><rect width="24" height="24" fill="none"/>
<path fill-rule="evenodd" clip-rule="evenodd" d="M18 2.00098C19.1046 2.00098 20 2.89641 20 4.00098V11.1188C19.6874 11.0413 19.3535 11 19 11C17.5537 11 16.4223 11.6861 15.7493 12.7455C15.154 13.6826 15 14.7689 15 15.6316C15 16.2147 15.1135 16.8096 15.3311 17.3651C14.8866 17.4665 14.5049 17.5812 14.1797 17.6988C12.5875 18.2748 12 19.7841 12 20.9613V21.2087L12.0043 21.2744C12.0218 21.5389 12.065 21.7803 12.1265 22.001L6 22.001C4.89543 22.001 4 21.1055 4 20.001V4.00098C4 2.89641 4.89543 2.00098 6 2.00098H18ZM7 5.00098C6.44772 5.00098 6 5.44869 6 6.00098V8.00098H18V6.00098C18 5.4487 17.5523 5.00098 17 5.00098L7 5.00098ZM9 17.501C9 18.3294 8.3284 19.001 7.5 19.001C6.6716 19.001 6 18.3294 6 17.501C6 16.6725 6.6716 16.001 7.5 16.001C8.3284 16.001 9 16.6725 9 17.501ZM7.5 14.001C8.3284 14.001 9 13.3294 9 12.501C9 11.6725 8.3284 11.001 7.5 11.001C6.6716 11.001 6 11.6725 6 12.501C6 13.3294 6.6716 14.001 7.5 14.001ZM13.5 12.501C13.5 13.3294 12.8284 14.001 12 14.001C11.1716 14.001 10.5 13.3294 10.5 12.501C10.5 11.6725 11.1716 11.001 12 11.001C12.8284 11.001 13.5 11.6725 13.5 12.501Z" fill="#000000"/>
<path d="M19 13C20.5 13 21 14.3283 21 15.6316C21 16.9349 20.1137 18 19 18C17.8863 18 17 16.9592 17 15.6316C17 14.3039 17.5 13 19 13Z" fill="#000000"/>
<path d="M23.1399 19.5795C23.7113 19.7862 24 20.3537 24 20.9613V21.1429C23.9714 21.5772 23.7806 21.9139 23.5046 22.2438C22.8749 22.9965 21.4402 24 19 24C16.7732 24 15.2892 23.0562 14.5856 22.2975C14.2511 21.9369 14.0328 21.6401 14 21.1429V20.9613C14 20.3537 14.2887 19.7862 14.8601 19.5795C15.616 19.306 16.9255 19 19 19C21.0745 19 22.384 19.306 23.1399 19.5795Z" fill="#000000"/>
</svg>
