<svg xmlns="http://www.w3.org/2000/svg" width="24" height="24" viewBox="0 0 24 24" fill="none"><rect width="24" height="24" fill="none"/>
<path fill-rule="evenodd" clip-rule="evenodd" d="M21.7181 18.0128L22.4674 18.7146C22.6716 18.9058 22.7151 19.2134 22.5718 19.4538L21.9932 20.4245C21.8558 20.6548 21.5814 20.765 21.3229 20.6933L20.3728 20.4301C19.9478 20.8144 19.4453 21.1146 18.8916 21.3045L18.6707 22.1604C18.6027 22.4233 18.3657 22.6069 18.0942 22.6069H16.9033C16.6318 22.6069 16.3948 22.4233 16.3269 22.1604L16.1058 21.3035C15.5529 21.1134 15.0513 20.8134 14.6268 20.4295L13.6746 20.6933C13.4162 20.765 13.1418 20.6548 13.0044 20.4245L12.4257 19.4538C12.2825 19.2134 12.326 18.9058 12.5302 18.7146L13.2818 18.0106C13.2376 17.7637 13.2144 17.5094 13.2144 17.2497C13.2144 16.99 13.2376 16.7358 13.2817 16.4889L12.5302 15.785C12.326 15.5937 12.2825 15.286 12.4257 15.0457L13.0044 14.075C13.1418 13.8446 13.4162 13.7346 13.6746 13.8061L14.6267 14.0699C15.0512 13.686 15.5529 13.386 16.1058 13.196L16.3269 12.339C16.3948 12.0762 16.6318 11.8926 16.9033 11.8926H18.0942C18.3657 11.8926 18.6027 12.0762 18.6707 12.339L18.8915 13.1949C19.4453 13.3849 19.9478 13.6851 20.373 14.0694L21.3229 13.8061C21.5814 13.7346 21.8558 13.8446 21.9932 14.075L22.5718 15.0457C22.7151 15.286 22.6716 15.5937 22.4674 15.785L21.7181 16.4866C21.7626 16.7343 21.7858 16.9893 21.7858 17.2497C21.7858 17.5102 21.7626 17.7652 21.7181 18.0128ZM17.4999 15.641C18.3885 15.641 19.1089 16.3614 19.1089 17.25C19.1089 18.1386 18.3885 18.859 17.4999 18.859C16.6113 18.859 15.8908 18.1386 15.8908 17.25C15.8908 16.3614 16.6113 15.641 17.4999 15.641Z" fill="#000000"/>
<path d="M22.499 7V8.99805H20.499V11.5205C20.109 10.5485 19.1649 9.89281 18.0947 9.89258H16.9033C15.7405 9.89259 14.7244 10.6656 14.4082 11.7783C14.3473 11.8128 14.2871 11.8484 14.2275 11.8848L14.208 11.8789C13.1519 11.5866 12.0342 11.9893 11.4053 12.8682L11.2861 13.0508L10.708 14.0215C10.0833 15.0695 10.2729 16.4114 11.1631 17.2451L11.1689 17.249L11.1631 17.2549C10.273 18.0885 10.0833 19.4294 10.708 20.4775L10.7217 20.5H1.49902V19C1.49911 17.004 3.49902 17.0039 3.49902 17.0039L3.5 9H1.5V7L11.999 2L22.499 7Z" fill="#000000"/>
</svg>
