<svg xmlns="http://www.w3.org/2000/svg" width="24" height="24" viewBox="0 0 24 24" fill="none"><rect width="24" height="24" fill="none"/>
<path fill-rule="evenodd" clip-rule="evenodd" d="M12.0001 22.5C7.29913 22.5 3.5 18.6897 3.5 13.9887C3.5 11.4475 4.85179 9.53613 6.21505 7.6085C7.60106 5.6487 8.99892 3.67213 9.00012 1C11.3354 2.01628 13.3634 4.68865 14.2868 8.12543C14.5874 9.24422 15.692 10.0589 16.4881 9.21725C17.0343 8.63986 17.3761 7.8969 17.3761 7.2719C18.7584 8.48839 20.47 11.3879 20.5 13.9905C20.5 18.6915 16.7012 22.5 12.0001 22.5ZM12.4165 20C14.5024 20 15.8172 17.2692 14.4239 15.7709C14.1515 15.4779 13.8755 15.2275 13.6049 14.982C12.7337 14.1915 11.9172 13.4506 11.4492 11.5C9.75876 13.161 9.02049 15.0279 9.00012 16.6534C9.00012 18.1513 10.156 20 12.4165 20Z" fill="#000000"/>
</svg>
