<svg xmlns="http://www.w3.org/2000/svg" width="24" height="24" viewBox="0 0 24 24" fill="none"><rect width="24" height="24" fill="none"/>
<path fill-rule="evenodd" clip-rule="evenodd" d="M6.99998 2H4.99998V4H2L2.00001 17C2 18.6569 3.34318 20 5.00002 20H8V13H20L20 4H17V2H15V4H6.99998V2ZM7 10V8H5L4.99998 10H7Z" fill="#000000"/>
<path fill-rule="evenodd" clip-rule="evenodd" d="M23 15V22H10V15H23ZM16.5 20.5C17.6046 20.5 18.5 19.6046 18.5 18.5C18.5 17.3954 17.6046 16.5 16.5 16.5C15.3954 16.5 14.5 17.3954 14.5 18.5C14.5 19.6046 15.3954 20.5 16.5 20.5Z" fill="#000000"/>
</svg>
