<svg xmlns="http://www.w3.org/2000/svg" width="16" height="16" viewBox="0 0 16 16" fill="none"><rect width="16" height="16" fill="none"/>
<path fill-rule="evenodd" clip-rule="evenodd" d="M12.1398 2.06626C11.6514 1.57785 10.8595 1.57785 10.3711 2.06626L2.36631 10.0711C2.13177 10.3056 2 10.6237 2 10.9554V12.7493C2 13.44 2.55994 14 3.25067 14H5.04452C5.37622 14 5.69433 13.8682 5.92888 13.6336L13.9337 5.62883C14.4221 5.14041 14.4221 4.34853 13.9337 3.86012L12.1398 2.06626ZM9.81537 4.74447L11.2555 3.30436L12.6956 4.74447L11.2555 6.18458L9.81537 4.74447ZM8.75414 5.8057L3.5008 11.059V12.4991H4.94091L10.1943 7.24581L8.75414 5.8057Z" fill="#000000"/>
</svg>
