<svg xmlns="http://www.w3.org/2000/svg" width="24" height="24" viewBox="0 0 24 24" fill="none"><rect width="24" height="24" fill="none"/>
<path d="M22.707 15.707L17.5 20.9141L14.293 17.707L15.707 16.293L17.5 18.0859L21.293 14.293L22.707 15.707Z" fill="#000000"/>
<path d="M12 3C15.3137 3 18 5.68629 18 9V9.09961C19.6113 9.42665 20.9403 10.5291 21.583 12H19.2314C18.6822 11.3876 17.8874 11 17 11H16V9C16 6.79086 14.2091 5 12 5C9.79086 5 8 6.79086 8 9V10H7.5C5.567 10 4 11.567 4 13.5C4 15.433 5.567 17 7.5 17H12V19H7.5C4.46243 19 2 16.5376 2 13.5C2 10.9623 3.71884 8.82678 6.05566 8.19238C6.45021 5.26071 8.96025 3 12 3Z" fill="#000000"/>
</svg>
