<svg xmlns="http://www.w3.org/2000/svg" width="24" height="24" viewBox="0 0 24 24" fill="none"><rect width="24" height="24" fill="none"/>
<path d="M12 6H20C21.1046 6 22 6.95936 22 8.14286V13.2315C20.8588 11.7256 19.0509 10.7529 17.0157 10.7529C13.5639 10.7529 10.7656 13.5512 10.7656 17.003C10.7656 18.0889 11.0426 19.1102 11.5297 20H4C2.89543 20 2 19.0406 2 17.8571V5C2 3.8954 2.8954 3 4 3H9L12 6Z" fill="#000000"/>
<path fill-rule="evenodd" clip-rule="evenodd" d="M19.2328 20.6296C18.5874 21.0251 17.8281 21.253 17.0157 21.253C14.6684 21.253 12.7656 19.3502 12.7656 17.003C12.7656 14.6557 14.6685 12.7529 17.0157 12.7529C19.363 12.7529 21.2657 14.6557 21.2657 17.003C21.2657 17.813 21.0391 18.57 20.6459 19.2142L23 21.5683L21.6033 23L19.2328 20.6296ZM19.2657 17.003C19.2657 18.2457 18.2584 19.253 17.0157 19.253C15.773 19.253 14.7656 18.2457 14.7656 17.003C14.7656 15.7603 15.773 14.7529 17.0157 14.7529C18.2584 14.7529 19.2657 15.7603 19.2657 17.003Z" fill="#000000"/>
</svg>
