<svg xmlns="http://www.w3.org/2000/svg" width="24" height="24" viewBox="0 0 24 24" fill="none"><rect width="24" height="24" fill="none"/>
<path d="M3 6C3 4.34315 4.34315 3 6 3H18C19.6569 3 21 4.34315 21 6V8C21 9.65685 19.6569 11 18 11H6C4.34315 11 3 9.65685 3 8V6ZM6 5C5.44772 5 5 5.44772 5 6V8C5 8.55228 5.44772 9 6 9H18C18.5523 9 19 8.55228 19 8V6C19 5.44772 18.5523 5 18 5H6Z" fill="#000000"/>
<path d="M3 16C3 14.3431 4.34315 13 6 13H18C19.6569 13 21 14.3431 21 16V18C21 19.6569 19.6569 21 18 21H6C4.34315 21 3 19.6569 3 18V16ZM6 15C5.44772 15 5 15.4477 5 16V18C5 18.5523 5.44772 19 6 19H18C18.5523 19 19 18.5523 19 18V16C19 15.4477 18.5523 15 18 15H6Z" fill="#000000"/>
</svg>
