<svg xmlns="http://www.w3.org/2000/svg" width="24" height="24" viewBox="0 0 24 24" fill="none"><rect width="24" height="24" fill="none"/>
<path d="M22.707 14.707L19.9141 17.5L22.707 20.293L21.293 21.707L18.5 18.9141L15.707 21.707L14.293 20.293L17.0859 17.5L14.293 14.707L15.707 13.293L18.5 16.0859L21.293 13.293L22.707 14.707Z" fill="#000000"/>
<path d="M12 3C15.3137 3 18 5.68629 18 9V9.09961C19.2203 9.34729 20.2788 10.0397 21 11H16V9C16 6.79086 14.2091 5 12 5C9.79086 5 8 6.79086 8 9V10H7.5C5.567 10 4 11.567 4 13.5C4 15.433 5.567 17 7.5 17H12V19H7.5C4.46243 19 2 16.5376 2 13.5C2 10.9623 3.71884 8.82678 6.05566 8.19238C6.45021 5.26071 8.96025 3 12 3Z" fill="#000000"/>
</svg>
