<svg xmlns="http://www.w3.org/2000/svg" width="16" height="16" viewBox="0 0 16 16" fill="none"><rect width="16" height="16" fill="none"/>
<path d="M8.75 1.25C8.75 0.835786 8.41421 0.5 8 0.5C7.58579 0.5 7.25 0.835786 7.25 1.25V2.5H2.75C2.33579 2.5 2 2.83579 2 3.25C2 3.66421 2.33579 4 2.75 4H13.25C13.6642 4 14 3.66421 14 3.25C14 2.83579 13.6642 2.5 13.25 2.5H8.75V1.25Z" fill="#000000"/>
<path d="M4.25 6C4.66421 6 5 6.33579 5 6.75V12.25C5 12.9404 5.55964 13.5 6.25 13.5H9.75C10.4404 13.5 11 12.9404 11 12.25V6.75C11 6.33579 11.3358 6 11.75 6C12.1642 6 12.5 6.33579 12.5 6.75V12.25C12.5 13.7688 11.2688 15 9.75 15H6.25C4.73122 15 3.5 13.7688 3.5 12.25V6.75C3.5 6.33579 3.83579 6 4.25 6Z" fill="#000000"/>
</svg>
