<svg xmlns="http://www.w3.org/2000/svg" width="24" height="24" viewBox="0 0 24 24" fill="none"><rect width="24" height="24" fill="none"/>
<path d="M11 1.75C14 1.75 15 4.2737 15 6.75C15 9.2263 13.2275 11.25 11 11.25C8.7725 11.25 6.99998 9.27253 6.99998 6.75C6.99998 4.22747 7.99997 1.75 11 1.75Z" fill="#000000"/>
<path d="M11 18.5C11 19.7641 11.3127 20.9551 11.865 22H2V19.7143C2.05899 18.7199 2.45203 18.1261 3.05402 17.405C4.32062 15.8877 6.9917 14 11 14C11.5048 14 11.9858 14.0265 12.4433 14.0757C11.5358 15.316 11 16.8454 11 18.5Z" fill="#000000"/>
<path fill-rule="evenodd" clip-rule="evenodd" d="M18.5 24C21.5376 24 24 21.5376 24 18.5C24 15.4624 21.5376 13 18.5 13C15.4624 13 13 15.4624 13 18.5C13 21.5376 15.4624 24 18.5 24ZM18.5 22.2C20.3742 22.2 21.9229 20.8065 22.1666 18.9992H21C20.7239 18.9992 20.5 18.7753 20.5 18.4992V17.5H20C19.7239 17.5 19.5 17.2761 19.5 17V14.9367C19.1819 14.8476 18.8465 14.8 18.5 14.8C18.3301 14.8 18.1629 14.8115 17.999 14.8336V16.4999C17.999 16.776 17.7752 16.9992 17.499 16.9992H15.1171C14.9132 17.4579 14.8 17.9657 14.8 18.5C14.8 18.6692 14.8114 18.8358 14.8334 18.999C15.1705 18.9988 15.5076 18.9984 15.8448 18.998C16.7303 18.997 17.6159 18.996 18.5014 18.9983C18.7766 18.999 18.9992 19.2224 18.9993 19.4976L18.9997 19.9997C18.9999 20.2759 18.7756 20.5 18.4993 20.5C18.2232 20.5 17.999 20.7239 17.999 21V22.1664C18.1629 22.1885 18.3301 22.2 18.5 22.2Z" fill="#000000"/>
</svg>
