<svg xmlns="http://www.w3.org/2000/svg" width="24" height="24" viewBox="0 0 24 24" fill="none"><rect width="24" height="24" fill="none"/>
<path d="M12 2C17.5228 2 22 6.47715 22 12C22 12.8859 21.8848 13.7449 21.6686 14.5628L18.0524 10.947C17.4319 10.3266 16.5052 10.1991 15.7588 10.5645L11.8807 6.07953C11.6384 5.74565 11.626 5.29727 11.8495 4.95051L12.4539 4.01266C12.3037 4.00426 12.1523 4 12 4C10.6571 4 9.39153 4.33087 8.28029 4.91553L8.64771 5.17827C9.24941 5.60854 9.19188 6.52053 8.54087 6.87177L6.67201 7.88008C6.52612 7.95879 6.36295 8 6.19718 8H5.07026L5.05717 8.02271C4.70541 8.63542 4.43243 9.29913 4.25204 10H8.81818C9.19474 10 9.5 10.3053 9.5 10.6818C9.5 11.0584 9.80526 11.3636 10.1818 11.3636H12.625C13.1773 11.3636 13.625 11.8114 13.625 12.3636V12.5463L11.0857 15.0859C10.3047 15.8669 10.3048 17.1332 11.0858 17.9142L14.7801 21.6085C13.8975 21.8634 12.9647 22 12 22C6.47715 22 2 17.5228 2 12C2 6.47715 6.47715 2 12 2Z" fill="#000000"/>
<path d="M19.8626 15.3633L23.999 19.4996L19.8626 23.636L18.5898 22.3632L21.4534 19.4996L18.5899 16.6361L19.8626 15.3633Z" fill="#000000"/>
<path d="M17.9111 13.6341L15.0455 16.4999L17.9111 19.3655L16.6383 20.6383L12.5 16.5L16.6383 12.3613L17.9111 13.6341Z" fill="#000000"/>
</svg>
