<svg xmlns="http://www.w3.org/2000/svg" width="16" height="16" viewBox="0 0 16 16" fill="none"><rect width="16" height="16" fill="none"/>
<path fill-rule="evenodd" clip-rule="evenodd" d="M7.78918 1.38626C7.926 1.34065 8.07422 1.34065 8.21105 1.38626C8.22031 1.39215 9.64796 2.30039 10.6632 2.64993C11.7427 3.02155 13.5354 3.16733 13.5616 3.16946C13.8248 3.25719 14.0054 3.49465 14.0001 3.772C13.9645 5.59283 13.4589 12.3496 8.00011 14.648C2.54128 12.3496 2.03569 5.59283 2.00011 3.772C1.99481 3.49465 2.1754 3.25719 2.43859 3.16946C2.45877 3.1678 4.25098 3.02052 5.33019 2.64993C6.34548 2.30119 7.77319 1.39639 7.78918 1.38626ZM7.35363 11.2554H8.60656V10.0025H7.35363V11.2554ZM7.98058 4.00052C7.3525 4.00058 6.7931 4.27751 6.41418 4.70657L6.00011 5.1763L6.96203 5.98489L7.37707 5.51614C7.5311 5.34172 7.74664 5.23886 7.98058 5.2388C8.41094 5.2388 8.80065 5.59948 8.80089 6.09427C8.80089 6.32588 8.71385 6.53228 8.57531 6.68411C8.52399 6.74034 8.45833 6.8081 8.38586 6.88333C8.21462 7.06109 8.00311 7.28063 7.84289 7.48587C7.59764 7.80007 7.34596 8.2249 7.34582 8.74954H8.61632C8.61647 8.6229 8.67605 8.46439 8.85363 8.23684C8.97587 8.08026 9.10186 7.95025 9.24523 7.80227C9.33074 7.71403 9.4231 7.61947 9.52453 7.50833C9.86599 7.13412 10.0714 6.63565 10.0714 6.09427C10.0712 4.9601 9.15772 4.00052 7.98058 4.00052Z" fill="#000000"/>
</svg>
