<svg xmlns="http://www.w3.org/2000/svg" width="24" height="24" viewBox="0 0 24 24" fill="none"><rect width="24" height="24" fill="none"/>
<path fill-rule="evenodd" clip-rule="evenodd" d="M14.9999 13L16.996 7H13.0891L14.5 22H9.5L10.9085 7H7.00382L9 13C9 14.0609 8.57849 15.0783 7.82834 15.8284C7.0782 16.5786 6.06078 17 4.99992 17C3.93905 17 2.92163 16.5786 2.17149 15.8284C1.42134 15.0783 1 14.0609 1 13L4 4H20L22.9999 13C22.9999 14.0609 22.5785 15.0783 21.8283 15.8284C21.0782 16.5786 20.0608 17 18.9999 17C17.9391 17 16.9216 16.5786 16.1715 15.8284C15.4213 15.0783 14.9999 14.0609 14.9999 13ZM3.11201 13H6.89564L5.00382 7.32456L3.11201 13ZM18.996 7.32456L20.8878 13H17.1042L18.996 7.32456Z" fill="#000000"/>
</svg>
