<svg xmlns="http://www.w3.org/2000/svg" width="24" height="24" viewBox="0 0 24 24" fill="none"><rect width="24" height="24" fill="none"/>
<path d="M17.9787 9.50012C17.8033 7.46322 16.5365 6.19637 14.4996 6.02089C14.2245 5.99718 13.9997 5.77595 13.9998 5.49976C13.9999 5.22367 14.2246 5.00261 14.4996 4.97892C16.5364 4.80354 17.8035 3.53679 17.9789 1.49985C18.0026 1.22471 18.2238 0.999981 18.5 1C18.7761 1.00002 18.9972 1.22474 19.0209 1.49985C19.1963 3.53674 20.4629 4.8035 22.5003 4.97891C22.7754 5.0026 23.0002 5.22382 23.0001 5.5C23 5.77607 22.7753 5.99712 22.5003 6.02079C20.463 6.19615 19.1961 7.46309 19.0206 9.50012C18.997 9.77524 18.7758 9.99996 18.4997 9.99996C18.2235 9.99996 18.0024 9.77524 17.9787 9.50012Z" fill="#000000"/>
<path d="M8.55188 21.6111C8.24007 17.99 5.98805 15.7378 2.36702 15.4258C1.87797 15.3837 1.47834 14.9904 1.47852 14.4994C1.47869 14.0085 1.87815 13.6155 2.36702 13.5734C5.98788 13.2616 8.24042 11.0096 8.55223 7.38839C8.59437 6.89925 8.9876 6.49973 9.4786 6.49976C9.96943 6.4998 10.3625 6.8993 10.4046 7.38839C10.7164 11.0095 12.9681 13.2616 16.59 13.5734C17.0791 13.6155 17.4787 14.0088 17.4785 14.4998C17.4783 14.9906 17.0789 15.3836 16.59 15.4256C12.9683 15.7374 10.7161 17.9897 10.4041 21.6111C10.3621 22.1003 9.9689 22.4998 9.47807 22.4998C8.98707 22.4998 8.59402 22.1003 8.55188 21.6111Z" fill="#000000"/>
</svg>
