<svg xmlns="http://www.w3.org/2000/svg" width="24" height="24" viewBox="0 0 24 24" fill="none"><rect width="24" height="24" fill="none"/>
<path d="M20.7888 12.129C21.1938 12.0169 21.6079 12.0071 22 12.0871V7.61683C22 6.67376 21.3412 5.85883 20.4191 5.66123L8 3L8 21H10.87L10.7079 20.7281C10.0831 19.68 10.273 18.3387 11.1631 17.5051L11.1685 17.5L11.1631 17.495C10.2731 16.6613 10.0831 15.3199 10.7078 14.2719L11.2866 13.3011C11.8854 12.2968 13.0818 11.8169 14.2084 12.1289L14.2257 12.1337C14.2856 12.0971 14.3462 12.0615 14.4074 12.0269C14.7241 10.9149 15.7411 10.1428 16.9034 10.1428H18.0943C19.256 10.1428 20.2725 10.914 20.5897 12.0251C20.6517 12.0601 20.7131 12.0962 20.7737 12.1332L20.7888 12.129Z" fill="#000000"/>
<path d="M2 12C2 10.8954 2.89543 10 4 10H6V21H2V12Z" fill="#000000"/>
<path fill-rule="evenodd" clip-rule="evenodd" d="M21.7181 18.263L22.4674 18.9648C22.6716 19.1561 22.7151 19.4637 22.5718 19.704L21.9932 20.6747C21.8558 20.9051 21.5814 21.0152 21.3229 20.9435L20.3728 20.6804C19.9478 21.0646 19.4453 21.3648 18.8916 21.5548L18.6707 22.4106C18.6027 22.6736 18.3657 22.8571 18.0942 22.8571H16.9033C16.6318 22.8571 16.3948 22.6736 16.3269 22.4106L16.1058 21.5537C15.5529 21.3636 15.0513 21.0636 14.6268 20.6798L13.6746 20.9435C13.4162 21.0152 13.1418 20.9051 13.0044 20.6747L12.4257 19.704C12.2825 19.4637 12.326 19.1561 12.5302 18.9648L13.2818 18.2609C13.2376 18.0139 13.2144 17.7597 13.2144 17.5C13.2144 17.2402 13.2376 16.986 13.2817 16.7391L12.5302 16.0352C12.326 15.844 12.2825 15.5363 12.4257 15.2959L13.0044 14.3252C13.1418 14.0949 13.4162 13.9848 13.6746 14.0564L14.6267 14.3202C15.0512 13.9363 15.5529 13.6363 16.1058 13.4462L16.3269 12.5893C16.3948 12.3265 16.6318 12.1428 16.9033 12.1428H18.0942C18.3657 12.1428 18.6027 12.3265 18.6707 12.5893L18.8915 13.4451C19.4453 13.6351 19.9478 13.9353 20.373 14.3196L21.3229 14.0564C21.5814 13.9848 21.8558 14.0949 21.9932 14.3252L22.5718 15.2959C22.7151 15.5363 22.6716 15.844 22.4674 16.0352L21.7181 16.7369C21.7626 16.9845 21.7858 17.2395 21.7858 17.5C21.7858 17.7604 21.7626 18.0154 21.7181 18.263ZM17.4999 15.8912C18.3885 15.8912 19.1089 16.6116 19.1089 17.5003C19.1089 18.3888 18.3885 19.1093 17.4999 19.1093C16.6113 19.1093 15.8908 18.3888 15.8908 17.5003C15.8908 16.6116 16.6113 15.8912 17.4999 15.8912Z" fill="#000000"/>
</svg>
