<svg xmlns="http://www.w3.org/2000/svg" width="24" height="24" viewBox="0 0 24 24" fill="none"><rect width="24" height="24" fill="none"/>
<path d="M14.02 18.5053L11.9267 21H8L8 3L20.4191 5.66123C21.3412 5.85883 22 6.67376 22 7.61683V9L19.2099 12.3203C18.4787 10.9402 17.0277 10.0001 15.3571 10.0001C12.9508 10.0001 11 11.9508 11 14.3572C11 16.2971 12.2678 17.9409 14.02 18.5053Z" fill="#000000"/>
<path d="M22.8898 13.4909L21.686 12.4808L14.1103 21.5092L15.314 22.5193L22.8898 13.4909Z" fill="#000000"/>
<path fill-rule="evenodd" clip-rule="evenodd" d="M19.3295 20.1882C19.5414 19.1039 20.4965 18.2857 21.6429 18.2857C22.9446 18.2857 24 19.341 24 20.6429C24 21.9446 22.9446 23 21.6429 23C20.4624 23 19.4847 22.1323 19.3126 21C19.3067 20.9613 19.3018 20.9224 19.2978 20.8831C19.2898 20.8042 19.2857 20.724 19.2857 20.6429M20.943 21C21.073 21.2545 21.3377 21.4287 21.6431 21.4287C22.077 21.4287 22.4288 21.0769 22.4288 20.643C22.4288 20.209 22.077 19.8572 21.6431 19.8572C21.4037 19.8572 21.1893 19.9643 21.0452 20.1332C20.9529 20.2414 20.8894 20.3751 20.8667 20.522C20.8606 20.5614 20.8574 20.6018 20.8574 20.6429M20.8701 20.7842C20.8839 20.8605 20.9088 20.933 20.943 21L20.8701 20.7842ZM20.8574 20.6429C20.8574 20.6911 20.8617 20.7383 20.8701 20.7842L20.8574 20.6429Z" fill="#000000"/>
<path d="M19.2857 20.6429C19.2857 20.4874 19.3008 20.3353 19.3295 20.1882L19.2857 20.6429Z" fill="#000000"/>
<path d="M2 12C2 10.8954 2.89543 10 4 10H6V21H2V12Z" fill="#000000"/>
<path fill-rule="evenodd" clip-rule="evenodd" d="M17.697 14.6445C17.7084 14.5503 17.7143 14.4545 17.7143 14.3573C17.7143 14.3523 17.7143 14.3471 17.7142 14.3421C17.7138 14.2662 17.7097 14.1911 17.7022 14.1171C17.5819 12.928 16.5779 12 15.3571 12C14.0553 12 13 13.0553 13 14.3571C13 14.5284 13.0183 14.6954 13.0529 14.8562C13.1171 15.154 13.2376 15.4308 13.4026 15.6751C13.4886 15.8024 13.5868 15.9209 13.6954 16.0289C14.1215 16.4525 14.7088 16.7143 15.3571 16.7143C15.4145 16.7143 15.4716 16.7123 15.528 16.7082C16.6545 16.6276 17.562 15.7552 17.697 14.6445ZM14.5717 14.3572C14.5717 13.9233 14.9235 13.5715 15.3574 13.5715C15.7913 13.5715 16.1431 13.9233 16.1431 14.3572C16.1431 14.7912 15.7913 15.1429 15.3574 15.1429C14.9235 15.1429 14.5717 14.7912 14.5717 14.3572Z" fill="#000000"/>
</svg>
