<svg xmlns="http://www.w3.org/2000/svg" width="16" height="16" viewBox="0 0 16 16" fill="none"><rect width="16" height="16" fill="none"/>
<path fill-rule="evenodd" clip-rule="evenodd" d="M7.78917 1.38575C7.92597 1.34015 8.07425 1.34018 8.21105 1.38575C8.21105 1.38575 9.64462 2.29871 10.6632 2.64942C11.7507 3.02385 13.5626 3.16993 13.5626 3.16993C13.8256 3.25777 14.0054 3.49433 14.0001 3.77149C13.9645 5.5924 13.4591 12.349 8.00011 14.6475C2.54138 12.3488 2.03569 5.59235 2.00011 3.77149C1.99486 3.49418 2.17542 3.25765 2.43859 3.16993C2.45539 3.16855 4.24989 3.02037 5.33019 2.64942C6.34336 2.30141 7.76725 1.39964 7.78917 1.38575ZM7.06261 4.76173L6.24816 7.84181L7.87706 8.21485L7.06261 11.4815L10.1681 7.28126L7.87706 7.00196L8.76769 4.48243L7.06261 4.76173Z" fill="#000000"/>
</svg>
