<svg xmlns="http://www.w3.org/2000/svg" width="16" height="16" viewBox="0 0 16 16" fill="none"><rect width="16" height="16" fill="none"/>
<path fill-rule="evenodd" clip-rule="evenodd" d="M7.7908 1.48517C7.92681 1.43984 8.07407 1.43984 8.21007 1.48517C8.23282 1.49963 9.64273 2.39457 10.6469 2.74038C11.7269 3.1122 13.5252 3.2577 13.5284 3.25796C13.79 3.34516 13.9692 3.58062 13.964 3.85627C13.9286 5.66612 13.4262 12.3822 8.00044 14.6668C2.57453 12.3823 2.07161 5.66611 2.03624 3.85627C2.031 3.58072 2.21037 3.34523 2.47179 3.25796C2.47179 3.25796 4.26804 3.11092 5.34679 2.74038C6.35829 2.39289 7.78142 1.49112 7.7908 1.48517ZM7.53364 8.48843L6.14171 7.0965L5.34679 7.89142L7.53364 10.0783L11.3097 6.30158L10.5148 5.50666L7.53364 8.48843Z" fill="#000000"/>
</svg>
