<svg xmlns="http://www.w3.org/2000/svg" width="24" height="24" viewBox="0 0 24 24" fill="none"><rect width="24" height="24" fill="none"/>
<path d="M15.249 7.49707C19.2535 7.49715 22.5 10.7436 22.5 14.748C22.4999 18.7525 19.2534 21.9989 15.249 21.999C11.2445 21.999 7.99812 18.7525 7.99805 14.748C7.99805 10.7435 11.2445 7.49707 15.249 7.49707ZM14.2646 15.5322L12.6318 13.8994L11.5 15.0312L14.2646 17.7949L19.4287 12.6318L18.2969 11.5L14.2646 15.5322Z" fill="#000000"/>
<path d="M6.58594 18C7.00627 19.1192 7.63733 20.1353 8.43066 21H3V18H6.58594Z" fill="#000000"/>
<path d="M6.16309 13C6.05485 13.566 5.99805 14.1505 5.99805 14.748C5.99805 15.1727 6.02663 15.5906 6.08203 16H3V13H6.16309Z" fill="#000000"/>
<path d="M8.9209 8C8.02377 8.84165 7.29474 9.86028 6.78906 11H3V8H8.9209Z" fill="#000000"/>
<path d="M19 6H3V3H19V6Z" fill="#000000"/>
</svg>
