<svg xmlns="http://www.w3.org/2000/svg" width="24" height="24" viewBox="0 0 24 24" fill="none"><rect width="24" height="24" fill="none"/>
<path d="M11 19.9998L11 5.50001H17.4045C17.2021 7.70553 16.7383 9.51654 16.1461 11L18.8079 11.0056C19.3407 9.4391 19.7374 7.61638 19.9139 5.50001C19.9543 5.0155 19.9832 4.51561 19.9995 3.99987C20.017 3.44786 19.5674 3.00001 19.0152 3.00001L2.98485 3C2.43257 3 1.98303 3.44786 2.00049 3.99987C2.01681 4.5156 2.04568 5.01549 2.08609 5.5C3.07556 17.3636 11 19.9998 11 19.9998Z" fill="#000000"/>
<path fill-rule="evenodd" clip-rule="evenodd" d="M18.5 24C21.5376 24 24 21.5376 24 18.5C24 15.4624 21.5376 13 18.5 13C15.4624 13 13 15.4624 13 18.5C13 21.5376 15.4624 24 18.5 24ZM18.5 22.2C20.3742 22.2 21.9229 20.8065 22.1666 18.9992H21C20.7239 18.9992 20.5 18.7753 20.5 18.4992V17.5H20C19.7239 17.5 19.5 17.2761 19.5 17V14.9367C19.1819 14.8476 18.8465 14.8 18.5 14.8C18.3301 14.8 18.1629 14.8115 17.999 14.8336V16.4999C17.999 16.776 17.7752 16.9992 17.499 16.9992H15.1171C14.9133 17.4579 14.8 17.9657 14.8 18.5C14.8 18.6692 14.8114 18.8358 14.8334 18.999C15.1705 18.9988 15.5076 18.9984 15.8448 18.998C16.7303 18.997 17.6159 18.996 18.5014 18.9983C18.7766 18.999 18.9992 19.2224 18.9993 19.4976L18.9997 19.9997C18.9999 20.2759 18.7756 20.5 18.4993 20.5C18.2232 20.5 17.999 20.7239 17.999 21V22.1664C18.1629 22.1885 18.3301 22.2 18.5 22.2Z" fill="#000000"/>
</svg>
