<svg xmlns="http://www.w3.org/2000/svg" width="16" height="16" viewBox="0 0 16 16" fill="none"><rect width="16" height="16" fill="none"/>
<path fill-rule="evenodd" clip-rule="evenodd" d="M7.78869 1.38575C7.92548 1.34015 8.07376 1.34018 8.21056 1.38575C8.21056 1.38575 9.64413 2.29871 10.6627 2.64942C11.7502 3.02385 13.5621 3.16993 13.5621 3.16993C13.8251 3.25777 14.0049 3.49433 13.9996 3.77149C13.964 5.5924 13.4586 12.349 7.99962 14.6475C2.54089 12.3488 2.0352 5.59235 1.99962 3.77149C1.99437 3.49418 2.17494 3.25765 2.4381 3.16993C2.45491 3.16855 4.24941 3.02037 5.3297 2.64942C6.34287 2.30141 7.76676 1.39964 7.78869 1.38575ZM7.06212 4.76173L6.24767 7.84181L7.87658 8.21485L7.06212 11.4815L10.1676 7.28126L7.87658 7.00196L8.7672 4.48243L7.06212 4.76173Z" fill="#000000"/>
</svg>
