<svg xmlns="http://www.w3.org/2000/svg" width="24" height="24" viewBox="0 0 24 24" fill="none"><rect width="24" height="24" fill="none"/>
<path fill-rule="evenodd" clip-rule="evenodd" d="M22 12C22 17.5228 17.5228 22 12 22C6.47715 22 2 17.5228 2 12C2 6.47715 6.47715 2 12 2C17.5228 2 22 6.47715 22 12ZM10.1517 10.0045C9.27291 8.66518 7.30455 8.66517 6.42572 10.0045L4.16393 13.4514L5.83607 14.5486L8.09787 11.1017C8.18686 10.9661 8.39059 10.9661 8.47958 11.1017L10.137 13.6276C11.0158 14.9669 12.9842 14.9669 13.863 13.6276L15.5204 11.1017C15.6094 10.9661 15.8131 10.9661 15.9021 11.1017L18.1639 14.5486L19.8361 13.4514L17.5743 10.0045C16.6955 8.66517 14.7271 8.66518 13.8483 10.0045L12.1909 12.5303C12.1019 12.6659 11.8981 12.6659 11.8091 12.5303L10.1517 10.0045Z" fill="#000000"/>
</svg>
