<svg xmlns="http://www.w3.org/2000/svg" width="24" height="24" viewBox="0 0 24 24" fill="none"><rect width="24" height="24" fill="none"/>
<path d="M12.9068 16.89H10.9996V15.0003H12.9068V16.89Z" fill="#000000"/>
<path d="M11.9195 7.00032C13.6543 7.00054 15.0006 8.41565 15.0006 10.0872C15.0006 10.8851 14.6962 11.6188 14.193 12.1702C14.0435 12.334 13.9078 12.4738 13.7818 12.6038C13.5706 12.8219 13.3858 13.0127 13.2057 13.2435C12.9434 13.5795 12.8551 13.8135 12.8551 14.0003H10.983C10.983 13.2266 11.3548 12.6002 11.7164 12.137C11.9525 11.8347 12.2639 11.5122 12.5162 11.2503C12.6231 11.1394 12.7198 11.0383 12.7955 10.9554C12.9995 10.7317 13.1285 10.4284 13.1285 10.0872C13.1285 9.35787 12.5538 8.82672 11.9195 8.82649C11.5746 8.82649 11.256 8.9766 11.0289 9.23372L10.4185 9.92512L9.00058 8.73372L9.61093 8.04231C10.1694 7.40993 10.9938 7.00032 11.9195 7.00032Z" fill="#000000"/>
<path fill-rule="evenodd" clip-rule="evenodd" d="M10.5221 2.6761C11.4429 2.17879 12.5559 2.1781 13.4771 2.67512C14.3446 3.14337 15.5371 3.75586 16.3531 4.06379C17.2841 4.41503 18.555 4.51156 19.4801 4.5218C20.5184 4.53327 21.5314 5.34986 21.4928 6.55696C21.4409 8.17072 21.1756 11.4208 19.9391 14.6136C18.7 17.8127 16.4325 21.0761 12.316 22.4486L11.9996 22.554L11.6832 22.4486C7.56643 21.0758 5.29813 17.8119 4.05917 14.6126C2.8228 11.4196 2.55824 8.16922 2.50644 6.55598C2.46794 5.34978 3.48002 4.53369 4.51815 4.5218C5.44429 4.51122 6.71686 4.41415 7.64706 4.06379C8.46445 3.7559 9.65534 3.14422 10.5221 2.6761ZM12.5279 4.43489C12.1999 4.25793 11.8004 4.25865 11.4723 4.43586C10.6108 4.90113 9.31136 5.57455 8.35214 5.93586C7.07705 6.41611 5.5087 6.51076 4.54061 6.5218C4.52693 6.52196 4.51519 6.52341 4.50644 6.52668C4.55776 8.05089 4.81338 11.0218 5.9244 13.8909C7.00597 16.6837 8.84874 19.2659 11.9996 20.4398C15.1503 19.2661 16.9931 16.6845 18.0748 13.8919C19.1859 11.0232 19.4403 8.05237 19.4918 6.52766C19.4831 6.52452 19.4718 6.52198 19.4586 6.5218C18.4907 6.51111 16.9234 6.41733 15.6471 5.93586C14.69 5.57471 13.3899 4.90016 12.5279 4.43489Z" fill="#000000"/>
</svg>
