<svg xmlns="http://www.w3.org/2000/svg" width="24" height="24" viewBox="0 0 24 24" fill="none"><rect width="24" height="24" fill="none"/>
<path fill-rule="evenodd" clip-rule="evenodd" d="M5.99951 3C5.99951 2.44772 6.44723 2 6.99951 2H14.1845C15.9594 2 17.3463 3.53245 17.1697 5.29851L17.0238 6.75677C17.0113 6.88251 17.117 6.98825 17.2427 6.97568L18.701 6.82985C20.4671 6.65325 21.9995 8.0401 21.9995 9.81496V21C21.9995 21.5523 21.5518 22 20.9995 22H6.99951C6.44723 22 5.99951 21.5523 5.99951 21V3ZM14.8496 8.5H13.1504V9.63697C11.9065 9.92595 10.8066 10.8379 10.8066 12.1926C10.8066 13.8516 12.4561 14.8466 13.9996 14.8466C15.0441 14.8466 15.4926 15.4669 15.4926 15.8006C15.4926 16.1343 15.0441 16.7546 13.9996 16.7546C12.9551 16.7546 12.5066 16.1343 12.5066 15.8006H10.8066C10.8066 17.1549 11.9059 18.0668 13.1494 18.356V19.5H14.85V18.356C16.0934 18.0667 17.1926 17.1549 17.1926 15.8006C17.1926 14.1416 15.5431 13.1466 13.9996 13.1466C12.9551 13.1466 12.5066 12.5263 12.5066 12.1926C12.5066 11.8589 12.9551 11.2386 13.9996 11.2386C15.0441 11.2386 15.4926 11.8589 15.4926 12.1926H17.1926C17.1926 10.8382 16.0932 9.9263 14.8496 9.63713V8.5Z" fill="#000000"/>
<path d="M4.49939 7.60132L1.04143 19.2772C0.884596 19.8067 1.18674 20.3631 1.71629 20.52L4.5239 21.3515C4.50775 21.2366 4.49939 21.1193 4.49939 21V7.60132Z" fill="#000000"/>
</svg>
