<svg xmlns="http://www.w3.org/2000/svg" width="24" height="24" viewBox="0 0 24 24" fill="none"><rect width="24" height="24" fill="none"/>
<path fill-rule="evenodd" clip-rule="evenodd" d="M11.6867 2.22776C11.8907 2.15976 12.1116 2.15976 12.3156 2.22776C12.3497 2.24944 14.4646 3.59185 15.9709 4.11057C17.5908 4.66829 20.2883 4.88655 20.2931 4.88694C20.6855 5.01774 20.9543 5.37093 20.9465 5.7844C20.8934 8.49917 20.1398 18.5734 12.0011 22.0002C3.86229 18.5734 3.1079 8.49917 3.05486 5.7844C3.04699 5.37108 3.31605 5.01785 3.70818 4.88694C3.70818 4.88694 6.40255 4.66639 8.02068 4.11057C9.53792 3.58934 11.6726 2.23669 11.6867 2.22776ZM11.3009 12.7326L9.21306 10.6448L8.02068 11.8371L11.3009 15.1174L16.965 9.45237L15.7726 8.25999L11.3009 12.7326Z" fill="#000000"/>
</svg>
