<svg xmlns="http://www.w3.org/2000/svg" width="24" height="24" viewBox="0 0 24 24" fill="none"><rect width="24" height="24" fill="none"/>
<path fill-rule="evenodd" clip-rule="evenodd" d="M3.00018 5.64056C2.99205 5.22319 3.2626 4.8665 3.65751 4.73449L11.6838 2.05146C11.8891 1.98285 12.111 1.98285 12.3162 2.05146L20.3425 4.73449C20.7374 4.8665 21.008 5.22319 20.9998 5.64056C20.9464 8.37955 20.188 18.5426 12 22C3.81184 18.5426 3.05354 8.37953 3.00018 5.64056ZM10.0165 14.3633H9V13.7366H10.0165V12.7026H9V12.076H10.0165V7H12.9053C14.4568 7 15.5 8.16559 15.5 9.85129V9.86383C15.5 11.5558 14.4514 12.7026 12.9 12.7026H11.5839V13.7366H13.6383V14.3633H11.5839V15.6667H10.0165V14.3633ZM11.5839 8.46011V11.2926H12.4613C13.4136 11.2926 13.9111 10.785 13.9111 9.88263V9.8701C13.9111 8.96771 13.4189 8.46011 12.4613 8.46011H11.5839Z" fill="#000000"/>
</svg>
