<svg xmlns="http://www.w3.org/2000/svg" width="24" height="24" viewBox="0 0 24 24" fill="none"><rect width="24" height="24" fill="none"/>
<path fill-rule="evenodd" clip-rule="evenodd" d="M17.8008 8.25C17.2759 9.84697 15.7726 11 14 11C12.2274 11 10.7241 9.84697 10.1992 8.25L4 8.25V5.75L10.1992 5.75C10.7241 4.15303 12.2274 3 14 3C15.7726 3 17.2759 4.15303 17.8008 5.75L20 5.75V8.25L17.8008 8.25ZM15.5 7C15.5 7.82843 14.8284 8.5 14 8.5C13.1716 8.5 12.5 7.82843 12.5 7C12.5 6.17157 13.1716 5.5 14 5.5C14.8284 5.5 15.5 6.17157 15.5 7Z" fill="#000000"/>
<path fill-rule="evenodd" clip-rule="evenodd" d="M4 18.25H6.19919C6.72409 19.847 8.22739 21 10 21C11.7726 21 13.2759 19.847 13.8008 18.25H20V15.75H13.8008C13.2759 14.153 11.7726 13 10 13C8.22739 13 6.72409 14.153 6.19919 15.75H4V18.25ZM10 15.5C9.17157 15.5 8.5 16.1716 8.5 17C8.5 17.8284 9.17157 18.5 10 18.5C10.8284 18.5 11.5 17.8284 11.5 17C11.5 16.1716 10.8284 15.5 10 15.5Z" fill="#000000"/>
</svg>
