<svg xmlns="http://www.w3.org/2000/svg" width="16" height="16" viewBox="0 0 16 16" fill="none"><rect width="16" height="16" fill="none"/>
<path fill-rule="evenodd" clip-rule="evenodd" d="M7.78918 1.46C7.926 1.41438 8.07423 1.41438 8.21106 1.46C8.2333 1.47415 9.65272 2.37564 10.6632 2.72367C11.7507 3.09811 13.5616 3.24418 13.5616 3.24418C13.8248 3.33202 14.0055 3.56923 14.0001 3.84672C13.9645 5.66836 13.4583 12.4265 8.00012 14.7256C2.54172 12.4265 2.03572 5.66838 2.00012 3.84672C1.9947 3.56918 2.17537 3.33198 2.4386 3.24418C2.4386 3.24418 4.24492 3.09651 5.3302 2.72367C6.34514 2.37491 7.77238 1.47065 7.78918 1.46ZM7.9718 10.0323C7.56469 10.0323 7.23449 10.3624 7.23449 10.7696C7.23472 11.1765 7.56483 11.5059 7.9718 11.5059C8.3788 11.5059 8.70887 11.1765 8.7091 10.7696C8.7091 10.3624 8.37894 10.0323 7.9718 10.0323ZM7.2052 4.72367L7.38195 9.1475H8.56164L8.7384 4.72367H7.2052Z" fill="#000000"/>
</svg>
