<svg xmlns="http://www.w3.org/2000/svg" width="24" height="24" viewBox="0 0 24 24" fill="none"><rect width="24" height="24" fill="none"/>
<path d="M12.2511 19.8678C13.6451 17.5685 14.5 14.8779 14.5 11.9962C14.5 9.11606 13.646 6.42681 12.2534 4.1284L8.73601 6.04979C9.82242 7.78328 10.5 9.82157 10.5 11.9962C10.5 14.1724 9.82152 16.212 8.73366 17.9463L12.2511 19.8678Z" fill="#000000"/>
<path d="M14.4648 21.077C16.0744 18.4153 17 15.3095 17 11.9986C17 8.68776 16.0744 5.58202 14.4649 2.92039L17.9804 1C19.8973 4.22593 21 7.98268 21 11.9986C21 16.0146 19.8973 19.7714 17.9804 22.9974L14.4648 21.077Z" fill="#000000"/>
<path d="M6.52681 16.7408C7.39887 15.3699 8 13.7461 8 11.9987C8 10.2513 7.39889 8.62744 6.52685 7.25655L3.00054 9.18281C3.57181 9.98512 4 10.9581 4 11.9987C4 13.0392 3.57179 14.0122 3.00049 14.8146L6.52681 16.7408Z" fill="#000000"/>
</svg>
