<svg xmlns="http://www.w3.org/2000/svg" width="24" height="24" viewBox="0 0 24 24" fill="none"><rect width="24" height="24" fill="none"/>
<path d="M20.2795 5.62075C20.5679 5.81943 20.5679 6.22208 20.2795 6.42075L14.3178 11.327C13.9915 11.5954 13.5 11.3634 13.5 10.9409V8.49989C13.0829 8.49989 12.6582 8.49288 12.2292 8.48581C9.31804 8.4378 6.21336 8.38659 4.00004 10.4999H3.50004C3.50004 6.83146 6.12128 3.49988 10 3.49988H13.5V1.06394C13.5 0.640608 13.9933 0.408835 14.3192 0.679031L20.2795 5.62075Z" fill="#000000"/>
<path d="M3.71628 18.379C3.42791 18.1804 3.42791 17.7777 3.71628 17.579L9.68112 12.6734C10.0076 12.4049 10.4992 12.6375 10.4987 13.0601L10.4958 15.4999C10.9129 15.4999 11.3376 15.5069 11.7666 15.514C14.6778 15.562 17.7824 15.6132 19.9958 13.4999H20.4958C20.4958 17.1683 17.8745 20.4999 13.9958 20.4999H10.4958V22.9358C10.4958 23.3592 10.0025 23.5909 9.67664 23.3208L3.71628 18.379Z" fill="#000000"/>
</svg>
