<svg xmlns="http://www.w3.org/2000/svg" width="24" height="24" viewBox="0 0 24 24" fill="none"><rect width="24" height="24" fill="none"/>
<path d="M13.9093 10.9989L12.6858 14.6354H15.1102L13.9546 10.9989H13.9093Z" fill="#000000"/>
<path fill-rule="evenodd" clip-rule="evenodd" d="M5.99988 3C5.99988 2.44772 6.44759 2 6.99988 2H14.1849C15.9598 2 17.3466 3.53245 17.17 5.29851L17.0242 6.75677C17.0116 6.88251 17.1174 6.98825 17.2431 6.97568L18.7014 6.82985C20.4674 6.65325 21.9999 8.0401 21.9999 9.81496V21C21.9999 21.5523 21.5522 22 20.9999 22H6.99988C6.44759 22 5.99988 21.5523 5.99988 21V3ZM13.9999 9C14.9821 9 15.2688 9.58589 15.5174 10.3276L18.0895 18H16.1863L15.6086 16.176H12.1647L11.5416 18H9.75169L12.4508 10.3276C12.7126 9.58348 13.0176 9 13.9999 9Z" fill="#000000"/>
<path d="M4.49988 7.60132L1.04192 19.2772C0.885084 19.8067 1.18723 20.3631 1.71678 20.52L4.52439 21.3515C4.50823 21.2366 4.49988 21.1193 4.49988 21V7.60132Z" fill="#000000"/>
</svg>
