<svg xmlns="http://www.w3.org/2000/svg" width="16" height="16" viewBox="0 0 16 16" fill="none"><rect width="16" height="16" fill="none"/>
<path d="M9 3C8.44772 3 8 3.44772 8 4C8 4.55228 8.44772 5 9 5C9.55228 5 10 4.55228 10 4C10 3.44772 9.55228 3 9 3ZM2 3H6.17071C6.58254 1.83481 7.69378 1 9 1C10.3062 1 11.4175 1.83481 11.8293 3H14V5H11.8293C11.4175 6.16519 10.3062 7 9 7C7.69378 7 6.58254 6.16519 6.17071 5H2V3ZM9.82929 11H14V13H9.82929C9.41746 14.1652 8.30622 15 7 15C5.69378 15 4.58254 14.1652 4.17071 13H2V11H4.17071C4.58254 9.83481 5.69378 9 7 9C8.30622 9 9.41746 9.83481 9.82929 11ZM8 12C8 11.4477 7.55228 11 7 11C6.44772 11 6 11.4477 6 12C6 12.5523 6.44772 13 7 13C7.55228 13 8 12.5523 8 12Z" fill="#000000"/>
</svg>
