<svg xmlns="http://www.w3.org/2000/svg" width="24" height="24" viewBox="0 0 24 24" fill="none"><rect width="24" height="24" fill="none"/>
<path fill-rule="evenodd" clip-rule="evenodd" d="M5 2.5C4.6601 2.5 4.33724 2.56756 4.04316 2.6895C3.78808 2.79528 3.49555 2.67425 3.38977 2.41917C3.284 2.16409 3.40503 1.87156 3.66011 1.76578C4.07348 1.59436 4.52635 1.5 5 1.5H6.75C7.02614 1.5 7.25 1.72386 7.25 2C7.25 2.27614 7.02614 2.5 6.75 2.5H5ZM9.75 2C9.75 1.72386 9.97386 1.5 10.25 1.5H13.75C14.0261 1.5 14.25 1.72386 14.25 2C14.25 2.27614 14.0261 2.5 13.75 2.5H10.25C9.97386 2.5 9.75 2.27614 9.75 2ZM16.75 2C16.75 1.72386 16.9739 1.5 17.25 1.5H19C19.4736 1.5 19.9265 1.59436 20.3399 1.76578C20.595 1.87156 20.716 2.16409 20.6102 2.41917C20.5044 2.67425 20.2119 2.79528 19.9568 2.6895C19.6628 2.56756 19.3399 2.5 19 2.5H17.25C16.9739 2.5 16.75 2.27614 16.75 2ZM2.41917 3.38977C2.67425 3.49555 2.79528 3.78808 2.6895 4.04316C2.56756 4.33724 2.5 4.6601 2.5 5V6.75C2.5 7.02614 2.27614 7.25 2 7.25C1.72386 7.25 1.5 7.02614 1.5 6.75V5C1.5 4.52635 1.59436 4.07348 1.76578 3.66011C1.87156 3.40503 2.16409 3.284 2.41917 3.38977ZM21.5808 3.38977C21.8359 3.284 22.1284 3.40503 22.2342 3.66011C22.4056 4.07348 22.5 4.52635 22.5 5V6.75C22.5 7.02614 22.2761 7.25 22 7.25C21.7239 7.25 21.5 7.02614 21.5 6.75V5C21.5 4.6601 21.4324 4.33724 21.3105 4.04316C21.2047 3.78808 21.3258 3.49555 21.5808 3.38977ZM2 9.75C2.27614 9.75 2.5 9.97386 2.5 10.25V13.75C2.5 14.0261 2.27614 14.25 2 14.25C1.72386 14.25 1.5 14.0261 1.5 13.75V10.25C1.5 9.97386 1.72386 9.75 2 9.75ZM22 9.75C22.2761 9.75 22.5 9.97386 22.5 10.25V13.75C22.5 14.0261 22.2761 14.25 22 14.25C21.7239 14.25 21.5 14.0261 21.5 13.75V10.25C21.5 9.97386 21.7239 9.75 22 9.75ZM2 16.75C2.27614 16.75 2.5 16.9739 2.5 17.25V19C2.5 19.3399 2.56756 19.6628 2.6895 19.9568C2.79528 20.2119 2.67425 20.5044 2.41917 20.6102C2.16409 20.716 1.87156 20.595 1.76578 20.3399C1.59436 19.9265 1.5 19.4736 1.5 19V17.25C1.5 16.9739 1.72386 16.75 2 16.75ZM22 16.75C22.2761 16.75 22.5 16.9739 22.5 17.25V19C22.5 19.4736 22.4056 19.9265 22.2342 20.3399C22.1284 20.595 21.8359 20.716 21.5808 20.6102C21.3258 20.5044 21.2047 20.2119 21.3105 19.9568C21.4324 19.6628 21.5 19.3399 21.5 19V17.25C21.5 16.9739 21.7239 16.75 22 16.75ZM3.38977 21.5808C3.49555 21.3258 3.78808 21.2047 4.04316 21.3105C4.33724 21.4324 4.6601 21.5 5 21.5H6.75C7.02614 21.5 7.25 21.7239 7.25 22C7.25 22.2761 7.02614 22.5 6.75 22.5H5C4.52635 22.5 4.07348 22.4056 3.66011 22.2342C3.40503 22.1284 3.284 21.8359 3.38977 21.5808ZM20.6102 21.5808C20.716 21.8359 20.595 22.1284 20.3399 22.2342C19.9265 22.4056 19.4736 22.5 19 22.5H17.25C16.9739 22.5 16.75 22.2761 16.75 22C16.75 21.7239 16.9739 21.5 17.25 21.5H19C19.3399 21.5 19.6628 21.4324 19.9568 21.3105C20.2119 21.2047 20.5044 21.3258 20.6102 21.5808ZM9.75 22C9.75 21.7239 9.97386 21.5 10.25 21.5H13.75C14.0261 21.5 14.25 21.7239 14.25 22C14.25 22.2761 14.0261 22.5 13.75 22.5H10.25C9.97386 22.5 9.75 22.2761 9.75 22Z" fill="#000000"/>
</svg>
