<svg xmlns="http://www.w3.org/2000/svg" width="24" height="24" viewBox="0 0 24 24" fill="none"><rect width="24" height="24" fill="none"/>
<path fill-rule="evenodd" clip-rule="evenodd" d="M19 12.7428C21.443 11.734 23 10.2079 23 8.5C23 5.46243 18.0751 3 12 3C5.92487 3 1 5.46243 1 8.5C1 10.2079 2.55699 11.734 5 12.7428V15.0702C6.95952 15.6501 9.37055 16 11.9993 16C14.6287 16 17.0402 15.6499 19 15.0698V12.7428ZM13.2487 12.9993C13.2487 13.6888 12.6898 14.2477 12.0003 14.2477C11.3109 14.2477 10.752 13.6888 10.752 12.9993C10.752 12.3099 11.3109 11.751 12.0003 11.751C12.6898 11.751 13.2487 12.3099 13.2487 12.9993Z" fill="#000000"/>
<path d="M19 17.1467C16.9419 17.6927 14.5431 18 11.9993 18C9.45617 18 7.05785 17.6928 5 17.1471V17.5C5 19.433 8.13401 21 12 21C15.866 21 19 19.433 19 17.5V17.1467Z" fill="#000000"/>
</svg>
