<svg xmlns="http://www.w3.org/2000/svg" width="48" height="48" viewBox="0 0 48 48" fill="none"><rect width="48" height="48" fill="none"/>
<path fill-rule="evenodd" clip-rule="evenodd" d="M5.00038 11.2811C4.98321 10.4464 5.55438 9.733 6.38807 9.46898L23.3325 4.10291C23.7658 3.9657 24.2342 3.9657 24.6675 4.10291L41.6119 9.46898C42.4456 9.733 43.0168 10.4464 42.9996 11.2811C42.8869 16.7591 41.2859 37.0852 24 44C6.71388 37.0852 5.11303 16.7591 5.00038 11.2811ZM19.8125 28.7265H17.6667V27.4731H19.8125V25.4052H17.6667V24.1519H19.8125V14H25.9113C29.1865 14 31.3889 16.3312 31.3889 19.7026V19.7277C31.3889 23.1116 29.1752 25.4052 25.9 25.4052H23.1217V27.4731H27.4586V28.7265H23.1217V31.3333H19.8125V28.7265ZM23.1217 16.9202V22.5852H24.9739C26.9842 22.5852 28.0345 21.57 28.0345 19.7653V19.7402C28.0345 17.9354 26.9955 16.9202 24.9739 16.9202H23.1217Z" fill="#000000"/>
</svg>
