<svg xmlns="http://www.w3.org/2000/svg" width="24" height="24" viewBox="0 0 24 24" fill="none"><rect width="24" height="24" fill="none"/>
<g clip-path="url(#clip0_91717_9301)">
<path d="M8 0C3.58172 0 0 3.58172 0 8C0 11.7288 2.55107 14.8618 6.0031 15.7488C6.03183 14.5838 6.25979 13.4682 6.65422 12.4348C6.43124 12.306 6.22774 12.1514 6.04369 11.9711C5.39858 11.3392 5.05848 10.4571 5.02337 9.32487H3.89113V8.3967H5.02337V7.55411H3.89113V6.62594H5.02995C5.087 5.50687 5.44466 4.63795 6.10294 4.01917C6.76121 3.396 7.6455 3.08442 8.75579 3.08442C9.22097 3.08442 9.7454 3.15244 10.3291 3.28848L10.1447 4.63795C9.69712 4.48874 9.25169 4.41413 8.80845 4.41413C8.14579 4.41413 7.63672 4.60284 7.28125 4.98025C6.92578 5.35766 6.7283 5.90623 6.6888 6.62594H9.02568V7.55411H6.68222V8.3967H9.02568V8.83348C10.7714 7.13431 13.1357 6.06753 15.7488 6.0031C14.8618 2.55107 11.7288 0 8 0Z" fill="#000000"/>
<path d="M8.55389 9.32487C8.07402 9.85981 7.65095 10.4468 7.29418 11.0762C7.2809 11.0632 7.26781 11.0499 7.25492 11.0364C6.89945 10.659 6.70855 10.0885 6.68222 9.32487H8.55389Z" fill="#000000"/>
<path fill-rule="evenodd" clip-rule="evenodd" d="M8 16C8 11.5817 11.5817 8 16 8C20.4183 8 24 11.5817 24 16C24 20.4183 20.4183 24 16 24C11.5817 24 8 20.4183 8 16ZM17.5568 18.3554C17.5568 17.9847 17.4391 17.6793 17.2035 17.4394C16.968 17.1952 16.5754 16.9771 16.0258 16.7851C15.4762 16.5889 15.0488 16.4078 14.7434 16.2421C13.7271 15.6968 13.219 14.8899 13.219 13.8212C13.219 13.0972 13.4392 12.5018 13.8798 12.0351C14.3203 11.5683 14.9179 11.2914 15.6725 11.2041V9.77778H16.7194V11.2172C17.4783 11.3262 18.065 11.649 18.4794 12.1855C18.8938 12.7177 19.101 13.4112 19.101 14.2662H17.5176C17.5176 13.7166 17.3933 13.2847 17.1446 12.9707C16.9004 12.6523 16.5667 12.493 16.1436 12.493C15.7249 12.493 15.3977 12.6065 15.1622 12.8333C14.9266 13.0601 14.8089 13.3851 14.8089 13.8082C14.8089 14.1876 14.9245 14.493 15.1556 14.7241C15.3912 14.951 15.7881 15.1669 16.3464 15.3719C16.9047 15.5769 17.3431 15.7666 17.6615 15.9411C17.9799 16.1156 18.2482 16.3162 18.4663 16.5431C18.6844 16.7655 18.8523 17.0229 18.9701 17.3151C19.0879 17.6074 19.1468 17.9498 19.1468 18.3423C19.1468 19.0795 18.9199 19.6771 18.4663 20.1351C18.017 20.5931 17.3889 20.8635 16.582 20.9464V22.2222H15.5417V20.9529C14.678 20.857 14.0128 20.5473 13.5461 20.0238C13.0837 19.5004 12.8526 18.8069 12.8526 17.9432H14.4425C14.4425 18.4928 14.5799 18.9181 14.8547 19.2191C15.1338 19.52 15.5264 19.6705 16.0324 19.6705C16.5296 19.6705 16.9069 19.5506 17.1643 19.3107C17.426 19.0708 17.5568 18.7523 17.5568 18.3554Z" fill="#000000"/>
</g>
<defs>
<clipPath id="clip0_91717_9301">
<rect width="24" height="24" fill="white"/>
</clipPath>
</defs>
</svg>
