<svg xmlns="http://www.w3.org/2000/svg" width="24" height="24" viewBox="0 0 24 24" fill="none"><rect width="24" height="24" fill="none"/>
<path d="M16 2L16 3.90625L19 6.25L19 2H16Z" fill="#000000"/>
<path d="M9.59883 10.9998C9.26745 10.9998 8.99883 11.2684 8.99883 11.5998C8.99883 11.9312 9.26745 12.1998 9.59883 12.1998C9.9302 12.1998 10.1988 11.9312 10.1988 11.5998C10.1988 11.2684 9.9302 10.9998 9.59883 10.9998Z" fill="#000000"/>
<path d="M14.9988 16.3998C14.9988 16.7312 14.7301 16.9998 14.3988 16.9998C14.0674 16.9998 13.7988 16.7312 13.7988 16.3998C13.7988 16.0684 14.0674 15.7998 14.3988 15.7998C14.7301 15.7998 14.9988 16.0684 14.9988 16.3998Z" fill="#000000"/>
<path fill-rule="evenodd" clip-rule="evenodd" d="M3 10.206C3 9.89832 3.1416 9.6078 3.38393 9.41828L11.2607 3.25477C11.4779 3.08492 11.7389 3 12 3C12.2611 3 12.5221 3.08492 12.7393 3.25477L20.6161 9.41828C20.8584 9.6078 21 9.89832 21 10.206V19.9998C21 20.5521 20.5523 20.9998 20 20.9998H4C3.44772 20.9998 3 20.5521 3 19.9998V10.206ZM9.59883 13.3998C10.5929 13.3998 11.3988 12.5939 11.3988 11.5998C11.3988 10.6057 10.5929 9.7998 9.59883 9.7998C8.60471 9.7998 7.79883 10.6057 7.79883 11.5998C7.79883 12.5939 8.60471 13.3998 9.59883 13.3998ZM14.3988 14.5998C13.4047 14.5998 12.5988 15.4057 12.5988 16.3998C12.5988 17.3939 13.4047 18.1998 14.3988 18.1998C15.3929 18.1998 16.1988 17.3939 16.1988 16.3998C16.1988 15.4057 15.3929 14.5998 14.3988 14.5998ZM14.4318 10.167L15.351 10.9383L9.56592 17.8327L8.64666 17.0614L14.4318 10.167Z" fill="#000000"/>
</svg>
