<svg xmlns="http://www.w3.org/2000/svg" width="24" height="24" viewBox="0 0 24 24" fill="none"><rect width="24" height="24" fill="none"/>
<path d="M13 4C13 3.44772 12.5523 3 12 3C11.4477 3 11 3.44772 11 4V5H5.5C4.94772 5 4.5 5.44772 4.5 6C4.5 6.55228 4.94772 7 5.5 7H18.5C19.0523 7 19.5 6.55228 19.5 6C19.5 5.44772 19.0523 5 18.5 5H13V4Z" fill="#000000"/>
<path d="M6.5 10V17C6.5 18.6569 7.84315 20 9.5 20H14.5C16.1569 20 17.5 18.6569 17.5 17V10C17.5 9.44772 17.0523 9 16.5 9C15.9477 9 15.5 9.44772 15.5 10V17C15.5 17.5523 15.0523 18 14.5 18H9.5C8.94772 18 8.5 17.5523 8.5 17V10C8.5 9.44772 8.05228 9 7.5 9C6.94772 9 6.5 9.44772 6.5 10Z" fill="#000000"/>
</svg>
