<svg xmlns="http://www.w3.org/2000/svg" width="24" height="24" viewBox="0 0 24 24" fill="none"><rect width="24" height="24" fill="none"/>
<path d="M1.5 6C1.5 4.89543 2.39543 4 3.5 4H19.5C20.6046 4 21.5 4.89543 21.5 6L11.5 10.5L1.5 6Z" fill="#000000"/>
<path d="M11.5 12.5L21.5 8V14.4538L19.9505 13.169C18.3935 11.8782 16.0418 12.9712 16.0138 14.9828H15.5667C13.0718 14.9828 10.8798 16.1833 9.5 18H3.5C2.39543 18 1.5 17.1046 1.5 16V8L11.5 12.5Z" fill="#000000"/>
<path d="M18.6604 14.7087C18.4305 14.5181 18.0973 14.6373 18.0176 14.8987C18.0062 14.9361 18 14.9763 18 15.019V16.9827H15.596C12.469 16.9827 10 19.5425 10 22.4999H10.4031C12.0799 20.8988 14.7056 20.9501 16.9636 20.9943C17.309 21.001 17.6546 21.0136 18 21.0136V22.9814C18 23.322 18.3962 23.5091 18.6592 23.2926L23.4654 19.3374C23.6979 19.1773 23.6979 18.8527 23.4654 18.6925L18.6604 14.7087Z" fill="#000000"/>
</svg>
