<svg xmlns="http://www.w3.org/2000/svg" width="24" height="24" viewBox="0 0 24 24" fill="none"><rect width="24" height="24" fill="none"/>
<path fill-rule="evenodd" clip-rule="evenodd" d="M11.6818 2.05081C11.887 1.98241 12.1094 1.98241 12.3146 2.05081C12.3409 2.06751 14.4733 3.42261 15.9914 3.94534C17.6223 4.50684 20.339 4.72562 20.339 4.72562C20.7338 4.85723 21.0044 5.21289 20.9963 5.62894C20.9429 8.35959 20.1844 18.4915 11.9982 21.9385C3.81177 18.4916 3.05353 8.35959 3.00018 5.62894C2.99209 5.21288 3.26261 4.85721 3.6574 4.72562C3.67371 4.72428 6.37163 4.50269 7.99432 3.94534C9.51831 3.42186 11.6617 2.06357 11.6818 2.05081ZM10.592 7.11429L9.37029 11.7325L11.8127 12.292L10.592 17.1905L15.2482 10.8926L11.8127 10.4727L13.1486 6.69437L10.592 7.11429Z" fill="#000000"/>
</svg>
