<svg xmlns="http://www.w3.org/2000/svg" width="24" height="24" viewBox="0 0 24 24" fill="none"><rect width="24" height="24" fill="none"/>
<path fill-rule="evenodd" clip-rule="evenodd" d="M11.6652 2.05353C11.8813 1.9815 12.1151 1.98151 12.3312 2.05353C12.3312 2.05353 14.5955 3.49471 16.2043 4.04865C17.922 4.64002 20.7834 4.87091 20.7834 4.87091C21.199 5.00961 21.4833 5.38405 21.4748 5.82209C21.4186 8.69807 20.6202 19.3695 11.9982 22.9998C3.37621 19.3694 2.57786 8.69804 2.52167 5.82209C2.51319 5.38392 2.79827 5.00951 3.21405 4.87091C3.25204 4.86779 6.07876 4.6335 7.78143 4.04865C9.38964 3.49624 11.6527 2.06148 11.6652 2.05353ZM11.9543 15.5897C11.3113 15.5897 10.7902 16.1107 10.7902 16.7537C10.7902 17.3967 11.3113 17.9178 11.9543 17.9178C12.5971 17.9176 13.1183 17.3966 13.1183 16.7537C13.1183 16.1108 12.5971 15.5898 11.9543 15.5897ZM10.7433 7.20685L11.0226 14.1922H12.8859L13.1652 7.20685H10.7433Z" fill="#000000"/>
</svg>
