<svg xmlns="http://www.w3.org/2000/svg" width="24" height="24" viewBox="0 0 24 24" fill="none"><rect width="24" height="24" fill="none"/>
<path d="M22 12C22 6.47715 17.5228 2 12 2C6.47715 2 2 6.47715 2 12C2 17.5228 6.47715 22 12 22C12.4708 22 12.9341 21.9675 13.3876 21.9045C12.5826 21.6459 12 20.891 12 20V18C12 17.0238 12.6994 16.211 13.6244 16.0352C13.6248 16.0235 13.625 16.0118 13.625 16V12.3636C13.625 11.8114 13.1773 11.3636 12.625 11.3636H10.1818C9.80526 11.3636 9.5 11.0584 9.5 10.6818C9.5 10.3053 9.19474 10 8.81818 10H4.25203C4.43243 9.29913 4.70541 8.63542 5.05717 8.02271L5.07026 8H6.19718C6.36295 8 6.52612 7.95879 6.67201 7.88008L8.54087 6.87177C9.19188 6.52053 9.24941 5.60854 8.64771 5.17827L8.28029 4.91553C9.39153 4.33087 10.6571 4 12 4C12.1523 4 12.3037 4.00426 12.4539 4.01266L11.8495 4.95051C11.626 5.29727 11.6384 5.74565 11.8807 6.07953L17 12H20C20.891 12 21.6459 12.5826 21.9045 13.3876C21.9675 12.9341 22 12.4708 22 12Z" fill="#000000"/>
<path d="M20.0007 18H24V20H20V24H18V20.0007L14 20V18H18V14H20L20.0007 18Z" fill="#000000"/>
</svg>
