<svg xmlns="http://www.w3.org/2000/svg" width="24" height="24" viewBox="0 0 24 24" fill="none"><rect width="24" height="24" fill="none"/>
<path fill-rule="evenodd" clip-rule="evenodd" d="M4 5H19.013C21.215 5 23 6.78504 23 8.987C23 10.649 21.9691 12.1366 20.4129 12.7202L18.0043 13.6234C17.4279 15.0423 16.4035 16.2237 15.1121 17H21V18C21 19.1046 20.1046 20 19 20H4C2.89543 20 2 19.1046 2 18V17H7.88788C5.99926 15.8648 4.68178 13.8631 4.50147 11.5191L4 5ZM18.5157 11.2956L19.7107 10.8475C20.4862 10.5567 21 9.81528 21 8.987C21 7.88961 20.1104 7 19.013 7H18.8462L18.5157 11.2956Z" fill="#000000"/>
</svg>
