<svg xmlns="http://www.w3.org/2000/svg" width="24" height="24" viewBox="0 0 24 24" fill="none"><rect width="24" height="24" fill="none"/>
<path fill-rule="evenodd" clip-rule="evenodd" d="M6.99951 2C6.44723 2 5.99951 2.44772 5.99951 3V21C5.99951 21.5523 6.44723 22 6.99951 22H20.9995C21.5518 22 21.9995 21.5523 21.9995 21V9.81496C21.9995 8.0401 20.4671 6.65325 18.701 6.82985L17.2427 6.97568C17.117 6.98825 17.0113 6.88251 17.0238 6.75677L17.1697 5.29851C17.3463 3.53245 15.9594 2 14.1845 2H6.99951ZM8.99951 11H13.9995V13H8.99951V11ZM8.99951 15H17.9995V17H8.99951V15Z" fill="#000000"/>
<path d="M1.04143 19.2772L4.49939 7.60132V21C4.49939 21.1193 4.50775 21.2366 4.5239 21.3515L1.71629 20.52C1.18674 20.3631 0.884596 19.8067 1.04143 19.2772Z" fill="#000000"/>
</svg>
