<svg xmlns="http://www.w3.org/2000/svg" width="24" height="24" viewBox="0 0 24 24" fill="none"><rect width="24" height="24" fill="none"/>
<path d="M5 2C4.44771 2 4 2.44772 4 3V8L6.37744 8.00001C6.41515 8.00457 6.45578 8.00465 6.49935 8C11.1935 8.00034 14.9994 11.8058 14.9994 16.5C14.9994 17.7477 14.7305 18.9326 14.2476 20C14.161 20.1914 14.0676 20.379 13.9675 20.5625C13.9359 20.6205 13.8899 20.696 13.8476 20.7654C13.8258 20.8012 13.8049 20.8354 13.7876 20.8647C14.0933 21.2177 14.3587 21.5828 14.5 22H18.9994C19.5516 22 20 21.5523 20 21V9.81496C20 8.14225 18.6389 6.81417 17.0039 6.81467C16.9038 6.81468 16.8027 6.81966 16.7008 6.82985L15.2426 6.97568C15.2359 6.97635 15.2292 6.97668 15.2226 6.97669C15.1062 6.97651 15.0124 6.87556 15.0243 6.75677L15.1701 5.29851C15.3468 3.53245 13.9599 2 12.185 2H5Z" fill="#000000"/>
<path d="M7.58411 12.6238C8.20819 12.8108 8.79386 13.1471 9.28603 13.6392C10.0056 14.3588 10.401 15.284 10.4603 16.229C10.5354 17.3044 10.1756 18.4035 9.38883 19.2536L8.28177 18.1426C7.96151 17.8223 7.41589 18.0477 7.41589 18.5024V22.4957C7.41589 22.7724 7.64521 23.0018 7.92593 23.0018H11.9192C12.37 23.0018 12.5953 22.4601 12.279 22.1398L11.1838 21.0447C12.71 19.4434 13.2754 17.2569 12.8761 15.2287C12.6349 13.9911 12.0339 12.8089 11.0731 11.8482C10.0861 10.8612 8.86224 10.2517 7.58411 10.0234V12.6238Z" fill="#000000"/>
<path d="M3.61123 13.7482L4.71829 14.8592C5.03855 15.1794 5.58417 14.9541 5.58417 14.4994V10.5061C5.58417 10.3519 5.50904 10.2095 5.39438 10.1147C5.3074 10.0435 5.1967 10 5.07413 10H1.08082C0.63009 10 0.404725 10.5417 0.721027 10.8619L1.81622 11.9571C0.290066 13.5584 -0.275323 15.7448 0.124008 17.7731C0.365188 19.0106 0.966161 20.1928 1.92693 21.1536C2.91289 22.1396 4.13896 22.7488 5.41589 22.9776V20.3807C4.79284 20.193 4.20515 19.8537 3.71403 19.3625C2.99445 18.6429 2.59907 17.7178 2.53976 16.7728C2.50418 16.2351 2.57139 15.6934 2.74931 15.1794C2.92723 14.6615 3.21586 14.1752 3.61123 13.7482Z" fill="#000000"/>
</svg>
