<svg xmlns="http://www.w3.org/2000/svg" width="16" height="16" viewBox="0 0 16 16" fill="none"><rect width="16" height="16" fill="none"/>
<path d="M1 11.25C1 10.0074 2.00736 9 3.25 9H12.75C13.9926 9 15 10.0074 15 11.25V12.75C15 13.9926 13.9926 15 12.75 15H3.25C2.00736 15 1 13.9926 1 12.75V11.25ZM3.25 10.5C2.83579 10.5 2.5 10.8358 2.5 11.25V12.75C2.5 13.1642 2.83579 13.5 3.25 13.5H12.75C13.1642 13.5 13.5 13.1642 13.5 12.75V11.25C13.5 10.8358 13.1642 10.5 12.75 10.5H3.25Z" fill="#000000"/>
<path d="M1 3.25C1 2.00736 2.00736 1 3.25 1H12.75C13.9926 1 15 2.00736 15 3.25V4.75C15 5.99264 13.9926 7 12.75 7H3.25C2.00736 7 1 5.99264 1 4.75V3.25ZM3.25 2.5C2.83579 2.5 2.5 2.83579 2.5 3.25V4.75C2.5 5.16421 2.83579 5.5 3.25 5.5H12.75C13.1642 5.5 13.5 5.16421 13.5 4.75V3.25C13.5 2.83579 13.1642 2.5 12.75 2.5H3.25Z" fill="#000000"/>
</svg>
