<svg xmlns="http://www.w3.org/2000/svg" width="16" height="16" viewBox="0 0 16 16" fill="none"><rect width="16" height="16" fill="none"/>
<path d="M8 1.5C10.7614 1.5 13 3.76345 13 6.55556L12.9972 6.75798C12.8778 10.9788 9.05466 13.7891 8 14.5L7.76702 14.3392C6.47434 13.4262 3.11462 10.7105 3.00279 6.75798L3 6.55556C3 3.76345 5.23858 1.5 8 1.5ZM8 4.38889C6.81653 4.38889 5.85714 5.35894 5.85714 6.55556C5.85714 7.75217 6.81653 8.72222 8 8.72222C9.18347 8.72222 10.1429 7.75217 10.1429 6.55556C10.1429 5.35894 9.18347 4.38889 8 4.38889Z" fill="#000000"/>
</svg>
