<svg xmlns="http://www.w3.org/2000/svg" width="24" height="24" viewBox="0 0 24 24" fill="none"><rect width="24" height="24" fill="none"/>
<path fill-rule="evenodd" clip-rule="evenodd" d="M7.84862 18.9877L9.54237 20.6814L20.7144 9.50018C21.5506 8.66396 21.9794 7.57457 22.0006 6.47874C22.0229 5.32583 21.5942 4.1658 20.7144 3.28602C19.8649 2.43649 18.7541 2.00753 17.6406 1.99915C16.505 1.9906 15.3667 2.41956 14.5003 3.28602L3.32821 14.4673L5.02019 16.1592L1.79289 19.3787C1.60093 19.5706 1.50333 19.8212 1.50008 20.0728C1.49673 20.333 1.59433 20.5943 1.79289 20.7929L3.20711 22.2071C3.40294 22.4029 3.6598 22.5006 3.91647 22.5C4.17164 22.4994 4.42663 22.4018 4.62132 22.2071L7.84862 18.9877ZM12.8309 14.5613L16.7868 10.6017L13.4011 7.21597L9.44521 11.1756L12.8309 14.5613Z" fill="#000000"/>
</svg>
