<svg xmlns="http://www.w3.org/2000/svg" width="24" height="24" viewBox="0 0 24 24" fill="none"><rect width="24" height="24" fill="none"/>
<path d="M6.59883 10.9998C6.26745 10.9998 5.99883 11.2684 5.99883 11.5998C5.99883 11.9312 6.26745 12.1998 6.59883 12.1998C6.9302 12.1998 7.19883 11.9312 7.19883 11.5998C7.19883 11.2684 6.9302 10.9998 6.59883 10.9998Z" fill="#000000"/>
<path d="M11.9988 16.3998C11.9988 16.7312 11.7301 16.9998 11.3988 16.9998C11.0674 16.9998 10.7988 16.7312 10.7988 16.3998C10.7988 16.0684 11.0674 15.7998 11.3988 15.7998C11.7301 15.7998 11.9988 16.0684 11.9988 16.3998Z" fill="#000000"/>
<path fill-rule="evenodd" clip-rule="evenodd" d="M16 21L2 21V7.61683C2 6.67376 2.6588 5.85883 3.58094 5.66123L16 3L16 21ZM6.59883 13.3998C7.59294 13.3998 8.39883 12.5939 8.39883 11.5998C8.39883 10.6057 7.59294 9.7998 6.59883 9.7998C5.60471 9.7998 4.79883 10.6057 4.79883 11.5998C4.79883 12.5939 5.60471 13.3998 6.59883 13.3998ZM11.3988 14.5998C10.4047 14.5998 9.59883 15.4057 9.59883 16.3998C9.59883 17.3939 10.4047 18.1998 11.3988 18.1998C12.3929 18.1998 13.1988 17.3939 13.1988 16.3998C13.1988 15.4057 12.3929 14.5998 11.3988 14.5998ZM11.4318 10.167L12.351 10.9383L6.56592 17.8327L5.64666 17.0614L11.4318 10.167Z" fill="#000000"/>
<path d="M20 10C21.1046 10 22 10.8954 22 12V21H18V10H20Z" fill="#000000"/>
</svg>
