<svg xmlns="http://www.w3.org/2000/svg" width="24" height="24" viewBox="0 0 24 24" fill="none"><rect width="24" height="24" fill="none"/>
<path d="M5 2C4.44772 2 4 2.44772 4 3V8.3736C4.79042 8.13072 5.62994 8 6.5 8C11.1944 8 15 11.8056 15 16.5C15 18.5975 14.2403 20.5176 12.981 22H19C19.5523 22 20 21.5523 20 21V9.81496C20 8.0401 18.4675 6.65325 16.7015 6.82985L15.2432 6.97568C15.1175 6.98825 15.0117 6.88251 15.0243 6.75677L15.1701 5.29851C15.3468 3.53245 13.9599 2 12.185 2H5Z" fill="#000000"/>
<path fill-rule="evenodd" clip-rule="evenodd" d="M13 16.5C13 20.0899 10.0899 23 6.5 23C2.91015 23 0 20.0899 0 16.5C0 12.9101 2.91015 10 6.5 10C10.0899 10 13 12.9101 13 16.5ZM10.7439 18C10.1262 19.7478 8.45933 21 6.5 21C5.97405 21 5.46917 20.9098 5 20.7439V19.5C5 19.2239 5.22386 19 5.5 19H6C6.27614 19 6.5 18.7766 6.5 18.5004V16.4993C6.5 16.2231 6.27614 16 6 16H2.02746C2.10865 15.2656 2.36658 14.5844 2.75777 14H3.4809C3.57207 14 3.66181 13.9773 3.74205 13.934L4.7112 13.3795C4.90466 13.2751 5 13.0807 5 12.8867V12.2561C5.46917 12.0902 5.97405 12 6.5 12C6.669 12 6.83583 12.0093 7 12.0275V14C7 14.5523 7.44772 15 8 15H9V17.5C9 17.7761 9.22386 18 9.5 18H10.7439Z" fill="#000000"/>
</svg>
