<svg xmlns="http://www.w3.org/2000/svg" width="16" height="16" viewBox="0 0 16 16" fill="none"><rect width="16" height="16" fill="none"/>
<path d="M5.86294 14.3891C5.64857 11.8995 4.10031 10.3511 1.61085 10.1367C1.27462 10.1077 0.999878 9.83729 1 9.49973C1.00012 9.16228 1.27475 8.8921 1.61085 8.86314C4.10019 8.64879 5.64881 7.10053 5.86318 4.61093C5.89215 4.27465 6.1625 3.99998 6.50006 4C6.83751 4.00002 7.10773 4.27468 7.13669 4.61093C7.35106 7.10047 8.89908 8.64874 11.3892 8.86313C11.7254 8.89208 12.0001 9.16246 12 9.50002C11.9999 9.83744 11.7253 10.1076 11.3892 10.1365C8.8992 10.3509 7.35082 11.8994 7.13633 14.3891C7.10748 14.7253 6.83714 15 6.4997 15C6.16213 15 5.89191 14.7253 5.86294 14.3891Z" fill="#000000"/>
<path d="M12.2104 5.72231C12.113 4.59069 11.4092 3.88688 10.2777 3.7894C10.1248 3.77622 9.99994 3.65332 9.99999 3.49988C10 3.34649 10.1249 3.22368 10.2777 3.21052C11.4092 3.11309 12.1131 2.40933 12.2105 1.2777C12.2237 1.12484 12.3466 0.999989 12.5 1C12.6534 1.00001 12.7762 1.12486 12.7894 1.2777C12.8868 2.40931 13.5905 3.11307 14.7223 3.21052C14.8752 3.22368 15 3.34658 15 3.50001C14.9999 3.65338 14.8751 3.77619 14.7223 3.78934C13.5905 3.88676 12.8867 4.59062 12.7892 5.72231C12.7761 5.87515 12.6532 6 12.4999 6C12.3464 6 12.2236 5.87515 12.2104 5.72231Z" fill="#000000"/>
</svg>
