<svg xmlns="http://www.w3.org/2000/svg" width="16" height="16" viewBox="0 0 16 16" fill="none"><rect width="16" height="16" fill="none"/>
<path fill-rule="evenodd" clip-rule="evenodd" d="M1.00014 2.91244C0.993814 2.57855 1.20425 2.2932 1.51139 2.18759L7.75408 0.0411647C7.91371 -0.0137216 8.0863 -0.0137215 8.24593 0.0411647L14.4886 2.18759C14.7958 2.2932 15.0062 2.57855 14.9999 2.91245C14.9583 5.10364 14.3685 13.2341 8 16C1.63143 13.2341 1.04164 5.10362 1.00014 2.91244ZM6.45725 9.89061H5.66667V9.38924H6.45725V8.56208H5.66667V8.06077H6.45725V4H8.70415C9.91081 4 10.7222 4.93247 10.7222 6.28103V6.29106C10.7222 7.64465 9.90667 8.56208 8.70001 8.56208H7.6764V9.38924H9.27421V9.89061H7.6764V10.9333H6.45725V9.89061ZM7.6764 5.16809V7.43409H8.3588C9.09944 7.43409 9.4864 7.02801 9.4864 6.30611V6.29608C9.4864 5.57417 9.10362 5.16809 8.3588 5.16809H7.6764Z" fill="#000000"/>
</svg>
