<svg xmlns="http://www.w3.org/2000/svg" width="24" height="24" viewBox="0 0 24 24" fill="none"><rect width="24" height="24" fill="none"/>
<path d="M13 23V21.6667C12.9656 21.16 12.7367 20.7672 12.4055 20.3822C11.6498 19.504 9.92824 18.3333 7 18.3333C4.3278 18.3333 2.54708 19.4345 1.70268 20.3196C1.30136 20.7403 1.03933 21.0866 1 21.6667V23H13Z" fill="#000000"/>
<path d="M6.99999 10C9 10 9.66666 11.6825 9.66666 13.3333C9.66666 14.9842 8.48499 16.3333 7 16.3333C5.51501 16.3333 4.33333 15.015 4.33333 13.3333C4.33333 11.6516 4.99999 10 6.99999 10Z" fill="#000000"/>
<path d="M12.1846 2C13.9595 2 15.3466 3.53277 15.1699 5.29883L15.0244 6.75684C15.0119 6.88254 15.1175 6.98814 15.2432 6.97559L16.7012 6.83008C18.4672 6.65348 20 8.04057 20 9.81543V21C20 21.5523 19.5523 22 19 22H15V21.4961L14.9951 21.4248C14.9282 20.4356 14.5129 19.694 14.0889 19.1494L13.9072 18.9268C13.2088 18.1127 12.0964 17.2784 10.5586 16.7441C11.3154 15.8094 11.7402 14.6008 11.7402 13.3945C11.7402 12.3543 11.5396 11.0715 10.8174 9.98145C10.0143 8.76969 8.69298 8 7 8C5.79948 8 4.78042 8.38511 4 9.04883V3C4 2.44772 4.44772 2 5 2H12.1846Z" fill="#000000"/>
</svg>
