<svg xmlns="http://www.w3.org/2000/svg" width="24" height="24" viewBox="0 0 24 24" fill="none"><rect width="24" height="24" fill="none"/>
<path d="M5 2C4.44772 2 4 2.44772 4 3V8.50679L5.39036 7.24284C5.96945 6.71639 6.69668 6.43895 7.42717 6.41229L7.50012 6.40963L7.57306 6.41229C8.30355 6.43895 9.03079 6.71639 9.60988 7.24284L16.0816 13.1262C17.7652 14.6568 16.9904 17.3161 15.0001 17.8893V20.7982C15.0001 21.2232 14.9173 21.6289 14.7669 22H19C19.5523 22 20 21.5523 20 21V9.81496C20 8.0401 18.4675 6.65325 16.7015 6.82985L15.2432 6.97568C15.1175 6.98825 15.0117 6.88251 15.0243 6.75677L15.1701 5.29851C15.3468 3.53245 13.9599 2 12.185 2H5Z" fill="#000000"/>
<path fill-rule="evenodd" clip-rule="evenodd" d="M0.263882 14.6061C-0.278024 15.0987 0.0704935 16.0002 0.802857 16.0002H2V20.7982C2 21.462 2.53809 22.0001 3.20187 22.0001H11.7981C12.4619 22.0001 13 21.462 13 20.7982V16.0002H14.1971C14.9295 16.0002 15.278 15.0987 14.7361 14.6061L8.26442 8.72272C8.04683 8.52491 7.7748 8.42099 7.5 8.41096C7.2252 8.42099 6.95317 8.52491 6.73558 8.72272L0.263882 14.6061ZM6 20.0001V16.0001H9V20.0001H6Z" fill="#000000"/>
</svg>
