<svg xmlns="http://www.w3.org/2000/svg" width="20" height="20" viewBox="0 0 20 20" fill="none"><rect width="20" height="20" fill="none"/>
<path d="M14 14H6V12H14V14Z" fill="#000000"/>
<path d="M14.6504 7.25879L10.4473 10.8623L8.92578 9.33984L7.125 10.7812L5.875 9.21875L9.07422 6.66016L10.5518 8.1377L13.3496 5.74121L14.6504 7.25879Z" fill="#000000"/>
<path d="M15 2C16.6569 2 18 3.34315 18 5V15C18 16.6569 16.6569 18 15 18H5C3.34315 18 2 16.6569 2 15V5C2 3.34315 3.34315 2 5 2H15ZM5 4C4.44772 4 4 4.44772 4 5V15C4 15.5523 4.44772 16 5 16H15C15.5523 16 16 15.5523 16 15V5C16 4.44772 15.5523 4 15 4H5Z" fill="#000000"/>
</svg>
