<svg xmlns="http://www.w3.org/2000/svg" width="20" height="20" viewBox="0 0 20 20" fill="none"><rect width="20" height="20" fill="none"/>
<path d="M10.5 6C12.1569 6 13.5 7.34315 13.5 9C13.5 10.6569 12.1569 12 10.5 12H9V14H7V6H10.5ZM9 10H10.5C11.0523 10 11.5 9.55228 11.5 9C11.5 8.44772 11.0523 8 10.5 8H9V10Z" fill="#000000"/>
<path d="M14 2C16.2091 2 18 3.79086 18 6V14C18 16.2091 16.2091 18 14 18H6C3.79086 18 2 16.2091 2 14V6C2 3.79086 3.79086 2 6 2H14ZM6 4C4.89543 4 4 4.89543 4 6V14C4 15.1046 4.89543 16 6 16H14C15.1046 16 16 15.1046 16 14V6C16 4.89543 15.1046 4 14 4H6Z" fill="#000000"/>
</svg>
