<svg xmlns="http://www.w3.org/2000/svg" width="24" height="24" viewBox="0 0 24 24" fill="none"><rect width="24" height="24" fill="none"/>
<path d="M22.207 15.2071L15.207 22.2071L13.793 20.793L20.793 13.793L22.207 15.2071Z" fill="#000000"/>
<path d="M20.5 19.0001C21.3283 19.0001 21.9998 19.6718 22 20.5001C22 21.3285 21.3284 22.0001 20.5 22.0001C19.6716 22 19 21.3285 19 20.5001C19.0002 19.6719 19.6717 19.0001 20.5 19.0001Z" fill="#000000"/>
<path d="M9.40332 2.19734C9.65676 2.00904 9.98465 1.95145 10.2871 2.04207L21 5.25594V11.0001H19V6.74422L11 4.34383V21.0001H3V11.0001L9 8.75008V3.00008L9.00684 2.88289C9.03891 2.61161 9.18142 2.36245 9.40332 2.19734ZM5 12.3858V19.0001H9V10.8858L5 12.3858Z" fill="#000000"/>
<path d="M15.5 14.0001C16.3283 14.0001 16.9998 14.6718 17 15.5001C17 16.3285 16.3284 17.0001 15.5 17.0001C14.6716 17 14 16.3285 14 15.5001C14.0002 14.6719 14.6717 14.0001 15.5 14.0001Z" fill="#000000"/>
</svg>
