<svg xmlns="http://www.w3.org/2000/svg" width="24" height="24" viewBox="0 0 24 24" fill="none"><rect width="24" height="24" fill="none"/>
<path d="M13.0049 10H16V12H13.0049V15.0059H11.0049V12H8V10H11.0049V7.00586H13.0049V10Z" fill="#000000"/>
<path d="M21 21C21 21.3466 20.8202 21.6684 20.5254 21.8506C20.2306 22.0327 19.8626 22.0495 19.5527 21.8945L16 20.1182L12 22.1182L8 20.1182L4.44727 21.8945C4.13735 22.0495 3.76939 22.0327 3.47461 21.8506C3.17979 21.6684 3 21.3466 3 21V2H21V21ZM5 19.3818L8 17.8818L12 19.8818L16 17.8818L19 19.3818V4H5V19.3818Z" fill="#000000"/>
</svg>
