<svg xmlns="http://www.w3.org/2000/svg" width="24" height="24" viewBox="0 0 24 24" fill="none"><rect width="24" height="24" fill="none"/>
<path d="M22.6504 21.2413L21.3496 22.7589L18.5 20.3155L15.6504 22.7589L14.3496 21.2413L18.5 17.6827L22.6504 21.2413Z" fill="#000000"/>
<path d="M9.40332 2.19734C9.65676 2.00904 9.98465 1.95145 10.2871 2.04207L21 5.25594V11.0001H19V6.74422L11 4.34383V19.0001H13V21.0001H3V11.0001L9 8.75008V3.00008L9.00684 2.88289C9.03891 2.61161 9.18142 2.36245 9.40332 2.19734ZM5 12.3858V19.0001H9V10.8858L5 12.3858Z" fill="#000000"/>
<path d="M22.7852 16.7413L21.4834 18.2589L18.6338 15.8165L15.7852 18.2589L14.4834 16.7413L18.6338 13.1827L22.7852 16.7413Z" fill="#000000"/>
</svg>
