<svg xmlns="http://www.w3.org/2000/svg" width="20" height="20" viewBox="0 0 20 20" fill="none"><rect width="20" height="20" fill="none"/>
<path d="M16.9941 2.04484C17.2677 1.94576 17.5754 2.01386 17.7812 2.21964C17.9864 2.42531 18.0538 2.73157 17.955 3.0048L12.705 17.5048C12.6022 17.7885 12.3394 17.9836 12.038 17.9989C11.7366 18.014 11.454 17.8471 11.3232 17.5751L8.43746 11.5614L2.42574 8.67667C2.15349 8.54599 1.98589 8.26344 2.00094 7.96183C2.01623 7.66037 2.21124 7.39762 2.49508 7.29484L16.9941 2.04484ZM4.68453 8.09659L9.32418 10.3232L9.56246 10.4384L11.9023 15.3144L15.999 3.99991L4.68453 8.09659Z" fill="#000000"/>
</svg>
