<svg xmlns="http://www.w3.org/2000/svg" width="20" height="20" viewBox="0 0 20 20" fill="none"><rect width="20" height="20" fill="none"/>
<path d="M15 8H15.5C17.433 8 19 9.567 19 11.5C19 13.433 17.433 15 15.5 15H14.2588C14.0104 15.4542 13.7035 15.8772 13.3408 16.2549C12.2727 17.3671 10.8149 17.9999 9.28613 18H7.71387C6.18513 17.9999 4.72731 17.3671 3.65918 16.2549C2.59235 15.1439 2 13.6452 2 12.0908V7H15V8ZM4 12.0908C4 13.1403 4.40124 14.1389 5.10254 14.8691C5.80241 15.5979 6.74231 15.9999 7.71387 16H9.28613C10.2577 15.9999 11.1976 15.5979 11.8975 14.8691C12.5988 14.1389 13 13.1403 13 12.0908V9H4V12.0908ZM15 12.0908C15 12.3969 14.9767 12.7008 14.9316 13H15.5C16.3284 13 17 12.3284 17 11.5C17 10.6716 16.3284 10 15.5 10H15V12.0908Z" fill="#000000"/>
<path d="M8.47461 2.88086C8.28154 2.98485 8.15592 3.10542 8.08496 3.21191C8.01679 3.31433 7.99814 3.40217 8 3.47168C8.00052 3.49028 8.00052 3.50972 8 3.52832C7.99814 3.59783 8.01679 3.68567 8.08496 3.78809C8.15592 3.89458 8.28154 4.01515 8.47461 4.11914L7.52539 5.88086C7.0859 5.64412 6.69818 5.31355 6.4209 4.89746C6.15112 4.49258 5.99973 4.02178 6.00195 3.52734L6.00098 3.52832C6.00072 3.51902 6.0021 3.50928 6.00195 3.5C6.0021 3.49072 6.00072 3.48098 6.00098 3.47168C5.99896 2.9776 6.1513 2.50715 6.4209 2.10254C6.69818 1.68645 7.08591 1.35588 7.52539 1.11914L8.47461 2.88086Z" fill="#000000"/>
<path d="M12.4746 2.88086C12.2815 2.98485 12.1559 3.10542 12.085 3.21191C12.0168 3.31433 11.9981 3.40217 12 3.47168C12.0005 3.49028 12.0005 3.50972 12 3.52832C11.9981 3.59783 12.0168 3.68567 12.085 3.78809C12.1559 3.89458 12.2815 4.01515 12.4746 4.11914L11.5254 5.88086C11.0859 5.64412 10.6982 5.31355 10.4209 4.89746C10.1511 4.49258 9.99973 4.02178 10.002 3.52734L10.001 3.52832C10.0007 3.51902 10.0021 3.50928 10.002 3.5C10.0021 3.49072 10.0007 3.48098 10.001 3.47168C9.99896 2.9776 10.1513 2.50715 10.4209 2.10254C10.6982 1.68645 11.0859 1.35588 11.5254 1.11914L12.4746 2.88086Z" fill="#000000"/>
</svg>
