<svg xmlns="http://www.w3.org/2000/svg" width="20" height="20" viewBox="0 0 20 20" fill="none"><rect width="20" height="20" fill="none"/>
<path d="M13.416 15.624L10 17.9014L6.58398 15.624L7.41602 14.376L10 16.0986L12.584 14.376L13.416 15.624Z" fill="#000000"/>
<path d="M5 8C5.55228 8 6 8.44772 6 9C6 9.55228 5.55228 10 5 10C4.44772 10 4 9.55228 4 9C4 8.44772 4.44772 8 5 8Z" fill="#000000"/>
<path d="M12 8C12.5523 8 13 8.44772 13 9C13 9.55228 12.5523 10 12 10H8C7.44772 10 7 9.55228 7 9C7 8.44772 7.44772 8 8 8H12Z" fill="#000000"/>
<path d="M15 8C15.5523 8 16 8.44772 16 9C16 9.55228 15.5523 10 15 10C14.4477 10 14 9.55228 14 9C14 8.44772 14.4477 8 15 8Z" fill="#000000"/>
<path d="M5 5C5.55228 5 6 5.44772 6 6C6 6.55228 5.55228 7 5 7C4.44772 7 4 6.55228 4 6C4 5.44772 4.44772 5 5 5Z" fill="#000000"/>
<path d="M8 5C8.55228 5 9 5.44772 9 6C9 6.55228 8.55228 7 8 7C7.44772 7 7 6.55228 7 6C7 5.44772 7.44772 5 8 5Z" fill="#000000"/>
<path d="M12 5C12.5523 5 13 5.44772 13 6C13 6.55228 12.5523 7 12 7C11.4477 7 11 6.55228 11 6C11 5.44772 11.4477 5 12 5Z" fill="#000000"/>
<path d="M15 5C15.5523 5 16 5.44772 16 6C16 6.55228 15.5523 7 15 7C14.4477 7 14 6.55228 14 6C14 5.44772 14.4477 5 15 5Z" fill="#000000"/>
<path d="M16.1543 2.00391C17.7394 2.08421 19 3.39489 19 5V10C19 11.6051 17.7394 12.9158 16.1543 12.9961L16 13H4C2.39489 13 1.08421 11.7394 1.00391 10.1543L1 10V5C1 3.34315 2.34315 2 4 2H16L16.1543 2.00391ZM4 3.5C3.17157 3.5 2.5 4.17157 2.5 5V10C2.5 10.8284 3.17157 11.5 4 11.5H16C16.8284 11.5 17.5 10.8284 17.5 10V5C17.5 4.17157 16.8284 3.5 16 3.5H4Z" fill="#000000"/>
</svg>
