<svg xmlns="http://www.w3.org/2000/svg" width="24" height="24" viewBox="0 0 24 24" fill="none"><rect width="24" height="24" fill="none"/>
<path d="M12 2C17.5228 2 22 6.47715 22 12C22 17.5228 17.5228 22 12 22C6.47715 22 2 17.5228 2 12C2 6.47715 6.47715 2 12 2ZM16 12C15.9999 14.209 14.2091 16 12 16V14.5C11.9998 14.322 11.905 14.1568 11.751 14.0674C11.597 13.9781 11.4065 13.9773 11.252 14.0654L7.75195 16.0654C7.59635 16.1544 7.50016 16.3208 7.5 16.5C7.50007 16.6793 7.59634 16.8456 7.75195 16.9346L11.252 18.9346C11.4066 19.0228 11.5969 19.0219 11.751 18.9326C11.905 18.8432 11.9999 18.6781 12 18.5V18C15.3136 18 17.9999 15.3136 18 12H16ZM12.748 4.56543C12.5935 4.47728 12.403 4.47814 12.249 4.56738C12.095 4.65678 12.0002 4.82197 12 5V6C8.68644 6 6.00024 8.68649 6 12H8C8.00024 9.79106 9.79101 8 12 8V9C12.0001 9.17808 12.095 9.34317 12.249 9.43262C12.4031 9.52193 12.5934 9.5228 12.748 9.43457L16.248 7.43457C16.4037 7.34556 16.4999 7.17928 16.5 7C16.4998 6.82077 16.4037 6.65439 16.248 6.56543L12.748 4.56543Z" fill="#000000"/>
</svg>
