<svg xmlns="http://www.w3.org/2000/svg" width="20" height="20" viewBox="0 0 20 20" fill="none"><rect width="20" height="20" fill="none"/>
<path d="M6 2C8.48465 2.00042 10.4989 4.01533 10.499 6.5C10.499 7.70474 10.0239 8.79784 9.25293 9.60547C10.5953 10.384 11.4987 11.8356 11.499 13.499C11.4993 15.9846 9.48461 18 6.99902 18L2.00293 17.999L2.00195 2H6ZM4.00195 15.999L6.99902 16C8.37991 15.9999 9.49923 14.8799 9.49902 13.499C9.49855 12.1189 8.38007 10.9995 7 10.999H4.00195V15.999ZM4.00195 8.99902H5.99902C7.37951 8.99909 8.49895 7.8805 8.49902 6.5C8.49887 5.11989 7.38007 4.00042 6 4H4.00195V8.99902Z" fill="#000000"/>
<path d="M14.999 8.71484C15.5451 8.4052 16.1562 8.2045 16.7627 8.11035C17.1619 8.04842 17.579 8.02905 17.999 8.05371V9.85547C17.6804 9.82856 17.356 9.83935 17.0381 9.88867C16.0017 10.0496 15.2762 10.563 14.999 11.2334V17.999H12.999V8H14.999V8.71484Z" fill="#000000"/>
</svg>
