<svg xmlns="http://www.w3.org/2000/svg" width="20" height="20" viewBox="0 0 20 20" fill="none"><rect width="20" height="20" fill="none"/>
<path d="M4 16H18V17.5H2.5V2H4V16Z" fill="#000000"/>
<path d="M16.5 3C17.3284 3 18 3.67157 18 4.5C18 5.29822 17.3764 5.94858 16.5898 5.99512L14.751 9.67285C14.9081 9.91002 15 10.1942 15 10.5C15 11.3284 14.3284 12 13.5 12C12.7018 12 12.0504 11.3764 12.0039 10.5898L10.3262 9.75098C10.0955 9.90364 9.82064 9.99331 9.52441 9.99805L8.28516 12.2295C8.42059 12.4549 8.5 12.7179 8.5 13C8.5 13.8284 7.82843 14.5 7 14.5C6.17157 14.5 5.5 13.8284 5.5 13C5.5 12.1801 6.1579 11.5145 6.97461 11.501L8.21387 9.26953C8.07886 9.04438 8 8.78163 8 8.5C8 7.67157 8.67157 7 9.5 7C10.2976 7 10.9476 7.62259 10.9951 8.4082L12.6738 9.24707C12.8867 9.1064 13.138 9.02023 13.4082 9.00391L15.248 5.32617C15.0914 5.08923 15 4.80532 15 4.5C15 3.67157 15.6716 3 16.5 3Z" fill="#000000"/>
</svg>
