<svg xmlns="http://www.w3.org/2000/svg" width="20" height="20" viewBox="0 0 20 20" fill="none"><rect width="20" height="20" fill="none"/>
<path d="M10.3994 7C12.3875 7 13.9998 8.61156 14 10.5996L13.9951 10.7852C13.8987 12.6873 12.3255 14.2002 10.3994 14.2002L10.2148 14.1953C8.31257 14.099 6.7998 12.5258 6.7998 10.5996C6.80002 8.61169 8.4115 7.00021 10.3994 7ZM10.3994 9C9.51607 9.00021 8.80002 9.71626 8.7998 10.5996C8.7998 11.4831 9.51594 12.2 10.3994 12.2002C11.2831 12.2002 12 11.4833 12 10.5996C11.9998 9.71613 11.2829 9 10.3994 9Z" fill="#000000"/>
<path d="M14.7998 5H15C16.6569 5 18 6.34315 18 8V14C18 15.6569 16.6569 17 15 17H5C3.34315 17 2 15.6569 2 14V8C2 6.34315 3.34315 5 5 5H6L7.59961 3H13.2002L14.7998 5ZM6.96094 7H5C4.44772 7 4 7.44772 4 8V14C4 14.5523 4.44772 15 5 15H15C15.5523 15 16 14.5523 16 14V8C16 7.44772 15.5523 7 15 7H13.8389L12.2393 5H8.56152L6.96094 7Z" fill="#000000"/>
</svg>
