<svg xmlns="http://www.w3.org/2000/svg" width="24" height="24" viewBox="0 0 24 24" fill="none"><rect width="24" height="24" fill="none"/>
<path d="M19 13C20.6569 13 22 14.3431 22 16V19C22 20.6569 20.6569 22 19 22H5C3.39489 22 2.08421 20.7394 2.00391 19.1543L2 19V16C2 14.3431 3.34315 13 5 13H19ZM5 15C4.44772 15 4 15.4477 4 16V19L4.00488 19.1025C4.05621 19.6067 4.48232 20 5 20H19C19.5523 20 20 19.5523 20 19V16C20 15.4477 19.5523 15 19 15H5Z" fill="#000000"/>
<path d="M19 2C20.6569 2 22 3.34315 22 5V8C22 9.65685 20.6569 11 19 11H5C3.39489 11 2.08421 9.73945 2.00391 8.1543L2 8V5C2 3.34315 3.34315 2 5 2H19ZM5 4C4.44772 4 4 4.44772 4 5V8L4.00488 8.10254C4.05621 8.60667 4.48232 9 5 9H19C19.5523 9 20 8.55228 20 8V5C20 4.44772 19.5523 4 19 4H5Z" fill="#000000"/>
</svg>
