<svg xmlns="http://www.w3.org/2000/svg" width="20" height="20" viewBox="0 0 20 20" fill="none"><rect width="20" height="20" fill="none"/>
<path d="M16.9746 11C18.3691 11 19.5 12.1309 19.5 13.5254C19.4998 14.9197 18.369 16.0498 16.9746 16.0498H15.5V17H17V18H15.5V19H14V18H13V17H14V16.0498H13V14.5498H14V11H16.9746ZM15.5 14.5498H16.9746C17.5406 14.5498 17.9998 14.0913 18 13.5254C18 12.9593 17.5407 12.5 16.9746 12.5H15.5V14.5498Z" fill="#000000"/>
<path d="M14.75 3.25C15.9924 3.25026 17 4.25752 17 5.5V6.53613L17.585 6.8291L18 7.03613V8.75H16.5V7.96289L15.5 7.46387V5.5C15.5 5.08595 15.164 4.75026 14.75 4.75C14.336 4.75025 14 5.08594 14 5.5V8.75H7.5V11.25H12V12.75H7.5V14.5C7.49988 15.7424 6.49234 16.7497 5.25 16.75C4.00765 16.7497 3.00012 15.7424 3 14.5V13.4629L2 12.9639V7.03613L2.41504 6.8291L3 6.53613V5.5C3 4.25752 4.00758 3.25025 5.25 3.25C6.49242 3.25026 7.5 4.25752 7.5 5.5V7.25H12.5V5.5C12.5 4.25752 13.5076 3.25025 14.75 3.25ZM5.25 4.75C4.836 4.75025 4.5 5.08594 4.5 5.5V7.46387L3.5 7.96289V12.0361L4.08496 12.3291L4.5 12.5361V14.5C4.50012 14.914 4.83608 15.2497 5.25 15.25C5.66392 15.2497 5.99988 14.9139 6 14.5V5.5C6 5.08595 5.66399 4.75026 5.25 4.75Z" fill="#000000"/>
</svg>
