<svg xmlns="http://www.w3.org/2000/svg" width="20" height="20" viewBox="0 0 20 20" fill="none"><rect width="20" height="20" fill="none"/>
<path d="M11.9999 19.0001H3.99987V17.0001H11.9999V19.0001Z" fill="#000000"/>
<path d="M10.4764 1.01281C10.7934 0.961507 11.1164 1.06617 11.3436 1.29308L15.7069 5.65637C15.934 5.88349 16.0384 6.20649 15.9872 6.52355C15.9357 6.84079 15.7346 7.11416 15.4471 7.25793L14.5018 7.73058L12.3231 9.9093L17.7069 15.2931L16.2928 16.7071L10.9091 11.3234L8.73132 13.5011L8.25768 14.4474C8.11391 14.7348 7.84055 14.9359 7.52331 14.9874C7.20626 15.0386 6.88324 14.9343 6.65612 14.7071L2.29284 10.3439C2.06593 10.1167 1.96126 9.79365 2.01257 9.47668C2.06412 9.15964 2.26537 8.88605 2.55261 8.7423L3.4989 8.26867L9.2694 2.49816L9.74206 1.55285C9.8858 1.2656 10.1594 1.06437 10.4764 1.01281ZM10.7977 3.79797L4.79772 9.79797C4.76056 9.83513 4.72097 9.86973 4.67858 9.90051L7.09948 12.3214L7.20202 12.2023L13.202 6.20226C13.2395 6.1648 13.2794 6.12972 13.3221 6.09875L10.9012 3.67785C10.8702 3.72065 10.8352 3.76048 10.7977 3.79797Z" fill="#000000"/>
</svg>
