<svg xmlns="http://www.w3.org/2000/svg" width="20" height="20" viewBox="0 0 20 20" fill="none"><rect width="20" height="20" fill="none"/>
<path d="M16.9746 11C18.3691 11 19.5 12.1309 19.5 13.5254C19.4998 14.9197 18.369 16.0498 16.9746 16.0498H15.5V17H17V18H15.5V19H14V18H13V17H14V16.0498H13V14.5498H14V11H16.9746ZM15.5 14.5498H16.9746C17.5406 14.5498 17.9998 14.0913 18 13.5254C18 12.9593 17.5407 12.5 16.9746 12.5H15.5V14.5498Z" fill="#000000"/>
<path d="M13.4336 3.25C14.0483 3.25002 14.6183 3.57251 14.9346 4.09961L16.375 6.5H18.5V7C18.5 7.55228 18.0523 8 17.5 8H17.2754L17.6436 8.61426L17.7695 8.8252L17.7539 9H16.125L13.6484 4.87109C13.6033 4.79586 13.5214 4.75002 13.4336 4.75H6.56641C6.47864 4.75 6.39676 4.79586 6.35156 4.87109L3.76953 9.17383L4.18262 13.5498H11V15.0498H4.75V16.5H3.25V15.0498H2.81738L2.25293 9.07031L2.23047 8.8252L2.35645 8.61426L2.72461 8H2.5C1.94772 8 1.5 7.55228 1.5 7V6.5H3.625L5.06543 4.09961C5.3817 3.57251 5.9517 3.25 6.56641 3.25H13.4336Z" fill="#000000"/>
<path d="M6.57324 9.14355C7.04654 9.14355 7.43051 9.52674 7.43066 10C7.43066 10.4734 7.04663 10.8574 6.57324 10.8574H5.7168C5.24341 10.8574 4.85938 10.4734 4.85938 10C4.85953 9.52674 5.2435 9.14355 5.7168 9.14355H6.57324Z" fill="#000000"/>
</svg>
