<svg xmlns="http://www.w3.org/2000/svg" width="20" height="20" viewBox="0 0 20 20" fill="none"><rect width="20" height="20" fill="none"/>
<path d="M10.1006 2.25C12.2819 2.25021 14.0508 4.0188 14.0508 6.2002V6.5H12.5508V6.2002C12.5508 4.84723 11.4535 3.75021 10.1006 3.75H9.90039C8.54732 3.75 7.45024 4.84713 7.4502 6.2002V8.5498H15.4502V15.2998C15.4502 16.8185 14.2189 18.0497 12.7002 18.0498H7.2998C5.78102 18.0498 4.5498 16.8186 4.5498 15.2998V8.5498H5.9502V6.2002C5.95026 4.01872 7.71891 2.25 9.90039 2.25H10.1006ZM6.0498 15.2998C6.0498 15.9902 6.60945 16.5498 7.2998 16.5498H12.7002C13.3905 16.5497 13.9502 15.9901 13.9502 15.2998V10.0498H6.0498V15.2998Z" fill="#000000"/>
</svg>
