<svg xmlns="http://www.w3.org/2000/svg" width="20" height="20" viewBox="0 0 20 20" fill="none"><rect width="20" height="20" fill="none"/>
<path d="M10.5 3C13.4105 3 15.7911 5.26085 15.9854 8.12207C17.718 8.56098 19 10.1309 19 12V12.5C19 14.9853 16.9853 17 14.5 17H6C3.23858 17 1 14.7614 1 12C1 9.51456 2.8135 7.45274 5.18945 7.06543C5.82052 4.72359 7.95876 3 10.5 3ZM10.5 5C8.567 5 7 6.567 7 8.5V9H6C4.34315 9 3 10.3431 3 12C3 13.6569 4.34315 15 6 15H14.5C15.8807 15 17 13.8807 17 12.5V12C17 10.8954 16.1046 10 15 10H14V8.5C14 6.567 12.433 5 10.5 5Z" fill="#000000"/>
</svg>
