<svg xmlns="http://www.w3.org/2000/svg" width="20" height="20" viewBox="0 0 20 20" fill="none"><rect width="20" height="20" fill="none"/>
<path d="M17 11C18.6569 11 20 12.3431 20 14C20 15.6569 18.6569 17 17 17H16V18H18V19H16V20H14V19H13V18H14V17H13V15H14V11H17ZM16 15H17C17.5523 15 18 14.5523 18 14C18 13.4477 17.5523 13 17 13H16V15Z" fill="#000000"/>
<path d="M17 6V9H15V7.16016L13.374 6.23047L8.5 9.07422V14.8389L10 15.6963V18L3 14V6L10 2L17 6ZM5 7.16016V12.8389L6.5 13.6953V7.92578L11.3682 5.08496L10 4.30273L5 7.16016Z" fill="#000000"/>
</svg>
