<svg xmlns="http://www.w3.org/2000/svg" width="20" height="20" viewBox="0 0 20 20" fill="none"><rect width="20" height="20" fill="none"/>
<path d="M10 12C10.5523 12 11 12.4477 11 13C11 13.5523 10.5523 14 10 14C9.44772 14 9 13.5523 9 13C9 12.4477 9.44772 12 10 12Z" fill="#000000"/>
<path d="M10.75 11H9.25L9 6H11L10.75 11Z" fill="#000000"/>
<path d="M10 1.9502C14.4458 1.9502 18.0497 5.5542 18.0498 10C18.0498 14.4459 14.4459 18.0498 10 18.0498C5.5542 18.0497 1.9502 14.4458 1.9502 10C1.9503 5.55426 5.55426 1.9503 10 1.9502ZM10 3.4502C6.38269 3.4503 3.4503 6.38269 3.4502 10C3.4502 13.6174 6.38262 16.5497 10 16.5498C13.6175 16.5498 16.5498 13.6175 16.5498 10C16.5497 6.38262 13.6174 3.4502 10 3.4502Z" fill="#000000"/>
</svg>
