<svg xmlns="http://www.w3.org/2000/svg" width="24" height="24" viewBox="0 0 24 24" fill="none"><rect width="24" height="24" fill="none"/>
<path d="M21.707 20.2938L20.293 21.7078L15.2783 16.6932L9.66895 21.744C9.33778 22.0416 8.8486 22.0848 8.4707 21.8494C8.0931 21.6134 7.91624 21.1546 8.03809 20.7264L9.77441 14.6453L4.68359 12.949C4.3466 12.8364 4.09432 12.5527 4.02148 12.2049C3.94905 11.8568 4.06699 11.4957 4.33105 11.2576L7.23047 8.64532L2.29297 3.70782L3.70703 2.29376L21.707 20.2938ZM6.94434 11.5945L11.3164 13.0525C11.8237 13.2221 12.1086 13.7608 11.9619 14.2752L10.917 17.9295L13.8623 15.2772L8.64648 10.0613L6.94434 11.5945Z" fill="#000000"/>
<path d="M14.3311 2.25762C14.6622 1.95969 15.1512 1.91664 15.5293 2.15215C15.907 2.38831 16.0841 2.8468 15.9619 3.2752L14.2246 9.35528L19.3164 11.0525C19.6536 11.1652 19.9058 11.4487 19.9785 11.7967C20.0508 12.1448 19.9332 12.506 19.6689 12.744L18.083 14.1697L16.667 12.7537L17.0547 12.4061L15.9512 12.0379L12.3936 8.48028L13.082 6.0711L11.4512 7.5379L10.0361 6.12286L14.3311 2.25762Z" fill="#000000"/>
</svg>
