<svg xmlns="http://www.w3.org/2000/svg" width="20" height="20" viewBox="0 0 20 20" fill="none"><rect width="20" height="20" fill="none"/>
<path d="M5.5 13C6.88071 13 8 14.1193 8 15.5C8 16.8807 6.88071 18 5.5 18C4.11929 18 3 16.8807 3 15.5C3 14.1193 4.11929 13 5.5 13ZM5.5 14.5C4.94772 14.5 4.5 14.9477 4.5 15.5C4.5 16.0523 4.94772 16.5 5.5 16.5C6.05228 16.5 6.5 16.0523 6.5 15.5C6.5 14.9477 6.05228 14.5 5.5 14.5Z" fill="#000000"/>
<path d="M10.5 5.5H6.3252C5.28966 5.5 4.4502 6.33947 4.4502 7.375C4.4502 8.41053 5.28966 9.25 6.3252 9.25H13.6748C15.5388 9.25 17.0498 10.761 17.0498 12.625C17.0498 14.4886 15.5401 16 13.6758 16H9.5V14.5H13.6758C14.711 14.5 15.5498 13.6609 15.5498 12.625C15.5498 11.5895 14.7103 10.75 13.6748 10.75H6.3252C4.46123 10.75 2.9502 9.23896 2.9502 7.375C2.9502 5.51104 4.46123 4 6.3252 4H10.5V5.5Z" fill="#000000"/>
<path d="M14.5 2C15.8807 2 17 3.11929 17 4.5C17 5.88071 15.8807 7 14.5 7C13.1193 7 12 5.88071 12 4.5C12 3.11929 13.1193 2 14.5 2ZM14.5 3.5C13.9477 3.5 13.5 3.94772 13.5 4.5C13.5 5.05228 13.9477 5.5 14.5 5.5C15.0523 5.5 15.5 5.05228 15.5 4.5C15.5 3.94772 15.0523 3.5 14.5 3.5Z" fill="#000000"/>
</svg>
