<svg xmlns="http://www.w3.org/2000/svg" width="20" height="20" viewBox="0 0 20 20" fill="none"><rect width="20" height="20" fill="none"/>
<path d="M10.4697 10.4702C10.6776 10.2623 10.9883 10.1952 11.2637 10.2983L19.2637 13.2983C19.5501 13.4059 19.7428 13.6769 19.75 13.9829C19.757 14.2889 19.5772 14.5692 19.2959 14.6899L16.0713 16.0718L14.6895 19.2964C14.5687 19.5776 14.2884 19.7575 13.9824 19.7505C13.6766 19.7432 13.4055 19.5505 13.2979 19.2641L10.2979 11.2641C10.1947 10.9889 10.2619 10.6781 10.4697 10.4702ZM14.0459 16.9878L14.9297 14.9292L16.9873 14.0464L12.2812 12.2817L14.0459 16.9878Z" fill="#000000"/>
<path d="M11.3643 2.76706C13.157 2.11828 15.0497 3.44642 15.0498 5.353V5.95163H15.2998C16.8185 5.95163 18.0497 7.1829 18.0498 8.70163V9.00046H16.5498V8.70163C16.5497 8.01133 15.9901 7.45163 15.2998 7.45163H4.7002C4.00988 7.45163 3.45026 8.01133 3.4502 8.70163V15.3012C3.45074 15.9911 4.01018 16.5512 4.7002 16.5512H9V18.0512H4.7002C3.18175 18.0512 1.95074 16.8196 1.9502 15.3012V8.10398C1.9504 6.94665 2.6756 5.91332 3.76367 5.51902L11.3643 2.76706ZM13.5498 5.353C13.5497 4.48635 12.6889 3.88219 11.874 4.17722L6.97363 5.95163H13.5498V5.353Z" fill="#000000"/>
</svg>
