<svg xmlns="http://www.w3.org/2000/svg" width="24" height="24" viewBox="0 0 24 24" fill="none"><rect width="24" height="24" fill="none"/>
<g clip-path="url(#clip0_156737_19491)">
<path d="M9 16.0005C9.55228 16.0005 10 16.4482 10 17.0005C9.99974 17.5525 9.55212 18.0005 9 18.0005H8C7.44788 18.0005 7.00026 17.5525 7 17.0005C7 16.4482 7.44772 16.0005 8 16.0005H9Z" fill="#000000"/>
<path d="M16 16.0005C16.5523 16.0005 17 16.4482 17 17.0005C16.9997 17.5525 16.5521 18.0005 16 18.0005H15C14.4479 18.0005 14.0003 17.5525 14 17.0005C14 16.4482 14.4477 16.0005 15 16.0005H16Z" fill="#000000"/>
<path d="M16.5703 5.00049C18.1853 5.0006 19.5105 6.27915 19.5684 7.89307L20.0361 21.0005H18V23.0005H16V21.0005H8V23.0005H6V21.0005H3.96387L4.43164 7.89307C4.48946 6.27913 5.81469 5.00057 7.42969 5.00049H16.5703ZM6.03613 19.0005H17.9639L17.7852 14.0005H6.21484L6.03613 19.0005ZM7.42969 7.00049C6.89152 7.00057 6.45011 7.42657 6.43066 7.96436L6.28613 12.0005H17.7139L17.5693 7.96436C17.5499 7.42659 17.1085 7.0006 16.5703 7.00049H7.42969Z" fill="#000000"/>
<path d="M10.2949 2.99951H8L9.6875 -0.000488281H11.9814L10.2949 2.99951Z" fill="#000000"/>
<path d="M15.3027 2.99951H13.0049L14.7002 -0.000488281H16.998L15.3027 2.99951Z" fill="#000000"/>
</g>
<defs>
<clipPath id="clip0_156737_19491">
<rect width="24" height="24" fill="white"/>
</clipPath>
</defs>
</svg>
