<svg xmlns="http://www.w3.org/2000/svg" width="20" height="20" viewBox="0 0 20 20" fill="none"><rect width="20" height="20" fill="none"/>
<path d="M6.00388 7.99902C6.55616 7.99902 7.00388 8.44674 7.00388 8.99902V10.999C7.00388 11.5513 6.55616 11.999 6.00388 11.999C5.45161 11.999 5.00388 11.5513 5.00388 10.999V8.99902C5.00388 8.44675 5.45161 7.99904 6.00388 7.99902Z" fill="#000000"/>
<path d="M15 4C16.6568 4 18 5.34315 18 7V13C18 14.6569 16.6568 16 15 16H4.99997C3.34313 16 1.99997 14.6568 1.99997 13V7C1.99997 5.34316 3.34313 4.00002 4.99997 4H15ZM4.99997 5.5C4.17156 5.50002 3.49997 6.17158 3.49997 7V13C3.49997 13.8284 4.17156 14.5 4.99997 14.5H15C15.8284 14.5 16.5 13.8284 16.5 13V7C16.5 6.17157 15.8284 5.5 15 5.5H4.99997Z" fill="#000000"/>
</svg>
