<svg xmlns="http://www.w3.org/2000/svg" width="24" height="24" viewBox="0 0 24 24" fill="none"><rect width="24" height="24" fill="none"/>
<path d="M12 2C12.6739 2 13.1245 2.46821 13.2676 2.9541C13.4046 3.41963 13.297 3.99201 12.8574 4.38086C11.7166 5.38988 11 6.86051 11 8.5C11 11.5376 13.4624 14 16.5 14C17.5148 14 18.4621 13.7251 19.2764 13.2471C19.8292 12.9225 20.4691 12.9848 20.9268 13.2705C21.409 13.5717 21.7853 14.2019 21.5596 14.9375C20.3052 19.0255 16.5021 22 12 22C6.47718 22 2.00007 17.5228 2 12C2 6.47715 6.47715 2 12 2ZM10.3848 4.16211C6.74067 4.90914 4 8.13498 4 12L4.01074 12.4121C4.22529 16.6388 7.72 20 12 20C15.1615 20 17.8941 18.1646 19.1924 15.5C18.3562 15.8223 17.4484 16 16.5 16C12.3579 16 9 12.6421 9 8.5C9 6.88261 9.51434 5.38611 10.3848 4.16211Z" fill="#000000"/>
</svg>
