<svg xmlns="http://www.w3.org/2000/svg" width="24" height="24" viewBox="0 0 24 24" fill="none"><rect width="24" height="24" fill="none"/>
<path d="M19.792 14.0078C20.212 14.0079 20.6286 14.0891 21.0176 14.2471C21.4068 14.4052 21.7626 14.6378 22.0605 14.9336L22.0596 14.9346C22.6596 15.5299 23.0039 16.333 23.0039 17.1787C23.0039 18.0246 22.6599 18.8285 22.0596 19.4238L22.0547 19.4287L18.7705 22.6387C18.6689 22.7631 18.5392 22.866 18.3848 22.9307C18.0131 23.0863 17.5841 23.0033 17.2969 22.7207L13.9502 19.4248L13.9473 19.4219C13.3475 18.8266 13.0039 18.0233 13.0039 17.1777C13.0039 16.3322 13.3475 15.5288 13.9473 14.9336C14.2452 14.6379 14.6001 14.4052 14.9893 14.2471C15.3784 14.0889 15.7956 14.0078 16.2158 14.0078C16.636 14.0078 17.0533 14.089 17.4424 14.2471C17.6392 14.3271 17.8266 14.4273 18.0029 14.5439C18.1796 14.4269 18.3681 14.3273 18.5654 14.2471C18.9545 14.089 19.3718 14.0078 19.792 14.0078ZM19.792 16.0078C19.6281 16.0078 19.4666 16.0394 19.3184 16.0996C19.1701 16.1599 19.0395 16.2474 18.9326 16.3535L18.9268 16.3584L18.7021 16.5771C18.3136 16.9568 17.6932 16.9568 17.3047 16.5771L17.0811 16.3584L17.0752 16.3535C16.9684 16.2475 16.8376 16.1599 16.6895 16.0996C16.5412 16.0394 16.3797 16.0078 16.2158 16.0078C16.0519 16.0078 15.8905 16.0394 15.7422 16.0996C15.5939 16.1599 15.4633 16.2474 15.3564 16.3535C15.1252 16.5831 15.0039 16.8791 15.0039 17.1777C15.0039 17.4754 15.1238 17.7708 15.3535 18L17.9941 20.6006L20.6562 17.999C20.8847 17.7701 21.0039 17.4755 21.0039 17.1787C21.0039 16.9172 20.9116 16.6571 20.7334 16.4424L20.6514 16.3535C20.5445 16.2474 20.4129 16.1599 20.2646 16.0996C20.1166 16.0395 19.9557 16.0079 19.792 16.0078Z" fill="#000000"/>
<path d="M11 15.0352C8.96965 15.1815 7.84568 15.788 7.1748 16.6523C6.34938 17.7159 6 19.4158 6 22H4C4 19.3558 4.33023 17.0551 5.59473 15.4258C6.75782 13.9273 8.55182 13.1841 11 13.0312V15.0352Z" fill="#000000"/>
<path d="M12 2C14.7614 2 17 4.23858 17 7C17 9.76142 14.7614 12 12 12C9.23858 12 7 9.76142 7 7C7 4.23858 9.23858 2 12 2ZM12 4C10.3431 4 9 5.34315 9 7C9 8.65685 10.3431 10 12 10C13.6569 10 15 8.65685 15 7C15 5.34315 13.6569 4 12 4Z" fill="#000000"/>
</svg>
