<svg xmlns="http://www.w3.org/2000/svg" width="20" height="20" viewBox="0 0 20 20" fill="none"><rect width="20" height="20" fill="none"/>
<path d="M8 4H5.25C4.55964 4 4 4.55964 4 5.25V14.75L4.00684 14.8779C4.07092 15.5082 4.60285 16 5.25 16H14.75C15.4404 16 16 15.4404 16 14.75V12H17.5V14.75C17.5 16.2688 16.2688 17.5 14.75 17.5H5.25C3.82618 17.5 2.65553 16.4179 2.51465 15.0312L2.5 14.75V5.25C2.5 3.73122 3.73122 2.5 5.25 2.5H8V4Z" fill="#000000"/>
<path d="M17.5 9H16V5.06055L10.2803 10.7803L9.21973 9.71973L14.9395 4H11V2.5H17.5V9Z" fill="#000000"/>
</svg>
