<svg xmlns="http://www.w3.org/2000/svg" width="20" height="20" viewBox="0 0 20 20" fill="none"><rect width="20" height="20" fill="none"/>
<path d="M18.707 17.293L17.293 18.707L14.3496 15.7637C13.9279 15.9152 13.474 16 13 16H8V17.5C7.99985 17.6816 7.90105 17.8495 7.74219 17.9375C7.58341 18.0253 7.3893 18.0199 7.23535 17.9238L3.23535 15.4238C3.08928 15.3325 3.00014 15.1722 3 15C3 14.8277 3.08927 14.6676 3.23535 14.5762L7.23535 12.0762C7.38938 11.98 7.58331 11.9746 7.74219 12.0625C7.90106 12.1506 8 12.3183 8 12.5V14H12.5859L5.39551 6.80957C5.14818 7.1424 5 7.55347 5 8V10H3V8C3 7.00088 3.36698 6.08776 3.97266 5.38672L1.29297 2.70703L2.70703 1.29297L18.707 17.293Z" fill="#000000"/>
<path d="M17 12C17 12.3334 16.9578 12.6571 16.8809 12.9668L15 11.0859V10H17V12Z" fill="#000000"/>
<path d="M12.2578 2.0625C12.4167 1.97455 12.6106 1.97999 12.7646 2.07617L16.7646 4.57617C16.9107 4.66756 17 4.82768 17 5C16.9999 5.17224 16.9107 5.33253 16.7646 5.42383L12.7646 7.92383C12.6107 8.01987 12.4166 8.02532 12.2578 7.9375C12.099 7.84945 12.0001 7.68161 12 7.5V6H9.91406L7.91406 4H12V2.5C12 2.3183 12.0989 2.15064 12.2578 2.0625Z" fill="#000000"/>
</svg>
