<svg xmlns="http://www.w3.org/2000/svg" width="24" height="24" viewBox="0 0 24 24" fill="none"><rect width="24" height="24" fill="none"/>
<path d="M22 13H19.4893L12.7891 21.6143C12.5996 21.8577 12.3084 22 12 22C11.6916 22 11.4004 21.8577 11.2109 21.6143L4.51074 13H2V11H22V13ZM12 19.3711L16.9551 13H7.04492L12 19.3711Z" fill="#000000"/>
<path d="M14.0068 2.001C14.3011 2.00305 14.5801 2.13433 14.7686 2.36038L20.3018 9.00002H17.6963L13.9883 4.54983L11.7588 7.15139C11.5775 7.36258 11.3162 7.48934 11.0381 7.50002C10.7601 7.51061 10.4898 7.40465 10.293 7.20803L9.5 6.41506L6.91504 9.00002H4.08691L8.79297 4.29397L8.86914 4.22561C9.26191 3.90529 9.84092 3.92788 10.207 4.29397L10.9434 5.0303L13.2412 2.35061L13.3164 2.27053C13.5024 2.09649 13.7494 1.99924 14.0068 2.001Z" fill="#000000"/>
</svg>
