<svg xmlns="http://www.w3.org/2000/svg" width="24" height="24" viewBox="0 0 24 24" fill="none"><rect width="24" height="24" fill="none"/>
<path d="M10.0488 2.19232C11.9885 1.80649 13.9999 2.00382 15.8271 2.76068C17.6542 3.51755 19.2156 4.79989 20.3144 6.44427C21.4132 8.08874 21.9999 10.0222 21.9999 11.9999V13.4999C21.9999 15.4329 20.4329 16.9999 18.4999 16.9999C17.2949 16.9999 16.2321 16.3908 15.6025 15.4638C15.5798 15.4874 15.5582 15.5119 15.5351 15.5351C14.6561 16.4141 13.4837 16.9327 12.248 16.9941L11.9999 16.9999C10.6739 16.9999 9.40245 16.4727 8.46478 15.5351C7.58575 14.6561 7.06715 13.4837 7.0058 12.248L6.99994 11.9999C6.99994 10.6739 7.5271 9.40246 8.46478 8.46478C9.40246 7.5271 10.6739 6.99994 11.9999 6.99994L12.248 7.0058C13.4837 7.06715 14.6561 7.58575 15.5351 8.46478C16.4727 9.40245 16.9999 10.6739 16.9999 11.9999V13.4999C17 14.3283 17.6715 14.9999 18.4999 14.9999C19.3283 14.9999 19.9999 14.3283 19.9999 13.4999V11.9999C19.9999 10.4177 19.5303 8.87117 18.6513 7.5556C17.7723 6.24012 16.5231 5.21483 15.0615 4.60931C13.5998 4.00386 11.9911 3.84466 10.4394 4.15326C8.88754 4.46194 7.46153 5.22389 6.34271 6.34271C5.22389 7.46153 4.46194 8.88754 4.15326 10.4394C3.84466 11.9911 4.00386 13.5998 4.60931 15.0615C5.21483 16.5231 6.24012 17.7723 7.5556 18.6513C8.87117 19.5303 10.4177 19.9999 11.9999 19.9999V21.9999C10.0222 21.9999 8.08874 21.4132 6.44427 20.3144C4.79989 19.2156 3.51755 17.6542 2.76068 15.8271C2.00382 13.9999 1.80649 11.9885 2.19232 10.0488C2.57821 8.10907 3.5302 6.3271 4.92865 4.92865C6.3271 3.5302 8.10907 2.57821 10.0488 2.19232ZM11.9999 8.99994C11.2043 8.99994 10.4415 9.31624 9.87884 9.87884C9.31624 10.4415 8.99994 11.2043 8.99994 11.9999L9.01459 12.2968C9.08287 12.9834 9.38667 13.6289 9.87884 14.121C10.4414 14.6836 11.2043 14.9999 11.9999 14.9999L12.2968 14.9853C12.9834 14.917 13.6289 14.6132 14.121 14.121C14.6836 13.5584 14.9999 12.7955 14.9999 11.9999L14.9853 11.7031C14.917 11.0165 14.6132 10.371 14.121 9.87884C13.6289 9.38667 12.9834 9.08287 12.2968 9.01459L11.9999 8.99994Z" fill="#000000"/>
</svg>
