<svg xmlns="http://www.w3.org/2000/svg" width="20" height="20" viewBox="0 0 20 20" fill="none"><rect width="20" height="20" fill="none"/>
<path d="M18 14C15.2386 14 13 16.2386 13 19H11.5C11.5 15.4101 14.4101 12.5 18 12.5V14Z" fill="#000000"/>
<path d="M18 19H15C15 17.3431 16.3431 16 18 16V19Z" fill="#000000"/>
<path d="M12.3008 1.94922C14.3717 1.94938 16.0508 3.62825 16.0508 5.69922V10.5H14.5508V5.69922C14.5508 4.45668 13.5433 3.44938 12.3008 3.44922H7.7002C6.45756 3.44922 5.4502 4.45658 5.4502 5.69922V14.2998C5.45035 15.5423 6.45765 16.5498 7.7002 16.5498H8.5V18.0498H7.7002C5.62923 18.0498 3.95035 16.3707 3.9502 14.2998V5.69922C3.9502 3.62815 5.62913 1.94922 7.7002 1.94922H12.3008Z" fill="#000000"/>
<path d="M11 5C11.5523 5 12 5.44772 12 6C11.9997 6.55206 11.5521 7 11 7H9C8.44788 7 8.00026 6.55206 8 6C8 5.44772 8.44772 5 9 5H11Z" fill="#000000"/>
</svg>
