<svg xmlns="http://www.w3.org/2000/svg" width="20" height="20" viewBox="0 0 20 20" fill="none"><rect width="20" height="20" fill="none"/>
<path d="M15.5 12.0498C17.4052 12.0499 18.9501 13.5948 18.9502 15.5C18.9501 17.4052 17.4052 18.9501 15.5 18.9502C13.5947 18.9502 12.0499 17.4053 12.0498 15.5C12.0499 13.5947 13.5947 12.0498 15.5 12.0498ZM15.5 13.5498C14.4231 13.5498 13.5499 14.4231 13.5498 15.5C13.5499 16.5769 14.4231 17.4502 15.5 17.4502C16.5768 17.4501 17.4501 16.5768 17.4502 15.5C17.4501 14.4232 16.5768 13.5499 15.5 13.5498Z" fill="#000000"/>
<path d="M14.6543 2.50391C16.1883 2.58163 17.4184 3.81166 17.4961 5.3457L17.5 5.5V10H16V5.5C16 4.67157 15.3284 4 14.5 4H5.5C4.67157 4 4 4.67157 4 5.5V14.5C4 15.3284 4.67157 16 5.5 16H10V17.5H5.5C3.84315 17.5 2.5 16.1569 2.5 14.5V5.5C2.5 3.8949 3.76056 2.58421 5.3457 2.50391L5.5 2.5H14.5L14.6543 2.50391Z" fill="#000000"/>
<path d="M10 10.4492H6V8.94922H10V10.4492Z" fill="#000000"/>
<path d="M13 7.44922H6V5.94922H13V7.44922Z" fill="#000000"/>
</svg>
