<svg xmlns="http://www.w3.org/2000/svg" width="24" height="24" viewBox="0 0 24 24" fill="none"><rect width="24" height="24" fill="none"/>
<path d="M12 10.8906L14.0947 7H16.3662L13.1357 13H15V14H13V15H15V16H13V17H11V16H9V15H11V14H9V13H10.8652L7.63477 7H9.90625L12 10.8906Z" fill="#000000"/>
<path d="M17 3C19.2091 3 21 4.79086 21 7V17C21 19.2091 19.2091 21 17 21H7C4.79086 21 3 19.2091 3 17V7C3 4.79086 4.79086 3 7 3H17ZM7 5C5.89543 5 5 5.89543 5 7V17C5 18.1046 5.89543 19 7 19H17C18.1046 19 19 18.1046 19 17V7C19 5.89543 18.1046 5 17 5H7Z" fill="#000000"/>
</svg>
