<svg xmlns="http://www.w3.org/2000/svg" width="20" height="20" viewBox="0 0 20 20" fill="none"><rect width="20" height="20" fill="none"/>
<path d="M10.2803 7.53027L8.56055 9.25H14V10.75H8.56055L10.2803 12.4697L9.21973 13.5303L5.68945 10.001L9.21973 6.46973L10.2803 7.53027Z" fill="#000000"/>
<path d="M14.5 2.5C16.1569 2.5 17.5 3.84315 17.5 5.5V14.5C17.5 16.1051 16.2394 17.4158 14.6543 17.4961L14.5 17.5H5.5L5.3457 17.4961C3.81166 17.4184 2.58163 16.1883 2.50391 14.6543L2.5 14.5V5.5C2.5 3.84315 3.84315 2.5 5.5 2.5H14.5ZM5.5 4C4.67157 4 4 4.67157 4 5.5V14.5C4 15.3284 4.67157 16 5.5 16H14.5C15.3284 16 16 15.3284 16 14.5V5.5C16 4.67157 15.3284 4 14.5 4H5.5Z" fill="#000000"/>
</svg>
