<svg xmlns="http://www.w3.org/2000/svg" width="24" height="24" viewBox="0 0 24 24" fill="none"><rect width="24" height="24" fill="none"/>
<path d="M17.5 13C19.9853 13 22 15.0147 22 17.5C22 18.3804 21.7456 19.2009 21.3086 19.8945L23.207 21.793L21.793 23.207L19.8945 21.3086C19.2009 21.7456 18.3804 22 17.5 22C15.0147 22 13 19.9853 13 17.5C13 15.0147 15.0147 13 17.5 13ZM17.5 15C16.1193 15 15 16.1193 15 17.5C15 18.8807 16.1193 20 17.5 20C18.8807 20 20 18.8807 20 17.5C20 16.1193 18.8807 15 17.5 15Z" fill="#000000"/>
<path d="M15.001 2C17.2099 2.00026 19.001 3.79102 19.001 6V11.1758C18.519 11.0618 18.0167 11 17.5 11C13.9101 11 11 13.9101 11 17.5C11 19.247 11.6902 20.832 12.8115 22H9C6.79086 22 5 20.2091 5 18V6C5 3.79086 6.79086 2 9 2H15.001ZM11 4C10.4477 4 10 4.44772 10 5C10 5.55228 10.4477 6 11 6H13C13.5523 6 14 5.55228 14 5C14 4.44772 13.5523 4 13 4H11Z" fill="#000000"/>
</svg>
