<svg xmlns="http://www.w3.org/2000/svg" width="20" height="20" viewBox="0 0 20 20" fill="none"><rect width="20" height="20" fill="none"/>
<path d="M19.0303 12.0321L12.0303 19.0321L10.9697 17.9715L17.9697 10.9715L19.0303 12.0321Z" fill="#000000"/>
<path d="M17.5 16.0018C18.3284 16.0018 19 16.6734 19 17.5018C18.9997 18.33 18.3283 19.0018 17.5 19.0018C16.6717 19.0018 16.0003 18.33 16 17.5018C16 16.6734 16.6716 16.0018 17.5 16.0018Z" fill="#000000"/>
<path d="M11.0127 2.90904C12.9709 2.18858 15.0485 3.63805 15.0488 5.72447V5.99987C16.683 6.02595 17.9997 7.3586 18 8.99889V9.00182H16.5V8.99889C16.4997 8.17071 15.8282 7.49889 15 7.49889H5C4.17176 7.49889 3.5003 8.17071 3.5 8.99889V14.9989C3.50046 15.8269 4.17186 16.4989 5 16.4989H9V17.9989H5C3.34343 17.9989 2.00046 16.6554 2 14.9989V8.31822C2.00031 7.06133 2.78432 5.937 3.96387 5.50279L11.0127 2.90904ZM13.5488 5.72447C13.5485 4.68157 12.5101 3.95646 11.5312 4.31627L6.95996 5.99889H13.5488V5.72447Z" fill="#000000"/>
<path d="M12.5 11.0018C13.3284 11.0018 14 11.6734 14 12.5018C13.9997 13.33 13.3283 14.0018 12.5 14.0018C11.6718 14.0018 11.0003 13.33 11 12.5018C11 11.6734 11.6716 11.0018 12.5 11.0018Z" fill="#000000"/>
</svg>
