<svg xmlns="http://www.w3.org/2000/svg" width="20" height="20" viewBox="0 0 20 20" fill="none"><rect width="20" height="20" fill="none"/>
<path d="M10.75 3H11.0527C13.2618 3.00004 15.0527 4.7909 15.0527 7C15.0527 7.98988 14.6914 8.89435 14.0957 9.59277C15.2382 10.297 16 11.5594 16 13C16 15.2091 14.2091 17 12 17H10.75V19H9.25V17H5V3H9.25V1H10.75V3ZM7 15H12C13.1045 15 14 14.1045 14 13C14 11.8954 13.1046 11 12 11H7V15ZM7 9H11.0527C12.1572 8.99996 13.0527 8.10452 13.0527 7C13.0527 5.89547 12.1573 5.00004 11.0527 5H7V9Z" fill="#000000"/>
</svg>
