<svg xmlns="http://www.w3.org/2000/svg" width="20" height="20" viewBox="0 0 20 20" fill="none"><rect width="20" height="20" fill="none"/>
<path d="M19.207 12.207L12.207 19.207L10.7929 17.793L17.7929 10.793L19.207 12.207Z" fill="#000000"/>
<path d="M17.5 16C18.3283 16 18.9999 16.6716 19 17.5C18.9999 18.3284 18.3283 19 17.5 19C16.6716 19 16 18.3284 16 17.5C16 16.6716 16.6716 16 17.5 16Z" fill="#000000"/>
<path d="M7.0654 7.90723C8.51075 7.31658 11.4908 7.31482 12.9355 7.90723L13.4248 8.11133C13.5818 8.17938 13.7322 8.24846 13.872 8.31836C14.106 8.43534 14.3298 8.56988 14.54 8.71973C14.6471 8.7961 14.7502 8.8777 14.8506 8.96191C15.3361 9.36947 15.7378 9.86701 16.0381 10.4258L15.2207 11.2432C14.7449 10.215 13.7074 9.50005 12.5 9.5C10.8432 9.50008 9.50005 10.8433 9.49997 12.5C9.49997 13.7075 10.2149 14.7449 11.2431 15.2207L8.46481 18H6.97751C4.32009 18 2.40101 15.4565 3.13083 12.9014L3.55563 11.417C3.88504 10.2644 4.61561 9.27541 5.60446 8.62109C5.69923 8.5584 5.79608 8.4978 5.89547 8.44141L6.12692 8.31836L6.13766 8.3125C6.27403 8.24471 6.42099 8.17851 6.57419 8.1123L7.0654 7.90723Z" fill="#000000"/>
<path d="M12.5 11C13.3283 11 13.9999 11.6716 14 12.5C13.9999 13.3284 13.3283 14 12.5 14C11.6716 14 11 13.3284 11 12.5C11 11.6716 11.6716 11 12.5 11Z" fill="#000000"/>
<path d="M10.0048 2C11.0521 2.00009 12.0576 2.2953 12.7675 2.56543C13.1294 2.70316 13.4321 2.84096 13.6455 2.94531C13.7521 2.99747 13.8379 3.04201 13.8984 3.07422C13.9285 3.09025 13.9532 3.10366 13.9707 3.11328C13.9793 3.11803 13.9868 3.12201 13.9922 3.125C13.9947 3.12644 13.9972 3.12791 13.999 3.12891L14.0009 3.13086H14.0029C14.0029 3.13086 13.9933 3.14886 13.5078 4L14.0029 3.13086C14.2736 3.28543 14.4576 3.55825 14.499 3.86719C14.5403 4.17594 14.435 4.48667 14.2148 4.70703L12.667 6.25195C11.8316 6.04633 10.8766 5.96271 9.99997 5.96289C9.126 5.96314 8.17608 6.04745 7.34372 6.25098L5.80075 4.70703C5.58058 4.48669 5.47527 4.17592 5.51657 3.86719C5.55793 3.55862 5.74053 3.28653 6.01071 3.13184L6.01266 3.13086L6.01559 3.12988L6.04294 3.11426C6.06038 3.1046 6.08516 3.09124 6.1152 3.0752C6.17565 3.04292 6.26153 2.99857 6.36813 2.94629C6.58112 2.84184 6.88281 2.70322 7.24411 2.56543C7.95306 2.29512 8.95737 2 10.0048 2Z" fill="#000000"/>
</svg>
