<svg xmlns="http://www.w3.org/2000/svg" width="24" height="24" viewBox="0 0 24 24" fill="none"><rect width="24" height="24" fill="none"/>
<path d="M22 21H13V19H22V21Z" fill="#000000"/>
<path d="M14.793 3.79297C16.288 2.29818 18.712 2.29817 20.207 3.79297C21.7019 5.288 21.7018 7.71197 20.207 9.20703L8.95898 20.4551L4.23437 20.9805C3.53411 21.0581 2.94209 20.4659 3.01953 19.7656L3.54492 15.041L14.793 3.79297ZM5.45507 15.958L5.13183 18.8672L8.04101 18.5439L15.9736 10.6113C15.7993 9.26521 14.734 8.19916 13.3877 8.02539L5.45507 15.958ZM18.793 5.20703C18.079 4.49328 16.921 4.49329 16.207 5.20703L14.9971 6.41504C16.1519 6.91878 17.0787 7.84648 17.583 9.00098L18.793 7.79297C19.5067 7.07895 19.5068 5.92101 18.793 5.20703Z" fill="#000000"/>
</svg>
