<svg xmlns="http://www.w3.org/2000/svg" width="24" height="24" viewBox="0 0 24 24" fill="none"><rect width="24" height="24" fill="none"/>
<path d="M19.5 16C21.433 16 23 17.567 23 19.5C23 21.433 21.433 23 19.5 23C17.567 23 16 21.433 16 19.5C16 17.567 17.567 16 19.5 16ZM19.5 18C18.6716 18 18 18.6716 18 19.5C18 20.3284 18.6716 21 19.5 21C20.3284 21 21 20.3284 21 19.5C21 18.6716 20.3284 18 19.5 18Z" fill="#000000"/>
<path d="M9 4H15V2H17V4C19.2091 4 21 5.79086 21 8V14H19V10H5V17C5 18.1046 5.89543 19 7 19H14V21H7C4.79086 21 3 19.2091 3 17V8C3 5.79086 4.79086 4 7 4V2H9V4ZM7 6C5.89543 6 5 6.89543 5 8H19C19 6.89543 18.1046 6 17 6H7Z" fill="#000000"/>
</svg>
