<svg xmlns="http://www.w3.org/2000/svg" width="20" height="20" viewBox="0 0 20 20" fill="none"><rect width="20" height="20" fill="none"/>
<path d="M12.001 11.5H8.00104V10H12.001V11.5Z" fill="#000000"/>
<path d="M15.459 7H17.251C17.4778 7.00027 17.6928 7.10359 17.835 7.28027C17.977 7.45698 18.0318 7.68869 17.9835 7.91016L16.0762 16.624C15.9004 17.427 15.1882 17.9996 14.3663 18H5.56256C4.73506 18 4.02022 17.4201 3.84967 16.6104L2.01666 7.9043C1.97021 7.68321 2.02666 7.45278 2.169 7.27734C2.31142 7.10224 2.5253 7 2.75104 7H4.54303L6.28912 1.7627L7.71295 2.2373L6.12506 7H13.877L12.2891 2.2373L13.7129 1.7627L15.459 7ZM5.31744 16.3018C5.34199 16.4172 5.44451 16.5 5.56256 16.5H14.3663C14.4834 16.4996 14.5853 16.4172 14.6104 16.3027L16.3194 8.5H3.67584L5.31744 16.3018Z" fill="#000000"/>
</svg>
