<svg xmlns="http://www.w3.org/2000/svg" width="20" height="20" viewBox="0 0 20 20" fill="none"><rect width="20" height="20" fill="none"/>
<path d="M11 12.4492H6V10.9492H11V12.4492Z" fill="#000000"/>
<path d="M13 9.05078H6V7.55078H13V9.05078Z" fill="#000000"/>
<path d="M7.12891 2C7.76143 2.90633 8.81095 3.5 10 3.5C11.1893 3.5 12.2396 2.90659 12.8721 2H17V18H12.8721C12.2396 17.0934 11.1893 16.5 10 16.5C8.81103 16.5001 7.76146 17.0937 7.12891 18H3V2H7.12891ZM4.5 16.5H6.43262C7.33796 15.5772 8.60057 15.0001 10 15L10.3164 15.0098C11.5895 15.0894 12.7323 15.6465 13.5693 16.5H15.5V3.5H13.5693C12.7323 4.35346 11.5895 4.9106 10.3164 4.99023L10 5C8.60042 5 7.33793 4.42286 6.43262 3.5H4.5V16.5Z" fill="#000000"/>
</svg>
