<svg xmlns="http://www.w3.org/2000/svg" width="20" height="20" viewBox="0 0 20 20" fill="none"><rect width="20" height="20" fill="none"/>
<path d="M11.5 10C11.6671 10.0001 11.8233 10.0836 11.916 10.2227L13.916 13.2227C14.0181 13.376 14.0273 13.5739 13.9404 13.7363C13.8533 13.8983 13.6839 13.9999 13.5 14H12.5V16C12.5003 16.552 12.948 16.9999 13.5 17H14V19H13.5C11.8434 18.9999 10.5003 17.6566 10.5 16V14H9.5L9.43164 13.9951C9.2749 13.9734 9.13577 13.878 9.05957 13.7363C8.97265 13.5739 8.98198 13.376 9.08398 13.2227L11.084 10.2227C11.1767 10.0837 11.333 10.0001 11.5 10Z" fill="#000000"/>
<path d="M15.5 10C17.1567 10.0001 18.5 11.3432 18.5 13V15H19.5L19.5684 15.0049C19.7252 15.0266 19.8643 15.1218 19.9404 15.2637C20.0272 15.4261 20.0182 15.6241 19.916 15.7773L17.916 18.7773C17.8233 18.9161 17.6669 18.9999 17.5 19C17.333 18.9999 17.1767 18.9162 17.084 18.7773L15.084 15.7773C14.9818 15.6241 14.9728 15.4262 15.0596 15.2637C15.1466 15.1015 15.3159 15.0001 15.5 15H16.5V13C16.5 12.4478 16.0522 12.0001 15.5 12H15V10H15.5Z" fill="#000000"/>
<path d="M17 6.96484V8H14.9473L10 4.70117L5 8.03516V15H8V17H3V6.96484L10 2.29785L17 6.96484Z" fill="#000000"/>
</svg>
