<svg xmlns="http://www.w3.org/2000/svg" width="24" height="24" viewBox="0 0 24 24" fill="none"><rect width="24" height="24" fill="none"/>
<path d="M20 14C21.6569 14 23 15.3431 23 17C23 18.6569 21.6569 20 20 20H19V21H21V22H19V23H17V22H16V21H17V20H16V18H17V14H20ZM19 18H20C20.5523 18 21 17.5523 21 17C21 16.4477 20.5523 16 20 16H19V18Z" fill="#000000"/>
<path d="M21 7V12H19V8.17578L16.0234 6.52246L9 10.5771V18.0449L12 19.7119L14 18.6006V20.8887L12 22L3 17V7L12 2L21 7ZM5 8.17676V15.8232L7 16.9336V9.42285L13.9844 5.38965L12 4.28711L5 8.17676Z" fill="#000000"/>
</svg>
