<svg xmlns="http://www.w3.org/2000/svg" width="20" height="20" viewBox="0 0 20 20" fill="none"><rect width="20" height="20" fill="none"/>
<path d="M16.25 15H17.5C17.6841 15.0001 17.8534 15.1014 17.9404 15.2637C18.0274 15.4262 18.0182 15.624 17.916 15.7773L15.916 18.7773C15.8233 18.9164 15.6671 18.9999 15.5 19C15.3329 19 15.1767 18.9164 15.084 18.7773L13.084 15.7773C12.9817 15.6239 12.9726 15.4263 13.0596 15.2637C13.1467 15.1014 13.3158 15 13.5 15H14.75V12H16.25V15Z" fill="#000000"/>
<path d="M14 2C15.6569 2 17 3.34315 17 5V10H15.5V5C15.5 4.17157 14.8284 3.5 14 3.5H6C5.17157 3.5 4.5 4.17157 4.5 5V15C4.5 15.8284 5.17157 16.5 6 16.5H11V18H6C4.34315 18 3 16.6569 3 15V5C3 3.34315 4.34315 2 6 2H14Z" fill="#000000"/>
<path d="M7 13C7.55228 13 8 13.4477 8 14C8 14.5523 7.55228 15 7 15C6.44772 15 6 14.5523 6 14C6 13.4477 6.44772 13 7 13Z" fill="#000000"/>
<path d="M10 13C10.5523 13 11 13.4477 11 14C11 14.5523 10.5523 15 10 15C9.44772 15 9 14.5523 9 14C9 13.4477 9.44772 13 10 13Z" fill="#000000"/>
<path d="M7 10C7.55228 10 8 10.4477 8 11C8 11.5523 7.55228 12 7 12C6.44772 12 6 11.5523 6 11C6 10.4477 6.44772 10 7 10Z" fill="#000000"/>
<path d="M10 10C10.5523 10 11 10.4477 11 11C11 11.5523 10.5523 12 10 12C9.44772 12 9 11.5523 9 11C9 10.4477 9.44772 10 10 10Z" fill="#000000"/>
<path d="M14 7H6V5H14V7Z" fill="#000000"/>
</svg>
