<svg xmlns="http://www.w3.org/2000/svg" width="24" height="24" viewBox="0 0 24 24" fill="none"><rect width="24" height="24" fill="none"/>
<path d="M20 14C21.6569 14 23 15.3431 23 17C23 18.6569 21.6569 20 20 20H19V21H21V22H19V23H17V22H16V21H17V20H16V18H17V14H20ZM19 18H20C20.5523 18 21 17.5523 21 17C21 16.4477 20.5523 16 20 16H19V18Z" fill="#000000"/>
<path d="M13 6.05664C16.4777 6.44116 19.3561 8.80695 20.4854 12H18.3252C17.2016 9.6353 14.7922 8 12 8C8.13401 8 5 11.134 5 15V17H14V19H2V17H3V15C3 10.3675 6.50014 6.55417 11 6.05664V4H13V6.05664Z" fill="#000000"/>
</svg>
