<svg xmlns="http://www.w3.org/2000/svg" width="24" height="24" viewBox="0 0 24 24" fill="none"><rect width="24" height="24" fill="none"/>
<path d="M21.707 20.293L20.293 21.707L16.8965 18.3106C15.8759 18.9973 14.6666 19.425 13.3604 19.4912L13 19.5V21.5C13 21.6801 12.9028 21.8468 12.7461 21.9356C12.5895 22.024 12.3975 22.0211 12.2432 21.9287L7.24316 18.9287C7.09258 18.8384 7 18.6756 7 18.5C7.00002 18.3462 7.0708 18.2025 7.18945 18.1084L7.24316 18.0713L12.2432 15.0713C12.3974 14.9789 12.5895 14.976 12.7461 15.0645C12.9028 15.1532 13 15.3199 13 15.5V17.5L13.2568 17.4932C14.0495 17.4531 14.7918 17.226 15.4443 16.8584L7.03809 8.45215C6.38773 9.29583 6.00001 10.3523 6 11.5V13H4V11.5C4.00001 9.7998 4.60811 8.24288 5.61621 7.03028L2.29297 3.70703L3.70703 2.29297L21.707 20.293Z" fill="#000000"/>
<path d="M20 12.5C20 13.55 19.7677 14.5455 19.3535 15.4395L17.8027 13.8887C17.93 13.4477 18 12.982 18 12.5V11H20V12.5Z" fill="#000000"/>
<path d="M12.2539 2.06446C12.4105 1.976 12.6026 1.97888 12.7568 2.07129L17.7568 5.07129C17.9074 5.16164 18 5.3244 18 5.5C18 5.65377 17.9292 5.79752 17.8105 5.8916L17.7568 5.92871L12.8105 8.89649L12 8.08594V6.5H11C10.8122 6.5 10.6268 6.51011 10.4443 6.53028L8.77637 4.86231C9.47512 4.62833 10.2225 4.5 11 4.5H12V2.5C12 2.31989 12.0972 2.1532 12.2539 2.06446Z" fill="#000000"/>
</svg>
