<svg xmlns="http://www.w3.org/2000/svg" width="24" height="24" viewBox="0 0 24 24" fill="none"><rect width="24" height="24" fill="none"/>
<path d="M15 8C15 6.34315 13.6569 5 12 5H7V11H12V13H5V3H12L12.2568 3.00684C14.8989 3.14053 17 5.32472 17 8C17 10.7614 14.7614 13 12 13V11C13.6569 11 15 9.65685 15 8Z" fill="#000000"/>
<path d="M17 16C17 14.3431 15.6569 13 14 13H7V19H14V21H5V11H14L14.2568 11.0068C16.8989 11.1405 19 13.3247 19 16C19 18.6753 16.8989 20.8595 14.2568 20.9932L14 21V19C15.6569 19 17 17.6569 17 16Z" fill="#000000"/>
</svg>
