<svg xmlns="http://www.w3.org/2000/svg" width="20" height="20" viewBox="0 0 20 20" fill="none"><rect width="20" height="20" fill="none"/>
<path d="M10.0005 2C11.0044 2.0002 11.9778 2.28479 12.6744 2.5498C13.0276 2.68426 13.324 2.81928 13.5318 2.9209C13.6353 2.97154 13.7189 3.01501 13.7769 3.0459C13.8053 3.06103 13.8291 3.07407 13.8453 3.08301C13.853 3.08725 13.8611 3.09114 13.8658 3.09375C13.8677 3.095 13.8716 3.09766 13.8716 3.09766L13.8736 3.09863L13.8745 3.09961C14.0731 3.21337 14.2103 3.41237 14.2447 3.63867C14.2786 3.86487 14.2074 4.09542 14.0513 4.2627L11.2476 7.26465L13.9224 8.53809C15.1663 9.13085 16.0931 10.2351 16.4595 11.5635L16.9253 13.2539C17.583 15.641 15.7871 18.0001 13.3111 18.001H6.68998C4.21323 18.0008 2.41762 15.6415 3.07572 13.2539L3.54154 11.5635C3.90813 10.2349 4.83434 9.1307 6.07865 8.53809L8.75345 7.26367L5.95463 4.2627C5.79863 4.09539 5.72828 3.86486 5.76224 3.63867C5.79656 3.4123 5.93269 3.21338 6.13138 3.09961L6.13431 3.09766C6.13431 3.09766 6.13817 3.09584 6.14017 3.09473C6.14492 3.09206 6.15203 3.08824 6.1597 3.08398C6.17608 3.07493 6.20029 3.06223 6.22904 3.04688C6.28711 3.01586 6.36968 2.97166 6.47318 2.9209C6.68069 2.81914 6.97586 2.68435 7.32865 2.5498C8.02422 2.28461 8.99633 2 10.0005 2ZM6.72318 9.89258C5.87201 10.298 5.23869 11.0531 4.98783 11.9619L4.52103 13.6523C4.12634 15.0848 5.20406 16.5008 6.68998 16.501H13.3111C14.7963 16.5001 15.8742 15.0843 15.48 13.6523L15.0132 11.9629C14.7626 11.0542 14.1287 10.2982 13.2779 9.89258L10.0005 8.33105L6.72318 9.89258ZM10.0005 3.50098C9.25559 3.50098 8.47817 3.71753 7.86283 3.95215C7.82695 3.96584 7.79177 3.98146 7.75736 3.99512L10.0005 6.40137L12.2476 3.99512C12.2131 3.98147 12.1771 3.96588 12.1411 3.95215C11.5243 3.71743 10.7455 3.50118 10.0005 3.50098Z" fill="#000000"/>
</svg>
