<svg xmlns="http://www.w3.org/2000/svg" width="24" height="24" viewBox="0 0 24 24" fill="none"><rect width="24" height="24" fill="none"/>
<path d="M21.707 20.293L20.293 21.707L18.3887 19.8027C17.9478 19.9303 17.4821 20 17 20H7.5C4.46243 20 2 17.5376 2 14.5C2 11.9623 3.71884 9.82678 6.05566 9.19238C6.11973 8.71636 6.2424 8.2591 6.41113 7.8252L2.29297 3.70703L3.70703 2.29297L21.707 20.293ZM8.03906 9.45312C8.01455 9.632 8 9.81438 8 10V11H7.5C5.567 11 4 12.567 4 14.5C4 16.433 5.567 18 7.5 18H16.5859L8.03906 9.45312Z" fill="#000000"/>
<path d="M12 4C15.3137 4 18 6.68629 18 10V10.0996C20.2823 10.5628 22 12.581 22 15C22 15.8887 21.7659 16.7221 21.3594 17.4453L19.8486 15.9346C19.9451 15.6402 20 15.3266 20 15C20 13.3431 18.6569 12 17 12H16V10C16 7.79086 14.2091 6 12 6C11.3901 6 10.8122 6.13674 10.2949 6.38086L8.82422 4.91016C9.7452 4.33397 10.8333 4 12 4Z" fill="#000000"/>
</svg>
