<svg xmlns="http://www.w3.org/2000/svg" width="24" height="24" viewBox="0 0 24 24" fill="none"><rect width="24" height="24" fill="none"/>
<path d="M13.001 2C15.2099 2.00026 17.001 3.79102 17.001 6H15.001C15.001 4.89559 14.1053 4.00026 13.001 4H7C5.89543 4 5 4.89543 5 6V18C5 19.1046 5.89543 20 7 20H12V22H7C4.79086 22 3 20.2091 3 18V6C3 3.79086 4.79086 2 7 2H13.001Z" fill="#000000"/>
<path d="M15.5 8C19.4441 8 21.9999 11.0052 22 14.3682C22 16.3921 21.1159 18.2759 19.9199 19.6445C18.7456 20.9882 17.1188 22 15.5 22C14.9477 22 14.5 21.5523 14.5 21V19.4336C11.5317 19.0447 9.00024 16.9375 9 13.7373C9 12.0487 9.64431 10.5807 10.834 9.54785C12.0103 8.52663 13.6367 8 15.5 8ZM15.5 10C14.0023 10 12.8789 10.4211 12.1455 11.0576C11.4256 11.6826 11 12.5839 11 13.7373C11.0003 15.8661 12.8767 17.5 15.5 17.5H16.5V19.7744C17.1239 19.5141 17.8013 19.0302 18.4141 18.3291C19.3568 17.2504 20 15.8178 20 14.3682C19.9999 12.0471 18.2779 10 15.5 10Z" fill="#000000"/>
<path d="M11 5C11.5523 5 12 5.44772 12 6C12 6.55228 11.5523 7 11 7H9C8.44772 7 8 6.55228 8 6C8 5.44772 8.44772 5 9 5H11Z" fill="#000000"/>
</svg>
