<svg xmlns="http://www.w3.org/2000/svg" width="20" height="20" viewBox="0 0 20 20" fill="none"><rect width="20" height="20" fill="none"/>
<path d="M10 3C13.3137 3 16 5.68629 16 9V9.17383C17.1647 9.58594 18 10.6941 18 12V14C18 15.6569 16.6569 17 15 17H13V9H14C14 6.79086 12.2091 5 10 5C7.79086 5 6 6.79086 6 9H7V17H5C3.34315 17 2 15.6569 2 14V12C2 10.6941 2.83532 9.58594 4 9.17383V9C4 5.68629 6.68629 3 10 3ZM5 11C4.44772 11 4 11.4477 4 12V14C4 14.5523 4.44772 15 5 15V11ZM15 15C15.5523 15 16 14.5523 16 14V12C16 11.4477 15.5523 11 15 11V15Z" fill="#000000"/>
</svg>
