<svg xmlns="http://www.w3.org/2000/svg" width="20" height="20" viewBox="0 0 20 20" fill="none"><rect width="20" height="20" fill="none"/>
<path d="M19 12.5C19 12.5 19 17.5 15 19C11 17.5 11 12.5 11 12.5L15 11L19 12.5ZM12.6084 13.498C12.6706 13.8519 12.7677 14.2651 12.917 14.6943C13.2805 15.7394 13.9053 16.7541 15 17.3535C16.0947 16.7541 16.7195 15.7394 17.083 14.6943C17.2323 14.2652 17.3284 13.8519 17.3906 13.498L15 12.6016L12.6084 13.498Z" fill="#000000"/>
<path d="M11 2C12.6569 2 14 3.34315 14 5V6H15C16.6569 6 18 7.34315 18 9H16.5C16.5 8.17157 15.8284 7.5 15 7.5H5C4.17163 7.50007 3.5 8.17161 3.5 9V15C3.5 15.8284 4.17163 16.4999 5 16.5H10V18H5C3.3432 17.9999 2 16.6568 2 15V9C2 7.34319 3.3432 6.00007 5 6H6V5C6 3.34315 7.34315 2 9 2H11ZM9 3.5C8.17157 3.5 7.5 4.17157 7.5 5V6H12.5V5C12.5 4.17157 11.8284 3.5 11 3.5H9Z" fill="#000000"/>
</svg>
