<svg xmlns="http://www.w3.org/2000/svg" width="24" height="24" viewBox="0 0 24 24" fill="none"><rect width="24" height="24" fill="none"/>
<path d="M9.81225 2.33193C10.9972 1.06892 13.0031 1.06917 14.1882 2.33193L14.8474 3.03408C15.2782 3.49324 15.8428 3.80603 16.4607 3.92666L17.28 4.08584C19.075 4.43587 20.1417 6.29749 19.5369 8.02334L19.3679 8.50772L19.2937 8.75088C19.146 9.32384 19.171 9.93011 19.3679 10.4921L19.5369 10.9765C20.1166 12.6306 19.1606 14.4081 17.4998 14.8612V20.9999C17.4997 21.3213 17.3455 21.6235 17.0847 21.8114C16.824 21.9991 16.4881 22.0497 16.1833 21.9481L11.9998 20.5536L7.81616 21.9481C7.51138 22.0495 7.17537 21.9992 6.91479 21.8114C6.65442 21.6234 6.49976 21.3211 6.49975 20.9999V14.8612C4.83988 14.4073 3.88315 12.6301 4.46264 10.9765L4.63256 10.4921C4.82954 9.93002 4.85455 9.32394 4.70678 8.75088L4.63256 8.50772L4.46264 8.02334C3.87698 6.35175 4.86013 4.55231 6.55346 4.12295L6.72046 4.08584L7.53979 3.92666C8.15785 3.80612 8.72219 3.49327 9.15307 3.03408L9.81225 2.33193ZM8.49975 19.6122L11.6833 18.5517L11.8396 18.5126C11.9981 18.4869 12.1623 18.5005 12.3162 18.5517L15.4998 19.6122V15.4433C15.2609 15.5859 15.0401 15.7604 14.8474 15.9657L14.1882 16.6679L14.0749 16.7831C12.8788 17.9301 10.9602 17.8915 9.81225 16.6679L9.15307 15.9657C8.95976 15.7597 8.73957 15.5831 8.49975 15.4403V19.6122ZM12.7292 3.7001C12.3342 3.27975 11.6661 3.27954 11.2712 3.7001L10.6121 4.40322C9.89391 5.16854 8.9527 5.68865 7.9226 5.88955L7.10327 6.04873C6.50543 6.16563 6.14916 6.78625 6.35034 7.36123L6.52026 7.84561C6.8955 8.9162 6.89547 10.0836 6.52026 11.1542L6.35034 11.6386C6.14901 12.2136 6.5054 12.8341 7.10327 12.9511L7.9226 13.1103C8.95261 13.3111 9.89393 13.8314 10.6121 14.5966L11.2712 15.2997C11.6662 15.7203 12.3343 15.7202 12.7292 15.2997L13.3884 14.5966C14.1065 13.8313 15.0479 13.3112 16.0779 13.1103L16.8972 12.9511C17.4955 12.8344 17.8516 12.2138 17.6501 11.6386L17.4802 11.1542C17.1051 10.0837 17.1051 8.91609 17.4802 7.84561L17.6501 7.36123C17.8515 6.78603 17.4954 6.16539 16.8972 6.04873L16.0779 5.88955C15.0479 5.68857 14.1065 5.16849 13.3884 4.40322L12.7292 3.7001Z" fill="#000000"/>
</svg>
