<svg xmlns="http://www.w3.org/2000/svg" width="20" height="20" viewBox="0 0 20 20" fill="none"><rect width="20" height="20" fill="none"/>
<path d="M7.0654 7.90723C8.5107 7.31654 11.4908 7.31481 12.9355 7.90723L13.4248 8.11133C13.5818 8.1794 13.7322 8.24845 13.872 8.31836C14.106 8.43535 14.3298 8.56986 14.54 8.71973C14.6471 8.79612 14.7502 8.87768 14.8506 8.96191C15.4534 9.46785 15.93 10.1107 16.2392 10.8398C16.3185 11.027 16.3878 11.2194 16.4443 11.417L16.8691 12.9014C17.5988 15.4564 15.6796 17.9998 13.0224 18H6.97751C4.32009 18 2.40101 15.4565 3.13083 12.9014L3.55563 11.417C3.88503 10.2644 4.6156 9.27542 5.60446 8.62109C5.69926 8.55837 5.79605 8.49781 5.89547 8.44141L6.12692 8.31836L6.13766 8.3125C6.27406 8.24469 6.42095 8.17853 6.57419 8.1123L7.0654 7.90723ZM9.99997 10C9.17154 10 8.49997 10.6716 8.49997 11.5C8.49997 12.3284 9.17154 13 9.99997 13C10.8284 13 11.5 12.3284 11.5 11.5C11.5 10.6716 10.8284 10 9.99997 10Z" fill="#000000"/>
<path d="M10.0048 2C11.0522 2.00006 12.0576 2.29529 12.7675 2.56543C13.1295 2.70317 13.4321 2.84095 13.6455 2.94531C13.7522 2.99749 13.8379 3.042 13.8984 3.07422C13.9286 3.09028 13.9532 3.10365 13.9707 3.11328C13.9793 3.11806 13.9868 3.122 13.9922 3.125C13.9947 3.12646 13.9972 3.1279 13.999 3.12891L14.0009 3.13086H14.0029C14.0029 3.13086 13.9934 3.14878 13.5078 4L14.0029 3.13086C14.2736 3.28542 14.4576 3.55821 14.499 3.86719C14.5403 4.17598 14.435 4.48667 14.2148 4.70703L12.667 6.25195C11.8315 6.04632 10.8766 5.9627 9.99997 5.96289C9.12596 5.96314 8.17611 6.04742 7.34372 6.25098L5.80075 4.70703C5.58058 4.48669 5.47527 4.17592 5.51657 3.86719C5.55793 3.55861 5.74052 3.28653 6.01071 3.13184L6.01266 3.13086L6.01559 3.12988L6.04294 3.11426C6.06039 3.10459 6.0851 3.09127 6.1152 3.0752C6.17565 3.04291 6.26147 2.9986 6.36813 2.94629C6.58112 2.84183 6.88275 2.70324 7.24411 2.56543C7.95307 2.29511 8.95731 2 10.0048 2Z" fill="#000000"/>
</svg>
