<svg xmlns="http://www.w3.org/2000/svg" width="24" height="24" viewBox="0 0 24 24" fill="none"><rect width="24" height="24" fill="none"/>
<path d="M12 2C16.0057 2 20 5.4023 20 10C20 10.6842 19.9185 11.3522 19.7754 12H17.7148C17.8964 11.346 18 10.6768 18 10C18 6.5977 14.9943 4 12 4C9.00575 4 6 6.5977 6 10C6 12.6302 7.5513 15.1471 9.25293 17.0918C10.0886 18.0468 10.9266 18.8262 11.5566 19.3662C11.7199 19.5061 11.8695 19.6285 12 19.7344V22C11.7964 22 11.5928 21.9377 11.4189 21.8135L12 21C11.4188 21.8137 11.4189 21.8135 11.4189 21.8135L11.418 21.8125L11.416 21.8115C11.416 21.8115 11.4124 21.8092 11.4102 21.8076C11.4056 21.8043 11.3994 21.7996 11.3916 21.7939C11.3759 21.7825 11.3534 21.7661 11.3252 21.7451C11.2687 21.7031 11.1874 21.6421 11.0859 21.5635C10.8832 21.4062 10.5976 21.1767 10.2559 20.8838C9.57347 20.2989 8.66127 19.453 7.74707 18.4082C5.94878 16.3529 4 13.3697 4 10C4 5.4023 7.99425 2 12 2Z" fill="#000000"/>
<path d="M19 17H22V19H19V22H17V19H14V17H17V14H19V17Z" fill="#000000"/>
<path d="M12 6.5C13.933 6.5 15.5 8.067 15.5 10C15.5 11.933 13.933 13.5 12 13.5C10.067 13.5 8.5 11.933 8.5 10C8.5 8.067 10.067 6.5 12 6.5ZM12 8.5C11.1716 8.5 10.5 9.17157 10.5 10C10.5 10.8284 11.1716 11.5 12 11.5C12.8284 11.5 13.5 10.8284 13.5 10C13.5 9.17157 12.8284 8.5 12 8.5Z" fill="#000000"/>
</svg>
