<svg xmlns="http://www.w3.org/2000/svg" width="24" height="24" viewBox="0 0 24 24" fill="none"><rect width="24" height="24" fill="none"/>
<path d="M17 17H7V15H17V17Z" fill="#000000"/>
<path d="M17.6641 8.24707L12.46 12.874L10.4473 10.8613L7.65039 13.2588L6.34961 11.7412L10.5527 8.1377L12.54 10.126L16.3359 6.75293L17.6641 8.24707Z" fill="#000000"/>
<path d="M17 3C19.2091 3 21 4.79086 21 7V17C21 19.2091 19.2091 21 17 21H7C4.79086 21 3 19.2091 3 17V7C3 4.79086 4.79086 3 7 3H17ZM7 5C5.89543 5 5 5.89543 5 7V17C5 18.1046 5.89543 19 7 19H17C18.1046 19 19 18.1046 19 17V7C19 5.89543 18.1046 5 17 5H7Z" fill="#000000"/>
</svg>
