<svg xmlns="http://www.w3.org/2000/svg" width="24" height="24" viewBox="0 0 24 24" fill="none"><rect width="24" height="24" fill="none"/>
<g clip-path="url(#clip0_156737_19493)">
<path d="M16.5703 5.00049C18.1853 5.00057 19.5105 6.27913 19.5684 7.89307L20.0361 21.0005H18V23.0005H16V21.0005H8V23.0005H6V21.0005H3.96387L4.43164 7.89307C4.48946 6.27913 5.81469 5.00057 7.42969 5.00049H16.5703ZM7 17.0005C6.44772 17.0005 6 17.4482 6 18.0005C6.00026 18.5525 6.44788 19.0005 7 19.0005H8C8.55212 19.0005 8.99974 18.5525 9 18.0005C9 17.4482 8.55228 17.0005 8 17.0005H7ZM16 17.0005C15.4477 17.0005 15 17.4482 15 18.0005C15.0003 18.5525 15.4479 19.0005 16 19.0005H17C17.5521 19.0005 17.9997 18.5525 18 18.0005C18 17.4482 17.5523 17.0005 17 17.0005H16ZM7.42969 7.00049C6.89151 7.00057 6.45011 7.42657 6.43066 7.96436L6.28613 12.0005H17.7139L17.5693 7.96436C17.5499 7.42657 17.1085 7.00057 16.5703 7.00049H7.42969Z" fill="#000000"/>
<path d="M10.2949 2.99951H8L9.6875 -0.000488281H11.9814L10.2949 2.99951Z" fill="#000000"/>
<path d="M15.3027 2.99951H13.0049L14.7002 -0.000488281H16.998L15.3027 2.99951Z" fill="#000000"/>
</g>
<defs>
<clipPath id="clip0_156737_19493">
<rect width="24" height="24" fill="white"/>
</clipPath>
</defs>
</svg>
