<svg xmlns="http://www.w3.org/2000/svg" width="24" height="24" viewBox="0 0 24 24" fill="none"><rect width="24" height="24" fill="none"/>
<path d="M1 21H3L8.25 3H6.25L1 21Z" fill="#000000"/>
<path d="M13.5 21H11.5L6.25 3H8.25L13.5 21Z" fill="#000000"/>
<path d="M4 14H11V16H4V14Z" fill="#000000"/>
<path fill-rule="evenodd" clip-rule="evenodd" d="M23 21H21V19.1743C20.3101 20.1732 19.3341 21 18.0279 21C16.0023 21 14.5 19.7778 14.5 17.836C14.5 15.9337 15.8763 14.6744 18.309 14.5265L21.1095 14.3393L21.1096 13.5385C21.1096 12.2276 20.2508 11.7424 18.9418 11.7424C18.2399 11.7424 17.6167 11.8809 17.2074 12.2488C16.9455 12.4842 16.8276 12.7772 16.7713 13.1227H14.8883L14.9168 12.8289C15.1397 11.1237 16.7873 10 19.0165 10C21.5655 10 23 11.3307 23 13.5386V21ZM18.5 19C17 19 16.3835 18.5258 16.3835 17.7425C16.3835 16.8408 16.923 16.3319 18.5125 16.2235L21.1095 16.0362V16.5817C21.1095 18.0997 20 19 18.5 19Z" fill="#000000"/>
</svg>
