<svg xmlns="http://www.w3.org/2000/svg" width="20" height="20" viewBox="0 0 20 20" fill="none"><rect width="20" height="20" fill="none"/>
<path d="M13.707 8.70703L9.70703 12.707L8.29297 11.293L12.293 7.29297L13.707 8.70703Z" fill="#000000"/>
<path d="M10 3C14.4183 3 18 6.58172 18 11C18 13.3901 16.9507 15.5341 15.2891 17H4.71094C3.04925 15.5341 2 13.3901 2 11C2 6.58172 5.58172 3 10 3ZM10 5C6.68629 5 4 7.68629 4 11C4 12.5371 4.57882 13.9384 5.5293 15H14.4707C15.4212 13.9384 16 12.5371 16 11C16 7.68629 13.3137 5 10 5Z" fill="#000000"/>
</svg>
