<svg xmlns="http://www.w3.org/2000/svg" width="20" height="20" viewBox="0 0 20 20" fill="none"><rect width="20" height="20" fill="none"/>
<path d="M18.9805 17.4238L18.0195 18.5762L15.5 16.4766L12.9805 18.5762L12.0195 17.4238L15.5 14.5234L18.9805 17.4238Z" fill="#000000"/>
<path d="M18 9H16.5V8L14 5.5H3.5V12L6 14.5H10V16H2V4H18V9Z" fill="#000000"/>
<path d="M18.9805 13.4238L18.0195 14.5762L15.5 12.4766L12.9805 14.5762L12.0195 13.4238L15.5 10.5234L18.9805 13.4238Z" fill="#000000"/>
<path d="M10 8C11.1046 8 12 8.89543 12 10C12 11.1046 11.1046 12 10 12C8.89543 12 8 11.1046 8 10C8 8.89543 8.89543 8 10 8Z" fill="#000000"/>
</svg>
