<svg xmlns="http://www.w3.org/2000/svg" width="20" height="20" viewBox="0 0 20 20" fill="none"><rect width="20" height="20" fill="none"/>
<path d="M10 2C14.4183 2 18 5.58172 18 10C18 14.4183 14.4183 18 10 18C5.58172 18 2 14.4183 2 10C2 5.58172 5.58172 2 10 2ZM9 4.08398C6.16237 4.56013 4 7.02706 4 10C4 13.3137 6.68629 16 10 16C10.7451 16 11.4579 15.8625 12.1162 15.6143L9.13574 10.5039L9 10.2705V4.08398ZM13.8438 14.6045C14.9182 13.7066 15.6732 12.4411 15.915 11H11.7412L13.8438 14.6045ZM11 9H15.915C15.4934 6.48771 13.5123 4.50554 11 4.08398V9Z" fill="#000000"/>
</svg>
