<svg xmlns="http://www.w3.org/2000/svg" width="24" height="24" viewBox="0 0 24 24" fill="none"><rect width="24" height="24" fill="none"/>
<path d="M6.63875 2.99183C7.95461 2.61587 9.37331 2.93884 10.3966 3.84827L15.6827 8.54847L16.2042 8.40003C18.4087 7.77062 20.7831 8.23091 22.5928 9.63831L22.7257 9.74964C24.0375 10.9323 23.5113 13.1492 21.7501 13.5797L16.713 14.8102L14.5977 19.0416C14.0107 20.2155 12.8843 21.0269 11.585 21.2125L9.64168 21.4908C9.33757 21.5343 9.02952 21.4348 8.80769 21.2223C8.58624 21.0097 8.4745 20.7065 8.50496 20.401L8.87215 16.7262L5.3282 17.5934C2.92198 18.1809 0.681556 16.1503 1.03132 13.6979L1.39656 11.1432L1.43855 10.945C1.68928 10.0501 2.70447 9.59652 3.53816 10.0055L3.71394 10.1071L5.66902 11.4108L8.0655 10.7242L4.25398 5.1803L4.25105 5.17737C3.82598 4.55305 4.14405 3.70671 4.85554 3.50061L4.85847 3.49964L6.63875 2.99183ZM10.9327 16.2233L10.6221 19.3307L11.3028 19.233C11.9523 19.1401 12.5152 18.7339 12.8087 18.1471L14.1651 15.4332L10.9327 16.2233ZM9.06746 5.34241C8.55615 4.88816 7.84668 4.72668 7.18855 4.91468L6.6114 5.07972L10.4444 10.6549C10.4444 10.6549 10.447 10.6578 10.4522 10.6647C10.4554 10.6689 10.459 10.6738 10.4639 10.6803C10.4686 10.6864 10.476 10.6951 10.4825 10.7037C10.6796 10.9669 10.7337 11.311 10.629 11.6227C10.524 11.9344 10.2724 12.1749 9.95613 12.2653L5.77449 13.4606C5.49245 13.5412 5.18948 13.4934 4.94539 13.3307L3.26375 12.2106L3.01179 13.9801C2.86188 15.0309 3.82212 15.9019 4.85359 15.65L21.2755 11.6364C21.4439 11.5949 21.5069 11.3985 21.4151 11.2682L21.3653 11.2174C20.0589 10.2014 18.3453 9.86938 16.754 10.3239L15.7032 10.6237C15.3746 10.7171 15.0211 10.6357 14.7657 10.4088L9.06746 5.34241Z" fill="#000000"/>
</svg>
