<svg xmlns="http://www.w3.org/2000/svg" width="20" height="20" viewBox="0 0 20 20" fill="none"><rect width="20" height="20" fill="none"/>
<path d="M18.5303 17.4697L17.4697 18.5303L13.7832 14.8438C12.7657 15.3843 11.5166 15.75 10 15.75C7.041 15.75 5.09646 14.364 3.91211 12.9893C3.32463 12.3073 2.92205 11.6276 2.66602 11.1182C2.53762 10.8627 2.44544 10.6473 2.38379 10.4932C2.35297 10.4161 2.32947 10.3541 2.31348 10.3096C2.30548 10.2873 2.29943 10.2691 2.29492 10.2559C2.29269 10.2493 2.29046 10.2435 2.28906 10.2393C2.28843 10.2374 2.28711 10.2344 2.28711 10.2344V10.2324L2.28613 10.2314L3 10L2.28613 9.76855L2.28711 9.76758V9.76562C2.28711 9.76562 2.28843 9.76264 2.28906 9.76074C2.29046 9.75652 2.29269 9.75069 2.29492 9.74414C2.29943 9.73089 2.30548 9.7127 2.31348 9.69043C2.32947 9.64588 2.35297 9.5839 2.38379 9.50684C2.44544 9.35272 2.53762 9.13734 2.66602 8.88184C2.92205 8.37238 3.32463 7.69273 3.91211 7.01074C4.2072 6.66822 4.55049 6.32645 4.94434 6.00488L1.46973 2.53027L2.53027 1.46973L18.5303 17.4697ZM6.00879 7.06934C5.63843 7.35879 5.32067 7.67374 5.04883 7.98926C4.55963 8.55709 4.22189 9.12775 4.00684 9.55566C3.91747 9.73349 3.85031 9.88534 3.80273 10C3.85031 10.1147 3.91747 10.2665 4.00684 10.4443C4.22189 10.8723 4.55963 11.4429 5.04883 12.0107C6.01829 13.136 7.5746 14.25 10 14.25C11.0394 14.25 11.9182 14.0436 12.6602 13.7207L6.00879 7.06934Z" fill="#000000"/>
<path d="M10 4.25C12.959 4.25 14.9035 5.63605 16.0879 7.01074C16.6754 7.69273 17.0779 8.37237 17.334 8.88184C17.4624 9.13733 17.5546 9.35271 17.6162 9.50684C17.647 9.58389 17.6705 9.64587 17.6865 9.69043C17.6945 9.7127 17.7006 9.73089 17.7051 9.74414C17.7073 9.75069 17.7095 9.75652 17.7109 9.76074C17.7116 9.76264 17.7129 9.76562 17.7129 9.76562V9.76758L17.7139 9.76855L17 10L17.7139 10.2314L17.7129 10.2324V10.2344C17.7129 10.2344 17.7116 10.2374 17.7109 10.2393C17.7095 10.2435 17.7073 10.2493 17.7051 10.2559C17.7006 10.2691 17.6945 10.2873 17.6865 10.3096C17.6705 10.3541 17.647 10.4161 17.6162 10.4932C17.5546 10.6473 17.4624 10.8627 17.334 11.1182C17.0779 11.6276 16.6754 12.3073 16.0879 12.9893C16.082 12.996 16.0752 13.002 16.0693 13.0088L15.0049 11.9443C15.4644 11.3982 15.7863 10.8559 15.9932 10.4443C16.0824 10.2667 16.1487 10.1146 16.1963 10C16.1487 9.88537 16.0824 9.73331 15.9932 9.55566C15.7781 9.12774 15.4404 8.55709 14.9512 7.98926C13.9817 6.86403 12.4254 5.75 10 5.75C9.60955 5.75001 9.24208 5.78182 8.89551 5.83496L7.63867 4.57812C8.34189 4.3725 9.12649 4.25001 10 4.25Z" fill="#000000"/>
<path d="M3 10L2.28613 10.2314C2.23779 10.0817 2.23779 9.91834 2.28613 9.76855L3 10Z" fill="#000000"/>
<path d="M17.7139 9.76855C17.7622 9.91836 17.7622 10.0816 17.7139 10.2314L17 10L17.7139 9.76855Z" fill="#000000"/>
</svg>
