<svg xmlns="http://www.w3.org/2000/svg" width="24" height="24" viewBox="0 0 24 24" fill="none"><rect width="24" height="24" fill="none"/>
<path d="M13 4.04004C14.2536 4.14441 15.3655 4.45873 16.2334 5.04785C17.3829 5.82812 18 7.02169 18 8.5H16C16 7.645 15.6796 7.08855 15.1104 6.70215C14.4841 6.27708 13.4631 6 12 6C10.5369 6 9.5159 6.27708 8.88965 6.70215C8.3204 7.08855 8 7.645 8 8.5C8 8.89123 8.10063 9.16285 8.25 9.37695C8.40842 9.60401 8.66133 9.8216 9.04102 10.0283C9.8347 10.4603 10.9368 10.7252 12.2275 11.0264C13.4365 11.3085 14.8348 11.6272 15.916 12.2158C16.4737 12.5195 17.0023 12.9219 17.3906 13.4785C17.7881 14.0483 18 14.7246 18 15.5C18 17.7815 15.9037 19.5984 13 19.9404V22H11V19.959C9.74639 19.8546 8.63448 19.5413 7.7666 18.9521C6.61713 18.1719 6 16.9783 6 15.5H8C8 16.355 8.3204 16.9115 8.88965 17.2979C9.5159 17.7229 10.5369 18 12 18C14.8399 18 16 16.464 16 15.5C16 15.1088 15.8994 14.8371 15.75 14.623C15.5916 14.396 15.3387 14.1784 14.959 13.9717C14.1653 13.5397 13.0632 13.2748 11.7725 12.9736C10.5635 12.6915 9.16517 12.3728 8.08398 11.7842C7.52634 11.4805 6.99774 11.0781 6.60938 10.5215C6.21189 9.95174 6 9.27542 6 8.5C6 7.02169 6.61713 5.82812 7.7666 5.04785C8.6345 4.45873 9.74635 4.14441 11 4.04004V2H13V4.04004Z" fill="#000000"/>
</svg>
