<svg xmlns="http://www.w3.org/2000/svg" width="24" height="24" viewBox="0 0 24 24" fill="none"><rect width="24" height="24" fill="none"/>
<path d="M15 4H20V9L23 12H20.1719L18 9.82812V6H14.1719L12 3.82812L9.82812 6H6V9.82812L3.82812 12L6 14.1719V18H9.82812L12 20.1719V23L9 20H4V15L1 12L4 9V4H9L12 1L15 4Z" fill="#000000"/>
<path d="M19 18H20.5L20.5674 18.0049C20.7223 18.026 20.8604 18.1188 20.9375 18.2578C21.0254 18.4167 21.02 18.6106 20.9238 18.7646L18.4238 22.7646C18.3325 22.9108 18.1723 23 18 23C17.8277 23 17.6675 22.9108 17.5762 22.7646L15.0762 18.7646C14.98 18.6106 14.9746 18.4167 15.0625 18.2578C15.1506 18.0989 15.3183 18 15.5 18H17V14H19V18Z" fill="#000000"/>
<path d="M16.207 10.207L11 15.4141L7.79297 12.207L9.20703 10.793L11 12.5859L14.793 8.79297L16.207 10.207Z" fill="#000000"/>
</svg>
