<svg xmlns="http://www.w3.org/2000/svg" width="20" height="20" viewBox="0 0 20 20" fill="none"><rect width="20" height="20" fill="none"/>
<path d="M9.12878 3.11242C9.53832 2.49878 10.4592 2.49919 10.869 3.11242L10.9491 3.25402L12.7089 6.98547L16.7616 7.66418C17.6561 7.81389 17.9532 8.95097 17.246 9.51867L14.2284 11.9386L14.9969 16.1349C15.1666 17.0632 14.12 17.727 13.3524 17.1779L9.9989 14.7775L6.64538 17.1779C5.87783 17.7267 4.8321 17.0632 5.00183 16.1349L5.76843 11.9386L2.7528 9.51867C2.04619 8.95095 2.34215 7.81414 3.2362 7.66418L7.28796 6.98547L9.04968 3.25402L9.12878 3.11242ZM8.58874 7.74426C8.41394 8.1146 8.0688 8.37579 7.66491 8.44348L4.47448 8.97668L6.82409 10.8624C7.18185 11.1497 7.35358 11.6103 7.27136 12.0616L6.67663 15.3097L9.27136 13.4542L9.35534 13.3995C9.75111 13.1615 10.2477 13.1616 10.6434 13.3995L10.7264 13.4542L13.3212 15.3107L12.7264 12.0616C12.6443 11.6103 12.8168 11.1496 13.1747 10.8624L15.5233 8.97765L12.3329 8.44348C11.9292 8.37565 11.5838 8.11445 11.4091 7.74426L9.9989 4.75598L8.58874 7.74426Z" fill="#000000"/>
</svg>
