<svg xmlns="http://www.w3.org/2000/svg" width="20" height="20" viewBox="0 0 20 20" fill="none"><rect width="20" height="20" fill="none"/>
<path d="M19.0303 12.0303L12.0303 19.0303L10.9697 17.9697L17.9697 10.9697L19.0303 12.0303Z" fill="#000000"/>
<path d="M17.5 16C18.3284 16 19 16.6716 19 17.5C19 18.3284 18.3284 19 17.5 19C16.6716 19 16 18.3284 16 17.5C16 16.6716 16.6716 16 17.5 16Z" fill="#000000"/>
<path d="M8.7002 1.9502C10.2189 1.9503 11.4502 3.18148 11.4502 4.7002V5.9502H13.2998C14.8186 5.9502 16.0498 7.18141 16.0498 8.7002V9H14.5498V8.7002C14.5498 8.00984 13.9902 7.4502 13.2998 7.4502H9.9502V4.7002C9.9502 4.00991 9.39046 3.4503 8.7002 3.4502H5.4502V16.5498H9V18.0498H3.9502V1.9502H8.7002Z" fill="#000000"/>
<path d="M12.5 11C13.3284 11 14 11.6716 14 12.5C14 13.3284 13.3284 14 12.5 14C11.6716 14 11 13.3284 11 12.5C11 11.6716 11.6716 11 12.5 11Z" fill="#000000"/>
</svg>
