<svg xmlns="http://www.w3.org/2000/svg" width="20" height="20" viewBox="0 0 20 20" fill="none"><rect width="20" height="20" fill="none"/>
<path d="M13 14.5H7V13H13V14.5Z" fill="#000000"/>
<path d="M11 2C12.6569 2 14 3.34315 14 5V6H15C16.6569 6 18 7.34315 18 9V15C18 16.6569 16.6569 18 15 18H5C3.34315 18 2 16.6569 2 15V9C2 7.34315 3.34315 6 5 6H6V5C6 3.34315 7.34315 2 9 2H11ZM5 7.5C4.17157 7.5 3.5 8.17157 3.5 9V15C3.5 15.8284 4.17157 16.5 5 16.5H15C15.8284 16.5 16.5 15.8284 16.5 15V9C16.5 8.17157 15.8284 7.5 15 7.5H5ZM9 3.5C8.17157 3.5 7.5 4.17157 7.5 5V6H12.5V5C12.5 4.17157 11.8284 3.5 11 3.5H9Z" fill="#000000"/>
</svg>
