<svg xmlns="http://www.w3.org/2000/svg" width="20" height="20" viewBox="0 0 20 20" fill="none"><rect width="20" height="20" fill="none"/>
<path d="M15.2998 1.9502C16.8186 1.9502 18.0498 3.18141 18.0498 4.7002V15.2998C18.0498 16.8186 16.8186 18.0498 15.2998 18.0498H4.7002C3.18141 18.0498 1.9502 16.8186 1.9502 15.2998V4.7002C1.9502 3.18141 3.18141 1.9502 4.7002 1.9502H15.2998ZM9.21191 14.7373C9.11402 15.031 8.84533 15.2341 8.53613 15.249C8.22694 15.2639 7.94017 15.0876 7.81445 14.8047L6.0127 10.75H3.4502V15.2998C3.4502 15.9902 4.00984 16.5498 4.7002 16.5498H15.2998C15.9902 16.5498 16.5498 15.9902 16.5498 15.2998V10.75H13.5C13.2036 10.75 12.9348 10.5755 12.8145 10.3047L11.5996 7.57227L9.21191 14.7373ZM4.7002 3.4502C4.00984 3.4502 3.4502 4.00984 3.4502 4.7002V9.25H6.5C6.79639 9.25 7.06517 9.42447 7.18555 9.69531L8.39941 12.4268L10.7881 5.2627L10.833 5.15723C10.9542 4.92133 11.1933 4.76404 11.4639 4.75098C11.7731 4.73606 12.0598 4.91244 12.1855 5.19531L13.9873 9.25H16.5498V4.7002C16.5498 4.00984 15.9902 3.4502 15.2998 3.4502H4.7002Z" fill="#000000"/>
</svg>
