<svg xmlns="http://www.w3.org/2000/svg" width="20" height="20" viewBox="0 0 20 20" fill="none"><rect width="20" height="20" fill="none"/>
<path d="M4 14.75C4 15.4404 4.55964 16 5.25 16H7V17.5H5.25C3.73122 17.5 2.5 16.2688 2.5 14.75V13H4V14.75Z" fill="#000000"/>
<path d="M17.5 14.75C17.5 16.2688 16.2688 17.5 14.75 17.5H13V16H14.75C15.4404 16 16 15.4404 16 14.75V13H17.5V14.75Z" fill="#000000"/>
<path d="M13.5303 7.53027L7.53027 13.5303L6.46973 12.4697L12.4697 6.46973L13.5303 7.53027Z" fill="#000000"/>
<path d="M12.25 11C12.9403 11 13.5 11.5597 13.5 12.25C13.5 12.9404 12.9404 13.5 12.25 13.5C11.5597 13.5 11 12.9403 11 12.25C11 11.5597 11.5597 11 12.25 11Z" fill="#000000"/>
<path d="M7.75 6.5C8.44033 6.50001 8.99997 7.05968 9 7.75C9 8.44035 8.44035 8.99999 7.75 9C7.05964 9 6.5 8.44036 6.5 7.75C6.50003 7.05967 7.05966 6.5 7.75 6.5Z" fill="#000000"/>
<path d="M7 4H5.25C4.55964 4 4 4.55964 4 5.25V7H2.5V5.25C2.5 3.73122 3.73122 2.5 5.25 2.5H7V4Z" fill="#000000"/>
<path d="M14.75 2.5C16.2688 2.5 17.5 3.73122 17.5 5.25V7H16V5.25C16 4.55964 15.4404 4 14.75 4H13V2.5H14.75Z" fill="#000000"/>
</svg>
