<svg xmlns="http://www.w3.org/2000/svg" width="24" height="24" viewBox="0 0 24 24" fill="none"><rect width="24" height="24" fill="none"/>
<path d="M12.0015 15C12.1641 15.0004 12.3174 15.0798 12.4107 15.2129L15.9097 20.2129C16.0161 20.3654 16.0296 20.5655 15.9439 20.7305C15.8579 20.8954 15.6866 20.9997 15.5006 21H8.50056C8.31446 20.9999 8.14339 20.8954 8.0572 20.7305C7.97134 20.5652 7.98466 20.3655 8.09138 20.2129L11.5914 15.2129L11.6724 15.123C11.7624 15.0447 11.8796 15 12.0015 15Z" fill="#000000"/>
<path d="M15.5006 3C15.6865 3.00039 15.8579 3.10464 15.9439 3.26953C16.0295 3.43449 16.016 3.63467 15.9097 3.78711L12.4097 8.78711L12.3287 8.87695C12.2389 8.95523 12.1213 8.99975 11.9996 9C11.8369 8.99984 11.6839 8.92025 11.5904 8.78711L8.09138 3.78711C7.98469 3.6345 7.97132 3.43475 8.0572 3.26953C8.14344 3.10464 8.31443 3 8.50056 3H15.5006Z" fill="#000000"/>
</svg>
