<svg xmlns="http://www.w3.org/2000/svg" width="24" height="24" viewBox="0 0 24 24" fill="none"><rect width="24" height="24" fill="none"/>
<path d="M5.30176 6.00001C6.70668 6.00013 8.00861 6.73768 8.73145 7.9424L12.9834 15.0293C13.3448 15.6315 13.9959 15.9999 14.6982 16H16V14C16 13.8199 16.0972 13.6532 16.2539 13.5645C16.4105 13.476 16.6025 13.4789 16.7568 13.5713L21.7568 16.5713C21.9074 16.6617 22 16.8244 22 17C22 17.1538 21.9292 17.2975 21.8105 17.3916L21.7568 17.4287L16.7568 20.4287C16.6025 20.5212 16.4105 20.524 16.2539 20.4356C16.0972 20.3468 16 20.1801 16 20V18H14.6982C13.2933 17.9999 11.9914 17.2623 11.2686 16.0576L9.99902 13.9424L8.73145 16.0576C8.0086 17.2623 6.70666 17.9999 5.30176 18H3V16H5.30176C6.00408 15.9999 6.65519 15.6315 7.0166 15.0293L8.83398 11.999L7.0166 8.97072C6.65519 8.36849 6.0041 8.00013 5.30176 8.00001H3V6.00001H5.30176Z" fill="#000000"/>
<path d="M16.2539 3.56447C16.4105 3.476 16.6025 3.47888 16.7568 3.5713L21.7568 6.5713C21.9074 6.66166 22 6.82439 22 7.00001C22 7.15379 21.9292 7.29753 21.8105 7.39162L21.7568 7.42873L16.7568 10.4287C16.6025 10.5212 16.4105 10.524 16.2539 10.4356C16.0972 10.3468 16 10.1801 16 10V8.00001H14.6982C13.9959 8.00013 13.3448 8.36849 12.9834 8.97072L12.165 10.333L10.999 8.38966L11.2686 7.9424C11.9914 6.73768 13.2933 6.00013 14.6982 6.00001H16V4.00001C16 3.81989 16.0972 3.65322 16.2539 3.56447Z" fill="#000000"/>
</svg>
