<svg xmlns="http://www.w3.org/2000/svg" width="24" height="24" viewBox="0 0 24 24" fill="none"><rect width="24" height="24" fill="none"/>
<path d="M6.90527 4.25582C8.36329 3.96695 10.3623 3.96866 12.4785 5.12203C14.0551 5.98128 15.5181 5.87823 16.6162 5.55368C17.1699 5.39001 17.625 5.17064 17.9395 4.99313C18.0958 4.90487 18.2152 4.82827 18.292 4.77633C18.3301 4.75057 18.3579 4.7314 18.374 4.71969L18.3896 4.70797C18.6909 4.47582 19.0977 4.43517 19.4395 4.6025C19.7822 4.77041 20 5.11832 20 5.49996V17.5556L19.5283 17.8486L19 17C19.5218 17.8377 19.5283 17.8486 19.5283 17.8486L19.5254 17.8515C19.5254 17.8515 19.5214 17.8533 19.5195 17.8545C19.5158 17.8567 19.511 17.8592 19.5059 17.8623C19.4951 17.8687 19.4809 17.8778 19.4639 17.8877C19.4297 17.9075 19.3827 17.9335 19.3242 17.9648C19.2065 18.0278 19.04 18.112 18.8311 18.2031C18.4142 18.3849 17.8199 18.6003 17.0947 18.7441C15.6367 19.0331 13.6377 19.0314 11.5215 17.8779C9.90465 16.9966 8.40349 16.9981 7.29492 17.2177C6.75542 17.3247 6.31109 17.4836 6 17.6172V21H4V5.4443L4.47168 5.15133L5 5.99996C4.50099 5.19871 4.47378 5.15315 4.47266 5.15035L4.47559 5.1484L4.48047 5.14547C4.48418 5.1432 4.48887 5.13986 4.49414 5.13668C4.50486 5.13023 4.51918 5.1221 4.53613 5.11227C4.57039 5.0924 4.61707 5.06554 4.67578 5.03414C4.79351 4.9712 4.96001 4.88793 5.16895 4.79684C5.58578 4.61513 6.18005 4.39954 6.90527 4.25582ZM11.5215 6.87789C9.9044 5.99656 8.40258 5.99809 7.29395 6.21774C6.75465 6.32462 6.31099 6.48375 6 6.61715V15.4892C6.27177 15.4038 6.57462 15.3214 6.90527 15.2558C8.36332 14.9668 10.3623 14.9685 12.4785 16.122C14.0955 17.0034 15.5975 17.0019 16.7061 16.7822C17.2455 16.6752 17.689 16.5153 18 16.3818V7.17868C17.7515 7.28131 17.4794 7.38421 17.1836 7.47164C15.7151 7.9057 13.678 8.05324 11.5215 6.87789Z" fill="#000000"/>
</svg>
