<svg xmlns="http://www.w3.org/2000/svg" width="20" height="20" viewBox="0 0 20 20" fill="none"><rect width="20" height="20" fill="none"/>
<path d="M19.0002 12.5C19.0021 12.5189 19.4912 17.5027 15.0002 19L14.593 18.8496C11.055 17.4065 10.9545 13.6604 10.9875 12.7178L11.0002 12.5L15.0002 11L19.0002 12.5ZM13.0568 13.8643C13.0937 14.098 13.1479 14.3495 13.2258 14.6055C13.4829 15.4501 13.9718 16.2941 15.0002 16.833C16.0284 16.294 16.5175 15.45 16.7746 14.6055C16.8524 14.3496 16.9047 14.0979 16.9416 13.8643L15.0002 13.1357L13.0568 13.8643Z" fill="#000000"/>
<path d="M17.5812 7.18652C17.9346 7.43915 18.0847 7.89196 17.9523 8.30566C17.8196 8.7192 17.4345 8.99976 17.0002 9H11.0002V11.001L9.00018 11V9H6.00018V15.001H9.00018V17.001H2.50018V15.001H4.00018V9H3.00018C2.56572 8.99997 2.18088 8.71926 2.04803 8.30566C1.91558 7.89179 2.06549 7.43912 2.41913 7.18652L10.0002 1.77148L17.5812 7.18652ZM6.1203 7H13.881L10.0002 4.22852L6.1203 7Z" fill="#000000"/>
</svg>
