<svg xmlns="http://www.w3.org/2000/svg" width="24" height="24" viewBox="0 0 24 24" fill="none"><rect width="24" height="24" fill="none"/>
<path d="M7.20664 10.2071L5.70664 11.7071C3.88843 13.5255 3.88877 16.4745 5.70664 18.2931C7.52513 20.1115 10.474 20.1114 12.2926 18.2931L13.7926 16.7931L15.2066 18.2071L13.7066 19.7071C11.107 22.3065 6.89217 22.3066 4.29258 19.7071C1.69366 17.1075 1.69332 12.8925 4.29258 10.2931L5.79258 8.79308L7.20664 10.2071Z" fill="#000000"/>
<path d="M15.2066 10.2071L10.2066 15.2071L8.79258 13.7931L13.7926 8.79308L15.2066 10.2071Z" fill="#000000"/>
<path d="M10.2926 4.29308C12.892 1.69377 17.1069 1.69418 19.7066 4.29308C22.3061 6.89278 22.3062 11.1075 19.7066 13.7071L18.2066 15.2071L16.7926 13.7931L18.2926 12.2931C20.1111 10.4745 20.111 7.52579 18.2926 5.70715C16.4739 3.88927 13.525 3.88885 11.7066 5.70715L10.2066 7.20715L8.79258 5.79308L10.2926 4.29308Z" fill="#000000"/>
</svg>
