<svg xmlns="http://www.w3.org/2000/svg" width="20" height="20" viewBox="0 0 20 20" fill="none"><rect width="20" height="20" fill="none"/>
<path d="M14.2344 3C15.7473 3 17.0233 4.12665 17.2109 5.62793L17.9922 11.876L18 11.9375V17H16V12.0615L15.2266 5.87598C15.164 5.37555 14.7387 5 14.2344 5H5.76562C5.2613 5 4.83599 5.37555 4.77344 5.87598L4 12.0615V17H2V11.9375L2.00781 11.876L2.78906 5.62793C2.97673 4.12665 4.25266 3 5.76562 3H14.2344Z" fill="#000000"/>
<path d="M14 17H9V15H14V17Z" fill="#000000"/>
<path d="M12.5947 6C13.6222 6 14.4826 6.77849 14.585 7.80078L14.8848 10.8008C15.0025 11.9782 14.0778 13 12.8945 13H7.10547C5.92222 13 4.9975 11.9782 5.11523 10.8008L5.41504 7.80078C5.51738 6.77849 6.37784 6 7.40527 6H12.5947ZM7.10547 11H12.8945L12.5947 8H7.40527L7.10547 11Z" fill="#000000"/>
</svg>
