<svg xmlns="http://www.w3.org/2000/svg" width="20" height="20" viewBox="0 0 20 20" fill="none"><rect width="20" height="20" fill="none"/>
<path d="M6.75 3.5H4.75C4.05964 3.5 3.5 4.05964 3.5 4.75V15.25C3.5 15.9404 4.05964 16.5 4.75 16.5H6.75V18H4.75C3.23122 18 2 16.7688 2 15.25V4.75C2 3.23122 3.23122 2 4.75 2H6.75V3.5Z" fill="#000000"/>
<path d="M15.25 2C16.7688 2 18 3.23122 18 4.75V15.25C18 16.7688 16.7688 18 15.25 18H13.25V16.5H15.25C15.9404 16.5 16.5 15.9404 16.5 15.25V4.75C16.5 4.05964 15.9404 3.5 15.25 3.5H13.25V2H15.25Z" fill="#000000"/>
<path d="M7.5 11C8.32843 11 9 11.6716 9 12.5C9 13.3284 8.32843 14 7.5 14C6.67157 14 6 13.3284 6 12.5C6 11.6716 6.67157 11 7.5 11Z" fill="#000000"/>
<path d="M12.5 11C13.3284 11 14 11.6716 14 12.5C14 13.3284 13.3284 14 12.5 14C11.6716 14 11 13.3284 11 12.5C11 11.6716 11.6716 11 12.5 11Z" fill="#000000"/>
</svg>
