<svg xmlns="http://www.w3.org/2000/svg" width="20" height="20" viewBox="0 0 20 20" fill="none"><rect width="20" height="20" fill="none"/>
<path d="M10 6.25C10.9946 6.25 11.9481 6.64537 12.6514 7.34863C13.3546 8.05189 13.75 9.00544 13.75 10C13.75 10.9368 13.398 11.8362 12.7695 12.5254L13.7354 17.3525C13.7915 17.6334 13.6827 17.9218 13.4551 18.0957C13.2276 18.2695 12.9212 18.2988 12.665 18.1709L10 16.8379L7.33496 18.1709C7.07883 18.2988 6.77245 18.2695 6.54492 18.0957C6.31731 17.9218 6.20848 17.6334 6.26465 17.3525L7.22949 12.5254C6.60126 11.8363 6.25 10.9366 6.25 10C6.25 9.00544 6.64537 8.05189 7.34863 7.34863C8.05189 6.64537 9.00544 6.25 10 6.25ZM11.4277 13.4668C10.9791 13.6517 10.4947 13.75 10 13.75C9.50498 13.75 9.02018 13.6519 8.57129 13.4668L8.03613 16.1436L9.66504 15.3291L9.74512 15.2949C9.93698 15.2255 10.1502 15.2368 10.335 15.3291L11.9639 16.1436L11.4277 13.4668ZM10 7.75C9.40326 7.75 8.83114 7.98722 8.40918 8.40918C7.98722 8.83114 7.75 9.40326 7.75 10C7.75 10.5967 7.98722 11.1689 8.40918 11.5908C8.83114 12.0128 9.40326 12.25 10 12.25C10.5967 12.25 11.1689 12.0128 11.5908 11.5908C12.0128 11.1689 12.25 10.5967 12.25 10C12.25 9.40326 12.0128 8.83114 11.5908 8.40918C11.1689 7.98722 10.5967 7.75 10 7.75Z" fill="#000000"/>
<path d="M15 2C16.6569 2 18 3.34315 18 5V12C18 13.6568 16.6568 15 15 15V13.5C15.8284 13.5 16.5 12.8284 16.5 12V5C16.5 4.17157 15.8284 3.5 15 3.5H5C4.17157 3.5 3.5 4.17157 3.5 5V12C3.50001 12.8284 4.17158 13.5 5 13.5V15C3.34315 15 2.00001 13.6568 2 12V5C2 3.34315 3.34315 2 5 2H15Z" fill="#000000"/>
</svg>
