<svg xmlns="http://www.w3.org/2000/svg" width="20" height="20" viewBox="0 0 20 20" fill="none"><rect width="20" height="20" fill="none"/>
<path d="M8.36328 1.88594C9.43774 1.61753 10.5623 1.61736 11.6367 1.88594L12.1816 2.02168L12.6963 2.15059L13.0098 5.43965C13.1408 6.81438 13.8455 8.07194 14.9502 8.90059L15.25 9.12422V12.9865L14.8047 13.1848C13.5091 13.7606 12.1352 14.0909 10.75 14.1789V18.0002H9.25V14.1789C7.86462 14.091 6.4911 13.7606 5.19531 13.1848L4.75 12.9875L4.74902 9.49922L4.75 9.12422L5.0498 8.89961C6.15462 8.0709 6.85926 6.81451 6.99023 5.43965L7.30371 2.15059L7.81836 2.0207L8.36328 1.88594ZM11.2725 3.34102C10.4368 3.13221 9.56218 3.13223 8.72656 3.34102L8.69531 3.3498L8.4834 5.58223C8.32455 7.24947 7.51853 8.78171 6.24902 9.85859V11.9992C8.66048 12.939 11.3375 12.9378 13.749 11.9982V9.85957C12.4798 8.78269 11.6744 7.24926 11.5156 5.58223L11.3027 3.34785L11.2725 3.34102Z" fill="#000000"/>
</svg>
