<svg xmlns="http://www.w3.org/2000/svg" width="20" height="20" viewBox="0 0 20 20" fill="none"><rect width="20" height="20" fill="none"/>
<path d="M11.0469 3.9502H15.0488C16.7049 3.9502 18.0486 5.29085 18.0488 6.94824V13.0518C18.0486 14.709 16.705 16.0498 15.0488 16.0498H11.0469V18H9.54688V2H11.0469V3.9502ZM11.0469 14.5498H15.0488C15.8776 14.5498 16.5486 13.8795 16.5488 13.0518V8.5H11.0469V14.5498ZM11.0469 7H16.5488V6.94824C16.5486 6.12067 15.8778 5.4502 15.0488 5.4502H11.0469V7Z" fill="#000000"/>
<path d="M7.99902 5.4502H4.94922C4.12079 5.4502 3.44922 6.12177 3.44922 6.9502V13.0498C3.44922 13.8782 4.12079 14.5498 4.94922 14.5498H7.99902V16.0498H4.94922C3.29237 16.0498 1.94922 14.7067 1.94922 13.0498V6.9502C1.94922 5.29334 3.29236 3.9502 4.94922 3.9502H7.99902V5.4502Z" fill="#000000"/>
</svg>
