<svg xmlns="http://www.w3.org/2000/svg" width="20" height="20" viewBox="0 0 20 20" fill="none"><rect width="20" height="20" fill="none"/>
<path d="M11 10.5H6V9H11V10.5Z" fill="#000000"/>
<path d="M13 7.5H6V6H13V7.5Z" fill="#000000"/>
<path d="M17 14.6035L10.334 17.9219C10.1017 18.0374 9.8261 18.0242 9.60547 17.8877C9.38468 17.751 9.25 17.5097 9.25 17.25V15.3496L4.08398 17.9219C3.85167 18.0374 3.5761 18.0242 3.35547 17.8877C3.13468 17.751 3 17.5097 3 17.25V2H17V14.6035ZM4.5 16.0381L9.66602 13.4678C9.89836 13.3521 10.1738 13.3645 10.3945 13.501C10.6153 13.6377 10.7499 13.8791 10.75 14.1387V16.0381L15.5 13.6748V3.5H4.5V16.0381Z" fill="#000000"/>
</svg>
