<svg xmlns="http://www.w3.org/2000/svg" width="20" height="20" viewBox="0 0 20 20" fill="none"><rect width="20" height="20" fill="none"/>
<path d="M9.99891 2C11.046 2.00007 12.0517 2.29632 12.7616 2.56641C13.1232 2.70402 13.4262 2.84197 13.6395 2.94629C13.7459 2.9983 13.832 3.04302 13.8925 3.0752C13.9223 3.09107 13.9474 3.10467 13.9647 3.11426C13.9731 3.11885 13.9809 3.12302 13.9862 3.12598C13.9885 3.12728 13.9931 3.12988 13.9931 3.12988L13.995 3.13184H13.997C13.9925 3.14015 13.9467 3.22114 13.5018 4.00098L13.997 3.13184C14.2675 3.28641 14.4516 3.5593 14.4931 3.86816C14.5341 4.17673 14.429 4.48785 14.2089 4.70801L11.6874 7.22656L13.872 8.31934C15.1253 8.94613 16.0592 10.0706 16.4442 11.418L16.8681 12.9023C17.5972 15.4571 15.6783 18.0008 13.0214 18.001H6.97645C4.31981 18.0005 2.40083 15.4569 3.12977 12.9023L3.55458 11.418C3.93954 10.0708 4.87288 8.94618 6.12587 8.31934L8.31044 7.22656L5.79481 4.70801C5.57501 4.48792 5.46971 4.17648 5.51063 3.86816C5.55194 3.55988 5.73502 3.28759 6.00477 3.13281L6.00673 3.13184L6.00966 3.13086L6.037 3.11523C6.0543 3.10565 6.07944 3.0921 6.10926 3.07617C6.16957 3.04397 6.25582 2.99945 6.36219 2.94727C6.57503 2.84289 6.87711 2.70414 7.23817 2.56641C7.94696 2.29614 8.9516 2.00015 9.99891 2ZM7.0204 10.1084C6.26876 10.4845 5.70837 11.1596 5.47743 11.9678L5.0536 13.4512C4.68939 14.7282 5.64844 16.0005 6.97645 16.001H13.0214C14.3496 16.0008 15.3085 14.7284 14.9442 13.4512L14.5204 11.9678C14.2894 11.1594 13.7293 10.4845 12.9774 10.1084L9.99891 8.61914L7.0204 10.1084ZM9.99891 4.00098C9.40747 4.00111 8.78512 4.14694 8.24403 4.33008L9.99989 6.08594L11.7567 4.33008C11.2141 4.14681 10.5906 4.00104 9.99891 4.00098Z" fill="#000000"/>
</svg>
