<svg xmlns="http://www.w3.org/2000/svg" width="20" height="20" viewBox="0 0 20 20" fill="none"><rect width="20" height="20" fill="none"/>
<path d="M15.5 12.0498C17.4052 12.0499 18.9501 13.5948 18.9502 15.5C18.9501 17.4052 17.4052 18.9501 15.5 18.9502C13.5947 18.9502 12.0499 17.4053 12.0498 15.5C12.0499 13.5947 13.5947 12.0498 15.5 12.0498ZM15.5 13.5498C14.4231 13.5498 13.5499 14.4231 13.5498 15.5C13.5499 16.5769 14.4231 17.4502 15.5 17.4502C16.5768 17.4501 17.4501 16.5768 17.4502 15.5C17.4501 14.4232 16.5768 13.5499 15.5 13.5498Z" fill="#000000"/>
<path d="M18.0498 10.001H16.5498V7.12109L10 10.8643L3.4502 7.12109V14.5498H10V16.0498H1.9502V3.9502H18.0498V10.001ZM10 9.13574L16.4502 5.4502H3.5498L10 9.13574Z" fill="#000000"/>
</svg>
