<svg xmlns="http://www.w3.org/2000/svg" width="24" height="24" viewBox="0 0 24 24" fill="none"><rect width="24" height="24" fill="none"/>
<path d="M12 2C13.6684 2 15.2401 2.4112 16.623 3.13379L15.124 4.63281C14.1642 4.22531 13.1084 4 12 4C7.58172 4 4 7.58172 4 12C4 16.4183 7.58172 20 12 20C16.4183 20 20 16.4183 20 12C20 10.8911 19.774 9.83509 19.3662 8.875L20.8652 7.37598C21.5882 8.75922 22 10.3311 22 12C22 17.5228 17.5228 22 12 22C6.47715 22 2 17.5228 2 12C2 6.47715 6.47715 2 12 2Z" fill="#000000"/>
<path d="M20.002 5.25977L13 13L11 11L18.7451 4.00195L20.002 5.25977Z" fill="#000000"/>
</svg>
