<svg xmlns="http://www.w3.org/2000/svg" width="24" height="24" viewBox="0 0 24 24" fill="none"><rect width="24" height="24" fill="none"/>
<path d="M19.9997 14C21.6566 14 22.9997 15.3431 22.9997 17C22.9997 18.6569 21.6566 20 19.9997 20H18.9997V21H20.9997V22H18.9997V23H16.9997V22H15.9997V21H16.9997V20H15.9997V18H16.9997V14H19.9997ZM18.9997 18H19.9997C20.552 18 20.9997 17.5523 20.9997 17C20.9997 16.4477 20.552 16 19.9997 16H18.9997V18Z" fill="#000000"/>
<path d="M11.9997 2C12.03 2.03014 15.0304 4.99953 20.9987 5C20.9988 6.24129 21.1683 9.02298 20.6608 12H18.6315C18.9845 10.1399 19.0312 8.32883 19.0222 6.89648C16.6311 6.64826 14.7381 5.98046 13.3552 5.28906C12.8273 5.02507 12.3755 4.75543 11.9987 4.50977C11.622 4.7553 11.1708 5.02527 10.6433 5.28906C9.26005 5.98048 7.36686 6.64847 4.97529 6.89648C4.96431 8.67242 5.0397 11.0308 5.67744 13.3428C6.52461 16.4135 8.26018 19.0547 11.9987 19.9521C12.7419 19.7739 13.4061 19.5253 13.9997 19.2197V21.415C13.3876 21.6568 12.7222 21.8555 11.9997 22L11.5388 21.8994C2.03172 19.6272 2.999 7.95305 2.99873 5C8.95111 5 11.9522 2.04713 11.9997 2Z" fill="#000000"/>
</svg>
