<svg xmlns="http://www.w3.org/2000/svg" width="20" height="20" viewBox="0 0 20 20" fill="none"><rect width="20" height="20" fill="none"/>
<path d="M18.5303 13.5303L13.5 18.5605L10.4697 15.5303L11.5303 14.4697L13.5 16.4395L17.4697 12.4697L18.5303 13.5303Z" fill="#000000"/>
<path d="M15 3C16.6565 3 17.9999 4.34196 18 5.99902V10.5H16.5V8.5H3.5V14C3.5 14.8284 4.17157 15.5 5 15.5H8.5V17H5C3.34315 17 2 15.6569 2 14V6C2 4.34315 3.34315 3 5 3H15ZM5 4.5C4.17157 4.5 3.5 5.17157 3.5 6V7H16.5V5.99902C16.4999 5.17103 15.8287 4.5 15 4.5H5Z" fill="#000000"/>
</svg>
