<svg xmlns="http://www.w3.org/2000/svg" width="24" height="24" viewBox="0 0 24 24" fill="none"><rect width="24" height="24" fill="none"/>
<path d="M22 18C19.2386 18 17 20.2386 17 23H15C15 19.134 18.134 16 22 16V18Z" fill="#000000"/>
<path d="M22 23H19C19 21.3431 20.3431 20 22 20V23Z" fill="#000000"/>
<path d="M17 3C19.2091 3 21 4.79086 21 7V14H19V7C19 5.89543 18.1046 5 17 5H7C5.89543 5 5 5.89543 5 7V17C5 18.1046 5.89543 19 7 19H13V21H7C4.79086 21 3 19.2091 3 17V7C3 4.79086 4.79086 3 7 3H17Z" fill="#000000"/>
<path d="M12 13H7V11H12V13Z" fill="#000000"/>
<path d="M16 9H7V7H16V9Z" fill="#000000"/>
</svg>
