<svg xmlns="http://www.w3.org/2000/svg" width="20" height="20" viewBox="0 0 20 20" fill="none"><rect width="20" height="20" fill="none"/>
<path d="M11 5C11.5523 5 12 5.44772 12 6C12 6.55228 11.5523 7 11 7H9C8.44772 7 8 6.55228 8 6C8 5.44772 8.44772 5 9 5H11Z" fill="#000000"/>
<path d="M13 2C14.6569 2 16 3.34315 16 5V15C16 16.6569 14.6569 18 13 18H7C5.34315 18 4 16.6569 4 15V5C4 3.34315 5.34315 2 7 2H13ZM7 4C6.44772 4 6 4.44772 6 5V15C6 15.5523 6.44772 16 7 16H13C13.5523 16 14 15.5523 14 15V5C14 4.44772 13.5523 4 13 4H7Z" fill="#000000"/>
</svg>
