<svg xmlns="http://www.w3.org/2000/svg" width="20" height="20" viewBox="0 0 20 20" fill="none"><rect width="20" height="20" fill="none"/>
<path d="M15 17.4512H5V15.9512H15V17.4512Z" fill="#000000"/>
<path d="M15 5.55078C16.5188 5.55078 17.75 6.782 17.75 8.30078V11.7012C17.7498 13.2198 16.5187 14.4512 15 14.4512H5C3.48135 14.4512 2.25021 13.2198 2.25 11.7012V8.30078C2.25 6.782 3.48122 5.55078 5 5.55078H15ZM5 7.05078C4.30965 7.05078 3.75 7.61043 3.75 8.30078V11.7012C3.75021 12.3913 4.30977 12.9512 5 12.9512H15C15.6902 12.9512 16.2498 12.3913 16.25 11.7012V8.30078C16.25 7.61043 15.6904 7.05078 15 7.05078H5Z" fill="#000000"/>
<path d="M15 4.05078H5V2.55078H15V4.05078Z" fill="#000000"/>
</svg>
