<svg xmlns="http://www.w3.org/2000/svg" width="24" height="24" viewBox="0 0 24 24" fill="none"><rect width="24" height="24" fill="none"/>
<path d="M15.0002 13H9.00024V11H15.0002V13Z" fill="#000000"/>
<path d="M19.0002 2C20.657 2.00016 22.0002 3.34325 22.0002 5V9H21.0002V21C21.0002 21.5522 20.5524 21.9999 20.0002 22H4.00024C3.44796 22 3.00024 21.5523 3.00024 21V9H2.00024V5C2.00029 3.3432 3.34345 2.00004 5.00024 2H19.0002ZM5.00024 20H19.0002V9H5.00024V20ZM5.00024 4C4.448 4.00004 4.00026 4.44775 4.00024 5V7H20.0002V5C20.0002 4.44782 19.5524 4.00016 19.0002 4H5.00024Z" fill="#000000"/>
</svg>
