<svg xmlns="http://www.w3.org/2000/svg" width="24" height="24" viewBox="0 0 24 24" fill="none"><rect width="24" height="24" fill="none"/>
<path d="M8 5.07227C6.784 5.77437 5.77437 6.784 5.07227 8C4.37012 9.21615 4 10.5957 4 12C4 13.4043 4.37012 14.7838 5.07227 16C5.77437 17.216 6.784 18.2256 8 18.9277L7 20.6602C5.47984 19.7825 4.21752 18.5202 3.33984 17C2.46216 15.4798 2 13.7554 2 12C2 10.2446 2.46216 8.52019 3.33984 7C4.21752 5.47984 5.47984 4.21752 7 3.33984L8 5.07227Z" fill="#000000"/>
<path d="M17 3.33984C18.5202 4.21752 19.7825 5.47984 20.6602 7C21.5378 8.52019 22 10.2446 22 12C22 13.7554 21.5378 15.4798 20.6602 17C19.7825 18.5202 18.5202 19.7825 17 20.6602L16 18.9277C17.216 18.2256 18.2256 17.216 18.9277 16C19.6299 14.7838 20 13.4043 20 12C20 10.5957 19.6299 9.21615 18.9277 8C18.2256 6.784 17.216 5.77437 16 5.07227L17 3.33984Z" fill="#000000"/>
<path d="M10 8.53613C9.392 8.88718 8.88718 9.392 8.53613 10C8.18506 10.6081 8 11.2979 8 12C8 12.7021 8.18506 13.3919 8.53613 14C8.88718 14.608 9.392 15.1128 10 15.4639L9 17.1963C8.08788 16.6697 7.33032 15.9121 6.80371 15C6.27712 14.0879 6 13.0532 6 12C6 10.9468 6.27712 9.9121 6.80371 9C7.33032 8.08788 8.08788 7.33032 9 6.80371L10 8.53613Z" fill="#000000"/>
<path d="M15 6.80371C15.9121 7.33032 16.6697 8.08788 17.1963 9C17.7229 9.9121 18 10.9468 18 12C18 13.0532 17.7229 14.0879 17.1963 15C16.6697 15.9121 15.9121 16.6697 15 17.1963L14 15.4639C14.608 15.1128 15.1128 14.608 15.4639 14C15.8149 13.3919 16 12.7021 16 12C16 11.2979 15.8149 10.6081 15.4639 10C15.1128 9.392 14.608 8.88718 14 8.53613L15 6.80371Z" fill="#000000"/>
<path d="M12 10C13.1046 10 14 10.8954 14 12C14 13.1046 13.1046 14 12 14C10.8954 14 10 13.1046 10 12C10 10.8954 10.8954 10 12 10Z" fill="#000000"/>
</svg>
