<svg xmlns="http://www.w3.org/2000/svg" width="24" height="24" viewBox="0 0 24 24" fill="none"><rect width="24" height="24" fill="none"/>
<path d="M14 12H8V10H14V12Z" fill="#000000"/>
<path d="M16 8H8V6H16V8Z" fill="#000000"/>
<path d="M20 17.5801L12.4961 21.8682C12.1866 22.045 11.8063 22.0441 11.498 21.8652C11.1897 21.6863 11 21.3565 11 21V18.7227L5.49609 21.8682C5.18663 22.045 4.80634 22.0441 4.49805 21.8652C4.18973 21.6863 4 21.3565 4 21V2H20V17.5801ZM6 19.2764L11.5039 16.1318C11.8134 15.955 12.1937 15.9559 12.502 16.1348C12.8103 16.3137 13 16.6435 13 17V19.2764L18 16.4189V4H6V19.2764Z" fill="#000000"/>
</svg>
