<svg xmlns="http://www.w3.org/2000/svg" width="20" height="20" viewBox="0 0 20 20" fill="none"><rect width="20" height="20" fill="none"/>
<path d="M15.5957 10.5C16.0473 10.5 16.3527 10.6388 16.5713 10.875C16.7843 11.1052 16.9063 11.4195 17.0146 11.749L19.3008 18.7002H17.4297L16.9248 17.0791H14.0674L13.5234 18.7002H11.75L14.1504 11.748C14.2647 11.4169 14.3938 11.1026 14.6123 10.873C14.836 10.6381 15.1443 10.5 15.5957 10.5ZM14.5879 15.5098H16.4287L15.5342 12.6426L14.5879 15.5098Z" fill="#000000"/>
<path d="M10.8965 5H15C16.6568 5.00001 18 6.34316 18 8H16C16 7.44773 15.5523 7.00001 15 7H10.1045L9.81543 6.72949L7.97363 5H5C4.44772 5 4 5.44772 4 6V14C4 14.5523 4.44772 15 5 15H10V17H5C3.34315 17 2 15.6569 2 14V6C2 4.34315 3.34315 3 5 3H8.76562L10.8965 5Z" fill="#000000"/>
</svg>
