<svg xmlns="http://www.w3.org/2000/svg" width="20" height="20" viewBox="0 0 20 20" fill="none"><rect width="20" height="20" fill="none"/>
<path d="M9.99996 2C10.3631 2.00003 10.6976 2.19721 10.874 2.51465L13.1484 6.60938L17.6963 7.51953C18.0577 7.59192 18.3501 7.8572 18.457 8.20996C18.5638 8.56291 18.4677 8.94626 18.207 9.20703L15.042 12.3721L15.4951 16.9004C15.5321 17.2707 15.3606 17.6314 15.0498 17.8359C14.7389 18.0404 14.3399 18.0546 14.0146 17.874L9.99996 15.6436L5.98531 17.874C5.66003 18.0547 5.26105 18.0403 4.95016 17.8359C4.63925 17.6315 4.46782 17.2707 4.50484 16.9004L4.95699 12.3721L1.79293 9.20703C1.53215 8.94625 1.43606 8.56293 1.54293 8.20996C1.64985 7.85719 1.94222 7.59189 2.30367 7.51953L6.85055 6.60938L9.12594 2.51465L9.19918 2.40137C9.38634 2.15095 9.68215 2 9.99996 2Z" fill="#000000"/>
</svg>
