<svg xmlns="http://www.w3.org/2000/svg" width="24" height="24" viewBox="0 0 24 24" fill="none"><rect width="24" height="24" fill="none"/>
<path d="M21.707 20.293L20.293 21.7071L14.9561 16.3702C14.3095 16.5044 13.6556 16.5938 12.999 16.6358L13.001 22H11V16.6241C9.30994 16.4934 7.63848 16.0611 6.0752 15.3282L5.5 15.0577L5.49902 11.086L5.79199 10.794C6.40596 10.18 6.90871 9.47112 7.28613 8.70023L2.29297 3.70707L3.70703 2.29301L21.707 20.293Z" fill="#000000"/>
<path d="M9.40039 2.4639C11.0691 1.79651 12.9309 1.79559 14.5996 2.46293L14.8711 2.5723L15.3945 2.78129L15.4863 3.33695L16.0215 6.54691C16.2896 8.15533 17.0539 9.64104 18.207 10.794L18.499 11.086L18.5 14.586L8.33301 4.41898L8.60645 2.78129L9.40039 2.4639Z" fill="#000000"/>
</svg>
