<svg xmlns="http://www.w3.org/2000/svg" width="20" height="20" viewBox="0 0 20 20" fill="none"><rect width="20" height="20" fill="none"/>
<path d="M11 9C11.5522 9 11.9999 9.44784 12 10C12 10.5523 11.5523 11 11 11C10.4477 11 10 10.5523 10 10C10.0001 9.44784 10.4478 9 11 9Z" fill="#000000"/>
<path d="M16.5498 3.89746V16.1025L8.80273 17.8115L8.51953 17.5762L7.0498 16.3516V3.64844L8.51953 2.42383L8.80273 2.18848L16.5498 3.89746ZM8.5498 4.35156V15.6475L9.19727 16.1875L15.0498 14.8975V5.10156L9.19727 3.81152L8.5498 4.35156Z" fill="#000000"/>
<path d="M5.5 17H4V3H5.5V17Z" fill="#000000"/>
</svg>
