<svg xmlns="http://www.w3.org/2000/svg" width="24" height="24" viewBox="0 0 24 24" fill="none"><rect width="24" height="24" fill="none"/>
<path d="M14 13C15.8638 13 17.43 14.2748 17.874 16H22V18H17.874C17.43 19.7252 15.8638 21 14 21L13.7939 20.9951C12.0216 20.9052 10.5546 19.6612 10.127 18H2V16H10.127C10.5547 14.3388 12.0217 13.0948 13.7939 13.0049L14 13ZM14 15C12.8954 15 12 15.8954 12 17C12 18.1046 12.8954 19 14 19C15.1046 19 16 18.1046 16 17C16 15.8954 15.1046 15 14 15Z" fill="#000000"/>
<path d="M10 3C11.8638 3 13.43 4.27477 13.874 6H22V8H13.874C13.43 9.72523 11.8638 11 10 11L9.79395 10.9951C8.02163 10.9052 6.5546 9.66124 6.12695 8H2V6H6.12695C6.55469 4.33881 8.02166 3.09481 9.79395 3.00488L10 3ZM10 5C8.89543 5 8 5.89543 8 7C8 8.10457 8.89543 9 10 9C11.1046 9 12 8.10457 12 7C12 5.89543 11.1046 5 10 5Z" fill="#000000"/>
</svg>
