<svg xmlns="http://www.w3.org/2000/svg" width="24" height="24" viewBox="0 0 24 24" fill="none"><rect width="24" height="24" fill="none"/>
<g clip-path="url(#clip0_147603_36081)">
<path d="M14.297 14.293C14.5741 14.0158 14.9885 13.9261 15.3555 14.0635L23.3555 17.0635C23.7376 17.2069 23.9943 17.5687 24.004 17.9766C24.0134 18.3848 23.7729 18.7581 23.3975 18.9189L20.2657 20.2607L18.9229 23.3936C18.762 23.7688 18.3888 24.0094 17.9805 24C17.5728 23.9902 17.2109 23.7335 17.0675 23.3516L14.0675 15.3516C13.9301 14.9846 14.0199 14.5701 14.297 14.293Z" fill="#000000"/>
<path d="M12.0001 8.5C12.9891 8.5 13.994 8.65522 15.0948 8.97754L15.8536 9.23047C17.7058 9.84789 19.142 11.3283 19.7032 13.1982L19.8243 13.6025L16.0577 12.1904C14.9571 11.7786 13.7146 12.0472 12.8829 12.8789C12.0516 13.7105 11.7824 14.952 12.1944 16.0527L14.4239 22H8.37606C5.02749 21.9993 2.62507 18.771 3.58699 15.5635L4.29695 13.1982C4.858 11.3286 6.29393 9.84815 8.14559 9.23047L8.89559 8.97949C10.0001 8.65522 11.0082 8.50007 12.0001 8.5Z" fill="#000000"/>
<path d="M12.0001 2C13.2261 2 14.3908 2.45228 15.1973 2.85547C15.6106 3.0621 15.9553 3.26922 16.1973 3.4248C16.3181 3.50246 16.4153 3.56849 16.4835 3.61621C16.5173 3.63987 16.545 3.65968 16.5645 3.67383C16.574 3.68068 16.5821 3.68705 16.588 3.69141C16.5906 3.69335 16.5938 3.69497 16.5958 3.69629L16.5977 3.69824L16.5997 3.69922C16.5963 3.70413 16.5522 3.76389 16.0001 4.5L16.5997 3.69922C16.8233 3.86691 16.9671 4.12137 16.9952 4.39941C17.0232 4.67765 16.9329 4.95505 16.7471 5.16406L15.1807 6.9248C14.1013 6.64492 13.0563 6.5 12.0001 6.5C10.9436 6.50006 9.89823 6.64471 8.81844 6.9248L7.25301 5.16406C7.06752 4.95512 6.97699 4.67743 7.00496 4.39941C7.03305 4.12154 7.17716 3.86791 7.40047 3.7002L8.00008 4.5C7.41144 3.71495 7.40047 3.7002 7.40047 3.7002L7.40438 3.69629C7.4062 3.69493 7.40945 3.69331 7.41219 3.69141C7.41799 3.68713 7.42618 3.68071 7.43563 3.67383C7.45505 3.65974 7.4828 3.63993 7.51668 3.61621C7.58477 3.56856 7.68195 3.50251 7.80281 3.4248C8.04476 3.2693 8.38957 3.06212 8.80281 2.85547C9.6092 2.45233 10.7741 2.0003 12.0001 2Z" fill="#000000"/>
</g>
<defs>
<clipPath id="clip0_147603_36081">
<rect width="24" height="24" fill="white"/>
</clipPath>
</defs>
</svg>
