<svg xmlns="http://www.w3.org/2000/svg" width="20" height="20" viewBox="0 0 20 20" fill="none"><rect width="20" height="20" fill="none"/>
<path d="M18.707 17.293L17.293 18.707L12.7246 14.1387C12.1553 14.271 11.5794 14.364 11 14.4121V17.999H9V14.4121C7.6649 14.3013 6.34388 13.9686 5.09375 13.4131L4.49902 13.1494L4.5 12.499L4.49902 8.99902L4.90039 8.69922C5.35905 8.35508 5.74428 7.93322 6.04492 7.45898L1.29297 2.70703L2.70703 1.29297L18.707 17.293ZM7.47949 8.89355C7.19363 9.28458 6.86756 9.64796 6.49902 9.97168V11.8252C7.94281 12.36 9.47827 12.5518 10.9883 12.4023L7.47949 8.89355Z" fill="#000000"/>
<path d="M8.30273 1.89258C9.41682 1.61428 10.5832 1.61417 11.6973 1.89258L12.2422 2.0293L12.9248 2.19922L13.2461 5.41211C13.3768 6.71858 14.0494 7.91125 15.0996 8.69922L15.5 8.99902V11.5859L12.0176 8.10352C11.6077 7.33837 11.3451 6.49265 11.2568 5.61035L11.0752 3.80371C10.3665 3.64761 9.63251 3.64656 8.92383 3.80273L8.81348 4.89941L6.9873 3.07324L7.00488 2.89941L7.07422 2.19922L7.75781 2.0293L8.30273 1.89258Z" fill="#000000"/>
</svg>
