<svg xmlns="http://www.w3.org/2000/svg" width="20" height="20" viewBox="0 0 20 20" fill="none"><rect width="20" height="20" fill="none"/>
<path d="M18.707 12.707L16.4141 15L18.707 17.293L17.293 18.707L15 16.4141L12.707 18.707L11.293 17.293L13.5859 15L11.293 12.707L12.707 11.293L15 13.5859L17.293 11.293L18.707 12.707Z" fill="#000000"/>
<path d="M10.5 3C13.0475 3 15.1893 4.73232 15.8145 7.08301C16.9464 7.31715 17.9026 8.03 18.4639 9H14V8.5C14 6.567 12.433 5 10.5 5C8.567 5 7 6.567 7 8.5V9H6C4.34315 9 3 10.3431 3 12C3 13.6569 4.34315 15 6 15H9V17H6C3.23858 17 1 14.7614 1 12C1 9.51456 2.8135 7.45274 5.18945 7.06543C5.82052 4.72359 7.95876 3 10.5 3Z" fill="#000000"/>
</svg>
