<svg xmlns="http://www.w3.org/2000/svg" width="20" height="20" viewBox="0 0 20 20" fill="none"><rect width="20" height="20" fill="none"/>
<path d="M9.99908 8C11.1036 8 11.9991 8.89543 11.9991 10C11.9991 11.1046 11.1036 12 9.99908 12C8.89469 11.9998 7.99908 11.1044 7.99908 10C7.99908 8.89556 8.89469 8.00021 9.99908 8Z" fill="#000000"/>
<path d="M9.99908 4C13.0469 4 15.0552 5.43144 16.2754 6.84766C16.8794 7.54865 17.2928 8.24641 17.5557 8.76953C17.6877 9.03206 17.7837 9.25413 17.8477 9.41406C17.8796 9.49393 17.904 9.55927 17.921 9.60645C17.9293 9.62959 17.9356 9.64871 17.9405 9.66309C17.9429 9.67029 17.9457 9.67678 17.9473 9.68164C17.9481 9.68398 17.9493 9.68848 17.9493 9.68848L17.9502 9.69043C17.9461 9.6923 17.8842 9.71403 16.9991 10C17.8842 10.286 17.9461 10.3067 17.9502 10.3086L17.9493 10.3115C17.9493 10.3115 17.9481 10.316 17.9473 10.3184C17.9457 10.3232 17.9429 10.3297 17.9405 10.3369C17.9356 10.3513 17.9293 10.3704 17.921 10.3936C17.904 10.4407 17.8796 10.5061 17.8477 10.5859C17.7837 10.7459 17.6877 10.9679 17.5557 11.2305C17.2928 11.7536 16.8794 12.4513 16.2754 13.1523C15.0552 14.5686 13.0469 16 9.99908 16C6.95132 15.9999 4.94285 14.5686 3.72271 13.1523C3.1188 12.4513 2.70535 11.7536 2.44244 11.2305C2.3105 10.9679 2.21441 10.7459 2.15044 10.5859C2.1185 10.5061 2.09413 10.4407 2.0772 10.3936C2.06889 10.3704 2.06256 10.3513 2.05767 10.3369C2.05521 10.3297 2.05244 10.3232 2.05083 10.3184C2.05006 10.316 2.04888 10.3115 2.04888 10.3115L2.0479 10.3096C2.0479 10.3096 2.0599 10.3034 2.99908 10C2.0599 9.69657 2.0479 9.69141 2.0479 9.69141L2.04888 9.68848C2.04888 9.68848 2.05006 9.684 2.05083 9.68164C2.05244 9.67679 2.05521 9.6703 2.05767 9.66309C2.06256 9.64872 2.06889 9.6296 2.0772 9.60645C2.09413 9.55929 2.1185 9.49393 2.15044 9.41406C2.21441 9.25415 2.3105 9.03207 2.44244 8.76953C2.70535 8.24644 3.1188 7.54866 3.72271 6.84766C4.94285 5.43143 6.95132 4.00012 9.99908 4ZM9.99908 6C7.6628 6.00012 6.17097 7.06875 5.23736 8.15234C4.76464 8.70108 4.43775 9.25369 4.22954 9.66797C4.16637 9.79368 4.11526 9.90606 4.07427 10C4.11526 10.0939 4.16637 10.2063 4.22954 10.332C4.43775 10.7463 4.76464 11.2989 5.23736 11.8477C6.17097 12.9313 7.6628 13.9999 9.99908 14C12.3354 14 13.8271 12.9312 14.7608 11.8477C15.2335 11.2989 15.5604 10.7463 15.7686 10.332C15.8317 10.2065 15.8819 10.0939 15.9229 10C15.8819 9.90612 15.8317 9.79352 15.7686 9.66797C15.5604 9.25366 15.2335 8.70107 14.7608 8.15234C13.8271 7.06876 12.3354 6 9.99908 6Z" fill="#000000"/>
<path d="M2.99908 10L2.0479 10.3076C1.98338 10.1078 1.98338 9.8912 2.0479 9.69141L2.99908 10Z" fill="#000000"/>
<path d="M17.9502 9.69238C18.0148 9.89225 18.0148 10.1087 17.9502 10.3086L16.9991 10L17.9502 9.69238Z" fill="#000000"/>
</svg>
