<svg xmlns="http://www.w3.org/2000/svg" width="24" height="24" viewBox="0 0 24 24" fill="none"><rect width="24" height="24" fill="none"/>
<path d="M6.5 12.25C7.05228 12.25 7.5 12.6977 7.5 13.25C7.5 13.8023 7.05228 14.25 6.5 14.25C5.94772 14.25 5.5 13.8023 5.5 13.25C5.5 12.6977 5.94772 12.25 6.5 12.25Z" fill="#000000"/>
<path d="M14 12.25C14.5523 12.25 15 12.6977 15 13.25C15 13.8023 14.5523 14.25 14 14.25H10C9.44772 14.25 9 13.8023 9 13.25C9 12.6977 9.44772 12.25 10 12.25H14Z" fill="#000000"/>
<path d="M17.5 12.25C18.0523 12.25 18.5 12.6977 18.5 13.25C18.5 13.8023 18.0523 14.25 17.5 14.25C16.9477 14.25 16.5 13.8023 16.5 13.25C16.5 12.6977 16.9477 12.25 17.5 12.25Z" fill="#000000"/>
<path d="M6.5 8.75C7.05228 8.75 7.5 9.19772 7.5 9.75C7.5 10.3023 7.05228 10.75 6.5 10.75C5.94772 10.75 5.5 10.3023 5.5 9.75C5.5 9.19772 5.94772 8.75 6.5 8.75Z" fill="#000000"/>
<path d="M10 8.75C10.5523 8.75 11 9.19772 11 9.75C11 10.3023 10.5523 10.75 10 10.75C9.44772 10.75 9 10.3023 9 9.75C9 9.19772 9.44772 8.75 10 8.75Z" fill="#000000"/>
<path d="M14 8.75C14.5523 8.75 15 9.19772 15 9.75C15 10.3023 14.5523 10.75 14 10.75C13.4477 10.75 13 10.3023 13 9.75C13 9.19772 13.4477 8.75 14 8.75Z" fill="#000000"/>
<path d="M17.5 8.75C18.0523 8.75 18.5 9.19772 18.5 9.75C18.5 10.3023 18.0523 10.75 17.5 10.75C16.9477 10.75 16.5 10.3023 16.5 9.75C16.5 9.19772 16.9477 8.75 17.5 8.75Z" fill="#000000"/>
<path d="M18 5C20.2091 5 22 6.79086 22 9V14C22 16.14 20.3194 17.8879 18.2061 17.9951L18 18H6L5.79395 17.9951C3.7488 17.8913 2.10865 16.2512 2.00488 14.2061L2 14V9C2 6.79086 3.79086 5 6 5H18ZM6 7C4.89543 7 4 7.89543 4 9V14C4 15.1046 4.89543 16 6 16H18C19.1046 16 20 15.1046 20 14V9C20 7.89543 19.1046 7 18 7H6Z" fill="#000000"/>
</svg>
