<svg xmlns="http://www.w3.org/2000/svg" width="20" height="20" viewBox="0 0 20 20" fill="none"><rect width="20" height="20" fill="none"/>
<path d="M18.707 17.293L17.293 18.707L15.4346 16.8486C15.3617 17.0444 15.2306 17.217 15.0498 17.3359C14.7389 17.5404 14.3399 17.5546 14.0146 17.374L10 15.1436L5.98535 17.374C5.66007 17.5547 5.26109 17.5403 4.9502 17.3359C4.63929 17.1314 4.46785 16.7707 4.50488 16.4004L4.95703 11.8721L1.79297 8.70703C1.53219 8.44625 1.4361 8.06293 1.54297 7.70996C1.64989 7.35719 1.94226 7.09189 2.30371 7.01953L5.05469 6.46875L1.29297 2.70703L2.70703 1.29297L18.707 17.293ZM4.52832 8.61328L6.54004 10.625C6.85802 10.943 7.01633 11.3875 6.97168 11.835L6.68457 14.6973L9.27148 13.2607C9.66792 13.0405 10.1395 13.0125 10.5547 13.1777L10.7285 13.2607L13.2441 14.6582L6.75488 8.16895L4.52832 8.61328Z" fill="#000000"/>
<path d="M10 1.5C10.3631 1.50003 10.6977 1.69721 10.874 2.01465L13.1484 6.10938L17.6963 7.01953C18.0577 7.09192 18.3501 7.3572 18.457 7.70996C18.5639 8.06291 18.4678 8.44626 18.207 8.70703L15.4141 11.5L13.999 10.085L15.4707 8.61328L12.5303 8.02637C12.0989 7.94001 11.7273 7.66779 11.5137 7.2832L10 4.55859L9.4541 5.54004L7.9834 4.06934L9.12598 2.01465L9.19922 1.90137C9.38638 1.65095 9.68219 1.5 10 1.5Z" fill="#000000"/>
</svg>
