<svg xmlns="http://www.w3.org/2000/svg" width="24" height="24" viewBox="0 0 24 24" fill="none"><rect width="24" height="24" fill="none"/>
<path d="M16 11.9996C17.1045 11.9996 17.9999 12.8952 18 13.9996C17.9998 15.104 17.1044 15.9996 16 15.9996C14.8956 15.9996 14.0002 15.104 14 13.9996C14.0001 12.8952 14.8955 11.9996 16 11.9996Z" fill="#000000"/>
<path d="M12.5674 3.00057C15.1735 2.0645 17.9197 3.99617 17.9199 6.76522V6.9996H18C20.209 6.9996 21.9999 8.79058 22 10.9996V16.9996C21.9997 19.2085 20.209 20.9996 18 20.9996H6C3.79102 20.9996 2.00026 19.2085 2 16.9996V9.60995C2.00011 7.92246 3.05941 6.41597 4.64746 5.8453L12.5674 3.00057ZM6 8.9996C4.89552 8.9996 4.00015 9.89515 4 10.9996V16.9996C4.00026 18.1039 4.89559 18.9996 6 18.9996H18C19.1044 18.9996 19.9997 18.1039 20 16.9996V10.9996C19.9999 9.89515 19.1045 8.9996 18 8.9996H6ZM15.9199 6.76522C15.9197 5.38078 14.5461 4.41443 13.2432 4.88241L7.34961 6.9996H15.9199V6.76522Z" fill="#000000"/>
</svg>
