<svg xmlns="http://www.w3.org/2000/svg" width="24" height="24" viewBox="0 0 24 24" fill="none"><rect width="24" height="24" fill="none"/>
<path d="M22.707 16.707L17.5 21.9141L14.293 18.707L15.707 17.293L17.5 19.0859L21.293 15.293L22.707 16.707Z" fill="#000000"/>
<path d="M9 4H15V2H17V4C19.2091 4 21 5.79086 21 8V13H19V10H5V17C5 18.1046 5.89543 19 7 19H12V21H7C4.79086 21 3 19.2091 3 17V8C3 5.79086 4.79086 4 7 4V2H9V4ZM7 6C5.89543 6 5 6.89543 5 8H19C19 6.89543 18.1046 6 17 6H7Z" fill="#000000"/>
</svg>
