<svg xmlns="http://www.w3.org/2000/svg" width="20" height="20" viewBox="0 0 20 20" fill="none"><rect width="20" height="20" fill="none"/>
<path d="M10 2C14.169 2 17.5917 5.18908 17.9648 9.26074C15.3366 13.2529 13.2529 15.3366 9.26074 17.9648C5.18908 17.5917 2 14.169 2 10C2 5.58172 5.58172 2 10 2ZM10 3.5C6.41015 3.5 3.5 6.41015 3.5 10C3.5 12.9031 5.40472 15.3603 8.03223 16.1934C8.01075 15.9651 8 15.7338 8 15.5C8 11.3579 11.3579 8 15.5 8C15.7338 8 15.965 8.01206 16.1934 8.0332C15.3605 5.40524 12.9035 3.5 10 3.5ZM15.5 9.5C12.1863 9.5 9.5 12.1863 9.5 15.5C9.5 15.6598 9.50801 15.818 9.52051 15.9746C12.3029 14.0308 14.0316 12.3013 15.9756 9.51855C15.8187 9.50611 15.6601 9.5 15.5 9.5Z" fill="#000000"/>
</svg>
