<svg xmlns="http://www.w3.org/2000/svg" width="20" height="20" viewBox="0 0 20 20" fill="none"><rect width="20" height="20" fill="none"/>
<path d="M10.8271 5.18652C10.9744 5.02874 11.2322 5.18358 11.1621 5.3877L10.333 7.7998H11.333C11.6026 7.7998 11.846 7.97 11.9492 8.23145C12.0524 8.49294 11.9952 8.79394 11.8047 8.99414L9.14941 11.8105C9.00105 11.9676 8.74338 11.8103 8.81543 11.6064L9.66699 9.19922H8.66699C8.40549 9.19922 8.16772 9.03902 8.05957 8.78906C7.95158 8.53919 7.99223 8.24573 8.16406 8.03906L10.8271 5.18652Z" fill="#000000"/>
<path d="M10 2C13.3137 2 16 4.68629 16 8V8.07324C15.9999 9.49377 15.5022 10.8697 14.5928 11.9609L13.6963 13.0361C13.5453 13.2173 13.4482 13.4381 13.417 13.6719L13.1455 15.7119C13.0149 16.6918 12.3363 17.5116 11.3984 17.8242C10.4906 18.1267 9.50936 18.1267 8.60156 17.8242C7.66375 17.5116 6.98514 16.6918 6.85449 15.7119L6.58301 13.6719C6.55184 13.4381 6.45467 13.2173 6.30371 13.0361L5.40723 11.9609C4.49782 10.8697 4.00009 9.49377 4 8.07324V8C4 4.68629 6.68629 2 10 2ZM11.7725 14.6533C10.6219 15.0366 9.37704 15.0368 8.22656 14.6533L8.3418 15.5137C8.39668 15.9253 8.68127 16.27 9.0752 16.4014C9.67534 16.6014 10.3247 16.6014 10.9248 16.4014C11.3187 16.27 11.6033 15.9253 11.6582 15.5137L11.7725 14.6533ZM10 3.5C7.51472 3.5 5.5 5.51472 5.5 8V8.07324C5.50009 9.14271 5.875 10.1783 6.55957 11L7.45605 12.0762C7.65513 12.3151 7.81005 12.5854 7.91797 12.874C9.20314 13.6297 10.7958 13.6294 12.0811 12.874C12.189 12.5853 12.3448 12.3152 12.5439 12.0762L13.4404 11C14.125 10.1783 14.4999 9.14271 14.5 8.07324V8C14.5 5.51472 12.4853 3.5 10 3.5Z" fill="#000000"/>
</svg>
