<svg xmlns="http://www.w3.org/2000/svg" width="20" height="20" viewBox="0 0 20 20" fill="none"><rect width="20" height="20" fill="none"/>
<path d="M19 12.5018C18.9998 12.5661 18.974 17.5116 15 19.0018C11.026 17.5116 11.0002 12.5661 11 12.5018L15 11.0018L19 12.5018ZM12.6084 13.4999C12.6706 13.8536 12.7678 14.2672 12.917 14.6962C13.2805 15.741 13.9055 16.7561 15 17.3553C16.0945 16.7561 16.7195 15.741 17.083 14.6962C17.2322 14.2673 17.3284 13.8536 17.3906 13.4999L15 12.6034L12.6084 13.4999Z" fill="#000000"/>
<path d="M11.0127 2.91002C12.9709 2.18956 15.0484 3.63904 15.0488 5.72545V6.00084C16.683 6.02692 17.9997 7.35958 18 8.99986V10.0018H16.5V8.99986C16.4997 8.1717 15.8282 7.49986 15 7.49986H5C4.17176 7.49986 3.50031 8.1717 3.5 8.99986V14.9999C3.50027 15.8281 4.17174 16.4999 5 16.4999H10V17.9999H5C3.34331 17.9999 2.00027 16.6565 2 14.9999V8.3192C2.00031 7.06227 2.78426 5.93793 3.96387 5.50377L11.0127 2.91002ZM13.5488 5.72545C13.5484 4.68256 12.5101 3.95744 11.5312 4.31724L6.95996 5.99986H13.5488V5.72545Z" fill="#000000"/>
</svg>
