<svg xmlns="http://www.w3.org/2000/svg" width="24" height="24" viewBox="0 0 24 24" fill="none"><rect width="24" height="24" fill="none"/>
<path d="M12 3C15.866 3 19 6.13401 19 10V12C20.6569 12 22 13.3431 22 15V18L21.9961 18.1543C21.9158 19.7394 20.6051 21 19 21H15V12H17V10C17 7.23858 14.7614 5 12 5C9.23858 5 7 7.23858 7 10V12H9V21H5C3.39489 21 2.08421 19.7394 2.00391 18.1543L2 18V15C2 13.3431 3.34315 12 5 12V10C5 6.13401 8.13401 3 12 3ZM5 14C4.44772 14 4 14.4477 4 15V18L4.00488 18.1025C4.05621 18.6067 4.48232 19 5 19H7V14H5ZM17 19H19C19.5177 19 19.9438 18.6067 19.9951 18.1025L20 18V15C20 14.4477 19.5523 14 19 14H17V19Z" fill="#000000"/>
</svg>
