<svg xmlns="http://www.w3.org/2000/svg" width="20" height="20" viewBox="0 0 20 20" fill="none"><rect width="20" height="20" fill="none"/>
<path d="M17.3857 10.5615C17.5409 10.4198 17.7818 10.5825 17.708 10.7793L16.5 14H18C18.4043 14.0001 18.7691 14.2437 18.9238 14.6172C19.0785 14.9908 18.9929 15.4211 18.707 15.707L14.2285 19.3994C14.0619 19.5368 13.8258 19.3494 13.9219 19.1562L15.5 16H14C13.6077 16 13.252 15.7703 13.0898 15.4131C12.9278 15.0559 12.9889 14.6371 13.2471 14.3418L17.3857 10.5615Z" fill="#000000"/>
<path d="M18 9H16.5V8L14 5.5H3.5V12L6 14.5H11V16H2V4H18V9Z" fill="#000000"/>
<path d="M10 8C11.1046 8 12 8.89543 12 10C12 11.1046 11.1046 12 10 12C8.89543 12 8 11.1046 8 10C8 8.89543 8.89543 8 10 8Z" fill="#000000"/>
</svg>
