<svg xmlns="http://www.w3.org/2000/svg" width="20" height="20" viewBox="0 0 20 20" fill="none"><rect width="20" height="20" fill="none"/>
<path d="M6.50003 8C7.32846 8 8.00003 8.67157 8.00003 9.5C8.00003 10.3284 7.32846 11 6.50003 11C5.67164 11 5.00003 10.3284 5.00003 9.5C5.00003 8.6716 5.67164 8.00005 6.50003 8Z" fill="#000000"/>
<path d="M13.5 8C14.3285 8 15 8.67157 15 9.5C15 10.3284 14.3285 11 13.5 11C12.6716 11 12 10.3284 12 9.5C12 8.6716 12.6716 8.00005 13.5 8Z" fill="#000000"/>
<path d="M14.5088 3C16.0247 3.00001 17.3021 4.13114 17.4864 5.63574L18.4737 13.6992C18.6721 15.3206 17.4069 16.75 15.7735 16.75C15.0871 16.7499 14.4259 16.4904 13.9229 16.0234L11.2051 13.5H8.79495L6.07718 16.0234C5.57412 16.4904 4.91299 16.7499 4.22659 16.75C2.59316 16.7499 1.32794 15.3205 1.5264 13.6992L2.5137 5.63574C2.69794 4.13123 3.97551 3.00012 5.49124 3H14.5088ZM5.49124 4.5C4.73355 4.50012 4.09522 5.06534 4.00296 5.81738L3.01468 13.8818C2.92594 14.6089 3.49403 15.2499 4.22659 15.25C4.53449 15.2499 4.83103 15.1333 5.05667 14.9238L8.20511 12H11.795L14.9434 14.9238C15.169 15.1333 15.4656 15.2499 15.7735 15.25C16.5061 15.25 17.0741 14.609 16.9854 13.8818L15.9981 5.81738C15.9058 5.06522 15.2666 4.50001 14.5088 4.5H5.49124Z" fill="#000000"/>
</svg>
