<svg xmlns="http://www.w3.org/2000/svg" width="20" height="20" viewBox="0 0 20 20" fill="none"><rect width="20" height="20" fill="none"/>
<path d="M10.3975 2C12.4914 2 14.0393 3.95131 13.5625 5.99023L13.1982 7.5498H15.4717C17.0177 7.5498 18.1664 8.98197 17.8311 10.4912L16.8623 14.8525C16.4471 16.7207 14.7897 18.0498 12.876 18.0498H3.7002C2.7337 18.0498 1.9502 17.2663 1.9502 16.2998V10.2998C1.95045 9.33352 2.73385 8.5498 3.7002 8.5498H6.59082C7.74743 7.19085 8.5652 5.57491 8.97461 3.83496L9.26953 2.57812L9.30957 2.45605C9.42555 2.18328 9.69551 2.00008 10 2H10.3975ZM3.7002 10.0498C3.56228 10.0498 3.45045 10.1619 3.4502 10.2998V16.2998C3.4502 16.4379 3.56212 16.5498 3.7002 16.5498H6V10.0498H3.7002ZM10.4346 4.17871C9.94358 6.26518 8.9339 8.19388 7.5 9.78711V16.5498H12.876C14.0866 16.5498 15.1346 15.709 15.3975 14.5273L16.3672 10.165C16.494 9.59276 16.0579 9.0498 15.4717 9.0498H12.252C12.0231 9.04975 11.8063 8.94495 11.6641 8.76562C11.5221 8.58632 11.4694 8.35163 11.5215 8.12891L12.1016 5.64844C12.3434 4.61426 11.6182 3.62241 10.5908 3.51074L10.4346 4.17871Z" fill="#000000"/>
</svg>
