<svg xmlns="http://www.w3.org/2000/svg" width="20" height="20" viewBox="0 0 20 20" fill="none"><rect width="20" height="20" fill="none"/>
<path d="M13.416 15.624L10 17.9014L6.58398 15.624L7.41602 14.376L10 16.0986L12.584 14.376L13.416 15.624Z" fill="#000000"/>
<path d="M15.0303 2.56152C16.1639 2.67656 17.0496 3.63224 17.0498 4.79785V10.3008C17.0498 11.5441 16.0418 12.5498 14.7998 12.5498H5.2002C3.95757 12.5498 2.95022 11.5424 2.9502 10.2998V4.7998C2.9502 3.55716 3.95755 2.5498 5.2002 2.5498H14.7998L15.0303 2.56152ZM4.4502 10.2998C4.45022 10.714 4.786 11.0498 5.2002 11.0498H14.7998C15.2147 11.0498 15.5498 10.7143 15.5498 10.3008V7.5H4.4502V10.2998ZM5.2002 4.0498C4.78598 4.0498 4.4502 4.38559 4.4502 4.7998V6H15.5498V4.79785C15.5496 4.41062 15.2557 4.092 14.877 4.05371L14.7998 4.0498H5.2002Z" fill="#000000"/>
</svg>
