<svg xmlns="http://www.w3.org/2000/svg" width="20" height="20" viewBox="0 0 20 20" fill="none"><rect width="20" height="20" fill="none"/>
<path d="M15.5 12C17.433 12 19 13.567 19 15.5C19 17.433 17.433 19 15.5 19C13.567 19 12 17.433 12 15.5C12 13.567 13.567 12 15.5 12ZM15.5 14C14.6716 14 14 14.6716 14 15.5C14 16.3284 14.6716 17 15.5 17C16.3284 17 17 16.3284 17 15.5C17 14.6716 16.3284 14 15.5 14Z" fill="#000000"/>
<path d="M10 13.5C8.43416 13.5 7.18917 13.9468 6.34961 14.6875C5.52558 15.4146 5 16.5043 5 18H3C3 15.9958 3.72455 14.3354 5.02539 13.1875C6.31082 12.0533 8.06596 11.5 10 11.5V13.5Z" fill="#000000"/>
<path d="M10.0039 2C12.213 2 14.0039 3.79086 14.0039 6C14.0039 8.20914 12.213 10 10.0039 10C7.79477 10 6.00391 8.20914 6.00391 6C6.00391 3.79086 7.79477 2 10.0039 2ZM10.0039 4C8.89934 4 8.00391 4.89543 8.00391 6C8.00391 7.10457 8.89934 8 10.0039 8C11.1085 8 12.0039 7.10457 12.0039 6C12.0039 4.89543 11.1085 4 10.0039 4Z" fill="#000000"/>
</svg>
