<svg xmlns="http://www.w3.org/2000/svg" width="20" height="20" viewBox="0 0 20 20" fill="none"><rect width="20" height="20" fill="none"/>
<path d="M7.52539 2.24994C7.86917 2.26158 8.16109 2.50645 8.2334 2.84271L10.5049 13.4452L12.2676 5.34076L12.3037 5.22162C12.4107 4.95414 12.6649 4.76682 12.96 4.75091C13.2969 4.73291 13.605 4.94257 13.7119 5.26263L15.041 9.24994H17V10.7499H14.5C14.1772 10.7499 13.8902 10.5434 13.7881 10.2372L13.1514 8.32806L11.2324 17.1591C11.1573 17.5042 10.8522 17.7504 10.499 17.7499C10.1459 17.7494 9.84069 17.5025 9.7666 17.1572L7.39551 6.09271L6.2207 10.206C6.12863 10.5278 5.83477 10.7499 5.5 10.7499H3V9.24994H4.93457L6.7793 2.79388L6.82422 2.67474C6.95133 2.41069 7.22464 2.23983 7.52539 2.24994Z" fill="#000000"/>
</svg>
