<svg xmlns="http://www.w3.org/2000/svg" width="24" height="24" viewBox="0 0 24 24" fill="none"><rect width="24" height="24" fill="none"/>
<path d="M10.7776 3.15527C10.7381 2.13253 11.9149 1.5327 12.719 2.16602L15.6633 4.48535L19.1809 3.18945L19.3596 3.13769C20.1932 2.96423 20.9471 3.71815 20.7737 4.55176L20.7219 4.73047L19.425 8.24707L21.7454 11.1924C22.3785 11.9967 21.7781 13.1728 20.7551 13.1328L17.01 12.9873L14.927 16.1035C14.3579 16.9547 13.0529 16.7481 12.7747 15.7627L12.0872 13.3262L3.70728 21.707L2.29321 20.293L10.7229 11.8623L8.14868 11.1367C7.16329 10.8585 6.95658 9.55344 7.80786 8.98437L10.9241 6.90039L10.7776 3.15527ZM12.9397 7.27051C12.956 7.68748 12.7544 8.08351 12.4075 8.31543L10.3606 9.68262L12.7297 10.3516L12.8762 10.4043C13.1595 10.5256 13.3858 10.7518 13.5071 11.0352L13.5598 11.1807L14.2278 13.5498L15.5959 11.5039C15.8279 11.157 16.2239 10.9544 16.6409 10.9707L19.0999 11.0664L17.5764 9.13477C17.3182 8.807 17.2485 8.36711 17.3928 7.97559L18.2454 5.66504L15.9358 6.51758C15.5442 6.66195 15.1044 6.59229 14.7766 6.33398L12.844 4.81055L12.9397 7.27051Z" fill="#000000"/>
</svg>
