<svg xmlns="http://www.w3.org/2000/svg" width="24" height="24" viewBox="0 0 24 24" fill="none"><rect width="24" height="24" fill="none"/>
<path d="M21.707 20.293L20.293 21.707L17.5859 19H2V5H3.58594L2.29297 3.70703L3.70703 2.29297L21.707 20.293ZM4 14L7 17H15.5859L13.291 14.7051C12.9002 14.8929 12.4631 15 12 15C10.3431 15 9 13.6569 9 12C9 11.5368 9.10621 11.0991 9.29395 10.708L5.58594 7H4V14Z" fill="#000000"/>
<path d="M22 18.0859L20 16.0859V10L17 7H10.9141L8.91406 5H22V18.0859Z" fill="#000000"/>
</svg>
