<svg xmlns="http://www.w3.org/2000/svg" width="20" height="20" viewBox="0 0 20 20" fill="none"><rect width="20" height="20" fill="none"/>
<path d="M15 10C17.7614 10 20 12.2386 20 15C20 17.7614 17.7614 20 15 20C12.2386 20 10 17.7614 10 15C10 12.2386 12.2386 10 15 10ZM12.2949 13.709C12.1078 14.1004 12 14.5372 12 15C12 16.6569 13.3431 18 15 18C15.4626 18 15.8988 17.8911 16.29 17.7041L12.2949 13.709ZM15 12C14.5372 12 14.1004 12.1078 13.709 12.2949L17.7041 16.29C17.8911 15.8988 18 15.4626 18 15C18 13.3431 16.6569 12 15 12Z" fill="#000000"/>
<path d="M9 2C10.6569 2 12 3.34315 12 5V6H13C14.3059 6 15.4141 6.83532 15.8262 8H10V5C10 4.44772 9.55228 4 9 4H6V16H8V18H4V2H9Z" fill="#000000"/>
</svg>
