<svg xmlns="http://www.w3.org/2000/svg" width="24" height="24" viewBox="0 0 24 24" fill="none"><rect width="24" height="24" fill="none"/>
<path d="M19 5H18V6.12109C18 7.57438 17.4726 8.97854 16.5156 10.0723L14.8281 12L16.5156 13.9277C17.4726 15.0215 18 16.4256 18 17.8789V19H19V21H5V19H6V17.8789C6 16.4256 6.52742 15.0215 7.48438 13.9277L9.1709 12L7.48438 10.0723C6.52742 8.97854 6 7.57437 6 6.12109V5H5V3H19V5ZM8 6.12109C8 7.08978 8.3515 8.02579 8.98926 8.75488L11.8291 12L8.98926 15.2451C8.3515 15.9742 8 16.9102 8 17.8789V19H16V17.8789C16 16.9102 15.6485 15.9742 15.0107 15.2451L12.1709 12L15.0107 8.75488C15.6485 8.02579 16 7.08978 16 6.12109V5H8V6.12109Z" fill="#000000"/>
</svg>
