<svg xmlns="http://www.w3.org/2000/svg" width="24" height="24" viewBox="0 0 24 24" fill="none"><rect width="24" height="24" fill="none"/>
<path d="M9.03027 4.18778C9.82148 3.46696 10.8215 3.02357 11.9795 3.14286C12.9308 3.241 13.6975 3.6829 14.2002 4.41434C14.6771 5.1087 14.8555 5.97321 14.8623 6.845C14.8756 8.58466 14.2143 10.7187 13.1416 12.7473C12.1562 14.6107 10.778 16.4693 9.11914 17.9505C9.29635 18.1837 9.48317 18.3535 9.67188 18.4651C10.0178 18.6696 10.5024 18.7614 11.2441 18.4944C12.0194 18.2153 13.0331 17.553 14.293 16.2932L14.3975 16.2024C14.6535 16.0091 14.9905 15.9488 15.3018 16.0472C15.6573 16.1597 15.9211 16.4611 15.9854 16.8284C16.233 18.2439 16.8116 18.6372 17.1826 18.6761C17.6743 18.7271 18.7364 18.3522 20.2002 16.4007L21.7998 17.6009C20.2642 19.6481 18.5982 20.8337 16.9766 20.6653C15.8119 20.5442 15.0152 19.7848 14.5254 18.7864C13.6067 19.5501 12.742 20.081 11.9219 20.3763C10.7263 20.8067 9.60373 20.7481 8.6543 20.1868C8.2168 19.928 7.84938 19.5806 7.54199 19.18C5.89948 20.2792 4.02121 21.0013 2 21.0013V19.0013C3.60439 19.0013 5.1715 18.3988 6.61719 17.388C6.29941 16.459 6.11904 15.4019 6.05176 14.3157C5.90082 11.8765 6.30814 9.10742 7.20801 6.95438C7.65772 5.87865 8.25734 4.89229 9.03027 4.18778ZM11.7744 5.13211C11.2985 5.08309 10.8417 5.24282 10.377 5.66629C9.89418 6.1064 9.43672 6.80736 9.05273 7.72586C8.28544 9.56194 7.91341 12.0202 8.04785 14.1927C8.08775 14.8365 8.17174 15.4401 8.2959 15.9827C9.53169 14.7658 10.5869 13.2992 11.373 11.8128C12.3599 9.94654 12.8721 8.14786 12.8623 6.86063C12.8573 6.21984 12.7242 5.79605 12.5527 5.54618C12.4065 5.33354 12.1863 5.17463 11.7744 5.13211Z" fill="#000000"/>
</svg>
