<svg xmlns="http://www.w3.org/2000/svg" width="20" height="20" viewBox="0 0 20 20" fill="none"><rect width="20" height="20" fill="none"/>
<path d="M14.75 7.5C15.9926 7.5 17 8.50737 17 9.75V15.25C17 16.4926 15.9926 17.5 14.75 17.5H5.25C4.00736 17.5 3 16.4926 3 15.25V9.75C3.00001 8.50737 4.00737 7.5 5.25 7.5H14.75ZM4.5 15.25C4.5 15.6642 4.83579 16 5.25 16H14.75C15.1642 16 15.5 15.6642 15.5 15.25V12.5H4.5V15.25ZM5.25 9C4.83579 9 4.50001 9.3358 4.5 9.75V11H15.5V9.75C15.5 9.3358 15.1642 9 14.75 9H5.25Z" fill="#000000"/>
<path d="M13.416 4.37598L12.584 5.62402L10 3.90137L7.41602 5.62402L6.58398 4.37598L10 2.09863L13.416 4.37598Z" fill="#000000"/>
</svg>
