<svg xmlns="http://www.w3.org/2000/svg" width="24" height="24" viewBox="0 0 24 24" fill="none"><rect width="24" height="24" fill="none"/>
<path d="M19.504 17.5C19.7801 17.5 20.004 17.7239 20.004 18V21.5H21.004V22.5H17.004V21.5H18.004V18.5H17.004V17.5H19.504Z" fill="#000000"/>
<path d="M12.0001 8.5C12.9891 8.5 13.994 8.65523 15.0948 8.97754L15.8536 9.23047C17.2905 9.70948 18.4755 10.7091 19.1973 12.0059C19.1335 12.0021 19.0688 12 19.004 12C18.1578 12.0001 17.3387 12.2184 16.6485 12.7354C15.9724 13.242 15.5911 13.9074 15.3741 14.5029C14.9794 15.5861 15.0021 16.8412 15.004 17.5V22H8.37604C5.02753 21.9992 2.62508 18.771 3.58698 15.5635L4.29694 13.1982C4.85799 11.3286 6.29395 9.84816 8.14558 9.23047L8.89558 8.97949C10.0001 8.65523 11.0082 8.50008 12.0001 8.5Z" fill="#000000"/>
<path d="M19.004 14C19.6943 14 20.254 14.5596 20.254 15.25C20.254 15.9404 19.6943 16.5 19.004 16.5C18.3138 16.4998 17.754 15.9403 17.754 15.25C17.754 14.5597 18.3138 14.0002 19.004 14Z" fill="#000000"/>
<path d="M12.0001 2C13.2261 2 14.3908 2.45228 15.1973 2.85547C15.6105 3.06208 15.9553 3.26922 16.1973 3.4248C16.3181 3.50244 16.4153 3.5685 16.4835 3.61621C16.5172 3.63985 16.545 3.65968 16.5645 3.67383C16.5739 3.68066 16.5821 3.68705 16.588 3.69141C16.5906 3.69333 16.5938 3.69498 16.5958 3.69629L16.5977 3.69824L16.5997 3.69922C16.8233 3.86691 16.9671 4.12137 16.9952 4.39941C17.0232 4.67765 16.9329 4.95505 16.7471 5.16406L15.1807 6.9248C14.1013 6.64493 13.0563 6.5 12.0001 6.5C10.9436 6.50007 9.89819 6.64472 8.81843 6.9248L7.253 5.16406C7.06753 4.95512 6.97698 4.67741 7.00495 4.39941C7.03304 4.12157 7.17718 3.86791 7.40046 3.7002L7.40436 3.69629C7.40617 3.69494 7.40945 3.6933 7.41218 3.69141C7.41796 3.68714 7.42619 3.68069 7.43561 3.67383C7.45503 3.65974 7.48281 3.63991 7.51667 3.61621C7.58475 3.56857 7.68196 3.5025 7.8028 3.4248C8.04474 3.26931 8.38958 3.06211 8.8028 2.85547C9.60917 2.45233 10.7741 2.00032 12.0001 2Z" fill="#000000"/>
</svg>
