<svg xmlns="http://www.w3.org/2000/svg" width="20" height="20" viewBox="0 0 20 20" fill="none"><rect width="20" height="20" fill="none"/>
<path d="M7.03027 6.4082C7.38461 5.96101 8.07308 5.99116 8.38672 6.46777L9.20312 7.70898L8.5 9C8.98146 10.1234 9.8766 11.0185 11 11.5L12.3438 10.8057L13.5459 11.6113C14.0174 11.9271 14.0451 12.6102 13.6006 12.9629L12.4971 13.8379C12.3689 13.9395 12.1981 13.9717 12.042 13.9229C9.197 13.0319 6.96882 10.8031 6.07812 7.95801C6.02931 7.80206 6.06069 7.63202 6.16211 7.50391L7.03027 6.4082Z" fill="#000000"/>
<path d="M10 2C14.4183 2 18 5.58172 18 10C18 14.4183 14.4183 18 10 18C5.58172 18 2 14.4183 2 10C2 5.58172 5.58172 2 10 2ZM10 4C6.68629 4 4 6.68629 4 10C4 13.3137 6.68629 16 10 16C13.3137 16 16 13.3137 16 10C16 6.68629 13.3137 4 10 4Z" fill="#000000"/>
</svg>
