<svg xmlns="http://www.w3.org/2000/svg" width="24" height="24" viewBox="0 0 24 24" fill="none"><rect width="24" height="24" fill="none"/>
<path d="M10.3789 7.82422C11.2418 6.8536 12.7582 6.8536 13.6211 7.82422C13.9318 8.17377 14.3476 8.41352 14.8057 8.50781C16.0779 8.76975 16.8361 10.0836 16.4268 11.3164L16.3789 11.4844C16.2822 11.8795 16.2978 12.2953 16.4268 12.6836C16.6712 13.4197 16.4968 14.1826 16.0479 14.7354L16.9883 20.8477C17.0423 21.1986 16.9064 21.5524 16.6309 21.7764C16.3553 22.0003 15.9809 22.0612 15.6484 21.9365L12 20.5684L8.35156 21.9365C8.01908 22.0612 7.64473 22.0003 7.36914 21.7764C7.09357 21.5524 6.95773 21.1986 7.01172 20.8477L7.95117 14.7373C7.54859 14.2423 7.36738 13.5776 7.50977 12.915L7.57324 12.6836C7.70217 12.2953 7.71781 11.8795 7.62109 11.4844L7.57324 11.3164C7.1639 10.0836 7.92208 8.76975 9.19434 8.50781C9.59504 8.42533 9.96298 8.23143 10.2568 7.9502L10.3789 7.82422ZM14.1768 15.7285C13.9695 15.8455 13.7811 15.9957 13.6211 16.1758L13.4521 16.3467C12.6301 17.0897 11.3699 17.0897 10.5479 16.3467L10.3789 16.1758C10.2187 15.9955 10.0298 15.8455 9.82227 15.7285L9.24805 19.4629L11.6484 18.5635C11.8748 18.4786 12.1252 18.4786 12.3516 18.5635L14.751 19.4629L14.1768 15.7285ZM12.127 9.15332C12.0596 9.07752 11.9404 9.07752 11.873 9.15332C11.276 9.82493 10.4779 10.2856 9.59766 10.4668C9.49834 10.4872 9.43875 10.5903 9.4707 10.6865C9.75384 11.5394 9.75384 12.4606 9.4707 13.3135C9.43875 13.4097 9.49834 13.5128 9.59766 13.5332C10.4779 13.7144 11.276 14.1751 11.873 14.8467C11.9404 14.9225 12.0596 14.9225 12.127 14.8467C12.724 14.1751 13.5221 13.7144 14.4023 13.5332C14.5017 13.5128 14.5613 13.4097 14.5293 13.3135C14.2462 12.4606 14.2462 11.5394 14.5293 10.6865C14.5613 10.5903 14.5017 10.4872 14.4023 10.4668C13.5221 10.2856 12.724 9.82493 12.127 9.15332Z" fill="#000000"/>
<path d="M18 3C20.2091 3.00002 21.9999 4.79094 22 7V15C22 17.2091 20.2091 19 18 19V17C19.1046 17 20 16.1046 20 15V7C19.9999 5.8955 19.1045 5.00001 18 5H6C4.89544 5 4.00001 5.89544 4 7V15C4 16.1046 4.89543 17 6 17V19C3.79086 19 2 17.2091 2 15V7C2.00001 4.79087 3.79087 3 6 3H18Z" fill="#000000"/>
</svg>
