<svg xmlns="http://www.w3.org/2000/svg" width="20" height="20" viewBox="0 0 20 20" fill="none"><rect width="20" height="20" fill="none"/>
<path d="M10.7529 8.24609L13.001 8.25L12.999 9.75L10.7559 9.74609L10.7598 11.999L9.25977 12.001L9.25586 9.74316L6.99902 9.74023L7.00098 8.24023L9.25293 8.24316L9.25 6.00098L10.75 5.99902L10.7529 8.24609Z" fill="#000000"/>
<path d="M16.75 17.5C16.75 17.7598 16.6155 18.001 16.3945 18.1377C16.1735 18.2743 15.8974 18.2869 15.665 18.1709L13 16.8379L10.335 18.1709L10 18.3389L9.66504 18.1709L7 16.8379L4.33496 18.1709C4.10255 18.2869 3.82646 18.2743 3.60547 18.1377C3.38453 18.001 3.25 17.7598 3.25 17.5V2.25H16.75V17.5ZM4.75 16.2861L6.66504 15.3291L7 15.1611L7.33496 15.3291L10 16.6611L12.665 15.3291L13 15.1611L13.335 15.3291L15.25 16.2861V3.75H4.75V16.2861Z" fill="#000000"/>
</svg>
