<svg xmlns="http://www.w3.org/2000/svg" width="20" height="20" viewBox="0 0 20 20" fill="none"><rect width="20" height="20" fill="none"/>
<path d="M9.52832 2.20166C9.49723 1.39215 10.4299 0.917187 11.0664 1.41846L13.5693 3.39111L16.5615 2.28955L16.7041 2.24853C17.3637 2.11157 17.959 2.70715 17.8223 3.3667L17.7812 3.50928L16.6787 6.50049L18.6523 9.00439C19.1539 9.64103 18.6789 10.5739 17.8691 10.5425L14.6826 10.4165L12.9111 13.0679C12.4605 13.7414 11.4273 13.5782 11.207 12.7983L10.5586 10.5015L3.03027 18.0308L1.96973 16.9702L9.45898 9.47998L7.27246 8.86377C6.49272 8.64338 6.3295 7.61024 7.00293 7.15967L9.65332 5.38721L9.52832 2.20166ZM11.1641 5.63721C11.1768 5.96699 11.0174 6.27981 10.7432 6.46338L8.82715 7.74267L11.0449 8.36963L11.1602 8.41064C11.3848 8.50665 11.5641 8.68607 11.6602 8.91064L11.7012 9.02588L12.3271 11.2437L13.6074 9.32764C13.7911 9.05329 14.1046 8.89385 14.4346 8.90674L16.7354 8.99658L15.3105 7.18701C15.1063 6.92764 15.051 6.58081 15.165 6.271L15.9619 4.10889L13.7998 4.90576C13.4899 5.01984 13.1432 4.96465 12.8838 4.76025L11.0742 3.33447L11.1641 5.63721Z" fill="#000000"/>
</svg>
