<svg xmlns="http://www.w3.org/2000/svg" width="20" height="20" viewBox="0 0 20 20" fill="none"><rect width="20" height="20" fill="none"/>
<path d="M14 10C16.2091 10 18 11.7909 18 14C18 14.8334 17.7437 15.6064 17.3076 16.2471L19.0303 17.9697L17.9697 19.0303L16.2471 17.3076C15.6064 17.7437 14.8334 18 14 18C11.7909 18 10 16.2091 10 14C10 11.7909 11.7909 10 14 10ZM14 11.5C12.6193 11.5 11.5 12.6193 11.5 14C11.5 15.3807 12.6193 16.5 14 16.5C15.3807 16.5 16.5 15.3807 16.5 14C16.5 12.6193 15.3807 11.5 14 11.5Z" fill="#000000"/>
<path d="M14.75 2.5C16.2687 2.50011 17.5 3.73128 17.5 5.25V9H16V5.25C16 4.55971 15.4403 4.00011 14.75 4H5.25C4.55964 4 4 4.55964 4 5.25V14.75C4.00011 15.4403 4.55971 16 5.25 16H9V17.5H5.25C3.73128 17.5 2.50011 16.2687 2.5 14.75V5.25C2.5 3.73122 3.73122 2.5 5.25 2.5H14.75Z" fill="#000000"/>
<path d="M10 10.4492H6V8.94922H10V10.4492Z" fill="#000000"/>
<path d="M13 7.44922H6V5.94922H13V7.44922Z" fill="#000000"/>
</svg>
