<svg xmlns="http://www.w3.org/2000/svg" width="20" height="20" viewBox="0 0 20 20" fill="none"><rect width="20" height="20" fill="none"/>
<path d="M10 7.99979C11.1046 7.99979 12 8.89522 12 9.99979C11.9997 11.1041 11.1044 11.9998 10 11.9998C8.89564 11.9998 8.00034 11.1041 8 9.99979C8 8.89522 8.89543 7.99979 10 7.99979Z" fill="#000000"/>
<path d="M9.78809 4.78006C11.9251 4.15147 14.221 3.46947 17.4316 4.27225L18 4.41483V14.9607L17.0684 14.7273C14.2792 14.0299 12.3247 14.5981 10.2119 15.2195C8.07497 15.848 5.77886 16.5296 2.56836 15.7273L2 15.5857V5.03885L2.93164 5.27225C5.72063 5.96948 7.67535 5.40151 9.78809 4.78006ZM14.4092 5.40897C12.8947 5.43377 11.5869 5.81506 10.2119 6.21952C8.28738 6.7856 6.23428 7.39132 3.5 6.92069V12.4998L5.58789 14.5877C7.10354 14.5636 8.4122 14.1847 9.78809 13.7801C11.7127 13.214 13.7657 12.6071 16.5 13.0779V7.49979L14.4092 5.40897Z" fill="#000000"/>
</svg>
