<svg xmlns="http://www.w3.org/2000/svg" width="20" height="20" viewBox="0 0 20 20" fill="none"><rect width="20" height="20" fill="none"/>
<path d="M18.5303 17.4697L17.4697 18.5303L14.9395 16H2V4H2.93945L1.46973 2.53027L2.53027 1.46973L18.5303 17.4697ZM3.5 12L6 14.5H13.4395L10.7793 11.8398C10.5398 11.9419 10.277 12 10 12C8.89543 12 8 11.1046 8 10C8 9.72289 8.05718 9.45944 8.15918 9.21973L4.43945 5.5H3.5V12Z" fill="#000000"/>
<path d="M18 14.9395L16.5 13.4395V8L14 5.5H8.56055L7.06055 4H18V14.9395Z" fill="#000000"/>
</svg>
