<svg xmlns="http://www.w3.org/2000/svg" width="20" height="20" viewBox="0 0 20 20" fill="none"><rect width="20" height="20" fill="none"/>
<path d="M13.4222 5.5C14.1124 5.50021 14.6722 6.05978 14.6722 6.75C14.6722 7.44022 14.1124 7.99979 13.4222 8C12.7319 8 12.1722 7.44036 12.1722 6.75C12.1722 6.05964 12.7319 5.5 13.4222 5.5Z" fill="#000000"/>
<path d="M16.4222 2C17.3885 2.00021 18.1722 2.78363 18.1722 3.75V9.83594C18.1722 10.2999 17.9875 10.7451 17.6595 11.0732L11.5433 17.1895C10.3718 18.3607 8.47266 18.3606 7.30112 17.1895L2.98276 12.8711C1.81141 11.6996 1.81141 9.80044 2.98276 8.62891L9.09897 2.5127C9.4271 2.18467 9.87229 2.00004 10.3363 2H16.4222ZM10.3363 3.5C10.2701 3.50004 10.2063 3.52652 10.1595 3.57324L4.04331 9.68945C3.45774 10.2752 3.45774 11.2248 4.04331 11.8105L8.36166 16.1289C8.94742 16.7143 9.89708 16.7144 10.4828 16.1289L16.599 10.0127C16.6457 9.96587 16.6722 9.9021 16.6722 9.83594V3.75C16.6722 3.61206 16.5601 3.50021 16.4222 3.5H10.3363Z" fill="#000000"/>
</svg>
