<svg xmlns="http://www.w3.org/2000/svg" width="20" height="20" viewBox="0 0 20 20" fill="none"><rect width="20" height="20" fill="none"/>
<path d="M10.75 6V11.6895L12.4697 9.96973L13.5303 11.0303L10 14.5605L6.46973 11.0303L7.53027 9.96973L9.25 11.6895V6H10.75Z" fill="#000000"/>
<path d="M10 2C14.4183 2 18 5.58172 18 10C17.9999 14.4182 14.4182 18 10 18C5.5818 18 2.00013 14.4182 2 10C2 5.58172 5.58172 2 10 2ZM10 3.5C6.41015 3.5 3.5 6.41015 3.5 10C3.50013 13.5897 6.41023 16.5 10 16.5C13.5898 16.5 16.4999 13.5897 16.5 10C16.5 6.41015 13.5899 3.5 10 3.5Z" fill="#000000"/>
</svg>
