<svg xmlns="http://www.w3.org/2000/svg" width="24" height="24" viewBox="0 0 24 24" fill="none"><rect width="24" height="24" fill="none"/>
<path d="M21.707 20.293L20.293 21.707L18.5459 19.96C18.3673 19.9845 18.1854 20 18 20H6C3.79086 20 2 18.2091 2 16V8C2 6.74609 2.57851 5.62888 3.48145 4.89551L2.29297 3.70703L3.70703 2.29297L21.707 20.293ZM4.91016 6.32422C4.36263 6.68103 4 7.29773 4 8V16C4 17.1046 4.89543 18 6 18H16.5859L4.91016 6.32422Z" fill="#000000"/>
<path d="M18 4C20.2089 4 22 5.79066 22 8V16.002C22 16.6114 21.8628 17.1884 21.6191 17.7051L19.9951 16.0811C19.9961 16.0548 20 16.0285 20 16.002V11H14.9141L12.9141 9H20V8C20 6.89563 19.1048 6 18 6H9.91406L7.91406 4H18Z" fill="#000000"/>
</svg>
