<svg xmlns="http://www.w3.org/2000/svg" width="20" height="20" viewBox="0 0 20 20" fill="none"><rect width="20" height="20" fill="none"/>
<path d="M18.7071 12.707L16.4141 15L18.7071 17.293L17.293 18.707L15 16.4141L12.7071 18.707L11.293 17.293L13.586 15L11.293 12.707L12.7071 11.293L15 13.5859L17.293 11.293L18.7071 12.707Z" fill="#000000"/>
<path d="M15.7207 7H17C17.3045 7.00016 17.5927 7.13968 17.7823 7.37793C17.9718 7.61643 18.0432 7.92875 17.9747 8.22559L17.7959 9H4.24711L5.8018 16H9.00004V18H5.8018C4.86478 17.9996 4.05299 17.3484 3.84965 16.4336L2.02348 8.2168C1.95781 7.92086 2.03014 7.61053 2.21977 7.37402C2.40949 7.1377 2.69699 7.00011 3.00004 7H4.27934L6.0518 1.68359L7.94829 2.31641L6.38676 7H13.6133L12.0518 2.31641L13.9483 1.68359L15.7207 7Z" fill="#000000"/>
</svg>
