<svg xmlns="http://www.w3.org/2000/svg" width="24" height="24" viewBox="0 0 24 24" fill="none"><rect width="24" height="24" fill="none"/>
<path d="M12 13C12.3447 13 12.678 13.0111 13 13.0312V15.0352C12.6885 15.0127 12.3558 15 12 15C9.32507 15 7.9486 15.6554 7.1748 16.6523C6.34938 17.7159 6 19.4158 6 22H4C4 19.3558 4.33023 17.0551 5.59473 15.4258C6.91081 13.7302 9.03458 13 12 13Z" fill="#000000"/>
<path d="M18 14C20.2091 14 22 15.7909 22 18C22 20.2091 20.2091 22 18 22C15.7909 22 14 20.2091 14 18C14 15.7909 15.7909 14 18 14ZM18 16C16.8954 16 16 16.8954 16 18C16 19.1046 16.8954 20 18 20C19.1046 20 20 19.1046 20 18C20 16.8954 19.1046 16 18 16Z" fill="#000000"/>
<path d="M12 2C14.7614 2 17 4.23858 17 7C17 9.76142 14.7614 12 12 12C9.23858 12 7 9.76142 7 7C7 4.23858 9.23858 2 12 2ZM12 4C10.3431 4 9 5.34315 9 7C9 8.65685 10.3431 10 12 10C13.6569 10 15 8.65685 15 7C15 5.34315 13.6569 4 12 4Z" fill="#000000"/>
</svg>
