<svg xmlns="http://www.w3.org/2000/svg" width="20" height="20" viewBox="0 0 20 20" fill="none"><rect width="20" height="20" fill="none"/>
<path d="M16.5 15C16.7761 15 17 15.2239 17 15.5V18H17.5V19L15 18.999V17.999H15.5V15.999H15V14.999L16.5 15Z" fill="#000000"/>
<path d="M15 3C16.6565 3 17.9999 4.34196 18 5.99902V10H16.5V8.5H3.5V14C3.5 14.8284 4.17157 15.5 5 15.5H13V17H5C3.34315 17 2 15.6569 2 14V6C2 4.34315 3.34315 3 5 3H15ZM5 4.5C4.17157 4.5 3.5 5.17157 3.5 6V7H16.5V5.99902C16.4999 5.17103 15.8287 4.5 15 4.5H5Z" fill="#000000"/>
<path d="M16.25 12C16.8023 12 17.25 12.4477 17.25 13C17.25 13.5523 16.8023 14 16.25 14C15.6977 14 15.25 13.5523 15.25 13C15.25 12.4477 15.6977 12 16.25 12Z" fill="#000000"/>
</svg>
