<svg xmlns="http://www.w3.org/2000/svg" width="20" height="20" viewBox="0 0 20 20" fill="none"><rect width="20" height="20" fill="none"/>
<g clip-path="url(#clip0_147603_37369)">
<path d="M16.792 11.0081C17.2119 11.0082 17.6287 11.0894 18.0176 11.2474C18.4067 11.4055 18.7626 11.6382 19.0605 11.9339L19.0596 11.9349C19.6594 12.5301 20.0038 13.3335 20.0039 14.179C20.0038 15.0247 19.6596 15.829 19.0596 16.4242L19.0547 16.429L15.7705 19.639C15.669 19.7633 15.5391 19.8663 15.3848 19.931C15.0132 20.0865 14.584 20.0034 14.2969 19.721L10.9502 16.4251L10.9473 16.4222C10.3477 15.827 10.004 15.0233 10.0039 14.1781C10.0041 13.3328 10.3477 12.529 10.9473 11.9339C11.2451 11.6383 11.6002 11.4055 11.9893 11.2474C12.3784 11.0893 12.7956 11.0081 13.2158 11.0081C13.6359 11.0082 14.0533 11.0893 14.4424 11.2474C14.6391 11.3274 14.8267 11.4277 15.0029 11.5443C15.1796 11.4273 15.3682 11.3275 15.5654 11.2474C15.9545 11.0893 16.3719 11.0081 16.792 11.0081ZM16.792 13.0081C16.6282 13.0081 16.4666 13.0398 16.3184 13.0999C16.1702 13.1601 16.0394 13.2479 15.9326 13.3538L15.9268 13.3587L15.7021 13.5775C15.3136 13.9569 14.6932 13.9569 14.3047 13.5775L14.0811 13.3587L14.0752 13.3538C13.9685 13.2479 13.8375 13.1601 13.6895 13.0999C13.5412 13.0397 13.3796 13.0082 13.2158 13.0081C13.052 13.0081 12.8904 13.0397 12.7422 13.0999C12.5941 13.1601 12.4632 13.2479 12.3564 13.3538C12.1254 13.5832 12.0041 13.8796 12.0039 14.1781C12.004 14.4755 12.1241 14.7712 12.3535 15.0003L14.9941 17.6009L17.6562 14.9993C17.8845 14.7706 18.0038 14.4756 18.0039 14.179C18.0038 13.9178 17.9114 13.6572 17.7334 13.4427L17.6514 13.3538C17.5446 13.2479 17.4128 13.1601 17.2646 13.0999C17.1166 13.0399 16.9556 13.0082 16.792 13.0081Z" fill="#000000"/>
<path d="M7.37402 2.22103C7.61057 2.03128 7.92076 1.95902 8.2168 2.02474L18 4.19954V9.0013H16V5.80306L9 4.24739V18.0013H2V9.0013L7 7.57259V3.0013C7 2.69815 7.13766 2.41083 7.37402 2.22103ZM4 10.5091V16.0013H7V9.65267L4 10.5091Z" fill="#000000"/>
</g>
<defs>
<clipPath id="clip0_147603_37369">
<rect width="20" height="20" fill="white"/>
</clipPath>
</defs>
</svg>
