<svg xmlns="http://www.w3.org/2000/svg" width="20" height="20" viewBox="0 0 20 20" fill="none"><rect width="20" height="20" fill="none"/>
<path d="M18.5303 17.4688L17.4697 18.5293L13.2129 14.2725C12.7344 15.2925 11.7014 16 10.5 16H5C3.34315 16 2 14.6569 2 13V7C2 5.93041 2.56175 4.99492 3.4043 4.46387L1.46973 2.5293L2.53027 1.46875L18.5303 17.4688ZM4.51953 5.5791C3.92683 5.77945 3.5 6.33967 3.5 7V13C3.5 13.8284 4.17157 14.5 5 14.5H10.5C11.3094 14.5 11.9673 13.8588 11.9971 13.0566L4.51953 5.5791Z" fill="#000000"/>
<path d="M10.5 4C12.1516 4 13.4906 5.33471 13.499 6.98438L16.9229 5.3252C17.1553 5.21252 17.4295 5.22713 17.6484 5.36426C17.8673 5.50141 18 5.74174 18 6V14.9385L16.5 13.4385V7.19629L13.5 8.65137V10.4385L12 8.93848V7C12 6.17157 11.3284 5.5 10.5 5.5H8.56152L7.06152 4H10.5Z" fill="#000000"/>
</svg>
