<svg xmlns="http://www.w3.org/2000/svg" width="20" height="20" viewBox="0 0 20 20" fill="none"><rect width="20" height="20" fill="none"/>
<path d="M19.207 12.2068L12.207 19.2068L10.793 17.7927L17.793 10.7927L19.207 12.2068Z" fill="#000000"/>
<path d="M17.5 15.9998C18.3284 15.9998 19 16.6714 19 17.4998C18.9996 18.3279 18.3282 18.9998 17.5 18.9998C16.6719 18.9997 16.0004 18.3278 16 17.4998C16 16.6714 16.6716 15.9998 17.5 15.9998Z" fill="#000000"/>
<path d="M10.7588 2.3738C12.745 1.47114 14.9999 2.92355 15 5.10524V5.9988C16.6568 5.9988 17.9999 7.34202 18 8.9988H16C15.9999 8.44659 15.5522 7.9988 15 7.9988H5C4.44777 7.9988 4.0001 8.44659 4 8.9988V14.9988C4.00037 15.5508 4.44794 15.9988 5 15.9988H9V17.9988H5C3.34337 17.9988 2.00037 16.6553 2 14.9988V8.28688C2.00007 7.11062 2.68801 6.04228 3.75879 5.55544L10.7588 2.3738ZM13 5.10524C12.9999 4.37808 12.248 3.89324 11.5859 4.19411L7.61621 5.9988H13V5.10524Z" fill="#000000"/>
<path d="M12.5 10.9998C13.3284 10.9998 14 11.6714 14 12.4998C13.9996 13.3279 13.3282 13.9998 12.5 13.9998C11.6719 13.9997 11.0004 13.3278 11 12.4998C11 11.6714 11.6716 10.9998 12.5 10.9998Z" fill="#000000"/>
</svg>
