<svg xmlns="http://www.w3.org/2000/svg" width="20" height="20" viewBox="0 0 20 20" fill="none"><rect width="20" height="20" fill="none"/>
<path d="M15.5664 10.5C16.3909 10.5 16.6321 11.0213 16.8408 11.6807L19 18.5H17.4023L16.917 16.8789H14.0254L13.5029 18.5H12L14.2656 11.6807C14.4853 11.0192 14.7417 10.5001 15.5664 10.5ZM14.4629 15.5098H16.499L15.5283 12.2773H15.4902L14.4629 15.5098Z" fill="#000000"/>
<path d="M18 4.5791L17.9844 5.07422C17.9481 5.80948 17.8268 7.28832 17.4268 9H15.8838C16.1452 7.96666 16.2974 7.00102 16.3848 6.22949C16.4084 6.0207 16.4245 5.82695 16.4395 5.65137L10 3.5752L3.55957 5.65137C3.57453 5.82697 3.59159 6.02067 3.61523 6.22949C3.73276 7.26751 3.96685 8.65709 4.42773 10.0898C5.33095 12.8975 6.98195 15.5347 10 16.4434V18C2.99951 16.2729 2.1249 7.29152 2.01562 5.07422L2 4.5791L10 2L18 4.5791Z" fill="#000000"/>
</svg>
