<svg xmlns="http://www.w3.org/2000/svg" width="20" height="20" viewBox="0 0 20 20" fill="none"><rect width="20" height="20" fill="none"/>
<path d="M19.0303 12.0303L12.0303 19.0303L10.9697 17.9697L17.9697 10.9697L19.0303 12.0303Z" fill="#000000"/>
<path d="M17.5 16C18.3284 16 19 16.6716 19 17.5C19 18.3284 18.3284 19 17.5 19C16.6716 19 16 18.3284 16 17.5C16 16.6716 16.6716 16 17.5 16Z" fill="#000000"/>
<path d="M14.75 2.5C16.2687 2.50011 17.5 3.73128 17.5 5.25V9H16V5.25C16 4.55971 15.4403 4.00011 14.75 4H5.25C4.55964 4 4 4.55964 4 5.25V14.75C4.00011 15.4403 4.55971 16 5.25 16H9V17.5H5.25C3.73128 17.5 2.50011 16.2687 2.5 14.75V5.25C2.5 3.73122 3.73122 2.5 5.25 2.5H14.75Z" fill="#000000"/>
<path d="M12.5 11C13.3284 11 14 11.6716 14 12.5C14 13.3284 13.3284 14 12.5 14C11.6716 14 11 13.3284 11 12.5C11 11.6716 11.6716 11 12.5 11Z" fill="#000000"/>
<path d="M10 10.4492H6V8.94922H10V10.4492Z" fill="#000000"/>
<path d="M13 7.44922H6V5.94922H13V7.44922Z" fill="#000000"/>
</svg>
