<svg xmlns="http://www.w3.org/2000/svg" width="20" height="20" viewBox="0 0 20 20" fill="none"><rect width="20" height="20" fill="none"/>
<path d="M11.5 5.99902C13.4329 5.99902 14.9999 7.56612 15 9.49902C15 11.432 13.433 12.999 11.5 12.999C9.567 12.999 8 11.432 8 9.49902C8.00011 7.56612 9.56707 5.99902 11.5 5.99902ZM11.5 7.49902C10.3955 7.49902 9.50011 8.39454 9.5 9.49902C9.5 10.6036 10.3954 11.499 11.5 11.499C12.6046 11.499 13.5 10.6036 13.5 9.49902C13.4999 8.39454 12.6045 7.49902 11.5 7.49902Z" fill="#000000"/>
<path d="M6.4502 11.999H4.9502V6.99902H6.4502V11.999Z" fill="#000000"/>
<path d="M15.2998 2.44922C16.8186 2.44922 18.0498 3.68044 18.0498 5.19922V13.7998C18.0497 15.2679 16.8988 16.4628 15.4502 16.541V17.999H13.9502V16.5498H6.0498V17.999H4.5498V16.541C3.10118 16.4628 1.95035 15.2679 1.9502 13.7998V5.19922C1.9502 3.68044 3.18141 2.44922 4.7002 2.44922H15.2998ZM4.7002 3.94922C4.00984 3.94922 3.4502 4.50886 3.4502 5.19922V13.7998C3.45035 14.49 4.00994 15.0498 4.7002 15.0498H15.2998C15.9901 15.0498 16.5496 14.49 16.5498 13.7998V5.19922C16.5498 4.50886 15.9902 3.94922 15.2998 3.94922H4.7002Z" fill="#000000"/>
</svg>
