<svg xmlns="http://www.w3.org/2000/svg" width="20" height="20" viewBox="0 0 20 20" fill="none"><rect width="20" height="20" fill="none"/>
<path d="M15.7497 2C15.9637 2 16.1679 2.09117 16.3102 2.25098C16.4525 2.41086 16.5196 2.62431 16.4948 2.83691L14.9606 15.9922C14.8804 16.6785 14.3963 17.2501 13.7331 17.4434C11.2949 18.1536 8.70349 18.1539 6.26531 17.4434C5.60234 17.25 5.11982 16.6781 5.03972 15.9922L3.50457 2.83691C3.47978 2.62436 3.54688 2.41084 3.68914 2.25098C3.83141 2.09116 4.03572 2.00005 4.24969 2H15.7497ZM8.07488 8.97559C7.45965 8.9477 6.72254 9.05611 5.7868 9.45996L6.52898 15.8184C6.5392 15.9056 6.60095 15.9782 6.68523 16.0029C8.84939 16.6336 11.1499 16.6335 13.3141 16.0029C13.3985 15.9782 13.4601 15.9055 13.4704 15.8184L14.1335 10.1289C13.4966 10.2925 12.9096 10.3127 12.3503 10.2354C11.4992 10.1176 10.7376 9.77158 10.0905 9.50684C9.41528 9.23061 8.7973 9.00842 8.07488 8.97559ZM5.60711 7.91699C6.54949 7.56446 7.3803 7.4429 8.14324 7.47754C9.13933 7.52282 9.95934 7.83199 10.6589 8.11816C11.3866 8.41589 11.9387 8.66356 12.5563 8.74902C13.054 8.81781 13.6156 8.77859 14.3249 8.4834L14.9069 3.5H5.09246L5.60711 7.91699Z" fill="#000000"/>
</svg>
