<svg xmlns="http://www.w3.org/2000/svg" width="20" height="20" viewBox="0 0 20 20" fill="none"><rect width="20" height="20" fill="none"/>
<path d="M15.6063 2.00586C15.8526 2.03229 16.0819 2.1497 16.2479 2.33691C16.4376 2.55102 16.5274 2.83615 16.493 3.12012L14.951 15.8535C14.8623 16.5853 14.3521 17.1966 13.6483 17.415C11.2723 18.1517 8.7275 18.1519 6.35142 17.415C5.64759 17.1966 5.13731 16.5851 5.04869 15.8535L3.50669 3.12012C3.47236 2.83623 3.56226 2.551 3.75181 2.33691C3.94149 2.12302 4.21398 2.00014 4.49986 2H15.4999L15.6063 2.00586ZM8.06431 9.22559C7.58136 9.20367 7.00819 9.27201 6.29673 9.52832L7.0233 15.5273C8.96411 16.1123 11.0344 16.112 12.9754 15.5273L13.5848 10.4883C13.145 10.5451 12.7241 10.5388 12.3163 10.4824C11.4267 10.3593 10.6305 9.99751 9.99693 9.73828C9.3258 9.46372 8.741 9.25645 8.06431 9.22559ZM6.05162 7.50293C6.81009 7.27709 7.50396 7.19797 8.15513 7.22754C9.19658 7.27498 10.0503 7.59894 10.7538 7.88672C11.4948 8.18988 12.0121 8.42187 12.5907 8.50195C12.9501 8.55159 13.3514 8.5387 13.8387 8.3916L14.371 4H5.62877L6.05162 7.50293Z" fill="#000000"/>
</svg>
