<svg xmlns="http://www.w3.org/2000/svg" width="20" height="20" viewBox="0 0 20 20" fill="none"><rect width="20" height="20" fill="none"/>
<path d="M6.46973 6.46875C6.68183 6.25665 6.9998 6.1914 7.27832 6.30273L17.2783 10.3027C17.5525 10.4124 17.7367 10.6727 17.749 10.9678C17.7613 11.2629 17.5991 11.5378 17.335 11.6699L13.5586 13.5576L11.6709 17.334C11.5388 17.5981 11.2638 17.7603 10.9688 17.748C10.6737 17.7357 10.4134 17.5515 10.3037 17.2773L6.30371 7.27734C6.19238 6.99882 6.25762 6.68085 6.46973 6.46875ZM11.0752 15.1699L12.3291 12.6641L12.4414 12.4404L12.665 12.3281L15.1709 11.0742L8.3457 8.34473L11.0752 15.1699Z" fill="#000000"/>
<path d="M5.03027 10.0293L3.03027 12.0293L1.96973 10.9688L3.96973 8.96875L5.03027 10.0293Z" fill="#000000"/>
<path d="M5.03027 3.96875L3.96973 5.0293L1.96973 3.0293L3.03027 1.96875L5.03027 3.96875Z" fill="#000000"/>
<path d="M12.0303 3.0293L10.0303 5.0293L8.96973 3.96875L10.9697 1.96875L12.0303 3.0293Z" fill="#000000"/>
</svg>
