<svg xmlns="http://www.w3.org/2000/svg" width="20" height="20" viewBox="0 0 20 20" fill="none"><rect width="20" height="20" fill="none"/>
<path d="M18.707 17.293L17.293 18.707L16 17.4141V18H4V16H5V15.1025C5 13.8522 5.39052 12.6328 6.11719 11.6152L7.27051 10L6.11719 8.38477C5.74543 7.8642 5.46187 7.29081 5.27344 6.6875L1.29297 2.70703L2.70703 1.29297L18.707 17.293ZM7.74512 12.7773C7.26054 13.4557 7 14.2688 7 15.1025V16H13V15.1025C13 14.844 12.9719 14.5881 12.9229 14.3369L9.25195 10.666L7.74512 12.7773Z" fill="#000000"/>
<path d="M16 4H15V4.89746C15 6.14783 14.6095 7.36725 13.8828 8.38477L13.2217 9.30762L11.7881 7.87402L12.2549 7.22266C12.7395 6.54425 13 5.73115 13 4.89746V4H7.91406L5.91406 2H16V4Z" fill="#000000"/>
</svg>
