<svg xmlns="http://www.w3.org/2000/svg" width="20" height="20" viewBox="0 0 20 20" fill="none"><rect width="20" height="20" fill="none"/>
<path d="M8.62598 2.42632C9.47621 1.93602 10.5238 1.93602 11.374 2.42632L15.874 5.023C16.7251 5.51406 17.2498 6.42228 17.25 7.40484V12.5943C17.2499 13.5769 16.7251 14.485 15.874 14.9761L11.374 17.5728C10.5238 18.0632 9.47624 18.0632 8.62598 17.5728L4.12598 14.9761C3.27491 14.485 2.75011 13.5769 2.75 12.5943V7.40484C2.75017 6.42228 3.27491 5.51406 4.12598 5.023L8.62598 2.42632ZM9.5 10.939L7.53027 8.96929L6.46973 10.0298L9.5 13.0601L14.0303 8.52984L12.9697 7.46929L9.5 10.939Z" fill="#000000"/>
</svg>
