<svg xmlns="http://www.w3.org/2000/svg" width="20" height="20" viewBox="0 0 20 20" fill="none"><rect width="20" height="20" fill="none"/>
<path d="M15.5664 10.5C16.3909 10.5 16.6321 11.0213 16.8408 11.6807L19 18.5H17.4023L16.917 16.8789H14.0254L13.5029 18.5H12L14.2656 11.6807C14.4853 11.0192 14.7417 10.5001 15.5664 10.5ZM14.4629 15.5098H16.499L15.5283 12.2773H15.4902L14.4629 15.5098Z" fill="#000000"/>
<path d="M15.2998 1.9502C16.8186 1.9502 18.0498 3.18141 18.0498 4.7002V9H16.5498V4.7002C16.5498 4.00984 15.9902 3.4502 15.2998 3.4502H4.7002C4.00984 3.4502 3.4502 4.00984 3.4502 4.7002V15.2998C3.4502 15.9902 4.00984 16.5498 4.7002 16.5498H10V18.0498H4.7002C3.18141 18.0498 1.9502 16.8186 1.9502 15.2998V4.7002C1.9502 3.18141 3.18141 1.9502 4.7002 1.9502H15.2998Z" fill="#000000"/>
<path d="M11 14.4502H5V12.9502H11V14.4502Z" fill="#000000"/>
<path d="M14.9941 6.56445L10.5361 10.4648L8.52441 8.95508L5.98047 11.0762L5.01953 9.92383L8.47559 7.04395L10.4629 8.53516L14.0059 5.43555L14.9941 6.56445Z" fill="#000000"/>
</svg>
