<svg xmlns="http://www.w3.org/2000/svg" width="20" height="20" viewBox="0 0 20 20" fill="none"><rect width="20" height="20" fill="none"/>
<path d="M11.3106 5.9502H15.2999C16.8186 5.9502 18.0499 7.18141 18.0499 8.7002V14C18.0499 15.5188 16.8186 16.75 15.2999 16.75H14.0001V15.25H15.2999C15.9902 15.25 16.5499 14.6904 16.5499 14V8.7002C16.5499 8.00984 15.9902 7.4502 15.2999 7.4502H10.6895L7.68951 4.4502H4.71295C4.01982 4.45055 3.45861 5.01486 3.46295 5.70801L3.51764 14.0078C3.52213 14.6949 4.08058 15.2499 4.76764 15.25H7.00006V13.5C7.00006 13.3183 7.09897 13.1506 7.25787 13.0625C7.4167 12.9746 7.61069 12.9801 7.76471 13.0762L11.7647 15.5762C11.9109 15.6675 12.0001 15.8276 12.0001 16C12.0001 16.1724 11.9109 16.3325 11.7647 16.4238L7.76471 18.9238C7.61069 19.0199 7.4167 19.0254 7.25787 18.9375C7.09897 18.8494 7.00006 18.6817 7.00006 18.5V16.75H4.76764C3.25599 16.7499 2.02752 15.5292 2.01764 14.0176L1.96295 5.71777C1.9532 4.1924 3.18758 2.95055 4.71295 2.9502H8.3106L11.3106 5.9502Z" fill="#000000"/>
</svg>
