<svg xmlns="http://www.w3.org/2000/svg" width="20" height="20" viewBox="0 0 20 20" fill="none"><rect width="20" height="20" fill="none"/>
<path d="M13 10.25C13.4142 10.25 13.75 10.5858 13.75 11V16.25H17V17.75H3V16.25H6.25V11C6.25 10.5858 6.58579 10.25 7 10.25H13ZM7.75 16.25H12.25V11.75H7.75V16.25Z" fill="#000000"/>
<path d="M10.75 3.03613L16.335 5.8291C16.6375 5.98035 16.8017 6.31581 16.7354 6.64746L16.2354 9.14746L14.7646 8.85254L15.1514 6.91406L9.99902 4.33789L4.84766 6.91406L5.23535 8.85254L3.76465 9.14746L3.26465 6.64746C3.19832 6.31582 3.36254 5.98036 3.66504 5.8291L9.25 3.03613V2H10.75V3.03613Z" fill="#000000"/>
</svg>
