<svg xmlns="http://www.w3.org/2000/svg" width="24" height="24" viewBox="0 0 24 24" fill="none"><rect width="24" height="24" fill="none"/>
<path d="M12.0011 10C13.1054 10.0003 14.0011 10.8956 14.0011 12C14.0011 13.1044 13.1054 13.9997 12.0011 14C10.8966 13.9999 10.0011 13.1045 10.0011 12C10.0011 10.8955 10.8966 10.0001 12.0011 10Z" fill="#000000"/>
<path d="M12.1007 5C15.7136 5.00015 18.1869 6.66955 19.7316 8.31543C20.4997 9.13398 21.0431 9.9506 21.3956 10.5635C21.5723 10.8705 21.7026 11.1297 21.7902 11.3154C21.834 11.4083 21.8676 11.4842 21.8907 11.5381C21.9022 11.5648 21.9115 11.5865 21.9181 11.6025C21.9213 11.6103 21.9238 11.6169 21.9259 11.6221C21.9269 11.6245 21.9288 11.6289 21.9288 11.6289L21.9298 11.6318L21.0001 12L21.9298 12.3672L21.9288 12.3711C21.9288 12.3711 21.9269 12.3755 21.9259 12.3779C21.9238 12.3831 21.9213 12.3897 21.9181 12.3975C21.9115 12.4135 21.9022 12.4352 21.8907 12.4619C21.8676 12.5158 21.834 12.5917 21.7902 12.6846C21.7026 12.8703 21.5723 13.1295 21.3956 13.4365C21.0431 14.0494 20.4997 14.866 19.7316 15.6846C18.1869 17.3305 15.7136 18.9998 12.1007 19C8.49122 18.9999 5.97153 17.3339 4.38098 15.6973C3.58862 14.8819 3.02025 14.0678 2.64856 13.457C2.46228 13.1509 2.32394 12.8929 2.23059 12.708C2.18395 12.6156 2.14796 12.5408 2.12317 12.4873C2.11095 12.4609 2.10092 12.4397 2.09387 12.4238C2.09035 12.4159 2.08731 12.4084 2.08508 12.4033C2.08409 12.4011 2.08215 12.3975 2.08215 12.3975L2.08118 12.3945L3.00012 12L2.08118 11.6064L2.08215 11.6025C2.08215 11.6025 2.08409 11.5989 2.08508 11.5967C2.08731 11.5916 2.09035 11.5841 2.09387 11.5762C2.10092 11.5603 2.11095 11.5391 2.12317 11.5127C2.14796 11.4592 2.18395 11.3844 2.23059 11.292C2.32394 11.1071 2.46228 10.8491 2.64856 10.543C3.02025 9.93221 3.58862 9.11811 4.38098 8.30273C5.97153 6.66609 8.49122 5.0001 12.1007 5ZM12.0001 8C9.79113 8.00017 8.00012 9.79097 8.00012 12C8.00012 14.209 9.79113 15.9998 12.0001 16C14.2093 16 16.0001 14.2091 16.0001 12C16.0001 9.79086 14.2093 8 12.0001 8Z" fill="#000000"/>
<path d="M3.00012 12L2.0802 12.3926C1.97327 12.1419 1.97327 11.8581 2.0802 11.6074L3.00012 12Z" fill="#000000"/>
<path d="M21.9308 11.6338C22.0234 11.8691 22.0234 12.1309 21.9308 12.3662L21.0001 12L21.9308 11.6338Z" fill="#000000"/>
</svg>
