<svg xmlns="http://www.w3.org/2000/svg" width="20" height="20" viewBox="0 0 20 20" fill="none"><rect width="20" height="20" fill="none"/>
<path d="M16 16C17.6569 16 19 17.3431 19 19H13C13 17.3431 14.3431 16 16 16Z" fill="#000000"/>
<path d="M15 2C16.6569 2 18 3.34315 18 5V9H16V5C16 4.44772 15.5523 4 15 4H5C4.44772 4 4 4.44772 4 5V15C4 15.5523 4.44772 16 5 16H11V18H5C3.34315 18 2 16.6569 2 15V5C2 3.34315 3.34315 2 5 2H15Z" fill="#000000"/>
<path d="M16 11C17.1046 11 18 11.8954 18 13C18 14.1046 17.1046 15 16 15C14.8954 15 14 14.1046 14 13C14 11.8954 14.8954 11 16 11Z" fill="#000000"/>
<path d="M10 12H6V10H10V12Z" fill="#000000"/>
<path d="M13 8H6V6H13V8Z" fill="#000000"/>
</svg>
