<svg xmlns="http://www.w3.org/2000/svg" width="20" height="20" viewBox="0 0 20 20" fill="none"><rect width="20" height="20" fill="none"/>
<path d="M13 10C13.5523 10 14 10.4477 14 11V16H17V18H3V16H6V11C6 10.4477 6.44772 10 7 10H13ZM8 16H12V12H8V16Z" fill="#000000"/>
<path d="M11 2.88184L16.4473 5.60547C16.8924 5.82802 17.1056 6.34429 16.9482 6.81641L15.9482 9.81641L14.0518 9.18359L14.7773 7.00684L10 4.61816L5.22266 7.00684L5.94824 9.18359L4.05176 9.81641L3.05176 6.81641C2.89444 6.34436 3.10774 5.82806 3.55273 5.60547L9 2.88184V2H11V2.88184Z" fill="#000000"/>
</svg>
