<svg xmlns="http://www.w3.org/2000/svg" width="24" height="24" viewBox="0 0 24 24" fill="none"><rect width="24" height="24" fill="none"/>
<path d="M16 11C16.5523 11 17 11.4477 17 12V19H21V21H3V19H7V12C7 11.4477 7.44772 11 8 11H16ZM9 19H15V13H9V19Z" fill="#000000"/>
<path d="M13 4.32227L19.8711 7.07129C20.3074 7.24579 20.5635 7.70059 20.4863 8.16406L19.9863 11.1641L18.0137 10.8359L18.3809 8.62891L12 6.07715L5.61816 8.62891L5.98633 10.8359L4.01367 11.1641L3.51367 8.16406C3.43654 7.70059 3.69265 7.24579 4.12891 7.07129L11 4.32227V3H13V4.32227Z" fill="#000000"/>
</svg>
