<svg xmlns="http://www.w3.org/2000/svg" width="20" height="20" viewBox="0 0 20 20" fill="none"><rect width="20" height="20" fill="none"/>
<path d="M16.6643 2.05841C17.028 1.9288 17.4342 2.02076 17.7073 2.29376C17.98 2.56696 18.0714 2.9731 17.9416 3.33673L12.9426 17.3367C12.8273 17.6592 12.5541 17.9011 12.22 17.9764C11.8861 18.0513 11.5364 17.9494 11.2942 17.7078L7.89281 14.3074L8.03051 13.7586L8.62524 11.3748L5.6936 12.1082L2.29321 8.70782C2.05108 8.46569 1.94991 8.11615 2.02465 7.78204C2.09984 7.44763 2.34153 7.17471 2.6643 7.05938L16.6643 2.05841ZM4.82446 8.40997L6.30688 9.89239L9.75805 9.03106C10.0986 8.94608 10.459 9.04556 10.7073 9.29376C10.9551 9.54201 11.0559 9.90261 10.9709 10.243L10.1077 13.6932L11.5901 15.1756L15.3479 4.65216L4.82446 8.40997Z" fill="#000000"/>
</svg>
