<svg xmlns="http://www.w3.org/2000/svg" width="24" height="24" viewBox="0 0 24 24" fill="none"><rect width="24" height="24" fill="none"/>
<path d="M10.7266 3.15128C12.5423 2.40284 14.5403 2.29609 16.418 2.84854C18.2957 3.40135 19.9537 4.58336 21.1406 6.21573L21.042 6.28702L19.1035 6.86808C18.217 5.85637 17.0898 5.13147 15.8535 4.76749C14.4147 4.34412 12.8852 4.42456 11.4893 4.99991C10.0912 5.57636 8.886 6.62557 8.07324 8.01163C7.88753 8.32841 7.7256 8.65873 7.58691 8.99893H15.001V10.9989H7.06543C6.99571 11.5533 6.98194 12.1183 7.03027 12.6835C7.03931 12.789 7.04936 12.8943 7.0625 12.9989H13.001V14.9989H7.58594C7.89399 15.7543 8.31752 16.4534 8.84082 17.0653C9.8672 18.2653 11.2199 19.0651 12.6846 19.3661C14.1477 19.6665 15.6674 19.4584 17.0195 18.7655C17.803 18.3639 18.5098 17.8083 19.1035 17.1308L21.1631 17.7489C20.3128 18.9292 19.2091 19.8914 17.9326 20.5458C16.179 21.4445 14.1947 21.718 12.2812 21.3251C10.3681 20.9319 8.62654 19.8932 7.32031 18.3661C6.48201 17.3859 5.85237 16.2373 5.46191 14.9989H2.00098V12.9989H5.05176C5.04693 12.9508 5.04124 12.9027 5.03711 12.8544C4.984 12.2336 4.99022 11.6121 5.05176 10.9989H2.00098V8.99893H5.46191C5.68146 8.30264 5.97748 7.63133 6.34766 6.99991C7.37355 5.25032 8.91099 3.89998 10.7266 3.15128Z" fill="#000000"/>
</svg>
