<svg xmlns="http://www.w3.org/2000/svg" width="24" height="24" viewBox="0 0 24 24" fill="none"><rect width="24" height="24" fill="none"/>
<path d="M6.00049 10C6.55261 10 7.00022 10.4479 7.00049 11V13C7.00049 13.5523 6.55277 14 6.00049 14C5.4482 14 5.00049 13.5523 5.00049 13V11C5.00075 10.4479 5.44837 10 6.00049 10Z" fill="#000000"/>
<path d="M18.0005 5C20.2095 5 22.0002 6.79109 22.0005 9V15.001C22.0005 17.2101 20.2096 19.001 18.0005 19.001H6.00049C3.79135 19.001 2.00049 17.2101 2.00049 15.001V9C2.00075 6.79109 3.79151 5 6.00049 5H18.0005ZM6.00049 7C4.89608 7 4.00075 7.89566 4.00049 9V15.001C4.00049 16.1055 4.89592 17.001 6.00049 17.001H18.0005C19.1051 17.001 20.0005 16.1055 20.0005 15.001V9C20.0002 7.89566 19.1049 7 18.0005 7H6.00049Z" fill="#000000"/>
</svg>
