<svg xmlns="http://www.w3.org/2000/svg" width="24" height="24" viewBox="0 0 24 24" fill="none"><rect width="24" height="24" fill="none"/>
<path d="M11.9998 2C13.2261 2.00006 14.3906 2.45223 15.1971 2.85547C15.6105 3.06221 15.9551 3.26921 16.1971 3.4248C16.3181 3.50258 16.4151 3.5685 16.4832 3.61621C16.5172 3.63999 16.5448 3.65969 16.5643 3.67383C16.5738 3.68078 16.5818 3.68706 16.5877 3.69141C16.5905 3.69341 16.5936 3.6949 16.5955 3.69629L16.5975 3.69824L16.5994 3.69922C16.5963 3.70383 16.5534 3.76183 15.9998 4.5L16.5994 3.69922C16.8228 3.86687 16.9668 4.12156 16.9949 4.39941C17.0228 4.67737 16.9324 4.9552 16.7469 5.16406L13.7537 8.53027L15.8533 9.23047C17.7054 9.84793 19.1418 11.3284 19.7029 13.1982L20.4129 15.5635C21.3747 18.7711 18.9726 21.9996 15.6238 22H8.3758C5.0269 21.9998 2.62491 18.7712 3.58674 15.5635L4.2967 13.1982C4.85789 11.3286 6.2935 9.84798 8.14533 9.23047L10.2449 8.53027L7.25275 5.16406C7.06716 4.95518 6.97685 4.67744 7.00471 4.39941C7.03289 4.12155 7.17682 3.86784 7.40021 3.7002L7.99982 4.5C7.44496 3.76 7.40316 3.70455 7.40021 3.7002L7.40412 3.69629C7.40601 3.69496 7.40923 3.69334 7.41193 3.69141C7.41776 3.68709 7.42593 3.68069 7.43537 3.67383C7.45484 3.65971 7.48255 3.63992 7.51643 3.61621C7.58457 3.56853 7.68168 3.50251 7.80256 3.4248C8.04458 3.26926 8.38926 3.06212 8.80256 2.85547C9.6091 2.45228 10.7737 2.00011 11.9998 2ZM8.77814 11.1279C7.54349 11.5396 6.58583 12.5269 6.21174 13.7734L5.50275 16.1377C4.92571 18.0623 6.36655 19.9998 8.3758 20H15.6238C17.633 19.9996 19.0739 18.0622 18.4969 16.1377L17.7879 13.7734C17.4138 12.5269 16.4561 11.5397 15.2215 11.1279L11.9998 10.0537L8.77814 11.1279ZM11.9998 4C11.2268 4.00011 10.3904 4.29793 9.69709 4.64453C9.64268 4.67174 9.58929 4.69952 9.53791 4.72656L11.9998 7.49414L14.4608 4.72656C14.4096 4.69962 14.3567 4.67163 14.3026 4.64453C13.6093 4.2979 12.773 4.00007 11.9998 4Z" fill="#000000"/>
</svg>
