<svg xmlns="http://www.w3.org/2000/svg" width="24" height="24" viewBox="0 0 24 24" fill="none"><rect width="24" height="24" fill="none"/>
<path d="M20 14C20 16.7614 17.7614 19 15 19H9V21C9 21.1801 8.90284 21.3468 8.74609 21.4356C8.58951 21.524 8.39745 21.5212 8.24316 21.4287L3.24316 18.4287C3.09257 18.3384 3 18.1756 3 18C3.00001 17.8462 3.07079 17.7025 3.18945 17.6084L3.24316 17.5713L8.24316 14.5713C8.39745 14.4789 8.58951 14.476 8.74609 14.5645C8.90284 14.6532 8.99999 14.8199 9 15V17H15C16.6568 17 18 15.6568 18 14V12H20V14Z" fill="#000000"/>
<path d="M15.2539 2.56446C15.4105 2.476 15.6026 2.47888 15.7568 2.5713L20.7568 5.5713C20.9074 5.66166 21 5.82439 21 6.00001C21 6.15378 20.9292 6.29753 20.8105 6.39161L20.7568 6.42872L15.7568 9.42872C15.6025 9.52116 15.4105 9.52403 15.2539 9.43556C15.0972 9.3468 15 9.18014 15 9.00001V7.00001H9C7.34315 7.00001 6.00001 8.34316 6 10V12H4V10C4.00001 7.23859 6.23858 5.00001 9 5.00001H15V3.00001C15 2.81989 15.0972 2.65321 15.2539 2.56446Z" fill="#000000"/>
</svg>
