<svg xmlns="http://www.w3.org/2000/svg" width="20" height="20" viewBox="0 0 20 20" fill="none"><rect width="20" height="20" fill="none"/>
<path d="M14.4141 10L10.707 13.707L9.29297 12.293L10.5859 11H6V9H10.5859L9.29297 7.70703L10.707 6.29297L14.4141 10Z" fill="#000000"/>
<path d="M10 2C14.4182 2.00013 18 5.5818 18 10C18 14.4182 14.4182 17.9999 10 18C5.58172 18 2 14.4183 2 10C2 5.58172 5.58172 2 10 2ZM10 4C6.68629 4 4 6.68629 4 10C4 13.3137 6.68629 16 10 16C13.3136 15.9999 16 13.3136 16 10C16 6.68637 13.3136 4.00013 10 4Z" fill="#000000"/>
</svg>
