<svg xmlns="http://www.w3.org/2000/svg" width="24" height="24" viewBox="0 0 24 24" fill="none"><rect width="24" height="24" fill="none"/>
<path d="M4 10.9688L9.90332 3H12.3926L6.58008 10.8457L12.8506 20.9736L12.8076 21H10.5137L5.29883 12.5752L4 14.3301V21H2V3H4V10.9688Z" fill="#000000"/>
<path d="M17.7178 10.0186C18.9224 9.91233 20.1223 10.2898 21.0938 11.0811C21.6322 11.5197 22.0793 12.0704 22.416 12.6943L20.4717 13.3418C20.2872 13.0689 20.0722 12.8283 19.8311 12.6318C19.2477 12.1566 18.5593 11.9521 17.8936 12.0107C17.2259 12.0698 16.5604 12.3967 16.0361 12.9873C15.5078 13.5829 15.1685 14.4013 15.123 15.2969C15.0778 16.1927 15.3325 17.0562 15.8066 17.7256C16.2781 18.391 16.9193 18.8027 17.584 18.9443C18.244 19.0848 18.9395 18.9631 19.5527 18.5713C19.904 18.3466 20.2175 18.0353 20.4727 17.6572L22.418 18.3057C21.9856 19.1078 21.3724 19.7821 20.6299 20.2568C19.5846 20.9248 18.3546 21.153 17.168 20.9004C15.9814 20.6477 14.9181 19.9308 14.1748 18.8818C13.4319 17.833 13.0588 16.523 13.126 15.1953C13.1933 13.868 13.6953 12.6116 14.5391 11.6602C15.3834 10.7087 16.5133 10.125 17.7178 10.0186Z" fill="#000000"/>
<path d="M23.002 14.3232H23V14.3145C23.0006 14.3173 23.0014 14.3204 23.002 14.3232Z" fill="#000000"/>
<path d="M18.0273 5.87109L20.2832 3H22.5732L19.4297 7H16.626L13.625 3H15.874L18.0273 5.87109Z" fill="#000000"/>
</svg>
