<svg xmlns="http://www.w3.org/2000/svg" width="24" height="24" viewBox="0 0 24 24" fill="none"><rect width="24" height="24" fill="none"/>
<path d="M8.1582 3.06035C8.41185 2.96811 8.69253 2.98198 8.93555 3.09941C9.17817 3.21685 9.36292 3.42769 9.44824 3.68339L9.76465 4.63261C10.0371 5.44881 10.8016 5.99973 11.6621 5.9998H12.3379C13.1984 5.99973 13.9629 5.44881 14.2354 4.63261L14.5518 3.68339L14.5879 3.58964C14.6838 3.37643 14.8521 3.20218 15.0645 3.09941C15.3075 2.98198 15.5881 2.96811 15.8418 3.06035L22 5.2996V11.9998H19V20.9998H5V11.9998H2V5.2996L8.1582 3.06035ZM16.1221 5.28984C15.5701 6.9087 14.0503 7.99973 12.3379 7.9998H11.6621C9.94959 7.99973 8.42887 6.90886 7.87695 5.28984L4 6.69902V9.9998H7V18.9998H17V9.9998H20V6.69902L16.1221 5.28984Z" fill="#000000"/>
</svg>
