<svg xmlns="http://www.w3.org/2000/svg" width="20" height="20" viewBox="0 0 20 20" fill="none"><rect width="20" height="20" fill="none"/>
<path d="M10.7507 3.0791C13.0249 3.49184 14.7505 5.48183 14.7507 7.875V10.1924C14.7508 10.3003 14.7712 10.4076 14.8113 10.5078L15.9226 13.2861C16.2505 14.1068 15.6461 14.9993 14.7624 15H12.7497L12.7351 15.2812C12.5942 16.6678 11.4235 17.7499 9.99974 17.75C8.57604 17.7498 7.40425 16.6678 7.26341 15.2812L7.24974 15H5.19408C4.34127 14.9996 3.73888 14.1637 4.00853 13.3545L4.95677 10.5098C4.98563 10.4232 5.00071 10.3315 5.00072 10.2402V7.875C5.00077 5.39445 6.85351 3.34685 9.25072 3.04004V1H10.7507V3.0791ZM8.7556 15.1279C8.81964 15.7581 9.3527 16.2498 9.99974 16.25C10.69 16.2499 11.2497 15.6903 11.2497 15H8.74974L8.7556 15.1279ZM9.87572 4.5C8.01196 4.50022 6.50077 6.01125 6.50072 7.875V10.2402C6.50072 10.4927 6.45943 10.7439 6.37962 10.9834L5.54076 13.5H14.3933L13.4187 11.0645C13.3078 10.7871 13.2508 10.491 13.2507 10.1924V7.875C13.2506 6.01145 11.7391 4.50052 9.87572 4.5Z" fill="#000000"/>
</svg>
