<svg xmlns="http://www.w3.org/2000/svg" width="20" height="20" viewBox="0 0 20 20" fill="none"><rect width="20" height="20" fill="none"/>
<path d="M13.6797 11.0049C15.5292 11.0984 17 12.6273 17 14.5C17 16.433 15.433 18 13.5 18H6.5C4.567 18 3 16.433 3 14.5C3 12.567 4.567 11 6.5 11H13.5L13.6797 11.0049ZM6.5 12.5C5.39543 12.5 4.5 13.3954 4.5 14.5C4.5 15.6046 5.39543 16.5 6.5 16.5C7.60457 16.5 8.5 15.6046 8.5 14.5C8.5 13.3954 7.60457 12.5 6.5 12.5ZM9.37207 12.5C9.76762 13.067 10 13.7563 10 14.5C10 15.2437 9.76762 15.933 9.37207 16.5H13.5C14.6046 16.5 15.5 15.6046 15.5 14.5C15.5 13.3954 14.6046 12.5 13.5 12.5H9.37207Z" fill="#000000"/>
<path d="M13.6797 2.00488C13.7582 2.00886 13.836 2.01632 13.9131 2.02539C14.1058 2.04806 14.2937 2.08598 14.4756 2.13867C14.4908 2.14309 14.5063 2.14675 14.5215 2.15137C14.6141 2.17959 14.7047 2.21252 14.7939 2.24805C14.8102 2.25454 14.8266 2.26085 14.8428 2.26758C14.9293 2.30356 15.0138 2.34318 15.0967 2.38574C15.1133 2.39426 15.1301 2.40236 15.1465 2.41113C15.1638 2.4204 15.1811 2.4299 15.1982 2.43945C15.2337 2.45917 15.269 2.4791 15.3037 2.5C15.3169 2.50793 15.3297 2.51632 15.3428 2.52441C15.372 2.54257 15.401 2.5611 15.4297 2.58008C15.4568 2.59804 15.4832 2.61705 15.5098 2.63574C15.527 2.64785 15.5445 2.65947 15.5615 2.67188C15.6389 2.72838 15.7137 2.78807 15.7861 2.85059C15.7933 2.85677 15.8005 2.8629 15.8076 2.86914C15.8359 2.89393 15.8632 2.91964 15.8906 2.94531C15.9106 2.96404 15.9306 2.98276 15.9502 3.00195C15.966 3.01743 15.9816 3.03306 15.9971 3.04883C16.0168 3.06887 16.0365 3.08887 16.0557 3.10938C16.117 3.17494 16.1752 3.24334 16.2314 3.31348C16.2455 3.33101 16.2597 3.3484 16.2734 3.36621C16.2909 3.38885 16.3083 3.4115 16.3252 3.43457C16.3405 3.45548 16.3553 3.47679 16.3701 3.49805C16.3855 3.5201 16.4011 3.54203 16.416 3.56445C16.4938 3.6814 16.5644 3.80342 16.6279 3.92969C16.6642 4.00188 16.6981 4.07544 16.7295 4.15039C16.7396 4.17463 16.7492 4.19912 16.7588 4.22363C16.7907 4.30494 16.8199 4.38754 16.8457 4.47168C16.888 4.6095 16.9211 4.75102 16.9463 4.89551C16.9514 4.92477 16.9575 4.9539 16.9619 4.9834C16.9869 5.15199 17 5.32447 17 5.5C17 7.433 15.433 9 13.5 9H6.5C4.567 9 3 7.433 3 5.5C3 3.567 4.567 2 6.5 2H13.5L13.6797 2.00488ZM6.5 3.5C5.39543 3.5 4.5 4.39543 4.5 5.5C4.5 6.60457 5.39543 7.5 6.5 7.5H10.6279C10.2324 6.93303 10 6.24374 10 5.5C10 4.75626 10.2324 4.06697 10.6279 3.5H6.5ZM13.5 3.5C12.3954 3.5 11.5 4.39543 11.5 5.5C11.5 6.60457 12.3954 7.5 13.5 7.5C14.6046 7.5 15.5 6.60457 15.5 5.5C15.5 4.39543 14.6046 3.5 13.5 3.5Z" fill="#000000"/>
</svg>
