<svg xmlns="http://www.w3.org/2000/svg" width="20" height="20" viewBox="0 0 20 20" fill="none"><rect width="20" height="20" fill="none"/>
<path d="M15.5 12C17.433 12 19 13.567 19 15.5C19 17.433 17.433 19 15.5 19C13.567 19 12 17.433 12 15.5C12 13.567 13.567 12 15.5 12ZM15.5 14C14.6716 14 14 14.6716 14 15.5C14 16.3284 14.6716 17 15.5 17C16.3284 17 17 16.3284 17 15.5C17 14.6716 16.3284 14 15.5 14Z" fill="#000000"/>
<path d="M9 2C10.6569 2 12 3.34315 12 5V6H13C14.6569 6 16 7.34315 16 9V10H14V9C14 8.44772 13.5523 8 13 8H10V5C10 4.44772 9.55228 4 9 4H6V16H10V18H4V2H9Z" fill="#000000"/>
</svg>
