<svg xmlns="http://www.w3.org/2000/svg" width="20" height="20" viewBox="0 0 20 20" fill="none"><rect width="20" height="20" fill="none"/>
<path d="M18 10.5H16.5605L10.5781 17.7285C10.4356 17.9007 10.2235 18 10 18C9.77654 18 9.56436 17.9007 9.42188 17.7285L3.43945 10.5H2V9.00001H18V10.5ZM10 16.0723L14.6123 10.5H5.3877L10 16.0723Z" fill="#000000"/>
<path d="M12.0029 2.00001C12.2317 2.00101 12.4484 2.10635 12.5898 2.28614L16.6875 7.50098H14.7793L11.9941 3.95704L10.1855 6.21876C10.0549 6.38185 9.86177 6.48314 9.65332 6.49805C9.44484 6.51291 9.23941 6.43982 9.08691 6.29688L8.0166 5.29297L5.80859 7.50098H3.68848L7.46973 3.71876L7.58496 3.62501C7.86895 3.43598 8.25441 3.46036 8.5127 3.70215L9.52051 4.64747L11.4141 2.28126L11.4717 2.21778C11.612 2.07852 11.8029 1.99922 12.0029 2.00001Z" fill="#000000"/>
</svg>
