<svg xmlns="http://www.w3.org/2000/svg" width="24" height="24" viewBox="0 0 24 24" fill="none"><rect width="24" height="24" fill="none"/>
<path d="M14.9995 14H8.99954V12H14.9995V14Z" fill="#000000"/>
<path d="M18.7202 8H20.4995C20.8052 8 21.0941 8.14026 21.2837 8.37988C21.4733 8.61958 21.5435 8.93307 21.4732 9.23047L19.2368 18.6904C18.9168 20.0439 17.7078 21 16.3169 21H7.09622C5.69564 20.9999 4.48085 20.0308 4.17044 18.665L2.02396 9.22168C1.95667 8.92523 2.02869 8.6136 2.21829 8.37598C2.40798 8.13856 2.69565 8.0001 2.99954 8H5.27884L7.0513 2.68359L8.94778 3.31641L7.38626 8H16.6128L15.0513 3.31641L16.9478 2.68359L18.7202 8ZM6.12064 18.2217C6.22409 18.6769 6.62945 18.9999 7.09622 19H16.3169C16.7804 19 17.1838 18.6815 17.2906 18.2305L19.2349 10H4.25247L6.12064 18.2217Z" fill="#000000"/>
</svg>
