<svg xmlns="http://www.w3.org/2000/svg" width="20" height="20" viewBox="0 0 20 20" fill="none"><rect width="20" height="20" fill="none"/>
<path d="M18.9999 19H10.9999V17H18.9999V19Z" fill="#000000"/>
<path d="M9.99891 2.00098C11.0457 2.00106 12.0517 2.29638 12.7616 2.56641C13.123 2.70395 13.4262 2.84199 13.6395 2.94629C13.7457 2.99821 13.832 3.04302 13.8925 3.0752C13.9221 3.09098 13.9473 3.10467 13.9647 3.11426C13.9729 3.11877 13.9809 3.12303 13.9862 3.12598C13.9884 3.12721 13.9931 3.12988 13.9931 3.12988L13.995 3.13184H13.997C13.9914 3.14202 13.9408 3.23149 13.5018 4.00098L13.997 3.13184C14.2676 3.28639 14.4516 3.55928 14.4931 3.86816C14.5341 4.17666 14.4288 4.48784 14.2089 4.70801L11.6874 7.22656L13.8729 8.31934C14.2434 8.50465 14.5857 8.73482 14.8944 9H10.7616L9.99989 8.61914L7.02137 10.1084C6.26984 10.4845 5.70935 11.1597 5.4784 11.9678L5.05458 13.4512C4.69035 14.7282 5.64951 16.0003 6.97743 16.001H8.99989V18.001H6.97743C4.32088 18.0003 2.4018 15.4568 3.13075 12.9023L3.55555 11.418C3.94053 10.0709 4.87395 8.94618 6.12684 8.31934L8.31141 7.22656L5.79481 4.70801C5.57518 4.48795 5.46974 4.17636 5.51063 3.86816C5.55192 3.56017 5.73542 3.28765 6.00477 3.13281L6.00672 3.13184L6.00965 3.13086L6.037 3.11523C6.05416 3.10574 6.0799 3.09186 6.10926 3.07617C6.16942 3.04405 6.25631 2.99922 6.36219 2.94727C6.57487 2.84297 6.87758 2.70399 7.23817 2.56641C7.94679 2.29622 8.95197 2.00126 9.99891 2.00098ZM9.99891 4.00098C9.40776 4.00122 8.78485 4.14705 8.24403 4.33008L9.99989 6.08594L11.7567 4.33008C11.2143 4.1469 10.5904 4.00105 9.99891 4.00098Z" fill="#000000"/>
<path d="M18.7577 13.9658L11.2577 15.9658L10.7421 14.0342L18.2421 12.0342L18.7577 13.9658Z" fill="#000000"/>
</svg>
