<svg xmlns="http://www.w3.org/2000/svg" width="20" height="20" viewBox="0 0 20 20" fill="none"><rect width="20" height="20" fill="none"/>
<path d="M11.1416 10.71H8.81543L9.98926 7.15527H10.0322L11.1416 10.71Z" fill="#000000"/>
<path d="M10 2C14.4182 2 18 5.58172 18 10C18 14.4182 14.4182 18 10 18C5.58172 18 2 14.4182 2 10C2 5.58172 5.58172 2 10 2ZM10.0762 5.2002C9.13366 5.2002 8.84094 5.77054 8.58984 6.49805L6 14H7.71777L8.31543 12.2168H11.6191L12.1738 14H14L11.5322 6.49805C11.2937 5.77297 11.0182 5.20026 10.0762 5.2002Z" fill="#000000"/>
</svg>
