<svg xmlns="http://www.w3.org/2000/svg" width="24" height="24" viewBox="0 0 24 24" fill="none"><rect width="24" height="24" fill="none"/>
<path d="M10.8529 3.1371C11.3521 2.19213 12.7507 2.22369 13.1907 3.23085L15.4925 8.50819L20.9241 9.03163C22.0446 9.13947 22.5077 10.5231 21.6781 11.2836L17.6419 14.9799L18.6986 20.1303C18.9257 21.2389 17.7264 22.0889 16.7562 21.5062L11.9993 18.6488L7.24251 21.5062C6.27246 22.088 5.07234 21.2384 5.29915 20.1303L6.35676 14.9799L2.32063 11.2836C1.49187 10.5232 1.95499 9.14012 3.07454 9.03163L8.50618 8.50819L10.8079 3.23085L10.8529 3.1371ZM10.3392 9.308C10.0487 9.97338 9.4203 10.4299 8.69758 10.4994L4.83137 10.8705L7.70735 13.5053C8.22597 13.9803 8.45702 14.6933 8.31575 15.3822L7.57942 18.9701L10.97 16.9349C11.6035 16.5546 12.3951 16.5549 13.0286 16.9349L16.4183 18.9701L15.6829 15.3822C15.5418 14.6935 15.7731 13.9803 16.2913 13.5053L19.1663 10.8705L15.3011 10.4994C14.5787 10.4295 13.9498 9.97326 13.6595 9.308L11.9993 5.50135L10.3392 9.308Z" fill="#000000"/>
</svg>
