<svg xmlns="http://www.w3.org/2000/svg" width="20" height="20" viewBox="0 0 20 20" fill="none"><rect width="20" height="20" fill="none"/>
<path d="M6.82617 2.09528C6.9891 2.06652 7.15781 2.07857 7.31641 2.13141L12.9707 4.01618L16.6328 2.56989C16.9406 2.44844 17.2889 2.48735 17.5625 2.67341C17.8361 2.85954 17.9999 3.16969 18 3.50055V14.5006C17.9998 14.9108 17.7488 15.2795 17.3672 15.4302L13.3672 17.0103C13.1487 17.0965 12.9065 17.1032 12.6836 17.0289L7.01074 15.1363L3.33496 16.442C3.02881 16.5507 2.68824 16.5043 2.42285 16.317C2.15784 16.1296 2.00016 15.8251 2 15.5006V4.50055C2.00015 4.07758 2.26652 3.69989 2.66504 3.55817L6.66504 2.13727L6.82617 2.09528ZM8 13.359L12 14.692V5.79938L8 4.4654V13.359ZM14 5.75934V14.609L16 13.8189V4.9693L14 5.75934ZM4 5.20563V14.0836L6 13.3726V4.49469L4 5.20563Z" fill="#000000"/>
</svg>
