<svg xmlns="http://www.w3.org/2000/svg" width="24" height="24" viewBox="0 0 24 24" fill="none"><rect width="24" height="24" fill="none"/>
<path d="M17.5 13C19.9853 13 22 15.0147 22 17.5C22 18.3804 21.7456 19.2009 21.3086 19.8945L23.207 21.793L21.793 23.207L19.8945 21.3086C19.2009 21.7456 18.3804 22 17.5 22C15.0147 22 13 19.9853 13 17.5C13 15.0147 15.0147 13 17.5 13ZM17.5 15C16.1193 15 15 16.1193 15 17.5C15 18.8807 16.1193 20 17.5 20C18.8807 20 20 18.8807 20 17.5C20 16.1193 18.8807 15 17.5 15Z" fill="#000000"/>
<path d="M15.7637 4C16.8999 4 17.9391 4.64191 18.4473 5.6582L19.6182 8H22C22 8.90443 21.3991 9.66681 20.5752 9.91406L21.0186 10.8008L21.0029 11H18.8818L16.6582 6.55273C16.4888 6.21401 16.1424 6 15.7637 6H8.23633C7.85759 6 7.51121 6.21401 7.3418 6.55273L5.01855 11.1982L5.39551 16H11V18H6V20H4V18H3.5459L2.98145 10.8008L3.42383 9.91406C2.60037 9.66653 2 8.9041 2 8H4.38184L5.55273 5.6582C6.06093 4.64191 7.10005 4 8.23633 4H15.7637Z" fill="#000000"/>
<path d="M8 11C8.55228 11 9 11.4477 9 12C9 12.5523 8.55228 13 8 13H7C6.44772 13 6 12.5523 6 12C6 11.4477 6.44772 11 7 11H8Z" fill="#000000"/>
</svg>
