<svg xmlns="http://www.w3.org/2000/svg" width="20" height="20" viewBox="0 0 20 20" fill="none"><rect width="20" height="20" fill="none"/>
<path d="M8 4.3418C5.66972 5.1655 4.00003 7.38765 4 10C4.00004 13.3137 6.68632 16 10 16C12.6123 16 14.8334 14.3301 15.6572 12H17.748C16.8599 15.4504 13.7277 18 10 18C5.58175 18 2.00004 14.4182 2 10C2.00004 6.27236 4.54957 3.14003 8 2.25195V4.3418Z" fill="#000000"/>
<path d="M10 2C11.0506 2 12.0909 2.20734 13.0615 2.60938C14.0321 3.01141 14.9144 3.59995 15.6572 4.34277C16.4 5.08559 16.9886 5.96795 17.3906 6.93848C17.7927 7.90908 18 8.94943 18 10H10V2ZM12 8H15.6562C15.6211 7.90051 15.5834 7.80181 15.543 7.7041C15.2414 6.97615 14.7993 6.31496 14.2422 5.75781C13.685 5.20066 13.0239 4.75856 12.2959 4.45703C12.1982 4.41656 12.0995 4.37893 12 4.34375V8Z" fill="#000000"/>
</svg>
