<svg xmlns="http://www.w3.org/2000/svg" width="20" height="20" viewBox="0 0 20 20" fill="none"><rect width="20" height="20" fill="none"/>
<path d="M17 11C18.6568 11 20 12.3431 20 14C20 15.6569 18.6568 17 17 17H16V18H18V19H16V20H14V19H13V18H14V17H13V15H14V11H17ZM16 15H17C17.5523 15 18 14.5523 18 14C18 13.4477 17.5523 13 17 13H16V15Z" fill="#000000"/>
<path d="M14 3.00195C15.1042 3.00238 16 3.89764 16 5.00195V9H14V5.00195H5.99999V10.002H12V12.002H5.67675L4.47753 15.002H11V17.002H2.99999C2.66837 17.0018 2.35784 16.8371 2.17187 16.5625C1.98609 16.2879 1.94831 15.9387 2.07128 15.6309L3.99999 10.8086V5.00195C3.99999 3.89751 4.8956 3.00216 5.99999 3.00195H14Z" fill="#000000"/>
</svg>
