<svg xmlns="http://www.w3.org/2000/svg" width="20" height="20" viewBox="0 0 20 20" fill="none"><rect width="20" height="20" fill="none"/>
<path d="M12 11C13.3059 11 14.4141 11.8353 14.8262 13H18V15H14.8262C14.4141 16.1647 13.3059 17 12 17C10.6941 17 9.58594 16.1647 9.17383 15H2V13H9.17383C9.58594 11.8353 10.6941 11 12 11ZM12 13C11.4477 13 11 13.4477 11 14C11 14.5523 11.4477 15 12 15C12.5523 15 13 14.5523 13 14C13 13.4477 12.5523 13 12 13Z" fill="#000000"/>
<path d="M8 3C9.30585 3 10.4141 3.83532 10.8262 5H18V7H10.8262C10.4141 8.16468 9.30585 9 8 9C6.69415 9 5.58594 8.16468 5.17383 7H2V5H5.17383C5.58594 3.83532 6.69415 3 8 3ZM8 5C7.44772 5 7 5.44772 7 6C7 6.55228 7.44772 7 8 7C8.55229 7 9 6.55228 9 6C9 5.44772 8.55229 5 8 5Z" fill="#000000"/>
</svg>
