<svg xmlns="http://www.w3.org/2000/svg" width="24" height="24" viewBox="0 0 24 24" fill="none"><rect width="24" height="24" fill="none"/>
<path d="M21 14H22.5V16H18.5C18.2239 16 18 16.2239 18 16.5C18 16.7761 18.2239 17 18.5 17H20.5C21.8807 17 23 18.1193 23 19.5C23 20.7094 22.141 21.7175 21 21.9492V23H19V22H16.5V20H20.5C20.7761 20 21 19.7761 21 19.5C21 19.2239 20.7761 19 20.5 19H18.5C17.1193 19 16 17.8807 16 16.5C16 15.1193 17.1193 14 18.5 14H19V13H21V14Z" fill="#000000"/>
<path d="M13 3C15.2091 3 17 4.79086 17 7H18C20.2091 7 22 8.79086 22 11H20C20 9.89543 19.1046 9 18 9H6C4.89543 9 4 9.89543 4 11V17C4 18.1046 4.89543 19 6 19H14V21H6C3.79086 21 2 19.2091 2 17V11C2 8.79086 3.79086 7 6 7H7C7 4.79086 8.79086 3 11 3H13ZM11 5C9.89543 5 9 5.89543 9 7H15C15 5.89543 14.1046 5 13 5H11Z" fill="#000000"/>
</svg>
