<svg xmlns="http://www.w3.org/2000/svg" width="24" height="24" viewBox="0 0 24 24" fill="none"><rect width="24" height="24" fill="none"/>
<path d="M12.0001 9C13.657 9 15.0001 10.3431 15.0001 12C15.0001 13.6569 13.657 15 12.0001 15C10.3435 14.9998 9.00012 13.6567 9.00012 12C9.00012 10.3433 10.3435 9.00023 12.0001 9ZM12.0001 11C11.448 11.0002 11.0001 11.4479 11.0001 12C11.0001 12.5521 11.448 12.9998 12.0001 13C12.5524 13 13.0001 12.5523 13.0001 12C13.0001 11.4477 12.5524 11 12.0001 11Z" fill="#000000"/>
<path d="M12.1007 5C15.7136 5.00015 18.1869 6.66955 19.7316 8.31543C20.4997 9.13398 21.0431 9.9506 21.3956 10.5635C21.5722 10.8705 21.7026 11.1297 21.7902 11.3154C21.834 11.4083 21.8676 11.4842 21.8907 11.5381C21.9022 11.5648 21.9115 11.5865 21.9181 11.6025C21.9213 11.6103 21.9238 11.6169 21.9259 11.6221C21.9269 11.6245 21.9288 11.6289 21.9288 11.6289L21.9298 11.6318L21.0001 12L21.9298 12.3672L21.9288 12.3711C21.9288 12.3711 21.9269 12.3755 21.9259 12.3779C21.9238 12.3831 21.9213 12.3897 21.9181 12.3975C21.9115 12.4135 21.9022 12.4352 21.8907 12.4619C21.8676 12.5158 21.834 12.5917 21.7902 12.6846C21.7026 12.8703 21.5722 13.1295 21.3956 13.4365C21.0431 14.0494 20.4997 14.866 19.7316 15.6846C18.1869 17.3304 15.7136 18.9998 12.1007 19C8.49123 18.9999 5.97152 17.3339 4.38098 15.6973C3.58862 14.8819 3.02024 14.0678 2.64856 13.457C2.46228 13.1509 2.32393 12.8929 2.23059 12.708C2.18395 12.6156 2.14795 12.5408 2.12317 12.4873C2.11094 12.4609 2.10091 12.4397 2.09387 12.4238C2.09034 12.4159 2.08731 12.4084 2.08508 12.4033C2.08409 12.4011 2.08215 12.3975 2.08215 12.3975L2.08117 12.3945L3.00012 12L2.08117 11.6064L2.08215 11.6025C2.08215 11.6025 2.08409 11.5989 2.08508 11.5967C2.08731 11.5916 2.09034 11.5841 2.09387 11.5762C2.10091 11.5603 2.11094 11.5391 2.12317 11.5127C2.14795 11.4592 2.18395 11.3844 2.23059 11.292C2.32393 11.1071 2.46228 10.8491 2.64856 10.543C3.02024 9.93221 3.58862 9.1181 4.38098 8.30273C5.97152 6.6661 8.49123 5.00011 12.1007 5ZM12.1007 7C9.17217 7.0001 7.14034 8.33404 5.81555 9.69727C5.15047 10.3817 4.66945 11.0679 4.35656 11.582C4.26028 11.7403 4.18035 11.8816 4.11633 12C4.18035 12.1184 4.26028 12.2597 4.35656 12.418C4.66945 12.9321 5.15047 13.6183 5.81555 14.3027C7.14034 15.666 9.17217 16.9999 12.1007 17C15.0255 16.9999 17.002 15.6693 18.2726 14.3154C18.9118 13.6343 19.3677 12.9505 19.6622 12.4385C19.7586 12.2709 19.8361 12.1222 19.8976 12C19.8361 11.8778 19.7586 11.7291 19.6622 11.5615C19.3677 11.0495 18.9118 10.3657 18.2726 9.68457C17.002 8.33072 15.0255 7.00015 12.1007 7Z" fill="#000000"/>
<path d="M3.00012 12L2.0802 12.3926C1.97327 12.1419 1.97327 11.8581 2.0802 11.6074L3.00012 12Z" fill="#000000"/>
<path d="M21.9308 11.6338C22.0234 11.8691 22.0234 12.1309 21.9308 12.3662L21.0001 12L21.9308 11.6338Z" fill="#000000"/>
</svg>
