<svg xmlns="http://www.w3.org/2000/svg" width="20" height="20" viewBox="0 0 20 20" fill="none"><rect width="20" height="20" fill="none"/>
<path d="M19 12.5003C19.0048 12.5492 19.4777 17.5077 15 19.0003L14.5928 18.8499C11.0555 17.4069 10.9544 13.6613 10.9873 12.7181L11 12.5003L15 11.0003L19 12.5003ZM13.0566 13.8646C13.0935 14.0982 13.1478 14.3501 13.2256 14.6058C13.4827 15.4503 13.9719 16.2944 15 16.8333C16.0282 16.2944 16.5173 15.4503 16.7744 14.6058C16.8522 14.3502 16.9045 14.0981 16.9414 13.8646L15 13.1361L13.0566 13.8646Z" fill="#000000"/>
<path d="M7.37402 2.22103C7.61057 2.03128 7.92076 1.95902 8.2168 2.02474L18 4.19954V9.0013H16V5.80306L9 4.24739V18.0013H2V9.0013L7 7.57259V3.0013C7 2.69812 7.13762 2.41082 7.37402 2.22103ZM4 10.5091V16.0013H7V9.65267L4 10.5091Z" fill="#000000"/>
</svg>
