<svg xmlns="http://www.w3.org/2000/svg" width="20" height="20" viewBox="0 0 20 20" fill="none"><rect width="20" height="20" fill="none"/>
<path d="M16.0001 14H19.0001V16H16.0001V19H14.0001V16H11.0001V14H14.0001V11H16.0001V14Z" fill="#000000"/>
<path d="M10.0001 2C11.047 2.00018 12.053 2.29636 12.7628 2.56641C13.1242 2.70397 13.4275 2.84201 13.6408 2.94629C13.7469 2.99822 13.8333 3.04306 13.8937 3.0752C13.9233 3.09099 13.9487 3.10471 13.966 3.11426C13.9742 3.11877 13.9822 3.12307 13.9874 3.12598C13.9898 3.1273 13.9943 3.12988 13.9943 3.12988L13.9962 3.13184H13.9982C14.2685 3.28645 14.4529 3.55946 14.4943 3.86816C14.5353 4.1766 14.43 4.48788 14.2101 4.70801L11.6886 7.22656L13.8732 8.31934C14.2437 8.50466 14.5859 8.7348 14.8947 9H10.7619L10.0001 8.61914L7.02162 10.1084C6.27004 10.4845 5.70961 11.1597 5.47865 11.9678L5.05483 13.4512C4.6906 14.7282 5.64968 16.0004 6.97768 16.001H8.99916V18.001H6.97768C4.32105 18.0004 2.40204 15.4569 3.131 12.9023L3.5558 11.418C3.94079 10.0709 4.87416 8.94617 6.12709 8.31934L8.31166 7.22656L5.79604 4.70801C5.57623 4.48792 5.47093 4.17649 5.51186 3.86816C5.55318 3.55989 5.73623 3.28758 6.006 3.13281L6.00795 3.13184L6.01088 3.13086L6.03822 3.11523C6.05552 3.10566 6.08089 3.09199 6.11049 3.07617C6.17078 3.04398 6.25728 2.99934 6.36342 2.94727C6.57624 2.8429 6.87856 2.70405 7.2394 2.56641C7.94817 2.29618 8.95304 2.00014 10.0001 2ZM10.0001 4.00098C9.40885 4.0011 8.78625 4.14701 8.24525 4.33008L10.0011 6.08594L11.7579 4.33008C11.2155 4.14686 10.5916 4.00113 10.0001 4.00098Z" fill="#000000"/>
</svg>
