<svg xmlns="http://www.w3.org/2000/svg" width="24" height="24" viewBox="0 0 24 24" fill="none"><rect width="24" height="24" fill="none"/>
<path d="M12.7998 2.90039C13.5047 3.84021 14.2757 4.64261 15.0596 5.41113C15.8249 6.1615 16.651 6.92323 17.3623 7.69922C18.8386 9.30977 20 11.165 20 14C20 18.5523 16.5523 22 12 22C7.59009 22 4.21646 18.7646 4.00977 14.4238L4 14C4 11.165 5.16137 9.30977 6.6377 7.69922C7.34902 6.92323 8.17505 6.1615 8.94043 5.41113C9.72432 4.64261 10.4953 3.84021 11.2002 2.90039L12 1.83301L12.7998 2.90039ZM12 5.08984C11.4475 5.73058 10.8846 6.30572 10.3408 6.83887C9.51251 7.65093 8.77592 8.32685 8.1123 9.05078C6.83865 10.4402 6 11.835 6 14L6.00781 14.3203C6.16068 17.6046 8.65995 20 12 20C15.4477 20 18 17.4477 18 14C18 11.835 17.1613 10.4402 15.8877 9.05078C15.2241 8.32685 14.4875 7.65093 13.6592 6.83887C13.1154 6.30572 12.5525 5.73058 12 5.08984Z" fill="#000000"/>
</svg>
