<svg xmlns="http://www.w3.org/2000/svg" width="24" height="24" viewBox="0 0 24 24" fill="none"><rect width="24" height="24" fill="none"/>
<path d="M19 2C19.2856 2 19.5573 2.12254 19.7471 2.33594C19.9367 2.54932 20.0265 2.83364 19.9932 3.11719L18.1162 19.0713C17.995 20.1019 17.2732 20.9625 16.2793 21.2607C13.4881 22.0981 10.5119 22.0981 7.7207 21.2607C6.72679 20.9625 6.00504 20.1019 5.88379 19.0713L4.00684 3.11719C3.97348 2.83364 4.06326 2.54932 4.25293 2.33594C4.44269 2.12254 4.71443 2 5 2H19ZM9.25879 10.1514C8.56679 10.087 7.80442 10.1833 6.90527 10.6406L7.87012 18.8379C7.89828 19.0765 8.06575 19.2757 8.2959 19.3447C10.7121 20.0695 13.2879 20.0695 15.7041 19.3447C15.9343 19.2757 16.1017 19.0765 16.1299 18.8379L16.9795 11.6084C16.2412 11.8478 15.5278 11.908 14.8311 11.8389C13.7113 11.7277 12.6786 11.2855 11.8047 10.9238C10.8817 10.5419 10.094 10.229 9.25879 10.1514ZM6.66113 8.56152C7.64075 8.17992 8.5632 8.07821 9.44434 8.16016C10.6246 8.26995 11.681 8.70813 12.5703 9.07617C13.5086 9.46445 14.2577 9.77213 15.0283 9.84863C15.6892 9.91422 16.4013 9.80815 17.252 9.29004L17.875 4H6.125L6.66113 8.56152Z" fill="#000000"/>
</svg>
