<svg xmlns="http://www.w3.org/2000/svg" width="24" height="24" viewBox="0 0 24 24" fill="none"><rect width="24" height="24" fill="none"/>
<path d="M12.0003 2C12.0421 2.04152 15.0422 4.99975 20.9993 5C20.9996 7.99992 21.9991 19.9995 12.0003 22L11.5393 21.8994C2.03115 19.6276 2.99957 7.95311 2.9993 5C8.96925 4.99985 11.9704 2.02972 12.0003 2ZM11.9993 4.50977C11.6226 4.75533 11.1715 5.02522 10.6438 5.28906C9.26066 5.98053 7.36754 6.6484 4.97586 6.89648C4.96484 8.67249 5.04026 11.0307 5.67801 13.3428C6.52517 16.4136 8.26011 19.0548 11.9993 19.9521C15.7391 19.0551 17.4743 16.4139 18.3216 13.3428C18.9593 11.0308 19.0339 8.6724 19.0227 6.89648C16.6315 6.64833 14.7387 5.98047 13.3557 5.28906C12.8278 5.02505 12.3762 4.75546 11.9993 4.50977Z" fill="#000000"/>
</svg>
