<svg xmlns="http://www.w3.org/2000/svg" width="20" height="20" viewBox="0 0 20 20" fill="none"><rect width="20" height="20" fill="none"/>
<path d="M19 12.5C19.0007 12.5069 19.4969 17.501 15 19L14.5928 18.8496C11.0549 17.4065 10.9544 13.6604 10.9873 12.7178L11 12.5L15 11L19 12.5ZM13.0566 13.8643C13.0936 14.0981 13.1477 14.3495 13.2256 14.6055C13.4827 15.4501 13.9716 16.2941 15 16.833C16.0284 16.294 16.5173 15.4501 16.7744 14.6055C16.8523 14.3496 16.9045 14.098 16.9414 13.8643L15 13.1357L13.0566 13.8643Z" fill="#000000"/>
<path d="M18 9H16V7.48145L10 11.1738L4 7.48145V14H9V16H2V4H18V9ZM10 8.8252L14.5918 6H5.4082L10 8.8252Z" fill="#000000"/>
</svg>
