<svg xmlns="http://www.w3.org/2000/svg" width="20" height="20" viewBox="0 0 20 20" fill="none"><rect width="20" height="20" fill="none"/>
<path d="M13 12.9995H6V10.9995H13V12.9995Z" fill="#000000"/>
<path d="M11 8.99948H6V6.99948H11V8.99948Z" fill="#000000"/>
<path d="M8.5 2.2114C9.42812 1.67563 10.5719 1.67563 11.5 2.2114L15.9951 4.8071C16.9231 5.34296 17.495 6.3332 17.4951 7.40476V12.5962C17.4948 13.6676 16.9231 14.6581 15.9951 15.1938L11.5 17.7895C10.572 18.3251 9.428 18.3251 8.5 17.7895L4.00488 15.1938C3.07695 14.6581 2.50521 13.6676 2.50488 12.5962V7.40476C2.50503 6.3332 3.07693 5.34296 4.00488 4.8071L8.5 2.2114ZM10.5 3.94382C10.1906 3.76519 9.8094 3.76519 9.5 3.94382L5.00488 6.53952C4.6958 6.71813 4.50503 7.04778 4.50488 7.40476V12.5962C4.50521 12.953 4.69581 13.2829 5.00488 13.4614L9.5 16.0571C9.80928 16.2356 10.1907 16.2356 10.5 16.0571L14.9951 13.4614C15.3042 13.2829 15.4948 12.953 15.4951 12.5962V7.40476C15.495 7.04778 15.3042 6.71813 14.9951 6.53952L10.5 3.94382Z" fill="#000000"/>
</svg>
