<svg xmlns="http://www.w3.org/2000/svg" width="24" height="24" viewBox="0 0 24 24" fill="none"><rect width="24" height="24" fill="none"/>
<path d="M21.707 20.293L20.293 21.707L19.9355 21.3496C19.858 21.5568 19.7135 21.7362 19.5186 21.8545C19.2198 22.0358 18.8481 22.048 18.5381 21.8867L12 18.4844L5.46191 21.8867C5.15193 22.048 4.78019 22.0358 4.48145 21.8545C4.1827 21.6732 4 21.3495 4 21V5.41406L2.29297 3.70703L3.70703 2.29297L21.707 20.293ZM6 19.3516L12 16.2295L17.8691 19.2832L6 7.41406V19.3516Z" fill="#000000"/>
<path d="M20 16.0859L18 14.0859V4H7.91406L5.91406 2H20V16.0859Z" fill="#000000"/>
</svg>
