<svg xmlns="http://www.w3.org/2000/svg" width="20" height="20" viewBox="0 0 20 20" fill="none"><rect width="20" height="20" fill="none"/>
<path d="M15.75 14.2499H19V15.7499H15.75V18.9999H14.25V15.7499H11V14.2499H14.25V10.9999H15.75V14.2499Z" fill="#000000"/>
<path d="M10.416 3.17761C11.906 1.93601 14.0973 2.0357 15.4688 3.4071L16.0312 3.9696C16.2092 4.14775 16.2858 4.40357 16.2354 4.65026C16.1846 4.89705 16.0132 5.10257 15.7793 5.19616C14.7379 5.61271 14.1189 5.91475 13.6729 6.24401C13.3849 6.45656 13.1546 6.6922 12.9277 7.00964L18.4512 6.11901V6.99987C18.4511 7.69536 18.3883 8.36707 18.2568 8.99987H16.7129C16.8024 8.65331 16.8708 8.28211 16.9092 7.88659L12.583 8.58484C11.6079 8.74183 10.7644 7.70659 11.3086 6.76257L11.4639 6.5028C11.8305 5.91334 12.2255 5.44792 12.7822 5.03698C13.1671 4.7529 13.6161 4.50445 14.1582 4.25476C13.3365 3.64244 12.1847 3.65605 11.376 4.32995L10.4805 5.07605L10.001 5.47644L8.625 4.32995C7.81617 3.65608 6.66445 3.64219 5.84277 4.25476C6.38517 4.50455 6.83467 4.75278 7.21973 5.03698C7.8557 5.50648 8.28054 6.04692 8.69336 6.76257C9.23764 7.70668 8.39319 8.74208 7.41797 8.58484L3.0918 7.88659C3.21122 9.11656 3.5855 10.1186 4.1709 10.8397C4.87279 11.7041 5.94652 12.2499 7.50098 12.2499H8.63867L7 16.0721L7.10449 16.1122C7.72008 16.343 8.35672 16.4954 9 16.5741V18.0839C8.17784 17.999 7.36352 17.8119 6.57812 17.5175L5.00195 16.9266L6.39844 13.6669C4.97282 13.4483 3.82699 12.7964 3.00586 11.785C2.00141 10.5476 1.55084 8.85965 1.55078 6.99987V6.11901L7.07227 7.00964C6.84557 6.69254 6.61584 6.45641 6.32812 6.24401C5.8821 5.91488 5.26357 5.61255 4.22266 5.19616C3.98871 5.10257 3.81641 4.89705 3.76562 4.65026C3.71518 4.40356 3.7927 4.14773 3.9707 3.9696L4.5332 3.4071C5.90464 2.0357 8.09598 1.936 9.58594 3.17761L10 3.52331L10.416 3.17761Z" fill="#000000"/>
</svg>
