<svg xmlns="http://www.w3.org/2000/svg" width="24" height="24" viewBox="0 0 24 24" fill="none"><rect width="24" height="24" fill="none"/>
<path d="M19 17H22V19H19V22H17V19H14V17H17V14H19V17Z" fill="#000000"/>
<path d="M13 3C15.2091 3 17 4.79086 17 7H18C20.2091 7 22 8.79086 22 11V12H20V11C20 9.89543 19.1046 9 18 9H6C4.89543 9 4 9.89543 4 11V17C4 18.1046 4.89543 19 6 19H12V21H6C3.79086 21 2 19.2091 2 17V11C2 8.79086 3.79086 7 6 7H7C7 4.79086 8.79086 3 11 3H13ZM11 5C9.89543 5 9 5.89543 9 7H15C15 5.89543 14.1046 5 13 5H11Z" fill="#000000"/>
</svg>
