<svg xmlns="http://www.w3.org/2000/svg" width="20" height="20" viewBox="0 0 20 20" fill="none"><rect width="20" height="20" fill="none"/>
<path d="M17 15C17.2761 15 17.5 15.2239 17.5 15.5V18H18V19L15 18.999V17.999H15.5V15.999H15V14.999L17 15Z" fill="#000000"/>
<path d="M9 2C10.6569 2 12 3.34315 12 5V6H13C14.6569 6 16 7.34315 16 9V9.5H14V9C14 8.44772 13.5523 8 13 8H10V5C10 4.44772 9.55228 4 9 4H6V16H13V18H4V2H9Z" fill="#000000"/>
<path d="M16.5 11.5C17.1904 11.5 17.75 12.0596 17.75 12.75C17.75 13.4404 17.1904 14 16.5 14C15.8096 14 15.25 13.4404 15.25 12.75C15.25 12.0596 15.8096 11.5 16.5 11.5Z" fill="#000000"/>
</svg>
