<svg xmlns="http://www.w3.org/2000/svg" width="20" height="20" viewBox="0 0 20 20" fill="none"><rect width="20" height="20" fill="none"/>
<path d="M19 19H11V17H19V19Z" fill="#000000"/>
<path d="M12.8672 3C13.9209 3.00002 14.8982 3.55257 15.4404 4.45605L16.3662 6H18.5C18.5 6.06529 18.4954 6.12969 18.4893 6.19336C18.4886 6.20053 18.4881 6.2077 18.4873 6.21484C18.474 6.33917 18.4491 6.45978 18.4141 6.57617C18.4094 6.59159 18.4044 6.60681 18.3994 6.62207C18.3842 6.66837 18.368 6.71406 18.3496 6.75879C18.3457 6.76825 18.3419 6.77772 18.3379 6.78711C18.3168 6.83624 18.2944 6.88464 18.2695 6.93164C18.2597 6.95024 18.2487 6.96808 18.2383 6.98633C18.2184 7.02118 18.1976 7.05537 18.1758 7.08887C18.1635 7.10774 18.1506 7.12611 18.1377 7.14453C18.1163 7.17506 18.0943 7.20513 18.0713 7.23438C18.0488 7.26293 18.0249 7.29012 18.001 7.31738C17.9821 7.33885 17.9632 7.36022 17.9434 7.38086C17.923 7.40217 17.9022 7.42296 17.8809 7.44336C17.8615 7.46184 17.8414 7.47937 17.8213 7.49707C17.7416 7.56747 17.6567 7.63135 17.5664 7.68848C17.5492 7.69934 17.5322 7.71035 17.5146 7.7207C17.4859 7.73769 17.4574 7.75494 17.4277 7.77051L18.0283 8.76953L18.0049 9H15.834L13.7256 5.48535C13.5449 5.18416 13.2184 5.00002 12.8672 5H7.13281C6.78156 5 6.45514 5.18416 6.27441 5.48535L4.02734 9.22949L4.40527 13H9V15H5V16.5H3V15H2.59473L1.97168 8.76953L2.14258 8.48535L2.57129 7.77051C1.93461 7.4359 1.5 6.76918 1.5 6H3.63379L4.55957 4.45605C5.10177 3.55256 6.07911 3 7.13281 3H12.8672Z" fill="#000000"/>
<path d="M18.7578 13.9658L11.2578 15.9658L10.7422 14.0342L18.2422 12.0342L18.7578 13.9658Z" fill="#000000"/>
<path d="M6.57129 9.14355C7.04458 9.14355 7.42856 9.52674 7.42871 10C7.42871 10.4734 7.04468 10.8574 6.57129 10.8574H5.71484C5.24146 10.8574 4.85742 10.4734 4.85742 10C4.85757 9.52674 5.24155 9.14355 5.71484 9.14355H6.57129Z" fill="#000000"/>
<path d="M14.2852 9.14258C14.7585 9.14258 15.1426 9.52661 15.1426 10C15.1424 10.4733 14.7585 10.8564 14.2852 10.8564H13.4287C12.9554 10.8564 12.5714 10.4733 12.5713 10C12.5713 9.52661 12.9553 9.14258 13.4287 9.14258H14.2852Z" fill="#000000"/>
</svg>
