<svg xmlns="http://www.w3.org/2000/svg" width="20" height="20" viewBox="0 0 20 20" fill="none"><rect width="20" height="20" fill="none"/>
<path d="M15.5 12.0498C17.4052 12.0499 18.9501 13.5948 18.9502 15.5C18.9501 17.4052 17.4052 18.9501 15.5 18.9502C13.5947 18.9502 12.0499 17.4053 12.0498 15.5C12.0499 13.5947 13.5947 12.0498 15.5 12.0498ZM15.5 13.5498C14.4231 13.5498 13.5499 14.4231 13.5498 15.5C13.5499 16.5769 14.4231 17.4502 15.5 17.4502C16.5768 17.4501 17.4501 16.5768 17.4502 15.5C17.4501 14.4232 16.5768 13.5499 15.5 13.5498Z" fill="#000000"/>
<path d="M18 4.5791L17.9844 5.07422C17.9412 5.94957 17.7775 7.87876 17.166 10H15.5996C16.0417 8.59899 16.2697 7.24588 16.3848 6.22949C16.4084 6.0207 16.4245 5.82695 16.4395 5.65137L10 3.5752L3.55957 5.65137C3.57453 5.82697 3.59159 6.02067 3.61523 6.22949C3.73276 7.26751 3.96685 8.65709 4.42773 10.0898C5.33095 12.8975 6.98195 15.5347 10 16.4434V18C2.99951 16.2729 2.1249 7.29152 2.01562 5.07422L2 4.5791L10 2L18 4.5791Z" fill="#000000"/>
</svg>
