<svg xmlns="http://www.w3.org/2000/svg" width="20" height="20" viewBox="0 0 20 20" fill="none"><rect width="20" height="20" fill="none"/>
<g clip-path="url(#clip0_147702_10476)">
<path d="M16.0002 9.99998C17.657 10 19.0001 11.3432 19.0002 13V14.2695C19.5975 14.6153 20.0001 15.26 20.0002 16V18C20.0002 19.1045 19.1047 19.9999 18.0002 20H14.0002C12.8956 20 12.0002 19.1046 12.0002 18V16C12.0002 15.2601 12.4028 14.6154 13.0002 14.2695V13C13.0002 11.3432 14.3433 9.99998 16.0002 9.99998ZM14.0002 18H18.0002V16H14.0002V18ZM16.0002 12C15.4479 12 15.0002 12.4477 15.0002 13V14H17.0002V13C17.0001 12.4478 16.5524 12 16.0002 12Z" fill="#000000"/>
<path d="M12.0431 3.04295C13.4001 1.68625 15.6002 1.68616 16.9572 3.04295C18.3141 4.39989 18.3139 6.59998 16.9572 7.95702L16.7072 8.20702L15.2931 6.79295L15.5431 6.54295C16.1188 5.96697 16.119 5.0329 15.5431 4.45702C14.9672 3.88127 14.0331 3.88136 13.4572 4.45702L12.4611 5.45213C13.327 5.87251 14.0387 6.56061 14.4855 7.41112L12.8683 8.70409C12.5749 7.83123 11.8142 7.17356 10.883 7.03026L4.44937 13.4639L4.15152 15.8476L6.53531 15.5498L10.2931 11.793L11.7072 13.207L7.70719 17.207L7.465 17.4502L7.12418 17.4922L3.12418 17.9922C2.81799 18.0304 2.51133 17.9252 2.29312 17.707C2.07501 17.4888 1.9697 17.1821 2.00797 16.876L2.50797 12.876L2.54996 12.5351L2.79312 12.293L12.0431 3.04295Z" fill="#000000"/>
</g>
<defs>
<clipPath id="clip0_147702_10476">
<rect width="20" height="20" fill="white"/>
</clipPath>
</defs>
</svg>
