<svg xmlns="http://www.w3.org/2000/svg" width="20" height="20" viewBox="0 0 20 20" fill="none"><rect width="20" height="20" fill="none"/>
<path d="M14.5 2C15.8807 2 17 3.11929 17 4.5V9.5C17 10.8807 15.8807 12 14.5 12H12.5938L12.1729 12.7705L12.8018 13.9717C13.3497 13.381 14.1308 13.0098 15 13.0098C16.6569 13.0098 18 14.3529 18 16.0098C18 17.6666 16.6569 19.0098 15 19.0098C13.8702 19.0098 12.8877 18.3845 12.376 17.4619L12.373 17.4639L11.0215 14.8828L9.65918 17.3838C9.15877 18.3435 8.1572 19 7 19C5.34315 19 4 17.6569 4 16C4 14.3431 5.34315 13 7 13C7.8854 13 8.67841 13.3861 9.22754 13.9961L9.90527 12.752L7.54102 8.23535C7.0287 7.25693 7.40638 6.04852 8.38477 5.53613L10.7217 10H14.5C14.7761 10 15 9.77614 15 9.5V7H11V5H15V4.5C15 4.22386 14.7761 4 14.5 4H5.5C5.22386 4 5 4.22386 5 4.5V9.5C5 9.77614 5.22386 10 5.5 10H6.76953V12H5.5C4.11929 12 3 10.8807 3 9.5V4.5C3 3.11929 4.11929 2 5.5 2H14.5ZM15 15.0098C14.4477 15.0098 14 15.4575 14 16.0098C14 16.562 14.4477 17.0098 15 17.0098C15.5523 17.0098 16 16.562 16 16.0098C16 15.4575 15.5523 15.0098 15 15.0098ZM7 15C6.44772 15 6 15.4477 6 16C6 16.5523 6.44772 17 7 17C7.36085 17 7.67571 16.808 7.85156 16.5215L7.90625 16.4199C7.96558 16.2921 8 16.1502 8 16C8 15.4477 7.55228 15 7 15Z" fill="#000000"/>
</svg>
