<svg xmlns="http://www.w3.org/2000/svg" width="20" height="20" viewBox="0 0 20 20" fill="none"><rect width="20" height="20" fill="none"/>
<path d="M7.97291 2.28271C9.05151 1.0698 10.947 1.06985 12.0256 2.28271C12.4139 2.71936 12.9339 3.01929 13.5061 3.13721C15.0962 3.46467 16.0447 5.10719 15.5335 6.64795L15.4729 6.85791C15.3522 7.3516 15.3725 7.87179 15.5335 8.35693C15.8503 9.31166 15.6059 10.3047 14.9963 11.0005H14.9993V17.0005C14.9993 17.3304 14.8358 17.6392 14.5637 17.8257C14.2916 18.0118 13.9453 18.0522 13.638 17.9331L10.1213 16.5679L6.3401 17.9409C6.03369 18.052 5.69197 18.0069 5.42506 17.8198C5.15837 17.6326 4.99928 17.3264 4.99928 17.0005V11.0005H5.00319C4.39364 10.3048 4.14833 9.31168 4.4651 8.35693C4.62611 7.87175 4.64638 7.35163 4.52565 6.85791L4.4651 6.64795C3.96983 5.15542 4.84442 3.56695 6.34498 3.17139L6.49244 3.13721C6.99314 3.03408 7.45335 2.79135 7.82057 2.43994L7.97291 2.28271ZM12.9993 12.0259C12.6293 12.1819 12.2953 12.4188 12.0256 12.7222L11.9231 12.8325C10.8654 13.8989 9.13307 13.899 8.07545 12.8325L7.97291 12.7222C7.70315 12.4188 7.36949 12.1819 6.99928 12.0259V15.5728L9.79225 14.5601L9.87819 14.5337C10.0814 14.4801 10.298 14.4914 10.4954 14.5679L12.9993 15.5395V12.0259ZM10.5315 3.61182C10.2484 3.2937 9.7501 3.29365 9.46705 3.61182C8.79242 4.37052 7.89017 4.89141 6.89576 5.09619C6.47877 5.18228 6.22962 5.61389 6.36354 6.01806C6.68327 6.98156 6.68328 8.02332 6.36354 8.98681C6.22971 9.39095 6.47883 9.82259 6.89576 9.90869C7.89017 10.1135 8.79243 10.6343 9.46705 11.3931C9.75009 11.7112 10.2484 11.7111 10.5315 11.3931C11.2061 10.6343 12.1084 10.1135 13.1028 9.90869C13.5199 9.8227 13.7689 9.39105 13.635 8.98681C13.3153 8.02336 13.3153 6.98153 13.635 6.01806C13.769 5.61384 13.5199 5.18221 13.1028 5.09619C12.1084 4.89137 11.2061 4.37052 10.5315 3.61182Z" fill="#000000"/>
</svg>
