<svg xmlns="http://www.w3.org/2000/svg" width="24" height="24" viewBox="0 0 24 24" fill="none"><rect width="24" height="24" fill="none"/>
<path d="M19.9844 13.5264C20.1271 13.3807 20.3708 13.517 20.3213 13.7148L19.5 17H21C21.4043 17.0001 21.7691 17.2437 21.9238 17.6172C22.0785 17.9908 21.9929 18.4211 21.707 18.707L17.6133 22.4404C17.4581 22.5814 17.2186 22.4191 17.292 22.2227L18.5 19H17C16.6077 19 16.252 18.7703 16.0898 18.4131C15.9278 18.0559 15.9889 17.6371 16.2471 17.3418L19.9844 13.5264Z" fill="#000000"/>
<path d="M18 4C20.2089 4 22 5.79066 22 8V12H20V11H4V16C4 17.1046 4.89543 18 6 18H14V20H6C3.79086 20 2 18.2091 2 16V8C2 5.79086 3.79086 4 6 4H18ZM6 6C4.89543 6 4 6.89543 4 8V9H20V8C20 6.89563 19.1048 6 18 6H6Z" fill="#000000"/>
<path d="M11 16H6V14H11V16Z" fill="#000000"/>
</svg>
