<svg xmlns="http://www.w3.org/2000/svg" width="24" height="24" viewBox="0 0 24 24" fill="none"><rect width="24" height="24" fill="none"/>
<path d="M11 2C12.6568 2.0001 14 3.34321 14 5V8H17C18.6568 8.00001 20 9.34316 20 11V12.3418C19.3744 12.1207 18.7013 12 18 12C14.6863 12 12 14.6863 12 18C12 19.5371 12.5788 20.9384 13.5293 22H4V2H11Z" fill="#000000"/>
<path d="M18 14C20.2091 14 22 15.7909 22 18C22 20.2091 20.2091 22 18 22C15.7909 22 14 20.2091 14 18C14 15.7909 15.7909 14 18 14Z" fill="#000000"/>
</svg>
