<svg xmlns="http://www.w3.org/2000/svg" width="20" height="20" viewBox="0 0 20 20" fill="none"><rect width="20" height="20" fill="none"/>
<path d="M13.5 3.25C15.0357 3.25 16.1844 4.03065 16.9229 5.06445C17.648 6.07985 18 7.36089 18 8.5C18 10.5258 16.9178 12.3343 15.4551 13.7305C13.9878 15.131 12.0666 16.1891 10.2061 16.7207L10 16.7803L9.79395 16.7207C7.93336 16.1891 6.01224 15.131 4.54492 13.7305C3.08223 12.3343 2 10.5258 2 8.5C2 7.36089 2.35197 6.07985 3.07715 5.06445C3.81558 4.03065 4.96428 3.25 6.5 3.25C7.51488 3.24997 8.89807 3.66658 10 4.80762C11.1019 3.66659 12.4851 3.25001 13.5 3.25Z" fill="#000000"/>
</svg>
