<svg xmlns="http://www.w3.org/2000/svg" width="20" height="20" viewBox="0 0 20 20" fill="none"><rect width="20" height="20" fill="none"/>
<path d="M15 10.25C17.6234 10.25 19.75 12.3766 19.75 15C19.75 17.6234 17.6234 19.75 15 19.75C12.3766 19.75 10.25 17.6234 10.25 15C10.25 12.3766 12.3766 10.25 15 10.25ZM12.2334 13.2939C11.9269 13.7898 11.75 14.3742 11.75 15C11.75 16.7949 13.2051 18.25 15 18.25C15.6256 18.25 16.2092 18.072 16.7051 17.7656L12.2334 13.2939ZM15 11.75C14.3742 11.75 13.7898 11.9269 13.2939 12.2334L17.7656 16.7051C18.072 16.2092 18.25 15.6256 18.25 15C18.25 13.2051 16.7949 11.75 15 11.75Z" fill="#000000"/>
<path d="M14.75 2.5C16.2687 2.50011 17.5 3.73128 17.5 5.25V9H16V5.25C16 4.55971 15.4403 4.00011 14.75 4H5.25C4.55964 4 4 4.55964 4 5.25V14.75C4.00011 15.4403 4.55971 16 5.25 16H9V17.5H5.25C3.73128 17.5 2.50011 16.2687 2.5 14.75V5.25C2.5 3.73122 3.73122 2.5 5.25 2.5H14.75Z" fill="#000000"/>
<path d="M9.03711 10.4512H6V8.95117H9.03711V10.4512Z" fill="#000000"/>
<path d="M13 7.45117H6V5.95117H13V7.45117Z" fill="#000000"/>
</svg>
