<svg xmlns="http://www.w3.org/2000/svg" width="24" height="24" viewBox="0 0 24 24" fill="none"><rect width="24" height="24" fill="none"/>
<path d="M12 2C17.5228 2 22 6.47715 22 12C22 17.5228 17.5228 22 12 22C6.47715 22 2 17.5228 2 12C2 6.47715 6.47715 2 12 2ZM7.29297 10.293C5.52174 12.0642 5.52173 14.9358 7.29297 16.707C9.06421 18.4783 11.9358 18.4783 13.707 16.707L14.207 16.207L12.793 14.793L12.293 15.293C11.3028 16.2832 9.69722 16.2832 8.70703 15.293C7.71684 14.3028 7.71684 12.6972 8.70703 11.707L9.20703 11.207L7.79297 9.79297L7.29297 10.293ZM16.707 7.29297C14.9358 5.52173 12.0642 5.52174 10.293 7.29297L9.79297 7.79297L11.207 9.20703L11.707 8.70703C12.6972 7.71684 14.3028 7.71684 15.293 8.70703C16.2832 9.69722 16.2832 11.3028 15.293 12.293L14.793 12.793L16.207 14.207L16.707 13.707C18.4783 11.9358 18.4783 9.06421 16.707 7.29297ZM10.293 12.293L11.707 13.707L13.707 11.707L12.293 10.293L10.293 12.293Z" fill="#000000"/>
</svg>
