<svg xmlns="http://www.w3.org/2000/svg" width="24" height="24" viewBox="0 0 24 24" fill="none"><rect width="24" height="24" fill="none"/>
<g clip-path="url(#clip0_147702_10465)">
<path d="M20.0005 14C21.6571 14.0003 23.0005 15.3433 23.0005 17V18.2695C23.5977 18.6153 24.0005 19.2602 24.0005 20V22C24.0005 23.1044 23.1049 23.9997 22.0005 24H18.0005C16.8959 24 16.0005 23.1046 16.0005 22V20C16.0005 19.2601 16.4032 18.6155 17.0005 18.2695V17C17.0005 15.3432 18.3437 14 20.0005 14ZM18.0005 22H22.0005V20H18.0005V22ZM20.0005 16C19.4482 16 19.0005 16.4477 19.0005 17V18H21.0005V17C21.0005 16.4479 20.5526 16.0003 20.0005 16Z" fill="#000000"/>
<path d="M14.7935 3.79297C16.2886 2.29827 18.7126 2.29809 20.2075 3.79297C21.7025 5.28794 21.7023 7.71191 20.2075 9.20703L8.9595 20.4551L4.23489 20.9805C3.53455 21.0581 2.94243 20.466 3.02004 19.7656L3.54543 15.041L14.7935 3.79297ZM5.45559 15.958L5.13235 18.8672L8.04153 18.5439L15.9741 10.6113C15.7997 9.26516 14.7337 8.19888 13.3872 8.02539L5.45559 15.958ZM18.7935 5.20703C18.0795 4.4932 16.9216 4.49338 16.2075 5.20703L14.9976 6.41602C16.1524 6.91988 17.0793 7.84732 17.5835 9.00195L18.7935 7.79297C19.5072 7.0789 19.5074 5.92096 18.7935 5.20703Z" fill="#000000"/>
</g>
<defs>
<clipPath id="clip0_147702_10465">
<rect width="24" height="24" fill="white"/>
</clipPath>
</defs>
</svg>
