<svg xmlns="http://www.w3.org/2000/svg" width="20" height="20" viewBox="0 0 20 20" fill="none"><rect width="20" height="20" fill="none"/>
<path d="M14 12.4503H6V10.9503H14V12.4503Z" fill="#000000"/>
<path d="M11 9.04993H6V7.54993H11V9.04993Z" fill="#000000"/>
<path d="M8.625 2.42786C9.47572 1.93681 10.5243 1.93681 11.375 2.42786L15.8701 5.02356C16.7206 5.51467 17.2448 6.42232 17.2451 7.40442V12.5958C17.2449 13.578 16.7207 14.4855 15.8701 14.9767L11.375 17.5724C10.5242 18.0636 9.47581 18.0636 8.625 17.5724L4.12988 14.9767C3.27934 14.4855 2.75506 13.578 2.75488 12.5958V7.40442C2.7552 6.42232 3.27936 5.51467 4.12988 5.02356L8.625 2.42786ZM10.625 3.72668C10.2384 3.50366 9.76158 3.50366 9.375 3.72668L4.87988 6.32239C4.49341 6.54554 4.2552 6.95819 4.25488 7.40442V12.5958C4.25506 13.0421 4.4934 13.4546 4.87988 13.6779L9.375 16.2736C9.76166 16.4967 10.2383 16.4967 10.625 16.2736L15.1201 13.6779C15.5066 13.4546 15.7449 13.0421 15.7451 12.5958V7.40442C15.7448 6.95819 15.5066 6.54554 15.1201 6.32239L10.625 3.72668Z" fill="#000000"/>
</svg>
