<svg xmlns="http://www.w3.org/2000/svg" width="20" height="20" viewBox="0 0 20 20" fill="none"><rect width="20" height="20" fill="none"/>
<path d="M15 2C16.6568 2.00002 17.9999 3.34322 18 5V15C18 16.6568 16.6568 18 15 18H5C3.34316 18 2.00002 16.6568 2 15V5C2.00001 3.34315 3.34316 2 5 2H15ZM5 4C4.44772 4 4.00001 4.44773 4 5V15C4.00002 15.5523 4.44773 16 5 16H15C15.5523 16 16 15.5523 16 15V5C15.9999 4.44778 15.5522 4.00001 15 4H14V11C14 11.3688 13.7968 11.7078 13.4717 11.8818C13.1466 12.0557 12.7521 12.0366 12.4453 11.832L10 10.2012L7.55469 11.832C7.2479 12.0366 6.85344 12.0557 6.52832 11.8818C6.20316 11.7078 6 11.3688 6 11V4H5ZM8 9.13086L10 7.79785L12 9.13086V4H8V9.13086Z" fill="#000000"/>
</svg>
