<svg xmlns="http://www.w3.org/2000/svg" width="24" height="24" viewBox="0 0 24 24" fill="none"><rect width="24" height="24" fill="none"/>
<path d="M15 14C15.8284 14 16.5 14.6716 16.5 15.5C16.5 16.3284 15.8284 17 15 17C14.1716 17 13.5 16.3284 13.5 15.5C13.5 14.6716 14.1716 14 15 14Z" fill="#000000"/>
<path d="M16.5 9.5C17.3284 9.5 18 10.1716 18 11C18 11.8284 17.3284 12.5 16.5 12.5C15.6716 12.5 15 11.8284 15 11C15 10.1716 15.6716 9.5 16.5 9.5Z" fill="#000000"/>
<path d="M8.5 8C9.32843 8 10 8.67157 10 9.5C10 10.3284 9.32843 11 8.5 11C7.67157 11 7 10.3284 7 9.5C7 8.67157 7.67157 8 8.5 8Z" fill="#000000"/>
<path d="M13 6C13.8284 6 14.5 6.67157 14.5 7.5C14.5 8.32843 13.8284 9 13 9C12.1716 9 11.5 8.32843 11.5 7.5C11.5 6.67157 12.1716 6 13 6Z" fill="#000000"/>
<path d="M12 2C17.5228 2 22 6.47715 22 12C22 17.5228 17.5228 22 12 22C7 22 10.75 16.375 8.875 16.375C7 16.375 2 18.875 2 12C2 6.47715 6.47715 2 12 2ZM12 4C7.58172 4 4 7.58172 4 12C4 13.5174 4.28329 14.192 4.46484 14.459C4.59119 14.6448 4.73224 14.7405 5.0459 14.79C5.44194 14.8526 5.96651 14.8091 6.66797 14.6875C6.83484 14.6586 7.00046 14.6274 7.17383 14.5947C7.34211 14.563 7.52431 14.5284 7.69922 14.498C8.02636 14.4412 8.45537 14.375 8.875 14.375C9.24003 14.375 9.67801 14.4437 10.1104 14.6758C10.557 14.9156 10.8766 15.265 11.085 15.6348C11.4489 16.2806 11.4573 16.9621 11.4512 17.291C11.444 17.6774 11.3918 18.0924 11.3545 18.3975C11.3123 18.7429 11.2779 19.0259 11.2627 19.2988C11.2431 19.6519 11.2701 19.8343 11.2871 19.9141C11.3861 19.9499 11.5974 20 12 20C16.4183 20 20 16.4183 20 12C20 7.58172 16.4183 4 12 4Z" fill="#000000"/>
</svg>
