<svg xmlns="http://www.w3.org/2000/svg" width="24" height="24" viewBox="0 0 24 24" fill="none"><rect width="24" height="24" fill="none"/>
<path d="M12 17C13.1046 17 14 17.8954 14 19C14 20.1046 13.1046 21 12 21C10.8954 21 10 20.1046 10 19C10 17.8954 10.8954 17 12 17Z" fill="#000000"/>
<path d="M12.3301 12.6094C14.0702 12.6978 15.6253 13.483 16.7266 14.6895L15.3145 16.1084C14.508 15.1851 13.323 14.6009 12.001 14.6006C10.6886 14.6006 9.51037 15.1754 8.7041 16.0869L7.28809 14.6709C8.45793 13.3983 10.1363 12.6006 12.001 12.6006L12.3301 12.6094Z" fill="#000000"/>
<path d="M12.5518 8.31348C15.3881 8.45733 17.9326 9.70627 19.7646 11.6377L18.3516 13.0566C16.764 11.361 14.507 10.2998 12.001 10.2998C9.50098 10.2999 7.2491 11.3563 5.66211 13.0449L4.24707 11.6299C6.19648 9.57962 8.94871 8.29987 12.001 8.2998L12.5518 8.31348Z" fill="#000000"/>
<path d="M12 4C16.2623 4 20.1353 5.66665 23.0029 8.38379L21.5908 9.80273C19.0853 7.4453 15.7117 6 12 6C8.291 6 4.91904 7.44251 2.41406 9.79688L0.999023 8.38184C3.86645 5.66582 7.7387 4 12 4Z" fill="#000000"/>
</svg>
