<svg xmlns="http://www.w3.org/2000/svg" width="24" height="24" viewBox="0 0 24 24" fill="none"><rect width="24" height="24" fill="none"/>
<path d="M19.5 3.5L18.1211 4.87793L18.9824 5.74023C19.3728 6.13077 19.3729 6.76382 18.9824 7.1543L17.3525 8.7832C18.9718 10.1588 20 12.2089 20 14.5C20 16.6734 19.0749 18.6302 17.5977 20H21V22H3V20H7.40332C6.27513 18.9539 5.46831 17.5661 5.15039 16H3V14H10V16H7.20801C7.86102 18.3084 9.98254 20 12.5 20C15.5376 20 18 17.5376 18 14.5C18 12.7609 17.1909 11.2129 15.9307 10.2051L12.6182 13.5186L8.02246 8.92188L14.3867 2.55762C14.7773 2.16747 15.4104 2.16722 15.8008 2.55762L16.6211 3.37793L18 2L19.5 3.5ZM10.8506 8.92188L12.6182 10.6895L16.8613 6.44727L15.0938 4.67969L10.8506 8.92188Z" fill="#000000"/>
</svg>
