<svg xmlns="http://www.w3.org/2000/svg" width="24" height="24" viewBox="0 0 24 24" fill="none"><rect width="24" height="24" fill="none"/>
<path d="M16.5996 18.7998L12 22.25L7.40039 18.7998L8.59961 17.2002L12 19.75L15.4004 17.2002L16.5996 18.7998Z" fill="#000000"/>
<path d="M6.5 10.25C7.05228 10.25 7.5 10.6977 7.5 11.25C7.5 11.8023 7.05228 12.25 6.5 12.25C5.94772 12.25 5.5 11.8023 5.5 11.25C5.5 10.6977 5.94772 10.25 6.5 10.25Z" fill="#000000"/>
<path d="M14 10.25C14.5523 10.25 15 10.6977 15 11.25C15 11.8023 14.5523 12.25 14 12.25H10C9.44772 12.25 9 11.8023 9 11.25C9 10.6977 9.44772 10.25 10 10.25H14Z" fill="#000000"/>
<path d="M17.5 10.25C18.0523 10.25 18.5 10.6977 18.5 11.25C18.5 11.8023 18.0523 12.25 17.5 12.25C16.9477 12.25 16.5 11.8023 16.5 11.25C16.5 10.6977 16.9477 10.25 17.5 10.25Z" fill="#000000"/>
<path d="M6.5 6.75C7.05228 6.75 7.5 7.19772 7.5 7.75C7.5 8.30228 7.05228 8.75 6.5 8.75C5.94772 8.75 5.5 8.30228 5.5 7.75C5.5 7.19772 5.94772 6.75 6.5 6.75Z" fill="#000000"/>
<path d="M10 6.75C10.5523 6.75 11 7.19772 11 7.75C11 8.30228 10.5523 8.75 10 8.75C9.44772 8.75 9 8.30228 9 7.75C9 7.19772 9.44772 6.75 10 6.75Z" fill="#000000"/>
<path d="M14 6.75C14.5523 6.75 15 7.19772 15 7.75C15 8.30228 14.5523 8.75 14 8.75C13.4477 8.75 13 8.30228 13 7.75C13 7.19772 13.4477 6.75 14 6.75Z" fill="#000000"/>
<path d="M17.5 6.75C18.0523 6.75 18.5 7.19772 18.5 7.75C18.5 8.30228 18.0523 8.75 17.5 8.75C16.9477 8.75 16.5 8.30228 16.5 7.75C16.5 7.19772 16.9477 6.75 17.5 6.75Z" fill="#000000"/>
<path d="M18 3C20.2091 3 22 4.79086 22 7V12L21.9951 12.2061C21.8913 14.2512 20.2512 15.8913 18.2061 15.9951L18 16H6L5.79395 15.9951C3.7488 15.8913 2.10865 14.2512 2.00488 12.2061L2 12V7C2 4.79086 3.79086 3 6 3H18ZM6 5C4.89543 5 4 5.89543 4 7V12C4 13.1046 4.89543 14 6 14H18C19.1046 14 20 13.1046 20 12V7C20 5.89543 19.1046 5 18 5H6Z" fill="#000000"/>
</svg>
