<svg xmlns="http://www.w3.org/2000/svg" width="20" height="20" viewBox="0 0 20 20" fill="none"><rect width="20" height="20" fill="none"/>
<path d="M16.9209 2.35351C17.1527 2.21751 17.4396 2.21516 17.6729 2.34863C17.9061 2.48226 18.0498 2.73113 18.0498 3V16C18.0497 16.2672 17.9078 16.5142 17.6768 16.6484C17.4457 16.7826 17.1608 16.7836 16.9287 16.6514L11.3027 13.4414C10.9711 13.2522 10.5966 13.1501 10.2148 13.1455L8.74902 13.1279L9.72852 17.1201C9.79055 17.373 9.71703 17.6408 9.53418 17.8262C9.35101 18.0115 9.08392 18.0883 8.83008 18.0293L5.30371 17.209C4.51117 17.0246 3.9502 16.3186 3.9502 15.5049V12.9199C2.50018 12.466 1.45033 11.1131 1.4502 9.5166C1.45028 7.54666 3.04764 5.94921 5.01758 5.94921H10.1846C10.5851 5.94917 10.9789 5.84245 11.3242 5.63964L16.9209 2.35351ZM5.4502 15.5049C5.4502 15.6211 5.53037 15.7217 5.64355 15.748L7.98047 16.291L7.2002 13.1094L5.4502 13.0879V15.5049ZM12.083 6.93359C11.5075 7.27145 10.852 7.44917 10.1846 7.44921H5.01758C3.87604 7.44921 2.95025 8.37506 2.9502 9.5166C2.95037 10.6482 3.86063 11.5693 4.99219 11.583L6.9502 11.6064V8.99902H8.4502V11.624L10.2324 11.6465C10.8688 11.6541 11.4931 11.8233 12.0459 12.1387L16.5498 14.708V4.30957L12.083 6.93359Z" fill="#000000"/>
</svg>
