<svg xmlns="http://www.w3.org/2000/svg" width="20" height="20" viewBox="0 0 20 20" fill="none"><rect width="20" height="20" fill="none"/>
<path d="M15.5 11C15.9142 11 16.25 11.3358 16.25 11.75V12C16.25 13.5188 17.4812 14.75 19 14.75H19.25C19.6642 14.75 20 15.0858 20 15.5C20 15.9142 19.6642 16.25 19.25 16.25H19C17.4812 16.25 16.25 17.4812 16.25 19V19.25C16.25 19.6642 15.9142 20 15.5 20C15.0858 20 14.75 19.6642 14.75 19.25V19C14.75 17.4812 13.5188 16.25 12 16.25H11.75C11.3358 16.25 11 15.9142 11 15.5C11 15.0858 11.3358 14.75 11.75 14.75H12C13.5188 14.75 14.75 13.5188 14.75 12V11.75C14.75 11.3358 15.0858 11 15.5 11Z" fill="#000000"/>
<path d="M15 3C16.6547 3 18 4.33811 18 5.99707V9H4V14C4 14.5523 4.44772 15 5 15H9V17H5C3.34315 17 2 15.6569 2 14V6C2 4.34315 3.34315 3 5 3H15ZM5 5C4.44772 5 4 5.44772 4 6V7H16V5.99707C16 5.44689 15.5544 5 15 5H5Z" fill="#000000"/>
</svg>
