<svg xmlns="http://www.w3.org/2000/svg" width="20" height="20" viewBox="0 0 20 20" fill="none"><rect width="20" height="20" fill="none"/>
<path d="M10.75 10.1895L13.0303 12.4697L11.9697 13.5303L9.25 10.8105V6.5H10.75V10.1895Z" fill="#000000"/>
<path d="M10 3C14.1421 3 17.5 6.35786 17.5 10.5C17.5 14.6421 14.1421 18 10 18C5.85786 18 2.5 14.6421 2.5 10.5C2.5 6.35786 5.85786 3 10 3ZM10 4.5C6.68629 4.5 4 7.18629 4 10.5C4 13.8137 6.68629 16.5 10 16.5C13.3137 16.5 16 13.8137 16 10.5C16 7.18629 13.3137 4.5 10 4.5Z" fill="#000000"/>
<path d="M5.53027 2.53027L2.53027 5.53027L1.46973 4.46973L4.46973 1.46973L5.53027 2.53027Z" fill="#000000"/>
<path d="M18.5303 4.46973L17.4697 5.53027L14.4697 2.53027L15.5303 1.46973L18.5303 4.46973Z" fill="#000000"/>
</svg>
