<svg xmlns="http://www.w3.org/2000/svg" width="20" height="20" viewBox="0 0 20 20" fill="none"><rect width="20" height="20" fill="none"/>
<path d="M17 11C18.6569 11 20 12.3431 20 14C20 15.6569 18.6569 17 17 17H16V18H18V19H16V20H14V19H13V18H14V17H13V15H14V11H17ZM16 15H17C17.5523 15 18 14.5523 18 14C18 13.4477 17.5523 13 17 13H16V15Z" fill="#000000"/>
<path d="M11.001 5.27344C13.2591 5.60337 15.1593 7.0327 16.1436 9H13.7773C12.885 7.90236 11.5247 7.20035 10 7.2002C7.31269 7.20051 5.13412 9.3791 5.13379 12.0664V13.2666H11V15.2666H1.99902V13.2666H3.13379V12.0664C3.13409 8.61389 5.68265 5.75745 9.00098 5.27344V4H11.001V5.27344Z" fill="#000000"/>
</svg>
