<svg xmlns="http://www.w3.org/2000/svg" width="24" height="24" viewBox="0 0 24 24" fill="none"><rect width="24" height="24" fill="none"/>
<path d="M19 17.0005H22V19.0005H19V22.0005H17V19.0005H14V17.0005H17V14.0005H19V17.0005Z" fill="#000000"/>
<path d="M12.5674 3.00053C15.1734 2.06455 17.9196 3.99628 17.9199 6.76518V6.99955H18C20.2089 6.99955 21.9996 8.79072 22 10.9996V12.0005H20V10.9996C19.9996 9.89529 19.1043 8.99955 18 8.99955H6C4.89565 8.99955 4.00036 9.89529 4 10.9996V16.9996C4.0003 18.1039 4.89562 18.9996 6 18.9996H12V20.9996H6C3.79105 20.9996 2.0003 19.2084 2 16.9996V9.6099C2.00022 7.9225 3.05947 6.41588 4.64746 5.84525L12.5674 3.00053ZM15.9199 6.76518C15.9196 5.3809 14.546 4.41447 13.2432 4.88236L7.34961 6.99955H15.9199V6.76518Z" fill="#000000"/>
<path d="M16.0186 12.0005H15.9814C15.9876 12.0005 15.9938 11.9996 16 11.9996C16.0062 11.9996 16.0124 12.0005 16.0186 12.0005Z" fill="#000000"/>
</svg>
