<svg xmlns="http://www.w3.org/2000/svg" width="24" height="24" viewBox="0 0 24 24" fill="none"><rect width="24" height="24" fill="none"/>
<path d="M17.5 13C19.9853 13 22 15.0147 22 17.5C22 18.3804 21.7456 19.2009 21.3086 19.8945L23.207 21.793L21.793 23.207L19.8945 21.3086C19.2009 21.7456 18.3804 22 17.5 22C15.0147 22 13 19.9853 13 17.5C13 15.0147 15.0147 13 17.5 13ZM17.5 15C16.1193 15 15 16.1193 15 17.5C15 18.8807 16.1193 20 17.5 20C18.8807 20 20 18.8807 20 17.5C20 16.1193 18.8807 15 17.5 15Z" fill="#000000"/>
<path d="M21 11H19V4H5V19.3818L8 17.8818L11 19.3818V21.6182L8 20.1182L4.44727 21.8945C4.13735 22.0495 3.76939 22.0327 3.47461 21.8506C3.17979 21.6684 3 21.3466 3 21V2H21V11Z" fill="#000000"/>
<path d="M13 13H8V11H13V13Z" fill="#000000"/>
<path d="M16 9H8V7H16V9Z" fill="#000000"/>
</svg>
