<svg xmlns="http://www.w3.org/2000/svg" width="24" height="24" viewBox="0 0 24 24" fill="none"><rect width="24" height="24" fill="none"/>
<path d="M17 3C19.2091 3.00003 20.9999 4.79096 21 7V17C21 19.2091 19.2091 21 17 21H7C4.79087 21 3.00002 19.2091 3 17V7C3.00002 4.79088 4.79088 3 7 3H17ZM7 5C5.89545 5 5.00002 5.89545 5 7V17C5.00002 18.1046 5.89544 19 7 19H17C18.1046 19 19 18.1046 19 17V7C18.9999 5.89552 18.1045 5.00001 17 5H16V13C16 13.3688 15.7968 13.7078 15.4717 13.8818C15.1466 14.0557 14.7521 14.0366 14.4453 13.832L12 12.2012L9.55469 13.832C9.2479 14.0366 8.85344 14.0557 8.52832 13.8818C8.20316 13.7078 8 13.3688 8 13V5H7ZM10 11.1309L12 9.79785L14 11.1309V5H10V11.1309Z" fill="#000000"/>
</svg>
