<svg xmlns="http://www.w3.org/2000/svg" width="24" height="24" viewBox="0 0 24 24" fill="none"><rect width="24" height="24" fill="none"/>
<path d="M22 23H14V21H22V23Z" fill="#000000"/>
<path d="M4.25195 13.9971C5.13934 17.4485 8.2716 19.999 12 19.999V21.999C7.16138 21.999 3.12596 18.5625 2.2002 13.9971H4.25195Z" fill="#000000"/>
<path d="M22 20H14V18H22V20Z" fill="#000000"/>
<path d="M21.7578 14.9658L14.2578 16.9658L13.7422 15.0342L21.2422 13.0342L21.7578 14.9658Z" fill="#000000"/>
<path d="M12 12H2C2 10.6868 2.2582 9.38611 2.76074 8.17285C3.26329 6.95964 4.00015 5.85727 4.92871 4.92871C5.85727 4.00015 6.95964 3.26329 8.17285 2.76074C9.38611 2.2582 10.6868 2 12 2V12ZM10 4.25488C9.63919 4.34805 9.28428 4.46614 8.93848 4.60938C7.96795 5.01141 7.08559 5.59995 6.34277 6.34277C5.59995 7.08559 5.01141 7.96795 4.60938 8.93848C4.46614 9.28428 4.34805 9.63919 4.25488 10H10V4.25488Z" fill="#000000"/>
<path d="M14 2.19922C18.2462 3.06116 21.513 6.6139 21.9482 11H19.9385C19.53 7.72127 17.1373 5.05843 14 4.25098V2.19922Z" fill="#000000"/>
</svg>
