<svg xmlns="http://www.w3.org/2000/svg" width="24" height="24" viewBox="0 0 24 24" fill="none"><rect width="24" height="24" fill="none"/>
<path d="M10.9999 4.05859C11.6626 3.98005 12.3341 3.97974 12.9999 4.05859V2H14.9999V4.54688C16.038 4.93853 16.9941 5.53136 17.8104 6.2959C18.8921 7.30907 19.6881 8.58688 20.1229 10H17.9989C17.6461 9.15337 17.1174 8.38732 16.4432 7.75586C16.009 7.34914 15.5226 7.00639 14.9999 6.73438V10H12.9999V6.07812C12.3353 5.9747 11.6605 5.97433 10.9999 6.07715V10H8.99988V6.73438C8.16015 7.17113 7.42264 7.78723 6.84265 8.54297C6.10423 9.50536 5.65008 10.6561 5.53113 11.8633C5.41231 13.0705 5.63332 14.2871 6.1698 15.375C6.70634 16.463 7.53715 17.3789 8.56726 18.0195C9.59746 18.6601 10.7868 19 11.9999 19H18.9999V21H3.99988V19H6.52332C5.62974 18.2473 4.89754 17.3155 4.37683 16.2598C3.67518 14.8369 3.38542 13.2458 3.5409 11.667C3.69644 10.0882 4.29098 8.58377 5.25672 7.3252C6.22124 6.06849 7.51769 5.10592 8.99988 4.54688V2H10.9999V4.05859Z" fill="#000000"/>
</svg>
