<svg xmlns="http://www.w3.org/2000/svg" width="20" height="20" viewBox="0 0 20 20" fill="none"><rect width="20" height="20" fill="none"/>
<path d="M13.707 9.29297L12.293 10.707L11 9.41406V14H9V9.41406L7.70703 10.707L6.29297 9.29297L10 5.58594L13.707 9.29297Z" fill="#000000"/>
<path d="M10 2C14.4182 2 17.9999 5.58183 18 10C18 14.4183 14.4183 18 10 18C5.58172 18 2 14.4183 2 10C2.00013 5.58183 5.5818 2 10 2ZM10 4C6.68637 4 4.00013 6.6864 4 10C4 13.3137 6.68629 16 10 16C13.3137 16 16 13.3137 16 10C15.9999 6.6864 13.3136 4 10 4Z" fill="#000000"/>
</svg>
