<svg xmlns="http://www.w3.org/2000/svg" width="20" height="20" viewBox="0 0 20 20" fill="none"><rect width="20" height="20" fill="none"/>
<path d="M6.12207 5.10156C4.67797 6.24884 3.7502 8.01765 3.75 10.001C3.75006 11.984 4.67844 13.7511 6.12207 14.8984V16.71C3.80972 15.3657 2.25007 12.8663 2.25 10.001C2.25023 7.13565 3.80958 4.63524 6.12207 3.29102V5.10156Z" fill="#000000"/>
<path d="M13.9268 3.29102C16.2392 4.63529 17.7988 7.13461 17.7988 10C17.7988 12.8655 16.2394 15.3657 13.9268 16.71V14.8994C15.371 13.7521 16.2988 11.9835 16.2988 10C16.2988 8.01687 15.3705 6.24986 13.9268 5.10254V3.29102Z" fill="#000000"/>
<path d="M13.5303 7.53125L7.53027 13.5312L6.46973 12.4707L12.4697 6.4707L13.5303 7.53125Z" fill="#000000"/>
<path d="M12.25 11.001C12.9403 11.001 13.5 11.5607 13.5 12.251C13.4997 12.9411 12.9402 13.501 12.25 13.501C11.5598 13.5009 11.0003 12.9411 11 12.251C11 11.5607 11.5597 11.001 12.25 11.001Z" fill="#000000"/>
<path d="M7.75 6.50098C8.44033 6.50098 8.99996 7.06066 9 7.75098C8.99974 8.44111 8.44019 9.00098 7.75 9.00098C7.05981 9.00098 6.50026 8.44111 6.5 7.75098C6.50004 7.06066 7.05967 6.50098 7.75 6.50098Z" fill="#000000"/>
</svg>
