<svg xmlns="http://www.w3.org/2000/svg" width="24" height="24" viewBox="0 0 24 24" fill="none"><rect width="24" height="24" fill="none"/>
<path d="M13.0005 11H16.0005V13H13.0005V16H11.0005V13H8.00052V11H11.0005V8H13.0005V11Z" fill="#000000"/>
<path d="M12.0005 2C12.042 2.04122 15.0421 4.99978 20.9995 5C20.9998 7.99992 21.9994 19.9995 12.0005 22L11.5396 21.8994C2.0313 19.6276 2.99982 7.95312 2.99955 5C8.97282 4.99986 11.9739 2.02647 12.0005 2ZM11.9995 4.50977C11.6228 4.75534 11.1718 5.02521 10.6441 5.28906C9.2609 5.98055 7.36784 6.6484 4.97611 6.89648C4.96509 8.6725 5.0405 11.0307 5.67826 13.3428C6.52543 16.4136 8.2603 19.0549 11.9995 19.9521C15.7393 19.0551 17.4746 16.4139 18.3218 13.3428C18.9595 11.0308 19.0341 8.6724 19.023 6.89648C16.6317 6.64834 14.739 5.98048 13.356 5.28906C12.828 5.02503 12.3764 4.75547 11.9995 4.50977Z" fill="#000000"/>
</svg>
