<svg xmlns="http://www.w3.org/2000/svg" width="20" height="20" viewBox="0 0 20 20" fill="none"><rect width="20" height="20" fill="none"/>
<path d="M12.2577 11.0624C12.4166 10.9745 12.6105 10.9799 12.7645 11.0761L16.7645 13.5761L16.8173 13.6132C16.9321 13.7074 16.9999 13.8492 16.9999 13.9999C16.9998 14.1722 16.9107 14.3324 16.7645 14.4237L12.7645 16.9237C12.6105 17.0198 12.4165 17.0253 12.2577 16.9374C12.0988 16.8493 12 16.6816 11.9999 16.4999V14.9999H3.99988V12.9999H11.9999V11.4999C11.9999 11.3182 12.0988 11.1505 12.2577 11.0624Z" fill="#000000"/>
<path d="M7.23523 3.07607C7.38926 2.97989 7.58319 2.97445 7.74207 3.0624C7.90099 3.15052 7.99988 3.31817 7.99988 3.4999V4.9999H16.0009V6.9999H7.99988V8.4999C7.99981 8.68158 7.90098 8.84932 7.74207 8.9374C7.58324 9.02528 7.38922 9.01984 7.23523 8.92373L3.23523 6.42373L3.1825 6.38662C3.06769 6.29242 2.99994 6.15061 2.99988 5.9999C2.99988 5.82754 3.08909 5.66745 3.23523 5.57607L7.23523 3.07607Z" fill="#000000"/>
</svg>
