<svg xmlns="http://www.w3.org/2000/svg" width="20" height="20" viewBox="0 0 20 20" fill="none"><rect width="20" height="20" fill="none"/>
<path d="M10 10.5C11.1046 10.5 12 11.3954 12 12.5C12 13.6046 11.1046 14.5 10 14.5C8.89543 14.5 8 13.6046 8 12.5C8 11.3954 8.89543 10.5 10 10.5Z" fill="#000000"/>
<path d="M18 18H2V7H18V18ZM3.5 14L6 16.5H16.5V11L14 8.5H3.5V14Z" fill="#000000"/>
<path d="M13.416 4.37598L12.584 5.62402L10 3.90137L7.41602 5.62402L6.58398 4.37598L10 2.09863L13.416 4.37598Z" fill="#000000"/>
</svg>
