<svg xmlns="http://www.w3.org/2000/svg" width="20" height="20" viewBox="0 0 20 20" fill="none"><rect width="20" height="20" fill="none"/>
<path d="M11.5 5.99902C13.433 5.99902 15 7.56603 15 9.49902C15 11.432 13.433 12.999 11.5 12.999C9.567 12.999 8 11.432 8 9.49902C8 7.56603 9.567 5.99902 11.5 5.99902ZM11.5 7.49902C10.3954 7.49902 9.5 8.39445 9.5 9.49902C9.5 10.6036 10.3954 11.499 11.5 11.499C12.6046 11.499 13.5 10.6036 13.5 9.49902C13.5 8.39445 12.6046 7.49902 11.5 7.49902Z" fill="#000000"/>
<path d="M6.44922 11.999H4.94922V6.99902H6.44922V11.999Z" fill="#000000"/>
<path d="M15.0488 2.44922C16.7057 2.44922 18.0488 3.79236 18.0488 5.44922V13.5498C18.0487 15.0707 16.9166 16.3267 15.4492 16.5225V17.999H13.9492V16.5498H6.05078V17.999H4.55078V16.5225C3.08244 16.3275 1.94937 15.0714 1.94922 13.5498V5.44922C1.94922 3.79236 3.29236 2.44922 4.94922 2.44922H15.0488ZM4.94922 3.94922C4.12079 3.94922 3.44922 4.62079 3.44922 5.44922V13.5498C3.44938 14.3781 4.12089 15.0498 4.94922 15.0498H15.0488C15.8772 15.0498 16.5487 14.3781 16.5488 13.5498V5.44922C16.5488 4.62079 15.8773 3.94922 15.0488 3.94922H4.94922Z" fill="#000000"/>
</svg>
