<svg xmlns="http://www.w3.org/2000/svg" width="24" height="24" viewBox="0 0 24 24" fill="none"><rect width="24" height="24" fill="none"/>
<path d="M8.29199 7.28711C8.6967 6.77636 9.4826 6.81111 9.84082 7.35547L11.0762 9.23242L9.78809 11.3135C10.5191 12.4887 11.5113 13.4809 12.6865 14.2119L14.8389 12.9365L16.6602 14.1572C17.1987 14.518 17.2305 15.2984 16.7227 15.7012L15.1396 16.9561C14.9077 17.1399 14.599 17.1963 14.3174 17.1055C10.7998 15.9694 8.03764 13.2018 6.89746 9.68555C6.80585 9.403 6.86046 9.09218 7.04492 8.85938L8.29199 7.28711Z" fill="#000000"/>
<path d="M12 2C17.5228 2 22 6.47715 22 12C22 17.5228 17.5228 22 12 22C6.47715 22 2 17.5228 2 12C2 6.47715 6.47715 2 12 2ZM12 4C7.58172 4 4 7.58172 4 12C4 16.4183 7.58172 20 12 20C16.4183 20 20 16.4183 20 12C20 7.58172 16.4183 4 12 4Z" fill="#000000"/>
</svg>
