<svg xmlns="http://www.w3.org/2000/svg" width="20" height="20" viewBox="0 0 20 20" fill="none"><rect width="20" height="20" fill="none"/>
<path d="M10 5C10.4142 5 10.75 5.33579 10.75 5.75V7.75C10.75 8.16421 10.4142 8.5 10 8.5C9.58579 8.5 9.25 8.16421 9.25 7.75V5.75C9.25 5.33579 9.58579 5 10 5Z" fill="#000000"/>
<path d="M10.293 2.00781C13.3047 2.16041 15.7002 4.6505 15.7002 7.7002V12.2998L15.6924 12.5938C15.5395 15.6052 13.0494 17.9999 10 18L9.70605 17.9922C6.69456 17.8393 4.2998 15.3493 4.2998 12.2998V7.7002C4.2998 4.55217 6.85198 2 10 2L10.293 2.00781ZM10 3.5C7.6804 3.5 5.7998 5.3806 5.7998 7.7002V12.2998C5.7998 14.6194 7.6804 16.5 10 16.5C12.3195 16.4999 14.2002 14.6193 14.2002 12.2998V7.7002C14.2002 5.38067 12.3195 3.50011 10 3.5Z" fill="#000000"/>
</svg>
