<svg xmlns="http://www.w3.org/2000/svg" width="20" height="20" viewBox="0 0 20 20" fill="none"><rect width="20" height="20" fill="none"/>
<path d="M17 15C17.2761 15 17.5 15.2239 17.5 15.5V18H18V19L15 18.999V17.999H15.5V15.999H15V14.999L17 15Z" fill="#000000"/>
<path d="M8.25098 2C9.76931 2.00053 11.001 3.23154 11.001 4.75V6H13.252C14.7703 6.00048 16.002 7.23151 16.002 8.75V10.0342C14.3341 10.2651 13.5 11.6734 13.5 13.498V18.001H4.00098V2H8.25098Z" fill="#000000"/>
<path d="M16.5 11.5C17.1904 11.5 17.75 12.0596 17.75 12.75C17.75 13.4404 17.1904 14 16.5 14C15.8096 14 15.25 13.4404 15.25 12.75C15.25 12.0596 15.8096 11.5 16.5 11.5Z" fill="#000000"/>
</svg>
