<svg xmlns="http://www.w3.org/2000/svg" width="20" height="20" viewBox="0 0 20 20" fill="none"><rect width="20" height="20" fill="none"/>
<path d="M16.6641 2.05764C17.0278 1.92818 17.4341 2.02096 17.7071 2.29397C17.9798 2.56705 18.071 2.97241 17.9415 3.33596L12.9425 17.336C12.8078 17.7128 12.461 17.9735 12.0616 17.9981C11.6619 18.0222 11.2858 17.8053 11.1065 17.4473L8.25497 11.7451L2.55282 8.89456C2.19487 8.71543 1.97813 8.34 2.00204 7.94046C2.02628 7.54075 2.28705 7.19336 2.66415 7.05862L16.6641 2.05764ZM5.5411 8.15335L9.74618 10.2549L9.89462 10.5528L11.8458 14.4571L15.3477 4.65139L5.5411 8.15335Z" fill="#000000"/>
</svg>
