<svg xmlns="http://www.w3.org/2000/svg" width="20" height="20" viewBox="0 0 20 20" fill="none"><rect width="20" height="20" fill="none"/>
<path d="M5.75781 5.75781C5.20066 6.31496 4.75856 6.97615 4.45703 7.7041C4.15552 8.43204 4 9.21209 4 10C4 10.7879 4.15552 11.568 4.45703 12.2959C4.75856 13.0239 5.20066 13.685 5.75781 14.2422L4.34277 15.6572C3.59995 14.9144 3.01141 14.0321 2.60938 13.0615C2.20734 12.0909 2 11.0506 2 10C2 8.94943 2.20734 7.90908 2.60938 6.93848C3.01141 5.96795 3.59995 5.08559 4.34277 4.34277L5.75781 5.75781Z" fill="#000000"/>
<path d="M15.6572 4.34277C16.4 5.08559 16.9886 5.96795 17.3906 6.93848C17.7927 7.90908 18 8.94943 18 10C18 11.0506 17.7927 12.0909 17.3906 13.0615C16.9886 14.0321 16.4 14.9144 15.6572 15.6572L14.2422 14.2422C14.7993 13.685 15.2414 13.0239 15.543 12.2959C15.8445 11.568 16 10.7879 16 10C16 9.21209 15.8445 8.43204 15.543 7.7041C15.2414 6.97615 14.7993 6.31496 14.2422 5.75781L15.6572 4.34277Z" fill="#000000"/>
<path d="M8.23242 8.23242C8.00036 8.46449 7.81606 8.73978 7.69043 9.04297C7.56479 9.34628 7.5 9.6717 7.5 10C7.5 10.3283 7.56479 10.6537 7.69043 10.957C7.81606 11.2602 8.00036 11.5355 8.23242 11.7676L6.81836 13.1816C6.4005 12.7638 6.06892 12.2676 5.84277 11.7217C5.6167 11.1758 5.5 10.5909 5.5 10C5.5 9.40914 5.6167 8.82421 5.84277 8.27832C6.06892 7.73236 6.4005 7.23622 6.81836 6.81836L8.23242 8.23242Z" fill="#000000"/>
<path d="M13.1816 6.81836C13.5995 7.23622 13.9311 7.73236 14.1572 8.27832C14.3833 8.82421 14.5 9.40914 14.5 10C14.5 10.5909 14.3833 11.1758 14.1572 11.7217C13.9311 12.2676 13.5995 12.7638 13.1816 13.1816L11.7676 11.7676C11.9996 11.5355 12.1839 11.2602 12.3096 10.957C12.4352 10.6537 12.5 10.3283 12.5 10C12.5 9.6717 12.4352 9.34628 12.3096 9.04297C12.1839 8.73978 11.9996 8.46449 11.7676 8.23242L13.1816 6.81836Z" fill="#000000"/>
<path d="M10 9C10.5523 9 11 9.44772 11 10C11 10.5523 10.5523 11 10 11C9.44772 11 9 10.5523 9 10C9 9.44772 9.44772 9 10 9Z" fill="#000000"/>
</svg>
