<svg xmlns="http://www.w3.org/2000/svg" width="20" height="20" viewBox="0 0 20 20" fill="none"><rect width="20" height="20" fill="none"/>
<path d="M18.5303 13.5307L13.5 18.5609L10.4697 15.5307L11.5303 14.4701L13.5 16.4399L17.4697 12.4701L18.5303 13.5307Z" fill="#000000"/>
<path d="M11.3643 2.767C13.1569 2.11834 15.0495 3.44657 15.0498 5.35294V5.95157H15.2998C16.8184 5.95157 18.0496 7.183 18.0498 8.70157V10.0024H16.5498V8.70157C16.5496 8.01142 15.99 7.45157 15.2998 7.45157H4.7002C4.00999 7.45157 3.45044 8.01142 3.4502 8.70157V15.3012C3.45045 15.9913 4.01 16.5512 4.7002 16.5512H8V18.0512H4.7002C3.18157 18.0512 1.95045 16.8197 1.9502 15.3012V8.10392C1.95054 6.94666 2.67561 5.91317 3.76367 5.51895L11.3643 2.767ZM13.5498 5.35294C13.5495 4.48651 12.6888 3.88226 11.874 4.17716L6.97363 5.95157H13.5498V5.35294Z" fill="#000000"/>
</svg>
