<svg xmlns="http://www.w3.org/2000/svg" width="20" height="20" viewBox="0 0 20 20" fill="none"><rect width="20" height="20" fill="none"/>
<path d="M16 16C17.6569 16 19 17.3431 19 19H13C13 17.3431 14.3431 16 16 16Z" fill="#000000"/>
<path d="M9.22949 1.00582C9.81218 0.974794 10.3949 1.0681 10.9385 1.28023C11.4821 1.49242 11.9742 1.81871 12.3818 2.23628C12.7895 2.65403 13.1038 3.15431 13.3027 3.70308C13.4551 4.12325 13.5369 4.56469 13.5469 5.00972H15.6924L16.0127 8.99996H14.5068L14.3076 6.50972H4.67676L3.65039 16.5009H11V18.0009H1.98828L3.32324 5.00972H5.34863C5.35536 4.71093 5.39401 4.4129 5.46582 4.12105C5.60525 3.55439 5.8638 3.02404 6.22461 2.56539C6.58557 2.10664 7.04048 1.72978 7.55859 1.46089C8.0767 1.19202 8.6466 1.0369 9.22949 1.00582ZM9.30859 2.50386C8.93905 2.52363 8.5775 2.62148 8.24902 2.79195C7.92056 2.96245 7.63219 3.20131 7.40332 3.49214C7.17439 3.78309 7.01032 4.11995 6.92188 4.47945C6.87901 4.65368 6.85486 4.8314 6.84863 5.00972H12.0459C12.0365 4.73894 11.9853 4.47063 11.8926 4.2148C11.7664 3.86675 11.5672 3.54909 11.3086 3.28414C11.0501 3.01932 10.7383 2.81228 10.3936 2.67769C10.0487 2.54308 9.67828 2.48415 9.30859 2.50386Z" fill="#000000"/>
<path d="M16 11C17.1046 11 18 11.8954 18 13C18 14.1045 17.1046 15 16 15C14.8954 15 14 14.1045 14 13C14 11.8954 14.8954 11 16 11Z" fill="#000000"/>
<path d="M7.50977 9.99996H6.00977V7.99996H7.50977V9.99996Z" fill="#000000"/>
<path d="M12.9756 9.99996H11.4756V7.99996H12.9756V9.99996Z" fill="#000000"/>
</svg>
