<svg xmlns="http://www.w3.org/2000/svg" width="24" height="24" viewBox="0 0 24 24" fill="none"><rect width="24" height="24" fill="none"/>
<path d="M13 5H19C20.6554 5 22 6.3397 22 7.99805V16.0029C22 17.6619 20.6547 19 19 19H13V22H11V2H13V5ZM13 17H19C19.5544 17 20 16.5531 20 16.0029V11H13V17ZM13 9H20V7.99805C20 7.44726 19.5538 7 19 7H13V9Z" fill="#000000"/>
<path d="M9 7H5C4.44772 7 4 7.44772 4 8V16C4 16.5523 4.44772 17 5 17H9V19H5C3.34315 19 2 17.6569 2 16V8C2 6.34315 3.34315 5 5 5H9V7Z" fill="#000000"/>
</svg>
