<svg xmlns="http://www.w3.org/2000/svg" width="24" height="24" viewBox="0 0 24 24" fill="none"><rect width="24" height="24" fill="none"/>
<path d="M19.0002 22.0012H5.00024V20.0012H19.0002V22.0012Z" fill="#000000"/>
<path d="M11.8997 2.02562C13.707 1.87093 15.5069 2.42052 16.9641 3.57152C17.6948 4.14876 18.3145 4.85857 18.8 5.66039L16.7991 6.26097C16.4893 5.83762 16.1278 5.45998 15.7239 5.14085C14.6555 4.29703 13.3579 3.90862 12.0706 4.01878C10.7821 4.12919 9.54782 4.73541 8.60767 5.76293C7.66472 6.79374 7.08655 8.17714 7.00903 9.66039C6.93175 11.1438 7.36326 12.5927 8.19946 13.7375C9.0338 14.8795 10.2054 15.6326 11.4788 15.8957C12.7497 16.1581 14.0741 15.9235 15.2141 15.217C15.8231 14.8395 16.3599 14.3369 16.7971 13.7395L18.7981 14.3401C18.1609 15.3921 17.2978 16.2788 16.2678 16.9172C14.6999 17.8889 12.8547 18.2223 11.0745 17.8547C9.2944 17.487 7.69889 16.4438 6.58423 14.9182C5.46977 13.3926 4.91127 11.4871 5.01196 9.55589C5.11284 7.62491 5.86594 5.7975 7.13208 4.41332C8.39841 3.02922 10.0925 2.18049 11.8997 2.02562Z" fill="#000000"/>
</svg>
