<svg xmlns="http://www.w3.org/2000/svg" width="24" height="24" viewBox="0 0 24 24" fill="none"><rect width="24" height="24" fill="none"/>
<path d="M16 14.9985H7V12.9985H16V14.9985Z" fill="#000000"/>
<path d="M13 10.9985H7V8.99849H13V10.9985Z" fill="#000000"/>
<path d="M10.0381 2.9565C11.2559 2.27054 12.7436 2.26953 13.9619 2.95454L18.9609 5.76704C20.2202 6.47546 20.9998 7.80851 21 9.25337V14.7436C20.9999 16.1885 20.2203 17.5215 18.9609 18.2299L13.9609 21.0424C12.7433 21.7273 11.2567 21.7273 10.0391 21.0424L5.04102 18.2319C3.78007 17.5224 3.00003 16.1865 3.00196 14.7397L3.00977 9.24751C3.01194 7.80557 3.79058 6.47582 5.04688 5.76802L10.0381 2.9565ZM12.9814 4.69771C12.3724 4.35536 11.6283 4.3558 11.0195 4.69868L6.02832 7.51021C5.40026 7.86408 5.01093 8.52957 5.00977 9.25044L5.00196 14.7426C5.00106 15.4659 5.39121 16.134 6.02149 16.4887L11.0195 19.2993C11.6283 19.6417 12.3717 19.6417 12.9805 19.2993L17.9805 16.4868C18.61 16.1325 18.9999 15.466 19 14.7436V9.25337C18.9998 8.53107 18.61 7.86439 17.9805 7.51021L12.9814 4.69771Z" fill="#000000"/>
</svg>
