<svg xmlns="http://www.w3.org/2000/svg" width="20" height="20" viewBox="0 0 20 20" fill="none"><rect width="20" height="20" fill="none"/>
<path d="M18.5303 13.5303L13.5 18.5605L10.4697 15.5303L11.5303 14.4697L13.5 16.4395L17.4697 12.4697L18.5303 13.5303Z" fill="#000000"/>
<path d="M10.5 3.25C13.0602 3.25 15.1913 5.08282 15.6553 7.50781C17.0139 7.74728 18.1168 8.71904 18.5498 10H16.9014C16.5827 9.49659 16.0708 9.12764 15.4688 9H14.25V8.5C14.25 6.42893 12.5711 4.75 10.5 4.75C8.42893 4.75 6.75 6.42893 6.75 8.5V8.75H5.875C4.14911 8.75 2.75 10.1491 2.75 11.875C2.75 13.6009 4.14911 15 5.875 15H8V16.5H5.875C3.32068 16.5 1.25 14.4293 1.25 11.875C1.25 9.48288 3.06593 7.51372 5.39453 7.27344C5.94694 4.96565 8.0229 3.25 10.5 3.25Z" fill="#000000"/>
</svg>
