<svg xmlns="http://www.w3.org/2000/svg" width="20" height="20" viewBox="0 0 20 20" fill="none"><rect width="20" height="20" fill="none"/>
<path d="M18.707 17.293L17.293 18.707L12.5156 13.9297C12.0146 14.0389 11.5087 14.118 11 14.1611V18.001H9V14.1611C7.69966 14.0509 6.41299 13.7266 5.19531 13.1855L4.75 12.9883L4.74902 9.5L4.75 9.125L5.0498 8.90039C5.51827 8.54904 5.9127 8.11936 6.22363 7.6377L1.29297 2.70703L2.70703 1.29297L18.707 17.293Z" fill="#000000"/>
<path d="M8.36328 1.88672C9.4378 1.61828 10.5622 1.61811 11.6367 1.88672L12.1816 2.02246L12.6963 2.15137L13.0098 5.44043C13.141 6.81505 13.8455 8.07283 14.9502 8.90137L15.25 9.125V11.3359L7.19531 3.28125L7.30371 2.15137L7.81836 2.02148L8.36328 1.88672Z" fill="#000000"/>
</svg>
