<svg xmlns="http://www.w3.org/2000/svg" width="24" height="24" viewBox="0 0 24 24" fill="none"><rect width="24" height="24" fill="none"/>
<path d="M18.5547 13C18.808 13.0001 19.0295 13.1717 19.0928 13.417L19.2988 14.2158C19.8155 14.3931 20.2849 14.6727 20.6816 15.0312L21.5684 14.7861C21.8095 14.7195 22.0653 14.8222 22.1934 15.0371L22.7334 15.9434C22.8669 16.1676 22.8263 16.4544 22.6357 16.6328L21.9365 17.2881C21.978 17.5191 22 17.757 22 18C22 18.243 21.978 18.4809 21.9365 18.7119L22.6357 19.3672C22.8263 19.5456 22.8669 19.8324 22.7334 20.0566L22.1934 20.9629C22.0652 21.1778 21.8095 21.2805 21.5684 21.2139L20.6816 20.9688C20.2849 21.3273 19.8155 21.6069 19.2988 21.7842L19.0928 22.583C19.0295 22.8283 18.808 22.9999 18.5547 23H17.4434C17.19 23 16.9686 22.8283 16.9053 22.583L16.6982 21.7832C16.1825 21.6058 15.7144 21.3259 15.3184 20.9678L14.4297 21.2139C14.1885 21.2807 13.9319 21.1779 13.8037 20.9629L13.2637 20.0566C13.1303 19.8324 13.1709 19.5456 13.3613 19.3672L14.0625 18.71C14.0212 18.4796 14 18.2423 14 18C14 17.7577 14.0212 17.5204 14.0625 17.29L13.3613 16.6328C13.1709 16.4544 13.1303 16.1676 13.2637 15.9434L13.8037 15.0371C13.9319 14.8221 14.1885 14.7193 14.4297 14.7861L15.3184 15.0322C15.7144 14.6741 16.1825 14.3942 16.6982 14.2168L16.9053 13.417C16.9686 13.1717 17.19 13 17.4434 13H18.5547ZM18 16.499C17.1707 16.499 16.4982 17.1707 16.498 18C16.498 18.8294 17.1706 19.502 18 19.502C18.8293 19.5018 19.502 18.8293 19.502 18C19.5018 17.1708 18.8292 16.4992 18 16.499Z" fill="#000000"/>
<path d="M12 2C13.6569 2 15 3.34314 15 5V7H17C18.6568 7 20 8.34317 20 10V11H18V10C18 9.44774 17.5523 9 17 9H13V5C13 4.44771 12.5523 4 12 4H6V20H11V22H4V2H12Z" fill="#000000"/>
</svg>
