<svg xmlns="http://www.w3.org/2000/svg" width="24" height="24" viewBox="0 0 24 24" fill="none"><rect width="24" height="24" fill="none"/>
<path d="M23 15.0001C23 15.0001 22.9999 21.5 18 23.0001C13.0001 21.5 13 15.0001 13 15.0001L18 13.0001L23 15.0001ZM15.1387 16.2989C15.216 16.7449 15.3343 17.2593 15.5156 17.7852C15.97 19.1029 16.7239 20.2666 18 20.8643C19.2761 20.2666 20.03 19.1029 20.4844 17.7852C20.6657 17.2594 20.783 16.7449 20.8604 16.2989L18 15.1544L15.1387 16.2989Z" fill="#000000"/>
<path d="M9.40332 2.19734C9.65676 2.00904 9.98465 1.95145 10.2871 2.04207L21 5.25594V11.0001H19V6.74422L11 4.34383V21.0001H3V11.0001L9 8.75008V3.00008L9.00684 2.88289C9.03891 2.61161 9.18142 2.36245 9.40332 2.19734ZM5 12.3858V19.0001H9V10.8858L5 12.3858Z" fill="#000000"/>
</svg>
