<svg xmlns="http://www.w3.org/2000/svg" width="24" height="24" viewBox="0 0 24 24" fill="none"><rect width="24" height="24" fill="none"/>
<path d="M21 13H19V4H5V19.3818L8 17.8818L12 19.8818V22.1182L8 20.1182L4.44727 21.8945C4.13735 22.0495 3.76939 22.0327 3.47461 21.8506C3.17979 21.6684 3 21.3466 3 21V2H21V13Z" fill="#000000"/>
<path d="M22.707 16.707L17.5 21.9141L14.293 18.707L15.707 17.293L17.5 19.0859L21.293 15.293L22.707 16.707Z" fill="#000000"/>
<path d="M14 13H8V11H14V13Z" fill="#000000"/>
<path d="M16 9H8V7H16V9Z" fill="#000000"/>
</svg>
