<svg xmlns="http://www.w3.org/2000/svg" width="20" height="20" viewBox="0 0 20 20" fill="none"><rect width="20" height="20" fill="none"/>
<path d="M18.9996 19H10.9996V17H18.9996V19Z" fill="#000000"/>
<path d="M9.99867 2.00098C11.0455 2.00106 12.0515 2.29638 12.7614 2.56641C13.1228 2.70395 13.426 2.84199 13.6393 2.94629C13.7454 2.99821 13.8318 3.04302 13.8922 3.0752C13.9219 3.09098 13.9471 3.10467 13.9645 3.11426C13.9727 3.11877 13.9807 3.12303 13.986 3.12598C13.9882 3.12721 13.9928 3.12988 13.9928 3.12988L13.9948 3.13184H13.9967C13.9912 3.14202 13.9406 3.23149 13.5016 4.00098L13.9967 3.13184C14.2673 3.28639 14.4514 3.55928 14.4928 3.86816C14.5339 4.17666 14.4286 4.48784 14.2086 4.70801L11.6871 7.22656L13.8727 8.31934C14.2432 8.50465 14.5855 8.73482 14.8942 9H10.7614L9.99964 8.61914L7.02113 10.1084C6.26959 10.4845 5.7091 11.1597 5.47816 11.9678L5.05433 13.4512C4.69011 14.7282 5.64926 16.0003 6.97718 16.001H8.99964V18.001H6.97718C4.32064 18.0003 2.40155 15.4568 3.1305 12.9023L3.55531 11.418C3.94028 10.0709 4.87371 8.94618 6.1266 8.31934L8.31117 7.22656L5.79457 4.70801C5.57493 4.48795 5.4695 4.17636 5.51039 3.86816C5.55167 3.56017 5.73517 3.28765 6.00453 3.13281L6.00648 3.13184L6.00941 3.13086L6.03675 3.11523C6.05391 3.10574 6.07966 3.09186 6.10902 3.07617C6.16917 3.04405 6.25607 2.99922 6.36195 2.94727C6.57462 2.84297 6.87734 2.70399 7.23793 2.56641C7.94654 2.29622 8.95173 2.00126 9.99867 2.00098ZM9.99867 4.00098C9.40751 4.00122 8.78461 4.14705 8.24378 4.33008L9.99964 6.08594L11.7565 4.33008C11.214 4.1469 10.5901 4.00105 9.99867 4.00098Z" fill="#000000"/>
<path d="M18.7575 13.9658L11.2575 15.9658L10.7418 14.0342L18.2418 12.0342L18.7575 13.9658Z" fill="#000000"/>
</svg>
