<svg xmlns="http://www.w3.org/2000/svg" width="24" height="24" viewBox="0 0 24 24" fill="none"><rect width="24" height="24" fill="none"/>
<path d="M4 17C4 18.6569 5.34315 20 7 20H9V22H7C4.23858 22 2 19.7614 2 17V15H4V17Z" fill="#000000"/>
<path d="M22 17C22 19.7614 19.7614 22 17 22H15V20H17C18.6569 20 20 18.6569 20 17V15H22V17Z" fill="#000000"/>
<path d="M9 4H7C5.34315 4 4 5.34315 4 7V9H2V7C2 4.23858 4.23858 2 7 2H9V4Z" fill="#000000"/>
<path d="M17 2C19.7614 2 22 4.23858 22 7V9H20V7C20 5.34315 18.6569 4 17 4H15V2H17Z" fill="#000000"/>
</svg>
