<svg xmlns="http://www.w3.org/2000/svg" width="20" height="20" viewBox="0 0 20 20" fill="none"><rect width="20" height="20" fill="none"/>
<path d="M7 3.55078C8.22677 3.55078 9.31584 4.14001 10 5.05078C10.6842 4.14001 11.7732 3.55078 13 3.55078H17V5.05078H13C11.7574 5.05078 10.7501 6.05823 10.75 7.30078V12.001H12.5C12.6818 12.001 12.8494 12.0998 12.9375 12.2588C13.0254 12.4177 13.02 12.6116 12.9238 12.7656L10.4238 16.7656C10.3325 16.9118 10.1724 17.001 10 17.001C9.82761 17.001 9.66754 16.9118 9.57617 16.7656L7.07617 12.7656C6.97999 12.6116 6.97455 12.4177 7.0625 12.2588C7.15061 12.0998 7.31824 12.001 7.5 12.001H9.25V7.30078C9.24989 6.05823 8.24258 5.05078 7 5.05078H3V3.55078H7Z" fill="#000000"/>
</svg>
