<svg xmlns="http://www.w3.org/2000/svg" width="20" height="20" viewBox="0 0 20 20" fill="none"><rect width="20" height="20" fill="none"/>
<path d="M10.2002 2C12.5317 2.00023 14.5231 3.45176 15.3232 5.5H16.999V7H15.6758C15.6906 7.16472 15.7002 7.33141 15.7002 7.5C15.7002 7.66859 15.6906 7.83528 15.6758 8H16.999V9.5H15.3232C14.5231 11.5482 12.5317 12.9998 10.2002 13H7V18H5V9.5H2.99902V8H5V7H2.99902V5.5H5V2H10.2002ZM7 11H10.2002C11.3891 10.9998 12.4389 10.4063 13.0713 9.5H7V11ZM7 8H13.6631C13.6865 7.83665 13.7002 7.66982 13.7002 7.5C13.7002 7.33018 13.6865 7.16335 13.6631 7H7V8ZM7 5.5H13.0713C12.4389 4.59368 11.3891 4.00018 10.2002 4H7V5.5Z" fill="#000000"/>
</svg>
