<svg xmlns="http://www.w3.org/2000/svg" width="20" height="20" viewBox="0 0 20 20" fill="none"><rect width="20" height="20" fill="none"/>
<path d="M15.166 5.00391C16.7457 5.09005 18 6.39884 18 8V12L17.9961 12.1543C17.9158 13.7394 16.6051 15 15 15V18H5V15L4.8457 14.9961C3.31166 14.9184 2.08163 13.6883 2.00391 12.1543L2 12V8C2 6.39919 3.25384 5.09153 4.83301 5.00488V2H15.166V5.00391ZM7 16H13V13H7V16ZM5 7C4.44772 7 4 7.44772 4 8V12C4 12.5523 4.44772 13 5 13V11H15V13C15.5523 13 16 12.5523 16 12V8C16 7.44772 15.5523 7 15 7H5ZM6.83301 5H13.166V4H6.83301V5Z" fill="#000000"/>
</svg>
