<svg xmlns="http://www.w3.org/2000/svg" width="20" height="20" viewBox="0 0 20 20" fill="none"><rect width="20" height="20" fill="none"/>
<path d="M16.7129 10.7988L16.7236 10.8096C16.7292 10.8154 16.737 10.8234 16.7461 10.833C16.7647 10.8525 16.7906 10.8806 16.8223 10.915C16.8854 10.9838 16.9735 11.0813 17.0771 11.2041C17.2838 11.449 17.559 11.7989 17.8359 12.2207C18.3691 13.033 19 14.2508 19 15.5625C19 16.1042 18.8775 16.9052 18.46 17.6074C18.0108 18.3626 17.2095 19 16 19C14.7905 19 13.9892 18.3626 13.54 17.6074C13.1225 16.9052 13 16.1042 13 15.5625C13 14.2508 13.6309 13.033 14.1641 12.2207C14.441 11.7989 14.7162 11.449 14.9229 11.2041C15.0265 11.0813 15.1146 10.9838 15.1777 10.915C15.2094 10.8806 15.2353 10.8525 15.2539 10.833C15.263 10.8234 15.2708 10.8154 15.2764 10.8096L15.2871 10.7988L16 10.0742L16.7129 10.7988ZM15.8359 13.3184C15.3691 14.0295 15 14.843 15 15.5625C15 15.8599 15.0773 16.2782 15.2598 16.585C15.4106 16.8386 15.6097 17 16 17C16.3903 17 16.5894 16.8386 16.7402 16.585C16.9227 16.2782 17 15.8599 17 15.5625C17 14.843 16.6309 14.0295 16.1641 13.3184C16.1092 13.2348 16.0541 13.1546 16 13.0781C15.9459 13.1546 15.8908 13.2348 15.8359 13.3184Z" fill="#000000"/>
<path d="M17 6.96484V8H14.9473L10 4.70117L5 8.03516V15H11V17H3V6.96484L10 2.29785L17 6.96484Z" fill="#000000"/>
</svg>
