<svg xmlns="http://www.w3.org/2000/svg" width="20" height="20" viewBox="0 0 20 20" fill="none"><rect width="20" height="20" fill="none"/>
<path d="M15.75 3C16.9926 3 18 4.00736 18 5.25V10.25C18 11.4926 16.9926 12.5 15.75 12.5H14.5V14.75C14.5 15.9926 13.4926 17 12.25 17H4.25C3.00764 17 2 15.9929 2 14.75V9.74805C2.00021 8.50457 3.00851 7.5 4.25 7.5H5.5V5.24902C5.5 4.00544 6.5083 3 7.75 3H15.75ZM4.25 9C3.8349 9 3.50021 9.33503 3.5 9.74805V14.75C3.5 15.1639 3.8355 15.5 4.25 15.5H12.25C12.6642 15.5 13 15.1642 13 14.75V12.5H7.75C6.50747 12.5 5.5 11.4928 5.5 10.25V9H4.25ZM7 10.25C7 10.6641 7.33567 11 7.75 11H15.75C16.1642 11 16.5 10.6642 16.5 10.25V7.5H7V10.25ZM7.75 4.5C7.33485 4.5 7 4.83575 7 5.24902V6H16.5V5.25C16.5 4.83579 16.1642 4.5 15.75 4.5H7.75Z" fill="#000000"/>
</svg>
