<svg xmlns="http://www.w3.org/2000/svg" width="20" height="20" viewBox="0 0 20 20" fill="none"><rect width="20" height="20" fill="none"/>
<path d="M8.36328 1.88594C9.43774 1.61753 10.5623 1.61736 11.6367 1.88594L12.1816 2.02168L12.6963 2.15059L13.0098 5.43965C13.1408 6.81438 13.8455 8.07194 14.9502 8.90059L15.25 9.12422V12.9865L14.8047 13.1848C13.587 13.7259 12.3004 14.0501 11 14.1604V18.0002H9V14.1604C7.69961 14.0501 6.41304 13.7259 5.19531 13.1848L4.75 12.9875L4.74902 9.49922L4.75 9.12422L5.0498 8.89961C6.15462 8.0709 6.85926 6.81451 6.99023 5.43965L7.30371 2.15059L7.81836 2.0207L8.36328 1.88594Z" fill="#000000"/>
</svg>
