<svg xmlns="http://www.w3.org/2000/svg" width="24" height="24" viewBox="0 0 24 24" fill="none"><rect width="24" height="24" fill="none"/>
<path d="M9.40015 2.46342C11.0688 1.796 12.9307 1.79512 14.5994 2.46244L14.8718 2.57181L15.3943 2.7808L16.0222 6.54642C16.2904 8.15488 17.0536 9.64054 18.2068 10.7935L18.4998 11.0865V15.1451L17.9128 15.4107C16.3481 16.1219 14.6816 16.5287 12.9998 16.6363L13.0007 22.0005L11.0007 21.9995L10.9998 16.6236C9.30968 16.4929 7.63825 16.0607 6.07495 15.3277L5.49976 15.0572V11.0865L5.79272 10.7935C6.94568 9.64043 7.70993 8.15478 7.97827 6.54642L8.6062 2.7808L9.40015 2.46342Z" fill="#000000"/>
</svg>
