<svg xmlns="http://www.w3.org/2000/svg" width="20" height="20" viewBox="0 0 20 20" fill="none"><rect width="20" height="20" fill="none"/>
<path d="M13 12C13.1894 12 13.3626 12.107 13.4473 12.2764C13.5319 12.4456 13.5138 12.6483 13.4004 12.7998L10.4004 16.7998C10.306 16.9256 10.1573 17 10 17C9.84275 16.9999 9.694 16.9256 9.59963 16.7998L6.59963 12.7998C6.48633 12.6484 6.46821 12.4456 6.55275 12.2764C6.63741 12.1071 6.81075 12.0001 7.00002 12H13Z" fill="#000000"/>
<path d="M10 3C10.1573 3 10.306 3.07438 10.4004 3.2002L13.4004 7.2002C13.5138 7.35167 13.5319 7.55436 13.4473 7.72363C13.3626 7.89296 13.1894 8 13 8H7.00002C6.81075 7.99989 6.63741 7.89294 6.55275 7.72363C6.46821 7.55443 6.48633 7.35162 6.59963 7.2002L9.59963 3.2002C9.694 3.07437 9.84275 3.00009 10 3Z" fill="#000000"/>
</svg>
