<svg xmlns="http://www.w3.org/2000/svg" width="24" height="24" viewBox="0 0 24 24" fill="none"><rect width="24" height="24" fill="none"/>
<path d="M15.3408 2.5C17.656 2.50012 19.6688 4.08954 20.2051 6.3418L21.3867 11.3047C21.8356 13.1898 20.4056 15 18.4678 15H16.1807L16.4043 16.3428C16.8104 18.7806 14.9304 20.9998 12.459 21H12C11.5532 21 11.1649 20.7043 11.041 20.2822L11.0195 20.1963L10.7852 19.0254C10.3574 16.8868 9.2459 14.9497 7.625 13.5H5.2002C3.98517 13.5 3 12.5148 3 11.2998V4.7002C3 3.48517 3.98517 2.5 5.2002 2.5H15.3408ZM9 4.5V12.0449C10.9208 13.7787 12.2369 16.0872 12.7461 18.6328L12.8125 18.9668C13.8675 18.7792 14.6149 17.7704 14.4316 16.6709L14.0137 14.1641C13.9655 13.8742 14.0474 13.5777 14.2373 13.3535C14.4273 13.1294 14.7061 13 15 13H18.4678C19.1137 13 19.59 12.3969 19.4404 11.7686L18.2588 6.80469C17.9369 5.45362 16.7297 4.50012 15.3408 4.5H9ZM5.2002 4.5C5.08974 4.5 5 4.58974 5 4.7002V11.2998C5 11.4103 5.08974 11.5 5.2002 11.5H7V4.5H5.2002Z" fill="#000000"/>
</svg>
