<svg xmlns="http://www.w3.org/2000/svg" width="24" height="24" viewBox="0 0 24 24" fill="none"><rect width="24" height="24" fill="none"/>
<path d="M9.20703 11.207C8.21699 12.1971 8.21724 13.8028 9.20703 14.793C10.1972 15.7831 11.8028 15.7831 12.793 14.793L14.207 16.207C12.4358 17.9782 9.5642 17.9783 7.79297 16.207C6.02213 14.4358 6.02188 11.5641 7.79297 9.79297L9.20703 11.207Z" fill="#000000"/>
<path d="M9.79297 7.79297C11.5641 6.02194 14.4358 6.02215 16.207 7.79297C17.9782 9.56418 17.9782 12.4358 16.207 14.207L14.793 12.793C15.7831 11.8028 15.7831 10.1972 14.793 9.20703C13.8028 8.21726 12.1971 8.21705 11.207 9.20703L9.79297 7.79297Z" fill="#000000"/>
<path d="M13.707 11.707L11.707 13.707L10.293 12.293L12.293 10.293L13.707 11.707Z" fill="#000000"/>
<path d="M12 2C17.5228 2 22 6.47715 22 12C22 17.5228 17.5228 22 12 22C6.47715 22 2 17.5228 2 12C2 6.47715 6.47715 2 12 2ZM12 4C7.58172 4 4 7.58172 4 12C4 16.4183 7.58172 20 12 20C16.4183 20 20 16.4183 20 12C20 7.58172 16.4183 4 12 4Z" fill="#000000"/>
</svg>
