<svg xmlns="http://www.w3.org/2000/svg" width="24" height="24" viewBox="0 0 24 24" fill="none"><rect width="24" height="24" fill="none"/>
<path d="M22.207 15.207L15.207 22.207L13.793 20.793L20.793 13.793L22.207 15.207Z" fill="#000000"/>
<path d="M20.5 19C21.3284 19 22 19.6716 22 20.5C21.9998 21.3283 21.3283 22 20.5 22C19.6717 22 19.0002 21.3283 19 20.5C19 19.6716 19.6716 19.0001 20.5 19Z" fill="#000000"/>
<path d="M12.5674 3.00001C15.1733 2.0641 17.9195 3.99587 17.9199 6.76466V6.99903H18C20.2089 6.99903 21.9995 8.79028 22 10.999V12H20V10.999C19.9995 9.89485 19.1043 8.99903 18 8.99903H6C4.89571 8.99903 4.00045 9.89485 4 10.999V16.999C4.00016 18.1035 4.89553 18.999 6 18.999H12V20.999H6C3.79096 20.999 2.00016 19.208 2 16.999V9.60938C2.00028 7.92202 3.05947 6.41533 4.64746 5.84474L12.5674 3.00001ZM15.9199 6.76466C15.9195 5.38048 14.546 4.41402 13.2432 4.88184L7.34961 6.99903H15.9199V6.76466Z" fill="#000000"/>
<path d="M15.5 14C16.3284 14 17 14.6716 17 15.5C16.9998 16.3283 16.3283 17 15.5 17C14.6717 17 14.0002 16.3283 14 15.5C14 14.6716 14.6716 14.0001 15.5 14Z" fill="#000000"/>
<path d="M16.0186 12H15.9814C15.9876 12 15.9938 11.999 16 11.999C16.0062 11.999 16.0124 12 16.0186 12Z" fill="#000000"/>
</svg>
