<svg xmlns="http://www.w3.org/2000/svg" width="20" height="20" viewBox="0 0 20 20" fill="none"><rect width="20" height="20" fill="none"/>
<path d="M18.5303 12.5303L16.0605 15L18.5303 17.4697L17.4697 18.5303L15 16.0605L12.5303 18.5303L11.4697 17.4697L13.9395 15L11.4697 12.5303L12.5303 11.4697L15 13.9395L17.4697 11.4697L18.5303 12.5303Z" fill="#000000"/>
<path d="M11.25 2C12.7688 2 14 3.23122 14 4.75V6H15.25C16.7688 6 18 7.23122 18 8.75V10H16.5V8.75C16.5 8.05964 15.9404 7.5 15.25 7.5H4.75C4.05964 7.5 3.5 8.05964 3.5 8.75V15.25C3.5 15.9404 4.05964 16.5 4.75 16.5H10V18H4.75C3.23122 18 2 16.7688 2 15.25V8.75C2 7.23122 3.23122 6 4.75 6H6V4.75C6 3.23122 7.23122 2 8.75 2H11.25ZM8.75 3.5C8.05964 3.5 7.5 4.05964 7.5 4.75V6H12.5V4.75C12.5 4.05964 11.9404 3.5 11.25 3.5H8.75Z" fill="#000000"/>
</svg>
