<svg xmlns="http://www.w3.org/2000/svg" width="24" height="24" viewBox="0 0 24 24" fill="none"><rect width="24" height="24" fill="none"/>
<path d="M13 12.5859L15.707 15.293L14.293 16.707L11 13.4141V9H13V12.5859Z" fill="#000000"/>
<path d="M12 4C16.9706 4 21 8.02944 21 13C21 17.9706 16.9706 22 12 22C7.02944 22 3 17.9706 3 13C3 8.02944 7.02944 4 12 4ZM12 6C8.13401 6 5 9.13401 5 13C5 16.866 8.13401 20 12 20C15.866 20 19 16.866 19 13C19 9.13401 15.866 6 12 6Z" fill="#000000"/>
<path d="M7.20703 3.20703L3.20703 7.20703L1.79297 5.79297L5.79297 1.79297L7.20703 3.20703Z" fill="#000000"/>
<path d="M22.207 5.79297L20.793 7.20703L16.793 3.20703L18.207 1.79297L22.207 5.79297Z" fill="#000000"/>
</svg>
