<svg xmlns="http://www.w3.org/2000/svg" width="20" height="20" viewBox="0 0 20 20" fill="none"><rect width="20" height="20" fill="none"/>
<path d="M11.5762 4.00977C12.1389 4.05546 12.6795 4.25891 13.1338 4.59961L19 9V14C19 14.7836 18.5479 15.459 17.8916 15.7871C17.5455 17.0616 16.3841 18 15 18C13.6941 18 12.5859 17.1647 12.1738 16H7.82617C7.41406 17.1647 6.30585 18 5 18C3.6158 18 2.45345 17.0618 2.10742 15.7871C1.45157 15.4589 1 14.7833 1 14V7C1 5.34315 2.34315 4 4 4H11.333L11.5762 4.00977ZM5 14C4.44772 14 4 14.4477 4 15C4 15.5523 4.44772 16 5 16C5.55228 16 6 15.5523 6 15C6 14.4477 5.55228 14 5 14ZM15 14C14.4477 14 14 14.4477 14 15C14 15.5523 14.4477 16 15 16C15.5523 16 16 15.5523 16 15C16 14.4477 15.5523 14 15 14ZM4 6C3.44772 6 3 6.44772 3 7V8H9V10H3V12.7676C3.53098 12.2916 4.23076 12 5 12C6.30585 12 7.41406 12.8353 7.82617 14H12.1738C12.5859 12.8353 13.6941 12 15 12C15.7692 12 16.469 12.2916 17 12.7676V9.99902L11.9336 6.2002C11.8038 6.10284 11.6527 6.03853 11.4941 6.0127L11.333 6H4Z" fill="#000000"/>
</svg>
