<svg xmlns="http://www.w3.org/2000/svg" width="20" height="20" viewBox="0 0 20 20" fill="none"><rect width="20" height="20" fill="none"/>
<path d="M10 2C11.948 2 13.7326 2.69724 15.1201 3.85449C15.4077 3.68454 15.7831 3.72074 16.0303 3.96777C16.2772 4.21471 16.313 4.58945 16.1436 4.87695C17.3021 6.26483 18 8.05071 18 10C18 11.9485 17.3023 13.7334 16.1445 15.1211C16.3132 15.4085 16.2769 15.7827 16.0303 16.0293C15.7836 16.2759 15.4094 16.3123 15.1221 16.1436C13.7343 17.3019 11.949 18 10 18C8.05071 18 6.26483 17.3021 4.87695 16.1436C4.58972 16.312 4.21625 16.2756 3.96973 16.0293C3.72295 15.7825 3.68542 15.4075 3.85449 15.1201C2.69724 13.7326 2 11.948 2 10C2 8.05121 2.6974 6.26566 3.85547 4.87793C3.68658 4.59061 3.72321 4.21645 3.96973 3.96973C4.21629 3.72317 4.5906 3.68594 4.87793 3.85449C6.26559 2.69667 8.05143 2 10 2ZM12.248 13.3076C11.6072 13.744 10.8337 14 10 14C9.16598 14 8.3919 13.7443 7.75098 13.3076L5.96484 15.0938C7.07358 15.9732 8.47486 16.5 10 16.5C11.5249 16.5 12.9255 15.973 14.0342 15.0938L12.248 13.3076ZM4.90527 5.96582C4.02629 7.07439 3.5 8.47535 3.5 10C3.5 11.5242 4.02582 12.9248 4.9043 14.0332L6.69043 12.2471C6.25472 11.6066 6 10.833 6 10C6 9.16647 6.25523 8.39266 6.69141 7.75195L4.90527 5.96582ZM13.3066 7.75098C13.7435 8.39199 14 9.16578 14 10C14 10.8332 13.7445 11.6065 13.3086 12.2471L15.0947 14.0332C15.9734 12.9247 16.5 11.5244 16.5 10C16.5 8.47459 15.9735 7.0727 15.0938 5.96387L13.3066 7.75098ZM10 7.5C8.61929 7.5 7.5 8.61929 7.5 10C7.5 11.3807 8.61929 12.5 10 12.5C11.3807 12.5 12.5 11.3807 12.5 10C12.5 8.61929 11.3807 7.5 10 7.5ZM10 3.5C8.47535 3.5 7.07439 4.02629 5.96582 4.90527L7.75195 6.69141C8.39266 6.25523 9.16647 6 10 6C10.8328 6 11.6057 6.25499 12.2461 6.69043L14.0322 4.9043C12.9239 4.02611 11.5239 3.5 10 3.5Z" fill="#000000"/>
</svg>
