<svg xmlns="http://www.w3.org/2000/svg" width="20" height="20" viewBox="0 0 20 20" fill="none"><rect width="20" height="20" fill="none"/>
<path d="M14 10C16.2091 10 18 11.7909 18 14C18 14.7417 17.7971 15.4358 17.4453 16.0312L19.207 17.793L17.793 19.207L16.0312 17.4453C15.4358 17.7971 14.7417 18 14 18C11.7909 18 10 16.2091 10 14C10 11.7909 11.7909 10 14 10ZM14 12C12.8954 12 12 12.8954 12 14C12 15.1046 12.8954 16 14 16C15.1046 16 16 15.1046 16 14C16 12.8954 15.1046 12 14 12Z" fill="#000000"/>
<path d="M13 2C14.6569 2 16 3.34315 16 5V8H14V5C14 4.44772 13.5523 4 13 4H7C6.44772 4 6 4.44772 6 5V15C6 15.5523 6.44772 16 7 16H9V18H7C5.34315 18 4 16.6569 4 15V5C4 3.34315 5.34315 2 7 2H13Z" fill="#000000"/>
<path d="M11 5C11.5523 5 12 5.44772 12 6C12 6.55228 11.5523 7 11 7H9C8.44772 7 8 6.55228 8 6C8 5.44772 8.44772 5 9 5H11Z" fill="#000000"/>
</svg>
