<svg xmlns="http://www.w3.org/2000/svg" width="20" height="20" viewBox="0 0 20 20" fill="none"><rect width="20" height="20" fill="none"/>
<path d="M19.207 12.2074L12.207 19.2074L10.793 17.7933L17.793 10.7933L19.207 12.2074Z" fill="#000000"/>
<path d="M17.5 16.0003C18.3283 16.0003 18.9998 16.6721 19 17.5003C18.9998 18.3286 18.3283 19.0003 17.5 19.0003C16.6717 19.0003 16.0002 18.3286 16 17.5003C16.0002 16.6721 16.6717 16.0004 17.5 16.0003Z" fill="#000000"/>
<path d="M7.37402 2.22103C7.61057 2.03128 7.92076 1.95902 8.2168 2.02474L18 4.19954V9.0013H16V5.80306L9 4.24739V18.0013H2V9.0013L7 7.57259V3.0013C7 2.69812 7.13762 2.41082 7.37402 2.22103ZM4 10.5091V16.0013H7V9.65267L4 10.5091Z" fill="#000000"/>
<path d="M12.5 11.0003C13.3283 11.0003 13.9998 11.6721 14 12.5003C13.9998 13.3286 13.3283 14.0003 12.5 14.0003C11.6717 14.0003 11.0002 13.3286 11 12.5003C11.0002 11.6721 11.6717 11.0004 12.5 11.0003Z" fill="#000000"/>
</svg>
