<svg xmlns="http://www.w3.org/2000/svg" width="20" height="20" viewBox="0 0 20 20" fill="none"><rect width="20" height="20" fill="none"/>
<path d="M4 15C4 15.5523 4.44772 16 5 16H7V18H5C3.34315 18 2 16.6569 2 15V13H4V15Z" fill="#000000"/>
<path d="M18 15C18 16.6569 16.6569 18 15 18H13V16H15C15.5523 16 16 15.5523 16 15V13H18V15Z" fill="#000000"/>
<path d="M11.25 5.5C12.7688 5.5 14 6.73122 14 8.25C14 9.76878 12.7688 11 11.25 11H10V12H12V13H10V14.5H8V13H7V12H8V11H7V9H8V5.5H11.25ZM10 9H11.25C11.6642 9 12 8.66421 12 8.25C12 7.83579 11.6642 7.5 11.25 7.5H10V9Z" fill="#000000"/>
<path d="M7 4H5C4.44772 4 4 4.44772 4 5V7H2V5C2 3.34315 3.34315 2 5 2H7V4Z" fill="#000000"/>
<path d="M15 2C16.6569 2 18 3.34315 18 5V7H16V5C16 4.44772 15.5523 4 15 4H13V2H15Z" fill="#000000"/>
</svg>
