<svg xmlns="http://www.w3.org/2000/svg" width="20" height="20" viewBox="0 0 20 20" fill="none"><rect width="20" height="20" fill="none"/>
<path d="M18.707 17.293L17.293 18.707L13.833 15.2471C12.7586 16.0342 11.4341 16.5 10 16.5V17.5C9.99982 17.6816 9.90102 17.8495 9.74219 17.9375C9.58343 18.0253 9.38928 18.0198 9.23535 17.9238L5.23535 15.4238C5.0893 15.3325 5.00017 15.1722 5 15C5 14.8277 5.0893 14.6676 5.23535 14.5762L9.23535 12.0762C9.38938 11.98 9.58331 11.9746 9.74219 12.0625C9.90104 12.1506 10 12.3183 10 12.5V13.5C10.6027 13.5 11.1691 13.3466 11.6641 13.0781L6.9209 8.33496C6.65262 8.83015 6.5 9.39729 6.5 10H3.5C3.5 8.56583 3.96403 7.23981 4.75098 6.16504L1.29297 2.70703L2.70703 1.29297L18.707 17.293Z" fill="#000000"/>
<path d="M16.5 10C16.4999 10.7731 16.3639 11.5144 16.1162 12.2021L13.9141 10H16.5Z" fill="#000000"/>
<path d="M10.2578 2.0625C10.4167 1.97455 10.6106 1.97999 10.7646 2.07617L14.7646 4.57617C14.9107 4.66756 15 4.82769 15 5C14.9998 5.1722 14.9107 5.33255 14.7646 5.42383L11.4248 7.51074L7.79688 3.88281C8.48485 3.63499 9.22663 3.5 10 3.5V2.5C10 2.31832 10.099 2.15064 10.2578 2.0625Z" fill="#000000"/>
</svg>
