<svg xmlns="http://www.w3.org/2000/svg" width="20" height="20" viewBox="0 0 20 20" fill="none"><rect width="20" height="20" fill="none"/>
<path d="M10.8018 6.00468C11.3044 6.05551 11.6977 6.47892 11.7002 6.99491C11.7033 7.66029 11.7391 8.32872 11.8008 8.99979H14.6543L14.7559 9.00468C15.2565 9.05543 15.6481 9.47616 15.6533 9.99003C15.6727 11.8871 16.2884 13.883 17.165 15.9998H18V17.9998H2V15.9998H3.25391C4.16005 12.9354 4.78612 9.93821 4.7998 6.99491L4.80566 6.89335C4.85885 6.39092 5.2838 5.99989 5.7998 5.99979H10.7002L10.8018 6.00468ZM6.77246 7.99979C6.64898 10.6809 6.09198 13.3558 5.33887 15.9998H11.1611C10.408 13.3558 9.85102 10.6809 9.72754 7.99979H6.77246ZM12.0596 10.9998C12.3325 12.6477 12.7475 14.3135 13.2461 15.9998H15.0088C14.3723 14.3614 13.868 12.6824 13.708 10.9998H12.0596Z" fill="#000000"/>
<path d="M9.68555 2.53495C10.7122 0.738507 13.2928 0.710943 14.3574 2.48514C14.6356 2.94809 15.3097 2.9411 15.5781 2.47245L16.1318 1.5037L17.8682 2.49589L17.3145 3.46464C16.2877 5.26046 13.7073 5.28803 12.6426 3.51444C12.3644 3.05088 11.6902 3.05787 11.4219 3.52714L10.8682 4.49589L9.13184 3.5037L9.68555 2.53495Z" fill="#000000"/>
</svg>
