<svg xmlns="http://www.w3.org/2000/svg" width="20" height="20" viewBox="0 0 20 20" fill="none"><rect width="20" height="20" fill="none"/>
<path d="M14 10C16.2091 10 18 11.7909 18 14C18 14.8334 17.7437 15.6064 17.3076 16.2471L19.0303 17.9697L17.9697 19.0303L16.2471 17.3076C15.6064 17.7437 14.8334 18 14 18C11.7909 18 10 16.2091 10 14C10 11.7909 11.7909 10 14 10ZM14 11.5C12.6193 11.5 11.5 12.6193 11.5 14C11.5 15.3807 12.6193 16.5 14 16.5C15.3807 16.5 16.5 15.3807 16.5 14C16.5 12.6193 15.3807 11.5 14 11.5Z" fill="#000000"/>
<path d="M12.3008 1.94922C14.3717 1.94938 16.0508 3.62825 16.0508 5.69922V8H14.5508V5.69922C14.5508 4.45668 13.5433 3.44938 12.3008 3.44922H7.7002C6.45756 3.44922 5.4502 4.45658 5.4502 5.69922V14.2998C5.45035 15.5423 6.45765 16.5498 7.7002 16.5498H9V18.0498H7.7002C5.62923 18.0498 3.95035 16.3707 3.9502 14.2998V5.69922C3.9502 3.62815 5.62913 1.94922 7.7002 1.94922H12.3008Z" fill="#000000"/>
<path d="M11 5C11.5523 5 12 5.44772 12 6C11.9997 6.55206 11.5521 7 11 7H9C8.44788 7 8.00026 6.55206 8 6C8 5.44772 8.44772 5 9 5H11Z" fill="#000000"/>
</svg>
