<svg xmlns="http://www.w3.org/2000/svg" width="24" height="24" viewBox="0 0 24 24" fill="none"><rect width="24" height="24" fill="none"/>
<g clip-path="url(#clip0_147702_10470)">
<path d="M20.0003 14.0001C21.657 14.0002 23.0003 15.3433 23.0003 17.0001V18.2696C23.5975 18.6154 24.0003 19.2602 24.0003 20.0001V22.0001C24.0001 23.1044 23.1046 23.9999 22.0003 24.0001H18.0003C16.8959 24.0001 16.0005 23.1045 16.0003 22.0001V20.0001C16.0003 19.2601 16.403 18.6155 17.0003 18.2696V17.0001C17.0003 15.3432 18.3435 14.0001 20.0003 14.0001ZM18.0003 22.0001H22.0003V20.0001H18.0003V22.0001ZM20.0003 16.0001C19.448 16.0001 19.0003 16.4478 19.0003 17.0001V18.0001H21.0003V17.0001C21.0003 16.4479 20.5524 16.0002 20.0003 16.0001Z" fill="#000000"/>
<path d="M12.5003 6.50005C15.2616 6.50025 17.5003 8.73877 17.5003 11.5001V11.5606L9.03059 20.0303L8.84504 20.2168L8.58332 20.2452L4.20735 20.7315C3.66609 20.7915 3.2088 20.3343 3.26887 19.793L3.7552 15.417L3.78352 15.1553L3.97004 14.9698L12.4398 6.50005H12.5003Z" fill="#000000"/>
<path d="M14.97 3.96978C16.3675 2.57258 18.6332 2.57257 20.0306 3.96978C21.4277 5.3672 21.4277 7.63295 20.0306 9.03033L19.2845 9.77544C18.6561 7.29524 16.7051 5.34245 14.2249 4.71392L14.97 3.96978Z" fill="#000000"/>
</g>
<defs>
<clipPath id="clip0_147702_10470">
<rect width="24" height="24" fill="white"/>
</clipPath>
</defs>
</svg>
