<svg xmlns="http://www.w3.org/2000/svg" width="24" height="24" viewBox="0 0 24 24" fill="none"><rect width="24" height="24" fill="none"/>
<path d="M18.2578 15.0621C18.4166 14.9742 18.6107 14.9797 18.7646 15.0758L22.7646 17.5758C22.9107 17.6671 22.9999 17.8274 23 17.9996C22.9999 18.1718 22.9107 18.3321 22.7646 18.4234L18.7646 20.9234C18.6107 21.0195 18.4166 21.0249 18.2578 20.9371C18.099 20.849 18.0001 20.6812 18 20.4996V18.9996C16.8955 18.9996 16.0001 19.8952 16 20.9996V22.9996H14V20.9996C14.0001 18.7906 15.791 16.9996 18 16.9996V15.4996L18.0049 15.4322C18.026 15.2774 18.1189 15.1392 18.2578 15.0621Z" fill="#000000"/>
<path d="M12.5674 3.00057C15.1735 2.0645 17.9197 3.99617 17.9199 6.76522V6.9996H18C20.209 6.9996 21.9998 8.79059 22 10.9996V12.9996H20V10.9996C19.9998 9.89516 19.1045 8.9996 18 8.9996H6C4.89553 8.9996 4.00016 9.89516 4 10.9996V16.9996C4.00029 18.1039 4.89561 18.9996 6 18.9996H12V20.9996H6C3.79104 20.9996 2.00029 19.2085 2 16.9996V9.60995C2.00011 7.92246 3.05941 6.41597 4.64746 5.8453L12.5674 3.00057ZM15.9199 6.76522C15.9197 5.38078 14.5461 4.41443 13.2432 4.88241L7.34961 6.9996H15.9199V6.76522Z" fill="#000000"/>
</svg>
