<svg xmlns="http://www.w3.org/2000/svg" width="20" height="20" viewBox="0 0 20 20" fill="none"><rect width="20" height="20" fill="none"/>
<path d="M5 4H4V6.5C4 7.88071 5.11929 9 6.5 9C7.88071 9 9 7.88071 9 6.5V4H8V2H11V6.5C11 8.64145 9.5038 10.4318 7.5 10.8867V12.75C7.5 14.5449 8.95507 16 10.75 16C12.5449 16 14 14.5449 14 12.75V11.8252C12.8355 11.413 12 10.3057 12 9C12 7.34315 13.3431 6 15 6C16.6569 6 18 7.34315 18 9C18 10.3057 17.1645 11.413 16 11.8252V12.75C16 15.6495 13.6495 18 10.75 18C7.85051 18 5.5 15.6495 5.5 12.75V10.8867C3.4962 10.4318 2 8.64145 2 6.5V2H5V4ZM15 8C14.4477 8 14 8.44772 14 9C14 9.55228 14.4477 10 15 10C15.5523 10 16 9.55228 16 9C16 8.44772 15.5523 8 15 8Z" fill="#000000"/>
</svg>
