<svg xmlns="http://www.w3.org/2000/svg" width="24" height="24" viewBox="0 0 24 24" fill="none"><rect width="24" height="24" fill="none"/>
<path d="M18 8C19.6563 8 20.9998 9.34189 21 10.999V18.001C21 19.6587 19.656 21 18 21H6C4.34315 21 3 19.6569 3 18V11C3 9.34315 4.34315 8 6 8H18ZM5 18C5 18.5523 5.44772 19 6 19H18C18.5531 19 19 18.5524 19 18.001V14H5V18ZM6 10C5.44772 10 5 10.4477 5 11V12H19V10.999C18.9998 10.4473 18.5526 10 18 10H6Z" fill="#000000"/>
<path d="M16.5996 5.2002L15.4004 6.7998L12 4.25L8.59961 6.7998L7.40039 5.2002L12 1.75L16.5996 5.2002Z" fill="#000000"/>
</svg>
