<svg xmlns="http://www.w3.org/2000/svg" width="20" height="20" viewBox="0 0 20 20" fill="none"><rect width="20" height="20" fill="none"/>
<path d="M18.5303 13.5303L13.5 18.5605L10.4697 15.5303L11.5303 14.4697L13.5 16.4395L17.4697 12.4697L18.5303 13.5303Z" fill="#000000"/>
<path d="M10 2C11.1275 2 12.2 2.23442 13.1729 2.65527C13.1857 2.66083 13.1991 2.66723 13.2119 2.67285C13.3243 2.72218 13.4353 2.77385 13.5449 2.82812C13.5735 2.84229 13.6015 2.85757 13.6299 2.87207C13.7303 2.92332 13.8298 2.97593 13.9277 3.03125C13.9516 3.04475 13.9753 3.05853 13.999 3.07227C14.1011 3.13131 14.2016 3.1925 14.3008 3.25586C14.321 3.2688 14.3412 3.2818 14.3613 3.29492C14.4699 3.36571 14.5768 3.43881 14.6816 3.51465C14.6868 3.51835 14.6922 3.52168 14.6973 3.52539C16.6986 4.97952 18 7.33696 18 10C18 10.3388 17.9764 10.6723 17.9355 11H16.4229C16.4732 10.674 16.5 10.3401 16.5 10C16.5 9.66227 16.4735 9.33068 16.4238 9.00684C16.3663 9.00351 16.3084 9 16.25 9H14.2217C13.2188 9 12.2726 8.53411 11.6611 7.73926C10.7172 6.51212 10.8012 4.85136 11.7139 3.72949C11.1678 3.58058 10.5933 3.5 10 3.5C8.20582 3.5 6.58045 4.22596 5.4043 5.40137L5.46387 5.4082C7.59507 5.645 9.12144 7.57927 8.85547 9.70703L8.84473 9.78613C8.75789 10.4808 8.43114 11.1242 7.9209 11.6035C7.62098 11.8856 7.53935 12.3301 7.71973 12.7002L8.51953 14.3418C8.83372 14.9865 8.99823 15.6941 9 16.4111V17.9355C8.61565 17.8869 8.2396 17.8125 7.87402 17.7119C7.86587 17.7097 7.85775 17.7073 7.84961 17.7051C4.47606 16.7656 2 13.6731 2 10C2 5.58172 5.58172 2 10 2ZM4.34668 6.79199C3.80835 7.73862 3.5 8.83315 3.5 10C3.5 12.6923 5.13685 15.0025 7.46973 15.9893C7.42363 15.6463 7.32426 15.3117 7.17188 14.999L6.37109 13.3574C5.90269 12.3963 6.11524 11.2418 6.89453 10.5098C7.1498 10.2699 7.31298 9.94818 7.35645 9.60059L7.36621 9.52051C7.5283 8.22283 6.59764 7.04286 5.29785 6.89844L4.34668 6.79199ZM13.2236 4.35645C12.43 4.9144 12.2431 6.03673 12.8496 6.8252C13.1771 7.25086 13.6846 7.5 14.2217 7.5H16.001C15.4465 6.17055 14.463 5.06591 13.2236 4.35645Z" fill="#000000"/>
</svg>
