<svg xmlns="http://www.w3.org/2000/svg" width="20" height="20" viewBox="0 0 20 20" fill="none"><rect width="20" height="20" fill="none"/>
<path d="M9.99971 4.99919C10.5518 4.99919 10.9994 5.44717 10.9997 5.99919C10.9997 6.55147 10.552 6.99919 9.99971 6.99919C9.44772 6.99884 8.99971 6.55126 8.99971 5.99919C9.00003 5.44739 9.44791 4.99953 9.99971 4.99919Z" fill="#000000"/>
<path d="M10.3737 2.01286C11.0279 2.06193 11.667 2.23988 12.2526 2.53532C12.8385 2.83106 13.3616 3.24013 13.7897 3.73747C14.2179 4.23495 14.5435 4.81328 14.7487 5.43669C14.9539 6.06013 15.035 6.71872 14.986 7.37321C14.9369 8.0276 14.7592 8.66627 14.4636 9.25212C14.1677 9.83823 13.7591 10.361 13.2614 10.7892C13.0246 10.993 12.7692 11.1729 12.4997 11.3283V14.7404C12.4997 15.9681 11.686 17.0475 10.5056 17.3849L8.45576 17.9699C8.2297 18.0343 7.98627 17.9893 7.79854 17.8478C7.61107 17.7061 7.49971 17.4842 7.49971 17.2492V11.3283C7.01382 11.0476 6.57648 10.6871 6.20967 10.2609C5.78168 9.76339 5.45583 9.18508 5.25069 8.56169C5.0457 7.93831 4.96436 7.27955 5.01338 6.62516C5.06253 5.97092 5.24024 5.33199 5.53584 4.74626C5.83168 4.16028 6.24047 3.63737 6.73799 3.20915C7.23551 2.78098 7.81374 2.45543 8.43721 2.25016C9.06055 2.04508 9.71935 1.96395 10.3737 2.01286ZM10.2614 3.50895C9.80344 3.47476 9.34222 3.53143 8.90596 3.67497C8.46966 3.81864 8.06469 4.04625 7.71651 4.34587C7.36832 4.64557 7.08275 5.01195 6.87569 5.42204C6.66872 5.83208 6.5439 6.27945 6.50948 6.73747C6.47517 7.19546 6.53205 7.65664 6.67549 8.09294C6.81904 8.52916 7.04695 8.93422 7.34639 9.28239C7.64595 9.63048 8.01267 9.91613 8.42256 10.1232C8.60781 10.2167 8.80184 10.2925 8.99971 10.3517V16.255L10.0935 15.9425C10.6299 15.7891 10.9997 15.2984 10.9997 14.7404V10.3508C11.0307 10.3415 11.0627 10.3335 11.0935 10.3234C11.5299 10.1798 11.9346 9.95217 12.2829 9.65251C12.6312 9.35275 12.9166 8.98655 13.1237 8.57634C13.3307 8.16617 13.4556 7.71906 13.4899 7.26091C13.5242 6.80281 13.4675 6.3418 13.3239 5.90544C13.1803 5.4692 12.9526 5.06413 12.653 4.71599C12.3534 4.36798 11.9868 4.08214 11.5769 3.87516C11.1669 3.66835 10.7194 3.54329 10.2614 3.50895Z" fill="#000000"/>
</svg>
