<svg xmlns="http://www.w3.org/2000/svg" width="20" height="20" viewBox="0 0 20 20" fill="none"><rect width="20" height="20" fill="none"/>
<path d="M19 18.9999H11V17.4999H19V18.9999Z" fill="#000000"/>
<path d="M10.415 3.17761C11.905 1.93601 14.0963 2.03571 15.4678 3.4071L16.0303 3.9696C16.2083 4.14775 16.2849 4.40355 16.2344 4.65026C16.1836 4.8971 16.0123 5.10256 15.7783 5.19616C14.7369 5.61272 14.118 5.91475 13.6719 6.24401C13.3839 6.45657 13.1536 6.69217 12.9268 7.00964L18.4502 6.11901V6.99987C18.4502 7.21449 18.4428 7.42699 18.4307 7.63659L16.9072 7.88659L12.582 8.58483C11.6069 8.74185 10.7633 7.70661 11.3076 6.76257L11.4629 6.5028C11.8296 5.91332 12.2245 5.44793 12.7812 5.03698C13.1662 4.75289 13.6151 4.50445 14.1572 4.25476C13.3355 3.64244 12.1837 3.65605 11.375 4.32995L10.4795 5.07604L10 5.47643L8.62402 4.32995C7.8152 3.65608 6.66348 3.64219 5.8418 4.25476C6.38422 4.50455 6.83369 4.75277 7.21875 5.03698C7.85475 5.50648 8.27955 6.0469 8.69238 6.76257C9.23677 7.7067 8.39225 8.7421 7.41699 8.58483L3.09082 7.88659C3.21024 9.11661 3.5845 10.1186 4.16992 10.8397C4.87182 11.7041 5.9455 12.2499 7.5 12.2499H8.6377L6.99902 16.0721L7.10352 16.1122C7.71942 16.3431 8.35638 16.4955 9 16.5741V18.0839C8.17751 17.999 7.36286 17.812 6.57715 17.5175L5.00098 16.9266L6.39746 13.6669C4.97181 13.4483 3.82602 12.7964 3.00488 11.785C2.00041 10.5476 1.54985 8.85969 1.5498 6.99987V6.11901L7.07129 7.00964C6.84457 6.69252 6.61489 6.45642 6.32715 6.24401C5.88112 5.91487 5.26262 5.61255 4.22168 5.19616C3.98769 5.10256 3.8154 4.8971 3.76465 4.65026C3.7142 4.40354 3.79168 4.14773 3.96973 3.9696L4.53223 3.4071C5.90366 2.0357 8.095 1.93601 9.58496 3.17761L9.99902 3.52331L10.415 3.17761Z" fill="#000000"/>
<path d="M19 16.4999H11V14.9999H19V16.4999Z" fill="#000000"/>
<path d="M18.7959 11.1893L11.7959 14.1893L11.2051 12.8104L18.2051 9.81042L18.7959 11.1893Z" fill="#000000"/>
</svg>
