<svg xmlns="http://www.w3.org/2000/svg" width="24" height="24" viewBox="0 0 24 24" fill="none"><rect width="24" height="24" fill="none"/>
<path d="M17 3C19.2091 3 21 4.79086 21 7V17C21 19.2091 19.2091 21 17 21H7C4.79086 21 3 19.2091 3 17V7C3 4.79086 4.79086 3 7 3H17ZM11.4316 16.8623C11.2912 17.2235 10.955 17.4716 10.5684 17.498C10.1816 17.5244 9.81425 17.3242 9.62598 16.9854L7.41211 13H5V17C5 18.1046 5.89543 19 7 19H17C18.1046 19 19 18.1046 19 17V13H16C15.6048 13 15.2464 12.7674 15.0859 12.4062L14.0605 10.1006L11.4316 16.8623ZM7 5C5.89543 5 5 5.89543 5 7V11H8C8.36317 11 8.69765 11.1972 8.87402 11.5146L10.3398 14.1533L13.0684 7.1377L13.1328 7.00293C13.3049 6.70247 13.6233 6.50836 13.9766 6.5C14.3801 6.49054 14.7501 6.72484 14.9141 7.09375L16.6504 11H19V7C19 5.89543 18.1046 5 17 5H7Z" fill="#000000"/>
</svg>
