<svg xmlns="http://www.w3.org/2000/svg" width="24" height="24" viewBox="0 0 24 24" fill="none"><rect width="24" height="24" fill="none"/>
<path d="M12 6C12.5523 6 13 6.44772 13 7V9C13 9.55228 12.5523 10 12 10C11.4477 10 11 9.55228 11 9V7C11 6.44772 11.4477 6 12 6Z" fill="#000000"/>
<path d="M12 3C15.3137 3 18 5.68629 18 9V15C18 18.3137 15.3137 21 12 21C8.78979 21 6.16843 18.4789 6.00781 15.3086L6 15V9C6 5.68629 8.68629 3 12 3ZM12 5C9.79086 5 8 6.79086 8 9V15C8 17.2091 9.79086 19 12 19C14.2091 19 16 17.2091 16 15V9C16 6.79086 14.2091 5 12 5Z" fill="#000000"/>
</svg>
