<svg xmlns="http://www.w3.org/2000/svg" width="20" height="20" viewBox="0 0 20 20" fill="none"><rect width="20" height="20" fill="none"/>
<path d="M10 2C13.866 2 17 3.567 17 5.5C17 5.89725 16.8659 6.27788 16.6221 6.63379L12.9824 12.3213L12.7861 15.4531C12.7562 15.932 12.6359 16.6525 12.0781 17.1973C11.7243 17.5426 11.1642 17.9271 10.3809 18.0312C9.59199 18.1359 8.70545 17.9388 7.73633 17.3574L7.28125 17.085L7.0166 12.3174L3.3877 6.64844C3.13744 6.28841 3 5.90265 3 5.5C3 3.567 6.13401 2 10 2ZM12.9404 8.67578C12.0463 8.88303 11.0503 9 10 9C8.95012 9 7.95436 8.88384 7.06055 8.67676L8.70117 11.2393C8.88676 11.5293 8.99457 11.8632 9.01367 12.207L9.2168 15.877C9.64072 16.0598 9.93404 16.0731 10.1172 16.0488C10.3642 16.0159 10.5472 15.8969 10.6816 15.7656C10.6894 15.7579 10.7118 15.7321 10.7354 15.6621C10.7611 15.5855 10.7808 15.4768 10.79 15.3291L10.9863 12.1963C11.0075 11.8573 11.1148 11.5293 11.2979 11.2432L12.9404 8.67578ZM10 4C8.31017 4 6.87885 4.3472 5.94434 4.81445C5.30577 5.13381 5.09478 5.39117 5.02734 5.5C5.09478 5.60883 5.30577 5.86619 5.94434 6.18555C6.87885 6.6528 8.31017 7 10 7C11.6898 7 13.1212 6.6528 14.0557 6.18555C14.6934 5.86662 14.904 5.60908 14.9717 5.5C14.904 5.39092 14.6934 5.13338 14.0557 4.81445C13.1212 4.3472 11.6898 4 10 4Z" fill="#000000"/>
</svg>
