<svg xmlns="http://www.w3.org/2000/svg" width="20" height="20" viewBox="0 0 20 20" fill="none"><rect width="20" height="20" fill="none"/>
<path d="M9.00007 11H7.00007V9H9.00007V11Z" fill="#000000"/>
<path d="M13.0001 11H11.0001V9H13.0001V11Z" fill="#000000"/>
<path d="M10.0001 2C12.2092 2 14.0001 3.79086 14.0001 6H15.9053L16.9952 16.9004C17.0233 17.1815 16.9309 17.4614 16.7413 17.6709C16.5517 17.8803 16.2825 18 16.0001 18H4.00007C3.71764 17.9999 3.44838 17.8803 3.25886 17.6709C3.06935 17.4614 2.97685 17.1815 3.00495 16.9004L4.09479 6H6.00007C6.00007 3.79093 7.79102 2.00011 10.0001 2ZM5.10553 16H14.8946L14.0948 8H5.90534L5.10553 16ZM10.0001 4C8.89559 4.00011 8.00007 4.8955 8.00007 6H12.0001C12.0001 4.89543 11.1046 4 10.0001 4Z" fill="#000000"/>
</svg>
