<svg xmlns="http://www.w3.org/2000/svg" width="20" height="20" viewBox="0 0 20 20" fill="none"><rect width="20" height="20" fill="none"/>
<path d="M10 7.00122C11.6568 7.00131 13 8.34442 13 10.0012V15.0012C12.9997 16.606 11.7392 17.917 10.1543 17.9973L10 18.0012H5C3.34332 18.0012 2.00029 16.6578 2 15.0012V10.0012C2 8.34437 3.34315 7.00122 5 7.00122H10ZM5 9.00122C4.44771 9.00122 4 9.44894 4 10.0012V15.0012C4.00029 15.5533 4.44789 16.0012 5 16.0012H10C10.552 16.0011 10.9997 15.5532 11 15.0012V10.0012C11 9.44899 10.5522 9.00131 10 9.00122H5Z" fill="#000000"/>
<path d="M11.2227 1.08326C11.3761 0.980975 11.5738 0.971843 11.7363 1.05884C11.8985 1.14596 12 1.31513 12 1.49927V2.5188C13.1095 2.60439 14.1815 2.97467 15.1113 3.59595C16.1801 4.31015 17.013 5.32539 17.5049 6.51294C17.9967 7.70055 18.1258 9.00807 17.875 10.2688C17.6241 11.5293 17.0055 12.6881 16.0967 13.5969L14.6816 12.1819C15.3108 11.5527 15.7394 10.7508 15.9131 9.87818C16.0867 9.0055 15.9976 8.10066 15.6572 7.27857C15.3167 6.45644 14.7399 5.75348 14 5.25904C13.3994 4.85777 12.713 4.61035 12 4.53052V5.49927C11.9997 5.68322 11.8984 5.85273 11.7363 5.9397C11.5739 6.02644 11.3759 6.01735 11.2227 5.91529L8.22266 3.91529C8.08375 3.82268 8.00023 3.66618 8 3.49927C8 3.33227 8.08381 3.17602 8.22266 3.08326L11.2227 1.08326Z" fill="#000000"/>
</svg>
