<svg xmlns="http://www.w3.org/2000/svg" width="20" height="20" viewBox="0 0 20 20" fill="none"><rect width="20" height="20" fill="none"/>
<path d="M12.0431 3.04295C13.4001 1.68625 15.6002 1.68615 16.9572 3.04295C18.3141 4.39989 18.3139 6.59998 16.9572 7.95702L7.70719 17.207L7.465 17.4502L7.12418 17.4922L3.12418 17.9922C2.81799 18.0304 2.51133 17.9252 2.29312 17.707C2.07501 17.4888 1.9697 17.1821 2.00797 16.876L2.50797 12.876L2.54996 12.5351L2.79312 12.293L12.0431 3.04295ZM4.44937 13.4639L4.15152 15.8476L6.53531 15.5498L12.967 9.11717C12.8014 8.04308 11.9555 7.19671 10.881 7.03221L4.44937 13.4639ZM15.5431 4.45702C14.9672 3.88127 14.0331 3.88136 13.4572 4.45702L12.463 5.45018C13.371 5.89102 14.1078 6.62842 14.549 7.53612L15.5431 6.54295C16.1188 5.96697 16.119 5.0329 15.5431 4.45702Z" fill="#000000"/>
<path d="M18.0002 18H11.0002V16H18.0002V18Z" fill="#000000"/>
</svg>
