<svg xmlns="http://www.w3.org/2000/svg" width="24" height="24" viewBox="0 0 24 24" fill="none"><rect width="24" height="24" fill="none"/>
<path d="M13.1074 2.5836C15.0491 2.17708 17.1885 2.5883 19 3.92149V6.6627C17.4124 4.72735 15.2759 4.17353 13.5176 4.54161C11.3109 5.0037 9.57009 6.91642 9.99023 9.85899C10.0463 10.2512 10.0944 10.6323 10.1387 11.0006H15V13.0006H10.3359C10.438 14.3524 10.4597 15.5029 10.4346 16.4635C10.4085 17.4532 10.0941 18.3082 9.58691 19.0006H19V21.0006H5.44824C5.4323 21.0007 5.41635 21.0016 5.40039 21.0016C5.27006 21.0016 5.13636 21.0016 5 21.0016V19.0006H5.4248C7.15165 18.99 8.39631 17.8895 8.43555 16.4117C8.45977 15.4868 8.43765 14.3541 8.33008 13.0006H5V11.0006H8.12402C8.0891 10.722 8.05164 10.4354 8.00977 10.1422C7.43036 6.08537 9.93947 3.24699 13.1074 2.5836Z" fill="#000000"/>
</svg>
