<svg xmlns="http://www.w3.org/2000/svg" width="20" height="20" viewBox="0 0 20 20" fill="none"><rect width="20" height="20" fill="none"/>
<path d="M4 15C4 15.5523 4.44772 16 5 16H7V18H5C3.34315 18 2 16.6569 2 15V13H4V15Z" fill="#000000"/>
<path d="M18 15C18 16.6569 16.6569 18 15 18H13V16H15C15.5523 16 16 15.5523 16 15V13H18V15Z" fill="#000000"/>
<path d="M11.0156 6.1582C11.2998 6.24492 11.5812 6.36709 11.8379 6.52832C12.4189 6.89346 13 7.54552 13 8.5H11C11 8.45471 10.9887 8.35643 10.7744 8.22168C10.548 8.07953 10.2346 8.00011 10 8C9.64871 8.00006 9.35384 8.09107 9.17969 8.20703C9.03536 8.30332 9 8.38797 9 8.5C9 8.53998 9.00494 8.56057 9.00684 8.56738C9.00821 8.57218 9.00977 8.5752 9.00977 8.5752C9.01224 8.57886 9.03708 8.61336 9.12891 8.66699C9.35541 8.799 9.70106 8.89498 10.2422 9.03027C10.7003 9.1448 11.3557 9.29943 11.8789 9.60449C12.1591 9.76797 12.4487 9.9995 12.666 10.333C12.8896 10.6765 13 11.0727 13 11.5C13 12.3599 12.5135 13.0104 11.9482 13.4062C11.6699 13.6011 11.3547 13.7481 11.0244 13.8477V15H9.02441V13.8535C8.72677 13.7663 8.43079 13.6404 8.16211 13.4717C7.58107 13.1066 6.99991 12.4545 7 11.5H9C8.99999 11.5452 9.01127 11.6436 9.22559 11.7783C9.45199 11.9204 9.76543 11.9999 10 12C10.3144 11.9999 10.6105 11.9023 10.8018 11.7686C10.986 11.6395 11 11.5399 11 11.5C11 11.4601 10.9951 11.4395 10.9932 11.4326C10.9918 11.4279 10.9902 11.4248 10.9902 11.4248C10.9881 11.4216 10.9635 11.387 10.8711 11.333C10.6446 11.201 10.299 11.105 9.75781 10.9697C9.29972 10.8552 8.64431 10.7006 8.12109 10.3955C7.84092 10.232 7.55128 10.0005 7.33398 9.66699C7.11036 9.3235 7 8.92731 7 8.5C7 7.61221 7.46495 6.94664 8.07031 6.54297C8.35998 6.34992 8.68316 6.21364 9.01465 6.12598L9 5.0127L11 4.98633L11.0156 6.1582Z" fill="#000000"/>
<path d="M7 4H5C4.44772 4 4 4.44772 4 5V7H2V5C2 3.34315 3.34315 2 5 2H7V4Z" fill="#000000"/>
<path d="M15 2C16.6569 2 18 3.34315 18 5V7H16V5C16 4.44772 15.5523 4 15 4H13V2H15Z" fill="#000000"/>
</svg>
