<svg xmlns="http://www.w3.org/2000/svg" width="20" height="20" viewBox="0 0 20 20" fill="none"><rect width="20" height="20" fill="none"/>
<path d="M15.5 11.9998C17.433 11.9998 19 13.5668 19 15.4998C18.9996 17.4324 17.4327 18.9998 15.5 18.9998C13.5673 18.9998 12.0004 17.4324 12 15.4998C12 13.5668 13.567 11.9998 15.5 11.9998ZM15.5 13.9998C14.6716 13.9998 14 14.6713 14 15.4998C14.0004 16.3278 14.6718 16.9998 15.5 16.9998C16.3282 16.9998 16.9996 16.3278 17 15.4998C17 14.6713 16.3284 13.9998 15.5 13.9998Z" fill="#000000"/>
<path d="M10.3994 2.53199C11.9859 1.47458 14.0981 1.68384 15.4463 3.03199L16.207 3.79274C16.4445 4.0304 16.547 4.37183 16.4795 4.70094C16.4117 5.02986 16.1829 5.30374 15.8711 5.42848C14.83 5.84494 14.2368 6.13765 13.8184 6.44703C13.7221 6.51826 13.6313 6.59165 13.5459 6.67164L19 5.83375V6.99977C18.9999 8.13181 18.8484 9.13633 18.5303 9.99977H16.3086C16.5987 9.55446 16.819 8.96469 16.9258 8.17652L12.6074 8.84156C11.4443 9.02015 10.4327 7.78207 11.0859 6.64625C11.5107 5.90834 11.9566 5.33591 12.6289 4.83863C12.9472 4.60327 13.3055 4.39281 13.7148 4.18922C13.0555 3.75595 12.1866 3.74436 11.5088 4.19606L10 5.20192L8.49121 4.19606C7.81316 3.7442 6.94356 3.7555 6.28418 4.18922C6.69384 4.39293 7.05259 4.60312 7.37109 4.83863C8.04343 5.33591 8.48932 5.90834 8.91406 6.64625C9.56731 7.78208 8.55569 9.02014 7.39258 8.84156L3.07227 8.17652C3.22624 9.33244 3.61486 10.0625 4.11816 10.53C4.78929 11.153 5.86394 11.4998 7.5 11.4998H9.03906L7.15234 15.7429C8.06934 16.0925 9.03479 16.2662 10 16.2664V18.2693C8.468 18.2692 6.93573 17.9182 5.52832 17.2146L5.38672 17.1443L4.53223 16.7166L6.00391 13.4021C4.74656 13.2284 3.62789 12.8038 2.75684 11.9949C1.53845 10.8631 1.00012 9.16709 1 6.99977V5.83375L6.4541 6.67262C6.36855 6.59245 6.27812 6.51839 6.18164 6.44703C5.76324 6.13765 5.17001 5.84494 4.12891 5.42848C3.81706 5.30374 3.5883 5.02986 3.52051 4.70094C3.45297 4.37183 3.55554 4.0304 3.79297 3.79274L4.55371 3.03199C5.90188 1.68384 8.01414 1.47458 9.60059 2.53199L10 2.79762L10.3994 2.53199Z" fill="#000000"/>
</svg>
