<svg xmlns="http://www.w3.org/2000/svg" width="20" height="20" viewBox="0 0 20 20" fill="none"><rect width="20" height="20" fill="none"/>
<path d="M12.5 11.5C13.0523 11.5 13.5 11.9477 13.5 12.5C13.5 13.0523 13.0523 13.5 12.5 13.5C11.9477 13.5 11.5 13.0523 11.5 12.5C11.5 11.9477 11.9477 11.5 12.5 11.5Z" fill="#000000"/>
<path d="M13.5 8.5C14.0523 8.5 14.5 8.94772 14.5 9.5C14.5 10.0523 14.0523 10.5 13.5 10.5C12.9477 10.5 12.5 10.0523 12.5 9.5C12.5 8.94772 12.9477 8.5 13.5 8.5Z" fill="#000000"/>
<path d="M7.5 7.5C8.05228 7.5 8.5 7.94772 8.5 8.5C8.5 9.05228 8.05228 9.5 7.5 9.5C6.94772 9.5 6.5 9.05228 6.5 8.5C6.5 7.94772 6.94772 7.5 7.5 7.5Z" fill="#000000"/>
<path d="M10.5 5.5C11.0523 5.5 11.5 5.94772 11.5 6.5C11.5 7.05228 11.0523 7.5 10.5 7.5C9.94772 7.5 9.5 7.05228 9.5 6.5C9.5 5.94772 9.94772 5.5 10.5 5.5Z" fill="#000000"/>
<path d="M10 2C14.4183 2 18 5.58172 18 10C18 14.4183 14.4183 18 10 18C6 18 9 13.5 7.5 13.5C6 13.5 2 15.5 2 10C2 5.58172 5.58172 2 10 2ZM10 4C6.68629 4 4 6.68629 4 10C4 11.1736 4.22076 11.6216 4.30273 11.7422C4.3295 11.7816 4.33392 11.8108 4.49902 11.8369C4.74664 11.876 5.11106 11.852 5.66602 11.7559C5.79635 11.7333 5.92649 11.7088 6.06543 11.6826C6.19903 11.6575 6.34712 11.6294 6.49023 11.6045C6.75419 11.5586 7.12708 11.5 7.5 11.5C7.84146 11.5 8.25993 11.5645 8.67676 11.7881C9.10817 12.0197 9.41645 12.3574 9.61621 12.7119C9.96269 13.3269 9.96605 13.9641 9.96094 14.2402C9.95476 14.5736 9.91009 14.9268 9.88086 15.166C9.8467 15.4455 9.82083 15.6587 9.80957 15.8613C9.80683 15.9107 9.80914 15.9546 9.80859 15.9932C9.86212 15.9967 9.92545 16 10 16C13.3137 16 16 13.3137 16 10C16 6.68629 13.3137 4 10 4Z" fill="#000000"/>
</svg>
