<svg xmlns="http://www.w3.org/2000/svg" width="20" height="20" viewBox="0 0 20 20" fill="none"><rect width="20" height="20" fill="none"/>
<path d="M14 10C16.2091 10 18 11.7909 18 14C18 14.8334 17.7437 15.6064 17.3076 16.2471L19.0303 17.9697L17.9697 19.0303L16.2471 17.3076C15.6064 17.7437 14.8334 18 14 18C11.7909 18 10 16.2091 10 14C10 11.7909 11.7909 10 14 10ZM14 11.5C12.6193 11.5 11.5 12.6193 11.5 14C11.5 15.3807 12.6193 16.5 14 16.5C15.3807 16.5 16.5 15.3807 16.5 14C16.5 12.6193 15.3807 11.5 14 11.5Z" fill="#000000"/>
<path d="M11.3105 5.9502H15.2998C16.8186 5.9502 18.0498 7.18141 18.0498 8.7002V9H16.5498V8.7002C16.5498 8.00984 15.9902 7.4502 15.2998 7.4502H10.6895L7.68945 4.4502H4.7002C4.00984 4.4502 3.4502 5.00984 3.4502 5.7002V14.2998C3.4502 14.9902 4.00984 15.5498 4.7002 15.5498H9V17.0498H4.7002C3.18141 17.0498 1.9502 15.8186 1.9502 14.2998V5.7002C1.9502 4.18141 3.18141 2.9502 4.7002 2.9502H8.31055L11.3105 5.9502Z" fill="#000000"/>
</svg>
