<svg xmlns="http://www.w3.org/2000/svg" width="24" height="24" viewBox="0 0 24 24" fill="none"><rect width="24" height="24" fill="none"/>
<path d="M15.8786 7C16.707 7.00014 17.3786 7.67166 17.3786 8.5C17.3786 9.32834 16.707 9.99986 15.8786 10C15.0502 10 14.3786 9.32843 14.3786 8.5C14.3786 7.67157 15.0502 7 15.8786 7Z" fill="#000000"/>
<path d="M18.3786 3C20.0354 3.00014 21.3786 4.34323 21.3786 6V12.1055C21.3786 12.9589 21.0146 13.7727 20.3786 14.3418L13.7888 20.2383C12.1387 21.7147 9.60265 21.5698 8.13157 19.915L4.01048 15.2783C2.60364 13.6954 2.67428 11.2905 4.17161 9.79297L10.0857 3.87891C10.6482 3.31645 11.4113 3.00008 12.2068 3H18.3786ZM12.2068 5C11.9417 5.00008 11.6872 5.10558 11.4997 5.29297L5.58567 11.207C4.83708 11.9558 4.80213 13.1588 5.5056 13.9502L9.62669 18.5859C10.3622 19.4132 11.6298 19.4861 12.4548 18.748L19.0456 12.8506C19.2574 12.6609 19.3786 12.3898 19.3786 12.1055V6C19.3786 5.4478 18.9308 5.00014 18.3786 5H12.2068Z" fill="#000000"/>
</svg>
