<svg xmlns="http://www.w3.org/2000/svg" width="24" height="24" viewBox="0 0 24 24" fill="none"><rect width="24" height="24" fill="none"/>
<path d="M11.3164 2.05176L11 3C11.3162 2.05132 11.3164 2.05176 11.3164 2.05176H11.3184L11.3213 2.05273C11.3213 2.05273 11.3256 2.05481 11.3281 2.05566C11.3333 2.05744 11.3398 2.05975 11.3477 2.0625C11.3639 2.0682 11.3859 2.07593 11.4131 2.08594C11.4674 2.10595 11.543 2.13458 11.6367 2.17285C11.8241 2.24935 12.0855 2.36435 12.3975 2.52246C13.0197 2.83785 13.8537 3.33087 14.7061 4.04688C16.1784 5.28369 17.7156 7.19749 18.2939 9.98438L19.9473 9.1582L20.3945 10.0527L19.5 10.5C20.3341 10.0829 20.3906 10.0543 20.3945 10.0527L20.3955 10.0547L20.4111 10.0869C20.4184 10.1025 20.4272 10.1228 20.4375 10.1465C20.4581 10.1937 20.4849 10.2567 20.5146 10.3359C20.5744 10.4952 20.6477 10.7197 20.7197 11.0078C20.8639 11.5847 21 12.4159 21 13.5C21 15.7543 20.1048 17.9167 18.5107 19.5107C16.9167 21.1048 14.7543 22 12.5 22C10.2457 22 8.08332 21.1048 6.48926 19.5107C4.8952 17.9167 4 15.7543 4 13.5C4 11.8746 4.26883 10.6111 4.70605 9.59473C5.14476 8.57495 5.73151 7.85443 6.29297 7.29297L7.27441 6.31152L8.24121 8.24707C8.3739 8.07104 8.51498 7.87391 8.6543 7.65332C9.32835 6.58606 10 5.01905 10 3V1.6123L11.3164 2.05176ZM11.8906 4.52051C11.6414 6.28138 10.9944 7.69462 10.3457 8.72168C9.93308 9.37499 9.51841 9.87622 9.20312 10.2178C9.04552 10.3885 8.91209 10.5205 8.81445 10.6123C8.76556 10.6583 8.72476 10.6947 8.69531 10.7207C8.68078 10.7335 8.66841 10.744 8.65918 10.752C8.65465 10.7558 8.65063 10.759 8.64746 10.7617C8.64588 10.7631 8.64355 10.7656 8.64355 10.7656L8.6416 10.7666L8.64062 10.7676C8.63809 10.7652 8.60146 10.7218 8 10L8.64062 10.7676L7.66992 11.5762L6.80957 9.85547C6.71494 10.0195 6.62581 10.1954 6.54395 10.3857C6.23119 11.1129 6 12.0996 6 13.5C6 15.2239 6.68433 16.8777 7.90332 18.0967C9.12231 19.3157 10.7761 20 12.5 20C14.2239 20 15.8777 19.3157 17.0967 18.0967C18.3157 16.8777 19 15.2239 19 13.5C19 12.8549 18.9406 12.333 18.8701 11.9326L16.6172 13.0596L16.5029 11.5771C16.2785 8.65896 14.8306 6.76394 13.4189 5.57812C12.8779 5.12365 12.3435 4.77663 11.8906 4.52051Z" fill="#000000"/>
</svg>
