<svg xmlns="http://www.w3.org/2000/svg" width="24" height="24" viewBox="0 0 24 24" fill="none"><rect width="24" height="24" fill="none"/>
<path d="M21.707 20.293L20.293 21.707L16.3154 17.7295C15.3355 18.3596 14.211 18.7845 13 18.9355V22H11V18.9355C7.05384 18.4433 4 15.0795 4 11H6C6 14.3137 8.68629 17 12 17C13.0359 17 14.0094 16.7359 14.8594 16.2734L2.29297 3.70703L3.70703 2.29297L21.707 20.293Z" fill="#000000"/>
<path d="M20 11C20 12.4611 19.605 13.8284 18.9209 15.0068L17.4414 13.5273C17.7989 12.7591 18 11.9032 18 11H20Z" fill="#000000"/>
<path d="M12 2C14.2091 2 16 3.79086 16 6V12.0859L14 10.0859V6C14 4.89543 13.1046 4 12 4C10.8954 4 10 4.89543 10 6V6.08594L8.32715 4.41309C8.94139 2.99338 10.3547 2 12 2Z" fill="#000000"/>
</svg>
