<svg xmlns="http://www.w3.org/2000/svg" width="24" height="24" viewBox="0 0 24 24" fill="none"><rect width="24" height="24" fill="none"/>
<path d="M10.4396 4.15342C11.9911 3.84484 13.6 4.00418 15.0616 4.60948C16.5232 5.21491 17.7725 6.24048 18.6515 7.55576C19.5304 8.87124 20 10.418 20.0001 12.0001H21.5001C21.6817 12.0001 21.8494 12.0991 21.9376 12.2579C22.0255 12.4168 22.0201 12.6107 21.9239 12.7647L19.4239 16.7647C19.3326 16.9109 19.1725 17.0001 19.0001 17.0001C18.8278 17 18.6676 16.9109 18.5763 16.7647L16.0763 12.7647C15.9803 12.6108 15.9747 12.4167 16.0626 12.2579C16.1507 12.0991 16.3185 12.0002 16.5001 12.0001H18.0001C18 10.8138 17.6484 9.65356 16.9894 8.66709C16.3301 7.68064 15.3922 6.91118 14.296 6.45713C13.1998 6.0032 11.9929 5.88386 10.8292 6.11534C9.66557 6.34693 8.59687 6.91896 7.75791 7.75791C6.91896 8.59687 6.34693 9.66557 6.11534 10.8292C5.88386 11.9929 6.0032 13.1998 6.45713 14.296C6.91118 15.3922 7.68064 16.3301 8.66709 16.9894C9.65356 17.6484 10.8138 18 12.0001 18.0001V20.0001C10.418 20 8.87124 19.5304 7.55576 18.6515C6.24048 17.7725 5.21491 16.5232 4.60948 15.0616C4.00418 13.6 3.84484 11.9911 4.15342 10.4396C4.46215 8.88783 5.22413 7.46162 6.34287 6.34287C7.46162 5.22413 8.88783 4.46215 10.4396 4.15342Z" fill="#000000"/>
</svg>
