<svg xmlns="http://www.w3.org/2000/svg" width="20" height="20" viewBox="0 0 20 20" fill="none"><rect width="20" height="20" fill="none"/>
<path d="M15 3C16.6569 3 18 4.34315 18 6V12H16V9H4V14C4 14.5523 4.44772 15 5 15H12V13.5C12 13.3182 12.0988 13.1506 12.2578 13.0625C12.4167 12.9746 12.6106 12.98 12.7646 13.0762L16.7646 15.5762C16.9108 15.6675 17 15.8276 17 16C17 16.1724 16.9108 16.3325 16.7646 16.4238L12.7646 18.9238C12.6106 19.02 12.4167 19.0254 12.2578 18.9375C12.0988 18.8494 12 18.6818 12 18.5V17H5C3.34315 17 2 15.6569 2 14V6C2 4.34315 3.34315 3 5 3H15ZM5 5C4.44772 5 4 5.44772 4 6V7H16V6C16 5.44772 15.5523 5 15 5H5Z" fill="#000000"/>
</svg>
