<svg xmlns="http://www.w3.org/2000/svg" width="20" height="20" viewBox="0 0 20 20" fill="none"><rect width="20" height="20" fill="none"/>
<path d="M13.2578 4.0624C13.4167 3.97445 13.6106 3.97989 13.7646 4.07607L17.7646 6.57607C17.9108 6.66745 18 6.82754 18 6.9999C17.9999 7.17222 17.9108 7.33239 17.7646 7.42373L13.7646 9.92373C13.6107 10.0198 13.4166 10.0253 13.2578 9.9374C13.0989 9.84932 13.0001 9.68158 13 9.4999V7.9999L12.7959 8.00967C11.7872 8.1119 11 8.96423 11 9.9999V15.9999H9V9.9999C8.99998 8.96427 8.21276 8.11291 7.2041 8.01064L7 7.9999V9.4999C6.99987 9.68153 6.90106 9.84934 6.74219 9.9374C6.58339 10.0252 6.38931 10.0198 6.23535 9.92373L2.23535 7.42373C2.08926 7.33242 2.00012 7.17216 2 6.9999C2 6.82757 2.08925 6.66746 2.23535 6.57607L6.23535 4.07607C6.38938 3.97989 6.58331 3.97445 6.74219 4.0624C6.90108 4.15053 7 4.31819 7 4.4999V5.9999L7.20605 6.00478C8.31773 6.06119 9.30847 6.57286 9.99902 7.35537C10.6896 6.57223 11.6818 6.06122 12.7939 6.00478L13 5.9999V4.4999C13 4.31817 13.0989 4.15052 13.2578 4.0624Z" fill="#000000"/>
</svg>
