<svg xmlns="http://www.w3.org/2000/svg" width="20" height="20" viewBox="0 0 20 20" fill="none"><rect width="20" height="20" fill="none"/>
<path d="M7.23523 11.076C7.38924 10.9799 7.58321 10.9745 7.74207 11.0624C7.90098 11.1505 7.99984 11.3182 7.99988 11.4999V12.9999H16.0009V14.9999H7.99988V16.4999C7.99983 16.6816 7.90098 16.8493 7.74207 16.9374C7.58322 17.0253 7.38924 17.0198 7.23523 16.9237L3.23523 14.4237C3.0891 14.3323 2.99992 14.1722 2.99988 13.9999C2.99991 13.8492 3.06771 13.7074 3.1825 13.6132L3.23523 13.576L7.23523 11.076Z" fill="#000000"/>
<path d="M12.2577 3.06237C12.4165 2.97446 12.6105 2.9799 12.7645 3.07605L16.7645 5.57605C16.9107 5.6674 16.9998 5.82754 16.9999 5.99987C16.9998 6.15059 16.9321 6.29238 16.8173 6.38659L16.7645 6.4237L12.7645 8.9237C12.6105 9.01984 12.4165 9.02528 12.2577 8.93737C12.0988 8.84927 11.9999 8.68157 11.9999 8.49987V6.99987H3.99988V4.99987H11.9999V3.49987C11.9999 3.31817 12.0988 3.15048 12.2577 3.06237Z" fill="#000000"/>
</svg>
