<svg xmlns="http://www.w3.org/2000/svg" width="20" height="20" viewBox="0 0 20 20" fill="none"><rect width="20" height="20" fill="none"/>
<path d="M11.4699 2.46955C11.7035 2.23592 12.0623 2.18291 12.3537 2.33869C12.6449 2.49469 12.8003 2.8233 12.7355 3.14728L11.8478 7.58478L15.3351 9.32893C15.5506 9.43677 15.7018 9.64184 15.7404 9.87971C15.7789 10.1176 15.7008 10.3597 15.5304 10.5301L8.53044 17.5301C8.29687 17.7636 7.93791 17.8166 7.64665 17.661C7.35536 17.5051 7.20016 17.1763 7.26481 16.8524L8.15153 12.4139L4.6652 10.6707C4.44969 10.563 4.29864 10.3577 4.25993 10.1199C4.22133 9.88203 4.29949 9.64001 4.46989 9.46955L11.4699 2.46955ZM6.26579 9.79377L9.33512 11.3289C9.63746 11.4802 9.80181 11.8157 9.73551 12.1473L9.22087 14.7176L13.7336 10.2049L10.6652 8.67072C10.3628 8.51951 10.1986 8.1839 10.2648 7.85236L10.7785 5.28107L6.26579 9.79377Z" fill="#000000"/>
</svg>
