<svg xmlns="http://www.w3.org/2000/svg" width="20" height="20" viewBox="0 0 20 20" fill="none"><rect width="20" height="20" fill="none"/>
<path d="M10.793 10.7927C11.0607 10.5253 11.4573 10.432 11.8164 10.5515L19.3164 13.0515C19.7097 13.1829 19.9814 13.5435 19.999 13.9578C20.016 14.3721 19.7747 14.7551 19.3936 14.9187L16.2617 16.2605L14.9189 19.3933C14.7552 19.7743 14.3724 20.0159 13.958 19.9988C13.5439 19.9812 13.1832 19.7093 13.0518 19.3162L10.5518 11.8162C10.4322 11.4572 10.5257 11.0605 10.793 10.7927ZM14.1162 16.1892L14.7393 14.7381L16.1895 14.116L13.0801 13.0799L14.1162 16.1892Z" fill="#000000"/>
<path d="M10.7588 2.3738C12.745 1.47114 14.9999 2.92355 15 5.10524V5.9988C16.6568 5.9988 17.9999 7.34202 18 8.9988H16C15.9999 8.44659 15.5522 7.9988 15 7.9988H5C4.44777 7.9988 4.0001 8.44659 4 8.9988V14.9988C4.00037 15.5508 4.44794 15.9988 5 15.9988H9V17.9988H5C3.34337 17.9988 2.00037 16.6553 2 14.9988V8.28688C2.00007 7.11062 2.68801 6.04228 3.75879 5.55544L10.7588 2.3738ZM13 5.10524C12.9999 4.37808 12.248 3.89324 11.5859 4.19411L7.61621 5.9988H13V5.10524Z" fill="#000000"/>
</svg>
