<svg xmlns="http://www.w3.org/2000/svg" width="20" height="20" viewBox="0 0 20 20" fill="none"><rect width="20" height="20" fill="none"/>
<path d="M15 5C16.6569 5 18 6.34315 18 8V15C18 16.6569 16.6569 18 15 18H5C3.34315 18 2 16.6569 2 15V8C2 6.34315 3.34315 5 5 5V7C4.44772 7 4 7.44772 4 8V15C4 15.5523 4.44772 16 5 16H15C15.5523 16 16 15.5523 16 15V8C16 7.44772 15.5523 7 15 7V5Z" fill="#000000"/>
<path d="M10 2C10.1724 2 10.3325 2.08916 10.4238 2.23535L12.9238 6.23535C13.02 6.38938 13.0254 6.58331 12.9375 6.74219C12.8494 6.90117 12.6818 7 12.5 7H11V11H9V7H7.5C7.31824 7 7.15061 6.90116 7.0625 6.74219C6.97455 6.58331 6.97999 6.38938 7.07617 6.23535L9.57617 2.23535C9.66754 2.08916 9.82761 2 10 2Z" fill="#000000"/>
</svg>
