<svg xmlns="http://www.w3.org/2000/svg" width="20" height="20" viewBox="0 0 20 20" fill="none"><rect width="20" height="20" fill="none"/>
<path d="M14.5 7C15.8795 7 17 8.11706 17 9.49902V14.5C17 15.8809 15.8806 17 14.5 17H5.5C4.11929 17 3 15.8807 3 14.5V9.5C3 8.11929 4.11929 7 5.5 7H14.5ZM5 14.5C5 14.7761 5.22386 15 5.5 15H14.5C14.7763 15 15 14.776 15 14.5V11.833H5V14.5ZM5.5 9C5.22386 9 5 9.22386 5 9.5V10H15V9.49902C15 9.22413 14.7774 9 14.5 9H5.5Z" fill="#000000"/>
<path d="M13.5547 4.16797L12.4453 5.83203L10 4.20215L7.55469 5.83203L6.44531 4.16797L10 1.79785L13.5547 4.16797Z" fill="#000000"/>
</svg>
