<svg xmlns="http://www.w3.org/2000/svg" width="20" height="20" viewBox="0 0 20 20" fill="none"><rect width="20" height="20" fill="none"/>
<path d="M10.75 5.42383C11.2234 5.51497 11.685 5.69738 12.0771 5.9873C12.6916 6.44166 13.1122 7.14508 13.1123 8.05078H11.6123C11.6122 7.6585 11.448 7.3881 11.1846 7.19336C10.8995 6.98277 10.4799 6.85358 10.0215 6.85352C9.5628 6.85352 9.14253 6.98264 8.85742 7.19336C8.59402 7.3881 8.42975 7.6585 8.42969 8.05078C8.42969 8.28023 8.47812 8.4221 8.53223 8.5166C8.5874 8.61293 8.67381 8.70423 8.81445 8.79395C9.12968 8.99496 9.58367 9.11594 10.2031 9.27051C10.7544 9.40805 11.4715 9.57965 12.0342 9.93848C12.3323 10.1286 12.6116 10.3845 12.8125 10.7354C13.0144 11.0881 13.1123 11.4943 13.1123 11.9463C13.1122 12.8041 12.6767 13.4953 12.0908 13.9502C11.7033 14.2511 11.238 14.4574 10.75 14.5625V15H9.25V14.5645C8.7917 14.4706 8.34611 14.2909 7.96582 14.0098C7.3513 13.5554 6.92979 12.8521 6.92969 11.9463H8.42969C8.42978 12.3385 8.59404 12.609 8.85742 12.8037C9.14253 13.0144 9.56282 13.1436 10.0215 13.1436C10.4496 13.1435 10.8708 12.9985 11.1709 12.7656C11.4628 12.539 11.6122 12.2566 11.6123 11.9463C11.6123 11.717 11.5648 11.575 11.5107 11.4805C11.4555 11.3841 11.3683 11.2929 11.2275 11.2031C10.9124 11.0022 10.4591 10.8811 9.83984 10.7266C9.28857 10.589 8.57063 10.4175 8.00781 10.0586C7.70972 9.86845 7.4313 9.61249 7.23047 9.26172C7.02848 8.90891 6.92969 8.50295 6.92969 8.05078C6.92976 7.14496 7.35127 6.44165 7.96582 5.9873C8.34617 5.70616 8.79163 5.52547 9.25 5.43164V5H10.75V5.42383Z" fill="#000000"/>
<path d="M14.5 2.5C16.1567 2.50013 17.5 3.84323 17.5 5.5V14.5C17.5 16.1568 16.1567 17.4999 14.5 17.5H5.5C3.84315 17.5 2.5 16.1569 2.5 14.5V5.5C2.5 3.84315 3.84315 2.5 5.5 2.5H14.5ZM5.5 4C4.67157 4 4 4.67157 4 5.5V14.5C4 15.3284 4.67157 16 5.5 16H14.5C15.3283 15.9999 16 15.3283 16 14.5V5.5C16 4.67165 15.3283 4.00013 14.5 4H5.5Z" fill="#000000"/>
</svg>
