<svg xmlns="http://www.w3.org/2000/svg" width="24" height="24" viewBox="0 0 24 24" fill="none"><rect width="24" height="24" fill="none"/>
<path d="M20.0002 2C20.3508 2.00015 20.6758 2.18404 20.8567 2.48438C21.0373 2.78472 21.0479 3.15799 20.884 3.46777L16.468 11.8096L15.5285 18.8496C15.4972 19.0849 15.4366 19.4012 15.2746 19.7168C15.0414 20.1709 14.5045 20.9915 13.4709 21.4971C12.4052 22.0182 10.9796 22.123 9.14865 21.4365L8.57443 21.2207L7.52756 11.7998L3.11643 3.46777C2.95237 3.15785 2.96292 2.78481 3.14377 2.48438C3.32468 2.18397 3.64954 2 4.00022 2H20.0002ZM9.29514 10.8643C9.41259 11.0864 9.48712 11.3294 9.51486 11.5791L10.4231 19.749C11.5113 20.0494 12.1876 19.8994 12.593 19.7012C13.0965 19.4547 13.3717 19.0435 13.4953 18.8027C13.5062 18.7815 13.5275 18.7253 13.5461 18.5859L14.4856 11.5449C14.5169 11.3103 14.5897 11.0832 14.7004 10.874L18.3391 4H5.66135L9.29514 10.8643Z" fill="#000000"/>
</svg>
