<svg xmlns="http://www.w3.org/2000/svg" width="20" height="20" viewBox="0 0 20 20" fill="none"><rect width="20" height="20" fill="none"/>
<path d="M11 4C12.4926 4 13.7301 5.09012 13.9609 6.51758L16.5215 5.12207C16.8313 4.95322 17.2073 4.95954 17.5107 5.13965C17.8142 5.31981 18 5.64707 18 6V14C18 14.3529 17.8142 14.6802 17.5107 14.8604C17.2073 15.0405 16.8313 15.0468 16.5215 14.8779L13.9609 13.4814C13.7305 14.9094 12.4929 16 11 16H5C3.34315 16 2 14.6569 2 13V7C2 5.34315 3.34315 4 5 4H11ZM5 6C4.44772 6 4 6.44772 4 7V13C4 13.5523 4.44772 14 5 14H11C11.5523 14 12 13.5523 12 13V7C12 6.44772 11.5523 6 11 6H5ZM14 8.77441V11.2246L16 12.3154V7.68359L14 8.77441Z" fill="#000000"/>
</svg>
