<svg xmlns="http://www.w3.org/2000/svg" width="20" height="20" viewBox="0 0 20 20" fill="none"><rect width="20" height="20" fill="none"/>
<path d="M16.75 12.0001C16.75 14.0712 15.0711 15.7501 13 15.7501H7.5V17.0001C7.5 17.1782 7.405 17.3432 7.25098 17.4327C7.0969 17.5221 6.90665 17.523 6.75195 17.4347L3.25195 15.4347C3.0963 15.3456 3 15.1794 3 15.0001C3.00019 14.8209 3.09632 14.6545 3.25195 14.5655L6.75195 12.5655C6.90653 12.4774 7.09702 12.4783 7.25098 12.5675C7.40498 12.6568 7.49981 12.8221 7.5 13.0001V14.2501H13C14.2426 14.2501 15.25 13.2427 15.25 12.0001V10.0001H16.75V12.0001Z" fill="#000000"/>
<path d="M12.749 2.56748C12.903 2.47827 13.0935 2.47741 13.248 2.56552L16.748 4.56552C16.9037 4.65446 16.9998 4.82087 17 5.00009C17 5.17943 16.9037 5.34561 16.748 5.43467L13.248 7.43467C13.0934 7.52296 12.9031 7.5221 12.749 7.43271C12.595 7.34322 12.5 7.17824 12.5 7.00009V5.75009H7C5.7575 5.75009 4.75023 6.75765 4.75 8.00009V10.0001H3.25V8.00009C3.25023 5.92922 4.92907 4.2501 7 4.2501H12.5V3.0001C12.5002 2.82207 12.595 2.65685 12.749 2.56748Z" fill="#000000"/>
</svg>
