<svg xmlns="http://www.w3.org/2000/svg" width="24" height="24" viewBox="0 0 24 24" fill="none"><rect width="24" height="24" fill="none"/>
<g clip-path="url(#clip0_147586_8952)">
<path d="M14.293 14.2935C14.5702 14.0163 14.9845 13.9265 15.3516 14.064L23.3516 17.064C23.7334 17.2075 23.9904 17.5693 24 17.9771C24.009 18.385 23.7686 18.7587 23.3936 18.9194L20.2617 20.2612L18.9189 23.3941C18.7579 23.7689 18.3845 24.0099 17.9766 24.0005C17.5689 23.9908 17.2071 23.7336 17.0635 23.3521L14.0635 15.3521C13.926 14.9852 14.0161 14.5707 14.293 14.2935ZM18.0615 20.3169L18.7393 18.7388L19.1064 18.5816L20.3164 18.062L16.709 16.7095L18.0615 20.3169Z" fill="#000000"/>
<path d="M12.5674 3.0005C15.1733 2.06458 17.9195 3.99636 17.9199 6.76515V6.99952H18C20.2089 6.99952 21.9995 8.79077 22 10.9995V12.0005H20V10.9995C19.9995 9.89534 19.1043 8.99952 18 8.99952H6C4.89571 8.99952 4.00045 9.89534 4 10.9995V16.9995C4.00042 18.1037 4.89569 18.9995 6 18.9995H12V20.9995H6C3.79112 20.9995 2.00042 19.2083 2 16.9995V9.60987C2.00028 7.92256 3.05956 6.41586 4.64746 5.84522L12.5674 3.0005ZM15.9199 6.76515C15.9195 5.38097 14.546 4.41451 13.2432 4.88233L7.34961 6.99952H15.9199V6.76515Z" fill="#000000"/>
<path d="M16.0186 12.0005H15.9814C15.9876 12.0004 15.9938 11.9995 16 11.9995C16.0062 11.9995 16.0124 12.0004 16.0186 12.0005Z" fill="#000000"/>
</g>
<defs>
<clipPath id="clip0_147586_8952">
<rect width="24" height="24" fill="white"/>
</clipPath>
</defs>
</svg>
