<svg xmlns="http://www.w3.org/2000/svg" width="20" height="20" viewBox="0 0 20 20" fill="none"><rect width="20" height="20" fill="none"/>
<path d="M16.2012 3.72266L15.1602 4.7627L15.7656 5.36816C16.0582 5.66108 16.0584 6.1369 15.7656 6.42969L13.9629 8.23145C15.2045 9.23975 16 10.7759 16 12.5C16 14.0767 15.3354 15.4972 14.2725 16.5H17V18H3V16.5H6.72754C5.77825 15.6044 5.14744 14.3758 5.02344 13H3V11.5H9V13H6.53223C6.77835 14.9731 8.46025 16.5 10.5 16.5C12.7091 16.5 14.5 14.7091 14.5 12.5C14.5 11.1899 13.8699 10.0273 12.8965 9.29785L10.7568 11.4385L6.93945 7.62109L11.9482 2.6123C12.2411 2.31941 12.7159 2.31941 13.0088 2.6123L13.4375 3.04004L14.4785 2L16.2012 3.72266ZM9.06055 7.62109L10.7568 9.31738L14.1748 5.89844L12.4785 4.20312L9.06055 7.62109Z" fill="#000000"/>
</svg>
