<svg xmlns="http://www.w3.org/2000/svg" width="24" height="24" viewBox="0 0 24 24" fill="none"><rect width="24" height="24" fill="none"/>
<path d="M16.5 4C19.6208 4 22 6.51882 22 10C22 12.6318 20.5712 14.8668 18.7246 16.5898C16.8725 18.3181 14.5015 19.6303 12.3516 20.4365C12.1252 20.5214 11.8748 20.5214 11.6484 20.4365C9.55309 19.6507 7.1835 18.3384 5.31934 16.6074C3.46336 14.8839 2 12.6378 2 10C2.00001 6.51879 4.37922 4 7.5 4C9.27634 4 10.8719 4.9185 12 6.24609C13.1281 4.91851 14.7237 4 16.5 4ZM16.5 6C14.6835 6 13.6919 7.0971 12.4014 8.79688C12.1998 9.06236 11.8002 9.06237 11.5986 8.79688C10.3081 7.09709 9.3165 6 7.5 6C5.62079 6 4.00001 7.4812 4 10C4 11.862 5.03679 13.6161 6.68066 15.1426C8.2162 16.5683 10.1878 17.7023 11.999 18.4268C13.8622 17.6842 15.8369 16.5494 17.3604 15.1279C18.9853 13.6116 20 11.8681 20 10C20 7.4812 18.3792 6 16.5 6Z" fill="#000000"/>
</svg>
