<svg xmlns="http://www.w3.org/2000/svg" width="24" height="24" viewBox="0 0 24 24" fill="none"><rect width="24" height="24" fill="none"/>
<path d="M9.41196 2.34044C10.6801 2.00071 12.0038 1.91424 13.3055 2.08556C14.6071 2.257 15.8628 2.68308 16.9998 3.33946C18.1369 3.99594 19.1341 4.87018 19.9334 5.91173C20.0762 6.09778 20.2097 6.29086 20.3387 6.48595L18.8885 7.93614C18.8871 7.93387 18.885 7.93159 18.8836 7.92931L17.4081 9.40489C17.4093 9.40739 17.4107 9.4102 17.412 9.4127L15.8622 10.9625C15.8614 10.9597 15.86 10.9566 15.8592 10.9537L13.5448 13.2682C13.178 13.7144 12.6225 13.9996 11.9998 13.9996C10.8954 13.9995 9.99985 13.1041 9.99985 11.9996C10 10.8953 10.8955 9.99976 11.9998 9.99962C12.5483 9.99962 13.0448 10.2213 13.4061 10.5787L14.8202 9.16368C14.5754 8.92048 14.2997 8.70889 13.9998 8.53575C13.5452 8.27332 13.0428 8.10239 12.5223 8.0338C12.0017 7.96532 11.4719 8.00048 10.9647 8.13634C10.4578 8.27222 9.98173 8.5064 9.56528 8.82579C9.14881 9.14541 8.79854 9.54502 8.53598 9.99962C8.27359 10.4542 8.10266 10.9568 8.03403 11.4772C7.96555 11.9976 8.00077 12.5277 8.13657 13.0348C8.27243 13.5417 8.50666 14.0177 8.82602 14.4342C9.10568 14.7986 9.44669 15.1125 9.83188 15.3609L9.99985 15.4635L10.1727 15.5582C10.5804 15.7675 11.0221 15.9054 11.4774 15.9654C11.998 16.034 12.5278 15.9988 13.035 15.8629C13.542 15.727 14.0179 15.4929 14.4344 15.1734C14.5282 15.1015 14.6182 15.0247 14.7049 14.9449L14.7069 14.9469L14.7401 14.9137C14.7935 14.8634 14.8448 14.8105 14.8954 14.7574L17.9891 11.6637C18.0098 12.0362 17.997 12.4112 17.9481 12.7828C17.8452 13.5637 17.5899 14.3175 17.1961 14.9996C16.8023 15.6818 16.2771 16.2798 15.6522 16.7594C15.0272 17.2389 14.3135 17.5916 13.5526 17.7955C12.7917 17.9993 11.9976 18.0506 11.2166 17.9479C10.4357 17.845 9.68203 17.5897 8.99985 17.1959C8.3177 16.802 7.71964 16.2769 7.24008 15.652C6.76064 15.027 6.40785 14.3132 6.20395 13.5524C6.00023 12.7916 5.94885 11.9972 6.05161 11.2164C6.15449 10.4356 6.40982 9.68169 6.80356 8.99962C7.19744 8.31753 7.72265 7.71938 8.3475 7.23985C8.97244 6.76038 9.68629 6.40763 10.4471 6.20372C11.2079 5.99994 12.0022 5.94862 12.7831 6.05138C13.564 6.15422 14.3177 6.40955 14.9998 6.80333C15.4516 7.06415 15.8653 7.38386 16.2332 7.75059L17.6483 6.33653C17.1569 5.84655 16.6034 5.42036 15.9998 5.07188C15.0902 4.54675 14.0852 4.2051 13.0438 4.06798C12.0026 3.93099 10.9439 4.00035 9.92954 4.27208C8.91501 4.54397 7.96304 5.01358 7.12973 5.65294C6.2966 6.29229 5.59729 7.09018 5.07211 7.99962C4.54702 8.90919 4.20537 9.91441 4.06821 10.9557C3.93122 11.9968 4.00064 13.0556 4.27231 14.0699C4.54418 15.0844 5.01384 16.0364 5.65317 16.8697C6.21258 17.5987 6.89337 18.2252 7.66391 18.7223L7.99985 18.9274L8.34555 19.1158C9.16139 19.5348 10.0447 19.8113 10.9559 19.9313C11.9971 20.0683 13.0557 19.9989 14.0702 19.7272C15.0847 19.4553 16.0366 18.9857 16.87 18.3463C17.7031 17.7069 18.4024 16.9091 18.9276 15.9996C19.4527 15.09 19.7944 14.0849 19.9315 13.0436C20.0684 12.0024 19.9991 10.9436 19.7274 9.92931L19.7264 9.92638L21.3055 8.34727C21.4419 8.69485 21.562 9.04973 21.659 9.41173C21.9987 10.6798 22.0852 12.0037 21.9139 13.3053C21.7425 14.6068 21.3163 15.8627 20.66 16.9996C20.0035 18.1366 19.1293 19.1339 18.0877 19.9332C17.046 20.7325 15.856 21.3189 14.5877 21.6588C13.3195 21.9985 11.9959 22.085 10.6942 21.9137C9.39254 21.7422 8.13686 21.3162 6.99985 20.6598C5.86284 20.0033 4.86556 19.1291 4.06625 18.0875C3.26704 17.0458 2.68052 15.8557 2.34067 14.5875C2.001 13.3194 1.91447 11.9955 2.08579 10.694C2.25727 9.39245 2.68335 8.13652 3.33969 6.99962C3.99619 5.86268 4.87043 4.8653 5.91196 4.06602C6.95363 3.26678 8.14374 2.68031 9.41196 2.34044Z" fill="#000000"/>
</svg>
