<svg xmlns="http://www.w3.org/2000/svg" width="24" height="24" viewBox="0 0 24 24" fill="none"><rect width="24" height="24" fill="none"/>
<path d="M11.9999 9C13.6567 9 14.9999 10.3431 14.9999 12C14.9999 13.6569 13.6567 15 11.9999 15C10.3432 14.9998 8.99987 13.6567 8.99987 12C8.99987 10.3433 10.3432 9.00023 11.9999 9ZM11.9999 11C11.4478 11.0002 10.9999 11.4479 10.9999 12C10.9999 12.5521 11.4478 12.9998 11.9999 13C12.5522 13 12.9999 12.5523 12.9999 12C12.9999 11.4477 12.5522 11 11.9999 11Z" fill="#000000"/>
<path d="M12.1005 5C15.7133 5.00015 18.1867 6.66955 19.7313 8.31543C20.4995 9.13398 21.0428 9.9506 21.3954 10.5635C21.572 10.8705 21.7023 11.1297 21.7899 11.3154C21.8337 11.4083 21.8673 11.4842 21.8905 11.5381C21.902 11.5648 21.9112 11.5865 21.9178 11.6025C21.921 11.6103 21.9236 11.6169 21.9257 11.6221C21.9266 11.6245 21.9286 11.6289 21.9286 11.6289L21.9296 11.6318L20.9999 12L21.9296 12.3672L21.9286 12.3711C21.9286 12.3711 21.9266 12.3755 21.9257 12.3779C21.9236 12.3831 21.921 12.3897 21.9178 12.3975C21.9112 12.4135 21.902 12.4352 21.8905 12.4619C21.8673 12.5158 21.8337 12.5917 21.7899 12.6846C21.7023 12.8703 21.572 13.1295 21.3954 13.4365C21.0428 14.0494 20.4995 14.866 19.7313 15.6846C18.1867 17.3304 15.7133 18.9998 12.1005 19C8.49099 18.9999 5.97128 17.3339 4.38073 15.6973C3.58838 14.8819 3.02 14.0678 2.64831 13.457C2.46204 13.1509 2.32369 12.8929 2.23034 12.708C2.18371 12.6156 2.14771 12.5408 2.12292 12.4873C2.1107 12.4609 2.10067 12.4397 2.09362 12.4238C2.0901 12.4159 2.08706 12.4084 2.08484 12.4033C2.08385 12.4011 2.08191 12.3975 2.08191 12.3975L2.08093 12.3945L2.99987 12L2.08093 11.6064L2.08191 11.6025C2.08191 11.6025 2.08385 11.5989 2.08484 11.5967C2.08706 11.5916 2.0901 11.5841 2.09362 11.5762C2.10067 11.5603 2.1107 11.5391 2.12292 11.5127C2.14771 11.4592 2.18371 11.3844 2.23034 11.292C2.32369 11.1071 2.46204 10.8491 2.64831 10.543C3.02 9.93221 3.58838 9.11811 4.38073 8.30273C5.97128 6.6661 8.49099 5.00011 12.1005 5ZM12.1005 7C9.17192 7.0001 7.1401 8.33404 5.8153 9.69727C5.15023 10.3817 4.66921 11.0679 4.35632 11.582C4.26004 11.7403 4.18011 11.8816 4.11609 12C4.18011 12.1184 4.26004 12.2597 4.35632 12.418C4.66921 12.9321 5.15023 13.6183 5.8153 14.3027C7.1401 15.666 9.17192 16.9999 12.1005 17C15.0253 16.9999 17.0018 15.6693 18.2723 14.3154C18.9115 13.6343 19.3674 12.9505 19.662 12.4385C19.7583 12.2709 19.8358 12.1222 19.8973 12C19.8358 11.8778 19.7583 11.7291 19.662 11.5615C19.3674 11.0495 18.9115 10.3657 18.2723 9.68457C17.0018 8.33072 15.0253 7.00015 12.1005 7Z" fill="#000000"/>
<path d="M2.99987 12L2.07995 12.3926C1.97302 12.1419 1.97302 11.8581 2.07995 11.6074L2.99987 12Z" fill="#000000"/>
<path d="M21.9305 11.6338C22.0231 11.8691 22.0231 12.1309 21.9305 12.3662L20.9999 12L21.9305 11.6338Z" fill="#000000"/>
</svg>
