<svg xmlns="http://www.w3.org/2000/svg" width="24" height="24" viewBox="0 0 24 24" fill="none"><rect width="24" height="24" fill="none"/>
<path d="M12 17C13.1046 17 14 17.8954 14 19C14 20.1046 13.1046 21 12 21C10.8954 21 10 20.1046 10 19C10 17.8954 10.8954 17 12 17Z" fill="#000000"/>
<path d="M6.41504 5.00098H6.41699L7.99707 6.58105H7.99512L9.91895 8.50488H9.9209L11.7227 10.3066H11.7207L14.542 13.1279L14.5459 13.1299L16.416 15L16.415 15.001L20 18.5859L18.5859 20L13.4209 14.835C12.9755 14.6829 12.4979 14.6007 12.001 14.6006C10.6886 14.6006 9.51037 15.1754 8.7041 16.0869L7.28809 14.6709C8.29493 13.5756 9.67862 12.8334 11.2334 12.6475L9.31348 10.7275C7.90484 11.1849 6.65344 11.9901 5.66211 13.0449L4.24707 11.6299C5.23446 10.5914 6.42856 9.75295 7.7627 9.17676L5.95605 7.37012C4.65079 7.99582 3.45698 8.81666 2.41406 9.79688L0.999023 8.38184C2.03373 7.40176 3.19934 6.55852 4.4668 5.88086L2.00098 3.41504L3.41504 2.00098L6.41504 5.00098Z" fill="#000000"/>
<path d="M12.5576 8.31348C15.3916 8.45875 17.9338 9.7076 19.7646 11.6377L18.3516 13.0566C17.4605 12.1049 16.3587 11.3525 15.1201 10.876L12.5576 8.31348Z" fill="#000000"/>
<path d="M12 4C16.2623 4 20.1353 5.66665 23.0029 8.38379L21.5908 9.80273C19.0853 7.4453 15.7117 6 12 6C11.4386 6 10.8849 6.03243 10.3408 6.09668L8.60547 4.36133C9.69956 4.12497 10.8352 4 12 4Z" fill="#000000"/>
</svg>
