<svg xmlns="http://www.w3.org/2000/svg" width="20" height="20" viewBox="0 0 20 20" fill="none"><rect width="20" height="20" fill="none"/>
<path d="M10 12.4502H6V10.9502H10V12.4502Z" fill="#000000"/>
<path d="M7.44922 3H12.5508V1H14.0508V3H15C16.6569 3 18 4.34315 18 6V15C18 16.6569 16.6569 18 15 18H5C3.34315 18 2 16.6569 2 15V6C2 4.34315 3.34315 3 5 3H5.94922V1H7.44922V3ZM3.5 15C3.5 15.8284 4.17157 16.5 5 16.5H15C15.8284 16.5 16.5 15.8284 16.5 15V8.4502H3.5V15ZM5 4.5C4.17157 4.5 3.5 5.17157 3.5 6V6.9502H16.5V6C16.5 5.17157 15.8284 4.5 15 4.5H5Z" fill="#000000"/>
</svg>
