<svg xmlns="http://www.w3.org/2000/svg" width="20" height="20" viewBox="0 0 20 20" fill="none"><rect width="20" height="20" fill="none"/>
<path d="M10.0001 8C11.1047 8 12.0001 8.89543 12.0001 10C12.0001 11.1046 11.1047 12 10.0001 12C8.89567 11.9998 8.00011 11.1045 8.00011 10C8.00011 8.89552 8.89567 8.00015 10.0001 8Z" fill="#000000"/>
<path d="M10.0001 4.25C12.9591 4.25 14.9036 5.63607 16.088 7.01074C16.6755 7.6927 17.0781 8.37238 17.3341 8.88184C17.4625 9.13731 17.5547 9.35271 17.6163 9.50684C17.6471 9.58387 17.6706 9.64587 17.6866 9.69043C17.6946 9.71268 17.7007 9.73089 17.7052 9.74414C17.7074 9.75066 17.7096 9.75652 17.7111 9.76074L17.713 9.76562V9.76758L17.714 9.76855L17.0001 10L17.714 10.2314L17.713 10.2324V10.2344L17.7111 10.2393C17.7096 10.2435 17.7074 10.2493 17.7052 10.2559C17.7007 10.2691 17.6946 10.2873 17.6866 10.3096C17.6706 10.3541 17.6471 10.4161 17.6163 10.4932C17.5547 10.6473 17.4625 10.8627 17.3341 11.1182C17.0781 11.6276 16.6755 12.3073 16.088 12.9893C14.9036 14.3639 12.9591 15.75 10.0001 15.75C7.0412 15.7499 5.09656 14.3639 3.91222 12.9893C3.32478 12.3073 2.92215 11.6276 2.66613 11.1182C2.53774 10.8627 2.44555 10.6473 2.3839 10.4932C2.35309 10.4161 2.32958 10.3541 2.31359 10.3096C2.3056 10.2873 2.29954 10.2691 2.29504 10.2559C2.29281 10.2493 2.29057 10.2435 2.28918 10.2393L2.28722 10.2344V10.2324L2.28625 10.2314L3.00011 10L2.28625 9.76855L2.28722 9.76758V9.76562L2.28918 9.76074C2.29057 9.75653 2.29281 9.75067 2.29504 9.74414C2.29954 9.7309 2.3056 9.71268 2.31359 9.69043C2.32958 9.64589 2.35309 9.58387 2.3839 9.50684C2.44555 9.35273 2.53774 9.13731 2.66613 8.88184C2.92215 8.3724 3.32478 7.69271 3.91222 7.01074C5.09656 5.63607 7.0412 4.25009 10.0001 4.25ZM10.0001 5.75C7.5748 5.75009 6.01838 6.86405 5.04894 7.98926C4.55977 8.55707 4.222 9.12777 4.00695 9.55566C3.9176 9.73347 3.85042 9.88535 3.80285 10C3.85042 10.1146 3.9176 10.2665 4.00695 10.4443C4.222 10.8722 4.55977 11.4429 5.04894 12.0107C6.01838 13.136 7.5748 14.2499 10.0001 14.25C12.4255 14.25 13.9818 13.1359 14.9513 12.0107C15.4405 11.4429 15.7782 10.8723 15.9933 10.4443C16.0825 10.2667 16.1488 10.1146 16.1964 10C16.1488 9.88538 16.0825 9.73329 15.9933 9.55566C15.7782 9.12774 15.4405 8.55707 14.9513 7.98926C13.9818 6.86405 12.4255 5.75 10.0001 5.75Z" fill="#000000"/>
<path d="M3.00011 10L2.28625 10.2314C2.23792 10.0817 2.23792 9.91831 2.28625 9.76855L3.00011 10Z" fill="#000000"/>
<path d="M17.714 9.76855C17.7623 9.91836 17.7623 10.0816 17.714 10.2314L17.0001 10L17.714 9.76855Z" fill="#000000"/>
</svg>
