<svg xmlns="http://www.w3.org/2000/svg" width="24" height="24" viewBox="0 0 24 24" fill="none"><rect width="24" height="24" fill="none"/>
<path d="M4 18C4 19.1046 4.89543 20 6 20H8V22H6C3.79086 22 2 20.2091 2 18V16H4V18Z" fill="#000000"/>
<path d="M22 18C22 20.2091 20.2091 22 18 22H16V20H18C19.1046 20 20 19.1046 20 18V16H22V18Z" fill="#000000"/>
<path d="M16.207 9.20703L9.20703 16.207L7.79297 14.793L14.793 7.79297L16.207 9.20703Z" fill="#000000"/>
<path d="M14.5 13C15.3284 13 16 13.6716 16 14.5C16 15.3284 15.3284 16 14.5 16C13.6716 16 13 15.3284 13 14.5C13 13.6716 13.6716 13 14.5 13Z" fill="#000000"/>
<path d="M9.5 8C10.3284 8 11 8.67157 11 9.5C11 10.3284 10.3284 11 9.5 11C8.67157 11 8 10.3284 8 9.5C8 8.67157 8.67157 8 9.5 8Z" fill="#000000"/>
<path d="M8 4H6C4.89543 4 4 4.89543 4 6V8H2V6C2 3.79086 3.79086 2 6 2H8V4Z" fill="#000000"/>
<path d="M18 2C20.2091 2 22 3.79086 22 6V8H20V6C20 4.89543 19.1046 4 18 4H16V2H18Z" fill="#000000"/>
</svg>
