<svg xmlns="http://www.w3.org/2000/svg" width="20" height="20" viewBox="0 0 20 20" fill="none"><rect width="20" height="20" fill="none"/>
<path d="M6.49964 8C7.32807 8 7.99964 8.67157 7.99964 9.5C7.99964 10.3284 7.32807 11 6.49964 11C5.67138 10.9998 4.99964 10.3283 4.99964 9.5C4.99964 8.67169 5.67138 8.00019 6.49964 8Z" fill="#000000"/>
<path d="M13.4996 8C14.3281 8 14.9996 8.67157 14.9996 9.5C14.9996 10.3284 14.3281 11 13.4996 11C12.6714 10.9998 11.9996 10.3283 11.9996 9.5C11.9996 8.67169 12.6714 8.00019 13.4996 8Z" fill="#000000"/>
<path d="M13.8512 3C15.8685 3.00001 17.5707 4.5022 17.8209 6.50391L18.7116 13.6318C18.9351 15.4202 17.5402 17 15.7379 17C15.0228 16.9999 14.3307 16.7437 13.7877 16.2783L11.1305 14H8.86878L6.21156 16.2783C5.66857 16.7437 4.97648 16.9999 4.26136 17C2.45918 16.9998 1.0642 15.4201 1.28773 13.6318L2.17933 6.50391C2.42955 4.5023 4.13092 3.00014 6.14808 3H13.8512ZM6.14808 5C5.13956 5.00014 4.28881 5.75119 4.16371 6.75195L3.2721 13.8799C3.1978 14.4745 3.66218 14.9998 4.26136 15C4.49905 14.9999 4.7293 14.9144 4.9098 14.7598L7.84925 12.2412L8.12953 12H11.8698L12.15 12.2412L15.0895 14.7598C15.2699 14.9144 15.5003 14.9999 15.7379 15C16.3373 15 16.8015 14.4746 16.7272 13.8799L15.8356 6.75195C15.7105 5.75113 14.8598 5.00001 13.8512 5H6.14808Z" fill="#000000"/>
</svg>
