<svg xmlns="http://www.w3.org/2000/svg" width="24" height="24" viewBox="0 0 24 24" fill="none"><rect width="24" height="24" fill="none"/>
<path d="M7.5 16C8.32843 16 9 16.6716 9 17.5C9 18.3284 8.32843 19 7.5 19C6.67157 19 6 18.3284 6 17.5C6 16.6716 6.67157 16 7.5 16Z" fill="#000000"/>
<path d="M16.5 13C18.9853 13 21 15.0147 21 17.5C21 19.9853 18.9853 22 16.5 22H7.5C5.01472 22 3 19.9853 3 17.5C3 15.0147 5.01472 13 7.5 13H16.5ZM7.5 15C6.11929 15 5 16.1193 5 17.5C5 18.8807 6.11929 20 7.5 20H16.5C17.8807 20 19 18.8807 19 17.5C19 16.1193 17.8807 15 16.5 15H7.5Z" fill="#000000"/>
<path d="M16.5 5C17.3284 5 18 5.67157 18 6.5C18 7.32843 17.3284 8 16.5 8C15.6716 8 15 7.32843 15 6.5C15 5.67157 15.6716 5 16.5 5Z" fill="#000000"/>
<path d="M16.5 2C18.9853 2 21 4.01472 21 6.5C21 8.98528 18.9853 11 16.5 11H7.5C5.01472 11 3 8.98528 3 6.5C3 4.01472 5.01472 2 7.5 2H16.5ZM7.5 4C6.11929 4 5 5.11929 5 6.5C5 7.88071 6.11929 9 7.5 9H16.5C17.8807 9 19 7.88071 19 6.5C19 5.11929 17.8807 4 16.5 4H7.5Z" fill="#000000"/>
</svg>
