<svg xmlns="http://www.w3.org/2000/svg" width="20" height="20" viewBox="0 0 20 20" fill="none"><rect width="20" height="20" fill="none"/>
<path d="M18 4.5791L17.9844 5.07422C17.8751 7.29152 17.0005 16.2729 10 18C2.99951 16.2729 2.1249 7.29152 2.01562 5.07422L2 4.5791L10 2L18 4.5791ZM4.0957 6.00391C4.1015 6.0591 4.10578 6.11616 4.1123 6.17383C4.22735 7.18981 4.45649 8.54444 4.9043 9.93652C5.77212 12.6342 7.30309 15.0402 10 15.9199C12.6969 15.0402 14.2279 12.6342 15.0957 9.93652C15.5435 8.54444 15.7726 7.18981 15.8877 6.17383C15.8942 6.1162 15.8975 6.05907 15.9033 6.00391L10 4.10059L4.0957 6.00391Z" fill="#000000"/>
</svg>
