<svg xmlns="http://www.w3.org/2000/svg" width="24" height="24" viewBox="0 0 24 24" fill="none"><rect width="24" height="24" fill="none"/>
<path d="M13 10.5C13 7.38475 14.7586 4.50253 17.5527 3.10547L18.4473 4.89453C16.3385 5.94894 15 8.13361 15 10.5V15.5H13V10.5Z" fill="#000000"/>
<path d="M2 10.5C2 7.38475 3.75862 4.50253 6.55273 3.10547L7.44727 4.89453C5.33845 5.94894 4 8.13361 4 10.5V15.5H2V10.5Z" fill="#000000"/>
<path d="M20 13.5C20 12.1193 18.8807 11 17.5 11C16.1193 11 15 12.1193 15 13.5V16.5C15 17.8807 16.1193 19 17.5 19C18.8807 19 20 17.8807 20 16.5V13.5ZM22 16.5C22 18.9853 19.9853 21 17.5 21C15.0147 21 13 18.9853 13 16.5V13.5C13 11.0147 15.0147 9 17.5 9C19.9853 9 22 11.0147 22 13.5V16.5Z" fill="#000000"/>
<path d="M9 13.5C9 12.1193 7.88071 11 6.5 11C5.11929 11 4 12.1193 4 13.5V16.5C4 17.8807 5.11929 19 6.5 19C7.88071 19 9 17.8807 9 16.5V13.5ZM11 16.5C11 18.9853 8.98528 21 6.5 21C4.01472 21 2 18.9853 2 16.5V13.5C2 11.0147 4.01472 9 6.5 9C8.98528 9 11 11.0147 11 13.5V16.5Z" fill="#000000"/>
</svg>
