<svg xmlns="http://www.w3.org/2000/svg" width="20" height="20" viewBox="0 0 20 20" fill="none"><rect width="20" height="20" fill="none"/>
<path d="M17 11C18.6569 11 20 12.3431 20 14C20 15.6569 18.6569 17 17 17H16V18H18V19H16V20H14V19H13V18H14V17H13V15H14V11H17ZM16 15H17C17.5523 15 18 14.5523 18 14C18 13.4477 17.5523 13 17 13H16V15Z" fill="#000000"/>
<path d="M18 4.5791L17.9844 5.07422C17.9481 5.80948 17.8268 7.28832 17.4268 9H15.3662C15.6402 7.94813 15.7987 6.9598 15.8877 6.17383C15.8942 6.1162 15.8975 6.05907 15.9033 6.00391L10 4.10059L4.0957 6.00391C4.1015 6.0591 4.10578 6.11616 4.1123 6.17383C4.22735 7.18981 4.45649 8.54444 4.9043 9.93652C5.77212 12.6342 7.30309 15.0402 10 15.9199C10.3532 15.8047 10.6857 15.6619 11 15.4971V17.6885C10.6812 17.8087 10.3485 17.914 10 18C2.99951 16.2729 2.1249 7.29152 2.01562 5.07422L2 4.5791L10 2L18 4.5791Z" fill="#000000"/>
</svg>
