<svg xmlns="http://www.w3.org/2000/svg" width="20" height="20" viewBox="0 0 20 20" fill="none"><rect width="20" height="20" fill="none"/>
<path d="M15.5801 2.96484C16.9669 3.10555 18.0488 4.27625 18.0488 5.7002V14.2998C18.0488 15.8186 16.8176 17.0498 15.2988 17.0498H4.69922C3.18044 17.0498 1.94922 15.8186 1.94922 14.2998V5.7002C1.94922 4.18141 3.18044 2.9502 4.69922 2.9502H15.2988L15.5801 2.96484ZM4.69922 4.4502C4.00886 4.4502 3.44922 5.00984 3.44922 5.7002V14.2998C3.44922 14.9902 4.00886 15.5498 4.69922 15.5498H6.54883V4.4502H4.69922ZM8.04883 15.5498H11.9492V4.4502H8.04883V15.5498ZM13.4492 15.5498H15.2988C15.9892 15.5498 16.5488 14.9902 16.5488 14.2998V5.7002C16.5488 5.05291 16.0572 4.52094 15.4268 4.45703L15.2988 4.4502H13.4492V15.5498Z" fill="#000000"/>
</svg>
