<svg xmlns="http://www.w3.org/2000/svg" width="20" height="20" viewBox="0 0 20 20" fill="none"><rect width="20" height="20" fill="none"/>
<path d="M6.75195 11.5656C6.90659 11.4774 7.09696 11.4782 7.25098 11.5675C7.40506 11.657 7.49991 11.822 7.5 12.0002V13.2502H16.001V14.7502H7.5V16.0002C7.49999 16.1784 7.40506 16.3433 7.25098 16.4328C7.0969 16.5222 6.90664 16.523 6.75195 16.4347L3.25195 14.4347C3.09624 14.3457 3.00001 14.1795 3 14.0002C3.00009 13.8208 3.09624 13.6546 3.25195 13.5656L6.75195 11.5656Z" fill="#000000"/>
<path d="M12.749 3.56755C12.903 3.47825 13.0934 3.47738 13.248 3.5656L16.748 5.5656C16.9038 5.65458 16.9999 5.82084 17 6.00017C17 6.17955 16.9038 6.3457 16.748 6.43474L13.248 8.43474C13.0934 8.52303 12.9031 8.52216 12.749 8.43278C12.5949 8.34331 12.5 8.17835 12.5 8.00017V6.75017H4V5.25017H12.5V4.00017C12.5001 3.82203 12.5949 3.65697 12.749 3.56755Z" fill="#000000"/>
</svg>
