<svg xmlns="http://www.w3.org/2000/svg" width="20" height="20" viewBox="0 0 20 20" fill="none"><rect width="20" height="20" fill="none"/>
<path d="M17.5765 6.82422C17.8356 6.94938 18.0003 7.21231 18.0004 7.5C18.0004 7.7877 17.8355 8.05058 17.5765 8.17578L16.0004 8.93652V13.0303C16.0002 13.9974 15.4785 14.8901 14.6361 15.3652C11.7587 16.9877 8.24206 16.9876 5.36462 15.3652C4.52205 14.8901 4.00052 13.9976 4.00037 13.0303V8.93652L2.42419 8.17578C2.16498 8.05065 2.00037 7.78783 2.00037 7.5C2.00042 7.21222 2.16503 6.94933 2.42419 6.82422L10.0004 3.16699L17.5765 6.82422ZM10.0004 11.833L5.50037 9.66016V13.0303C5.50052 13.4562 5.72992 13.8494 6.10095 14.0586C8.52124 15.4233 11.4795 15.4234 13.8998 14.0586C14.2706 13.8493 14.5002 13.4561 14.5004 13.0303V9.66016L10.0004 11.833ZM4.47595 7.5L10.0004 10.166L15.5238 7.5L10.0004 4.83301L4.47595 7.5Z" fill="#000000"/>
</svg>
