<svg xmlns="http://www.w3.org/2000/svg" width="24" height="24" viewBox="0 0 24 24" fill="none"><rect width="24" height="24" fill="none"/>
<path d="M19.2471 13.333C19.2694 13.356 19.3004 13.3885 19.3389 13.4297C19.4158 13.5121 19.5221 13.6308 19.6494 13.7793C19.9032 14.0753 20.2421 14.4979 20.582 15.0078C21.2402 15.9951 22 17.4494 22 19C22 19.6408 21.8515 20.5845 21.3564 21.4043C20.8289 22.2778 19.902 23 18.5 23C17.098 23 16.1711 22.2778 15.6436 21.4043C15.1485 20.5845 15 19.6408 15 19C15 17.4494 15.7598 15.9951 16.418 15.0078C16.7579 14.4979 17.0968 14.0753 17.3506 13.7793C17.4779 13.6308 17.5842 13.5121 17.6611 13.4297C17.6996 13.3885 17.7306 13.356 17.7529 13.333L18.5 12.5859L19.2471 13.333Z" fill="#000000"/>
<path d="M21 7.94531V12.2881C20.9256 12.2042 20.8596 12.1285 20.8008 12.0654C20.7533 12.0145 20.7142 11.973 20.6846 11.9424L18.5 9.75781L16.3154 11.9424C16.2858 11.973 16.2467 12.0145 16.1992 12.0654C16.099 12.1728 15.9732 12.3128 15.832 12.4775C15.6135 12.7325 15.3384 13.0703 15.0479 13.4736L14.7539 13.8984C14.029 14.9858 13 16.8485 13 19C13 19.5433 13.0738 20.2518 13.2988 20.999H3V7.94531L12 2.32031L21 7.94531Z" fill="#000000"/>
</svg>
