<svg xmlns="http://www.w3.org/2000/svg" width="24" height="24" viewBox="0 0 24 24" fill="none"><rect width="24" height="24" fill="none"/>
<path d="M16.2539 4.06447C16.4105 3.976 16.6025 3.97887 16.7568 4.07131L21.7568 7.07131C21.9074 7.16167 22 7.32439 22 7.50002C22 7.6538 21.9292 7.79754 21.8105 7.89162L21.7568 7.92873L16.7568 10.9287C16.6025 11.0212 16.4105 11.024 16.2539 10.9356C16.0972 10.8468 16 10.6802 16 10.5V9.00002C14.6193 9.00002 13.5 10.1193 13.5 11.5V20H10.5V11.5C10.5 10.1193 9.38071 9.00002 8 9.00002V10.5C8 10.6802 7.90285 10.8468 7.74609 10.9356C7.58951 11.024 7.39745 11.0212 7.24316 10.9287L2.24316 7.92873L2.18945 7.89162C2.07078 7.79754 2 7.6538 2 7.50002C2 7.32439 2.09256 7.16167 2.24316 7.07131L7.24316 4.07131C7.39745 3.97887 7.58951 3.976 7.74609 4.06447C7.90285 4.15322 8 4.31988 8 4.50002V6.00002C9.57647 6.00002 10.9972 6.66388 12 7.72658C13.0028 6.66385 14.4235 6.00002 16 6.00002V4.50002C16 4.31988 16.0972 4.15322 16.2539 4.06447Z" fill="#000000"/>
</svg>
