<svg xmlns="http://www.w3.org/2000/svg" width="20" height="20" viewBox="0 0 20 20" fill="none"><rect width="20" height="20" fill="none"/>
<path d="M10 2C10.5523 2 11 2.44772 11 3C11 6.31371 13.6863 9 17 9L17.1025 9.00488C17.6067 9.05621 18 9.48232 18 10C18 10.5523 17.5523 11 17 11C13.6863 11 11 13.6863 11 17C11 17.5523 10.5523 18 10 18C9.44772 18 9 17.5523 9 17C9 13.6863 6.31371 11 3 11L2.89746 10.9951C2.39333 10.9438 2 10.5177 2 10C2 9.44772 2.44772 9 3 9C6.31371 9 9 6.31371 9 3C9 2.44772 9.44772 2 10 2ZM10 6.87207C9.27187 8.18559 8.18559 9.27187 6.87207 10C8.18534 10.728 9.27187 11.8138 10 13.127C10.728 11.814 11.814 10.728 13.127 10C11.8138 9.27187 10.728 8.18534 10 6.87207Z" fill="#000000"/>
</svg>
