<svg xmlns="http://www.w3.org/2000/svg" width="20" height="20" viewBox="0 0 20 20" fill="none"><rect width="20" height="20" fill="none"/>
<path d="M13 10H7V8H13V10Z" fill="#000000"/>
<path d="M10 2C14.8325 2 18 5.42818 18 9.5C18 14.5523 14.0523 18 10 18H9V15.9502C5.0811 15.5725 2 12.9758 2 9C2 6.92186 2.81751 5.1394 4.27441 3.89062C5.71747 2.65381 7.71483 2 10 2ZM10 4C8.08543 4 6.5831 4.54622 5.57617 5.40918C4.58307 6.26041 4 7.47814 4 9C4 11.8915 6.38185 14 10 14H11V15.9014C13.5992 15.4021 16 13.0009 16 9.5C16 6.57182 13.7675 4 10 4Z" fill="#000000"/>
</svg>
