<svg xmlns="http://www.w3.org/2000/svg" width="20" height="20" viewBox="0 0 20 20" fill="none"><rect width="20" height="20" fill="none"/>
<path d="M10.75 2.03613C14.6783 2.41337 17.75 5.72282 17.75 9.75V10H10.75V15.375C10.75 15.9963 11.2537 16.5 11.875 16.5C12.4963 16.5 13 15.9963 13 15.375V15H14.5V15.375C14.5 16.8247 13.3247 18 11.875 18C10.4253 18 9.25 16.8247 9.25 15.375V10H2.25V9.75C2.25 5.72282 5.32171 2.41337 9.25 2.03613V1H10.75V2.03613ZM10 3.5C6.9763 3.5 4.45409 5.6472 3.875 8.5H16.125C15.5459 5.6472 13.0237 3.5 10 3.5Z" fill="#000000"/>
</svg>
