<svg xmlns="http://www.w3.org/2000/svg" width="24" height="24" viewBox="0 0 24 24" fill="none"><rect width="24" height="24" fill="none"/>
<path d="M20.1511 2.56244C20.5175 2.42653 20.9304 2.51655 21.2068 2.79291C21.4829 3.06926 21.5731 3.48131 21.4373 3.8476L14.9373 21.3486C14.7871 21.7519 14.3948 22.0138 13.9646 21.999C13.5345 21.9838 13.1614 21.695 13.0398 21.2822L10.6921 13.3056L2.71655 10.9589C2.30393 10.8372 2.01499 10.465 1.99975 10.0351C1.98478 9.60479 2.24762 9.21258 2.65112 9.06244L20.1511 2.56244ZM6.16772 9.88959L11.782 11.541L12.3054 11.6943L12.4587 12.2177L14.1091 17.831L18.8015 5.19819L6.16772 9.88959Z" fill="#000000"/>
</svg>
