<svg xmlns="http://www.w3.org/2000/svg" width="20" height="20" viewBox="0 0 20 20" fill="none"><rect width="20" height="20" fill="none"/>
<path d="M12.6716 6C13.4998 6.00026 14.1716 6.67174 14.1716 7.5C14.1716 8.32826 13.4998 8.99974 12.6716 9C11.8433 8.99988 11.1716 8.32835 11.1716 7.5C11.1716 6.67165 11.8433 6.00012 12.6716 6Z" fill="#000000"/>
<path d="M16.1716 2C17.276 2.00026 18.1716 2.89559 18.1716 4V9.58594C18.1716 10.1162 17.9606 10.625 17.5857 11L11.2927 17.293C10.1213 18.4641 8.22206 18.4641 7.05054 17.293L2.87866 13.1211C1.70744 11.9496 1.70744 10.0504 2.87866 8.87891L9.17163 2.58594C9.54659 2.2111 10.0555 2.0001 10.5857 2H16.1716ZM4.29273 10.293C3.90255 10.6834 3.90255 11.3166 4.29273 11.707L8.4646 15.8789C8.85507 16.2689 9.48825 16.269 9.87866 15.8789L16.1716 9.58594V4H10.5857L4.29273 10.293Z" fill="#000000"/>
</svg>
