<svg xmlns="http://www.w3.org/2000/svg" width="24" height="24" viewBox="0 0 24 24" fill="none"><rect width="24" height="24" fill="none"/>
<path d="M18.3818 3C19.1394 3 19.8321 3.42793 20.1709 4.10547L21.7891 7.3418C21.9279 7.61945 22 7.92592 22 8.23633V9C22 10.0138 21.6217 10.9386 21 11.6436V21H13.5V17.5C13.5 16.6716 12.8284 16 12 16C11.1716 16 10.5 16.6716 10.5 17.5V21H3V11.6436C2.37831 10.9386 2 10.0138 2 9V8.23633C2 7.92592 2.07215 7.61945 2.21094 7.3418L3.8291 4.10547C4.1679 3.42793 4.86064 3 5.61816 3H18.3818ZM15 11.6436C14.267 12.4747 13.1953 13 12 13C10.8047 13 9.73297 12.4747 9 11.6436C8.26703 12.4747 7.1953 13 6 13C5.6547 13 5.31962 12.9563 5 12.874V19H8.5V17.5C8.5 15.567 10.067 14 12 14C13.933 14 15.5 15.567 15.5 17.5V19H19V12.874C18.6804 12.9563 18.3453 13 18 13C16.8047 13 15.733 12.4747 15 11.6436ZM4 8.23633V9C4 10.1046 4.89543 11 6 11C7.10457 11 8 10.1046 8 9H10C10 10.1046 10.8954 11 12 11C13.1046 11 14 10.1046 14 9H16C16 10.1046 16.8954 11 18 11C19.1046 11 20 10.1046 20 9V8.23633L18.3818 5H5.61816L4 8.23633Z" fill="#000000"/>
</svg>
