<svg xmlns="http://www.w3.org/2000/svg" width="20" height="20" viewBox="0 0 20 20" fill="none"><rect width="20" height="20" fill="none"/>
<path d="M15.5 11C15.7761 11 16 11.2239 16 11.5C16 13.433 17.567 15 19.5 15C19.7761 15 20 15.2239 20 15.5C20 15.7761 19.7761 16 19.5 16C17.567 16 16 17.567 16 19.5C16 19.7761 15.7761 20 15.5 20C15.2239 20 15 19.7761 15 19.5C15 17.567 13.433 16 11.5 16C11.2239 16 11 15.7761 11 15.5C11 15.2239 11.2239 15 11.5 15C13.433 15 15 13.433 15 11.5C15 11.2239 15.2239 11 15.5 11Z" fill="#000000"/>
<path d="M8 1C8.41421 1 8.75 1.33579 8.75 1.75V2C8.75 4.80877 10.9557 7.10238 13.7295 7.24316L14 7.25H14.25C14.6642 7.25 15 7.58579 15 8C15 8.41421 14.6642 8.75 14.25 8.75H14C11.1005 8.75 8.75 11.1005 8.75 14V14.25C8.75 14.6642 8.41421 15 8 15C7.58579 15 7.25 14.6642 7.25 14.25V14C7.25 11.1005 4.89949 8.75 2 8.75H1.75C1.33579 8.75 1 8.41421 1 8C1 7.58579 1.33579 7.25 1.75 7.25H2C4.89949 7.25 7.25 4.89949 7.25 2V1.75C7.25 1.33579 7.58579 1 8 1ZM8 5.09082C7.35661 6.33726 6.33726 7.35661 5.09082 8C6.337 8.64325 7.35659 9.66212 8 10.9082C8.64328 9.66237 9.66237 8.64328 10.9082 8C9.66212 7.35659 8.64325 6.337 8 5.09082Z" fill="#000000"/>
</svg>
