<svg xmlns="http://www.w3.org/2000/svg" width="20" height="20" viewBox="0 0 20 20" fill="none"><rect width="20" height="20" fill="none"/>
<path d="M18.5303 17.4688L17.4697 18.5293L11.75 12.8096L7.34863 17.2109L3.09277 17.7432C2.86329 17.7718 2.63331 17.6928 2.46973 17.5293C2.30628 17.3658 2.22734 17.1357 2.25586 16.9062L2.78809 12.6504L7.18945 8.24902L1.46973 2.5293L2.53027 1.46875L18.5303 17.4688ZM4.21191 13.3467L3.86328 16.1348L6.65137 15.7861L10.6885 11.748L8.24902 9.30859L4.21191 13.3467Z" fill="#000000"/>
<path d="M12.2197 3.21875C13.4791 1.95953 15.5209 1.95953 16.7803 3.21875C18.0394 4.47811 18.0395 6.51996 16.7803 7.7793L13.8105 10.749L12.749 9.6875L13.2324 9.2041C13.0952 7.9206 12.0768 6.90066 10.793 6.76465L10.3096 7.24805L9.25 6.18848L12.2197 3.21875ZM15.7197 4.2793C15.0462 3.60587 13.9538 3.60587 13.2803 4.2793L12.0254 5.5332C13.1443 5.96384 14.0346 6.8531 14.4658 7.97168L15.7197 6.71875C16.3931 6.0452 16.3931 4.95287 15.7197 4.2793Z" fill="#000000"/>
</svg>
