<svg xmlns="http://www.w3.org/2000/svg" width="20" height="20" viewBox="0 0 20 20" fill="none"><rect width="20" height="20" fill="none"/>
<path d="M6.4994 8C7.32772 8.00012 7.9994 8.67165 7.9994 9.5C7.9994 10.3284 7.32772 10.9999 6.4994 11C5.67114 10.9998 4.9994 10.3283 4.9994 9.5C4.9994 8.6717 5.67114 8.0002 6.4994 8Z" fill="#000000"/>
<path d="M13.4994 8C14.3277 8.00012 14.9994 8.67165 14.9994 9.5C14.9994 10.3284 14.3277 10.9999 13.4994 11C12.6711 10.9998 11.9994 10.3283 11.9994 9.5C11.9994 8.6717 12.6711 8.0002 13.4994 8Z" fill="#000000"/>
<path d="M14.7299 2.94922C16.1194 2.94973 17.2911 3.98679 17.4594 5.36621L18.514 14.0156C18.6912 15.4686 17.5568 16.7494 16.0931 16.75C15.5395 16.75 15.0011 16.5616 14.5687 16.2158L11.2367 13.5498H8.79139L6.07264 16.0361C5.57025 16.4953 4.9134 16.7498 4.2328 16.75C2.59606 16.7499 1.32781 15.318 1.52577 13.6934L2.54139 5.36621C2.70973 3.98648 3.88188 2.94922 5.27186 2.94922H14.7299ZM5.27186 4.44922C4.64007 4.44922 4.1072 4.92073 4.03065 5.54785L3.01502 13.875C2.92609 14.6059 3.49651 15.2499 4.2328 15.25C4.53895 15.2498 4.83496 15.1353 5.06092 14.9287L8.20936 12.0498H11.7631L11.9691 12.2139L15.5062 15.0439C15.6727 15.1769 15.8801 15.25 16.0931 15.25C16.6564 15.2494 17.0929 14.7565 17.0248 14.1973L15.9701 5.54785C15.8936 4.92104 15.3612 4.44973 14.7299 4.44922H5.27186Z" fill="#000000"/>
</svg>
