<svg xmlns="http://www.w3.org/2000/svg" width="20" height="20" viewBox="0 0 20 20" fill="none"><rect width="20" height="20" fill="none"/>
<path d="M10 5.25C11.5188 5.25 12.75 6.48122 12.75 8C12.75 9.51878 11.5188 10.75 10 10.75C8.48122 10.75 7.25 9.51878 7.25 8C7.25 6.48122 8.48122 5.25 10 5.25ZM10 6.75C9.30964 6.75 8.75 7.30964 8.75 8C8.75 8.69036 9.30964 9.25 10 9.25C10.6904 9.25 11.25 8.69036 11.25 8C11.25 7.30964 10.6904 6.75 10 6.75Z" fill="#000000"/>
<path d="M14 2.25C16.0711 2.25 17.75 3.92893 17.75 6V14C17.75 16.0711 16.0711 17.75 14 17.75H6C3.92893 17.75 2.25 16.0711 2.25 14V6C2.25 3.92893 3.92893 2.25 6 2.25H14ZM10 13.75C9.24477 13.75 8.40124 13.937 7.77148 14.3545C7.19465 14.7369 6.77563 15.3209 6.75195 16.25H13.25V16C13.25 15.3305 12.8804 14.7902 12.2402 14.3828C11.5881 13.9678 10.731 13.75 10 13.75ZM6 3.75C4.75736 3.75 3.75 4.75736 3.75 6V14C3.75 14.9815 4.37938 15.8136 5.25586 16.1211C5.31922 14.7125 6.01129 13.7219 6.94238 13.1045C7.88406 12.4803 9.04094 12.25 10 12.25C10.9833 12.25 12.1266 12.5322 13.0459 13.1172C13.977 13.7098 14.75 14.6697 14.75 16V16.1182C15.6233 15.8089 16.25 14.9792 16.25 14V6C16.25 4.75736 15.2426 3.75 14 3.75H6Z" fill="#000000"/>
</svg>
