<svg xmlns="http://www.w3.org/2000/svg" width="20" height="20" viewBox="0 0 20 20" fill="none"><rect width="20" height="20" fill="none"/>
<path d="M10 2.75C13.3413 2.75 16.0497 5.45857 16.0498 8.7998V9.5166C17.4275 9.666 18.5 10.8325 18.5 12.25V14.25C18.5 15.7688 17.2688 17 15.75 17H13V9.5H14.5498V8.7998C14.5497 6.287 12.5128 4.25 10 4.25C7.48726 4.25011 5.4503 6.28706 5.4502 8.7998V9.5H7V17H4.25C2.73122 17 1.5 15.7688 1.5 14.25V12.25C1.5 10.8325 2.57247 9.666 3.9502 9.5166V8.7998C3.9503 5.45864 6.65883 2.75011 10 2.75ZM4.25 11C3.55964 11 3 11.5596 3 12.25V14.25C3 14.9404 3.55964 15.5 4.25 15.5H5.5V11H4.25ZM14.5 15.5H15.75C16.4404 15.5 17 14.9404 17 14.25V12.25C17 11.5596 16.4404 11 15.75 11H14.5V15.5Z" fill="#000000"/>
</svg>
