<svg xmlns="http://www.w3.org/2000/svg" width="20" height="20" viewBox="0 0 20 20" fill="none"><rect width="20" height="20" fill="none"/>
<path d="M15.2637 13.0596C15.4262 12.9726 15.624 12.9818 15.7773 13.084L18.7773 15.084C18.9163 15.1767 18.9999 15.333 19 15.5C18.9999 15.667 18.9163 15.8233 18.7773 15.916L15.7773 17.916C15.624 18.0182 15.4262 18.0274 15.2637 17.9404C15.1015 17.8534 15.0001 17.6841 15 17.5V16.5C13.8955 16.5 13.0001 17.3955 13 18.5V19H11V18.5C11.0001 16.291 12.7909 14.5 15 14.5V13.5L15.0049 13.4316C15.0266 13.2748 15.1218 13.1357 15.2637 13.0596Z" fill="#000000"/>
<path d="M12 2C14.2091 2 16 3.79086 16 6V11H14V6C14 4.89543 13.1046 4 12 4H8C6.89543 4 6 4.89543 6 6V14C6 15.1046 6.89543 16 8 16H9V18H8C5.79086 18 4 16.2091 4 14V6C4 3.79086 5.79086 2 8 2H12Z" fill="#000000"/>
<path d="M11 5C11.5523 5 12 5.44772 12 6C12 6.55228 11.5523 7 11 7H9C8.44772 7 8 6.55228 8 6C8 5.44772 8.44772 5 9 5H11Z" fill="#000000"/>
</svg>
