<svg xmlns="http://www.w3.org/2000/svg" width="20" height="20" viewBox="0 0 20 20" fill="none"><rect width="20" height="20" fill="none"/>
<path d="M10.8271 5.18652C10.9744 5.02874 11.2322 5.18358 11.1621 5.3877L10.333 7.7998H11.333C11.6026 7.7998 11.846 7.97 11.9492 8.23145C12.0524 8.49294 11.9952 8.79394 11.8047 8.99414L9.14941 11.8105C9.00105 11.9676 8.74338 11.8103 8.81543 11.6064L9.66699 9.19922H8.66699C8.40549 9.19922 8.16772 9.03902 8.05957 8.78906C7.95158 8.53919 7.99223 8.24573 8.16406 8.03906L10.8271 5.18652Z" fill="#000000"/>
<path d="M10 2C13.3137 2 16 4.68629 16 8V8.13965C15.9999 9.57565 15.4964 10.9661 14.5771 12.0693L13.6318 13.2041C13.5131 13.3466 13.4364 13.5195 13.4102 13.7031L13.0986 15.8799C12.9841 16.6813 12.4839 17.3762 11.7598 17.7383C10.6521 18.2921 9.34792 18.2921 8.24023 17.7383C7.51615 17.3762 7.01586 16.6813 6.90137 15.8799L6.58984 13.7031C6.56361 13.5195 6.48689 13.3466 6.36816 13.2041L5.42285 12.0693C4.5036 10.9661 4.00008 9.57565 4 8.13965V8C4 4.68629 6.68629 2 10 2ZM11.2207 14.8828C10.4116 15.0122 9.5874 15.0123 8.77832 14.8828L8.88086 15.5977C8.90256 15.7494 8.99771 15.8806 9.13477 15.9492C9.6794 16.2215 10.3206 16.2215 10.8652 15.9492C11.0023 15.8806 11.0974 15.7494 11.1191 15.5977L11.2207 14.8828ZM10 4C7.79086 4 6 5.79086 6 8V8.13965C6.00008 9.10773 6.33931 10.0453 6.95898 10.7891L7.90527 11.9238C8.11238 12.1724 8.27469 12.4525 8.3916 12.751C9.44134 13.0578 10.5576 13.0577 11.6074 12.751C11.7243 12.4524 11.8875 12.1725 12.0947 11.9238L13.041 10.7891C13.6607 10.0453 13.9999 9.10773 14 8.13965V8C14 5.79086 12.2091 4 10 4Z" fill="#000000"/>
</svg>
