<svg xmlns="http://www.w3.org/2000/svg" width="24" height="24" viewBox="0 0 24 24" fill="none"><rect width="24" height="24" fill="none"/>
<path d="M22 22.9999H14V20.9999H22V22.9999Z" fill="#000000"/>
<path d="M12.5898 3.33094C14.3634 1.33589 17.5567 1.60457 18.9717 3.86805L19.3477 4.46962C19.5044 4.72068 19.5421 5.02905 19.4502 5.31044C19.3581 5.59177 19.1459 5.81863 18.8711 5.9286C17.4606 6.49287 16.6258 7.21427 15.9688 8.11317L23 6.79481V7.99989C23 9.09282 22.864 10.0953 22.6074 10.9999H20.5049C20.7039 10.4744 20.8501 9.88142 20.9297 9.21669L16.1641 10.1112C15.3593 10.2621 14.6179 9.91513 14.2002 9.34169C13.7728 8.75445 13.6775 7.90985 14.1709 7.18739C14.874 6.15827 15.7455 5.28995 17.0127 4.59559C16.2266 3.78257 14.875 3.77052 14.085 4.65907L12 7.00477L9.91504 4.65907C9.1248 3.77034 7.77233 3.78208 6.98633 4.59559C8.25394 5.29001 9.12587 6.15806 9.8291 7.18739C10.3225 7.90985 10.2272 8.75445 9.7998 9.34169C9.38212 9.91513 8.64065 10.2621 7.83594 10.1112L3.06934 9.21669C3.26776 10.8747 3.87598 12.0868 4.70703 12.9179C5.7325 13.9432 7.20801 14.4999 9 14.4999H10.6182L8.3457 19.0429C9.50883 19.5598 10.7545 19.8174 12 19.8173V21.8192C10.3148 21.8192 8.62934 21.4321 7.08105 20.6581L5.6582 19.9472L7.44238 16.3768C5.84934 16.1195 4.41242 15.4513 3.29297 14.3319C1.8156 12.8545 1.00009 10.7023 1 7.99989V6.79481L8.03027 8.11317C7.37326 7.21449 6.53912 6.49278 5.12891 5.9286C4.85406 5.81863 4.64188 5.59177 4.5498 5.31044C4.45792 5.02905 4.49556 4.72068 4.65234 4.46962L5.02832 3.86805C6.44327 1.60457 9.63663 1.33589 11.4102 3.33094L12 3.99403L12.5898 3.33094Z" fill="#000000"/>
<path d="M22 19.9999H14V17.9999H22V19.9999Z" fill="#000000"/>
<path d="M21.7578 14.9657L14.2578 16.9657L13.7422 15.0341L21.2422 13.0341L21.7578 14.9657Z" fill="#000000"/>
</svg>
