<svg xmlns="http://www.w3.org/2000/svg" width="20" height="20" viewBox="0 0 20 20" fill="none"><rect width="20" height="20" fill="none"/>
<path d="M10.0029 2.26172C14.5498 2.54952 16.7725 8.06493 13.6104 11.4268L16.5664 14.5127L16.0449 15.0322L12.998 18.0586L9.99609 15.0566L7 18.0615L3.4502 14.5117L6.38379 11.4443L6.25 11.3105C2.99559 8.05614 5.15228 2.5538 9.62988 2.2627V2.25C9.69312 2.25 9.75595 2.25095 9.81836 2.25293C9.87947 2.25099 9.941 2.25 10.0029 2.25V2.26172ZM11.0547 13.9941L13.001 15.9404L14.4648 14.4863L12.5537 12.4912L11.0547 13.9941ZM12.8926 5.46582C12.9085 6.26492 12.6303 7.0854 11.9844 7.76074L5.5498 14.4883L7 15.9385L12.4287 10.4951C13.8998 9.02018 13.8821 6.9276 12.8926 5.46582ZM6.89844 5.34863C5.90759 6.76001 5.8718 8.81126 7.31055 10.25L7.4209 10.3604L8.96484 8.74609L7.76465 7.49316C7.15991 6.86186 6.89324 6.0967 6.89844 5.34863ZM9.81836 3.76074C8.53395 3.90046 7.91753 5.48368 8.84766 6.45508L10.0029 7.66113L10.9004 6.72363C11.9256 5.65164 11.2398 3.90422 9.81836 3.76074Z" fill="#000000"/>
</svg>
