<svg xmlns="http://www.w3.org/2000/svg" width="20" height="20" viewBox="0 0 20 20" fill="none"><rect width="20" height="20" fill="none"/>
<path d="M15.5 12C17.433 12 19 13.567 19 15.5C19 17.433 17.433 19 15.5 19C13.567 19 12 17.433 12 15.5C12 13.567 13.567 12 15.5 12Z" fill="#000000"/>
<path d="M8.69922 1.9502C10.2179 1.9503 11.4492 3.18148 11.4492 4.7002V5.9502H13.2988C14.8176 5.9502 16.0488 7.18141 16.0488 8.7002V10.5303C15.8686 10.5106 15.6855 10.5 15.5 10.5C12.7386 10.5 10.5 12.7386 10.5 15.5C10.5 16.4316 10.7556 17.3031 11.1992 18.0498H3.94922V1.9502H8.69922Z" fill="#000000"/>
</svg>
