<svg xmlns="http://www.w3.org/2000/svg" width="24" height="24" viewBox="0 0 24 24" fill="none"><rect width="24" height="24" fill="none"/>
<path d="M12 2C17.5228 2 22 6.47715 22 12C22 17.5228 17.5228 22 12 22C6.47715 22 2 17.5228 2 12C2 6.47715 6.47715 2 12 2ZM9.51953 13C9.60964 15.2416 9.99964 17.0048 10.5146 18.2188C10.81 18.915 11.1286 19.3885 11.417 19.6729C11.7037 19.9554 11.903 20 12 20C12.097 20 12.2963 19.9554 12.583 19.6729C12.8714 19.3885 13.19 18.915 13.4854 18.2188C14.0004 17.0048 14.3904 15.2416 14.4805 13H9.51953ZM4.06445 13C4.42069 15.8559 6.28036 18.243 8.82812 19.3447C8.77496 19.2323 8.72272 19.1175 8.67285 19C8.03448 17.4952 7.60951 15.4551 7.51855 13H4.06445ZM16.4814 13C16.3905 15.4551 15.9655 17.4952 15.3271 19C15.2772 19.1177 15.2241 19.2322 15.1709 19.3447C17.7191 18.2431 19.5793 15.8562 19.9355 13H16.4814ZM8.82812 4.6543C6.28018 5.75599 4.4207 8.14401 4.06445 11H7.51855C7.60951 8.54491 8.03448 6.50476 8.67285 5C8.72283 4.88218 8.77483 4.767 8.82812 4.6543ZM12 4C11.903 4 11.7037 4.04458 11.417 4.32715C11.1286 4.61146 10.81 5.08498 10.5146 5.78125C9.99964 6.9952 9.60964 8.75842 9.51953 11H14.4805C14.3904 8.75842 14.0004 6.9952 13.4854 5.78125C13.19 5.08498 12.8714 4.61146 12.583 4.32715C12.2963 4.04458 12.097 4 12 4ZM15.3271 5C15.9655 6.50476 16.3905 8.54491 16.4814 11H19.9355C19.5793 8.14371 17.7193 5.75583 15.1709 4.6543C15.2243 4.76712 15.2771 4.88205 15.3271 5Z" fill="#000000"/>
</svg>
