<svg xmlns="http://www.w3.org/2000/svg" width="24" height="24" viewBox="0 0 24 24" fill="none"><rect width="24" height="24" fill="none"/>
<path d="M14 3C16.2091 3 18 4.79086 18 7V17C18 19.2091 16.2091 21 14 21H10C7.79086 21 6 19.2091 6 17V7C6 4.79086 7.79086 3 10 3H14ZM10 5C8.89543 5 8 5.89543 8 7V17C8 18.1046 8.89543 19 10 19H14C15.1046 19 16 18.1046 16 17V7C16 5.89543 15.1046 5 14 5H10Z" fill="#000000"/>
<path d="M4 19H2V5H4V19Z" fill="#000000"/>
<path d="M22 19H20V5H22V19Z" fill="#000000"/>
</svg>
