<svg xmlns="http://www.w3.org/2000/svg" width="20" height="20" viewBox="0 0 20 20" fill="none"><rect width="20" height="20" fill="none"/>
<path d="M15.75 14.25H19V15.75H15.75V19H14.25V15.75H11V14.25H14.25V11H15.75V14.25Z" fill="#000000"/>
<path d="M15 3C16.6569 3 18 4.34315 18 6V9H16.5V6C16.5 5.17157 15.8284 4.5 15 4.5H13.4492V9H11.9492V4.5H8.04883V15.5H9V17H5C3.34315 17 2 15.6569 2 14V6C2 4.34315 3.34315 3 5 3H15ZM5 4.5C4.17157 4.5 3.5 5.17157 3.5 6V14C3.5 14.8284 4.17157 15.5 5 15.5H6.54883V4.5H5Z" fill="#000000"/>
</svg>
