<svg xmlns="http://www.w3.org/2000/svg" width="20" height="20" viewBox="0 0 20 20" fill="none"><rect width="20" height="20" fill="none"/>
<path d="M14.0303 10.9697L12.9697 12.0303L10 9.06055L7.03027 12.0303L5.96973 10.9697L10 6.93945L14.0303 10.9697Z" fill="#000000"/>
<path d="M10 2C14.4182 2 17.9999 5.58183 18 10C18 14.4183 14.4183 18 10 18C5.58172 18 2 14.4183 2 10C2.00013 5.58183 5.5818 2 10 2ZM10 3.5C6.41023 3.5 3.50013 6.41026 3.5 10C3.5 13.5899 6.41015 16.5 10 16.5C13.5899 16.5 16.5 13.5899 16.5 10C16.4999 6.41026 13.5898 3.5 10 3.5Z" fill="#000000"/>
</svg>
