<svg xmlns="http://www.w3.org/2000/svg" width="20" height="20" viewBox="0 0 20 20" fill="none"><rect width="20" height="20" fill="none"/>
<path d="M15.4619 10.5C15.6725 10.5 15.8566 10.646 15.9092 10.8545L16.0801 11.5332C16.5095 11.6839 16.8998 11.9218 17.2295 12.2266L17.9658 12.0186C18.1663 11.9617 18.3798 12.0487 18.4863 12.2314L18.9346 13.002C19.0455 13.1926 19.0119 13.4362 18.8535 13.5879L18.2725 14.1445C18.307 14.341 18.3252 14.5434 18.3252 14.75C18.3252 14.9566 18.307 15.159 18.2725 15.3555L18.8535 15.9121C19.0119 16.0638 19.0455 16.3074 18.9346 16.498L18.4863 17.2686C18.3798 17.4513 18.1663 17.5383 17.9658 17.4814L17.2295 17.2734C16.8998 17.5782 16.5095 17.8161 16.0801 17.9668L15.9092 18.6455C15.8566 18.854 15.6725 19 15.4619 19H14.5381C14.3276 19 14.1434 18.854 14.0908 18.6455L13.9199 17.9658C13.4911 17.815 13.1017 17.577 12.7725 17.2725L12.0342 17.4814C11.8337 17.5383 11.6202 17.4513 11.5137 17.2686L11.0654 16.498C10.9545 16.3074 10.9881 16.0638 11.1465 15.9121L11.7295 15.3535C11.6952 15.1576 11.6768 14.956 11.6768 14.75C11.6768 14.544 11.6952 14.3424 11.7295 14.1465L11.1465 13.5879C10.9881 13.4362 10.9545 13.1926 11.0654 13.002L11.5137 12.2314C11.6202 12.0487 11.8337 11.9617 12.0342 12.0186L12.7725 12.2275C13.1017 11.923 13.4911 11.685 13.9199 11.5342L14.0908 10.8545C14.1434 10.646 14.3276 10.5 14.5381 10.5H15.4619ZM15.001 13.4736C14.3118 13.4736 13.753 14.0451 13.7529 14.75C13.7529 15.455 14.3117 16.0264 15.001 16.0264C15.6902 16.0263 16.249 15.4549 16.249 14.75C16.2489 14.0452 15.6901 13.4737 15.001 13.4736Z" fill="#000000"/>
<path d="M11.3105 5.9502H15.2998C16.8186 5.9502 18.0498 7.18141 18.0498 8.7002V9H16.5498V8.7002C16.5498 8.00984 15.9902 7.4502 15.2998 7.4502H10.6895L7.68945 4.4502H4.7002C4.00984 4.4502 3.4502 5.00984 3.4502 5.7002V14.2998C3.4502 14.9902 4.00984 15.5498 4.7002 15.5498H9V17.0498H4.7002C3.18141 17.0498 1.9502 15.8186 1.9502 14.2998V5.7002C1.9502 4.18141 3.18141 2.9502 4.7002 2.9502H8.31055L11.3105 5.9502Z" fill="#000000"/>
</svg>
