<svg xmlns="http://www.w3.org/2000/svg" width="20" height="20" viewBox="0 0 20 20" fill="none"><rect width="20" height="20" fill="none"/>
<path d="M14.3008 3.94922C16.3716 3.94938 18.0506 5.62838 18.0508 7.69922V12.2998C18.0508 14.3708 16.3717 16.0496 14.3008 16.0498H5.7002C3.62913 16.0498 1.9502 14.3709 1.9502 12.2998V7.69922C1.95036 5.62829 3.62923 3.94922 5.7002 3.94922H14.3008ZM5.00098 8C4.44869 8 4.00098 8.44772 4.00098 9V11C4.00098 11.5523 4.44869 12 5.00098 12C5.55326 12 6.00098 11.5523 6.00098 11V9C6.00098 8.44772 5.55326 8 5.00098 8Z" fill="#000000"/>
</svg>
