<svg xmlns="http://www.w3.org/2000/svg" width="20" height="20" viewBox="0 0 20 20" fill="none"><rect width="20" height="20" fill="none"/>
<path d="M14 10C13.9998 12.209 12.209 14 10 14H9.5V14.25C9.49988 14.4316 9.40094 14.5994 9.24219 14.6875C9.08339 14.7753 8.88931 14.7699 8.73535 14.6738L6.73535 13.4238C6.58939 13.3325 6.50012 13.1722 6.5 13C6.50015 12.8495 6.56799 12.7074 6.68262 12.6133L6.73535 12.5762L8.73535 11.3262C8.88928 11.2302 9.08343 11.2247 9.24219 11.3125C9.40094 11.4006 9.49982 11.5685 9.5 11.75V12H10C11.1045 12 11.9998 11.1044 12 10H14Z" fill="#000000"/>
<path d="M10.7578 5.3125C10.9166 5.22471 11.1107 5.23016 11.2646 5.32617L13.2646 6.57617C13.4106 6.66747 13.4998 6.82785 13.5 7C13.4999 7.15055 13.432 7.29255 13.3174 7.38672L13.2646 7.42383L11.2646 8.67383C11.1107 8.76989 10.9166 8.77534 10.7578 8.6875C10.5991 8.59941 10.5001 8.43155 10.5 8.25V8H10C8.89559 8 8.00026 8.89566 8 10H6C6.00026 7.79109 7.79102 6 10 6H10.5V5.75C10.5002 5.56848 10.5991 5.40056 10.7578 5.3125Z" fill="#000000"/>
<path d="M10 2C14.4182 2 17.9999 5.58183 18 10C18 14.4183 14.4183 18 10 18C5.58172 18 2 14.4183 2 10C2.00013 5.58183 5.5818 2 10 2ZM10 4C6.68637 4 4.00013 6.6864 4 10C4 13.3137 6.68629 16 10 16C13.3137 16 16 13.3137 16 10C15.9999 6.6864 13.3136 4 10 4Z" fill="#000000"/>
</svg>
