<svg xmlns="http://www.w3.org/2000/svg" width="24" height="24" viewBox="0 0 24 24" fill="none"><rect width="24" height="24" fill="none"/>
<path d="M4 15C6.76142 15 9 17.2386 9 20V22H7V20C7 18.3431 5.65685 17 4 17H2V15H4Z" fill="#000000"/>
<path d="M22 17H20C18.3431 17 17 18.3431 17 20V22H15V20C15 17.2386 17.2386 15 20 15H22V17Z" fill="#000000"/>
<path d="M9 4C9 6.76142 6.76142 9 4 9H2V7H4C5.65685 7 7 5.65685 7 4V2H9V4Z" fill="#000000"/>
<path d="M17 4C17 5.65685 18.3431 7 20 7H22V9H20C17.2386 9 15 6.76142 15 4V2H17V4Z" fill="#000000"/>
</svg>
