<svg xmlns="http://www.w3.org/2000/svg" width="24" height="24" viewBox="0 0 24 24" fill="none"><rect width="24" height="24" fill="none"/>
<path d="M19.5038 17.5C19.7799 17.5001 20.0038 17.7239 20.0038 18V21.5H21.0038V22.5H17.0038V21.5H18.0038V18.5H17.0038V17.5H19.5038Z" fill="#000000"/>
<path d="M11.9999 1.5C13.4538 1.50013 14.6182 1.93704 15.416 2.37207C15.8146 2.58958 16.1268 2.80953 16.3427 2.97852C16.4503 3.06276 16.5359 3.13523 16.5966 3.18945C16.6266 3.21623 16.6516 3.23957 16.6699 3.25684C16.6788 3.26531 16.6873 3.27342 16.6933 3.2793L16.706 3.29199C16.7036 3.295 16.6618 3.33816 15.9999 4L16.707 3.29297C17.097 3.6834 17.097 4.31659 16.707 4.70703L13.8505 7.5625L15.8886 8.24219C17.6692 8.83589 19.0644 10.2288 19.6679 12H17.4902C17.0093 11.1302 16.2169 10.4601 15.2558 10.1396L11.999 9.05273L8.7431 10.1396C7.52416 10.5462 6.57403 11.5139 6.19037 12.7402L5.13763 16.1045C4.53362 18.0361 5.97709 19.9996 8.00091 20H14.9999V22H8.00091C4.62753 21.9996 2.22145 18.7265 3.22845 15.5068L4.28119 12.1436C4.85668 10.3039 6.28169 8.85193 8.11029 8.24219L10.1484 7.5625L7.29291 4.70703C7.1055 4.51952 6.99994 4.26511 6.99994 4C6.99994 3.73488 7.1055 3.48049 7.29291 3.29297L7.99994 4L7.29388 3.29199L7.30658 3.2793C7.31263 3.27341 7.32108 3.2653 7.33002 3.25684C7.34826 3.23956 7.37331 3.21622 7.40326 3.18945C7.46399 3.13521 7.54955 3.06275 7.65716 2.97852C7.87314 2.80952 8.18523 2.58956 8.58392 2.37207C9.3817 1.93705 10.5461 1.50008 11.9999 1.5ZM11.9999 3.5C10.955 3.50008 10.118 3.81232 9.54095 4.12695L11.9999 6.58594L14.4579 4.12695C13.881 3.81245 13.0444 3.50013 11.9999 3.5Z" fill="#000000"/>
<path d="M19.0038 14C19.6941 14.0001 20.2538 14.5597 20.2538 15.25C20.2538 15.9403 19.6941 16.4999 19.0038 16.5C18.3135 16.4999 17.7538 15.9403 17.7538 15.25C17.7538 14.5597 18.3135 14.0001 19.0038 14Z" fill="#000000"/>
</svg>
