<svg xmlns="http://www.w3.org/2000/svg" width="20" height="20" viewBox="0 0 20 20" fill="none"><rect width="20" height="20" fill="none"/>
<path d="M6.75 3.5H5C4.17157 3.5 3.5 4.17157 3.5 5V15C3.5 15.8284 4.17157 16.5 5 16.5H6.75V18H5C3.34315 18 2 16.6569 2 15V5C2 3.34315 3.34315 2 5 2H6.75V3.5Z" fill="#000000"/>
<path d="M15 2C16.6569 2 18 3.34315 18 5V15C18 16.6569 16.6569 18 15 18H13.25V16.5H15C15.8284 16.5 16.5 15.8284 16.5 15V5C16.5 4.17157 15.8284 3.5 15 3.5H13.25V2H15Z" fill="#000000"/>
<path d="M13.5303 7.53125L7.53027 13.5312L6.46973 12.4707L12.4697 6.4707L13.5303 7.53125Z" fill="#000000"/>
<path d="M12.25 11.001C12.9404 11.001 13.5 11.5606 13.5 12.251C13.5 12.9413 12.9404 13.501 12.25 13.501C11.5596 13.501 11 12.9413 11 12.251C11 11.5606 11.5596 11.001 12.25 11.001Z" fill="#000000"/>
<path d="M7.75 6.50098C8.44036 6.50098 9 7.06062 9 7.75098C9 8.44133 8.44036 9.00098 7.75 9.00098C7.05964 9.00098 6.5 8.44133 6.5 7.75098C6.5 7.06062 7.05964 6.50098 7.75 6.50098Z" fill="#000000"/>
</svg>
