<svg xmlns="http://www.w3.org/2000/svg" width="24" height="24" viewBox="0 0 24 24" fill="none"><rect width="24" height="24" fill="none"/>
<path d="M15 19.4189L18.1699 16.2868C19.4558 15.0129 19.9853 14.2337 19.9853 13.3195C19.9853 12.5102 19.5108 11.8883 18.5206 11.8883C17.5992 11.8883 17.001 12.5177 16.9185 13.4843H15C15 11.3862 16.4234 10 18.5069 10C20.611 10 22 11.3713 22 13.252C22 14.7207 21.1473 15.8522 19.442 17.4932L17.8743 18.9993V19.0518H21.9587V21H15V19.4189Z" fill="#000000"/>
<path d="M2 3H4V21H2V3Z" fill="#000000"/>
<path d="M11 3H13V21H11V3Z" fill="#000000"/>
<path d="M12 11V13H3L3 11L12 11Z" fill="#000000"/>
</svg>
