<svg xmlns="http://www.w3.org/2000/svg" width="20" height="20" viewBox="0 0 20 20" fill="none"><rect width="20" height="20" fill="none"/>
<path d="M3.75 14C3.75 15.2426 4.75736 16.25 6 16.25H8V17.75H6C3.92893 17.75 2.25 16.0711 2.25 14V12H3.75V14Z" fill="#000000"/>
<path d="M17.75 14C17.75 16.0711 16.0711 17.75 14 17.75H12V16.25H14C15.2426 16.25 16.25 15.2426 16.25 14V12H17.75V14Z" fill="#000000"/>
<path d="M8 3.75H6C4.75736 3.75 3.75 4.75736 3.75 6V8H2.25V6C2.25 3.92893 3.92893 2.25 6 2.25H8V3.75Z" fill="#000000"/>
<path d="M14 2.25C16.0711 2.25 17.75 3.92893 17.75 6V8H16.25V6C16.25 4.75736 15.2426 3.75 14 3.75H12V2.25H14Z" fill="#000000"/>
</svg>
