<svg xmlns="http://www.w3.org/2000/svg" width="20" height="20" viewBox="0 0 20 20" fill="none"><rect width="20" height="20" fill="none"/>
<path d="M16 10C17.5188 10 18.75 11.2312 18.75 12.75V14.0732C19.4728 14.2884 20 14.9573 20 15.75V18.25C20 19.2165 19.2165 20 18.25 20H13.75C12.7835 20 12 19.2165 12 18.25V15.75C12 14.9573 12.5272 14.2884 13.25 14.0732V12.75C13.25 11.2312 14.4812 10 16 10ZM13.75 15.5C13.6119 15.5 13.5 15.6119 13.5 15.75V18.25C13.5 18.3881 13.6119 18.5 13.75 18.5H18.25C18.3881 18.5 18.5 18.3881 18.5 18.25V15.75C18.5 15.6119 18.3881 15.5 18.25 15.5H13.75ZM16 11.5C15.3096 11.5 14.75 12.0596 14.75 12.75V14H17.25V12.75C17.25 12.0596 16.6904 11.5 16 11.5Z" fill="#000000"/>
<path d="M15.2998 1.9502C16.8186 1.9502 18.0498 3.18141 18.0498 4.7002V9H16.5498V4.7002C16.5498 4.00984 15.9902 3.4502 15.2998 3.4502H4.7002C4.00984 3.4502 3.4502 4.00984 3.4502 4.7002V15.2998C3.4502 15.9902 4.00984 16.5498 4.7002 16.5498H10V18.0498H4.7002C3.18141 18.0498 1.9502 16.8186 1.9502 15.2998V4.7002C1.9502 3.18141 3.18141 1.9502 4.7002 1.9502H15.2998Z" fill="#000000"/>
<path d="M11 14.4502H5V12.9502H11V14.4502Z" fill="#000000"/>
<path d="M14.9941 6.56445L10.5361 10.4648L8.52441 8.95508L5.98047 11.0762L5.01953 9.92383L8.47559 7.04395L10.4629 8.53516L14.0059 5.43555L14.9941 6.56445Z" fill="#000000"/>
</svg>
