<svg xmlns="http://www.w3.org/2000/svg" width="20" height="20" viewBox="0 0 20 20" fill="none"><rect width="20" height="20" fill="none"/>
<path d="M15 10.25C17.6234 10.25 19.75 12.3766 19.75 15C19.75 17.6234 17.6234 19.75 15 19.75C12.3766 19.75 10.25 17.6234 10.25 15C10.25 12.3766 12.3766 10.25 15 10.25ZM12.2334 13.2939C11.9269 13.7898 11.75 14.3742 11.75 15C11.75 16.7949 13.2051 18.25 15 18.25C15.6256 18.25 16.2092 18.072 16.7051 17.7656L12.2334 13.2939ZM15 11.75C14.3742 11.75 13.7898 11.9269 13.2939 12.2334L17.7656 16.7051C18.072 16.2092 18.25 15.6256 18.25 15C18.25 13.2051 16.7949 11.75 15 11.75Z" fill="#000000"/>
<path d="M8.7002 1.9502C10.2189 1.9503 11.4502 3.18148 11.4502 4.7002V5.9502H13.2998C14.5763 5.9502 15.6461 6.82083 15.9561 8H14.335C14.1102 7.66836 13.7306 7.4502 13.2998 7.4502H9.9502V4.7002C9.9502 4.00991 9.39046 3.4503 8.7002 3.4502H5.4502V16.5498H8V18.0498H3.9502V1.9502H8.7002Z" fill="#000000"/>
</svg>
