<svg xmlns="http://www.w3.org/2000/svg" width="20" height="20" viewBox="0 0 20 20" fill="none"><rect width="20" height="20" fill="none"/>
<path d="M8.81738 2.50721C10.8749 1.82152 12.9996 3.35318 13 5.52186V6.00038H11V5.52186C10.9996 4.7184 10.2126 4.15092 9.4502 4.40468C8.64813 4.67209 8.37992 5.67304 8.94141 6.30507L10.6279 8.20155L16.9785 11.5883C17.9151 12.0879 18.4998 13.0639 18.5 14.1254C18.4998 15.7131 17.2127 17.0004 15.625 17.0004H4.375C2.78728 17.0004 1.50015 15.7131 1.5 14.1254C1.50017 13.0638 2.0858 12.0879 3.02246 11.5883L8.4082 8.71425L7.44727 7.63319C5.93186 5.92801 6.65317 3.22868 8.81738 2.50721ZM3.96289 13.3529C3.67802 13.5049 3.50017 13.8025 3.5 14.1254C3.50015 14.6085 3.89185 15.0004 4.375 15.0004H15.625C16.1082 15.0004 16.4998 14.6085 16.5 14.1254C16.4998 13.8025 16.322 13.5049 16.0371 13.3529L10 10.1332L3.96289 13.3529Z" fill="#000000"/>
</svg>
