<svg xmlns="http://www.w3.org/2000/svg" width="20" height="20" viewBox="0 0 20 20" fill="none"><rect width="20" height="20" fill="none"/>
<path d="M11.0156 6.1582C11.2998 6.24492 11.5811 6.36706 11.8379 6.52832C12.419 6.89345 13 7.54546 13 8.5H11C11 8.4547 10.9888 8.35647 10.7744 8.22168C10.548 8.0795 10.2346 8.00008 10 8C9.64864 8.00006 9.35382 8.09103 9.17969 8.20703C9.03536 8.30332 9 8.38797 9 8.5C9 8.53998 9.00494 8.56057 9.00684 8.56738C9.00821 8.57221 9.00977 8.5752 9.00977 8.5752C9.01194 8.57846 9.03644 8.61299 9.12891 8.66699C9.35541 8.79904 9.70096 8.89496 10.2422 9.03027C10.7003 9.1448 11.3557 9.2994 11.8789 9.60449C12.1591 9.76797 12.4487 9.99945 12.666 10.333C12.8896 10.6765 13 11.0727 13 11.5C13 12.3599 12.5135 13.0104 11.9482 13.4062C11.6699 13.6011 11.3547 13.7481 11.0244 13.8477V15H9.02441V13.8535C8.72673 13.7663 8.43082 13.6404 8.16211 13.4717C7.58107 13.1066 6.99991 12.4545 7 11.5H9C8.99999 11.5452 9.01127 11.6436 9.22559 11.7783C9.452 11.9205 9.76539 11.9999 10 12C10.3144 11.9999 10.6105 11.9024 10.8018 11.7686C10.9861 11.6394 11 11.5399 11 11.5C11 11.46 10.9951 11.4394 10.9932 11.4326C10.9918 11.4278 10.9902 11.4248 10.9902 11.4248C10.9881 11.4215 10.9636 11.387 10.8711 11.333C10.6446 11.201 10.299 11.105 9.75781 10.9697C9.29969 10.8552 8.64433 10.7006 8.12109 10.3955C7.8409 10.232 7.55128 10.0006 7.33398 9.66699C7.11036 9.3235 7 8.92731 7 8.5C7 7.61221 7.46495 6.94664 8.07031 6.54297C8.36001 6.34988 8.68312 6.21365 9.01465 6.12598L9 5.0127L11 4.98633L11.0156 6.1582Z" fill="#000000"/>
<path d="M15 2C16.6569 2 18 3.34315 18 5V15C18 16.6569 16.6569 18 15 18H5C3.34315 18 2 16.6569 2 15V5C2 3.34315 3.34315 2 5 2H15ZM5 4C4.44772 4 4 4.44772 4 5V15C4 15.5523 4.44772 16 5 16H15C15.5523 16 16 15.5523 16 15V5C16 4.44772 15.5523 4 15 4H5Z" fill="#000000"/>
</svg>
