<svg xmlns="http://www.w3.org/2000/svg" width="20" height="20" viewBox="0 0 20 20" fill="none"><rect width="20" height="20" fill="none"/>
<path d="M15.7497 2C15.9636 2 16.1679 2.09122 16.3102 2.25098C16.4525 2.41085 16.5196 2.62435 16.4948 2.83691L14.9606 15.9922C14.8804 16.6784 14.3962 17.2502 13.7331 17.4434C11.295 18.1536 8.70338 18.1539 6.2653 17.4434C5.60247 17.2499 5.11988 16.678 5.03971 15.9922L3.50456 2.83691C3.47979 2.62446 3.54701 2.41081 3.68913 2.25098C3.83136 2.09121 4.03578 2.00011 4.24967 2H15.7497ZM5.59928 7.84961C6.71274 7.36437 7.65546 7.18447 8.50358 7.22754C9.48515 7.27756 10.2341 7.62408 10.8219 7.91797C11.445 8.22953 11.8144 8.4323 12.2653 8.50391C12.6586 8.56622 13.1983 8.53235 14.0524 8.10547L14.3893 7.93652L14.9069 3.5H5.09245L5.59928 7.84961Z" fill="#000000"/>
</svg>
