<svg xmlns="http://www.w3.org/2000/svg" width="24" height="24" viewBox="0 0 24 24" fill="none"><rect width="24" height="24" fill="none"/>
<path d="M17.3877 5.07715V10.0889L21.7734 12.5957V18.7686L16.3877 21.8457L12.002 19.3398L7.61621 21.8457L2.23047 18.7686V12.5957L6.61621 10.0889V5.07715L12.002 2L17.3877 5.07715ZM4.23047 13.7559V17.6074L7.61621 19.542L11.002 17.6074V13.7559L7.61621 11.8213L4.23047 13.7559ZM13.002 13.7559V17.6074L16.3877 19.542L19.7734 17.6074V13.7559L16.3877 11.8213L13.002 13.7559ZM8.61621 6.2373V10.0889L12.002 12.0234L15.3877 10.0889V6.2373L12.002 4.30273L8.61621 6.2373Z" fill="#000000"/>
</svg>
