<svg xmlns="http://www.w3.org/2000/svg" width="20" height="20" viewBox="0 0 20 20" fill="none"><rect width="20" height="20" fill="none"/>
<path d="M6.65127 5.24121C7.08398 5.61271 7.56574 6.33236 7.90225 6.9668C8.08012 7.30217 8.24497 7.66535 8.35733 8.01074C8.45469 8.31009 8.57273 8.76752 8.47842 9.20898C8.37473 9.69415 8.05813 10.094 7.87588 10.3145C7.80655 10.3983 7.7321 10.4824 7.6669 10.5566C7.6939 10.6183 7.72881 10.6913 7.77627 10.7734C7.92675 11.0336 8.15119 11.3206 8.41885 11.5898C8.68636 11.8589 8.97396 12.0861 9.23624 12.2412C9.31059 12.2852 9.37795 12.3194 9.43643 12.3467C9.50787 12.2813 9.58678 12.2096 9.66788 12.1406C9.89621 11.9466 10.2971 11.6269 10.7919 11.5215C11.232 11.4279 11.6888 11.5444 11.9892 11.6416C12.3348 11.7535 12.6985 11.918 13.0341 12.0957C13.6682 12.4315 14.3901 12.914 14.7626 13.3525L14.9999 13.6328V14.3984C14.9997 16.3154 13.5445 18.2587 11.33 18.0938C6.07078 17.7013 2.29949 13.9291 1.90713 8.66992C1.74219 6.45541 3.68544 5.00009 5.60245 5H6.371L6.65127 5.24121ZM5.5585 7.00098C4.51493 7.02145 3.84522 7.76921 3.90127 8.52148C4.21997 12.7934 7.20662 15.7807 11.4784 16.0996C12.2319 16.1556 12.98 15.4831 12.998 14.4365C12.7879 14.2738 12.4711 14.0606 12.0985 13.8633C11.8295 13.7208 11.5762 13.6094 11.3739 13.5439C11.2848 13.5151 11.2239 13.5019 11.1884 13.4951C11.1861 13.4965 11.1831 13.4984 11.1806 13.5C11.1258 13.5338 11.054 13.5865 10.9628 13.6641C10.871 13.7421 10.7807 13.8271 10.6737 13.9258C10.5762 14.0157 10.4529 14.1281 10.3319 14.2246C10.1481 14.3712 9.91759 14.4483 9.68252 14.4424C9.14671 14.4284 8.63275 14.2076 8.21866 13.9629C7.78631 13.7073 7.36612 13.3684 6.99991 13C6.63391 12.6318 6.29665 12.2098 6.04483 11.7744C5.80376 11.3575 5.5879 10.8362 5.5878 10.292C5.58779 10.0821 5.6536 9.87729 5.77627 9.70703C5.87149 9.57506 5.98375 9.44498 6.07315 9.34277C6.17307 9.22855 6.25471 9.13699 6.33487 9.04004C6.41295 8.94557 6.4672 8.8729 6.50186 8.81641L6.50381 8.81152C6.49684 8.77594 6.48429 8.71601 6.45596 8.62891C6.39012 8.42657 6.27865 8.17294 6.13565 7.90332C5.93759 7.52997 5.72188 7.21251 5.5585 7.00098Z" fill="#000000"/>
<path d="M14.9091 0C17.9882 3.06838e-05 19.9999 2.32192 19.9999 5C19.9999 6.80632 19.3457 8.41056 18.4179 9.57129C17.5158 10.6998 16.234 11.5459 14.9091 11.5459C14.3571 11.5458 13.9094 11.0979 13.9091 10.5459V9.11035C11.6901 8.72598 9.81849 7.07264 9.81827 4.58887C9.81827 3.25112 10.3205 2.07126 11.2636 1.2373C12.195 0.413746 13.4719 3.46018e-05 14.9091 0ZM14.9091 2C13.8464 2.00003 13.0777 2.304 12.5888 2.73633C12.1116 3.15834 11.8183 3.77362 11.8183 4.58887C11.8185 6.04422 13.0729 7.19719 14.9091 7.19727H15.9091V9.19434C16.2184 8.99646 16.5449 8.71061 16.8554 8.32227C17.5184 7.49285 17.9999 6.32359 17.9999 5C17.9999 3.37197 16.8299 2.00003 14.9091 2Z" fill="#000000"/>
</svg>
