<svg xmlns="http://www.w3.org/2000/svg" width="20" height="20" viewBox="0 0 20 20" fill="none"><rect width="20" height="20" fill="none"/>
<path d="M10 5C11.6569 5 13 6.34315 13 8C13 9.65685 11.6569 11 10 11C8.34315 11 7 9.65685 7 8C7 6.34315 8.34315 5 10 5ZM10 7C9.44772 7 9 7.44772 9 8C9 8.55228 9.44772 9 10 9C10.5523 9 11 8.55228 11 8C11 7.44772 10.5523 7 10 7Z" fill="#000000"/>
<path d="M14 2C16.2091 2 18 3.79086 18 6V14C18 16.2091 16.2091 18 14 18H6C3.79086 18 2 16.2091 2 14V6C2 3.79086 3.79086 2 6 2H14ZM10 14C9.27874 14 8.48694 14.1795 7.90918 14.5625C7.44927 14.8675 7.1031 15.3089 7.01953 16H13C13 15.4407 12.6979 14.9703 12.1064 14.5938C11.4988 14.2071 10.689 14 10 14ZM6 4C4.89543 4 4 4.89543 4 6V14C4 14.7542 4.41776 15.4102 5.03418 15.751C5.1945 14.4438 5.89348 13.4995 6.80469 12.8955C7.79833 12.2369 9.00702 12 10 12C11.0253 12 12.2159 12.293 13.1797 12.9062C14.0983 13.4908 14.8945 14.4326 14.9902 15.7354C15.5928 15.3908 16 14.7438 16 14V6C16 4.89543 15.1046 4 14 4H6Z" fill="#000000"/>
</svg>
