<svg xmlns="http://www.w3.org/2000/svg" width="20" height="20" viewBox="0 0 20 20" fill="none"><rect width="20" height="20" fill="none"/>
<path d="M15 6C16.6569 6 18 7.34315 18 9V14.5C18 16.1569 16.6569 17.5 15 17.5H5L4.8457 17.4961C3.26055 17.4158 2 16.1051 2 14.5V9C2 7.34315 3.34315 6 5 6H15ZM5 7.5C4.17157 7.5 3.5 8.17157 3.5 9V14.5C3.5 15.3284 4.17157 16 5 16H15C15.8284 16 16.5 15.3284 16.5 14.5V9C16.5 8.17157 15.8284 7.5 15 7.5H5Z" fill="#000000"/>
<path d="M13.75 2.5C14.8182 2.5 15.7419 3.11022 16.1973 4H3.80273C4.25812 3.11022 5.1818 2.5 6.25 2.5H13.75Z" fill="#000000"/>
</svg>
