<svg xmlns="http://www.w3.org/2000/svg" width="20" height="20" viewBox="0 0 20 20" fill="none"><rect width="20" height="20" fill="none"/>
<path d="M6.12207 5.42578C4.82489 6.52852 4.0003 8.16952 4 10.001C4 11.8325 4.82501 13.4733 6.12207 14.5762V16.998C3.66645 15.6289 2 13.0106 2 10.001C2.00037 6.99161 3.66644 4.37284 6.12207 3.00391V5.42578Z" fill="#000000"/>
<path d="M13.9268 3.00391C16.3824 4.37296 18.0488 6.99139 18.0488 10.001C18.0486 13.0105 16.3825 15.629 13.9268 16.998V14.5762C15.224 13.4733 16.0487 11.8326 16.0488 10.001C16.0488 8.16937 15.2239 6.52863 13.9268 5.42578V3.00391Z" fill="#000000"/>
<path d="M11.0098 5.22754C11.4422 5.33542 11.8625 5.51777 12.2295 5.78906C12.9023 6.28668 13.3661 7.0626 13.3662 8.05371H11.3662C11.3661 7.74732 11.2446 7.54887 11.04 7.39746C10.8064 7.22478 10.4415 7.1066 10.0254 7.10645C9.60903 7.10645 9.24359 7.22475 9.00977 7.39746C8.80505 7.5489 8.68368 7.7472 8.68359 8.05371C8.68365 8.24576 8.7235 8.3441 8.75293 8.39551C8.78391 8.44936 8.83902 8.51318 8.95312 8.58594C9.22708 8.76045 9.63715 8.87394 10.2676 9.03125C10.8074 9.16594 11.5691 9.34549 12.1729 9.73047C12.4969 9.93726 12.8082 10.2205 13.0332 10.6133C13.2597 11.009 13.3662 11.4602 13.3662 11.9492C13.366 12.8979 12.8826 13.6576 12.248 14.1504C11.8886 14.4294 11.468 14.6311 11.0254 14.7549V16.001H9.02539V14.7695C8.59861 14.6612 8.18375 14.4816 7.82129 14.2139C7.14834 13.7163 6.68383 12.9404 6.68359 11.9492H8.68359C8.68379 12.2556 8.805 12.4541 9.00977 12.6055C9.2436 12.7781 9.60911 12.8965 10.0254 12.8965C10.4009 12.8963 10.7678 12.768 11.0215 12.5713C11.264 12.3829 11.366 12.1681 11.3662 11.9492C11.3662 11.7577 11.3273 11.659 11.2979 11.6074C11.267 11.5535 11.2109 11.4899 11.0967 11.417C10.8228 11.2424 10.4134 11.1289 9.7832 10.9717C9.24349 10.837 8.48191 10.6574 7.87793 10.2725C7.5536 10.0656 7.24177 9.78175 7.0166 9.38867C6.79022 8.99304 6.68366 8.54263 6.68359 8.05371C6.68369 7.06244 7.14835 6.28667 7.82129 5.78906C8.1797 5.52425 8.58903 5.34416 9.01074 5.23535L9.00098 4.00879L11 3.99219L11.0098 5.22754Z" fill="#000000"/>
</svg>
