<svg xmlns="http://www.w3.org/2000/svg" width="24" height="24" viewBox="0 0 24 24" fill="none"><rect width="24" height="24" fill="none"/>
<path d="M22.7071 15.707L19.9141 18.5L22.7071 21.293L21.293 22.707L18.5 19.9141L15.7071 22.707L14.293 21.293L17.086 18.5L14.293 15.707L15.7071 14.293L18.5 17.0859L21.293 14.293L22.7071 15.707Z" fill="#000000"/>
<path d="M18.7207 8H20.5C20.8055 8.00014 21.0946 8.14036 21.2842 8.37988C21.4736 8.61952 21.5439 8.93319 21.4737 9.23047L20.8194 12H18.7627L19.2354 10H4.25296L6.12113 18.2217C6.22462 18.6768 6.62995 18.9999 7.09671 19H12V21H7.09671C5.69614 20.9999 4.48138 20.0308 4.17093 18.665L2.02445 9.22168C1.95716 8.92522 2.02917 8.6136 2.21879 8.37598C2.40849 8.13869 2.69622 8.00008 3.00004 8H5.27933L7.05179 2.68359L8.94828 3.31641L7.38675 8H16.6133L15.0518 3.31641L16.9483 2.68359L18.7207 8Z" fill="#000000"/>
<path d="M14.001 14H9.00004V12H14.001V14Z" fill="#000000"/>
</svg>
