<svg xmlns="http://www.w3.org/2000/svg" width="20" height="20" viewBox="0 0 20 20" fill="none"><rect width="20" height="20" fill="none"/>
<path d="M15.5957 10.5C16.0473 10.5 16.3527 10.6388 16.5713 10.875C16.7843 11.1052 16.9063 11.4195 17.0146 11.749L19.3008 18.7002H17.4297L16.9248 17.0791H14.0674L13.5234 18.7002H11.75L14.1504 11.748C14.2647 11.4169 14.3938 11.1026 14.6123 10.873C14.836 10.6381 15.1443 10.5 15.5957 10.5ZM14.5879 15.5098H16.4287L15.5342 12.6426L14.5879 15.5098Z" fill="#000000"/>
<path d="M7.20508 3.00488C8.3173 3.06116 9.3092 3.57236 10 4.35547C10.733 3.52463 11.805 3 13 3H18V9H16V5H13C11.8954 5 11 5.89543 11 7V17H8.81543C8.4989 16.313 7.80593 15.8351 7 15.835H2V3H7L7.20508 3.00488ZM4 13.835H7C7.72882 13.835 8.41155 14.0315 9 14.3721V7C9 5.96449 8.21258 5.11319 7.2041 5.01074L7 5H4V13.835Z" fill="#000000"/>
</svg>
