<svg xmlns="http://www.w3.org/2000/svg" width="24" height="24" viewBox="0 0 24 24" fill="none"><rect width="24" height="24" fill="none"/>
<path d="M13.333 6H19C20.6569 6 22 7.34315 22 9V17C22 18.6569 20.6569 20 19 20H17V18H19C19.5523 18 20 17.5523 20 17V9C20 8.44772 19.5523 8 19 8H12.667L8.66699 5H5C4.44776 5.00005 4 5.44775 4 6V17L4.00488 17.1025C4.05621 17.6066 4.48236 18 5 18H9.5V16.5C9.5 16.3182 9.59884 16.1506 9.75781 16.0625C9.91669 15.9746 10.1106 15.98 10.2646 16.0762L14.2646 18.5762C14.4108 18.6675 14.5 18.8276 14.5 19C14.5 19.1724 14.4108 19.3325 14.2646 19.4238L10.2646 21.9238C10.1106 22.02 9.91669 22.0254 9.75781 21.9375C9.59883 21.8494 9.5 21.6818 9.5 21.5V20H5C3.39494 20 2.08421 18.7394 2.00391 17.1543L2 17V6C2 4.34318 3.34319 3.00005 5 3H9.33301L13.333 6Z" fill="#000000"/>
</svg>
