<svg xmlns="http://www.w3.org/2000/svg" width="24" height="24" viewBox="0 0 24 24" fill="none"><rect width="24" height="24" fill="none"/>
<path d="M13 5C14.9609 5 16.5908 6.41132 16.9326 8.27344L20.4854 6.14258C20.7943 5.95722 21.1797 5.95238 21.4932 6.12988C21.8064 6.30744 22 6.63988 22 7V18C22 18.3601 21.8064 18.6926 21.4932 18.8701C21.1797 19.0476 20.7943 19.0428 20.4854 18.8574L16.9326 16.7256C16.5912 18.5882 14.9613 20 13 20H6C3.79086 20 2 18.2091 2 16V9C2 6.79086 3.79086 5 6 5H13ZM6 7C4.89543 7 4 7.89543 4 9V16C4 17.1046 4.89543 18 6 18H13C14.1046 18 15 17.1046 15 16V9C15 7.89543 14.1046 7 13 7H6ZM17 10.5654V14.4336L20 16.2334V8.76562L17 10.5654Z" fill="#000000"/>
</svg>
