<svg xmlns="http://www.w3.org/2000/svg" width="20" height="20" viewBox="0 0 20 20" fill="none"><rect width="20" height="20" fill="none"/>
<path d="M10.5 6.25C12.0188 6.25 13.25 7.48122 13.25 9C13.25 10.5188 12.0188 11.75 10.5 11.75H8.75V14H7.25V6.25H10.5ZM8.75 10.25H10.5C11.1904 10.25 11.75 9.69036 11.75 9C11.75 8.30964 11.1904 7.75 10.5 7.75H8.75V10.25Z" fill="#000000"/>
<path d="M14.6543 2.50391C16.1883 2.58163 17.4184 3.81166 17.4961 5.3457L17.5 5.5V14.5C17.5 16.1569 16.1569 17.5 14.5 17.5H5.5C3.84315 17.5 2.5 16.1569 2.5 14.5V5.5C2.5 3.8949 3.76056 2.58421 5.3457 2.50391L5.5 2.5H14.5L14.6543 2.50391ZM5.5 4C4.67157 4 4 4.67157 4 5.5V14.5C4 15.3284 4.67157 16 5.5 16H14.5C15.3284 16 16 15.3284 16 14.5V5.5C16 4.67157 15.3284 4 14.5 4H5.5Z" fill="#000000"/>
</svg>
