<svg xmlns="http://www.w3.org/2000/svg" width="20" height="20" viewBox="0 0 20 20" fill="none"><rect width="20" height="20" fill="none"/>
<path d="M12.0003 18.45H4.00032V16.95H12.0003V18.45Z" fill="#000000"/>
<path d="M10.5169 1.25959C10.7547 1.22123 10.997 1.29925 11.1673 1.46955L15.5306 5.83284C15.7007 6.0032 15.779 6.24555 15.7406 6.48323C15.7019 6.721 15.5507 6.92622 15.3353 7.03401L14.3548 7.52424L11.97 9.90901L17.5306 15.4696L16.47 16.5301L10.9095 10.9696L8.52571 13.3533L8.0345 14.3348C7.92671 14.5502 7.72149 14.7014 7.48372 14.7401C7.24604 14.7785 7.00369 14.7002 6.83333 14.5301L2.47004 10.1668C2.29973 9.99651 2.22172 9.75418 2.26008 9.51643C2.2987 9.27846 2.44973 9.07346 2.66536 8.96565L3.6468 8.47444L9.4759 2.64534L9.96614 1.66487C10.074 1.44924 10.2789 1.29821 10.5169 1.25959ZM10.762 3.42659C10.726 3.49849 10.6783 3.56406 10.6214 3.62092L4.62141 9.62092C4.56455 9.67779 4.49897 9.72553 4.42708 9.76155L4.26692 9.84163L7.15852 12.7332L7.2386 12.5731C7.25656 12.5372 7.27772 12.503 7.3011 12.4705L7.37922 12.3787L13.3792 6.37873C13.4077 6.35022 13.4384 6.32411 13.471 6.30061L13.5736 6.23811L13.7347 6.15705L10.8431 3.26545L10.762 3.42659Z" fill="#000000"/>
</svg>
