<svg xmlns="http://www.w3.org/2000/svg" width="24" height="24" viewBox="0 0 24 24" fill="none"><rect width="24" height="24" fill="none"/>
<path d="M20 14C21.6569 14 23 15.3431 23 17C23 18.6569 21.6569 20 20 20H19V21H21V22H19V23H17V22H16V21H17V20H16V18H17V14H20ZM19 18H20C20.5523 18 21 17.5523 21 17C21 16.4477 20.5523 16 20 16H19V18Z" fill="#000000"/>
<path d="M18 3C19.1046 3.00003 20 3.89545 20 5V12H18V5H6.00001V12H15V14H5.70411L3.91896 19H14V21H3.91896C2.53593 21 1.57001 19.6296 2.03517 18.3271L4.00001 12.8271V5C4.00001 3.89544 4.89545 3.00001 6.00001 3H18Z" fill="#000000"/>
<path d="M14 18H9.00001L9.50099 16H14V18Z" fill="#000000"/>
</svg>
