<svg xmlns="http://www.w3.org/2000/svg" width="20" height="20" viewBox="0 0 20 20" fill="none"><rect width="20" height="20" fill="none"/>
<path d="M10.2158 3.03125L15.2158 4.53125L15.2148 4.53223C15.3917 4.58517 15.546 4.70167 15.6436 4.86426L18 8.79199V9.75C18 11.4069 16.6569 12.75 15 12.75C13.3431 12.75 12 11.4069 12 9.75V8.79199L13.8594 5.69141L10.75 4.75781V15.5H14V17H6V15.5H9.25V4.75781L6.13965 5.69141L8 8.79199V9.75C8 11.4069 6.65685 12.75 5 12.75C3.34315 12.75 2 11.4069 2 9.75V8.79199L4.35645 4.86426C4.45384 4.70194 4.60766 4.5853 4.78418 4.53223L9.78418 3.03125L10 2.9668L10.2158 3.03125ZM3.5 9.20801V9.75C3.5 10.5784 4.17157 11.25 5 11.25C5.82843 11.25 6.5 10.5784 6.5 9.75V9.20801L5 6.70801L3.5 9.20801ZM13.5 9.20801V9.75C13.5 10.5784 14.1716 11.25 15 11.25C15.8284 11.25 16.5 10.5784 16.5 9.75V9.20801L15 6.70801L13.5 9.20801Z" fill="#000000"/>
</svg>
