<svg xmlns="http://www.w3.org/2000/svg" width="20" height="20" viewBox="0 0 20 20" fill="none"><rect width="20" height="20" fill="none"/>
<path d="M10.8199 2.91895C12.0174 4.5954 13.1752 5.62702 14.234 6.75195C15.2806 7.86396 16.1929 9.04288 16.4918 10.8359C17.1012 14.4933 14.0739 18 10.0054 18C5.93745 17.9997 2.90961 14.4932 3.51912 10.8359C3.81796 9.04292 4.73135 7.86393 5.77791 6.75195C6.83669 5.62703 7.99446 4.5954 9.19197 2.91895L10.0054 1.7793L10.8199 2.91895ZM10.0054 5.13867C8.97515 6.39815 7.97989 7.3305 7.23396 8.12305C6.28075 9.13586 5.69296 9.95738 5.49178 11.1641C5.10125 13.5063 7.07383 15.9997 10.0054 16C12.9373 16 14.9095 13.5066 14.5191 11.1641C14.3179 9.95748 13.731 9.13579 12.7779 8.12305C12.0319 7.33044 11.0358 6.39829 10.0054 5.13867Z" fill="#000000"/>
</svg>
