<svg xmlns="http://www.w3.org/2000/svg" width="20" height="20" viewBox="0 0 20 20" fill="none"><rect width="20" height="20" fill="none"/>
<path d="M10.001 8.00026C11.1052 8.00053 12.0008 8.89597 12.001 10.0003C12.0007 11.1045 11.1052 12 10.001 12.0003C8.89656 12.0003 8.00123 11.1046 8.00098 10.0003C8.00111 8.89581 8.89649 8.00026 10.001 8.00026Z" fill="#000000"/>
<path d="M9.70312 4.54616C11.731 3.91241 13.9592 3.20942 17.2432 4.03054L18.001 4.21999V15.2815L16.7588 14.971C14.0436 14.292 12.2705 14.8382 10.2988 15.4544C8.27109 16.088 6.04257 16.7914 2.75879 15.971L2.00098 15.7815V4.71999L3.24316 5.03054C5.95826 5.70921 7.73138 5.16238 9.70312 4.54616ZM14.1631 5.66237C12.7545 5.69236 11.5681 6.0577 10.2988 6.45436C8.53754 7.00481 6.62503 7.60601 4.00098 7.21706V12.5003L5.83691 14.3362C7.24602 14.3063 8.4334 13.942 9.70312 13.5452C11.4644 12.9948 13.3771 12.3933 16.001 12.7825V7.50026L14.1631 5.66237Z" fill="#000000"/>
</svg>
