<svg xmlns="http://www.w3.org/2000/svg" width="20" height="20" viewBox="0 0 20 20" fill="none"><rect width="20" height="20" fill="none"/>
<path d="M15.5 12.0498C17.4052 12.0499 18.9501 13.5948 18.9502 15.5C18.9501 17.4052 17.4052 18.9501 15.5 18.9502C13.5947 18.9502 12.0499 17.4053 12.0498 15.5C12.0499 13.5947 13.5947 12.0498 15.5 12.0498ZM15.5 13.5498C14.4231 13.5498 13.5499 14.4231 13.5498 15.5C13.5499 16.5769 14.4231 17.4502 15.5 17.4502C16.5768 17.4501 17.4501 16.5768 17.4502 15.5C17.4501 14.4232 16.5768 13.5499 15.5 13.5498Z" fill="#000000"/>
<path d="M10 11.75C10.3387 11.75 10.6727 11.7629 11 11.791V13.2988C10.683 13.267 10.3495 13.25 10 13.25C8.34004 13.25 7.0393 13.6083 6.16406 14.3291C5.31575 15.0278 4.75 16.165 4.75 18H3.25C3.25 15.8352 3.93436 14.2222 5.21094 13.1709C6.46068 12.1418 8.16006 11.75 10 11.75Z" fill="#000000"/>
<path d="M10 2C12.2091 2 14 3.79086 14 6C14 8.20914 12.2091 10 10 10C7.79086 10 6 8.20914 6 6C6 3.79086 7.79086 2 10 2ZM10 3.5C8.61929 3.5 7.5 4.61929 7.5 6C7.5 7.38071 8.61929 8.5 10 8.5C11.3807 8.5 12.5 7.38071 12.5 6C12.5 4.61929 11.3807 3.5 10 3.5Z" fill="#000000"/>
</svg>
