<svg xmlns="http://www.w3.org/2000/svg" width="20" height="20" viewBox="0 0 20 20" fill="none"><rect width="20" height="20" fill="none"/>
<path d="M15.2637 13.0596C15.4263 12.9726 15.6239 12.9817 15.7773 13.084L18.7773 15.084C18.9164 15.1767 19 15.3329 19 15.5C18.9999 15.6671 18.9164 15.8233 18.7773 15.916L15.7773 17.916C15.624 18.0182 15.4262 18.0274 15.2637 17.9404C15.1014 17.8534 15.0001 17.6841 15 17.5V16.25C13.7574 16.25 12.75 17.2574 12.75 18.5V19H11.25V18.5C11.25 16.4289 12.9289 14.75 15 14.75V13.5C15 13.3158 15.1014 13.1467 15.2637 13.0596Z" fill="#000000"/>
<path d="M14.5 2.5C16.1567 2.50013 17.5 3.84323 17.5 5.5V11H16V5.5C16 4.67165 15.3283 4.00013 14.5 4H5.5C4.67157 4 4 4.67157 4 5.5V14.5C4 15.3284 4.67157 16 5.5 16H9V17.5H5.5C3.84315 17.5 2.5 16.1569 2.5 14.5V5.5C2.5 3.84315 3.84315 2.5 5.5 2.5H14.5Z" fill="#000000"/>
</svg>
