<svg xmlns="http://www.w3.org/2000/svg" width="24" height="24" viewBox="0 0 24 24" fill="none"><rect width="24" height="24" fill="none"/>
<path d="M15 6C16.6569 6 18 7.34315 18 9C18 10.6569 16.6569 12 15 12C13.3431 12 12 10.6569 12 9C12 7.34315 13.3431 6 15 6ZM15 8C14.4477 8 14 8.44772 14 9C14 9.55228 14.4477 10 15 10C15.5523 10 16 9.55228 16 9C16 8.44772 15.5523 8 15 8Z" fill="#000000"/>
<path d="M17 3C19.2091 3 21 4.79086 21 7V17C21 19.2091 19.2091 21 17 21H7C4.79086 21 3 19.2091 3 17V7C3 4.79086 4.79086 3 7 3H17ZM8.29785 14.7119C7.89005 14.3048 7.22331 14.3259 6.8418 14.7578L5 16.8447V17C5 18.1046 5.89543 19 7 19H12.5859L8.29785 14.7119ZM7 5C5.89543 5 5 5.89543 5 7V13.8213L5.3418 13.4346C6.48669 12.1373 8.48932 12.0745 9.71289 13.2979L15.415 19H17C18.1046 19 19 18.1046 19 17V7C19 5.89543 18.1046 5 17 5H7Z" fill="#000000"/>
</svg>
