<svg xmlns="http://www.w3.org/2000/svg" width="20" height="20" viewBox="0 0 20 20" fill="none"><rect width="20" height="20" fill="none"/>
<path d="M10.4697 10.4711C10.6777 10.2632 10.9884 10.196 11.2637 10.2992L19.2637 13.2992C19.55 13.4068 19.7427 13.6779 19.75 13.9838C19.7569 14.2896 19.5771 14.5701 19.2959 14.6908L16.0713 16.0726L14.6895 19.2972C14.5686 19.5783 14.2884 19.7584 13.9824 19.7513C13.6766 19.7441 13.4056 19.5513 13.2979 19.265L10.2979 11.265C10.1948 10.9898 10.262 10.679 10.4697 10.4711ZM14.0459 16.9886L14.9297 14.93L16.9873 14.0472L12.2812 12.2826L14.0459 16.9886Z" fill="#000000"/>
<path d="M11.0127 2.90953C12.9709 2.18907 15.0485 3.63854 15.0488 5.72496V6.00035C16.683 6.02644 17.9997 7.35909 18 8.99938V9.00133H16.5V8.99938C16.4997 8.1712 15.8282 7.49938 15 7.49938H5C4.17176 7.49938 3.5003 8.1712 3.5 8.99938V14.9994C3.50028 15.8276 4.17175 16.4994 5 16.4994H9V17.9994H5C3.34332 17.9994 2.00028 16.656 2 14.9994V8.31871C2.00031 7.06178 2.78426 5.93746 3.96387 5.50328L11.0127 2.90953ZM13.5488 5.72496C13.5485 4.68206 12.5101 3.95695 11.5312 4.31676L6.95996 5.99938H13.5488V5.72496Z" fill="#000000"/>
</svg>
