<svg xmlns="http://www.w3.org/2000/svg" width="20" height="20" viewBox="0 0 20 20" fill="none"><rect width="20" height="20" fill="none"/>
<path d="M6.12109 5.10449C4.67772 6.25189 3.75006 8.01912 3.75 10.002C3.75 11.9849 4.67769 13.752 6.12109 14.8994V16.71C3.80927 15.3655 2.25 12.8669 2.25 10.002C2.25007 7.13688 3.80908 4.63741 6.12109 3.29297V5.10449Z" fill="#000000"/>
<path d="M13.9258 3.29199C16.2376 4.63647 17.7969 7.13503 17.7969 10C17.7968 12.8651 16.2378 15.3645 13.9258 16.709V14.8975C15.3692 13.7501 16.2968 11.9828 16.2969 10C16.2969 8.0171 15.3692 6.24992 13.9258 5.10254V3.29199Z" fill="#000000"/>
<path d="M10.75 5.42578C11.2248 5.51667 11.6879 5.69857 12.0811 5.98926C12.6955 6.44361 13.1161 7.14703 13.1162 8.05273H11.6162C11.6161 7.66046 11.4519 7.39005 11.1885 7.19531C10.9034 6.98473 10.4838 6.85553 10.0254 6.85547C9.5667 6.85547 9.14644 6.98459 8.86133 7.19531C8.59792 7.39005 8.43365 7.66046 8.43359 8.05273C8.43359 8.28219 8.48203 8.42406 8.53613 8.51855C8.59131 8.61488 8.67771 8.70618 8.81836 8.7959C9.13359 8.99691 9.58758 9.11789 10.207 9.27246C10.7583 9.41 11.4754 9.5816 12.0381 9.94043C12.3362 10.1306 12.6155 10.3865 12.8164 10.7373C13.0183 11.09 13.1162 11.4962 13.1162 11.9482C13.1161 12.8061 12.6806 13.4973 12.0947 13.9521C11.7061 14.2538 11.2394 14.4606 10.75 14.5654V16H9.25V14.5654C8.79309 14.4714 8.34892 14.292 7.96973 14.0117C7.3552 13.5574 6.93369 12.854 6.93359 11.9482H8.43359C8.43368 12.3405 8.59795 12.6109 8.86133 12.8057C9.14644 13.0164 9.56673 13.1455 10.0254 13.1455C10.4535 13.1454 10.8747 13.0005 11.1748 12.7676C11.4668 12.5409 11.6161 12.2586 11.6162 11.9482C11.6162 11.719 11.5687 11.5769 11.5146 11.4824C11.4595 11.386 11.3723 11.2949 11.2314 11.2051C10.9163 11.0041 10.463 10.883 9.84375 10.7285C9.29247 10.591 8.57454 10.4194 8.01172 10.0605C7.71362 9.87041 7.4352 9.61445 7.23438 9.26367C7.03238 8.91086 6.93359 8.5049 6.93359 8.05273C6.93366 7.14691 7.35518 6.44361 7.96973 5.98926C8.34898 5.70891 8.79302 5.52863 9.25 5.43457V4H10.75V5.42578Z" fill="#000000"/>
</svg>
