<svg xmlns="http://www.w3.org/2000/svg" width="20" height="20" viewBox="0 0 20 20" fill="none"><rect width="20" height="20" fill="none"/>
<path d="M15.5957 10.5C16.0473 10.5 16.3527 10.6388 16.5713 10.875C16.7843 11.1052 16.9063 11.4195 17.0146 11.749L19.3008 18.7002H17.4297L16.9248 17.0791H14.0674L13.5234 18.7002H11.75L14.1504 11.748C14.2647 11.4169 14.3938 11.1026 14.6123 10.873C14.836 10.6381 15.1443 10.5 15.5957 10.5ZM14.5879 15.5098H16.4287L15.5342 12.6426L14.5879 15.5098Z" fill="#000000"/>
<path d="M18 9H16V8L14 6H4V12L6 14H11V16H2V4H18V9Z" fill="#000000"/>
<path d="M10 8C11.1046 8 12 8.89543 12 10C12 11.1046 11.1046 12 10 12C8.89543 12 8 11.1046 8 10C8 8.89543 8.89543 8 10 8Z" fill="#000000"/>
</svg>
