<svg xmlns="http://www.w3.org/2000/svg" width="20" height="20" viewBox="0 0 20 20" fill="none"><rect width="20" height="20" fill="none"/>
<path d="M11 14H9V7H11V14Z" fill="#000000"/>
<path d="M11 3.01562C12.3067 3.05259 13.4723 3.15426 14.3623 3.25684C14.9181 3.32092 15.3698 3.38502 15.6836 3.43359C15.8403 3.45785 15.9642 3.47865 16.0488 3.49316C16.0905 3.50032 16.1239 3.50571 16.1465 3.50977C16.1575 3.51175 16.1676 3.51352 16.1738 3.51465C16.1763 3.51522 16.1807 3.5166 16.1807 3.5166H16.1846L16.2715 3.53711C16.6989 3.65727 17.001 4.0488 17.001 4.5V6.39062L16.7354 6.67871L16.2607 7.19238C16.1153 7.34994 16.024 7.5505 16.001 7.76367L15.1875 15.3213C15.0234 16.8446 13.7371 17.9994 12.2051 18H7.79688C6.26453 17.9999 4.97861 16.8448 4.81445 15.3213L4.00098 7.76367C3.97798 7.55067 3.88643 7.34989 3.74121 7.19238L3.2666 6.67871L3.00098 6.39062V4.5L3.00488 4.41016C3.04451 3.96797 3.37387 3.59947 3.81738 3.5166H3.82129C3.82129 3.5166 3.82569 3.51509 3.82812 3.51465C3.83448 3.51349 3.84456 3.51172 3.85547 3.50977C3.87821 3.5057 3.91154 3.5003 3.95312 3.49316C4.03785 3.47863 4.1618 3.45783 4.31836 3.43359C4.63232 3.38501 5.08394 3.32089 5.63965 3.25684C6.52937 3.15431 7.69398 3.0526 9 3.01562V2H11V3.01562ZM10.001 5C8.38748 5 6.92658 5.12131 5.86914 5.24316C5.53683 5.28147 5.24424 5.32113 5.00098 5.35547V5.6084L5.21094 5.83594C5.64724 6.30879 5.92036 6.9101 5.98926 7.5498L6.80273 15.1074C6.85761 15.615 7.2863 15.9999 7.79688 16H12.2051C12.7153 15.9994 13.1444 15.6148 13.1992 15.1074L14.0127 7.5498C14.0816 6.90994 14.3545 6.30884 14.791 5.83594L15.001 5.6084V5.35547C14.7577 5.32113 14.4652 5.28148 14.1328 5.24316C13.0755 5.1213 11.6146 5.00004 10.001 5Z" fill="#000000"/>
</svg>
