<svg xmlns="http://www.w3.org/2000/svg" width="24" height="24" viewBox="0 0 24 24" fill="none"><rect width="24" height="24" fill="none"/>
<path d="M16.333 16.4424C16.333 15.0165 15.4351 13.8278 14.2285 13.4844L12.5264 13H4V11H7.48438C7.30987 10.8261 7.14686 10.6387 6.99902 10.4375C6.36257 9.57128 6.02238 8.51161 6.02246 7.42773C6.02246 4.51057 8.80898 2.5 12 2.5C13.5422 2.5 15.0058 2.80823 16.1172 3.53223C17.2752 4.2866 18 5.46731 18 7H16C16 6.18567 15.6531 5.61688 15.0254 5.20801C14.3511 4.76879 13.3149 4.5 12 4.5C9.47673 4.5 8.02246 6.00636 8.02246 7.42773L8.03223 7.67676C8.07762 8.25436 8.28037 8.80249 8.61133 9.25293C8.98882 9.76664 9.50796 10.1207 10.0791 10.2725L12.6123 10.9453L12.6299 10.9492L12.8076 11H20V13H17.0449C17.8574 13.9198 18.333 15.1441 18.333 16.4424C18.3329 17.9547 17.4967 19.2393 16.3389 20.1104C15.1792 20.9827 13.6322 21.5 12 21.5C10.4578 21.5 8.99424 21.1918 7.88281 20.4678C6.72481 19.7134 6 18.5327 6 17H8C8 17.8143 8.34695 18.3831 8.97461 18.792C9.6489 19.2312 10.6851 19.5 12 19.5C13.2247 19.5 14.3441 19.1089 15.1367 18.5127C15.931 17.9152 16.3329 17.1709 16.333 16.4424Z" fill="#000000"/>
</svg>
