<svg xmlns="http://www.w3.org/2000/svg" width="20" height="20" viewBox="0 0 20 20" fill="none"><rect width="20" height="20" fill="none"/>
<path d="M18.5303 17.4697L17.4697 18.5303L16.6387 17.6992C16.2429 17.9219 15.7868 18.0498 15.2998 18.0498H4.7002C3.18141 18.0498 1.9502 16.8186 1.9502 15.2998V4.7002C1.9502 4.21316 2.07727 3.75642 2.2998 3.36035L1.46973 2.53027L2.53027 1.46973L18.5303 17.4697ZM6.91895 13.1006C6.42403 12.5646 5.57597 12.5646 5.08105 13.1006L3.4502 14.8662V15.2998C3.4502 15.9902 4.00984 16.5498 4.7002 16.5498H10.1025L6.91895 13.1006ZM3.4502 4.7002V12.6553L3.97949 12.083C5.0683 10.904 6.93169 10.904 8.02051 12.083L12.1436 16.5498H15.2998C15.3596 16.5498 15.4181 16.5442 15.4756 16.5361L3.46289 4.52344C3.45471 4.58118 3.4502 4.64017 3.4502 4.7002Z" fill="#000000"/>
<path d="M15.2998 1.9502C16.8186 1.9502 18.0498 3.18141 18.0498 4.7002V14.9893L16.5498 13.4893V4.7002C16.5498 4.00984 15.9902 3.4502 15.2998 3.4502H6.51074L5.01074 1.9502H15.2998Z" fill="#000000"/>
<path d="M12 5C13.6569 5 15 6.34315 15 8C15 9.06924 14.4388 10.0049 13.5967 10.5361L12.4805 9.41992C13.073 9.21949 13.5 8.66022 13.5 8C13.5 7.17157 12.8284 6.5 12 6.5C11.34 6.5 10.7797 6.92631 10.5791 7.51855L9.46289 6.40234C9.99418 5.56041 10.9309 5 12 5Z" fill="#000000"/>
</svg>
