<svg xmlns="http://www.w3.org/2000/svg" width="24" height="24" viewBox="0 0 24 24" fill="none"><rect width="24" height="24" fill="none"/>
<path d="M19.5039 17.5C19.78 17.5 20.0039 17.7239 20.0039 18V21.5H21.0039V22.5H17.0039V21.5H18.0039V18.5H17.0039V17.5H19.5039Z" fill="#000000"/>
<path d="M22 14.0068C21.5117 12.8294 20.3541 12 19 12C18.2761 12 17.5557 12.1746 16.917 12.5928C16.2853 13.0064 15.8676 13.5704 15.5967 14.1348C15.0918 15.1868 15 16.4453 15 17.5V20H6C3.79086 20 2 18.2091 2 16V10H22V14.0068ZM6 16H11V14H6V16Z" fill="#000000"/>
<path d="M19.0039 14C19.6943 14 20.2539 14.5596 20.2539 15.25C20.2539 15.9404 19.6943 16.5 19.0039 16.5C18.3135 16.5 17.7539 15.9404 17.7539 15.25C17.7539 14.5596 18.3135 14 19.0039 14Z" fill="#000000"/>
<path d="M18 4C20.2089 4 22 5.79066 22 8H2C2 5.79086 3.79086 4 6 4H18Z" fill="#000000"/>
</svg>
