<svg xmlns="http://www.w3.org/2000/svg" width="24" height="24" viewBox="0 0 24 24" fill="none"><rect width="24" height="24" fill="none"/>
<path d="M16 11.9991C17.1045 11.9991 17.9999 12.8947 18 13.9991C18 15.1037 17.1046 15.9991 16 15.9991C14.8954 15.9991 14 15.1037 14 13.9991C14.0001 12.8947 14.8955 11.9991 16 11.9991Z" fill="#000000"/>
<path d="M12.5674 3.00009C15.1735 2.06401 17.9197 3.99568 17.9199 6.76473V6.99911H18C20.209 6.99911 21.9999 8.79009 22 10.9991V16.9991C22 19.2082 20.2091 20.9991 18 20.9991H6C3.79089 20.9991 2.00004 19.2082 2 16.9991V9.60946C2.00011 7.92192 3.05933 6.41544 4.64746 5.84481L12.5674 3.00009ZM6 8.99911C4.89552 8.99911 4.00015 9.89466 4 10.9991V16.9991C4.00004 18.1036 4.89546 18.9991 6 18.9991H18C19.1045 18.9991 20 18.1036 20 16.9991V10.9991C19.9999 9.89466 19.1045 8.99911 18 8.99911H6ZM15.9199 6.76473C15.9197 5.38029 14.5461 4.41394 13.2432 4.88192L7.34961 6.99911H15.9199V6.76473Z" fill="#000000"/>
</svg>
