<svg xmlns="http://www.w3.org/2000/svg" width="20" height="20" viewBox="0 0 20 20" fill="none"><rect width="20" height="20" fill="none"/>
<path d="M6.80646 2.664C8.52184 1.9174 10.4451 1.79511 12.241 2.31927C14.037 2.84367 15.5932 3.98169 16.6375 5.53411C17.6815 7.08635 18.149 8.95549 17.9578 10.8163C17.7665 12.6776 16.928 14.4141 15.5897 15.7216C14.2514 17.0289 12.4966 17.8265 10.6317 17.9745C8.76673 18.1223 6.90823 17.6112 5.38068 16.5312C3.853 15.4509 2.75166 13.8683 2.26935 12.0605L3.71955 11.6747C4.11149 13.1433 5.00491 14.429 6.24592 15.3066C7.48718 16.1842 8.99804 16.5986 10.5135 16.4785C12.0286 16.3582 13.4536 15.7104 14.5408 14.6484C15.6281 13.5861 16.3091 12.1761 16.4647 10.664C16.6201 9.15179 16.2408 7.63241 15.3924 6.37103C14.5439 5.10971 13.2794 4.18576 11.8201 3.7597C10.361 3.33391 8.79876 3.43337 7.4051 4.03997C6.14374 4.58916 5.09344 5.5229 4.39924 6.70208L5.57014 7.26849C5.73583 7.34869 5.84457 7.51427 5.85236 7.69818C5.85978 7.88214 5.76483 8.05575 5.60627 8.14935L2.5008 9.9804C2.35688 10.0652 2.17958 10.0725 2.02912 9.99994C1.87882 9.92725 1.77489 9.7844 1.75178 9.61908L1.25568 6.04779C1.23034 5.86514 1.30875 5.68268 1.45783 5.57415C1.60674 5.46629 1.80294 5.44829 1.96857 5.52826L3.04279 6.04681C3.8961 4.54504 5.21609 3.35639 6.80646 2.664Z" fill="#000000"/>
<path d="M10.7498 9.68939L12.5301 11.4697L11.4695 12.5302L9.24982 10.3105V4.99994H10.7498V9.68939Z" fill="#000000"/>
</svg>
