<svg xmlns="http://www.w3.org/2000/svg" width="20" height="20" viewBox="0 0 20 20" fill="none"><rect width="20" height="20" fill="none"/>
<path d="M9.40234 1.58496L9 2.5C9.38629 1.62199 9.40234 1.58496 9.40234 1.58496L9.4043 1.58594H9.40625C9.40625 1.58594 9.41006 1.58794 9.41211 1.58887C9.41642 1.5908 9.42223 1.59372 9.42871 1.59668C9.44169 1.60261 9.45927 1.61006 9.48047 1.62012C9.52323 1.6404 9.58228 1.66954 9.65527 1.70703C9.80129 1.78204 10.0043 1.89243 10.2461 2.04004C10.7283 2.33446 11.3739 2.78236 12.0342 3.40137C13.0897 4.39098 14.2034 5.84209 14.7246 7.81055L14.9541 7.66211L15.8848 7.05664L16.3896 8.04395L15.5 8.5L16.3906 8.04492L16.3926 8.04883C16.3935 8.05074 16.3953 8.05327 16.3965 8.05566C16.3989 8.06043 16.4011 8.06664 16.4043 8.07324C16.4109 8.08687 16.4199 8.10479 16.4297 8.12598C16.4494 8.16878 16.4755 8.22743 16.5049 8.2998C16.5637 8.44457 16.6378 8.64811 16.7109 8.90234C16.8571 9.41043 17 10.1293 17 11C17 11.9192 16.8185 12.8295 16.4668 13.6787C16.115 14.5279 15.6001 15.3002 14.9502 15.9502C14.3002 16.6002 13.5279 17.115 12.6787 17.4668C11.8294 17.8186 10.9193 18 10 18C9.08075 18 8.17057 17.8186 7.32129 17.4668C6.47207 17.115 5.69978 16.6002 5.0498 15.9502C4.39987 15.3002 3.88496 14.5279 3.5332 13.6787C3.18147 12.8295 3 11.9192 3 11C3.00006 8.72823 3.91072 7.0368 4.91016 6.08496L5.86426 5.17773L6.70703 6.76172C6.77076 6.6706 6.83741 6.57363 6.90234 6.46973C7.44596 5.59977 8 4.28086 8 2.5V0.967773L9.40234 1.58496ZM9.85742 4.18848C9.61896 5.59098 9.11205 6.70721 8.59766 7.53027C8.24594 8.09296 7.89182 8.51874 7.62012 8.80859C7.48409 8.95369 7.36801 9.0661 7.28223 9.14453C7.23941 9.18367 7.20337 9.21459 7.17676 9.2373C7.16361 9.24852 7.15228 9.25842 7.14355 9.26562C7.13951 9.26897 7.13584 9.27195 7.13281 9.27441C7.13125 9.27568 7.12793 9.27832 7.12793 9.27832L7.12598 9.2793L7.125 9.28027C7.12114 9.27617 7.07594 9.21993 6.5 8.5L7.125 9.28027L6.18359 10.0342L5.47656 8.70605C5.19929 9.30511 5.00003 10.0715 5 11C5 11.6565 5.12969 12.3066 5.38086 12.9131C5.63211 13.5197 6.00061 14.0709 6.46484 14.5352C6.92912 14.9994 7.48032 15.3679 8.08691 15.6191C8.69349 15.8704 9.34346 16 10 16C10.6565 16 11.3065 15.8704 11.9131 15.6191C12.5197 15.3679 13.0709 14.9994 13.5352 14.5352C13.9994 14.0709 14.3679 13.5197 14.6191 12.9131C14.8703 12.3066 15 11.6565 15 11C15 10.6521 14.968 10.3388 14.9238 10.0674L14.5459 10.3145L13.1387 11.2305L13.0029 9.55664C12.8286 7.39961 11.7447 5.87159 10.666 4.86035C10.3883 4.60003 10.1125 4.37699 9.85742 4.18848Z" fill="#000000"/>
</svg>
