<svg xmlns="http://www.w3.org/2000/svg" width="20" height="20" viewBox="0 0 20 20" fill="none"><rect width="20" height="20" fill="none"/>
<path d="M17 15C17.2761 15 17.5 15.2239 17.5 15.5V18H18V19L15 18.999V17.999H15.5V15.999H15V14.999L17 15Z" fill="#000000"/>
<path d="M15 3C16.6547 3 18 4.33811 18 5.99707V9H4V14C4 14.5523 4.44772 15 5 15H13V17H5C3.34315 17 2 15.6569 2 14V6C2 4.34315 3.34315 3 5 3H15ZM5 5C4.44772 5 4 5.44772 4 6V7H16V5.99707C16 5.44689 15.5544 5 15 5H5Z" fill="#000000"/>
<path d="M16.5 11.5C17.1904 11.5 17.75 12.0596 17.75 12.75C17.75 13.4404 17.1904 14 16.5 14C15.8096 14 15.25 13.4404 15.25 12.75C15.25 12.0596 15.8096 11.5 16.5 11.5Z" fill="#000000"/>
</svg>
