<svg xmlns="http://www.w3.org/2000/svg" width="24" height="24" viewBox="0 0 24 24" fill="none"><rect width="24" height="24" fill="none"/>
<path d="M10.0002 6C10.5524 6 11.0002 6.44772 11.0002 7C11.0002 7.55228 10.5524 8 10.0002 8C9.44787 8 9.00015 7.55228 9.00015 7C9.00015 6.44772 9.44787 6 10.0002 6Z" fill="#000000"/>
<path d="M13.0002 5C13.5524 5 14.0002 5.44772 14.0002 6C14.0002 6.55228 13.5524 7 13.0002 7C12.4479 7 12.0002 6.55228 12.0002 6C12.0002 5.44772 12.4479 5 13.0002 5Z" fill="#000000"/>
<path d="M12.0002 2C15.3139 2 18.0002 4.68629 18.0002 8V9C18.3531 9 18.6803 9.18577 18.8605 9.48926C19.0406 9.79266 19.0469 10.1687 18.8781 10.4785L12.8781 21.4785C12.7029 21.7998 12.3661 22 12.0002 22C11.6342 22 11.2975 21.7998 11.1222 21.4785L5.12222 10.4785C4.95337 10.1687 4.95969 9.79266 5.1398 9.48926C5.29745 9.2237 5.56775 9.04849 5.86929 9.00879L6.00015 9V8C6.00015 4.68629 8.68645 2 12.0002 2ZM12.0002 18.9121L16.3156 11H7.68472L12.0002 18.9121ZM12.0002 4C9.79101 4 8.00015 5.79086 8.00015 8V9H16.0002V8C16.0002 5.79086 14.2093 4 12.0002 4Z" fill="#000000"/>
</svg>
