<svg xmlns="http://www.w3.org/2000/svg" width="24" height="24" viewBox="0 0 24 24" fill="none"><rect width="24" height="24" fill="none"/>
<path d="M13.4268 12.8877H10.5195L11.9863 8.44336H12.041L13.4268 12.8877Z" fill="#000000"/>
<path d="M12 2C17.5228 2 22 6.47715 22 12C22 17.5228 17.5228 22 12 22C6.47715 22 2 17.5228 2 12C2 6.47715 6.47715 2 12 2ZM12.0947 6C10.9166 6.00011 10.5512 6.71356 10.2373 7.62305L7 17H9.14648L9.89355 14.7705H14.0244L14.7178 17H17L13.915 7.62305C13.6168 6.71649 13.2726 6 12.0947 6Z" fill="#000000"/>
</svg>
