<svg xmlns="http://www.w3.org/2000/svg" width="24" height="24" viewBox="0 0 24 24" fill="none"><rect width="24" height="24" fill="none"/>
<path d="M19.4189 2.18661C19.7237 1.96904 20.125 1.93916 20.458 2.11044C20.7908 2.28183 20.9999 2.62574 21 3.00009V20.0001C20.9999 20.3745 20.7908 20.7183 20.458 20.8897C20.125 21.0611 19.7237 21.0312 19.4189 20.8136L13.2012 16.3722C12.8622 16.1301 12.4556 16.0002 12.0391 16.0001H10.1807L10.9863 20.836C11.0415 21.1681 10.9258 21.506 10.6787 21.7345C10.4311 21.963 10.0847 22.0514 9.75781 21.9698L6.51465 21.1593C5.62462 20.9366 5.00011 20.1363 5 19.2188V15.8741C3.27486 15.4301 2.00011 13.8638 2 12.0001V11.0001C2.00021 8.79113 3.79099 7.00009 6 7.00009H12.0391C12.4556 7 12.8621 6.87009 13.2012 6.62802L19.4189 2.18661ZM7 19.2188L8.7627 19.6593L8.15332 16.0001H7V19.2188ZM14.3633 8.25497C13.6851 8.73933 12.8725 9 12.0391 9.00009H6C4.89556 9.00009 4.00021 9.8957 4 11.0001V12.0001C4.00013 13.1045 4.89551 14.0001 6 14.0001H8V11.0001H10V14.0001H12.0391C12.8725 14.0002 13.6851 14.2609 14.3633 14.7452L19 18.0567V4.94247L14.3633 8.25497Z" fill="#000000"/>
</svg>
