<svg xmlns="http://www.w3.org/2000/svg" width="24" height="24" viewBox="0 0 24 24" fill="none"><rect width="24" height="24" fill="none"/>
<path d="M19.5039 17.5C19.78 17.5 20.0039 17.7239 20.0039 18V21.5H21.0039V22.5H17.0039V21.5H18.0039V18.5H17.0039V17.5H19.5039Z" fill="#000000"/>
<path d="M18 4C20.2089 4 22 5.79066 22 8V12H20V11H4V16C4 17.1046 4.89543 18 6 18H15V20H6C3.79086 20 2 18.2091 2 16V8C2 5.79086 3.79086 4 6 4H18ZM6 6C4.89543 6 4 6.89543 4 8V9H20V8C20 6.89563 19.1048 6 18 6H6Z" fill="#000000"/>
<path d="M19.0039 14C19.6943 14 20.2539 14.5596 20.2539 15.25C20.2539 15.9404 19.6943 16.5 19.0039 16.5C18.3135 16.5 17.7539 15.9404 17.7539 15.25C17.7539 14.5596 18.3135 14 19.0039 14Z" fill="#000000"/>
<path d="M11 16H6V14H11V16Z" fill="#000000"/>
</svg>
