<svg xmlns="http://www.w3.org/2000/svg" width="24" height="24" viewBox="0 0 24 24" fill="none"><rect width="24" height="24" fill="none"/>
<path d="M8 4C9.63574 4 11.0878 4.78565 12 6C12.9122 4.78565 14.3643 4 16 4H21V6H16C14.3431 6 13 7.34315 13 9V14H15C15.1801 14 15.3468 14.0972 15.4355 14.2539C15.524 14.4105 15.5211 14.6025 15.4287 14.7568L12.4287 19.7568L12.3916 19.8105C12.2975 19.9292 12.1538 20 12 20C11.8244 20 11.6617 19.9074 11.5713 19.7568L8.57129 14.7568C8.47886 14.6025 8.47598 14.4105 8.56445 14.2539C8.65321 14.0972 8.81986 14 9 14H11V9C11 7.34315 9.65685 6 8 6H3V4H8Z" fill="#000000"/>
</svg>
