<svg xmlns="http://www.w3.org/2000/svg" width="20" height="20" viewBox="0 0 20 20" fill="none"><rect width="20" height="20" fill="none"/>
<path d="M10 2C10.8284 2 11.5 2.67157 11.5 3.5C11.5 4.05495 11.198 4.5384 10.75 4.79785V6.94922H14.7002C16.2188 6.94943 17.4502 8.18057 17.4502 9.69922V15.249C17.4502 16.7677 16.2188 17.9988 14.7002 17.999H5.2998C3.87592 17.999 2.70525 16.917 2.56445 15.5303L2.5498 15.249V9.69922C2.54981 8.18044 3.78102 6.94922 5.2998 6.94922H9.25V4.79785C8.802 4.5384 8.5 4.05495 8.5 3.5C8.5 2.67157 9.17157 2 10 2ZM6.5 10C5.67157 10 5 10.6716 5 11.5C5 12.3284 5.67157 13 6.5 13C7.32843 13 8 12.3284 8 11.5C8 10.6716 7.32843 10 6.5 10ZM13.5 10C12.6716 10 12 10.6716 12 11.5C12 12.3284 12.6716 13 13.5 13C14.3284 13 15 12.3284 15 11.5C15 10.6716 14.3284 10 13.5 10Z" fill="#000000"/>
</svg>
