<svg xmlns="http://www.w3.org/2000/svg" width="20" height="20" viewBox="0 0 20 20" fill="none"><rect width="20" height="20" fill="none"/>
<path d="M13 2.58301C15.9313 3.76998 17.9999 6.64308 18 10C17.9997 14.418 14.418 17.9999 10 18C5.58196 17.9999 2.00026 14.418 2 10C2.00011 6.64293 4.06852 3.76988 7 2.58301V4.80371C5.20693 5.84117 4.00009 7.77946 4 10C4.00026 13.3134 6.68653 15.9999 10 16C13.3134 15.9999 15.9997 13.3134 16 10C15.9999 7.77961 14.7929 5.84122 13 4.80371V2.58301Z" fill="#000000"/>
<path d="M11 9H9V1H11V9Z" fill="#000000"/>
</svg>
