<svg xmlns="http://www.w3.org/2000/svg" width="20" height="20" viewBox="0 0 20 20" fill="none"><rect width="20" height="20" fill="none"/>
<path d="M7.56055 2.7959L12.6777 4.69043L17.001 2.81152C17.2327 2.71086 17.4996 2.73367 17.7109 2.87207C17.9222 3.0106 18.0496 3.2464 18.0498 3.49902V14.9912L17.5986 15.1865L12.999 17.1865C12.8215 17.2637 12.621 17.2694 12.4395 17.2021L7.32129 15.3066L2.99902 17.1865C2.7672 17.2873 2.50045 17.2646 2.28906 17.126C2.07781 16.9873 1.9502 16.7517 1.9502 16.499V5.00684L2.40137 4.81152L7.27734 2.69141L7.56055 2.7959ZM8.0498 13.9766L11.9502 15.4209V6.02051L8.0498 4.57617V13.9766ZM3.4502 5.99023V15.3555L6.5498 14.0068V4.6416L3.4502 5.99023ZM13.4502 5.98926V15.3545L16.5498 14.0068V4.6416L13.4502 5.98926Z" fill="#000000"/>
</svg>
