<svg xmlns="http://www.w3.org/2000/svg" width="20" height="20" viewBox="0 0 20 20" fill="none"><rect width="20" height="20" fill="none"/>
<path d="M15.5059 3.63672L14.7197 4.42188L15.2949 4.99707C15.6851 5.3876 15.6853 6.02071 15.2949 6.41113L13.6855 8.01953C15.0854 9.01648 16 10.6504 16 12.5C16 13.8298 15.5277 15.049 14.7422 16H17V18H3V16H6.25781C5.57222 15.1696 5.12569 14.1344 5.02344 13H3V11H9V13H7.03613C7.27879 14.6961 8.7368 16 10.5 16C12.433 16 14 14.433 14 12.5C14 11.201 13.2921 10.0677 12.2412 9.46387L10.7773 10.9297L6.74316 6.89648L11.2617 2.37793C11.6522 1.98749 12.2853 1.98751 12.6758 2.37793L13.083 2.78516L13.8691 2L15.5059 3.63672ZM9.57227 6.89648L10.7773 8.10156L13.1738 5.7041L11.9688 4.49902L9.57227 6.89648Z" fill="#000000"/>
</svg>
