<svg xmlns="http://www.w3.org/2000/svg" width="20" height="20" viewBox="0 0 20 20" fill="none"><rect width="20" height="20" fill="none"/>
<path d="M12.9355 3.55078C13.8504 3.55078 14.7057 4.0058 15.2168 4.76465L17.9219 8.78223L18.0498 8.97168V13.7012C18.0496 15.2198 16.8185 16.4512 15.2998 16.4512H4.7002C3.18154 16.4512 1.95041 15.2198 1.9502 13.7012V8.97168L2.07812 8.78223L4.7832 4.76465C5.29425 4.00582 6.14958 3.55081 7.06445 3.55078H12.9355ZM3.4502 13.7012C3.45041 14.3913 4.00997 14.9512 4.7002 14.9512H15.2998C15.99 14.9512 16.5496 14.3913 16.5498 13.7012V9.95117H13.4639L12.6709 11.5361L12.4639 11.9512H7.53613L7.3291 11.5361L6.53613 9.95117H3.4502V13.7012ZM7.06445 5.05078C6.64862 5.05081 6.25963 5.25763 6.02734 5.60254L4.10938 8.45117H7.46387L7.6709 8.86621L8.46387 10.4512H11.5361L12.3291 8.86621L12.5361 8.45117H15.8906L13.9727 5.60254C13.7404 5.25761 13.3514 5.05078 12.9355 5.05078H7.06445Z" fill="#000000"/>
</svg>
