<svg xmlns="http://www.w3.org/2000/svg" width="24" height="24" viewBox="0 0 24 24" fill="none"><rect width="24" height="24" fill="none"/>
<path d="M8.99805 13C11.5674 13 13.4431 13.6479 14.6074 15.1797C15.7166 16.6391 15.998 18.6849 15.998 21H13.998C13.998 18.7407 13.6973 17.2866 13.0156 16.3896C12.3889 15.5651 11.2638 15 8.99805 15C6.73258 15 5.60833 15.5652 4.98145 16.3896C4.29958 17.2866 3.99805 18.7405 3.99805 21H1.99805C1.99805 18.6849 2.27945 16.639 3.38867 15.1797C4.55311 13.648 6.4289 13 8.99805 13Z" fill="#000000"/>
<path d="M17 15C18.9 15.0001 20.2416 15.7283 21.0488 16.9766C21.8034 18.1436 22 19.6295 22 21H20C20 19.7566 19.8084 18.7419 19.3691 18.0625C18.9824 17.4645 18.3227 17.0001 17 17V15Z" fill="#000000"/>
<path d="M17 7C18.6566 7.00026 20 8.34331 20 10C20 11.6567 18.6566 12.9997 17 13C15.3431 13 14 11.6569 14 10C14 8.34315 15.3431 7 17 7ZM17 9C16.4477 9 16 9.44772 16 10C16 10.5523 16.4477 11 17 11C17.5521 10.9997 18 10.5521 18 10C18 9.44788 17.5521 9.00026 17 9Z" fill="#000000"/>
<path d="M8.99902 3C11.2082 3 12.999 4.79086 12.999 7C12.999 9.20914 11.2082 11 8.99902 11C6.78988 11 4.99902 9.20914 4.99902 7C4.99902 4.79086 6.78988 3 8.99902 3ZM8.99902 5C7.89445 5 6.99902 5.89543 6.99902 7C6.99902 8.10457 7.89445 9 8.99902 9C10.1036 9 10.999 8.10457 10.999 7C10.999 5.89543 10.1036 5 8.99902 5Z" fill="#000000"/>
</svg>
