<svg xmlns="http://www.w3.org/2000/svg" width="24" height="24" viewBox="0 0 24 24" fill="none"><rect width="24" height="24" fill="none"/>
<path d="M11.9998 4.99913C12.8281 4.99913 13.4995 5.67099 13.4998 6.49913C13.4998 7.32756 12.8283 7.99913 11.9998 7.99913C11.1715 7.99903 10.4998 7.3275 10.4998 6.49913C10.5002 5.67105 11.1717 4.99924 11.9998 4.99913Z" fill="#000000"/>
<path d="M12.4481 2.01671C13.2337 2.07558 14.0007 2.28871 14.7039 2.64367C15.4071 2.99866 16.0339 3.48907 16.5477 4.08605C17.0614 4.68302 17.4528 5.37607 17.6991 6.12413C17.9452 6.87234 18.0421 7.66289 17.9832 8.44835C17.9243 9.23382 17.7112 10.001 17.3563 10.7042C17.0013 11.4073 16.5109 12.0342 15.9139 12.548C15.6298 12.7925 15.323 13.0079 14.9998 13.1944V18.1134C14.9997 19.3637 14.2241 20.4828 13.0536 20.922L10.3514 21.9357C10.0445 22.0507 9.70001 22.008 9.43051 21.8214C9.16118 21.6346 8.99984 21.3269 8.99984 20.9991V13.1944C8.41666 12.8576 7.89236 12.4258 7.45199 11.9142C6.93834 11.3173 6.54691 10.6241 6.30062 9.87609C6.05446 9.12794 5.95769 8.33728 6.01644 7.55187C6.07532 6.76643 6.28853 5.99918 6.6434 5.29601C6.99836 4.59292 7.48886 3.96608 8.08578 3.45226C8.68277 2.93849 9.37576 2.54721 10.1239 2.30089C10.8722 2.05464 11.6625 1.95792 12.4481 2.01671ZM12.2987 4.01085C11.7751 3.97169 11.2485 4.03625 10.7498 4.20031C10.2511 4.3645 9.78847 4.62538 9.39047 4.96788C8.99254 5.31044 8.66518 5.72866 8.42855 6.19738C8.19206 6.66607 8.04984 7.17777 8.01059 7.70128C7.97146 8.22464 8.03608 8.75156 8.20004 9.25011C8.3642 9.74874 8.62523 10.2115 8.96762 10.6095C9.31014 11.0074 9.72842 11.3348 10.1971 11.5714C10.4534 11.7007 10.7232 11.8007 10.9998 11.8722V19.5558L12.3514 19.0499C12.7414 18.9035 12.9997 18.53 12.9998 18.1134V11.8712C13.0836 11.8496 13.1674 11.827 13.2498 11.7999C13.7486 11.6358 14.2112 11.3748 14.6092 11.0323C15.0072 10.6898 15.3344 10.2715 15.5711 9.80285C15.8077 9.33415 15.9498 8.82248 15.9891 8.29894C16.0283 7.77553 15.9636 7.24872 15.7996 6.75011C15.6355 6.25141 15.3745 5.78873 15.0321 5.39074C14.6895 4.99275 14.2713 4.66548 13.8026 4.42882C13.3338 4.19223 12.8223 4.0501 12.2987 4.01085Z" fill="#000000"/>
</svg>
