<svg xmlns="http://www.w3.org/2000/svg" width="24" height="24" viewBox="0 0 24 24" fill="none"><rect width="24" height="24" fill="none"/>
<path d="M11.9992 2C12.0307 2.03126 15.0309 4.99959 20.9983 5C20.9984 6.24129 21.1678 9.02299 20.6604 12H18.6311C18.9841 10.1399 19.0307 8.32882 19.0217 6.89648C16.6305 6.64828 14.7376 5.98048 13.3547 5.28906C12.8268 5.02504 12.3751 4.75545 11.9983 4.50977C11.6215 4.75532 11.1704 5.02524 10.6428 5.28906C9.25957 5.98051 7.36647 6.64846 4.97482 6.89648C4.96384 8.67244 5.03922 11.0308 5.67696 13.3428C6.52415 16.4136 8.25958 19.0547 11.9983 19.9521L11.9992 19.9512V22L11.5383 21.8994C2.03104 19.6273 2.99853 7.95307 2.99825 5C8.95518 4.99999 11.9562 2.0427 11.9992 2Z" fill="#000000"/>
<path d="M17.9992 14C20.2083 14.0001 21.9992 15.7909 21.9992 18C21.9992 20.2091 20.2083 21.9999 17.9992 22C15.7903 21.9997 13.9992 20.209 13.9992 18C13.9992 15.791 15.7903 14.0003 17.9992 14ZM17.9992 16C16.8949 16.0003 15.9992 16.8956 15.9992 18C15.9992 19.1044 16.8949 19.9997 17.9992 20C19.1037 19.9999 19.9992 19.1045 19.9992 18C19.9992 16.8955 19.1037 16.0001 17.9992 16Z" fill="#000000"/>
</svg>
