<svg xmlns="http://www.w3.org/2000/svg" width="24" height="24" viewBox="0 0 24 24" fill="none"><rect width="24" height="24" fill="none"/>
<path d="M8.50029 10C9.32836 10.0004 10.0003 10.6718 10.0003 11.5C10.0003 12.3282 9.32836 12.9996 8.50029 13C7.67186 13 7.00029 12.3284 7.00029 11.5C7.00029 10.6716 7.67186 10 8.50029 10Z" fill="#000000"/>
<path d="M15.5003 10C16.3284 10.0004 17.0003 10.6718 17.0003 11.5C17.0003 12.3282 16.3284 12.9996 15.5003 13C14.6719 13 14.0003 12.3284 14.0003 11.5C14.0003 10.6716 14.6719 10 15.5003 10Z" fill="#000000"/>
<path d="M16.805 4C18.8486 4.00061 20.5638 5.54207 20.7815 7.57422L21.7571 16.6807C21.9469 18.4534 20.5575 19.9995 18.7747 20H17.8284C17.0331 19.9999 16.2698 19.6833 15.7073 19.1211L13.5862 17H10.4144L8.29326 19.1211C7.73092 19.6834 6.96738 19.9997 6.17217 20H5.22588C3.44279 19.9998 2.05364 18.4536 2.24346 16.6807L3.21904 7.57422C3.43683 5.5419 5.15171 4.00031 7.1956 4H16.805ZM7.1956 6C6.17381 6.00031 5.31623 6.77108 5.20732 7.78711L4.23174 16.8936C4.16849 17.4845 4.63163 17.9998 5.22588 18H6.17217C6.43695 17.9997 6.69193 17.8943 6.8792 17.707L9.58623 15H14.4144L17.1214 17.707C17.3088 17.8942 17.5636 17.9999 17.8284 18H18.7747C19.3686 17.9995 19.832 17.4842 19.7688 16.8936L18.7933 7.78711C18.6844 6.77124 17.8265 6.00061 16.805 6H7.1956Z" fill="#000000"/>
</svg>
