<svg xmlns="http://www.w3.org/2000/svg" width="20" height="20" viewBox="0 0 20 20" fill="none"><rect width="20" height="20" fill="none"/>
<path d="M12.4999 12.0001C14.1566 12.0001 15.4996 13.3434 15.4999 15.0001C15.4999 16.657 14.1567 18.0001 12.4999 18.0001C10.8432 17.9999 9.49986 16.6568 9.49986 15.0001C9.50008 13.3436 10.8433 12.0003 12.4999 12.0001ZM12.4999 14.0001C11.9479 14.0003 11.5001 14.4481 11.4999 15.0001C11.4999 15.5523 11.9477 15.9999 12.4999 16.0001C13.0521 16.0001 13.4999 15.5524 13.4999 15.0001C13.4996 14.448 13.052 14.0001 12.4999 14.0001Z" fill="#000000"/>
<path d="M7.20689 7.20713L4.95689 9.45713C4.38107 10.033 4.38132 10.9671 4.95689 11.5431C5.53286 12.119 6.46685 12.119 7.04283 11.5431L11.5428 7.04307C12.8997 5.68621 15.0999 5.68646 16.4569 7.04307C17.8139 8.40008 17.8139 10.6001 16.4569 11.9571L16.2069 12.2071L14.7928 10.7931L15.0428 10.5431C15.6188 9.96709 15.6188 9.0331 15.0428 8.45713C14.4668 7.88156 13.5327 7.88133 12.9569 8.45713L8.45689 12.9571C7.09987 14.3141 4.89985 14.3142 3.54283 12.9571C2.18621 11.6001 2.18596 9.39997 3.54283 8.04307L5.79283 5.79307L7.20689 7.20713Z" fill="#000000"/>
<path d="M10.3915 2.01182C10.5581 1.97482 10.7325 2.02602 10.8534 2.14659C10.9742 2.26737 11.0251 2.44175 10.9881 2.6085L10.0995 6.6085C10.0599 6.78665 9.92605 6.92955 9.75084 6.98057C9.57575 7.03145 9.38664 6.98251 9.25767 6.85362L6.14634 3.74229C6.01769 3.61327 5.96846 3.4241 6.01939 3.24913C6.07046 3.07414 6.21354 2.94014 6.39146 2.90049L10.3915 2.01182Z" fill="#000000"/>
</svg>
