<svg xmlns="http://www.w3.org/2000/svg" width="20" height="20" viewBox="0 0 20 20" fill="none"><rect width="20" height="20" fill="none"/>
<path d="M4 15C4 15.5523 4.44772 16 5 16H7V18H5C3.34315 18 2 16.6569 2 15V13H4V15Z" fill="#000000"/>
<path d="M18 15C18 16.6569 16.6569 18 15 18H13V16H15C15.5523 16 16 15.5523 16 15V13H18V15Z" fill="#000000"/>
<path d="M10 12C11.0253 12 12.2159 12.293 13.1797 12.9062C13.9154 13.3744 14.5727 14.0717 14.8545 15H12.5957C12.4638 14.8551 12.3021 14.7183 12.1064 14.5938C11.4988 14.2071 10.689 14 10 14C9.27874 14 8.48694 14.1795 7.90918 14.5625C7.7259 14.684 7.56156 14.8279 7.42383 15H5.19727C5.48845 14.0748 6.07844 13.3769 6.80469 12.8955C7.79833 12.2369 9.00702 12 10 12Z" fill="#000000"/>
<path d="M10 5C11.6569 5 13 6.34315 13 8C13 9.65685 11.6569 11 10 11C8.34315 11 7 9.65685 7 8C7 6.34315 8.34315 5 10 5ZM10 7C9.44772 7 9 7.44772 9 8C9 8.55228 9.44772 9 10 9C10.5523 9 11 8.55228 11 8C11 7.44772 10.5523 7 10 7Z" fill="#000000"/>
<path d="M7 4H5C4.44772 4 4 4.44772 4 5V7H2V5C2 3.34315 3.34315 2 5 2H7V4Z" fill="#000000"/>
<path d="M15 2C16.6569 2 18 3.34315 18 5V7H16V5C16 4.44772 15.5523 4 15 4H13V2H15Z" fill="#000000"/>
</svg>
