<svg xmlns="http://www.w3.org/2000/svg" width="20" height="20" viewBox="0 0 20 20" fill="none"><rect width="20" height="20" fill="none"/>
<path d="M16 16C17.6569 16 19 17.3431 19 19H13C13 17.3431 14.3431 16 16 16Z" fill="#000000"/>
<path d="M9.22949 1.00582C9.81218 0.974794 10.3949 1.0681 10.9385 1.28023C11.4821 1.49242 11.9742 1.81871 12.3818 2.23628C12.7895 2.65403 13.1038 3.15431 13.3027 3.70308C13.4539 4.12017 13.5359 4.55823 13.5469 4.99996H15.9199L16.2529 8.99996H14.2471L14.0801 6.99996H4.91309L4.0957 15.9882L11.1191 15.9209L11.1387 17.9209L1.9043 18.0107L3.08691 4.99996H5.34863C5.35599 4.70444 5.3948 4.40973 5.46582 4.12105C5.60525 3.55439 5.8638 3.02404 6.22461 2.56539C6.58557 2.10664 7.04048 1.72978 7.55859 1.46089C8.0767 1.19202 8.6466 1.0369 9.22949 1.00582ZM9.33594 3.00289C9.03732 3.01881 8.74492 3.09854 8.47949 3.23628C8.21426 3.37399 7.9817 3.56687 7.79688 3.80171C7.612 4.03667 7.47868 4.30828 7.40723 4.59859C7.37478 4.73048 7.35707 4.86497 7.35059 4.99996H11.5449C11.5349 4.79037 11.4947 4.5829 11.4229 4.38472C11.321 4.10369 11.1599 3.84771 10.9512 3.63375C10.7423 3.41973 10.4895 3.25225 10.2109 3.14351C9.9326 3.03495 9.63428 2.98702 9.33594 3.00289Z" fill="#000000"/>
<path d="M16 11C17.1046 11 18 11.8954 18 13C18 14.1045 17.1046 15 16 15C14.8954 15 14 14.1045 14 13C14 11.8954 14.8954 11 16 11Z" fill="#000000"/>
<path d="M8 9.99996H6V7.99996H8V9.99996Z" fill="#000000"/>
<path d="M13 9.99996H11V7.99996H13V9.99996Z" fill="#000000"/>
</svg>
