<svg xmlns="http://www.w3.org/2000/svg" width="24" height="24" viewBox="0 0 24 24" fill="none"><rect width="24" height="24" fill="none"/>
<path d="M12 2C13.8663 2 15.6954 2.52234 17.2803 3.50781C18.8653 4.49343 20.1432 5.90317 20.9688 7.57715C21.7943 9.25112 22.1351 11.123 21.9521 12.9805C21.7692 14.8378 21.0698 16.6072 19.9336 18.0879C18.7974 19.5686 17.2692 20.7019 15.5225 21.3594C13.7757 22.0168 11.8794 22.1717 10.0488 21.8076C8.21838 21.4435 6.52624 20.5746 5.16406 19.2988C3.8018 18.0229 2.8239 16.3908 2.34082 14.5879L4.27246 14.0703C4.65892 15.5126 5.44145 16.8182 6.53125 17.8389C7.62106 18.8596 8.97497 19.5554 10.4395 19.8467C11.9039 20.1379 13.421 20.0132 14.8184 19.4873C16.2157 18.9613 17.4378 18.0546 18.3467 16.8701C19.2557 15.6855 19.8156 14.2702 19.9619 12.7842C20.1083 11.2982 19.8352 9.80107 19.1748 8.46191C18.5144 7.12273 17.4926 5.99455 16.2246 5.20605C14.9566 4.4176 13.4931 4 12 4V2Z" fill="#000000"/>
<path d="M12 6C13.3881 6 14.7336 6.48168 15.8066 7.3623C16.8794 8.24283 17.6139 9.46792 17.8848 10.8291C18.1555 12.1904 17.9462 13.604 17.292 14.8281C16.6376 16.0523 15.5784 17.0118 14.2959 17.543C13.0134 18.0742 11.5862 18.1442 10.2578 17.7412C8.92969 17.3382 7.78184 16.487 7.01074 15.333C6.2398 14.179 5.8933 12.7933 6.0293 11.4121C6.16536 10.0307 6.77626 8.73937 7.75781 7.75781L9.17188 9.17188C8.5175 9.82625 8.11024 10.6874 8.01953 11.6084C7.92894 12.5292 8.15977 13.4533 8.67383 14.2227C9.18796 14.9921 9.95334 15.5595 10.8389 15.8281C11.7243 16.0967 12.6754 16.0493 13.5303 15.6953C14.3852 15.3412 15.0911 14.7018 15.5273 13.8857C15.9636 13.0696 16.1034 12.1274 15.9229 11.2197C15.7423 10.3121 15.2525 9.49528 14.5371 8.9082C13.8218 8.3212 12.9254 8 12 8V6Z" fill="#000000"/>
<path d="M12 10C12.2626 10 12.523 10.0518 12.7656 10.1523C13.0082 10.2529 13.2284 10.4003 13.4141 10.5859C13.5997 10.7716 13.7471 10.9918 13.8477 11.2344C13.9482 11.477 14 11.7374 14 12C14 12.2626 13.9482 12.523 13.8477 12.7656C13.7471 13.0082 13.5997 13.2284 13.4141 13.4141C13.2284 13.5997 13.0082 13.7471 12.7656 13.8477C12.523 13.9482 12.2626 14 12 14C11.7374 14 11.477 13.9482 11.2344 13.8477C10.9918 13.7471 10.7716 13.5997 10.5859 13.4141C10.4003 13.2284 10.2529 13.0082 10.1523 12.7656C10.0518 12.523 10 12.2626 10 12C10 11.7374 10.0518 11.477 10.1523 11.2344C10.2529 10.9918 10.4003 10.7716 10.5859 10.5859C10.7716 10.4003 10.9918 10.2529 11.2344 10.1523C11.477 10.0518 11.7374 10 12 10Z" fill="#000000"/>
</svg>
