<svg xmlns="http://www.w3.org/2000/svg" width="20" height="20" viewBox="0 0 20 20" fill="none"><rect width="20" height="20" fill="none"/>
<path d="M11.0605 1.63557C12.6873 1.26841 14.4662 1.58436 15.999 2.62092V5.29572C14.675 3.71464 12.9168 3.26721 11.501 3.58674C9.75004 3.98204 8.27745 5.5958 8.67969 8.35627C8.7116 8.57528 8.74015 8.79032 8.76758 9.0008H14V10.5008H8.93457C9.04459 11.7063 9.0796 12.7428 9.06934 13.617C9.05828 14.5409 8.78236 15.3424 8.32812 15.9988H16V17.9988H4.40039C4.35421 18 4.30801 18.0028 4.26172 18.0028V17.9988L4 17.9998V15.9998L4.33691 15.9988C5.93284 15.9675 7.05288 14.9409 7.06934 13.5936C7.07927 12.7477 7.04322 11.7195 6.92578 10.5008H4V9.0008H6.75C6.73395 8.88354 6.71867 8.76448 6.70117 8.64436C6.15405 4.88897 8.25291 2.2694 11.0605 1.63557Z" fill="#000000"/>
</svg>
