<svg xmlns="http://www.w3.org/2000/svg" width="20" height="20" viewBox="0 0 20 20" fill="none"><rect width="20" height="20" fill="none"/>
<path d="M12.9688 3.08594L10.75 4.86035V6.07031C11.6533 6.24166 12.4484 6.71721 13.0264 7.38574L14.0742 6.78125L14.5029 3.97168L15.9873 4.19824L15.5957 6.76953L18.0186 7.71582L17.4717 9.11426L14.8252 8.08008L13.7764 8.68457C13.9199 9.09674 14 9.5389 14 10C14 10.4603 13.9204 10.9019 13.7773 11.3135L14.8252 11.9189L17.4717 10.8857L18.0186 12.2842L15.5957 13.2305L15.9873 15.8018L14.5029 16.0283L14.0742 13.2178L13.0264 12.6123C12.4483 13.2814 11.6537 13.7572 10.75 13.9287V15.1387L12.9688 16.9141L12.0312 18.0859L10 16.4609L7.96875 18.0859L7.03125 16.9141L9.25 15.1387V13.9287C8.34609 13.7572 7.55074 13.2816 6.97266 12.6123L5.9248 13.2178L5.49707 16.0283L4.0127 15.8018L4.4043 13.2305L1.98145 12.2842L2.52832 10.8857L5.17383 11.9189L6.22168 11.3135C6.07864 10.902 6 10.4602 6 10C6 9.53913 6.07826 9.09657 6.22168 8.68457L5.17383 8.08008L2.52832 9.11426L1.98145 7.71582L4.4043 6.76953L4.0127 4.19824L5.49707 3.97168L5.9248 6.78125L6.97266 7.38574C7.5507 6.71695 8.34652 6.2417 9.25 6.07031V4.86035L7.03125 3.08594L7.96875 1.91406L10 3.53906L12.0312 1.91406L12.9688 3.08594ZM10 7.5C8.61929 7.5 7.5 8.61929 7.5 10C7.5 11.3807 8.61929 12.5 10 12.5C11.3807 12.5 12.5 11.3807 12.5 10C12.5 8.61929 11.3807 7.5 10 7.5Z" fill="#000000"/>
</svg>
