<svg xmlns="http://www.w3.org/2000/svg" width="20" height="20" viewBox="0 0 20 20" fill="none"><rect width="20" height="20" fill="none"/>
<path d="M16.792 11.2578C17.18 11.2579 17.5649 11.3327 17.9238 11.4785C18.2829 11.6244 18.6097 11.8392 18.8838 12.1113L19.0801 12.3252C19.512 12.8458 19.7539 13.4982 19.7539 14.1787C19.7539 14.9562 19.4379 15.6965 18.8838 16.2461L18.8799 16.25L15.5859 19.4697C15.5087 19.5681 15.4084 19.6488 15.2881 19.6992C15.0093 19.816 14.6871 19.7541 14.4717 19.542L11.125 16.2471L11.123 16.2451C10.5693 15.6956 10.2539 14.9549 10.2539 14.1777C10.2539 13.4007 10.5695 12.6608 11.123 12.1113C11.3971 11.8393 11.724 11.6245 12.083 11.4785C12.4421 11.3326 12.8276 11.2578 13.2158 11.2578C13.6039 11.2578 13.9887 11.3327 14.3477 11.4785C14.5826 11.574 14.8013 11.7024 15.0029 11.8535C15.2047 11.7021 15.4239 11.5741 15.6592 11.4785C16.0182 11.3326 16.4038 11.2578 16.792 11.2578ZM16.792 12.7578C16.596 12.7578 16.4021 12.7956 16.2236 12.8682C16.0454 12.9407 15.8865 13.046 15.7559 13.1758L15.752 13.1797L15.5273 13.3984C15.2359 13.6831 14.7709 13.6831 14.4795 13.3984L14.2559 13.1797L14.251 13.1758C14.1202 13.046 13.9616 12.9407 13.7832 12.8682C13.6048 12.7957 13.4117 12.7578 13.2158 12.7578C13.02 12.7578 12.8268 12.7958 12.6484 12.8682C12.47 12.9407 12.3104 13.046 12.1797 13.1758C11.9024 13.451 11.7539 13.8108 11.7539 14.1777C11.7539 14.5438 11.9018 14.9027 12.1777 15.1777L14.9932 17.9512L17.8271 15.1807C18.1047 14.9054 18.2539 14.5459 18.2539 14.1787C18.2539 13.8574 18.1401 13.5415 17.9258 13.2832L17.8271 13.1758C17.6964 13.046 17.5377 12.9407 17.3594 12.8682C17.1811 12.7957 16.9879 12.7579 16.792 12.7578Z" fill="#000000"/>
<path d="M17.0498 7.08789V9.5H15.5498V7.91113L10 4.3877L4.4502 7.91113V15.5498H9V17.0498H2.9502V7.08789L9.59863 2.86719L10 2.61133L17.0498 7.08789Z" fill="#000000"/>
</svg>
