<svg xmlns="http://www.w3.org/2000/svg" width="20" height="20" viewBox="0 0 20 20" fill="none"><rect width="20" height="20" fill="none"/>
<path d="M13.5 3.25C15.0357 3.25 16.1844 4.03065 16.9229 5.06445C17.648 6.07985 18 7.36089 18 8.5C18 10.5258 16.9178 12.3343 15.4551 13.7305C13.9878 15.131 12.0666 16.1891 10.2061 16.7207L10 16.7803L9.79395 16.7207C7.93336 16.1891 6.01224 15.131 4.54492 13.7305C3.08223 12.3343 2 10.5258 2 8.5C2 7.36089 2.35197 6.07985 3.07715 5.06445C3.81558 4.03065 4.96428 3.25 6.5 3.25C7.51488 3.24997 8.89807 3.66658 10 4.80762C11.1019 3.66659 12.4851 3.25001 13.5 3.25ZM13.5 4.75C12.7185 4.75001 11.4679 5.15018 10.624 6.41602L10.25 6.97754C10.1313 7.15566 9.86875 7.15566 9.75 6.97754L9.37598 6.41602C8.53208 5.15018 7.2815 4.74998 6.5 4.75C5.53585 4.75 4.80941 5.21951 4.29785 5.93555C3.77317 6.67011 3.5 7.63922 3.5 8.5C3.5 9.97402 4.29299 11.4158 5.58008 12.6445C6.80889 13.8175 8.42516 14.7294 10 15.2158C11.5748 14.7294 13.1911 13.8175 14.4199 12.6445C15.707 11.4158 16.5 9.97402 16.5 8.5C16.5 7.63922 16.2268 6.67011 15.7021 5.93555C15.1906 5.21951 14.4642 4.75 13.5 4.75Z" fill="#000000"/>
</svg>
