<svg xmlns="http://www.w3.org/2000/svg" width="24" height="24" viewBox="0 0 24 24" fill="none"><rect width="24" height="24" fill="none"/>
<path d="M11.707 8.2041L9.41406 10.4971H13.5C15.7091 10.4971 17.5 12.288 17.5 14.4971V15.4971H15.5V14.4971C15.5 13.3925 14.6045 12.4971 13.5 12.4971H9.41406L11.707 14.79L10.293 16.2041L5.58594 11.4971L10.293 6.79004L11.707 8.2041Z" fill="#000000"/>
<path d="M12 2C17.5228 2 22 6.47715 22 12C22 17.5228 17.5228 22 12 22C6.47715 22 2 17.5228 2 12C2 6.47715 6.47715 2 12 2ZM12 4C7.58172 4 4 7.58172 4 12C4 16.4183 7.58172 20 12 20C16.4183 20 20 16.4183 20 12C20 7.58172 16.4183 4 12 4Z" fill="#000000"/>
</svg>
