<svg xmlns="http://www.w3.org/2000/svg" width="24" height="24" viewBox="0 0 24 24" fill="none"><rect width="24" height="24" fill="none"/>
<path d="M21.707 20.293L20.293 21.707L18.1514 19.5654C16.5425 21.0746 14.3801 22 12 22C7.02944 22 3 17.9706 3 13C3 10.62 3.92372 8.4558 5.43262 6.84668L2.29297 3.70703L3.70703 2.29297L21.707 20.293ZM6.84863 8.2627C5.70113 9.50896 5 11.1722 5 13C5 16.866 8.13401 20 12 20C13.8278 20 15.4894 19.2972 16.7354 18.1494L6.84863 8.2627Z" fill="#000000"/>
<path d="M12 4C14.1247 4 16.0766 4.7374 17.6162 5.96875L19.293 4.29297L20.707 5.70703L19.0303 7.38281C20.2621 8.92256 21 10.8748 21 13C21 14.2085 20.7591 15.3602 20.3271 16.4131L18.7529 14.8389C18.9122 14.2527 19 13.6366 19 13C19 9.13401 15.866 6 12 6C11.3631 6 10.7466 6.08673 10.1602 6.24609L8.58594 4.67188C9.63891 4.23976 10.7913 4 12 4Z" fill="#000000"/>
<path d="M15 3H9V1H15V3Z" fill="#000000"/>
</svg>
