<svg xmlns="http://www.w3.org/2000/svg" width="20" height="20" viewBox="0 0 20 20" fill="none"><rect width="20" height="20" fill="none"/>
<path d="M8.54688 2.13302C10.3866 1.79324 12.2879 2.10922 13.9189 3.0256C15.55 3.94208 16.8089 5.40251 17.4756 7.1506C18.1419 8.89853 18.174 10.8254 17.5674 12.5949C16.9605 14.3647 15.7524 15.8667 14.1533 16.8381C12.5541 17.8094 10.6648 18.1886 8.81446 17.9113C7.09842 17.6541 5.51586 16.8469 4.30274 15.6164L3.39942 16.3967C3.25997 16.5168 3.06539 16.5505 2.89356 16.4846C2.72171 16.4182 2.59992 16.2621 2.57715 16.0793L2.13086 12.5012C2.11058 12.3357 2.17458 12.1707 2.30079 12.0617C2.42721 11.9528 2.5999 11.9137 2.76075 11.9582L6.23536 12.9231C6.4128 12.9724 6.54842 13.1164 6.58887 13.2961C6.62886 13.4757 6.56699 13.6631 6.42774 13.7834L5.44239 14.633C6.41831 15.5932 7.67496 16.2238 9.03614 16.4279C10.5396 16.6533 12.0747 16.345 13.374 15.5559C14.6733 14.7666 15.6553 13.5466 16.1484 12.1086C16.6413 10.6707 16.6147 9.10508 16.0732 7.68478C15.5316 6.26451 14.5088 5.07784 13.1836 4.33322C11.8585 3.58888 10.314 3.33255 8.81934 3.60861C7.32451 3.88477 5.97278 4.67603 5.00098 5.84494C4.02943 7.01377 3.49858 8.48717 3.5 10.007L2 10.009C1.99812 8.13817 2.65176 6.32467 3.84766 4.88595C5.04372 3.44733 6.70712 2.47291 8.54688 2.13302Z" fill="#000000"/>
<path d="M10.75 9.68966L12.5303 11.4699L11.4697 12.5305L9.25 10.3108V5.00021H10.75V9.68966Z" fill="#000000"/>
</svg>
