<svg xmlns="http://www.w3.org/2000/svg" width="24" height="24" viewBox="0 0 24 24" fill="none"><rect width="24" height="24" fill="none"/>
<path d="M10.001 2.99904C11.2379 2.28547 12.7621 2.28548 13.999 2.99904L18.7988 5.7676C20.0369 6.48186 20.7996 7.80315 20.7998 9.23244V14.7676C20.7997 16.197 20.0369 17.5181 18.7988 18.2324L13.999 21.001C12.762 21.7147 11.238 21.7147 10.001 21.001L5.20117 18.2324C3.96311 17.5181 3.2003 16.197 3.2002 14.7676V9.23244C3.20041 7.80315 3.96312 6.48186 5.20117 5.7676L10.001 2.99904ZM11 12.586L9.20703 10.793L7.79297 12.2071L11 15.4141L16.207 10.2071L14.793 8.79299L11 12.586Z" fill="#000000"/>
</svg>
