<svg xmlns="http://www.w3.org/2000/svg" width="20" height="20" viewBox="0 0 20 20" fill="none"><rect width="20" height="20" fill="none"/>
<path d="M15.5 11C15.9142 11 16.25 11.3358 16.25 11.75V12C16.25 13.5188 17.4812 14.75 19 14.75H19.25C19.6642 14.75 20 15.0858 20 15.5C20 15.9142 19.6642 16.25 19.25 16.25H19C17.4812 16.25 16.25 17.4812 16.25 19V19.25C16.25 19.6642 15.9142 20 15.5 20C15.0858 20 14.75 19.6642 14.75 19.25V19C14.75 17.4812 13.5188 16.25 12 16.25H11.75C11.3358 16.25 11 15.9142 11 15.5C11 15.0858 11.3358 14.75 11.75 14.75H12C13.5188 14.75 14.75 13.5188 14.75 12V11.75C14.75 11.3358 15.0858 11 15.5 11Z" fill="#000000"/>
<path d="M9 2C10.6569 2 12 3.34315 12 5V6H13C14.6569 6 16 7.34315 16 9H14C14 8.44772 13.5523 8 13 8H10V5C10 4.44772 9.55228 4 9 4H6V16H9V18H4V2H9Z" fill="#000000"/>
</svg>
