<svg xmlns="http://www.w3.org/2000/svg" width="24" height="24" viewBox="0 0 24 24" fill="none"><rect width="24" height="24" fill="none"/>
<path d="M13 17.5H11V14.5H13V17.5Z" fill="#000000"/>
<path d="M12 2C14.7613 2.00016 17 4.23873 17 7H15C15 5.34326 13.6567 4.00016 12 4C10.3432 4.00004 9.00004 5.34324 9 7V10H19V18C19 20.2091 17.2091 22 15 22H9C6.79086 22 5 20.2091 5 18V10H7V7C7.00007 4.23869 9.2387 2.00004 12 2ZM7 18C7 19.1046 7.89543 20 9 20H15C16.1046 20 17 19.1046 17 18V12H7V18Z" fill="#000000"/>
</svg>
