<svg xmlns="http://www.w3.org/2000/svg" width="20" height="20" viewBox="0 0 20 20" fill="none"><rect width="20" height="20" fill="none"/>
<path d="M6.00098 7.99902C6.55287 7.99929 7.00071 8.44713 7.00098 8.99902V10.999C7.00098 11.5511 6.55304 11.9988 6.00098 11.999C5.44869 11.999 5.00098 11.5513 5.00098 10.999V8.99902C5.00124 8.44696 5.44886 7.99902 6.00098 7.99902Z" fill="#000000"/>
<path d="M14.3008 3.94922C16.3716 3.94938 18.0506 5.62838 18.0508 7.69922V12.2998C18.0508 14.3708 16.3717 16.0496 14.3008 16.0498H5.7002C3.62913 16.0498 1.9502 14.3709 1.9502 12.2998V7.69922C1.95036 5.62829 3.62923 3.94922 5.7002 3.94922H14.3008ZM5.7002 5.44922C4.45765 5.44922 3.45036 6.45671 3.4502 7.69922V12.2998C3.4502 13.5424 4.45756 14.5498 5.7002 14.5498H14.3008C15.5433 14.5496 16.5508 13.5423 16.5508 12.2998V7.69922C16.5506 6.45681 15.5432 5.44938 14.3008 5.44922H5.7002Z" fill="#000000"/>
</svg>
