<svg xmlns="http://www.w3.org/2000/svg" width="24" height="24" viewBox="0 0 24 24" fill="none"><rect width="24" height="24" fill="none"/>
<path d="M19.5 17.5C19.7761 17.5 20 17.7239 20 18V21.5H21V22.5H17V21.5H18V18.5H17V17.5H19.5Z" fill="#000000"/>
<path d="M11 2C12.6568 2.0001 14 3.34321 14 5V8H17C18.6568 8.00001 20 9.34316 20 11V12.1572C19.6849 12.0554 19.349 12 19 12C16.5 12 15 13.5 15 15.5V22H4V2H11Z" fill="#000000"/>
<path d="M19 14C19.6904 14 20.25 14.5596 20.25 15.25C20.25 15.9404 19.6904 16.5 19 16.5C18.3096 16.5 17.75 15.9404 17.75 15.25C17.75 14.5596 18.3096 14 19 14Z" fill="#000000"/>
</svg>
