<svg xmlns="http://www.w3.org/2000/svg" width="20" height="20" viewBox="0 0 20 20" fill="none"><rect width="20" height="20" fill="none"/>
<path d="M16.9746 11C18.3691 11 19.5 12.1309 19.5 13.5254C19.4998 14.9197 18.369 16.0498 16.9746 16.0498H15.5V17H17V18H15.5V19H14V18H13V17H14V16.0498H13V14.5498H14V11H16.9746ZM15.5 14.5498H16.9746C17.5406 14.5498 17.9998 14.0913 18 13.5254C18 12.9593 17.5407 12.5 16.9746 12.5H15.5V14.5498Z" fill="#000000"/>
<path d="M18 4.5791L17.9844 5.07422C17.9481 5.80948 17.8268 7.28832 17.4268 9H15.8838C16.1452 7.96666 16.2974 7.00102 16.3848 6.22949C16.4084 6.0207 16.4245 5.82695 16.4395 5.65137L10 3.5752L3.55957 5.65137C3.57453 5.82697 3.59159 6.02067 3.61523 6.22949C3.73276 7.26751 3.96685 8.65709 4.42773 10.0898C5.33095 12.8975 6.98195 15.5347 10 16.4434C10.3517 16.3375 10.6844 16.207 11 16.0566V17.6885C10.6812 17.8087 10.3485 17.914 10 18C2.99951 16.2729 2.1249 7.29152 2.01562 5.07422L2 4.5791L10 2L18 4.5791Z" fill="#000000"/>
</svg>
