<svg xmlns="http://www.w3.org/2000/svg" width="20" height="20" viewBox="0 0 20 20" fill="none"><rect width="20" height="20" fill="none"/>
<path d="M19.0303 12.0303L12.0303 19.0303L10.9697 17.9697L17.9697 10.9697L19.0303 12.0303Z" fill="#000000"/>
<path d="M17.5 16C18.3284 16 19 16.6716 19 17.5C19 18.3284 18.3284 19 17.5 19C16.6716 19 16 18.3284 16 17.5C16 16.6716 16.6716 16 17.5 16Z" fill="#000000"/>
<path d="M17.0498 7.08691V9H15.5498V7.91113L10 4.3877L4.4502 7.91113V15.5498H9V17.0498H2.9502V7.08789L9.59863 2.86719L10 2.61133L17.0498 7.08691Z" fill="#000000"/>
<path d="M12.5 11C13.3284 11 14 11.6716 14 12.5C14 13.3284 13.3284 14 12.5 14C11.6716 14 11 13.3284 11 12.5C11 11.6716 11.6716 11 12.5 11Z" fill="#000000"/>
</svg>
