<svg xmlns="http://www.w3.org/2000/svg" width="20" height="20" viewBox="0 0 20 20" fill="none"><rect width="20" height="20" fill="none"/>
<path d="M10.5 9C10.7761 9 11 9.22386 11 9.5V13H11.5V14H8.5V13H9V10H8.5V9H10.5Z" fill="#000000"/>
<path d="M10 5.75C10.6904 5.75 11.25 6.30964 11.25 7C11.25 7.69036 10.6904 8.25 10 8.25C9.30964 8.25 8.75 7.69036 8.75 7C8.75 6.30964 9.30964 5.75 10 5.75Z" fill="#000000"/>
<path d="M10 2C14.4183 2 18 5.58172 18 10C18 14.4183 14.4183 18 10 18C5.58172 18 2 14.4183 2 10C2 5.58172 5.58172 2 10 2ZM10 4C6.68629 4 4 6.68629 4 10C4 13.3137 6.68629 16 10 16C13.3137 16 16 13.3137 16 10C16 6.68629 13.3137 4 10 4Z" fill="#000000"/>
</svg>
