<svg xmlns="http://www.w3.org/2000/svg" width="20" height="20" viewBox="0 0 20 20" fill="none"><rect width="20" height="20" fill="none"/>
<path d="M14.25 2C15.7688 2 17 3.23122 17 4.75V8.75C17 10.2688 15.7688 11.5 14.25 11.5H12.5889L11.8379 13L12.5078 14.3389C13.0464 13.5372 13.9616 13.0098 15 13.0098C16.6569 13.0098 18 14.3529 18 16.0098C18 17.6666 16.6569 19.0098 15 19.0098C13.7132 19.0098 12.6185 18.1986 12.1924 17.0605L10.999 14.6758L9.79199 17.0918C9.35509 18.2082 8.27125 19 7 19C5.34315 19 4 17.6569 4 16C4 14.3431 5.34315 13 7 13C8.0402 13 8.95598 13.5299 9.49414 14.334L10.1611 12.999L7.5 7.67676C7.12964 6.93605 7.42997 6.03496 8.1709 5.66504L10.3389 10H14.25C14.9404 10 15.5 9.44036 15.5 8.75V7H11V5.5H15.5V4.75C15.5 4.05964 14.9404 3.5 14.25 3.5H5.75C5.05964 3.5 4.5 4.05964 4.5 4.75V8.75C4.5 9.44036 5.05964 10 5.75 10H6.76953V11.5H5.75C4.23122 11.5 3 10.2688 3 8.75V4.75C3 3.23122 4.23122 2 5.75 2H14.25ZM15 14.5098C14.1716 14.5098 13.5 15.1813 13.5 16.0098C13.5 16.1655 13.5233 16.3158 13.5674 16.457L13.6709 16.665L13.6553 16.6719C13.9 17.1679 14.4095 17.5098 15 17.5098C15.8284 17.5098 16.5 16.8382 16.5 16.0098C16.5 15.1813 15.8284 14.5098 15 14.5098ZM7 14.5C6.17157 14.5 5.5 15.1716 5.5 16C5.5 16.8284 6.17157 17.5 7 17.5C7.58724 17.5 8.09358 17.1615 8.33984 16.6699L8.3291 16.665L8.41602 16.4902C8.46925 16.3364 8.5 16.1719 8.5 16C8.5 15.1716 7.82843 14.5 7 14.5Z" fill="#000000"/>
</svg>
