<svg xmlns="http://www.w3.org/2000/svg" width="24" height="24" viewBox="0 0 24 24" fill="none"><rect width="24" height="24" fill="none"/>
<path d="M13 14H11V8.5H13V14Z" fill="#000000"/>
<path d="M12 4C14.1247 4 16.0766 4.7374 17.6162 5.96875L19.293 4.29297L20.707 5.70703L19.0303 7.38281C20.2621 8.92256 21 10.8748 21 13C21 17.9706 16.9706 22 12 22C7.02944 22 3 17.9706 3 13C3 8.02944 7.02944 4 12 4ZM12 6C8.13401 6 5 9.13401 5 13C5 16.866 8.13401 20 12 20C15.866 20 19 16.866 19 13C19 9.13401 15.866 6 12 6Z" fill="#000000"/>
<path d="M15 3H9V1H15V3Z" fill="#000000"/>
</svg>
