<svg xmlns="http://www.w3.org/2000/svg" width="20" height="20" viewBox="0 0 20 20" fill="none"><rect width="20" height="20" fill="none"/>
<path d="M16 10C17.6569 10 19 11.3431 19 13V14.2695C19.5974 14.6153 20 15.26 20 16V18C20 19.1046 19.1046 20 18 20H14C12.8954 20 12 19.1046 12 18V16C12 15.2601 12.4027 14.6155 13 14.2695V13C13 11.3431 14.3431 10 16 10ZM14 18H18V16H14V18ZM16 12C15.4477 12 15 12.4477 15 13V14H17V13C17 12.4477 16.5523 12 16 12Z" fill="#000000"/>
<path d="M15 2C16.6569 2 18 3.34315 18 5V8H16V5C16 4.44772 15.5523 4 15 4H5C4.44772 4 4 4.44772 4 5V15C4 15.5523 4.44772 16 5 16H10V18H5C3.34315 18 2 16.6569 2 15V5C2 3.34315 3.34315 2 5 2H15Z" fill="#000000"/>
<path d="M10 12H6V10H10V12Z" fill="#000000"/>
<path d="M13 8H6V6H13V8Z" fill="#000000"/>
</svg>
