<svg xmlns="http://www.w3.org/2000/svg" width="20" height="20" viewBox="0 0 20 20" fill="none"><rect width="20" height="20" fill="none"/>
<path d="M18.707 17.293L17.293 18.707L13.3916 14.8057C12.8441 15.53 11.9781 16 11 16H5C3.34315 16 2 14.6569 2 13V7C2 6.02207 2.46919 5.1551 3.19336 4.60742L1.29297 2.70703L2.70703 1.29297L18.707 17.293ZM4.64941 6.06348C4.27011 6.20553 4 6.57111 4 7V13C4 13.5523 4.44772 14 5 14H11C11.4291 14 11.7936 13.7292 11.9355 13.3496L4.64941 6.06348Z" fill="#000000"/>
<path d="M11 4C12.4926 4 13.7301 5.09012 13.9609 6.51758L16.5215 5.12207C16.8313 4.95322 17.2073 4.95954 17.5107 5.13965C17.8142 5.31981 18 5.64707 18 6V14C18 14.0269 17.9963 14.0535 17.9941 14.0801L16 12.0859V7.68359L14 8.77441V10.0859L12 8.08594V7C12 6.44772 11.5523 6 11 6H9.91406L7.91406 4H11Z" fill="#000000"/>
</svg>
