<svg xmlns="http://www.w3.org/2000/svg" width="24" height="24" viewBox="0 0 24 24" fill="none"><rect width="24" height="24" fill="none"/>
<path d="M19 15.916C19 17.2525 18.2902 18.4887 17.1357 19.1621C13.9622 21.0133 10.0378 21.0133 6.86426 19.1621C5.70984 18.4887 5 17.2525 5 15.916V12.8545L10.6582 15.6836L10.6611 15.6846L12 16.3516L13.3389 15.6846L13.3418 15.6836L19 12.8535V15.916Z" fill="#000000"/>
<path d="M21.4473 7.60547C21.786 7.77484 21.9999 8.12129 22 8.5V13H20V10.1182L12.4473 13.8945L12 14.1172L11.5527 13.8945L2.55273 9.39453C2.21402 9.22513 2.00001 8.87872 2 8.5C2.00005 8.12131 2.21403 7.77485 2.55273 7.60547L12 2.88184L21.4473 7.60547Z" fill="#000000"/>
</svg>
