<svg xmlns="http://www.w3.org/2000/svg" width="24" height="24" viewBox="0 0 24 24" fill="none"><rect width="24" height="24" fill="none"/>
<path d="M19 17H22V19H19V22H17V19H14V17H17V14H19V17Z" fill="#000000"/>
<path d="M12.5674 3.00004C15.1734 2.06406 17.9196 3.99579 17.9199 6.76469V6.99906H18C20.2089 6.99906 21.9996 8.79023 22 10.9991V12H20V10.9991C19.9996 9.8948 19.1043 8.99906 18 8.99906H6C4.89565 8.99906 4.00036 9.8948 4 10.9991V16.9991C4.00006 18.1036 4.89547 18.9991 6 18.9991H12V20.9991H6C3.7909 20.9991 2.00006 19.2081 2 16.9991V9.60941C2.00022 7.92196 3.05939 6.41536 4.64746 5.84477L12.5674 3.00004ZM15.9199 6.76469C15.9196 5.38041 14.546 4.41399 13.2432 4.88188L7.34961 6.99906H15.9199V6.76469Z" fill="#000000"/>
<path d="M16.0186 12H15.9814C15.9876 12 15.9938 11.9991 16 11.9991C16.0062 11.9991 16.0124 12 16.0186 12Z" fill="#000000"/>
</svg>
