<svg xmlns="http://www.w3.org/2000/svg" width="24" height="24" viewBox="0 0 24 24" fill="none"><rect width="24" height="24" fill="none"/>
<path fill-rule="evenodd" clip-rule="evenodd" d="M18.3778 3C20.0345 3.00014 21.3778 4.34323 21.3778 6V12.1055C21.3778 12.9589 21.0137 13.7727 20.3778 14.3418L13.7879 20.2383C12.1378 21.7142 9.60163 21.5696 8.13069 19.915L4.00959 15.2783C2.60327 13.6956 2.67393 11.2904 4.17072 9.79297L10.0848 3.87891C10.6471 3.31665 11.4107 3.00031 12.2059 3H18.3778ZM15.8778 7C15.0497 7.00046 14.3778 7.67185 14.3778 8.5C14.3778 9.32815 15.0497 9.99954 15.8778 10C16.7061 9.99986 17.3778 9.32834 17.3778 8.5C17.3778 7.67166 16.7061 7.00014 15.8778 7Z" fill="#000000"/>
</svg>
