<svg xmlns="http://www.w3.org/2000/svg" width="20" height="20" viewBox="0 0 20 20" fill="none"><rect width="20" height="20" fill="none"/>
<path d="M5.92606 3.24783C7.04042 3.06218 8.1788 3.35621 9.06082 4.05154L9.23367 4.1951L12.428 7.02127C13.9675 6.70712 15.5741 6.95176 16.9544 7.71854C18.6478 8.65957 18.296 11.1924 16.4104 11.6365L13.5784 12.3025L12.0784 15.1492C11.4958 16.2542 10.4297 17.0237 9.19754 17.2293L7.66434 17.4851C7.34773 17.5377 7.02426 17.4346 6.79617 17.2088C6.56833 16.9828 6.46242 16.6605 6.51199 16.3435L6.90067 13.8728L5.21414 14.2703C3.10625 14.766 1.1817 12.9324 1.57645 10.8025L1.87625 9.18729C2.0763 8.11617 3.31465 7.60893 4.20731 8.22928L5.19168 8.91385L6.08426 8.67947L3.75321 5.1824L3.75223 5.18143C3.3128 4.51906 3.70066 3.62098 4.4866 3.48807L4.48856 3.48709L5.92606 3.24783ZM9.00321 13.3787L8.7034 15.2849L8.86844 15.2566C9.4844 15.1539 10.0175 14.7689 10.3089 14.2166L10.9973 12.909L9.00321 13.3787ZM6.25516 5.22049L6.18875 5.23123L8.45535 8.62869C8.46175 8.63825 8.4705 8.64986 8.50125 8.69119C8.69929 8.9575 8.75238 9.30566 8.64285 9.61893C8.53305 9.93204 8.27425 10.171 7.9534 10.2556L5.25614 10.9666C4.97304 11.0411 4.67036 10.9881 4.42996 10.8211L3.70047 10.3133L3.54227 11.1678C3.41114 11.8768 4.05239 12.4878 4.75516 12.323L15.9514 9.68924C15.9924 9.6796 16.0085 9.66538 16.0159 9.65701C16.027 9.64417 16.0397 9.6201 16.0442 9.58865C16.0485 9.55726 16.0425 9.53088 16.0354 9.51541C16.0307 9.50547 16.0202 9.48803 15.9837 9.46756C14.946 8.89109 13.7241 8.73684 12.5764 9.03885L12.5755 9.03982L12.4095 9.08279C12.0871 9.16703 11.7431 9.08475 11.4934 8.86404L7.90848 5.69412C7.45725 5.29558 6.84936 5.12159 6.25516 5.22049Z" fill="#000000"/>
</svg>
