<svg xmlns="http://www.w3.org/2000/svg" width="24" height="24" viewBox="0 0 24 24" fill="none"><rect width="24" height="24" fill="none"/>
<path d="M5 19H21V21H3V3H5V19Z" fill="#000000"/>
<path d="M19.5 4C20.3284 4 21 4.67157 21 5.5C21 6.22574 20.4845 6.8308 19.7998 6.96973L17.4268 11.0381C17.4739 11.1837 17.5 11.3387 17.5 11.5C17.5 12.3284 16.8284 13 16 13C15.2588 13 14.6439 12.4623 14.5225 11.7559L12.417 10.4395C12.3603 10.4558 12.3024 10.4688 12.2432 10.4785L9.94238 14.0938C9.97874 14.2231 10 14.359 10 14.5C10 15.3284 9.32843 16 8.5 16C7.67157 16 7 15.3284 7 14.5C7 13.7551 7.54318 13.1386 8.25488 13.0215L10.5566 9.4043C10.5207 9.27556 10.5 9.14022 10.5 9C10.5 8.17157 11.1716 7.5 12 7.5C12.7408 7.5 13.3546 8.03723 13.4766 8.74316L15.582 10.0596C15.6206 10.0484 15.6595 10.0374 15.6992 10.0293L18.0723 5.96094C18.0254 5.8157 18 5.66082 18 5.5C18 4.67157 18.6716 4 19.5 4Z" fill="#000000"/>
</svg>
