<svg xmlns="http://www.w3.org/2000/svg" width="20" height="20" viewBox="0 0 20 20" fill="none"><rect width="20" height="20" fill="none"/>
<path d="M19.207 12.207L12.207 19.207L10.793 17.793L17.793 10.793L19.207 12.207Z" fill="#000000"/>
<path d="M17.5 16C18.3284 16 19 16.6716 19 17.5C19 18.3284 18.3284 19 17.5 19C16.6716 19 16 18.3284 16 17.5C16 16.6716 16.6716 16 17.5 16Z" fill="#000000"/>
<path d="M13.2139 2C14.7524 2 16 3.24763 16 4.78613V5C16 5.351 15.9369 5.68694 15.8262 6H16C17.1046 6 18 6.89543 18 8V9H16V8H4V10H9V12H5V15C5 15.5523 5.44772 16 6 16H9V18H6C4.34315 18 3 16.6569 3 15V11.7295C2.4029 11.3835 2 10.7398 2 10V8C2 6.89543 2.89543 6 4 6H4.17383C4.06306 5.68694 4 5.351 4 5V4.78613C4 3.24763 5.24762 2 6.78613 2C8.07426 2.00013 9.22706 2.57844 10 3.48926C10.7729 2.57844 11.9257 2.00013 13.2139 2ZM6.78613 4C6.3522 4 6 4.35219 6 4.78613V5C6 5.55228 6.44772 6 7 6H8.98926C8.88147 4.87779 7.93655 4.00021 6.78613 4ZM13.2139 4C12.0634 4.00021 11.1185 4.87779 11.0107 6H13C13.5523 6 14 5.55228 14 5V4.78613C14 4.35219 13.6478 4 13.2139 4Z" fill="#000000"/>
<path d="M12.5 11C13.3284 11 14 11.6716 14 12.5C14 13.3284 13.3284 14 12.5 14C11.6716 14 11 13.3284 11 12.5C11 11.6716 11.6716 11 12.5 11Z" fill="#000000"/>
</svg>
