<svg xmlns="http://www.w3.org/2000/svg" width="24" height="24" viewBox="0 0 24 24" fill="none"><rect width="24" height="24" fill="none"/>
<path d="M12.0001 8.5C12.9893 8.5 13.9939 8.65513 15.0949 8.97754L15.8537 9.23047C17.7059 9.8479 19.1421 11.3282 19.7033 13.1982L20.4132 15.5635C21.3754 18.7713 18.9732 21.9998 15.6242 22H8.37612C5.02726 21.9996 2.62498 18.7712 3.58706 15.5635L4.29702 13.1982C4.85812 11.3285 6.29378 9.84806 8.14565 9.23047L8.89565 8.97949C10.0004 8.65516 11.0081 8.50002 12.0001 8.5ZM12.0001 12C10.8957 12.0001 10.0001 12.8955 10.0001 14C10.0001 15.1045 10.8957 15.9999 12.0001 16C13.1047 16 14.0001 15.1046 14.0001 14C14.0001 12.8954 13.1047 12 12.0001 12Z" fill="#000000"/>
<path d="M12.0001 2C13.2264 2 14.3909 2.45223 15.1974 2.85547C15.6109 3.0622 15.9553 3.26919 16.1974 3.4248C16.3184 3.50258 16.4153 3.56848 16.4835 3.61621C16.5175 3.64 16.5451 3.65966 16.5646 3.67383C16.5742 3.6808 16.5821 3.68703 16.588 3.69141C16.5908 3.69346 16.5939 3.69491 16.5958 3.69629L16.5978 3.69824L16.5998 3.69922C16.5978 3.7023 16.563 3.74955 16.0001 4.5L16.5998 3.69922C16.8234 3.86692 16.9671 4.12135 16.9953 4.39941C17.0233 4.67765 16.933 4.95505 16.7472 5.16406L15.1808 6.9248C14.1012 6.64484 13.0565 6.5 12.0001 6.5C10.9435 6.50002 9.89847 6.64467 8.81851 6.9248L7.25308 5.16406C7.06743 4.95508 6.97703 4.67755 7.00503 4.39941C7.03313 4.12141 7.17705 3.8679 7.40054 3.7002L8.00015 4.5C7.41132 3.7147 7.40054 3.7002 7.40054 3.7002L7.40444 3.69629C7.40634 3.69488 7.40944 3.69343 7.41226 3.69141C7.41812 3.68708 7.4261 3.6808 7.43569 3.67383C7.45518 3.65969 7.48272 3.64003 7.51675 3.61621C7.5849 3.56852 7.68185 3.50261 7.80288 3.4248C8.0449 3.26925 8.38946 3.06219 8.80288 2.85547C9.60937 2.45227 10.774 2.00018 12.0001 2Z" fill="#000000"/>
</svg>
