<svg xmlns="http://www.w3.org/2000/svg" width="20" height="20" viewBox="0 0 20 20" fill="none"><rect width="20" height="20" fill="none"/>
<path d="M4.33691 5.25013C5.62979 5.25013 6.83229 5.91652 7.51758 7.01282L10.7549 12.1925C11.166 12.8504 11.8873 13.2501 12.6631 13.2501H13.5V12.0001C13.5001 11.822 13.595 11.6569 13.749 11.5675C13.903 11.4783 14.0934 11.4774 14.248 11.5656L17.748 13.5656C17.9037 13.6545 17.9999 13.8209 18 14.0001C18 14.1795 17.9037 14.3457 17.748 14.4347L14.248 16.4347C14.0934 16.523 13.9031 16.5221 13.749 16.4327C13.595 16.3433 13.5 16.1783 13.5 16.0001V14.7501H12.6631C11.3701 14.7501 10.1677 14.0839 9.48242 12.9874L8.49902 11.4152L7.51758 12.9874C6.83231 14.0839 5.62988 14.7501 4.33691 14.7501H3V13.2501H4.33691C5.11269 13.2501 5.83396 12.8504 6.24512 12.1925L7.61426 9.99915L6.24512 7.80775C5.83393 7.15002 5.11261 6.75013 4.33691 6.75013H3V5.25013H4.33691Z" fill="#000000"/>
<path d="M13.749 3.56751C13.903 3.47826 14.0934 3.47739 14.248 3.56556L17.748 5.56556C17.9037 5.65451 17.9999 5.82085 18 6.00013C18 6.17949 17.9037 6.34565 17.748 6.4347L14.248 8.4347C14.0934 8.523 13.9031 8.52213 13.749 8.43275C13.595 8.34326 13.5 8.1783 13.5 8.00013V6.75013H12.6631C11.8874 6.75013 11.1661 7.15002 10.7549 7.80775L10.1963 8.69935L9.3125 7.28431L9.48242 7.01282C10.1677 5.91652 11.3702 5.25013 12.6631 5.25013H13.5V4.00013C13.5001 3.82205 13.595 3.65691 13.749 3.56751Z" fill="#000000"/>
</svg>
