<svg xmlns="http://www.w3.org/2000/svg" width="24" height="24" viewBox="0 0 24 24" fill="none"><rect width="24" height="24" fill="none"/>
<path d="M12 2C14.7614 2 17 4.23858 17 7H19.9258L20.3106 12H18.3047L18.0742 9H5.92579L5.08009 20H14V22H4.00001C3.72161 22 3.45584 21.8839 3.26661 21.6797C3.07737 21.4753 2.98158 21.2006 3.00294 20.9229L4.07423 7H7.00001C7.00001 4.23859 9.2386 2.00002 12 2ZM12 4C10.3432 4.00002 9.00001 5.34316 9.00001 7H15C15 5.34315 13.6569 4 12 4Z" fill="#000000"/>
<path d="M19 19C20.6569 19 22 20.3431 22 22H16C16 20.3431 17.3432 19 19 19Z" fill="#000000"/>
<path d="M19 14C20.1046 14 21 14.8954 21 16C21 17.1046 20.1046 18 19 18C17.8954 18 17 17.1046 17 16C17 14.8954 17.8954 14 19 14Z" fill="#000000"/>
<path d="M9.00001 13H7.00001V10H9.00001V13Z" fill="#000000"/>
<path d="M17 12.9883H15V10H17V12.9883Z" fill="#000000"/>
</svg>
