<svg xmlns="http://www.w3.org/2000/svg" width="20" height="20" viewBox="0 0 20 20" fill="none"><rect width="20" height="20" fill="none"/>
<path d="M7.5 11C8.32843 11 9 11.6716 9 12.5C9 13.3284 8.32843 14 7.5 14C6.67157 14 6 13.3284 6 12.5C6 11.6716 6.67157 11 7.5 11Z" fill="#000000"/>
<path d="M12.5 11C13.3284 11 14 11.6716 14 12.5C14 13.3284 13.3284 14 12.5 14C11.6716 14 11 13.3284 11 12.5C11 11.6716 11.6716 11 12.5 11Z" fill="#000000"/>
<path d="M7.5 6C8.32843 6 9 6.67157 9 7.5C9 8.32843 8.32843 9 7.5 9C6.67157 9 6 8.32843 6 7.5C6 6.67157 6.67157 6 7.5 6Z" fill="#000000"/>
<path d="M12.5 6C13.3284 6 14 6.67157 14 7.5C14 8.32843 13.3284 9 12.5 9C11.6716 9 11 8.32843 11 7.5C11 6.67157 11.6716 6 12.5 6Z" fill="#000000"/>
</svg>
