<svg xmlns="http://www.w3.org/2000/svg" width="24" height="24" viewBox="0 0 24 24" fill="none"><rect width="24" height="24" fill="none"/>
<path d="M5.5 15C7.433 15 9 16.567 9 18.5C9 20.433 7.433 22 5.5 22C3.567 22 2 20.433 2 18.5C2 16.567 3.567 15 5.5 15Z" fill="#000000"/>
<path d="M13 6.5H8.5C7.39543 6.5 6.5 7.39543 6.5 8.5C6.50014 9.60445 7.39551 10.5 8.5 10.5H15.5C18.2613 10.5001 20.5 12.7386 20.5 15.5C20.4999 18.2613 18.2613 20.4999 15.5 20.5H11V17.5H15.5C16.6044 17.4999 17.4999 16.6044 17.5 15.5C17.5 14.3955 16.6045 13.5001 15.5 13.5H8.5C5.73866 13.5 3.50014 11.2613 3.5 8.5C3.5 5.73858 5.73858 3.5 8.5 3.5H13V6.5Z" fill="#000000"/>
<path d="M18.5 2C20.433 2 22 3.567 22 5.5C22 7.433 20.433 9 18.5 9C16.567 9 15 7.433 15 5.5C15 3.567 16.567 2 18.5 2Z" fill="#000000"/>
</svg>
