<svg xmlns="http://www.w3.org/2000/svg" width="20" height="20" viewBox="0 0 20 20" fill="none"><rect width="20" height="20" fill="none"/>
<path d="M16.4994 15C16.7755 15.0001 16.9994 15.2239 16.9994 15.5V18H17.4994V19L14.9994 18.999V17.999H15.4994V15.999H14.9994V14.999L16.4994 15Z" fill="#000000"/>
<path d="M9.99749 2C11.0011 2.00022 11.9749 2.28386 12.6713 2.54883C13.0244 2.68323 13.3209 2.8183 13.5287 2.91992C13.6322 2.97052 13.7158 3.01402 13.7739 3.04492C13.8022 3.06002 13.826 3.07307 13.8422 3.08203C13.8499 3.08624 13.858 3.09014 13.8627 3.09277C13.8646 3.09394 13.8686 3.09668 13.8686 3.09668L13.8705 3.09766L13.8715 3.09863C14.0702 3.21235 14.2073 3.41129 14.2416 3.6377C14.2759 3.86405 14.2043 4.09424 14.0483 4.26172L11.2455 7.2627L13.9223 8.53711C14.6328 8.8756 15.2397 9.38149 15.6977 10H13.4828C13.416 9.9621 13.3476 9.92489 13.2778 9.8916L10.0004 8.33008L6.72308 9.8916C5.87211 10.2971 5.23859 11.0523 4.98773 11.9609L4.52093 13.6514C4.12579 15.0839 5.20399 16.4995 6.68987 16.5H13.0004V18H6.68987C4.21315 17.9995 2.41706 15.6406 3.07562 13.2529L3.54144 11.5625C3.90803 10.2341 4.83444 9.12973 6.07855 8.53711L8.7514 7.26367L5.95159 4.26172C5.79557 4.09424 5.72497 3.86403 5.75921 3.6377C5.79354 3.41146 5.92981 3.21241 6.12835 3.09863L6.13128 3.09668C6.13128 3.09668 6.13532 3.09474 6.13714 3.09375C6.14182 3.09113 6.14928 3.0871 6.15667 3.08301C6.17299 3.07399 6.19759 3.06108 6.22601 3.0459C6.284 3.01492 6.36701 2.97052 6.47015 2.91992C6.67756 2.81822 6.9732 2.68325 7.32562 2.54883C8.02105 2.28371 8.99364 2.00009 9.99749 2ZM9.99749 3.5C9.25285 3.50009 8.47495 3.71666 7.8598 3.95117C7.82416 3.96478 7.7885 3.98056 7.75433 3.99414L9.99749 6.40039L12.2446 3.99414C12.2101 3.9805 12.174 3.96487 12.1381 3.95117C11.5214 3.71652 10.7423 3.50023 9.99749 3.5Z" fill="#000000"/>
<path d="M16.2494 12C16.8016 12.0001 17.2494 12.4478 17.2494 13C17.2494 13.5522 16.8016 13.9999 16.2494 14C15.6974 13.9997 15.2494 13.5521 15.2494 13C15.2494 12.4479 15.6974 12.0003 16.2494 12Z" fill="#000000"/>
</svg>
