<svg xmlns="http://www.w3.org/2000/svg" width="24" height="24" viewBox="0 0 24 24" fill="none"><rect width="24" height="24" fill="none"/>
<g clip-path="url(#clip0_147586_8952)">
<path d="M14.293 14.293C14.5702 14.0158 14.9845 13.926 15.3516 14.0635L23.3516 17.0635C23.7335 17.207 23.9904 17.5687 24 17.9766C24.0092 18.3847 23.7688 18.7581 23.3936 18.919L20.2617 20.2608L18.9189 23.3936C18.758 23.7687 18.3847 24.0094 17.9766 24C17.5688 23.9903 17.207 23.7334 17.0635 23.3516L14.0635 15.3516C13.926 14.9846 14.0159 14.5702 14.293 14.293ZM18.0615 20.3164L18.7393 18.7383L19.1064 18.5811L20.3164 18.0615L16.709 16.709L18.0615 20.3164Z" fill="#000000"/>
<path d="M12.5674 3.00001C15.1733 2.0641 17.9195 3.99587 17.9199 6.76466V6.99903H18C20.2089 6.99903 21.9995 8.79028 22 10.999V12H20V10.999C19.9995 9.89485 19.1043 8.99903 18 8.99903H6C4.89571 8.99903 4.00045 9.89485 4 10.999V16.999C4.00016 18.1035 4.89553 18.999 6 18.999H12V20.999H6C3.79096 20.999 2.00016 19.208 2 16.999V9.60938C2.00028 7.92202 3.05947 6.41533 4.64746 5.84474L12.5674 3.00001ZM15.9199 6.76466C15.9195 5.38048 14.546 4.41402 13.2432 4.88184L7.34961 6.99903H15.9199V6.76466Z" fill="#000000"/>
<path d="M16.0186 12H15.9814C15.9876 12 15.9938 11.999 16 11.999C16.0062 11.999 16.0124 12 16.0186 12Z" fill="#000000"/>
</g>
<defs>
<clipPath id="clip0_147586_8952">
<rect width="24" height="24" fill="white"/>
</clipPath>
</defs>
</svg>
