<svg xmlns="http://www.w3.org/2000/svg" width="20" height="20" viewBox="0 0 20 20" fill="none"><rect width="20" height="20" fill="none"/>
<path d="M11.2926 2.29288C11.6041 1.98143 12.0829 1.9105 12.4714 2.11807C12.8599 2.326 13.0666 2.7641 12.9801 3.1962L12.1296 7.4462L15.4469 9.10538C15.7344 9.24911 15.9355 9.52252 15.987 9.83975C16.0384 10.157 15.934 10.4797 15.7067 10.7069L8.70671 17.7069C8.39516 18.0183 7.91642 18.0895 7.528 17.8817C7.1397 17.6737 6.93282 17.2356 7.01921 16.8036L7.86882 12.5526L4.55241 10.8944C4.26509 10.7506 4.06384 10.4772 4.01237 10.1601C3.96097 9.84291 4.06551 9.52012 4.29265 9.29288L11.2926 2.29288ZM6.68718 9.7255L9.44694 11.1054C9.85028 11.307 10.0686 11.754 9.98015 12.1962L9.62761 13.9569L13.3112 10.2733L10.5524 8.89444C10.1493 8.69269 9.93081 8.24568 10.0192 7.80362L10.3708 6.0419L6.68718 9.7255Z" fill="#000000"/>
</svg>
