<svg xmlns="http://www.w3.org/2000/svg" width="24" height="24" viewBox="0 0 24 24" fill="none"><rect width="24" height="24" fill="none"/>
<path d="M12 3C14.7921 3 17.2016 4.63543 18.3252 7H20V9H18.9277C18.9745 9.32657 19 9.66052 19 10C19 10.3396 18.9745 10.6733 18.9277 11H20V13H18.3252C17.2016 15.3646 14.7921 17 12 17H9V21H7V13H5V11H7V9H5V7H7V3H12ZM9 15H12C13.6357 15 15.0878 14.2142 16 13H9V15ZM9 11H16.8994C16.965 10.6769 17 10.3425 17 10C17 9.6576 16.965 9.32305 16.8994 9H9V11ZM9 7H16C15.0878 5.78576 13.6357 5 12 5H9V7Z" fill="#000000"/>
</svg>
