<svg xmlns="http://www.w3.org/2000/svg" width="24" height="24" viewBox="0 0 24 24" fill="none"><rect width="24" height="24" fill="none"/>
<path d="M12 9.00055C14.2091 9.00055 15.9999 10.7915 16 13.0006V18.0006C15.9998 20.1404 14.3193 21.8884 12.2061 21.9957L12 22.0006H7C4.79113 22.0004 3.00023 20.2094 3 18.0006V13.0006C3.00007 10.7916 4.79103 9.0007 7 9.00055H12ZM7 11.0006C5.8956 11.0007 5.00007 11.8961 5 13.0006V18.0006C5.00023 19.1048 5.8957 20.0004 7 20.0006H12C13.1044 20.0006 13.9998 19.1049 14 18.0006V13.0006C13.9999 11.896 13.1045 11.0006 12 11.0006H7Z" fill="#000000"/>
<path d="M12.2227 2.08356C12.3759 1.98143 12.5739 1.97248 12.7363 2.05915C12.8983 2.14616 12.9997 2.31571 13 2.49958V3.50055C14.4042 3.50055 15.7839 3.87077 17 4.57282C18.2158 5.27486 19.2257 6.28477 19.9277 7.50055C20.6296 8.7165 21 10.0966 21 11.5006C20.9998 12.9045 20.6297 14.2847 19.9277 15.5006L18.1963 14.5006C18.7227 13.5887 18.9998 12.5534 19 11.5006C19 10.4477 18.7226 9.41244 18.1963 8.50055C17.6697 7.58865 16.9119 6.83082 16 6.30426C15.088 5.77778 14.0531 5.50055 13 5.50055V6.49958C12.9997 6.68349 12.8984 6.85304 12.7363 6.94C12.5739 7.02672 12.3759 7.01762 12.2227 6.91559L9.22266 4.91559C9.08412 4.82295 9.00026 4.66623 9 4.49958C9.00023 4.33283 9.08401 4.1762 9.22266 4.08356L12.2227 2.08356Z" fill="#000000"/>
</svg>
