<svg xmlns="http://www.w3.org/2000/svg" width="24" height="24" viewBox="0 0 24 24" fill="none"><rect width="24" height="24" fill="none"/>
<path d="M18.0005 5C20.2094 5 22.0001 6.79123 22.0005 9V15.001C22.0005 17.2101 20.2096 19.001 18.0005 19.001H6.00049C3.79138 19.0009 2.00049 17.2101 2.00049 15.001V9C2.00092 6.79125 3.79164 5.00003 6.00049 5H18.0005ZM5.00049 10.001C4.4482 10.001 4.00049 10.4487 4.00049 11.001V13.001C4.00049 13.5533 4.4482 14.001 5.00049 14.001C5.55277 14.001 6.00049 13.5533 6.00049 13.001V11.001C6.00049 10.4487 5.55277 10.001 5.00049 10.001Z" fill="#000000"/>
</svg>
