<svg xmlns="http://www.w3.org/2000/svg" width="20" height="20" viewBox="0 0 20 20" fill="none"><rect width="20" height="20" fill="none"/>
<path d="M13.5 3C14.8638 3 16.0232 3.59431 16.8193 4.58691C17.6016 5.56224 18 6.87406 18 8.30762C18 11.3113 15.9177 13.4774 14.0918 14.8115C12.832 15.732 11.4524 16.4379 10 17C8.5457 16.4553 7.16206 15.7277 5.9082 14.8115C4.08229 13.4774 2 11.3113 2 8.30762C2.00001 6.87402 2.39841 5.56223 3.18066 4.58691C3.97682 3.5943 5.13622 3 6.5 3C7.89192 3 9.1135 3.61015 10 4.44434C10.8865 3.61015 12.1081 3 13.5 3ZM13.5 4.99023C12.4084 4.99023 11.3965 5.66829 10.8398 6.52539L10.4023 7.19922C10.2682 7.40581 10.2013 7.50915 10.1162 7.54492C10.0419 7.57617 9.95814 7.57618 9.88379 7.54492C9.79871 7.50915 9.7318 7.40581 9.59766 7.19922L9.16016 6.52539C8.60354 5.66829 7.59157 4.99023 6.5 4.99023C5.76381 4.99023 5.17299 5.29442 4.74414 5.8291C4.30143 6.3811 4.00001 7.2257 4 8.30762C4 10.3351 5.41776 11.9839 7.0918 13.207C7.90673 13.8025 8.72795 14.2557 9.34863 14.5605C9.60843 14.6881 9.83102 14.7883 10 14.8613C10.169 14.7883 10.3916 14.6881 10.6514 14.5605C11.2721 14.2557 12.0933 13.8025 12.9082 13.207C14.5822 11.9839 16 10.3351 16 8.30762C16 7.22564 15.6985 6.38108 15.2559 5.8291C14.8271 5.29445 14.2363 4.99023 13.5 4.99023Z" fill="#000000"/>
</svg>
