<svg xmlns="http://www.w3.org/2000/svg" width="20" height="20" viewBox="0 0 20 20" fill="none"><rect width="20" height="20" fill="none"/>
<path d="M12.3916 2.07628C12.5793 1.98411 12.7971 1.97464 12.9922 2.04991L17.5205 3.79991L18 3.98448V9.87413H15.5V17.9991H4.5V9.87413H2V3.98448L2.47949 3.79991L7.00781 2.04991L7.08203 2.0255C7.25693 1.97821 7.44418 1.99565 7.6084 2.07628C7.79619 2.16861 7.93749 2.33565 7.99707 2.53624L8.22266 3.29698C8.45604 4.0841 9.17898 4.62413 10 4.62413C10.821 4.62413 11.544 4.0841 11.7773 3.29698L12.0029 2.53624C12.0625 2.33565 12.2038 2.16861 12.3916 2.07628ZM13.209 3.74034C12.7814 5.15482 11.4792 6.12413 10 6.12413C8.52072 6.12413 7.21759 5.15497 6.79004 3.74034L3.5 5.0128V8.37413H6V16.4991H14V8.37413H16.5V5.0128L13.209 3.74034Z" fill="#000000"/>
</svg>
