<svg xmlns="http://www.w3.org/2000/svg" width="20" height="20" viewBox="0 0 20 20" fill="none"><rect width="20" height="20" fill="none"/>
<path d="M15.9996 14H18.9996V16H15.9996V19H13.9996V16H10.9996V14H13.9996V11H15.9996V14Z" fill="#000000"/>
<path d="M9.99965 2C11.0467 2.00011 12.0525 2.29633 12.7623 2.56641C13.1239 2.70401 13.427 2.84198 13.6403 2.94629C13.7466 2.99828 13.8328 3.04303 13.8932 3.0752C13.923 3.09105 13.9481 3.10468 13.9655 3.11426C13.9738 3.11883 13.9817 3.12304 13.987 3.12598C13.9892 3.12726 13.9938 3.12988 13.9938 3.12988L13.9957 3.13184H13.9977C13.9935 3.1397 13.9489 3.21856 13.5026 4.00098L13.9977 3.13184C14.2682 3.28643 14.4524 3.55936 14.4938 3.86816C14.5348 4.17669 14.4297 4.48786 14.2096 4.70801L11.6881 7.22656L13.8727 8.31934C14.2433 8.50469 14.5854 8.73474 14.8942 9H10.7614L9.99965 8.61914L7.02113 10.1084C6.26952 10.4845 5.7091 11.1596 5.47817 11.9678L5.05434 13.4512C4.69011 14.7282 5.64919 16.0004 6.97719 16.001H8.99867V18.001H6.97719C4.32056 18.0004 2.40155 15.4569 3.13051 12.9023L3.55531 11.418C3.94028 10.0708 4.87364 8.94618 6.1266 8.31934L8.31117 7.22656L5.79555 4.70801C5.57574 4.48792 5.47044 4.17649 5.51137 3.86816C5.55268 3.55987 5.73573 3.28759 6.00551 3.13281L6.00746 3.13184L6.01039 3.13086L6.03774 3.11523C6.05504 3.10565 6.08025 3.09207 6.11 3.07617C6.1703 3.04397 6.25663 2.99941 6.36293 2.94727C6.57577 2.84289 6.87791 2.70411 7.23891 2.56641C7.9477 2.29615 8.9524 2.00014 9.99965 2ZM9.99965 4.00098C9.40825 4.0011 8.78583 4.14697 8.24477 4.33008L10.0006 6.08594L11.7575 4.33008C11.2149 4.14682 10.5913 4.00107 9.99965 4.00098Z" fill="#000000"/>
</svg>
