<svg xmlns="http://www.w3.org/2000/svg" width="24" height="24" viewBox="0 0 24 24" fill="none"><rect width="24" height="24" fill="none"/>
<path d="M21.707 20.293L20.293 21.707L19.5859 21H5V19H6V17.8789C6 16.4256 6.52742 15.0215 7.48438 13.9277L9.1709 12L7.48438 10.0723C6.85847 9.3569 6.41754 8.50843 6.18652 7.60059L2.29297 3.70703L3.70703 2.29297L21.707 20.293ZM8.98926 15.2451C8.3515 15.9742 8 16.9102 8 17.8789V19H16V17.8789C16 17.7119 15.9883 17.546 15.9678 17.3818L11.248 12.6621L8.98926 15.2451Z" fill="#000000"/>
<path d="M19 5H18V6.12109C18 7.57438 17.4726 8.97854 16.5156 10.0723L15.335 11.4209L13.917 10.0029L15.0107 8.75488C15.6485 8.02579 16 7.08978 16 6.12109V5H8.91406L6.91406 3H19V5Z" fill="#000000"/>
</svg>
