<svg xmlns="http://www.w3.org/2000/svg" width="20" height="20" viewBox="0 0 20 20" fill="none"><rect width="20" height="20" fill="none"/>
<path d="M15 2C16.6567 2.00021 18 3.34328 18 5V11C18 12.6567 16.6567 13.9998 15 14H14V15C14 16.6569 12.6569 18 11 18H5C3.34315 18 2 16.6569 2 15V9C2 7.34315 3.34315 6 5 6H6V5C6 3.34315 7.34315 2 9 2H15ZM5 7.5C4.17157 7.5 3.5 8.17157 3.5 9V15C3.5 15.8284 4.17157 16.5 5 16.5H11C11.8284 16.5 12.5 15.8284 12.5 15V14H9C7.34315 14 6 12.6569 6 11V7.5H5ZM9 3.5C8.17157 3.5 7.5 4.17157 7.5 5V11C7.5 11.8284 8.17157 12.5 9 12.5H15C15.8282 12.4998 16.5 11.8283 16.5 11V5C16.5 4.1717 15.8282 3.50021 15 3.5H9Z" fill="#000000"/>
</svg>
