<svg xmlns="http://www.w3.org/2000/svg" width="20" height="20" viewBox="0 0 20 20" fill="none"><rect width="20" height="20" fill="none"/>
<path d="M5.36133 3.26575C6.63669 2.95196 8.39269 2.9854 10.4785 4.1222C12.0822 4.99626 13.2817 4.85849 14.0557 4.57434C14.4596 4.42598 14.773 4.22765 14.9824 4.06848C15.0862 3.98959 15.1625 3.92189 15.209 3.87805C15.2321 3.85628 15.2482 3.84008 15.2559 3.83216C15.2587 3.82919 15.2607 3.8263 15.2607 3.8263L15.2598 3.82825L15.2549 3.83313L15.3652 3.72766C15.6395 3.50226 16.0176 3.43635 16.3564 3.56555C16.7437 3.71345 16.9999 4.08561 17 4.50013V14.4454L16.668 14.7443L16.6641 14.7472C16.6625 14.7486 16.66 14.7505 16.6582 14.7521C16.6545 14.7553 16.6503 14.7597 16.6455 14.7638C16.6358 14.7721 16.6236 14.7823 16.6094 14.7941C16.5803 14.818 16.541 14.8492 16.4932 14.8849C16.3974 14.9563 16.2637 15.0488 16.0938 15.1486C15.7542 15.3479 15.2642 15.5795 14.6387 15.7335C13.3633 16.0474 11.6074 16.015 9.52148 14.8781C7.87443 13.9803 6.63005 14.0134 5.83887 14.2081C5.48225 14.296 5.20032 14.422 5 14.5314V18.0001H3V4.55384L3.33203 4.25598L4 5.00013C3.33538 4.25975 3.33301 4.25501 3.33301 4.25501L3.33594 4.25208C3.33751 4.2507 3.33999 4.24878 3.3418 4.2472C3.3454 4.24404 3.34983 4.24046 3.35449 4.23645C3.36428 4.22802 3.37618 4.21709 3.39062 4.2052C3.41973 4.18127 3.45904 4.15101 3.50684 4.11536C3.6026 4.04395 3.73636 3.95141 3.90625 3.85169C4.24584 3.65239 4.73578 3.41972 5.36133 3.26575ZM9.52148 5.87805C7.87443 4.98041 6.63008 5.01341 5.83887 5.20813C5.4823 5.29591 5.20035 5.422 5 5.53137V12.3673C5.11472 12.3309 5.23548 12.2967 5.36133 12.2657C6.63673 11.9519 8.39263 11.9852 10.4785 13.1222C12.1256 14.02 13.3699 13.9869 14.1611 13.7921C14.5182 13.7042 14.7996 13.5764 15 13.4669V6.35071C14.9178 6.38559 14.8329 6.42003 14.7451 6.45227C13.4524 6.92685 11.6511 7.03875 9.52148 5.87805Z" fill="#000000"/>
</svg>
