<svg xmlns="http://www.w3.org/2000/svg" width="20" height="20" viewBox="0 0 20 20" fill="none"><rect width="20" height="20" fill="none"/>
<path d="M19 12.5C19 12.5 19 17.5 15 19C11 17.5 11 12.5 11 12.5L15 11L19 12.5ZM12.6084 13.498C12.6706 13.8519 12.7677 14.2651 12.917 14.6943C13.2805 15.7394 13.9053 16.7541 15 17.3535C16.0947 16.7541 16.7195 15.7394 17.083 14.6943C17.2323 14.2652 17.3284 13.8519 17.3906 13.498L15 12.6016L12.6084 13.498Z" fill="#000000"/>
<path d="M13.4336 3.25C14.0483 3.25002 14.6183 3.57251 14.9346 4.09961L16.375 6.5H18.5V7C18.5 7.55228 18.0523 8 17.5 8H17.2754L17.6436 8.61426L17.7695 8.8252L17.7539 9H16.125L13.6484 4.87109C13.6033 4.79586 13.5214 4.75002 13.4336 4.75H6.56641C6.47864 4.75 6.39676 4.79586 6.35156 4.87109L3.76953 9.17383L4.18262 13.5498H9V15.0498H4.75V16.5H3.25V15.0498H2.81738L2.25293 9.07031L2.23047 8.8252L2.35645 8.61426L2.72461 8H2.5C1.94772 8 1.5 7.55228 1.5 7V6.5H3.625L5.06543 4.09961C5.3817 3.57251 5.9517 3.25 6.56641 3.25H13.4336Z" fill="#000000"/>
<path d="M6.57129 9.14355C7.04458 9.14355 7.42856 9.52674 7.42871 10C7.42871 10.4734 7.04468 10.8574 6.57129 10.8574H5.71484C5.24146 10.8574 4.85742 10.4734 4.85742 10C4.85757 9.52674 5.24155 9.14355 5.71484 9.14355H6.57129Z" fill="#000000"/>
</svg>
