<svg xmlns="http://www.w3.org/2000/svg" width="20" height="20" viewBox="0 0 20 20" fill="none"><rect width="20" height="20" fill="none"/>
<path d="M10.0048 2C11.0523 2.00003 12.0575 2.29527 12.7675 2.56543C13.1295 2.70319 13.4321 2.84093 13.6455 2.94531C13.7522 2.99752 13.8379 3.04199 13.8984 3.07422C13.9286 3.09031 13.9532 3.10363 13.9707 3.11328C13.9794 3.11809 13.9868 3.12198 13.9922 3.125C13.9948 3.12648 13.9972 3.12788 13.999 3.12891L14.0009 3.13086H14.0029C14.0029 3.13086 13.9937 3.14826 13.5078 4L14.0029 3.13086C14.2737 3.28541 14.4575 3.55816 14.499 3.86719C14.5404 4.17602 14.4351 4.48665 14.2148 4.70703L11.6914 7.22754L13.873 8.31836C15.1266 8.94513 16.0602 10.0694 16.4453 11.417L16.8691 12.9014C17.5989 15.4565 15.6797 17.9999 13.0224 18H6.97751C4.32009 18 2.40101 15.4565 3.13083 12.9014L3.55563 11.417C3.94069 10.0696 4.87352 8.94512 6.12692 8.31836L8.3154 7.22363L5.80075 4.70703C5.58058 4.48669 5.47527 4.17592 5.51657 3.86719C5.55792 3.5586 5.74052 3.28653 6.01071 3.13184L6.01266 3.13086L6.01559 3.12988L6.04294 3.11426C6.0604 3.10459 6.08503 3.09131 6.1152 3.0752C6.17566 3.04291 6.26139 2.99864 6.36813 2.94629C6.58113 2.84183 6.88267 2.70327 7.24411 2.56543C7.95308 2.29509 8.95724 2 10.0048 2ZM7.02145 10.1074C6.2694 10.4835 5.70951 11.1583 5.47848 11.9668L5.05465 13.4502C4.68957 14.7278 5.64872 16 6.97751 16H13.0224C14.3511 15.9999 15.3102 14.7278 14.9453 13.4502L14.5215 11.9668C14.2904 11.1582 13.7306 10.4835 12.9785 10.1074L9.99997 8.61816L7.02145 10.1074ZM10.0048 4C9.41315 4 8.79131 4.14588 8.24997 4.3291L10.0058 6.08496L11.7627 4.3291C11.2199 4.14572 10.5968 4.00003 10.0048 4Z" fill="#000000"/>
</svg>
