<svg xmlns="http://www.w3.org/2000/svg" width="24" height="24" viewBox="0 0 24 24" fill="none"><rect width="24" height="24" fill="none"/>
<path d="M13 7C14.933 7 16.5 8.567 16.5 10.5C16.5 12.433 14.933 14 13 14H12V15H14V16H12V17H10V16H8.5V15H10V14H8.5V12H10V7H13ZM12 12H13C13.8284 12 14.5 11.3284 14.5 10.5C14.5 9.67157 13.8284 9 13 9H12V12Z" fill="#000000"/>
<path d="M17 3C19.2091 3 21 4.79086 21 7V17C21 19.2091 19.2091 21 17 21H7C4.79086 21 3 19.2091 3 17V7C3 4.79086 4.79086 3 7 3H17ZM7 5C5.89543 5 5 5.89543 5 7V17C5 18.1046 5.89543 19 7 19H17C18.1046 19 19 18.1046 19 17V7C19 5.89543 18.1046 5 17 5H7Z" fill="#000000"/>
</svg>
