<svg xmlns="http://www.w3.org/2000/svg" width="20" height="20" viewBox="0 0 20 20" fill="none"><rect width="20" height="20" fill="none"/>
<path d="M14 6C14.5523 6 15 6.44772 15 7V9C15 9.55228 14.5523 10 14 10H10C9.44772 10 9 9.55228 9 9V7C9 6.44772 9.44772 6 10 6H14Z" fill="#000000"/>
<path d="M15.0537 2.94922C16.7103 2.94938 18.0536 4.2926 18.0537 5.94922V14.0498C18.0537 15.7066 16.7104 17.0496 15.0537 17.0498H4.95312C3.29627 17.0498 1.95313 15.7067 1.95312 14.0498V5.94922C1.95328 4.2925 3.29637 2.94922 4.95312 2.94922H15.0537ZM4.95312 4.44922C4.1248 4.44922 3.45328 5.12093 3.45312 5.94922V14.0498C3.45313 14.8782 4.1247 15.5498 4.95312 15.5498H15.0537C15.882 15.5496 16.5537 14.8781 16.5537 14.0498V5.94922C16.5536 5.12103 15.8819 4.44938 15.0537 4.44922H4.95312Z" fill="#000000"/>
</svg>
