<svg xmlns="http://www.w3.org/2000/svg" width="24" height="24" viewBox="0 0 24 24" fill="none"><rect width="24" height="24" fill="none"/>
<path d="M21.707 20.293L20.293 21.707L19.0293 20.4434C18.4341 20.7952 17.7416 21 17 21H7C4.79086 21 3 19.2091 3 17V7C3 6.25828 3.20293 5.56429 3.55469 4.96875L2.29297 3.70703L3.70703 2.29297L21.707 20.293ZM8.29785 14.7129C7.89002 14.3056 7.22332 14.3267 6.8418 14.7588L5 16.8457V17C5 18.1046 5.89543 19 7 19H12.585L8.29785 14.7129ZM5.06836 6.48242C5.02419 6.64754 5 6.82092 5 7V13.8223L5.3418 13.4355C6.4867 12.1381 8.48929 12.0753 9.71289 13.2988L15.4141 19H17C17.1789 19 17.3517 18.9748 17.5166 18.9307L5.06836 6.48242Z" fill="#000000"/>
<path d="M17 3C19.2091 3 21 4.79086 21 7V17C21 17.0278 20.9976 17.0554 20.9971 17.083L19 15.0859V7C19 5.89543 18.1046 5 17 5H8.91406L6.91602 3.00195C6.94395 3.00138 6.97193 3 7 3H17Z" fill="#000000"/>
<path d="M15 6C16.6569 6 18 7.34315 18 9C18 10.3788 17.0688 11.5367 15.8018 11.8877L12.1113 8.19727C12.4626 6.93054 13.6214 6 15 6ZM15 8C14.4477 8 14 8.44772 14 9C14 9.55228 14.4477 10 15 10C15.5523 10 16 9.55228 16 9C16 8.44772 15.5523 8 15 8Z" fill="#000000"/>
</svg>
