<svg xmlns="http://www.w3.org/2000/svg" width="20" height="20" viewBox="0 0 20 20" fill="none"><rect width="20" height="20" fill="none"/>
<path d="M15.2637 13.0596C15.4262 12.9726 15.624 12.9818 15.7773 13.084L18.7773 15.084C18.9163 15.1767 18.9999 15.333 19 15.5C18.9999 15.667 18.9163 15.8233 18.7773 15.916L15.7773 17.916C15.624 18.0182 15.4262 18.0274 15.2637 17.9404C15.1015 17.8534 15.0001 17.6841 15 17.5V16.25C13.7574 16.25 12.7501 17.2575 12.75 18.5V19H11.25V18.5C11.2501 16.429 12.929 14.75 15 14.75V13.5L15.0049 13.4316C15.0266 13.2748 15.1218 13.1357 15.2637 13.0596Z" fill="#000000"/>
<path d="M12.3008 1.94922C14.3717 1.94938 16.0508 3.62825 16.0508 5.69922V11H14.5508V5.69922C14.5508 4.45668 13.5433 3.44938 12.3008 3.44922H7.7002C6.45756 3.44922 5.4502 4.45658 5.4502 5.69922V14.2998C5.45035 15.5423 6.45765 16.5498 7.7002 16.5498H9V18.0498H7.7002C5.62923 18.0498 3.95035 16.3707 3.9502 14.2998V5.69922C3.9502 3.62815 5.62913 1.94922 7.7002 1.94922H12.3008Z" fill="#000000"/>
<path d="M11 5C11.5523 5 12 5.44772 12 6C11.9997 6.55206 11.5521 7 11 7H9C8.44788 7 8.00026 6.55206 8 6C8 5.44772 8.44772 5 9 5H11Z" fill="#000000"/>
</svg>
