<svg xmlns="http://www.w3.org/2000/svg" width="20" height="20" viewBox="0 0 20 20" fill="none"><rect width="20" height="20" fill="none"/>
<path d="M15.75 14.25H19V15.75H15.75V19H14.25V15.75H11V14.25H14.25V11H15.75V14.25Z" fill="#000000"/>
<path d="M15.4581 7H17.25C17.4769 7.00016 17.6918 7.10354 17.834 7.28027C17.9761 7.45702 18.0308 7.6886 17.9825 7.91016L17.6348 9.5H16.0997L16.3184 8.5H3.67485L5.31645 16.3018C5.34097 16.4172 5.44355 16.4999 5.56157 16.5H9.50005V18H5.56157C4.7341 18 4.0192 17.4201 3.84868 16.6104L2.01567 7.9043C1.96924 7.68325 2.02571 7.45276 2.16802 7.27734C2.3104 7.10217 2.52429 7.00004 2.75005 7H4.54204L6.28813 1.7627L7.71196 2.2373L6.12407 7H13.876L12.2881 2.2373L13.712 1.7627L15.4581 7Z" fill="#000000"/>
<path d="M12 11.5H8.00005V10H12V11.5Z" fill="#000000"/>
</svg>
