<svg xmlns="http://www.w3.org/2000/svg" width="20" height="20" viewBox="0 0 20 20" fill="none"><rect width="20" height="20" fill="none"/>
<path d="M7.50383 2.68066C7.9606 3.07261 8.51076 3.88125 8.91106 4.63574C9.11836 5.02649 9.30623 5.4401 9.43157 5.8252C9.54565 6.17581 9.65155 6.63025 9.56438 7.03809C9.46461 7.5039 9.15285 7.91111 8.93157 8.17871C8.8115 8.32389 8.68199 8.46938 8.58 8.58594C8.55582 8.61358 8.53296 8.64027 8.51164 8.66504C8.55201 8.82099 8.63001 9.02072 8.76653 9.25684C8.97202 9.61215 9.2693 9.99102 9.61614 10.3398C9.96278 10.6885 10.3414 10.9893 10.6982 11.2002C10.9247 11.3341 11.1204 11.4142 11.2763 11.46C11.2972 11.4408 11.3209 11.4223 11.3437 11.4014C11.463 11.2913 11.6057 11.1581 11.7538 11.0322C12.027 10.8001 12.4358 10.4854 12.912 10.3838C13.319 10.2972 13.7724 10.4019 14.1239 10.5156C14.5095 10.6404 14.9243 10.8272 15.3154 11.0342C16.0697 11.4335 16.8797 11.9849 17.2724 12.4473L17.4501 12.6572V13.584C17.4501 15.6156 15.9223 17.5784 13.6825 17.4404C7.38912 17.0518 2.89582 12.5606 2.50676 6.26855C2.36835 4.02873 4.33084 2.50021 6.36223 2.5H7.29289L7.50383 2.68066ZM6.36223 4C4.97571 4.0002 3.93143 5.00412 4.00383 6.17578C4.34607 11.712 8.23622 15.6013 13.7743 15.9434C14.9463 16.0157 15.9501 14.9707 15.9501 13.584V13.2441C15.6676 12.9972 15.1745 12.6575 14.6132 12.3604C14.2723 12.1799 13.9409 12.0333 13.663 11.9434C13.3555 11.8439 13.2245 11.8506 13.2245 11.8506C13.1475 11.8672 12.9882 11.9526 12.7255 12.1758C12.6056 12.2777 12.4875 12.3866 12.3603 12.5039C12.2402 12.6146 12.104 12.74 11.9726 12.8447C11.8346 12.9546 11.6616 13.0123 11.4853 13.0078C10.9488 12.9939 10.406 12.7702 9.93547 12.4922C9.45119 12.206 8.97331 11.8205 8.55266 11.3975C8.1321 10.9745 7.75022 10.4946 7.46867 10.0078C7.19522 9.53497 6.97656 8.98719 6.97649 8.44434C6.97648 8.28687 7.026 8.13261 7.11809 8.00488C7.21936 7.86457 7.34251 7.72274 7.4511 7.59863C7.56765 7.46542 7.67284 7.34657 7.77532 7.22266C7.99912 6.952 8.08232 6.79476 8.09758 6.72363C8.09733 6.71351 8.10034 6.58373 8.00481 6.29004C7.9144 6.0122 7.76706 5.68042 7.58586 5.33887C7.2885 4.7784 6.94884 4.28412 6.70207 4H6.36223Z" fill="#000000"/>
</svg>
