<svg xmlns="http://www.w3.org/2000/svg" width="20" height="20" viewBox="0 0 20 20" fill="none"><rect width="20" height="20" fill="none"/>
<path d="M16.9746 11C18.3691 11 19.5 12.1309 19.5 13.5254C19.4998 14.9197 18.369 16.0498 16.9746 16.0498H15.5V17H17V18H15.5V19H14V18H13V17H14V16.0498H13V14.5498H14V11H16.9746ZM15.5 14.5498H16.9746C17.5406 14.5498 17.9998 14.0913 18 13.5254C18 12.9593 17.5407 12.5 16.9746 12.5H15.5V14.5498Z" fill="#000000"/>
<path d="M7.75 2.9502H12.25V1H13.75V2.9502H15.2998C16.8186 2.9502 18.0498 4.18141 18.0498 5.7002V8.4502H3.4502V15.2998C3.4502 15.9902 4.00984 16.5498 4.7002 16.5498H11V18.0498H4.7002C3.18141 18.0498 1.9502 16.8186 1.9502 15.2998V5.7002C1.9502 4.18141 3.18141 2.9502 4.7002 2.9502H6.25V1H7.75V2.9502ZM4.7002 4.4502C4.00984 4.4502 3.4502 5.00984 3.4502 5.7002V6.9502H16.5498V5.7002C16.5498 5.00984 15.9902 4.4502 15.2998 4.4502H4.7002Z" fill="#000000"/>
</svg>
