<svg xmlns="http://www.w3.org/2000/svg" width="24" height="24" viewBox="0 0 24 24" fill="none"><rect width="24" height="24" fill="none"/>
<path d="M17.333 7C19.3581 7 21 8.64195 21 10.667V18C21 20.2091 19.2091 22 17 22H7C4.79086 22 3 20.2091 3 18V10.667C3 8.64195 4.64195 7 6.66699 7V9C5.74652 9 5 9.74652 5 10.667V18C5 19.1046 5.89543 20 7 20H17C18.1046 20 19 19.1046 19 18V10.667C19 9.74652 18.2535 9 17.333 9V7Z" fill="#000000"/>
<path d="M12 2C12.1538 2 12.2975 2.07079 12.3916 2.18945L12.4287 2.24316L15.4287 7.24316C15.5211 7.39745 15.524 7.58951 15.4355 7.74609C15.3468 7.90284 15.1801 8 15 8H13V13H11V8H9C8.81987 7.99999 8.6532 7.90284 8.56445 7.74609C8.47598 7.58951 8.47886 7.39745 8.57129 7.24316L11.5713 2.24316C11.6616 2.09257 11.8244 2.00001 12 2Z" fill="#000000"/>
</svg>
