<svg xmlns="http://www.w3.org/2000/svg" width="20" height="20" viewBox="0 0 20 20" fill="none"><rect width="20" height="20" fill="none"/>
<path d="M16.4999 2C16.7613 2.00002 17.0043 2.13626 17.1405 2.35938C17.2766 2.58268 17.2866 2.86125 17.1669 3.09375L13.0048 11.1719C12.9903 11.2 12.9814 11.2312 12.9784 11.2627L12.5497 15.7646C12.5094 16.1868 12.3921 16.7696 11.952 17.2197C11.6364 17.5424 11.1258 17.9147 10.4003 18.0254C9.66874 18.1368 8.82048 17.9673 7.86413 17.3936L7.536 17.1963L7.0194 11.2607C7.01653 11.2285 7.00784 11.1967 6.99303 11.168L2.83288 3.09375C2.7133 2.8614 2.7233 2.58255 2.85924 2.35938C2.99529 2.13626 3.23858 2.00022 3.49987 2H16.4999ZM8.32604 10.4814C8.43021 10.6837 8.49476 10.9043 8.51452 11.1309L8.96178 16.2822C9.51697 16.5543 9.91155 16.5827 10.1737 16.543C10.49 16.4947 10.7198 16.3333 10.8788 16.1709C10.9554 16.0926 11.0266 15.9359 11.0565 15.6221L11.4852 11.1211C11.5063 10.8994 11.5698 10.6833 11.6717 10.4854L15.2694 3.5H4.73034L8.32604 10.4814Z" fill="#000000"/>
</svg>
