<svg xmlns="http://www.w3.org/2000/svg" width="20" height="20" viewBox="0 0 20 20" fill="none"><rect width="20" height="20" fill="none"/>
<path d="M13.125 3.28125L11 4.98047V6.12598C11.7145 6.30988 12.3511 6.68698 12.8525 7.19727L13.8467 6.62402L14.2559 3.93457L16.2344 4.23535L15.873 6.60938L18.1094 7.4834L17.3809 9.34668L14.8467 8.35645L13.8535 8.92871C13.9481 9.26978 14 9.6288 14 10C14 10.3705 13.9478 10.7288 13.8535 11.0693L14.8467 11.6426L17.3809 10.6533L18.1094 12.5166L15.873 13.3906L16.2344 15.7646L14.2559 16.0654L13.8467 13.375L12.8535 12.8008C12.3519 13.3118 11.7152 13.6899 11 13.874V15.0186L13.125 16.7188L11.875 18.2812L10 16.7812L8.125 18.2812L6.875 16.7188L9 15.0186V13.874C8.28454 13.6899 7.64724 13.3121 7.14551 12.8008L6.15234 13.375L5.74414 16.0654L3.76562 15.7646L4.12695 13.3906L1.89062 12.5166L2.61914 10.6533L5.15234 11.6426L6.14551 11.0684C6.05142 10.7282 6 10.3701 6 10C6 9.62922 6.0511 9.27041 6.14551 8.92969L5.15234 8.35645L2.61914 9.34668L1.89062 7.4834L4.12695 6.60938L3.76562 4.23535L5.74414 3.93457L6.15234 6.62402L7.14648 7.19727C7.64799 6.68673 8.28524 6.30994 9 6.12598V4.98047L6.875 3.28125L8.125 1.71875L10 3.21875L11.875 1.71875L13.125 3.28125ZM10 8C8.89543 8 8 8.89543 8 10C8 11.1046 8.89543 12 10 12C11.1046 12 12 11.1046 12 10C12 8.89543 11.1046 8 10 8Z" fill="#000000"/>
</svg>
