<svg xmlns="http://www.w3.org/2000/svg" width="20" height="20" viewBox="0 0 20 20" fill="none"><rect width="20" height="20" fill="none"/>
<path d="M10.25 9C10.5261 9 10.75 9.22386 10.75 9.5V13H11.25V14L8.75 13.999V12.999H9.25V9.99902H8.75V8.99902L10.25 9Z" fill="#000000"/>
<path d="M10 6C10.5523 6 11 6.44772 11 7C11 7.55228 10.5523 8 10 8C9.44772 8 9 7.55228 9 7C9 6.44772 9.44772 6 10 6Z" fill="#000000"/>
<path d="M10 1.9502C14.4458 1.9502 18.0497 5.5542 18.0498 10C18.0498 14.4459 14.4459 18.0498 10 18.0498C5.5542 18.0497 1.9502 14.4458 1.9502 10C1.9503 5.55426 5.55426 1.9503 10 1.9502ZM10 3.4502C6.38269 3.4503 3.4503 6.38269 3.4502 10C3.4502 13.6174 6.38262 16.5497 10 16.5498C13.6175 16.5498 16.5498 13.6175 16.5498 10C16.5497 6.38262 13.6174 3.4502 10 3.4502Z" fill="#000000"/>
</svg>
