<svg xmlns="http://www.w3.org/2000/svg" width="20" height="20" viewBox="0 0 20 20" fill="none"><rect width="20" height="20" fill="none"/>
<path d="M18.5303 17.4697L17.4697 18.5303L15.3867 16.4473C15.1793 16.4806 14.9669 16.5 14.75 16.5H5.875C3.32068 16.5 1.25 14.4293 1.25 11.875C1.25 9.48288 3.06593 7.51372 5.39453 7.27344C5.44577 7.05937 5.51044 6.8505 5.58691 6.64746L1.46973 2.53027L2.53027 1.46973L18.5303 17.4697ZM5.875 8.75C4.14911 8.75 2.75 10.1491 2.75 11.875C2.75 13.6009 4.14911 15 5.875 15H13.9395L7.68945 8.75H5.875Z" fill="#000000"/>
<path d="M10.5 3.25C13.3995 3.25 15.75 5.60051 15.75 8.5V8.57422C17.4618 8.92161 18.75 10.4357 18.75 12.25V12.5C18.75 13.3978 18.4536 14.226 17.9541 14.8936L16.874 13.8135C17.1108 13.4314 17.25 12.9825 17.25 12.5V12.25C17.25 11.0074 16.2426 10 15 10H14.25V8.5C14.25 6.42893 12.5711 4.75 10.5 4.75C9.73561 4.75 9.02518 4.97922 8.43262 5.37207L7.35645 4.2959C8.23279 3.63943 9.32072 3.25 10.5 3.25Z" fill="#000000"/>
</svg>
