<svg xmlns="http://www.w3.org/2000/svg" width="20" height="20" viewBox="0 0 20 20" fill="none"><rect width="20" height="20" fill="none"/>
<path d="M12.2578 11.0624C12.4167 10.9745 12.6106 10.9799 12.7646 11.0761L16.7646 13.5761L16.8174 13.6132C16.9322 13.7074 17 13.8492 17 13.9999C16.9999 14.1722 16.9108 14.3324 16.7646 14.4237L12.7646 16.9237C12.6107 17.0198 12.4166 17.0253 12.2578 16.9374C12.0989 16.8493 12.0001 16.6816 12 16.4999V15.4999H4V12.4999H12V11.4999C12 11.3182 12.0989 11.1505 12.2578 11.0624Z" fill="#000000"/>
<path d="M7.23535 3.07607C7.38938 2.97989 7.58331 2.97445 7.74219 3.0624C7.90111 3.15052 8 3.31817 8 3.4999V4.4999H16.001V7.4999H8V8.4999C7.99993 8.68158 7.90111 8.84932 7.74219 8.9374C7.58336 9.02528 7.38934 9.01984 7.23535 8.92373L3.23535 6.42373L3.18262 6.38662C3.06782 6.29242 3.00006 6.15061 3 5.9999C3 5.82754 3.08921 5.66745 3.23535 5.57607L7.23535 3.07607Z" fill="#000000"/>
</svg>
