<svg xmlns="http://www.w3.org/2000/svg" width="20" height="20" viewBox="0 0 20 20" fill="none"><rect width="20" height="20" fill="none"/>
<path d="M12 2C15.3137 2 18 4.68629 18 8C18 10.7077 16.2061 12.9956 13.7422 13.7422C12.9956 16.2061 10.7077 18 8 18C4.68629 18 2 15.3137 2 12C2 9.29252 3.79323 7.00361 6.25684 6.25684C7.00361 3.79323 9.29252 2 12 2ZM6.02344 8.52148C4.81488 9.20969 4 10.5097 4 12C4 14.2091 5.79086 16 8 16C9.49038 16 10.7894 15.1843 11.4775 13.9756C8.58044 13.7256 6.27292 11.4187 6.02344 8.52148ZM8 8C8 10.2091 9.79086 12 12 12C12 9.79086 10.2091 8 8 8ZM12 4C10.5097 4 9.20969 4.81488 8.52148 6.02344C11.4187 6.27292 13.7256 8.58044 13.9756 11.4775C15.1843 10.7894 16 9.49038 16 8C16 5.79086 14.2091 4 12 4Z" fill="#000000"/>
</svg>
