<svg xmlns="http://www.w3.org/2000/svg" width="20" height="20" viewBox="0 0 20 20" fill="none"><rect width="20" height="20" fill="none"/>
<path d="M7 11C8.10457 11 9 11.8954 9 13V16C9 17.0357 8.21278 17.887 7.2041 17.9893L7 18H4L3.7959 17.9893C2.85435 17.8938 2.1062 17.1457 2.01074 16.2041L2 16V13C2 11.8954 2.89543 11 4 11H7ZM4 12.5C3.72386 12.5 3.5 12.7239 3.5 13V16C3.5 16.2761 3.72386 16.5 4 16.5H7C7.27614 16.5 7.5 16.2761 7.5 16V13C7.5 12.7239 7.27614 12.5 7 12.5H4Z" fill="#000000"/>
<path d="M16 11C17.1046 11 18 11.8954 18 13V16C18 17.0357 17.2128 17.887 16.2041 17.9893L16 18H13L12.7959 17.9893C11.8543 17.8938 11.1062 17.1457 11.0107 16.2041L11 16V13C11 11.8954 11.8954 11 13 11H16ZM13 12.5C12.7239 12.5 12.5 12.7239 12.5 13V16C12.5 16.2761 12.7239 16.5 13 16.5H16C16.2761 16.5 16.5 16.2761 16.5 16V13C16.5 12.7239 16.2761 12.5 16 12.5H13Z" fill="#000000"/>
<path d="M7 2C8.10457 2 9 2.89543 9 4V7C9 8.03565 8.21278 8.887 7.2041 8.98926L7 9H4L3.7959 8.98926C2.85435 8.8938 2.1062 8.14565 2.01074 7.2041L2 7V4C2 2.89543 2.89543 2 4 2H7ZM4 3.5C3.72386 3.5 3.5 3.72386 3.5 4V7C3.5 7.27614 3.72386 7.5 4 7.5H7C7.27614 7.5 7.5 7.27614 7.5 7V4C7.5 3.72386 7.27614 3.5 7 3.5H4Z" fill="#000000"/>
<path d="M16 2C17.1046 2 18 2.89543 18 4V7C18 8.03565 17.2128 8.887 16.2041 8.98926L16 9H13L12.7959 8.98926C11.8543 8.8938 11.1062 8.14565 11.0107 7.2041L11 7V4C11 2.89543 11.8954 2 13 2H16ZM13 3.5C12.7239 3.5 12.5 3.72386 12.5 4V7C12.5 7.27614 12.7239 7.5 13 7.5H16C16.2761 7.5 16.5 7.27614 16.5 7V4C16.5 3.72386 16.2761 3.5 16 3.5H13Z" fill="#000000"/>
</svg>
