<svg xmlns="http://www.w3.org/2000/svg" width="24" height="24" viewBox="0 0 24 24" fill="none"><rect width="24" height="24" fill="none"/>
<path d="M21.707 20.293L20.293 21.707L16.7451 18.1592C15.3294 19.127 13.7918 19.8964 12.3516 20.4365C12.1252 20.5214 11.8748 20.5214 11.6484 20.4365C9.55309 19.6507 7.1835 18.3384 5.31934 16.6074C3.46336 14.8839 2 12.6378 2 10C2 8.06023 2.7384 6.41924 3.93262 5.34668L2.29297 3.70703L3.70703 2.29297L21.707 20.293ZM5.35254 6.7666C4.53782 7.44401 4 8.54962 4 10C4 11.862 5.03679 13.6161 6.68066 15.1426C8.2162 16.5683 10.1878 17.7023 11.999 18.4268C13.1006 17.9877 14.2386 17.4074 15.3018 16.7158L5.35254 6.7666Z" fill="#000000"/>
<path d="M16.5 4C19.6208 4 22 6.51882 22 10C22 12.1951 21.0039 14.1123 19.6025 15.6885L18.1875 14.2734C19.3219 12.9693 20 11.5265 20 10C20 7.4812 18.3792 6 16.5 6C14.7469 6 13.7618 7.02176 12.5352 8.62109L7.93457 4.02051C9.53563 4.15609 10.9648 5.02776 12 6.24609C13.1281 4.91851 14.7237 4 16.5 4Z" fill="#000000"/>
</svg>
