<svg xmlns="http://www.w3.org/2000/svg" width="24" height="24" viewBox="0 0 24 24" fill="none"><rect width="24" height="24" fill="none"/>
<path d="M19 13C20.6568 13.0001 22 14.3432 22 16V18.5H23.5L23.5674 18.5049C23.7223 18.526 23.8604 18.6188 23.9375 18.7578C24.0254 18.9167 24.02 19.1106 23.9238 19.2646L21.4238 23.2646C21.3325 23.4108 21.1723 23.5 21 23.5C20.8277 23.5 20.6675 23.4108 20.5762 23.2646L18.0762 19.2646C17.98 19.1106 17.9746 18.9167 18.0625 18.7578C18.1506 18.5989 18.3183 18.5 18.5 18.5H20V16C20 15.4477 19.5522 15.0001 19 15V13Z" fill="#000000"/>
<path d="M15 12.5C15.1723 12.5 15.3325 12.5892 15.4238 12.7354L17.9238 16.7354C18.02 16.8894 18.0254 17.0833 17.9375 17.2422C17.8494 17.4011 17.6817 17.5 17.5 17.5H16V20C16 20.5523 16.4478 20.9999 17 21V23C15.3432 22.9999 14 21.6568 14 20V17.5H12.5L12.4326 17.4951C12.2777 17.474 12.1396 17.3812 12.0625 17.2422C11.9746 17.0833 11.98 16.8894 12.0762 16.7354L14.5762 12.7354C14.6675 12.5892 14.8277 12.5 15 12.5Z" fill="#000000"/>
<path d="M13 3C15.2091 3 17 4.79086 17 7H18C20.2091 7 22 8.79086 22 11H20C20 9.89543 19.1046 9 18 9H6C4.89543 9 4 9.89543 4 11V17C4 18.1046 4.89543 19 6 19H11V21H6C3.79086 21 2 19.2091 2 17V11C2 8.79086 3.79086 7 6 7H7C7 4.79086 8.79086 3 11 3H13ZM11 5C9.89543 5 9 5.89543 9 7H15C15 5.89543 14.1046 5 13 5H11Z" fill="#000000"/>
</svg>
