<svg xmlns="http://www.w3.org/2000/svg" width="20" height="20" viewBox="0 0 20 20" fill="none"><rect width="20" height="20" fill="none"/>
<path d="M10 12.4502H6V10.9502H10V12.4502Z" fill="#000000"/>
<path d="M7.44922 2.9502H12.5508V1H14.0508V2.9502H15.0488C16.7057 2.9502 18.0488 4.29334 18.0488 5.9502V15.0498C18.0488 16.7067 16.7057 18.0498 15.0488 18.0498H4.94922C3.29237 18.0498 1.94922 16.7067 1.94922 15.0498V5.9502C1.94922 4.29334 3.29237 2.9502 4.94922 2.9502H5.94922V1H7.44922V2.9502ZM3.44922 15.0498C3.44922 15.8782 4.12079 16.5498 4.94922 16.5498H15.0488C15.8773 16.5498 16.5488 15.8782 16.5488 15.0498V8.4502H3.44922V15.0498Z" fill="#000000"/>
</svg>
