<svg xmlns="http://www.w3.org/2000/svg" width="24" height="24" viewBox="0 0 24 24" fill="none"><rect width="24" height="24" fill="none"/>
<path d="M19 3.99951C20.6567 3.99951 21.9997 5.34288 22 6.99951V16.9995C22 18.6564 20.6569 20.0005 19 20.0005H5C3.34315 20.0005 2 18.6564 2 16.9995V6.99951C2.00026 5.34288 3.34331 3.99951 5 3.99951H19ZM13 6.00049C12.4479 6.00049 12.0003 6.44745 12 6.99951V9.99951C12 10.5518 12.4477 11.0005 13 11.0005H19C19.5521 11.0005 19.9997 10.5525 20 10.0005V7.00049C20 6.4482 19.5523 6.00049 19 6.00049H13Z" fill="#000000"/>
</svg>
