<svg xmlns="http://www.w3.org/2000/svg" width="20" height="20" viewBox="0 0 20 20" fill="none"><rect width="20" height="20" fill="none"/>
<path d="M18.707 17.293L17.293 18.707L13.5859 15H13C13 16.6567 11.6566 17.9997 10 18C8.34337 17.9997 7 16.6567 7 15H5.25781C4.18152 14.9994 3.45597 13.8986 3.87988 12.9092L4.97949 10.3418C4.99265 10.311 4.99994 10.2776 5 10.2441V8C5.00001 7.51777 5.06881 7.05156 5.19629 6.61035L1.29297 2.70703L2.70703 1.29297L18.707 17.293ZM9 15C9 15.5521 9.44794 15.9997 10 16C10.5521 15.9997 11 15.5521 11 15H9ZM7 10.2432C7.00002 10.5477 6.93828 10.85 6.81836 11.1299L6.0166 13H11.5859L7 8.41406V10.2432Z" fill="#000000"/>
<path d="M11 3.09961C13.282 3.56305 14.9998 5.58135 15 8V11.0859L13 9.08594V8C12.9998 6.34345 11.6565 5.00026 10 5C9.67323 5.00005 9.35891 5.05374 9.06445 5.15039L7.55273 3.63867C7.99742 3.38855 8.48435 3.20429 9 3.09961V1H11V3.09961Z" fill="#000000"/>
</svg>
