<svg xmlns="http://www.w3.org/2000/svg" width="24" height="24" viewBox="0 0 24 24" fill="none"><rect width="24" height="24" fill="none"/>
<path d="M18.0654 13.9004C18.517 13.9004 18.8224 14.0383 19.041 14.2744C19.2541 14.5046 19.376 14.8198 19.4844 15.1494L21.7705 22.0996H19.8994L19.3945 20.4785H16.5371L15.9932 22.0996H14.2197L16.6201 15.1475C16.7344 14.8164 16.8636 14.5029 17.082 14.2734C17.3058 14.0384 17.6138 13.9004 18.0654 13.9004ZM17.0576 18.9092H18.8984L18.0039 16.043L17.0576 18.9092Z" fill="#000000"/>
<path d="M12 2C14.4011 2 16.6043 2.84638 18.3281 4.25684L19.3643 3.22168L20.7783 4.63574L19.7422 5.6709C21.1532 7.39486 22 9.59845 22 12H20C20 10.1511 19.3706 8.45045 18.3174 7.0957L17.7783 7.63574L16.3643 6.22168L16.9033 5.68164C15.5488 4.62892 13.8484 4 12 4C10.1516 4 8.45029 4.62788 7.0957 5.68066L7.46484 6.0498L6.0498 7.46484L5.68066 7.0957C4.62788 8.45029 4 10.1516 4 12C4 13.8484 4.62892 15.5488 5.68164 16.9033L6.22168 16.3643L7.63574 17.7783L7.0957 18.3174C8.45045 19.3706 10.1511 20 12 20C12.168 20 12.3346 19.9927 12.5 19.9824V21.9863C12.3343 21.9945 12.1677 22 12 22C9.59845 22 7.39486 21.1532 5.6709 19.7422L4.63672 20.7783L3.22168 19.3633L4.25684 18.3281C2.84638 16.6043 2 14.4011 2 12C2 9.59868 2.84609 7.39479 4.25684 5.6709L3.05078 4.46484L4.46484 3.05078L5.6709 4.25684C7.39479 2.84609 9.59868 2 12 2Z" fill="#000000"/>
<path d="M14 12L12 14L10 12L12 10L14 12Z" fill="#000000"/>
</svg>
