<svg xmlns="http://www.w3.org/2000/svg" width="20" height="20" viewBox="0 0 20 20" fill="none"><rect width="20" height="20" fill="none"/>
<path d="M10.5 8.5C10.7761 8.5 11 8.72386 11 9V11.5H11.5V12.5L9 12.499V11.499H9.5V9.49902H9V8.49902L10.5 8.5Z" fill="#000000"/>
<path d="M10.25 5.5C10.8023 5.5 11.25 5.94772 11.25 6.5C11.25 7.05228 10.8023 7.5 10.25 7.5C9.69772 7.5 9.25 7.05228 9.25 6.5C9.25 5.94772 9.69772 5.5 10.25 5.5Z" fill="#000000"/>
<path d="M10 1.9502C14.7002 1.9502 18.0497 5.57206 18.0498 9.5C18.0498 14.4142 13.9142 18.0498 10 18.0498H9.25V16.0195C5.27773 15.7018 1.9502 12.8824 1.9502 9C1.95031 4.88782 5.49141 1.95028 10 1.9502ZM10 3.4502C6.10894 3.45028 3.45031 5.91248 3.4502 9C3.4502 12.0753 6.29452 14.5497 10 14.5498H10.75V16.4912C13.6207 16.0636 16.5498 13.257 16.5498 9.5C16.5497 6.42809 13.8996 3.4502 10 3.4502Z" fill="#000000"/>
</svg>
