<svg xmlns="http://www.w3.org/2000/svg" width="24" height="24" viewBox="0 0 24 24" fill="none"><rect width="24" height="24" fill="none"/>
<path d="M18 4V15H20C20.1801 15 20.3468 15.0972 20.4356 15.2539C20.524 15.4105 20.5212 15.6025 20.4287 15.7568L17.4287 20.7568L17.3916 20.8105C17.2975 20.9292 17.1538 21 17 21C16.8244 21 16.6617 20.9074 16.5713 20.7568L13.5713 15.7568C13.4789 15.6026 13.476 15.4105 13.5645 15.2539C13.6532 15.0972 13.8199 15 14 15H16V4H18Z" fill="#000000"/>
<path d="M7.00001 3C7.17564 3 7.33836 3.09257 7.42872 3.24316L10.4287 8.24316C10.5212 8.39745 10.524 8.58951 10.4356 8.74609C10.3468 8.90284 10.1801 9 10 9H8.00001V20H6.00001V9H4.00001C3.81989 8.99999 3.65321 8.90284 3.56446 8.74609C3.476 8.58951 3.47888 8.39745 3.5713 8.24316L6.5713 3.24316L6.60841 3.18945C6.70249 3.07079 6.84624 3.00001 7.00001 3Z" fill="#000000"/>
</svg>
