<svg xmlns="http://www.w3.org/2000/svg" width="20" height="20" viewBox="0 0 20 20" fill="none"><rect width="20" height="20" fill="none"/>
<path d="M10 2C11.8527 2 13.557 2.63134 14.9131 3.68848C15.3041 3.40489 15.8546 3.43874 16.207 3.79102C16.5594 4.14336 16.592 4.69289 16.3086 5.08398C17.3673 6.4406 18 8.14586 18 10C18 11.8534 17.3674 13.5577 16.3096 14.9141C16.5927 15.305 16.5593 15.8538 16.207 16.2061C15.855 16.558 15.3069 16.5912 14.916 16.3086C13.5594 17.3673 11.8541 18 10 18C8.14559 18 6.43972 17.3675 5.08301 16.3086C4.69219 16.5905 4.14473 16.5568 3.79297 16.2051C3.44122 15.8531 3.40701 15.3048 3.68945 14.9141C2.63181 13.5578 2 11.8532 2 10C2 8.14608 2.632 6.44052 3.69043 5.08398C3.40764 4.69318 3.44107 4.14509 3.79297 3.79297C4.14511 3.44083 4.69406 3.40653 5.08496 3.68945C6.44132 2.63153 8.14657 2 10 2ZM12.0312 13.4443C11.4357 13.7963 10.7419 14 10 14C9.25748 14 8.56269 13.7969 7.9668 13.4443L6.52344 14.8877C7.50453 15.5868 8.70353 16 10 16C11.296 16 12.4947 15.5873 13.4756 14.8887L12.0312 13.4443ZM13.4443 7.9668C13.7969 8.56269 14 9.25748 14 10C14 10.7414 13.7969 11.435 13.4453 12.0303L14.8896 13.4746C15.5878 12.4939 16 11.2955 16 10C16 8.70373 15.5876 7.50444 14.8887 6.52344L13.4443 7.9668ZM5.11035 6.52441C4.41194 7.50521 4 8.70422 4 10C4 11.295 4.41172 12.4932 5.10938 13.4736L6.55371 12.0293C6.20256 11.4342 6 10.741 6 10C6 9.25813 6.20177 8.56332 6.55371 7.96777L5.11035 6.52441ZM10 8C8.89543 8 8 8.89543 8 10C8 11.1046 8.89543 12 10 12C11.1046 12 12 11.1046 12 10C12 8.89543 11.1046 8 10 8ZM10 4C8.70422 4 7.50521 4.41194 6.52441 5.11035L7.96777 6.55371C8.56332 6.20177 9.25813 6 10 6C10.741 6 11.4342 6.20256 12.0293 6.55371L13.4736 5.10938C12.4932 4.41172 11.295 4 10 4Z" fill="#000000"/>
</svg>
