<svg xmlns="http://www.w3.org/2000/svg" width="24" height="24" viewBox="0 0 24 24" fill="none"><rect width="24" height="24" fill="none"/>
<path d="M8 4H6C4.89543 4 4 4.89543 4 6V18C4 19.1046 4.89543 20 6 20H8V22H6C3.79086 22 2 20.2091 2 18V6C2 3.79086 3.79086 2 6 2H8V4Z" fill="#000000"/>
<path d="M18 2C20.2091 2 22 3.79086 22 6V18C22 20.2091 20.2091 22 18 22H16V20H18C19.1046 20 20 19.1046 20 18V6C20 4.89543 19.1046 4 18 4H16V2H18Z" fill="#000000"/>
<path d="M9 13C10.1046 13 11 13.8954 11 15C11 16.1046 10.1046 17 9 17C7.89543 17 7 16.1046 7 15C7 13.8954 7.89543 13 9 13Z" fill="#000000"/>
<path d="M15 13C16.1046 13 17 13.8954 17 15C17 16.1046 16.1046 17 15 17C13.8954 17 13 16.1046 13 15C13 13.8954 13.8954 13 15 13Z" fill="#000000"/>
</svg>
