<svg xmlns="http://www.w3.org/2000/svg" width="20" height="20" viewBox="0 0 20 20" fill="none"><rect width="20" height="20" fill="none"/>
<path d="M7.54883 3.00071C7.98875 3.02237 8.36273 3.3303 8.46973 3.75755L10.5869 12.2273L12.542 5.71262L12.6016 5.56028C12.7672 5.22167 13.1137 4.99973 13.5 4.99973C13.9414 4.99981 14.331 5.28991 14.458 5.71262L15.7441 9.99973H18V11.9997H15C14.5584 11.9997 14.1689 11.7098 14.042 11.2868L13.5 9.4802L11.458 16.2868C11.3286 16.718 10.9266 17.0101 10.4766 16.9997C10.0265 16.9893 9.63853 16.6786 9.5293 16.2419L7.33008 7.44505L5.94141 11.3357C5.79927 11.7336 5.42254 11.9997 5 11.9997H2V9.99973H4.2959L6.55859 3.6638L6.625 3.51536C6.80727 3.18611 7.16373 2.9819 7.54883 3.00071Z" fill="#000000"/>
</svg>
