<svg xmlns="http://www.w3.org/2000/svg" width="20" height="20" viewBox="0 0 20 20" fill="none"><rect width="20" height="20" fill="none"/>
<path d="M5.5 13C6.88071 13 8 14.1193 8 15.5C8 16.8807 6.88071 18 5.5 18C4.11929 18 3 16.8807 3 15.5C3 14.1193 4.11929 13 5.5 13Z" fill="#000000"/>
<path d="M10.5 5.75H6.3252C5.42773 5.75 4.7002 6.47754 4.7002 7.375C4.7002 8.27246 5.42773 9 6.3252 9H13.6748C15.6768 9 17.2998 10.623 17.2998 12.625C17.2998 14.6266 15.6783 16.25 13.6758 16.25H9.5V14.25H13.6758C14.5728 14.25 15.2998 13.5229 15.2998 12.625C15.2998 11.7275 14.5723 11 13.6748 11H6.3252C4.32316 11 2.7002 9.37703 2.7002 7.375C2.7002 5.37297 4.32316 3.75 6.3252 3.75H10.5V5.75Z" fill="#000000"/>
<path d="M14.5 2C15.8807 2 17 3.11929 17 4.5C17 5.88071 15.8807 7 14.5 7C13.1193 7 12 5.88071 12 4.5C12 3.11929 13.1193 2 14.5 2Z" fill="#000000"/>
</svg>
