<svg xmlns="http://www.w3.org/2000/svg" width="24" height="24" viewBox="0 0 24 24" fill="none"><rect width="24" height="24" fill="none"/>
<path d="M19 2C19.2856 2 19.5573 2.12254 19.7471 2.33594C19.9367 2.54932 20.0265 2.83364 19.9932 3.11719L18.1162 19.0713C17.995 20.1019 17.2732 20.9625 16.2793 21.2607C13.4881 22.0981 10.5119 22.0981 7.7207 21.2607C6.72679 20.9625 6.00504 20.1019 5.88379 19.0713L4.00684 3.11719C3.97348 2.83364 4.06326 2.54932 4.25293 2.33594C4.44269 2.12254 4.71443 2 5 2H19ZM6.7168 9.03223C7.66018 8.66232 8.54849 8.53961 9.39844 8.5791C10.5704 8.63363 11.6224 8.99735 12.5137 9.30469C13.4489 9.62718 14.2019 9.88426 14.9795 9.92285C15.6562 9.95639 16.3858 9.81864 17.2529 9.28613L17.875 4H6.125L6.7168 9.03223Z" fill="#000000"/>
</svg>
