<svg xmlns="http://www.w3.org/2000/svg" width="24" height="24" viewBox="0 0 24 24" fill="none"><rect width="24" height="24" fill="none"/>
<path d="M21.707 20.293L20.293 21.707L17.1152 18.5293C16.4728 18.8303 15.7565 19 15 19H9V21C9 21.1801 8.90283 21.3468 8.74609 21.4355C8.58951 21.524 8.39745 21.5211 8.24316 21.4287L3.24316 18.4287C3.09257 18.3383 3 18.1756 3 18C3.00002 17.8462 3.07079 17.7025 3.18945 17.6084L3.24316 17.5713L8.24316 14.5713C8.39744 14.4789 8.58952 14.476 8.74609 14.5645C8.90283 14.6532 8.99998 14.8199 9 15V17H15C15.1832 17 15.3622 16.9818 15.5361 16.9502L6.68359 8.09766C6.25724 8.61504 6.00001 9.27682 6 10V12H4V10C4.00001 8.72468 4.47871 7.56198 5.26465 6.67871L2.29297 3.70703L3.70703 2.29297L21.707 20.293Z" fill="#000000"/>
<path d="M20 14C20 14.6211 19.8847 15.215 19.6777 15.7637L17.9971 14.083C17.9978 14.0554 18 14.0278 18 14V12H20V14Z" fill="#000000"/>
<path d="M15.2539 2.56445C15.4105 2.47599 15.6026 2.47887 15.7568 2.57129L20.7568 5.57129C20.9074 5.66164 21 5.82439 21 6C21 6.15377 20.9292 6.29752 20.8105 6.3916L20.7568 6.42871L15.7568 9.42871C15.6025 9.52114 15.4105 9.52402 15.2539 9.43555C15.0972 9.34679 15 9.18013 15 9V7H10.9141L8.91602 5.00195C8.94396 5.00149 8.97194 5 9 5H15V3C15 2.81988 15.0972 2.6532 15.2539 2.56445Z" fill="#000000"/>
</svg>
