<svg xmlns="http://www.w3.org/2000/svg" width="24" height="24" viewBox="0 0 24 24" fill="none"><rect width="24" height="24" fill="none"/>
<path d="M18 13C20.7614 13 23 15.2386 23 18C23 20.7614 20.7614 23 18 23C15.2386 23 13 20.7614 13 18C13 15.2386 15.2386 13 18 13ZM15.2949 16.709C15.1078 17.1004 15 17.5372 15 18C15 19.6569 16.3431 21 18 21C18.4626 21 18.8988 20.8911 19.29 20.7041L15.2949 16.709ZM18 15C17.5372 15 17.1004 15.1078 16.709 15.2949L20.7041 19.29C20.8911 18.8988 21 18.4626 21 18C21 16.3431 19.6569 15 18 15Z" fill="#000000"/>
<path d="M17 3C19.2091 3 21 4.79086 21 7V12H19V7C19 5.89543 18.1046 5 17 5H7C5.89543 5 5 5.89543 5 7V17C5 18.1046 5.89543 19 7 19H12V21H7C4.79086 21 3 19.2091 3 17V7C3 4.79086 4.79086 3 7 3H17Z" fill="#000000"/>
<path d="M12 13H7V11H12V13Z" fill="#000000"/>
<path d="M16 9H7V7H16V9Z" fill="#000000"/>
</svg>
