<svg xmlns="http://www.w3.org/2000/svg" width="24" height="24" viewBox="0 0 24 24" fill="none"><rect width="24" height="24" fill="none"/>
<path d="M23 15C23 15 23 21.5 18 23C13 21.5 13 15 13 15L18 13L23 15ZM15.1387 16.2988C15.216 16.7449 15.3343 17.2591 15.5156 17.7852C15.97 19.1029 16.7238 20.2665 18 20.8643C19.2762 20.2665 20.03 19.1029 20.4844 17.7852C20.6657 17.2592 20.783 16.7449 20.8604 16.2988L18 15.1543L15.1387 16.2988Z" fill="#000000"/>
<path d="M11 15.0352C8.96965 15.1815 7.84568 15.788 7.1748 16.6523C6.34938 17.7159 6 19.4158 6 22H4C4 19.3558 4.33023 17.0551 5.59473 15.4258C6.75782 13.9273 8.55182 13.1841 11 13.0312V15.0352Z" fill="#000000"/>
<path d="M12 2C14.7614 2 17 4.23858 17 7C17 9.76142 14.7614 12 12 12C9.23858 12 7 9.76142 7 7C7 4.23858 9.23858 2 12 2ZM12 4C10.3431 4 9 5.34315 9 7C9 8.65685 10.3431 10 12 10C13.6569 10 15 8.65685 15 7C15 5.34315 13.6569 4 12 4Z" fill="#000000"/>
</svg>
