<svg xmlns="http://www.w3.org/2000/svg" width="20" height="20" viewBox="0 0 20 20" fill="none"><rect width="20" height="20" fill="none"/>
<path d="M18.5303 17.4697L17.4697 18.5303L15.8662 16.9268C15.6679 16.9724 15.4622 17 15.25 17H4.75C3.23122 17 2 15.7688 2 14.25V5.75C2 5.00567 2.29677 4.33218 2.77734 3.83789L1.46973 2.53027L2.53027 1.46973L18.5303 17.4697ZM3.83691 4.89746C3.62827 5.12083 3.5 5.42023 3.5 5.75V14.25C3.5 14.9404 4.05964 15.5 4.75 15.5H14.4395L3.83691 4.89746Z" fill="#000000"/>
<path d="M15.25 3C16.7673 3 18 4.22684 18 5.74707V14.252C18 14.4638 17.973 14.6692 17.9277 14.8672L16.5 13.4395V8.5H11.5605L10.0605 7H16.5V5.74707C16.5 5.05817 15.9418 4.5 15.25 4.5H7.56055L6.06055 3H15.25Z" fill="#000000"/>
</svg>
