<svg xmlns="http://www.w3.org/2000/svg" width="20" height="20" viewBox="0 0 20 20" fill="none"><rect width="20" height="20" fill="none"/>
<path d="M16 10C17.5188 10 18.75 11.2312 18.75 12.75V14.0732C19.4728 14.2884 20 14.9573 20 15.75V18.25C20 19.2165 19.2165 20 18.25 20H13.75C12.7835 20 12 19.2165 12 18.25V15.75C12 14.9573 12.5272 14.2884 13.25 14.0732V12.75C13.25 11.2312 14.4812 10 16 10ZM13.75 15.5C13.6119 15.5 13.5 15.6119 13.5 15.75V18.25C13.5 18.3881 13.6119 18.5 13.75 18.5H18.25C18.3881 18.5 18.5 18.3881 18.5 18.25V15.75C18.5 15.6119 18.3881 15.5 18.25 15.5H13.75ZM16 11.5C15.3096 11.5 14.75 12.0596 14.75 12.75V14H17.25V12.75C17.25 12.0596 16.6904 11.5 16 11.5Z" fill="#000000"/>
<path d="M14.6543 2.50391C16.1883 2.58163 17.4184 3.81166 17.4961 5.3457L17.5 5.5V8H16V5.5C16 4.67157 15.3284 4 14.5 4H5.5C4.67157 4 4 4.67157 4 5.5V14.5C4 15.3284 4.67157 16 5.5 16H10V17.5H5.5C3.84315 17.5 2.5 16.1569 2.5 14.5V5.5C2.5 3.8949 3.76056 2.58421 5.3457 2.50391L5.5 2.5H14.5L14.6543 2.50391Z" fill="#000000"/>
<path d="M11 14H5.5V12.5H11V14Z" fill="#000000"/>
<path d="M14.4883 7.06934L10.5312 10.4609L8.51465 8.94824L6.46875 10.5859L5.53125 9.41406L8.03125 7.41406L8.48535 7.05176L10.4678 8.53906L13.5117 5.93066L14.4883 7.06934Z" fill="#000000"/>
</svg>
