<svg xmlns="http://www.w3.org/2000/svg" width="20" height="20" viewBox="0 0 20 20" fill="none"><rect width="20" height="20" fill="none"/>
<path d="M16.0005 14H19.0005V16H16.0005V19H14.0005V16H11.0005V14H14.0005V11H16.0005V14Z" fill="#000000"/>
<path d="M15.7212 7H17.0005C17.3049 7.00026 17.5932 7.13977 17.7828 7.37793C17.9722 7.61639 18.0437 7.92884 17.9751 8.22559L17.7964 9H4.2476L5.80229 16H9.00053V18H5.80229C4.86529 17.9996 4.0535 17.3483 3.85014 16.4336L2.02397 8.2168C1.9583 7.92086 2.03063 7.61053 2.22026 7.37402C2.40998 7.1378 2.69755 7.00012 3.00053 7H4.27983L6.05229 1.68359L7.94877 2.31641L6.38725 7H13.6138L12.0523 2.31641L13.9488 1.68359L15.7212 7Z" fill="#000000"/>
</svg>
