<svg xmlns="http://www.w3.org/2000/svg" width="24" height="24" viewBox="0 0 24 24" fill="none"><rect width="24" height="24" fill="none"/>
<path d="M14.2188 2C15.1364 2 15.9365 2.6245 16.1592 3.51465L16.8447 6.26074C17.8472 6.98762 18.5 8.16707 18.5 9.5V14.5C18.5 15.8324 17.8475 17.0113 16.8457 17.7383L16.1592 20.4854C15.9365 21.3753 15.1371 21.9998 14.2197 22H9.78027C8.86292 21.9998 8.06355 21.3753 7.84082 20.4854L7.15332 17.7383C6.15187 17.0113 5.5 15.8322 5.5 14.5V9.5C5.5 8.16736 6.15222 6.98765 7.1543 6.26074L7.84082 3.51465C8.06352 2.6245 8.86363 2 9.78125 2H14.2188ZM14.5 18.5H9.5C9.468 18.5 9.43612 18.4978 9.4043 18.4971L9.78027 20H14.2197L14.5947 18.4971C14.5632 18.4978 14.5317 18.5 14.5 18.5ZM9.5 7.5C8.39543 7.5 7.5 8.39543 7.5 9.5V14.5C7.5 15.6046 8.39543 16.5 9.5 16.5H14.5C15.6046 16.5 16.5 15.6046 16.5 14.5V9.5C16.5 8.39543 15.6046 7.5 14.5 7.5H9.5ZM9.4043 5.50195C9.43611 5.50121 9.468 5.5 9.5 5.5H14.5C14.5317 5.5 14.5632 5.50122 14.5947 5.50195L14.2188 4H9.78125L9.4043 5.50195Z" fill="#000000"/>
</svg>
