<svg xmlns="http://www.w3.org/2000/svg" width="20" height="20" viewBox="0 0 20 20" fill="none"><rect width="20" height="20" fill="none"/>
<path d="M10.7516 3.0791C13.0254 3.49213 14.7514 5.48209 14.7516 7.875V10.1924C14.7516 10.3003 14.772 10.4076 14.8121 10.5078L15.9234 13.2861C16.251 14.1065 15.6464 14.9988 14.7633 15H12.7506L12.7359 15.2812C12.5951 16.6676 11.424 17.7495 10.0006 17.75C8.57692 17.7498 7.40514 16.6678 7.26427 15.2812L7.2506 15H5.19493C4.34212 14.9996 3.73973 14.1637 4.00938 13.3545L4.95763 10.5098C4.98643 10.4232 5.00157 10.3315 5.00157 10.2402V7.875C5.00162 5.39445 6.85437 3.34685 9.25157 3.04004V1H10.7516V3.0791ZM8.75645 15.1279C8.82053 15.7581 9.35358 16.2498 10.0006 16.25C10.6905 16.2495 11.2506 15.69 11.2506 15H8.7506L8.75645 15.1279ZM9.87657 4.5C8.01281 4.50022 6.50163 6.01125 6.50157 7.875V10.2402C6.50158 10.4926 6.46024 10.7439 6.38048 10.9834L5.54161 13.5H14.3941L13.4195 11.0645C13.3087 10.7871 13.2516 10.491 13.2516 10.1924V7.875C13.2514 6.01171 11.7396 4.50094 9.87657 4.5Z" fill="#000000"/>
</svg>
