<svg xmlns="http://www.w3.org/2000/svg" width="20" height="20" viewBox="0 0 20 20" fill="none"><rect width="20" height="20" fill="none"/>
<path d="M16.9746 11C18.3691 11 19.5 12.1309 19.5 13.5254C19.4998 14.9197 18.369 16.0498 16.9746 16.0498H15.5V17H17V18H15.5V19H14V18H13V17H14V16.0498H13V14.5498H14V11H16.9746ZM15.5 14.5498H16.9746C17.5406 14.5498 17.9998 14.0913 18 13.5254C18 12.9593 17.5407 12.5 16.9746 12.5H15.5V14.5498Z" fill="#000000"/>
<path d="M10.75 5.0459C12.3265 5.23058 13.8074 5.98335 14.9395 7.19629C15.4397 7.73229 15.8555 8.34155 16.1797 9H14.4541C14.2716 8.72286 14.068 8.46112 13.8428 8.21973C12.8022 7.10491 11.4131 6.50014 9.98926 6.5C8.56533 6.5 7.17636 7.10494 6.13574 8.21973C5.09175 9.33829 4.48926 10.8766 4.48926 12.5V13.25H11V14.75H2V13.25H2.98926V12.5C2.98926 10.5108 3.72634 8.60278 5.03906 7.19629C6.17649 5.97773 7.66516 5.22307 9.25 5.04297V4H10.75V5.0459Z" fill="#000000"/>
</svg>
