<svg xmlns="http://www.w3.org/2000/svg" width="20" height="20" viewBox="0 0 20 20" fill="none"><rect width="20" height="20" fill="none"/>
<path d="M10 1.97656C11.2278 1.97656 12.2931 2.6592 12.8457 3.66406C13.628 3.39951 14.4552 3.26478 15.2451 3.26953C15.6574 3.27215 15.9912 3.60721 15.9912 4.01953V6.5752C15.9912 9.29041 13.7894 11.492 11.0742 11.4922H10.75V13.9717C11.1304 13.4978 11.6045 13.0499 12.1914 12.7109C13.3769 12.0265 14.7177 11.9623 15.7002 12.042C16.1999 12.0825 16.6309 12.1627 16.9375 12.2324C17.0908 12.2673 17.2143 12.3005 17.3018 12.3252C17.3454 12.3375 17.3813 12.3469 17.4062 12.3545C17.4186 12.3583 17.4291 12.3609 17.4365 12.3633C17.4401 12.3645 17.4429 12.3664 17.4453 12.3672H17.4492C17.4492 12.3672 17.4504 12.3687 17.2168 13.0811L16.9834 13.7939C16.9806 13.7931 16.974 13.7913 16.9668 13.7891C16.9519 13.7845 16.9278 13.7777 16.8955 13.7686C16.83 13.7501 16.7308 13.7231 16.6045 13.6943C16.3508 13.6367 15.9924 13.5706 15.5791 13.5371C14.7348 13.4687 13.7488 13.5436 12.9414 14.0098C12.1341 14.476 11.5767 15.2922 11.2139 16.0576C11.0364 16.4321 10.9138 16.7749 10.8369 17.0234C10.7986 17.1473 10.7716 17.2475 10.7549 17.3135C10.7531 17.3203 10.7516 17.3269 10.75 17.333V18.0244H9.25V17.3369C9.24813 17.3295 9.24632 17.3211 9.24414 17.3125C9.22738 17.2465 9.20131 17.147 9.16309 17.0234C9.08619 16.7749 8.96364 16.4321 8.78613 16.0576C8.42328 15.2923 7.86582 14.476 7.05859 14.0098C6.25119 13.5436 5.26523 13.4687 4.4209 13.5371C4.00764 13.5706 3.6492 13.6367 3.39551 13.6943C3.26921 13.7231 3.16996 13.7501 3.10449 13.7686C3.07222 13.7777 3.04815 13.7845 3.0332 13.7891C3.02606 13.7912 3.02036 13.7931 3.01758 13.7939L2.5498 12.3682L2.55078 12.3672H2.55469C2.5571 12.3664 2.55984 12.3645 2.56348 12.3633C2.57089 12.3609 2.58142 12.3583 2.59375 12.3545C2.6187 12.3469 2.65455 12.3375 2.69824 12.3252C2.7857 12.3005 2.90919 12.2673 3.0625 12.2324C3.36916 12.1627 3.80004 12.0825 4.2998 12.042C5.28227 11.9623 6.62312 12.0265 7.80859 12.7109C8.3955 13.0499 8.86958 13.4978 9.25 13.9717V11.4922H8.92676C6.21139 11.4922 4.00982 9.29054 4.00977 6.5752V4.01953C4.00982 3.60537 4.34559 3.26953 4.75977 3.26953C5.54598 3.26956 6.36948 3.40453 7.14941 3.66797C7.7014 2.66048 8.77017 1.97656 10 1.97656ZM14.4912 4.81641C13.184 4.98151 11.9258 5.58561 11.2285 6.46191C10.9949 6.75554 10.8619 7.15185 10.7275 7.68359L9.27148 7.67969C9.14362 7.16052 9.01419 6.77203 8.78809 6.48438C8.0902 5.59703 6.82719 4.99121 5.50977 4.82031V6.5752C5.50982 8.46212 7.03982 9.99219 8.92676 9.99219H11.0742C12.961 9.99197 14.4912 8.46198 14.4912 6.5752V4.81641ZM10 3.47656C9.37411 3.47656 8.82592 3.80574 8.5166 4.2998C9.07441 4.63815 9.5729 5.05678 9.9668 5.55762C9.97815 5.57209 9.98799 5.58794 9.99902 5.60254C10.0175 5.57775 10.0353 5.55174 10.0547 5.52734C10.4429 5.0395 10.9318 4.62888 11.4795 4.2959C11.1697 3.80437 10.624 3.47656 10 3.47656Z" fill="#000000"/>
</svg>
