<svg xmlns="http://www.w3.org/2000/svg" width="20" height="20" viewBox="0 0 20 20" fill="none"><rect width="20" height="20" fill="none"/>
<g clip-path="url(#clip0_147586_9087)">
<path d="M16.792 11.0078C17.212 11.0079 17.6286 11.0891 18.0176 11.2471C18.4068 11.4052 18.7626 11.6378 19.0605 11.9336L19.0596 11.9346C19.6596 12.5299 20.0039 13.333 20.0039 14.1787C20.0039 15.0246 19.6599 15.8285 19.0596 16.4238L19.0547 16.4287L15.7705 19.6387C15.6689 19.7631 15.5392 19.866 15.3848 19.9307C15.0131 20.0863 14.5841 20.0033 14.2969 19.7207L10.9502 16.4248L10.9473 16.4219C10.3475 15.8266 10.0039 15.0233 10.0039 14.1777C10.0039 13.3322 10.3475 12.5288 10.9473 11.9336C11.2452 11.6378 11.6001 11.4052 11.9893 11.2471C12.3784 11.0889 12.7956 11.0078 13.2158 11.0078C13.636 11.0078 14.0533 11.0889 14.4424 11.2471C14.6392 11.3271 14.8266 11.4272 15.0029 11.5439C15.1797 11.4269 15.3681 11.3273 15.5654 11.2471C15.9546 11.089 16.3718 11.0078 16.792 11.0078ZM16.792 13.0078C16.6281 13.0078 16.4666 13.0394 16.3184 13.0996C16.1701 13.1599 16.0395 13.2474 15.9326 13.3535L15.9268 13.3584L15.7021 13.5771C15.3136 13.9568 14.6932 13.9568 14.3047 13.5771L14.0811 13.3584L14.0752 13.3535C13.9684 13.2475 13.8376 13.1599 13.6895 13.0996C13.5412 13.0394 13.3797 13.0078 13.2158 13.0078C13.0519 13.0078 12.8905 13.0394 12.7422 13.0996C12.5939 13.1599 12.4633 13.2474 12.3564 13.3535C12.1252 13.5831 12.0039 13.8791 12.0039 14.1777C12.0039 14.4754 12.1238 14.7708 12.3535 15L14.9941 17.6006L17.6562 14.999C17.8847 14.7701 18.0039 14.4755 18.0039 14.1787C18.0039 13.9172 17.9116 13.6571 17.7334 13.4424L17.6514 13.3535C17.5445 13.2474 17.4129 13.1599 17.2646 13.0996C17.1165 13.0395 16.9557 13.0079 16.792 13.0078Z" fill="#000000"/>
<path d="M8 13.7861C7.34598 13.9909 6.79142 14.2977 6.34961 14.6875C5.52558 15.4146 5 16.5043 5 18H3C3 15.9958 3.72455 14.3354 5.02539 13.1875C5.84935 12.4605 6.86665 11.9737 8 11.7168V13.7861Z" fill="#000000"/>
<path d="M10 2C12.2091 2 14 3.79086 14 6C14 8.20914 12.2091 10 10 10C7.79086 10 6 8.20914 6 6C6 3.79086 7.79086 2 10 2ZM10 4C8.89543 4 8 4.89543 8 6C8 7.10457 8.89543 8 10 8C11.1046 8 12 7.10457 12 6C12 4.89543 11.1046 4 10 4Z" fill="#000000"/>
</g>
<defs>
<clipPath id="clip0_147586_9087">
<rect width="20" height="20" fill="white"/>
</clipPath>
</defs>
</svg>
