<svg xmlns="http://www.w3.org/2000/svg" width="20" height="20" viewBox="0 0 20 20" fill="none"><rect width="20" height="20" fill="none"/>
<path d="M18.5303 17.4697L17.4697 18.5303L16 17.0605V18H4V16.5H5.0498V15.2051C5.0498 13.9343 5.47088 12.6986 6.24707 11.6924L7.55273 10L6.24707 8.30762C5.78663 7.71068 5.45164 7.0331 5.25488 6.31543L1.46973 2.53027L2.53027 1.46973L18.5303 17.4697ZM9.09375 10.458L7.43457 12.6084C6.86088 13.3521 6.5498 14.2658 6.5498 15.2051V16.5H13.4502V15.2051C13.4502 14.9464 13.4242 14.6902 13.3779 14.4385L9.22559 10.2861L9.09375 10.458ZM14.9502 16.5H15.4395L14.9502 16.0107V16.5Z" fill="#000000"/>
<path d="M16 3.5H14.9502V4.7959C14.9502 6.06655 14.529 7.30149 13.7529 8.30762L12.7139 9.65332L11.6445 8.58398L12.5645 7.3916C13.1382 6.64791 13.4502 5.73516 13.4502 4.7959V3.5H6.56055L5.06055 2H16V3.5Z" fill="#000000"/>
</svg>
