<svg xmlns="http://www.w3.org/2000/svg" width="20" height="20" viewBox="0 0 20 20" fill="none"><rect width="20" height="20" fill="none"/>
<path d="M10.3994 7C12.3875 7 13.9998 8.61156 14 10.5996L13.9951 10.7852C13.8987 12.6873 12.3255 14.2002 10.3994 14.2002L10.2148 14.1953C8.31257 14.099 6.7998 12.5258 6.7998 10.5996C6.80002 8.61169 8.4115 7.00021 10.3994 7ZM10.3994 8.5C9.23993 8.50021 8.30002 9.44012 8.2998 10.5996C8.2998 11.7593 9.2398 12.7 10.3994 12.7002C11.5592 12.7002 12.5 11.7594 12.5 10.5996C12.4998 9.43999 11.5591 8.5 10.3994 8.5Z" fill="#000000"/>
<path d="M14.7998 5H15C16.6569 5 18 6.34315 18 8V14C18 15.6569 16.6569 17 15 17H5C3.34315 17 2 15.6569 2 14V8C2 6.34315 3.34315 5 5 5H6L7.59961 3H13.2002L14.7998 5ZM6.7207 6.5H5C4.17157 6.5 3.5 7.17157 3.5 8V14C3.5 14.8284 4.17157 15.5 5 15.5H15C15.8284 15.5 16.5 14.8284 16.5 14V8C16.5 7.17157 15.8284 6.5 15 6.5H14.0791L12.4785 4.5H8.32129L6.7207 6.5Z" fill="#000000"/>
</svg>
