<svg xmlns="http://www.w3.org/2000/svg" width="20" height="20" viewBox="0 0 20 20" fill="none"><rect width="20" height="20" fill="none"/>
<path fill-rule="evenodd" clip-rule="evenodd" d="M13.0477 14.1582C13.5067 16.1214 12.017 18 10.0008 18C9.69622 18 9.42636 17.8168 9.31035 17.5439L9.27031 17.4219L9.05254 16.4951C8.62296 14.6694 7.74395 12.9836 6.50078 11.5882V2.0002H12.8768C14.7905 2.00023 16.4478 3.3293 16.8631 5.19746L17.8318 9.50879C18.1672 11.018 17.0185 12.4502 15.4725 12.4502H12.6482L13.0477 14.1582ZM5.00078 11.4502H3.75C2.7835 11.4502 2 10.6667 2 9.7002V3.7502C2 2.7837 2.7835 2.0002 3.75 2.0002H5.00078V11.4502Z" fill="#000000"/>
</svg>
