<svg xmlns="http://www.w3.org/2000/svg" width="20" height="20" viewBox="0 0 20 20" fill="none"><rect width="20" height="20" fill="none"/>
<path d="M10.0011 8C11.1055 8.00022 12.0011 8.89556 12.0011 10C12.0011 11.1044 11.1055 11.9998 10.0011 12C8.89653 12 8.00107 11.1045 8.00107 10C8.00107 8.89546 8.89653 8.00004 10.0011 8Z" fill="#000000"/>
<path d="M10.0011 4C13.0486 4.00025 15.0573 5.4315 16.2774 6.84766C16.8812 7.54859 17.2948 8.24649 17.5577 8.76953C17.6896 9.032 17.7857 9.25418 17.8497 9.41406C17.8816 9.49387 17.906 9.55931 17.9229 9.60645C17.9312 9.62954 17.9376 9.64875 17.9425 9.66309C17.9449 9.67025 17.9477 9.67682 17.9493 9.68164C17.9501 9.68398 17.9513 9.68848 17.9513 9.68848L17.9522 9.69043C17.9522 9.69043 17.9396 9.69678 17.0011 10C17.9396 10.3032 17.9522 10.3086 17.9522 10.3086L17.9513 10.3115C17.9513 10.3115 17.9501 10.316 17.9493 10.3184C17.9477 10.3232 17.9449 10.3297 17.9425 10.3369C17.9376 10.3512 17.9312 10.3705 17.9229 10.3936C17.906 10.4407 17.8816 10.5061 17.8497 10.5859C17.7857 10.7458 17.6896 10.968 17.5577 11.2305C17.2948 11.7535 16.8812 12.4514 16.2774 13.1523C15.0573 14.5685 13.0486 15.9998 10.0011 16C6.95337 16 4.94492 14.5685 3.7247 13.1523C3.12082 12.4514 2.70737 11.7536 2.44443 11.2305C2.31252 10.968 2.21641 10.7459 2.15243 10.5859C2.12052 10.5061 2.09613 10.4407 2.07919 10.3936C2.07091 10.3705 2.06455 10.3513 2.05966 10.3369C2.05723 10.3298 2.05445 10.3232 2.05282 10.3184C2.05206 10.3161 2.05087 10.3115 2.05087 10.3115L2.04989 10.3096C2.05624 10.307 2.1317 10.2809 3.00107 10C2.1317 9.71913 2.05624 9.69398 2.04989 9.69141L2.05087 9.68848C2.05087 9.68848 2.05206 9.68394 2.05282 9.68164C2.05445 9.67679 2.05723 9.67023 2.05966 9.66309C2.06455 9.64873 2.07091 9.62953 2.07919 9.60645C2.09613 9.55928 2.12052 9.49385 2.15243 9.41406C2.21641 9.25414 2.31252 9.03199 2.44443 8.76953C2.70737 8.24642 3.12082 7.54858 3.7247 6.84766C4.94492 5.4315 6.95337 4 10.0011 4ZM10.0011 6.5C8.06811 6.50004 6.50107 8.06703 6.50107 10C6.50107 11.933 8.06811 13.5 10.0011 13.5C11.9339 13.4998 13.5011 11.9329 13.5011 10C13.5011 8.06714 11.9339 6.50022 10.0011 6.5Z" fill="#000000"/>
<path d="M3.00107 10L2.04989 10.3076C1.98532 10.1077 1.98532 9.89127 2.04989 9.69141L3.00107 10Z" fill="#000000"/>
<path d="M17.9522 9.69238C18.0167 9.89211 18.0167 10.1089 17.9522 10.3086L17.0011 10L17.9522 9.69238Z" fill="#000000"/>
</svg>
