<svg xmlns="http://www.w3.org/2000/svg" width="20" height="20" viewBox="0 0 20 20" fill="none"><rect width="20" height="20" fill="none"/>
<path d="M17.4346 7.13965C17.6998 7.32911 17.8123 7.6681 17.7129 7.97852C17.6133 8.28881 17.325 8.5 16.9991 8.5H15.7491V15.5H16.9991V17H2.99906V15.5H4.24906V8.5H2.99906C2.67328 8.49975 2.38465 8.28879 2.2852 7.97852C2.18591 7.66829 2.29863 7.32916 2.56352 7.13965L9.99906 1.82812L17.4346 7.13965ZM5.74906 15.5H9.24906V8.5H5.74906V15.5ZM10.7491 15.5H14.2491V8.5H10.7491V15.5ZM5.33988 7H14.6592L9.99906 3.6709L5.33988 7Z" fill="#000000"/>
</svg>
