<svg xmlns="http://www.w3.org/2000/svg" width="20" height="20" viewBox="0 0 20 20" fill="none"><rect width="20" height="20" fill="none"/>
<path d="M13.2578 4.0624C13.4167 3.97445 13.6106 3.97989 13.7646 4.07607L17.7646 6.57607C17.9108 6.66745 18 6.82754 18 6.9999C17.9999 7.17222 17.9108 7.33239 17.7646 7.42373L13.7646 9.92373C13.6107 10.0198 13.4166 10.0253 13.2578 9.9374C13.0989 9.84932 13.0001 9.68158 13 9.4999V8.4999L12.8467 8.50771C12.0903 8.58452 11.5 9.22325 11.5 9.9999V15.9999H8.5V9.9999C8.49998 9.22326 7.90971 8.58451 7.15332 8.50771L7 8.4999V9.4999C6.99987 9.68153 6.90106 9.84934 6.74219 9.9374C6.58339 10.0252 6.38931 10.0198 6.23535 9.92373L2.23535 7.42373C2.08926 7.33242 2.00012 7.17216 2 6.9999C2 6.82757 2.08925 6.66746 2.23535 6.57607L6.23535 4.07607C6.38938 3.97989 6.58331 3.97445 6.74219 4.0624C6.90108 4.15053 7 4.31819 7 4.4999V5.4999L7.23145 5.50576C8.29313 5.55955 9.25745 5.98166 10 6.64638C10.7426 5.9816 11.7068 5.55955 12.7686 5.50576L13 5.4999V4.4999C13 4.31817 13.0989 4.15052 13.2578 4.0624Z" fill="#000000"/>
</svg>
