<svg xmlns="http://www.w3.org/2000/svg" width="20" height="20" viewBox="0 0 20 20" fill="none"><rect width="20" height="20" fill="none"/>
<path d="M18 14C15.2386 14 13 16.2386 13 19H11.5C11.5 15.4101 14.4101 12.5 18 12.5V14Z" fill="#000000"/>
<path d="M18 19H15C15 17.3431 16.3431 16 18 16V19Z" fill="#000000"/>
<path d="M13 2C14.6569 2 16 3.34315 16 5V10.5H14.5V5C14.5 4.17157 13.8284 3.5 13 3.5H7C6.17157 3.5 5.5 4.17157 5.5 5V15C5.5 15.8284 6.17157 16.5 7 16.5H8.49902V18H7C5.34315 18 4 16.6569 4 15V5C4 3.34315 5.34315 2 7 2H13Z" fill="#000000"/>
<path d="M11 5C11.5523 5 12 5.44772 12 6C12 6.55228 11.5523 7 11 7H9C8.44772 7 8 6.55228 8 6C8 5.44772 8.44772 5 9 5H11Z" fill="#000000"/>
</svg>
