<svg xmlns="http://www.w3.org/2000/svg" width="24" height="24" viewBox="0 0 24 24" fill="none"><rect width="24" height="24" fill="none"/>
<path d="M21.707 20.293L20.293 21.707L17.2578 18.6719C16.1473 19.4402 14.8204 19.9176 13.3857 19.9902L13 20V21.5C13 21.6801 12.9028 21.8468 12.7461 21.9355C12.5895 22.024 12.3975 22.0211 12.2432 21.9287L7.24316 18.9287C7.09258 18.8383 7 18.6756 7 18.5C7.00002 18.3462 7.0708 18.2025 7.18945 18.1084L7.24316 18.0713L12.2432 15.0713C12.3974 14.9789 12.5895 14.976 12.7461 15.0645C12.9028 15.1532 13 15.3199 13 15.5V17L13.2314 16.9941C13.895 16.9605 14.5194 16.7812 15.0762 16.4902L7.39453 8.8086C6.8332 9.5593 6.50001 10.4905 6.5 11.5V13H3.5V11.5C3.50001 9.66167 4.16197 7.97826 5.25977 6.67383L2.29297 3.70703L3.70703 2.29297L21.707 20.293Z" fill="#000000"/>
<path d="M20.5 12.5C20.5 13.6899 20.2207 14.814 19.7275 15.8135L17.3916 13.4775C17.4614 13.1627 17.5 12.8358 17.5 12.5V11H20.5V12.5Z" fill="#000000"/>
<path d="M12.2539 2.06445C12.4105 1.976 12.6026 1.97888 12.7568 2.07129L17.7568 5.07129C17.9074 5.16164 18 5.3244 18 5.5C18 5.65377 17.9292 5.79752 17.8105 5.8916L17.7568 5.92871L12.8105 8.89649L12 8.08594V7H11C10.9719 7 10.944 7.00144 10.916 7.00196L8.38379 4.46973C9.19841 4.16646 10.0797 4 11 4H12V2.5C12 2.31989 12.0972 2.1532 12.2539 2.06445Z" fill="#000000"/>
</svg>
