<svg xmlns="http://www.w3.org/2000/svg" width="24" height="24" viewBox="0 0 24 24" fill="none"><rect width="24" height="24" fill="none"/>
<path d="M17.3164 2.05176L17.4697 2.10254C19.5599 2.79928 21.2007 4.44007 21.8975 6.53027L21.9482 6.68359L22.1211 7.2002L19.9893 9.86426C18.7526 11.4102 18.2103 13.3986 18.4902 15.3584L18.5605 15.8535L15.2598 19.1543L14.3262 18.8213C12.5137 18.1737 10.8667 17.1954 9.4541 15.959L3.70703 21.707L2.29297 20.293L8.03906 14.5459C6.7182 13.0387 5.6934 11.2656 5.0498 9.31348L4.85742 8.72852L8.14648 5.43945L8.6416 5.50977C10.6014 5.7897 12.5898 5.24737 14.1357 4.01074L16.7998 1.87891L17.3164 2.05176Z" fill="#000000"/>
</svg>
