<svg xmlns="http://www.w3.org/2000/svg" width="20" height="20" viewBox="0 0 20 20" fill="none"><rect width="20" height="20" fill="none"/>
<path d="M10 2C11.5049 2 12.9794 2.42442 14.2539 3.22461C15.5283 4.02474 16.5511 5.16819 17.2051 6.52344C17.859 7.87874 18.117 9.39119 17.9502 10.8867C17.7833 12.3823 17.1982 13.8006 16.2617 14.9785C15.3252 16.1563 14.0756 17.0463 12.6562 17.5459C11.2369 18.0455 9.70503 18.1352 8.2373 17.8037C6.76941 17.472 5.42425 16.7323 4.35742 15.6709C3.29072 14.6095 2.54516 13.2688 2.20605 11.8027L3.17969 11.5771L4.1543 11.3525C4.40868 12.452 4.96856 13.457 5.76855 14.2529C6.56867 15.049 7.57682 15.6038 8.67773 15.8525C9.77861 16.1013 10.9276 16.0349 11.9922 15.6602C13.0567 15.2855 13.9939 14.6177 14.6963 13.7344C15.3987 12.8509 15.8377 11.7868 15.9629 10.665C16.088 9.5434 15.8947 8.40905 15.4043 7.39258C14.9139 6.37613 14.1462 5.51908 13.1904 4.91895C12.2345 4.3188 11.1287 4 10 4V2Z" fill="#000000"/>
<path d="M10 6C10.8794 6 11.7345 6.28947 12.4326 6.82422C13.1307 7.35894 13.6333 8.10904 13.8623 8.95801C14.0913 9.80706 14.0337 10.7082 13.6992 11.5215C13.3648 12.3346 12.7717 13.0148 12.0117 13.457C11.2516 13.8993 10.3665 14.0789 9.49414 13.9678C8.62192 13.8566 7.8104 13.4614 7.18555 12.8428C6.56063 12.224 6.15695 11.4161 6.03711 10.5449C5.91735 9.67395 6.08803 8.78776 6.52246 8.02344L8.26172 9.01172C8.04442 9.39393 7.95866 9.8369 8.01855 10.2725C8.07846 10.708 8.28043 11.1116 8.59277 11.4209C8.90522 11.7303 9.31091 11.9288 9.74707 11.9844C10.1832 12.04 10.6258 11.9496 11.0059 11.7285C11.3858 11.5074 11.6824 11.1673 11.8496 10.7607C12.0168 10.3542 12.0451 9.90395 11.9307 9.47949C11.8162 9.05496 11.5649 8.67949 11.2158 8.41211C10.8668 8.14489 10.4396 8 10 8V6Z" fill="#000000"/>
</svg>
