<svg xmlns="http://www.w3.org/2000/svg" width="20" height="20" viewBox="0 0 20 20" fill="none"><rect width="20" height="20" fill="none"/>
<path d="M12.8672 3C13.9209 3 14.8982 3.55255 15.4404 4.45605L18 8.72266V14C18 15.6569 16.6569 17 15 17H5C3.34315 17 2 15.6569 2 14V8.72266L4.55957 4.45605C5.10176 3.55255 6.0791 3 7.13281 3H12.8672ZM4 14C4 14.5523 4.44772 15 5 15H15C15.5523 15 16 14.5523 16 14V10H13.6182L12.6182 12H7.38184L6.38184 10H4V14ZM7.13281 5C6.78155 5 6.45514 5.18415 6.27441 5.48535L4.76562 8H7.61816L8.61816 10H11.3818L12.3818 8H15.2344L13.7256 5.48535C13.5449 5.18415 13.2185 5 12.8672 5H7.13281Z" fill="#000000"/>
</svg>
