<svg xmlns="http://www.w3.org/2000/svg" width="24" height="24" viewBox="0 0 24 24" fill="none"><rect width="24" height="24" fill="none"/>
<path d="M12 6.5C13.933 6.5 15.5 8.067 15.5 10C15.5 11.933 13.933 13.5 12 13.5C10.067 13.5 8.5 11.933 8.5 10C8.5 8.067 10.067 6.5 12 6.5ZM12 8.5C11.1716 8.5 10.5 9.17157 10.5 10C10.5 10.8284 11.1716 11.5 12 11.5C12.8284 11.5 13.5 10.8284 13.5 10C13.5 9.17157 12.8284 8.5 12 8.5Z" fill="#000000"/>
<path d="M12 2C16.0057 2 20 5.4023 20 10C20 13.3697 18.0512 16.3529 16.2529 18.4082C15.3387 19.453 14.4265 20.2989 13.7441 20.8838C13.4024 21.1767 13.1168 21.4062 12.9141 21.5635C12.8126 21.6421 12.7313 21.7031 12.6748 21.7451C12.6466 21.7661 12.6241 21.7825 12.6084 21.7939C12.6006 21.7996 12.5944 21.8043 12.5898 21.8076C12.5876 21.8092 12.584 21.8115 12.584 21.8115L12.582 21.8125C12.582 21.8125 12.5812 21.8137 12 21L12.5811 21.8135C12.2334 22.0618 11.7666 22.0618 11.4189 21.8135L12 21C11.4188 21.8137 11.4189 21.8135 11.4189 21.8135L11.418 21.8125L11.416 21.8115C11.416 21.8115 11.4124 21.8092 11.4102 21.8076C11.4056 21.8043 11.3994 21.7996 11.3916 21.7939C11.3759 21.7825 11.3534 21.7661 11.3252 21.7451C11.2687 21.7031 11.1874 21.6421 11.0859 21.5635C10.8832 21.4062 10.5976 21.1767 10.2559 20.8838C9.57347 20.2989 8.66127 19.453 7.74707 18.4082C5.94878 16.3529 4 13.3697 4 10C4 5.4023 7.99425 2 12 2ZM12 4C9.00575 4 6 6.5977 6 10C6 12.6302 7.5513 15.1471 9.25293 17.0918C10.0886 18.0468 10.9266 18.8262 11.5566 19.3662C11.7199 19.5061 11.8695 19.6285 12 19.7344C12.1305 19.6285 12.2801 19.5061 12.4434 19.3662C13.0734 18.8262 13.9114 18.0468 14.7471 17.0918C16.4487 15.1471 18 12.6302 18 10C18 6.5977 14.9943 4 12 4Z" fill="#000000"/>
</svg>
