<svg xmlns="http://www.w3.org/2000/svg" width="20" height="20" viewBox="0 0 20 20" fill="none"><rect width="20" height="20" fill="none"/>
<path d="M10 2C14.4183 2 18 5.58172 18 10C18 14.4183 14.4183 18 10 18C5.58172 18 2 14.4183 2 10C2 5.58172 5.58172 2 10 2ZM4.90527 5.96582C4.02629 7.07439 3.5 8.47535 3.5 10C3.5 13.5899 6.41015 16.5 10 16.5C11.5246 16.5 12.9247 15.9727 14.0332 15.0938L4.90527 5.96582ZM10 3.5C8.47535 3.5 7.07439 4.02629 5.96582 4.90527L15.0938 14.0332C15.9727 12.9247 16.5 11.5246 16.5 10C16.5 6.41015 13.5899 3.5 10 3.5Z" fill="#000000"/>
</svg>
