<svg xmlns="http://www.w3.org/2000/svg" width="20" height="20" viewBox="0 0 20 20" fill="none"><rect width="20" height="20" fill="none"/>
<path d="M15.5664 10.5C16.3909 10.5 16.6321 11.0213 16.8408 11.6807L19 18.5H17.4023L16.917 16.8789H14.0254L13.5029 18.5H12L14.2656 11.6807C14.4853 11.0192 14.7417 10.5001 15.5664 10.5ZM14.4629 15.5098H16.499L15.5283 12.2773H15.4902L14.4629 15.5098Z" fill="#000000"/>
<path d="M15.25 3C16.7673 3 18 4.22684 18 5.74707V8.5H3.5V14.25C3.5 14.9404 4.05964 15.5 4.75 15.5H10V17H4.75C3.23122 17 2 15.7688 2 14.25V5.75C2 4.23122 3.23122 3 4.75 3H15.25ZM4.75 4.5C4.05964 4.5 3.5 5.05964 3.5 5.75V7H16.5V5.74707C16.5 5.05817 15.9418 4.5 15.25 4.5H4.75Z" fill="#000000"/>
</svg>
