<svg xmlns="http://www.w3.org/2000/svg" width="24" height="24" viewBox="0 0 24 24" fill="none"><rect width="24" height="24" fill="none"/>
<path d="M20 3C21.1046 3 22 3.89543 22 5C22 6.00727 21.2549 6.83756 20.2861 6.97656L17.5703 13.7646C17.8384 14.105 18 14.5332 18 15C18 16.1046 17.1046 17 16 17C14.8954 17 14 16.1046 14 15C14 14.8741 14.0129 14.7512 14.0352 14.6318L9.66309 10.8848C9.4914 10.9452 9.30963 10.9819 9.12012 10.9932L5.66797 17.8984C5.87711 18.2145 6 18.5927 6 19C6 20.1046 5.10457 21 4 21C2.89543 21 2 20.1046 2 19C2 17.9365 2.83027 17.069 3.87793 17.0059L7.33105 10.1006C7.12237 9.78477 7 9.40686 7 9C7 7.89543 7.89543 7 9 7C10.1046 7 11 7.89543 11 9C11 9.12559 10.986 9.24802 10.9639 9.36719L15.3359 13.1143C15.4567 13.0717 15.5827 13.0412 15.7129 13.0225L18.4287 6.23438C18.1611 5.89423 18 5.46635 18 5C18 3.89543 18.8954 3 20 3Z" fill="#000000"/>
</svg>
