<svg xmlns="http://www.w3.org/2000/svg" width="20" height="20" viewBox="0 0 20 20" fill="none"><rect width="20" height="20" fill="none"/>
<path d="M13 13.0003H6V11.0003H13V13.0003Z" fill="#000000"/>
<path d="M11 9.00029H6V7.00029H11V9.00029Z" fill="#000000"/>
<path d="M8.3877 1.76982C9.38668 1.19912 10.6133 1.19912 11.6123 1.76982L16.3623 4.48466C17.3746 5.06327 17.9998 6.13995 18 7.30595V12.6946C17.9998 13.8606 17.3746 14.9373 16.3623 15.5159L11.6123 18.2308C10.6133 18.8014 9.38666 18.8014 8.3877 18.2308L3.6377 15.5159C2.62538 14.9373 2.00019 13.8606 2 12.6946V7.30595C2.00016 6.13995 2.62537 5.06327 3.6377 4.48466L8.3877 1.76982ZM10.6201 3.50615C10.236 3.2868 9.76401 3.2868 9.37988 3.50615L4.62988 6.22099C4.24071 6.44351 4.00016 6.85766 4 7.30595V12.6946C4.00019 13.1429 4.24072 13.5571 4.62988 13.7796L9.37988 16.4944C9.76398 16.7137 10.236 16.7137 10.6201 16.4944L15.3701 13.7796C15.7593 13.5571 15.9998 13.1429 16 12.6946V7.30595C15.9998 6.85766 15.7593 6.44351 15.3701 6.22099L10.6201 3.50615Z" fill="#000000"/>
</svg>
