<svg xmlns="http://www.w3.org/2000/svg" width="24" height="24" viewBox="0 0 24 24" fill="none"><rect width="24" height="24" fill="none"/>
<path d="M20.5 12.5C20.5 16.5127 17.3486 19.7895 13.3857 19.9902L13 20V21.5C13 21.6801 12.9028 21.8468 12.7461 21.9356C12.5895 22.024 12.3975 22.0212 12.2432 21.9287L7.24316 18.9287C7.09257 18.8384 7 18.6756 7 18.5C7.00001 18.3462 7.07079 18.2025 7.18945 18.1084L7.24316 18.0713L12.2432 15.0713C12.3974 14.9789 12.5895 14.976 12.7461 15.0645C12.9028 15.1532 13 15.3199 13 15.5V17L13.2314 16.9942C15.6091 16.8737 17.5 14.9076 17.5 12.5V11H20.5V12.5Z" fill="#000000"/>
<path d="M12.2539 2.06446C12.4105 1.976 12.6026 1.97888 12.7568 2.0713L17.7568 5.0713C17.9074 5.16166 18 5.32439 18 5.50001C18 5.65378 17.9292 5.79753 17.8105 5.89161L17.7568 5.92872L12.7568 8.92872C12.6025 9.02116 12.4105 9.02403 12.2539 8.93556C12.0972 8.8468 12 8.68014 12 8.50001V7.00001H11C8.51472 7.00001 6.50001 9.01474 6.5 11.5V13H3.5V11.5C3.50001 7.35788 6.85787 4.00001 11 4.00001H12V2.50001C12 2.31989 12.0972 2.15321 12.2539 2.06446Z" fill="#000000"/>
</svg>
