<svg xmlns="http://www.w3.org/2000/svg" width="20" height="20" viewBox="0 0 20 20" fill="none"><rect width="20" height="20" fill="none"/>
<path d="M15.5 3C16.8807 3 18 4.11929 18 5.5V10.5C18 11.8807 16.8807 13 15.5 13H14V14.5C14 15.8807 12.8807 17 11.5 17H4.5C3.11929 17 2 15.8807 2 14.5V10.5C2 9.20566 2.98361 8.14082 4.24414 8.0127L4.5 8H6V5.49902C6 4.20358 6.9846 3.14063 8.24414 3.0127L8.5 3H15.5ZM4.39941 10.0098C4.17145 10.0563 4 10.2583 4 10.5V14.5C4 14.7761 4.22386 15 4.5 15H11.5C11.7761 15 12 14.7761 12 14.5V13H8.5C7.11944 13 6 11.8809 6 10.5V10H4.5L4.39941 10.0098ZM8 10.5C8 10.776 8.22371 11 8.5 11H15.5C15.7761 11 16 10.7761 16 10.5V8H8V10.5ZM8.39844 5.00977C8.17017 5.05647 8 5.25862 8 5.49902V6H16V5.5C16 5.22386 15.7761 5 15.5 5H8.5L8.39844 5.00977Z" fill="#000000"/>
</svg>
