<svg xmlns="http://www.w3.org/2000/svg" width="20" height="20" viewBox="0 0 20 20" fill="none"><rect width="20" height="20" fill="none"/>
<g clip-path="url(#clip0_147586_10657)">
<path d="M10.793 10.7939C11.0607 10.5262 11.4572 10.4331 11.8164 10.5527L19.3164 13.0527C19.7098 13.1842 19.9816 13.5446 19.999 13.959C20.016 14.3735 19.7749 14.7564 19.3936 14.9199L16.2617 16.2617L14.9189 19.3945C14.7553 19.7756 14.3724 20.0171 13.958 20C13.5439 19.9824 13.1832 19.7105 13.0518 19.3174L10.5518 11.8174C10.4321 11.4582 10.5255 11.0618 10.793 10.7939ZM14.1162 16.1904L14.7393 14.7393L16.1895 14.1172L13.0801 13.0811L14.1162 16.1904Z" fill="#000000"/>
<path d="M15 2C16.6569 2 18 3.34315 18 5V10H16V5C16 4.44772 15.5523 4 15 4H5C4.44772 4 4 4.44772 4 5V15C4 15.5523 4.44772 16 5 16H10V18H5C3.34315 18 2 16.6569 2 15V5C2 3.34315 3.34315 2 5 2H15Z" fill="#000000"/>
<path d="M9 12H6V10H9V12Z" fill="#000000"/>
<path d="M13 8H6V6H13V8Z" fill="#000000"/>
</g>
<defs>
<clipPath id="clip0_147586_10657">
<rect width="20" height="20" fill="white"/>
</clipPath>
</defs>
</svg>
