<svg xmlns="http://www.w3.org/2000/svg" width="20" height="20" viewBox="0 0 20 20" fill="none"><rect width="20" height="20" fill="none"/>
<path d="M15.7501 14.25H19.0001V15.75H15.7501V19H14.2501V15.75H11.0001V14.25H14.2501V11H15.7501V14.25Z" fill="#000000"/>
<path d="M10.0001 2C11.004 2.00005 11.9773 2.28479 12.6739 2.5498C13.0273 2.68427 13.3234 2.81921 13.5314 2.9209C13.635 2.97159 13.7183 3.01493 13.7765 3.0459C13.805 3.0611 13.8285 3.07399 13.8448 3.08301C13.8527 3.08733 13.8605 3.09106 13.8653 3.09375C13.8674 3.09492 13.8712 3.09766 13.8712 3.09766L13.8732 3.09863L13.8741 3.09961C14.0732 3.21326 14.2098 3.41203 14.2443 3.63867C14.2783 3.86502 14.2071 4.09534 14.0509 4.2627L11.2472 7.26465L13.922 8.53809C14.1946 8.66789 14.4511 8.82415 14.6905 9H11.4044L10.0001 8.33105L6.72277 9.89258C5.87222 10.2982 5.23815 11.0535 4.98742 11.9619L4.52062 13.6523C4.12634 15.0843 5.20443 16.5 6.68957 16.501H9.00011V18.001H6.68957C4.21359 18 2.41761 15.641 3.07531 13.2539L3.54113 11.5635C3.90758 10.2353 4.83455 9.13086 6.07824 8.53809L8.75304 7.26367L5.95422 4.2627C5.79847 4.09545 5.72795 3.86466 5.76183 3.63867C5.79608 3.41271 5.93287 3.21349 6.13097 3.09961L6.1339 3.09766C6.1339 3.09766 6.13789 3.09569 6.13976 3.09473C6.14431 3.09217 6.15188 3.08808 6.15929 3.08398C6.17547 3.07503 6.20019 3.06206 6.22863 3.04688C6.2865 3.01597 6.36962 2.97152 6.47277 2.9209C6.68006 2.81924 6.97578 2.68427 7.32824 2.5498C8.02358 2.28466 8.99611 2.00021 10.0001 2ZM10.0001 3.50098C9.25535 3.50119 8.47752 3.71759 7.86242 3.95215C7.82681 3.96578 7.79111 3.98157 7.75695 3.99512L10.0001 6.40137L12.2472 3.99512C12.2126 3.98141 12.1768 3.96589 12.1407 3.95215C11.5238 3.71744 10.7451 3.50102 10.0001 3.50098Z" fill="#000000"/>
</svg>
