<svg xmlns="http://www.w3.org/2000/svg" width="20" height="20" viewBox="0 0 20 20" fill="none"><rect width="20" height="20" fill="none"/>
<path d="M15 2C16.6569 2 18 3.34315 18 5V15C18 16.6569 16.6569 18 15 18H5C3.34315 18 2 16.6569 2 15V5C2 3.34315 3.34315 2 5 2H15ZM9.41895 13.8936C9.26951 14.2422 8.93538 14.4764 8.55664 14.498C8.17806 14.5195 7.81998 14.3253 7.63184 13.9961L5.91992 11H4V15C4 15.5523 4.44772 16 5 16H15C15.5523 16 16 15.5523 16 15V11H13.5C13.1411 11 12.8099 10.8077 12.6318 10.4961L11.6279 8.73926L9.41895 13.8936ZM5 4C4.44772 4 4 4.44772 4 5V9H6.5C6.85886 9 7.19012 9.19233 7.36816 9.50391L8.37207 11.2607L10.5811 6.10645L10.6455 5.98047C10.8147 5.702 11.1121 5.5209 11.4434 5.50195C11.8219 5.48047 12.18 5.67466 12.3682 6.00391L14.0801 9H16V5C16 4.44772 15.5523 4 15 4H5Z" fill="#000000"/>
</svg>
