<svg xmlns="http://www.w3.org/2000/svg" width="20" height="20" viewBox="0 0 20 20" fill="none"><rect width="20" height="20" fill="none"/>
<path d="M11.7002 2.25C13.219 2.25 14.4502 3.48122 14.4502 5V15C14.4502 16.5188 13.219 17.75 11.7002 17.75H8.2998C6.7812 17.7498 5.5498 16.5187 5.5498 15V5C5.5498 3.48135 6.7812 2.25021 8.2998 2.25H11.7002ZM8.2998 3.75C7.60963 3.75021 7.0498 4.30978 7.0498 5V15C7.0498 15.6902 7.60963 16.2498 8.2998 16.25H11.7002C12.3906 16.25 12.9502 15.6904 12.9502 15V5C12.9502 4.30965 12.3906 3.75 11.7002 3.75H8.2998Z" fill="#000000"/>
<path d="M4.0498 15H2.5498V5H4.0498V15Z" fill="#000000"/>
<path d="M17.4502 15H15.9502V5H17.4502V15Z" fill="#000000"/>
</svg>
