<svg xmlns="http://www.w3.org/2000/svg" width="20" height="20" viewBox="0 0 20 20" fill="none"><rect width="20" height="20" fill="none"/>
<path d="M4 15C4 15.5523 4.44772 16 5 16H7V18H5C3.34315 18 2 16.6569 2 15V13H4V15Z" fill="#000000"/>
<path d="M18 15C18 16.6569 16.6569 18 15 18H13V16H15C15.5523 16 16 15.5523 16 15V13H18V15Z" fill="#000000"/>
<path d="M10.9951 8.99512H14V10.9951H10.9951V14H8.99512V10.9951H6V8.99512H8.99512V6H10.9951V8.99512Z" fill="#000000"/>
<path d="M7 4H5C4.44772 4 4 4.44772 4 5V7H2V5C2 3.34315 3.34315 2 5 2H7V4Z" fill="#000000"/>
<path d="M15 2C16.6569 2 18 3.34315 18 5V7H16V5C16 4.44772 15.5523 4 15 4H13V2H15Z" fill="#000000"/>
</svg>
