<svg xmlns="http://www.w3.org/2000/svg" width="20" height="20" viewBox="0 0 20 20" fill="none"><rect width="20" height="20" fill="none"/>
<path d="M10.0003 12.9999C10.5523 13.0001 11.0003 13.4477 11.0003 13.9999C11 14.5518 10.5522 14.9996 10.0003 14.9999C9.44813 14.9999 9.00051 14.5519 9.00028 13.9999C9.00028 13.4476 9.44799 12.9999 10.0003 12.9999Z" fill="#000000"/>
<path d="M10.7503 11.9999H9.25028L9.00028 7.49986H11.0003L10.7503 11.9999Z" fill="#000000"/>
<path d="M7.59305 3.80845C8.63901 1.91411 11.3615 1.91411 12.4075 3.80845L18.0188 13.9706C19.0301 15.8031 17.7046 18.0491 15.6116 18.0497H4.38895C2.29546 18.0495 0.969873 15.8033 1.98172 13.9706L7.59305 3.80845ZM11.095 4.53306C10.6196 3.67203 9.38099 3.67204 8.90555 4.53306L3.2952 14.6952C2.83535 15.5282 3.43746 16.5495 4.38895 16.5497H15.6116C16.5626 16.5491 17.1647 15.528 16.7054 14.6952L11.095 4.53306Z" fill="#000000"/>
</svg>
