<svg xmlns="http://www.w3.org/2000/svg" width="24" height="24" viewBox="0 0 24 24" fill="none"><rect width="24" height="24" fill="none"/>
<path d="M15.9997 13.5C16.172 13.5 16.3322 13.5893 16.4235 13.7354L18.9235 17.7354C19.0197 17.8894 19.0252 18.0833 18.9372 18.2422C18.8491 18.401 18.6814 18.5 18.4997 18.5H16.9997C16.9997 18.9665 17.1304 19.4241 17.3767 19.8203C17.623 20.2164 17.976 20.5358 18.3943 20.7422C18.8125 20.9484 19.2807 21.0339 19.7448 20.9883C20.2089 20.9426 20.6512 20.7672 21.0212 20.4834C21.3913 20.1994 21.6752 19.8174 21.8396 19.3809C22.0039 18.9443 22.0428 18.4702 21.9519 18.0127C21.8608 17.5551 21.6429 17.1316 21.3239 16.791C21.0051 16.4508 20.5975 16.2057 20.1472 16.085L20.6648 14.1533C21.4757 14.3707 22.2099 14.8111 22.7839 15.4238C23.358 16.0368 23.7489 16.7984 23.9128 17.6221C24.0766 18.4458 24.0074 19.299 23.7116 20.085C23.4158 20.871 22.9053 21.559 22.239 22.0703C21.5728 22.5813 20.7766 22.8962 19.9411 22.9785C19.1055 23.0607 18.2626 22.9075 17.5095 22.5361C16.7564 22.1646 16.1219 21.5891 15.6784 20.876C15.2351 20.1628 14.9997 19.3397 14.9997 18.5H13.4997L13.4323 18.4951C13.2776 18.4739 13.1392 18.3811 13.0622 18.2422C12.9745 18.0834 12.9799 17.8893 13.0759 17.7354L15.5759 13.7354C15.6672 13.5893 15.8275 13.5002 15.9997 13.5Z" fill="#000000"/>
<path d="M11.9997 2C12.0302 2.03037 15.0305 4.9996 20.9987 5C20.9989 6.24129 21.1683 9.02299 20.6609 12H18.6316C18.9846 10.1399 19.0312 8.32883 19.0222 6.89648C16.631 6.64828 14.7381 5.98048 13.3552 5.28906C12.8272 5.02504 12.3756 4.75545 11.9987 4.50977C11.622 4.75533 11.1709 5.02524 10.6433 5.28906C9.26006 5.98051 7.36697 6.64846 4.97531 6.89648C4.96433 8.67244 5.0397 11.0308 5.67745 13.3428C6.52464 16.4136 8.26006 19.0547 11.9987 19.9521V21.999L11.5388 21.8994C2.03152 19.6273 2.99902 7.95307 2.99874 5C8.95592 5 11.9569 2.04248 11.9997 2Z" fill="#000000"/>
</svg>
