<svg xmlns="http://www.w3.org/2000/svg" width="20" height="20" viewBox="0 0 20 20" fill="none"><rect width="20" height="20" fill="none"/>
<path fill-rule="evenodd" clip-rule="evenodd" d="M13.0469 5.8418C13.506 3.87858 12.0162 2 10 2C9.69548 2 9.42562 2.18322 9.30962 2.45605L9.26958 2.57812L9.05181 3.50488C8.62223 5.33058 7.74322 7.01643 6.50005 8.41181V17.9998H12.876C14.7898 17.9998 16.4471 16.6707 16.8624 14.8025L17.8311 10.4912C18.1665 8.98197 17.0178 7.5498 15.4717 7.5498H12.6475L13.0469 5.8418ZM5.00005 8.5498H3.74927C2.78277 8.5498 1.99927 9.33331 1.99927 10.2998V16.2498C1.99927 17.2163 2.78277 17.9998 3.74927 17.9998H5.00005V8.5498Z" fill="#000000"/>
</svg>
