<svg xmlns="http://www.w3.org/2000/svg" width="20" height="20" viewBox="0 0 20 20" fill="none"><rect width="20" height="20" fill="none"/>
<path d="M11.3135 6H15C16.6569 6 18 7.34315 18 9V13.75C18 15.4069 16.6569 16.75 15 16.75H14.0029V15.25H15C15.8284 15.25 16.5 14.5784 16.5 13.75V9C16.5 8.17157 15.8284 7.5 15 7.5H10.6924L7.69238 4.5H5C4.17163 4.50007 3.5 5.17161 3.5 6V13.75C3.5 14.5784 4.17163 15.2499 5 15.25H7V13.5C7 13.3183 7.09887 13.1506 7.25781 13.0625C7.41667 12.9746 7.61062 12.98 7.76465 13.0762L11.7646 15.5762C11.9108 15.6675 12 15.8276 12 16C12 16.1724 11.9108 16.3325 11.7646 16.4238L7.76465 18.9238C7.61062 19.02 7.41667 19.0254 7.25781 18.9375C7.09887 18.8494 7 18.6817 7 18.5V16.75H5C3.3432 16.7499 2 15.4068 2 13.75V6C2 4.34319 3.3432 3.00007 5 3H8.31348L11.3135 6Z" fill="#000000"/>
</svg>
