<svg xmlns="http://www.w3.org/2000/svg" width="24" height="24" viewBox="0 0 24 24" fill="none"><rect width="24" height="24" fill="none"/>
<path d="M6.90527 4.15156C8.36329 3.87814 10.3623 3.87975 12.4785 4.97143C14.0551 5.78469 15.5181 5.68717 16.6162 5.37998C17.1699 5.22508 17.625 5.01743 17.9395 4.84942C18.0958 4.76589 18.2152 4.69338 18.292 4.64422C18.3301 4.61986 18.3579 4.6017 18.374 4.59061L18.3896 4.57952C18.6909 4.35978 19.0977 4.32131 19.4395 4.47969C19.7822 4.63862 20 4.96792 20 5.32914V16.7399L19.5283 17.0172L19.5254 17.02C19.5254 17.02 19.5213 17.0217 19.5195 17.0228C19.5159 17.0249 19.511 17.0272 19.5059 17.0301C19.4951 17.0363 19.4809 17.0448 19.4639 17.0542C19.4297 17.073 19.3827 17.0976 19.3242 17.1272C19.2065 17.1868 19.04 17.2665 18.8311 17.3527C18.4142 17.5248 17.8199 17.7287 17.0947 17.8648C15.6367 18.1383 13.6377 18.1367 11.5215 17.0449C9.90465 16.2108 8.40349 16.2122 7.29492 16.4201C6.75542 16.5213 6.31108 16.6718 6 16.7981V20H4V5.27646L4.47168 4.99916L5 5.8024C4.50425 5.04895 4.47413 5.00141 4.47266 4.99824L4.47559 4.99639L4.48047 4.99361C4.48417 4.99147 4.48889 4.98829 4.49414 4.98529C4.50486 4.97919 4.51919 4.97148 4.53613 4.96219C4.57039 4.94339 4.61709 4.91795 4.67578 4.88824C4.79351 4.82866 4.96003 4.74984 5.16895 4.66363C5.58577 4.49164 6.18006 4.28759 6.90527 4.15156ZM12 11.2781C10.0624 10.4169 8.25306 10.4336 6.90527 10.6865C6.57468 10.7486 6.27173 10.8266 6 10.9074V14.784C6.27176 14.7032 6.57462 14.6252 6.90527 14.5631C8.25305 14.3102 10.0624 14.2936 12 15.1547V11.2781ZM12 11.242C13.9744 12.095 15.8405 11.9492 17.1953 11.5702C17.4865 11.4887 17.7546 11.3922 18 11.2966V6.91805C17.7515 7.01519 17.4793 7.1126 17.1836 7.19535C15.824 7.57574 13.978 7.72114 12 6.85797V11.242Z" fill="#000000"/>
</svg>
