<svg xmlns="http://www.w3.org/2000/svg" width="20" height="20" viewBox="0 0 20 20" fill="none"><rect width="20" height="20" fill="none"/>
<path d="M18.707 13.7068L13.5 18.9138L10.293 15.7068L11.707 14.2927L13.5 16.0857L17.293 12.2927L18.707 13.7068Z" fill="#000000"/>
<path d="M10.7588 2.3738C12.745 1.47114 14.9999 2.92355 15 5.10524V5.9988C16.6568 5.9988 17.9999 7.34202 18 8.9988V9.9988H16V8.9988C15.9999 8.44659 15.5522 7.9988 15 7.9988H5C4.44777 7.9988 4.0001 8.44659 4 8.9988V14.9988C4.00037 15.5508 4.44794 15.9988 5 15.9988H8V17.9988H5C3.34337 17.9988 2.00037 16.6553 2 14.9988V8.28688C2.00007 7.11062 2.68801 6.04228 3.75879 5.55544L10.7588 2.3738ZM13 5.10524C12.9999 4.37808 12.248 3.89324 11.5859 4.19411L7.61621 5.9988H13V5.10524Z" fill="#000000"/>
</svg>
