<svg xmlns="http://www.w3.org/2000/svg" width="20" height="20" viewBox="0 0 20 20" fill="none"><rect width="20" height="20" fill="none"/>
<path d="M5.875 2C8.29061 2.00042 10.2489 3.95937 10.249 6.375C10.249 7.6899 9.66731 8.86803 8.74902 9.66992C10.2271 10.3719 11.2487 11.8789 11.249 13.624C11.2493 16.0406 9.29057 18 6.87402 18L2.00293 17.999L2.00195 2H5.875ZM3.50195 16.499L6.87402 16.5C8.46204 16.5 9.74925 15.2121 9.74902 13.624C9.74855 12.0368 8.46217 10.7495 6.875 10.749H3.50195V16.499ZM3.50195 9.24902H5.87402C7.46163 9.24911 8.74895 7.96262 8.74902 6.375C8.74887 4.78779 7.46218 3.50042 5.875 3.5H3.50195V9.24902Z" fill="#000000"/>
<path d="M14.5 9.02539C15.1269 8.56815 15.8799 8.263 16.6299 8.11426C17.0697 8.02708 17.5331 7.98799 17.999 8.00293V9.50195C17.6444 9.48668 17.2803 9.51371 16.9209 9.58496C15.586 9.84982 14.6587 10.6289 14.5 11.5605V17.999H13V8H14.5V9.02539Z" fill="#000000"/>
</svg>
