<svg xmlns="http://www.w3.org/2000/svg" width="20" height="20" viewBox="0 0 20 20" fill="none"><rect width="20" height="20" fill="none"/>
<path d="M10 2C14.4183 2 18 5.58172 18 10C18 14.4183 14.4183 18 10 18C5.58172 18 2 14.4183 2 10C2 5.58172 5.58172 2 10 2ZM5.11035 6.52441C4.41194 7.50521 4 8.70422 4 10C4 13.3137 6.68629 16 10 16C11.2957 16 12.4938 15.587 13.4746 14.8887L5.11035 6.52441ZM10 4C8.70422 4 7.50521 4.41194 6.52441 5.11035L14.8887 13.4746C15.587 12.4938 16 11.2957 16 10C16 6.68629 13.3137 4 10 4Z" fill="#000000"/>
</svg>
