<svg xmlns="http://www.w3.org/2000/svg" width="20" height="20" viewBox="0 0 20 20" fill="none"><rect width="20" height="20" fill="none"/>
<path d="M10.75 14.25H13V15.75H10.75V18H9.25V15.75H7V14.25H9.25V12H10.75V14.25Z" fill="#000000"/>
<path d="M15.25 2C16.7688 2 18 3.23122 18 4.75V7.25C18 8.76878 16.7688 10 15.25 10H4.75C3.23122 10 2 8.76878 2 7.25V4.75C2 3.23122 3.23122 2 4.75 2H15.25ZM4.75 3.5C4.05964 3.5 3.5 4.05964 3.5 4.75V7.25C3.5 7.94036 4.05964 8.5 4.75 8.5H15.25C15.9404 8.5 16.5 7.94036 16.5 7.25V4.75C16.5 4.05964 15.9404 3.5 15.25 3.5H4.75Z" fill="#000000"/>
</svg>
