<svg xmlns="http://www.w3.org/2000/svg" width="20" height="20" viewBox="0 0 20 20" fill="none"><rect width="20" height="20" fill="none"/>
<path d="M10.5 3.25C13.3995 3.25 15.75 5.60051 15.75 8.5V8.57422C17.4618 8.92161 18.75 10.4357 18.75 12.25V12.5C18.75 14.7091 16.9591 16.5 14.75 16.5H5.875C3.32068 16.5 1.25 14.4293 1.25 11.875C1.25 9.48288 3.06593 7.51372 5.39453 7.27344C5.94694 4.96565 8.0229 3.25 10.5 3.25ZM10.5 4.75C8.42893 4.75 6.75 6.42893 6.75 8.5V8.75H5.875C4.14911 8.75 2.75 10.1491 2.75 11.875C2.75 13.6009 4.14911 15 5.875 15H14.75C16.1307 15 17.25 13.8807 17.25 12.5V12.25C17.25 11.0074 16.2426 10 15 10H14.25V8.5C14.25 6.42893 12.5711 4.75 10.5 4.75Z" fill="#000000"/>
</svg>
