<svg xmlns="http://www.w3.org/2000/svg" width="24" height="24" viewBox="0 0 24 24" fill="none"><rect width="24" height="24" fill="none"/>
<path d="M9.21027 2.23633C9.57461 2.54905 9.88685 3.0143 10.137 3.46191C10.3992 3.93104 10.6428 4.47205 10.8441 5.0127C11.0451 5.55289 11.2129 6.11594 11.3157 6.62988C11.4116 7.10935 11.4775 7.67023 11.3763 8.14453C11.2549 8.71215 10.949 9.18554 10.6917 9.5332C10.5593 9.71209 10.4193 9.88451 10.3011 10.0303C10.274 10.0636 10.2488 10.0971 10.2239 10.1279C10.2767 10.3322 10.382 10.5941 10.5618 10.9053C10.832 11.3725 11.2227 11.871 11.679 12.3301C12.1352 12.7889 12.6338 13.1846 13.1028 13.4619C13.3997 13.6374 13.6542 13.7466 13.8577 13.8066C13.8803 13.7868 13.9051 13.7672 13.929 13.7461C14.0743 13.6181 14.2451 13.4691 14.4251 13.3271C14.7759 13.0506 15.2546 12.7264 15.845 12.6006C16.321 12.4994 16.8838 12.5668 17.3646 12.6641C17.8799 12.7684 18.4442 12.9382 18.9857 13.1416C19.5277 13.3452 20.0703 13.5915 20.5403 13.8564C20.9886 14.1092 21.4538 14.4254 21.7659 14.793L22.0032 15.0723V17.0918C22.0032 19.4323 20.2097 21.671 17.6214 21.4971C9.2817 20.9359 3.06083 14.7041 2.50128 6.37598C2.32779 3.78824 4.56687 1.99531 6.90655 1.99512H8.92902L9.21027 2.23633ZM6.90655 3.99512C5.46246 3.99531 4.41684 5.05471 4.4964 6.24219C4.98888 13.5721 10.4154 19.0079 17.7552 19.502C18.9433 19.5817 20.0032 18.5364 20.0032 17.0918V15.8809C19.8921 15.7996 19.7447 15.7039 19.5579 15.5986C19.1929 15.3929 18.7465 15.188 18.2825 15.0137C17.818 14.8392 17.3569 14.7029 16.9671 14.624C16.7731 14.5848 16.6079 14.562 16.4769 14.5537C16.4123 14.5496 16.3602 14.55 16.3216 14.5518C16.3031 14.5526 16.288 14.5535 16.2776 14.5547C16.2731 14.5553 16.2685 14.5562 16.2659 14.5566L16.262 14.5576C16.1237 14.5872 15.9361 14.6825 15.6634 14.8975C15.5319 15.0012 15.3997 15.1163 15.2513 15.2471C15.1104 15.3712 14.9465 15.5167 14.7825 15.6475C14.5986 15.794 14.3682 15.8712 14.1331 15.8652C13.4232 15.8468 12.706 15.5505 12.0853 15.1836C11.4462 14.8058 10.8158 14.2973 10.261 13.7393C9.70647 13.1813 9.20185 12.5487 8.83038 11.9062C8.46972 11.2824 8.18103 10.558 8.18097 9.83984C8.18103 9.63 8.2477 9.4251 8.37042 9.25488C8.49276 9.08531 8.62873 8.91682 8.74737 8.77051C8.87219 8.61659 8.98322 8.48029 9.08429 8.34375C9.29428 8.05993 9.39025 7.8666 9.42023 7.72656L9.4212 7.72266C9.42166 7.72001 9.42257 7.71582 9.42316 7.71094C9.42438 7.70056 9.4252 7.68576 9.42609 7.66699C9.42788 7.62848 9.42809 7.57711 9.42413 7.5127C9.41605 7.38175 9.39361 7.21648 9.3548 7.02246C9.277 6.63368 9.14259 6.17451 8.97003 5.71094C8.79768 5.24798 8.59563 4.80211 8.39191 4.4375C8.28848 4.25246 8.19365 4.10592 8.11359 3.99512H6.90655Z" fill="#000000"/>
</svg>
