<svg xmlns="http://www.w3.org/2000/svg" width="20" height="20" viewBox="0 0 20 20" fill="none"><rect width="20" height="20" fill="none"/>
<path d="M15.5 10.25C17.0187 10.2501 18.25 11.4813 18.25 13V15H19.5L19.5684 15.0049C19.7252 15.0266 19.8643 15.1218 19.9404 15.2637C20.0274 15.4262 20.0182 15.624 19.916 15.7773L17.916 18.7773C17.8233 18.9163 17.667 18.9999 17.5 19C17.333 18.9999 17.1767 18.9163 17.084 18.7773L15.084 15.7773C14.9818 15.624 14.9726 15.4262 15.0596 15.2637C15.1466 15.1015 15.3159 15.0001 15.5 15H16.75V13C16.75 12.3097 16.1902 11.7501 15.5 11.75H15V10.25H15.5Z" fill="#000000"/>
<path d="M11.5 10C11.667 10.0001 11.8233 10.0837 11.916 10.2227L13.916 13.2227C14.0182 13.376 14.0274 13.5738 13.9404 13.7363C13.8534 13.8985 13.6841 13.9999 13.5 14H12.25V16C12.25 16.6903 12.8098 17.2499 13.5 17.25H14V18.75H13.5C11.9813 18.7499 10.75 17.5187 10.75 16V14H9.5L9.43164 13.9951C9.27483 13.9734 9.13572 13.8782 9.05957 13.7363C8.97264 13.5738 8.98179 13.376 9.08398 13.2227L11.084 10.2227C11.1767 10.0837 11.333 10.0001 11.5 10Z" fill="#000000"/>
<path d="M11.25 2C12.7688 2 14 3.23122 14 4.75V6H15.25C16.5085 6 17.5668 6.84614 17.8936 8H16.248C16.0199 7.69695 15.6585 7.5 15.25 7.5H4.75C4.05964 7.5 3.5 8.05964 3.5 8.75V15.25C3.5 15.9404 4.05964 16.5 4.75 16.5H9V18H4.75C3.23122 18 2 16.7688 2 15.25V8.75C2 7.23122 3.23122 6 4.75 6H6V4.75C6 3.23122 7.23122 2 8.75 2H11.25ZM8.75 3.5C8.05964 3.5 7.5 4.05964 7.5 4.75V6H12.5V4.75C12.5 4.05964 11.9404 3.5 11.25 3.5H8.75Z" fill="#000000"/>
</svg>
