<svg xmlns="http://www.w3.org/2000/svg" width="20" height="20" viewBox="0 0 20 20" fill="none"><rect width="20" height="20" fill="none"/>
<path d="M15.75 14.25H19V15.75H15.75V19H14.25V15.75H11V14.25H14.25V11H15.75V14.25Z" fill="#000000"/>
<path d="M15.0488 2.9502C16.7051 2.9502 18.0488 4.29175 18.0488 5.94922V8.5H3.44922V14.0498C3.44922 14.8782 4.12079 15.5498 4.94922 15.5498H9V17.0498H4.94922C3.29237 17.0498 1.94922 15.7067 1.94922 14.0498V5.9502C1.94922 4.29334 3.29236 2.9502 4.94922 2.9502H15.0488ZM4.94922 4.4502C4.12079 4.4502 3.44922 5.12177 3.44922 5.9502V7H16.5488V5.94922C16.5488 5.1214 15.8779 4.4502 15.0488 4.4502H4.94922Z" fill="#000000"/>
</svg>
