<svg xmlns="http://www.w3.org/2000/svg" width="20" height="20" viewBox="0 0 20 20" fill="none"><rect width="20" height="20" fill="none"/>
<path d="M19 13.5V18C19 18.5523 18.5523 19 18 19H12C11.4477 19 11 18.5523 11 18V13.5L15 11L19 13.5ZM12.5 14.3311V17.5H17.5V14.3311L15 12.7686L12.5 14.3311Z" fill="#000000"/>
<path d="M8.7002 1.9502C10.2189 1.9503 11.4502 3.18148 11.4502 4.7002V5.9502H13.2998C14.8186 5.9502 16.0498 7.18141 16.0498 8.7002V9H14.5498V8.7002C14.5498 8.00984 13.9902 7.4502 13.2998 7.4502H9.9502V4.7002C9.9502 4.00991 9.39046 3.4503 8.7002 3.4502H5.4502V16.5498H9V18.0498H3.9502V1.9502H8.7002Z" fill="#000000"/>
</svg>
