<svg xmlns="http://www.w3.org/2000/svg" width="20" height="20" viewBox="0 0 20 20" fill="none"><rect width="20" height="20" fill="none"/>
<path d="M12 11C13.3976 11 14.569 11.9565 14.9023 13.25H18V14.75H14.9023C14.569 16.0435 13.3976 17 12 17C10.6024 17 9.43095 16.0435 9.09766 14.75H2V13.25H9.09766C9.43095 11.9565 10.6024 11 12 11ZM12 12.5C11.1716 12.5 10.5 13.1716 10.5 14C10.5 14.8284 11.1716 15.5 12 15.5C12.8284 15.5 13.5 14.8284 13.5 14C13.5 13.1716 12.8284 12.5 12 12.5Z" fill="#000000"/>
<path d="M8 3C9.39761 3 10.569 3.95647 10.9023 5.25H18V6.75H10.9023C10.569 8.04354 9.39761 9 8 9C6.60239 9 5.43095 8.04353 5.09766 6.75H2V5.25H5.09766C5.43095 3.95647 6.60239 3 8 3ZM8 4.5C7.17157 4.5 6.5 5.17157 6.5 6C6.5 6.82843 7.17157 7.5 8 7.5C8.82843 7.5 9.5 6.82843 9.5 6C9.5 5.17157 8.82843 4.5 8 4.5Z" fill="#000000"/>
</svg>
