<svg xmlns="http://www.w3.org/2000/svg" width="24" height="24" viewBox="0 0 24 24" fill="none"><rect width="24" height="24" fill="none"/>
<path d="M21.707 20.293L20.293 21.707L16.5049 17.9189C15.8257 19.1581 14.513 20 13 20H6C3.79086 20 2 18.2091 2 16V9C2 7.48774 2.83903 6.17115 4.07715 5.49121L2.29297 3.70703L3.70703 2.29297L21.707 20.293ZM5.62207 7.03613C4.69824 7.21285 4 8.02467 4 9V16C4 17.1046 4.89543 18 6 18H13C13.9756 18 14.7865 17.3012 14.9629 16.377L5.62207 7.03613Z" fill="#000000"/>
<path d="M13 5C14.9609 5 16.5908 6.41132 16.9326 8.27344L20.4854 6.14258C20.7943 5.95722 21.1797 5.95238 21.4932 6.12988C21.8064 6.30744 22 6.63988 22 7V18C22 18.0269 21.9963 18.0535 21.9941 18.0801L20 16.0859V8.76562L17 10.5654V13.0859L15 11.0859V9C15 7.89543 14.1046 7 13 7H10.9141L8.91406 5H13Z" fill="#000000"/>
</svg>
