<svg xmlns="http://www.w3.org/2000/svg" width="24" height="24" viewBox="0 0 24 24" fill="none"><rect width="24" height="24" fill="none"/>
<path d="M19 13C19.4142 13 19.75 13.3358 19.75 13.75V14C19.75 15.7949 21.2051 17.25 23 17.25H23.25C23.6642 17.25 24 17.5858 24 18C24 18.4142 23.6642 18.75 23.25 18.75H23C21.2051 18.75 19.75 20.2051 19.75 22V22.25C19.75 22.6642 19.4142 23 19 23C18.5858 23 18.25 22.6642 18.25 22.25V22C18.25 20.2051 16.7949 18.75 15 18.75H14.75C14.3358 18.75 14 18.4142 14 18C14 17.5858 14.3358 17.25 14.75 17.25H15C16.7949 17.25 18.25 15.7949 18.25 14V13.75C18.25 13.3358 18.5858 13 19 13Z" fill="#000000"/>
<path d="M10 2C10.5523 2 11 2.44772 11 3C11 6.31371 13.6863 9 17 9L17.1025 9.00488C17.6067 9.05621 18 9.48232 18 10C18 10.5523 17.5523 11 17 11C13.6863 11 11 13.6863 11 17C11 17.5523 10.5523 18 10 18C9.44772 18 9 17.5523 9 17C9 13.6863 6.31371 11 3 11L2.89746 10.9951C2.39333 10.9438 2 10.5177 2 10C2 9.44772 2.44772 9 3 9C6.31371 9 9 6.31371 9 3C9 2.44772 9.44772 2 10 2ZM10 6.87207C9.27187 8.18559 8.18559 9.27187 6.87207 10C8.18534 10.728 9.27187 11.8138 10 13.127C10.728 11.814 11.814 10.728 13.127 10C11.8138 9.27187 10.728 8.18534 10 6.87207Z" fill="#000000"/>
</svg>
