<svg xmlns="http://www.w3.org/2000/svg" width="20" height="20" viewBox="0 0 20 20" fill="none"><rect width="20" height="20" fill="none"/>
<path d="M19 19H11V17.5H19V19Z" fill="#000000"/>
<path d="M3.81445 12C4.55888 14.304 6.5542 16.044 9 16.4219V17.9375C5.72176 17.5287 3.05937 15.1369 2.25195 12H3.81445Z" fill="#000000"/>
<path d="M19 16.5H11V15H19V16.5Z" fill="#000000"/>
<path d="M18.7959 11.1895L11.7959 14.1895L11.2051 12.8105L18.2051 9.81055L18.7959 11.1895Z" fill="#000000"/>
<path d="M10 10H2C2 8.94943 2.20734 7.90908 2.60938 6.93848C3.01141 5.96795 3.59995 5.08559 4.34277 4.34277C5.08559 3.59995 5.96795 3.01141 6.93848 2.60938C7.90908 2.20734 8.94943 2 10 2V10ZM8.5 3.67578C8.16367 3.75555 7.83353 3.86222 7.5127 3.99512C6.72408 4.32177 6.0069 4.79974 5.40332 5.40332C4.79974 6.0069 4.32177 6.72408 3.99512 7.5127C3.86225 7.83346 3.75652 8.16375 3.67676 8.5H8.5V3.67578Z" fill="#000000"/>
<path d="M12 2.25195C14.8112 2.97551 17.0245 5.18875 17.748 8H16.1855C15.5454 6.01932 13.9809 4.45449 12 3.81445V2.25195Z" fill="#000000"/>
</svg>
