<svg xmlns="http://www.w3.org/2000/svg" width="20" height="20" viewBox="0 0 20 20" fill="none"><rect width="20" height="20" fill="none"/>
<path d="M18.707 12.707L16.4141 15L18.707 17.293L17.293 18.707L15 16.4141L12.707 18.707L11.293 17.293L13.5859 15L11.293 12.707L12.707 11.293L15 13.5859L17.293 11.293L18.707 12.707Z" fill="#000000"/>
<path d="M10 2C14.2503 2 17.7243 5.3147 17.9824 9.5H15.9775C15.7234 6.42031 13.1453 4 10 4C6.68629 4 4 6.68629 4 10C4 13.1453 6.42035 15.7224 9.5 15.9766V17.9824C5.3147 17.7243 2 14.2503 2 10C2 5.58172 5.58172 2 10 2Z" fill="#000000"/>
<path d="M11 10.4141L8.70703 12.707L7.29297 11.293L9 9.58594V6H11V10.4141Z" fill="#000000"/>
</svg>
