<svg xmlns="http://www.w3.org/2000/svg" width="20" height="20" viewBox="0 0 20 20" fill="none"><rect width="20" height="20" fill="none"/>
<path d="M6 8C6.55228 8 7 8.44772 7 9V11C7 11.5523 6.55228 12 6 12C5.44772 12 5 11.5523 5 11V9C5 8.44772 5.44772 8 6 8Z" fill="#000000"/>
<path d="M14 4C16.2091 4 18 5.79086 18 8V12C18 14.2091 16.2091 16 14 16H6C3.79086 16 2 14.2091 2 12V8C2 5.79086 3.79086 4 6 4H14ZM6 6C4.89543 6 4 6.89543 4 8V12C4 13.1046 4.89543 14 6 14H14C15.1046 14 16 13.1046 16 12V8C16 6.89543 15.1046 6 14 6H6Z" fill="#000000"/>
</svg>
