<svg xmlns="http://www.w3.org/2000/svg" width="20" height="20" viewBox="0 0 20 20" fill="none"><rect width="20" height="20" fill="none"/>
<path d="M15.5 11C16.39 11 17.26 11.2643 18 11.7588C18.74 12.2533 19.3167 12.9561 19.6572 13.7783C19.9977 14.6005 20.0867 15.5051 19.9131 16.3779C19.7394 17.2508 19.311 18.0523 18.6816 18.6816C18.0523 19.311 17.2508 19.7394 16.3779 19.9131C15.5051 20.0867 14.6005 19.9977 13.7783 19.6572C12.9561 19.3167 12.2533 18.74 11.7588 18C11.3575 17.3995 11.1111 16.713 11.0312 16H10L9.93164 15.9951C9.77469 15.9735 9.63575 15.8783 9.55957 15.7363C9.47256 15.5737 9.4817 15.3761 9.58398 15.2227L11.584 12.2227C11.6767 12.0836 11.8328 12 12 12C12.1672 12 12.3233 12.0836 12.416 12.2227L14.416 15.2227C14.5183 15.3761 14.5274 15.5737 14.4404 15.7363C14.3533 15.8986 14.1842 16 14 16H13.0518C13.1162 16.3158 13.2401 16.618 13.4209 16.8887C13.6955 17.2997 14.0863 17.6203 14.543 17.8096C14.9996 17.9987 15.5025 18.0485 15.9873 17.9521C16.4723 17.8557 16.9179 17.6172 17.2676 17.2676C17.6172 16.9179 17.8557 16.4723 17.9521 15.9873C18.0485 15.5025 17.9987 14.9996 17.8096 14.543C17.6203 14.0863 17.2997 13.6955 16.8887 13.4209C16.4776 13.1464 15.9943 13 15.5 13V11Z" fill="#000000"/>
<path d="M14.1543 2.00391C15.7394 2.08421 17 3.39489 17 5V9H15V5C15 4.48232 14.6067 4.05621 14.1025 4.00488L14 4H6C5.44772 4 5 4.44772 5 5V15C5 15.5523 5.44772 16 6 16H8V18H6C4.34315 18 3 16.6569 3 15V5C3 3.34315 4.34315 2 6 2H14L14.1543 2.00391Z" fill="#000000"/>
<path d="M7 13C7.55228 13 8 13.4477 8 14C8 14.5523 7.55228 15 7 15C6.44772 15 6 14.5523 6 14C6 13.4477 6.44772 13 7 13Z" fill="#000000"/>
<path d="M7 10C7.55228 10 8 10.4477 8 11C8 11.5523 7.55228 12 7 12C6.44772 12 6 11.5523 6 11C6 10.4477 6.44772 10 7 10Z" fill="#000000"/>
<path d="M10 10C10.5523 10 11 10.4477 11 11C11 11.5523 10.5523 12 10 12C9.44772 12 9 11.5523 9 11C9 10.4477 9.44772 10 10 10Z" fill="#000000"/>
<path d="M14 7H6V5H14V7Z" fill="#000000"/>
</svg>
