<svg xmlns="http://www.w3.org/2000/svg" width="24" height="24" viewBox="0 0 24 24" fill="none"><rect width="24" height="24" fill="none"/>
<path d="M22.2068 15.207L15.2068 22.207L13.7928 20.793L20.7928 13.793L22.2068 15.207Z" fill="#000000"/>
<path d="M11.9998 2C13.2261 2.00006 14.3906 2.45223 15.1971 2.85547C15.6105 3.0622 15.955 3.26921 16.1971 3.4248C16.318 3.50257 16.415 3.5685 16.4832 3.61621C16.5172 3.63997 16.5448 3.65969 16.5643 3.67383C16.5738 3.68077 16.5818 3.68707 16.5877 3.69141C16.5905 3.69339 16.5936 3.6949 16.5955 3.69629L16.5975 3.69824L16.5994 3.69922C16.5962 3.70403 16.5524 3.76325 15.9998 4.5L16.5994 3.69922C16.8228 3.86687 16.9668 4.12156 16.9949 4.39941C17.0228 4.67737 16.9324 4.9552 16.7469 5.16406L13.7537 8.53027L15.8533 9.23047C17.288 9.70876 18.471 10.7062 19.1932 12H16.6854C16.2711 11.6132 15.7744 11.3123 15.2215 11.1279L11.9998 10.0537L8.77814 11.1279C7.54351 11.5396 6.58582 12.5269 6.21173 13.7734L5.50275 16.1377C4.92572 18.0622 6.36658 19.9997 8.37579 20H11.9998V22H8.37579C5.02693 21.9997 2.62492 18.7712 3.58673 15.5635L4.29669 13.1982C4.85788 11.3286 6.29351 9.84799 8.14532 9.23047L10.2449 8.53027L7.25275 5.16406C7.06717 4.95518 6.97684 4.67742 7.0047 4.39941C7.03288 4.12156 7.17683 3.86784 7.40021 3.7002L7.99982 4.5C7.44497 3.76002 7.40315 3.70455 7.40021 3.7002L7.40411 3.69629C7.40599 3.69497 7.40923 3.69333 7.41193 3.69141C7.41774 3.6871 7.42594 3.68068 7.43536 3.67383C7.45482 3.65971 7.48256 3.63991 7.51642 3.61621C7.58455 3.56853 7.6817 3.5025 7.80255 3.4248C8.04457 3.26926 8.38927 3.06211 8.80255 2.85547C9.60908 2.45228 10.7737 2.00012 11.9998 2ZM11.9998 4C11.2268 4.00013 10.3904 4.29794 9.69708 4.64453C9.64269 4.67173 9.58927 4.69953 9.5379 4.72656L11.9998 7.49414L14.4608 4.72656C14.4096 4.69963 14.3567 4.67162 14.3026 4.64453C13.6093 4.29791 12.7729 4.00007 11.9998 4Z" fill="#000000"/>
<path d="M20.4998 19C21.3282 19 21.9998 19.6716 21.9998 20.5C21.9998 21.3284 21.3282 22 20.4998 22C19.6715 21.9998 18.9998 21.3283 18.9998 20.5C18.9999 19.6717 19.6716 19.0002 20.4998 19Z" fill="#000000"/>
<path d="M15.4998 14C16.3282 14 16.9998 14.6716 16.9998 15.5C16.9998 16.3284 16.3282 17 15.4998 17C14.6715 16.9998 13.9998 16.3283 13.9998 15.5C13.9999 14.6717 14.6716 14.0002 15.4998 14Z" fill="#000000"/>
</svg>
