<svg xmlns="http://www.w3.org/2000/svg" width="24" height="24" viewBox="0 0 24 24" fill="none"><rect width="24" height="24" fill="none"/>
<path d="M12 15C12.6904 15 13.25 15.5596 13.25 16.25C13.25 16.9404 12.6904 17.5 12 17.5C11.3096 17.5 10.75 16.9404 10.75 16.25C10.75 15.5596 11.3096 15 12 15Z" fill="#000000"/>
<path d="M12.3301 6.5C13.765 6.50005 15.0257 7.45137 15.4199 8.83105C15.8678 10.3988 15.0713 12.0534 13.5664 12.6807L13.5088 12.7051C13.2008 12.8335 13.0001 13.1341 13 13.4678V14H11V13.4678C11.0001 12.3267 11.686 11.2974 12.7393 10.8584L12.7969 10.835C13.3653 10.5981 13.6661 9.97297 13.4971 9.38086C13.3482 8.85972 12.8721 8.50005 12.3301 8.5H11.8115C11.2058 8.50018 10.6773 8.91234 10.5303 9.5L10.4697 9.74219L8.53027 9.25781L8.59082 9.01562C8.96035 7.53751 10.2879 6.50018 11.8115 6.5H12.3301Z" fill="#000000"/>
<path d="M12 2C17.5228 2 22 6.47715 22 12C22 17.5228 17.5228 22 12 22C6.47715 22 2 17.5228 2 12C2 6.47715 6.47715 2 12 2ZM12 4C7.58172 4 4 7.58172 4 12C4 16.4183 7.58172 20 12 20C16.4183 20 20 16.4183 20 12C20 7.58172 16.4183 4 12 4Z" fill="#000000"/>
</svg>
