<svg xmlns="http://www.w3.org/2000/svg" width="20" height="20" viewBox="0 0 20 20" fill="none"><rect width="20" height="20" fill="none"/>
<path d="M10.5 9C10.7761 9 11 9.22386 11 9.5V12H12V13H8V12H9V10H8V9H10.5Z" fill="#000000"/>
<path d="M10 5.5C10.6904 5.5 11.25 6.05964 11.25 6.75C11.25 7.44036 10.6904 8 10 8C9.30964 8 8.75 7.44036 8.75 6.75C8.75 6.05964 9.30964 5.5 10 5.5Z" fill="#000000"/>
<path d="M17 18.3877L13.0771 17.0791L10 18.6182L6.92188 17.0791L3 18.3877V2H17V18.3877ZM5 15.6123L6.68359 15.0518L7.07715 14.9199L7.44727 15.1055L10 16.3818L12.5527 15.1055L12.9229 14.9199L13.3164 15.0518L15 15.6123V4H5V15.6123Z" fill="#000000"/>
</svg>
