<svg xmlns="http://www.w3.org/2000/svg" width="20" height="20" viewBox="0 0 20 20" fill="none"><rect width="20" height="20" fill="none"/>
<path d="M2.46875 2.15295C2.76007 1.97025 3.12485 1.94982 3.43457 2.09924L17.9346 9.09924C18.28 9.26603 18.4998 9.61603 18.5 9.99963C18.5 10.3833 18.2801 10.7332 17.9346 10.9L3.43457 17.9C3.12478 18.0495 2.76013 18.0291 2.46875 17.8463C2.17744 17.6634 2.00004 17.3436 2 16.9996V12.4996C2.00015 12.1552 2.1777 11.8347 2.46973 11.652L5.11328 9.99963L2 8.05432V2.99963C2.00015 2.6557 2.17745 2.33581 2.46875 2.15295ZM4 6.94494L7.53027 9.15197C7.8223 9.33468 7.99985 9.65516 8 9.99963C7.99996 10.3442 7.8223 10.6645 7.53027 10.8473L4 13.0533V15.4059L15.2002 9.99963L4 4.5924V6.94494Z" fill="#000000"/>
</svg>
