<svg xmlns="http://www.w3.org/2000/svg" width="20" height="20" viewBox="0 0 20 20" fill="none"><rect width="20" height="20" fill="none"/>
<path d="M14.5 4.41895V8.41797L18 10.4189V15.5791L13.5 18.1504L10 16.1504L6.5 18.1504L2 15.5791V10.4189L5.5 8.41797V4.41895L10 1.84766L14.5 4.41895ZM4 11.5791V14.418L6.5 15.8467L9 14.418V11.5791L6.5 10.1504L4 11.5791ZM11 11.5791V14.418L13.5 15.8467L16 14.418V11.5791L13.5 10.1504L11 11.5791ZM7.5 5.5791V8.41797L10 9.84668L12.5 8.41797V5.5791L10 4.15039L7.5 5.5791Z" fill="#000000"/>
</svg>
