<svg xmlns="http://www.w3.org/2000/svg" width="20" height="20" viewBox="0 0 20 20" fill="none"><rect width="20" height="20" fill="none"/>
<path d="M7.97292 2.28007C9.05158 1.0668 10.947 1.0668 12.0257 2.28007C12.4139 2.71675 12.9338 3.0167 13.5061 3.13456C15.0965 3.46193 16.0451 5.10434 15.5335 6.6453L15.4729 6.85527C15.3523 7.349 15.3724 7.86913 15.5335 8.35429C15.8899 9.42887 15.5353 10.5512 14.7493 11.2439V16.9998C14.749 17.2454 14.628 17.4761 14.426 17.616C14.224 17.7556 13.9656 17.7882 13.7356 17.7019L9.99929 16.3006L6.26296 17.7019C6.03294 17.788 5.77449 17.7558 5.57253 17.616C5.3706 17.4761 5.24959 17.2454 5.24929 16.9998V11.243C4.46382 10.5502 4.10886 9.42849 4.46511 8.35429C4.62622 7.86909 4.64634 7.34904 4.52565 6.85527L4.46511 6.6453C3.96953 5.15266 4.84431 3.56437 6.34499 3.16874L6.49245 3.13456C6.99312 3.03148 7.45334 2.78863 7.82057 2.4373L7.97292 2.28007ZM13.2493 11.9324C12.7793 12.0784 12.3548 12.3492 12.0257 12.7195L11.9231 12.8299C10.8654 13.896 9.13301 13.8962 8.07546 12.8299L7.97292 12.7195C7.64364 12.349 7.2195 12.0784 6.74929 11.9324V15.9168L9.73561 14.7976L9.86647 14.7615C9.99852 14.7378 10.1358 14.75 10.263 14.7976L13.2493 15.9168V11.9324ZM10.9046 3.27714C10.4226 2.73484 9.57602 2.73484 9.09401 3.27714C8.49097 3.95531 7.68406 4.42125 6.79518 4.60429C6.0848 4.75078 5.66034 5.48421 5.88893 6.17265C6.1748 7.03412 6.17496 7.96552 5.88893 8.82695C5.66098 9.51523 6.08491 10.249 6.79518 10.3953C7.68433 10.5784 8.49091 11.0439 9.09401 11.7225C9.57588 12.2642 10.4226 12.264 10.9046 11.7225C11.5076 11.044 12.3144 10.5785 13.2034 10.3953C13.9138 10.2491 14.3377 9.51531 14.1096 8.82695C13.8236 7.96557 13.8238 7.03407 14.1096 6.17265C14.3383 5.48408 13.914 4.75058 13.2034 4.60429C12.3144 4.42121 11.5076 3.95543 10.9046 3.27714Z" fill="#000000"/>
</svg>
