<svg xmlns="http://www.w3.org/2000/svg" width="24" height="24" viewBox="0 0 24 24" fill="none"><rect width="24" height="24" fill="none"/>
<path d="M12.5 9C14.9853 9 17 11.0147 17 13.5C17 15.9853 14.9853 18 12.5 18C10.0147 18 8 15.9853 8 13.5C8 11.0147 10.0147 9 12.5 9ZM12.5 11C11.1193 11 10 12.1193 10 13.5C10 14.8807 11.1193 16 12.5 16C13.8807 16 15 14.8807 15 13.5C15 12.1193 13.8807 11 12.5 11Z" fill="#000000"/>
<path d="M18 7H19C20.6569 7 22 8.34315 22 10V18L21.9961 18.1543C21.9184 19.6883 20.6883 20.9184 19.1543 20.9961L19 21H5L4.8457 20.9961C3.31166 20.9184 2.08163 19.6883 2.00391 18.1543L2 18V10C2 8.68859 2.8422 7.57585 4.01465 7.16797C4.0054 7.11333 4 7.05727 4 7C4 6.44772 4.44772 6 5 6H6C6.55228 6 7 6.44772 7 7L9 4H16L18 7ZM8.07031 9H5C4.44772 9 4 9.44772 4 10V18C4 18.5523 4.44772 19 5 19H19C19.5523 19 20 18.5523 20 18V10C20 9.44772 19.5523 9 19 9H16.9297L14.9297 6H10.0703L8.07031 9Z" fill="#000000"/>
</svg>
