<svg xmlns="http://www.w3.org/2000/svg" width="20" height="20" viewBox="0 0 20 20" fill="none"><rect width="20" height="20" fill="none"/>
<path d="M10.5 6.25C12.0188 6.25 13.25 7.48122 13.25 9C13.25 10.5188 12.0188 11.75 10.5 11.75H8.75V14H7.25V6.25H10.5ZM8.75 10.25H10.5C11.1904 10.25 11.75 9.69036 11.75 9C11.75 8.30964 11.1904 7.75 10.5 7.75H8.75V10.25Z" fill="#000000"/>
<path d="M15 2.5C16.3807 2.5 17.5 3.61929 17.5 5V15C17.5 16.3807 16.3807 17.5 15 17.5H5C3.61929 17.5 2.5 16.3807 2.5 15V5C2.5 3.61929 3.61929 2.5 5 2.5H15ZM5 4C4.44772 4 4 4.44772 4 5V15C4 15.5177 4.39333 15.9438 4.89746 15.9951L5 16H15C15.5523 16 16 15.5523 16 15V5C16 4.44772 15.5523 4 15 4H5Z" fill="#000000"/>
</svg>
