<svg xmlns="http://www.w3.org/2000/svg" width="20" height="20" viewBox="0 0 20 20" fill="none"><rect width="20" height="20" fill="none"/>
<path d="M12.9258 2.00098C14.8395 2.00101 16.4969 3.33011 16.9121 5.19824L17.8809 9.55957C18.2163 11.0688 17.0675 12.501 15.5215 12.501H13.248L13.6123 14.0605C14.0891 16.0995 12.5412 18.0508 10.4473 18.0508H10.0498C9.74532 18.0507 9.47536 17.8675 9.35938 17.5947L9.31934 17.4727L9.02441 16.2158C8.615 14.4759 7.79723 12.8599 6.64062 11.501H3.75C2.78366 11.501 2.00025 10.7173 2 9.75098V3.75098C2 2.78448 2.7835 2.00098 3.75 2.00098H12.9258ZM7.5498 3.50098V10.2637C8.9837 11.8569 9.99339 13.7856 10.4844 15.8721L10.6406 16.54C11.668 16.4284 12.3932 15.4365 12.1514 14.4023L11.5713 11.9219C11.5192 11.6992 11.5719 11.4645 11.7139 11.2852C11.8561 11.1058 12.0729 11.001 12.3018 11.001H15.5215C16.1077 11.001 16.5438 10.458 16.417 9.88574L15.4473 5.52344C15.1844 4.34177 14.1364 3.50101 12.9258 3.50098H7.5498ZM3.75 3.50098C3.61193 3.50098 3.5 3.61291 3.5 3.75098V9.75098C3.50025 9.88883 3.61208 10.001 3.75 10.001H6.0498V3.50098H3.75Z" fill="#000000"/>
</svg>
