<svg xmlns="http://www.w3.org/2000/svg" width="20" height="20" viewBox="0 0 20 20" fill="none"><rect width="20" height="20" fill="none"/>
<path d="M13.707 7.70703L7.70703 13.707L6.29297 12.293L12.293 6.29297L13.707 7.70703Z" fill="#000000"/>
<path d="M12.25 11C12.9403 11 13.5 11.5597 13.5 12.25C13.5 12.9404 12.9404 13.5 12.25 13.5C11.5597 13.5 11 12.9403 11 12.25C11 11.5597 11.5597 11 12.25 11Z" fill="#000000"/>
<path d="M7.75 6.5C8.44033 6.5 8.99996 7.05968 9 7.75C9 8.44036 8.44036 9 7.75 9C7.05964 9 6.5 8.44036 6.5 7.75C6.50004 7.05968 7.05967 6.5 7.75 6.5Z" fill="#000000"/>
<path d="M10 2C14.4183 2 18 5.58172 18 10C18 14.4183 14.4183 18 10 18C5.58172 18 2 14.4183 2 10C2 5.58172 5.58172 2 10 2ZM10 4C6.68629 4 4 6.68629 4 10C4 13.3137 6.68629 16 10 16C13.3137 16 16 13.3137 16 10C16 6.68629 13.3137 4 10 4Z" fill="#000000"/>
</svg>
