<svg xmlns="http://www.w3.org/2000/svg" width="20" height="20" viewBox="0 0 20 20" fill="none"><rect width="20" height="20" fill="none"/>
<path d="M9.46973 3.46966C11.4193 1.52043 14.5806 1.52063 16.5303 3.46966C18.4797 5.41923 18.4804 8.58046 16.5312 10.5302L12.0303 15.0302C10.909 16.1512 9.09199 16.1511 7.9707 15.0302C6.84974 13.9089 6.84868 12.0909 7.96973 10.9697L12.4697 6.46966L13.5303 7.5302L9.03027 12.0302C8.49502 12.5657 8.49607 13.4342 9.03125 13.9697C9.56675 14.5048 10.4343 14.5049 10.9697 13.9697L15.4697 9.46966C16.8333 8.10572 16.8334 5.89407 15.4697 4.5302C14.1058 3.16696 11.8941 3.16677 10.5303 4.5302L5.77344 9.28801C3.72352 11.3382 3.72356 14.6626 5.77344 16.7128L6.03027 16.9697L4.96973 18.0312L4.71191 17.7734C2.07646 15.1375 2.07653 10.8634 4.71191 8.22747L9.46973 3.46966Z" fill="#000000"/>
</svg>
