<svg xmlns="http://www.w3.org/2000/svg" width="20" height="20" viewBox="0 0 20 20" fill="none"><rect width="20" height="20" fill="none"/>
<path d="M15 18H5V16H15V18Z" fill="#000000"/>
<path d="M15 6C16.6569 6 18 7.34315 18 9V11C18 12.6569 16.6569 14 15 14H5C3.34315 14 2 12.6569 2 11V9C2 7.34315 3.34315 6 5 6H15ZM5 8C4.44772 8 4 8.44772 4 9V11C4 11.5523 4.44772 12 5 12H15C15.5523 12 16 11.5523 16 11V9C16 8.44772 15.5523 8 15 8H5Z" fill="#000000"/>
<path d="M15 4H5V2H15V4Z" fill="#000000"/>
</svg>
