<svg xmlns="http://www.w3.org/2000/svg" width="20" height="20" viewBox="0 0 20 20" fill="none"><rect width="20" height="20" fill="none"/>
<path d="M18.5303 17.4697L17.4697 18.5303L13.9092 14.9697C12.7534 15.7565 11.4667 16.3605 10.2061 16.7207L10 16.7803L9.79395 16.7207C7.93336 16.1891 6.01224 15.131 4.54492 13.7305C3.08223 12.3343 2 10.5258 2 8.5C2 7.36089 2.35197 6.07985 3.07715 5.06445C3.20432 4.88641 3.34463 4.71683 3.49609 4.55664L1.46973 2.53027L2.53027 1.46973L18.5303 17.4697ZM4.55664 5.61719C4.46528 5.71687 4.37845 5.82273 4.29785 5.93555C3.77317 6.67011 3.5 7.63922 3.5 8.5C3.5 9.97402 4.29299 11.4158 5.58008 12.6445C6.80889 13.8175 8.42516 14.7294 10 15.2158C10.9596 14.9194 11.9321 14.4612 12.8252 13.8857L4.55664 5.61719Z" fill="#000000"/>
<path d="M13.5 3.25C15.0357 3.25 16.1844 4.03065 16.9229 5.06445C17.648 6.07985 18 7.36089 18 8.5C18 10.21 17.2275 11.7639 16.1074 13.0469L15.0439 11.9834C15.9575 10.9118 16.5 9.7175 16.5 8.5C16.5 7.63922 16.2268 6.67011 15.7021 5.93555C15.1906 5.21951 14.4642 4.75 13.5 4.75C12.7185 4.75001 11.4679 5.15018 10.624 6.41602L10.25 6.97754C10.2203 7.02207 10.1818 7.05586 10.1387 7.07812L9.04199 5.98145C8.9337 5.85863 8.821 5.74724 8.70605 5.64551L6.31543 3.25488C6.37633 3.25236 6.43783 3.25 6.5 3.25C7.51488 3.24997 8.89807 3.66658 10 4.80762C11.1019 3.66659 12.4851 3.25001 13.5 3.25Z" fill="#000000"/>
</svg>
