<svg xmlns="http://www.w3.org/2000/svg" width="20" height="20" viewBox="0 0 20 20" fill="none"><rect width="20" height="20" fill="none"/>
<path d="M19 18.9998H11V16.9998H19V18.9998Z" fill="#000000"/>
<path d="M10.3994 2.53199C11.9859 1.47458 14.0981 1.68384 15.4463 3.03199L16.207 3.79274C16.4445 4.0304 16.547 4.37183 16.4795 4.70094C16.4117 5.02986 16.1829 5.30374 15.8711 5.42848C14.83 5.84494 14.2368 6.13765 13.8184 6.44703C13.7221 6.51826 13.6313 6.59165 13.5459 6.67164L19 5.83375V6.99977C18.9999 8.13181 18.8484 9.13633 18.5303 9.99977H16.3086C16.5987 9.55446 16.819 8.96469 16.9258 8.17652L12.6074 8.84156C11.4443 9.02015 10.4327 7.78207 11.0859 6.64625C11.5107 5.90834 11.9566 5.33591 12.6289 4.83863C12.9472 4.60327 13.3055 4.39281 13.7148 4.18922C13.0555 3.75595 12.1866 3.74436 11.5088 4.19606L10 5.20192L8.49121 4.19606C7.81316 3.7442 6.94356 3.7555 6.28418 4.18922C6.69384 4.39293 7.05259 4.60312 7.37109 4.83863C8.04343 5.33591 8.48932 5.90834 8.91406 6.64625C9.56731 7.78208 8.55569 9.02014 7.39258 8.84156L3.07227 8.17652C3.22624 9.33244 3.61486 10.0625 4.11816 10.53C4.78929 11.153 5.86394 11.4998 7.5 11.4998H9.03906L7.15234 15.7429C7.75193 15.9715 8.37267 16.1227 9 16.2019V18.2185C7.80644 18.0986 6.62906 17.7649 5.52832 17.2146L5.38672 17.1443L4.53223 16.7166L6.00391 13.4021C4.74656 13.2284 3.62789 12.8038 2.75684 11.9949C1.53845 10.8631 1.00012 9.16709 1 6.99977V5.83375L6.4541 6.67262C6.36855 6.59245 6.27812 6.51839 6.18164 6.44703C5.76324 6.13765 5.17001 5.84494 4.12891 5.42848C3.81706 5.30374 3.5883 5.02986 3.52051 4.70094C3.45297 4.37183 3.55554 4.0304 3.79297 3.79274L4.55371 3.03199C5.90188 1.68384 8.01414 1.47458 9.60059 2.53199L10 2.79762L10.3994 2.53199Z" fill="#000000"/>
<path d="M18.7578 13.9656L11.2578 15.9656L10.7422 14.0339L18.2422 12.0339L18.7578 13.9656Z" fill="#000000"/>
</svg>
