<svg xmlns="http://www.w3.org/2000/svg" width="20" height="20" viewBox="0 0 20 20" fill="none"><rect width="20" height="20" fill="none"/>
<path d="M14.6582 2.21094C16.0129 2.88827 17.1117 3.98713 17.7891 5.3418L18.1709 6.10547L16.5996 8.2002C15.5612 9.58482 15.0001 11.2693 15 13V13.4141L12.707 15.707L12.2412 16.1738L11.6289 15.9287C10.2212 15.3656 8.93332 14.5764 7.80762 13.6055L3.70703 17.707L2.29297 16.293L6.39258 12.1924C5.42209 11.067 4.63417 9.77828 4.07129 8.37109L3.82617 7.75879L4.29297 7.29297L6.58594 5H7C8.73085 5 10.4151 4.43887 11.7998 3.40039L13.8945 1.8291L14.6582 2.21094ZM13 5C11.3821 6.21351 9.43693 6.90501 7.42285 6.99023L6.1875 8.22559C7.33573 10.6854 9.31382 12.663 11.7734 13.8115L13.0088 12.5762C13.0942 10.5625 13.7867 8.61764 15 7L15.8193 5.90723C15.3952 5.19754 14.8016 4.60368 14.0918 4.17969L13 5Z" fill="#000000"/>
</svg>
