<svg xmlns="http://www.w3.org/2000/svg" width="24" height="24" viewBox="0 0 24 24" fill="none"><rect width="24" height="24" fill="none"/>
<path d="M10.4688 2.24618C11.4125 1.68617 12.5875 1.68617 13.5312 2.24618L19.5312 5.80868C20.4414 6.34907 20.9997 7.33031 21 8.38875V15.6114C21 16.67 20.4414 17.6509 19.5312 18.1915L13.5312 21.754C12.5873 22.3142 11.4127 22.3142 10.4688 21.754L4.46875 18.1915C3.55859 17.6509 3 16.67 3 15.6114V8.38875C3.00025 7.33031 3.55861 6.34907 4.46875 5.80868L10.4688 2.24618ZM11 12.586L9.20703 10.7931L7.79297 12.2071L11 15.4141L16.207 10.2071L14.793 8.79305L11 12.586Z" fill="#000000"/>
</svg>
