<svg xmlns="http://www.w3.org/2000/svg" width="20" height="20" viewBox="0 0 20 20" fill="none"><rect width="20" height="20" fill="none"/>
<path d="M5 11.9999C6.65685 11.9999 8 13.343 8 14.9999C7.99984 16.6566 6.65675 17.9999 5 17.9999C3.34325 17.9999 2.00016 16.6566 2 14.9999C2 13.343 3.34315 11.9999 5 11.9999ZM5 13.9999C4.44772 13.9999 4 14.4476 4 14.9999C4.00016 15.552 4.44782 15.9999 5 15.9999C5.55218 15.9999 5.99984 15.552 6 14.9999C6 14.4476 5.55228 13.9999 5 13.9999Z" fill="#000000"/>
<path d="M11 5.9999H7.5C6.6718 6.0001 6.00009 6.67167 6 7.4999C6.00016 8.32806 6.67184 8.9997 7.5 8.9999H12.5C14.4329 8.9999 15.9999 10.567 16 12.4999C15.9998 14.4328 14.4329 15.9999 12.5 15.9999H10V13.9999H12.5C13.3283 13.9999 13.9998 13.3282 14 12.4999C13.9999 11.6715 13.3284 10.9999 12.5 10.9999H7.5C5.56727 10.9997 4.00016 9.43263 4 7.4999C4.00009 5.5671 5.56723 4.0001 7.5 3.9999H11V5.9999Z" fill="#000000"/>
<path d="M13.2578 2.0624C13.4167 1.97445 13.6106 1.97989 13.7646 2.07607L17.7646 4.57607C17.9108 4.66745 18 4.82756 18 4.9999C17.9999 5.17218 17.9108 5.33241 17.7646 5.42373L13.7646 7.92373C13.6107 8.0198 13.4166 8.02525 13.2578 7.9374C13.0989 7.84934 13.0001 7.68155 13 7.4999V2.4999C13 2.31819 13.0989 2.15053 13.2578 2.0624Z" fill="#000000"/>
</svg>
