<svg xmlns="http://www.w3.org/2000/svg" width="20" height="20" viewBox="0 0 20 20" fill="none"><rect width="20" height="20" fill="none"/>
<path d="M17.5 11H19V13H15C14.7239 13 14.5 13.2239 14.5 13.5C14.5 13.7761 14.7239 14 15 14H17C18.3807 14 19.5 15.1193 19.5 16.5C19.5 17.7094 18.641 18.7175 17.5 18.9492V20H15.5V19H13V17H17C17.2761 17 17.5 16.7761 17.5 16.5C17.5 16.2239 17.2761 16 17 16H15C13.6193 16 12.5 14.8807 12.5 13.5C12.5 12.1193 13.6193 11 15 11H15.5V10H17.5V11Z" fill="#000000"/>
<path d="M10 2C11.0482 2 12.0484 2.20378 12.9658 2.57031C12.9814 2.57655 12.9971 2.58254 13.0127 2.58887C13.1027 2.62549 13.1919 2.66336 13.2803 2.70312C13.295 2.70976 13.3095 2.71691 13.3242 2.72363C13.4164 2.76581 13.5074 2.80993 13.5977 2.85547C13.6012 2.85724 13.6049 2.85858 13.6084 2.86035C15.4217 3.77838 16.8366 5.3651 17.5303 7.29785C17.5392 7.32284 17.5479 7.34794 17.5566 7.37305C17.5952 7.48396 17.6313 7.59591 17.665 7.70898C17.6762 7.74628 17.6867 7.78377 17.6973 7.82129C17.714 7.88049 17.7287 7.94028 17.7441 8H13.0908C12.1027 7.99987 11.1658 7.56083 10.5332 6.80176C9.85158 5.98378 9.63435 4.95251 9.82812 4.00391C8.47532 4.04197 7.2348 4.52671 6.24902 5.31738C8.11419 5.89433 9.35145 7.75343 9.10156 9.75293C9.00285 10.5426 8.63057 11.2797 8.04785 11.8271C7.81218 12.0486 7.72949 12.3883 7.83691 12.6934L8.9707 15.9092C9.30529 15.9671 9.64888 16 10 16C10.3408 16 10.6747 15.9696 11 15.915V17.9355C10.6723 17.9764 10.3388 18 10 18C9.81017 18 9.62207 17.9905 9.43555 17.9775C9.4173 17.9763 9.39907 17.975 9.38086 17.9736C5.25201 17.6575 2 14.2099 2 10C2 5.58172 5.58172 2 10 2ZM4.75293 7.08984C4.2738 7.95188 4 8.94382 4 10C4 11.9976 4.97714 13.7659 6.47852 14.8564L5.95117 13.3584C5.5801 12.3058 5.86521 11.1333 6.67871 10.3691C6.91892 10.1434 7.07487 9.83558 7.11621 9.50488C7.26194 8.33906 6.42542 7.27578 5.27051 7.14746L4.75293 7.08984ZM11.8193 4.28125C11.6941 4.69198 11.7675 5.15914 12.0693 5.52148C12.3219 5.82457 12.6963 5.99987 13.0908 6H14.4707C13.7643 5.21102 12.8529 4.60976 11.8193 4.28125Z" fill="#000000"/>
</svg>
