<svg xmlns="http://www.w3.org/2000/svg" width="20" height="20" viewBox="0 0 20 20" fill="none"><rect width="20" height="20" fill="none"/>
<path d="M14 10C16.2091 10 18 11.7909 18 14C18 14.8334 17.7437 15.6064 17.3076 16.2471L19.0303 17.9697L17.9697 19.0303L16.2471 17.3076C15.6064 17.7437 14.8334 18 14 18C11.7909 18 10 16.2091 10 14C10 11.7909 11.7909 10 14 10ZM14 11.5C12.6193 11.5 11.5 12.6193 11.5 14C11.5 15.3807 12.6193 16.5 14 16.5C15.3807 16.5 16.5 15.3807 16.5 14C16.5 12.6193 15.3807 11.5 14 11.5Z" fill="#000000"/>
<path d="M7.56055 2.7959L12.6777 4.69043L17.001 2.81152C17.2327 2.71086 17.4996 2.73367 17.7109 2.87207C17.9222 3.0106 18.0496 3.2464 18.0498 3.49902V7.99902H16.5498V4.6416L13.4502 5.98926V7.99902H11.9502V6.02051L8 4.55762V15.0332L7.56934 15.1992L2.99902 17.1865C2.7672 17.2873 2.50045 17.2646 2.28906 17.126C2.07781 16.9873 1.9502 16.7517 1.9502 16.499V5.00684L2.40137 4.81152L7.27734 2.69141L7.56055 2.7959ZM3.4502 5.99023V15.3555L6.5 14.0293V4.66309L3.4502 5.99023Z" fill="#000000"/>
</svg>
