<svg xmlns="http://www.w3.org/2000/svg" width="20" height="20" viewBox="0 0 20 20" fill="none"><rect width="20" height="20" fill="none"/>
<path d="M15.5664 10.5C16.3909 10.5 16.6321 11.0213 16.8408 11.6807L19 18.5H17.4023L16.917 16.8789H14.0254L13.5029 18.5H12L14.2656 11.6807C14.4853 11.0192 14.7417 10.5001 15.5664 10.5ZM14.4629 15.5098H16.499L15.5283 12.2773H15.4902L14.4629 15.5098Z" fill="#000000"/>
<path d="M11.3105 5.9502H15.2998C16.5763 5.9502 17.6461 6.82083 17.9561 8H16.335C16.1102 7.66836 15.7306 7.4502 15.2998 7.4502H10.6895L7.68945 4.4502H4.7002C4.00984 4.4502 3.4502 5.00984 3.4502 5.7002V14.2998C3.4502 14.9902 4.00984 15.5498 4.7002 15.5498H10V17.0498H4.7002C3.18141 17.0498 1.9502 15.8186 1.9502 14.2998V5.7002C1.9502 4.18141 3.18141 2.9502 4.7002 2.9502H8.31055L11.3105 5.9502Z" fill="#000000"/>
</svg>
