<svg xmlns="http://www.w3.org/2000/svg" width="24" height="24" viewBox="0 0 24 24" fill="none"><rect width="24" height="24" fill="none"/>
<path d="M12.999 8.76562L14.9658 7.62988L15.9658 9.3623L14.0049 10.4951L15.9707 11.6299L14.9707 13.3623L12.999 12.2236L13 14.5H11L10.999 12.2305L9.03809 13.3623L8.03809 11.6299L10.0049 10.4951L8.04297 9.3623L9.04297 7.62988L10.999 8.75977V6.5H12.999V8.76562Z" fill="#000000"/>
<path d="M12 2C18.0523 2 22 6.44772 22 11.5C22 14.5653 20.6057 17.1891 18.6943 19.0322C16.7977 20.8611 14.3093 22 12 22C11.4477 22 11 21.5523 11 21V18.9668C8.50563 18.8043 6.3711 18.0279 4.79395 16.7031C2.99346 15.1906 2 13.0293 2 10.5C2 7.97067 2.99346 5.8094 4.79395 4.29688C6.57805 2.79822 9.07521 2 12 2ZM12 4C9.42495 4 7.42194 4.7019 6.08105 5.82812C4.7567 6.94059 4 8.52944 4 10.5C4 12.4706 4.7567 14.0594 6.08105 15.1719C7.42194 16.2981 9.42495 17 12 17H13V19.9053C14.445 19.6441 16.009 18.8431 17.3057 17.5928C18.8943 16.0609 20 13.9346 20 11.5C20 7.55228 16.9477 4 12 4Z" fill="#000000"/>
</svg>
