<svg xmlns="http://www.w3.org/2000/svg" width="24" height="24" viewBox="0 0 24 24" fill="none"><rect width="24" height="24" fill="none"/>
<path d="M19.5 17.5C19.7761 17.5 20 17.7239 20 18V21.5H21V22.5H17V21.5H18V18.5H17V17.5H19.5Z" fill="#000000"/>
<path d="M12 2C13.6569 2 15 3.34314 15 5V7H17C18.6568 7 20 8.34317 20 10V12H18V10C18 9.44774 17.5523 9 17 9H13V5C13 4.44771 12.5523 4 12 4H6V20H15V22H4V2H12Z" fill="#000000"/>
<path d="M19 14C19.6904 14 20.25 14.5596 20.25 15.25C20.25 15.9404 19.6904 16.5 19 16.5C18.3096 16.5 17.75 15.9404 17.75 15.25C17.75 14.5596 18.3096 14 19 14Z" fill="#000000"/>
</svg>
