<svg xmlns="http://www.w3.org/2000/svg" width="20" height="20" viewBox="0 0 20 20" fill="none"><rect width="20" height="20" fill="none"/>
<path d="M8.43932 2.15344C9.99096 1.84485 11.5998 2.00415 13.0614 2.60949C14.523 3.21494 15.7722 4.24043 16.6512 5.55578C17.5302 6.87129 17.9998 8.41797 17.9999 10.0001V11.0001C17.9999 12.657 16.6567 14.0001 14.9999 14.0001C14.0825 14 13.262 13.5874 12.7118 12.9386C12.023 13.5744 11.1336 13.9488 10.1981 13.9952L9.99987 14.0001C8.93912 14 7.92182 13.5783 7.17175 12.8282C6.46865 12.125 6.05377 11.1869 6.00475 10.1984L5.99987 10.0001C5.99995 8.93936 6.42168 7.92206 7.17175 7.17199C7.92182 6.42192 8.93912 6.0002 9.99987 6.00012L10.1981 6.005C11.1867 6.05401 12.1247 6.46889 12.828 7.17199C13.5781 7.92206 13.9998 8.93936 13.9999 10.0001V11.0001C13.9999 11.5523 14.4477 11.9999 14.9999 12.0001C15.5522 12.0001 15.9999 11.5524 15.9999 11.0001V10.0001C15.9998 8.81373 15.6481 7.65361 14.9891 6.66711C14.3299 5.68059 13.392 4.91122 12.2958 4.45715C11.1995 4.00317 9.9927 3.88387 8.82897 4.11535C7.66531 4.34693 6.59666 4.91895 5.75768 5.75793C4.91871 6.5969 4.34669 7.66555 4.11511 8.82922C3.88363 9.99295 4.00293 11.1998 4.4569 12.296C4.91097 13.3922 5.68034 14.3301 6.66686 14.9894C7.65337 15.6484 8.81349 16.0001 9.99987 16.0001V18.0001C8.41773 18.0001 6.87104 17.5305 5.55554 16.6515C4.24019 15.7725 3.2147 14.5232 2.60925 13.0616C2.00391 11.6 1.8446 9.99121 2.15319 8.43957C2.4619 6.88781 3.22388 5.46165 4.34264 4.34289C5.46141 3.22413 6.88757 2.46215 8.43932 2.15344ZM9.99987 8.00012C9.46955 8.0002 8.96081 8.21105 8.58581 8.58605C8.21081 8.96105 7.99995 9.4698 7.99987 10.0001L8.00964 10.1974C8.055 10.6552 8.25771 11.0859 8.58581 11.4142C8.96081 11.7892 9.46955 12 9.99987 12.0001L10.1971 11.9903C10.6551 11.945 11.0856 11.7425 11.4139 11.4142C11.789 11.0391 11.9999 10.5305 11.9999 10.0001L11.9901 9.80285C11.9447 9.34498 11.7421 8.91426 11.4139 8.58605C11.0857 8.25795 10.655 8.05525 10.1971 8.00988L9.99987 8.00012Z" fill="#000000"/>
</svg>
