<svg xmlns="http://www.w3.org/2000/svg" width="20" height="20" viewBox="0 0 20 20" fill="none"><rect width="20" height="20" fill="none"/>
<path d="M10 2C11.6569 2 13 3.34315 13 5C13 6.30574 12.1645 7.41299 11 7.8252V9C12.9137 9 14.5126 10.3441 14.9062 12.1396C16.1201 12.5239 17 13.659 17 15C17 16.6569 15.6569 18 14 18C12.3431 18 11 16.6569 11 15C11 13.7521 11.7617 12.6817 12.8457 12.2295C12.544 11.5075 11.8314 11 11 11H9C8.16844 11 7.45499 11.5073 7.15332 12.2295C8.23777 12.6815 9 13.7518 9 15C9 16.6569 7.65685 18 6 18C4.34315 18 3 16.6569 3 15C3 13.6594 3.87938 12.5242 5.09277 12.1396C5.48636 10.344 7.08622 9 9 9V7.8252C7.83548 7.41299 7 6.30574 7 5C7 3.34315 8.34315 2 10 2ZM6 14C5.44772 14 5 14.4477 5 15C5 15.5523 5.44772 16 6 16C6.55228 16 7 15.5523 7 15C7 14.4477 6.55228 14 6 14ZM14 14C13.4477 14 13 14.4477 13 15C13 15.5523 13.4477 16 14 16C14.5523 16 15 15.5523 15 15C15 14.4477 14.5523 14 14 14ZM10 4C9.44772 4 9 4.44772 9 5C9 5.55228 9.44772 6 10 6C10.5523 6 11 5.55228 11 5C11 4.44772 10.5523 4 10 4Z" fill="#000000"/>
</svg>
