<svg xmlns="http://www.w3.org/2000/svg" width="20" height="20" viewBox="0 0 20 20" fill="none"><rect width="20" height="20" fill="none"/>
<path d="M12 2C15.3137 2 18 4.68629 18 8C18 10.7077 16.2061 12.9956 13.7422 13.7422C12.9956 16.2061 10.7077 18 8 18C4.68629 18 2 15.3137 2 12C2 9.29252 3.79323 7.00361 6.25684 6.25684C7.00361 3.79323 9.29252 2 12 2ZM6 7.96777C4.51828 8.70413 3.5 10.2331 3.5 12C3.5 14.4853 5.51472 16.5 8 16.5C9.76701 16.5 11.295 15.481 12.0312 13.999C12.0208 13.9991 12.0104 14 12 14C8.68629 14 6 11.3137 6 8C6 7.98925 5.99994 7.97851 6 7.96777ZM8 7.5C7.83938 7.5 7.68069 7.508 7.52441 7.52441C7.508 7.68069 7.5 7.83938 7.5 8C7.5 10.4853 9.51472 12.5 12 12.5C12.1603 12.5 12.3186 12.491 12.4746 12.4746C12.491 12.3186 12.5 12.1603 12.5 12C12.5 9.51472 10.4853 7.5 8 7.5ZM12 3.5C10.2331 3.5 8.70413 4.51828 7.96777 6C7.97851 5.99994 7.98925 6 8 6C11.3137 6 14 8.68629 14 12C14 12.0104 13.9991 12.0208 13.999 12.0312C15.481 11.295 16.5 9.76701 16.5 8C16.5 5.51472 14.4853 3.5 12 3.5Z" fill="#000000"/>
</svg>
