<svg xmlns="http://www.w3.org/2000/svg" width="24" height="24" viewBox="0 0 24 24" fill="none"><rect width="24" height="24" fill="none"/>
<path d="M19 3C20.6569 3 22 4.34315 22 6V12C22 13.6569 20.6569 15 19 15H18V18C18 19.6569 16.6569 21 15 21H5C3.34409 21 2 19.6588 2 18.001V11.998C2 10.3397 3.34468 9 5 9H6V5.99805C6 4.33966 7.34468 3 9 3H19ZM5 11C4.44618 11 4 11.4473 4 11.998V18.001C4 18.5523 4.44677 19 5 19H15C15.5523 19 16 18.5523 16 18V15H9C7.34409 15 6 13.6588 6 12.001V11H5ZM8 12.001C8 12.5523 8.44677 13 9 13H19C19.5523 13 20 12.5523 20 12V9H8V12.001ZM9 5C8.44618 5 8 5.4473 8 5.99805V7H20V6C20 5.44772 19.5523 5 19 5H9Z" fill="#000000"/>
</svg>
