<svg xmlns="http://www.w3.org/2000/svg" width="20" height="20" viewBox="0 0 20 20" fill="none"><rect width="20" height="20" fill="none"/>
<path d="M10 15.0498H5V13.5498H10V15.0498Z" fill="#000000"/>
<path d="M10 12.0498H5V10.5498H10V12.0498Z" fill="#000000"/>
<path d="M15 9.4502H10V7.9502H15V9.4502Z" fill="#000000"/>
<path d="M15 6.4502H10V4.9502H15V6.4502Z" fill="#000000"/>
<path d="M14.6543 2.50391C16.1883 2.58163 17.4184 3.81166 17.4961 5.3457L17.5 5.5V14.5C17.5 16.1569 16.1569 17.5 14.5 17.5H5.5C3.84315 17.5 2.5 16.1569 2.5 14.5V5.5C2.5 3.8949 3.76056 2.58421 5.3457 2.50391L5.5 2.5H14.5L14.6543 2.50391ZM5.5 4C4.67157 4 4 4.67157 4 5.5V14.5C4 15.3284 4.67157 16 5.5 16H14.5C15.3284 16 16 15.3284 16 14.5V5.5C16 4.67157 15.3284 4 14.5 4H5.5Z" fill="#000000"/>
</svg>
