<svg xmlns="http://www.w3.org/2000/svg" width="24" height="24" viewBox="0 0 24 24" fill="none"><rect width="24" height="24" fill="none"/>
<path d="M5.5 15C7.433 15 9 16.567 9 18.5C9 20.433 7.433 22 5.5 22C3.567 22 2 20.433 2 18.5C2 16.567 3.567 15 5.5 15ZM5.5 17C4.67157 17 4 17.6716 4 18.5C4 19.3284 4.67157 20 5.5 20C6.32843 20 7 19.3284 7 18.5C7 17.6716 6.32843 17 5.5 17Z" fill="#000000"/>
<path d="M13 6H8.5C7.11929 6 6 7.11929 6 8.5C6.00014 9.8806 7.11937 11 8.5 11H15.5C17.9852 11.0001 20 13.0148 20 15.5C19.9999 17.9851 17.9851 19.9999 15.5 20H11V18H15.5C16.8806 17.9999 17.9999 16.8805 18 15.5C18 14.1193 16.8806 13.0001 15.5 13H8.5C6.0148 13 4.00014 10.9852 4 8.5C4 6.01472 6.01472 4 8.5 4H13V6Z" fill="#000000"/>
<path d="M18.5 2C20.433 2 22 3.567 22 5.5C22 7.433 20.433 9 18.5 9C16.567 9 15 7.433 15 5.5C15 3.567 16.567 2 18.5 2ZM18.5 4C17.6716 4 17 4.67157 17 5.5C17 6.32843 17.6716 7 18.5 7C19.3284 7 20 6.32843 20 5.5C20 4.67157 19.3284 4 18.5 4Z" fill="#000000"/>
</svg>
