<svg xmlns="http://www.w3.org/2000/svg" width="20" height="20" viewBox="0 0 20 20" fill="none"><rect width="20" height="20" fill="none"/>
<path d="M6.53003 8.53046L5.03003 10.0305C3.66634 11.3943 3.66652 13.606 5.03003 14.9699C6.39396 16.3338 8.60551 16.3337 9.96949 14.9699L11.4695 13.4699L12.53 14.5305L11.03 16.0305C9.08028 17.98 5.91919 17.9801 3.96949 16.0305C2.0202 14.0807 2.02004 10.9196 3.96949 8.96992L5.46949 7.46992L6.53003 8.53046Z" fill="#000000"/>
<path d="M12.53 8.53144L8.53003 12.5314L7.46949 11.4709L11.4695 7.47089L12.53 8.53144Z" fill="#000000"/>
<path d="M8.96949 3.96992C10.9191 2.02035 14.0803 2.02054 16.03 3.96992C17.9797 5.91964 17.9797 9.08072 16.03 11.0305L14.53 12.5305L13.4695 11.4699L14.9695 9.96992C16.3334 8.60596 16.3334 6.3944 14.9695 5.03046C13.6055 3.66687 11.3939 3.66668 10.03 5.03046L8.53003 6.53046L7.46949 5.46992L8.96949 3.96992Z" fill="#000000"/>
</svg>
