<svg xmlns="http://www.w3.org/2000/svg" width="20" height="20" viewBox="0 0 20 20" fill="none"><rect width="20" height="20" fill="none"/>
<path d="M11 2C12.6569 2 14 3.34315 14 5V15C14 16.6569 12.6569 18 11 18H9C7.34315 18 6 16.6569 6 15V5C6 3.34315 7.34315 2 9 2H11ZM9 4C8.44772 4 8 4.44772 8 5V15C8 15.5523 8.44772 16 9 16H11C11.5523 16 12 15.5523 12 15V5C12 4.44772 11.5523 4 11 4H9Z" fill="#000000"/>
<path d="M4 15H2V5H4V15Z" fill="#000000"/>
<path d="M18 15H16V5H18V15Z" fill="#000000"/>
</svg>
