<svg xmlns="http://www.w3.org/2000/svg" width="20" height="20" viewBox="0 0 20 20" fill="none"><rect width="20" height="20" fill="none"/>
<path d="M13.4214 5.5C14.1117 5.5 14.6714 6.05964 14.6714 6.75C14.6714 7.44036 14.1117 8 13.4214 8C12.7312 7.99986 12.1714 7.44027 12.1714 6.75C12.1714 6.05973 12.7312 5.50014 13.4214 5.5Z" fill="#000000"/>
<path d="M16.4214 2C17.3879 2 18.1714 2.7835 18.1714 3.75V9.83594C18.1713 10.3 17.9868 10.7451 17.6587 11.0732L11.3657 17.3662C10.2918 18.4398 8.55091 18.4399 7.47705 17.3662L2.80518 12.6943C1.73161 11.6205 1.73161 9.87954 2.80518 8.80566L9.09815 2.5127C9.42624 2.1846 9.87147 2.00011 10.3354 2H16.4214ZM10.3354 3.5C10.2693 3.50011 10.2055 3.52645 10.1587 3.57324L3.86572 9.86621C3.37794 10.3543 3.37794 11.1457 3.86572 11.6338L8.5376 16.3057C9.02567 16.7936 9.81705 16.7935 10.3052 16.3057L16.5981 10.0127C16.645 9.96585 16.6713 9.90219 16.6714 9.83594V3.75C16.6714 3.61193 16.5595 3.5 16.4214 3.5H10.3354Z" fill="#000000"/>
</svg>
