<svg xmlns="http://www.w3.org/2000/svg" width="24" height="24" viewBox="0 0 24 24" fill="none"><rect width="24" height="24" fill="none"/>
<path d="M21.707 20.293L20.293 21.707L13.8232 15.2373L9.03027 20.0303L8.84473 20.2168L8.58301 20.2451L4.20703 20.7314C3.66597 20.7912 3.20849 20.3341 3.26855 19.793L3.75488 15.417L3.7832 15.1553L3.96973 14.9697L8.7627 10.1768L2.29297 3.70703L3.70703 2.29297L21.707 20.293Z" fill="#000000"/>
<path d="M12.499 6.5C15.2603 6.50013 17.499 8.73869 17.499 11.5V11.5615L16.4873 12.5732L11.4268 7.5127L12.4395 6.5H12.499Z" fill="#000000"/>
<path d="M14.9697 3.96973C16.3671 2.57269 18.6329 2.57281 20.0303 3.96973C21.4272 5.36713 21.4273 7.63293 20.0303 9.03027L19.2842 9.77539C18.6557 7.29523 16.7038 5.34327 14.2236 4.71484L14.9697 3.96973Z" fill="#000000"/>
</svg>
