<svg xmlns="http://www.w3.org/2000/svg" width="24" height="24" viewBox="0 0 24 24" fill="none"><rect width="24" height="24" fill="none"/>
<path d="M15.8782 7C16.7065 7.00014 17.3782 7.67166 17.3782 8.5C17.3782 9.32834 16.7065 9.99986 15.8782 10C15.05 9.99975 14.3782 9.32827 14.3782 8.5C14.3782 7.67173 15.05 7.00025 15.8782 7Z" fill="#000000"/>
<path d="M18.3782 3C20.0349 3.00014 21.3782 4.34323 21.3782 6V12.1055C21.3782 12.9589 21.0142 13.7727 20.3782 14.3418L13.7883 20.2383C12.1383 21.7144 9.60211 21.5697 8.13111 19.915L4.01001 15.2783C2.60346 13.6955 2.67411 11.2905 4.17115 9.79297L10.0852 3.87891C10.6476 3.31656 11.411 3.0002 12.2063 3H18.3782ZM12.2063 5C11.9414 5.0002 11.6866 5.1057 11.4993 5.29297L5.58521 11.207C4.83692 11.9558 4.80195 13.1589 5.50513 13.9502L9.62623 18.5859C10.3617 19.4131 11.6293 19.4858 12.4544 18.748L19.0452 12.8506C19.2569 12.6609 19.3782 12.3898 19.3782 12.1055V6C19.3782 5.4478 18.9303 5.00014 18.3782 5H12.2063Z" fill="#000000"/>
</svg>
