<svg xmlns="http://www.w3.org/2000/svg" width="20" height="20" viewBox="0 0 20 20" fill="none"><rect width="20" height="20" fill="none"/>
<path d="M10 11.5C11.934 11.5 13.6892 12.0533 14.9746 13.1875C16.2755 14.3354 17 15.9958 17 18H15C15 16.5043 14.4744 15.4146 13.6504 14.6875C12.8108 13.9468 11.5658 13.5 10 13.5C8.43416 13.5 7.18917 13.9468 6.34961 14.6875C5.52558 15.4146 5 16.5043 5 18H3C3 15.9958 3.72455 14.3354 5.02539 13.1875C6.31082 12.0533 8.06596 11.5 10 11.5Z" fill="#000000"/>
<path d="M10 2C12.2091 2 14 3.79086 14 6C14 8.20914 12.2091 10 10 10C7.79086 10 6 8.20914 6 6C6 3.79086 7.79086 2 10 2ZM10 4C8.89543 4 8 4.89543 8 6C8 7.10457 8.89543 8 10 8C11.1046 8 12 7.10457 12 6C12 4.89543 11.1046 4 10 4Z" fill="#000000"/>
</svg>
