<svg xmlns="http://www.w3.org/2000/svg" width="20" height="20" viewBox="0 0 20 20" fill="none"><rect width="20" height="20" fill="none"/>
<path d="M10 2C14.4183 2 18 5.58172 18 10C18 14.4183 14.4183 18 10 18C5.58172 18 2 14.4183 2 10C2 5.58172 5.58172 2 10 2ZM6.46973 12.4697L7.53027 13.5303L13.5303 7.53027L12.4697 6.46973L6.46973 12.4697ZM12.25 11C11.5597 11 11 11.5597 11 12.25C11 12.9403 11.5597 13.5 12.25 13.5C12.9404 13.5 13.5 12.9404 13.5 12.25C13.5 11.5597 12.9403 11 12.25 11ZM7.75 6.5C7.05966 6.5 6.50003 7.05967 6.5 7.75C6.5 8.44036 7.05964 9 7.75 9C8.44035 8.99999 9 8.44035 9 7.75C8.99997 7.05968 8.44033 6.50001 7.75 6.5Z" fill="#000000"/>
</svg>
