<svg xmlns="http://www.w3.org/2000/svg" width="20" height="20" viewBox="0 0 20 20" fill="none"><rect width="20" height="20" fill="none"/>
<path d="M10 2C13.866 2 17 3.567 17 5.5C17 5.92739 16.8459 6.33622 16.5654 6.71484L13.0215 12.1875C12.9982 12.2235 12.9841 12.2658 12.9814 12.3086L12.7764 15.5996C12.7552 15.9386 12.686 16.4278 12.3584 16.8447C12.0741 17.2063 11.5847 17.6435 10.8076 17.873C10.0336 18.1016 9.04047 18.1048 7.7793 17.7168L7.27637 17.5625L7.01367 12.3047C7.01149 12.261 6.99826 12.2184 6.97461 12.1816L3.52344 6.82812C3.18677 6.41833 3 5.97047 3 5.5C3 3.567 6.13401 2 10 2ZM13.626 8.49316C12.5683 8.81407 11.3275 9 10 9C8.67669 9 7.43924 8.8161 6.38379 8.49707L8.23535 11.3691C8.40131 11.6267 8.49639 11.9235 8.51172 12.2295L8.7207 16.4141C9.49214 16.5859 10.0255 16.5401 10.3828 16.4346C10.8093 16.3086 11.0502 16.0813 11.1787 15.918C11.2179 15.8681 11.2634 15.7594 11.2793 15.5059L11.4844 12.2148C11.5031 11.915 11.5994 11.6242 11.7627 11.3721L13.626 8.49316ZM10 3.5C8.24938 3.5 6.73828 3.8584 5.7207 4.36719C4.61384 4.92074 4.5 5.40776 4.5 5.5C4.5 5.59224 4.61384 6.07926 5.7207 6.63281C6.73828 7.1416 8.24938 7.5 10 7.5C11.7506 7.5 13.2617 7.1416 14.2793 6.63281C15.3862 6.07926 15.5 5.59224 15.5 5.5C15.5 5.40776 15.3862 4.92074 14.2793 4.36719C13.2617 3.8584 11.7506 3.5 10 3.5Z" fill="#000000"/>
</svg>
