<svg xmlns="http://www.w3.org/2000/svg" width="20" height="20" viewBox="0 0 20 20" fill="none"><rect width="20" height="20" fill="none"/>
<path d="M18.7072 17.293L17.2931 18.707L11.5724 12.9863L7.34875 17.2119L3.0929 17.7441C2.86339 17.7727 2.63343 17.6938 2.46985 17.5303C2.30639 17.3667 2.22745 17.1367 2.25598 16.9072L2.78821 12.6514L7.01184 8.42578L1.29309 2.70703L2.70715 1.29297L18.7072 17.293Z" fill="#000000"/>
<path d="M10.0001 5.75C12.3471 5.7501 14.2499 7.65304 14.2501 10V10.3105L14.2365 10.3232L9.6759 5.7627L9.68958 5.75H10.0001Z" fill="#000000"/>
<path d="M12.2198 3.21973C13.4792 1.96067 15.5211 1.96055 16.7804 3.21973C18.0396 4.47903 18.0394 6.5209 16.7804 7.78027L15.6456 8.91406C15.2048 6.60946 13.3899 4.79379 11.0851 4.35352L12.2198 3.21973Z" fill="#000000"/>
</svg>
