<svg xmlns="http://www.w3.org/2000/svg" width="20" height="20" viewBox="0 0 20 20" fill="none"><rect width="20" height="20" fill="none"/>
<path d="M6.70659 8.70712L5.20659 10.2071C3.94068 11.4734 3.94073 13.5268 5.20659 14.7931C6.47281 16.0593 8.52618 16.0591 9.79253 14.7931C10.3205 14.2651 10.8442 13.7414 11.2925 13.2931L12.7066 14.7071C12.2583 15.1555 11.7346 15.6791 11.2066 16.2071C9.1592 18.2542 5.8398 18.2544 3.79253 16.2071C1.74562 14.1598 1.74556 10.8403 3.79253 8.79306L5.29253 7.29306L6.70659 8.70712Z" fill="#000000"/>
<path d="M12.7066 8.7081L8.70659 12.7081L7.29253 11.294L11.2925 7.29404L12.7066 8.7081Z" fill="#000000"/>
<path d="M8.79253 3.79306C10.8398 1.74593 14.1592 1.7462 16.2066 3.79306C18.2539 5.84045 18.2539 9.15971 16.2066 11.2071L14.7066 12.7071L13.2925 11.2931L14.7925 9.79306C16.0588 8.5267 16.0588 6.47347 14.7925 5.20712C13.5262 3.94129 11.4728 3.94103 10.2066 5.20712C9.67856 5.73513 9.15489 6.2588 8.70659 6.70712L7.29253 5.29306C7.74085 4.84471 8.2645 4.32107 8.79253 3.79306Z" fill="#000000"/>
</svg>
