<svg xmlns="http://www.w3.org/2000/svg" width="24" height="24" viewBox="0 0 24 24" fill="none"><rect width="24" height="24" fill="none"/>
<path d="M21.9997 23H13.9997V21H21.9997V23Z" fill="#000000"/>
<path d="M11.9997 2C12.03 2.03014 15.0304 4.99953 20.9987 5C20.9988 6.10096 21.1329 8.41389 20.8093 11H18.7936C18.9991 9.49871 19.0296 8.07044 19.0222 6.89648C16.6311 6.64826 14.7381 5.98046 13.3552 5.28906C12.8273 5.02507 12.3755 4.75543 11.9987 4.50977C11.622 4.7553 11.1708 5.02527 10.6433 5.28906C9.26005 5.98048 7.36686 6.64847 4.97529 6.89648C4.96431 8.67242 5.0397 11.0308 5.67744 13.3428C6.52461 16.4135 8.26018 19.0547 11.9987 19.9521V21.999L11.5388 21.8994C2.03172 19.6272 2.999 7.95305 2.99873 5C8.95111 5 11.9522 2.04713 11.9997 2Z" fill="#000000"/>
<path d="M21.9997 20H13.9997V18H21.9997V20Z" fill="#000000"/>
<path d="M21.7575 14.9658L14.2575 16.9658L13.7419 15.0342L21.2419 13.0342L21.7575 14.9658Z" fill="#000000"/>
</svg>
