<svg xmlns="http://www.w3.org/2000/svg" width="20" height="20" viewBox="0 0 20 20" fill="none"><rect width="20" height="20" fill="none"/>
<path d="M15 18.5H4V17H15V18.5Z" fill="#000000"/>
<path d="M15 2.25H17V3.75H15V16H13V14.7422C12.049 15.5277 10.8298 16 9.5 16C6.46243 16 4 13.5376 4 10.5C4 7.46243 6.46243 5 9.5 5C10.8296 5 12.0491 5.47157 13 6.25684V3.75H10V2.25H13V1H15V2.25ZM9.5 7C7.567 7 6 8.567 6 10.5C6 12.433 7.567 14 9.5 14C11.433 14 13 12.433 13 10.5C13 8.567 11.433 7 9.5 7Z" fill="#000000"/>
</svg>
