<svg xmlns="http://www.w3.org/2000/svg" width="24" height="24" viewBox="0 0 24 24" fill="none"><rect width="24" height="24" fill="none"/>
<path d="M17 8C19.2091 8 21 9.79086 21 12V17C21 19.2091 19.2091 21 17 21H13V8H17ZM15 19H17C18.1046 19 19 18.1046 19 17V12C19 10.8954 18.1046 10 17 10H15V19Z" fill="#000000"/>
<path d="M11 16H7C4.85996 16 3.11211 14.3194 3.00488 12.2061L3 12V7C3 4.79086 4.79086 3 7 3H11V16ZM7 5C5.89543 5 5 5.89543 5 7V12C5 13.1046 5.89543 14 7 14H9V5H7Z" fill="#000000"/>
</svg>
