<svg xmlns="http://www.w3.org/2000/svg" width="20" height="20" viewBox="0 0 20 20" fill="none"><rect width="20" height="20" fill="none"/>
<path d="M9.99961 11C10.9661 11 11.7496 11.7835 11.7496 12.75C11.7496 13.7165 10.9661 14.5 9.99961 14.5C9.03328 14.4998 8.24961 13.7164 8.24961 12.75C8.24961 11.7836 9.03328 11.0002 9.99961 11Z" fill="#000000"/>
<path d="M9.99961 5.5C10.9661 5.5 11.7496 6.2835 11.7496 7.25C11.7496 8.2165 10.9661 9 9.99961 9C9.03328 8.9998 8.24961 8.21638 8.24961 7.25C8.24961 6.28362 9.03328 5.5002 9.99961 5.5Z" fill="#000000"/>
<path d="M11.9996 2C13.4861 2 14.7195 3.08121 14.9576 4.5H16.3189C16.7902 4.5 17.0775 5.01834 16.8277 5.41797L14.9996 8.34277V9.5H16.3189C16.7902 9.5 17.0775 10.0183 16.8277 10.418L14.9996 13.3428V15C14.9996 16.6569 13.6565 18 11.9996 18H7.99961C6.34292 17.9998 4.99961 16.6567 4.99961 15V13.3428L3.17148 10.418C2.92196 10.0185 3.20929 9.50027 3.68027 9.5H4.99961V8.34277L3.17148 5.41797C2.92196 5.01847 3.20929 4.50027 3.68027 4.5H5.04258C5.28067 3.08135 6.51334 2.00018 7.99961 2H11.9996ZM7.99961 3.5C7.17135 3.5002 6.49961 4.17169 6.49961 5V15C6.49961 15.8283 7.17135 16.4998 7.99961 16.5H11.9996C12.828 16.5 13.4996 15.8284 13.4996 15V5C13.4996 4.17157 12.828 3.5 11.9996 3.5H7.99961Z" fill="#000000"/>
</svg>
