<svg xmlns="http://www.w3.org/2000/svg" width="20" height="20" viewBox="0 0 20 20" fill="none"><rect width="20" height="20" fill="none"/>
<path d="M18.5303 17.4688L17.4697 18.5293L14.916 15.9756C13.652 17.2248 11.9177 17.999 10 17.999C6.13401 17.999 3 14.865 3 10.999C3 9.08144 3.77253 7.34537 5.02148 6.08105L1.46973 2.5293L2.53027 1.46875L18.5303 17.4688ZM6.08105 7.14062C5.1034 8.13335 4.5 9.49561 4.5 10.999C4.5 14.0366 6.96243 16.499 10 16.499C11.5035 16.499 12.864 15.894 13.8564 14.916L6.08105 7.14062Z" fill="#000000"/>
<path d="M16.0303 5.0293L14.9795 6.0791C16.2288 7.34342 17 9.08118 17 10.999C17 11.8739 16.8371 12.7104 16.5439 13.4824L15.3467 12.2852C15.4456 11.8724 15.5 11.4421 15.5 10.999C15.5 7.96146 13.0376 5.49902 10 5.49902C9.55669 5.49902 9.12584 5.55234 8.71289 5.65137L7.51562 4.4541C8.28783 4.16082 9.12493 3.99902 10 3.99902C11.4054 3.99902 12.713 4.41495 13.8096 5.12793L14.9697 3.96875L16.0303 5.0293Z" fill="#000000"/>
<path d="M12.5 2.99902H7.5V1.49902H12.5V2.99902Z" fill="#000000"/>
</svg>
