<svg xmlns="http://www.w3.org/2000/svg" width="24" height="24" viewBox="0 0 24 24" fill="none"><rect width="24" height="24" fill="none"/>
<path d="M17.5 13C19.9853 13 22 15.0147 22 17.5C22 18.3804 21.7456 19.2009 21.3086 19.8945L23.207 21.793L21.793 23.207L19.8945 21.3086C19.2009 21.7456 18.3804 22 17.5 22C15.0147 22 13 19.9853 13 17.5C13 15.0147 15.0147 13 17.5 13ZM17.5 15C16.1193 15 15 16.1193 15 17.5C15 18.8807 16.1193 20 17.5 20C18.8807 20 20 18.8807 20 17.5C20 16.1193 18.8807 15 17.5 15Z" fill="#000000"/>
<path d="M12 2C14.119 2 16.0829 2.6608 17.7002 3.78516C17.714 3.79475 17.7275 3.80479 17.7412 3.81445C18.1381 4.09337 18.5136 4.40014 18.8652 4.73242C18.8851 4.75124 18.905 4.77008 18.9248 4.78906C19.0246 4.88493 19.122 4.98311 19.2178 5.08301C19.2363 5.10229 19.2551 5.1212 19.2734 5.14062C19.3691 5.24207 19.4623 5.3458 19.5537 5.45117C19.5735 5.474 19.5937 5.49652 19.6133 5.51953C20.8975 7.02682 21.7412 8.91928 21.9482 11H16.96C15.3801 10.9999 13.9352 10.1073 13.2285 8.69434L12.9482 8.13184C12.2797 6.79436 12.573 5.18653 13.6465 4.16992C13.1151 4.05875 12.5644 4 12 4C10.0699 4 8.29897 4.68307 6.91699 5.82129L7.41504 6.16992C9.05812 7.32053 9.42226 9.60318 8.21875 11.208C7.73245 11.8566 7.82848 12.7708 8.43848 13.3047L9.29297 14.0518C10.3778 15.0011 10.9999 16.3738 11 17.8154V19.5C11 19.6458 10.9909 19.7901 10.9785 19.9326C10.9856 19.9335 10.9929 19.9337 11 19.9346V21.9492C10.0543 21.8545 9.14764 21.628 8.29785 21.2891C8.27802 21.2812 8.25805 21.2737 8.23828 21.2656C8.1334 21.223 8.02983 21.1779 7.92676 21.1318C7.88429 21.1129 7.84195 21.0938 7.7998 21.0742C7.70218 21.029 7.60566 20.9819 7.50977 20.9336C7.47555 20.9164 7.44122 20.8994 7.40723 20.8818C7.31128 20.8321 7.21617 20.7812 7.12207 20.7285C7.08249 20.7064 7.04316 20.6838 7.00391 20.6611C6.90786 20.6056 6.81275 20.5488 6.71875 20.4902C6.69291 20.4741 6.66728 20.4577 6.6416 20.4414C6.54392 20.3793 6.4469 20.3164 6.35156 20.251C6.32824 20.235 6.3054 20.2183 6.28223 20.2021C5.85408 19.9031 5.45074 19.5717 5.0752 19.2109C5.04397 19.181 5.01228 19.1515 4.98145 19.1211C4.90831 19.049 4.8375 18.9747 4.7666 18.9004C4.73703 18.8694 4.70691 18.839 4.67773 18.8076C4.60944 18.7342 4.54265 18.6594 4.47656 18.584C4.44128 18.5437 4.40573 18.5037 4.37109 18.4629C4.31082 18.3918 4.25166 18.3198 4.19336 18.2471C4.15479 18.199 4.11679 18.1504 4.0791 18.1016C4.02542 18.032 3.97277 17.9616 3.9209 17.8906C3.88136 17.8365 3.84315 17.7815 3.80469 17.7266C3.75571 17.6566 3.7064 17.5869 3.65918 17.5156C3.62925 17.4705 3.6005 17.4246 3.57129 17.3789C3.51672 17.2936 3.46218 17.2082 3.41016 17.1211C3.38667 17.0818 3.36475 17.0416 3.3418 17.002C3.29136 16.9148 3.24024 16.828 3.19238 16.7393C3.04886 16.4732 2.91726 16.1998 2.79785 15.9199C2.77186 15.859 2.74845 15.7969 2.72363 15.7354C2.69132 15.6552 2.65821 15.5753 2.62793 15.4941C2.59939 15.4176 2.57358 15.3401 2.54688 15.2627C2.52359 15.1952 2.50039 15.1277 2.47852 15.0596C2.45286 14.9797 2.42896 14.8991 2.40527 14.8184C2.38462 14.7479 2.36386 14.6775 2.34473 14.6064C2.32431 14.5306 2.3048 14.4545 2.28613 14.3779C2.26653 14.2976 2.24812 14.2168 2.23047 14.1357C2.21452 14.0624 2.19891 13.9889 2.18457 13.915C2.16811 13.8302 2.15395 13.7448 2.13965 13.6592C2.12847 13.5922 2.11629 13.5254 2.10645 13.458C2.08853 13.3354 2.07397 13.2119 2.06055 13.0879C2.0566 13.0514 2.0514 13.0151 2.04785 12.9785C2.03838 12.881 2.03204 12.7829 2.02539 12.6846C2.02078 12.6164 2.01496 12.5481 2.01172 12.4795C2.00422 12.3207 2 12.1607 2 12C2 11.6478 2.01818 11.2998 2.05371 10.957C2.06125 10.8844 2.07294 10.8124 2.08203 10.7402C2.09452 10.6409 2.10572 10.5417 2.12109 10.4434C2.12877 10.3943 2.1381 10.3457 2.14648 10.2969C2.16755 10.1741 2.18934 10.0519 2.21484 9.93066C2.22312 9.89138 2.23345 9.85259 2.24219 9.81348C2.26965 9.69038 2.29715 9.56763 2.3291 9.44629C2.34249 9.39552 2.35791 9.34537 2.37207 9.29492C2.40524 9.17663 2.4392 9.05886 2.47656 8.94238C2.48573 8.91385 2.49645 8.88584 2.50586 8.85742C2.54822 8.72937 2.59231 8.60226 2.63965 8.47656C2.656 8.43321 2.67448 8.39072 2.69141 8.34766C2.73572 8.23479 2.78084 8.12254 2.8291 8.01172C2.85258 7.95786 2.87795 7.90492 2.90234 7.85156C2.94694 7.75393 2.99145 7.65647 3.03906 7.56055C3.05779 7.52285 3.07749 7.48567 3.09668 7.44824C3.15559 7.33325 3.21514 7.21881 3.27832 7.10645C3.29163 7.08279 3.30584 7.05966 3.31934 7.03613C3.39394 6.90594 3.47155 6.7778 3.55176 6.65137C3.55834 6.641 3.56467 6.63046 3.57129 6.62012C3.64497 6.50492 3.72062 6.39121 3.79883 6.2793C3.82462 6.24242 3.85166 6.20644 3.87793 6.16992C3.95283 6.06576 4.02867 5.96244 4.10742 5.86133C4.12123 5.8436 4.13548 5.82622 4.14941 5.80859C4.24134 5.6922 4.33571 5.57795 4.43262 5.46582C4.44123 5.45586 4.44936 5.44547 4.45801 5.43555C4.50438 5.38231 4.55018 5.3286 4.59766 5.27637L4.78027 5.08301C4.78903 5.07387 4.79785 5.06477 4.80664 5.05566C6.62517 3.17234 9.17523 2 12 2Z" fill="#000000"/>
</svg>
