<svg xmlns="http://www.w3.org/2000/svg" width="20" height="20" viewBox="0 0 20 20" fill="none"><rect width="20" height="20" fill="none"/>
<path d="M12.6514 7.40918L11.0605 9L12.6514 10.5908L11.5908 11.6514L10 10.0605L8.4082 11.6514L7.34766 10.5908L8.93848 9L7.34766 7.40918L8.4082 6.34863L10 7.93945L11.5908 6.34863L12.6514 7.40918Z" fill="#000000"/>
<path d="M10 1.9502C14.7002 1.9502 18.0497 5.57206 18.0498 9.5C18.0498 14.4142 13.9142 18.0498 10 18.0498H9.25V16.0195C5.27773 15.7018 1.9502 12.8824 1.9502 9C1.95031 4.88782 5.49141 1.95028 10 1.9502ZM10 3.4502C6.10894 3.45028 3.45031 5.91248 3.4502 9C3.4502 12.0753 6.29452 14.5497 10 14.5498H10.75V16.4912C13.6207 16.0636 16.5498 13.257 16.5498 9.5C16.5497 6.42809 13.8996 3.4502 10 3.4502Z" fill="#000000"/>
</svg>
