<svg xmlns="http://www.w3.org/2000/svg" width="24" height="24" viewBox="0 0 24 24" fill="none"><rect width="24" height="24" fill="none"/>
<path d="M12.459 2.5C14.9304 2.50022 16.8104 4.71937 16.4043 7.15723L16.1807 8.5H18.4678C20.4056 8.5 21.8356 10.3102 21.3867 12.1953L20.2051 17.1582C19.6688 19.4105 17.656 20.9999 15.3408 21H5.2002C3.98517 21 3 20.0148 3 18.7998V12.2002C3 10.9852 3.98517 10 5.2002 10H7.625C9.2459 8.55026 10.3574 6.61321 10.7852 4.47461L11.0195 3.30371L11.041 3.21777C11.1649 2.79575 11.5532 2.5 12 2.5H12.459ZM5.2002 12C5.08974 12 5 12.0897 5 12.2002V18.7998C5 18.9103 5.08974 19 5.2002 19H7V12H5.2002ZM12.7461 4.86719C12.2369 7.41276 10.9208 9.72129 9 11.4551V19H15.3408C16.7297 18.9999 17.9369 18.0464 18.2588 16.6953L19.4404 11.7314C19.59 11.1031 19.1137 10.5 18.4678 10.5H15C14.7061 10.5 14.4273 10.3706 14.2373 10.1465C14.0474 9.92227 13.9655 9.62579 14.0137 9.33594L14.4316 6.8291C14.6149 5.72959 13.8675 4.72084 12.8125 4.5332L12.7461 4.86719Z" fill="#000000"/>
</svg>
