<svg xmlns="http://www.w3.org/2000/svg" width="24" height="24" viewBox="0 0 24 24" fill="none"><rect width="24" height="24" fill="none"/>
<path d="M19 22H5V20H19V22Z" fill="#000000"/>
<path d="M17 6C19.2091 6 21 7.79086 21 10V14C21 16.2091 19.2091 18 17 18H7C4.79086 18 3 16.2091 3 14V10C3 7.79086 4.79086 6 7 6H17ZM7 8C5.89543 8 5 8.89543 5 10V14C5 15.1046 5.89543 16 7 16H17C18.1046 16 19 15.1046 19 14V10C19 8.89543 18.1046 8 17 8H7Z" fill="#000000"/>
<path d="M19 4H5V2H19V4Z" fill="#000000"/>
</svg>
