<svg xmlns="http://www.w3.org/2000/svg" width="24" height="24" viewBox="0 0 24 24" fill="none"><rect width="24" height="24" fill="none"/>
<path d="M9.2041 13.0107C10.2128 13.113 11 13.9643 11 15V19C11 20.1046 10.1046 21 9 21H5C3.89543 21 3 20.1046 3 19V15C3 13.8954 3.89543 13 5 13H9L9.2041 13.0107ZM5 19H9V15H5V19Z" fill="#000000"/>
<path d="M18 16H21V18H18V21H16V18H13V16H16V13H18V16Z" fill="#000000"/>
<path d="M9.2041 3.01074C10.2128 3.113 11 3.96435 11 5V9C11 10.1046 10.1046 11 9 11H5C3.89543 11 3 10.1046 3 9V5C3 3.89543 3.89543 3 5 3H9L9.2041 3.01074ZM5 9H9V5H5V9Z" fill="#000000"/>
<path d="M19.2041 3.01074C20.2128 3.113 21 3.96435 21 5V9C21 10.1046 20.1046 11 19 11H15C13.8954 11 13 10.1046 13 9V5C13 3.89543 13.8954 3 15 3H19L19.2041 3.01074ZM15 9H19V5H15V9Z" fill="#000000"/>
</svg>
