<svg xmlns="http://www.w3.org/2000/svg" width="20" height="20" viewBox="0 0 20 20" fill="none"><rect width="20" height="20" fill="none"/>
<path d="M14 6C14.5523 6 15 6.44772 15 7V9C15 9.55228 14.5523 10 14 10H10C9.44772 10 9 9.55228 9 9V7C9 6.44772 9.44772 6 10 6H14Z" fill="#000000"/>
<path d="M15.3008 2.94922C16.8193 2.94938 18.0506 4.18067 18.0508 5.69922V14.2998C18.0508 15.7235 16.9685 16.8941 15.582 17.0352L15.3008 17.0498H4.7002C3.18141 17.0498 1.9502 15.8186 1.9502 14.2998V5.69922C1.95036 4.18057 3.18151 2.94922 4.7002 2.94922H15.3008ZM4.7002 4.44922C4.00994 4.44922 3.45036 5.009 3.4502 5.69922V14.2998C3.4502 14.9902 4.00984 15.5498 4.7002 15.5498H15.3008L15.4287 15.543C16.0588 15.4787 16.5508 14.9469 16.5508 14.2998V5.69922C16.5506 5.0091 15.9909 4.44938 15.3008 4.44922H4.7002Z" fill="#000000"/>
</svg>
