<svg xmlns="http://www.w3.org/2000/svg" width="20" height="20" viewBox="0 0 20 20" fill="none"><rect width="20" height="20" fill="none"/>
<path d="M15 6C16.6569 6 18 7.34315 18 9V15C18 16.6051 16.7394 17.9158 15.1543 17.9961L15 18H11V6H15ZM12.5 16.5H15C15.8284 16.5 16.5 15.8284 16.5 15V9C16.5 8.17157 15.8284 7.5 15 7.5H12.5V16.5Z" fill="#000000"/>
<path d="M9 14H5L4.8457 13.9961C3.26055 13.9158 2 12.6051 2 11V5C2 3.34315 3.34315 2 5 2H9V14ZM5 3.5C4.17157 3.5 3.5 4.17157 3.5 5V11C3.5 11.8284 4.17157 12.5 5 12.5H7.5V3.5H5Z" fill="#000000"/>
</svg>
