<svg xmlns="http://www.w3.org/2000/svg" width="20" height="20" viewBox="0 0 20 20" fill="none"><rect width="20" height="20" fill="none"/>
<path d="M10 13C10.8284 13 11.5 13.6716 11.5 14.5C11.5 15.3284 10.8284 16 10 16C9.17157 16 8.5 15.3284 8.5 14.5C8.5 13.6716 9.17157 13 10 13Z" fill="#000000"/>
<path d="M16 11H4V9H16V11Z" fill="#000000"/>
<path d="M10 4C10.8284 4 11.5 4.67157 11.5 5.5C11.5 6.32843 10.8284 7 10 7C9.17157 7 8.5 6.32843 8.5 5.5C8.5 4.67157 9.17157 4 10 4Z" fill="#000000"/>
</svg>
