<svg xmlns="http://www.w3.org/2000/svg" width="20" height="20" viewBox="0 0 20 20" fill="none"><rect width="20" height="20" fill="none"/>
<path d="M6.70656 8.70708L5.20656 10.2071C3.94066 11.4733 3.94076 13.5267 5.20656 14.793C6.47278 16.0592 8.52615 16.0591 9.79249 14.793C10.3205 14.265 10.8442 13.7413 11.2925 13.293L12.7066 14.7071C12.2582 15.1554 11.7345 15.6791 11.2066 16.2071C9.15917 18.2542 5.83977 18.2544 3.79249 16.2071C1.74565 14.1597 1.74555 10.8403 3.79249 8.79301L5.29249 7.29301L6.70656 8.70708Z" fill="#000000"/>
<path d="M12.7066 8.70805L8.70656 12.7081L7.29249 11.294L11.2925 7.29399L12.7066 8.70805Z" fill="#000000"/>
<path d="M8.79249 3.79301C10.8397 1.74593 14.1592 1.74623 16.2066 3.79301C18.2538 5.8404 18.2538 9.15967 16.2066 11.2071L14.7066 12.7071L13.2925 11.293L14.7925 9.79301C16.0587 8.52665 16.0587 6.47342 14.7925 5.20708C13.5261 3.94132 11.4727 3.94103 10.2066 5.20708C9.67854 5.73507 9.15485 6.25876 8.70656 6.70708L7.29249 5.29301C7.74081 4.84467 8.26447 4.32101 8.79249 3.79301Z" fill="#000000"/>
</svg>
