<svg xmlns="http://www.w3.org/2000/svg" width="24" height="24" viewBox="0 0 24 24" fill="none"><rect width="24" height="24" fill="none"/>
<path d="M14.4999 15.0001C16.4327 15.0001 17.9997 16.5673 17.9999 18.5001C17.9999 20.4331 16.4329 22.0001 14.4999 22.0001C12.5671 21.9998 10.9999 20.4329 10.9999 18.5001C11.0001 16.5675 12.5673 15.0004 14.4999 15.0001ZM14.4999 17.0001C13.6718 17.0004 13.0001 17.672 12.9999 18.5001C12.9999 19.3283 13.6717 19.9998 14.4999 20.0001C15.3283 20.0001 15.9999 19.3285 15.9999 18.5001C15.9997 17.6719 15.3282 17.0001 14.4999 17.0001Z" fill="#000000"/>
<path d="M8.20691 8.20713L5.45691 10.9571C4.60501 11.8091 4.60528 13.1909 5.45691 14.0431C6.309 14.8952 7.69072 14.8951 8.54285 14.0431L14.0428 8.54306C15.6759 6.91005 18.3237 6.91036 19.9569 8.54306C21.5901 10.1762 21.5901 12.824 19.9569 14.4571L19.2069 15.2071L17.7928 13.7931L18.5428 13.0431C19.395 12.1909 19.395 10.8092 18.5428 9.95713C17.6907 9.10547 16.3089 9.10517 15.4569 9.95713L9.95691 15.4571C8.32374 17.0902 5.67599 17.0903 4.04285 15.4571C2.41017 13.8239 2.4099 11.1761 4.04285 9.54306L6.79285 6.79306L8.20691 8.20713Z" fill="#000000"/>
<path d="M11.8915 2.51181C12.0581 2.47482 12.2326 2.52606 12.3534 2.64658C12.4742 2.76737 12.5251 2.94173 12.4882 3.10849L11.4882 7.60849C11.4486 7.78664 11.3147 7.92954 11.1395 7.98056C10.9645 8.03129 10.7752 7.9825 10.6464 7.85361L7.14636 4.35361C7.01773 4.22464 6.96856 4.03538 7.01941 3.86045C7.07045 3.68548 7.21361 3.5515 7.39148 3.51181L11.8915 2.51181Z" fill="#000000"/>
</svg>
