<svg xmlns="http://www.w3.org/2000/svg" width="24" height="24" viewBox="0 0 24 24" fill="none"><rect width="24" height="24" fill="none"/>
<path d="M17.5 13C19.9853 13 22 15.0147 22 17.5C22 18.3804 21.7456 19.2009 21.3086 19.8945L23.207 21.793L21.793 23.207L19.8945 21.3086C19.2009 21.7456 18.3804 22 17.5 22C15.0147 22 13 19.9853 13 17.5C13 15.0147 15.0147 13 17.5 13ZM17.5 15C16.1193 15 15 16.1193 15 17.5C15 18.8807 16.1193 20 17.5 20C18.8807 20 20 18.8807 20 17.5C20 16.1193 18.8807 15 17.5 15Z" fill="#000000"/>
<path d="M12 2C17.1853 2 21.4485 5.9467 21.9502 11H16.96C15.38 10.9999 13.9351 10.1075 13.2285 8.69434C12.4833 7.20381 12.7074 5.44192 13.7324 4.18945C13.1745 4.06626 12.595 4 12 4C10.0684 4 8.29651 4.68443 6.91406 5.82422C6.97988 5.86735 7.04566 5.91077 7.11035 5.95605L7.41504 6.16992C9.05833 7.32052 9.42243 9.60311 8.21875 11.208C7.73228 11.8567 7.82826 12.7708 8.43848 13.3047L9.29297 14.0518C10.378 15.0012 11 16.3736 11 17.8154V19.5C11 19.6458 10.9908 19.79 10.9785 19.9326C10.9856 19.9335 10.9929 19.9337 11 19.9346V21.9492C5.94674 21.4474 2 17.1853 2 12C2 9.5399 2.8889 7.28775 4.3623 5.5459C4.43399 5.46083 4.50658 5.37652 4.58105 5.29395C4.60515 5.26731 4.6309 5.2422 4.65527 5.21582C4.73331 5.13116 4.81258 5.04768 4.89355 4.96582C6.70597 3.1349 9.2202 2 12 2ZM5.5166 7.31445C4.56311 8.6315 4 10.2497 4 12C4 15.357 6.06862 18.229 9 19.416V17.8154C9 16.9504 8.62652 16.1273 7.97559 15.5576L7.12109 14.8096C5.72376 13.5867 5.50499 11.4934 6.61914 10.0078C7.14451 9.30702 6.98515 8.30992 6.26758 7.80762L5.96289 7.59473C5.81821 7.49346 5.66853 7.4013 5.5166 7.31445ZM15.5703 5.16016C14.7961 5.8053 14.5669 6.89845 15.0176 7.7998C15.3854 8.53539 16.1375 8.99992 16.96 9H19.416C18.7163 7.2719 17.4323 5.84305 15.8066 4.96191L15.5703 5.16016Z" fill="#000000"/>
</svg>
