<svg xmlns="http://www.w3.org/2000/svg" width="20" height="20" viewBox="0 0 20 20" fill="none"><rect width="20" height="20" fill="none"/>
<path d="M8.51172 1.98589C9.43384 1.45913 10.5662 1.45913 11.4883 1.98589L16.2383 4.70073C17.1728 5.23485 17.7499 6.22883 17.75 7.30523V12.6939C17.7498 13.7702 17.1728 14.7643 16.2383 15.2984L11.4883 18.0132C10.5662 18.5399 9.43378 18.5399 8.51172 18.0132L3.76172 15.2984C2.82719 14.7643 2.25018 13.7702 2.25 12.6939V7.30523C2.25009 6.22883 2.82718 5.23485 3.76172 4.70073L8.51172 1.98589ZM6 12.4498H14V10.9498H6V12.4498ZM6 9.04937H11V7.54937H6V9.04937Z" fill="#000000"/>
</svg>
