<svg xmlns="http://www.w3.org/2000/svg" width="20" height="20" viewBox="0 0 20 20" fill="none"><rect width="20" height="20" fill="none"/>
<path d="M18 14C15.2386 14 13 16.2386 13 19H11C11 15.134 14.134 12 18 12V14Z" fill="#000000"/>
<path d="M18 19H15C15 17.3431 16.3431 16 18 16V19Z" fill="#000000"/>
<path d="M12 2C14.2091 2 16 3.79086 16 6V10H14V6C14 4.89543 13.1046 4 12 4H8C6.89543 4 6 4.89543 6 6V14C6 15.1046 6.89543 16 8 16H9V18H8C5.79086 18 4 16.2091 4 14V6C4 3.79086 5.79086 2 8 2H12Z" fill="#000000"/>
<path d="M11 5C11.5523 5 12 5.44772 12 6C12 6.55228 11.5523 7 11 7H9C8.44772 7 8 6.55228 8 6C8 5.44772 8.44772 5 9 5H11Z" fill="#000000"/>
</svg>
