<svg xmlns="http://www.w3.org/2000/svg" width="24" height="24" viewBox="0 0 24 24" fill="none"><rect width="24" height="24" fill="none"/>
<path d="M18.5486 21C16.444 21 15.0453 19.6443 15 17.6772H16.75C16.8277 18.635 17.5319 19.1728 18.6004 19.1728C19.6364 19.1728 20.1674 18.576 20.1674 17.6772C20.1674 16.793 19.63 16.1741 18.6522 16.1741H17.383V14.5833H18.5486C19.481 14.5833 19.9473 14.0228 19.9473 13.1976C19.9473 12.3724 19.481 11.8125 18.5615 11.8125C17.6226 11.8125 17.0786 12.3135 16.9685 13.2344H15.136C15.1748 11.3188 16.5282 10 18.5486 10C20.4783 10 21.7151 11.2009 21.7151 12.785C21.7151 13.9417 21.1711 14.7964 20.1286 15.209V15.2532C21.482 15.7173 22 16.6752 22 17.8171C22 19.7033 20.6013 21 18.5486 21Z" fill="#000000"/>
<path d="M2 3H4V21H2V3Z" fill="#000000"/>
<path d="M11 3H13V21H11V3Z" fill="#000000"/>
<path d="M12 11V13H3L3 11L12 11Z" fill="#000000"/>
</svg>
