<svg xmlns="http://www.w3.org/2000/svg" width="20" height="20" viewBox="0 0 20 20" fill="none"><rect width="20" height="20" fill="none"/>
<path d="M10.04 8.5C10.8685 8.5 11.54 9.17157 11.54 10C11.54 10.8284 10.8685 11.5 10.04 11.5C9.21163 11.5 8.54004 10.8284 8.54004 10C8.54004 9.17159 9.21163 8.50002 10.04 8.5Z" fill="#000000"/>
<path d="M12.9697 4.92285L15.7295 4.3584L17.7705 7.8916L17.4121 8.29688L15.9014 10L17.7705 12.1084L15.7295 15.6416L12.9697 15.0762L12.0791 17.75H7.99707L7.10547 15.0762L4.34766 15.6416L2.30664 12.1084L4.1748 10L2.66504 8.29688L2.30664 7.8916L4.34766 4.3584L7.10547 4.92188L7.82617 2.7627L7.99805 2.25H12.0791L12.9697 4.92285ZM8.38477 5.83203L8.29004 6.11426L8.02832 6.25488C7.95123 6.29639 7.87553 6.33994 7.80176 6.38574L7.54883 6.54395L7.25586 6.4834L5.10547 6.04297L4.14648 7.70508L5.80273 9.57324L5.79395 9.87109C5.79191 9.93933 5.79004 9.96416 5.79004 10C5.79004 10.0356 5.79191 10.0592 5.79395 10.1279L5.80273 10.4258L5.60547 10.6475L4.14551 12.2939L5.10547 13.9551L7.25586 13.5156L7.54785 13.4551L7.80176 13.6133L8.02832 13.7441L8.29004 13.8848L8.38477 14.167L9.0791 16.25H10.9971L11.6904 14.1689L11.7852 13.8867L12.0479 13.7451C12.1241 13.7042 12.2001 13.6596 12.2764 13.6123L12.5303 13.4551L12.8223 13.5156L14.9707 13.9551L15.9307 12.2939L14.2764 10.4277L14.2852 10.1309C14.2879 10.0412 14.29 10.0397 14.29 10C14.29 9.96049 14.2878 9.95676 14.2852 9.86816L14.2764 9.57129L14.4736 9.34766L15.9297 7.7041L14.9707 6.04297L12.8223 6.4834L12.5303 6.54395L12.2764 6.38672C12.2 6.33934 12.124 6.2948 12.0479 6.25391L11.7852 6.1123L11.6904 5.83008L10.9971 3.75H9.0791L8.38477 5.83203Z" fill="#000000"/>
</svg>
