<svg xmlns="http://www.w3.org/2000/svg" width="20" height="20" viewBox="0 0 20 20" fill="none"><rect width="20" height="20" fill="none"/>
<path d="M15.2637 13.0596C15.4263 12.9726 15.6239 12.9817 15.7773 13.084L18.7773 15.084C18.9164 15.1767 19 15.3329 19 15.5C18.9999 15.6671 18.9164 15.8233 18.7773 15.916L15.7773 17.916C15.624 18.0182 15.4262 18.0274 15.2637 17.9404C15.1014 17.8534 15.0001 17.6841 15 17.5V16.5C13.8954 16.5 13 17.3954 13 18.5V19H11V18.5C11 16.2909 12.7909 14.5 15 14.5V13.5C15 13.3158 15.1014 13.1467 15.2637 13.0596Z" fill="#000000"/>
<path d="M10 11.5C10.6929 11.5 11.3625 11.5725 11.9961 11.7158V13.7842C11.4083 13.6007 10.7401 13.5 10 13.5C8.43417 13.5 7.18917 13.9468 6.34961 14.6875C5.52558 15.4146 5 16.5043 5 18H3C3 15.9958 3.72455 14.3354 5.02539 13.1875C6.31082 12.0533 8.06596 11.5 10 11.5Z" fill="#000000"/>
<path d="M10 2C12.2091 2 14 3.79086 14 6C14 8.20914 12.2091 10 10 10C7.79086 10 6 8.20914 6 6C6 3.79086 7.79086 2 10 2ZM10 4C8.89543 4 8 4.89543 8 6C8 7.10457 8.89543 8 10 8C11.1046 8 12 7.10457 12 6C12 4.89543 11.1046 4 10 4Z" fill="#000000"/>
</svg>
