<svg xmlns="http://www.w3.org/2000/svg" width="20" height="20" viewBox="0 0 20 20" fill="none"><rect width="20" height="20" fill="none"/>
<path d="M10 2C14.4183 2 18 5.58172 18 10C18 14.4183 14.4183 18 10 18C5.58172 18 2 14.4183 2 10C2 5.58172 5.58172 2 10 2ZM12.75 10C12.7497 11.5186 11.5186 12.7499 10 12.75H9.5V12.25C9.49986 12.0684 9.40099 11.9006 9.24219 11.8125C9.0834 11.7247 8.8893 11.7301 8.73535 11.8262L6.73535 13.0762L6.68262 13.1133C6.56794 13.2074 6.50012 13.3494 6.5 13.5C6.50008 13.6722 6.58933 13.8325 6.73535 13.9238L8.73535 15.1738C8.88933 15.2699 9.08337 15.2754 9.24219 15.1875C9.401 15.0994 9.49991 14.9316 9.5 14.75V14.25H10C12.3471 14.2499 14.2497 12.347 14.25 10H12.75ZM11.2646 4.82617C11.1107 4.73013 10.9166 4.72468 10.7578 4.8125C10.5991 4.90058 10.5001 5.06847 10.5 5.25V5.75H9.99902C7.6524 5.75038 5.75021 7.65337 5.75 10H7.25C7.25021 8.48161 8.48156 7.25009 10 7.25H10.5V7.75C10.5002 7.93151 10.5991 8.09944 10.7578 8.1875C10.9166 8.27529 11.1107 8.26984 11.2646 8.17383L13.2646 6.92285L13.3174 6.88574C13.432 6.7915 13.5 6.64962 13.5 6.49902C13.4997 6.32696 13.4106 6.16641 13.2646 6.0752L11.2646 4.82617Z" fill="#000000"/>
</svg>
