<svg xmlns="http://www.w3.org/2000/svg" width="20" height="20" viewBox="0 0 20 20" fill="none"><rect width="20" height="20" fill="none"/>
<path d="M12.29 2.09854C12.5448 1.97641 12.8391 1.96726 13.1006 2.07413L17.3789 3.82413L18 4.07901V10.1249H15.667V17.9999H4.33301V10.1249H2V4.07901L2.62109 3.82413L6.89941 2.07413L6.99902 2.03995C7.23404 1.97169 7.48709 1.99168 7.70996 2.09854C7.9647 2.22075 8.15602 2.44485 8.23633 2.71573L8.46191 3.47647C8.66382 4.15748 9.28967 4.62491 10 4.62491C10.7103 4.62491 11.3362 4.15748 11.5381 3.47647L11.7637 2.71573L11.7988 2.61612C11.8927 2.39018 12.0672 2.20543 12.29 2.09854ZM13.3535 4.33877C12.8161 5.70762 11.4915 6.62491 10 6.62491C8.5084 6.62491 7.18282 5.70781 6.64551 4.33877L4 5.42081V8.12491H6.33301V15.9999H13.667V8.12491H16V5.42081L13.3535 4.33877Z" fill="#000000"/>
</svg>
