<svg xmlns="http://www.w3.org/2000/svg" width="20" height="20" viewBox="0 0 20 20" fill="none"><rect width="20" height="20" fill="none"/>
<path d="M6.12207 5.10156C4.67797 6.24884 3.7502 8.01765 3.75 10.001C3.75006 11.984 4.67844 13.7511 6.12207 14.8984V16.71C3.80972 15.3657 2.25007 12.8663 2.25 10.001C2.25023 7.13565 3.80958 4.63524 6.12207 3.29102V5.10156Z" fill="#000000"/>
<path d="M13.9268 3.29102C16.2392 4.63529 17.7988 7.13461 17.7988 10C17.7988 12.8655 16.2394 15.3657 13.9268 16.71V14.8994C15.371 13.7521 16.2988 11.9835 16.2988 10C16.2988 8.01687 15.3705 6.24986 13.9268 5.10254V3.29102Z" fill="#000000"/>
<path d="M10.7617 5.42773C11.2322 5.5194 11.6913 5.70112 12.0811 5.98926C12.6951 6.44356 13.116 7.14745 13.1162 8.05273H11.6162C11.616 7.6609 11.4515 7.38996 11.1885 7.19531C10.9787 7.04037 10.6953 6.92959 10.3779 6.88184L9.6377 6.8877C9.33411 6.93805 9.06355 7.04596 8.86133 7.19531C8.59801 7.38999 8.43376 7.66067 8.43359 8.05273C8.43364 8.28177 8.48212 8.4241 8.53613 8.51855C8.5913 8.61468 8.67803 8.70636 8.81836 8.7959C9.13355 8.99671 9.58794 9.11798 10.207 9.27246C10.7581 9.40997 11.4756 9.5818 12.0381 9.94043C12.336 10.1305 12.6157 10.3868 12.8164 10.7373C13.018 11.0898 13.1162 11.4966 13.1162 11.9482C13.116 12.8058 12.6804 13.4973 12.0947 13.9521C11.7129 14.2485 11.2554 14.4539 10.7754 14.5605V16.001H9.27539V14.5703C8.80977 14.4778 8.35581 14.297 7.96973 14.0117C7.35537 13.5574 6.93379 12.8538 6.93359 11.9482H8.43359C8.43377 12.3402 8.59812 12.611 8.86133 12.8057C9.06913 12.9591 9.34929 13.0687 9.66309 13.1172H10.3535C10.6627 13.0644 10.9523 12.9403 11.1748 12.7676C11.4664 12.5411 11.616 12.2583 11.6162 11.9482C11.6162 11.7196 11.5686 11.5769 11.5146 11.4824C11.4595 11.3862 11.3718 11.2947 11.2314 11.2051C10.9164 11.0042 10.4626 10.8829 9.84375 10.7285C9.29264 10.591 8.57444 10.4192 8.01172 10.0605C7.71382 9.8705 7.43514 9.61415 7.23438 9.26367C7.03254 8.91101 6.93364 8.50465 6.93359 8.05273C6.93378 7.1471 7.35527 6.44354 7.96973 5.98926C8.3524 5.70648 8.80141 5.52589 9.2627 5.43262L9.25098 4.00684L10.75 3.99414L10.7617 5.42773Z" fill="#000000"/>
</svg>
