<svg xmlns="http://www.w3.org/2000/svg" width="24" height="24" viewBox="0 0 24 24" fill="none"><rect width="24" height="24" fill="none"/>
<path d="M22.707 15.707L19.9141 18.5L22.707 21.293L21.293 22.707L18.5 19.9141L15.707 22.707L14.293 21.293L17.0859 18.5L14.293 15.707L15.707 14.293L18.5 17.0859L21.293 14.293L22.707 15.707Z" fill="#000000"/>
<path d="M12 2C17.5228 2 22 6.47715 22 12H20C20 7.58172 16.4183 4 12 4C7.58172 4 4 7.58172 4 12C4 16.4183 7.58172 20 12 20V22C6.47715 22 2 17.5228 2 12C2 6.47715 6.47715 2 12 2Z" fill="#000000"/>
<path d="M13 12.4141L9.70703 15.707L8.29297 14.293L11 11.5859V6H13V12.4141Z" fill="#000000"/>
</svg>
