<svg xmlns="http://www.w3.org/2000/svg" width="20" height="20" viewBox="0 0 20 20" fill="none"><rect width="20" height="20" fill="none"/>
<path d="M7.4999 12H8.4999C8.68158 12.0001 8.84932 12.0989 8.9374 12.2578C9.02528 12.4166 9.01984 12.6107 8.92373 12.7646L6.42373 16.7646L6.38662 16.8174C6.29242 16.9322 6.15061 16.9999 5.9999 17C5.82754 17 5.66745 16.9108 5.57607 16.7646L3.07607 12.7646C2.97989 12.6106 2.97445 12.4167 3.0624 12.2578C3.15052 12.0989 3.31817 12 3.4999 12H4.4999V3.99902H7.4999V12Z" fill="#000000"/>
<path d="M13.9999 3C14.1722 3.00007 14.3324 3.08922 14.4237 3.23535L16.9237 7.23535C17.0198 7.38934 17.0253 7.58336 16.9374 7.74219C16.8493 7.90111 16.6816 7.99993 16.4999 8H15.4999V16H12.4999V8H11.4999C11.3182 8 11.1505 7.90111 11.0624 7.74219C10.9745 7.58331 10.9799 7.38938 11.0761 7.23535L13.5761 3.23535L13.6132 3.18262C13.7074 3.06783 13.8492 3 13.9999 3Z" fill="#000000"/>
</svg>
