<svg xmlns="http://www.w3.org/2000/svg" width="20" height="20" viewBox="0 0 20 20" fill="none"><rect width="20" height="20" fill="none"/>
<path d="M10.75 3H11.1777C13.3178 3.00004 15.0527 4.73494 15.0527 6.875C15.0527 7.97037 14.5969 8.95832 13.8662 9.66309C15.1317 10.3008 16 11.6112 16 13.125C16 15.2651 14.2651 17 12.125 17H10.75V19H9.25V17H5V3H9.25V1H10.75V3ZM6.5 15.5H12.125C13.4367 15.5 14.5 14.4367 14.5 13.125C14.5 11.8133 13.4367 10.75 12.125 10.75H6.5V15.5ZM6.5 9.25H11.1777C12.4893 9.24996 13.5527 8.18662 13.5527 6.875C13.5527 5.56337 12.4894 4.50004 11.1777 4.5H6.5V9.25Z" fill="#000000"/>
</svg>
