<svg xmlns="http://www.w3.org/2000/svg" width="20" height="20" viewBox="0 0 20 20" fill="none"><rect width="20" height="20" fill="none"/>
<path d="M15.9993 17.9992H3.99927V16.4992H15.9993V17.9992Z" fill="#000000"/>
<path d="M9.97974 1.52162C11.5459 1.39114 13.1056 1.85438 14.3684 2.82533C14.9709 3.28876 15.4855 3.85393 15.8967 4.49037L14.47 5.06068C14.1817 4.66523 13.8407 4.31198 13.4543 4.01479C12.4833 3.26805 11.2932 2.91776 10.1047 3.01674C8.91581 3.11593 7.78971 3.6601 6.94067 4.56361C6.09068 5.46852 5.57685 6.67264 5.50806 7.95522C5.43938 9.23824 5.82214 10.4979 6.57349 11.4992C7.32385 12.4987 8.3882 13.1706 9.56079 13.4064C10.7325 13.6418 11.9499 13.4297 12.9905 12.8019C13.5673 12.4538 14.0688 11.9883 14.47 11.4376L15.8977 12.0079C15.352 12.8537 14.6262 13.5679 13.7659 14.0871C12.4071 14.9067 10.8076 15.1871 9.26489 14.8771C7.72223 14.5669 6.33931 13.6866 5.37329 12.3996C4.40736 11.1123 3.92278 9.50456 4.01001 7.87514C4.09734 6.24581 4.75056 4.70427 5.8479 3.53627C6.94534 2.36839 8.4135 1.65235 9.97974 1.52162Z" fill="#000000"/>
</svg>
