<svg xmlns="http://www.w3.org/2000/svg" width="24" height="24" viewBox="0 0 24 24" fill="none"><rect width="24" height="24" fill="none"/>
<path d="M14 12L12 14L10 12L12 10L14 12Z" fill="#000000"/>
<path d="M12 2C14.4011 2 16.6043 2.84638 18.3281 4.25684L19.293 3.29297L20.707 4.70703L19.7422 5.6709C21.1532 7.39486 22 9.59845 22 12C22 14.4013 21.1529 16.6043 19.7422 18.3281L20.707 19.293L19.293 20.707L18.3281 19.7422C16.6043 21.1529 14.4013 22 12 22C9.59845 22 7.39486 21.1532 5.6709 19.7422L4.70703 20.707L3.29297 19.293L4.25684 18.3281C2.84638 16.6043 2 14.4011 2 12C2 9.59868 2.84609 7.39479 4.25684 5.6709L3.29297 4.70703L4.70703 3.29297L5.6709 4.25684C7.39479 2.84609 9.59868 2 12 2ZM12 4C10.1513 4 8.45037 4.62863 7.0957 5.68164L7.70703 6.29297L6.29297 7.70703L5.68164 7.0957C4.62863 8.45037 4 10.1513 4 12C4 13.8484 4.62892 15.5488 5.68164 16.9033L6.29297 16.293L7.70703 17.707L7.0957 18.3174C8.45045 19.3706 10.1511 20 12 20C13.8486 20 15.5487 19.3703 16.9033 18.3174L16.293 17.707L17.707 16.293L18.3174 16.9033C19.3703 15.5487 20 13.8486 20 12C20 10.1511 19.3706 8.45045 18.3174 7.0957L17.707 7.70703L16.293 6.29297L16.9033 5.68164C15.5488 4.62892 13.8484 4 12 4Z" fill="#000000"/>
</svg>
