<svg xmlns="http://www.w3.org/2000/svg" width="24" height="24" viewBox="0 0 24 24" fill="none"><rect width="24" height="24" fill="none"/>
<path d="M21.4472 7.60547C21.7858 7.77479 21.9998 8.12142 21.9999 8.5V12H19.9999V10.1182L18.9999 10.6182V15.916C18.9999 17.2525 18.2901 18.4887 17.1357 19.1621C13.9622 21.0133 10.0377 21.0133 6.8642 19.1621C5.70978 18.4887 4.99994 17.2525 4.99994 15.916V10.6182L2.55267 9.39453C2.21404 9.2251 1.99995 8.87868 1.99994 8.5C2.00012 8.12142 2.21404 7.77479 2.55267 7.60547L11.9999 2.88184L21.4472 7.60547ZM12.4472 13.8945L11.9999 14.1172L11.5527 13.8945L6.99994 11.6182V15.916C6.99994 16.5412 7.33202 17.1196 7.87201 17.4346C10.4228 18.9225 13.5771 18.9224 16.1279 17.4346C16.6679 17.1196 16.9999 16.5412 16.9999 15.916V11.6182L12.4472 13.8945ZM5.23627 8.5L11.9999 11.8818L18.7636 8.5L11.9999 5.11816L5.23627 8.5Z" fill="#000000"/>
</svg>
