<svg xmlns="http://www.w3.org/2000/svg" width="24" height="24" viewBox="0 0 24 24" fill="none"><rect width="24" height="24" fill="none"/>
<path d="M13 4H16L16.1543 4.00391C17.6585 4.08011 18.8675 5.26452 18.9873 6.75684C19.6072 7.30643 20 8.1064 20 9C20 10.1452 19.3575 11.139 18.4141 11.6445L16.9893 21.1484C16.9158 21.6379 16.495 22 16 22H8C7.50502 22 7.08419 21.6379 7.01074 21.1484L5.58496 11.6445C4.64194 11.1389 4 10.1449 4 9C4 8.10742 4.39111 7.30735 5.00977 6.75781C5.13308 5.21422 6.42468 4 8 4H11V2H13V4ZM8.86133 20H15.1387L16.3389 12H7.66113L8.86133 20ZM8 6C7.44772 6 7 6.44772 7 7V8C6.44772 8 6 8.44772 6 9C6 9.55228 6.44772 10 7 10H17C17.5523 10 18 9.55228 18 9C18 8.44772 17.5523 8 17 8V7C17 6.48232 16.6067 6.05621 16.1025 6.00488L16 6H8Z" fill="#000000"/>
</svg>
