<svg xmlns="http://www.w3.org/2000/svg" width="20" height="20" viewBox="0 0 20 20" fill="none"><rect width="20" height="20" fill="none"/>
<path d="M10 12C10.5523 12 11 12.4477 11 13C11 13.5523 10.5523 14 10 14C9.44772 14 9 13.5523 9 13C9 12.4477 9.44772 12 10 12Z" fill="#000000"/>
<path d="M10.1797 5.75C11.3046 5.75 12.2735 6.54437 12.4941 7.64746C12.7027 8.69092 12.1871 9.74481 11.2354 10.2207L11.1211 10.2783C10.8937 10.3922 10.75 10.6246 10.75 10.8789V11H9.25V10.8789C9.25 10.0565 9.71466 9.30446 10.4502 8.93652L10.5645 8.87891C10.9113 8.7055 11.0994 8.32163 11.0234 7.94141C10.943 7.53945 10.5896 7.25 10.1797 7.25H9.73828C9.32156 7.25021 8.95117 7.51676 8.81934 7.91211L8.71191 8.2373L7.28809 7.7627L7.39648 7.43848C7.73246 6.43056 8.67588 5.75021 9.73828 5.75H10.1797Z" fill="#000000"/>
<path d="M10 1.9502C14.4458 1.9502 18.0497 5.5542 18.0498 10C18.0498 14.4459 14.4459 18.0498 10 18.0498C5.5542 18.0497 1.9502 14.4458 1.9502 10C1.9503 5.55426 5.55426 1.9503 10 1.9502ZM10 3.4502C6.38269 3.4503 3.4503 6.38269 3.4502 10C3.4502 13.6174 6.38262 16.5497 10 16.5498C13.6175 16.5498 16.5498 13.6175 16.5498 10C16.5497 6.38262 13.6174 3.4502 10 3.4502Z" fill="#000000"/>
</svg>
