<svg xmlns="http://www.w3.org/2000/svg" width="24" height="24" viewBox="0 0 24 24" fill="none"><rect width="24" height="24" fill="none"/>
<path d="M20.6842 2.08188C21.0434 1.96298 21.4394 2.05729 21.7067 2.32504C21.9737 2.59286 22.0674 2.9887 21.9479 3.3475L15.9489 21.3162C15.8391 21.6448 15.5662 21.8939 15.2291 21.9735C14.8922 22.0527 14.5384 21.9514 14.2936 21.7069L9.88245 17.2967L11.0748 12.9256L7.26331 13.9647L6.70374 14.118L2.2926 9.70688C2.04782 9.46188 1.94752 9.1074 2.02698 8.77035C2.1069 8.43297 2.35615 8.16086 2.68518 8.0516L20.6842 2.08188ZM4.85315 9.43832L7.29651 11.8827L12.2369 10.535C12.583 10.4408 12.954 10.5392 13.2076 10.7928C13.4609 11.0464 13.5595 11.4167 13.4655 11.7625L12.1168 16.703L14.5631 19.1483L19.4176 4.60922L4.85315 9.43832Z" fill="#000000"/>
</svg>
