<svg xmlns="http://www.w3.org/2000/svg" width="20" height="20" viewBox="0 0 20 20" fill="none"><rect width="20" height="20" fill="none"/>
<path d="M16.25 10.0001C16.25 13.4519 13.4518 16.2501 10 16.2501H9V17.5001C9 17.6783 8.90503 17.8433 8.75098 17.9327C8.5969 18.0221 8.40665 18.023 8.25195 17.9347L4.75195 15.9347C4.59627 15.8457 4.5 15.6795 4.5 15.5001C4.50014 15.3209 4.59628 15.1545 4.75195 15.0656L8.25195 13.0656C8.40656 12.9774 8.59699 12.9783 8.75098 13.0675C8.90502 13.1569 8.99986 13.322 9 13.5001V14.7501H10C12.6234 14.7501 14.75 12.6235 14.75 10.0001H16.25Z" fill="#000000"/>
<path d="M11.249 2.06751C11.403 1.97826 11.5934 1.97739 11.748 2.06556L15.248 4.06556C15.4037 4.15451 15.4999 4.32085 15.5 4.50013C15.5 4.67949 15.4037 4.84565 15.248 4.9347L11.748 6.9347C11.5934 7.023 11.4031 7.02213 11.249 6.93275C11.095 6.84326 11 6.6783 11 6.50013V5.25013H10C7.37678 5.25013 5.25022 7.37696 5.25 10.0001H3.75C3.75022 6.54853 6.54835 3.75013 10 3.75013H11V2.50013C11.0001 2.32205 11.095 2.15691 11.249 2.06751Z" fill="#000000"/>
</svg>
