<svg xmlns="http://www.w3.org/2000/svg" width="24" height="24" viewBox="0 0 24 24" fill="none"><rect width="24" height="24" fill="none"/>
<path d="M16.207 10.2071L11 15.4141L7.79297 12.2071L9.20703 10.793L11 12.586L14.793 8.79299L16.207 10.2071Z" fill="#000000"/>
<path d="M10.001 2.99904C11.2379 2.28547 12.7621 2.28548 13.999 2.99904L18.7988 5.7676C20.0369 6.48186 20.7996 7.80315 20.7998 9.23244V14.7676C20.7997 16.197 20.0369 17.5181 18.7988 18.2324L13.999 21.001C12.762 21.7147 11.238 21.7147 10.001 21.001L5.20117 18.2324C3.96311 17.5181 3.2003 16.197 3.2002 14.7676V9.23244C3.20041 7.80315 3.96312 6.48186 5.20117 5.7676L10.001 2.99904ZM13 4.73147C12.3816 4.37474 11.6194 4.37474 11.001 4.73147L6.20117 7.50002C5.58223 7.8571 5.20041 8.51791 5.2002 9.23244V14.7676C5.2003 15.4822 5.58222 16.1429 6.20117 16.5L11.001 19.2686C11.6195 19.6254 12.3815 19.6254 13 19.2686L17.7998 16.5C18.4188 16.1429 18.7997 15.4822 18.7998 14.7676V9.23244C18.7996 8.51791 18.4187 7.8571 17.7998 7.50002L13 4.73147Z" fill="#000000"/>
</svg>
