<svg xmlns="http://www.w3.org/2000/svg" width="20" height="20" viewBox="0 0 20 20" fill="none"><rect width="20" height="20" fill="none"/>
<path d="M13.416 15.624L10 17.9014L6.58398 15.624L7.41602 14.376L10 16.0986L12.584 14.376L13.416 15.624Z" fill="#000000"/>
<path d="M10 5.5C11.1046 5.5 12 6.39543 12 7.5C12 8.60457 11.1046 9.5 10 9.5C8.89543 9.5 8 8.60457 8 7.5C8 6.39543 8.89543 5.5 10 5.5Z" fill="#000000"/>
<path d="M18 13H2V2H18V13ZM3.5 9L6 11.5H16.5V6L14 3.5H3.5V9Z" fill="#000000"/>
</svg>
