<svg xmlns="http://www.w3.org/2000/svg" width="20" height="20" viewBox="0 0 20 20" fill="none"><rect width="20" height="20" fill="none"/>
<path d="M7.20508 3.00488C8.3173 3.06116 9.3092 3.57236 10 4.35547C10.733 3.52463 11.805 3 13 3H18V15.835H13C12.194 15.835 11.5012 16.3129 11.1846 17H8.81543C8.4989 16.313 7.80593 15.8351 7 15.835H2V3H7L7.20508 3.00488ZM4 13.835H7C7.72882 13.835 8.41155 14.0315 9 14.3721V7C9 5.96449 8.21258 5.11319 7.2041 5.01074L7 5H4V13.835ZM13 5C11.8954 5 11 5.89543 11 7V14.3711C11.5884 14.0307 12.2713 13.835 13 13.835H16V5H13Z" fill="#000000"/>
</svg>
