<svg xmlns="http://www.w3.org/2000/svg" width="24" height="24" viewBox="0 0 24 24" fill="none"><rect width="24" height="24" fill="none"/>
<path d="M17.5 13.001C19.9853 13.001 22 15.0157 22 17.501C22 18.3814 21.7456 19.2018 21.3086 19.8955L23.207 21.7939L21.793 23.208L19.8945 21.3096C19.2009 21.7466 18.3804 22.001 17.5 22.001C15.0147 22.001 13 19.9863 13 17.501C13 15.0157 15.0147 13.001 17.5 13.001ZM17.5 15.001C16.1193 15.001 15 16.1203 15 17.501C15 18.8817 16.1193 20.001 17.5 20.001C18.8807 20.001 20 18.8817 20 17.501C20 16.1203 18.8807 15.001 17.5 15.001Z" fill="#000000"/>
<path d="M15 4.41797L20.6152 2.0791C20.9238 1.95058 21.2765 1.98457 21.5547 2.16992C21.8327 2.35535 21.9999 2.66781 22 3.00195V11.002H20V4.50098L16 6.16797V11.002H14V6.16797L10 4.50098V17.835L11 18.251V20.418L9 19.585L3.38477 21.9248C3.07626 22.0533 2.72342 22.0193 2.44531 21.834C2.16734 21.6486 2.00016 21.3361 2 21.002V4.83496L9 1.91895L15 4.41797ZM4 6.16797V19.502L8 17.835V4.50098L4 6.16797Z" fill="#000000"/>
</svg>
