<svg xmlns="http://www.w3.org/2000/svg" width="24" height="24" viewBox="0 0 24 24" fill="none"><rect width="24" height="24" fill="none"/>
<path d="M11 13C12.6569 13 14 14.3431 14 16V19C14 20.6569 12.6569 22 11 22H5C3.34315 22 2 20.6569 2 19V16C2 14.3431 3.34315 13 5 13H11ZM5 15C4.44772 15 4 15.4477 4 16V19C4 19.5523 4.44772 20 5 20H11C11.5523 20 12 19.5523 12 19V16C12 15.4477 11.5523 15 11 15H5Z" fill="#000000"/>
<path d="M19 2C20.6569 2 22 3.34315 22 5V8L21.9961 8.1543C21.9158 9.73945 20.6051 11 19 11H5C3.34315 11 2 9.65685 2 8V5C2 3.34315 3.34315 2 5 2H19ZM5 4C4.44772 4 4 4.44772 4 5V8C4 8.55228 4.44772 9 5 9H19C19.5177 9 19.9438 8.60667 19.9951 8.10254L20 8V5C20 4.44772 19.5523 4 19 4H5Z" fill="#000000"/>
</svg>
