<svg xmlns="http://www.w3.org/2000/svg" width="20" height="20" viewBox="0 0 20 20" fill="none"><rect width="20" height="20" fill="none"/>
<path d="M14.75 3.25C15.9924 3.25026 17 4.25752 17 5.5V6.53613L17.585 6.8291L18 7.03613V12.9639L17 13.4629V14.5C16.9999 15.7424 15.9923 16.7497 14.75 16.75C13.5077 16.7497 12.5001 15.7424 12.5 14.5V12.75H7.5V14.5C7.49988 15.7424 6.49234 16.7497 5.25 16.75C4.00765 16.7497 3.00012 15.7424 3 14.5V13.4629L2 12.9639V7.03613L2.41504 6.8291L3 6.53613V5.5C3 4.25752 4.00758 3.25025 5.25 3.25C6.49242 3.25026 7.5 4.25752 7.5 5.5V7.25H12.5V5.5C12.5 4.25752 13.5076 3.25025 14.75 3.25ZM5.25 4.75C4.836 4.75025 4.5 5.08594 4.5 5.5V7.46387L3.5 7.96289V12.0361L4.08496 12.3291L4.5 12.5361V14.5C4.50012 14.914 4.83608 15.2497 5.25 15.25C5.66392 15.2497 5.99988 14.9139 6 14.5V5.5C6 5.08595 5.66399 4.75026 5.25 4.75ZM14.75 4.75C14.336 4.75025 14 5.08594 14 5.5V14.5C14.0001 14.914 14.3361 15.2497 14.75 15.25C15.1639 15.2497 15.4999 14.9139 15.5 14.5V12.5361L15.915 12.3291L16.5 12.0361V7.96289L15.5 7.46387V5.5C15.5 5.08595 15.164 4.75026 14.75 4.75ZM7.5 11.25H12.5V8.75H7.5V11.25Z" fill="#000000"/>
</svg>
