<svg xmlns="http://www.w3.org/2000/svg" width="20" height="20" viewBox="0 0 20 20" fill="none"><rect width="20" height="20" fill="none"/>
<path d="M9.76341 2.75387C11.2772 2.70442 12.7696 3.13017 14.029 3.97164C15.2882 4.81321 16.2524 6.02881 16.7859 7.44625C17.0949 8.26738 17.2487 9.1328 17.2488 9.99996H18.4997C18.6779 9.99996 18.8429 10.0949 18.9324 10.249C19.0217 10.4031 19.0226 10.5933 18.9343 10.748L16.9343 14.248C16.8453 14.4037 16.6791 14.5 16.4997 14.5C16.3204 14.4999 16.1541 14.4037 16.0652 14.248L14.0652 10.748C13.9769 10.5934 13.9778 10.403 14.0671 10.249C14.1565 10.0949 14.3216 10 14.4997 9.99996H15.7488C15.7489 9.31219 15.6276 8.62576 15.3825 7.97457C14.9594 6.85037 14.1937 5.88616 13.195 5.21871C12.1963 4.55148 11.0127 4.2137 9.81224 4.25289C8.61172 4.29227 7.4537 4.70728 6.50071 5.43844C5.54759 6.1698 4.84752 7.18136 4.49876 8.33102C4.15008 9.48062 4.16926 10.711 4.5554 11.8486C4.9416 12.9859 5.67487 13.9741 6.6511 14.6738C7.62756 15.3734 8.79951 15.7499 10.0007 15.75V17.25C8.48626 17.2499 7.00919 16.7755 5.77806 15.8935C4.54688 15.0112 3.62244 13.7643 3.13548 12.33C2.6487 10.8958 2.62357 9.3449 3.06321 7.89547C3.50296 6.44591 4.38586 5.17016 5.58763 4.24801C6.78929 3.32612 8.24966 2.80345 9.76341 2.75387Z" fill="#000000"/>
</svg>
