<svg xmlns="http://www.w3.org/2000/svg" width="20" height="20" viewBox="0 0 20 20" fill="none"><rect width="20" height="20" fill="none"/>
<path d="M5.96846 3.49615C7.08256 3.31076 8.22183 3.63807 9.06807 4.3858L12.3571 7.294C13.8749 6.95323 15.4685 7.18182 16.8327 7.93951C18.3258 8.76923 18.0171 11.0022 16.3542 11.3946L13.4089 12.087L11.8571 15.0342C11.311 16.0705 10.3113 16.7927 9.15596 16.9854L7.62276 17.2413C7.38524 17.2806 7.14241 17.2027 6.97139 17.0333C6.80064 16.8636 6.72102 16.6216 6.7585 16.3838L7.20576 13.5469L5.15596 14.0294C3.22315 14.4835 1.46092 12.8014 1.82295 10.8497L2.12276 9.23541L2.12178 9.23443C2.27798 8.39722 3.1965 7.97388 3.92354 8.35064L4.06611 8.43658L5.14326 9.18755L6.48799 8.83306L3.9626 5.04595C3.62211 4.53425 3.92074 3.83839 4.52998 3.73638L5.96846 3.49615ZM8.78194 13.1758L8.40205 15.5909L8.90889 15.5059C9.60209 15.3903 10.2023 14.9567 10.53 14.335L11.4743 12.542L8.78194 13.1758ZM6.21455 4.97466L5.76631 5.04986L8.24776 8.76959C8.26198 8.79092 8.27958 8.81472 8.30049 8.84283C8.449 9.04264 8.48825 9.30414 8.40596 9.53912C8.32354 9.77364 8.13068 9.95219 7.89033 10.0157L5.19209 10.7266C4.97958 10.7825 4.75233 10.7418 4.57197 10.6163L3.52608 9.88775L3.29756 11.1231C3.13323 12.0105 3.93517 12.7747 4.81319 12.5684L16.0095 9.93267C16.3381 9.85516 16.4008 9.41469 16.1052 9.25005C15.0797 8.6805 13.884 8.50297 12.7419 8.74517L12.5144 8.79888L12.3464 8.84283C12.1047 8.90588 11.847 8.8442 11.6599 8.67877L8.0749 5.50884C7.5671 5.06025 6.88278 4.8635 6.21455 4.97466Z" fill="#000000"/>
</svg>
