<svg xmlns="http://www.w3.org/2000/svg" width="20" height="20" viewBox="0 0 20 20" fill="none"><rect width="20" height="20" fill="none"/>
<path d="M12.9023 2.34766C14.2339 4.58799 14.9999 7.20377 15 9.99902C15 12.7909 14.2357 15.404 12.9072 17.6426L11.1924 16.6123C12.3397 14.6747 13 12.4141 13 9.99902C12.9999 7.57182 12.3339 5.30053 11.1758 3.35645L12.9023 2.34766Z" fill="#000000"/>
<path d="M9.44824 4.36621C10.4328 6.01398 10.9999 7.94 11 9.99902C11 12.0374 10.4429 13.9452 9.47656 15.582L7.7627 14.5518C8.54775 13.216 9 11.6605 9 9.99902C8.99991 8.30806 8.53285 6.7265 7.72168 5.375L9.44824 4.36621Z" fill="#000000"/>
<path d="M5.99414 6.38477C6.63182 7.43991 6.99991 8.67624 7 9.99902C7 11.2837 6.65182 12.4866 6.04785 13.5215L4.33301 12.4912C4.75593 11.7574 5 10.9069 5 9.99902C4.99991 9.04448 4.73274 8.15225 4.26855 7.39355L5.99414 6.38477Z" fill="#000000"/>
</svg>
