<svg xmlns="http://www.w3.org/2000/svg" width="20" height="20" viewBox="0 0 20 20" fill="none"><rect width="20" height="20" fill="none"/>
<path d="M16 9.9999C15.9999 13.3135 13.3136 15.9999 10 15.9999V17.4999C9.99993 17.6816 9.90111 17.8493 9.74219 17.9374C9.58336 18.0253 9.38934 18.0198 9.23535 17.9237L5.23535 15.4237C5.08922 15.3324 5.00007 15.1722 5 14.9999C5 14.8275 5.08921 14.6674 5.23535 14.5761L9.23535 12.0761C9.38938 11.9799 9.58331 11.9745 9.74219 12.0624C9.90111 12.1505 10 12.3182 10 12.4999V13.9999C12.2091 13.9999 13.9999 12.2089 14 9.9999H16Z" fill="#000000"/>
<path d="M10.2578 2.0624C10.4167 1.97445 10.6106 1.97989 10.7646 2.07607L14.7646 4.57607C14.9108 4.66745 15 4.82754 15 4.9999C14.9999 5.17222 14.9108 5.33239 14.7646 5.42373L10.7646 7.92373C10.6107 8.01984 10.4166 8.02528 10.2578 7.9374C10.0989 7.84932 10.0001 7.68158 10 7.4999V5.9999C7.79086 5.9999 6 7.79076 6 9.9999H4C4 6.68619 6.68629 3.9999 10 3.9999V2.4999C10 2.31817 10.0989 2.15052 10.2578 2.0624Z" fill="#000000"/>
</svg>
