<svg xmlns="http://www.w3.org/2000/svg" width="24" height="24" viewBox="0 0 24 24" fill="none"><rect width="24" height="24" fill="none"/>
<path d="M18.0654 13.9004C18.517 13.9004 18.8224 14.0383 19.041 14.2744C19.2541 14.5046 19.376 14.8198 19.4844 15.1494L21.7705 22.0996H19.8994L19.3945 20.4785H16.5371L15.9932 22.0996H14.2197L16.6201 15.1475C16.7344 14.8164 16.8636 14.5029 17.082 14.2734C17.3058 14.0384 17.6138 13.9004 18.0654 13.9004ZM17.0576 18.9092H18.8984L18.0039 16.043L17.0576 18.9092Z" fill="#000000"/>
<path d="M13.333 6H19C20.6568 6.00005 22 7.34318 22 9V12H20V9C20 8.44775 19.5522 8.00005 19 8H12.667L8.66699 5H5C4.44776 5.00005 4 5.44775 4 6V18C4 18.5523 4.44776 19 5 19H12V21H5C3.34319 21 2 19.6568 2 18V6C2 4.34318 3.34319 3.00005 5 3H9.33301L13.333 6Z" fill="#000000"/>
</svg>
