<svg xmlns="http://www.w3.org/2000/svg" width="24" height="24" viewBox="0 0 24 24" fill="none"><rect width="24" height="24" fill="none"/>
<path d="M12.577 3.18262L21.077 9.18262C21.4329 9.43392 21.5847 9.88745 21.4529 10.3027C21.321 10.7179 20.9355 11 20.4998 11H18.9998V19H20.9998V21H2.99981V19H4.99981V11H3.49981C3.06426 10.9999 2.67854 10.7179 2.54669 10.3027C2.41495 9.88755 2.56692 9.43393 2.92266 9.18262L11.4227 3.18262L11.9998 2.77637L12.577 3.18262ZM6.99981 19H8.99981V11H6.99981V19ZM10.9998 19H12.9998V11H10.9998V19ZM14.9998 19H16.9998V11H14.9998V19ZM6.65216 9H17.3484L11.9998 5.22461L6.65216 9Z" fill="#000000"/>
</svg>
