<svg xmlns="http://www.w3.org/2000/svg" width="20" height="20" viewBox="0 0 20 20" fill="none"><rect width="20" height="20" fill="none"/>
<path d="M9.31149 3.29395L10.8427 4.83301H14C15.6566 4.8331 16.9998 6.17637 17 7.83301V8.0293C18.154 8.21703 18.932 9.3796 18.5976 10.5498L17.3759 14.8242C17.008 16.1121 15.8306 17 14.4912 17H5.50876C4.16934 17 2.99199 16.1121 2.62399 14.8242L1.40231 10.5498C1.06795 9.37955 1.84583 8.21697 2.99997 8.0293V6C2.99997 4.34315 4.34311 3 5.99997 3H9.01755L9.31149 3.29395ZM4.54684 14.2744C4.66951 14.7037 5.06229 15 5.50876 15H14.4912C14.9376 15 15.3304 14.7037 15.4531 14.2744L16.6738 10H3.32614L4.54684 14.2744ZM5.99997 5C5.44768 5 4.99997 5.44772 4.99997 6V8H15V7.83301C14.9998 7.28093 14.5521 6.8331 14 6.83301H10.0127L8.18747 5H5.99997Z" fill="#000000"/>
</svg>
