<svg xmlns="http://www.w3.org/2000/svg" width="20" height="20" viewBox="0 0 20 20" fill="none"><rect width="20" height="20" fill="none"/>
<path d="M16 16C17.6569 16 19 17.3431 19 19H13C13 17.3431 14.3431 16 16 16Z" fill="#000000"/>
<path d="M14.6543 2.50391C16.1883 2.58163 17.4184 3.81166 17.4961 5.3457L17.5 5.5V9H16V5.5C16 4.67157 15.3284 4 14.5 4H5.5C4.67157 4 4 4.67157 4 5.5V14.5C4 15.3284 4.67157 16 5.5 16H11V17.5H5.5C3.84315 17.5 2.5 16.1569 2.5 14.5V5.5C2.5 3.8949 3.76056 2.58421 5.3457 2.50391L5.5 2.5H14.5L14.6543 2.50391Z" fill="#000000"/>
<path d="M16 11C17.1046 11 18 11.8954 18 13C18 14.1046 17.1046 15 16 15C14.8954 15 14 14.1046 14 13C14 11.8954 14.8954 11 16 11Z" fill="#000000"/>
<path d="M10 10.4492H6V8.94922H10V10.4492Z" fill="#000000"/>
<path d="M13 7.44922H6V5.94922H13V7.44922Z" fill="#000000"/>
</svg>
