<svg xmlns="http://www.w3.org/2000/svg" width="20" height="20" viewBox="0 0 20 20" fill="none"><rect width="20" height="20" fill="none"/>
<path d="M11.4688 2C12.3864 2 13.1865 2.6245 13.4092 3.51465L13.9639 5.73535C14.5976 6.2854 15 7.09496 15 8V12C15 12.9048 14.5973 13.7136 13.9639 14.2637L13.4092 16.4854C13.1865 17.3755 12.3864 18 11.4688 18H8.53125C7.61363 18 6.81352 17.3755 6.59082 16.4854L6.03516 14.2637C5.40201 13.7136 5 12.9045 5 12V8C5 7.09523 5.40173 6.28539 6.03516 5.73535L6.59082 3.51465C6.81352 2.6245 7.61363 2 8.53125 2H11.4688ZM8.53125 16H11.4688L11.7188 15H8.28125L8.53125 16ZM8 7C7.44772 7 7 7.44772 7 8V12C7 12.5523 7.44772 13 8 13H12C12.5523 13 13 12.5523 13 12V8C13 7.44772 12.5523 7 12 7H8ZM8.28125 5H11.7188L11.4688 4H8.53125L8.28125 5Z" fill="#000000"/>
</svg>
