<svg xmlns="http://www.w3.org/2000/svg" width="20" height="20" viewBox="0 0 20 20" fill="none"><rect width="20" height="20" fill="none"/>
<path d="M7 4H5C4.44772 4 4 4.44772 4 5V15C4 15.5523 4.44772 16 5 16H7V18H5C3.34315 18 2 16.6569 2 15V5C2 3.34315 3.34315 2 5 2H7V4Z" fill="#000000"/>
<path d="M15 2C16.6569 2 18 3.34315 18 5V15C18 16.6569 16.6569 18 15 18H13V16H15C15.5523 16 16 15.5523 16 15V5C16 4.44772 15.5523 4 15 4H13V2H15Z" fill="#000000"/>
<path d="M13.707 7.70801L7.70703 13.708L6.29297 12.2939L12.293 6.29395L13.707 7.70801Z" fill="#000000"/>
<path d="M12.25 11.001C12.9403 11.001 13.5 11.5607 13.5 12.251C13.5 12.9413 12.9404 13.501 12.25 13.501C11.5597 13.5009 11 12.9413 11 12.251C11 11.5607 11.5597 11.001 12.25 11.001Z" fill="#000000"/>
<path d="M7.75 6.50098C8.44033 6.50098 8.99996 7.06066 9 7.75098C9 8.44133 8.44036 9.00098 7.75 9.00098C7.05964 9.00098 6.5 8.44133 6.5 7.75098C6.50004 7.06066 7.05967 6.50098 7.75 6.50098Z" fill="#000000"/>
</svg>
