<svg xmlns="http://www.w3.org/2000/svg" width="24" height="24" viewBox="0 0 24 24" fill="none"><rect width="24" height="24" fill="none"/>
<path d="M19 16.9999H22V18.9999H19V21.9999H17V18.9999H14V16.9999H17V13.9999H19V16.9999Z" fill="#000000"/>
<path d="M5.02832 3.86805C6.44327 1.60457 9.63662 1.33589 11.4102 3.33094L12 3.99403L12.5898 3.33094C14.3634 1.33589 17.5567 1.60457 18.9717 3.86805L19.3477 4.46962C19.5044 4.72067 19.5421 5.02908 19.4502 5.31044C19.3581 5.59172 19.1459 5.81865 18.8711 5.9286C17.4607 6.49287 16.6258 7.21428 15.9688 8.11317L23 6.79481V7.99989C22.9999 9.51317 22.7433 10.8537 22.2588 11.9999H20.0156C20.4703 11.2646 20.7948 10.3438 20.9297 9.21669L16.1641 10.1112C15.3594 10.2621 14.6179 9.91508 14.2002 9.34169C13.7728 8.75447 13.6776 7.90983 14.1709 7.18739C14.874 6.15828 15.7455 5.28994 17.0127 4.59559C16.2266 3.78257 14.875 3.77052 14.085 4.65907L12 7.00477L9.91504 4.65907C9.1248 3.77034 7.77233 3.78208 6.98633 4.59559C8.25391 5.29001 9.12588 6.15807 9.8291 7.18739C10.3224 7.90983 10.2272 8.75447 9.7998 9.34169C9.38212 9.91508 8.64061 10.2621 7.83594 10.1112L3.06934 9.21669C3.26777 10.8747 3.876 12.0868 4.70703 12.9179C5.7325 13.9432 7.20805 14.4999 9 14.4999H10.6182L8.3457 19.0429C9.50882 19.5598 10.7545 19.8174 12 19.8173V21.8192C10.3148 21.8192 8.62932 21.4321 7.08105 20.6581L5.6582 19.9472L7.44238 16.3768C5.84937 16.1195 4.41242 15.4512 3.29297 14.3319C1.81562 12.8545 1.00011 10.7023 1 7.99989V6.79481L8.03027 8.11317C7.37327 7.2145 6.5391 6.49277 5.12891 5.9286C4.85409 5.81865 4.6419 5.59172 4.5498 5.31044C4.45793 5.02908 4.4956 4.72067 4.65234 4.46962L5.02832 3.86805Z" fill="#000000"/>
</svg>
