<svg xmlns="http://www.w3.org/2000/svg" width="20" height="20" viewBox="0 0 20 20" fill="none"><rect width="20" height="20" fill="none"/>
<path d="M19.1406 17.2317L17.8594 18.7688L15.5 16.802L13.1406 18.7688L11.8594 17.2317L15.5 14.1985L19.1406 17.2317Z" fill="#000000"/>
<path d="M7.37402 2.21996C7.61046 2.03052 7.92101 1.95807 8.2168 2.02367L18 4.19848V8.00121H16V5.80199L9 4.24633V16.0002H10V18.0002H2V9.00023L7 7.57152V3.00023C7.00028 2.6973 7.13773 2.40956 7.37402 2.21996ZM4 10.508V16.0002H7V9.6516L4 10.508Z" fill="#000000"/>
<path d="M19.1406 13.2317L17.8594 14.7688L15.5 12.802L13.1406 14.7688L11.8594 13.2317L15.5 10.1985L19.1406 13.2317Z" fill="#000000"/>
</svg>
