<svg xmlns="http://www.w3.org/2000/svg" width="20" height="20" viewBox="0 0 20 20" fill="none"><rect width="20" height="20" fill="none"/>
<path d="M16 2C17.1046 2 18 2.89543 18 4C18 4.8952 17.4116 5.6521 16.6006 5.90723L15.3506 11.5283C15.7487 11.8939 16 12.4169 16 13C16 14.1046 15.1046 15 14 15C12.8954 15 12 14.1046 12 13C12 12.8741 12.0129 12.7512 12.0352 12.6318L7.66309 8.88477C7.5775 8.91487 7.48988 8.94064 7.39941 8.95898L5.49512 14.6748C5.80825 15.0278 6 15.491 6 16C6 17.1046 5.10457 18 4 18C2.89543 18 2 17.1046 2 16C2 15.0329 2.68639 14.2259 3.59863 14.04L5.50391 8.32422C5.19132 7.97132 5 7.50851 5 7C5 5.89543 5.89543 5 7 5C8.10457 5 9 5.89543 9 7C9 7.12559 8.98601 7.24802 8.96387 7.36719L13.3359 11.1143C13.3568 11.1069 13.3773 11.0985 13.3984 11.0918L14.6475 5.4707C14.2502 5.10519 14 4.58237 14 4C14 2.89543 14.8954 2 16 2Z" fill="#000000"/>
</svg>
