<svg xmlns="http://www.w3.org/2000/svg" width="24" height="24" viewBox="0 0 24 24" fill="none"><rect width="24" height="24" fill="none"/>
<path d="M22.707 16.707L17.5 21.9141L14.293 18.707L15.707 17.293L17.5 19.0859L21.293 15.293L22.707 16.707Z" fill="#000000"/>
<path d="M12.5674 3.00001C15.1733 2.0641 17.9195 3.99587 17.9199 6.76466V6.99903H18C20.2089 6.99903 21.9995 8.79028 22 10.999V13H20V10.999C19.9995 9.89485 19.1043 8.99903 18 8.99903H6C4.89571 8.99903 4.00045 9.89485 4 10.999V16.999C4.00016 18.1035 4.89553 18.999 6 18.999H12V20.999H6C3.79096 20.999 2.00016 19.208 2 16.999V9.60938C2.00028 7.92202 3.05947 6.41533 4.64746 5.84474L12.5674 3.00001ZM15.9199 6.76466C15.9195 5.38048 14.546 4.41402 13.2432 4.88184L7.34961 6.99903H15.9199V6.76466Z" fill="#000000"/>
</svg>
