<svg xmlns="http://www.w3.org/2000/svg" width="24" height="24" viewBox="0 0 24 24" fill="none"><rect width="24" height="24" fill="none"/>
<path d="M12.0001 2C13.2263 2.00006 14.3908 2.45223 15.1973 2.85547C15.6107 3.0622 15.9553 3.26921 16.1973 3.4248C16.3183 3.50257 16.4153 3.5685 16.4835 3.61621C16.5174 3.63997 16.545 3.65969 16.5645 3.67383C16.5741 3.68077 16.5821 3.68707 16.588 3.69141C16.5907 3.69339 16.5938 3.6949 16.5958 3.69629L16.5977 3.69824L16.5997 3.69922C16.5964 3.70403 16.5526 3.76325 16.0001 4.5L16.5997 3.69922C16.823 3.86687 16.967 4.12156 16.9952 4.39941C17.023 4.67737 16.9326 4.9552 16.7471 5.16406L13.754 8.53027L15.8536 9.23047C17.2882 9.70876 18.4712 10.7062 19.1934 12H16.6856C16.2713 11.6132 15.7746 11.3123 15.2217 11.1279L12.0001 10.0537L8.77838 11.1279C7.54375 11.5396 6.58607 12.5269 6.21197 13.7734L5.50299 16.1377C4.92597 18.0622 6.36683 19.9997 8.37604 20H12.0001V22H8.37604C5.02718 21.9997 2.62516 18.7712 3.58697 15.5635L4.29693 13.1982C4.85812 11.3286 6.29376 9.84799 8.14557 9.23047L10.2452 8.53027L7.25299 5.16406C7.06742 4.95518 6.97708 4.67742 7.00494 4.39941C7.03312 4.12156 7.17708 3.86784 7.40045 3.7002L8.00006 4.5C7.44521 3.76002 7.4034 3.70455 7.40045 3.7002L7.40436 3.69629C7.40623 3.69497 7.40947 3.69333 7.41217 3.69141C7.41799 3.6871 7.42618 3.68068 7.43561 3.67383C7.45506 3.65971 7.48281 3.63991 7.51666 3.61621C7.5848 3.56853 7.68194 3.5025 7.80279 3.4248C8.04481 3.26926 8.38952 3.06211 8.80279 2.85547C9.60933 2.45228 10.7739 2.00012 12.0001 2ZM12.0001 4C11.227 4.00013 10.3907 4.29794 9.69733 4.64453C9.64294 4.67173 9.58951 4.69953 9.53815 4.72656L12.0001 7.49414L14.461 4.72656C14.4098 4.69963 14.357 4.67162 14.3028 4.64453C13.6095 4.29791 12.7732 4.00007 12.0001 4Z" fill="#000000"/>
<path d="M19.0001 17H22.0001V19H19.0001V22H17.0001V19H14.0001V17H17.0001V14H19.0001V17Z" fill="#000000"/>
</svg>
