<svg xmlns="http://www.w3.org/2000/svg" width="20" height="20" viewBox="0 0 20 20" fill="none"><rect width="20" height="20" fill="none"/>
<path d="M18.5303 13.5303L13.5 18.5605L10.4697 15.5303L11.5303 14.4697L13.5 16.4395L17.4697 12.4697L18.5303 13.5303Z" fill="#000000"/>
<path d="M13.4336 3.25C14.0483 3.25002 14.6183 3.57251 14.9346 4.09961L16.375 6.5H18.5V7C18.5 7.55228 18.0523 8 17.5 8H17.2754L17.6436 8.61426L17.7695 8.8252L17.7471 9.07031L17.6592 10H16.1514L16.2295 9.17383L13.6484 4.87109C13.6033 4.79586 13.5214 4.75002 13.4336 4.75H6.56641C6.47864 4.75 6.39676 4.79586 6.35156 4.87109L3.76953 9.17383L4.18262 13.5498H9V15.0498H4.75V16.5H3.25V15.0498H2.81738L2.25293 9.07031L2.23047 8.8252L2.35645 8.61426L2.72461 8H2.5C1.94772 8 1.5 7.55228 1.5 7V6.5H3.625L5.06543 4.09961C5.3817 3.57251 5.9517 3.25 6.56641 3.25H13.4336Z" fill="#000000"/>
<path d="M6.57129 9.14355C7.04458 9.14355 7.42856 9.52674 7.42871 10C7.42871 10.4734 7.04468 10.8574 6.57129 10.8574H5.71484C5.24146 10.8574 4.85742 10.4734 4.85742 10C4.85757 9.52674 5.24155 9.14355 5.71484 9.14355H6.57129Z" fill="#000000"/>
<path d="M14.2852 9.14258C14.7585 9.14258 15.1426 9.52661 15.1426 10C15.1424 10.4733 14.7585 10.8564 14.2852 10.8564H13.4287C12.9554 10.8564 12.5714 10.4733 12.5713 10C12.5713 9.79288 12.6443 9.60227 12.7666 9.4541C12.8015 9.4118 12.8405 9.37281 12.8828 9.33789C13.031 9.2156 13.2216 9.14258 13.4287 9.14258H14.2852Z" fill="#000000"/>
</svg>
