<svg xmlns="http://www.w3.org/2000/svg" width="20" height="20" viewBox="0 0 20 20" fill="none"><rect width="20" height="20" fill="none"/>
<path d="M16 13.9998H19V15.9998H16V18.9998H14V15.9998H11V13.9998H14V10.9998H16V13.9998Z" fill="#000000"/>
<path d="M10.3994 2.53199C11.9859 1.47458 14.0981 1.68384 15.4463 3.03199L16.207 3.79274C16.4444 4.0304 16.547 4.37189 16.4795 4.70094C16.4116 5.02976 16.1829 5.30376 15.8711 5.42848C14.83 5.84492 14.2368 6.13766 13.8184 6.44703C13.7221 6.51823 13.6313 6.59168 13.5459 6.67164L19 5.83375V6.99977C18.9999 7.71891 18.938 8.38691 18.8125 8.99977H16.7539C16.8253 8.75242 16.8848 8.47903 16.9258 8.17652L12.6074 8.84156C11.4444 9.02011 10.4329 7.78201 11.0859 6.64625C11.5107 5.90838 11.9566 5.33589 12.6289 4.83863C12.9472 4.60328 13.3056 4.39279 13.7148 4.18922C13.0555 3.75595 12.1866 3.74436 11.5088 4.19606L10 5.20192L8.49121 4.19606C7.81315 3.7442 6.94356 3.7555 6.28418 4.18922C6.6938 4.39291 7.05261 4.60313 7.37109 4.83863C8.04337 5.33589 8.48934 5.90839 8.91406 6.64625C9.56709 7.78202 8.55562 9.02011 7.39258 8.84156L3.07227 8.17652C3.22626 9.33231 3.61489 10.0626 4.11816 10.53C4.7893 11.153 5.86403 11.4998 7.5 11.4998H9.03906L7.15234 15.7429C7.75191 15.9715 8.37269 16.1227 9 16.2019V18.2185C7.80646 18.0986 6.62904 17.7649 5.52832 17.2146L5.38672 17.1443L4.53223 16.7166L6.00391 13.4021C4.74662 13.2285 3.62787 12.8037 2.75684 11.9949C1.53849 10.8631 1.00015 9.16698 1 6.99977V5.83375L6.4541 6.67262C6.36858 6.59248 6.27808 6.51837 6.18164 6.44703C5.76325 6.13766 5.16996 5.84492 4.12891 5.42848C3.81713 5.30376 3.58836 5.02976 3.52051 4.70094C3.45298 4.37189 3.55562 4.0304 3.79297 3.79274L4.55371 3.03199C5.90188 1.68384 8.01414 1.47458 9.60059 2.53199L10 2.79762L10.3994 2.53199Z" fill="#000000"/>
</svg>
