<svg xmlns="http://www.w3.org/2000/svg" width="20" height="20" viewBox="0 0 20 20" fill="none"><rect width="20" height="20" fill="none"/>
<path d="M10 2C14.4183 2 18 5.58172 18 10C18 14.4183 14.4183 18 10 18C5.58172 18 2 14.4183 2 10C2 5.58172 5.58172 2 10 2ZM6.21875 8.71973C4.82169 10.1171 4.82165 12.3829 6.21875 13.7803C7.6161 15.1776 9.8818 15.1774 11.2793 13.7803L11.5293 13.5303L10.4697 12.4707L10.2197 12.7207C9.40802 13.5321 8.09087 13.5313 7.2793 12.7197C6.46799 11.9081 6.46802 10.5919 7.2793 9.78027L7.5293 9.53027L6.46875 8.46973L6.21875 8.71973ZM8.46875 10.4697L9.5293 11.5312L11.5322 9.53027L10.4717 8.46973L8.46875 10.4697ZM13.7793 6.21973C12.3819 4.82259 10.1171 4.8225 8.71973 6.21973L8.46973 6.46973L9.53027 7.53027L9.78027 7.28027C10.5919 6.46883 11.9071 6.46892 12.7188 7.28027C13.5304 8.0919 13.5313 9.40804 12.7197 10.2197L12.4697 10.4697L13.5303 11.5293L13.7793 11.2803C15.1766 9.8828 15.1767 7.61714 13.7793 6.21973Z" fill="#000000"/>
</svg>
