<svg xmlns="http://www.w3.org/2000/svg" width="20" height="20" viewBox="0 0 20 20" fill="none"><rect width="20" height="20" fill="none"/>
<path d="M17.5814 7.18652C17.9348 7.43914 18.0848 7.8919 17.9525 8.30566C17.8197 8.71926 17.4347 8.99984 17.0003 9H16.0003V15H17.5003V17H2.5003V15H4.0003V9H3.0003C2.56583 8.99997 2.18099 8.71929 2.04816 8.30566C1.9157 7.89179 2.06561 7.43912 2.41925 7.18652L10.0003 1.77148L17.5814 7.18652ZM6.0003 15H9.0003V9H6.0003V15ZM11.0003 15H14.0003V9H11.0003V15ZM6.12042 7H13.8812L10.0003 4.22852L6.12042 7Z" fill="#000000"/>
</svg>
