<svg xmlns="http://www.w3.org/2000/svg" width="20" height="20" viewBox="0 0 20 20" fill="none"><rect width="20" height="20" fill="none"/>
<path d="M11.4143 10L10.0002 11.4141L8.58516 10L10.0002 8.58594L11.4143 10Z" fill="#000000"/>
<path d="M18.4846 7.17188L15.6565 10L16.3635 10.707L10.0002 17.0713C8.82865 18.2428 6.92862 18.2428 5.75704 17.0713L2.92891 14.2422C1.75746 13.0706 1.75738 11.1715 2.92891 10L9.2922 3.63574L10.0002 4.34277L12.8283 1.51465L18.4846 7.17188ZM4.34298 11.4141C3.95249 11.8045 3.95257 12.4376 4.34298 12.8281L7.1711 15.6572C7.56151 16.0476 8.19463 16.0474 8.58516 15.6572L13.5354 10.707L9.2922 6.46484L4.34298 11.4141ZM11.4143 5.75781L14.2424 8.58594L15.6565 7.17188L12.8283 4.34277L11.4143 5.75781Z" fill="#000000"/>
</svg>
