<svg xmlns="http://www.w3.org/2000/svg" width="20" height="20" viewBox="0 0 20 20" fill="none"><rect width="20" height="20" fill="none"/>
<path d="M9.99964 3C10.3338 3.0001 10.6462 3.16727 10.8317 3.44531L13.2448 7.06543L16.4 4.7002C16.7167 4.46293 17.1437 4.43445 17.4889 4.62793C17.834 4.82165 18.0322 5.20074 17.9948 5.59473L16.9088 17H3.09046L2.00452 5.59473C1.96702 5.20073 2.16527 4.82165 2.51038 4.62793C2.85555 4.43447 3.2826 4.46291 3.59925 4.7002L6.75354 7.06543L9.1676 3.44531L9.2428 3.34668C9.43133 3.12833 9.70713 3.00008 9.99964 3ZM7.83167 9.05469C7.67929 9.28318 7.43924 9.43886 7.16858 9.48535C6.89791 9.53164 6.61978 9.46447 6.40003 9.2998L4.20862 7.65625L4.90882 15H15.0905L15.7897 7.65625L13.5992 9.2998C13.3795 9.46447 13.1014 9.53163 12.8307 9.48535C12.56 9.43887 12.32 9.28318 12.1676 9.05469L9.99964 5.80273L7.83167 9.05469Z" fill="#000000"/>
</svg>
