<svg xmlns="http://www.w3.org/2000/svg" width="20" height="20" viewBox="0 0 20 20" fill="none"><rect width="20" height="20" fill="none"/>
<path d="M4 14C4 15.1046 4.89543 16 6 16H8V18H6C3.79086 18 2 16.2091 2 14V12H4V14Z" fill="#000000"/>
<path d="M18 14C18 16.2091 16.2091 18 14 18H12V16H14C15.1046 16 16 15.1046 16 14V12H18V14Z" fill="#000000"/>
<path d="M8 4H6C4.89543 4 4 4.89543 4 6V8H2V6C2 3.79086 3.79086 2 6 2H8V4Z" fill="#000000"/>
<path d="M14 2C16.2091 2 18 3.79086 18 6V8H16V6C16 4.89543 15.1046 4 14 4H12V2H14Z" fill="#000000"/>
</svg>
