<svg xmlns="http://www.w3.org/2000/svg" width="20" height="20" viewBox="0 0 20 20" fill="none"><rect width="20" height="20" fill="none"/>
<path d="M10 10.5C11.1046 10.5 12 11.3954 12 12.5C12 13.6046 11.1046 14.5 10 14.5C8.89543 14.5 8 13.6046 8 12.5C8 11.3954 8.89543 10.5 10 10.5Z" fill="#000000"/>
<path d="M18 18H2V7H18V18ZM4 14L6 16H16V11L14 9H4V14Z" fill="#000000"/>
<path d="M13.5547 4.16797L12.4453 5.83203L10 4.20215L7.55469 5.83203L6.44531 4.16797L10 1.79785L13.5547 4.16797Z" fill="#000000"/>
</svg>
