<svg xmlns="http://www.w3.org/2000/svg" width="20" height="20" viewBox="0 0 20 20" fill="none"><rect width="20" height="20" fill="none"/>
<path d="M14.0001 2C14.1795 2 14.3457 2.09627 14.4347 2.25195L16.4347 5.75195C16.523 5.90665 16.5221 6.0969 16.4327 6.25098C16.3433 6.40503 16.1783 6.5 16.0001 6.5H14.7501V7.33691C14.7501 8.62988 14.0839 9.83231 12.9874 10.5176L11.4152 11.501L12.9874 12.4824C14.0839 13.1677 14.7501 14.3701 14.7501 15.6631V17H13.2501V15.6631C13.2501 14.8873 12.8504 14.166 12.1925 13.7549L9.99915 12.3857L7.80775 13.7549C7.15002 14.1661 6.75013 14.8874 6.75013 15.6631V17H5.25013V15.6631C5.25013 14.3702 5.91652 13.1677 7.01282 12.4824L12.1925 9.24512C12.8504 8.83396 13.2501 8.11269 13.2501 7.33691V6.5H12.0001C11.822 6.49986 11.6569 6.40502 11.5675 6.25098C11.4783 6.09699 11.4774 5.90656 11.5656 5.75195L13.5656 2.25195C13.6545 2.09628 13.8209 2.00014 14.0001 2Z" fill="#000000"/>
<path d="M6.00013 2C6.17949 2 6.34565 2.09627 6.4347 2.25195L8.4347 5.75195C8.523 5.90665 8.52213 6.0969 8.43275 6.25098C8.34326 6.40503 8.1783 6.5 8.00013 6.5H6.75013V7.33691C6.75013 8.11261 7.15002 8.83393 7.80775 9.24512L8.69935 9.80371L7.28431 10.6875L7.01282 10.5176C5.91652 9.83229 5.25013 8.62979 5.25013 7.33691V6.5H4.00013C3.82205 6.49986 3.65691 6.40502 3.56751 6.25098C3.47826 6.09699 3.47739 5.90656 3.56556 5.75195L5.56556 2.25195C5.65451 2.09628 5.82085 2.00014 6.00013 2Z" fill="#000000"/>
</svg>
