<svg xmlns="http://www.w3.org/2000/svg" width="24" height="24" viewBox="0 0 24 24" fill="none"><rect width="24" height="24" fill="none"/>
<path d="M17 2.78223C20.0091 4.74512 22 8.13831 22 11.999C22 15.8599 20.0094 19.2539 17 21.2168V18.7061C18.8409 17.0581 20 14.6642 20 11.999C20 9.33407 18.8406 6.9409 17 5.29297V2.78223Z" fill="#000000"/>
<path d="M7 5.29199C5.15912 6.93994 4 9.33383 4 11.999C4 14.664 5.15941 17.0571 7 18.7051V21.2158C3.99088 19.2529 2 15.8597 2 11.999C2 8.13811 3.99063 4.7441 7 2.78125V5.29199Z" fill="#000000"/>
<path d="M13 6.10156C13.5913 6.22318 14.1666 6.45618 14.6582 6.82031C15.4547 7.41039 16 8.32426 16 9.49902H14C14 9.00724 13.7952 8.671 13.4668 8.42773C13.1096 8.16322 12.5807 7.99902 12 7.99902C11.4193 7.99902 10.8904 8.16322 10.5332 8.42773C10.2048 8.671 10 9.00724 10 9.49902C10 9.78837 10.0602 9.96407 10.126 10.0791C10.1931 10.1965 10.2995 10.3093 10.4756 10.4219C10.8729 10.6757 11.4468 10.8305 12.2422 11.0293C12.9466 11.2054 13.8729 11.4258 14.6006 11.8906C14.9868 12.1374 15.3494 12.47 15.6104 12.9268C15.8727 13.3859 16 13.9134 16 14.499C16 15.6131 15.4351 16.5106 14.6768 17.1006C14.1906 17.4787 13.61 17.7418 13 17.8818V18.999H11V17.8955C10.4087 17.7739 9.83332 17.5418 9.3418 17.1777C8.54533 16.5877 8 15.6738 8 14.499H10C10 14.9908 10.2048 15.327 10.5332 15.5703C10.8904 15.8348 11.4193 15.999 12 15.999C12.54 15.999 13.0709 15.8158 13.4482 15.5225C13.8147 15.2374 14 14.8848 14 14.499C14 14.2097 13.9398 14.034 13.874 13.9189C13.8069 13.8015 13.7005 13.6887 13.5244 13.5762C13.1271 13.3224 12.5532 13.1676 11.7578 12.9688C11.0534 12.7926 10.1271 12.5722 9.39941 12.1074C9.01315 11.8606 8.65063 11.528 8.38965 11.0713C8.12725 10.6121 8 10.0847 8 9.49902C8 8.32426 8.54533 7.41039 9.3418 6.82031C9.83337 6.45618 10.4087 6.22318 11 6.10156V4.99902H13V6.10156Z" fill="#000000"/>
</svg>
