<svg xmlns="http://www.w3.org/2000/svg" width="20" height="20" viewBox="0 0 20 20" fill="none"><rect width="20" height="20" fill="none"/>
<path d="M15.2998 1.94922C16.8186 1.94922 18.0498 3.18044 18.0498 4.69922V11.2988C18.0498 12.8176 16.8186 14.0488 15.2998 14.0488H14.0508V15.2988C14.0508 16.8174 12.8193 18.0486 11.3008 18.0488H4.70117C3.18239 18.0488 1.9502 16.8176 1.9502 15.2988V8.69922C1.9502 7.18044 3.18239 5.94922 4.70117 5.94922H5.9502V4.69922C5.9502 3.18044 7.18141 1.94922 8.7002 1.94922H15.2998ZM4.70117 7.44922C4.01082 7.44922 3.45117 8.00886 3.45117 8.69922V15.2988C3.45117 15.9892 4.01082 16.5488 4.70117 16.5488H11.3008C11.9909 16.5486 12.5508 15.989 12.5508 15.2988V14.0488H8.7002C7.18141 14.0488 5.9502 12.8176 5.9502 11.2988V7.44922H4.70117ZM8.7002 3.44922C8.00984 3.44922 7.4502 4.00886 7.4502 4.69922V11.2988C7.4502 11.9892 8.00984 12.5488 8.7002 12.5488H15.2998C15.9902 12.5488 16.5498 11.9892 16.5498 11.2988V4.69922C16.5498 4.00886 15.9902 3.44922 15.2998 3.44922H8.7002Z" fill="#000000"/>
</svg>
