<svg xmlns="http://www.w3.org/2000/svg" width="24" height="24" viewBox="0 0 24 24" fill="none"><rect width="24" height="24" fill="none"/>
<path d="M12 4C12.8993 4 13.7705 4.12015 14.5996 4.34277L13.8301 6.21191C13.2422 6.07431 12.6298 6 12 6C7.58172 6 4 9.58172 4 14C4 15.4578 4.39166 16.8233 5.07324 18H18.9268C19.6083 16.8233 20 15.4578 20 14C20 13.3698 19.9249 12.7571 19.7871 12.1689L21.6562 11.3994C21.8791 12.2288 22 13.1003 22 14C22 16.2512 21.2563 18.3287 20.001 20H3.99902C2.7437 18.3287 2 16.2512 2 14C2 8.47715 6.47715 4 12 4Z" fill="#000000"/>
<path d="M16.707 10.707L12.207 15.207L10.793 13.793L15.293 9.29297L16.707 10.707Z" fill="#000000"/>
<path d="M16.4697 5.05469C18.4024 6.02227 19.9765 7.59677 20.9443 9.5293L19.0889 10.293C18.3326 8.84965 17.1495 7.66624 15.7061 6.91016L16.4697 5.05469Z" fill="#000000"/>
</svg>
