<svg xmlns="http://www.w3.org/2000/svg" width="24" height="24" viewBox="0 0 24 24" fill="none"><rect width="24" height="24" fill="none"/>
<path d="M10 4.25195C6.54957 5.14001 4.00007 8.27237 4 12C4 16.4183 7.58172 20 12 20C15.7284 20 18.8607 17.4495 19.748 13.998H21.7998C20.874 18.5635 16.8386 22 12 22C6.47715 22 2 17.5228 2 12C2.00008 7.16215 5.43557 3.12673 10 2.2002V4.25195Z" fill="#000000"/>
<path d="M12 2C13.3132 2 14.6139 2.2582 15.8271 2.76074C17.0404 3.26329 18.1427 4.00015 19.0713 4.92871C19.9998 5.85727 20.7367 6.95964 21.2393 8.17285C21.7418 9.38611 22 10.6868 22 12H12V2ZM14 10H19.7451C19.6519 9.63919 19.5339 9.28428 19.3906 8.93848C18.9886 7.96795 18.4 7.08559 17.6572 6.34277C16.9144 5.59995 16.0321 5.01141 15.0615 4.60938C14.7157 4.46614 14.3608 4.34805 14 4.25488V10Z" fill="#000000"/>
</svg>
