<svg xmlns="http://www.w3.org/2000/svg" width="20" height="20" viewBox="0 0 20 20" fill="none"><rect width="20" height="20" fill="none"/>
<path d="M19.0303 12.0302L12.0303 19.0302L10.9697 17.9697L17.9697 10.9697L19.0303 12.0302Z" fill="#000000"/>
<path d="M17.5 15.9999C18.3284 15.9999 19 16.6715 19 17.4999C18.9999 18.3283 18.3284 18.9999 17.5 18.9999C16.6716 18.9999 16.0001 18.3283 16 17.4999C16 16.6715 16.6716 15.9999 17.5 15.9999Z" fill="#000000"/>
<path d="M6.77441 2.41986C6.94818 2.27741 7.17713 2.22052 7.39746 2.26459L18 4.38471V8.99994H16.5V5.6142L8 3.914V16.4999H9V17.9999H2V7.99994L6.5 7.24994V2.99994L6.50488 2.91596C6.52663 2.72295 6.62254 2.54442 6.77441 2.41986ZM3.5 9.27045V16.4999H6.5V8.77045L3.5 9.27045Z" fill="#000000"/>
<path d="M12.5 10.9999C13.3284 10.9999 14 11.6715 14 12.4999C13.9999 13.3283 13.3284 13.9999 12.5 13.9999C11.6717 13.9999 11.0001 13.3283 11 12.4999C11 11.6716 11.6716 11 12.5 10.9999Z" fill="#000000"/>
</svg>
