<svg xmlns="http://www.w3.org/2000/svg" width="20" height="20" viewBox="0 0 20 20" fill="none"><rect width="20" height="20" fill="none"/>
<path d="M8.41872 2.62598L11.2293 4.5H14.0525C15.7092 4.50014 17.0525 5.84323 17.0525 7.5V8.53711C18.0126 8.73339 18.6542 9.70827 18.3894 10.7012L17.1697 15.2734C16.8193 16.5863 15.6301 17.4999 14.2713 17.5H5.72829C4.36954 17.4998 3.18018 16.5862 2.82985 15.2734L1.61013 10.7012C1.34489 9.70629 1.98965 8.72966 2.9529 8.53613V5.5C2.9529 3.84329 4.29625 2.50024 5.9529 2.5H8.23024L8.41872 2.62598ZM3.30153 10C3.13757 10.0003 3.01721 10.156 3.05935 10.3145L4.27907 14.8867C4.45422 15.543 5.04904 15.9998 5.72829 16H14.2713C14.9506 15.9999 15.5453 15.5431 15.7205 14.8867L16.9402 10.3145C16.9824 10.1559 16.8621 10.0001 16.698 10H3.30153ZM5.9529 4C5.12468 4.00024 4.4529 4.67172 4.4529 5.5V8.5H15.5525V7.5C15.5525 6.67166 14.8808 6.00014 14.0525 6H10.7752L10.5867 5.87402L7.77614 4H5.9529Z" fill="#000000"/>
</svg>
