<svg xmlns="http://www.w3.org/2000/svg" width="20" height="20" viewBox="0 0 20 20" fill="none"><rect width="20" height="20" fill="none"/>
<path d="M17.0498 11.25H19V12.75H15C14.5858 12.75 14.25 13.0858 14.25 13.5C14.25 13.9142 14.5858 14.25 15 14.25H17C18.2426 14.25 19.25 15.2574 19.25 16.5C19.25 17.726 18.2694 18.7206 17.0498 18.7471V20H15.5498V18.75H13V17.25H17C17.4142 17.25 17.75 16.9142 17.75 16.5C17.75 16.0858 17.4142 15.75 17 15.75H15C13.7574 15.75 12.75 14.7426 12.75 13.5C12.75 12.2574 13.7574 11.25 15 11.25H15.5498V10H17.0498V11.25Z" fill="#000000"/>
<path d="M10 2C13.7277 2 16.86 4.54954 17.748 8H13.2217C12.2188 8 11.2726 7.53411 10.6611 6.73926C9.91688 5.77172 9.81252 4.53544 10.249 3.50586C10.1664 3.50275 10.0834 3.5 10 3.5C8.20582 3.5 6.58045 4.22596 5.4043 5.40137L5.46387 5.4082C7.59507 5.645 9.12144 7.57927 8.85547 9.70703L8.84473 9.78613C8.75789 10.4808 8.43114 11.1242 7.9209 11.6035C7.62098 11.8856 7.53935 12.3301 7.71973 12.7002L8.51953 14.3418C8.83543 14.99 9 15.7018 9 16.4229C9.326 16.4732 9.6599 16.5 10 16.5C10.3401 16.5 10.674 16.4732 11 16.4229V17.9355C10.6723 17.9764 10.3388 18 10 18C9.26365 18 8.55119 17.8982 7.87402 17.7119C7.86587 17.7097 7.85775 17.7073 7.84961 17.7051C4.47606 16.7656 2 13.6731 2 10C2 5.58172 5.58172 2 10 2ZM4.34668 6.79199C3.80835 7.73862 3.5 8.83315 3.5 10C3.5 12.6923 5.13685 15.0025 7.46973 15.9893C7.42363 15.6463 7.32426 15.3117 7.17188 14.999L6.37109 13.3574C5.90269 12.3963 6.11524 11.2418 6.89453 10.5098C7.1498 10.2699 7.31298 9.94818 7.35645 9.60059L7.36621 9.52051C7.5283 8.22283 6.59764 7.04286 5.29785 6.89844L4.34668 6.79199ZM11.8164 3.75879C11.3866 4.35659 11.3663 5.19694 11.8496 5.8252C12.1771 6.25086 12.6846 6.5 13.2217 6.5H15.25C15.327 6.5 15.4035 6.503 15.4795 6.50684C14.6411 5.19438 13.346 4.20318 11.8164 3.75879Z" fill="#000000"/>
</svg>
