<svg xmlns="http://www.w3.org/2000/svg" width="24" height="24" viewBox="0 0 24 24" fill="none"><rect width="24" height="24" fill="none"/>
<path d="M10.9355 2.65323C13.4651 1.90923 16 3.80555 16 6.4423V6.99991H14V6.4423C14 5.14077 12.7486 4.20395 11.5 4.5712C10.0882 4.98668 9.62828 6.7573 10.6592 7.80753L12.623 9.80753L20.2744 14.3984C21.3448 15.0406 22 16.1979 22 17.4462C21.9997 19.4087 20.4088 20.9998 18.4463 20.9999H5.55371C3.5912 20.9998 2.00028 19.4087 2 17.4462C2 16.1979 2.65518 15.0406 3.72559 14.3984L10.3965 10.3944L9.23242 9.2089C7.14335 7.08132 8.07512 3.49501 10.9355 2.65323ZM4.75488 16.1132C4.28689 16.394 4 16.9004 4 17.4462C4.00028 18.3041 4.69577 18.9998 5.55371 18.9999H18.4463C19.3042 18.9998 19.9997 18.3041 20 17.4462C20 16.9004 19.7131 16.394 19.2451 16.1132L12 11.7655L4.75488 16.1132Z" fill="#000000"/>
</svg>
