<svg xmlns="http://www.w3.org/2000/svg" width="20" height="20" viewBox="0 0 20 20" fill="none"><rect width="20" height="20" fill="none"/>
<path d="M9.99121 9H10.0049L12.3389 5H14.0742L11.1572 10H12.999V11H10.749V12H12.999V13H10.749V15H9.24902V13H6.99902V12H9.24902V11H6.99902V10H8.83887L5.92188 5H7.65723L9.99121 9Z" fill="#000000"/>
<path d="M15.2988 1.9502C16.8176 1.9502 18.0488 3.18141 18.0488 4.7002V15.2998C18.0488 16.8186 16.8176 18.0498 15.2988 18.0498H4.69922C3.18044 18.0498 1.94922 16.8186 1.94922 15.2998V4.7002C1.94922 3.18141 3.18044 1.9502 4.69922 1.9502H15.2988ZM4.69922 3.4502C4.00886 3.4502 3.44922 4.00984 3.44922 4.7002V15.2998C3.44922 15.9902 4.00886 16.5498 4.69922 16.5498H15.2988C15.9892 16.5498 16.5488 15.9902 16.5488 15.2998V4.7002C16.5488 4.00984 15.9892 3.4502 15.2988 3.4502H4.69922Z" fill="#000000"/>
</svg>
