<svg xmlns="http://www.w3.org/2000/svg" width="20" height="20" viewBox="0 0 20 20" fill="none"><rect width="20" height="20" fill="none"/>
<path d="M10.5303 7.53027L8.81055 9.25H14.001V10.75H8.81055L10.5303 12.4697L9.46973 13.5303L5.93945 10L9.46973 6.46973L10.5303 7.53027Z" fill="#000000"/>
<path d="M10 2C14.4183 2 18 5.58172 18 10C18 14.4183 14.4183 18 10 18C5.58183 17.9999 2 14.4182 2 10C2 5.5818 5.58183 2.00013 10 2ZM10 3.5C6.41026 3.50013 3.5 6.41023 3.5 10C3.5 13.5898 6.41026 16.4999 10 16.5C13.5899 16.5 16.5 13.5899 16.5 10C16.5 6.41015 13.5899 3.5 10 3.5Z" fill="#000000"/>
</svg>
