<svg xmlns="http://www.w3.org/2000/svg" width="20" height="20" viewBox="0 0 20 20" fill="none"><rect width="20" height="20" fill="none"/>
<path d="M10.0664 10C10.8909 10 11.1321 10.5213 11.3408 11.1807L13.5 18H11.9023L11.417 16.3789H8.52539L8.00293 18H6.5L8.76562 11.1807C8.98534 10.5192 9.24169 10.0001 10.0664 10ZM8.96289 15.0098H10.999L10.0283 11.7773H9.99023L8.96289 15.0098Z" fill="#000000"/>
<path d="M10.5 2C13.2305 2 15.4723 4.08461 15.7246 6.74902C17.4853 7.35972 18.75 9.03141 18.75 11C18.75 13.4853 16.7353 15.5 14.25 15.5H14V14H14.25C15.9069 14 17.25 12.6569 17.25 11C17.25 9.34315 15.9069 8 14.25 8V7.25C14.25 5.17893 12.5711 3.5 10.5 3.5C8.42893 3.5 6.75 5.17893 6.75 7.25V7.75H5.875C4.14911 7.75 2.75 9.14911 2.75 10.875C2.75 12.6009 4.14911 14 5.875 14H6V15.5H5.875C3.32068 15.5 1.25 13.4293 1.25 10.875C1.25 8.50171 3.03765 6.54655 5.33984 6.28125C5.79444 3.84459 7.93151 2 10.5 2Z" fill="#000000"/>
</svg>
