<svg xmlns="http://www.w3.org/2000/svg" width="20" height="20" viewBox="0 0 20 20" fill="none"><rect width="20" height="20" fill="none"/>
<path d="M15.75 14.25H19V15.75H15.75V19H14.25V15.75H11V14.25H14.25V11H15.75V14.25Z" fill="#000000"/>
<path d="M14.2998 1.9502C15.8186 1.9502 17.0498 3.18141 17.0498 4.7002V9H15.5498V4.7002C15.5498 4.00984 14.9902 3.4502 14.2998 3.4502H5.7002C5.00984 3.4502 4.4502 4.00984 4.4502 4.7002V15.3008C4.45038 15.991 5.00995 16.5508 5.7002 16.5508H9V18.0508H5.7002C4.18153 18.0508 2.95038 16.8194 2.9502 15.3008V4.7002C2.9502 3.18141 4.18141 1.9502 5.7002 1.9502H14.2998Z" fill="#000000"/>
<path d="M7 13C7.55228 13 8 13.4477 8 14C8 14.5523 7.55228 15 7 15C6.44772 15 6 14.5523 6 14C6 13.4477 6.44772 13 7 13Z" fill="#000000"/>
<path d="M7 10C7.55228 10 8 10.4477 8 11C8 11.5523 7.55228 12 7 12C6.44772 12 6 11.5523 6 11C6 10.4477 6.44772 10 7 10Z" fill="#000000"/>
<path d="M10 10C10.5523 10 11 10.4477 11 11C11 11.5523 10.5523 12 10 12C9.44772 12 9 11.5523 9 11C9 10.4477 9.44772 10 10 10Z" fill="#000000"/>
<path d="M14 7H6V5H14V7Z" fill="#000000"/>
</svg>
