<svg xmlns="http://www.w3.org/2000/svg" width="20" height="20" viewBox="0 0 20 20" fill="none"><rect width="20" height="20" fill="none"/>
<path d="M10.0205 1.78711C10.273 1.78713 10.5222 1.79907 10.7676 1.82227C11.3318 1.87562 11.6996 2.28746 11.8096 2.71289C11.9159 3.12449 11.8057 3.61789 11.418 3.94629C10.5497 4.68151 10.001 5.77663 10.001 7.00098L10.0059 7.20703C10.1133 9.32033 11.8612 11.001 14.001 11.001L14.2695 10.9922C14.8918 10.9507 15.4734 10.7659 15.9854 10.4717C16.426 10.2184 16.9279 10.2826 17.2793 10.5234C17.6424 10.7725 17.9033 11.2586 17.7607 11.8066C16.866 15.2462 13.7423 17.7869 10.0205 17.7871C5.60223 17.7871 2.02051 14.2054 2.02051 9.78711C2.0208 5.36916 5.60232 1.78711 10.0205 1.78711ZM8.86426 3.89941C6.1041 4.43843 4.02073 6.86913 4.02051 9.78711C4.02051 13.1008 6.7068 15.7871 10.0205 15.7871L10.2803 15.7812C12.3493 15.6929 14.1466 14.556 15.1553 12.8877C14.7816 12.961 14.3958 13.0009 14.001 13.001C10.6873 13.001 8.00129 10.3143 8.00098 7.00098C8.00098 5.86602 8.3169 4.80448 8.86426 3.89941Z" fill="#000000"/>
</svg>
