<svg xmlns="http://www.w3.org/2000/svg" width="24" height="24" viewBox="0 0 24 24" fill="none"><rect width="24" height="24" fill="none"/>
<path d="M18.0651 13.9004C18.5165 13.9004 18.8221 14.0385 19.0407 14.2744C19.2537 14.5046 19.3757 14.8199 19.4841 15.1494L21.7712 22.0996H19.8991L19.3952 20.4785H16.5368L15.9929 22.0996H14.2194L16.6198 15.1475C16.734 14.8165 16.8635 14.5029 17.0817 14.2734C17.3054 14.0385 17.6139 13.9005 18.0651 13.9004ZM17.0573 18.9092H18.8981L18.0036 16.043L17.0573 18.9092Z" fill="#000000"/>
<path d="M11.9997 2C12.03 2.03014 15.0304 4.99953 20.9987 5C20.9988 6.24129 21.1683 9.02298 20.6608 12H18.6315C18.9845 10.1399 19.0312 8.32883 19.0222 6.89648C16.6311 6.64826 14.7381 5.98046 13.3552 5.28906C12.8273 5.02507 12.3755 4.75543 11.9987 4.50977C11.622 4.7553 11.1708 5.02527 10.6433 5.28906C9.26005 5.98048 7.36686 6.64847 4.97529 6.89648C4.96431 8.67242 5.0397 11.0308 5.67744 13.3428C6.52461 16.4135 8.26018 19.0547 11.9987 19.9521V21.999L11.5388 21.8994C2.03172 19.6272 2.999 7.95305 2.99873 5C8.95111 5 11.9522 2.04713 11.9997 2Z" fill="#000000"/>
</svg>
