<svg xmlns="http://www.w3.org/2000/svg" width="20" height="20" viewBox="0 0 20 20" fill="none"><rect width="20" height="20" fill="none"/>
<path d="M15.5 12.0498C17.4052 12.0499 18.9501 13.5948 18.9502 15.5C18.9501 17.4052 17.4052 18.9501 15.5 18.9502C13.5947 18.9502 12.0499 17.4053 12.0498 15.5C12.0499 13.5947 13.5947 12.0498 15.5 12.0498ZM15.5 13.5498C14.4231 13.5498 13.5499 14.4231 13.5498 15.5C13.5499 16.5769 14.4231 17.4502 15.5 17.4502C16.5768 17.4501 17.4501 16.5768 17.4502 15.5C17.4501 14.4232 16.5768 13.5499 15.5 13.5498Z" fill="#000000"/>
<path d="M14.75 2.5C16.2687 2.50011 17.5 3.73128 17.5 5.25V10H16V5.25C16 4.55971 15.4403 4.00011 14.75 4H5.25C4.55964 4 4 4.55964 4 5.25V14.75C4.00011 15.4403 4.55971 16 5.25 16H10V17.5H5.25C3.73128 17.5 2.50011 16.2687 2.5 14.75V5.25C2.5 3.73122 3.73122 2.5 5.25 2.5H14.75Z" fill="#000000"/>
<path d="M10 10.4492H6V8.94922H10V10.4492Z" fill="#000000"/>
<path d="M13 7.44922H6V5.94922H13V7.44922Z" fill="#000000"/>
</svg>
