<svg xmlns="http://www.w3.org/2000/svg" width="20" height="20" viewBox="0 0 20 20" fill="none"><rect width="20" height="20" fill="none"/>
<path d="M17.0498 11.25H19V12.75H15C14.5858 12.75 14.25 13.0858 14.25 13.5C14.25 13.9142 14.5858 14.25 15 14.25H17C18.2426 14.25 19.25 15.2574 19.25 16.5C19.25 17.726 18.2694 18.7206 17.0498 18.7471V20H15.5498V18.75H13V17.25H17C17.4142 17.25 17.75 16.9142 17.75 16.5C17.75 16.0858 17.4142 15.75 17 15.75H15C13.7574 15.75 12.75 14.7426 12.75 13.5C12.75 12.2574 13.7574 11.25 15 11.25H15.5498V10H17.0498V11.25Z" fill="#000000"/>
<path d="M11 2C12.6569 2 14 3.34315 14 5V6H15C16.3059 6 17.4141 6.83532 17.8262 8H16.1152C15.8406 7.69394 15.4436 7.5 15 7.5H5C4.17157 7.5 3.5 8.17157 3.5 9V15C3.5 15.8284 4.17157 16.5 5 16.5H11V18H5C3.34315 18 2 16.6569 2 15V9C2 7.34315 3.34315 6 5 6H6V5C6 3.34315 7.34315 2 9 2H11ZM9 3.5C8.17157 3.5 7.5 4.17157 7.5 5V6H12.5V5C12.5 4.17157 11.8284 3.5 11 3.5H9Z" fill="#000000"/>
</svg>
