<svg xmlns="http://www.w3.org/2000/svg" width="20" height="20" viewBox="0 0 20 20" fill="none"><rect width="20" height="20" fill="none"/>
<path d="M13 10.7505C13.6904 10.7505 14.25 11.3101 14.25 12.0005C14.2499 12.6907 13.6903 13.2505 13 13.2505C12.3097 13.2505 11.7501 12.6907 11.75 12.0005C11.75 11.3101 12.3096 10.7505 13 10.7505Z" fill="#000000"/>
<path d="M11.3643 2.76611C13.157 2.11728 15.0498 3.44539 15.0498 5.35205V5.95068H15.2998C16.8186 5.95068 18.0498 7.1819 18.0498 8.70068V15.3003C18.0495 16.8188 16.8184 18.0503 15.2998 18.0503H4.7002C3.18158 18.0503 1.95046 16.8188 1.9502 15.3003V8.10302C1.95035 6.94558 2.67547 5.91233 3.76367 5.51806L11.3643 2.76611ZM4.7002 7.45068C4.00984 7.45068 3.4502 8.01032 3.4502 8.70068V15.3003C3.45046 15.9904 4.01 16.5503 4.7002 16.5503H15.2998C15.99 16.5503 16.5495 15.9904 16.5498 15.3003V8.70068C16.5498 8.01032 15.9902 7.45068 15.2998 7.45068H4.7002ZM13.5498 5.35205C13.5498 4.48532 12.689 3.88119 11.874 4.17627L6.97363 5.95068H13.5498V5.35205Z" fill="#000000"/>
</svg>
