<svg xmlns="http://www.w3.org/2000/svg" width="20" height="20" viewBox="0 0 20 20" fill="none"><rect width="20" height="20" fill="none"/>
<path d="M16 18H4V16H16V18Z" fill="#000000"/>
<path d="M10 2C12.2091 2.00003 14 3.7909 14 6V6.63965L13.9619 6.77441L13.3262 9H14C16.2091 9.00003 17.9999 10.7909 18 13V15H2V13C2.00015 10.7911 3.7909 9.00006 6 9H6.6748L6.03906 6.77441L6 6.63965V6C6.00002 3.79091 7.79092 2.00006 10 2ZM10 4C8.89549 4.00006 8.00002 4.89548 8 6V6.3584L8.96191 9.72559C9.04795 10.0272 8.98671 10.3521 8.79785 10.6025C8.60889 10.8528 8.31358 11 8 11H6C4.89568 11.0001 4.00015 11.8955 4 13H16C16 11.8955 15.1045 11 14 11H12C11.6862 11 11.3901 10.8531 11.2012 10.6025C11.0123 10.3521 10.952 10.0272 11.0381 9.72559L12 6.36133V6C12 4.89546 11.1045 4.00003 10 4Z" fill="#000000"/>
</svg>
