<svg xmlns="http://www.w3.org/2000/svg" width="20" height="20" viewBox="0 0 20 20" fill="none"><rect width="20" height="20" fill="none"/>
<path d="M10 6C11.6569 6 13 7.34315 13 9C13 10.6569 11.6569 12 10 12C8.34315 12 7 10.6569 7 9C7 7.34315 8.34315 6 10 6ZM10 8C9.44772 8 9 8.44772 9 9C9 9.55228 9.44772 10 10 10C10.5523 10 11 9.55228 11 9C11 8.44772 10.5523 8 10 8Z" fill="#000000"/>
<path d="M10 2C14 2 17 5.5 17 9C17 14.1475 11.8478 17.087 10.3838 17.8184L10.29 17.8584C10.0696 17.9386 9.83039 17.9253 9.61621 17.8184C8.15216 17.087 3 14.1475 3 9C3 5.5 6 2 10 2ZM10 4C7.1954 4 5 6.51149 5 9C5 10.8556 5.91973 12.3984 7.17285 13.6504C8.16074 14.6373 9.26366 15.3443 10 15.7568C10.7363 15.3443 11.8393 14.6373 12.8271 13.6504C14.0803 12.3984 15 10.8556 15 9C15 6.51149 12.8046 4 10 4Z" fill="#000000"/>
</svg>
