<svg xmlns="http://www.w3.org/2000/svg" width="20" height="20" viewBox="0 0 20 20" fill="none"><rect width="20" height="20" fill="none"/>
<path d="M16 10C17.5188 10 18.75 11.2312 18.75 12.75V14.0732C19.4728 14.2884 20 14.9573 20 15.75V18.25C20 19.2165 19.2165 20 18.25 20H13.75C12.7835 20 12 19.2165 12 18.25V15.75C12 14.9573 12.5272 14.2884 13.25 14.0732V12.75C13.25 11.2312 14.4812 10 16 10ZM13.75 15.5C13.6119 15.5 13.5 15.6119 13.5 15.75V18.25C13.5 18.3881 13.6119 18.5 13.75 18.5H18.25C18.3881 18.5 18.5 18.3881 18.5 18.25V15.75C18.5 15.6119 18.3881 15.5 18.25 15.5H13.75ZM16 11.5C15.3096 11.5 14.75 12.0596 14.75 12.75V14H17.25V12.75C17.25 12.0596 16.6904 11.5 16 11.5Z" fill="#000000"/>
<path d="M14.75 2.5C16.2687 2.50011 17.5 3.73128 17.5 5.25V8H16V5.25C16 4.55971 15.4403 4.00011 14.75 4H5.25C4.55964 4 4 4.55964 4 5.25V14.75C4.00011 15.4403 4.55971 16 5.25 16H10V17.5H5.25C3.73128 17.5 2.50011 16.2687 2.5 14.75V5.25C2.5 3.73122 3.73122 2.5 5.25 2.5H14.75Z" fill="#000000"/>
<path d="M10 10.4492H6V8.94922H10V10.4492Z" fill="#000000"/>
<path d="M13 7.44922H6V5.94922H13V7.44922Z" fill="#000000"/>
</svg>
