<svg xmlns="http://www.w3.org/2000/svg" width="20" height="20" viewBox="0 0 20 20" fill="none"><rect width="20" height="20" fill="none"/>
<path d="M18.707 17.293L17.293 18.707L14.5859 16H2V4H2.58594L1.29297 2.70703L2.70703 1.29297L18.707 17.293ZM4 12L6 14H12.5859L10.5166 11.9307C10.3517 11.9748 10.1789 12 10 12C8.89543 12 8 11.1046 8 10C8 9.82092 8.02419 9.64754 8.06836 9.48242L4.58594 6H4V12Z" fill="#000000"/>
<path d="M18 14.0859L16 12.0859V8L14 6H9.91406L7.91406 4H18V14.0859Z" fill="#000000"/>
</svg>
