<svg xmlns="http://www.w3.org/2000/svg" width="20" height="20" viewBox="0 0 20 20" fill="none"><rect width="20" height="20" fill="none"/>
<path d="M12.5 2.25C14.0449 2.25 15.3156 3.41794 15.4805 4.91895C16.2398 5.37283 16.7498 6.20054 16.75 7.14941C16.75 8.21589 16.1072 9.13103 15.1885 9.53223L14.2441 17.0928C14.1972 17.4681 13.8782 17.75 13.5 17.75H6.5C6.12176 17.75 5.80277 17.4681 5.75586 17.0928L4.81055 9.53223C3.89229 9.13084 3.25 8.21557 3.25 7.14941C3.25021 6.20725 3.7525 5.38368 4.50293 4.92773C4.54127 3.44238 5.7554 2.25 7.25 2.25H12.5ZM7.16211 16.25H12.8379L13.6504 9.75H6.34961L7.16211 16.25ZM7.25 3.75C6.5616 3.75 6.00316 4.30648 6 4.99414V6.0498H5.84961C5.24247 6.05002 4.75032 6.5423 4.75 7.14941C4.75 7.7568 5.24228 8.24979 5.84961 8.25H14.1504C14.7577 8.24979 15.25 7.7568 15.25 7.14941C15.2497 6.5423 14.7575 6.05002 14.1504 6.0498H14V5.25C14 4.42157 13.3284 3.75 12.5 3.75H7.25Z" fill="#000000"/>
</svg>
