<svg xmlns="http://www.w3.org/2000/svg" width="24" height="24" viewBox="0 0 24 24" fill="none"><rect width="24" height="24" fill="none"/>
<path d="M8 3.5C9.57642 3.5 10.9972 4.16393 12 5.22656C13.0028 4.16393 14.4236 3.5 16 3.5H21V6.5H16C14.6193 6.5 13.5 7.61929 13.5 9V14H15C15.1801 14 15.3468 14.0972 15.4355 14.2539C15.524 14.4105 15.5211 14.6025 15.4287 14.7568L12.4287 19.7568L12.3916 19.8105C12.2975 19.9292 12.1538 20 12 20C11.8244 20 11.6617 19.9074 11.5713 19.7568L8.57129 14.7568C8.47886 14.6025 8.47598 14.4105 8.56445 14.2539C8.65321 14.0972 8.81986 14 9 14H10.5V9C10.5 7.61929 9.38071 6.5 8 6.5H3V3.5H8Z" fill="#000000"/>
</svg>
