<svg xmlns="http://www.w3.org/2000/svg" width="20" height="20" viewBox="0 0 20 20" fill="none"><rect width="20" height="20" fill="none"/>
<path d="M16.5 15C16.7761 15 17 15.2239 17 15.5V18H17.5V19L15 18.999V17.999H15.5V15.999H15V14.999L16.5 15Z" fill="#000000"/>
<path d="M8.69922 1.9502C10.2179 1.9503 11.4492 3.18148 11.4492 4.7002V5.9502H13.2988C14.8176 5.9502 16.0488 7.18141 16.0488 8.7002V10H14.5488V8.7002C14.5488 8.00984 13.9892 7.4502 13.2988 7.4502H9.94922V4.7002C9.94922 4.00991 9.38948 3.4503 8.69922 3.4502H5.44922V16.5498H13V18.0498H3.94922V1.9502H8.69922Z" fill="#000000"/>
<path d="M16.25 12C16.8023 12 17.25 12.4477 17.25 13C17.25 13.5523 16.8023 14 16.25 14C15.6977 14 15.25 13.5523 15.25 13C15.25 12.4477 15.6977 12 16.25 12Z" fill="#000000"/>
</svg>
