<svg xmlns="http://www.w3.org/2000/svg" width="20" height="20" viewBox="0 0 20 20" fill="none"><rect width="20" height="20" fill="none"/>
<path d="M12.4619 3.44414C13.5351 1.97653 15.6644 1.81195 16.9502 3.09746C18.1791 4.32678 18.0919 6.34577 16.7607 7.46367L9.9082 13.2156C9.96732 13.4697 9.99997 13.7325 10 13.9998C9.99979 15.858 8.49986 17.4998 6.5 17.4998C4.50009 17.4998 2.50005 16.0006 1.5 13.5008C4.49986 14.5006 3.50004 10.4998 6.5 10.4998C6.75733 10.4998 7.00647 10.5266 7.24512 10.5779L11.5 4.75957V4.75078H11.5059L12.4619 3.44414ZM6.5 11.9998C6.1418 11.9998 6.01235 12.0971 5.91309 12.1922C5.73112 12.3667 5.59507 12.6072 5.30273 13.1189C5.08139 13.5064 4.67607 14.2328 3.95996 14.698C4.75074 15.5812 5.69317 15.9998 6.5 15.9998C7.6324 15.9998 8.49979 15.0691 8.5 13.9998C8.49978 12.9301 7.63201 11.9998 6.5 11.9998ZM8.63086 11.2234C8.85657 11.3981 9.05917 11.5999 9.23535 11.8221L13.707 8.06816C13.55 7.26016 12.9608 6.60629 12.1885 6.3582L8.63086 11.2234ZM15.8896 4.15801C15.2547 3.52318 14.2031 3.60443 13.6729 4.32891L13.1016 5.10918C13.9274 5.4999 14.5885 6.18294 14.9492 7.02519L15.7959 6.31523C16.4534 5.76313 16.4965 4.76526 15.8896 4.15801Z" fill="#000000"/>
</svg>
