<svg xmlns="http://www.w3.org/2000/svg" width="24" height="24" viewBox="0 0 24 24" fill="none"><rect width="24" height="24" fill="none"/>
<path d="M18.2578 15.0625C18.4167 14.9746 18.6106 14.98 18.7646 15.0762L22.7646 17.5762C22.9108 17.6675 23 17.8277 23 18C23 18.1723 22.9108 18.3325 22.7646 18.4238L18.7646 20.9238C18.6106 21.02 18.4167 21.0254 18.2578 20.9375C18.0989 20.8494 18 20.6817 18 20.5V19C16.8955 19 16.0001 19.8955 16 21V23H14V21C14.0001 18.7909 15.7909 17 18 17V15.5L18.0049 15.4326C18.026 15.2777 18.1188 15.1396 18.2578 15.0625Z" fill="#000000"/>
<path d="M18 4C20.2089 4 22 5.79066 22 8V13H20V11H4V16C4 17.1046 4.89543 18 6 18H12V20H6C3.79086 20 2 18.2091 2 16V8C2 5.79086 3.79086 4 6 4H18ZM6 6C4.89543 6 4 6.89543 4 8V9H20V8C20 6.89563 19.1048 6 18 6H6Z" fill="#000000"/>
<path d="M11 16H6V14H11V16Z" fill="#000000"/>
</svg>
