<svg xmlns="http://www.w3.org/2000/svg" width="20" height="20" viewBox="0 0 20 20" fill="none"><rect width="20" height="20" fill="none"/>
<path d="M13.0605 10L9.03027 14.0303L7.96973 12.9697L10.9395 10L7.96973 7.03027L9.03027 5.96973L13.0605 10Z" fill="#000000"/>
<path d="M10 2C14.4182 2.00013 18 5.5818 18 10C18 14.4182 14.4182 17.9999 10 18C5.58172 18 2 14.4183 2 10C2 5.58172 5.58172 2 10 2ZM10 3.5C6.41015 3.5 3.5 6.41015 3.5 10C3.5 13.5899 6.41015 16.5 10 16.5C13.5897 16.4999 16.5 13.5898 16.5 10C16.5 6.41023 13.5897 3.50013 10 3.5Z" fill="#000000"/>
</svg>
