<svg xmlns="http://www.w3.org/2000/svg" width="20" height="20" viewBox="0 0 20 20" fill="none"><rect width="20" height="20" fill="none"/>
<path d="M6.74998 12.5H7.99998C8.17822 12.5 8.34314 12.5949 8.4326 12.749C8.52199 12.9031 8.52285 13.0934 8.43456 13.248L6.43456 16.748C6.34553 16.9038 6.17941 17 5.99998 17C5.82056 17 5.65444 16.9038 5.56541 16.748L3.56541 13.248C3.47712 13.0934 3.47798 12.9031 3.56737 12.749C3.65683 12.5949 3.82175 12.5 3.99998 12.5H5.24998V3.99902H6.74998V12.5Z" fill="#000000"/>
<path d="M14 3C14.1794 3 14.3455 3.09617 14.4346 3.25195L16.4346 6.75195C16.5229 6.90665 16.522 7.0969 16.4326 7.25098C16.3431 7.40513 16.1782 7.5 16 7.5H14.75V16H13.25V7.5H12C11.8218 7.5 11.6568 7.40513 11.5674 7.25098C11.478 7.0969 11.4771 6.90665 11.5654 6.75195L13.5654 3.25195C13.6544 3.09617 13.8206 3 14 3Z" fill="#000000"/>
</svg>
