<svg xmlns="http://www.w3.org/2000/svg" width="20" height="20" viewBox="0 0 20 20" fill="none"><rect width="20" height="20" fill="none"/>
<path d="M18.5303 13.5303L13.5 18.5605L10.4697 15.5303L11.5303 14.4697L13.5 16.4395L17.4697 12.4697L18.5303 13.5303Z" fill="#000000"/>
<path d="M16.75 11H15.25V3.75H4.75V16.2861L6.66504 15.3291L7 15.1611L7.33496 15.3291L9 16.1611V17.8379L7 16.8379L4.33496 18.1709C4.10255 18.2869 3.82646 18.2743 3.60547 18.1377C3.38453 18.001 3.25 17.7598 3.25 17.5V2.25H16.75V11Z" fill="#000000"/>
<path d="M11 10.75H7V9.25H11V10.75Z" fill="#000000"/>
<path d="M13 7.75H7V6.25H13V7.75Z" fill="#000000"/>
</svg>
