<svg xmlns="http://www.w3.org/2000/svg" width="24" height="24" viewBox="0 0 24 24" fill="none"><rect width="24" height="24" fill="none"/>
<path d="M18.0649 13.8995C18.516 13.8996 18.821 14.0388 19.0395 14.2745C19.2525 14.5046 19.3755 14.8192 19.4839 15.1486L21.77 22.0997H19.8979L19.394 20.4786H16.5356L15.9927 22.0997H14.2192L16.6187 15.1476C16.7329 14.8165 16.8622 14.5021 17.0806 14.2726C17.3043 14.0376 17.6136 13.8996 18.0649 13.8995ZM17.0571 18.9093H18.897L18.0034 16.0421L17.0571 18.9093Z" fill="#000000"/>
<path d="M11.6528 2.00599C13.4444 1.94389 15.2202 2.36539 16.7935 3.22474C18.3668 4.08435 19.6814 5.3514 20.5972 6.89271C21.5127 8.434 21.997 10.1938 21.9995 11.9865L19.9995 11.9894C19.9975 10.5552 19.6099 9.14727 18.8774 7.9142C18.1449 6.68133 17.0939 5.66729 15.8354 4.97963C14.5768 4.29214 13.1554 3.95534 11.7222 4.00502C10.2887 4.05488 8.89403 4.48951 7.68603 5.26283C6.47813 6.03623 5.50024 7.12055 4.85498 8.4015C4.20986 9.68233 3.92061 11.1133 4.01806 12.5441C4.11571 13.975 4.59656 15.3548 5.40967 16.5363C6.22285 17.7175 7.33956 18.6587 8.64111 19.2609L7.80127 21.0763C6.1742 20.3236 4.77872 19.1467 3.76221 17.6701C2.74581 16.1932 2.14503 14.4694 2.02295 12.6808C1.90099 10.892 2.26224 9.10241 3.06885 7.50111C3.87548 5.89993 5.09796 4.54496 6.60791 3.57826C8.11794 2.61159 9.86098 2.0683 11.6528 2.00599Z" fill="#000000"/>
<path d="M10.4858 6.19447C11.4211 5.95066 12.4022 5.93594 13.3442 6.15248C14.2862 6.36918 15.1631 6.81072 15.8979 7.43861L14.5981 8.95912C14.1083 8.54066 13.5238 8.24615 12.896 8.1017C12.2682 7.95741 11.6141 7.96663 10.9907 8.12904C10.3671 8.29167 9.79154 8.60358 9.31396 9.03627C8.83644 9.46898 8.46973 10.0108 8.24658 10.6154C8.02357 11.2198 7.94985 11.8699 8.03174 12.5089C8.11372 13.1479 8.34902 13.7586 8.71728 14.2872C9.08568 14.8158 9.57783 15.2478 10.1489 15.546C10.72 15.844 11.3553 16.0001 11.9995 16.0001V18.0001C11.033 18.0001 10.08 17.7666 9.22314 17.3195C8.36639 16.8721 7.6293 16.2237 7.07666 15.4308C6.52409 14.6377 6.17131 13.7216 6.04834 12.7628C5.92553 11.8042 6.03604 10.8297 6.3706 9.92299C6.70537 9.01603 7.25476 8.20297 7.97119 7.55384C8.68758 6.9048 9.55045 6.43841 10.4858 6.19447Z" fill="#000000"/>
<path d="M11.9995 12.0001H13.9995C13.9995 12.3956 13.8823 12.7826 13.6626 13.1115C13.4429 13.4402 13.1304 13.6964 12.7651 13.8478C12.3999 13.999 11.9966 14.0391 11.6089 13.962C11.2214 13.8848 10.8649 13.6936 10.5854 13.4142C10.3061 13.1347 10.1148 12.7783 10.0376 12.3908C9.96053 12.0029 10.0006 11.5998 10.1519 11.2345C10.3032 10.8693 10.5595 10.5567 10.8882 10.337C11.2169 10.1174 11.6041 10.0002 11.9995 10.0001V12.0001Z" fill="#000000"/>
</svg>
