<svg xmlns="http://www.w3.org/2000/svg" width="20" height="20" viewBox="0 0 20 20" fill="none"><rect width="20" height="20" fill="none"/>
<path d="M10.0322 5.59961C10.8889 5.59961 11.1396 6.12096 11.3564 6.78027L13.5996 13.5996H11.9395L11.4355 11.9785H8.43164L7.88867 13.5996H6.32715L8.68164 6.78027C8.9099 6.11888 9.1756 5.59977 10.0322 5.59961ZM8.88672 10.6094H11.001L9.99316 7.37695H9.95312L8.88672 10.6094Z" fill="#000000"/>
<path d="M10 1.7002C14.5839 1.7002 18.2997 5.41613 18.2998 10C18.2998 14.584 14.584 18.2998 10 18.2998C5.41613 18.2997 1.7002 14.5839 1.7002 10C1.7003 5.41619 5.41619 1.7003 10 1.7002ZM10 3.2002C6.24462 3.2003 3.2003 6.24462 3.2002 10C3.2002 13.7555 6.24455 16.7997 10 16.7998C13.7555 16.7998 16.7998 13.7555 16.7998 10C16.7997 6.24455 13.7555 3.2002 10 3.2002Z" fill="#000000"/>
</svg>
