<svg xmlns="http://www.w3.org/2000/svg" width="20" height="20" viewBox="0 0 20 20" fill="none"><rect width="20" height="20" fill="none"/>
<path d="M13.707 8.70692L9.5 12.914L6.79297 10.2069L8.20703 8.79286L9.5 10.0858L12.293 7.29286L13.707 8.70692Z" fill="#000000"/>
<path d="M8.50098 2.20985C9.42859 1.67484 10.5714 1.67484 11.499 2.20985L15.999 4.80653C16.9276 5.34231 17.5 6.33308 17.5 7.40516V12.5946C17.4999 13.6667 16.9276 14.6575 15.999 15.1932L11.499 17.7899C10.5714 18.3249 9.42855 18.3249 8.50098 17.7899L4.00098 15.1932C3.07238 14.6575 2.50008 13.6667 2.5 12.5946V7.40516C2.50002 6.33308 3.07237 5.34231 4.00098 4.80653L8.50098 2.20985ZM10.5 3.94227C10.1907 3.76387 9.80925 3.76387 9.5 3.94227L5 6.53895C4.69066 6.71758 4.50002 7.04794 4.5 7.40516V12.5946C4.50008 12.9518 4.69067 13.2822 5 13.4608L9.5 16.0575C9.80921 16.2359 10.1908 16.2359 10.5 16.0575L15 13.4608C15.3093 13.2822 15.4999 12.9518 15.5 12.5946V7.40516C15.5 7.04794 15.3093 6.71758 15 6.53895L10.5 3.94227Z" fill="#000000"/>
</svg>
