<svg xmlns="http://www.w3.org/2000/svg" width="24" height="24" viewBox="0 0 24 24" fill="none"><rect width="24" height="24" fill="none"/>
<path d="M15 4.41504L20.6152 2.07617C20.9238 1.94765 21.2765 1.98164 21.5547 2.16699C21.8328 2.3524 21.9999 2.66479 22 2.99902V19.166L15 22.082L9 19.582L3.38477 21.9219C3.07613 22.0505 2.72351 22.0165 2.44531 21.8311C2.1672 21.6456 2 21.3333 2 20.999V4.83203L9 1.91602L15 4.41504ZM4 6.16504V19.499L8 17.832V4.49805L4 6.16504ZM10 17.832L14 19.498V6.16504L10 4.49805V17.832ZM16 6.16504V19.498L20 17.832V4.49805L16 6.16504Z" fill="#000000"/>
</svg>
