<svg xmlns="http://www.w3.org/2000/svg" width="20" height="20" viewBox="0 0 20 20" fill="none"><rect width="20" height="20" fill="none"/>
<path d="M7.68359 11C9.63337 11 11.1294 11.4656 12.0752 12.6504C12.9743 13.7769 13.1836 15.3331 13.1836 17H11.1836C11.1836 15.3992 10.956 14.455 10.5117 13.8984C10.1141 13.4004 9.35987 13 7.68359 13C6.00739 13 5.25314 13.4003 4.85547 13.8984C4.41116 14.455 4.18359 15.3993 4.18359 17H2.18359C2.18359 15.333 2.39278 13.7769 3.29199 12.6504C4.23782 11.4656 5.73383 11 7.68359 11Z" fill="#000000"/>
<path d="M14.1221 12C15.6483 12 16.7387 12.6334 17.3838 13.6973C17.9753 14.6729 18.1221 15.8975 18.1221 17H16.1221C16.1221 16.0115 15.9777 15.2359 15.6738 14.7344C15.4233 14.3213 15.0132 14 14.1221 14C14.0804 14 14.0396 14.0015 14 14.0029V12.0029C14.0403 12.002 14.0811 12 14.1221 12Z" fill="#000000"/>
<path d="M14 7C15.1046 7 16 7.89543 16 9C16 10.1046 15.1046 11 14 11C12.8954 11 12 10.1046 12 9C12 7.89543 12.8954 7 14 7Z" fill="#000000"/>
<path d="M7.5 3C9.433 3 11 4.567 11 6.5C11 8.433 9.433 10 7.5 10C5.567 10 4 8.433 4 6.5C4 4.567 5.567 3 7.5 3ZM7.5 5C6.67157 5 6 5.67157 6 6.5C6 7.32843 6.67157 8 7.5 8C8.32843 8 9 7.32843 9 6.5C9 5.67157 8.32843 5 7.5 5Z" fill="#000000"/>
</svg>
