<svg xmlns="http://www.w3.org/2000/svg" width="20" height="20" viewBox="0 0 20 20" fill="none"><rect width="20" height="20" fill="none"/>
<path d="M4.33691 4.4999C5.88847 4.4999 7.331 5.29942 8.15332 6.61513L11.3906 11.7948C11.6647 12.2333 12.146 12.4999 12.6631 12.4999H13V11.4999C13 11.3182 13.0989 11.1505 13.2578 11.0624C13.4167 10.9745 13.6106 10.9799 13.7646 11.0761L17.7646 13.5761C17.9108 13.6674 18 13.8275 18 13.9999C17.9999 14.1722 17.9108 14.3324 17.7646 14.4237L13.7646 16.9237C13.6107 17.0198 13.4166 17.0253 13.2578 16.9374C13.0989 16.8493 13.0001 16.6816 13 16.4999V15.4999H12.6631C11.1116 15.4999 9.66902 14.7003 8.84668 13.3847L8.5 12.83L8.15332 13.3847C7.33098 14.7003 5.88841 15.4999 4.33691 15.4999H3V12.4999H4.33691C4.85404 12.4999 5.33525 12.2333 5.60938 11.7948L6.73047 9.99892L5.60938 8.20498C5.33527 7.76641 4.8541 7.4999 4.33691 7.4999H3V4.4999H4.33691Z" fill="#000000"/>
<path d="M13.2578 3.0624C13.4167 2.97445 13.6106 2.97989 13.7646 3.07607L17.7646 5.57607C17.9108 5.66745 18 5.82754 18 5.9999C17.9999 6.17222 17.9108 6.33239 17.7646 6.42373L13.7646 8.92373C13.6107 9.01984 13.4166 9.02528 13.2578 8.9374C13.0989 8.84932 13.0001 8.68158 13 8.4999V7.4999H12.6631C12.1459 7.4999 11.6647 7.76641 11.3906 8.20498L11.2842 8.3749L9.60938 5.69521C10.4305 4.93671 11.5168 4.4999 12.6631 4.4999H13V3.4999C13 3.31817 13.0989 3.15052 13.2578 3.0624Z" fill="#000000"/>
</svg>
