<svg xmlns="http://www.w3.org/2000/svg" width="20" height="20" viewBox="0 0 20 20" fill="none"><rect width="20" height="20" fill="none"/>
<path d="M18.5303 17.4688L17.4697 18.5293L14.9785 16.0381L14.9971 16.1357C15.1659 17.0635 14.1198 17.7272 13.3525 17.1787L9.99902 14.7783L6.64551 17.1787C5.87828 17.7266 4.83318 17.0633 5.00195 16.1357L5.76855 11.9395L2.75293 9.51953C2.04579 8.95201 2.34232 7.81525 3.23633 7.66504L6.12207 7.18164L1.46973 2.5293L2.53027 1.46875L18.5303 17.4688ZM4.47461 8.97754L6.82422 10.8633C7.18185 11.1507 7.35393 11.6111 7.27148 12.0625L6.67676 15.3105L9.27148 13.4551L9.35547 13.4004C9.75139 13.1623 10.2477 13.1622 10.6436 13.4004L10.7266 13.4551L13.3213 15.3115L13.1123 14.1719L7.4248 8.48438L4.47461 8.97754Z" fill="#000000"/>
<path d="M9.12891 3.11328C9.5385 2.49914 10.4595 2.49928 10.8691 3.11328L10.9492 3.25488L12.709 6.98633L16.7617 7.66504C17.6561 7.81496 17.9534 8.95193 17.2461 9.51953L14.6562 11.5947L13.5908 10.5293L15.5234 8.97852L12.333 8.44434C11.9295 8.37657 11.584 8.115 11.4092 7.74512L9.99902 4.75684L9.2998 6.23828L8.17285 5.11133L9.0498 3.25488L9.12891 3.11328Z" fill="#000000"/>
</svg>
