<svg xmlns="http://www.w3.org/2000/svg" width="24" height="24" viewBox="0 0 24 24" fill="none"><rect width="24" height="24" fill="none"/>
<path d="M4 18C4 19.1046 4.89543 20 6 20H9V22H6C3.79086 22 2 20.2091 2 18V15H4V18Z" fill="#000000"/>
<path d="M22 18C22 20.2091 20.2091 22 18 22H15V20H18C19.1046 20 20 19.1046 20 18V15H22V18Z" fill="#000000"/>
<path d="M9 4H6C4.89543 4 4 4.89543 4 6V9H2V6C2 3.79086 3.79086 2 6 2H9V4Z" fill="#000000"/>
<path d="M18 2C20.2091 2 22 3.79086 22 6V9H20V6C20 4.89543 19.1046 4 18 4H15V2H18Z" fill="#000000"/>
</svg>
