<svg xmlns="http://www.w3.org/2000/svg" width="20" height="20" viewBox="0 0 20 20" fill="none"><rect width="20" height="20" fill="none"/>
<path d="M18.707 17.293L17.293 18.707L12.5 13.9141L8.70703 17.707C8.39553 18.0184 7.91674 18.0895 7.52832 17.8818C7.13991 17.6739 6.93315 17.2357 7.01953 16.8037L7.86914 12.5527L4.55273 10.8945C4.26531 10.7508 4.06418 10.4774 4.0127 10.1602C3.96125 9.84295 4.06577 9.52023 4.29297 9.29297L6.08594 7.5L1.29297 2.70703L2.70703 1.29297L18.707 17.293ZM6.6875 9.72559L9.44727 11.1055C9.85046 11.3072 10.0688 11.7542 9.98047 12.1963L9.62793 13.957L11.085 12.499L7.49902 8.91309L6.6875 9.72559Z" fill="#000000"/>
<path d="M11.293 2.29297C11.6045 1.9816 12.0833 1.9105 12.4717 2.11816C12.8601 2.32611 13.0668 2.76428 12.9805 3.19629L12.1299 7.44629L15.4473 9.10547C15.7347 9.24924 15.9358 9.52263 15.9873 9.83984C16.0388 10.157 15.9342 10.4798 15.707 10.707L15.1641 11.25L8.75 4.83594L11.293 2.29297Z" fill="#000000"/>
</svg>
