<svg xmlns="http://www.w3.org/2000/svg" width="24" height="24" viewBox="0 0 24 24" fill="none"><rect width="24" height="24" fill="none"/>
<path d="M16.5996 18.7998L12 22.25L7.40039 18.7998L8.59961 17.2002L12 19.75L15.4004 17.2002L16.5996 18.7998Z" fill="#000000"/>
<path d="M12 6.5C13.6569 6.5 15 7.84315 15 9.5C15 11.1569 13.6569 12.5 12 12.5C10.3431 12.5 9 11.1569 9 9.5C9 7.84315 10.3431 6.5 12 6.5ZM12 8.5C11.4477 8.5 11 8.94772 11 9.5C11 10.0523 11.4477 10.5 12 10.5C12.5523 10.5 13 10.0523 13 9.5C13 8.94772 12.5523 8.5 12 8.5Z" fill="#000000"/>
<path d="M22 16H2V3H22V16ZM4 11L7 14H20V8L17 5H4V11Z" fill="#000000"/>
</svg>
