<svg xmlns="http://www.w3.org/2000/svg" width="20" height="20" viewBox="0 0 20 20" fill="none"><rect width="20" height="20" fill="none"/>
<path d="M18.5303 17.4688L17.4697 18.5293L12.5 13.5596L8.53027 17.5303C8.29667 17.7638 7.93779 17.8168 7.64648 17.6611C7.3552 17.5052 7.19992 17.1765 7.26465 16.8525L8.15137 12.4141L4.66504 10.6709C4.44951 10.5631 4.29843 10.358 4.25977 10.1201C4.22123 9.88224 4.29934 9.64015 4.46973 9.46973L6.43945 7.49902L1.46973 2.5293L2.53027 1.46875L18.5303 17.4688ZM6.26562 9.79395L9.33496 11.3291C9.63733 11.4804 9.80157 11.8159 9.73535 12.1475L9.2207 14.7178L11.4395 12.499L7.5 8.55957L6.26562 9.79395Z" fill="#000000"/>
<path d="M11.4697 2.46973C11.7033 2.2362 12.0622 2.18316 12.3535 2.33887C12.6448 2.49481 12.8001 2.82349 12.7354 3.14746L11.8477 7.58496L15.335 9.3291C15.5505 9.4369 15.7016 9.64205 15.7402 9.87988C15.7788 10.1177 15.7006 10.3599 15.5303 10.5303L14.5605 11.499L13.5 10.4385L13.7334 10.2051L12.7998 9.73828L10.3721 7.31055L10.7783 5.28125L9.56055 6.49902L8.5 5.43848L11.4697 2.46973Z" fill="#000000"/>
</svg>
