<svg xmlns="http://www.w3.org/2000/svg" width="24" height="24" viewBox="0 0 24 24" fill="none"><rect width="24" height="24" fill="none"/>
<path d="M18 2C19.6553 2 21 3.33966 21 4.99805V11.001C21 12.6588 19.6559 14 18 14H14.2178L13.1621 15.7812L13.6064 16.5303C14.2365 15.6065 15.2974 15 16.5 15C18.433 15 20 16.567 20 18.5C20 20.433 18.433 22 16.5 22C15.1007 22 13.8931 21.1789 13.333 19.9922L12 17.7422L10.667 19.9922C10.1069 21.1789 8.89929 22 7.5 22C5.567 22 4 20.433 4 18.5C4 16.567 5.567 15 7.5 15C8.70236 15 9.76247 15.6067 10.3926 16.5303L10.8369 15.7803L6.65918 8.73047C6.09606 7.7802 6.41005 6.5533 7.36035 5.99023L10.9219 12H18C18.5532 12 19 11.5523 19 11.001V8H12.1973V6H19V4.99805C19 4.4473 18.5538 4 18 4H6C5.44772 4 5 4.44772 5 5V11C5 11.5523 5.44772 12 6 12H6.29395V14H6C4.34315 14 3 12.6569 3 11V5C3 3.34315 4.34315 2 6 2H18ZM7.5 17C6.67157 17 6 17.6716 6 18.5C6 19.3284 6.67157 20 7.5 20C8.32843 20 9 19.3284 9 18.5C9 17.6716 8.32843 17 7.5 17ZM16.5 17C15.6716 17 15 17.6716 15 18.5C15 19.3284 15.6716 20 16.5 20C17.3284 20 18 19.3284 18 18.5C18 17.6716 17.3284 17 16.5 17Z" fill="#000000"/>
</svg>
