<svg xmlns="http://www.w3.org/2000/svg" width="20" height="20" viewBox="0 0 20 20" fill="none"><rect width="20" height="20" fill="none"/>
<path d="M11.2998 10.9492C12.2663 10.9492 13.0498 11.7327 13.0498 12.6992V16.2988C13.0498 17.2653 12.2663 18.0488 11.2998 18.0488H3.7002C2.7337 18.0488 1.9502 17.2653 1.9502 16.2988V12.6992C1.9502 11.7327 2.7337 10.9492 3.7002 10.9492H11.2998ZM3.7002 12.4492C3.56212 12.4492 3.4502 12.5611 3.4502 12.6992V16.2988C3.4502 16.4369 3.56212 16.5488 3.7002 16.5488H11.2998C11.4379 16.5488 11.5498 16.4369 11.5498 16.2988V12.6992C11.5498 12.5611 11.4379 12.4492 11.2998 12.4492H3.7002Z" fill="#000000"/>
<path d="M16.2998 1.94922C17.2663 1.94922 18.0498 2.73272 18.0498 3.69922V7.29883C18.0498 8.26533 17.2663 9.04883 16.2998 9.04883H3.7002C2.7337 9.04883 1.9502 8.26533 1.9502 7.29883V3.69922C1.9502 2.73272 2.7337 1.94922 3.7002 1.94922H16.2998ZM3.7002 3.44922C3.56213 3.44922 3.4502 3.56115 3.4502 3.69922V7.29883C3.4502 7.4369 3.56212 7.54883 3.7002 7.54883H16.2998C16.4379 7.54883 16.5498 7.4369 16.5498 7.29883V3.69922C16.5498 3.56115 16.4379 3.44922 16.2998 3.44922H3.7002Z" fill="#000000"/>
</svg>
