<svg xmlns="http://www.w3.org/2000/svg" width="20" height="20" viewBox="0 0 20 20" fill="none"><rect width="20" height="20" fill="none"/>
<path d="M18.707 17.293L17.293 18.707L15.5361 16.9502C15.3621 16.9818 15.1832 17 15 17H5C3.34315 17 2 15.6569 2 14V6C2 5.27682 2.25723 4.61504 2.68359 4.09766L1.29297 2.70703L2.70703 1.29297L18.707 17.293ZM4.11719 5.53125C4.04276 5.67114 4 5.83049 4 6V14C4 14.5523 4.44772 15 5 15H13.5859L4.11719 5.53125Z" fill="#000000"/>
<path d="M15 3C16.6547 3 18 4.33811 18 5.99707V14.002C18 14.0291 17.9978 14.0561 17.9971 14.083L16 12.0859V9H12.9141L10.9141 7H16V5.99707C16 5.44689 15.5544 5 15 5H8.91406L6.91406 3H15Z" fill="#000000"/>
</svg>
