<svg xmlns="http://www.w3.org/2000/svg" width="24" height="24" viewBox="0 0 24 24" fill="none"><rect width="24" height="24" fill="none"/>
<path d="M19.1251 4H13.0001V6.12598C14.127 6.41601 15.0605 7.18537 15.5733 8.20312L15.8292 8.26953C16.4236 8.43493 16.9998 8.67564 17.543 8.98926C19.1336 9.9076 20.3218 11.3831 20.8819 13.123L20.9854 13.4746C21.4924 15.3669 21.2266 17.3835 20.2471 19.0801L20.1231 19.2871C19.4889 20.3072 18.6199 21.1497 17.5997 21.751C16.7079 22.2761 15.6698 21.7345 15.3077 20.7861L15.2442 20.5908L13.4083 13.7432C12.9701 13.9081 12.4959 14 12.0001 14C11.4687 14 10.962 13.8952 10.4981 13.707L10.0499 15.3867L8.65535 20.5908L8.59187 20.7861C8.22974 21.7346 7.19075 22.2763 6.29891 21.751C5.27872 21.1497 4.40968 20.3072 3.77547 19.2871L3.65144 19.0801C2.67207 17.3835 2.40622 15.3669 2.91316 13.4746L3.01668 13.123C3.57675 11.3831 4.76513 9.90761 6.35555 8.98926C7.01021 8.61134 7.71304 8.34067 8.43758 8.17871C8.95289 7.17275 9.88198 6.41375 11.0001 6.12598V4H5.12508V2H19.1251V4ZM8.01961 10.3975C7.79251 10.4895 7.57024 10.5968 7.35555 10.7207C6.11841 11.435 5.21566 12.6124 4.84578 13.9922C4.47611 15.3721 4.66963 16.8428 5.38387 18.0801C5.75225 18.7181 6.24451 19.2662 6.82332 19.6992L8.78426 12.3779C8.36822 11.8162 8.09506 11.1422 8.02059 10.4092L8.01961 10.3975ZM15.9542 10.6094C15.8475 11.3077 15.5584 11.9453 15.1397 12.4756L17.0753 19.6992C17.6541 19.2662 18.1463 18.7181 18.5147 18.0801C19.229 16.8428 19.4235 15.3722 19.0538 13.9922C18.6839 12.6122 17.7803 11.4351 16.543 10.7207C16.3589 10.6144 16.1692 10.5204 15.9757 10.4375L15.9542 10.6094ZM12.0001 8C10.8955 8 10.0001 8.89543 10.0001 10C10.0001 11.1046 10.8955 12 12.0001 12C13.1046 12 14.0001 11.1046 14.0001 10C14.0001 8.89543 13.1046 8 12.0001 8Z" fill="#000000"/>
</svg>
