<svg xmlns="http://www.w3.org/2000/svg" width="20" height="20" viewBox="0 0 20 20" fill="none"><rect width="20" height="20" fill="none"/>
<path d="M16.4901 2.546C16.7644 2.44517 17.0734 2.51319 17.2802 2.71982C17.4866 2.92648 17.5537 3.23469 17.453 3.50889L12.204 17.7589C12.1156 17.9988 11.9097 18.1776 11.66 18.2325C11.4104 18.2872 11.1494 18.2111 10.9686 18.0304L7.65418 14.7149L7.78016 14.2882L8.64149 11.3575L5.7118 12.2198L5.28407 12.3448L1.96961 9.03037C1.78884 8.84952 1.71262 8.58872 1.76746 8.33896C1.82247 8.08939 2.00127 7.88435 2.2411 7.796L16.4901 2.546ZM3.85828 8.79795L5.71473 10.6544L9.53797 9.53037C9.80107 9.45322 10.0862 9.52598 10.2802 9.71982C10.474 9.91378 10.5468 10.1989 10.4696 10.462L9.34461 14.2833L11.2001 16.1397L15.4833 4.51572L3.85828 8.79795Z" fill="#000000"/>
</svg>
