<svg xmlns="http://www.w3.org/2000/svg" width="20" height="20" viewBox="0 0 20 20" fill="none"><rect width="20" height="20" fill="none"/>
<path d="M15 6C16.6569 6 18 7.34315 18 9V15C18 16.6051 16.7394 17.9158 15.1543 17.9961L15 18H11V6H15ZM13 16H15C15.5523 16 16 15.5523 16 15V9C16 8.44772 15.5523 8 15 8H13V16Z" fill="#000000"/>
<path d="M9 14H5L4.8457 13.9961C3.26055 13.9158 2 12.6051 2 11V5C2 3.34315 3.34315 2 5 2H9V14ZM5 4C4.44772 4 4 4.44772 4 5V11C4 11.5523 4.44772 12 5 12H7V4H5Z" fill="#000000"/>
</svg>
