<svg xmlns="http://www.w3.org/2000/svg" width="20" height="20" viewBox="0 0 20 20" fill="none"><rect width="20" height="20" fill="none"/>
<path d="M19.207 12.207L12.207 19.207L10.793 17.793L17.793 10.793L19.207 12.207Z" fill="#000000"/>
<path d="M17.5 16C18.3284 16 19 16.6716 19 17.5C19 18.3284 18.3284 19 17.5 19C16.6716 19 16 18.3284 16 17.5C16 16.6716 16.6716 16 17.5 16Z" fill="#000000"/>
<path d="M17 6.96484V9H15V8.03516L10 4.70117L5 8.03516V15H9V17H3V6.96484L10 2.29785L17 6.96484Z" fill="#000000"/>
<path d="M12.5 11C13.3284 11 14 11.6716 14 12.5C14 13.3284 13.3284 14 12.5 14C11.6716 14 11 13.3284 11 12.5C11 11.6716 11.6716 11 12.5 11Z" fill="#000000"/>
</svg>
