<svg xmlns="http://www.w3.org/2000/svg" width="24" height="24" viewBox="0 0 24 24" fill="none"><rect width="24" height="24" fill="none"/>
<path d="M21.544 20.457L20.294 21.707L16.5919 18.0049C15.3486 18.6012 13.8602 18.9999 12.1007 19C8.49127 18.9999 5.97149 17.3339 4.38096 15.6973C3.58863 14.8819 3.02022 14.0678 2.64854 13.457C2.46228 13.1509 2.32391 12.8929 2.23057 12.708C2.18394 12.6156 2.14794 12.5408 2.12315 12.4873C2.11094 12.4609 2.10089 12.4397 2.09385 12.4238C2.09034 12.4159 2.08729 12.4084 2.08506 12.4033C2.08408 12.4011 2.08214 12.3975 2.08214 12.3975L2.08116 12.3945L3.0001 12L2.08116 11.6064L2.08214 11.6025C2.08214 11.6025 2.08408 11.5989 2.08506 11.5967C2.08729 11.5916 2.09034 11.5841 2.09385 11.5762C2.10089 11.5603 2.11094 11.5391 2.12315 11.5127C2.14794 11.4592 2.18394 11.3844 2.23057 11.292C2.32391 11.1071 2.46228 10.8491 2.64854 10.543C3.02022 9.93223 3.58863 9.11809 4.38096 8.30273C4.76867 7.90379 5.21257 7.50385 5.71299 7.12598L2.29405 3.70703L3.54405 2.45703L21.544 20.457ZM8.55479 9.96777C8.20276 10.5634 8.0001 11.258 8.0001 12C8.0001 14.209 9.79117 15.9998 12.0001 16C12.7419 16 13.4359 15.7962 14.0314 15.4443L12.5167 13.9297C12.352 13.9736 12.1796 14 12.0011 14C10.8966 13.9999 10.0011 13.1045 10.0011 12C10.0011 11.8212 10.0264 11.6484 10.0704 11.4834L8.55479 9.96777Z" fill="#000000"/>
<path d="M12.1007 5C15.7135 5.00015 18.1869 6.66957 19.7315 8.31543C20.4997 9.13396 21.043 9.95061 21.3956 10.5635C21.5722 10.8705 21.7026 11.1297 21.7901 11.3154C21.8339 11.4083 21.8675 11.4842 21.8907 11.5381C21.9022 11.5648 21.9115 11.5865 21.9181 11.6025C21.9213 11.6103 21.9238 11.6169 21.9259 11.6221C21.9269 11.6245 21.9288 11.6289 21.9288 11.6289L21.9298 11.6318L21.0001 12L21.9298 12.3672L21.9288 12.3711C21.9288 12.3711 21.9269 12.3755 21.9259 12.3779C21.9238 12.3831 21.9213 12.3897 21.9181 12.3975C21.9115 12.4135 21.9022 12.4352 21.8907 12.4619C21.8675 12.5158 21.8339 12.5917 21.7901 12.6846C21.7026 12.8703 21.5722 13.1295 21.3956 13.4365C21.043 14.0494 20.4997 14.866 19.7315 15.6846C19.7104 15.7071 19.6876 15.7284 19.6661 15.751L15.9972 12.082C15.9977 12.0547 16.0001 12.0274 16.0001 12C16.0001 9.79086 14.2092 8 12.0001 8C11.9724 8.00001 11.9447 8.00139 11.9171 8.00195L9.28038 5.36523C10.1346 5.13449 11.0736 5.00004 12.1007 5Z" fill="#000000"/>
<path d="M3.0001 12L2.08018 12.3926C1.97327 12.1419 1.97327 11.8581 2.08018 11.6074L3.0001 12Z" fill="#000000"/>
<path d="M21.9308 11.6338C22.0234 11.8691 22.0234 12.1309 21.9308 12.3662L21.0001 12L21.9308 11.6338Z" fill="#000000"/>
</svg>
