<svg xmlns="http://www.w3.org/2000/svg" width="24" height="24" viewBox="0 0 24 24" fill="none"><rect width="24" height="24" fill="none"/>
<path d="M12 11.5C13.6569 11.5 15 12.8431 15 14.5C15 16.1569 13.6569 17.5 12 17.5C10.3431 17.5 9 16.1569 9 14.5C9 12.8431 10.3431 11.5 12 11.5ZM12 13.5C11.4477 13.5 11 13.9477 11 14.5C11 15.0523 11.4477 15.5 12 15.5C12.5523 15.5 13 15.0523 13 14.5C13 13.9477 12.5523 13.5 12 13.5Z" fill="#000000"/>
<path d="M22 21H2V8H22V21ZM4 16L7 19H20V13L17 10H4V16Z" fill="#000000"/>
<path d="M16.5996 5.2002L15.4004 6.7998L12 4.25L8.59961 6.7998L7.40039 5.2002L12 1.75L16.5996 5.2002Z" fill="#000000"/>
</svg>
