<svg xmlns="http://www.w3.org/2000/svg" width="24" height="24" viewBox="0 0 24 24" fill="none"><rect width="24" height="24" fill="none"/>
<path d="M22.2109 15.207L15.2109 22.207L13.7968 20.793L20.7968 13.793L22.2109 15.207Z" fill="#000000"/>
<path d="M11.9999 1.5C13.4537 1.50013 14.6182 1.93704 15.4159 2.37207C15.8146 2.58958 16.1268 2.80953 16.3427 2.97852C16.4503 3.06275 16.5359 3.13522 16.5966 3.18945C16.6266 3.21622 16.6516 3.23957 16.6699 3.25684C16.6788 3.2653 16.6872 3.27342 16.6933 3.2793L16.706 3.29199C16.7036 3.29502 16.6616 3.33829 15.9999 4L16.707 3.29297C17.097 3.6834 17.097 4.31659 16.707 4.70703L13.8505 7.5625L15.8886 8.24219C17.6692 8.83589 19.0644 10.2288 19.6679 12H17.4902C17.0092 11.1302 16.2169 10.4601 15.2558 10.1396L11.999 9.05273L8.7431 10.1396C7.52417 10.5462 6.57401 11.5139 6.19036 12.7402L5.13763 16.1045C4.53363 18.0361 5.97711 19.9996 8.00091 20H11.9999V22H8.00091C4.62755 21.9996 2.22145 18.7265 3.22845 15.5068L4.28118 12.1436C4.85667 10.3039 6.2817 8.85194 8.11028 8.24219L10.1484 7.5625L7.2929 4.70703C7.10551 4.51952 6.99994 4.26511 6.99993 4C6.99993 3.73489 7.1055 3.48048 7.2929 3.29297L7.99993 4L7.29388 3.29199L7.30657 3.2793C7.31262 3.27341 7.32108 3.2653 7.33001 3.25684C7.34825 3.23956 7.37331 3.21622 7.40325 3.18945C7.46398 3.13522 7.54955 3.06274 7.65716 2.97852C7.87313 2.80953 8.18523 2.58956 8.58392 2.37207C9.38168 1.93705 10.5461 1.50009 11.9999 1.5ZM11.9999 3.5C10.955 3.50009 10.118 3.81232 9.54095 4.12695L11.9999 6.58594L14.4579 4.12695C13.881 3.81245 13.0444 3.50013 11.9999 3.5Z" fill="#000000"/>
<path d="M20.5038 19C21.3322 19 22.0038 19.6716 22.0038 20.5C22.0038 21.3284 21.3322 22 20.5038 22C19.6755 21.9999 19.0038 21.3284 19.0038 20.5C19.0039 19.6717 19.6755 19.0001 20.5038 19Z" fill="#000000"/>
<path d="M15.5038 14C16.3322 14 17.0038 14.6716 17.0038 15.5C17.0038 16.3284 16.3322 17 15.5038 17C14.6755 16.9999 14.0038 16.3284 14.0038 15.5C14.0039 14.6717 14.6755 14.0001 15.5038 14Z" fill="#000000"/>
</svg>
