<svg xmlns="http://www.w3.org/2000/svg" width="20" height="20" viewBox="0 0 20 20" fill="none"><rect width="20" height="20" fill="none"/>
<path d="M18.5303 17.4688L17.4697 18.5293L13.2754 14.335C12.8546 15.3139 11.8833 16 10.75 16H4.75C3.23122 16 2 14.7688 2 13.25V6.75C2 5.74928 2.53585 4.87563 3.33496 4.39453L1.46973 2.5293L2.53027 1.46875L18.5303 17.4688ZM4.47168 5.53125C3.91531 5.65778 3.5 6.15532 3.5 6.75V13.25C3.5 13.9404 4.05964 14.5 4.75 14.5H10.75C11.4404 14.5 12 13.9404 12 13.25V13.0596L4.47168 5.53125Z" fill="#000000"/>
<path d="M10.75 4C12.2688 4 13.5 5.23122 13.5 6.75V6.98438L16.9229 5.3252C17.1553 5.21252 17.4295 5.22713 17.6484 5.36426C17.8673 5.50141 18 5.74174 18 6V14.9385L16.5 13.4385V7.19629L13.5 8.65137V10.4385L12 8.93848V6.75C12 6.05964 11.4404 5.5 10.75 5.5H8.56152L7.06152 4H10.75Z" fill="#000000"/>
</svg>
