<svg xmlns="http://www.w3.org/2000/svg" width="20" height="20" viewBox="0 0 20 20" fill="none"><rect width="20" height="20" fill="none"/>
<path d="M19 19H11V17H19V19Z" fill="#000000"/>
<path d="M18 4.5791L17.9844 5.07422C17.9412 5.94957 17.7775 7.87876 17.166 10H15.0742C15.0811 9.97877 15.0889 9.95779 15.0957 9.93652C15.5435 8.54444 15.7726 7.18981 15.8877 6.17383C15.8942 6.1162 15.8975 6.05907 15.9033 6.00391L10 4.10059L4.0957 6.00391C4.1015 6.0591 4.10578 6.11616 4.1123 6.17383C4.22735 7.18981 4.45649 8.54444 4.9043 9.93652C5.65846 12.2809 6.91421 14.4035 9 15.4971V17.6885C2.91487 15.3941 2.11946 7.18114 2.01562 5.07422L2 4.5791L10 2L18 4.5791Z" fill="#000000"/>
<path d="M18.7578 13.9658L11.2578 15.9658L10.7422 14.0342L18.2422 12.0342L18.7578 13.9658Z" fill="#000000"/>
</svg>
