<svg xmlns="http://www.w3.org/2000/svg" width="20" height="20" viewBox="0 0 20 20" fill="none"><rect width="20" height="20" fill="none"/>
<path d="M16 4H15V4.89746C15 6.14783 14.6095 7.36725 13.8828 8.38477L12.7285 10L13.8828 11.6152C14.6095 12.6328 15 13.8522 15 15.1025V16H16V18H4V16H5V15.1025C5 13.8522 5.39052 12.6328 6.11719 11.6152L7.27051 10L6.11719 8.38477C5.43596 7.43088 5.05049 6.29972 5.00488 5.13184L5 4.89746V4H4V2H16V4ZM7 4.89746L7.01172 5.20898C7.06818 5.93241 7.32108 6.62901 7.74512 7.22266L9.72852 10L7.74512 12.7773C7.26054 13.4557 7 14.2688 7 15.1025V16H13V15.1025C13 14.2688 12.7395 13.4557 12.2549 12.7773L10.2715 10L12.2549 7.22266C12.7395 6.54425 13 5.73115 13 4.89746V4H7V4.89746Z" fill="#000000"/>
</svg>
