<svg xmlns="http://www.w3.org/2000/svg" width="20" height="20" viewBox="0 0 20 20" fill="none"><rect width="20" height="20" fill="none"/>
<path d="M11.9986 14.4502H7.99862L8.49862 13H11.4986L11.9986 14.4502Z" fill="#000000"/>
<path d="M14.2994 2.9502C15.2655 2.95067 16.0494 3.73497 16.0494 4.70117V10.5713L18.0055 16.0488C18.087 16.2782 18.052 16.5343 17.9117 16.7334C17.7713 16.932 17.5417 17.0506 17.2984 17.0508H2.69881C2.45555 17.0506 2.22596 16.932 2.08553 16.7334C1.94541 16.5343 1.91119 16.2782 1.99276 16.0488L3.94881 10.5713V4.70117C3.94881 3.73489 4.73262 2.95055 5.69881 2.9502H14.2994ZM3.76327 15.5508H16.234L14.7701 11.4512H5.22713L3.76327 15.5508ZM5.69881 4.45117C5.56105 4.45153 5.44881 4.56332 5.44881 4.70117V9.95117H14.5494V4.70117C14.5494 4.5634 14.4371 4.45165 14.2994 4.45117H5.69881Z" fill="#000000"/>
</svg>
