<svg xmlns="http://www.w3.org/2000/svg" width="20" height="20" viewBox="0 0 20 20" fill="none"><rect width="20" height="20" fill="none"/>
<path d="M15 9.75H13.5V7.55957L7.55957 13.5H9.75V15H5V10.25H6.5V12.4385L12.4385 6.5H10.25V5H15V9.75Z" fill="#000000"/>
<path d="M15.2988 1.9502C16.8175 1.9502 18.0487 3.18152 18.0488 4.7002V15.2998C18.0488 16.8186 16.8176 18.0498 15.2988 18.0498H4.69922C3.18044 18.0498 1.94922 16.8186 1.94922 15.2998V4.7002C1.94935 3.18153 3.18052 1.9502 4.69922 1.9502H15.2988ZM4.69922 3.4502C4.00895 3.4502 3.44935 4.00995 3.44922 4.7002V15.2998C3.44922 15.9902 4.00886 16.5498 4.69922 16.5498H15.2988C15.9892 16.5498 16.5488 15.9902 16.5488 15.2998V4.7002C16.5487 4.00995 15.9891 3.4502 15.2988 3.4502H4.69922Z" fill="#000000"/>
</svg>
