<svg xmlns="http://www.w3.org/2000/svg" width="20" height="20" viewBox="0 0 20 20" fill="none"><rect width="20" height="20" fill="none"/>
<path d="M18.5303 13.5303L13.5 18.5605L10.4697 15.5303L11.5303 14.4697L13.5 16.4395L17.4697 12.4697L18.5303 13.5303Z" fill="#000000"/>
<path d="M11 2C12.6569 2 14 3.34315 14 5V6H15C16.6569 6 18 7.34315 18 9V10H16.5V9C16.5 8.17157 15.8284 7.5 15 7.5H5C4.17163 7.50007 3.5 8.17161 3.5 9V15C3.5 15.8284 4.17163 16.4999 5 16.5H9V18H5C3.3432 17.9999 2 16.6568 2 15V9C2 7.34319 3.3432 6.00007 5 6H6V5C6 3.34315 7.34315 2 9 2H11ZM9 3.5C8.17157 3.5 7.5 4.17157 7.5 5V6H12.5V5C12.5 4.17157 11.8284 3.5 11 3.5H9Z" fill="#000000"/>
</svg>
