<svg xmlns="http://www.w3.org/2000/svg" width="20" height="20" viewBox="0 0 20 20" fill="none"><rect width="20" height="20" fill="none"/>
<path d="M14.25 4.56543V8.56543L17.75 10.5654V15.4365L13.5 17.8652L10 15.8643L6.5 17.8652L2.25 15.4365V10.5654L5.75 8.56543V4.56543L10 2.13672L14.25 4.56543ZM3.75 11.4355V14.5654L6.5 16.1367L9.25 14.5654V11.4355L6.49902 9.86426L3.75 11.4355ZM10.75 11.4355V14.5654L13.5 16.1367L16.25 14.5654V11.4355L13.5 9.86426L10.75 11.4355ZM7.25 5.43555V8.56543L10 10.1367L12.75 8.56543V5.43555L10 3.86426L7.25 5.43555Z" fill="#000000"/>
</svg>
