<svg xmlns="http://www.w3.org/2000/svg" width="20" height="20" viewBox="0 0 20 20" fill="none"><rect width="20" height="20" fill="none"/>
<path d="M7.93046 2.27253C8.94517 2.00064 10.0042 1.93135 11.0457 2.06843C12.087 2.20557 13.0921 2.54721 14.0017 3.07233C14.9112 3.5975 15.7091 4.29686 16.3484 5.12995C16.4608 5.27647 16.566 5.42859 16.6678 5.5821L16.1189 6.12995L16.1199 6.13093L11.2439 11.0059C10.9506 11.368 10.5031 11.5997 10.0008 11.5997C9.1172 11.5995 8.40116 10.8837 8.40116 10.0001C8.40124 9.11653 9.11725 8.40061 10.0008 8.40046C10.4751 8.40046 10.9001 8.60774 11.1932 8.93561L12.3973 7.73151C12.1786 7.50103 11.9272 7.30206 11.6512 7.14265C11.2761 6.92621 10.8617 6.78519 10.4324 6.72858C10.0029 6.67208 9.56568 6.7005 9.14725 6.81257C8.72874 6.92472 8.33574 7.11816 7.99198 7.3819C7.64826 7.64566 7.36001 7.97546 7.14335 8.35065C6.92688 8.72568 6.78591 9.14011 6.72928 9.5694C6.6728 9.99875 6.70128 10.4362 6.81327 10.8546C6.92541 11.2729 7.11903 11.6662 7.38261 12.0098C7.61339 12.3105 7.89482 12.5695 8.21268 12.7745L8.35136 12.8585L8.49393 12.9366C8.83017 13.1092 9.19461 13.223 9.57011 13.2725C9.99961 13.329 10.4368 13.3006 10.8553 13.1885C11.2738 13.0764 11.6668 12.883 12.0105 12.6192C12.3543 12.3554 12.6425 12.0257 12.8592 11.6505C12.9124 11.5582 12.9607 11.4629 13.0047 11.3663L14.781 9.58991C14.8108 9.93448 14.8058 10.2826 14.7605 10.627C14.6782 11.2518 14.473 11.8547 14.158 12.4005C13.8429 12.9462 13.4235 13.425 12.9236 13.8087C12.4237 14.1923 11.8526 14.4736 11.2439 14.6368C10.6352 14.7999 9.99961 14.842 9.37479 14.7598C8.75006 14.6775 8.14709 14.4723 7.60136 14.1573C7.05581 13.8423 6.57673 13.4227 6.19315 12.9229C5.80969 12.4231 5.52718 11.8517 5.36405 11.2432C5.20105 10.6346 5.15981 9.99874 5.24198 9.37409C5.32429 8.74934 5.52947 8.14639 5.84452 7.60065C6.15964 7.05494 6.57898 6.5761 7.07889 6.19245C7.57892 5.80879 8.14981 5.5265 8.75858 5.36335C9.36733 5.20025 10.0029 5.15907 10.6277 5.24128C11.2525 5.32356 11.8554 5.5288 12.4012 5.84382C12.791 6.06894 13.1465 6.34811 13.4578 6.67097L14.659 5.46979C14.2429 5.04211 13.7705 4.67072 13.2517 4.37116C12.5126 3.9445 11.6955 3.66715 10.8494 3.55573C10.0034 3.44443 9.1434 3.50093 8.31913 3.72175C7.49466 3.94268 6.72092 4.32421 6.04374 4.84382C5.36687 5.3633 4.79855 6.01118 4.37186 6.75007C3.94518 7.48916 3.66789 8.30631 3.55643 9.15241C3.44516 9.9983 3.50172 10.8586 3.72245 11.6827C3.94335 12.507 4.32509 13.281 4.84452 13.9581C5.36395 14.6348 6.01199 15.2033 6.75077 15.63C7.4899 16.0567 8.30697 16.3339 9.15311 16.4454C9.99917 16.5567 10.8591 16.5002 11.6834 16.2794C12.5079 16.0584 13.2816 15.6769 13.9588 15.1573C14.6357 14.6378 15.204 13.9899 15.6307 13.251C16.0573 12.5119 16.3346 11.6948 16.4461 10.8487C16.5573 10.0028 16.5008 9.14256 16.2801 8.31843C16.2644 8.25987 16.2446 8.20165 16.2273 8.14362L17.4021 6.96882C17.5302 7.28139 17.6415 7.60213 17.7293 7.92975C18.0011 8.94435 18.0704 10.0036 17.9334 11.045C17.7962 12.0864 17.4546 13.0914 16.9295 14.001C16.4043 14.9106 15.7051 15.7083 14.8719 16.3477C14.0384 16.9872 13.0868 17.4567 12.0721 17.7286C11.0573 18.0005 9.99838 18.0698 8.95682 17.9327C7.9154 17.7955 6.91047 17.454 6.00077 16.9288C5.09136 16.4036 4.29345 15.7043 3.65409 14.8712C3.01477 14.0379 2.54512 13.0858 2.27323 12.0714C2.00145 11.0568 1.93207 9.99749 2.06913 8.95612C2.2063 7.91475 2.54788 6.90973 3.07303 6.00007C3.59826 5.09054 4.29743 4.2928 5.13065 3.65339C5.96411 3.01388 6.91573 2.54445 7.93046 2.27253Z" fill="#000000"/>
</svg>
