<svg xmlns="http://www.w3.org/2000/svg" width="20" height="20" viewBox="0 0 20 20" fill="none"><rect width="20" height="20" fill="none"/>
<path d="M4 15C4 15.5523 4.44772 16 5 16H7V18H5C3.34315 18 2 16.6569 2 15V13H4V15Z" fill="#000000"/>
<path d="M18 15C18 16.6569 16.6569 18 15 18H13V16H15C15.5523 16 16 15.5523 16 15V13H18V15Z" fill="#000000"/>
<path d="M13.707 7.70703L7.70703 13.707L6.29297 12.293L12.293 6.29297L13.707 7.70703Z" fill="#000000"/>
<path d="M12.25 11C12.9403 11 13.5 11.5597 13.5 12.25C13.5 12.9404 12.9404 13.5 12.25 13.5C11.5597 13.5 11 12.9403 11 12.25C11 11.5597 11.5597 11 12.25 11Z" fill="#000000"/>
<path d="M7.75 6.5C8.44033 6.5 8.99996 7.05968 9 7.75C9 8.44036 8.44036 9 7.75 9C7.05964 9 6.5 8.44036 6.5 7.75C6.50004 7.05968 7.05967 6.5 7.75 6.5Z" fill="#000000"/>
<path d="M7 4H5C4.44772 4 4 4.44772 4 5V7H2V5C2 3.34315 3.34315 2 5 2H7V4Z" fill="#000000"/>
<path d="M15 2C16.6569 2 18 3.34315 18 5V7H16V5C16 4.44772 15.5523 4 15 4H13V2H15Z" fill="#000000"/>
</svg>
