<svg xmlns="http://www.w3.org/2000/svg" width="20" height="20" viewBox="0 0 20 20" fill="none"><rect width="20" height="20" fill="none"/>
<path d="M10.4287 7C11.2965 7.00008 11.9999 7.70352 12 8.57129C12 9.43912 11.2965 10.1425 10.4287 10.1426H9V7H10.4287Z" fill="#000000"/>
<path d="M15 2C16.6569 2 18 3.34315 18 5V15C18 16.6569 16.6569 18 15 18H5C3.34315 18 2 16.6569 2 15V5C2 3.34315 3.34315 2 5 2H15ZM7 15H9V12.1426H10.4287C12.4011 12.1425 14 10.5437 14 8.57129C13.9999 6.59895 12.401 5.00008 10.4287 5H7V15Z" fill="#000000"/>
</svg>
