<svg xmlns="http://www.w3.org/2000/svg" width="20" height="20" viewBox="0 0 20 20" fill="none"><rect width="20" height="20" fill="none"/>
<path d="M17.3857 10.5615C17.5409 10.4198 17.7818 10.5825 17.708 10.7793L16.5 14H18C18.4043 14.0001 18.7691 14.2437 18.9238 14.6172C19.0785 14.9908 18.9929 15.4211 18.707 15.707L14.2285 19.3994C14.0619 19.5368 13.8258 19.3494 13.9219 19.1562L15.5 16H14C13.6077 16 13.252 15.7703 13.0898 15.4131C12.9278 15.0559 12.9889 14.6371 13.2471 14.3418L17.3857 10.5615Z" fill="#000000"/>
<path d="M15.2998 2.9502C16.8172 2.9502 18.0497 4.17729 18.0498 5.69727V8.5H3.4502V14.2998C3.4502 14.9902 4.00984 15.5498 4.7002 15.5498H11V17.0498H4.7002C3.18141 17.0498 1.9502 15.8186 1.9502 14.2998V5.7002C1.9502 4.18141 3.18141 2.9502 4.7002 2.9502H15.2998ZM4.7002 4.4502C4.00984 4.4502 3.4502 5.00984 3.4502 5.7002V7H16.5498V5.69727C16.5497 5.00833 15.9914 4.4502 15.2998 4.4502H4.7002Z" fill="#000000"/>
</svg>
