<svg xmlns="http://www.w3.org/2000/svg" width="20" height="20" viewBox="0 0 20 20" fill="none"><rect width="20" height="20" fill="none"/>
<path d="M10.75 4C12.2688 4 13.5 5.23122 13.5 6.75V6.98438L16.9229 5.3252C17.1553 5.21252 17.4295 5.22713 17.6484 5.36426C17.8673 5.50141 18 5.74174 18 6V14C18 14.2583 17.8673 14.4986 17.6484 14.6357C17.4295 14.7729 17.1553 14.7875 16.9229 14.6748L13.5 13.0146V13.25C13.5 14.7688 12.2688 16 10.75 16H4.75C3.23122 16 2 14.7688 2 13.25V6.75C2 5.23122 3.23122 4 4.75 4H10.75ZM4.75 5.5C4.05964 5.5 3.5 6.05964 3.5 6.75V13.25C3.5 13.9404 4.05964 14.5 4.75 14.5H10.75C11.4404 14.5 12 13.9404 12 13.25V6.75C12 6.05964 11.4404 5.5 10.75 5.5H4.75ZM13.5 8.65137V11.3477L16.5 12.8027V7.19629L13.5 8.65137Z" fill="#000000"/>
</svg>
