<svg xmlns="http://www.w3.org/2000/svg" width="20" height="20" viewBox="0 0 20 20" fill="none"><rect width="20" height="20" fill="none"/>
<path d="M15.3008 2.94922C16.8193 2.94938 18.0506 4.18067 18.0508 5.69922V14.2998C18.0508 15.7235 16.9685 16.8941 15.582 17.0352L15.3008 17.0498H4.7002C3.18141 17.0498 1.9502 15.8186 1.9502 14.2998V5.69922C1.95035 4.18057 3.18151 2.94922 4.7002 2.94922H15.3008ZM11 5C10.4477 5 10 5.44772 10 6V8C10 8.55228 10.4477 9 11 9H15C15.5523 9 16 8.55228 16 8V6C16 5.44772 15.5523 5 15 5H11Z" fill="#000000"/>
</svg>
