<svg xmlns="http://www.w3.org/2000/svg" width="20" height="20" viewBox="0 0 20 20" fill="none"><rect width="20" height="20" fill="none"/>
<path d="M7.1817 2.51088C8.91357 1.85919 10.8181 1.82932 12.5704 2.42397C14.3229 3.01886 15.8157 4.203 16.793 5.77456C17.7702 7.34612 18.1722 9.20832 17.9307 11.0431C17.6891 12.8779 16.8194 14.5729 15.4688 15.838C14.118 17.1032 12.3693 17.8615 10.5225 17.9826C8.67584 18.1035 6.84322 17.5801 5.33893 16.5021C3.83475 15.424 2.75052 13.857 2.27155 12.0695L4.20416 11.5519C4.56342 12.8926 5.37681 14.0676 6.50495 14.8761C7.63308 15.6844 9.00682 16.0771 10.3917 15.9865C11.7765 15.8957 13.0876 15.3276 14.1006 14.379C15.1137 13.4302 15.7661 12.1584 15.9473 10.7824C16.1284 9.40622 15.8268 8.00893 15.0938 6.83022C14.3608 5.65197 13.2418 4.76365 11.9278 4.31752C10.6136 3.87163 9.18466 3.89512 7.8858 4.38393C6.6429 4.85184 5.59288 5.71892 4.89655 6.84584L5.78912 7.3185C5.95179 7.4047 6.05366 7.57391 6.05475 7.75795C6.0555 7.94221 5.95505 8.11261 5.79303 8.20034L2.62116 9.91518C2.47418 9.99464 2.29715 9.99526 2.14948 9.91713C2.00189 9.83884 1.90263 9.69176 1.8858 9.52553L1.52252 5.93862C1.50409 5.75532 1.58845 5.57569 1.74127 5.4728C1.89407 5.37025 2.09127 5.36044 2.25397 5.44643L3.12506 5.90737C4.05248 4.34925 5.48273 3.15035 7.1817 2.51088Z" fill="#000000"/>
<path d="M11.0001 9.58608L12.7071 11.2931L11.293 12.7072L9.00006 10.4142V6.00014H11.0001V9.58608Z" fill="#000000"/>
</svg>
