<svg xmlns="http://www.w3.org/2000/svg" width="20" height="20" viewBox="0 0 20 20" fill="none"><rect width="20" height="20" fill="none"/>
<path d="M10 15C10.8284 15 11.5 15.6716 11.5 16.5C11.5 17.3284 10.8284 18 10 18C9.17157 18 8.5 17.3284 8.5 16.5C8.5 15.6716 9.17157 15 10 15Z" fill="#000000"/>
<path d="M5.5 11C6.32843 11 7 11.6716 7 12.5C7 13.3284 6.32843 14 5.5 14C4.67157 14 4 13.3284 4 12.5C4 11.6716 4.67157 11 5.5 11Z" fill="#000000"/>
<path d="M10 11C10.8284 11 11.5 11.6716 11.5 12.5C11.5 13.3284 10.8284 14 10 14C9.17157 14 8.5 13.3284 8.5 12.5C8.5 11.6716 9.17157 11 10 11Z" fill="#000000"/>
<path d="M14.5 11C15.3284 11 16 11.6716 16 12.5C16 13.3284 15.3284 14 14.5 14C13.6716 14 13 13.3284 13 12.5C13 11.6716 13.6716 11 14.5 11Z" fill="#000000"/>
<path d="M5.5 6.5C6.32843 6.5 7 7.17157 7 8C7 8.82843 6.32843 9.5 5.5 9.5C4.67157 9.5 4 8.82843 4 8C4 7.17157 4.67157 6.5 5.5 6.5Z" fill="#000000"/>
<path d="M10 6.5C10.8284 6.5 11.5 7.17157 11.5 8C11.5 8.82843 10.8284 9.5 10 9.5C9.17157 9.5 8.5 8.82843 8.5 8C8.5 7.17157 9.17157 6.5 10 6.5Z" fill="#000000"/>
<path d="M14.5 6.5C15.3284 6.5 16 7.17157 16 8C16 8.82843 15.3284 9.5 14.5 9.5C13.6716 9.5 13 8.82843 13 8C13 7.17157 13.6716 6.5 14.5 6.5Z" fill="#000000"/>
<path d="M5.5 2C6.32843 2 7 2.67157 7 3.5C7 4.32843 6.32843 5 5.5 5C4.67157 5 4 4.32843 4 3.5C4 2.67157 4.67157 2 5.5 2Z" fill="#000000"/>
<path d="M10 2C10.8284 2 11.5 2.67157 11.5 3.5C11.5 4.32843 10.8284 5 10 5C9.17157 5 8.5 4.32843 8.5 3.5C8.5 2.67157 9.17157 2 10 2Z" fill="#000000"/>
<path d="M14.5 2C15.3284 2 16 2.67157 16 3.5C16 4.32843 15.3284 5 14.5 5C13.6716 5 13 4.32843 13 3.5C13 2.67157 13.6716 2 14.5 2Z" fill="#000000"/>
</svg>
