<svg xmlns="http://www.w3.org/2000/svg" width="20" height="20" viewBox="0 0 20 20" fill="none"><rect width="20" height="20" fill="none"/>
<path d="M14 9C14.5523 9 15 9.44772 15 10C15 10.5523 14.5523 11 14 11C13.4477 11 13 10.5523 13 10C13 9.44772 13.4477 9 14 9Z" fill="#000000"/>
<path d="M15 3C16.6569 3 18 4.34315 18 6V14C18 15.6569 16.6569 17 15 17H5C3.34315 17 2 15.6569 2 14V6C2 4.34315 3.34315 3 5 3H15ZM5 5C4.44772 5 4 5.44772 4 6V14C4 14.5523 4.44772 15 5 15H15C15.5523 15 16 14.5523 16 14V6C16 5.44772 15.5523 5 15 5H5Z" fill="#000000"/>
</svg>
