<svg xmlns="http://www.w3.org/2000/svg" width="20" height="20" viewBox="0 0 20 20" fill="none"><rect width="20" height="20" fill="none"/>
<g clip-path="url(#clip0_152247_18099)">
<path d="M10.7939 10.7939C11.0618 10.5263 11.4582 10.433 11.8174 10.5527L19.3174 13.0527C19.7104 13.1843 19.9825 13.5448 20 13.959C20.0169 14.3733 19.7756 14.7564 19.3945 14.9199L16.2627 16.2617L14.9199 19.3945C14.7563 19.7756 14.3733 20.0169 13.959 20C13.5447 19.9826 13.1843 19.7105 13.0527 19.3174L10.5527 11.8174C10.433 11.4581 10.5263 11.0618 10.7939 10.7939ZM14.1172 16.1904L14.7402 14.7393L16.1904 14.1172L13.0811 13.0811L14.1172 16.1904Z" fill="#000000"/>
<path d="M16 3C17.1046 3 18 3.89543 18 5V10H16V5H4V12H9V18H5V16H6C6.55228 16 7 15.5523 7 15V14H4C2.89543 14 2 13.1046 2 12V5C2 3.89543 2.89543 3 4 3H16Z" fill="#000000"/>
</g>
<defs>
<clipPath id="clip0_152247_18099">
<rect width="20" height="20" fill="white"/>
</clipPath>
</defs>
</svg>
