<svg xmlns="http://www.w3.org/2000/svg" width="24" height="24" viewBox="0 0 24 24" fill="none"><rect width="24" height="24" fill="none"/>
<path d="M7.20675 10.2073L5.70675 11.7073C3.88846 13.5257 3.88867 16.4746 5.70675 18.2932C7.52524 20.1116 10.4741 20.1115 12.2927 18.2932C12.8142 17.7717 13.3282 17.2576 13.7927 16.7932L15.2067 18.2073L13.7067 19.7073C11.1071 22.3066 6.89228 22.3067 4.29268 19.7073C1.69355 17.1076 1.69336 12.8927 4.29268 10.2932L5.79268 8.7932L7.20675 10.2073Z" fill="#000000"/>
<path d="M15.2067 10.2073L10.2067 15.2073L8.79268 13.7932L13.7927 8.7932L15.2067 10.2073Z" fill="#000000"/>
<path d="M10.2927 4.2932C12.8922 1.6938 17.1071 1.69407 19.7067 4.2932C22.3062 6.8929 22.3064 11.1077 19.7067 13.7073L18.2067 15.2073L16.7927 13.7932L18.2927 12.2932C20.1112 10.4746 20.1111 7.52591 18.2927 5.70726C16.474 3.88917 13.5252 3.88888 11.7067 5.70726L10.2067 7.20726L8.79268 5.7932L10.2927 4.2932Z" fill="#000000"/>
</svg>
