<svg xmlns="http://www.w3.org/2000/svg" width="24" height="24" viewBox="0 0 24 24" fill="none"><rect width="24" height="24" fill="none"/>
<path d="M15.0008 4C15.447 4.00037 15.8401 4.29655 15.9627 4.72559L17.7557 11H20.0008C20.447 11.0004 20.8402 11.2966 20.9627 11.7256L22.9627 18.7256C23.0486 19.027 22.9882 19.3522 22.7996 19.6025C22.6109 19.8528 22.3143 19.9997 22.0008 20H2.00082C1.68719 20 1.39097 19.8528 1.20199 19.6025C1.01311 19.3521 0.952862 19.0272 1.0389 18.7256L3.0389 11.7256C3.16163 11.2964 3.55441 11 4.00082 11H6.24593L8.0389 4.72559C8.16163 4.2964 8.55441 4 9.00082 4H15.0008ZM3.32699 18H10.6746L9.24593 13H4.7557L3.32699 18ZM12.7557 18H20.6746L19.2459 13H11.327L12.7557 18ZM8.32699 11H15.6746L14.2459 6H9.7557L8.32699 11Z" fill="#000000"/>
</svg>
