<svg xmlns="http://www.w3.org/2000/svg" width="24" height="24" viewBox="0 0 24 24" fill="none"><rect width="24" height="24" fill="none"/>
<path d="M21.7071 20.293L20.2931 21.707L16.5909 18.0049C15.3483 18.6021 13.8601 18.9999 12.1007 19C8.49131 18.9998 5.97146 17.3339 4.38095 15.6973C3.58864 14.8819 3.02019 14.0678 2.64852 13.457C2.46228 13.151 2.32389 12.8929 2.23056 12.708C2.18394 12.6156 2.14792 12.5408 2.12313 12.4873C2.11093 12.461 2.10087 12.4396 2.09384 12.4238C2.09033 12.4159 2.08727 12.4084 2.08505 12.4033C2.08407 12.4011 2.08212 12.3975 2.08212 12.3975L2.08114 12.3945L3.00009 12L2.08114 11.6064L2.08212 11.6025C2.08212 11.6025 2.08407 11.5989 2.08505 11.5967C2.08727 11.5916 2.09033 11.5841 2.09384 11.5762C2.10087 11.5604 2.11093 11.539 2.12313 11.5127C2.14792 11.4592 2.18394 11.3844 2.23056 11.292C2.32389 11.1071 2.46228 10.849 2.64852 10.543C3.02019 9.93224 3.58864 9.11807 4.38095 8.30273C4.76858 7.90386 5.21226 7.50407 5.71298 7.12695L2.29306 3.70703L3.70712 2.29297L21.7071 20.293ZM7.14267 8.55664C6.63851 8.91343 6.1975 9.3042 5.81552 9.69727C5.15049 10.3817 4.6694 11.0679 4.35653 11.582C4.26027 11.7402 4.18031 11.8816 4.1163 12C4.18031 12.1184 4.26027 12.2598 4.35653 12.418C4.6694 12.9321 5.15049 13.6183 5.81552 14.3027C7.14028 15.6659 9.17225 16.9998 12.1007 17C13.2253 16.9999 14.2089 16.8003 15.0665 16.4805L13.3292 14.7432C12.2297 15.2265 10.9003 15.0213 10.0001 14.1211C9.09993 13.2205 8.89316 11.8904 9.37704 10.791L7.14267 8.55664Z" fill="#000000"/>
<path d="M12.1007 5C15.7135 5.00015 18.1869 6.66959 19.7315 8.31543C20.4997 9.13394 21.043 9.95061 21.3956 10.5635C21.5722 10.8705 21.7025 11.1297 21.7901 11.3154C21.8339 11.4083 21.8675 11.4842 21.8907 11.5381C21.9022 11.5648 21.9115 11.5865 21.9181 11.6025C21.9212 11.6103 21.9238 11.617 21.9259 11.6221C21.9268 11.6245 21.9288 11.6289 21.9288 11.6289L21.9298 11.6318L21.0001 12L21.9298 12.3672L21.9288 12.3711C21.9288 12.3711 21.9268 12.3755 21.9259 12.3779C21.9238 12.383 21.9212 12.3897 21.9181 12.3975C21.9115 12.4135 21.9022 12.4352 21.8907 12.4619C21.8675 12.5158 21.8339 12.5917 21.7901 12.6846C21.7025 12.8703 21.5722 13.1295 21.3956 13.4365C21.043 14.0494 20.4997 14.8661 19.7315 15.6846C19.7102 15.7072 19.6868 15.7283 19.6651 15.751L18.2511 14.3369C18.258 14.3296 18.2657 14.3227 18.2725 14.3154C18.9117 13.6343 19.3677 12.9505 19.6622 12.4385C19.7585 12.271 19.836 12.1222 19.8975 12C19.836 11.8778 19.7585 11.729 19.6622 11.5615C19.3677 11.0495 18.9117 10.3657 18.2725 9.68457C17.002 8.33075 15.0254 7.00015 12.1007 7C11.7124 7.00002 11.3397 7.02449 10.9825 7.06836L9.27938 5.36523C10.1338 5.13438 11.0734 5.00005 12.1007 5Z" fill="#000000"/>
<path d="M3.00009 12L2.08017 12.3926C1.97328 12.142 1.97328 11.858 2.08017 11.6074L3.00009 12Z" fill="#000000"/>
<path d="M21.9308 11.6338C22.0234 11.8691 22.0234 12.1309 21.9308 12.3662L21.0001 12L21.9308 11.6338Z" fill="#000000"/>
</svg>
