<svg xmlns="http://www.w3.org/2000/svg" width="24" height="24" viewBox="0 0 24 24" fill="none"><rect width="24" height="24" fill="none"/>
<path d="M15 14.2285C18.4955 14.7776 21 16.2584 21 18C21 20.2091 16.9706 22 12 22C7.02944 22 3 20.2091 3 18C3 16.2584 5.5045 14.7776 9 14.2285V16.2559C8.00491 16.4334 7.13838 16.6923 6.44824 16.999C5.78666 17.2931 5.37536 17.592 5.15625 17.8223C5.07885 17.9036 5.03813 17.9629 5.0166 18C5.03813 18.0371 5.07885 18.0964 5.15625 18.1777C5.37536 18.408 5.78666 18.7069 6.44824 19.001C7.76636 19.5868 9.72757 20 12 20C14.2724 20 16.2336 19.5868 17.5518 19.001C18.2133 18.7069 18.6246 18.408 18.8438 18.1777C18.9209 18.0967 18.9608 18.0371 18.9824 18C18.9608 17.9629 18.9209 17.9033 18.8438 17.8223C18.6246 17.592 18.2133 17.2931 17.5518 16.999C16.8616 16.6923 15.9951 16.4334 15 16.2559V14.2285Z" fill="#000000"/>
<path d="M12 2C14.2091 2 16 3.79086 16 6C16 7.86384 14.7252 9.42998 13 9.87402V18H11V9.87402C9.27477 9.42998 8 7.86384 8 6C8 3.79086 9.79086 2 12 2ZM12 4C10.8954 4 10 4.89543 10 6C10 7.10457 10.8954 8 12 8C13.1046 8 14 7.10457 14 6C14 4.89543 13.1046 4 12 4Z" fill="#000000"/>
</svg>
