<svg xmlns="http://www.w3.org/2000/svg" width="20" height="20" viewBox="0 0 20 20" fill="none"><rect width="20" height="20" fill="none"/>
<path d="M12.3105 4H16.25C17.2165 4 18 4.7835 18 5.75V12.25C18 13.2165 17.2165 14 16.25 14H15V16.25C15 17.2165 14.2165 18 13.25 18H3.75C2.7835 18 2 17.2165 2 16.25V7.75C2 6.7835 2.7835 6 3.75 6H5V3.75C5 2.7835 5.7835 2 6.75 2H10.3105L12.3105 4ZM3.75 7.5C3.61193 7.5 3.5 7.61193 3.5 7.75V16.25C3.5 16.3881 3.61193 16.5 3.75 16.5H13.25C13.3881 16.5 13.5 16.3881 13.5 16.25V14H6.75C5.7835 14 5 13.2165 5 12.25V7.5H3.75ZM6.75 3.5C6.61193 3.5 6.5 3.61193 6.5 3.75V12.25C6.5 12.3881 6.61193 12.5 6.75 12.5H16.25C16.3881 12.5 16.5 12.3881 16.5 12.25V5.75C16.5 5.61193 16.3881 5.5 16.25 5.5H11.6895L9.68945 3.5H6.75Z" fill="#000000"/>
</svg>
