<svg xmlns="http://www.w3.org/2000/svg" width="24" height="24" viewBox="0 0 24 24" fill="none"><rect width="24" height="24" fill="none"/>
<path d="M18 2C20.2091 2 22 3.79086 22 6V14C22 16.2091 20.2091 18 18 18C18 20.2091 16.2091 22 14 22H6C3.79086 22 2 20.2091 2 18V10C2 7.79086 3.79086 6 6 6C6 3.79086 7.79086 2 10 2H18ZM6 8C4.89543 8 4 8.89543 4 10V18C4 19.1046 4.89543 20 6 20H14C15.1046 20 16 19.1046 16 18H10C7.79086 18 6 16.2091 6 14V8ZM10 4C8.89543 4 8 4.89543 8 6V14C8 15.1046 8.89543 16 10 16H18C19.1046 16 20 15.1046 20 14V6C20 4.89543 19.1046 4 18 4H10Z" fill="#000000"/>
</svg>
