<svg xmlns="http://www.w3.org/2000/svg" width="20" height="20" viewBox="0 0 20 20" fill="none"><rect width="20" height="20" fill="none"/>
<path d="M13.5423 2.54292C14.623 1.46215 16.3754 1.46237 17.4563 2.54292C18.5372 3.6238 18.5372 5.3761 17.4563 6.45698L14.2063 9.70698C13.8158 10.0972 13.1827 10.0974 12.7923 9.70698L12.2493 9.16401L10.4134 10.9999L12.7063 13.2929C12.9513 13.5379 13.0524 13.8923 12.9729 14.2294C12.8933 14.5665 12.6443 14.8386 12.3157 14.9482L3.3157 17.9482C2.95652 18.0677 2.55995 17.9747 2.29226 17.707C2.02474 17.4392 1.93143 17.0427 2.05105 16.6835L5.05105 7.68354L5.0989 7.5644C5.2289 7.29558 5.47487 7.09613 5.7698 7.02632C6.10685 6.94687 6.46135 7.04817 6.70632 7.29292L8.99929 9.58589L10.8352 7.74995L10.2923 7.20698C9.90217 6.81653 9.90216 6.18336 10.2923 5.79292L13.5423 2.54292ZM4.57937 15.4189L10.1477 13.5624L6.43581 9.85053L4.57937 15.4189ZM16.0423 3.95698C15.7424 3.65748 15.256 3.65726 14.9563 3.95698L12.4134 6.49995L13.4993 7.58589L16.0423 5.04292C16.3421 4.74309 16.3421 4.25681 16.0423 3.95698Z" fill="#000000"/>
</svg>
