<svg xmlns="http://www.w3.org/2000/svg" width="20" height="20" viewBox="0 0 20 20" fill="none"><rect width="20" height="20" fill="none"/>
<g clip-path="url(#clip0_147702_10481)">
<path d="M16.0003 9.99951C17.6569 9.99963 19.0001 11.3429 19.0003 12.9995V14.269C19.5976 14.6148 20.0002 15.2597 20.0003 15.9995V17.9995C20.0003 19.104 19.1047 19.9994 18.0003 19.9995H14.0003C12.8957 19.9995 12.0003 19.1041 12.0003 17.9995V15.9995C12.0004 15.2597 12.403 14.6149 13.0003 14.269V12.9995C13.0004 11.3428 14.3435 9.99951 16.0003 9.99951ZM14.0003 17.9995H18.0003V15.9995H14.0003V17.9995ZM16.0003 11.9995C15.4481 11.9995 15.0004 12.4474 15.0003 12.9995V13.9995H17.0003V12.9995C17.0001 12.4474 16.5524 11.9996 16.0003 11.9995Z" fill="#000000"/>
<path d="M10.0003 5.74951C11.9722 5.74964 13.6299 7.09326 14.1096 8.91455C12.569 9.62887 11.5004 11.1896 11.5003 12.9995V13.0601L7.34891 17.2114L3.09305 17.7437C2.86347 17.7723 2.6336 17.6934 2.47 17.5298C2.30645 17.3662 2.22751 17.1363 2.25613 16.9067L2.78836 12.6509L9.68973 5.74951H10.0003Z" fill="#000000"/>
<path d="M12.22 3.21924C13.4794 1.96022 15.5213 1.96003 16.7805 3.21924C18.0398 4.47852 18.0396 6.52037 16.7805 7.77979L16.0579 8.50049C16.0388 8.50025 16.0194 8.49952 16.0003 8.49951C15.8501 8.49951 15.7014 8.50662 15.555 8.521C14.9932 6.40488 13.2574 4.76798 11.0852 4.35303L12.22 3.21924Z" fill="#000000"/>
</g>
<defs>
<clipPath id="clip0_147702_10481">
<rect width="20" height="20" fill="white"/>
</clipPath>
</defs>
</svg>
