<svg xmlns="http://www.w3.org/2000/svg" width="20" height="20" viewBox="0 0 20 20" fill="none"><rect width="20" height="20" fill="none"/>
<path d="M15.166 8.01562C16.2501 7.91916 17.3299 8.26302 18.2041 8.98242C18.6241 9.32821 18.9829 9.75005 19.2686 10.2256L17.7725 10.6904C17.6165 10.4842 17.4426 10.2984 17.251 10.1406C16.6676 9.66052 15.9748 9.44988 15.2998 9.50977C14.6228 9.57021 13.9542 9.90427 13.4326 10.498C12.9079 11.0958 12.5757 11.911 12.5312 12.7979C12.487 13.6849 12.7357 14.5436 13.2051 15.2129C13.6723 15.8788 14.3138 16.2986 14.9863 16.4434C15.6547 16.5869 16.3581 16.4617 16.9736 16.0645C17.2737 15.8706 17.5459 15.614 17.7764 15.3086L19.2705 15.7725C18.8918 16.4039 18.3861 16.9373 17.7871 17.3242C16.8466 17.9313 15.7386 18.1396 14.6709 17.9102C13.6031 17.6804 12.6454 17.0276 11.9766 16.0742C11.308 15.1208 10.9729 13.9296 11.0332 12.7227C11.0937 11.5156 11.5461 10.373 12.3057 9.50781C13.0655 8.64291 14.0821 8.11243 15.166 8.01562Z" fill="#000000"/>
<path d="M5.82324 8.9248L11.0771 17.999H9.34277L4.83203 10.208L3.5 11.9326V17.999H2.13574L2 18V2.00098H3.5V9.47852L9.2793 2H11.1758L5.82324 8.9248Z" fill="#000000"/>
<path d="M18.4912 4.06055L16.5508 6H13.9395L12 4.06055L13.0605 3L15.2451 5.18457L17.4307 3L18.4912 4.06055Z" fill="#000000"/>
</svg>
