<svg xmlns="http://www.w3.org/2000/svg" width="20" height="20" viewBox="0 0 20 20" fill="none"><rect width="20" height="20" fill="none"/>
<path d="M10.75 9.25H14V10.75H10.75V14H9.25V10.75H6V9.25H9.25V6H10.75V9.25Z" fill="#000000"/>
<path d="M14.5 2.5C16.1568 2.50011 17.5 3.84321 17.5 5.5V14.5C17.4999 16.1567 16.1567 17.4999 14.5 17.5H5.5C3.84321 17.5 2.50011 16.1568 2.5 14.5V5.5C2.5 3.84315 3.84315 2.5 5.5 2.5H14.5ZM5.5 4C4.67157 4 4 4.67157 4 5.5V14.5C4.00011 15.3283 4.67164 16 5.5 16H14.5C15.3283 15.9999 15.9999 15.3283 16 14.5V5.5C16 4.67164 15.3283 4.00011 14.5 4H5.5Z" fill="#000000"/>
</svg>
