<svg xmlns="http://www.w3.org/2000/svg" width="24" height="24" viewBox="0 0 24 24" fill="none"><rect width="24" height="24" fill="none"/>
<path d="M21.999 22H16.21V20.585L12.9766 21.5479C10.7875 22.1994 8.44981 22.1532 6.28809 21.416L2.69531 20.1914L2.01855 19.96V19.2451C2.01855 18.2948 2.25125 17.4532 2.81152 16.8447C3.38305 16.2242 4.15216 16 4.89551 16H6.7373C6.7373 14.2249 8.10993 13.3197 8.7998 13.0664L12.2793 11.7305C13.5375 11.2475 14.874 11 16.2217 11H21.999V22ZM16.21 13C15.1112 13.0014 14.0219 13.2039 12.9961 13.5977L9.50391 14.9385L9.49023 14.9434C9.39888 14.9755 9.18905 15.0862 9.01367 15.2812C8.85425 15.4586 8.7373 15.6866 8.7373 16H9.21289C10.0041 16 10.7898 15.8661 11.5361 15.6035L13.0889 15.0566L13.7529 16.9434L12.2002 17.4893C11.2405 17.827 10.2303 18 9.21289 18H4.89551C4.54534 18 4.37574 18.0986 4.28223 18.2002C4.22626 18.2611 4.15591 18.37 4.10156 18.5566L6.93359 19.5234C8.70225 20.1266 10.6152 20.1639 12.4062 19.6309L16.21 18.498V13ZM18.21 20H19.999V13H18.21V20Z" fill="#000000"/>
<path d="M8.79199 2.00781C9.21199 2.00787 9.62863 2.08906 10.0176 2.24707C10.4068 2.40525 10.7626 2.63776 11.0605 2.93359L11.0596 2.93457C11.6596 3.52986 12.0039 4.33295 12.0039 5.17871C12.0039 6.02464 11.6599 6.82853 11.0596 7.42383L11.0547 7.42871L7.77051 10.6387C7.66891 10.7631 7.53923 10.866 7.38477 10.9307C7.01312 11.0863 6.58407 11.0033 6.29688 10.7207L2.9502 7.4248L2.94727 7.42188C2.34752 6.82662 2.00391 6.02325 2.00391 5.17773C2.00395 4.33223 2.34751 3.52882 2.94727 2.93359C3.2452 2.63785 3.60011 2.40521 3.98926 2.24707C4.37841 2.08894 4.79559 2.00781 5.21582 2.00781C5.63599 2.00785 6.05329 2.08895 6.44238 2.24707C6.63922 2.32709 6.82658 2.42725 7.00293 2.54395C7.17965 2.42692 7.36812 2.32725 7.56543 2.24707C7.95455 2.08897 8.37181 2.00781 8.79199 2.00781ZM8.79199 4.00781C8.62813 4.00781 8.46662 4.0394 8.31836 4.09961C8.1701 4.15986 8.03948 4.24742 7.93262 4.35352L7.92676 4.3584L7.70215 4.57715C7.31359 4.95676 6.69324 4.95676 6.30469 4.57715L6.08105 4.3584L6.0752 4.35352C5.9684 4.24749 5.83759 4.15986 5.68945 4.09961C5.5412 4.03936 5.37969 4.00785 5.21582 4.00781C5.05191 4.00781 4.89048 4.03937 4.74219 4.09961C4.59392 4.15986 4.46331 4.24742 4.35645 4.35352C4.12516 4.58306 4.00394 4.87906 4.00391 5.17773C4.00391 5.47537 4.12385 5.77078 4.35352 6L6.99414 8.60059L9.65625 5.99902C9.8847 5.77011 10.0039 5.4755 10.0039 5.17871C10.0039 4.91721 9.91163 4.65705 9.7334 4.44238L9.65137 4.35352C9.5445 4.24742 9.41291 4.15986 9.26465 4.09961C9.11655 4.03949 8.95566 4.00787 8.79199 4.00781Z" fill="#000000"/>
</svg>
