<svg xmlns="http://www.w3.org/2000/svg" width="20" height="20" viewBox="0 0 20 20" fill="none"><rect width="20" height="20" fill="none"/>
<path d="M15.5 10.25C17.0187 10.2501 18.25 11.4813 18.25 13V15H19.5C19.6841 15.0001 19.8534 15.1014 19.9404 15.2637C20.0274 15.4262 20.0182 15.624 19.916 15.7773L17.916 18.7773C17.8233 18.9164 17.6671 18.9999 17.5 19C17.3329 19 17.1767 18.9164 17.084 18.7773L15.084 15.7773C14.9817 15.6239 14.9726 15.4263 15.0596 15.2637C15.1467 15.1014 15.3158 15 15.5 15H16.75V13C16.75 12.3097 16.1902 11.7501 15.5 11.75H15V10.25H15.5Z" fill="#000000"/>
<path d="M11.5 10C11.6671 10.0001 11.8233 10.0836 11.916 10.2227L13.916 13.2227C14.0182 13.376 14.0274 13.5738 13.9404 13.7363C13.8534 13.8986 13.6841 13.9999 13.5 14H12.25V16C12.25 16.6904 12.8096 17.25 13.5 17.25H14V18.75H13.5C11.9812 18.75 10.75 17.5188 10.75 16V14H9.5C9.31582 14 9.14667 13.8986 9.05957 13.7363C8.97256 13.5737 8.9817 13.3761 9.08398 13.2227L11.084 10.2227C11.1767 10.0836 11.3329 10 11.5 10Z" fill="#000000"/>
<path d="M11 2C12.6569 2 14 3.34315 14 5V6H15C16.3059 6 17.4141 6.83532 17.8262 8H16.1152C15.8406 7.69394 15.4436 7.5 15 7.5H5C4.17157 7.5 3.5 8.17157 3.5 9V15C3.5 15.8284 4.17157 16.5 5 16.5H9V18H5C3.34315 18 2 16.6569 2 15V9C2 7.34315 3.34315 6 5 6H6V5C6 3.34315 7.34315 2 9 2H11ZM9 3.5C8.17157 3.5 7.5 4.17157 7.5 5V6H12.5V5C12.5 4.17157 11.8284 3.5 11 3.5H9Z" fill="#000000"/>
</svg>
