<svg xmlns="http://www.w3.org/2000/svg" width="24" height="24" viewBox="0 0 24 24" fill="none"><rect width="24" height="24" fill="none"/>
<path d="M18.2578 15.0625C18.4167 14.9746 18.6106 14.98 18.7646 15.0762L22.7646 17.5762C22.9108 17.6675 23 17.8277 23 18C23 18.1723 22.9108 18.3325 22.7646 18.4238L18.7646 20.9238C18.6106 21.02 18.4167 21.0254 18.2578 20.9375C18.0989 20.8494 18 20.6817 18 20.5V19C16.8955 19 16.0001 19.8955 16 21V23H14V21C14.0001 18.7909 15.7909 17 18 17V15.5L18.0049 15.4326C18.026 15.2777 18.1188 15.1396 18.2578 15.0625Z" fill="#000000"/>
<path d="M12 2C16.8379 2 20.8733 5.43553 21.7998 10C21.8782 10.3862 21.9313 10.7807 21.9639 11.1816C21.9857 11.4516 22 11.7244 22 12C22 12.3375 21.9829 12.6711 21.9502 13H19.9355C19.9764 12.6723 20 12.3388 20 12H17.96C16.38 11.9999 14.9351 11.1075 14.2285 9.69434C13.3754 7.98811 13.7903 5.9244 15.2256 4.67871C14.2387 4.24329 13.1479 4 12 4C9.90589 4 8.00019 4.80514 6.57422 6.12207C7.11119 6.33963 7.62701 6.61771 8.11035 6.95605L8.41504 7.16992C10.0583 8.32052 10.4224 10.6031 9.21875 12.208C8.73228 12.8567 8.82826 13.7708 9.43848 14.3047L10.293 15.0518C11.378 16.0012 12 17.3736 12 18.8154V22C11.5772 22 11.161 21.9699 10.752 21.9189C10.7399 21.9174 10.7278 21.9166 10.7158 21.915C10.5577 21.8948 10.4009 21.8704 10.2451 21.8428C10.234 21.8408 10.223 21.8389 10.2119 21.8369C5.54259 20.9937 2 16.9123 2 12C2 10.4137 2.37093 8.91448 3.02832 7.58203C3.07494 7.48754 3.12241 7.39357 3.17188 7.30078C3.20674 7.23542 3.24303 7.17093 3.2793 7.10645C3.30767 7.05594 3.33699 7.00601 3.36621 6.95605C3.43244 6.84293 3.5008 6.73132 3.57129 6.62109C3.6011 6.57443 3.63057 6.52758 3.66113 6.48145C3.69198 6.43492 3.72328 6.38875 3.75488 6.34277C3.80937 6.26343 3.86517 6.18508 3.92188 6.10742C3.97295 6.03752 4.02432 5.96792 4.07715 5.89941C4.11974 5.84415 4.16331 5.78969 4.20703 5.73535C6.03997 3.45815 8.84922 2 12 2ZM5.21191 7.7666C4.44446 8.99458 4 10.4452 4 12C4 15.7276 6.54965 18.8589 10 19.7471V18.8154C10 17.9504 9.62652 17.1273 8.97559 16.5576L8.12109 15.8096C6.72376 14.5867 6.50499 12.4934 7.61914 11.0078C8.14451 10.307 7.98515 9.30992 7.26758 8.80762L6.96289 8.59473C6.42412 8.21763 5.8313 7.94072 5.21191 7.7666ZM16.5703 6.16016C15.7961 6.8053 15.5669 7.89845 16.0176 8.7998C16.3854 9.53539 17.1375 9.99992 17.96 10H19.748C19.3138 8.31276 18.342 6.84196 17.0273 5.77832L16.5703 6.16016Z" fill="#000000"/>
</svg>
