<svg xmlns="http://www.w3.org/2000/svg" width="20" height="20" viewBox="0 0 20 20" fill="none"><rect width="20" height="20" fill="none"/>
<path d="M6.12207 5.42578C4.82489 6.52852 4.0003 8.16952 4 10.001C4 11.8325 4.82501 13.4733 6.12207 14.5762V16.998C3.66645 15.6289 2 13.0106 2 10.001C2.00037 6.99161 3.66644 4.37284 6.12207 3.00391V5.42578Z" fill="#000000"/>
<path d="M13.9268 3.00391C16.3824 4.37296 18.0488 6.99139 18.0488 10.001C18.0486 13.0105 16.3825 15.629 13.9268 16.998V14.5762C15.224 13.4733 16.0487 11.8326 16.0488 10.001C16.0488 8.16937 15.2239 6.52863 13.9268 5.42578V3.00391Z" fill="#000000"/>
<path d="M13.707 7.70801L7.70703 13.708L6.29297 12.2939L12.293 6.29395L13.707 7.70801Z" fill="#000000"/>
<path d="M12.25 11.001C12.9403 11.001 13.5 11.5607 13.5 12.251C13.5 12.9413 12.9404 13.501 12.25 13.501C11.5597 13.5009 11 12.9413 11 12.251C11 11.5607 11.5597 11.001 12.25 11.001Z" fill="#000000"/>
<path d="M7.75 6.50098C8.44033 6.50098 8.99996 7.06066 9 7.75098C9 8.44133 8.44036 9.00098 7.75 9.00098C7.05964 9.00098 6.5 8.44133 6.5 7.75098C6.50004 7.06066 7.05967 6.50098 7.75 6.50098Z" fill="#000000"/>
</svg>
