<svg xmlns="http://www.w3.org/2000/svg" width="24" height="24" viewBox="0 0 24 24" fill="none"><rect width="24" height="24" fill="none"/>
<path d="M22.707 16.707L17.5 21.9141L14.293 18.707L15.707 17.293L17.5 19.0859L21.293 15.293L22.707 16.707Z" fill="#000000"/>
<path d="M12 4C15.3137 4 18 6.68629 18 10V10.0996C19.6113 10.4267 20.9403 11.5291 21.583 13H19.2314C18.6822 12.3876 17.8874 12 17 12H16V10C16 7.79086 14.2091 6 12 6C9.79086 6 8 7.79086 8 10V11H7.5C5.567 11 4 12.567 4 14.5C4 16.433 5.567 18 7.5 18H12V20H7.5C4.46243 20 2 17.5376 2 14.5C2 11.9623 3.71884 9.82678 6.05566 9.19238C6.45021 6.26071 8.96025 4 12 4Z" fill="#000000"/>
</svg>
