<svg xmlns="http://www.w3.org/2000/svg" width="20" height="20" viewBox="0 0 20 20" fill="none"><rect width="20" height="20" fill="none"/>
<path d="M15.0459 1.93457C16.3524 2.58765 17.4122 3.64675 18.0654 4.95312L18.3818 5.58691L16.4336 8.09277C15.3425 9.49588 14.75 11.2226 14.75 13V13.3105L12.6807 15.3799L12.2217 15.1963C10.7668 14.6143 9.44235 13.786 8.29688 12.7627L3.53027 17.5303L2.46973 16.4697L7.23633 11.7021C6.21344 10.5569 5.38553 9.23281 4.80371 7.77832L4.62012 7.31934L6.68945 5.25H7C8.77744 5.25 10.5042 4.65759 11.9072 3.56641L14.4121 1.61816L15.0459 1.93457ZM12.8281 4.75C11.2451 5.98121 9.31535 6.67652 7.31641 6.74316L6.3877 7.67188C7.57281 10.3122 9.68693 12.426 12.3271 13.6113L13.2559 12.6826C13.3227 10.684 14.0191 8.75467 15.25 7.17188L16.6133 5.41699C16.1381 4.56425 15.4349 3.86068 14.582 3.38574L12.8281 4.75Z" fill="#000000"/>
</svg>
