<svg xmlns="http://www.w3.org/2000/svg" width="20" height="20" viewBox="0 0 20 20" fill="none"><rect width="20" height="20" fill="none"/>
<path d="M18.5303 13.5303L13.5 18.5605L10.4697 15.5303L11.5303 14.4697L13.5 16.4395L17.4697 12.4697L18.5303 13.5303Z" fill="#000000"/>
<path d="M14.5 2.5C16.1567 2.50013 17.5 3.84323 17.5 5.5V11H16V5.5C16 4.67165 15.3283 4.00013 14.5 4H5.5C4.67157 4 4 4.67157 4 5.5V14.5C4 15.3284 4.67157 16 5.5 16H9V17.5H5.5C3.84315 17.5 2.5 16.1569 2.5 14.5V5.5C2.5 3.84315 3.84315 2.5 5.5 2.5H14.5Z" fill="#000000"/>
</svg>
