<svg xmlns="http://www.w3.org/2000/svg" width="24" height="24" viewBox="0 0 24 24" fill="none"><rect width="24" height="24" fill="none"/>
<path d="M7.65215 6.24121C7.97144 6.51538 8.23687 6.91368 8.44121 7.2793C8.65753 7.66646 8.85676 8.1108 9.02129 8.55273C9.18572 8.99447 9.32389 9.45744 9.40898 9.88281C9.48713 10.2736 9.547 10.7566 9.45684 11.1787C9.35039 11.6768 9.08419 12.0845 8.87285 12.3701C8.76441 12.5166 8.64932 12.6567 8.55547 12.7725C8.5978 12.9012 8.66894 13.0639 8.78105 13.2578C8.98816 13.6159 9.2913 14.0032 9.64824 14.3623C10.0049 14.721 10.3918 15.0283 10.7518 15.2412C10.933 15.3483 11.0897 15.4196 11.2166 15.4658C11.3268 15.3688 11.4567 15.2554 11.5936 15.1475C11.883 14.9193 12.2967 14.6368 12.8152 14.5264C13.2388 14.4364 13.7242 14.4979 14.116 14.5771C14.5422 14.6635 15.0057 14.8036 15.448 14.9697C15.8911 15.1362 16.3375 15.338 16.7254 15.5566C17.0915 15.7631 17.4899 16.0305 17.7635 16.3525L18.0008 16.6328V18.3271C18.0007 20.2957 16.4874 22.2122 14.2703 22.0635C7.47083 21.606 2.39369 16.5204 1.93731 9.73047C1.78835 7.51326 3.70545 6.00014 5.67363 6H7.37188L7.65215 6.24121ZM5.67363 8C4.6012 8.00013 3.87872 8.77904 3.9334 9.5957C4.32257 15.3877 8.60436 19.678 14.4041 20.0684C15.2211 20.1229 16.0008 19.3997 16.0008 18.3271V17.458C15.9314 17.4113 15.846 17.357 15.743 17.2988C15.46 17.1393 15.11 16.979 14.7449 16.8418C14.3795 16.7046 14.0192 16.598 13.7186 16.5371C13.5692 16.5069 13.4455 16.4904 13.3514 16.4844C13.2512 16.478 13.2174 16.4854 13.2313 16.4824C13.1645 16.4968 13.0428 16.5516 12.8318 16.7178C12.731 16.7973 12.6281 16.8869 12.5086 16.9922C12.3966 17.0908 12.2611 17.2116 12.1248 17.3203C11.941 17.4668 11.7104 17.544 11.4754 17.5381C10.8571 17.5221 10.2462 17.2655 9.73418 16.9629C9.20415 16.6495 8.68465 16.2305 8.2293 15.7725C7.77404 15.3145 7.35807 14.7922 7.04961 14.2588C6.75188 13.7438 6.50082 13.1266 6.50078 12.5C6.50078 12.29 6.56743 12.0853 6.69023 11.915C6.79238 11.7735 6.90498 11.6335 6.9998 11.5166C7.10081 11.3921 7.18726 11.2863 7.26543 11.1807C7.42951 10.9589 7.48667 10.8313 7.50176 10.7607C7.49859 10.7756 7.50602 10.7425 7.4998 10.6416C7.494 10.5475 7.47798 10.4241 7.44805 10.2744C7.388 9.9744 7.28306 9.61583 7.14727 9.25098C7.01162 8.8866 6.85308 8.53761 6.69512 8.25488C6.63827 8.15317 6.58472 8.0689 6.53887 8H5.67363Z" fill="#000000"/>
<path d="M17.4998 1C20.8498 1 22.9998 3.6019 22.9998 6.47363C22.9998 8.43785 22.2878 10.165 21.2762 11.4092C20.2888 12.6236 18.9052 13.5 17.4998 13.5C16.9476 13.4999 16.4998 13.0522 16.4998 12.5V10.8369C14.0598 10.4485 11.9998 8.64995 11.9998 5.94727C11.9998 4.50193 12.5424 3.23267 13.5564 2.33594C14.5589 1.44977 15.9378 1.00004 17.4998 1ZM17.4998 3C16.3122 3.00004 15.4406 3.33984 14.8807 3.83496C14.3326 4.31975 13.9998 5.02456 13.9998 5.94727C13.9998 7.61813 15.4403 8.91691 17.4998 8.91699H18.4998V11.2012C18.9003 10.9812 19.3263 10.6358 19.7234 10.1475C20.4619 9.23924 20.9998 7.9524 20.9998 6.47363C20.9998 4.60857 19.6498 3 17.4998 3Z" fill="#000000"/>
</svg>
