<svg xmlns="http://www.w3.org/2000/svg" width="20" height="20" viewBox="0 0 20 20" fill="none"><rect width="20" height="20" fill="none"/>
<path d="M12.4999 13.0001C13.8805 13.0001 14.9997 14.1196 14.9999 15.5001C14.9999 16.8808 13.8806 18.0001 12.4999 18.0001C11.1194 17.9998 9.99988 16.8806 9.99988 15.5001C10.0001 14.1197 11.1195 13.0004 12.4999 13.0001ZM12.4999 14.5001C11.948 14.5004 11.5001 14.9482 11.4999 15.5001C11.4999 16.0522 11.9478 16.4998 12.4999 16.5001C13.0522 16.5001 13.4999 16.0524 13.4999 15.5001C13.4997 14.948 13.052 14.5001 12.4999 14.5001Z" fill="#000000"/>
<path d="M6.53015 6.53037L5.03015 8.03037C4.21867 8.8419 4.21894 10.1581 5.03015 10.9698C5.84181 11.7815 7.15792 11.7815 7.9696 10.9698L10.9696 7.96982C12.3669 6.57251 14.6327 6.57281 16.0301 7.96982C17.4276 9.36729 17.4276 11.6329 16.0301 13.0304L14.9696 11.9698C15.7813 11.1581 15.7813 9.84205 14.9696 9.03037C14.1579 8.21914 12.8417 8.21885 12.0301 9.03037L9.03015 12.0304C7.63268 13.4278 5.36705 13.4278 3.9696 12.0304C2.5726 10.6329 2.57234 8.36714 3.9696 6.96982L5.4696 5.46982L6.53015 6.53037Z" fill="#000000"/>
<path d="M9.89148 1.51182C10.0581 1.47482 10.2326 1.52605 10.3534 1.64658C10.4742 1.76737 10.5251 1.94173 10.4882 2.1085L9.59949 6.1085C9.5599 6.28664 9.42607 6.42954 9.25085 6.48057C9.0758 6.53139 8.88663 6.48248 8.75769 6.35361L5.64636 3.24228C5.51775 3.11327 5.46848 2.92407 5.51941 2.74912C5.57045 2.57415 5.71359 2.44016 5.89148 2.40049L9.89148 1.51182Z" fill="#000000"/>
</svg>
