<svg xmlns="http://www.w3.org/2000/svg" width="20" height="20" viewBox="0 0 20 20" fill="none"><rect width="20" height="20" fill="none"/>
<path d="M8.43945 2.15368C10.2547 1.79265 12.1392 2.07226 13.7715 2.9447C15.4035 3.8172 16.6824 5.22907 17.3906 6.93884C18.0986 8.64847 18.1933 10.5509 17.6562 12.3217C17.119 14.0925 15.9839 15.6235 14.4453 16.6517C12.9065 17.6799 11.0576 18.1426 9.21582 17.9613C7.37406 17.7798 5.65144 16.9652 4.34277 15.6566L5.75781 14.2426C6.73926 15.2238 8.03095 15.835 9.41211 15.9711C10.7932 16.107 12.179 15.7596 13.333 14.9886C14.487 14.2176 15.3392 13.0696 15.7422 11.7416C16.145 10.4134 16.074 8.98574 15.543 7.70349C15.0118 6.42131 14.052 5.36271 12.8281 4.70837C11.6041 4.05428 10.1903 3.84394 8.8291 4.11462C7.46795 4.38552 6.24278 5.12092 5.3623 6.19372C4.48192 7.26661 4.00107 8.61152 4.00098 9.99939H1.99902C1.99911 8.14875 2.64144 6.35479 3.81543 4.92419C4.98958 3.4935 6.6242 2.51477 8.43945 2.15368Z" fill="#000000"/>
<path d="M3.35352 12.6869L5.82812 13.0404C6.01542 13.0673 6.1716 13.1978 6.23145 13.3773C6.29117 13.5569 6.24508 13.7552 6.11133 13.889L3.98926 16.0101C3.85537 16.1438 3.65706 16.191 3.47754 16.1312C3.29826 16.0713 3.16764 15.915 3.14062 15.7279L2.78711 13.2533C2.76488 13.0977 2.8177 12.9397 2.92871 12.8285C3.03998 12.7172 3.19774 12.6647 3.35352 12.6869Z" fill="#000000"/>
<path d="M12.25 10.9994C12.9402 10.9994 13.4998 11.5592 13.5 12.2494C13.4999 12.9396 12.9403 13.4994 12.25 13.4994C11.5598 13.4993 11.0001 12.9396 11 12.2494C11.0002 11.5593 11.5598 10.9994 12.25 10.9994Z" fill="#000000"/>
<path d="M13.207 8.20642L8.20703 13.2064L6.79297 11.7924L11.793 6.79236L13.207 8.20642Z" fill="#000000"/>
<path d="M7.75 6.49939C8.4402 6.49939 8.99975 7.05924 9 7.74939C8.99985 8.43961 8.44026 8.99939 7.75 8.99939C7.05974 8.99939 6.50015 8.43961 6.5 7.74939C6.50025 7.05924 7.0598 6.49939 7.75 6.49939Z" fill="#000000"/>
</svg>
