<svg xmlns="http://www.w3.org/2000/svg" width="20" height="20" viewBox="0 0 20 20" fill="none"><rect width="20" height="20" fill="none"/>
<path d="M16.0001 16C17.6566 16.0004 19.0001 17.3434 19.0001 19H13.0001C13.0001 17.3433 14.3434 16.0002 16.0001 16Z" fill="#000000"/>
<path d="M10.0011 2C11.0479 2.0002 12.054 2.29638 12.7638 2.56641C13.1251 2.70395 13.4285 2.84203 13.6417 2.94629C13.7478 2.99819 13.8343 3.04307 13.8947 3.0752C13.9242 3.09095 13.9496 3.10472 13.9669 3.11426C13.9751 3.11874 13.9832 3.12308 13.9884 3.12598C13.9907 3.12729 13.9953 3.12988 13.9953 3.12988L13.9972 3.13184H13.9992C14.2694 3.28646 14.4538 3.55949 14.4953 3.86816C14.5362 4.17654 14.4309 4.48789 14.2111 4.70801L11.6896 7.22656L13.8742 8.31934C14.2446 8.50466 14.5869 8.73483 14.8956 9H10.7628L10.0011 8.61914L7.02259 10.1084C6.27101 10.4845 5.7106 11.1597 5.47963 11.9678L5.0558 13.4512C4.69159 14.7282 5.65063 16.0005 6.97865 16.001H11.0001V18.001H6.97865C4.32201 18.0005 2.40303 15.4569 3.13197 12.9023L3.55677 11.418C3.94177 10.0709 4.87513 8.94616 6.12806 8.31934L8.31263 7.22656L5.79701 4.70801C5.5772 4.48792 5.47191 4.17648 5.51283 3.86816C5.55416 3.55992 5.73725 3.28758 6.00697 3.13281L6.00892 3.13184L6.01185 3.13086L6.0392 3.11523C6.05648 3.10567 6.08194 3.09194 6.11146 3.07617C6.17174 3.04399 6.25833 2.9993 6.36439 2.94727C6.57719 2.84292 6.87962 2.70402 7.24037 2.56641C7.94912 2.2962 8.9541 2.00015 10.0011 2ZM10.0011 4.00098C9.40989 4.00111 8.78717 4.14704 8.24623 4.33008L10.0021 6.08594L11.7589 4.33008C11.2166 4.14688 10.5926 4.00115 10.0011 4.00098Z" fill="#000000"/>
<path d="M16.0001 11C17.1044 11.0004 18.0001 11.8957 18.0001 13C18.0001 14.1043 17.1044 14.9996 16.0001 15C14.8957 14.9998 14.0001 14.1044 14.0001 13C14.0001 11.8956 14.8957 11.0002 16.0001 11Z" fill="#000000"/>
</svg>
