<svg xmlns="http://www.w3.org/2000/svg" width="20" height="20" viewBox="0 0 20 20" fill="none"><rect width="20" height="20" fill="none"/>
<path d="M17.5767 6.82422C17.8357 6.94938 18.0004 7.21231 18.0005 7.5C18.0005 7.7877 17.8357 8.05058 17.5767 8.17578L16.0005 8.93652V13.0303C16.0003 13.9974 15.4786 14.8901 14.6362 15.3652C11.7588 16.9877 8.24219 16.9876 5.36475 15.3652C4.52217 14.8901 4.00064 13.9976 4.00049 13.0303V8.93652L2.42432 8.17578C2.16511 8.05065 2.00049 7.78784 2.00049 7.5C2.00054 7.21222 2.16515 6.94933 2.42432 6.82422L10.0005 3.16699L17.5767 6.82422ZM10.0005 11.833L5.50049 9.66016V13.0303C5.50064 13.4562 5.73004 13.8494 6.10107 14.0586C8.52136 15.4233 11.4797 15.4234 13.8999 14.0586C14.2708 13.8493 14.5003 13.4561 14.5005 13.0303V9.66016L10.0005 11.833ZM4.47607 7.5L10.0005 10.166L15.5239 7.5L10.0005 4.83301L4.47607 7.5Z" fill="#000000"/>
</svg>
