<svg xmlns="http://www.w3.org/2000/svg" width="20" height="20" viewBox="0 0 20 20" fill="none"><rect width="20" height="20" fill="none"/>
<path d="M15.7501 14.25H19.0001V15.75H15.7501V19H14.2501V15.75H11.0001V14.25H14.2501V11H15.7501V14.25Z" fill="#000000"/>
<path d="M10.0001 2C11.0039 2.00005 11.9773 2.2848 12.6739 2.5498C13.0272 2.68425 13.3234 2.81922 13.5314 2.9209C13.6349 2.97157 13.7183 3.01494 13.7765 3.0459C13.805 3.06107 13.8285 3.07399 13.8448 3.08301C13.8526 3.0873 13.8605 3.09107 13.8653 3.09375C13.8672 3.09482 13.8712 3.09766 13.8712 3.09766L13.8731 3.09863L13.8741 3.09961C14.0732 3.21326 14.2098 3.41204 14.2442 3.63867C14.2783 3.86502 14.2071 4.09534 14.0509 4.2627L11.2472 7.26465L13.922 8.53809C14.1945 8.66787 14.4511 8.82418 14.6905 9H11.4044L10.0001 8.33105L6.72276 9.89258C5.87225 10.2982 5.23813 11.0536 4.98741 11.9619L4.52061 13.6523C4.12636 15.0842 5.20448 16.4999 6.68955 16.501H9.0001V18.001H6.68955C4.21365 17.9999 2.41763 15.6409 3.0753 13.2539L3.54112 11.5635C3.90756 10.2354 4.83458 9.13087 6.07823 8.53809L8.75303 7.26367L5.9542 4.2627C5.79849 4.09546 5.72794 3.86463 5.76182 3.63867C5.79606 3.41274 5.9329 3.2135 6.13096 3.09961L6.13389 3.09766C6.13389 3.09766 6.13784 3.09571 6.13975 3.09473C6.14428 3.09218 6.1519 3.08806 6.15928 3.08398C6.17544 3.07504 6.20021 3.06204 6.22862 3.04688C6.28647 3.01598 6.36965 2.9715 6.47276 2.9209C6.68003 2.81925 6.97581 2.68426 7.32823 2.5498C8.02354 2.28467 8.99614 2.00023 10.0001 2ZM10.0001 3.50098C9.25537 3.50122 8.47748 3.7176 7.86241 3.95215C7.82683 3.96577 7.79106 3.98158 7.75694 3.99512L10.0001 6.40137L12.2472 3.99512C12.2126 3.98142 12.1768 3.96588 12.1407 3.95215C11.5238 3.71746 10.745 3.50102 10.0001 3.50098Z" fill="#000000"/>
</svg>
