<svg xmlns="http://www.w3.org/2000/svg" width="20" height="20" viewBox="0 0 20 20" fill="none"><rect width="20" height="20" fill="none"/>
<path d="M14 10C16.2091 10 18 11.7909 18 14C18 14.7417 17.7971 15.4358 17.4453 16.0312L19.207 17.793L17.793 19.207L16.0312 17.4453C15.4358 17.7971 14.7417 18 14 18C11.7909 18 10 16.2091 10 14C10 11.7909 11.7909 10 14 10ZM14 12C12.8954 12 12 12.8954 12 14C12 15.1046 12.8954 16 14 16C15.1046 16 16 15.1046 16 14C16 12.8954 15.1046 12 14 12Z" fill="#000000"/>
<path d="M10.8965 5H15C16.6568 5.00001 18 6.34316 18 8V9H16V8C16 7.44773 15.5523 7.00001 15 7H10.1045L9.81543 6.72949L7.97363 5H5C4.44772 5 4 5.44772 4 6V14C4 14.5523 4.44772 15 5 15H8V17H5C3.34315 17 2 15.6569 2 14V6C2 4.34315 3.34315 3 5 3H8.76562L10.8965 5Z" fill="#000000"/>
</svg>
