<svg xmlns="http://www.w3.org/2000/svg" width="20" height="20" viewBox="0 0 20 20" fill="none"><rect width="20" height="20" fill="none"/>
<path d="M9.99947 4.99919C10.5516 4.99919 10.9991 5.44717 10.9995 5.99919C10.9995 6.55147 10.5518 6.99919 9.99947 6.99919C9.44747 6.99884 8.99947 6.55126 8.99947 5.99919C8.99978 5.44739 9.44767 4.99953 9.99947 4.99919Z" fill="#000000"/>
<path d="M10.3735 2.01286C11.0276 2.06193 11.6667 2.23988 12.2524 2.53532C12.8383 2.83106 13.3613 3.24013 13.7895 3.73747C14.2176 4.23495 14.5432 4.81328 14.7485 5.43669C14.9536 6.06013 15.0348 6.71872 14.9858 7.37321C14.9367 8.0276 14.759 8.66627 14.4633 9.25212C14.1674 9.83823 13.7588 10.361 13.2612 10.7892C13.1766 10.862 13.0885 10.9305 12.9995 10.9972V14.4377C12.9994 15.8142 12.0625 17.014 10.727 17.3478L8.24165 17.9689C7.94314 18.0433 7.62675 17.9766 7.38423 17.7873C7.14193 17.5978 6.99947 17.3068 6.99947 16.9992V10.9972C6.71146 10.7811 6.44529 10.535 6.20943 10.2609C5.78144 9.76339 5.45559 9.18508 5.25044 8.56169C5.04545 7.93831 4.96412 7.27955 5.01314 6.62516C5.06229 5.97092 5.24 5.33199 5.5356 4.74626C5.83144 4.16028 6.24023 3.63737 6.73775 3.20915C7.23527 2.78098 7.81349 2.45543 8.43697 2.25016C9.0603 2.04508 9.71911 1.96395 10.3735 2.01286ZM10.2241 4.00798C9.83159 3.97869 9.43584 4.02658 9.06197 4.14958C8.68798 4.27274 8.34088 4.46891 8.04243 4.72575C7.74412 4.9826 7.49916 5.29622 7.32173 5.64763C7.14443 5.99893 7.03779 6.38218 7.00825 6.77458C6.97886 7.16707 7.02696 7.56278 7.14986 7.93669C7.2729 8.3106 7.46936 8.65778 7.72603 8.95622C7.98274 9.25444 8.29669 9.49948 8.6479 9.67692C8.76146 9.73424 8.88009 9.78207 8.99947 9.82438V15.7179L10.2417 15.4074C10.6868 15.2961 10.9994 14.8965 10.9995 14.4377V9.82438C11.3494 9.70049 11.6749 9.51496 11.9565 9.27263C12.2549 9.01572 12.4997 8.70228 12.6772 8.35075C12.8545 7.99932 12.9612 7.61633 12.9907 7.2238C13.02 6.8312 12.9721 6.43567 12.8491 6.06169C12.7259 5.68776 12.5297 5.34056 12.2729 5.04216C12.0161 4.74402 11.7023 4.49878 11.351 4.32145C10.9998 4.14431 10.6164 4.03744 10.2241 4.00798Z" fill="#000000"/>
</svg>
