<svg xmlns="http://www.w3.org/2000/svg" width="24" height="24" viewBox="0 0 24 24" fill="none"><rect width="24" height="24" fill="none"/>
<path d="M17 12C17 14.7614 14.7614 17 12 17V17.5C12 17.6782 11.9051 17.8432 11.751 17.9326C11.5969 18.022 11.4066 18.0229 11.252 17.9346L7.75195 15.9346C7.59617 15.8455 7.5 15.6794 7.5 15.5C7.5 15.3206 7.59617 15.1545 7.75195 15.0654L11.252 13.0654C11.4066 12.9771 11.5969 12.978 11.751 13.0674C11.9051 13.1568 12 13.3218 12 13.5V15C13.6569 15 15 13.6569 15 12H17Z" fill="#000000"/>
<path d="M12.249 5.56738C12.4031 5.478 12.5934 5.47713 12.748 5.56543L16.248 7.56543C16.4038 7.65445 16.5 7.82057 16.5 8C16.5 8.17943 16.4038 8.34555 16.248 8.43457L12.748 10.4346C12.5934 10.5229 12.4031 10.522 12.249 10.4326C12.0949 10.3432 12 10.1782 12 10V9C10.3431 9 9 10.3431 9 12H7C7 9.23858 9.23858 7 12 7V6C12 5.82176 12.0949 5.65684 12.249 5.56738Z" fill="#000000"/>
<path d="M12 2C17.5228 2 22 6.47715 22 12C22 17.5228 17.5228 22 12 22C6.47715 22 2 17.5228 2 12C2 6.47715 6.47715 2 12 2ZM12 4C7.58172 4 4 7.58172 4 12C4 16.4183 7.58172 20 12 20C16.4183 20 20 16.4183 20 12C20 7.58172 16.4183 4 12 4Z" fill="#000000"/>
</svg>
