<svg xmlns="http://www.w3.org/2000/svg" width="20" height="20" viewBox="0 0 20 20" fill="none"><rect width="20" height="20" fill="none"/>
<path d="M6.75 5.09766C8.04354 5.43095 9 6.60239 9 8C9 9.39761 8.04354 10.569 6.75 10.9023V18H5.25V10.9023C3.95647 10.569 3 9.39761 3 8C3 6.60239 3.95647 5.43095 5.25 5.09766V2H6.75V5.09766ZM6 6.5C5.17157 6.5 4.5 7.17157 4.5 8C4.5 8.82843 5.17157 9.5 6 9.5C6.82843 9.5 7.5 8.82843 7.5 8C7.5 7.17157 6.82843 6.5 6 6.5Z" fill="#000000"/>
<path d="M14.75 9.09766C16.0435 9.43095 17 10.6024 17 12C17 13.3976 16.0435 14.569 14.75 14.9023V18H13.25V14.9023C11.9565 14.569 11 13.3976 11 12C11 10.6024 11.9565 9.43095 13.25 9.09766V2H14.75V9.09766ZM14 10.5C13.1716 10.5 12.5 11.1716 12.5 12C12.5 12.8284 13.1716 13.5 14 13.5C14.8284 13.5 15.5 12.8284 15.5 12C15.5 11.1716 14.8284 10.5 14 10.5Z" fill="#000000"/>
</svg>
