<svg xmlns="http://www.w3.org/2000/svg" width="20" height="20" viewBox="0 0 20 20" fill="none"><rect width="20" height="20" fill="none"/>
<path d="M13.4062 2.25C14.8657 2.25005 16.0487 3.43312 16.0488 4.89258V5C16.0488 5.45058 15.9382 5.87468 15.7461 6.25H16.2998C17.2663 6.25 18.0498 7.0335 18.0498 8V10C18.0498 10.6977 17.6405 11.298 17.0498 11.5791V15.2998C17.0498 16.8186 15.8186 18.0498 14.2998 18.0498H5.7002C4.18141 18.0498 2.9502 16.8186 2.9502 15.2998V11.5791C2.35948 11.298 1.9502 10.6977 1.9502 10V8C1.9502 7.0335 2.7337 6.25 3.7002 6.25H4.25195C4.05986 5.87468 3.94922 5.45058 3.94922 5V4.89258C3.94937 3.43312 5.13232 2.25005 6.5918 2.25C8.00192 2.25 9.24734 2.95265 9.99902 4.02637C10.7507 2.95265 11.9961 2.25 13.4062 2.25ZM4.4502 15.2998C4.4502 15.9902 5.00984 16.5498 5.7002 16.5498H9.25V11.75H4.4502V15.2998ZM10.75 16.5498H14.2998C14.9902 16.5498 15.5498 15.9902 15.5498 15.2998V11.75H10.75V16.5498ZM3.7002 7.75C3.56212 7.75 3.4502 7.86193 3.4502 8V10C3.4502 10.1381 3.56212 10.25 3.7002 10.25H9.25V7.75H3.7002ZM10.75 10.25H16.2998C16.4379 10.25 16.5498 10.1381 16.5498 10V8C16.5498 7.86193 16.4379 7.75 16.2998 7.75H10.75V10.25ZM6.5918 3.75C5.96075 3.75005 5.44937 4.26155 5.44922 4.89258V5C5.44922 5.69036 6.00886 6.25 6.69922 6.25H9.24121C9.1598 4.85574 8.00648 3.75 6.5918 3.75ZM13.4062 3.75C11.9916 3.75 10.8383 4.85574 10.7568 6.25H13.2988C13.9892 6.25 14.5488 5.69036 14.5488 5V4.89258C14.5487 4.26155 14.0373 3.75005 13.4062 3.75Z" fill="#000000"/>
</svg>
