<svg xmlns="http://www.w3.org/2000/svg" width="20" height="20" viewBox="0 0 20 20" fill="none"><rect width="20" height="20" fill="none"/>
<path d="M18.707 13.707L13.5 18.9141L10.293 15.707L11.707 14.293L13.5 16.0859L17.293 12.293L18.707 13.707Z" fill="#000000"/>
<path d="M8 3H12V1H14V3H15C16.6569 3 18 4.34315 18 6V10H16V9H4V15C4 15.5523 4.44772 16 5 16H8V18H5C3.34315 18 2 16.6569 2 15V6C2 4.34315 3.34315 3 5 3H6V1H8V3ZM5 5C4.44772 5 4 5.44772 4 6V7H16V6C16 5.44772 15.5523 5 15 5H5Z" fill="#000000"/>
</svg>
