<svg xmlns="http://www.w3.org/2000/svg" width="24" height="24" viewBox="0 0 24 24" fill="none"><rect width="24" height="24" fill="none"/>
<path d="M8.24316 13.5713C8.39745 13.4789 8.58951 13.476 8.74609 13.5645C8.90284 13.6532 8.99999 13.8199 9 14V16H20V18H9V20C9 20.1801 8.90284 20.3468 8.74609 20.4356C8.58951 20.524 8.39745 20.5212 8.24316 20.4287L3.24316 17.4287L3.18945 17.3916C3.07079 17.2975 3 17.1538 3 17C3.00001 16.8244 3.09257 16.6617 3.24316 16.5713L8.24316 13.5713Z" fill="#000000"/>
<path d="M15.2539 3.56446C15.4105 3.476 15.6026 3.47888 15.7568 3.5713L20.7568 6.5713L20.8105 6.60841C20.9292 6.70249 21 6.84624 21 7.00001C21 7.17564 20.9074 7.33836 20.7568 7.42872L15.7568 10.4287C15.6025 10.5212 15.4105 10.524 15.2539 10.4356C15.0972 10.3468 15 10.1801 15 10V8.00001H4V6.00001H15V4.00001C15 3.81989 15.0972 3.65321 15.2539 3.56446Z" fill="#000000"/>
</svg>
