<svg xmlns="http://www.w3.org/2000/svg" width="24" height="24" viewBox="0 0 24 24" fill="none"><rect width="24" height="24" fill="none"/>
<path d="M13 15H7V13H13V15Z" fill="#000000"/>
<path d="M16 11H7V9H16V11Z" fill="#000000"/>
<path d="M9.40234 2.49902C9.92308 3.39871 10.8919 4 12 4C13.1086 4 14.0781 3.39853 14.5986 2.49902L14.8867 2H21V22H14.8867L14.5986 21.501C14.0781 20.6015 13.1086 20 12 20C10.8919 20 9.92308 20.6013 9.40234 21.501L9.11328 22H3V2H9.11328L9.40234 2.49902ZM5 20H8.00391C8.91449 18.7884 10.3633 18 12 18C13.6368 18 15.0872 18.7877 15.998 20H19V4H15.998C15.0872 5.21226 13.6368 6 12 6C10.3633 6 8.91449 5.21161 8.00391 4H5V20Z" fill="#000000"/>
</svg>
