<svg xmlns="http://www.w3.org/2000/svg" width="24" height="24" viewBox="0 0 24 24" fill="none"><rect width="24" height="24" fill="none"/>
<path d="M15.5004 15C15.6864 15.0002 15.8576 15.1047 15.9437 15.2695C16.0295 15.4346 16.0161 15.6346 15.9095 15.7871L12.4105 20.7871C12.3171 20.9203 12.164 20.9997 12.0013 21C11.8795 20.9998 11.7621 20.9552 11.6722 20.877L11.5912 20.7871L8.09117 15.7871C7.98475 15.6346 7.97128 15.4346 8.05699 15.2695C8.14307 15.1046 8.31434 15.0002 8.50035 15H15.5004Z" fill="#000000"/>
<path d="M11.9984 3C12.1204 2.99999 12.2375 3.04472 12.3275 3.12305L12.4086 3.21289L15.9086 8.21289C16.0153 8.36551 16.0286 8.56522 15.9427 8.73047C15.8565 8.89543 15.6856 9 15.4994 9H8.49938C8.31337 8.99969 8.14203 8.89543 8.05602 8.73047C7.97036 8.56547 7.98386 8.36537 8.0902 8.21289L11.5892 3.21289C11.6825 3.07973 11.8358 3.00043 11.9984 3Z" fill="#000000"/>
</svg>
