<svg xmlns="http://www.w3.org/2000/svg" width="20" height="20" viewBox="0 0 20 20" fill="none"><rect width="20" height="20" fill="none"/>
<path d="M17.5 11.9999C17.4999 14.4851 15.4852 16.4999 13 16.4999H8V17.4999C7.99993 17.6816 7.90111 17.8493 7.74219 17.9374C7.58336 18.0253 7.38934 18.0198 7.23535 17.9237L3.23535 15.4237C3.08922 15.3324 3.00007 15.1722 3 14.9999C3 14.8275 3.08921 14.6674 3.23535 14.5761L7.23535 12.0761C7.38938 11.9799 7.58331 11.9745 7.74219 12.0624C7.90111 12.1505 8 12.3182 8 12.4999V13.4999H13C13.8284 13.4999 14.4999 12.8282 14.5 11.9999V9.9999H17.5V11.9999Z" fill="#000000"/>
<path d="M12.2578 2.0624C12.4167 1.97445 12.6106 1.97989 12.7646 2.07607L16.7646 4.57607C16.9108 4.66745 17 4.82754 17 4.9999C16.9999 5.17222 16.9108 5.33239 16.7646 5.42373L12.7646 7.92373C12.6107 8.01984 12.4166 8.02528 12.2578 7.9374C12.0989 7.84932 12.0001 7.68158 12 7.4999V6.4999H7C6.17157 6.4999 5.5 7.17147 5.5 7.9999V9.9999H2.5V7.9999C2.5 5.51462 4.51472 3.4999 7 3.4999H12V2.4999C12 2.31817 12.0989 2.15052 12.2578 2.0624Z" fill="#000000"/>
</svg>
