<svg xmlns="http://www.w3.org/2000/svg" width="24" height="24" viewBox="0 0 24 24" fill="none"><rect width="24" height="24" fill="none"/>
<path d="M12.0005 2C14.314 2.00006 16.4567 2.40878 18.0581 3.10938C18.857 3.45895 19.5667 3.9009 20.0903 4.44238C20.6186 4.9889 21.0005 5.68601 21.0005 6.5C21.0005 7.05951 20.817 7.56196 20.5327 8H20.5347L15.9663 14.8525L15.5288 18.7949C15.4996 19.0577 15.4373 19.408 15.2544 19.7549C15.0088 20.2201 14.4615 21.0274 13.4282 21.5176C12.3655 22.0215 10.9532 22.1135 9.14795 21.4365L8.55518 21.2139L8.50342 20.583L8.02393 14.8398L3.46436 8H3.46729C3.18297 7.56196 3.00049 7.05951 3.00049 6.5C3.00049 5.68589 3.38225 4.98894 3.91064 4.44238C4.43432 3.90092 5.14393 3.45892 5.94287 3.10938C7.54431 2.40884 9.68698 2 12.0005 2ZM16.5112 10.4287C15.1793 10.7946 13.6328 11 12.0005 11C10.3677 11 8.82009 10.7948 7.48779 10.4287L9.68896 13.7305C9.87657 14.0119 9.98897 14.3367 10.0171 14.6738L10.4399 19.7539C11.5008 20.0433 12.1669 19.9023 12.5708 19.7109C13.0732 19.4726 13.3537 19.0706 13.4849 18.8223C13.4988 18.7959 13.5231 18.7299 13.5405 18.5732L13.979 14.6318C14.0143 14.3143 14.1252 14.009 14.3022 13.7432L16.5112 10.4287ZM12.0005 4C9.89619 4 8.03855 4.37543 6.74463 4.94141C6.09635 5.22503 5.63406 5.53736 5.34814 5.83301C5.06701 6.12385 5.00049 6.34764 5.00049 6.5C5.00049 6.65236 5.06701 6.87615 5.34814 7.16699C5.63406 7.46264 6.09635 7.77497 6.74463 8.05859C8.03855 8.62457 9.89619 9 12.0005 9C14.1048 8.99994 15.9625 8.62463 17.2563 8.05859C17.9046 7.77494 18.367 7.46265 18.6528 7.16699C18.9338 6.87627 19.0005 6.65232 19.0005 6.5C19.0005 6.34768 18.9338 6.12373 18.6528 5.83301C18.367 5.53735 17.9046 5.22506 17.2563 4.94141C15.9625 4.37537 14.1048 4.00006 12.0005 4Z" fill="#000000"/>
</svg>
