<svg xmlns="http://www.w3.org/2000/svg" width="20" height="20" viewBox="0 0 20 20" fill="none"><rect width="20" height="20" fill="none"/>
<path d="M11.0029 7.99609L13.002 8L12.998 10L11.0059 9.99609L11.0098 11.998L9.00977 12.002L9.00586 9.99316L6.99805 9.99023L7.00195 7.99023L9.00293 7.99316L9 6.00195L11 5.99805L11.0029 7.99609Z" fill="#000000"/>
<path d="M17 18.3877L13.0771 17.0791L10 18.6182L6.92188 17.0791L3 18.3877V2H17V18.3877ZM5 15.6123L6.68359 15.0518L7.07715 14.9199L7.44727 15.1055L10 16.3818L12.5527 15.1055L12.9229 14.9199L13.3164 15.0518L15 15.6123V4H5V15.6123Z" fill="#000000"/>
</svg>
