<svg xmlns="http://www.w3.org/2000/svg" width="24" height="24" viewBox="0 0 24 24" fill="none"><rect width="24" height="24" fill="none"/>
<path d="M22.707 15.7071L19.9141 18.5001L22.707 21.293L21.293 22.7071L18.5 19.9141L15.707 22.7071L14.293 21.293L17.0859 18.5001L14.293 15.7071L15.707 14.293L18.5 17.086L21.293 14.293L22.707 15.7071Z" fill="#000000"/>
<path d="M9.40332 2.19734C9.65676 2.00904 9.98465 1.95145 10.2871 2.04207L21 5.25594V12.0001H19V6.74422L11 4.34383V19.0001H12V21.0001H3V11.0001L9 8.75008V3.00008L9.00684 2.88289C9.03891 2.61161 9.18142 2.36245 9.40332 2.19734ZM5 12.3858V19.0001H9V10.8858L5 12.3858Z" fill="#000000"/>
</svg>
