<svg xmlns="http://www.w3.org/2000/svg" width="20" height="20" viewBox="0 0 20 20" fill="none"><rect width="20" height="20" fill="none"/>
<path d="M19 18.9999H11V17.4999H19V18.9999Z" fill="#000000"/>
<path d="M6.77441 2.41986C6.94818 2.27741 7.17713 2.22052 7.39746 2.26459L18 4.38471V7.99994H16.5V5.6142L8 3.914V16.4999H9V17.9999H2V7.99994L6.5 7.24994V2.99994L6.50488 2.91596C6.52663 2.72296 6.62256 2.54442 6.77441 2.41986ZM3.5 9.27045V16.4999H6.5V8.77045L3.5 9.27045Z" fill="#000000"/>
<path d="M19 16.4999H11V14.9999H19V16.4999Z" fill="#000000"/>
<path d="M18.7959 11.1894L11.7959 14.1894L11.2051 12.8105L18.2051 9.81049L18.7959 11.1894Z" fill="#000000"/>
</svg>
