<svg xmlns="http://www.w3.org/2000/svg" width="20" height="20" viewBox="0 0 20 20" fill="none"><rect width="20" height="20" fill="none"/>
<path d="M16 3C17.1046 3 18 3.89543 18 5V12C18 13.1046 17.1046 14 16 14H12.75V15.25C12.75 15.9404 13.3096 16.5 14 16.5H15V18H5V16.5H6C6.69036 16.5 7.25 15.9404 7.25 15.25V14H4C2.89543 14 2 13.1046 2 12V5C2 3.89543 2.89543 3 4 3H16ZM8.75 15.25C8.75 15.7006 8.63935 16.1247 8.44727 16.5H11.5527C11.3606 16.1247 11.25 15.7006 11.25 15.25V14H8.75V15.25ZM4 4.5C3.72386 4.5 3.5 4.72386 3.5 5V12C3.5 12.2761 3.72386 12.5 4 12.5H16C16.2761 12.5 16.5 12.2761 16.5 12V5C16.5 4.72386 16.2761 4.5 16 4.5H4Z" fill="#000000"/>
</svg>
