<svg xmlns="http://www.w3.org/2000/svg" width="24" height="24" viewBox="0 0 24 24" fill="none"><rect width="24" height="24" fill="none"/>
<path d="M14 8.5V8C14 6.89543 13.1046 6 12 6H8V10.5H12V13.5H5V3H12L12.2568 3.00684C14.8989 3.14053 17 5.32472 17 8V8.5C17 11.2614 14.7614 13.5 12 13.5V10.5C13.1046 10.5 14 9.60457 14 8.5Z" fill="#000000"/>
<path d="M16 16V15.5C16 14.3954 15.1046 13.5 14 13.5H8V18H14V21H5V10.5H14L14.2568 10.5068C16.8989 10.6405 19 12.8247 19 15.5V16C19 18.6753 16.8989 20.8595 14.2568 20.9932L14 21V18C15.1046 18 16 17.1046 16 16Z" fill="#000000"/>
</svg>
