<svg xmlns="http://www.w3.org/2000/svg" width="24" height="24" viewBox="0 0 24 24" fill="none"><rect width="24" height="24" fill="none"/>
<path d="M12 17C13.1046 17 14 17.8954 14 19C14 20.1046 13.1046 21 12 21C10.8954 21 10 20.1046 10 19C10 17.8954 10.8954 17 12 17Z" fill="#000000"/>
<path d="M12 10.5C14.4513 10.5 16.6587 11.5392 18.21 13.1992L16.0928 15.3262C15.0859 14.2052 13.6254 13.5 12 13.5C10.3838 13.5 8.9301 14.1967 7.92383 15.3066L5.80176 13.1846C7.35241 11.5325 9.55541 10.5 12 10.5Z" fill="#000000"/>
<path d="M12 4C16.2623 4 20.1353 5.66665 23.0029 8.38379L20.8838 10.5127C18.5594 8.33524 15.4363 7 12 7C8.56717 7 5.44674 8.33232 3.12305 10.5059L0.999023 8.38184C3.86645 5.66582 7.7387 4 12 4Z" fill="#000000"/>
</svg>
