<svg xmlns="http://www.w3.org/2000/svg" width="20" height="20" viewBox="0 0 20 20" fill="none"><rect width="20" height="20" fill="none"/>
<path d="M15.5957 10.5001C16.047 10.5002 16.3517 10.6391 16.5703 10.8751C16.7833 11.1053 16.9063 11.4197 17.0146 11.7492L19.3008 18.7003H17.4287L16.9248 17.0783H14.0664L13.5234 18.7003H11.75L14.1494 11.7472C14.2636 11.4163 14.3931 11.1026 14.6113 10.8732C14.8351 10.6382 15.1442 10.5002 15.5957 10.5001ZM14.5879 15.5089H16.4277L15.5342 12.6427L14.5879 15.5089Z" fill="#000000"/>
<path d="M8.69726 2.10657C9.99496 1.89244 11.3258 2.00221 12.5713 2.42493C13.8169 2.8478 14.9396 3.57135 15.8389 4.53138C16.738 5.49148 17.387 6.65924 17.7275 7.92981L15.7959 8.44739C15.5405 7.49451 15.0532 6.61862 14.3789 5.89856C13.7045 5.17866 12.8628 4.63562 11.9287 4.31849C10.9945 4.0014 9.99585 3.91953 9.02245 4.0802C8.04905 4.24096 7.13037 4.63978 6.34765 5.24036C5.56501 5.84091 4.94237 6.62505 4.53515 7.52356C4.12799 8.42222 3.9482 9.40822 4.01269 10.3927C4.07727 11.377 4.38441 12.3304 4.90527 13.1681C5.42626 14.0058 6.14566 14.7031 6.99999 15.1964L5.99999 16.9279C4.86091 16.2701 3.90068 15.3417 3.20605 14.2247C2.51153 13.1077 2.10368 11.8361 2.01757 10.5236C1.93157 9.21089 2.16998 7.89661 2.71288 6.69837C3.25583 5.50013 4.08622 4.4543 5.12988 3.65345C6.17358 2.85261 7.39929 2.32088 8.69726 2.10657Z" fill="#000000"/>
<path d="M9.21972 6.07728C9.86471 5.94902 10.5318 5.98115 11.1611 6.172C11.7904 6.36295 12.3631 6.70703 12.8281 7.172L11.4141 8.58606C11.1817 8.35376 10.8954 8.18156 10.581 8.08606C10.2664 7.99066 9.93182 7.97411 9.60937 8.03821C9.28702 8.10241 8.98553 8.24574 8.73144 8.45423C8.47731 8.66279 8.27821 8.9308 8.15234 9.2345C8.02653 9.53827 7.97757 9.86921 8.00976 10.1964C8.04206 10.5235 8.15436 10.8382 8.33691 11.1115C8.51957 11.3847 8.76775 11.6088 9.05761 11.7638C9.3475 11.9186 9.67134 12.0001 9.99999 12.0001V14.0001C9.34235 14.0001 8.69427 13.8374 8.11425 13.5275C7.53446 13.2175 7.03916 12.7694 6.67382 12.2228C6.3085 11.676 6.08402 11.0462 6.01953 10.3917C5.9552 9.73746 6.05317 9.07726 6.30468 8.46985C6.55642 7.86218 6.95444 7.3256 7.46288 6.90833C7.9713 6.49115 8.57469 6.20559 9.21972 6.07728Z" fill="#000000"/>
</svg>
