<svg xmlns="http://www.w3.org/2000/svg" width="20" height="20" viewBox="0 0 20 20" fill="none"><rect width="20" height="20" fill="none"/>
<path d="M19.0297 12.0303L12.0297 19.0303L10.9691 17.9697L17.9691 10.9697L19.0297 12.0303Z" fill="#000000"/>
<path d="M17.4994 16C18.3278 16 18.9994 16.6716 18.9994 17.5C18.9994 18.3284 18.3278 19 17.4994 19C16.6712 18.9998 15.9994 18.3283 15.9994 17.5C15.9994 16.6717 16.6712 16.0002 17.4994 16Z" fill="#000000"/>
<path d="M10.0004 2C11.0041 2.00007 11.9776 2.28383 12.6742 2.54883C13.0274 2.68325 13.3237 2.81825 13.5316 2.91992C13.6351 2.97056 13.7186 3.01397 13.7767 3.04492C13.8052 3.06006 13.8288 3.07302 13.8451 3.08203C13.8528 3.0863 13.8608 3.09011 13.8656 3.09277C13.8676 3.09391 13.8715 3.09668 13.8715 3.09668L13.8734 3.09766L13.8744 3.09863C14.0734 3.21228 14.2101 3.41109 14.2445 3.6377C14.2788 3.86426 14.2075 4.09418 14.0512 4.26172L11.2484 7.2627L13.9252 8.53711C14.1984 8.66722 14.4557 8.82363 14.6957 9H11.4095L10.0033 8.33008L6.72596 9.8916C5.8751 10.2971 5.2414 11.0523 4.9906 11.9609L4.52381 13.6514C4.12879 15.0837 5.20712 16.4992 6.69275 16.5H9.0033V18H6.69275C4.21628 17.9992 2.42006 15.6404 3.0785 13.2529L3.54432 11.5625C3.91083 10.2341 4.83743 9.1298 6.08142 8.53711L8.75428 7.26367L5.95447 4.26172C5.7986 4.09427 5.72789 3.86392 5.76209 3.6377C5.79637 3.41153 5.93283 3.21246 6.13123 3.09863L6.13416 3.09668C6.13416 3.09668 6.13809 3.09478 6.14002 3.09375C6.14467 3.09114 6.15199 3.08719 6.15955 3.08301C6.17583 3.074 6.20026 3.06118 6.22889 3.0459C6.28685 3.01494 6.36968 2.97063 6.47303 2.91992C6.68041 2.81822 6.97588 2.68334 7.3285 2.54883C8.02388 2.28367 8.99634 2.00017 10.0004 2ZM10.0004 3.5C9.25558 3.50017 8.47782 3.7166 7.86267 3.95117C7.82694 3.96483 7.79149 3.98054 7.75721 3.99414L10.0004 6.40039L12.2474 3.99414C12.2129 3.98046 12.177 3.96489 12.141 3.95117C11.5241 3.71649 10.7452 3.50007 10.0004 3.5Z" fill="#000000"/>
<path d="M12.4994 11C13.3278 11 13.9994 11.6716 13.9994 12.5C13.9994 13.3284 13.3278 14 12.4994 14C11.6712 13.9997 10.9994 13.3283 10.9994 12.5C10.9994 11.6718 11.6712 11.0003 12.4994 11Z" fill="#000000"/>
</svg>
