<svg xmlns="http://www.w3.org/2000/svg" width="20" height="20" viewBox="0 0 20 20" fill="none"><rect width="20" height="20" fill="none"/>
<path d="M19.207 12.207L12.207 19.207L10.7929 17.793L17.7929 10.793L19.207 12.207Z" fill="#000000"/>
<path d="M17.5 16C18.3283 16 18.9999 16.6716 19 17.5C18.9999 18.3284 18.3283 19 17.5 19C16.6716 19 16 18.3284 16 17.5C16 16.6716 16.6716 16 17.5 16Z" fill="#000000"/>
<path d="M10.0009 2C11.0483 2.00004 12.0536 2.29528 12.7636 2.56543C13.1256 2.70318 13.4282 2.84094 13.6416 2.94531C13.7483 2.99751 13.834 3.04199 13.8945 3.07422C13.9247 3.0903 13.9493 3.10364 13.9668 3.11328C13.9755 3.11808 13.9829 3.12199 13.9882 3.125C13.9909 3.12647 13.9933 3.12789 13.9951 3.12891L13.997 3.13086H13.999C13.999 3.13086 13.9896 3.14863 13.5039 4L13.999 3.13086C14.2698 3.28541 14.4536 3.55818 14.4951 3.86719C14.5364 4.17601 14.4311 4.48666 14.2109 4.70703L11.6884 7.22559L13.873 8.31836C14.2444 8.50405 14.5872 8.7341 14.8965 9H10.7636L9.99997 8.61816L7.02145 10.1074C6.26941 10.4835 5.70952 11.1583 5.47848 11.9668L5.05465 13.4502C4.68957 14.7278 5.64872 16 6.97751 16H8.99997V18H6.97751C4.32009 18 2.40101 15.4565 3.13083 12.9014L3.55563 11.417C3.94069 10.0696 4.87352 8.94512 6.12692 8.31836L8.31247 7.22461L5.79684 4.70703C5.57667 4.48669 5.47136 4.17592 5.51266 3.86719C5.55402 3.55861 5.73661 3.28653 6.0068 3.13184L6.00876 3.13086L6.01169 3.12988L6.03903 3.11426C6.05649 3.10459 6.08115 3.0913 6.11129 3.0752C6.17175 3.04291 6.25751 2.99863 6.36422 2.94629C6.57722 2.84183 6.87879 2.70326 7.2402 2.56543C7.94917 2.2951 8.95336 2 10.0009 2ZM10.0009 4C9.40926 4 8.78739 4.14588 8.24606 4.3291L10.0019 6.08496L11.7588 4.3291C11.216 4.14573 10.5928 4.00004 10.0009 4Z" fill="#000000"/>
<path d="M12.5 11C13.3283 11 13.9999 11.6716 14 12.5C13.9999 13.3284 13.3283 14 12.5 14C11.6716 14 11 13.3284 11 12.5C11 11.6716 11.6716 11 12.5 11Z" fill="#000000"/>
</svg>
