<svg xmlns="http://www.w3.org/2000/svg" width="20" height="20" viewBox="0 0 20 20" fill="none"><rect width="20" height="20" fill="none"/>
<path d="M16.9745 11C18.369 11 19.4999 12.1309 19.4999 13.5254C19.4997 14.9197 18.3689 16.0498 16.9745 16.0498H15.4999V17H16.9999V18H15.4999V19H13.9999V18H12.9999V17H13.9999V16.0498H12.9999V14.5498H13.9999V11H16.9745ZM15.4999 14.5498H16.9745C17.5405 14.5498 17.9997 14.0913 17.9999 13.5254C17.9999 12.9593 17.5406 12.5 16.9745 12.5H15.4999V14.5498Z" fill="#000000"/>
<path d="M14.2997 2.95117C15.2655 2.95195 16.0497 3.73515 16.0497 4.70117V9H14.5497V4.70117C14.5497 4.56358 14.4371 4.45195 14.2997 4.45117H5.69911C5.56104 4.45117 5.44911 4.5631 5.44911 4.70117V9.95117H11.9999V11.4512H5.22743L3.76356 15.5508H10.9999V17.0508H2.69911C2.45544 17.0508 2.22636 16.9324 2.08583 16.7334C1.94533 16.534 1.91102 16.2785 1.99305 16.0488L3.94911 10.5713V4.70117C3.94911 3.73467 4.73261 2.95117 5.69911 2.95117H14.2997Z" fill="#000000"/>
<path d="M10.9999 14.5L7.99989 14.4502L8.49989 13H10.9999V14.5Z" fill="#000000"/>
</svg>
