<svg xmlns="http://www.w3.org/2000/svg" width="20" height="20" viewBox="0 0 20 20" fill="none"><rect width="20" height="20" fill="none"/>
<path d="M10 6C11.6569 6 13 7.34315 13 9C13 10.6569 11.6569 12 10 12C8.34315 12 7 10.6569 7 9C7 7.34315 8.34315 6 10 6ZM10 7.5C9.17157 7.5 8.5 8.17157 8.5 9C8.5 9.82843 9.17157 10.5 10 10.5C10.8284 10.5 11.5 9.82843 11.5 9C11.5 8.17157 10.8284 7.5 10 7.5Z" fill="#000000"/>
<path d="M10 2C13.9997 2 16.9999 4.9999 17 9C17 14.0159 11.8819 17.0342 10.3984 17.8037L10.3018 17.8467C10.0733 17.9329 9.82289 17.9185 9.60156 17.8037C8.11808 17.0342 3 14.0159 3 9C3.0001 4.9999 5.99987 2 10 2ZM10 3.5C6.82835 3.5 4.5001 5.82828 4.5 9C4.5 10.9646 5.49873 12.6153 6.81055 13.9385C7.95551 15.0933 9.24333 15.8976 10 16.3154C10.7567 15.8976 12.0445 15.0933 13.1895 13.9385C14.5013 12.6153 15.5 10.9646 15.5 9C15.4999 5.82833 13.1713 3.5 10 3.5Z" fill="#000000"/>
</svg>
