<svg xmlns="http://www.w3.org/2000/svg" width="20" height="20" viewBox="0 0 20 20" fill="none"><rect width="20" height="20" fill="none"/>
<path d="M7.2998 10.9492C8.2663 10.9492 9.0498 11.7327 9.0498 12.6992V16.2988C9.0497 17.2652 8.26624 18.0488 7.2998 18.0488H3.7002C2.73376 18.0488 1.9503 17.2652 1.9502 16.2988V12.6992C1.9502 11.7327 2.7337 10.9492 3.7002 10.9492H7.2998ZM3.7002 12.4492C3.56212 12.4492 3.4502 12.5611 3.4502 12.6992V16.2988C3.4503 16.4368 3.56219 16.5488 3.7002 16.5488H7.2998C7.43781 16.5488 7.5497 16.4368 7.5498 16.2988V12.6992C7.5498 12.5611 7.43787 12.4492 7.2998 12.4492H3.7002Z" fill="#000000"/>
<path d="M15.25 13.75H18V15.25H15.25V18H13.75V15.25H11V13.75H13.75V11H15.25V13.75Z" fill="#000000"/>
<path d="M7.2998 1.94922C8.2663 1.94922 9.0498 2.73272 9.0498 3.69922V7.29883C9.0497 8.26524 8.26624 9.04883 7.2998 9.04883H3.7002C2.73376 9.04883 1.9503 8.26524 1.9502 7.29883V3.69922C1.9502 2.73272 2.7337 1.94922 3.7002 1.94922H7.2998ZM3.7002 3.44922C3.56212 3.44922 3.4502 3.56115 3.4502 3.69922V7.29883C3.4503 7.43681 3.56219 7.54883 3.7002 7.54883H7.2998C7.43781 7.54883 7.5497 7.43681 7.5498 7.29883V3.69922C7.5498 3.56115 7.43787 3.44922 7.2998 3.44922H3.7002Z" fill="#000000"/>
<path d="M16.2998 1.94922C17.2663 1.94922 18.0498 2.73272 18.0498 3.69922V7.29883C18.0497 8.26524 17.2662 9.04883 16.2998 9.04883H12.7002C11.7338 9.04883 10.9503 8.26524 10.9502 7.29883V3.69922C10.9502 2.73272 11.7337 1.94922 12.7002 1.94922H16.2998ZM12.7002 3.44922C12.5621 3.44922 12.4502 3.56115 12.4502 3.69922V7.29883C12.4503 7.43681 12.5622 7.54883 12.7002 7.54883H16.2998C16.4378 7.54883 16.5497 7.43681 16.5498 7.29883V3.69922C16.5498 3.56115 16.4379 3.44922 16.2998 3.44922H12.7002Z" fill="#000000"/>
</svg>
