<svg xmlns="http://www.w3.org/2000/svg" width="20" height="20" viewBox="0 0 20 20" fill="none"><rect width="20" height="20" fill="none"/>
<path d="M12 5C13.6569 5 15 6.34315 15 8C15 9.65685 13.6569 11 12 11C10.3431 11 9 9.65685 9 8C9 6.34315 10.3431 5 12 5ZM12 7C11.4477 7 11 7.44772 11 8C11 8.55228 11.4477 9 12 9C12.5523 9 13 8.55228 13 8C13 7.44772 12.5523 7 12 7Z" fill="#000000"/>
<path d="M14 2C16.2091 2 18 3.79086 18 6V14C18 16.2091 16.2091 18 14 18H6C3.79086 18 2 16.2091 2 14V6C2 3.79086 3.79086 2 6 2H14ZM6.73438 13.2705C6.33844 12.8419 5.66153 12.8418 5.26562 13.2705L4.0791 14.5547C4.31966 15.3893 5.088 16 6 16H9.25488L6.73438 13.2705ZM6 4C4.89543 4 4 4.89543 4 6V11.7129C5.20551 10.6313 7.08176 10.6984 8.2041 11.9141L11.9766 16H14C15.1046 16 16 15.1046 16 14V6C16 4.89543 15.1046 4 14 4H6Z" fill="#000000"/>
</svg>
