<svg xmlns="http://www.w3.org/2000/svg" width="20" height="20" viewBox="0 0 20 20" fill="none"><rect width="20" height="20" fill="none"/>
<path d="M15.5957 10.5C16.0473 10.5 16.3527 10.6388 16.5713 10.875C16.7843 11.1052 16.9063 11.4195 17.0146 11.749L19.3008 18.7002H17.4297L16.9248 17.0791H14.0674L13.5234 18.7002H11.75L14.1504 11.748C14.2647 11.4169 14.3938 11.1026 14.6123 10.873C14.836 10.6381 15.1443 10.5 15.5957 10.5ZM14.5879 15.5098H16.4287L15.5342 12.6426L14.5879 15.5098Z" fill="#000000"/>
<path d="M17 6.96484V8H14.9473L10 4.70117L5 8.03516V15H9V17H3V6.96484L10 2.29785L17 6.96484Z" fill="#000000"/>
</svg>
