<svg xmlns="http://www.w3.org/2000/svg" width="20" height="20" viewBox="0 0 20 20" fill="none"><rect width="20" height="20" fill="none"/>
<path d="M18.5303 17.4697L17.4697 18.5303L15.8223 16.8828C15.5608 16.9575 15.2855 17 15 17H5C3.34315 17 2 15.6569 2 14V6C2 5.18689 2.32425 4.45027 2.84961 3.91016L1.46973 2.53027L2.53027 1.46973L18.5303 17.4697ZM3.91016 4.9707C3.65631 5.23938 3.5 5.6012 3.5 6V14C3.5 14.8284 4.17157 15.5 5 15.5H14.4395L3.91016 4.9707Z" fill="#000000"/>
<path d="M15 3C16.6565 3 17.9999 4.34196 18 5.99902V14.001C18 14.2861 17.9571 14.561 17.8828 14.8223L16.5 13.4395V8.5H11.5605L10.0605 7H16.5V5.99902C16.4999 5.17103 15.8287 4.5 15 4.5H7.56055L6.06055 3H15Z" fill="#000000"/>
</svg>
