<svg xmlns="http://www.w3.org/2000/svg" width="20" height="20" viewBox="0 0 20 20" fill="none"><rect width="20" height="20" fill="none"/>
<path d="M14 6C14.5523 6 15 6.44772 15 7V9C15 9.55228 14.5523 10 14 10H10C9.44772 10 9 9.55228 9 9V7C9 6.44772 9.44772 6 10 6H14Z" fill="#000000"/>
<path d="M15 3C16.6569 3 18 4.34315 18 6V14C18 15.6569 16.6569 17 15 17H5C3.34315 17 2 15.6569 2 14V6C2 4.34315 3.34315 3 5 3H15ZM5 5C4.44772 5 4 5.44772 4 6V14C4 14.5523 4.44772 15 5 15H15C15.5523 15 16 14.5523 16 14V6C16 5.44772 15.5523 5 15 5H5Z" fill="#000000"/>
</svg>
