<svg xmlns="http://www.w3.org/2000/svg" width="20" height="20" viewBox="0 0 20 20" fill="none"><rect width="20" height="20" fill="none"/>
<path d="M5.5 11C7.433 11 9 12.567 9 14.5C9 16.433 7.433 18 5.5 18C3.567 18 2 16.433 2 14.5C2 12.567 3.567 11 5.5 11ZM5.5 12.5C4.39543 12.5 3.5 13.3954 3.5 14.5C3.5 15.6046 4.39543 16.5 5.5 16.5C6.60457 16.5 7.5 15.6046 7.5 14.5C7.5 13.3954 6.60457 12.5 5.5 12.5Z" fill="#000000"/>
<path d="M18 15.25H11V13.75H18V15.25Z" fill="#000000"/>
<path d="M5.5 2C7.433 2 9 3.567 9 5.5C9 7.433 7.433 9 5.5 9C3.567 9 2 7.433 2 5.5C2 3.567 3.567 2 5.5 2ZM5.5 3.5C4.39543 3.5 3.5 4.39543 3.5 5.5C3.5 6.60457 4.39543 7.5 5.5 7.5C6.60457 7.5 7.5 6.60457 7.5 5.5C7.5 4.39543 6.60457 3.5 5.5 3.5Z" fill="#000000"/>
<path d="M18 6.25H11V4.75H18V6.25Z" fill="#000000"/>
</svg>
