<svg xmlns="http://www.w3.org/2000/svg" width="24" height="24" viewBox="0 0 24 24" fill="none"><rect width="24" height="24" fill="none"/>
<path d="M8.50029 10C9.32854 10.0002 10.0003 10.6717 10.0003 11.5C10.0003 12.3283 9.32854 12.9998 8.50029 13C7.67186 13 7.00029 12.3284 7.00029 11.5C7.00029 10.6716 7.67186 10 8.50029 10Z" fill="#000000"/>
<path d="M15.5003 10C16.3285 10.0002 17.0003 10.6717 17.0003 11.5C17.0003 12.3283 16.3285 12.9998 15.5003 13C14.6719 13 14.0003 12.3284 14.0003 11.5C14.0003 10.6716 14.6719 10 15.5003 10Z" fill="#000000"/>
<path d="M16.805 4C18.8488 4.00041 20.5638 5.54194 20.7815 7.57422L21.7571 16.6807C21.9469 18.4536 20.5577 19.9997 18.7747 20H17.8284C17.033 19.9999 16.2698 19.6835 15.7073 19.1211L13.5862 17H10.4144L8.29326 19.1211C7.73082 19.6835 6.96752 19.9998 6.17217 20H5.22588C3.44279 19.9998 2.05364 18.4536 2.24346 16.6807L3.21904 7.57422C3.43681 5.54188 5.1517 4.00031 7.1956 4H16.805ZM7.1956 6C6.17379 6.00031 5.31621 6.77106 5.20732 7.78711L4.23174 16.8936C4.16849 17.4845 4.63163 17.9998 5.22588 18H6.17217C6.43709 17.9998 6.69183 17.8943 6.8792 17.707L9.58623 15H14.4144L17.1214 17.707C17.3088 17.8943 17.5635 17.9999 17.8284 18H18.7747C19.3688 17.9997 19.8321 17.4844 19.7688 16.8936L18.7933 7.78711C18.6844 6.77111 17.8267 6.00041 16.805 6H7.1956Z" fill="#000000"/>
</svg>
