<svg xmlns="http://www.w3.org/2000/svg" width="20" height="20" viewBox="0 0 20 20" fill="none"><rect width="20" height="20" fill="none"/>
<path d="M19 12.5C19 12.5 19 17.5 15 19C11 17.5 11 12.5 11 12.5L15 11L19 12.5ZM12.6084 13.498C12.6706 13.8519 12.7677 14.2651 12.917 14.6943C13.2805 15.7394 13.9053 16.7541 15 17.3535C16.0947 16.7541 16.7195 15.7394 17.083 14.6943C17.2323 14.2652 17.3284 13.8519 17.3906 13.498L15 12.6016L12.6084 13.498Z" fill="#000000"/>
<path d="M18.0498 10.001H16.5498V7.12109L10 10.8643L3.4502 7.12109V14.5498H10V16.0498H1.9502V3.9502H18.0498V10.001ZM10 9.13574L16.4502 5.4502H3.5498L10 9.13574Z" fill="#000000"/>
</svg>
