<svg xmlns="http://www.w3.org/2000/svg" width="24" height="24" viewBox="0 0 24 24" fill="none"><rect width="24" height="24" fill="none"/>
<path d="M22 10.7393C21.672 10.7775 21.3299 10.8551 20.9805 10.9756C19.5483 11.4695 18.3806 12.5367 18 13.6758V21.001H16V9.00098H18V10.6543C18.711 10.04 19.5488 9.56603 20.3945 9.27441C20.905 9.09844 21.4499 8.9796 22 8.93652V10.7393Z" fill="#000000"/>
<path d="M7.94727 3C10.7087 2.99998 12.9471 5.23862 12.9473 8C12.9473 9.42144 12.3527 10.7029 11.4004 11.6133C12.9496 12.4627 14 14.1086 14 16C14 18.7612 11.7612 21 9 21H2V3H7.94727ZM4 19H9C10.6567 19 12 17.6567 12 16C12 14.3433 10.6567 13 9 13H4V19ZM4 11H7.94727C9.60417 11 10.9473 9.65691 10.9473 8C10.9471 6.34319 9.60409 4.99998 7.94727 5H4V11Z" fill="#000000"/>
</svg>
