<svg xmlns="http://www.w3.org/2000/svg" width="20" height="20" viewBox="0 0 20 20" fill="none"><rect width="20" height="20" fill="none"/>
<path d="M2.34961 2.11626C2.56705 1.97895 2.83999 1.96194 3.07227 2.07231L18.3223 9.32231C18.5836 9.44656 18.7499 9.71073 18.75 10C18.75 10.2894 18.5836 10.5535 18.3223 10.6778L3.07227 17.9278C2.83992 18.0382 2.56711 18.0212 2.34961 17.8838C2.13218 17.7464 2 17.5073 2 17.25V11.5245L5.23828 10L2 8.47563V2.75005L2.00586 2.65434C2.0342 2.43449 2.15943 2.23642 2.34961 2.11626ZM3.5 7.52349L7.31934 9.32134C7.58212 9.445 7.74989 9.70964 7.75 10C7.75 10.2905 7.58214 10.555 7.31934 10.6788L3.5 12.4756V16.0625L16.252 10L3.5 3.93755V7.52349Z" fill="#000000"/>
</svg>
