<svg xmlns="http://www.w3.org/2000/svg" width="20" height="20" viewBox="0 0 20 20" fill="none"><rect width="20" height="20" fill="none"/>
<path d="M11.5 10L10 11.5L8.5 10L10 8.5L11.5 10Z" fill="#000000"/>
<path d="M10 2C11.9388 2 13.7159 2.69046 15.1006 3.83789L15.9697 2.96973L17.0303 4.03027L16.1611 4.89844C17.3091 6.28327 18 8.06069 18 10C18 11.939 17.3088 13.7158 16.1611 15.1006L17.0303 15.9697L15.9697 17.0303L15.1006 16.1611C13.7158 17.3088 11.939 18 10 18C8.06069 18 6.28327 17.3091 4.89844 16.1611L4.03027 17.0303L2.96973 15.9697L3.83789 15.1006C2.69046 13.7159 2 11.9388 2 10C2 8.06092 2.69017 6.2832 3.83789 4.89844L2.96973 4.03027L4.03027 2.96973L4.89844 3.83789C6.2832 2.69017 8.06092 2 10 2ZM10 3.5C8.47535 3.5 7.07439 4.02629 5.96582 4.90527L6.53027 5.46973L5.46973 6.53027L4.90527 5.96582C4.02629 7.07439 3.5 8.47535 3.5 10C3.5 11.5244 4.02657 12.9247 4.90527 14.0332L5.46973 13.4697L6.53027 14.5303L5.96582 15.0938C7.07446 15.973 8.47514 16.5 10 16.5C11.5246 16.5 12.9247 15.9727 14.0332 15.0938L13.4697 14.5303L14.5303 13.4697L15.0938 14.0332C15.9727 12.9247 16.5 11.5246 16.5 10C16.5 8.47514 15.973 7.07446 15.0938 5.96582L14.5303 6.53027L13.4697 5.46973L14.0332 4.90527C12.9247 4.02657 11.5244 3.5 10 3.5Z" fill="#000000"/>
</svg>
