<svg xmlns="http://www.w3.org/2000/svg" width="20" height="20" viewBox="0 0 20 20" fill="none"><rect width="20" height="20" fill="none"/>
<path d="M13 11.2549C15.9318 11.7741 18 13.0312 18 14.5C18 16.433 14.4183 18 10 18C5.58172 18 2 16.433 2 14.5C2 13.0312 4.06821 11.7741 7 11.2549V13.291C6.28329 13.4386 5.656 13.6337 5.14453 13.8574C4.60292 14.0944 4.27238 14.3293 4.09668 14.5C4.27238 14.6707 4.60292 14.9056 5.14453 15.1426C6.28471 15.6414 7.99999 16 10 16C12 16 13.7153 15.6414 14.8555 15.1426C15.3966 14.9058 15.7265 14.6707 15.9023 14.5C15.7265 14.3293 15.3966 14.0942 14.8555 13.8574C14.344 13.6337 13.7167 13.4386 13 13.291V11.2549Z" fill="#000000"/>
<path d="M10 2C11.3807 2 12.5 3.11929 12.5 4.5C12.5 5.52488 11.8826 6.4041 11 6.79004V14H9V6.79004C8.11743 6.4041 7.5 5.52488 7.5 4.5C7.5 3.11929 8.61929 2 10 2Z" fill="#000000"/>
</svg>
