<svg xmlns="http://www.w3.org/2000/svg" width="20" height="20" viewBox="0 0 20 20" fill="none"><rect width="20" height="20" fill="none"/>
<path d="M18.707 17.293L17.293 18.707L15.4756 16.8896C15.1612 16.9592 14.8353 17 14.5 17H6C3.23858 17 1 14.7614 1 12C1 9.51455 2.8135 7.45274 5.18945 7.06543C5.22161 6.94611 5.25901 6.82886 5.29883 6.71289L1.29297 2.70703L2.70703 1.29297L18.707 17.293ZM6 9C4.34315 9 3 10.3431 3 12C3 13.6569 4.34315 15 6 15H13.5859L7.58594 9H6Z" fill="#000000"/>
<path d="M10.5 3C13.4105 3 15.7911 5.26085 15.9854 8.12207C17.718 8.56098 19 10.1309 19 12V12.5C19 13.2495 18.8154 13.9556 18.4912 14.5771L16.9424 13.0283C16.9791 12.8579 17 12.6814 17 12.5V12C17 10.8954 16.1046 10 15 10H14V8.5C14 6.567 12.433 5 10.5 5C10.0307 5 9.58282 5.0922 9.17383 5.25977L7.68652 3.77246C8.50955 3.2815 9.47197 3 10.5 3Z" fill="#000000"/>
</svg>
