<svg xmlns="http://www.w3.org/2000/svg" width="20" height="20" viewBox="0 0 20 20" fill="none"><rect width="20" height="20" fill="none"/>
<path d="M11.25 4.99902C12.9069 4.99902 14.25 6.34217 14.25 7.99902C14.25 9.65588 12.9069 10.999 11.25 10.999H8.75V12.499H11V13.999H8.75V14.999H7.25V13.999H6V12.499H7.25V10.999H6V9.49902H7.25V4.99902H11.25ZM8.75 9.49902H11.25C12.0784 9.49902 12.75 8.82745 12.75 7.99902C12.75 7.1706 12.0784 6.49902 11.25 6.49902H8.75V9.49902Z" fill="#000000"/>
<path d="M15.2998 1.94922C16.8186 1.94922 18.0498 3.18044 18.0498 4.69922V15.2988C18.0498 16.8176 16.8186 18.0488 15.2998 18.0488H4.7002C3.18141 18.0488 1.9502 16.8176 1.9502 15.2988V4.69922C1.9502 3.18044 3.18141 1.94922 4.7002 1.94922H15.2998ZM4.7002 3.44922C4.00984 3.44922 3.4502 4.00886 3.4502 4.69922V15.2988C3.4502 15.9892 4.00984 16.5488 4.7002 16.5488H15.2998C15.9902 16.5488 16.5498 15.9892 16.5498 15.2988V4.69922C16.5498 4.00886 15.9902 3.44922 15.2998 3.44922H4.7002Z" fill="#000000"/>
</svg>
