<svg xmlns="http://www.w3.org/2000/svg" width="20" height="20" viewBox="0 0 20 20" fill="none"><rect width="20" height="20" fill="none"/>
<path d="M18.9997 19H10.9997V17.5H18.9997V19Z" fill="#000000"/>
<path d="M9.99974 2C11.0036 2.00012 11.977 2.28479 12.6736 2.5498C13.0267 2.68424 13.3232 2.81926 13.531 2.9209C13.6345 2.97152 13.7181 3.01499 13.7761 3.0459C13.8045 3.06101 13.8282 3.07404 13.8445 3.08301C13.8522 3.08723 13.8602 3.09111 13.865 3.09375C13.8669 3.09492 13.8708 3.09766 13.8708 3.09766L13.8728 3.09863L13.8738 3.09961C14.0725 3.21333 14.2095 3.41227 14.2439 3.63867C14.2778 3.86499 14.2067 4.09539 14.0505 4.2627L11.2468 7.26465L13.9216 8.53809C14.4288 8.77972 14.8821 9.10782 15.2673 9.5H12.4529L9.99974 8.33105L6.7224 9.89258C5.87136 10.2981 5.23786 11.0532 4.98705 11.9619L4.52025 13.6523C4.12568 15.0846 5.20353 16.5005 6.6892 16.501H8.99877V18.001H6.6892C4.21269 18.0005 2.41696 15.6413 3.07494 13.2539L3.54076 11.5635C3.90729 10.235 4.83369 9.13076 6.07787 8.53809L8.75267 7.26367L5.95384 4.2627C5.798 4.09542 5.72753 3.86474 5.76146 3.63867C5.79575 3.41239 5.93205 3.21342 6.1306 3.09961L6.13353 3.09766C6.13353 3.09766 6.13733 3.09585 6.13939 3.09473C6.14409 3.09208 6.15119 3.08826 6.15892 3.08398C6.17525 3.07495 6.19945 3.06226 6.22826 3.04688C6.28628 3.01588 6.36885 2.97169 6.4724 2.9209C6.67985 2.81915 6.97503 2.68438 7.32787 2.5498C8.02337 2.2846 8.99551 2.00008 9.99974 2ZM9.99974 3.50098C9.25478 3.50106 8.47734 3.71752 7.86205 3.95215C7.82616 3.96585 7.791 3.98147 7.75658 3.99512L9.99974 6.40137L12.2468 3.99512C12.2123 3.98146 12.1763 3.96587 12.1404 3.95215C11.5235 3.71743 10.7447 3.5011 9.99974 3.50098Z" fill="#000000"/>
<path d="M18.9997 16.5H10.9997V15H18.9997V16.5Z" fill="#000000"/>
<path d="M18.7956 11.1895L11.7956 14.1895L11.2048 12.8105L18.2048 9.81055L18.7956 11.1895Z" fill="#000000"/>
</svg>
