<svg xmlns="http://www.w3.org/2000/svg" width="20" height="20" viewBox="0 0 20 20" fill="none"><rect width="20" height="20" fill="none"/>
<path d="M18.707 17.293L17.293 18.707L11.75 13.1641L7.70703 17.207L7.46484 17.4502L7.12402 17.4922L3.12402 17.9922C2.81791 18.0305 2.51116 17.9251 2.29297 17.707C2.07492 17.4889 1.96964 17.182 2.00781 16.876L2.50781 12.876L2.5498 12.5352L2.79297 12.293L6.83594 8.25L1.29297 2.70703L2.70703 1.29297L18.707 17.293ZM4.44922 13.4639L4.15137 15.8477L6.53516 15.5498L10.335 11.749L8.24902 9.66309L4.44922 13.4639Z" fill="#000000"/>
<path d="M12.043 3.04297C13.4 1.68612 15.6 1.68612 16.957 3.04297C18.3138 4.39996 18.3139 6.60007 16.957 7.95703L14.4141 10.5L12.9502 9.03613C12.7605 8.02737 11.9701 7.23524 10.9609 7.04688L9.5 5.58594L12.043 3.04297ZM15.543 4.45703C14.967 3.88123 14.033 3.88123 13.457 4.45703L12.4629 5.4502C13.3708 5.89105 14.1076 6.62846 14.5488 7.53613L15.543 6.54297C16.1187 5.96705 16.1187 5.03298 15.543 4.45703Z" fill="#000000"/>
</svg>
