<svg xmlns="http://www.w3.org/2000/svg" width="20" height="20" viewBox="0 0 20 20" fill="none"><rect width="20" height="20" fill="none"/>
<path d="M8.41614 3.07617L11.2267 4.9502H14.2999C15.8186 4.95035 17.0499 6.18151 17.0499 7.7002V8.03711C18.0117 8.2319 18.6548 9.20719 18.3898 10.2012L17.1202 14.959C16.7991 16.1623 15.7094 16.9997 14.464 17H5.53626C4.29092 16.9996 3.20115 16.1622 2.88001 14.959L1.61048 10.2012C1.34553 9.20738 1.98883 8.23215 2.95032 8.03711V5.7002C2.95032 4.18155 4.18173 2.95042 5.70032 2.9502H8.22767L8.41614 3.07617ZM3.30189 9.5C3.1379 9.50026 3.01755 9.65594 3.0597 9.81445L4.32923 14.5723C4.47519 15.119 4.97041 15.4996 5.53626 15.5H14.464C15.0299 15.4997 15.525 15.119 15.671 14.5723L16.9406 9.81445C16.9827 9.65588 16.8624 9.50018 16.6984 9.5H3.30189ZM5.70032 4.4502C5.01016 4.45042 4.45032 5.00998 4.45032 5.7002V8H15.5499V7.7002C15.5499 7.00993 14.9902 6.45035 14.2999 6.4502H10.7726L10.5841 6.32422L7.77356 4.4502H5.70032Z" fill="#000000"/>
</svg>
