<svg xmlns="http://www.w3.org/2000/svg" width="20" height="20" viewBox="0 0 20 20" fill="none"><rect width="20" height="20" fill="none"/>
<path d="M18.707 17.293L17.293 18.707L14.9033 16.3174C14.4519 16.6692 13.9636 16.973 13.4443 17.2207C12.6907 17.5802 11.8863 17.8172 11.0615 17.9277V15.9023C11.5869 15.8078 12.099 15.6459 12.583 15.415C12.896 15.2658 13.1937 15.0888 13.4746 14.8887L5.11035 6.52441C4.88102 6.84636 4.68347 7.19095 4.52148 7.55371C4.29764 8.05511 4.14611 8.58413 4.06641 9.125H2.0498C2.14039 8.30231 2.35672 7.49672 2.69531 6.73828C2.95734 6.15147 3.28941 5.60069 3.68164 5.0957L1.29297 2.70703L2.70703 1.29297L18.707 17.293Z" fill="#000000"/>
<path d="M6.55859 14.9131C6.95799 15.1929 7.3902 15.4248 7.84766 15.6006C8.24064 15.7516 8.64778 15.8583 9.06152 15.9238V17.9434C8.4023 17.8654 7.75353 17.707 7.13086 17.4678C6.41105 17.1912 5.73794 16.8105 5.12891 16.3428L6.55859 14.9131Z" fill="#000000"/>
<path d="M4.10742 11.125C4.18346 11.5238 4.29923 11.915 4.45508 12.292C4.63349 12.7235 4.86289 13.1308 5.13477 13.5078L3.70703 14.9365C3.25756 14.3639 2.88581 13.7324 2.60645 13.0566C2.34984 12.4359 2.17388 11.7868 2.08008 11.125H4.10742Z" fill="#000000"/>
<path d="M10 2C11.0506 2 12.0909 2.20734 13.0615 2.60938C14.0321 3.01141 14.9144 3.59995 15.6572 4.34277C16.4 5.08559 16.9886 5.96795 17.3906 6.93848C17.7927 7.90908 18 8.94943 18 10C18 11.0506 17.7927 12.0909 17.3906 13.0615C17.3504 13.1586 17.3076 13.2544 17.2637 13.3496L15.7197 11.8057C15.904 11.2223 16 10.6138 16 10C16 9.21209 15.8445 8.43204 15.543 7.7041C15.2414 6.97615 14.7993 6.31496 14.2422 5.75781C13.685 5.20066 13.0239 4.75856 12.2959 4.45703C11.568 4.15552 10.7879 4 10 4C9.38599 4 8.77689 4.09491 8.19336 4.2793L6.65039 2.73633C6.74562 2.69243 6.84143 2.64958 6.93848 2.60938C7.90908 2.20734 8.94943 2 10 2Z" fill="#000000"/>
</svg>
