<svg xmlns="http://www.w3.org/2000/svg" width="20" height="20" viewBox="0 0 20 20" fill="none"><rect width="20" height="20" fill="none"/>
<path d="M16.7129 10.7988L16.7236 10.8096C16.7292 10.8154 16.737 10.8234 16.7461 10.833C16.7647 10.8525 16.7906 10.8806 16.8223 10.915C16.8854 10.9838 16.9735 11.0813 17.0771 11.2041C17.2838 11.449 17.559 11.7988 17.8359 12.2207C18.3691 13.033 19 14.2508 19 15.5625C19 16.1042 18.8775 16.9052 18.46 17.6074C18.0108 18.3626 17.2095 19 16 19C14.7905 19 13.9892 18.3626 13.54 17.6074C13.1225 16.9052 13 16.1042 13 15.5625C13 14.2508 13.6309 13.033 14.1641 12.2207C14.441 11.7988 14.7162 11.449 14.9229 11.2041C15.0265 11.0813 15.1146 10.9838 15.1777 10.915C15.2094 10.8806 15.2353 10.8525 15.2539 10.833C15.263 10.8234 15.2708 10.8154 15.2764 10.8096L15.2871 10.7988L16 10.0742L16.7129 10.7988Z" fill="#000000"/>
<path d="M17 6.96484V8.95117L16 7.93555L14.2266 9.73828L14.2158 9.74902L14.207 9.75684L14.1992 9.76562L14.168 9.79785L14.0732 9.90039C14.0011 9.97885 13.8978 10.0925 13.7764 10.2363C13.5404 10.5159 13.2271 10.9146 12.9102 11.3975C12.327 12.2859 11.5 13.8069 11.5 15.5625C11.5 15.9578 11.5492 16.4611 11.6885 17H3V6.96484L10 2.29785L17 6.96484Z" fill="#000000"/>
</svg>
