<svg xmlns="http://www.w3.org/2000/svg" width="24" height="24" viewBox="0 0 24 24" fill="none"><rect width="24" height="24" fill="none"/>
<path d="M21.707 20.293L20.293 21.707L14 15.4141L8.95898 20.4561L4.23438 20.9814C3.5342 21.059 2.94226 20.4667 3.01953 19.7666L3.54492 15.042L8.58594 10L2.29297 3.70703L3.70703 2.29297L21.707 20.293ZM5.45508 15.959L5.13184 18.8682L8.04102 18.5449L12.5859 14L10 11.4141L5.45508 15.959Z" fill="#000000"/>
<path d="M14.793 3.79395C16.2881 2.29885 18.7119 2.29885 20.207 3.79395C21.7018 5.28906 21.702 7.71302 20.207 9.20801L16.6641 12.75L15.25 11.3359L15.9736 10.6123C15.7995 9.266 14.7341 8.2002 13.3877 8.02637L12.6641 8.75L11.25 7.33594L14.793 3.79395ZM18.793 5.20801C18.0789 4.49396 16.9211 4.49396 16.207 5.20801L14.9971 6.41602C16.1519 6.91983 17.0787 7.84733 17.583 9.00195L18.793 7.79395C19.5069 7.08 19.5067 5.92208 18.793 5.20801Z" fill="#000000"/>
</svg>
