<svg xmlns="http://www.w3.org/2000/svg" width="20" height="20" viewBox="0 0 20 20" fill="none"><rect width="20" height="20" fill="none"/>
<path d="M6.73362 4.55762C7.15233 4.91714 7.64832 5.64879 8.00608 6.32324C8.1921 6.67398 8.3613 7.04762 8.47483 7.39648C8.57704 7.71071 8.67801 8.13302 8.59593 8.51855C8.50268 8.95488 8.21194 9.33188 8.01487 9.57031C7.90707 9.7007 7.79046 9.83262 7.70042 9.93555C7.6893 9.94826 7.67855 9.96166 7.66819 9.97363C7.70473 10.0967 7.76909 10.2532 7.8762 10.4385C8.05507 10.7478 8.31458 11.0801 8.61936 11.3867C8.92414 11.6933 9.25676 11.9569 9.56761 12.1406C9.74466 12.2452 9.89712 12.3111 10.0198 12.3516C10.0276 12.3444 10.0371 12.3375 10.0451 12.3301C10.151 12.2325 10.28 12.1123 10.4133 11.999C10.6573 11.7917 11.0349 11.4983 11.4807 11.4033C11.8657 11.3216 12.2876 11.4214 12.6028 11.5234C12.952 11.6365 13.326 11.8054 13.677 11.9912C14.351 12.3481 15.0834 12.8447 15.4436 13.2686L15.6223 13.4785V14.3877C15.6223 16.2044 14.2532 17.9712 12.2326 17.8555C6.53823 17.5282 2.47105 13.461 2.14378 7.7666C2.02798 5.74598 3.79477 4.377 5.61155 4.37695H6.52268L6.73362 4.55762ZM5.61155 5.87695C4.44282 5.877 3.586 6.72078 3.64085 7.68066C3.92444 12.6143 7.38495 16.0748 12.3186 16.3584C13.2784 16.4132 14.1223 15.5564 14.1223 14.3877V14.0674C13.8747 13.8569 13.455 13.5707 12.9748 13.3164C12.6738 13.157 12.3825 13.0284 12.1408 12.9502C11.8653 12.861 11.7683 12.8754 11.7932 12.8701C11.7466 12.8801 11.6174 12.9433 11.384 13.1416C11.2789 13.231 11.1754 13.3278 11.0617 13.4326C10.9553 13.5308 10.8308 13.6448 10.7112 13.7402C10.5734 13.8499 10.4008 13.9077 10.2248 13.9033C9.72675 13.8905 9.2287 13.6827 8.80393 13.4316C8.36568 13.1725 7.93456 12.8252 7.55589 12.4443C7.17731 12.0635 6.83229 11.6303 6.57737 11.1895C6.33054 10.7625 6.12818 10.2591 6.12815 9.75488C6.12831 9.59766 6.17778 9.44394 6.26975 9.31641C6.36248 9.18793 6.4739 9.05774 6.57054 8.94727C6.67495 8.82791 6.76844 8.7243 6.85862 8.61523C7.05791 8.37409 7.12019 8.24689 7.12913 8.20508C7.12335 8.23211 7.13792 8.13659 7.04808 7.86035C6.96944 7.61883 6.84065 7.32763 6.68089 7.02637C6.42644 6.54669 6.13948 6.1261 5.92893 5.87695H5.61155Z" fill="#000000"/>
<path d="M14.9094 0.25C17.8436 0.250157 19.7502 2.45325 19.7502 5C19.7502 6.74591 19.1175 8.29573 18.2229 9.41504C17.3475 10.5101 16.1303 11.2958 14.9094 11.2959C14.4954 11.2959 14.1597 10.9598 14.1594 10.5459V8.89551C11.9424 8.59873 10.0688 6.99704 10.0686 4.58887C10.0686 3.3164 10.545 2.20727 11.4299 1.4248C12.306 0.650287 13.5192 0.250017 14.9094 0.25ZM14.9094 1.75C13.8 1.75002 12.9673 2.06764 12.4231 2.54883C11.8877 3.02233 11.5686 3.70834 11.5686 4.58887C11.5688 6.21861 12.9744 7.44723 14.9094 7.44727H15.6594V9.61426C16.1111 9.412 16.6036 9.03816 17.051 8.47852C17.7471 7.60769 18.2502 6.38388 18.2502 5C18.2502 3.24079 16.9748 1.75015 14.9094 1.75Z" fill="#000000"/>
</svg>
