<svg xmlns="http://www.w3.org/2000/svg" width="24" height="24" viewBox="0 0 24 24" fill="none"><rect width="24" height="24" fill="none"/>
<path d="M12 2C15.3137 2 18 4.68629 18 8C18 8.44478 17.9492 8.87773 17.8574 9.29492C20.2618 10.077 22 12.3348 22 15C22 18.3137 19.3137 21 16 21C14.4626 21 13.0614 20.4208 12 19.4697C10.9383 20.4205 9.53731 21 8 21C4.68629 21 2 18.3137 2 15C2 12.335 3.73758 10.0762 6.1416 9.29395C6.04995 8.8771 6 8.44437 6 8C6 4.68629 8.68629 2 12 2ZM6.89551 11.1553C5.22366 11.6347 4 13.1741 4 15C4 17.2091 5.79086 19 8 19C10.2091 19 12 17.2091 12 15C12 14.653 11.9534 14.317 11.8701 13.9961C9.76809 13.9514 7.9319 12.8284 6.89551 11.1553ZM17.1035 11.1553C16.3639 12.349 15.2173 13.2626 13.8574 13.7051C13.9497 14.1221 14 14.5552 14 15C14 16.0535 13.7269 17.0428 13.25 17.9033C13.9669 18.5826 14.9344 19 16 19C18.2091 19 20 17.2091 20 15C20 13.1737 18.7758 11.6344 17.1035 11.1553ZM12 4C9.79086 4 8 5.79086 8 8C8 10.2091 9.79086 12 12 12C14.2091 12 16 10.2091 16 8C16 5.79086 14.2091 4 12 4Z" fill="#000000"/>
</svg>
