<svg xmlns="http://www.w3.org/2000/svg" width="20" height="20" viewBox="0 0 20 20" fill="none"><rect width="20" height="20" fill="none"/>
<path d="M14.7998 2.44922C16.3184 2.44934 17.5497 3.68058 17.5498 5.19922V14.7988C17.5498 16.3175 16.3185 17.5487 14.7998 17.5488H5.2002C3.68142 17.5488 2.45021 16.3176 2.4502 14.7988V5.19922C2.45021 3.68045 3.68142 2.44922 5.2002 2.44922H14.7998ZM5.2002 3.94922C4.50985 3.94922 3.95021 4.50887 3.9502 5.19922V14.7988C3.95021 15.4892 4.50985 16.0488 5.2002 16.0488H14.7998C15.4901 16.0487 16.0498 15.4891 16.0498 14.7988V5.19922C16.0497 4.509 15.49 3.94933 14.7998 3.94922H14.0498V10C14.0498 10.2708 13.9039 10.5204 13.668 10.6533C13.4321 10.7861 13.1427 10.7819 12.9111 10.6416L10 8.87695L7.08887 10.6416C6.8573 10.7819 6.56793 10.7862 6.33203 10.6533C6.09616 10.5204 5.9502 10.2707 5.9502 10V3.94922H5.2002ZM7.4502 8.66797L10 7.12305L12.5498 8.66797V3.94922H7.4502V8.66797Z" fill="#000000"/>
</svg>
