<svg xmlns="http://www.w3.org/2000/svg" width="20" height="20" viewBox="0 0 20 20" fill="none"><rect width="20" height="20" fill="none"/>
<path d="M4 14.5C4 15.3284 4.67157 16 5.5 16H7V17.5H5.5C3.84315 17.5 2.5 16.1569 2.5 14.5V13H4V14.5Z" fill="#000000"/>
<path d="M17.5 14.5C17.5 16.1569 16.1569 17.5 14.5 17.5H13V16H14.5C15.3284 16 16 15.3284 16 14.5V13H17.5V14.5Z" fill="#000000"/>
<path d="M10 12.25C10.9833 12.25 12.1266 12.5322 13.0459 13.1172C13.7245 13.5491 14.3172 14.1767 14.5898 15H12.9219C12.7532 14.7685 12.523 14.5628 12.2402 14.3828C11.5881 13.9678 10.731 13.75 10 13.75C9.24477 13.75 8.40124 13.937 7.77148 14.3545C7.51408 14.5251 7.28868 14.7363 7.11523 15H5.45996C5.74093 14.1694 6.28135 13.5428 6.94238 13.1045C7.88406 12.4803 9.04094 12.25 10 12.25Z" fill="#000000"/>
<path d="M10 5.25C11.5188 5.25 12.75 6.48122 12.75 8C12.75 9.51878 11.5188 10.75 10 10.75C8.48122 10.75 7.25 9.51878 7.25 8C7.25 6.48122 8.48122 5.25 10 5.25ZM10 6.75C9.30964 6.75 8.75 7.30964 8.75 8C8.75 8.69036 9.30964 9.25 10 9.25C10.6904 9.25 11.25 8.69036 11.25 8C11.25 7.30964 10.6904 6.75 10 6.75Z" fill="#000000"/>
<path d="M7 4H5.5C4.67157 4 4 4.67157 4 5.5V7H2.5V5.5C2.5 3.84315 3.84315 2.5 5.5 2.5H7V4Z" fill="#000000"/>
<path d="M14.5 2.5C16.1569 2.5 17.5 3.84315 17.5 5.5V7H16V5.5C16 4.67157 15.3284 4 14.5 4H13V2.5H14.5Z" fill="#000000"/>
</svg>
