<svg xmlns="http://www.w3.org/2000/svg" width="24" height="24" viewBox="0 0 24 24" fill="none"><rect width="24" height="24" fill="none"/>
<path d="M14.2881 7.54688C14.4637 7.46473 14.6713 7.49207 14.8203 7.61621L17.8203 10.1162C17.9818 10.251 18.0413 10.4721 17.9697 10.6699C17.8981 10.8679 17.7105 11 17.5 11H14.5C14.2239 11 14 10.7761 14 10.5V8L14.0049 7.92773C14.0289 7.76304 14.1345 7.61882 14.2881 7.54688Z" fill="#000000"/>
<path d="M14.7676 4C15.4771 4.00005 16.1635 4.25168 16.7051 4.70996L23 10.0361V17C23 18.1046 22.1046 19 21 19H20.8262C20.4141 20.1647 19.3059 21 18 21C16.6941 21 15.5859 20.1647 15.1738 19H8.82617C8.41406 20.1647 7.30585 21 6 21C4.69415 21 3.58594 20.1647 3.17383 19H3C1.89543 19 1 18.1046 1 17V7C1 5.34315 2.34315 4 4 4H14.7676ZM6 17C5.44772 17 5 17.4477 5 18C5 18.5523 5.44772 19 6 19C6.55228 19 7 18.5523 7 18C7 17.4477 6.55228 17 6 17ZM18 17C17.4477 17 17 17.4477 17 18C17 18.5523 17.4477 19 18 19C18.5523 19 19 18.5523 19 18C19 17.4477 18.5523 17 18 17ZM4 6C3.44772 6 3 6.44772 3 7V9H9V11H3V17H3.17383C3.58594 15.8353 4.69415 15 6 15C7.30585 15 8.41406 15.8353 8.82617 17H15.1738C15.5859 15.8353 16.6941 15 18 15C19.3059 15 20.4141 15.8353 20.8262 17H21V10.9629L15.4131 6.23633C15.2326 6.08374 15.0039 6.00005 14.7676 6H4Z" fill="#000000"/>
</svg>
