<svg xmlns="http://www.w3.org/2000/svg" width="24" height="24" viewBox="0 0 24 24" fill="none"><rect width="24" height="24" fill="none"/>
<path d="M16.7926 2.79241C18.0115 1.57369 19.9877 1.57382 21.2067 2.79241C22.4256 4.01131 22.4255 5.98751 21.2067 7.20647L16.7067 11.7065C16.3161 12.0968 15.683 12.0969 15.2926 11.7065L14.4996 10.9135L11.9137 13.4994L14.7067 16.2924C14.9483 16.534 15.0501 16.8826 14.9762 17.2162C14.9021 17.5497 14.6624 17.8221 14.3414 17.9389L3.34143 21.9389C2.97639 22.0715 2.56723 21.9811 2.2926 21.7065C2.01816 21.4318 1.92754 21.0226 2.06018 20.6576L6.06018 9.65764L6.11096 9.54143C6.2459 9.27967 6.49117 9.08775 6.78283 9.02287C7.11633 8.94891 7.46502 9.05098 7.70666 9.29241L10.4996 12.0854L13.0856 9.49944L12.2926 8.70647C11.9025 8.31599 11.9024 7.68284 12.2926 7.29241L16.7926 2.79241ZM4.67053 19.3276L12.1822 16.5961L7.40197 11.8158L4.67053 19.3276ZM19.7926 4.20647C19.3547 3.76893 18.6445 3.7688 18.2067 4.20647L14.4137 7.99944L15.9996 9.58537L19.7926 5.79241C20.2304 5.35449 20.2305 4.64433 19.7926 4.20647Z" fill="#000000"/>
</svg>
