<svg xmlns="http://www.w3.org/2000/svg" width="24" height="24" viewBox="0 0 24 24" fill="none"><rect width="24" height="24" fill="none"/>
<path d="M15.4209 3.86717C16.8065 2.16257 19.3633 2.03097 20.917 3.58396C22.4705 5.13761 22.3387 7.69433 20.6338 9.08006L12.4326 15.7422C12.4756 15.9884 12.5 16.2419 12.5 16.5C12.4997 18.985 10.426 21 7.86816 21C4.99999 20.9998 2.65792 18.3123 1.5 15.5C4.99978 16.4998 4.00009 12.0002 7.86816 12C8.16835 12 8.46181 12.028 8.74609 12.081L15.4209 3.86717ZM7.86816 14C7.34214 14 7.12507 14.1353 6.9873 14.2461C6.81979 14.3809 6.67539 14.558 6.45605 14.873L5.95801 15.6054C5.66396 16.023 5.23174 16.5654 4.63281 16.9756C4.87855 17.2942 5.13784 17.5898 5.41211 17.8476C6.25326 18.6382 7.09041 18.9999 7.86816 19C9.3761 19 10.4997 17.8266 10.5 16.5C10.4998 15.1734 9.37611 14 7.86816 14ZM10.6543 12.9053C11.0154 13.1699 11.3357 13.4846 11.6035 13.8388L16.8262 9.59666C16.6021 8.64444 15.8366 7.90244 14.8701 7.71678L10.6543 12.9053ZM19.5029 4.99803C18.7879 4.28362 17.6114 4.34467 16.9736 5.12889L16.2188 6.05662C17.2089 6.49604 18.011 7.28173 18.4707 8.26072L19.373 7.5283C20.1574 6.89043 20.2178 5.71306 19.5029 4.99803Z" fill="#000000"/>
</svg>
