<svg xmlns="http://www.w3.org/2000/svg" width="20" height="20" viewBox="0 0 20 20" fill="none"><rect width="20" height="20" fill="none"/>
<path d="M15.5 11C15.9142 11 16.25 11.3358 16.25 11.75V12C16.25 13.5188 17.4812 14.75 19 14.75H19.25C19.6642 14.75 20 15.0858 20 15.5C20 15.9142 19.6642 16.25 19.25 16.25H19C17.4812 16.25 16.25 17.4812 16.25 19V19.25C16.25 19.6642 15.9142 20 15.5 20C15.0858 20 14.75 19.6642 14.75 19.25V19C14.75 17.4812 13.5188 16.25 12 16.25H11.75C11.3358 16.25 11 15.9142 11 15.5C11 15.0858 11.3358 14.75 11.75 14.75H12C13.5188 14.75 14.75 13.5188 14.75 12V11.75C14.75 11.3358 15.0858 11 15.5 11Z" fill="#000000"/>
<path d="M8 1C8.55228 1 9 1.44772 9 2C9 4.67528 11.1011 6.85947 13.7432 6.99316L14 7L14.1025 7.00488C14.6067 7.05621 15 7.48232 15 8C15 8.55228 14.5523 9 14 9C11.2386 9 9 11.2386 9 14C9 14.5523 8.55228 15 8 15C7.44772 15 7 14.5523 7 14C7 11.2386 4.76142 9 2 9L1.89746 8.99512C1.39333 8.94379 1 8.51768 1 8C1 7.44772 1.44772 7 2 7C4.76142 7 7 4.76142 7 2C7 1.44772 7.44772 1 8 1ZM8 5.60547C7.40954 6.58596 6.58596 7.40954 5.60547 8C6.58572 8.59031 7.40958 9.41338 8 10.3936C8.59028 9.41362 9.41362 8.59028 10.3936 8C9.41338 7.40958 8.59031 6.58572 8 5.60547Z" fill="#000000"/>
</svg>
