<svg xmlns="http://www.w3.org/2000/svg" width="20" height="20" viewBox="0 0 20 20" fill="none"><rect width="20" height="20" fill="none"/>
<path d="M10.75 3.4834C10.75 3.58331 10.8096 3.67344 10.9014 3.71289L11.2002 3.84082C12.1405 4.24396 12.75 5.16927 12.75 6.19238C12.7499 7.40969 11.8989 8.42622 10.7598 8.68457V10H18V18H2V10H9.25977V8.64551C8.10101 8.32196 7.25 7.26197 7.25 6H8.75C8.75 6.69036 9.30964 7.25 10 7.25H10.1924C10.7764 7.24985 11.2499 6.77642 11.25 6.19238C11.25 5.7692 10.9974 5.38643 10.6084 5.21973L10.3105 5.0918C9.66718 4.816 9.25 4.1834 9.25 3.4834V2H10.75V3.4834ZM3.5 16.5H16.5V11.5H3.5V16.5Z" fill="#000000"/>
</svg>
