<svg xmlns="http://www.w3.org/2000/svg" width="20" height="20" viewBox="0 0 20 20" fill="none"><rect width="20" height="20" fill="none"/>
<path d="M5 9C5 11.7614 7.23858 14 10 14C12.7614 14 15 11.7614 15 9H17C17 12.5264 14.3921 15.4414 11 15.9268V18H9V15.9268C5.60787 15.4414 3 12.5264 3 9H5Z" fill="#000000"/>
<path d="M10 2C11.6569 2 13 3.34315 13 5V9C13 10.6569 11.6569 12 10 12C8.34315 12 7 10.6569 7 9V5C7 3.34315 8.34315 2 10 2ZM10 4C9.44772 4 9 4.44772 9 5V9C9 9.55228 9.44772 10 10 10C10.5523 10 11 9.55228 11 9V5C11 4.44772 10.5523 4 10 4Z" fill="#000000"/>
</svg>
