<svg xmlns="http://www.w3.org/2000/svg" width="20" height="20" viewBox="0 0 20 20" fill="none"><rect width="20" height="20" fill="none"/>
<path d="M17 11C18.6569 11 20 12.3431 20 14C20 15.6569 18.6569 17 17 17H16V18H18V19H16V20H14V19H13V18H14V17H13V15H14V11H17ZM16 15H17C17.5523 15 18 14.5523 18 14C18 13.4477 17.5523 13 17 13H16V15Z" fill="#000000"/>
<path d="M14.5 2.0127C15.8807 2.0127 17 3.13198 17 4.5127V5.38184L18 5.88184V9H16V7.11816L15 6.61816V4.5127C15 4.23655 14.7761 4.0127 14.5 4.0127C14.2239 4.0127 14 4.23655 14 4.5127V9H12V7.56543H8V10.5H12V12.5H8V13.501C7.9997 14.8814 6.88053 16.001 5.5 16.001C4.11947 16.001 3.0003 14.8814 3 13.501V12.6182L2 12.1182V5.88184L3 5.38184V4.5127C3 3.13198 4.11929 2.0127 5.5 2.0127C6.88071 2.0127 8 3.13198 8 4.5127V5.56543H12V4.5127C12 3.13198 13.1193 2.0127 14.5 2.0127ZM5.5 4.0127C5.22386 4.0127 5 4.23655 5 4.5127V6.61816L4 7.11816V10.8818L5 11.3818V13.501C5.0003 13.7769 5.22404 14.001 5.5 14.001C5.77596 14.001 5.9997 13.7769 6 13.501V4.5127C6 4.23655 5.77614 4.0127 5.5 4.0127Z" fill="#000000"/>
</svg>
