<svg xmlns="http://www.w3.org/2000/svg" width="20" height="20" viewBox="0 0 20 20" fill="none"><rect width="20" height="20" fill="none"/>
<path d="M10 2C14.169 2 17.5917 5.18908 17.9648 9.26074C15.3366 13.2529 13.2529 15.3366 9.26074 17.9648C5.18908 17.5917 2 14.169 2 10C2 5.58172 5.58172 2 10 2ZM15 9C11.6863 9 9 11.6863 9 15C9 15.2365 9.01329 15.4699 9.04004 15.6992C11.9524 13.6895 13.6887 11.9538 15.6982 9.04199C15.4691 9.01531 15.2363 9 15 9ZM10 4C6.68629 4 4 6.68629 4 10C4 12.2217 5.20946 14.16 7.00488 15.1963C7.00326 15.131 7 15.0656 7 15C7 10.5817 10.5817 7 15 7C15.0653 7 15.1304 7.00136 15.1953 7.00293C14.1587 5.20854 12.2209 4 10 4Z" fill="#000000"/>
</svg>
