<svg xmlns="http://www.w3.org/2000/svg" width="20" height="20" viewBox="0 0 20 20" fill="none"><rect width="20" height="20" fill="none"/>
<path d="M12.0009 13H8.00093V11H12.0009V13Z" fill="#000000"/>
<path d="M15.7216 7H17.0009C17.3054 7.00023 17.5936 7.13963 17.7832 7.37793C17.9726 7.6164 18.0441 7.92881 17.9755 8.22559L16.0742 16.4502C15.8645 17.3569 15.0565 17.9995 14.1259 18H5.80269C4.86553 17.9998 4.05393 17.3485 3.85054 16.4336L2.02437 8.2168C1.95865 7.92076 2.03091 7.61057 2.22066 7.37402C2.41046 7.13767 2.69779 7 3.00093 7H4.28023L6.05269 1.68359L7.94918 2.31641L6.38765 7H13.6142L12.0527 2.31641L13.9492 1.68359L15.7216 7ZM5.80269 16H14.1259L15.7431 9H4.248L5.80269 16Z" fill="#000000"/>
</svg>
