<svg xmlns="http://www.w3.org/2000/svg" width="24" height="24" viewBox="0 0 24 24" fill="none"><rect width="24" height="24" fill="none"/>
<path d="M12 3C14.2091 3 16 4.79086 16 7C16 7.92005 15.6881 8.76659 15.166 9.44238L17.2793 13.0654C17.5131 13.0229 17.7539 13 18 13C20.2091 13 22 14.7909 22 17C22 19.2091 20.2091 21 18 21C16.5196 21 15.2278 20.1954 14.5361 19H9.46387C8.77219 20.1954 7.48038 21 6 21C3.79086 21 2 19.2091 2 17C2 14.7909 3.79086 13 6 13C6.24577 13 6.4862 13.023 6.71973 13.0654L8.83301 9.44238C8.31112 8.76666 8 7.91984 8 7C8 4.79086 9.79086 3 12 3ZM6 15C4.89543 15 4 15.8954 4 17C4 18.1046 4.89543 19 6 19C7.10457 19 8 18.1046 8 17C8 15.8954 7.10457 15 6 15ZM18 15C16.8954 15 16 15.8954 16 17C16 18.1046 16.8954 19 18 19C19.1046 19 20 18.1046 20 17C20 15.8954 19.1046 15 18 15ZM13.5713 10.6787C13.0888 10.885 12.5579 11 12 11C11.4418 11 10.9104 10.8853 10.4277 10.6787L8.54199 13.9111C9.43244 14.6448 10 15.7562 10 17H14C14 15.7565 14.5669 14.6448 15.457 13.9111L13.5713 10.6787ZM12 5C10.8954 5 10 5.89543 10 7C10 8.10457 10.8954 9 12 9C13.1046 9 14 8.10457 14 7C14 5.89543 13.1046 5 12 5Z" fill="#000000"/>
</svg>
