<svg xmlns="http://www.w3.org/2000/svg" width="20" height="20" viewBox="0 0 20 20" fill="none"><rect width="20" height="20" fill="none"/>
<path d="M19.0303 12.0303L12.0303 19.0303L10.9697 17.9697L17.9697 10.9697L19.0303 12.0303Z" fill="#000000"/>
<path d="M17.5 16C18.3284 16 19 16.6716 19 17.5C19 18.3284 18.3284 19 17.5 19C16.6716 19 16 18.3284 16 17.5C16 16.6716 16.6716 16 17.5 16Z" fill="#000000"/>
<path d="M13.4072 2.25C14.8667 2.25005 16.0497 3.43312 16.0498 4.89258V5C16.0498 5.45058 15.9392 5.87468 15.7471 6.25H16.25C17.2165 6.25 18 7.0335 18 8V9H16.5V8C16.5 7.86193 16.3881 7.75 16.25 7.75H3.75C3.61193 7.75 3.5 7.86193 3.5 8V10C3.5 10.1381 3.61193 10.25 3.75 10.25H9V11.75H4.5V15C4.5 15.8284 5.17157 16.5 6 16.5H9V18H6C4.34315 18 3 16.6569 3 15V11.5791C2.40928 11.298 2 10.6977 2 10V8C2 7.0335 2.7835 6.25 3.75 6.25H4.25293C4.06084 5.87468 3.9502 5.45058 3.9502 5V4.89258C3.95035 3.43312 5.13329 2.25005 6.59277 2.25C8.0029 2.25 9.24832 2.95265 10 4.02637C10.7517 2.95265 11.9971 2.25 13.4072 2.25ZM6.59277 3.75C5.96172 3.75005 5.45035 4.26155 5.4502 4.89258V5C5.4502 5.69036 6.00984 6.25 6.7002 6.25H9.24219C9.16077 4.85574 8.00745 3.75 6.59277 3.75ZM13.4072 3.75C11.9925 3.75 10.8392 4.85574 10.7578 6.25H13.2998C13.9902 6.25 14.5498 5.69036 14.5498 5V4.89258C14.5497 4.26155 14.0383 3.75005 13.4072 3.75Z" fill="#000000"/>
<path d="M12.5 11C13.3284 11 14 11.6716 14 12.5C14 13.3284 13.3284 14 12.5 14C11.6716 14 11 13.3284 11 12.5C11 11.6716 11.6716 11 12.5 11Z" fill="#000000"/>
</svg>
