<svg xmlns="http://www.w3.org/2000/svg" width="20" height="20" viewBox="0 0 20 20" fill="none"><rect width="20" height="20" fill="none"/>
<path d="M15.25 3C16.7688 3 18 4.23122 18 5.75V11H16.5V8.5H3.5V13C3.5 13.6904 4.05964 14.25 4.75 14.25H13V12.5C13 12.3182 13.0988 12.1506 13.2578 12.0625C13.4167 11.9746 13.6106 11.98 13.7646 12.0762L17.7646 14.5762C17.9108 14.6675 18 14.8276 18 15C18 15.1724 17.9108 15.3325 17.7646 15.4238L13.7646 17.9238C13.6106 18.02 13.4167 18.0254 13.2578 17.9375C13.0988 17.8494 13 17.6818 13 17.5V15.75H4.75C3.23122 15.75 2 14.5188 2 13V5.75C2 4.23122 3.23122 3 4.75 3H15.25ZM4.75 4.5C4.05964 4.5 3.5 5.05964 3.5 5.75V7H16.5V5.75C16.5 5.05964 15.9404 4.5 15.25 4.5H4.75Z" fill="#000000"/>
</svg>
