<svg xmlns="http://www.w3.org/2000/svg" width="20" height="20" viewBox="0 0 20 20" fill="none"><rect width="20" height="20" fill="none"/>
<path d="M14.75 3.99902V12.5H16C16.1782 12.5 16.3432 12.5949 16.4327 12.749C16.522 12.9031 16.5229 13.0934 16.4346 13.248L14.4346 16.748C14.3456 16.9038 14.1794 17 14 17C13.8207 16.9999 13.6545 16.9038 13.5655 16.748L11.5655 13.248C11.4773 13.0934 11.4781 12.903 11.5674 12.749C11.6568 12.5949 11.8219 12.5001 12 12.5H13.25V3.99902H14.75Z" fill="#000000"/>
<path d="M6.00004 3C6.17942 3.00001 6.34558 3.09623 6.43461 3.25195L8.43461 6.75195C8.52291 6.90664 8.52204 7.0969 8.43266 7.25098C8.34319 7.40506 8.17823 7.49999 8.00004 7.5H6.75004V16H5.25004V7.5H4.00004C3.82191 7.49991 3.65685 7.40506 3.56743 7.25098C3.47813 7.09696 3.47726 6.90659 3.56547 6.75195L5.56547 3.25195C5.65445 3.09624 5.82072 3.00009 6.00004 3Z" fill="#000000"/>
</svg>
