<svg xmlns="http://www.w3.org/2000/svg" width="24" height="24" viewBox="0 0 24 24" fill="none"><rect width="24" height="24" fill="none"/>
<path d="M6 21H5C3.89543 21 3 20.1046 3 19V12C3 10.8954 3.89543 10 5 10H6V21Z" fill="#000000"/>
<path d="M12 2.5C14.1884 2.5 15.8529 4.46544 15.4932 6.62402L15.1807 8.5H18.4678C20.4056 8.5 21.8356 10.3102 21.3867 12.1953L20.2051 17.1582C19.6688 19.4105 17.656 20.9999 15.3408 21H8V9.64453C9.41681 8.24029 10.3914 6.44348 10.7852 4.47461L11.0195 3.30371L11.041 3.21777C11.1649 2.79575 11.5532 2.5 12 2.5Z" fill="#000000"/>
</svg>
