<svg xmlns="http://www.w3.org/2000/svg" width="20" height="20" viewBox="0 0 20 20" fill="none"><rect width="20" height="20" fill="none"/>
<path d="M10.4697 10.4697C10.6777 10.2618 10.9883 10.1946 11.2637 10.2979L19.2637 13.2979C19.5502 13.4055 19.7428 13.6765 19.75 13.9824C19.757 14.2885 19.5772 14.5687 19.2959 14.6895L16.0713 16.0713L14.6895 19.2959C14.5687 19.5772 14.2885 19.757 13.9824 19.75C13.6765 19.7428 13.4055 19.5501 13.2979 19.2637L10.2979 11.2637C10.1946 10.9883 10.2618 10.6777 10.4697 10.4697ZM14.0459 16.9873L14.9297 14.9287L16.9873 14.0459L12.2812 12.2812L14.0459 16.9873Z" fill="#000000"/>
<path d="M14.6543 2.50391C16.1883 2.58163 17.4184 3.81166 17.4961 5.3457L17.5 5.5V10H16V5.5C16 4.67157 15.3284 4 14.5 4H5.5C4.67157 4 4 4.67157 4 5.5V14.5C4 15.3284 4.67157 16 5.5 16H10V17.5H5.5C3.84315 17.5 2.5 16.1569 2.5 14.5V5.5C2.5 3.8949 3.76056 2.58421 5.3457 2.50391L5.5 2.5H14.5L14.6543 2.50391Z" fill="#000000"/>
<path d="M9.03711 10.4512H6V8.95117H9.03711V10.4512Z" fill="#000000"/>
<path d="M13 7.45117H6V5.95117H13V7.45117Z" fill="#000000"/>
</svg>
