<svg xmlns="http://www.w3.org/2000/svg" width="24" height="24" viewBox="0 0 24 24" fill="none"><rect width="24" height="24" fill="none"/>
<path d="M11.2935 14.2079C11.6841 13.8174 12.3171 13.8174 12.7076 14.2079L15.7906 17.2909C16.1808 17.6815 16.181 18.3146 15.7906 18.705L12.7076 21.788C12.3172 22.1783 11.684 22.1782 11.2935 21.788L8.21054 18.705C7.82007 18.3145 7.82017 17.6815 8.21054 17.2909L11.2935 14.2079Z" fill="#000000"/>
<path d="M5.29355 8.20696C5.68407 7.81643 6.31709 7.81643 6.70761 8.20696L9.79355 11.2929C10.1838 11.6834 10.1839 12.3165 9.79355 12.707L6.70761 15.7929C6.31707 16.1835 5.68409 16.1835 5.29355 15.7929L2.20761 12.707C1.81719 12.3164 1.81719 11.6834 2.20761 11.2929L5.29355 8.20696Z" fill="#000000"/>
<path d="M17.2896 8.20989C17.6801 7.81939 18.3132 7.81943 18.7037 8.20989L21.7877 11.2929C22.1779 11.6834 22.178 12.3165 21.7877 12.707L18.7037 15.7909C18.3131 16.1813 17.6801 16.1805 17.2896 15.79L14.2066 12.707C13.8162 12.3164 13.8162 11.6834 14.2066 11.2929L17.2896 8.20989Z" fill="#000000"/>
<path d="M11.2935 2.20696C11.6841 1.81643 12.3171 1.81643 12.7076 2.20696L15.7935 5.29289C16.1838 5.68344 16.184 6.31653 15.7935 6.70696L12.7076 9.79289C12.3172 10.1832 11.684 10.1831 11.2935 9.79289L8.20761 6.70696C7.81714 6.31648 7.81724 5.68343 8.20761 5.29289L11.2935 2.20696Z" fill="#000000"/>
</svg>
