<svg xmlns="http://www.w3.org/2000/svg" width="20" height="20" viewBox="0 0 20 20" fill="none"><rect width="20" height="20" fill="none"/>
<path d="M15 18.5H4V17H15V18.5Z" fill="#000000"/>
<path d="M15 2.5H17V4H15V16H13.5V14.2725C12.4972 15.3354 11.0767 16 9.5 16C6.46243 16 4 13.5376 4 10.5C4 7.46243 6.46243 5 9.5 5C11.0764 5 12.4972 5.66393 13.5 6.72656V4H10V2.5H13.5V1H15V2.5ZM9.5 6.5C7.29086 6.5 5.5 8.29086 5.5 10.5C5.5 12.7091 7.29086 14.5 9.5 14.5C11.7091 14.5 13.5 12.7091 13.5 10.5C13.5 8.29086 11.7091 6.5 9.5 6.5Z" fill="#000000"/>
</svg>
