<svg xmlns="http://www.w3.org/2000/svg" width="20" height="20" viewBox="0 0 20 20" fill="none"><rect width="20" height="20" fill="none"/>
<path d="M11 6V10.5859L12.293 9.29297L13.707 10.707L10 14.4141L6.29297 10.707L7.70703 9.29297L9 10.5859V6H11Z" fill="#000000"/>
<path d="M10 2C14.4183 2 18 5.58172 18 10C17.9999 14.4182 14.4182 18 10 18C5.5818 18 2.00013 14.4182 2 10C2 5.58172 5.58172 2 10 2ZM10 4C6.68629 4 4 6.68629 4 10C4.00013 13.3136 6.68637 16 10 16C13.3136 16 15.9999 13.3136 16 10C16 6.68629 13.3137 4 10 4Z" fill="#000000"/>
</svg>
