<svg xmlns="http://www.w3.org/2000/svg" width="24" height="24" viewBox="0 0 24 24" fill="none"><rect width="24" height="24" fill="none"/>
<path d="M22.207 15.207L15.207 22.207L13.793 20.793L20.793 13.793L22.207 15.207Z" fill="#000000"/>
<path d="M12 2C13.6569 2 15 3.34314 15 5V7H17C18.6568 7 20 8.34317 20 10V12H18V10C18 9.44774 17.5523 9 17 9H13V5C13 4.44771 12.5523 4 12 4H6V20H12V22H4V2H12Z" fill="#000000"/>
<path d="M20.5 19C21.3284 19 22 19.6716 22 20.5C22 21.3284 21.3284 22 20.5 22C19.6716 22 19 21.3284 19 20.5C19 19.6716 19.6716 19 20.5 19Z" fill="#000000"/>
<path d="M15.5 14C16.3284 14 17 14.6716 17 15.5C17 16.3284 16.3284 17 15.5 17C14.6716 17 14 16.3284 14 15.5C14 14.6716 14.6716 14 15.5 14Z" fill="#000000"/>
</svg>
