<svg xmlns="http://www.w3.org/2000/svg" width="24" height="24" viewBox="0 0 24 24" fill="none"><rect width="24" height="24" fill="none"/>
<path d="M21.7069 20.293L20.2928 21.707L16.5907 18.0049C15.3481 18.6021 13.8598 18.9999 12.1004 19C8.49106 18.9998 5.97122 17.3339 4.3807 15.6973C3.5884 14.8819 3.01995 14.0678 2.64828 13.457C2.46203 13.151 2.32365 12.8929 2.23031 12.708C2.18369 12.6156 2.14767 12.5408 2.12289 12.4873C2.11069 12.461 2.10063 12.4396 2.09359 12.4238C2.09008 12.4159 2.08702 12.4084 2.0848 12.4033C2.08382 12.4011 2.08187 12.3975 2.08187 12.3975L2.0809 12.3945L2.99984 12L2.0809 11.6064L2.08187 11.6025C2.08187 11.6025 2.08382 11.5989 2.0848 11.5967C2.08702 11.5916 2.09008 11.5841 2.09359 11.5762C2.10063 11.5604 2.11069 11.539 2.12289 11.5127C2.14767 11.4592 2.18369 11.3844 2.23031 11.292C2.32365 11.1071 2.46203 10.849 2.64828 10.543C3.01995 9.93224 3.5884 9.11807 4.3807 8.30273C4.76834 7.90386 5.21202 7.50407 5.71273 7.12695L2.29281 3.70703L3.70687 2.29297L21.7069 20.293ZM7.14242 8.55664C6.63827 8.91343 6.19726 9.3042 5.81527 9.69727C5.15025 10.3817 4.66916 11.0679 4.35629 11.582C4.26003 11.7402 4.18006 11.8816 4.11605 12C4.18006 12.1184 4.26003 12.2598 4.35629 12.418C4.66916 12.9321 5.15025 13.6183 5.81527 14.3027C7.14004 15.6659 9.172 16.9998 12.1004 17C13.2251 16.9999 14.2086 16.8003 15.0662 16.4805L13.3289 14.7432C12.2294 15.2265 10.9001 15.0213 9.99984 14.1211C9.09968 13.2205 8.89292 11.8904 9.3768 10.791L7.14242 8.55664Z" fill="#000000"/>
<path d="M12.1004 5C15.7132 5.00015 18.1867 6.66959 19.7313 8.31543C20.4994 9.13394 21.0428 9.95061 21.3954 10.5635C21.5719 10.8705 21.7023 11.1297 21.7899 11.3154C21.8337 11.4083 21.8673 11.4842 21.8905 11.5381C21.9019 11.5648 21.9112 11.5865 21.9178 11.6025C21.921 11.6103 21.9236 11.617 21.9256 11.6221C21.9266 11.6245 21.9286 11.6289 21.9286 11.6289L21.9295 11.6318L20.9998 12L21.9295 12.3672L21.9286 12.3711C21.9286 12.3711 21.9266 12.3755 21.9256 12.3779C21.9236 12.383 21.921 12.3897 21.9178 12.3975C21.9112 12.4135 21.9019 12.4352 21.8905 12.4619C21.8673 12.5158 21.8337 12.5917 21.7899 12.6846C21.7023 12.8703 21.5719 13.1295 21.3954 13.4365C21.0428 14.0494 20.4994 14.8661 19.7313 15.6846C19.71 15.7072 19.6865 15.7283 19.6649 15.751L18.2508 14.3369C18.2577 14.3296 18.2654 14.3227 18.2723 14.3154C18.9115 13.6343 19.3674 12.9505 19.662 12.4385C19.7583 12.271 19.8358 12.1222 19.8973 12C19.8358 11.8778 19.7583 11.729 19.662 11.5615C19.3674 11.0495 18.9115 10.3657 18.2723 9.68457C17.0017 8.33075 15.0252 7.00015 12.1004 7C11.7122 7.00002 11.3394 7.02449 10.9823 7.06836L9.27914 5.36523C10.1336 5.13438 11.0731 5.00005 12.1004 5Z" fill="#000000"/>
<path d="M2.99984 12L2.07992 12.3926C1.97303 12.142 1.97303 11.858 2.07992 11.6074L2.99984 12Z" fill="#000000"/>
<path d="M21.9305 11.6338C22.0231 11.8691 22.0231 12.1309 21.9305 12.3662L20.9998 12L21.9305 11.6338Z" fill="#000000"/>
</svg>
