<svg xmlns="http://www.w3.org/2000/svg" width="20" height="20" viewBox="0 0 20 20" fill="none"><rect width="20" height="20" fill="none"/>
<path d="M15.2637 13.0596C15.4263 12.9726 15.6239 12.9817 15.7773 13.084L18.7773 15.084C18.9163 15.1767 19 15.3329 19 15.5C18.9998 15.667 18.9163 15.8234 18.7773 15.916L15.7773 17.916C15.624 18.0181 15.4261 18.0273 15.2637 17.9404C15.1015 17.8534 15.0002 17.684 15 17.5V16.5C13.8954 16.5 13 17.3954 13 18.5V19H11V18.5C11 16.2909 12.7909 14.5 15 14.5V13.5L15.0049 13.4316C15.0265 13.2748 15.1218 13.1358 15.2637 13.0596Z" fill="#000000"/>
<path d="M17 6.96484V11H15V8.03516L10 4.70117L5 8.03516V15H9V17H3V6.96484L10 2.29785L17 6.96484Z" fill="#000000"/>
</svg>
