<svg xmlns="http://www.w3.org/2000/svg" width="20" height="20" viewBox="0 0 20 20" fill="none"><rect width="20" height="20" fill="none"/>
<path d="M18.5303 17.4688L17.4697 18.5293L14.4131 15.4727C13.9771 15.6509 13.5003 15.75 13 15.75H7.5V17C7.49987 17.178 7.40493 17.3432 7.25098 17.4326C7.09698 17.5219 6.90657 17.5228 6.75195 17.4346L3.25195 15.4346C3.09637 15.3456 3.00013 15.1792 3 15C3.00015 14.8208 3.09637 14.6544 3.25195 14.5654L6.75195 12.5654C6.90655 12.4773 7.09699 12.4781 7.25098 12.5674C7.40492 12.6568 7.49985 12.822 7.5 13V14.25H13C13.0609 14.25 13.121 14.245 13.1807 14.2402L5.38086 6.44043C4.99077 6.84451 4.75008 7.3937 4.75 8V10H3.25V8C3.25008 6.97973 3.65913 6.05595 4.32031 5.37988L1.46973 2.5293L2.53027 1.46875L18.5303 17.4688Z" fill="#000000"/>
<path d="M16.75 12C16.75 12.4997 16.6511 12.9762 16.4736 13.4121L15.2402 12.1787C15.2449 12.1197 15.25 12.0602 15.25 12V10H16.75V12Z" fill="#000000"/>
<path d="M12.749 2.56738C12.903 2.47813 13.0934 2.47727 13.248 2.56543L16.748 4.56543C16.9036 4.6544 16.9999 4.82079 17 5C16.9999 5.17923 16.9036 5.34558 16.748 5.43457L13.248 7.43457C13.0934 7.52275 12.903 7.52188 12.749 7.43262C12.5951 7.34319 12.5001 7.17803 12.5 7V5.75H8.81152L7.31152 4.25H12.5V3C12.5001 2.82198 12.5951 2.6568 12.749 2.56738Z" fill="#000000"/>
</svg>
