<svg xmlns="http://www.w3.org/2000/svg" width="20" height="20" viewBox="0 0 20 20" fill="none"><rect width="20" height="20" fill="none"/>
<path d="M7.93041 2.27247C8.94488 2.00071 10.0034 1.93136 11.0447 2.06837C12.086 2.2055 13.0911 2.54715 14.0007 3.07228C14.9102 3.59745 15.708 4.29675 16.3474 5.1299C16.4616 5.27868 16.5685 5.43288 16.6716 5.58888L15.2185 7.04201L15.2156 7.0381L11.2263 11.0274C10.9328 11.3771 10.493 11.6006 10.0007 11.6006C9.11729 11.6003 8.40111 10.8835 8.40111 10C8.40128 9.11666 9.11739 8.40066 10.0007 8.4004C10.2946 8.40041 10.5697 8.48087 10.8064 8.61915L13.9451 5.47951C13.6535 5.22499 13.3374 4.99813 13.0007 4.80372C12.3186 4.40994 11.5648 4.15463 10.7839 4.05177C10.003 3.949 9.20883 4.0003 8.44799 4.20411C7.68703 4.40804 6.9734 4.76067 6.34838 5.24025C5.72342 5.71983 5.19835 6.3178 4.80443 7.00001C4.41065 7.68217 4.15534 8.4359 4.05248 9.21681C3.94972 9.99768 4.00105 10.792 4.20482 11.5527C4.40873 12.3136 4.7615 13.0274 5.24096 13.6524C5.66048 14.199 6.17095 14.6693 6.74877 15.042L7.00072 15.1963L7.25951 15.3369C7.87142 15.6512 8.53407 15.8582 9.21752 15.9483C9.99848 16.051 10.7926 15.9997 11.5535 15.7959C12.3144 15.592 13.028 15.2394 13.6531 14.7598C14.278 14.2802 14.8031 13.6822 15.197 13C15.5908 12.3179 15.8461 11.5641 15.949 10.7832C16.0204 10.2401 16.0153 9.69049 15.9382 9.1504L17.5964 7.49318C17.6439 7.63715 17.6889 7.78291 17.7283 7.9297C18 8.94408 18.0694 10.0028 17.9324 11.044C17.7952 12.0853 17.4536 13.0904 16.9285 14C16.4032 14.9096 15.7041 15.7073 14.8708 16.3467C14.0374 16.9862 13.0857 17.4557 12.071 17.7276C11.0566 17.9993 9.99803 18.0687 8.95678 17.9317C7.91542 17.7945 6.91037 17.4529 6.00072 16.9277C5.09127 16.4026 4.29342 15.7033 3.65404 14.8701C3.0147 14.0368 2.54507 13.0848 2.27318 12.0703C2.00146 11.0559 1.9321 9.99724 2.06908 8.95607C2.20623 7.91471 2.54784 6.90966 3.07299 6.00001C3.5982 5.09045 4.29736 4.29275 5.1306 3.65333C5.964 3.01387 6.91575 2.54438 7.93041 2.27247Z" fill="#000000"/>
</svg>
