<svg xmlns="http://www.w3.org/2000/svg" width="24" height="24" viewBox="0 0 24 24" fill="none"><rect width="24" height="24" fill="none"/>
<path d="M13 4H13.4473C15.9325 4 17.9473 6.01474 17.9473 8.5C17.9473 9.6952 17.4799 10.7802 16.7197 11.5859C18.0811 12.3597 19 13.8221 19 15.5C19 17.9853 16.9853 20 14.5 20H13V22H11V20H7V4H11V2H13V4ZM9 18H14.5C15.8807 18 17 16.8807 17 15.5C17 14.1193 15.8807 13 14.5 13H9V18ZM9 11H13.4473C14.828 11 15.9472 9.88069 15.9473 8.5C15.9473 7.11931 14.828 6 13.4473 6H9V11Z" fill="#000000"/>
</svg>
