<svg xmlns="http://www.w3.org/2000/svg" width="24" height="24" viewBox="0 0 24 24" fill="none"><rect width="24" height="24" fill="none"/>
<path d="M14.825 20C14.4128 21.1643 13.3052 21.9996 11.9998 22C10.694 22 9.58577 21.1646 9.1736 20H14.825Z" fill="#000000"/>
<path d="M12.9998 4.08398C15.837 4.5605 17.9998 7.02738 17.9998 10V12.0752C17.9998 12.215 18.029 12.3537 18.0857 12.4814L19.2888 15.1875C19.8762 16.5097 18.9074 17.9994 17.4607 18H6.53883C5.09152 18 4.1229 16.5101 4.71071 15.1875L5.91383 12.4814C5.97046 12.3538 5.99977 12.2149 5.99977 12.0752V10C5.99978 7.02707 8.16214 4.56013 10.9998 4.08398V2H12.9998V4.08398Z" fill="#000000"/>
</svg>
