<svg xmlns="http://www.w3.org/2000/svg" width="24" height="24" viewBox="0 0 24 24" fill="none"><rect width="24" height="24" fill="none"/>
<path d="M18 13C20.7614 13 23 15.2386 23 18C23 20.7614 20.7614 23 18 23C15.2386 23 13 20.7614 13 18C13 15.2386 15.2386 13 18 13ZM15.2949 16.709C15.1078 17.1004 15 17.5372 15 18C15 19.6569 16.3431 21 18 21C18.4626 21 18.8988 20.8911 19.29 20.7041L15.2949 16.709ZM18 15C17.5372 15 17.1004 15.1078 16.709 15.2949L20.7041 19.29C20.8911 18.8988 21 18.4626 21 18C21 16.3431 19.6569 15 18 15Z" fill="#000000"/>
<path d="M12 2C13.6569 2 15 3.34314 15 5V7H17C18.6568 7 20 8.34317 20 10V11H18V10C18 9.44774 17.5523 9 17 9H13V5C13 4.44771 12.5523 4 12 4H6V20H11V22H4V2H12Z" fill="#000000"/>
</svg>
