<svg xmlns="http://www.w3.org/2000/svg" width="20" height="20" viewBox="0 0 20 20" fill="none"><rect width="20" height="20" fill="none"/>
<path d="M16 14H19V16H16V19H14V16H11V14H14V11H16V14Z" fill="#000000"/>
<path d="M10 2C14 2 17 5.5 17 9H15C15 6.51149 12.8046 4 10 4C7.1954 4 5 6.51149 5 9C5 10.8556 5.91973 12.3984 7.17285 13.6504C7.77535 14.2523 8.42118 14.7493 9 15.1396V17.4893C7.06537 16.4012 3 13.5722 3 9C3 5.5 6 2 10 2Z" fill="#000000"/>
<path d="M10 6C11.6569 6 13 7.34315 13 9C13 10.6569 11.6569 12 10 12C8.34315 12 7 10.6569 7 9C7 7.34315 8.34315 6 10 6ZM10 8C9.44772 8 9 8.44772 9 9C9 9.55228 9.44772 10 10 10C10.5523 10 11 9.55228 11 9C11 8.44772 10.5523 8 10 8Z" fill="#000000"/>
</svg>
