<svg xmlns="http://www.w3.org/2000/svg" width="24" height="24" viewBox="0 0 24 24" fill="none"><rect width="24" height="24" fill="none"/>
<path d="M14.3314 2.25678C14.6627 1.95875 15.1515 1.91555 15.5296 2.15131C15.9076 2.38744 16.0845 2.84583 15.9623 3.27436L14.2249 9.35443L19.3167 11.0517C19.6541 11.1644 19.9062 11.4476 19.9789 11.7958C20.0514 12.1441 19.9337 12.505 19.6693 12.7431L9.66928 21.7431C9.33804 22.0411 8.84912 22.0842 8.47104 21.8486C8.09304 21.6125 7.91624 21.1541 8.03842 20.7255L9.77475 14.6445L4.68393 12.9482C4.34657 12.8356 4.09451 12.5522 4.02182 12.204C3.9492 11.8557 4.06698 11.4949 4.33139 11.2568L14.3314 2.25678ZM6.94467 11.5937L11.3167 13.0517C11.8241 13.2212 12.109 13.7599 11.9623 14.2744L10.9173 17.9287L17.055 12.4052L12.6839 10.9482C12.1765 10.7788 11.8917 10.24 12.0384 9.72553L13.0824 6.07025L6.94467 11.5937Z" fill="#000000"/>
</svg>
