<svg xmlns="http://www.w3.org/2000/svg" width="24" height="24" viewBox="0 0 24 24" fill="none"><rect width="24" height="24" fill="none"/>
<path d="M5.24609 3.65432C6.48311 1.66187 9.29263 1.42541 10.8447 3.18362L11.999 4.49123L13.1523 3.18362C14.7046 1.42565 17.5141 1.66171 18.751 3.65432L19.2471 4.45608L19.5605 4.96096L19.0088 5.18264C17.2686 5.88377 16.2798 6.81703 15.4971 8.00002C15.3956 8.15364 15.4133 8.30853 15.5049 8.43362C15.6011 8.56478 15.7743 8.65122 15.9805 8.61233L22.9971 7.28811V7.89065C22.997 10.6338 22.1771 12.7549 20.752 14.1905C19.5004 15.4508 17.8234 16.1402 15.9395 16.2891L17.917 20.2715L16.7207 20.874C13.7505 22.3695 10.2466 22.3703 7.27637 20.875L6.52441 20.4951L6.08008 20.2715L8.05664 16.2891C6.17302 16.1401 4.49649 15.4506 3.24512 14.1905C1.81979 12.7549 1.00009 10.6339 1 7.89065V7.28811L8.0166 8.61233C8.2227 8.65108 8.396 8.56474 8.49219 8.43362C8.58359 8.3086 8.60136 8.15351 8.5 8.00002C7.71725 6.81694 6.72845 5.88381 4.98828 5.18264L4.43652 4.96096L4.75 4.45608L5.24609 3.65432ZM10.6172 10C10.2765 10 10.0001 10.326 10 10.7285V13.624C10 14.2281 11.9928 14.9973 12 15C12.0072 14.9973 14 14.2281 14 13.624V10.7285C13.9999 10.326 13.7235 10 13.3828 10H10.6172Z" fill="#000000"/>
</svg>
