<svg xmlns="http://www.w3.org/2000/svg" width="24" height="24" viewBox="0 0 24 24" fill="none"><rect width="24" height="24" fill="none"/>
<path d="M18.0005 11.0005C18.5528 11.0005 19.0005 11.4482 19.0005 12.0005C19.0002 12.5525 18.5526 12.9995 18.0005 12.9995C17.4486 12.9992 17.0008 12.5524 17.0005 12.0005C17.0005 11.4484 17.4484 11.0008 18.0005 11.0005Z" fill="#000000"/>
<path d="M19.0005 3.99951C20.6572 3.99951 22.0002 5.34288 22.0005 6.99951V16.9995C22.0005 18.6564 20.6573 19.9995 19.0005 19.9995H5.00049C3.34386 19.9992 2.00049 18.6562 2.00049 16.9995V6.99951C2.00075 5.34305 3.34402 3.99977 5.00049 3.99951H19.0005ZM5.00049 5.99951C4.44859 5.99977 4.00075 6.44761 4.00049 6.99951V16.9995C4.00049 17.5516 4.44843 17.9992 5.00049 17.9995H19.0005C19.5528 17.9995 20.0005 17.5518 20.0005 16.9995V6.99951C20.0002 6.44745 19.5526 5.99951 19.0005 5.99951H5.00049Z" fill="#000000"/>
</svg>
