<svg xmlns="http://www.w3.org/2000/svg" width="20" height="20" viewBox="0 0 20 20" fill="none"><rect width="20" height="20" fill="none"/>
<path d="M15 6C16.6569 6 18 7.34315 18 9V15C18 16.6569 16.6569 18 15 18H5L4.8457 17.9961C3.26055 17.9158 2 16.6051 2 15V9C2 7.34315 3.34315 6 5 6H15ZM5 8C4.44772 8 4 8.44772 4 9V15C4 15.5523 4.44772 16 5 16H15C15.5523 16 16 15.5523 16 15V9C16 8.44772 15.5523 8 15 8H5Z" fill="#000000"/>
<path d="M14 2C15.1046 2 16 2.89543 16 4H4C4 2.89543 4.89543 2 6 2H14Z" fill="#000000"/>
</svg>
