<svg xmlns="http://www.w3.org/2000/svg" width="24" height="24" viewBox="0 0 24 24" fill="none"><rect width="24" height="24" fill="none"/>
<path d="M9.55273 3.00091C10.0088 3.02499 10.3906 3.35589 10.4805 3.80364L12.7002 14.9042L15.043 7.20892L15.1025 7.05852C15.2666 6.72507 15.6068 6.50494 15.9873 6.49993C16.4221 6.49441 16.8104 6.77112 16.9482 7.18352L18.2207 10.9999H21V12.9999H17.5C17.0697 12.9999 16.688 12.7244 16.5518 12.3163L16.043 10.7919L13.457 19.2909C13.3236 19.7293 12.9088 20.0213 12.4512 19.999C11.9935 19.9765 11.6095 19.6455 11.5195 19.1962L9.28613 8.03216L7.9541 12.2978C7.8236 12.7152 7.43734 12.9999 7 12.9999H3V10.9999H6.26562L8.5459 3.70208L8.60938 3.54583C8.78628 3.19883 9.15349 2.97984 9.55273 3.00091Z" fill="#000000"/>
</svg>
