<svg xmlns="http://www.w3.org/2000/svg" width="20" height="20" viewBox="0 0 20 20" fill="none"><rect width="20" height="20" fill="none"/>
<path d="M10 12C10.1574 12 10.306 12.0744 10.4004 12.2002L13.4004 16.2002C13.5138 16.3517 13.5319 16.5544 13.4473 16.7236C13.3626 16.893 13.1894 17 13 17H7.00003C6.81074 16.9999 6.63742 16.8929 6.55276 16.7236C6.46821 16.5544 6.48632 16.3516 6.59964 16.2002L9.59964 12.2002C9.69401 12.0744 9.84274 12.0001 10 12Z" fill="#000000"/>
<path d="M13 3C13.1894 3 13.3626 3.10703 13.4473 3.27637C13.5319 3.44564 13.5138 3.64833 13.4004 3.7998L10.4004 7.7998C10.306 7.92563 10.1574 8 10 8C9.84274 7.99992 9.69401 7.92564 9.59964 7.7998L6.59964 3.7998C6.48632 3.64837 6.46821 3.44558 6.55276 3.27637C6.63742 3.10705 6.81074 3.0001 7.00003 3H13Z" fill="#000000"/>
</svg>
