<svg xmlns="http://www.w3.org/2000/svg" width="20" height="20" viewBox="0 0 20 20" fill="none"><rect width="20" height="20" fill="none"/>
<path d="M5.54211 3.13261C6.81787 2.89337 8.56702 2.89478 10.4187 3.85C11.7982 4.56161 13.0783 4.47627 14.0392 4.20748C14.5236 4.07194 14.9219 3.89025 15.197 3.74324C15.3338 3.67016 15.4383 3.60671 15.5055 3.56369C15.5388 3.54238 15.5632 3.52648 15.5773 3.51678L15.5909 3.50708C15.8546 3.31481 16.2105 3.28115 16.5095 3.41973C16.8094 3.55879 17 3.84693 17 4.163V14.1474L16.5873 14.3901L16.5847 14.3925C16.5847 14.3925 16.5811 14.394 16.5796 14.3949C16.5764 14.3968 16.5721 14.3988 16.5676 14.4014C16.5582 14.4067 16.5458 14.4142 16.5309 14.4224C16.501 14.4388 16.4598 14.4604 16.4087 14.4863C16.3057 14.5385 16.16 14.6082 15.9772 14.6836C15.6124 14.8342 15.0924 15.0126 14.4579 15.1317C13.1821 15.3711 11.433 15.3696 9.5813 14.4143C8.16657 13.6844 6.85305 13.6856 5.88306 13.8676C5.41099 13.9562 5.0222 14.0878 4.75 14.1984V17H3V4.1169L3.41272 3.87426L3.875 4.5771C3.44121 3.91783 3.41486 3.87624 3.41357 3.87346L3.41614 3.87184L3.42041 3.86941C3.42365 3.86753 3.42778 3.86476 3.43237 3.86213C3.44175 3.8568 3.45429 3.85005 3.46912 3.84191C3.49909 3.82546 3.53995 3.8032 3.59131 3.77721C3.69432 3.72508 3.84002 3.65611 4.02283 3.58068C4.38755 3.43018 4.90755 3.25164 5.54211 3.13261ZM10 9.36833C8.30462 8.61481 6.72143 8.62943 5.54211 8.8507C5.25284 8.90499 4.98776 8.97328 4.75 9.044V12.436C4.98779 12.3653 5.2528 12.297 5.54211 12.2427C6.72142 12.0215 8.30463 12.0069 10 12.7604V9.36833ZM10 9.33678C11.7276 10.0831 13.3605 9.95554 14.5459 9.6239C14.8007 9.5526 15.0353 9.46819 15.25 9.3845V5.5533C15.0326 5.63829 14.7944 5.72352 14.5356 5.79593C13.346 6.12877 11.7308 6.256 10 5.50073V9.33678Z" fill="#000000"/>
</svg>
