<svg xmlns="http://www.w3.org/2000/svg" width="20" height="20" viewBox="0 0 20 20" fill="none"><rect width="20" height="20" fill="none"/>
<path d="M11.4145 10L10.0004 11.4141L8.58541 10L10.0004 8.58594L11.4145 10Z" fill="#000000"/>
<path d="M18.4848 7.17188L15.6567 10L16.3637 10.707L10.0004 17.0713C8.82895 18.2428 6.92887 18.2426 5.75728 17.0713L2.92916 14.2422C1.7577 13.0706 1.75762 11.1715 2.92916 10L9.29244 3.63574L10.0004 4.34277L12.8286 1.51465L18.4848 7.17188ZM4.34322 11.4141C3.95274 11.8045 3.95281 12.4376 4.34322 12.8281L7.17135 15.6572C7.56176 16.0474 8.19493 16.0473 8.58541 15.6572L13.5356 10.707L9.29244 6.46484L4.34322 11.4141ZM11.4145 5.75781L14.2426 8.58594L15.6567 7.17188L12.8286 4.34277L11.4145 5.75781Z" fill="#000000"/>
</svg>
