<svg xmlns="http://www.w3.org/2000/svg" width="20" height="20" viewBox="0 0 20 20" fill="none"><rect width="20" height="20" fill="none"/>
<path d="M12.5659 4.00977C12.8457 4.0559 13.08 4.25848 13.1626 4.53711L14.5591 9.25H16.4995C16.8343 9.25 17.1282 9.47211 17.2202 9.79395L18.7202 15.0439C18.7849 15.2701 18.7397 15.5133 18.5982 15.7012C18.4564 15.8889 18.2348 16 17.9995 16H1.99953C1.76436 15.9999 1.54253 15.8889 1.4009 15.7012C1.25948 15.5134 1.21428 15.27 1.27883 15.0439L2.77883 9.79395L2.8218 9.67773C2.94432 9.41981 3.2068 9.25018 3.49953 9.25H5.4341L6.77883 4.54395L6.8218 4.42773C6.94432 4.16981 7.2068 4.00018 7.49953 4H12.4439L12.5659 4.00977ZM2.99367 14.5H9.00539L7.9341 10.75H4.06496L2.99367 14.5ZM10.565 14.5H17.0054L15.9341 10.75H9.49367L10.565 14.5ZM6.99367 9.25H12.9946L11.8833 5.5H8.06496L6.99367 9.25Z" fill="#000000"/>
</svg>
