<svg xmlns="http://www.w3.org/2000/svg" width="20" height="20" viewBox="0 0 20 20" fill="none"><rect width="20" height="20" fill="none"/>
<path d="M12 8H14V10H12V12H10V10H8V8H10V6H12V8Z" fill="#000000"/>
<path d="M11 2C14.866 2 18 5.13401 18 9C18 12.276 15.7493 15.0269 12.71 15.79C11.6118 17.1818 9.91072 18.0752 8 18.0752C4.68629 18.0752 2 15.3889 2 12.0752C2 10.2172 2.84474 8.55645 4.1709 7.45605C4.87397 4.33292 7.66451 2 11 2ZM4.22266 10.7568C4.07858 11.1695 4 11.6133 4 12.0752C4 14.2843 5.79086 16.0752 8 16.0752C8.4967 16.0752 8.97232 15.9848 9.41113 15.8193C6.87738 15.2313 4.87153 13.2667 4.22266 10.7568ZM11 4C8.39998 4 6.26333 5.98453 6.02246 8.52148C6.02456 8.54581 6.02691 8.57048 6.0293 8.59473C6.02473 8.59732 6.02018 8.59993 6.01562 8.60254C6.00531 8.73366 6 8.86623 6 9C6 11.7614 8.23858 14 11 14C13.7614 14 16 11.7614 16 9C16 6.23858 13.7614 4 11 4Z" fill="#000000"/>
</svg>
