<svg xmlns="http://www.w3.org/2000/svg" width="24" height="24" viewBox="0 0 24 24" fill="none"><rect width="24" height="24" fill="none"/>
<g clip-path="url(#clip0_152247_18095)">
<path d="M14.293 14.293C14.5701 14.0158 14.9845 13.9261 15.3516 14.0635L23.3516 17.0635C23.7335 17.2069 23.9903 17.5687 24 17.9766C24.0094 18.3848 23.7689 18.758 23.3936 18.9189L20.2617 20.2607L18.9189 23.3936C18.758 23.7689 18.3848 24.0094 17.9766 24C17.5687 23.9903 17.2069 23.7335 17.0635 23.3516L14.0635 15.3516C13.926 14.9845 14.0158 14.5701 14.293 14.293ZM18.0615 20.3164L18.7393 18.7383L19.1064 18.5811L20.3164 18.0615L16.709 16.709L18.0615 20.3164Z" fill="#000000"/>
<path d="M20 3C21.1046 3 22 3.89543 22 5V13H20V5H4V14H11V21H6V19H7C8.10457 19 9 18.1046 9 17V16H4L3.7959 15.9893C2.85435 15.8938 2.1062 15.1457 2.01074 14.2041L2 14V5C2 3.96435 2.78722 3.113 3.7959 3.01074L4 3H20Z" fill="#000000"/>
</g>
<defs>
<clipPath id="clip0_152247_18095">
<rect width="24" height="24" fill="white"/>
</clipPath>
</defs>
</svg>
