<svg xmlns="http://www.w3.org/2000/svg" width="20" height="20" viewBox="0 0 20 20" fill="none"><rect width="20" height="20" fill="none"/>
<path d="M11 1C12.6569 1 14 2.34315 14 4C15.6569 4 17 5.34315 17 7V15C17 16.6569 15.6569 18 14 18V19H12V18H8V19H6V18C4.34315 18 3 16.6569 3 15V7C3 5.34315 4.34315 4 6 4C6 2.34315 7.34315 1 9 1H11ZM6 6C5.44772 6 5 6.44772 5 7V15C5 15.5523 5.44772 16 6 16H14C14.5523 16 15 15.5523 15 15V7C15 6.44772 14.5523 6 14 6H6ZM9 3C8.44772 3 8 3.44772 8 4H12C12 3.44772 11.5523 3 11 3H9Z" fill="#000000"/>
</svg>
