<svg xmlns="http://www.w3.org/2000/svg" width="24" height="24" viewBox="0 0 24 24" fill="none"><rect width="24" height="24" fill="none"/>
<path d="M21.707 20.293L20.2929 21.707L18.6943 20.1084L18.6992 20.1299C18.926 21.2383 17.7269 22.0884 16.7568 21.5059L12 18.6484L7.24313 21.5059C6.27332 22.087 5.07352 21.2376 5.29977 20.1299L6.35738 14.9795L2.32125 11.2832C1.4922 10.5229 1.95559 9.13985 3.07516 9.03125L7.21774 8.63184L2.29293 3.70703L3.70699 2.29297L21.707 20.293ZM9.02438 10.4385C8.9184 10.4669 8.80954 10.4883 8.6982 10.499L4.83199 10.8701L7.70797 13.5049C8.22647 13.9799 8.45755 14.693 8.31637 15.3818L7.58004 18.9697L10.9707 16.9346C11.6041 16.5544 12.3958 16.5544 13.0293 16.9346L16.4189 18.9697L16.125 17.5391L9.02438 10.4385Z" fill="#000000"/>
<path d="M10.8535 3.13672C11.3529 2.19207 12.7514 2.22331 13.1914 3.23047L15.4931 8.50781L20.9248 9.03125C22.0449 9.13923 22.5077 10.5227 21.6787 11.2832L18.2959 14.3809L16.8798 12.9648L19.167 10.8701L15.3017 10.499C14.5794 10.4292 13.9504 9.97273 13.6601 9.30762L12 5.50098L11.2148 7.2998L9.69527 5.78027L10.8086 3.23047L10.8535 3.13672Z" fill="#000000"/>
</svg>
