<svg xmlns="http://www.w3.org/2000/svg" width="20" height="20" viewBox="0 0 20 20" fill="none"><rect width="20" height="20" fill="none"/>
<path d="M15.2631 13.0605C15.4255 12.9737 15.6234 12.983 15.7767 13.085L18.7767 15.085C18.9156 15.1777 18.9993 15.334 18.9994 15.501C18.9993 15.668 18.9157 15.8243 18.7767 15.917L15.7767 17.917C15.6234 18.019 15.4255 18.0282 15.2631 17.9414C15.1011 17.8543 14.9995 17.6849 14.9994 17.501V16.501C13.8951 16.5012 12.9995 17.3966 12.9994 18.501V19.001H10.9994V18.501C10.9995 16.2921 12.7905 14.5012 14.9994 14.501V13.501L15.0043 13.4326C15.026 13.2759 15.1213 13.1367 15.2631 13.0605Z" fill="#000000"/>
<path d="M14.0014 3.00098C15.1053 3.00171 16.0014 3.89784 16.0014 5.00195V10.8115L16.4769 12.001L5.67713 12.002L4.47791 15.002H8.9994V17.002H3.00037C2.66904 17.002 2.35837 16.8365 2.17225 16.5625C1.98648 16.288 1.94894 15.9387 2.07166 15.6309L3.71619 11.5195V5.00195C3.71619 3.89738 4.61162 3.00098 5.71619 3.00098H14.0014ZM5.71619 10.002H14.0014V5.00195H5.71619V10.002Z" fill="#000000"/>
</svg>
