<svg xmlns="http://www.w3.org/2000/svg" width="20" height="20" viewBox="0 0 20 20" fill="none"><rect width="20" height="20" fill="none"/>
<path d="M10.75 5.5V7.70312L12.6533 6.60449L13.4033 7.90332L11.4951 9.00488L13.3984 10.1045L12.6475 11.4033L10.751 10.3076L10.75 12.499H9.25L9.25098 10.3008L7.34082 11.4033L6.59082 10.1045L8.49609 9.00488L6.58594 7.90332L7.33594 6.60449L9.25098 7.70996L9.25 5.5H10.75Z" fill="#000000"/>
<path d="M10 1.9502C14.7002 1.9502 18.0497 5.57206 18.0498 9.5C18.0498 14.4142 13.9142 18.0498 10 18.0498H9.25V16.0195C5.27773 15.7018 1.9502 12.8824 1.9502 9C1.95031 4.88782 5.49141 1.95028 10 1.9502ZM10 3.4502C6.10894 3.45028 3.45031 5.91248 3.4502 9C3.4502 12.0753 6.29452 14.5497 10 14.5498H10.75V16.4912C13.6207 16.0636 16.5498 13.257 16.5498 9.5C16.5497 6.42809 13.8996 3.4502 10 3.4502Z" fill="#000000"/>
</svg>
