<svg xmlns="http://www.w3.org/2000/svg" width="20" height="20" viewBox="0 0 20 20" fill="none"><rect width="20" height="20" fill="none"/>
<path d="M17 11C18.6569 11 20 12.3431 20 14C20 15.6569 18.6569 17 17 17H16V18H18V19H16V20H14V19H13V18H14V17H13V15H14V11H17ZM16 15H17C17.5523 15 18 14.5523 18 14C18 13.4477 17.5523 13 17 13H16V15Z" fill="#000000"/>
<path d="M15 2C16.6569 2 18 3.34315 18 5V9H16V5C16 4.44772 15.5523 4 15 4H5C4.44772 4 4 4.44772 4 5V15C4 15.5523 4.44772 16 5 16H11V18H5C3.34315 18 2 16.6569 2 15V5C2 3.34315 3.34315 2 5 2H15Z" fill="#000000"/>
<path d="M10 12H6V10H10V12Z" fill="#000000"/>
<path d="M13 8H6V6H13V8Z" fill="#000000"/>
</svg>
