<svg xmlns="http://www.w3.org/2000/svg" width="20" height="20" viewBox="0 0 20 20" fill="none"><rect width="20" height="20" fill="none"/>
<path d="M19.1406 17.2314L17.8594 18.7686L15.5 16.8018L13.1406 18.7686L11.8594 17.2314L15.5 14.1982L19.1406 17.2314Z" fill="#000000"/>
<path d="M18 9H16V8L14 6H4V12L6 14H10V16H2V4H18V9Z" fill="#000000"/>
<path d="M19.1406 13.2314L17.8594 14.7686L15.5 12.8018L13.1406 14.7686L11.8594 13.2314L15.5 10.1982L19.1406 13.2314Z" fill="#000000"/>
<path d="M10 8C11.1046 8 12 8.89543 12 10C12 11.1046 11.1046 12 10 12C8.89543 12 8 11.1046 8 10C8 8.89543 8.89543 8 10 8Z" fill="#000000"/>
</svg>
