<svg xmlns="http://www.w3.org/2000/svg" width="20" height="20" viewBox="0 0 20 20" fill="none"><rect width="20" height="20" fill="none"/>
<path d="M14 8H9V6H14V8Z" fill="#000000"/>
<path d="M18 14C18 16.2093 16.209 18 14 18H5.5C3.56705 17.9999 2 16.4329 2 14.5C2.00009 12.7369 3.30397 11.2778 5 11.0352V2H18V14ZM5.5 13C4.67167 13.0001 4.00004 13.6716 4 14.5C4 15.3284 4.67163 15.9999 5.5 16H9.33691C9.12093 15.5454 9 15.0368 9 14.5C9 13.9632 9.12093 13.4546 9.33691 13H5.5ZM7 11H13V13H12.5C11.6716 13 11 13.6716 11 14.5C11 15.3284 11.6716 16 12.5 16H14C15.1047 16 16 15.1044 16 14C16 10.7258 16.0001 7.07407 16 4H7V11Z" fill="#000000"/>
</svg>
