<svg xmlns="http://www.w3.org/2000/svg" width="24" height="24" viewBox="0 0 24 24" fill="none"><rect width="24" height="24" fill="none"/>
<path d="M11 21H3V13H11V21ZM5 19H9V15H5V19Z" fill="#000000"/>
<path d="M17 19H15V21H13V17H17V19Z" fill="#000000"/>
<path d="M21 21H17V19H19V17H21V21Z" fill="#000000"/>
<path d="M19 17H17V15H19V17Z" fill="#000000"/>
<path d="M17 15H13V13H17V15Z" fill="#000000"/>
<path d="M21 15H19V13H21V15Z" fill="#000000"/>
<path d="M11 11H3V3H11V11ZM5 9H9V5H5V9Z" fill="#000000"/>
<path d="M21 11H13V3H21V11ZM15 9H19V5H15V9Z" fill="#000000"/>
</svg>
