<svg xmlns="http://www.w3.org/2000/svg" width="20" height="20" viewBox="0 0 20 20" fill="none"><rect width="20" height="20" fill="none"/>
<path d="M15.5664 10.5C16.3909 10.5 16.6321 11.0213 16.8408 11.6807L19 18.5H17.4023L16.917 16.8789H14.0254L13.5029 18.5H12L14.2656 11.6807C14.4853 11.0192 14.7417 10.5001 15.5664 10.5ZM14.4629 15.5098H16.499L15.5283 12.2773H15.4902L14.4629 15.5098Z" fill="#000000"/>
<path d="M11.3096 6H15C16.3059 6 17.4141 6.83532 17.8262 8H16.1152C15.8406 7.69394 15.4436 7.5 15 7.5H10.6885L7.68848 4.5H5C4.17157 4.5 3.5 5.17157 3.5 6V14C3.5 14.8284 4.17157 15.5 5 15.5H10V17H5C3.34315 17 2 15.6569 2 14V6C2 4.34315 3.34315 3 5 3H8.30957L11.3096 6Z" fill="#000000"/>
</svg>
