<svg xmlns="http://www.w3.org/2000/svg" width="24" height="24" viewBox="0 0 24 24" fill="none"><rect width="24" height="24" fill="none"/>
<path d="M18.2578 15.0625C18.4167 14.9746 18.6106 14.98 18.7646 15.0762L22.7646 17.5762C22.9108 17.6675 23 17.8277 23 18C23 18.1723 22.9108 18.3325 22.7646 18.4238L18.7646 20.9238C18.6106 21.02 18.4167 21.0254 18.2578 20.9375C18.0989 20.8494 18 20.6817 18 20.5V19C16.8955 19 16.0001 19.8955 16 21V23H14V21C14.0001 18.7909 15.7909 17 18 17V15.5L18.0049 15.4326C18.026 15.2777 18.1188 15.1396 18.2578 15.0625Z" fill="#000000"/>
<path d="M15.001 2C17.2099 2.00026 19.001 3.79102 19.001 6V13H17.001V6C17.001 4.89559 16.1053 4.00026 15.001 4H9C7.89543 4 7 4.89543 7 6V18C7 19.1046 7.89543 20 9 20H12V22H9C6.79086 22 5 20.2091 5 18V6C5 3.79086 6.79086 2 9 2H15.001Z" fill="#000000"/>
<path d="M13 5C13.5523 5 14 5.44772 14 6C14 6.55228 13.5523 7 13 7H11C10.4477 7 10 6.55228 10 6C10 5.44772 10.4477 5 11 5H13Z" fill="#000000"/>
</svg>
