<svg xmlns="http://www.w3.org/2000/svg" width="20" height="20" viewBox="0 0 20 20" fill="none"><rect width="20" height="20" fill="none"/>
<path d="M3 14C3.55228 14 4 14.4477 4 15C4 15.5523 3.55228 16 3 16C2.44772 16 2 15.5523 2 15C2 14.4477 2.44772 14 3 14Z" fill="#000000"/>
<path d="M18 14.25V15.75H6V14.25H18Z" fill="#000000"/>
<path d="M3 9C3.55228 9 4 9.44772 4 10C4 10.5523 3.55228 11 3 11C2.44772 11 2 10.5523 2 10C2 9.44772 2.44772 9 3 9Z" fill="#000000"/>
<path d="M18 9.25V10.75H6V9.25H18Z" fill="#000000"/>
<path d="M3 4C3.55228 4 4 4.44771 4 5C4 5.55229 3.55228 6 3 6C2.44772 6 2 5.55229 2 5C2 4.44771 2.44772 4 3 4Z" fill="#000000"/>
<path d="M18 4.25V5.75H6V4.25H18Z" fill="#000000"/>
</svg>
