<svg xmlns="http://www.w3.org/2000/svg" width="24" height="24" viewBox="0 0 24 24" fill="none"><rect width="24" height="24" fill="none"/>
<path d="M19 18H20.5L20.5674 18.0049C20.7223 18.026 20.8604 18.1188 20.9375 18.2578C21.0254 18.4167 21.02 18.6106 20.9238 18.7646L18.4238 22.7646C18.3325 22.9108 18.1723 23 18 23C17.8277 23 17.6675 22.9108 17.5762 22.7646L15.0762 18.7646C14.98 18.6106 14.9746 18.4167 15.0625 18.2578C15.1506 18.0989 15.3183 18 15.5 18H17V14H19V18Z" fill="#000000"/>
<path d="M12 2C13.6569 2 15 3.34314 15 5V7H17C18.6568 7 20 8.34317 20 10V12H18V10C18 9.44774 17.5523 9 17 9H13V5C13 4.44771 12.5523 4 12 4H6V20H13V22H4V2H12Z" fill="#000000"/>
</svg>
