<svg xmlns="http://www.w3.org/2000/svg" width="20" height="20" viewBox="0 0 20 20" fill="none"><rect width="20" height="20" fill="none"/>
<path d="M10 10.4502H6V8.9502H10V10.4502Z" fill="#000000"/>
<path d="M13 7.4502H6V5.9502H13V7.4502Z" fill="#000000"/>
<path d="M14.75 2.5C16.2687 2.50011 17.5 3.73128 17.5 5.25V14.75C17.4999 16.2686 16.2686 17.4999 14.75 17.5H5.25C3.73128 17.5 2.50011 16.2687 2.5 14.75V5.25C2.5 3.73122 3.73122 2.5 5.25 2.5H14.75ZM5.25 4C4.55964 4 4 4.55964 4 5.25V14.75C4.00011 15.4403 4.55971 16 5.25 16H14.75C15.4402 15.9999 15.9999 15.4402 16 14.75V5.25C16 4.55971 15.4403 4.00011 14.75 4H5.25Z" fill="#000000"/>
</svg>
