<svg xmlns="http://www.w3.org/2000/svg" width="20" height="20" viewBox="0 0 20 20" fill="none"><rect width="20" height="20" fill="none"/>
<path d="M10.2637 6.55957C10.4262 6.47264 10.624 6.48179 10.7773 6.58398L13.7773 8.58398C13.9163 8.67668 13.9999 8.83296 14 9C13.9999 9.16704 13.9163 9.32332 13.7773 9.41602L10.7773 11.416C10.624 11.5182 10.4262 11.5274 10.2637 11.4404C10.1015 11.3534 10.0001 11.1841 10 11V10H7V8H10V7L10.0049 6.93164C10.0266 6.77483 10.1218 6.63572 10.2637 6.55957Z" fill="#000000"/>
<path d="M10 1.9502C14.7002 1.9502 18.0497 5.57206 18.0498 9.5C18.0498 14.4142 13.9142 18.0498 10 18.0498C9.58588 18.0497 9.25 17.714 9.25 17.2998V16.0195C5.27773 15.7018 1.9502 12.8824 1.9502 9C1.95031 4.88782 5.49141 1.95028 10 1.9502ZM10 3.4502C6.10894 3.45028 3.45031 5.91248 3.4502 9C3.4502 12.0753 6.29452 14.5497 10 14.5498H10.75V16.4912C13.6207 16.0636 16.5498 13.257 16.5498 9.5C16.5497 6.42809 13.8996 3.4502 10 3.4502Z" fill="#000000"/>
</svg>
