<svg xmlns="http://www.w3.org/2000/svg" width="20" height="20" viewBox="0 0 20 20" fill="none"><rect width="20" height="20" fill="none"/>
<path d="M18.5303 13.5306L13.5 18.5609L10.4697 15.5306L11.5303 14.47L13.5 16.4398L17.4697 12.47L18.5303 13.5306Z" fill="#000000"/>
<path d="M11.0127 2.90948C12.9708 2.18912 15.0483 3.63866 15.0488 5.72491V6.0003C16.6829 6.02639 17.9996 7.35915 18 8.99933V10.0023H16.5V8.99933C16.4996 8.17127 15.8282 7.49933 15 7.49933H5C4.17184 7.49933 3.50044 8.17127 3.5 8.99933V14.9993C3.50033 15.8275 4.17178 16.4993 5 16.4993H8V17.9993H5C3.34335 17.9993 2.00033 16.6559 2 14.9993V8.31866C2.00041 7.06184 2.78435 5.93738 3.96387 5.50323L11.0127 2.90948ZM13.5488 5.72491C13.5483 4.68218 12.51 3.957 11.5312 4.31671L6.95996 5.99933H13.5488V5.72491Z" fill="#000000"/>
</svg>
