<svg xmlns="http://www.w3.org/2000/svg" width="20" height="20" viewBox="0 0 20 20" fill="none"><rect width="20" height="20" fill="none"/>
<path d="M17.9994 14.001C15.2382 14.0012 12.9994 16.2397 12.9994 19.001H10.9994C10.9994 15.1351 14.1336 12.0012 17.9994 12.001V14.001Z" fill="#000000"/>
<path d="M17.9994 19.001H14.9994C14.9994 17.3443 16.3427 16.0012 17.9994 16.001V19.001Z" fill="#000000"/>
<path d="M14.0004 3.00098C15.1043 3.00173 16.0004 3.89785 16.0004 5.00195V10.001H14.0004V5.00195H5.71522V10.002H11.9994V12.002H5.67616L4.47694 15.002H8.9994V17.002H2.9994C2.66807 17.002 2.3574 16.8365 2.17127 16.5625C1.9855 16.288 1.94796 15.9387 2.07069 15.6309L3.71522 11.5195V5.00195C3.71522 3.89738 4.61065 3.00098 5.71522 3.00098H14.0004Z" fill="#000000"/>
</svg>
