<svg xmlns="http://www.w3.org/2000/svg" width="20" height="20" viewBox="0 0 20 20" fill="none"><rect width="20" height="20" fill="none"/>
<path d="M12 5C13.6569 5 15 6.34315 15 8C15 9.65685 13.6569 11 12 11C10.3431 11 9 9.65685 9 8C9 6.34315 10.3431 5 12 5ZM12 6.5C11.1716 6.5 10.5 7.17157 10.5 8C10.5 8.82843 11.1716 9.5 12 9.5C12.8284 9.5 13.5 8.82843 13.5 8C13.5 7.17157 12.8284 6.5 12 6.5Z" fill="#000000"/>
<path d="M15.2998 1.9502C16.8186 1.9502 18.0498 3.18141 18.0498 4.7002V15.2998C18.0498 16.8186 16.8186 18.0498 15.2998 18.0498H4.7002C3.18141 18.0498 1.9502 16.8186 1.9502 15.2998V4.7002C1.9502 3.18141 3.18141 1.9502 4.7002 1.9502H15.2998ZM6.91895 13.1016C6.42399 12.5654 5.57601 12.5654 5.08105 13.1016L3.4502 14.8672V15.2998C3.4502 15.9902 4.00984 16.5498 4.7002 16.5498H10.1016L6.91895 13.1016ZM4.7002 3.4502C4.00984 3.4502 3.4502 4.00984 3.4502 4.7002V12.6562L3.97949 12.084C5.06834 10.9047 6.93166 10.9047 8.02051 12.084L12.1426 16.5498H15.2998C15.9902 16.5498 16.5498 15.9902 16.5498 15.2998V4.7002C16.5498 4.00984 15.9902 3.4502 15.2998 3.4502H4.7002Z" fill="#000000"/>
</svg>
