<svg xmlns="http://www.w3.org/2000/svg" width="24" height="24" viewBox="0 0 24 24" fill="none"><rect width="24" height="24" fill="none"/>
<path d="M21.707 20.293L20.293 21.707L16.959 18.373C15.8797 19.9582 14.0625 21 12 21C8.78979 21 6.16843 18.4789 6.00781 15.3086L6 15V9C6 8.5123 6.06107 8.0389 6.1709 7.58496L2.29297 3.70703L3.70703 2.29297L21.707 20.293ZM8 15C8 17.2091 9.79086 19 12 19C13.5124 19 14.8279 18.1602 15.5078 16.9219L8 9.41406V15Z" fill="#000000"/>
<path d="M12 3C15.3137 3 18 5.68629 18 9V14.0859L16 12.0859V9C16 6.79086 14.2091 5 12 5C11.1288 5 10.3229 5.27906 9.66602 5.75195L8.23926 4.3252C9.26815 3.49643 10.576 3 12 3Z" fill="#000000"/>
<path d="M12 6C12.5523 6 13 6.44772 13 7V9C13 9.02764 12.9983 9.05496 12.9961 9.08203L11 7.08594V7C11 6.44772 11.4477 6 12 6Z" fill="#000000"/>
</svg>
