<svg xmlns="http://www.w3.org/2000/svg" width="20" height="20" viewBox="0 0 20 20" fill="none"><rect width="20" height="20" fill="none"/>
<path d="M18.707 13.707L13.5 18.9141L10.293 15.707L11.707 14.293L13.5 16.0859L17.293 12.293L18.707 13.707Z" fill="#000000"/>
<path d="M10.5 3C13.0475 3 15.1893 4.73232 15.8145 7.08301C17.3076 7.39187 18.4954 8.53322 18.873 10H16.7305C16.3845 9.40267 15.7399 9 15 9H14V8.5C14 6.567 12.433 5 10.5 5C8.567 5 7 6.567 7 8.5V9H6C4.34315 9 3 10.3431 3 12C3 13.6569 4.34315 15 6 15H8V17H6C3.23858 17 1 14.7614 1 12C1 9.51456 2.8135 7.45274 5.18945 7.06543C5.82052 4.72359 7.95876 3 10.5 3Z" fill="#000000"/>
</svg>
