<svg xmlns="http://www.w3.org/2000/svg" width="20" height="20" viewBox="0 0 20 20" fill="none"><rect width="20" height="20" fill="none"/>
<path d="M19 12.4998C19.0064 12.5659 19.4699 17.5098 15 18.9998L14.5928 18.8494C11.0557 17.4066 10.9544 13.6613 10.9873 12.7175L11 12.4998L15 10.9998L19 12.4998ZM13.0566 13.864C13.0936 14.0977 13.1478 14.3495 13.2256 14.6052C13.4828 15.4497 13.9718 16.294 15 16.8328C16.0282 16.294 16.5173 15.4497 16.7744 14.6052C16.8522 14.3496 16.9045 14.0976 16.9414 13.864L15 13.1355L13.0566 13.864Z" fill="#000000"/>
<path d="M10.7588 2.3738C12.745 1.47114 14.9999 2.92355 15 5.10524V5.9988C16.6568 5.9988 17.9999 7.34202 18 8.9988H16C15.9999 8.44659 15.5522 7.9988 15 7.9988H5C4.44777 7.9988 4.0001 8.44659 4 8.9988V14.9988C4.00037 15.5508 4.44794 15.9988 5 15.9988H9V17.9988H5C3.34337 17.9988 2.00037 16.6553 2 14.9988V8.28688C2.00007 7.11062 2.68801 6.04228 3.75879 5.55544L10.7588 2.3738ZM13 5.10524C12.9999 4.37808 12.248 3.89324 11.5859 4.19411L7.61621 5.9988H13V5.10524Z" fill="#000000"/>
</svg>
