<svg xmlns="http://www.w3.org/2000/svg" width="24" height="24" viewBox="0 0 24 24" fill="none"><rect width="24" height="24" fill="none"/>
<path d="M12 17C13.1046 17 14 17.8954 14 19C14 20.1046 13.1046 21 12 21C10.8954 21 10 20.1046 10 19C10 17.8954 10.8954 17 12 17Z" fill="#000000"/>
<path d="M7.15918 4.74512H7.16113L9.63379 7.21777H9.63184L12.9688 10.5547L12.9717 10.5557L16.915 14.499L16.9141 14.5L20 17.5859L18.5859 19L13.2236 13.6377C12.8301 13.5482 12.4207 13.5 12 13.5C10.3838 13.5 8.9301 14.1967 7.92383 15.3066L5.80176 13.1846C6.97511 11.9345 8.52223 11.0404 10.2646 10.6787L7.41895 7.83301C5.81109 8.43851 4.35503 9.35348 3.12305 10.5059L0.999023 8.38184C2.21219 7.23272 3.60554 6.27231 5.13184 5.5459L3.00098 3.41504L4.41504 2.00098L7.15918 4.74512Z" fill="#000000"/>
<path d="M12 4C16.2623 4 20.1353 5.66665 23.0029 8.38379L20.8838 10.5127C18.6152 8.38755 15.5859 7.06526 12.2471 7.00293L9.44727 4.20312C10.2786 4.06984 11.1311 4 12 4Z" fill="#000000"/>
</svg>
