<svg xmlns="http://www.w3.org/2000/svg" width="20" height="20" viewBox="0 0 20 20" fill="none"><rect width="20" height="20" fill="none"/>
<path d="M6 2C7.8774 2 9.51229 3.03517 10.3672 4.56543C11.2786 3.60172 12.5689 3 14 3H18V5C18 7.76142 15.7614 10 13 10H11V12H16V15C16 16.6569 14.6569 18 13 18H7C5.34315 18 4 16.6569 4 15V12H9V9H7C4.23858 9 2 6.76142 2 4V2H6ZM6 15C6 15.5523 6.44772 16 7 16H13C13.5523 16 14 15.5523 14 15V14H6V15ZM14 5C12.3431 5 11 6.34315 11 8H13C14.6569 8 16 6.65685 16 5H14ZM4 4C4 5.65685 5.34315 7 7 7H9C9 5.34315 7.65685 4 6 4H4Z" fill="#000000"/>
</svg>
