<svg xmlns="http://www.w3.org/2000/svg" width="24" height="24" viewBox="0 0 24 24" fill="none"><rect width="24" height="24" fill="none"/>
<path d="M17 2C17.1538 2 17.2975 2.07079 17.3916 2.18945L17.4287 2.24316L20.4287 7.24316C20.5212 7.39745 20.524 7.58951 20.4356 7.74609C20.3468 7.90284 20.1801 8 20 8H18.5V9.30176C18.4999 10.8822 17.6707 12.3469 16.3154 13.1602L14.9151 14.001L16.3154 14.8398C17.6707 15.6531 18.4999 17.1178 18.5 18.6982V21H15.5V18.6982C15.4999 18.1715 15.2232 17.6831 14.7715 17.4121L11.999 15.75L9.22853 17.4121C8.77682 17.6831 8.50013 18.1715 8.50001 18.6982V21H5.50001V18.6982C5.50013 17.1177 6.32935 15.6531 7.68458 14.8398L14.7715 10.5879C15.2232 10.3169 15.4999 9.8285 15.5 9.30176V8H14C13.8199 7.99999 13.6532 7.90284 13.5645 7.74609C13.476 7.58951 13.4789 7.39745 13.5713 7.24316L16.5713 2.24316C16.6617 2.09257 16.8244 2.00001 17 2Z" fill="#000000"/>
<path d="M7.00001 2C7.15379 2 7.29753 2.07079 7.39162 2.18945L7.42873 2.24316L10.4287 7.24316C10.5212 7.39745 10.524 7.58951 10.4356 7.74609C10.3468 7.90284 10.1801 8 10 8H8.50001V9.30176C8.50013 9.82852 8.77682 10.3169 9.22853 10.5879L9.84669 10.96L7.00783 12.6631C6.05845 11.8181 5.50011 10.5988 5.50001 9.30176V8H4.00001C3.81989 7.99999 3.65322 7.90284 3.56447 7.74609C3.476 7.58951 3.47888 7.39745 3.5713 7.24316L6.5713 2.24316C6.66166 2.09257 6.82439 2.00001 7.00001 2Z" fill="#000000"/>
</svg>
