<svg xmlns="http://www.w3.org/2000/svg" width="20" height="20" viewBox="0 0 20 20" fill="none"><rect width="20" height="20" fill="none"/>
<path d="M18.707 17.293L17.293 18.707L13.5 14.9141L12.707 15.707L12.2412 16.1738L11.6289 15.9287C10.2213 15.3657 8.93329 14.5764 7.80762 13.6055L3.70703 17.707L2.29297 16.293L6.39258 12.1924C5.42214 11.067 4.63417 9.77819 4.07129 8.37109L3.82617 7.75879L4.29297 7.29297L5.08594 6.5L1.29297 2.70703L2.70703 1.29297L18.707 17.293ZM6.1875 8.22559C7.33574 10.6853 9.31388 12.663 11.7734 13.8115L12.085 13.499L6.49902 7.91309L6.1875 8.22559Z" fill="#000000"/>
<path d="M14.6582 2.21094C16.0128 2.88828 17.1117 3.98717 17.7891 5.3418L18.1709 6.10547L16.5996 8.2002C15.9113 9.11806 15.4339 10.1679 15.1895 11.2754L13.5732 9.65918C13.9091 8.71166 14.3891 7.81457 15 7L15.8193 5.90723C15.3952 5.19757 14.8016 4.60367 14.0918 4.17969L13 5C12.1851 5.6112 11.2868 6.08923 10.3389 6.4248L8.72363 4.80957C9.83135 4.56516 10.8817 4.0889 11.7998 3.40039L13.8945 1.8291L14.6582 2.21094Z" fill="#000000"/>
</svg>
