<svg xmlns="http://www.w3.org/2000/svg" width="20" height="20" viewBox="0 0 20 20" fill="none"><rect width="20" height="20" fill="none"/>
<path d="M13.5303 8.53027L9.53027 12.5303L8.46973 11.4697L12.4697 7.46973L13.5303 8.53027Z" fill="#000000"/>
<path d="M10 2.9502C14.4458 2.9502 18.0497 6.5542 18.0498 11C18.0498 13.3845 17.0125 15.526 15.3652 17H4.63477C2.9875 15.526 1.9502 13.3844 1.9502 11C1.9503 6.55426 5.55426 2.9503 10 2.9502ZM10 4.4502C6.38269 4.4503 3.4503 7.38269 3.4502 11C3.4502 12.7432 4.13157 14.3268 5.24219 15.5H14.7578C15.8684 14.3268 16.5498 12.7433 16.5498 11C16.5497 7.38262 13.6174 4.4502 10 4.4502Z" fill="#000000"/>
</svg>
