<svg xmlns="http://www.w3.org/2000/svg" width="24" height="24" viewBox="0 0 24 24" fill="none"><rect width="24" height="24" fill="none"/>
<path d="M12.0654 11.9004C12.517 11.9004 12.8224 12.0383 13.041 12.2744C13.2541 12.5046 13.376 12.8198 13.4844 13.1494L15.7705 20.0996H13.8994L13.3945 18.4785H10.5371L9.99316 20.0996H8.21973L10.6201 13.1475C10.7344 12.8164 10.8636 12.5029 11.082 12.2734C11.3058 12.0384 11.6138 11.9004 12.0654 11.9004ZM11.0576 16.9092H12.8984L12.0039 14.043L11.0576 16.9092Z" fill="#000000"/>
<path d="M12 3C15.3137 3 18 5.68629 18 9V9.09961C20.2823 9.56285 22 11.581 22 14C22 16.7614 19.7614 19 17 19V17C18.6569 17 20 15.6569 20 14C20 12.3431 18.6569 11 17 11H16V9C16 6.79086 14.2091 5 12 5C9.79086 5 8 6.79086 8 9V10H7.5C5.567 10 4 11.567 4 13.5C4 15.2632 5.3039 16.7212 7 16.9639V18.9756C4.19684 18.7229 2 16.369 2 13.5C2 10.9623 3.71884 8.82678 6.05566 8.19238C6.45021 5.26071 8.96025 3 12 3Z" fill="#000000"/>
</svg>
