<svg xmlns="http://www.w3.org/2000/svg" width="20" height="20" viewBox="0 0 20 20" fill="none"><rect width="20" height="20" fill="none"/>
<path d="M5.4209 3.50864C6.6358 3.20965 8.32817 3.23459 10.3594 4.34165C12.0285 5.25115 13.3029 5.11633 14.1416 4.80844C14.5737 4.6498 14.909 4.43825 15.1338 4.26743C15.2456 4.18245 15.3287 4.10864 15.3809 4.05942C15.4068 4.03499 15.4254 4.01621 15.4355 4.00571C15.4402 4.0009 15.4443 3.99594 15.4443 3.99594L15.4434 3.9979L15.4414 3.99985C15.6487 3.76825 15.9772 3.68875 16.2676 3.79966C16.5579 3.91067 16.75 4.18896 16.75 4.49985V14.3338L16.501 14.5575L16 13.9999L16.5 14.5584L16.498 14.5604L16.4932 14.5643C16.4902 14.5669 16.4865 14.5706 16.4824 14.5741C16.474 14.5813 16.4631 14.5908 16.4502 14.6014C16.424 14.623 16.3882 14.6513 16.3438 14.6844C16.2546 14.7509 16.128 14.8378 15.9668 14.9325C15.6444 15.1217 15.1772 15.3438 14.5791 15.4911C13.3642 15.7901 11.6717 15.7651 9.64062 14.6581C7.93873 13.7305 6.63098 13.755 5.7793 13.9647C5.3444 14.0718 5.01124 14.2315 4.79199 14.3602C4.77749 14.3687 4.76349 14.3774 4.75 14.3856V17.9999H3.25V4.66489L3.49902 4.44223L4 4.99985C3.54363 4.49146 3.50328 4.4456 3.5 4.44126L3.50098 4.44028L3.50195 4.43833L3.50684 4.4354C3.50987 4.43273 3.51342 4.42922 3.51758 4.42563C3.52602 4.41837 3.53678 4.409 3.5498 4.39829C3.576 4.37674 3.61173 4.34849 3.65625 4.31528C3.74539 4.2488 3.87189 4.16192 4.0332 4.06723C4.35559 3.87803 4.82261 3.6559 5.4209 3.50864ZM9.64062 5.65805C7.93891 4.73072 6.63097 4.7551 5.7793 4.96469C5.34442 5.07174 5.01125 5.23152 4.79199 5.3602C4.7775 5.36871 4.76347 5.3774 4.75 5.38559V12.7206C4.95075 12.6422 5.1748 12.5683 5.4209 12.5077C6.63581 12.2086 8.32824 12.2335 10.3594 13.3407C12.0612 14.2682 13.369 14.2437 14.2207 14.034C14.6555 13.927 14.9888 13.7672 15.208 13.6385C15.2227 13.6299 15.2364 13.6204 15.25 13.6122V5.95688C15.0705 6.04878 14.8731 6.13777 14.6582 6.21665C13.4304 6.66734 11.7043 6.78277 9.64062 5.65805Z" fill="#000000"/>
</svg>
