<svg xmlns="http://www.w3.org/2000/svg" width="20" height="20" viewBox="0 0 20 20" fill="none"><rect width="20" height="20" fill="none"/>
<path d="M10 2.75C10.2508 2.75 10.4849 2.87536 10.6241 3.08398L13.1836 6.92383L16.5498 4.40039C16.7867 4.22275 17.1066 4.20074 17.3653 4.34473C17.6238 4.48881 17.7733 4.7716 17.7471 5.06641L16.6866 17H3.3135L2.25296 5.06641C2.22676 4.77163 2.37634 4.48882 2.63479 4.34473C2.89348 4.20071 3.21335 4.22277 3.45022 4.40039L6.81546 6.92383L9.376 3.08398L9.43264 3.00977C9.57406 2.84606 9.78067 2.75003 10 2.75ZM7.62405 8.41602C7.50977 8.58742 7.33001 8.70439 7.12698 8.73926C6.92383 8.77403 6.71472 8.72327 6.54983 8.59961L3.89554 6.6084L4.68655 15.5H15.3135L16.1035 6.6084L13.4502 8.59961C13.2853 8.72326 13.0762 8.77406 12.8731 8.73926C12.6701 8.70437 12.4903 8.58742 12.376 8.41602L10 4.85156L7.62405 8.41602Z" fill="#000000"/>
</svg>
