<svg xmlns="http://www.w3.org/2000/svg" width="20" height="20" viewBox="0 0 20 20" fill="none"><rect width="20" height="20" fill="none"/>
<path d="M12.208 7.20703L9.41406 10L12.207 12.793L10.793 14.207L6.58691 10L10.793 5.79297L12.208 7.20703Z" fill="#000000"/>
<path d="M10 2C14.4183 2 18 5.58172 18 10C18 14.4183 14.4183 18 10 18C5.58183 17.9999 2 14.4182 2 10C2 5.5818 5.58183 2.00013 10 2ZM10 4C6.6864 4.00013 4 6.68637 4 10C4 13.3136 6.6864 15.9999 10 16C13.3137 16 16 13.3137 16 10C16 6.68629 13.3137 4 10 4Z" fill="#000000"/>
</svg>
