<svg xmlns="http://www.w3.org/2000/svg" width="24" height="24" viewBox="0 0 24 24" fill="none"><rect width="24" height="24" fill="none"/>
<path d="M21.707 20.293L20.293 21.707L18.3242 19.7383C17.7058 20.2449 17.0298 20.6795 16.3047 21.0254C15.2633 21.5221 14.145 21.8321 13 21.9473V19.9346C13.8462 19.8279 14.672 19.5891 15.4443 19.2207C15.9636 18.973 16.4524 18.6696 16.9043 18.3184L5.68164 7.0957C5.28925 7.60055 4.95735 8.15145 4.69531 8.73828C4.37389 9.45826 4.16268 10.2208 4.06445 11H2.05273C2.15951 9.9394 2.43309 8.90062 2.86914 7.92383C3.23105 7.11317 3.69946 6.35701 4.25879 5.67285L2.29297 3.70703L3.70703 2.29297L21.707 20.293Z" fill="#000000"/>
<path d="M7.00391 18.248C7.64477 18.7605 8.36206 19.1724 9.13086 19.4678C9.73414 19.6996 10.362 19.8551 11 19.9355V21.9463C10.1163 21.8576 9.24595 21.655 8.41309 21.335C7.38277 20.9391 6.42879 20.3732 5.58496 19.667L7.00391 18.248Z" fill="#000000"/>
<path d="M4.06445 13C4.15309 13.705 4.33372 14.3969 4.60645 15.0566C4.86579 15.6839 5.20368 16.274 5.61035 16.8135L4.1875 18.2363C3.60209 17.503 3.11887 16.6913 2.75879 15.8203C2.38577 14.918 2.15009 13.9675 2.05273 13H4.06445Z" fill="#000000"/>
<path d="M12 2C13.3132 2 14.6139 2.2582 15.8271 2.76074C17.0404 3.26329 18.1427 4.00015 19.0713 4.92871C19.9998 5.85727 20.7367 6.95964 21.2393 8.17285C21.7418 9.38611 22 10.6868 22 12C22 13.3132 21.7418 14.6139 21.2393 15.8271C21.0958 16.1735 20.931 16.5095 20.75 16.8359L19.2627 15.3486C19.3065 15.2536 19.3505 15.1584 19.3906 15.0615C19.7927 14.0909 20 13.0506 20 12C20 10.9494 19.7927 9.90908 19.3906 8.93848C18.9886 7.96795 18.4 7.08559 17.6572 6.34277C16.9144 5.59995 16.0321 5.01141 15.0615 4.60938C14.0909 4.20734 13.0506 4 12 4C10.9494 4 9.90908 4.20734 8.93848 4.60938C8.84127 4.64964 8.74477 4.69134 8.64941 4.73535L7.16309 3.24902C7.48982 3.06816 7.82643 2.90424 8.17285 2.76074C9.38611 2.2582 10.6868 2 12 2Z" fill="#000000"/>
</svg>
