<svg xmlns="http://www.w3.org/2000/svg" width="20" height="20" viewBox="0 0 20 20" fill="none"><rect width="20" height="20" fill="none"/>
<path d="M15 10.25C17.6234 10.25 19.75 12.3766 19.75 15C19.75 17.6234 17.6234 19.75 15 19.75C12.3766 19.75 10.25 17.6234 10.25 15C10.25 12.3766 12.3766 10.25 15 10.25ZM12.2334 13.2939C11.9269 13.7898 11.75 14.3742 11.75 15C11.75 16.7949 13.2051 18.25 15 18.25C15.6256 18.25 16.2092 18.072 16.7051 17.7656L12.2334 13.2939ZM15 11.75C14.3742 11.75 13.7898 11.9269 13.2939 12.2334L17.7656 16.7051C18.072 16.2092 18.25 15.6256 18.25 15C18.25 13.2051 16.7949 11.75 15 11.75Z" fill="#000000"/>
<path d="M14.6543 2.50391C16.1883 2.58163 17.4184 3.81166 17.4961 5.3457L17.5 5.5V9H16V5.5C16 4.67157 15.3284 4 14.5 4H5.5C4.67157 4 4 4.67157 4 5.5V14.5C4 15.3284 4.67157 16 5.5 16H9V17.5H5.5C3.84315 17.5 2.5 16.1569 2.5 14.5V5.5C2.5 3.8949 3.76056 2.58421 5.3457 2.50391L5.5 2.5H14.5L14.6543 2.50391Z" fill="#000000"/>
<path d="M9.03711 10.4512H6V8.95117H9.03711V10.4512Z" fill="#000000"/>
<path d="M13 7.45117H6V5.95117H13V7.45117Z" fill="#000000"/>
</svg>
