<svg xmlns="http://www.w3.org/2000/svg" width="24" height="24" viewBox="0 0 24 24" fill="none"><rect width="24" height="24" fill="none"/>
<path d="M12 8.99983C13.6569 8.99983 15 10.343 15 11.9998C14.9996 13.6564 13.6566 14.9998 12 14.9998C10.3434 14.9998 9.00037 13.6564 9 11.9998C9 10.343 10.3431 8.99983 12 8.99983ZM12 10.9998C11.4477 10.9998 11 11.4475 11 11.9998C11.0004 12.5518 11.4479 12.9998 12 12.9998C12.5521 12.9998 12.9996 12.5518 13 11.9998C13 11.4475 12.5523 10.9998 12 10.9998Z" fill="#000000"/>
<path d="M15.5459 4.09944C17.0777 3.92925 18.8767 4.00328 21.2168 4.52327L22 4.69709V18.7459L20.7832 18.4754C18.6235 17.9955 17.0472 17.9445 15.7666 18.0867C14.4782 18.2299 13.4449 18.5719 12.3164 18.9481C11.1951 19.3218 9.97793 19.7299 8.4541 19.8992C6.92234 20.0694 5.12324 19.9954 2.7832 19.4754L2 19.3016V5.25276L3.2168 5.52327C5.3765 6.00319 6.95277 6.05422 8.2334 5.91194C9.5218 5.76878 10.5551 5.42678 11.6836 5.05061C12.8049 4.67685 14.0221 4.26877 15.5459 4.09944ZM17.5273 6.02717C16.8763 6.00319 16.2962 6.0279 15.7666 6.08674C14.4782 6.22992 13.4449 6.57189 12.3164 6.94807C11.1951 7.32182 9.97793 7.72992 8.4541 7.89924C7.19903 8.03868 5.76449 8.01414 4 7.71467V15.4998L6.4707 17.9705C7.12253 17.9946 7.70326 17.9708 8.2334 17.9119C9.5218 17.7688 10.5551 17.4268 11.6836 17.0506C12.8049 16.6769 14.0221 16.2688 15.5459 16.0994C16.8009 15.96 18.2356 15.9836 20 16.283V8.49983L17.5273 6.02717Z" fill="#000000"/>
</svg>
