<svg xmlns="http://www.w3.org/2000/svg" width="24" height="24" viewBox="0 0 24 24" fill="none"><rect width="24" height="24" fill="none"/>
<path d="M15.9999 14.9992H6.99988V12.9992H15.9999V14.9992Z" fill="#000000"/>
<path d="M12.9999 10.9992H6.99988V8.9992H12.9999V10.9992Z" fill="#000000"/>
<path d="M10.4686 2.24627C11.4125 1.68612 12.5873 1.68617 13.5311 2.24627L19.5311 5.80877C20.4414 6.34923 20.9998 7.33025 20.9999 8.38884V15.6115C20.9999 16.6702 20.4414 17.651 19.5311 18.1916L13.5311 21.7541C12.5872 22.3143 11.4125 22.3143 10.4686 21.7541L4.46863 18.1916C3.55842 17.651 2.99988 16.6701 2.99988 15.6115V8.38884C2.99999 7.33027 3.55841 6.34924 4.46863 5.80877L10.4686 2.24627ZM12.5106 3.96599C12.196 3.77929 11.8038 3.77924 11.4891 3.96599L5.48914 7.52849C5.18582 7.70862 4.99999 8.03609 4.99988 8.38884V15.6115C4.99988 15.9643 5.18583 16.2916 5.48914 16.4719L11.4891 20.0344C11.8038 20.2212 12.1959 20.2212 12.5106 20.0344L18.5106 16.4719C18.814 16.2917 18.9999 15.9644 18.9999 15.6115V8.38884C18.9998 8.03607 18.814 7.70861 18.5106 7.52849L12.5106 3.96599Z" fill="#000000"/>
</svg>
