<svg xmlns="http://www.w3.org/2000/svg" width="20" height="20" viewBox="0 0 20 20" fill="none"><rect width="20" height="20" fill="none"/>
<path d="M10.6098 2.56445C11.8239 4.26402 13.1225 5.43388 14.27 6.67969C15.3864 7.89188 16.3495 9.17534 16.4965 10.9375C16.783 14.371 13.9481 17.75 10.0053 17.75C6.06495 17.7496 3.21565 14.3727 3.50142 10.9375C3.64814 9.17522 4.61243 7.89186 5.72896 6.67969C6.87662 5.43377 8.175 4.2641 9.38912 2.56445L9.99947 1.70996L10.6098 2.56445ZM9.9985 4.23926C8.88055 5.64214 7.70995 6.74165 6.8315 7.69531C5.76071 8.85783 5.09948 9.8252 4.99654 11.0625C4.78342 13.6268 6.94616 16.2496 10.0053 16.25C13.0629 16.25 15.2155 13.629 15.0014 11.0625C14.8982 9.82498 14.2373 8.85795 13.1665 7.69531C12.2879 6.74149 11.1165 5.64243 9.9985 4.23926Z" fill="#000000"/>
</svg>
