<svg xmlns="http://www.w3.org/2000/svg" width="20" height="20" viewBox="0 0 20 20" fill="none"><rect width="20" height="20" fill="none"/>
<path d="M9.27832 2.21094C9.23874 1.18815 10.4166 0.588378 11.2207 1.22168L13.6152 3.10742L16.4756 2.05371L16.6553 2.00293C17.4886 1.82996 18.2406 2.58269 18.0674 3.41602L18.0166 3.59473L16.9619 6.45508L18.8486 8.84961C19.4822 9.65381 18.8823 10.8317 17.8594 10.792L14.8125 10.6719L13.1182 13.207C12.5488 14.0574 11.2449 13.8504 10.9668 12.8652L10.4336 10.9795L3.20703 18.207L1.79297 16.793L8.98047 9.60449L7.20508 9.10352C6.21996 8.8254 6.01294 7.52149 6.86328 6.95215L9.39844 5.25684L9.27832 2.21094ZM11.4141 5.62695C11.4303 6.04379 11.2286 6.43899 10.8818 6.6709L9.41699 7.64941L11.1123 8.12891L11.2588 8.18066C11.5423 8.30197 11.7693 8.52798 11.8906 8.81152L11.9414 8.95801L12.4209 10.6523L13.3994 9.18848C13.6313 8.84177 14.0266 8.64107 14.4434 8.65723L16.2051 8.72461L15.1143 7.3418C14.856 7.01407 14.7864 6.57511 14.9307 6.18359L15.54 4.53027L13.8867 5.13965C13.4953 5.28388 13.0572 5.21423 12.7295 4.95605L11.3457 3.86523L11.4141 5.62695Z" fill="#000000"/>
</svg>
