<svg xmlns="http://www.w3.org/2000/svg" width="20" height="20" viewBox="0 0 20 20" fill="none"><rect width="20" height="20" fill="none"/>
<path d="M8.03027 9.53027L7.53027 10.0303C6.85667 10.7039 6.85667 11.7961 7.53027 12.4697C8.20388 13.1433 9.29612 13.1433 9.96973 12.4697L10.4697 11.9697L11.5303 13.0303L11.0303 13.5303C9.77088 14.7897 7.72912 14.7897 6.46973 13.5303C5.21034 12.2709 5.21033 10.2291 6.46973 8.96973L6.96973 8.46973L8.03027 9.53027Z" fill="#000000"/>
<path d="M11.5312 9.53027L9.52832 11.5303L8.46875 10.4697L10.4707 8.46973L11.5312 9.53027Z" fill="#000000"/>
<path d="M8.96973 6.46973C10.2291 5.21034 12.2709 5.21034 13.5303 6.46973C14.7897 7.72912 14.7897 9.77088 13.5303 11.0303L13.0303 11.5303L11.9697 10.4697L12.4697 9.96973C13.1433 9.29612 13.1433 8.20388 12.4697 7.53027C11.7961 6.85667 10.7039 6.85667 10.0303 7.53027L9.53027 8.03027L8.46973 6.96973L8.96973 6.46973Z" fill="#000000"/>
<path d="M10 2C14.4183 2 18 5.58172 18 10C18 14.4183 14.4183 18 10 18C5.58172 18 2 14.4183 2 10C2 5.58172 5.58172 2 10 2ZM10 3.5C6.41015 3.5 3.5 6.41015 3.5 10C3.5 13.5899 6.41015 16.5 10 16.5C13.5899 16.5 16.5 13.5899 16.5 10C16.5 6.41015 13.5899 3.5 10 3.5Z" fill="#000000"/>
</svg>
