<svg xmlns="http://www.w3.org/2000/svg" width="20" height="20" viewBox="0 0 20 20" fill="none"><rect width="20" height="20" fill="none"/>
<path d="M10 2C11.933 2 13.5 3.567 13.5 5.5C13.5 6.3872 13.1691 7.1966 12.625 7.81348L14.0127 10.0342C14.172 10.012 14.3346 10 14.5 10C16.433 10 18 11.567 18 13.5C18 15.433 16.433 17 14.5 17C13.1038 17 11.8987 16.1825 11.3369 15H8.66309C8.10135 16.1825 6.89618 17 5.5 17C3.567 17 2 15.433 2 13.5C2 11.567 3.567 10 5.5 10C5.66506 10 5.82736 10.0121 5.98633 10.0342L7.37402 7.81348C6.83019 7.19666 6.5 6.38697 6.5 5.5C6.5 3.567 8.067 2 10 2ZM5.5 12C4.67157 12 4 12.6716 4 13.5C4 14.3284 4.67157 15 5.5 15C6.32843 15 7 14.3284 7 13.5C7 12.6716 6.32843 12 5.5 12ZM14.5 12C13.6716 12 13 12.6716 13 13.5C13 14.3284 13.6716 15 14.5 15C15.3284 15 16 14.3284 16 13.5C16 12.6716 15.3284 12 14.5 12ZM10.9297 8.87402C10.6335 8.95544 10.322 9 10 9C9.67767 9 9.36574 8.9556 9.06934 8.87402L7.81641 10.877C8.42408 11.414 8.84348 12.1585 8.96387 13H11.0361C11.1564 12.1593 11.5748 11.4149 12.1816 10.8779L10.9297 8.87402ZM10 4C9.17157 4 8.5 4.67157 8.5 5.5C8.5 6.32843 9.17157 7 10 7C10.8284 7 11.5 6.32843 11.5 5.5C11.5 4.67157 10.8284 4 10 4Z" fill="#000000"/>
</svg>
