<svg xmlns="http://www.w3.org/2000/svg" width="20" height="20" viewBox="0 0 20 20" fill="none"><rect width="20" height="20" fill="none"/>
<path d="M10 6.25C10.9945 6.25 11.9481 6.64549 12.6514 7.34863C13.3546 8.05185 13.7499 9.00551 13.75 10L13.7451 10.1855C13.702 11.0556 13.357 11.8837 12.7695 12.5273L13.7354 17.3525C13.7915 17.6334 13.6827 17.9218 13.4551 18.0957C13.2276 18.2695 12.9212 18.2988 12.665 18.1709L10 16.8379L7.33496 18.1709C7.07885 18.2987 6.77243 18.2695 6.54492 18.0957C6.31746 17.9218 6.20849 17.6333 6.26465 17.3525L7.22949 12.5254C6.60138 11.8363 6.25 10.9365 6.25 10C6.25005 9.00551 6.64542 8.05185 7.34863 7.34863C8.05185 6.64542 9.00551 6.25005 10 6.25ZM11.4277 13.4658C11.0353 13.6275 10.6157 13.7238 10.1855 13.7451L10 13.75C9.50496 13.75 9.02019 13.6519 8.57129 13.4668L8.03613 16.1436L9.66504 15.3291L9.74512 15.2949C9.9369 15.2256 10.1502 15.237 10.335 15.3291L11.9639 16.1436L11.4277 13.4658ZM10 7.75C9.40333 7.75005 8.83109 7.98727 8.40918 8.40918C7.98727 8.83109 7.75005 9.40333 7.75 10C7.75 10.5966 7.98735 11.1689 8.40918 11.5908C8.83109 12.0127 9.40333 12.2499 10 12.25L10.2227 12.2393C10.7376 12.1881 11.2217 11.96 11.5908 11.5908C12.0128 11.1689 12.25 10.5967 12.25 10L12.2393 9.77734C12.188 9.26244 11.9599 8.77828 11.5908 8.40918C11.1689 7.98735 10.5966 7.75 10 7.75Z" fill="#000000"/>
<path d="M15.2998 1.9502C16.8185 1.95021 18.0497 3.18147 18.0498 4.7002V12.2998C18.0498 13.8186 16.8186 15.0498 15.2998 15.0498H15V13.5498H15.2998C15.9902 13.5498 16.5498 12.9901 16.5498 12.2998V4.7002C16.5497 4.0099 15.9901 3.4502 15.2998 3.4502H4.7002C4.00985 3.4502 3.45021 4.00985 3.4502 4.7002V12.2998C3.45021 12.9901 4.00985 13.5498 4.7002 13.5498H5V15.0498H4.7002C3.18142 15.0498 1.95021 13.8186 1.9502 12.2998V4.7002C1.95021 3.18142 3.18142 1.9502 4.7002 1.9502H15.2998Z" fill="#000000"/>
</svg>
