<svg xmlns="http://www.w3.org/2000/svg" width="20" height="20" viewBox="0 0 20 20" fill="none"><rect width="20" height="20" fill="none"/>
<path d="M8.51172 1.98669C9.43367 1.46017 10.5663 1.46017 11.4883 1.98669L16.2383 4.70153C17.1727 5.2355 17.7496 6.22986 17.75 7.30602V12.6947C17.7499 13.771 17.1727 14.765 16.2383 15.2992L11.4883 18.014C10.5662 18.5408 9.43385 18.5408 8.51172 18.014L3.76172 15.2992C2.82729 14.765 2.25007 13.771 2.25 12.6947V7.30602C2.25035 6.22986 2.82732 5.2355 3.76172 4.70153L8.51172 1.98669ZM9.5 10.9408L7.53027 8.97106L6.46973 10.0316L9.5 13.0619L14.0303 8.53161L12.9697 7.47106L9.5 10.9408Z" fill="#000000"/>
</svg>
