<svg xmlns="http://www.w3.org/2000/svg" width="20" height="20" viewBox="0 0 20 20" fill="none"><rect width="20" height="20" fill="none"/>
<path d="M18.707 17.293L17.293 18.707L13.7344 15.1484C12.7156 15.6591 11.4814 16 10 16C6.9523 15.9998 4.94376 14.5685 3.72363 13.1523C3.11975 12.4514 2.70626 11.7536 2.44336 11.2305C2.31143 10.9679 2.21533 10.7458 2.15137 10.5859C2.11943 10.5061 2.09505 10.4407 2.07812 10.3936C2.06982 10.3704 2.06348 10.3513 2.05859 10.3369C2.05613 10.3297 2.05336 10.3232 2.05176 10.3184C2.05099 10.316 2.0498 10.3115 2.0498 10.3115L2.04883 10.3096C2.04883 10.3096 2.06104 10.3034 3 10C2.06104 9.69664 2.04883 9.69141 2.04883 9.69141L2.0498 9.68848C2.0498 9.68848 2.05099 9.684 2.05176 9.68164C2.05336 9.6768 2.05613 9.67029 2.05859 9.66309C2.06348 9.64873 2.06982 9.62958 2.07812 9.60645C2.09505 9.55929 2.11943 9.49392 2.15137 9.41406C2.21533 9.25416 2.31143 9.03205 2.44336 8.76953C2.70626 8.24645 3.11975 7.54864 3.72363 6.84766C3.97349 6.55765 4.25778 6.26867 4.57617 5.99023L1.29297 2.70703L2.70703 1.29297L18.707 17.293ZM6.92188 8.33594C6.65367 8.83084 6.50098 9.39748 6.50098 10C6.50098 11.933 8.06798 13.5 10.001 13.5C10.6035 13.5 11.1695 13.3465 11.6641 13.0781L10.5166 11.9307C10.352 11.9746 10.1795 12 10.001 12C8.89641 12 8.00098 11.1046 8.00098 10C8.00098 9.82126 8.02534 9.64825 8.06934 9.4834L6.92188 8.33594Z" fill="#000000"/>
<path d="M10 4C13.0478 4 15.0562 5.43145 16.2764 6.84766C16.8803 7.54863 17.2937 8.24641 17.5566 8.76953C17.6886 9.03204 17.7847 9.25413 17.8486 9.41406C17.8806 9.49391 17.9049 9.55927 17.9219 9.60645C17.9302 9.62957 17.9365 9.64872 17.9414 9.66309C17.9439 9.67028 17.9466 9.67678 17.9482 9.68164C17.949 9.68397 17.9502 9.68848 17.9502 9.68848L17.9512 9.69043C17.9463 9.69254 17.8795 9.71586 17 10C17.8795 10.2841 17.9463 10.3065 17.9512 10.3086L17.9502 10.3115C17.9502 10.3115 17.949 10.316 17.9482 10.3184C17.9466 10.3232 17.9439 10.3297 17.9414 10.3369C17.9365 10.3513 17.9302 10.3704 17.9219 10.3936C17.9049 10.4407 17.8806 10.5061 17.8486 10.5859C17.7847 10.7459 17.6886 10.968 17.5566 11.2305C17.3486 11.6444 17.0443 12.1661 16.6279 12.7139L13.4717 9.55762C13.2724 7.97816 12.022 6.72715 10.4424 6.52832L8.1123 4.19824C8.69167 4.07175 9.31991 4.00003 10 4Z" fill="#000000"/>
<path d="M3 10L2.04883 10.3076C1.98432 10.1078 1.98432 9.89119 2.04883 9.69141L3 10Z" fill="#000000"/>
<path d="M17.9512 9.69238C18.0157 9.89225 18.0157 10.1087 17.9512 10.3086L17 10L17.9512 9.69238Z" fill="#000000"/>
</svg>
