<svg xmlns="http://www.w3.org/2000/svg" width="24" height="24" viewBox="0 0 24 24" fill="none"><rect width="24" height="24" fill="none"/>
<path d="M11.9995 12C13.104 12 13.9995 12.8955 13.9995 14C13.9995 15.1045 13.104 16 11.9995 16C10.8952 15.9997 9.99951 15.1044 9.99951 14C9.99951 12.8956 10.8952 12.0003 11.9995 12Z" fill="#000000"/>
<path d="M12.0005 1.5C13.4545 1.50012 14.6187 1.93697 15.4165 2.37207C15.8154 2.58968 16.1273 2.8095 16.3433 2.97852C16.451 3.06288 16.5364 3.13519 16.5972 3.18945C16.6273 3.21635 16.6521 3.23954 16.6704 3.25684C16.6795 3.26543 16.6878 3.27338 16.6938 3.2793L16.7065 3.29199C16.7065 3.29199 16.6925 3.30795 16.0005 4L16.7075 3.29297C17.0976 3.68341 17.0976 4.31658 16.7075 4.70703L13.8511 7.5625L15.8892 8.24219C17.7179 8.85194 19.1428 10.3037 19.7183 12.1436L20.77 15.5078C21.7768 18.7276 19.3711 21.9999 15.9976 22H8.00146C4.62782 21.9998 2.22186 18.7267 3.229 15.5068L4.28174 12.1436C4.85726 10.3037 6.28205 8.85186 8.11084 8.24219L10.1489 7.5625L7.29346 4.70703C7.10592 4.5195 7.00049 4.26521 7.00049 4C7.00049 3.73478 7.10592 3.48051 7.29346 3.29297L8.00049 4L7.29443 3.29199L7.30713 3.2793C7.31323 3.27336 7.32152 3.2654 7.33056 3.25684C7.34886 3.23951 7.37373 3.21633 7.40381 3.18945C7.46459 3.13517 7.54995 3.06286 7.65771 2.97852C7.87375 2.80947 8.18559 2.58964 8.58447 2.37207C9.38232 1.937 10.5464 1.5 12.0005 1.5ZM8.74365 10.1396C7.52452 10.5461 6.57461 11.5138 6.19092 12.7402L5.13818 16.1045C4.53404 18.0363 5.97739 19.9998 8.00146 20H15.9976C18.0217 19.9999 19.465 18.0364 18.8608 16.1045L17.8091 12.7402C17.4254 11.5137 16.4756 10.5461 15.2563 10.1396L11.9995 9.05273L8.74365 10.1396ZM12.0005 3.5C10.9553 3.5 10.1186 3.81226 9.5415 4.12695L12.0005 6.58594L14.4585 4.12695C13.8815 3.81238 13.0452 3.50012 12.0005 3.5Z" fill="#000000"/>
</svg>
