<svg xmlns="http://www.w3.org/2000/svg" width="20" height="20" viewBox="0 0 20 20" fill="none"><rect width="20" height="20" fill="none"/>
<path d="M7 3.5H4.75C4.05964 3.5 3.5 4.05964 3.5 4.75V15.25C3.5 15.9404 4.05964 16.5 4.75 16.5H7V18H4.75C3.23122 18 2 16.7688 2 15.25V4.75C2 3.23122 3.23122 2 4.75 2H7V3.5Z" fill="#000000"/>
<path d="M15.25 2C16.7688 2 18 3.23122 18 4.75V15.25C18 16.7688 16.7688 18 15.25 18H13V16.5H15.25C15.9404 16.5 16.5 15.9404 16.5 15.25V4.75C16.5 4.05964 15.9404 3.5 15.25 3.5H13V2H15.25Z" fill="#000000"/>
<path d="M7.5 14H6V6H7.5V14Z" fill="#000000"/>
<path d="M10.75 14H9.25V6H10.75V14Z" fill="#000000"/>
<path d="M14 14H12.5V6H14V14Z" fill="#000000"/>
</svg>
