<svg xmlns="http://www.w3.org/2000/svg" width="20" height="20" viewBox="0 0 20 20" fill="none"><rect width="20" height="20" fill="none"/>
<path d="M18.5303 13.5303L13.5 18.5605L10.4697 15.5303L11.5303 14.4697L13.5 16.4395L17.4697 12.4697L18.5303 13.5303Z" fill="#000000"/>
<path d="M7.75 2.9502H12.25V1H13.75V2.9502H15.2998C16.8186 2.9502 18.0498 4.18141 18.0498 5.7002V11H16.5498V8.4502H3.4502V15.2998C3.4502 15.9902 4.00984 16.5498 4.7002 16.5498H9V18.0498H4.7002C3.18141 18.0498 1.9502 16.8186 1.9502 15.2998V5.7002C1.9502 4.18141 3.18141 2.9502 4.7002 2.9502H6.25V1H7.75V2.9502ZM4.7002 4.4502C4.00984 4.4502 3.4502 5.00984 3.4502 5.7002V6.9502H16.5498V5.7002C16.5498 5.00984 15.9902 4.4502 15.2998 4.4502H4.7002Z" fill="#000000"/>
</svg>
