<svg xmlns="http://www.w3.org/2000/svg" width="24" height="24" viewBox="0 0 24 24" fill="none"><rect width="24" height="24" fill="none"/>
<path d="M10 5L21 5V7L10 7V5Z" fill="#000000"/>
<path d="M10 11L21 11V13L10 13V11Z" fill="#000000"/>
<path d="M10 17L21 17V19L10 19V17Z" fill="#000000"/>
<path d="M5.59961 13C6.15265 13 6.64213 13.142 7.04004 13.4258C7.43207 13.7056 7.66341 14.0716 7.79688 14.4014C8.19277 15.3802 7.66017 16.2663 7.27734 16.7129L6.17383 18H8V20H4C3.60955 20 3.25503 19.7726 3.0918 19.418C2.92861 19.0632 2.98706 18.6461 3.24121 18.3496L5.75879 15.4111C5.85415 15.2999 5.90598 15.2028 5.92578 15.1416C5.9277 15.1357 5.9276 15.1301 5.92871 15.126C5.90649 15.0798 5.8889 15.0615 5.87793 15.0537C5.8702 15.0482 5.80367 15 5.59961 15C5.42926 15.0001 5.33433 15.036 5.2832 15.0635C5.23042 15.0919 5.1845 15.1327 5.14258 15.1934C5.0441 15.3358 5 15.5412 5 15.667H3C3 15.2373 3.11571 14.6085 3.49707 14.0566C3.91502 13.452 4.61636 13.0001 5.59961 13Z" fill="#000000"/>
<path d="M6.5 4V6H3V4H6.5Z" fill="#000000"/>
<path d="M4.5 5L6.5 5L6.5 9H4.5L4.5 5Z" fill="#000000"/>
<path d="M8 9V11H3V9H8Z" fill="#000000"/>
</svg>
