<svg xmlns="http://www.w3.org/2000/svg" width="20" height="20" viewBox="0 0 20 20" fill="none"><rect width="20" height="20" fill="none"/>
<path d="M7.97289 2.28007C9.05155 1.0668 10.947 1.0668 12.0256 2.28007C12.4139 2.71675 12.9338 3.0167 13.5061 3.13456C15.0964 3.46193 16.0451 5.10434 15.5334 6.6453L15.4729 6.85527C15.3522 7.349 15.3723 7.86913 15.5334 8.35429C15.8899 9.42887 15.5353 10.5512 14.7493 11.2439V16.9998C14.749 17.2454 14.6279 17.4761 14.426 17.616C14.224 17.7556 13.9656 17.7882 13.7356 17.7019L9.99926 16.3006L6.26293 17.7019C6.0329 17.788 5.77446 17.7558 5.5725 17.616C5.37057 17.4761 5.24956 17.2454 5.24926 16.9998V11.243C4.46379 10.5502 4.10883 9.42849 4.46508 8.35429C4.62619 7.86909 4.64631 7.34904 4.52562 6.85527L4.46508 6.6453C3.96949 5.15266 4.84428 3.56437 6.34496 3.16874L6.49242 3.13456C6.99309 3.03148 7.45331 2.78863 7.82054 2.4373L7.97289 2.28007ZM13.2493 11.9324C12.7792 12.0784 12.3548 12.3492 12.0256 12.7195L11.9231 12.8299C10.8654 13.896 9.13298 13.8962 8.07543 12.8299L7.97289 12.7195C7.64361 12.349 7.21947 12.0784 6.74925 11.9324V15.9168L9.73558 14.7976L9.86644 14.7615C9.99849 14.7378 10.1358 14.75 10.2629 14.7976L13.2493 15.9168V11.9324ZM10.9045 3.27714C10.4225 2.73484 9.57599 2.73484 9.09398 3.27714C8.49094 3.95531 7.68403 4.42125 6.79515 4.60429C6.08477 4.75078 5.66031 5.48421 5.8889 6.17265C6.17477 7.03412 6.17493 7.96552 5.8889 8.82695C5.66095 9.51523 6.08488 10.249 6.79515 10.3953C7.6843 10.5784 8.49088 11.0439 9.09398 11.7225C9.57585 12.2642 10.4225 12.264 10.9045 11.7225C11.5075 11.044 12.3144 10.5785 13.2034 10.3953C13.9137 10.2491 14.3377 9.51531 14.1096 8.82695C13.8236 7.96557 13.8238 7.03407 14.1096 6.17265C14.3382 5.48408 13.914 4.75058 13.2034 4.60429C12.3144 4.42121 11.5076 3.95543 10.9045 3.27714Z" fill="#000000"/>
</svg>
