<svg xmlns="http://www.w3.org/2000/svg" width="24" height="24" viewBox="0 0 24 24" fill="none"><rect width="24" height="24" fill="none"/>
<path d="M12 2C17.5228 2 22 6.47715 22 12C22 17.5228 17.5228 22 12 22C6.47715 22 2 17.5228 2 12C2 6.47715 6.47715 2 12 2ZM11 4.06348C7.05378 4.55566 4 7.92045 4 12C4 16.4183 7.58172 20 12 20C13.1481 20 14.2386 19.7558 15.2256 19.3203L11 12.2773V4.06348ZM16.9395 18.2891C18.5547 17.0187 19.6684 15.142 19.9355 13H13.7666L16.9395 18.2891ZM13 11H19.9355C19.4842 7.3815 16.6185 4.51479 13 4.06348V11Z" fill="#000000"/>
</svg>
