<svg xmlns="http://www.w3.org/2000/svg" width="20" height="20" viewBox="0 0 20 20" fill="none"><rect width="20" height="20" fill="none"/>
<path d="M9.5 3.06836C10.1619 2.9794 10.8345 2.97783 11.5 3.06738V1H13V3.42871C13.973 3.77263 14.8682 4.31577 15.627 5.02637C16.5056 5.84946 17.1708 6.87027 17.5703 8H15.9502C15.6268 7.29548 15.1719 6.65535 14.6016 6.12109C14.1273 5.67693 13.5852 5.31727 13 5.04883V8H11.5V4.58691C10.8356 4.47466 10.16 4.47422 9.5 4.58594V8H8V5.0459C7.11324 5.45246 6.33667 6.07039 5.74023 6.84766C5.05857 7.73606 4.63907 8.79771 4.5293 9.91211C4.4196 11.0263 4.62404 12.1491 5.11914 13.1533C5.61439 14.1575 6.38127 15.0034 7.33203 15.5947C8.28283 16.1859 9.3804 16.4999 10.5 16.5H16V18H3V16.5H6.00098C5.06079 15.7948 4.29596 14.8768 3.77344 13.8174C3.15442 12.562 2.89895 11.1576 3.03613 9.76465C3.17338 8.37179 3.69784 7.04499 4.5498 5.93457C5.4019 4.82411 6.54843 3.97358 7.8584 3.48047C7.90525 3.46284 7.95287 3.44635 8 3.42969V1H9.5V3.06836Z" fill="#000000"/>
</svg>
