<svg xmlns="http://www.w3.org/2000/svg" width="20" height="20" viewBox="0 0 20 20" fill="none"><rect width="20" height="20" fill="none"/>
<path d="M18.0303 12.0303L12.0303 18.0303L10.9697 16.9697L16.9697 10.9697L18.0303 12.0303Z" fill="#000000"/>
<path d="M5.5 11C7.433 11 9 12.567 9 14.5C9 16.433 7.433 18 5.5 18C3.567 18 2 16.433 2 14.5C2 12.567 3.567 11 5.5 11ZM5.5 12.5C4.39543 12.5 3.5 13.3954 3.5 14.5C3.5 15.6046 4.39543 16.5 5.5 16.5C6.60457 16.5 7.5 15.6046 7.5 14.5C7.5 13.3954 6.60457 12.5 5.5 12.5Z" fill="#000000"/>
<path d="M16.75 15.5C17.4404 15.5 18 16.0596 18 16.75C18 17.4404 17.4404 18 16.75 18C16.0596 18 15.5 17.4404 15.5 16.75C15.5 16.0596 16.0596 15.5 16.75 15.5Z" fill="#000000"/>
<path d="M12.25 11C12.9404 11 13.5 11.5596 13.5 12.25C13.5 12.9404 12.9404 13.5 12.25 13.5C11.5596 13.5 11 12.9404 11 12.25C11 11.5596 11.5596 11 12.25 11Z" fill="#000000"/>
<path d="M5.5 2C7.433 2 9 3.567 9 5.5C9 7.433 7.433 9 5.5 9C3.567 9 2 7.433 2 5.5C2 3.567 3.567 2 5.5 2ZM5.5 3.5C4.39543 3.5 3.5 4.39543 3.5 5.5C3.5 6.60457 4.39543 7.5 5.5 7.5C6.60457 7.5 7.5 6.60457 7.5 5.5C7.5 4.39543 6.60457 3.5 5.5 3.5Z" fill="#000000"/>
<path d="M14.5 2C16.433 2 18 3.567 18 5.5C18 7.433 16.433 9 14.5 9C12.567 9 11 7.433 11 5.5C11 3.567 12.567 2 14.5 2ZM14.5 3.5C13.3954 3.5 12.5 4.39543 12.5 5.5C12.5 6.60457 13.3954 7.5 14.5 7.5C15.6046 7.5 16.5 6.60457 16.5 5.5C16.5 4.39543 15.6046 3.5 14.5 3.5Z" fill="#000000"/>
</svg>
