<svg xmlns="http://www.w3.org/2000/svg" width="20" height="20" viewBox="0 0 20 20" fill="none"><rect width="20" height="20" fill="none"/>
<path d="M18.707 13.707L13.5 18.9141L10.293 15.707L11.707 14.293L13.5 16.0859L17.293 12.293L18.707 13.707Z" fill="#000000"/>
<path d="M15 3C16.6547 3 18 4.33811 18 5.99707V10H16V9H4V14C4 14.5523 4.44772 15 5 15H8V17H5C3.34315 17 2 15.6569 2 14V6C2 4.34315 3.34315 3 5 3H15ZM5 5C4.44772 5 4 5.44772 4 6V7H16V5.99707C16 5.44689 15.5544 5 15 5H5Z" fill="#000000"/>
</svg>
