<svg xmlns="http://www.w3.org/2000/svg" width="20" height="20" viewBox="0 0 20 20" fill="none"><rect width="20" height="20" fill="none"/>
<path d="M12.9287 8C15.9125 8.00007 17.8574 10.2839 17.8574 12.835C17.8573 14.3627 17.1913 15.773 16.3008 16.792C15.4321 17.7859 14.1982 18.5712 12.9287 18.5713C12.3764 18.5713 11.9287 18.1236 11.9287 17.5713V16.6963C9.80787 16.3205 8.00017 14.7596 8 12.3838C8 11.1013 8.49145 9.97183 9.4082 9.17578C10.3117 8.3914 11.5456 8 12.9287 8ZM12.9287 10C11.9111 10 11.1803 10.2858 10.7197 10.6855C10.2726 11.0737 10 11.6364 10 12.3838C10.0002 13.7007 11.1625 14.7861 12.9287 14.7861H13.9287V16.2217C14.2126 16.0443 14.5116 15.7998 14.7949 15.4756C15.432 14.7466 15.8573 13.7882 15.8574 12.835C15.8574 11.3259 14.7463 10.0001 12.9287 10Z" fill="#000000"/>
<path d="M11 2C13.2091 2 15 3.79086 15 6H13C13 4.89543 12.1046 4 11 4H7C5.89543 4 5 4.89543 5 6V14C5 15.1046 5.89543 16 7 16H8V18H7C4.79086 18 3 16.2091 3 14V6C3 3.79086 4.79086 2 7 2H11Z" fill="#000000"/>
<path d="M10 5C10.5523 5 11 5.44772 11 6C11 6.55228 10.5523 7 10 7H8C7.44772 7 7 6.55228 7 6C7 5.44772 7.44772 5 8 5H10Z" fill="#000000"/>
</svg>
