<svg xmlns="http://www.w3.org/2000/svg" width="24" height="24" viewBox="0 0 24 24" fill="none"><rect width="24" height="24" fill="none"/>
<path d="M12 2C12.4 2 12.7614 2.23876 12.9189 2.60645L16.2871 10.4648L16.4551 10.7383C16.4417 10.7465 16.4275 10.7535 16.4141 10.7617L18.6768 16.04C18.8901 16.5379 19 17.0745 19 17.6162V22H17V17.6162C17 17.3454 16.9446 17.0771 16.8379 16.8281L14.5947 11.5928C13.8857 11.8201 13.1472 11.9551 12.3975 11.9902C11.3809 12.0378 10.368 11.9004 9.40527 11.5918L7.16211 16.8281C7.05542 17.0771 7 17.3454 7 17.6162V22H5V17.6162C5 17.0745 5.10986 16.5379 5.32324 16.04L11.0811 2.60645L11.1494 2.47461C11.3296 2.18266 11.65 2 12 2ZM10.1973 9.74316C10.8788 9.93991 11.59 10.0265 12.3037 9.99316C12.8133 9.9693 13.3154 9.88268 13.8018 9.74219L12 5.53711L10.1973 9.74316Z" fill="#000000"/>
</svg>
