<svg xmlns="http://www.w3.org/2000/svg" width="20" height="20" viewBox="0 0 20 20" fill="none"><rect width="20" height="20" fill="none"/>
<path d="M11.0608 10.3535L10.0002 11.4141L8.58518 10L9.64671 8.93945L11.0608 10.3535Z" fill="#000000"/>
<path d="M18.4856 7.17188L15.4797 10.1768L16.1867 10.8838L9.82346 17.248C8.74953 18.322 7.00776 18.322 5.93382 17.248L2.75218 14.0654C1.67835 12.9915 1.67827 11.2507 2.75218 10.1768L9.11546 3.8125L9.82346 4.51953L12.8283 1.51465L18.4856 7.17188ZM3.81272 11.2373C3.32461 11.7254 3.32468 12.5167 3.81272 13.0049L6.99436 16.1875C7.4824 16.6755 8.27377 16.6753 8.76194 16.1875L14.0657 10.8838L9.11546 5.93457L3.81272 11.2373ZM10.884 5.58105L14.4192 9.11621L16.3635 7.17188L12.8283 3.63574L10.884 5.58105Z" fill="#000000"/>
</svg>
