<svg xmlns="http://www.w3.org/2000/svg" width="20" height="20" viewBox="0 0 20 20" fill="none"><rect width="20" height="20" fill="none"/>
<path d="M13.5 10.75C15.0188 10.75 16.25 11.9812 16.25 13.5C16.25 15.0188 15.0188 16.25 13.5 16.25C11.9812 16.25 10.75 15.0188 10.75 13.5C10.75 11.9812 11.9812 10.75 13.5 10.75ZM13.5 12.25C12.8096 12.25 12.25 12.8096 12.25 13.5C12.25 14.1903 12.8097 14.75 13.5 14.75C14.1903 14.75 14.75 14.1903 14.75 13.5C14.75 12.8096 14.1904 12.25 13.5 12.25Z" fill="#000000"/>
<path d="M15.5547 5.00488L5.55469 16.0049L4.44531 14.9951L14.4453 3.99512L15.5547 5.00488Z" fill="#000000"/>
<path d="M6.5 3.75C8.01878 3.75 9.25 4.98122 9.25 6.5C9.24999 8.01877 8.01877 9.25 6.5 9.25C4.98122 9.25 3.75001 8.01877 3.75 6.5C3.75 4.98122 4.98122 3.75 6.5 3.75ZM6.5 5.25C5.80964 5.25 5.25 5.80964 5.25 6.5C5.25001 7.19034 5.80965 7.75 6.5 7.75C7.19035 7.75 7.74999 7.19034 7.75 6.5C7.75 5.80964 7.19036 5.25 6.5 5.25Z" fill="#000000"/>
</svg>
