<svg xmlns="http://www.w3.org/2000/svg" width="24" height="24" viewBox="0 0 24 24" fill="none"><rect width="24" height="24" fill="none"/>
<path d="M18.4141 11.4971L13.707 16.2041L12.293 14.79L14.5859 12.4971H10.5C9.39548 12.4971 8.5 13.3925 8.5 14.4971V15.4971H6.5V14.4971C6.5 12.288 8.29091 10.4971 10.5 10.4971H14.5859L12.293 8.2041L13.707 6.79004L18.4141 11.4971Z" fill="#000000"/>
<path d="M12 2C17.5228 2 22 6.47715 22 12C22 17.5228 17.5228 22 12 22C6.47715 22 2 17.5228 2 12C2 6.47715 6.47715 2 12 2ZM12 4C7.58172 4 4 7.58172 4 12C4 16.4183 7.58172 20 12 20C16.4183 20 20 16.4183 20 12C20 7.58172 16.4183 4 12 4Z" fill="#000000"/>
</svg>
