<svg xmlns="http://www.w3.org/2000/svg" width="20" height="20" viewBox="0 0 20 20" fill="none"><rect width="20" height="20" fill="none"/>
<path d="M10.2637 6.55957C10.4262 6.47264 10.624 6.48179 10.7773 6.58398L13.7773 8.58398C13.9163 8.67668 13.9999 8.83296 14 9C13.9999 9.16704 13.9163 9.32332 13.7773 9.41602L10.7773 11.416C10.624 11.5182 10.4262 11.5274 10.2637 11.4404C10.1015 11.3534 10.0001 11.1841 10 11V10H7V8H10V7L10.0049 6.93164C10.0266 6.77483 10.1218 6.63572 10.2637 6.55957Z" fill="#000000"/>
<path d="M10 2C14.8325 2 18 5.42818 18 9.5C18 14.5523 14.0523 18 10 18C9.44772 18 9 17.5523 9 17V15.9502C5.0811 15.5725 2 12.9758 2 9C2 6.92186 2.81751 5.1394 4.27441 3.89062C5.71747 2.65381 7.71483 2 10 2ZM10 4C8.08543 4 6.5831 4.54622 5.57617 5.40918C4.58307 6.26041 4 7.47814 4 9C4 11.8915 6.38185 14 10 14H11V15.9014C13.5992 15.4021 16 13.0009 16 9.5C16 6.57182 13.7675 4 10 4Z" fill="#000000"/>
</svg>
