<svg xmlns="http://www.w3.org/2000/svg" width="20" height="20" viewBox="0 0 20 20" fill="none"><rect width="20" height="20" fill="none"/>
<path d="M10.0002 2.25C12.6236 2.25 14.7502 4.37665 14.7502 7V7.25H15.0002C15.266 7.25 15.512 7.39108 15.6467 7.62012C15.7813 7.84908 15.7845 8.13209 15.6555 8.36426L10.6555 17.3643L10.6008 17.4492C10.4604 17.637 10.2385 17.75 10.0002 17.75C9.72793 17.75 9.47727 17.6023 9.34497 17.3643L4.34497 8.36426C4.21598 8.13209 4.21921 7.84908 4.35376 7.62012C4.48852 7.39108 4.7345 7.25 5.00024 7.25H5.25024V7C5.25024 4.37665 7.37689 2.25 10.0002 2.25ZM10.0002 15.457L13.7258 8.75H6.27466L10.0002 15.457ZM10.0002 3.75C8.20532 3.75 6.75024 5.20507 6.75024 7V7.25H13.2502V7C13.2502 5.20507 11.7952 3.75 10.0002 3.75Z" fill="#000000"/>
</svg>
