<svg xmlns="http://www.w3.org/2000/svg" width="20" height="20" viewBox="0 0 20 20" fill="none"><rect width="20" height="20" fill="none"/>
<path d="M14.001 9C14.5533 9 15.001 9.44772 15.001 10C15.0007 10.5521 14.5531 10.999 14.001 10.999C13.4489 10.999 13.0012 10.5521 13.001 10C13.001 9.44772 13.4487 9 14.001 9Z" fill="#000000"/>
<path d="M15.3008 2.94922C16.8195 2.94922 18.0506 4.18057 18.0508 5.69922V14.2998C18.0508 15.8186 16.8196 17.0498 15.3008 17.0498H4.7002L4.41895 17.0352C3.03244 16.8941 1.9502 15.7235 1.9502 14.2998V5.69922C1.95035 4.18067 3.18165 2.94938 4.7002 2.94922H15.3008ZM4.7002 4.44922C4.01007 4.44938 3.45035 5.0091 3.4502 5.69922V14.2998C3.4502 14.9469 3.94216 15.4787 4.57227 15.543L4.7002 15.5498H15.3008C15.9911 15.5498 16.5508 14.9902 16.5508 14.2998V5.69922C16.5506 5.009 15.991 4.44922 15.3008 4.44922H4.7002Z" fill="#000000"/>
</svg>
