<svg xmlns="http://www.w3.org/2000/svg" width="24" height="24" viewBox="0 0 24 24" fill="none"><rect width="24" height="24" fill="none"/>
<path d="M15.0001 22.0002H4.00014V20.0002H15.0001V22.0002Z" fill="#000000"/>
<path d="M12.4542 1.01188C12.7318 0.966836 13.0142 1.04163 13.2326 1.21305L13.3214 1.29215L18.7062 6.67692C18.9333 6.90409 19.0378 7.22704 18.9865 7.54411C18.9349 7.86131 18.7339 8.13476 18.4464 8.27848L17.8048 8.59879C17.6126 8.69491 17.4372 8.82186 17.2853 8.97379L14.8361 11.422L21.7062 18.2922L20.2921 19.7062L13.422 12.8361L10.9738 15.2843C10.8218 15.4363 10.6949 15.6126 10.5988 15.8048L10.2785 16.4465C10.1347 16.734 9.86136 16.935 9.54408 16.9865C9.22693 17.0378 8.90411 16.9334 8.67689 16.7062L3.29213 11.3215C3.06534 11.0942 2.96047 10.7712 3.01186 10.4543C3.0635 10.1374 3.26483 9.86457 3.55189 9.72086L4.1935 9.39958C4.38558 9.30347 4.56115 9.17645 4.71303 9.02458L11.0246 2.71305C11.1765 2.56106 11.3034 2.38577 11.3996 2.19352L11.7199 1.55192C11.8636 1.2647 12.1373 1.06348 12.4542 1.01188ZM12.8488 3.64665C12.7252 3.81712 12.588 3.97774 12.4386 4.12711L6.12709 10.4386C5.97809 10.5876 5.8176 10.7245 5.6476 10.8478L9.15053 14.3507C9.27397 14.1806 9.41057 14.0194 9.55971 13.8703L15.8712 7.55875C16.0205 7.40958 16.1814 7.27303 16.3517 7.14957L12.8488 3.64665Z" fill="#000000"/>
</svg>
