<svg xmlns="http://www.w3.org/2000/svg" width="24" height="24" viewBox="0 0 24 24" fill="none"><rect width="24" height="24" fill="none"/>
<path d="M18.0654 13.9004C18.517 13.9004 18.8224 14.0383 19.041 14.2744C19.2541 14.5046 19.376 14.8198 19.4844 15.1494L21.7705 22.0996H19.8994L19.3945 20.4785H16.5371L15.9932 22.0996H14.2197L16.6201 15.1475C16.7344 14.8164 16.8636 14.5029 17.082 14.2734C17.3058 14.0384 17.6138 13.9004 18.0654 13.9004ZM17.0576 18.9092H18.8984L18.0039 16.043L17.0576 18.9092Z" fill="#000000"/>
<path d="M21 7.94531V12H19V9.05371L12 4.67871L5 9.05371V19H12V21H3V7.94531L12 2.32031L21 7.94531Z" fill="#000000"/>
</svg>
