<svg xmlns="http://www.w3.org/2000/svg" width="24" height="24" viewBox="0 0 24 24" fill="none"><rect width="24" height="24" fill="none"/>
<path d="M15.6406 3.76758L12.9629 5.99902H13V7.61133C13.9006 7.81573 14.698 8.29032 15.3037 8.94531L16.7031 8.1377L16.7158 8.15918L17.3086 4.73047L19.2803 5.07129L18.7578 8.09766L21.6396 9.1582L20.9492 11.0361L17.6836 9.83496L17.7031 9.86914L16.3018 10.6768C16.4301 11.0949 16.5 11.5388 16.5 11.999C16.5 12.4621 16.4297 12.9087 16.2998 13.3291L17.6982 14.1377L17.6836 14.1621L20.9492 12.9619L21.6396 14.8398L18.7578 15.9004L19.2803 18.9268L17.3086 19.2676L16.7158 15.8379L16.6982 15.8691L15.2969 15.0596C14.692 15.7109 13.8973 16.1821 13 16.3857V17.999H12.9629L15.6406 20.2305L14.3594 21.7676L12 19.8018L9.64062 21.7676L8.35938 20.2305L11.0371 17.999H11V16.3857C10.1043 16.1824 9.31052 15.7129 8.70605 15.0635L7.31152 15.8691L7.28613 15.8252L6.69141 19.2676L4.71973 18.9268L5.24219 15.9004L2.36035 14.8398L3.05078 12.9619L6.32812 14.167L6.31152 14.1377L7.70117 13.334C7.57034 12.9122 7.5 12.4638 7.5 11.999C7.5 11.5371 7.56898 11.0913 7.69824 10.6719L6.30664 9.86914L6.32812 9.83008L3.05078 11.0361L2.36035 9.1582L5.24219 8.09766L4.71973 5.07129L6.69141 4.73047L7.28613 8.17188L7.30664 8.1377L8.69922 8.94141C9.30454 8.28825 10.101 7.81536 11 7.61133V5.99902H11.0371L8.35938 3.76758L9.64062 2.23047L12 4.19629L14.3594 2.23047L15.6406 3.76758ZM12 9.49902C10.6193 9.49902 9.5 10.6183 9.5 11.999C9.5 13.3797 10.6193 14.499 12 14.499C13.3807 14.499 14.5 13.3797 14.5 11.999C14.5 10.6183 13.3807 9.49902 12 9.49902Z" fill="#000000"/>
</svg>
