<svg xmlns="http://www.w3.org/2000/svg" width="24" height="24" viewBox="0 0 24 24" fill="none"><rect width="24" height="24" fill="none"/>
<path d="M10.0488 2.19076C12.3179 1.73941 14.6735 2.08849 16.7139 3.17904C18.7541 4.26963 20.3539 6.0339 21.2393 8.17122C22.1245 10.3086 22.2409 12.6879 21.5693 14.9017C20.8976 17.1152 19.479 19.0277 17.5557 20.3128C15.6321 21.5981 13.3218 22.1773 11.0195 21.9505C9.08861 21.7603 7.26454 21.011 5.76074 19.8099L5.13574 20.5941L5.08984 20.6449C4.97506 20.7538 4.8136 20.8027 4.65527 20.7738C4.47415 20.7403 4.32478 20.6102 4.26855 20.4349L3.17285 16.9993C3.12213 16.8403 3.15374 16.666 3.25781 16.5355C3.36204 16.405 3.52499 16.3348 3.69141 16.349L7.28418 16.6585C7.46784 16.6744 7.62844 16.7909 7.70117 16.9603C7.77328 17.1294 7.74663 17.3253 7.63184 17.4691L7.00879 18.2484C8.21182 19.209 9.67124 19.8082 11.2158 19.9603C13.0576 20.1417 14.9055 19.6779 16.4443 18.6497C17.9831 17.6216 19.1179 16.0916 19.6553 14.3206C20.1925 12.5496 20.0988 10.6467 19.3906 8.93685C18.6824 7.22709 17.4036 5.81517 15.7715 4.94271C14.1393 4.07027 12.2547 3.79069 10.4395 4.15169C8.62421 4.51279 6.98957 5.49248 5.81543 6.92318C4.64153 8.35382 4 10.1477 4 11.9984H2C2 9.68507 2.80213 7.44293 4.26953 5.65462C5.73715 3.86633 7.77989 2.64217 10.0488 2.19076Z" fill="#000000"/>
<path d="M14.5 13.0003C15.3284 13.0003 16 13.6719 16 14.5003C15.9997 15.3285 15.3283 16.0003 14.5 16.0003C13.6717 16.0003 13.0003 15.3285 13 14.5003C13 13.6719 13.6716 13.0003 14.5 13.0003Z" fill="#000000"/>
<path d="M15.707 9.70736L9.70703 15.7074L8.29297 14.2933L14.293 8.29329L15.707 9.70736Z" fill="#000000"/>
<path d="M9.70703 8.20736C10.5355 8.20736 11.207 8.87893 11.207 9.70736C11.2068 10.5356 10.5353 11.2074 9.70703 11.2074C8.87877 11.2074 8.20729 10.5356 8.20703 9.70736C8.20703 8.87893 8.8786 8.20736 9.70703 8.20736Z" fill="#000000"/>
</svg>
