<svg xmlns="http://www.w3.org/2000/svg" width="20" height="20" viewBox="0 0 20 20" fill="none"><rect width="20" height="20" fill="none"/>
<path d="M16.4453 2.16798C16.7521 1.96347 17.1466 1.94429 17.4717 2.11817C17.7968 2.29219 18 2.63124 18 3.00001V16C17.9999 16.3665 17.7995 16.704 17.4775 16.8789C17.1554 17.0538 16.7625 17.0384 16.4551 16.8389L11.1836 13.417C10.8665 13.2112 10.4972 13.0994 10.1191 13.0947L9.23633 13.083L9.98047 16.8027C10.0477 17.1387 9.93822 17.4861 9.69043 17.7227C9.4424 17.9592 9.0903 18.0518 8.75781 17.9688L5.51465 17.1582C4.62455 16.9355 4 16.1354 4 15.2178V12.8799C2.55243 12.4438 1.50012 11.1021 1.5 9.51564C1.50012 7.5742 3.07419 6.00005 5.01562 6.00001H10.0918C10.4866 5.99999 10.8727 5.88303 11.2012 5.66407L16.4453 2.16798ZM6 15.2178L7.70898 15.6455L7.19141 13.0576L6 13.043V15.2178ZM12.3105 7.32814C11.6535 7.76611 10.8814 7.99999 10.0918 8.00001H5.01562C4.17872 8.00005 3.50007 8.67873 3.5 9.51564C3.50015 10.3451 4.1676 11.021 4.99707 11.0313L7 11.0557V8.99903H9V11.0801L10.1445 11.0947C10.9005 11.1041 11.6383 11.3276 12.2725 11.7393L16 14.1582V4.86817L12.3105 7.32814Z" fill="#000000"/>
</svg>
