<svg xmlns="http://www.w3.org/2000/svg" width="24" height="24" viewBox="0 0 24 24" fill="none"><rect width="24" height="24" fill="none"/>
<path d="M13.0014 12.4131L11.5873 13.8271L10.1732 12.4131L11.5873 10.999L13.0014 12.4131Z" fill="#000000"/>
<path d="M21.6078 8.87793L18.3656 12.1211L19.0727 12.8281L11.4154 20.4844C9.85349 22.0462 7.32129 22.046 5.75918 20.4844L3.51602 18.2422C1.95395 16.6801 1.95399 14.1471 3.51602 12.585L11.1723 4.92871L11.8793 5.63574L15.1225 2.39258L21.6078 8.87793ZM4.93008 13.999C4.14918 14.78 4.14929 16.0461 4.93008 16.8271L7.17325 19.0703C7.95431 19.8509 9.22047 19.8511 10.0014 19.0703L16.2436 12.8281L11.1723 7.75684L4.93008 13.999ZM13.2943 7.0498L16.9506 10.707L18.7797 8.87793L15.1225 5.2207L13.2943 7.0498Z" fill="#000000"/>
</svg>
