<svg xmlns="http://www.w3.org/2000/svg" width="24" height="24" viewBox="0 0 24 24" fill="none"><rect width="24" height="24" fill="none"/>
<path d="M20 14C21.6569 14 23 15.3431 23 17C23 18.6569 21.6569 20 20 20H19V21H21V22H19V23H17V22H16V21H17V20H16V18H17V14H20ZM19 18H20C20.5523 18 21 17.5523 21 17C21 16.4477 20.5523 16 20 16H19V18Z" fill="#000000"/>
<path d="M17 3C19.2091 3 21 4.79086 21 7V12H19V7C19 5.89543 18.1046 5 17 5H7C5.89543 5 5 5.89543 5 7V17C5 18.1046 5.89543 19 7 19H14V21H7C4.79086 21 3 19.2091 3 17V7C3 4.79086 4.79086 3 7 3H17Z" fill="#000000"/>
<path d="M12 13H7V11H12V13Z" fill="#000000"/>
<path d="M16 9H7V7H16V9Z" fill="#000000"/>
</svg>
