<svg xmlns="http://www.w3.org/2000/svg" width="24" height="24" viewBox="0 0 24 24" fill="none"><rect width="24" height="24" fill="none"/>
<path d="M22 23.0001H14V21.0001H22V23.0001Z" fill="#000000"/>
<path d="M9.40332 2.19733C9.65675 2.00905 9.98467 1.95145 10.2871 2.04206L21 5.25592V11.0001H19V6.74421L11 4.34382V21.0001H3V11.0001L9 8.75006V3.00007L9.00684 2.88288C9.03893 2.61162 9.18144 2.36242 9.40332 2.19733ZM5 12.3858V19.0001H9V10.8858L5 12.3858Z" fill="#000000"/>
<path d="M22 20.0001H14V18.0001H22V20.0001Z" fill="#000000"/>
<path d="M21.7578 14.9659L14.2578 16.9659L13.7422 15.0342L21.2422 13.0342L21.7578 14.9659Z" fill="#000000"/>
</svg>
