<svg xmlns="http://www.w3.org/2000/svg" width="20" height="20" viewBox="0 0 20 20" fill="none"><rect width="20" height="20" fill="none"/>
<path d="M13 11.2549C15.9318 11.7741 18 13.0312 18 14.5C18 16.433 14.4183 18 10 18C5.58172 18 2 16.433 2 14.5C2 13.0312 4.06821 11.7741 7 11.2549V12.7812C6.21057 12.9374 5.51484 13.1498 4.94434 13.3994C4.33361 13.6666 3.93346 13.9465 3.70703 14.1807C3.59829 14.2932 3.54553 14.3784 3.52148 14.4297C3.49969 14.4763 3.5 14.4967 3.5 14.5C3.5 14.5033 3.49969 14.5237 3.52148 14.5703C3.54553 14.6216 3.59829 14.7068 3.70703 14.8193C3.93346 15.0535 4.33361 15.3334 4.94434 15.6006C6.1614 16.1331 7.94771 16.5 10 16.5C12.0523 16.5 13.8386 16.1331 15.0557 15.6006C15.6664 15.3334 16.0665 15.0535 16.293 14.8193C16.4017 14.7068 16.4545 14.6216 16.4785 14.5703C16.5003 14.5237 16.5 14.5033 16.5 14.5C16.5 14.4967 16.5003 14.4763 16.4785 14.4297C16.4545 14.3784 16.4017 14.2932 16.293 14.1807C16.0665 13.9465 15.6664 13.6666 15.0557 13.3994C14.4852 13.1498 13.7894 12.9374 13 12.7812V11.2549Z" fill="#000000"/>
<path d="M10 2C11.3807 2 12.5 3.11929 12.5 4.5C12.5 5.61933 11.7642 6.56613 10.75 6.88477V14H9.25V6.88477C8.23584 6.56613 7.5 5.61933 7.5 4.5C7.5 3.11929 8.61929 2 10 2Z" fill="#000000"/>
</svg>
