<svg xmlns="http://www.w3.org/2000/svg" width="24" height="24" viewBox="0 0 24 24" fill="none"><rect width="24" height="24" fill="none"/>
<path d="M2.45605 2.66113C2.74041 2.47683 3.09887 2.44861 3.4082 2.58691L22.4082 11.0869C22.7681 11.2479 23 11.6057 23 12C23 12.3943 22.7681 12.7521 22.4082 12.9131L3.4082 21.4131C3.09887 21.5514 2.7404 21.5232 2.45605 21.3389C2.17174 21.1545 2.00001 20.8389 2 20.5V13.833L6.40039 12L2 10.167V3.49999L2.00781 3.37402C2.04459 3.0841 2.20733 2.82241 2.45605 2.66113ZM4 8.833L9.38477 11.0771C9.75729 11.2325 10 11.5964 10 12C9.99999 12.4036 9.75729 12.7675 9.38477 12.9228L4 15.166V18.956L19.5508 12L4 5.04296V8.833Z" fill="#000000"/>
</svg>
