<svg xmlns="http://www.w3.org/2000/svg" width="20" height="20" viewBox="0 0 20 20" fill="none"><rect width="20" height="20" fill="none"/>
<path d="M6 8C6.55228 8 7 8.44772 7 9V11C7 11.5523 6.55228 12 6 12C5.44772 12 5 11.5523 5 11V9C5 8.44772 5.44772 8 6 8Z" fill="#000000"/>
<path d="M15 4C16.6569 4 18 5.34315 18 7V13C18 14.6569 16.6569 16 15 16H5C3.34315 16 2 14.6569 2 13V7C2 5.34315 3.34315 4 5 4H15ZM5 6C4.44772 6 4 6.44772 4 7V13C4 13.5523 4.44772 14 5 14H15C15.5523 14 16 13.5523 16 13V7C16 6.44772 15.5523 6 15 6H5Z" fill="#000000"/>
</svg>
