<svg xmlns="http://www.w3.org/2000/svg" width="24" height="24" viewBox="0 0 24 24" fill="none"><rect width="24" height="24" fill="none"/>
<path d="M13 6.99983C13.5506 6.99983 13.9976 7.44531 14 7.99592C14.0041 8.9437 14.0571 9.95511 14.1504 10.9998H18C18.5492 10.9998 18.9957 11.4428 19 11.992C19.0201 14.542 19.7934 17.1926 20.7227 19.9998H22V21.9998H2V19.9998H3.23926C4.26208 16.1837 4.98436 11.6252 5 7.99592C5.00236 7.44531 5.44939 6.99983 6 6.99983H13ZM6.97852 8.99983C6.85753 12.465 6.20478 16.5027 5.30664 19.9998H13.6934C12.7952 16.5027 12.1425 12.465 12.0215 8.99983H6.97852ZM14.374 12.9998C14.6864 15.3665 15.1728 17.8061 15.7607 19.9998H18.6162C17.8719 17.7054 17.209 15.3456 17.042 12.9998H14.374Z" fill="#000000"/>
<path d="M12.3438 2.56233C13.7214 0.955526 16.2683 1.17026 17.3574 2.98518C17.7442 3.62922 18.6485 3.70559 19.1377 3.13557L20.2412 1.84944L21.7588 3.15022L20.6562 4.43733C19.2786 6.04369 16.7317 5.82894 15.6426 4.01448C15.2559 3.36997 14.3516 3.29363 13.8623 3.86409L12.7588 5.15022L11.2412 3.84944L12.3438 2.56233Z" fill="#000000"/>
</svg>
