<svg xmlns="http://www.w3.org/2000/svg" width="20" height="20" viewBox="0 0 20 20" fill="none"><rect width="20" height="20" fill="none"/>
<path d="M15.9999 16C17.6566 16.0002 18.9999 17.3433 18.9999 19H12.9999C12.9999 17.3433 14.3432 16.0002 15.9999 16Z" fill="#000000"/>
<path d="M10.0009 2C11.0478 2.00013 12.0537 2.29635 12.7636 2.56641C13.125 2.70399 13.4282 2.842 13.6415 2.94629C13.7477 2.99825 13.834 3.04304 13.8944 3.0752C13.9241 3.09101 13.9494 3.10469 13.9667 3.11426C13.9749 3.1188 13.9829 3.12305 13.9882 3.12598C13.9904 3.12725 13.995 3.12988 13.995 3.12988L13.997 3.13184H13.9989C13.9944 3.14015 13.9486 3.22127 13.5038 4.00098L13.9989 3.13184C14.2693 3.28644 14.4536 3.55939 14.495 3.86816C14.536 4.17663 14.4308 4.48787 14.2108 4.70801L11.6893 7.22656L13.8739 8.31934C14.2445 8.50468 14.5866 8.73476 14.8954 9H10.7626L10.0009 8.61914L7.02235 10.1084C6.27074 10.4845 5.71034 11.1596 5.47938 11.9678L5.05555 13.4512C4.69135 14.7282 5.65039 16.0005 6.9784 16.001H10.9999V18.001H6.9784C4.32176 18.0005 2.40279 15.4569 3.13173 12.9023L3.55653 11.418C3.94151 10.0709 4.87486 8.94617 6.12782 8.31934L8.31239 7.22656L5.79676 4.70801C5.57696 4.48792 5.47166 4.17648 5.51258 3.86816C5.5539 3.5599 5.73699 3.28759 6.00673 3.13281L6.00868 3.13184L6.01161 3.13086L6.03895 3.11523C6.05625 3.10566 6.08154 3.09203 6.11122 3.07617C6.17151 3.04398 6.25793 2.99937 6.36415 2.94727C6.57697 2.8429 6.87921 2.70408 7.24012 2.56641C7.94889 2.29617 8.9537 2.00015 10.0009 2ZM10.0009 4.00098C9.40953 4.00111 8.787 4.14699 8.24598 4.33008L10.0018 6.08594L11.7587 4.33008C11.2162 4.14684 10.5924 4.00109 10.0009 4.00098Z" fill="#000000"/>
<path d="M15.9999 11C17.1043 11.0002 17.9999 11.8956 17.9999 13C17.9999 14.1044 17.1043 14.9998 15.9999 15C14.8955 14.9998 13.9999 14.1044 13.9999 13C13.9999 11.8956 14.8955 11.0002 15.9999 11Z" fill="#000000"/>
</svg>
