<svg xmlns="http://www.w3.org/2000/svg" width="24" height="24" viewBox="0 0 24 24" fill="none"><rect width="24" height="24" fill="none"/>
<path d="M12 2C14.2091 2 16 3.79086 16 6C16 7.86384 14.7252 9.42998 13 9.87402V11H14L14.2061 11.0049C16.0143 11.0966 17.5045 12.3897 17.8975 14.1016C19.6744 14.509 21 16.0995 21 18C21 20.2091 19.2091 22 17 22C14.7909 22 13 20.2091 13 18C13 16.2014 14.1868 14.6791 15.8203 14.1758C15.5328 13.542 14.9262 13.084 14.2041 13.0107L14 13H10C9.1895 13 8.49287 13.4827 8.17871 14.1758C9.81264 14.6788 11 16.201 11 18C11 20.2091 9.20914 22 7 22C4.79086 22 3 20.2091 3 18C3 16.0998 4.32507 14.5093 6.10156 14.1016C6.5093 12.3251 8.09979 11 10 11H11V9.87402C9.27477 9.42998 8 7.86384 8 6C8 3.79086 9.79086 2 12 2ZM7 16C5.89543 16 5 16.8954 5 18C5 19.1046 5.89543 20 7 20C8.10457 20 9 19.1046 9 18C9 16.8954 8.10457 16 7 16ZM17 16C15.8954 16 15 16.8954 15 18C15 19.1046 15.8954 20 17 20C18.1046 20 19 19.1046 19 18C19 16.8954 18.1046 16 17 16ZM12 4C10.8954 4 10 4.89543 10 6C10 7.10457 10.8954 8 12 8C13.1046 8 14 7.10457 14 6C14 4.89543 13.1046 4 12 4Z" fill="#000000"/>
</svg>
