<svg xmlns="http://www.w3.org/2000/svg" width="20" height="20" viewBox="0 0 20 20" fill="none"><rect width="20" height="20" fill="none"/>
<path d="M9.30176 1.81348L9.30371 1.81445H9.30566L9.31055 1.81738C9.31427 1.81906 9.31949 1.82161 9.3252 1.82422C9.33709 1.82965 9.35311 1.83722 9.37305 1.84668C9.41359 1.86592 9.4704 1.89341 9.54102 1.92969C9.68219 2.00221 9.88017 2.10979 10.1162 2.25391C10.5872 2.54152 11.2183 2.97928 11.8633 3.58398C12.9544 4.60699 14.1011 6.12816 14.5635 8.21387L15.7881 7.41797L16.168 8.1582L16.1699 8.16211C16.1699 8.16211 16.1709 8.16596 16.1719 8.16797C16.1739 8.17201 16.1768 8.17677 16.1797 8.18262C16.1856 8.1948 16.194 8.2117 16.2031 8.23145C16.2213 8.27085 16.2447 8.32535 16.2725 8.39355C16.3283 8.53099 16.4002 8.72659 16.4707 8.97168C16.6115 9.4614 16.75 10.1566 16.75 11C16.75 11.8863 16.5755 12.7641 16.2363 13.583C15.8971 14.4019 15.4002 15.1467 14.7734 15.7734C14.1466 16.4002 13.4019 16.8971 12.583 17.2363C11.7641 17.5755 10.8864 17.75 10 17.75C9.11364 17.75 8.23589 17.5755 7.41699 17.2363C6.59806 16.8971 5.85335 16.4002 5.22656 15.7734C4.59978 15.1467 4.10289 14.4019 3.76367 13.583C3.4245 12.7641 3.25001 11.8863 3.25 11C3.25 8.79611 4.13342 7.17099 5.08301 6.2666L5.79785 5.58496L6.67188 7.22754C6.81088 7.05201 6.96313 6.84433 7.11426 6.60254C7.67827 5.70009 8.24999 4.33582 8.25 2.5V1.35059L9.30176 1.81348ZM9.66992 3.74902C9.47286 5.30406 8.93283 6.52213 8.38574 7.39746C8.04372 7.94468 7.69992 8.35778 7.4375 8.6377C7.30615 8.7778 7.19471 8.88551 7.11328 8.95996C7.07266 8.9971 7.03916 9.02596 7.01465 9.04688C7.0024 9.05732 6.99214 9.06585 6.98438 9.07227C6.9806 9.07538 6.97726 9.07792 6.97461 9.08008L6.96973 9.08496C6.96662 9.08164 6.9305 9.03812 6.5 8.5L6.96875 9.08594L6.2627 9.65039L5.47559 8.17188C5.06973 8.85364 4.75 9.80106 4.75 11C4.75001 11.6893 4.88568 12.3719 5.14941 13.0088C5.41325 13.6457 5.80059 14.2244 6.28809 14.7119C6.77559 15.1994 7.35427 15.5868 7.99121 15.8506C8.62807 16.1143 9.31069 16.25 10 16.25C10.6893 16.25 11.3719 16.1143 12.0088 15.8506C12.6457 15.5868 13.2244 15.1994 13.7119 14.7119C14.1994 14.2244 14.5867 13.6457 14.8506 13.0088C15.1143 12.3719 15.25 11.6893 15.25 11C15.25 10.4669 15.1799 10.0112 15.0977 9.65625L13.3535 10.792L13.252 9.53613C13.0712 7.29946 11.9459 5.71738 10.8369 4.67773C10.4243 4.29094 10.0175 3.98293 9.66992 3.74902Z" fill="#000000"/>
</svg>
