<svg xmlns="http://www.w3.org/2000/svg" width="20" height="20" viewBox="0 0 20 20" fill="none"><rect width="20" height="20" fill="none"/>
<path d="M15.2637 13.0593C15.4262 12.9723 15.6239 12.9815 15.7773 13.0838L18.7773 15.0838C18.9163 15.1765 19 15.3327 19 15.4998C18.9998 15.6667 18.9163 15.8232 18.7773 15.9158L15.7773 17.9158C15.624 18.0178 15.4261 18.027 15.2637 17.9402C15.1016 17.8532 15.0003 17.6837 15 17.4998V16.4998C13.8954 16.4998 13 17.3952 13 18.4998V18.9998H11V18.4998C11 16.2906 12.7909 14.4998 15 14.4998V13.4998L15.0049 13.4314C15.0265 13.2746 15.1219 13.1356 15.2637 13.0593Z" fill="#000000"/>
<path d="M10.7588 2.3738C12.745 1.47114 14.9999 2.92355 15 5.10524V5.9988C16.6568 5.9988 17.9999 7.34202 18 8.9988V10.9988H16V8.9988C15.9999 8.44659 15.5522 7.9988 15 7.9988H5C4.44777 7.9988 4.0001 8.44659 4 8.9988V14.9988C4.00037 15.5508 4.44794 15.9988 5 15.9988H9V17.9988H5C3.34337 17.9988 2.00037 16.6553 2 14.9988V8.28688C2.00007 7.11062 2.68801 6.04228 3.75879 5.55544L10.7588 2.3738ZM13 5.10524C12.9999 4.37808 12.248 3.89324 11.5859 4.19411L7.61621 5.9988H13V5.10524Z" fill="#000000"/>
<path d="M14.1152 10.9988H14V10.8826C14.0406 10.919 14.0788 10.9582 14.1152 10.9988Z" fill="#000000"/>
</svg>
