<svg xmlns="http://www.w3.org/2000/svg" width="24" height="24" viewBox="0 0 24 24" fill="none"><rect width="24" height="24" fill="none"/>
<path d="M23 15C22.9999 15.0558 22.9784 21.5065 18 23C13.0216 21.5065 13.0001 15.0558 13 15L18 13L23 15ZM15.1387 16.2988C15.216 16.7449 15.3343 17.2593 15.5156 17.7852C15.97 19.1028 16.7239 20.2666 18 20.8643C19.2761 20.2666 20.03 19.1028 20.4844 17.7852C20.6657 17.2594 20.783 16.7448 20.8604 16.2988L18 15.1543L15.1387 16.2988Z" fill="#000000"/>
<path d="M12.5674 3.00001C15.1733 2.0641 17.9195 3.99587 17.9199 6.76466V6.99903H18C20.2089 6.99903 21.9995 8.79028 22 10.999L20 11C19.9995 9.89582 19.1043 8.99903 18 8.99903H6C4.89571 8.99903 4.00045 9.89485 4 10.999V16.999C4.00016 18.1035 4.89553 18.999 6 18.999H11V20.999H6C3.79096 20.999 2.00016 19.208 2 16.999V9.60938C2.00028 7.92202 3.05947 6.41533 4.64746 5.84474L12.5674 3.00001ZM15.9199 6.76466C15.9195 5.38048 14.546 4.41402 13.2432 4.88184L7.34961 6.99903H15.9199V6.76466Z" fill="#000000"/>
</svg>
