<svg xmlns="http://www.w3.org/2000/svg" width="20" height="20" viewBox="0 0 20 20" fill="none"><rect width="20" height="20" fill="none"/>
<path d="M8.3497 2.38623C8.82398 2.79331 9.36508 3.59769 9.74813 4.31982C9.9492 4.69894 10.1346 5.10671 10.2599 5.4917C10.3701 5.83066 10.493 6.32308 10.3936 6.78857C10.2831 7.30591 9.94333 7.74003 9.73446 7.99268C9.63458 8.11348 9.52606 8.23396 9.43856 8.3335C9.4747 8.42862 9.52771 8.54577 9.60653 8.68213C9.78612 8.99265 10.0508 9.33151 10.3643 9.64697C10.6778 9.96223 11.0166 10.2307 11.3292 10.4155C11.4563 10.4907 11.5682 10.5423 11.6612 10.5806C11.7595 10.49 11.8734 10.3849 11.9913 10.2847C12.2518 10.0633 12.6869 9.72032 13.2149 9.60791L13.3897 9.58154C13.7996 9.54012 14.2132 9.6454 14.5108 9.7417C14.8963 9.86644 15.3042 10.0506 15.6837 10.2515C16.4055 10.6337 17.2111 11.1761 17.6192 11.6567L17.8575 11.936V12.7593C17.8576 14.8927 16.2411 17.0275 13.8106 16.8462C7.86131 16.4022 3.60017 12.1403 3.15634 6.19092C2.97554 3.76096 5.11011 2.14509 7.24325 2.14502H8.06845L8.3497 2.38623ZM7.00692 4.15576C5.85191 4.2603 5.08326 5.12533 5.15145 6.04248C5.52164 11.0047 8.99781 14.4808 13.96 14.8511C14.9384 14.9238 15.8575 14.0441 15.8575 12.7593V12.7358C15.607 12.5343 15.211 12.2641 14.7481 12.019C14.4351 11.8533 14.1367 11.7224 13.8946 11.644C13.738 11.5934 13.6492 11.5787 13.6143 11.5737C13.576 11.5931 13.4713 11.6518 13.2862 11.8091C13.1784 11.9008 13.0721 11.9995 12.9503 12.1118C12.838 12.2154 12.7013 12.341 12.5675 12.4478C12.3835 12.5945 12.1533 12.6716 11.9181 12.6655C11.3397 12.6506 10.7761 12.4118 10.3116 12.1372C9.8289 11.8518 9.35754 11.4707 8.9454 11.0562C8.53366 10.6419 8.15593 10.1688 7.87509 9.68311C7.6049 9.21574 7.37122 8.64466 7.37118 8.05811C7.37128 7.84825 7.43689 7.64335 7.55966 7.47314C7.66441 7.32795 7.78914 7.18413 7.89169 7.06689C8.0047 6.9377 8.09996 6.83134 8.19345 6.71826C8.28495 6.60757 8.3508 6.51783 8.3956 6.44482C8.41077 6.42005 8.42004 6.3998 8.42685 6.38623C8.4214 6.34946 8.40674 6.2612 8.35751 6.10986C8.27873 5.86789 8.14773 5.56968 7.98153 5.25635C7.73635 4.79417 7.46561 4.39726 7.26376 4.14502H7.24325L7.00692 4.15576Z" fill="#000000"/>
</svg>
