<svg xmlns="http://www.w3.org/2000/svg" width="20" height="20" viewBox="0 0 20 20" fill="none"><rect width="20" height="20" fill="none"/>
<path d="M11.25 1.5C12.3334 1.5 13.4063 1.7203 14.4072 2.14746C15.408 2.57462 16.318 3.20005 17.084 3.98926C17.3945 4.30922 17.6775 4.65452 17.9336 5.01953L16.4014 5.47852C16.276 5.32492 16.1448 5.17632 16.0068 5.03418C15.378 4.38637 14.634 3.87446 13.8184 3.52637C13.0027 3.1783 12.1301 3 11.25 3C10.3699 3 9.49728 3.1783 8.68164 3.52637C7.86603 3.87446 7.12199 4.38637 6.49316 5.03418C5.86424 5.68221 5.36225 6.45418 5.01953 7.30664C4.99386 7.37051 4.97107 7.43545 4.94727 7.5H11V9H4.57031C4.52433 9.33042 4.5 9.6645 4.5 10C4.50002 10.3355 4.52434 10.6696 4.57031 11H10V12.5H4.94727C4.97107 12.5646 4.99386 12.6295 5.01953 12.6934C5.36228 13.5458 5.86423 14.3178 6.49316 14.9658C7.12199 15.6136 7.86606 16.1256 8.68164 16.4736C9.49724 16.8217 10.37 17 11.25 17C12.13 17 13.0028 16.8217 13.8184 16.4736C14.6339 16.1256 15.378 15.6136 16.0068 14.9658C16.1449 14.8235 16.2749 14.6733 16.4004 14.5195L17.9326 14.9795C17.6765 15.3445 17.3945 15.6908 17.084 16.0107C16.318 16.7999 15.408 17.4254 14.4072 17.8525C13.4063 18.2797 12.3334 18.5 11.25 18.5C10.1666 18.5 9.09367 18.2797 8.09277 17.8525C7.09201 17.4254 6.182 16.7999 5.41602 16.0107C4.65003 15.2215 4.04253 14.284 3.62793 13.2529C3.52864 13.006 3.44127 12.7546 3.36523 12.5H1V11H3.05957C3.02147 10.6687 3.00001 10.3349 3 10C3 9.66506 3.02146 9.33132 3.05957 9H1V7.5H3.36523C3.44127 7.24537 3.52865 6.99403 3.62793 6.74707C4.0425 5.71592 4.65004 4.77849 5.41602 3.98926C6.18201 3.20005 7.09198 2.57462 8.09277 2.14746C9.09371 1.7203 10.1666 1.5 11.25 1.5Z" fill="#000000"/>
</svg>
