<svg xmlns="http://www.w3.org/2000/svg" width="24" height="24" viewBox="0 0 24 24" fill="none"><rect width="24" height="24" fill="none"/>
<path d="M4 18C4 19.1046 4.89543 20 6 20H8V22H6C3.79086 22 2 20.2091 2 18V16H4V18Z" fill="#000000"/>
<path d="M22 18C22 20.2091 20.2091 22 18 22H16V20H18C19.1046 20 20 19.1046 20 18V16H22V18Z" fill="#000000"/>
<path d="M13.4443 6C15.6842 6 17.5 7.81584 17.5 10.0557C17.4999 12.2954 15.6841 14.1113 13.4443 14.1113H11.3574V15H14.5V17H11.3574V18.5H9.35742V17H7.5V15H9.35742V14.1113H7.5V12.1113H9.35742V6H13.4443ZM11.3574 12.1113H13.4443C14.5796 12.1113 15.4999 11.1909 15.5 10.0557C15.5 8.92041 14.5796 8 13.4443 8H11.3574V12.1113Z" fill="#000000"/>
<path d="M8 4H6C4.89543 4 4 4.89543 4 6V8H2V6C2 3.79086 3.79086 2 6 2H8V4Z" fill="#000000"/>
<path d="M18 2C20.2091 2 22 3.79086 22 6V8H20V6C20 4.89543 19.1046 4 18 4H16V2H18Z" fill="#000000"/>
</svg>
