<svg xmlns="http://www.w3.org/2000/svg" width="20" height="20" viewBox="0 0 20 20" fill="none"><rect width="20" height="20" fill="none"/>
<path d="M10 15.5C10.6904 15.5 11.25 16.0596 11.25 16.75C11.25 17.4404 10.6904 18 10 18C9.30964 18 8.75 17.4404 8.75 16.75C8.75 16.0596 9.30964 15.5 10 15.5Z" fill="#000000"/>
<path d="M5.5 11C6.19036 11 6.75 11.5596 6.75 12.25C6.75 12.9404 6.19036 13.5 5.5 13.5C4.80964 13.5 4.25 12.9404 4.25 12.25C4.25 11.5596 4.80964 11 5.5 11Z" fill="#000000"/>
<path d="M10 11C10.6904 11 11.25 11.5596 11.25 12.25C11.25 12.9404 10.6904 13.5 10 13.5C9.30964 13.5 8.75 12.9404 8.75 12.25C8.75 11.5596 9.30964 11 10 11Z" fill="#000000"/>
<path d="M14.5 11C15.1904 11 15.75 11.5596 15.75 12.25C15.75 12.9404 15.1904 13.5 14.5 13.5C13.8096 13.5 13.25 12.9404 13.25 12.25C13.25 11.5596 13.8096 11 14.5 11Z" fill="#000000"/>
<path d="M5.5 6.5C6.19036 6.5 6.75 7.05964 6.75 7.75C6.75 8.44036 6.19036 9 5.5 9C4.80964 9 4.25 8.44036 4.25 7.75C4.25 7.05964 4.80964 6.5 5.5 6.5Z" fill="#000000"/>
<path d="M10 6.5C10.6904 6.5 11.25 7.05964 11.25 7.75C11.25 8.44036 10.6904 9 10 9C9.30964 9 8.75 8.44036 8.75 7.75C8.75 7.05964 9.30964 6.5 10 6.5Z" fill="#000000"/>
<path d="M14.5 6.5C15.1904 6.5 15.75 7.05964 15.75 7.75C15.75 8.44036 15.1904 9 14.5 9C13.8096 9 13.25 8.44036 13.25 7.75C13.25 7.05964 13.8096 6.5 14.5 6.5Z" fill="#000000"/>
<path d="M5.5 2C6.19036 2 6.75 2.55964 6.75 3.25C6.75 3.94036 6.19036 4.5 5.5 4.5C4.80964 4.5 4.25 3.94036 4.25 3.25C4.25 2.55964 4.80964 2 5.5 2Z" fill="#000000"/>
<path d="M10 2C10.6904 2 11.25 2.55964 11.25 3.25C11.25 3.94036 10.6904 4.5 10 4.5C9.30964 4.5 8.75 3.94036 8.75 3.25C8.75 2.55964 9.30964 2 10 2Z" fill="#000000"/>
<path d="M14.5 2C15.1904 2 15.75 2.55964 15.75 3.25C15.75 3.94036 15.1904 4.5 14.5 4.5C13.8096 4.5 13.25 3.94036 13.25 3.25C13.25 2.55964 13.8096 2 14.5 2Z" fill="#000000"/>
</svg>
