<svg xmlns="http://www.w3.org/2000/svg" width="20" height="20" viewBox="0 0 20 20" fill="none"><rect width="20" height="20" fill="none"/>
<path d="M11.0002 3.09961C13.2821 3.56308 15 5.58137 15.0002 8V10.1719C15.0002 10.2531 15.0171 10.3336 15.0491 10.4082L16.1203 12.9092C16.5442 13.8988 15.8179 14.9997 14.7414 15H13.0002C13.0002 16.6566 11.6568 17.9997 10.0002 18C8.34337 18 7.00023 16.6569 7.00023 15H5.25804C4.18147 14.9996 3.45602 13.8988 3.88011 12.9092L4.9514 10.4082C4.98334 10.3336 5.0002 10.253 5.00023 10.1719V8C5.00023 5.58112 6.71803 3.56292 9.00023 3.09961V1H11.0002V3.09961ZM9.00023 15C9.00023 15.5523 9.44794 16 10.0002 16C10.5522 15.9997 11.0002 15.5521 11.0002 15H9.00023ZM10.0002 5C8.34347 5.00006 7.00023 6.34324 7.00023 8V10.1719C7.0002 10.5239 6.9289 10.8728 6.79026 11.1963L6.01683 13H13.9836L13.2102 11.1953C13.0717 10.8719 13.0003 10.5237 13.0002 10.1719V8C13.0001 6.34346 11.6567 5.00029 10.0002 5Z" fill="#000000"/>
</svg>
