<svg xmlns="http://www.w3.org/2000/svg" width="20" height="20" viewBox="0 0 20 20" fill="none"><rect width="20" height="20" fill="none"/>
<path d="M9.29211 11.706C9.65807 11.3403 10.2373 11.3168 10.63 11.6367L10.7062 11.706L13.0431 14.0429L13.1124 14.1191C13.4321 14.5118 13.4088 15.0911 13.0431 15.457L10.7062 17.7939L10.63 17.8632C10.2637 18.1616 9.73466 18.1615 9.36828 17.8632L9.29211 17.7939L6.95519 15.457L6.88586 15.3808C6.58745 15.0144 6.58745 14.4855 6.88586 14.1191L6.95519 14.0429L9.29211 11.706ZM8.79308 14.7499L9.99914 15.956L11.2052 14.7499L9.99914 13.5439L8.79308 14.7499Z" fill="#000000"/>
<path d="M14.0431 6.95502C14.4336 6.56463 15.0676 6.56454 15.4581 6.95502L17.7941 9.29194C18.1844 9.68243 18.1844 10.3155 17.7941 10.706L15.4581 13.0429C15.0676 13.4334 14.4336 13.4333 14.0431 13.0429L11.7071 10.706C11.3166 10.3155 11.3166 9.68246 11.7071 9.29194L14.0431 6.95502ZM13.545 9.99897L14.7501 11.205L15.9562 9.99897L14.7501 8.79291L13.545 9.99897Z" fill="#000000"/>
<path d="M4.54308 6.956C4.90914 6.59007 5.48923 6.56653 5.88195 6.88666L5.95715 6.956L8.29308 9.29194C8.68344 9.68243 8.68343 10.3155 8.29308 10.706L5.95715 13.0419C5.56666 13.4324 4.93361 13.4323 4.54308 13.0419L2.20715 10.706C1.81671 10.3155 1.81668 9.68244 2.20715 9.29194L4.54308 6.956ZM4.04504 9.99897L5.25012 11.204L6.45519 9.99897L5.25012 8.79389L4.04504 9.99897Z" fill="#000000"/>
<path d="M9.29211 2.20698C9.65804 1.84122 10.2373 1.81787 10.63 2.13764L10.7062 2.20698L13.0421 4.54291C13.4324 4.93339 13.4324 5.56648 13.0421 5.95698L10.7062 8.29389C10.3157 8.684 9.68256 8.68397 9.29211 8.29389L6.95617 5.95698C6.56578 5.56644 6.56569 4.93339 6.95617 4.54291L9.29211 2.20698ZM8.79406 5.24994L9.99914 6.45502L11.2042 5.24994L9.99914 4.04487L8.79406 5.24994Z" fill="#000000"/>
</svg>
