<svg xmlns="http://www.w3.org/2000/svg" width="20" height="20" viewBox="0 0 20 20" fill="none"><rect width="20" height="20" fill="none"/>
<path d="M15.2637 13.0596C15.4262 12.9726 15.624 12.9818 15.7773 13.084L18.7773 15.084C18.9163 15.1767 18.9999 15.333 19 15.5C18.9999 15.667 18.9163 15.8233 18.7773 15.916L15.7773 17.916C15.624 18.0182 15.4262 18.0274 15.2637 17.9404C15.1015 17.8534 15.0001 17.6841 15 17.5V16.5C13.8955 16.5 13.0001 17.3955 13 18.5V19H11V18.5C11.0001 16.291 12.7909 14.5 15 14.5V13.5L15.0049 13.4316C15.0266 13.2748 15.1218 13.1357 15.2637 13.0596Z" fill="#000000"/>
<path d="M8 3H12V1H14V3H15C16.6569 3 18 4.34315 18 6V11H16V9H4V15C4 15.5523 4.44772 16 5 16H9V18H5C3.34315 18 2 16.6569 2 15V6C2 4.34315 3.34315 3 5 3H6V1H8V3ZM5 5C4.44772 5 4 5.44772 4 6V7H16V6C16 5.44772 15.5523 5 15 5H5Z" fill="#000000"/>
</svg>
