<svg xmlns="http://www.w3.org/2000/svg" width="24" height="24" viewBox="0 0 24 24" fill="none"><rect width="24" height="24" fill="none"/>
<path d="M18.2578 15.0625C18.4166 14.9746 18.6106 14.98 18.7646 15.0762L22.7646 17.5762C22.9107 17.6675 22.9999 17.8277 23 18C22.9999 18.1723 22.9107 18.3325 22.7646 18.4238L18.7646 20.9238C18.6106 21.02 18.4166 21.0254 18.2578 20.9375C18.0989 20.8494 18 20.6817 18 20.5V19C16.8954 19 16 19.8955 16 21V23H14V21C14 18.7909 15.7909 17 18 17V15.5L18.0049 15.4326C18.026 15.2777 18.1188 15.1396 18.2578 15.0625Z" fill="#000000"/>
<path d="M18 3C19.1045 3.00006 20 3.89547 20 5V14H5.70408L3.91892 19H12V21H3.91892C2.53602 20.9998 1.57004 19.6295 2.03513 18.3271L3.99998 12.8271V5C3.99998 3.8955 4.8955 3.00011 5.99998 3H18ZM5.99998 12H18V5H5.99998V12Z" fill="#000000"/>
<path d="M14 18H8.99998L9.50095 16H14V18Z" fill="#000000"/>
</svg>
