<svg xmlns="http://www.w3.org/2000/svg" width="20" height="20" viewBox="0 0 20 20" fill="none"><rect width="20" height="20" fill="none"/>
<path d="M10 2C10.4142 2 10.75 2.33579 10.75 2.75V3C10.75 6.45178 13.5482 9.25 17 9.25H17.25C17.6642 9.25 18 9.58579 18 10C18 10.4142 17.6642 10.75 17.25 10.75H17C13.5482 10.75 10.75 13.5482 10.75 17V17.25C10.75 17.6642 10.4142 18 10 18C9.58579 18 9.25 17.6642 9.25 17.25V17C9.25 13.5482 6.45178 10.75 3 10.75H2.75C2.33579 10.75 2 10.4142 2 10C2 9.58579 2.33579 9.25 2.75 9.25H3C6.45178 9.25 9.25 6.45178 9.25 3V2.75C9.25 2.33579 9.58579 2 10 2ZM10 6.32715C9.23498 7.93382 7.93382 9.23498 6.32715 10C7.93355 10.7649 9.23493 12.0656 10 13.6719C10.7649 12.0658 12.0658 10.7649 13.6719 10C12.0656 9.23493 10.7649 7.93355 10 6.32715Z" fill="#000000"/>
</svg>
