<svg xmlns="http://www.w3.org/2000/svg" width="24" height="24" viewBox="0 0 24 24" fill="none"><rect width="24" height="24" fill="none"/>
<path d="M16.5 4.25C19.4656 4.25 21.75 6.63911 21.75 10C21.75 12.3133 20.602 14.3227 19.0205 15.9463L19 16L18.9482 16.0215C18.8189 16.1522 18.6882 16.2817 18.5537 16.4072C16.7307 18.1082 14.3902 19.4047 12.2637 20.2021C12.0939 20.2658 11.9061 20.2658 11.7363 20.2021C9.66484 19.4253 7.32486 18.1293 5.48926 16.4248C3.65972 14.7259 2.25 12.5409 2.25 10C2.25001 6.63909 4.53442 4.25 7.5 4.25C9.27634 4.25 10.8719 5.1685 12 6.49609C13.1281 5.16851 14.7237 4.25 16.5 4.25Z" fill="#000000"/>
</svg>
