<svg xmlns="http://www.w3.org/2000/svg" width="24" height="24" viewBox="0 0 24 24" fill="none"><rect width="24" height="24" fill="none"/>
<path d="M12 2C13.1046 2 14 2.89543 14 4C14 4.73976 13.5971 5.3835 13 5.72949V8H17C19.2091 8 21 9.79086 21 12V18C21 20.2091 19.2091 22 17 22H7C4.79086 22 3 20.2091 3 18V12C3 9.79086 4.79086 8 7 8H11V5.72949C10.4029 5.3835 10 4.73976 10 4C10 2.89543 10.8954 2 12 2ZM8 12C7.17157 12 6.5 12.6716 6.5 13.5C6.5 14.3284 7.17157 15 8 15C8.82843 15 9.5 14.3284 9.5 13.5C9.5 12.6716 8.82843 12 8 12ZM16 12C15.1716 12 14.5 12.6716 14.5 13.5C14.5 14.3284 15.1716 15 16 15C16.8284 15 17.5 14.3284 17.5 13.5C17.5 12.6716 16.8284 12 16 12Z" fill="#000000"/>
</svg>
