<svg xmlns="http://www.w3.org/2000/svg" width="20" height="20" viewBox="0 0 20 20" fill="none"><rect width="20" height="20" fill="none"/>
<path d="M12.8262 1.99951C14.8571 1.99955 16.616 3.41047 17.0566 5.39307L18.0254 9.75439C18.3955 11.4198 17.1279 12.9995 15.4219 12.9995H13.7471L13.8906 13.647C14.3329 15.6372 12.987 17.5832 10.9688 17.8716L10.1416 17.9897C9.64689 18.0604 9.17537 17.7544 9.03809 17.2739L8.7002 16.0913C8.29952 14.6893 7.62478 13.3803 6.71387 12.2417L6.51953 11.9995H4C2.89543 11.9995 2 11.1041 2 9.99951V3.99951C2.00005 2.89498 2.89546 1.99951 4 1.99951H12.8262ZM8 3.99951V10.6489L8.27539 10.9927C9.35203 12.3385 10.1505 13.8853 10.624 15.5425L10.7207 15.8843C11.5662 15.7435 12.1255 14.922 11.9385 14.0806L11.5234 12.2163C11.4577 11.9203 11.53 11.6101 11.7197 11.3735C11.9095 11.137 12.1967 10.9995 12.5 10.9995H15.4219C15.8484 10.9995 16.1658 10.6043 16.0732 10.188L15.1035 5.82666C14.8662 4.75919 13.9197 3.99955 12.8262 3.99951H8ZM4 3.99951V9.99951H6V3.99951H4Z" fill="#000000"/>
</svg>
