<svg xmlns="http://www.w3.org/2000/svg" width="20" height="20" viewBox="0 0 20 20" fill="none"><rect width="20" height="20" fill="none"/>
<path d="M10.4697 10.4697C10.6776 10.2618 10.9884 10.1947 11.2637 10.2979L19.2637 13.2979C19.5501 13.4055 19.7428 13.6765 19.75 13.9824C19.757 14.2885 19.5772 14.5687 19.2959 14.6895L16.0713 16.0713L14.6895 19.2959C14.5687 19.5772 14.2885 19.757 13.9824 19.75C13.6765 19.7427 13.4054 19.5501 13.2979 19.2637L10.2979 11.2637C10.1947 10.9884 10.2619 10.6776 10.4697 10.4697ZM14.0459 16.9873L14.9297 14.9287L16.9873 14.0459L12.2812 12.2812L14.0459 16.9873Z" fill="#000000"/>
<path d="M14.75 2.5C16.2687 2.50011 17.5 3.73128 17.5 5.25V10H16V5.25C16 4.55971 15.4403 4.00011 14.75 4H5.25C4.55964 4 4 4.55964 4 5.25V14.75C4.00011 15.4403 4.55971 16 5.25 16H10V17.5H5.25C3.73128 17.5 2.50011 16.2687 2.5 14.75V5.25C2.5 3.73122 3.73122 2.5 5.25 2.5H14.75Z" fill="#000000"/>
<path d="M9.03711 10.4512H6V8.95117H9.03711V10.4512Z" fill="#000000"/>
<path d="M13 7.45117H6V5.95117H13V7.45117Z" fill="#000000"/>
</svg>
