<svg xmlns="http://www.w3.org/2000/svg" width="24" height="24" viewBox="0 0 24 24" fill="none"><rect width="24" height="24" fill="none"/>
<path d="M17.3164 2.05176L17.4697 2.10254C19.5599 2.79928 21.2007 4.44007 21.8975 6.53027L21.9482 6.68359L22.1211 7.2002L19.9893 9.86426C18.7526 11.4102 18.2103 13.3986 18.4902 15.3584L18.5605 15.8535L15.2598 19.1543L14.3262 18.8213C12.5137 18.1737 10.8667 17.1954 9.4541 15.959L3.70703 21.707L2.29297 20.293L8.03906 14.5459C6.71822 13.0388 5.69339 11.2656 5.0498 9.31348L4.85742 8.72852L8.14648 5.43945L8.6416 5.50977C10.6014 5.7897 12.5898 5.24737 14.1357 4.01074L16.7998 1.87891L17.3164 2.05176ZM15.3857 5.57227C13.5419 7.04733 11.2058 7.74914 8.86621 7.54688L7.1543 9.25879C8.48591 12.7472 11.244 15.5089 14.7432 16.8418L16.4521 15.1328C16.2502 12.7936 16.9529 10.4578 18.4277 8.61426L19.8672 6.81348C19.3602 5.60208 18.3971 4.63849 17.1855 4.13184L15.3857 5.57227Z" fill="#000000"/>
</svg>
