<svg xmlns="http://www.w3.org/2000/svg" width="20" height="20" viewBox="0 0 20 20" fill="none"><rect width="20" height="20" fill="none"/>
<path d="M13.5 10.5C15.1569 10.5 16.5 11.8431 16.5 13.5C16.5 15.1569 15.1569 16.5 13.5 16.5C11.8431 16.5 10.5 15.1569 10.5 13.5C10.5 11.8431 11.8431 10.5 13.5 10.5ZM13.5 12.5C12.9477 12.5 12.5 12.9477 12.5 13.5C12.5 14.0523 12.9477 14.5 13.5 14.5C14.0523 14.5 14.5 14.0523 14.5 13.5C14.5 12.9477 14.0523 12.5 13.5 12.5Z" fill="#000000"/>
<path d="M15.7402 5.17285L5.74023 16.1729L4.25977 14.8271L14.2598 3.82715L15.7402 5.17285Z" fill="#000000"/>
<path d="M6.5 3.5C8.15685 3.5 9.5 4.84315 9.5 6.5C9.5 8.15685 8.15685 9.5 6.5 9.5C4.84315 9.5 3.5 8.15685 3.5 6.5C3.5 4.84315 4.84315 3.5 6.5 3.5ZM6.5 5.5C5.94772 5.5 5.5 5.94772 5.5 6.5C5.5 7.05228 5.94772 7.5 6.5 7.5C7.05228 7.5 7.5 7.05228 7.5 6.5C7.5 5.94772 7.05228 5.5 6.5 5.5Z" fill="#000000"/>
</svg>
