<svg xmlns="http://www.w3.org/2000/svg" width="20" height="20" viewBox="0 0 20 20" fill="none"><rect width="20" height="20" fill="none"/>
<path d="M13.7192 2.71967C14.7023 1.73654 16.2965 1.7368 17.2798 2.71967C18.263 3.70291 18.263 5.29696 17.2798 6.28021L14.0298 9.53021C13.7369 9.82296 13.2621 9.82306 12.9692 9.53021L12.2495 8.81049L10.06 10.9999L12.5298 13.4697C12.7119 13.6518 12.7879 13.9148 12.7309 14.166C12.6737 14.4172 12.4916 14.6225 12.2485 14.7079L2.99852 17.9579C2.72649 18.0534 2.42308 17.9841 2.21922 17.7802C2.01558 17.5763 1.94598 17.2729 2.04149 17.0009L5.29149 7.75092L5.32958 7.66302C5.42933 7.46467 5.61383 7.31862 5.83348 7.26849C6.08453 7.21151 6.34761 7.28777 6.52977 7.46967L8.9995 9.93939L11.189 7.74994L10.4692 7.03021C10.1768 6.73734 10.1766 6.26244 10.4692 5.96967L13.7192 2.71967ZM3.97508 16.0234L10.6255 13.6865L6.312 9.37299L3.97508 16.0234ZM16.2192 3.78021C15.8217 3.38314 15.1771 3.38288 14.7798 3.78021L12.06 6.49994L13.4995 7.93939L16.2192 5.21967C16.6167 4.8222 16.6167 4.17767 16.2192 3.78021Z" fill="#000000"/>
</svg>
