<svg xmlns="http://www.w3.org/2000/svg" width="24" height="24" viewBox="0 0 24 24" fill="none"><rect width="24" height="24" fill="none"/>
<path d="M10.6973 2.08517C13.103 1.76916 15.5426 2.33891 17.5596 3.68771C19.5763 5.03654 21.0343 7.07337 21.6611 9.41721C22.2878 11.7611 22.0402 14.2536 20.9658 16.4289C19.8911 18.6044 18.0618 20.3156 15.8193 21.2424C13.5767 22.1691 11.0734 22.2483 8.77637 21.466C7.42553 21.006 6.20144 20.2648 5.1748 19.3059L4.51855 19.9631C4.38836 20.0933 4.19676 20.1412 4.02051 20.0881C3.84413 20.0346 3.71099 19.888 3.6748 19.7072L2.9668 16.1721C2.93421 16.0084 2.98554 15.838 3.10352 15.7199C3.2217 15.6019 3.39187 15.5505 3.55566 15.5832L7.09082 16.2903C7.27136 16.3264 7.41804 16.4599 7.47168 16.636C7.52481 16.8121 7.47665 17.0037 7.34668 17.134L6.58887 17.8908C7.39989 18.636 8.36175 19.2127 9.4209 19.5735C11.2585 20.1992 13.2616 20.1351 15.0557 19.3938C16.8495 18.6523 18.3131 17.2834 19.1729 15.5432C20.0322 13.803 20.2298 11.8088 19.7285 9.93381C19.227 8.05883 18.0606 6.42982 16.4473 5.3508C14.8337 4.27179 12.8826 3.81577 10.958 4.06857C9.03349 4.3214 7.26645 5.26574 5.98633 6.72482C4.70632 8.18398 4.00017 10.0592 4 12.0002H2C2.00017 9.5739 2.88238 7.22948 4.48242 5.40549C6.08254 3.58164 8.29166 2.40125 10.6973 2.08517Z" fill="#000000"/>
<path d="M13 11.5862L15.707 14.2932L14.293 15.7072L11 12.4143V7.00021H13V11.5862Z" fill="#000000"/>
</svg>
