<svg xmlns="http://www.w3.org/2000/svg" width="20" height="20" viewBox="0 0 20 20" fill="none"><rect width="20" height="20" fill="none"/>
<path d="M9 14H7.5V8H9V14Z" fill="#000000"/>
<path d="M12.5 14H11V8H12.5V14Z" fill="#000000"/>
<path d="M11 1C12.5188 1 13.75 2.23122 13.75 3.75V4C15.2688 4 16.5 5.23122 16.5 6.75V15.25C16.5 16.7688 15.2688 18 13.75 18V19H12.25V18H7.75V19H6.25V18C4.73122 18 3.5 16.7688 3.5 15.25V6.75C3.5 5.23122 4.73122 4 6.25 4V3.75C6.25 2.23122 7.48122 1 9 1H11ZM6.25 5.5C5.55964 5.5 5 6.05964 5 6.75V15.25C5 15.9404 5.55964 16.5 6.25 16.5H13.75C14.4404 16.5 15 15.9404 15 15.25V6.75C15 6.05964 14.4404 5.5 13.75 5.5H6.25ZM9 2.5C8.30964 2.5 7.75 3.05964 7.75 3.75V4H12.25V3.75C12.25 3.05964 11.6904 2.5 11 2.5H9Z" fill="#000000"/>
</svg>
