<svg xmlns="http://www.w3.org/2000/svg" width="20" height="20" viewBox="0 0 20 20" fill="none"><rect width="20" height="20" fill="none"/>
<path d="M11.1674 1.95289C12.3059 1.71943 13.5521 1.76501 14.5219 2.24977L14.6976 3.93629L12.0424 6.06129L13.9974 8.01735L16.1332 5.34743L17.7963 5.52614C18.2854 6.50442 18.3226 7.75166 18.0853 8.88844C17.8442 10.0429 17.2902 11.2367 16.4125 12.1297C15.8413 12.7107 15.174 13.199 14.3041 13.4929C13.4429 13.7838 12.4518 13.8608 11.264 13.7322C11.2466 13.7303 11.2328 13.7335 11.225 13.7361L11.2201 13.7371L7.69373 17.2976C6.33949 18.6644 4.14331 18.6698 2.7826 17.3093C1.40999 15.9365 1.41007 13.6977 2.7826 12.325L6.30506 8.8025C6.30257 8.805 6.3036 8.80471 6.30604 8.79762C6.30882 8.78931 6.31275 8.77439 6.31092 8.75563C6.19571 7.57659 6.28543 6.59532 6.5824 5.74C6.88144 4.87893 7.36511 4.2161 7.92713 3.6443C8.81272 2.74332 10.0128 2.18971 11.1674 1.95289ZM11.4916 3.93727C10.6641 4.11996 9.87875 4.51263 9.34217 5.05836C8.92642 5.48133 8.63799 5.8982 8.46229 6.40407C8.28464 6.91572 8.19668 7.59029 8.29139 8.55934C8.34908 9.15033 8.16159 9.77486 7.7074 10.2293L4.18494 13.7507C3.59806 14.3377 3.59813 15.2955 4.18494 15.8826C4.76676 16.4642 5.7055 16.462 6.28455 15.8777L9.81092 12.3181C10.2642 11.8606 10.8874 11.6722 11.4769 11.7361C12.4661 11.8432 13.154 11.7633 13.6713 11.5886C14.1796 11.4169 14.5906 11.1305 14.9984 10.7156C15.538 10.1666 15.9281 9.38377 16.1146 8.56911L15.5472 9.27809C14.8063 10.2043 13.4342 10.2809 12.5961 9.44313L10.64 7.48805C9.79242 6.64045 9.86922 5.23625 10.8041 4.48805L11.4916 3.93727Z" fill="#000000"/>
</svg>
