<svg xmlns="http://www.w3.org/2000/svg" width="20" height="20" viewBox="0 0 20 20" fill="none"><rect width="20" height="20" fill="none"/>
<path d="M14 4.59863L16.1299 6.01855L16.2119 6.2627L17.834 11.1309C18.4272 12.9113 17.1022 14.7497 15.2256 14.75H14V16.5H16V18H3V16.5H4V3.75C4 2.7835 4.7835 2 5.75 2H14V4.59863ZM5.5 16.5H12.5V7.75H5.5V16.5ZM14 13.25H15.2256C16.0786 13.2497 16.6809 12.4138 16.4111 11.6045L14.8691 6.98047L14 6.40039V13.25ZM5.75 3.5C5.61193 3.5 5.5 3.61193 5.5 3.75V6.25H12.5V3.5H5.75Z" fill="#000000"/>
</svg>
