<svg xmlns="http://www.w3.org/2000/svg" width="20" height="20" viewBox="0 0 20 20" fill="none"><rect width="20" height="20" fill="none"/>
<path d="M18.707 17.293L17.293 18.707L14.5234 15.9375C13.4239 17.2004 11.8062 18 10 18C6.68629 18 4 15.3137 4 12V8C4 7.2317 4.14495 6.49737 4.4082 5.82227L1.29297 2.70703L2.70703 1.29297L18.707 17.293ZM6.03906 7.45312C6.01455 7.632 6 7.81438 6 8V12C6 14.2091 7.79086 16 10 16C11.2541 16 12.3695 15.4199 13.1025 14.5166L6.03906 7.45312Z" fill="#000000"/>
<path d="M10 2C13.3137 2 16 4.68629 16 8V12C16 12.0277 15.9974 12.0554 15.9971 12.083L14 10.0859V8C14 5.79086 12.2091 4 10 4C9.39009 4 8.81218 4.13674 8.29492 4.38086L6.82324 2.90918C7.74451 2.33308 8.83334 2 10 2Z" fill="#000000"/>
<path d="M10 5C10.5523 5 11 5.44772 11 6V7.08594L9.25195 5.33789C9.43516 5.13106 9.70197 5 10 5Z" fill="#000000"/>
</svg>
