<svg xmlns="http://www.w3.org/2000/svg" width="24" height="24" viewBox="0 0 24 24" fill="none"><rect width="24" height="24" fill="none"/>
<path d="M19 13C19.4142 13 19.75 13.3358 19.75 13.75V14C19.75 15.7949 21.2051 17.25 23 17.25H23.25C23.6642 17.25 24 17.5858 24 18C24 18.4142 23.6642 18.75 23.25 18.75H23C21.2051 18.75 19.75 20.2051 19.75 22V22.25C19.75 22.6642 19.4142 23 19 23C18.5858 23 18.25 22.6642 18.25 22.25V22C18.25 20.2051 16.7949 18.75 15 18.75H14.75C14.3358 18.75 14 18.4142 14 18C14 17.5858 14.3358 17.25 14.75 17.25H15C16.7949 17.25 18.25 15.7949 18.25 14V13.75C18.25 13.3358 18.5858 13 19 13Z" fill="#000000"/>
<path d="M12 2C13.6569 2 15 3.34314 15 5V7H17C18.6568 7 20 8.34317 20 10V11H18V10C18 9.44774 17.5523 9 17 9H13V5C13 4.44771 12.5523 4 12 4H6V20H12V22H4V2H12Z" fill="#000000"/>
</svg>
