<svg xmlns="http://www.w3.org/2000/svg" width="24" height="24" viewBox="0 0 24 24" fill="none"><rect width="24" height="24" fill="none"/>
<path d="M22 23H14V21H22V23Z" fill="#000000"/>
<path d="M17 3C19.2091 3 21 4.79086 21 7V11H19V7C19 5.89543 18.1046 5 17 5H7C5.89543 5 5 5.89543 5 7V17C5 18.1046 5.89543 19 7 19H12V21H7C4.79086 21 3 19.2091 3 17V7C3 4.79086 4.79086 3 7 3H17Z" fill="#000000"/>
<path d="M22 20H14V18H22V20Z" fill="#000000"/>
<path d="M21.7578 14.9658L14.2578 16.9658L13.7422 15.0342L21.2422 13.0342L21.7578 14.9658Z" fill="#000000"/>
<path d="M12 13H7V11H12V13Z" fill="#000000"/>
<path d="M16 9H7V7H16V9Z" fill="#000000"/>
</svg>
