<svg xmlns="http://www.w3.org/2000/svg" width="24" height="24" viewBox="0 0 24 24" fill="none"><rect width="24" height="24" fill="none"/>
<path d="M20 14C21.6569 14 23 15.3431 23 17C23 18.6569 21.6569 20 20 20H19V21H21V22H19V23H17V22H16V21H17V20H16V18H17V14H20ZM19 18H20C20.5523 18 21 17.5523 21 17C21 16.4477 20.5523 16 20 16H19V18Z" fill="#000000"/>
<path d="M12 13C13.1193 13 14.1188 13.1034 15 13.3242V15.4092C14.2418 15.1486 13.2667 15 12 15C9.32507 15 7.9486 15.6554 7.1748 16.6523C6.34938 17.7159 6 19.4158 6 22H4C4 19.3558 4.33023 17.0551 5.59473 15.4258C6.91081 13.7302 9.03458 13 12 13Z" fill="#000000"/>
<path d="M12 2C14.7614 2 17 4.23858 17 7C17 9.76142 14.7614 12 12 12C9.23858 12 7 9.76142 7 7C7 4.23858 9.23858 2 12 2ZM12 4C10.3431 4 9 5.34315 9 7C9 8.65685 10.3431 10 12 10C13.6569 10 15 8.65685 15 7C15 5.34315 13.6569 4 12 4Z" fill="#000000"/>
</svg>
