<svg xmlns="http://www.w3.org/2000/svg" width="20" height="20" viewBox="0 0 20 20" fill="none"><rect width="20" height="20" fill="none"/>
<path d="M16.5 2C17.3284 2 18 2.67157 18 3.5C18 4.2254 17.4851 4.83044 16.8008 4.96973L14.6211 11.5068C14.8558 11.7716 15 12.1184 15 12.5C15 13.3284 14.3284 14 13.5 14C12.6716 14 12 13.3284 12 12.5C12 12.3658 12.0187 12.2361 12.0518 12.1123L7.88672 7.94727C7.82995 7.9624 7.7721 7.974 7.71289 7.98242L4.67773 15.5732C4.87887 15.8285 5 16.1498 5 16.5C5 17.3284 4.32843 18 3.5 18C2.67157 18 2 17.3284 2 16.5C2 15.7446 2.5586 15.1209 3.28516 15.0166L6.32129 7.42578C6.12066 7.17069 6 6.84971 6 6.5C6 5.67157 6.67157 5 7.5 5C8.32843 5 9 5.67157 9 6.5C9 6.63393 8.9802 6.76316 8.94727 6.88672L13.1123 11.0518C13.1408 11.0442 13.1691 11.0352 13.1982 11.0293L15.3779 4.49219C15.1438 4.22758 15 3.88112 15 3.5C15 2.67157 15.6716 2 16.5 2Z" fill="#000000"/>
</svg>
