<svg xmlns="http://www.w3.org/2000/svg" width="20" height="20" viewBox="0 0 20 20" fill="none"><rect width="20" height="20" fill="none"/>
<path d="M14.9998 7.0017C16.6566 7.0018 17.9998 8.34491 17.9998 10.0017V15.0017C17.9995 16.6582 16.6564 18.0016 14.9998 18.0017H9.9998L9.84551 17.9978C8.2606 17.9174 7.00008 16.6065 6.9998 15.0017V10.0017C6.9998 8.3449 8.34302 7.00178 9.9998 7.0017H14.9998ZM9.9998 9.0017C9.44759 9.00178 8.9998 9.44947 8.9998 10.0017V15.0017C9.00009 15.5537 9.44777 16.0016 9.9998 16.0017H14.9998C15.5518 16.0016 15.9995 15.5537 15.9998 15.0017V10.0017C15.9998 9.44948 15.552 9.0018 14.9998 9.0017H9.9998Z" fill="#000000"/>
<path d="M8.26347 1.05932C8.42604 0.972343 8.62374 0.981459 8.77715 1.08373L11.7771 3.08373C11.9159 3.17651 11.9998 3.33279 11.9998 3.49975C11.9996 3.66665 11.916 3.82316 11.7771 3.91576L8.77715 5.91576C8.62391 6.01786 8.42591 6.02685 8.26347 5.94018C8.10138 5.8532 8.00006 5.68369 7.9998 5.49975V4.531C7.28679 4.61082 6.6004 4.85825 5.9998 5.25951C5.25989 5.75396 4.68315 6.45688 4.34258 7.27904C4.00219 8.10115 3.91313 9.00595 4.08672 9.87865C4.26045 10.7513 4.68901 11.5532 5.31816 12.1824L3.90312 13.5974C2.99435 12.6886 2.37575 11.5297 2.1248 10.2693C1.87402 9.00853 2.00307 7.70105 2.49492 6.51342C2.98686 5.32582 3.81969 4.31063 4.88847 3.59643C5.81835 2.97515 6.89031 2.60487 7.9998 2.51928V1.49975C7.9998 1.31557 8.10123 1.14642 8.26347 1.05932Z" fill="#000000"/>
</svg>
