<svg xmlns="http://www.w3.org/2000/svg" width="20" height="20" viewBox="0 0 20 20" fill="none"><rect width="20" height="20" fill="none"/>
<g clip-path="url(#clip0_147603_36092)">
<path d="M10.7929 10.7939C11.0607 10.5263 11.4572 10.4332 11.8164 10.5527L19.3164 13.0527C19.7096 13.1842 19.9815 13.5448 19.999 13.959C20.0159 14.3734 19.7748 14.7564 19.3935 14.9199L16.2617 16.2617L14.9189 19.3945C14.7552 19.7756 14.3724 20.0171 13.958 20C13.5439 19.9824 13.1833 19.7103 13.0517 19.3174L10.5517 11.8174C10.4322 11.4583 10.5255 11.0617 10.7929 10.7939Z" fill="#000000"/>
<path d="M7.0654 7.90723C8.51076 7.31659 11.4908 7.31482 12.9355 7.90723L13.4248 8.11133C13.5818 8.17938 13.7322 8.24847 13.872 8.31836C14.106 8.43533 14.3299 8.56989 14.54 8.71973C14.6471 8.7961 14.7502 8.8777 14.8506 8.96191C15.3195 9.35552 15.711 9.83268 16.0078 10.3682L12.291 9.12988L12.122 9.08008C11.3283 8.87627 10.4825 9.07503 9.86227 9.61328L9.73239 9.73438C9.06285 10.4044 8.83001 11.3948 9.12887 12.292L11.0312 18H6.97751C4.32009 18 2.40101 15.4565 3.13083 12.9014L3.55563 11.417C3.88504 10.2644 4.61561 9.27541 5.60446 8.62109C5.69922 8.5584 5.79609 8.49779 5.89547 8.44141L6.12692 8.31836L6.13766 8.3125C6.27403 8.24471 6.421 8.17851 6.57419 8.1123L7.0654 7.90723Z" fill="#000000"/>
<path d="M10.0048 2C11.0521 2.00009 12.0576 2.2953 12.7675 2.56543C13.1294 2.70315 13.4321 2.84096 13.6455 2.94531C13.7521 2.99747 13.8379 3.04201 13.8984 3.07422C13.9285 3.09025 13.9532 3.10366 13.9707 3.11328C13.9793 3.11802 13.9868 3.12201 13.9922 3.125C13.9947 3.12643 13.9972 3.12791 13.999 3.12891L14.0009 3.13086H14.0029C14.0029 3.13086 13.9933 3.14886 13.5078 4L14.0029 3.13086C14.2735 3.28543 14.4576 3.55826 14.499 3.86719C14.5403 4.17593 14.4349 4.48668 14.2148 4.70703L12.667 6.25195C11.8316 6.04634 10.8766 5.96271 9.99997 5.96289C9.12601 5.96314 8.17608 6.04745 7.34372 6.25098L5.80075 4.70703C5.58058 4.48669 5.47527 4.17592 5.51657 3.86719C5.55793 3.55862 5.74053 3.28653 6.01071 3.13184L6.01266 3.13086L6.01559 3.12988L6.04294 3.11426C6.06038 3.1046 6.08518 3.09123 6.1152 3.0752C6.17564 3.04292 6.26155 2.99857 6.36813 2.94629C6.58112 2.84184 6.88283 2.70321 7.24411 2.56543C7.95306 2.29512 8.95738 2 10.0048 2Z" fill="#000000"/>
</g>
<defs>
<clipPath id="clip0_147603_36092">
<rect width="20" height="20" fill="white"/>
</clipPath>
</defs>
</svg>
