<svg xmlns="http://www.w3.org/2000/svg" width="20" height="20" viewBox="0 0 20 20" fill="none"><rect width="20" height="20" fill="none"/>
<path d="M18.5303 17.4697L17.4697 18.5303L13.9395 15H12.75C12.75 16.5187 11.5187 17.7499 10 17.75C8.48131 17.7499 7.25 16.5187 7.25 15H5.19336C4.34035 14.9997 3.73795 14.1638 4.00781 13.3545L4.95703 10.5088C4.98582 10.4223 5.00098 10.3314 5.00098 10.2402V7.875C5.00099 7.32966 5.08991 6.80505 5.25488 6.31543L1.46973 2.53027L2.53027 1.46973L18.5303 17.4697ZM8.75 15C8.75 15.6903 9.30974 16.2499 10 16.25C10.6902 16.2499 11.25 15.6903 11.25 15H8.75ZM6.50098 7.875V10.2402C6.50098 10.4928 6.45972 10.7438 6.37988 10.9834L5.54004 13.5H12.4395L6.51562 7.57617C6.50696 7.67466 6.50098 7.77424 6.50098 7.875Z" fill="#000000"/>
<path d="M10.75 3.08008C13.0243 3.49264 14.7498 5.48177 14.75 7.875V10.1914C14.75 10.2995 14.7714 10.4074 14.8115 10.5078L15.6396 12.5791L13.25 10.1895V7.875C13.2498 6.01135 11.7386 4.50019 9.875 4.5C9.21465 4.50008 8.59827 4.68966 8.07812 5.01758L6.99902 3.93848C7.64627 3.46497 8.41552 3.14791 9.25 3.04102V1H10.75V3.08008Z" fill="#000000"/>
</svg>
