<svg xmlns="http://www.w3.org/2000/svg" width="24" height="24" viewBox="0 0 24 24" fill="none"><rect width="24" height="24" fill="none"/>
<path d="M13.3029 5H17.0002C18.6569 5.00022 20.0002 6.34328 20.0002 8V9.0127C21.1497 9.13763 21.9742 10.2282 21.7414 11.3926L20.3019 18.5879C20.0215 19.99 18.7904 20.9998 17.3605 21H6.63984C5.21002 20.9998 3.97889 19.99 3.69843 18.5879L2.25898 11.3926C2.02614 10.2281 2.85058 9.13749 4.00019 9.0127V6C4.00019 4.34333 5.34359 3.0003 7.00019 3H10.3029L13.3029 5ZM5.65937 18.1963C5.75293 18.6634 6.16345 18.9998 6.63984 19H17.3605C17.837 18.9998 18.2474 18.6634 18.341 18.1963L19.7805 11H4.21992L5.65937 18.1963ZM7.00019 5C6.44816 5.0003 6.00019 5.4479 6.00019 6V9H18.0002V8C18.0002 7.44785 17.5523 7.00022 17.0002 7H12.6975L9.69746 5H7.00019Z" fill="#000000"/>
</svg>
