<svg xmlns="http://www.w3.org/2000/svg" width="24" height="24" viewBox="0 0 24 24" fill="none"><rect width="24" height="24" fill="none"/>
<path d="M5.30176 5.50001C6.88225 5.50013 8.34694 6.32935 9.16016 7.68458L13.4121 14.7715C13.6831 15.2232 14.1715 15.4999 14.6982 15.5H16V14C16 13.8199 16.0972 13.6532 16.2539 13.5645C16.4105 13.476 16.6025 13.4789 16.7568 13.5713L21.7568 16.5713C21.9074 16.6617 22 16.8244 22 17C22 17.1538 21.9292 17.2975 21.8105 17.3916L21.7568 17.4287L16.7568 20.4287C16.6025 20.5212 16.4105 20.524 16.2539 20.4356C16.0972 20.3468 16 20.1801 16 20V18.5H14.6982C13.1178 18.4999 11.6531 17.6707 10.8398 16.3154L9.99902 14.9151L9.16016 16.3154C8.34693 17.6707 6.88224 18.4999 5.30176 18.5H3V15.5H5.30176C5.8285 15.4999 6.31685 15.2232 6.58789 14.7715L8.25 11.999L6.58789 9.22853C6.31686 8.77682 5.82852 8.50013 5.30176 8.50001H3V5.50001H5.30176Z" fill="#000000"/>
<path d="M16.2539 3.56447C16.4105 3.476 16.6025 3.47888 16.7568 3.5713L21.7568 6.5713C21.9074 6.66166 22 6.82439 22 7.00001C22 7.15379 21.9292 7.29753 21.8105 7.39162L21.7568 7.42873L16.7568 10.4287C16.6025 10.5212 16.4105 10.524 16.2539 10.4356C16.0972 10.3468 16 10.1801 16 10V8.50001H14.6982C14.1715 8.50013 13.6831 8.77682 13.4121 9.22853L13.04 9.84669L11.3369 7.00783C12.1819 6.05845 13.4012 5.50011 14.6982 5.50001H16V4.00001C16 3.81989 16.0972 3.65322 16.2539 3.56447Z" fill="#000000"/>
</svg>
