<svg xmlns="http://www.w3.org/2000/svg" width="24" height="24" viewBox="0 0 24 24" fill="none"><rect width="24" height="24" fill="none"/>
<path d="M12 2C17.5228 2 22 6.47715 22 12C22 17.5228 17.5228 22 12 22C6.47715 22 2 17.5228 2 12C2 6.47715 6.47715 2 12 2ZM12.293 8.2041L14.5869 10.498L9.99902 10.499C7.79042 10.4997 6.00005 12.2904 6 14.499V15.5H8V14.499C8.00005 13.3949 8.89489 12.4995 9.99902 12.499L14.5859 12.498L12.293 14.79L13.707 16.2041L18.4141 11.4971L13.707 6.79004L12.293 8.2041Z" fill="#000000"/>
</svg>
