<svg xmlns="http://www.w3.org/2000/svg" width="24" height="24" viewBox="0 0 24 24" fill="none"><rect width="24" height="24" fill="none"/>
<path d="M21 14H22.5V16H18.5C18.2239 16 18 16.2239 18 16.5C18 16.7761 18.2239 17 18.5 17H20.5C21.8807 17 23 18.1193 23 19.5C23 20.7094 22.141 21.7175 21 21.9492V23H19V22H16.5V20H20.5C20.7761 20 21 19.7761 21 19.5C21 19.2239 20.7761 19 20.5 19H18.5C17.1193 19 16 17.8807 16 16.5C16 15.1193 17.1193 14 18.5 14H19V13H21V14Z" fill="#000000"/>
<path d="M12 2C17.1853 2 21.4485 5.9467 21.9502 11H16.96C15.38 10.9999 13.9351 10.1075 13.2285 8.69434C12.4833 7.20381 12.7074 5.44192 13.7324 4.18945C13.1745 4.06626 12.595 4 12 4C9.90589 4 8.00019 4.80514 6.57422 6.12207C7.11119 6.33963 7.62701 6.61771 8.11035 6.95605L8.41504 7.16992C10.0583 8.32052 10.4224 10.6031 9.21875 12.208C8.73228 12.8567 8.82826 13.7708 9.43848 14.3047L10.293 15.0518C11.378 16.0012 12 17.3736 12 18.8154V20C12.6907 20 13.3607 19.9116 14 19.7471V21.7988C13.3537 21.93 12.685 22 12 22C11.5772 22 11.161 21.9699 10.752 21.9189C10.7399 21.9174 10.7278 21.9166 10.7158 21.915C10.5577 21.8948 10.4009 21.8704 10.2451 21.8428C10.234 21.8408 10.223 21.8389 10.2119 21.8369C5.54259 20.9937 2 16.9123 2 12C2 10.4137 2.37093 8.91448 3.02832 7.58203C3.07494 7.48754 3.12241 7.39357 3.17188 7.30078C3.20839 7.23232 3.2471 7.16516 3.28516 7.09766C3.31186 7.05024 3.33876 7.00298 3.36621 6.95605C3.43244 6.84293 3.5008 6.73132 3.57129 6.62109C3.6011 6.57443 3.63057 6.52758 3.66113 6.48145C3.69198 6.43492 3.72328 6.38875 3.75488 6.34277C3.80937 6.26343 3.86517 6.18508 3.92188 6.10742C3.97868 6.02968 4.03673 5.95297 4.0957 5.87695C4.1325 5.82949 4.16939 5.78213 4.20703 5.73535C6.03997 3.45815 8.84922 2 12 2ZM5.21191 7.7666C4.44446 8.99458 4 10.4452 4 12C4 15.7276 6.54965 18.8589 10 19.7471V18.8154C10 17.9504 9.62652 17.1273 8.97559 16.5576L8.12109 15.8096C6.72376 14.5867 6.50499 12.4934 7.61914 11.0078C8.14451 10.307 7.98515 9.30992 7.26758 8.80762L6.96289 8.59473C6.42412 8.21763 5.8313 7.94072 5.21191 7.7666ZM15.5703 5.16016C14.7961 5.8053 14.5669 6.89845 15.0176 7.7998C15.3854 8.53539 16.1375 8.99992 16.96 9H19.416C18.7163 7.2719 17.4323 5.84305 15.8066 4.96191L15.5703 5.16016Z" fill="#000000"/>
</svg>
