<svg xmlns="http://www.w3.org/2000/svg" width="24" height="24" viewBox="0 0 24 24" fill="none"><rect width="24" height="24" fill="none"/>
<path d="M23 15.0005C22.9998 15.0851 22.9671 21.5104 18 23.0005C13.0329 21.5104 13.0002 15.0851 13 15.0005L18 13.0005L23 15.0005ZM15.1387 16.2993C15.216 16.7452 15.3344 17.26 15.5156 17.7857C15.97 19.1031 16.7241 20.2671 18 20.8648C19.2759 20.2671 20.03 19.1031 20.4844 17.7857C20.6656 17.26 20.783 16.7452 20.8604 16.2993L18 15.1548L15.1387 16.2993Z" fill="#000000"/>
<path d="M12.5674 3.0005C15.1733 2.06458 17.9195 3.99636 17.9199 6.76515V6.99952H18C20.2089 6.99952 21.9995 8.79077 22 10.9995L20 11.0005C19.9995 9.89631 19.1043 8.99952 18 8.99952H6C4.89571 8.99952 4.00045 9.89534 4 10.9995V16.9995C4.00042 18.1037 4.89569 18.9995 6 18.9995H11V20.9995H6C3.79112 20.9995 2.00042 19.2083 2 16.9995V9.60987C2.00028 7.92256 3.05956 6.41586 4.64746 5.84522L12.5674 3.0005ZM15.9199 6.76515C15.9195 5.38097 14.546 4.41451 13.2432 4.88233L7.34961 6.99952H15.9199V6.76515Z" fill="#000000"/>
</svg>
