<svg xmlns="http://www.w3.org/2000/svg" width="20" height="20" viewBox="0 0 20 20" fill="none"><rect width="20" height="20" fill="none"/>
<path d="M19 12.5C19 12.5 19 17.5 15 19C11 17.5 11 12.5 11 12.5L15 11L19 12.5ZM12.6084 13.498C12.6706 13.8519 12.7677 14.2651 12.917 14.6943C13.2805 15.7394 13.9053 16.7541 15 17.3535C16.0947 16.7541 16.7195 15.7394 17.083 14.6943C17.2323 14.2652 17.3284 13.8519 17.3906 13.498L15 12.6016L12.6084 13.498Z" fill="#000000"/>
<path d="M9 13.2988C7.81128 13.4181 6.85502 13.7601 6.16406 14.3291C5.31575 15.0278 4.75 16.165 4.75 18H3.25C3.25 15.8352 3.93436 14.2222 5.21094 13.1709C6.2306 12.3313 7.54956 11.9155 9 11.791V13.2988Z" fill="#000000"/>
<path d="M10 2C12.2091 2 14 3.79086 14 6C14 8.20914 12.2091 10 10 10C7.79086 10 6 8.20914 6 6C6 3.79086 7.79086 2 10 2ZM10 3.5C8.61929 3.5 7.5 4.61929 7.5 6C7.5 7.38071 8.61929 8.5 10 8.5C11.3807 8.5 12.5 7.38071 12.5 6C12.5 4.61929 11.3807 3.5 10 3.5Z" fill="#000000"/>
</svg>
