<svg xmlns="http://www.w3.org/2000/svg" width="20" height="20" viewBox="0 0 20 20" fill="none"><rect width="20" height="20" fill="none"/>
<path d="M10.7764 6.00369C11.1532 6.04184 11.4482 6.35902 11.4502 6.74587C11.4536 7.48315 11.4965 8.23667 11.5703 8.99978H14.6543L14.7305 9.00369C15.1058 9.04182 15.3993 9.35673 15.4033 9.74197C15.4244 11.8184 16.1417 14.2269 17.1045 16.4998H18V17.9998H2V16.4998H3.36719C4.34305 13.2702 5.03529 9.86511 5.0498 6.74587L5.05469 6.6697C5.0947 6.29304 5.41292 5.99988 5.7998 5.99978H10.7002L10.7764 6.00369ZM6.5332 7.49978C6.42759 10.453 5.79023 13.5653 4.93066 16.4998H11.5693C10.7098 13.5653 10.0724 10.453 9.9668 7.49978H6.5332ZM11.7529 10.4998C12.0474 12.4952 12.5377 14.5302 13.1328 16.4998H15.4805C14.7011 14.5562 14.0828 12.4607 13.9375 10.4998H11.7529Z" fill="#000000"/>
<path d="M9.90234 3.15896C10.8342 1.52827 13.1772 1.5035 14.1436 3.11404C14.5202 3.74046 15.4317 3.73077 15.7949 3.09646L16.3486 2.12771L17.6514 2.87185L17.0977 3.8406C16.1657 5.47063 13.8228 5.4954 12.8564 3.88552C12.4799 3.25844 11.5682 3.26813 11.2051 3.9031L10.6514 4.87185L9.34863 4.12771L9.90234 3.15896Z" fill="#000000"/>
</svg>
