<svg xmlns="http://www.w3.org/2000/svg" width="20" height="20" viewBox="0 0 20 20" fill="none"><rect width="20" height="20" fill="none"/>
<path d="M15.2637 13.0609C15.4262 12.9739 15.6239 12.983 15.7773 13.0853L18.7773 15.0853C18.9162 15.178 19 15.3342 19 15.5013C18.9998 15.6682 18.9162 15.8247 18.7773 15.9173L15.7773 17.9173C15.624 18.0193 15.4261 18.0285 15.2637 17.9417C15.1016 17.8547 15.0002 17.6852 15 17.5013V16.2513C13.7574 16.2513 12.75 17.2587 12.75 18.5013V19.0013H11.25V18.5013C11.25 16.4302 12.929 14.7513 15 14.7513V13.5013C15 13.3172 15.1016 13.148 15.2637 13.0609Z" fill="#000000"/>
<path d="M11.0127 2.90948C12.9708 2.18912 15.0483 3.63866 15.0488 5.72491V6.0003C16.6829 6.02639 17.9996 7.35915 18 8.99933V11.0023H16.5V8.99933C16.4996 8.17127 15.8282 7.49933 15 7.49933H5C4.17184 7.49933 3.50044 8.17127 3.5 8.99933V14.9993C3.50033 15.8275 4.17178 16.4993 5 16.4993H9V17.9993H5C3.34335 17.9993 2.00033 16.6559 2 14.9993V8.31866C2.00041 7.06184 2.78435 5.93738 3.96387 5.50323L11.0127 2.90948ZM13.5488 5.72491C13.5483 4.68218 12.51 3.957 11.5312 4.31671L6.95996 5.99933H13.5488V5.72491Z" fill="#000000"/>
</svg>
