<svg xmlns="http://www.w3.org/2000/svg" width="20" height="20" viewBox="0 0 20 20" fill="none"><rect width="20" height="20" fill="none"/>
<path d="M15 11.5H11V10H15V11.5Z" fill="#000000"/>
<path d="M16 3C17.1046 3 18 3.89543 18 5V13L17.9893 13.2041C17.887 14.2128 17.0357 15 16 15H15V17H13.5V15H6.5V17H5V15H4C2.96435 15 2.113 14.2128 2.01074 13.2041L2 13V5C2 3.89543 2.89543 3 4 3H16ZM4 4.5C3.72386 4.5 3.5 4.72386 3.5 5V13C3.5 13.2761 3.72386 13.5 4 13.5H16C16.2761 13.5 16.5 13.2761 16.5 13V5C16.5 4.72386 16.2761 4.5 16 4.5H4Z" fill="#000000"/>
</svg>
