<svg xmlns="http://www.w3.org/2000/svg" width="20" height="20" viewBox="0 0 20 20" fill="none"><rect width="20" height="20" fill="none"/>
<path d="M11.25 1.5C12.3334 1.5 13.4063 1.7203 14.4072 2.14746C15.408 2.57462 16.318 3.20005 17.084 3.98926C17.3945 4.30922 17.6775 4.65452 17.9336 5.01953L15.8799 5.63574C15.8047 5.54954 15.728 5.46482 15.6484 5.38281C15.0653 4.78198 14.3761 4.30813 13.6221 3.98633C12.8682 3.66461 12.0623 3.5 11.25 3.5C10.4377 3.5 9.63181 3.66461 8.87793 3.98633C8.12392 4.30813 7.43473 4.78198 6.85156 5.38281C6.3413 5.90861 5.92012 6.52274 5.60938 7.19922L5.48047 7.5H11V9H5.0752C5.02581 9.32998 5 9.66422 5 10C5.00002 10.3358 5.02581 10.67 5.0752 11H10V12.5H5.48047L5.60938 12.8008C5.92013 13.4772 6.34129 14.0914 6.85156 14.6172C7.43472 15.218 8.12395 15.6919 8.87793 16.0137C9.63178 16.3354 10.4377 16.5 11.25 16.5C12.0623 16.5 12.8682 16.3354 13.6221 16.0137C14.3761 15.6919 15.0653 15.218 15.6484 14.6172C15.728 14.5352 15.8038 14.4494 15.8789 14.3633L17.9326 14.9795C17.6765 15.3445 17.3945 15.6908 17.084 16.0107C16.318 16.7999 15.408 17.4254 14.4072 17.8525C13.4063 18.2797 12.3334 18.5 11.25 18.5C10.1666 18.5 9.09367 18.2797 8.09277 17.8525C7.09201 17.4254 6.182 16.7999 5.41602 16.0107C4.65003 15.2215 4.04253 14.284 3.62793 13.2529C3.52864 13.006 3.44127 12.7546 3.36523 12.5H1V11H3.05957C3.02147 10.6687 3.00001 10.3349 3 10C3 9.66506 3.02146 9.33132 3.05957 9H1V7.5H3.36523C3.44127 7.24537 3.52865 6.99403 3.62793 6.74707C4.0425 5.71592 4.65004 4.77849 5.41602 3.98926C6.18201 3.20005 7.09198 2.57462 8.09277 2.14746C9.09371 1.7203 10.1666 1.5 11.25 1.5Z" fill="#000000"/>
</svg>
