<svg xmlns="http://www.w3.org/2000/svg" width="20" height="20" viewBox="0 0 20 20" fill="none"><rect width="20" height="20" fill="none"/>
<path d="M16.25 15H17.5C17.6841 15.0001 17.8534 15.1014 17.9404 15.2637C18.0274 15.4262 18.0182 15.624 17.916 15.7773L15.916 18.7773C15.8233 18.9164 15.6671 18.9999 15.5 19C15.3329 19 15.1767 18.9164 15.084 18.7773L13.084 15.7773C12.9817 15.6239 12.9726 15.4263 13.0596 15.2637C13.1467 15.1014 13.3158 15 13.5 15H14.75V12H16.25V15Z" fill="#000000"/>
<path d="M15 3C16.6565 3 17.9999 4.34196 18 5.99902V10H16.5V8.5H3.5V14C3.5 14.8284 4.17157 15.5 5 15.5H11V17H5C3.34315 17 2 15.6569 2 14V6C2 4.34315 3.34315 3 5 3H15ZM5 4.5C4.17157 4.5 3.5 5.17157 3.5 6V7H16.5V5.99902C16.4999 5.17103 15.8287 4.5 15 4.5H5Z" fill="#000000"/>
</svg>
