<svg xmlns="http://www.w3.org/2000/svg" width="20" height="20" viewBox="0 0 20 20" fill="none"><rect width="20" height="20" fill="none"/>
<path d="M6.00012 2C6.17245 2.00004 6.33259 2.08922 6.42395 2.23535L8.92395 6.23535C9.02008 6.38936 9.02552 6.58334 8.93762 6.74219C8.84952 6.9011 8.68182 6.99995 8.50012 7H7.50012V7.33691C7.50012 7.85407 7.76667 8.33526 8.2052 8.60938L13.3849 11.8467C14.7005 12.669 15.5001 14.1116 15.5001 15.6631V17H12.5001V15.6631C12.5001 15.1459 12.2336 14.6647 11.795 14.3906L10.0011 13.2695L8.2052 14.3906C7.76667 14.6647 7.50012 15.1459 7.50012 15.6631V17H4.50012V15.6631C4.50012 14.1116 5.29968 12.669 6.61535 11.8467L7.17004 11.5L6.61535 11.1533C5.29968 10.331 4.50012 8.88844 4.50012 7.33691V7H3.50012C3.31841 6.99996 3.15072 6.9011 3.06262 6.74219C2.9747 6.58334 2.98014 6.38936 3.07629 6.23535L5.57629 2.23535C5.66765 2.08922 5.82778 2.00004 6.00012 2Z" fill="#000000"/>
<path d="M14.0001 2C14.1724 2.00004 14.3326 2.08922 14.4239 2.23535L16.9239 6.23535C17.0201 6.38936 17.0255 6.58334 16.9376 6.74219C16.8495 6.9011 16.6818 6.99995 16.5001 7H15.5001V7.33691C15.5001 8.48314 15.0633 9.56951 14.3048 10.3906L11.6251 8.71582L11.795 8.60938C12.2336 8.33526 12.5001 7.85406 12.5001 7.33691V7H11.5001C11.3184 6.99996 11.1507 6.9011 11.0626 6.74219C10.9747 6.58334 10.9801 6.38936 11.0763 6.23535L13.5763 2.23535C13.6676 2.08922 13.8278 2.00003 14.0001 2Z" fill="#000000"/>
</svg>
