<svg xmlns="http://www.w3.org/2000/svg" width="24" height="24" viewBox="0 0 24 24" fill="none"><rect width="24" height="24" fill="none"/>
<path d="M20 14C21.6569 14 23 15.3431 23 17C23 18.6569 21.6569 20 20 20H19V21H21V22H19V23H17V22H16V21H17V20H16V18H17V14H20ZM19 18H20C20.5523 18 21 17.5523 21 17C21 16.4477 20.5523 16 20 16H19V18Z" fill="#000000"/>
<path d="M18.001 4C19.6574 4.00042 21.0009 5.34348 21.001 7V8.13184L22.001 9.29688V12H20.001V10.0361L19.2422 9.15039L19.001 8.87012V7C19.0009 6.44805 18.5529 6.00042 18.001 6C17.4487 6 17.0011 6.44779 17.001 7V11H9.00098V13H15V15H9.00098V17C9.00098 18.6566 7.65748 19.9996 6.00098 20C4.34412 20 3.00098 18.6569 3.00098 17V15.8682L2.24219 14.9844L2 14.7031V9.29688L2.24219 9.01562L3.00098 8.13086V7C3.00107 5.34322 4.34418 4 6.00098 4C7.65742 4.00042 9.00088 5.34348 9.00098 7V9H15.001V7C15.0011 5.34322 16.3442 4 18.001 4ZM6.00098 6C5.44875 6 5.00107 6.44779 5.00098 7V8.87012L4.75977 9.15039L4.00098 10.0352V13.9639L4.75977 14.8496L5.00098 15.1299V17C5.00098 17.5523 5.44869 18 6.00098 18C6.55291 17.9996 7.00098 17.552 7.00098 17V7C7.00088 6.44805 6.55285 6.00042 6.00098 6Z" fill="#000000"/>
</svg>
