<svg xmlns="http://www.w3.org/2000/svg" width="24" height="24" viewBox="0 0 24 24" fill="none"><rect width="24" height="24" fill="none"/>
<path d="M11.9999 15C12.6902 15 13.2498 15.5597 13.2499 16.25C13.2496 16.9401 12.6901 17.5 11.9999 17.5C11.3098 17.4998 10.7501 16.94 10.7499 16.25C10.75 15.5598 11.3097 15.0001 11.9999 15Z" fill="#000000"/>
<path d="M12.9989 14H10.9989L10.7489 7.99995H13.2489L12.9989 14Z" fill="#000000"/>
<path d="M8.47838 4.93159C9.98861 2.12689 14.011 2.12705 15.5213 4.93159L20.9989 15.1035C22.4337 17.7683 20.5039 20.9998 17.4774 21H6.52232C3.49615 20.9994 1.56632 17.7681 3.00084 15.1035L8.47838 4.93159ZM13.7606 5.87984C13.0054 4.47769 10.9942 4.47753 10.2391 5.87984L4.76158 16.0517C4.04454 17.3839 5.0095 18.9994 6.52232 19H17.4774C18.9906 18.9998 19.9555 17.3841 19.2381 16.0517L13.7606 5.87984Z" fill="#000000"/>
</svg>
