<svg xmlns="http://www.w3.org/2000/svg" width="24" height="24" viewBox="0 0 24 24" fill="none"><rect width="24" height="24" fill="none"/>
<path d="M15 9H17V11H15V13H13V11H11V9H13V7H15V9Z" fill="#000000"/>
<path d="M14 2C18.4183 2 22 5.58172 22 10C22 13.7643 19.3996 16.9194 15.8975 17.7715C14.6533 19.713 12.4771 21 10 21C6.13401 21 3.00001 17.866 3 14C3 11.5232 4.28642 9.34681 6.22754 8.10254C7.07955 4.60031 10.2356 2 14 2ZM6.05469 10.9277C5.39366 11.7754 5 12.8418 5 14C5.00001 16.7614 7.23858 19 10 19C11.1582 19 12.2236 18.6053 13.0713 17.9443C9.39507 17.5192 6.47932 14.6041 6.05469 10.9277ZM14 4C11.7328 4 9.75964 5.2577 8.73926 7.11328L8.60254 7.37695C8.40755 7.77741 8.25768 8.2032 8.15527 8.64746C8.05505 9.0823 8 9.53472 8 10C8 13.3137 10.6863 16 14 16C14.2061 16 14.4096 15.989 14.6104 15.9688C14.6264 15.9671 14.6422 15.9646 14.6582 15.9629C14.8435 15.9427 15.0262 15.9146 15.2061 15.8779C15.4025 15.8378 15.5953 15.7883 15.7842 15.7295C15.95 15.6779 16.1122 15.618 16.2715 15.5527C16.3885 15.5048 16.504 15.4544 16.6172 15.3994C18.6193 14.4271 20 12.3752 20 10C20 6.68629 17.3137 4 14 4Z" fill="#000000"/>
</svg>
