<svg xmlns="http://www.w3.org/2000/svg" width="20" height="20" viewBox="0 0 20 20" fill="none"><rect width="20" height="20" fill="none"/>
<path d="M9.50024 3.06738C10.1622 2.97851 10.8347 2.97871 11.5002 3.06836V1H13.0002V3.42969C13.9728 3.77365 14.8677 4.316 15.6262 5.02637C16.5049 5.8494 17.1691 6.87032 17.5686 8H15.3977C15.1098 7.43568 14.7256 6.92232 14.259 6.48535C13.881 6.13137 13.4572 5.83378 13.0002 5.60059V8H11.5002V5.09277C10.8366 4.97001 10.1591 4.97192 9.50024 5.09375V8H8.00024V5.60352C7.27417 5.97416 6.6354 6.5007 6.13599 7.15137C5.51125 7.96566 5.12628 8.93954 5.02563 9.96094C4.92508 10.9824 5.11269 12.012 5.56665 12.9326C6.02065 13.8532 6.72335 14.6288 7.59497 15.1709C8.46654 15.7128 9.47296 15.9999 10.4993 16H15.9993V18H2.99927V16H5.40259C4.73394 15.3803 4.17948 14.6422 3.77271 13.8174C3.15364 12.562 2.89824 11.1576 3.0354 9.76465C3.17266 8.37192 3.69722 7.04492 4.54907 5.93457C5.40113 4.82424 6.54781 3.97355 7.85767 3.48047C7.90478 3.46274 7.95285 3.44644 8.00024 3.42969V1H9.50024V3.06738Z" fill="#000000"/>
</svg>
