<svg xmlns="http://www.w3.org/2000/svg" width="20" height="20" viewBox="0 0 20 20" fill="none"><rect width="20" height="20" fill="none"/>
<path d="M18.5303 13.5303L13.5 18.5605L10.4697 15.5303L11.5303 14.4697L13.5 16.4395L17.4697 12.4697L18.5303 13.5303Z" fill="#000000"/>
<path d="M10 13.25C8.34004 13.25 7.0393 13.6083 6.16406 14.3291C5.31575 15.0278 4.75 16.165 4.75 18H3.25C3.25 15.8352 3.93436 14.2222 5.21094 13.1709C6.46068 12.1418 8.16006 11.75 10 11.75V13.25Z" fill="#000000"/>
<path d="M10 2C12.2091 2 14 3.79086 14 6C14 8.20914 12.2091 10 10 10C7.79086 10 6 8.20914 6 6C6 3.79086 7.79086 2 10 2ZM10 3.5C8.61929 3.5 7.5 4.61929 7.5 6C7.5 7.38071 8.61929 8.5 10 8.5C11.3807 8.5 12.5 7.38071 12.5 6C12.5 4.61929 11.3807 3.5 10 3.5Z" fill="#000000"/>
</svg>
