<svg xmlns="http://www.w3.org/2000/svg" width="20" height="20" viewBox="0 0 20 20" fill="none"><rect width="20" height="20" fill="none"/>
<path d="M14.8823 2C15.6397 2.00018 16.3327 2.42808 16.6714 3.10547L17.7896 5.3418C17.9283 5.6194 18.0005 5.92599 18.0005 6.23633V7.23047C18.0004 8.15035 17.6156 8.9797 17.0005 9.57129V18H11.0005V14.8926C11.0003 14.3357 10.5485 13.8842 9.9917 13.8838C9.43453 13.8838 8.98215 14.3355 8.98193 14.8926V18H3.00049V9.5918C2.38498 9.00042 1.99951 8.17098 1.99951 7.25V7L2.00049 6.23633C2.00049 5.92592 2.07264 5.61945 2.21143 5.3418L3.32959 3.10547C3.66842 2.42804 4.3612 2 5.11865 2H14.8823ZM12.4321 9.50684C11.7959 10.1217 10.9298 10.4999 9.98291 10.5C9.05117 10.4999 8.19643 10.1297 7.56689 9.52637C6.97723 10.1265 6.15731 10.5 5.24951 10.5C5.16569 10.5 5.08271 10.4955 5.00049 10.4893V16H6.98193V14.8926C6.98215 13.2309 8.32996 11.8838 9.9917 11.8838C11.6531 11.8842 13.0003 13.2311 13.0005 14.8926V16H15.0005V10.4697C14.9272 10.4753 14.8534 10.4798 14.7788 10.4805C13.8602 10.4885 13.0283 10.1138 12.4321 9.50684ZM4.00049 6.23633L3.99951 7V7.25C3.99951 7.94022 4.55934 8.49978 5.24951 8.5C5.93987 8.5 6.49951 7.94036 6.49951 7.25V7H8.49951V7.03809C8.49978 7.83481 9.16484 8.49986 9.98291 8.5C10.8201 8.49974 11.5005 7.81931 11.5005 7H13.5005V7.23047C13.5006 7.9249 14.0668 8.48644 14.7612 8.48047C15.447 8.47419 16.0003 7.91625 16.0005 7.23047V6.23633L14.8823 4H5.11865L4.00049 6.23633Z" fill="#000000"/>
</svg>
