<svg xmlns="http://www.w3.org/2000/svg" width="20" height="20" viewBox="0 0 20 20" fill="none"><rect width="20" height="20" fill="none"/>
<path d="M16.5 9.9999C16.4999 13.5897 13.5898 16.4999 10 16.4999V17.4999C9.99993 17.6816 9.90111 17.8493 9.74219 17.9374C9.58336 18.0253 9.38934 18.0198 9.23535 17.9237L5.23535 15.4237C5.08922 15.3324 5.00007 15.1722 5 14.9999C5 14.8275 5.08921 14.6674 5.23535 14.5761L9.23535 12.0761C9.38938 11.9799 9.58331 11.9745 9.74219 12.0624C9.90111 12.1505 10 12.3182 10 12.4999V13.4999C11.9329 13.4999 13.4999 11.9328 13.5 9.9999H16.5Z" fill="#000000"/>
<path d="M10.2578 2.0624C10.4167 1.97445 10.6106 1.97989 10.7646 2.07607L14.7646 4.57607C14.9108 4.66745 15 4.82754 15 4.9999C14.9999 5.17222 14.9108 5.33239 14.7646 5.42373L10.7646 7.92373C10.6107 8.01984 10.4166 8.02528 10.2578 7.9374C10.0989 7.84932 10.0001 7.68158 10 7.4999V6.4999C8.067 6.4999 6.5 8.0669 6.5 9.9999H3.5C3.5 6.41005 6.41015 3.4999 10 3.4999V2.4999C10 2.31817 10.0989 2.15052 10.2578 2.0624Z" fill="#000000"/>
</svg>
