<svg xmlns="http://www.w3.org/2000/svg" width="20" height="20" viewBox="0 0 20 20" fill="none"><rect width="20" height="20" fill="none"/>
<path d="M14.75 2C15.9926 2 17 3.00736 17 4.25V9.25C17 10.4926 15.9926 11.5 14.75 11.5H12.5889L11.8379 13.001L12.5068 14.3398C13.0453 13.5375 13.9612 13.0098 15 13.0098C16.6569 13.0098 18 14.3529 18 16.0098C18 17.6666 16.6569 19.0098 15 19.0098C13.7176 19.0098 12.6255 18.2042 12.1963 17.0723L10.999 14.6768L9.79199 17.0918C9.35509 18.2082 8.27125 19 7 19C5.34315 19 4 17.6569 4 16C4 14.3431 5.34315 13 7 13C8.0402 13 8.95598 13.5299 9.49414 14.334L10.1602 13L7.49902 7.67676C7.12867 6.93605 7.42899 6.03496 8.16992 5.66504L10.3379 10H14.75C15.1642 10 15.5 9.66421 15.5 9.25V7H11V5.5H15.5V4.25C15.5 3.83579 15.1642 3.5 14.75 3.5H5.25C4.83579 3.5 4.5 3.83579 4.5 4.25V9.25C4.5 9.66421 4.83579 10 5.25 10H6.76953V11.5H5.25C4.00736 11.5 3 10.4926 3 9.25V4.25C3 3.00736 4.00736 2 5.25 2H14.75ZM15 14.5098C14.1716 14.5098 13.5 15.1813 13.5 16.0098C13.5 16.1706 13.5254 16.3255 13.5723 16.4707L13.6699 16.665L13.6553 16.6719C13.9 17.1679 14.4095 17.5098 15 17.5098C15.8284 17.5098 16.5 16.8382 16.5 16.0098C16.5 15.1813 15.8284 14.5098 15 14.5098ZM7 14.5C6.17157 14.5 5.5 15.1716 5.5 16C5.5 16.8284 6.17157 17.5 7 17.5C7.58724 17.5 8.09358 17.1615 8.33984 16.6699L8.3291 16.665L8.41602 16.4902C8.46925 16.3364 8.5 16.1719 8.5 16C8.5 15.1716 7.82843 14.5 7 14.5Z" fill="#000000"/>
</svg>
