<svg xmlns="http://www.w3.org/2000/svg" width="20" height="20" viewBox="0 0 20 20" fill="none"><rect width="20" height="20" fill="none"/>
<path d="M9.99598 2C11.1163 2.00001 12.0889 2.28011 12.7743 2.55371C13.1183 2.6911 13.3965 2.82899 13.5907 2.93457C13.6875 2.98723 13.7649 3.03246 13.8192 3.06543C13.8459 3.08161 13.8679 3.09547 13.8837 3.10547C13.8912 3.11027 13.8983 3.11497 13.9032 3.11816L13.912 3.12402L13.913 3.125C13.91 3.12994 13.8756 3.18286 13.4989 3.75L13.913 3.125C14.0965 3.24695 14.2184 3.44425 14.244 3.66309C14.2695 3.88184 14.197 4.10073 14.0468 4.26172L11.244 7.2627L13.9208 8.53711C15.1652 9.1297 16.0913 10.2338 16.4579 11.5625L16.9237 13.2529C17.5823 15.6408 15.7864 17.9998 13.3095 18H6.68836C4.21188 17.9992 2.41567 15.6404 3.0741 13.2529L3.53992 11.5625C3.90642 10.2341 4.83301 9.12981 6.07703 8.53711L8.74988 7.26367L5.95008 4.26172C5.8003 4.10081 5.72835 3.88146 5.75379 3.66309C5.77927 3.44469 5.90009 3.24811 6.08289 3.12598L6.08387 3.125L6.0868 3.12305C6.0868 3.12305 6.09133 3.12056 6.09363 3.11914C6.09845 3.116 6.10562 3.11127 6.11316 3.10645C6.1288 3.09647 6.15101 3.08261 6.17762 3.06641C6.23173 3.03347 6.30869 2.9882 6.40516 2.93555C6.59876 2.82992 6.87618 2.69122 7.21961 2.55371C7.90372 2.27991 8.8755 2.00015 9.99598 2ZM6.72156 9.8916C5.87068 10.2971 5.23699 11.0523 4.98621 11.9609L4.51941 13.6514C4.12439 15.0837 5.20272 16.4992 6.68836 16.5H13.3095C14.7955 16.4998 15.8736 15.084 15.4784 13.6514L15.0116 11.9619C14.7608 11.0529 14.1276 10.2971 13.2762 9.8916L9.99891 8.33008L6.72156 9.8916ZM9.99598 3.5C9.12021 3.50015 8.34199 3.72026 7.77723 3.94629C7.76066 3.95293 7.74358 3.96017 7.72742 3.9668L9.99598 6.40039L12.2675 3.96777C12.2513 3.96113 12.2342 3.9529 12.2177 3.94629C11.6511 3.72017 10.8716 3.50001 9.99598 3.5Z" fill="#000000"/>
</svg>
