<svg xmlns="http://www.w3.org/2000/svg" width="20" height="20" viewBox="0 0 20 20" fill="none"><rect width="20" height="20" fill="none"/>
<path d="M16.9746 11C18.3691 11 19.5 12.1309 19.5 13.5254C19.4998 14.9197 18.369 16.0498 16.9746 16.0498H15.5V17H17V18H15.5V19H14V18H13V17H14V16.0498H13V14.5498H14V11H16.9746ZM15.5 14.5498H16.9746C17.5406 14.5498 17.9998 14.0913 18 13.5254C18 12.9593 17.5407 12.5 16.9746 12.5H15.5V14.5498Z" fill="#000000"/>
<path d="M14.75 2.5C16.2687 2.50011 17.5 3.73128 17.5 5.25V9H16V5.25C16 4.55971 15.4403 4.00011 14.75 4H5.25C4.55964 4 4 4.55964 4 5.25V14.75C4.00011 15.4403 4.55971 16 5.25 16H11V17.5H5.25C3.73128 17.5 2.50011 16.2687 2.5 14.75V5.25C2.5 3.73122 3.73122 2.5 5.25 2.5H14.75Z" fill="#000000"/>
<path d="M10 10.4492H6V8.94922H10V10.4492Z" fill="#000000"/>
<path d="M13 7.44922H6V5.94922H13V7.44922Z" fill="#000000"/>
</svg>
