<svg xmlns="http://www.w3.org/2000/svg" width="20" height="20" viewBox="0 0 20 20" fill="none"><rect width="20" height="20" fill="none"/>
<path d="M17.3857 10.5615C17.5409 10.4198 17.7818 10.5825 17.708 10.7793L16.5 14H18C18.4043 14.0001 18.7691 14.2437 18.9238 14.6172C19.0785 14.9908 18.9929 15.4211 18.707 15.707L14.2285 19.3994C14.0619 19.5368 13.8258 19.3494 13.9219 19.1562L15.5 16H14C13.6077 16 13.252 15.7703 13.0898 15.4131C12.9278 15.0559 12.9889 14.6371 13.2471 14.3418L17.3857 10.5615Z" fill="#000000"/>
<path d="M8.7002 1.9502C10.2189 1.9503 11.4502 3.18148 11.4502 4.7002V5.9502H13.2998C14.8186 5.9502 16.0498 7.18141 16.0498 8.7002V9H14.5498V8.7002C14.5498 8.00984 13.9902 7.4502 13.2998 7.4502H9.9502V4.7002C9.9502 4.00991 9.39046 3.4503 8.7002 3.4502H5.4502V16.5498H11V18.0498H3.9502V1.9502H8.7002Z" fill="#000000"/>
</svg>
