<svg xmlns="http://www.w3.org/2000/svg" width="24" height="24" viewBox="0 0 24 24" fill="none"><rect width="24" height="24" fill="none"/>
<path d="M9.5 4C10.0137 4 10.5154 4.05105 11 4.14941V6.20801C10.5231 6.0731 10.0201 6 9.5 6C6.46243 6 4 8.46243 4 11.5C4 14.5376 6.46243 17 9.5 17C11.637 17 13.4879 15.7804 14.3984 14H16.5713C16.308 14.7432 15.9317 15.433 15.4619 16.0479L19.707 20.293L18.293 21.707L14.0479 17.4619C12.7861 18.4259 11.2105 19 9.5 19C5.35786 19 2 15.6421 2 11.5C2 7.35786 5.35786 4 9.5 4Z" fill="#000000"/>
<path d="M17 2C17.3068 2.00002 17.5528 2.24998 17.5791 2.55566C17.7741 4.81859 19.1809 6.22589 21.4443 6.4209C21.75 6.44722 22.0001 6.69314 22 7C21.9999 7.30675 21.7499 7.5528 21.4443 7.5791C19.181 7.77407 17.7732 9.18123 17.5781 11.4443C17.5519 11.7499 17.3066 11.9998 17 12C16.6931 12 16.4472 11.75 16.4209 11.4443C16.2259 9.18139 14.8185 7.7742 12.5557 7.5791C12.2501 7.55276 12 7.30676 12 7C12.0001 6.69323 12.2501 6.44722 12.5557 6.4209C14.8184 6.22592 16.2259 4.81865 16.4209 2.55566C16.4472 2.24997 16.6931 2.00001 17 2Z" fill="#000000"/>
</svg>
