<svg xmlns="http://www.w3.org/2000/svg" width="20" height="20" viewBox="0 0 20 20" fill="none"><rect width="20" height="20" fill="none"/>
<path d="M14.9502 4.7959C14.9502 6.06655 14.529 7.30149 13.7529 8.30762L12.4463 10L13.7529 11.6924C14.5291 12.6986 14.9502 13.9343 14.9502 15.2051V18.0498H5.0498V15.2051C5.0498 13.9342 5.47083 12.6986 6.24707 11.6924L7.55273 10L6.24707 8.30762C5.47094 7.30145 5.04984 6.06663 5.0498 4.7959V1.9502H14.9502V4.7959ZM6.5498 4.7959C6.54984 5.73512 6.86092 6.64793 7.43457 7.3916L9.44727 10L7.43457 12.6084C6.86083 13.3521 6.5498 14.2658 6.5498 15.2051V16.5498H13.4502V15.2051C13.4502 14.2658 13.1382 13.3521 12.5645 12.6084L10.5527 10L12.5645 7.3916C13.1382 6.64791 13.4502 5.73516 13.4502 4.7959V3.4502H6.5498V4.7959Z" fill="#000000"/>
</svg>
