<svg xmlns="http://www.w3.org/2000/svg" width="20" height="20" viewBox="0 0 20 20" fill="none"><rect width="20" height="20" fill="none"/>
<path d="M18.5303 17.4697L17.4697 18.5303L15.0986 16.1592C14.5938 16.5785 14.0396 16.9368 13.4443 17.2207C12.6907 17.5802 11.8863 17.8172 11.0615 17.9277V16.4102C11.6616 16.3108 12.2465 16.1301 12.7979 15.8672C13.2389 15.6568 13.6522 15.3959 14.0332 15.0938L4.9043 5.96484C4.56843 6.38892 4.28599 6.85437 4.06445 7.35059C3.812 7.91615 3.64446 8.51393 3.56152 9.125H2.0498C2.14039 8.30231 2.35672 7.49672 2.69531 6.73828C2.99171 6.0745 3.37629 5.45569 3.83789 4.89844L1.46973 2.53027L2.53027 1.46973L18.5303 17.4697Z" fill="#000000"/>
<path d="M6.19922 15.2725C6.65189 15.5987 7.14573 15.8663 7.66895 16.0674C8.11929 16.2404 8.5866 16.3603 9.06152 16.4297V17.9434C8.4023 17.8654 7.75353 17.707 7.13086 17.4678C6.41105 17.1912 5.73794 16.8105 5.12891 16.3428L6.19922 15.2725Z" fill="#000000"/>
<path d="M3.60059 11.125C3.68217 11.5895 3.81207 12.0454 3.99316 12.4834C4.19684 12.9761 4.46075 13.4398 4.77637 13.8662L3.70703 14.9365C3.25756 14.3639 2.88581 13.7324 2.60645 13.0566C2.34984 12.4359 2.17388 11.7868 2.08008 11.125H3.60059Z" fill="#000000"/>
<path d="M10 2C11.0506 2 12.0909 2.20734 13.0615 2.60938C14.0321 3.01141 14.9144 3.59995 15.6572 4.34277C16.4 5.08559 16.9886 5.96795 17.3906 6.93848C17.7927 7.90908 18 8.94943 18 10C18 11.0506 17.7927 12.0909 17.3906 13.0615C17.2692 13.3546 17.1295 13.6388 16.9746 13.9141L15.8633 12.8027C15.913 12.6989 15.9607 12.5939 16.0049 12.4873C16.3315 11.6987 16.5 10.8536 16.5 10C16.5 9.14641 16.3315 8.30131 16.0049 7.5127C15.6782 6.72408 15.2003 6.0069 14.5967 5.40332C13.9931 4.79974 13.2759 4.32177 12.4873 3.99512C11.6987 3.66846 10.8536 3.5 10 3.5C9.14641 3.5 8.30131 3.66846 7.5127 3.99512C7.40593 4.03934 7.30031 4.08601 7.19629 4.13574L6.08594 3.02539C6.36147 2.8709 6.64546 2.73076 6.93848 2.60938C7.90908 2.20734 8.94943 2 10 2Z" fill="#000000"/>
</svg>
