<svg xmlns="http://www.w3.org/2000/svg" width="20" height="20" viewBox="0 0 20 20" fill="none"><rect width="20" height="20" fill="none"/>
<path d="M5 6.5H4.75C4.05964 6.5 3.5 7.05964 3.5 7.75V15.25C3.5 15.9404 4.05964 16.5 4.75 16.5H15.25C15.9404 16.5 16.5 15.9404 16.5 15.25V7.75C16.5 7.05964 15.9404 6.5 15.25 6.5H15V5H15.25C16.7688 5 18 6.23122 18 7.75V15.25C18 16.7688 16.7688 18 15.25 18H4.75C3.23122 18 2 16.7688 2 15.25V7.75C2 6.23122 3.23122 5 4.75 5H5V6.5Z" fill="#000000"/>
<path d="M10 2C10.1723 2.00004 10.3325 2.08923 10.4238 2.23535L12.9238 6.23535C13.02 6.38936 13.0254 6.58334 12.9375 6.74219C12.8494 6.90109 12.6817 6.99995 12.5 7H10.75V12H9.25V7H7.5C7.31831 6.99995 7.1506 6.90109 7.0625 6.74219C6.9746 6.58335 6.98004 6.38935 7.07617 6.23535L9.57617 2.23535C9.66752 2.08923 9.82768 2.00005 10 2Z" fill="#000000"/>
</svg>
