<svg xmlns="http://www.w3.org/2000/svg" width="20" height="20" viewBox="0 0 20 20" fill="none"><rect width="20" height="20" fill="none"/>
<path d="M9.99987 8C11.1044 8 11.9999 8.89543 11.9999 10C11.9999 11.1046 11.1044 12 9.99987 12C8.89543 11.9998 7.99987 11.1045 7.99987 10C7.99987 8.89552 8.89543 8.00015 9.99987 8Z" fill="#000000"/>
<path d="M9.99987 4.25C12.9588 4.25 14.9034 5.63607 16.0878 7.01074C16.6752 7.6927 17.0778 8.37238 17.3339 8.88184C17.4622 9.13731 17.5544 9.35271 17.6161 9.50684C17.6469 9.58387 17.6704 9.64587 17.6864 9.69043C17.6944 9.71268 17.7004 9.73089 17.7049 9.74414C17.7072 9.75066 17.7094 9.75652 17.7108 9.76074L17.7128 9.76562V9.76758L17.7137 9.76855L16.9999 10L17.7137 10.2314L17.7128 10.2324V10.2344L17.7108 10.2393C17.7094 10.2435 17.7072 10.2493 17.7049 10.2559C17.7004 10.2691 17.6944 10.2873 17.6864 10.3096C17.6704 10.3541 17.6469 10.4161 17.6161 10.4932C17.5544 10.6473 17.4622 10.8627 17.3339 11.1182C17.0778 11.6276 16.6752 12.3073 16.0878 12.9893C14.9034 14.3639 12.9588 15.75 9.99987 15.75C7.04095 15.7499 5.09631 14.3639 3.91198 12.9893C3.32453 12.3073 2.92191 11.6276 2.66589 11.1182C2.5375 10.8627 2.4453 10.6473 2.38366 10.4932C2.35285 10.4161 2.32934 10.3541 2.31335 10.3096C2.30536 10.2873 2.2993 10.2691 2.29479 10.2559C2.29257 10.2493 2.29033 10.2435 2.28893 10.2393L2.28698 10.2344V10.2324L2.286 10.2314L2.99987 10L2.286 9.76855L2.28698 9.76758V9.76562L2.28893 9.76074C2.29033 9.75653 2.29257 9.75067 2.29479 9.74414C2.2993 9.7309 2.30536 9.71268 2.31335 9.69043C2.32934 9.64589 2.35285 9.58387 2.38366 9.50684C2.4453 9.35273 2.5375 9.13731 2.66589 8.88184C2.92191 8.3724 3.32453 7.69271 3.91198 7.01074C5.09631 5.63607 7.04095 4.25009 9.99987 4.25ZM9.99987 5.75C7.57455 5.75009 6.01814 6.86405 5.0487 7.98926C4.55953 8.55707 4.22175 9.12777 4.00671 9.55566C3.91735 9.73347 3.85018 9.88535 3.8026 10C3.85018 10.1146 3.91735 10.2665 4.00671 10.4443C4.22175 10.8722 4.55953 11.4429 5.0487 12.0107C6.01814 13.136 7.57455 14.2499 9.99987 14.25C12.4253 14.25 13.9816 13.1359 14.951 12.0107C15.4402 11.4429 15.778 10.8723 15.993 10.4443C16.0823 10.2667 16.1486 10.1146 16.1962 10C16.1486 9.88538 16.0823 9.73329 15.993 9.55566C15.778 9.12774 15.4402 8.55707 14.951 7.98926C13.9816 6.86405 12.4253 5.75 9.99987 5.75Z" fill="#000000"/>
<path d="M2.99987 10L2.286 10.2314C2.23767 10.0817 2.23767 9.91831 2.286 9.76855L2.99987 10Z" fill="#000000"/>
<path d="M17.7137 9.76855C17.7621 9.91836 17.7621 10.0816 17.7137 10.2314L16.9999 10L17.7137 9.76855Z" fill="#000000"/>
</svg>
