<svg xmlns="http://www.w3.org/2000/svg" width="20" height="20" viewBox="0 0 20 20" fill="none"><rect width="20" height="20" fill="none"/>
<path d="M10 2C14.4183 2 18 5.58172 18 10C18 14.4183 14.4183 18 10 18C5.58172 18 2 14.4183 2 10C2 5.58172 5.58172 2 10 2ZM9.25 3.54395C6.01348 3.91585 3.5 6.66385 3.5 10C3.5 13.5899 6.41015 16.5 10 16.5C10.9268 16.5 11.8077 16.3046 12.6055 15.9551L9.35254 10.3779L9.25 10.2031V3.54395ZM13.9004 15.1992C15.2904 14.1548 16.2473 12.5666 16.4561 10.75H11.3057L13.9004 15.1992ZM10.75 9.25H16.4561C16.1124 6.25961 13.7404 3.88757 10.75 3.54395V9.25Z" fill="#000000"/>
</svg>
