<svg xmlns="http://www.w3.org/2000/svg" width="20" height="20" viewBox="0 0 20 20" fill="none"><rect width="20" height="20" fill="none"/>
<path d="M12.3105 4H15.75C16.9926 4 18 5.00736 18 6.25V11.75C18 12.9926 16.9926 14 15.75 14H15V15.75C15 16.9926 13.9926 18 12.75 18H4.25C3.00736 18 2 16.9926 2 15.75V8.25C2 7.00736 3.00736 6 4.25 6H5V4.25C5 3.00736 6.00736 2 7.25 2H10.3105L12.3105 4ZM4.25 7.5C3.83579 7.5 3.5 7.83579 3.5 8.25V15.75C3.5 16.1642 3.83579 16.5 4.25 16.5H12.75C13.1642 16.5 13.5 16.1642 13.5 15.75V14H7.25C6.00736 14 5 12.9926 5 11.75V7.5H4.25ZM7.25 3.5C6.83579 3.5 6.5 3.83579 6.5 4.25V11.75C6.5 12.1642 6.83579 12.5 7.25 12.5H15.75C16.1642 12.5 16.5 12.1642 16.5 11.75V6.25C16.5 5.83579 16.1642 5.5 15.75 5.5H11.6895L9.68945 3.5H7.25Z" fill="#000000"/>
</svg>
