<svg xmlns="http://www.w3.org/2000/svg" width="24" height="24" viewBox="0 0 24 24" fill="none"><rect width="24" height="24" fill="none"/>
<path d="M21.707 20.293L20.293 21.707L17.4883 18.9023C16.741 19.283 15.8963 19.5 15 19.5H9V21C9 21.1801 8.90284 21.3468 8.74609 21.4355C8.58951 21.524 8.39745 21.5211 8.24316 21.4287L3.24316 18.4287C3.09257 18.3383 3 18.1756 3 18C3.00002 17.8462 3.07079 17.7025 3.18945 17.6084L3.24316 17.5713L8.24316 14.5713C8.39744 14.4789 8.58952 14.476 8.74609 14.5645C8.90283 14.6532 8.99998 14.8199 9 15V16.5H15C15.0272 16.5 15.0541 16.496 15.0811 16.4951L7.03906 8.45312C6.70239 8.87853 6.50001 9.41502 6.5 10V12H3.5V10C3.50001 8.58653 4.0329 7.29739 4.90918 6.32324L2.29297 3.70703L3.70703 2.29297L21.707 20.293Z" fill="#000000"/>
<path d="M20.5 14C20.5 14.7626 20.343 15.4882 20.0625 16.1484L17.5 13.5859V12H20.5V14Z" fill="#000000"/>
<path d="M15.2539 2.56445C15.4105 2.47599 15.6026 2.47887 15.7568 2.57129L20.7568 5.57129C20.9074 5.66164 21 5.82439 21 6C21 6.15377 20.9292 6.29752 20.8105 6.3916L20.7568 6.42871L15.7568 9.42871C15.6025 9.52114 15.4105 9.52402 15.2539 9.43555C15.0972 9.34679 15 9.18013 15 9V7.5H11.4141L8.44141 4.52734C8.62506 4.50882 8.81146 4.5 9 4.5H15V3C15 2.81988 15.0972 2.6532 15.2539 2.56445Z" fill="#000000"/>
</svg>
