<svg xmlns="http://www.w3.org/2000/svg" width="20" height="20" viewBox="0 0 20 20" fill="none"><rect width="20" height="20" fill="none"/>
<path d="M11.0618 10.3535L10.0012 11.4141L8.58718 10L9.64772 8.93945L11.0618 10.3535Z" fill="#000000"/>
<path d="M18.4856 7.17188L15.4807 10.1768L16.1887 10.8838L10.0012 17.0713C8.82973 18.2428 6.93064 18.2427 5.75905 17.0713L2.92995 14.2432C1.75838 13.0716 1.75838 11.1716 2.92995 10L9.11745 3.81348L9.8235 4.51953L12.8284 1.51465L18.4856 7.17188ZM3.9905 11.0605C3.40471 11.6463 3.40471 12.5968 3.9905 13.1826L6.8196 16.0107C7.4054 16.5963 8.35497 16.5965 8.94069 16.0107L14.0667 10.8838L9.11745 5.93457L3.9905 11.0605ZM10.8841 5.58008L14.4202 9.11523L16.3635 7.17188L12.8284 3.63672L10.8841 5.58008Z" fill="#000000"/>
</svg>
