<svg xmlns="http://www.w3.org/2000/svg" width="24" height="24" viewBox="0 0 24 24" fill="none"><rect width="24" height="24" fill="none"/>
<path d="M22.9999 15C22.9999 15 22.9999 21.5 17.9999 23C13.0001 21.4999 12.9999 15 12.9999 15L17.9999 13L22.9999 15ZM15.1386 16.2988C15.2159 16.7449 15.3342 17.2591 15.5155 17.7852C15.9699 19.1028 16.7238 20.2665 17.9999 20.8643C19.2761 20.2665 20.0299 19.1029 20.4843 17.7852C20.6656 17.2592 20.7829 16.7449 20.8603 16.2988L17.9999 15.1543L15.1386 16.2988Z" fill="#000000"/>
<path d="M12.5771 3.18262L21.0771 9.18262C21.433 9.43392 21.5849 9.88745 21.453 10.3027C21.3211 10.7179 20.9356 11 20.4999 11H14.9999V12.5H12.9999V11H10.9999V19H11.9999V21H2.99992V19H4.99992V11H3.49992C3.0644 10.9998 2.67864 10.7178 2.54679 10.3027C2.41508 9.88758 2.56707 9.43393 2.92277 9.18262L11.4228 3.18262L11.9999 2.77637L12.5771 3.18262ZM6.99992 19H8.99992V11H6.99992V19ZM6.65226 9H17.3486L11.9999 5.22461L6.65226 9Z" fill="#000000"/>
</svg>
