<svg xmlns="http://www.w3.org/2000/svg" width="20" height="20" viewBox="0 0 20 20" fill="none"><rect width="20" height="20" fill="none"/>
<path d="M18.707 12.707L16.4141 15L18.707 17.293L17.293 18.707L15 16.4141L12.707 18.707L11.293 17.293L13.5859 15L11.293 12.707L12.707 11.293L15 13.5859L17.293 11.293L18.707 12.707Z" fill="#000000"/>
<path d="M11 2C12.6569 2 14 3.34315 14 5V6H15C16.6569 6 18 7.34315 18 9H16C16 8.44772 15.5523 8 15 8H5C4.44772 8 4 8.44772 4 9V15C4 15.5523 4.44772 16 5 16H9V18H5C3.34315 18 2 16.6569 2 15V9C2 7.34315 3.34315 6 5 6H6V5C6 3.34315 7.34315 2 9 2H11ZM9 4C8.44772 4 8 4.44772 8 5V6H12V5C12 4.44772 11.5523 4 11 4H9Z" fill="#000000"/>
</svg>
