<svg xmlns="http://www.w3.org/2000/svg" width="24" height="24" viewBox="0 0 24 24" fill="none"><rect width="24" height="24" fill="none"/>
<path d="M6.5548 3.60107C8.59001 2.28041 11.0367 1.74422 13.4376 2.09326C15.8386 2.44257 18.0318 3.65377 19.6066 5.49951C21.181 7.34541 22.0315 9.70148 21.9982 12.1274C21.9646 14.5534 21.0498 16.8852 19.4249 18.687C17.7998 20.4887 15.5739 21.6385 13.1642 21.9214C10.7544 22.204 8.32335 21.6006 6.3253 20.2241C4.32722 18.8474 2.89711 16.7905 2.30284 14.438L4.2423 13.9487C4.71771 15.8307 5.8617 17.4753 7.46007 18.5767C9.05852 19.6779 11.0029 20.1612 12.9308 19.9351C14.8585 19.7088 16.6385 18.7884 17.9386 17.3472C19.2385 15.9058 19.9713 14.0409 19.9982 12.1001C20.0249 10.1593 19.3446 8.27408 18.0851 6.79736C16.8254 5.32094 15.071 4.35227 13.1505 4.07275C11.2297 3.79343 9.27191 4.22227 7.64366 5.27881C6.66156 5.9162 5.84012 6.75683 5.22667 7.73291L6.02159 8.20654C6.17934 8.30088 6.27385 8.4751 6.26573 8.65869C6.25701 8.84254 6.14664 9.00803 5.98058 9.0874L2.72667 10.6382C2.57587 10.71 2.39749 10.7022 2.25401 10.6167C2.11091 10.5309 2.01919 10.3781 2.01085 10.2114L1.83214 6.61084C1.82318 6.42702 1.91568 6.25169 2.07335 6.15674C2.2113 6.0743 2.38092 6.06388 2.52648 6.12549L2.58702 6.15674L3.50987 6.70849C4.27943 5.47186 5.31404 4.40633 6.5548 3.60107Z" fill="#000000"/>
<path d="M13.0001 11.5864L15.7071 14.2935L14.2931 15.7075L11.0001 12.4145V7.00049H13.0001V11.5864Z" fill="#000000"/>
</svg>
