<svg xmlns="http://www.w3.org/2000/svg" width="24" height="24" viewBox="0 0 24 24" fill="none"><rect width="24" height="24" fill="none"/>
<path d="M12 2C17.5228 2 22 6.47715 22 12C22 17.5228 17.5228 22 12 22C6.47715 22 2 17.5228 2 12C2 6.47715 6.47715 2 12 2ZM5.58594 11.4971L10.293 16.2041L11.707 14.79L9.41406 12.498L14.001 12.499C15.1051 12.4995 15.9999 13.3949 16 14.499V15.5H18V14.499C17.9999 12.2904 16.2096 10.4997 14.001 10.499L9.41309 10.498L11.707 8.2041L10.293 6.79004L5.58594 11.4971Z" fill="#000000"/>
</svg>
