<svg xmlns="http://www.w3.org/2000/svg" width="20" height="20" viewBox="0 0 20 20" fill="none"><rect width="20" height="20" fill="none"/>
<path d="M13.5303 8.53027L9.5 12.5605L6.96973 10.0303L8.03027 8.96973L9.5 10.4395L12.4697 7.46973L13.5303 8.53027Z" fill="#000000"/>
<path d="M14.5 2.5C16.1569 2.5 17.5 3.84315 17.5 5.5V14.5C17.5 16.1569 16.1569 17.5 14.5 17.5H5.5C3.84315 17.5 2.5 16.1569 2.5 14.5V5.5C2.5 3.84315 3.84315 2.5 5.5 2.5H14.5ZM5.5 4C4.67157 4 4 4.67157 4 5.5V14.5C4 15.3284 4.67157 16 5.5 16H14.5C15.3284 16 16 15.3284 16 14.5V5.5C16 4.67157 15.3284 4 14.5 4H5.5Z" fill="#000000"/>
</svg>
