<svg xmlns="http://www.w3.org/2000/svg" width="20" height="20" viewBox="0 0 20 20" fill="none"><rect width="20" height="20" fill="none"/>
<path d="M14 10C16.2091 10 18 11.7909 18 14C18 14.8334 17.7437 15.6064 17.3076 16.2471L19.0303 17.9697L17.9697 19.0303L16.2471 17.3076C15.6064 17.7437 14.8334 18 14 18C11.7909 18 10 16.2091 10 14C10 11.7909 11.7909 10 14 10ZM14 11.5C12.6193 11.5 11.5 12.6193 11.5 14C11.5 15.3807 12.6193 16.5 14 16.5C15.3807 16.5 16.5 15.3807 16.5 14C16.5 12.6193 15.3807 11.5 14 11.5Z" fill="#000000"/>
<path d="M16.75 8H15.25V3.75H4.75V16.2861L6.66504 15.3291L7 15.1611L7.33496 15.3291L9 16.1611V17.8379L7 16.8379L4.33496 18.1709C4.10255 18.2869 3.82646 18.2743 3.60547 18.1377C3.38453 18.001 3.25 17.7598 3.25 17.5V2.25H16.75V8Z" fill="#000000"/>
<path d="M10 10.75H7V9.25H10V10.75Z" fill="#000000"/>
<path d="M13 7.75H7V6.25H13V7.75Z" fill="#000000"/>
</svg>
