<svg xmlns="http://www.w3.org/2000/svg" width="20" height="20" viewBox="0 0 20 20" fill="none"><rect width="20" height="20" fill="none"/>
<path d="M11.1152 1.87917C12.7182 1.51738 14.4882 1.84763 15.999 2.92507V4.91725C14.6424 3.44498 12.8911 3.01577 11.4453 3.34206C9.56255 3.76727 8.01257 5.50752 8.43262 8.39186C8.46271 8.59836 8.48956 8.80145 8.51562 9.00026H14V10.5003H8.68359C8.79439 11.7071 8.82953 12.7427 8.81934 13.6135C8.80669 14.6741 8.42256 15.5669 7.81055 16.2493H16V17.7493H4.35059C4.32098 17.7498 4.29138 17.7522 4.26172 17.7522V17.7493L4 17.7503V16.2503L4.30762 16.2493C6.02288 16.2298 7.30097 15.1201 7.31934 13.596C7.32928 12.7463 7.29233 11.717 7.17578 10.5003H4V9.00026H7.00195C6.98445 8.87159 6.96749 8.74074 6.94824 8.60866C6.41943 4.97792 8.43986 2.48323 11.1152 1.87917Z" fill="#000000"/>
</svg>
