<svg xmlns="http://www.w3.org/2000/svg" width="20" height="20" viewBox="0 0 20 20" fill="none"><rect width="20" height="20" fill="none"/>
<path d="M18.707 17.293L17.293 18.707L14.7354 16.1494C13.4894 17.2972 11.8278 18 10 18C6.13401 18 3 14.866 3 11C3 9.17222 3.70113 7.50896 4.84863 6.2627L1.29297 2.70703L2.70703 1.29297L18.707 17.293ZM6.26465 7.67871C5.47871 8.56198 5 9.72467 5 11C5 13.7614 7.23858 16 10 16C11.2754 16 12.4364 15.5196 13.3193 14.7334L6.26465 7.67871Z" fill="#000000"/>
<path d="M16.207 5.20703L15.1514 6.26172C16.2987 7.50845 17 9.1721 17 11C17 11.6366 16.9122 12.2527 16.7529 12.8389L14.9971 11.083C14.9975 11.0554 15 11.0277 15 11C15 8.23858 12.7614 6 10 6C9.97194 6 9.94396 6.00149 9.91602 6.00195L8.16016 4.24609C8.74656 4.08673 9.36312 4 10 4C11.3137 4 12.5424 4.36268 13.5928 4.99219L14.793 3.79297L16.207 5.20703Z" fill="#000000"/>
<path d="M12.5 3H7.5V1H12.5V3Z" fill="#000000"/>
</svg>
