<svg xmlns="http://www.w3.org/2000/svg" width="20" height="20" viewBox="0 0 20 20" fill="none"><rect width="20" height="20" fill="none"/>
<path d="M7 3.5H5C4.17157 3.5 3.5 4.17157 3.5 5V15C3.5 15.8284 4.17157 16.5 5 16.5H7V18H5C3.34315 18 2 16.6569 2 15V5C2 3.34315 3.34315 2 5 2H7V3.5Z" fill="#000000"/>
<path d="M15 2C16.6569 2 18 3.34315 18 5V15C18 16.6569 16.6569 18 15 18H13V16.5H15C15.8284 16.5 16.5 15.8284 16.5 15V5C16.5 4.17157 15.8284 3.5 15 3.5H13V2H15Z" fill="#000000"/>
<path d="M7.5 14H6V6H7.5V14Z" fill="#000000"/>
<path d="M10.75 14H9.25V6H10.75V14Z" fill="#000000"/>
<path d="M14 14H12.5V6H14V14Z" fill="#000000"/>
</svg>
