<svg xmlns="http://www.w3.org/2000/svg" width="24" height="24" viewBox="0 0 24 24" fill="none"><rect width="24" height="24" fill="none"/>
<path d="M6 2.5L5 2.5C3.89543 2.5 3 3.39543 3 4.5L3 11.5C3 12.6046 3.89543 13.5 5 13.5L6 13.5L6 2.5Z" fill="#000000"/>
<path d="M12 21C14.1884 21 15.8529 19.0346 15.4932 16.876L15.1807 15L18.4678 15C20.4056 15 21.8356 13.1898 21.3867 11.3047L20.2051 6.3418C19.6688 4.08954 17.656 2.50012 15.3408 2.5L8 2.5L8 13.8555C9.41681 15.2597 10.3914 17.0565 10.7852 19.0254L11.0195 20.1963L11.041 20.2822C11.1649 20.7043 11.5532 21 12 21Z" fill="#000000"/>
</svg>
