<svg xmlns="http://www.w3.org/2000/svg" width="20" height="20" viewBox="0 0 20 20" fill="none"><rect width="20" height="20" fill="none"/>
<path d="M10.0322 5.47949C10.4885 5.47949 10.7995 5.62043 11.0225 5.86133C11.2386 6.09499 11.3623 6.41278 11.4707 6.74219L13.7656 13.7197H11.8516L11.3477 12.0986H8.51855L8.00195 13.6377L7.97461 13.7197H6.15918L6.21387 13.5605L8.56836 6.74121C8.68263 6.4101 8.81262 6.09228 9.03418 5.85938C9.26219 5.61986 9.57623 5.47958 10.0322 5.47949ZM9.05176 10.4893H10.8379L9.9707 7.70605L9.05176 10.4893Z" fill="#000000"/>
<path d="M10 2C14.4183 2 18 5.58172 18 10C18 14.4183 14.4183 18 10 18C5.58172 18 2 14.4183 2 10C2 5.58172 5.58172 2 10 2ZM10 4C6.68629 4 4 6.68629 4 10C4 13.3137 6.68629 16 10 16C13.3137 16 16 13.3137 16 10C16 6.68629 13.3137 4 10 4Z" fill="#000000"/>
</svg>
