<svg xmlns="http://www.w3.org/2000/svg" width="20" height="20" viewBox="0 0 20 20" fill="none"><rect width="20" height="20" fill="none"/>
<path d="M10 2C10.8284 2 11.5 2.67157 11.5 3.5C11.5 4.05495 11.198 4.5384 10.75 4.79785V6.94922H14.4512C16.1078 6.94943 17.4512 8.29249 17.4512 9.94922V14.999C17.4512 16.6557 16.1078 17.9988 14.4512 17.999H5.55078C3.89393 17.999 2.55078 16.6559 2.55078 14.999V9.94922C2.55078 8.29237 3.89393 6.94922 5.55078 6.94922H9.25V4.79785C8.802 4.5384 8.5 4.05495 8.5 3.5C8.5 2.67157 9.17157 2 10 2ZM6.5 10C5.67157 10 5 10.6716 5 11.5C5 12.3284 5.67157 13 6.5 13C7.32843 13 8 12.3284 8 11.5C8 10.6716 7.32843 10 6.5 10ZM13.5 10C12.6716 10 12 10.6716 12 11.5C12 12.3284 12.6716 13 13.5 13C14.3284 13 15 12.3284 15 11.5C15 10.6716 14.3284 10 13.5 10Z" fill="#000000"/>
</svg>
