<svg xmlns="http://www.w3.org/2000/svg" width="24" height="24" viewBox="0 0 24 24" fill="none"><rect width="24" height="24" fill="none"/>
<path d="M19.0005 4.00049C20.6573 4.00049 22.0004 5.34375 22.0005 7.00049V17.0005C22.0005 18.6573 20.6573 20.0005 19.0005 20.0005H5.00049C3.34386 20.0002 2.00049 18.6572 2.00049 17.0005V7.00049C2.00062 5.34391 3.34394 4.00075 5.00049 4.00049H19.0005ZM19.0005 11.0005C18.4484 11.0008 18.0005 11.4484 18.0005 12.0005C18.0005 12.5526 18.4484 13.0002 19.0005 13.0005C19.5528 13.0005 20.0005 12.5528 20.0005 12.0005C20.0005 11.4482 19.5528 11.0005 19.0005 11.0005Z" fill="#000000"/>
</svg>
