<svg xmlns="http://www.w3.org/2000/svg" width="20" height="20" viewBox="0 0 20 20" fill="none"><rect width="20" height="20" fill="none"/>
<path d="M18.5303 17.4697L17.4697 18.5303L16.0498 17.1104V18.0498H3.9502V5.01074L1.46973 2.53027L2.53027 1.46973L18.5303 17.4697ZM5.4502 16.5498H14.5498V15.6104L5.4502 6.51074V16.5498Z" fill="#000000"/>
<path d="M8.7002 1.9502C10.2189 1.9503 11.4502 3.18148 11.4502 4.7002V5.9502H13.2998C14.8186 5.9502 16.0498 7.18141 16.0498 8.7002V12.9893L14.5498 11.4893V8.7002C14.5498 8.00984 13.9902 7.4502 13.2998 7.4502H10.5107L9.9502 6.88965V4.7002C9.9502 4.00991 9.39046 3.4503 8.7002 3.4502H6.51074L5.01074 1.9502H8.7002Z" fill="#000000"/>
</svg>
