<svg xmlns="http://www.w3.org/2000/svg" width="24" height="24" viewBox="0 0 24 24" fill="none"><rect width="24" height="24" fill="none"/>
<g clip-path="url(#clip0_147603_36072)">
<path d="M14.2969 14.293C14.574 14.0158 14.9884 13.9261 15.3555 14.0635L23.3555 17.0635C23.7375 17.2069 23.9942 17.5687 24.0039 17.9766C24.0133 18.3848 23.7728 18.7581 23.3975 18.9189L20.2656 20.2607L18.9228 23.3936C18.7619 23.7688 18.3887 24.0094 17.9805 24C17.5727 23.9902 17.2108 23.7335 17.0674 23.3516L14.0674 15.3516C13.93 14.9846 14.0198 14.5701 14.2969 14.293ZM18.0654 20.3164L18.7432 18.7383L19.1103 18.5811L20.3203 18.0615L16.7129 16.709L18.0654 20.3164Z" fill="#000000"/>
<path d="M12.001 1.5C13.4548 1.50018 14.6193 1.93701 15.417 2.37207C15.8157 2.58962 16.1278 2.80954 16.3437 2.97852C16.4514 3.0628 16.5369 3.13523 16.5976 3.18945C16.6276 3.21627 16.6527 3.23958 16.6709 3.25684C16.6799 3.26535 16.6883 3.27342 16.6943 3.2793L16.707 3.29199C16.707 3.29199 16.6883 3.31267 16.001 4L16.708 3.29297C17.0979 3.68337 17.0979 4.31662 16.708 4.70703L13.8516 7.5625L15.8896 8.24219C17.6702 8.83596 19.0655 10.2288 19.6689 12H17.4902C17.0094 11.1303 16.2178 10.4601 15.2568 10.1396L12 9.05273L8.74413 10.1396C7.52506 10.5461 6.5751 11.5138 6.1914 12.7402L5.13866 16.1045C4.53454 18.0363 5.9779 19.9998 8.00194 20H13.0039V22H8.00194C4.62834 21.9998 2.22236 18.7266 3.22948 15.5068L4.28222 12.1436C4.85775 10.3038 6.28259 8.85186 8.11132 8.24219L10.1494 7.5625L7.29394 4.70703C7.10642 4.5195 7.00097 4.2652 7.00097 4C7.00097 3.7348 7.10642 3.4805 7.29394 3.29297L8.00097 4L7.29491 3.29199L7.30761 3.2793C7.31369 3.27338 7.3221 3.26531 7.33104 3.25684C7.34932 3.23953 7.37432 3.21623 7.40429 3.18945C7.46505 3.13519 7.55056 3.06276 7.65819 2.97852C7.87421 2.8095 8.18622 2.58956 8.58495 2.37207C9.38279 1.93705 10.5471 1.50001 12.001 1.5ZM12.001 3.5C10.956 3.50001 10.1191 3.81232 9.54198 4.12695L12.001 6.58594L14.459 4.12695C13.882 3.81242 13.0455 3.50018 12.001 3.5Z" fill="#000000"/>
</g>
<defs>
<clipPath id="clip0_147603_36072">
<rect width="24" height="24" fill="white"/>
</clipPath>
</defs>
</svg>
