<svg xmlns="http://www.w3.org/2000/svg" width="20" height="20" viewBox="0 0 20 20" fill="none"><rect width="20" height="20" fill="none"/>
<path d="M14.5 2.5C16.1569 2.5 17.5 3.84315 17.5 5.5V14.5C17.5 16.1568 16.1568 17.5 14.5 17.5H5.5C3.84318 17.5 2.50001 16.1568 2.5 14.5V5.5C2.5 3.84316 3.84317 2.50003 5.5 2.5H14.5ZM5.5 4C4.6716 4.00003 4 4.67159 4 5.5V14.5C4.00001 15.3284 4.6716 16 5.5 16H14.5C15.3284 16 16 15.3284 16 14.5V5.5C16 4.67157 15.3284 4 14.5 4H14.0488V10C14.0488 10.2708 13.9029 10.5204 13.667 10.6533C13.4311 10.7861 13.1417 10.7819 12.9102 10.6416L9.99902 8.87695L7.08789 10.6416C6.85632 10.7819 6.56696 10.7862 6.33105 10.6533C6.09519 10.5204 5.94922 10.2707 5.94922 10V4H5.5ZM7.44922 8.66797L9.99902 7.12305L12.5488 8.66797V4H7.44922V8.66797Z" fill="#000000"/>
</svg>
