<svg xmlns="http://www.w3.org/2000/svg" width="24" height="24" viewBox="0 0 24 24" fill="none"><rect width="24" height="24" fill="none"/>
<path d="M23 16V21C23 22.1046 22.1046 23 21 23H15L14.7959 22.9893C13.7872 22.887 13 22.0357 13 21V16L18 13L23 16ZM15 17.1318V21H21V17.1318L18 15.332L15 17.1318Z" fill="#000000"/>
<path d="M12 2C13.6569 2 15 3.34314 15 5V7H17C18.6568 7 20 8.34317 20 10V11H18V10C18 9.44774 17.5523 9 17 9H13V5C13 4.44771 12.5523 4 12 4H6V20H11V22H4V2H12Z" fill="#000000"/>
</svg>
