<svg xmlns="http://www.w3.org/2000/svg" width="20" height="20" viewBox="0 0 20 20" fill="none"><rect width="20" height="20" fill="none"/>
<path d="M17 15C17.2761 15.0001 17.5 15.2239 17.5 15.5V18H18V19L15 18.999V17.999H15.5V15.999H15V14.999L17 15Z" fill="#000000"/>
<path d="M7.0654 7.90723C8.51076 7.31659 11.4908 7.31482 12.9355 7.90723L13.4248 8.11133C13.5818 8.17938 13.7322 8.24847 13.872 8.31836C14.106 8.43533 14.3299 8.56989 14.54 8.71973C14.6471 8.7961 14.7502 8.8777 14.8506 8.96191C15.2299 9.2803 15.559 9.65319 15.8281 10.0674C15.4242 10.1514 15.0332 10.3194 14.6855 10.6025C14.1645 11.027 13.8968 11.5825 13.7509 12.0684C13.4852 12.9539 13.5 14.0917 13.5 14.999V17.9717C13.3438 17.99 13.1845 18 13.0224 18H6.97751C4.32009 18 2.40101 15.4565 3.13083 12.9014L3.55563 11.417C3.88504 10.2644 4.61561 9.27541 5.60446 8.62109C5.69922 8.5584 5.79609 8.49779 5.89547 8.44141L6.12692 8.31836L6.13766 8.3125C6.27403 8.24471 6.421 8.17851 6.57419 8.1123L7.0654 7.90723Z" fill="#000000"/>
<path d="M16.5 11.5C17.1903 11.5001 17.75 12.0597 17.75 12.75C17.75 13.4403 17.1903 13.9999 16.5 14C15.8096 14 15.25 13.4404 15.25 12.75C15.25 12.0596 15.8096 11.5 16.5 11.5Z" fill="#000000"/>
<path d="M10.0048 2C11.0521 2.00009 12.0576 2.2953 12.7675 2.56543C13.1294 2.70315 13.4321 2.84096 13.6455 2.94531C13.7521 2.99747 13.8379 3.04201 13.8984 3.07422C13.9285 3.09025 13.9532 3.10366 13.9707 3.11328C13.9793 3.11802 13.9868 3.12201 13.9922 3.125C13.9947 3.12643 13.9972 3.12791 13.999 3.12891L14.0009 3.13086H14.0029C14.2735 3.28543 14.4576 3.55826 14.499 3.86719C14.5403 4.17593 14.4349 4.48668 14.2148 4.70703L12.667 6.25195C11.8316 6.04634 10.8766 5.96271 9.99997 5.96289C9.12601 5.96314 8.17608 6.04745 7.34372 6.25098L5.80075 4.70703C5.58058 4.48669 5.47527 4.17592 5.51657 3.86719C5.55793 3.55862 5.74053 3.28653 6.01071 3.13184L6.01266 3.13086L6.01559 3.12988L6.04294 3.11426C6.06038 3.1046 6.08518 3.09123 6.1152 3.0752C6.17564 3.04292 6.26155 2.99857 6.36813 2.94629C6.58112 2.84184 6.88283 2.70321 7.24411 2.56543C7.95306 2.29512 8.95738 2 10.0048 2Z" fill="#000000"/>
</svg>
