<svg xmlns="http://www.w3.org/2000/svg" width="24" height="24" viewBox="0 0 24 24" fill="none"><rect width="24" height="24" fill="none"/>
<path d="M13.0003 4.08398C15.8376 4.56034 18.0003 7.02723 18.0003 10V13.0752C18.0003 13.215 18.0295 13.3537 18.0862 13.4814L19.2893 16.1875C19.8769 17.5099 18.9082 18.9997 17.4612 19H15.0003L14.9964 19.1543C14.9161 20.7393 13.6051 21.9997 12.0003 22C10.3952 22 9.08448 20.7394 9.00416 19.1543L9.00026 19H6.53932C5.09201 19 4.12339 17.5101 4.71119 16.1875L5.91432 13.4814C5.971 13.3537 6.00026 13.2149 6.00026 13.0752V10C6.00027 7.02705 8.16261 4.56012 11.0003 4.08398V2H13.0003V4.08398ZM11.0051 19.1025C11.0565 19.6066 11.4826 20 12.0003 20C12.5523 19.9997 13.0003 19.5521 13.0003 19H11.0003L11.0051 19.1025ZM12.0003 6C9.79112 6 8.00026 7.79086 8.00026 10V13.0752C8.00025 13.4949 7.91189 13.9104 7.74147 14.2939L6.53932 17H17.4612L16.259 14.2939C16.0886 13.9104 16.0003 13.495 16.0003 13.0752V10C16.0003 7.79103 14.2092 6.00028 12.0003 6Z" fill="#000000"/>
</svg>
