<svg xmlns="http://www.w3.org/2000/svg" width="24" height="24" viewBox="0 0 24 24" fill="none"><rect width="24" height="24" fill="none"/>
<path d="M8 4H6C4.89543 4 4 4.89543 4 6V18C4 19.1046 4.89543 20 6 20H8V22H6C3.79086 22 2 20.2091 2 18V6C2 3.79086 3.79086 2 6 2H8V4Z" fill="#000000"/>
<path d="M18 2C20.2091 2 22 3.79086 22 6V18C22 20.2091 20.2091 22 18 22H16V20H18C19.1046 20 20 19.1046 20 18V6C20 4.89543 19.1046 4 18 4H16V2H18Z" fill="#000000"/>
<path d="M16.207 9.20605L9.20703 16.2061L7.79297 14.792L14.793 7.79199L16.207 9.20605Z" fill="#000000"/>
<path d="M14.5 12.999C15.3284 12.999 16 13.6706 16 14.499C16 15.3275 15.3284 15.999 14.5 15.999C13.6716 15.999 13 15.3275 13 14.499C13 13.6706 13.6716 12.999 14.5 12.999Z" fill="#000000"/>
<path d="M9.5 7.99902C10.3284 7.99902 11 8.6706 11 9.49902C11 10.3275 10.3284 10.999 9.5 10.999C8.67157 10.999 8 10.3275 8 9.49902C8 8.6706 8.67157 7.99902 9.5 7.99902Z" fill="#000000"/>
</svg>
