<svg xmlns="http://www.w3.org/2000/svg" width="20" height="20" viewBox="0 0 20 20" fill="none"><rect width="20" height="20" fill="none"/>
<path d="M10.5 2C12.2632 2 13.7212 3.3039 13.9639 5H17V18H3V13H4.5C5.32843 13 6 12.3284 6 11.5C6 10.6716 5.32843 10 4.5 10H3V5H7.03613C7.27874 3.30388 8.73679 2 10.5 2ZM10.5 4C9.72334 4 9.08461 4.59028 9.00781 5.34668L9 5.5V7H5V8.03516C6.69617 8.27775 8 9.73675 8 11.5C8 13.2632 6.6961 14.7212 5 14.9639V16H15V7H12V5.5C12 4.67157 11.3284 4 10.5 4Z" fill="#000000"/>
</svg>
