<svg xmlns="http://www.w3.org/2000/svg" width="24" height="24" viewBox="0 0 24 24" fill="none"><rect width="24" height="24" fill="none"/>
<path d="M22.207 15.207L15.207 22.207L13.793 20.793L20.793 13.793L22.207 15.207Z" fill="#000000"/>
<path d="M15.5996 2C17.4774 2 19 3.52262 19 5.40039V5.5C19 6.06339 18.8654 6.59494 18.6289 7.06641C19.9838 7.35546 21 8.55888 21 10V12H19V10C19 9.44772 18.5523 9 18 9H6C5.44772 9 5 9.44772 5 10V11C5 11.5523 5.44772 12 6 12H12V14H6V18C6 19.1046 6.89543 20 8 20H12V22H8C5.79086 22 4 20.2091 4 18V13.2314C3.3876 12.6822 3 11.8874 3 11V10C3 8.55921 4.01571 7.35581 5.37012 7.06641C5.13375 6.59503 5 6.06323 5 5.5V5.40039C5 3.52262 6.52262 2 8.40039 2C9.85863 2.00012 11.1573 2.67961 12 3.73828C12.8427 2.67961 14.1414 2.00012 15.5996 2ZM8.40039 4C7.62719 4 7 4.62719 7 5.40039V5.5C7 6.32843 7.67157 7 8.5 7H11V6.59961C10.9998 5.16398 9.83602 4.00021 8.40039 4ZM15.5996 4C14.164 4.00021 13.0002 5.16398 13 6.59961V7H15.5C16.3284 7 17 6.32843 17 5.5V5.40039C17 4.62719 16.3728 4 15.5996 4Z" fill="#000000"/>
<path d="M20.5 19C21.3284 19 22 19.6716 22 20.5C22 21.3284 21.3284 22 20.5 22C19.6716 22 19 21.3284 19 20.5C19 19.6716 19.6716 19 20.5 19Z" fill="#000000"/>
<path d="M15.5 14C16.3284 14 17 14.6716 17 15.5C17 16.3284 16.3284 17 15.5 17C14.6716 17 14 16.3284 14 15.5C14 14.6716 14.6716 14 15.5 14Z" fill="#000000"/>
</svg>
