<svg xmlns="http://www.w3.org/2000/svg" width="20" height="20" viewBox="0 0 20 20" fill="none"><rect width="20" height="20" fill="none"/>
<path d="M17.9994 14C15.2383 14.0004 12.9994 16.2388 12.9994 19H11.4994C11.4994 15.4104 14.4099 12.5004 17.9994 12.5V14Z" fill="#000000"/>
<path d="M17.9994 19H14.9994C14.9994 17.3434 16.3429 16.0004 17.9994 16V19Z" fill="#000000"/>
<path d="M14.3002 2.9502C15.266 2.95102 16.0502 3.73518 16.0502 4.70117V10.5713L16.3637 11.4502L5.22791 11.4512L3.76405 15.5508H9.9994V17.0508H2.69959C2.45636 17.0507 2.22681 16.9319 2.08631 16.7334C1.9461 16.5343 1.91191 16.2782 1.99354 16.0488L3.94959 10.5713V4.70117C3.94959 3.73481 4.73328 2.95041 5.69959 2.9502H14.3002ZM5.69959 4.45117C5.56171 4.45139 5.44959 4.56323 5.44959 4.70117V9.95117H14.5502V4.70117C14.5502 4.56361 14.4375 4.452 14.3002 4.45117H5.69959Z" fill="#000000"/>
<path d="M11.9994 14.4502H7.9994L8.4994 13H11.4994L11.9994 14.4502Z" fill="#000000"/>
</svg>
