<svg xmlns="http://www.w3.org/2000/svg" width="24" height="24" viewBox="0 0 24 24" fill="none"><rect width="24" height="24" fill="none"/>
<path d="M13 11C13.5523 11 14 11.4477 14 12C13.9998 12.5521 13.5522 13 13 13C12.4478 13 12.0002 12.5521 12 12C12 11.4477 12.4477 11 13 11Z" fill="#000000"/>
<path d="M20 4.70801V19.292L10.3066 21.5732L8 20.0352V3.96484L10.3066 2.42676L20 4.70801ZM10 5.03516V18.9648L10.6924 19.4268L18 17.707V6.29199L10.6924 4.57227L10 5.03516Z" fill="#000000"/>
<path d="M6 20H4V4H6V20Z" fill="#000000"/>
</svg>
