<svg xmlns="http://www.w3.org/2000/svg" width="20" height="20" viewBox="0 0 20 20" fill="none"><rect width="20" height="20" fill="none"/>
<path d="M14.25 7.99902C14.6642 7.99902 15 8.33481 15 8.74902C15 9.16324 14.6642 9.49902 14.25 9.49902H12.75C12.3358 9.49902 12 9.16324 12 8.74902C12 8.33481 12.3358 7.99902 12.75 7.99902H14.25Z" fill="#000000"/>
<path d="M14.4668 1.94922C14.6656 1.94929 14.8565 2.02835 14.9971 2.16895C15.1376 2.30959 15.2168 2.50037 15.2168 2.69922V5.00684C16.7724 5.11793 18 6.41507 18 7.99902V11.999L17.9961 12.1533C17.9166 13.722 16.6321 14.9703 15.0498 14.9961V18.0488H4.9502V14.9971L4.8457 14.9951C3.31166 14.9174 2.08163 13.6874 2.00391 12.1533L2 11.999V7.99902C2 6.41507 3.22755 5.11793 4.7832 5.00684V2.69922C4.7832 2.28501 5.11899 1.94922 5.5332 1.94922H14.4668ZM6.4502 16.5488H13.5498V12.749H6.4502V16.5488ZM5 6.49902C4.17157 6.49902 3.5 7.1706 3.5 7.99902V11.999C3.5 12.8108 4.14486 13.4698 4.9502 13.4961V11.249H15.0498V13.4961C15.8551 13.4698 16.5 12.8108 16.5 11.999V7.99902C16.5 7.1706 15.8284 6.49902 15 6.49902H5ZM6.2832 4.99902H13.7168V3.44922H6.2832V4.99902Z" fill="#000000"/>
</svg>
