<svg xmlns="http://www.w3.org/2000/svg" width="24" height="24" viewBox="0 0 24 24" fill="none"><rect width="24" height="24" fill="none"/>
<path d="M17 3C19.2091 3 21 4.79086 21 7V17C21 19.2091 19.2091 21 17 21H7C4.79086 21 3 19.2091 3 17V7C3 4.79086 4.79086 3 7 3H17ZM10.0049 13.0059C9.18913 12.1902 7.85505 12.2317 7.0918 13.0967L5 15.4668V17.001C5.00036 18.1052 5.89565 19.001 7 19.001H16.001L10.0049 13.0059ZM15.5 6C14.1193 6 13 7.11929 13 8.5C13 9.88071 14.1193 11 15.5 11C16.8807 11 18 9.88071 18 8.5C18 7.11929 16.8807 6 15.5 6Z" fill="#000000"/>
</svg>
