<svg xmlns="http://www.w3.org/2000/svg" width="20" height="20" viewBox="0 0 20 20" fill="none"><rect width="20" height="20" fill="none"/>
<path d="M19 19H11V17H19V19Z" fill="#000000"/>
<path d="M4.34277 12C5.05911 14.0261 6.83216 15.5521 9 15.916V17.9375C5.72176 17.5287 3.05937 15.1369 2.25195 12H4.34277Z" fill="#000000"/>
<path d="M18.7578 13.9658L11.2578 15.9658L10.7422 14.0342L18.2422 12.0342L18.7578 13.9658Z" fill="#000000"/>
<path d="M10 10H2C2 8.94943 2.20734 7.90908 2.60938 6.93848C3.01141 5.96795 3.59995 5.08559 4.34277 4.34277C5.08559 3.59995 5.96795 3.01141 6.93848 2.60938C7.90908 2.20734 8.94943 2 10 2V10ZM7.7041 4.45703C6.97615 4.75856 6.31496 5.20066 5.75781 5.75781C5.20066 6.31496 4.75856 6.97615 4.45703 7.7041C4.41656 7.80181 4.37893 7.90051 4.34375 8H8V4.34375C7.90051 4.37893 7.80181 4.41656 7.7041 4.45703Z" fill="#000000"/>
<path d="M12 2.25195C15.4504 3.14003 18 6.27236 18 10H16C16 7.38765 14.3303 5.1655 12 4.3418V2.25195Z" fill="#000000"/>
</svg>
