<svg xmlns="http://www.w3.org/2000/svg" width="24" height="24" viewBox="0 0 24 24" fill="none"><rect width="24" height="24" fill="none"/>
<path d="M9.40015 2.46342C11.0688 1.796 12.9307 1.79512 14.5994 2.46244L14.8718 2.57181L15.3943 2.7808L16.0222 6.54642C16.2904 8.15488 17.0536 9.64054 18.2068 10.7935L18.4998 11.0865V15.1451L17.9128 15.4107C16.3481 16.1219 14.6815 16.5287 12.9998 16.6363L13.0007 22.0005L11.0007 21.9995L10.9998 16.6236C9.30978 16.4929 7.63824 16.0606 6.07495 15.3277L5.49976 15.0572V11.0865L5.79272 10.7935C6.94568 9.64043 7.70993 8.15478 7.97827 6.54642L8.6062 2.7808L9.40015 2.46342ZM13.6062 4.22904C12.5638 3.87525 11.4337 3.87484 10.3914 4.22904L9.95093 6.87455C9.63739 8.75495 8.78338 10.5006 7.49878 11.9009V13.7681C10.3751 14.9392 13.6119 14.9687 16.4988 13.8384V11.9009C15.2149 10.501 14.3619 8.75517 14.0486 6.87552L13.6062 4.22904Z" fill="#000000"/>
</svg>
