<svg xmlns="http://www.w3.org/2000/svg" width="20" height="20" viewBox="0 0 20 20" fill="none"><rect width="20" height="20" fill="none"/>
<path d="M15.2626 13.0596C15.425 12.9727 15.6229 12.982 15.7763 13.084L18.7763 15.084C18.9152 15.1767 18.9988 15.333 18.9989 15.5C18.9988 15.6671 18.9153 15.8233 18.7763 15.916L15.7763 17.916C15.6229 18.018 15.425 18.0273 15.2626 17.9404C15.1007 17.8533 14.999 17.6839 14.9989 17.5V16.25C13.7566 16.2503 12.749 17.2577 12.7489 18.5V19H11.2489V18.5C11.249 16.4292 12.9282 14.7503 14.9989 14.75V13.5L15.0038 13.4316C15.0255 13.275 15.1209 13.1358 15.2626 13.0596Z" fill="#000000"/>
<path d="M14.2997 2.9502C15.2655 2.95101 16.0497 3.73518 16.0497 4.70117V10.5713L16.3632 11.4502L5.22742 11.4512L3.76356 15.5508H8.99891V17.0508H2.6991C2.45587 17.0507 2.22632 16.9319 2.08582 16.7334C1.94561 16.5343 1.91142 16.2782 1.99305 16.0488L3.9491 10.5713V4.70117C3.9491 3.73481 4.73279 2.95041 5.6991 2.9502H14.2997ZM5.6991 4.45117C5.56122 4.45139 5.4491 4.56323 5.4491 4.70117V9.95117H14.5497V4.70117C14.5497 4.56361 14.4371 4.45199 14.2997 4.45117H5.6991Z" fill="#000000"/>
<path d="M11.9989 14.4502H7.99891L8.49891 13H11.4989L11.9989 14.4502Z" fill="#000000"/>
</svg>
