<svg xmlns="http://www.w3.org/2000/svg" width="24" height="24" viewBox="0 0 24 24" fill="none"><rect width="24" height="24" fill="none"/>
<path d="M19 18H20.5L20.5674 18.0049C20.7223 18.026 20.8604 18.1188 20.9375 18.2578C21.0254 18.4167 21.02 18.6106 20.9238 18.7646L18.4238 22.7646C18.3325 22.9108 18.1723 23 18 23C17.8277 23 17.6675 22.9108 17.5762 22.7646L15.0762 18.7646C14.98 18.6106 14.9746 18.4167 15.0625 18.2578C15.1506 18.0989 15.3183 18 15.5 18H17V14H19V18Z" fill="#000000"/>
<path d="M18 4C20.2089 4 22 5.79066 22 8V12H20V11H4V16C4 17.1046 4.89543 18 6 18H12V20H6C3.79086 20 2 18.2091 2 16V8C2 5.79086 3.79086 4 6 4H18ZM6 6C4.89543 6 4 6.89543 4 8V9H20V8C20 6.89563 19.1048 6 18 6H6Z" fill="#000000"/>
<path d="M11 16H6V14H11V16Z" fill="#000000"/>
</svg>
