<svg xmlns="http://www.w3.org/2000/svg" width="20" height="20" viewBox="0 0 20 20" fill="none"><rect width="20" height="20" fill="none"/>
<path d="M12.3008 1.94922C14.3717 1.94938 16.0508 3.62825 16.0508 5.69922V14.2998C16.0506 16.3706 14.3716 18.0496 12.3008 18.0498H7.7002C5.62923 18.0498 3.95035 16.3707 3.9502 14.2998V5.69922C3.9502 3.62815 5.62913 1.94922 7.7002 1.94922H12.3008ZM9 4C8.44772 4 8 4.44772 8 5C8 5.55228 8.44772 6 9 6H11C11.5523 6 12 5.55228 12 5C12 4.44772 11.5523 4 11 4H9Z" fill="#000000"/>
</svg>
