<svg xmlns="http://www.w3.org/2000/svg" width="20" height="20" viewBox="0 0 20 20" fill="none"><rect width="20" height="20" fill="none"/>
<path d="M12.2199 3.21972C13.4792 1.96067 15.5211 1.96056 16.7804 3.21972C18.0397 4.47901 18.0395 6.52085 16.7804 7.78026L7.34878 17.2119L3.09292 17.7441C2.86336 17.7728 2.63347 17.6938 2.46987 17.5303C2.30637 17.3667 2.22739 17.1367 2.25601 16.9072L2.78823 12.6514L12.2199 3.21972ZM4.21206 13.3476L3.86343 16.1357L6.65152 15.7871L13.2326 9.20507C13.0953 7.92164 12.0769 6.90164 10.7931 6.76561L4.21206 13.3476ZM15.7199 4.28026C15.0464 3.60689 13.954 3.60701 13.2804 4.28026L12.0255 5.53417C13.1444 5.96479 14.0347 6.85408 14.466 7.97265L15.7199 6.71972C16.3932 6.04609 16.3934 4.95377 15.7199 4.28026Z" fill="#000000"/>
<path d="M18.0001 17.75H11.0001V16.25H18.0001V17.75Z" fill="#000000"/>
</svg>
