<svg xmlns="http://www.w3.org/2000/svg" width="20" height="20" viewBox="0 0 20 20" fill="none"><rect width="20" height="20" fill="none"/>
<path d="M15.5664 10.5C16.3909 10.5 16.6321 11.0213 16.8408 11.6807L19 18.5H17.4023L16.917 16.8789H14.0254L13.5029 18.5H12L14.2656 11.6807C14.4853 11.0192 14.7417 10.5001 15.5664 10.5ZM14.4629 15.5098H16.499L15.5283 12.2773H15.4902L14.4629 15.5098Z" fill="#000000"/>
<path d="M8.7002 1.9502C10.2189 1.9503 11.4502 3.18148 11.4502 4.7002V5.9502H13.2998C14.5763 5.9502 15.6461 6.82083 15.9561 8H14.335C14.1102 7.66836 13.7306 7.4502 13.2998 7.4502H9.9502V4.7002C9.9502 4.00991 9.39046 3.4503 8.7002 3.4502H5.4502V16.5498H10V18.0498H3.9502V1.9502H8.7002Z" fill="#000000"/>
</svg>
