<svg xmlns="http://www.w3.org/2000/svg" width="20" height="20" viewBox="0 0 20 20" fill="none"><rect width="20" height="20" fill="none"/>
<path d="M10 2C14.4183 2 18 5.58172 18 10C18 14.4183 14.4183 18 10 18C5.58172 18 2 14.4183 2 10C2 5.58172 5.58172 2 10 2ZM8.52148 11C8.64143 14.1463 9.31927 16 10 16C10.6807 16 11.3596 14.1464 11.4795 11H8.52148ZM4.08496 11C4.39544 12.85 5.55092 14.4126 7.14258 15.2764C7.10648 15.1618 7.07039 15.0475 7.03906 14.9326C6.7555 13.8929 6.57434 12.5565 6.51953 11H4.08496ZM13.4805 11C13.4257 12.5565 13.2445 13.8929 12.9609 14.9326C12.9296 15.0476 12.8926 15.1617 12.8564 15.2764C14.4485 14.4127 15.6045 12.8503 15.915 11H13.4805ZM7.14258 4.72266C5.55071 5.5864 4.39546 7.14984 4.08496 9H6.51953C6.57434 7.44353 6.7555 6.10709 7.03906 5.06738C7.07047 4.95222 7.10638 4.83753 7.14258 4.72266ZM10 4C9.31927 4 8.64143 5.85367 8.52148 9H11.4795C11.3596 5.85365 10.6807 4 10 4ZM12.9609 5.06738C13.2445 6.10709 13.4257 7.44353 13.4805 9H15.915C15.6045 7.14955 14.4487 5.58631 12.8564 4.72266C12.8927 4.83762 12.9295 4.95212 12.9609 5.06738Z" fill="#000000"/>
</svg>
