<svg xmlns="http://www.w3.org/2000/svg" width="20" height="20" viewBox="0 0 20 20" fill="none"><rect width="20" height="20" fill="none"/>
<path d="M8.5 2.25C11.9518 2.25 14.75 5.04822 14.75 8.5C14.75 9.95553 14.2503 11.2932 13.416 12.3555L17.0303 15.9697L15.9697 17.0303L12.3555 13.416C11.2932 14.2503 9.95553 14.75 8.5 14.75C5.04822 14.75 2.25 11.9518 2.25 8.5C2.25 5.04822 5.04822 2.25 8.5 2.25ZM8.5 3.75C5.87665 3.75 3.75 5.87665 3.75 8.5C3.75 11.1234 5.87665 13.25 8.5 13.25C11.1234 13.25 13.25 11.1234 13.25 8.5C13.25 5.87665 11.1234 3.75 8.5 3.75Z" fill="#000000"/>
</svg>
