<svg xmlns="http://www.w3.org/2000/svg" width="20" height="20" viewBox="0 0 20 20" fill="none"><rect width="20" height="20" fill="none"/>
<path d="M10.4697 10.4697C10.6777 10.2618 10.9883 10.1946 11.2637 10.2979L19.2637 13.2979C19.5502 13.4055 19.7428 13.6765 19.75 13.9824C19.757 14.2885 19.5772 14.5687 19.2959 14.6895L16.0713 16.0713L14.6895 19.2959C14.5687 19.5772 14.2885 19.757 13.9824 19.75C13.6765 19.7428 13.4055 19.5501 13.2979 19.2637L10.2979 11.2637C10.1946 10.9883 10.2618 10.6777 10.4697 10.4697ZM14.0459 16.9873L14.9297 14.9287L16.9873 14.0459L12.2812 12.2812L14.0459 16.9873Z" fill="#000000"/>
<path d="M16 3C17.1046 3 18 3.89543 18 5V10H16.5V5C16.5 4.72386 16.2761 4.5 16 4.5H4C3.72386 4.5 3.5 4.72386 3.5 5V12C3.5 12.2761 3.72386 12.5 4 12.5H8.7002V18H5V16.5H6C6.69036 16.5 7.25 15.9404 7.25 15.25V14H4C2.89543 14 2 13.1046 2 12V5C2 3.89543 2.89543 3 4 3H16Z" fill="#000000"/>
</svg>
