<svg xmlns="http://www.w3.org/2000/svg" width="24" height="24" viewBox="0 0 24 24" fill="none"><rect width="24" height="24" fill="none"/>
<path d="M12 8C14.2091 8.00008 16 9.79091 16 12C16 14.2091 14.2091 15.9999 12 16C9.79086 16 8 14.2091 8 12C8 9.79086 9.79086 8 12 8ZM12 10C10.8954 10 10 10.8954 10 12C10 13.1046 10.8954 14 12 14C13.1045 13.9999 14 13.1045 14 12C14 10.8955 13.1045 10.0001 12 10Z" fill="#000000"/>
<path d="M15.6875 4.90137C15.8978 5.01082 16.1022 5.12988 16.3008 5.25684L19.3008 4.64355L22.0215 9.35742L19.9902 11.6445C19.9956 11.7619 20 11.8804 20 12C20 12.119 19.9956 12.2368 19.9902 12.3535L22.0215 14.6436L19.3008 19.3574L16.3008 18.7412C16.1021 18.8682 15.8978 18.9872 15.6875 19.0967L14.7207 22H9.2793L8.31055 19.0957C8.10066 18.9863 7.89642 18.868 7.69824 18.7412L4.7002 19.3574L1.97949 14.6436L2.45801 14.1045L4.00781 12.3545C4.00264 12.237 4 12.1188 4 12C4 11.8806 4.0026 11.7617 4.00781 11.6436L1.97949 9.35645L4.7002 4.64355L7.69727 5.25684C7.89562 5.12993 8.10042 5.01187 8.31055 4.90234L9.05176 2.68359L9.2793 2H14.7207L15.6875 4.90137ZM9.93652 6.34766L9.53809 6.52832C9.16963 6.69442 8.82001 6.89667 8.49414 7.13184L8.13867 7.38867L5.71191 6.8916L4.43164 9.1084L5.7832 10.6318L6.07422 10.959L6.03027 11.3945C6.01036 11.5936 6 11.7956 6 12L6.00781 12.3037C6.01287 12.4046 6.02033 12.5049 6.03027 12.6045L6.07324 13.04L4.43164 14.8906L5.71094 17.1074L8.13867 16.6104L8.49414 16.8672C8.73859 17.0436 8.99655 17.2016 9.26562 17.3398L9.53809 17.4707L9.9375 17.6514L10.0752 18.0664L10.7197 20H13.2793L13.9238 18.0664L14.0615 17.6514L14.4609 17.4707C14.8302 17.3043 15.1802 17.1022 15.5059 16.8672L15.8613 16.6104L18.2891 17.1074L19.5674 14.8916L18.2158 13.3682L17.9258 13.04L17.9688 12.6045C17.9889 12.4026 18 12.2012 18 12C18 11.7982 17.9889 11.5965 17.9688 11.3945L17.9248 10.959L19.5674 9.10742L18.2881 6.8916L15.8613 7.38867L15.5059 7.13184C15.1801 6.89679 14.8301 6.69464 14.4609 6.52832L14.0615 6.34766L13.9238 5.93262L13.2793 4H10.7197L9.93652 6.34766Z" fill="#000000"/>
</svg>
