<svg xmlns="http://www.w3.org/2000/svg" width="24" height="24" viewBox="0 0 24 24" fill="none"><rect width="24" height="24" fill="none"/>
<path d="M11 13.5C11 16.6153 9.24138 19.4975 6.44727 20.8945L5.55273 19.1055C7.66155 18.0511 9 15.8664 9 13.5V8.5L11 8.5L11 13.5Z" fill="#000000"/>
<path d="M22 13.5C22 16.6153 20.2414 19.4975 17.4473 20.8945L16.5527 19.1055C18.6615 18.0511 20 15.8664 20 13.5V8.5L22 8.5V13.5Z" fill="#000000"/>
<path d="M4 10.5C4 11.8807 5.11929 13 6.5 13C7.88071 13 9 11.8807 9 10.5L9 7.5C9 6.11929 7.88071 5 6.5 5C5.11929 5 4 6.11929 4 7.5L4 10.5ZM2 7.5C2 5.01472 4.01472 3 6.5 3C8.98528 3 11 5.01472 11 7.5V10.5C11 12.9853 8.98528 15 6.5 15C4.01472 15 2 12.9853 2 10.5L2 7.5Z" fill="#000000"/>
<path d="M15 10.5C15 11.8807 16.1193 13 17.5 13C18.8807 13 20 11.8807 20 10.5V7.5C20 6.11929 18.8807 5 17.5 5C16.1193 5 15 6.11929 15 7.5V10.5ZM13 7.5C13 5.01472 15.0147 3 17.5 3C19.9853 3 22 5.01472 22 7.5V10.5C22 12.9853 19.9853 15 17.5 15C15.0147 15 13 12.9853 13 10.5V7.5Z" fill="#000000"/>
</svg>
