<svg xmlns="http://www.w3.org/2000/svg" width="20" height="20" viewBox="0 0 20 20" fill="none"><rect width="20" height="20" fill="none"/>
<path d="M9.00049 7.99968C10.6571 7.9999 12.0004 9.34303 12.0005 10.9997V14.9997C12.0003 16.6563 10.6571 17.9995 9.00049 17.9997H5.00049C3.34374 17.9997 2.00066 16.6564 2.00049 14.9997V10.9997C2.00057 9.3429 3.34369 7.99968 5.00049 7.99968H9.00049ZM5.00049 9.49968C4.17211 9.49968 3.50057 10.1713 3.50049 10.9997V14.9997C3.50066 15.828 4.17217 16.4997 5.00049 16.4997H9.00049C9.82863 16.4995 10.5003 15.8278 10.5005 14.9997V10.9997C10.5004 10.1715 9.82868 9.4999 9.00049 9.49968H5.00049Z" fill="#000000"/>
<path d="M11.2231 1.58464C11.3765 1.48253 11.5743 1.47328 11.7368 1.56023C11.8988 1.64739 12.0005 1.81662 12.0005 2.00066V3.25554C13.1486 3.30174 14.2641 3.66335 15.2222 4.30339C16.2496 4.99006 17.0509 5.96641 17.5239 7.10808C17.9967 8.24987 18.1204 9.50734 17.8794 10.7194C17.6381 11.9313 17.0422 13.0448 16.1685 13.9186L15.1079 12.8581C15.772 12.194 16.2253 11.3475 16.4087 10.4264C16.5918 9.50541 16.4974 8.54994 16.1382 7.6823C15.7787 6.81456 15.1691 6.07233 14.3882 5.55047C13.6769 5.07533 12.8516 4.80458 12.0005 4.75945V6.00066C12.0002 6.18451 11.8987 6.35406 11.7368 6.44109C11.5745 6.52778 11.3764 6.51859 11.2231 6.41668L8.22314 4.41668C8.08423 4.32407 8.00071 4.16759 8.00049 4.00066C8.00049 3.83365 8.08429 3.67741 8.22314 3.58464L11.2231 1.58464Z" fill="#000000"/>
</svg>
