<svg xmlns="http://www.w3.org/2000/svg" width="20" height="20" viewBox="0 0 20 20" fill="none"><rect width="20" height="20" fill="none"/>
<path d="M10 2.25C10.289 2.25 10.5522 2.41602 10.6768 2.67676L15.6348 13.0645C15.8753 13.5687 16 14.121 16 14.6797V18H14.5V14.6797C14.5 14.3443 14.4247 14.0126 14.2803 13.71L12.3066 9.57617C11.6674 9.81896 10.9917 9.96095 10.3037 9.99316C9.41168 10.0349 8.52414 9.88873 7.69336 9.57324L5.71973 13.71C5.57528 14.0126 5.5 14.3443 5.5 14.6797V18H4V14.6797C4 14.121 4.12466 13.5687 4.36523 13.0645L9.32324 2.67676L9.37598 2.58398C9.51371 2.37729 9.74699 2.25 10 2.25ZM8.34082 8.21582C8.94626 8.42863 9.58868 8.52427 10.2334 8.49414C10.7211 8.4713 11.2 8.37449 11.6572 8.21387L10 4.74121L8.34082 8.21582Z" fill="#000000"/>
</svg>
