<svg xmlns="http://www.w3.org/2000/svg" width="24" height="24" viewBox="0 0 24 24" fill="none"><rect width="24" height="24" fill="none"/>
<path d="M17.5 13C19.9853 13 22 15.0147 22 17.5C22 18.3804 21.7456 19.2009 21.3086 19.8945L23.207 21.793L21.793 23.207L19.8945 21.3086C19.2009 21.7456 18.3804 22 17.5 22C15.0147 22 13 19.9853 13 17.5C13 15.0147 15.0147 13 17.5 13ZM17.5 15C16.1193 15 15 16.1193 15 17.5C15 18.8807 16.1193 20 17.5 20C18.8807 20 20 18.8807 20 17.5C20 16.1193 18.8807 15 17.5 15Z" fill="#000000"/>
<path d="M15.001 2C17.2099 2.00026 19.001 3.79102 19.001 6V11H17.001V6C17.001 4.89559 16.1053 4.00026 15.001 4H9C7.89543 4 7 4.89543 7 6V18C7 19.1046 7.89543 20 9 20H11.5V22H9C6.79086 22 5 20.2091 5 18V6C5 3.79086 6.79086 2 9 2H15.001Z" fill="#000000"/>
<path d="M13 5C13.5523 5 14 5.44772 14 6C14 6.55228 13.5523 7 13 7H11C10.4477 7 10 6.55228 10 6C10 5.44772 10.4477 5 11 5H13Z" fill="#000000"/>
</svg>
