<svg xmlns="http://www.w3.org/2000/svg" width="20" height="20" viewBox="0 0 20 20" fill="none"><rect width="20" height="20" fill="none"/>
<path d="M18.5303 13.5303L13.5 18.5605L10.4697 15.5303L11.5303 14.4697L13.5 16.4395L17.4697 12.4697L18.5303 13.5303Z" fill="#000000"/>
<path d="M7 2.9502C8.22666 2.95033 9.3158 3.5395 10 4.4502C10.6842 3.53949 11.7733 2.95032 13 2.9502H17.9502V11H16.4502V4.4502H13C11.7575 4.45041 10.75 5.45768 10.75 6.7002V11H9.25V6.7002C9.25 5.4577 8.24245 4.45043 7 4.4502H3.5498V14.25H7C7.68359 14.2501 8.32315 14.4353 8.875 14.7549V16.7588C8.4723 16.1513 7.78344 15.7501 7 15.75H2.0498V2.9502H7Z" fill="#000000"/>
</svg>
