<svg xmlns="http://www.w3.org/2000/svg" width="20" height="20" viewBox="0 0 20 20" fill="none"><rect width="20" height="20" fill="none"/>
<path d="M3.75 15C3.75 15.6904 4.30964 16.25 5 16.25H8V17.75H5C3.48122 17.75 2.25 16.5188 2.25 15V12H3.75V15Z" fill="#000000"/>
<path d="M17.75 15C17.75 16.5188 16.5188 17.75 15 17.75H12V16.25H15C15.6904 16.25 16.25 15.6904 16.25 15V12H17.75V15Z" fill="#000000"/>
<path d="M8 3.75H5C4.30964 3.75 3.75 4.30964 3.75 5V8H2.25V5C2.25 3.48122 3.48122 2.25 5 2.25H8V3.75Z" fill="#000000"/>
<path d="M15 2.25C16.5188 2.25 17.75 3.48122 17.75 5V8H16.25V5C16.25 4.30964 15.6904 3.75 15 3.75H12V2.25H15Z" fill="#000000"/>
</svg>
