<svg xmlns="http://www.w3.org/2000/svg" width="20" height="20" viewBox="0 0 20 20" fill="none"><rect width="20" height="20" fill="none"/>
<path d="M18.9805 17.4238L18.0195 18.5761L15.5 16.4765L12.9805 18.5761L12.0195 17.4238L15.5 14.5234L18.9805 17.4238Z" fill="#000000"/>
<path d="M6.77441 2.41986C6.94818 2.27741 7.17713 2.22052 7.39746 2.26459L18 4.38471V8.99994H16.5V5.6142L8 3.914V16.4999H10V17.9999H2V7.99994L6.5 7.24994V2.99994L6.50488 2.91596C6.52663 2.72295 6.62254 2.54442 6.77441 2.41986ZM3.5 9.27045V16.4999H6.5V8.77045L3.5 9.27045Z" fill="#000000"/>
<path d="M18.9805 13.4238L18.0195 14.5761L15.5 12.4765L12.9805 14.5761L12.0195 13.4238L15.5 10.5234L18.9805 13.4238Z" fill="#000000"/>
</svg>
