<svg xmlns="http://www.w3.org/2000/svg" width="24" height="24" viewBox="0 0 24 24" fill="none"><rect width="24" height="24" fill="none"/>
<path d="M19.4619 14.5C19.6725 14.5 19.8566 14.646 19.9092 14.8545L20.0801 15.5332C20.5095 15.6839 20.8998 15.9218 21.2295 16.2266L21.9658 16.0186C22.1663 15.9617 22.3798 16.0487 22.4863 16.2314L22.9346 17.002C23.0455 17.1926 23.0119 17.4362 22.8535 17.5879L22.2725 18.1445C22.307 18.341 22.3252 18.5434 22.3252 18.75C22.3252 18.9566 22.307 19.159 22.2725 19.3555L22.8535 19.9121C23.0119 20.0638 23.0455 20.3074 22.9346 20.498L22.4863 21.2686C22.3798 21.4513 22.1663 21.5383 21.9658 21.4814L21.2295 21.2734C20.8998 21.5782 20.5095 21.8161 20.0801 21.9668L19.9092 22.6455C19.8566 22.854 19.6725 23 19.4619 23H18.5381C18.3276 23 18.1434 22.854 18.0908 22.6455L17.9199 21.9658C17.4911 21.815 17.1017 21.577 16.7725 21.2725L16.0342 21.4814C15.8337 21.5383 15.6202 21.4513 15.5137 21.2686L15.0654 20.498C14.9545 20.3074 14.9881 20.0638 15.1465 19.9121L15.7295 19.3535C15.6952 19.1576 15.6768 18.956 15.6768 18.75C15.6768 18.544 15.6952 18.3424 15.7295 18.1465L15.1465 17.5879C14.9881 17.4362 14.9545 17.1926 15.0654 17.002L15.5137 16.2314C15.6202 16.0487 15.8337 15.9617 16.0342 16.0186L16.7725 16.2275C17.1017 15.923 17.4911 15.685 17.9199 15.5342L18.0908 14.8545C18.1434 14.646 18.3276 14.5 18.5381 14.5H19.4619ZM19.001 17.4736C18.3118 17.4736 17.753 18.0451 17.7529 18.75C17.7529 19.455 18.3117 20.0264 19.001 20.0264C19.6902 20.0263 20.249 19.4549 20.249 18.75C20.2489 18.0452 19.6901 17.4737 19.001 17.4736Z" fill="#000000"/>
<path d="M21 7.94531V12H19V9.05371L12 4.67871L5 9.05371V19H13V21H3V7.94531L12 2.32031L21 7.94531Z" fill="#000000"/>
</svg>
