<svg xmlns="http://www.w3.org/2000/svg" width="20" height="20" viewBox="0 0 20 20" fill="none"><rect width="20" height="20" fill="none"/>
<path d="M16.792 11.2578C17.18 11.2578 17.5649 11.3326 17.9238 11.4785C18.2829 11.6244 18.6097 11.8392 18.8838 12.1113L19.0801 12.3251C19.512 12.8457 19.7539 13.4981 19.7539 14.1787C19.7538 14.9561 19.4379 15.6965 18.8838 16.246L18.8799 16.2499L15.5859 19.4697C15.5087 19.568 15.4083 19.6488 15.2881 19.6992C15.0093 19.8159 14.6871 19.7539 14.4717 19.5419L11.125 16.247L11.123 16.2451C10.5694 15.6955 10.254 14.9548 10.2539 14.1777C10.2539 13.4007 10.5696 12.6608 11.123 12.1113C11.3971 11.8392 11.724 11.6244 12.083 11.4785C12.4421 11.3325 12.8276 11.2578 13.2158 11.2578C13.6039 11.2578 13.9887 11.3326 14.3477 11.4785C14.5826 11.5739 14.8013 11.7023 15.0029 11.8535C15.2047 11.7021 15.424 11.5741 15.6592 11.4785C16.0182 11.3325 16.4038 11.2578 16.792 11.2578ZM16.792 12.7578C16.596 12.7578 16.4021 12.7956 16.2236 12.8681C16.0454 12.9406 15.8865 13.046 15.7559 13.1757L15.752 13.1796L15.5273 13.3984C15.2359 13.6829 14.7709 13.683 14.4795 13.3984L14.2559 13.1796L14.251 13.1757C14.1202 13.0459 13.9615 12.9406 13.7832 12.8681C13.6048 12.7956 13.4117 12.7578 13.2158 12.7578C13.02 12.7578 12.8268 12.7957 12.6484 12.8681C12.4701 12.9406 12.3104 13.0459 12.1797 13.1757C11.9025 13.4509 11.7539 13.8107 11.7539 14.1777C11.754 14.5437 11.9018 14.9027 12.1777 15.1777L14.9932 17.9511L17.8271 15.1806C18.1047 14.9054 18.2538 14.5458 18.2539 14.1787C18.2539 13.8574 18.1401 13.5415 17.9258 13.2831L17.8271 13.1757C17.6964 13.046 17.5377 12.9406 17.3594 12.8681C17.1811 12.7956 16.9879 12.7578 16.792 12.7578Z" fill="#000000"/>
<path d="M6.77441 2.41986C6.94818 2.27741 7.17713 2.22052 7.39746 2.26459L18 4.38471V8.99994H16.5V5.6142L8 3.914V16.4999H9V17.9999H2V7.99994L6.5 7.24994V2.99994L6.50488 2.91596C6.52663 2.72295 6.62254 2.54442 6.77441 2.41986ZM3.5 9.27045V16.4999H6.5V8.77045L3.5 9.27045Z" fill="#000000"/>
</svg>
