<svg xmlns="http://www.w3.org/2000/svg" width="20" height="20" viewBox="0 0 20 20" fill="none"><rect width="20" height="20" fill="none"/>
<path d="M18.707 17.293L17.293 18.707L13.4727 14.8867C12.4925 15.5856 11.2957 16 10 16V17.5C9.99985 17.6816 9.90105 17.8495 9.74219 17.9375C9.58341 18.0253 9.3893 18.0199 9.23535 17.9238L5.23535 15.4238C5.08927 15.3325 5.00014 15.1722 5 15C5 14.8277 5.08927 14.6676 5.23535 14.5762L9.23535 12.0762C9.38938 11.98 9.58331 11.9746 9.74219 12.0625C9.90106 12.1506 10 12.3183 10 12.5V14C10.7415 14 11.4341 13.7952 12.0293 13.4434L6.55566 7.96973C6.20373 8.56495 6 9.25835 6 10H4C4 8.70428 4.41199 7.50522 5.11035 6.52441L1.29297 2.70703L2.70703 1.29297L18.707 17.293Z" fill="#000000"/>
<path d="M16 10C16 10.63 15.9018 11.2371 15.7217 11.8076L13.9971 10.083C13.9976 10.0554 14 10.0277 14 10H16Z" fill="#000000"/>
<path d="M10.2578 2.0625C10.4167 1.97455 10.6106 1.97999 10.7646 2.07617L14.7646 4.57617C14.9107 4.66756 15 4.82768 15 5C14.9999 5.17224 14.9107 5.33253 14.7646 5.42383L11.4248 7.51074L8.19141 4.27734C8.76214 4.09713 9.3697 4 10 4V2.5C10 2.3183 10.0989 2.15064 10.2578 2.0625Z" fill="#000000"/>
</svg>
