<svg xmlns="http://www.w3.org/2000/svg" width="20" height="20" viewBox="0 0 20 20" fill="none"><rect width="20" height="20" fill="none"/>
<path d="M12.292 3C12.9219 3.00001 13.5329 3.21598 14.0225 3.6123L19 7.64258V13C19 13.8856 18.3419 14.6151 17.4883 14.7314C17.3714 16.0036 16.3026 17 15 17C13.7037 17 12.6381 16.0133 12.5127 14.75H7.9873C7.86186 16.0133 6.79633 17 5.5 17C4.20367 17 3.13814 16.0133 3.0127 14.75H2.75C1.7835 14.75 1 13.9665 1 13V5.75C1 4.23122 2.23122 3 3.75 3H12.292ZM5.5 13.5C4.94772 13.5 4.5 13.9477 4.5 14.5C4.5 15.0523 4.94772 15.5 5.5 15.5C6.05228 15.5 6.5 15.0523 6.5 14.5C6.5 13.9477 6.05228 13.5 5.5 13.5ZM15 13.5C14.4477 13.5 14 13.9477 14 14.5C14 15.0523 14.4477 15.5 15 15.5C15.5523 15.5 16 15.0523 16 14.5C16 13.9477 15.5523 13.5 15 13.5ZM3.75 4.5C3.05964 4.5 2.5 5.05964 2.5 5.75V7.5H9V9H2.5V13C2.5 13.1381 2.61193 13.25 2.75 13.25H3.33691C3.76933 12.5033 4.57509 12 5.5 12C6.42491 12 7.23067 12.5033 7.66309 13.25H12.8369C13.2693 12.5033 14.0751 12 15 12C15.9249 12 16.7307 12.5033 17.1631 13.25H17.25C17.3881 13.25 17.5 13.1381 17.5 13V8.35742L13.0781 4.77832C12.8556 4.59831 12.5782 4.50001 12.292 4.5H3.75Z" fill="#000000"/>
</svg>
