<svg xmlns="http://www.w3.org/2000/svg" width="20" height="20" viewBox="0 0 20 20" fill="none"><rect width="20" height="20" fill="none"/>
<path d="M16.5003 2C16.8468 2.00014 17.1688 2.17991 17.3509 2.47461C17.5329 2.76931 17.5497 3.13745 17.3949 3.44727L13.4769 11.2822L13.0785 15.2676C13.0112 15.9392 12.7537 16.8359 11.9476 17.3867C11.5124 17.6839 10.8901 17.9838 10.1058 18.0459C9.30986 18.1088 8.42354 17.9201 7.48569 17.3574L7.05014 17.0967L6.52182 11.2783L2.60581 3.44727C2.45085 3.13735 2.46767 2.76939 2.64975 2.47461C2.83198 2.1799 3.15383 2 3.50034 2H16.5003ZM8.30991 10.3838C8.42139 10.6068 8.49046 10.8494 8.51304 11.0977L8.94663 15.8643C9.35826 16.0394 9.69142 16.0731 9.94858 16.0527C10.3012 16.0247 10.5941 15.8893 10.8197 15.7354C10.9169 15.6688 11.0465 15.4851 11.0882 15.0684L11.4867 11.084C11.5109 10.8421 11.5792 10.6061 11.6878 10.3887L14.8822 4H5.1185L8.30991 10.3838Z" fill="#000000"/>
</svg>
