<svg xmlns="http://www.w3.org/2000/svg" width="24" height="24" viewBox="0 0 24 24" fill="none"><rect width="24" height="24" fill="none"/>
<path d="M12 2C18.0523 2 22 6.44772 22 11.5C22 14.5653 20.6057 17.1891 18.6943 19.0322C16.7977 20.8611 14.3093 22 12 22C11.4477 22 11 21.5523 11 21V18.9668C8.50563 18.8043 6.3711 18.0279 4.79395 16.7031C2.99346 15.1906 2 13.0293 2 10.5C2 7.97067 2.99346 5.8094 4.79395 4.29688C6.57805 2.79822 9.07521 2 12 2ZM8 13H12V11H8V13ZM8 9H15V7H8V9Z" fill="#000000"/>
</svg>
