<svg xmlns="http://www.w3.org/2000/svg" width="20" height="20" viewBox="0 0 20 20" fill="none"><rect width="20" height="20" fill="none"/>
<path d="M10.0957 9.5C10.5473 9.5 10.8527 9.63877 11.0713 9.875C11.2843 10.1052 11.4063 10.4195 11.5146 10.749L13.8008 17.7002H11.9297L11.4248 16.0791H8.56738L8.02344 17.7002H6.25L8.65039 10.748C8.76469 10.4169 8.89383 10.1026 9.1123 9.87305C9.33604 9.63812 9.64425 9.50001 10.0957 9.5ZM9.08789 14.5098H10.9287L10.0342 11.6426L9.08789 14.5098Z" fill="#000000"/>
<path d="M10.5 2C13.1492 2 15.3606 3.87313 15.8828 6.36719C17.711 7.11091 19 8.9047 19 11C19 13.4189 17.2822 15.4361 15 15.8994V13.8252C16.1645 13.413 17 12.3057 17 11C17 9.34315 15.6569 8 14 8V7.5C14 5.567 12.433 4 10.5 4C8.567 4 7 5.567 7 7.5V8H6C4.34315 8 3 9.34315 3 11C3 12.3057 3.83548 13.413 5 13.8252V15.8994C2.71781 15.4361 1 13.4189 1 11C1 8.51456 2.8135 6.45274 5.18945 6.06543C5.82052 3.72359 7.95876 2 10.5 2Z" fill="#000000"/>
</svg>
