<svg xmlns="http://www.w3.org/2000/svg" width="20" height="20" viewBox="0 0 20 20" fill="none"><rect width="20" height="20" fill="none"/>
<path d="M15.25 3C16.7673 3 18 4.22684 18 5.74707V14.252C18 15.7719 16.7677 17 15.25 17H4.75C3.23122 17 2 15.7688 2 14.25V5.75C2 4.23122 3.23122 3 4.75 3H15.25ZM3.5 14.25C3.5 14.9404 4.05964 15.5 4.75 15.5H15.25C15.9415 15.5 16.5 14.9412 16.5 14.252V8.5H3.5V14.25ZM4.75 4.5C4.05964 4.5 3.5 5.05964 3.5 5.75V7H16.5V5.74707C16.5 5.05817 15.9418 4.5 15.25 4.5H4.75Z" fill="#000000"/>
</svg>
