<svg xmlns="http://www.w3.org/2000/svg" width="20" height="20" viewBox="0 0 20 20" fill="none"><rect width="20" height="20" fill="none"/>
<path d="M12.876 2.00098C14.7897 2.00101 16.4471 3.33011 16.8623 5.19824L17.8311 9.55957C18.1664 11.0688 17.0177 12.501 15.4717 12.501H13.1982L13.5625 14.0605C14.0393 16.0995 12.4914 18.0508 10.3975 18.0508H10C9.69551 18.0507 9.42555 17.8675 9.30957 17.5947L9.26953 17.4727L8.97461 16.2158C8.5652 14.4759 7.74743 12.8599 6.59082 11.501H3.7002C2.73385 11.501 1.95045 10.7173 1.9502 9.75098V3.75098C1.9502 2.78448 2.7337 2.00098 3.7002 2.00098H12.876ZM7.5 3.50098V10.2637C8.9339 11.8569 9.94358 13.7856 10.4346 15.8721L10.5908 16.54C11.6182 16.4284 12.3434 15.4365 12.1016 14.4023L11.5215 11.9219C11.4694 11.6992 11.5221 11.4645 11.6641 11.2852C11.8063 11.1058 12.0231 11.001 12.252 11.001H15.4717C16.0579 11.001 16.494 10.458 16.3672 9.88574L15.3975 5.52344C15.1346 4.34177 14.0866 3.50101 12.876 3.50098H7.5ZM3.7002 3.50098C3.56212 3.50098 3.4502 3.61291 3.4502 3.75098V9.75098C3.45045 9.88883 3.56228 10.001 3.7002 10.001H6V3.50098H3.7002Z" fill="#000000"/>
</svg>
