<svg xmlns="http://www.w3.org/2000/svg" width="20" height="20" viewBox="0 0 20 20" fill="none"><rect width="20" height="20" fill="none"/>
<path d="M5 10C5.55228 10 6 10.4477 6 11C6 11.5523 5.55228 12 5 12C4.44772 12 4 11.5523 4 11C4 10.4477 4.44772 10 5 10Z" fill="#000000"/>
<path d="M12 10C12.5523 10 13 10.4477 13 11C13 11.5523 12.5523 12 12 12H8C7.44772 12 7 11.5523 7 11C7 10.4477 7.44772 10 8 10H12Z" fill="#000000"/>
<path d="M15 10C15.5523 10 16 10.4477 16 11C16 11.5523 15.5523 12 15 12C14.4477 12 14 11.5523 14 11C14 10.4477 14.4477 10 15 10Z" fill="#000000"/>
<path d="M5 7C5.55228 7 6 7.44772 6 8C6 8.55228 5.55228 9 5 9C4.44772 9 4 8.55228 4 8C4 7.44772 4.44772 7 5 7Z" fill="#000000"/>
<path d="M8 7C8.55228 7 9 7.44772 9 8C9 8.55228 8.55228 9 8 9C7.44772 9 7 8.55228 7 8C7 7.44772 7.44772 7 8 7Z" fill="#000000"/>
<path d="M12 7C12.5523 7 13 7.44772 13 8C13 8.55228 12.5523 9 12 9C11.4477 9 11 8.55228 11 8C11 7.44772 11.4477 7 12 7Z" fill="#000000"/>
<path d="M15 7C15.5523 7 16 7.44772 16 8C16 8.55228 15.5523 9 15 9C14.4477 9 14 8.55228 14 8C14 7.44772 14.4477 7 15 7Z" fill="#000000"/>
<path d="M16.1543 4.00391C17.7394 4.08421 19 5.39489 19 7V12C19 13.6051 17.7394 14.9158 16.1543 14.9961L16 15H4C2.39489 15 1.08421 13.7394 1.00391 12.1543L1 12V7C1 5.34315 2.34315 4 4 4H16L16.1543 4.00391ZM4 5.5C3.17157 5.5 2.5 6.17157 2.5 7V12C2.5 12.8284 3.17157 13.5 4 13.5H16C16.8284 13.5 17.5 12.8284 17.5 12V7C17.5 6.17157 16.8284 5.5 16 5.5H4Z" fill="#000000"/>
</svg>
