<svg xmlns="http://www.w3.org/2000/svg" width="20" height="20" viewBox="0 0 20 20" fill="none"><rect width="20" height="20" fill="none"/>
<path d="M11.0003 3.09961C13.2821 3.56319 15.0002 5.58146 15.0003 8V10.1719C15.0004 10.2531 15.0172 10.3336 15.0492 10.4082L16.1205 12.9092C16.5442 13.8987 15.8179 14.9995 14.7416 15H13.0003C13.0003 16.6565 11.6568 17.9995 10.0003 18C8.34349 18 7.00035 16.6569 7.00035 15H5.25816C4.18159 14.9996 3.45614 13.8988 3.88023 12.9092L4.95152 10.4082C4.98343 10.3336 5.00032 10.253 5.00035 10.1719V8C5.00035 5.58112 6.71815 3.56292 9.00035 3.09961V1H11.0003V3.09961ZM9.00035 15C9.00035 15.5523 9.44806 16 10.0003 16C10.5522 15.9995 11.0003 15.552 11.0003 15H9.00035ZM10.0003 5C8.3436 5.00006 7.00035 6.34324 7.00035 8V10.1719C7.00032 10.5238 6.92899 10.8728 6.79039 11.1963L6.01695 13H13.9837L13.2103 11.1953C13.0718 10.8719 13.0004 10.5237 13.0003 10.1719V8C13.0002 6.34356 11.6567 5.00045 10.0003 5Z" fill="#000000"/>
</svg>
