<svg xmlns="http://www.w3.org/2000/svg" width="24" height="24" viewBox="0 0 24 24" fill="none"><rect width="24" height="24" fill="none"/>
<path d="M18 14C20.2091 14 22 15.7909 22 18C22 20.2091 20.2091 22 18 22C15.7909 22 14 20.2091 14 18C14 15.7909 15.7909 14 18 14ZM18 16C16.8954 16 16 16.8954 16 18C16 19.1046 16.8954 20 18 20C19.1046 20 20 19.1046 20 18C20 16.8954 19.1046 16 18 16Z" fill="#000000"/>
<path d="M17 3C19.2091 3 21 4.79086 21 7V12H19V7C19 5.89543 18.1046 5 17 5H7C5.89543 5 5 5.89543 5 7V17C5 18.1046 5.89543 19 7 19H12V21H7C4.79086 21 3 19.2091 3 17V7C3 4.79086 4.79086 3 7 3H17Z" fill="#000000"/>
<path d="M12 13H7V11H12V13Z" fill="#000000"/>
<path d="M16 9H7V7H16V9Z" fill="#000000"/>
</svg>
