<svg xmlns="http://www.w3.org/2000/svg" width="20" height="20" viewBox="0 0 20 20" fill="none"><rect width="20" height="20" fill="none"/>
<path d="M17.5 11H19V13H15C14.7239 13 14.5 13.2239 14.5 13.5C14.5 13.7761 14.7239 14 15 14H17C18.3807 14 19.5 15.1193 19.5 16.5C19.5 17.7094 18.641 18.7175 17.5 18.9492V20H15.5V19H13V17H17C17.2761 17 17.5 16.7761 17.5 16.5C17.5 16.2239 17.2761 16 17 16H15C13.6193 16 12.5 14.8807 12.5 13.5C12.5 12.1193 13.6193 11 15 11H15.5V10H17.5V11Z" fill="#000000"/>
<path d="M11 2C12.6569 2 14 3.34315 14 5V6H15C16.3059 6 17.4141 6.83532 17.8262 8H5C4.44772 8 4 8.44772 4 9V15C4 15.5523 4.44772 16 5 16H11V18H5C3.34315 18 2 16.6569 2 15V9C2 7.34315 3.34315 6 5 6H6V5C6 3.34315 7.34315 2 9 2H11ZM9 4C8.44772 4 8 4.44772 8 5V6H12V5C12 4.44772 11.5523 4 11 4H9Z" fill="#000000"/>
</svg>
