<svg xmlns="http://www.w3.org/2000/svg" width="24" height="24" viewBox="0 0 24 24" fill="none"><rect width="24" height="24" fill="none"/>
<path d="M18.2578 15.0626C18.4166 14.9747 18.6107 14.9802 18.7646 15.0763L22.7646 17.5763C22.9105 17.6676 22.9999 17.8279 23 18.0001C22.9997 18.1721 22.9105 18.3327 22.7646 18.4239L18.7646 20.9239C18.6108 21.0198 18.4165 21.0253 18.2578 20.9376C18.0991 20.8496 18.0003 20.6815 18 20.5001V19.0001C16.8955 19.0001 16.0001 19.8956 16 21.0001V23.0001H14V21.0001C14.0001 18.7911 15.791 17.0001 18 17.0001V15.5001L18.0049 15.4327C18.026 15.2779 18.119 15.1397 18.2578 15.0626Z" fill="#000000"/>
<path d="M12.5674 3.00106C15.1735 2.06499 17.9197 3.99665 17.9199 6.76571V7.00009H18C20.209 7.00009 21.9998 8.79108 22 11.0001V13.0001H20V11.0001C19.9998 9.89565 19.1045 9.00009 18 9.00009H6C4.89553 9.00009 4.00016 9.89565 4 11.0001V17.0001C4.00051 18.1042 4.89574 19.0001 6 19.0001H12V21.0001H6C3.79117 21.0001 2.00051 19.2088 2 17.0001V9.61044C2.00011 7.92299 3.05948 6.41649 4.64746 5.84579L12.5674 3.00106ZM15.9199 6.76571C15.9197 5.38127 14.5461 4.41491 13.2432 4.8829L7.34961 7.00009H15.9199V6.76571Z" fill="#000000"/>
</svg>
