<svg xmlns="http://www.w3.org/2000/svg" width="20" height="20" viewBox="0 0 20 20" fill="none"><rect width="20" height="20" fill="none"/>
<path d="M18.5303 17.4688L17.4697 18.5293L12.8037 13.8633C12.1273 14.0283 11.4405 14.1358 10.75 14.1797V18.001H9.25V14.1797C7.86468 14.0918 6.49106 13.7613 5.19531 13.1855L4.75 12.9883L4.74902 9.5L4.75 9.125L5.0498 8.90039C5.58836 8.49648 6.0312 7.99034 6.35938 7.41895L1.46973 2.5293L2.53027 1.46875L18.5303 17.4688ZM7.44531 8.50488C7.11402 9.00638 6.71437 9.46467 6.24902 9.85938V12C7.93869 12.6584 9.75794 12.8505 11.5254 12.585L7.44531 8.50488Z" fill="#000000"/>
<path d="M8.36328 1.88672C9.4378 1.61828 10.5622 1.61811 11.6367 1.88672L12.1816 2.02246L12.6963 2.15137L13.0098 5.44043C13.141 6.81505 13.8455 8.07283 14.9502 8.90137L15.25 9.125V12.1885L13.749 10.6875V9.86035C12.4798 8.78357 11.6746 7.24994 11.5156 5.58301L11.3027 3.34863L11.2725 3.3418C10.4368 3.13295 9.56225 3.13298 8.72656 3.3418L8.69531 3.35059L8.49707 5.43555L7.12109 4.05957L7.30371 2.15137L7.81836 2.02148L8.36328 1.88672Z" fill="#000000"/>
</svg>
