<svg xmlns="http://www.w3.org/2000/svg" width="20" height="20" viewBox="0 0 20 20" fill="none"><rect width="20" height="20" fill="none"/>
<path d="M10 2C14.4183 2 18 5.58172 18 10C18 14.4183 14.4183 18 10 18C6 18 9 13.5 7.5 13.5C6 13.5 2 15.5 2 10C2 5.58172 5.58172 2 10 2ZM15 11C14.4477 11 14 11.4477 14 12C14 12.5523 14.4477 13 15 13C15.5523 13 16 12.5523 16 12C16 11.4477 15.5523 11 15 11ZM15 7C14.4477 7 14 7.44772 14 8C14 8.55228 14.4477 9 15 9C15.5523 9 16 8.55228 16 8C16 7.44772 15.5523 7 15 7ZM8 5C7.44772 5 7 5.44772 7 6C7 6.55228 7.44772 7 8 7C8.55228 7 9 6.55228 9 6C9 5.44772 8.55228 5 8 5ZM12 4C11.4477 4 11 4.44772 11 5C11 5.55228 11.4477 6 12 6C12.5523 6 13 5.55228 13 5C13 4.44772 12.5523 4 12 4Z" fill="#000000"/>
</svg>
