<svg xmlns="http://www.w3.org/2000/svg" width="24" height="24" viewBox="0 0 24 24" fill="none"><rect width="24" height="24" fill="none"/>
<path d="M15.2539 13.5645C15.4105 13.476 15.6026 13.4789 15.7568 13.5713L20.7568 16.5713C20.9074 16.6617 21 16.8244 21 17C21 17.1538 20.9292 17.2975 20.8105 17.3916L20.7568 17.4287L15.7568 20.4287C15.6026 20.5212 15.4105 20.524 15.2539 20.4356C15.0972 20.3468 15 20.1801 15 20V18.5H4V15.5H15V14C15 13.8199 15.0972 13.6532 15.2539 13.5645Z" fill="#000000"/>
<path d="M8.24316 3.5713C8.39745 3.47888 8.58951 3.476 8.74609 3.56447C8.90284 3.65322 8.99999 3.81989 9 4.00001V5.50001H20V8.50001H9V10C8.99999 10.1801 8.90284 10.3468 8.74609 10.4356C8.58951 10.524 8.39745 10.5212 8.24316 10.4287L3.24316 7.42873C3.09257 7.33837 3.00001 7.17563 3 7.00001C3.00001 6.84625 3.07079 6.70249 3.18945 6.60841L3.24316 6.5713L8.24316 3.5713Z" fill="#000000"/>
</svg>
