<svg xmlns="http://www.w3.org/2000/svg" width="24" height="24" viewBox="0 0 24 24" fill="none"><rect width="24" height="24" fill="none"/>
<path d="M21.5 17C21.6818 17 21.8494 17.0988 21.9375 17.2578C22.0254 17.4167 22.02 17.6106 21.9238 17.7646L19.4238 21.7646C19.3325 21.9108 19.1724 22 19 22C18.8276 22 18.6675 21.9108 18.5762 21.7646L16.0762 17.7646C15.98 17.6106 15.9746 17.4167 16.0625 17.2578C16.1506 17.0988 16.3182 17 16.5 17H18V14H20V17H21.5Z" fill="#000000"/>
<path d="M2.51562 8.37109L2.51465 8.37402L12 13.6445L12.4854 13.374L21.4854 8.37402L21.4844 8.37305L22 8.08691V12H16V15.0498C15.2916 15.1943 14.6715 15.6423 14.3135 16.2881L14.3125 16.2891C13.8713 17.086 13.9005 18.0566 14.3799 18.8242L15.1143 20H2V8.08398L2.51562 8.37109Z" fill="#000000"/>
<path d="M22 5.79883L11.999 11.3545L2 5.7959V4H22V5.79883Z" fill="#000000"/>
</svg>
