<svg xmlns="http://www.w3.org/2000/svg" width="20" height="20" viewBox="0 0 20 20" fill="none"><rect width="20" height="20" fill="none"/>
<g clip-path="url(#clip0_147702_10487)">
<path d="M16.0003 9.99997C17.5189 10.0001 18.7502 11.2313 18.7503 12.75V14.0732C19.4729 14.2885 20.0002 14.9574 20.0003 15.75V18.25C20.0003 19.2164 19.2167 19.9998 18.2503 20H13.7503C12.7838 20 12.0003 19.2165 12.0003 18.25V15.75C12.0003 14.9573 12.5275 14.2884 13.2503 14.0732V12.75C13.2503 11.2312 14.4815 9.99997 16.0003 9.99997ZM13.7503 15.5C13.6122 15.5 13.5003 15.6119 13.5003 15.75V18.25C13.5003 18.388 13.6122 18.5 13.7503 18.5H18.2503C18.3882 18.4998 18.5003 18.388 18.5003 18.25V15.75C18.5002 15.612 18.3882 15.5001 18.2503 15.5H13.7503ZM16.0003 11.5C15.3099 11.5 14.7503 12.0597 14.7503 12.75V14H17.2503V12.75C17.2502 12.0597 16.6905 11.5001 16.0003 11.5Z" fill="#000000"/>
<path d="M12.22 3.21969C13.4794 1.96069 15.5213 1.96055 16.7805 3.21969C18.0397 4.47898 18.0396 6.52085 16.7805 7.78024L16.5305 8.03024L15.47 6.96969L15.72 6.71969C16.3932 6.04609 16.3934 4.95374 15.72 4.28024C15.0465 3.60688 13.9541 3.60703 13.2805 4.28024L12.0257 5.53415C13.0165 5.91557 13.8288 6.65666 14.3011 7.5986L12.9573 8.27048C12.5471 7.45258 11.7426 6.86817 10.7923 6.76755L4.21218 13.3476L3.86355 16.1357L6.65164 15.7871L10.97 11.4697L12.0305 12.5302L7.3489 17.2119L3.09304 17.7441C2.8635 17.7727 2.63359 17.6938 2.47 17.5302C2.30649 17.3667 2.22752 17.1367 2.25613 16.9072L2.78836 12.6513L12.22 3.21969Z" fill="#000000"/>
</g>
<defs>
<clipPath id="clip0_147702_10487">
<rect width="20" height="20" fill="white"/>
</clipPath>
</defs>
</svg>
