<svg xmlns="http://www.w3.org/2000/svg" width="20" height="20" viewBox="0 0 20 20" fill="none"><rect width="20" height="20" fill="none"/>
<path d="M11.3105 5.9502H15.2998C16.8186 5.9502 18.0498 7.18141 18.0498 8.7002V14.2998C18.0498 15.8186 16.8186 17.0498 15.2998 17.0498H4.7002C3.18141 17.0498 1.9502 15.8186 1.9502 14.2998V5.7002C1.9502 4.18141 3.18141 2.9502 4.7002 2.9502H8.31055L11.3105 5.9502ZM4.7002 4.4502C4.00984 4.4502 3.4502 5.00984 3.4502 5.7002V14.2998C3.4502 14.9902 4.00984 15.5498 4.7002 15.5498H15.2998C15.9902 15.5498 16.5498 14.9902 16.5498 14.2998V8.7002C16.5498 8.00984 15.9902 7.4502 15.2998 7.4502H10.6895L7.68945 4.4502H4.7002Z" fill="#000000"/>
</svg>
