<svg xmlns="http://www.w3.org/2000/svg" width="20" height="20" viewBox="0 0 20 20" fill="none"><rect width="20" height="20" fill="none"/>
<path d="M18.5303 12.5303L16.0605 15L18.5303 17.4697L17.4697 18.5303L15 16.0605L12.5303 18.5303L11.4697 17.4697L13.9395 15L11.4697 12.5303L12.5303 11.4697L15 13.9395L17.4697 11.4697L18.5303 12.5303Z" fill="#000000"/>
<path d="M10 2C14.2503 2 17.7243 5.3147 17.9824 9.5H16.4795C16.2241 6.14383 13.4216 3.5 10 3.5C6.41015 3.5 3.5 6.41015 3.5 10C3.5 13.4215 6.14387 16.2231 9.5 16.4785V17.9824C5.3147 17.7243 2 14.2503 2 10C2 5.58172 5.58172 2 10 2Z" fill="#000000"/>
<path d="M10.75 10.3105L8.53027 12.5303L7.46973 11.4697L9.25 9.68945V5H10.75V10.3105Z" fill="#000000"/>
</svg>
