<svg xmlns="http://www.w3.org/2000/svg" width="20" height="20" viewBox="0 0 20 20" fill="none"><rect width="20" height="20" fill="none"/>
<path d="M16.5 15H17.5L17.5684 15.0049C17.7252 15.0266 17.8643 15.1218 17.9404 15.2637C18.0274 15.4262 18.0182 15.624 17.916 15.7773L15.916 18.7773C15.8233 18.9163 15.667 18.9999 15.5 19C15.333 18.9999 15.1767 18.9163 15.084 18.7773L13.084 15.7773C12.9818 15.624 12.9726 15.4262 13.0596 15.2637C13.1466 15.1015 13.3159 15.0001 13.5 15H14.5V12H16.5V15Z" fill="#000000"/>
<path d="M9 2C10.6569 2 12 3.34315 12 5V6H13C14.6569 6 16 7.34315 16 9V10H14V9C14 8.44772 13.5523 8 13 8H10V5C10 4.44772 9.55228 4 9 4H6V16H11V18H4V2H9Z" fill="#000000"/>
</svg>
