<svg xmlns="http://www.w3.org/2000/svg" width="20" height="20" viewBox="0 0 20 20" fill="none"><rect width="20" height="20" fill="none"/>
<path d="M15.75 14.2505H19V15.7505H15.75V19.0005H14.25V15.7505H11V14.2505H14.25V11.0005H15.75V14.2505Z" fill="#000000"/>
<path d="M11.3643 2.76706C13.157 2.11828 15.0497 3.44642 15.0498 5.353V5.95163H15.2998C16.8185 5.95163 18.0497 7.1829 18.0498 8.70163V9.00046H16.5498V8.70163C16.5497 8.01133 15.9901 7.45163 15.2998 7.45163H4.7002C4.00988 7.45163 3.45026 8.01133 3.4502 8.70163V15.3012C3.45074 15.9911 4.01018 16.5512 4.7002 16.5512H9V18.0512H4.7002C3.18175 18.0512 1.95074 16.8196 1.9502 15.3012V8.10398C1.9504 6.94665 2.6756 5.91332 3.76367 5.51902L11.3643 2.76706ZM13.5498 5.353C13.5497 4.48635 12.6889 3.88219 11.874 4.17722L6.97363 5.95163H13.5498V5.353Z" fill="#000000"/>
</svg>
