<svg xmlns="http://www.w3.org/2000/svg" width="20" height="20" viewBox="0 0 20 20" fill="none"><rect width="20" height="20" fill="none"/>
<path d="M10 2C14.4183 2 18 5.58172 18 10C18 14.4183 14.4183 18 10 18C5.58172 18 2 14.4183 2 10C2 5.58172 5.58172 2 10 2ZM8.5 10H9V13H8.5V14H11.5V13H11V9.5C11 9.22386 10.7761 9 10.5 9H8.5V10ZM10 5.75C9.30964 5.75 8.75 6.30964 8.75 7C8.75 7.69036 9.30964 8.25 10 8.25C10.6904 8.25 11.25 7.69036 11.25 7C11.25 6.30964 10.6904 5.75 10 5.75Z" fill="#000000"/>
</svg>
