<svg xmlns="http://www.w3.org/2000/svg" width="20" height="20" viewBox="0 0 20 20" fill="none"><rect width="20" height="20" fill="none"/>
<path d="M7 2.9502C8.22666 2.95033 9.3158 3.5395 10 4.4502C10.6842 3.53949 11.7733 2.95032 13 2.9502H17.9502V15.75H13C12.1169 15.7502 11.3537 16.2595 10.9854 17H9.01465C8.64637 16.2595 7.88308 15.7501 7 15.75H2.0498V2.9502H7ZM3.5498 14.25H7C7.84423 14.2501 8.62329 14.5291 9.25 15V6.7002C9.25 5.4577 8.24245 4.45043 7 4.4502H3.5498V14.25ZM13 4.4502C11.7575 4.45041 10.75 5.45768 10.75 6.7002V15C11.3767 14.5291 12.1558 14.2501 13 14.25H16.4502V4.4502H13Z" fill="#000000"/>
</svg>
