<svg xmlns="http://www.w3.org/2000/svg" width="20" height="20" viewBox="0 0 20 20" fill="none"><rect width="20" height="20" fill="none"/>
<path d="M10.415 3.17761C11.905 1.93601 14.0963 2.0357 15.4678 3.4071L16.0303 3.9696C16.2083 4.14775 16.2849 4.40355 16.2344 4.65026C16.1836 4.89711 16.0123 5.10256 15.7783 5.19616C14.7369 5.61272 14.118 5.91475 13.6719 6.24401C13.3839 6.45657 13.1536 6.69217 12.9268 7.00964L18.4502 6.11901V6.99987C18.4502 8.85963 17.9995 10.5476 16.9951 11.785C16.1739 12.7967 15.0276 13.4484 13.6016 13.6669L14.999 16.9266L13.4238 17.5175C11.2168 18.3451 8.78422 18.3449 6.57715 17.5175L5.00098 16.9266L6.39746 13.6669C4.9718 13.4483 3.82602 12.7964 3.00488 11.785C2.00041 10.5476 1.54985 8.8597 1.5498 6.99987V6.11901L7.07129 7.00964C6.84457 6.69252 6.61489 6.45642 6.32715 6.24401C5.88112 5.91487 5.26262 5.61255 4.22168 5.19616C3.98769 5.10256 3.8154 4.89711 3.76465 4.65026C3.7142 4.40354 3.79168 4.14773 3.96973 3.9696L4.53223 3.4071C5.90366 2.0357 8.095 1.936 9.58496 3.17761L9.99902 3.52331L10.415 3.17761ZM14.1572 4.25476C13.3355 3.64244 12.1837 3.65605 11.375 4.32995L10.4795 5.07605L10 5.47644L8.62402 4.32995C7.8152 3.65608 6.66348 3.64219 5.8418 4.25476C6.38422 4.50456 6.83369 4.75277 7.21875 5.03698C7.85475 5.50649 8.27955 6.0469 8.69238 6.76257C9.23677 7.70671 8.39225 8.7421 7.41699 8.58484L3.09082 7.88659C3.21024 9.11662 3.5845 10.1186 4.16992 10.8397C4.87182 11.7041 5.9455 12.2499 7.5 12.2499H8.6377L6.99902 16.0721L7.10352 16.1122C8.97108 16.8125 11.0289 16.8125 12.8965 16.1122L13 16.0721L11.3623 12.2499H12.5C14.0546 12.2499 15.1283 11.7042 15.8301 10.8397C16.4154 10.1186 16.7888 9.11662 16.9082 7.88659L12.582 8.58484C11.6069 8.74186 10.7633 7.70662 11.3076 6.76257L11.4629 6.5028C11.8296 5.91332 12.2245 5.44793 12.7812 5.03698C13.1662 4.75289 13.6151 4.50445 14.1572 4.25476Z" fill="#000000"/>
</svg>
