<svg xmlns="http://www.w3.org/2000/svg" width="20" height="20" viewBox="0 0 20 20" fill="none"><rect width="20" height="20" fill="none"/>
<path d="M12.6711 6C13.4996 6 14.1711 6.67157 14.1711 7.5C14.1711 8.32843 13.4996 9 12.6711 9C11.8428 8.99988 11.1711 8.32835 11.1711 7.5C11.1711 6.67165 11.8428 6.00012 12.6711 6Z" fill="#000000"/>
<path d="M16.1711 2C17.2757 2 18.1711 2.89543 18.1711 4V9.58594C18.1711 10.1163 17.9602 10.625 17.5852 11L11.2922 17.293C10.1207 18.4642 8.22155 18.4643 7.05005 17.293L2.87817 13.1211C1.70695 11.9496 1.70695 10.0504 2.87817 8.87891L9.17114 2.58594C9.54613 2.21095 10.0549 2.0001 10.5852 2H16.1711ZM10.5852 4L4.29224 10.293C3.90206 10.6834 3.90206 11.3166 4.29224 11.707L8.46411 15.8789C8.85456 16.2692 9.48768 16.2691 9.87817 15.8789L16.1711 9.58594V4H10.5852Z" fill="#000000"/>
</svg>
