<svg xmlns="http://www.w3.org/2000/svg" width="20" height="20" viewBox="0 0 20 20" fill="none"><rect width="20" height="20" fill="none"/>
<path d="M6.75 3.49951H4.75C4.05981 3.49951 3.50026 4.05938 3.5 4.74951V15.2505C3.50026 15.9406 4.05981 16.5005 4.75 16.5005H6.75V18.0005H4.75C3.23138 18.0005 2.00026 16.769 2 15.2505V4.74951C2.00026 3.23095 3.23138 1.99951 4.75 1.99951H6.75V3.49951Z" fill="#000000"/>
<path d="M15.25 1.99951C16.7686 1.99951 17.9997 3.23095 18 4.74951V15.2505C17.9997 16.769 16.7686 18.0005 15.25 18.0005H13.25V16.5005H15.25C15.9402 16.5005 16.4997 15.9406 16.5 15.2505V4.74951C16.4997 4.05938 15.9402 3.49951 15.25 3.49951H13.25V1.99951H15.25Z" fill="#000000"/>
<path d="M13.5303 7.53076L7.53027 13.5308L6.46973 12.4702L12.4697 6.47021L13.5303 7.53076Z" fill="#000000"/>
<path d="M12.25 11.0005C12.9404 11.0005 13.5 11.5601 13.5 12.2505C13.5 12.9408 12.9404 13.5005 12.25 13.5005C11.5596 13.5005 11 12.9408 11 12.2505C11 11.5601 11.5596 11.0005 12.25 11.0005Z" fill="#000000"/>
<path d="M7.75 6.50049C8.44036 6.50049 9 7.06013 9 7.75049C9 8.44084 8.44036 9.00049 7.75 9.00049C7.05964 9.00049 6.5 8.44084 6.5 7.75049C6.5 7.06013 7.05964 6.50049 7.75 6.50049Z" fill="#000000"/>
</svg>
