<svg xmlns="http://www.w3.org/2000/svg" width="24" height="24" viewBox="0 0 24 24" fill="none"><rect width="24" height="24" fill="none"/>
<path d="M22.207 15.2075L15.207 22.2075L13.793 20.7935L20.793 13.7935L22.207 15.2075Z" fill="#000000"/>
<path d="M20.5 19.0005C21.3284 19.0005 22 19.6721 22 20.5005C21.9996 21.3286 21.3282 22.0005 20.5 22.0005C19.6719 22.0005 19.0004 21.3285 19 20.5005C19 19.6721 19.6716 19.0005 20.5 19.0005Z" fill="#000000"/>
<path d="M12.5674 3.0005C15.1733 2.06458 17.9195 3.99636 17.9199 6.76515V6.99952H18C20.2089 6.99952 21.9995 8.79077 22 10.9995V12.0005H20V10.9995C19.9995 9.89534 19.1043 8.99952 18 8.99952H6C4.89571 8.99952 4.00045 9.89534 4 10.9995V16.9995C4.00042 18.1037 4.89569 18.9995 6 18.9995H12V20.9995H6C3.79112 20.9995 2.00042 19.2083 2 16.9995V9.60987C2.00028 7.92256 3.05956 6.41586 4.64746 5.84522L12.5674 3.0005ZM15.9199 6.76515C15.9195 5.38097 14.546 4.41451 13.2432 4.88233L7.34961 6.99952H15.9199V6.76515Z" fill="#000000"/>
<path d="M15.5 14.0005C16.3284 14.0005 17 14.6721 17 15.5005C16.9996 16.3286 16.3282 17.0005 15.5 17.0005C14.6719 17.0005 14.0004 16.3285 14 15.5005C14 14.6721 14.6716 14.0005 15.5 14.0005Z" fill="#000000"/>
<path d="M16.0186 12.0005H15.9814C15.9876 12.0004 15.9938 11.9995 16 11.9995C16.0062 11.9995 16.0124 12.0004 16.0186 12.0005Z" fill="#000000"/>
</svg>
