<svg xmlns="http://www.w3.org/2000/svg" width="20" height="20" viewBox="0 0 20 20" fill="none"><rect width="20" height="20" fill="none"/>
<path d="M9.03809 2.72593C9.17544 2.24553 9.64696 1.93946 10.1416 2.01011L10.9688 2.12828C12.987 2.41662 14.3328 4.36273 13.8906 6.35288L13.7471 7.00035H15.4219C17.1278 7.00035 18.3953 8.58017 18.0254 10.2455L17.0566 14.6068C16.6159 16.5893 14.8571 18.0003 12.8262 18.0003H4C2.89553 18.0003 2.00016 17.1048 2 16.0003V10.0003C2.0001 8.89586 2.8955 8.00035 4 8.00035H6.51953L6.71387 7.75816C7.62469 6.6196 8.29953 5.31046 8.7002 3.90855L9.03809 2.72593ZM4 16.0003H6V10.0003H4V16.0003ZM10.624 4.45738C10.1505 6.11443 9.35194 7.66143 8.27539 9.00718L8 9.35093V16.0003H12.8262C13.9196 16.0003 14.8661 15.2406 15.1035 14.1732L16.0732 9.81187C16.1656 9.3956 15.8483 9.00035 15.4219 9.00035H12.5C12.1968 9.00035 11.9095 8.86279 11.7197 8.62632C11.5301 8.38987 11.4578 8.07945 11.5234 7.78355L11.9385 5.91929C12.1253 5.07796 11.5661 4.25633 10.7207 4.11558L10.624 4.45738Z" fill="#000000"/>
</svg>
