<svg xmlns="http://www.w3.org/2000/svg" width="24" height="24" viewBox="0 0 24 24" fill="none"><rect width="24" height="24" fill="none"/>
<path d="M14.5 2C18.6421 2 22 5.35786 22 9.5C22 12.8846 19.7576 15.7445 16.6777 16.6777C15.7445 19.7576 12.8846 22 9.5 22C5.35786 22 2 18.6421 2 14.5C2 11.1156 4.2417 8.2547 7.32129 7.32129C8.2547 4.2417 11.1156 2 14.5 2ZM7.00195 9.59961C5.22025 10.5097 4 12.362 4 14.5C4 17.5376 6.46243 20 9.5 20C11.6381 20 13.4894 18.779 14.3994 16.9971C10.3368 16.9437 7.05484 13.6623 7.00195 9.59961ZM9.5 9C9.33875 9 9.17921 9.00789 9.02148 9.02148C9.00789 9.17921 9 9.33875 9 9.5C9 12.5376 11.4624 15 14.5 15C14.6609 15 14.8201 14.9911 14.9775 14.9775C14.9911 14.8201 15 14.6609 15 14.5C15 11.4624 12.5376 9 9.5 9ZM14.5 4C12.362 4 10.5097 5.22025 9.59961 7.00195C13.6623 7.05484 16.9437 10.3368 16.9971 14.3994C18.779 13.4894 20 11.6381 20 9.5C20 6.46243 17.5376 4 14.5 4Z" fill="#000000"/>
</svg>
