<svg xmlns="http://www.w3.org/2000/svg" width="20" height="20" viewBox="0 0 20 20" fill="none"><rect width="20" height="20" fill="none"/>
<path d="M11.3721 2C12.1667 2 12.8618 2.5354 13.0645 3.30371L13.6416 5.49023C14.4592 6.02611 15 6.94941 15 8V12C15 13.0504 14.459 13.9729 13.6416 14.5088L13.0645 16.6963C12.8618 17.4646 12.1667 18 11.3721 18H8.62793C7.83332 18 7.1382 17.4646 6.93555 16.6963L6.35742 14.5088C5.54044 13.9728 5 13.0501 5 12V8C5 6.94971 5.54019 6.02618 6.35742 5.49023L6.93555 3.30371C7.13821 2.5354 7.83333 2 8.62793 2H11.3721ZM8.38574 16.3135C8.41469 16.4232 8.51441 16.5 8.62793 16.5H11.3721C11.4856 16.5 11.5853 16.4232 11.6143 16.3135L11.96 15H8.04004L8.38574 16.3135ZM8 6.5C7.17157 6.5 6.5 7.17157 6.5 8V12C6.5 12.8284 7.17157 13.5 8 13.5H12C12.8284 13.5 13.5 12.8284 13.5 12V8C13.5 7.17157 12.8284 6.5 12 6.5H8ZM8.62793 3.5C8.51441 3.5 8.41469 3.57675 8.38574 3.68652L8.04004 5H11.96L11.6143 3.68652C11.5853 3.57676 11.4856 3.5 11.3721 3.5H8.62793Z" fill="#000000"/>
</svg>
