<svg xmlns="http://www.w3.org/2000/svg" width="20" height="20" viewBox="0 0 20 20" fill="none"><rect width="20" height="20" fill="none"/>
<path d="M15.165 8.01562C16.2492 7.91897 17.3287 8.26289 18.2031 8.98242C18.6234 9.32831 18.9819 9.75084 19.2676 10.2266L17.2607 10.8496C17.1584 10.7307 17.0488 10.622 16.9326 10.5264C16.4459 10.1259 15.8817 9.95981 15.3428 10.0078C14.8015 10.0563 14.2497 10.3248 13.8076 10.8281C13.3612 11.3367 13.0694 12.0432 13.0303 12.8232C12.9915 13.6033 13.2105 14.3513 13.6133 14.9258C14.0133 15.496 14.5499 15.8376 15.0908 15.9541C15.6262 16.0692 16.1938 15.9709 16.7012 15.6436C16.903 15.5132 17.0914 15.3463 17.2607 15.1494L19.2686 15.7725C18.8898 16.404 18.3852 16.9374 17.7861 17.3242C16.8454 17.9314 15.7377 18.1398 14.6699 17.9102C13.6023 17.6803 12.6445 17.0278 11.9756 16.0742C11.3071 15.1208 10.9719 13.9296 11.0322 12.7227C11.0927 11.5157 11.5452 10.373 12.3047 9.50781C13.0645 8.64268 14.0812 8.1125 15.165 8.01562Z" fill="#000000"/>
<path d="M6.1582 9.00488L11.3652 17.999H9.05469L4.84473 10.7275L4 11.8379V17.999H2.13574L2 18V2.00098H4V8.53613L8.98047 2H11.4961L6.1582 9.00488Z" fill="#000000"/>
<path d="M18.668 4.2373L16.8477 6.05664H13.6426L11.8232 4.2373L13.2373 2.82324L15.2451 4.83105L17.2539 2.82324L18.668 4.2373Z" fill="#000000"/>
</svg>
