<svg xmlns="http://www.w3.org/2000/svg" width="24" height="24" viewBox="0 0 24 24" fill="none"><rect width="24" height="24" fill="none"/>
<path d="M17 2C17.1538 2 17.2975 2.07079 17.3916 2.18945L17.4287 2.24316L20.4287 7.24316C20.5212 7.39745 20.524 7.58951 20.4356 7.74609C20.3468 7.90284 20.1801 8 20 8H18V9.30176C17.9999 10.7067 17.2623 12.0086 16.0576 12.7314L13.9424 14.001L16.0576 15.2686C17.2623 15.9914 17.9999 17.2933 18 18.6982V21H16V18.6982C15.9999 17.9959 15.6315 17.3448 15.0293 16.9834L11.999 15.166L8.97072 16.9834C8.36849 17.3448 8.00013 17.9959 8.00001 18.6982V21H6.00001V18.6982C6.00013 17.2933 6.73768 15.9914 7.9424 15.2686L15.0293 11.0166C15.6315 10.6552 15.9999 10.0041 16 9.30176V8H14C13.8199 7.99999 13.6532 7.90284 13.5645 7.74609C13.476 7.58951 13.4789 7.39745 13.5713 7.24316L16.5713 2.24316C16.6617 2.09257 16.8244 2.00001 17 2Z" fill="#000000"/>
<path d="M7.00001 2C7.15379 2 7.29753 2.07079 7.39162 2.18945L7.42873 2.24316L10.4287 7.24316C10.5212 7.39745 10.524 7.58951 10.4356 7.74609C10.3468 7.90284 10.1801 8 10 8H8.00001V9.30176C8.00013 10.0041 8.36849 10.6552 8.97072 11.0166L10.333 11.835L8.38966 13.001L7.9424 12.7314C6.73768 12.0086 6.00013 10.7067 6.00001 9.30176V8H4.00001C3.81989 7.99999 3.65322 7.90284 3.56447 7.74609C3.476 7.58951 3.47888 7.39745 3.5713 7.24316L6.5713 2.24316C6.66166 2.09257 6.82439 2.00001 7.00001 2Z" fill="#000000"/>
</svg>
