<svg xmlns="http://www.w3.org/2000/svg" width="20" height="20" viewBox="0 0 20 20" fill="none"><rect width="20" height="20" fill="none"/>
<path d="M4 14.75C4 15.4404 4.55964 16 5.25 16H7V17.5H5.25C3.73122 17.5 2.5 16.2688 2.5 14.75V13H4V14.75Z" fill="#000000"/>
<path d="M17.5 14.75C17.5 16.2688 16.2688 17.5 14.75 17.5H13V16H14.75C15.4404 16 16 15.4404 16 14.75V13H17.5V14.75Z" fill="#000000"/>
<path d="M7.4502 14H5.9502V11H7.4502V14Z" fill="#000000"/>
<path d="M10.75 14H9.25V6H10.75V14Z" fill="#000000"/>
<path d="M14.0508 14H12.5508V8H14.0508V14Z" fill="#000000"/>
<path d="M7 4H5.25C4.55964 4 4 4.55964 4 5.25V7H2.5V5.25C2.5 3.73122 3.73122 2.5 5.25 2.5H7V4Z" fill="#000000"/>
<path d="M14.75 2.5C16.2688 2.5 17.5 3.73122 17.5 5.25V7H16V5.25C16 4.55964 15.4404 4 14.75 4H13V2.5H14.75Z" fill="#000000"/>
</svg>
