<svg xmlns="http://www.w3.org/2000/svg" width="20" height="20" viewBox="0 0 20 20" fill="none"><rect width="20" height="20" fill="none"/>
<path d="M18.5303 17.4688L17.4697 18.5293L13.8555 14.915C12.7935 15.75 11.4559 16.25 10 16.25H9V17.5C8.99997 17.6781 8.90502 17.8432 8.75098 17.9326C8.59692 18.022 8.40662 18.0228 8.25195 17.9346L4.75195 15.9346C4.59628 15.8455 4.50003 15.6793 4.5 15.5C4.50012 15.3207 4.59629 15.1544 4.75195 15.0654L8.25195 13.0654C8.40657 12.9772 8.59697 12.9781 8.75098 13.0674C8.90501 13.1568 8.99988 13.3219 9 13.5V14.75H10C11.0412 14.75 12.0018 14.4121 12.7842 13.8438L6.1543 7.21387C5.58617 7.99663 5.25007 8.95886 5.25 10H3.75C3.75008 8.54419 4.24827 7.20489 5.08301 6.14258L1.46973 2.5293L2.53027 1.46875L18.5303 17.4688Z" fill="#000000"/>
<path d="M16.25 10C16.25 10.9337 16.0428 11.8187 15.6758 12.6143L14.5205 11.459C14.6688 10.9992 14.75 10.5091 14.75 10H16.25Z" fill="#000000"/>
<path d="M11.249 2.06738C11.403 1.97811 11.5934 1.97724 11.748 2.06543L15.248 4.06543C15.4037 4.1544 15.4999 4.32071 15.5 4.5C15.5 4.67934 15.4037 4.84555 15.248 4.93457L11.748 6.93457C11.5934 7.02284 11.4031 7.02197 11.249 6.93262C11.095 6.84315 11 6.67814 11 6.5V5.25H10C9.49089 5.25 9.0008 5.3312 8.54102 5.47949L7.38477 4.32324C8.18052 3.95602 9.06609 3.75 10 3.75H11V2.5C11.0001 2.32191 11.095 2.15679 11.249 2.06738Z" fill="#000000"/>
</svg>
