<svg xmlns="http://www.w3.org/2000/svg" width="20" height="20" viewBox="0 0 20 20" fill="none"><rect width="20" height="20" fill="none"/>
<path d="M12 5C13.6569 5 15 6.34315 15 8C15 9.65685 13.6569 11 12 11C10.3431 11 9 9.65685 9 8C9 6.34315 10.3431 5 12 5ZM12 6.5C11.1716 6.5 10.5 7.17157 10.5 8C10.5 8.82843 11.1716 9.5 12 9.5C12.8284 9.5 13.5 8.82843 13.5 8C13.5 7.17157 12.8284 6.5 12 6.5Z" fill="#000000"/>
<path d="M14.6543 2.50391C16.1883 2.58163 17.4184 3.81166 17.4961 5.3457L17.5 5.5V14.5C17.5 16.1569 16.1569 17.5 14.5 17.5H5.5C3.84315 17.5 2.5 16.1569 2.5 14.5V5.5C2.5 3.8949 3.76056 2.58421 5.3457 2.50391L5.5 2.5H14.5L14.6543 2.50391ZM6.91895 13.1016C6.42399 12.5654 5.57601 12.5654 5.08105 13.1016L4 14.2715V14.5C4 15.3284 4.67157 16 5.5 16H9.59375L6.91895 13.1016ZM5.5 4C4.67157 4 4 4.67157 4 5.5V12.0625C5.09154 10.9048 6.93831 10.9119 8.02051 12.084L11.6348 16H14.5C15.3284 16 16 15.3284 16 14.5V5.5C16 4.67157 15.3284 4 14.5 4H5.5Z" fill="#000000"/>
</svg>
