<svg xmlns="http://www.w3.org/2000/svg" width="20" height="20" viewBox="0 0 20 20" fill="none"><rect width="20" height="20" fill="none"/>
<path d="M11 4H15C16.6553 4 18 5.33966 18 6.99805V13.001C18 14.6588 16.6559 16 15 16H11V18H9V2H11V4ZM11 14H15C15.5532 14 16 13.5523 16 13.001V10H11V14ZM11 8H16V6.99805C16 6.4473 15.5538 6 15 6H11V8Z" fill="#000000"/>
<path d="M7 6H5C4.44772 6 4 6.44772 4 7V13C4 13.5523 4.44772 14 5 14H7V16H5C3.34315 16 2 14.6569 2 13V7C2 5.34315 3.34315 4 5 4H7V6Z" fill="#000000"/>
</svg>
