<svg xmlns="http://www.w3.org/2000/svg" width="20" height="20" viewBox="0 0 20 20" fill="none"><rect width="20" height="20" fill="none"/>
<path d="M19.03 12.0303L12.03 19.0303L10.9694 17.9697L17.9694 10.9697L19.03 12.0303Z" fill="#000000"/>
<path d="M17.4997 16C18.3281 16 18.9997 16.6716 18.9997 17.5C18.9997 18.3284 18.3281 19 17.4997 19C16.6716 18.9996 15.9997 18.3282 15.9997 17.5C15.9997 16.6719 16.6717 16.0004 17.4997 16Z" fill="#000000"/>
<path d="M9.9997 2C11.0035 2.00008 11.9769 2.2848 12.6735 2.5498C13.0267 2.68421 13.3231 2.81925 13.5309 2.9209C13.6344 2.97149 13.718 3.01498 13.7761 3.0459C13.8044 3.06098 13.8282 3.07403 13.8444 3.08301C13.8521 3.0872 13.8601 3.0911 13.8649 3.09375C13.8668 3.09487 13.8708 3.09766 13.8708 3.09766L13.8727 3.09863L13.8737 3.09961C14.0725 3.21331 14.2095 3.41223 14.2438 3.63867C14.2778 3.865 14.2067 4.09538 14.0505 4.2627L11.2468 7.26367L13.9225 8.53809C14.1951 8.6679 14.4516 8.82413 14.6911 9H11.405L10.0007 8.33105L6.72333 9.89258C5.87243 10.2981 5.23876 11.0533 4.98798 11.9619L4.52118 13.6523C4.12673 15.0845 5.20465 16.5003 6.69012 16.501H9.00067V18.001H6.69012C4.21381 18.0003 2.41801 15.6412 3.07587 13.2539L3.54169 11.5635C3.90819 10.2351 4.83476 9.13079 6.0788 8.53809L8.7536 7.26367L5.9538 4.2627C5.79806 4.09545 5.72752 3.86466 5.76141 3.63867C5.79568 3.41249 5.93215 3.21344 6.13055 3.09961L6.13348 3.09766C6.13348 3.09766 6.13732 3.09581 6.13934 3.09473C6.144 3.09211 6.15119 3.08823 6.15887 3.08398C6.17516 3.07497 6.19946 3.06223 6.22821 3.04688C6.28619 3.01591 6.36887 2.97167 6.47235 2.9209C6.67976 2.81918 6.97505 2.68437 7.32782 2.5498C8.02327 2.28461 8.99551 2.00013 9.9997 2ZM9.9997 3.50098C9.25477 3.50111 8.47723 3.71753 7.862 3.95215C7.82617 3.96584 7.7909 3.98149 7.75653 3.99512L9.9997 6.40137L12.2468 3.99512C12.2123 3.98146 12.1763 3.96586 12.1403 3.95215C11.5234 3.71745 10.7446 3.50106 9.9997 3.50098Z" fill="#000000"/>
<path d="M12.4997 11C13.3281 11 13.9997 11.6716 13.9997 12.5C13.9997 13.3284 13.3281 14 12.4997 14C11.6717 13.9995 10.9997 13.3281 10.9997 12.5C10.9997 11.6719 11.6717 11.0005 12.4997 11Z" fill="#000000"/>
</svg>
