<svg xmlns="http://www.w3.org/2000/svg" width="20" height="20" viewBox="0 0 20 20" fill="none"><rect width="20" height="20" fill="none"/>
<path d="M18.0498 14.2988C18.0498 16.3699 16.3709 18.0488 14.2998 18.0488H5.5C3.53948 18.0487 1.9502 16.4596 1.9502 14.499C1.9502 12.7255 3.25075 11.2555 4.9502 10.9912V1.94922H18.0498V14.2988ZM5.5 12.4492C4.36791 12.4493 3.4502 13.3669 3.4502 14.499C3.4502 15.6311 4.36791 16.5487 5.5 16.5488H9.90234C9.49199 15.9698 9.25 15.2628 9.25 14.499C9.25 13.7353 9.49199 13.0283 9.90234 12.4492H5.5ZM6.4502 10.9492H13V12.4492H12.7998C11.6678 12.4494 10.75 13.367 10.75 14.499C10.75 15.6311 11.6678 16.5486 12.7998 16.5488H14.2998C15.5424 16.5488 16.5498 15.5415 16.5498 14.2988C16.5498 10.7665 16.5499 6.64524 16.5498 3.44922H6.4502V10.9492Z" fill="#000000"/>
</svg>
