<svg xmlns="http://www.w3.org/2000/svg" width="20" height="20" viewBox="0 0 20 20" fill="none"><rect width="20" height="20" fill="none"/>
<path d="M11.25 4.99902C12.9069 4.99902 14.25 6.34217 14.25 7.99902C14.25 9.65588 12.9069 10.999 11.25 10.999H8.75V12.499H11V13.999H8.75V14.999H7.25V13.999H6V12.499H7.25V10.999H6V9.49902H7.25V4.99902H11.25ZM8.75 9.49902H11.25C12.0784 9.49902 12.75 8.82745 12.75 7.99902C12.75 7.1706 12.0784 6.49902 11.25 6.49902H8.75V9.49902Z" fill="#000000"/>
<path d="M14.5 2.5C16.1567 2.50013 17.5 3.84323 17.5 5.5V14.5C17.5 16.1568 16.1567 17.4999 14.5 17.5H5.5C3.84315 17.5 2.5 16.1569 2.5 14.5V5.5C2.5 3.84315 3.84315 2.5 5.5 2.5H14.5ZM5.5 4C4.67157 4 4 4.67157 4 5.5V14.5C4 15.3284 4.67157 16 5.5 16H14.5C15.3283 15.9999 16 15.3283 16 14.5V5.5C16 4.67165 15.3283 4.00013 14.5 4H5.5Z" fill="#000000"/>
</svg>
