<svg xmlns="http://www.w3.org/2000/svg" width="20" height="20" viewBox="0 0 20 20" fill="none"><rect width="20" height="20" fill="none"/>
<path d="M13.5303 8.52984L9.5 12.5601L6.96973 10.0298L8.03027 8.96929L9.5 10.439L12.4697 7.46929L13.5303 8.52984Z" fill="#000000"/>
<path d="M8.62598 2.42632C9.47621 1.93602 10.5238 1.93602 11.374 2.42632L15.874 5.023C16.7252 5.51404 17.2498 6.42222 17.25 7.40484V12.5943C17.25 13.577 16.7252 14.485 15.874 14.9761L11.374 17.5728C10.5237 18.0633 9.47631 18.0633 8.62598 17.5728L4.12598 14.9761C3.27482 14.485 2.75 13.577 2.75 12.5943V7.40484C2.75017 6.42222 3.27483 5.51404 4.12598 5.023L8.62598 2.42632ZM10.625 3.72612C10.2385 3.50326 9.76147 3.50326 9.375 3.72612L4.875 6.32183C4.48831 6.54501 4.25017 6.95837 4.25 7.40484V12.5943C4.25 13.0409 4.4883 13.454 4.875 13.6773L9.375 16.273C9.76158 16.496 10.2384 16.496 10.625 16.273L15.125 13.6773C15.5117 13.454 15.75 13.0409 15.75 12.5943V7.40484C15.7498 6.95837 15.5117 6.54501 15.125 6.32183L10.625 3.72612Z" fill="#000000"/>
</svg>
