<svg xmlns="http://www.w3.org/2000/svg" width="20" height="20" viewBox="0 0 20 20" fill="none"><rect width="20" height="20" fill="none"/>
<path d="M19 19H11V17.5H19V19Z" fill="#000000"/>
<path d="M9.99999 2C11.0038 2.00012 11.9772 2.28479 12.6738 2.5498C13.027 2.68424 13.3234 2.81926 13.5312 2.9209C13.6347 2.97152 13.7183 3.01499 13.7764 3.0459C13.8047 3.06101 13.8285 3.07404 13.8447 3.08301C13.8524 3.08723 13.8605 3.09111 13.8652 3.09375C13.8671 3.09492 13.8711 3.09766 13.8711 3.09766L13.873 3.09863L13.874 3.09961C14.0727 3.21333 14.2098 3.41227 14.2441 3.63867C14.2781 3.86499 14.207 4.09539 14.0508 4.2627L11.2471 7.26465L13.9219 8.53809C14.4291 8.77972 14.8824 9.10782 15.2676 9.5H12.4531L9.99999 8.33105L6.72264 9.89258C5.87161 10.2981 5.2381 11.0532 4.98729 11.9619L4.52049 13.6523C4.12593 15.0846 5.20378 16.5005 6.68944 16.501H8.99901V18.001H6.68944C4.21294 18.0005 2.4172 15.6413 3.07518 13.2539L3.541 11.5635C3.90753 10.235 4.83393 9.13076 6.07811 8.53809L8.75292 7.26367L5.95409 4.2627C5.79824 4.09542 5.72778 3.86474 5.7617 3.63867C5.79599 3.41239 5.9323 3.21342 6.13085 3.09961L6.13378 3.09766C6.13378 3.09766 6.13757 3.09585 6.13963 3.09473C6.14433 3.09208 6.15143 3.08826 6.15917 3.08398C6.17549 3.07495 6.1997 3.06226 6.2285 3.04688C6.28653 3.01588 6.3691 2.97169 6.47264 2.9209C6.6801 2.81915 6.97528 2.68438 7.32811 2.5498C8.02361 2.2846 8.99576 2.00008 9.99999 2ZM9.99999 3.50098C9.25503 3.50106 8.47758 3.71752 7.86229 3.95215C7.8264 3.96585 7.79124 3.98147 7.75682 3.99512L9.99999 6.40137L12.2471 3.99512C12.2125 3.98146 12.1766 3.96587 12.1406 3.95215C11.5237 3.71743 10.745 3.5011 9.99999 3.50098Z" fill="#000000"/>
<path d="M19 16.5H11V15H19V16.5Z" fill="#000000"/>
<path d="M18.7959 11.1895L11.7959 14.1895L11.2051 12.8105L18.2051 9.81055L18.7959 11.1895Z" fill="#000000"/>
</svg>
