<svg xmlns="http://www.w3.org/2000/svg" width="20" height="20" viewBox="0 0 20 20" fill="none"><rect width="20" height="20" fill="none"/>
<path d="M7 5.17383C8.16468 5.58594 9 6.69415 9 8C9 9.30585 8.16468 10.4141 7 10.8262V18H5V10.8262C3.83532 10.4141 3 9.30585 3 8C3 6.69415 3.83532 5.58594 5 5.17383V2H7V5.17383ZM6 7C5.44772 7 5 7.44772 5 8C5 8.55229 5.44772 9 6 9C6.55228 9 7 8.55229 7 8C7 7.44772 6.55228 7 6 7Z" fill="#000000"/>
<path d="M15 9.17383C16.1647 9.58594 17 10.6941 17 12C17 13.3059 16.1647 14.4141 15 14.8262V18H13V14.8262C11.8353 14.4141 11 13.3059 11 12C11 10.6941 11.8353 9.58594 13 9.17383V2H15V9.17383ZM14 11C13.4477 11 13 11.4477 13 12C13 12.5523 13.4477 13 14 13C14.5523 13 15 12.5523 15 12C15 11.4477 14.5523 11 14 11Z" fill="#000000"/>
</svg>
