<svg xmlns="http://www.w3.org/2000/svg" width="20" height="20" viewBox="0 0 20 20" fill="none"><rect width="20" height="20" fill="none"/>
<path d="M18.707 17.293L17.293 18.707L13.5898 15.0039C12.8116 15.4706 11.9367 15.7927 11 15.9268V18H9V15.9268C5.60787 15.4414 3 12.5264 3 9H5C5 11.7614 7.23858 14 10 14C10.7565 14 11.4728 13.8303 12.1152 13.5293L1.29297 2.70703L2.70703 1.29297L18.707 17.293Z" fill="#000000"/>
<path d="M17 9C17 10.1828 16.7045 11.2958 16.1865 12.2725L14.6777 10.7637C14.8847 10.215 15 9.62111 15 9H17Z" fill="#000000"/>
<path d="M10 2C11.6569 2 13 3.34315 13 5V9.08594L11 7.08594V5C11 4.44772 10.5523 4 10 4C9.44772 4 9 4.44772 9 5V5.08594L7.4082 3.49414C7.92796 2.6015 8.89262 2 10 2Z" fill="#000000"/>
</svg>
