<svg xmlns="http://www.w3.org/2000/svg" width="24" height="24" viewBox="0 0 24 24" fill="none"><rect width="24" height="24" fill="none"/>
<path d="M19.9844 13.5264C20.1271 13.3807 20.3708 13.517 20.3213 13.7148L19.5 17H21C21.4043 17.0001 21.7691 17.2437 21.9238 17.6172C22.0785 17.9908 21.9929 18.4211 21.707 18.707L17.6133 22.4404C17.4581 22.5814 17.2186 22.4191 17.292 22.2227L18.5 19H17C16.6077 19 16.252 18.7703 16.0898 18.4131C15.9278 18.0559 15.9889 17.6371 16.2471 17.3418L19.9844 13.5264Z" fill="#000000"/>
<path d="M22 12H20V10L17 7H4V14L7 17H14V19H2V5H22V12Z" fill="#000000"/>
<path d="M12 9C13.6569 9 15 10.3431 15 12C15 13.6569 13.6569 15 12 15C10.3431 15 9 13.6569 9 12C9 10.3431 10.3431 9 12 9ZM12 11C11.4477 11 11 11.4477 11 12C11 12.5523 11.4477 13 12 13C12.5523 13 13 12.5523 13 12C13 11.4477 12.5523 11 12 11Z" fill="#000000"/>
</svg>
