<svg xmlns="http://www.w3.org/2000/svg" width="20" height="20" viewBox="0 0 20 20" fill="none"><rect width="20" height="20" fill="none"/>
<path d="M18.707 17.293L17.293 18.707L15.9355 17.3496C15.8589 17.5544 15.717 17.7322 15.5254 17.8506C15.2306 18.0327 14.8626 18.0495 14.5527 17.8945L10 15.6182L5.44727 17.8945C5.13735 18.0495 4.76939 18.0327 4.47461 17.8506C4.17979 17.6684 4 17.3466 4 17V5.41406L1.29297 2.70703L2.70703 1.29297L18.707 17.293ZM6 15.3818L10 13.3818L13.9355 15.3496L6 7.41406V15.3818Z" fill="#000000"/>
<path d="M16 12.0859L14 10.0859V4H7.91406L5.91406 2H16V12.0859Z" fill="#000000"/>
</svg>
