<svg xmlns="http://www.w3.org/2000/svg" width="24" height="24" viewBox="0 0 24 24" fill="none"><rect width="24" height="24" fill="none"/>
<path d="M22.707 16.707L17.5 21.9141L14.293 18.707L15.707 17.293L17.5 19.0859L21.293 15.293L22.707 16.707Z" fill="#000000"/>
<path d="M22 13H20V10L17 7H4V14L7 17H12V19H2V5H22V13Z" fill="#000000"/>
<path d="M12 9C13.6569 9 15 10.3431 15 12C15 13.6569 13.6569 15 12 15C10.3431 15 9 13.6569 9 12C9 10.3431 10.3431 9 12 9ZM12 11C11.4477 11 11 11.4477 11 12C11 12.5523 11.4477 13 12 13C12.5523 13 13 12.5523 13 12C13 11.4477 12.5523 11 12 11Z" fill="#000000"/>
</svg>
