<svg xmlns="http://www.w3.org/2000/svg" width="20" height="20" viewBox="0 0 20 20" fill="none"><rect width="20" height="20" fill="none"/>
<path d="M19.1406 17.2314L17.8594 18.7686L15.5 16.8018L13.1406 18.7686L11.8594 17.2314L15.5 14.1982L19.1406 17.2314Z" fill="#000000"/>
<path d="M15 2C16.6569 2 18 3.34315 18 5V9H16V5C16 4.44772 15.5523 4 15 4H5C4.44772 4 4 4.44772 4 5V15C4 15.5523 4.44772 16 5 16H10V18H5C3.34315 18 2 16.6569 2 15V5C2 3.34315 3.34315 2 5 2H15Z" fill="#000000"/>
<path d="M19.1406 13.2314L17.8594 14.7686L15.5 12.8018L13.1406 14.7686L11.8594 13.2314L15.5 10.1982L19.1406 13.2314Z" fill="#000000"/>
<path d="M10 12H6V10H10V12Z" fill="#000000"/>
<path d="M13 8H6V6H13V8Z" fill="#000000"/>
</svg>
