<svg xmlns="http://www.w3.org/2000/svg" width="24" height="24" viewBox="0 0 24 24" fill="none"><rect width="24" height="24" fill="none"/>
<path d="M12.0002 14.5C12.6905 14.5001 13.2502 15.0597 13.2502 15.75C13.2502 16.4403 12.6905 16.9999 12.0002 17C11.3099 16.9999 10.7502 16.4403 10.7502 15.75C10.7502 15.0597 11.3099 14.5001 12.0002 14.5Z" fill="#000000"/>
<path d="M13.0002 13H11.0002L10.7502 7.5H13.2502L13.0002 13Z" fill="#000000"/>
<path d="M11.9992 2C12.031 2.03159 15.0314 4.99952 20.9982 5C20.9985 7.99995 21.9992 19.9997 11.9992 22L11.5383 21.8994C2.03126 19.6272 2.99851 7.95304 2.99824 5C8.95011 4.99998 11.9512 2.04759 11.9992 2ZM11.9982 4.50977C11.6215 4.75529 11.1703 5.02528 10.6428 5.28906C9.25957 5.98047 7.36634 6.64847 4.9748 6.89648C4.96382 8.67242 5.03921 11.0308 5.67695 13.3428C6.52412 16.4135 8.25971 19.0547 11.9982 19.9521C15.7385 19.0552 17.4733 16.4138 18.3205 13.3428C18.9582 11.0307 19.0329 8.67246 19.0217 6.89648C16.6306 6.64826 14.7376 5.98045 13.3547 5.28906C12.8268 5.02508 12.375 4.75542 11.9982 4.50977Z" fill="#000000"/>
</svg>
