<svg xmlns="http://www.w3.org/2000/svg" width="20" height="20" viewBox="0 0 20 20" fill="none"><rect width="20" height="20" fill="none"/>
<path d="M14 10C16.2091 10 18 11.7909 18 14C18 14.8334 17.7437 15.6064 17.3076 16.2471L19.0303 17.9697L17.9697 19.0303L16.2471 17.3076C15.6064 17.7437 14.8334 18 14 18C11.7909 18 10 16.2091 10 14C10 11.7909 11.7909 10 14 10ZM14 11.5C12.6193 11.5 11.5 12.6193 11.5 14C11.5 15.3807 12.6193 16.5 14 16.5C15.3807 16.5 16.5 15.3807 16.5 14C16.5 12.6193 15.3807 11.5 14 11.5Z" fill="#000000"/>
<path d="M13 2C14.6569 2 16 3.34315 16 5V8H14.5V5C14.5 4.17157 13.8284 3.5 13 3.5H7C6.17157 3.5 5.5 4.17157 5.5 5V15C5.5 15.8284 6.17157 16.5 7 16.5H8.99902V18H7C5.34315 18 4 16.6569 4 15V5C4 3.34315 5.34315 2 7 2H13Z" fill="#000000"/>
<path d="M11 5C11.5523 5 12 5.44772 12 6C12 6.55228 11.5523 7 11 7H9C8.44772 7 8 6.55228 8 6C8 5.44772 8.44772 5 9 5H11Z" fill="#000000"/>
</svg>
