<svg xmlns="http://www.w3.org/2000/svg" width="20" height="20" viewBox="0 0 20 20" fill="none"><rect width="20" height="20" fill="none"/>
<path fill-rule="evenodd" clip-rule="evenodd" d="M16.1713 2C17.2756 2.00026 18.1713 2.89559 18.1713 4V9.58594C18.1712 10.1162 17.9602 10.625 17.5853 11L11.2924 17.293C10.1209 18.464 8.22165 18.464 7.05017 17.293L2.8783 13.1211C1.70724 11.9496 1.70723 10.0504 2.8783 8.87891L9.17126 2.58594C9.54617 2.21116 10.0552 2.00016 10.5853 2H16.1713ZM12.6713 6C11.8431 6.00025 11.1713 6.67173 11.1713 7.5C11.1713 8.32827 11.8431 8.99975 12.6713 9C13.4995 8.99974 14.1713 8.32826 14.1713 7.5C14.1713 6.67174 13.4995 6.00026 12.6713 6Z" fill="#000000"/>
</svg>
