<svg xmlns="http://www.w3.org/2000/svg" width="20" height="20" viewBox="0 0 20 20" fill="none"><rect width="20" height="20" fill="none"/>
<path d="M10 2C14.4183 2 18 5.58172 18 10C18 14.4183 14.4183 18 10 18C5.58172 18 2 14.4183 2 10C2 5.58172 5.58172 2 10 2ZM8.38672 6.46777C8.07308 5.99116 7.38461 5.96101 7.03027 6.4082L6.17969 7.48242C6.06812 7.62323 6.03638 7.81187 6.0957 7.98145C7.06524 10.7524 9.24857 12.9396 12.0205 13.9062C12.1895 13.965 12.3773 13.9334 12.5176 13.8223L13.6006 12.9629C14.0451 12.6102 14.0174 11.9271 13.5459 11.6113L12.3438 10.8057L10.75 11.75C9.7598 11.0899 8.91013 10.2402 8.25 9.25L9.20312 7.70898L8.38672 6.46777Z" fill="#000000"/>
</svg>
