<svg xmlns="http://www.w3.org/2000/svg" width="20" height="20" viewBox="0 0 20 20" fill="none"><rect width="20" height="20" fill="none"/>
<path d="M19.2067 12.207L12.2067 19.207L10.7926 17.793L17.7926 10.793L19.2067 12.207Z" fill="#000000"/>
<path d="M17.4997 16C18.3279 16.0002 18.9996 16.6717 18.9997 17.5C18.9996 18.3283 18.3279 18.9998 17.4997 19C16.6715 18.9997 15.9997 18.3282 15.9997 17.5C15.9997 16.6718 16.6715 16.0003 17.4997 16Z" fill="#000000"/>
<path d="M10.0006 2C11.0477 2.00009 12.0534 2.29632 12.7633 2.56641C13.1249 2.70404 13.428 2.84197 13.6413 2.94629C13.7476 2.99831 13.8338 3.04302 13.8942 3.0752C13.924 3.09107 13.9491 3.10467 13.9665 3.11426C13.9748 3.11885 13.9827 3.12303 13.988 3.12598C13.9902 3.12727 13.9948 3.12988 13.9948 3.12988L13.9967 3.13184H13.9987C13.9945 3.13965 13.9501 3.21821 13.5036 4.00098L13.9987 3.13184C14.2692 3.28642 14.4534 3.55934 14.4948 3.86816C14.5358 4.17671 14.4307 4.48786 14.2106 4.70801L11.6891 7.22656L13.8737 8.31934C14.2443 8.50468 14.5864 8.73474 14.8952 9H10.7624L10.0006 8.61914L7.02213 10.1084C6.27044 10.4845 5.71011 11.1596 5.47916 11.9678L5.05533 13.4512C4.69107 14.7283 5.65008 16.0006 6.97818 16.001H8.99967V18.001H6.97818C4.32145 18.0006 2.40251 15.4569 3.13151 12.9023L3.55631 11.418C3.94129 10.0708 4.87456 8.94617 6.1276 8.31934L8.31217 7.22656L5.79654 4.70801C5.57676 4.48792 5.47144 4.17647 5.51236 3.86816C5.55368 3.55984 5.7367 3.28758 6.00651 3.13281L6.00846 3.13184L6.01139 3.13086L6.03873 3.11523C6.05605 3.10564 6.08117 3.0921 6.111 3.07617C6.17132 3.04396 6.25755 2.99945 6.36393 2.94727C6.57678 2.84288 6.87883 2.70414 7.2399 2.56641C7.94872 2.29614 8.95333 2.00012 10.0006 2ZM10.0006 4.00098C9.40919 4.00109 8.78687 4.14694 8.24576 4.33008L10.0016 6.08594L11.7585 4.33008C11.2159 4.1468 10.5923 4.00105 10.0006 4.00098Z" fill="#000000"/>
<path d="M12.4997 11C13.3279 11.0002 13.9996 11.6717 13.9997 12.5C13.9996 13.3283 13.3279 13.9998 12.4997 14C11.6715 13.9997 10.9997 13.3282 10.9997 12.5C10.9997 11.6718 11.6715 11.0003 12.4997 11Z" fill="#000000"/>
</svg>
