<svg xmlns="http://www.w3.org/2000/svg" width="24" height="24" viewBox="0 0 24 24" fill="none"><rect width="24" height="24" fill="none"/>
<path d="M19.792 14.0079C20.212 14.0079 20.6287 14.0892 21.0176 14.2471C21.4068 14.4053 21.7626 14.6379 22.0605 14.9337L22.0596 14.9346C22.6595 15.5299 23.0038 16.3331 23.0039 17.1788C23.0039 18.0246 22.6598 18.8286 22.0596 19.4239L22.0547 19.4288L18.7705 22.6387C18.6689 22.7631 18.5392 22.866 18.3848 22.9307C18.0131 23.0864 17.5841 23.0033 17.2969 22.7208L13.9502 19.4249L13.9473 19.422C13.3476 18.8267 13.0039 18.0233 13.0039 17.1778C13.004 16.3324 13.3476 15.5288 13.9473 14.9337C14.2452 14.638 14.6002 14.4053 14.9893 14.2471C15.3784 14.089 15.7956 14.0079 16.2158 14.0079C16.636 14.0079 17.0533 14.0891 17.4424 14.2471C17.6392 14.3271 17.8266 14.4274 18.0029 14.544C18.1796 14.427 18.3682 14.3273 18.5654 14.2471C18.9545 14.0891 19.3718 14.0079 19.792 14.0079ZM19.792 16.0079C19.6282 16.0079 19.4666 16.0395 19.3184 16.0997C19.1702 16.1599 19.0395 16.2476 18.9326 16.3536L18.9268 16.3585L18.7021 16.5772C18.3136 16.9568 17.6932 16.9568 17.3047 16.5772L17.0811 16.3585L17.0752 16.3536C16.9684 16.2476 16.8375 16.1599 16.6895 16.0997C16.5412 16.0395 16.3797 16.0079 16.2158 16.0079C16.052 16.0079 15.8905 16.0395 15.7422 16.0997C15.594 16.1599 15.4633 16.2476 15.3564 16.3536C15.1252 16.5831 15.004 16.8792 15.0039 17.1778C15.0039 17.4754 15.1239 17.7709 15.3535 18.0001L17.9941 20.6007L20.6562 17.9991C20.8846 17.7702 21.0039 17.4755 21.0039 17.1788C21.0038 16.9174 20.9116 16.657 20.7334 16.4425L20.6514 16.3536C20.5445 16.2476 20.4128 16.1599 20.2646 16.0997C20.1166 16.0396 19.9556 16.0079 19.792 16.0079Z" fill="#000000"/>
<path d="M9.40332 2.19734C9.65676 2.00904 9.98465 1.95145 10.2871 2.04207L21 5.25594V12.0001H19V6.74422L11 4.34383V19.0001H12V21.0001H3V11.0001L9 8.75008V3.00008L9.00684 2.88289C9.03891 2.61161 9.18142 2.36245 9.40332 2.19734ZM5 12.3858V19.0001H9V10.8858L5 12.3858Z" fill="#000000"/>
</svg>
