<svg xmlns="http://www.w3.org/2000/svg" width="24" height="24" viewBox="0 0 24 24" fill="none"><rect width="24" height="24" fill="none"/>
<path d="M5.5 5H4V9.5C4 11.433 5.567 13 7.5 13C9.433 13 11 11.433 11 9.5V5H9.5V3H13V9.5C13 12.186 11.0743 14.4207 8.52832 14.9023C8.78668 17.2817 10.8019 19.1338 13.25 19.1338C15.8734 19.1338 18 17.0071 18 14.3838V13.8535C16.5545 13.4231 15.5 12.0854 15.5 10.5C15.5 8.567 17.067 7 19 7C20.933 7 22.5 8.567 22.5 10.5C22.5 12.0854 21.4455 13.4231 20 13.8535V14.3838C20 18.1117 16.9779 21.1338 13.25 21.1338C9.6996 21.1338 6.79157 18.3925 6.52246 14.9111C3.95143 14.4497 2 12.2038 2 9.5V3H5.5V5ZM19 9C18.1716 9 17.5 9.67157 17.5 10.5C17.5 11.3284 18.1716 12 19 12C19.8284 12 20.5 11.3284 20.5 10.5C20.5 9.67157 19.8284 9 19 9Z" fill="#000000"/>
</svg>
