<svg xmlns="http://www.w3.org/2000/svg" width="24" height="24" viewBox="0 0 24 24" fill="none"><rect width="24" height="24" fill="none"/>
<path d="M19 13C19.4142 13 19.75 13.3358 19.75 13.75V14C19.75 15.7949 21.2051 17.25 23 17.25H23.25C23.6642 17.25 24 17.5858 24 18C24 18.4142 23.6642 18.75 23.25 18.75H23C21.2051 18.75 19.75 20.2051 19.75 22V22.25C19.75 22.6642 19.4142 23 19 23C18.5858 23 18.25 22.6642 18.25 22.25V22C18.25 20.2051 16.7949 18.75 15 18.75H14.75C14.3358 18.75 14 18.4142 14 18C14 17.5858 14.3358 17.25 14.75 17.25H15C16.7949 17.25 18.25 15.7949 18.25 14V13.75C18.25 13.3358 18.5858 13 19 13Z" fill="#000000"/>
<path d="M18 4C20.2089 4 22 5.79066 22 8V11H4V16C4 17.1046 4.89543 18 6 18H11V20H6C3.79086 20 2 18.2091 2 16V8C2 5.79086 3.79086 4 6 4H18ZM6 6C4.89543 6 4 6.89543 4 8V9H20V8C20 6.89563 19.1048 6 18 6H6Z" fill="#000000"/>
<path d="M11 16H6V14H11V16Z" fill="#000000"/>
</svg>
