<svg xmlns="http://www.w3.org/2000/svg" width="20" height="20" viewBox="0 0 20 20" fill="none"><rect width="20" height="20" fill="none"/>
<path d="M12.5001 4C12.9416 4 13.3312 4.28996 13.4581 4.71289L14.7442 9H16.501L16.6632 9.01367C17.0351 9.075 17.3471 9.34293 17.4581 9.71289L18.9581 14.7129C19.0488 15.0155 18.9913 15.3432 18.8028 15.5967C18.6143 15.85 18.3168 15.9997 18.001 16H10.1007V15.9941C10.0675 15.9975 10.0337 16 10.0001 16H2.00007C1.6841 15.9999 1.38596 15.8502 1.19734 15.5967C1.00904 15.3432 0.951453 15.0153 1.04206 14.7129L2.54206 9.71289C2.66892 9.29002 3.05861 9.00016 3.50007 9H5.25593L6.54206 4.71289C6.66892 4.29002 7.05861 4.00016 7.50007 4H12.5001ZM3.34382 14H8.65632L7.75593 11H4.24421L3.34382 14ZM10.7442 14H16.6573L15.7569 11H9.84382L10.7442 14ZM7.34382 9H12.6563L11.7559 6H8.24421L7.34382 9Z" fill="#000000"/>
</svg>
