<svg xmlns="http://www.w3.org/2000/svg" width="20" height="20" viewBox="0 0 20 20" fill="none"><rect width="20" height="20" fill="none"/>
<path d="M10 12C10.6904 12 11.25 12.5596 11.25 13.25C11.25 13.9404 10.6904 14.5 10 14.5C9.30964 14.5 8.75 13.9404 8.75 13.25C8.75 12.5596 9.30964 12 10 12Z" fill="#000000"/>
<path d="M11 11H9L8.75 6H11.25L11 11Z" fill="#000000"/>
<path d="M10 2C14.4183 2 18 5.58172 18 10C18 14.4183 14.4183 18 10 18C5.58172 18 2 14.4183 2 10C2 5.58172 5.58172 2 10 2ZM10 4C6.68629 4 4 6.68629 4 10C4 13.3137 6.68629 16 10 16C13.3137 16 16 13.3137 16 10C16 6.68629 13.3137 4 10 4Z" fill="#000000"/>
</svg>
