<svg xmlns="http://www.w3.org/2000/svg" width="20" height="20" viewBox="0 0 20 20" fill="none"><rect width="20" height="20" fill="none"/>
<path d="M13.6797 11.0049C15.5292 11.0984 17 12.6273 17 14.5C17 16.433 15.433 18 13.5 18H6.5C4.567 18 3 16.433 3 14.5C3 12.567 4.567 11 6.5 11H13.5L13.6797 11.0049ZM6.5 13C5.67157 13 5 13.6716 5 14.5C5 15.3284 5.67157 16 6.5 16C7.32843 16 8 15.3284 8 14.5C8 13.6716 7.32843 13 6.5 13ZM9.66309 13C9.87907 13.4546 10 13.9632 10 14.5C10 15.0368 9.87907 15.5454 9.66309 16H13.5C14.3284 16 15 15.3284 15 14.5C15 13.6716 14.3284 13 13.5 13H9.66309Z" fill="#000000"/>
<path d="M13.6797 2.00488C13.7582 2.00886 13.836 2.01632 13.9131 2.02539C14.1058 2.04806 14.2937 2.08598 14.4756 2.13867C14.4908 2.14309 14.5063 2.14675 14.5215 2.15137C14.6141 2.17959 14.7047 2.21252 14.7939 2.24805C14.8102 2.25454 14.8266 2.26085 14.8428 2.26758C14.9293 2.30356 15.0138 2.34318 15.0967 2.38574C15.1133 2.39426 15.1301 2.40236 15.1465 2.41113C15.1638 2.4204 15.1811 2.4299 15.1982 2.43945C15.2337 2.45917 15.269 2.4791 15.3037 2.5C15.3169 2.50793 15.3297 2.51632 15.3428 2.52441C15.372 2.54257 15.401 2.5611 15.4297 2.58008C15.4568 2.59804 15.4832 2.61705 15.5098 2.63574C15.527 2.64785 15.5445 2.65947 15.5615 2.67188C15.6389 2.72838 15.7137 2.78807 15.7861 2.85059C15.7933 2.85677 15.8005 2.8629 15.8076 2.86914C15.8359 2.89393 15.8632 2.91964 15.8906 2.94531C15.9106 2.96404 15.9306 2.98276 15.9502 3.00195C15.966 3.01743 15.9816 3.03306 15.9971 3.04883C16.0168 3.06887 16.0365 3.08887 16.0557 3.10938C16.117 3.17494 16.1752 3.24334 16.2314 3.31348C16.2455 3.33101 16.2597 3.3484 16.2734 3.36621C16.2909 3.38885 16.3083 3.4115 16.3252 3.43457C16.3405 3.45548 16.3553 3.47679 16.3701 3.49805C16.3855 3.5201 16.4011 3.54203 16.416 3.56445C16.4938 3.6814 16.5644 3.80342 16.6279 3.92969C16.6642 4.00188 16.6981 4.07544 16.7295 4.15039C16.7396 4.17463 16.7492 4.19912 16.7588 4.22363C16.7907 4.30494 16.8199 4.38754 16.8457 4.47168C16.888 4.6095 16.9211 4.75102 16.9463 4.89551C16.9514 4.92477 16.9575 4.9539 16.9619 4.9834C16.9869 5.15199 17 5.32447 17 5.5C17 7.433 15.433 9 13.5 9H6.5C4.567 9 3 7.433 3 5.5C3 3.567 4.567 2 6.5 2H13.5L13.6797 2.00488ZM6.5 4C5.67157 4 5 4.67157 5 5.5C5 6.32843 5.67157 7 6.5 7H10.3369C10.1209 6.54536 10 6.03681 10 5.5C10 4.96319 10.1209 4.45464 10.3369 4H6.5ZM13.5 4C12.6716 4 12 4.67157 12 5.5C12 6.32843 12.6716 7 13.5 7C14.3284 7 15 6.32843 15 5.5C15 4.67157 14.3284 4 13.5 4Z" fill="#000000"/>
</svg>
