<svg xmlns="http://www.w3.org/2000/svg" width="24" height="24" viewBox="0 0 24 24" fill="none"><rect width="24" height="24" fill="none"/>
<path d="M6 11C6 14.3137 8.68629 17 12 17C15.3137 17 18 14.3137 18 11H20C20 15.0795 16.9462 18.4433 13 18.9355V22H11V18.9355C7.05384 18.4433 4 15.0795 4 11H6Z" fill="#000000"/>
<path d="M12 2C14.2091 2 16 3.79086 16 6V11L15.9951 11.2061C15.8879 13.3194 14.14 15 12 15C9.79086 15 8 13.2091 8 11V6C8 3.79086 9.79086 2 12 2ZM12 4C10.8954 4 10 4.89543 10 6V11C10 12.1046 10.8954 13 12 13C13.1046 13 14 12.1046 14 11V6C14 4.89543 13.1046 4 12 4Z" fill="#000000"/>
</svg>
