<svg xmlns="http://www.w3.org/2000/svg" width="20" height="20" viewBox="0 0 20 20" fill="none"><rect width="20" height="20" fill="none"/>
<path d="M11.2176 2.19993C12.3226 1.97339 13.507 2.02344 14.411 2.47532L14.5438 3.73997L11.8875 5.86595C11.7709 5.95951 11.7612 6.13506 11.867 6.24095L13.8221 8.19603C13.9269 8.30042 14.0987 8.29116 14.1913 8.17552L16.327 5.5056L17.575 5.64036C18.03 6.55079 18.0719 7.73487 17.8417 8.83763C17.6085 9.95387 17.0742 11.1013 16.2362 11.9538C15.6853 12.5142 15.0494 12.9769 14.2245 13.2556C13.4063 13.5319 12.4536 13.609 11.2909 13.4831C11.1832 13.4715 11.0959 13.5098 11.0448 13.5613L7.51743 17.1208C6.2601 18.3898 4.22219 18.3947 2.95884 17.1316C1.68423 15.857 1.68436 13.7792 2.95884 12.5046L6.48032 8.98216C6.53119 8.93119 6.56914 8.84241 6.55845 8.73216C6.44582 7.57937 6.53614 6.63631 6.81821 5.82395C7.10185 5.00727 7.56059 4.3752 8.10435 3.822C8.94835 2.96333 10.1005 2.42903 11.2176 2.19993ZM12.3407 3.57884C12.0789 3.58723 11.8014 3.61692 11.5155 3.67552C10.6234 3.85846 9.75901 4.27811 9.16489 4.88255C8.73086 5.32412 8.41851 5.77172 8.22739 6.322C8.03484 6.87661 7.9475 7.58941 8.04478 8.5847C8.09577 9.10703 7.92865 9.65472 7.53208 10.0515L4.0106 13.574C3.32542 14.2591 3.32447 15.377 4.00962 16.0622C4.68876 16.7411 5.78483 16.7384 6.46079 16.0564L9.98716 12.4968C10.3829 12.0973 10.9294 11.9298 11.45 11.9861C12.464 12.0959 13.1896 12.016 13.7499 11.8269C14.3035 11.6399 14.7473 11.329 15.1756 10.8933C15.7758 10.2827 16.1955 9.41384 16.3807 8.52708C16.4398 8.24395 16.4707 7.96969 16.4803 7.71165L15.3534 9.12083C14.7051 9.93117 13.5047 9.9991 12.7713 9.26634L10.8153 7.31028C10.0739 6.56857 10.1408 5.33986 10.9588 4.68528L12.3407 3.57884Z" fill="#000000"/>
</svg>
