<svg xmlns="http://www.w3.org/2000/svg" width="24" height="24" viewBox="0 0 24 24" fill="none"><rect width="24" height="24" fill="none"/>
<path d="M10.4686 2.24622C11.4124 1.68613 12.5873 1.68618 13.5311 2.24622L19.5311 5.80872C20.4413 6.34916 20.9997 7.33026 20.9999 8.3888V15.6115C20.9999 16.6701 20.4414 17.651 19.5311 18.1915L13.5311 21.754C12.5872 22.3143 11.4125 22.3143 10.4686 21.754L4.46863 18.1915C3.55846 17.651 2.99988 16.6701 2.99988 15.6115V8.3888C3.00004 7.33029 3.55846 6.34917 4.46863 5.80872L10.4686 2.24622ZM6.99988 15.0001H15.9999V13.0001H6.99988V15.0001ZM6.99988 11.0001H12.9999V8.99915H6.99988V11.0001Z" fill="#000000"/>
</svg>
