<svg xmlns="http://www.w3.org/2000/svg" width="20" height="20" viewBox="0 0 20 20" fill="none"><rect width="20" height="20" fill="none"/>
<path d="M15.5957 10.5001C16.047 10.5002 16.3518 10.6391 16.5703 10.8751C16.7833 11.1053 16.9063 11.4197 17.0146 11.7492L19.3008 18.7003H17.4287L16.9248 17.0783H14.0664L13.5234 18.7003H11.75L14.1494 11.7472C14.2636 11.4163 14.3931 11.1026 14.6113 10.8732C14.8351 10.6382 15.1442 10.5002 15.5957 10.5001ZM14.5879 15.5089H16.4277L15.5342 12.6427L14.5879 15.5089Z" fill="#000000"/>
<path d="M8.69727 2.10657C9.99497 1.89244 11.3258 2.00221 12.5713 2.42493C13.8169 2.8478 14.9396 3.57135 15.8389 4.53138C16.738 5.49148 17.387 6.65924 17.7275 7.92981L15.7959 8.44739C15.5405 7.49451 15.0532 6.61862 14.3789 5.89856C13.7045 5.17866 12.8628 4.63562 11.9287 4.31849C10.9945 4.0014 9.99586 3.91953 9.02246 4.0802C8.04906 4.24096 7.13038 4.63978 6.34766 5.24036C5.56502 5.84091 4.94238 6.62505 4.53516 7.52356C4.128 8.42222 3.94821 9.40822 4.0127 10.3927C4.07728 11.377 4.38442 12.3304 4.90527 13.1681C5.42627 14.0058 6.14567 14.7031 7 15.1964L6 16.9279C4.86092 16.2701 3.90069 15.3417 3.20606 14.2247C2.51153 13.1077 2.10368 11.8361 2.01758 10.5236C1.93158 9.21089 2.16999 7.89661 2.71289 6.69837C3.25584 5.50013 4.08623 4.4543 5.12988 3.65345C6.17358 2.85261 7.3993 2.32088 8.69727 2.10657Z" fill="#000000"/>
<path d="M9.21973 6.07728C9.86472 5.94902 10.5318 5.98115 11.1611 6.172C11.7904 6.36295 12.3631 6.70703 12.8281 7.172L11.4141 8.58606C11.1817 8.35376 10.8954 8.18156 10.5811 8.08606C10.2664 7.99066 9.93183 7.97411 9.60938 8.03821C9.28703 8.10241 8.98554 8.24574 8.73145 8.45423C8.47732 8.66279 8.27822 8.9308 8.15235 9.2345C8.02654 9.53827 7.97758 9.86921 8.00977 10.1964C8.04206 10.5235 8.15437 10.8382 8.33692 11.1115C8.51958 11.3847 8.76776 11.6088 9.05762 11.7638C9.34751 11.9186 9.67135 12.0001 10 12.0001V14.0001C9.34235 14.0001 8.69428 13.8374 8.11426 13.5275C7.53447 13.2175 7.03916 12.7694 6.67383 12.2228C6.30851 11.676 6.08403 11.0462 6.01953 10.3917C5.95521 9.73746 6.05317 9.07726 6.30469 8.46985C6.55642 7.86218 6.95445 7.3256 7.46289 6.90833C7.97131 6.49115 8.5747 6.20559 9.21973 6.07728Z" fill="#000000"/>
</svg>
