<svg xmlns="http://www.w3.org/2000/svg" width="20" height="20" viewBox="0 0 20 20" fill="none"><rect width="20" height="20" fill="none"/>
<path d="M18.707 12.7074L16.4141 15.0003L18.707 17.2933L17.293 18.7074L15 16.4144L12.707 18.7074L11.293 17.2933L13.5859 15.0003L11.293 12.7074L12.707 11.2933L15 13.5863L17.293 11.2933L18.707 12.7074Z" fill="#000000"/>
<path d="M7.37402 2.22103C7.61057 2.03128 7.92076 1.95902 8.2168 2.02474L18 4.19954V9.00032H16V5.80306L9 4.24739V18.0013H2V9.0013L7 7.57259V3.0013C7 2.69822 7.13776 2.41083 7.37402 2.22103ZM4 10.5091V16.0013H7V9.65267L4 10.5091Z" fill="#000000"/>
</svg>
