<svg xmlns="http://www.w3.org/2000/svg" width="20" height="20" viewBox="0 0 20 20" fill="none"><rect width="20" height="20" fill="none"/>
<path d="M18.707 13.707L13.5 18.9141L10.293 15.707L11.707 14.293L13.5 16.0859L17.293 12.293L18.707 13.707Z" fill="#000000"/>
<path d="M9 13.5654C7.89839 13.7145 7.0017 14.1122 6.34961 14.6875C5.52558 15.4146 5 16.5043 5 18H3C3 15.9958 3.72455 14.3354 5.02539 13.1875C6.08526 12.2523 7.46449 11.7126 9 11.5518V13.5654Z" fill="#000000"/>
<path d="M10.0039 2C12.213 2 14.0039 3.79086 14.0039 6C14.0039 8.20914 12.213 10 10.0039 10C7.79477 10 6.00391 8.20914 6.00391 6C6.00391 3.79086 7.79477 2 10.0039 2ZM10.0039 4C8.89934 4 8.00391 4.89543 8.00391 6C8.00391 7.10457 8.89934 8 10.0039 8C11.1085 8 12.0039 7.10457 12.0039 6C12.0039 4.89543 11.1085 4 10.0039 4Z" fill="#000000"/>
</svg>
