<svg xmlns="http://www.w3.org/2000/svg" width="20" height="20" viewBox="0 0 20 20" fill="none"><rect width="20" height="20" fill="none"/>
<path d="M5.5 10.9502C7.46055 10.9502 9.0497 12.5395 9.0498 14.5C9.0498 16.4606 7.46061 18.0498 5.5 18.0498C3.53948 18.0497 1.9502 16.4605 1.9502 14.5C1.9503 12.5395 3.53954 10.9503 5.5 10.9502ZM5.5 12.4502C4.36797 12.4503 3.4503 13.368 3.4502 14.5C3.4502 15.6321 4.36791 16.5497 5.5 16.5498C6.63218 16.5498 7.5498 15.6322 7.5498 14.5C7.5497 13.3679 6.63212 12.4502 5.5 12.4502Z" fill="#000000"/>
<path d="M15.25 13.75H18V15.25H15.25V18H13.75V15.25H11V13.75H13.75V11H15.25V13.75Z" fill="#000000"/>
<path d="M5.5 1.9502C7.46055 1.9502 9.0497 3.53948 9.0498 5.5C9.0498 7.46061 7.46061 9.0498 5.5 9.0498C3.53948 9.0497 1.9502 7.46055 1.9502 5.5C1.9503 3.53954 3.53954 1.9503 5.5 1.9502ZM5.5 3.4502C4.36797 3.4503 3.4503 4.36797 3.4502 5.5C3.4502 6.63212 4.36791 7.5497 5.5 7.5498C6.63218 7.5498 7.5498 6.63218 7.5498 5.5C7.5497 4.36791 6.63212 3.4502 5.5 3.4502Z" fill="#000000"/>
<path d="M14.5 1.9502C16.4605 1.9502 18.0497 3.53948 18.0498 5.5C18.0498 7.46061 16.4606 9.0498 14.5 9.0498C12.5395 9.0497 10.9502 7.46055 10.9502 5.5C10.9503 3.53954 12.5395 1.9503 14.5 1.9502ZM14.5 3.4502C13.368 3.4503 12.4503 4.36797 12.4502 5.5C12.4502 6.63212 13.3679 7.5497 14.5 7.5498C15.6322 7.5498 16.5498 6.63218 16.5498 5.5C16.5497 4.36791 15.6321 3.4502 14.5 3.4502Z" fill="#000000"/>
</svg>
