<svg xmlns="http://www.w3.org/2000/svg" width="20" height="20" viewBox="0 0 20 20" fill="none"><rect width="20" height="20" fill="none"/>
<path d="M10.82 2.91895C12.0175 4.5954 13.1753 5.62702 14.2341 6.75195C15.2807 7.86396 16.193 9.04288 16.4919 10.8359C17.1013 14.4933 14.074 18 10.0056 18C5.93757 17.9997 2.90973 14.4932 3.51924 10.8359C3.81808 9.04292 4.73147 7.86393 5.77803 6.75195C6.83682 5.62703 7.99458 4.5954 9.19209 2.91895L10.0056 1.7793L10.82 2.91895ZM10.0056 5.13867C8.97527 6.39815 7.98001 7.3305 7.23409 8.12305C6.28088 9.13586 5.69308 9.95738 5.4919 11.1641C5.10138 13.5063 7.07395 15.9997 10.0056 16C12.9374 16 14.9097 13.5066 14.5192 11.1641C14.318 9.95748 13.7312 9.13579 12.778 8.12305C12.032 7.33044 11.0359 6.39829 10.0056 5.13867Z" fill="#000000"/>
</svg>
