<svg xmlns="http://www.w3.org/2000/svg" width="24" height="24" viewBox="0 0 24 24" fill="none"><rect width="24" height="24" fill="none"/>
<path d="M14.4141 4H19C20.6569 4 22 5.34315 22 7V14C22 15.6569 20.6569 17 19 17H18V18C18 19.6569 16.6569 21 15 21H5C3.34315 21 2 19.6569 2 18V9C2 7.34315 3.34315 6 5 6H6V5C6 3.34315 7.34315 2 9 2H12.4141L14.4141 4ZM5 8C4.44772 8 4 8.44772 4 9V18C4 18.5523 4.44772 19 5 19H15C15.5523 19 16 18.5523 16 18V17H9C7.34315 17 6 15.6569 6 14V8H5ZM9 4C8.44772 4 8 4.44772 8 5V14C8 14.5523 8.44772 15 9 15H19C19.5523 15 20 14.5523 20 14V7C20 6.44772 19.5523 6 19 6H13.5859L11.5859 4H9Z" fill="#000000"/>
</svg>
