<svg xmlns="http://www.w3.org/2000/svg" width="24" height="24" viewBox="0 0 24 24" fill="none"><rect width="24" height="24" fill="none"/>
<path d="M12 7C13.6569 7 15 8.34315 15 10C15 11.6569 13.6569 13 12 13C10.3431 13 9 11.6569 9 10C9 8.34315 10.3431 7 12 7ZM12 9C11.4477 9 11 9.44772 11 10C11 10.5523 11.4477 11 12 11C12.5523 11 13 10.5523 13 10C13 9.44772 12.5523 9 12 9Z" fill="#000000"/>
<path d="M17 3C19.2091 3 21 4.79086 21 7V17C21 19.2091 19.2091 21 17 21H7C4.79086 21 3 19.2091 3 17V7C3 4.79086 4.79086 3 7 3H17ZM7 5C5.89543 5 5 5.89543 5 7V17C5 18.1046 5.89543 19 7 19V18.333C7.00014 16.7203 7.76343 15.5858 8.80469 14.8955C9.79833 14.2369 11.007 14 12 14C13.0253 14 14.2159 14.293 15.1797 14.9062C16.1594 15.5297 17 16.5594 17 18V19C18.1046 19 19 18.1046 19 17V7C19 5.89543 18.1046 5 17 5H7ZM12 16C11.2787 16 10.4869 16.1795 9.90918 16.5625C9.37933 16.9138 9.00012 17.4462 9 18.333V19H15V18C15 17.4407 14.6979 16.9703 14.1064 16.5938C13.4988 16.2071 12.689 16 12 16Z" fill="#000000"/>
</svg>
