<svg xmlns="http://www.w3.org/2000/svg" width="20" height="20" viewBox="0 0 20 20" fill="none"><rect width="20" height="20" fill="none"/>
<path d="M13.707 8.70732L9.5 12.9144L6.79297 10.2073L8.20703 8.79326L9.5 10.0862L12.293 7.29326L13.707 8.70732Z" fill="#000000"/>
<path d="M8.3877 1.76982C9.38668 1.19912 10.6133 1.19912 11.6123 1.76982L16.3623 4.48466C17.3747 5.06325 17.9998 6.13991 18 7.30595V12.6946C17.9999 13.8607 17.3747 14.9373 16.3623 15.5159L11.6123 18.2308C10.6133 18.8015 9.38672 18.8015 8.3877 18.2308L3.6377 15.5159C2.6253 14.9373 2.0001 13.8607 2 12.6946V7.30595C2.00016 6.13991 2.62531 5.06325 3.6377 4.48466L8.3877 1.76982ZM10.6201 3.50615C10.236 3.2868 9.76401 3.2868 9.37988 3.50615L4.62988 6.22099C4.24065 6.4435 4.00016 6.85762 4 7.30595V12.6946C4.0001 13.143 4.24064 13.557 4.62988 13.7796L9.37988 16.4944C9.76404 16.7138 10.236 16.7138 10.6201 16.4944L15.3701 13.7796C15.7594 13.557 15.9999 13.143 16 12.6946V7.30595C15.9998 6.85762 15.7594 6.4435 15.3701 6.22099L10.6201 3.50615Z" fill="#000000"/>
</svg>
