<svg xmlns="http://www.w3.org/2000/svg" width="24" height="24" viewBox="0 0 24 24" fill="none"><rect width="24" height="24" fill="none"/>
<path d="M12 2C13.7299 2 15.2019 3.09859 15.7598 4.63574C16.2562 4.43965 16.759 4.27927 17.2549 4.15527L17.7578 4.03027C18.0565 3.95569 18.3726 4.02249 18.6152 4.21191C18.858 4.40142 19 4.69206 19 5V8C19 11.3137 16.3137 14 13 14V16.792C13.4309 16.2951 13.9524 15.8312 14.5801 15.4688C16.0274 14.6332 17.6586 14.5562 18.8467 14.6523C19.4522 14.7014 19.9751 14.7983 20.3467 14.8828C20.533 14.9252 20.6835 14.9651 20.79 14.9951C20.8433 15.0101 20.8864 15.0229 20.917 15.0322C20.9321 15.0368 20.9449 15.041 20.9541 15.0439C20.9583 15.0453 20.962 15.0459 20.9648 15.0469L20.9697 15.0488L20.9707 15.0498L20.9717 15.0488C20.9717 15.0488 20.9675 15.0629 20.6602 16L20.3496 16.9502C20.3467 16.9493 20.3399 16.9477 20.332 16.9453C20.3149 16.9401 20.2862 16.9307 20.248 16.9199C20.171 16.8982 20.053 16.867 19.9033 16.833C19.6024 16.7646 19.1767 16.6863 18.6865 16.6465C17.6826 16.5651 16.5237 16.6564 15.5801 17.2012C14.6365 17.746 13.9784 18.7041 13.5469 19.6143C13.3362 20.0587 13.1908 20.466 13.0996 20.7607C13.0542 20.9075 13.0236 21.0249 13.0039 21.1025C13.0025 21.1079 13.0013 21.1132 13 21.1182V22H11V21.1182C10.9987 21.1132 10.9975 21.1079 10.9961 21.1025C10.9764 21.0249 10.9458 20.9075 10.9004 20.7607C10.8092 20.466 10.6638 20.0587 10.4531 19.6143C10.0216 18.7041 9.36354 17.746 8.41992 17.2012C7.47632 16.6564 6.31744 16.5651 5.31348 16.6465C4.8233 16.6863 4.39756 16.7646 4.09668 16.833C3.947 16.867 3.82903 16.8982 3.75195 16.9199C3.71378 16.9307 3.68512 16.9401 3.66797 16.9453C3.66008 16.9477 3.6543 16.9493 3.65137 16.9502L3.33984 16C3.03251 15.0629 3.02832 15.0488 3.02832 15.0488L3.0293 15.0498L3.03027 15.0488L3.03516 15.0469C3.03804 15.0459 3.04172 15.0453 3.0459 15.0439C3.05508 15.041 3.06794 15.0368 3.08301 15.0322C3.11362 15.0229 3.15665 15.0101 3.20996 14.9951C3.31647 14.9651 3.46705 14.9252 3.65332 14.8828C4.02491 14.7983 4.54778 14.7014 5.15332 14.6523C6.34136 14.5562 7.97265 14.6332 9.41992 15.4688C10.0476 15.8312 10.5691 16.2951 11 16.792V14C7.68629 14 5 11.3137 5 8V5C5 4.69206 5.14205 4.40142 5.38477 4.21191C5.62741 4.02249 5.94354 3.95569 6.24219 4.03027L6.74512 4.15527C7.24074 4.2792 7.74306 4.4398 8.23926 4.63574C8.79706 3.09842 10.27 2 12 2ZM17 6.31152C15.1969 6.91086 13.6156 8.00522 12.8945 9.44727H11.1055C10.3844 8.00522 8.80315 6.91086 7 6.31152V8C7 10.2091 8.79086 12 11 12H13C15.2091 12 17 10.2091 17 8V6.31152ZM12 4C11.0504 4 10.2571 4.66224 10.0527 5.5498C10.7794 6.008 11.4473 6.55903 12 7.20898C12.5525 6.55924 13.2198 6.00792 13.9463 5.5498C13.7418 4.66235 12.9495 4 12 4Z" fill="#000000"/>
</svg>
