<svg xmlns="http://www.w3.org/2000/svg" width="20" height="20" viewBox="0 0 20 20" fill="none"><rect width="20" height="20" fill="none"/>
<path d="M7.91895 3.63417C8.61602 3.0728 9.50066 2.78757 10.4814 3.04432C11.2134 3.23603 11.7736 3.6787 12.125 4.29237C12.4612 4.87959 12.5765 5.56677 12.5625 6.24452C12.5345 7.593 11.995 9.16677 11.1338 10.6332C10.3958 11.8897 9.36602 13.152 8.10254 14.183C8.23504 14.3521 8.36829 14.4558 8.49121 14.5131C8.68984 14.6056 9.04498 14.6649 9.67969 14.3773C10.3321 14.0817 11.1939 13.4525 12.2744 12.3119C12.5559 12.015 12.99 11.9193 13.3701 12.0707C13.7504 12.2222 14 12.591 14 13.0004C14.0001 13.6733 14.1022 14.1006 14.2148 14.3295C14.2669 14.4352 14.3079 14.4721 14.3164 14.4789C14.312 14.4785 14.3164 14.4789 14.3164 14.4789C14.3545 14.4825 14.5851 14.4717 15.0488 14.1322C15.4944 13.806 16.0526 13.2495 16.7051 12.3939L18.2949 13.6068C17.5762 14.5492 16.8856 15.2668 16.2305 15.7465C15.5939 16.2124 14.8709 16.5399 14.127 16.4691C13.305 16.3908 12.7385 15.8602 12.4199 15.2133C12.3871 15.1467 12.3576 15.0774 12.3291 15.0072C11.6889 15.5394 11.0828 15.9368 10.5049 16.1986C9.5048 16.6517 8.51919 16.733 7.64648 16.3266C7.14663 16.0936 6.75571 15.7303 6.44922 15.308C5.12929 16.0406 3.63291 16.5004 2 16.5004V14.5004C3.30471 14.5004 4.53423 14.1087 5.63574 13.4691C5.48899 12.8873 5.40375 12.2632 5.37012 11.6322C5.26701 9.69565 5.62827 7.48017 6.37695 5.7953C6.75007 4.95579 7.25451 4.16933 7.91895 3.63417ZM9.97461 4.97889C9.70843 4.90932 9.4631 4.95804 9.17285 5.19178C8.84999 5.45197 8.5089 5.92335 8.20508 6.60682C7.59971 7.96906 7.27876 9.86478 7.36719 11.5258C7.37824 11.7332 7.39476 11.934 7.41797 12.1264C8.20611 11.3816 8.88148 10.518 9.40918 9.61952C10.1619 8.33782 10.5439 7.10044 10.5625 6.20253C10.5716 5.75772 10.4903 5.46252 10.3896 5.28651C10.304 5.13698 10.1854 5.03412 9.97461 4.97889Z" fill="#000000"/>
</svg>
