<svg xmlns="http://www.w3.org/2000/svg" width="20" height="20" viewBox="0 0 20 20" fill="none"><rect width="20" height="20" fill="none"/>
<path d="M18.5303 17.4697L17.4697 18.5303L16.0215 17.082C15.5756 17.3464 15.0564 17.5 14.5 17.5H5.5C3.84315 17.5 2.5 16.1569 2.5 14.5V5.5C2.5 4.94363 2.65276 4.42371 2.91699 3.97754L1.46973 2.53027L2.53027 1.46973L18.5303 17.4697ZM6.91895 13.1006C6.42401 12.5645 5.57599 12.5645 5.08105 13.1006L4 14.2705V14.5C4 15.3284 4.67157 16 5.5 16H9.59473L6.91895 13.1006ZM4.05078 5.11133C4.01761 5.23528 4 5.36558 4 5.5V12.0615C5.09154 10.9041 6.93838 10.9111 8.02051 12.083L11.6357 16H14.5C14.6342 16 14.764 15.9813 14.8877 15.9482L4.05078 5.11133Z" fill="#000000"/>
<path d="M14.6543 2.50391C16.1883 2.58163 17.4184 3.81166 17.4961 5.3457L17.5 5.5V14.4395L16 12.9395V5.5C16 4.67157 15.3284 4 14.5 4H7.06055L5.56055 2.5H14.5L14.6543 2.50391Z" fill="#000000"/>
<path d="M12 5C13.6569 5 15 6.34315 15 8C15 9.06924 14.4388 10.0049 13.5967 10.5361L12.4805 9.41992C13.073 9.21949 13.5 8.66022 13.5 8C13.5 7.17157 12.8284 6.5 12 6.5C11.34 6.5 10.7797 6.92631 10.5791 7.51855L9.46289 6.40234C9.99418 5.56041 10.9309 5 12 5Z" fill="#000000"/>
</svg>
