<svg xmlns="http://www.w3.org/2000/svg" width="20" height="20" viewBox="0 0 20 20" fill="none"><rect width="20" height="20" fill="none"/>
<path d="M18.9992 12.5C18.9992 12.5 18.9992 17.5 14.9992 19C10.9996 17.4998 10.9992 12.5 10.9992 12.5L14.9992 11L18.9992 12.5ZM12.6075 13.498C12.6698 13.8519 12.7669 14.2652 12.9161 14.6943C13.2796 15.7393 13.9047 16.7541 14.9992 17.3535C16.0938 16.7542 16.7187 15.7393 17.0822 14.6943C17.2314 14.2652 17.3275 13.8519 17.3898 13.498L14.9992 12.6016L12.6075 13.498Z" fill="#000000"/>
<path d="M17.4367 7.13965C17.7015 7.32914 17.8142 7.66831 17.715 7.97852C17.6154 8.28869 17.3268 8.49979 17.0011 8.5H10.7511V10H9.2511V8.5H5.7511V15.5H9.00013V17H3.0011V15.5H4.2511V8.5H3.0011C2.67528 8.49991 2.38682 8.28873 2.28724 7.97852C2.18793 7.66821 2.30051 7.32913 2.56556 7.13965L10.0011 1.82812L17.4367 7.13965ZM5.34192 7H14.6613L10.0011 3.6709L5.34192 7Z" fill="#000000"/>
</svg>
