<svg xmlns="http://www.w3.org/2000/svg" width="24" height="24" viewBox="0 0 24 24" fill="none"><rect width="24" height="24" fill="none"/>
<path d="M18.2578 15.0625C18.4167 14.9746 18.6106 14.98 18.7646 15.0762L22.7646 17.5762C22.9108 17.6675 23 17.8277 23 18C23 18.1723 22.9108 18.3325 22.7646 18.4238L18.7646 20.9238C18.6106 21.02 18.4167 21.0254 18.2578 20.9375C18.0989 20.8494 18 20.6817 18 20.5V19C16.8955 19 16.0001 19.8955 16 21V23H14V21C14.0001 18.7909 15.7909 17 18 17V15.5L18.0049 15.4326C18.026 15.2777 18.1188 15.1396 18.2578 15.0625Z" fill="#000000"/>
<path d="M9 4H15V2H17V4C19.2091 4 21 5.79086 21 8V13H19V10H5V17C5 18.1046 5.89543 19 7 19H12V21H7C4.79086 21 3 19.2091 3 17V8C3 5.79086 4.79086 4 7 4V2H9V4ZM7 6C5.89543 6 5 6.89543 5 8H19C19 6.89543 18.1046 6 17 6H7Z" fill="#000000"/>
</svg>
