<svg xmlns="http://www.w3.org/2000/svg" width="20" height="20" viewBox="0 0 20 20" fill="none"><rect width="20" height="20" fill="none"/>
<path d="M18 11H16.459L10.7588 17.6504C10.5688 17.872 10.2919 18 10 18C9.70808 18 9.43119 17.872 9.24121 17.6504L3.54102 11H2V9.00001H18V11ZM10 15.4639L13.8262 11H6.17383L10 15.4639Z" fill="#000000"/>
<path d="M12.0039 2.00001C12.309 2.00135 12.5975 2.14203 12.7861 2.38184L16.9941 7.73731H14.4512L11.9932 4.60938L10.3809 6.62501C10.2067 6.84263 9.94894 6.97718 9.6709 6.99708C9.39292 7.01684 9.11932 6.92012 8.91602 6.7295L8.02246 5.89063L6.17578 7.73731H3.34863L7.29297 3.792L7.36719 3.72559C7.75073 3.41139 8.31446 3.42446 8.68359 3.77052L9.49414 4.53028L11.2188 2.37501L11.2949 2.29102C11.4821 2.1049 11.7369 1.99896 12.0039 2.00001Z" fill="#000000"/>
</svg>
