<svg xmlns="http://www.w3.org/2000/svg" width="20" height="20" viewBox="0 0 20 20" fill="none"><rect width="20" height="20" fill="none"/>
<path d="M13.749 4.56751C13.903 4.47826 14.0934 4.47739 14.248 4.56556L17.748 6.56556C17.9037 6.65451 17.9999 6.82085 18 7.00013C18 7.17949 17.9037 7.34565 17.748 7.4347L14.248 9.4347C14.0934 9.523 13.9031 9.52213 13.749 9.43275C13.595 9.34326 13.5 9.1783 13.5 9.00013V7.75013H13C11.7574 7.75013 10.7501 8.75757 10.75 10.0001V16.0001H9.25V10.0001C9.24978 8.75767 8.24251 7.75013 7 7.75013H6.5V9.00111C6.49991 9.17922 6.40503 9.3443 6.25098 9.43372C6.09696 9.52302 5.90659 9.52389 5.75195 9.43568L2.25195 7.4347C2.09629 7.34569 2.00007 7.17943 2 7.00013C2.00024 6.821 2.09643 6.65546 2.25195 6.56654L5.75195 4.56654C5.90661 4.47829 6.09694 4.47916 6.25098 4.56849C6.405 4.65794 6.49994 4.82299 6.5 5.00111V6.25013H7C8.22648 6.25013 9.31483 6.83978 9.99902 7.75013C10.6832 6.83916 11.773 6.25013 13 6.25013H13.5V5.00013C13.5001 4.82205 13.595 4.65691 13.749 4.56751Z" fill="#000000"/>
</svg>
