<svg xmlns="http://www.w3.org/2000/svg" width="20" height="20" viewBox="0 0 20 20" fill="none"><rect width="20" height="20" fill="none"/>
<path d="M13.5547 15.832L10 18.2021L6.44531 15.832L7.55469 14.168L10 15.7979L12.4453 14.168L13.5547 15.832Z" fill="#000000"/>
<path d="M14.5 3C15.8795 3 17 4.11706 17 5.49902V10.5C17 11.8809 15.8806 13 14.5 13H5.5C4.11929 13 3 11.8807 3 10.5V5.5C3 4.11929 4.11929 3 5.5 3H14.5ZM5 10.5C5 10.7761 5.22386 11 5.5 11H14.5C14.7763 11 15 10.776 15 10.5V7.83301H5V10.5ZM5.5 5C5.22386 5 5 5.22386 5 5.5V6H15V5.49902C15 5.22413 14.7774 5 14.5 5H5.5Z" fill="#000000"/>
</svg>
