<svg xmlns="http://www.w3.org/2000/svg" width="20" height="20" viewBox="0 0 20 20" fill="none"><rect width="20" height="20" fill="none"/>
<path d="M13.5303 8.52988L9.5 12.5602L6.96973 10.0299L8.03027 8.96934L9.5 10.4391L12.4697 7.46934L13.5303 8.52988Z" fill="#000000"/>
<path d="M8.51172 1.98594C9.43388 1.45911 10.5661 1.45911 11.4883 1.98594L16.2383 4.70078C17.1728 5.23494 17.75 6.22883 17.75 7.30527V12.6939C17.7498 13.7703 17.1728 14.7644 16.2383 15.2984L11.4883 18.0133C10.5663 18.5399 9.43374 18.5399 8.51172 18.0133L3.76172 15.2984C2.82719 14.7644 2.25025 13.7703 2.25 12.6939V7.30527C2.25002 6.22883 2.82717 5.23494 3.76172 4.70078L8.51172 1.98594ZM10.7441 3.28867C10.283 3.0252 9.71698 3.0252 9.25586 3.28867L4.50586 6.00254C4.03867 6.26963 3.75002 6.76712 3.75 7.30527V12.6939C3.75025 13.232 4.0387 13.7297 4.50586 13.9967L9.25586 16.7105C9.71684 16.9738 10.2832 16.9738 10.7441 16.7105L15.4941 13.9967C15.9613 13.7297 16.2498 13.232 16.25 12.6939V7.30527C16.25 6.76712 15.9613 6.26963 15.4941 6.00254L10.7441 3.28867Z" fill="#000000"/>
</svg>
