<svg xmlns="http://www.w3.org/2000/svg" width="20" height="20" viewBox="0 0 20 20" fill="none"><rect width="20" height="20" fill="none"/>
<path d="M10.3994 2.53199C11.9859 1.47458 14.0981 1.68384 15.4463 3.03199L16.207 3.79274C16.4445 4.03041 16.547 4.37178 16.4795 4.70094C16.4118 5.02996 16.183 5.30371 15.8711 5.42848C14.8299 5.84496 14.2368 6.13764 13.8184 6.44703C13.722 6.51828 13.6313 6.59161 13.5459 6.67164L19 5.83375V6.99977C18.9999 9.15289 18.4607 10.8466 17.2451 11.9812C16.3745 12.7937 15.2554 13.2245 13.9951 13.4011L15.4688 16.7166L14.6143 17.1443L14.4727 17.2146C11.6575 18.6221 8.34348 18.6221 5.52832 17.2146L5.38672 17.1443L4.53223 16.7166L6.00391 13.4021C4.74651 13.2284 3.62791 12.8039 2.75684 11.9949C1.5384 10.863 1.00008 9.1672 1 6.99977V5.83375L6.4541 6.67262C6.36852 6.59242 6.27816 6.51842 6.18164 6.44703C5.76323 6.13764 5.17006 5.84496 4.12891 5.42848C3.81699 5.30371 3.58824 5.02996 3.52051 4.70094C3.45296 4.37178 3.55545 4.03041 3.79297 3.79274L4.55371 3.03199C5.90188 1.68384 8.01414 1.47458 9.60059 2.53199L10 2.79762L10.3994 2.53199ZM13.7148 4.18922C13.0555 3.75595 12.1866 3.74436 11.5088 4.19606L10 5.20192L8.49121 4.19606C7.81316 3.7442 6.94356 3.7555 6.28418 4.18922C6.69388 4.39294 7.05256 4.6031 7.37109 4.83863C8.04349 5.33593 8.48929 5.9083 8.91406 6.64625C9.56752 7.78214 8.55577 9.02018 7.39258 8.84156L3.07227 8.17652C3.22622 9.33257 3.61483 10.0625 4.11816 10.53C4.78929 11.1531 5.86384 11.4998 7.5 11.4998H9.03906L7.15234 15.7429C8.98605 16.4419 11.0128 16.4425 12.8467 15.7439L10.9609 11.4998H12.5C14.1314 11.4998 15.2069 11.1462 15.8799 10.5183C16.384 10.0478 16.7711 9.31891 16.9258 8.17652L12.6074 8.84156C11.4442 9.02019 10.4325 7.78213 11.0859 6.64625C11.5107 5.9083 11.9565 5.33593 12.6289 4.83863C12.9472 4.60325 13.3055 4.39282 13.7148 4.18922Z" fill="#000000"/>
</svg>
