<svg xmlns="http://www.w3.org/2000/svg" width="20" height="20" viewBox="0 0 20 20" fill="none"><rect width="20" height="20" fill="none"/>
<path d="M4 14.75C4 15.4404 4.55964 16 5.25 16H7V17.5H5.25C3.73122 17.5 2.5 16.2688 2.5 14.75V13H4V14.75Z" fill="#000000"/>
<path d="M17.5 14.75C17.5 16.2688 16.2688 17.5 14.75 17.5H13V16H14.75C15.4404 16 16 15.4404 16 14.75V13H17.5V14.75Z" fill="#000000"/>
<path d="M10.7617 5.42578C11.2322 5.51745 11.6912 5.69915 12.0811 5.9873C12.6952 6.4416 13.116 7.14542 13.1162 8.05078H11.6162C11.616 7.65887 11.4516 7.38802 11.1885 7.19336C10.9787 7.03841 10.6953 6.92763 10.3779 6.87988L9.6377 6.88574C9.33418 6.93609 9.06354 7.04406 8.86133 7.19336C8.59801 7.38804 8.43376 7.65872 8.43359 8.05078C8.43359 8.27999 8.4821 8.4221 8.53613 8.5166C8.59129 8.61281 8.67792 8.70433 8.81836 8.79395C9.13356 8.99481 9.58785 9.11601 10.207 9.27051C10.7581 9.40802 11.4756 9.57983 12.0381 9.93848C12.336 10.1286 12.6156 10.3848 12.8164 10.7354C13.0181 11.0879 13.1162 11.4945 13.1162 11.9463C13.1161 12.8039 12.6804 13.4953 12.0947 13.9502C11.713 14.2466 11.2554 14.452 10.7754 14.5586V15.999H9.27539V14.5684C8.80971 14.4758 8.35584 14.2951 7.96973 14.0098C7.35531 13.5554 6.93369 12.852 6.93359 11.9463H8.43359C8.43368 12.3384 8.59806 12.609 8.86133 12.8037C9.06915 12.9572 9.34922 13.0668 9.66309 13.1152H10.3535C10.6626 13.0624 10.9523 12.9383 11.1748 12.7656C11.4664 12.5391 11.6161 12.2565 11.6162 11.9463C11.6162 11.7174 11.5686 11.5749 11.5146 11.4805C11.4595 11.3842 11.3719 11.2928 11.2314 11.2031C10.9164 11.0023 10.4627 10.881 9.84375 10.7266C9.2926 10.589 8.57446 10.4173 8.01172 10.0586C7.71375 9.8685 7.43515 9.61231 7.23438 9.26172C7.0325 8.90897 6.93359 8.50282 6.93359 8.05078C6.93378 7.14515 7.35527 6.44159 7.96973 5.9873C8.35237 5.70459 8.80147 5.52393 9.2627 5.43066L9.25098 4.00488L10.75 3.99219L10.7617 5.42578Z" fill="#000000"/>
<path d="M7 4H5.25C4.55964 4 4 4.55964 4 5.25V7H2.5V5.25C2.5 3.73122 3.73122 2.5 5.25 2.5H7V4Z" fill="#000000"/>
<path d="M14.75 2.5C16.2688 2.5 17.5 3.73122 17.5 5.25V7H16V5.25C16 4.55964 15.4404 4 14.75 4H13V2.5H14.75Z" fill="#000000"/>
</svg>
