<svg xmlns="http://www.w3.org/2000/svg" width="20" height="20" viewBox="0 0 20 20" fill="none"><rect width="20" height="20" fill="none"/>
<path d="M10.8965 5H15C16.6568 5.00001 18 6.34316 18 8V14C18 15.6568 16.6568 16.9999 15 17H14V15H15C15.5522 14.9999 16 14.5522 16 14V8C16 7.44773 15.5523 7.00001 15 7H10.1045L9.81543 6.72949L7.97363 5H5C4.44772 5 4 5.44772 4 6V14L4.00488 14.1025C4.05621 14.6067 4.48232 15 5 15H7V13.5C7 13.3182 7.09884 13.1506 7.25781 13.0625C7.41669 12.9746 7.61062 12.98 7.76465 13.0762L11.7646 15.5762C11.9108 15.6675 12 15.8276 12 16C12 16.1724 11.9108 16.3325 11.7646 16.4238L7.76465 18.9238C7.61062 19.02 7.41669 19.0254 7.25781 18.9375C7.09883 18.8494 7 18.6818 7 18.5V17H5C3.39489 17 2.08421 15.7394 2.00391 14.1543L2 14V6C2 4.34315 3.34315 3 5 3H8.76562L10.8965 5Z" fill="#000000"/>
</svg>
