<svg xmlns="http://www.w3.org/2000/svg" width="20" height="20" viewBox="0 0 20 20" fill="none"><rect width="20" height="20" fill="none"/>
<path d="M15.5664 10.5C16.3909 10.5 16.6321 11.0213 16.8408 11.6807L19 18.5H17.4023L16.917 16.8789H14.0254L13.5029 18.5H12L14.2656 11.6807C14.4853 11.0192 14.7417 10.5001 15.5664 10.5ZM14.4629 15.5098H16.499L15.5283 12.2773H15.4902L14.4629 15.5098Z" fill="#000000"/>
<path d="M15 3C16.6565 3 17.9999 4.34196 18 5.99902V8.5H3.5V14C3.5 14.8284 4.17157 15.5 5 15.5H10V17H5C3.34315 17 2 15.6569 2 14V6C2 4.34315 3.34315 3 5 3H15ZM5 4.5C4.17157 4.5 3.5 5.17157 3.5 6V7H16.5V5.99902C16.4999 5.17103 15.8287 4.5 15 4.5H5Z" fill="#000000"/>
</svg>
