<svg xmlns="http://www.w3.org/2000/svg" width="20" height="20" viewBox="0 0 20 20" fill="none"><rect width="20" height="20" fill="none"/>
<path d="M10 2.25C11.5188 2.25 12.75 3.48122 12.75 5C12.75 6.2584 11.9037 7.31578 10.75 7.64258V9.25H11C12.8461 9.25 14.3788 10.5843 14.6904 12.3408C15.8746 12.6474 16.75 13.72 16.75 15C16.75 16.5188 15.5188 17.75 14 17.75C12.4812 17.75 11.25 16.5188 11.25 15C11.25 13.7738 12.0527 12.7356 13.1611 12.3809C12.892 11.4396 12.0277 10.75 11 10.75H9C7.97225 10.75 7.10695 11.4395 6.83789 12.3809C7.9468 12.7353 8.75 13.7735 8.75 15C8.75 16.5188 7.51878 17.75 6 17.75C4.48122 17.75 3.25 16.5188 3.25 15C3.25 13.7203 4.12487 12.6477 5.30859 12.3408C5.62017 10.5842 7.15388 9.25 9 9.25H9.25V7.64258C8.09627 7.31578 7.25 6.2584 7.25 5C7.25 3.48122 8.48122 2.25 10 2.25ZM6 13.75C5.30964 13.75 4.75 14.3096 4.75 15C4.75 15.6904 5.30964 16.25 6 16.25C6.69036 16.25 7.25 15.6904 7.25 15C7.25 14.3096 6.69036 13.75 6 13.75ZM14 13.75C13.3096 13.75 12.75 14.3096 12.75 15C12.75 15.6904 13.3096 16.25 14 16.25C14.6904 16.25 15.25 15.6904 15.25 15C15.25 14.3096 14.6904 13.75 14 13.75ZM10 3.75C9.30964 3.75 8.75 4.30964 8.75 5C8.75 5.69036 9.30964 6.25 10 6.25C10.6904 6.25 11.25 5.69036 11.25 5C11.25 4.30964 10.6904 3.75 10 3.75Z" fill="#000000"/>
</svg>
