<svg xmlns="http://www.w3.org/2000/svg" width="20" height="20" viewBox="0 0 20 20" fill="none"><rect width="20" height="20" fill="none"/>
<path d="M19 12.5C19.0007 12.5069 19.4969 17.501 15 19L14.5928 18.8496C11.0549 17.4065 10.9544 13.6604 10.9873 12.7178L11 12.5L15 11L19 12.5ZM13.0566 13.8643C13.0936 14.0981 13.1477 14.3495 13.2256 14.6055C13.4827 15.4501 13.9716 16.2941 15 16.833C16.0284 16.294 16.5173 15.4501 16.7744 14.6055C16.8523 14.3496 16.9045 14.098 16.9414 13.8643L15 13.1357L13.0566 13.8643Z" fill="#000000"/>
<path d="M9 13.5654C7.89839 13.7145 7.0017 14.1122 6.34961 14.6875C5.52558 15.4146 5 16.5043 5 18H3C3 15.9958 3.72455 14.3354 5.02539 13.1875C6.08526 12.2523 7.46449 11.7126 9 11.5518V13.5654Z" fill="#000000"/>
<path d="M10 2C12.2091 2 14 3.79086 14 6C14 8.20914 12.2091 10 10 10C7.79086 10 6 8.20914 6 6C6 3.79086 7.79086 2 10 2ZM10 4C8.89543 4 8 4.89543 8 6C8 7.10457 8.89543 8 10 8C11.1046 8 12 7.10457 12 6C12 4.89543 11.1046 4 10 4Z" fill="#000000"/>
</svg>
