<svg xmlns="http://www.w3.org/2000/svg" width="20" height="20" viewBox="0 0 20 20" fill="none"><rect width="20" height="20" fill="none"/>
<path d="M6.49964 8C7.32806 8 7.99964 8.67157 7.99964 9.5C7.99964 10.3284 7.32806 11 6.49964 11C5.67149 10.9997 4.99964 10.3282 4.99964 9.5C4.99964 8.67178 5.67149 8.00033 6.49964 8Z" fill="#000000"/>
<path d="M13.4996 8C14.3281 8 14.9996 8.67157 14.9996 9.5C14.9996 10.3284 14.3281 11 13.4996 11C12.6715 10.9997 11.9996 10.3282 11.9996 9.5C11.9996 8.67178 12.6715 8.00033 13.4996 8Z" fill="#000000"/>
<path d="M13.8512 3C15.8685 3.00001 17.5707 4.50222 17.8209 6.50391L18.7115 13.6318C18.9351 15.4202 17.5402 17 15.7379 17C15.0229 16.9998 14.3306 16.7436 13.7877 16.2783L11.1305 14H8.86878L6.21155 16.2783C5.66858 16.7436 4.9764 16.9999 4.26135 17C2.45931 16.9997 1.06422 15.42 1.28772 13.6318L2.17932 6.50391C2.42953 4.50238 4.13103 3.00027 6.14807 3H13.8512ZM6.14807 5C5.13967 5.00027 4.28879 5.75128 4.1637 6.75195L3.2721 13.8799C3.19782 14.4744 3.66231 14.9997 4.26135 15C4.49898 14.9999 4.72931 14.9143 4.90979 14.7598L7.84924 12.2412L8.12952 12H11.8698L12.15 12.2412L15.0895 14.7598C15.2699 14.9144 15.5003 14.9998 15.7379 15C16.3372 15 16.8015 14.4746 16.7272 13.8799L15.8356 6.75195C15.7104 5.75114 14.8598 5.00001 13.8512 5H6.14807Z" fill="#000000"/>
</svg>
