<svg xmlns="http://www.w3.org/2000/svg" width="24" height="24" viewBox="0 0 24 24" fill="none"><rect width="24" height="24" fill="none"/>
<path d="M22 23H14V21H22V23Z" fill="#000000"/>
<path d="M12 2C13.6569 2 15 3.34314 15 5V7H17C18.6568 7 20 8.34317 20 10V11H18V10C18 9.44774 17.5523 9 17 9H13V5C13 4.44771 12.5523 4 12 4H6V20H12V22H4V2H12Z" fill="#000000"/>
<path d="M22 20H14V18H22V20Z" fill="#000000"/>
<path d="M21.7578 14.9658L14.2578 16.9658L13.7422 15.0342L21.2422 13.0342L21.7578 14.9658Z" fill="#000000"/>
</svg>
