<svg xmlns="http://www.w3.org/2000/svg" width="20" height="20" viewBox="0 0 20 20" fill="none"><rect width="20" height="20" fill="none"/>
<path d="M10 12C10.6904 12 11.25 12.5596 11.25 13.25C11.25 13.9404 10.6904 14.5 10 14.5C9.30964 14.5 8.75 13.9404 8.75 13.25C8.75 12.5596 9.30964 12 10 12Z" fill="#000000"/>
<path d="M10.46 5.5C11.6867 5.5 12.7428 6.36638 12.9834 7.56934C13.2193 8.74996 12.6051 9.93679 11.5049 10.4258L11.292 10.5205C11.1145 10.5995 11 10.7754 11 10.9697V11H9V10.9697C9 9.98505 9.57976 9.0924 10.4795 8.69238L10.6934 8.59766C10.9384 8.48856 11.0751 8.22396 11.0225 7.96094C10.9688 7.6929 10.7333 7.5 10.46 7.5H9.8418C9.47105 7.50008 9.14185 7.73723 9.02441 8.08887L8.94824 8.31641L7.05176 7.68359L7.12695 7.45703C7.51648 6.28845 8.61002 5.50008 9.8418 5.5H10.46Z" fill="#000000"/>
<path d="M10 2C14.4183 2 18 5.58172 18 10C18 14.4183 14.4183 18 10 18C5.58172 18 2 14.4183 2 10C2 5.58172 5.58172 2 10 2ZM10 4C6.68629 4 4 6.68629 4 10C4 13.3137 6.68629 16 10 16C13.3137 16 16 13.3137 16 10C16 6.68629 13.3137 4 10 4Z" fill="#000000"/>
</svg>
