<svg xmlns="http://www.w3.org/2000/svg" width="20" height="20" viewBox="0 0 20 20" fill="none"><rect width="20" height="20" fill="none"/>
<path d="M15 10C17.7614 10 20 12.2386 20 15C20 17.7614 17.7614 20 15 20C12.2386 20 10 17.7614 10 15C10 12.2386 12.2386 10 15 10ZM12.2949 13.709C12.1078 14.1004 12 14.5372 12 15C12 16.6569 13.3431 18 15 18C15.4626 18 15.8988 17.8911 16.29 17.7041L12.2949 13.709ZM15 12C14.5372 12 14.1004 12.1078 13.709 12.2949L17.7041 16.29C17.8911 15.8988 18 15.4626 18 15C18 13.3431 16.6569 12 15 12Z" fill="#000000"/>
<path d="M15 2C16.6569 2 18 3.34315 18 5V9H16V5C16 4.44772 15.5523 4 15 4H5C4.44772 4 4 4.44772 4 5V15C4 15.5523 4.44772 16 5 16H9V18H5C3.34315 18 2 16.6569 2 15V5C2 3.34315 3.34315 2 5 2H15Z" fill="#000000"/>
<path d="M9 12H6V10H9V12Z" fill="#000000"/>
<path d="M13 8H6V6H13V8Z" fill="#000000"/>
</svg>
