<svg xmlns="http://www.w3.org/2000/svg" width="20" height="20" viewBox="0 0 20 20" fill="none"><rect width="20" height="20" fill="none"/>
<path d="M12 10L10 12L8 10L10 8L12 10Z" fill="#000000"/>
<path d="M10 2C11.8794 2 13.6063 2.64951 14.9717 3.73438L15.9141 2.79297L17.3281 4.20703L16.3711 5.16309C17.3926 6.50654 18 8.18207 18 10C18 11.8486 17.3703 13.5487 16.3174 14.9033L17.207 15.793L15.793 17.207L14.9033 16.3174C13.5487 17.3703 11.8486 18 10 18C8.18207 18 6.50654 17.3926 5.16309 16.3711L4.20801 17.3281L2.79297 15.9141L3.73438 14.9717C2.64951 13.6063 2 11.8794 2 10C2 8.15156 2.62788 6.45029 3.68066 5.0957L2.79297 4.20801L4.20801 2.79297L5.0957 3.68066C6.45029 2.62788 8.15156 2 10 2ZM10 4C8.70422 4 7.50521 4.41194 6.52441 5.11035L7.20703 5.79297L5.79297 7.20703L5.11035 6.52441C4.41194 7.50521 4 8.70422 4 10C4 11.3267 4.43109 12.5525 5.16016 13.5459L5.79297 12.9141L7.20703 14.3281L6.59473 14.9395C7.56226 15.6077 8.73513 16 10 16C11.2955 16 12.4939 15.5878 13.4746 14.8896L12.793 14.208L14.208 12.793L14.8896 13.4746C15.5878 12.4939 16 11.2955 16 10C16 8.73541 15.6075 7.56311 14.9395 6.5957L14.3291 7.20703L12.9141 5.79297L13.5459 5.16016C12.5525 4.43109 11.3267 4 10 4Z" fill="#000000"/>
</svg>
