<svg xmlns="http://www.w3.org/2000/svg" width="20" height="20" viewBox="0 0 20 20" fill="none"><rect width="20" height="20" fill="none"/>
<path d="M19 12.4999C19 12.534 18.9863 17.5051 15 18.9999C11.0137 17.5051 11 12.534 11 12.4999L15 10.9999L19 12.4999ZM12.6084 13.498C12.6706 13.8518 12.7677 14.2651 12.917 14.6943C13.2805 15.7393 13.9053 16.7541 15 17.3535C16.0947 16.7541 16.7195 15.7393 17.083 14.6943C17.2322 14.2652 17.3284 13.8518 17.3906 13.498L15 12.6015L12.6084 13.498Z" fill="#000000"/>
<path d="M6.77441 2.41986C6.94818 2.27741 7.17713 2.22052 7.39746 2.26459L18 4.38471V8.99994H16.5V5.6142L8 3.914V16.4999H9V17.9999H2V7.99994L6.5 7.24994V2.99994L6.50488 2.91596C6.52663 2.72295 6.62254 2.54442 6.77441 2.41986ZM3.5 9.27045V16.4999H6.5V8.77045L3.5 9.27045Z" fill="#000000"/>
</svg>
