<svg xmlns="http://www.w3.org/2000/svg" width="20" height="20" viewBox="0 0 20 20" fill="none"><rect width="20" height="20" fill="none"/>
<path d="M17.957 18.0498H6.9375V16.5498H17.957V18.0498Z" fill="#000000"/>
<path d="M10 13.25C8.34004 13.25 7.0393 13.6083 6.16406 14.3291C5.31575 15.0278 4.75 16.165 4.75 18H3.25C3.25 15.8352 3.93436 14.2222 5.21094 13.1709C6.46068 12.1418 8.16006 11.75 10 11.75V13.25Z" fill="#000000"/>
<path d="M16.333 11C17.2535 11 18 11.7465 18 12.667V13.333C18 14.2535 17.2535 15 16.333 15H13.667L13.4961 14.9912C12.6558 14.9058 12 14.1959 12 13.333V12.667C12 11.8041 12.6558 11.0942 13.4961 11.0088L13.667 11H16.333ZM13.667 12.5C13.5749 12.5 13.5 12.5749 13.5 12.667V13.333C13.5 13.4251 13.5749 13.5 13.667 13.5H16.333C16.4251 13.5 16.5 13.4251 16.5 13.333V12.667C16.5 12.5749 16.4251 12.5 16.333 12.5H13.667Z" fill="#000000"/>
<path d="M10 2C12.2091 2 14 3.79086 14 6C14 8.20914 12.2091 10 10 10C7.79086 10 6 8.20914 6 6C6 3.79086 7.79086 2 10 2ZM10 3.5C8.61929 3.5 7.5 4.61929 7.5 6C7.5 7.38071 8.61929 8.5 10 8.5C11.3807 8.5 12.5 7.38071 12.5 6C12.5 4.61929 11.3807 3.5 10 3.5Z" fill="#000000"/>
</svg>
