<svg xmlns="http://www.w3.org/2000/svg" width="20" height="20" viewBox="0 0 20 20" fill="none"><rect width="20" height="20" fill="none"/>
<path d="M12.749 11.5675C12.903 11.4783 13.0934 11.4774 13.248 11.5656L16.748 13.5656C16.9037 13.6545 16.9999 13.8209 17 14.0001C17 14.1795 16.9037 14.3457 16.748 14.4347L13.248 16.4347C13.0934 16.523 12.9031 16.5221 12.749 16.4327C12.595 16.3433 12.5 16.1783 12.5 16.0001V14.7501H4V13.2501H12.5V12.0001C12.5001 11.822 12.595 11.6569 12.749 11.5675Z" fill="#000000"/>
<path d="M6.75195 3.56556C6.90656 3.47739 7.09699 3.47826 7.25098 3.56751C7.40502 3.65691 7.49986 3.82205 7.5 4.00013V5.25013H16.001V6.75013H7.5V8.00013C7.5 8.1783 7.40503 8.34326 7.25098 8.43275C7.0969 8.52213 6.90665 8.523 6.75195 8.4347L3.25195 6.4347C3.09627 6.34565 3 6.17949 3 6.00013C3.00014 5.82085 3.09628 5.65451 3.25195 5.56556L6.75195 3.56556Z" fill="#000000"/>
</svg>
