<svg xmlns="http://www.w3.org/2000/svg" width="24" height="24" viewBox="0 0 24 24" fill="none"><rect width="24" height="24" fill="none"/>
<path d="M12 2.5C17.5228 2.5 22 6.97715 22 12.5C22 18.0228 17.5228 22.5 12 22.5C6.47715 22.5 2 18.0228 2 12.5C2 6.97715 6.47715 2.5 12 2.5ZM9.48047 7.40527C9.10591 6.83634 8.28438 6.80006 7.86133 7.33398L6.59961 8.92676C6.38198 9.20166 6.32072 9.5704 6.43652 9.90137C7.7729 13.7203 10.7822 16.7332 14.6025 18.0654C14.9325 18.1804 15.2983 18.1193 15.5723 17.9023L17.1758 16.6309C17.7068 16.2099 17.6742 15.3938 17.1113 15.0166L15.2061 13.7402L12.9561 15.0732C11.5581 14.1413 10.3587 12.9419 9.42676 11.5439L10.7725 9.36816L9.48047 7.40527Z" fill="#000000"/>
</svg>
