<svg xmlns="http://www.w3.org/2000/svg" width="20" height="20" viewBox="0 0 20 20" fill="none"><rect width="20" height="20" fill="none"/>
<path d="M14 9.99955C16.2091 9.99955 18 11.7905 18 13.9996C17.9999 14.7412 17.7972 15.4354 17.4453 16.0308L19.207 17.7925L17.793 19.2066L16.0312 17.4449C15.4358 17.7966 14.7417 17.9996 14 17.9996C11.791 17.9996 10.0002 16.2085 10 13.9996C10 11.7905 11.7909 9.99955 14 9.99955ZM14 11.9996C12.8955 11.9996 12 12.895 12 13.9996C12.0002 15.104 12.8955 15.9996 14 15.9996C15.1045 15.9996 15.9998 15.104 16 13.9996C16 12.895 15.1045 11.9996 14 11.9996Z" fill="#000000"/>
<path d="M6.82617 2.09428C6.98902 2.06555 7.15788 2.07762 7.31641 2.13041L12.9707 4.01518L16.6328 2.56889C16.9405 2.44756 17.289 2.48653 17.5625 2.6724C17.8358 2.85846 17.9997 3.16893 18 3.49955V7.99858H16V4.9683L14 5.75834V7.99858H12V5.79838L8 4.4644V14.7896L7.32715 15.024L3.33496 16.441C3.02889 16.5496 2.68819 16.5032 2.42285 16.316C2.15807 16.1287 2.00025 15.8239 2 15.4996V4.49955C2.00036 4.07681 2.26673 3.69886 2.66504 3.55717L6.66504 2.13627L6.82617 2.09428ZM4 5.20463V14.0826L6 13.3716V4.49369L4 5.20463Z" fill="#000000"/>
</svg>
