<svg xmlns="http://www.w3.org/2000/svg" width="24" height="24" viewBox="0 0 24 24" fill="none"><rect width="24" height="24" fill="none"/>
<path d="M17 9.00014C19.2089 9.00029 20.9997 10.7913 21 13.0001V18.0001C20.9998 20.209 19.2089 22 17 22.0001H12L11.7939 21.9953C9.68067 21.888 8.00018 20.14 8 18.0001V13.0001C8.00025 10.7912 9.79102 9.00014 12 9.00014H17ZM12 11.0001C10.8956 11.0001 10.0003 11.8958 10 13.0001V18.0001C10.0002 19.1046 10.8955 20.0001 12 20.0001H17C18.1043 20 18.9998 19.1045 19 18.0001V13.0001C18.9997 11.8959 18.1043 11.0003 17 11.0001H12Z" fill="#000000"/>
<path d="M11.2637 2.05971C11.4262 1.97289 11.624 1.98194 11.7773 2.08413L14.7773 4.08413C14.9159 4.17686 14.9999 4.33335 15 4.50014C14.9997 4.66686 14.916 4.82358 14.7773 4.91616L11.7773 6.91616C11.6242 7.01815 11.426 7.02715 11.2637 6.94057C11.1017 6.85363 11.0003 6.68399 11 6.50014V5.50014C9.94692 5.50014 8.91203 5.77738 8 6.30386C7.08806 6.8304 6.33028 7.58822 5.80371 8.50014C5.2773 9.41208 5.00005 10.4472 5 11.5001C5.00009 12.5531 5.27727 13.5882 5.80371 14.5001L4.07227 15.5001C3.37027 14.2842 3.00009 12.9042 3 11.5001C3.00005 10.0961 3.3703 8.71613 4.07227 7.50014C4.77433 6.28434 5.78418 5.27445 7 4.57241C8.21608 3.87038 9.59582 3.50014 11 3.50014V2.50014C11.0001 2.31611 11.1016 2.14679 11.2637 2.05971Z" fill="#000000"/>
</svg>
