<svg xmlns="http://www.w3.org/2000/svg" width="24" height="24" viewBox="0 0 24 24" fill="none"><rect width="24" height="24" fill="none"/>
<path d="M11.2931 14.2059C11.6836 13.8159 12.3168 13.8157 12.7072 14.2059L15.7902 17.2899C16.1804 17.6805 16.1806 18.3136 15.7902 18.704L12.7072 21.787C12.3167 22.1774 11.6836 22.1772 11.2931 21.787L8.21009 18.704C7.81957 18.3135 7.81957 17.6805 8.21009 17.2899L11.2931 14.2059ZM10.3312 17.997L12.0001 19.6659L13.6691 17.997L12.0001 16.328L10.3312 17.997Z" fill="#000000"/>
<path d="M5.2931 8.20595C5.65905 7.84002 6.23823 7.81674 6.63099 8.13661L6.70716 8.20595L9.7931 11.2919C10.1834 11.6824 10.1835 12.3155 9.7931 12.7059L6.70716 15.7919C6.31671 16.1823 5.68364 16.1822 5.2931 15.7919L2.20716 12.7059C1.81671 12.3154 1.81666 11.6824 2.20716 11.2919L5.2931 8.20595ZM4.32826 11.9989L6.00013 13.6708L7.67201 11.9989L6.00013 10.327L4.32826 11.9989Z" fill="#000000"/>
<path d="M17.2902 8.20888C17.6807 7.81839 18.3137 7.81843 18.7042 8.20888L21.7872 11.2919L21.8566 11.3681C22.1764 11.7608 22.1532 12.34 21.7872 12.7059L18.7042 15.7899L18.6281 15.8583C18.2617 16.1568 17.7328 16.1567 17.3663 15.8583L17.2902 15.7899L14.2072 12.7059L14.1378 12.6308C13.8391 12.2643 13.8392 11.7346 14.1378 11.3681L14.2072 11.2919L17.2902 8.20888ZM16.3283 11.9989L17.9972 13.6679L19.6661 11.9989L17.9972 10.33L16.3283 11.9989Z" fill="#000000"/>
<path d="M11.2931 2.20692C11.6836 1.81646 12.3167 1.81642 12.7072 2.20692L15.7931 5.29286L15.8615 5.36806C16.1818 5.76081 16.1592 6.34079 15.7931 6.70692L12.7072 9.79286L12.631 9.86025C12.2644 10.1594 11.7359 10.1593 11.3693 9.86025L11.2931 9.79286L8.20716 6.70692L8.1388 6.63075C7.83994 6.26407 7.83963 5.73457 8.1388 5.36806L8.20716 5.29286L11.2931 2.20692ZM10.3283 5.99989L12.0001 7.67177L13.672 5.99989L12.0001 4.32802L10.3283 5.99989Z" fill="#000000"/>
</svg>
