<svg xmlns="http://www.w3.org/2000/svg" width="20" height="20" viewBox="0 0 20 20" fill="none"><rect width="20" height="20" fill="none"/>
<path d="M18.707 17.293L17.293 18.707L16 17.4141V18H4V5.41406L1.29297 2.70703L2.70703 1.29297L18.707 17.293ZM6 16H14V15.4141L6 7.41406V16Z" fill="#000000"/>
<path d="M9 2C10.6569 2 12 3.34315 12 5V6H13C14.6569 6 16 7.34315 16 9V12.0859L14 10.0859V9C14 8.44772 13.5523 8 13 8H11.9141L10 6.08594V5C10 4.44772 9.55228 4 9 4H7.91406L5.91406 2H9Z" fill="#000000"/>
</svg>
