<svg xmlns="http://www.w3.org/2000/svg" width="24" height="24" viewBox="0 0 24 24" fill="none"><rect width="24" height="24" fill="none"/>
<path d="M16.043 4.00684C17.0387 4.07331 17.9416 4.63218 18.4434 5.50488L21.6006 10.999C21.862 11.4539 22 11.9695 22 12.4941V16C22 18.2091 20.2091 20 18 20H6C3.85996 20 2.11212 18.3194 2.00488 16.2061L2 16V12.4941C2 11.9695 2.13801 11.4539 2.39941 10.999L5.55664 5.50488C6.09179 4.57402 7.08348 4.00004 8.15723 4H15.8428L16.043 4.00684ZM4 16L4.01074 16.2041C4.11301 17.2128 4.96435 18 6 18H18C19.1046 18 20 17.1046 20 16V13.96H16.624L15.624 16H9.00098L8.37695 16.001L7.37695 13.96H4V16ZM8.15723 6C7.7993 6.00004 7.46839 6.19162 7.29004 6.50195L4.15332 11.96H8.62402L9.62402 14H14.376L15.377 11.96H19.8467L16.71 6.50195C16.5539 6.23044 16.281 6.04971 15.9756 6.00879L15.8428 6H8.15723Z" fill="#000000"/>
</svg>
