<svg xmlns="http://www.w3.org/2000/svg" width="24" height="24" viewBox="0 0 24 24" fill="none"><rect width="24" height="24" fill="none"/>
<path d="M18 4C20.2091 4 22 5.79086 22 8V14H20V11H4V16C4 17.1046 4.89543 18 6 18H16V16.5C16 16.3182 16.0988 16.1506 16.2578 16.0625C16.4167 15.9746 16.6106 15.98 16.7646 16.0762L20.7646 18.5762C20.9108 18.6675 21 18.8276 21 19C21 19.1724 20.9108 19.3325 20.7646 19.4238L16.7646 21.9238C16.6106 22.02 16.4167 22.0254 16.2578 21.9375C16.0988 21.8494 16 21.6818 16 21.5V20H6C3.79086 20 2 18.2091 2 16V8C2 5.79086 3.79086 4 6 4H18ZM6 6C4.89543 6 4 6.89543 4 8V9H20V8C20 6.89543 19.1046 6 18 6H6Z" fill="#000000"/>
</svg>
