<svg xmlns="http://www.w3.org/2000/svg" width="20" height="20" viewBox="0 0 20 20" fill="none"><rect width="20" height="20" fill="none"/>
<path d="M7.95703 9.95703C7.38106 10.533 7.38106 11.467 7.95703 12.043C8.53301 12.6189 9.467 12.6189 10.043 12.043L11.457 13.457C10.1 14.8141 7.89999 14.8141 6.54297 13.457C5.18595 12.1 5.18595 9.89999 6.54297 8.54297L7.95703 9.95703Z" fill="#000000"/>
<path d="M8.54297 6.54297C9.89999 5.18595 12.1 5.18595 13.457 6.54297C14.8141 7.89999 14.8141 10.1 13.457 11.457L13.207 11.707L11.793 10.293L12.043 10.043C12.6189 9.46699 12.6189 8.53301 12.043 7.95703C11.467 7.38106 10.533 7.38106 9.95703 7.95703L9.70703 8.20703L8.29297 6.79297L8.54297 6.54297Z" fill="#000000"/>
<path d="M11.457 9.95703L9.95703 11.457L8.54297 10.042L10.043 8.54297L11.457 9.95703Z" fill="#000000"/>
<path d="M10 2C14.4183 2 18 5.58172 18 10C18 14.4183 14.4183 18 10 18C5.58172 18 2 14.4183 2 10C2 5.58172 5.58172 2 10 2ZM10 4C6.68629 4 4 6.68629 4 10C4 13.3137 6.68629 16 10 16C13.3137 16 16 13.3137 16 10C16 6.68629 13.3137 4 10 4Z" fill="#000000"/>
</svg>
