<svg xmlns="http://www.w3.org/2000/svg" width="20" height="20" viewBox="0 0 20 20" fill="none"><rect width="20" height="20" fill="none"/>
<path d="M18.5303 17.4688L17.4697 18.5293L14.6016 15.6611C13.5649 17.0782 11.8904 17.999 10 17.999L9.70605 17.9912C6.69456 17.8383 4.2998 15.3483 4.2998 12.2988V7.69922C4.2998 7.00124 4.42536 6.3327 4.65527 5.71484L1.46973 2.5293L2.53027 1.46875L18.5303 17.4688ZM5.87207 6.93164C5.826 7.18061 5.7998 7.4369 5.7998 7.69922V12.2988C5.7998 14.6184 7.6804 16.499 10 16.499C11.4771 16.499 12.7728 15.7341 13.5215 14.5811L5.87207 6.93164Z" fill="#000000"/>
<path d="M10.293 2.00684C13.3047 2.15943 15.7002 4.64953 15.7002 7.69922V12.2988L15.6924 12.5928C15.6918 12.6045 15.6901 12.6162 15.6895 12.6279L14.2002 11.1387V7.69922C14.2002 5.37969 12.3195 3.49913 10 3.49902C9.03408 3.49902 8.14415 3.82494 7.43457 4.37305L6.36719 3.30566C7.35348 2.48922 8.61967 1.99902 10 1.99902L10.293 2.00684Z" fill="#000000"/>
<path d="M10 4.99902C10.4142 4.99902 10.75 5.33481 10.75 5.74902V7.68848L9.25 6.18848V5.74902C9.25 5.33481 9.58579 4.99902 10 4.99902Z" fill="#000000"/>
</svg>
