<svg xmlns="http://www.w3.org/2000/svg" width="20" height="20" viewBox="0 0 20 20" fill="none"><rect width="20" height="20" fill="none"/>
<path d="M14.0013 3C15.1055 3.00044 16.0013 3.89668 16.0013 5.00098V10.8105L17.9291 15.6299C18.0516 15.9376 18.0141 16.2872 17.8285 16.5615C17.6425 16.8358 17.3318 17.0008 17.0004 17.001H3.00037C2.66893 17.001 2.35835 16.8357 2.17225 16.5615C1.98648 16.2871 1.94894 15.9377 2.07166 15.6299L3.71619 11.5186V5.00098C3.71619 3.89641 4.61163 3.00001 5.71619 3H14.0013ZM4.47791 15.001H15.5228L14.3236 12.001H5.67713L4.47791 15.001ZM5.71619 10.001H14.0013V5.00098H5.71619V10.001Z" fill="#000000"/>
</svg>
