<svg xmlns="http://www.w3.org/2000/svg" width="24" height="24" viewBox="0 0 24 24" fill="none"><rect width="24" height="24" fill="none"/>
<path d="M6 2C8.76907 2 11.1615 3.60837 12.2969 5.94141C13.566 4.16123 15.6472 3 18 3H21V5C21 8.86599 17.866 12 14 12H13V14H19V18L18.9951 18.2061C18.8913 20.2512 17.2512 21.8913 15.2061 21.9951L15 22H9L8.79395 21.9951C6.68056 21.8879 5 20.14 5 18V14H11V11H10C6.13401 11 3 7.86599 3 4V2H6ZM7 18C7 19.1046 7.89543 20 9 20H15C16.1046 20 17 19.1046 17 18V16H7V18ZM18 5C15.2386 5 13 7.23858 13 10H14C16.7614 10 19 7.76142 19 5H18ZM5 4C5 6.76142 7.23858 9 10 9H11C11 6.23858 8.76142 4 6 4H5Z" fill="#000000"/>
</svg>
