<svg xmlns="http://www.w3.org/2000/svg" width="20" height="20" viewBox="0 0 20 20" fill="none"><rect width="20" height="20" fill="none"/>
<path d="M18.707 17.293L17.293 18.707L13.7344 15.1484C12.7157 15.6592 11.4814 16 10 16C6.95237 15.9999 4.94378 14.5685 3.72363 13.1523C3.11978 12.4514 2.70627 11.7535 2.44336 11.2305C2.31146 10.968 2.21533 10.7458 2.15137 10.5859C2.11945 10.5061 2.09505 10.4407 2.07812 10.3936C2.06984 10.3705 2.06348 10.3513 2.05859 10.3369C2.05615 10.3297 2.05337 10.3232 2.05176 10.3184C2.051 10.316 2.0498 10.3115 2.0498 10.3115L2.04883 10.3096C2.05256 10.3078 2.11147 10.2871 3 10C2.11147 9.71294 2.05256 9.69314 2.04883 9.69141L2.0498 9.68848C2.0498 9.68848 2.051 9.68396 2.05176 9.68164C2.05337 9.6768 2.05615 9.67025 2.05859 9.66309C2.06348 9.64874 2.06984 9.62954 2.07812 9.60645C2.09505 9.5593 2.11945 9.49387 2.15137 9.41406C2.21533 9.25416 2.31146 9.032 2.44336 8.76953C2.70627 8.24645 3.11978 7.5486 3.72363 6.84766C3.97351 6.55764 4.25777 6.26867 4.57617 5.99023L1.29297 2.70703L2.70703 1.29297L18.707 17.293ZM5.99219 7.40625C5.70768 7.64502 5.45744 7.898 5.23828 8.15234C4.76561 8.70102 4.43867 9.25371 4.23047 9.66797C4.16732 9.79362 4.11617 9.90608 4.0752 10C4.11617 10.0939 4.16732 10.2064 4.23047 10.332C4.43867 10.7463 4.76561 11.299 5.23828 11.8477C6.1719 12.9312 7.66385 13.9999 10 14C10.8445 14 11.5779 13.859 12.2148 13.6289L5.99219 7.40625Z" fill="#000000"/>
<path d="M10 4C13.0477 4.0001 15.0562 5.43149 16.2764 6.84766C16.8802 7.54859 17.2937 8.24645 17.5566 8.76953C17.6885 9.032 17.7847 9.25415 17.8486 9.41406C17.8806 9.49387 17.9049 9.55929 17.9219 9.60645C17.9302 9.62954 17.9365 9.64874 17.9414 9.66309C17.9438 9.67025 17.9466 9.6768 17.9482 9.68164C17.949 9.68396 17.9502 9.68848 17.9502 9.68848L17.9512 9.69043C17.9468 9.69236 17.8834 9.71458 17 10C17.8834 10.2854 17.9468 10.3067 17.9512 10.3086L17.9502 10.3115C17.9502 10.3115 17.949 10.316 17.9482 10.3184C17.9466 10.3232 17.9438 10.3298 17.9414 10.3369C17.9365 10.3513 17.9302 10.3705 17.9219 10.3936C17.9049 10.4407 17.8806 10.5061 17.8486 10.5859C17.7847 10.7458 17.6885 10.968 17.5566 11.2305C17.3486 11.6444 17.0442 12.1662 16.6279 12.7139L15.1982 11.2842C15.4443 10.9338 15.633 10.6036 15.7695 10.332C15.8326 10.2065 15.8829 10.0938 15.9238 10C15.8829 9.90615 15.8326 9.79346 15.7695 9.66797C15.5613 9.2537 15.2344 8.70102 14.7617 8.15234C13.8281 7.06881 12.3362 6.0001 10 6C9.97199 6 9.94379 6.00163 9.91602 6.00195L8.1123 4.19824C8.69159 4.0718 9.32003 4.00003 10 4Z" fill="#000000"/>
<path d="M3 10L2.04883 10.3076C1.98431 10.1078 1.98431 9.8912 2.04883 9.69141L3 10Z" fill="#000000"/>
<path d="M17.9512 9.69238C18.0157 9.89219 18.0157 10.1088 17.9512 10.3086L17 10L17.9512 9.69238Z" fill="#000000"/>
</svg>
