<svg xmlns="http://www.w3.org/2000/svg" width="24" height="24" viewBox="0 0 24 24" fill="none"><rect width="24" height="24" fill="none"/>
<path d="M21.707 20.293L20.293 21.7071L14.957 16.3711C14.3102 16.5057 13.6559 16.5948 12.999 16.6368L13.001 22H11V16.6241C9.31002 16.4934 7.63848 16.0611 6.0752 15.3282L5.5 15.0576L5.49902 11.0869L5.79199 10.794C6.40598 10.18 6.90871 9.47111 7.28613 8.70023L2.29297 3.70706L3.70703 2.293L21.707 20.293ZM8.76074 10.1748C8.40487 10.7916 7.9845 11.3722 7.49902 11.9014V13.7686C9.31497 14.508 11.274 14.7884 13.1982 14.6123L8.76074 10.1748Z" fill="#000000"/>
<path d="M9.40039 2.4639C11.069 1.79652 12.9309 1.79558 14.5996 2.46292L14.8711 2.5723L15.3945 2.78128L15.4863 3.33695L16.0215 6.54691C16.2896 8.15533 17.0539 9.64103 18.207 10.794L18.499 11.0869L18.5 14.586L16.499 12.585V11.9004C15.2152 10.5006 14.3612 8.75552 14.0479 6.87601L13.6064 4.22952C12.564 3.8757 11.434 3.87536 10.3916 4.22952L10.0703 6.15628L8.33301 4.41898L8.60645 2.78128L9.40039 2.4639Z" fill="#000000"/>
</svg>
