<svg xmlns="http://www.w3.org/2000/svg" width="24" height="24" viewBox="0 0 24 24" fill="none"><rect width="24" height="24" fill="none"/>
<path d="M20 3C21.1046 3 22 3.89543 22 5V14L21.9893 14.2041C21.8938 15.1457 21.1457 15.8938 20.2041 15.9893L20 16H15V17C15 18.1046 15.8954 19 17 19H18V21H6V19H7C8.10457 19 9 18.1046 9 17V16H4L3.7959 15.9893C2.85435 15.8938 2.1062 15.1457 2.01074 14.2041L2 14V5C2 3.96435 2.78722 3.113 3.7959 3.01074L4 3H20ZM11 17C11 17.7288 10.8044 18.4116 10.4639 19H13.5361C13.1956 18.4116 13 17.7288 13 17V16H11V17ZM4 14H20V5H4V14Z" fill="#000000"/>
</svg>
