<svg xmlns="http://www.w3.org/2000/svg" width="20" height="20" viewBox="0 0 20 20" fill="none"><rect width="20" height="20" fill="none"/>
<g clip-path="url(#clip0_147603_36083)">
<path d="M10.7929 10.7939C11.0607 10.5262 11.4571 10.4331 11.8164 10.5527L19.3164 13.0527C19.7097 13.1842 19.9816 13.5446 19.999 13.959C20.016 14.3735 19.7748 14.7564 19.3935 14.9199L16.2617 16.2617L14.9189 19.3945C14.7552 19.7757 14.3724 20.0171 13.958 20C13.5438 19.9824 13.1832 19.7105 13.0517 19.3174L10.5517 11.8174C10.432 11.4582 10.5254 11.0618 10.7929 10.7939ZM14.1162 16.1904L14.7392 14.7393L16.1894 14.1172L13.08 13.0811L14.1162 16.1904Z" fill="#000000"/>
<path d="M10.0048 2C11.0522 2.00005 12.0576 2.29528 12.7675 2.56543C13.1295 2.70318 13.4321 2.84094 13.6455 2.94531C13.7522 2.99751 13.8379 3.04199 13.8984 3.07422C13.9286 3.09029 13.9532 3.10364 13.9707 3.11328C13.9793 3.11807 13.9868 3.12199 13.9922 3.125C13.9948 3.12647 13.9972 3.12789 13.999 3.12891L14.0009 3.13086H14.0029C14.0029 3.13086 13.9934 3.1487 13.5078 4L14.0029 3.13086C14.2736 3.28541 14.4576 3.55819 14.499 3.86719C14.5403 4.176 14.435 4.48666 14.2148 4.70703L11.6914 7.22754L13.873 8.31836C14.2444 8.50405 14.5872 8.73411 14.8965 9H10.7636L9.99997 8.61816L7.02145 10.1074C6.26941 10.4835 5.70952 11.1583 5.47848 11.9668L5.05465 13.4502C4.68957 14.7278 5.64872 16 6.97751 16H9.99997V18H6.97751C4.32009 18 2.40101 15.4565 3.13083 12.9014L3.55563 11.417C3.94069 10.0696 4.87353 8.94512 6.12692 8.31836L8.3154 7.22363L5.80075 4.70703C5.58058 4.48669 5.47527 4.17592 5.51657 3.86719C5.55792 3.55861 5.74052 3.28653 6.01071 3.13184L6.01266 3.13086L6.01559 3.12988L6.04294 3.11426C6.06039 3.10459 6.08507 3.09129 6.1152 3.0752C6.17565 3.04291 6.26143 2.99862 6.36813 2.94629C6.58113 2.84183 6.88271 2.70325 7.24411 2.56543C7.95307 2.2951 8.95728 2 10.0048 2ZM10.0048 4C9.41318 4 8.79129 4.14589 8.24997 4.3291L10.0058 6.08496L11.7627 4.3291C11.2199 4.14573 10.5967 4.00004 10.0048 4Z" fill="#000000"/>
</g>
<defs>
<clipPath id="clip0_147603_36083">
<rect width="20" height="20" fill="white"/>
</clipPath>
</defs>
</svg>
