<svg xmlns="http://www.w3.org/2000/svg" width="20" height="20" viewBox="0 0 20 20" fill="none"><rect width="20" height="20" fill="none"/>
<path d="M16.5 12V15H17.5C17.684 15.0002 17.8534 15.1015 17.9404 15.2637C18.0273 15.4261 18.0181 15.624 17.916 15.7773L15.916 18.7773C15.8233 18.9164 15.6671 18.9999 15.5 19C15.3329 19 15.1767 18.9164 15.084 18.7773L13.084 15.7773C12.9817 15.6239 12.9726 15.4262 13.0596 15.2637C13.0763 15.2325 13.0968 15.2041 13.1191 15.1777C13.1223 15.174 13.1247 15.1696 13.1279 15.166L13.1396 15.1543C13.1604 15.1327 13.183 15.1132 13.207 15.0957C13.2133 15.0911 13.2201 15.0873 13.2266 15.083C13.2533 15.0655 13.2809 15.0493 13.3105 15.0371C13.3175 15.0343 13.325 15.0328 13.332 15.0303C13.3852 15.0112 13.4417 15 13.5 15H14.5V12H16.5Z" fill="#000000"/>
<path d="M10.001 13.5244L13 11.6729V13.5635C12.4661 13.7014 12.0045 14.0561 11.7373 14.5537V14.5557C11.4973 15.0041 11.4408 15.5203 11.5645 16H2V8.59863L10.001 13.5244Z" fill="#000000"/>
<path d="M18 6.23535L9.99805 11.1748L2 6.25V4H18V6.23535Z" fill="#000000"/>
<path d="M18 10.5H14.8994L18 8.58496V10.5Z" fill="#000000"/>
</svg>
