<svg xmlns="http://www.w3.org/2000/svg" width="24" height="24" viewBox="0 0 24 24" fill="none"><rect width="24" height="24" fill="none"/>
<path d="M12 2C17.5228 2 22 6.47715 22 12C22 17.5228 17.5228 22 12 22C7 22 10.75 16.375 8.875 16.375C7 16.375 2 18.875 2 12C2 6.47715 6.47715 2 12 2ZM16 14C15.1716 14 14.5 14.6716 14.5 15.5C14.5 16.3284 15.1716 17 16 17C16.8284 17 17.5 16.3284 17.5 15.5C17.5 14.6716 16.8284 14 16 14ZM17.5 9C16.6716 9 16 9.67157 16 10.5C16 11.3284 16.6716 12 17.5 12C18.3284 12 19 11.3284 19 10.5C19 9.67157 18.3284 9 17.5 9ZM8.5 7C7.67157 7 7 7.67157 7 8.5C7 9.32843 7.67157 10 8.5 10C9.32843 10 10 9.32843 10 8.5C10 7.67157 9.32843 7 8.5 7ZM14 5C13.1716 5 12.5 5.67157 12.5 6.5C12.5 7.32843 13.1716 8 14 8C14.8284 8 15.5 7.32843 15.5 6.5C15.5 5.67157 14.8284 5 14 5Z" fill="#000000"/>
</svg>
