<svg xmlns="http://www.w3.org/2000/svg" width="24" height="24" viewBox="0 0 24 24" fill="none"><rect width="24" height="24" fill="none"/>
<path d="M18.0005 7.00049C18.5525 7.00075 19.0005 7.44837 19.0005 8.00049V10.0005C19.0002 10.5524 18.5524 11.0002 18.0005 11.0005H13.0005C12.4484 11.0005 12.0008 10.5525 12.0005 10.0005V8.00049C12.0005 7.4482 12.4482 7.00049 13.0005 7.00049H18.0005Z" fill="#000000"/>
<path d="M18.9995 3.99951C20.6562 3.99951 21.9992 5.34288 21.9995 6.99951V16.9995C21.9995 18.6564 20.6564 20.0005 18.9995 20.0005H4.99951C3.34266 20.0005 1.99951 18.6564 1.99951 16.9995V6.99951C1.99978 5.34288 3.34282 3.99951 4.99951 3.99951H18.9995ZM4.99951 5.99951C4.44739 5.99951 3.99978 6.44745 3.99951 6.99951V16.9995C3.99951 17.5518 4.44723 17.9995 4.99951 17.9995H18.9995C19.5518 17.9995 19.9995 17.5518 19.9995 16.9995V6.99951C19.9992 6.44745 19.5516 5.99951 18.9995 5.99951H4.99951Z" fill="#000000"/>
</svg>
