<svg xmlns="http://www.w3.org/2000/svg" width="20" height="20" viewBox="0 0 20 20" fill="none"><rect width="20" height="20" fill="none"/>
<path d="M14 7.25C14.4142 7.25 14.75 7.58579 14.75 8V8.25H15.25C17.0449 8.25 18.5 9.70507 18.5 11.5C18.5 13.2949 17.0449 14.75 15.25 14.75H14.0508C13.0756 16.5373 11.1795 17.75 9 17.75H8C4.82436 17.75 2.25 15.1756 2.25 12V8C2.25 7.58579 2.58579 7.25 3 7.25H14ZM3.75 12C3.75 14.3472 5.65279 16.25 8 16.25H9C10.8426 16.25 12.4107 15.0772 13 13.4375V13.25H13.0625C13.184 12.8547 13.25 12.4351 13.25 12V8.75H3.75V12ZM14.75 12C14.75 12.4294 14.7016 12.8475 14.6123 13.25H15.25C16.2165 13.25 17 12.4665 17 11.5C17 10.5335 16.2165 9.75 15.25 9.75H14.75V12Z" fill="#000000"/>
<path d="M8.4375 2.60938C8.22012 2.76551 8.04354 2.97236 7.92383 3.21191C7.8042 3.45142 7.74439 3.71664 7.75 3.98438C7.75022 3.9948 7.75022 4.0052 7.75 4.01562C7.74439 4.28336 7.8042 4.54858 7.92383 4.78809C8.04354 5.02764 8.22012 5.23449 8.4375 5.39062L7.5625 6.60938C7.14727 6.31118 6.81057 5.9163 6.58203 5.45898C6.35351 5.00169 6.24029 4.49549 6.25098 3.98438C6.24547 3.4839 6.35817 2.98899 6.58203 2.54102C6.81057 2.0837 7.14727 1.68882 7.5625 1.39062L8.4375 2.60938Z" fill="#000000"/>
<path d="M11.4375 2.60938C11.2201 2.76551 11.0435 2.97236 10.9238 3.21191C10.8042 3.45142 10.7444 3.71664 10.75 3.98438C10.7502 3.9948 10.7502 4.0052 10.75 4.01562C10.7444 4.28336 10.8042 4.54858 10.9238 4.78809C11.0435 5.02764 11.2201 5.23449 11.4375 5.39062L10.5625 6.60938C10.1473 6.31118 9.81057 5.9163 9.58203 5.45898C9.35351 5.00169 9.24029 4.49549 9.25098 3.98438C9.24547 3.4839 9.35817 2.98899 9.58203 2.54102C9.81057 2.0837 10.1473 1.68882 10.5625 1.39062L11.4375 2.60938Z" fill="#000000"/>
</svg>
