<svg xmlns="http://www.w3.org/2000/svg" width="20" height="20" viewBox="0 0 20 20" fill="none"><rect width="20" height="20" fill="none"/>
<path d="M9 17.5H2.5V11H9V17.5ZM4 16H7.5V12.5H4V16Z" fill="#000000"/>
<path d="M13.5 17.5H11V15H13.5V17.5Z" fill="#000000"/>
<path d="M17.5 17.5H15V15H17.5V17.5Z" fill="#000000"/>
<path d="M13.5 13.5H11V11H13.5V13.5Z" fill="#000000"/>
<path d="M17.5 13.5H15V11H17.5V13.5Z" fill="#000000"/>
<path d="M9 9H2.5V2.5H9V9ZM4 7.5H7.5V4H4V7.5Z" fill="#000000"/>
<path d="M17.5 9H11V2.5H17.5V9ZM12.5 7.5H16V4H12.5V7.5Z" fill="#000000"/>
</svg>
