<svg xmlns="http://www.w3.org/2000/svg" width="20" height="20" viewBox="0 0 20 20" fill="none"><rect width="20" height="20" fill="none"/>
<path d="M14.25 10C14.2496 12.3469 12.347 14.2499 10 14.25H9.5V14.75C9.49984 14.9316 9.40103 15.0995 9.24219 15.1875C9.08342 15.2753 8.88929 15.2699 8.73535 15.1738L6.73535 13.9238C6.58929 13.8325 6.50015 13.6722 6.5 13.5C6.5 13.3493 6.5679 13.2075 6.68262 13.1133L6.73535 13.0762L8.73535 11.8262C8.88938 11.73 9.08331 11.7246 9.24219 11.8125C9.40105 11.9006 9.5 12.0683 9.5 12.25V12.75H10C11.5186 12.7499 12.7496 11.5185 12.75 10H14.25Z" fill="#000000"/>
<path d="M10.7578 4.8125C10.9167 4.72455 11.1106 4.72999 11.2646 4.82617L13.2646 6.0752C13.4106 6.16649 13.4998 6.32685 13.5 6.49902C13.4999 6.64963 13.432 6.79155 13.3174 6.88574L13.2646 6.92285L11.2646 8.17383C11.1108 8.26977 10.9165 8.27522 10.7578 8.1875C10.599 8.0995 10.5002 7.9315 10.5 7.75V7.25H10C8.48143 7.25009 7.25 8.48143 7.25 10H5.75C5.75 7.65319 7.65227 5.75038 9.99902 5.75H10.5V5.25C10.5 5.06835 10.599 4.90066 10.7578 4.8125Z" fill="#000000"/>
<path d="M10 2C14.4182 2 17.9999 5.58183 18 10C18 14.4183 14.4183 18 10 18C5.58172 18 2 14.4183 2 10C2.00013 5.58183 5.5818 2 10 2ZM10 3.5C6.41023 3.5 3.50013 6.41026 3.5 10C3.5 13.5899 6.41015 16.5 10 16.5C13.5899 16.5 16.5 13.5899 16.5 10C16.4999 6.41026 13.5898 3.5 10 3.5Z" fill="#000000"/>
</svg>
