<svg xmlns="http://www.w3.org/2000/svg" width="20" height="20" viewBox="0 0 20 20" fill="none"><rect width="20" height="20" fill="none"/>
<path d="M7 13C7.55228 13 8 13.4477 8 14C8 14.5523 7.55228 15 7 15C6.44772 15 6 14.5523 6 14C6 13.4477 6.44772 13 7 13Z" fill="#000000"/>
<path d="M10 13C10.5523 13 11 13.4477 11 14C11 14.5523 10.5523 15 10 15C9.44772 15 9 14.5523 9 14C9 13.4477 9.44772 13 10 13Z" fill="#000000"/>
<path d="M13 10C13.5523 10 14 10.4477 14 11V14C14 14.5523 13.5523 15 13 15C12.4477 15 12 14.5523 12 14V11C12 10.4477 12.4477 10 13 10Z" fill="#000000"/>
<path d="M7 10C7.55228 10 8 10.4477 8 11C8 11.5523 7.55228 12 7 12C6.44772 12 6 11.5523 6 11C6 10.4477 6.44772 10 7 10Z" fill="#000000"/>
<path d="M10 10C10.5523 10 11 10.4477 11 11C11 11.5523 10.5523 12 10 12C9.44772 12 9 11.5523 9 11C9 10.4477 9.44772 10 10 10Z" fill="#000000"/>
<path d="M14 7H6V5H14V7Z" fill="#000000"/>
<path d="M14.1543 2.00391C15.7394 2.08421 17 3.39489 17 5V15C17 16.6569 15.6569 18 14 18H6C4.34315 18 3 16.6569 3 15V5C3 3.34315 4.34315 2 6 2H14L14.1543 2.00391ZM6 4C5.44772 4 5 4.44772 5 5V15C5 15.5523 5.44772 16 6 16H14C14.5523 16 15 15.5523 15 15V5C15 4.48232 14.6067 4.05621 14.1025 4.00488L14 4H6Z" fill="#000000"/>
</svg>
