<svg xmlns="http://www.w3.org/2000/svg" width="20" height="20" viewBox="0 0 20 20" fill="none"><rect width="20" height="20" fill="none"/>
<path d="M4 16H18V18H2V2H4V16Z" fill="#000000"/>
<path d="M16.5 3C17.3284 3 18 3.67157 18 4.5C18 5.19168 17.5313 5.77191 16.8945 5.94531L14.8936 9.94824C14.9613 10.1192 15 10.305 15 10.5C15 11.3284 14.3284 12 13.5 12C12.8082 12 12.227 11.5314 12.0537 10.8945L10.0508 9.89355C9.9796 9.92171 9.90611 9.94482 9.83008 9.96191L8.41602 12.5088C8.46945 12.6628 8.5 12.8278 8.5 13C8.5 13.8284 7.82843 14.5 7 14.5C6.17157 14.5 5.5 13.8284 5.5 13C5.5 12.2857 5.99934 11.6882 6.66797 11.5371L8.08301 8.99023C8.02984 8.83652 8 8.6718 8 8.5C8 7.67157 8.67157 7 9.5 7C10.1913 7 10.7716 7.46822 10.9453 8.10449L12.9482 9.10547C12.999 9.08536 13.0512 9.06826 13.1045 9.05371L15.1055 5.05078C15.038 4.88016 15 4.6946 15 4.5C15 3.67157 15.6716 3 16.5 3Z" fill="#000000"/>
</svg>
