<svg xmlns="http://www.w3.org/2000/svg" width="20" height="20" viewBox="0 0 20 20" fill="none"><rect width="20" height="20" fill="none"/>
<path d="M10.0996 2.25C12.281 2.25011 14.0498 4.01874 14.0498 6.2002V8.5498H15.4512V15.0498C15.4512 16.7065 14.1078 18.0496 12.4512 18.0498H7.55078C5.89393 18.0498 4.55078 16.7067 4.55078 15.0498V8.5498H5.94922V6.2002C5.94928 4.01872 7.71794 2.25 9.89941 2.25H10.0996ZM6.05078 15.0498C6.05078 15.8782 6.72235 16.5498 7.55078 16.5498H12.4512C13.2794 16.5496 13.9512 15.8781 13.9512 15.0498V10.0498H6.05078V15.0498ZM9.89941 3.75C8.54635 3.75 7.44926 4.84713 7.44922 6.2002V8.5498H12.5498V6.2002C12.5498 4.84716 11.4526 3.75011 10.0996 3.75H9.89941Z" fill="#000000"/>
</svg>
