<svg xmlns="http://www.w3.org/2000/svg" width="20" height="20" viewBox="0 0 20 20" fill="none"><rect width="20" height="20" fill="none"/>
<path d="M14.0068 8.99902C14.5591 8.99904 15.0068 9.44675 15.0068 9.99902C15.0068 10.5513 14.5591 10.999 14.0068 10.999C13.4546 10.999 13.0068 10.5513 13.0068 9.99902C13.0068 9.44674 13.4546 8.99902 14.0068 8.99902Z" fill="#000000"/>
<path d="M15 3.25C16.6568 3.25002 18 4.59316 18 6.25V13.75C18 15.4068 16.6568 16.75 15 16.75H5C3.34315 16.75 2.00001 15.4068 2 13.75V6.25C2 4.59315 3.34315 3.25 5 3.25H15ZM5 4.75C4.17157 4.75 3.5 5.42157 3.5 6.25V13.75C3.50001 14.5784 4.17158 15.25 5 15.25H15C15.8284 15.25 16.5 14.5784 16.5 13.75V6.25C16.5 5.42158 15.8284 4.75002 15 4.75H5Z" fill="#000000"/>
</svg>
