<svg xmlns="http://www.w3.org/2000/svg" width="20" height="20" viewBox="0 0 20 20" fill="none"><rect width="20" height="20" fill="none"/>
<path d="M11 13H7V11H11V13Z" fill="#000000"/>
<path d="M13 9H7V7H13V9Z" fill="#000000"/>
<path d="M8.5127 2.33203C8.83593 2.69246 9.28151 2.93367 9.78223 2.98828L10 3C10.589 2.99994 11.118 2.74389 11.4873 2.33203L11.7852 2H17V18H11.7852L11.4873 17.668C11.1179 17.2561 10.5887 17.0001 10 17L9.78223 17.0117C9.28166 17.0664 8.83605 17.3076 8.5127 17.668L8.21484 18H3V2H8.21484L8.5127 2.33203ZM5 16H7.36133C8.06333 15.3814 8.98559 15.0001 10 15L10.2207 15.0059C11.1483 15.0567 11.9888 15.4262 12.6396 16H15V4H12.6396C11.9375 4.61922 11.0146 4.99993 10 5L9.7793 4.99414C8.85198 4.94335 8.01218 4.57366 7.36133 4H5V16Z" fill="#000000"/>
</svg>
