<svg xmlns="http://www.w3.org/2000/svg" width="20" height="20" viewBox="0 0 20 20" fill="none"><rect width="20" height="20" fill="none"/>
<path d="M16 18H4V16.5H16V18Z" fill="#000000"/>
<path d="M10.4932 2.00488C12.4746 2.10532 14.0498 3.74365 14.0498 5.75V6.66113L13.9844 6.80762L12.6602 9.75H14.2998C16.3708 9.75 18.0497 11.429 18.0498 13.5V15H1.9502V13.5C1.9503 11.429 3.6292 9.75001 5.7002 9.75H7.34082L6.0166 6.80762L5.9502 6.66113V5.75C5.9502 3.67894 7.62913 2.00001 9.7002 2H10.2998L10.4932 2.00488ZM9.7002 3.5C8.45756 3.50001 7.4502 4.50736 7.4502 5.75V6.33984L9.18359 10.1924C9.28792 10.4244 9.26794 10.6936 9.12988 10.9072C8.99169 11.1209 8.75444 11.25 8.5 11.25H5.7002C4.45763 11.25 3.4503 12.2575 3.4502 13.5H16.5498C16.5497 12.2574 15.5424 11.25 14.2998 11.25H11.5C11.2455 11.25 11.0083 11.1209 10.8701 10.9072C10.7321 10.6936 10.7121 10.4244 10.8164 10.1924L12.5498 6.33984V5.75C12.5498 4.58504 11.6648 3.62696 10.5303 3.51172L10.2998 3.5H9.7002Z" fill="#000000"/>
</svg>
