<svg xmlns="http://www.w3.org/2000/svg" width="20" height="20" viewBox="0 0 20 20" fill="none"><rect width="20" height="20" fill="none"/>
<path d="M9.25 13.5H7.75V8H9.25V13.5Z" fill="#000000"/>
<path d="M12.25 13.5H10.75V8H12.25V13.5Z" fill="#000000"/>
<path d="M10.75 3.25879C12.1461 3.28882 13.3936 3.39661 14.333 3.50488C14.8855 3.56858 15.3344 3.63251 15.6455 3.68066C15.8008 3.7047 15.9235 3.72496 16.0068 3.73926C16.0479 3.74631 16.0806 3.75191 16.1025 3.75586C16.113 3.75775 16.1221 3.75967 16.1279 3.76074C16.1307 3.76118 16.1357 3.76172 16.1357 3.76172L16.1377 3.7627L16.2666 3.79883C16.5534 3.90764 16.751 4.18424 16.751 4.5V6.29297L16.0791 7.02051C15.8964 7.21843 15.783 7.47043 15.7549 7.73828L14.9346 15.5859C14.7882 16.9861 13.6069 18.0493 12.1992 18.0498H7.80273C6.39471 18.0498 5.21385 16.9863 5.06738 15.5859L4.24707 7.73828C4.21902 7.47059 4.10529 7.21839 3.92285 7.02051L3.25098 6.29297V4.5L3.2627 4.36719C3.31691 4.06522 3.55281 3.8207 3.86328 3.7627L3.86621 3.76172C3.86621 3.76172 3.87145 3.76121 3.87402 3.76074C3.88001 3.75962 3.88905 3.75772 3.89941 3.75586C3.92153 3.7519 3.95417 3.74629 3.99512 3.73926C4.07858 3.72494 4.20131 3.70468 4.35645 3.68066C4.66767 3.6325 5.11656 3.56855 5.66895 3.50488C6.60811 3.39666 7.85465 3.28883 9.25 3.25879V2H10.75V3.25879ZM10.001 4.75C8.37563 4.75 6.90499 4.8725 5.84082 4.99512C5.40192 5.0457 5.03191 5.09695 4.75098 5.13867V5.70605L5.02441 6.00293C5.42632 6.43852 5.67762 6.99353 5.73926 7.58301L6.55957 15.4297C6.62617 16.0662 7.16275 16.5498 7.80273 16.5498H12.1992C12.8388 16.5493 13.3759 16.0659 13.4424 15.4297L14.2627 7.58301C14.3244 6.99336 14.5754 6.43857 14.9775 6.00293L15.251 5.70605V5.13867C14.9701 5.09695 14.6001 5.04572 14.1611 4.99512C13.0971 4.87249 11.6264 4.75004 10.001 4.75Z" fill="#000000"/>
</svg>
