<svg xmlns="http://www.w3.org/2000/svg" width="20" height="20" viewBox="0 0 20 20" fill="none"><rect width="20" height="20" fill="none"/>
<path d="M12.2441 3.22065C13.4345 1.66659 15.7218 1.51549 17.1064 2.89936C18.4504 4.24315 18.3534 6.45026 16.8975 7.67182L10.917 12.6874C10.9711 12.9497 11 13.2216 11 13.4999C10.9998 15.7089 9.20902 17.4999 7 17.4999C4.50009 17.4999 2.99995 15.9998 1.5 13.4999C4.99993 13.9999 3.00002 9.49995 7 9.49995C7.14182 9.49995 7.28192 9.50703 7.41992 9.52143L12.2441 3.22065ZM7 11.4999C6.68648 11.4999 6.51859 11.5438 6.44336 11.5712C6.37807 11.5951 6.35221 11.6172 6.33301 11.6357C6.24753 11.7182 6.14752 11.8775 5.91211 12.4492C5.75079 12.841 5.40524 13.7867 4.69531 14.4892C4.83555 14.631 4.97259 14.7569 5.11035 14.8652C5.63814 15.2798 6.20479 15.4999 7 15.4999C8.10445 15.4999 8.99981 14.6044 9 13.4999C9 12.3954 8.10457 11.4999 7 11.4999ZM9.36328 10.2724C9.59431 10.4419 9.80556 10.6364 9.99512 10.8505L12.9102 8.40522C12.7325 7.83426 12.3052 7.37282 11.7559 7.14838L9.36328 10.2724ZM15.6924 4.3144C15.1627 3.78524 14.2874 3.84302 13.832 4.43744L12.9932 5.53217C13.6261 5.89663 14.1493 6.42942 14.5029 7.06928L15.6123 6.13959C16.1691 5.67237 16.2061 4.82849 15.6924 4.3144Z" fill="#000000"/>
</svg>
