<svg xmlns="http://www.w3.org/2000/svg" width="20" height="20" viewBox="0 0 20 20" fill="none"><rect width="20" height="20" fill="none"/>
<path d="M15.75 14.25H19V15.75H15.75V19H14.25V15.75H11V14.25H14.25V11H15.75V14.25Z" fill="#000000"/>
<path d="M7.75 3H12.25V1H13.75V3H15C16.6569 3 18 4.34315 18 6V10H16.5V8.4502H3.5V15C3.5 15.8284 4.17157 16.5 5 16.5H10V18H5C3.34315 18 2 16.6569 2 15V6C2 4.34315 3.34315 3 5 3H6.25V1H7.75V3ZM5 4.5C4.17157 4.5 3.5 5.17157 3.5 6V6.9502H16.5V6C16.5 5.17157 15.8284 4.5 15 4.5H5Z" fill="#000000"/>
</svg>
