<svg xmlns="http://www.w3.org/2000/svg" width="24" height="24" viewBox="0 0 24 24" fill="none"><rect width="24" height="24" fill="none"/>
<path d="M12.9844 5.52637C13.1271 5.38069 13.3707 5.517 13.3213 5.71484L12.5 9H14C14.4043 9.00012 14.7691 9.24368 14.9238 9.61719C15.0785 9.99077 14.9929 10.4211 14.707 10.707L10.6133 14.4404C10.4581 14.5814 10.2186 14.4191 10.292 14.2227L11.5 11H10C9.60769 11 9.25202 10.7703 9.08984 10.4131C8.92777 10.0559 8.98894 9.63707 9.24707 9.3418L12.9844 5.52637Z" fill="#000000"/>
<path d="M12 2C16.1524 2.0001 19.4998 5.42136 19.5 9.55273C19.5 11.024 19.0102 12.4727 18.1035 13.6387L16.127 16.1797C16.0165 16.3216 15.9462 16.4915 15.9238 16.6699L15.5967 19.2891C15.4927 20.1208 15.0117 20.8587 14.293 21.29C12.8816 22.1369 11.1184 22.1369 9.70703 21.29C8.98819 20.8587 8.50731 20.1209 8.40332 19.2891L8.07617 16.6699C8.0538 16.4915 7.98346 16.3217 7.87305 16.1797L5.89648 13.6387C4.9897 12.4727 4.50001 11.0241 4.5 9.55273C4.50021 5.4213 7.84752 2 12 2ZM13.7412 18.0078C12.5954 18.2736 11.4036 18.2736 10.2578 18.0078L10.3877 19.041C10.4155 19.2631 10.5444 19.46 10.7363 19.5752C11.5143 20.0419 12.4857 20.0419 13.2637 19.5752C13.4554 19.46 13.5846 19.263 13.6123 19.041L13.7412 18.0078ZM12 4C8.97303 4 6.50021 6.50481 6.5 9.55273C6.50001 10.5851 6.84535 11.6007 7.47559 12.4111L9.45215 14.9521C9.65424 15.212 9.81008 15.5031 9.91699 15.8115C11.256 16.3368 12.743 16.3367 14.082 15.8115C14.1889 15.503 14.3457 15.2121 14.5479 14.9521L16.5244 12.4111C17.1546 11.6008 17.5 10.585 17.5 9.55273C17.4998 6.50488 15.0269 4.0001 12 4Z" fill="#000000"/>
</svg>
