<svg xmlns="http://www.w3.org/2000/svg" width="20" height="20" viewBox="0 0 20 20" fill="none"><rect width="20" height="20" fill="none"/>
<path d="M8.43932 2.15344C9.99096 1.84485 11.5998 2.00415 13.0614 2.60949C14.523 3.21494 15.7722 4.24043 16.6512 5.55578C17.5302 6.87129 17.9998 8.41797 17.9999 10.0001V10.8751C17.9999 12.4629 16.7127 13.7501 15.1249 13.7501C14.1509 13.75 13.2913 13.2646 12.7714 12.5236C12.732 12.5667 12.6927 12.61 12.6512 12.6515C11.9918 13.3109 11.1124 13.6993 10.1854 13.7452L9.99987 13.7501C9.00542 13.75 8.05169 13.3547 7.3485 12.6515C6.68929 11.9921 6.30064 11.1125 6.25475 10.1857L6.24987 10.0001C6.24995 9.00567 6.64532 8.05194 7.3485 7.34875C8.05169 6.64556 9.00542 6.2502 9.99987 6.25012L10.1854 6.255C11.1123 6.30088 11.9919 6.68954 12.6512 7.34875C13.3544 8.05194 13.7498 9.00567 13.7499 10.0001V10.8751C13.7499 11.6344 14.3656 12.2499 15.1249 12.2501C15.8843 12.2501 16.4999 11.6345 16.4999 10.8751V10.0001C16.4998 8.71465 16.1183 7.45762 15.4042 6.38879C14.69 5.32014 13.6747 4.48712 12.4872 3.99523C11.2996 3.50339 9.99206 3.37434 8.73132 3.62512C7.47072 3.87601 6.31206 4.49457 5.40319 5.40344C4.49432 6.31231 3.87577 7.47096 3.62487 8.73156C3.37409 9.9923 3.50315 11.2998 3.99499 12.4874C4.48687 13.6749 5.3199 14.6902 6.38854 15.4044C7.45738 16.1186 8.7144 16.5001 9.99987 16.5001V18.0001C8.41773 18.0001 6.87104 17.5305 5.55554 16.6515C4.24019 15.7725 3.2147 14.5232 2.60925 13.0616C2.00391 11.6 1.8446 9.99121 2.15319 8.43957C2.4619 6.88781 3.22388 5.46165 4.34264 4.34289C5.46141 3.22413 6.88757 2.46215 8.43932 2.15344ZM9.99987 7.75012C9.40325 7.7502 8.83093 7.98741 8.40905 8.4093C7.98717 8.83118 7.74995 9.40349 7.74987 10.0001L7.76061 10.2228C7.81179 10.7376 8.04008 11.2218 8.40905 11.5909C8.83093 12.0128 9.40325 12.25 9.99987 12.2501L10.2225 12.2394C10.7375 12.1882 11.2215 11.9601 11.5907 11.5909C12.0126 11.169 12.2499 10.5969 12.2499 10.0001L12.2391 9.77746C12.1879 9.2626 11.9598 8.77837 11.5907 8.4093C11.2216 8.04033 10.7374 7.81203 10.2225 7.76086L9.99987 7.75012Z" fill="#000000"/>
</svg>
