<svg xmlns="http://www.w3.org/2000/svg" width="24" height="24" viewBox="0 0 24 24" fill="none"><rect width="24" height="24" fill="none"/>
<path d="M16.5996 18.7998L12 22.25L7.40039 18.7998L8.59961 17.2002L12 19.75L15.4004 17.2002L16.5996 18.7998Z" fill="#000000"/>
<path d="M18 3C19.6563 3 20.9998 4.34189 21 5.99902V13.001C21 14.6587 19.656 16 18 16H6C4.34315 16 3 14.6569 3 13V6C3 4.34315 4.34315 3 6 3H18ZM5 13C5 13.5523 5.44772 14 6 14H18C18.5531 14 19 13.5524 19 13.001V9H5V13ZM6 5C5.44772 5 5 5.44772 5 6V7H19V5.99902C18.9998 5.44731 18.5526 5 18 5H6Z" fill="#000000"/>
</svg>
