<svg xmlns="http://www.w3.org/2000/svg" width="20" height="20" viewBox="0 0 20 20" fill="none"><rect width="20" height="20" fill="none"/>
<path d="M19 19H11V17.5H19V19Z" fill="#000000"/>
<path d="M8.69922 1.9502C10.2179 1.9503 11.4492 3.18148 11.4492 4.7002V5.9502H13.2988C14.7502 5.9502 15.9354 7.0748 16.0381 8.5H14.5312C14.4353 7.90494 13.921 7.4502 13.2988 7.4502H9.94922V4.7002C9.94922 4.00991 9.38948 3.4503 8.69922 3.4502H5.44922V16.5498H9V18.0498H3.94922V1.9502H8.69922Z" fill="#000000"/>
<path d="M19 16.5H11V15H19V16.5Z" fill="#000000"/>
<path d="M18.7959 11.1895L11.7959 14.1895L11.2051 12.8105L18.2051 9.81055L18.7959 11.1895Z" fill="#000000"/>
</svg>
