<svg xmlns="http://www.w3.org/2000/svg" width="24" height="24" viewBox="0 0 24 24" fill="none"><rect width="24" height="24" fill="none"/>
<path d="M12.5003 6.49958C15.2614 6.49972 17.5 8.73845 17.5003 11.4996V11.5611L9.03056 20.0308L8.84502 20.2174L8.5833 20.2457L4.20732 20.732C3.6662 20.7919 3.20891 20.3347 3.26885 19.7935L3.75517 15.4176L3.78349 15.1558L3.97002 14.9703L12.4407 6.49958H12.5003Z" fill="#000000"/>
<path d="M14.97 3.97029C16.3675 2.57314 18.6332 2.57297 20.0306 3.97029C21.4277 5.36766 21.4276 7.63342 20.0306 9.03083L19.2845 9.77595C18.6561 7.29565 16.7051 5.34296 14.2249 4.71443L14.97 3.97029Z" fill="#000000"/>
</svg>
