<svg xmlns="http://www.w3.org/2000/svg" width="20" height="20" viewBox="0 0 20 20" fill="none"><rect width="20" height="20" fill="none"/>
<path d="M12.8251 16C12.4129 17.1644 11.3055 17.9998 9.99989 18C8.69407 18 7.58586 17.1646 7.17371 16H12.8251Z" fill="#000000"/>
<path d="M10.9999 3.09961C13.2816 3.56321 14.9997 5.58149 14.9999 8V9.17188C14.9999 9.25306 15.0167 9.33358 15.0487 9.4082L16.12 11.9092C16.5437 12.8987 15.8174 13.9995 14.7411 14H5.2577C4.18108 13.9997 3.45563 12.8988 3.87977 11.9092L4.95106 9.4082C4.98297 9.33364 4.99986 9.25298 4.99988 9.17188V8C4.99988 5.58108 6.71765 3.56289 8.99989 3.09961V1H10.9999V3.09961Z" fill="#000000"/>
</svg>
