<svg xmlns="http://www.w3.org/2000/svg" width="20" height="20" viewBox="0 0 20 20" fill="none"><rect width="20" height="20" fill="none"/>
<path d="M15.5957 10.5C16.0473 10.5 16.3527 10.6388 16.5713 10.875C16.7843 11.1052 16.9063 11.4195 17.0146 11.749L19.3008 18.7002H17.4297L16.9248 17.0791H14.0674L13.5234 18.7002H11.75L14.1504 11.748C14.2647 11.4169 14.3938 11.1026 14.6123 10.873C14.836 10.6381 15.1443 10.5 15.5957 10.5ZM14.5879 15.5098H16.4287L15.5342 12.6426L14.5879 15.5098Z" fill="#000000"/>
<path d="M10 2C11.8794 2 13.6063 2.64951 14.9717 3.73438L15.9141 2.79297L17.3281 4.20703L16.3711 5.16309C17.1044 6.12753 17.6224 7.26346 17.8574 8.5H15.8096C15.6313 7.80935 15.3338 7.16673 14.9395 6.5957L14.3291 7.20703L12.9141 5.79297L13.5459 5.16016C12.5525 4.43109 11.3267 4 10 4C8.70422 4 7.50521 4.41194 6.52441 5.11035L7.20703 5.79297L5.79297 7.20703L5.11035 6.52441C4.41194 7.50521 4 8.70422 4 10C4 11.3267 4.43109 12.5525 5.16016 13.5459L5.79297 12.9141L7.20703 14.3281L6.59473 14.9395C7.56226 15.6077 8.73513 16 10 16C10.1684 16 10.3351 15.9922 10.5 15.9785V17.9814C10.3346 17.9917 10.168 18 10 18C8.18207 18 6.50654 17.3926 5.16309 16.3711L4.20801 17.3281L2.79297 15.9141L3.73438 14.9717C2.64951 13.6063 2 11.8794 2 10C2 8.15156 2.62788 6.45029 3.68066 5.0957L2.79297 4.20801L4.20801 2.79297L5.0957 3.68066C6.45029 2.62788 8.15156 2 10 2Z" fill="#000000"/>
<path d="M12 10L10 12L8 10L10 8L12 10Z" fill="#000000"/>
</svg>
