<svg xmlns="http://www.w3.org/2000/svg" width="24" height="24" viewBox="0 0 24 24" fill="none"><rect width="24" height="24" fill="none"/>
<path d="M12.248 7.00586C13.4838 7.06719 14.6561 7.58579 15.5352 8.46484C16.4728 9.40253 17 10.6739 17 12V15H19V21H5V15H7V12C7 10.6739 7.52716 9.40253 8.46484 8.46484C9.40253 7.52716 10.6739 7 12 7L12.248 7.00586ZM7 19H17V17H7V19ZM12 9C11.2044 9 10.4415 9.3163 9.87891 9.87891C9.3163 10.4415 9 11.2044 9 12V15H15V12C15 11.2044 14.6837 10.4415 14.1211 9.87891C13.6289 9.38671 12.9835 9.08291 12.2969 9.01465L12 9Z" fill="#000000"/>
<path d="M5 13H2V11H5V13Z" fill="#000000"/>
<path d="M22 13H19V11H22V13Z" fill="#000000"/>
<path d="M7.71387 6.2998L6.2998 7.71387L4.18555 5.59961L5.59961 4.18555L7.71387 6.2998Z" fill="#000000"/>
<path d="M19.8145 5.59961L17.7002 7.71387L16.2861 6.2998L18.4004 4.18555L19.8145 5.59961Z" fill="#000000"/>
<path d="M13 5H11V2H13V5Z" fill="#000000"/>
</svg>
