<svg xmlns="http://www.w3.org/2000/svg" width="24" height="24" viewBox="0 0 24 24" fill="none"><rect width="24" height="24" fill="none"/>
<path d="M8 3V6.12598C9.72523 6.57002 11 8.13616 11 10L10.9951 10.2061C10.9052 11.9783 9.66119 13.4453 8 13.873V21H6V13.873C4.33876 13.4454 3.09481 11.9784 3.00488 10.2061L3 10C3 8.13616 4.27477 6.57002 6 6.12598V3H8ZM7 8C5.89543 8 5 8.89543 5 10C5 11.1046 5.89543 12 7 12C8.10457 12 9 11.1046 9 10C9 8.89543 8.10457 8 7 8Z" fill="#000000"/>
<path d="M18 3V10.126C19.7252 10.57 21 12.1362 21 14L20.9951 14.2061C20.9052 15.9783 19.6612 17.4453 18 17.873V21H16V17.873C14.3388 17.4454 13.0948 15.9784 13.0049 14.2061L13 14C13 12.1362 14.2748 10.57 16 10.126V3H18ZM17 12C15.8954 12 15 12.8954 15 14C15 15.1046 15.8954 16 17 16C18.1046 16 19 15.1046 19 14C19 12.8954 18.1046 12 17 12Z" fill="#000000"/>
</svg>
