<svg xmlns="http://www.w3.org/2000/svg" width="20" height="20" viewBox="0 0 20 20" fill="none"><rect width="20" height="20" fill="none"/>
<path d="M11.75 8.25H14V9.75H11.75V12H10.25V9.75H8V8.25H10.25V6H11.75V8.25Z" fill="#000000"/>
<path d="M11 2C14.866 2 18 5.13401 18 9C18 12.2756 15.7497 15.0255 12.7109 15.7891C11.6124 17.1812 9.91106 18.0752 8 18.0752C4.68629 18.0752 2 15.3889 2 12.0752C2 10.2177 2.8442 8.55806 4.16992 7.45801C4.87222 4.33383 7.66378 2 11 2ZM4.05762 9.90527C3.70229 10.5486 3.5 11.2881 3.5 12.0752C3.5 14.5605 5.51472 16.5752 8 16.5752C8.82715 16.5752 9.60186 16.3515 10.2676 15.9619C7.04436 15.6268 4.47072 13.1047 4.05762 9.90527ZM11 3.5C7.96243 3.5 5.5 5.96243 5.5 9C5.5 12.0376 7.96243 14.5 11 14.5C14.0376 14.5 16.5 12.0376 16.5 9C16.5 5.96243 14.0376 3.5 11 3.5Z" fill="#000000"/>
</svg>
