<svg xmlns="http://www.w3.org/2000/svg" width="20" height="20" viewBox="0 0 20 20" fill="none"><rect width="20" height="20" fill="none"/>
<path d="M15.2637 13.0596C15.4262 12.9726 15.624 12.9818 15.7773 13.084L18.7773 15.084C18.9163 15.1767 18.9999 15.333 19 15.5C18.9999 15.667 18.9163 15.8233 18.7773 15.916L15.7773 17.916C15.624 18.0182 15.4262 18.0274 15.2637 17.9404C15.1015 17.8534 15.0001 17.6841 15 17.5V16.25C13.7574 16.25 12.7501 17.2575 12.75 18.5V19H11.25V18.5C11.2501 16.429 12.929 14.75 15 14.75V13.5L15.0049 13.4316C15.0266 13.2748 15.1218 13.1357 15.2637 13.0596Z" fill="#000000"/>
<path d="M8.7002 1.9502C10.2189 1.9503 11.4502 3.18148 11.4502 4.7002V5.9502H13.2998C14.8186 5.9502 16.0498 7.18141 16.0498 8.7002V11H14.5498V8.7002C14.5498 8.00984 13.9902 7.4502 13.2998 7.4502H9.9502V4.7002C9.9502 4.00991 9.39046 3.4503 8.7002 3.4502H5.4502V16.5498H10V18.0498H3.9502V1.9502H8.7002Z" fill="#000000"/>
</svg>
