<svg xmlns="http://www.w3.org/2000/svg" width="20" height="20" viewBox="0 0 20 20" fill="none"><rect width="20" height="20" fill="none"/>
<path d="M8.30273 1.89338C9.41694 1.61503 10.5831 1.61491 11.6973 1.89338L12.2422 2.0301L12.9248 2.20002L13.2461 5.41291C13.3769 6.71941 14.0492 7.91212 15.0996 8.70002L15.5 8.99983V13.1502L14.9062 13.4139C13.6563 13.9694 12.3349 14.302 11 14.4129V17.9998H9V14.4129C7.66492 14.3021 6.34386 13.9694 5.09375 13.4139L4.49902 13.1502L4.5 12.4998L4.49902 8.99983L4.90039 8.70002C5.95069 7.91214 6.6231 6.71934 6.75391 5.41291L7.07422 2.20002L7.75781 2.0301L8.30273 1.89338ZM11.0752 3.80451C10.3664 3.64836 9.63262 3.64731 8.92383 3.80354L8.74316 5.61213C8.57385 7.3036 7.76676 8.8591 6.49902 9.97248V11.826C8.75732 12.6625 11.2407 12.6613 13.499 11.825V9.97248C12.2317 8.85907 11.426 7.30239 11.2568 5.61116L11.0752 3.80451Z" fill="#000000"/>
</svg>
