<svg xmlns="http://www.w3.org/2000/svg" width="20" height="20" viewBox="0 0 20 20" fill="none"><rect width="20" height="20" fill="none"/>
<path d="M11 11H7V9H11V11Z" fill="#000000"/>
<path d="M13 8H7V6H13V8Z" fill="#000000"/>
<path d="M17 14.4971L16.46 14.7764L10.46 17.8877C10.15 18.0483 9.77877 18.0358 9.48047 17.8545C9.18211 17.6731 9 17.3492 9 17V15.5332L4.45996 17.8877C4.15001 18.0483 3.77877 18.0358 3.48047 17.8545C3.18211 17.6731 3 17.3492 3 17V2H17V14.4971ZM5 15.3545L9.54004 13.001C9.84995 12.8404 10.2213 12.8529 10.5195 13.0342C10.8179 13.2155 10.9999 13.5396 11 13.8887V15.3545L15 13.2803V4H5V15.3545Z" fill="#000000"/>
</svg>
