<svg xmlns="http://www.w3.org/2000/svg" width="20" height="20" viewBox="0 0 20 20" fill="none"><rect width="20" height="20" fill="none"/>
<path d="M15.5664 10.5C16.3905 10.5002 16.6312 11.0215 16.8399 11.6806L18.999 18.5H17.4014L16.916 16.8789H14.0254L13.502 18.5H11.999L14.2656 11.6806C14.4853 11.0192 14.7419 10.5001 15.5664 10.5ZM14.4629 15.5097H16.4981L15.5283 12.2773H15.4902L14.4629 15.5097Z" fill="#000000"/>
<path d="M8.64649 2.1152C9.91235 1.89808 11.2132 1.98872 12.4365 2.37985C13.6597 2.77111 14.7709 3.45204 15.6758 4.36325C16.5808 5.2747 17.2531 6.39107 17.6358 7.61716L16.2041 8.06442C15.8932 7.06816 15.3467 6.16048 14.6113 5.41989C13.8761 4.67965 12.9732 4.12643 11.9795 3.80856C10.9856 3.49082 9.92881 3.41735 8.9004 3.59372C7.87211 3.77021 6.90042 4.19148 6.06934 4.82223C5.23828 5.45319 4.5705 6.27562 4.12403 7.21872C3.67762 8.16191 3.46505 9.19938 3.50391 10.2422C3.54285 11.2849 3.83225 12.3036 4.34766 13.2109C4.86318 14.1181 5.59005 14.8888 6.46583 15.456L6.0586 16.0859L5.6504 16.7148C4.57255 16.0166 3.67842 15.0687 3.04395 13.9521C2.40951 12.8354 2.05287 11.5822 2.00489 10.2988C1.95699 9.01522 2.21906 7.73811 2.76856 6.57712C3.31807 5.41632 4.13922 4.40447 5.16212 3.6279C6.18508 2.85139 7.38071 2.33245 8.64649 2.1152Z" fill="#000000"/>
<path d="M9.02345 5.09567C9.82953 4.93533 10.6637 4.97642 11.4502 5.21481C12.2369 5.45344 12.9528 5.88361 13.5342 6.46481L12.4736 7.52536C12.0667 7.11858 11.5653 6.81738 11.0147 6.65036C10.4643 6.48361 9.88048 6.45518 9.31641 6.56735C8.75217 6.67971 8.22306 6.92991 7.77833 7.29489C7.33393 7.65983 6.98577 8.12888 6.76563 8.66012C6.54549 9.19169 6.45932 9.77016 6.51563 10.3427C6.57203 10.9153 6.76931 11.4659 7.08888 11.9443C7.40852 12.4227 7.84228 12.8156 8.34962 13.0869C8.85689 13.3579 9.42389 13.4998 9.99903 13.5V15C9.17704 14.9998 8.36654 14.7966 7.64161 14.4091C6.91708 14.0216 6.29836 13.4614 5.8418 12.7783C5.38518 12.0948 5.10405 11.3083 5.02345 10.4902C4.94289 9.6721 5.06537 8.84639 5.37989 8.08688C5.69448 7.32739 6.19175 6.65632 6.82716 6.13473C7.46253 5.61334 8.21735 5.25615 9.02345 5.09567Z" fill="#000000"/>
<path d="M9.99903 7.99997C10.3276 7.99997 10.6516 8.08156 10.9414 8.2363C11.2313 8.39125 11.4794 8.61538 11.6621 8.88864C11.8448 9.162 11.957 9.47651 11.9893 9.80368C12.0215 10.131 11.9726 10.4617 11.8467 10.7656C11.7208 11.0693 11.5217 11.3373 11.2676 11.5459C11.0135 11.7542 10.7119 11.8977 10.3897 11.9619C10.0673 12.0259 9.73248 12.0094 9.41798 11.914C9.10368 11.8185 8.81726 11.6463 8.58497 11.414L9.64552 10.3535C9.7034 10.4114 9.77525 10.4546 9.85352 10.4785C9.93197 10.5023 10.0163 10.5061 10.0967 10.4902C10.1771 10.4742 10.253 10.4386 10.3164 10.3867C10.3799 10.3346 10.4295 10.2672 10.4609 10.1914C10.4924 10.1155 10.5051 10.0329 10.4971 9.95114C10.489 9.86954 10.4605 9.79085 10.415 9.72262C10.3694 9.65444 10.3068 9.59724 10.2344 9.55856C10.1621 9.52018 10.0808 9.49997 9.99903 9.49997V7.99997Z" fill="#000000"/>
</svg>
