<svg xmlns="http://www.w3.org/2000/svg" width="20" height="20" viewBox="0 0 20 20" fill="none"><rect width="20" height="20" fill="none"/>
<path d="M8.53628 2.645C9.99087 2.35574 11.4991 2.5043 12.8693 3.07176C14.2395 3.63938 15.4115 4.60037 16.2355 5.83348C17.0594 7.06665 17.4991 8.51739 17.4992 10.0005H18.4992C18.6808 10.0005 18.8485 10.0995 18.9367 10.2583C19.0245 10.4171 19.0191 10.6111 18.923 10.7651L16.423 14.7651C16.3316 14.911 16.1713 15.0005 15.9992 15.0005C15.8272 15.0002 15.6666 14.911 15.5753 14.7651L13.0753 10.7651C12.9795 10.6113 12.9741 10.4169 13.0617 10.2583C13.1497 10.0996 13.3178 10.0008 13.4992 10.0005H14.4992C14.4991 9.11073 14.2346 8.24029 13.7404 7.50047C13.246 6.76074 12.5429 6.18377 11.7209 5.84324C10.8988 5.50291 9.99386 5.41384 9.12124 5.58738C8.24868 5.76108 7.44668 6.18976 6.81753 6.81883C6.18859 7.44796 5.75975 8.25006 5.58609 9.12254C5.41268 9.995 5.50167 10.9003 5.84195 11.7221C6.18249 12.544 6.75952 13.2473 7.49917 13.7417C8.23901 14.236 9.10941 14.5004 9.99917 14.5005V17.5005C8.51607 17.5004 7.06536 17.0607 5.83218 16.2368C4.59916 15.4128 3.63809 14.2407 3.07046 12.8706C2.50306 11.5005 2.35458 9.99202 2.6437 8.53758C2.93311 7.08311 3.64694 5.74547 4.69546 4.69676C5.74419 3.64811 7.08174 2.93444 8.53628 2.645Z" fill="#000000"/>
</svg>
