<svg xmlns="http://www.w3.org/2000/svg" width="20" height="20" viewBox="0 0 20 20" fill="none"><rect width="20" height="20" fill="none"/>
<path d="M4 14.5C4 15.3284 4.67157 16 5.5 16H7V17.5H5.5C3.84315 17.5 2.5 16.1569 2.5 14.5V13H4V14.5Z" fill="#000000"/>
<path d="M17.5 14.5C17.5 16.1569 16.1569 17.5 14.5 17.5H13V16H14.5C15.3284 16 16 15.3284 16 14.5V13H17.5V14.5Z" fill="#000000"/>
<path d="M13.5303 7.53027L7.53027 13.5303L6.46973 12.4697L12.4697 6.46973L13.5303 7.53027Z" fill="#000000"/>
<path d="M12.25 11C12.9404 11 13.5 11.5596 13.5 12.25C13.5 12.9404 12.9404 13.5 12.25 13.5C11.5596 13.5 11 12.9404 11 12.25C11 11.5596 11.5596 11 12.25 11Z" fill="#000000"/>
<path d="M7.74609 6.5C8.43645 6.5 8.99609 7.05964 8.99609 7.75C8.99609 8.44036 8.43645 9 7.74609 9C7.05574 9 6.49609 8.44036 6.49609 7.75C6.49609 7.05964 7.05574 6.5 7.74609 6.5Z" fill="#000000"/>
<path d="M7 4H5.5C4.67157 4 4 4.67157 4 5.5V7H2.5V5.5C2.5 3.84315 3.84315 2.5 5.5 2.5H7V4Z" fill="#000000"/>
<path d="M14.5 2.5C16.1569 2.5 17.5 3.84315 17.5 5.5V7H16V5.5C16 4.67157 15.3284 4 14.5 4H13V2.5H14.5Z" fill="#000000"/>
</svg>
