<svg xmlns="http://www.w3.org/2000/svg" width="20" height="20" viewBox="0 0 20 20" fill="none"><rect width="20" height="20" fill="none"/>
<path d="M14.9994 8.00061C16.6563 8.00064 17.9994 9.34377 17.9994 11.0006V15.0006C17.999 16.6571 16.656 18.0006 14.9994 18.0006H10.9994C9.34305 18.0004 7.99987 16.6569 7.99943 15.0006V11.0006C7.99943 9.3439 9.34278 8.00085 10.9994 8.00061H14.9994ZM10.9994 9.50061C10.1712 9.50085 9.49943 10.1723 9.49943 11.0006V15.0006C9.49987 15.8285 10.1715 16.5004 10.9994 16.5006H14.9994C15.8276 16.5006 16.499 15.8286 16.4994 15.0006V11.0006C16.4994 10.1722 15.8278 9.50064 14.9994 9.50061H10.9994Z" fill="#000000"/>
<path d="M8.2631 1.56018C8.42552 1.47326 8.62341 1.48259 8.77677 1.5846L11.7768 3.5846C11.9155 3.67731 11.9993 3.83374 11.9994 4.00061C11.9992 4.16754 11.9157 4.32402 11.7768 4.41663L8.77677 6.41663C8.62353 6.51863 8.42549 6.52774 8.2631 6.44104C8.10127 6.35399 7.99967 6.1844 7.99943 6.00061V4.7594C7.14828 4.80453 6.32303 5.07621 5.61174 5.55139C4.8308 6.07329 4.22121 6.81546 3.86174 7.68323C3.50263 8.55085 3.40804 9.50639 3.59123 10.4274C3.77465 11.3484 4.22797 12.195 4.89201 12.859L3.83146 13.9196C2.95774 13.0458 2.36187 11.9321 2.12053 10.7203C1.87944 9.50831 2.00329 8.25078 2.47599 7.10901C2.94893 5.96731 3.75035 4.99103 4.77775 4.30432C5.73582 3.66423 6.8513 3.30169 7.99943 3.25549V2.00061C7.99955 1.81664 8.10108 1.64727 8.2631 1.56018Z" fill="#000000"/>
</svg>
