<svg xmlns="http://www.w3.org/2000/svg" width="24" height="24" viewBox="0 0 24 24" fill="none"><rect width="24" height="24" fill="none"/>
<path d="M18 9C18.5523 9 19 9.44772 19 10C19 10.5523 18.5523 11 18 11H17C16.4477 11 16 10.5523 16 10C16 9.44772 16.4477 9 17 9H18Z" fill="#000000"/>
<path d="M18 6H19C20.6569 6 22 7.34315 22 9V15C22 16.6569 20.6569 18 19 18H18V22H6V18H5C3.34315 18 2 16.6569 2 15V9C2 7.34315 3.34315 6 5 6H6V2H18V6ZM8 20H16V16H8V20ZM5 8C4.44772 8 4 8.44772 4 9V15C4 15.5523 4.44772 16 5 16H6V14H18V16H19C19.5523 16 20 15.5523 20 15V9C20 8.44772 19.5523 8 19 8H5ZM8 6H16V4H8V6Z" fill="#000000"/>
</svg>
