<svg xmlns="http://www.w3.org/2000/svg" width="20" height="20" viewBox="0 0 20 20" fill="none"><rect width="20" height="20" fill="none"/>
<path d="M15.2637 13.0601C15.4262 12.9731 15.6239 12.9822 15.7773 13.0845L18.7773 15.0845C18.9163 15.1772 19 15.3334 19 15.5005C18.9999 15.6675 18.9163 15.8238 18.7773 15.9165L15.7773 17.9165C15.624 18.0187 15.4262 18.0278 15.2637 17.9409C15.1015 17.8539 15.0001 17.6846 15 17.5005V16.2505C13.7574 16.2505 12.75 17.2579 12.75 18.5005V19.0005H11.25V18.5005C11.25 16.4294 12.929 14.7505 15 14.7505V13.5005L15.0049 13.4321C15.0265 13.2753 15.1218 13.1362 15.2637 13.0601Z" fill="#000000"/>
<path d="M11.3643 2.76708C13.157 2.11826 15.0498 3.44637 15.0498 5.35302V5.95165H15.2998C16.8186 5.95165 18.0498 7.18288 18.0498 8.70165V11.0015H16.5498V8.70165C16.5498 8.0113 15.9902 7.45165 15.2998 7.45165H4.7002C4.00984 7.45165 3.4502 8.0113 3.4502 8.70165V15.3013C3.45048 15.9914 4.01001 16.5513 4.7002 16.5513H9V18.0513H4.7002C3.18159 18.0513 1.95048 16.8198 1.9502 15.3013V8.104C1.95036 6.94657 2.67548 5.91331 3.76367 5.51904L11.3643 2.76708ZM13.5498 5.35302C13.5498 4.4863 12.689 3.88217 11.874 4.17724L6.97363 5.95165H13.5498V5.35302Z" fill="#000000"/>
</svg>
