<svg xmlns="http://www.w3.org/2000/svg" width="20" height="20" viewBox="0 0 20 20" fill="none"><rect width="20" height="20" fill="none"/>
<path d="M5 9C5 11.7614 7.23858 14 10 14C12.7614 14 15 11.7614 15 9H16.5C16.5 12.3361 13.9865 15.0831 10.75 15.4551V18H9.25V15.4551C6.01354 15.0831 3.5 12.3361 3.5 9H5Z" fill="#000000"/>
<path d="M10 2C11.6569 2 13 3.34315 13 5V9L12.9961 9.1543C12.9158 10.7394 11.6051 12 10 12C8.39489 12 7.08421 10.7394 7.00391 9.1543L7 9V5C7 3.34315 8.34315 2 10 2ZM10 3.5C9.17157 3.5 8.5 4.17157 8.5 5V9C8.5 9.82843 9.17157 10.5 10 10.5C10.8284 10.5 11.5 9.82843 11.5 9V5C11.5 4.17157 10.8284 3.5 10 3.5Z" fill="#000000"/>
</svg>
