<svg xmlns="http://www.w3.org/2000/svg" width="20" height="20" viewBox="0 0 20 20" fill="none"><rect width="20" height="20" fill="none"/>
<path d="M13.5303 7.53027L11.0605 10L13.5303 12.4697L12.4697 13.5303L10 11.0605L7.53027 13.5303L6.46973 12.4697L8.93945 10L6.46973 7.53027L7.53027 6.46973L10 8.93945L12.4697 6.46973L13.5303 7.53027Z" fill="#000000"/>
<path d="M10 1.7002C14.5839 1.7002 18.2997 5.41613 18.2998 10C18.2998 14.584 14.584 18.2998 10 18.2998C5.41613 18.2997 1.7002 14.5839 1.7002 10C1.7003 5.41619 5.41619 1.7003 10 1.7002ZM10 3.2002C6.24462 3.2003 3.2003 6.24462 3.2002 10C3.2002 13.7555 6.24455 16.7997 10 16.7998C13.7555 16.7998 16.7998 13.7555 16.7998 10C16.7997 6.24455 13.7555 3.2002 10 3.2002Z" fill="#000000"/>
</svg>
