<svg xmlns="http://www.w3.org/2000/svg" width="20" height="20" viewBox="0 0 20 20" fill="none"><rect width="20" height="20" fill="none"/>
<path d="M16.9746 11C18.3691 11 19.5 12.1309 19.5 13.5254C19.4998 14.9197 18.369 16.0498 16.9746 16.0498H15.5V17H17V18H15.5V19H14V18H13V17H14V16.0498H13V14.5498H14V11H16.9746ZM15.5 14.5498H16.9746C17.5406 14.5498 17.9998 14.0913 18 13.5254C18 12.9593 17.5407 12.5 16.9746 12.5H15.5V14.5498Z" fill="#000000"/>
<path d="M17 6V9H15.5V6.87012L13.6211 5.79688L8.25 8.92969V15.2715L10 16.2715V18L3 14V6L10 2L17 6ZM4.5 6.87012V13.1289L6.75 14.4141V8.06934L12.1182 4.9375L10 3.72754L4.5 6.87012Z" fill="#000000"/>
</svg>
