<svg xmlns="http://www.w3.org/2000/svg" width="20" height="20" viewBox="0 0 20 20" fill="none"><rect width="20" height="20" fill="none"/>
<path d="M15.3008 3.69922C16.4053 3.69922 17.3006 4.59478 17.3008 5.69922V14.2998C17.3008 15.4044 16.4053 16.2998 15.3008 16.2998H4.7002C3.59576 16.2996 2.7002 15.4043 2.7002 14.2998V5.69922C2.70035 4.59488 3.59586 3.69938 4.7002 3.69922H15.3008ZM14.001 9C13.4489 9 13.0012 9.44696 13.001 9.99902C13.001 10.5513 13.4487 10.999 14.001 10.999C14.5531 10.999 15.0007 10.5521 15.001 10C15.001 9.44772 14.5533 9 14.001 9Z" fill="#000000"/>
</svg>
