<svg xmlns="http://www.w3.org/2000/svg" width="24" height="24" viewBox="0 0 24 24" fill="none"><rect width="24" height="24" fill="none"/>
<path d="M19.0005 18H20.5005L20.5678 18.0049C20.7226 18.0261 20.8609 18.119 20.938 18.2578C21.0257 18.4166 21.0203 18.6107 20.9243 18.7646L18.4243 22.7646C18.333 22.9106 18.1726 22.9998 18.0005 23C17.8283 22.9998 17.6679 22.9106 17.5766 22.7646L15.0766 18.7646C14.9806 18.6107 14.9752 18.4166 15.063 18.2578C15.151 18.0991 15.3189 18.0002 15.5005 18H17.0005V14H19.0005V18Z" fill="#000000"/>
<path d="M11.9995 2C12.0304 2.03077 15.0307 4.99959 20.9985 5C20.9986 6.24129 21.1681 9.02298 20.6606 12H18.6313C18.9843 10.1399 19.031 8.32883 19.0219 6.89648C16.6308 6.64827 14.7379 5.98048 13.3549 5.28906C12.827 5.02504 12.3753 4.75545 11.9985 4.50977C11.6218 4.75532 11.1707 5.02525 10.643 5.28906C9.25981 5.9805 7.36671 6.64846 4.97506 6.89648C4.96408 8.67243 5.03946 11.0308 5.67721 13.3428C6.52439 16.4136 8.25983 19.0547 11.9985 19.9521V21.999L11.5385 21.8994C2.0313 19.6273 2.99877 7.95307 2.9985 5C8.95497 4.99999 11.956 2.04316 11.9995 2Z" fill="#000000"/>
</svg>
