<svg xmlns="http://www.w3.org/2000/svg" width="20" height="20" viewBox="0 0 20 20" fill="none"><rect width="20" height="20" fill="none"/>
<path d="M10.75 3.2832C11.7744 3.36817 12.6794 3.63485 13.3789 4.14355C14.2817 4.80025 14.75 5.7879 14.75 7H13.25C13.25 6.2122 12.9681 5.69975 12.4961 5.35645C11.9869 4.98627 11.1673 4.75 10 4.75C8.83269 4.75 8.01305 4.98627 7.50391 5.35645C7.03187 5.69975 6.75 6.2122 6.75 7C6.75 7.36697 6.83964 7.62874 6.97266 7.83301C7.1104 8.04444 7.3227 8.23699 7.62793 8.41504C8.26655 8.78751 9.15054 9.01468 10.1816 9.27246C11.1503 9.51464 12.2666 9.7876 13.1279 10.29C13.5725 10.5494 13.9854 10.8883 14.2852 11.3486C14.5895 11.8162 14.75 12.3671 14.75 13C14.75 14.8576 13.1179 16.4297 10.75 16.7061V19H9.25V16.7158C8.22566 16.6308 7.32054 16.3651 6.62109 15.8564C5.71829 15.1997 5.25 14.2121 5.25 13H6.75C6.75 13.7878 7.03187 14.3003 7.50391 14.6436C8.01305 15.0137 8.83269 15.25 10 15.25C12.2335 15.25 13.25 13.9521 13.25 13C13.25 12.633 13.1604 12.3713 13.0273 12.167C12.8896 11.9556 12.6773 11.763 12.3721 11.585C11.7335 11.2125 10.8495 10.9853 9.81836 10.7275C8.84966 10.4854 7.73339 10.2124 6.87207 9.70996C6.42749 9.45059 6.01457 9.11165 5.71484 8.65137C5.41046 8.18381 5.25 7.63292 5.25 7C5.25 5.7879 5.71829 4.80025 6.62109 4.14355C7.32056 3.63485 8.22562 3.36817 9.25 3.2832V1H10.75V3.2832Z" fill="#000000"/>
</svg>
