<svg xmlns="http://www.w3.org/2000/svg" width="20" height="20" viewBox="0 0 20 20" fill="none"><rect width="20" height="20" fill="none"/>
<path d="M4.5 14C5.32843 14 6 14.6716 6 15.5C6 16.3284 5.32843 17 4.5 17C3.67157 17 3 16.3284 3 15.5C3 14.6716 3.67157 14 4.5 14Z" fill="#000000"/>
<path d="M10 14C10.8284 14 11.5 14.6716 11.5 15.5C11.5 16.3284 10.8284 17 10 17C9.17157 17 8.5 16.3284 8.5 15.5C8.5 14.6716 9.17157 14 10 14Z" fill="#000000"/>
<path d="M15.5 14C16.3284 14 17 14.6716 17 15.5C17 16.3284 16.3284 17 15.5 17C14.6716 17 14 16.3284 14 15.5C14 14.6716 14.6716 14 15.5 14Z" fill="#000000"/>
<path d="M4.5 8.5C5.32843 8.5 6 9.17157 6 10C6 10.8284 5.32843 11.5 4.5 11.5C3.67157 11.5 3 10.8284 3 10C3 9.17157 3.67157 8.5 4.5 8.5Z" fill="#000000"/>
<path d="M10 8.5C10.8284 8.5 11.5 9.17157 11.5 10C11.5 10.8284 10.8284 11.5 10 11.5C9.17157 11.5 8.5 10.8284 8.5 10C8.5 9.17157 9.17157 8.5 10 8.5Z" fill="#000000"/>
<path d="M15.5 8.5C16.3284 8.5 17 9.17157 17 10C17 10.8284 16.3284 11.5 15.5 11.5C14.6716 11.5 14 10.8284 14 10C14 9.17157 14.6716 8.5 15.5 8.5Z" fill="#000000"/>
<path d="M4.5 3C5.32843 3 6 3.67157 6 4.5C6 5.32843 5.32843 6 4.5 6C3.67157 6 3 5.32843 3 4.5C3 3.67157 3.67157 3 4.5 3Z" fill="#000000"/>
<path d="M10 3C10.8284 3 11.5 3.67157 11.5 4.5C11.5 5.32843 10.8284 6 10 6C9.17157 6 8.5 5.32843 8.5 4.5C8.5 3.67157 9.17157 3 10 3Z" fill="#000000"/>
<path d="M15.5 3C16.3284 3 17 3.67157 17 4.5C17 5.32843 16.3284 6 15.5 6C14.6716 6 14 5.32843 14 4.5C14 3.67157 14.6716 3 15.5 3Z" fill="#000000"/>
</svg>
