<svg xmlns="http://www.w3.org/2000/svg" width="20" height="20" viewBox="0 0 20 20" fill="none"><rect width="20" height="20" fill="none"/>
<path d="M10.5 4C12.1516 4 13.4906 5.33471 13.499 6.98438L16.9229 5.3252C17.1553 5.21252 17.4295 5.22713 17.6484 5.36426C17.8673 5.50141 18 5.74174 18 6V14C18 14.2583 17.8673 14.4986 17.6484 14.6357C17.4295 14.7729 17.1553 14.7875 16.9229 14.6748L13.499 13.0146C13.4911 14.6648 12.152 16 10.5 16H5C3.34315 16 2 14.6569 2 13V7C2 5.34315 3.34315 4 5 4H10.5ZM5 5.5C4.17157 5.5 3.5 6.17157 3.5 7V13C3.5 13.8284 4.17157 14.5 5 14.5H10.5C11.3284 14.5 12 13.8284 12 13V7C12 6.17157 11.3284 5.5 10.5 5.5H5ZM13.5 8.65137V11.3477L16.5 12.8027V7.19629L13.5 8.65137Z" fill="#000000"/>
</svg>
