<svg xmlns="http://www.w3.org/2000/svg" width="24" height="24" viewBox="0 0 24 24" fill="none"><rect width="24" height="24" fill="none"/>
<path d="M11 17H9V9H11V17Z" fill="#000000"/>
<path d="M15 17H13V9H15V17Z" fill="#000000"/>
<path d="M13 2C14.9001 2 16.4896 3.32517 16.8975 5.10156C18.6744 5.50896 20 7.09946 20 9V17C20 18.8638 18.7252 20.43 17 20.874V22H15V21H9V22H7V20.874C5.27477 20.43 4 18.8638 4 17V9C4 7.09979 5.32507 5.50931 7.10156 5.10156C7.5093 3.32507 9.09979 2 11 2H13ZM8 7C6.89543 7 6 7.89543 6 9V17C6 18.1046 6.89543 19 8 19H16C17.1046 19 18 18.1046 18 17V9C18 7.89543 17.1046 7 16 7H8ZM11 4C10.2601 4 9.61546 4.40267 9.26953 5H14.7305C14.3845 4.40267 13.7399 4 13 4H11Z" fill="#000000"/>
</svg>
