<svg xmlns="http://www.w3.org/2000/svg" width="20" height="20" viewBox="0 0 20 20" fill="none"><rect width="20" height="20" fill="none"/>
<path d="M18.5303 12.5303L16.0606 15L18.5303 17.4697L17.4698 18.5303L15 16.0605L12.5303 18.5303L11.4698 17.4697L13.9395 15L11.4698 12.5303L12.5303 11.4697L15 13.9395L17.4698 11.4697L18.5303 12.5303Z" fill="#000000"/>
<path d="M15.4571 7H17.2491C17.4759 7.00018 17.6908 7.10361 17.833 7.28027C17.9751 7.45702 18.0298 7.68861 17.9815 7.91016L17.6338 9.5H16.0987L16.3174 8.5H3.67386L5.31546 16.3018C5.33996 16.4171 5.44264 16.4999 5.56058 16.5H9.50003V18H5.56058C4.73319 17.9999 4.0182 17.42 3.84769 16.6104L2.01468 7.9043C1.96827 7.6833 2.02478 7.45274 2.16702 7.27734C2.30937 7.10223 2.52337 7.00009 2.74905 7H4.54105L6.28714 1.7627L7.71097 2.2373L6.12308 7H13.875L12.2871 2.2373L13.711 1.7627L15.4571 7Z" fill="#000000"/>
</svg>
