<svg xmlns="http://www.w3.org/2000/svg" width="24" height="24" viewBox="0 0 24 24" fill="none"><rect width="24" height="24" fill="none"/>
<path d="M8.00001 15H10C10.1801 15 10.3468 15.0972 10.4356 15.2539C10.524 15.4105 10.5212 15.6026 10.4287 15.7568L7.42873 20.7568C7.33837 20.9074 7.17564 21 7.00001 21C6.84625 21 6.70249 20.9292 6.60841 20.8105L6.5713 20.7568L3.5713 15.7568C3.47888 15.6025 3.476 15.4105 3.56447 15.2539C3.65322 15.0972 3.81989 15 4.00001 15H6.00001V4H8.00001V15Z" fill="#000000"/>
<path d="M17 3C17.1538 3.00001 17.2975 3.07079 17.3916 3.18945L17.4287 3.24316L20.4287 8.24316C20.5212 8.39745 20.524 8.58951 20.4356 8.74609C20.3468 8.90284 20.1801 8.99999 20 9H18V20H16V9H14C13.8199 8.99999 13.6532 8.90284 13.5645 8.74609C13.476 8.58951 13.4789 8.39745 13.5713 8.24316L16.5713 3.24316C16.6617 3.09257 16.8244 3.00001 17 3Z" fill="#000000"/>
</svg>
