<svg xmlns="http://www.w3.org/2000/svg" width="20" height="20" viewBox="0 0 20 20" fill="none"><rect width="20" height="20" fill="none"/>
<path d="M15.9365 4H10.9999V5.12598C11.9078 5.35965 12.6902 5.90465 13.2284 6.63965C13.7097 6.7762 14.1767 6.97042 14.6171 7.22461C15.9426 7.99001 16.9327 9.22076 17.3993 10.6709L17.4853 10.9629C17.9078 12.5399 17.6874 14.2208 16.871 15.6348C16.3354 16.5623 15.5717 17.3249 14.665 17.8594C13.9216 18.2973 13.0554 17.8454 12.7538 17.0547L12.7011 16.8926L11.5712 12.6777C11.0887 12.8842 10.558 13 9.99993 13C9.43938 13 8.90607 12.884 8.42181 12.6758L7.29388 16.8926L7.24114 17.0547C6.93951 17.8454 6.07338 18.2973 5.33001 17.8594C4.4232 17.3248 3.65857 16.5624 3.12298 15.6348C2.30677 14.2209 2.08625 12.5398 2.50872 10.9629L2.59563 10.6709C3.06221 9.22079 4.05153 7.99005 5.37688 7.22461C5.79357 6.98407 6.23475 6.79802 6.68841 6.66211C6.56494 6.86176 6.45972 7.07426 6.37786 7.29785C6.87931 6.23265 7.83796 5.42504 8.99993 5.12598V4H4.06438L4.06536 2H15.9374L15.9365 4ZM6.00384 9.2002C5.24155 9.75702 4.68695 10.5603 4.44036 11.4805C4.15519 12.545 4.30541 13.6793 4.85638 14.6338C5.05456 14.977 5.29983 15.2862 5.58099 15.5557L6.52337 12.0381L6.72259 11.291C6.30379 10.693 6.04208 9.97618 6.00384 9.2002ZM13.995 9.2041C13.956 9.98175 13.6925 10.6994 13.2714 11.2979L13.4706 12.0381L14.413 15.5557C14.6943 15.2862 14.9394 14.9771 15.1376 14.6338C15.6887 13.6792 15.8389 12.5451 15.5536 11.4805C15.3075 10.5621 14.7549 9.76079 13.995 9.2041ZM9.99993 7C8.89536 7 7.99993 7.89543 7.99993 9C7.99993 10.1046 8.89536 11 9.99993 11C11.1045 11 11.9999 10.1046 11.9999 9C11.9999 7.89543 11.1045 7 9.99993 7Z" fill="#000000"/>
</svg>
