<svg xmlns="http://www.w3.org/2000/svg" width="20" height="20" viewBox="0 0 20 20" fill="none"><rect width="20" height="20" fill="none"/>
<path d="M16 16C17.6569 16 19 17.3431 19 19H13C13 17.3431 14.3431 16 16 16Z" fill="#000000"/>
<path d="M9 2C10.6569 2 12 3.34315 12 5V6H13C14.6569 6 16 7.34315 16 9H14C14 8.44772 13.5523 8 13 8H10V5C10 4.44772 9.55228 4 9 4H6V16H11V18H4V2H9Z" fill="#000000"/>
<path d="M16 11C17.1046 11 18 11.8954 18 13C18 14.1046 17.1046 15 16 15C14.8954 15 14 14.1046 14 13C14 11.8954 14.8954 11 16 11Z" fill="#000000"/>
</svg>
