<svg xmlns="http://www.w3.org/2000/svg" width="20" height="20" viewBox="0 0 20 20" fill="none"><rect width="20" height="20" fill="none"/>
<path d="M15.9997 16C17.6566 16 18.9997 17.3431 18.9997 19H12.9997C12.9997 17.3433 14.3431 16.0003 15.9997 16Z" fill="#000000"/>
<path d="M9.99971 2C11.0035 2.00012 11.977 2.28481 12.6735 2.5498C13.0266 2.6842 13.3231 2.81927 13.531 2.9209C13.6343 2.97147 13.718 3.01499 13.7761 3.0459C13.8043 3.06096 13.8282 3.07404 13.8444 3.08301C13.8521 3.08718 13.8602 3.09111 13.8649 3.09375L13.8708 3.09766L13.8728 3.09863L13.8737 3.09961C14.0725 3.21332 14.2095 3.41228 14.2439 3.63867C14.2778 3.86499 14.2067 4.09539 14.0505 4.2627L11.2468 7.26367L13.9226 8.53809C14.1951 8.66791 14.4516 8.82411 14.6911 9H11.405L10.0007 8.33105L6.72335 9.89258C5.87241 10.2981 5.23879 11.0532 4.988 11.9619L4.5212 13.6523C4.1267 15.0845 5.20462 16.5004 6.69014 16.501H10.9997V18.001H6.69014C4.21378 18.0004 2.41797 15.6412 3.07589 13.2539L3.54171 11.5635C3.90822 10.235 4.83473 9.13078 6.07882 8.53809L8.75362 7.26367L5.95382 4.2627C5.79805 4.09544 5.72752 3.86468 5.76143 3.63867C5.79571 3.41246 5.93212 3.21343 6.13057 3.09961L6.1335 3.09766C6.1335 3.09766 6.13727 3.09585 6.13936 3.09473C6.14402 3.0921 6.15123 3.08822 6.15889 3.08398C6.17519 3.07496 6.1995 3.06222 6.22823 3.04688C6.28622 3.0159 6.36891 2.97166 6.47237 2.9209C6.67979 2.81917 6.9751 2.68436 7.32784 2.5498C8.02329 2.28462 8.99557 2.00012 9.99971 2ZM9.99971 3.50098C9.25482 3.5011 8.47724 3.71754 7.86202 3.95215C7.8262 3.96583 7.7909 3.98149 7.75655 3.99512L9.99971 6.40137L12.2468 3.99512C12.2123 3.98148 12.1763 3.96584 12.1403 3.95215C11.5235 3.71746 10.7446 3.5011 9.99971 3.50098Z" fill="#000000"/>
<path d="M15.9997 11C17.1043 11 17.9997 11.8954 17.9997 13C17.9997 14.1046 17.1043 15 15.9997 15C14.8954 14.9997 13.9997 14.1044 13.9997 13C13.9997 11.8956 14.8954 11.0003 15.9997 11Z" fill="#000000"/>
</svg>
