<svg xmlns="http://www.w3.org/2000/svg" width="20" height="20" viewBox="0 0 20 20" fill="none"><rect width="20" height="20" fill="none"/>
<path d="M18.5303 17.4697L17.4697 18.5303L16 17.0605V17.249C15.9998 17.5112 15.863 17.7548 15.6387 17.8906C15.4142 18.0265 15.1348 18.0347 14.9023 17.9131L10 15.3457L5.09766 17.9131C4.8652 18.0347 4.58578 18.0265 4.36133 17.8906C4.13699 17.7548 4.00016 17.5112 4 17.249V5.06055L1.46973 2.53027L2.53027 1.46973L18.5303 17.4697ZM5.5 16.0088L9.65234 13.8359L10 13.6533L10.3477 13.8359L14.5 16.0088V15.5605L5.5 6.56055V16.0088Z" fill="#000000"/>
<path d="M16 12.9395L14.5 11.4395V3.5H6.56055L5.06055 2H16V12.9395Z" fill="#000000"/>
</svg>
