<svg xmlns="http://www.w3.org/2000/svg" width="20" height="20" viewBox="0 0 20 20" fill="none"><rect width="20" height="20" fill="none"/>
<path d="M9.29235 11.706C9.65831 11.3403 10.2376 11.3168 10.6302 11.6367L10.7064 11.706L13.0433 14.0429L13.1127 14.1191C13.4324 14.5118 13.409 15.0911 13.0433 15.457L10.7064 17.7939L10.6302 17.8632C10.2639 18.1616 9.73491 18.1615 9.36852 17.8632L9.29235 17.7939L6.95544 15.457L6.8861 15.3808C6.58769 15.0144 6.5877 14.4855 6.8861 14.1191L6.95544 14.0429L9.29235 11.706ZM8.3695 14.7499L9.99938 16.3798L11.6293 14.7499L9.99938 13.1201L8.3695 14.7499Z" fill="#000000"/>
<path d="M14.0433 6.95502C14.4339 6.56463 15.0679 6.56454 15.4584 6.95502L17.7943 9.29194C18.1847 9.68243 18.1847 10.3155 17.7943 10.706L15.4584 13.0429C15.0679 13.4334 14.4339 13.4333 14.0433 13.0429L11.7074 10.706C11.3169 10.3155 11.3169 9.68246 11.7074 9.29194L14.0433 6.95502ZM13.1215 9.99897L14.7504 11.6289L16.3802 9.99897L14.7504 8.36909L13.1215 9.99897Z" fill="#000000"/>
<path d="M4.54333 6.956C4.90939 6.59007 5.48947 6.56653 5.8822 6.88666L5.95739 6.956L8.29333 9.29194C8.68368 9.68243 8.68368 10.3155 8.29333 10.706L5.95739 13.0419C5.56691 13.4324 4.93385 13.4323 4.54333 13.0419L2.20739 10.706C1.81695 10.3155 1.81692 9.68244 2.20739 9.29194L4.54333 6.956ZM3.62145 9.99897L5.25036 11.6279L6.87927 9.99897L5.25036 8.37006L3.62145 9.99897Z" fill="#000000"/>
<path d="M9.29235 2.20698C9.65829 1.84122 10.2375 1.81787 10.6302 2.13764L10.7064 2.20698L13.0424 4.54291C13.4327 4.93339 13.4327 5.56648 13.0424 5.95698L10.7064 8.29389C10.316 8.684 9.6828 8.68397 9.29235 8.29389L6.95641 5.95698C6.56602 5.56644 6.56593 4.93339 6.95641 4.54291L9.29235 2.20698ZM8.37048 5.24994L9.99938 6.87885L11.6283 5.24994L9.99938 3.62104L8.37048 5.24994Z" fill="#000000"/>
</svg>
