<svg xmlns="http://www.w3.org/2000/svg" width="24" height="24" viewBox="0 0 24 24" fill="none"><rect width="24" height="24" fill="none"/>
<path d="M17 2.78223C20.0091 4.74512 22 8.13831 22 11.999C22 15.8599 20.0094 19.2539 17 21.2168V18.7061C18.8409 17.0581 20 14.6642 20 11.999C20 9.33407 18.8406 6.9409 17 5.29297V2.78223Z" fill="#000000"/>
<path d="M7 5.29199C5.15912 6.93994 4 9.33383 4 11.999C4 14.664 5.15941 17.0571 7 18.7051V21.2158C3.99088 19.2529 2 15.8597 2 11.999C2 8.13811 3.99063 4.7441 7 2.78125V5.29199Z" fill="#000000"/>
<path d="M16.207 9.20605L9.20703 16.2061L7.79297 14.792L14.793 7.79199L16.207 9.20605Z" fill="#000000"/>
<path d="M14.5 12.999C15.3284 12.999 16 13.6706 16 14.499C16 15.3275 15.3284 15.999 14.5 15.999C13.6716 15.999 13 15.3275 13 14.499C13 13.6706 13.6716 12.999 14.5 12.999Z" fill="#000000"/>
<path d="M9.5 7.99902C10.3284 7.99902 11 8.6706 11 9.49902C11 10.3275 10.3284 10.999 9.5 10.999C8.67157 10.999 8 10.3275 8 9.49902C8 8.6706 8.67157 7.99902 9.5 7.99902Z" fill="#000000"/>
</svg>
