<svg xmlns="http://www.w3.org/2000/svg" width="20" height="20" viewBox="0 0 20 20" fill="none"><rect width="20" height="20" fill="none"/>
<path d="M10 6C11.0609 6 12.078 6.42173 12.8281 7.17188C13.5783 7.92202 14 8.93913 14 10L13.9951 10.1982C13.9513 11.083 13.6133 11.926 13.0391 12.5977L13.9805 17.3037C14.0504 17.6533 13.9293 18.0141 13.6621 18.25C13.3949 18.4859 13.0218 18.561 12.6836 18.4482L10 17.5537L7.31641 18.4482C6.97823 18.561 6.60513 18.4859 6.33789 18.25C6.07066 18.0141 5.94962 17.6533 6.01953 17.3037L6.95996 12.5977C6.3432 11.876 6 10.9561 6 10C6 8.93913 6.42173 7.92202 7.17188 7.17188C7.92202 6.42173 8.93913 6 10 6ZM8.31836 16.0068L9.68359 15.5518L9.83984 15.5127C9.99862 15.4869 10.1623 15.5004 10.3164 15.5518L11.6816 16.0068L11.2402 13.8018C10.9052 13.9111 10.5552 13.9774 10.1982 13.9951L10 14C9.57425 14 9.15602 13.9306 8.75879 13.8008L8.31836 16.0068ZM10 8C9.46957 8 8.96101 8.21087 8.58594 8.58594C8.21087 8.96101 8 9.46957 8 10C8 10.5304 8.21087 11.039 8.58594 11.4141C8.96101 11.7891 9.46957 12 10 12L10.1973 11.9902C10.6553 11.9449 11.0858 11.7423 11.4141 11.4141C11.7891 11.039 12 10.5304 12 10L11.9902 9.80273C11.9449 9.34474 11.7423 8.91422 11.4141 8.58594C11.039 8.21087 10.5304 8 10 8Z" fill="#000000"/>
<path d="M15 2C16.6568 2.00002 17.9999 3.34321 18 5V13C18 14.6051 16.7394 15.9158 15.1543 15.9961L15 16V14C15.5523 14 16 13.5523 16 13V5C15.9999 4.44777 15.5522 4.00001 15 4H5C4.44772 4 4.00001 4.44772 4 5V13L4.00488 13.1025C4.05302 13.5752 4.43066 13.9501 4.9043 13.9951L5 14V16L4.70312 15.9854C3.23609 15.8412 2.07921 14.6405 2.00391 13.1543L2 13V5C2.00001 3.34315 3.34315 2 5 2H15Z" fill="#000000"/>
</svg>
