<svg xmlns="http://www.w3.org/2000/svg" width="20" height="20" viewBox="0 0 20 20" fill="none"><rect width="20" height="20" fill="none"/>
<path d="M10 5.25C11.5188 5.25 12.75 6.48122 12.75 8C12.75 9.51878 11.5188 10.75 10 10.75C8.48122 10.75 7.25 9.51878 7.25 8C7.25 6.48122 8.48122 5.25 10 5.25ZM10 6.75C9.30964 6.75 8.75 7.30964 8.75 8C8.75 8.69036 9.30964 9.25 10 9.25C10.6904 9.25 11.25 8.69036 11.25 8C11.25 7.30964 10.6904 6.75 10 6.75Z" fill="#000000"/>
<path d="M14.5 2.5C16.1567 2.50013 17.5 3.84323 17.5 5.5V14.5C17.5 16.1568 16.1567 17.4999 14.5 17.5H5.5C3.84315 17.5 2.5 16.1569 2.5 14.5V5.5C2.5 3.84315 3.84315 2.5 5.5 2.5H14.5ZM10 13.75C9.24477 13.75 8.40124 13.937 7.77148 14.3545C7.24822 14.7014 6.85493 15.2142 6.76855 16H13.25C13.25 15.3305 12.8804 14.7902 12.2402 14.3828C11.5881 13.9678 10.731 13.75 10 13.75ZM5.5 4C4.67157 4 4 4.67157 4 5.5V14.5C4 15.248 4.54756 15.8661 5.26367 15.9795C5.36564 14.6458 6.0428 13.701 6.94238 13.1045C7.88406 12.4803 9.04094 12.25 10 12.25C10.9833 12.25 12.1266 12.5322 13.0459 13.1172C13.9717 13.7064 14.7404 14.6589 14.749 15.9775C15.4587 15.8587 16 15.2434 16 14.5V5.5C16 4.67165 15.3283 4.00013 14.5 4H5.5Z" fill="#000000"/>
</svg>
