<svg xmlns="http://www.w3.org/2000/svg" width="24" height="24" viewBox="0 0 24 24" fill="none"><rect width="24" height="24" fill="none"/>
<path d="M23 15C23 15 23 21.5 18 23C13 21.5 13 15 13 15L18 13L23 15ZM15.1387 16.2988C15.216 16.7449 15.3343 17.2591 15.5156 17.7852C15.97 19.1029 16.7238 20.2665 18 20.8643C19.2762 20.2665 20.03 19.1029 20.4844 17.7852C20.6657 17.2592 20.783 16.7449 20.8604 16.2988L18 15.1543L15.1387 16.2988Z" fill="#000000"/>
<path d="M21 7.94531V11H19V9.05371L12 4.67871L5 9.05371V19H11V21H3V7.94531L12 2.32031L21 7.94531Z" fill="#000000"/>
</svg>
