<svg xmlns="http://www.w3.org/2000/svg" width="20" height="20" viewBox="0 0 20 20" fill="none"><rect width="20" height="20" fill="none"/>
<path d="M15.4619 10.5002C15.6724 10.5002 15.8565 10.6464 15.9092 10.8547L16.0801 11.5334C16.5095 11.6841 16.8998 11.923 17.2295 12.2278L17.9658 12.0188C18.1662 11.962 18.3798 12.0491 18.4863 12.2317L18.9346 13.0022C19.0456 13.1928 19.0118 13.4364 18.8535 13.5881L18.2725 14.1448C18.307 14.3411 18.3252 14.5438 18.3252 14.7502C18.3252 14.9568 18.307 15.1593 18.2725 15.3557L18.8535 15.9123C19.0119 16.064 19.0456 16.3086 18.9346 16.4993L18.4863 17.2688C18.3798 17.4515 18.1663 17.5395 17.9658 17.4827L17.2295 17.2737C16.8998 17.5785 16.5095 17.8163 16.0801 17.967L15.9092 18.6457C15.8566 18.8542 15.6725 19.0002 15.4619 19.0002H14.5381C14.3276 19.0002 14.1434 18.8542 14.0908 18.6457L13.9199 17.9661C13.4912 17.8152 13.1017 17.5772 12.7725 17.2727L12.0342 17.4827C11.8337 17.5395 11.6202 17.4515 11.5137 17.2688L11.0654 16.4993C10.9544 16.3086 10.9881 16.064 11.1465 15.9123L11.7295 15.3538C11.6952 15.158 11.6768 14.9561 11.6768 14.7502C11.6768 14.5444 11.6952 14.3425 11.7295 14.1467L11.1465 13.5881C10.9882 13.4364 10.9544 13.1928 11.0654 13.0022L11.5137 12.2317C11.6202 12.0491 11.8338 11.962 12.0342 12.0188L12.7725 12.2278C13.1017 11.9234 13.4912 11.6852 13.9199 11.5344L14.0908 10.8547C14.1435 10.6464 14.3276 10.5003 14.5381 10.5002H15.4619ZM15.001 13.4739C14.3119 13.4739 13.7532 14.0455 13.7529 14.7502C13.7529 15.4552 14.3117 16.0266 15.001 16.0266C15.6902 16.0265 16.249 15.4552 16.249 14.7502C16.2487 14.0456 15.69 13.4739 15.001 13.4739Z" fill="#000000"/>
<path d="M7.37402 2.21996C7.61046 2.03052 7.92101 1.95807 8.2168 2.02367L18 4.19848V8.00121H16V5.80199L9 4.24633V18.0002H2V9.00023L7 7.57152V3.00023C7.00028 2.69733 7.13777 2.40957 7.37402 2.21996ZM4 10.508V16.0002H7V9.6516L4 10.508Z" fill="#000000"/>
</svg>
