<svg xmlns="http://www.w3.org/2000/svg" width="20" height="20" viewBox="0 0 20 20" fill="none"><rect width="20" height="20" fill="none"/>
<path d="M10.2002 2C12.5318 2.0002 14.5231 3.45174 15.3232 5.5H16.999V7H15.6758C15.6906 7.16472 15.7002 7.33141 15.7002 7.5C15.7002 7.66859 15.6906 7.83528 15.6758 8H16.999V9.5H15.3232C14.5231 11.5483 12.5318 12.9998 10.2002 13H6.5V18H5V9.5H2.99902V8H5V7H2.99902V5.5H5V2H10.2002ZM6.5 11.5H10.2002C11.6803 11.4998 12.9715 10.6951 13.6631 9.5H6.5V11.5ZM6.5 8H14.167C14.1874 7.83613 14.2002 7.66941 14.2002 7.5C14.2002 7.33059 14.1874 7.16387 14.167 7H6.5V8ZM6.5 5.5H13.6631C12.9715 4.30489 11.6803 3.50018 10.2002 3.5H6.5V5.5Z" fill="#000000"/>
</svg>
