<svg xmlns="http://www.w3.org/2000/svg" width="20" height="20" viewBox="0 0 20 20" fill="none"><rect width="20" height="20" fill="none"/>
<path d="M18 16.5002H2.00005V15.0002H18V16.5002Z" fill="#000000"/>
<path d="M13.9434 2.75211C14.1508 2.73646 14.3559 2.80839 14.5088 2.94938L18 6.17203V13.0002H2.50005C2.20622 13.0001 1.93926 12.8281 1.81743 12.5607C1.69609 12.2935 1.74115 11.9795 1.93364 11.758L7.4063 5.465L9.88286 7.44547L13.4141 3.03141L13.4659 2.97379C13.5924 2.84544 13.762 2.76586 13.9434 2.75211ZM10.1172 9.55387L9.5313 9.08609L7.59282 7.53531L4.14653 11.5002H16.5V6.82828L14.0831 4.59684L10.1172 9.55387Z" fill="#000000"/>
</svg>
