<svg xmlns="http://www.w3.org/2000/svg" width="20" height="20" viewBox="0 0 20 20" fill="none"><rect width="20" height="20" fill="none"/>
<path d="M4.25 3.5H3.5V6.5C3.5 7.88071 4.61929 9 6 9C7.38071 9 8.5 7.88071 8.5 6.5V3.5H7.75V2H10V6.5C10 8.45272 8.60055 10.0776 6.75 10.4287V12.75C6.75 14.8211 8.42893 16.5 10.5 16.5C12.5711 16.5 14.25 14.8211 14.25 12.75V11.9014C12.9566 11.568 12 10.3975 12 9C12 7.34315 13.3431 6 15 6C16.6569 6 18 7.34315 18 9C18 10.3975 17.0434 11.568 15.75 11.9014V12.75C15.75 15.6495 13.3995 18 10.5 18C7.60051 18 5.25 15.6495 5.25 12.75V10.4287C3.39945 10.0776 2 8.45272 2 6.5V2H4.25V3.5ZM15 7.5C14.1716 7.5 13.5 8.17157 13.5 9C13.5 9.82843 14.1716 10.5 15 10.5C15.8284 10.5 16.5 9.82843 16.5 9C16.5 8.17157 15.8284 7.5 15 7.5Z" fill="#000000"/>
</svg>
