<svg xmlns="http://www.w3.org/2000/svg" width="20" height="20" viewBox="0 0 20 20" fill="none"><rect width="20" height="20" fill="none"/>
<path d="M14 12.4498H6V10.9498H14V12.4498Z" fill="#000000"/>
<path d="M11 9.04936H6V7.54936H11V9.04936Z" fill="#000000"/>
<path d="M8.51172 1.98589C9.43383 1.45913 10.5662 1.45913 11.4883 1.98589L16.2383 4.70073C17.1728 5.23484 17.7499 6.22883 17.75 7.30522V12.6939C17.7498 13.7702 17.1728 14.7643 16.2383 15.2984L11.4883 18.0132C10.5662 18.5399 9.43378 18.5399 8.51172 18.0132L3.76172 15.2984C2.82719 14.7643 2.25018 13.7702 2.25 12.6939V7.30522C2.2501 6.22883 2.82718 5.23484 3.76172 4.70073L8.51172 1.98589ZM10.7441 3.28862C10.2831 3.02522 9.71693 3.02522 9.25586 3.28862L4.50586 6.00249C4.03869 6.26953 3.7501 6.76712 3.75 7.30522V12.6939C3.75018 13.232 4.0387 13.7296 4.50586 13.9966L9.25586 16.7105C9.71688 16.9738 10.2831 16.9738 10.7441 16.7105L15.4941 13.9966C15.9613 13.7296 16.2498 13.232 16.25 12.6939V7.30522C16.2499 6.76712 15.9613 6.26953 15.4941 6.00249L10.7441 3.28862Z" fill="#000000"/>
</svg>
