<svg xmlns="http://www.w3.org/2000/svg" width="20" height="20" viewBox="0 0 20 20" fill="none"><rect width="20" height="20" fill="none"/>
<path d="M10 2C14.4183 2 18 5.58172 18 10C18 14.4183 14.4183 18 10 18C5.58172 18 2 14.4183 2 10C2 5.58172 5.58172 2 10 2ZM7.76562 10.75C7.84047 12.501 8.17483 13.8771 8.61719 14.8232C9.14824 15.9589 9.7089 16.25 10 16.25C10.2911 16.25 10.8518 15.9589 11.3828 14.8232C11.8252 13.8771 12.1595 12.501 12.2344 10.75H7.76562ZM3.54395 10.75C3.81949 13.1479 5.39937 15.1475 7.55664 16.0234C7.44921 15.8426 7.34917 15.6534 7.25781 15.458C6.70662 14.2789 6.34026 12.6774 6.26465 10.75H3.54395ZM13.7354 10.75C13.6597 12.6774 13.2934 14.2789 12.7422 15.458C12.6508 15.6536 12.5499 15.8425 12.4424 16.0234C14.6001 15.1477 16.1805 13.1482 16.4561 10.75H13.7354ZM7.55664 3.97559C5.3992 4.85146 3.8195 6.85199 3.54395 9.25H6.26465C6.34026 7.32259 6.70662 5.72109 7.25781 4.54199C7.34929 4.34633 7.44905 4.15662 7.55664 3.97559ZM10 3.75C9.7089 3.75 9.14824 4.04107 8.61719 5.17676C8.17483 6.12291 7.84047 7.49899 7.76562 9.25H12.2344C12.1595 7.49899 11.8252 6.12291 11.3828 5.17676C10.8518 4.04107 10.2911 3.75 10 3.75ZM12.4424 3.97559C12.5501 4.15675 12.6506 4.34618 12.7422 4.54199C13.2934 5.72109 13.6597 7.32259 13.7354 9.25H16.4561C16.1805 6.85168 14.6003 4.85128 12.4424 3.97559Z" fill="#000000"/>
</svg>
