<svg xmlns="http://www.w3.org/2000/svg" width="20" height="20" viewBox="0 0 20 20" fill="none"><rect width="20" height="20" fill="none"/>
<path d="M13 10.4988C13.8284 10.4988 14.5 11.1704 14.5 11.9988C14.4998 12.8271 13.8283 13.4988 13 13.4988C12.1717 13.4988 11.5002 12.8271 11.5 11.9988C11.5 11.1704 12.1716 10.4988 13 10.4988Z" fill="#000000"/>
<path d="M10.7588 2.37384C12.7451 1.4711 15 2.92347 15 5.10529V5.99884C16.6569 5.99884 18 7.34199 18 8.99884V14.9988C17.9998 16.6555 16.6567 17.9988 15 17.9988H5C3.34327 17.9988 2.00019 16.6555 2 14.9988V8.28693C2 7.11055 2.68788 6.04232 3.75879 5.55548L10.7588 2.37384ZM5 7.99884C4.44772 7.99884 4 8.44656 4 8.99884V14.9988C4.00019 15.551 4.44784 15.9988 5 15.9988H15C15.5522 15.9988 15.9998 15.551 16 14.9988V8.99884C16 8.44656 15.5523 7.99884 15 7.99884H5ZM13 5.10529C13 4.378 12.248 3.8932 11.5859 4.19416L7.61621 5.99884H13V5.10529Z" fill="#000000"/>
</svg>
