<svg xmlns="http://www.w3.org/2000/svg" width="24" height="24" viewBox="0 0 24 24" fill="none"><rect width="24" height="24" fill="none"/>
<path d="M22 21.0004H1.99995V19.0004H22V21.0004Z" fill="#000000"/>
<path d="M16.9726 3.00037C17.2858 2.99184 17.5855 3.1307 17.7812 3.37537L21.7812 8.37537L22 8.64979V17.0004H2.99995C2.61585 17.0002 2.26514 16.7801 2.09859 16.434C1.93214 16.0877 1.97884 15.6755 2.2187 15.3754L8.8564 7.07947L11.8125 9.54139L16.1865 3.41932L16.2597 3.3285C16.4416 3.12804 16.6987 3.00796 16.9726 3.00037ZM12.1875 12.4584L9.14351 9.92225L5.08101 15.0004H20V9.35193L17.0439 5.6576L12.1875 12.4584Z" fill="#000000"/>
</svg>
