<svg xmlns="http://www.w3.org/2000/svg" width="24" height="24" viewBox="0 0 24 24" fill="none"><rect width="24" height="24" fill="none"/>
<path d="M13.3034 5H17.0007C18.6574 5.00022 20.0007 6.34328 20.0007 8V9.0127C21.1502 9.13763 21.9748 10.2282 21.7419 11.3926L20.3025 18.5879C20.022 19.99 18.7909 20.9998 17.3611 21H6.64036C5.21034 21 3.97944 19.9901 3.69896 18.5879L2.2595 11.3926C2.02657 10.2279 2.85083 9.13725 4.00071 9.0127V6C4.00071 4.34318 5.3439 3.00005 7.00071 3H10.3034L13.3034 5ZM5.65989 18.1963C5.75348 18.6636 6.16377 19 6.64036 19H17.3611C17.8375 18.9998 18.248 18.6635 18.3415 18.1963L19.781 11H4.22044L5.65989 18.1963ZM7.00071 5C6.44847 5.00005 6.00071 5.44775 6.00071 6V9H18.0007V8C18.0007 7.44785 17.5528 7.00022 17.0007 7H12.698L9.69798 5H7.00071Z" fill="#000000"/>
</svg>
