<svg xmlns="http://www.w3.org/2000/svg" width="20" height="20" viewBox="0 0 20 20" fill="none"><rect width="20" height="20" fill="none"/>
<path d="M7.02998 9.0321L6.02998 10.0311C4.94266 11.1188 4.94279 12.8828 6.02998 13.9706C7.1176 15.0581 8.88164 15.0579 9.96943 13.9706C10.3234 13.6167 10.6691 13.271 10.9694 12.9706L12.03 14.0321C11.7296 14.3325 11.3839 14.6782 11.03 15.0321C9.35644 16.7049 6.64279 16.7052 4.96943 15.0321C3.29605 13.3586 3.29619 10.6442 4.96943 8.97058L5.96943 7.97058L7.02998 9.0321Z" fill="#000000"/>
<path d="M12.03 9.03113L9.02998 12.0311L7.96943 10.9706L10.9694 7.97058L12.03 9.03113Z" fill="#000000"/>
<path d="M8.96943 4.9696C10.6429 3.29655 13.3565 3.29663 15.03 4.9696C16.7037 6.6432 16.7037 9.35745 15.03 11.0311L14.03 12.0311L12.9694 10.9696L13.9694 9.97058C15.0572 8.88283 15.057 7.11897 13.9694 6.03113C12.8817 4.94375 11.1177 4.94357 10.03 6.03113C9.67604 6.38503 9.33034 6.73077 9.02998 7.03113L7.96943 5.9696C8.26983 5.6692 8.61549 5.32351 8.96943 4.9696Z" fill="#000000"/>
</svg>
