<svg xmlns="http://www.w3.org/2000/svg" width="20" height="20" viewBox="0 0 20 20" fill="none"><rect width="20" height="20" fill="none"/>
<path d="M10.5 1.75C12.2949 1.75 13.75 3.20507 13.75 5H17V18H3V13.25H4.5C5.4665 13.25 6.25 12.4665 6.25 11.5C6.25 10.5335 5.4665 9.75 4.5 9.75H3V5H7.25C7.25 3.20507 8.70507 1.75 10.5 1.75ZM10.5 3.25C9.5335 3.25 8.75 4.0335 8.75 5V6.5H4.5V8.25C6.29493 8.25 7.75 9.70507 7.75 11.5C7.75 13.2949 6.29493 14.75 4.5 14.75V16.5H15.5V6.5H12.25V5C12.25 4.0335 11.4665 3.25 10.5 3.25Z" fill="#000000"/>
</svg>
