<svg xmlns="http://www.w3.org/2000/svg" width="24" height="24" viewBox="0 0 24 24" fill="none"><rect width="24" height="24" fill="none"/>
<path d="M16.7988 13.5742C18.6764 13.5744 20.1982 15.097 20.1982 16.9746C20.198 18.8521 18.6763 20.3738 16.7988 20.374C14.9212 20.374 13.3986 18.8522 13.3984 16.9746C13.3984 15.0968 14.9211 13.5742 16.7988 13.5742ZM16.7988 15.5742C16.0256 15.5742 15.3984 16.2014 15.3984 16.9746C15.3986 17.7476 16.0258 18.374 16.7988 18.374C17.5717 18.3738 18.198 17.7475 18.1982 16.9746C18.1982 16.2015 17.5718 15.5744 16.7988 15.5742Z" fill="#000000"/>
<path d="M19.7314 5.18262L5.73145 20.1826L4.26855 18.8174L18.2686 3.81738L19.7314 5.18262Z" fill="#000000"/>
<path d="M7.20117 3.97461C9.07876 3.97482 10.6006 5.49736 10.6006 7.375C10.6004 9.25246 9.07863 10.7742 7.20117 10.7744C5.32353 10.7744 3.80099 9.25259 3.80078 7.375C3.80078 5.49723 5.3234 3.97461 7.20117 3.97461ZM7.20117 5.97461C6.42797 5.97461 5.80078 6.6018 5.80078 7.375C5.80099 8.14802 6.4281 8.77441 7.20117 8.77441C7.97406 8.7742 8.60037 8.14789 8.60059 7.375C8.60059 6.60193 7.97419 5.97482 7.20117 5.97461Z" fill="#000000"/>
</svg>
