<svg xmlns="http://www.w3.org/2000/svg" width="24" height="24" viewBox="0 0 24 24" fill="none"><rect width="24" height="24" fill="none"/>
<path d="M13.001 5C13.553 5.00026 14.001 5.44788 14.001 6C14.001 6.55212 13.553 6.99974 13.001 7H11.001C10.4487 7 10.001 6.55228 10.001 6C10.001 5.44772 10.4487 5 11.001 5H13.001Z" fill="#000000"/>
<path d="M15.001 2C17.2099 2.00026 19.001 3.79102 19.001 6V18C19.001 20.209 17.2099 21.9997 15.001 22H9C6.79086 22 5 20.2091 5 18V6C5 3.79086 6.79086 2 9 2H15.001ZM9 4C7.89543 4 7 4.89543 7 6V18C7 19.1046 7.89543 20 9 20H15.001C16.1053 19.9997 17.001 19.1044 17.001 18V6C17.001 4.89559 16.1053 4.00026 15.001 4H9Z" fill="#000000"/>
</svg>
