<svg xmlns="http://www.w3.org/2000/svg" width="24" height="24" viewBox="0 0 24 24" fill="none"><rect width="24" height="24" fill="none"/>
<path d="M16.207 10.2071L11 15.4142L7.79297 12.2071L9.20703 10.7931L11 12.5861L14.793 8.79308L16.207 10.2071Z" fill="#000000"/>
<path d="M10.4688 2.24621C11.4125 1.68616 12.5875 1.68616 13.5312 2.24621L19.5312 5.80871C20.4414 6.34912 20.9998 7.3303 21 8.38878V15.6114C21 16.6701 20.4414 17.651 19.5312 18.1915L13.5312 21.754C12.5873 22.3143 11.4127 22.3143 10.4688 21.754L4.46875 18.1915C3.55856 17.651 3 16.6701 3 15.6114V8.38878C3.00021 7.3303 3.55858 6.34912 4.46875 5.80871L10.4688 2.24621ZM12.5107 3.96593C12.1962 3.77928 11.8038 3.77928 11.4893 3.96593L5.48926 7.52843C5.186 7.7085 5.00021 8.03612 5 8.38878V15.6114C5 15.9642 5.18598 16.2916 5.48926 16.4718L11.4893 20.0343C11.804 20.2212 12.196 20.2212 12.5107 20.0343L18.5107 16.4718C18.814 16.2916 19 15.9642 19 15.6114V8.38878C18.9998 8.03612 18.814 7.7085 18.5107 7.52843L12.5107 3.96593Z" fill="#000000"/>
</svg>
