<svg xmlns="http://www.w3.org/2000/svg" width="24" height="24" viewBox="0 0 24 24" fill="none"><rect width="24" height="24" fill="none"/>
<path d="M18 7C20.2091 7 22 8.79086 22 11V17C22 19.14 20.3194 20.8879 18.2061 20.9951L18 21H6L5.79395 20.9951C3.7488 20.8913 2.10865 19.2512 2.00488 17.2061L2 17V11C2 8.79086 3.79086 7 6 7H18ZM6 9C4.89543 9 4 9.89543 4 11V17C4 18.1046 4.89543 19 6 19H18C19.1046 19 20 18.1046 20 17V11C20 9.89543 19.1046 9 18 9H6Z" fill="#000000"/>
<path d="M16.5 3C17.8059 3 18.9141 3.83532 19.3262 5H4.67383C5.08594 3.83532 6.19415 3 7.5 3H16.5Z" fill="#000000"/>
</svg>
