<svg xmlns="http://www.w3.org/2000/svg" width="20" height="20" viewBox="0 0 20 20" fill="none"><rect width="20" height="20" fill="none"/>
<path d="M14.9999 3.99902V12H16.4999C16.6816 12 16.8493 12.0989 16.9374 12.2578C17.0253 12.4167 17.0198 12.6106 16.9237 12.7646L14.4237 16.7646C14.3323 16.9108 14.1722 17 13.9999 17C13.8492 17 13.7074 16.9322 13.6132 16.8174L13.576 16.7646L11.076 12.7646C10.9799 12.6106 10.9745 12.4167 11.0624 12.2578C11.1505 12.0989 11.3182 12 11.4999 12H12.9999V3.99902H14.9999Z" fill="#000000"/>
<path d="M5.99987 3C6.15059 3.00004 6.29238 3.06783 6.38659 3.18262L6.4237 3.23535L8.9237 7.23535C9.01984 7.38936 9.02528 7.58334 8.93737 7.74219C8.84927 7.9011 8.68157 7.99995 8.49987 8H6.99987V16H4.99987V8H3.49987C3.31817 7.99996 3.15048 7.9011 3.06237 7.74219C2.97446 7.58334 2.9799 7.38936 3.07605 7.23535L5.57605 3.23535C5.6674 3.08922 5.82754 3.00003 5.99987 3Z" fill="#000000"/>
</svg>
