<svg xmlns="http://www.w3.org/2000/svg" width="24" height="24" viewBox="0 0 24 24" fill="none"><rect width="24" height="24" fill="none"/>
<path d="M11.7926 3.29303C13.8399 1.24607 17.1594 1.24608 19.2067 3.29303C21.2538 5.34025 21.2545 8.6597 19.2077 10.7071L12.7067 17.2081C11.4878 18.4264 9.51141 18.4266 8.29261 17.2081C7.07384 15.9893 7.0742 14.013 8.29261 12.794L14.7916 6.29303L16.2067 7.70709L9.70668 14.2081C9.26931 14.646 9.26895 15.3563 9.70668 15.794C10.1444 16.2315 10.8548 16.2313 11.2926 15.794L17.7936 9.29303C19.0594 8.0267 19.0587 5.97326 17.7926 4.70709C16.5263 3.44109 14.4729 3.44184 13.2067 4.70807L6.70765 11.2071C4.61298 13.3018 4.61295 16.6983 6.70765 18.793C8.8024 20.8875 12.1979 20.8867 14.2926 18.7921L16.025 17.0606C17.3443 15.7414 19.134 15.0002 20.9996 15.0001V17.001C19.6644 17.0011 18.3833 17.5305 17.4391 18.4747L15.7067 20.2071C12.8309 23.0824 8.16926 23.0825 5.29359 20.2071C2.41796 17.3314 2.41724 12.6689 5.29261 9.79303L11.7926 3.29303Z" fill="#000000"/>
</svg>
