<svg xmlns="http://www.w3.org/2000/svg" width="20" height="20" viewBox="0 0 20 20" fill="none"><rect width="20" height="20" fill="none"/>
<path d="M18.707 17.293L17.293 18.707L14.7363 16.1504C14.202 16.3746 13.6158 16.5 13 16.5H8V17.5C7.99982 17.6816 7.90102 17.8495 7.74219 17.9375C7.58343 18.0253 7.38928 18.0198 7.23535 17.9238L3.23535 15.4238C3.0893 15.3325 3.00017 15.1722 3 15C3 14.8277 3.0893 14.6676 3.23535 14.5762L7.23535 12.0762C7.38938 11.98 7.58331 11.9746 7.74219 12.0625C7.90104 12.1506 8 12.3183 8 12.5V13.5H12.0859L5.75195 7.16602C5.59237 7.40438 5.5 7.69161 5.5 8V10H2.5V8C2.5 6.8629 2.92267 5.82473 3.61816 5.03223L1.29297 2.70703L2.70703 1.29297L18.707 17.293Z" fill="#000000"/>
<path d="M17.5 12C17.4999 12.4785 17.4245 12.9395 17.2861 13.3721L14.5 10.5859V10H17.5V12Z" fill="#000000"/>
<path d="M12.2578 2.0625C12.4167 1.97455 12.6106 1.97999 12.7646 2.07617L16.7646 4.57617C16.9107 4.66756 17 4.82769 17 5C16.9998 5.1722 16.9107 5.33255 16.7646 5.42383L12.7646 7.92383C12.6107 8.01983 12.4166 8.02528 12.2578 7.9375C12.099 7.84947 12.0002 7.68157 12 7.5V6.5H10.4141L7.41406 3.5H12V2.5C12 2.31832 12.099 2.15064 12.2578 2.0625Z" fill="#000000"/>
</svg>
