<svg xmlns="http://www.w3.org/2000/svg" width="24" height="24" viewBox="0 0 24 24" fill="none"><rect width="24" height="24" fill="none"/>
<path d="M22.211 15.207L15.211 22.207L13.797 20.793L20.797 13.793L22.211 15.207Z" fill="#000000"/>
<path d="M12.0001 8.5C12.9891 8.5 13.994 8.65521 15.0948 8.97754L15.8536 9.23047C17.4241 9.754 18.6933 10.8992 19.3858 12.375L18.3282 13.4336C17.6913 12.5648 16.6638 12 15.504 12C13.5712 12.0003 12.004 13.5672 12.004 15.5C12.004 16.6597 12.5688 17.6873 13.4376 18.3242L10.9688 20.793L12.1759 22H8.37606C5.02749 21.9993 2.62507 18.771 3.58699 15.5635L4.29696 13.1982C4.85801 11.3286 6.29392 9.84814 8.14559 9.23047L8.89559 8.97949C10.0001 8.65522 11.0082 8.50007 12.0001 8.5Z" fill="#000000"/>
<path d="M20.504 19C21.3324 19 22.0039 19.6716 22.004 20.5C22.004 21.3284 21.3324 22 20.504 22C19.6757 21.9998 19.004 21.3283 19.004 20.5C19.004 19.6717 19.6758 19.0002 20.504 19Z" fill="#000000"/>
<path d="M15.504 14C16.3324 14 17.0039 14.6716 17.004 15.5C17.004 16.3284 16.3324 17 15.504 17C14.6757 16.9998 14.004 16.3283 14.004 15.5C14.004 14.6717 14.6758 14.0002 15.504 14Z" fill="#000000"/>
<path d="M12.0001 2C13.2261 2 14.3908 2.45228 15.1973 2.85547C15.6106 3.0621 15.9553 3.26922 16.1973 3.4248C16.3181 3.50246 16.4153 3.56849 16.4835 3.61621C16.5173 3.63988 16.545 3.65968 16.5645 3.67383C16.574 3.68068 16.5821 3.68705 16.588 3.69141C16.5906 3.69335 16.5938 3.69497 16.5958 3.69629L16.5977 3.69824L16.5997 3.69922C16.5964 3.70409 16.5524 3.76358 16.0001 4.5L16.5997 3.69922C16.8233 3.86691 16.9671 4.12137 16.9952 4.39941C17.0232 4.67765 16.9329 4.95505 16.7472 5.16406L15.1807 6.9248C14.1013 6.64491 13.0563 6.5 12.0001 6.5C10.9436 6.50006 9.89824 6.64471 8.81844 6.9248L7.25301 5.16406C7.06752 4.95512 6.97699 4.67743 7.00496 4.39941C7.03305 4.12154 7.17716 3.86791 7.40047 3.7002L8.00008 4.5C7.41143 3.71495 7.40047 3.7002 7.40047 3.7002L7.40438 3.69629C7.4062 3.69493 7.40945 3.69332 7.41219 3.69141C7.41799 3.68713 7.42617 3.68071 7.43563 3.67383C7.45505 3.65973 7.4828 3.63993 7.51668 3.61621C7.58477 3.56856 7.68194 3.50252 7.80281 3.4248C8.04476 3.2693 8.38956 3.06212 8.80281 2.85547C9.6092 2.45232 10.7741 2.0003 12.0001 2Z" fill="#000000"/>
</svg>
