<svg xmlns="http://www.w3.org/2000/svg" width="20" height="20" viewBox="0 0 20 20" fill="none"><rect width="20" height="20" fill="none"/>
<path d="M14.6543 2.50391C16.1883 2.58163 17.4184 3.81166 17.4961 5.3457L17.5 5.5V14.5C17.5 16.1569 16.1569 17.5 14.5 17.5H5.5C3.84315 17.5 2.5 16.1569 2.5 14.5V5.5C2.5 3.8949 3.76056 2.58421 5.3457 2.50391L5.5 2.5H14.5L14.6543 2.50391ZM4 14.5C4 15.3284 4.67157 16 5.5 16H6.5V8H4V14.5ZM8 16H14.5C15.3284 16 16 15.3284 16 14.5V8H8V16ZM5.5 4C4.67157 4 4 4.67157 4 5.5V6.5H6.5V4H5.5ZM8 6.5H16V5.5C16 4.67157 15.3284 4 14.5 4H8V6.5Z" fill="#000000"/>
</svg>
