<svg xmlns="http://www.w3.org/2000/svg" width="20" height="20" viewBox="0 0 20 20" fill="none"><rect width="20" height="20" fill="none"/>
<path d="M18.707 17.293L17.293 18.707L13.3232 14.7373L12.6807 15.3799L12.2217 15.1963C10.8458 14.6459 9.58593 13.8762 8.48438 12.9287L3.70703 17.707L2.29297 16.293L7.07031 11.5146C6.12329 10.4133 5.3539 9.15374 4.80371 7.77832L4.62012 7.31934L5.2627 6.67676L1.29297 2.70703L2.70703 1.29297L18.707 17.293Z" fill="#000000"/>
<path d="M15.0459 1.93457C16.3524 2.58765 17.4122 3.64675 18.0654 4.95312L18.3818 5.58691L16.4336 8.09277C15.744 8.9796 15.2539 9.99579 14.9863 11.0723L8.92676 5.0127C10.0035 4.7452 11.0202 4.25624 11.9072 3.56641L14.4121 1.61816L15.0459 1.93457Z" fill="#000000"/>
</svg>
