<svg xmlns="http://www.w3.org/2000/svg" width="24" height="24" viewBox="0 0 24 24" fill="none"><rect width="24" height="24" fill="none"/>
<path d="M11.9999 4C12.3036 4.00007 12.5915 4.13784 12.7812 4.375L16.2079 8.6582L19.9452 6.16797C20.2706 5.95111 20.6926 5.94392 21.0253 6.14941C21.358 6.3551 21.5406 6.73591 21.4921 7.12402L19.8827 20H4.11711L2.50774 7.12402C2.45922 6.73584 2.64176 6.35508 2.97454 6.14941C3.30726 5.94398 3.72923 5.95105 4.05461 6.16797L7.79094 8.6582L11.2187 4.375L11.2948 4.29102C11.4811 4.10582 11.7342 4 11.9999 4ZM8.78118 10.625C8.45718 11.03 7.87681 11.1196 7.44524 10.832L4.76262 9.04395L5.88274 18H18.1171L19.2363 9.04395L16.5546 10.832C16.1231 11.1197 15.5427 11.03 15.2187 10.625L11.9999 6.60156L8.78118 10.625Z" fill="#000000"/>
</svg>
