<svg xmlns="http://www.w3.org/2000/svg" width="24" height="24" viewBox="0 0 24 24" fill="none"><rect width="24" height="24" fill="none"/>
<path d="M14 11H10V9H14V11Z" fill="#000000"/>
<path d="M16 8H10V6H16V8Z" fill="#000000"/>
<path d="M21 18.001C20.9999 20.2104 19.2087 22 17 22H6C3.79086 22 2 20.2091 2 18C2 15.86 3.68056 14.1121 5.79395 14.0049L6 14V2H21V18.001ZM6 16C4.89543 16 4 16.8954 4 18C4 19.1046 4.89543 20 6 20H11.5361C11.1956 19.4116 11 18.7288 11 18C11 17.2712 11.1956 16.5884 11.5361 16H6ZM8 14H16.0762V16H15C13.8954 16 13 16.8954 13 18C13 19.1046 13.8954 20 15 20H17C18.1049 20 18.9999 19.1051 19 18.001C19 13.4799 19.0001 8.27874 19 4H8V14Z" fill="#000000"/>
</svg>
