<svg xmlns="http://www.w3.org/2000/svg" width="20" height="20" viewBox="0 0 20 20" fill="none"><rect width="20" height="20" fill="none"/>
<path d="M15 2C16.6569 2 18 3.34315 18 5V11C18 12.6569 16.6569 14 15 14H14V15C14 16.6569 12.6569 18 11 18H5C3.34315 18 2 16.6569 2 15V9C2 7.34315 3.34315 6 5 6H6V5C6 3.34315 7.34315 2 9 2H15ZM5 8C4.44772 8 4 8.44772 4 9V15C4 15.5523 4.44772 16 5 16H11C11.5523 16 12 15.5523 12 15V14H9C7.34315 14 6 12.6569 6 11V8H5ZM9 4C8.44772 4 8 4.44772 8 5V11C8 11.5523 8.44772 12 9 12H15C15.5523 12 16 11.5523 16 11V5C16 4.44772 15.5523 4 15 4H9Z" fill="#000000"/>
</svg>
