<svg xmlns="http://www.w3.org/2000/svg" width="20" height="20" viewBox="0 0 20 20" fill="none"><rect width="20" height="20" fill="none"/>
<path d="M9.9998 2C12.7612 2 14.9998 4.23858 14.9998 7C15.3546 7 15.6826 7.18813 15.8621 7.49414C16.0416 7.8002 16.046 8.17863 15.8728 8.48828L10.8367 17.4883C10.6594 17.8052 10.3239 18.0011 9.96074 18C9.5978 17.9989 9.26413 17.8011 9.08867 17.4834L4.12382 8.4834C3.95296 8.17362 3.9586 7.79584 4.13847 7.49121C4.29593 7.22465 4.56667 7.04861 4.86894 7.00879L4.9998 7C4.9998 4.23858 7.23838 2 9.9998 2ZM9.9705 14.9414L13.2937 9H6.69414L9.9705 14.9414ZM9.9998 4C8.34295 4 6.9998 5.34315 6.9998 7H12.9998C12.9998 5.34315 11.6567 4 9.9998 4Z" fill="#000000"/>
</svg>
