<svg xmlns="http://www.w3.org/2000/svg" width="24" height="24" viewBox="0 0 24 24" fill="none"><rect width="24" height="24" fill="none"/>
<path d="M12 2C17.2778 2 21.5975 6.08885 21.9707 11.2715C18.7239 16.2877 16.2877 18.7239 11.2715 21.9707C6.08885 21.5975 2 17.2778 2 12C2 6.47715 6.47715 2 12 2ZM19 11C14.5817 11 11 14.5817 11 19C11 19.245 11.0114 19.4873 11.0332 19.7266C14.9624 17.0946 17.0929 14.9644 19.7246 11.0361C19.4859 11.0145 19.2444 11 19 11ZM12 4C7.58172 4 4 7.58172 4 12C4 15.3594 6.07289 18.2315 9.00879 19.415C9.00311 19.2774 9 19.139 9 19C9 13.4772 13.4772 9 19 9C19.1394 9 19.2781 9.00296 19.416 9.00879C18.2326 6.07271 15.3595 4 12 4Z" fill="#000000"/>
</svg>
