<svg xmlns="http://www.w3.org/2000/svg" width="24" height="24" viewBox="0 0 24 24" fill="none"><rect width="24" height="24" fill="none"/>
<path d="M22.6504 21.2412L21.3496 22.7588L18.5 20.3154L15.6504 22.7588L14.3496 21.2412L18.5 17.6826L22.6504 21.2412Z" fill="#000000"/>
<path d="M22 12H20V10L17 7H4V14L7 17H13V19H2V5H22V12Z" fill="#000000"/>
<path d="M22.7852 16.7412L21.4834 18.2588L18.6338 15.8164L15.7852 18.2588L14.4834 16.7412L18.6338 13.1826L22.7852 16.7412Z" fill="#000000"/>
<path d="M12 9C13.6569 9 15 10.3431 15 12C15 13.6569 13.6569 15 12 15C10.3431 15 9 13.6569 9 12C9 10.3431 10.3431 9 12 9ZM12 11C11.4477 11 11 11.4477 11 12C11 12.5523 11.4477 13 12 13C12.5523 13 13 12.5523 13 12C13 11.4477 12.5523 11 12 11Z" fill="#000000"/>
</svg>
