<svg xmlns="http://www.w3.org/2000/svg" width="24" height="24" viewBox="0 0 24 24" fill="none"><rect width="24" height="24" fill="none"/>
<path d="M20 14C21.6569 14 23 15.3431 23 17C23 18.6569 21.6569 20 20 20H19V21H21V22H19V23H17V22H16V21H17V20H16V18H17V14H20ZM19 18H20C20.5523 18 21 17.5523 21 17C21 16.4477 20.5523 16 20 16H19V18Z" fill="#000000"/>
<path d="M9 4H15V2H17V4C19.2091 4 21 5.79086 21 8V12H19V10H5V17C5 18.1046 5.89543 19 7 19H14V21H7C4.79086 21 3 19.2091 3 17V8C3 5.79086 4.79086 4 7 4V2H9V4ZM7 6C5.89543 6 5 6.89543 5 8H19C19 6.89543 18.1046 6 17 6H7Z" fill="#000000"/>
</svg>
