<svg xmlns="http://www.w3.org/2000/svg" width="20" height="20" viewBox="0 0 20 20" fill="none"><rect width="20" height="20" fill="none"/>
<path d="M15 5C16.6569 5 18 6.34315 18 8V15C18 16.6569 16.6569 18 15 18H5C3.34315 18 2 16.6569 2 15V8C2 6.34315 3.34315 5 5 5V6.5C4.17157 6.5 3.5 7.17157 3.5 8V15C3.5 15.8284 4.17157 16.5 5 16.5H15C15.8284 16.5 16.5 15.8284 16.5 15V8C16.5 7.17157 15.8284 6.5 15 6.5V5Z" fill="#000000"/>
<path d="M10 2C10.1723 2.00011 10.3325 2.08925 10.4238 2.23535L12.9238 6.23535C13.0199 6.38932 13.0253 6.58339 12.9375 6.74219C12.8494 6.90107 12.6816 6.99988 12.5 7H10.75V12H9.25V7H7.5C7.31829 7 7.15063 6.90108 7.0625 6.74219C6.97455 6.58331 6.97999 6.38938 7.07617 6.23535L9.57617 2.23535C9.66756 2.08925 9.82766 2 10 2Z" fill="#000000"/>
</svg>
