<svg xmlns="http://www.w3.org/2000/svg" width="20" height="20" viewBox="0 0 20 20" fill="none"><rect width="20" height="20" fill="none"/>
<path d="M10.4696 10.4697C10.6775 10.2621 10.9884 10.1948 11.2635 10.2979L19.2635 13.2979C19.5498 13.4056 19.7427 13.6766 19.7499 13.9824C19.7569 14.2883 19.5768 14.5686 19.2958 14.6895L16.0712 16.0713L14.6893 19.2959C14.5686 19.577 14.2881 19.7569 13.9823 19.75C13.6765 19.7427 13.4053 19.55 13.2977 19.2637L10.2977 11.2637C10.1946 10.9884 10.2619 10.6777 10.4696 10.4697ZM14.0458 16.9873L14.9296 14.9287L16.9872 14.0459L12.2811 12.2812L14.0458 16.9873Z" fill="#000000"/>
<path d="M9.99596 2C10.9997 2.00002 11.9731 2.28382 12.6698 2.54883C13.023 2.68325 13.3192 2.81824 13.5272 2.91992C13.6308 2.97057 13.7141 3.01395 13.7723 3.04492C13.8008 3.06008 13.8243 3.073 13.8407 3.08203C13.8484 3.08632 13.8563 3.09009 13.8612 3.09277C13.8632 3.09389 13.8671 3.09668 13.8671 3.09668L13.869 3.09766L13.87 3.09863C14.0691 3.21226 14.2057 3.41102 14.2401 3.6377C14.2744 3.86434 14.2032 4.09416 14.0467 4.26172L11.244 7.2627L13.9208 8.53711C14.194 8.66722 14.4513 8.82361 14.6913 9H11.4051L9.99889 8.33008L6.72154 9.8916C5.87073 10.2972 5.23696 11.0524 4.98619 11.9609L4.51939 13.6514C4.12442 15.0836 5.2028 16.4991 6.68834 16.5H9.99889V18H6.68834C4.21196 17.9991 2.41569 15.6404 3.07408 13.2529L3.5399 11.5625C3.90639 10.2341 4.83305 9.12983 6.07701 8.53711L8.74986 7.26367L5.95006 4.26172C5.79424 4.09428 5.72349 3.86387 5.75768 3.6377C5.79194 3.41155 5.92847 3.21247 6.12682 3.09863L6.12975 3.09668C6.12975 3.09668 6.13361 3.0948 6.1356 3.09375C6.14024 3.09114 6.1475 3.08723 6.15514 3.08301C6.17139 3.074 6.19578 3.06122 6.22447 3.0459C6.28243 3.01495 6.3652 2.97066 6.46861 2.91992C6.67598 2.81822 6.97139 2.68337 7.32408 2.54883C8.01945 2.28366 8.99186 2.0002 9.99596 2ZM9.99596 3.5C9.25111 3.5002 8.47341 3.71658 7.85826 3.95117C7.82249 3.96485 7.78711 3.98054 7.75279 3.99414L9.99596 6.40039L12.243 3.99414C12.2084 3.98044 12.1727 3.9649 12.1366 3.95117C11.5196 3.71648 10.7409 3.50002 9.99596 3.5Z" fill="#000000"/>
</svg>
