<svg xmlns="http://www.w3.org/2000/svg" width="24" height="24" viewBox="0 0 24 24" fill="none"><rect width="24" height="24" fill="none"/>
<path d="M11 16H9V9H11V16Z" fill="#000000"/>
<path d="M15 16H13V9H15V16Z" fill="#000000"/>
<path d="M13 3.51074C14.6897 3.54285 16.3163 3.64836 17.583 3.75391C18.3416 3.81712 18.975 3.88017 19.4189 3.92773C19.6406 3.95148 19.8165 3.97135 19.9365 3.98535C19.996 3.99229 20.0427 3.99814 20.0742 4.00195C20.0895 4.00379 20.1021 4.00486 20.1104 4.00586C20.1141 4.0063 20.118 4.00659 20.1201 4.00684L20.123 4.00781L20.2168 4.02344C20.67 4.12388 21 4.5275 21 5V7.53516L20.2695 8.02246C19.7585 8.36339 19.4319 8.92071 19.3848 9.5332L18.71 18.3066C18.5497 20.3905 16.8116 21.9998 14.7217 22H9.27832C7.18834 21.9998 5.45036 20.3905 5.29004 18.3066L4.61523 9.5332C4.56811 8.92074 4.2414 8.36339 3.73047 8.02246L3 7.53516V5C3 4.49579 3.37571 4.07051 3.87598 4.00781L3.87988 4.00684C3.8821 4.00659 3.88596 4.0063 3.88965 4.00586C3.89791 4.00486 3.91056 4.00379 3.92578 4.00195C3.95728 3.99814 4.00406 3.99229 4.06348 3.98535C4.18348 3.97135 4.35943 3.95148 4.58105 3.92773C5.02501 3.88017 5.65844 3.81712 6.41699 3.75391C7.68359 3.64836 9.31042 3.54285 11 3.51074V2H13V3.51074ZM12 5.5C10.0381 5.50001 8.06752 5.62239 6.58301 5.74609C5.9534 5.79856 5.41249 5.85163 5 5.89453V6.47168C5.9297 7.15983 6.52005 8.21924 6.60938 9.37891L7.28418 18.1533C7.36434 19.1952 8.23341 19.9998 9.27832 20H14.7217C15.7665 19.9998 16.6357 19.1951 16.7158 18.1533L17.3906 9.37891C17.48 8.21921 18.0702 7.15983 19 6.47168V5.89453C18.5875 5.85163 18.0466 5.79857 17.417 5.74609C15.9325 5.62239 13.9619 5.50002 12 5.5Z" fill="#000000"/>
</svg>
