<svg xmlns="http://www.w3.org/2000/svg" width="20" height="20" viewBox="0 0 20 20" fill="none"><rect width="20" height="20" fill="none"/>
<path d="M15.2871 4.54297L15.2861 4.54395C15.5287 4.61652 15.739 4.77876 15.8682 5.00488L18 8.73535V10.001C18 11.6578 16.6569 13.001 15 13.001C13.3431 13.001 12 11.6578 12 10.001V8.73535L13.5068 6.09668L11 5.34473V15.001H14V17.001H6V15.001H9V5.34473L6.49219 6.09668L8 8.73535V10.001C8 11.6578 6.65685 13.001 5 13.001C3.34315 13.001 2 11.6578 2 10.001V8.73535L4.13184 5.00488L4.20508 4.89355C4.3337 4.72518 4.51228 4.60403 4.71289 4.54395L10 2.95703L15.2871 4.54297ZM4 9.26562V10.001C4 10.5533 4.44772 11.001 5 11.001C5.55228 11.001 6 10.5533 6 10.001V9.26562L5 7.51562L4 9.26562ZM14 9.26562V10.001C14 10.5533 14.4477 11.001 15 11.001C15.5523 11.001 16 10.5533 16 10.001V9.26562L15 7.51562L14 9.26562Z" fill="#000000"/>
</svg>
