<svg xmlns="http://www.w3.org/2000/svg" width="20" height="20" viewBox="0 0 20 20" fill="none"><rect width="20" height="20" fill="none"/>
<path d="M18 10H16.5V8L14 5.5H3.5V12L6 14.5H13V12.7998C13.0001 12.6181 13.0989 12.4504 13.2578 12.3623C13.4166 12.2744 13.6107 12.2799 13.7646 12.376L17.7646 14.876C17.9108 14.9673 17.9999 15.1275 18 15.2998C18 15.4722 17.9108 15.6323 17.7646 15.7236L13.7646 18.2236C13.6106 18.3198 13.4167 18.3253 13.2578 18.2373C13.0989 18.1492 13 17.9815 13 17.7998V16H2V4H18V10Z" fill="#000000"/>
<path d="M10 8C11.1046 8 12 8.89543 12 10C12 11.1046 11.1046 12 10 12C8.89543 12 8 11.1046 8 10C8 8.89543 8.89543 8 10 8Z" fill="#000000"/>
</svg>
