<svg xmlns="http://www.w3.org/2000/svg" width="20" height="20" viewBox="0 0 20 20" fill="none"><rect width="20" height="20" fill="none"/>
<path d="M5 12C6.65685 12 8 13.3431 8 15C8 16.6569 6.65685 18 5 18C3.34315 18 2 16.6569 2 15C2 13.3431 3.34315 12 5 12ZM5 14C4.44772 14 4 14.4477 4 15C4 15.5523 4.44772 16 5 16C5.55228 16 6 15.5523 6 15C6 14.4477 5.55228 14 5 14Z" fill="#000000"/>
<path d="M10 6H6.5C5.6718 6.0002 5.00009 6.67177 5 7.5C5 8.3283 5.67174 8.9998 6.5 9H13.5C15.4329 9 16.9999 10.5671 17 12.5C17 14.433 15.433 16 13.5 16H10V14H13.5C14.3284 14 15 13.3284 15 12.5C14.9999 11.6716 14.3284 11 13.5 11H6.5C4.56717 10.9998 3 9.43287 3 7.5C3.00009 5.5672 4.56723 4.0002 6.5 4H10V6Z" fill="#000000"/>
<path d="M15 2C16.6569 2 18 3.34315 18 5C18 6.65685 16.6569 8 15 8C13.3431 8 12 6.65685 12 5C12 3.34315 13.3431 2 15 2ZM15 4C14.4477 4 14 4.44772 14 5C14 5.55228 14.4477 6 15 6C15.5523 6 16 5.55228 16 5C16 4.44772 15.5523 4 15 4Z" fill="#000000"/>
</svg>
