<svg xmlns="http://www.w3.org/2000/svg" width="20" height="20" viewBox="0 0 20 20" fill="none"><rect width="20" height="20" fill="none"/>
<path d="M4 12.25C6.07107 12.25 7.75 13.9289 7.75 16V18H6.25V16C6.25 14.7574 5.24264 13.75 4 13.75H2V12.25H4Z" fill="#000000"/>
<path d="M18 13.75H16C14.7574 13.75 13.75 14.7574 13.75 16V18H12.25V16C12.25 13.9289 13.9289 12.25 16 12.25H18V13.75Z" fill="#000000"/>
<path d="M7.75 4C7.75 6.07107 6.07107 7.75 4 7.75H2V6.25H4C5.24264 6.25 6.25 5.24264 6.25 4V2H7.75V4Z" fill="#000000"/>
<path d="M13.75 4C13.75 5.24264 14.7574 6.25 16 6.25H18V7.75H16C13.9289 7.75 12.25 6.07107 12.25 4V2H13.75V4Z" fill="#000000"/>
</svg>
