<svg xmlns="http://www.w3.org/2000/svg" width="20" height="20" viewBox="0 0 20 20" fill="none"><rect width="20" height="20" fill="none"/>
<path d="M7 4C8.19504 4 9.26704 4.52463 10 5.35547C10.733 4.52463 11.805 4 13 4H17V6H13C11.8954 6 11 6.89543 11 8V12H12.5C12.6818 12 12.8494 12.0988 12.9375 12.2578C13.0254 12.4167 13.02 12.6106 12.9238 12.7646L10.4238 16.7646C10.3325 16.9108 10.1724 17 10 17C9.82761 17 9.66754 16.9108 9.57617 16.7646L7.07617 12.7646C6.97999 12.6106 6.97455 12.4167 7.0625 12.2578C7.15061 12.0988 7.31824 12 7.5 12H9V8C9 6.89543 8.10457 6 7 6H3V4H7Z" fill="#000000"/>
</svg>
