<svg xmlns="http://www.w3.org/2000/svg" width="24" height="24" viewBox="0 0 24 24" fill="none"><rect width="24" height="24" fill="none"/>
<path d="M16.7072 10.207L11.5002 15.4141L8.29317 12.207L9.70724 10.793L11.5002 12.5859L15.2932 8.79297L16.7072 10.207Z" fill="#000000"/>
<path d="M11.9992 2C12.031 2.03159 15.0313 4.99959 20.9983 5C20.9985 7.99995 21.9992 19.9997 11.9992 22L11.5383 21.8994C2.03106 19.6273 2.99853 7.95307 2.99825 5C8.95478 4.99998 11.9558 2.04308 11.9992 2ZM11.9983 4.50977C11.6215 4.75532 11.1704 5.02525 10.6428 5.28906C9.25957 5.9805 7.36645 6.64846 4.97482 6.89648C4.96384 8.67243 5.03922 11.0308 5.67696 13.3428C6.52415 16.4136 8.25959 19.0547 11.9983 19.9521C15.7386 19.0552 17.4733 16.4139 18.3205 13.3428C18.9582 11.0307 19.0329 8.67246 19.0217 6.89648C16.6305 6.64827 14.7376 5.98047 13.3547 5.28906C12.8268 5.02505 12.3751 4.75544 11.9983 4.50977Z" fill="#000000"/>
</svg>
