<svg xmlns="http://www.w3.org/2000/svg" width="24" height="24" viewBox="0 0 24 24" fill="none"><rect width="24" height="24" fill="none"/>
<path d="M12.0003 13C13.2428 13.0001 14.2503 14.0074 14.2503 15.25C14.2503 16.4926 13.2428 17.4999 12.0003 17.5C10.7577 17.5 9.75029 16.4926 9.75029 15.25C9.75029 14.0074 10.7577 13 12.0003 13Z" fill="#000000"/>
<path d="M12.0003 6.5C13.2428 6.50011 14.2503 7.50742 14.2503 8.75C14.2503 9.99258 13.2428 10.9999 12.0003 11C10.7577 11 9.75029 9.99264 9.75029 8.75C9.75029 7.50736 10.7577 6.5 12.0003 6.5Z" fill="#000000"/>
<path d="M15.0003 2C16.6571 2.00011 18.0003 3.34321 18.0003 5V5.5H20.1165C20.6825 5.5004 21.0143 6.13777 20.6897 6.60156L18.0003 10.4424V11.5H20.1165C20.6825 11.5004 21.0143 12.1378 20.6897 12.6016L18.0003 16.4424V19C18.0003 20.6568 16.6571 21.9999 15.0003 22H9.00029C7.34344 22 6.00029 20.6569 6.00029 19V16.4424L3.31084 12.6016C2.98614 12.1377 3.31797 11.5003 3.88408 11.5H6.00029V10.4424L3.31084 6.60156C2.98614 6.13771 3.31797 5.50026 3.88408 5.5H6.00029V5C6.00029 3.34315 7.34344 2 9.00029 2H15.0003ZM9.00029 4C8.44801 4 8.00029 4.44772 8.00029 5V19C8.00029 19.5523 8.44801 20 9.00029 20H15.0003C15.5525 19.9999 16.0003 19.5522 16.0003 19V5C16.0003 4.44778 15.5525 4.00011 15.0003 4H9.00029Z" fill="#000000"/>
</svg>
