<svg xmlns="http://www.w3.org/2000/svg" width="20" height="20" viewBox="0 0 20 20" fill="none"><rect width="20" height="20" fill="none"/>
<path d="M15.2998 1.94922C16.8186 1.94922 18.0498 3.18043 18.0498 4.69922V15.2988C18.0498 16.8176 16.8186 18.0488 15.2998 18.0488H4.7002C3.18141 18.0488 1.9502 16.8176 1.9502 15.2988V4.69922C1.9502 3.18044 3.18141 1.94922 4.7002 1.94922H15.2998ZM3.4502 15.2988C3.4502 15.9892 4.00984 16.5488 4.7002 16.5488H6.25V7.74902H3.4502V15.2988ZM7.75 16.5488H15.2998C15.9902 16.5488 16.5498 15.9892 16.5498 15.2988V7.74902H7.75V16.5488ZM4.7002 3.44922C4.00984 3.44922 3.4502 4.00886 3.4502 4.69922V6.24902H6.25V3.44922H4.7002ZM7.75 6.24902H16.5498V4.69922C16.5498 4.00886 15.9902 3.44922 15.2998 3.44922H7.75V6.24902Z" fill="#000000"/>
</svg>
