<svg xmlns="http://www.w3.org/2000/svg" width="24" height="24" viewBox="0 0 24 24" fill="none"><rect width="24" height="24" fill="none"/>
<path d="M10.5 3C14.6421 3 18 6.35786 18 10.5C18 12.0285 17.5411 13.4492 16.7559 14.6348L21.001 18.8789L18.8789 21.001L14.6348 16.7559C13.4492 17.5411 12.0285 18 10.5 18C6.35786 18 3 14.6421 3 10.5C3 6.35786 6.35786 3 10.5 3ZM10.5 6C8.01472 6 6 8.01472 6 10.5C6 12.9853 8.01472 15 10.5 15C12.9853 15 15 12.9853 15 10.5C15 8.01472 12.9853 6 10.5 6Z" fill="#000000"/>
</svg>
