<svg xmlns="http://www.w3.org/2000/svg" width="20" height="20" viewBox="0 0 20 20" fill="none"><rect width="20" height="20" fill="none"/>
<path d="M6.29297 6.29297C6.57575 6.01019 6.99976 5.92291 7.37109 6.07129L17.3711 10.0713C17.7366 10.2175 17.9825 10.5647 17.999 10.958C18.0154 11.3515 17.7995 11.7184 17.4473 11.8945L13.7451 13.7451L11.8945 17.4473C11.7184 17.7995 11.3515 18.0154 10.958 17.999C10.5647 17.9825 10.2175 17.7366 10.0713 17.3711L6.07129 7.37109C5.92291 6.99976 6.01019 6.57575 6.29297 6.29297ZM11.1006 14.5605L12.2549 12.2549L14.5605 11.1006L8.79492 8.79492L11.1006 14.5605Z" fill="#000000"/>
<path d="M5.20703 10.207L3.20703 12.207L1.79297 10.793L3.79297 8.79297L5.20703 10.207Z" fill="#000000"/>
<path d="M5.20703 3.79297L3.79297 5.20703L1.79297 3.20703L3.20703 1.79297L5.20703 3.79297Z" fill="#000000"/>
<path d="M12.207 3.20703L10.207 5.20703L8.79297 3.79297L10.793 1.79297L12.207 3.20703Z" fill="#000000"/>
</svg>
