<svg xmlns="http://www.w3.org/2000/svg" width="24" height="24" viewBox="0 0 24 24" fill="none"><rect width="24" height="24" fill="none"/>
<path d="M18.2578 15.0625C18.4167 14.9746 18.6106 14.98 18.7646 15.0762L22.7646 17.5762C22.9108 17.6675 23 17.8277 23 18C23 18.1723 22.9108 18.3325 22.7646 18.4238L18.7646 20.9238C18.6106 21.02 18.4167 21.0254 18.2578 20.9375C18.0989 20.8494 18 20.6817 18 20.5V19C16.8955 19 16.0001 19.8955 16 21V23H14V21C14.0001 18.7909 15.7909 17 18 17V15.5L18.0049 15.4326C18.026 15.2777 18.1188 15.1396 18.2578 15.0625Z" fill="#000000"/>
<path d="M19 2C20.6567 2.00016 22 3.34325 22 5V9H21V13H19V9H5V20H12V22H4C3.44772 22 3 21.5523 3 21V9H2V5C2.00004 3.3432 3.34321 2.00004 5 2H19ZM5 4C4.44776 4.00004 4.00001 4.44775 4 5V7H20V5C20 4.44782 19.5522 4.00016 19 4H5Z" fill="#000000"/>
<path d="M15 13H9V11H15V13Z" fill="#000000"/>
</svg>
