<svg xmlns="http://www.w3.org/2000/svg" width="20" height="20" viewBox="0 0 20 20" fill="none"><rect width="20" height="20" fill="none"/>
<path d="M18.5303 17.4688L17.4697 18.5293L13.5 14.5596L12.6807 15.3799L12.2217 15.1963C10.7668 14.6143 9.44235 13.786 8.29688 12.7627L3.53027 17.5303L2.46973 16.4697L7.23633 11.7021C6.21344 10.5569 5.38553 9.23281 4.80371 7.77832L4.62012 7.31934L5.43945 6.49902L1.46973 2.5293L2.53027 1.46875L18.5303 17.4688ZM6.3877 7.67188C7.57281 10.3122 9.68693 12.426 12.3271 13.6113L12.4395 13.499L6.5 7.55957L6.3877 7.67188Z" fill="#000000"/>
<path d="M15.0459 1.93457C16.3524 2.58765 17.4122 3.64675 18.0654 4.95312L18.3818 5.58691L16.4336 8.09277C15.594 9.17241 15.0501 10.4437 14.8438 11.7822L13.5811 10.5195C13.9079 9.31191 14.4718 8.17253 15.25 7.17188L16.6133 5.41699C16.1381 4.56425 15.4349 3.86068 14.582 3.38574L12.8281 4.75C11.8273 5.52844 10.6874 6.09142 9.47949 6.41797L8.2168 5.15527C9.55562 4.94903 10.8274 4.40621 11.9072 3.56641L14.4121 1.61816L15.0459 1.93457Z" fill="#000000"/>
</svg>
