<svg xmlns="http://www.w3.org/2000/svg" width="24" height="24" viewBox="0 0 24 24" fill="none"><rect width="24" height="24" fill="none"/>
<path d="M19.9844 13.5264C20.1271 13.3807 20.3708 13.517 20.3213 13.7148L19.5 17H21C21.4043 17.0001 21.7691 17.2437 21.9238 17.6172C22.0785 17.9908 21.9929 18.4211 21.707 18.707L17.6133 22.4404C17.4581 22.5814 17.2186 22.4191 17.292 22.2227L18.5 19H17C16.6077 19 16.252 18.7703 16.0898 18.4131C15.9278 18.0559 15.9889 17.6371 16.2471 17.3418L19.9844 13.5264Z" fill="#000000"/>
<path d="M12 2C13.6569 2 15 3.34314 15 5V7H17C18.6568 7 20 8.34317 20 10V12H18V10C18 9.44774 17.5523 9 17 9H13V5C13 4.44771 12.5523 4 12 4H6V20H14V22H4V2H12Z" fill="#000000"/>
</svg>
