<svg xmlns="http://www.w3.org/2000/svg" width="24" height="24" viewBox="0 0 24 24" fill="none"><rect width="24" height="24" fill="none"/>
<path d="M12.0459 2C18.1291 2.03668 21.209 9.36291 16.958 13.7354L16.8555 13.8398L20.4023 17.5127L15.4902 22.4238L11.999 18.835L8.50977 22.4238L3.59766 17.5127L7.14258 13.8398L7.04199 13.7354C2.791 9.36291 5.87087 2.03668 11.9541 2H12.0459ZM15.9795 6.02734C15.9726 6.97289 15.6249 7.93559 14.8574 8.73047L6.40234 17.4873L8.49023 19.5752L15.5234 12.3408C17.3451 10.4672 17.2717 7.83165 15.9795 6.02734ZM13.3945 17.3994L15.5098 19.5752L17.5977 17.4873L15.4609 15.2744L13.3945 17.3994ZM8.02051 6.02734C6.72833 7.83165 6.65494 10.4672 8.47656 12.3408L8.5332 12.3994L10.6094 10.249L9.14258 8.73047C8.37514 7.93559 8.02735 6.97289 8.02051 6.02734ZM12 4C10.26 4 9.37346 6.08909 10.582 7.34082L12 8.80859L13.418 7.34082C14.6265 6.08909 13.74 4 12 4Z" fill="#000000"/>
</svg>
