<svg xmlns="http://www.w3.org/2000/svg" width="20" height="20" viewBox="0 0 20 20" fill="none"><rect width="20" height="20" fill="none"/>
<path d="M11 12H9V8H11V12Z" fill="#000000"/>
<path d="M16.207 5.20703L15.1514 6.26172C16.2987 7.50845 17 9.1721 17 11C17 14.866 13.866 18 10 18C6.13401 18 3 14.866 3 11C3 7.13401 6.13401 4 10 4C11.3137 4 12.5424 4.36268 13.5928 4.99219L14.793 3.79297L16.207 5.20703ZM10 6C7.23858 6 5 8.23858 5 11C5 13.7614 7.23858 16 10 16C12.7614 16 15 13.7614 15 11C15 8.23858 12.7614 6 10 6Z" fill="#000000"/>
<path d="M12.5 3H7.5V1H12.5V3Z" fill="#000000"/>
</svg>
