<svg xmlns="http://www.w3.org/2000/svg" width="24" height="24" viewBox="0 0 24 24" fill="none"><rect width="24" height="24" fill="none"/>
<path d="M10.2438 3.17274C11.9894 2.82552 13.7996 3.0044 15.444 3.68544C17.0882 4.36661 18.4942 5.5201 19.4831 6.99989C20.4719 8.47986 20.9996 10.22 20.9997 11.9999H22.0006C22.1822 12.0001 22.3501 12.0989 22.4381 12.2577C22.5259 12.4164 22.5204 12.6106 22.4245 12.7645L19.9245 16.7645C19.8332 16.9105 19.6728 16.9997 19.5006 16.9999C19.3283 16.9999 19.1682 16.9106 19.0768 16.7645L16.5768 12.7645C16.4806 12.6105 16.4752 12.4166 16.5631 12.2577C16.6513 12.0989 16.819 11.9999 17.0006 11.9999H17.9997C17.9996 10.8135 17.6479 9.65343 16.9889 8.66688C16.3297 7.68034 15.3918 6.91101 14.2956 6.45692C13.1993 6.00297 11.9924 5.88366 10.8288 6.11512C9.66517 6.34674 8.59639 6.91878 7.75747 7.7577C6.91856 8.59669 6.34643 9.66535 6.11489 10.829C5.88344 11.9927 6.00267 13.1996 6.45668 14.2958C6.91076 15.392 7.68016 16.3299 8.66665 16.9891C9.65308 17.6481 10.8134 17.9998 11.9997 17.9999V20.9999C10.2199 20.9998 8.4795 20.472 6.99965 19.4833C5.51991 18.4945 4.36636 17.0884 3.6852 15.4442C3.0041 13.7998 2.8253 11.9897 3.1725 10.244C3.51976 8.49833 4.37686 6.89425 5.6354 5.63563C6.89395 4.37707 8.49815 3.52007 10.2438 3.17274Z" fill="#000000"/>
</svg>
