<svg xmlns="http://www.w3.org/2000/svg" width="24" height="24" viewBox="0 0 24 24" fill="none"><rect width="24" height="24" fill="none"/>
<path d="M12 4C15.3137 4 18 6.68629 18 10V10.0996C20.2823 10.5628 22 12.581 22 15C22 17.7614 19.7614 20 17 20H7.5C4.46243 20 2 17.5376 2 14.5C2 11.9623 3.71884 9.82678 6.05566 9.19238C6.45021 6.26071 8.96025 4 12 4ZM12 6C9.79086 6 8 7.79086 8 10V11H7.5C5.567 11 4 12.567 4 14.5C4 16.433 5.567 18 7.5 18H17C18.6569 18 20 16.6569 20 15C20 13.3431 18.6569 12 17 12H16V10C16 7.79086 14.2091 6 12 6Z" fill="#000000"/>
</svg>
