<svg xmlns="http://www.w3.org/2000/svg" width="24" height="24" viewBox="0 0 24 24" fill="none"><rect width="24" height="24" fill="none"/>
<path d="M22 13H20V10L17 7H4V14L7 17H17V15.5C17 15.3182 17.0988 15.1506 17.2578 15.0625C17.4167 14.9746 17.6106 14.98 17.7646 15.0762L21.7646 17.5762C21.9108 17.6675 22 17.8276 22 18C22 18.1724 21.9108 18.3325 21.7646 18.4238L17.7646 20.9238C17.6106 21.02 17.4167 21.0254 17.2578 20.9375C17.0988 20.8494 17 20.6818 17 20.5V19H2V5H22V13Z" fill="#000000"/>
<path d="M12 9C13.6569 9 15 10.3431 15 12C15 13.6569 13.6569 15 12 15C10.3431 15 9 13.6569 9 12C9 10.3431 10.3431 9 12 9ZM12 11C11.4477 11 11 11.4477 11 12C11 12.5523 11.4477 13 12 13C12.5523 13 13 12.5523 13 12C13 11.4477 12.5523 11 12 11Z" fill="#000000"/>
</svg>
