<svg xmlns="http://www.w3.org/2000/svg" width="24" height="24" viewBox="0 0 24 24" fill="none"><rect width="24" height="24" fill="none"/>
<path d="M21.4473 7.60547C21.7859 7.77479 21.9998 8.12142 22 8.5V12H20V10.1182L19 10.6182V15.916C19 17.2525 18.2902 18.4887 17.1357 19.1621C13.9622 21.0133 10.0378 21.0133 6.86426 19.1621C5.70984 18.4887 5 17.2525 5 15.916V10.6182L2.55273 9.39453C2.2141 9.2251 2.00001 8.87868 2 8.5C2.00018 8.12142 2.2141 7.77479 2.55273 7.60547L12 2.88184L21.4473 7.60547ZM12.4473 13.8945L12 14.1172L11.5527 13.8945L7 11.6182V15.916C7 16.5412 7.33208 17.1196 7.87207 17.4346C10.4228 18.9225 13.5772 18.9224 16.1279 17.4346C16.6679 17.1196 17 16.5412 17 15.916V11.6182L12.4473 13.8945ZM5.23633 8.5L12 11.8818L18.7637 8.5L12 5.11816L5.23633 8.5Z" fill="#000000"/>
</svg>
