<svg xmlns="http://www.w3.org/2000/svg" width="24" height="24" viewBox="0 0 24 24" fill="none"><rect width="24" height="24" fill="none"/>
<path d="M13.0011 12.4131L11.5871 13.8271L10.173 12.4131L11.5871 10.999L13.0011 12.4131Z" fill="#000000"/>
<path d="M21.6076 8.87793L18.3654 12.1211L19.0724 12.8281L11.4152 20.4844C9.85318 22.0463 7.32104 22.0462 5.75894 20.4844L3.51578 18.2422C1.9537 16.6801 1.95375 14.1471 3.51578 12.585L11.172 4.92871L11.8791 5.63574L15.1222 2.39258L21.6076 8.87793ZM4.92984 13.999C4.14894 14.78 4.14904 16.0461 4.92984 16.8271L7.173 19.0703C7.95405 19.851 9.22017 19.8512 10.0011 19.0703L16.2433 12.8281L11.172 7.75684L4.92984 13.999ZM13.2941 7.0498L16.9503 10.707L18.7794 8.87793L15.1222 5.2207L13.2941 7.0498Z" fill="#000000"/>
</svg>
