<svg xmlns="http://www.w3.org/2000/svg" width="24" height="24" viewBox="0 0 24 24" fill="none"><rect width="24" height="24" fill="none"/>
<path d="M9.9043 3.3639C11.2336 2.75045 12.7664 2.75044 14.0957 3.3639L18.9189 5.59046C18.9375 5.59901 18.9549 5.61017 18.9727 5.61976C18.9888 5.62845 19.0049 5.63754 19.0205 5.6471C19.0422 5.66037 19.0635 5.67433 19.084 5.68909C19.0996 5.70033 19.115 5.71212 19.1299 5.72425C19.151 5.74145 19.1709 5.76017 19.1904 5.77894C19.2035 5.79146 19.2171 5.80378 19.2295 5.81702C19.2484 5.83728 19.2661 5.8588 19.2832 5.8805C19.2947 5.89502 19.3057 5.91021 19.3164 5.92542C19.331 5.94623 19.3444 5.96802 19.3574 5.98988C19.3623 5.99809 19.3693 6.00593 19.374 6.01429L22 10.7409V11.9996C21.9997 13.6563 20.6567 14.9996 19 14.9996H18C16.3433 14.9996 15.0003 13.6563 15 11.9996V10.7409L17.1025 6.95472L13.2568 5.18031C13.1726 5.14146 13.0866 5.10743 13 5.07679V18.9987H17V20.9987H7V18.9987H11V5.07679C10.9134 5.10743 10.8274 5.14146 10.7432 5.18031L6.89648 6.95472L9 10.7409V11.9996C8.99974 13.6563 7.65669 14.9996 6 14.9996H5C3.34331 14.9996 2.00026 13.6563 2 11.9996V10.7409L4.62598 6.01429V6.01234C4.66943 5.93427 4.72428 5.86252 4.78711 5.79847C4.83815 5.74656 4.89452 5.70016 4.95508 5.66077C4.97792 5.64593 5.00214 5.63281 5.02637 5.61976C5.03682 5.61411 5.04696 5.60744 5.05762 5.60218C5.06535 5.59836 5.07319 5.59409 5.08105 5.59046L9.9043 3.3639ZM4 11.2575V11.9996C4.00026 12.5517 4.44788 12.9996 5 12.9996H6C6.55212 12.9996 6.99974 12.5517 7 11.9996V11.2575L5.5 8.55824L4 11.2575ZM17 11.2575V11.9996C17.0003 12.5517 17.4479 12.9996 18 12.9996H19C19.5521 12.9996 19.9997 12.5517 20 11.9996V11.2575L18.5 8.55824L17 11.2575Z" fill="#000000"/>
</svg>
