<svg xmlns="http://www.w3.org/2000/svg" width="20" height="20" viewBox="0 0 20 20" fill="none"><rect width="20" height="20" fill="none"/>
<path d="M16.5 15H17.5L17.5684 15.0049C17.7252 15.0266 17.8643 15.1218 17.9404 15.2637C18.0274 15.4262 18.0182 15.624 17.916 15.7773L15.916 18.7773C15.8233 18.9163 15.667 18.9999 15.5 19C15.333 18.9999 15.1767 18.9163 15.084 18.7773L13.084 15.7773C12.9818 15.624 12.9726 15.4262 13.0596 15.2637C13.1466 15.1015 13.3159 15.0001 13.5 15H14.5V12H16.5V15Z" fill="#000000"/>
<path d="M15 3C16.6547 3 18 4.33811 18 5.99707V10H16V9H4V14C4 14.5523 4.44772 15 5 15H11V17H5C3.34315 17 2 15.6569 2 14V6C2 4.34315 3.34315 3 5 3H15ZM5 5C4.44772 5 4 5.44772 4 6V7H16V5.99707C16 5.44689 15.5544 5 15 5H5Z" fill="#000000"/>
</svg>
