<svg xmlns="http://www.w3.org/2000/svg" width="24" height="24" viewBox="0 0 24 24" fill="none"><rect width="24" height="24" fill="none"/>
<path d="M14.7935 3.79297C16.2886 2.29827 18.7126 2.29809 20.2075 3.79297C21.7025 5.28794 21.7023 7.71191 20.2075 9.20703L8.9595 20.4551L4.23489 20.9805C3.53455 21.0581 2.94243 20.466 3.02004 19.7656L3.54543 15.041L14.7935 3.79297ZM5.45559 15.958L5.13235 18.8672L8.04153 18.5439L15.9741 10.6113C15.7997 9.26516 14.7337 8.19888 13.3872 8.02539L5.45559 15.958ZM18.7935 5.20703C18.0795 4.4932 16.9216 4.49338 16.2075 5.20703L14.9976 6.41602C16.1524 6.91988 17.0793 7.84732 17.5835 9.00195L18.7935 7.79297C19.5072 7.0789 19.5074 5.92096 18.7935 5.20703Z" fill="#000000"/>
</svg>
