<svg xmlns="http://www.w3.org/2000/svg" width="20" height="20" viewBox="0 0 20 20" fill="none"><rect width="20" height="20" fill="none"/>
<path d="M9.99979 12.4999C10.6902 12.4999 11.2498 13.0596 11.2498 13.7499C11.2496 14.4401 10.6901 14.9999 9.99979 14.9999C9.30989 14.9995 8.74995 14.4399 8.74979 13.7499C8.74979 13.0598 9.30979 12.5003 9.99979 12.4999Z" fill="#000000"/>
<path d="M10.9998 10.9999H8.99979L8.74979 6.99991H11.2498L10.9998 10.9999Z" fill="#000000"/>
<path d="M7.36601 3.24015C8.50303 1.15559 11.4965 1.15566 12.6336 3.24015L18.2644 13.5634C19.3548 15.5625 17.9078 17.9999 15.6307 17.9999H4.36894C2.09242 17.9994 0.64544 15.5622 1.73515 13.5634L7.36601 3.24015ZM10.8777 4.19815C10.4987 3.5034 9.50086 3.50332 9.12187 4.19815L3.49101 14.5214C3.12846 15.1874 3.61062 15.9994 4.36894 15.9999H15.6307C16.3896 15.9999 16.8718 15.1877 16.5086 14.5214L10.8777 4.19815Z" fill="#000000"/>
</svg>
