<svg xmlns="http://www.w3.org/2000/svg" width="20" height="20" viewBox="0 0 20 20" fill="none"><rect width="20" height="20" fill="none"/>
<path d="M12.8018 3.55078C13.7998 3.55078 14.7325 4.04719 15.29 4.875L17.9209 8.78223L18.0488 8.97168V13.4512C18.0486 15.1078 16.7056 16.4512 15.0488 16.4512H4.94922C3.29249 16.4512 1.94943 15.1078 1.94922 13.4512V8.97168L2.07715 8.78223L4.70801 4.875C5.26547 4.04725 6.19833 3.55088 7.19629 3.55078H12.8018ZM3.44922 13.4512C3.44943 14.2794 4.12092 14.9512 4.94922 14.9512H15.0488C15.8771 14.9512 16.5486 14.2794 16.5488 13.4512V9.95117H13.4639L12.6709 11.5361L12.4639 11.9512H7.53613L7.3291 11.5361L6.53613 9.95117H3.44922V13.4512ZM7.19629 5.05078C6.69737 5.05088 6.23085 5.29906 5.95215 5.71289L4.1084 8.45117H7.46387L7.6709 8.86621L8.46387 10.4512H11.5361L12.3291 8.86621L12.5361 8.45117H15.8896L14.0459 5.71289C13.7671 5.299 13.3008 5.05078 12.8018 5.05078H7.19629Z" fill="#000000"/>
</svg>
