<svg xmlns="http://www.w3.org/2000/svg" width="20" height="20" viewBox="0 0 20 20" fill="none"><rect width="20" height="20" fill="none"/>
<path d="M11.3721 2C12.1667 2 12.8618 2.5354 13.0645 3.30371L13.6064 5.36035C14.4379 5.83334 15 6.72502 15 7.75V12.25C15 13.2748 14.4377 14.1656 13.6064 14.6387L13.0645 16.6963C12.8618 17.4646 12.1667 18 11.3721 18H8.62793C7.83332 18 7.1382 17.4646 6.93555 16.6963L6.39258 14.6387C5.56175 14.1655 5 13.2745 5 12.25V7.75C5 6.72532 5.56152 5.83345 6.39258 5.36035L6.93555 3.30371C7.13821 2.5354 7.83333 2 8.62793 2H11.3721ZM8.04004 15L8.38574 16.3135C8.41469 16.4232 8.51441 16.5 8.62793 16.5H11.3721C11.4856 16.5 11.5853 16.4232 11.6143 16.3135L11.96 15H8.04004ZM7.75 6.5C7.05964 6.5 6.5 7.05964 6.5 7.75V12.25C6.5 12.9404 7.05964 13.5 7.75 13.5H12.25C12.9404 13.5 13.5 12.9404 13.5 12.25V7.75C13.5 7.05964 12.9404 6.5 12.25 6.5H7.75ZM8.62793 3.5C8.51441 3.5 8.41469 3.57675 8.38574 3.68652L8.04004 5H11.96L11.6143 3.68652C11.5853 3.57676 11.4856 3.5 11.3721 3.5H8.62793Z" fill="#000000"/>
</svg>
