<svg xmlns="http://www.w3.org/2000/svg" width="20" height="20" viewBox="0 0 20 20" fill="none"><rect width="20" height="20" fill="none"/>
<path d="M12.5493 2.08789C14.0947 4.33907 14.9995 7.06412 14.9995 10.001C14.9995 12.9376 14.0944 15.662 12.5493 17.9131L11.3481 17.0127C12.7057 15.0131 13.4995 12.6 13.4995 10.001C13.4995 7.40168 12.7059 4.98803 11.3481 2.98828L12.5493 2.08789Z" fill="#000000"/>
<path d="M9.19971 4.60059C10.3298 6.10488 10.9995 7.97461 10.9995 10.001C10.9995 12.0274 10.3299 13.8971 9.19971 15.4014L7.99951 14.501C8.94126 13.2474 9.4995 11.6896 9.49951 10.001C9.49951 8.3121 8.94152 6.75367 7.99951 5.5L9.19971 4.60059Z" fill="#000000"/>
<path d="M6.13623 6.89844C6.68424 7.80375 6.99951 8.86548 6.99951 10.001C6.9995 11.1367 6.68345 12.1981 6.13525 13.1035L4.92725 12.1963C5.29112 11.5467 5.4995 10.7985 5.49951 10.001C5.49951 9.20321 5.29136 8.45441 4.92725 7.80469L6.13623 6.89844Z" fill="#000000"/>
</svg>
