<svg xmlns="http://www.w3.org/2000/svg" width="20" height="20" viewBox="0 0 20 20" fill="none"><rect width="20" height="20" fill="none"/>
<path d="M10 5C10.5523 5 11 5.44772 11 6V8C11 8.55228 10.5523 9 10 9C9.44772 9 9 8.55228 9 8V6C9 5.44772 9.44772 5 10 5Z" fill="#000000"/>
<path d="M10 2C13.3137 2 16 4.68629 16 8V12C16 15.3137 13.3137 18 10 18C6.68629 18 4 15.3137 4 12V8C4 4.68629 6.68629 2 10 2ZM10 4C7.79086 4 6 5.79086 6 8V12C6 14.2091 7.79086 16 10 16C12.2091 16 14 14.2091 14 12V8C14 5.79086 12.2091 4 10 4Z" fill="#000000"/>
</svg>
