<svg xmlns="http://www.w3.org/2000/svg" width="24" height="24" viewBox="0 0 24 24" fill="none"><rect width="24" height="24" fill="none"/>
<path d="M12 2.00195C14.4018 2.00195 16.606 2.8485 18.3301 4.25977C18.7226 3.9044 19.3285 3.91538 19.707 4.29395C20.0856 4.67249 20.0956 5.2774 19.7402 5.66992C21.1525 7.39428 22 9.59915 22 12.002C22 14.404 21.1527 16.6079 19.7412 18.332C20.0961 18.7246 20.0854 19.3296 19.707 19.708C19.3286 20.0864 18.7236 20.0971 18.3311 19.7422C16.6068 21.1542 14.4025 22.002 12 22.002C9.5972 22.002 7.39233 21.1545 5.66797 19.7422C5.27542 20.0966 4.67118 20.0862 4.29297 19.708C3.91474 19.3298 3.90339 18.7246 4.25781 18.332C2.84654 16.608 2 14.4038 2 12.002C2 9.59937 2.84671 7.39421 4.25879 5.66992C3.90392 5.27738 3.91458 4.67233 4.29297 4.29395C4.67136 3.91556 5.27641 3.90489 5.66895 4.25977C7.39308 2.84821 9.59791 2.00195 12 2.00195ZM14.7568 16.1719C13.9663 16.6956 13.0192 17.002 12 17.002C10.9805 17.002 10.0328 16.6958 9.24219 16.1719L7.09473 18.3193C8.44957 19.3729 10.1508 20.002 12 20.002C13.8489 20.002 15.5496 19.3726 16.9043 18.3193L14.7568 16.1719ZM5.68164 7.09668C4.62835 8.45144 4 10.153 4 12.002C4 13.8501 4.62816 15.5508 5.68066 16.9053L7.82812 14.7578C7.30509 13.9676 7 13.0205 7 12.002C7 10.9826 7.30533 10.0347 7.8291 9.24414L5.68164 7.09668ZM16.1699 9.24414C16.6939 10.0348 17 10.9824 17 12.002C17 13.0207 16.6941 13.9675 16.1709 14.7578L18.3184 16.9053C19.3711 15.5507 20 13.8503 20 12.002C20 10.1528 19.3709 8.45152 18.3174 7.09668L16.1699 9.24414ZM12 9.00195C10.3431 9.00195 9 10.3451 9 12.002C9 13.6588 10.3431 15.002 12 15.002C13.6569 15.002 15 13.6588 15 12.002C15 10.3451 13.6569 9.00195 12 9.00195ZM12 4.00195C10.1516 4.00195 8.45029 4.62983 7.0957 5.68262L9.24316 7.83008C10.0335 7.30677 10.9811 7.00195 12 7.00195C13.0186 7.00195 13.9657 7.30704 14.7559 7.83008L16.9033 5.68262C15.5488 4.63012 13.8482 4.00195 12 4.00195Z" fill="#000000"/>
</svg>
