<svg xmlns="http://www.w3.org/2000/svg" width="20" height="20" viewBox="0 0 20 20" fill="none"><rect width="20" height="20" fill="none"/>
<path d="M10.75 12H9.25V7H10.75V12Z" fill="#000000"/>
<path d="M16.0303 5.03027L14.9795 6.08008C16.2288 7.3444 17 9.08215 17 11C17 14.866 13.866 18 10 18C6.13401 18 3 14.866 3 11C3 7.13401 6.13401 4 10 4C11.4054 4 12.713 4.41593 13.8096 5.12891L14.9697 3.96973L16.0303 5.03027ZM10 5.5C6.96243 5.5 4.5 7.96243 4.5 11C4.5 14.0376 6.96243 16.5 10 16.5C13.0376 16.5 15.5 14.0376 15.5 11C15.5 7.96243 13.0376 5.5 10 5.5Z" fill="#000000"/>
<path d="M12.5 3H7.5V1.5H12.5V3Z" fill="#000000"/>
</svg>
