<svg xmlns="http://www.w3.org/2000/svg" width="20" height="20" viewBox="0 0 20 20" fill="none"><rect width="20" height="20" fill="none"/>
<path d="M7.23511 11.076C7.38912 10.9799 7.58309 10.9745 7.74194 11.0624C7.90086 11.1505 7.99972 11.3182 7.99976 11.4999V12.4999H16.0007V15.4999H7.99976V16.4999C7.99971 16.6816 7.90086 16.8493 7.74194 16.9374C7.5831 17.0253 7.38911 17.0198 7.23511 16.9237L3.23511 14.4237C3.08898 14.3323 2.9998 14.1722 2.99976 13.9999C2.99979 13.8492 3.06758 13.7074 3.18237 13.6132L3.23511 13.576L7.23511 11.076Z" fill="#000000"/>
<path d="M12.2576 3.06237C12.4164 2.97446 12.6104 2.9799 12.7644 3.07605L16.7644 5.57605C16.9105 5.6674 16.9997 5.82754 16.9998 5.99987C16.9997 6.15059 16.9319 6.29238 16.8171 6.38659L16.7644 6.4237L12.7644 8.9237C12.6104 9.01984 12.4164 9.02528 12.2576 8.93737C12.0987 8.84927 11.9998 8.68157 11.9998 8.49987V7.49987H3.99976V4.49987H11.9998V3.49987C11.9998 3.31817 12.0987 3.15048 12.2576 3.06237Z" fill="#000000"/>
</svg>
