<svg xmlns="http://www.w3.org/2000/svg" width="24" height="24" viewBox="0 0 24 24" fill="none"><rect width="24" height="24" fill="none"/>
<path d="M22 18C19.2386 18 17 20.2386 17 23H15C15 19.134 18.134 16 22 16V18Z" fill="#000000"/>
<path d="M22 23H19C19 21.3431 20.3431 20 22 20V23Z" fill="#000000"/>
<path d="M15.001 2C17.2099 2.00026 19.001 3.79102 19.001 6V14H17.001V6C17.001 4.89559 16.1053 4.00026 15.001 4H9C7.89543 4 7 4.89543 7 6V18C7 19.1046 7.89543 20 9 20H12V22H9C6.79086 22 5 20.2091 5 18V6C5 3.79086 6.79086 2 9 2H15.001Z" fill="#000000"/>
<path d="M13 5C13.5523 5 14 5.44772 14 6C14 6.55228 13.5523 7 13 7H11C10.4477 7 10 6.55228 10 6C10 5.44772 10.4477 5 11 5H13Z" fill="#000000"/>
</svg>
