<svg xmlns="http://www.w3.org/2000/svg" width="20" height="20" viewBox="0 0 20 20" fill="none"><rect width="20" height="20" fill="none"/>
<path d="M15.9993 17.9992H3.99927V16.4992H15.9993V17.9992Z" fill="#000000"/>
<path d="M9.97974 1.52162C11.5459 1.39114 13.1056 1.85437 14.3684 2.82533C14.9709 3.28876 15.4855 3.85392 15.8967 4.49037L13.9895 5.25307C13.7457 4.93688 13.4641 4.65314 13.1497 4.41127C12.2758 3.73932 11.2083 3.4263 10.1458 3.51479C9.08293 3.60358 8.07197 4.09036 7.30591 4.90541C6.53799 5.72276 6.06964 6.81519 6.00708 7.98256C5.94467 9.15001 6.29315 10.2935 6.9729 11.1994C7.65138 12.1032 8.61015 12.7051 9.65942 12.9162C10.7074 13.1266 11.7981 12.9379 12.7327 12.3742C13.2154 12.0828 13.641 11.6987 13.9905 11.2453L15.8977 12.0079C15.352 12.8537 14.6262 13.5679 13.7659 14.0871C12.4071 14.9068 10.8076 15.1871 9.26489 14.8771C7.72225 14.5669 6.33932 13.6866 5.37329 12.3996C4.40736 11.1123 3.92278 9.50458 4.01001 7.87514C4.09734 6.24579 4.75058 4.70426 5.8479 3.53627C6.94535 2.36838 8.41352 1.65234 9.97974 1.52162Z" fill="#000000"/>
</svg>
