<svg xmlns="http://www.w3.org/2000/svg" width="24" height="24" viewBox="0 0 24 24" fill="none"><rect width="24" height="24" fill="none"/>
<path d="M18.0654 13.9004C18.517 13.9004 18.8224 14.0383 19.041 14.2744C19.2541 14.5046 19.376 14.8198 19.4844 15.1494L21.7705 22.0996H19.8994L19.3945 20.4785H16.5371L15.9932 22.0996H14.2197L16.6201 15.1475C16.7344 14.8164 16.8636 14.5029 17.082 14.2734C17.3058 14.0384 17.6138 13.9004 18.0654 13.9004ZM17.0576 18.9092H18.8984L18.0039 16.043L17.0576 18.9092Z" fill="#000000"/>
<path d="M8 4C9.63574 4 11.0878 4.78565 12 6C12.9122 4.78565 14.3643 4 16 4H22V13H20V6H16C14.3431 6 13 7.34315 13 9V20H10.8262C10.4141 18.8353 9.30585 18 8 18H2V4H8ZM4 16H8C9.12568 16 10.1643 16.3722 11 17V9C11 7.34315 9.65685 6 8 6H4V16Z" fill="#000000"/>
</svg>
