<svg xmlns="http://www.w3.org/2000/svg" width="20" height="20" viewBox="0 0 20 20" fill="none"><rect width="20" height="20" fill="none"/>
<path d="M7 11C8.10457 11 9 11.8954 9 13V16C9 17.1046 8.10457 18 7 18H4C2.89543 18 2 17.1046 2 16V13C2 11.8954 2.89543 11 4 11H7ZM4 16H7V13H4V16Z" fill="#000000"/>
<path d="M17 15.5H12V13.5H17V15.5Z" fill="#000000"/>
<path d="M7 2C8.10457 2 9 2.89543 9 4V7C9 8.10457 8.10457 9 7 9H4C2.89543 9 2 8.10457 2 7V4C2 2.89543 2.89543 2 4 2H7ZM4 7H7V4H4V7Z" fill="#000000"/>
<path d="M16 2C17.1046 2 18 2.89543 18 4V7C18 8.10457 17.1046 9 16 9H13C11.8954 9 11 8.10457 11 7V4C11 2.89543 11.8954 2 13 2H16ZM13 7H16V4H13V7Z" fill="#000000"/>
</svg>
