<svg xmlns="http://www.w3.org/2000/svg" width="20" height="20" viewBox="0 0 20 20" fill="none"><rect width="20" height="20" fill="none"/>
<path d="M18.707 17.293L17.293 18.707L16.0293 17.4434C15.4341 17.7952 14.7416 18 14 18H6C3.79086 18 2 16.2091 2 14V6C2 5.25828 2.20293 4.56429 2.55469 3.96875L1.29297 2.70703L2.70703 1.29297L18.707 17.293ZM6.73438 13.2705C6.33844 12.8419 5.66152 12.8419 5.26562 13.2705L4.0791 14.5547C4.31966 15.3893 5.088 16 6 16H9.25488L6.73438 13.2705ZM4.06836 5.48242C4.02419 5.64754 4 5.82092 4 6V11.7129C5.20551 10.6313 7.08174 10.6984 8.2041 11.9141L11.9766 16H14C14.1789 16 14.3517 15.9748 14.5166 15.9307L4.06836 5.48242Z" fill="#000000"/>
<path d="M14 2C16.2091 2 18 3.79086 18 6V14C18 14.0278 17.9976 14.0554 17.9971 14.083L16 12.0859V6C16 4.89543 15.1046 4 14 4H7.91406L5.91602 2.00195C5.94395 2.00138 5.97193 2 6 2H14Z" fill="#000000"/>
<path d="M12 5C13.6569 5 15 6.34315 15 8C15 8.85031 14.6436 9.61522 14.0752 10.1611L12.6611 8.74707C12.868 8.56386 13 8.29806 13 8C13 7.44772 12.5523 7 12 7C11.702 7 11.4352 7.13106 11.252 7.33789L9.83789 5.92383C10.3838 5.35547 11.1497 5 12 5Z" fill="#000000"/>
</svg>
