<svg xmlns="http://www.w3.org/2000/svg" width="20" height="20" viewBox="0 0 20 20" fill="none"><rect width="20" height="20" fill="none"/>
<path d="M19 12.5005C18.9999 12.5392 18.9844 17.5063 15 19.0005C11.0156 17.5063 11.0001 12.5392 11 12.5005L15 11.0005L19 12.5005ZM12.6084 13.4985C12.6706 13.8523 12.7678 14.2657 12.917 14.6948C13.2805 15.7398 13.9054 16.7546 15 17.354C16.0946 16.7546 16.7195 15.7398 17.083 14.6948C17.2322 14.2657 17.3284 13.8523 17.3906 13.4985L15 12.602L12.6084 13.4985Z" fill="#000000"/>
<path d="M11.3643 2.76706C13.157 2.11828 15.0497 3.44642 15.0498 5.353V5.95163H15.2998C16.8185 5.95163 18.0497 7.1829 18.0498 8.70163V10.0005H16.5498V8.70163C16.5497 8.01133 15.9901 7.45163 15.2998 7.45163H4.7002C4.00988 7.45163 3.45026 8.01133 3.4502 8.70163V15.3012C3.45074 15.9911 4.01018 16.5512 4.7002 16.5512H10V18.0512H4.7002C3.18175 18.0512 1.95074 16.8196 1.9502 15.3012V8.10398C1.9504 6.94665 2.6756 5.91332 3.76367 5.51902L11.3643 2.76706ZM13.5498 5.353C13.5497 4.48635 12.6889 3.88219 11.874 4.17722L6.97363 5.95163H13.5498V5.353Z" fill="#000000"/>
</svg>
