<svg xmlns="http://www.w3.org/2000/svg" width="20" height="20" viewBox="0 0 20 20" fill="none"><rect width="20" height="20" fill="none"/>
<path d="M12.5 2.40039C15.6934 3.45045 17.9999 6.45525 18 10C17.9997 14.418 14.418 17.9999 10 18C5.58196 17.9999 2.00026 14.418 2 10C2.00011 6.45511 4.30645 3.45033 7.5 2.40039V3.99805C5.1511 4.97757 3.5001 7.29615 3.5 10C3.50026 13.5896 6.41038 16.4999 10 16.5C13.5896 16.4999 16.4997 13.5895 16.5 10C16.4999 7.29629 14.8487 4.97766 12.5 3.99805V2.40039Z" fill="#000000"/>
<path d="M10.75 9H9.25V1H10.75V9Z" fill="#000000"/>
</svg>
