<svg xmlns="http://www.w3.org/2000/svg" width="24" height="24" viewBox="0 0 24 24" fill="none"><rect width="24" height="24" fill="none"/>
<path d="M17.5 13C19.9853 13 22 15.0147 22 17.5C22 18.3804 21.7456 19.2009 21.3086 19.8945L23.207 21.793L21.793 23.207L19.8945 21.3086C19.2009 21.7456 18.3804 22 17.5 22C15.0147 22 13 19.9853 13 17.5C13 15.0147 15.0147 13 17.5 13ZM17.5 15C16.1193 15 15 16.1193 15 17.5C15 18.8807 16.1193 20 17.5 20C18.8807 20 20 18.8807 20 17.5C20 16.1193 18.8807 15 17.5 15Z" fill="#000000"/>
<path d="M13.333 6H19C20.6568 6.00005 22 7.34318 22 9V11H20V9C20 8.44775 19.5522 8.00005 19 8H12.667L8.66699 5H5C4.44776 5.00005 4 5.44775 4 6V18C4 18.5523 4.44776 19 5 19H11V21H5C3.34319 21 2 19.6568 2 18V6C2 4.34318 3.34319 3.00005 5 3H9.33301L13.333 6Z" fill="#000000"/>
</svg>
