<svg xmlns="http://www.w3.org/2000/svg" width="20" height="20" viewBox="0 0 20 20" fill="none"><rect width="20" height="20" fill="none"/>
<path d="M16.5 15H17.5L17.5684 15.0049C17.7252 15.0266 17.8643 15.1218 17.9404 15.2637C18.0274 15.4262 18.0182 15.624 17.916 15.7773L15.916 18.7773C15.8233 18.9163 15.667 18.9999 15.5 19C15.333 18.9999 15.1767 18.9163 15.084 18.7773L13.084 15.7773C12.9818 15.624 12.9726 15.4262 13.0596 15.2637C13.1466 15.1015 13.3159 15.0001 13.5 15H14.5V12H16.5V15Z" fill="#000000"/>
<path d="M18 4.5791L17.9844 5.07422C17.9412 5.94957 17.7775 7.87876 17.166 10H15.0742C15.0811 9.97877 15.0889 9.95779 15.0957 9.93652C15.5435 8.54444 15.7726 7.18981 15.8877 6.17383C15.8942 6.1162 15.8975 6.05907 15.9033 6.00391L10 4.10059L4.0957 6.00391C4.1015 6.0591 4.10578 6.11616 4.1123 6.17383C4.22735 7.18981 4.45649 8.54444 4.9043 9.93652C5.77212 12.6342 7.30309 15.0402 10 15.9199V18C2.99951 16.2729 2.1249 7.29152 2.01562 5.07422L2 4.5791L10 2L18 4.5791Z" fill="#000000"/>
</svg>
