<svg xmlns="http://www.w3.org/2000/svg" width="24" height="24" viewBox="0 0 24 24" fill="none"><rect width="24" height="24" fill="none"/>
<path d="M20 22H4V20H20V22Z" fill="#000000"/>
<path d="M12.4199 2C14.9676 2.00005 17.1083 3.91611 17.3896 6.44824L17.54 7.80078L17.2812 8.125L16.8145 8.70703C16.0483 9.66468 15.5973 10.8317 15.5146 12.0488C16.6848 12.158 18.0223 12.4683 19.1836 13.1318C20.7565 14.0306 22 15.5859 22 18V19H2V18C2 15.5859 3.24348 14.0306 4.81641 13.1318C5.97735 12.4684 7.31443 12.1581 8.48438 12.0488C8.40169 10.8317 7.95165 9.66466 7.18555 8.70703L6.71875 8.125L6.45996 7.80078L6.61035 6.44824C6.8917 3.91611 9.03237 2.00005 11.5801 2H12.4199ZM11.5801 4C10.0515 4.00005 8.76744 5.14968 8.59863 6.66895L8.53906 7.19824L8.74707 7.45801C9.88173 8.87639 10.4999 10.6387 10.5 12.4551V13C10.5 13.5523 10.0523 14 9.5 14C8.35226 14 6.91797 14.2342 5.80859 14.8682C4.99965 15.3304 4.36712 15.9963 4.11719 17H19.8828C19.6329 15.9963 19.0004 15.3304 18.1914 14.8682C17.082 14.2342 15.6477 14 14.5 14C13.9477 14 13.5 13.5523 13.5 13V12.4551C13.5001 10.6387 14.1183 8.87639 15.2529 7.45801L15.46 7.19824L15.4014 6.66895C15.2326 5.14968 13.9485 4.00005 12.4199 4H11.5801Z" fill="#000000"/>
</svg>
