<svg xmlns="http://www.w3.org/2000/svg" width="20" height="20" viewBox="0 0 20 20" fill="none"><rect width="20" height="20" fill="none"/>
<path d="M15.75 14.2518H19V15.7518H15.75V19.0018H14.25V15.7518H11V14.2518H14.25V11.0018H15.75V14.2518Z" fill="#000000"/>
<path d="M11.0127 2.91002C12.9709 2.18956 15.0484 3.63904 15.0488 5.72545V6.00084C16.683 6.02692 17.9997 7.35958 18 8.99986V9.00181H16.5V8.99986C16.4997 8.1717 15.8282 7.49986 15 7.49986H5C4.17176 7.49986 3.50031 8.1717 3.5 8.99986V14.9999C3.50027 15.8281 4.17174 16.4999 5 16.4999H9V17.9999H5C3.34331 17.9999 2.00027 16.6565 2 14.9999V8.3192C2.00031 7.06227 2.78426 5.93793 3.96387 5.50377L11.0127 2.91002ZM13.5488 5.72545C13.5484 4.68256 12.5101 3.95744 11.5312 4.31724L6.95996 5.99986H13.5488V5.72545Z" fill="#000000"/>
</svg>
