<svg xmlns="http://www.w3.org/2000/svg" width="20" height="20" viewBox="0 0 20 20" fill="none"><rect width="20" height="20" fill="none"/>
<path d="M13 10.7507C13.6904 10.7507 14.25 11.3103 14.25 12.0007C14.2497 12.6908 13.6902 13.2507 13 13.2507C12.3098 13.2507 11.7503 12.6908 11.75 12.0007C11.75 11.3103 12.3096 10.7507 13 10.7507Z" fill="#000000"/>
<path d="M11.0127 2.91086C12.9711 2.19018 15.0488 3.63951 15.0488 5.72629V6.00168C16.6832 6.02777 18 7.36016 18 9.0007V15.0007C17.9997 16.6573 16.6567 18.0007 15 18.0007H5C3.34333 18.0007 2.00029 16.6573 2 15.0007V8.32004C2.00008 7.06288 2.78409 5.93885 3.96387 5.50461L11.0127 2.91086ZM5 7.5007C4.17157 7.5007 3.5 8.17228 3.5 9.0007V15.0007C3.50029 15.8289 4.17175 16.5007 5 16.5007H15C15.8282 16.5007 16.4997 15.8289 16.5 15.0007V9.0007C16.5 8.17228 15.8284 7.5007 15 7.5007H5ZM13.5488 5.72629C13.5488 4.68303 12.5103 3.95806 11.5312 4.31809L6.95996 6.0007H13.5488V5.72629Z" fill="#000000"/>
</svg>
