<svg xmlns="http://www.w3.org/2000/svg" width="20" height="20" viewBox="0 0 20 20" fill="none"><rect width="20" height="20" fill="none"/>
<path d="M9 14H7.5V8H9V14Z" fill="#000000"/>
<path d="M12.5 14H11V8H12.5V14Z" fill="#000000"/>
<path d="M11 1C12.5188 1 13.75 2.23122 13.75 3.75V4.01074C15.2899 4.1378 16.5 5.42735 16.5 7V15C16.5 16.5726 15.2898 17.8612 13.75 17.9883V19H12.25V18H7.75V19H6.25V17.9883C4.71017 17.8612 3.5 16.5726 3.5 15V7C3.5 5.42735 4.71014 4.1378 6.25 4.01074V3.75C6.25 2.23122 7.48122 1 9 1H11ZM6.5 5.5C5.67157 5.5 5 6.17157 5 7V15C5 15.8284 5.67157 16.5 6.5 16.5H13.5C14.3284 16.5 15 15.8284 15 15V7C15 6.17157 14.3284 5.5 13.5 5.5H6.5ZM9 2.5C8.30964 2.5 7.75 3.05964 7.75 3.75V4H12.25V3.75C12.25 3.05964 11.6904 2.5 11 2.5H9Z" fill="#000000"/>
</svg>
