<svg xmlns="http://www.w3.org/2000/svg" width="20" height="20" viewBox="0 0 20 20" fill="none"><rect width="20" height="20" fill="none"/>
<path d="M9.29286 11.7069C9.68339 11.3165 10.3164 11.3164 10.7069 11.7069L13.0429 14.0429C13.4331 14.4334 13.4332 15.0665 13.0429 15.4569L10.7069 17.7929C10.3164 18.1835 9.68341 18.1834 9.29286 17.7929L6.95692 15.4569C6.56648 15.0664 6.56643 14.4333 6.95692 14.0429L9.29286 11.7069Z" fill="#000000"/>
<path d="M4.54383 6.95399C4.93436 6.56354 5.56739 6.56349 5.95789 6.95399L8.29481 9.2909C8.68493 9.68143 8.68513 10.3146 8.29481 10.705L5.95789 13.0419C5.56749 13.4322 4.93436 13.432 4.54383 13.0419L2.20692 10.705C1.81642 10.3145 1.81647 9.68143 2.20692 9.2909L4.54383 6.95399Z" fill="#000000"/>
<path d="M14.0429 6.95594C14.4334 6.5655 15.0664 6.56545 15.4569 6.95594L17.7929 9.29188C18.1831 9.68239 18.1832 10.3155 17.7929 10.7059L15.4569 13.0419C15.0666 13.4323 14.4335 13.4329 14.0429 13.0429L11.7059 10.7059C11.3154 10.3154 11.3155 9.6824 11.7059 9.29188L14.0429 6.95594Z" fill="#000000"/>
<path d="M9.29286 2.20692C9.68339 1.81647 10.3164 1.81642 10.7069 2.20692L13.0429 4.54286C13.433 4.93339 13.4332 5.56651 13.0429 5.95692L10.7069 8.29286C10.3165 8.68318 9.68338 8.68298 9.29286 8.29286L6.95692 5.95692C6.56642 5.56642 6.56647 4.93339 6.95692 4.54286L9.29286 2.20692Z" fill="#000000"/>
</svg>
