<svg xmlns="http://www.w3.org/2000/svg" width="20" height="20" viewBox="0 0 20 20" fill="none"><rect width="20" height="20" fill="none"/>
<path d="M6.75 4.37109C5.76196 4.94156 4.94156 5.76196 4.37109 6.75C3.8006 7.73812 3.5 8.85901 3.5 10C3.5 11.141 3.8006 12.2619 4.37109 13.25C4.94156 14.238 5.76196 15.0584 6.75 15.6289L6 16.9277C4.784 16.2256 3.77437 15.216 3.07227 14C2.37012 12.7838 2 11.4043 2 10C2 8.59571 2.37012 7.21615 3.07227 6C3.77437 4.78401 4.784 3.77437 6 3.07227L6.75 4.37109Z" fill="#000000"/>
<path d="M14 3.07227C15.216 3.77437 16.2256 4.78401 16.9277 6C17.6299 7.21615 18 8.59571 18 10C18 11.4043 17.6299 12.7838 16.9277 14C16.2256 15.216 15.216 16.2256 14 16.9277L13.25 15.6289C14.238 15.0584 15.0584 14.238 15.6289 13.25C16.1994 12.2619 16.5 11.141 16.5 10C16.5 8.85901 16.1994 7.73813 15.6289 6.75C15.0584 5.76196 14.238 4.94156 13.25 4.37109L14 3.07227Z" fill="#000000"/>
<path d="M8.5 7.40234C8.04408 7.66561 7.66561 8.04408 7.40234 8.5C7.13904 8.95606 7 9.47339 7 10C7 10.5266 7.13904 11.0439 7.40234 11.5C7.66561 11.9559 8.04408 12.3344 8.5 12.5977L7.75 13.8975C7.06591 13.5025 6.4975 12.9341 6.10254 12.25C5.70764 11.566 5.5 10.7899 5.5 10C5.5 9.21014 5.70764 8.43405 6.10254 7.75C6.4975 7.06591 7.06591 6.4975 7.75 6.10254L8.5 7.40234Z" fill="#000000"/>
<path d="M12.25 6.10254C12.9341 6.4975 13.5025 7.06591 13.8975 7.75C14.2924 8.43405 14.5 9.21014 14.5 10C14.5 10.7899 14.2924 11.566 13.8975 12.25C13.5025 12.9341 12.9341 13.5025 12.25 13.8975L11.5 12.5977C11.9559 12.3344 12.3344 11.9559 12.5977 11.5C12.861 11.0439 13 10.5266 13 10C13 9.47339 12.861 8.95606 12.5977 8.5C12.3344 8.04408 11.9559 7.66561 11.5 7.40234L12.25 6.10254Z" fill="#000000"/>
<path d="M10 9C10.5523 9 11 9.44772 11 10C11 10.5523 10.5523 11 10 11C9.44772 11 9 10.5523 9 10C9 9.44772 9.44772 9 10 9Z" fill="#000000"/>
</svg>
