<svg xmlns="http://www.w3.org/2000/svg" width="20" height="20" viewBox="0 0 20 20" fill="none"><rect width="20" height="20" fill="none"/>
<path d="M9 18H2V11H9V18ZM4 16H7V13H4V16Z" fill="#000000"/>
<path d="M14 18H11V15H14V18Z" fill="#000000"/>
<path d="M18 18H15V15H18V18Z" fill="#000000"/>
<path d="M14 14H11V11H14V14Z" fill="#000000"/>
<path d="M18 14H15V11H18V14Z" fill="#000000"/>
<path d="M9 9H2V2H9V9ZM4 7H7V4H4V7Z" fill="#000000"/>
<path d="M18 9H11V2H18V9ZM13 7H16V4H13V7Z" fill="#000000"/>
</svg>
