<svg xmlns="http://www.w3.org/2000/svg" width="24" height="24" viewBox="0 0 24 24" fill="none"><rect width="24" height="24" fill="none"/>
<path d="M23 15C23 15 23 21.5 18 23C13 21.5 13 15 13 15L18 13L23 15ZM15.1387 16.2988C15.216 16.7449 15.3343 17.2591 15.5156 17.7852C15.97 19.1029 16.7238 20.2665 18 20.8643C19.2762 20.2665 20.03 19.1029 20.4844 17.7852C20.6657 17.2592 20.783 16.7449 20.8604 16.2988L18 15.1543L15.1387 16.2988Z" fill="#000000"/>
<path d="M15 4C16.6568 4 18 5.34315 18 7V8H19C20.6568 8 21.9999 9.34324 22 11H20C19.9999 10.4478 19.5522 10 19 10H16V7C16 6.44772 15.5523 6 15 6H4V18H11V20H2V4H15Z" fill="#000000"/>
<path d="M10 14H6V12H10V14Z" fill="#000000"/>
<path d="M13 10H6V8H13V10Z" fill="#000000"/>
</svg>
