<svg xmlns="http://www.w3.org/2000/svg" width="24" height="24" viewBox="0 0 24 24" fill="none"><rect width="24" height="24" fill="none"/>
<path d="M20 17H21.5L21.5674 17.0049C21.7224 17.026 21.8604 17.1187 21.9375 17.2578C22.0254 17.4167 22.02 17.6106 21.9238 17.7646L19.4238 21.7646C19.3325 21.9108 19.1724 22 19 22C18.8276 22 18.6675 21.9108 18.5762 21.7646L16.0762 17.7646C15.98 17.6106 15.9746 17.4167 16.0625 17.2578C16.1506 17.0988 16.3182 17 16.5 17H18V14H20V17Z" fill="#000000"/>
<path d="M22 12H20V9.19922L12 13.6436L4 9.19922V18H14V20H2V4H22V12ZM4 6.91113L12 11.3555L20 6.91113V6H4V6.91113Z" fill="#000000"/>
</svg>
