<svg xmlns="http://www.w3.org/2000/svg" width="24" height="24" viewBox="0 0 24 24" fill="none"><rect width="24" height="24" fill="none"/>
<path d="M8 2C9.65685 2 11 3.34315 11 5V19C11 20.6051 9.73945 21.9158 8.1543 21.9961L8 22H5C3.34315 22 2 20.6569 2 19V5C2 3.34315 3.34315 2 5 2H8ZM5 4C4.44772 4 4 4.44772 4 5V19C4 19.5523 4.44772 20 5 20H8L8.10254 19.9951C8.60667 19.9438 9 19.5177 9 19V5C9 4.44772 8.55228 4 8 4H5Z" fill="#000000"/>
<path d="M19 2C20.6569 2 22 3.34315 22 5V11C22 12.6569 20.6569 14 19 14H16C14.3431 14 13 12.6569 13 11V5C13 3.34315 14.3431 2 16 2H19ZM16 4C15.4477 4 15 4.44772 15 5V11C15 11.5523 15.4477 12 16 12H19C19.5523 12 20 11.5523 20 11V5C20 4.44772 19.5523 4 19 4H16Z" fill="#000000"/>
</svg>
