<svg xmlns="http://www.w3.org/2000/svg" width="20" height="20" viewBox="0 0 20 20" fill="none"><rect width="20" height="20" fill="none"/>
<path d="M18.5303 17.4688L17.4697 18.5293L13.4473 14.5068C12.6481 15.0084 11.733 15.3421 10.75 15.4551V18H9.25V15.4551C6.01354 15.0831 3.5 12.3361 3.5 9H5C5 11.7614 7.23858 14 10 14C10.8507 14 11.6508 13.7864 12.3516 13.4111L1.46973 2.5293L2.53027 1.46875L18.5303 17.4688Z" fill="#000000"/>
<path d="M16.5 9C16.5 10.267 16.1358 11.448 15.5088 12.4473L14.4121 11.3506C14.7863 10.6497 15 9.85003 15 9H16.5Z" fill="#000000"/>
<path d="M10 2C11.6569 2 13 3.34315 13 5V9.93848L11.5 8.43848V5C11.5 4.17157 10.8284 3.5 10 3.5C9.17157 3.5 8.5 4.17157 8.5 5V5.43848L7.14355 4.08203C7.53138 2.87427 8.66338 2 10 2Z" fill="#000000"/>
</svg>
