<svg xmlns="http://www.w3.org/2000/svg" width="20" height="20" viewBox="0 0 20 20" fill="none"><rect width="20" height="20" fill="none"/>
<path d="M11 10.0859L13.207 12.293L11.793 13.707L9 10.9141V7H11V10.0859Z" fill="#000000"/>
<path d="M10 3C14.1421 3 17.5 6.35786 17.5 10.5C17.5 14.6421 14.1421 18 10 18C5.85786 18 2.5 14.6421 2.5 10.5C2.5 6.35786 5.85786 3 10 3ZM10 5C6.96243 5 4.5 7.46243 4.5 10.5C4.5 13.5376 6.96243 16 10 16C13.0376 16 15.5 13.5376 15.5 10.5C15.5 7.46243 13.0376 5 10 5Z" fill="#000000"/>
<path d="M5.70703 2.70703L2.70703 5.70703L1.29297 4.29297L4.29297 1.29297L5.70703 2.70703Z" fill="#000000"/>
<path d="M18.707 4.29297L17.293 5.70703L14.293 2.70703L15.707 1.29297L18.707 4.29297Z" fill="#000000"/>
</svg>
