<svg xmlns="http://www.w3.org/2000/svg" width="20" height="20" viewBox="0 0 20 20" fill="none"><rect width="20" height="20" fill="none"/>
<path d="M7.2998 1.95117C8.2663 1.95117 9.0498 2.73467 9.0498 3.70117V16.3008C9.0498 17.2673 8.2663 18.0508 7.2998 18.0508H3.7002C2.7337 18.0508 1.9502 17.2673 1.9502 16.3008V3.70117C1.9502 2.73467 2.7337 1.95117 3.7002 1.95117H7.2998ZM3.7002 3.45117C3.56212 3.45117 3.4502 3.5631 3.4502 3.70117V16.3008C3.4502 16.4389 3.56213 16.5508 3.7002 16.5508H7.2998C7.43788 16.5508 7.5498 16.4389 7.5498 16.3008V3.70117C7.5498 3.5631 7.43788 3.45117 7.2998 3.45117H3.7002Z" fill="#000000"/>
<path d="M16.2998 1.95117C17.2663 1.95117 18.0498 2.73467 18.0498 3.70117V11.3008C18.0498 12.2673 17.2663 13.0508 16.2998 13.0508H12.7002C11.7337 13.0508 10.9502 12.2673 10.9502 11.3008V3.70117C10.9502 2.73467 11.7337 1.95117 12.7002 1.95117H16.2998ZM12.7002 3.45117C12.5621 3.45117 12.4502 3.5631 12.4502 3.70117V11.3008C12.4502 11.4389 12.5621 11.5508 12.7002 11.5508H16.2998C16.4379 11.5508 16.5498 11.4389 16.5498 11.3008V3.70117C16.5498 3.5631 16.4379 3.45117 16.2998 3.45117H12.7002Z" fill="#000000"/>
</svg>
