<svg xmlns="http://www.w3.org/2000/svg" width="20" height="20" viewBox="0 0 20 20" fill="none"><rect width="20" height="20" fill="none"/>
<path d="M6.00012 2C6.17245 2.00004 6.33259 2.08922 6.42395 2.23535L8.92395 6.23535C9.02008 6.38936 9.02552 6.58334 8.93762 6.74219C8.84952 6.9011 8.68182 6.99995 8.50012 7H7.00012V7.33691C7.00012 8.02647 7.35583 8.66772 7.94055 9.0332L13.1202 12.2705C14.2897 13.0015 15.0001 14.284 15.0001 15.6631V17H13.0001V15.6631C13.0001 14.9735 12.6444 14.3323 12.0597 13.9668L10.0011 12.6797L7.94055 13.9668C7.35583 14.3323 7.00012 14.9735 7.00012 15.6631V17H5.00012V15.6631C5.00012 14.284 5.71052 13.0015 6.88 12.2705L8.1134 11.501L6.88 10.7295C5.71052 9.99853 5.00012 8.71605 5.00012 7.33691V7H3.50012C3.31841 6.99996 3.15072 6.9011 3.06262 6.74219C2.9747 6.58334 2.98014 6.38936 3.07629 6.23535L5.57629 2.23535C5.66765 2.08922 5.82778 2.00004 6.00012 2Z" fill="#000000"/>
<path d="M14.0001 2C14.1724 2.00004 14.3326 2.08922 14.4239 2.23535L16.9239 6.23535C17.0201 6.38936 17.0255 6.58334 16.9376 6.74219C16.8495 6.9011 16.6818 6.99995 16.5001 7H15.0001V7.33691C15.0001 8.56477 14.4363 9.71513 13.4874 10.4688L11.6251 9.30566L12.0597 9.0332C12.6444 8.66772 13.0001 8.02646 13.0001 7.33691V7H11.5001C11.3184 6.99996 11.1507 6.9011 11.0626 6.74219C10.9747 6.58334 10.9801 6.38936 11.0763 6.23535L13.5763 2.23535C13.6676 2.08922 13.8278 2.00003 14.0001 2Z" fill="#000000"/>
</svg>
