<svg xmlns="http://www.w3.org/2000/svg" width="24" height="24" viewBox="0 0 24 24" fill="none"><rect width="24" height="24" fill="none"/>
<path d="M18.2578 15.0625C18.4167 14.9746 18.6106 14.98 18.7646 15.0762L22.7646 17.5762C22.9108 17.6675 23 17.8276 23 18C23 18.1724 22.9108 18.3325 22.7646 18.4238L18.7646 20.9238C18.6106 21.02 18.4167 21.0254 18.2578 20.9375C18.0989 20.8494 18 20.6817 18 20.5V19C16.8954 19 16 19.8954 16 21V23H14V21C14 18.7909 15.7909 17 18 17V15.5C18 15.3183 18.0989 15.1506 18.2578 15.0625Z" fill="#000000"/>
<path d="M12 13C13.1193 13 14.1188 13.1034 15 13.3242V15.4092C14.2418 15.1486 13.2667 15 12 15C9.32507 15 7.9486 15.6554 7.1748 16.6523C6.34938 17.7159 6 19.4158 6 22H4C4 19.3558 4.33023 17.0551 5.59473 15.4258C6.91081 13.7302 9.03458 13 12 13Z" fill="#000000"/>
<path d="M12 2C14.7614 2 17 4.23858 17 7C17 9.76142 14.7614 12 12 12C9.23858 12 7 9.76142 7 7C7 4.23858 9.23858 2 12 2ZM12 4C10.3431 4 9 5.34315 9 7C9 8.65685 10.3431 10 12 10C13.6569 10 15 8.65685 15 7C15 5.34315 13.6569 4 12 4Z" fill="#000000"/>
</svg>
