<svg xmlns="http://www.w3.org/2000/svg" width="20" height="20" viewBox="0 0 20 20" fill="none"><rect width="20" height="20" fill="none"/>
<path d="M6 2C7.91166 2 9.5581 3.12996 10.3115 4.75781C11.1824 3.68556 12.511 3 14 3H18V5.25C18 7.87335 15.8734 10 13.25 10H10.75V12H16V15C16 16.6569 14.6569 18 13 18H7C5.34315 18 4 16.6569 4 15V12H9.25V8.75H6.75C4.12665 8.75 2 6.62335 2 4V2H6ZM5.5 15C5.5 15.8284 6.17157 16.5 7 16.5H13C13.8284 16.5 14.5 15.8284 14.5 15V13.5H5.5V15ZM14 4.5C12.2051 4.5 10.75 5.95507 10.75 7.75V8.5H13.25C15.0449 8.5 16.5 7.04493 16.5 5.25V4.5H14ZM3.5 4C3.5 5.79493 4.95507 7.25 6.75 7.25H9.25V6.75C9.25 4.95507 7.79493 3.5 6 3.5H3.5V4Z" fill="#000000"/>
</svg>
