<svg xmlns="http://www.w3.org/2000/svg" width="20" height="20" viewBox="0 0 20 20" fill="none"><rect width="20" height="20" fill="none"/>
<path d="M10 2C10.392 2 10.7478 2.22911 10.9102 2.58594L15.6416 12.9941C15.8778 13.5138 15.9999 14.0786 16 14.6494V18H14V14.6494C13.9999 14.3641 13.9384 14.0821 13.8203 13.8223L11.9463 9.7002C11.4155 9.86695 10.8638 9.96694 10.3037 9.99316C9.53921 10.0289 8.77803 9.92605 8.05273 9.69824L6.17969 13.8223C6.0616 14.0821 6.00006 14.3641 6 14.6494V18H4V14.6494C4.00006 14.0786 4.12217 13.5138 4.3584 12.9941L9.08984 2.58594L9.15918 2.45898C9.34134 2.17574 9.65673 2 10 2ZM8.88965 7.8584C9.31959 7.96788 9.76446 8.01602 10.2109 7.99512C10.5158 7.98081 10.8169 7.93422 11.1104 7.85938L10 5.41602L8.88965 7.8584Z" fill="#000000"/>
</svg>
