<svg xmlns="http://www.w3.org/2000/svg" width="20" height="20" viewBox="0 0 20 20" fill="none"><rect width="20" height="20" fill="none"/>
<path d="M4.33691 4.9999C5.71607 4.9999 6.99854 5.71026 7.72949 6.87978L10.9668 12.0595C11.3323 12.6441 11.9736 12.9999 12.6631 12.9999H13V11.4999C13 11.3182 13.0989 11.1505 13.2578 11.0624C13.4167 10.9745 13.6106 10.9799 13.7646 11.0761L17.7646 13.5761C17.9108 13.6674 18 13.8275 18 13.9999C17.9999 14.1722 17.9108 14.3324 17.7646 14.4237L13.7646 16.9237C13.6107 17.0198 13.4166 17.0253 13.2578 16.9374C13.0989 16.8493 13.0001 16.6816 13 16.4999V14.9999H12.6631C11.284 14.9999 10.0015 14.2895 9.27051 13.12L8.49902 11.8866L7.72949 13.12C6.99852 14.2895 5.71602 14.9999 4.33691 14.9999H3V12.9999H4.33691C5.02644 12.9999 5.66771 12.6441 6.0332 12.0595L7.32031 9.99892L6.0332 7.94033C5.66773 7.35557 5.02649 6.9999 4.33691 6.9999H3V4.9999H4.33691Z" fill="#000000"/>
<path d="M13.2578 3.0624C13.4167 2.97445 13.6106 2.97989 13.7646 3.07607L17.7646 5.57607C17.9108 5.66745 18 5.82754 18 5.9999C17.9999 6.17222 17.9108 6.33239 17.7646 6.42373L13.7646 8.92373C13.6107 9.01984 13.4166 9.02528 13.2578 8.9374C13.0989 8.84932 13.0001 8.68158 13 8.4999V6.9999H12.6631C11.9735 6.9999 11.3323 7.35557 10.9668 7.94033L10.6943 8.3749L9.53125 6.51259C10.2849 5.56371 11.4352 4.9999 12.6631 4.9999H13V3.4999C13 3.31817 13.0989 3.15052 13.2578 3.0624Z" fill="#000000"/>
</svg>
