<svg xmlns="http://www.w3.org/2000/svg" width="24" height="24" viewBox="0 0 24 24" fill="none"><rect width="24" height="24" fill="none"/>
<path d="M12 13C14.9658 13 17.0893 13.7309 18.4053 15.4268C19.6695 17.0561 20 19.356 20 22H18C18 19.4159 17.6505 17.7159 16.8252 16.6523C16.1276 15.7534 14.9398 15.134 12.752 15.0205L13.5 21.5L12 22.5664L10.5 21.5L11.2471 15.0205C9.05995 15.1341 7.87241 15.7535 7.1748 16.6523C6.34938 17.7159 6 19.4158 6 22H4C4 19.3558 4.33023 17.0551 5.59473 15.4258C6.91081 13.7302 9.03458 13 12 13Z" fill="#000000"/>
<path d="M12 2C14.7614 2 17 4.23858 17 7C17 9.76142 14.7614 12 12 12C9.23858 12 7 9.76142 7 7C7 4.23858 9.23858 2 12 2ZM12 4C10.3431 4 9 5.34315 9 7C9 8.65685 10.3431 10 12 10C13.6569 10 15 8.65685 15 7C15 5.34315 13.6569 4 12 4Z" fill="#000000"/>
</svg>
