<svg xmlns="http://www.w3.org/2000/svg" width="20" height="20" viewBox="0 0 20 20" fill="none"><rect width="20" height="20" fill="none"/>
<path d="M10 15.0498H5V13.5498H10V15.0498Z" fill="#000000"/>
<path d="M10 12.0498H5V10.5498H10V12.0498Z" fill="#000000"/>
<path d="M15 9.4502H10V7.9502H15V9.4502Z" fill="#000000"/>
<path d="M15 6.4502H10V4.9502H15V6.4502Z" fill="#000000"/>
<path d="M15.25 2C16.7688 2 18 3.23122 18 4.75V15.25C18 16.7688 16.7688 18 15.25 18H4.75C3.23122 18 2 16.7688 2 15.25V4.75C2 3.23122 3.23122 2 4.75 2H15.25ZM4.75 3.5C4.05964 3.5 3.5 4.05964 3.5 4.75V15.25C3.5 15.9404 4.05964 16.5 4.75 16.5H15.25C15.9404 16.5 16.5 15.9404 16.5 15.25V4.75C16.5 4.05964 15.9404 3.5 15.25 3.5H4.75Z" fill="#000000"/>
</svg>
