<svg xmlns="http://www.w3.org/2000/svg" width="20" height="20" viewBox="0 0 20 20" fill="none"><rect width="20" height="20" fill="none"/>
<path d="M15.4619 10.4999C15.6725 10.5 15.8566 10.6459 15.9092 10.8544L16.0801 11.5331C16.5095 11.6838 16.8998 11.9217 17.2295 12.2265L17.9658 12.0175C18.1663 11.9607 18.3798 12.0486 18.4863 12.2314L18.9346 13.0009C19.0456 13.1916 19.0119 13.4361 18.8535 13.5878L18.2725 14.1445C18.307 14.3409 18.3252 14.5434 18.3252 14.7499C18.3252 14.9565 18.307 15.159 18.2725 15.3554L18.8535 15.9121C19.0118 16.0637 19.0455 16.3074 18.9346 16.498L18.4863 17.2685C18.3798 17.4512 18.1663 17.5382 17.9658 17.4814L17.2295 17.2734C16.8998 17.5781 16.5095 17.8161 16.0801 17.9667L15.9092 18.6454C15.8565 18.8539 15.6724 18.9999 15.4619 18.9999H14.5381C14.3276 18.9999 14.1435 18.8539 14.0908 18.6454L13.9199 17.9658C13.4912 17.815 13.1017 17.5769 12.7725 17.2724L12.0342 17.4814C11.8337 17.5382 11.6202 17.4512 11.5137 17.2685L11.0654 16.498C10.9544 16.3074 10.9882 16.0637 11.1465 15.9121L11.7295 15.3535C11.6952 15.1576 11.6768 14.9559 11.6768 14.7499C11.6768 14.544 11.6952 14.3423 11.7295 14.1464L11.1465 13.5878C10.9881 13.4361 10.9544 13.1916 11.0654 13.0009L11.5137 12.2314C11.6202 12.0486 11.8337 11.9607 12.0342 12.0175L12.7725 12.2275C13.1017 11.923 13.4911 11.685 13.9199 11.5341L14.0908 10.8544C14.1434 10.6459 14.3276 10.5 14.5381 10.4999H15.4619ZM15.001 13.4736C14.3118 13.4736 13.753 14.045 13.7529 14.7499C13.753 15.4549 14.3118 16.0263 15.001 16.0263C15.6901 16.0262 16.249 15.4548 16.249 14.7499C16.249 14.0451 15.6901 13.4736 15.001 13.4736Z" fill="#000000"/>
<path d="M6.77441 2.41986C6.94818 2.27741 7.17713 2.22052 7.39746 2.26459L18 4.38471V7.99994H16.5V5.6142L8 3.914V17.9999H2V7.99994L6.5 7.24994V2.99994L6.50488 2.91596C6.52663 2.72295 6.62254 2.54442 6.77441 2.41986ZM3.5 9.27045V16.4999H6.5V8.77045L3.5 9.27045Z" fill="#000000"/>
</svg>
