<svg xmlns="http://www.w3.org/2000/svg" width="24" height="24" viewBox="0 0 24 24" fill="none"><rect width="24" height="24" fill="none"/>
<path d="M11 13C11.3447 13 11.678 13.0111 12 13.0312V15.0352C11.6885 15.0127 11.3558 15 11 15C8.32507 15 6.9486 15.6554 6.1748 16.6523C5.34938 17.7159 5 19.4158 5 22H3C3 19.3558 3.33023 17.0551 4.59473 15.4258C5.91081 13.7302 8.03458 13 11 13Z" fill="#000000"/>
<path d="M22 22H9V20H22V22Z" fill="#000000"/>
<path d="M20 13C21.1046 13 22 13.8954 22 15V16C22 17.1046 21.1046 18 20 18H16C14.8954 18 14 17.1046 14 16V15C14 13.8954 14.8954 13 16 13H20ZM16 16H20V15H16V16Z" fill="#000000"/>
<path d="M11 2C13.7614 2 16 4.23858 16 7C16 9.76142 13.7614 12 11 12C8.23858 12 6 9.76142 6 7C6 4.23858 8.23858 2 11 2ZM11 4C9.34315 4 8 5.34315 8 7C8 8.65685 9.34315 10 11 10C12.6569 10 14 8.65685 14 7C14 5.34315 12.6569 4 11 4Z" fill="#000000"/>
</svg>
