<svg xmlns="http://www.w3.org/2000/svg" width="20" height="20" viewBox="0 0 20 20" fill="none"><rect width="20" height="20" fill="none"/>
<path d="M18 10H16V8L14 6H4V12L6 14H13V12.5C13 12.3182 13.0988 12.1506 13.2578 12.0625C13.4167 11.9746 13.6106 11.98 13.7646 12.0762L17.7646 14.5762C17.9108 14.6675 18 14.8276 18 15C18 15.1724 17.9108 15.3325 17.7646 15.4238L13.7646 17.9238C13.6106 18.02 13.4167 18.0254 13.2578 17.9375C13.0988 17.8494 13 17.6818 13 17.5V16H2V4H18V10Z" fill="#000000"/>
<path d="M10 8C11.1046 8 12 8.89543 12 10C12 11.1046 11.1046 12 10 12C8.89543 12 8 11.1046 8 10C8 8.89543 8.89543 8 10 8Z" fill="#000000"/>
</svg>
