<svg xmlns="http://www.w3.org/2000/svg" width="20" height="20" viewBox="0 0 20 20" fill="none"><rect width="20" height="20" fill="none"/>
<path d="M15.0459 1.93457C16.3524 2.58765 17.4122 3.64675 18.0654 4.95312L18.3818 5.58691L16.4336 8.09277C15.3425 9.49588 14.75 11.2226 14.75 13V13.3105L12.6807 15.3799L12.2217 15.1963C10.8458 14.6459 9.58593 13.8762 8.48438 12.9287L3.70703 17.707L2.29297 16.293L7.07031 11.5146C6.12329 10.4133 5.3539 9.15374 4.80371 7.77832L4.62012 7.31934L6.68945 5.25H7C8.77744 5.25 10.5042 4.65759 11.9072 3.56641L14.4121 1.61816L15.0459 1.93457Z" fill="#000000"/>
</svg>
