<svg xmlns="http://www.w3.org/2000/svg" width="20" height="20" viewBox="0 0 20 20" fill="none"><rect width="20" height="20" fill="none"/>
<path d="M12.5 11.5C13.0523 11.5 13.5 11.9477 13.5 12.5C13.5 13.0523 13.0523 13.5 12.5 13.5C11.9477 13.5 11.5 13.0523 11.5 12.5C11.5 11.9477 11.9477 11.5 12.5 11.5Z" fill="#000000"/>
<path d="M6.5 7.5C7.05228 7.5 7.5 7.94772 7.5 8.5C7.5 9.05228 7.05228 9.5 6.5 9.5C5.94772 9.5 5.5 9.05228 5.5 8.5C5.5 7.94772 5.94772 7.5 6.5 7.5Z" fill="#000000"/>
<path d="M13.5 7.5C14.0523 7.5 14.5 7.94772 14.5 8.5C14.5 9.05228 14.0523 9.5 13.5 9.5C12.9477 9.5 12.5 9.05228 12.5 8.5C12.5 7.94772 12.9477 7.5 13.5 7.5Z" fill="#000000"/>
<path d="M10.5 5.5C11.0523 5.5 11.5 5.94772 11.5 6.5C11.5 7.05228 11.0523 7.5 10.5 7.5C9.94772 7.5 9.5 7.05228 9.5 6.5C9.5 5.94772 9.94772 5.5 10.5 5.5Z" fill="#000000"/>
<path d="M10 2C14.4183 2 18 5.58172 18 10C18 14.4183 14.4183 18 10 18C6 18 9 13.5 7.5 13.5C6 13.5 2 15.5 2 10C2 5.58172 5.58172 2 10 2ZM10 3.5C6.41015 3.5 3.5 6.41015 3.5 10C3.5 11.2236 3.72762 11.7864 3.88867 12.0234C4.00837 12.1995 4.14931 12.288 4.42188 12.3311C4.75599 12.3837 5.18942 12.3465 5.75195 12.249C5.88624 12.2257 6.01956 12.1999 6.1582 12.1738C6.29288 12.1485 6.43727 12.1218 6.57617 12.0977C6.83737 12.0523 7.17343 12 7.5 12C7.77952 12 8.11247 12.0526 8.44043 12.2285C8.77933 12.4104 9.02218 12.6758 9.18066 12.957C9.45778 13.4488 9.46573 13.9705 9.46094 14.2305C9.45533 14.5333 9.41474 14.8602 9.38477 15.1055C9.3511 15.3809 9.3229 15.6108 9.31055 15.833C9.29054 16.1931 9.3275 16.3494 9.34375 16.4004C9.40754 16.4341 9.58624 16.5 10 16.5C13.5899 16.5 16.5 13.5899 16.5 10C16.5 6.41015 13.5899 3.5 10 3.5Z" fill="#000000"/>
</svg>
