<svg xmlns="http://www.w3.org/2000/svg" width="20" height="20" viewBox="0 0 20 20" fill="none"><rect width="20" height="20" fill="none"/>
<path d="M14 11H12V9.41406L9.41406 12H11V14H6V9H8V10.5859L10.5859 8H9V6H14V11Z" fill="#000000"/>
<path d="M15 2C16.6568 2 17.9999 3.34326 18 5V15C18 16.6569 16.6569 18 15 18H5C3.34315 18 2 16.6569 2 15V5C2.00013 3.34326 3.34323 2 5 2H15ZM5 4C4.4478 4 4.00013 4.44783 4 5V15C4 15.5523 4.44772 16 5 16H15C15.5523 16 16 15.5523 16 15V5C15.9999 4.44783 15.5522 4 15 4H5Z" fill="#000000"/>
</svg>
