<svg xmlns="http://www.w3.org/2000/svg" width="24" height="24" viewBox="0 0 24 24" fill="none"><rect width="24" height="24" fill="none"/>
<path d="M19.0005 17H22.0005V19H19.0005V22H17.0005V19H14.0005V17H17.0005V14H19.0005V17Z" fill="#000000"/>
<path d="M18.7212 8H20.5005C20.806 8.00018 21.0952 8.14033 21.2847 8.37988C21.4741 8.61951 21.5444 8.93323 21.4742 9.23047L20.8199 12H18.7632L19.2359 10H4.25347L6.12164 18.2217C6.22516 18.6769 6.63038 19 7.09722 19H12.0005V21H7.09722C5.69658 21 4.48191 20.0308 4.17144 18.665L2.02496 9.22168C1.95764 8.92516 2.02961 8.61363 2.21929 8.37598C2.40904 8.13867 2.69668 8.00002 3.00054 8H5.27984L7.0523 2.68359L8.94879 3.31641L7.38726 8H16.6138L15.0523 3.31641L16.9488 2.68359L18.7212 8Z" fill="#000000"/>
<path d="M15.0005 14H9.00054V12H15.0005V14Z" fill="#000000"/>
</svg>
