<svg xmlns="http://www.w3.org/2000/svg" width="24" height="24" viewBox="0 0 24 24" fill="none"><rect width="24" height="24" fill="none"/>
<g clip-path="url(#clip0_147586_10645)">
<path d="M14.293 14.293C14.5702 14.0158 14.9845 13.926 15.3516 14.0635L23.3516 17.0635C23.7335 17.2069 23.9904 17.5686 24 17.9766C24.0094 18.3848 23.7689 18.758 23.3936 18.9189L20.2617 20.2607L18.9189 23.3936C18.758 23.7689 18.3848 24.0094 17.9766 24C17.5687 23.9903 17.2069 23.7335 17.0635 23.3516L14.0635 15.3516C13.9259 14.9845 14.0158 14.5702 14.293 14.293ZM18.0615 20.3164L18.7393 18.7383L19.1064 18.5811L20.3164 18.0615L16.709 16.709L18.0615 20.3164Z" fill="#000000"/>
<path d="M17 3C19.2091 3 21 4.79086 21 7V13H19V7C19 5.89543 18.1046 5 17 5H7C5.89543 5 5 5.89543 5 7V17C5 18.1046 5.89543 19 7 19H13V21H7C4.79086 21 3 19.2091 3 17V7C3 4.79086 4.79086 3 7 3H17Z" fill="#000000"/>
<path d="M12 13H7V11H12V13Z" fill="#000000"/>
<path d="M16 9H7V7H16V9Z" fill="#000000"/>
</g>
<defs>
<clipPath id="clip0_147586_10645">
<rect width="24" height="24" fill="white"/>
</clipPath>
</defs>
</svg>
