<svg xmlns="http://www.w3.org/2000/svg" width="20" height="20" viewBox="0 0 20 20" fill="none"><rect width="20" height="20" fill="none"/>
<path d="M18.207 12.207L12.207 18.207L10.793 16.793L16.793 10.793L18.207 12.207Z" fill="#000000"/>
<path d="M5.5 11C7.433 11 9 12.567 9 14.5C9 16.433 7.433 18 5.5 18C3.567 18 2 16.433 2 14.5C2 12.567 3.567 11 5.5 11ZM5.5 13C4.67157 13 4 13.6716 4 14.5C4 15.3284 4.67157 16 5.5 16C6.32843 16 7 15.3284 7 14.5C7 13.6716 6.32843 13 5.5 13Z" fill="#000000"/>
<path d="M16.75 15.5C17.4404 15.5 18 16.0596 18 16.75C18 17.4404 17.4404 18 16.75 18C16.0596 18 15.5 17.4404 15.5 16.75C15.5 16.0596 16.0596 15.5 16.75 15.5Z" fill="#000000"/>
<path d="M12.25 11C12.9404 11 13.5 11.5596 13.5 12.25C13.5 12.9404 12.9404 13.5 12.25 13.5C11.5596 13.5 11 12.9404 11 12.25C11 11.5596 11.5596 11 12.25 11Z" fill="#000000"/>
<path d="M5.5 2C7.433 2 9 3.567 9 5.5C9 7.433 7.433 9 5.5 9C3.567 9 2 7.433 2 5.5C2 3.567 3.567 2 5.5 2ZM5.5 4C4.67157 4 4 4.67157 4 5.5C4 6.32843 4.67157 7 5.5 7C6.32843 7 7 6.32843 7 5.5C7 4.67157 6.32843 4 5.5 4Z" fill="#000000"/>
<path d="M14.5 2C16.433 2 18 3.567 18 5.5C18 7.433 16.433 9 14.5 9C12.567 9 11 7.433 11 5.5C11 3.567 12.567 2 14.5 2ZM14.5 4C13.6716 4 13 4.67157 13 5.5C13 6.32843 13.6716 7 14.5 7C15.3284 7 16 6.32843 16 5.5C16 4.67157 15.3284 4 14.5 4Z" fill="#000000"/>
</svg>
