<svg xmlns="http://www.w3.org/2000/svg" width="20" height="20" viewBox="0 0 20 20" fill="none"><rect width="20" height="20" fill="none"/>
<path d="M8.43945 2.15364C10.2546 1.79267 12.1393 2.0723 13.7715 2.94466C15.4035 3.81706 16.6823 5.22917 17.3906 6.9388C18.0987 8.64856 18.1924 10.5516 17.6553 12.3226C17.118 14.0935 15.983 15.6235 14.4443 16.6517C12.9055 17.6799 11.0577 18.1436 9.21582 17.9622C7.37399 17.7808 5.65149 16.9662 4.34277 15.6575L3.98926 16.0111C3.85537 16.1446 3.65698 16.1919 3.47754 16.1322C3.29832 16.0723 3.16774 15.9158 3.14062 15.7288L2.78711 13.2533C2.765 13.0977 2.81764 12.9396 2.92871 12.8284C3.03998 12.7173 3.19778 12.6656 3.35352 12.6878L5.82812 13.0413C6.01541 13.0683 6.1716 13.1987 6.23145 13.3783C6.29105 13.5578 6.2451 13.7562 6.11133 13.89L5.40332 14.597C6.46664 15.6602 7.86681 16.3217 9.36328 16.4691C10.8596 16.6164 12.3611 16.2399 13.6113 15.4046C14.8614 14.5692 15.7832 13.3258 16.2197 11.887C16.6561 10.4482 16.5802 8.90216 16.0049 7.51302C15.4294 6.12399 14.3904 4.97675 13.0645 4.2679C11.7383 3.55909 10.2063 3.33198 8.73145 3.62532C7.25699 3.91874 5.92944 4.7143 4.97559 5.8763C4.02177 7.03862 3.50009 8.49674 3.5 10.0003H2C2.00009 8.1498 2.64157 6.35568 3.81543 4.92513C4.98956 3.49455 6.6243 2.51471 8.43945 2.15364Z" fill="#000000"/>
<path d="M12.25 11.0003C12.9403 11.0003 13.4999 11.5601 13.5 12.2503C13.4998 12.9405 12.9402 13.5003 12.25 13.5003C11.5598 13.5003 11.0002 12.9405 11 12.2503C11.0001 11.5601 11.5598 11.0004 12.25 11.0003Z" fill="#000000"/>
<path d="M13.0303 8.03059L8.03027 13.0306L6.96973 11.97L11.9697 6.97005L13.0303 8.03059Z" fill="#000000"/>
<path d="M7.75 6.50032C8.44028 6.50032 8.99987 7.06007 9 7.75032C8.99981 8.44051 8.44024 9.00032 7.75 9.00032C7.05976 9.00032 6.50019 8.44051 6.5 7.75032C6.50013 7.06007 7.05972 6.50032 7.75 6.50032Z" fill="#000000"/>
</svg>
