<svg xmlns="http://www.w3.org/2000/svg" width="24" height="24" viewBox="0 0 24 24" fill="none"><rect width="24" height="24" fill="none"/>
<path d="M8.1543 2.00391C9.73945 2.08421 11 3.39489 11 5V19C11 20.6569 9.65685 22 8 22H5C3.34315 22 2 20.6569 2 19V5C2 3.34315 3.34315 2 5 2H8L8.1543 2.00391ZM5 4C4.44772 4 4 4.44772 4 5V19C4 19.5523 4.44772 20 5 20H8C8.55228 20 9 19.5523 9 19V5C9 4.48232 8.60667 4.05621 8.10254 4.00488L8 4H5Z" fill="#000000"/>
<path d="M19.1543 15.0039C20.7394 15.0842 22 16.3949 22 18V19C22 20.6569 20.6569 22 19 22H16C14.3431 22 13 20.6569 13 19V18C13 16.3431 14.3431 15 16 15H19L19.1543 15.0039ZM16 17C15.4477 17 15 17.4477 15 18V19C15 19.5523 15.4477 20 16 20H19C19.5523 20 20 19.5523 20 19V18C20 17.4823 19.6067 17.0562 19.1025 17.0049L19 17H16Z" fill="#000000"/>
<path d="M19.1543 2.00391C20.7394 2.08421 22 3.39489 22 5V10C22 11.6569 20.6569 13 19 13H16C14.3431 13 13 11.6569 13 10V5C13 3.34315 14.3431 2 16 2H19L19.1543 2.00391ZM16 4C15.4477 4 15 4.44772 15 5V10C15 10.5523 15.4477 11 16 11H19C19.5523 11 20 10.5523 20 10V5C20 4.48232 19.6067 4.05621 19.1025 4.00488L19 4H16Z" fill="#000000"/>
</svg>
