<svg xmlns="http://www.w3.org/2000/svg" width="20" height="20" viewBox="0 0 20 20" fill="none"><rect width="20" height="20" fill="none"/>
<path d="M15.0063 2.25391C15.6199 2.29748 16.17 2.66219 16.4478 3.21777L17.5659 5.45312C17.6874 5.69607 17.7505 5.96472 17.7505 6.23633V7.23047C17.7504 8.11693 17.3626 8.91144 16.7505 9.46094V17.75H11.2505V14.8926C11.2503 14.1976 10.6866 13.6342 9.9917 13.6338C9.29646 13.6338 8.73215 14.1974 8.73193 14.8926V17.75H3.25049V9.48242C2.63762 8.93314 2.24951 8.13777 2.24951 7.25V7L2.25049 6.23633C2.25049 5.96465 2.31356 5.69612 2.43506 5.45312L3.55322 3.21777C3.84969 2.62501 4.45587 2.25 5.11865 2.25H14.8823L15.0063 2.25391ZM12.4351 9.1377C11.8336 9.81853 10.9555 10.2499 9.98291 10.25C9.02575 10.2499 8.15836 9.82776 7.56299 9.15918C7.01273 9.82508 6.18081 10.25 5.24951 10.25C5.07946 10.25 4.91281 10.2352 4.75049 10.208V16.25H7.23193V14.8926C7.23215 13.369 8.46803 12.1338 9.9917 12.1338C11.515 12.1342 12.7503 13.3692 12.7505 14.8926V16.25H15.2505V10.1846C15.0961 10.2105 14.9384 10.229 14.7769 10.2305C13.8347 10.2387 12.9908 9.81147 12.4351 9.1377ZM5.11865 3.75C5.02403 3.75 4.9374 3.80409 4.89502 3.88867L3.77686 6.12402C3.7595 6.15874 3.75049 6.19752 3.75049 6.23633L3.74951 7V7.25C3.74951 8.07829 4.42127 8.74978 5.24951 8.75C6.07794 8.75 6.74951 8.07843 6.74951 7.25V7H8.24951V7.03809C8.24978 7.97554 9.02944 8.74986 9.98291 8.75C10.9559 8.74974 11.7505 7.95962 11.7505 7H13.2505V7.23047C13.2506 8.06375 13.93 8.73752 14.7632 8.73047C15.5861 8.72299 16.2503 8.05347 16.2505 7.23047V6.23633C16.2505 6.19759 16.2414 6.15869 16.2241 6.12402L15.106 3.88867C15.0743 3.82538 15.0176 3.77891 14.9517 3.75977L14.8823 3.75H5.11865Z" fill="#000000"/>
</svg>
