<svg xmlns="http://www.w3.org/2000/svg" width="20" height="20" viewBox="0 0 20 20" fill="none"><rect width="20" height="20" fill="none"/>
<path d="M4.5 13.0003C5.88071 13.0003 7 14.1195 7 15.5003C6.99962 16.8806 5.88048 18.0003 4.5 18.0003C3.11952 18.0003 2.00038 16.8806 2 15.5003C2 14.1195 3.11929 13.0003 4.5 13.0003ZM4.5 14.5003C3.94772 14.5003 3.5 14.948 3.5 15.5003C3.50038 16.0522 3.94795 16.5003 4.5 16.5003C5.05205 16.5003 5.49962 16.0522 5.5 15.5003C5.5 14.948 5.05228 14.5003 4.5 14.5003Z" fill="#000000"/>
<path d="M12 5.50025H6.3252C5.28966 5.50025 4.4502 6.33972 4.4502 7.37525C4.45058 8.41046 5.2899 9.25025 6.3252 9.25025H13.6748C15.5388 9.25025 17.0498 10.7613 17.0498 12.6253C17.0494 14.4889 15.5385 16.0003 13.6748 16.0003H8.5V14.5003H13.6748C14.7101 14.5003 15.5494 13.6605 15.5498 12.6253C15.5498 11.5897 14.7103 10.7503 13.6748 10.7503H6.3252C4.46147 10.7503 2.95058 9.23889 2.9502 7.37525C2.9502 5.51129 4.46123 4.00025 6.3252 4.00025H12V5.50025Z" fill="#000000"/>
<path d="M14.2637 2.30982C14.4263 2.22281 14.6239 2.23195 14.7773 2.33424L17.7773 4.33424C17.9162 4.427 18 4.58321 18 4.75025C17.9998 4.91717 17.9162 5.07367 17.7773 5.16627L14.7773 7.16627C14.6241 7.26829 14.4261 7.27746 14.2637 7.19068C14.1016 7.10371 14.0003 6.9342 14 6.75025V2.75025C14 2.56615 14.1015 2.39696 14.2637 2.30982Z" fill="#000000"/>
</svg>
