<svg xmlns="http://www.w3.org/2000/svg" width="24" height="24" viewBox="0 0 24 24" fill="none"><rect width="24" height="24" fill="none"/>
<path d="M13 17.5H11V14.5H13V17.5Z" fill="#000000"/>
<path d="M12 2C14.7614 2 17 4.2386 17 7V10H19V18C19 20.2091 17.2091 22 15 22H9C6.79086 22 5 20.2091 5 18V10H7V7C7.00005 4.23865 9.23865 2.00002 12 2ZM7 18C7 19.1046 7.89543 20 9 20H15C16.1046 20 17 19.1046 17 18V12H7V18ZM12 4C10.3432 4.00002 9.00003 5.3432 9 7V10H15V7C15 5.34317 13.6568 4 12 4Z" fill="#000000"/>
</svg>
