<svg xmlns="http://www.w3.org/2000/svg" width="24" height="24" viewBox="0 0 24 24" fill="none"><rect width="24" height="24" fill="none"/>
<path d="M22.207 15.207L15.207 22.207L13.793 20.793L20.793 13.793L22.207 15.207Z" fill="#000000"/>
<path d="M20.5 19C21.3284 19 22 19.6716 22 20.5C22 21.3284 21.3284 22 20.5 22C19.6716 22 19 21.3284 19 20.5C19 19.6716 19.6716 19 20.5 19Z" fill="#000000"/>
<path d="M17 3C19.2091 3 21 4.79086 21 7V12H19V7C19 5.89543 18.1046 5 17 5H7C5.89543 5 5 5.89543 5 7V17C5 18.1046 5.89543 19 7 19H12V21H7C4.79086 21 3 19.2091 3 17V7C3 4.79086 4.79086 3 7 3H17Z" fill="#000000"/>
<path d="M15.5 14C16.3284 14 17 14.6716 17 15.5C17 16.3284 16.3284 17 15.5 17C14.6716 17 14 16.3284 14 15.5C14 14.6716 14.6716 14 15.5 14Z" fill="#000000"/>
<path d="M12 13H7V11H12V13Z" fill="#000000"/>
<path d="M16 9H7V7H16V9Z" fill="#000000"/>
</svg>
