<svg xmlns="http://www.w3.org/2000/svg" width="24" height="24" viewBox="0 0 24 24" fill="none"><rect width="24" height="24" fill="none"/>
<path d="M8 4H6C4.89543 4 4 4.89543 4 6V18C4 19.1046 4.89543 20 6 20H8V22H6C3.79086 22 2 20.2091 2 18V6C2 3.79086 3.79086 2 6 2H8V4Z" fill="#000000"/>
<path d="M18 2C20.2091 2 22 3.79086 22 6V18C22 20.2091 20.2091 22 18 22H16V20H18C19.1046 20 20 19.1046 20 18V6C20 4.89543 19.1046 4 18 4H16V2H18Z" fill="#000000"/>
<path d="M9 17H7V7H9V17Z" fill="#000000"/>
<path d="M13 17H11V7H13V17Z" fill="#000000"/>
<path d="M17 17H15V7H17V17Z" fill="#000000"/>
</svg>
