<svg xmlns="http://www.w3.org/2000/svg" width="24" height="24" viewBox="0 0 24 24" fill="none"><rect width="24" height="24" fill="none"/>
<path d="M19.9998 18.0006H22.9998V20.0006H19.9998V23.0006H17.9998V20.0006H14.9998V18.0006H17.9998V15.0006H19.9998V18.0006Z" fill="#000000"/>
<path d="M12.4998 6.49958C15.261 6.49964 17.4995 8.73845 17.4998 11.4996V11.5621L9.03108 20.0308L8.84553 20.2174L8.58382 20.2457L4.20784 20.732C3.66649 20.7921 3.20927 20.3349 3.26936 19.7935L3.75569 15.4176L3.78401 15.1558L3.97053 14.9703L12.4412 6.49958H12.4998Z" fill="#000000"/>
<path d="M14.9705 3.97029C16.368 2.57317 18.6337 2.57294 20.0311 3.97029C21.4281 5.36766 21.4281 7.63346 20.0311 9.03083L19.285 9.77595C18.6567 7.2958 16.7054 5.34308 14.2254 4.71443L14.9705 3.97029Z" fill="#000000"/>
</svg>
