<svg xmlns="http://www.w3.org/2000/svg" width="20" height="20" viewBox="0 0 20 20" fill="none"><rect width="20" height="20" fill="none"/>
<path d="M17.3857 10.5615C17.5409 10.4198 17.7818 10.5825 17.708 10.7793L16.5 14H18C18.4043 14.0001 18.7691 14.2437 18.9238 14.6172C19.0785 14.9908 18.9929 15.4211 18.707 15.707L14.2285 19.3994C14.0619 19.5368 13.8258 19.3494 13.9219 19.1562L15.5 16H14C13.6077 16 13.252 15.7703 13.0898 15.4131C12.9278 15.0559 12.9889 14.6371 13.2471 14.3418L17.3857 10.5615Z" fill="#000000"/>
<path d="M15 3C16.6547 3 18 4.33811 18 5.99707V9H4V14C4 14.5523 4.44772 15 5 15H11V17H5C3.34315 17 2 15.6569 2 14V6C2 4.34315 3.34315 3 5 3H15ZM5 5C4.44772 5 4 5.44772 4 6V7H16V5.99707C16 5.44689 15.5544 5 15 5H5Z" fill="#000000"/>
</svg>
