<svg xmlns="http://www.w3.org/2000/svg" width="24" height="24" viewBox="0 0 24 24" fill="none"><rect width="24" height="24" fill="none"/>
<path d="M10.3012 3.7935C12.4574 1.63754 15.6684 1.18413 18.2689 2.42632L18.4193 4.14214L15.6322 6.13432C15.1296 6.49358 15.0704 7.21896 15.5072 7.65581L16.2377 8.38628C16.6627 8.81092 17.3633 8.76728 17.7328 8.2935L19.8783 5.54253L21.5687 5.72612C22.8109 8.32665 22.3575 11.5377 20.2016 13.6939C18.7431 15.1524 16.5348 15.9657 14.2201 15.5181C14.1801 15.5104 14.1475 15.5131 14.1283 15.5181C14.1122 15.5224 14.11 15.5264 14.1137 15.523L8.79628 20.8404C7.24299 22.3937 4.72459 22.3937 3.17128 20.8404C1.62414 19.2932 1.61718 16.7868 3.15566 15.231L8.49745 9.82964C8.49874 9.82695 8.50051 9.82217 8.50234 9.81499C8.50768 9.79347 8.50991 9.75631 8.50038 9.71147C8.01524 7.42557 8.8576 5.23708 10.3012 3.7935ZM15.5248 3.75249C14.1551 3.67798 12.7616 4.16334 11.7162 5.20854C10.6928 6.23199 10.1291 7.74985 10.4574 9.29643C10.5922 9.93133 10.4629 10.6873 9.91933 11.2369L4.57753 16.6373C3.8127 17.4107 3.81619 18.6571 4.58535 19.4263C5.3576 20.1986 6.60997 20.1986 7.38222 19.4263L12.6996 14.108C13.2326 13.5751 13.9692 13.4324 14.6 13.5542C16.221 13.8676 17.767 13.2984 18.7865 12.2789C19.8651 11.2002 20.3466 9.75076 20.2328 8.3394L19.3109 9.523C18.2025 10.9451 16.0987 11.0751 14.8236 9.80034L14.0922 9.06987C12.7817 7.7593 12.9614 5.58512 14.4691 4.50737L15.5248 3.75249Z" fill="#000000"/>
</svg>
