<svg xmlns="http://www.w3.org/2000/svg" width="24" height="24" viewBox="0 0 24 24" fill="none"><rect width="24" height="24" fill="none"/>
<path d="M18.5547 13.0001C18.8079 13.0001 19.0294 13.1719 19.0928 13.4171L19.2988 14.2159C19.8155 14.3932 20.2849 14.6738 20.6816 15.0323L21.5684 14.7862C21.8094 14.7196 22.0652 14.8224 22.1934 15.0372L22.7334 15.9434C22.867 16.1677 22.8262 16.4544 22.6357 16.6329L21.9365 17.2882C21.978 17.5191 22 17.7572 22 18.0001C22 18.243 21.978 18.481 21.9365 18.712L22.6357 19.3673C22.8263 19.5457 22.867 19.8334 22.7334 20.0577L22.1934 20.963C22.0652 21.1779 21.8095 21.2806 21.5684 21.2139L20.6816 20.9688C20.285 21.3274 19.8155 21.6069 19.2988 21.7843L19.0928 22.5831C19.0295 22.8283 18.808 23 18.5547 23.0001H17.4434C17.19 23.0001 16.9686 22.8284 16.9053 22.5831L16.6982 21.7833C16.1825 21.6058 15.7144 21.326 15.3184 20.9678L14.4297 21.2139C14.1885 21.2808 13.9319 21.178 13.8037 20.963L13.2637 20.0577C13.1301 19.8334 13.1708 19.5457 13.3613 19.3673L14.0625 18.71C14.0213 18.4797 14 18.2422 14 18.0001C14 17.7579 14.0212 17.5204 14.0625 17.2901L13.3613 16.6329C13.171 16.4545 13.1303 16.1676 13.2637 15.9434L13.8037 15.0372C13.9319 14.8223 14.1885 14.7194 14.4297 14.7862L15.3184 15.0323C15.7144 14.6743 16.1825 14.3943 16.6982 14.2169L16.9053 13.4171C16.9687 13.1719 17.1901 13.0001 17.4434 13.0001H18.5547ZM18 16.4991C17.1708 16.4991 16.4984 17.171 16.498 18.0001C16.498 18.8295 17.1706 19.502 18 19.502C18.8293 19.5019 19.502 18.8294 19.502 18.0001C19.5016 17.171 18.8291 16.4992 18 16.4991Z" fill="#000000"/>
<path d="M9.40332 2.19734C9.65676 2.00904 9.98465 1.95145 10.2871 2.04207L21 5.25594V11.0001H19V6.74422L11 4.34383V21.0001H3V11.0001L9 8.75008V3.00008L9.00684 2.88289C9.03891 2.61161 9.18142 2.36245 9.40332 2.19734ZM5 12.3858V19.0001H9V10.8858L5 12.3858Z" fill="#000000"/>
</svg>
