<svg xmlns="http://www.w3.org/2000/svg" width="20" height="20" viewBox="0 0 20 20" fill="none"><rect width="20" height="20" fill="none"/>
<path d="M11.001 5C11.553 5.00026 12.001 5.44788 12.001 6C12.0007 6.5519 11.5529 6.99974 11.001 7H9.00098C8.44885 7 8.00124 6.55206 8.00098 6C8.00098 5.44772 8.44869 5 9.00098 5H11.001Z" fill="#000000"/>
<path d="M12.3008 1.94922C14.3717 1.94938 16.0508 3.62825 16.0508 5.69922V14.2998C16.0506 16.3706 14.3716 18.0496 12.3008 18.0498H7.7002C5.62923 18.0498 3.95035 16.3707 3.9502 14.2998V5.69922C3.9502 3.62815 5.62913 1.94922 7.7002 1.94922H12.3008ZM7.7002 3.44922C6.45756 3.44922 5.4502 4.45658 5.4502 5.69922V14.2998C5.45035 15.5423 6.45765 16.5498 7.7002 16.5498H12.3008C13.5432 16.5496 14.5506 15.5422 14.5508 14.2998V5.69922C14.5508 4.45668 13.5433 3.44938 12.3008 3.44922H7.7002Z" fill="#000000"/>
</svg>
