<svg xmlns="http://www.w3.org/2000/svg" width="20" height="20" viewBox="0 0 20 20" fill="none"><rect width="20" height="20" fill="none"/>
<path d="M9.29321 3.29288C11.3405 1.24623 14.6601 1.24602 16.7073 3.29288C18.7541 5.34005 18.7548 8.65962 16.7083 10.7069L12.2073 15.2069C10.9885 16.4255 9.01312 16.4253 7.79419 15.2069C6.57531 13.9881 6.57447 12.0118 7.79321 10.7929L12.2932 6.2919L13.7073 7.70596L9.20728 12.2069C8.76958 12.6449 8.77042 13.355 9.20825 13.7929C9.64613 14.2302 10.3555 14.2304 10.7932 13.7929L15.2942 9.29288C16.5597 8.02661 16.559 5.97306 15.2932 4.70694C14.0271 3.44116 11.9745 3.44141 10.7083 4.70694L5.95044 9.46475L5.77368 9.65127C4.0001 11.614 4.05877 14.6444 5.95044 16.536L6.20728 16.7929L4.79321 18.2069L4.53638 17.9501C1.88821 15.3019 1.80484 11.0593 4.28735 8.31143L4.53638 8.05069L9.29321 3.29288Z" fill="#000000"/>
</svg>
