<svg xmlns="http://www.w3.org/2000/svg" width="24" height="24" viewBox="0 0 24 24" fill="none"><rect width="24" height="24" fill="none"/>
<path d="M22 22H18V11H22V22Z" fill="#000000"/>
<path d="M16 20.5928L12.8447 21.5586C10.6592 22.2276 8.31031 22.1275 6.18945 21.2754L2 19.5928C2 18.4883 2.89554 17.5929 4 17.5928H9.11328C9.96427 17.5928 10.8084 17.4398 11.6055 17.1416L12.3623 16.8584L12.0557 15.2812L11.25 15.6309C10.6894 15.8741 10.0847 16 9.47363 16H7.18262C6.69473 15.9998 6.25803 15.6965 6.08789 15.2393C5.86303 14.6347 6.17101 13.9624 6.77539 13.7373L12.8438 11.4795C13.6963 11.1623 14.5991 11 15.5088 11H16V20.5928Z" fill="#000000"/>
<path d="M9.23438 2C9.59946 2 9.96097 2.0725 10.2969 2.21289C10.6328 2.35331 10.9364 2.559 11.1895 2.81738C11.7094 3.34771 12 4.05502 12 4.79102C12 5.52697 11.7094 6.23434 11.1895 6.76465L6.99316 10.9854V11L2.80957 6.7627C2.29022 6.23246 2 5.52558 2 4.79004C2.00001 4.0545 2.2902 3.34761 2.80957 2.81738C3.0626 2.559 3.36621 2.35331 3.70215 2.21289C4.03809 2.07247 4.39951 2 4.76465 2C5.12976 2.00001 5.49123 2.07248 5.82715 2.21289C6.16304 2.35331 6.46673 2.55903 6.71973 2.81738L7 3.09863L7.2793 2.81738C7.53226 2.55907 7.83604 2.35331 8.17188 2.21289C8.50774 2.0725 8.86932 2.00003 9.23438 2Z" fill="#000000"/>
</svg>
