<svg xmlns="http://www.w3.org/2000/svg" width="20" height="20" viewBox="0 0 20 20" fill="none"><rect width="20" height="20" fill="none"/>
<path d="M8.63557 3.13532C9.99315 2.86547 11.4007 3.00407 12.6795 3.53376C13.9582 4.06363 15.0521 4.96103 15.8211 6.11188C16.5898 7.26279 17.0008 8.61653 17.0008 10.0006H18.5008C18.6823 10.0008 18.8503 10.0996 18.9383 10.2584C19.0258 10.4171 19.0206 10.6114 18.9246 10.7652L16.4246 14.7652C16.3334 14.9111 16.1728 15.0003 16.0008 15.0006C15.8287 15.0006 15.6684 14.9109 15.577 14.7652L13.077 10.7652C12.9808 10.6113 12.9755 10.4172 13.0633 10.2584C13.1514 10.0994 13.319 10.0006 13.5008 10.0006H15.0008C15.0008 9.012 14.7071 8.04429 14.158 7.22224C13.6088 6.40045 12.827 5.75984 11.9139 5.38142C11.0005 5.00312 9.99487 4.9035 9.02521 5.09626C8.05533 5.28919 7.16489 5.76615 6.46564 6.4654C5.7664 7.16465 5.28944 8.05509 5.0965 9.02497C4.90375 9.99463 5.00336 11.0002 5.38166 11.9136C5.76009 12.8267 6.40069 13.6086 7.22248 14.1578C8.04454 14.7068 9.01225 15.0006 10.0008 15.0006V17.0006C8.61678 17.0006 7.26303 16.5896 6.11213 15.8209C4.96128 15.0519 4.06387 13.9579 3.534 12.6793C3.00431 11.4005 2.86571 9.99291 3.13557 8.63532C3.40566 7.27745 4.07164 6.02933 5.05061 5.05036C6.02957 4.07139 7.2777 3.40542 8.63557 3.13532Z" fill="#000000"/>
</svg>
