<svg xmlns="http://www.w3.org/2000/svg" width="20" height="20" viewBox="0 0 20 20" fill="none"><rect width="20" height="20" fill="none"/>
<path d="M10.457 2.13086C10.9159 2.15741 11.2185 2.48472 11.3115 2.8252C11.4016 3.15476 11.3168 3.55632 11 3.82227C10.0703 4.60303 9.48145 5.77257 9.48145 7.08008L9.4873 7.29883C9.60141 9.54426 11.4579 11.3301 13.7314 11.3301L13.917 11.3262C14.8409 11.2863 15.6867 10.9508 16.3662 10.4121L16.4912 10.3281C16.7911 10.1575 17.1383 10.1729 17.4053 10.3086C17.7202 10.4688 17.9795 10.8313 17.9131 11.2852C17.3474 15.1494 14.0228 18.1169 10.001 18.1172C5.58275 18.1172 2.0011 14.5353 2.00098 10.1172C2.00098 5.69891 5.5827 2.11719 10.001 2.11719C10.1542 2.1172 10.3064 2.12215 10.457 2.13086ZM9.09375 3.68066C5.93341 4.12206 3.50098 6.83525 3.50098 10.1172L3.50977 10.4512C3.68372 13.8857 6.52324 16.6172 10.001 16.6172L10.3057 16.6104C12.9915 16.4862 15.2492 14.7302 16.1162 12.3115C15.3898 12.6438 14.5822 12.83 13.7314 12.8301C10.5559 12.8301 7.98175 10.2554 7.98145 7.08008C7.98145 5.80844 8.39522 4.63297 9.09375 3.68066Z" fill="#000000"/>
</svg>
