<svg xmlns="http://www.w3.org/2000/svg" width="24" height="24" viewBox="0 0 24 24" fill="none"><rect width="24" height="24" fill="none"/>
<path d="M21.707 20.293L20.293 21.707L17.5859 19H15C15 20.6568 13.6568 22 12 22C10.3433 21.9998 9 20.6567 9 19H6.53906C5.0919 18.9998 4.12324 17.51 4.71094 16.1875L5.91406 13.4814C5.97079 13.3537 6 13.215 6 13.0752V10C6 9.23169 6.14501 8.49734 6.4082 7.82227L2.29297 3.70703L3.70703 2.29297L21.707 20.293ZM11 19C11 19.5521 11.4479 19.9998 12 20C12.5523 20 13 19.5523 13 19H11ZM8.03906 9.45312C8.01456 9.63199 8 9.81439 8 10V13.0752C8 13.4949 7.91168 13.9104 7.74121 14.2939L6.53906 17H15.5859L8.03906 9.45312Z" fill="#000000"/>
<path d="M13 4.08398C15.8376 4.56015 18 7.02708 18 10V14.0859L16 12.0859V10C16 7.79088 14.2091 6.00004 12 6C11.3902 6.00003 10.8121 6.13677 10.2949 6.38086L8.82324 4.90918C9.47531 4.50159 10.2119 4.21626 11 4.08398V2H13V4.08398Z" fill="#000000"/>
</svg>
