<svg xmlns="http://www.w3.org/2000/svg" width="20" height="20" viewBox="0 0 20 20" fill="none"><rect width="20" height="20" fill="none"/>
<path d="M14.5 2.5C16.1569 2.5 17.5 3.84315 17.5 5.5V14.5C17.5 16.1569 16.1569 17.5 14.5 17.5H5.5C3.84315 17.5 2.5 16.1569 2.5 14.5V5.5C2.5 3.84315 3.84315 2.5 5.5 2.5H14.5ZM9.18945 13.7959C9.0773 14.0571 8.82681 14.2327 8.54297 14.249C8.25894 14.2653 7.9898 14.1191 7.84863 13.8721L6.06445 10.75H4V14.5C4 15.3284 4.67157 16 5.5 16H14.5C15.3284 16 16 15.3284 16 14.5V10.75H13.5C13.2309 10.75 12.9822 10.6057 12.8486 10.3721L11.5957 8.17969L9.18945 13.7959ZM5.5 4C4.67157 4 4 4.67157 4 5.5V9.25H6.5C6.76914 9.25 7.01784 9.39425 7.15137 9.62793L8.40332 11.8193L10.8105 6.2041L10.8594 6.11035C10.9863 5.9016 11.2087 5.76522 11.457 5.75098C11.7411 5.73473 12.0102 5.8809 12.1514 6.12793L13.9355 9.25H16V5.5C16 4.67157 15.3284 4 14.5 4H5.5Z" fill="#000000"/>
</svg>
