<svg xmlns="http://www.w3.org/2000/svg" width="20" height="20" viewBox="0 0 20 20" fill="none"><rect width="20" height="20" fill="none"/>
<path d="M4 14.5C4 15.3284 4.67157 16 5.5 16H7V17.5H5.5C3.84315 17.5 2.5 16.1569 2.5 14.5V13H4V14.5Z" fill="#000000"/>
<path d="M17.5 14.5C17.5 16.1569 16.1569 17.5 14.5 17.5H13V16H14.5C15.3284 16 16 15.3284 16 14.5V13H17.5V14.5Z" fill="#000000"/>
<path d="M7.5 14.5H6V11H7.5V14.5Z" fill="#000000"/>
<path d="M10.75 14.5H9.25V6H10.75V14.5Z" fill="#000000"/>
<path d="M14 14.5H12.5V8H14V14.5Z" fill="#000000"/>
<path d="M7 4H5.5C4.67157 4 4 4.67157 4 5.5V7H2.5V5.5C2.5 3.84315 3.84315 2.5 5.5 2.5H7V4Z" fill="#000000"/>
<path d="M14.5 2.5C16.1569 2.5 17.5 3.84315 17.5 5.5V7H16V5.5C16 4.67157 15.3284 4 14.5 4H13V2.5H14.5Z" fill="#000000"/>
</svg>
