<svg xmlns="http://www.w3.org/2000/svg" width="20" height="20" viewBox="0 0 20 20" fill="none"><rect width="20" height="20" fill="none"/>
<path d="M16 12C16.7911 12 17.5649 12.2343 18.2227 12.6738C18.8804 13.1133 19.3926 13.7389 19.6953 14.4697C19.9979 15.2005 20.0772 16.0045 19.9229 16.7803C19.7685 17.5562 19.3875 18.2687 18.8281 18.8281C18.2687 19.3875 17.5562 19.7685 16.7803 19.9229C16.0045 20.0772 15.2005 19.9979 14.4697 19.6953C13.7389 19.3926 13.1133 18.8804 12.6738 18.2227C12.2343 17.5649 12 16.7911 12 16H11L10.9316 15.9951C10.7747 15.9735 10.6357 15.8783 10.5596 15.7363C10.4726 15.5737 10.4817 15.3761 10.584 15.2227L12.584 12.2227C12.6767 12.0836 12.8328 12 13 12C13.1672 12 13.3233 12.0836 13.416 12.2227L15.416 15.2227C15.5183 15.3761 15.5274 15.5737 15.4404 15.7363C15.3533 15.8986 15.1842 16 15 16H13.5C13.5 16.4943 13.6464 16.9776 13.9209 17.3887C14.1955 17.7997 14.5863 18.1203 15.043 18.3096C15.4996 18.4987 16.0025 18.5485 16.4873 18.4521C16.9723 18.3557 17.4179 18.1172 17.7676 17.7676C18.1172 17.4179 18.3557 16.9723 18.4521 16.4873C18.5485 16.0025 18.4987 15.4996 18.3096 15.043C18.1203 14.5863 17.7997 14.1955 17.3887 13.9209C16.9776 13.6464 16.4943 13.5 16 13.5V12Z" fill="#000000"/>
<path d="M18 4.5791L17.9844 5.07422C17.9412 5.94957 17.7775 7.87876 17.166 10H15.5996C16.0417 8.59899 16.2697 7.24588 16.3848 6.22949C16.4084 6.0207 16.4245 5.82695 16.4395 5.65137L10 3.5752L3.55957 5.65137C3.57453 5.82697 3.59159 6.02067 3.61523 6.22949C3.73276 7.26751 3.96685 8.65709 4.42773 10.0898C5.22569 12.5703 6.60777 14.9166 9 16.0566V17.6885C2.91487 15.3941 2.11946 7.18114 2.01562 5.07422L2 4.5791L10 2L18 4.5791Z" fill="#000000"/>
</svg>
