<svg xmlns="http://www.w3.org/2000/svg" width="20" height="20" viewBox="0 0 20 20" fill="none"><rect width="20" height="20" fill="none"/>
<path d="M18.707 13.707L13.5 18.9141L10.293 15.707L11.707 14.293L13.5 16.0859L17.293 12.293L18.707 13.707Z" fill="#000000"/>
<path d="M7.20508 3.00488C8.3173 3.06116 9.3092 3.57236 10 4.35547C10.733 3.52463 11.805 3 13 3H18V10H16V5H13C11.8954 5 11 5.89543 11 7V10H9V7C9 5.96449 8.21258 5.11319 7.2041 5.01074L7 5H4V13.835H7C7.34549 13.835 7.68036 13.8802 8 13.9629V16.1045C7.70595 15.9336 7.36475 15.835 7 15.835H2V3H7L7.20508 3.00488Z" fill="#000000"/>
</svg>
