<svg xmlns="http://www.w3.org/2000/svg" width="20" height="20" viewBox="0 0 20 20" fill="none"><rect width="20" height="20" fill="none"/>
<path d="M18 16.9996H2V14.9996H18V16.9996Z" fill="#000000"/>
<path d="M13.9443 2.50154C14.2283 2.48581 14.5059 2.59147 14.707 2.79255L18 6.08552V12.9996H3C2.61385 12.9996 2.26227 12.7771 2.09668 12.4283C1.93139 12.0794 1.98133 11.6657 2.22559 11.3668L7.35254 5.10114L9.84375 7.09333L13.2188 2.87458L13.29 2.79548C13.4633 2.62076 13.6961 2.51538 13.9443 2.50154ZM10.1562 9.90486L7.64648 7.89802L5.11035 10.9996H16V6.91364L14.083 4.99665L10.1562 9.90486Z" fill="#000000"/>
</svg>
