<svg xmlns="http://www.w3.org/2000/svg" width="20" height="20" viewBox="0 0 20 20" fill="none"><rect width="20" height="20" fill="none"/>
<path d="M15.6875 3.4502H10.747C10.7481 3.46669 10.75 3.48324 10.75 3.5V5.07031C11.7511 5.26024 12.6201 5.82331 13.207 6.60938C13.7255 6.74717 14.2285 6.95178 14.7011 7.22461C16.0266 7.99002 17.0158 9.22074 17.4824 10.6709L17.5693 10.9629C17.9918 12.5399 17.7704 14.2209 16.9541 15.6348C16.4184 16.5624 15.6548 17.3249 14.748 17.8594C14.0046 18.2974 13.1385 17.8455 12.8369 17.0547L12.7841 16.8926L11.6455 12.6445C11.1433 12.8716 10.5869 13 9.99995 13C9.4394 13 8.9061 12.884 8.42183 12.6758L7.2939 16.8926L7.24117 17.0547C6.93956 17.8454 6.07342 18.2973 5.33003 17.8594C4.42316 17.3248 3.65863 16.5625 3.123 15.6348C2.30674 14.2209 2.08625 12.5399 2.50874 10.9629L2.59566 10.6709C3.06226 9.22073 4.05147 7.99004 5.37691 7.22461C5.81937 6.9692 6.28876 6.77442 6.77242 6.6377C7.35949 5.83695 8.23688 5.26249 9.24995 5.07031V3.5C9.24995 3.48324 9.2518 3.46669 9.25288 3.4502H4.52046V1.9502H15.6875V3.4502ZM6.02046 8.58887C5.00639 9.21119 4.26684 10.1983 3.95796 11.3506C3.63836 12.5433 3.80445 13.8154 4.42183 14.8848C4.78164 15.508 5.27914 16.0318 5.86617 16.4248L7.11324 11.7666C6.42439 11.048 5.99995 10.074 5.99995 9C5.99995 8.8612 6.00666 8.72402 6.02046 8.58887ZM13.9726 8.53711C13.9901 8.68901 14 8.84341 14 9C14 10.0427 13.5998 10.9911 12.9462 11.7031L14.2119 16.4248C14.7988 16.0319 15.2954 15.5079 15.6552 14.8848C16.2727 13.8153 16.4397 12.5434 16.1201 11.3506C15.8026 10.1663 15.0305 9.15567 13.9726 8.53711ZM9.99995 6.66699C8.71129 6.66699 7.66695 7.71134 7.66695 9C7.66695 10.2887 8.71129 11.333 9.99995 11.333C11.2886 11.333 12.333 10.2887 12.333 9C12.333 7.71134 11.2886 6.66699 9.99995 6.66699Z" fill="#000000"/>
</svg>
