<svg xmlns="http://www.w3.org/2000/svg" width="20" height="20" viewBox="0 0 20 20" fill="none"><rect width="20" height="20" fill="none"/>
<path d="M16.25 15H17.5L17.5684 15.0049C17.7252 15.0266 17.8643 15.1218 17.9404 15.2637C18.0274 15.4262 18.0182 15.624 17.916 15.7773L15.916 18.7773C15.8233 18.9163 15.667 18.9999 15.5 19C15.333 18.9999 15.1767 18.9163 15.084 18.7773L13.084 15.7773C12.9818 15.624 12.9726 15.4262 13.0596 15.2637C13.1466 15.1015 13.3159 15.0001 13.5 15H14.75V12H16.25V15Z" fill="#000000"/>
<path d="M18 4.5791L17.9844 5.07422C17.9412 5.94957 17.7775 7.87876 17.166 10H15.5996C16.0417 8.59899 16.2697 7.24588 16.3848 6.22949C16.4084 6.0207 16.4245 5.82695 16.4395 5.65137L10 3.5752L3.55957 5.65137C3.57453 5.82697 3.59159 6.02067 3.61523 6.22949C3.73276 7.26751 3.96685 8.65709 4.42773 10.0898C5.33095 12.8975 6.98195 15.5347 10 16.4434V18C2.99951 16.2729 2.1249 7.29152 2.01562 5.07422L2 4.5791L10 2L18 4.5791Z" fill="#000000"/>
</svg>
