<svg xmlns="http://www.w3.org/2000/svg" width="20" height="20" viewBox="0 0 20 20" fill="none"><rect width="20" height="20" fill="none"/>
<path d="M13.207 9.20703L9.5 12.9141L6.79297 10.207L8.20703 8.79297L9.5 10.0859L11.793 7.79297L13.207 9.20703Z" fill="#000000"/>
<path d="M13 4H16V7L19 10L16 13V16H13L10 19L7 16H4V13L1 10L4 7V4H7L10 1L13 4ZM7.82812 6H6V7.82812L3.82812 10L6 12.1719V14H7.82812L10 16.1719L12.1719 14H14V12.1719L16.1719 10L14 7.82812V6H12.1719L10 3.82812L7.82812 6Z" fill="#000000"/>
</svg>
