<svg xmlns="http://www.w3.org/2000/svg" width="20" height="20" viewBox="0 0 20 20" fill="none"><rect width="20" height="20" fill="none"/>
<path d="M11 2.38184L11.4219 2.59277C12.3887 3.07618 12.9999 4.06461 13 5.14551C13 6.42047 12.1636 7.49992 11.0098 7.86621V9H18V18H2V9H9.00977V7.90332C7.85295 7.59274 7.00019 6.54094 7 5.28613H9C9.00023 5.68029 9.31971 5.99977 9.71387 6H10.1455C10.6172 6 11 5.61722 11 5.14551C10.9999 4.82227 10.8174 4.52651 10.5283 4.38184L10.1055 4.1709C9.42793 3.8321 9 3.13936 9 2.38184V1H11V2.38184ZM4 16H16V11H4V16Z" fill="#000000"/>
</svg>
