<svg xmlns="http://www.w3.org/2000/svg" width="20" height="20" viewBox="0 0 20 20" fill="none"><rect width="20" height="20" fill="none"/>
<path d="M8.43945 2.15465C10.2547 1.79364 12.1393 2.07322 13.7715 2.94566C15.4036 3.81813 16.6824 5.23006 17.3906 6.9398C18.0987 8.64964 18.1925 10.5526 17.6553 12.3236C17.1179 14.0945 15.9831 15.6245 14.4443 16.6527C12.9055 17.6808 11.0576 18.1446 9.21582 17.9632C7.4091 17.7853 5.71808 16.9969 4.41895 15.7318L3.69727 16.4037C3.56249 16.5288 3.36938 16.5694 3.19531 16.5101C3.02111 16.4504 2.89304 16.2992 2.86328 16.1175L2.28516 12.558C2.25848 12.3931 2.31621 12.2254 2.43848 12.1117C2.56088 11.998 2.73202 11.9529 2.89453 11.9916L6.40234 12.8275C6.5815 12.8704 6.7226 13.0087 6.76953 13.1869C6.81608 13.3649 6.76173 13.5547 6.62695 13.68L5.88672 14.3675C6.85113 15.276 8.09021 15.8418 9.41211 15.972C10.7932 16.108 12.179 15.7614 13.333 14.9906C14.4869 14.2196 15.3381 13.0714 15.7412 11.7435C16.1441 10.4153 16.074 8.98776 15.543 7.70543C15.0118 6.42304 14.0522 5.36371 12.8281 4.70934C11.604 4.05514 10.1904 3.84578 8.8291 4.11656C7.46797 4.38741 6.24281 5.12195 5.3623 6.19469C4.48186 7.26767 4 8.61334 4 10.0013H2C2 8.15072 2.64155 6.35676 3.81543 4.92613C4.98957 3.49544 6.62422 2.51575 8.43945 2.15465Z" fill="#000000"/>
<path d="M11 9.58726L12.707 11.2943L11.293 12.7084L9 10.4154V6.00133H11V9.58726Z" fill="#000000"/>
</svg>
