<svg xmlns="http://www.w3.org/2000/svg" width="24" height="24" viewBox="0 0 24 24" fill="none"><rect width="24" height="24" fill="none"/>
<path d="M5.5 14.9999C7.433 14.9999 9 16.5669 9 18.4999C8.99984 20.4328 7.4329 21.9999 5.5 21.9999C3.5671 21.9999 2.00016 20.4328 2 18.4999C2 16.5669 3.567 14.9999 5.5 14.9999ZM5.5 16.9999C4.67157 16.9999 4 17.6715 4 18.4999C4.00016 19.3282 4.67167 19.9999 5.5 19.9999C6.32833 19.9999 6.99984 19.3282 7 18.4999C7 17.6715 6.32843 16.9999 5.5 16.9999Z" fill="#000000"/>
<path d="M15 5.9999H8.5C7.11929 5.9999 6 7.11919 6 8.4999C6.0003 9.88036 7.11947 10.9999 8.5 10.9999H15.5C17.9852 11 20 13.0147 20 15.4999C19.9997 17.9849 17.985 19.9998 15.5 19.9999H11V17.9999H15.5C16.8804 17.9998 17.9997 16.8803 18 15.4999C18 14.1192 16.8806 13 15.5 12.9999H8.5C6.0149 12.9999 4.0003 10.9849 4 8.4999C4 6.01462 6.01472 3.9999 8.5 3.9999H15V5.9999Z" fill="#000000"/>
<path d="M17.2578 2.0624C17.4167 1.97445 17.6106 1.97989 17.7646 2.07607L21.7646 4.57607C21.9108 4.66745 22 4.82756 22 4.9999C21.9999 5.17218 21.9108 5.33241 21.7646 5.42373L17.7646 7.92373C17.6107 8.0198 17.4166 8.02525 17.2578 7.9374C17.0989 7.84934 17.0001 7.68155 17 7.4999V2.4999C17 2.31819 17.0989 2.15053 17.2578 2.0624Z" fill="#000000"/>
</svg>
