<svg xmlns="http://www.w3.org/2000/svg" width="20" height="20" viewBox="0 0 20 20" fill="none"><rect width="20" height="20" fill="none"/>
<path d="M9.00026 11H7.00026V9H9.00026V11Z" fill="#000000"/>
<path d="M13.0003 11H11.0003V9H13.0003V11Z" fill="#000000"/>
<path d="M10.0003 2.25C12.071 2.25037 13.7503 3.92916 13.7503 6V6.25H15.679L16.7464 16.9258C16.7673 17.1363 16.6978 17.346 16.5559 17.5029C16.4139 17.6599 16.2119 17.7498 16.0003 17.75H4.00026C3.78853 17.75 3.58676 17.6598 3.4446 17.5029C3.3025 17.3459 3.23321 17.1365 3.25417 16.9258L4.32155 6.25H6.25026V6C6.25026 3.92893 7.92919 2.25 10.0003 2.25ZM4.82839 16.25H15.1721L14.3216 7.75H5.67897L4.82839 16.25ZM10.0003 3.75C8.75762 3.75 7.75026 4.75736 7.75026 6V6.25H12.2503V6C12.2503 4.75759 11.2426 3.75037 10.0003 3.75Z" fill="#000000"/>
</svg>
