<svg xmlns="http://www.w3.org/2000/svg" width="20" height="20" viewBox="0 0 20 20" fill="none"><rect width="20" height="20" fill="none"/>
<path d="M19 19H11V17H19V19Z" fill="#000000"/>
<path d="M10 2C14.4183 2 18 5.58172 18 10H16C16 6.68629 13.3137 4 10 4C6.68629 4 4 6.68629 4 10C4 12.9729 6.16245 15.4388 9 15.915V17.9355C5.05384 17.4433 2 14.0795 2 10C2 5.58172 5.58172 2 10 2Z" fill="#000000"/>
<path d="M18.7578 13.9658L11.2578 15.9658L10.7422 14.0342L18.2422 12.0342L18.7578 13.9658Z" fill="#000000"/>
<path d="M11 10.4141L8.70703 12.707L7.29297 11.293L9 9.58594V6H11V10.4141Z" fill="#000000"/>
</svg>
