<svg xmlns="http://www.w3.org/2000/svg" width="20" height="20" viewBox="0 0 20 20" fill="none"><rect width="20" height="20" fill="none"/>
<path d="M10 1.5C11.408 1.5 12.6213 2.33163 13.1768 3.53027C13.2613 3.50878 13.3467 3.48957 13.4326 3.47168L14.7959 3.18848C15.0906 3.12711 15.3973 3.20171 15.6309 3.3916C15.8643 3.5815 16 3.86609 16 4.16699V6.66699C16 9.46456 13.7762 11.7409 11 11.8291V13.5713C11.3073 13.2647 11.6605 12.9815 12.0664 12.7471C13.3147 12.0264 14.7143 11.9635 15.7197 12.0449C16.234 12.0866 16.6776 12.1685 16.9932 12.2402C17.1511 12.2762 17.279 12.3103 17.3701 12.3359C17.4157 12.3488 17.4529 12.359 17.4795 12.3672C17.4925 12.3712 17.5035 12.3753 17.5117 12.3779C17.5154 12.3791 17.5189 12.38 17.5215 12.3809L17.5283 12.3828C17.5283 12.3828 17.5205 12.4071 17.2168 13.333L16.9062 14.2832L16.8945 14.2803C16.8813 14.2762 16.858 14.2694 16.8271 14.2607C16.7653 14.2433 16.6704 14.2181 16.5488 14.1904C16.3039 14.1347 15.9567 14.0704 15.5576 14.0381C14.7365 13.9716 13.8105 14.0489 13.0664 14.4785C12.3223 14.9083 11.7924 15.6716 11.4395 16.416C11.268 16.7776 11.1504 17.1097 11.0762 17.3496C11.0409 17.4637 11.016 17.5559 11 17.6182V18.043H9V17.6182C8.98405 17.5559 8.95913 17.4637 8.92383 17.3496C8.84959 17.1097 8.73196 16.7776 8.56055 16.416C8.20759 15.6716 7.67774 14.9083 6.93359 14.4785C6.18947 14.0489 5.2635 13.9716 4.44238 14.0381C4.04333 14.0704 3.69613 14.1347 3.45117 14.1904C3.32963 14.2181 3.23469 14.2433 3.17285 14.2607C3.14198 14.2694 3.11873 14.2762 3.10547 14.2803L3.09277 14.2832L2.7832 13.333C2.47952 12.4071 2.47168 12.3828 2.47168 12.3828L2.47852 12.3809C2.48112 12.38 2.48465 12.3791 2.48828 12.3779C2.49648 12.3753 2.50746 12.3712 2.52051 12.3672C2.54712 12.359 2.5843 12.3488 2.62988 12.3359C2.72101 12.3103 2.84886 12.2762 3.00684 12.2402C3.32238 12.1685 3.766 12.0866 4.28027 12.0449C5.28573 11.9635 6.68527 12.0264 7.93359 12.7471C8.33946 12.9815 8.69272 13.2647 9 13.5713V11.8291C6.22384 11.7409 4 9.46456 4 6.66699V4.16699C4 3.86609 4.13574 3.5815 4.36914 3.3916C4.60266 3.20171 4.90944 3.12711 5.2041 3.18848L6.56738 3.47168C6.65297 3.4895 6.73799 3.50887 6.82227 3.53027C7.37767 2.33143 8.59187 1.5 10 1.5ZM13.8398 5.42969C12.5216 5.70432 11.4288 6.62105 10.9287 7.87109H9.07129C8.57122 6.62105 7.47844 5.70432 6.16016 5.42969L6 5.39551V6.66699C6 8.41589 7.41809 9.83398 9.16699 9.83398H10.833C12.5819 9.83398 14 8.41589 14 6.66699V5.39551L13.8398 5.42969ZM10 3.5C9.40825 3.5 8.89741 3.84309 8.65332 4.34082C9.16006 4.67532 9.61473 5.08437 10 5.55566C10.3851 5.08458 10.8392 4.67524 11.3457 4.34082C11.1015 3.8433 10.5916 3.5 10 3.5Z" fill="#000000"/>
</svg>
