<svg xmlns="http://www.w3.org/2000/svg" width="20" height="20" viewBox="0 0 20 20" fill="none"><rect width="20" height="20" fill="none"/>
<path d="M17.0498 11.25H19V12.75H15C14.5858 12.75 14.25 13.0858 14.25 13.5C14.25 13.9142 14.5858 14.25 15 14.25H17C18.2426 14.25 19.25 15.2574 19.25 16.5C19.25 17.726 18.2694 18.7206 17.0498 18.7471V20H15.5498V18.75H13V17.25H17C17.4142 17.25 17.75 16.9142 17.75 16.5C17.75 16.0858 17.4142 15.75 17 15.75H15C13.7574 15.75 12.75 14.7426 12.75 13.5C12.75 12.2574 13.7574 11.25 15 11.25H15.5498V10H17.0498V11.25Z" fill="#000000"/>
<path d="M11.25 2C12.7688 2 14 3.23122 14 4.75V6H15.25C16.5085 6 17.5668 6.84614 17.8936 8H16.248C16.0199 7.69695 15.6585 7.5 15.25 7.5H4.75C4.05964 7.5 3.5 8.05964 3.5 8.75V15.25C3.5 15.9404 4.05964 16.5 4.75 16.5H11V18H4.75C3.23122 18 2 16.7688 2 15.25V8.75C2 7.23122 3.23122 6 4.75 6H6V4.75C6 3.23122 7.23122 2 8.75 2H11.25ZM8.75 3.5C8.05964 3.5 7.5 4.05964 7.5 4.75V6H12.5V4.75C12.5 4.05964 11.9404 3.5 11.25 3.5H8.75Z" fill="#000000"/>
</svg>
