<svg xmlns="http://www.w3.org/2000/svg" width="20" height="20" viewBox="0 0 20 20" fill="none"><rect width="20" height="20" fill="none"/>
<path d="M8.89648 2.74422C10.7922 2.11246 12.7496 3.52346 12.75 5.52156V6.00008H11.25V5.52156C11.2496 4.5474 10.2954 3.85932 9.37109 4.16707C8.39867 4.49121 8.07407 5.70459 8.75488 6.47078L10.4697 8.39949L16.7773 11.7647C17.6835 12.248 18.2499 13.1918 18.25 14.2188C18.25 15.7549 17.0048 17.0001 15.4688 17.0001H4.53125C2.99521 17.0001 1.75 15.7549 1.75 14.2188C1.75014 13.1918 2.31645 12.248 3.22266 11.7647L8.80664 8.78621L7.63379 7.46687C6.23766 5.89581 6.90249 3.40888 8.89648 2.74422ZM3.92871 13.088C3.51131 13.3106 3.25014 13.7458 3.25 14.2188C3.25 14.9264 3.82364 15.5001 4.53125 15.5001H15.4688C16.1764 15.5001 16.75 14.9264 16.75 14.2188C16.7499 13.7459 16.4896 13.3106 16.0723 13.088L10 9.84969L3.92871 13.088Z" fill="#000000"/>
</svg>
