<svg xmlns="http://www.w3.org/2000/svg" width="24" height="24" viewBox="0 0 24 24" fill="none"><rect width="24" height="24" fill="none"/>
<path d="M12 18C12.8284 18 13.5 18.6716 13.5 19.5C13.5 20.3284 12.8284 21 12 21C11.1716 21 10.5 20.3284 10.5 19.5C10.5 18.6716 11.1716 18 12 18Z" fill="#000000"/>
<path d="M6.5 13C7.32843 13 8 13.6716 8 14.5C8 15.3284 7.32843 16 6.5 16C5.67157 16 5 15.3284 5 14.5C5 13.6716 5.67157 13 6.5 13Z" fill="#000000"/>
<path d="M12 13C12.8284 13 13.5 13.6716 13.5 14.5C13.5 15.3284 12.8284 16 12 16C11.1716 16 10.5 15.3284 10.5 14.5C10.5 13.6716 11.1716 13 12 13Z" fill="#000000"/>
<path d="M17.5 13C18.3284 13 19 13.6716 19 14.5C19 15.3284 18.3284 16 17.5 16C16.6716 16 16 15.3284 16 14.5C16 13.6716 16.6716 13 17.5 13Z" fill="#000000"/>
<path d="M6.5 8C7.32843 8 8 8.67157 8 9.5C8 10.3284 7.32843 11 6.5 11C5.67157 11 5 10.3284 5 9.5C5 8.67157 5.67157 8 6.5 8Z" fill="#000000"/>
<path d="M12 8C12.8284 8 13.5 8.67157 13.5 9.5C13.5 10.3284 12.8284 11 12 11C11.1716 11 10.5 10.3284 10.5 9.5C10.5 8.67157 11.1716 8 12 8Z" fill="#000000"/>
<path d="M17.5 8C18.3284 8 19 8.67157 19 9.5C19 10.3284 18.3284 11 17.5 11C16.6716 11 16 10.3284 16 9.5C16 8.67157 16.6716 8 17.5 8Z" fill="#000000"/>
<path d="M6.5 3C7.32843 3 8 3.67157 8 4.5C8 5.32843 7.32843 6 6.5 6C5.67157 6 5 5.32843 5 4.5C5 3.67157 5.67157 3 6.5 3Z" fill="#000000"/>
<path d="M12 3C12.8284 3 13.5 3.67157 13.5 4.5C13.5 5.32843 12.8284 6 12 6C11.1716 6 10.5 5.32843 10.5 4.5C10.5 3.67157 11.1716 3 12 3Z" fill="#000000"/>
<path d="M18 3C18.8284 3 19.5 3.67157 19.5 4.5C19.5 5.32843 18.8284 6 18 6C17.1716 6 16.5 5.32843 16.5 4.5C16.5 3.67157 17.1716 3 18 3Z" fill="#000000"/>
</svg>
