<svg xmlns="http://www.w3.org/2000/svg" width="20" height="20" viewBox="0 0 20 20" fill="none"><rect width="20" height="20" fill="none"/>
<path d="M10 2C11.5823 2 13.1287 2.46958 14.4443 3.34863C15.7599 4.22764 16.7851 5.47676 17.3906 6.93848C17.9961 8.40021 18.1553 10.0088 17.8467 11.5605C17.538 13.1124 16.776 14.5384 15.6572 15.6572C14.5384 16.776 13.1124 17.538 11.5605 17.8467C10.0088 18.1553 8.40021 17.9961 6.93848 17.3906C5.47676 16.7851 4.22764 15.7599 3.34863 14.4443C2.46958 13.1287 2 11.5823 2 10H3.5C3.5 11.2856 3.88147 12.5424 4.5957 13.6113C5.30993 14.6802 6.32505 15.5129 7.5127 16.0049C8.70042 16.4969 10.0077 16.6258 11.2686 16.375C12.5292 16.1241 13.6878 15.5056 14.5967 14.5967C15.5056 13.6878 16.1241 12.5292 16.375 11.2686C16.6258 10.0077 16.4969 8.70042 16.0049 7.5127C15.5129 6.32505 14.6802 5.30993 13.6113 4.5957C12.5424 3.88147 11.2856 3.5 10 3.5V2Z" fill="#000000"/>
<path d="M10 5C11.1007 5 12.1707 5.36316 13.0439 6.0332C13.9171 6.70325 14.5452 7.64292 14.8301 8.70605C15.1149 9.76908 15.0402 10.8963 14.6191 11.9131C14.1979 12.93 13.4532 13.7797 12.5 14.3301C11.5469 14.8804 10.4388 15.1006 9.34766 14.957C8.2564 14.8134 7.24314 14.3134 6.46484 13.5352C5.68655 12.7569 5.18664 11.7436 5.04297 10.6523C4.89937 9.56117 5.11963 8.45313 5.66992 7.5L6.96875 8.25C6.58354 8.91723 6.42971 9.69318 6.53027 10.457C6.63088 11.2208 6.98064 11.9299 7.52539 12.4746C8.07014 13.0194 8.77918 13.3691 9.54297 13.4697C10.3068 13.5703 11.0828 13.4165 11.75 13.0312C12.4171 12.6461 12.9385 12.0515 13.2334 11.3398C13.5282 10.628 13.5803 9.83797 13.3809 9.09375C13.1814 8.34979 12.7419 7.69258 12.1309 7.22363C11.5196 6.7546 10.7705 6.5 10 6.5V5Z" fill="#000000"/>
<path d="M10 8C10.3288 8 10.6524 8.08137 10.9424 8.23633C11.2324 8.39136 11.4804 8.61523 11.6631 8.88867C11.8458 9.16207 11.958 9.47649 11.9902 9.80371C12.0225 10.131 11.9735 10.4618 11.8477 10.7656C11.7218 11.0694 11.5227 11.3373 11.2686 11.5459C11.0144 11.7544 10.713 11.8977 10.3906 11.9619C10.068 12.0261 9.73369 12.0095 9.41895 11.9141C9.10436 11.8186 8.81841 11.6465 8.58594 11.4141L10 10V8Z" fill="#000000"/>
</svg>
