<svg xmlns="http://www.w3.org/2000/svg" width="20" height="20" viewBox="0 0 20 20" fill="none"><rect width="20" height="20" fill="none"/>
<path d="M18 4.5791L17.9844 5.07422C17.8751 7.29152 17.0005 16.2729 10 18C2.99951 16.2729 2.1249 7.29152 2.01562 5.07422L2 4.5791L10 2L18 4.5791ZM3.55957 5.65137C3.57453 5.82697 3.59159 6.02067 3.61523 6.22949C3.73276 7.26751 3.96685 8.65709 4.42773 10.0898C5.33095 12.8975 6.98195 15.5347 10 16.4434C13.018 15.5347 14.669 12.8975 15.5723 10.0898C16.0332 8.65709 16.2672 7.26751 16.3848 6.22949C16.4084 6.0207 16.4245 5.82695 16.4395 5.65137L10 3.5752L3.55957 5.65137Z" fill="#000000"/>
</svg>
