<svg xmlns="http://www.w3.org/2000/svg" width="20" height="20" viewBox="0 0 20 20" fill="none"><rect width="20" height="20" fill="none"/>
<path d="M18.707 17.293L17.293 18.707L13.6836 15.0977C12.5359 15.8797 11.2974 16.4979 10 17C8.5457 16.4553 7.16206 15.7277 5.9082 14.8115C4.08229 13.4774 2 11.3113 2 8.30762C2.00001 6.87612 2.39677 5.56569 3.17676 4.59082L1.29297 2.70703L2.70703 1.29297L18.707 17.293ZM4.60547 6.01953C4.23989 6.56765 4.00001 7.34322 4 8.30762C4 10.3351 5.41776 11.9839 7.0918 13.207C7.90673 13.8025 8.72795 14.2557 9.34863 14.5605C9.60843 14.6881 9.83102 14.7883 10 14.8613C10.169 14.7883 10.3916 14.6881 10.6514 14.5605C11.1034 14.3386 11.6613 14.0372 12.2461 13.6602L4.60547 6.01953Z" fill="#000000"/>
<path d="M13.5 3C14.8638 3 16.0232 3.59431 16.8193 4.58691C17.6016 5.56224 18 6.87406 18 8.30762C18 9.98158 17.3516 11.3942 16.4629 12.5488L15.0352 11.1211C15.6246 10.2866 16 9.34775 16 8.30762C16 7.22564 15.6985 6.38108 15.2559 5.8291C14.8271 5.29445 14.2363 4.99023 13.5 4.99023C12.4084 4.99023 11.3965 5.66829 10.8398 6.52539L10.6816 6.76758L6.93555 3.02148C8.1464 3.13299 9.20725 3.69836 10 4.44434C10.8865 3.61015 12.1081 3 13.5 3Z" fill="#000000"/>
</svg>
