<svg xmlns="http://www.w3.org/2000/svg" width="20" height="20" viewBox="0 0 20 20" fill="none"><rect width="20" height="20" fill="none"/>
<path d="M13.5303 7.53027L7.53027 13.5303L6.46973 12.4697L12.4697 6.46973L13.5303 7.53027Z" fill="#000000"/>
<path d="M12.25 11C12.9403 11 13.5 11.5597 13.5 12.25C13.5 12.9404 12.9404 13.5 12.25 13.5C11.5597 13.5 11 12.9403 11 12.25C11 11.5597 11.5597 11 12.25 11Z" fill="#000000"/>
<path d="M7.75 6.5C8.44033 6.50001 8.99997 7.05968 9 7.75C9 8.44035 8.44035 8.99999 7.75 9C7.05964 9 6.5 8.44036 6.5 7.75C6.50003 7.05967 7.05966 6.5 7.75 6.5Z" fill="#000000"/>
<path d="M10 2C14.4183 2 18 5.58172 18 10C18 14.4183 14.4183 18 10 18C5.58172 18 2 14.4183 2 10C2 5.58172 5.58172 2 10 2ZM10 3.5C6.41015 3.5 3.5 6.41015 3.5 10C3.5 13.5899 6.41015 16.5 10 16.5C13.5899 16.5 16.5 13.5899 16.5 10C16.5 6.41015 13.5899 3.5 10 3.5Z" fill="#000000"/>
</svg>
