<svg xmlns="http://www.w3.org/2000/svg" width="20" height="20" viewBox="0 0 20 20" fill="none"><rect width="20" height="20" fill="none"/>
<path d="M13 14H7V12H13V14Z" fill="#000000"/>
<path d="M11 2C12.6569 2 14 3.34315 14 5V6H15C16.6569 6 18 7.34315 18 9V15C18 16.6569 16.6569 18 15 18H5C3.34315 18 2 16.6569 2 15V9C2 7.34315 3.34315 6 5 6H6V5C6 3.34315 7.34315 2 9 2H11ZM5 8C4.44772 8 4 8.44772 4 9V15C4 15.5523 4.44772 16 5 16H15C15.5523 16 16 15.5523 16 15V9C16 8.44772 15.5523 8 15 8H5ZM9 4C8.44772 4 8 4.44772 8 5V6H12V5C12 4.44772 11.5523 4 11 4H9Z" fill="#000000"/>
</svg>
