<svg xmlns="http://www.w3.org/2000/svg" width="20" height="20" viewBox="0 0 20 20" fill="none"><rect width="20" height="20" fill="none"/>
<path d="M6.5 10C7.32843 10 8 10.6716 8 11.5C8 12.3284 7.32843 13 6.5 13C5.67157 13 5 12.3284 5 11.5C5 10.6716 5.67157 10 6.5 10Z" fill="#000000"/>
<path d="M13.5 10C14.3284 10 15 10.6716 15 11.5C15 12.3284 14.3284 13 13.5 13C12.6716 13 12 12.3284 12 11.5C12 10.6716 12.6716 10 13.5 10Z" fill="#000000"/>
<path d="M10 2C10.8284 2 11.5 2.67157 11.5 3.5C11.5 4.05495 11.198 4.5384 10.75 4.79785V6.9502H14.4512C16.1078 6.95041 17.4512 8.29347 17.4512 9.9502V15C17.4512 16.6567 16.1078 17.9998 14.4512 18H5.55078C3.89393 18 2.55078 16.6569 2.55078 15V9.9502C2.55078 8.29334 3.89393 6.9502 5.55078 6.9502H9.25V4.79785C8.802 4.5384 8.5 4.05495 8.5 3.5C8.5 2.67157 9.17157 2 10 2ZM5.55078 8.4502C4.72236 8.4502 4.05078 9.12177 4.05078 9.9502V15C4.05078 15.8284 4.72235 16.5 5.55078 16.5H14.4512C15.2794 16.4998 15.9512 15.8283 15.9512 15V9.9502C15.9512 9.1219 15.2794 8.45041 14.4512 8.4502H5.55078Z" fill="#000000"/>
</svg>
