<svg xmlns="http://www.w3.org/2000/svg" width="24" height="24" viewBox="0 0 24 24" fill="none"><rect width="24" height="24" fill="none"/>
<path d="M12 2C12.5523 2 13 2.44772 13 3C13 7.41828 16.5817 11 21 11C21.5523 11 22 11.4477 22 12C22 12.5523 21.5523 13 21 13C16.5817 13 13 16.5817 13 21C13 21.5523 12.5523 22 12 22C11.4477 22 11 21.5523 11 21C11 16.5817 7.41828 13 3 13C2.44772 13 2 12.5523 2 12C2 11.4477 2.44772 11 3 11C7.41828 11 11 7.41828 11 3C11 2.44772 11.4477 2 12 2ZM12 7.36133C11.0197 9.38053 9.38053 11.0197 7.36133 12C9.38027 12.9802 11.0197 14.6189 12 16.6377C12.9802 14.6191 14.6191 12.9802 16.6377 12C14.6189 11.0197 12.9802 9.38027 12 7.36133Z" fill="#000000"/>
</svg>
