<svg xmlns="http://www.w3.org/2000/svg" width="24" height="24" viewBox="0 0 24 24" fill="none"><rect width="24" height="24" fill="none"/>
<path d="M3.5 16.5C4.32843 16.5 5 17.1716 5 18C5 18.8284 4.32843 19.5 3.5 19.5C2.67157 19.5 2 18.8284 2 18C2 17.1716 2.67157 16.5 3.5 16.5Z" fill="#000000"/>
<path d="M21 19H7V17H21V19Z" fill="#000000"/>
<path d="M3.5 10.5C4.32843 10.5 5 11.1716 5 12C5 12.8284 4.32843 13.5 3.5 13.5C2.67157 13.5 2 12.8284 2 12C2 11.1716 2.67157 10.5 3.5 10.5Z" fill="#000000"/>
<path d="M21 13H7V11H21V13Z" fill="#000000"/>
<path d="M3.5 4.5C4.32843 4.5 5 5.17157 5 6C5 6.82843 4.32843 7.5 3.5 7.5C2.67157 7.5 2 6.82843 2 6C2 5.17157 2.67157 4.5 3.5 4.5Z" fill="#000000"/>
<path d="M21 7H7V5H21V7Z" fill="#000000"/>
</svg>
