<svg xmlns="http://www.w3.org/2000/svg" width="20" height="20" viewBox="0 0 20 20" fill="none"><rect width="20" height="20" fill="none"/>
<path d="M7.03027 6.4082C7.38461 5.96101 8.07308 5.99116 8.38672 6.46777L9.20312 7.70898L8.25 9.25C8.91013 10.2402 9.7598 11.0899 10.75 11.75L12.3438 10.8057L13.5459 11.6113C14.0174 11.9271 14.0451 12.6102 13.6006 12.9629L12.5176 13.8223C12.3773 13.9334 12.1895 13.965 12.0205 13.9062C9.24857 12.9396 7.06524 10.7524 6.0957 7.98145C6.03638 7.81187 6.06812 7.62323 6.17969 7.48242L7.03027 6.4082Z" fill="#000000"/>
<path d="M10 2C14.4183 2 18 5.58172 18 10C18 14.4183 14.4183 18 10 18C5.58172 18 2 14.4183 2 10C2 5.58172 5.58172 2 10 2ZM10 3.5C6.41015 3.5 3.5 6.41015 3.5 10C3.5 13.5899 6.41015 16.5 10 16.5C13.5899 16.5 16.5 13.5899 16.5 10C16.5 6.41015 13.5899 3.5 10 3.5Z" fill="#000000"/>
</svg>
