<svg xmlns="http://www.w3.org/2000/svg" width="20" height="20" viewBox="0 0 20 20" fill="none"><rect width="20" height="20" fill="none"/>
<path d="M11.5 10C11.667 10.0001 11.8233 10.0837 11.916 10.2227L13.916 13.2227C14.0182 13.376 14.0274 13.5738 13.9404 13.7363C13.8534 13.8985 13.6841 13.9999 13.5 14H12.5V16C12.5 16.5522 12.9478 16.9999 13.5 17H14V19H13.5C11.8433 18.9999 10.5 17.6568 10.5 16V14H9.5L9.43164 13.9951C9.27483 13.9734 9.13572 13.8782 9.05957 13.7363C8.97264 13.5738 8.98179 13.376 9.08398 13.2227L11.084 10.2227C11.1767 10.0837 11.333 10.0001 11.5 10Z" fill="#000000"/>
<path d="M15.5 10C17.1567 10.0001 18.5 11.3432 18.5 13V15H19.5L19.5684 15.0049C19.7252 15.0266 19.8643 15.1218 19.9404 15.2637C20.0274 15.4262 20.0182 15.624 19.916 15.7773L17.916 18.7773C17.8233 18.9163 17.667 18.9999 17.5 19C17.333 18.9999 17.1767 18.9163 17.084 18.7773L15.084 15.7773C14.9818 15.624 14.9726 15.4262 15.0596 15.2637C15.1466 15.1015 15.3159 15.0001 15.5 15H16.5V13C16.5 12.4478 16.0522 12.0001 15.5 12H15V10H15.5Z" fill="#000000"/>
<path d="M11 2C12.6569 2 14 3.34315 14 5V6H15C16.3059 6 17.4141 6.83532 17.8262 8H5C4.44772 8 4 8.44772 4 9V15C4 15.5523 4.44772 16 5 16H8V18H5C3.34315 18 2 16.6569 2 15V9C2 7.34315 3.34315 6 5 6H6V5C6 3.34315 7.34315 2 9 2H11ZM9 4C8.44772 4 8 4.44772 8 5V6H12V5C12 4.44772 11.5523 4 11 4H9Z" fill="#000000"/>
</svg>
