<svg xmlns="http://www.w3.org/2000/svg" width="20" height="20" viewBox="0 0 20 20" fill="none"><rect width="20" height="20" fill="none"/>
<path d="M11.0498 3.9502H15.2998C16.8172 3.9502 18.0496 5.17733 18.0498 6.69727V13.3018C18.0498 14.8213 16.8178 16.0498 15.2998 16.0498H11.0498V18H9.5498V2H11.0498V3.9502ZM11.0498 14.5498H15.2998C15.9909 14.5498 16.5498 13.9914 16.5498 13.3018V8.5H11.0498V14.5498ZM11.0498 7H16.5498V6.69727C16.5496 6.00833 15.9913 5.4502 15.2998 5.4502H11.0498V7Z" fill="#000000"/>
<path d="M8 5.4502H4.7002C4.00984 5.4502 3.4502 6.00984 3.4502 6.7002V13.2998C3.4502 13.9902 4.00984 14.5498 4.7002 14.5498H8V16.0498H4.7002C3.18141 16.0498 1.9502 14.8186 1.9502 13.2998V6.7002C1.9502 5.18141 3.18141 3.9502 4.7002 3.9502H8V5.4502Z" fill="#000000"/>
</svg>
