<svg xmlns="http://www.w3.org/2000/svg" width="20" height="20" viewBox="0 0 20 20" fill="none"><rect width="20" height="20" fill="none"/>
<path d="M16.9746 11C18.3691 11 19.5 12.1309 19.5 13.5254C19.4998 14.9197 18.369 16.0498 16.9746 16.0498H15.5V17H17V18H15.5V19H14V18H13V17H14V16.0498H13V14.5498H14V11H16.9746ZM15.5 14.5498H16.9746C17.5406 14.5498 17.9998 14.0913 18 13.5254C18 12.9593 17.5407 12.5 16.9746 12.5H15.5V14.5498Z" fill="#000000"/>
<path d="M11.25 2C12.7688 2 14 3.23122 14 4.75V6H15.25C16.7688 6 18 7.23122 18 8.75V9H16.5V8.75C16.5 8.05964 15.9404 7.5 15.25 7.5H4.75C4.05964 7.5 3.5 8.05964 3.5 8.75V15.25C3.5 15.9404 4.05964 16.5 4.75 16.5H11V18H4.75C3.23122 18 2 16.7688 2 15.25V8.75C2 7.23122 3.23122 6 4.75 6H6V4.75C6 3.23122 7.23122 2 8.75 2H11.25ZM8.75 3.5C8.05964 3.5 7.5 4.05964 7.5 4.75V6H12.5V4.75C12.5 4.05964 11.9404 3.5 11.25 3.5H8.75Z" fill="#000000"/>
</svg>
