<svg xmlns="http://www.w3.org/2000/svg" width="16" height="16" viewBox="0 0 16 16" fill="none"><rect width="16" height="16" fill="none"/>
<path fill-rule="evenodd" clip-rule="evenodd" d="M6.76213 7.70257L14.044 11.9067L15.044 10.1747L7.74951 5.96324H14.9358V3.96324H6.85566C6.44382 2.79805 5.33259 1.96324 4.02637 1.96324C2.36951 1.96324 1.02637 3.30638 1.02637 4.96324C1.02637 6.62009 2.36951 7.96324 4.02637 7.96324C4.21354 7.96324 4.39671 7.9461 4.57439 7.9133L8.68888 15.0398L10.4209 14.0398L6.76213 7.70257ZM5.02637 4.96324C5.02637 4.41095 4.57865 3.96324 4.02637 3.96324C3.47408 3.96324 3.02637 4.41095 3.02637 4.96324C3.02637 5.51552 3.47408 5.96324 4.02637 5.96324C4.57865 5.96324 5.02637 5.51552 5.02637 4.96324Z" fill="#000000"/>
</svg>
