<svg xmlns="http://www.w3.org/2000/svg" width="16" height="16" viewBox="0 0 16 16" fill="none"><rect width="16" height="16" fill="none"/>
<path fill-rule="evenodd" clip-rule="evenodd" d="M8.00342 7.00781V9.17336C8.17797 9.03015 8.34196 8.8719 8.48912 8.70133C9.51107 7.51683 10.0034 6.41746 10.0034 5.00781C10.0034 3.90324 9.10799 3.00781 8.00342 3.00781H5.00342C3.89885 3.00781 3.00342 3.90324 3.00342 5.00781C3.00342 6.11238 3.89885 7.00781 5.00342 7.00781H8.00342ZM8.00342 11.5247C8.77962 11.1571 9.48146 10.6128 10.0034 10.0078C11.2579 8.5538 12.0034 7.00781 12.0034 5.00781C12.0034 2.79867 10.2126 1.00781 8.00342 1.00781H5.00342C2.79428 1.00781 1.00342 2.79867 1.00342 5.00781C1.00342 7.21695 2.79428 9.00781 5.00342 9.00781H6.00342V10.7695H6.0071C6.00548 10.7823 6.00422 10.7963 6.00342 10.8115V10.89C6.01311 11.0935 6.09796 11.4094 6.38991 11.6328C6.74929 11.9078 7.14382 11.8542 7.29616 11.793L7.30251 11.8C7.54078 11.7255 7.77531 11.6327 8.00342 11.5247ZM14.5306 7.61704L7.58212 14.5655L8.99634 15.9797L15.9448 9.03125L14.5306 7.61704Z" fill="#000000"/>
</svg>
