<svg xmlns="http://www.w3.org/2000/svg" width="16" height="16" viewBox="0 0 16 16" fill="none"><rect width="16" height="16" fill="none"/>
<path fill-rule="evenodd" clip-rule="evenodd" d="M7 5.17071V1H9V5.17071C9.85241 5.47199 10.528 6.14759 10.8293 7H15V9H10.8293C10.528 9.85241 9.85241 10.528 9 10.8293V15H7L7 10.8293C6.14759 10.528 5.47199 9.85241 5.17071 9H1V7H5.17071C5.47199 6.14759 6.14759 5.47199 7 5.17071ZM9 8C9 8.55228 8.55228 9 8 9C7.44772 9 7 8.55228 7 8C7 7.44772 7.44772 7 8 7C8.55228 7 9 7.44772 9 8Z" fill="#000000"/>
</svg>
