<svg xmlns="http://www.w3.org/2000/svg" width="16" height="16" viewBox="0 0 16 16" fill="none"><rect width="16" height="16" fill="none"/>
<path fill-rule="evenodd" clip-rule="evenodd" d="M6.76212 8.29742L14.0439 4.09325L15.0439 5.8253L7.7495 10.0367H14.9358V12.0367H6.85565C6.44382 13.2019 5.33258 14.0367 4.02636 14.0367C2.36951 14.0367 1.02637 12.6936 1.02637 11.0367C1.02637 9.3799 2.36951 8.03675 4.02636 8.03675C4.21354 8.03675 4.3967 8.05389 4.57439 8.08669L8.68887 0.960205L10.4209 1.9602L6.76212 8.29742ZM5.02636 11.0367C5.02636 11.589 4.57865 12.0367 4.02636 12.0367C3.47408 12.0367 3.02636 11.589 3.02636 11.0367C3.02636 10.4845 3.47408 10.0367 4.02636 10.0367C4.57865 10.0367 5.02636 10.4845 5.02636 11.0367Z" fill="#000000"/>
</svg>
