<svg xmlns="http://www.w3.org/2000/svg" width="16" height="16" viewBox="0 0 16 16" fill="none"><rect width="16" height="16" fill="none"/>
<path fill-rule="evenodd" clip-rule="evenodd" d="M11.7873 9.90807C12.6815 9.2693 13 8.56717 13 8C13 7.43283 12.6815 6.7307 11.7873 6.09193C10.8968 5.45591 9.56421 5 8 5C6.43579 5 5.10316 5.45591 4.21273 6.09193C3.31845 6.7307 3 7.43283 3 8C3 8.56717 3.31845 9.2693 4.21273 9.90807C5.10316 10.5441 6.43579 11 8 11C9.56421 11 10.8968 10.5441 11.7873 9.90807ZM8 13C11.866 13 15 10.7614 15 8C15 5.23858 11.866 3 8 3C4.13401 3 1 5.23858 1 8C1 10.7614 4.13401 13 8 13Z" fill="#000000"/>
</svg>
