<svg xmlns="http://www.w3.org/2000/svg" width="16" height="16" viewBox="0 0 16 16" fill="none"><rect width="16" height="16" fill="none"/>
<g clip-path="url(#clip0_133864_10622)">
<path d="M2.10676 11.0668L0.926758 12.2401L3.76009 15.0734L15.0734 3.76009L12.2401 0.926758L11.0668 2.10676L12.7134 3.76009L12.0001 4.46676L10.3601 2.81342L9.41342 3.76009L10.3601 4.70009L9.64676 5.40676L8.70676 4.46676L7.76676 5.40676L9.41342 7.06009L8.70676 7.76676L7.06009 6.11342L6.11342 7.06009L7.06009 8.00009L6.35342 8.70676L5.40676 7.76676L4.46676 8.70676L6.11342 10.3601L5.40676 11.0668L3.76009 9.41342L2.81342 10.3601L3.76009 11.3001L3.05342 12.0001L2.10676 11.0668Z" fill="#000000"/>
</g>
<defs>
<clipPath id="clip0_133864_10622">
<rect width="16" height="16" fill="white"/>
</clipPath>
</defs>
</svg>
