<svg xmlns="http://www.w3.org/2000/svg" width="24" height="24" viewBox="0 0 24 24" fill="none"><rect width="24" height="24" fill="none"/>
<path fill-rule="evenodd" clip-rule="evenodd" d="M11 9.17071V3H13V9.17071C13.8524 9.47199 14.528 10.1476 14.8293 11H21V13H14.8293C14.528 13.8524 13.8524 14.528 13 14.8293V21H11V14.8293C10.1476 14.528 9.47199 13.8524 9.17071 13H3V11H9.17071C9.47199 10.1476 10.1476 9.47199 11 9.17071ZM13 12C13 12.5523 12.5523 13 12 13C11.4477 13 11 12.5523 11 12C11 11.4477 11.4477 11 12 11C12.5523 11 13 11.4477 13 12Z" fill="#000000"/>
</svg>
