<svg xmlns="http://www.w3.org/2000/svg" width="17" height="16" viewBox="0 0 17 16" fill="none"><rect width="17" height="16" fill="none"/>
<path fill-rule="evenodd" clip-rule="evenodd" d="M1.5 1L3.5 3H13.5L15.5 1H1.5Z" fill="#000000"/>
<path fill-rule="evenodd" clip-rule="evenodd" d="M4.05405 12H1.5V14H6.05405L4.05405 12Z" fill="#000000"/>
<path fill-rule="evenodd" clip-rule="evenodd" d="M10.9473 14H15.5003V12H12.9473L10.9473 14Z" fill="#000000"/>
<path fill-rule="evenodd" clip-rule="evenodd" d="M5.5 5H8.5H11.5L9.5 7H8.5H7.5L5.5 5Z" fill="#000000"/>
<path fill-rule="evenodd" clip-rule="evenodd" d="M5.51925 10.6582C5.60302 9.91957 5.95503 9.26226 6.47551 8.78606L1.5 3.81055V6.63897L5.51925 10.6582ZM11.4825 10.6736C11.4023 9.93296 11.0526 9.27311 10.5334 8.79425L15.5 3.82767V6.65609L11.4825 10.6736Z" fill="#000000"/>
<path fill-rule="evenodd" clip-rule="evenodd" d="M8.5 12C9.05228 12 9.5 11.5523 9.5 11C9.5 10.4477 9.05228 10 8.5 10C7.94772 10 7.5 10.4477 7.5 11C7.5 11.5523 7.94772 12 8.5 12ZM8.5 14C10.1569 14 11.5 12.6569 11.5 11C11.5 9.34315 10.1569 8 8.5 8C6.84315 8 5.5 9.34315 5.5 11C5.5 12.6569 6.84315 14 8.5 14Z" fill="#000000"/>
</svg>
