<svg xmlns="http://www.w3.org/2000/svg" width="24" height="24" viewBox="0 0 24 24" fill="none"><rect width="24" height="24" fill="none"/>
<path fill-rule="evenodd" clip-rule="evenodd" d="M8.73576 14.2665L18.2475 8.7749L19.2475 10.507L9.72314 16.0059H20V18.0059H8.82929C8.41746 19.171 7.30622 20.0059 6 20.0059C4.34315 20.0059 3 18.6627 3 17.0059C3 15.349 4.34315 14.0059 6 14.0059C6.18717 14.0059 6.37034 14.023 6.54802 14.0558L11.9999 4.61279L13.732 5.61279L8.73576 14.2665ZM7 17.0059C7 17.5581 6.55228 18.0059 6 18.0059C5.44772 18.0059 5 17.5581 5 17.0059C5 16.4536 5.44772 16.0059 6 16.0059C6.55228 16.0059 7 16.4536 7 17.0059Z" fill="#000000"/>
</svg>
