<svg xmlns="http://www.w3.org/2000/svg" width="24" height="24" viewBox="0 0 24 24" fill="none"><rect width="24" height="24" fill="none"/>
<path fill-rule="evenodd" clip-rule="evenodd" d="M20.1916 7.31374C19.3678 6.5168 18.4294 5.84174 17.4043 5.31259C15.7642 4.46594 13.9482 4.01648 12.1025 4.00044C10.2569 3.98441 8.43329 4.40224 6.77874 5.22026C5.72701 5.74024 4.76228 6.41268 3.91437 7.21283C3.88691 7.23874 3.85958 7.26479 3.83237 7.29097C3.37795 7.72812 2.95797 8.20239 2.57715 8.70986L4.18087 9.91335L4.18159 9.91239C4.29628 9.7596 4.41525 9.61044 4.53831 9.46506C5.40153 8.44526 6.46605 7.6116 7.66739 7.01765C9.04034 6.33886 10.5536 5.99214 12.0851 6.00545C13.6166 6.01875 15.1236 6.39172 16.4846 7.09427C17.3431 7.53746 18.1284 8.10399 18.8166 8.77337L17.0496 10.5378C16.5564 10.2053 16.0302 9.92171 15.4783 9.69202C14.3881 9.23826 13.2192 9.00367 12.0383 9.00165C10.8574 8.99964 9.68765 9.23024 8.59587 9.68029C7.5041 10.1303 6.51166 10.791 5.67522 11.6246C4.83877 12.4582 4.17471 13.4484 3.72094 14.5386C3.52639 15.0061 3.37213 15.488 3.25921 15.9791C3.10877 16.6334 3.03172 17.3041 3.03057 17.9787L5.13566 17.9823C5.13721 17.0778 5.31688 16.1826 5.66442 15.3475C6.01196 14.5125 6.52057 13.7541 7.1612 13.1157C7.80184 12.4772 8.56195 11.9712 9.39814 11.6265C10.2343 11.2818 11.1302 11.1052 12.0347 11.1067C12.9391 11.1083 13.8344 11.288 14.6694 11.6355C14.9641 11.7581 15.2492 11.9008 15.5229 12.0623L13.3456 14.2365C12.9145 14.0815 12.4594 14.002 12.0003 14.002C11.4784 14.002 10.9615 14.1048 10.4792 14.3045C9.99693 14.5043 9.55874 14.7971 9.18963 15.1662C8.9469 15.4089 8.73716 15.6815 8.56519 15.9769C8.47566 16.1307 8.39636 16.2906 8.32797 16.4558C8.12821 16.938 8.02539 17.4549 8.02539 17.9769H10.0359C10.0359 17.7189 10.0867 17.4635 10.1854 17.2251C10.2841 16.9868 10.4288 16.7702 10.6113 16.5878C10.7937 16.4054 11.0102 16.2607 11.2486 16.162C11.4869 16.0633 11.7424 16.0125 12.0004 16.0125C12.2583 16.0125 12.5138 16.0633 12.7521 16.162C12.9905 16.2607 13.207 16.4054 13.3894 16.5878C13.5719 16.7702 13.7166 16.9868 13.8153 17.2251C13.914 17.4635 13.9648 17.7189 13.9648 17.9769H15.9753C15.9753 17.4549 15.8725 16.938 15.6727 16.4558C15.6043 16.2906 15.525 16.1307 15.4355 15.9769C15.3149 15.7697 15.1757 15.5737 15.0195 15.3914L17.0874 13.3265C17.6386 13.9245 18.08 14.616 18.3905 15.3692C18.7352 16.2054 18.9118 17.1013 18.9102 18.0058L21.0153 18.0094C21.0165 17.3348 20.9417 16.6638 20.7935 16.009C20.6823 15.5175 20.5296 15.0351 20.3367 14.567C19.9206 13.5575 19.3244 12.6329 18.5779 11.8381L21.5402 8.88006L21.5389 8.87882L21.5446 8.87468C21.1504 8.32989 20.7116 7.82163 20.2336 7.35464L20.1916 7.31374Z" fill="#000000"/>
</svg>
