<svg xmlns="http://www.w3.org/2000/svg" width="16" height="16" viewBox="0 0 16 16" fill="none"><rect width="16" height="16" fill="none"/>
<path fill-rule="evenodd" clip-rule="evenodd" d="M12.4107 5.30012C12.0519 5.151 11.7256 4.93363 11.4497 4.66012C11.3662 4.57654 11.2666 4.51061 11.1574 4.46538C11.0482 4.42015 10.9312 4.39687 10.813 4.39687C10.6948 4.39687 10.5778 4.42015 10.4686 4.46538C10.3594 4.51061 10.2602 4.57691 10.1766 4.66048C10.093 4.74405 10.0267 4.84327 9.9815 4.95246C9.93627 5.06165 9.91299 5.17869 9.91299 5.29688C9.91299 5.41506 9.93627 5.5321 9.9815 5.64129C10.0267 5.75048 10.093 5.8497 10.1766 5.93327L10.1749 5.93493C10.4511 6.21241 10.6702 6.54127 10.82 6.90298C10.9708 7.26695 11.0484 7.65706 11.0484 8.05103C11.0484 8.44499 10.9708 8.8351 10.82 9.19908C10.6693 9.56305 10.4483 9.89377 10.1697 10.1723C9.89115 10.4509 9.56044 10.6719 9.19646 10.8227C8.83248 10.9734 8.44238 11.051 8.04841 11.051C7.65444 11.051 7.26434 10.9734 6.90036 10.8227C6.53638 10.6719 6.20567 10.4509 5.92709 10.1723C5.84478 10.0916 5.74838 10.0266 5.64178 9.98247C5.53259 9.93724 5.41555 9.91397 5.29736 9.91397C5.17917 9.91397 5.06214 9.93724 4.95295 9.98247C4.84375 10.0277 4.74454 10.094 4.66097 10.1776C4.57739 10.2611 4.5111 10.3604 4.46587 10.4696C4.42064 10.5787 4.39736 10.6958 4.39736 10.814C4.39736 10.9322 4.42064 11.0492 4.46587 11.1584C4.51053 11.2662 4.57572 11.3643 4.6578 11.4472C4.93638 11.7258 5.15802 12.0558 5.30878 12.4198C5.45955 12.7838 5.53714 13.1739 5.53714 13.5678C5.53714 13.9618 5.45955 14.3519 5.30878 14.7159C5.15802 15.0799 4.93704 15.4106 4.65846 15.6892L3.17354 14.2042C3.25711 14.1207 3.32341 14.0214 3.36864 13.9123C3.41387 13.8031 3.43714 13.686 3.43714 13.5678C3.43714 13.4496 3.41387 13.3326 3.36864 13.2234C3.32398 13.1156 3.25879 13.0175 3.17671 12.9346C2.89813 12.656 2.67649 12.326 2.52572 11.962C2.37496 11.598 2.29736 11.2079 2.29736 10.814C2.29736 10.42 2.37496 10.0299 2.52572 9.66592C2.67649 9.30194 2.89747 8.97122 3.17604 8.69265C3.45462 8.41407 3.78534 8.19309 4.14931 8.04233C4.51329 7.89156 4.9034 7.81397 5.29736 7.81397C5.69133 7.81396 6.08144 7.89156 6.44541 8.04233C6.80939 8.19309 7.14011 8.41407 7.41868 8.69264C7.50099 8.77343 7.59739 8.83836 7.704 8.88252C7.81319 8.92775 7.93022 8.95103 8.04841 8.95103C8.1666 8.95103 8.28363 8.92775 8.39283 8.88252C8.50202 8.83729 8.60123 8.77099 8.68481 8.68742C8.76838 8.60385 8.83467 8.50463 8.8799 8.39544C8.92513 8.28625 8.94841 8.16922 8.94841 8.05103C8.94841 7.93284 8.92513 7.8158 8.8799 7.70661C8.83467 7.59742 8.76838 7.4982 8.68481 7.41463L8.68646 7.41298C8.41034 7.13549 8.19117 6.80663 8.04135 6.44493C7.89059 6.08095 7.81299 5.69084 7.81299 5.29688C7.81299 4.90291 7.89059 4.5128 8.04135 4.14883C8.19211 3.78485 8.41309 3.45413 8.69167 3.17556C8.97024 2.89698 9.30096 2.676 9.66494 2.52524C10.0289 2.37447 10.419 2.29688 10.813 2.29688C11.207 2.29688 11.5971 2.37447 11.961 2.52524C12.3208 2.67425 12.648 2.89185 12.9246 3.16586C13.008 3.24953 13.1075 3.31558 13.2167 3.36093C13.3258 3.40629 13.4428 3.42971 13.561 3.42985C13.6792 3.42999 13.7963 3.40685 13.9055 3.36176C14.0148 3.31666 14.114 3.25048 14.1977 3.16701L15.6809 4.6537C15.402 4.93195 15.071 5.15253 14.7068 5.30286C14.3427 5.45319 13.9525 5.53032 13.5585 5.52985C13.1645 5.52938 12.7745 5.45132 12.4107 5.30012Z" fill="#000000"/>
</svg>
