<svg xmlns="http://www.w3.org/2000/svg" width="16" height="16" viewBox="0 0 16 16" fill="none"><rect width="16" height="16" fill="none"/>
<path fill-rule="evenodd" clip-rule="evenodd" d="M12 5C12.5523 5 13 4.55228 13 4C13 3.44772 12.5523 3 12 3C11.4477 3 11 3.44772 11 4C11 4.55228 11.4477 5 12 5ZM12 7C13.6569 7 15 5.65685 15 4C15 2.34315 13.6569 1 12 1C10.3431 1 9 2.34315 9 4C9 4.46065 9.10382 4.89705 9.28934 5.28707L5.28707 9.28934C4.89705 9.10382 4.46065 9 4 9C2.34315 9 1 10.3431 1 12C1 13.6569 2.34315 15 4 15C5.65685 15 7 13.6569 7 12C7 11.5344 6.89391 11.0935 6.70459 10.7003L10.7003 6.70459C11.0935 6.89391 11.5344 7 12 7ZM5 12C5 12.5523 4.55228 13 4 13C3.44772 13 3 12.5523 3 12C3 11.4477 3.44772 11 4 11C4.55228 11 5 11.4477 5 12Z" fill="#000000"/>
</svg>
