<svg xmlns="http://www.w3.org/2000/svg" width="24" height="24" viewBox="0 0 24 24" fill="none"><rect width="24" height="24" fill="none"/>
<path fill-rule="evenodd" clip-rule="evenodd" d="M17.4043 5.31259C18.4294 5.84174 19.3678 6.5168 20.1916 7.31374L20.2336 7.35464C20.7116 7.82163 21.1504 8.32989 21.5446 8.87468L19.9203 10.0501L19.9182 10.0473C19.0206 8.80777 17.8445 7.79629 16.4846 7.09427C15.1236 6.39172 13.6166 6.01875 12.0851 6.00545C10.5536 5.99214 9.04034 6.33886 7.66739 7.01765C6.46605 7.6116 5.40153 8.44526 4.53831 9.46506C4.41525 9.61044 4.29628 9.7596 4.18159 9.91239L4.18087 9.91335L2.57715 8.70986C2.95797 8.20239 3.37795 7.72812 3.83237 7.29097C3.85958 7.26479 3.88691 7.23874 3.91437 7.21283C4.76228 6.41268 5.72701 5.74024 6.77874 5.22026C8.43329 4.40224 10.2569 3.98441 12.1025 4.00044C13.9482 4.01648 15.7642 4.46594 17.4043 5.31259ZM3.25921 15.9791C3.10877 16.6334 3.03172 17.3041 3.03057 17.9787L5.13566 17.9823C5.13721 17.0778 5.31688 16.1825 5.66442 15.3475C6.01196 14.5125 6.52057 13.7541 7.1612 13.1157C7.80184 12.4772 8.56195 11.9712 9.39814 11.6265C10.2343 11.2818 11.1302 11.1052 12.0347 11.1067C12.9391 11.1083 13.8344 11.288 14.6694 11.6355C15.5045 11.983 16.2628 12.4917 16.9013 13.1323C17.5397 13.7729 18.0458 14.533 18.3905 15.3692C18.7352 16.2054 18.9118 17.1013 18.9102 18.0058L21.0153 18.0094C21.0165 17.3348 20.9417 16.6638 20.7935 16.009C20.6823 15.5175 20.5296 15.0351 20.3367 14.567C19.8866 13.4752 19.226 12.4827 18.3924 11.6463C17.5588 10.8099 16.5686 10.1458 15.4783 9.69202C14.3881 9.23825 13.2192 9.00367 12.0383 9.00165C10.8574 8.99964 9.68765 9.23024 8.59587 9.68029C7.5041 10.1303 6.51166 10.791 5.67522 11.6246C4.83877 12.4582 4.17471 13.4484 3.72094 14.5386C3.52639 15.0061 3.37213 15.488 3.25921 15.9791ZM13.8153 17.2251C13.914 17.4635 13.9648 17.7189 13.9648 17.9769H15.9753C15.9753 17.4549 15.8725 16.938 15.6727 16.4558C15.6043 16.2906 15.525 16.1307 15.4355 15.9769C15.2635 15.6815 15.0538 15.4089 14.8111 15.1662C14.442 14.7971 14.0038 14.5043 13.5215 14.3045C13.0392 14.1048 12.5223 14.002 12.0003 14.002C11.4784 14.002 10.9615 14.1048 10.4792 14.3045C9.99693 14.5043 9.55874 14.7971 9.18963 15.1662C8.9469 15.4089 8.73716 15.6815 8.56519 15.9769C8.47566 16.1307 8.39636 16.2906 8.32797 16.4558C8.12821 16.938 8.02539 17.4549 8.02539 17.9769H10.0359C10.0359 17.7189 10.0867 17.4635 10.1854 17.2251C10.2841 16.9868 10.4288 16.7702 10.6113 16.5878C10.7937 16.4054 11.0102 16.2607 11.2486 16.162C11.4869 16.0633 11.7424 16.0124 12.0004 16.0124C12.2583 16.0124 12.5138 16.0633 12.7521 16.162C12.9905 16.2607 13.207 16.4054 13.3894 16.5878C13.5719 16.7702 13.7166 16.9868 13.8153 17.2251Z" fill="#000000"/>
</svg>
