<svg xmlns="http://www.w3.org/2000/svg" width="16" height="16" viewBox="0 0 16 16" fill="none"><rect width="16" height="16" fill="none"/>
<path fill-rule="evenodd" clip-rule="evenodd" d="M6.70633 10.7046L14.7057 2.70523L13.2915 1.29102L5.29071 9.29181C4.89976 9.1052 4.46208 9.00073 4 9.00073C2.34315 9.00073 1 10.3439 1 12.0007C1 13.6576 2.34315 15.0007 4 15.0007C5.65685 15.0007 7 13.6576 7 12.0007C7 11.5365 6.89456 11.0969 6.70633 10.7046ZM5 12.0007C5 12.553 4.55228 13.0007 4 13.0007C3.44772 13.0007 3 12.553 3 12.0007C3 11.4484 3.44772 11.0007 4 11.0007C4.55228 11.0007 5 11.4484 5 12.0007Z" fill="#000000"/>
</svg>
