<svg xmlns="http://www.w3.org/2000/svg" width="16" height="16" viewBox="0 0 16 16" fill="none"><rect width="16" height="16" fill="none"/>
<path fill-rule="evenodd" clip-rule="evenodd" d="M0.0117188 6.98841C0.417155 6.45001 0.8746 5.95579 1.37622 5.51228C2.02801 4.93598 2.75438 4.4453 3.53814 4.05454C4.92508 3.36305 6.45375 3.00338 8.0035 3.00391C9.55326 3.00444 11.0817 3.36516 12.4681 4.0576C13.2516 4.4489 13.9777 4.94008 14.6291 5.51682C15.1304 5.96068 15.5875 6.45521 15.9925 6.99389L15.9807 7.00277L13.455 9.64042C13.8634 10.1519 14.1988 10.7193 14.4503 11.3265C14.5417 11.5472 14.6216 11.772 14.6897 12C14.8833 12.6478 14.9821 13.3214 14.9821 14H12.9688C12.9688 13.3469 12.8401 12.7003 12.5902 12.0969C12.4459 11.7485 12.2628 11.4185 12.0449 11.113L10.7881 12.4255C10.8516 12.538 10.9084 12.6545 10.958 12.7744C11.119 13.163 11.2018 13.5794 11.2018 14H9.1896C9.1896 13.8437 9.15881 13.6889 9.09899 13.5445C9.03916 13.4 8.95148 13.2688 8.84094 13.1583C8.7304 13.0477 8.59917 12.96 8.45475 12.9002C8.31032 12.8404 8.15553 12.8096 7.9992 12.8096C7.84287 12.8096 7.68808 12.8404 7.54365 12.9002C7.39923 12.96 7.268 13.0477 7.15746 13.1583C7.04692 13.2688 6.95924 13.4 6.89941 13.5445C6.83959 13.6889 6.8088 13.8437 6.8088 14L4.79656 14C4.79656 13.5794 4.8794 13.163 5.04035 12.7744C5.15588 12.4955 5.31003 12.2349 5.49782 12C5.57165 11.9077 5.65067 11.8193 5.73459 11.7354C6.03199 11.438 6.38504 11.2021 6.7736 11.0412C7.16216 10.8802 7.57862 10.7974 7.9992 10.7974C8.41978 10.7974 8.83623 10.8802 9.2248 11.0412C9.25325 11.0529 9.28151 11.0651 9.30957 11.0777L10.5799 9.75113C10.3626 9.61896 10.1349 9.50335 9.89886 9.40557C9.29551 9.15565 8.64884 9.02702 7.99578 9.02702C7.34272 9.02702 6.69605 9.15565 6.0927 9.40557C5.48935 9.65548 4.94114 10.0218 4.47935 10.4836C4.01757 10.9454 3.65126 11.4936 3.40134 12.0969C3.15143 12.7003 3.0228 13.3469 3.0228 14H1.00945C1.00945 13.3214 1.10831 12.6478 1.30184 12C1.36998 11.772 1.44984 11.5472 1.54126 11.3265C1.89235 10.4788 2.40696 9.70867 3.0557 9.05993C3.70444 8.41119 4.47461 7.89658 5.32223 7.54548C6.16985 7.19439 7.07832 7.01368 7.99578 7.01368C8.91324 7.01368 9.82171 7.19439 10.6693 7.54548C11.1377 7.73948 11.5824 7.98339 11.996 8.27227L13.2454 6.96748C12.739 6.52739 12.1775 6.15132 11.5732 5.84953C10.4644 5.29578 9.24216 5.00731 8.00281 5.00689C6.76347 5.00646 5.54099 5.29409 4.43186 5.84708C3.32272 6.40007 2.3573 7.20327 1.61177 8.1933L0.0117188 6.98841Z" fill="#000000"/>
</svg>
