<svg xmlns="http://www.w3.org/2000/svg" width="16" height="16" viewBox="0 0 16 16" fill="none"><rect width="16" height="16" fill="none"/>
<path fill-rule="evenodd" clip-rule="evenodd" d="M3 3V5V5.33594H12.2197H12.9834H13V5V3H3ZM13 6.83984L12.9834 6.84131H3V7V9V9.16406H13V9V7V6.83984ZM3 11V10.6694H13V11V12V13H3V12V11ZM1 5V7V9V11V14C1 14.5522 1.44775 15 2 15H14C14.5522 15 15 14.5522 15 14V11V9V7V5V2C15 1.44775 14.5522 1 14 1H2C1.66113 1 1.36157 1.16846 1.18066 1.42651C1.06689 1.58887 1 1.78662 1 2V5Z" fill="#000000"/>
</svg>
