<svg xmlns="http://www.w3.org/2000/svg" width="24" height="24" viewBox="0 0 24 24" fill="none"><rect width="24" height="24" fill="none"/>
<path fill-rule="evenodd" clip-rule="evenodd" d="M14.7285 10.6878L20.7101 4.70621L19.2959 3.29199L13.3137 9.27421C12.9224 9.08716 12.4842 8.98242 12.0215 8.98242C10.3646 8.98242 9.02148 10.3256 9.02148 11.9824C9.02148 12.4422 9.12493 12.8779 9.30981 13.2673L3.28809 19.2891L4.7023 20.7033L10.7196 14.686C11.1134 14.8759 11.555 14.9824 12.0215 14.9824C13.6783 14.9824 15.0215 13.6393 15.0215 11.9824C15.0215 11.5188 14.9163 11.0797 14.7285 10.6878ZM13.0215 11.9824C13.0215 12.5347 12.5738 12.9824 12.0215 12.9824C11.4692 12.9824 11.0215 12.5347 11.0215 11.9824C11.0215 11.4301 11.4692 10.9824 12.0215 10.9824C12.5738 10.9824 13.0215 11.4301 13.0215 11.9824Z" fill="#000000"/>
</svg>
