<svg xmlns="http://www.w3.org/2000/svg" width="24" height="24" viewBox="0 0 24 24" fill="none"><rect width="24" height="24" fill="none"/>
<path fill-rule="evenodd" clip-rule="evenodd" d="M8.73576 10.7367L18.2475 16.2283L19.2475 14.4962L9.72314 8.99732H20V6.99732H8.82929C8.41746 5.83212 7.30622 4.99732 6 4.99732C4.34315 4.99732 3 6.34046 3 7.99732C3 9.65417 4.34315 10.9973 6 10.9973C6.18717 10.9973 6.37034 10.9802 6.54802 10.9474L11.9999 20.3904L13.732 19.3904L8.73576 10.7367ZM7 7.99732C7 7.44503 6.55228 6.99732 6 6.99732C5.44771 6.99732 5 7.44503 5 7.99732C5 8.5496 5.44771 8.99732 6 8.99732C6.55228 8.99732 7 8.5496 7 7.99732Z" fill="#000000"/>
</svg>
