<svg xmlns="http://www.w3.org/2000/svg" width="24" height="24" viewBox="0 0 24 24" fill="none"><rect width="24" height="24" fill="none"/>
<path fill-rule="evenodd" clip-rule="evenodd" d="M17.2546 14.5785C18.5257 13.7311 19 12.7801 19 12C19 11.2199 18.5257 10.2689 17.2546 9.42146C15.9974 8.58337 14.1455 8 12 8C9.8545 8 8.00257 8.58337 6.74544 9.42146C5.47433 10.2689 5 11.2199 5 12C5 12.7801 5.47433 13.7311 6.74544 14.5785C8.00257 15.4166 9.8545 16 12 16C14.1455 16 15.9974 15.4166 17.2546 14.5785ZM12 18C16.9706 18 21 15.3137 21 12C21 8.68629 16.9706 6 12 6C7.02944 6 3 8.68629 3 12C3 15.3137 7.02944 18 12 18Z" fill="#000000"/>
</svg>
