<svg xmlns="http://www.w3.org/2000/svg" width="24" height="24" viewBox="0 0 24 24" fill="none"><rect width="24" height="24" fill="none"/>
<g clip-path="url(#clip0_111378_17660)">
<path fill-rule="evenodd" clip-rule="evenodd" d="M17.4202 5.43919C17.0952 5.11418 16.7093 4.85638 16.2847 4.68048C16.0516 4.58393 15.8093 4.51309 15.5621 4.46884L15.5438 4.46561C15.3466 4.43139 15.1464 4.41406 14.9453 4.41406C14.4857 4.41406 14.0306 4.50459 13.6059 4.68048C13.1813 4.85638 12.7954 5.11418 12.4704 5.43919C12.1454 5.76419 11.8876 6.15003 11.7117 6.57467C11.5358 6.99931 11.4453 7.45444 11.4453 7.91406C11.4453 8.12137 11.4637 8.32776 11.5001 8.53085L11.5001 8.53086C11.504 8.55291 11.5082 8.57491 11.5126 8.59688C11.5572 8.82119 11.6238 9.04113 11.7117 9.25345C11.8865 9.67542 12.1422 10.0591 12.4643 10.3828L12.4641 10.383C12.6046 10.5235 12.7161 10.6904 12.7922 10.874C12.8682 11.0576 12.9074 11.2544 12.9074 11.4531C12.9074 11.6519 12.8682 11.8487 12.7922 12.0323C12.7161 12.2159 12.6046 12.3827 12.4641 12.5233C12.3236 12.6638 12.1567 12.7753 11.9731 12.8513C11.7895 12.9274 11.5927 12.9665 11.394 12.9665C11.1952 12.9665 10.9984 12.9274 10.8148 12.8513C10.6312 12.7753 10.4644 12.6638 10.3238 12.5233L10.3232 12.5239C10.0009 12.205 9.61971 11.9517 9.20072 11.7781C8.96761 11.6816 8.72531 11.6107 8.47812 11.5665C8.47203 11.5654 8.46593 11.5643 8.45983 11.5633C8.26264 11.529 8.06241 11.5117 7.86133 11.5117C7.4017 11.5117 6.94657 11.6022 6.52194 11.7781C6.0973 11.954 5.71146 12.2118 5.38645 12.5368C5.06145 12.8618 4.80364 13.2477 4.62775 13.6723C4.45186 14.097 4.36133 14.5521 4.36133 15.0117C4.36133 15.219 4.37975 15.4254 4.41611 15.6285C4.41616 15.6288 4.41621 15.6291 4.41627 15.6294C4.46053 15.8763 4.53131 16.1183 4.62775 16.3511C4.80364 16.7757 5.06145 17.1616 5.38645 17.4866L5.38743 17.4856C5.52304 17.6239 5.63087 17.787 5.70503 17.966C5.78109 18.1496 5.82023 18.3464 5.82023 18.5452C5.82023 18.7439 5.78109 18.9407 5.70503 19.1243C5.62897 19.308 5.5175 19.4748 5.37696 19.6153L6.7817 21.0201C7.1067 20.6951 7.36451 20.3092 7.5404 19.8846C7.63696 19.6515 7.70779 19.4092 7.75205 19.162L7.75527 19.1437C7.7895 18.9465 7.80682 18.7463 7.80682 18.5452C7.80682 18.3379 7.78841 18.1315 7.75205 17.9284L7.75188 17.9275C7.70762 17.6806 7.63684 17.4386 7.5404 17.2058C7.36451 16.7812 7.1067 16.3953 6.7817 16.0703L6.78072 16.0713C6.64511 15.933 6.53728 15.7699 6.46312 15.5909C6.38707 15.4073 6.34792 15.2105 6.34792 15.0117C6.34792 14.813 6.38707 14.6162 6.46312 14.4326C6.53918 14.2489 6.65065 14.0821 6.79119 13.9416C6.93172 13.801 7.09856 13.6896 7.28217 13.6135C7.46579 13.5375 7.66258 13.4983 7.86133 13.4983C8.06007 13.4983 8.25687 13.5375 8.44048 13.6135C8.6241 13.6896 8.79094 13.801 8.93147 13.9416L8.9321 13.9409C9.25437 14.2599 9.63558 14.5132 10.0546 14.6867C10.2669 14.7746 10.4868 14.8413 10.7111 14.8859C10.7331 14.8902 10.7551 14.8944 10.7772 14.8983C10.9803 14.9347 11.1867 14.9531 11.394 14.9531C11.8536 14.9531 12.3087 14.8626 12.7334 14.6867C13.158 14.5108 13.5438 14.253 13.8688 13.928C14.1938 13.603 14.4516 13.2172 14.6275 12.7925C14.8034 12.3679 14.894 11.9128 14.894 11.4531C14.894 11.252 14.8766 11.0518 14.8424 10.8546L14.8392 10.8363C14.7949 10.5891 14.7241 10.3468 14.6275 10.1137C14.4528 9.69177 14.1971 9.30812 13.875 8.9844L13.8752 8.9842C13.7346 8.84367 13.6232 8.67683 13.5471 8.49322C13.4711 8.3096 13.4319 8.11281 13.4319 7.91406C13.4319 7.71532 13.4711 7.51852 13.5471 7.33491C13.6232 7.15129 13.7346 6.98445 13.8752 6.84392C14.0157 6.70339 14.1825 6.59191 14.3662 6.51586C14.5498 6.4398 14.7466 6.40066 14.9453 6.40066C15.1441 6.40065 15.3409 6.4398 15.5245 6.51586C15.708 6.59186 15.8747 6.70324 16.0152 6.84364L16.0151 6.84375C16.3401 7.16876 16.7259 7.42656 17.1505 7.60245C17.3836 7.69901 17.6259 7.76985 17.8731 7.8141L17.8914 7.81733C18.0886 7.85155 18.2888 7.86888 18.4899 7.86888C18.6972 7.86888 18.9036 7.85046 19.1067 7.8141L19.1076 7.81394C19.3545 7.76967 19.5965 7.69889 19.8293 7.60245C20.254 7.42656 20.6398 7.16876 20.9648 6.84375L19.5601 5.43902C19.4195 5.57955 19.2527 5.69103 19.0691 5.76708C18.8855 5.84314 18.6887 5.88228 18.4899 5.88228C18.2912 5.88228 18.0944 5.84314 17.9108 5.76708C17.7273 5.69108 17.5605 5.5797 17.4201 5.4393L17.4202 5.43919Z" fill="#000000"/>
</g>
<defs>
<clipPath id="clip0_111378_17660">
<rect width="24" height="24" fill="white"/>
</clipPath>
</defs>
</svg>
