<svg xmlns="http://www.w3.org/2000/svg" width="24" height="24" viewBox="0 0 24 24" fill="none"><rect width="24" height="24" fill="none"/>
<path fill-rule="evenodd" clip-rule="evenodd" d="M9.99854 9.00391V11.1695C10.1731 11.0262 10.3371 10.868 10.4842 10.6974C11.5062 9.51292 11.9985 8.41356 11.9985 7.00391C11.9985 5.89934 11.1031 5.00391 9.99854 5.00391H6.99854C5.89397 5.00391 4.99854 5.89934 4.99854 7.00391C4.99854 8.10848 5.89397 9.00391 6.99854 9.00391H9.99854ZM9.99854 13.5208C10.7747 13.1532 11.4766 12.6089 11.9985 12.0039C13.253 10.5499 13.9985 9.00391 13.9985 7.00391C13.9985 4.79477 12.2077 3.00391 9.99854 3.00391H6.99854C4.7894 3.00391 2.99854 4.79477 2.99854 7.00391C2.99854 9.21305 4.7894 11.0039 6.99854 11.0039H7.99854V12.7656H8.00222C8.00059 12.7783 7.99933 12.7924 7.99854 12.8075V12.8861C8.00823 13.0896 8.09308 13.4055 8.38503 13.6289C8.74441 13.9039 9.13894 13.8503 9.29128 13.7891L9.29763 13.7961C9.5359 13.7216 9.77043 13.6288 9.99854 13.5208ZM19.579 9.57993L9.57895 19.5799L10.9932 20.9941L20.9932 10.9941L19.579 9.57993Z" fill="#000000"/>
</svg>
