<svg xmlns="http://www.w3.org/2000/svg" width="16" height="16" viewBox="0 0 16 16" fill="none"><rect width="16" height="16" fill="none"/>
<path fill-rule="evenodd" clip-rule="evenodd" d="M10.6952 6.71905L14.7118 2.70247L13.2976 1.28825L9.28349 5.30237C8.89066 5.11353 8.45036 5.00774 7.98535 5.00774C6.3285 5.00774 4.98535 6.35088 4.98535 8.00774C4.98535 8.47268 5.09112 8.91292 5.27991 9.30571L1.28809 13.2975L2.7023 14.7117L6.6965 10.7175C7.08698 10.9036 7.524 11.0077 7.98535 11.0077C9.64221 11.0077 10.9854 9.66459 10.9854 8.00774C10.9854 7.54645 10.8812 7.10949 10.6952 6.71905ZM8.98535 8.00774C8.98535 8.56002 8.53764 9.00774 7.98535 9.00774C7.43307 9.00774 6.98535 8.56002 6.98535 8.00774C6.98535 7.45545 7.43307 7.00774 7.98535 7.00774C8.53764 7.00774 8.98535 7.45545 8.98535 8.00774Z" fill="#000000"/>
</svg>
