<svg xmlns="http://www.w3.org/2000/svg" width="16" height="16" viewBox="0 0 16 16" fill="none"><rect width="16" height="16" fill="none"/>
<path fill-rule="evenodd" clip-rule="evenodd" d="M13.9882 7.12359C13.3038 6.17777 12.4067 5.40599 11.3693 4.87046C10.3319 4.33493 9.18322 4.05064 8.01579 4.04049C6.84837 4.03035 5.69489 4.29464 4.64834 4.81206C3.60179 5.32948 2.69146 6.08555 1.99071 7.01933L0.358887 5.79475C0.763814 5.25516 1.22368 4.76216 1.72977 4.32298C2.33927 3.79408 3.0158 3.34325 3.74412 2.98316C5.0772 2.32408 6.54648 1.98744 8.03352 2.00036C9.52057 2.01328 10.9838 2.37541 12.3052 3.05756C13.0271 3.43025 13.6957 3.89276 14.296 4.43218C14.7943 4.88008 15.2456 5.381 15.6411 5.92754L13.9882 7.12359ZM1.25449 11.1587C1.05407 11.8177 0.95166 12.504 0.95166 13.1953H2.96895C2.96895 12.541 3.09783 11.893 3.34823 11.2885C3.59864 10.684 3.96566 10.1347 4.42835 9.672C4.89104 9.20931 5.44033 8.84229 6.04486 8.59188C6.64939 8.34148 7.29732 8.2126 7.95166 8.2126C8.606 8.2126 9.25393 8.34148 9.85846 8.59188C10.463 8.84229 11.0123 9.20931 11.475 9.672C11.9377 10.1347 12.3047 10.684 12.5551 11.2885C12.8055 11.893 12.9344 12.541 12.9344 13.1953H14.9517C14.9517 12.504 14.8493 11.8177 14.6488 11.1587C14.5828 10.9414 14.506 10.7271 14.4188 10.5165C14.067 9.66725 13.5514 8.89558 12.9014 8.24556C12.2514 7.59555 11.4797 7.07994 10.6304 6.72816C9.78117 6.37637 8.87091 6.19531 7.95166 6.19531C7.03241 6.19531 6.12216 6.37637 5.27288 6.72816C4.4236 7.07994 3.65192 7.59556 3.00191 8.24557C2.3519 8.89558 1.83629 9.66725 1.4845 10.5165C1.39729 10.7271 1.32056 10.9414 1.25449 11.1587ZM9.17986 12.7197C9.23969 12.8642 9.27048 13.019 9.27048 13.1753H11.2827C11.2827 12.7547 11.1999 12.3383 11.0389 11.9497C10.9234 11.6708 10.7692 11.4102 10.5815 11.1753C10.5076 11.083 10.4286 10.9946 10.3447 10.9107C10.0473 10.6133 9.69424 10.3774 9.30567 10.2164C8.91711 10.0555 8.50065 9.97266 8.08008 9.97266C7.6595 9.97266 7.24304 10.0555 6.85448 10.2164C6.46592 10.3774 6.11286 10.6133 5.81547 10.9107C5.73155 10.9946 5.65253 11.083 5.5787 11.1753C5.39091 11.4102 5.23676 11.6708 5.12123 11.9497C4.96028 12.3383 4.87744 12.7547 4.87744 13.1753H6.88968C6.88968 13.019 6.92047 12.8642 6.98029 12.7197C7.04011 12.5753 7.1278 12.4441 7.23834 12.3336C7.34888 12.223 7.48011 12.1353 7.62453 12.0755C7.76896 12.0157 7.92375 11.9849 8.08008 11.9849C8.2364 11.9849 8.3912 12.0157 8.53562 12.0755C8.68005 12.1353 8.81128 12.223 8.92182 12.3336C9.03236 12.4441 9.12004 12.5753 9.17986 12.7197Z" fill="#000000"/>
</svg>
