<svg xmlns="http://www.w3.org/2000/svg" width="24" height="24" viewBox="0 0 24 24" fill="none"><rect width="24" height="24" fill="none"/>
<path fill-rule="evenodd" clip-rule="evenodd" d="M5 1C2.79086 1 1 2.79086 1 5V19C1 21.2091 2.79086 23 5 23H19C21.2091 23 23 21.2091 23 19V5C23 2.79086 21.2091 1 19 1H5ZM12.9238 5.45933V3.52734H11.6055V5.45235C11.1011 5.5102 10.647 5.63904 10.2432 5.83887C9.6748 6.12012 9.23535 6.52148 8.9248 7.04297C8.61426 7.56445 8.45898 8.18555 8.45898 8.90625C8.45898 9.59766 8.60254 10.1865 8.88965 10.6729C9.18262 11.1592 9.5957 11.5664 10.1289 11.8945C10.668 12.2227 11.3066 12.501 12.0449 12.7295C12.6543 12.9287 13.1406 13.1455 13.5039 13.3799C13.8672 13.6143 14.1279 13.8721 14.2861 14.1533C14.4443 14.4346 14.5234 14.751 14.5234 15.1025C14.5234 15.5186 14.4268 15.8818 14.2334 16.1924C14.04 16.5029 13.7588 16.7432 13.3896 16.9131C13.0264 17.0771 12.5811 17.1592 12.0537 17.1592C11.7666 17.1592 11.4766 17.1211 11.1836 17.0449C10.8965 16.9629 10.6328 16.8281 10.3926 16.6406C10.1523 16.4473 9.95898 16.1895 9.8125 15.8672C9.67188 15.5391 9.60156 15.126 9.60156 14.6279H7.9668C7.9668 15.3662 8.08398 15.9902 8.31836 16.5C8.55273 17.0039 8.86621 17.4111 9.25879 17.7217C9.65137 18.0264 10.0908 18.2461 10.5771 18.3809C10.868 18.4615 11.161 18.518 11.4561 18.5504V20.2266H12.7656V18.547C13.3009 18.4905 13.7843 18.3678 14.2158 18.1787C14.8311 17.9092 15.3086 17.5166 15.6484 17.001C15.9883 16.4795 16.1582 15.8408 16.1582 15.085C16.1582 14.3877 16.0205 13.8047 15.7451 13.3359C15.4697 12.8613 15.0684 12.4629 14.541 12.1406C14.0137 11.8125 13.3721 11.5283 12.6162 11.2881C11.9717 11.0713 11.4648 10.8516 11.0957 10.6289C10.7324 10.4004 10.4746 10.1455 10.3223 9.86426C10.1699 9.58301 10.0938 9.25488 10.0938 8.87988C10.0938 8.47559 10.1699 8.12109 10.3223 7.81641C10.4746 7.50586 10.709 7.26562 11.0254 7.0957C11.3477 6.92578 11.7549 6.84082 12.2471 6.84082C12.5986 6.84082 12.9092 6.9082 13.1787 7.04297C13.4482 7.17188 13.6768 7.35938 13.8643 7.60547C14.0518 7.8457 14.1924 8.12988 14.2861 8.45801C14.3799 8.78613 14.4268 9.14648 14.4268 9.53906H16.0439C16.0439 8.87109 15.9561 8.28223 15.7803 7.77246C15.6104 7.2627 15.3613 6.83203 15.0332 6.48047C14.7109 6.12891 14.3154 5.86523 13.8467 5.68945C13.5627 5.57942 13.2551 5.50271 12.9238 5.45933Z" fill="#000000"/>
</svg>
