<svg xmlns="http://www.w3.org/2000/svg" width="24" height="24" viewBox="0 0 24 24" fill="none"><rect width="24" height="24" fill="none"/>
<path d="M13.6895 18.3118H9.60156V21.2444H6.40234V18.3118H3.7998V15.7346H6.40234V14.3762H3.7998V11.7991H6.40234V2.76001H13.4736C15.5133 2.76001 17.1426 3.29321 18.3613 4.35962C19.5801 5.41756 20.1895 6.82674 20.1895 8.58716C20.1895 10.3814 19.6097 11.7906 18.4502 12.8147C17.2907 13.8303 15.6784 14.3508 13.6133 14.3762H9.60156V15.7346H13.6895V18.3118ZM9.60156 11.7991H13.4229C14.5739 11.7991 15.4541 11.5325 16.0635 10.9993C16.6729 10.4661 16.9775 9.67049 16.9775 8.61255C16.9775 7.66463 16.6771 6.89022 16.0762 6.28931C15.4837 5.6884 14.6628 5.37524 13.6133 5.34985H9.60156V11.7991Z" fill="#000000"/>
</svg>
