<svg xmlns="http://www.w3.org/2000/svg" width="24" height="24" viewBox="0 0 24 24" fill="none"><rect width="24" height="24" fill="none"/>
<path d="M15.0022 16.5426C15.0022 15.8275 14.7751 15.2387 14.3209 14.776C13.8666 14.3049 13.1095 13.8843 12.0496 13.5142C10.9896 13.1356 10.1652 12.7865 9.57638 12.4669C7.61633 11.4154 6.63631 9.8591 6.63631 7.79811C6.63631 6.40168 7.06113 5.25342 7.91076 4.35331C8.76039 3.45321 9.91286 2.91903 11.3682 2.75079V0H13.3871V2.77603C14.8508 2.98633 15.9823 3.60883 16.7814 4.64353C17.5806 5.66982 17.9802 7.00736 17.9802 8.65615H14.9265C14.9265 7.59621 14.6868 6.76341 14.2073 6.15773C13.7362 5.54364 13.0927 5.23659 12.2767 5.23659C11.4691 5.23659 10.8382 5.45531 10.3839 5.89274C9.92969 6.33018 9.70256 6.95689 9.70256 7.77287C9.70256 8.50473 9.92548 9.09359 10.3713 9.53943C10.8256 9.97687 11.5911 10.3933 12.6679 10.7886C13.7446 11.184 14.59 11.5499 15.2041 11.8864C15.8182 12.2229 16.3356 12.6099 16.7562 13.0473C17.1768 13.4763 17.5007 13.9727 17.7278 14.5363C17.9549 15.0999 18.0685 15.7603 18.0685 16.5173C18.0685 17.939 17.6311 19.0915 16.7562 19.9748C15.8897 20.858 14.6784 21.3796 13.1221 21.5394V24H11.1158V21.5521C9.45019 21.367 8.16733 20.7697 7.26723 19.7603C6.37553 18.7508 5.92969 17.4132 5.92969 15.7476H8.99593C8.99593 16.8076 9.26092 17.6278 9.79089 18.2082C10.3293 18.7886 11.0864 19.0789 12.0622 19.0789C13.0212 19.0789 13.7488 18.8475 14.2451 18.3849C14.7499 17.9222 15.0022 17.3081 15.0022 16.5426Z" fill="#000000"/>
</svg>
