<svg xmlns="http://www.w3.org/2000/svg" width="24" height="24" viewBox="0 0 24 24" fill="none"><rect width="24" height="24" fill="none"/>
<path d="M6.50439 12.3472H9.21045C9.75277 12.3472 10.1955 12.4357 10.5386 12.6128C10.8817 12.7899 11.1335 13.0417 11.2939 13.3682C11.4544 13.6947 11.5347 14.082 11.5347 14.5303C11.5347 14.973 11.4406 15.3576 11.2524 15.6841C11.0643 16.005 10.7904 16.2541 10.4307 16.4312C10.0765 16.6082 9.64486 16.6968 9.13574 16.6968H6.50439V12.3472Z" fill="#000000"/>
<path d="M6.50439 11.0605V7.22559H8.86182C9.39307 7.22559 9.83024 7.29199 10.1733 7.4248C10.522 7.55208 10.7793 7.75684 10.9453 8.03906C11.1169 8.31576 11.2026 8.67546 11.2026 9.11816C11.2026 9.52214 11.1058 9.87077 10.9121 10.1641C10.724 10.4518 10.4583 10.6732 10.1152 10.8281C9.77214 10.9831 9.37093 11.0605 8.91162 11.0605H6.50439Z" fill="#000000"/>
<path fill-rule="evenodd" clip-rule="evenodd" d="M5 1C2.79086 1 1 2.79086 1 5V19C1 21.2091 2.79086 23 5 23H19C21.2091 23 23 21.2091 23 19V5C23 2.79086 21.2091 1 19 1H5ZM11.0296 11.6325C11.1442 11.5825 11.2544 11.5274 11.3604 11.4673C11.8141 11.2127 12.1683 10.8862 12.4229 10.4878C12.6774 10.0838 12.8047 9.63281 12.8047 9.13477C12.8047 8.57031 12.7161 8.0861 12.5391 7.68213C12.362 7.27816 12.1019 6.94613 11.7588 6.68604C11.4212 6.42041 11.009 6.22673 10.522 6.10498C10.035 5.9777 9.48161 5.91406 8.86182 5.91406H4.90234V18H9.13574C9.94368 18 10.6465 17.8672 11.2441 17.6016C11.8418 17.3304 12.3039 16.9375 12.6304 16.4229C12.9624 15.9027 13.1284 15.2663 13.1284 14.5137C13.1284 13.9935 13.0205 13.5176 12.8047 13.0859C12.5944 12.6543 12.2873 12.3001 11.8833 12.0234C11.6328 11.8484 11.3482 11.7181 11.0296 11.6325ZM17.1494 11.6147V18H15.6137V9.01855H17.1079L17.1382 10.0494C17.1419 10.0433 17.1456 10.0373 17.1494 10.0312C17.3763 9.66048 17.664 9.37272 18.0126 9.16797C18.3668 8.95768 18.7874 8.85254 19.2744 8.85254C19.385 8.85254 19.5123 8.86637 19.6562 8.89404C19.8001 8.91618 19.8997 8.94108 19.955 8.96875L19.9467 10.3965C19.8194 10.3688 19.6977 10.3522 19.5815 10.3467C19.4708 10.3356 19.3435 10.3301 19.1997 10.3301C18.8455 10.3301 18.5328 10.3854 18.2617 10.4961C17.9905 10.6068 17.7609 10.7617 17.5727 10.9609C17.3983 11.1456 17.2572 11.3635 17.1494 11.6147Z" fill="#000000"/>
</svg>
