<svg xmlns="http://www.w3.org/2000/svg" width="24" height="24" viewBox="0 0 24 24" fill="none"><rect width="24" height="24" fill="none"/>
<path d="M2 20V17H4V6C4 5.45 4.19583 4.97917 4.5875 4.5875C4.97917 4.19583 5.45 4 6 4H21V6H6V17H12V20H2ZM15 20C14.7167 20 14.4792 19.9042 14.2875 19.7125C14.0958 19.5208 14 19.2833 14 19V9C14 8.71667 14.0958 8.47917 14.2875 8.2875C14.4792 8.09583 14.7167 8 15 8H21C21.2833 8 21.5208 8.09583 21.7125 8.2875C21.9042 8.47917 22 8.71667 22 9V19C22 19.2833 21.9042 19.5208 21.7125 19.7125C21.5208 19.9042 21.2833 20 21 20H15ZM16 17H20V10H16V17Z" fill="#000000"/>
</svg>
