<svg xmlns="http://www.w3.org/2000/svg" width="24" height="24" viewBox="0 0 24 24" fill="none"><rect width="24" height="24" fill="none"/>
<path d="M13.75 5.75006C13.75 6.71656 12.9665 7.50006 12 7.50006C11.0335 7.50006 10.25 6.71656 10.25 5.75006C10.25 4.78356 11.0335 4.00006 12 4.00006C12.9665 4.00006 13.75 4.78356 13.75 5.75006Z" fill="#000000"/>
<path d="M13.75 12.01C13.75 12.9765 12.9665 13.76 12 13.76C11.0335 13.76 10.25 12.9765 10.25 12.01C10.25 11.0435 11.0335 10.26 12 10.26C12.9665 10.26 13.75 11.0435 13.75 12.01Z" fill="#000000"/>
<path d="M13.75 18.2501C13.75 19.2166 12.9665 20.0001 12 20.0001C11.0335 20.0001 10.25 19.2166 10.25 18.2501C10.25 17.2836 11.0335 16.5001 12 16.5001C12.9665 16.5001 13.75 17.2836 13.75 18.2501Z" fill="#000000"/>
</svg>
