<svg xmlns="http://www.w3.org/2000/svg" width="24" height="24" viewBox="0 0 24 24" fill="none"><rect width="24" height="24" fill="none"/>
<path fill-rule="evenodd" clip-rule="evenodd" d="M5 1C2.79086 1 1 2.79086 1 5V19C1 21.2091 2.79086 23 5 23H19C21.2091 23 23 21.2091 23 19V5C23 2.79086 21.2091 1 19 1H5ZM14.6558 17.124C14.3335 17.1768 14.0024 17.2031 13.6626 17.2031C13.1997 17.2031 12.7778 17.127 12.397 16.9746C12.022 16.8223 11.6997 16.5938 11.4302 16.2891C11.1606 15.9844 10.9526 15.5977 10.8062 15.1289C10.6774 14.6996 10.6076 14.2016 10.5967 13.6348H13.9702V12.5449H10.5952V11.3496H13.9702V10.251H10.6C10.6181 9.73483 10.6868 9.2778 10.8062 8.87988C10.9468 8.41113 11.1489 8.02441 11.4126 7.71973C11.6821 7.41504 12.0044 7.18652 12.3794 7.03418C12.7603 6.88184 13.1851 6.80566 13.6538 6.80566C13.9937 6.80566 14.3276 6.83496 14.6558 6.89355C14.9839 6.94629 15.2915 7.01953 15.5786 7.11328L15.7544 5.69824C15.397 5.61621 15.0454 5.55176 14.6997 5.50488C14.3599 5.45215 14.0054 5.42578 13.6362 5.42578C12.9331 5.42578 12.2915 5.53418 11.7114 5.75098C11.1372 5.96191 10.6392 6.28125 10.2173 6.70898C9.79541 7.13672 9.47021 7.66992 9.2417 8.30859C9.0402 8.87177 8.92754 9.51923 8.90372 10.251H7.33447V11.3496H8.89893V12.5449H7.33447V13.6348H8.90027C8.91367 14.4189 9.02748 15.1103 9.2417 15.709C9.47607 16.3418 9.8042 16.8721 10.2261 17.2998C10.6479 17.7217 11.1489 18.041 11.729 18.2578C12.3091 18.4688 12.9478 18.5742 13.645 18.5742C14.0083 18.5742 14.3687 18.5508 14.7261 18.5039C15.0835 18.457 15.4263 18.3926 15.7544 18.3105L15.5786 16.9043C15.2856 16.998 14.978 17.0713 14.6558 17.124Z" fill="#000000"/>
</svg>
