<svg xmlns="http://www.w3.org/2000/svg" width="24" height="24" viewBox="0 0 24 24" fill="none"><rect width="24" height="24" fill="none"/>
<path fill-rule="evenodd" clip-rule="evenodd" d="M5 1C2.79086 1 1 2.79086 1 5V19C1 21.2091 2.79086 23 5 23H19C21.2091 23 23 21.2091 23 19V5C23 2.79086 21.2091 1 19 1H5ZM7.33545 18.3984H16.4146V17.0186H9.98414C10.1019 16.8438 10.2004 16.6417 10.2798 16.4121C10.4438 15.9316 10.5229 15.416 10.5171 14.8652L10.45 12.9229H13.2065V11.543H10.4023L10.3237 9.2666C10.3237 8.73926 10.4146 8.29395 10.5962 7.93066C10.7837 7.56152 11.0327 7.2832 11.3433 7.0957C11.6597 6.90234 12.0112 6.80566 12.3979 6.80566C12.7612 6.80566 13.1011 6.87305 13.4175 7.00781C13.7339 7.14258 13.9888 7.35938 14.1821 7.6582C14.3813 7.95703 14.481 8.35254 14.481 8.84473H16.1685C16.1685 8.16504 16.0249 7.57031 15.7378 7.06055C15.4507 6.54492 15.0376 6.14355 14.4985 5.85645C13.9595 5.56934 13.3062 5.42578 12.5386 5.42578C11.7944 5.42578 11.1265 5.57812 10.5347 5.88281C9.94873 6.1875 9.48584 6.62695 9.146 7.20117C8.80615 7.76953 8.63623 8.45801 8.63623 9.2666L8.71473 11.543H7.30029V12.9229H8.76231L8.82959 14.874C8.82959 15.1318 8.80322 15.4189 8.75049 15.7354C8.70361 16.0518 8.61865 16.333 8.49561 16.5791C8.37842 16.8193 8.21729 16.9658 8.01221 17.0186H7.33545V18.3984Z" fill="#000000"/>
</svg>
