<svg xmlns="http://www.w3.org/2000/svg" width="24" height="24" viewBox="0 0 24 24" fill="none"><rect width="24" height="24" fill="none"/>
<path fill-rule="evenodd" clip-rule="evenodd" d="M5 1C2.79086 1 1 2.79086 1 5V19C1 21.2091 2.79086 23 5 23H19C21.2091 23 23 21.2091 23 19V5C23 2.79086 21.2091 1 19 1H5ZM10.4124 16.8948H6.99V18.2988H16.512V16.8948H14.118C13.314 16.8948 12.582 16.7628 11.922 16.4988C11.262 16.2348 10.698 15.8628 10.23 15.3828C9.774 14.9028 9.42 14.3388 9.168 13.6908C8.916 13.0308 8.79 12.3048 8.79 11.5128C8.79 10.7568 8.88 10.0908 9.06 9.51483C9.252 8.92683 9.528 8.43483 9.888 8.03883C10.2434 7.66055 10.6754 7.37535 11.184 7.18322V10.8648H12.264V6.90703C12.5366 6.86956 12.8246 6.85083 13.128 6.85083C13.3216 6.85083 13.5136 6.85728 13.704 6.87019V10.8648H14.784V7.01302C15.264 7.09661 15.744 7.21655 16.224 7.37283V5.98683C15.7708 5.81686 15.2907 5.68969 14.784 5.60532V3.62883H13.704V5.47291C13.4449 5.45552 13.1749 5.44683 12.894 5.44683C12.6779 5.44683 12.4679 5.45418 12.264 5.46889V3.62883H11.184V5.62849C10.919 5.69021 10.667 5.76765 10.428 5.86083C9.72 6.12483 9.126 6.51483 8.646 7.03083C8.166 7.54683 7.8 8.17683 7.548 8.92083C7.308 9.65283 7.188 10.4868 7.188 11.4228C7.188 12.2508 7.308 12.9948 7.548 13.6548C7.788 14.3148 8.118 14.8968 8.538 15.4008C8.958 15.9048 9.444 16.3248 9.996 16.6608C10.1326 16.744 10.2714 16.822 10.4124 16.8948Z" fill="#000000"/>
</svg>
