<svg xmlns="http://www.w3.org/2000/svg" width="24" height="24" viewBox="0 0 24 24" fill="none"><rect width="24" height="24" fill="none"/>
<path fill-rule="evenodd" clip-rule="evenodd" d="M5 1C2.79086 1 1 2.79086 1 5V19C1 21.2091 2.79086 23 5 23H19C21.2091 23 23 21.2091 23 19V5C23 2.79086 21.2091 1 19 1H5ZM15.3936 12.9199V11.8213H13.1048L16.3164 5.50195H14.4443L11.7371 11.3295L9.03906 5.50195H7.13184L10.3583 11.8213H8.05469V12.9199H10.8496V14.3789H8.05469V15.4688H10.8496V18.2988H12.5371V15.4688H15.3936V14.3789H12.5371V12.9384L12.5465 12.9199H15.3936Z" fill="#000000"/>
</svg>
