<svg xmlns="http://www.w3.org/2000/svg" width="24" height="24" viewBox="0 0 24 24" fill="none"><rect width="24" height="24" fill="none"/>
<path d="M1 5C1 2.79086 2.79086 1 5 1H19C21.2091 1 23 2.79086 23 5V19C23 21.2091 21.2091 23 19 23H5C2.79086 23 1 21.2091 1 19V5ZM12 4C9.86067 4 7.85618 4.83146 6.34157 6.34157C4.83146 7.85169 4 9.86067 4 12C4 14.1348 4.83146 16.1438 6.34157 17.6584C7.85169 19.1685 9.86067 20 12 20C14.1393 20 16.1438 19.1685 17.6584 17.6584C19.1685 16.1483 20 14.1393 20 12C20 9.86067 19.1685 7.85169 17.6584 6.34157C16.1483 4.83146 14.1393 4 12 4ZM7.95955 6.1618V11.2719H4.93933C5.15506 9.15506 6.30112 7.31236 7.95955 6.1618ZM7.95955 14.1843V12.7281H4.93933C4.98876 13.2315 5.09213 13.7169 5.24494 14.1843H7.95955ZM5.90562 15.6449C6.42697 16.5124 7.12809 17.2629 7.95955 17.8382V15.6449H5.90562ZM12 19.0966C15.9236 19.0966 19.0966 15.9281 19.0966 12.0045C19.0966 8.0809 15.9146 4.90337 11.9955 4.90337C11.0382 4.90337 10.1213 5.09213 9.28539 5.4382L11.3798 5.42022C14.8719 5.42022 16.0045 7.11461 16.0045 9.06067C16.0045 11.0742 14.6202 12.7326 11.3798 12.7326L9.41573 12.7281V14.1843H12.7326V15.6404H9.41573V18.6112C10.2157 18.9258 11.0876 19.0966 12 19.0966ZM9.42022 11.2719L11.3483 11.2764C13.3483 11.2764 14.3551 10.5348 14.3551 9.11461C14.3551 7.70787 13.4742 6.88539 11.4742 6.88539L9.42022 6.89888V11.2719Z" fill="#000000"/>
</svg>
