<svg xmlns="http://www.w3.org/2000/svg" width="24" height="24" viewBox="0 0 24 24" fill="none"><rect width="24" height="24" fill="none"/>
<path d="M10.48 12.398H13.521C14.1597 12.398 14.6841 12.2955 15.0942 12.0904C15.5044 11.8853 15.8062 11.5953 15.9995 11.2203C16.1987 10.8453 16.2983 10.4029 16.2983 9.89316C16.2983 9.47714 16.2046 9.0787 16.0171 8.69785C15.8354 8.31699 15.5396 8.00351 15.1294 7.75742C14.7251 7.51132 14.189 7.38828 13.521 7.38828H10.48V12.398Z" fill="#000000"/>
<path fill-rule="evenodd" clip-rule="evenodd" d="M5 1C2.79086 1 1 2.79086 1 5V19C1 21.2091 2.79086 23 5 23H19C21.2091 23 23 21.2091 23 19V5C23 2.79086 21.2091 1 19 1H5ZM10.48 13.7779H13.521C14.4878 13.7779 15.3022 13.6256 15.9644 13.3209C16.6265 13.0103 17.1274 12.565 17.4673 11.985C17.813 11.399 17.9858 10.6959 17.9858 9.87558C17.9858 9.11972 17.813 8.45175 17.4673 7.87167C17.1274 7.28574 16.6265 6.8287 15.9644 6.50058C15.3022 6.1666 14.4878 5.9996 13.521 5.9996H8.79248V12.398H6.97314V13.7779H8.79248V14.982H6.97314V16.3707H8.79248V18.7965H10.48V16.3707H13.4155V14.982H10.48V13.7779Z" fill="#000000"/>
</svg>
