<svg xmlns="http://www.w3.org/2000/svg" width="24" height="24" viewBox="0 0 24 24" fill="none"><rect width="24" height="24" fill="none"/>
<path fill-rule="evenodd" clip-rule="evenodd" d="M5 1C2.79086 1 1 2.79086 1 5V19C1 21.2091 2.79086 23 5 23H19C21.2091 23 23 21.2091 23 19V5C23 2.79086 21.2091 1 19 1H5ZM11.5225 7.65069V5.40314H9.83496V8.42198L7.69043 9.40216V10.9666L9.83496 9.98643V11.34L7.69043 12.3201V13.8758L9.83496 12.8956V18.2C10.1162 18.2469 10.3916 18.285 10.6611 18.3143C10.9365 18.3494 11.2119 18.367 11.4873 18.367C12.2666 18.367 12.9727 18.2264 13.6055 17.9451C14.2383 17.6639 14.7803 17.2567 15.2314 16.7234C15.6826 16.1844 16.0283 15.534 16.2686 14.7723C16.5146 14.0106 16.6377 13.1522 16.6377 12.1971V11.4236H14.959V12.1971C14.959 12.9705 14.8828 13.6531 14.7305 14.2449C14.5781 14.8309 14.3555 15.3231 14.0625 15.7215C13.7695 16.1199 13.4062 16.4217 12.9727 16.6268C12.5539 16.8218 12.0705 16.9214 11.5225 16.9255V12.1243L13.7285 11.116V9.56036L11.5225 10.5687V9.21515L13.7285 8.20685V6.6424L11.5225 7.65069Z" fill="#000000"/>
</svg>
