<svg xmlns="http://www.w3.org/2000/svg" width="24" height="24" viewBox="0 0 24 24" fill="none"><rect width="24" height="24" fill="none"/>
<path fill-rule="evenodd" clip-rule="evenodd" d="M4.61356 12.3931L6.26021 13.4761V15.4848L4.60597 18.4474L4.61356 12.3931Z" fill="#62B22F"/>
<path fill-rule="evenodd" clip-rule="evenodd" d="M3.24824 11.5377L4.89109 12.4899L0.0132904 15.4525L1.60538 12.5549L3.24824 11.5377Z" fill="#974995"/>
<path fill-rule="evenodd" clip-rule="evenodd" d="M10.9098 8.80044L7.77071 8.78478L6.25879 7.87583L4.61546 5L10.9098 8.80044Z" fill="#EE7024"/>
<path fill-rule="evenodd" clip-rule="evenodd" d="M4.61546 5L6.25879 7.87582L6.26211 11.8385L4.6055 11.3323L4.61546 5Z" fill="#FBB61B"/>
<path fill-rule="evenodd" clip-rule="evenodd" d="M0 7.89337L1.61059 10.8214L1.60538 12.5548L0.0132833 15.4525L0 7.89337Z" fill="#5A58A3"/>
<path fill-rule="evenodd" clip-rule="evenodd" d="M0 7.89337L10.8852 14.5535L7.76596 14.5753L1.61059 10.8214L0 7.89337Z" fill="#2188CB"/>
<path fill-rule="evenodd" clip-rule="evenodd" d="M7.77071 8.78477L10.9098 8.80043L6.26353 11.6568L6.25879 9.70606L7.77071 8.78477Z" fill="#DA0954"/>
<path fill-rule="evenodd" clip-rule="evenodd" d="M16.8232 9.25633C17.2136 8.91133 17.7216 8.72959 18.2422 8.74872C18.7797 8.73781 19.321 8.77434 19.8551 8.71077C19.7394 9.06562 19.5046 9.37493 19.348 9.71318C18.9628 9.71982 18.5771 9.70559 18.1924 9.71887C17.6976 9.7592 17.226 10.1601 17.1776 10.6644C17.6278 10.2156 18.3323 10.1852 18.9158 10.3323C19.3067 10.4656 19.655 10.7592 19.7968 11.153C19.9268 11.5009 19.9501 11.8796 19.8637 12.2408C19.7342 12.7346 19.3371 13.117 18.8674 13.2978C18.3081 13.5117 17.6895 13.5117 17.1302 13.2978C16.6083 13.0852 16.2393 12.5919 16.1131 12.0506C15.975 11.569 15.993 10.856 16.1349 10.3664C16.2591 9.94068 16.4971 9.55687 16.8232 9.25633ZM18.1592 11.1373C17.8655 11.079 17.5348 11.1985 17.3826 11.4566C17.106 11.9253 17.486 12.6251 18.106 12.5368C18.7825 12.4419 18.96 11.3508 18.1592 11.1373ZM13.788 9.92524C14.3962 9.7758 15.0917 9.81945 15.6111 10.1985C15.4394 10.4755 15.2843 10.7621 15.1268 11.0477C14.873 10.9628 14.6263 10.829 14.3516 10.8351C14.0603 10.8261 13.7448 10.94 13.5793 11.1905C13.4918 11.324 13.4441 11.4796 13.4418 11.6392C13.4394 11.7988 13.4825 11.9558 13.566 12.0918C13.7188 12.3466 14.0191 12.4647 14.3042 12.4913C14.5267 12.4661 14.753 12.4353 14.9588 12.3404C15.0088 12.3147 15.0657 12.3057 15.1211 12.3148C15.2217 12.6023 15.4418 12.84 15.5286 13.1308C14.9683 13.4306 14.3004 13.4913 13.687 13.3424C13.2643 13.2181 12.8615 12.9766 12.6196 12.5994C12.2367 12.0121 12.2514 11.1815 12.6912 10.6283C12.9564 10.2706 13.362 10.0377 13.788 9.92619V9.92524ZM20.4548 9.94089C21.6364 9.93172 22.8181 9.93172 24 9.94089C23.9896 11.0629 23.9962 12.1862 23.9972 13.3091C23.5996 13.3091 23.2016 13.3125 22.804 13.3091C22.8225 12.5719 22.7855 11.8361 22.8088 11.1018C22.8109 11.0458 22.7973 10.9904 22.7694 10.9419C22.4065 10.9499 22.0426 10.9504 21.6783 10.9419C21.6555 11.7289 21.674 12.5183 21.6693 13.3073C21.2646 13.3139 20.8599 13.3101 20.4557 13.3073C20.4576 12.1853 20.4624 11.0629 20.4548 9.94089Z" fill="#1B1537"/>
<path fill-rule="evenodd" clip-rule="evenodd" d="M6.26021 15.4848L7.76596 14.5753L10.8852 14.5535L4.60597 18.4474L6.26021 15.4848Z" fill="#037F37"/>
</svg>
