<svg xmlns="http://www.w3.org/2000/svg" width="40" height="24" viewBox="0 0 40 24" fill="none"><rect width="40" height="24" fill="none"/>
<path fill-rule="evenodd" clip-rule="evenodd" d="M7.68843 13.1602L10.4328 14.9653V18.313L7.67578 23.2507L7.68843 13.1602Z" fill="#62B22F"/>
<path fill-rule="evenodd" clip-rule="evenodd" d="M5.41306 11.7344L8.15116 13.3213L0.0214844 18.259L2.67497 13.4296L5.41306 11.7344Z" fill="#974995"/>
<path fill-rule="evenodd" clip-rule="evenodd" d="M18.184 7.17244L12.9521 7.14635L10.4322 5.63142L7.69336 0.838379L18.184 7.17244Z" fill="#EE7024"/>
<path fill-rule="evenodd" clip-rule="evenodd" d="M7.69243 0.838379L10.4313 5.63142L10.4368 12.2359L7.67583 11.3922L7.69243 0.838379Z" fill="#FBB61B"/>
<path fill-rule="evenodd" clip-rule="evenodd" d="M0 5.66068L2.68432 10.5407L2.67563 13.4298L0.0221388 18.2592L0 5.66068Z" fill="#5A58A3"/>
<path fill-rule="evenodd" clip-rule="evenodd" d="M0 5.66068L18.1419 16.7609L12.9433 16.7973L2.68432 10.5407L0 5.66068Z" fill="#2188CB"/>
<path fill-rule="evenodd" clip-rule="evenodd" d="M12.9515 7.14648L18.1834 7.17258L10.4395 11.9332L10.4316 8.68197L12.9515 7.14648Z" fill="#DA0954"/>
<path fill-rule="evenodd" clip-rule="evenodd" d="M28.0382 7.93222C28.6887 7.35721 29.5354 7.05431 30.4031 7.0862C31.2989 7.06802 32.201 7.1289 33.0913 7.02295C32.8984 7.61437 32.507 8.12989 32.2461 8.69364C31.6041 8.7047 30.9613 8.68098 30.32 8.70312C29.4954 8.77033 28.7094 9.43845 28.6288 10.2789C29.3791 9.53095 30.5533 9.48035 31.5258 9.72546C32.1773 9.94764 32.7577 10.4371 32.9941 11.0933C33.2107 11.6731 33.2495 12.3044 33.1056 12.9063C32.8897 13.7294 32.2279 14.3667 31.4452 14.6679C30.5129 15.0245 29.4819 15.0245 28.5497 14.6679C27.68 14.3137 27.0648 13.4914 26.8545 12.5893C26.6244 11.7867 26.6545 10.5984 26.8909 9.78239C27.0979 9.07279 27.4946 8.43311 28.0382 7.93222V7.93222ZM30.2647 11.0672C29.7753 10.97 29.2242 11.1692 28.9704 11.5993C28.5094 12.3805 29.1427 13.5468 30.1761 13.3997C31.3036 13.2416 31.5993 11.423 30.2647 11.0672ZM22.9794 9.04707C23.9931 8.798 25.1522 8.87074 26.018 9.50249C25.7318 9.96424 25.4732 10.4418 25.2107 10.9178C24.7877 10.7763 24.3766 10.5533 23.9188 10.5636C23.4333 10.5485 22.9075 10.7383 22.6316 11.1558C22.4858 11.3783 22.4063 11.6377 22.4024 11.9037C22.3985 12.1697 22.4703 12.4313 22.6094 12.6581C22.864 13.0826 23.3645 13.2795 23.8397 13.3238C24.2105 13.2819 24.5877 13.2305 24.9308 13.0724C25.014 13.0295 25.1088 13.0145 25.2012 13.0297C25.3689 13.5088 25.7357 13.9049 25.8804 14.3896C24.9466 14.8893 23.8334 14.9905 22.811 14.7423C22.1065 14.5351 21.4353 14.1327 21.032 13.5041C20.394 12.5252 20.4185 11.1408 21.1514 10.2188C21.5934 9.62267 22.2694 9.23445 22.9794 9.04865V9.04707ZM34.0907 9.07316C36.06 9.05787 38.0296 9.05787 39.9994 9.07316C39.982 10.9431 39.9931 12.8154 39.9947 14.6869C39.3321 14.6869 38.6687 14.6924 38.0061 14.6869C38.037 13.4582 37.9753 12.2319 38.014 11.0079C38.0176 10.9147 37.9949 10.8224 37.9484 10.7415C37.3436 10.7549 36.7371 10.7557 36.1299 10.7415C36.0919 12.0532 36.1228 13.3689 36.1149 14.6838C35.4404 14.6948 34.766 14.6885 34.0923 14.6838C34.0955 12.8138 34.1034 10.9431 34.0907 9.07316Z" fill="#1B1537"/>
<path fill-rule="evenodd" clip-rule="evenodd" d="M10.4328 18.3128L12.9424 16.7971L18.1411 16.7607L7.67578 23.2506L10.4328 18.3128Z" fill="#037F37"/>
</svg>
