<svg xmlns="http://www.w3.org/2000/svg" width="48" height="16" viewBox="0 0 48 16" fill="none"><rect width="48" height="16" fill="none"/>
<path d="M40.594 6.79428C37.524 6.79428 33.6384 4.37962 33.6384 1.40001H43.3702C45.9268 1.40001 48 3.41132 48 5.89388C48 6.19644 47.9682 6.49819 47.9052 6.79428H40.594Z" fill="url(#paint0_linear_128_47)"/>
<path d="M32.8806 1.39999L28.6847 1.40001C28.1167 1.39745 27.5981 1.71897 27.3529 2.22572L24.0233 9.21029C23.8806 9.51043 23.4192 9.41129 23.4192 9.08127V1.52767C23.4192 1.45705 23.3588 1.40001 23.286 1.40001L19.222 1.39999V14.6032L23.5606 14.6032C24.1211 14.6054 24.634 14.2919 24.8828 13.7951L28.3332 6.81465C28.4183 6.64217 28.6847 6.70193 28.6847 6.89206V14.6032L32.8806 14.6032V1.39999Z" fill="#4DB45E"/>
<path d="M17.0801 1.40001H12.2334C11.5977 1.40001 11.0375 1.81694 10.859 2.42535L8.83661 9.31894C8.75149 9.61364 8.32998 9.61364 8.24348 9.31894L6.22105 2.42535C6.04394 1.81694 5.48238 1.40001 4.84668 1.40001H0V14.6032H4.09977V6.98848C4.09977 6.78206 4.39085 6.7386 4.45126 6.93552L6.83204 14.6032H10.2481L12.6288 6.93552C12.6892 6.7386 12.9803 6.78206 12.9803 6.98848V14.6032H17.0801V1.40001Z" fill="#4DB45E"/>
<path d="M47.7254 7.56974H34.3249V14.6032H38.5222V10.3877H43.4334C45.3093 10.3959 47.0045 9.28282 47.7254 7.56974Z" fill="#4DB45E"/>
<defs>
<linearGradient id="paint0_linear_128_47" x1="33.6396" y1="4.09714" x2="48" y2="4.09714" gradientUnits="userSpaceOnUse">
<stop offset="0.3" stop-color="#00B4E6"/>
<stop offset="1" stop-color="#088CCB"/>
</linearGradient>
</defs>
</svg>
