<svg xmlns="http://www.w3.org/2000/svg" width="43" height="24" viewBox="0 0 43 24" fill="none"><rect width="43" height="24" fill="none"/>
<path fill-rule="evenodd" clip-rule="evenodd" d="M8.23396 13.1947L11.1728 15.1276V18.7125L8.22041 24L8.23396 13.1947Z" fill="#62B22F"/>
<path fill-rule="evenodd" clip-rule="evenodd" d="M5.79723 11.6681L8.72928 13.3674L0.0237122 18.6549L2.86517 13.4834L5.79723 11.6681Z" fill="#974995"/>
<path fill-rule="evenodd" clip-rule="evenodd" d="M19.4711 6.78276L13.8686 6.75482L11.1703 5.13258L8.23735 0L19.4711 6.78276Z" fill="#EE7024"/>
<path fill-rule="evenodd" clip-rule="evenodd" d="M8.23735 0L11.1703 5.13258L11.1762 12.2049L8.21957 11.3015L8.23735 0Z" fill="#FBB61B"/>
<path fill-rule="evenodd" clip-rule="evenodd" d="M0 5.16391L2.87448 10.3896L2.86517 13.4834L0.023707 18.6549L0 5.16391Z" fill="#5A58A3"/>
<path fill-rule="evenodd" clip-rule="evenodd" d="M0 5.16391L19.4271 17.0505L13.8602 17.0894L2.87448 10.3896L0 5.16391Z" fill="#2188CB"/>
<path fill-rule="evenodd" clip-rule="evenodd" d="M13.8686 6.75482L19.4711 6.78276L11.1787 11.8806L11.1703 8.39907L13.8686 6.75482Z" fill="#DA0954"/>
<path fill-rule="evenodd" clip-rule="evenodd" d="M30.025 7.59641C30.7216 6.98067 31.6283 6.65631 32.5574 6.69046C33.5167 6.67099 34.4827 6.73618 35.4361 6.62273C35.2295 7.25604 34.8104 7.80808 34.531 8.41176C33.8435 8.42362 33.1552 8.39821 32.4685 8.42192C31.5854 8.49389 30.7438 9.20933 30.6574 10.1094C31.4609 9.3084 32.7183 9.25421 33.7597 9.51668C34.4573 9.7546 35.0788 10.2787 35.332 10.9814C35.5639 11.6023 35.6055 12.2783 35.4513 12.9229C35.2202 13.8043 34.5115 14.4867 33.6733 14.8093C32.6751 15.1911 31.571 15.1911 30.5728 14.8093C29.6414 14.43 28.9827 13.5494 28.7575 12.5834C28.5111 11.724 28.5433 10.4514 28.7964 9.57764C29.0181 8.81778 29.4429 8.13278 30.025 7.59641V7.59641ZM32.4092 10.9535C31.8851 10.8494 31.295 11.0627 31.0232 11.5233C30.5296 12.3598 31.2078 13.6087 32.3144 13.4512C33.5218 13.2819 33.8384 11.3345 32.4092 10.9535ZM24.6079 8.79023C25.6934 8.52352 26.9346 8.60142 27.8617 9.27791C27.5552 9.77238 27.2783 10.2838 26.9972 10.7935C26.5443 10.6419 26.104 10.4032 25.6138 10.4142C25.0939 10.3981 24.5309 10.6013 24.2354 11.0483C24.0793 11.2866 23.9942 11.5644 23.99 11.8492C23.9858 12.1341 24.0627 12.4142 24.2117 12.657C24.4843 13.1117 25.0202 13.3225 25.5291 13.3699C25.9262 13.325 26.3301 13.27 26.6975 13.1007C26.7866 13.0548 26.8882 13.0387 26.9871 13.055C27.1666 13.568 27.5594 13.9922 27.7144 14.5112C26.7145 15.0463 25.5223 15.1547 24.4276 14.8889C23.6732 14.667 22.9543 14.2361 22.5225 13.563C21.8393 12.5148 21.8655 11.0322 22.6504 10.045C23.1237 9.40661 23.8476 8.99089 24.6079 8.79192V8.79023ZM36.5063 8.81817C38.6151 8.8018 40.7242 8.8018 42.8336 8.81817C42.8149 10.8206 42.8268 12.8255 42.8285 14.8296C42.119 14.8296 41.4086 14.8355 40.6991 14.8296C40.7321 13.5139 40.6661 12.2007 40.7075 10.89C40.7114 10.7902 40.687 10.6913 40.6373 10.6047C39.9896 10.6191 39.3402 10.6199 38.6899 10.6047C38.6493 12.0093 38.6823 13.4182 38.6738 14.8262C37.9516 14.8381 37.2294 14.8313 36.508 14.8262C36.5114 12.8238 36.5199 10.8206 36.5063 8.81817Z" fill="#1B1537"/>
<path fill-rule="evenodd" clip-rule="evenodd" d="M11.1728 18.7125L13.8602 17.0894L19.4271 17.0504L8.22041 24L11.1728 18.7125Z" fill="#037F37"/>
</svg>
