<svg xmlns="http://www.w3.org/2000/svg" width="48" height="48" viewBox="0 0 48 48" fill="none"><rect width="48" height="48" fill="none"/>
<g clip-path="url(#clip0_458_37)">
<path d="M45.5012 15.9225C45.3125 13.4488 43.4243 10.2775 41.5362 8.7552C39.413 7.19734 37.2069 5.7575 34.9278 4.44214C32.666 3.09107 30.334 1.86304 27.9418 0.76335C26.6639 0.238024 25.2938 -0.0208962 23.9138 0.00222399C22.5335 -0.0270047 21.162 0.232145 19.8859 0.76335C17.4941 1.86383 15.1621 3.09182 12.8999 4.44214C9.24953 6.6621 6.29146 8.7552 6.29146 8.7552C5.31124 9.58193 4.48105 10.5585 3.82567 11.6407C3.7505 11.7648 3.84118 11.9212 3.98628 11.9212H7.05392C7.12797 11.9212 7.19815 11.8885 7.24673 11.8326C7.60051 11.4256 7.98773 11.0449 8.40608 10.695C8.40608 10.695 11.0092 8.8683 14.2215 6.93085C16.2123 5.75239 18.2644 4.68068 20.3692 3.72027C21.4922 3.25666 22.6991 3.0305 23.9138 3.05601C25.1281 3.03583 26.3339 3.2618 27.4584 3.72027C29.5635 4.67999 31.6157 5.75173 33.6061 6.93085C35.6117 8.07878 37.553 9.3354 39.4215 10.695C41.0831 12.0235 42.7445 14.7912 42.9107 16.9501C42.9107 16.9501 43.2984 20.1607 43.3538 23.9636C43.3504 26.3121 43.221 28.6588 42.9661 30.9936C42.5797 33.4382 41.3205 35.6603 39.4215 37.2487C39.4215 37.2487 36.8184 39.1307 33.6061 41.0681C31.6154 42.2466 29.5632 43.3183 27.4584 44.2787C26.3354 44.7424 25.1285 44.9685 23.9138 44.943C22.7006 44.9684 21.4949 44.7481 20.3692 44.2954C18.2641 43.3356 16.2119 42.2639 14.2215 41.0848C11.0092 39.2027 8.40608 37.2653 8.40608 37.2653C8.06806 36.9949 7.72996 36.6651 7.40404 36.2929C7.35546 36.2374 7.28554 36.205 7.2118 36.205H4.13282C3.98587 36.205 3.89542 36.365 3.97378 36.4893C4.65805 37.5749 5.47475 38.5419 6.29146 39.2003C6.29146 39.2003 9.24953 41.4203 12.8999 43.5769C15.1617 44.9279 17.4937 46.156 19.8859 47.2556C21.1651 47.7745 22.5353 48.0269 23.9138 47.9977C25.2942 48.0269 26.6657 47.7678 27.9418 47.2366C30.3336 46.1361 32.6656 44.9081 34.9278 43.5578C38.5781 41.3378 41.5362 39.1814 41.5362 39.1814C43.6942 37.3612 45.125 34.8151 45.5642 32.014C45.8538 29.3388 46.0009 26.6498 46.0047 23.9587C45.9418 19.6012 45.5012 15.9225 45.5012 15.9225Z" fill="url(#paint0_linear_458_37)"/>
<path d="M2.5 15.6556C2.5 15.6139 2.53373 15.5801 2.57535 15.5801H6.8407C6.89397 15.5801 6.93002 15.6351 6.90932 15.6848L6.3811 16.9534C6.36715 16.9869 6.33524 17.0022 6.30496 16.9992C6.30248 16.9994 6.29996 16.9995 6.29741 16.9995H4.09733V21.5598C4.09733 21.6015 4.06359 21.6353 4.02198 21.6353H2.57535C2.53373 21.6353 2.5 21.6015 2.5 21.5598V15.6556Z" fill="#0066B3"/>
<path d="M18.7119 20.2055C18.7044 20.1862 18.6894 20.1697 18.67 20.1608C18.6505 20.1518 18.628 20.1518 18.6085 20.1578C18.2609 20.2861 17.6091 20.3905 17.1551 20.3905C16.1617 20.3905 15.6882 20.1235 15.6882 18.6061C15.6882 17.3931 15.8335 16.8216 17.1551 16.8216C17.5297 16.8216 17.8773 16.8753 18.3194 17.0036C18.3553 17.0141 18.3943 16.9977 18.4107 16.9648C18.5756 16.656 18.7749 16.2785 18.9996 15.816C19.0101 15.7951 19.0101 15.7712 19.0011 15.7503C18.9921 15.7294 18.9741 15.713 18.9517 15.7056C18.3703 15.5206 17.6766 15.4131 17.0517 15.4131C14.9705 15.4131 14.043 16.3904 14.043 18.5837C14.043 20.8083 14.9705 21.8005 17.0517 21.8005C17.5731 21.8005 18.6011 21.6916 19.097 21.4947C19.136 21.4783 19.157 21.4335 19.142 21.3947L18.7119 20.2055Z" fill="#0066B3"/>
<path d="M10.1207 15.4131C8.08594 15.4131 7.2937 16.3019 7.2937 18.5834C7.2937 20.8997 8.08594 21.8005 10.1207 21.8005C12.1717 21.8005 12.9714 20.8997 12.9714 18.5834C12.9714 16.3019 12.1717 15.4131 10.1207 15.4131ZM10.1207 20.4712C9.19369 20.4712 8.90487 20.2146 8.90487 18.6061C8.90487 16.8934 9.22032 16.741 10.1207 16.741C11.0388 16.741 11.3602 16.8934 11.3602 18.6061C11.3602 20.2146 11.0655 20.4712 10.1207 20.4712Z" fill="#0066B3"/>
<path d="M16.4895 30.4654H15.0009C14.9511 30.4654 14.9148 30.417 14.9284 30.3687C15.1773 29.5216 15.4368 28.5627 15.6162 27.4996C15.8002 26.4004 15.8968 25.3871 15.9375 24.4826C15.939 24.4419 15.9722 24.4102 16.0129 24.4102H20.4372C20.4789 24.4102 20.5126 24.4439 20.5126 24.4856V30.3898C20.5126 30.4315 20.4789 30.4654 20.4372 30.4654H18.9875C18.9458 30.4654 18.912 30.4315 18.912 30.3898V25.8295H17.4568C17.4033 26.5026 17.3131 27.2257 17.1653 27.9889C16.9933 28.8829 16.7897 29.6937 16.5604 30.414C16.5514 30.4442 16.5212 30.4654 16.4895 30.4654Z" fill="#EE2F53"/>
<path d="M28.4871 24.4856C28.4871 24.4439 28.5208 24.4102 28.5625 24.4102H32.8367C32.8901 24.4102 32.9262 24.4651 32.9055 24.5149L32.3762 25.7835C32.3622 25.8169 32.3302 25.8322 32.2998 25.8292C32.2974 25.8295 32.2949 25.8295 32.2923 25.8295H30.0876V30.3898C30.0876 30.4315 30.0539 30.4654 30.0122 30.4654H28.5625C28.5208 30.4654 28.4871 30.4315 28.4871 30.3898V24.4856Z" fill="#EE2F53"/>
<path d="M2.57545 24.4102C2.52307 24.4102 2.48666 24.4617 2.50465 24.5104L4.70716 30.4663C4.39636 31.1197 4.05105 31.8076 3.65614 32.5742C3.63029 32.6244 3.66631 32.6851 3.72286 32.6851H5.28971C5.31817 32.6851 5.3444 32.6687 5.35725 32.6434C6.51665 30.2842 7.36981 28.1927 8.5363 24.5099C8.5522 24.4612 8.5162 24.4102 8.46482 24.4102H7.00954C6.97577 24.4102 6.94593 24.4331 6.93669 24.4655C6.4876 26.04 6.07354 27.2724 5.59357 28.4601L4.11401 24.4591C4.10314 24.4297 4.07486 24.4102 4.04322 24.4102H2.57545Z" fill="#EE2F53"/>
<path d="M21.5606 24.4102C21.5081 24.4102 21.4718 24.4617 21.4898 24.5104L23.6923 30.4663C23.3815 31.1197 23.0361 31.8076 22.6412 32.5742C22.6154 32.6244 22.6514 32.6851 22.708 32.6851H24.2748C24.3032 32.6851 24.3295 32.6687 24.3423 32.6434C25.5017 30.2842 26.3549 28.1927 27.5214 24.5099C27.5372 24.4612 27.5012 24.4102 27.4499 24.4102H25.9946C25.9609 24.4102 25.931 24.4331 25.9218 24.4655C25.4727 26.04 25.0586 27.2724 24.5786 28.4601L23.0991 24.4591C23.0882 24.4297 23.06 24.4102 23.0283 24.4102H21.5606Z" fill="#EE2F53"/>
<path d="M13.7285 29.0356C13.721 29.0162 13.706 28.9998 13.6865 28.9908C13.6671 28.9819 13.6446 28.9819 13.6251 28.9879C13.2775 29.1162 12.6257 29.2206 12.1717 29.2206C11.1782 29.2206 10.7048 28.9535 10.7048 27.4361C10.7048 26.2231 10.8501 25.6517 12.1717 25.6517C12.5463 25.6517 12.8939 25.7054 13.3359 25.8337C13.3719 25.8441 13.4108 25.8278 13.4273 25.7949C13.5922 25.4861 13.7915 25.1086 14.0162 24.6461C14.0267 24.6251 14.0267 24.6013 14.0177 24.5804C14.0087 24.5595 13.9907 24.5431 13.9682 24.5357C13.3869 24.3506 12.6932 24.2432 12.0683 24.2432C9.98702 24.2432 9.05957 25.2205 9.05957 27.4138C9.05957 29.6384 9.98702 30.6306 12.0683 30.6306C12.5897 30.6306 13.6176 30.5216 14.1136 30.3248C14.1526 30.3083 14.1735 30.2636 14.1586 30.2248L13.7285 29.0356Z" fill="#EE2F53"/>
<path d="M38.8672 24.4102H37.4185C37.3762 24.4102 37.3429 24.4433 37.3429 24.4855V29.0479C37.0291 29.1352 36.7152 29.1775 36.362 29.1775C35.4837 29.1775 35.2286 28.9303 35.1955 27.8998V24.4855C35.1955 24.4433 35.1622 24.4102 35.12 24.4102H33.6712C33.6289 24.4102 33.5957 24.4433 33.5957 24.4855V24.4945C33.5957 24.4945 33.5957 27.9283 33.5972 27.9329C33.6319 29.872 34.3352 30.6314 36.0723 30.6314C37.0864 30.6314 38.2183 30.3738 38.8899 30.1177C38.9215 30.1071 38.9412 30.0769 38.9412 30.0438V24.4855C38.9427 24.4433 38.9095 24.4102 38.8672 24.4102Z" fill="#EE2F53"/>
</g>
<defs>
<linearGradient id="paint0_linear_458_37" x1="24.5268" y1="-0.17472" x2="24.5268" y2="47.9348" gradientUnits="userSpaceOnUse">
<stop stop-color="#0F67B1"/>
<stop offset="0.4" stop-color="#0F67B1"/>
<stop offset="0.66" stop-color="#EE2F53"/>
<stop offset="1" stop-color="#EE2F53"/>
</linearGradient>
<clipPath id="clip0_458_37">
<rect width="48" height="48" fill="white"/>
</clipPath>
</defs>
</svg>
