<svg xmlns="http://www.w3.org/2000/svg" width="24" height="24" viewBox="0 0 24 24" fill="none"><rect width="24" height="24" fill="none"/>
<g clip-path="url(#clip0_2117_83)">
<path d="M4.34694 0H19.653C22.0538 0 24 1.94619 24 4.34694V19.653C24 22.0538 22.0538 24 19.653 24H4.34694C1.94619 24 0 22.0538 0 19.653V4.34694C0 1.94619 1.94619 0 4.34694 0Z" fill="white"/>
<path d="M17.9336 7.41779C18.2898 7.87842 18.5914 8.37886 18.8323 8.90905L12.0008 13.9453L9.14569 12.1554V10.0022L12.0008 11.7921L17.9336 7.41779Z" fill="#21A038"/>
<path d="M6.2326 12.0032C6.2326 11.9066 6.23496 11.8106 6.23967 11.7152L4.50942 11.6304C4.50353 11.7541 4.5 11.879 4.5 12.005C4.49927 12.9896 4.69293 13.9647 5.06989 14.8744C5.44685 15.784 5.99968 16.6102 6.69668 17.3057L7.92399 16.0789C7.38747 15.5445 6.96184 14.9093 6.67158 14.2099C6.38131 13.5104 6.23213 12.7605 6.2326 12.0032Z" fill="url(#paint0_linear_2117_83)"/>
<path d="M12 6.23584C12.0966 6.23584 12.1926 6.23937 12.288 6.24408L12.3746 4.51311C12.2505 4.50722 12.1257 4.50428 12 4.50428C11.015 4.50308 10.0394 4.69648 9.12934 5.07337C8.21926 5.45027 7.39258 6.00324 6.69678 6.70053L7.92409 7.92793C8.45847 7.3912 9.09367 6.96539 9.79315 6.675C10.4927 6.38461 11.2427 6.23536 12 6.23584Z" fill="url(#paint1_linear_2117_83)"/>
<path d="M12.0005 17.771C11.9039 17.771 11.8079 17.771 11.7119 17.7633L11.6253 19.4937C11.7498 19.5 11.8748 19.5031 12.0005 19.5031C12.9851 19.5042 13.9602 19.3106 14.8698 18.9336C15.7794 18.5566 16.6055 18.0036 17.3008 17.3063L16.0758 16.0795C15.5414 16.6159 14.9062 17.0415 14.2069 17.3318C13.5075 17.6221 12.7577 17.7713 12.0005 17.771Z" fill="url(#paint2_linear_2117_83)"/>
<path d="M15.2508 7.24194L16.709 6.16707C15.3762 5.08777 13.7125 4.50024 11.9976 4.50325V6.2354C13.1588 6.23395 14.2932 6.58493 15.2508 7.24194Z" fill="url(#paint3_linear_2117_83)"/>
<path d="M19.5001 12.003C19.501 11.5524 19.4616 11.1026 19.3823 10.659L17.768 11.8487C17.768 11.8999 17.768 11.9512 17.768 12.003C17.7685 12.8089 17.5996 13.6058 17.2723 14.3422C16.945 15.0786 16.4666 15.738 15.8682 16.2777L17.0325 17.5646C17.8105 16.8622 18.4322 16.0042 18.8573 15.0461C19.2824 14.0879 19.5014 13.0512 19.5001 12.003Z" fill="#21A038"/>
<path d="M11.9986 17.7711C11.1927 17.7714 10.3957 17.6024 9.65933 17.2751C8.9229 16.9478 8.26342 16.4694 7.72358 15.8711L6.43738 17.0349C7.13964 17.813 7.99762 18.4349 8.95565 18.8601C9.91368 19.2853 10.9504 19.5044 11.9986 19.5032V17.7711Z" fill="url(#paint4_linear_2117_83)"/>
<path d="M8.13247 7.72805L6.96876 6.44116C6.19054 7.14343 5.56861 8.00144 5.14331 8.95955C4.71802 9.91765 4.49884 10.9545 4.5 12.0028H6.23261C6.23225 11.1969 6.40119 10.4 6.72848 9.66355C7.05576 8.92718 7.53409 8.26776 8.13247 7.72805Z" fill="url(#paint5_linear_2117_83)"/>
</g>
<defs>
<linearGradient id="paint0_linear_2117_83" x1="7.04708" y1="17.0895" x2="5.15403" y2="11.6175" gradientUnits="userSpaceOnUse">
<stop offset="0.14" stop-color="#F1E813"/>
<stop offset="0.3" stop-color="#E6E418"/>
<stop offset="0.58" stop-color="#C9DA26"/>
<stop offset="0.89" stop-color="#A2CC39"/>
</linearGradient>
<linearGradient id="paint1_linear_2117_83" x1="7.19147" y1="7.00679" x2="12.0673" y2="5.14885" gradientUnits="userSpaceOnUse">
<stop offset="0.06" stop-color="#0FA7DF"/>
<stop offset="0.54" stop-color="#0098F8"/>
<stop offset="0.92" stop-color="#0290EA"/>
</linearGradient>
<linearGradient id="paint2_linear_2117_83" x1="11.5111" y1="18.4577" x2="17.0246" y2="17.2122" gradientUnits="userSpaceOnUse">
<stop offset="0.12" stop-color="#A2CC39"/>
<stop offset="0.28" stop-color="#86C239"/>
<stop offset="0.87" stop-color="#219F38"/>
</linearGradient>
<linearGradient id="paint3_linear_2117_83" x1="11.6372" y1="5.08338" x2="16.3509" y2="6.53792" gradientUnits="userSpaceOnUse">
<stop offset="0.06" stop-color="#0290EA"/>
<stop offset="0.79" stop-color="#0C89CA"/>
</linearGradient>
<linearGradient id="paint4_linear_2117_83" x1="6.872" y1="16.824" x2="12.0028" y2="18.7414" gradientUnits="userSpaceOnUse">
<stop offset="0.13" stop-color="#F1E813"/>
<stop offset="0.3" stop-color="#EAE616"/>
<stop offset="0.53" stop-color="#D8DF1F"/>
<stop offset="0.8" stop-color="#BAD52D"/>
<stop offset="0.98" stop-color="#A2CC39"/>
</linearGradient>
<linearGradient id="paint5_linear_2117_83" x1="5.14546" y1="12.2125" x2="7.20519" y2="6.85472" gradientUnits="userSpaceOnUse">
<stop offset="0.07" stop-color="#A2CC39"/>
<stop offset="0.26" stop-color="#81C45E"/>
<stop offset="0.92" stop-color="#0FA7DF"/>
</linearGradient>
<clipPath id="clip0_2117_83">
<rect width="24" height="24" fill="white"/>
</clipPath>
</defs>
</svg>
