<svg xmlns="http://www.w3.org/2000/svg" width="48" height="16" viewBox="0 0 48 16" fill="none"><rect width="48" height="16" fill="none"/>
<path d="M38.7933 1.71059H31.0926V14.2881H38.7933V1.71059Z" fill="#6C6BBD"/>
<path d="M31.8858 8.00055C31.8848 6.78945 32.1594 5.59399 32.6886 4.50466C33.2179 3.41533 33.988 2.46066 34.9407 1.7129C33.7608 0.785578 32.3437 0.20893 30.8515 0.0488637C29.3593 -0.111202 27.8522 0.151772 26.5024 0.80773C25.1526 1.46369 24.0146 2.48617 23.2184 3.7583C22.4222 5.03044 22 6.50092 22 8.00166C22 9.50241 22.4222 10.9729 23.2184 12.245C24.0146 13.5172 25.1526 14.5396 26.5024 15.1956C27.8522 15.8516 29.3593 16.1145 30.8515 15.9545C32.3437 15.7944 33.7608 15.2177 34.9407 14.2904C33.9877 13.5424 33.2174 12.5874 32.6881 11.4977C32.1589 10.4079 31.8845 9.21203 31.8858 8.00055Z" fill="#EB001B"/>
<path d="M47.8826 8.00046C47.8826 9.50132 47.4603 10.9719 46.664 12.2441C45.8676 13.5163 44.7294 14.5387 43.3795 15.1946C42.0295 15.8504 40.5222 16.1132 39.03 15.9529C37.5377 15.7927 36.1206 15.2157 34.9407 14.2881C35.8931 13.5397 36.663 12.5848 37.1924 11.4954C37.7218 10.406 37.9969 9.21057 37.9969 7.99935C37.9969 6.78813 37.7218 5.59273 37.1924 4.50334C36.663 3.41395 35.8931 2.45901 34.9407 1.71059C36.1206 0.782978 37.5377 0.206049 39.03 0.0457536C40.5222 -0.114542 42.0295 0.148262 43.3795 0.804127C44.7294 1.45999 45.8676 2.48245 46.664 3.75463C47.4603 5.02681 47.8826 6.49738 47.8826 7.99824V8.00046Z" fill="#0099DF"/>
</svg>
