<svg xmlns="http://www.w3.org/2000/svg" width="70" height="16" viewBox="0 0 70 16" fill="none"><rect width="70" height="16" fill="none"/>
<path d="M26.0723 11.7961V4.17188H28.8048L30.5748 6.80702L32.3573 4.17188H35.0898V11.7961H32.3998V8.03377L30.5323 10.6266L28.7198 8.08852V11.7961H26.0723Z" fill="#E0B873"/>
<path d="M40.4432 11.9783C39.8881 11.9954 39.3352 11.9014 38.8173 11.7018C38.2994 11.5022 37.827 11.201 37.4282 10.8163C37.0396 10.4544 36.7315 10.0154 36.524 9.52764C36.3164 9.03987 36.214 8.51419 36.2232 7.98456C36.2173 7.45764 36.322 6.9353 36.5308 6.45107C36.7396 5.96684 37.0479 5.53141 37.4357 5.17274C38.2638 4.42437 39.3422 4.00977 40.4607 4.00977C41.5792 4.00977 42.6577 4.42437 43.4857 5.17274C43.8717 5.53245 44.1782 5.96824 44.3857 6.45235C44.5932 6.93647 44.6971 7.45828 44.6907 7.98456C44.697 8.51202 44.5926 9.03497 44.3842 9.51998C44.1759 10.005 43.8682 10.4414 43.4807 10.8014C43.0795 11.1902 42.6039 11.4947 42.0821 11.6969C41.5603 11.8991 41.0029 11.9948 40.4432 11.9783V11.9783ZM40.4707 9.71147C40.6895 9.71974 40.9073 9.67936 41.1084 9.59327C41.3095 9.50718 41.4888 9.37754 41.6332 9.2138C41.9299 8.87381 42.0862 8.43461 42.0707 7.98456C42.0776 7.53575 41.9101 7.10164 41.6032 6.77274C41.4539 6.61542 41.2739 6.4901 41.0742 6.40445C40.8746 6.3188 40.6594 6.27462 40.442 6.27462C40.2246 6.27462 40.0094 6.3188 39.8097 6.40445C39.6101 6.4901 39.43 6.61542 39.2807 6.77274C38.9888 7.10863 38.8329 7.54058 38.8432 7.98456C38.8364 8.43337 39.0039 8.86748 39.3107 9.19638C39.4545 9.36148 39.6328 9.49317 39.8333 9.58217C40.0337 9.67117 40.2513 9.7153 40.4707 9.71147V9.71147Z" fill="#E0B873"/>
<path d="M45.8223 11.7961V4.17188H48.5123V6.8767H50.7198V4.17188H53.4098V11.7961H50.7198V9.03408H48.5123V11.7961H45.8223Z" fill="#E0B873"/>
<path d="M58.6477 11.9769C58.1063 11.9978 57.5661 11.9116 57.0584 11.7233C56.5508 11.5349 56.0857 11.2481 55.6902 10.8796C55.3057 10.5038 55.0048 10.0517 54.8071 9.55275C54.6094 9.05378 54.5193 8.51901 54.5427 7.98314C54.5145 6.93051 54.9064 5.90964 55.6327 5.14395C55.9875 4.7687 56.4184 4.47281 56.8968 4.2759C57.3752 4.07899 57.8902 3.98556 58.4077 4.00181C59.6627 4.00181 60.621 4.39662 61.2827 5.18625C61.9652 6.02993 62.3201 7.08974 62.2827 8.17226C62.2872 8.3557 62.2822 8.53925 62.2677 8.72218H57.1427C57.361 9.55163 57.9135 9.96635 58.8002 9.96635C59.1204 9.95825 59.4357 9.88649 59.7277 9.7553C60.0196 9.62411 60.2823 9.43613 60.5002 9.20243L61.9852 10.4267C61.5943 10.9323 61.0872 11.3371 60.5063 11.6069C59.9255 11.8767 59.2881 12.0036 58.6477 11.9769ZM57.0902 7.35608H59.7502C59.7235 6.98283 59.5741 6.62869 59.3252 6.34831C59.2098 6.22547 59.0693 6.12862 58.9132 6.06424C58.7571 5.99987 58.589 5.96946 58.4202 5.97506C58.2563 5.97136 58.0937 6.00277 57.9431 6.06718C57.7926 6.13158 57.6577 6.22746 57.5477 6.34831C57.3019 6.63404 57.1432 6.98366 57.0902 7.35608V7.35608Z" fill="#E0B873"/>
<path d="M65.0748 11.7961V6.3218H62.8398V4.17188H69.9998V6.32677H67.7623V11.8011L65.0748 11.7961Z" fill="#E0B873"/>
<path d="M0 11.8132V4.19141H2.69V6.89623H4.8975V4.19141H7.5875V11.8132H4.8975V9.05113H2.69V11.8132H0Z" fill="#444641"/>
<path d="M12.8276 11.9982C12.2855 12.0194 11.7447 11.9331 11.2365 11.7443C10.7284 11.5554 10.263 11.2679 9.86755 10.8984C9.48413 10.5233 9.18392 10.0725 8.98627 9.57489C8.78863 9.0773 8.69794 8.54401 8.72005 8.0094C8.69187 6.95677 9.0838 5.9359 9.81005 5.17021C10.1646 4.79431 10.5953 4.49766 11.0737 4.29991C11.5521 4.10215 12.0673 4.00779 12.5851 4.02309C13.8401 4.02309 14.7984 4.41707 15.4601 5.20505C16.1425 6.04872 16.4975 7.10853 16.4601 8.19105V8.73102H11.3126C11.5301 9.5671 12.0801 9.97519 12.9676 9.97519C13.2865 9.96919 13.6011 9.9001 13.8929 9.77194C14.1848 9.64378 14.4481 9.45911 14.6676 9.22869L16.1526 10.4554C15.7613 10.957 15.2557 11.3586 14.6774 11.6269C14.0992 11.8952 13.4651 12.0225 12.8276 11.9982ZM11.2701 7.37487H13.9301C13.902 7.00102 13.7508 6.64682 13.5001 6.3671C13.3851 6.24503 13.2455 6.14864 13.0903 6.0843C12.9352 6.01995 12.7681 5.98912 12.6001 5.99385C12.4367 5.99051 12.2744 6.0221 12.1244 6.08649C11.9743 6.15088 11.8398 6.24657 11.7301 6.3671C11.4822 6.65177 11.3224 7.00179 11.2701 7.37487V7.37487Z" fill="#444641"/>
<path d="M19.25 11.8132V6.33884H17V4.19141H24.18V6.34631H21.945V11.8206L19.25 11.8132Z" fill="#444641"/>
</svg>
