<svg xmlns="http://www.w3.org/2000/svg" width="24" height="24" viewBox="0 0 24 24" fill="none"><rect width="24" height="24" fill="none"/>
<path fill-rule="evenodd" clip-rule="evenodd" d="M22 12C22 17.5226 17.5229 22 12.0013 22C6.47714 22 2 17.5226 2 12C2 6.47609 6.47714 2 12.0013 2C17.5222 2 22 6.47609 22 12ZM12 7.65051C12.7346 7.65051 13.3319 8.24849 13.3319 8.98249C13.3319 9.71785 12.7346 10.3152 12 10.3152C11.2647 10.3152 10.6674 9.71785 10.6674 8.98249C10.6674 8.24714 11.2647 7.65051 12 7.65051ZM12 12.2007C13.7756 12.2007 15.218 10.7576 15.218 8.98249C15.218 7.20741 13.7756 5.76296 12 5.76296C10.2244 5.76296 8.78069 7.20741 8.78069 8.98249C8.78069 10.7576 10.2244 12.2007 12 12.2007ZM13.3016 14.8269C13.9574 14.6761 14.5891 14.4189 15.1708 14.0532C15.6119 13.7751 15.7452 13.1926 15.4678 12.7522C15.189 12.3111 14.6086 12.1778 14.1669 12.4552C12.8471 13.2848 11.1502 13.2848 9.8318 12.4552C9.39075 12.1785 8.80762 12.3111 8.53155 12.7522C8.25345 13.1919 8.38678 13.7751 8.82648 14.0532C9.40826 14.4182 10.0405 14.6781 10.6957 14.8269L8.89583 16.6263C8.52818 16.9946 8.52818 17.5933 8.89583 17.9603C9.07898 18.1434 9.32072 18.2364 9.56245 18.2364C9.80419 18.2364 10.0459 18.1434 10.2297 17.9603L11.9973 16.1919L13.7662 17.9609C14.1345 18.3286 14.7318 18.3286 15.0988 17.9609C15.4685 17.5926 15.4685 16.9939 15.0988 16.6276L13.3016 14.8269Z" fill="#000000"/>
</svg>
