<svg xmlns="http://www.w3.org/2000/svg" width="43" height="16" viewBox="0 0 43 16" fill="none"><rect width="43" height="16" fill="none"/>
<path d="M33.3201 2C34.8884 2 36.2178 2.92534 36.6774 4.20538L40.2513 13.9996L37.4789 13.9998L34.174 4.95213C34.0608 4.62286 33.7213 4.38379 33.3201 4.38379C32.9188 4.38379 32.5793 4.6229 32.4661 4.95219L29.1674 13.9998L26.3913 13.9996L29.9627 4.20545C30.4223 2.92537 31.7517 2 33.3201 2Z" fill="#EF3124"/>
<path d="M12.8249 2.42168H5.84768C3.72267 2.42168 2 3.98444 2 5.9122C2 7.83996 3.72267 9.40273 5.84768 9.40273H9.59753C10.2713 9.40273 10.8175 9.89824 10.8175 10.5095C10.8175 11.1207 10.2713 11.6162 9.59753 11.6162H2.61214L2.61214 14H9.59753C11.7225 14 13.4452 12.4372 13.4452 10.5095C13.4452 8.58171 11.7225 7.01895 9.59753 7.01895H5.84768C5.1739 7.01895 4.62768 6.52344 4.62768 5.9122C4.62768 5.30096 5.1739 4.80545 5.84768 4.80545H12.8249L12.8249 2.42168Z" fill="#EF3124"/>
<path d="M15.1457 5.88369L15.1457 13.9999H17.7727L17.7727 9.38308H25.4572L26.3233 6.99676H17.7727L17.7723 5.88369C17.7723 5.28357 18.3078 4.79707 18.9685 4.79707L27.1311 4.79706L28.0226 2.41074H18.9685C16.857 2.41074 15.1457 3.96564 15.1457 5.88369Z" fill="#EF3124"/>
</svg>
