<svg xmlns="http://www.w3.org/2000/svg" width="36" height="12" viewBox="0 0 36 12" fill="none"><rect width="36" height="12" fill="none"/>
<path d="M28.1001 1C29.407 1 30.5148 1.77111 30.8978 2.83782L33.8761 10.9997L31.5658 10.9998L28.8116 3.46011C28.7173 3.18572 28.4344 2.98649 28.1001 2.98649C27.7657 2.98649 27.4827 3.18575 27.3884 3.46016L24.6395 10.9998L22.3261 10.9997L25.3023 2.83787C25.6853 1.77114 26.7931 1 28.1001 1Z" fill="#EF3124"/>
<path d="M11.0208 1.3514H5.2064C3.43555 1.3514 2 2.6537 2 4.26017C2 5.86664 3.43556 7.16894 5.2064 7.16894H8.33128C8.89277 7.16894 9.34794 7.58186 9.34794 8.09123C9.34794 8.6006 8.89277 9.01352 8.33128 9.01352H2.51012L2.51012 11H8.33128C10.1021 11 11.5377 9.6977 11.5377 8.09123C11.5377 6.48476 10.1021 5.18246 8.33128 5.18246H5.2064C4.64491 5.18246 4.18974 4.76954 4.18974 4.26017C4.18974 3.7508 4.64491 3.33788 5.2064 3.33788H11.0208L11.0208 1.3514Z" fill="#EF3124"/>
<path d="M12.9548 4.23641L12.9548 10.9999H15.1439L15.1439 7.15256H21.5477L22.2694 5.16397H15.1439L15.1436 4.23641C15.1436 3.73631 15.5899 3.33089 16.1404 3.33089L22.9425 3.33089L23.6855 1.34229H16.1404C14.3808 1.34229 12.9548 2.63803 12.9548 4.23641Z" fill="#EF3124"/>
</svg>
