<svg xmlns="http://www.w3.org/2000/svg" width="43" height="16" viewBox="0 0 43 16" fill="none"><rect width="43" height="16" fill="none"/>
<path d="M33.5094 2C35.0777 2 36.4071 2.92534 36.8667 4.20538L40.4406 13.9996L37.6682 13.9998L34.3633 4.95213C34.2501 4.62286 33.9106 4.38379 33.5094 4.38379C33.1081 4.38379 32.7686 4.6229 32.6555 4.95219L29.3568 13.9998L26.5806 13.9996L30.152 4.20545C30.6117 2.92537 31.9411 2 33.5094 2Z" fill="#EF3124"/>
<path d="M13.0142 2.42168H6.03701C3.912 2.42168 2.18933 3.98444 2.18933 5.9122C2.18933 7.83996 3.912 9.40273 6.03701 9.40273H9.78686C10.4606 9.40273 11.0069 9.89824 11.0069 10.5095C11.0069 11.1207 10.4606 11.6162 9.78686 11.6162H2.80147L2.80147 14H9.78686C11.9119 14 13.6345 12.4372 13.6345 10.5095C13.6345 8.58171 11.9119 7.01895 9.78686 7.01895H6.03701C5.36323 7.01895 4.81702 6.52344 4.81702 5.9122C4.81702 5.30096 5.36323 4.80545 6.03701 4.80545H13.0142L13.0142 2.42168Z" fill="#EF3124"/>
<path d="M15.335 5.88369L15.335 13.9999H17.962L17.962 9.38308H25.6466L26.5126 6.99676H17.962L17.9616 5.88369C17.9616 5.28357 18.4972 4.79707 19.1578 4.79707L27.3204 4.79706L28.2119 2.41074H19.1578C17.0463 2.41074 15.335 3.96564 15.335 5.88369Z" fill="#EF3124"/>
</svg>
