<svg xmlns="http://www.w3.org/2000/svg" width="24" height="24" viewBox="0 0 24 24" fill="none"><rect width="24" height="24" fill="none"/>
<g clip-path="url(#clip0_2111_80)">
<path d="M4.34694 0H19.653C22.0538 0 24 1.94619 24 4.34694V19.653C24 22.0538 22.0538 24 19.653 24H4.34694C1.94619 24 0 22.0538 0 19.653V4.34694C0 1.94619 1.94619 0 4.34694 0Z" fill="#FFDD2D"/>
<path d="M19.8378 11.1438L20.0455 10.4829L19.3582 10.5043C19.3002 10.5043 18.8781 10.4924 18.4687 10.1973C18.4992 10.2003 18.5297 10.2045 18.5608 10.2045C18.9823 10.2045 19.39 9.95223 19.5534 9.59175L19.8491 8.94034C19.4786 8.94508 19.1397 8.89866 19.1397 8.89866C19.1367 8.8981 18.8697 8.86416 18.5608 8.55066C18.3393 8.32581 18.0652 8.20684 17.7682 8.20684C17.6383 8.20684 17.5222 8.23001 17.4222 8.26154C17.4377 8.2086 17.4527 8.15507 17.4611 8.09975C17.5557 7.48998 17.1606 7.02477 17.1606 7.02535L16.6439 6.38941L16.3237 7.1366C16.3225 7.13898 16.2416 7.31387 16.0968 7.39954C16.0531 7.18003 15.9459 6.93314 15.7166 6.69698C15.2844 6.25199 14.7581 6.18596 14.4828 6.18596C14.3553 6.18596 14.2643 6.19963 14.2421 6.20321L13.6183 6.32515C13.6543 6.18654 13.7309 5.94561 13.871 5.72848L14.2152 5.19546L13.3489 5.29361L13.0729 4.7112L12.5389 4.98485L12.045 4.5L11.5524 4.98485L11.0165 4.7112L10.7412 5.29361L9.8755 5.19546L10.2203 5.72848C10.3604 5.94561 10.437 6.18596 10.4724 6.32457L9.87733 6.20798L9.85694 6.2044C9.827 6.19963 9.73662 6.18596 9.6085 6.18596C9.33315 6.18596 8.80691 6.25257 8.37585 6.69698C8.14597 6.93256 8.03882 7.18003 7.99453 7.39954C7.85085 7.31506 7.77061 7.14256 7.77061 7.14256L7.44976 6.39119L6.9247 7.03129C6.86067 7.11399 6.54399 7.55125 6.63017 8.10093C6.63917 8.15566 6.65355 8.20922 6.66911 8.26216C6.56973 8.23063 6.45358 8.2074 6.32367 8.2074C6.02675 8.2074 5.75255 8.3264 5.53046 8.55125C5.22272 8.8636 4.95693 8.89866 4.95934 8.89866C4.95934 8.89866 4.67855 8.94866 4.24392 8.94093L4.53788 9.59234C4.7013 9.95343 5.1096 10.2051 5.53046 10.2051C5.56216 10.2051 5.59269 10.2009 5.62384 10.1979C5.21554 10.493 4.79352 10.5049 4.74262 10.5055L4.04218 10.4829L4.2541 11.1433C4.36066 11.4835 4.71687 12.0475 5.39934 12.1082C5.3251 12.4175 5.16049 12.7638 4.7989 12.9131L4.27747 13.1266L4.56183 13.6186C4.72225 13.8839 5.09884 14.1945 5.63522 14.1945C5.75134 14.1939 5.86328 14.1826 5.97108 14.16C5.99861 14.2813 6.03331 14.4027 6.07402 14.5229C6.23387 14.9952 6.09617 15.3248 6.0944 15.3284L5.83696 15.8643L6.41167 16.0148C6.41884 16.0172 6.59246 16.0643 6.80976 16.0643C6.90855 16.0643 7.00255 16.0541 7.09117 16.0333C7.1582 16.0178 7.22226 15.997 7.28391 15.972C7.35814 16.1047 7.44855 16.2255 7.55394 16.3338C7.92208 16.7091 8.44353 16.8995 9.10444 16.8995H9.10682L9.57859 16.8935L8.60397 17.2957L9.34391 17.6508C9.61268 17.7811 9.9318 17.9352 10.2562 18.053L10.1641 18.304L10.4191 18.4195C10.4418 18.4296 10.9321 18.6479 11.7475 18.6943C11.7475 18.6943 11.9445 18.7032 12.0528 18.7032C12.1612 18.7032 12.3557 18.6937 12.3557 18.6937C13.1657 18.6461 13.6524 18.4301 13.6752 18.4195L13.9308 18.3034L13.8374 18.0518C14.1715 17.9304 14.5019 17.7704 14.7593 17.6455L15.4855 17.2951L14.5139 16.8923L14.9875 16.8983C15.649 16.8983 16.171 16.7079 16.5386 16.3319C16.6434 16.2243 16.7337 16.1035 16.8086 15.9708C16.8702 15.9958 16.9349 16.0167 17.0019 16.0321C17.0899 16.0529 17.1839 16.063 17.2827 16.063C17.4964 16.063 17.6718 16.016 17.6766 16.0148L18.2537 15.8632L18.0023 15.3373C17.9963 15.3236 17.8586 14.9946 18.0184 14.5217C18.0592 14.4009 18.0933 14.2795 18.1208 14.1588C18.2292 14.1814 18.3423 14.1933 18.4591 14.1933C19.1421 14.1933 19.4696 13.7156 19.5331 13.6121L19.8144 13.1254L19.293 12.9125C18.9308 12.7631 18.7668 12.4163 18.6932 12.1076C19.366 12.0505 19.7276 11.4865 19.8378 11.1438ZM10.5179 6.5524L10.5107 6.55421L10.5167 6.54647L10.5179 6.5524Z" fill="white"/>
<path d="M12.0457 6.52319C11.4937 6.52377 11.0801 6.70344 10.9897 6.91463L12.0457 7.32867L13.1018 6.91463C13.012 6.70344 12.5983 6.52377 12.0457 6.52319Z" fill="white"/>
<path d="M12.0565 17.4843H12.0553H12.0463H12.0361H12.0355C11.7009 17.4867 11.2405 17.4183 11.0184 17.354L10.7514 18.072C10.9274 18.1345 11.5237 18.2535 12.0463 18.2535C12.5677 18.2535 13.1646 18.1339 13.34 18.072L13.0736 17.354C12.8509 17.4188 12.3911 17.4867 12.0565 17.4843Z" fill="white"/>
<path d="M14.077 16.7704C13.8783 16.8822 13.4347 17.05 13.1766 17.1279L13.3933 17.721C13.7927 17.6128 14.1219 17.4861 14.3943 17.3504L13.9447 17.2017L14.077 16.7704Z" fill="white"/>
<path d="M10.0151 16.7704L10.1481 17.2017L9.69788 17.3504C9.96964 17.4861 10.3007 17.6128 10.6982 17.721L10.9149 17.1279C10.6581 17.05 10.2139 16.8817 10.0151 16.7704Z" fill="white"/>
<path d="M12.0458 5.83673C12.4618 5.83673 12.8701 5.93549 13.1838 6.10922C13.2126 6.01343 13.2526 5.89741 13.3072 5.77608L13.1886 5.79033L13.0641 5.80342L13.0114 5.69099L12.8528 5.35785L12.5636 5.50778L12.4511 5.56488L12.3613 5.47683L12.047 5.16748L11.7333 5.47683L11.6435 5.56488L11.5309 5.50778L11.24 5.35785L11.0831 5.69099L11.0293 5.80342L10.9047 5.79033L10.7862 5.77608C10.8407 5.89802 10.8802 6.01343 10.9095 6.10922C11.2238 5.93549 11.6309 5.83673 12.0458 5.83673Z" fill="white"/>
<path d="M18.3982 9.68698C18.452 9.70542 18.5071 9.71375 18.5616 9.71375C18.7969 9.71375 19.0243 9.56263 19.1028 9.38951C19.1028 9.38951 18.6711 9.36333 18.2072 8.89515C18.0593 8.74345 17.9031 8.69824 17.7689 8.69824C17.5606 8.69824 17.4044 8.80768 17.4044 8.80768C17.9647 9.10398 18.0791 9.57989 18.3982 9.68698Z" fill="white"/>
<path d="M5.53003 9.71375C5.5845 9.71375 5.63959 9.70542 5.69227 9.68698C6.01256 9.57989 6.1275 9.10398 6.68783 8.80768C6.68783 8.80768 6.53098 8.69824 6.32383 8.69824C6.18915 8.69824 6.03289 8.74345 5.88444 8.89515C5.42106 9.36333 4.98944 9.38951 4.98944 9.38951C5.06665 9.56263 5.29474 9.71375 5.53003 9.71375Z" fill="white"/>
<path d="M18.5502 11.6209C18.5598 11.6214 18.5682 11.6214 18.5783 11.6214C19.1656 11.6214 19.365 10.9962 19.365 10.9962H19.3536C19.2458 10.9962 18.3724 10.9712 17.7552 10.1913C17.3487 9.67852 17.0159 9.22758 16.3579 9.05031L16.2933 9.03899L16.2789 8.97358C16.261 8.8736 16.3298 8.78022 16.486 8.6791C17.3936 8.08837 16.7776 7.33521 16.7776 7.33521C16.7776 7.33521 16.5184 7.93784 15.9382 7.93784C15.9245 7.93784 15.9095 7.93725 15.8952 7.93725C15.8293 7.93369 15.7658 7.93131 15.7018 7.91763L15.5946 7.89681C15.5946 7.89681 15.7599 7.45004 15.3612 7.03954C15.0606 6.72961 14.6949 6.67725 14.4835 6.67725C14.377 6.67725 14.3093 6.69095 14.3093 6.69095C14.5099 6.95151 14.6547 7.38341 14.4231 7.64989C14.2231 7.87895 13.7346 7.89025 13.7346 8.23172C13.7346 8.37628 13.8705 8.54525 14.1148 8.69693C14.8493 9.15678 15.5785 9.76658 15.8814 10.5839C16.2604 11.6036 15.8335 12.28 15.2241 12.6679C15.2241 12.6679 15.4151 12.8428 15.6922 12.8648C15.7485 12.8701 15.8036 12.8725 15.8551 12.8725C16.44 12.8725 16.7423 12.6001 16.7423 12.6001C16.7423 12.6001 16.6926 12.9766 16.3879 13.3264C16.1071 13.6494 15.7383 13.8392 15.1762 13.8476C15.1762 13.8476 15.1582 14.1069 15.4072 14.3312C15.5665 14.4728 15.9347 14.5192 15.9347 14.5192C15.9347 14.5192 15.2456 14.6578 15.1696 15.6692C15.1283 16.217 14.9876 16.4074 14.9876 16.4074H15.0002C16.5992 16.4074 16.5579 15.0445 16.5579 15.0445C16.5579 15.0445 16.6692 15.4478 17.1152 15.5531C17.1691 15.5674 17.2266 15.5728 17.2817 15.5728C17.4253 15.5728 17.5499 15.5395 17.5499 15.5395C17.5499 15.5395 17.3164 15.0499 17.548 14.3651C17.7402 13.797 17.7091 13.3758 17.7091 13.3758C17.7091 13.3758 17.9246 13.6994 18.4586 13.7024H18.464C18.9088 13.7024 19.1028 13.3675 19.1028 13.3675C18.0366 12.9279 18.1419 11.5084 18.1419 11.5084C18.1419 11.5084 18.2802 11.6108 18.5502 11.6209ZM18.2293 13.1033C17.7959 12.891 17.5217 12.327 17.4553 12.1236C17.3835 13.2419 16.8339 14.0183 16.1915 14.7655C15.8581 15.1528 15.7419 15.5293 15.7419 15.5293C15.7419 15.5293 15.806 15.1028 16.0945 14.7554C16.6938 14.0397 17.2631 13.1491 17.3056 12.1194C17.3349 11.4007 17.1487 10.8178 16.8584 10.3377C17.0206 10.838 16.9979 11.4507 16.4465 12.0224C16.4465 12.0224 17.5439 10.7154 16.0095 9.37572C15.3953 8.86587 14.7236 8.55119 14.3776 8.32807C15.6276 8.73322 16.2376 8.28704 16.2376 8.28704C15.8383 8.6309 15.3217 8.62496 15.0014 8.57557C15.0882 8.61784 15.1786 8.66184 15.2762 8.7136C16.3298 9.28231 17.2769 10.2181 17.4385 11.5144V11.5043C17.684 12.7767 18.2293 13.1033 18.2293 13.1033Z" fill="white"/>
<path d="M8.1569 14.5192C8.1569 14.5192 8.52504 14.4734 8.68431 14.3312C8.93272 14.1069 8.9154 13.8476 8.9154 13.8476C8.35263 13.8399 7.98448 13.6494 7.70189 13.327C7.3996 12.9772 7.3493 12.6006 7.3493 12.6006C7.3493 12.6006 7.6516 12.8731 8.2359 12.8731C8.2886 12.8731 8.34307 12.8707 8.39934 12.8654C8.67652 12.8434 8.86808 12.6685 8.86808 12.6685C8.25866 12.2806 7.83122 11.6036 8.20957 10.5839C8.5131 9.76717 9.24167 9.15678 9.9762 8.69693C10.2205 8.54525 10.3563 8.37687 10.3563 8.23172C10.3563 7.89025 9.86846 7.87895 9.66852 7.64989C9.43681 7.38341 9.58228 6.9509 9.78223 6.69095C9.78223 6.69095 9.71578 6.67725 9.60861 6.67725C9.3979 6.67725 9.03211 6.72961 8.7316 7.03954C8.33169 7.45004 8.49751 7.89681 8.49751 7.89681L8.39037 7.91763C8.32631 7.93131 8.26225 7.93369 8.19698 7.93725C8.18204 7.93725 8.16884 7.93784 8.15448 7.93784C7.57319 7.93784 7.31516 7.33582 7.31516 7.33582C7.31516 7.33582 6.69913 8.08893 7.60613 8.67966C7.76237 8.78081 7.8306 8.87422 7.81266 8.97416L7.79828 9.03961L7.73242 9.0509C7.07572 9.22816 6.74227 9.67914 6.33577 10.1919C5.71974 10.9706 4.8475 10.9962 4.73855 10.9962H4.72656C4.72656 10.9962 4.92591 11.6214 5.51321 11.6214C5.52277 11.6214 5.53115 11.6214 5.54133 11.6209C5.81136 11.6113 5.95024 11.5084 5.95024 11.5084C5.95024 11.5084 6.05439 12.9273 4.98938 13.3675C4.98938 13.3675 5.18336 13.7024 5.62815 13.7024H5.63353C6.16812 13.6994 6.38307 13.3758 6.38307 13.3758C6.38307 13.3758 6.35192 13.797 6.54348 14.3651C6.77518 15.0499 6.54292 15.5395 6.54292 15.5395C6.54292 15.5395 6.66742 15.5728 6.81051 15.5728C6.86616 15.5728 6.92307 15.5674 6.97633 15.5531C7.42172 15.4478 7.53369 15.0445 7.53369 15.0445C7.53369 15.0445 7.49295 16.4074 9.09199 16.4074H9.10337C9.10337 16.4074 8.96328 16.217 8.92258 15.6692C8.84593 14.6578 8.1569 14.5192 8.1569 14.5192ZM7.90007 14.7655C7.25769 14.0183 6.70874 13.2419 6.63627 12.1236C6.56986 12.3264 6.29683 12.891 5.86345 13.1033C5.86345 13.1033 6.40821 12.7767 6.65304 11.5043V11.5144C6.8153 10.2187 7.76178 9.28231 8.81602 8.7136C8.9124 8.66122 9.00396 8.61722 9.09019 8.57557C8.7699 8.62496 8.25328 8.6309 7.85398 8.28704C7.85398 8.28704 8.46402 8.73322 9.71337 8.32807C9.36737 8.55119 8.69628 8.86587 8.08204 9.37572C6.5471 10.7154 7.64504 12.0224 7.64504 12.0224C7.09307 11.4501 7.07092 10.838 7.23316 10.3377C6.94222 10.8183 6.7566 11.4007 6.78657 12.1194C6.82845 13.1491 7.39778 14.0397 7.99587 14.7554C8.28498 15.1022 8.35025 15.5293 8.35025 15.5293C8.35025 15.5293 8.2329 15.1528 7.90007 14.7655Z" fill="white"/>
<path d="M10.8635 9.53637C10.8898 9.56431 10.9155 9.59466 10.9401 9.62501C10.9461 9.63216 10.9515 9.63869 10.9574 9.64701C10.9802 9.67737 11.0035 9.70948 11.0257 9.74222C11.0305 9.74875 11.0353 9.75648 11.0406 9.76422C11.0676 9.80466 11.0927 9.84631 11.1179 9.88913C11.3484 10.2848 11.7177 10.5209 12.0452 10.5215C12.3733 10.5209 12.7414 10.2848 12.9731 9.88913C12.9988 9.84513 13.0246 9.80231 13.0515 9.76243C13.0557 9.75648 13.0599 9.75113 13.0635 9.74516C13.0863 9.71128 13.1102 9.67795 13.1353 9.64584C13.1407 9.63869 13.1455 9.63275 13.1503 9.62681C13.1761 9.59528 13.2024 9.56431 13.2293 9.53578C13.2341 9.53101 13.2377 9.52687 13.2419 9.52328C13.3592 9.40372 13.4993 9.31269 13.6825 9.26213L13.6011 9.21513H13.5963L13.2718 9.02772L12.9384 8.83795L12.0476 9.31981L12.0452 9.31804L12.0434 9.31981L11.152 8.83795L10.8191 9.02713L10.4941 9.21454H10.4905L10.4078 9.26151C10.5916 9.3121 10.7311 9.40192 10.8491 9.52151C10.8545 9.52628 10.858 9.53163 10.8635 9.53637ZM11.6848 9.49769H12.062H12.4385V9.75469C12.3499 9.64701 12.1775 9.66904 12.1775 9.66904V10.0397C12.1775 10.0397 12.1841 10.2217 12.2481 10.3008H12.062H11.8752C11.9404 10.2223 11.9464 10.0397 11.9464 10.0397V9.66904C11.9464 9.66904 11.7746 9.64701 11.6848 9.75469V9.49769Z" fill="white"/>
<path d="M11.9686 8.99917V7.4947L11.0047 7.16986L11.2591 8.628L11.9686 8.99917ZM11.7614 7.86414V8.10564L11.7147 8.08423C11.7123 8.08246 11.6441 8.06696 11.5243 7.97299C11.3268 7.8207 11.3232 7.68032 11.3232 7.68032L11.7614 7.86414Z" fill="white"/>
<path d="M12.833 8.628L13.0863 7.16986L12.123 7.4947V8.99917L12.833 8.628ZM12.3302 7.86414L12.7684 7.6809C12.7684 7.6809 12.7648 7.82129 12.5666 7.97358C12.4475 8.06758 12.3786 8.08302 12.3763 8.08485L12.3295 8.10626V7.86414H12.3302Z" fill="white"/>
<path d="M10.6054 12.4871C10.6994 12.521 10.8132 12.5282 10.8712 12.5282C10.8736 12.521 10.8766 12.5121 10.8796 12.5014C10.885 12.4841 10.8898 12.4675 10.8934 12.4485C10.9095 12.3652 10.9155 12.2706 10.9167 12.2099C10.8772 12.1855 10.8215 12.1421 10.7904 12.0772C10.7545 12.0023 10.7036 11.9678 10.6287 11.9678C10.5318 11.9678 10.4276 12.0255 10.3833 12.0528C10.348 12.2605 10.5019 12.449 10.6054 12.4871Z" fill="white"/>
<path d="M12.7374 11.6887C12.5584 11.882 12.2082 12.2187 12.1908 12.236L12.1698 12.2574L11.0629 12.2401C11.0623 12.349 11.0444 12.4418 11.027 12.5096C11.024 12.5209 11.021 12.5328 11.018 12.5447L12.335 12.7797C12.4722 12.6845 12.8493 12.4108 12.9954 12.3038C12.8888 12.1491 12.8787 11.9659 12.9026 11.8368C12.8331 11.7922 12.7799 11.7422 12.7374 11.6887Z" fill="white"/>
<path d="M12.8874 10.3657C12.6324 10.6174 12.3875 10.7102 12.169 10.7316C12.1295 10.7357 12.0894 10.7381 12.0487 10.7381H12.0457H12.0433C12.0026 10.7381 11.9619 10.7357 11.9224 10.7316C11.884 10.728 11.8439 10.7221 11.8038 10.7132C11.7894 10.7697 11.7715 10.8881 11.823 10.9999C11.8691 11.1016 11.9631 11.1772 12.1002 11.2272L12.1462 11.245L12.1469 11.2944C12.1469 11.3093 12.1576 11.6293 12.509 11.7179C12.5665 11.659 12.6186 11.6061 12.6569 11.5621C12.5851 11.3943 12.6228 11.223 12.727 11.1391C12.7222 11.157 12.6767 11.577 13.0155 11.7328L13.0712 11.759L13.0544 11.8179C13.049 11.8358 12.9359 12.242 13.346 12.3931L13.4184 12.4205L13.3861 12.4907C13.3789 12.5062 13.2179 12.875 13.5968 13.0844H14.4188V12.436C14.1266 12.4003 14.0027 12.1671 13.971 12.0017C13.835 11.9785 13.7297 11.9202 13.6579 11.825C13.4855 11.5996 13.6339 11.3931 13.6357 11.3818C13.6351 11.3836 13.6357 11.6037 13.7722 11.7394C13.8399 11.8048 13.9201 11.8553 14.0416 11.8667L14.1015 11.872L14.1069 11.9327C14.1081 11.9458 14.141 12.2433 14.4194 12.2902L14.4188 10.966C14.4188 10.7607 14.4792 10.5543 14.5517 10.364H12.8874V10.3657Z" fill="white"/>
<path d="M10.6755 10.9724L10.6533 11.816L10.7497 11.8303L10.9856 11.0212L10.8658 10.7725L10.6755 10.9724Z" fill="white"/>
<path d="M13.276 14.8411C13.2832 14.8411 13.2916 14.8423 13.2994 14.8441C13.446 14.8857 13.4831 15.4116 13.7406 15.4586C13.7657 15.464 13.789 15.4652 13.8094 15.4652C13.8836 15.4652 13.9279 15.4336 13.9758 15.3777C13.9758 15.3777 13.8465 15.1755 13.7495 15.0392C13.6208 14.8607 13.5209 14.6448 13.2814 14.6448C13.276 14.6448 13.2688 14.6448 13.2628 14.6454C13.1838 14.6496 13.1353 14.6877 13.1353 14.6877C13.0383 14.6269 12.9479 14.6061 12.8659 14.6061C12.7156 14.6061 12.5989 14.6745 12.5409 14.6745H12.5384L12.0032 14.6222C11.9194 14.6144 11.8536 14.5306 11.8296 14.4979C11.8236 14.4889 11.8206 14.4836 11.8206 14.4836C11.8206 14.4693 11.8206 14.4544 11.8195 14.4413C11.8015 14.0065 11.4627 13.8203 11.3423 13.8173C11.3423 13.8173 11.3567 13.7346 11.3238 13.7031L11.2058 13.8452L10.8185 13.6519L11.0945 13.9726L10.8604 14.2337C10.8311 14.2635 10.8347 14.3039 10.8466 14.3206L10.9478 14.4092L11.0759 14.3319C11.0825 14.3271 11.0939 14.3259 11.1082 14.3259C11.1436 14.3259 11.1968 14.3349 11.2447 14.3349C11.2968 14.3349 11.3423 14.3235 11.3477 14.2748C11.3316 14.436 11.1813 14.7162 11.2801 14.9363L11.3531 15.1023L10.8802 15.0345L10.6587 15.4062C10.5904 15.53 10.5796 15.6639 10.6455 15.7364L10.7281 15.8394C10.7281 15.8394 10.8443 15.7168 10.8706 15.6365L10.8329 15.5955C10.8011 15.5609 10.8029 15.53 10.8221 15.4925L10.961 15.2635L11.5195 15.3944L11.5488 15.3444C11.5866 15.2819 11.6411 15.2629 11.7009 15.2629C11.7255 15.2629 11.7506 15.2659 11.7769 15.27C11.8805 15.2903 12.0511 15.3176 12.2218 15.3176C12.4091 15.3176 12.5947 15.2843 12.6935 15.1743C12.8958 15.4723 13.3059 15.5199 13.2736 15.671L13.1659 16.1814C13.2371 16.1785 13.3059 16.1737 13.3712 16.1647L13.4735 15.6335C13.4849 15.5758 13.4957 15.4979 13.4957 15.4979C13.4562 15.458 13.3604 15.3736 13.3065 15.2712C13.2341 15.1332 13.2736 15.0612 13.2059 14.8816C13.2084 14.8827 13.2287 14.8411 13.276 14.8411ZM11.1867 14.0951C11.1591 14.0945 11.1394 14.0713 11.1406 14.0439C11.143 14.0178 11.1651 13.9969 11.1921 13.9993C11.2196 14.0005 11.2393 14.0243 11.2382 14.0505C11.2358 14.0767 11.213 14.0969 11.1867 14.0951Z" fill="white"/>
<path d="M10.4241 15.3241C10.4241 15.3241 10.6091 15.2485 10.6259 15.1944L10.6013 15.1331C10.5839 15.0932 10.5864 15.0498 10.6199 15.026L10.8198 14.8886L11.1539 14.9522C11.1539 14.9522 11.0934 14.8773 11.0994 14.7767L10.7809 14.7095L10.4804 14.8916C10.3517 14.9874 10.3421 15.1438 10.3846 15.2366L10.4241 15.3241Z" fill="white"/>
<path d="M12.7852 16.1891C12.8451 16.1867 12.9109 16.1855 12.9834 16.1855C12.9834 16.1855 13.1552 15.6864 13.1648 15.6703C13.0684 15.6281 12.8685 15.5228 12.7912 15.4746C12.8421 15.5501 12.966 15.637 12.9415 15.7036L12.7852 16.1891Z" fill="white"/>
<path d="M14.4207 13.2289H9.67151V15.0041C9.67151 15.7299 10.2001 16.1844 10.9802 16.1844C11.6321 16.1844 11.8039 16.2094 12.0464 16.4485C12.2134 16.2832 12.3517 16.2213 12.6355 16.1981L12.6421 16.1707L12.7917 15.7109C12.7833 15.7007 12.5385 15.4241 12.5385 15.4241C12.4415 15.4562 12.3601 15.4616 12.223 15.4616C12.0823 15.4616 11.9237 15.4455 11.7519 15.4134C11.7345 15.4093 11.7183 15.4081 11.7022 15.4081C11.6812 15.4081 11.6794 15.4099 11.674 15.42L11.6441 15.4687L11.5896 15.558L11.4873 15.5348L11.0317 15.4283L10.9694 15.5306L10.979 15.5413L11.0347 15.602L11.0101 15.6811C10.9766 15.7847 10.8676 15.9054 10.8347 15.9387L10.721 16.0601L10.6174 15.9298L10.5396 15.8328C10.4576 15.7418 10.4384 15.602 10.4845 15.4557C10.4833 15.4569 10.4815 15.4575 10.4797 15.4575L10.351 15.5104L10.2929 15.3855L10.2522 15.2968C10.1822 15.141 10.2079 14.9131 10.3965 14.7757L10.7635 14.5698L11.1125 14.6383C11.1209 14.6049 11.1335 14.486 11.1436 14.4556C11.137 14.4551 11.1305 14.4532 11.1239 14.4532L10.9227 14.5276L10.7287 14.3944C10.7287 14.3944 10.6527 14.3218 10.7215 14.2492L10.9095 13.9666L10.4336 13.3729L11.1652 13.6716L11.2137 13.6115L11.3125 13.4943L11.4244 13.6002C11.4561 13.6305 11.4741 13.668 11.483 13.7054C11.6848 13.7834 12.0458 14.0136 12.0775 14.3878L11.9644 14.433V14.436C11.9901 14.4663 12.0117 14.4789 12.0183 14.48L12.5403 14.5312C12.5535 14.5288 12.5702 14.5229 12.5888 14.5175C12.6535 14.4955 12.751 14.4639 12.8666 14.4639C12.9606 14.4639 13.0516 14.4854 13.1389 14.5258C13.1713 14.5139 13.2108 14.505 13.2563 14.502L13.2814 14.5014C13.561 14.5014 13.6999 14.7091 13.8113 14.8744C13.8298 14.903 13.8483 14.9304 13.8675 14.9571C13.9651 15.0939 14.0926 15.2945 14.098 15.3028L14.1555 15.392L14.0848 15.4735C14.0304 15.536 13.9489 15.6092 13.8088 15.6092C13.7801 15.6092 13.7484 15.6062 13.7143 15.5996C13.6843 15.5942 13.6574 15.5854 13.631 15.5747C13.6268 15.602 13.6215 15.6347 13.6161 15.6627L13.5245 16.1374C14.0723 16.0035 14.4201 15.5925 14.4201 15.0047L14.4207 13.2289Z" fill="#FFDD2D"/>
<path d="M9.67156 13.0862H13.3647C13.1803 12.897 13.1827 12.6573 13.23 12.5014C13.1761 12.4758 13.1318 12.4449 13.0923 12.4116C12.948 12.5175 12.5074 12.8363 12.3925 12.9161L12.3679 12.9327L10.9186 12.6722H10.8892C10.8545 12.6722 10.8036 12.671 10.7479 12.6644C10.7324 12.7293 10.6761 12.7739 10.6114 12.7739C10.6043 12.7739 10.5959 12.7733 10.5881 12.7715C10.5504 12.765 10.5174 12.7459 10.4953 12.7144C10.4726 12.6835 10.4636 12.6466 10.4702 12.6085L10.4756 12.5776C10.3259 12.4729 10.1882 12.2391 10.2493 11.9928L10.2552 11.9666L10.2762 11.9517C10.2792 11.9494 10.3043 11.9327 10.3415 11.9113L10.2361 11.8952C10.1966 11.8881 10.1702 11.8518 10.1762 11.8131C10.1828 11.7739 10.2199 11.7459 10.2589 11.7536L10.5097 11.7929L10.5324 10.9148L10.906 10.5222L11.1389 11.0094L10.8928 11.8542L11.1143 11.8887C11.1532 11.8946 11.1802 11.9309 11.1742 11.9708C11.1682 12.0059 11.1383 12.0302 11.1029 12.0302C11.0994 12.0302 11.0952 12.0302 11.0916 12.0297L10.9114 12.0005C10.9138 12.0059 10.9174 12.0088 10.9197 12.0148C10.9389 12.054 10.9814 12.0826 11.0066 12.0945L12.1117 12.1118C12.1584 12.0666 12.2745 11.9535 12.3937 11.834C12.1219 11.7316 12.0231 11.4984 12.0063 11.3437C11.8543 11.2795 11.7495 11.1831 11.6914 11.0576C11.6208 10.9023 11.646 10.7471 11.6645 10.6715C11.5172 10.618 11.3622 10.5204 11.2041 10.3646H9.53986C9.61109 10.5549 9.67156 10.7613 9.67156 10.9666V13.0862Z" fill="#FFDD2D"/>
<path d="M11.1926 13.9993C11.1657 13.9969 11.1429 14.0178 11.1412 14.0439C11.1393 14.0713 11.1597 14.0945 11.1873 14.0951C11.2136 14.0975 11.2369 14.0772 11.2393 14.0505C11.2393 14.0243 11.2202 13.9999 11.1926 13.9993Z" fill="black"/>
<path d="M14.414 17.2182L14.1404 17.1142L14.2158 16.8334L14.299 16.527C14.299 16.527 13.8141 16.7882 13.131 16.9845C12.937 17.0398 12.7904 17.0648 12.7904 17.0648V17.273C12.7904 17.273 12.4252 17.336 12.0558 17.336H12.0517H12.0463H12.0391H12.0349C11.6655 17.336 11.3003 17.273 11.3003 17.273V17.0648C11.3003 17.0648 11.1531 17.0398 10.9597 16.9845C10.2766 16.7882 9.79229 16.527 9.79229 16.527L9.87432 16.8334L9.95156 17.1142L9.67735 17.2182L9.37323 17.3313C9.72226 17.4985 10.2054 17.7424 10.6478 17.8625L10.5436 18.1457C10.5436 18.1457 11.1046 18.3997 12.0391 18.4021V18.4027H12.0421H12.0463H12.0499H12.0523V18.4021C12.9879 18.3997 13.5483 18.1457 13.5483 18.1457L13.4435 17.8625C13.886 17.7424 14.3702 17.4985 14.7175 17.3313L14.414 17.2182ZM9.69773 17.3503L10.1479 17.2016L10.015 16.7703C10.2132 16.8822 10.658 17.0499 10.9154 17.1278L10.6981 17.7209C10.3006 17.6121 9.96953 17.4854 9.69773 17.3503ZM12.0463 18.2534C11.5236 18.2534 10.9268 18.1338 10.7514 18.072L11.0184 17.3539C11.2399 17.4181 11.7008 17.4866 12.0355 17.4842H12.0361H12.0463H12.0552H12.0564C12.3911 17.4866 12.8509 17.4181 13.0736 17.3539L13.34 18.072C13.1645 18.1344 12.5683 18.2534 12.0463 18.2534ZM13.3932 17.7209L13.1765 17.1278C13.4346 17.0499 13.8782 16.8822 14.0769 16.7703L13.9446 17.2016L14.3942 17.3503C14.1218 17.4854 13.7925 17.6121 13.3932 17.7209Z" fill="black"/>
<path d="M12.0457 6.01048C12.6024 6.01048 13.0478 6.19372 13.2939 6.38944C13.2939 6.38944 13.3669 5.95219 13.6166 5.5661L13.1682 5.61666L12.9335 5.12111L12.4827 5.35194L12.0457 4.92242L11.6098 5.35194L11.1585 5.12111L10.9244 5.61666L10.476 5.5661C10.7256 5.95219 10.7987 6.38944 10.7987 6.38944C11.0453 6.19372 11.4895 6.01048 12.0457 6.01048ZM10.904 5.79039L11.0286 5.80348L11.0824 5.69102L11.2393 5.35787L11.5302 5.50719L11.6428 5.56433L11.7326 5.47627L12.0463 5.16693L12.3606 5.47627L12.4504 5.56433L12.5629 5.50719L12.8521 5.35787L13.0107 5.69102L13.0634 5.80348L13.1879 5.79039L13.3064 5.7761C13.252 5.89805 13.2119 6.01345 13.1831 6.10925C12.8694 5.93552 12.4611 5.83679 12.0451 5.83679C11.6308 5.83679 11.2231 5.93552 10.9083 6.10925C10.8789 6.01345 10.8394 5.89747 10.7849 5.7761L10.904 5.79039Z" fill="black"/>
<path d="M18.5777 11.8124C19.2979 11.8124 19.5386 11.0842 19.5488 11.0533L19.629 10.7969L19.359 10.8052H19.3578C19.2626 10.8052 18.4682 10.7844 17.9048 10.0729L17.8516 10.0069C17.4834 9.54168 17.1344 9.09968 16.5106 8.898C16.5285 8.88194 16.5543 8.86171 16.5896 8.83909C16.9206 8.62256 17.1134 8.35962 17.1619 8.05444C17.2326 7.59514 16.938 7.22929 16.9248 7.21442L16.7243 6.96814L16.5992 7.26024C16.5908 7.27868 16.3801 7.74629 15.937 7.74629H15.9041C15.8736 7.74447 15.8449 7.74329 15.8161 7.74094C15.8317 7.53211 15.7934 7.20907 15.4989 6.90627C15.145 6.5416 14.7104 6.48688 14.4829 6.48688C14.3614 6.48688 14.2806 6.50174 14.2722 6.50293L13.9692 6.56242L14.156 6.80693C14.3027 6.99552 14.4356 7.34352 14.2782 7.52558C14.2279 7.58326 14.1243 7.63026 14.0249 7.67726C13.8208 7.77064 13.5424 7.90035 13.5424 8.23109C13.5424 8.44526 13.7094 8.66897 14.0124 8.85932C14.9092 9.41974 15.4623 10.0045 15.7012 10.65C16.0706 11.6429 15.5886 12.2092 15.1205 12.5073L14.9104 12.6417L15.0941 12.8094C15.1187 12.8309 15.3438 13.0278 15.676 13.0563C15.7389 13.0605 15.7994 13.0641 15.8556 13.0641C16.0688 13.0641 16.2502 13.0308 16.3974 12.9861C16.3567 13.0569 16.307 13.1289 16.2442 13.2015C15.9766 13.5096 15.6473 13.65 15.1737 13.6572L14.9978 13.6602L14.984 13.8357C14.9822 13.8707 14.969 14.1962 15.2791 14.4728C15.3264 14.5156 15.3839 14.5507 15.4438 14.5799C15.2336 14.7678 15.0199 15.0951 14.9786 15.656C14.9439 16.1242 14.8314 16.2973 14.8301 16.2991L14.6356 16.5942L14.987 16.5989C15.5677 16.5989 16.0125 16.4395 16.3208 16.1242C16.5028 15.9374 16.607 15.7269 16.6686 15.54C16.7698 15.6257 16.9003 15.7007 17.0703 15.7405C17.135 15.7554 17.2056 15.7637 17.2816 15.7637C17.4457 15.7637 17.5828 15.7292 17.5983 15.7256L17.8228 15.6661L17.7235 15.4579C17.7163 15.4413 17.5289 15.0237 17.7306 14.4276C17.8174 14.17 17.8617 13.9392 17.8833 13.7595C18.0246 13.8327 18.2138 13.8933 18.4586 13.894C19.0141 13.894 19.259 13.4817 19.2704 13.4644L19.3799 13.2753L19.177 13.192C18.5149 12.9189 18.3682 12.1854 18.3389 11.788C18.3987 11.7993 18.467 11.81 18.5442 11.8124H18.5777ZM19.1028 13.3675C19.1028 13.3675 18.9088 13.7024 18.464 13.7024H18.4586C17.9246 13.6994 17.7091 13.3758 17.7091 13.3758C17.7091 13.3758 17.7402 13.797 17.5474 14.3651C17.3158 15.0498 17.5492 15.5394 17.5492 15.5394C17.5492 15.5394 17.4247 15.5728 17.281 15.5728C17.226 15.5728 17.1685 15.5674 17.1146 15.5531C16.6686 15.4479 16.5573 15.0445 16.5573 15.0445C16.5573 15.0445 16.5986 16.4074 14.9996 16.4074H14.987C14.987 16.4074 15.1277 16.217 15.1696 15.6691C15.2456 14.6578 15.9347 14.5192 15.9347 14.5192C15.9347 14.5192 15.5671 14.4734 15.4078 14.3312C15.1588 14.1069 15.1762 13.8475 15.1762 13.8475C15.7389 13.8398 16.1071 13.6495 16.3878 13.3264C16.692 12.9766 16.7423 12.6 16.7423 12.6C16.7423 12.6 16.4399 12.8725 15.855 12.8725C15.8035 12.8725 15.7485 12.8701 15.6922 12.8648C15.4156 12.8428 15.2241 12.6679 15.2241 12.6679C15.8329 12.28 16.2603 11.603 15.8814 10.5833C15.5779 9.76653 14.8487 9.15618 14.1147 8.69629C13.8705 8.54465 13.7346 8.37626 13.7346 8.23109C13.7346 7.88964 14.2231 7.87894 14.4236 7.64929C14.6547 7.3828 14.5099 6.95028 14.3093 6.69033C14.3093 6.69033 14.377 6.67663 14.4835 6.67663C14.6948 6.67663 15.0606 6.72958 15.3612 7.03892C15.7605 7.44941 15.5946 7.89617 15.5946 7.89617L15.7018 7.917C15.7658 7.93067 15.8293 7.93306 15.8952 7.93603C15.9095 7.93603 15.9239 7.93664 15.9383 7.93664C16.5183 7.93664 16.7775 7.33401 16.7775 7.33401C16.7775 7.33401 17.3942 8.08773 16.4866 8.67785C16.3304 8.779 16.2615 8.87241 16.2795 8.97235L16.2938 9.0378L16.3585 9.04909C17.0164 9.22636 17.3493 9.67733 17.7558 10.1901C18.373 10.97 19.2464 10.995 19.3542 10.995H19.3656C19.3656 10.995 19.1662 11.6202 18.5789 11.6202C18.5694 11.6202 18.561 11.6202 18.5508 11.6197C18.2808 11.6101 18.1425 11.5072 18.1425 11.5072C18.1425 11.5072 18.0365 12.9272 19.1028 13.3675Z" fill="black"/>
<path d="M17.3128 8.97656C17.5815 9.11877 17.7378 9.30912 17.8749 9.47807C18.0096 9.64286 18.1377 9.80168 18.3377 9.86771C18.4089 9.89213 18.4843 9.90342 18.561 9.90342C18.8615 9.90342 19.1632 9.72077 19.2776 9.46795L19.3925 9.21454L19.1141 9.19786C19.101 9.19727 18.743 9.16515 18.3443 8.76003C18.1802 8.59406 17.9821 8.50659 17.7683 8.50659C17.5073 8.50659 17.314 8.6363 17.2924 8.64936L17.0362 8.82845L17.3128 8.97656ZM17.769 8.69815C17.9031 8.69815 18.0593 8.74339 18.2072 8.89506C18.6711 9.36327 19.1027 9.38942 19.1027 9.38942C19.0243 9.56195 18.7968 9.71366 18.5616 9.71366C18.5071 9.71366 18.4526 9.7053 18.3981 9.68686C18.079 9.57977 17.9647 9.10386 17.4038 8.80762C17.4038 8.80762 17.5606 8.69815 17.769 8.69815Z" fill="black"/>
<path d="M17.4385 11.5044V11.5139C17.2769 10.2182 16.3298 9.28242 15.2762 8.71309C15.1785 8.66133 15.0887 8.61733 15.0014 8.57509C15.3222 8.62444 15.8389 8.63041 16.2376 8.28656C16.2376 8.28656 15.6275 8.73274 14.3776 8.32762C14.7236 8.55068 15.3959 8.86542 16.0095 9.37521C17.5438 10.715 16.4459 12.0219 16.4459 12.0219C16.9973 11.4502 17.02 10.8375 16.8578 10.3372C17.1481 10.8172 17.3337 11.4002 17.305 12.1189C17.2625 13.1487 16.6932 14.0392 16.0939 14.7549C15.806 15.1023 15.7413 15.5289 15.7413 15.5289C15.7413 15.5289 15.8574 15.1523 16.1909 14.765C16.8332 14.0178 17.3822 13.2415 17.454 12.123C17.5205 12.3259 17.7941 12.8905 18.2281 13.1029C18.2293 13.1035 17.6839 12.7768 17.4385 11.5044Z" fill="black"/>
<path d="M9.26139 16.2985C9.26077 16.2967 9.14945 16.1236 9.11354 15.6554C9.0716 15.0944 8.85848 14.7672 8.64777 14.5793C8.70883 14.5507 8.76509 14.5156 8.81239 14.4722C9.12192 14.1955 9.10874 13.8701 9.10695 13.8351L9.09498 13.6596L8.91777 13.6566C8.44542 13.6488 8.11556 13.5084 7.84794 13.2009C7.78571 13.1283 7.73541 13.0563 7.69468 12.9855C7.84197 13.0301 8.02218 13.0635 8.23589 13.0635C8.29336 13.0635 8.35262 13.0599 8.41548 13.0557C8.74774 13.0271 8.97286 12.8308 8.99798 12.8088L9.18177 12.641L8.97165 12.5066C8.50171 12.208 8.02156 11.6416 8.39033 10.6493C8.62921 10.0039 9.18177 9.41913 10.0797 8.85871C10.3827 8.66836 10.5485 8.44465 10.5485 8.23047C10.5485 7.89974 10.2707 7.76947 10.0666 7.67665C9.96722 7.62965 9.86366 7.58265 9.81333 7.52497C9.6553 7.3435 9.7888 6.99491 9.93489 6.80632L10.1229 6.56181L9.81875 6.50232C9.80977 6.50113 9.73016 6.48627 9.60801 6.48627C9.38054 6.48627 8.94709 6.54098 8.59268 6.90566C8.29756 7.20907 8.25862 7.53209 8.27362 7.74032C8.24486 7.74268 8.21615 7.74385 8.18621 7.74568H8.15389C7.70968 7.74568 7.49956 7.27807 7.49118 7.25963L7.36606 6.96753L7.16368 7.21381C7.15232 7.22868 6.85659 7.59515 6.92841 8.05383C6.97632 8.359 7.16909 8.62195 7.50015 8.83848C7.53606 8.86106 7.56121 8.88133 7.57918 8.89739C6.95594 9.09907 6.60756 9.54166 6.23935 10.0069L6.18608 10.0729C5.62335 10.7844 4.82714 10.8052 4.73196 10.8052L4.46075 10.7969L4.54337 11.0533C4.55294 11.0842 4.79301 11.8124 5.51379 11.8124L5.54852 11.8112C5.62455 11.8088 5.69279 11.7987 5.75388 11.7868C5.72394 12.1836 5.57726 12.9171 4.91453 13.1908L4.7122 13.2741L4.82176 13.4632C4.83253 13.4805 5.07799 13.8927 5.63473 13.8927C5.87776 13.8921 6.06694 13.8315 6.20882 13.7583C6.23038 13.938 6.27467 14.1688 6.3615 14.4264C6.56323 15.0224 6.37529 15.4401 6.36809 15.4567L6.26873 15.6649L6.49379 15.7244C6.50876 15.728 6.64706 15.7625 6.8105 15.7625C6.88712 15.7625 6.95776 15.7542 7.02123 15.7393C7.19182 15.6994 7.32353 15.6245 7.42353 15.5388C7.48456 15.7256 7.58935 15.9362 7.77074 16.123C8.07965 16.4383 8.52386 16.5977 9.10454 16.5977L9.45657 16.593L9.26139 16.2985ZM9.09136 16.4074C7.49235 16.4074 7.53309 15.0445 7.53309 15.0445C7.53309 15.0445 7.42171 15.4478 6.97571 15.5531C6.92244 15.5674 6.86556 15.5727 6.80991 15.5727C6.6662 15.5727 6.54229 15.5394 6.54229 15.5394C6.54229 15.5394 6.77459 15.0498 6.54288 14.3651C6.35132 13.797 6.38244 13.3758 6.38244 13.3758C6.38244 13.3758 6.16753 13.6994 5.63294 13.7023H5.62755C5.18273 13.7023 4.98876 13.3674 4.98876 13.3674C6.05438 12.9278 5.94961 11.5084 5.94961 11.5084C5.94961 11.5084 5.81135 11.6107 5.54073 11.6208C5.53117 11.6214 5.52217 11.6214 5.51261 11.6214C4.92473 11.6214 4.72597 10.9962 4.72597 10.9962H4.73793C4.84629 10.9962 5.71855 10.9712 6.33576 10.1913C6.74223 9.67848 7.07571 9.22812 7.73244 9.05027L7.7983 9.03898L7.81262 8.97354C7.83062 8.87359 7.76235 8.78018 7.60612 8.67906C6.69853 8.08833 7.31515 7.33518 7.31515 7.33518C7.31515 7.33518 7.57318 7.93721 8.1545 7.93721C8.16883 7.93721 8.182 7.93662 8.19697 7.93662C8.26224 7.93303 8.32692 7.93068 8.39033 7.91697L8.4975 7.89615C8.4975 7.89615 8.33168 7.44938 8.73159 7.03892C9.03212 6.72897 9.39789 6.67663 9.6086 6.67663C9.71577 6.67663 9.78225 6.6903 9.78225 6.6903C9.58227 6.95087 9.43742 7.38277 9.66848 7.6493C9.86842 7.87833 10.3563 7.88962 10.3563 8.23109C10.3563 8.37565 10.2205 8.54459 9.97619 8.6963C9.24163 9.15618 8.51248 9.76654 8.20953 10.5833C7.83121 11.603 8.25806 12.2794 8.86809 12.6678C8.86809 12.6678 8.67651 12.8428 8.39933 12.8648C8.34306 12.8701 8.28859 12.8725 8.23589 12.8725C7.65159 12.8725 7.34929 12.6 7.34929 12.6C7.34929 12.6 7.39956 12.9766 7.70188 13.3264C7.98447 13.6494 8.35262 13.8398 8.91539 13.8475C8.91539 13.8475 8.93333 14.1069 8.6843 14.3312C8.52445 14.4728 8.15689 14.5191 8.15689 14.5191C8.15689 14.5191 8.84654 14.6578 8.92195 15.6691C8.96327 16.217 9.10274 16.4074 9.10274 16.4074H9.09136Z" fill="black"/>
<path d="M5.52991 9.90411C5.60711 9.90411 5.68256 9.89282 5.75382 9.86841C5.95494 9.80238 6.08247 9.64352 6.21718 9.47876C6.35485 9.30982 6.50991 9.11943 6.77871 8.97726L7.05527 8.8297L6.79847 8.65067C6.77691 8.63699 6.58415 8.50787 6.32374 8.50787C6.10941 8.50787 5.91067 8.59476 5.7472 8.76132C5.34853 9.16585 4.99114 9.19858 4.97794 9.19917L4.69958 9.2152L4.81391 9.46923C4.92885 9.72088 5.22997 9.90411 5.52991 9.90411ZM5.88432 8.89576C6.03279 8.74408 6.18903 8.69884 6.32374 8.69884C6.53085 8.69884 6.68774 8.80829 6.68774 8.80829C6.12735 9.10517 6.01241 9.58047 5.69214 9.68758C5.63947 9.706 5.58438 9.71435 5.52991 9.71435C5.29464 9.71435 5.06714 9.56323 4.98932 9.39011C4.98932 9.38952 5.42035 9.36335 5.88432 8.89576Z" fill="black"/>
<path d="M6.78647 12.1194C6.7565 11.4008 6.94212 10.8178 7.23303 10.3377C7.07082 10.838 7.09297 11.4508 7.64494 12.0225C7.64494 12.0225 6.547 10.7155 8.08195 9.37576C8.69618 8.86596 9.36786 8.55123 9.71328 8.32817C8.46392 8.73329 7.85389 8.28711 7.85389 8.28711C8.25257 8.63096 8.76921 8.62499 9.0901 8.57502C9.0033 8.61726 8.9123 8.66132 8.81589 8.71305C7.76106 9.28238 6.81459 10.2182 6.65238 11.5138V11.5037C6.4075 12.7762 5.86273 13.1028 5.86273 13.1028C6.29617 12.8904 6.56915 12.3265 6.63562 12.123C6.70803 13.2414 7.257 14.0177 7.89936 14.765C8.2328 15.1523 8.35015 15.5288 8.35015 15.5288C8.35015 15.5288 8.28489 15.1023 7.99574 14.7548C7.39768 14.0404 6.82835 13.1492 6.78647 12.1194Z" fill="black"/>
<path d="M11.6848 9.49774V9.75474C11.7741 9.64704 11.9465 9.66907 11.9465 9.66907V10.0397C11.9465 10.0397 11.9405 10.2217 11.8752 10.3009H12.062H12.2482C12.1841 10.2223 12.1775 10.0397 12.1775 10.0397V9.66907C12.1775 9.66907 12.3499 9.64704 12.4386 9.75474V9.49774H12.062H11.6848Z" fill="black"/>
<path d="M11.5242 7.97362C11.6434 8.06762 11.7122 8.08309 11.7146 8.08485L11.7613 8.10626V7.86414L11.3231 7.68091C11.3231 7.68153 11.3273 7.82132 11.5242 7.97362Z" fill="black"/>
<path d="M12.5668 7.97362C12.765 7.82132 12.7685 7.68091 12.7685 7.68091L12.3303 7.86414V8.10626L12.3764 8.08485C12.3794 8.08309 12.4477 8.06762 12.5668 7.97362Z" fill="black"/>
<path d="M13.3561 6.98786C13.3561 6.62082 12.7341 6.29065 12.0474 6.29065H12.0469H12.0451H12.0432C11.3566 6.29065 10.7346 6.62082 10.7346 6.98786L10.7484 7.0783L11.0225 8.64228L10.7472 8.8011L10.0348 9.21458H10.0371C10.0371 9.21458 9.87673 9.29608 9.80249 9.34663C9.53128 9.53405 9.47381 9.80708 9.63129 9.92014C9.6702 9.69761 9.84737 9.46443 10.1791 9.46443C10.4179 9.46443 10.5999 9.58699 10.7472 9.77081C10.7849 9.8172 10.8208 9.86658 10.8543 9.92014C10.8956 9.98734 10.9369 10.0462 10.9783 10.1033H9.14337C9.27808 10.3728 9.40617 10.6584 9.40617 10.9683V15.0041C9.40617 15.9809 10.1623 16.4473 10.9801 16.4473C11.6122 16.4473 11.6972 16.4188 12.0462 16.7638C12.3934 16.4182 12.4785 16.4473 13.1112 16.4473C13.9296 16.4473 14.6845 15.9809 14.6845 15.0041V10.9683C14.6845 10.6584 14.8127 10.3728 14.9479 10.1033H13.1125C13.1532 10.0468 13.1945 9.98734 13.2358 9.92014C13.2699 9.86658 13.3052 9.8172 13.3424 9.77081C13.4908 9.58637 13.6722 9.46443 13.9111 9.46443C14.2427 9.46443 14.4193 9.69702 14.4588 9.92014C14.6163 9.80708 14.5594 9.53405 14.2864 9.34663C14.2134 9.29608 14.0529 9.21458 14.0529 9.21458H14.0553L13.3429 8.8011L13.0688 8.64228L13.3429 7.0783L13.3561 6.98786ZM11.0046 7.1699L11.9684 7.49472V8.99922L11.259 8.62743L11.0046 7.1699ZM11.2039 10.3657C11.362 10.5221 11.5171 10.6191 11.6643 10.6727C11.6451 10.7482 11.62 10.9041 11.6912 11.0593C11.7493 11.1843 11.8547 11.2806 12.0061 11.3449C12.0229 11.4996 12.1211 11.7322 12.3934 11.8351C12.2743 11.9547 12.1582 12.0671 12.1109 12.1129L11.0064 12.0957C10.9813 12.0831 10.9387 12.0552 10.9196 12.0154C10.9172 12.01 10.9136 12.007 10.9118 12.0011L11.092 12.0302C11.0962 12.0308 11.0998 12.0308 11.1034 12.0308C11.1381 12.0308 11.1686 12.007 11.1746 11.9714C11.1806 11.9315 11.1537 11.8952 11.1148 11.8892L10.8933 11.8547L11.1393 11.0106L10.9064 10.5233L10.5328 10.916L10.5101 11.7941L10.2593 11.7548C10.2203 11.7471 10.1832 11.7756 10.1767 11.8143C10.1707 11.8529 10.197 11.8892 10.2365 11.8964L10.3419 11.9124C10.3042 11.9339 10.2796 11.9505 10.2766 11.9529L10.2551 11.9678L10.2491 11.9939C10.188 12.2402 10.3263 12.474 10.4754 12.5787L10.47 12.6097C10.464 12.6477 10.4724 12.6846 10.4951 12.7156C10.5167 12.7471 10.5502 12.7661 10.5873 12.7726C10.5951 12.7739 10.6035 12.7744 10.6107 12.7744C10.6753 12.7744 10.7316 12.7298 10.7478 12.665C10.8034 12.6715 10.8543 12.6727 10.889 12.6727H10.9184L12.3677 12.9327L12.3923 12.9166C12.5078 12.8363 12.9478 12.5174 13.0921 12.4121C13.1316 12.4461 13.1759 12.477 13.2298 12.5026C13.1831 12.6584 13.1801 12.8982 13.3651 13.0874H9.67137V10.9689C9.67137 10.7637 9.6109 10.5573 9.53967 10.3669H11.2039V10.3657ZM12.9951 12.3039C12.8484 12.4109 12.4713 12.6846 12.3348 12.7798L11.0178 12.5448C11.0208 12.5329 11.0237 12.5216 11.0267 12.5097C11.0441 12.4419 11.0615 12.3491 11.0627 12.2402L12.1696 12.2581L12.1905 12.2366C12.2073 12.22 12.5581 11.8833 12.7371 11.6893C12.7796 11.7423 12.8329 11.7929 12.9024 11.8375C12.8784 11.966 12.8886 12.1492 12.9951 12.3039ZM10.7903 12.0772C10.8214 12.1421 10.8777 12.1855 10.9166 12.2099C10.9154 12.2706 10.9094 12.3651 10.8933 12.4484C10.8896 12.4669 10.8848 12.4841 10.8795 12.5014C10.8765 12.5121 10.8735 12.521 10.8711 12.5281C10.813 12.5281 10.6987 12.521 10.6053 12.4871C10.5017 12.449 10.3473 12.2604 10.3832 12.0528C10.4281 12.0255 10.5316 11.9678 10.6286 11.9678C10.7035 11.9672 10.7543 12.0023 10.7903 12.0772ZM10.6532 11.8161L10.6753 10.9731L10.8657 10.7726L10.9854 11.0213L10.7496 11.8303L10.6532 11.8161ZM12.9832 16.1862C12.9113 16.1862 12.8449 16.1874 12.785 16.1897L12.9418 15.7049C12.9664 15.6377 12.8424 15.5514 12.7916 15.4759C12.8688 15.5241 13.0688 15.6293 13.1652 15.6716C13.1549 15.6871 12.9832 16.1862 12.9832 16.1862ZM13.4752 15.6353L13.3729 16.166C13.3076 16.1749 13.2382 16.1797 13.1669 16.1826L13.2747 15.6722C13.307 15.5205 12.8969 15.4735 12.6946 15.1755C12.5958 15.2861 12.4096 15.3188 12.2229 15.3188C12.0522 15.3188 11.8816 15.2915 11.778 15.2712C11.7517 15.2671 11.7266 15.2641 11.702 15.2641C11.6421 15.2641 11.5877 15.2825 11.55 15.3456L11.52 15.3955L10.9615 15.2647L10.8226 15.4931C10.8028 15.53 10.8016 15.5615 10.8334 15.596L10.8711 15.6371C10.8453 15.718 10.7292 15.84 10.7292 15.84L10.646 15.737C10.5801 15.6638 10.5909 15.5306 10.6598 15.4069L10.8813 15.0351L11.3542 15.1029L11.2806 14.9363C11.1818 14.7162 11.3321 14.436 11.3482 14.2748C11.3428 14.3235 11.2979 14.3343 11.2452 14.3343C11.1974 14.3343 11.1441 14.3254 11.1088 14.3254C11.095 14.3254 11.083 14.3265 11.0764 14.3313L10.9483 14.4086L10.8471 14.32C10.8352 14.3027 10.831 14.2629 10.8609 14.2331L11.095 13.9726L10.8184 13.6519L11.2057 13.8453L11.3237 13.7031C11.356 13.7346 11.3422 13.8173 11.3422 13.8173C11.4631 13.8203 11.802 14.0065 11.82 14.4407C11.8212 14.4538 11.8212 14.4687 11.8212 14.483C11.8212 14.483 11.8242 14.4883 11.8301 14.4973C11.8541 14.53 11.9199 14.6139 12.0037 14.6216L12.5389 14.674H12.5413C12.6 14.674 12.7167 14.6055 12.8664 14.6055C12.9478 14.6055 13.0388 14.6264 13.1358 14.687C13.1358 14.687 13.1843 14.649 13.2633 14.6448C13.2693 14.6442 13.2759 14.6442 13.2819 14.6442C13.5219 14.6442 13.6213 14.8596 13.75 15.0386C13.847 15.1748 13.9763 15.3771 13.9763 15.3771C13.9284 15.4336 13.8841 15.4646 13.8099 15.4646C13.7895 15.4646 13.7662 15.4628 13.741 15.458C13.4836 15.411 13.4465 14.8851 13.2998 14.8435C13.2921 14.8411 13.2837 14.8405 13.2765 14.8405C13.2292 14.8405 13.2082 14.8822 13.2082 14.8822C13.2753 15.0612 13.2364 15.1338 13.3082 15.2718C13.3621 15.3741 13.4579 15.4586 13.4974 15.4985C13.4974 15.4997 13.4866 15.577 13.4752 15.6353ZM10.6011 15.1332L10.6256 15.1945C10.6095 15.248 10.4239 15.3242 10.4239 15.3242L10.3838 15.2373C10.3413 15.1445 10.3503 14.988 10.4796 14.8923L10.7801 14.7102L11.0986 14.7775C11.0926 14.878 11.1531 14.953 11.1531 14.953L10.819 14.8893L10.6191 15.0267C10.5855 15.0499 10.5831 15.0934 10.6011 15.1332ZM13.5255 16.1368L13.6171 15.6621C13.6219 15.6341 13.6279 15.6014 13.6321 15.574C13.6579 15.5847 13.6854 15.5937 13.7153 15.599C13.7494 15.6055 13.7812 15.6085 13.8099 15.6085C13.95 15.6085 14.0314 15.5354 14.0859 15.4729L14.1565 15.3914L14.099 15.3022C14.0937 15.2932 13.9667 15.0934 13.8686 14.9565C13.8494 14.9297 13.8308 14.903 13.8123 14.8738C13.7009 14.7085 13.5614 14.5009 13.2819 14.5009L13.2567 14.5014C13.2107 14.5044 13.1711 14.5133 13.1394 14.5252C13.0514 14.4842 12.961 14.4634 12.867 14.4634C12.7515 14.4634 12.6539 14.4949 12.5892 14.5169C12.5707 14.5223 12.5539 14.5282 12.5407 14.5306L12.0181 14.4794C12.0115 14.4782 11.99 14.4657 11.9642 14.4348V14.4324L12.0774 14.3872C12.0457 14.013 11.6841 13.7828 11.4823 13.7049C11.4734 13.6674 11.4554 13.6299 11.4236 13.5996L11.3111 13.4937L11.2123 13.6115L11.1639 13.6715L10.4323 13.3729L10.9082 13.9666L10.7202 14.2492C10.6514 14.3218 10.7274 14.3944 10.7274 14.3944L10.9213 14.527L11.1225 14.4527C11.1297 14.4527 11.1357 14.4544 11.1423 14.455C11.1327 14.4854 11.1201 14.6044 11.1118 14.6377L10.7627 14.5692L10.3957 14.7751C10.2072 14.9125 10.1814 15.1403 10.2515 15.2962L10.2922 15.3848L10.3503 15.5098L10.4783 15.4568C10.4802 15.4562 10.482 15.4557 10.4831 15.4545C10.4371 15.6008 10.4556 15.74 10.5382 15.8316L10.6161 15.9292L10.7196 16.0595L10.8334 15.9381C10.8669 15.9048 10.9753 15.784 11.0088 15.6805L11.0333 15.6014L10.9776 15.5407L10.9687 15.53L11.0309 15.4277L11.4865 15.5342L11.5889 15.5574L11.6434 15.4681L11.6733 15.4193C11.6787 15.4092 11.6805 15.4075 11.7014 15.4075C11.7176 15.4075 11.7338 15.4092 11.7511 15.4128C11.9229 15.445 12.0816 15.461 12.2223 15.461C12.3587 15.461 12.4401 15.4557 12.5378 15.4235C12.5378 15.4235 12.7826 15.6995 12.791 15.7103L12.6413 16.1695L12.6347 16.1975C12.351 16.2201 12.2127 16.282 12.0457 16.448C11.8032 16.2088 11.6314 16.1838 10.9794 16.1838C10.1994 16.1838 9.67076 15.7293 9.67076 15.0035V13.2289H14.4193L14.4205 15.0035C14.4211 15.5925 14.0733 16.003 13.5255 16.1368ZM14.5522 10.3657C14.4798 10.5561 14.4193 10.7625 14.4193 10.9677L14.4199 12.292C14.1416 12.2456 14.1086 11.9475 14.1074 11.9344L14.102 11.8738L14.0422 11.8684C13.9212 11.8571 13.841 11.806 13.7734 11.7405C13.6369 11.6048 13.6363 11.3848 13.6369 11.383C13.6351 11.3943 13.4866 11.6007 13.659 11.8262C13.7315 11.9214 13.8362 11.9796 13.9721 12.0029C14.0039 12.1682 14.1278 12.4014 14.4199 12.4371V13.0856H13.5986C13.2196 12.8761 13.3801 12.5073 13.3878 12.4919L13.4202 12.4216L13.3477 12.3943C12.9377 12.2432 13.0502 11.8363 13.0562 11.8191L13.0729 11.7596L13.0173 11.7334C12.6784 11.5775 12.7245 11.1569 12.7287 11.1396C12.6246 11.2236 12.5869 11.3949 12.6587 11.5626C12.6198 11.6067 12.5677 11.6602 12.5108 11.7185C12.16 11.6298 12.1492 11.3092 12.1492 11.2943L12.1486 11.245L12.1025 11.2271C11.9654 11.1765 11.8714 11.101 11.8254 10.9993C11.7733 10.8868 11.7918 10.769 11.8062 10.7125C11.8463 10.7214 11.8864 10.728 11.9247 10.731C11.9642 10.7351 12.0049 10.7375 12.0457 10.7375H12.0481H12.0511C12.0918 10.7375 12.1319 10.7351 12.1714 10.731C12.3899 10.7096 12.6347 10.6161 12.8897 10.3651H14.5522V10.3657ZM13.2723 9.02716L13.5968 9.21458H13.6016L13.683 9.26158C13.4998 9.31213 13.3597 9.40316 13.2424 9.52272C13.2382 9.52631 13.234 9.53105 13.2298 9.53522C13.2029 9.56378 13.1759 9.59472 13.1508 9.62622C13.146 9.63219 13.1412 9.63872 13.1358 9.64528C13.1107 9.6774 13.0873 9.71014 13.0646 9.74464C13.061 9.75058 13.0568 9.75652 13.0526 9.76187C13.0257 9.80172 12.9999 9.84458 12.9742 9.88858C12.7431 10.2842 12.3743 10.5204 12.0462 10.521C11.7188 10.5204 11.35 10.2842 11.1189 9.88858C11.0938 9.84578 11.0686 9.80411 11.0417 9.76364C11.0363 9.75593 11.0315 9.74819 11.0267 9.74167C11.004 9.70893 10.9813 9.67681 10.9579 9.64646C10.9519 9.63814 10.9465 9.63161 10.9405 9.62446C10.9154 9.59411 10.8896 9.56378 10.8639 9.53581C10.8585 9.53166 10.8549 9.52631 10.8496 9.52152C10.7316 9.40196 10.5921 9.31152 10.4083 9.26158L10.4909 9.21458H10.4945L10.819 9.02716L11.1525 8.83743L12.0432 9.31925L12.0451 9.31749L12.0474 9.31925L12.9382 8.83743L13.2723 9.02716ZM12.8329 8.62798L12.1229 8.99978V7.49472L13.0861 7.1699L12.8329 8.62798ZM12.0457 7.32935L10.9896 6.91469C11.0794 6.7035 11.4937 6.52384 12.0457 6.52326C12.5982 6.52384 13.0125 6.7035 13.1017 6.91469L12.0457 7.32935Z" fill="black"/>
</g>
<defs>
<clipPath id="clip0_2111_80">
<rect width="24" height="24" fill="white"/>
</clipPath>
</defs>
</svg>
