<svg xmlns="http://www.w3.org/2000/svg" width="24" height="24" viewBox="0 0 24 24" fill="none"><rect width="24" height="24" fill="none"/>
<path d="M8.06369 21.2C16.0598 21.2 20.4333 14.1588 20.4333 8.05276C20.4333 7.85277 20.4333 7.65368 20.4205 7.45549C21.2714 6.80138 22.0058 5.99148 22.5895 5.06369C21.7961 5.43737 20.9544 5.68243 20.0925 5.79069C21.0001 5.21322 21.6793 4.30496 22.0038 3.23494C21.1504 3.77316 20.2168 4.15248 19.2433 4.35651C18.5878 3.61572 17.7209 3.12518 16.7767 2.96081C15.8325 2.79645 14.8637 2.96741 14.0201 3.44725C13.1765 3.92709 12.5053 4.68906 12.1102 5.61524C11.7151 6.54142 11.6182 7.58017 11.8346 8.57076C10.1061 8.47866 8.41526 8.00126 6.87169 7.16955C5.32811 6.33783 3.96636 5.17039 2.87481 3.74302C2.31888 4.76025 2.14861 5.96443 2.39867 7.1104C2.64873 8.25637 3.30032 9.25797 4.22077 9.91125C3.52892 9.88946 2.85216 9.69109 2.2476 9.33289C2.2476 9.35181 2.2476 9.37163 2.2476 9.39145C2.24788 10.4583 2.59533 11.4922 3.23103 12.3177C3.86674 13.1433 4.75155 13.7098 5.73539 13.921C5.09536 14.1065 4.42383 14.1336 3.7724 14.0003C4.0502 14.9184 4.59105 15.7213 5.31929 16.2967C6.04754 16.872 6.92676 17.1911 7.834 17.2092C6.29457 18.4951 4.39288 19.1932 2.43492 19.1911C2.08902 19.1904 1.74347 19.1681 1.40002 19.1244C3.38814 20.4804 5.70141 21.1997 8.06369 21.1964" fill="#000000"/>
</svg>
