<svg xmlns="http://www.w3.org/2000/svg" width="18" height="18" viewBox="0 0 18 18" fill="none"><rect width="18" height="18" fill="none"/>
<path d="M8.99948 14.9986C12.41 14.9986 15.1747 12.3126 15.1747 8.99931C15.1747 5.68597 12.41 3 8.99948 3C5.58905 3 2.82434 5.68597 2.82434 8.99931C2.82434 12.3126 5.58905 14.9986 8.99948 14.9986Z" fill="#FFC800"/>
<path fill-rule="evenodd" clip-rule="evenodd" d="M9.78137 3.44002C10.2065 4.15472 9.17894 5.50497 7.48543 6.45363C5.79193 7.40346 4.07567 7.5932 3.6505 6.87733C3.63254 6.84358 3.61577 6.80633 3.60379 6.76792C3.49361 6.43501 3.62535 6.00433 3.94273 5.55036C3.99423 5.47936 4.04693 5.40952 4.10082 5.34084C4.57989 4.7344 5.1871 4.20827 5.91049 3.80319C6.63389 3.39695 7.40638 3.15018 8.18604 3.05008C8.27707 3.03728 8.36571 3.02796 8.45196 3.02214C9.01482 2.9814 9.46395 3.08616 9.70589 3.34457C9.73464 3.37484 9.75978 3.40743 9.78137 3.44002ZM11.6564 13.4691C9.55922 14.6448 7.28485 14.8554 5.83208 14.1512C7.69206 15.2279 10.0802 15.3211 12.0875 14.1955C14.0948 13.0687 15.2062 11.0131 15.1763 8.9097C15.0781 10.4834 13.7523 12.2923 11.6564 13.4691ZM9.06255 9.10402C11.6519 7.65136 13.1502 5.46186 12.4076 4.21288C12.2854 4.00801 12.1154 3.83807 11.9058 3.70421C12.6592 4.09299 13.337 4.63774 13.8819 5.32218C13.9742 5.43625 14.0616 5.55614 14.1454 5.67836C14.367 6.05434 14.464 6.4792 14.4485 6.93084C14.3946 8.53016 12.9346 10.4659 10.6387 11.7545C8.34156 13.043 5.88515 13.3026 4.43238 12.5471C4.02038 12.333 3.68982 12.0373 3.46586 11.6613C3.46466 11.659 3.46317 11.6564 3.46167 11.6538C3.46017 11.6512 3.45867 11.6485 3.45748 11.6462C3.39759 11.5275 3.3413 11.4076 3.28981 11.2865C2.94368 10.4764 2.79517 9.62316 2.82751 8.78391C2.84068 9.03301 2.90655 9.26465 3.02991 9.47301C3.77126 10.722 6.4732 10.5567 9.06255 9.10402ZM12.4088 4.21521L12.4076 4.21288C12.4076 4.21288 12.4088 4.21404 12.4088 4.21521Z" fill="black"/>
<path d="M8.99948 14.9986C12.41 14.9986 15.1747 12.3126 15.1747 8.99931C15.1747 5.68597 12.41 3 8.99948 3C5.58905 3 2.82434 5.68597 2.82434 8.99931C2.82434 12.3126 5.58905 14.9986 8.99948 14.9986Z" fill="url(#paint0_radial_103_50)"/>
<defs>
<radialGradient id="paint0_radial_103_50" cx="0" cy="0" r="1" gradientUnits="userSpaceOnUse" gradientTransform="translate(8.99983 8.99936) scale(6.175 6.00151)">
<stop offset="0.5" stop-color="white" stop-opacity="0"/>
<stop offset="1" stop-color="white" stop-opacity="0.35"/>
</radialGradient>
</defs>
</svg>
