<svg xmlns="http://www.w3.org/2000/svg" width="59" height="24" viewBox="0 0 59 24" fill="none"><rect width="59" height="24" fill="none"/>
<path d="M46.3701 3.5C48.5919 3.5 50.4751 4.81089 51.1263 6.62429L56.1894 20.4995L52.2618 20.4997L47.5798 7.68218C47.4195 7.21572 46.9385 6.87703 46.3701 6.87703C45.8016 6.87703 45.3207 7.21577 45.1603 7.68227L40.4872 20.4997L36.5543 20.4995L41.6138 6.62439C42.265 4.81094 44.1483 3.5 46.3701 3.5Z" fill="#EF3124"/>
<path d="M17.3353 4.09738H7.45088C4.44044 4.09738 2 6.31129 2 9.04229C2 11.7733 4.44044 13.9872 7.45088 13.9872H12.7632C13.7177 13.9872 14.4915 14.6892 14.4915 15.5551C14.4915 16.421 13.7177 17.123 12.7632 17.123H2.8672L2.8672 20.5H12.7632C15.7736 20.5 18.2141 18.2861 18.2141 15.5551C18.2141 12.8241 15.7736 10.6102 12.7632 10.6102H7.45088C6.49635 10.6102 5.72255 9.90821 5.72255 9.04229C5.72255 8.17636 6.49635 7.47439 7.45088 7.47439H17.3353L17.3353 4.09738Z" fill="#EF3124"/>
<path d="M20.6231 9.0019L20.6231 20.4999H24.3446L24.3446 13.9594H35.2311L36.458 10.5787H24.3446L24.344 9.0019C24.344 8.15172 25.1028 7.46251 26.0387 7.46251L37.6023 7.46251L38.8653 4.08189H26.0387C23.0474 4.08189 20.6231 6.28465 20.6231 9.0019Z" fill="#EF3124"/>
</svg>
