<svg xmlns="http://www.w3.org/2000/svg" width="16" height="16" viewBox="0 0 16 16" fill="none"><rect width="16" height="16" fill="none"/>
<g clip-path="url(#clip0_1607_55)">
<circle cx="8" cy="8" r="8" fill="#E63946"/>
<path d="M11.5365 4.46348C10.5927 3.51966 9.33708 3 8 3C6.66292 3 5.41011 3.51966 4.46348 4.46348C3.51966 5.4073 3 6.66292 3 8C3 9.33427 3.51966 10.5899 4.46348 11.5365C5.4073 12.4803 6.66292 13 8 13C9.33708 13 10.5899 12.4803 11.5365 11.5365C12.4803 10.5927 13 9.33708 13 8C13 6.66292 12.4803 5.4073 11.5365 4.46348ZM5.47472 4.35112V7.54494H3.58708C3.72191 6.22191 4.4382 5.07022 5.47472 4.35112ZM5.47472 9.36517H3.77809C3.68258 9.07303 3.61798 8.76966 3.58708 8.45506H5.47472V9.36517ZM4.19101 10.2781H5.47472V11.6489C4.95506 11.2893 4.51685 10.8202 4.19101 10.2781ZM8 12.4354C7.42977 12.4354 6.88483 12.3287 6.38483 12.132V10.2753H8.45787V9.36517H6.38483V8.45506L7.61236 8.45787C9.63764 8.45787 10.5028 7.42135 10.5028 6.16292C10.5028 4.94663 9.79494 3.88764 7.61236 3.88764L6.30337 3.89888C6.82584 3.68258 7.39888 3.56461 7.99719 3.56461C10.4466 3.56461 12.4354 5.55056 12.4354 8.00281C12.4354 10.4551 10.4522 12.4354 8 12.4354ZM6.38764 7.54494V4.8118L7.67135 4.80337C8.92135 4.80337 9.47191 5.31742 9.47191 6.19663C9.47191 7.08427 8.8427 7.54775 7.5927 7.54775L6.38764 7.54494Z" fill="white"/>
</g>
<defs>
<clipPath id="clip0_1607_55">
<rect width="16" height="16" fill="white"/>
</clipPath>
</defs>
</svg>
