<svg xmlns="http://www.w3.org/2000/svg" width="37" height="12" viewBox="0 0 37 12" fill="none"><rect width="37" height="12" fill="none"/>
<path d="M28.5407 1C29.8476 1 30.9555 1.77111 31.3385 2.83782L34.3168 10.9997L32.0064 10.9998L29.2523 3.46011C29.158 3.18572 28.8751 2.98649 28.5407 2.98649C28.2063 2.98649 27.9234 3.18575 27.8291 3.46016L25.0802 10.9998L22.7668 10.9997L25.7429 2.83787C26.1259 1.77114 27.2338 1 28.5407 1Z" fill="#EF3124"/>
<path d="M11.4614 1.3514H5.64708C3.87623 1.3514 2.44067 2.6537 2.44067 4.26017C2.44067 5.86664 3.87623 7.16894 5.64708 7.16894H8.77195C9.33344 7.16894 9.78861 7.58186 9.78861 8.09123C9.78861 8.6006 9.33344 9.01352 8.77195 9.01352H2.95079L2.95079 11H8.77195C10.5428 11 11.9784 9.6977 11.9784 8.09123C11.9784 6.48476 10.5428 5.18246 8.77195 5.18246H5.64708C5.08559 5.18246 4.63041 4.76954 4.63041 4.26017C4.63041 3.7508 5.08559 3.33788 5.64708 3.33788H11.4614L11.4614 1.3514Z" fill="#EF3124"/>
<path d="M13.3954 4.23641L13.3954 10.9999H15.5846L15.5846 7.15256H21.9884L22.7101 5.16397H15.5846L15.5842 4.23641C15.5842 3.73631 16.0305 3.33089 16.5811 3.33089L23.3832 3.33089L24.1262 1.34229H16.5811C14.8215 1.34229 13.3954 2.63803 13.3954 4.23641Z" fill="#EF3124"/>
</svg>
