<svg xmlns="http://www.w3.org/2000/svg" width="52" height="24" viewBox="0 0 52 24" fill="none"><rect width="52" height="24" fill="none"/>
<path d="M27.3217 4.2569H20.9779V17.7737H23.5785V12.4919H27.3217C30.2329 12.4919 31.931 10.9832 31.931 8.35588C31.931 5.72858 30.2887 4.2569 27.3217 4.2569ZM23.5785 6.63234H27.1713C28.5468 6.63234 29.2455 7.21508 29.2455 8.36082C29.2455 9.46212 28.4886 10.0893 27.1713 10.0893H23.5785V6.63234Z" fill="#000000"/>
<path d="M41.1627 14.9584V11.7878C41.1627 9.31856 39.547 7.86169 36.8397 7.86169C35.5272 7.86169 34.4283 8.26665 33.6641 9.03212C33.1742 9.50501 32.8446 10.1241 32.7228 10.8001V10.8668H35.1827L35.1973 10.8298C35.2604 10.6767 35.6388 9.90625 36.8954 9.90625C38.0332 9.90625 38.7731 10.6125 38.7828 11.7088H36.0439C33.7684 11.7088 32.4632 12.7978 32.4632 14.6942C32.4632 16.6696 33.9455 17.9808 36.1555 17.9808C37.7906 17.9808 38.613 17.0992 38.9381 16.6227C39.2268 17.3931 39.9764 17.8301 41.0123 17.8301H41.8128V15.7683H41.7595C41.3374 15.7164 41.1627 15.4818 41.1627 14.9584ZM36.7111 16.0695C35.6145 16.0695 34.9353 15.5288 34.9353 14.6571C34.9353 13.9163 35.4884 13.4916 36.4151 13.4916H38.7659V14.4299C38.7659 15.3658 37.8804 16.0695 36.7111 16.0695Z" fill="#000000"/>
<path d="M48.9891 8.09643L46.6627 14.3239L44.3168 8.09643H41.5657L45.4181 17.6327L43.8728 21.6972H46.3643L51.5 8.09643H48.9891Z" fill="#000000"/>
<path d="M7.21171 10.6015L8.11363 7.91987H8.1474L8.99867 10.6015H7.21171Z" fill="#000000"/>
<path fill-rule="evenodd" clip-rule="evenodd" d="M12.5602 3.70953H3.70014C1.93275 3.70953 0.5 5.14229 0.5 6.90968V15.7698C0.5 17.5371 1.93275 18.9699 3.70014 18.9699H12.5602C14.3276 18.9699 15.7604 17.5371 15.7604 15.7698V6.90968C15.7604 5.14229 14.3276 3.70953 12.5602 3.70953ZM9.30012 7.4255C9.11684 6.87808 8.90462 6.44641 8.18115 6.44641C7.45768 6.44641 7.231 6.87567 7.03807 7.4255L5.04853 13.0878H6.37731L6.83551 11.7422H9.36765L9.79207 13.0878H11.2004L9.30012 7.4255ZM4.91563 14.8973H11.3449V16.2333H4.91563V14.8973Z" fill="#000000"/>
</svg>
