<svg xmlns="http://www.w3.org/2000/svg" width="24" height="24" viewBox="0 0 24 24" fill="none"><rect width="24" height="24" fill="none"/>
<path fill-rule="evenodd" clip-rule="evenodd" d="M22.3399 11.1684C22.3063 10.943 22.152 10.8165 21.9548 10.7419C21.6163 10.6136 21.2661 10.6066 20.9121 10.6369C20.585 10.6648 20.2687 10.7333 19.9637 10.8992C19.9072 10.5758 19.8528 10.2658 19.7978 9.95226C20.0661 9.81437 20.3355 9.73757 20.6123 9.68586C21.2044 9.57568 21.7978 9.55844 22.3846 9.71182C23.0034 9.87371 23.4379 10.2433 23.5579 10.9232C23.5874 11.0912 23.5862 11.3453 23.5862 11.3453V12.8726C23.5862 12.9389 23.5941 13.0808 23.598 13.1469C23.6199 13.4999 23.6506 13.5344 24 13.5878V14.3146C23.6551 14.4045 23.3009 14.4518 22.9502 14.2812C22.753 14.1854 22.6622 14.008 22.619 13.7986C22.6134 13.7711 22.6107 13.743 22.6074 13.7092V13.7091V13.7085C22.6057 13.691 22.6039 13.6719 22.6014 13.6507C22.1781 14.2788 21.5723 14.4331 20.9065 14.3944C20.1605 14.3512 19.5878 13.8341 19.4822 13.2241C19.3107 12.2314 19.7959 11.4898 20.7641 11.3401C21.3763 11.2454 21.5518 11.2856 22.3432 11.5635C22.3432 11.5215 22.3448 11.4796 22.3463 11.4379C22.3496 11.3465 22.3529 11.2562 22.3399 11.1684ZM22.319 12.4308C22.1158 12.2866 21.8849 12.2109 21.6434 12.1792C21.3925 12.1463 21.1448 12.1635 20.9319 12.3333C20.7366 12.4891 20.6628 12.7365 20.7343 12.9915C20.7892 13.1877 20.9828 13.3413 21.211 13.3635C21.431 13.3853 21.6443 13.3509 21.8474 13.2616C22.212 13.1013 22.3548 12.8482 22.319 12.4308ZM6.95195 14.3999C6.31885 14.4038 5.74968 14.2138 5.27733 13.7833C4.75347 13.3059 4.54657 12.6845 4.55174 11.9803C4.5563 11.396 4.70857 10.8645 5.0903 10.4155C5.43271 10.0129 5.86843 9.77335 6.37699 9.66448C7.01568 9.52768 7.63037 9.60448 8.19602 9.93349C8.9094 10.3487 9.26175 10.9991 9.30519 11.8271C9.34347 12.5554 9.17257 13.2115 8.64312 13.7349C8.17326 14.1994 7.59706 14.3929 6.95195 14.3999ZM6.96726 10.7774C6.43099 10.7909 6.05464 11.0848 5.91085 11.5688C5.8225 11.867 5.82809 12.1629 5.91623 12.4611C6.0443 12.8942 6.32795 13.1602 6.75995 13.2296C7.19754 13.2996 7.57347 13.1515 7.81264 12.76C8.08471 12.3143 8.08988 11.8382 7.87285 11.3667C7.68706 10.9629 7.35602 10.7822 6.96726 10.7774ZM15.931 12.4364H16.5517L16.6531 12.4604L16.7961 12.7283L16.7983 12.7325C17.0968 13.2917 17.395 13.8505 17.6882 14.4H19.0345C19.0204 14.3636 19.0083 14.3292 18.9968 14.2967C18.9741 14.232 18.9539 14.1745 18.9252 14.1225C18.6949 13.7045 18.463 13.2878 18.2312 12.871L18.2296 12.8682L18.2285 12.8663C18.1018 12.6384 17.975 12.4106 17.8486 12.1826C17.8266 12.1434 17.8068 12.1027 17.7855 12.0587L17.7854 12.0586C17.7757 12.0385 17.7656 12.0177 17.7548 11.9961C18.629 11.4548 18.8106 10.5862 18.7854 9.6H17.5862C17.5862 9.98691 17.5257 10.2145 17.4546 10.4819V10.4819L17.4545 10.4821C17.4455 10.5162 17.4362 10.551 17.4269 10.5868C17.3332 10.9484 17.1002 11.1899 16.7673 11.3123C16.5829 11.38 16.3858 11.3679 16.1838 11.3554C16.1002 11.3503 16.0158 11.3451 15.931 11.3455V9.6H14.6897V14.3959L15.931 14.4V12.4364ZM12.634 9.6H13.8622V14.4H12.622V12.8607C12.5488 12.8786 12.4776 12.8978 12.4076 12.9168C12.2593 12.9569 12.1163 12.9955 11.9711 13.0163C11.4082 13.0966 10.8721 13.0235 10.413 12.614C10.058 12.2972 9.85003 11.8724 9.78714 11.3904C9.74441 11.0636 9.74084 10.6344 9.73721 10.2032V10.2032C9.73552 9.9995 9.7338 9.79533 9.72797 9.60131L10.9656 9.6V9.81818V10.9091C10.9656 11.4229 11.3949 11.8283 11.8623 11.8355C12.1509 11.8399 12.3193 11.7657 12.6193 11.5649L12.634 9.6ZM1.44828 14.4H2.68966V10.9091H4.13793V9.6H0V10.9091H1.44828V14.4Z" fill="#231F20"/>
</svg>
