<svg xmlns="http://www.w3.org/2000/svg" width="79" height="32" viewBox="0 0 79 32" fill="none"><rect width="79" height="32" fill="none"/>
<path d="M7.77375 2H23.7576C26.9465 2 29.5314 4.629 29.5314 7.87199V24.1279C29.5314 27.3708 26.9465 29.9999 23.7576 29.9999H7.77375C4.58503 29.9999 2 27.3708 2 24.1279V7.87199C2 4.629 4.58503 2 7.77375 2Z" fill="#EF3124"/>
<path fill-rule="evenodd" clip-rule="evenodd" d="M44.7356 6.80266H36.2624V24.7812H39.7381V17.7541H44.7356C48.6412 17.7541 50.8813 15.7491 50.8813 12.2532C50.8813 8.7383 48.6987 6.80266 44.7356 6.80266ZM39.7381 9.97404H44.5374C46.3748 9.97404 47.3064 10.7493 47.3064 12.2783C47.3064 13.7429 46.2972 14.5827 44.5374 14.5827H39.7381V9.97404Z" fill="#EF3124"/>
<path d="M70.5734 20.1933L73.6815 11.9094H77.0332L70.1736 30H66.8467L68.91 24.5936L63.7641 11.9094H67.4411L70.5734 20.1933Z" fill="#EF3124"/>
<path fill-rule="evenodd" clip-rule="evenodd" d="M63.2234 21.038V16.8218C63.2234 13.5502 61.065 11.597 57.4493 11.597C55.6936 11.597 54.2262 12.1355 53.2061 13.154C52.3883 13.9705 52.0174 14.9318 51.9481 15.5071L51.9373 15.5965H55.2237L55.2438 15.5475C55.3284 15.3419 55.8342 14.3167 57.4989 14.3167C59.0202 14.3167 60.0068 15.2577 60.0201 16.7167H56.3845C53.3444 16.7167 51.6009 18.1637 51.6009 20.6866C51.6009 23.3014 53.5829 25.058 56.5332 25.058C58.7172 25.058 59.8154 23.8859 60.2501 23.2501C60.6373 24.2741 61.637 24.8574 63.0209 24.8574H64.0902V22.1216L64.0208 22.1132C63.4545 22.0443 63.2234 21.7327 63.2234 21.038ZM57.276 22.5141C55.8124 22.5141 54.9033 21.7946 54.9033 20.6364C54.9033 19.6651 55.6421 19.0851 56.8798 19.0851H60.0201V20.3353C60.0201 21.5773 58.8404 22.5141 57.276 22.5141Z" fill="#EF3124"/>
<path fill-rule="evenodd" clip-rule="evenodd" d="M21.586 24.9784H9.94562V22.527H21.586V24.9784ZM13.7895 8.81746C14.1388 7.81116 14.5459 7.02197 15.8566 7.02197C17.1673 7.02197 17.5499 7.81438 17.8816 8.81746L21.3139 19.1938H18.7743L18.0032 16.7272H13.4077L12.5762 19.1938H10.1878L13.7895 8.81746ZM15.7937 9.72511H15.7333L14.1005 14.6433H17.3357L15.7937 9.72511Z" fill="white"/>
</svg>
