<svg xmlns="http://www.w3.org/2000/svg" width="24" height="24" viewBox="0 0 24 24" fill="none"><rect width="24" height="24" fill="none"/>
<path fill-rule="evenodd" clip-rule="evenodd" d="M13.265 2.98035C13.9533 4.13741 12.2897 6.32339 9.54796 7.85924C6.80626 9.39697 4.02773 9.70413 3.3394 8.54519C3.31031 8.49054 3.28316 8.43023 3.26377 8.36804C3.08539 7.82909 3.29867 7.13183 3.8125 6.39689C3.89588 6.28193 3.98119 6.16887 4.06844 6.05768C4.84403 5.07588 5.82708 4.2241 6.99821 3.5683C8.16935 2.91062 9.41998 2.51112 10.6822 2.34905C10.8296 2.32832 10.9731 2.31325 11.1127 2.30382C12.024 2.23787 12.7511 2.40747 13.1428 2.82582C13.1893 2.87482 13.23 2.92758 13.265 2.98035ZM16.3005 19.2169C12.9053 21.1202 9.22325 21.4613 6.87129 20.3212C9.8825 22.0643 13.7488 22.2151 16.9985 20.3928C20.2482 18.5686 22.0476 15.2406 21.999 11.8354C21.8401 14.3832 19.6937 17.3117 16.3005 19.2169ZM12.1012 12.15C16.2932 9.79824 18.7189 6.25355 17.5167 4.23151C17.319 3.89984 17.0436 3.62471 16.7043 3.408C17.924 4.03741 19.0214 4.91934 19.9036 6.02741C20.0529 6.21209 20.1945 6.40619 20.3302 6.60406C20.6889 7.21275 20.8459 7.90058 20.8208 8.63175C20.7335 11.221 18.3699 14.3549 14.6529 16.441C10.934 18.5271 6.95718 18.9473 4.60521 17.7243C3.93821 17.3776 3.40305 16.8989 3.04047 16.2902C3.03853 16.2864 3.03611 16.2822 3.03368 16.278C3.03126 16.2737 3.02883 16.2695 3.02689 16.2657C2.92995 16.0735 2.83881 15.8794 2.75544 15.6834C2.19508 14.3718 1.95465 12.9905 2.007 11.6318C2.02833 12.0351 2.13497 12.4101 2.33469 12.7474C3.5349 14.7694 7.9092 14.5018 12.1012 12.15ZM17.5187 4.23528L17.5167 4.23151C17.5167 4.23151 17.5187 4.2334 17.5187 4.23528Z" fill="#000000"/>
</svg>
