<svg xmlns="http://www.w3.org/2000/svg" width="24" height="24" viewBox="0 0 24 24" fill="none"><rect width="24" height="24" fill="none"/>
<path d="M18.9372 4.92697C17.0495 3.03933 14.5383 2 11.8641 2C9.18998 2 6.68436 3.03933 4.7911 4.92697C2.90346 6.81461 1.86414 9.32584 1.86414 12C1.86414 14.6685 2.90346 17.1798 4.7911 19.073C6.67874 20.9607 9.18998 22 11.8641 22C14.5383 22 17.0439 20.9607 18.9372 19.073C20.8248 17.1854 21.8641 14.6742 21.8641 12C21.8641 9.32584 20.8248 6.81461 18.9372 4.92697ZM6.81357 4.70225V11.0899H3.03829C3.30796 8.44382 4.74054 6.14045 6.81357 4.70225ZM6.81357 14.7303H3.42032C3.2293 14.1461 3.10009 13.5393 3.03829 12.9101H6.81357V14.7303ZM4.24616 16.5562H6.81357V19.2978C5.77425 18.5787 4.89784 17.6404 4.24616 16.5562ZM11.8641 20.8708C10.7237 20.8708 9.6338 20.6573 8.6338 20.264V16.5506H12.7799V14.7303H8.6338V12.9101L11.0889 12.9157C15.1394 12.9157 16.8698 10.8427 16.8698 8.32584C16.8698 5.89326 15.454 3.77528 11.0889 3.77528L8.47088 3.79775C9.51582 3.36517 10.6619 3.12921 11.8585 3.12921C16.7574 3.12921 20.7349 7.10112 20.7349 12.0056C20.7349 16.9101 16.7686 20.8708 11.8641 20.8708ZM8.63942 11.0899V5.6236L11.2068 5.60674C13.7068 5.60674 14.808 6.63483 14.808 8.39326C14.808 10.1685 13.5495 11.0955 11.0495 11.0955L8.63942 11.0899Z" fill="black"/>
</svg>
