<svg xmlns="http://www.w3.org/2000/svg" width="79" height="32" viewBox="0 0 79 32" fill="none"><rect width="79" height="32" fill="none"/>
<path d="M15.7333 9.7251H15.7937L17.3357 14.6433H14.1006L15.7333 9.7251Z" fill="#000000"/>
<path fill-rule="evenodd" clip-rule="evenodd" d="M7.77375 2H23.7576C26.9465 2 29.5314 4.629 29.5314 7.87199V24.1279C29.5314 27.3709 26.9465 29.9999 23.7576 29.9999H7.77375C4.58503 29.9999 2 27.3709 2 24.1279V7.87199C2 4.629 4.58503 2 7.77375 2ZM9.94564 24.9784H21.586V22.527H9.94564V24.9784ZM15.8566 7.02197C14.5459 7.02197 14.1389 7.81115 13.7895 8.81745L10.1878 19.1938H12.5762L13.4077 16.7272H18.0033L18.7743 19.1938H21.3139L17.8816 8.81745C17.5499 7.81437 17.1674 7.02197 15.8566 7.02197Z" fill="#000000"/>
<path fill-rule="evenodd" clip-rule="evenodd" d="M36.2624 6.80266H44.7356C48.6987 6.80266 50.8813 8.7383 50.8813 12.2532C50.8813 15.7491 48.6412 17.7541 44.7356 17.7541H39.7381V24.7812H36.2624V6.80266ZM44.5374 9.97404H39.7381V14.5827H44.5374C46.2972 14.5827 47.3064 13.7429 47.3064 12.2783C47.3064 10.7493 46.3748 9.97404 44.5374 9.97404Z" fill="#000000"/>
<path d="M70.5734 20.1933L73.6815 11.9094H77.0332L70.1736 30H66.8467L68.91 24.5936L63.7641 11.9094H67.4411L70.5734 20.1933Z" fill="#000000"/>
<path fill-rule="evenodd" clip-rule="evenodd" d="M63.2234 16.8218V21.038C63.2234 21.7327 63.4545 22.0443 64.0208 22.1132L64.0902 22.1216V24.8574H63.0209C61.637 24.8574 60.6373 24.2741 60.2501 23.2501C59.8154 23.8859 58.7172 25.058 56.5332 25.058C53.5829 25.058 51.6009 23.3014 51.6009 20.6866C51.6009 18.1637 53.3444 16.7167 56.3845 16.7167H60.0201C60.0068 15.2577 59.0202 14.3167 57.4989 14.3167C55.8343 14.3167 55.3284 15.3419 55.2438 15.5475L55.2237 15.5965H51.9373L51.9481 15.5071C52.0174 14.9318 52.3883 13.9705 53.2061 13.154C54.2262 12.1355 55.6935 11.597 57.4493 11.597C61.065 11.597 63.2234 13.5502 63.2234 16.8218ZM54.9033 20.6364C54.9033 21.7946 55.8124 22.5141 57.276 22.5141C58.8404 22.5141 60.0201 21.5773 60.0201 20.3353V19.0851H56.8798C55.6421 19.0851 54.9033 19.6651 54.9033 20.6364Z" fill="#000000"/>
</svg>
