<svg xmlns="http://www.w3.org/2000/svg" width="70" height="32" viewBox="0 0 70 32" fill="none"><rect width="70" height="32" fill="none"/>
<path d="M12.7524 10.1733H12.8085L14.2403 14.7402H11.2362L12.7524 10.1733Z" fill="#000000"/>
<path fill-rule="evenodd" clip-rule="evenodd" d="M5.36134 3H20.2035C23.1646 3 25.5648 5.44122 25.5648 8.45256V23.5473C25.5648 26.5586 23.1646 28.9999 20.2035 28.9999H5.36134C2.40038 28.9999 0 26.5586 0 23.5473V8.45256C0 5.44122 2.40038 3 5.36134 3ZM7.3781 24.3371H18.187V22.0608H7.3781V24.3371ZM12.8669 7.66325C11.6498 7.66325 11.2718 8.39607 10.9474 9.33049L7.60297 18.9657H9.82074L10.5929 16.6752H14.8602L15.5761 18.9657H17.9344L14.7473 9.33049C14.4392 8.39906 14.084 7.66325 12.8669 7.66325Z" fill="#000000"/>
<path fill-rule="evenodd" clip-rule="evenodd" d="M31.8151 7.45961H39.6831C43.3631 7.45961 45.3898 9.25699 45.3898 12.5208C45.3898 15.7671 43.3097 17.6288 39.6831 17.6288H35.0426V24.1539H31.8151V7.45961ZM39.4991 10.4045H35.0426V14.6839H39.4991C41.1331 14.6839 42.0703 13.9041 42.0703 12.5441C42.0703 11.1243 41.2052 10.4045 39.4991 10.4045Z" fill="#000000"/>
<path d="M63.6754 19.8937L66.5614 12.2016H69.6738L63.3042 29H60.2148L62.1308 23.9798L57.3524 12.2016H60.7668L63.6754 19.8937Z" fill="#000000"/>
<path fill-rule="evenodd" clip-rule="evenodd" d="M56.8504 16.7631V20.6782C56.8504 21.3232 57.0649 21.6125 57.5908 21.6765L57.6553 21.6844V24.2247H56.6624C55.3772 24.2247 54.4489 23.6831 54.0894 22.7322C53.6858 23.3226 52.666 24.411 50.638 24.411C47.8985 24.411 46.058 22.7798 46.058 20.3519C46.058 18.0092 47.677 16.6655 50.5 16.6655H53.8758C53.8635 15.3107 52.9474 14.437 51.5347 14.437C49.989 14.437 49.5192 15.3889 49.4408 15.5798L49.422 15.6253H46.3704L46.3805 15.5423C46.4448 15.0081 46.7892 14.1155 47.5486 13.3573C48.4958 12.4115 49.8583 11.9115 51.4887 11.9115C54.8461 11.9115 56.8504 13.7252 56.8504 16.7631ZM49.1245 20.3052C49.1245 21.3807 49.9687 22.0488 51.3278 22.0488C52.7804 22.0488 53.8758 21.179 53.8758 20.0256V18.8647H50.9599C49.8106 18.8647 49.1245 19.4033 49.1245 20.3052Z" fill="#000000"/>
</svg>
