<svg xmlns="http://www.w3.org/2000/svg" width="24" height="24" viewBox="0 0 24 24" fill="none"><rect width="24" height="24" fill="none"/>
<path fill-rule="evenodd" clip-rule="evenodd" d="M9.76824 2.96457C10.152 2.67118 10.5926 2.461 11.0621 2.34744C11.5316 2.23387 12.0197 2.2194 12.4951 2.30496C12.9705 2.39052 13.4228 2.57421 13.8233 2.84434C14.2238 3.11448 14.5635 3.4651 14.8208 3.87387C15.1388 4.38099 15.3276 4.95822 15.3711 5.55517C15.4146 6.15211 15.3113 6.75064 15.0702 7.29846C14.8455 7.7781 14.5292 8.20909 14.1389 8.5671L11.8802 10.8624C11.0442 10.0264 10.2156 9.17575 9.38691 8.33244C9.03299 7.96801 8.76002 7.53295 8.58585 7.05573C8.41169 6.5785 8.34026 6.06988 8.37626 5.56315C8.41226 5.05642 8.55486 4.56301 8.79474 4.1152C9.03461 3.66739 9.36635 3.27529 9.76824 2.96457Z" fill="#000000"/>
<path fill-rule="evenodd" clip-rule="evenodd" d="M9.40904 15.4089L11.873 12.8935C12.7603 13.7955 13.6623 14.6829 14.5277 15.6069C15.0788 16.2603 15.381 17.0875 15.381 17.9424C15.381 18.7972 15.0788 19.6246 14.5277 20.278C14.0054 20.8915 13.2866 21.3051 12.4937 21.4482C11.7008 21.5913 10.8828 21.4551 10.179 21.0627C9.67424 20.7772 9.24675 20.3728 8.93366 19.8847C8.62056 19.3965 8.43134 18.8392 8.38239 18.2614C8.33681 17.74 8.405 17.2149 8.58225 16.7223C8.75951 16.2298 9.0416 15.7816 9.40904 15.4089Z" fill="#000000"/>
<path fill-rule="evenodd" clip-rule="evenodd" d="M2.98623 9.87996C3.29783 9.40965 3.71879 9.02185 4.21304 8.74981C4.7073 8.47779 5.26011 8.32962 5.82417 8.31799C6.29304 8.30682 6.75926 8.39146 7.19427 8.56674C7.6293 8.742 8.02397 9.0042 8.35413 9.33729L10.8621 11.8819C9.96743 12.7839 9.09477 13.7005 8.18546 14.5806C7.53933 15.145 6.70757 15.4513 5.84961 15.4405C4.99166 15.4296 4.1679 15.1026 3.53622 14.5218C2.91876 13.933 2.52602 13.1472 2.42562 12.2999C2.32523 11.4526 2.52348 10.5968 2.98623 9.87996Z" fill="#000000"/>
<path fill-rule="evenodd" clip-rule="evenodd" d="M15.3935 9.32227C15.7812 8.93908 16.2533 8.65222 16.772 8.48475C17.2908 8.31729 17.8415 8.27389 18.3801 8.35806C18.9186 8.44224 19.43 8.65161 19.8728 8.96937C20.3157 9.28713 20.6778 9.70437 20.9301 10.1876C21.3321 10.9538 21.4467 11.8386 21.2531 12.682C21.0594 13.5253 20.5703 14.2716 19.8741 14.7855C19.2227 15.2556 18.4289 15.486 17.6271 15.438C16.8252 15.3898 16.0646 15.0661 15.4742 14.5215C14.5941 13.6561 13.7435 12.7615 12.8709 11.8889C13.7142 11.0236 14.5502 10.1729 15.3935 9.32227Z" fill="#000000"/>
</svg>
