<svg xmlns="http://www.w3.org/2000/svg" width="58" height="24" viewBox="0 0 58 24" fill="none"><rect width="58" height="24" fill="none"/>
<path d="M11.8066 7.51793H11.8497L12.9508 11.0309H10.6407L11.8066 7.51793Z" fill="#000000"/>
<path fill-rule="evenodd" clip-rule="evenodd" d="M6.12288 2H17.5365C19.8136 2 21.6594 3.87786 21.6594 6.19428V17.8056C21.6594 20.122 19.8136 21.9999 17.5365 21.9999H6.12288C3.8459 21.9999 2 20.122 2 17.8056V6.19428C2 3.87786 3.8459 2 6.12288 2ZM7.67377 18.4132H15.9859V16.6622H7.67377V18.4132ZM11.8947 5.58712C10.9587 5.58712 10.668 6.15082 10.4186 6.86961L7.84669 14.2813H9.55216L10.146 12.5194H13.4275L13.9781 14.2813H15.7916L13.3407 6.86961C13.1038 6.15312 12.8306 5.58712 11.8947 5.58712Z" fill="#000000"/>
<path fill-rule="evenodd" clip-rule="evenodd" d="M26.4658 5.43047H32.5164C35.3463 5.43047 36.9048 6.81307 36.9048 9.3237C36.9048 11.8208 35.3053 13.2529 32.5164 13.2529H28.9478V18.2723H26.4658V5.43047ZM32.3748 7.69574H28.9478V10.9876H32.3748C33.6314 10.9876 34.3521 10.3878 34.3521 9.34164C34.3521 8.24948 33.6869 7.69574 32.3748 7.69574Z" fill="#000000"/>
<path d="M50.9664 14.9952L53.1858 9.07812H55.5792L50.681 22H48.3053L49.7786 18.1383L46.1041 9.07812H48.7297L50.9664 14.9952Z" fill="#000000"/>
<path fill-rule="evenodd" clip-rule="evenodd" d="M45.718 12.587V15.5986C45.718 16.0948 45.883 16.3173 46.2874 16.3665L46.337 16.3726V18.3267H45.5734C44.5852 18.3267 43.8713 17.9101 43.5948 17.1786C43.2844 17.6328 42.5002 18.47 40.9407 18.47C38.834 18.47 37.4187 17.2153 37.4187 15.3476C37.4187 13.5455 38.6637 12.512 40.8345 12.512H43.4306C43.4211 11.4698 42.7166 10.7977 41.6303 10.7977C40.4416 10.7977 40.0804 11.5299 40.02 11.6768L40.0056 11.7118H37.6589L37.6666 11.6479C37.7161 11.237 37.9809 10.5504 38.5649 9.96718C39.2934 9.23962 40.3411 8.85498 41.5949 8.85498C44.1767 8.85498 45.718 10.2501 45.718 12.587ZM39.7768 15.3117C39.7768 16.139 40.426 16.653 41.4711 16.653C42.5882 16.653 43.4306 15.9838 43.4306 15.0966V14.2036H41.1882C40.3044 14.2036 39.7768 14.6179 39.7768 15.3117Z" fill="#000000"/>
</svg>
