<svg xmlns="http://www.w3.org/2000/svg" width="24" height="24" viewBox="0 0 24 24" fill="none"><rect width="24" height="24" fill="none"/>
<g clip-path="url(#clip0_458_36)">
<path d="M22.8006 7.96125C22.7062 6.72442 21.7621 5.13874 20.8181 4.3776C19.7564 3.59867 18.6534 2.87875 17.5139 2.22107C16.3829 1.54553 15.2169 0.931522 14.0208 0.381675C13.3819 0.119012 12.6968 -0.0104481 12.0069 0.001112C11.3167 -0.0135024 10.631 0.116073 9.9929 0.381675C8.79699 0.931913 7.631 1.54591 6.49989 2.22107C4.67472 3.33105 3.19569 4.3776 3.19569 4.3776C2.70558 4.79096 2.29048 5.27925 1.96279 5.82034C1.92521 5.8824 1.97055 5.96059 2.0431 5.96059H3.57691C3.61394 5.96059 3.64903 5.94424 3.67332 5.9163C3.85021 5.71279 4.04382 5.52244 4.253 5.3475C4.253 5.3475 5.55455 4.43415 7.16071 3.46542C8.15611 2.87619 9.18215 2.34034 10.2345 1.86014C10.796 1.62833 11.3995 1.51525 12.0069 1.528C12.614 1.51792 13.2169 1.6309 13.7792 1.86014C14.8317 2.34 15.8578 2.87586 16.853 3.46542C17.8558 4.03939 18.8265 4.6677 19.7607 5.3475C20.5915 6.01174 21.4222 7.3956 21.5053 8.47504C21.5053 8.47504 21.6992 10.0803 21.7269 11.9818C21.7251 13.1561 21.6605 14.3294 21.533 15.4968C21.3398 16.7191 20.7102 17.8301 19.7607 18.6243C19.7607 18.6243 18.4592 19.5654 16.853 20.5341C15.8576 21.1233 14.8316 21.6592 13.7792 22.1394C13.2177 22.3712 12.6142 22.4842 12.0069 22.4715C11.4003 22.4842 10.7974 22.3741 10.2345 22.1477C9.182 21.6678 8.15592 21.132 7.16071 20.5424C5.55455 19.6014 4.253 18.6326 4.253 18.6326C4.08399 18.4975 3.91494 18.3326 3.75198 18.1464C3.72769 18.1187 3.69273 18.1025 3.65586 18.1025H2.11637C2.04289 18.1025 1.99767 18.1825 2.03685 18.2446C2.37898 18.7875 2.78733 19.271 3.19569 19.6002C3.19569 19.6002 4.67472 20.7102 6.49989 21.7884C7.63081 22.464 8.7968 23.078 9.9929 23.6278C10.6325 23.8872 11.3176 24.0135 12.0069 23.9989C12.6971 24.0135 13.3828 23.8839 14.0208 23.6183C15.2168 23.0681 16.3827 22.4541 17.5139 21.7789C19.339 20.6689 20.8181 19.5907 20.8181 19.5907C21.897 18.6806 22.6125 17.4076 22.832 16.007C22.9769 14.6694 23.0504 13.3249 23.0523 11.9794C23.0208 9.80062 22.8006 7.96125 22.8006 7.96125Z" fill="url(#paint0_linear_458_36)"/>
<path d="M1.29999 7.8278C1.29999 7.80695 1.31686 7.79004 1.33766 7.79004H3.47034C3.49697 7.79004 3.515 7.81756 3.50465 7.84239L3.24054 8.4767C3.23356 8.49346 3.21761 8.50108 3.20247 8.49958L3.1987 8.49976H2.09865V10.7799C2.09865 10.8008 2.08178 10.8176 2.06098 10.8176H1.33766C1.31686 10.8176 1.29999 10.8008 1.29999 10.7799V7.8278Z" fill="#0066B3"/>
<path d="M9.40596 10.1028C9.40221 10.0931 9.39471 10.0849 9.385 10.0804C9.37525 10.0759 9.364 10.0759 9.35425 10.0789C9.18043 10.1431 8.85456 10.1953 8.62753 10.1953C8.13085 10.1953 7.89407 10.0617 7.89407 9.30303C7.89407 8.69654 7.96675 8.41079 8.62753 8.41079C8.81485 8.41079 8.98866 8.43764 9.20968 8.50181C9.22765 8.50706 9.24715 8.49884 9.25536 8.48242C9.33778 8.32799 9.43742 8.13926 9.54981 7.90799C9.55506 7.89753 9.55506 7.88561 9.55056 7.87514C9.54606 7.86472 9.53706 7.85651 9.52585 7.85279C9.23515 7.76028 8.88827 7.70654 8.57586 7.70654C7.53523 7.70654 7.07147 8.19521 7.07147 9.29186C7.07147 10.4041 7.53523 10.9003 8.57586 10.9003C8.83656 10.9003 9.35054 10.8458 9.59848 10.7473C9.61798 10.7391 9.62848 10.7167 9.62099 10.6974L9.40596 10.1028Z" fill="#0066B3"/>
<path d="M5.11033 7.70654C4.09296 7.70654 3.69684 8.15096 3.69684 9.29171C3.69684 10.4499 4.09296 10.9003 5.11033 10.9003C6.13585 10.9003 6.53567 10.4499 6.53567 9.29171C6.53567 8.15096 6.13585 7.70654 5.11033 7.70654ZM5.11033 10.2356C4.64683 10.2356 4.50242 10.1073 4.50242 9.30303C4.50242 8.44672 4.66015 8.37052 5.11033 8.37052C5.56941 8.37052 5.7301 8.44672 5.7301 9.30303C5.7301 10.1073 5.58272 10.2356 5.11033 10.2356Z" fill="#0066B3"/>
<path d="M8.29476 15.2327H7.55042C7.52552 15.2327 7.50741 15.2085 7.51419 15.1843C7.63866 14.7608 7.76837 14.2813 7.85811 13.7498C7.95009 13.2002 7.99839 12.6936 8.01876 12.2413C8.01951 12.2209 8.03608 12.2051 8.05644 12.2051H10.2686C10.2894 12.2051 10.3063 12.222 10.3063 12.2428V15.1949C10.3063 15.2158 10.2894 15.2327 10.2686 15.2327H9.54373C9.52288 15.2327 9.50601 15.2158 9.50601 15.1949V12.9148H8.77839C8.75166 13.2513 8.70654 13.6128 8.63263 13.9944C8.54664 14.4414 8.44483 14.8468 8.33019 15.207C8.32569 15.2221 8.31058 15.2327 8.29476 15.2327Z" fill="#EE2F53"/>
<path d="M14.2935 12.2428C14.2935 12.222 14.3104 12.2051 14.3312 12.2051H16.4683C16.495 12.2051 16.5131 12.2326 16.5027 12.2574L16.2381 12.8917C16.2311 12.9085 16.2151 12.9161 16.1999 12.9146L16.1962 12.9148H15.0938V15.1949C15.0938 15.2158 15.0769 15.2327 15.0561 15.2327H14.3312C14.3104 15.2327 14.2935 15.2158 14.2935 15.1949V12.2428Z" fill="#EE2F53"/>
<path d="M1.33771 12.2051C1.31152 12.2051 1.29332 12.2308 1.30231 12.2552L2.40357 15.2331C2.24817 15.5599 2.07551 15.9038 1.87806 16.2871C1.86513 16.3122 1.88314 16.3425 1.91142 16.3425H2.69484C2.70907 16.3425 2.72219 16.3344 2.72861 16.3217C3.30831 15.1421 3.73489 14.0964 4.31814 12.255C4.32609 12.2306 4.30809 12.2051 4.2824 12.2051H3.55476C3.53787 12.2051 3.52295 12.2166 3.51833 12.2328C3.29379 13.02 3.08676 13.6362 2.84677 14.23L2.10699 12.2295C2.10156 12.2148 2.08742 12.2051 2.0716 12.2051H1.33771Z" fill="#EE2F53"/>
<path d="M10.8303 12.2051C10.8041 12.2051 10.7859 12.2308 10.7949 12.2552L11.8961 15.2331C11.7407 15.5599 11.568 15.9038 11.3706 16.2871C11.3577 16.3122 11.3757 16.3425 11.404 16.3425H12.1874C12.2016 16.3425 12.2147 16.3344 12.2211 16.3217C12.8009 15.1421 13.2275 14.0964 13.8107 12.255C13.8186 12.2306 13.8006 12.2051 13.775 12.2051H13.0473C13.0304 12.2051 13.0155 12.2166 13.0109 12.2328C12.7863 13.02 12.5793 13.6362 12.3393 14.23L11.5995 12.2295C11.5941 12.2148 11.58 12.2051 11.5641 12.2051H10.8303Z" fill="#EE2F53"/>
<path d="M6.91426 14.5178C6.91051 14.5081 6.90301 14.4999 6.89326 14.4954C6.88355 14.4909 6.8723 14.4909 6.86255 14.4939C6.68874 14.5581 6.36286 14.6103 6.13584 14.6103C5.63911 14.6103 5.40237 14.4768 5.40237 13.7181C5.40237 13.1115 5.47505 12.8258 6.13584 12.8258C6.32315 12.8258 6.49696 12.8527 6.71795 12.9168C6.73595 12.9221 6.75541 12.9139 6.76366 12.8975C6.84609 12.743 6.94572 12.5543 7.05811 12.323C7.06336 12.3126 7.06336 12.3006 7.05886 12.2902C7.05436 12.2798 7.04536 12.2715 7.03411 12.2678C6.74345 12.1753 6.39657 12.1216 6.08416 12.1216C5.0435 12.1216 4.57977 12.6102 4.57977 13.7069C4.57977 14.8192 5.0435 15.3153 6.08416 15.3153C6.34486 15.3153 6.8588 15.2608 7.10679 15.1624C7.12629 15.1542 7.13675 15.1318 7.12929 15.1124L6.91426 14.5178Z" fill="#EE2F53"/>
<path d="M19.4836 12.2051H18.7592C18.7381 12.2051 18.7215 12.2217 18.7215 12.2427V14.5239C18.5645 14.5676 18.4076 14.5887 18.231 14.5887C17.7918 14.5887 17.6643 14.4652 17.6477 13.9499V12.2427C17.6477 12.2217 17.6311 12.2051 17.61 12.2051H16.8856C16.8645 12.2051 16.8478 12.2217 16.8478 12.2427V12.2473C16.8478 12.2473 16.8478 13.9642 16.8486 13.9665C16.866 14.936 17.2176 15.3157 18.0861 15.3157C18.5932 15.3157 19.1591 15.1869 19.4949 15.0588C19.5108 15.0535 19.5206 15.0385 19.5206 15.0219V12.2427C19.5213 12.2217 19.5047 12.2051 19.4836 12.2051Z" fill="#EE2F53"/>
</g>
<defs>
<linearGradient id="paint0_linear_458_36" x1="12.3134" y1="-0.08736" x2="12.3134" y2="23.9674" gradientUnits="userSpaceOnUse">
<stop stop-color="#0F67B1"/>
<stop offset="0.4" stop-color="#0F67B1"/>
<stop offset="0.66" stop-color="#EE2F53"/>
<stop offset="1" stop-color="#EE2F53"/>
</linearGradient>
<clipPath id="clip0_458_36">
<rect width="24" height="24" fill="white"/>
</clipPath>
</defs>
</svg>
