<svg xmlns="http://www.w3.org/2000/svg" width="24" height="24" viewBox="0 0 24 24" fill="none"><rect width="24" height="24" fill="none"/>
<path fill-rule="evenodd" clip-rule="evenodd" d="M14.3089 11.2709C14.3089 11.0121 14.1618 10.8827 13.8677 10.8827C13.6664 10.8827 13.4419 11.0768 13.1942 11.465C12.9478 11.8538 12.7673 12.2808 12.6601 12.7287V12.752C12.662 13.0282 12.703 13.3027 12.782 13.5672C12.8455 13.7558 12.8865 13.9513 12.9039 14.1496C12.9039 14.4084 12.5749 14.6672 11.9169 14.926C11.8321 14.9614 11.7416 14.9811 11.6499 14.9842C11.5588 14.9867 11.4696 14.9581 11.3968 14.9031C11.324 14.8481 11.272 14.7699 11.2493 14.6814C11.1664 14.416 11.1291 14.1383 11.139 13.8603C11.139 13.5148 11.1486 13.1913 11.168 12.8898C11.1873 12.5883 11.2067 12.3049 11.226 12.0396C11.2454 11.7808 11.2647 11.5517 11.2841 11.3525C11.3035 11.1532 11.3131 10.9921 11.3131 10.8691C11.3131 10.6103 11.1931 10.4809 10.9532 10.4809C10.7132 10.4809 10.4345 10.7637 10.1171 11.3292C9.79975 11.8921 9.64106 12.3385 9.64106 12.6685C9.63821 12.9775 9.67925 13.2854 9.76297 13.5828C9.82652 13.7713 9.86744 13.9668 9.8849 14.1651C9.8849 14.4239 9.55591 14.6827 8.89792 14.9415C8.81311 14.9769 8.72265 14.9966 8.63085 14.9998C8.53985 15.0019 8.4508 14.9731 8.37809 14.9182C8.30541 14.8632 8.25331 14.7853 8.23025 14.697C8.19753 14.5828 8.17186 14.467 8.1533 14.3501C7.99542 14.456 7.82921 14.5493 7.65612 14.629C7.36635 14.77 7.04926 14.8455 6.72721 14.8502C6.31692 14.8502 6.04212 14.4892 5.90277 13.7671C5.70504 14.0973 5.43504 14.3781 5.11319 14.5882C4.71809 14.8201 4.26412 14.9314 3.80689 14.9085C3.56381 14.9192 3.32116 14.8792 3.0943 14.791C2.86743 14.7028 2.66131 14.5683 2.48897 14.396C2.32614 14.2326 2.19876 14.0372 2.11483 13.8221C2.03091 13.607 1.99225 13.3768 2.00129 13.146C2.00129 11.826 2.43866 10.7856 3.3134 10.0247C3.61419 9.74532 3.96748 9.52888 4.35263 9.38803C4.68165 9.28595 5.02426 9.23489 5.36864 9.23662C5.6706 9.22683 5.97012 9.29359 6.23951 9.43073C6.3479 9.20556 6.47176 9.09298 6.61108 9.09298C6.75715 9.09781 6.90078 9.1317 7.03368 9.19268C7.16657 9.25365 7.28607 9.34051 7.3852 9.4482C7.48713 9.53 7.5718 9.63135 7.63427 9.74633C7.69673 9.8613 7.73575 9.98761 7.74902 10.1179C7.60965 10.4342 7.45065 10.7415 7.27296 11.0379C7.20145 11.5354 7.17039 12.0378 7.18006 12.5403C7.18006 13.1874 7.26134 13.5109 7.4239 13.5109C7.54761 13.5109 7.77952 13.3584 8.11964 13.0533C8.13218 12.493 8.17491 11.9337 8.24766 11.3777C8.36674 10.6464 8.63557 9.94783 9.03725 9.32597C9.07941 9.23787 9.14296 9.16183 9.22212 9.10484C9.30125 9.04785 9.3934 9.01175 9.49012 8.99987C9.74814 8.99987 9.98425 9.20951 10.1984 9.62878C10.2545 9.72497 10.3012 9.82638 10.3377 9.93159C10.4864 9.71993 10.6826 9.54636 10.9106 9.42496C11.1385 9.30355 11.3918 9.23772 11.6499 9.2328C11.9782 9.23113 12.2959 9.34908 12.5439 9.56472C12.6676 9.66464 12.7668 9.79166 12.8339 9.93601C12.901 10.0804 12.9342 10.2382 12.931 10.3974V10.5256C13.1305 10.2509 13.3919 10.0276 13.694 9.87371C13.996 9.71987 14.3301 9.63993 14.6689 9.64043C14.8415 9.6286 15.0148 9.65172 15.1784 9.70841C15.342 9.7651 15.4925 9.8542 15.621 9.97041C15.727 10.075 15.8106 10.2003 15.8665 10.3385C15.9224 10.4767 15.9495 10.6249 15.9462 10.774C15.9486 11.0628 15.9253 11.3512 15.8765 11.6359C15.83 11.8947 15.7778 12.1354 15.7197 12.3579C15.6617 12.5805 15.6094 12.7804 15.563 12.9577C15.5234 13.0903 15.5 13.2272 15.4933 13.3654C15.4933 13.4624 15.5243 13.5109 15.5862 13.5109C15.7503 13.4883 15.9018 13.4102 16.0158 13.2897C16.125 13.1951 16.2343 13.0949 16.3435 12.9891C16.3345 12.8918 16.3319 12.7938 16.3359 12.6958C16.3113 11.8176 16.6229 10.9633 17.2067 10.3083C17.4943 9.98098 17.8508 9.72185 18.2504 9.54964C18.65 9.37743 19.0828 9.29643 19.5174 9.3125C19.8732 9.30073 20.228 9.3574 20.5625 9.47943C21.0192 9.66577 21.2476 9.84047 21.2476 10.0035C21.2476 10.1329 20.9282 10.1976 20.2896 10.1976C19.9914 10.1922 19.6953 10.2483 19.4196 10.3625C19.144 10.4767 18.8947 10.6466 18.6872 10.8615C18.4738 11.0803 18.3068 11.3401 18.196 11.6253C18.0853 11.9105 18.0332 12.2152 18.0428 12.5211C18.0328 12.8424 18.1425 13.1559 18.3505 13.4004C18.4613 13.5207 18.5975 13.6145 18.7492 13.675C18.9009 13.7355 19.0643 13.761 19.2271 13.7498C19.5544 13.7618 19.8783 13.6811 20.1619 13.5169C19.8959 13.3423 19.68 13.1011 19.5354 12.8172C19.3908 12.5333 19.3226 12.2165 19.3375 11.898C19.3322 11.5187 19.4761 11.1526 19.7381 10.879C19.8699 10.7291 20.0328 10.6098 20.2153 10.5293C20.3977 10.4489 20.5954 10.4092 20.7947 10.4131C21.2243 10.4131 21.5321 10.5315 21.7178 10.7683C21.922 11.0612 22.0203 11.4153 21.9965 11.7719C21.9421 12.5682 21.6968 13.3596 21.1609 13.9497C20.47 14.7261 19.7303 14.996 18.8846 14.996C18.0389 14.996 17.3886 14.7766 16.9629 14.3321C16.8662 14.233 16.7794 14.1253 16.7032 14.0104C16.6804 14.0329 16.657 14.0553 16.6332 14.0777C16.1759 14.5546 15.5508 14.8333 14.8914 14.8542C14.3341 14.8542 14.0554 14.3456 14.0554 13.3285C14.0668 12.9721 14.1095 12.6175 14.1831 12.2687C14.2529 11.9402 14.295 11.6065 14.3089 11.2709ZM3.70819 12.7616C3.70819 13.3595 3.92881 13.6584 4.37005 13.6584C4.84226 13.6506 5.23317 13.3983 5.54282 12.9014C5.66188 12.7059 5.75183 12.494 5.8099 12.2725C5.79714 11.5204 5.87513 10.7696 6.04212 10.0363C5.41575 10.1594 4.84336 10.4757 4.40489 10.9409C4.17342 11.1823 3.99252 11.4678 3.87286 11.7806C3.7532 12.0933 3.69721 12.4269 3.70819 12.7616ZM21.174 11.7389C21.1707 12.0216 21.1046 12.3001 20.9805 12.5541V12.5619C20.8798 12.4615 20.8007 12.3416 20.7481 12.2093C20.6955 12.0771 20.6705 11.9355 20.6747 11.7932C20.6766 11.6922 20.7004 11.5929 20.7444 11.502C20.7908 11.4011 20.8489 11.3506 20.9186 11.3506C21.0889 11.3506 21.174 11.48 21.174 11.7389Z" fill="#8CD7F8"/>
</svg>
