<svg xmlns="http://www.w3.org/2000/svg" width="43" height="16" viewBox="0 0 43 16" fill="none"><rect width="43" height="16" fill="none"/>
<path d="M7.84527 4.41434H7.87978L8.76065 7.22474H6.91254L7.84527 4.41434Z" fill="#000000"/>
<path fill-rule="evenodd" clip-rule="evenodd" d="M3.2983 0H12.4292C14.2509 0 15.7275 1.50229 15.7275 3.35542V12.6445C15.7275 14.4976 14.2509 15.9999 12.4292 15.9999H3.2983C1.47672 15.9999 0 14.4976 0 12.6445V3.35542C0 1.50229 1.47672 0 3.2983 0ZM4.53901 13.1305H11.1887V11.7297H4.53901V13.1305ZM7.91573 2.86969C7.16698 2.86969 6.93442 3.32066 6.73486 3.89569L4.67735 9.82505H6.04173L6.51676 8.41552H9.142L9.58245 9.82505H11.0333L9.07252 3.89569C8.88303 3.3225 8.66448 2.86969 7.91573 2.86969Z" fill="#000000"/>
<path fill-rule="evenodd" clip-rule="evenodd" d="M19.5727 2.74438H24.4131C26.677 2.74438 27.9238 3.85046 27.9238 5.85896C27.9238 7.85665 26.6442 9.00233 24.4131 9.00233H21.5582V13.0178H19.5727V2.74438ZM24.2999 4.55659H21.5582V7.19012H24.2999C25.3051 7.19012 25.8817 6.7102 25.8817 5.87331C25.8817 4.99959 25.3495 4.55659 24.2999 4.55659Z" fill="#000000"/>
<path d="M39.1731 10.3961L40.9487 5.66249H42.8634L38.9448 16H37.0442L38.2229 12.9107L35.2833 5.66249H37.3838L39.1731 10.3961Z" fill="#000000"/>
<path fill-rule="evenodd" clip-rule="evenodd" d="M34.9744 8.46958V10.8789C34.9744 11.2758 35.1064 11.4539 35.4299 11.4932L35.4696 11.4981V13.0613H34.8587C34.0681 13.0613 33.497 12.7281 33.2759 12.1429C33.0275 12.5062 32.4002 13.176 31.1526 13.176C29.4672 13.176 28.3349 12.1722 28.3349 10.6781C28.3349 9.23641 29.331 8.40957 31.0676 8.40957H33.1445C33.1369 7.57582 32.5733 7.03813 31.7042 7.03813C30.7533 7.03813 30.4643 7.62393 30.416 7.74142L30.4045 7.76943H28.5271L28.5333 7.71833C28.5729 7.38959 28.7848 6.8403 29.2519 6.37374C29.8347 5.79169 30.6729 5.48398 31.6759 5.48398C33.7414 5.48398 34.9744 6.60012 34.9744 8.46958ZM30.2215 10.6494C30.2215 11.3112 30.7408 11.7224 31.5769 11.7224C32.4706 11.7224 33.1445 11.1871 33.1445 10.4773V9.7629H31.3506C30.6435 9.7629 30.2215 10.0943 30.2215 10.6494Z" fill="#000000"/>
</svg>
