<svg xmlns="http://www.w3.org/2000/svg" width="30" height="16" viewBox="0 0 30 16" fill="none"><rect width="30" height="16" fill="none"/>
<path d="M15.7775 4.03151H12.0458V11.9826H13.5756V8.87563H15.7775C17.4899 8.87563 18.4888 7.98815 18.4888 6.44268C18.4888 4.89721 17.5227 4.03151 15.7775 4.03151ZM13.5756 5.42883H15.689C16.4981 5.42883 16.9091 5.77162 16.9091 6.44559C16.9091 7.09341 16.4639 7.46234 15.689 7.46234H13.5756V5.42883Z" fill="#000000"/>
<path d="M23.9192 10.3265V8.46147C23.9192 7.00896 22.9688 6.15198 21.3763 6.15198C20.6042 6.15198 19.9578 6.39019 19.5083 6.84047C19.2201 7.11864 19.0262 7.48283 18.9546 7.88047V7.91969H20.4016L20.4102 7.8979C20.4473 7.80784 20.6699 7.35466 21.4091 7.35466C22.0784 7.35466 22.5136 7.77008 22.5193 8.41499H20.9082C19.5697 8.41499 18.8019 9.05555 18.8019 10.1711C18.8019 11.3331 19.6738 12.1044 20.9738 12.1044C21.9357 12.1044 22.4194 11.5858 22.6106 11.3055C22.7805 11.7587 23.2214 12.0158 23.8307 12.0158H24.3017V10.8029H24.2703C24.022 10.7724 23.9192 10.6344 23.9192 10.3265ZM21.3006 10.9801C20.6556 10.9801 20.256 10.662 20.256 10.1493C20.256 9.71354 20.5814 9.46371 21.1265 9.46371H22.5093V10.0157C22.5093 10.5662 21.9885 10.9801 21.3006 10.9801Z" fill="#000000"/>
<path d="M28.523 6.29006L27.1545 9.95329L25.7746 6.29006H24.1563L26.4224 11.8997L25.5134 14.2905H26.979L30 6.29006H28.523Z" fill="#000000"/>
<path d="M3.94807 7.76365L4.47861 6.1862H4.49847L4.99922 7.76365H3.94807Z" fill="#000000"/>
<path fill-rule="evenodd" clip-rule="evenodd" d="M7.09425 3.70953H1.88244C0.842794 3.70953 0 4.55233 0 5.59197V10.8038C0 11.8434 0.842794 12.6862 1.88244 12.6862H7.09425C8.13389 12.6862 8.97668 11.8434 8.97668 10.8038V5.59197C8.97668 4.55233 8.13389 3.70953 7.09425 3.70953ZM5.17654 5.8954C5.06873 5.57338 4.94389 5.31946 4.51832 5.31946C4.09275 5.31946 3.95941 5.57197 3.84592 5.8954L2.67561 9.22619H3.45724L3.72677 8.43463H5.21626L5.46592 9.22619H6.29437L5.17654 5.8954ZM2.59743 10.2906H6.37932V11.0764H2.59743V10.2906Z" fill="#000000"/>
</svg>
