<svg xmlns="http://www.w3.org/2000/svg" width="24" height="24" viewBox="0 0 24 24" fill="none"><rect width="24" height="24" fill="none"/>
<g clip-path="url(#clip0_1433_34)">
<path d="M4.34694 0H19.653C22.0538 0 24 1.94619 24 4.34694V19.653C24 22.0538 22.0538 24 19.653 24H4.34694C1.94619 24 0 22.0538 0 19.653V4.34694C0 1.94619 1.94619 0 4.34694 0Z" fill="#072DA0"/>
<path fill-rule="evenodd" clip-rule="evenodd" d="M5.8775 5.87762H8.32648V8.3266H10.7755V10.7756H13.2244V13.2245H10.7755V15.6735H8.32648V18.1225H5.8775V15.6735V13.2245H8.32648V10.7756H5.8775V8.3266V5.87762ZM13.2244 15.6735V13.2245H15.6734V15.6735H13.2244ZM15.6734 15.6735H18.1224V18.1225H15.6734V15.6735ZM13.2244 15.6735H10.7755V18.1225H13.2244V15.6735ZM15.6734 13.2245V10.7756H13.2244V8.3266H10.7755V5.87762H13.2244H15.6734V8.3266H18.1224V10.7756V13.2245H15.6734Z" fill="white"/>
</g>
<defs>
<clipPath id="clip0_1433_34">
<rect width="24" height="24" fill="white"/>
</clipPath>
</defs>
</svg>
