<svg xmlns="http://www.w3.org/2000/svg" width="24" height="24" viewBox="0 0 24 24" fill="none"><rect width="24" height="24" fill="none"/>
<g clip-path="url(#clip0_2111_79)">
<path d="M4.34694 0H19.653C22.0538 0 24 1.94619 24 4.34694V19.653C24 22.0538 22.0538 24 19.653 24H4.34694C1.94619 24 0 22.0538 0 19.653V4.34694C0 1.94619 1.94619 0 4.34694 0Z" fill="#00BEF0"/>
<path d="M12 4C7.57604 4 4 7.57604 4 12C4 16.424 7.57604 20 12 20C16.424 20 20 16.424 20 12C20 7.57604 16.3871 4 12 4ZM10.8571 15.3917L10.2673 17.1244C8.0553 16.3871 6.58065 14.2857 6.58065 11.9263C6.58065 9.56682 8.0553 7.5023 10.3041 6.72811L10.894 8.46083C9.41935 8.94009 8.46083 10.341 8.46083 11.8894C8.42396 13.5115 9.38249 14.9124 10.8571 15.3917ZM13.6221 17.1613L13.0691 15.4286C14.5806 14.9493 15.576 13.5484 15.576 11.9631C15.576 10.3779 14.5806 9.01382 13.106 8.53456L13.6959 6.76498C15.9447 7.5023 17.4562 9.60369 17.4562 11.9631C17.4194 14.3594 15.871 16.4608 13.6221 17.1613Z" fill="white"/>
</g>
<defs>
<clipPath id="clip0_2111_79">
<rect width="24" height="24" fill="white"/>
</clipPath>
</defs>
</svg>
