<svg xmlns="http://www.w3.org/2000/svg" width="24" height="24" viewBox="0 0 24 24" fill="none"><rect width="24" height="24" fill="none"/>
<path d="M22.7991 7.96118C22.7047 6.72436 21.7606 5.13869 20.8166 4.37756C19.7549 3.59864 18.6519 2.87873 17.5124 2.22105C16.3815 1.54552 15.2155 0.931513 14.0194 0.381673C13.3804 0.119011 12.6953 -0.010448 12.0054 0.00111199C11.3152 -0.0135022 10.6295 0.116072 9.99141 0.381673C8.79551 0.931903 7.62953 1.5459 6.49841 2.22105C4.67324 3.33102 3.19422 4.37756 3.19422 4.37756C2.48655 4.97443 1.93526 5.72745 1.57769 6.57019C1.44717 6.87779 1.68699 7.19994 2.02114 7.19994H2.95101C3.32255 7.19994 3.65643 6.98874 3.86906 6.68405C4.11007 6.33871 4.3971 6.02402 4.72474 5.74958C4.72474 5.74958 5.94593 4.89142 7.45294 3.98124C8.38688 3.42762 9.34961 2.92414 10.337 2.47295C10.8639 2.25516 11.4301 2.14891 11.9999 2.16089C12.5696 2.15141 13.1353 2.25757 13.6628 2.47295C14.6504 2.92382 15.6132 3.42731 16.5469 3.98124C17.4878 4.52054 18.3986 5.11086 19.2751 5.74958C20.0546 6.3737 20.8341 7.67395 20.9121 8.68815C20.9121 8.68815 21.0939 10.1964 21.1199 11.983C21.1183 13.0863 21.0576 14.1888 20.938 15.2856C20.7567 16.4341 20.166 17.478 19.2751 18.2242C19.2751 18.2242 18.0539 19.1084 16.5469 20.0185C15.613 20.5722 14.6503 21.0756 13.6628 21.5268C13.136 21.7446 12.5698 21.8509 11.9999 21.8389C11.4308 21.8508 10.8651 21.7473 10.337 21.5346C9.34945 21.0838 8.38671 20.5803 7.45294 20.0263C5.94593 19.1422 4.72474 18.232 4.72474 18.232C4.43472 17.9998 4.14471 17.674 3.88949 17.3041C3.68195 17.0034 3.35144 16.7999 2.98603 16.7999H2.0341C1.69567 16.7999 1.45728 17.129 1.59784 17.4368C1.98761 18.2905 2.59092 19.1136 3.19422 19.6C3.19422 19.6 4.67324 20.71 6.49841 21.7882C7.62932 22.4638 8.79532 23.0778 9.99141 23.6276C10.631 23.887 11.3161 24.0132 12.0054 23.9987C12.6956 24.0133 13.3813 23.8837 14.0194 23.6181C15.2153 23.0679 16.3812 22.4539 17.5124 21.7787C19.3375 20.6687 20.8166 19.5905 20.8166 19.5905C21.8955 18.6805 22.611 17.4074 22.8305 16.0069C22.9754 14.6693 23.0489 13.3248 23.0508 11.9793C23.0194 9.80056 22.7991 7.96118 22.7991 7.96118Z" fill="url(#paint0_linear_464_51)"/>
<path d="M0.959961 9.36146C0.959961 9.09636 1.17486 8.88146 1.43996 8.88146H8.87995C9.14504 8.88146 9.35994 9.09636 9.35994 9.36146V10.8014C9.35994 11.0665 9.14504 11.2814 8.87995 11.2814H0.959961V9.36146Z" fill="#0066B3"/>
<path d="M0.959778 12.7212H16.0797C16.3448 12.7212 16.5597 12.9361 16.5597 13.2012V14.6412C16.5597 14.9063 16.3448 15.1212 16.0797 15.1212H1.43978C1.17468 15.1212 0.959778 14.9063 0.959778 14.6412V12.7212Z" fill="#EE2F53"/>
<defs>
<linearGradient id="paint0_linear_464_51" x1="12.2005" y1="0" x2="12.2005" y2="23.9998" gradientUnits="userSpaceOnUse">
<stop stop-color="#0066B3"/>
<stop offset="0.354167" stop-color="#0066B3"/>
<stop offset="0.6875" stop-color="#EE2F53"/>
<stop offset="1" stop-color="#EE2F53"/>
</linearGradient>
</defs>
</svg>
