<svg xmlns="http://www.w3.org/2000/svg" width="24" height="24" viewBox="0 0 24 24" fill="none"><rect width="24" height="24" fill="none"/>
<path d="M19.073 4.92697C17.1854 3.03933 14.6742 2 12 2C9.32584 2 6.82022 3.03933 4.92697 4.92697C3.03933 6.81461 2 9.32584 2 12C2 14.6685 3.03933 17.1798 4.92697 19.073C6.81461 20.9607 9.32584 22 12 22C14.6742 22 17.1798 20.9607 19.073 19.073C20.9607 17.1854 22 14.6742 22 12C22 9.32584 20.9607 6.81461 19.073 4.92697ZM6.94944 4.70225V11.0899H3.17416C3.44382 8.44382 4.8764 6.14045 6.94944 4.70225ZM6.94944 14.7303H3.55618C3.36517 14.1461 3.23595 13.5393 3.17416 12.9101H6.94944V14.7303ZM4.38202 16.5562H6.94944V19.2978C5.91011 18.5787 5.03371 17.6404 4.38202 16.5562ZM12 20.8708C10.8595 20.8708 9.76966 20.6573 8.76966 20.264V16.5506H12.9157V14.7303H8.76966V12.9101L11.2247 12.9157C15.2753 12.9157 17.0056 10.8427 17.0056 8.32584C17.0056 5.89326 15.5899 3.77528 11.2247 3.77528L8.60674 3.79775C9.65169 3.36517 10.7978 3.12921 11.9944 3.12921C16.8933 3.12921 20.8708 7.10112 20.8708 12.0056C20.8708 16.9101 16.9045 20.8708 12 20.8708ZM8.77528 11.0899V5.6236L11.3427 5.60674C13.8427 5.60674 14.9438 6.63483 14.9438 8.39326C14.9438 10.1685 13.6854 11.0955 11.1854 11.0955L8.77528 11.0899Z" fill="#E63946"/>
</svg>
