<svg xmlns="http://www.w3.org/2000/svg" width="48" height="16" viewBox="0 0 48 16" fill="none"><rect width="48" height="16" fill="none"/>
<path d="M47.1244 12.9578V12.7H47.2289V12.6467H46.9644V12.7H47.0689V12.9578H47.1244ZM47.6378 12.9578V12.6467H47.5578L47.4644 12.86L47.3711 12.6467H47.2889V12.9578H47.3467V12.7244L47.4333 12.9267H47.4933L47.58 12.7244V12.96H47.6378V12.9578ZM34.2356 14.5022C34.2978 14.5556 34.3644 14.6089 34.4289 14.6622C33.16 15.5067 31.6378 16 30 16C25.5822 16 22 12.4178 22 8C22 3.58222 25.5822 0 30 0C31.6378 0 33.16 0.493333 34.4289 1.33778C34.3644 1.39111 34.2978 1.44222 34.2356 1.49778C32.3511 3.13778 31.2689 5.50667 31.2689 8C31.2689 10.4933 32.3511 12.8622 34.2356 14.5022ZM39.8889 0C38.2511 0 36.7289 0.493333 35.46 1.33778C35.5244 1.39111 35.5911 1.44222 35.6533 1.49778C37.5378 3.13778 38.6178 5.50667 38.6178 8C38.6178 10.4933 37.5378 12.8622 35.6533 14.5022C35.5911 14.5556 35.5244 14.6089 35.46 14.6622C36.7289 15.5067 38.2511 16 39.8889 16C44.3067 16 47.8889 12.4178 47.8889 8C47.8889 3.58222 44.3067 0 39.8889 0ZM34.9444 1.71333C34.8422 1.79556 34.74 1.87778 34.6422 1.96444C32.9556 3.43111 31.8889 5.59111 31.8889 8C31.8889 10.4089 32.9556 12.5689 34.6422 14.0356C34.74 14.1222 34.8422 14.2044 34.9444 14.2867C35.0467 14.2044 35.1489 14.1222 35.2467 14.0356C36.9333 12.5689 38 10.4089 38 8C38 5.59111 36.9333 3.43111 35.2467 1.96444C35.1489 1.87778 35.0467 1.79556 34.9444 1.71333Z" fill="#000000"/>
</svg>
