<svg xmlns="http://www.w3.org/2000/svg" width="45" height="24" viewBox="0 0 45 24" fill="none"><rect width="45" height="24" fill="none"/>
<path fill-rule="evenodd" clip-rule="evenodd" d="M40.8622 7.09988C39.4257 5.89481 37.5639 5.26477 35.6594 5.33926H31.1665V18.6667H35.6594C40.0968 18.6667 42.8258 16.1164 42.8258 12.019C42.8696 11.113 42.7178 10.2082 42.3798 9.36154C42.0419 8.51489 41.5251 7.7448 40.8622 7.09988ZM33.8622 7.66542H35.6261C36.2293 7.6168 36.8362 7.69676 37.4036 7.8996C37.971 8.10244 38.4849 8.42317 38.9087 8.83893C39.3325 9.25469 39.6557 9.75524 39.8553 10.3049C40.0549 10.8546 40.126 11.4398 40.0635 12.019C40.1181 12.5965 40.0415 13.1785 39.839 13.7247C39.6366 14.2709 39.3132 14.7683 38.8911 15.1824C38.469 15.5965 37.9584 15.9174 37.3947 16.1229C36.8309 16.3284 36.2275 16.4136 35.6261 16.3725H33.8733L33.8622 7.66542Z" fill="#EF3124"/>
<path d="M28.6665 5.3335H26.1665V18.6668H28.6665V5.3335Z" fill="#EF3124"/>
<path d="M2 6.2C2 3.8804 3.8804 2 6.2 2H17.8C20.1196 2 22 3.8804 22 6.2V17.8C22 20.1196 20.1196 22 17.8 22H6.2C3.8804 22 2 20.1196 2 17.8V6.2Z" fill="#EF3124"/>
<path fill-rule="evenodd" clip-rule="evenodd" d="M16.2281 18.4132H7.77209V16.6622H16.2281V18.4132ZM10.5645 6.86963C10.8182 6.15084 11.1139 5.58714 12.066 5.58714C13.0182 5.58714 13.2961 6.15314 13.5371 6.86963L16.0305 14.2814H14.1855L13.6255 12.5194H10.2871L9.68298 14.2814H7.948L10.5645 6.86963ZM12.0204 7.51796H11.9764L10.7904 11.031H13.1405L12.0204 7.51796Z" fill="white"/>
</svg>
