<svg xmlns="http://www.w3.org/2000/svg" width="30" height="16" viewBox="0 0 30 16" fill="none"><rect width="30" height="16" fill="none"/>
<path d="M5.67201 3.64142C6.02525 3.19956 6.26495 2.60627 6.20173 2C5.68464 2.02571 5.05363 2.34117 4.68831 2.78338C4.36029 3.16206 4.06996 3.78019 4.14565 4.36104C4.72611 4.4114 5.30603 4.07088 5.67201 3.64142Z" fill="#000000"/>
<path d="M6.19361 4.47238C5.68088 4.44183 5.21485 4.62546 4.83782 4.77402C4.59498 4.8697 4.38906 4.95084 4.23135 4.95084C4.05744 4.95084 3.8437 4.86636 3.60328 4.77134C3.28687 4.64628 2.92424 4.50295 2.54537 4.50989C1.67756 4.52264 0.872339 5.01335 0.431964 5.7938C-0.473814 7.35509 0.192929 9.67103 1.07375 10.9426C1.5015 11.5717 2.017 12.2644 2.69626 12.2395C2.99371 12.2278 3.20733 12.1377 3.4286 12.0444C3.68476 11.9363 3.95116 11.8239 4.36973 11.8239C4.76877 11.8239 5.02293 11.9328 5.26709 12.0374C5.49991 12.1372 5.72364 12.2331 6.05524 12.2269C6.75976 12.2143 7.20021 11.5975 7.62796 10.9678C8.09318 10.2879 8.29789 9.6302 8.32867 9.53133L8.33217 9.5202C8.33217 9.5202 8.32545 9.51669 8.31499 9.51188C8.15731 9.4394 6.97288 8.89498 6.96117 7.44294C6.94923 6.22423 7.89353 5.60623 8.04859 5.50476C8.05848 5.49829 8.06516 5.49392 8.06817 5.49162C7.46429 4.5984 6.52073 4.49768 6.19361 4.47238Z" fill="#000000"/>
<path fill-rule="evenodd" clip-rule="evenodd" d="M16.6379 5.82075C16.6379 3.98186 15.362 2.71882 13.5299 2.71882L9.98971 2.71882V12.1621H11.4554V8.93581H13.4839C15.3358 8.93581 16.6379 7.66621 16.6379 5.82075ZM13.1371 7.70547H11.4553V3.95573H13.1436C14.4131 3.95573 15.1394 4.63635 15.1394 5.82731C15.1394 7.0184 14.4131 7.70547 13.1371 7.70547Z" fill="#000000"/>
<path fill-rule="evenodd" clip-rule="evenodd" d="M19.5816 8.17323C17.9456 8.26487 17.0229 9.00431 17.0229 10.2085C17.0229 11.4453 17.9653 12.283 19.3133 12.283C20.2162 12.283 21.0866 11.7988 21.4857 11.0331H21.5183V12.1652H22.8729V7.42065C22.8729 6.03984 21.8063 5.15637 20.1377 5.15637C18.4363 5.15637 17.3763 6.07253 17.2978 7.31601H18.6327C18.7569 6.70077 19.2673 6.3082 20.0855 6.3082C20.949 6.3082 21.466 6.76628 21.466 7.53199V8.06202L19.5816 8.17323ZM21.466 9.0437V9.58686C21.466 10.4833 20.6938 11.1639 19.7058 11.1639C18.9467 11.1639 18.4494 10.7713 18.4494 10.1693C18.4494 9.58029 18.927 9.20729 19.7712 9.14834L21.466 9.0437Z" fill="#000000"/>
<path d="M24.1502 14.6974V13.5521C24.2547 13.5782 24.4902 13.5782 24.6081 13.5782C25.2624 13.5782 25.6158 13.3034 25.8316 12.5967C25.8316 12.589 25.8744 12.4466 25.9097 12.3286C25.9347 12.2452 25.9561 12.174 25.9561 12.1713L23.4696 5.28024H25.0006L26.7414 10.8821H26.7674L28.5082 5.28024H30.0001L27.4217 12.5246C26.8331 14.1935 26.1525 14.7301 24.726 14.7301C24.6081 14.7301 24.2547 14.7169 24.1502 14.6974Z" fill="#000000"/>
</svg>
