<svg xmlns="http://www.w3.org/2000/svg" width="24" height="24" viewBox="0 0 24 24" fill="none"><rect width="24" height="24" fill="none"/>
<path d="M12 24C18.6274 24 24 18.6274 24 12C24 5.37258 18.6274 0 12 0C5.37258 0 0 5.37258 0 12C0 18.6274 5.37258 24 12 24Z" fill="#FF1418"/>
<path d="M12 24C18.6274 24 24 18.6274 24 12C24 5.37258 18.6274 0 12 0C5.37258 0 0 5.37258 0 12C0 18.6274 5.37258 24 12 24Z" fill="url(#paint0_linear_7768_68)"/>
<path d="M12 24C18.6274 24 24 18.6274 24 12C24 5.37258 18.6274 0 12 0C5.37258 0 0 5.37258 0 12C0 18.6274 5.37258 24 12 24Z" fill="url(#paint1_radial_7768_68)" fill-opacity="0.9"/>
<path d="M12.2524 4.8C12.9813 7.27121 14.9288 9.21757 17.4 9.94658V10.4524C14.929 11.1813 12.9826 13.1291 12.2534 15.6H11.7466C11.0175 13.1293 9.07067 11.1824 6.6 10.4534V9.9456C9.07077 9.21646 11.0178 7.27092 11.7466 4.8H12.2524Z" fill="white"/>
<path d="M16.7999 17.4H7.1999V19.2H16.7999V17.4Z" fill="white"/>
<defs>
<linearGradient id="paint0_linear_7768_68" x1="12" y1="25.5817" x2="12" y2="-7.42716e-07" gradientUnits="userSpaceOnUse">
<stop offset="0.0576923" stop-color="#5A3CFF"/>
<stop offset="1" stop-color="#FFAFAF" stop-opacity="0"/>
</linearGradient>
<radialGradient id="paint1_radial_7768_68" cx="0" cy="0" r="1" gradientUnits="userSpaceOnUse" gradientTransform="translate(12 12) rotate(90) scale(12)">
<stop offset="0.8751" stop-color="white" stop-opacity="0.05"/>
<stop offset="0.91" stop-color="white" stop-opacity="0.1"/>
<stop offset="1" stop-color="white" stop-opacity="0.4"/>
</radialGradient>
</defs>
</svg>
