<svg width="48" height="48" viewBox="0 0 48 48" fill="none" xmlns="http://www.w3.org/2000/svg">
<path d="M24 0C26.4614 0 28.7064 0.0927331 30.7351 0.245591C32.0905 0.34772 33 1.64076 33 3C33 9.62742 38.3726 15 45 15C46.3592 15 47.6523 15.9095 47.7544 17.2649C47.9073 19.2936 48 21.5386 48 24C48 26.4614 47.9073 28.7064 47.7544 30.7351C47.6523 32.0905 46.3592 33 45 33C38.3726 33 33 38.3726 33 45C33 46.3592 32.0905 47.6523 30.7351 47.7544C28.7064 47.9073 26.4614 48 24 48C19.3246 48 15.4298 47.6654 12.3158 47.2197C6.21531 46.3466 1.65342 41.7847 0.780288 35.6842C0.334589 32.5702 0 28.6754 0 24C0 19.3246 0.334589 15.4298 0.780288 12.3158C1.65342 6.21531 6.21531 1.65342 12.3158 0.780288C15.4298 0.334589 19.3246 0 24 0Z" fill="black"/>
</svg>
