<svg width="48" height="48" viewBox="0 0 48 48" fill="none" xmlns="http://www.w3.org/2000/svg">
<path d="M0.5 23C0.5 20.1915 0.500389 18.1152 0.634581 16.4727C0.768297 14.8361 1.03237 13.6744 1.53544 12.6871C2.44623 10.8996 3.89955 9.44623 5.68709 8.53544C6.67442 8.03237 7.83614 7.7683 9.47274 7.63458C11.1152 7.50039 13.1915 7.5 16 7.5H32C34.8085 7.5 36.8848 7.50039 38.5273 7.63458C40.1639 7.7683 41.3256 8.03237 42.3129 8.53544C44.1005 9.44623 45.5538 10.8996 46.4646 12.6871C46.9676 13.6744 47.2317 14.8361 47.3654 16.4727C47.4996 18.1152 47.5 20.1915 47.5 23V25C47.5 27.3115 47.4999 29.1289 47.4245 30.6196C47.3693 31.7095 46.3006 32.5 45 32.5C40.1789 32.5 35.9962 35.2294 33.9112 39.225C33.5113 39.9914 32.7849 40.5 32 40.5H16C13.1915 40.5 11.1152 40.4996 9.47274 40.3654C7.83614 40.2317 6.67442 39.9676 5.68709 39.4646C3.89955 38.5538 2.44623 37.1004 1.53544 35.3129C1.03237 34.3256 0.768297 33.1639 0.634581 31.5273C0.500389 29.8848 0.5 27.8085 0.5 25V23Z" stroke="black"/>
</svg>
