<svg width="32" height="32" viewBox="0 0 32 32" fill="none" xmlns="http://www.w3.org/2000/svg">
<path d="M0.520192 8.21052C1.10228 4.14354 4.14354 1.10228 8.21052 0.520192C10.2865 0.223059 12.883 0 16 0C19.117 0 21.7135 0.223059 23.7895 0.520192C27.8565 1.10228 30.8977 4.14354 31.4798 8.21052C31.7769 10.2865 32 12.883 32 16C32 19.117 31.7769 21.7135 31.4798 23.7895C30.8977 27.8565 27.8565 30.8977 23.7895 31.4798C21.7135 31.7769 19.117 32 16 32C12.883 32 10.2865 31.7769 8.21052 31.4798C4.14354 30.8977 1.10228 27.8565 0.520192 23.7895C0.223059 21.7135 0 19.117 0 16C0 12.883 0.223059 10.2865 0.520192 8.21052Z" fill="black"/>
</svg>
