<svg fill="none" height="56" viewBox="0 0 56 56" width="56" xmlns="http://www.w3.org/2000/svg"><path clip-rule="evenodd" d="m28 0c5.4547 0 9.9988.390175 13.6318.910156 1.0422.149174 2.0454.391854 3.0023.718614.9482.32379 1.3659 1.36923 1.3659 2.37123 0 3.31371 2.6863 6 6 6 1.002 0 2.0474.4177 2.3712 1.3659.3268.9569.5695 1.9601.7186 3.0023.52 3.633.9102 8.1771.9102 13.6318 0 3.4172-.1541 6.4769-.397 9.1791-.1552 1.7263-1.8697 2.8209-3.603 2.8209-6.6274 0-12 5.3726-12 12 0 1.7333-1.0946 3.4478-2.8209 3.603-2.7022.2429-5.7619.397-9.1791.397-5.4547 0-9.9988-.3902-13.6318-.9102-7.11707-1.0187-12.43932-6.3409-13.458044-13.458-.519981-3.633-.910156-8.1771-.910156-13.6318s.390175-9.9988.910156-13.6318c1.018724-7.11707 6.340974-12.43932 13.458044-13.458044 3.633-.519981 8.1771-.910156 13.6318-.910156z" fill="#000" fill-rule="evenodd"/></svg>