<svg width="64" height="64" viewBox="0 0 64 64" fill="none" xmlns="http://www.w3.org/2000/svg">
<path d="M32 0.5C35.3602 0.5 38.5965 1.02627 41.6318 2C42.8039 2.37599 43.5 3.62176 43.5 5C43.5 13.5604 50.4396 20.5 59 20.5C60.3782 20.5 61.624 21.1961 62 22.3682C62.9737 25.4035 63.5 28.6398 63.5 32C63.5 35.3602 62.9737 38.5965 62 41.6318C61.624 42.8039 60.3782 43.5 59 43.5C50.4396 43.5 43.5 50.4396 43.5 59C43.5 60.3782 42.8039 61.624 41.6318 62C38.5965 62.9737 35.3602 63.5 32 63.5C14.603 63.5 0.5 49.397 0.5 32C0.5 14.603 14.603 0.5 32 0.5Z" stroke="black"/>
</svg>
