<svg width="64" height="64" viewBox="0 0 64 64" fill="none" xmlns="http://www.w3.org/2000/svg">
<path d="M20.7998 9.5H43.2002C46.8485 9.5 49.5547 9.50075 51.6973 9.67578C53.8341 9.85036 55.3666 10.1958 56.6748 10.8623C59.0268 12.0607 60.9393 13.9732 62.1377 16.3252C62.8042 17.6334 63.1496 19.1659 63.3242 21.3027C63.4993 23.4453 63.5 26.1515 63.5 29.7998V34.2002C63.5 37.8485 63.4993 40.5547 63.3242 42.6973C63.1496 44.8341 62.8042 46.3666 62.1377 47.6748C60.9393 50.0268 59.0268 51.9393 56.6748 53.1377C55.3666 53.8042 53.8341 54.1496 51.6973 54.3242C49.5547 54.4993 46.8485 54.5 43.2002 54.5H20.7998C17.1515 54.5 14.4453 54.4993 12.3027 54.3242C10.1659 54.1496 8.63336 53.8042 7.3252 53.1377C4.97317 51.9393 3.06072 50.0268 1.8623 47.6748C1.19578 46.3666 0.850365 44.8341 0.675781 42.6973C0.500749 40.5547 0.5 37.8485 0.5 34.2002V29.7998C0.5 26.1515 0.500749 23.4453 0.675781 21.3027C0.850365 19.1659 1.19578 17.6334 1.8623 16.3252C3.06072 13.9732 4.97317 12.0607 7.3252 10.8623C8.63336 10.1958 10.1659 9.85036 12.3027 9.67578C14.4453 9.50075 17.1515 9.5 20.7998 9.5Z" stroke="black"/>
</svg>
