<svg width="64" height="64" viewBox="0 0 64 64" fill="none" xmlns="http://www.w3.org/2000/svg">
<path d="M32 0.5C34.9813 0.5 37.7231 0.602533 40.2246 0.774414C42.1476 0.906823 43.5 2.86784 43.5 5C43.5 13.5604 50.4396 20.5 59 20.5C61.1322 20.5 63.0932 21.8524 63.2256 23.7754C63.3975 26.2769 63.5 29.0187 63.5 32C63.5 34.9813 63.3975 37.7231 63.2256 40.2246C63.0932 42.1476 61.1322 43.5 59 43.5C50.4396 43.5 43.5 50.4396 43.5 59C43.5 61.1322 42.1476 63.0932 40.2246 63.2256C37.7231 63.3975 34.9813 63.5 32 63.5C25.7902 63.5 20.621 63.0558 16.4922 62.4648C8.57811 61.3321 2.66787 55.4219 1.53516 47.5078C0.944239 43.379 0.5 38.2098 0.5 32C0.5 25.7902 0.944238 20.621 1.53516 16.4922C2.66787 8.57811 8.57811 2.66787 16.4922 1.53516C20.621 0.944238 25.7902 0.5 32 0.5Z" stroke="black"/>
</svg>
