<svg fill="none" height="48" viewBox="0 0 48 48" width="48" xmlns="http://www.w3.org/2000/svg"><path d="m32 45c0-7.1797 5.8203-13 13-13 .9935 0 1.7036-.6477 1.7559-1.3369.1514-2.0046.2441-4.2257.2441-6.6631 0-4.6276-.3315-8.4754-.7705-11.543-.1035-.7231-.2635-1.422-.4746-2.0927-.0248-.0787-.0809-.1594-.207-.2325-.1349-.078-.3291-.1318-.5479-.1318-3.866 0-7-3.13401-7-7 0-.2185-.0544-.41274-.1328-.54785-.0735-.12658-.1544-.18316-.2334-.20801-.6701-.21066-1.3683-.37019-2.0908-.47363-3.0676-.43905-6.9154-.77051-11.543-.77051s-8.4754.33146-11.543.77051c-5.66028.81033-9.87616 5.02621-10.68649 10.68649-.43905 3.0676-.77051 6.9154-.77051 11.543s.33146 8.4754.77051 11.543c.81033 5.6603 5.02621 9.8762 10.68649 10.6865 3.0676.439 6.9154.7705 11.543.7705v1c-4.6754 0-8.5705-.3346-11.6846-.7803-6.10016-.8732-10.66189-5.4349-11.535127-11.5351-.445699-3.1141-.780273-7.0092-.780273-11.6846.00000005-4.6754.334574-8.5705.780273-11.6846.873237-6.10016 5.434967-10.66189 11.535127-11.535127 3.1141-.445699 7.0092-.780273 11.6846-.780273 4.6754.00000006 8.5705.334575 11.6846.780273.7763.111126 1.5273.282897 2.249.509767.7079.22253 1.0664.96793 1.0664 1.70996 0 3.31371 2.6863 6 6 6 .7416 0 1.4863.3571 1.709 1.0645.2273.7223.3995 1.4739.5107 2.2509.4457 3.1141.7803 7.0092.7803 11.6846 0 2.4627-.0937 4.7088-.2471 6.7383l-.0322.249c-.2315 1.2158-1.4471 2.0127-2.7207 2.0127-6.6274 0-12 5.3726-12 12 0 1.3586-.907 2.6505-2.2617 2.7529l-1.5625.1035c-1.6034.091-3.3287.1436-5.1758.1436v-1c2.4374 0 4.6585-.0927 6.6631-.2441.6892-.0523 1.3369-.7624 1.3369-1.7559z" fill="#000"/></svg>