<svg fill="none" height="40" viewBox="0 0 40 40" width="40" xmlns="http://www.w3.org/2000/svg"><path d="m24 37c0-7.1797 5.8203-13 13-13 .3705 0 .6366 0 .8301-.0029.2073-.0032.2703-.01.2705-.0098.3291-.0522.4878-.1497.5742-.2334.0864-.0838.1885-.2392.251-.5664.0001-.0008.0011-.0043.0019-.0107.0011-.0077.0024-.0189.0039-.0342.0032-.0318.0065-.0754.0098-.1367.0068-.1264.0117-.2951.0195-.5411.0252-.7896.0391-1.6112.0391-2.4648 0-3.8483-.2759-7.0471-.6406-9.5957-.013-.0901-.0611-.1836-.2129-.2744-.1662-.0994-.4157-.16312-.6826-.14552-.1533.01014-.3082.01562-.4639.01562-3.866 0-7-3.13401-7-7 0-.15609.0055-.31108.0156-.46484.0176-.26642-.0461-.51572-.1455-.68164-.0908-.15154-.1843-.19995-.2744-.2129-2.5486-.36477-5.7474-.64062-9.5957-.64062s-7.0471.27585-9.5957.64062c-4.64347.66486-8.09882 4.12021-8.76368 8.76368-.36477 2.5486-.64062 5.7474-.64062 9.5957s.27585 7.0471.64062 9.5957c.66486 4.6435 4.12021 8.0988 8.76368 8.7637 2.5486.3647 5.7474.6406 9.5957.6406v1c-3.8962 0-7.1423-.279-9.7373-.6504-5.08334-.7277-8.88455-4.529-9.612309-9.6123-.371416-2.595-.650391-5.8411-.650391-9.7373s.278975-7.1423.650391-9.7373c.727759-5.08334 4.528969-8.88455 9.612309-9.612309 2.595-.371416 5.8411-.650391 9.7373-.650391 3.8962.00000009 7.1423.278975 9.7373.650391.8824.126333 1.3341 1.060699 1.2754 1.950199l-.0127.39941c0 3.31371 2.6863 6 6 6l.3975-.0127c.8901-.05892 1.8257.39228 1.9521 1.2754.3714 2.595.6504 5.8411.6504 9.7373 0 .8644-.0136 1.6967-.0391 2.4971l-.0214.5625c-.0076.1395-.0166.2383-.0313.3154l-.0381.1719c-.2094.8328-.725 1.288-1.6133 1.4287l-.1591.0137c-.2033.0103-.5473.0107-1.0977.0107-6.6274 0-12 5.3726-12 12 0 .7341.0002 1.1014-.0244 1.2568l-.0322.1729c-.1829.8388-.685 1.3097-1.5684 1.4785l-.1338.0186c-.1557.0153-.3819.0226-.7441.0341l-1.2246.0293c-.4162.0067-.8403.0098-1.2725.0098v-1c.8536 0 1.6752-.0139 2.4648-.0391.246-.0078.4147-.0127.5411-.0195.0613-.0033.1049-.0066.1367-.0098.0153-.0015.0265-.0028.0342-.0039.0064-.0008.0099-.0018.0107-.0019.3272-.0625.4826-.1646.5664-.251.0837-.0864.1812-.2451.2334-.5742-.0002-.0002.0066-.0632.0098-.2705.0029-.1935.0029-.4596.0029-.8301z" fill="#000"/></svg>