<svg width="56" height="56" viewBox="0 0 56 56" fill="none" xmlns="http://www.w3.org/2000/svg">
<path d="M28 0.5C33.4306 0.5 37.9508 0.88863 41.5605 1.40527C48.4579 2.39246 53.6075 7.54212 54.5947 14.4395C55.1114 18.0492 55.5 22.5694 55.5 28C55.5 33.4306 55.1114 37.9508 54.5947 41.5605C53.6075 48.4579 48.4579 53.6075 41.5605 54.5947C37.9508 55.1114 33.4306 55.5 28 55.5C22.5694 55.5 18.0492 55.1114 14.4395 54.5947C7.54212 53.6075 2.39246 48.4579 1.40527 41.5605C0.88863 37.9508 0.5 33.4306 0.5 28C0.5 22.5694 0.88863 18.0492 1.40527 14.4395C2.39246 7.54212 7.54212 2.39246 14.4395 1.40527C18.0492 0.88863 22.5694 0.5 28 0.5Z" stroke="black"/>
</svg>
