<svg fill="none" height="64" viewBox="0 0 64 64" width="64" xmlns="http://www.w3.org/2000/svg"><path clip-rule="evenodd" d="m32 0c6.2339 0 11.4271.445774 15.5791 1.04004 2.0774.29734 4.0198.91798 5.7815 1.8098.4224.21381.6394.67676.6394 1.15016 0 3.31371 2.6863 6 6 6 .4734 0 .9364.217 1.1502.6394.8918 1.7617 1.5124 3.7041 1.8098 5.7815.5942 4.152 1.04 9.3452 1.04 15.5791 0 2.9937-.1036 5.7472-.2769 8.2608-.1572 2.2804-2.4373 3.7392-4.7231 3.7392-8.2843 0-15 6.7157-15 15 0 2.2858-1.4588 4.5659-3.7392 4.7231-2.5136.1733-5.2671.2769-8.2608.2769-6.2339 0-11.4271-.4458-15.5791-1.04-8.13389-1.1642-14.21665-7.247-15.38086-15.3809-.594266-4.152-1.04004-9.3452-1.04004-15.5791s.445774-11.4271 1.04004-15.5791c1.16421-8.13389 7.24697-14.21665 15.38086-15.38086 4.152-.594266 9.3452-1.04004 15.5791-1.04004z" fill="#000" fill-rule="evenodd"/></svg>