<svg fill="none" height="64" viewBox="0 0 64 64" width="64" xmlns="http://www.w3.org/2000/svg"><path d="m32 0c6.2339.00000009 11.4271.445774 15.5791 1.04004 2.0769.29727 4.0192.9171 5.7806 1.80843.4229.214.6403.67755.6403 1.15153 0 3.31371 2.6863 6 6 6 .4734 0 .9364.216 1.1502.6384.8919 1.762 1.5124 3.7048 1.8098 5.7825.5942 4.152 1.04 9.3452 1.04 15.5791s-.4458 11.4271-1.04 15.5791c-1.1642 8.1339-7.247 14.2167-15.3809 15.3809-4.152.5942-9.3452 1.04-15.5791 1.04s-11.4271-.4458-15.5791-1.04c-8.13389-1.1642-14.21665-7.247-15.38086-15.3809-.594266-4.152-1.04004-9.3452-1.04004-15.5791s.445774-11.4271 1.04004-15.5791c1.16421-8.13389 7.24697-14.21665 15.38086-15.38086 4.152-.594266 9.3452-1.04004 15.5791-1.04004z" fill="#000"/></svg>