<svg width="48" height="48" viewBox="0 0 48 48" fill="none" xmlns="http://www.w3.org/2000/svg">
<path d="M24 0C26.7714 0 29.4332 0.469761 31.9099 1.334C32.5996 1.57469 33 2.26945 33 3C33 9.62742 38.3726 15 45 15C45.7305 15 46.4253 15.4004 46.666 16.0901C47.5302 18.5668 48 21.2286 48 24C48 26.7714 47.5302 29.4332 46.666 31.9099C46.4253 32.5996 45.7305 33 45 33C38.3726 33 33 38.3726 33 45C33 45.7305 32.5996 46.4253 31.9099 46.666C29.4332 47.5302 26.7714 48 24 48C10.7452 48 0 37.2548 0 24C0 10.7452 10.7452 0 24 0Z" fill="black"/>
</svg>
