<svg fill="none" height="40" viewBox="0 0 40 40" width="40" xmlns="http://www.w3.org/2000/svg"><path d="m20 0c3.8962.00000009 7.1423.278975 9.7373.650391.8824.126333 1.3345 1.060679 1.2758 1.950169-.0087.13202-.0131.26521-.0131.39944 0 3.31371 2.6863 6 6 6 .1336 0 .2661-.00443.3975-.01312.8901-.05892 1.8257.3927 1.9521 1.27582.3714 2.595.6504 5.8411.6504 9.7373s-.279 7.1423-.6504 9.7373c-.7277 5.0833-4.529 8.8846-9.6123 9.6123-2.595.3714-5.8411.6504-9.7373.6504s-7.1423-.279-9.7373-.6504c-5.08334-.7277-8.88455-4.529-9.612309-9.6123-.371416-2.595-.650391-5.8411-.650391-9.7373s.278975-7.1423.650391-9.7373c.727759-5.08334 4.528969-8.88455 9.612309-9.612309 2.595-.371416 5.8411-.650391 9.7373-.650391z" fill="#000"/></svg>