<svg fill="none" height="40" viewBox="0 0 40 40" width="40" xmlns="http://www.w3.org/2000/svg"><path d="m24 37c0-7.1797 5.8203-13 13-13 .3145 0 .5342-.0003.6973-.0039.08-.0018.1372-.004.1787-.0068.0323-.0023.0479-.0044.0517-.0049.4012-.0713.644-.2807.7735-.667.0216-.0647.0357-.1373.0918-.5147.1358-.9143.207-1.85.207-2.8027 0-3.1775-.7799-6.1699-2.1572-8.7998-.336-.6416-.4082-.7505-.5108-.8438-.0021-.0014-.0991-.0742-.4716-.2431-.347-.15731-.83-.3543-1.5088-.63185-1.7368-.71015-3.1237-2.0972-3.834-3.83399-.2777-.67892-.4745-1.16174-.6319-1.50879-.1645-.36295-.238-.46459-.2431-.47168-.0933-.10252-.2031-.17479-.8447-.51074-2.6295-1.37668-5.6211-2.15625-8.7979-2.15625-10.49341 0-19 8.50659-19 19 0 10.4934 8.50659 19 19 19v1c-11.04569 0-20-8.9543-20-20 0-11.04569 8.95431-20 20-20 3.3423 0 6.4927.820703 9.2617 2.27051.5876.30767.8821.46116 1.1201.72265.2381.26163.5124.93367 1.0616 2.27637.6087 1.48833 1.7986 2.67756 3.2871 3.28613 1.3413.54843 2.0125.82258 2.2744 1.06055.2616.23805.4158.53239.7236 1.12009 1.4505 2.7695 2.2715 5.9206 2.2715 9.2637 0 1.0024-.0747 1.9876-.2178 2.9502l-.0644.4092c-.0199.1074-.0404.1927-.0684.2763l-.0498.1338c-.2645.656-.7831 1.0724-1.4971 1.1993-.1736.0307-.4833.0312-1.1025.0312-6.6274 0-12 5.3726-12 12 0 .6192-.0005.9289-.0312 1.1025-.1353.7615-.5999 1.3011-1.3331 1.5469l-.1289.0371c-.1353.0333-.2973.0572-.5566.0957l-.7266.0948c-.73.0812-1.4719.123-2.2236.123v-1c.9527 0 1.8884-.0712 2.8027-.207.3774-.0561.45-.0702.5147-.0918.3863-.1295.5957-.3723.667-.7735.0005-.0038.0026-.0194.0049-.0517.0028-.0415.005-.0987.0068-.1787.0036-.1631.0039-.3828.0039-.6973z" fill="#000"/></svg>