<svg fill="none" height="48" viewBox="0 0 48 48" width="48" xmlns="http://www.w3.org/2000/svg"><path d="m32 45c0-7.1797 5.8203-13 13-13 .3952 0 .6465-.2112.7188-.418.8289-2.3731 1.2812-4.9238 1.2812-7.582 0-5.5235-1.946-10.5896-5.1904-14.55469-.2065-.2523-.4882-.47071-.875-.74707-.6305-.45036-1.1823-1.00326-1.6328-1.63379-.2767-.38714-.4957-.66842-.7481-.875-3.9649-3.24376-9.0309-5.18945-14.5537-5.18945-12.7025 0-23 10.2975-23 23s10.2975 23 23 23v1c-13.2548 0-24-10.7452-24-24s10.7452-24 24-24c5.7619 0 11.0496 2.03055 15.1865 5.41504.3668.30005.6533.6828.9287 1.06836.3864.5407.8606 1.0141 1.4014 1.40039.3852.2752.7676.56133 1.0674.92773 3.3853 4.13718 5.416 9.42578 5.416 15.18848 0 2.7725-.4716 5.4348-1.3369 7.9121l-.0508.125c-.2769.6111-.9288.9629-1.6123.9629-6.6274 0-12 5.3726-12 12 0 .7289-.3998 1.4226-1.0879 1.6631l-.4668.1572c-2.3439.7649-4.846 1.1797-7.4453 1.1797v-1c2.6582 0 5.2089-.4523 7.582-1.2812.2068-.0723.418-.3236.418-.7188z" fill="#000"/></svg>