<svg width="128" height="128" viewBox="0 0 128 128" fill="none" xmlns="http://www.w3.org/2000/svg">
<path fill-rule="evenodd" clip-rule="evenodd" d="M127.383 40.0155C126.935 36.6005 123.258 35.142 119.858 35.6915C118.602 35.8945 117.313 36 116 36C106.45 36 98.2034 30.4225 94.339 22.3474C93.1631 19.8903 90.8612 18.0011 88.1373 18.0002C87.5699 18 86.9909 18 86.4 18H41.6C27.0386 18 19.758 18 14.1962 20.8338C9.30403 23.3265 5.32654 27.304 2.83383 32.1962C0 37.758 0 45.0386 0 59.6V68.4C0 82.9614 0 90.2421 2.83383 95.8038C5.32654 100.696 9.30403 104.673 14.1962 107.166C19.758 110 27.0386 110 41.6 110H86.4C100.961 110 108.242 110 113.804 107.166C118.696 104.673 122.673 100.696 125.166 95.8038C128 90.2421 128 82.9614 128 68.4V59.6C128 50.8409 128 44.7163 127.383 40.0155Z" fill="black"/>
</svg>
