<svg width="80" height="80" viewBox="0 0 80 80" fill="none" xmlns="http://www.w3.org/2000/svg">
<path d="M26 11.75H54C58.5584 11.75 61.9473 11.7504 64.6318 11.9697C67.3106 12.1886 69.2446 12.6231 70.9004 13.4668C73.8639 14.9768 76.2732 17.3861 77.7832 20.3496C78.6269 22.0054 79.0614 23.9394 79.2803 26.6182C79.4996 29.3027 79.5 32.6916 79.5 37.25V42.75C79.5 47.3084 79.4996 50.6973 79.2803 53.3818C79.0614 56.0606 78.6269 57.9946 77.7832 59.6504C76.2732 62.6139 73.8639 65.0232 70.9004 66.5332C69.2446 67.3769 67.3106 67.8114 64.6318 68.0303C61.9473 68.2496 58.5584 68.25 54 68.25H26C21.4416 68.25 18.0527 68.2496 15.3682 68.0303C12.6894 67.8114 10.7554 67.3769 9.09961 66.5332C6.13613 65.0232 3.72679 62.6139 2.2168 59.6504C1.37313 57.9946 0.938593 56.0606 0.719727 53.3818C0.500417 50.6973 0.5 47.3084 0.5 42.75V37.25L0.503906 34.043C0.514297 31.041 0.555248 28.6315 0.719727 26.6182C0.938593 23.9394 1.37313 22.0054 2.2168 20.3496C3.72679 17.3861 6.13613 14.9768 9.09961 13.4668C10.7554 12.6231 12.6894 12.1886 15.3682 11.9697C18.0527 11.7504 21.4416 11.75 26 11.75Z" stroke="black"/>
</svg>
