<svg width="80" height="80" viewBox="0 0 80 80" fill="none" xmlns="http://www.w3.org/2000/svg">
<path fill-rule="evenodd" clip-rule="evenodd" d="M79.9491 29.498C79.8486 25.5289 75.5372 23.8413 71.5696 23.9894C71.3806 23.9964 71.1907 24 71 24C63.993 24 58.1082 19.1955 56.4601 12.7011C56.2161 11.7398 55.3919 11 54.4 11H25.6C16.6392 11 12.1587 11 8.73615 12.7439C5.72556 14.2779 3.27787 16.7256 1.7439 19.7362C0 23.1587 0 27.6392 0 36.6V43.4C0 52.3608 0 56.8413 1.7439 60.2638C3.27787 63.2744 5.72556 65.7221 8.73615 67.2561C12.1587 69 16.6392 69 25.6 69H54.4C63.3608 69 67.8413 69 71.2638 67.2561C74.2744 65.7221 76.7221 63.2744 78.2561 60.2638C80 56.8413 80 52.3608 80 43.4V36.6C80 33.8413 80 31.5073 79.9491 29.498Z" fill="black"/>
</svg>
