<svg fill="none" height="72" viewBox="0 0 72 72" width="72" xmlns="http://www.w3.org/2000/svg"><path d="m71 36c0-6.9652-.4992-12.7601-1.1611-17.3848-.3208-2.2408-.9883-4.3312-1.9483-6.2216-.0964-.1898-.3867-.3936-.8906-.3936-3.866 0-7-3.13401-7-7 0-.50327-.2046-.79471-.3955-.8916-1.89-.95936-3.9796-1.62663-6.2197-1.94727-4.6247-.6619-10.4196-1.16113-17.3848-1.16113s-12.7601.49923-17.3848 1.16113c-8.71072 1.24683-15.20724 7.74335-16.45407 16.45407-.66191 4.6247-1.16113 10.4196-1.16113 17.3848s.49923 12.7601 1.16113 17.3848c1.24683 8.7107 7.74335 15.2072 16.45407 16.4541 4.6247.6619 10.4196 1.1611 17.3848 1.1611v1c-7.0132 0-12.8553-.5023-17.5264-1.1709-9.15059-1.3097-15.99297-8.1521-17.3027-17.3027-.66855-4.6711-1.17089995-10.5132-1.1709-17.5264 0-7.0132.50235-12.8553 1.1709-17.5264 1.30973-9.15059 8.15211-15.99297 17.3027-17.3027 4.6711-.66855 10.5132-1.1709 17.5264-1.1709 7.0132.00000021 12.8553.50235 17.5264 1.1709 2.347.33593 4.5423 1.03631 6.5312 2.0459.6456.32795.9424 1.059.9424 1.7832 0 3.31371 2.6863 6 6 6 .7238 0 1.4545.296 1.7822.9414 1.0101 1.9893 1.7109 4.1846 2.0469 6.5322.6686 4.6711 1.1709 10.5132 1.1709 17.5264s-.5023 12.8553-1.1709 17.5264c-1.3097 9.1506-8.1521 15.993-17.3027 17.3027-4.6711.6686-10.5132 1.1709-17.5264 1.1709v-1c6.9652 0 12.7601-.4992 17.3848-1.1611 8.7107-1.2469 15.2072-7.7434 16.4541-16.4541.6619-4.6247 1.1611-10.4196 1.1611-17.3848z" fill="#000"/></svg>