<svg width="128" height="128" viewBox="0 0 128 128" fill="none" xmlns="http://www.w3.org/2000/svg">
<path d="M64 0.5C72.2935 0.5 79.6622 0.896039 86.1064 1.51074C87.9291 1.6846 89.3855 2.75181 90.3535 4.2793C91.3247 5.81193 91.7855 7.7845 91.6074 9.68555C91.536 10.4474 91.5 11.2197 91.5 12C91.5 25.531 102.469 36.5 116 36.5C116.78 36.5 117.553 36.464 118.314 36.3926C120.215 36.2145 122.188 36.6753 123.721 37.6465C125.248 38.6145 126.315 40.0709 126.489 41.8936C127.104 48.3378 127.5 55.7065 127.5 64C127.5 76.4439 126.609 86.8061 125.424 95.0869C123.127 111.135 111.135 123.127 95.0869 125.424C86.8061 126.609 76.4439 127.5 64 127.5C51.5561 127.5 41.1939 126.609 32.9131 125.424C16.8651 123.127 4.87306 111.135 2.57617 95.0869C1.39097 86.8061 0.5 76.4439 0.5 64C0.5 51.5561 1.39097 41.1939 2.57617 32.9131C4.87306 16.8651 16.8651 4.87306 32.9131 2.57617C41.1939 1.39097 51.5561 0.5 64 0.5Z" stroke="black"/>
</svg>
