<svg width="72" height="72" viewBox="0 0 72 72" fill="none" xmlns="http://www.w3.org/2000/svg">
<path d="M36 0C39.2614 0 42.2695 0.108536 45.0243 0.291896C48.149 0.499869 50 3.86842 50 7C50 15.2843 56.7157 22 65 22C68.1316 22 71.5001 23.851 71.7081 26.9756C71.8915 29.7305 72 32.7386 72 36C72 39.2614 71.8915 42.2695 71.7081 45.0243C71.5001 48.149 68.1316 50 65 50C56.7157 50 50 56.7157 50 65C50 68.1316 48.149 71.5001 45.0243 71.7081C42.2695 71.8915 39.2614 72 36 72C28.9868 72 23.1447 71.4981 18.4737 70.8296C9.32296 69.5199 2.48014 62.677 1.17043 53.5263C0.501883 48.8553 0 43.0132 0 36C0 28.9868 0.501884 23.1447 1.17043 18.4737C2.48014 9.32296 9.32296 2.48014 18.4737 1.17043C23.1447 0.501883 28.9868 0 36 0Z" fill="black"/>
</svg>
