<svg width="24" height="24" viewBox="0 0 24 24" fill="none" xmlns="http://www.w3.org/2000/svg">
<path d="M0 11.175C0 8.44474 0 7.07962 0.531343 6.0368C0.998726 5.11951 1.74451 4.37373 2.6618 3.90634C3.70462 3.375 5.06974 3.375 7.8 3.375H16.2C18.9303 3.375 20.2954 3.375 21.3382 3.90634C22.2555 4.37373 23.0013 5.11951 23.4687 6.0368C24 7.07962 24 8.44474 24 11.175V12.825C24 15.5553 24 16.9204 23.4687 17.9632C23.0013 18.8805 22.2555 19.6263 21.3382 20.0937C20.2954 20.625 18.9303 20.625 16.2 20.625H7.8C5.06974 20.625 3.70462 20.625 2.6618 20.0937C1.74451 19.6263 0.998726 18.8805 0.531343 17.9632C0 16.9204 0 15.5553 0 12.825V11.175Z" fill="black"/>
</svg>
