<svg fill="none" height="40" viewBox="0 0 40 40" width="40" xmlns="http://www.w3.org/2000/svg"><path clip-rule="evenodd" d="m20 0c3.8962 0 7.1423.278975 9.7373.650391.8826.126356 1.3344 1.061699 1.2758 1.951349-.0087.13163-.0131.26443-.0131.39826 0 3.31371 2.6863 6 6 6 .1338 0 .2666-.00441.3983-.01309.8896-.05865 1.825.3932 1.9513 1.27579.3714 2.595.6504 5.8411.6504 9.7373 0 .8644-.0138 1.6967-.0392 2.4971-.0154.4825-.0231.7238-.0526.8783-.1801.9424-.7041 1.45-1.6517 1.6-.1554.0246-.5224.0246-1.2565.0246-6.6274 0-12 5.3726-12 12 0 .7341 0 1.1011-.0246 1.2565-.15.9476-.6576 1.4716-1.6 1.6517-.1545.0295-.3958.0372-.8783.0526-.8004.0254-1.6327.0392-2.4971.0392-3.8962 0-7.1423-.279-9.7373-.6504-5.08334-.7277-8.88455-4.529-9.612309-9.6123-.371416-2.595-.650391-5.8411-.650391-9.7373s.278975-7.1423.650391-9.7373c.727759-5.08334 4.528969-8.88455 9.612309-9.612309 2.595-.371416 5.8411-.650391 9.7373-.650391z" fill="#000" fill-rule="evenodd"/></svg>