<svg width="24" height="24" viewBox="0 0 24 24" fill="none" xmlns="http://www.w3.org/2000/svg">
<path d="M7.7998 3.875H16.2002C17.5735 3.875 18.5735 3.87509 19.3613 3.93945C20.1432 4.00335 20.6722 4.12781 21.1113 4.35156C21.9345 4.77101 22.604 5.44046 23.0234 6.26367C23.2472 6.70282 23.3717 7.23176 23.4355 8.01367C23.4999 8.80147 23.5 9.80153 23.5 11.1748V12.8252C23.5 14.1985 23.4999 15.1985 23.4355 15.9863C23.3717 16.7682 23.2472 17.2972 23.0234 17.7363C22.604 18.5595 21.9345 19.229 21.1113 19.6484C20.6722 19.8722 20.1432 19.9967 19.3613 20.0605C18.5735 20.1249 17.5735 20.125 16.2002 20.125H7.7998C6.42653 20.125 5.42647 20.1249 4.63867 20.0605C3.85676 19.9967 3.32782 19.8722 2.88867 19.6484C2.06546 19.229 1.39601 18.5595 0.976562 17.7363C0.75281 17.2972 0.628347 16.7682 0.564453 15.9863C0.500088 15.1985 0.5 14.1985 0.5 12.8252V11.1748C0.5 9.80153 0.500088 8.80147 0.564453 8.01367C0.628347 7.23176 0.75281 6.70282 0.976562 6.26367C1.39601 5.44046 2.06546 4.77101 2.88867 4.35156C3.32782 4.12781 3.85676 4.00335 4.63867 3.93945C5.42647 3.87509 6.42653 3.875 7.7998 3.875Z" stroke="black"/>
</svg>
