<svg fill="none" height="80" viewBox="0 0 80 80" width="80" xmlns="http://www.w3.org/2000/svg"><path d="m55 71c0-8.8366 7.1634-16 16-16 1.7806 0 3.7-.4929 5.1758-1.4033 1.4688-.9062 2.4029-2.1559 2.5039-3.6778.201-3.0275.3203-6.3338.3203-9.9189 0-7.7445-.5548-14.1884-1.291-19.332-.362-2.5293-1.1197-4.8878-2.211-7.0176-.1874-.3658-.7063-.6504-1.498-.6504-3.866 0-7-3.13401-7-7 0-.79128-.2856-1.3112-.6523-1.49902-2.1294-1.0906-4.4871-1.84804-7.0157-2.20996-5.1436-.73619-11.5875-1.29102-19.332-1.29102s-14.1884.55483-19.332 1.29102c-9.7276 1.39232-16.98466 8.64938-18.37698 18.37698-.73619 5.1436-1.29102 11.5875-1.29102 19.332s.55483 14.1884 1.29102 19.332c1.39232 9.7276 8.64938 16.9847 18.37698 18.377 5.1436.7362 11.5875 1.291 19.332 1.291v1c-7.7924 0-14.2836-.558-19.4736-1.3008-10.1675-1.4552-17.77039-9.0581-19.22562-19.2256-.742828-5.19-1.30078-11.6812-1.30078-19.4736s.557951-14.2836 1.30078-19.4736c1.45523-10.1675 9.05812-17.77039 19.22562-19.22562 5.19-.742828 11.6812-1.30078 19.4736-1.30078 7.7924.00000018 14.2836.557952 19.4736 1.30078 2.6366.37737 5.1009 1.16784 7.3301 2.30957.8527.43674 1.1963 1.43161 1.1963 2.38965 0 3.31371 2.6863 6 6 6 .9575 0 1.951.3423 2.3877 1.1943 1.1424 2.2298 1.934 4.6946 2.3115 7.3321.7428 5.19 1.3008 11.6812 1.3008 19.4736 0 3.6073-.1198 6.9358-.3223 9.9854l-.0361.3584c-.5034 3.653-4.8744 5.6562-8.6416 5.6562-8.2843 0-15 6.7157-15 15 0 3.8886-2.1346 8.4202-6.0146 8.6777l-1.1563.0723c-2.7295.1586-5.6725.25-8.8291.25v-1c3.5851 0 6.8914-.1193 9.9189-.3203 1.5219-.101 2.7716-1.0351 3.6778-2.5039.9104-1.4758 1.4033-3.3952 1.4033-5.1758z" fill="#000"/></svg>