<svg fill="none" height="48" viewBox="0 0 48 48" width="48" xmlns="http://www.w3.org/2000/svg"><path clip-rule="evenodd" d="m24 0c4.6754 0 8.5705.334576 11.6846.780273.7768.111206 1.5282.283547 2.2503.510907.7072.22269 1.0651.96732 1.0651 1.70882 0 3.31371 2.6863 6 6 6 .7415 0 1.4861.35787 1.7088 1.0651.2274.7221.3997 1.4735.5109 2.2503.4457 3.1141.7803 7.0092.7803 11.6846 0 2.4627-.0934 4.7087-.2467 6.7382-.1024 1.3548-1.3946 2.2618-2.7533 2.2618-6.6274 0-12 5.3726-12 12 0 1.3587-.907 2.6509-2.2618 2.7533-2.0295.1533-4.2755.2467-6.7382.2467-4.6754 0-8.5705-.3346-11.6846-.7803-6.10016-.8732-10.66189-5.4349-11.535127-11.5351-.445697-3.1141-.780273-7.0092-.780273-11.6846s.334576-8.5705.780273-11.6846c.873237-6.10016 5.434967-10.66189 11.535127-11.535127 3.1141-.445697 7.0092-.780273 11.6846-.780273z" fill="#000" fill-rule="evenodd"/></svg>