<svg fill="none" height="56" viewBox="0 0 56 56" width="56" xmlns="http://www.w3.org/2000/svg"><path d="m37.7998 8c4.238 0 7.0657.00303 9.2006.36887.6436.11028 1.2114.45544 1.7609.80816.4483.28777.9375.51744 1.4569.67856.6035.18721 1.215.38931 1.7.79431 1.1711.9779 2.1409 2.186 2.8416 3.561 1.2398 2.4333 1.2402 5.6187 1.2402 11.9893v3.8496c0 3.0482-.0003 5.3672-.1363 7.2234-.1364 1.8608-1.998 2.8518-3.8637 2.8518-4.258 0-7.9961 2.2184-10.1253 5.5621-.914 1.4354-2.3732 2.5629-4.0749 2.5629h-19.5996c-6.3706 0-9.55602-.0004-11.98926-1.2402-2.14026-1.0906-3.88016-2.8305-4.97071-4.9707-1.23979655-2.4333-1.24023-5.6187-1.24023-11.9893v-3.8496c0-6.3706.00043345-9.556 1.24023-11.9893 1.09055-2.1402 2.83045-3.8801 4.97071-4.97067 2.43324-1.2398 5.61866-1.24023 11.98926-1.24023z" fill="#000"/></svg>