<svg width="24" height="24" viewBox="0 0 24 24" fill="none" xmlns="http://www.w3.org/2000/svg">
<path d="M12 0.5C14.3138 0.5 16.2377 0.66524 17.7715 0.884766C20.6017 1.28991 22.7101 3.3983 23.1152 6.22852C23.3348 7.76231 23.5 9.68622 23.5 12C23.5 14.3138 23.3348 16.2377 23.1152 17.7715C22.7101 20.6017 20.6017 22.7101 17.7715 23.1152C16.2377 23.3348 14.3138 23.5 12 23.5C9.68622 23.5 7.76231 23.3348 6.22852 23.1152C3.3983 22.7101 1.28991 20.6017 0.884766 17.7715C0.66524 16.2377 0.5 14.3138 0.5 12C0.5 9.68622 0.66524 7.76231 0.884766 6.22852C1.28991 3.3983 3.3983 1.28991 6.22852 0.884766C7.76231 0.66524 9.68622 0.5 12 0.5Z" stroke="black"/>
</svg>
