<svg width="128" height="128" viewBox="0 0 128 128" fill="none" xmlns="http://www.w3.org/2000/svg">
<path d="M64 0.5C76.4439 0.5 86.8061 1.39097 95.0869 2.57617C111.135 4.87306 123.127 16.865 125.424 32.9131C126.609 41.1939 127.5 51.5561 127.5 64C127.5 72.2935 127.104 79.6622 126.489 86.1064C126.315 87.9291 125.248 89.3855 123.721 90.3535C122.188 91.3247 120.215 91.7855 118.314 91.6074C117.553 91.536 116.78 91.5 116 91.5C102.469 91.5 91.5 102.469 91.5 116C91.5 116.78 91.536 117.553 91.6074 118.314C91.7855 120.215 91.3247 122.188 90.3535 123.721C89.3855 125.248 87.9291 126.315 86.1064 126.489C79.6622 127.104 72.2935 127.5 64 127.5C51.5561 127.5 41.1939 126.609 32.9131 125.424C16.8651 123.127 4.87306 111.135 2.57617 95.0869C1.39097 86.8061 0.5 76.4439 0.5 64C0.5 51.5561 1.39097 41.1939 2.57617 32.9131C4.87306 16.8651 16.8651 4.87306 32.9131 2.57617C41.1939 1.39097 51.5561 0.5 64 0.5Z" stroke="black"/>
</svg>
