<svg width="80" height="80" viewBox="0 0 80 80" fill="none" xmlns="http://www.w3.org/2000/svg">
<path fill-rule="evenodd" clip-rule="evenodd" d="M56 9C56 5.97367 54.8407 2.71945 51.9523 1.81625C48.178 0.636041 44.1633 0 40 0C17.9086 0 0 17.9086 0 40C0 62.0914 17.9086 80 40 80C44.1633 80 48.178 79.364 51.9523 78.1837C54.8407 77.2805 56 74.0263 56 71C56 62.7157 62.7157 56 71 56C74.0263 56 77.2805 54.8407 78.1837 51.9523C79.364 48.178 80 44.1633 80 40C80 35.8367 79.364 31.822 78.1837 28.0477C77.2805 25.1593 74.0263 24 71 24C62.7157 24 56 17.2843 56 9Z" fill="black"/>
</svg>
