<svg width="80" height="80" viewBox="0 0 80 80" fill="none" xmlns="http://www.w3.org/2000/svg">
<path d="M40 0.5C47.7685 0.5 54.2365 1.05639 59.4033 1.7959C69.3505 3.21981 76.7802 10.6495 78.2041 20.5967C78.9436 25.7635 79.5 32.2315 79.5 40C79.5 47.7685 78.9436 54.2365 78.2041 59.4033C76.7802 69.3505 69.3505 76.7802 59.4033 78.2041C54.2365 78.9436 47.7685 79.5 40 79.5C32.2315 79.5 25.7635 78.9436 20.5967 78.2041C10.6495 76.7802 3.21981 69.3505 1.7959 59.4033C1.05639 54.2365 0.5 47.7685 0.5 40C0.5 32.2315 1.05639 25.7635 1.7959 20.5967C3.21981 10.6495 10.6495 3.21981 20.5967 1.7959C25.7635 1.05639 32.2315 0.5 40 0.5Z" stroke="black"/>
</svg>
