<svg width="56" height="56" viewBox="0 0 56 56" fill="none" xmlns="http://www.w3.org/2000/svg">
<path d="M0 26.075C0 19.7044 0 16.5191 1.2398 14.0859C2.33036 11.9455 4.07051 10.2054 6.21086 9.1148C8.6441 7.875 11.8294 7.875 18.2 7.875H37.8C44.1706 7.875 47.3559 7.875 49.7891 9.1148C51.9295 10.2054 53.6696 11.9455 54.7602 14.0859C56 16.5191 56 19.7044 56 26.075V29.925C56 36.2956 56 39.4809 54.7602 41.9141C53.6696 44.0545 51.9295 45.7946 49.7891 46.8852C47.3559 48.125 44.1706 48.125 37.8 48.125H18.2C11.8294 48.125 8.6441 48.125 6.21086 46.8852C4.07051 45.7946 2.33036 44.0545 1.2398 41.9141C0 39.4809 0 36.2956 0 29.925V26.075Z" fill="black"/>
</svg>
