<svg fill="none" height="40" viewBox="0 0 40 40" width="40" xmlns="http://www.w3.org/2000/svg"><path d="m27.2002 33v1h-14.4004v-1zm11.7998-11.7998v-2.4004c0-2.2566-.0005-3.8891-.1055-5.1728-.1039-1.272-.3051-2.1136-.6572-2.8047-.0819-.1608-.1707-.3184-.2646-.4717-.1048-.1705-.3994-.3506-.9727-.3506-1.6649 0-3.1968-.58223-4.3984-1.55371-.5911-.47783-1.0143-.82021-1.3301-1.05859-.3481-.26277-.4586-.31448-.4531-.3125-.1202-.04321-.2877-.05864-1.1133-.06739-.7458-.0079-1.574-.00781-2.5049-.00781h-14.4004c-2.2566 0-3.88906.00054-5.17285.10547-1.27191.10396-2.11356.30514-2.80468.65723-1.31714.67111-2.38846 1.74243-3.05957 3.0596-.35209.6911-.55327 1.5327-.65723 2.8047-.10493 1.2837-.10547 2.9162-.10547 5.1728v2.4004c0 2.2566.00054 3.8891.10547 5.1728.10396 1.272.30514 2.1136.65723 2.8047.67111 1.3172 1.74243 2.3885 3.05957 3.0596.69112.3521 1.53277.5533 2.80468.6572 1.28379.105 2.91625.1055 5.17285.1055v1c-4.48027 0-6.72037-.0001-8.43164-.8721-1.50529-.767-2.7291-1.9908-3.49609-3.4961-.87192462-1.7112-.87207-3.9513-.87207-8.4316v-2.4004c0-4.4803.00014561-6.7204.87207-8.4316.76699-1.50533 1.9908-2.72914 3.49609-3.49613 1.71127-.87192 3.95137-.87207 8.43164-.87207h14.4004c.9296 0 1.7627-.00015 2.5146.00781.7489.00794 1.1236.01271 1.4414.12696.3179.11432.9038.58685 2.0743 1.5332 1.0302.8329 2.3415 1.33203 3.7695 1.33203.7144 0 1.4529.21901 1.8262.82813.1074.17537.2078.35577.3017.54007.872 1.7112.8721 3.9513.8721 8.4316v2.4004c0 4.4803-.0001 6.7204-.8721 8.4316-.767 1.5053-1.9908 2.7291-3.4961 3.4961-1.7112.872-3.9513.8721-8.4316.8721v-1c2.2566 0 3.8891-.0005 5.1728-.1055 1.272-.1039 2.1136-.3051 2.8047-.6572 1.3172-.6711 2.3885-1.7424 3.0596-3.0596.3521-.6911.5533-1.5327.6572-2.8047.105-1.2837.1055-2.9162.1055-5.1728z" fill="#000"/></svg>