<svg width="56" height="56" viewBox="0 0 56 56" fill="none" xmlns="http://www.w3.org/2000/svg">
<path d="M28 0.5C31.4002 0.5 34.4436 0.651862 37.1299 0.892578C38.5102 1.0164 39.5 2.42433 39.5 4C39.5 10.9036 45.0964 16.5 52 16.5C53.5757 16.5 54.9836 17.4898 55.1074 18.8701C55.3481 21.5564 55.5 24.5998 55.5 28C55.5 31.4002 55.3481 34.4436 55.1074 37.1299C54.9836 38.5102 53.5757 39.5 52 39.5C45.0964 39.5 39.5 45.0964 39.5 52C39.5 53.5757 38.5102 54.9836 37.1299 55.1074C34.4436 55.3481 31.4002 55.5 28 55.5C22.5694 55.5 18.0492 55.1114 14.4395 54.5947C7.54212 53.6075 2.39246 48.4579 1.40527 41.5605C0.88863 37.9508 0.5 33.4306 0.5 28C0.5 22.5694 0.88863 18.0492 1.40527 14.4395C2.39246 7.54212 7.54212 2.39246 14.4395 1.40527C18.0492 0.88863 22.5694 0.5 28 0.5Z" stroke="black"/>
</svg>
