<svg width="128" height="128" viewBox="0 0 128 128" fill="none" xmlns="http://www.w3.org/2000/svg">
<path d="M116.626 92.008C119.384 92.0787 122.173 90.8605 123.222 88.3095C126.302 80.8143 128 72.6055 128 64C128 28.6538 99.3462 0 64 0C28.6538 0 0 28.6538 0 64C0 99.3462 28.6538 128 64 128C72.6055 128 80.8143 126.302 88.3095 123.222C90.8605 122.173 92.0787 119.384 92.008 116.626C92.0027 116.418 92 116.209 92 116C92 102.745 102.745 92 116 92C116.209 92 116.418 92.0027 116.626 92.008Z" fill="black"/>
</svg>
