<svg width="48" height="48" viewBox="0 0 48 48" fill="none" xmlns="http://www.w3.org/2000/svg">
<path d="M24 0.5C26.7146 0.5 29.3207 0.960071 31.7452 1.80608C32.1938 1.96263 32.5 2.43595 32.5 3C32.5 9.90356 38.0964 15.5 45 15.5C45.564 15.5 46.0374 15.8062 46.1939 16.2548C47.0399 18.6793 47.5 21.2854 47.5 24C47.5 26.7146 47.0399 29.3207 46.1939 31.7452C46.0374 32.1938 45.564 32.5 45 32.5C38.0964 32.5 32.5 38.0964 32.5 45C32.5 45.564 32.1938 46.0374 31.7452 46.1939C29.3207 47.0399 26.7146 47.5 24 47.5C11.0213 47.5 0.5 36.9787 0.5 24C0.5 11.0213 11.0213 0.5 24 0.5Z" stroke="black"/>
</svg>
