<svg fill="none" height="40" viewBox="0 0 40 40" width="40" xmlns="http://www.w3.org/2000/svg"><path d="m27.2002 6c.9299 0 1.7633.0004 2.5154.00861.7489.00817 1.1233.01226 1.441.12652.3176.11426.903.58738 2.0738 1.53362 1.0303.83265 2.3418 1.33125 3.7696 1.33125.7144 0 1.4526.22026 1.826.82929.1073.17511.2081.35481.3019.53891.872 1.7112.8721 3.9513.8721 8.4316v2.4004c0 .4129 0 .8069-.0008 1.1831-.001.5238-.0015.7857-.0289.9485-.1622.964-.6801 1.4809-1.6444 1.6411-.1628.0271-.5505.0271-1.3259.0271-4.4954 0-8.4135 2.4718-10.4691 6.1305-.8697 1.5479-1.3046 2.3218-1.7725 2.5957-.468.2738-1.1391.2738-2.4813.2738h-9.4773c-4.48027 0-6.72037-.0001-8.43164-.8721-1.50529-.767-2.7291-1.9908-3.49609-3.4961-.87192462-1.7112-.87207-3.9513-.87207-8.4316v-2.4004c0-4.4803.00014561-6.7204.87207-8.4316.76699-1.50533 1.9908-2.72914 3.49609-3.49613 1.71127-.87192 3.95137-.87207 8.43164-.87207z" fill="#000"/></svg>