<svg width="128" height="128" viewBox="0 0 128 128" fill="none" xmlns="http://www.w3.org/2000/svg">
<path d="M32.8421 2.08077C16.5742 4.40913 4.40913 16.5742 2.08077 32.8421C0.892238 41.1462 0 51.5321 0 64C0 76.4679 0.892237 86.8538 2.08077 95.1579C4.40913 111.426 16.5742 123.591 32.8421 125.919C41.1462 127.108 51.5321 128 64 128C72.3095 128 79.6942 127.604 86.1542 126.987C90.1664 126.605 92.4818 122.28 92.1057 118.267C92.0358 117.521 92 116.765 92 116C92 102.745 102.745 92 116 92C116.765 92 117.521 92.0358 118.267 92.1057C122.28 92.4818 126.605 90.1664 126.987 86.1542C127.604 79.6942 128 72.3095 128 64C128 51.5321 127.108 41.1462 125.919 32.8421C123.591 16.5742 111.426 4.40913 95.1579 2.08077C86.8538 0.892237 76.4679 0 64 0C51.5321 0 41.1462 0.892237 32.8421 2.08077Z" fill="black"/>
</svg>
