<svg fill="none" height="80" viewBox="0 0 80 80" width="80" xmlns="http://www.w3.org/2000/svg"><path d="m79 40c0-7.7445-.5548-14.1884-1.291-19.332-.362-2.5293-1.1197-4.8878-2.211-7.0176-.1874-.3658-.7063-.6504-1.498-.6504-3.866 0-7-3.13401-7-7 0-.79127-.2856-1.3112-.6523-1.49902-2.1294-1.0906-4.4871-1.84804-7.0157-2.20996-5.1436-.73619-11.5875-1.29102-19.332-1.29102s-14.1884.55483-19.332 1.29102c-9.7276 1.39232-16.98466 8.64938-18.37698 18.37698-.73619 5.1436-1.29102 11.5875-1.29102 19.332s.55483 14.1884 1.29102 19.332c1.39232 9.7276 8.64938 16.9847 18.37698 18.377 5.1436.7362 11.5875 1.291 19.332 1.291v1c-7.7924 0-14.2836-.558-19.4736-1.3008-10.1675-1.4552-17.77039-9.0581-19.22562-19.2256-.742828-5.19-1.30078-11.6812-1.30078-19.4736s.557951-14.2836 1.30078-19.4736c1.45523-10.1675 9.05812-17.77039 19.22562-19.22562 5.19-.742828 11.6812-1.30078 19.4736-1.30078 7.7924.00000018 14.2836.557952 19.4736 1.30078 2.6366.37737 5.1009 1.16784 7.3301 2.30957.8527.43674 1.1963 1.43161 1.1963 2.38965 0 3.31371 2.6863 6 6 6 .9575 0 1.951.3423 2.3877 1.1943 1.1424 2.2298 1.934 4.6946 2.3115 7.3321.7428 5.19 1.3008 11.6812 1.3008 19.4736s-.558 14.2836-1.3008 19.4736c-1.4552 10.1675-9.0581 17.7704-19.2256 19.2256-5.19.7428-11.6812 1.3008-19.4736 1.3008v-1c7.7445 0 14.1884-.5548 19.332-1.291 9.7276-1.3923 16.9847-8.6494 18.377-18.377.7362-5.1436 1.291-11.5875 1.291-19.332z" fill="#000"/></svg>