<svg width="48" height="48" viewBox="0 0 48 48" fill="none" xmlns="http://www.w3.org/2000/svg">
<path d="M24 0.5C26.4488 0.5 28.6813 0.592259 30.6975 0.744178C31.7205 0.821261 32.5 1.82386 32.5 3C32.5 9.90356 38.0964 15.5 45 15.5C46.1761 15.5 47.1787 16.2795 47.2558 17.3025C47.4077 19.3187 47.5 21.5512 47.5 24C47.5 26.4488 47.4077 28.6813 47.2558 30.6975C47.1787 31.7205 46.1761 32.5 45 32.5C38.0964 32.5 32.5 38.0964 32.5 45C32.5 46.1761 31.7205 47.1787 30.6975 47.2558C28.6813 47.4077 26.4488 47.5 24 47.5C19.3485 47.5 15.4774 47.1671 12.3866 46.7248C6.50603 45.8831 2.11691 41.494 1.27524 35.6134C0.832869 32.5226 0.5 28.6515 0.5 24C0.5 19.3485 0.832869 15.4774 1.27524 12.3866C2.11691 6.50603 6.50603 2.11691 12.3866 1.27524C15.4774 0.832869 19.3485 0.5 24 0.5Z" stroke="black"/>
</svg>
