<svg width="40" height="40" viewBox="0 0 40 40" fill="none" xmlns="http://www.w3.org/2000/svg">
<path fill-rule="evenodd" clip-rule="evenodd" d="M10.2631 0.65024C5.17942 1.37785 1.37785 5.17942 0.65024 10.2631C0.278824 12.8582 0 16.1038 0 20C0 23.8962 0.278824 27.1418 0.65024 29.7369C1.37785 34.8206 5.17942 38.6221 10.2631 39.3498C12.8582 39.7212 16.1038 40 20 40C20.8633 40 21.6947 39.9863 22.4942 39.961C22.9785 39.9456 23.2207 39.9379 23.3753 39.9084C24.3177 39.7284 24.8253 39.2043 24.9754 38.2567C25 38.1013 25 37.7342 25 37C25 30.3726 30.3726 25 37 25C37.7342 25 38.1013 25 38.2567 24.9754C39.2043 24.8253 39.7284 24.3177 39.9084 23.3753C39.9379 23.2207 39.9456 22.9785 39.961 22.4942C39.9863 21.6947 40 20.8633 40 20C40 16.1038 39.7212 12.8582 39.3498 10.2631C38.6221 5.17942 34.8206 1.37785 29.7368 0.65024C27.1418 0.278824 23.8962 0 20 0C16.1038 0 12.8582 0.278824 10.2631 0.65024Z" fill="black"/>
</svg>
