<svg width="72" height="72" viewBox="0 0 72 72" fill="none" xmlns="http://www.w3.org/2000/svg">
<path d="M36 0C39.7581 0 43.3817 0.575848 46.7874 1.64412C48.9795 2.33173 50 4.70257 50 7C50 15.2843 56.7157 22 65 22C67.2974 22 69.6683 23.0205 70.3559 25.2126C71.4241 28.6183 72 32.2419 72 36C72 39.7581 71.4241 43.3817 70.3559 46.7874C69.6683 48.9795 67.2974 50 65 50C56.7157 50 50 56.7157 50 65C50 67.2974 48.9795 69.6683 46.7874 70.3559C43.3817 71.4241 39.7581 72 36 72C16.1177 72 0 55.8823 0 36C0 16.1177 16.1177 0 36 0Z" fill="black"/>
</svg>
