<svg width="80" height="80" viewBox="0 0 80 80" fill="none" xmlns="http://www.w3.org/2000/svg">
<path d="M40 0.5C44.112 0.5 48.0762 1.12869 51.8027 2.29395C54.3637 3.09474 55.5 6.03498 55.5 9C55.5 17.5604 62.4396 24.5 71 24.5C73.965 24.5 76.9053 25.6363 77.7061 28.1973C78.8713 31.9238 79.5 35.888 79.5 40C79.5 44.112 78.8713 48.0762 77.7061 51.8027C76.9053 54.3637 73.965 55.5 71 55.5C62.4396 55.5 55.5 62.4396 55.5 71C55.5 73.965 54.3637 76.9053 51.8027 77.7061C48.0762 78.8713 44.112 79.5 40 79.5C18.1848 79.5 0.5 61.8153 0.5 40C0.5 18.1848 18.1848 0.5 40 0.5Z" stroke="black"/>
</svg>
