<svg width="72" height="72" viewBox="0 0 72 72" fill="none" xmlns="http://www.w3.org/2000/svg">
<path d="M1.17043 18.4737C2.48014 9.32296 9.32296 2.48014 18.4737 1.17043C23.1447 0.501884 28.9868 0 36 0C43.0132 0 48.8553 0.501884 53.5263 1.17043C62.677 2.48014 69.5199 9.32296 70.8296 18.4737C71.4981 23.1447 72 28.9868 72 36C72 43.0132 71.4981 48.8553 70.8296 53.5263C69.5199 62.677 62.677 69.5199 53.5263 70.8296C48.8553 71.4981 43.0132 72 36 72C28.9868 72 23.1447 71.4981 18.4737 70.8296C9.32296 69.5199 2.48014 62.677 1.17043 53.5263C0.501884 48.8553 0 43.0132 0 36C0 28.9868 0.501884 23.1447 1.17043 18.4737Z" fill="black"/>
</svg>
