<svg width="56" height="56" viewBox="0 0 56 56" fill="none" xmlns="http://www.w3.org/2000/svg">
<path d="M28 0.5C31.7997 0.5 35.4184 1.27058 38.709 2.66309C39.1902 2.86692 39.5 3.39132 39.5 4C39.5 10.9036 45.0964 16.5 52 16.5C52.6087 16.5 53.1331 16.8098 53.3369 17.291C54.7294 20.5816 55.5 24.2003 55.5 28C55.5 31.7997 54.7294 35.4184 53.3369 38.709C53.1331 39.1902 52.6087 39.5 52 39.5C45.0964 39.5 39.5 45.0964 39.5 52C39.5 52.6087 39.1902 53.1331 38.709 53.3369C35.4184 54.7294 31.7997 55.5 28 55.5C12.8122 55.5 0.5 43.1878 0.5 28C0.5 12.8122 12.8122 0.5 28 0.5Z" stroke="black"/>
</svg>
