<svg fill="none" height="40" viewBox="0 0 40 40" width="40" xmlns="http://www.w3.org/2000/svg"><path d="m20 0c3.3428 0 6.4933.821123 9.2625 2.27144.5877.30781.8816.46172 1.1196.72331.2381.26159.5126.93273 1.0615 2.27502.6088 1.4884 1.7982 2.67786 3.2866 3.28659 1.3423.54897 2.0135.82346 2.275 1.06149.2616.23804.4155.53195.7234 1.11965 1.4503 2.7692 2.2714 5.9197 2.2714 9.2625 0 1.0024-.0745 1.9873-.2175 2.95-.0514.3455-.077.5183-.133.6855-.2458.7333-.785 1.1984-1.5466 1.3337-.1735.0308-.4833.0308-1.1029.0308-6.6274 0-12 5.3726-12 12 0 .6196 0 .9294-.0308 1.1029-.1353.7616-.6004 1.3008-1.3337 1.5466-.1672.056-.34.0816-.6855.133-.9627.143-1.9476.2175-2.95.2175-11.04569 0-20-8.9543-20-20 0-11.04569 8.95431-20 20-20z" fill="#000"/></svg>