<svg width="128" height="128" viewBox="0 0 128 128" fill="none" xmlns="http://www.w3.org/2000/svg">
<path d="M0 59.6C0 45.0386 0 37.758 2.83383 32.1962C5.32654 27.304 9.30403 23.3265 14.1962 20.8338C19.758 18 27.0386 18 41.6 18H86.4C100.961 18 108.242 18 113.804 20.8338C118.696 23.3265 122.673 27.304 125.166 32.1962C128 37.758 128 45.0386 128 59.6V68.4C128 82.9614 128 90.2421 125.166 95.8038C122.673 100.696 118.696 104.673 113.804 107.166C108.242 110 100.961 110 86.4 110H41.6C27.0386 110 19.758 110 14.1962 107.166C9.30403 104.673 5.32654 100.696 2.83383 95.8038C0 90.2421 0 82.9614 0 68.4V59.6Z" fill="black"/>
</svg>
