<svg fill="none" height="56" viewBox="0 0 56 56" width="56" xmlns="http://www.w3.org/2000/svg"><path d="m28 0c5.4547.00000009 9.9988.390174 13.6318.910156 1.0417.149114 2.0446.391314 3.0013.717614.9488.32363 1.3669 1.36972 1.3669 2.37223 0 3.31371 2.6863 6 6 6 1.0021 0 2.0475.4167 2.3713 1.3651.3267.9572.5693 1.9606.7185 3.0031.52 3.633.9102 8.1771.9102 13.6318s-.3902 9.9988-.9102 13.6318c-1.0187 7.1171-6.3409 12.4393-13.458 13.458-3.633.52-8.1771.9102-13.6318.9102s-9.9988-.3902-13.6318-.9102c-7.11707-1.0187-12.43932-6.3409-13.458044-13.458-.519982-3.633-.910156-8.1771-.910156-13.6318s.390174-9.9988.910156-13.6318c1.018724-7.11707 6.340974-12.43932 13.458044-13.458044 3.633-.519982 8.1771-.910156 13.6318-.910156z" fill="#000"/></svg>