<svg fill="none" height="40" viewBox="0 0 40 40" width="40" xmlns="http://www.w3.org/2000/svg"><path clip-rule="evenodd" d="m27.2002 6c.9297 0 1.763.00017 2.5151.00814.749.00793 1.1235.0119 1.4413.12622.3179.11433.9032.58753 2.0738 1.53392 1.0302.8329 2.3416 1.33172 3.7696 1.33172.7145 0 1.4525.21936 1.8257.82859.1075.17541.2083.35531.3022.53961.872 1.7112.8721 3.9513.8721 8.4316v2.4004c0 4.4803-.0001 6.7204-.8721 8.4316-.767 1.5053-1.9908 2.7291-3.4961 3.4961-1.7112.872-3.9513.8721-8.4316.8721h-14.4004c-4.48027 0-6.72037-.0001-8.43164-.8721-1.50529-.767-2.7291-1.9908-3.49609-3.4961-.87192504-1.7112-.87207-3.9513-.87207-8.4316v-2.4004c0-4.4803.00014496-6.7204.87207-8.4316.76699-1.50533 1.9908-2.72914 3.49609-3.49613 1.71127-.87192 3.95137-.87207 8.43164-.87207z" fill="#000" fill-rule="evenodd"/></svg>