<svg width="40" height="40" viewBox="0 0 40 40" fill="none" xmlns="http://www.w3.org/2000/svg">
<path d="M20 0.5C20.8581 0.5 21.6843 0.513875 22.4785 0.539062C22.9878 0.555214 23.1762 0.562962 23.2812 0.583008C23.6807 0.659302 23.9397 0.798327 24.1133 0.977539C24.2869 1.15672 24.4178 1.41978 24.4814 1.82129C24.4873 1.8582 24.4939 1.95365 24.4971 2.16211C24.5001 2.36036 24.5 2.63118 24.5 3C24.5 9.90356 30.0964 15.5 37 15.5C37.3688 15.5 37.6396 15.4999 37.8379 15.5029C38.0464 15.5061 38.1418 15.5127 38.1787 15.5186C38.5802 15.5822 38.8433 15.7131 39.0225 15.8867C39.2017 16.0603 39.3407 16.3194 39.417 16.7188C39.437 16.8238 39.4448 17.0122 39.4609 17.5215C39.4861 18.3157 39.5 19.1419 39.5 20C39.5 20.8581 39.4861 21.6843 39.4609 22.4785C39.4448 22.9878 39.437 23.1762 39.417 23.2812C39.3407 23.6807 39.2017 23.9397 39.0225 24.1133C38.8433 24.2869 38.5802 24.4178 38.1787 24.4814C38.1418 24.4873 38.0464 24.4939 37.8379 24.4971C37.6396 24.5001 37.3688 24.5 37 24.5C30.0964 24.5 24.5 30.0964 24.5 37C24.5 37.3688 24.5001 37.6396 24.4971 37.8379C24.4939 38.0464 24.4873 38.1418 24.4814 38.1787C24.4178 38.5802 24.2869 38.8433 24.1133 39.0225C23.9397 39.2017 23.6807 39.3407 23.2812 39.417C23.1762 39.437 22.9878 39.4448 22.4785 39.4609C21.6843 39.4861 20.8581 39.5 20 39.5C16.1277 39.5 12.9058 39.2226 10.334 38.8545C5.47018 38.1583 1.84166 34.5298 1.14551 29.666C0.777416 27.0942 0.5 23.8723 0.5 20C0.5 16.1277 0.777416 12.9058 1.14551 10.334C1.84166 5.47018 5.47018 1.84166 10.334 1.14551C12.9058 0.777416 16.1277 0.5 20 0.5Z" stroke="black"/>
</svg>
