<svg width="24" height="24" viewBox="0 0 24 24" fill="none" xmlns="http://www.w3.org/2000/svg">
<path fill-rule="evenodd" clip-rule="evenodd" d="M23.8792 8.21706C23.765 7.3604 22.8642 7 22 7C20.4579 7 19.0789 6.3019 18.1617 5.2045C17.8728 4.85883 17.7284 4.68599 17.7008 4.65567C17.2229 4.12918 17.0124 4.03079 16.3019 4.00168C16.261 4 16.174 4 16 4H8C5.19974 4 3.79961 4 2.73005 4.54497C1.78924 5.02433 1.02433 5.78924 0.544967 6.73005C0 7.79961 0 9.19974 0 12C0 14.8003 0 16.2004 0.544967 17.27C1.02433 18.2108 1.78924 18.9757 2.73005 19.455C3.79961 20 5.19974 20 8 20H16C18.8003 20 20.2004 20 21.27 19.455C22.2108 18.9757 22.9757 18.2108 23.455 17.27C24 16.2004 24 14.8003 24 12C24 10.3052 24 9.12324 23.8792 8.21706Z" fill="black"/>
</svg>
