<svg width="48" height="48" viewBox="0 0 48 48" fill="none" xmlns="http://www.w3.org/2000/svg">
<path d="M0 22.35C0 16.8895 0 14.1592 1.06269 12.0736C1.99745 10.239 3.48901 8.74745 5.32359 7.81269C7.40923 6.75 10.1395 6.75 15.6 6.75H32.4C37.8605 6.75 40.5908 6.75 42.6764 7.81269C44.511 8.74745 46.0025 10.239 46.9373 12.0736C48 14.1592 48 16.8895 48 22.35V25.65C48 31.1105 48 33.8408 46.9373 35.9264C46.0025 37.761 44.511 39.2525 42.6764 40.1873C40.5908 41.25 37.8605 41.25 32.4 41.25H15.6C10.1395 41.25 7.40923 41.25 5.32359 40.1873C3.48901 39.2525 1.99745 37.761 1.06269 35.9264C0 33.8408 0 31.1105 0 25.65V22.35Z" fill="black"/>
</svg>
