<svg fill="none" height="72" viewBox="0 0 72 72" width="72" xmlns="http://www.w3.org/2000/svg"><path d="m36 0c7.0132.00000018 12.8553.50235 17.5264 1.1709 2.347.33593 4.542 1.03608 6.5309 2.04566.6459.32786.9427 1.0591.9427 1.78344 0 3.31371 2.6863 6 6 6 .7238 0 1.4544.2955 1.7822.9409 1.0101 1.9894 1.7109 4.1849 2.0469 6.5327.6686 4.6711 1.1709 10.5132 1.1709 17.5264s-.5023 12.8553-1.1709 17.5264c-1.3097 9.1506-8.1521 15.993-17.3027 17.3027-4.6711.6686-10.5132 1.1709-17.5264 1.1709s-12.8553-.5023-17.5264-1.1709c-9.15059-1.3097-15.99297-8.1521-17.3027-17.3027-.66855-4.6711-1.1709-10.5132-1.1709-17.5264s.50235-12.8553 1.1709-17.5264c1.30973-9.15059 8.15211-15.99297 17.3027-17.3027 4.6711-.66855 10.5132-1.1709 17.5264-1.1709z" fill="#000"/></svg>