<svg width="32" height="32" viewBox="0 0 32 32" fill="none" xmlns="http://www.w3.org/2000/svg">
<path d="M16 0.5C19.093 0.5 21.666 0.721816 23.7188 1.01562C27.5657 1.5663 30.4337 4.4343 30.9844 8.28125C31.2782 10.334 31.5 12.907 31.5 16C31.5 19.093 31.2782 21.666 30.9844 23.7188C30.4337 27.5657 27.5657 30.4337 23.7188 30.9844C21.666 31.2782 19.093 31.5 16 31.5C12.907 31.5 10.334 31.2782 8.28125 30.9844C4.4343 30.4337 1.5663 27.5657 1.01562 23.7188C0.721816 21.666 0.5 19.093 0.5 16C0.5 12.907 0.721816 10.334 1.01562 8.28125C1.5663 4.4343 4.4343 1.5663 8.28125 1.01562C10.334 0.721816 12.907 0.5 16 0.5Z" stroke="black"/>
</svg>
