<svg fill="none" height="56" viewBox="0 0 56 56" width="56" xmlns="http://www.w3.org/2000/svg"><path d="m37.7998 47.25v1h-19.5996v-1zm17.2002-17.2002v-3.8496c0-3.2018-.0014-5.543-.1523-7.3897-.1501-1.8348-.4425-3.0933-.9786-4.1455-.6388-1.2537-1.5232-2.3565-2.5918-3.249-.31-.2589-.7327-.4133-1.3554-.6064-.6065-.1881-1.1772-.4563-1.7002-.792-.5621-.3608-.9727-.59252-1.3906-.66408-2.0306-.34765-4.7552-.35352-9.0313-.35352h-19.5996c-3.2018 0-5.543.00136-7.3897.15234-1.83477.15002-3.09332.44248-4.14546.97856-1.9521.9946-3.53951 2.582-4.53418 4.5341-.53604 1.0522-.8285 2.3107-.97852 4.1455-.15098 1.8467-.15234 4.1879-.15234 7.3897v3.8496c0 3.2018.00136 5.543.15234 7.3897.15002 1.8348.44248 3.0933.97852 4.1455.99467 1.9521 2.58208 3.5395 4.53418 4.5341 1.05214.5361 2.31069.8285 4.14546.9786 1.8467.1509 4.1879.1523 7.3897.1523v1c-6.3706 0-9.55602-.0004-11.98926-1.2402-2.14026-1.0906-3.88016-2.8305-4.97071-4.9707-1.23979655-2.4333-1.24023-5.6187-1.24023-11.9893v-3.8496c0-6.3706.00043345-9.556 1.24023-11.9893 1.09055-2.1402 2.83045-3.8801 4.97071-4.97067 2.43324-1.2398 5.61866-1.24023 11.98926-1.24023h19.5996c4.2376 0 7.0653.00262 9.2002.36816.6438.11024 1.2121.45482 1.7617.80762.4483.28776.9377.51764 1.4571.67871.6032.18711 1.2144.38921 1.6992.79391 1.1712.9782 2.141 2.1873 2.8418 3.5625 1.2398 2.4333 1.2402 5.6187 1.2402 11.9893v3.8496c0 6.3706-.0004 9.556-1.2402 11.9893-1.0906 2.1402-2.8305 3.8801-4.9707 4.9707-2.4333 1.2398-5.6187 1.2402-11.9893 1.2402v-1c3.2018 0 5.543-.0014 7.3897-.1523 1.8348-.1501 3.0933-.4425 4.1455-.9786 1.9521-.9946 3.5395-2.582 4.5341-4.5341.5361-1.0522.8285-2.3107.9786-4.1455.1509-1.8467.1523-4.1879.1523-7.3897z" fill="#000"/></svg>