<svg width="48" height="48" viewBox="0 0 48 48" fill="none" xmlns="http://www.w3.org/2000/svg">
<path d="M0.5 22.35C0.5 19.6115 0.500389 17.5877 0.631175 15.9869C0.761485 14.392 1.01875 13.2612 1.50819 12.3006C2.39502 10.5601 3.81009 9.14502 5.55059 8.25819C6.51117 7.76875 7.64202 7.51148 9.23694 7.38118C10.8377 7.25039 12.8615 7.25 15.6 7.25H32.4C35.1385 7.25 37.1623 7.25039 38.7631 7.38118C40.358 7.51148 41.4888 7.76875 42.4494 8.25819L42.6755 7.8144L42.4494 8.25819C44.1899 9.14502 45.605 10.5601 46.4918 12.3006C46.9813 13.2612 47.2385 14.392 47.3688 15.9869C47.4996 17.5877 47.5 19.6115 47.5 22.35V25.65C47.5 28.3885 47.4996 30.4123 47.3688 32.0131C47.2385 33.608 46.9813 34.7388 46.4918 35.6994C45.605 37.4399 44.1899 38.855 42.4494 39.7418C41.4888 40.2313 40.358 40.4885 38.7631 40.6188C37.1623 40.7496 35.1385 40.75 32.4 40.75H15.6C12.8615 40.75 10.8377 40.7496 9.23694 40.6188C7.64202 40.4885 6.51117 40.2313 5.55059 39.7418C3.81009 38.855 2.39502 37.4399 1.50819 35.6994C1.01875 34.7388 0.761485 33.608 0.631175 32.0131C0.500389 30.4123 0.5 28.3885 0.5 25.65V22.35Z" stroke="black"/>
</svg>
