<svg fill="none" height="56" viewBox="0 0 56 56" width="56" xmlns="http://www.w3.org/2000/svg"><path d="m55 28c0-7.0927-2.734-13.5444-7.207-18.36328-.0949-.10224-.2078-.20337-.3594-.33399-.2633-.22687-.5103-.47293-.7373-.73632-.1309-.15193-.2316-.26531-.334-.36036-4.8188-4.47231-11.2702-7.20605-18.3623-7.20605-14.9117 0-27 12.0883-27 27s12.0883 27 27 27v1c-15.464 0-28-12.536-28-28s12.536-28 28-28c7.3541 0 14.0457 2.83566 19.042 7.47266.1474.13679.2808.2881.4121.44043.1946.22583.406.43721.6318.63183.1521.13101.3029.26406.4395.41113 4.6379 4.99655 7.4746 11.68895 7.4746 19.04395 0 15.464-12.536 28-28 28v-1c14.9117 0 27-12.0883 27-27z" fill="#000"/></svg>