<svg fill="none" height="48" viewBox="0 0 48 48" width="48" xmlns="http://www.w3.org/2000/svg"><path d="m32 40v1h-16v-1zm15-15v-2c0-2.8166-.0007-4.869-.1328-6.4863-.1312-1.6056-.3866-2.6946-.8477-3.5996-.5325-1.0452-1.2614-1.9699-2.1396-2.7276-.2744-.23664-.6486-.38796-1.2139-.58787-.4897-.17317-.9545-.3991-1.3867-.6709-.5231-.32891-.8942-.53621-1.2695-.60351-1.7791-.3189-4.1782-.32422-8.0098-.32422h-16c-2.8166 0-4.869.00072-6.48633.13281-1.60558.13116-2.69458.38658-3.59961.84766-1.69341.86285-3.07074 2.24023-3.93359 3.93363-.46108.905-.7165 1.994-.84766 3.5996-.13209 1.6173-.13281 3.6697-.13281 6.4863v2c0 2.8166.00072 4.869.13281 6.4863.13116 1.6056.38658 2.6946.84766 3.5996.86285 1.6934 2.24018 3.0708 3.93359 3.9336.90503.4611 1.99403.7165 3.59961.8477 1.61733.1321 3.66973.1328 6.48633.1328v1c-5.6005 0-8.40092.0001-10.54004-1.0898-1.88157-.9588-3.41139-2.4886-4.37012-4.3702-1.08993108-2.1391-1.08984-4.9395-1.08984-10.54v-2c0-5.6005-.00009108-8.4009 1.08984-10.54.95873-1.8816 2.48856-3.41143 4.37012-4.37016 2.13912-1.08993 4.93954-1.08984 10.54004-1.08984h16c3.7909 0 6.2984.00133 8.1865.33984.5922.10617 1.1167.42098 1.626.74121.3705.23295.7683.42697 1.1875.5752.5445.19255 1.0959.39618 1.5332.77344.9756.84161 1.7851 1.86881 2.377 3.03031 1.0899 2.1391 1.0898 4.9395 1.0898 10.54v2c0 5.6005.0001 8.4009-1.0898 10.54-.9588 1.8816-2.4886 3.4114-4.3702 4.3702-2.1391 1.0899-4.9395 1.0898-10.54 1.0898v-1c2.8166 0 4.869-.0007 6.4863-.1328 1.6056-.1312 2.6946-.3866 3.5996-.8477 1.6934-.8628 3.0708-2.2402 3.9336-3.9336.4611-.905.7165-1.994.8477-3.5996.1321-1.6173.1328-3.6697.1328-6.4863z" fill="#000"/></svg>