<svg width="40" height="40" viewBox="0 0 40 40" fill="none" xmlns="http://www.w3.org/2000/svg">
<path d="M12.7998 6.5H22.2773C22.9574 6.5 23.4354 6.50032 23.8027 6.53223C24.1657 6.56377 24.3649 6.62266 24.5059 6.70508C24.6323 6.7791 24.8053 6.95472 25.0762 7.36816C25.3404 7.77162 25.6564 8.33417 26.0947 9.11426C28.2353 12.9241 32.3167 15.5 37 15.5C37.3894 15.5 37.6754 15.4996 37.8848 15.5029C38.1047 15.5064 38.2054 15.5141 38.2441 15.5205C38.6548 15.5888 38.9188 15.7239 39.0957 15.9004C39.2726 16.0769 39.4085 16.3405 39.4775 16.751C39.4961 16.8616 39.498 17.0673 39.499 17.6191C39.4997 17.9944 39.5 18.3873 39.5 18.7998V21.2002C39.5 23.4486 39.4995 25.1052 39.3926 26.4141C39.2861 27.7169 39.0767 28.6319 38.6826 29.4053C37.9636 30.8163 36.8163 31.9636 35.4053 32.6826C34.6319 33.0767 33.7169 33.2861 32.4141 33.3926C31.1052 33.4995 29.4486 33.5 27.2002 33.5H12.7998C10.5514 33.5 8.89483 33.4995 7.58594 33.3926C6.28305 33.2861 5.36806 33.0767 4.59473 32.6826C3.18371 31.9636 2.0364 30.8163 1.31738 29.4053C0.923349 28.6319 0.713899 27.7169 0.607422 26.4141C0.500481 25.1052 0.5 23.4486 0.5 21.2002V18.7998C0.5 16.5514 0.500481 14.8948 0.607422 13.5859C0.713899 12.2831 0.923349 11.3681 1.31738 10.5947C2.0364 9.18371 3.18371 8.0364 4.59473 7.31738C5.36806 6.92335 6.28305 6.7139 7.58594 6.60742C8.89483 6.50048 10.5514 6.5 12.7998 6.5Z" stroke="black"/>
</svg>
