<svg width="128" height="128" viewBox="0 0 128 128" fill="none" xmlns="http://www.w3.org/2000/svg">
<path d="M123.222 39.6905C122.173 37.1395 119.384 35.9213 116.626 35.992C116.418 35.9973 116.209 36 116 36C102.745 36 92 25.2548 92 12C92 11.7905 92.0027 11.5817 92.008 11.3735C92.0787 8.61644 90.8605 5.82664 88.3095 4.77838C80.8143 1.69843 72.6055 0 64 0C28.6538 0 0 28.6538 0 64C0 99.3462 28.6538 128 64 128C99.3462 128 128 99.3462 128 64C128 55.3945 126.302 47.1857 123.222 39.6905Z" fill="black"/>
</svg>
