<svg width="72" height="72" viewBox="0 0 72 72" fill="none" xmlns="http://www.w3.org/2000/svg">
<path d="M36 0.5C42.989 0.5 48.8073 0.999847 53.4551 1.66504C62.3859 2.94327 69.0567 9.6141 70.335 18.5449C71.0002 23.1927 71.5 29.011 71.5 36C71.5 39.2503 71.3916 42.2474 71.209 44.9912C71.1176 46.3643 70.3343 47.4806 69.1699 48.2695C68.0004 49.0618 66.475 49.5 65 49.5C56.4396 49.5 49.5 56.4396 49.5 65C49.5 66.475 49.0618 68.0004 48.2695 69.1699C47.4806 70.3343 46.3643 71.1176 44.9912 71.209C42.2474 71.3916 39.2503 71.5 36 71.5C29.011 71.5 23.1927 71.0002 18.5449 70.335C9.6141 69.0567 2.94327 62.3859 1.66504 53.4551C0.999847 48.8073 0.5 42.989 0.5 36C0.5 29.011 0.999847 23.1927 1.66504 18.5449C2.94327 9.6141 9.6141 2.94327 18.5449 1.66504C23.1927 0.999847 29.011 0.5 36 0.5Z" stroke="black"/>
</svg>
