<svg width="32" height="32" viewBox="0 0 32 32" fill="none" xmlns="http://www.w3.org/2000/svg">
<path d="M0 14.9C0 11.2597 0 9.43949 0.708458 8.04906C1.33163 6.82601 2.32601 5.83163 3.54906 5.20846C4.93949 4.5 6.75966 4.5 10.4 4.5H21.6C25.2403 4.5 27.0605 4.5 28.4509 5.20846C29.674 5.83163 30.6684 6.82601 31.2915 8.04906C32 9.43949 32 11.2597 32 14.9V17.1C32 20.7403 32 22.5605 31.2915 23.9509C30.6684 25.174 29.674 26.1684 28.4509 26.7915C27.0605 27.5 25.2403 27.5 21.6 27.5H10.4C6.75966 27.5 4.93949 27.5 3.54906 26.7915C2.32601 26.1684 1.33163 25.174 0.708458 23.9509C0 22.5605 0 20.7403 0 17.1V14.9Z" fill="black"/>
</svg>
