<svg fill="none" height="56" viewBox="0 0 56 56" width="56" xmlns="http://www.w3.org/2000/svg"><path d="m39 52c0-7.1797 5.8203-13 13-13 1.4176 0 2.5145-.8786 2.6074-1.9102.2402-2.6726.3926-5.7027.3926-9.0898 0-5.4068-.3871-9.9037-.9004-13.4902-.1404-.9808-.3683-1.9234-.6748-2.8213-.1188-.348-.5989-.6885-1.4248-.6885-3.866 0-7-3.13401-7-7 0-.82523-.3407-1.30665-.6895-1.42578-.8975-.30612-1.84-.5335-2.8203-.67383-3.5865-.51333-8.0834-.90039-13.4902-.90039s-9.9037.38706-13.4902.90039c-6.6772.95582-11.65359 5.93221-12.60941 12.60941-.51333 3.5865-.90039 8.0834-.90039 13.4902s.38706 9.9037.90039 13.4902c.95582 6.6772 5.93221 11.6536 12.60941 12.6094 3.5865.5133 8.0834.9004 13.4902.9004v1c-5.4547 0-9.9988-.3902-13.6318-.9102-7.11707-1.0187-12.43932-6.3409-13.458044-13.458-.519982-3.633-.910156-8.1771-.910156-13.6318s.390174-9.9988.910156-13.6318c1.018724-7.11707 6.340974-12.43932 13.458044-13.458044 3.633-.519982 8.1771-.910156 13.6318-.910156 5.4547.00000008 9.9988.390174 13.6318.910156 1.0417.149104 2.0444.391504 3.001.717774.9488.32363 1.3672 1.36956 1.3672 2.37207 0 3.31371 2.6863 6 6 6 1.0021 0 2.0473.4169 2.3711 1.3652.3267.9572.5695 1.9606.7187 3.003.52 3.633.9102 8.1771.9102 13.6318 0 3.4171-.1546 6.4766-.3975 9.1787-.1551 1.7264-1.8692 2.8213-3.6025 2.8213-6.6274 0-12 5.3726-12 12 0 1.7333-1.0949 3.4474-2.8213 3.6025-2.7021.2429-5.7616.3975-9.1787.3975v-1c3.3871 0 6.4172-.1524 9.0898-.3926 1.0316-.0929 1.9102-1.1898 1.9102-2.6074z" fill="#000"/></svg>