<svg width="72" height="72" viewBox="0 0 72 72" fill="none" xmlns="http://www.w3.org/2000/svg">
<path d="M23.04 10.5H48.96C53.0003 10.5 56.0008 10.5 58.377 10.6934C60.7474 10.8863 62.453 11.2697 63.9111 12.0098C66.5267 13.3374 68.653 15.4557 69.9854 18.0605C70.7278 19.5123 71.112 21.2105 71.3057 23.5713C71.4998 25.9381 71.5 28.9271 71.5 32.9521V39.0479C71.5 41.2736 71.5 43.185 71.4668 44.8525C71.4371 46.3444 70.6538 47.4893 69.4512 48.2803C68.237 49.0787 66.612 49.5 65 49.5C57.9832 49.5 52.0567 54.1621 50.1465 60.5566C49.9788 61.1181 49.4927 61.5 48.96 61.5H23.04C18.9997 61.5 15.9992 61.5 13.623 61.3066C11.2526 61.1137 9.54697 60.7303 8.08887 59.9902C5.47333 58.6626 3.347 56.5443 2.01465 53.9395C1.27216 52.4877 0.88796 50.7895 0.694336 48.4287C0.500242 46.0619 0.5 43.0729 0.5 39.0479V32.9521L0.50293 30.1211C0.512136 27.4714 0.548761 25.3464 0.694336 23.5713C0.88796 21.2105 1.27216 19.5123 2.01465 18.0605C3.347 15.4557 5.47333 13.3374 8.08887 12.0098C9.54697 11.2697 11.2526 10.8863 13.623 10.6934C15.4052 10.5483 17.5385 10.5121 20.1982 10.5029L23.04 10.5Z" stroke="black"/>
</svg>
