<svg width="128" height="128" viewBox="0 0 128 128" fill="none" xmlns="http://www.w3.org/2000/svg">
<path d="M41.5996 18.5H86.4004C93.6889 18.5 99.1252 18.5004 103.436 18.8525C107.74 19.2042 110.879 19.9043 113.577 21.2793C118.375 23.724 122.276 27.625 124.721 32.4229C126.096 35.1215 126.796 38.2598 127.147 42.5645C127.5 46.8748 127.5 52.3111 127.5 59.5996V68.4004C127.5 75.6889 127.5 81.1252 127.147 85.4355C126.796 89.7402 126.096 92.8785 124.721 95.5771C122.276 100.375 118.375 104.276 113.577 106.721C110.879 108.096 107.74 108.796 103.436 109.147C99.1252 109.5 93.6889 109.5 86.4004 109.5H41.5996C34.3111 109.5 28.8748 109.5 24.5645 109.147C20.2598 108.796 17.1215 108.096 14.4229 106.721C9.62495 104.276 5.72403 100.375 3.2793 95.5771C1.90428 92.8785 1.20424 89.7402 0.852539 85.4355C0.500406 81.1252 0.5 75.6889 0.5 68.4004V59.5996C0.5 52.3111 0.500406 46.8748 0.852539 42.5645C1.20424 38.2598 1.90428 35.1215 3.2793 32.4229C5.72403 27.625 9.62495 23.724 14.4229 21.2793C17.1215 19.9043 20.2598 19.2042 24.5645 18.8525C28.8748 18.5004 34.3111 18.5 41.5996 18.5Z" stroke="black"/>
</svg>
