<svg fill="none" height="64" viewBox="0 0 64 64" width="64" xmlns="http://www.w3.org/2000/svg"><path d="m63 32c0-6.1861-.4427-11.332-1.0303-15.4375-.282-1.9705-.8696-3.8088-1.7119-5.4727-.0034-.0066-.0139-.0238-.0537-.0449-.0445-.0236-.1153-.0449-.2041-.0449-3.866 0-7-3.13401-7-7 0-.08825-.0211-.15919-.0449-.2041-.0215-.04054-.0398-.05107-.0469-.05469-1.6634-.84169-3.5008-1.42897-5.4707-1.71094-4.1055-.58761-9.2514-1.03027-15.4375-1.03027s-11.332.44266-15.4375 1.03027c-7.69401 1.10131-13.43092 6.83822-14.53223 14.53223-.58761 4.1055-1.03027 9.2514-1.03027 15.4375s.44266 11.332 1.03027 15.4375c1.10131 7.694 6.83821 13.4309 14.53223 14.5322 4.1055.5876 9.2514 1.0303 15.4375 1.0303v1c-6.2339 0-11.4271-.4458-15.5791-1.04-8.13389-1.1642-14.21665-7.247-15.38086-15.3809-.594266-4.152-1.04004-9.3452-1.04004-15.5791s.445774-11.4271 1.04004-15.5791c1.16421-8.13389 7.24697-14.21665 15.38086-15.38086 4.152-.594266 9.3452-1.04004 15.5791-1.04004 6.2339.00000009 11.4271.445774 15.5791 1.04004 2.0768.29726 4.0189.91733 5.7803 1.80859.4229.214.6406.67739.6406 1.15137 0 3.31371 2.6863 6 6 6 .4734 0 .9366.2163 1.1504.6387.8919 1.7619 1.5122 3.7046 1.8096 5.7822.5942 4.152 1.04 9.3452 1.04 15.5791s-.4458 11.4271-1.04 15.5791c-1.1642 8.1339-7.247 14.2167-15.3809 15.3809-4.152.5942-9.3452 1.04-15.5791 1.04v-1c6.1861 0 11.332-.4427 15.4375-1.0303 7.694-1.1013 13.4309-6.8382 14.5322-14.5322.5876-4.1055 1.0303-9.2514 1.0303-15.4375z" fill="#000"/></svg>