<svg width="32" height="32" viewBox="0 0 32 32" fill="none" xmlns="http://www.w3.org/2000/svg">
<path d="M31.4515 8.02516C31.3438 7.36348 30.6704 7 30 7C27.2386 7 25 4.76142 25 2C25 1.32961 24.6365 0.656226 23.9748 0.548535C23.9133 0.538519 23.8515 0.529069 23.7895 0.520192C21.7135 0.223059 19.117 0 16 0C12.883 0 10.2865 0.223059 8.21052 0.520192C4.14354 1.10228 1.10228 4.14354 0.520192 8.21052C0.223059 10.2865 0 12.883 0 16C0 19.117 0.223059 21.7135 0.520192 23.7895C1.10228 27.8565 4.14354 30.8977 8.21052 31.4798C10.2865 31.7769 12.883 32 16 32C19.117 32 21.7135 31.7769 23.7895 31.4798C27.8565 30.8977 30.8977 27.8565 31.4798 23.7895C31.7769 21.7135 32 19.117 32 16C32 12.883 31.7769 10.2865 31.4798 8.21052C31.4709 8.14849 31.4615 8.08671 31.4515 8.02516Z" fill="black"/>
</svg>
