<svg width="40" height="40" viewBox="0 0 40 40" fill="none" xmlns="http://www.w3.org/2000/svg">
<path d="M20 0C8.95431 0 0 8.95431 0 20C0 31.0457 8.95431 40 20 40C21.0012 40 21.9851 39.9264 22.9468 39.7844C23.2939 39.7332 23.4675 39.7075 23.6355 39.6512C24.3678 39.4058 24.8331 38.8669 24.9688 38.1065C25 37.9321 25 37.6214 25 37C25 30.3726 30.3726 25 37 25C37.6214 25 37.9321 25 38.1065 24.9688C38.8669 24.8331 39.4058 24.3678 39.6512 23.6355C39.7075 23.4675 39.7332 23.2939 39.7844 22.9468C39.9264 21.9851 40 21.0012 40 20C40 8.95431 31.0457 0 20 0Z" fill="black"/>
</svg>
