<svg width="40" height="40" viewBox="0 0 40 40" fill="none" xmlns="http://www.w3.org/2000/svg">
<path d="M12.7998 6.5H27.2002C29.4486 6.5 31.1052 6.50048 32.4141 6.60742C33.7169 6.7139 34.6319 6.92335 35.4053 7.31738C36.8163 8.0364 37.9636 9.18371 38.6826 10.5947C39.0767 11.3681 39.2861 12.2831 39.3926 13.5859C39.4995 14.8948 39.5 16.5514 39.5 18.7998V21.2002C39.5 21.6127 39.4997 22.0056 39.499 22.3809C39.498 22.9327 39.4961 23.1384 39.4775 23.249C39.4085 23.6595 39.2726 23.9231 39.0957 24.0996C38.9188 24.2761 38.6548 24.4112 38.2441 24.4795C38.2054 24.4859 38.1047 24.4936 37.8848 24.4971C37.6754 24.5004 37.3894 24.5 37 24.5C32.3167 24.5 28.2353 27.0759 26.0947 30.8857C25.6564 31.6658 25.3404 32.2284 25.0762 32.6318C24.8053 33.0453 24.6323 33.2209 24.5059 33.2949C24.3649 33.3773 24.1657 33.4362 23.8027 33.4678C23.4354 33.4997 22.9574 33.5 22.2773 33.5H12.7998C10.5514 33.5 8.89483 33.4995 7.58594 33.3926C6.28305 33.2861 5.36806 33.0767 4.59473 32.6826C3.18371 31.9636 2.0364 30.8163 1.31738 29.4053C0.923349 28.6319 0.713899 27.7169 0.607422 26.4141C0.500481 25.1052 0.5 23.4486 0.5 21.2002V18.7998C0.5 16.5514 0.500481 14.8948 0.607422 13.5859C0.713899 12.2831 0.923349 11.3681 1.31738 10.5947C2.0364 9.18371 3.18371 8.0364 4.59473 7.31738C5.36806 6.92335 6.28305 6.7139 7.58594 6.60742C8.89483 6.50048 10.5514 6.5 12.7998 6.5Z" stroke="black"/>
</svg>
