<svg fill="none" height="80" viewBox="0 0 80 80" width="80" xmlns="http://www.w3.org/2000/svg"><path clip-rule="evenodd" d="m40 0c7.7924 0 14.2836.557953 19.4736 1.30078 2.6372.37745 5.1015 1.16902 7.331 2.31133.8522.43662 1.1954 1.43039 1.1954 2.38789 0 3.31371 2.6863 6 6 6 .9575 0 1.9513.3432 2.3879 1.1954 1.1423 2.2295 1.9339 4.6938 2.3113 7.331.7428 5.19 1.3008 11.6812 1.3008 19.4736 0 3.6074-.1199 6.9359-.3223 9.9855-.2576 3.88-4.7891 6.0145-8.6777 6.0145-8.2843 0-15 6.7157-15 15 0 3.8886-2.1345 8.4201-6.0145 8.6777-3.0496.2024-6.3781.3223-9.9855.3223-7.7924 0-14.2836-.558-19.4736-1.3008-10.1675-1.4552-17.77039-9.0581-19.22562-19.2256-.742827-5.19-1.30078-11.6812-1.30078-19.4736s.557953-14.2836 1.30078-19.4736c1.45523-10.1675 9.05812-17.77039 19.22562-19.22562 5.19-.742827 11.6812-1.30078 19.4736-1.30078z" fill="#000" fill-rule="evenodd"/></svg>