<svg fill="none" height="48" viewBox="0 0 48 48" width="48" xmlns="http://www.w3.org/2000/svg"><path clip-rule="evenodd" d="m32 7c3.791 0 6.2984.00176 8.1866.34029.5921.10617 1.1161.42092 1.6254.74116.3705.23299.7683.42652 1.1875.57477.5447.1926 1.0959.39613 1.5334.77348.9756.8417 1.7854 1.8687 2.3773 3.0303 1.0899 2.1391 1.0898 4.9395 1.0898 10.54v2c0 5.6005.0001 8.4009-1.0898 10.54-.9588 1.8816-2.4886 3.4114-4.3702 4.3702-2.1391 1.0899-4.9395 1.0898-10.54 1.0898h-16c-5.6005 0-8.40092.0001-10.54004-1.0898-1.88156-.9588-3.41139-2.4886-4.37012-4.3702-1.08993155-2.1391-1.08984-4.9395-1.08984-10.54v-2c0-5.6005-.00009155-8.4009 1.08984-10.54.95873-1.8816 2.48856-3.41143 4.37012-4.37016 2.13912-1.08993 4.93954-1.08984 10.54004-1.08984z" fill="#000" fill-rule="evenodd"/></svg>