<svg width="40" height="40" viewBox="0 0 40 40" fill="none" xmlns="http://www.w3.org/2000/svg">
<path d="M13 6.125H27C29.2835 6.125 30.9661 6.12573 32.2959 6.23438C33.6198 6.34255 34.5502 6.55518 35.3369 6.95605C36.7715 7.68706 37.9379 8.85349 38.6689 10.2881C39.0698 11.0748 39.2825 12.0052 39.3906 13.3291C39.4993 14.6589 39.5 16.3415 39.5 18.625V21.375C39.5 23.6585 39.4993 25.3411 39.3906 26.6709C39.2825 27.9948 39.0698 28.9252 38.6689 29.7119C37.9379 31.1465 36.7715 32.3129 35.3369 33.0439C34.5502 33.4448 33.6198 33.6575 32.2959 33.7656C30.9661 33.8743 29.2835 33.875 27 33.875H13C10.7165 33.875 9.03388 33.8743 7.7041 33.7656C6.38024 33.6575 5.44984 33.4448 4.66309 33.0439C3.22849 32.3129 2.06206 31.1465 1.33105 29.7119C0.930185 28.9252 0.717549 27.9948 0.609375 26.6709C0.500728 25.3411 0.5 23.6585 0.5 21.375V18.625L0.501953 17.0215C0.507154 15.5225 0.527885 14.3265 0.609375 13.3291C0.717549 12.0052 0.930185 11.0748 1.33105 10.2881C2.06206 8.85349 3.22849 7.68706 4.66309 6.95605C5.44984 6.55518 6.38024 6.34255 7.7041 6.23438C9.03388 6.12573 10.7165 6.125 13 6.125Z" stroke="black"/>
</svg>
