<svg width="80" height="80" viewBox="0 0 80 80" fill="none" xmlns="http://www.w3.org/2000/svg">
<path fill-rule="evenodd" clip-rule="evenodd" d="M56.4601 12.7011C56.2161 11.7398 55.3919 11 54.4 11H25.6C16.6392 11 12.1587 11 8.73615 12.7439C5.72556 14.2779 3.27787 16.7256 1.7439 19.7362C0 23.1587 0 27.6392 0 36.6V43.4C0 52.3608 0 56.8413 1.7439 60.2638C3.27787 63.2744 5.72556 65.7221 8.73615 67.2561C12.1587 69 16.6392 69 25.6 69H54.4C55.3919 69 56.2161 68.2602 56.4601 67.2989C58.1082 60.8045 63.993 56 71 56C71.1907 56 71.3806 56.0036 71.5696 56.0106C75.5372 56.1587 79.8486 54.4711 79.9491 50.502C80 48.4927 80 46.1587 80 43.4V36.6C80 33.8413 80 31.5073 79.9491 29.498C79.8486 25.5289 75.5372 23.8413 71.5696 23.9894C71.3806 23.9964 71.1907 24 71 24C63.993 24 58.1082 19.1955 56.4601 12.7011Z" fill="black"/>
</svg>
