<svg width="48" height="48" viewBox="0 0 48 48" fill="none" xmlns="http://www.w3.org/2000/svg">
<path d="M12.3158 0.780288C6.21531 1.65342 1.65342 6.21531 0.780288 12.3158C0.334589 15.4298 0 19.3246 0 24C0 28.6754 0.334589 32.5702 0.780288 35.6842C1.65342 41.7847 6.21531 46.3466 12.3158 47.2197C15.4298 47.6654 19.3246 48 24 48C26.4614 48 28.7064 47.9073 30.7351 47.7544C32.0905 47.6523 33 46.3592 33 45C33 38.3726 38.3726 33 45 33C46.3592 33 47.6523 32.0905 47.7544 30.7351C47.9073 28.7064 48 26.4614 48 24C48 19.3246 47.6654 15.4298 47.2197 12.3158C46.3466 6.21531 41.7847 1.65342 35.6842 0.780288C32.5702 0.334589 28.6754 0 24 0C19.3246 0 15.4298 0.334589 12.3158 0.780288Z" fill="black"/>
</svg>
