<svg width="56" height="56" viewBox="0 0 56 56" fill="none" xmlns="http://www.w3.org/2000/svg">
<path d="M14.3684 0.910336C7.25119 1.92899 1.92899 7.25119 0.910336 14.3684C0.390354 18.0014 0 22.5453 0 28C0 33.4547 0.390354 37.9986 0.910336 41.6316C1.92899 48.7488 7.25119 54.071 14.3684 55.0897C18.0014 55.6096 22.5453 56 28 56C31.4151 56 34.4732 55.847 37.1743 55.6049C38.9016 55.4502 40 53.7342 40 52C40 45.3726 45.3726 40 52 40C53.7342 40 55.4502 38.9016 55.6049 37.1743C55.847 34.4732 56 31.4151 56 28C56 22.5453 55.6096 18.0014 55.0897 14.3684C54.071 7.25119 48.7488 1.92899 41.6316 0.910336C37.9986 0.390354 33.4547 0 28 0C22.5453 0 18.0014 0.390354 14.3684 0.910336Z" fill="black"/>
</svg>
