<svg width="56" height="56" viewBox="0 0 56 56" fill="none" xmlns="http://www.w3.org/2000/svg">
<path d="M18.2002 8.375H37.7998C40.9934 8.375 43.3587 8.37539 45.2305 8.52832C47.0963 8.68077 48.4281 8.98256 49.5625 9.56055C51.6085 10.6031 53.2719 12.2665 54.3145 14.3125C54.8924 15.4469 55.1942 16.7787 55.3467 18.6445C55.4996 20.5163 55.5 22.8816 55.5 26.0752V29.9248C55.5 33.1184 55.4996 35.4837 55.3467 37.3555C55.1942 39.2213 54.8924 40.5531 54.3145 41.6875C53.2719 43.7335 51.6085 45.3969 49.5625 46.4395C48.4281 47.0174 47.0963 47.3192 45.2305 47.4717C43.3587 47.6246 40.9934 47.625 37.7998 47.625H18.2002C15.0066 47.625 12.6413 47.6246 10.7695 47.4717C8.9037 47.3192 7.57187 47.0174 6.4375 46.4395C4.39154 45.3969 2.72812 43.7335 1.68555 41.6875C1.10756 40.5531 0.805772 39.2213 0.65332 37.3555C0.500395 35.4837 0.5 33.1184 0.5 29.9248V26.0752C0.5 22.8816 0.500395 20.5163 0.65332 18.6445C0.805772 16.7787 1.10756 15.4469 1.68555 14.3125C2.72812 12.2665 4.39154 10.6031 6.4375 9.56055C7.57187 8.98256 8.9037 8.68077 10.7695 8.52832C12.6413 8.37539 15.0066 8.375 18.2002 8.375Z" stroke="black"/>
</svg>
