<svg width="32" height="32" viewBox="0 0 32 32" fill="none" xmlns="http://www.w3.org/2000/svg">
<path d="M9.59961 5.5H22.4004C23.0796 5.5 23.6871 5.49952 24.2363 5.50488C24.8214 5.5106 25.0207 5.51699 25.2021 5.56934C25.2628 5.58687 25.4219 5.66252 25.7627 5.86133C26.0855 6.04961 26.5239 6.31992 27.1191 6.68652C27.9572 7.20267 28.9448 7.5 30 7.5C30.1786 7.5 30.2948 7.56324 30.3496 7.63379C30.5588 7.90412 30.7436 8.1952 30.9004 8.50293C31.1855 9.06243 31.3407 9.7306 31.4199 10.7002C31.4996 11.6755 31.5 12.9116 31.5 14.5996V17.4004C31.5 19.0884 31.4996 20.3245 31.4199 21.2998C31.3407 22.2694 31.1855 22.9376 30.9004 23.4971C30.3731 24.5318 29.5318 25.3731 28.4971 25.9004C27.9376 26.1855 27.2694 26.3407 26.2998 26.4199C25.3245 26.4996 24.0884 26.5 22.4004 26.5H9.59961C7.91156 26.5 6.67551 26.4996 5.7002 26.4199C4.7306 26.3407 4.06243 26.1855 3.50293 25.9004C2.46816 25.3731 1.62689 24.5318 1.09961 23.4971C0.814529 22.9376 0.659297 22.2694 0.580078 21.2998C0.50041 20.3245 0.5 19.0884 0.5 17.4004V14.5996L0.500977 13.415C0.504824 12.3097 0.520332 11.4316 0.580078 10.7002C0.659297 9.7306 0.814529 9.06243 1.09961 8.50293C1.62689 7.46816 2.46816 6.62689 3.50293 6.09961C4.06243 5.81453 4.7306 5.6593 5.7002 5.58008C6.67551 5.50041 7.91156 5.5 9.59961 5.5Z" stroke="black"/>
</svg>
