<svg fill="none" height="40" viewBox="0 0 40 40" width="40" xmlns="http://www.w3.org/2000/svg"><path d="m39 20c0-3.8483-.2759-7.0471-.6406-9.5957-.013-.0901-.0611-.1836-.2129-.2744-.1662-.0994-.4157-.16312-.6826-.14552-.1533.01014-.3082.01562-.4639.01562-3.866 0-7-3.13401-7-7 0-.15609.0055-.31108.0156-.46484.0176-.26642-.0461-.51572-.1455-.68164-.0908-.15154-.1843-.19995-.2744-.2129-2.5486-.36477-5.7474-.64062-9.5957-.64062s-7.0471.27585-9.5957.64062c-4.64347.66486-8.09882 4.12021-8.76368 8.76368-.36477 2.5486-.64062 5.7474-.64062 9.5957s.27585 7.0471.64062 9.5957c.66486 4.6435 4.12021 8.0988 8.76368 8.7637 2.5486.3647 5.7474.6406 9.5957.6406v1c-3.8962 0-7.1423-.279-9.7373-.6504-5.08334-.7277-8.88455-4.529-9.612309-9.6123-.371416-2.595-.650391-5.8411-.650391-9.7373s.278975-7.1423.650391-9.7373c.727759-5.08334 4.528969-8.88455 9.612309-9.612309 2.595-.371416 5.8411-.650391 9.7373-.650391 3.8962.00000009 7.1423.278975 9.7373.650391.8824.126333 1.3341 1.060699 1.2754 1.950199l-.0127.39941c0 3.31371 2.6863 6 6 6l.3975-.0127c.8901-.05892 1.8257.39228 1.9521 1.2754.3714 2.595.6504 5.8411.6504 9.7373s-.279 7.1423-.6504 9.7373c-.7277 5.0833-4.529 8.8846-9.6123 9.6123-2.595.3714-5.8411.6504-9.7373.6504v-1c3.8483 0 7.0471-.2759 9.5957-.6406 4.6435-.6649 8.0988-4.1202 8.7637-8.7637.3647-2.5486.6406-5.7474.6406-9.5957z" fill="#000"/></svg>