<svg width="40" height="40" viewBox="0 0 40 40" fill="none" xmlns="http://www.w3.org/2000/svg">
<path d="M20 0.5C23.8723 0.5 27.0942 0.777416 29.666 1.14551C34.5298 1.84167 38.1583 5.47018 38.8545 10.334C39.2226 12.9058 39.5 16.1277 39.5 20C39.5 23.8723 39.2226 27.0942 38.8545 29.666C38.1583 34.5298 34.5298 38.1583 29.666 38.8545C27.0942 39.2226 23.8723 39.5 20 39.5C16.1277 39.5 12.9058 39.2226 10.334 38.8545C5.47018 38.1583 1.84166 34.5298 1.14551 29.666C0.777416 27.0942 0.5 23.8723 0.5 20C0.5 16.1277 0.777416 12.9058 1.14551 10.334C1.84166 5.47018 5.47018 1.84166 10.334 1.14551C12.9058 0.777416 16.1277 0.5 20 0.5Z" stroke="black"/>
</svg>
