<svg width="24" height="24" viewBox="0 0 24 24" fill="none" xmlns="http://www.w3.org/2000/svg">
<path d="M8 4.5H16C16.1818 4.5 16.2535 4.49985 16.2812 4.50098C16.6272 4.51515 16.7719 4.54561 16.877 4.59473C16.982 4.64385 17.0983 4.73583 17.3311 4.99219C17.3321 4.99338 17.3343 4.99586 17.3379 5C17.3439 5.00694 17.3518 5.01688 17.3623 5.0293C17.3833 5.05411 17.4127 5.08808 17.4502 5.13281C17.5255 5.22259 17.6337 5.35239 17.7783 5.52539C18.7864 6.73144 20.3037 7.5 22 7.5C22.3709 7.5 22.7209 7.57844 22.9736 7.72168C23.214 7.85807 23.3514 8.04023 23.3838 8.2832C23.4991 9.14847 23.5 10.2905 23.5 12C23.5 13.4083 23.4997 14.4345 23.4336 15.2432C23.368 16.046 23.2403 16.5904 23.0098 17.043C22.5783 17.8897 21.8897 18.5783 21.043 19.0098C20.5904 19.2403 20.046 19.368 19.2432 19.4336C18.4345 19.4997 17.4083 19.5 16 19.5H8C6.59168 19.5 5.5655 19.4997 4.75684 19.4336C3.95405 19.368 3.40956 19.2403 2.95703 19.0098C2.1103 18.5783 1.42166 17.8897 0.990234 17.043C0.759679 16.5904 0.631997 16.046 0.566406 15.2432C0.500344 14.4345 0.5 13.4083 0.5 12C0.5 10.5917 0.500344 9.5655 0.566406 8.75684C0.631997 7.95405 0.759679 7.40956 0.990234 6.95703C1.42166 6.1103 2.1103 5.42166 2.95703 4.99023C3.40956 4.75968 3.95405 4.632 4.75684 4.56641C5.5655 4.50034 6.59168 4.5 8 4.5Z" stroke="black"/>
</svg>
