<svg width="64" height="64" viewBox="0 0 64 64" fill="none" xmlns="http://www.w3.org/2000/svg">
<path d="M63.7245 23.7415C63.5678 21.4602 61.2867 20 59 20C50.7157 20 44 13.2843 44 5C44 2.7133 42.5398 0.432229 40.2585 0.275479C37.7455 0.102816 34.9927 0 32 0C25.7661 0 20.5731 0.446119 16.421 1.04038C8.28708 2.20456 2.20457 8.28708 1.04038 16.421C0.446119 20.5731 0 25.7661 0 32C0 38.2339 0.446119 43.4269 1.04038 47.579C2.20456 55.7129 8.28708 61.7954 16.421 62.9596C20.5731 63.5539 25.7661 64 32 64C38.2339 64 43.4269 63.5539 47.579 62.9596C55.7129 61.7954 61.7954 55.7129 62.9596 47.579C63.5539 43.4269 64 38.2339 64 32C64 29.0073 63.8972 26.2545 63.7245 23.7415Z" fill="black"/>
</svg>
