<svg width="56" height="56" viewBox="0 0 56 56" fill="none" xmlns="http://www.w3.org/2000/svg">
<path d="M28 0C31.4151 0 34.4732 0.153014 37.1743 0.395054C38.9016 0.549837 40 2.26578 40 4C40 10.6274 45.3726 16 52 16C53.7342 16 55.4502 17.0984 55.6049 18.8257C55.847 21.5268 56 24.5849 56 28C56 31.4151 55.847 34.4732 55.6049 37.1743C55.4502 38.9016 53.7342 40 52 40C45.3726 40 40 45.3726 40 52C40 53.7342 38.9016 55.4502 37.1743 55.6049C34.4732 55.847 31.4151 56 28 56C22.5453 56 18.0014 55.6096 14.3684 55.0897C7.25119 54.071 1.92899 48.7488 0.910336 41.6316C0.390354 37.9986 0 33.4547 0 28C0 22.5453 0.390354 18.0014 0.910336 14.3684C1.92899 7.25119 7.25119 1.92899 14.3684 0.910336C18.0014 0.390354 22.5453 0 28 0Z" fill="black"/>
</svg>
