<svg width="32" height="32" viewBox="0 0 32 32" fill="none" xmlns="http://www.w3.org/2000/svg">
<path fill-rule="evenodd" clip-rule="evenodd" d="M30.7453 7.32825C30.5702 7.10194 30.2861 7 30 7C29.04 7 28.1432 6.72947 27.3817 6.26048C26.1957 5.53003 25.6026 5.1648 25.3405 5.08918C25.0784 5.01356 24.7994 5.01084 24.2415 5.00539C23.6892 5 23.0789 5 22.4 5H9.6C6.23969 5 4.55953 5 3.27606 5.65396C2.14708 6.2292 1.2292 7.14708 0.653961 8.27606C0 9.55953 0 11.2397 0 14.6V17.4C0 20.7603 0 22.4405 0.653961 23.7239C1.2292 24.8529 2.14708 25.7708 3.27606 26.346C4.55953 27 6.23969 27 9.6 27H22.4C25.7603 27 27.4405 27 28.7239 26.346C29.8529 25.7708 30.7708 24.8529 31.346 23.7239C32 22.4405 32 20.7603 32 17.4V14.6C32 11.2397 32 9.55953 31.346 8.27606C31.175 7.9403 30.9736 7.62321 30.7453 7.32825Z" fill="black"/>
</svg>
