<svg width="32" height="32" viewBox="0 0 32 32" fill="none" xmlns="http://www.w3.org/2000/svg">
<path d="M10.4004 5H21.5996C23.4278 5 24.7694 5.00043 25.8281 5.08691C26.881 5.17294 27.6107 5.342 28.2236 5.6543C29.3526 6.22954 30.2705 7.14739 30.8457 8.27637C31.158 8.88932 31.3271 9.61897 31.4131 10.6719C31.4996 11.7306 31.5 13.0722 31.5 14.9004V17.0996C31.5 18.9278 31.4996 20.2694 31.4131 21.3281C31.3271 22.381 31.158 23.1107 30.8457 23.7236C30.2705 24.8526 29.3526 25.7705 28.2236 26.3457C27.6107 26.658 26.881 26.8271 25.8281 26.9131C24.7694 26.9996 23.4278 27 21.5996 27H10.4004C8.57217 27 7.23063 26.9996 6.17188 26.9131C5.11897 26.8271 4.38932 26.658 3.77637 26.3457C2.64739 25.7705 1.72954 24.8526 1.1543 23.7236C0.842005 23.1107 0.67294 22.381 0.586914 21.3281C0.500434 20.2694 0.5 18.9278 0.5 17.0996V14.9004C0.5 13.0722 0.500434 11.7306 0.586914 10.6719C0.67294 9.61897 0.842004 8.88932 1.1543 8.27637C1.72954 7.14739 2.64739 6.22954 3.77637 5.6543C4.38932 5.342 5.11897 5.17294 6.17188 5.08691C7.23063 5.00043 8.57217 5 10.4004 5Z" stroke="black"/>
</svg>
