<svg width="40" height="40" viewBox="0 0 40 40" fill="none" xmlns="http://www.w3.org/2000/svg">
<path d="M0 18.625C0 14.0746 0 11.7994 0.885572 10.0613C1.66454 8.53251 2.90751 7.28954 4.43633 6.51057C6.17436 5.625 8.44957 5.625 13 5.625H27C31.5504 5.625 33.8256 5.625 35.5637 6.51057C37.0925 7.28954 38.3355 8.53251 39.1144 10.0613C40 11.7994 40 14.0746 40 18.625V21.375C40 25.9254 40 28.2006 39.1144 29.9387C38.3355 31.4675 37.0925 32.7105 35.5637 33.4894C33.8256 34.375 31.5504 34.375 27 34.375H13C8.44957 34.375 6.17436 34.375 4.43633 33.4894C2.90751 32.7105 1.66454 31.4675 0.885572 29.9387C0 28.2006 0 25.9254 0 21.375V18.625Z" fill="black"/>
</svg>
