<svg width="24" height="24" viewBox="0 0 24 24" fill="none" xmlns="http://www.w3.org/2000/svg">
<path d="M12 0.5C13.3047 0.5 14.4854 0.552421 15.542 0.637695C15.8052 0.65894 16.0359 0.804233 16.2129 1.05469C16.3931 1.31003 16.5 1.65472 16.5 2C16.5 5.03757 18.9624 7.5 22 7.5C22.3453 7.5 22.69 7.60686 22.9453 7.78711C23.1958 7.96408 23.3411 8.1948 23.3623 8.45801C23.4476 9.51463 23.5 10.6953 23.5 12C23.5 14.3138 23.3347 16.2377 23.1152 17.7715C22.7101 20.6016 20.6016 22.7101 17.7715 23.1152C16.2377 23.3347 14.3138 23.5 12 23.5C9.68623 23.5 7.76232 23.3347 6.22852 23.1152C3.39831 22.7101 1.28992 20.6017 0.884766 17.7715C0.665239 16.2377 0.5 14.3138 0.5 12C0.5 9.68622 0.665241 7.76231 0.884766 6.22852C1.28991 3.3983 3.3983 1.28991 6.22852 0.884766C7.76231 0.66524 9.68622 0.5 12 0.5Z" stroke="black"/>
</svg>
