<svg width="40" height="40" viewBox="0 0 40 40" fill="none" xmlns="http://www.w3.org/2000/svg">
<path d="M0.65024 10.2631C1.37785 5.17942 5.17942 1.37785 10.2631 0.65024C12.8582 0.278824 16.1038 0 20 0C23.8962 0 27.1418 0.278824 29.7369 0.65024C34.8206 1.37785 38.6221 5.17942 39.3498 10.2631C39.7212 12.8582 40 16.1038 40 20C40 23.8962 39.7212 27.1418 39.3498 29.7369C38.6221 34.8206 34.8206 38.6221 29.7369 39.3498C27.1418 39.7212 23.8962 40 20 40C16.1038 40 12.8582 39.7212 10.2631 39.3498C5.17942 38.6221 1.37785 34.8206 0.65024 29.7369C0.278824 27.1418 0 23.8962 0 20C0 16.1038 0.278824 12.8582 0.65024 10.2631Z" fill="black"/>
</svg>
