<svg width="56" height="56" viewBox="0 0 56 56" fill="none" xmlns="http://www.w3.org/2000/svg">
<path d="M18.2002 8.5H37.7998C40.9934 8.5 43.3587 8.50039 45.2305 8.65332C47.0963 8.80577 48.4281 9.10756 49.5625 9.68555C51.6085 10.7281 53.2719 12.3915 54.3145 14.4375C54.8924 15.5719 55.1942 16.9037 55.3467 18.7695C55.4996 20.6413 55.5 23.0066 55.5 26.2002V30.0498C55.5 33.1027 55.5001 35.3993 55.3662 37.2324C55.3113 37.985 54.9123 38.57 54.3018 38.9805C53.6819 39.3971 52.8511 39.625 52 39.625C47.5623 39.625 43.6647 41.9382 41.4473 45.4219C40.5876 46.7722 39.2695 47.75 37.7998 47.75H18.2002C15.0066 47.75 12.6413 47.7496 10.7695 47.5967C8.9037 47.4442 7.57187 47.1424 6.4375 46.5645C4.39154 45.5219 2.72812 43.8585 1.68555 41.8125C1.10756 40.6781 0.805772 39.3463 0.65332 37.4805C0.500395 35.6087 0.5 33.2434 0.5 30.0498V26.2002C0.5 23.0066 0.500395 20.6413 0.65332 18.7695C0.805772 16.9037 1.10756 15.5719 1.68555 14.4375C2.72812 12.3915 4.39154 10.7281 6.4375 9.68555C7.57187 9.10756 8.9037 8.80577 10.7695 8.65332C12.6413 8.50039 15.0066 8.5 18.2002 8.5Z" stroke="black"/>
</svg>
