<svg width="72" height="72" viewBox="0 0 72 72" fill="none" xmlns="http://www.w3.org/2000/svg">
<path d="M0 33.525C0 25.3342 0 21.2388 1.59403 18.1104C2.99618 15.3585 5.23352 13.1212 7.98539 11.719C11.1138 10.125 15.2092 10.125 23.4 10.125H48.6C56.7908 10.125 60.8862 10.125 64.0146 11.719C66.7665 13.1212 69.0038 15.3585 70.406 18.1104C72 21.2388 72 25.3342 72 33.525V38.475C72 46.6658 72 50.7612 70.406 53.8896C69.0038 56.6415 66.7665 58.8788 64.0146 60.281C60.8862 61.875 56.7908 61.875 48.6 61.875H23.4C15.2092 61.875 11.1138 61.875 7.98539 60.281C5.23352 58.8788 2.99618 56.6415 1.59403 53.8896C0 50.7612 0 46.6658 0 38.475V33.525Z" fill="black"/>
</svg>
