<svg width="80" height="80" viewBox="0 0 80 80" fill="none" xmlns="http://www.w3.org/2000/svg">
<path d="M25.5996 11.5H54.4004C55.1295 11.5002 55.7791 12.0501 55.9756 12.8242C57.6786 19.5349 63.7588 24.5 71 24.5C71.1968 24.5 71.3928 24.4965 71.5879 24.4893C73.5049 24.4177 75.4772 24.7923 76.9629 25.6348C78.4328 26.4683 79.4044 27.7396 79.4492 29.5107C79.4999 31.5122 79.5 33.8391 79.5 36.5996V43.4004C79.5 46.1609 79.4999 48.4878 79.4492 50.4893C79.4044 52.2604 78.4328 53.5317 76.9629 54.3652C75.4772 55.2077 73.5049 55.5823 71.5879 55.5107C71.3928 55.5035 71.1968 55.5 71 55.5C63.7588 55.5 57.6786 60.4651 55.9756 67.1758C55.7791 67.9499 55.1295 68.4998 54.4004 68.5H25.5996C21.1111 68.5 17.7747 68.4991 15.1318 68.2832C12.4948 68.0677 10.5919 67.6406 8.96289 66.8105C6.04656 65.3245 3.67546 62.9534 2.18945 60.0371C1.35942 58.4081 0.932261 56.5052 0.716797 53.8682C0.500866 51.2253 0.5 47.8889 0.5 43.4004V36.5996C0.5 32.1111 0.500866 28.7747 0.716797 26.1318C0.932261 23.4948 1.35942 21.5919 2.18945 19.9629C3.67546 17.0466 6.04656 14.6755 8.96289 13.1895C10.5919 12.3594 12.4948 11.9323 15.1318 11.7168C17.7747 11.5009 21.1111 11.5 25.5996 11.5Z" stroke="black"/>
</svg>
