<svg width="56" height="56" viewBox="0 0 56 56" fill="none" xmlns="http://www.w3.org/2000/svg">
<path d="M18.2002 8.5H37.7998C39.2695 8.5 40.5876 9.47779 41.4473 10.8281C43.6647 14.3118 47.5623 16.625 52 16.625C52.8511 16.625 53.6819 16.8529 54.3018 17.2695C54.9123 17.68 55.3112 18.265 55.3662 19.0176C55.5001 20.8507 55.5 23.1473 55.5 26.2002V30.0498C55.5 33.2434 55.4996 35.6087 55.3467 37.4805C55.1942 39.3463 54.8924 40.6781 54.3145 41.8125C53.2719 43.8585 51.6085 45.5219 49.5625 46.5645C48.4281 47.1424 47.0963 47.4442 45.2305 47.5967C43.3587 47.7496 40.9934 47.75 37.7998 47.75H18.2002C15.0066 47.75 12.6413 47.7496 10.7695 47.5967C8.9037 47.4442 7.57187 47.1424 6.4375 46.5645C4.39154 45.5219 2.72812 43.8585 1.68555 41.8125C1.10756 40.6781 0.805772 39.3463 0.65332 37.4805C0.500395 35.6087 0.5 33.2434 0.5 30.0498V26.2002C0.5 23.0066 0.500395 20.6413 0.65332 18.7695C0.805772 16.9037 1.10756 15.5719 1.68555 14.4375C2.72812 12.3915 4.39154 10.7281 6.4375 9.68555C7.57187 9.10756 8.9037 8.80577 10.7695 8.65332C12.6413 8.50039 15.0066 8.5 18.2002 8.5Z" stroke="black"/>
</svg>
