<svg fill="none" height="40" viewBox="0 0 40 40" width="40" xmlns="http://www.w3.org/2000/svg"><path d="m22.2773 33v1h-9.4775v-1zm16.7227-11.7998v-2.4004c0-2.2566-.0005-3.8891-.1055-5.1728-.1039-1.272-.3051-2.1136-.6572-2.8047-.0819-.1608-.1707-.3184-.2646-.4717-.1048-.1705-.3994-.3506-.9727-.3506-1.6649 0-3.1968-.58223-4.3984-1.55371-.5911-.47783-1.0143-.82021-1.3301-1.05859-.3481-.26277-.4586-.31448-.4531-.3125-.1202-.04321-.2877-.05864-1.1133-.06739-.7458-.0079-1.574-.00781-2.5049-.00781h-14.4004c-2.2566 0-3.88906.00054-5.17285.10547-1.27191.10396-2.11356.30514-2.80468.65723-1.31714.67111-2.38846 1.74243-3.05957 3.0596-.35209.6911-.55327 1.5327-.65723 2.8047-.10493 1.2837-.10547 2.9162-.10547 5.1728v2.4004c0 2.2566.00054 3.8891.10547 5.1728.10396 1.272.30514 2.1136.65723 2.8047.67111 1.3172 1.74243 2.3885 3.05957 3.0596.69112.3521 1.53277.5533 2.80468.6572 1.28379.105 2.91625.1055 5.17285.1055v1c-4.48027 0-6.72037-.0001-8.43164-.8721-1.50529-.767-2.7291-1.9908-3.49609-3.4961-.87192462-1.7112-.87207-3.9513-.87207-8.4316v-2.4004c0-4.4803.00014561-6.7204.87207-8.4316.76699-1.50533 1.9908-2.72914 3.49609-3.49613 1.71127-.87192 3.95137-.87207 8.43164-.87207h14.4004c.9296 0 1.7627-.00015 2.5146.00781.7489.00794 1.1236.01271 1.4414.12696.3179.11432.9037.58685 2.0743 1.5332 1.0302.8329 2.3415 1.33203 3.7695 1.33203.7144 0 1.4529.21901 1.8262.82813.1074.17537.2078.35577.3017.54007.872 1.7112.8721 3.9513.8721 8.4316v2.4004c0 .4128-.0002.8065-.001 1.1826-.001.5238-.0009.7865-.0283.9492l-.0352.1758c-.1941.8513-.7057 1.3146-1.6093 1.4649l-.167.0156c-.2141.0114-.5776.0117-1.1592.0117-4.4954 0-8.4131 2.4722-10.4688 6.1309l-.5781 1.0195c-.5111.8836-.8434 1.3707-1.1943 1.5762l-.0908.0478c-.3405.1654-.7908.2099-1.503.2217l-.8877.0039v-1c.6888 0 1.1409-.0007 1.4815-.0303.3317-.0288.4459-.0783.4941-.1064 0 0 .0366-.0214.1104-.1045.0751-.0846.17-.2112.2939-.4004.2528-.3858.5598-.9308 1.002-1.7178 2.2255-3.9609 6.4696-6.6406 11.3408-6.6406.3913 0 .6726.0003.877-.0029.2163-.0034.2834-.0108.2851-.0108.3391-.0564.4966-.1569.5801-.2402s.1851-.2408.2422-.5801c0 0 .0015-.0135.0039-.0478.0024-.0347.0052-.0824.0068-.1494.0034-.1375.0034-.3213.0039-.5879.0008-.375.001-.7678.001-1.1807z" fill="#000"/></svg>