<svg width="72" height="72" viewBox="0 0 72 72" fill="none" xmlns="http://www.w3.org/2000/svg">
<path d="M71.7081 26.9757C71.5001 23.851 68.1316 22 65 22C56.7157 22 50 15.2843 50 7C50 3.86842 48.149 0.499869 45.0243 0.291896C42.2695 0.108536 39.2614 0 36 0C28.9868 0 23.1447 0.501883 18.4737 1.17043C9.32296 2.48014 2.48014 9.32296 1.17043 18.4737C0.501884 23.1447 0 28.9868 0 36C0 43.0132 0.501883 48.8553 1.17043 53.5263C2.48014 62.677 9.32296 69.5199 18.4737 70.8296C23.1447 71.4981 28.9868 72 36 72C43.0132 72 48.8553 71.4981 53.5263 70.8296C62.677 69.5199 69.5199 62.677 70.8296 53.5263C71.4981 48.8553 72 43.0132 72 36C72 32.7386 71.8915 29.7305 71.7081 26.9757Z" fill="black"/>
</svg>
