<svg width="40" height="40" viewBox="0 0 40 40" fill="none" xmlns="http://www.w3.org/2000/svg">
<path d="M20 0.5C30.7696 0.5 39.5 9.23045 39.5 20C39.5 20.9766 39.4285 21.9364 39.29 22.874C39.2364 23.2372 39.2158 23.36 39.1768 23.4766C38.9894 24.0355 38.5989 24.3729 38.0186 24.4766C37.9005 24.4976 37.6529 24.5 37 24.5C30.0964 24.5 24.5 30.0964 24.5 37C24.5 37.6529 24.4976 37.9005 24.4766 38.0186C24.3729 38.5989 24.0355 38.9894 23.4766 39.1768C23.36 39.2158 23.2372 39.2364 22.874 39.29C21.9364 39.4285 20.9766 39.5 20 39.5C9.23045 39.5 0.5 30.7696 0.5 20C0.5 9.23045 9.23045 0.5 20 0.5Z" stroke="black"/>
</svg>
