<svg width="80" height="80" viewBox="0 0 80 80" fill="none" xmlns="http://www.w3.org/2000/svg">
<path d="M0 37.25C0 28.1491 0 23.5987 1.77114 20.1227C3.32909 17.065 5.81502 14.5791 8.87265 13.0211C12.3487 11.25 16.8991 11.25 26 11.25H54C63.1009 11.25 67.6513 11.25 71.1273 13.0211C74.185 14.5791 76.6709 17.065 78.2289 20.1227C80 23.5987 80 28.1491 80 37.25V42.75C80 51.8509 80 56.4013 78.2289 59.8773C76.6709 62.935 74.185 65.4209 71.1273 66.9789C67.6513 68.75 63.1008 68.75 54 68.75H26C16.8991 68.75 12.3487 68.75 8.87265 66.9789C5.81502 65.4209 3.32909 62.935 1.77114 59.8773C0 56.4013 0 51.8509 0 42.75V37.25Z" fill="black"/>
</svg>
