<svg fill="none" height="80" viewBox="0 0 80 80" width="80" xmlns="http://www.w3.org/2000/svg"><path d="m40 0c7.7924.00000018 14.2836.557952 19.4736 1.30078 2.6367.37738 5.1008 1.16823 7.3301 2.31001.8527.43673 1.1963 1.43117 1.1963 2.38921 0 3.31371 2.6863 6 6 6 .9576 0 1.9513.3423 2.388 1.1945 1.1423 2.2297 1.9337 4.6944 2.3112 7.3319.7428 5.19 1.3008 11.6812 1.3008 19.4736s-.558 14.2836-1.3008 19.4736c-1.4552 10.1675-9.0581 17.7704-19.2256 19.2256-5.19.7428-11.6812 1.3008-19.4736 1.3008s-14.2836-.558-19.4736-1.3008c-10.1675-1.4552-17.77039-9.0581-19.22562-19.2256-.742828-5.19-1.30078-11.6812-1.30078-19.4736s.557951-14.2836 1.30078-19.4736c1.45523-10.1675 9.05812-17.77039 19.22562-19.22562 5.19-.742828 11.6812-1.30078 19.4736-1.30078z" fill="#000"/></svg>