<svg fill="none" height="48" viewBox="0 0 48 48" width="48" xmlns="http://www.w3.org/2000/svg"><path d="m24 0c5.7624 0 11.0499 2.03134 15.187 5.41631.3665.29993.6527.68232.928 1.0677.3864.54075.8602 1.01463 1.401 1.40098.3854.27534.7678.56147 1.0677.92804 3.385 4.13707 5.4163 9.42457 5.4163 15.18697 0 2.7725-.472 5.4344-1.3373 7.9117-.2404.6882-.9337 1.0883-1.6627 1.0883-6.6274 0-12 5.3726-12 12 0 .729-.4001 1.4223-1.0883 1.6627-2.4773.8653-5.1392 1.3373-7.9117 1.3373-13.2548 0-24-10.7452-24-24s10.7452-24 24-24z" fill="#000"/></svg>