<svg fill="none" height="72" viewBox="0 0 72 72" width="72" xmlns="http://www.w3.org/2000/svg"><path d="m49 65c0-8.8366 7.1634-16 16-16 1.3839 0 2.8094-.4126 3.8887-1.1436 1.0692-.7242 1.7423-1.7136 1.8213-2.8974.1822-2.7331.29-5.7194.29-8.959 0-6.9652-.4992-12.7601-1.1611-17.3848-.3208-2.2408-.9883-4.3312-1.9483-6.2216-.0964-.1898-.3867-.3936-.8906-.3936-3.866 0-7-3.13401-7-7 0-.50327-.2046-.79471-.3955-.8916-1.89-.95936-3.9796-1.62663-6.2197-1.94727-4.6247-.6619-10.4196-1.16113-17.3848-1.16113s-12.7601.49923-17.3848 1.16113c-8.71072 1.24683-15.20724 7.74335-16.45407 16.45407-.66191 4.6247-1.16113 10.4196-1.16113 17.3848s.49923 12.7601 1.16113 17.3848c1.24683 8.7107 7.74335 15.2072 16.45407 16.4541 4.6247.6619 10.4196 1.1611 17.3848 1.1611v1c-7.0132 0-12.8553-.5023-17.5264-1.1709-9.15059-1.3097-15.99297-8.1521-17.3027-17.3027-.66855-4.6711-1.17089995-10.5132-1.1709-17.5264 0-7.0132.50235-12.8553 1.1709-17.5264 1.30973-9.15059 8.15211-15.99297 17.3027-17.3027 4.6711-.66855 10.5132-1.1709 17.5264-1.1709 7.0132.00000021 12.8553.50235 17.5264 1.1709 2.347.33593 4.5423 1.03631 6.5312 2.0459.6457.32795.9424 1.059.9424 1.7832 0 3.31371 2.6863 6 6 6 .7238 0 1.4545.296 1.7822.9414 1.0101 1.9893 1.7109 4.1846 2.0469 6.5322.6686 4.6711 1.1709 10.5132 1.1709 17.5264 0 3.2618-.1093 6.2702-.293 9.0254-.2083 3.1242-3.5759 4.9746-6.707 4.9746-8.2843 0-15 6.7157-15 15 0 3.1311-1.8504 6.4987-4.9746 6.707-2.7552.1837-5.7636.293-9.0254.293v-1c3.2396 0 6.2259-.1078 8.959-.29 1.1838-.079 2.1732-.7521 2.8974-1.8213.731-1.0793 1.1436-2.5048 1.1436-3.8887z" fill="#000"/></svg>