<svg fill="none" height="40" viewBox="0 0 40 40" width="40" xmlns="http://www.w3.org/2000/svg"><path d="m39 20c0-3.1775-.7799-6.1699-2.1572-8.7998-.336-.6416-.4082-.7505-.5108-.8438-.0021-.0014-.0991-.0742-.4716-.2431-.347-.15731-.83-.3543-1.5088-.63185-1.7368-.71015-3.1237-2.0972-3.834-3.83399-.2777-.67892-.4745-1.16174-.6319-1.50879-.1645-.36295-.238-.46459-.2431-.47168-.0933-.10252-.2031-.17479-.8447-.51074-2.6295-1.37668-5.6211-2.15625-8.7979-2.15625-10.49341 0-19 8.50659-19 19 0 10.4934 8.50659 19 19 19v1c-11.04569 0-20-8.9543-20-20 0-11.04569 8.95431-20 20-20 3.3423 0 6.4927.820703 9.2617 2.27051.5876.30767.8821.46116 1.1201.72265.2381.26163.5124.93367 1.0616 2.27637.6087 1.48833 1.7986 2.67756 3.2871 3.28613 1.3413.54843 2.0125.82258 2.2744 1.06055.2616.23805.4158.53239.7236 1.12009 1.4505 2.7695 2.2715 5.9206 2.2715 9.2637 0 11.0457-8.9543 20-20 20v-1c10.4934 0 19-8.5066 19-19z" fill="#000"/></svg>