<svg fill="none" height="48" viewBox="0 0 48 48" width="48" xmlns="http://www.w3.org/2000/svg"><path d="m24 0c4.6754.00000009 8.5705.334575 11.6846.780273.7764.11114 1.5274.283007 2.2492.509927.7079.22253 1.0662.96777 1.0662 1.7098 0 3.31371 2.6863 6 6 6 .7416 0 1.4862.35692 1.7088 1.0643.2274.7224.3997 1.474.5109 2.2511.4457 3.1141.7803 7.0092.7803 11.6846s-.3346 8.5705-.7803 11.6846c-.8732 6.1002-5.4349 10.6619-11.5351 11.5351-3.1141.4457-7.0092.7803-11.6846.7803s-8.5705-.3346-11.6846-.7803c-6.10016-.8732-10.66189-5.4349-11.535127-11.5351-.445699-3.1141-.780273-7.0092-.780273-11.6846s.334574-8.5705.780273-11.6846c.873237-6.10016 5.434967-10.66189 11.535127-11.535127 3.1141-.445699 7.0092-.780273 11.6846-.780273z" fill="#000"/></svg>