<svg width="64" height="64" viewBox="0 0 64 64" fill="none" xmlns="http://www.w3.org/2000/svg">
<path d="M32 0C35.4128 0 38.7008 0.534249 41.7849 1.52367C43.2297 1.98718 44 3.48268 44 5C44 13.2843 50.7157 20 59 20C60.5173 20 62.0128 20.7703 62.4763 22.2151C63.4658 25.2992 64 28.5872 64 32C64 35.4128 63.4658 38.7008 62.4763 41.7849C62.0128 43.2297 60.5173 44 59 44C50.7157 44 44 50.7157 44 59C44 60.5173 43.2297 62.0128 41.7849 62.4763C38.7008 63.4658 35.4128 64 32 64C14.3269 64 0 49.6731 0 32C0 14.3269 14.3269 0 32 0Z" fill="black"/>
</svg>
