<svg fill="none" height="56" viewBox="0 0 56 56" width="56" xmlns="http://www.w3.org/2000/svg"><path clip-rule="evenodd" d="m37.7998 8c4.2377 0 7.0654.00235 9.2003.36791.6438.11023 1.2117.45554 1.7614.80835.4483.28776.9374.51735 1.4568.67842.6034.18712 1.2148.38912 1.6998.79412 1.1712.9782 2.1409 2.1869 2.8417 3.5621 1.2398 2.4333 1.2402 5.6187 1.2402 11.9893v3.8496c0 6.3706-.0004 9.556-1.2402 11.9893-1.0906 2.1402-2.8305 3.8801-4.9707 4.9707-2.4333 1.2398-5.6187 1.2402-11.9893 1.2402h-19.5996c-6.3706 0-9.55602-.0004-11.98926-1.2402-2.14026-1.0906-3.88016-2.8305-4.97071-4.9707-1.23979512-2.4333-1.24023-5.6187-1.24023-11.9893v-3.8496c0-6.3706.00043488-9.556 1.24023-11.9893 1.09055-2.1402 2.83045-3.8801 4.97071-4.97067 2.43324-1.2398 5.61866-1.24023 11.98926-1.24023z" fill="#000" fill-rule="evenodd"/></svg>