<svg fill="none" height="72" viewBox="0 0 72 72" width="72" xmlns="http://www.w3.org/2000/svg"><path clip-rule="evenodd" d="m36 0c7.0132 0 12.8553.50235 17.5264 1.1709 2.3475.33601 4.5426 1.03691 6.5318 2.04701.6453.32771.9418 1.05831.9418 1.78209 0 3.31371 2.6863 6 6 6 .7238 0 1.4544.2965 1.7821.9418 1.0101 1.9892 1.711 4.1843 2.047 6.5318.6686 4.6711 1.1709 10.5132 1.1709 17.5264 0 3.2619-.1089 6.2704-.2926 9.0256-.2083 3.1242-3.5763 4.9744-6.7074 4.9744-8.2843 0-15 6.7157-15 15 0 3.1311-1.8502 6.4991-4.9744 6.7074-2.7552.1837-5.7637.2926-9.0256.2926-7.0132 0-12.8553-.5023-17.5264-1.1709-9.15059-1.3097-15.99297-8.1521-17.3027-17.3027-.66855-4.6711-1.1709-10.5132-1.1709-17.5264s.50235-12.8553 1.1709-17.5264c1.30973-9.15059 8.15211-15.99297 17.3027-17.3027 4.6711-.66855 10.5132-1.1709 17.5264-1.1709z" fill="#000" fill-rule="evenodd"/></svg>