<svg width="56" height="56" viewBox="0 0 56 56" fill="none" xmlns="http://www.w3.org/2000/svg">
<path d="M0.910336 14.3684C1.92899 7.25119 7.25119 1.92899 14.3684 0.910336C18.0014 0.390354 22.5453 0 28 0C33.4547 0 37.9986 0.390354 41.6316 0.910336C48.7488 1.92899 54.071 7.25119 55.0897 14.3684C55.6096 18.0014 56 22.5453 56 28C56 33.4547 55.6096 37.9986 55.0897 41.6316C54.071 48.7488 48.7488 54.071 41.6316 55.0897C37.9986 55.6096 33.4547 56 28 56C22.5453 56 18.0014 55.6096 14.3684 55.0897C7.25119 54.071 1.92899 48.7488 0.910336 41.6316C0.390354 37.9986 0 33.4547 0 28C0 22.5453 0.390354 18.0014 0.910336 14.3684Z" fill="black"/>
</svg>
