<svg width="48" height="48" viewBox="0 0 48 48" fill="none" xmlns="http://www.w3.org/2000/svg">
<path d="M47.7544 17.2649C47.6523 15.9095 46.3592 15 45 15C38.3726 15 33 9.62742 33 3C33 1.64076 32.0905 0.34772 30.7351 0.245591C28.7064 0.0927331 26.4614 0 24 0C19.3246 0 15.4298 0.334589 12.3158 0.780288C6.21531 1.65342 1.65342 6.21531 0.780288 12.3158C0.334589 15.4298 0 19.3246 0 24C0 28.6754 0.334589 32.5702 0.780288 35.6842C1.65342 41.7847 6.21531 46.3466 12.3158 47.2197C15.4298 47.6654 19.3246 48 24 48C28.6754 48 32.5702 47.6654 35.6842 47.2197C41.7847 46.3466 46.3466 41.7847 47.2197 35.6842C47.6654 32.5702 48 28.6754 48 24C48 21.5386 47.9073 19.2936 47.7544 17.2649Z" fill="black"/>
</svg>
