<svg width="72" height="72" viewBox="0 0 72 72" fill="none" xmlns="http://www.w3.org/2000/svg">
<path fill-rule="evenodd" clip-rule="evenodd" d="M50.6255 11.3001C50.4023 10.5528 49.7399 10 48.96 10H23.04C14.9752 10 10.9429 10 7.86253 11.5635C5.153 12.9388 2.95008 15.1333 1.5695 17.8324C0 20.9009 0 24.9179 0 32.9517V39.0483C0 47.0821 0 51.0991 1.5695 54.1676C2.95008 56.8667 5.153 59.0612 7.86253 60.4365C10.9429 62 14.9752 62 23.04 62H48.96C49.7398 62 50.4022 61.4472 50.6254 60.7C52.474 54.5112 58.2101 49.9999 65 49.9999C68.3796 49.9999 71.8994 48.2416 71.9667 44.8626C72 43.189 72 41.2726 72 39.0483V32.9517C72 30.7273 72 28.8108 71.9667 27.1372C71.8994 23.7582 68.3796 21.9999 65 21.9999C58.2102 21.9999 52.4741 17.4887 50.6255 11.3001Z" fill="black"/>
</svg>
