<svg width="128" height="128" viewBox="0 0 128 128" fill="none" xmlns="http://www.w3.org/2000/svg">
<path d="M41.5996 18.5H88.1367C90.6159 18.5008 92.7696 20.2272 93.8877 22.5635C97.8321 30.8056 106.251 36.5 116 36.5C117.34 36.5 118.656 36.3928 119.938 36.1855C121.549 35.9253 123.207 36.1451 124.498 36.8115C125.778 37.472 126.688 38.5618 126.888 40.0811C127.499 44.7414 127.5 50.8266 127.5 59.5996V68.4004C127.5 75.6889 127.5 81.1252 127.147 85.4355C126.796 89.7402 126.096 92.8785 124.721 95.5771C122.276 100.375 118.375 104.276 113.577 106.721C110.879 108.096 107.74 108.796 103.436 109.147C99.1252 109.5 93.6889 109.5 86.4004 109.5H41.5996C34.3111 109.5 28.8748 109.5 24.5645 109.147C20.2598 108.796 17.1215 108.096 14.4229 106.721C9.62495 104.276 5.72403 100.375 3.2793 95.5771C1.90428 92.8785 1.20424 89.7402 0.852539 85.4355C0.500406 81.1252 0.5 75.6889 0.5 68.4004V59.5996C0.5 52.3111 0.500406 46.8748 0.852539 42.5645C1.20424 38.2598 1.90428 35.1215 3.2793 32.4229C5.72403 27.625 9.62495 23.724 14.4229 21.2793C17.1215 19.9043 20.2598 19.2042 24.5645 18.8525C28.8748 18.5004 34.3111 18.5 41.5996 18.5Z" stroke="black"/>
</svg>
