<svg width="80" height="80" viewBox="0 0 80 80" fill="none" xmlns="http://www.w3.org/2000/svg">
<path d="M20.5263 1.30048C10.3588 2.75571 2.75571 10.3588 1.30048 20.5263C0.557648 25.7164 0 32.2076 0 40C0 47.7924 0.557648 54.2836 1.30048 59.4737C2.75571 69.6412 10.3588 77.2443 20.5263 78.6995C25.7164 79.4423 32.2076 80 40 80C43.6067 80 46.9346 79.8805 49.9837 79.6785C53.8644 79.4215 56 74.8892 56 71C56 62.7157 62.7157 56 71 56C74.8892 56 79.4215 53.8644 79.6785 49.9837C79.8805 46.9346 80 43.6067 80 40C80 32.2076 79.4423 25.7164 78.6995 20.5263C77.2443 10.3588 69.6412 2.75571 59.4737 1.30048C54.2836 0.557648 47.7924 0 40 0C32.2076 0 25.7164 0.557648 20.5263 1.30048Z" fill="black"/>
</svg>
