<svg width="64" height="64" viewBox="0 0 64 64" fill="none" xmlns="http://www.w3.org/2000/svg">
<path d="M16.421 1.04038C8.28708 2.20456 2.20457 8.28708 1.04038 16.421C0.446119 20.5731 0 25.7661 0 32C0 38.2339 0.446119 43.4269 1.04038 47.579C2.20456 55.7129 8.28708 61.7954 16.421 62.9596C20.5731 63.5539 25.7661 64 32 64C34.9927 64 37.7455 63.8972 40.2585 63.7245C42.5398 63.5678 44 61.2867 44 59C44 50.7157 50.7157 44 59 44C61.2867 44 63.5678 42.5398 63.7245 40.2585C63.8972 37.7455 64 34.9927 64 32C64 25.7661 63.5539 20.5731 62.9596 16.421C61.7954 8.28708 55.7129 2.20457 47.579 1.04038C43.4269 0.446119 38.2339 0 32 0C25.7661 0 20.5731 0.446119 16.421 1.04038Z" fill="black"/>
</svg>
