<svg width="64" height="64" viewBox="0 0 64 64" fill="none" xmlns="http://www.w3.org/2000/svg">
<path fill-rule="evenodd" clip-rule="evenodd" d="M1.41692 16.0981C0 18.879 0 22.5193 0 29.8V34.2C0 41.4807 0 45.121 1.41692 47.9019C2.66327 50.348 4.65202 52.3367 7.09812 53.5831C9.87898 55 13.5193 55 20.8 55H43.2C43.9914 55 44.6751 54.467 44.9534 53.7261C47.0879 48.0437 52.5717 44 59 44C59.0164 44 59.0328 44 59.0491 44.0001C61.4819 44.0079 63.8884 42.5564 63.9546 40.1245C64 38.4575 64 36.5123 64 34.2V29.8C64 22.5193 64 18.879 62.5831 16.0981C61.3367 13.652 59.348 11.6633 56.9019 10.4169C54.121 9 50.4807 9 43.2 9H20.8C13.5193 9 9.87898 9 7.09812 10.4169C4.65202 11.6633 2.66327 13.652 1.41692 16.0981Z" fill="black"/>
</svg>
