<svg fill="none" height="56" viewBox="0 0 56 56" width="56" xmlns="http://www.w3.org/2000/svg"><path d="m39 52c0-7.1797 5.8203-13 13-13 .4516 0 .7656-.2273.875-.4854 1.3674-3.2304 2.125-6.7828 2.125-10.5146 0-7.0927-2.734-13.5444-7.207-18.36328-.0949-.10224-.2078-.20337-.3594-.33399-.2633-.22687-.5103-.47293-.7373-.73632-.1309-.15193-.2316-.26531-.334-.36036-4.8188-4.47231-11.2702-7.20605-18.3623-7.20605-14.9117 0-27 12.0883-27 27s12.0883 27 27 27v1c-15.464 0-28-12.536-28-28s12.536-28 28-28c7.3541 0 14.0457 2.83566 19.042 7.47266.1474.13679.2808.2881.4121.44043.1946.22583.406.43721.6318.63183.1521.13101.3029.26406.4395.41113 4.6379 4.99655 7.4746 11.68895 7.4746 19.04395 0 3.8683-.7855 7.5529-2.2041 10.9043l-.0605.1279c-.3289.6232-1.0188.9678-1.7354.9678-6.6274 0-12 5.3726-12 12 0 .7642-.392 1.498-1.0957 1.7959l-.6318.2588c-3.1805 1.2553-6.6459 1.9453-10.2725 1.9453v-1c3.7318 0 7.2842-.7576 10.5146-2.125.2581-.1093.4854-.4234.4854-.875z" fill="#000"/></svg>