<svg width="32" height="32" viewBox="0 0 32 32" fill="none" xmlns="http://www.w3.org/2000/svg">
<path d="M30.0754 8.38537C29.8455 7.96131 29.7305 7.74928 29.5289 7.54594C29.3272 7.34261 28.7461 7.02124 27.5838 6.37851C26.7594 5.9226 26.0774 5.2406 25.6215 4.41616C24.9788 3.25391 24.6574 2.67278 24.4541 2.47113C24.2507 2.26949 24.0387 2.15454 23.6146 1.92464C21.3503 0.697105 18.7566 0 16 0C7.16344 0 0 7.16344 0 16C0 24.8366 7.16344 32 16 32C24.8366 32 32 24.8366 32 16C32 13.2434 31.3029 10.6497 30.0754 8.38537Z" fill="black"/>
</svg>
