<svg width="72" height="72" viewBox="0 0 72 72" fill="none" xmlns="http://www.w3.org/2000/svg">
<path d="M18.4737 1.17043C9.32296 2.48014 2.48014 9.32296 1.17043 18.4737C0.501884 23.1447 0 28.9868 0 36C0 43.0132 0.501883 48.8553 1.17043 53.5263C2.48014 62.677 9.32296 69.5199 18.4737 70.8296C23.1447 71.4981 28.9868 72 36 72C39.2614 72 42.2695 71.8915 45.0243 71.7081C48.149 71.5001 50 68.1316 50 65C50 56.7157 56.7157 50 65 50C68.1316 50 71.5001 48.149 71.7081 45.0243C71.8915 42.2695 72 39.2614 72 36C72 28.9868 71.4981 23.1447 70.8296 18.4737C69.5199 9.32296 62.677 2.48014 53.5263 1.17043C48.8553 0.501883 43.0132 0 36 0C28.9868 0 23.1447 0.501883 18.4737 1.17043Z" fill="black"/>
</svg>
