<svg width="72" height="72" viewBox="0 0 72 72" fill="none" xmlns="http://www.w3.org/2000/svg">
<path d="M23.4004 10.625H48.5996C52.7032 10.625 55.7514 10.6251 58.165 10.8223C60.5728 11.019 62.3061 11.409 63.7881 12.1641C66.4457 13.5182 68.6068 15.6793 69.9609 18.3369C70.716 19.8189 71.106 21.5522 71.3027 23.96C71.4999 26.3736 71.5 29.4218 71.5 33.5254V38.4746C71.5 42.5782 71.4999 45.6264 71.3027 48.04C71.106 50.4478 70.716 52.1811 69.9609 53.6631C68.6068 56.3207 66.4457 58.4818 63.7881 59.8359C62.3061 60.591 60.5728 60.981 58.165 61.1777C55.7514 61.3749 52.7032 61.375 48.5996 61.375H23.4004C19.2968 61.375 16.2486 61.3749 13.835 61.1777C11.4272 60.981 9.6939 60.591 8.21191 59.8359C5.55427 58.4818 3.39325 56.3207 2.03906 53.6631C1.28395 52.1811 0.893994 50.4478 0.697266 48.04C0.500061 45.6264 0.5 42.5782 0.5 38.4746V33.5254C0.5 29.4218 0.500061 26.3736 0.697266 23.96C0.893995 21.5522 1.28395 19.8189 2.03906 18.3369C3.39325 15.6793 5.55427 13.5182 8.21191 12.1641C9.6939 11.409 11.4272 11.019 13.835 10.8223C16.2486 10.6251 19.2968 10.625 23.4004 10.625Z" stroke="black"/>
</svg>
