<svg width="48" height="48" viewBox="0 0 48 48" fill="none" xmlns="http://www.w3.org/2000/svg">
<path fill-rule="evenodd" clip-rule="evenodd" d="M34.3545 8.54368C33.8876 7.64888 33.0093 7 32 7H16C10.3995 7 7.59921 7 5.46009 8.08993C3.57847 9.04867 2.04867 10.5785 1.08993 12.4601C0 14.5992 0 17.3995 0 23V25C0 30.6005 0 33.4008 1.08993 35.5399C2.04867 37.4215 3.57847 38.9513 5.46009 39.9101C7.59921 41 10.3995 41 16 41H32C33.0093 41 33.8876 40.3511 34.3545 39.4563C36.3567 35.6194 40.3725 33 45 33C46.456 33 47.8503 32.099 47.9238 30.6449C48 29.1387 48 27.3069 48 25V23C48 20.6931 48 18.8613 47.9238 17.3552C47.8503 15.901 46.456 15 45 15C40.3725 15 36.3567 12.3806 34.3545 8.54368Z" fill="black"/>
</svg>
