<svg width="72" height="72" viewBox="0 0 72 72" fill="none" xmlns="http://www.w3.org/2000/svg">
<path fill-rule="evenodd" clip-rule="evenodd" d="M1.5695 17.8324C0 20.9009 0 24.9179 0 32.9517V39.0483C0 47.0821 0 51.0991 1.5695 54.1676C2.95008 56.8667 5.153 59.0612 7.86253 60.4365C10.9429 62 14.9752 62 23.04 62H48.96C49.7398 62 50.4022 61.4472 50.6254 60.7C52.474 54.5112 58.2101 49.9999 65 49.9999C68.3796 49.9999 71.8994 48.2416 71.9667 44.8626C72 43.189 72 41.2726 72 39.0483V32.9517C72 24.9179 72 20.9009 70.4305 17.8324C69.0499 15.1333 66.847 12.9388 64.1375 11.5635C61.0571 10 57.0248 10 48.96 10H23.04C14.9752 10 10.9429 10 7.86253 11.5635C5.153 12.9388 2.95008 15.1333 1.5695 17.8324Z" fill="black"/>
</svg>
