<svg width="64" height="64" viewBox="0 0 64 64" fill="none" xmlns="http://www.w3.org/2000/svg">
<path d="M32 0C34.9927 0 37.7455 0.102816 40.2585 0.275479C42.5398 0.432229 44 2.7133 44 5C44 13.2843 50.7157 20 59 20C61.2867 20 63.5678 21.4602 63.7245 23.7415C63.8972 26.2545 64 29.0073 64 32C64 34.9927 63.8972 37.7455 63.7245 40.2585C63.5678 42.5398 61.2867 44 59 44C50.7157 44 44 50.7157 44 59C44 61.2867 42.5398 63.5678 40.2585 63.7245C37.7455 63.8972 34.9927 64 32 64C25.7661 64 20.5731 63.5539 16.421 62.9596C8.28708 61.7954 2.20456 55.7129 1.04038 47.579C0.446119 43.4269 0 38.2339 0 32C0 25.7661 0.446119 20.5731 1.04038 16.421C2.20457 8.28708 8.28708 2.20456 16.421 1.04038C20.5731 0.446119 25.7661 0 32 0Z" fill="black"/>
</svg>
