<svg width="128" height="128" viewBox="0 0 128 128" fill="none" xmlns="http://www.w3.org/2000/svg">
<path d="M126.987 41.8458C126.605 37.8336 122.28 35.5182 118.267 35.8943C117.521 35.9642 116.765 36 116 36C102.745 36 92 25.2548 92 12C92 11.2353 92.0358 10.479 92.1057 9.73256C92.4818 5.71974 90.1664 1.39525 86.1542 1.01253C79.6942 0.396318 72.3095 0 64 0C51.5321 0 41.1462 0.892237 32.8421 2.08077C16.5742 4.40913 4.40913 16.5742 2.08077 32.8421C0.892238 41.1462 0 51.5321 0 64C0 76.4679 0.892237 86.8538 2.08077 95.1579C4.40913 111.426 16.5742 123.591 32.8421 125.919C41.1462 127.108 51.5321 128 64 128C76.4679 128 86.8538 127.108 95.1579 125.919C111.426 123.591 123.591 111.426 125.919 95.1579C127.108 86.8538 128 76.4679 128 64C128 55.6905 127.604 48.3058 126.987 41.8458Z" fill="black"/>
</svg>
