<svg width="128" height="128" viewBox="0 0 128 128" fill="none" xmlns="http://www.w3.org/2000/svg">
<path fill-rule="evenodd" clip-rule="evenodd" d="M2.83383 32.1962C0 37.758 0 45.0386 0 59.6V68.4C0 82.9614 0 90.2421 2.83383 95.8038C5.32654 100.696 9.30403 104.673 14.1962 107.166C19.758 110 27.0386 110 41.6 110H86.4C86.9909 110 87.5699 110 88.1372 110C90.8612 109.999 93.1631 108.11 94.339 105.653C98.2034 97.5775 106.45 92 116 92C117.313 92 118.602 92.1055 119.858 92.3085C123.258 92.858 126.935 91.3995 127.383 87.9845C128 83.2837 128 77.1591 128 68.4V59.6C128 45.0386 128 37.758 125.166 32.1962C122.673 27.304 118.696 23.3265 113.804 20.8338C108.242 18 100.961 18 86.4 18H41.6C27.0386 18 19.758 18 14.1962 20.8338C9.30403 23.3265 5.32654 27.304 2.83383 32.1962Z" fill="black"/>
</svg>
