<svg width="40" height="40" viewBox="0 0 40 40" fill="none" xmlns="http://www.w3.org/2000/svg">
<path d="M20 0.5C23.8723 0.5 27.0942 0.777416 29.666 1.14551C34.5298 1.84167 38.1583 5.47018 38.8545 10.334C39.2226 12.9058 39.5 16.1277 39.5 20C39.5 20.8581 39.4861 21.6843 39.4609 22.4785C39.4448 22.9878 39.437 23.1762 39.417 23.2812C39.3407 23.6807 39.2017 23.9397 39.0225 24.1133C38.8433 24.2869 38.5802 24.4178 38.1787 24.4814C38.1418 24.4873 38.0464 24.4939 37.8379 24.4971C37.6396 24.5001 37.3688 24.5 37 24.5C30.0964 24.5 24.5 30.0964 24.5 37C24.5 37.3688 24.5001 37.6396 24.4971 37.8379C24.4939 38.0464 24.4873 38.1418 24.4814 38.1787C24.4178 38.5802 24.2869 38.8433 24.1133 39.0225C23.9397 39.2017 23.6807 39.3407 23.2812 39.417C23.1762 39.437 22.9878 39.4448 22.4785 39.4609C21.6843 39.4861 20.8581 39.5 20 39.5C16.1277 39.5 12.9058 39.2226 10.334 38.8545C5.47018 38.1583 1.84166 34.5298 1.14551 29.666C0.777416 27.0942 0.5 23.8723 0.5 20C0.5 16.1277 0.777416 12.9058 1.14551 10.334C1.84166 5.47018 5.47018 1.84166 10.334 1.14551C12.9058 0.777416 16.1277 0.5 20 0.5Z" stroke="black"/>
</svg>
