<svg width="56" height="56" viewBox="0 0 56 56" fill="none" xmlns="http://www.w3.org/2000/svg">
<path fill-rule="evenodd" clip-rule="evenodd" d="M55.8645 18.9808C55.7286 17.1196 53.8662 16.125 52 16.125C47.7403 16.125 43.9991 13.9056 41.8695 10.56C40.956 9.12486 39.5012 8 37.8 8H18.2C11.8294 8 8.6441 8 6.21086 9.2398C4.07051 10.3304 2.33036 12.0705 1.2398 14.2109C0 16.6441 0 19.8294 0 26.2V30.05C0 36.4206 0 39.6059 1.2398 42.0391C2.33036 44.1795 4.07051 45.9196 6.21086 47.0102C8.6441 48.25 11.8294 48.25 18.2 48.25H37.8C44.1706 48.25 47.3559 48.25 49.7891 47.0102C51.9295 45.9196 53.6696 44.1795 54.7602 42.0391C56 39.6059 56 36.4206 56 30.05V26.2C56 23.1541 56 20.8364 55.8645 18.9808Z" fill="black"/>
</svg>
