<svg width="64" height="64" viewBox="0 0 64 64" fill="none" xmlns="http://www.w3.org/2000/svg">
<path d="M0 29.8C0 22.5193 0 18.879 1.41692 16.0981C2.66327 13.652 4.65202 11.6633 7.09812 10.4169C9.87898 9 13.5193 9 20.8 9H43.2C50.4807 9 54.121 9 56.9019 10.4169C59.348 11.6633 61.3367 13.652 62.5831 16.0981C64 18.879 64 22.5193 64 29.8V34.2C64 41.4807 64 45.121 62.5831 47.9019C61.3367 50.348 59.348 52.3367 56.9019 53.5831C54.121 55 50.4807 55 43.2 55H20.8C13.5193 55 9.87898 55 7.09812 53.5831C4.65202 52.3367 2.66327 50.348 1.41692 47.9019C0 45.121 0 41.4807 0 34.2V29.8Z" fill="black"/>
</svg>
