<svg width="128" height="128" viewBox="0 0 128 128" fill="none" xmlns="http://www.w3.org/2000/svg">
<path d="M64 0.5C72.5391 0.5 80.6832 2.18566 88.1191 5.24121C90.412 6.1834 91.5751 8.72862 91.5078 11.3604C91.5024 11.5728 91.5 11.7863 91.5 12C91.5 25.531 102.469 36.5 116 36.5C116.214 36.5 116.427 36.4976 116.64 36.4922C119.271 36.4249 121.817 37.588 122.759 39.8809C125.814 47.3168 127.5 55.4609 127.5 64C127.5 72.5391 125.814 80.6832 122.759 88.1191C121.817 90.412 119.271 91.5751 116.64 91.5078C116.427 91.5024 116.214 91.5 116 91.5C102.469 91.5 91.5 102.469 91.5 116C91.5 116.214 91.5024 116.427 91.5078 116.64C91.5751 119.271 90.412 121.817 88.1191 122.759C80.6832 125.814 72.5391 127.5 64 127.5C28.9299 127.5 0.5 99.0701 0.5 64C0.5 28.9299 28.9299 0.5 64 0.5Z" stroke="black"/>
</svg>
