<svg width="64" height="64" viewBox="0 0 64 64" fill="none" xmlns="http://www.w3.org/2000/svg">
<path d="M32 0.5C38.2098 0.5 43.379 0.944238 47.5078 1.53516C55.4219 2.66787 61.3321 8.57811 62.4648 16.4922C63.0558 20.621 63.5 25.7902 63.5 32C63.5 38.2098 63.0558 43.379 62.4648 47.5078C61.3321 55.4219 55.4219 61.3321 47.5078 62.4648C43.379 63.0558 38.2098 63.5 32 63.5C25.7902 63.5 20.621 63.0558 16.4922 62.4648C8.57811 61.3321 2.66787 55.4219 1.53516 47.5078C0.944239 43.379 0.5 38.2098 0.5 32C0.5 25.7902 0.944238 20.621 1.53516 16.4922C2.66787 8.57811 8.57811 2.66787 16.4922 1.53516C20.621 0.944238 25.7902 0.5 32 0.5Z" stroke="black"/>
</svg>
