<svg width="40" height="40" viewBox="0 0 40 40" fill="none" xmlns="http://www.w3.org/2000/svg">
<path d="M25 3C25 2.37862 25 2.06793 24.9688 1.8935C24.8331 1.13314 24.3678 0.59417 23.6355 0.348756C23.4675 0.292458 23.2939 0.26683 22.9468 0.215575C21.9851 0.0735617 21.0012 0 20 0C8.95431 0 0 8.95431 0 20C0 31.0457 8.95431 40 20 40C21.0012 40 21.9851 39.9264 22.9468 39.7844C23.2939 39.7332 23.4675 39.7075 23.6355 39.6512C24.3678 39.4058 24.8331 38.8669 24.9688 38.1065C25 37.9321 25 37.6214 25 37C25 30.3726 30.3726 25 37 25C37.6214 25 37.9321 25 38.1065 24.9688C38.8669 24.8331 39.4058 24.3678 39.6512 23.6355C39.7075 23.4675 39.7332 23.2939 39.7844 22.9468C39.9264 21.9851 40 21.0012 40 20C40 18.9988 39.9264 18.0149 39.7844 17.0532C39.7332 16.7061 39.7075 16.5325 39.6512 16.3645C39.4058 15.6322 38.8669 15.1669 38.1065 15.0312C37.9321 15 37.6214 15 37 15C30.3726 15 25 9.62742 25 3Z" fill="black"/>
</svg>
