<svg width="72" height="72" viewBox="0 0 72 72" fill="none" xmlns="http://www.w3.org/2000/svg">
<path d="M36 0.5C39.2503 0.5 42.2474 0.60839 44.9912 0.791016C46.3643 0.882436 47.4806 1.66571 48.2695 2.83008C49.0618 3.9996 49.5 5.52501 49.5 7C49.5 15.5604 56.4396 22.5 65 22.5C66.475 22.5 68.0004 22.9382 69.1699 23.7305C70.3343 24.5194 71.1176 25.6357 71.209 27.0088C71.3916 29.7526 71.5 32.7497 71.5 36C71.5 42.989 71.0002 48.8073 70.335 53.4551C69.0567 62.3859 62.3859 69.0567 53.4551 70.335C48.8073 71.0002 42.989 71.5 36 71.5C29.011 71.5 23.1927 71.0002 18.5449 70.335C9.6141 69.0567 2.94327 62.3859 1.66504 53.4551C0.999847 48.8073 0.5 42.989 0.5 36C0.5 29.011 0.999847 23.1927 1.66504 18.5449C2.94327 9.6141 9.6141 2.94327 18.5449 1.66504C23.1927 0.999847 29.011 0.5 36 0.5Z" stroke="black"/>
</svg>
