<svg width="40" height="40" viewBox="0 0 40 40" fill="none" xmlns="http://www.w3.org/2000/svg">
<path fill-rule="evenodd" clip-rule="evenodd" d="M26.531 8.86948C25.6613 7.3216 25.2264 6.54766 24.7585 6.27383C24.2906 6 23.6194 6 22.2772 6H12.8C8.31958 6 6.07937 6 4.36808 6.87195C2.86278 7.63893 1.63893 8.86278 0.871948 10.3681C0 12.0794 0 14.3196 0 18.8V21.2C0 25.6804 0 27.9206 0.871948 29.6319C1.63893 31.1372 2.86278 32.3611 4.36808 33.1281C6.07937 34 8.31958 34 12.8 34H22.2772C23.6194 34 24.2906 34 24.7585 33.7262C25.2264 33.4523 25.6613 32.6784 26.531 31.1305C28.5866 27.4719 32.5046 25 37 25C37.7756 25 38.1634 25 38.3264 24.9729C39.2905 24.8125 39.8084 24.2956 39.9705 23.3318C39.9979 23.1688 39.9984 22.9066 39.9993 22.382C40 22.0061 40 21.6126 40 21.2V18.8C40 18.3874 40 17.9939 39.9993 17.618C39.9984 17.0934 39.9979 16.8312 39.9705 16.6682C39.8084 15.7044 39.2905 15.1875 38.3264 15.0271C38.1634 15 37.7756 15 37 15C32.5046 15 28.5866 12.5281 26.531 8.86948Z" fill="black"/>
</svg>
