<svg width="24" height="24" viewBox="0 0 24 24" fill="none" xmlns="http://www.w3.org/2000/svg">
<path fill-rule="evenodd" clip-rule="evenodd" d="M23.8604 8.41742C23.7895 7.53843 22.8818 7 22 7C19.2386 7 17 4.76142 17 2C17 1.11816 16.4616 0.210522 15.5826 0.139576C14.5125 0.0532055 13.3183 0 12 0C9.66228 0 7.71491 0.167294 6.15789 0.390144C3.10765 0.826712 0.826712 3.10765 0.390144 6.15789C0.167295 7.71491 0 9.66228 0 12C0 14.3377 0.167294 16.2851 0.390144 17.8421C0.826712 20.8923 3.10765 23.1733 6.15789 23.6099C7.71491 23.8327 9.66228 24 12 24C14.3377 24 16.2851 23.8327 17.8421 23.6099C20.8923 23.1733 23.1733 20.8923 23.6099 17.8421C23.8327 16.2851 24 14.3377 24 12C24 10.6817 23.9468 9.48747 23.8604 8.41742Z" fill="black"/>
</svg>
