<svg width="72" height="72" viewBox="0 0 72 72" fill="none" xmlns="http://www.w3.org/2000/svg">
<path d="M36 0.5C39.7067 0.5 43.2799 1.06785 46.6377 2.12109C48.5267 2.71362 49.5 4.80219 49.5 7C49.5 15.5604 56.4396 22.5 65 22.5C67.1978 22.5 69.2864 23.4733 69.8789 25.3623C70.9322 28.7201 71.5 32.2933 71.5 36C71.5 39.7067 70.9322 43.2799 69.8789 46.6377C69.2864 48.5267 67.1978 49.5 65 49.5C56.4396 49.5 49.5 56.4396 49.5 65C49.5 67.1978 48.5267 69.2864 46.6377 69.8789C43.2799 70.9322 39.7067 71.5 36 71.5C16.3939 71.5 0.5 55.6061 0.5 36C0.5 16.3939 16.3939 0.5 36 0.5Z" stroke="black"/>
</svg>
