<svg width="80" height="80" viewBox="0 0 80 80" fill="none" xmlns="http://www.w3.org/2000/svg">
<path d="M40 0.5C43.5954 0.5 46.9121 0.619068 49.9502 0.820312C51.6814 0.934997 53.0587 2.00125 54.0215 3.56152C54.9863 5.1252 55.5 7.13738 55.5 9C55.5 17.5604 62.4396 24.5 71 24.5C72.8626 24.5 74.8748 25.0137 76.4385 25.9785C77.9987 26.9413 79.065 28.3186 79.1797 30.0498C79.3809 33.0879 79.5 36.4046 79.5 40C79.5 47.7685 78.9436 54.2365 78.2041 59.4033C76.7802 69.3505 69.3505 76.7802 59.4033 78.2041C54.2365 78.9436 47.7685 79.5 40 79.5C32.2315 79.5 25.7635 78.9436 20.5967 78.2041C10.6495 76.7802 3.21981 69.3505 1.7959 59.4033C1.05639 54.2365 0.5 47.7685 0.5 40C0.5 32.2315 1.05639 25.7635 1.7959 20.5967C3.21981 10.6495 10.6495 3.21981 20.5967 1.7959C25.7635 1.05639 32.2315 0.5 40 0.5Z" stroke="black"/>
</svg>
