<svg width="32" height="32" viewBox="0 0 32 32" fill="none" xmlns="http://www.w3.org/2000/svg">
<path d="M16 0.5C18.6712 0.5 21.1831 1.17548 23.376 2.36426C23.8163 2.60298 23.959 2.68486 24.1016 2.82617C24.15 2.87417 24.2513 3.01264 24.4424 3.33691C24.6241 3.64531 24.8607 4.07439 25.1836 4.6582C25.685 5.56493 26.4351 6.31499 27.3418 6.81641C27.9256 7.13926 28.3547 7.37586 28.6631 7.55762C28.9874 7.74874 29.1258 7.85003 29.1738 7.89844C29.3151 8.04099 29.397 8.18368 29.6357 8.62402C30.8245 10.8169 31.5 13.3288 31.5 16C31.5 24.5604 24.5604 31.5 16 31.5C7.43959 31.5 0.5 24.5604 0.5 16C0.5 7.43959 7.43959 0.5 16 0.5Z" stroke="black"/>
</svg>
