<svg width="80" height="80" viewBox="0 0 80 80" fill="none" xmlns="http://www.w3.org/2000/svg">
<path d="M79.6785 30.0163C79.4215 26.1356 74.8891 24 71 24C62.7157 24 56 17.2843 56 9C56 5.11085 53.8644 0.578524 49.9837 0.321452C46.9346 0.119461 43.6066 0 40 0C32.2076 0 25.7164 0.557648 20.5263 1.30048C10.3588 2.75571 2.75571 10.3588 1.30048 20.5263C0.557648 25.7164 0 32.2076 0 40C0 47.7924 0.557648 54.2836 1.30048 59.4737C2.75571 69.6412 10.3588 77.2443 20.5263 78.6995C25.7164 79.4423 32.2076 80 40 80C47.7924 80 54.2836 79.4423 59.4737 78.6995C69.6412 77.2443 77.2443 69.6412 78.6995 59.4737C79.4423 54.2836 80 47.7924 80 40C80 36.3933 79.8805 33.0654 79.6785 30.0163Z" fill="black"/>
</svg>
