<svg fill="none" height="56" viewBox="0 0 56 56" width="56" xmlns="http://www.w3.org/2000/svg"><path d="m28 0c7.3546 0 14.0461 2.83652 19.0425 7.47407.1473.13675.2803.2879.4115.44017.1947.2259.4059.43708.6318.63175.1522.13123.3034.26419.4401.41152 4.6376 4.99639 7.4741 11.68789 7.4741 19.04249 0 3.8683-.7853 7.5529-2.204 10.9043-.2979.7037-1.0318 1.0957-1.796 1.0957-6.6274 0-12 5.3726-12 12 0 .7642-.392 1.4981-1.0957 1.796-3.3514 1.4187-7.036 2.204-10.9043 2.204-15.464 0-28-12.536-28-28s12.536-28 28-28z" fill="#000"/></svg>