<svg width="64" height="64" viewBox="0 0 64 64" fill="none" xmlns="http://www.w3.org/2000/svg">
<path fill-rule="evenodd" clip-rule="evenodd" d="M44.9534 10.2739C44.6751 9.53304 43.9914 9 43.2 9H20.8C13.5193 9 9.87898 9 7.09812 10.4169C4.65202 11.6633 2.66327 13.652 1.41692 16.0981C0 18.879 0 22.5193 0 29.8V34.2C0 41.4807 0 45.121 1.41692 47.9019C2.66327 50.348 4.65202 52.3367 7.09812 53.5831C9.87898 55 13.5193 55 20.8 55H43.2C43.9914 55 44.6751 54.467 44.9534 53.7261C47.0879 48.0437 52.5717 44 59 44C59.0164 44 59.0328 44 59.0491 44.0001C61.4819 44.0079 63.8884 42.5564 63.9546 40.1245C64 38.4575 64 36.5123 64 34.2V29.8C64 27.4877 64 25.5425 63.9546 23.8755C63.8884 21.4436 61.4819 19.9921 59.0491 19.9999C59.0327 20 59.0164 20 59 20C52.5717 20 47.0879 15.9563 44.9534 10.2739Z" fill="black"/>
</svg>
