<svg width="80" height="80" viewBox="0 0 80 80" fill="none" xmlns="http://www.w3.org/2000/svg">
<path d="M40 0.5C47.7685 0.5 54.2365 1.05639 59.4033 1.7959C69.3505 3.21981 76.7802 10.6495 78.2041 20.5967C78.9436 25.7635 79.5 32.2315 79.5 40C79.5 43.5954 79.3809 46.9121 79.1797 49.9502C79.065 51.6814 77.9987 53.0587 76.4385 54.0215C74.8748 54.9863 72.8626 55.5 71 55.5C62.4396 55.5 55.5 62.4396 55.5 71C55.5 72.8626 54.9863 74.8748 54.0215 76.4385C53.0587 77.9987 51.6814 79.065 49.9502 79.1797C46.9121 79.3809 43.5954 79.5 40 79.5C32.2315 79.5 25.7635 78.9436 20.5967 78.2041C10.6495 76.7802 3.21981 69.3505 1.7959 59.4033C1.05639 54.2365 0.5 47.7685 0.5 40C0.5 32.2315 1.05639 25.7635 1.7959 20.5967C3.21981 10.6495 10.6495 3.21981 20.5967 1.7959C25.7635 1.05639 32.2315 0.5 40 0.5Z" stroke="black"/>
</svg>
