<svg width="48" height="48" viewBox="0 0 48 48" fill="none" xmlns="http://www.w3.org/2000/svg">
<path d="M45 15.5C46.3006 15.5 47.3693 16.2905 47.4245 17.3804C47.4999 18.8711 47.5 20.6885 47.5 23V25C47.5 27.8085 47.4996 29.8848 47.3654 31.5273C47.2317 33.1639 46.9676 34.3256 46.4646 35.3129C45.5538 37.1005 44.1005 38.5538 42.3129 39.4646C41.3256 39.9676 40.1639 40.2317 38.5273 40.3654C36.8848 40.4996 34.8085 40.5 32 40.5H16C13.1915 40.5 11.1152 40.4996 9.47274 40.3654C7.83614 40.2317 6.67442 39.9676 5.68709 39.4646C3.89955 38.5538 2.44623 37.1004 1.53544 35.3129C1.03237 34.3256 0.768297 33.1639 0.634581 31.5273C0.500389 29.8848 0.5 27.8085 0.5 25V23C0.5 20.1915 0.500389 18.1152 0.634581 16.4727C0.768297 14.8361 1.03237 13.6744 1.53544 12.6871C2.44623 10.8996 3.89955 9.44623 5.68709 8.53544C6.67442 8.03237 7.83614 7.7683 9.47274 7.63458C11.1152 7.50039 13.1915 7.5 16 7.5H32C32.7849 7.5 33.5113 8.00858 33.9112 8.77499C35.9962 12.7706 40.1789 15.5 45 15.5Z" stroke="black"/>
</svg>
