<svg xmlns="http://www.w3.org/2000/svg" width="24" height="24" viewBox="0 0 24 24" fill="none"><rect width="24" height="24" fill="none"/>
<path d="M11.9945 2.09382C12.0011 2.08723 12.0118 2.08723 12.0184 2.09382L17.3275 7.40293C17.3276 7.40307 17.3276 7.40278 17.3275 7.40293C17.3273 7.40307 17.3273 7.40383 17.3275 7.40398C17.8086 7.92131 17.6142 8.76917 16.9452 9.02008L15.173 9.68471C15.0393 9.73483 14.9179 9.81299 14.817 9.91392L13.3368 11.3941L19.0644 17.1217L17.734 18.4521L12.0064 12.7245L10.526 14.2049C10.4251 14.3058 10.3469 14.4272 10.2968 14.5609L9.63224 16.3329C9.38132 17.002 8.53348 17.1964 8.01615 16.7152C8.01606 16.7152 8.01626 16.7152 8.01615 16.7152L7.9927 16.6927L7.98881 16.6889L2.86828 11.5684L2.86441 11.5645L2.70603 11.4061C2.69946 11.3995 2.69946 11.3888 2.70603 11.3823C2.71149 11.3768 2.7125 11.3683 2.70861 11.3616C2.40871 10.8462 2.62801 10.1485 3.22429 9.92491L4.52396 9.43757C4.65763 9.38745 4.77902 9.30928 4.87997 9.20834L9.82063 4.26768C9.92157 4.16673 9.99974 4.04534 10.0499 3.91167L10.5371 2.61214C10.7607 2.01589 11.4584 1.79658 11.9738 2.09641C11.9805 2.1003 11.989 2.0993 11.9945 2.09382Z" fill="#000000"/>
<path d="M3.00001 19L3.00001 21H12V19H3.00001Z" fill="#000000"/>
</svg>
