<svg xmlns="http://www.w3.org/2000/svg" width="24" height="24" viewBox="0 0 24 24" fill="none"><rect width="24" height="24" fill="none"/>
<path d="M3.56966 4.26567C2.22605 5.2254 2.06869 7.16311 3.23984 8.32706L15.2743 20.2874C16.4407 21.4467 18.3682 21.2842 19.324 19.946L21.72 16.5916C22.0049 16.1928 21.9587 15.6462 21.6109 15.3008L21.2572 14.9496L17.8537 18.3531L17.1466 17.646L20.5476 14.2449L19.752 13.4548L16.3537 16.8531L15.6466 16.146L19.0424 12.7502L18.2467 11.96L14.8537 15.3531L14.1466 14.646L17.5372 11.2554L16.7415 10.4653L13.3537 13.8531L12.6466 13.146L16.0319 9.76064L15.2363 8.97051L11.8537 12.3531L11.1466 11.646L14.5267 8.26587L13.7311 7.47574L10.3537 10.8531L9.64657 10.146L13.0215 6.7711L12.2258 5.98097L8.85367 9.35312L8.14657 8.64601L11.5162 5.27633L10.7206 4.4862L7.35367 7.85311L6.64657 7.14601L10.011 3.78156L9.21536 2.99143L5.85367 6.35311L5.14657 5.64601L8.50579 2.28679L8.19872 1.98185C7.85279 1.63833 7.30956 1.59432 6.91284 1.87769L3.56966 4.26567Z" fill="#000000"/>
</svg>
