<svg xmlns="http://www.w3.org/2000/svg" width="16" height="16" viewBox="0 0 16 16" fill="none"><rect width="16" height="16" fill="none"/>
<path fill-rule="evenodd" clip-rule="evenodd" d="M15.5 8C15.5 12.1421 12.1421 15.5 8 15.5C3.85786 15.5 0.5 12.1421 0.5 8C0.5 3.85786 3.85786 0.5 8 0.5C12.1421 0.5 15.5 3.85786 15.5 8ZM8.85145 7V11.9961H7.15487V7H8.85145ZM8 6C8.6019 6 9.08984 5.51206 9.08984 4.91016C9.08984 4.30825 8.6019 3.82031 8 3.82031C7.3981 3.82031 6.91016 4.30825 6.91016 4.91016C6.91016 5.51206 7.3981 6 8 6Z" fill="#000000"/>
</svg>
