<svg xmlns="http://www.w3.org/2000/svg" width="24" height="24" viewBox="0 0 24 24" fill="none"><rect width="24" height="24" fill="none"/>
<path fill-rule="evenodd" clip-rule="evenodd" d="M3.58648 13.0002C2.67245 13.0002 2.23748 11.8751 2.91381 11.2602L10.9909 3.91743C11.563 3.39731 12.4368 3.39731 13.0089 3.91743L21.0859 11.2602C21.7623 11.8751 21.3273 13.0002 20.4133 13.0002H18.9999V19.5002C18.9999 20.3286 18.3283 21.0002 17.4999 21.0002H6.49988C5.67145 21.0002 4.99988 20.3286 4.99988 19.5002V13.0002H3.58648ZM15.9998 3.5449H17.9998V6.99998L15.9998 4.99998V3.5449ZM11.5732 9.69827L9.36781 13.3071C8.11171 15.3625 9.59098 18.0001 11.9998 18.0001C14.4087 18.0001 15.888 15.3625 14.6319 13.3071L12.4265 9.69827C12.2315 9.37924 11.7682 9.37924 11.5732 9.69827Z" fill="#000000"/>
</svg>
