<svg xmlns="http://www.w3.org/2000/svg" width="24" height="24" viewBox="0 0 24 24" fill="none"><rect width="24" height="24" fill="none"/>
<path fill-rule="evenodd" clip-rule="evenodd" d="M21.1247 6.67755C21.4761 7.26024 21.7277 7.90429 21.7721 8.46609C21.7721 8.46609 21.9715 10.0756 22 11.982C21.9983 13.1593 21.9317 14.3357 21.8006 15.5061C21.6018 16.7316 20.9541 17.8455 19.9772 18.6418C19.9772 18.6418 18.6382 19.5853 16.9858 20.5565C15.9617 21.1473 14.9061 21.6846 13.8234 22.166C13.2457 22.3984 12.6249 22.5118 12 22.499C11.3759 22.5118 10.7557 22.4013 10.1766 22.1743C9.09376 21.6932 8.03812 21.156 7.01425 20.5649C5.36182 19.6214 4.02279 18.6502 4.02279 18.6502C3.16809 17.9842 2.31339 16.5967 2.19943 15.5145C2.06962 14.3439 2.00305 13.1676 2 11.9903C2.00175 10.8129 2.06832 9.63651 2.19943 8.46609C2.39822 7.2406 3.04595 6.12668 4.02279 5.3304C4.02279 5.3304 5.36182 4.41467 7.01425 3.44344C8.03831 2.85267 9.09393 2.31542 10.1766 1.83397C10.7543 1.60156 11.3751 1.48819 12 1.50097C12.6246 1.49086 13.2449 1.60414 13.8234 1.83397C14.9062 2.31508 15.9619 2.85234 16.9858 3.44344C18.0174 4.01891 19.0161 4.64883 19.9772 5.3304C20.3882 5.65067 20.7992 6.13777 21.1247 6.67755ZM13 11H17V8C17 7.44772 16.5523 7 16 7L13 7V11ZM11 7V11H7V8C7 7.44772 7.44772 7 8 7H11ZM11 13H7V16C7 16.5523 7.44772 17 8 17H11V13ZM15 13V15H13V17H16C16.5523 17 17 16.5523 17 16V13H15Z" fill="#000000"/>
</svg>
