<svg xmlns="http://www.w3.org/2000/svg" width="24" height="24" viewBox="0 0 24 24" fill="none"><rect width="24" height="24" fill="none"/>
<path d="M20.3407 5.6494C21.0095 8.14518 20.0531 10.6936 18.1203 12.1711C18.1096 12.23 18.0945 12.2884 18.0752 12.3456L17.7446 13.3227C17.5845 13.7961 17.7247 14.3193 18.1 14.6492L18.5365 15.0328C18.9119 15.3627 19.0521 15.8859 18.8919 16.3593L18.7057 16.9097C18.5456 17.3831 18.6858 17.9063 19.0612 18.2362L19.1354 18.3014C19.6689 18.7703 19.6993 19.5909 19.2019 20.098L16.1204 23.2396L15.3349 20.4461L13.4396 13.3729C11.081 13.0161 9.04098 11.3046 8.38411 8.85316C7.49941 5.55144 9.45881 2.15767 12.7605 1.27297C16.0623 0.38828 19.456 2.34767 20.3407 5.6494Z" fill="#000000"/>
<path d="M9.54635 13.9835C9.59235 13.9801 9.63825 13.9762 9.68407 13.9717C8.1517 12.9062 6.97344 11.3139 6.45255 9.3699C5.69398 6.53888 6.51571 3.65672 8.377 1.66001C6.05407 1.93054 3.98492 3.51269 3.20825 5.88081C2.41728 8.29253 3.18921 10.8413 4.96885 12.43L2.68619 19.3899L1.7973 21.9015L6.04326 21.1663C6.76485 21.0414 7.22082 20.3207 7.02472 19.6152L7.0144 19.578C6.88058 19.0965 7.04939 18.5818 7.44236 18.2731L7.89931 17.9142C8.29228 17.6055 8.46109 17.0908 8.32727 16.6093L8.17167 16.0494C8.03785 15.568 8.20666 15.0532 8.59963 14.7445L9.4108 14.1073C9.45919 14.0693 9.50446 14.0279 9.54635 13.9835Z" fill="#000000"/>
</svg>
