<svg xmlns="http://www.w3.org/2000/svg" width="24" height="24" viewBox="0 0 24 24" fill="none"><rect width="24" height="24" fill="none"/>
<path fill-rule="evenodd" clip-rule="evenodd" d="M12 9.02734C10.9513 7.23072 9.65792 5.11095 7.26518 5.11095C5.20405 5.11095 3.55449 6.76868 3.55449 8.78738C3.55449 9.8175 3.9795 10.7477 4.67433 11.4193L11.9993 18.9702L19.3246 11.4188C20.0201 10.747 20.4455 9.81645 20.4455 8.78585C20.4455 6.76715 18.7959 5.10942 16.7347 5.10942C14.3414 5.10942 13.0705 7.22142 12 9.02734ZM11.9993 22.0004L3.19769 12.9394L3.20699 12.9374L3.20336 12.9339C3.20047 12.9311 3.19757 12.9283 3.19468 12.9255C2.65098 12.3969 2.21104 11.7633 1.90806 11.0576C1.60877 10.3606 1.44312 9.5932 1.44312 8.78738C1.44312 5.59087 4.04974 2.99958 7.26518 2.99958C8.44581 2.99958 9.54438 3.34893 10.462 3.94931C11.0607 4.34105 11.5823 4.83966 11.9995 5.41784C12.4164 4.83951 12.9379 4.34073 13.5365 3.9488C14.4543 3.34779 15.5534 2.99805 16.7347 2.99805C19.9502 2.99805 22.5568 5.58933 22.5568 8.78585C22.5568 9.59025 22.3918 10.3563 22.0935 11.0524C21.7902 11.7601 21.3492 12.3954 20.804 12.9253C20.8011 12.9281 20.7981 12.9309 20.7952 12.9338L20.7914 12.9374L20.801 12.9394L11.9993 22.0004Z" fill="#000000"/>
</svg>
