<svg xmlns="http://www.w3.org/2000/svg" width="24" height="24" viewBox="0 0 24 24" fill="none"><rect width="24" height="24" fill="none"/>
<path d="M11.5246 3.37529C10.9242 2.54306 9.94271 2.00087 8.83388 2.00087C7.00638 2.00087 5.5249 3.47363 5.5249 5.29038C5.5249 6.21548 5.90904 7.05139 6.5274 7.64907L6.52211 7.65023L11.5245 12.5025L16.527 7.65023L16.5215 7.64904C17.1404 7.0513 17.5249 6.21504 17.5249 5.2895C17.5249 3.47276 16.0434 2 14.2159 2C13.1067 2 12.125 2.54256 11.5246 3.37529Z" fill="#000000"/>
<path d="M11.6909 13.7334L16.8168 14.1088C18.907 14.2619 20.5247 16.0026 20.5247 18.0984V19.5659L20.5249 19.6267V22.6267C12.8476 22.6267 5.86533 18.9884 3.97879 17.9189C3.66341 17.7402 3.47998 17.4062 3.47998 17.0437C3.47998 16.339 4.16358 15.8223 4.85007 15.9816C6.80913 16.4362 10.6233 17.1319 14.6673 16.8354L11.3083 15.8569C10.8452 15.722 10.5269 15.2976 10.5269 14.8153C10.5269 14.185 11.0623 13.6874 11.6909 13.7334Z" fill="#000000"/>
</svg>
