<svg xmlns="http://www.w3.org/2000/svg" width="24" height="24" viewBox="0 0 24 24" fill="none"><rect width="24" height="24" fill="none"/>
<path d="M11.9992 21.7115C17.5206 21.7115 21.9965 17.363 21.9965 11.9989C21.9965 6.63477 17.5206 2.28632 11.9992 2.28632C6.47789 2.28632 2.00195 6.63477 2.00195 11.9989C2.00195 17.363 6.47789 21.7115 11.9992 21.7115Z" fill="#FFC800"/>
<path d="M16.3005 19.2353C12.9053 21.1386 9.22324 21.4797 6.87128 20.3396C9.88249 22.0827 13.7488 22.2335 16.9985 20.4112C20.2482 18.587 22.0476 15.2591 21.999 11.8538C21.8401 14.4016 19.6937 17.3301 16.3005 19.2353Z" fill="black"/>
<path d="M13.265 2.99875C13.9533 4.15582 12.2897 6.34179 9.54796 7.87764C6.80626 9.41537 4.02773 9.72254 3.3394 8.56359C3.31031 8.50894 3.28317 8.44863 3.26378 8.38645C3.08539 7.84749 3.29868 7.15023 3.81251 6.41529C3.89588 6.30034 3.98119 6.18727 4.06845 6.07608C4.84404 5.09428 5.82708 4.2425 6.99821 3.58671C8.16936 2.92903 9.41999 2.52952 10.6822 2.36745C10.8296 2.34672 10.9731 2.33165 11.1127 2.32223C12.024 2.25627 12.7511 2.42587 13.1428 2.84422C13.1893 2.89322 13.23 2.94599 13.265 2.99875Z" fill="black"/>
<path d="M17.5167 4.24991C18.7189 6.27194 16.2932 9.81663 12.1012 12.1684C7.9092 14.5202 3.5349 14.7878 2.33469 12.7658C2.13497 12.4285 2.02833 12.0535 2.007 11.6502C1.95465 13.0089 2.19508 14.3902 2.75544 15.7018C2.83881 15.8978 2.92995 16.0919 3.02689 16.2841C3.03078 16.2916 3.03659 16.3011 3.04047 16.3086C3.40305 16.9173 3.93821 17.3959 4.60521 17.7427C6.95718 18.9657 10.934 18.5455 14.6529 16.4594C18.3699 14.3733 20.7335 11.2394 20.8208 8.65015C20.8459 7.91897 20.6889 7.23114 20.3302 6.62246C20.1945 6.42459 20.0529 6.23049 19.9036 6.04581C19.0214 4.93774 17.924 4.05581 16.7043 3.42639C17.0436 3.64311 17.319 3.91824 17.5167 4.24991C17.5167 4.24991 17.5187 4.25179 17.5187 4.25367L17.5167 4.24991Z" fill="black"/>
<path d="M11.9992 21.7115C17.5206 21.7115 21.9965 17.363 21.9965 11.9989C21.9965 6.63477 17.5206 2.28632 11.9992 2.28632C6.47789 2.28632 2.00195 6.63477 2.00195 11.9989C2.00195 17.363 6.47789 21.7115 11.9992 21.7115Z" fill="url(#paint0_radial_241_515)"/>
<defs>
<radialGradient id="paint0_radial_241_515" cx="0" cy="0" r="1" gradientUnits="userSpaceOnUse" gradientTransform="translate(11.9998 11.999) scale(9.99703 9.71615)">
<stop offset="0.5" stop-color="white" stop-opacity="0"/>
<stop offset="1" stop-color="white" stop-opacity="0.35"/>
</radialGradient>
</defs>
</svg>
