<svg xmlns="http://www.w3.org/2000/svg" width="48" height="16" viewBox="0 0 48 16" fill="none"><rect width="48" height="16" fill="none"/>
<path fill-rule="evenodd" clip-rule="evenodd" d="M19.0148 1.00116L13.1481 14.9989H9.32003L6.43319 3.82767C6.25769 3.13938 6.10527 2.88778 5.57214 2.59802C4.70264 2.12591 3.26506 1.68259 2 1.40769L2.0866 1.00116H8.24783C9.03301 1.00116 9.73935 1.52378 9.91759 2.42824L11.4425 10.5287L15.2107 1.00116H19.0148ZM34.0134 10.4286C34.029 6.73416 28.904 6.53055 28.9397 4.88021C28.9502 4.37771 29.4289 3.84412 30.4753 3.70724C30.995 3.6396 32.4236 3.5875 34.0461 4.33406L34.6814 1.36587C33.81 1.04937 32.6887 0.744995 31.2941 0.744995C27.7153 0.744995 25.1959 2.64807 25.1747 5.37266C25.1523 7.38771 26.9729 8.51155 28.3453 9.18178C29.7555 9.86802 30.2297 10.3075 30.2235 10.921C30.2144 11.8607 29.098 12.2745 28.0572 12.2912C26.2361 12.3198 25.1797 11.7997 24.3374 11.4071L23.6813 14.474C24.5271 14.8629 26.0887 15.2004 27.7087 15.2178C31.5121 15.2178 34.0008 13.3383 34.0134 10.4286ZM43.4637 14.9989H46.813L43.8903 1.00116H40.7985C40.104 1.00116 39.5179 1.4054 39.2572 2.02811L33.8247 14.9989H37.6267L38.3819 12.9084H43.0274L43.4637 14.9989ZM39.4235 10.0394L41.33 4.78309L42.4271 10.0394H39.4235ZM24.1891 1.00116L21.1944 14.9989H17.5736L20.5685 1.00116H24.1891Z" fill="#000000"/>
</svg>
