<svg xmlns="http://www.w3.org/2000/svg" width="48" height="18" viewBox="0 0 48 18" fill="none"><rect width="48" height="18" fill="none"/>
<path d="M40.594 7.79429C37.524 7.79429 33.6384 5.37964 33.6384 2.40002H43.3702C45.9268 2.40002 48 4.41133 48 6.89389C48 7.19646 47.9682 7.49821 47.9052 7.79429H40.594Z" fill="url(#paint0_linear_238_368)"/>
<path d="M32.8806 2.40002L28.6847 2.40004C28.1167 2.39748 27.5981 2.719 27.3529 3.22575L24.0233 10.2103C23.8806 10.5105 23.4192 10.4113 23.4192 10.0813V2.5277C23.4192 2.45708 23.3588 2.40004 23.286 2.40004L19.222 2.40002V15.6032L23.5606 15.6032C24.1211 15.6054 24.634 15.292 24.8828 14.7952L28.3332 7.81468C28.4183 7.6422 28.6847 7.70196 28.6847 7.89209V15.6032L32.8806 15.6032V2.40002Z" fill="#4DB45E"/>
<path d="M17.0801 2.40004H12.2334C11.5977 2.40004 11.0375 2.81697 10.859 3.42539L8.83661 10.319C8.75149 10.6137 8.32998 10.6137 8.24348 10.319L6.22105 3.42539C6.04394 2.81697 5.48238 2.40004 4.84668 2.40004H0V15.6032H4.09977V7.98851C4.09977 7.78209 4.39085 7.73863 4.45126 7.93555L6.83204 15.6032H10.2481L12.6288 7.93555C12.6892 7.73863 12.9803 7.78209 12.9803 7.98851V15.6032H17.0801V2.40004Z" fill="#4DB45E"/>
<path d="M47.7254 8.56977H34.3249V15.6032H38.5222V11.3878H43.4334C45.3093 11.3959 47.0045 10.2828 47.7254 8.56977Z" fill="#4DB45E"/>
<defs>
<linearGradient id="paint0_linear_238_368" x1="33.6396" y1="5.09716" x2="48" y2="5.09716" gradientUnits="userSpaceOnUse">
<stop offset="0.3" stop-color="#00B4E6"/>
<stop offset="1" stop-color="#088CCB"/>
</linearGradient>
</defs>
</svg>
