<svg xmlns="http://www.w3.org/2000/svg" width="48" height="16" viewBox="0 0 48 16" fill="none"><rect width="48" height="16" fill="none"/>
<path d="M38.7933 1.71059H31.0926V14.2881H38.7933V1.71059Z" fill="#FF5F00"/>
<path d="M31.8858 8.00046C31.8848 6.78936 32.1594 5.5939 32.6886 4.50457C33.2179 3.41524 33.988 2.46057 34.9407 1.71281C33.7608 0.785486 32.3437 0.208838 30.8515 0.0487721C29.3593 -0.111294 27.8522 0.15168 26.5024 0.807638C25.1526 1.4636 24.0146 2.48607 23.2184 3.75821C22.4222 5.03035 22 6.50082 22 8.00157C22 9.50232 22.4222 10.9728 23.2184 12.2449C24.0146 13.5171 25.1526 14.5395 26.5024 15.1955C27.8522 15.8515 29.3593 16.1144 30.8515 15.9544C32.3437 15.7943 33.7608 15.2177 34.9407 14.2903C33.9877 13.5423 33.2174 12.5873 32.6881 11.4976C32.1589 10.4078 31.8845 9.21194 31.8858 8.00046V8.00046Z" fill="#EB001B"/>
<path d="M47.8826 8.00046C47.8826 9.50132 47.4603 10.9719 46.664 12.2441C45.8676 13.5163 44.7294 14.5387 43.3795 15.1946C42.0295 15.8504 40.5222 16.1132 39.03 15.9529C37.5377 15.7927 36.1206 15.2157 34.9407 14.2881C35.8931 13.5397 36.663 12.5848 37.1924 11.4954C37.7218 10.406 37.9969 9.21057 37.9969 7.99935C37.9969 6.78813 37.7218 5.59273 37.1924 4.50334C36.663 3.41395 35.8931 2.45901 34.9407 1.71059C36.1206 0.782978 37.5377 0.206049 39.03 0.0457536C40.5222 -0.114542 42.0295 0.148262 43.3795 0.804127C44.7294 1.45999 45.8676 2.48245 46.664 3.75463C47.4603 5.02681 47.8826 6.49738 47.8826 7.99824V8.00046Z" fill="#F79E1B"/>
</svg>
