<svg xmlns="http://www.w3.org/2000/svg" width="32" height="16" viewBox="0 0 32 16" fill="none"><rect width="32" height="16" fill="none"/>
<path d="M29.1343 0H2.86575C2.75634 0 2.64674 0 2.53754 0.000498277C2.44522 0.00101165 2.35312 0.00181192 2.26102 0.00377483C2.06015 0.00801773 1.85756 0.0172736 1.6592 0.0451167C1.45768 0.073443 1.27015 0.119647 1.0872 0.192395C0.907346 0.26383 0.742688 0.357265 0.599993 0.468758C0.457237 0.580251 0.337606 0.708641 0.246161 0.849261C0.152996 0.992145 0.0937985 1.13865 0.0577814 1.29617C0.0219401 1.45113 0.0100098 1.60933 0.00459659 1.76605C0.00212198 1.83798 0.0010606 1.90991 0.000459349 1.98183C-0.000178636 2.06731 3.40259e-05 2.15272 3.40259e-05 2.23835V13.7618C3.40259e-05 13.8474 -0.000178636 13.9327 0.000459349 14.0184C0.0010606 14.0903 0.00212198 14.1622 0.00459659 14.2341C0.0100098 14.3907 0.0219401 14.5489 0.0577814 14.7038C0.0937985 14.8614 0.152996 15.0079 0.246161 15.1508C0.337606 15.2914 0.457237 15.4199 0.599993 15.5313C0.742688 15.6429 0.907346 15.7364 1.0872 15.8076C1.27015 15.8805 1.45768 15.9268 1.6592 15.9551C1.85756 15.9827 2.06015 15.9922 2.26102 15.9964C2.35312 15.998 2.44522 15.999 2.53754 15.9993C2.64674 16 2.75634 16 2.86575 16H29.1343C29.2435 16 29.3531 16 29.4623 15.9993C29.5544 15.999 29.6465 15.998 29.739 15.9964C29.9395 15.9922 30.142 15.9827 30.3409 15.9551C30.5421 15.9268 30.7297 15.8805 30.9126 15.8076C31.0927 15.7364 31.2569 15.6429 31.3999 15.5313C31.5424 15.4199 31.662 15.2914 31.7537 15.1508C31.8471 15.0079 31.9062 14.8614 31.942 14.7038C31.9779 14.5489 31.9895 14.3907 31.995 14.2341C31.9975 14.1622 31.9987 14.0903 31.9992 14.0184C32 13.9327 32 13.8474 32 13.7618V2.23835C32 2.15272 32 2.06731 31.9992 1.98183C31.9987 1.90991 31.9975 1.83798 31.995 1.76605C31.9895 1.60933 31.9779 1.45113 31.942 1.29617C31.9062 1.13865 31.8471 0.992145 31.7537 0.849261C31.662 0.708641 31.5424 0.580251 31.3999 0.468758C31.2569 0.357265 31.0927 0.26383 30.9126 0.192395C30.7297 0.119647 30.5421 0.073443 30.3409 0.0451167C30.142 0.0172736 29.9395 0.00801773 29.739 0.00377483C29.6465 0.00181192 29.5544 0.00101165 29.4623 0.000498277C29.3531 0 29.2435 0 29.1343 0Z" fill="#000000"/>
<path d="M28.8623 1L29.1788 1.00045C29.2645 1.00091 29.3502 1.0016 29.4364 1.00335C29.5864 1.00638 29.7618 1.01246 29.9253 1.03437C30.0674 1.05351 30.1866 1.08261 30.301 1.12615C30.4139 1.16906 30.5174 1.22529 30.6078 1.29274C30.6984 1.36064 30.7737 1.43813 30.8319 1.5235C30.8898 1.60836 30.9285 1.69706 30.9539 1.80411C30.9831 1.92502 30.9912 2.05653 30.9953 2.16933C30.9977 2.23301 30.9988 2.29668 30.9992 2.36186C31 2.4407 31 2.51949 31 2.59847V13.4017C31 13.4807 31 13.5593 30.9992 13.6398C30.9988 13.7035 30.9977 13.7672 30.9953 13.8309C30.9912 13.9436 30.9831 14.075 30.9536 14.1974C30.9285 14.3029 30.8898 14.3917 30.8316 14.4769C30.7736 14.5621 30.6984 14.6395 30.6081 14.707C30.5173 14.7749 30.4141 14.831 30.2999 14.8743C30.1863 14.9176 30.0673 14.9467 29.9266 14.9656C29.7598 14.9879 29.577 14.994 29.4394 14.9968C29.3528 14.9982 29.2666 14.9991 29.1783 14.9994C29.0731 15 28.9675 15 28.8623 15H3.1377C3.1363 15 3.13493 15 3.13351 15C3.0295 15 2.92527 15 2.81936 14.9994C2.73301 14.9991 2.64685 14.9982 2.56355 14.9968C2.42276 14.994 2.23989 14.9879 2.07444 14.9658C1.93251 14.9467 1.81351 14.9176 1.69848 14.8737C1.58528 14.8308 1.48223 14.7748 1.39134 14.7067C1.30114 14.6394 1.22619 14.5622 1.16823 14.477C1.11023 14.3917 1.07141 14.3028 1.04589 14.1959C1.0164 14.0738 1.00829 13.9429 1.00424 13.831C1.00193 13.767 1.00097 13.703 1.00042 13.6393L1 13.4513L1.00002 13.4017V2.59847L1 2.54884L1.0004 2.36127C1.00097 2.29722 1.00193 2.23318 1.00424 2.16918C1.00829 2.05719 1.0164 1.92623 1.04614 1.8031C1.07143 1.69723 1.11023 1.60825 1.16854 1.52262C1.22604 1.43799 1.30112 1.36073 1.39179 1.29295C1.4821 1.2254 1.58549 1.16924 1.69941 1.12593C1.81321 1.0826 1.93243 1.05351 2.07437 1.03441C2.23791 1.01244 2.41343 1.00638 2.56376 1.00334C2.64944 1.0016 2.73513 1.00091 2.82018 1.00047L3.1377 1H28.8623" fill="#000000"/>
<path d="M8.73577 4.72684C9.00976 4.39226 9.19569 3.94303 9.14666 3.48396C8.74557 3.50343 8.25612 3.7423 7.97275 4.07713C7.71831 4.36387 7.49312 4.83191 7.55183 5.27173C8.00207 5.30986 8.4519 5.05202 8.73577 4.72684Z" fill="#000000"/>
<path d="M9.14155 5.35762C8.48769 5.3196 7.93175 5.71991 7.6195 5.71991C7.30708 5.71991 6.82892 5.37678 6.31175 5.38603C5.63863 5.39568 5.01404 5.76724 4.67246 6.3582C3.96988 7.5404 4.48705 9.29402 5.17027 10.2569C5.50206 10.7332 5.90192 11.2577 6.42879 11.2388C6.9266 11.2198 7.12173 10.9242 7.72684 10.9242C8.3315 10.9242 8.50726 11.2388 9.03423 11.2293C9.5807 11.2198 9.92234 10.7527 10.2541 10.2759C10.6347 9.73291 10.7906 9.20859 10.8004 9.17981C10.7906 9.17028 9.74661 8.77929 9.73693 7.60692C9.72707 6.62527 10.5565 6.15834 10.5956 6.12939C10.1272 5.45304 9.39529 5.37678 9.14155 5.35762Z" fill="#000000"/>
<path d="M14.8349 4.02912C16.256 4.02912 17.2456 4.98548 17.2456 6.37788C17.2456 7.77525 16.2357 8.73659 14.7993 8.73659H13.2258V11.1795H12.0889V4.02911H14.8349V4.02912ZM13.2258 7.80498H14.5302C15.52 7.80498 16.0833 7.28474 16.0833 6.38285C16.0833 5.48106 15.52 4.9657 14.5353 4.9657H13.2258V7.80498V7.80498Z" fill="#000000"/>
<path d="M17.5427 9.69794C17.5427 8.78611 18.2583 8.22621 19.5273 8.15682L20.989 8.07261V7.67127C20.989 7.09149 20.588 6.74463 19.9182 6.74463C19.2836 6.74463 18.8877 7.04188 18.7913 7.50774H17.7559C17.8168 6.56618 18.639 5.87247 19.9587 5.87247C21.253 5.87247 22.0803 6.54143 22.0803 7.58697V11.1795H21.0296V10.3223H21.0043C20.6947 10.902 20.0196 11.2687 19.3192 11.2687C18.2736 11.2687 17.5427 10.6344 17.5427 9.69794ZM20.989 9.22721V8.81593L19.6744 8.89517C19.0196 8.9398 18.6492 9.22224 18.6492 9.66821C18.6492 10.124 19.0349 10.4214 19.6237 10.4214C20.3901 10.4214 20.989 9.90601 20.989 9.22721Z" fill="#000000"/>
<path d="M23.0722 13.0972V12.23C23.1533 12.2498 23.336 12.2498 23.4274 12.2498C23.9349 12.2498 24.209 12.0417 24.3765 11.5066C24.3765 11.4966 24.473 11.1895 24.473 11.1845L22.5443 5.96661H23.7319L25.0821 10.2083H25.1023L26.4526 5.96661H27.6098L25.6098 11.452C25.1532 12.7157 24.6253 13.122 23.5188 13.122C23.4274 13.122 23.1533 13.112 23.0722 13.0972Z" fill="#000000"/>
</svg>
