<svg xmlns="http://www.w3.org/2000/svg" width="24" height="24" viewBox="0 0 24 24" fill="none"><rect width="24" height="24" fill="none"/>
<path d="M11.6284 9.16797C11.6284 7.98926 10.8066 7.3418 9.3623 7.3418H6.65625V11.1851H8.89746C10.6655 11.1851 11.6284 10.4795 11.6284 9.18457V9.16797Z" fill="#000000"/>
<path d="M12.2095 14.5635C12.2095 13.1772 11.23 12.4717 9.3208 12.4717H6.65625V16.6802H9.46191C11.2549 16.6802 12.2095 15.958 12.2095 14.5801V14.5635Z" fill="#000000"/>
<path fill-rule="evenodd" clip-rule="evenodd" d="M5 1C2.79086 1 1 2.79086 1 5V19C1 21.2091 2.79086 23 5 23H19C21.2091 23 23 21.2091 23 19V5C23 2.79086 21.2091 1 19 1H5ZM9.68604 18H5.16211V6.02197H9.70264C11.7529 6.02197 13.1392 7.21729 13.1392 9.01025V9.02686C13.1392 10.2637 12.2095 11.4673 10.9727 11.6416V11.6748C12.6992 11.874 13.7451 13.0361 13.7451 14.6216V14.6382C13.7451 16.7466 12.2344 18 9.68604 18ZM17.0107 18H15.5664V9.36719H17.0107V10.8281H17.0439C17.3344 9.83203 18.0815 9.20117 19.0527 9.20117C19.2602 9.20117 19.4447 9.22999 19.5676 9.24921C19.5922 9.25305 19.6144 9.25651 19.6337 9.25928V10.6621C19.5175 10.6206 19.2104 10.5791 18.8618 10.5791C17.7412 10.5791 17.0107 11.3594 17.0107 12.6709V18Z" fill="#000000"/>
</svg>
