<svg xmlns="http://www.w3.org/2000/svg" width="24" height="24" viewBox="0 0 24 24" fill="none"><rect width="24" height="24" fill="none"/>
<path d="M3 14.0894H5.20166C6.07178 18.4399 9.20947 21.0503 13.5601 21.0503C17.6602 21.0503 20.4155 18.9277 21.2065 15.6055H18.3193C17.6997 17.3193 16.0518 18.4795 13.5732 18.4795C10.9365 18.4795 8.9458 16.8579 8.20752 14.0894H15.4717V12.6128H7.94385C7.9043 12.2568 7.89111 11.9009 7.89111 11.5186C7.89111 11.1362 7.9043 10.7803 7.94385 10.4243H15.4717V8.94775H8.2207C8.97217 6.20557 10.9497 4.5708 13.5601 4.5708C15.9858 4.5708 17.7788 5.98145 18.3325 7.85352H21.2065C20.666 4.50488 17.6733 2 13.5601 2C9.23584 2 6.08496 4.62354 5.20166 8.94775H3V10.4243H4.99072C4.96436 10.7803 4.95117 11.1494 4.95117 11.5186C4.95117 11.8877 4.96436 12.2568 4.99072 12.6128H3V14.0894Z" fill="#000000"/>
</svg>
