<svg xmlns="http://www.w3.org/2000/svg" width="48" height="48" viewBox="0 0 48 48" fill="none"><rect width="48" height="48" fill="none"/>
<path fill-rule="evenodd" clip-rule="evenodd" d="M13.8345 6.08998C12.9515 5.20649 11.4822 5.33214 10.7504 6.3537L8.31215 9.75767C7.12293 11.4179 6.49391 13.4027 6.50004 15.4023C6.50502 17.0187 6.92505 18.6448 7.79973 20.1171C13.3414 29.4452 18.623 34.622 27.8587 40.1732C31.1552 42.1544 35.2441 41.8552 38.2692 39.6865L41.6467 37.2649C42.6678 36.5329 42.7933 35.0627 41.9103 34.1793L36.1636 28.4297C35.5071 27.773 34.4854 27.6506 33.6857 28.133L28.9174 31.983L16.0246 19.0901L19.878 14.3186C20.3602 13.5187 20.2379 12.4964 19.5814 11.8396L13.8345 6.08998Z" fill="#000000"/>
</svg>
