<svg xmlns="http://www.w3.org/2000/svg" width="24" height="24" viewBox="0 0 24 24" fill="none"><rect width="24" height="24" fill="none"/>
<path d="M2.90853 17.4141H9.08684V18.8313C9.08684 20.7394 10.0594 21.7028 11.9954 21.7028H21.1007C23.0274 21.7028 24 20.7394 24 18.8313V12.829C24 10.9208 23.0274 9.95748 21.1007 9.95748H19.3223V5.1686C19.3223 3.26045 18.3497 2.29712 16.423 2.29712H2.90853C0.963335 2.29712 0 3.26045 0 5.1686V14.5426C0 16.4507 0.963335 17.4141 2.90853 17.4141ZM2.92706 15.9227C2.00077 15.9227 1.49132 15.4226 1.49132 14.4592V5.25196C1.49132 4.28863 2.00077 3.78844 2.92706 3.78844H16.3952C17.3122 3.78844 17.831 4.28863 17.831 5.25196V9.95748H11.9954C10.0594 9.95748 9.08684 10.9116 9.08684 12.829V15.9227H2.92706ZM3.49209 5.00187C3.13084 5.00187 2.86222 5.26123 2.86222 5.59469C2.86222 5.77994 2.91779 5.92815 3.066 6.07636L4.9834 7.9845L4.10343 8.85521C3.65882 9.30908 3.9367 9.89264 4.56658 9.99453L7.6511 10.4669C8.07719 10.5318 8.40139 10.2076 8.34581 9.78149L7.87341 6.6877C7.77152 6.0393 7.1787 5.76142 6.72482 6.23382L5.85411 7.10453L3.94597 5.19639C3.80702 5.05744 3.66808 5.00187 3.49209 5.00187Z" fill="#000000"/>
</svg>
