<svg xmlns="http://www.w3.org/2000/svg" width="24" height="24" viewBox="0 0 24 24" fill="none"><rect width="24" height="24" fill="none"/>
<path d="M11.3232 14.6262C11.3232 14.0198 11.2573 13.4792 11.165 12.9783H16.9526V11.0798H10.7036C10.5059 10.3416 10.3608 9.56372 10.3608 8.60132C10.3608 6.45239 11.9297 5.01538 14.54 5.01538C16.0693 5.01538 17.3745 5.27905 18.1919 5.63501V3.20923C17.4932 2.87964 15.9375 2.55005 14.1841 2.55005C10.0312 2.55005 7.40771 4.89673 7.40771 8.57495C7.40771 9.40552 7.56592 10.2625 7.75049 11.0798H4.88965V12.9783H8.2251C8.37012 13.6111 8.4624 14.2043 8.4624 14.7449C8.4624 16.8674 7.30225 18.7395 4.9292 19.0955V21.4421H19.1147V19.0032H9.09521V18.9373C10.4795 18.3176 11.3232 16.696 11.3232 14.6262Z" fill="#000000"/>
</svg>
