<svg xmlns="http://www.w3.org/2000/svg" width="24" height="24" viewBox="0 0 24 24" fill="none"><rect width="24" height="24" fill="none"/>
<path fill-rule="evenodd" clip-rule="evenodd" d="M5 1C2.79086 1 1 2.79086 1 5V19C1 21.2091 2.79086 23 5 23H19C21.2091 23 23 21.2091 23 19V5C23 2.79086 21.2091 1 19 1H5ZM16.7617 18.0222H6.90918V16.6121C8.65332 16.3523 9.48828 15.239 9.48828 13.7546C9.48828 13.3093 9.37695 12.7712 9.24707 12.2053H6.90918V10.9436H8.94092C8.81104 10.3591 8.70898 9.7561 8.70898 9.19019C8.70898 6.53687 10.5366 5.10815 13.3291 5.10815C14.5537 5.10815 15.5928 5.34009 16.0938 5.56274V7.02856C15.5186 6.78735 14.5723 6.58325 13.4775 6.58325C11.6035 6.58325 10.416 7.44604 10.416 9.0603C10.416 9.78394 10.5273 10.3777 10.6572 10.9436H15.1475V12.2053H10.9634C11.0654 12.6599 11.1304 13.1331 11.1304 13.6804C11.1304 15.2576 10.4717 16.1482 9.46973 16.5564V16.5935H16.7617V18.0222Z" fill="#000000"/>
</svg>
