<svg xmlns="http://www.w3.org/2000/svg" width="24" height="24" viewBox="0 0 24 24" fill="none"><rect width="24" height="24" fill="none"/>
<path fill-rule="evenodd" clip-rule="evenodd" d="M5 1C2.79086 1 1 2.79086 1 5V19C1 21.2091 2.79086 23 5 23H19C21.2091 23 23 21.2091 23 19V5C23 2.79086 21.2091 1 19 1H5ZM11.019 16.4072H7.87402V15.2939H11.019V13.7168H7.87402V12.6035H10.7129L6.44531 5.69189H8.33789L11.8262 11.481H11.8818L15.3701 5.69189H17.2627L12.9951 12.6035H15.834V13.7168H12.689V15.2939H15.834V16.4072H12.689V18.5225H11.019V16.4072Z" fill="#000000"/>
</svg>
