<svg xmlns="http://www.w3.org/2000/svg" width="48" height="48" viewBox="0 0 48 48" fill="none"><rect width="48" height="48" fill="none"/>
<path d="M23.738 6.2373C20.4841 6.2373 18.2761 8.61133 18.1931 12.0645V12.7285L29.2332 23.752C29.2664 23.6357 29.283 23.4863 29.283 23.3535V12.2471C29.283 8.69434 27.0583 6.2373 23.738 6.2373ZM35.9402 36.8672C36.4382 37.3652 37.2517 37.3652 37.7498 36.8672C38.2312 36.3525 38.2478 35.5557 37.7498 35.0576L12.0671 9.3916C11.5691 8.91016 10.739 8.89355 10.241 9.3916C9.75952 9.88965 9.75952 10.7197 10.241 11.2012L35.9402 36.8672ZM11.8679 23.6191C11.8679 30.127 16.1511 34.6924 22.4929 35.2236V39.0918H16.3171C15.6199 39.0918 15.072 39.6562 15.072 40.3535C15.072 41.0508 15.6199 41.5986 16.3171 41.5986H31.1589C31.8562 41.5986 32.4041 41.0508 32.4041 40.3535C32.4041 39.6562 31.8562 39.0918 31.1589 39.0918H24.9998V35.2236C26.8591 35.0742 28.5525 34.5762 29.9802 33.7627L28.2039 31.9697C26.9421 32.584 25.4314 32.9326 23.738 32.9326C18.0603 32.9326 14.3748 29.1807 14.3748 23.5195V20.249C14.3748 19.5518 13.8103 19.0039 13.113 19.0039C12.4158 19.0039 11.8679 19.5518 11.8679 20.249V23.6191ZM32.5369 27.0391L34.4792 28.9814C35.2097 27.4209 35.6248 25.6113 35.6248 23.6191V20.249C35.6248 19.5518 35.0603 19.0039 34.363 19.0039C33.6658 19.0039 33.1179 19.5518 33.1179 20.249V23.5195C33.1179 24.7979 32.9187 25.9766 32.5369 27.0391ZM23.738 29.3633C24.3191 29.3633 24.8669 29.2803 25.3484 29.0977L18.1931 21.959V23.3535C18.1931 26.8896 20.4343 29.3633 23.738 29.3633Z" fill="#000000"/>
</svg>
