<svg xmlns="http://www.w3.org/2000/svg" width="24" height="24" viewBox="0 0 24 24" fill="none"><rect width="24" height="24" fill="none"/>
<path fill-rule="evenodd" clip-rule="evenodd" d="M5 1C2.79086 1 1 2.79086 1 5V19C1 21.2091 2.79086 23 5 23H19C21.2091 23 23 21.2091 23 19V5C23 2.79086 21.2091 1 19 1H5ZM16.3745 18.7217H5.33447V17.3394H8.48877V17.3022C6.4292 16.291 5.2417 14.1572 5.2417 11.6616V11.6431C5.2417 8.8877 6.89307 6.77246 9.43506 6.05811V4.26758H10.5483V5.854C10.8174 5.82617 11.0864 5.80762 11.3647 5.80762C11.7173 5.80762 12.0698 5.83545 12.4038 5.88184V4.26758H13.5171V6.13232C15.9106 6.90234 17.562 8.97119 17.562 11.6895V11.708H15.9941V11.6895C15.9941 9.80615 15.085 8.37744 13.5171 7.71875V11.708H12.4038V7.40332C12.0791 7.34766 11.7266 7.31982 11.3647 7.31982C11.0771 7.31982 10.8081 7.33838 10.5483 7.37549V11.708H9.43506V7.65381C7.84863 8.28467 6.91162 9.73193 6.91162 11.8193V11.8379C6.91162 14.9087 9.32373 17.3394 12.645 17.3394H16.3745V18.7217Z" fill="#000000"/>
</svg>
