<svg xmlns="http://www.w3.org/2000/svg" width="24" height="24" viewBox="0 0 24 24" fill="none"><rect width="24" height="24" fill="none"/>
<path fill-rule="evenodd" clip-rule="evenodd" d="M5 1C2.79086 1 1 2.79086 1 5V19C1 21.2091 2.79086 23 5 23H19C21.2091 23 23 21.2091 23 19V5C23 2.79086 21.2091 1 19 1H5ZM8.49561 13.7773H6.50098V12.6641H8.32861C8.31006 12.4229 8.30078 12.1724 8.30078 11.9126V11.894C8.30078 11.6157 8.31006 11.3467 8.33789 11.0869H6.50098V9.97363H8.51416C9.25635 6.84717 11.8447 5.40918 14.8042 5.40918C15.4351 5.40918 16.2607 5.49268 16.6133 5.61328V7.11621C16.2422 7.02344 15.4351 6.94922 14.8042 6.94922C12.6519 6.94922 10.9263 7.91406 10.2861 9.97363H15.2773V11.0869H10.0635C10.0356 11.356 10.0171 11.6343 10.0171 11.9219V11.9404C10.0171 12.1909 10.0264 12.4321 10.0542 12.6641H15.2773V13.7773H10.2583C10.8799 15.8926 12.624 16.8667 14.8042 16.8667C15.4351 16.8667 16.2422 16.811 16.6133 16.6997V18.2026C16.2607 18.3325 15.4351 18.4067 14.8042 18.4067C11.8169 18.4067 9.21924 16.9409 8.49561 13.7773Z" fill="#000000"/>
</svg>
