<svg xmlns="http://www.w3.org/2000/svg" width="24" height="24" viewBox="0 0 24 24" fill="none"><rect width="24" height="24" fill="none"/>
<path d="M11.3008 23.4139H12.7905V21.1991C16.1523 20.9618 18.7891 19.1425 18.7891 15.8993C18.7891 13.0912 16.8906 11.6674 13.4233 10.8632L12.7905 10.705V5.2074C14.478 5.41833 15.6646 6.38074 15.8359 8.04187H18.5781C18.4727 5.04919 16.0864 3.07166 12.7905 2.80798V0.579956H11.3008V2.80798C7.97852 3.05847 5.60547 4.99646 5.60547 7.96277C5.60547 10.639 7.41162 12.142 10.7603 12.9198L11.3008 13.0516V18.7997C9.17822 18.5887 8.17627 17.4418 7.93896 15.8993H5.20996C5.30225 19.0634 7.95215 20.9486 11.3008 21.1991V23.4139ZM8.40039 7.73865C8.40039 6.52576 9.40234 5.43152 11.3008 5.2074V10.3622C9.19141 9.82166 8.40039 8.93835 8.40039 7.73865ZM15.9941 16.163C15.9941 17.5736 15.0449 18.6415 12.7905 18.8129V13.4076C15.2427 13.9877 15.9941 14.7919 15.9941 16.163Z" fill="#000000"/>
</svg>
