<svg xmlns="http://www.w3.org/2000/svg" width="48" height="48" viewBox="0 0 48 48" fill="none"><rect width="48" height="48" fill="none"/>
<path fill-rule="evenodd" clip-rule="evenodd" d="M42.1515 30.277C43.2933 30.2772 44.1618 29.2463 43.9745 28.1131L43.3503 24.337C43.0459 22.4952 42.1696 20.8058 40.8732 19.5173C39.8252 18.4758 38.5027 17.6962 36.9857 17.31C27.3747 14.8626 20.615 14.9303 11.0575 17.3119C7.64618 18.162 5.19671 20.9982 4.64323 24.3552L4.02537 28.1035C3.83852 29.2366 4.70761 30.268 5.84938 30.2682L13.2799 30.2701C14.1287 30.2702 14.8683 29.689 15.0733 28.8603L15.6669 23.2899L32.3334 23.2899L32.9268 28.8646C33.1321 29.6933 33.872 30.275 34.7208 30.2752L42.1515 30.277Z" fill="#000000"/>
</svg>
