<svg xmlns="http://www.w3.org/2000/svg" width="24" height="24" viewBox="0 0 24 24" fill="none"><rect width="24" height="24" fill="none"/>
<path d="M2.90853 17.4142H9.08684V18.8314C9.08684 20.7395 10.0594 21.7029 11.9954 21.7029H21.1007C23.0274 21.7029 24 20.7395 24 18.8314V12.8291C24 10.9209 23.0274 9.9576 21.1007 9.9576H19.3223V5.16872C19.3223 3.26058 18.3497 2.29724 16.423 2.29724H2.90853C0.963335 2.29724 0 3.26058 0 5.16872V14.5427C0 16.4509 0.963335 17.4142 2.90853 17.4142ZM2.92705 15.9229C2.00077 15.9229 1.49132 15.4227 1.49132 14.4593V5.25208C1.49132 4.28875 2.00077 3.78856 2.92705 3.78856H16.3952C17.3122 3.78856 17.831 4.28875 17.831 5.25208V9.9576H11.9954C10.0594 9.9576 9.08684 10.9117 9.08684 12.8291V15.9229H2.92705Z" fill="#000000"/>
<path d="M8.35233 9.88253C8.35233 10.216 8.08371 10.4754 7.72246 10.4754C7.54647 10.4754 7.40752 10.4198 7.26858 10.2808L5.36044 8.37269L4.48973 9.24339C4.03585 9.7158 3.44303 9.43791 3.34114 8.78951L2.86874 5.69573C2.81316 5.26964 3.13736 4.94544 3.56345 5.01028L6.64797 5.48268C7.27784 5.58457 7.55573 6.16813 7.11111 6.62201L6.23114 7.49272L8.14855 9.40086C8.29676 9.54907 8.35233 9.69727 8.35233 9.88253Z" fill="#000000"/>
</svg>
