<svg xmlns="http://www.w3.org/2000/svg" width="24" height="24" viewBox="0 0 24 24" fill="none"><rect width="24" height="24" fill="none"/>
<path fill-rule="evenodd" clip-rule="evenodd" d="M1 5C1 2.79086 2.79086 1 5 1H19C21.2091 1 23 2.79086 23 5V19C23 21.2091 21.2091 23 19 23H5C2.79086 23 1 21.2091 1 19V5ZM12 4C14.1393 4 16.1483 4.83146 17.6584 6.34157C19.1685 7.85169 20 9.86067 20 12C20 14.1393 19.1685 16.1483 17.6584 17.6584C16.1438 19.1685 14.1393 20 12 20C9.86067 20 7.85169 19.1685 6.34157 17.6584C4.83146 16.1438 4 14.1348 4 12C4 9.86067 4.83146 7.85169 6.34157 6.34157C7.85618 4.83146 9.86067 4 12 4ZM7.95955 6.1618V11.2719H4.93933C5.15506 9.15506 6.30112 7.31236 7.95955 6.1618ZM7.95955 14.1843H5.24494C5.09213 13.7169 4.98876 13.2315 4.93933 12.7281H7.95955V14.1843ZM5.90562 15.6449H7.95955V17.8382C7.12809 17.2629 6.42697 16.5124 5.90562 15.6449ZM12 19.0966C11.0876 19.0966 10.2157 18.9258 9.41573 18.6112V15.6404H12.7326V14.1843H9.41573V12.7281L11.3798 12.7326C14.6202 12.7326 16.0045 11.0742 16.0045 9.06067C16.0045 7.11461 14.8719 5.42022 11.3798 5.42022L9.28539 5.4382C10.1213 5.09213 11.0382 4.90337 11.9955 4.90337C15.9146 4.90337 19.0966 8.0809 19.0966 12.0045C19.0966 15.9281 15.9236 19.0966 12 19.0966ZM9.42022 11.2719V6.89888L11.4742 6.88539C13.4742 6.88539 14.3551 7.70787 14.3551 9.11461C14.3551 10.5348 13.3483 11.2764 11.3483 11.2764L9.42022 11.2719Z" fill="#000000"/>
</svg>
