<svg xmlns="http://www.w3.org/2000/svg" width="24" height="24" viewBox="0 0 24 24" fill="none"><rect width="24" height="24" fill="none"/>
<path d="M10.897 7.4751V12.5312H12.8823C14.8862 12.5312 15.8789 11.585 15.8789 10.0171V9.99854C15.8789 8.42139 14.9048 7.4751 12.8823 7.4751H10.897Z" fill="#000000"/>
<path fill-rule="evenodd" clip-rule="evenodd" d="M5 1C2.79086 1 1 2.79086 1 5V19C1 21.2091 2.79086 23 5 23H19C21.2091 23 23 21.2091 23 19V5C23 2.79086 21.2091 1 19 1H5ZM9.22705 16.7061H7.37158V15.5928H9.22705V14.0156H7.37158V12.9023H9.22705V5.99072H13.3184C15.9253 5.99072 17.5952 7.6792 17.5952 9.99854V10.0171C17.5952 12.3457 15.8975 14.0156 13.2998 14.0156H10.897V15.5928H14.7471V16.7061H10.897V18.8213H9.22705V16.7061Z" fill="#000000"/>
</svg>
