<svg xmlns="http://www.w3.org/2000/svg" width="24" height="24" viewBox="0 0 24 24" fill="none"><rect width="24" height="24" fill="none"/>
<path fill-rule="evenodd" clip-rule="evenodd" d="M5 1C2.79086 1 1 2.79086 1 5V19C1 21.2091 2.79086 23 5 23H19C21.2091 23 23 21.2091 23 19V5C23 2.79086 21.2091 1 19 1H5ZM10.7271 18.4225H9.65088V12.8839L7.53564 13.7467V12.5406L9.65088 11.6779V9.97083L7.53564 10.8336V9.62756L9.65088 8.76477V5.59192H11.3208V8.07825L14.5493 6.75159V7.95764L11.3208 9.2843V10.9913L14.5493 9.66467V10.8707L11.3208 12.1974V16.7711H11.3394C13.5566 16.7711 15.4956 15.4259 15.7925 12.4664L15.8018 12.3737H17.4067L17.3975 12.485C17.0913 16.1588 14.4937 18.4225 10.7271 18.4225Z" fill="#000000"/>
</svg>
