<svg xmlns="http://www.w3.org/2000/svg" width="24" height="24" viewBox="0 0 24 24" fill="none"><rect width="24" height="24" fill="none"/>
<path d="M9.02539 9.0874V9.09668C9.02539 10.0059 9.59131 10.6924 11.1777 11.082V7.09277C9.76758 7.2876 9.02539 8.1875 9.02539 9.0874Z" fill="#000000"/>
<path d="M14.6846 15.0342C14.6846 14.0229 14.1743 13.3828 12.3467 12.9375L12.291 12.9282V17.1401C14.0166 17.001 14.6846 16.1196 14.6846 15.0435V15.0342Z" fill="#000000"/>
<path fill-rule="evenodd" clip-rule="evenodd" d="M5 1C2.79086 1 1 2.79086 1 5V19C1 21.2091 2.79086 23 5 23H19C21.2091 23 23 21.2091 23 19V5C23 2.79086 21.2091 1 19 1H5ZM12.291 20.146H11.1777V18.5781C8.979 18.3833 7.23486 17.0659 7.08643 14.9971L7.07715 14.8672H8.69141L8.70996 14.9785C8.89551 16.0454 9.58203 16.9453 11.1777 17.1216V12.6592L10.9644 12.6035C8.6543 12.0469 7.41113 11.0171 7.41113 9.18018V9.1709C7.41113 7.18555 8.98828 5.84033 11.1777 5.63623V4.06836H12.291V5.62695C14.4248 5.82178 16.0298 7.18555 16.1597 9.13379L16.1689 9.27295H14.5547L14.5454 9.18945C14.4155 8.02051 13.5435 7.25049 12.291 7.09277V11.3511L12.5786 11.416C14.9629 11.9912 16.2988 12.9746 16.2988 14.9321V14.9414C16.2988 17.168 14.4712 18.4204 12.291 18.5874V20.146Z" fill="#000000"/>
</svg>
