<svg xmlns="http://www.w3.org/2000/svg" width="89" height="24" viewBox="0 0 89 24" fill="none"><rect width="89" height="24" fill="none"/>
<path d="M39.5229 15.0699C39.537 15.5463 39.4664 16.0158 39.304 16.4646C39.1699 16.872 38.9652 17.2517 38.697 17.5969C37.3488 19.3231 34.8994 19.4888 32.8594 19.4957C32.6265 19.4957 32.3865 19.4957 32.1465 19.4957L29.8524 19.4749C29.683 19.5233 29.5136 19.5233 29.3442 19.4819C29.1748 19.4405 29.0265 19.3576 28.8995 19.2402C28.7795 19.1229 28.6877 18.9779 28.6383 18.8121C28.5889 18.6464 28.5889 18.4807 28.6313 18.315V5.84558C28.6242 5.68677 28.6454 5.52107 28.6948 5.36917C28.9277 4.80301 29.7183 4.85134 30.2265 4.83753C30.9818 4.83063 31.7441 4.83062 32.4994 4.83062C33.5441 4.78919 34.5888 4.85824 35.6194 5.04466C36.5229 5.22418 37.3347 5.70059 37.9135 6.39793C38.2876 6.90887 38.5134 7.51645 38.5629 8.14476C38.6405 8.87661 38.4994 9.61541 38.1464 10.2713C37.7935 10.9273 37.2006 11.4244 36.4876 11.6729C36.7417 11.7005 36.9888 11.7627 37.2217 11.8593C37.4547 11.9422 37.6735 12.0527 37.8852 12.1769C38.2382 12.391 38.5558 12.6672 38.8029 12.9917C39.2758 13.5924 39.5229 14.3243 39.5229 15.0699ZM35.5559 8.93874C35.563 8.49689 35.4147 8.06881 35.1394 7.72359C34.8429 7.39908 34.4336 7.18504 33.9959 7.1229C33.7136 7.07457 33.4312 7.05386 33.1418 7.06076H31.5959V10.8789H33.3536C33.8406 10.8996 34.3276 10.7823 34.7441 10.5406C35.0053 10.368 35.217 10.1263 35.3582 9.84327C35.5135 9.56021 35.577 9.24947 35.5559 8.93874ZM36.3817 15.1735C36.4029 14.9042 36.3676 14.6419 36.2688 14.3864C36.177 14.1309 36.0288 13.9031 35.8382 13.7097C35.1676 13.1919 34.3206 12.9503 33.4665 13.0193H31.6524V17.162H33.8547C34.2147 17.1896 34.5747 17.1481 34.9135 17.0377C35.2523 16.9272 35.57 16.7477 35.8311 16.5129C36.177 16.1539 36.3747 15.6706 36.3817 15.1735Z" fill="white"/>
<path d="M50.9333 18.9431C50.9404 19.0191 50.9192 19.0951 50.8768 19.1572C50.7851 19.2539 50.6651 19.3229 50.545 19.3712C50.4251 19.4195 50.2839 19.4472 50.1498 19.4403C49.7898 19.4817 49.4227 19.4886 49.0628 19.461C48.8792 19.4472 48.7027 19.4127 48.5263 19.3712C48.371 19.3367 48.2369 19.2607 48.1239 19.1503C48.0675 19.0951 48.0675 19.0398 48.0675 18.9363V13.1779C48.0745 12.3701 47.9757 11.4311 47.2134 10.9547C46.8816 10.7476 46.4863 10.6647 46.0981 10.7199C45.8016 10.7683 45.5122 10.8857 45.2651 11.0513C44.9899 11.2378 44.7357 11.4518 44.5099 11.6935C44.3405 11.8523 44.1922 12.0249 44.0581 12.2182V18.9431C44.0651 19.0191 44.044 19.0951 44.0017 19.1572C43.9028 19.2607 43.7757 19.3367 43.6346 19.3643C43.4864 19.4057 43.3381 19.4265 43.1828 19.4403C42.9146 19.4679 42.6393 19.4817 42.3711 19.4748C42.1099 19.4748 41.8487 19.4403 41.6017 19.3643C41.4675 19.3229 41.3475 19.2539 41.2558 19.1572C41.1993 19.1019 41.1993 19.0467 41.1993 18.9431V8.83507C41.1923 8.75907 41.2134 8.68314 41.2558 8.621C41.3334 8.53815 41.4323 8.46911 41.5382 8.42077C41.644 8.37244 41.764 8.34483 41.884 8.34483C42.1523 8.3103 42.4275 8.29649 42.7029 8.3103C42.957 8.3103 43.2181 8.35863 43.4511 8.45529C43.5146 8.48291 43.5711 8.52434 43.6134 8.58648C43.6558 8.66243 43.6769 8.75221 43.6699 8.84194V10.0226C44.164 9.46334 44.7569 9.00767 45.4346 8.68314C45.9922 8.38625 46.6133 8.24126 47.2487 8.25507C47.8487 8.23435 48.4486 8.34483 49.0063 8.57957C49.4298 8.78674 49.811 9.08361 50.1145 9.44261C50.418 9.80167 50.6368 10.2228 50.7568 10.6785C50.9968 11.5416 51.0886 12.4391 51.0321 13.3367L50.9968 15.3735L50.9545 17.6589L50.9333 18.9363C50.9404 18.9293 50.9404 18.9363 50.9333 18.9431Z" fill="white"/>
<path d="M62.1863 9.62914C61.0216 8.69707 59.5604 8.19304 58.0569 8.19304C56.5534 8.19304 55.0993 8.70394 53.9347 9.62914C52.8406 10.7615 52.6147 12.3357 52.6147 13.8409C52.6076 15.3461 52.8406 16.9203 53.9347 18.0526C55.0993 18.9847 56.5605 19.4887 58.0569 19.4887C59.5604 19.4887 61.0216 18.9778 62.1863 18.0526C63.2804 16.9203 63.5063 15.3461 63.5063 13.8409C63.5134 12.3357 63.2804 10.7615 62.1863 9.62914ZM60.3722 15.3944C60.2804 15.8155 60.0828 16.2091 59.7934 16.5405C59.5817 16.7683 59.3204 16.941 59.0311 17.0515C58.4028 17.2655 57.7252 17.2655 57.0969 17.0515C56.8075 16.941 56.5393 16.7683 56.3346 16.5405C56.0523 16.2091 55.8475 15.8225 55.7558 15.3944C55.537 14.3656 55.537 13.3093 55.7558 12.2805C55.8475 11.8593 56.0452 11.4657 56.3346 11.1343C56.5464 10.9065 56.8075 10.7339 57.0969 10.6234C57.7252 10.4163 58.4028 10.4163 59.0311 10.6234C59.3204 10.7339 59.5887 10.9065 59.7934 11.1343C60.0758 11.4657 60.2804 11.8524 60.3722 12.2805C60.5911 13.3093 60.5911 14.3656 60.3722 15.3944Z" fill="white"/>
<path d="M85.7899 9.62914C84.6255 8.69707 83.1642 8.19304 81.6674 8.19304C80.1644 8.19304 78.7031 8.70394 77.538 9.62914C76.4439 10.7615 76.2186 12.3357 76.2186 13.8409C76.2111 15.3461 76.4439 16.9203 77.538 18.0526C78.7031 18.9847 80.1644 19.4887 81.6674 19.4887C83.171 19.4887 84.6255 18.9778 85.7899 18.0526C86.884 16.9203 87.1099 15.3461 87.1099 13.8409C87.1168 12.3357 86.884 10.7615 85.7899 9.62914ZM83.9757 15.3944C83.8842 15.8155 83.6863 16.2091 83.3969 16.5405C83.1853 16.7683 82.9239 16.941 82.6277 17.0515C81.9991 17.2655 81.322 17.2655 80.6934 17.0515C80.3971 16.941 80.1357 16.7683 79.9241 16.5405C79.6416 16.2091 79.4368 15.8225 79.3454 15.3944C79.1263 14.3656 79.1263 13.3093 79.3454 12.2805C79.4368 11.8593 79.6347 11.4657 79.9241 11.1343C80.1357 10.9065 80.3971 10.7339 80.6934 10.6234C81.322 10.4163 81.9991 10.4163 82.6277 10.6234C82.9239 10.7339 83.1853 10.9065 83.3969 11.1343C83.6795 11.4657 83.8842 11.8524 83.9757 12.2805C84.1948 13.3093 84.1948 14.3656 83.9757 15.3944Z" fill="white"/>
<path d="M75.3996 8.64856C75.3709 8.57261 75.3218 8.50357 75.2651 8.44833C75.2017 8.39309 75.1238 8.35857 75.0467 8.34476C74.9191 8.31024 74.7785 8.29643 74.644 8.28953C74.0932 8.24119 73.5431 8.255 72.9923 8.33785C72.8797 8.35167 72.7664 8.39309 72.6606 8.44142C72.5903 8.48975 72.5336 8.54499 72.4838 8.61403C72.4346 8.68307 72.4067 8.75901 72.3923 8.84187C71.5944 11.4034 70.7972 13.965 69.9994 16.5265C69.2018 13.965 68.4042 11.4034 67.6066 8.84187C67.5924 8.75901 67.5571 8.68307 67.5148 8.61403C67.4653 8.54499 67.4089 8.48975 67.3383 8.44142C67.2324 8.38619 67.1195 8.35167 67.0065 8.33785C66.463 8.255 65.9054 8.24119 65.3548 8.28953C65.2207 8.28953 65.0866 8.31024 64.9524 8.34476C64.8748 8.35857 64.7972 8.39999 64.7336 8.44833C64.6701 8.50357 64.6207 8.57261 64.5995 8.64856C64.5642 8.84881 64.5854 9.05594 64.663 9.24234L67.8536 18.8257C67.8889 18.9638 67.9595 19.095 68.0583 19.1985C68.1712 19.2814 68.3053 19.3297 68.4395 19.3435C69.5194 19.5576 70.628 19.5438 71.7077 19.3159C71.7924 19.2952 71.877 19.2607 71.9473 19.2055C72.0463 19.1019 72.1173 18.9707 72.1521 18.8326C73.2182 15.6359 74.2768 12.446 75.3429 9.24927C75.4132 9.04901 75.4344 8.84187 75.3996 8.64856Z" fill="white"/>
<path d="M4.21024 6.91633C5.02124 5.71256 6.10673 4.7084 7.38562 3.98251C8.5335 3.25056 9.84984 2.80293 11.2223 2.66984C11.4406 2.6517 11.659 2.71219 11.8399 2.83317C12.0208 2.95415 12.1518 3.13563 12.2142 3.33525C12.6571 4.3878 12.8942 5.51293 12.9192 6.65017C12.9441 8.16246 12.6446 9.66867 12.0333 11.06C12.0146 11.1084 11.9834 11.1507 11.9397 11.181C11.896 11.2112 11.8399 11.2293 11.79 11.2293C11.6403 11.2354 11.4905 11.2657 11.3408 11.2657C8.48359 11.3261 5.70747 13.0139 3.87336 15.0645C3.78602 15.1855 3.66125 15.2762 3.51777 15.3246C3.2807 15.3791 3.18712 15.1673 3.13098 14.9919C2.60071 13.2981 2.53832 11.4955 2.9563 9.76547C3.1996 8.74921 3.62382 7.78741 4.204 6.91029" fill="#F47119"/>
<path d="M11.6806 21.3257C10.1734 21.253 8.70439 20.8473 7.38163 20.1449C6.12883 19.5515 5.04137 18.6735 4.22101 17.5896C4.09382 17.414 4.03659 17.2021 4.04931 16.9901C4.06838 16.7782 4.16378 16.5783 4.31641 16.4209C5.04773 15.5187 5.94441 14.7497 6.96191 14.1563C8.32282 13.3691 9.84275 12.8665 11.4198 12.6727C11.4771 12.6606 11.5279 12.6667 11.5789 12.6909C11.6297 12.7151 11.6742 12.7454 11.6997 12.7938C11.7823 12.9149 11.8841 13.0239 11.9667 13.1511C13.493 15.5187 16.4501 16.9901 19.2483 17.4927C19.4009 17.5048 19.5472 17.5593 19.668 17.6562C19.8397 17.8257 19.6934 18.0135 19.5599 18.1467C18.2944 19.4485 16.6854 20.4053 14.9048 20.9321C13.8682 21.2348 12.7744 21.3681 11.6806 21.3257Z" fill="#54D39C"/>
<path d="M20.6628 7.51668C21.3596 8.78454 21.7334 10.1847 21.7714 11.6087C21.8727 12.9307 21.6257 14.2587 21.0619 15.4665C20.9669 15.6588 20.8086 15.815 20.6058 15.9051C20.4031 15.9953 20.1751 16.0253 19.9597 15.9773C18.7752 15.8331 17.635 15.4905 16.5835 14.9617C15.1899 14.2467 13.961 13.2672 12.9919 12.0775C12.9539 12.0414 12.9285 11.9873 12.9222 11.9393C12.9159 11.8852 12.9285 11.8371 12.9539 11.789C13.0236 11.6569 13.0742 11.5247 13.1439 11.3925C14.5058 8.95881 14.3411 5.81015 13.3846 3.27437C13.3149 3.14218 13.2959 2.99797 13.3212 2.85375C13.3846 2.62541 13.6316 2.65545 13.8153 2.69151C15.627 3.07007 17.3056 3.89329 18.6802 5.07705C19.4783 5.7801 20.1498 6.60333 20.6628 7.51668Z" fill="#1875F0"/>
</svg>
