<svg xmlns="http://www.w3.org/2000/svg" width="255" height="24" viewBox="0 0 255 24" fill="none"><rect width="255" height="24" fill="none"/>
<path d="M2.70957 8.20974C2.70957 8.20974 1.61158 13.1363 4.52803 14.623C7.44447 16.1103 12.1275 15.1772 12.918 14.023C13.7082 12.868 13.8905 12.0724 13.8905 12.0724V8.21997L2.70957 8.20974Z" fill="#6CC351"/>
<path d="M13.6527 8.21974C13.6527 8.21974 12.5547 13.1463 15.4712 14.633C18.3876 16.1203 23.0708 15.1872 23.861 14.033C24.6513 12.878 24.8336 12.0822 24.8336 12.0822V8.22998L13.6527 8.21974Z" fill="#522953"/>
<path d="M24.8394 8.22999C24.8394 8.22999 23.7414 13.1566 26.6579 14.6434C29.5738 16.1305 34.2575 15.1974 35.0477 14.0433C35.838 12.8883 36.0203 12.0926 36.0203 12.0926V8.24022L24.8394 8.22999Z" fill="#E87722"/>
<path d="M36.6671 8.27918C36.625 7.94596 36.321 7.70963 35.9875 7.75181C35.6548 7.79399 35.4183 8.09828 35.4608 8.43115C35.6133 9.63063 35.6157 10.628 35.4678 11.3951C35.3169 12.181 35.0111 12.8609 34.5592 13.4158L34.5285 13.4567C33.846 14.2718 32.8712 14.7658 31.7065 14.8855C31.5215 14.9047 30.5942 14.951 30.4011 14.9508L30.1962 14.9506C29.9677 14.9504 29.2168 14.8989 29.001 14.8722C27.0496 14.6306 25.7137 13.3595 25.3341 11.3857C24.7649 8.42409 26.5888 3.20841 26.6073 3.15599C26.7192 2.83918 26.5531 2.49183 26.237 2.37993C25.92 2.26697 25.5725 2.43323 25.4613 2.74952C25.381 2.97579 23.5082 8.32807 24.1401 11.6145C24.1741 11.7904 24.2156 11.9613 24.2624 12.1298C23.7039 13.6902 22.4182 14.6991 20.7015 14.8754C20.5162 14.8947 19.5889 14.9409 19.3962 14.9407L19.1912 14.9406C18.9622 14.9404 18.212 14.8888 17.9957 14.8622C16.0448 14.6206 14.7086 13.3494 14.3291 11.3757C13.7592 8.41403 15.5838 3.19835 15.6023 3.14593C15.7144 2.82912 15.5483 2.48177 15.2315 2.36987C14.9154 2.25691 14.5679 2.42317 14.4558 2.73946C14.3759 2.96573 12.5029 8.31801 13.1349 11.6044C13.169 11.7804 13.2108 11.9512 13.2572 12.1198C12.6988 13.6802 11.4126 14.689 9.69656 14.8654C9.51107 14.8848 8.58392 14.9308 8.39136 14.9307L8.18592 14.9305C7.95736 14.9303 7.20689 14.879 6.99068 14.8521C5.03932 14.6105 3.70341 13.3394 3.32377 11.3656C2.75456 8.40397 4.57849 3.18829 4.59737 3.13587C4.70927 2.81906 4.54284 2.47171 4.22638 2.35981C3.90974 2.24685 3.56275 2.41311 3.45067 2.7294C3.37072 2.95567 1.4979 8.30795 2.13012 11.5943C2.60843 14.0833 4.36987 15.7526 6.84154 16.0587C7.0071 16.0793 7.3931 16.1091 7.72438 16.1279V21.04C7.72438 21.3758 7.99654 21.6483 8.33241 21.6487C8.66829 21.649 8.94062 21.3771 8.94062 21.0412V16.1282C9.28903 16.112 9.68562 16.0888 9.82258 16.0747C11.6151 15.8905 13.038 14.9984 13.8933 13.5976C14.7304 14.9665 16.1128 15.8536 17.8467 16.0687C18.0122 16.0894 18.3986 16.1192 18.7295 16.1379V21.05C18.7295 21.3859 19.0019 21.6584 19.3377 21.6588C19.6736 21.6591 19.9454 21.3871 19.9454 21.0513V16.1384C20.2942 16.122 20.6904 16.0989 20.8274 16.0848C22.6199 15.9005 24.0453 15.0112 24.9008 13.6115C25.7379 14.9778 27.1197 15.8636 28.8518 16.0788C29.0177 16.0994 29.4039 16.1293 29.7345 16.148V21.0601C29.7345 21.396 30.0067 21.6685 30.3427 21.6688C30.6782 21.6692 30.9506 21.3972 30.9506 21.0613V16.1485C31.2993 16.1321 31.6959 16.109 31.8325 16.0948C33.3268 15.9415 34.5871 15.2923 35.4774 14.2183L35.5134 14.1705C36.0872 13.4608 36.4741 12.6048 36.6618 11.6259C36.8339 10.7327 36.8359 9.60609 36.6671 8.27918Z" fill="#522953"/>
<path d="M168.768 13.494L163.923 13.4896V17.3632L168.804 17.3677C170.478 17.3693 170.891 16.4032 170.891 15.4282C170.891 14.4633 170.369 13.4954 168.768 13.494ZM169.254 21.6164L159.007 21.607V2.4237L174.275 2.43747V6.64587L163.923 6.63634V9.53973L168.916 9.54432C168.916 9.54432 171.983 9.58668 173.479 10.4459C174.972 11.3061 175.77 12.8958 175.77 16.1457C175.77 19.9044 172.527 21.6194 169.254 21.6164Z" fill="#522953"/>
<path d="M60.2326 13.3948L55.387 13.3904V17.264L60.2666 17.2685C61.9425 17.2701 62.3557 16.304 62.3557 15.329C62.3557 14.3641 61.8327 13.3962 60.2326 13.3948ZM55.387 9.44053L60.3799 9.44512C61.387 9.446 61.8327 8.66535 61.8327 7.99713C61.8327 7.32538 61.422 6.54279 60.3438 6.54173L55.387 6.53714V9.44053ZM60.7167 21.5172L50.4705 21.5078V2.3245L60.6803 2.33368C63.7308 2.3365 66.4504 4.23173 66.4504 7.51512C66.4504 9.26633 65.746 10.4912 64.6653 11.3119C65.8941 11.9826 67.2337 13.3628 67.2337 16.0465C67.2337 19.8052 63.992 21.5202 60.7167 21.5172Z" fill="#522953"/>
<path d="M70.65 2.34334L75.4885 2.34775V14.5644L82.9032 2.35446L88.0412 2.35922V21.5417L83.2027 21.5373V9.31623L75.7873 21.5306L70.65 21.5258V2.34334Z" fill="#522953"/>
<path d="M96.7694 21.5501L91.8596 21.5457V2.36221L96.7694 2.3668V9.03417L104.334 9.04123V2.37368L109.245 2.3781V21.5616L104.334 21.557V13.3954L96.7694 13.3884V21.5501Z" fill="#522953"/>
<path d="M131.753 2.39917V21.5816L126.836 21.5772V6.75177L121.25 6.74666L120.429 14.8645C119.943 19.5574 117.632 21.6404 112.903 21.6362V17.3547C114.579 17.2442 115.475 16.5364 115.661 14.5628L116.927 2.38558L131.753 2.39917Z" fill="#522953"/>
<path d="M145.333 6.54287C142.611 6.5404 140.418 8.92259 140.418 12.0507C140.418 15.1081 142.611 17.457 145.333 17.4594C148.051 17.4619 150.246 15.0425 150.246 12.0597C150.246 9.00837 148.051 6.54534 145.333 6.54287ZM155.168 21.6036L150.468 21.5993V19.5477C148.982 21.111 146.93 22.0021 144.588 22C139.596 21.9954 135.459 17.671 135.459 12.0129C135.459 6.31007 139.596 1.99541 144.588 2C146.93 2.00212 148.982 2.8959 150.468 4.46603V2.41354L155.168 2.41795V21.6036Z" fill="#522953"/>
<path d="M242.926 2.07541H191.765C186.39 2.07541 182.032 6.43313 182.032 11.8085C182.032 17.1839 186.39 21.5417 191.765 21.5417H242.926C248.301 21.5417 252.659 17.1839 252.659 11.8085C252.659 6.43313 248.301 2.07541 242.926 2.07541Z" fill="#6CC351"/>
<path d="M193.255 12.7433H195.467C196.4 12.7433 196.526 13.198 196.526 13.6424C196.526 14.0943 196.4 14.5554 195.467 14.5554H193.255V12.7433ZM195.705 10.58H193.255V9.11173H197.88V6.96234H190.946V16.7188H195.705C197.571 16.7188 198.874 15.4538 198.874 13.6424C198.874 11.8107 197.6 10.58 195.705 10.58Z" fill="white"/>
<path d="M202.261 12.9167V6.96224H199.939V16.7188H202.491L205.797 10.7606V16.7188H208.106V6.96224H205.554L202.261 12.9167Z" fill="white"/>
<path d="M215.626 11.528C216.122 11.0791 216.391 10.4656 216.391 9.76035C216.391 8.25571 215.341 6.73713 212.996 6.73713C210.901 6.73713 209.465 8.01515 209.338 9.99351L209.319 10.2914H211.624L211.656 10.0496C211.761 9.29246 212.186 8.93982 212.996 8.93982C213.516 8.93982 214.135 9.0819 214.135 9.76035C214.135 9.9628 214.135 10.58 212.956 10.58H212.054V12.7433H213.181C214.4 12.7433 214.4 13.4407 214.4 13.6694C214.4 14.2801 213.849 14.6749 212.996 14.6749C212.066 14.6749 211.467 14.1984 211.434 13.4319L211.423 13.1645H209.079L209.085 13.4509C209.132 15.4685 210.746 16.8776 213.01 16.8776C215.592 16.8776 216.748 15.2798 216.748 13.6957C216.748 12.7899 216.336 12.0073 215.626 11.528Z" fill="white"/>
<path d="M223.599 10.6463H220.236V6.96228H217.914V16.7187H220.236V12.8359H223.599V16.7187H225.908V6.96228H223.599V10.6463Z" fill="white"/>
<path d="M229.833 12.7433H234.074V10.5537H229.833V9.15179H234.802V6.96234H227.524V16.7188H234.895V14.5293H229.833V12.7433Z" fill="white"/>
<path d="M242.205 13.3998C241.802 14.2195 241.02 14.7282 240.164 14.7282C238.827 14.7282 237.74 13.4152 237.74 11.8004C237.74 10.1938 238.827 8.88662 240.164 8.88662C241.041 8.88662 241.805 9.3734 242.205 10.1886L242.283 10.3447H244.728L244.619 9.98391C244.001 7.94236 242.335 6.72329 240.164 6.72329C237.51 6.72329 235.431 8.95369 235.431 11.8004C235.431 14.6473 237.51 16.8775 240.164 16.8775C242.274 16.8775 243.976 15.6244 244.606 13.6067L244.719 13.244H242.283L242.205 13.3998Z" fill="white"/>
</svg>
