<svg xmlns="http://www.w3.org/2000/svg" width="24" height="24" viewBox="0 0 24 24" fill="none"><rect width="24" height="24" fill="none"/>
<path d="M22 12C22 16.103 19.529 19.6288 15.9939 21.1706C14.7706 21.7041 13.4199 22 12 22C11.5088 22 11.0259 21.9646 10.5536 21.8962C8.48023 21.5958 6.61281 20.6592 5.1557 19.2908C3.21326 17.4666 2 14.875 2 12C2 6.47715 6.47715 2 12 2C14.5316 2 16.8435 2.94074 18.6052 4.49172C20.6867 6.32428 22 9.00877 22 12Z" fill="#D9D9D9"/>
<path d="M22 12C22 16.103 19.529 19.6288 15.9939 21.1706C14.7706 21.7041 13.4199 22 12 22C11.5088 22 11.0259 21.9646 10.5536 21.8962C8.48023 21.5958 6.61281 20.6592 5.1557 19.2908C3.21326 17.4666 2 14.875 2 12C2 6.47715 6.47715 2 12 2C14.5316 2 16.8435 2.94074 18.6052 4.49172C20.6867 6.32428 22 9.00877 22 12Z" fill="url(#paint0_linear_2632_168)"/>
<path fill-rule="evenodd" clip-rule="evenodd" d="M5.1557 19.2908L14.0554 11.1233L8.90409 12.3752C7.4632 12.7253 6.02635 11.8375 5.69481 10.3922C5.36333 8.94675 6.26275 7.4912 7.70371 7.14102L18.6052 4.49172C20.6867 6.32428 22 9.00877 22 12C22 16.103 19.529 19.6288 15.9939 21.1706C15.9896 20.8768 16.0343 20.5768 16.1336 20.2813L17.8368 15.2122L10.5536 21.8962C8.48023 21.5958 6.61281 20.6592 5.1557 19.2908Z" fill="url(#paint1_linear_2632_168)"/>
<defs>
<linearGradient id="paint0_linear_2632_168" x1="22" y1="21.1387" x2="-9.33331" y2="-7.94467" gradientUnits="userSpaceOnUse">
<stop offset="0.0101305" stop-color="#3E3BA0"/>
<stop offset="1" stop-color="#498BFF"/>
</linearGradient>
<linearGradient id="paint1_linear_2632_168" x1="56.5137" y1="28.8925" x2="-7.52174" y2="36.4245" gradientUnits="userSpaceOnUse">
<stop stop-color="#FFB800"/>
<stop offset="1" stop-color="#FFF11D"/>
</linearGradient>
</defs>
</svg>
