<svg xmlns="http://www.w3.org/2000/svg" width="100" height="24" viewBox="0 0 100 24" fill="none"><rect width="100" height="24" fill="none"/>
<path d="M29.8642 13.353C29.1276 13.2528 28.6648 12.6969 28.6648 11.8856C28.6648 11.0742 29.1248 10.5211 29.8642 10.4209V13.353Z" fill="white"/>
<path d="M31.1905 13.353V10.4209C31.9299 10.5211 32.3899 11.0742 32.3899 11.8856C32.3913 12.6983 31.9299 13.2528 31.1905 13.353Z" fill="white"/>
<path fill-rule="evenodd" clip-rule="evenodd" d="M24.8877 10.8732H23.9282V9.2957H22.6032V14.4883H24.906C26.3453 14.4883 26.8687 13.5472 26.8687 12.6624C26.8702 11.5167 26.1519 10.8732 24.8877 10.8732ZM23.931 13.3454H24.7875C25.2573 13.3454 25.524 13.1337 25.5269 12.6624C25.5269 12.2278 25.2475 12.0261 24.7875 12.0261H23.931V13.3454Z" fill="#EF3124"/>
<path fill-rule="evenodd" clip-rule="evenodd" d="M2 12C2 6.68323 5.5685 2 12 2H36.6338C43.0639 2 46.6338 6.68182 46.6338 12C46.6338 17.3182 43.0639 22 36.6338 22H12C5.5685 22 2 17.3168 2 12ZM14.6606 8.24077C14.4559 7.63966 14.2245 7.15991 13.4245 7.15991C12.6258 7.15991 12.3789 7.63966 12.1644 8.24077L9.96886 14.486H11.425L11.9316 13.0016H14.7325L15.2123 14.486H16.763L14.6606 8.24077ZM31.1905 9.17355V7.25313H29.8642V9.17496C28.3459 9.30477 27.3201 10.3758 27.3201 11.887C27.3201 13.3982 28.3445 14.479 29.8642 14.606V16.5617H31.1905V14.6046C32.7116 14.4847 33.736 13.4038 33.736 11.8827C33.736 10.363 32.7116 9.29489 31.1905 9.17355ZM17.7012 12.1079C17.6702 13.0688 17.5446 13.2706 16.9999 13.2706V14.4883H17.2045C18.5605 14.4883 18.8837 13.787 18.9373 12.2278L18.9923 10.5036H20.2637V14.4883H21.59V9.2957H17.7944L17.7012 12.1079ZM23.9282 10.8732H24.8877C26.1519 10.8732 26.8702 11.5167 26.8687 12.6624C26.8687 13.5472 26.3453 14.4883 24.906 14.4883H22.6032V9.2957H23.9282V10.8732ZM38.7115 12.8926V11.1486C38.7115 9.87585 37.9001 9.07298 36.5371 9.07298C35.126 9.07298 34.3782 9.921 34.3175 10.8071H35.6608C35.706 10.6124 35.9007 10.2808 36.5371 10.2808C37.0535 10.2808 37.3837 10.5207 37.3837 11.1472H36.0658C34.8847 11.1472 34.1849 11.7638 34.1849 12.7967C34.1849 13.8747 34.9525 14.6155 36.0559 14.6155C36.3353 14.6339 36.6161 14.5816 36.8701 14.4631C37.124 14.3446 37.3456 14.1654 37.5121 13.9396C37.687 14.291 38.0737 14.4843 38.5802 14.4843H39.0402V13.2835C38.8046 13.2891 38.7115 13.1777 38.7115 12.8926ZM9.81359 16.495H16.9069V17.9695H9.81359V16.495Z" fill="white"/>
<path d="M24.7875 13.3454H23.931V12.0261H24.7875C25.2475 12.0261 25.5269 12.2278 25.5269 12.6624C25.524 13.1337 25.2573 13.3454 24.7875 13.3454Z" fill="white"/>
<path d="M13.3539 8.78683L12.3577 11.7486H14.3318L13.3906 8.78683H13.3539Z" fill="white"/>
<path d="M37.3188 12.9251C37.3667 12.8066 37.3893 12.6796 37.3837 12.5512L37.3851 12.5455V12.2026H36.324C35.967 12.2026 35.5493 12.2817 35.5493 12.7981C35.5493 13.3145 35.9261 13.4895 36.4058 13.4895C36.5342 13.4994 36.6626 13.4825 36.7826 13.4401C36.9039 13.3964 37.014 13.3287 37.1057 13.2398C37.1988 13.1509 37.2708 13.0436 37.3188 12.9251Z" fill="white"/>
<path fill-rule="evenodd" clip-rule="evenodd" d="M31.1905 7.25313V9.17355C32.7116 9.29489 33.736 10.363 33.736 11.8827C33.736 13.4038 32.7116 14.4847 31.1905 14.6046V16.5617H29.8642V14.606C28.3445 14.479 27.3201 13.3982 27.3201 11.887C27.3201 10.3758 28.3459 9.30477 29.8642 9.17496V7.25313H31.1905ZM29.8642 13.353C29.1276 13.2528 28.6648 12.6969 28.6648 11.8856C28.6648 11.0742 29.1248 10.5211 29.8642 10.4209V13.353ZM31.1905 13.353V10.4209C31.9299 10.5211 32.3899 11.0742 32.3899 11.8856C32.3913 12.6983 31.9299 13.2528 31.1905 13.353Z" fill="#EF3124"/>
<path fill-rule="evenodd" clip-rule="evenodd" d="M38.7115 11.1486V12.8926C38.7115 13.1777 38.8046 13.2891 39.0402 13.2835V14.4843H38.5802C38.0737 14.4843 37.687 14.291 37.5121 13.9396C37.3456 14.1654 37.124 14.3446 36.8701 14.4631C36.6161 14.5816 36.3353 14.6339 36.0559 14.6155C34.9525 14.6155 34.1849 13.8747 34.1849 12.7967C34.1849 11.7638 34.8847 11.1472 36.0658 11.1472H37.3837C37.3837 10.5207 37.0535 10.2808 36.5371 10.2808C35.9007 10.2808 35.706 10.6124 35.6608 10.8071H34.3175C34.3782 9.921 35.126 9.07298 36.5371 9.07298C37.9001 9.07298 38.7115 9.87585 38.7115 11.1486ZM37.3837 12.5512C37.3893 12.6796 37.3667 12.8066 37.3188 12.9251C37.2708 13.0436 37.1988 13.1509 37.1057 13.2398C37.014 13.3287 36.9039 13.3964 36.7826 13.4401C36.6626 13.4825 36.5342 13.4994 36.4058 13.4895C35.9261 13.4895 35.5493 13.3145 35.5493 12.7981C35.5493 12.2817 35.967 12.2026 36.324 12.2026H37.3851V12.5455L37.3837 12.5512Z" fill="#EF3124"/>
<path d="M16.9999 13.2706C17.5446 13.2706 17.6702 13.0688 17.7012 12.1079L17.7944 9.2957H21.59V14.4883H20.2637V10.5036H18.9923L18.9373 12.2278C18.8837 13.787 18.5605 14.4883 17.2045 14.4883H16.9999V13.2706Z" fill="#EF3124"/>
<path d="M16.9069 16.495H9.81359V17.9695H16.9069V16.495Z" fill="#EF3124"/>
<path fill-rule="evenodd" clip-rule="evenodd" d="M13.4245 7.15991C14.2245 7.15991 14.4559 7.63966 14.6606 8.24077L16.763 14.486H15.2123L14.7325 13.0016H11.9316L11.425 14.486H9.96886L12.1644 8.24077C12.3789 7.63966 12.6258 7.15991 13.4245 7.15991ZM12.3577 11.7486L13.3539 8.78683H13.3906L14.3318 11.7486H12.3577Z" fill="#EF3124"/>
<path fill-rule="evenodd" clip-rule="evenodd" d="M61.174 15.4672H56.502V19.3984H52.4848V4.59943H61.174C64.5576 4.59943 66.6078 6.62991 66.6078 10.0122C66.6078 13.29 64.5562 15.4672 61.174 15.4672ZM56.502 11.8719H60.8367C61.9148 11.8719 62.4862 11.2158 62.4862 10.0107C62.4862 8.74223 61.9148 8.04518 60.8367 8.04518H56.502V11.8719Z" fill="white"/>
<path fill-rule="evenodd" clip-rule="evenodd" d="M66.2057 19.3998H70.3499L71.2241 17.3905H77.7781L78.6369 19.3998H83.0549L76.7969 4.60084H72.6104L66.2057 19.3998ZM72.5094 14.3483H76.5175L74.4326 8.95083L72.5094 14.3483Z" fill="white"/>
<path d="M91.8301 19.3998V14.2613L98.4041 4.60084H93.3723L89.7142 10.1614L86.0561 4.60084H81.0244L87.5349 14.1037V19.3998H91.8301Z" fill="white"/>
</svg>
