<svg xmlns="http://www.w3.org/2000/svg" width="24" height="24" viewBox="0 0 24 24" fill="none"><rect width="24" height="24" fill="none"/>
<path fill-rule="evenodd" clip-rule="evenodd" d="M7.90152 6.88561C8.14791 6.78357 8.43149 6.83998 8.62007 7.02853L12.1099 10.5184L15.5997 7.02853C15.7883 6.83998 16.0719 6.78357 16.3182 6.88561C16.5646 6.98768 16.7253 7.22809 16.7253 7.49477V14.7475C16.7253 15.1117 16.4301 15.4069 16.0659 15.4069C15.7018 15.4069 15.4066 15.1117 15.4066 14.7475V9.08655L12.5761 11.917C12.3186 12.1745 11.9012 12.1745 11.6437 11.917L8.81319 9.08655V14.7475C8.81319 15.1117 8.518 15.4069 8.15385 15.4069C7.78969 15.4069 7.49451 15.1117 7.49451 14.7475V7.49477C7.49451 7.22809 7.65514 6.98768 7.90152 6.88561ZM12.7692 15.68L14.3344 14.1148C14.5918 13.8573 14.5918 13.4399 14.3344 13.1824C14.0769 12.9249 13.6594 12.9249 13.4019 13.1824L12.1099 14.4744L10.8179 13.1824C10.5604 12.9249 10.1429 12.9249 9.88543 13.1824C9.62793 13.4399 9.62793 13.8573 9.88543 14.1148L11.4505 15.68V17.3849C11.4505 17.749 11.7457 18.0442 12.1099 18.0442C12.474 18.0442 12.7692 17.749 12.7692 17.3849V15.68Z" fill="white"/>
<path fill-rule="evenodd" clip-rule="evenodd" d="M4.8738 20.3123L4.88804 20.3138C7.21567 20.5588 9.60705 20.6816 12 20.6816C14.3929 20.6816 16.7843 20.5588 19.112 20.3138L19.1262 20.3123L19.1405 20.3111C20.0019 20.2393 20.6813 19.4578 20.6813 18.7502V5.25024C20.6813 4.52662 19.9845 3.75734 19.1983 3.68897L19.1881 3.68808L19.178 3.68704C14.3918 3.19616 9.60758 3.19634 4.88626 3.68687L4.8729 3.68826L4.85952 3.68937C3.99806 3.76116 3.31868 4.54273 3.31868 5.25024V18.7502C3.31868 19.4578 3.99806 20.2393 4.85952 20.3111L4.8738 20.3123ZM19.25 21.6252C20.75 21.5002 22 20.1877 22 18.7502V5.25024C22 3.81275 20.75 2.50024 19.3125 2.37524C14.4375 1.87524 9.56251 1.87524 4.75 2.37524C3.25 2.50024 2 3.81275 2 5.25024V18.7502C2 20.1877 3.25 21.5002 4.75 21.6252C7.12501 21.8753 9.56251 22.0002 12 22.0002C14.4375 22.0002 16.875 21.8753 19.25 21.6252Z" fill="white"/>
</svg>
