<svg xmlns="http://www.w3.org/2000/svg" width="24" height="24" viewBox="0 0 24 24" fill="none"><rect width="24" height="24" fill="none"/>
<path d="M3.94371 2L13.5612 11.3542L16.1981 8.7709L4.54047 2.17675C4.34617 2.06628 4.138 2.0051 3.94371 2ZM3.13878 2.43508C3.05204 2.58634 3 2.76479 3 2.96533V21.1434C3 21.2896 3.03123 21.4205 3.08327 21.5377L12.9228 11.966L3.13878 2.43508ZM17.003 9.21958L14.1857 11.966L17.003 14.6988L20.4448 12.7682C20.934 12.4912 21.0033 12.1394 20.9999 11.9524C20.9947 11.6431 20.7952 11.3542 20.4586 11.1774C20.1655 11.0228 17.9883 9.78042 17.003 9.21958ZM13.5612 12.5778L3.86044 22C4.02177 21.9915 4.19699 21.9575 4.36005 21.864C4.73997 21.6482 12.4232 17.2957 12.4232 17.2957L16.2119 15.1611L13.5612 12.5778Z" fill="black"/>
</svg>
