<svg xmlns="http://www.w3.org/2000/svg" width="44" height="24" viewBox="0 0 44 24" fill="none"><rect width="44" height="24" fill="none"/>
<path d="M37.5252 22H6.4748C4.0036 22 2 19.9964 2 17.5252V6.4748C2 4.0036 4.0036 2 6.4748 2H37.5252C39.9964 2 42 4.0036 42 6.4748V17.5252C42 19.9964 39.9964 22 37.5252 22Z" fill="#D51317"/>
<path d="M32.7832 15.1756V17.4996H33.98C34.1356 17.4996 34.3288 17.478 34.5008 17.328C34.6136 17.2316 34.7476 17.0436 34.7476 16.7376C34.7476 16.5068 34.6724 16.3456 34.5704 16.2384C34.4092 16.0612 34.1516 16.0024 33.9476 16.0024H33.4376V15.176H32.7832V15.1756ZM6.4748 15.1756V17.4996H7.1296L8.2032 16.0664V17.4996H8.858V15.1756H8.2032L7.1296 16.6088V15.1756H6.4748ZM9.4396 17.5H10.0944V16.5552H11.0068V17.5H11.6616V15.176H11.0068V15.9972H10.0944V15.176H9.4396V17.5ZM13.9112 15.24C13.7232 15.1488 13.5248 15.1004 13.2832 15.1004C13.0576 15.1004 12.7304 15.1488 12.446 15.4008C12.21 15.61 12.0436 15.9376 12.0436 16.3456C12.0436 16.7804 12.2368 17.0704 12.414 17.2364C12.6232 17.4348 12.9456 17.5744 13.3104 17.5744C13.5788 17.5744 13.7828 17.494 13.9116 17.4296V16.7908C13.7344 16.952 13.5412 16.9948 13.3964 16.9948C13.0048 16.9948 12.72 16.7156 12.72 16.3344C12.72 15.9964 12.94 15.6796 13.3748 15.6796C13.6004 15.6796 13.772 15.7548 13.9116 15.8836V15.24H13.9112ZM16.192 15.734V15.1756H14.2488V15.734H14.8928V17.5H15.5476V15.734H16.192ZM17.19 17.1992C17.4476 17.548 17.7752 17.5748 17.936 17.5748C18.2796 17.5748 18.548 17.4404 18.7252 17.2744C18.8592 17.1456 19.09 16.8612 19.09 16.3352C19.09 15.8736 18.9128 15.5836 18.7412 15.412C18.4784 15.1492 18.1508 15.1008 17.9468 15.1008C17.5172 15.1008 17.292 15.3316 17.19 15.4764V15.176H16.5352V18.7292H17.19V17.1992ZM17.77 15.6804C17.9256 15.6804 18.0976 15.7392 18.2156 15.8468C18.3444 15.9704 18.414 16.1636 18.414 16.3352C18.414 16.5068 18.3496 16.7 18.21 16.8292C18.124 16.9096 17.9844 16.9956 17.77 16.9956C17.5556 16.9956 17.4264 16.9152 17.3404 16.84C17.2116 16.7272 17.1256 16.55 17.1256 16.3356C17.1256 16.1212 17.2008 15.96 17.3456 15.8364C17.464 15.7284 17.598 15.6804 17.77 15.6804ZM19.3004 18.7292H20.0412L21.9144 15.176H21.1736L20.5296 16.4964L19.8104 15.176H19.0484L20.154 17.1512L19.3004 18.7292ZM21.7848 17.5H22.4396L22.6328 16.2388L23.2124 17.5H23.4484L24.028 16.2388L24.2212 17.5H24.876L24.452 15.176H23.9688L23.33 16.5124L22.6912 15.176H22.208L21.7848 17.5ZM26.8912 16.754C26.784 16.942 26.596 17.06 26.3492 17.06C26.1024 17.06 25.952 16.9364 25.8824 16.84C25.8072 16.738 25.7696 16.5876 25.7696 16.448H27.5088V16.3944C27.5088 16.142 27.4768 15.7772 27.2296 15.482C27.0688 15.2888 26.7948 15.1008 26.3224 15.1008C26.0432 15.1008 25.7212 15.16 25.4476 15.4284C25.2812 15.5948 25.0932 15.8792 25.0932 16.3408C25.0932 16.706 25.2004 17.0064 25.458 17.248C25.6888 17.468 25.9732 17.5756 26.3492 17.5756C27.1596 17.5756 27.4228 17.0228 27.4924 16.8508L26.8912 16.754ZM25.7908 16.0292C25.8444 15.718 26.0968 15.5624 26.3384 15.5624C26.58 15.5624 26.8376 15.7128 26.8912 16.0292H25.7908ZM27.9312 17.5H28.586V16.5552H29.4984V17.5H30.1532V15.176H29.4984V15.9972H28.586V15.176H27.9312V17.5ZM32.4396 15.734V15.1756H30.4968V15.734H31.1408V17.5H31.7956V15.734H32.4396ZM33.438 16.9844V16.5176H33.76C33.8188 16.5176 33.9156 16.5228 33.9856 16.5712C34.0284 16.598 34.0716 16.6516 34.0716 16.7376C34.0716 16.8288 34.0284 16.8932 33.9856 16.9256C33.916 16.9792 33.814 16.9844 33.744 16.9844H33.438ZM34.9948 15.1756V17.4996H35.6496V15.1756H34.9948Z" fill="white"/>
<path fill-rule="evenodd" clip-rule="evenodd" d="M35.2892 13.0768C36.5244 13.0768 37.526 12.0752 37.526 10.84C37.526 9.6048 36.5244 8.6032 35.2892 8.6032C34.054 8.6032 33.0524 9.6048 33.0524 10.84C33.0524 12.0752 34.054 13.0768 35.2892 13.0768ZM35.646 12.0788H36.0644L37.122 10.0728H36.7036L36.34 10.8184L35.934 10.0728H35.5036L36.128 11.188L35.646 12.0788ZM33.3856 11.188C33.3856 11.3212 33.4888 11.4244 33.622 11.4244C33.7552 11.4244 33.8584 11.3212 33.8584 11.188C33.8584 11.0548 33.7552 10.9516 33.622 10.9516C33.4888 10.9516 33.3856 11.0548 33.3856 11.188ZM34.4776 11.2152C34.6232 11.412 34.808 11.4272 34.8988 11.4272C35.0928 11.4272 35.2444 11.3516 35.3444 11.2576C35.42 11.1848 35.5504 11.0244 35.5504 10.7272C35.5504 10.4668 35.4504 10.3028 35.3536 10.206C35.2052 10.0576 35.0204 10.0304 34.9052 10.0304C34.6628 10.0304 34.5356 10.1608 34.478 10.2424V10.0728H34.1084V12.0788H34.478V11.2152H34.4776ZM34.8048 10.3576C34.8928 10.3576 34.9896 10.3908 35.0564 10.4516C35.1292 10.5212 35.1684 10.6304 35.1684 10.7272C35.1684 10.824 35.132 10.9332 35.0532 11.006C35.0048 11.0516 34.926 11.1 34.8048 11.1C34.6836 11.1 34.6108 11.0544 34.5624 11.012C34.4896 10.9484 34.4412 10.8484 34.4412 10.7272C34.4412 10.606 34.4836 10.5152 34.5656 10.4456C34.632 10.3852 34.708 10.3576 34.8048 10.3576Z" fill="white"/>
<path d="M14.7004 8.8548V10.016C14.4488 9.7836 14.1392 9.6484 13.7324 9.6484C12.9484 9.6484 12.5516 10.2192 12.5516 10.8292C12.5516 11.5164 13.0644 12.0196 13.7712 12.0196C14.0324 12.0196 14.3808 11.942 14.7004 11.652V12.8036C14.468 12.9196 14.1004 13.0648 13.6164 13.0648C12.9584 13.0648 12.3776 12.8132 12 12.4552C11.6808 12.1552 11.3324 11.6324 11.3324 10.8488C11.3324 10.1132 11.6324 9.5228 12.0584 9.1456C12.5716 8.6908 13.1616 8.6036 13.5684 8.6036C14.0036 8.6036 14.3616 8.69 14.7004 8.8548ZM10.8296 11.1C10.8296 11.4772 10.7232 12.0096 10.278 12.4064C9.794 12.8324 9.2036 12.9292 8.6424 12.9292H6.4744V6.474H8.0712C8.4288 6.474 9.126 6.474 9.6488 6.8804C10.0264 7.1708 10.2488 7.674 10.2488 8.216C10.2488 9.0484 9.6972 9.3872 9.5228 9.484C9.9488 9.5516 10.2004 9.7356 10.3648 9.8904C10.7524 10.258 10.8296 10.7612 10.8296 11.1ZM7.7328 9.1548H8.0908C8.284 9.1548 9.0684 9.1352 9.0684 8.3128C9.0684 7.7224 8.6136 7.5 8.1008 7.5H7.7328V9.1548ZM9.5328 10.984C9.5328 10.7808 9.4652 10.4324 9.0584 10.2484C8.7876 10.1228 8.468 10.1228 8.1972 10.1228H7.7328V11.9036H8.2748C8.5068 11.9036 8.8556 11.894 9.136 11.7296C9.446 11.5452 9.5328 11.2356 9.5328 10.984ZM16.5232 11.0324C16.5232 11.284 16.5908 11.5548 16.7264 11.7388C16.852 11.9132 17.1136 12.1356 17.5684 12.1356C18.0232 12.1356 18.3524 11.9228 18.546 11.584L19.63 11.7584C19.504 12.068 19.03 13.0648 17.5684 13.0648C16.8908 13.0648 16.378 12.8712 15.962 12.4744C15.4976 12.0388 15.304 11.4968 15.304 10.8388C15.304 10.0064 15.6428 9.4936 15.9428 9.1936C16.4364 8.7096 17.0172 8.6032 17.5204 8.6032C18.372 8.6032 18.8656 8.942 19.156 9.2904C19.6012 9.8228 19.6592 10.4808 19.6592 10.9356V11.0324H16.5232ZM18.546 10.2772C18.4492 9.7064 17.9848 9.4352 17.5492 9.4352C17.1136 9.4352 16.6588 9.716 16.562 10.2772H18.546Z" fill="white"/>
</svg>
