<svg xmlns="http://www.w3.org/2000/svg" width="24" height="24" viewBox="0 0 24 24" fill="none"><rect width="24" height="24" fill="none"/>
<path d="M12 22C4.48236 22 2 19.5253 2 12.0308C2 4.54066 4.48677 2 12 2C19.5132 2 22 4.54066 22 12.0308C22 19.5253 19.5132 22 12 22Z" fill="black"/>
<path d="M7.10276 6.23283L5.97836 15.3595L7.82507 15.5856L8.94948 6.45895L7.10276 6.23283Z" fill="white"/>
<path d="M15.8536 9.68352L15.7743 10.3385L15.5185 10.3077C15.2848 9.90769 14.6411 9.33626 13.6931 9.22198C11.6164 8.96703 10.0026 10.3692 9.75132 12.3824C9.50441 14.3956 10.7302 16.1363 12.8069 16.3912C13.7549 16.5055 14.5176 16.1099 14.8395 15.7758L15.0952 15.8066L15.0159 16.4615L16.7575 16.6769L17.5908 9.8989L15.8536 9.68352ZM13.2698 14.6945C11.8721 14.5231 11.4665 14.0088 11.6384 12.6154C11.8104 11.222 12.3307 10.8088 13.7284 10.9802C15.1261 11.1516 15.5273 11.6791 15.3554 13.0725C15.1834 14.4615 14.6675 14.8659 13.2698 14.6945Z" fill="white"/>
</svg>
