<svg xmlns="http://www.w3.org/2000/svg" width="57" height="24" viewBox="0 0 57 24" fill="none"><rect width="57" height="24" fill="none"/>
<path fill-rule="evenodd" clip-rule="evenodd" d="M26 5.43047H32.0523C34.8831 5.43047 36.4421 6.81307 36.4421 9.3237C36.4421 11.8208 34.842 13.2529 32.0523 13.2529H28.4827V18.2723H26V5.43047ZM31.9108 7.69574H28.4827V10.9876H31.9108C33.1677 10.9876 33.8886 10.3878 33.8886 9.34164C33.8886 8.24948 33.2232 7.69574 31.9108 7.69574Z" fill="#000000"/>
<path d="M50.5079 14.9952L52.7279 9.07812H55.122L50.2223 22H47.846L49.3197 18.1383L45.6441 9.07812H48.2705L50.5079 14.9952Z" fill="#000000"/>
<path fill-rule="evenodd" clip-rule="evenodd" d="M45.2579 12.587V15.5986C45.2579 16.0948 45.423 16.3173 45.8275 16.3665L45.877 16.3726V18.3267H45.1133C44.1247 18.3267 43.4106 17.9101 43.1341 17.1786C42.8236 17.6328 42.0392 18.47 40.4792 18.47C38.3718 18.47 36.9561 17.2153 36.9561 15.3476C36.9561 13.5455 38.2015 12.512 40.373 12.512H42.9698C42.9603 11.4698 42.2556 10.7977 41.1689 10.7977C39.9799 10.7977 39.6186 11.5299 39.5582 11.6768L39.5438 11.7118H37.1964L37.2041 11.6479C37.2536 11.237 37.5185 10.5504 38.1027 9.96718C38.8313 9.23962 39.8794 8.85498 41.1335 8.85498C43.7162 8.85498 45.2579 10.2501 45.2579 12.587ZM39.315 15.3117C39.315 16.139 39.9643 16.653 41.0097 16.653C42.1272 16.653 42.9698 15.9838 42.9698 15.0966V14.2036H40.7267C39.8427 14.2036 39.315 14.6179 39.315 15.3117Z" fill="#000000"/>
<path d="M11.9764 7.51796H12.0204L13.1405 11.031H10.7904L11.9764 7.51796Z" fill="#000000"/>
<path fill-rule="evenodd" clip-rule="evenodd" d="M6.2 2C3.8804 2 2 3.8804 2 6.2V17.8C2 20.1196 3.8804 22 6.2 22H17.8C20.1196 22 22 20.1196 22 17.8V6.2C22 3.8804 20.1196 2 17.8 2H6.2ZM7.77209 18.4132H16.2281V16.6622H7.77209V18.4132ZM12.066 5.58714C11.1139 5.58714 10.8182 6.15084 10.5645 6.86963L7.948 14.2814H9.68298L10.2871 12.5194H13.6255L14.1855 14.2814H16.0305L13.5371 6.86963C13.2961 6.15314 13.0182 5.58714 12.066 5.58714Z" fill="#000000"/>
</svg>
