<svg xmlns="http://www.w3.org/2000/svg" width="24" height="24" viewBox="0 0 24 24" fill="none"><rect width="24" height="24" fill="none"/>
<path d="M2 12C2 6.47715 6.47715 2 12 2C17.5228 2 22 6.47715 22 12C22 17.5228 17.5228 22 12 22C6.47715 22 2 17.5228 2 12Z" fill="#F5F1E8"/>
<path d="M6.16667 7.84613L8.03206 11.1731V13.2019L6.16667 16.5288V7.84613Z" fill="#656CAE"/>
<path d="M13.3397 9.96153L15.0897 8.89423H18.6666L13.3397 12.1442V9.96153Z" fill="#C25169"/>
<path d="M13.3301 7.82692L13.3398 12.2308L11.4648 11.0865V4.5L13.3301 7.82692Z" fill="#EBAD4C"/>
<path d="M18.6666 8.89423H15.0897L13.3301 7.82692L11.4648 4.5L18.6666 8.89423Z" fill="#DB754B"/>
<path d="M13.3398 16.548V14.4038L11.4648 13.2788V19.875L13.3398 16.548Z" fill="#81BB5D"/>
<path d="M15.0801 15.4807L8.03206 11.1731L6.16667 7.84613L18.6667 15.4807H15.0801Z" fill="#608BC9"/>
<path d="M11.4648 19.875L13.3398 16.548L15.0801 15.4807H18.6667L11.4648 19.875Z" fill="#548254"/>
<path d="M6.16667 16.5288L11.484 13.2788L9.69552 12.1923L8.03206 13.2019L6.16667 16.5288Z" fill="#8366A8"/>
</svg>
