<svg xmlns="http://www.w3.org/2000/svg" width="84" height="24" viewBox="0 0 84 24" fill="none"><rect width="84" height="24" fill="none"/>
<path d="M77.4221 16.1364C77.4011 16.3163 77.3389 16.7895 76.7744 16.8509H71.8162C71.2516 16.7895 71.1485 16.3163 71.1274 16.1364V7.77904C71.1483 7.59874 71.2265 7.21548 71.7911 7.15402H76.7765C77.3413 7.21548 77.4011 7.59874 77.4221 7.77904V16.1364ZM79.1388 4.00518H69.4107C67.9489 4.13393 66.7142 4.94336 66.5494 6.75416V17.1011C66.7142 18.9119 67.9489 19.8712 69.4107 20H79.1388C80.6005 19.8712 81.8351 18.9119 82 17.1011V6.75416C81.8351 4.94336 80.6005 4.13393 79.1388 4.00518ZM39.7682 7.15402H35.419V4.00518H48.6953V7.15402H44.3461V20H39.7682V7.15402ZM34.0458 7.15402V4.00518H22.1428V20L34.204 19.9966L34.2083 16.8512H26.7324L26.7332 13.4254H34.0457V10.2843H26.7332V7.15402L34.0458 7.15402ZM60.5981 9.63319C60.5981 9.97935 60.5193 10.283 59.9502 10.283H54.6467V7.14345H59.9571C60.603 7.14345 60.5981 7.60499 60.5981 7.89313V9.63319ZM61.8662 13.7821C63.2943 13.6572 64.7181 12.5959 64.7181 10.8528V6.90405C64.5524 5.10166 63.3139 4.12833 61.8457 4H50.0686L50.0689 20H54.6467V13.7821H56.4687L59.4443 20H64.709L61.1655 13.7821H61.8662ZM12.6666 20L15.7338 9.95325V20H20.3118V4.00518H14.1316L11.1559 12.0028L8.18012 4.00518H2V20H6.57798V9.95325L9.66786 20H12.6666Z" fill="#FBC51D"/>
</svg>
