<svg xmlns="http://www.w3.org/2000/svg" width="85" height="24" viewBox="0 0 85 24" fill="none"><rect width="85" height="24" fill="none"/>
<path d="M12.0015 22C17.5243 22 22.0015 17.5228 22.0015 12C22.0015 6.47715 17.5243 2 12.0015 2C6.47862 2 2.00146 6.47715 2.00146 12C2.00146 17.5228 6.47862 22 12.0015 22Z" fill="#D9D9D9"/>
<path d="M12.0015 22C17.5243 22 22.0015 17.5228 22.0015 12C22.0015 6.47715 17.5243 2 12.0015 2C6.47862 2 2.00146 6.47715 2.00146 12C2.00146 17.5228 6.47862 22 12.0015 22Z" fill="#0055FF"/>
<path fill-rule="evenodd" clip-rule="evenodd" d="M12.2637 16.7368C11.7172 16.7368 11.201 16.6651 10.715 16.5215C10.3751 16.4211 10.0143 16.3879 9.67202 16.48L7.00056 17.1993L7.67219 14.7048C7.7686 14.3467 7.71848 13.9689 7.58873 13.6215C7.37203 13.0414 7.26373 12.4132 7.26373 11.7368C7.26373 10.7863 7.47773 9.93076 7.90573 9.17027C8.34674 8.40984 8.94335 7.81413 9.69562 7.3832C10.4608 6.95227 11.3169 6.73681 12.2637 6.73681C13.2106 6.73681 14.0601 6.95227 14.8124 7.3832C15.5776 7.81413 16.1742 8.40984 16.6022 9.17027C17.0433 9.93076 17.2637 10.7863 17.2637 11.7368C17.2637 12.6874 17.0433 13.5429 16.6022 14.3033C16.1742 15.0638 15.5776 15.6595 14.8124 16.0904C14.0601 16.5213 13.2106 16.7368 12.2637 16.7368ZM14.112 13.7901C13.6191 14.3097 13.003 14.5696 12.2637 14.5696C11.7838 14.5696 11.3429 14.4555 10.9408 14.2273C10.5387 13.9865 10.2209 13.6506 9.98745 13.2197C9.75402 12.7888 9.63728 12.2945 9.63728 11.7368C9.63728 11.1792 9.75402 10.6849 9.98745 10.254C10.2209 9.82303 10.5387 9.48716 10.9408 9.24635C11.3429 9.00555 11.7838 8.88515 12.2637 8.88515C12.7436 8.88515 13.1781 9.00555 13.5672 9.24635C13.9693 9.48716 14.287 9.82303 14.5205 10.254C14.754 10.6849 14.8707 11.1792 14.8707 11.7368C14.8707 12.5733 14.6178 13.2577 14.112 13.7901Z" fill="white"/>
<path d="M30.8065 17.0184C29.8716 17.0184 29.0263 16.8007 28.2708 16.3652C27.528 15.9298 26.9388 15.3279 26.5034 14.5595C26.0807 13.791 25.8695 12.9266 25.8695 11.9661C25.8695 11.0055 26.0807 10.141 26.5034 9.3726C26.9388 8.60417 27.528 8.00227 28.2708 7.56684C29.0263 7.1314 29.8716 6.91369 30.8065 6.91369C31.7414 6.91369 32.5803 7.1314 33.3231 7.56684C34.0787 8.00227 34.6678 8.60417 35.0905 9.3726C35.5259 10.141 35.7436 11.0055 35.7436 11.9661C35.7436 12.9266 35.5259 13.791 35.0905 14.5595C34.6678 15.3279 34.0787 15.9298 33.3231 16.3652C32.5803 16.8007 31.7414 17.0184 30.8065 17.0184ZM30.8065 14.8284C31.5365 14.8284 32.1449 14.5659 32.6315 14.0408C33.131 13.5029 33.3807 12.8113 33.3807 11.9661C33.3807 11.4025 33.2655 10.903 33.035 10.4676C32.8045 10.0322 32.4907 9.69282 32.0936 9.44948C31.7095 9.20613 31.2804 9.08444 30.8065 9.08444C30.3327 9.08444 29.8972 9.20613 29.5002 9.44948C29.1032 9.69282 28.7894 10.0322 28.5589 10.4676C28.3284 10.903 28.2131 11.4025 28.2131 11.9661C28.2131 12.5296 28.3284 13.029 28.5589 13.4645C28.7894 13.8999 29.1032 14.2393 29.5002 14.4826C29.8972 14.7131 30.3327 14.8284 30.8065 14.8284Z" fill="#0055FF"/>
<path d="M41.2445 16.8263H38.8816V9.27659H35.7887V7.10578H44.3566V9.27659H41.2445V16.8263Z" fill="#0055FF"/>
<path d="M45.2898 16.8263V7.10578H50.7072C51.5909 7.10578 52.2952 7.3619 52.8203 7.87421C53.3582 8.37367 53.6272 9.02683 53.6272 9.83366C53.6272 10.3203 53.5055 10.7429 53.2622 11.1016C53.0317 11.4473 52.7691 11.6907 52.4745 11.8316V11.9276C52.8203 12.0685 53.1277 12.3375 53.3966 12.7344C53.6784 13.1187 53.8193 13.5669 53.8193 14.0792C53.8193 14.5914 53.6912 15.0589 53.4351 15.4816C53.1917 15.8914 52.8459 16.218 52.3977 16.4613C51.9623 16.7046 51.4628 16.8263 50.8993 16.8263H45.2898ZM50.1308 11.0439C50.451 11.0439 50.7136 10.9415 50.9185 10.7366C51.1234 10.5316 51.2258 10.2691 51.2258 9.94894C51.2258 9.62873 51.1234 9.3726 50.9185 9.18051C50.7136 8.97558 50.451 8.87314 50.1308 8.87314H47.6335V11.0439H50.1308ZM50.2845 15.0397C50.6047 15.0397 50.8736 14.9373 51.0914 14.7324C51.3091 14.5146 51.418 14.2393 51.418 13.9063C51.418 13.5861 51.3091 13.3236 51.0914 13.1187C50.8736 12.9137 50.6047 12.8113 50.2845 12.8113H47.6335V15.0397H50.2845Z" fill="#0055FF"/>
<path d="M59.6007 17.0184C58.6783 17.0184 57.8397 16.8007 57.084 16.3652C56.3283 15.9298 55.7328 15.3279 55.2973 14.5595C54.8747 13.791 54.6634 12.9266 54.6634 11.9661C54.6634 11.0055 54.8747 10.141 55.2973 9.3726C55.7328 8.60417 56.3283 8.00227 57.084 7.56684C57.8397 7.1314 58.6783 6.91369 59.6007 6.91369C60.4973 6.91369 61.3105 7.12498 62.0403 7.54763C62.7702 7.97023 63.3401 8.55298 63.7501 9.29579C64.1724 10.0258 64.3842 10.8454 64.3842 11.7547C64.3842 12.1774 64.3521 12.5039 64.2879 12.7344H57.0071C57.0967 13.4132 57.3849 13.9703 57.8718 14.4058C58.3584 14.8284 58.9345 15.0397 59.6007 15.0397C60.0873 15.0397 60.5164 14.9373 60.8875 14.7323C61.2716 14.5274 61.547 14.2777 61.7137 13.9831H64.115C63.8458 14.79 63.3209 15.5008 62.5398 16.1155C61.7711 16.7174 60.7918 17.0184 59.6007 17.0184ZM62.0403 11.14C61.9761 10.4868 61.7199 9.94252 61.2716 9.50709C60.8233 9.07165 60.2664 8.85393 59.6007 8.85393C58.8962 8.85393 58.3133 9.07165 57.8521 9.50709C57.3913 9.92974 57.1096 10.474 57.0071 11.14H62.0403Z" fill="#0055FF"/>
<path d="M69.8696 16.8263H67.5066V9.27659H64.4137V7.10578H72.9816V9.27659H69.8696V16.8263Z" fill="#0055FF"/>
<path d="M77.9584 17.0184C77.0236 17.0184 76.1783 16.8007 75.4225 16.3652C74.6797 15.9298 74.0907 15.3279 73.6553 14.5595C73.233 13.791 73.0212 12.9266 73.0212 11.9661C73.0212 11.0055 73.233 10.141 73.6553 9.3726C74.0907 8.60417 74.6797 8.00227 75.4225 7.56684C76.1783 7.1314 77.0236 6.91369 77.9584 6.91369C78.8933 6.91369 79.7324 7.1314 80.4752 7.56684C81.2309 8.00227 81.82 8.60417 82.2424 9.3726C82.6777 10.141 82.8956 11.0055 82.8956 11.9661C82.8956 12.9266 82.6777 13.791 82.2424 14.5595C81.82 15.3279 81.2309 15.9298 80.4752 16.3652C79.7324 16.8007 78.8933 17.0184 77.9584 17.0184ZM77.9584 14.8284C78.6883 14.8284 79.2971 14.5659 79.7836 14.0408C80.2831 13.5029 80.5326 12.8113 80.5326 11.9661C80.5326 11.4025 80.4172 10.903 80.1869 10.4676C79.9565 10.0322 79.6428 9.69282 79.2458 9.44948C78.8612 9.20613 78.4326 9.08444 77.9584 9.08444C77.4848 9.08444 77.0489 9.20613 76.6519 9.44948C76.2549 9.69282 75.9412 10.0322 75.7109 10.4676C75.4805 10.903 75.3651 11.4025 75.3651 11.9661C75.3651 12.5296 75.4805 13.029 75.7109 13.4645C75.9412 13.8999 76.2549 14.2393 76.6519 14.4826C77.0489 14.7131 77.4848 14.8284 77.9584 14.8284Z" fill="#0055FF"/>
</svg>
