<svg xmlns="http://www.w3.org/2000/svg" width="134" height="24" viewBox="0 0 134 24" fill="none"><rect width="134" height="24" fill="none"/>
<path d="M123.157 12.2103C123.157 11.3978 124.266 10.7413 125.718 10.7413C127.235 10.7413 128.782 11.4606 129.83 12.6327L131.72 10.3189C129.922 8.72434 128.095 7.89483 125.813 7.89483C122.969 7.89483 120.029 9.2078 120.029 12.2103C120.029 15.9016 123.218 16.1679 125.813 16.3868C127.267 16.4953 128.548 16.6056 128.548 17.5589C128.548 18.592 127.079 19.0602 125.783 19.0602C124.956 19.0543 124.141 18.8663 123.395 18.5095C122.649 18.1526 121.991 17.6358 121.467 16.9958L119.452 19.1383C121.062 21.1094 123.391 21.9695 125.673 21.9695C128.533 21.9695 131.674 20.609 131.674 17.4962C131.674 13.9779 128.455 13.6336 125.985 13.3842C124.438 13.2282 123.157 13.0874 123.157 12.2103ZM108.777 13.0874C109.293 11.7897 110.404 11.0382 112.044 11.0382C113.701 11.0382 114.685 11.8355 115.108 13.0874H108.777ZM112.2 7.89652C108.293 7.89652 105.152 10.9449 105.152 14.9483C105.152 18.7159 107.934 21.9695 112.029 21.9695C114.497 21.9695 116.499 20.782 117.92 18.7464L115.764 16.9177C114.997 18.0916 113.622 18.7786 111.981 18.7786C110.309 18.7786 108.575 17.5284 108.434 15.6828H118.64V14.5886C118.607 10.726 115.983 7.89652 112.2 7.89652ZM72.2205 7.89652C68.3138 7.89652 65.1722 10.9449 65.1722 14.9483C65.1722 18.7159 67.9542 21.9695 72.0492 21.9695C74.5191 21.9695 76.5191 20.782 77.9406 18.7464L75.7846 16.9177C75.0178 18.0916 73.6438 18.7786 72.0017 18.7786C70.3308 18.7786 68.5954 17.5284 68.4546 15.6828H78.6599V14.5886C78.6446 10.726 76.0034 7.89652 72.2205 7.89652ZM100.431 21.4843H103.557V8.38168H100.431V21.4843ZM101.995 2C100.728 2 99.6505 3.06361 99.6505 4.39186C99.6505 5.70483 100.697 6.67515 102.058 6.67515C103.386 6.67515 104.355 5.73706 104.355 4.43935C104.338 3.10941 103.276 2 101.995 2ZM56.6853 7.87956C55.2163 7.87956 53.888 8.31722 52.7634 9.08397V2.15606H49.637V14.9466C49.637 18.8414 52.8092 21.9695 56.6701 21.9695C57.5988 21.9737 58.5192 21.7944 59.3784 21.4417C60.2376 21.0891 61.0187 20.5701 61.6766 19.9147C62.3346 19.2592 62.8566 18.4802 63.2125 17.6223C63.5684 16.7645 63.7513 15.8448 63.7506 14.916C63.7524 13.989 63.5707 13.0709 63.2159 12.2145C62.8612 11.3581 62.3403 10.5804 61.6835 9.92624C61.0267 9.27211 60.2469 8.75448 59.389 8.4032C58.5312 8.05193 57.6123 7.87396 56.6853 7.87956ZM40.4309 8.09839C36.9466 8.45801 34.1018 11.4606 34.1018 15.0416C34.1018 18.8244 37.3367 22 41.1196 22C44.8855 22 48.1374 18.8261 48.1374 15.0416C48.1374 13.43 47.5589 11.9457 46.6209 10.7718L39.6828 2.17133H35.6336L40.4309 8.09839ZM16.207 15.8388L13.3452 8.38168H11.1569L8.28159 15.8405L5.40458 8.38168H2L7.03308 21.5165H9.22137L12.2375 13.698L15.2841 21.5182H17.4724L22.4885 8.38168H19.0975L16.207 15.8405V15.8388ZM83.4266 11.3673V8.37998H80.302V21.4843H83.4266V15.9491C83.4266 13.2587 86.3036 11.6166 89.1637 11.6166V8.38168H88.8499C86.4275 8.38168 84.6768 9.257 83.4266 11.3673ZM93.3503 11.3673V8.37998H90.2256V21.4843H93.352V15.9491C93.352 13.2587 96.2273 11.6166 99.0874 11.6166V8.38168H98.7752C96.3664 8.38168 94.6158 9.257 93.3503 11.3673ZM29.3656 21.4843H32.4919V2.17303H29.3656V21.4843ZM41.1349 18.8414C40.6226 18.8427 40.1151 18.743 39.6414 18.548C39.1677 18.353 38.7371 18.0665 38.3742 17.7049C38.0114 17.3433 37.7234 16.9137 37.5267 16.4407C37.3301 15.9677 37.2286 15.4605 37.2282 14.9483C37.2264 14.4358 37.3257 13.9281 37.5204 13.4541C37.7151 12.9802 38.0014 12.5492 38.3628 12.186C38.7243 11.8228 39.1538 11.5345 39.6269 11.3375C40.0999 11.1406 40.6072 11.0388 41.1196 11.0382C41.6352 11.0353 42.1464 11.1342 42.6237 11.3293C43.101 11.5244 43.5351 11.8119 43.9011 12.1752C44.2671 12.5385 44.5577 12.9704 44.7563 13.4463C44.9549 13.9222 45.0576 14.4326 45.0585 14.9483C45.054 15.9847 44.6382 16.9769 43.9025 17.707C43.1668 18.437 42.1713 18.845 41.1349 18.8414ZM56.6701 18.8414C56.1565 18.8423 55.6478 18.7417 55.1732 18.5455C54.6986 18.3493 54.2674 18.0612 53.9044 17.6979C53.5414 17.3346 53.2538 16.9032 53.0579 16.4284C52.8621 15.9536 52.762 15.4449 52.7634 14.9313C52.7634 12.7905 54.436 11.0382 56.6853 11.0382C58.9364 11.0382 60.609 12.7888 60.609 14.916C60.611 15.4332 60.5104 15.9457 60.313 16.4237C60.1156 16.9018 59.8254 17.3359 59.459 17.701C59.0927 18.0661 58.6575 18.3549 58.1788 18.5506C57.7001 18.7464 57.1872 18.8452 56.6701 18.8414ZM23.9423 21.4843H27.0687V8.38168H23.9423V21.4843ZM25.4741 2C24.2087 2 23.1467 3.06361 23.1467 4.40882C23.1467 5.7676 24.2561 6.69041 25.4741 6.69041C26.1003 6.69054 26.7016 6.44507 27.1489 6.00673C27.5961 5.56839 27.8536 4.97215 27.866 4.34606C27.849 3.10942 26.7718 2 25.4741 2ZM68.799 13.0874C69.3299 11.7897 70.4241 11.0382 72.0492 11.0382C73.7218 11.0382 74.7379 11.8355 75.1586 13.0874H68.799Z" fill="black"/>
</svg>
