<svg xmlns="http://www.w3.org/2000/svg" width="24" height="24" viewBox="0 0 24 24" fill="none"><rect width="24" height="24" fill="none"/>
<path fill-rule="evenodd" clip-rule="evenodd" d="M22 12C22 17.5228 17.5228 22 12 22C9.10426 22 6.49599 20.7692 4.66981 18.8021C4.72073 18.7404 4.76295 18.6704 4.79415 18.5935L6.21822 15.7138H12.0767L12.8023 18.5935C12.8518 18.9045 13.1312 19.1253 13.4467 19.0982C13.9109 19.0622 14.2669 18.6746 14.2669 18.2105C14.2624 18.0798 14.2444 17.9536 14.2128 17.8319L11.5494 7.5435C11.3331 6.68275 10.9996 6.3042 10.3011 6.3042C9.60262 6.3042 9.16549 6.69176 8.74638 7.5435L3.69487 17.5718C2.62455 15.9796 2 14.0627 2 12C2 6.47715 6.47715 2 12 2C17.5228 2 22 6.47715 22 12ZM11.6891 14.1906L10.1119 7.84543L6.97081 14.1906H11.6891Z" fill="#000000"/>
</svg>
