<svg xmlns="http://www.w3.org/2000/svg" width="24" height="24" viewBox="0 0 24 24" fill="none"><rect width="24" height="24" fill="none"/>
<path d="M3.74957 7.93826C4.72482 7.93826 5.49914 8.62533 5.49914 9.59704C5.49914 10.5687 4.72482 11.2607 3.76917 11.2607C2.81353 11.2607 2.0196 10.5736 2.0196 9.59704C2.0196 8.62042 2.79392 7.93826 3.74957 7.93826ZM3.76917 10.5933C4.01918 10.5907 4.25799 10.4891 4.43339 10.3107C4.6088 10.1323 4.70653 9.89157 4.70522 9.6412V9.59704C4.70981 9.47134 4.6896 9.34598 4.64577 9.22811C4.60194 9.11024 4.53533 9.00218 4.44976 8.91011C4.36419 8.81804 4.26134 8.74376 4.14708 8.69153C4.03282 8.6393 3.9094 8.61013 3.78388 8.6057H3.76917C3.64648 8.6044 3.52475 8.6274 3.41096 8.67338C3.29718 8.71935 3.19359 8.78739 3.10615 8.87358C3.01871 8.95978 2.94914 9.06243 2.90144 9.17563C2.85375 9.28884 2.82887 9.41037 2.82823 9.53324V9.59704C2.81066 9.84159 2.89051 10.0832 3.0503 10.2689C3.2101 10.4547 3.43684 10.5695 3.68096 10.5884H3.76917M6.13134 8.00697H6.85175V8.24254C6.85275 8.315 6.84618 8.38737 6.83215 8.45847H6.85175C6.96027 8.28665 7.1133 8.14753 7.29453 8.05592C7.47577 7.96431 7.67842 7.92365 7.88091 7.93826C8.74344 7.93826 9.28743 8.62533 9.28743 9.59704C9.28743 10.5687 8.66993 11.2607 7.84171 11.2607C7.66726 11.2668 7.49396 11.2302 7.33683 11.1541C7.1797 11.078 7.04347 10.9647 6.93997 10.8239H6.92526C6.93505 10.9152 6.93996 11.007 6.93997 11.0988V12.4336H6.14604V8.00697H6.13134ZM7.67998 10.5933C8.11125 10.5933 8.4739 10.2301 8.4739 9.61667C8.4739 9.00321 8.15045 8.62533 7.67998 8.62533C7.20951 8.62533 6.88606 8.9296 6.88606 9.61667C6.90566 10.1025 7.1556 10.5933 7.67998 10.5933ZM11.3212 7.93826C12.2426 7.93826 12.7278 8.6057 12.7278 9.43508C12.7278 9.52833 12.7131 9.74426 12.7131 9.74426H10.5273C10.5461 9.98204 10.6562 10.2033 10.8343 10.3616C11.0125 10.5199 11.245 10.6029 11.483 10.5933C11.8179 10.5754 12.1393 10.4555 12.4043 10.2497L12.7131 10.8092C12.3497 11.1032 11.8962 11.2627 11.4291 11.2607C10.9996 11.2793 10.5802 11.1265 10.2632 10.8357C9.94617 10.5449 9.75738 10.14 9.7383 9.70991C9.73342 9.67244 9.73342 9.6345 9.7383 9.59704C9.71944 9.39774 9.74018 9.19667 9.79931 9.00544C9.85844 8.81421 9.95479 8.63659 10.0828 8.48284C10.2108 8.32908 10.368 8.20224 10.5452 8.10961C10.7225 8.01699 10.9162 7.96042 11.1154 7.94317C11.1837 7.93419 11.2527 7.93255 11.3212 7.93826ZM11.9191 9.19952C11.8995 8.76765 11.63 8.53208 11.2869 8.53208C11.1 8.52848 10.9185 8.59493 10.778 8.7184C10.6375 8.84188 10.5481 9.01346 10.5273 9.19952H11.9191ZM13.3796 11.1871H14.1735V9.72463C14.1693 9.5836 14.1875 9.44281 14.2274 9.30749C14.2765 9.12038 14.3866 8.95505 14.5402 8.8377C14.6937 8.72035 14.882 8.6577 15.0752 8.65968C15.4722 8.65968 15.58 8.9296 15.58 9.30749V11.1675H16.3543V9.13081C16.3543 8.2818 15.9574 7.91863 15.2517 7.91863C15.0218 7.91474 14.7955 7.97514 14.5981 8.09306C14.4007 8.21097 14.2401 8.38171 14.1343 8.58607H14.1196C14.1295 8.51452 14.1344 8.44237 14.1343 8.37013V8.00697H13.3796V11.1871ZM2 15.6138C2.33264 15.9223 2.7719 16.0894 3.22519 16.08C3.98481 16.08 4.43568 15.6481 4.43568 15.123C4.43568 14.112 2.90174 14.166 2.90174 13.7145C2.90174 13.5182 3.09777 13.425 3.2987 13.425C3.58058 13.4203 3.85495 13.516 4.07302 13.6949L4.36217 13.1207C4.06781 12.8667 3.68672 12.7365 3.2987 12.7575C2.61259 12.7575 2.08821 13.1011 2.08821 13.6949C2.08821 14.7108 3.62215 14.6519 3.62215 15.123C3.62215 15.3046 3.42612 15.4125 3.21049 15.4125C2.88911 15.4082 2.58048 15.286 2.34305 15.069L2 15.6138ZM6.43519 12.7575C7.35653 12.7575 7.84171 13.425 7.84171 14.2593C7.84171 14.3476 7.8221 14.5635 7.8221 14.5635H5.64126C5.65888 14.8018 5.76856 15.0237 5.94701 15.1823C6.12546 15.3408 6.35861 15.4234 6.59691 15.4125C6.93225 15.3969 7.25434 15.2768 7.51826 15.069L7.8221 15.6285C7.46169 15.9243 7.00901 16.0841 6.543 16.08C6.11349 16.0986 5.69416 15.9457 5.37714 15.655C5.06011 15.3642 4.87132 14.9593 4.85224 14.5292C4.84816 14.4933 4.84653 14.4573 4.84734 14.4212C4.83264 13.4446 5.49914 12.7575 6.43519 12.7575ZM7.04778 14.0237C7.03308 13.5869 6.75864 13.3563 6.41558 13.3563C6.2289 13.3516 6.04737 13.4178 5.9074 13.5416C5.76742 13.6654 5.67936 13.8376 5.66087 14.0237H7.04778ZM8.50821 12.8311V16.0064H9.30213V14.7451C9.2973 14.5672 9.32214 14.3897 9.37564 14.22C9.4272 14.0289 9.54002 13.8601 9.69675 13.7395C9.85348 13.6189 10.0454 13.5532 10.2431 13.5526C10.3025 13.5518 10.3617 13.5584 10.4195 13.5722V12.7968C10.3735 12.7827 10.3255 12.7761 10.2774 12.7772C10.0447 12.7862 9.82111 12.8697 9.63939 13.0155C9.45767 13.1612 9.32743 13.3615 9.26783 13.5869H9.24822C9.26225 13.5158 9.26882 13.4434 9.26783 13.371V12.8311H8.50821ZM11.6643 16.0064H12.6052L13.7373 12.8311H12.9091L12.2426 14.7991C12.1887 14.9954 12.1348 15.2849 12.1348 15.2849H12.1152C12.1152 15.2849 12.0613 14.9807 12.0074 14.7991L11.3408 12.8311H10.5126L11.6643 16.0064ZM14.1735 11.5846H14.9478V12.2864H14.1735V11.5846ZM14.1735 12.8311H14.9674V16.0064H14.1735V12.8311ZM17.31 12.7575C16.2612 12.7575 15.5947 13.5182 15.6339 14.4212C15.6731 15.3242 16.3004 16.08 17.3443 16.08C17.585 16.0856 17.8244 16.0419 18.0477 15.9516C18.271 15.8613 18.4736 15.7263 18.643 15.5549L18.3391 14.9954C18.0835 15.237 17.7494 15.3781 17.3982 15.3929H17.3247C17.072 15.3827 16.8337 15.2726 16.662 15.0868C16.4902 14.901 16.399 14.6546 16.4082 14.4016V14.3329C16.4159 14.086 16.5206 13.8521 16.6996 13.6821C16.8785 13.5121 17.1173 13.4197 17.3639 13.425C17.6736 13.4296 17.9698 13.5525 18.1921 13.7685L18.5352 13.2287C18.3746 13.0695 18.1828 12.9454 17.9719 12.8643C17.761 12.7832 17.5356 12.7469 17.31 12.7575ZM20.5935 12.7575C21.5099 12.7575 22 13.425 22 14.2593C22 14.3476 21.9804 14.5635 21.9804 14.5635H19.7996C19.816 14.8022 19.9253 15.0249 20.104 15.1837C20.2827 15.3425 20.5166 15.4247 20.7552 15.4125C21.0891 15.3968 21.4096 15.2767 21.6716 15.069L21.9804 15.6285C21.6196 15.9236 21.1672 16.0833 20.7013 16.08C20.4882 16.0899 20.2753 16.0576 20.0747 15.985C19.8741 15.9123 19.6898 15.8008 19.5323 15.6568C19.3748 15.5127 19.2472 15.339 19.1568 15.1455C19.0664 14.952 19.0151 14.7426 19.0056 14.5292V14.4212C18.986 13.4446 19.6525 12.7575 20.5935 12.7575ZM21.2061 14.0237C21.1865 13.5869 20.9169 13.3563 20.5739 13.3563C20.3867 13.3515 20.2045 13.4176 20.0638 13.5413C19.923 13.6649 19.8339 13.8372 19.8143 14.0237H21.2061Z" fill="white"/>
</svg>
