<svg xmlns="http://www.w3.org/2000/svg" width="24" height="24" viewBox="0 0 24 24" fill="none"><rect width="24" height="24" fill="none"/>
<path fill-rule="evenodd" clip-rule="evenodd" d="M7.97336 2H16.0267C18.1176 2 19.163 2 19.9616 2.40691C20.6641 2.76484 21.2352 3.33597 21.5932 4.03844C22.0001 4.83705 22.0001 5.88249 22.0001 7.97336V16.0267C22.0001 18.1176 22.0001 19.163 21.5932 19.9616C21.2352 20.6641 20.6641 21.2352 19.9616 21.5932C19.163 22.0001 18.1176 22.0001 16.0267 22.0001H7.97336C5.88249 22.0001 4.83705 22.0001 4.03844 21.5932C3.33597 21.2352 2.76484 20.6641 2.40691 19.9616C2 19.163 2 18.1176 2 16.0267V7.97336C2 5.88249 2 4.83705 2.40691 4.03844C2.76484 3.33597 3.33597 2.76484 4.03844 2.40691C4.83705 2 5.88249 2 7.97336 2ZM10.9059 18.4726L17.7978 7.85632C17.9365 7.64268 18.0058 7.53586 17.9997 7.44747C17.9944 7.37045 17.9558 7.29954 17.894 7.2532C17.823 7.20002 17.6955 7.20002 17.4405 7.20002H13.9436C13.6908 7.20002 13.5644 7.20002 13.4499 7.23512C13.3485 7.2662 13.2544 7.31712 13.1729 7.38492C13.0809 7.46151 13.0119 7.56723 12.8738 7.77868L8.49982 14.4756C8.33558 14.7271 8.25346 14.8528 8.22141 14.9884C8.19307 15.1082 8.19292 15.2329 8.22096 15.3528C8.25269 15.4884 8.3345 15.6144 8.49813 15.8662L10.1915 18.4727C10.3105 18.656 10.37 18.7476 10.4456 18.7793C10.5116 18.807 10.5859 18.807 10.6519 18.7793C10.7274 18.7475 10.7869 18.6559 10.9059 18.4726ZM6.19704 7.8492L8.30181 11.1377C8.41926 11.3213 8.47799 11.413 8.55322 11.4452C8.61895 11.4733 8.69332 11.4739 8.75949 11.4468C8.83521 11.4158 8.89538 11.325 9.01571 11.1433L11.1939 7.85475C11.3349 7.64186 11.4054 7.53542 11.3997 7.44724C11.3948 7.37041 11.3564 7.29954 11.2945 7.25321C11.2235 7.20002 11.0952 7.20002 10.8387 7.20002H6.5558C6.30342 7.20002 6.17723 7.20002 6.10652 7.25246C6.04489 7.29817 6.00621 7.36816 6.00047 7.44435C5.99389 7.53178 6.0616 7.63759 6.19704 7.8492Z" fill="#FFCB00"/>
<path d="M8.30181 11.1377L6.19704 7.8492C6.0616 7.63759 5.99389 7.53178 6.00047 7.44435C6.00621 7.36816 6.04489 7.29817 6.10652 7.25246C6.17723 7.20002 6.30342 7.20002 6.5558 7.20002H10.8387C11.0952 7.20002 11.2235 7.20002 11.2945 7.25321C11.3564 7.29954 11.3948 7.37041 11.3997 7.44724C11.4054 7.53542 11.3349 7.64186 11.1939 7.85475L9.01571 11.1433C8.89538 11.325 8.83521 11.4158 8.75949 11.4468C8.69332 11.4739 8.61895 11.4733 8.55322 11.4452C8.47799 11.413 8.41926 11.3213 8.30181 11.1377Z" fill="black"/>
<path d="M17.7978 7.85632L10.9059 18.4726C10.7869 18.6559 10.7274 18.7475 10.6519 18.7793C10.5859 18.807 10.5116 18.807 10.4456 18.7793C10.37 18.7476 10.3105 18.656 10.1915 18.4727L8.49813 15.8662C8.3345 15.6144 8.25269 15.4884 8.22096 15.3528C8.19292 15.2329 8.19307 15.1082 8.22141 14.9884C8.25346 14.8528 8.33558 14.7271 8.49982 14.4756L12.8738 7.77868C13.0119 7.56723 13.0809 7.46151 13.1729 7.38492C13.2544 7.31712 13.3485 7.2662 13.4499 7.23512C13.5644 7.20002 13.6908 7.20002 13.9436 7.20002H17.4405C17.6955 7.20002 17.823 7.20002 17.894 7.2532C17.9558 7.29954 17.9944 7.37045 17.9997 7.44747C18.0058 7.53586 17.9365 7.64268 17.7978 7.85632Z" fill="black"/>
</svg>
