<svg xmlns="http://www.w3.org/2000/svg" width="24" height="24" viewBox="0 0 24 24" fill="none"><rect width="24" height="24" fill="none"/>
<path d="M3.12009 11.3165C3.46618 11.5116 3.8563 11.606 4.29054 11.606C4.71844 11.606 5.10859 11.5116 5.46099 11.3165C5.80708 11.1277 6.07765 10.8571 6.27903 10.5173C6.48039 10.1775 6.58108 9.80001 6.58108 9.37207C6.58108 8.95047 6.48039 8.56662 6.27903 8.22681C6.07767 7.88701 5.80709 7.62272 5.46099 7.42764C5.1086 7.23887 4.71848 7.13818 4.29054 7.13818C3.85635 7.13818 3.4662 7.23887 3.12009 7.43393C2.76771 7.62901 2.49713 7.89329 2.29575 8.2331C2.09439 8.57289 2 8.95672 2 9.37207C2 9.79367 2.09439 10.1712 2.29575 10.511C2.49711 10.8508 2.76769 11.1214 3.12009 11.3165ZM5.29102 11.0585C4.98897 11.2284 4.65547 11.3102 4.29048 11.3102C3.91922 11.3102 3.58568 11.2284 3.28364 11.0585C2.9816 10.8949 2.74877 10.6621 2.57884 10.3663C2.40265 10.0705 2.32084 9.73704 2.32084 9.37205C2.32084 9.00708 2.40265 8.67984 2.57884 8.3841C2.74874 8.08835 2.98156 7.85552 3.28364 7.68559C3.58569 7.52198 3.91919 7.43389 4.29048 7.43389C4.65545 7.43389 4.98898 7.52198 5.29102 7.68559C5.58677 7.85549 5.81959 8.08832 5.99582 8.3841C6.16571 8.67985 6.25381 9.00706 6.25381 9.37205C6.25381 9.73702 6.16572 10.0706 5.99582 10.3663C5.81962 10.662 5.5868 10.8949 5.29102 11.0585Z" fill="#F4F6CA"/>
<path d="M10.5763 7.56639C10.2617 7.30211 9.82755 7.16996 9.27377 7.16996H7.69433V7.45942H9.27377C9.73942 7.45942 10.0981 7.56639 10.3498 7.77405C10.5952 7.98171 10.721 8.27746 10.721 8.65499C10.721 9.03884 10.5952 9.33461 10.3498 9.53592C10.0981 9.74358 9.73941 9.84426 9.27377 9.84426H7.69433V11.5747H8.01525V10.1337H9.27377C9.82752 10.1337 10.2617 10.0079 10.5763 9.74357C10.891 9.47928 11.0483 9.12061 11.0483 8.65496C11.0483 8.1956 10.891 7.83066 10.5763 7.56639Z" fill="#F2E9AD"/>
<path d="M12.8266 7.45942V11.5748H13.1475V7.45942H14.7332V7.16996H11.2409V7.45942H12.8266Z" fill="#EFDD8F"/>
<path d="M6.16563 16.8304H6.48026L6.47396 12.4256H6.20968L4.24013 15.8299L2.27058 12.4256H2V16.8304H2.31463V13.0738L4.15834 16.2452H4.31565L6.15936 13.0612L6.16563 16.8304Z" fill="#EDD072"/>
<path d="M8.70812 16.5725C9.05421 16.7676 9.44433 16.862 9.87857 16.862C10.3065 16.862 10.6966 16.7676 11.049 16.5725C11.3951 16.3837 11.6657 16.1131 11.8671 15.7733C12.0684 15.4335 12.1691 15.056 12.1691 14.6281C12.1691 14.2065 12.0684 13.8226 11.8671 13.4828C11.6657 13.143 11.3951 12.8787 11.049 12.6836C10.6966 12.4949 10.3065 12.3942 9.87857 12.3942C9.44438 12.3942 9.05423 12.4949 8.70812 12.6899C8.35574 12.885 8.08516 13.1493 7.88378 13.4891C7.68242 13.8289 7.58803 14.2127 7.58803 14.6281C7.58803 15.0497 7.68242 15.4272 7.88378 15.767C8.08514 16.1068 8.35572 16.3774 8.70812 16.5725ZM10.8791 16.3145C10.577 16.4844 10.2435 16.5662 9.87851 16.5662C9.50725 16.5662 9.17371 16.4844 8.87167 16.3145C8.56962 16.1509 8.3368 15.9181 8.16687 15.6223C7.99068 15.3265 7.90887 14.993 7.90887 14.628C7.90887 14.2631 7.99068 13.9358 8.16687 13.6401C8.33677 13.3443 8.56959 13.1115 8.87167 12.9416C9.17371 12.778 9.50722 12.6899 9.87851 12.6899C10.2435 12.6899 10.577 12.778 10.8791 12.9416C11.1748 13.1115 11.4076 13.3443 11.5838 13.6401C11.7537 13.9358 11.8418 14.2631 11.8418 14.628C11.8418 14.993 11.7538 15.3265 11.5838 15.6223C11.4077 15.918 11.1748 16.1509 10.8791 16.3145Z" fill="#EBC354"/>
<path d="M16.869 12.4258H16.548V16.2517L13.5528 12.4258H13.2822V16.8306H13.6031V13.0047L16.6047 16.8306H16.869V12.4258Z" fill="#E8B736"/>
<path d="M19.7158 14.6596L21.6099 16.8305H22L19.9297 14.4267L21.8679 12.4257H21.4777L18.7278 15.2574V12.4257H18.4069V16.8305H18.7278V15.6727L19.7158 14.6596Z" fill="#E6AA19"/>
</svg>
