<svg xmlns="http://www.w3.org/2000/svg" width="24" height="24" viewBox="0 0 24 24" fill="none"><rect width="24" height="24" fill="none"/>
<path d="M22.001 12.0004C22.001 12.1193 21.999 12.2378 21.9948 12.3557C21.8077 17.7032 17.4137 21.9809 12.0206 21.9809C6.50851 21.9809 2.0401 17.5125 2.0401 12.0004C2.0401 6.48835 6.50851 2.01994 12.0206 2.01994C16.8665 2.01994 20.9058 5.47361 21.8113 10.0538C21.9358 10.6834 22.001 11.3343 22.001 12.0004Z" fill="#C4C4C4"/>
<path d="M22.0001 12C22.0001 16.609 18.8821 20.4897 14.6403 21.6478C13.8997 21.85 13.1249 21.9692 12.3264 21.9948C12.2181 21.9983 12.1093 22 12.0001 22C10.9505 22 9.9387 21.8383 8.98819 21.5384C8.25721 21.3078 7.5625 20.9955 6.91477 20.6122C6.09579 20.1276 5.35192 19.5295 4.70481 18.8395C4.1783 18.2781 3.71584 17.656 3.3291 16.9847C2.48372 15.5173 2.00012 13.8151 2.00012 12C2.00012 6.47715 6.47728 2 12.0001 2C12.2814 2 12.5599 2.01161 12.8353 2.03438C14.2322 2.14989 15.5477 2.5525 16.7225 3.18307C19.8639 4.86916 22.0001 8.18512 22.0001 12Z" fill="#C4C4C4"/>
<path d="M22.0001 12C22.0001 16.609 18.8821 20.4897 14.6403 21.6478C13.8997 21.85 13.1249 21.9692 12.3264 21.9948C12.2181 21.9983 12.1093 22 12.0001 22C10.9505 22 9.9387 21.8383 8.98819 21.5384C8.25721 21.3078 7.5625 20.9955 6.91477 20.6122C6.09579 20.1276 5.35192 19.5295 4.70481 18.8395C4.1783 18.2781 3.71584 17.656 3.3291 16.9847C2.48372 15.5173 2.00012 13.8151 2.00012 12C2.00012 6.47715 6.47728 2 12.0001 2C12.2814 2 12.5599 2.01161 12.8353 2.03438C14.2322 2.14989 15.5477 2.5525 16.7225 3.18307C19.8639 4.86916 22.0001 8.18512 22.0001 12Z" fill="#C4C4C4"/>
<path d="M22.0001 12C22.0001 16.609 18.8821 20.4897 14.6403 21.6478C13.8997 21.85 13.1249 21.9692 12.3264 21.9948C12.2181 21.9983 12.1093 22 12.0001 22C10.9505 22 9.9387 21.8383 8.98819 21.5384C8.25721 21.3078 7.5625 20.9955 6.91477 20.6122C6.09579 20.1276 5.35192 19.5295 4.70481 18.8395C4.1783 18.2781 3.71584 17.656 3.3291 16.9847C2.48372 15.5173 2.00012 13.8151 2.00012 12C2.00012 6.47715 6.47728 2 12.0001 2C12.2814 2 12.5599 2.01161 12.8353 2.03438C14.2322 2.14989 15.5477 2.5525 16.7225 3.18307C19.8639 4.86916 22.0001 8.18512 22.0001 12Z" fill="#FFF500"/>
<path fill-rule="evenodd" clip-rule="evenodd" d="M13.0344 15.7159L12.3264 21.9948C13.1249 21.9692 13.8997 21.85 14.6403 21.6478L15.4097 14.8252L21.9948 12.3557C21.999 12.2378 22.001 12.1193 22.001 12.0004C22.001 11.3343 21.9358 10.6834 21.8113 10.0538L15.6888 12.3498L16.7225 3.18307C15.5477 2.5525 14.2322 2.14989 12.8353 2.03438L8.71443 14.9652L3.3291 16.9847C3.71584 17.656 4.1783 18.2781 4.70481 18.8395L7.85635 17.6577L6.91477 20.6122C7.5625 20.9955 8.25721 21.3078 8.98819 21.5384L10.5464 16.6489L13.0344 15.7159ZM11.4045 13.9564L14.234 5.07775L13.3136 13.2405L11.4045 13.9564Z" fill="black"/>
</svg>
