<svg xmlns="http://www.w3.org/2000/svg" width="72" height="24" viewBox="0 0 72 24" fill="none"><rect width="72" height="24" fill="none"/>
<path d="M10.6909 18.1755L8.70852 13.8488H7.36256L10.0185 19.6174C9.88011 19.9571 9.70132 20.2789 9.48601 20.5759C9.44127 20.6382 9.3836 20.69 9.31697 20.7279C9.25034 20.7658 9.17631 20.7889 9.09993 20.7956C8.93041 20.8046 8.76085 20.7783 8.60202 20.7184L8.1933 20.5213V21.8234L8.45957 21.8992C8.66583 21.9722 8.88391 22.0061 9.10259 21.9991C9.33511 21.997 9.56435 21.944 9.77413 21.8437C9.98392 21.7434 10.1692 21.5983 10.3168 21.4186C10.6216 21.0765 10.9305 20.5573 11.262 19.829L13.9819 13.8488H12.6506L10.6909 18.1755Z" fill="#22225C"/>
<path d="M18.314 16.8056H17.1158C15.9176 16.8056 15.7659 16.2425 15.7659 15.7512V13.8488H14.5397V15.7525C14.5397 16.7803 14.987 18.0051 17.1225 18.0051H18.3207V19.7279H19.5548V13.8488H18.3207L18.314 16.8056Z" fill="#22225C"/>
<path d="M33.7493 13.7422C33.4626 13.7409 33.1776 13.7859 32.9053 13.8754C32.6874 13.9438 32.4813 14.0453 32.2942 14.1763C32.1478 14.2883 32.0166 14.419 31.9041 14.565L31.8881 14.585C31.7807 14.444 31.6604 14.3134 31.5287 14.1949C31.3584 14.0524 31.1635 13.9423 30.9536 13.8701C30.4794 13.7121 29.9682 13.7037 29.4891 13.8461C29.2848 13.9012 29.0903 13.9879 28.9126 14.103L28.8501 14.1496V13.8488H27.6159V19.7279H28.8501V16.5327C28.8501 16.0002 28.9566 15.5848 29.1683 15.3092C29.3799 15.0336 29.6542 14.9298 30.0523 14.9298C30.6154 14.9298 31.2598 15.1108 31.2598 16.5274V19.7225H32.4939V16.5274C32.4939 15.9948 32.6017 15.5835 32.8147 15.3079C33.0278 15.0323 33.306 14.9245 33.7081 14.9245C34.1101 14.9245 34.407 15.0469 34.5974 15.2919C34.8051 15.5582 34.9102 15.9869 34.9102 16.5593V19.7159H36.143V16.4435C36.143 15.5781 35.9354 14.9058 35.524 14.4465C35.1126 13.9872 34.5082 13.7422 33.7493 13.7422Z" fill="#22225C"/>
<path d="M9.99994 11.2207H10.4073C11.1746 11.2158 11.9085 10.9065 12.448 10.3609C12.9874 9.8152 13.2882 9.07774 13.2843 8.31046V8.01491C13.2878 7.24773 12.9869 6.51048 12.4476 5.96488C11.9082 5.41929 11.1745 5.10992 10.4073 5.10464H9.99994C9.66543 5.10413 9.33356 5.16365 9.02008 5.28037L10.0851 2.95855H8.62069L8.07085 4.17804C7.91626 3.55601 7.55792 3.00361 7.05293 2.60888C6.54794 2.21415 5.92536 1.99981 5.2844 2H4.87701C4.10996 2.00563 3.37642 2.31511 2.83714 2.86063C2.29787 3.40615 1.99684 4.1432 2.00003 4.91027V5.20582C1.99649 5.973 2.2974 6.71025 2.83675 7.25584C3.3761 7.80143 4.10985 8.11081 4.87701 8.11609H5.2844C5.66546 8.11676 6.04272 8.04022 6.39339 7.89109L4.89166 11.2194H6.2962L7.24543 9.15052C7.42244 9.74502 7.78558 10.267 8.28144 10.6397C8.77729 11.0123 9.37967 11.216 9.99994 11.2207ZM8.3704 8.06816C8.36827 7.61371 8.54649 7.17698 8.86596 6.85377C9.18542 6.53056 9.62005 6.34727 10.0745 6.3441H10.3408C10.7939 6.34937 11.2266 6.53354 11.5446 6.85649C11.8626 7.17943 12.04 7.61496 12.0382 8.06816V8.25721C12.0399 8.48274 11.9973 8.70641 11.9126 8.91545C11.8279 9.12449 11.7028 9.3148 11.5446 9.47551C11.3864 9.63622 11.198 9.76419 10.9903 9.85211C10.7826 9.94003 10.5596 9.98618 10.3341 9.98792H10.0678C9.84225 9.98636 9.61918 9.94033 9.41141 9.85247C9.20363 9.76461 9.01521 9.63664 8.85694 9.4759C8.69866 9.31515 8.57363 9.12477 8.48901 8.91565C8.40438 8.70654 8.36181 8.48279 8.36374 8.25721L8.3704 8.06816ZM6.91527 5.15257C6.91702 5.3781 6.87433 5.60177 6.78964 5.81081C6.70495 6.01985 6.57992 6.21016 6.42168 6.37087C6.26344 6.53158 6.07509 6.65955 5.86739 6.74747C5.65969 6.83539 5.43671 6.88154 5.21118 6.88328H4.94491C4.71944 6.88154 4.49652 6.83538 4.28889 6.74745C4.08127 6.65951 3.89301 6.53152 3.73488 6.37079C3.57674 6.21006 3.45183 6.01974 3.36729 5.81071C3.28274 5.60168 3.24022 5.37804 3.24215 5.15257V4.96352C3.23861 4.50826 3.41597 4.07022 3.73527 3.74569C4.05456 3.42115 4.48966 3.23667 4.94491 3.2328H5.21118C5.43671 3.23454 5.65969 3.28069 5.86739 3.36861C6.07509 3.45653 6.26344 3.5845 6.42168 3.74522C6.57992 3.90593 6.70495 4.09624 6.78964 4.30528C6.87433 4.51431 6.91702 4.73799 6.91527 4.96352V5.15257Z" fill="#22225C"/>
<path d="M23.6499 11.25C24.5353 11.25 25.2622 10.9838 25.808 10.4685C26.0819 10.2087 26.2977 9.89378 26.4411 9.54453C26.5845 9.19528 26.6523 8.81961 26.6401 8.44226C26.6519 8.06912 26.5871 7.69751 26.4497 7.35038C26.3124 7.00325 26.1053 6.68796 25.8413 6.42398C25.5693 6.16216 25.2477 5.95742 24.8953 5.82183C24.543 5.68625 24.1671 5.62255 23.7897 5.63451C23.444 5.63133 23.0998 5.68025 22.7686 5.77962C22.5022 5.85476 22.2496 5.97207 22.0204 6.12709C21.9818 6.15505 21.9432 6.18301 21.9046 6.21496C21.9739 6.03721 22.0632 5.86792 22.1708 5.71039C22.3284 5.48473 22.5448 5.30655 22.7966 5.19517C23.1166 5.05539 23.4632 4.98723 23.8124 4.99547C24.6032 4.99547 25.1636 4.84237 25.5284 4.52818C25.7074 4.37548 25.8499 4.18467 25.9455 3.96974C26.0411 3.75481 26.0874 3.5212 26.0809 3.28606V2.99317H24.8268V3.28073C24.83 3.33164 24.8206 3.38254 24.7994 3.42897C24.7783 3.47539 24.7461 3.51592 24.7057 3.54699C24.5885 3.64418 24.3196 3.75867 23.7019 3.75867C22.6861 3.75867 21.8913 4.09417 21.3428 4.7545C20.7942 5.41484 20.5293 6.24691 20.5293 7.25872V7.72468C20.5293 8.75778 20.8156 9.60983 21.3787 10.2542C21.9418 10.8985 22.7153 11.25 23.6499 11.25ZM22.4291 7.32528C22.7626 7.01475 23.2051 6.84828 23.6606 6.86198C24.1931 6.86198 24.6125 7.00976 24.928 7.3133C25.0784 7.46004 25.1967 7.63636 25.2756 7.83113C25.3544 8.0259 25.392 8.23489 25.386 8.44492C25.3927 8.65485 25.3554 8.86385 25.2765 9.05851C25.1977 9.25317 25.0789 9.42917 24.928 9.57521C24.6151 9.88275 24.2011 10.0332 23.6606 10.0332C23.2034 10.0472 22.7592 9.87971 22.4251 9.56723C22.2658 9.42781 22.1393 9.25491 22.0546 9.06089C21.9699 8.86688 21.9291 8.65654 21.9352 8.44492C21.9319 8.23372 21.9743 8.0243 22.0596 7.83104C22.1449 7.63778 22.2709 7.46525 22.4291 7.32528Z" fill="#22225C"/>
<path d="M39.0333 11.1435H40.2568V5.2644H38.8962L36.0219 9.28232V5.2644H34.7997V11.1435H36.1604L39.0333 7.13091V11.1435Z" fill="#22225C"/>
<path d="M47.1504 5.2644H45.3851L42.7371 7.53962V5.2644H41.5029V11.1448H42.7371V8.80704L45.6034 11.1448H47.3914L43.7835 8.16801L47.1504 5.2644Z" fill="#22225C"/>
<path d="M24.9719 18.085C24.8601 18.1956 24.7349 18.2918 24.5992 18.3712C24.4678 18.4507 24.3243 18.5083 24.1745 18.5417C23.9878 18.589 23.7959 18.6127 23.6033 18.6122C23.3456 18.6149 23.0897 18.5698 22.8485 18.4791C22.6528 18.4106 22.4736 18.3017 22.3226 18.1596C22.1974 18.0344 22.0891 17.8934 22.0004 17.7402C21.9516 17.6587 21.9072 17.5748 21.8673 17.4886H26.6148L26.6667 16.8069V16.7883C26.6667 15.8937 26.3725 15.1548 25.7907 14.5903C25.2089 14.0258 24.47 13.7436 23.5834 13.7436C22.6967 13.7436 21.9538 14.0285 21.3747 14.5903C20.7956 15.1521 20.4947 15.8977 20.4947 16.7883C20.4947 17.679 20.7903 18.4192 21.3747 18.9863C21.9592 19.5535 22.706 19.833 23.6047 19.833C23.9712 19.8363 24.3357 19.7782 24.683 19.6613C24.9675 19.5749 25.2369 19.4451 25.4818 19.2765C25.6711 19.1347 25.8443 18.9727 25.9984 18.7933C26.1103 18.67 26.2101 18.5362 26.2966 18.3939C26.331 18.333 26.3613 18.2698 26.3871 18.2048L26.4337 18.0863L24.9719 18.085ZM22.2441 15.4943C22.5596 15.1388 22.9963 14.9617 23.582 14.9617C24.1678 14.9617 24.6045 15.1335 24.9134 15.4943C25.1238 15.7168 25.2769 15.9874 25.3593 16.2824H21.7941C21.8781 15.9872 22.0326 15.7167 22.2441 15.4943Z" fill="#22225C"/>
<path d="M43.0712 18.6202C43.0222 18.6301 42.9722 18.6345 42.9221 18.6335C42.801 18.6335 42.765 18.6042 42.7557 18.5909C42.7464 18.5776 42.6958 18.5057 42.6958 18.2288V15.9895C42.6958 15.2546 42.4295 14.6835 41.897 14.2934C41.3511 13.9143 40.6975 13.721 40.0332 13.7422C39.2144 13.7422 38.5687 13.9313 38.1001 14.3067C37.6315 14.6822 37.3719 15.1495 37.3506 15.6713V15.8045H38.5887V15.6886C38.5887 15.5076 38.7112 15.3505 38.9654 15.2094C39.3008 15.0301 39.677 14.9411 40.0571 14.9511C40.4292 14.9364 40.7968 15.0364 41.1102 15.2373C41.2307 15.3219 41.3274 15.4359 41.3913 15.5686C41.4552 15.7012 41.484 15.8479 41.475 15.9948V16.4728C41.2894 16.3954 41.0991 16.33 40.9052 16.2771C40.5385 16.1776 40.1601 16.1279 39.7802 16.1293C39.0373 16.1293 38.4076 16.2771 37.9084 16.57C37.6511 16.7073 37.4371 16.9135 37.2904 17.1656C37.1436 17.4177 37.07 17.7056 37.0776 17.9971C37.0658 18.2899 37.1385 18.5799 37.287 18.8325C37.4355 19.085 37.6535 19.2896 37.915 19.4217C38.4156 19.6972 39.0573 19.837 39.8228 19.837C40.2979 19.8521 40.7708 19.7658 41.21 19.5841C41.3603 19.5214 41.5051 19.4461 41.6427 19.3591L41.7373 19.3032C41.7909 19.3681 41.8478 19.4303 41.9077 19.4896C42.106 19.6986 42.4149 19.8064 42.8249 19.8064C43.0157 19.8152 43.2058 19.7791 43.3801 19.7012L43.5385 19.6214V18.2421L43.0712 18.6202ZM41.463 18.1769L41.3658 18.2514C41.1931 18.3504 41.0095 18.429 40.8186 18.4857C40.5211 18.5866 40.2088 18.6365 39.8947 18.6335C38.8496 18.6335 38.3211 18.4178 38.3211 17.9918C38.3188 17.925 38.3329 17.8587 38.3622 17.7986C38.3914 17.7385 38.4349 17.6865 38.4888 17.647C38.7551 17.4313 39.233 17.3235 39.8947 17.3235C40.2097 17.3206 40.5235 17.3628 40.8266 17.4486C41.0223 17.4979 41.2121 17.5685 41.3924 17.659L41.463 17.7056V18.1769Z" fill="#22225C"/>
<path d="M52.7353 10.0385C52.6862 10.0482 52.6362 10.0527 52.5862 10.0518C52.4637 10.0518 52.4291 10.0212 52.4184 10.0092C52.3661 9.89616 52.3459 9.7709 52.3599 9.6471V7.40649C52.3599 6.6716 52.0936 6.1018 51.5611 5.71039C51.0131 5.33011 50.3571 5.13681 49.6906 5.15922C48.8731 5.15922 48.2261 5.3496 47.7588 5.7237C47.2915 6.0978 47.0306 6.56776 47.0093 7.08831V7.22144H48.2474V7.10428C48.2474 6.92322 48.3712 6.76746 48.6242 6.62634C48.9598 6.44641 49.3365 6.35694 49.7172 6.36673C50.0891 6.35294 50.4565 6.45279 50.7703 6.65297C50.8884 6.73825 50.983 6.85211 51.0452 6.98389C51.1073 7.11568 51.135 7.26108 51.1257 7.40649V7.88444C50.94 7.80764 50.7497 7.74228 50.5559 7.68873C50.1895 7.59029 49.8117 7.54104 49.4323 7.54229C48.6894 7.54229 48.0584 7.69006 47.5604 7.98295C47.3037 8.12042 47.0903 8.32658 46.9441 8.57839C46.7979 8.83019 46.7245 9.11771 46.7324 9.4088C46.7208 9.70169 46.7936 9.99174 46.942 10.2445C47.0905 10.4972 47.3083 10.7021 47.5698 10.8346C48.069 11.1102 48.7107 11.25 49.4762 11.25C49.9501 11.2638 50.4215 11.1771 50.8595 10.9957C51.0096 10.9332 51.1543 10.8584 51.2921 10.7721L51.3853 10.7148C51.4391 10.7801 51.4964 10.8423 51.5571 10.9012C51.7541 11.1116 52.063 11.2181 52.4743 11.2181C52.6649 11.2263 52.8548 11.1908 53.0295 11.1142L53.1866 11.0343V9.65376L52.7353 10.0385ZM51.1257 9.59518L51.0299 9.66974C50.8564 9.76685 50.6729 9.84496 50.4827 9.90272C50.1849 10.0041 49.872 10.0545 49.5574 10.0518C48.5137 10.0518 47.9838 9.83482 47.9838 9.4088C47.9816 9.34201 47.9957 9.27567 48.0249 9.21558C48.0541 9.15548 48.0976 9.10344 48.1516 9.06399C48.4178 8.84964 48.8958 8.74048 49.5574 8.74048C49.8724 8.73838 50.1861 8.7805 50.4894 8.86562C50.6847 8.91527 50.874 8.98626 51.0538 9.0773C51.0831 9.09461 51.1058 9.11058 51.1244 9.12256L51.1257 9.59518Z" fill="#22225C"/>
<path d="M19.7372 10.0385C19.6881 10.0483 19.6381 10.0527 19.5881 10.0518C19.4656 10.0518 19.431 10.0212 19.4203 10.0092C19.368 9.89616 19.3477 9.7709 19.3617 9.64711V7.40649C19.3617 6.6716 19.0955 6.1018 18.563 5.71039C18.0169 5.33149 17.3634 5.13825 16.6991 5.15922C15.8817 5.15922 15.2347 5.3496 14.7674 5.7237C14.3001 6.0978 14.0391 6.56776 14.0178 7.08831V7.22144H15.2573V7.10428C15.2573 6.92322 15.3798 6.76746 15.6327 6.62634C15.9684 6.44641 16.345 6.35694 16.7257 6.36673C17.0977 6.35277 17.4651 6.45263 17.7788 6.65297C17.899 6.7377 17.9955 6.8518 18.0592 6.98441C18.1228 7.11701 18.1514 7.26369 18.1423 7.41049V7.88444C17.957 7.8074 17.7672 7.74204 17.5738 7.68873C17.2069 7.59039 16.8286 7.54114 16.4488 7.54229C15.7059 7.54229 15.0762 7.69006 14.577 7.98295C14.3198 8.12006 14.1058 8.32606 13.9591 8.5779C13.8124 8.82973 13.7387 9.11744 13.7462 9.4088C13.7347 9.70169 13.8075 9.99174 13.9559 10.2445C14.1043 10.4972 14.3222 10.7021 14.5836 10.8346C15.0842 11.1102 15.7246 11.25 16.4914 11.25C16.9666 11.2645 17.4395 11.1779 17.8787 10.9957C18.0288 10.9332 18.1735 10.8584 18.3113 10.7721L18.4059 10.7148C18.4588 10.7804 18.5157 10.8426 18.5763 10.9012C18.7746 11.1116 19.0822 11.2181 19.4935 11.2181C19.6841 11.2265 19.8741 11.191 20.0487 11.1142L20.2058 11.0343V9.65376L19.7372 10.0385ZM18.1276 9.59518L18.0318 9.66974C17.8583 9.76685 17.6748 9.84496 17.4846 9.90272C17.1846 10.0049 16.8695 10.0553 16.5527 10.0518C15.5089 10.0518 14.979 9.83482 14.979 9.4088C14.9767 9.34185 14.9909 9.27536 15.0204 9.21522C15.0499 9.15507 15.0938 9.10313 15.1481 9.06399C15.4144 8.84964 15.891 8.74048 16.5527 8.74048C16.8676 8.73829 17.1814 8.78042 17.4846 8.86562C17.6802 8.91571 17.8699 8.98668 18.0504 9.0773L18.1196 9.12256L18.1276 9.59518Z" fill="#22225C"/>
<path d="M32.9026 6.01127C32.6169 5.73194 32.2782 5.51264 31.9064 5.3663C31.5346 5.21997 31.1373 5.14956 30.7379 5.15922C30.0529 5.12866 29.3806 5.35087 28.8487 5.78361V5.2644H27.6146V13.0673H28.8487V10.6349C29.3467 11.0516 29.9804 11.2593 30.7352 11.25C31.1355 11.2599 31.5337 11.1894 31.9063 11.0426C32.2788 10.8958 32.6181 10.6757 32.9039 10.3953C33.4764 9.82817 33.7666 9.09061 33.7666 8.20395C33.7791 7.79895 33.7089 7.39566 33.5603 7.01868C33.4118 6.6417 33.188 6.29893 32.9026 6.01127ZM32.008 9.50998C31.8356 9.68607 31.6277 9.82354 31.3982 9.91328C31.1687 10.003 30.9228 10.043 30.6766 10.0305C30.4337 10.0419 30.191 10.0024 29.9642 9.91469C29.7374 9.82694 29.5314 9.69282 29.3593 9.5209C29.1873 9.34899 29.053 9.14306 28.9651 8.9163C28.8772 8.68953 28.8375 8.44691 28.8487 8.20395C28.8382 7.96149 28.878 7.71948 28.9655 7.49312C29.053 7.26676 29.1864 7.06095 29.3573 6.88861C29.5331 6.71814 29.7418 6.58543 29.9708 6.49865C30.1997 6.41188 30.444 6.37288 30.6886 6.38404C30.9343 6.37149 31.1798 6.41089 31.4092 6.49967C31.6386 6.58845 31.8467 6.72461 32.0199 6.89926C32.1872 7.07183 32.318 7.27625 32.4047 7.50038C32.4914 7.72451 32.5321 7.96377 32.5245 8.20395C32.5308 8.44521 32.4883 8.68526 32.3995 8.90968C32.3108 9.13411 32.1776 9.33829 32.008 9.50998Z" fill="#22225C"/>
<path d="M45.9575 15.8098C45.782 15.5663 45.6963 15.2694 45.7152 14.9697C45.7152 14.2481 46.037 13.8461 46.6804 13.7635L46.8136 13.7476C46.9028 13.7383 46.9733 13.7289 47.0279 13.7196C47.0841 13.7088 47.1396 13.6951 47.1943 13.6783V13.8807C47.1327 13.9019 47.0688 13.9162 47.004 13.9233L46.8708 13.9393C46.8114 13.9421 46.7523 13.9487 46.6938 13.9593C46.5806 13.9661 46.4705 13.9989 46.3719 14.0549C46.2734 14.111 46.189 14.189 46.1253 14.2828C46.0121 14.4854 45.9616 14.7171 45.9802 14.9484C46.0084 14.8614 46.0536 14.7808 46.1133 14.7114C46.1835 14.6331 46.2692 14.5701 46.3649 14.5264C46.4708 14.4791 46.5858 14.4555 46.7017 14.4572C46.8449 14.4536 46.9861 14.4904 47.1093 14.5634C47.2324 14.6364 47.3325 14.7426 47.398 14.8699C47.4643 14.9996 47.4981 15.1435 47.4965 15.2892C47.5003 15.4415 47.4641 15.5921 47.3914 15.7259C47.3224 15.848 47.2186 15.9468 47.0932 16.0095C46.956 16.0763 46.805 16.1097 46.6525 16.1067C46.5215 16.115 46.3904 16.0925 46.2697 16.0409C46.149 15.9894 46.0421 15.9102 45.9575 15.8098ZM47.0865 15.7379C47.1429 15.6787 47.1867 15.6086 47.2151 15.5319C47.2435 15.4552 47.2559 15.3736 47.2516 15.2919C47.2525 15.1831 47.2254 15.0758 47.173 14.9804C47.1217 14.8867 47.0458 14.8089 46.9534 14.7554C46.8566 14.7 46.7467 14.6715 46.6352 14.6728C46.5308 14.6735 46.4281 14.6991 46.3356 14.7474C46.2394 14.7958 46.157 14.8677 46.096 14.9564C46.0339 15.0448 46.0013 15.1506 46.0028 15.2586C46.0047 15.3536 46.0255 15.4473 46.064 15.5342C46.1124 15.6491 46.1952 15.7462 46.3011 15.8121C46.407 15.8779 46.5307 15.9092 46.6552 15.9016C46.7344 15.905 46.8135 15.8922 46.8876 15.864C46.9618 15.8359 47.0294 15.793 47.0865 15.7379Z" fill="#22225C"/>
<path d="M49.1181 14.3107H49.3844L48.543 16.2398C48.4956 16.3669 48.4152 16.479 48.31 16.5646C48.2086 16.6348 48.087 16.6699 47.9638 16.6645C47.9002 16.6642 47.837 16.6548 47.7761 16.6365C47.7207 16.6213 47.6674 16.5989 47.6177 16.57L47.6962 16.3902C47.775 16.4333 47.8634 16.4557 47.9532 16.4555C48.0273 16.4589 48.1003 16.4363 48.1595 16.3916C48.2229 16.3328 48.2729 16.2611 48.306 16.1812L48.3539 16.0707L47.5857 14.3107H47.852L48.4844 15.7938L49.1181 14.3107Z" fill="#22225C"/>
<path d="M50.4601 15.1708L51.1816 16.0747H50.8981L50.311 15.3438L49.7238 16.0747H49.4469L50.1712 15.1801L49.4802 14.316H49.7704L50.3176 15.0137L50.8661 14.316H51.1497L50.4601 15.1708Z" fill="#22225C"/>
<path d="M51.5371 16.0747V14.3107H52.7686V14.5064H51.7781V16.0747H51.5371Z" fill="#22225C"/>
<path d="M54.2796 14.4625C54.3457 14.5305 54.3967 14.6116 54.4295 14.7006C54.4623 14.7896 54.4761 14.8844 54.47 14.979V16.0747H54.2264V15.7419C54.1597 15.8475 54.0683 15.9352 53.9601 15.9975C53.8343 16.0725 53.6898 16.1104 53.5434 16.1067C53.3814 16.1149 53.2224 16.0611 53.0987 15.9562C53.0448 15.9069 53.0023 15.8465 52.974 15.7792C52.9457 15.7118 52.9324 15.6392 52.935 15.5662C52.9317 15.4898 52.9454 15.4136 52.9751 15.3432C53.0048 15.2727 53.0497 15.2097 53.1067 15.1588C53.2553 15.046 53.44 14.9915 53.6259 15.0057C53.8252 15.0067 54.0243 15.0182 54.2224 15.0403V14.9817C54.2271 14.9162 54.2176 14.8504 54.1946 14.7888C54.1717 14.7273 54.1357 14.6714 54.0892 14.6249C53.976 14.5358 53.8335 14.4926 53.6898 14.5038C53.5932 14.5039 53.4973 14.5206 53.4063 14.553C53.3125 14.5861 53.2251 14.6352 53.148 14.6981L53.0295 14.5144C53.1244 14.4337 53.2344 14.3726 53.353 14.3347C53.4708 14.2961 53.5939 14.2763 53.7178 14.2761C53.9223 14.2623 54.124 14.3292 54.2796 14.4625ZM53.9308 15.7938C54.0201 15.7418 54.0947 15.6681 54.1478 15.5795C54.1979 15.4962 54.225 15.4011 54.2264 15.3039V15.252C54.047 15.2254 53.8659 15.2125 53.6845 15.2134C53.3437 15.2134 53.1733 15.3265 53.1733 15.5555C53.1706 15.6027 53.18 15.6498 53.2005 15.6924C53.221 15.735 53.2519 15.7717 53.2905 15.7991C53.3896 15.8619 53.5061 15.8918 53.6233 15.8843C53.7321 15.8851 53.8388 15.8546 53.9308 15.7965V15.7938Z" fill="#22225C"/>
<path d="M56.3711 16.0747H56.1262V14.5064H55.2848L55.2661 15.4064C55.2695 15.5452 55.2488 15.6834 55.2049 15.8151C55.1771 15.9 55.1193 15.9719 55.0425 16.0175C54.9557 16.0587 54.8602 16.0783 54.7642 16.0747V15.891C54.8042 15.892 54.8437 15.8815 54.8779 15.8607C54.9121 15.84 54.9397 15.8098 54.9573 15.7738C55.0058 15.6507 55.0276 15.5186 55.0212 15.3864L55.0478 14.3107H56.3711V16.0747Z" fill="#22225C"/>
<path d="M56.7545 14.3107H58.2643V14.5357H57.6319V16.0747H57.3829V14.5357H56.7506L56.7545 14.3107Z" fill="#22225C"/>
<path d="M58.6583 15.2852C58.663 15.3678 58.6842 15.4485 58.7208 15.5227C58.7574 15.5968 58.8086 15.6627 58.8713 15.7166C59.0047 15.829 59.175 15.8878 59.3493 15.8817C59.4467 15.8863 59.5439 15.8696 59.6341 15.8325C59.7242 15.7955 59.8052 15.7391 59.8712 15.6673L60.0309 15.8098C59.945 15.902 59.8413 15.9758 59.7261 16.0268C59.6028 16.0793 59.47 16.1056 59.336 16.104C59.1695 16.1068 59.0052 16.0659 58.8594 15.9855C58.7212 15.9107 58.6068 15.7986 58.5292 15.662C58.4487 15.5182 58.4078 15.3555 58.4107 15.1907C58.4079 15.028 58.4464 14.8672 58.5225 14.7234C58.5977 14.5864 58.7104 14.4737 58.8474 14.3986C58.991 14.3188 59.1531 14.2784 59.3173 14.2814C59.4656 14.2788 59.6118 14.3161 59.7407 14.3893C59.864 14.4606 59.9646 14.5654 60.0309 14.6915C60.102 14.8297 60.1377 14.9834 60.1348 15.1388C60.1341 15.1879 60.1297 15.2368 60.1215 15.2852H58.6583ZM58.8687 14.6595C58.7508 14.7671 58.6772 14.9147 58.6623 15.0736H59.8898C59.8843 14.9143 59.8203 14.7626 59.7101 14.6475C59.6018 14.5473 59.4581 14.4941 59.3107 14.4998C59.1484 14.4948 58.9903 14.5519 58.8687 14.6595Z" fill="#22225C"/>
<path d="M61.9001 14.3986C62.0315 14.4769 62.1385 14.5903 62.209 14.7261C62.2833 14.8721 62.3221 15.0336 62.3221 15.1974C62.3221 15.3612 62.2833 15.5227 62.209 15.6687C62.138 15.8023 62.0316 15.9137 61.9014 15.9908C61.7692 16.0686 61.6182 16.1087 61.4648 16.1067C61.3208 16.1082 61.1785 16.0759 61.0494 16.0121C60.9272 15.9528 60.8239 15.8606 60.7512 15.7459V16.6352H60.5102V14.3107H60.7512V14.6475C60.8242 14.5326 60.928 14.4403 61.0507 14.3813C61.1795 14.3179 61.3213 14.2855 61.4648 14.2868C61.6174 14.2835 61.768 14.3221 61.9001 14.3986ZM61.767 15.7925C61.8661 15.7361 61.9469 15.6525 61.9999 15.5515C62.0573 15.4424 62.0861 15.3206 62.0838 15.1974C62.0863 15.0729 62.0574 14.9497 61.9999 14.8393C61.9474 14.7369 61.8665 14.6519 61.767 14.5943C61.6651 14.5352 61.5492 14.5048 61.4315 14.5064C61.3097 14.5045 61.1895 14.5343 61.0827 14.593C60.9822 14.65 60.8997 14.7339 60.8444 14.8353C60.7866 14.946 60.7565 15.0691 60.7565 15.1941C60.7565 15.319 60.7866 15.4421 60.8444 15.5528C60.9001 15.6545 60.9837 15.7381 61.0853 15.7938C61.1925 15.8514 61.3125 15.8807 61.4341 15.879C61.5498 15.8794 61.6636 15.8495 61.7643 15.7925H61.767Z" fill="#22225C"/>
<path d="M63.1076 15.9895C62.9693 15.9139 62.8545 15.8015 62.7761 15.6647C62.6966 15.5205 62.6549 15.3586 62.6549 15.1941C62.6549 15.0295 62.6966 14.8676 62.7761 14.7234C62.8545 14.5866 62.9693 14.4742 63.1076 14.3986C63.2524 14.3195 63.4152 14.2791 63.5802 14.2814C63.707 14.2809 63.8327 14.3048 63.9503 14.352C64.0668 14.3978 64.1711 14.4697 64.2552 14.5623L64.0795 14.7114C64.0161 14.6423 63.9384 14.5878 63.8518 14.5517C63.7642 14.5189 63.6712 14.5026 63.5776 14.5038C63.4565 14.5021 63.337 14.531 63.2301 14.5876C63.1284 14.6437 63.0444 14.7272 62.9878 14.8286C62.9303 14.9411 62.9003 15.0657 62.9003 15.1921C62.9003 15.3184 62.9303 15.443 62.9878 15.5555C63.0437 15.6579 63.1284 15.7416 63.2314 15.7965C63.3399 15.8544 63.4613 15.8837 63.5842 15.8817C63.6754 15.8823 63.7659 15.8652 63.8505 15.8311C63.9366 15.7935 64.014 15.7387 64.0781 15.67L64.2512 15.8164C64.167 15.9106 64.0629 15.9847 63.9463 16.0335C63.8293 16.0828 63.7033 16.1078 63.5762 16.1067C63.4126 16.1083 63.2512 16.068 63.1076 15.9895Z" fill="#22225C"/>
<path d="M66.1417 16.0747H65.8754L65.2497 15.3052H64.861V16.0747H64.62V14.3107H64.861V15.0869H65.2524L65.8235 14.3107H66.0964L65.4308 15.1814L66.1417 16.0747Z" fill="#22225C"/>
<path d="M68.0708 14.3107V16.0747H67.8271V14.6955L66.6596 16.0747H66.4639V14.3107H66.7088V15.6833L67.8697 14.3107H68.0708Z" fill="#22225C"/>
<path d="M70.1769 14.3107V16.0747H69.932V14.6955L68.7657 16.0747H68.566V14.3107H68.811V15.6833L69.9706 14.3107H70.1769ZM69.8534 13.7276C69.8562 13.7838 69.8475 13.84 69.8281 13.8929C69.8087 13.9457 69.7788 13.9941 69.7402 14.0351C69.6999 14.0744 69.6519 14.105 69.5992 14.1249C69.5465 14.1449 69.4903 14.1537 69.434 14.151C69.3772 14.154 69.3203 14.1452 69.2669 14.1253C69.2135 14.1054 69.1648 14.0747 69.1238 14.0351C69.0851 13.9942 69.055 13.9458 69.0354 13.893C69.0157 13.8402 69.0069 13.7839 69.0093 13.7276H69.1957C69.1957 13.91 69.2743 13.9939 69.434 13.9939C69.5938 13.9939 69.6684 13.9033 69.6684 13.7276H69.8534Z" fill="#22225C"/>
<path d="M46.1692 19.5202C46.0305 19.4446 45.9153 19.3322 45.8364 19.1953C45.7569 19.0512 45.7152 18.8893 45.7152 18.7247C45.7152 18.5601 45.7569 18.3982 45.8364 18.2541C45.9153 18.1172 46.0305 18.0048 46.1692 17.9293C46.3142 17.8506 46.4769 17.8102 46.6418 17.8121C46.7686 17.8117 46.8942 17.8356 47.0119 17.8827C47.1277 17.9296 47.2318 18.0014 47.3168 18.093L47.1397 18.2421C47.0764 18.173 46.9987 18.1184 46.9121 18.0824C46.8244 18.0495 46.7314 18.0333 46.6378 18.0344C46.5172 18.0326 46.3981 18.0615 46.2917 18.1183C46.1889 18.174 46.1044 18.2581 46.0481 18.3606C45.9877 18.4711 45.9575 18.5955 45.9602 18.7214C45.9572 18.8486 45.9875 18.9743 46.0481 19.0862C46.1045 19.189 46.1896 19.2732 46.293 19.3285C46.4013 19.3855 46.5222 19.4143 46.6445 19.4123C46.738 19.4148 46.831 19.3972 46.9171 19.3607C47.0032 19.3242 47.0805 19.2696 47.1437 19.2007L47.3168 19.3471C47.2321 19.4407 47.1281 19.5147 47.0119 19.5641C46.8948 19.6132 46.7689 19.6382 46.6418 19.6373C46.4768 19.6399 46.314 19.5995 46.1692 19.5202Z" fill="#22225C"/>
<path d="M47.828 18.8159C47.8328 18.8986 47.8541 18.9795 47.8907 19.0538C47.9273 19.1282 47.9784 19.1944 48.041 19.2486C48.1748 19.3601 48.345 19.4184 48.519 19.4123C48.6164 19.417 48.7136 19.4002 48.8038 19.3632C48.8939 19.3262 48.9749 19.2698 49.0409 19.198L49.2006 19.3405C49.1152 19.4332 49.0113 19.5071 48.8958 19.5575C48.7726 19.6104 48.6397 19.6368 48.5057 19.6347C48.339 19.637 48.1745 19.5967 48.0277 19.5175C47.8904 19.4414 47.7767 19.3291 47.6989 19.1927C47.6184 19.0488 47.5775 18.8862 47.5804 18.7214C47.5779 18.5587 47.6163 18.398 47.6922 18.2541C47.7656 18.118 47.8759 18.0054 48.0104 17.9293C48.1542 17.8498 48.3162 17.8094 48.4804 17.8121C48.6286 17.8095 48.7748 17.8467 48.9037 17.9199C49.0271 17.9918 49.1277 18.097 49.194 18.2235C49.2651 18.3612 49.3008 18.5145 49.2978 18.6695C49.2972 18.7185 49.2927 18.7675 49.2845 18.8159H47.828ZM48.0384 18.1902C47.9204 18.2978 47.8465 18.4453 47.8307 18.6042H49.0595C49.0532 18.4461 48.9887 18.2958 48.8785 18.1822C48.825 18.1323 48.7622 18.0936 48.6936 18.0682C48.625 18.0428 48.5521 18.0313 48.4791 18.0344C48.3177 18.0287 48.1603 18.0844 48.0384 18.1902Z" fill="#22225C"/>
<path d="M51.0698 17.9293C51.2009 18.008 51.3078 18.1213 51.3787 18.2568C51.4547 18.4021 51.4936 18.564 51.4918 18.728C51.4942 18.8921 51.4553 19.0542 51.3787 19.1993C51.3081 19.3332 51.2016 19.4448 51.0711 19.5215C50.9389 19.5993 50.7879 19.6393 50.6345 19.6373C50.4905 19.6391 50.3481 19.6067 50.2191 19.5428C50.0969 19.4835 49.9936 19.3913 49.9209 19.2765V20.1659H49.6786V17.8427H49.9275V18.1755C50.0009 18.0609 50.1046 17.9687 50.2271 17.9093C50.3558 17.8457 50.4976 17.8133 50.6411 17.8148C50.7917 17.8141 50.9396 17.8537 51.0698 17.9293ZM50.9367 19.3231C51.0354 19.2663 51.1162 19.1828 51.1697 19.0822C51.2265 18.9729 51.2549 18.8511 51.2522 18.728C51.2551 18.6036 51.2267 18.4805 51.1697 18.3699C51.1163 18.2681 51.0356 18.1833 50.9367 18.125C50.8348 18.0659 50.7189 18.0355 50.6012 18.0371C50.4794 18.0352 50.3592 18.065 50.2524 18.1236C50.151 18.1802 50.0675 18.2642 50.0114 18.3659C49.9515 18.4761 49.9213 18.6 49.9235 18.7254C49.9211 18.8504 49.9514 18.9738 50.0114 19.0835C50.0671 19.1851 50.1507 19.2687 50.2524 19.3245C50.3593 19.3827 50.4795 19.412 50.6012 19.4097C50.7178 19.4105 50.8326 19.3806 50.934 19.3231H50.9367Z" fill="#22225C"/>
<path d="M53.333 18.8492C53.3742 18.893 53.4055 18.9451 53.425 19.0019C53.4444 19.0588 53.4516 19.1191 53.4459 19.1789C53.4402 19.2387 53.4219 19.2967 53.3921 19.3488C53.3623 19.401 53.3218 19.4463 53.2731 19.4816C53.1305 19.5713 52.9635 19.6145 52.7952 19.6054H51.9245V17.8427H52.7593C52.9152 17.8341 53.0698 17.8761 53.1999 17.9625C53.2516 17.9987 53.2935 18.0473 53.3216 18.1038C53.3498 18.1603 53.3633 18.223 53.361 18.286C53.3653 18.383 53.3329 18.478 53.2705 18.5523C53.2032 18.6279 53.1145 18.6813 53.0162 18.7054C53.1347 18.7175 53.2459 18.768 53.333 18.8492ZM52.1628 18.0637V18.6082H52.7526C52.8468 18.6135 52.9401 18.5883 53.0189 18.5363C53.0505 18.5124 53.0758 18.4811 53.0925 18.4451C53.1092 18.4091 53.1169 18.3696 53.1147 18.33C53.1159 18.2921 53.1076 18.2545 53.0906 18.2205C53.0737 18.1866 53.0486 18.1574 53.0175 18.1356C52.9307 18.0819 52.8292 18.0568 52.7273 18.0637H52.1628ZM52.7859 19.3831C52.892 19.3899 52.9977 19.3649 53.0894 19.3112C53.1236 19.2893 53.1514 19.2589 53.1701 19.2229C53.1887 19.1869 53.1977 19.1466 53.1959 19.1061C53.1969 19.0667 53.1876 19.0276 53.1689 18.9929C53.1502 18.9581 53.1228 18.9288 53.0894 18.9078C53.0029 18.8556 52.9027 18.8305 52.8019 18.8359H52.1628V19.3831H52.7859Z" fill="#22225C"/>
<path d="M55.4512 17.8427V19.6067H55.2076V18.2261L54.04 19.6054H53.8443V17.8427H54.0892V19.214L55.2528 17.8427H55.4512Z" fill="#22225C"/>
<path d="M56.3352 19.5202C56.1962 19.445 56.0809 19.3325 56.0023 19.1953C55.9229 19.0512 55.8812 18.8893 55.8812 18.7247C55.8812 18.5601 55.9229 18.3982 56.0023 18.2541C56.0809 18.117 56.1962 18.0045 56.3352 17.9293C56.4802 17.8506 56.6428 17.8102 56.8078 17.8121C56.9341 17.8117 57.0593 17.8356 57.1766 17.8827C57.2927 17.9289 57.3969 18.0008 57.4814 18.093L57.3057 18.2421C57.2423 18.173 57.1646 18.1184 57.0781 18.0824C56.9904 18.0495 56.8974 18.0333 56.8038 18.0344C56.6828 18.0328 56.5633 18.0616 56.4563 18.1183C56.3542 18.1745 56.2702 18.2585 56.214 18.3606C56.1537 18.4711 56.1234 18.5955 56.1262 18.7214C56.1231 18.8486 56.1534 18.9743 56.214 19.0862C56.2704 19.189 56.3556 19.2732 56.459 19.3285C56.5673 19.3855 56.6881 19.4143 56.8105 19.4123C56.904 19.4148 56.9969 19.3972 57.0831 19.3607C57.1692 19.3242 57.2465 19.2696 57.3097 19.2007L57.4814 19.3471C57.3972 19.4412 57.2931 19.5154 57.1766 19.5641C57.0599 19.6133 56.9344 19.6382 56.8078 19.6373C56.6428 19.6399 56.4799 19.5995 56.3352 19.5202Z" fill="#22225C"/>
</svg>
