<svg xmlns="http://www.w3.org/2000/svg" width="24" height="24" viewBox="0 0 24 24" fill="none"><rect width="24" height="24" fill="none"/>
<path fill-rule="evenodd" clip-rule="evenodd" d="M8.47673 20.9792H7.2641V21.9996H6.22141V18.1584H8.47673C9.35498 18.1584 9.88713 18.6855 9.88713 19.5633C9.88713 20.4141 9.35461 20.9792 8.47673 20.9792ZM7.2641 20.0461H8.3892C8.66901 20.0461 8.81733 19.8758 8.81733 19.563C8.81733 19.2337 8.66901 19.0528 8.3892 19.0528H7.2641V20.0461Z" fill="black"/>
<path fill-rule="evenodd" clip-rule="evenodd" d="M9.82768 22H10.9033L11.1302 21.4785H12.8314L13.0543 22H14.201L12.5767 18.1588H11.4901L9.82768 22ZM11.4638 20.6889H12.5042L11.963 19.2879L11.4638 20.6889Z" fill="black"/>
<path d="M16.5106 21.9996V20.6659L18.2169 18.1584H16.9109L15.9614 19.6017L15.0119 18.1584H13.7059L15.3957 20.625V21.9996H16.5106Z" fill="black"/>
<path fill-rule="evenodd" clip-rule="evenodd" d="M18.9879 8.85636C18.9879 12.643 15.8593 15.7127 12 15.7127C8.14069 15.7127 5.01208 12.643 5.01208 8.85636C5.01208 5.0697 8.14069 2 12 2C15.8593 2 18.9879 5.0697 18.9879 8.85636ZM11.9952 4.65564C12.5621 4.65564 12.7933 5.00779 12.9423 5.45379L14.4835 10.0124H13.3883L13.0439 8.93566H10.9561L10.6117 10.0124H9.51655L11.0577 5.45379C11.2057 5.00876 11.4292 4.65564 11.9952 4.65564ZM9.40432 11.4888H14.5947V12.5656H9.40432V11.4888Z" fill="#EF3124"/>
<path d="M11.2502 8.01658L11.9807 5.73242H12.0194L12.7498 8.01658H11.2502Z" fill="#EF3124"/>
<path fill-rule="evenodd" clip-rule="evenodd" d="M12.9423 5.45379C12.7933 5.00779 12.5621 4.65564 11.9952 4.65564C11.4292 4.65564 11.2057 5.00876 11.0577 5.45379L9.51655 10.0124H10.6117L10.9561 8.93566H13.0439L13.3883 10.0124H14.4835L12.9423 5.45379ZM11.9807 5.73242L11.2502 8.01658H12.7498L12.0194 5.73242H11.9807Z" fill="white"/>
<path d="M14.5947 11.4888H9.40432V12.5656H14.5947V11.4888Z" fill="white"/>
</svg>
