<svg xmlns="http://www.w3.org/2000/svg" width="216" height="24" viewBox="0 0 216 24" fill="none"><rect width="216" height="24" fill="none"/>
<path d="M84.6011 18.7556C84.6011 18.879 84.5835 18.9848 84.5306 19.0906C84.4953 19.1964 84.4248 19.3022 84.3366 19.3727C84.2485 19.4609 84.1603 19.5314 84.0545 19.5667C83.9487 19.6196 83.8253 19.6372 83.7195 19.6372H82.2031C82.0797 19.6372 81.9739 19.6196 81.8681 19.5667C81.7623 19.5314 81.6565 19.4609 81.5859 19.3727C81.4978 19.2846 81.4449 19.1964 81.392 19.0906C81.3391 18.9848 81.3214 18.8614 81.3214 18.7556V14.8587C81.3214 14.7353 81.3391 14.6295 81.392 14.5237C81.4449 14.4179 81.4978 14.3121 81.5859 14.2416C81.6741 14.1534 81.7623 14.1005 81.8681 14.0476C81.9739 14.0124 82.0973 13.9771 82.2031 13.9771H82.6792C82.9084 13.6774 83.0847 13.36 83.2258 13.0073C83.3845 12.6018 83.5255 12.1962 83.6313 11.773C83.7371 11.3146 83.8253 10.8561 83.9135 10.38C83.984 9.90395 84.0369 9.42787 84.0722 8.93415L84.1603 7.54117C84.1779 7.29431 84.2837 7.06508 84.4601 6.90639C84.5482 6.81823 84.654 6.7477 84.7598 6.71243C84.8656 6.65953 84.9891 6.6419 85.1125 6.6419H91.7424C91.8658 6.6419 91.9716 6.65953 92.095 6.71243C92.2008 6.76533 92.3066 6.81823 92.3948 6.90639C92.483 6.99455 92.5359 7.08272 92.5888 7.20615C92.6416 7.31194 92.6593 7.43537 92.6593 7.5588V13.9947H93.5233C93.6467 13.9947 93.7525 14.0124 93.8583 14.0653C93.9641 14.1005 94.0699 14.1711 94.1404 14.2592C94.2286 14.3474 94.2991 14.4356 94.3344 14.5414C94.3697 14.6472 94.4049 14.7706 94.4049 14.8764V18.7732C94.4049 18.8966 94.3873 19.0024 94.3344 19.1082C94.2991 19.214 94.2286 19.3198 94.1404 19.3904C94.0523 19.4785 93.9641 19.5314 93.8583 19.5843C93.7525 19.6372 93.6291 19.6548 93.5233 19.6548H91.9892C91.8658 19.6548 91.76 19.6372 91.6542 19.5843C91.5484 19.549 91.4426 19.4785 91.3721 19.3904C91.2839 19.3022 91.231 19.214 91.1781 19.1082C91.1252 19.0024 91.1076 18.879 91.1076 18.7732V17.2921H84.6188L84.6011 18.7556ZM89.0622 9.97448H87.4753L87.44 10.3977C87.3695 11.1559 87.2108 11.8965 86.9992 12.6194C86.8581 13.0955 86.6465 13.5539 86.382 13.9947H89.0622V9.97448Z" fill="white"/>
<path d="M98.9894 13.166C99.1481 13.6421 99.4832 14.0476 99.924 14.2769C100.4 14.5237 100.929 14.6472 101.476 14.6295C101.828 14.6295 102.163 14.6119 102.516 14.559C102.816 14.5061 103.115 14.4356 103.398 14.3298C103.556 14.2769 103.733 14.2416 103.909 14.2416C104.085 14.2416 104.244 14.2769 104.403 14.365C104.544 14.4532 104.667 14.5766 104.738 14.7353L105.09 15.4935C105.161 15.617 105.196 15.7756 105.196 15.9167C105.196 16.0754 105.161 16.2341 105.09 16.3575C105.02 16.4986 104.896 16.6044 104.773 16.6925C104.191 17.0276 103.556 17.2744 102.904 17.4155C102.304 17.5213 101.705 17.5742 101.105 17.5742C100.294 17.5918 99.4831 17.4508 98.7249 17.1686C98.0549 16.9218 97.4378 16.5339 96.9264 16.0401C96.4151 15.5464 96.0271 14.9293 95.7626 14.2769C95.4805 13.5363 95.3395 12.7605 95.3395 11.9846C95.3395 11.244 95.4805 10.5035 95.7626 9.81579C96.0271 9.14575 96.4151 8.5286 96.9264 8.01725C97.4378 7.48827 98.0549 7.08272 98.7249 6.81823C99.4831 6.51847 100.294 6.37741 101.105 6.37741C101.775 6.37741 102.428 6.50084 103.045 6.73006C103.662 6.95929 104.209 7.31194 104.685 7.75276C105.161 8.19358 105.549 8.74019 105.813 9.32207C106.095 9.97448 106.254 10.6622 106.236 11.3851C106.236 11.7378 106.219 12.0904 106.166 12.4431C106.131 12.637 106.025 12.7957 105.866 12.9368C105.725 13.0778 105.549 13.1484 105.355 13.166H98.9894ZM102.692 10.8032C102.692 10.4153 102.534 10.0626 102.251 9.79816C102.075 9.63946 101.881 9.51603 101.652 9.42787C101.423 9.35734 101.194 9.32207 100.964 9.33971C100.488 9.30444 99.9945 9.42787 99.5889 9.69236C99.2539 9.97448 99.0071 10.3624 98.866 10.768L102.692 10.8032Z" fill="white"/>
<path d="M111.138 17.2921C111.015 17.2921 110.909 17.2744 110.803 17.2215C110.698 17.1863 110.592 17.1157 110.521 17.0276C110.433 16.9394 110.363 16.8512 110.327 16.7454C110.274 16.6397 110.257 16.5162 110.257 16.4104V10.2037H108.088C107.964 10.2037 107.859 10.1861 107.753 10.1332C107.647 10.0979 107.541 10.0274 107.471 9.93922C107.383 9.85105 107.312 9.76289 107.277 9.65709C107.224 9.5513 107.206 9.42787 107.206 9.32207V7.5588C107.206 7.43537 107.224 7.32957 107.277 7.20615C107.33 7.10035 107.383 6.99455 107.471 6.90639C107.559 6.81823 107.647 6.76533 107.771 6.71243C107.876 6.65953 108 6.6419 108.123 6.6419H116.023C116.146 6.6419 116.252 6.65953 116.358 6.71243C116.463 6.76533 116.569 6.81823 116.657 6.90639C116.746 6.99455 116.798 7.08272 116.851 7.18851C116.904 7.29431 116.922 7.41774 116.922 7.52353V9.28681C116.922 9.41024 116.904 9.51603 116.851 9.62183C116.798 9.72763 116.746 9.83342 116.657 9.92158C116.569 10.0097 116.481 10.0626 116.375 10.1155C116.27 10.1684 116.146 10.1861 116.04 10.1861H113.871V16.3752C113.871 16.4986 113.854 16.6044 113.801 16.7102C113.766 16.816 113.695 16.9218 113.607 16.9923C113.519 17.0805 113.431 17.151 113.325 17.1863C113.219 17.2392 113.096 17.2568 112.99 17.2568H112.972L111.138 17.2921Z" fill="white"/>
<path d="M125.474 10.1155C124.98 9.85105 124.416 9.69236 123.852 9.69236C123.569 9.69236 123.287 9.74526 123.023 9.83342C122.758 9.92158 122.511 10.0803 122.3 10.2742C122.071 10.4682 121.894 10.7151 121.771 10.9972C121.63 11.3146 121.559 11.6496 121.577 11.9846C121.577 12.3196 121.647 12.6547 121.789 12.9544C121.93 13.2189 122.106 13.4658 122.335 13.6774C122.776 14.0653 123.34 14.2769 123.922 14.2769C124.504 14.2592 125.086 14.0829 125.58 13.7655C125.774 13.6245 126.003 13.5539 126.232 13.5539C126.373 13.5539 126.514 13.5892 126.638 13.6421C126.761 13.7126 126.867 13.8008 126.955 13.9066L127.678 14.8764C127.801 15.0351 127.872 15.2467 127.872 15.4406C127.872 15.5817 127.837 15.7404 127.784 15.8638C127.713 15.9872 127.625 16.1107 127.502 16.1988C126.92 16.6925 126.232 17.0805 125.491 17.3097C124.91 17.4684 124.292 17.5566 123.693 17.5742C122.864 17.5918 122.035 17.4508 121.242 17.1686C120.554 16.9218 119.919 16.5339 119.373 16.0401C118.862 15.5464 118.456 14.9469 118.191 14.2769C117.909 13.5363 117.768 12.7605 117.768 11.9846C117.768 11.244 117.909 10.5035 118.174 9.81579C118.438 9.14575 118.826 8.5286 119.338 8.01725C119.849 7.5059 120.448 7.10035 121.101 6.81823C121.824 6.51847 122.6 6.37741 123.393 6.37741C124.028 6.37741 124.68 6.43031 125.297 6.57137C125.95 6.73006 126.549 6.99455 127.096 7.38247C127.255 7.453 127.378 7.57643 127.466 7.71749C127.554 7.85856 127.607 8.03488 127.607 8.19358C127.607 8.35227 127.554 8.51097 127.466 8.65203L126.779 9.78052C126.708 9.92159 126.585 10.045 126.444 10.1332C126.303 10.2213 126.144 10.2566 125.967 10.2566C125.809 10.2566 125.632 10.2037 125.474 10.1155Z" fill="white"/>
<path d="M133.409 12.1962V16.3752C133.409 16.4986 133.391 16.6044 133.338 16.7102C133.303 16.816 133.232 16.9218 133.144 16.9923C133.056 17.0805 132.968 17.151 132.862 17.1863C132.756 17.2392 132.633 17.2568 132.527 17.2568H130.764C130.64 17.2568 130.534 17.2392 130.411 17.1863C130.305 17.1334 130.199 17.0805 130.129 16.9923C130.041 16.9041 129.97 16.816 129.935 16.6925C129.882 16.5868 129.864 16.4633 129.864 16.3399V7.54117C129.864 7.41774 129.882 7.31194 129.935 7.20615C129.97 7.10035 130.041 6.99455 130.129 6.92402C130.217 6.83586 130.305 6.76533 130.411 6.73006C130.517 6.67716 130.64 6.65953 130.746 6.65953H132.509C132.633 6.65953 132.738 6.67716 132.862 6.73006C132.968 6.78296 133.073 6.83586 133.162 6.92402C133.25 7.01219 133.303 7.10035 133.356 7.22378C133.409 7.32958 133.426 7.453 133.426 7.57643V11.3146L136.159 7.27668C136.283 7.10035 136.459 6.95929 136.635 6.85349C136.829 6.74769 137.041 6.6948 137.27 6.6948H138.928C139.051 6.6948 139.174 6.71243 139.298 6.76533C139.404 6.81823 139.509 6.88876 139.598 6.97692C139.756 7.15325 139.862 7.38247 139.862 7.6117C139.862 7.80566 139.792 7.99962 139.668 8.15831L137.147 11.4733L138.31 13.0602C138.61 13.5363 139.069 13.8889 139.598 14.0653C139.88 14.1005 140.127 14.224 140.321 14.4179C140.462 14.6472 140.514 14.9293 140.497 15.1938V16.6397C140.497 16.8336 140.426 17.0099 140.285 17.151C140.162 17.3097 139.986 17.3979 139.792 17.4331C139.668 17.4331 139.545 17.4684 139.439 17.4684C139.333 17.4684 139.21 17.4684 139.086 17.4684C138.786 17.4684 138.487 17.4331 138.205 17.3802C137.887 17.3097 137.57 17.1863 137.288 17.0276C136.953 16.8336 136.635 16.6044 136.371 16.3399C136.018 15.9872 135.701 15.5993 135.436 15.1761L133.409 12.1962Z" fill="white"/>
<path d="M150.724 17.2921C150.6 17.2921 150.495 17.2744 150.389 17.2215C150.283 17.1863 150.177 17.1157 150.107 17.0276C150.019 16.9394 149.966 16.8512 149.913 16.7454C149.86 16.6397 149.842 16.5162 149.842 16.4104V11.7201L146.439 16.6925C146.316 16.8689 146.175 17.0099 145.998 17.1157C145.822 17.2215 145.628 17.2921 145.416 17.2744H143.389C143.265 17.2744 143.159 17.2568 143.036 17.2039C142.93 17.151 142.824 17.0981 142.754 17.0099C142.666 16.9218 142.595 16.8336 142.56 16.7102C142.507 16.6044 142.489 16.481 142.489 16.3575V7.54117C142.489 7.41774 142.507 7.31194 142.56 7.20615C142.595 7.10035 142.666 6.99455 142.754 6.92402C142.842 6.83586 142.93 6.76533 143.036 6.73006C143.142 6.6948 143.265 6.65953 143.371 6.65953H145.134C145.258 6.65953 145.363 6.67716 145.487 6.73006C145.593 6.78296 145.699 6.83586 145.787 6.92402C145.875 7.01219 145.928 7.10035 145.981 7.22378C146.034 7.32958 146.051 7.453 146.051 7.57643V12.2315L149.437 7.27668C149.56 7.11798 149.701 6.97692 149.86 6.85349C150.019 6.74769 150.23 6.67716 150.424 6.6948H152.487C152.611 6.6948 152.716 6.71243 152.84 6.76533C152.946 6.81823 153.051 6.87112 153.14 6.95929C153.228 7.04745 153.281 7.13561 153.333 7.25904C153.386 7.36484 153.404 7.48827 153.404 7.6117V16.4457C153.404 16.5691 153.386 16.6749 153.333 16.7807C153.298 16.8865 153.228 16.9923 153.14 17.0628C153.051 17.151 152.963 17.2039 152.857 17.2568C152.752 17.3097 152.628 17.3273 152.522 17.3273H152.505L150.724 17.2921Z" fill="white"/>
<path d="M164.178 17.2921C164.054 17.2921 163.948 17.2744 163.843 17.2215C163.737 17.1863 163.631 17.1157 163.56 17.0276C163.472 16.9394 163.402 16.8512 163.367 16.7454C163.314 16.6397 163.296 16.5162 163.296 16.4104V11.7201L159.91 16.6926C159.787 16.8689 159.646 17.0099 159.47 17.1157C159.293 17.2215 159.099 17.2921 158.888 17.2744H156.86C156.737 17.2744 156.631 17.2568 156.525 17.2039C156.419 17.1686 156.313 17.0981 156.243 17.0099C156.155 16.9218 156.102 16.8336 156.049 16.7278C155.996 16.622 155.978 16.4986 155.978 16.3928V7.5588C155.978 7.43537 155.996 7.32957 156.049 7.20615C156.102 7.10035 156.155 6.99455 156.243 6.90639C156.331 6.81823 156.419 6.76533 156.543 6.71243C156.648 6.65953 156.772 6.6419 156.895 6.6419H158.641C158.764 6.6419 158.87 6.65953 158.994 6.71243C159.099 6.76533 159.205 6.81823 159.293 6.90639C159.382 6.99455 159.452 7.08272 159.487 7.20615C159.54 7.31194 159.558 7.43537 159.558 7.5588V12.1962L162.943 7.24141C163.067 7.08272 163.208 6.94166 163.367 6.81823C163.525 6.71243 163.737 6.6419 163.931 6.65953H165.994C166.117 6.65953 166.223 6.67716 166.346 6.73006C166.452 6.78296 166.558 6.83586 166.646 6.92402C166.734 7.01219 166.787 7.10035 166.84 7.22378C166.875 7.32958 166.911 7.453 166.911 7.57643V16.4104C166.911 16.5339 166.893 16.6397 166.84 16.7454C166.805 16.8512 166.734 16.957 166.646 17.0276C166.558 17.1157 166.47 17.1686 166.364 17.2215C166.258 17.2744 166.135 17.2921 166.029 17.2921H164.178ZM163.666 2.00449C163.86 1.98686 164.072 2.02213 164.248 2.09266C164.424 2.16319 164.601 2.26898 164.742 2.41005C164.989 2.69217 165.112 3.08009 165.094 3.45038C165.094 3.76777 165.006 4.06752 164.83 4.34965C164.671 4.61414 164.442 4.84336 164.178 5.01969C163.578 5.44287 162.679 5.65447 161.48 5.65447C160.157 5.65447 159.205 5.44287 158.641 5.01969C158.376 4.84336 158.165 4.61414 158.006 4.34965C157.847 4.08515 157.777 3.76777 157.777 3.46801C157.759 3.08009 157.9 2.7098 158.13 2.42768C158.271 2.28662 158.447 2.18082 158.623 2.11029C158.817 2.03976 159.011 2.02213 159.205 2.03976C159.523 2.00449 159.84 2.09266 160.104 2.28662C160.298 2.46294 160.439 2.67454 160.51 2.9214C160.581 3.11536 160.686 3.29168 160.845 3.45038C161.021 3.60907 161.268 3.6796 161.497 3.66197C161.603 3.66197 161.709 3.66197 161.815 3.6267C161.921 3.59144 162.009 3.53854 162.097 3.46801C162.238 3.30931 162.344 3.13299 162.397 2.93903C162.467 2.69217 162.608 2.46294 162.802 2.30425C163.067 2.07502 163.367 1.98686 163.666 2.00449Z" fill="white"/>
<path d="M177.684 16.3928C177.684 16.5162 177.667 16.622 177.614 16.7278C177.578 16.8336 177.508 16.9394 177.42 17.0099C177.332 17.0981 177.243 17.151 177.138 17.2039C177.032 17.2568 176.908 17.2744 176.803 17.2744H175.022C174.898 17.2744 174.793 17.2568 174.687 17.2039C174.581 17.1686 174.475 17.0981 174.405 17.0099C174.316 16.9218 174.246 16.8336 174.211 16.7278C174.158 16.622 174.14 16.4986 174.14 16.3928V7.5588C174.14 7.43537 174.158 7.32957 174.211 7.20615C174.264 7.08272 174.316 6.99455 174.405 6.90639C174.493 6.81823 174.581 6.76533 174.704 6.71243C174.81 6.65953 174.934 6.6419 175.057 6.6419H176.732C176.944 6.6419 177.155 6.6948 177.332 6.80059C177.526 6.88876 177.684 7.02982 177.808 7.18851L180.523 10.2566L183.027 7.20615C183.168 7.04745 183.327 6.90639 183.503 6.78296C183.679 6.67716 183.891 6.62427 184.085 6.62427H185.672C185.795 6.62427 185.901 6.6419 186.025 6.6948C186.13 6.7477 186.236 6.80059 186.324 6.88876C186.412 6.97692 186.465 7.06508 186.518 7.18851C186.571 7.31194 186.589 7.41774 186.589 7.54117V16.3752C186.589 16.4986 186.571 16.6044 186.518 16.7102C186.483 16.816 186.412 16.9218 186.324 16.9923C186.236 17.0805 186.148 17.1334 186.042 17.1863C185.936 17.2392 185.813 17.2568 185.707 17.2568H183.926C183.803 17.2568 183.697 17.2392 183.574 17.1863C183.468 17.1334 183.362 17.0805 183.274 16.9923C183.186 16.9041 183.133 16.816 183.08 16.7102C183.027 16.6044 183.009 16.481 183.009 16.3752V12.0551L181.017 14.3298C180.946 14.4179 180.841 14.4885 180.735 14.5414C180.629 14.5943 180.506 14.6119 180.4 14.6119C180.294 14.6119 180.17 14.5943 180.065 14.5414C179.959 14.4885 179.871 14.4356 179.783 14.3474L177.684 12.0551V16.3928Z" fill="white"/>
<path d="M197.38 17.2921C197.257 17.2921 197.151 17.2744 197.045 17.2215C196.939 17.1863 196.833 17.1157 196.763 17.0276C196.675 16.9394 196.604 16.8512 196.569 16.7454C196.516 16.6397 196.498 16.5162 196.498 16.4104V11.7201L193.113 16.6749C192.989 16.8512 192.848 16.9923 192.672 17.0981C192.496 17.2039 192.302 17.2744 192.09 17.2568H190.062C189.939 17.2568 189.833 17.2392 189.727 17.1863C189.622 17.151 189.516 17.0805 189.445 16.9923C189.357 16.9041 189.304 16.816 189.251 16.7102C189.198 16.6044 189.181 16.481 189.181 16.3752V7.5588C189.181 7.43537 189.198 7.32957 189.251 7.20615C189.287 7.10035 189.357 6.99455 189.445 6.90639C189.533 6.81823 189.622 6.76533 189.745 6.71243C189.851 6.65953 189.974 6.6419 190.098 6.6419H191.843C191.967 6.6419 192.073 6.65953 192.196 6.71243C192.302 6.76533 192.408 6.81823 192.496 6.90639C192.584 6.99455 192.637 7.08272 192.69 7.20615C192.743 7.31194 192.76 7.43537 192.76 7.5588V12.1962L196.146 7.24141C196.269 7.08272 196.428 6.94165 196.587 6.83586C196.745 6.73006 196.957 6.65953 197.151 6.67716H199.214C199.337 6.67716 199.443 6.6948 199.566 6.74769C199.672 6.80059 199.778 6.85349 199.866 6.94165C199.954 7.02982 200.007 7.11798 200.06 7.24141C200.113 7.34721 200.131 7.47064 200.131 7.59407V16.4281C200.131 16.5515 200.113 16.6573 200.06 16.7631C200.025 16.8689 199.954 16.9747 199.866 17.0452C199.778 17.1334 199.69 17.2039 199.584 17.2392C199.478 17.2921 199.355 17.3097 199.249 17.3097H197.38V17.2921Z" fill="white"/>
<path d="M206.143 21.1184C206.143 21.2418 206.126 21.3476 206.073 21.4534C206.038 21.5592 205.967 21.665 205.879 21.7355C205.791 21.8237 205.703 21.8766 205.597 21.9295C205.491 21.9824 205.368 22 205.262 22H203.499C203.375 22 203.269 21.9824 203.164 21.9295C203.058 21.8942 202.952 21.8237 202.864 21.7355C202.776 21.6473 202.723 21.5592 202.67 21.4534C202.617 21.3476 202.599 21.2242 202.599 21.1184V7.54117C202.599 7.41774 202.617 7.31194 202.67 7.18851C202.705 7.08272 202.776 6.97692 202.864 6.88876C202.952 6.80059 203.04 6.7477 203.164 6.6948C203.269 6.6419 203.393 6.62427 203.516 6.62427H205.385C205.491 6.62427 205.579 6.6419 205.685 6.67716C205.773 6.71243 205.861 6.76533 205.932 6.83586C206.002 6.90639 206.055 6.99455 206.108 7.08272C206.143 7.17088 206.161 7.27668 206.161 7.38247V7.40011C206.514 7.08272 206.919 6.83586 207.36 6.65953C207.924 6.43031 208.506 6.32451 209.106 6.34214C209.776 6.34214 210.446 6.46557 211.063 6.74769C211.645 7.01219 212.156 7.40011 212.562 7.87619C212.985 8.38754 213.302 8.96942 213.514 9.6042C213.743 10.3095 213.867 11.0324 213.867 11.773C213.867 12.5489 213.726 13.3071 213.461 14.03C213.197 14.7177 212.809 15.3348 212.297 15.8638C211.786 16.3928 211.169 16.816 210.499 17.0981C209.758 17.4155 208.947 17.5566 208.154 17.5566C207.783 17.5566 207.431 17.5213 207.078 17.4684C206.761 17.4331 206.461 17.345 206.161 17.2215L206.143 21.1184ZM206.143 13.8713C206.373 14.0124 206.62 14.1182 206.884 14.1887C207.184 14.2592 207.484 14.2769 207.801 14.2769C208.118 14.2945 208.436 14.2592 208.736 14.1358C209.035 14.0124 209.3 13.8184 209.511 13.5892C209.882 13.1131 210.076 12.5136 210.058 11.8965C210.076 11.3322 209.882 10.7856 209.529 10.3448C209.335 10.1332 209.106 9.95685 208.824 9.85105C208.559 9.74526 208.259 9.69236 207.977 9.70999C207.625 9.72763 207.272 9.81579 206.955 9.97448C206.637 10.1332 206.355 10.3624 206.143 10.6445V13.8713Z" fill="white"/>
<path d="M10.0676 19.1435C6.31185 20.5012 5.02466 19.2669 3.93143 16.2517L2.53845 12.3902C1.19836 8.6344 2.43265 7.34721 5.43021 6.27161L9.29178 4.87863C13.0475 3.52091 14.3347 4.7552 15.428 7.77039L16.821 11.632C18.1787 15.3877 16.9444 16.6749 13.9292 17.7681L10.0676 19.1435Z" fill="#FF4F3E"/>
<path d="M27.1185 19.1435C30.8742 20.5012 32.1614 19.2669 33.2547 16.2517L34.6476 12.3902C36.0054 8.6344 34.7711 7.34721 31.7559 6.25398L27.8943 4.87863C24.1385 3.52091 22.8513 4.7552 21.7581 7.77039L20.3651 11.632C19.0074 15.3877 20.2417 16.6749 23.2569 17.7681L27.1185 19.1435Z" fill="#FABC22"/>
<path d="M45.721 19.1435C41.9652 20.5012 40.678 19.2669 39.5848 16.2517L38.1918 12.3902C36.8341 8.6344 38.0684 7.34721 41.0836 6.25398L44.9451 4.86099C48.7009 3.50328 49.9881 4.73757 51.0813 7.75276L52.4743 11.6143C53.832 15.3701 52.5977 16.6573 49.5825 17.7505L45.721 19.1435Z" fill="#06C92E"/>
<path d="M62.7718 19.1435C66.5276 20.5012 67.8148 19.2669 68.908 16.2517L70.301 12.3902C71.6411 8.6344 70.4068 7.34721 67.4092 6.27161L63.5477 4.87863C59.7919 3.52091 58.5047 4.7552 57.4115 7.77039L56.0185 11.632C54.6608 15.3877 55.8951 16.6749 58.9103 17.7681L62.7718 19.1435Z" fill="#00C2FC"/>
</svg>
