<svg xmlns="http://www.w3.org/2000/svg" width="83" height="24" viewBox="0 0 83 24" fill="none"><rect width="83" height="24" fill="none"/>
<path d="M75.7467 8.72634V11.4564H76.7145C77.1892 11.4564 77.5605 11.3452 77.8283 11.1229C78.0961 10.8867 78.23 10.5672 78.23 10.1643C78.23 9.65024 78.1083 9.28207 77.8648 9.05978C77.6214 8.83749 77.2623 8.72634 76.7875 8.72634H75.7467ZM75.7467 12.9777V15.9578H76.8241C77.3353 15.9578 77.737 15.8466 78.0292 15.6244C78.3335 15.4021 78.4857 15.0061 78.4857 14.4365C78.4857 13.9085 78.3457 13.5334 78.0657 13.3111C77.7979 13.0888 77.384 12.9777 76.8241 12.9777H75.7467ZM73.1721 7.05915H77.2988C78.4796 7.05915 79.356 7.28144 79.9282 7.72602C80.5125 8.15672 80.8046 8.84443 80.8046 9.78918C80.8046 10.4283 80.6464 10.9423 80.3299 11.3313C80.0256 11.7064 79.6117 11.9704 79.0882 12.1232C79.7699 12.2483 80.2873 12.5123 80.6403 12.9152C81.0055 13.3042 81.1881 13.8669 81.1881 14.6032C81.1881 15.6174 80.8351 16.3746 80.129 16.8747C79.4352 17.3749 78.4796 17.625 77.2623 17.625H73.1721V7.05915Z" fill="white"/>
<path d="M66.4147 6.16305C65.9035 6.16305 65.4531 6.08664 65.0635 5.93381C64.6862 5.78098 64.3697 5.57953 64.114 5.32945C63.8584 5.06548 63.6636 4.75983 63.5297 4.4125C63.408 4.05127 63.3471 3.66226 63.3471 3.24546H65.4652C65.4652 3.70394 65.5322 4.05822 65.6661 4.3083C65.8122 4.54448 66.0617 4.66258 66.4147 4.66258C66.7678 4.66258 67.0112 4.54448 67.1451 4.3083C67.2912 4.05822 67.3642 3.70394 67.3642 3.24546H69.4641C69.4641 3.66226 69.3971 4.05127 69.2632 4.4125C69.1415 4.75983 68.9528 5.06548 68.6972 5.32945C68.4415 5.57953 68.1251 5.78098 67.7477 5.93381C67.3703 6.08664 66.926 6.16305 66.4147 6.16305ZM61.8133 7.05917H64.4244V14.0822L68.5694 7.05917H70.9431V17.625H68.332V10.602L64.2053 17.625H61.8133V7.05917Z" fill="white"/>
<path d="M55.3476 15.9786C55.7858 15.9786 56.1328 15.8605 56.3884 15.6244C56.6562 15.3743 56.8632 15.0686 57.0092 14.7074V12.7901H56.2789C55.4511 12.7901 54.8729 12.936 54.5442 13.2278C54.2277 13.5195 54.0694 13.9433 54.0694 14.499C54.0694 14.9992 54.1851 15.3743 54.4164 15.6244C54.6477 15.8605 54.9581 15.9786 55.3476 15.9786ZM57.3744 17.625C57.3136 17.4444 57.2588 17.236 57.2101 16.9998C57.1736 16.7497 57.1431 16.4857 57.1188 16.2079C57.0092 16.4024 56.8753 16.5969 56.7171 16.7914C56.5588 16.9859 56.3762 17.1596 56.1693 17.3124C55.9624 17.4652 55.7189 17.5903 55.4389 17.6875C55.1589 17.7848 54.8424 17.8334 54.4894 17.8334C54.0512 17.8334 53.6434 17.7709 53.266 17.6458C52.8886 17.5208 52.5661 17.3332 52.2983 17.0831C52.0305 16.8192 51.8174 16.4927 51.6592 16.1037C51.5131 15.7147 51.4401 15.2631 51.4401 14.7491C51.4401 13.721 51.8296 12.8943 52.6087 12.2691C53.3877 11.63 54.5929 11.3105 56.2241 11.3105H57.0092V10.727C57.0092 10.1018 56.8753 9.63635 56.6075 9.3307C56.3397 9.01115 55.8406 8.85138 55.1102 8.85138C54.5746 8.85138 54.112 8.95558 53.7225 9.16398C53.333 9.35849 52.9495 9.60856 52.5722 9.91422L51.8052 7.80938C52.1948 7.54541 52.6817 7.32312 53.266 7.14251C53.8625 6.948 54.6051 6.85075 55.4937 6.85075C56.8327 6.85075 57.8614 7.14945 58.5796 7.74686C59.3099 8.33038 59.6751 9.28902 59.6751 10.6228V15.937C59.6751 16.1731 59.6812 16.4718 59.6934 16.8331C59.7177 17.1804 59.7482 17.4444 59.7847 17.625H57.3744Z" fill="white"/>
<path d="M45.5199 15.8536C46.1407 15.8536 46.6459 15.5757 47.0355 15.02C47.4372 14.4504 47.638 13.5543 47.638 12.3316C47.638 11.1368 47.4372 10.2546 47.0355 9.68498C46.6337 9.11535 46.1286 8.83054 45.5199 8.83054C44.8991 8.83054 44.3756 9.11535 43.9496 9.68498C43.5357 10.2407 43.3288 11.1229 43.3288 12.3316C43.3288 12.943 43.3835 13.4709 43.4931 13.9155C43.6026 14.3601 43.7548 14.7282 43.9496 15.02C44.1565 15.2979 44.3878 15.5063 44.6434 15.6452C44.9113 15.7841 45.2034 15.8536 45.5199 15.8536ZM46.2868 17.8334C45.6051 17.8334 45.0208 17.6736 44.5339 17.3541C44.0591 17.0206 43.6635 16.5691 43.347 15.9995V21.397H40.6811V7.05915H43.0731L43.274 8.8097C43.5783 8.1984 43.98 7.71908 44.4791 7.37175C44.9904 7.02441 45.6051 6.85075 46.3233 6.85075C46.8589 6.85075 47.3702 6.96189 47.8571 7.18419C48.3441 7.40648 48.7701 7.74686 49.1353 8.20534C49.5127 8.64993 49.8109 9.21955 50.03 9.91422C50.2491 10.595 50.3587 11.4008 50.3587 12.3316C50.3587 13.2625 50.2491 14.0753 50.03 14.7699C49.8109 15.4507 49.5127 16.0203 49.1353 16.4788C48.7579 16.9373 48.3258 17.2777 47.8389 17.4999C47.352 17.7222 46.8346 17.8334 46.2868 17.8334Z" fill="white"/>
<path d="M30.4061 12.6651C30.2722 13.2903 30.1078 13.8391 29.9131 14.3115C29.7183 14.7838 29.4931 15.2006 29.2375 15.5619H34.8614V5.20442H31.0634C30.9904 6.8855 30.9052 8.3443 30.8078 9.5808C30.7104 10.8034 30.5765 11.8315 30.4061 12.6651ZM36.9795 17.625H28.3062L27.9228 21.397H25.9142V15.5619H26.8089C27.1254 15.284 27.4054 14.895 27.6489 14.3948C27.8923 13.8947 28.0993 13.2417 28.2697 12.4359C28.4766 11.4356 28.6349 10.1782 28.7445 8.66384C28.8662 7.14948 28.9392 5.30862 28.9636 3.14127H37.6186V15.5619H39.3715V21.397H37.363L36.9795 17.625Z" fill="white"/>
<path d="M11.999 22C17.5218 22 21.999 17.5228 21.999 12C21.999 7.83158 19.4485 4.25884 15.823 2.75719C14.6449 2.26927 13.3534 2 11.999 2C9.35666 2 6.9537 3.02482 5.16589 4.69868C3.21691 6.52342 1.99899 9.11948 1.99899 12C1.99899 15.4168 3.71266 18.4334 6.32741 20.2372C7.67078 21.1639 9.252 21.7705 10.9609 21.9468C11.3021 21.982 11.6484 22 11.999 22Z" fill="#D9D9D9"/>
<path d="M11.999 22C17.5218 22 21.999 17.5228 21.999 12C21.999 7.83158 19.4485 4.25884 15.823 2.75719C14.6449 2.26927 13.3534 2 11.999 2C9.35666 2 6.9537 3.02482 5.16589 4.69868C3.21691 6.52342 1.99899 9.11948 1.99899 12C1.99899 15.4168 3.71266 18.4334 6.32741 20.2372C7.67078 21.1639 9.252 21.7705 10.9609 21.9468C11.3021 21.982 11.6484 22 11.999 22Z" fill="url(#paint0_linear_4914_60)"/>
<path d="M7.88642 18.8332C13.4329 13.2883 13.4512 4.69592 5.41044 4.69592C5.32836 4.69592 5.24684 4.69691 5.16589 4.69868C3.21691 6.52342 1.99899 9.11948 1.99899 12C1.99899 15.4168 3.71266 18.4334 6.32741 20.2372C6.84101 19.8239 7.36155 19.3581 7.88642 18.8332Z" fill="#D9D9D9"/>
<path d="M7.88642 18.8332C13.4329 13.2883 13.4512 4.69592 5.41044 4.69592C5.32836 4.69592 5.24684 4.69691 5.16589 4.69868C3.21691 6.52342 1.99899 9.11948 1.99899 12C1.99899 15.4168 3.71266 18.4334 6.32741 20.2372C6.84101 19.8239 7.36155 19.3581 7.88642 18.8332Z" fill="url(#paint1_linear_4914_60)"/>
<path d="M11.999 22C17.5218 22 21.999 17.5228 21.999 12C21.999 7.83158 19.4485 4.25884 15.823 2.75719C17.6941 4.04164 18.8293 6.11756 18.8293 9.38316C18.8293 14.2993 15.6817 19.0617 10.9609 21.9468C11.3021 21.982 11.6484 22 11.999 22Z" fill="#D9D9D9"/>
<defs>
<linearGradient id="paint0_linear_4914_60" x1="41.5934" y1="2" x2="41.5934" y2="22" gradientUnits="userSpaceOnUse">
<stop stop-color="#739EFA"/>
<stop offset="1" stop-color="#1538C2"/>
</linearGradient>
<linearGradient id="paint1_linear_4914_60" x1="41.5936" y1="2" x2="41.5936" y2="22" gradientUnits="userSpaceOnUse">
<stop stop-color="#3F4042"/>
<stop offset="1" stop-color="#1F2021"/>
</linearGradient>
</defs>
</svg>
