<svg xmlns="http://www.w3.org/2000/svg" width="24" height="24" viewBox="0 0 24 24" fill="none"><rect width="24" height="24" fill="none"/>
<path d="M23 5.95001C17.7436 9.10713 11.9236 11.7487 7.36958 13.5811C7.36715 14.9508 6.7483 16.5172 4.8895 18.0208C8.07741 17.6153 12.5702 13.0206 23 5.95001Z" fill="#1D4887"/>
<path d="M23 5.95001C19.2077 8.01816 10.0755 9.60209 5.98343 10.1355C6.63917 10.8234 7.37223 12.0848 7.36958 13.5811C11.9236 11.7487 17.7436 9.10713 23 5.95001Z" fill="#1D4887"/>
<path d="M1 15.9214C2.31026 17.5518 3.47063 18.2012 4.8895 18.0208C6.7483 16.5172 7.36715 14.9508 7.36958 13.5811C4.6786 14.6639 2.4296 15.4642 1 15.9214Z" fill="#CBC9C9"/>
</svg>
