<svg xmlns="http://www.w3.org/2000/svg" width="46" height="24" viewBox="0 0 46 24" fill="none"><rect width="46" height="24" fill="none"/>
<path d="M2 2H22V22H2V2Z" fill="#011689"/>
<path d="M15.1841 16.5404C14.9906 16.5898 14.9434 16.6675 14.977 16.7152C15.0114 16.7607 15.1841 16.7259 15.2743 16.684C15.366 16.641 15.3882 16.5898 15.357 16.5425C15.332 16.5049 15.2138 16.5332 15.1841 16.5404ZM13.65 7.51819C13.7471 7.52607 13.7396 7.52356 13.7786 7.53036C13.8012 7.49813 13.972 7.2492 13.9871 7.19727C14.0046 7.14713 13.9638 7.10845 13.9247 7.1063C13.8864 7.10415 13.8098 7.10845 13.7578 7.15608C13.7023 7.20622 13.6679 7.43151 13.65 7.51819ZM16.5834 10.5619C16.375 10.4856 16.1608 10.5279 15.9545 10.6099L15.9348 10.6536C15.8954 10.7388 15.8406 10.804 15.7808 10.8556C15.8882 10.9329 16.1353 11.0089 16.4022 11.0003C16.6704 10.9942 16.9029 10.8033 16.9029 10.8033C16.8492 10.7266 16.794 10.6385 16.5834 10.5619ZM16.2084 11.7331C16.1271 11.5898 15.8918 11.5633 15.6934 11.4054L15.6805 11.4469L15.6357 11.4577C15.5041 11.4905 15.3665 11.4912 15.2346 11.4598C15.2482 11.492 15.2589 11.54 15.2639 11.5655C15.4011 11.7338 15.5952 11.852 15.8528 11.8821C16.1092 11.9107 16.2084 11.7331 16.2084 11.7331ZM15.7188 10.4426C15.8495 10.4856 15.9684 10.5071 16.2919 10.4247C16.6357 10.3352 16.6848 10.0759 16.6848 10.0759C16.534 9.97879 16.3399 9.97986 16.2414 10.0175C16.1425 10.0533 15.9183 10.0533 15.823 10.0318C15.7902 10.1779 15.7115 10.3097 15.5985 10.4079C15.6436 10.4168 15.683 10.4294 15.7188 10.4426ZM15.9953 14.5651C16.1998 14.3807 16.3291 14.1915 16.2088 14.064C16.0891 13.9362 15.8864 14.0472 15.6808 14.2313C15.476 14.4154 15.347 14.6041 15.4663 14.7313C15.5773 14.8502 15.7904 14.7492 15.9953 14.5651ZM15.4778 14.0508C15.7356 13.6038 15.4247 13.0049 15.1647 12.588C15.1317 12.5756 15.0994 12.5613 15.068 12.545C15.159 12.866 15.3323 13.2474 15.2611 13.5415C15.0343 13.2775 14.9674 12.4863 14.9674 12.4863C14.9214 12.4567 14.8777 12.4238 14.8366 12.3878C14.8366 12.4158 14.8352 12.4462 14.8331 12.4759C14.8646 12.9526 14.9043 13.4426 15.0555 13.6869C15.2045 13.9269 15.4778 14.0508 15.4778 14.0508ZM14.9237 12.3592C15.0712 12.4741 15.27 12.5837 15.4892 12.5511C15.4892 12.5511 15.5397 12.39 15.1031 11.9945C14.9797 11.9798 14.8619 11.9346 14.7603 11.8631C14.7424 11.9136 14.7127 11.9813 14.7346 12.078C14.756 12.1754 14.8241 12.2818 14.9237 12.3592ZM16.5057 9.74813C16.6934 9.58122 16.8545 9.16933 16.8545 9.16933C16.6819 9.19082 16.3459 9.33839 16.1425 9.44978C15.9555 9.55293 15.6937 9.76855 15.5827 9.84842C15.7138 9.85845 15.7904 9.90465 15.7972 9.90859L15.8416 9.93688C16.1755 9.98488 16.3116 9.92005 16.5057 9.74813ZM15.7356 12.3681L15.7256 12.367C15.6497 12.369 15.5741 12.3573 15.5025 12.3323C15.5222 12.366 15.5372 12.3968 15.5472 12.4233C16.2629 13.0766 16.2012 13.3989 16.2012 13.3989C15.9573 13.2599 15.6869 12.8617 15.5505 12.6192L15.501 12.6264C15.4424 12.6356 15.3827 12.6365 15.3237 12.6289C15.4169 12.7148 15.553 12.9577 15.7754 13.3423C15.996 13.7281 16.5343 13.8925 16.5343 13.8925C16.5895 13.2392 16.0096 12.6364 15.7356 12.3681ZM15.6461 11.9043C15.4706 11.7897 15.3882 11.7675 15.2686 11.7252C15.251 11.8685 15.1808 11.9587 15.1751 11.9663C15.2267 12.0257 15.4115 12.3352 15.7987 12.2839C15.7987 12.2839 15.9018 12.0726 15.6461 11.9043ZM14.6669 9.75529C14.5297 9.84698 14.3785 10.0372 14.4935 10.3047C14.6081 10.5726 14.8252 10.9523 14.6952 11.1006C14.5659 11.2488 14.1049 11.3259 13.7295 11.1786C13.7295 11.1786 13.6511 11.41 13.5146 11.5583C13.5146 11.5583 13.5784 11.6862 13.7951 11.6221C13.7951 11.6221 13.7159 11.8119 13.8237 12.0168C13.8237 12.0168 14.0759 11.9738 14.1833 11.7488C14.1833 11.7488 14.2843 11.924 14.4867 11.9881C14.4867 11.9881 14.6529 11.9043 14.6164 11.5787C14.6164 11.5787 14.7381 11.8688 15.1135 11.9172C15.1135 11.9172 15.3295 11.6504 15.0483 11.2904C15.0483 11.2904 15.25 11.467 15.6174 11.3821C15.6174 11.3821 15.6747 11.1994 15.3427 10.9458C15.3427 10.9458 15.7188 10.9315 15.8631 10.6217C15.8631 10.6217 15.7038 10.4308 15.3155 10.4738C15.3155 10.4738 15.6751 10.3961 15.7543 9.97377C15.7543 9.97377 15.4949 9.81153 15.0848 10.0719C15.0848 10.0719 15.1565 9.93867 15.3291 9.80508C15.5021 9.67041 15.7116 9.29756 15.6386 8.74849C15.5021 9.04362 15.2775 9.34663 14.6669 9.75529ZM14.6622 6.87743C14.7446 6.89892 14.7625 6.89319 14.8019 6.88925C14.8063 6.86233 14.8045 6.83475 14.7965 6.80866C14.7965 6.80866 14.6013 6.62241 14.4369 6.59054C14.4021 6.5828 14.366 6.58318 14.3313 6.59162C14.2967 6.60007 14.2644 6.61636 14.2371 6.63925C14.2371 6.63925 14.2954 6.63388 14.3832 6.70372C14.4709 6.77284 14.5795 6.85701 14.6622 6.87743ZM14.3094 7.429C14.3058 7.48022 14.2689 7.53395 14.226 7.57764C14.226 7.57764 14.4656 7.52249 14.4942 7.37743C14.5207 7.24849 14.4649 7.15787 14.4255 7.08624C14.3896 7.01819 14.279 6.86167 14.2514 6.79612C14.2263 6.73667 14.2124 6.68688 14.2213 6.65393C14.1482 6.72592 14.0863 6.80186 14.0877 6.86883C14.0884 6.93653 14.1701 7.10845 14.2124 7.17363C14.2553 7.23918 14.3173 7.32478 14.3094 7.429ZM14.7754 7.19047C14.7109 7.31439 14.6805 7.51926 14.7346 7.66074C14.7775 7.77535 14.8119 7.93832 14.8148 7.98953C14.9043 7.8588 14.933 7.71912 14.9144 7.58803C14.9033 7.51102 14.8936 7.38423 14.9427 7.28717C14.9831 7.20622 15.0687 7.06153 15.0569 6.9179C14.9856 6.8742 14.8613 6.83337 14.8613 6.83337C14.8732 6.95802 14.8381 7.07048 14.7754 7.19047ZM13.8857 8.06224C13.8857 8.06224 14.0433 7.9462 14.0813 7.84806C14.1199 7.751 14.13 7.68294 13.972 7.73022C13.9641 7.84526 13.9346 7.95783 13.8857 8.06224ZM16.3954 8.9881C16.5816 8.66862 16.4831 8.26353 16.4831 8.26353C16.1131 8.36024 15.924 8.67077 15.8707 8.75959C15.818 8.84806 15.7295 9.19082 15.6901 9.32908C15.6422 9.49849 15.578 9.64283 15.4953 9.7467C15.9058 9.55544 16.2342 9.26496 16.3954 8.9881ZM14.9928 7.57764C14.9957 7.60486 14.9978 7.63208 14.9989 7.66074C15.0712 7.53825 15.2818 7.66432 15.2818 7.66432C15.1493 7.45694 15.0848 7.43438 14.9889 7.3982C14.9813 7.44834 14.9835 7.50744 14.9928 7.57764ZM16.9749 9.07478L16.8656 9.38531C17.155 9.15986 17.4479 8.93896 17.7442 8.7227C17.9147 8.59698 18.1701 8.41754 18.4247 8.33373C18.4247 8.33373 18.1905 8.63137 18.0014 8.7775C17.784 8.9462 17.5623 9.09233 17.3789 9.18975C17.2174 9.27678 17.1346 9.32585 16.8062 9.4813C16.7836 9.52141 16.7156 9.61561 16.6891 9.6525C17.5916 9.50565 18.5845 8.83767 18.8911 8.42399C19.1991 8.01031 19.1113 7.39283 19.1113 7.39283C18.813 7.45085 18.1665 7.9967 17.9992 8.1611C17.8316 8.32478 17.3259 8.80651 16.9749 9.07478ZM16.2453 9.31296C16.3155 9.27857 16.3961 9.24168 16.4774 9.20837L16.5526 9.17793C17.2195 8.83194 17.8803 8.11561 18.1479 7.61776C18.4147 7.11955 18.3048 6.54111 18.2338 6.23165C17.9308 6.48237 17.4953 6.97664 17.3051 7.24527C17.0716 7.57478 16.7725 8.04147 16.587 8.42148V8.43259C16.5884 8.47198 16.5895 8.51496 16.5877 8.56045L16.5798 8.65966C16.7987 8.3871 17.0608 8.05866 17.3101 7.75458C17.4813 7.54684 17.6267 7.42112 17.7868 7.31976C17.6515 7.70479 17.4097 8.01246 17.2371 8.16575C17.0662 8.31833 16.818 8.57657 16.5755 8.73488L16.5515 8.81296C16.5321 8.88788 16.5026 8.95981 16.4638 9.02678C16.4068 9.1242 16.3334 9.21984 16.2453 9.31296ZM19.7138 9.07299C19.0068 9.05472 18.4351 9.22342 17.9942 9.35594C17.4788 9.50995 16.6927 9.7972 16.4179 9.91718C16.5211 9.92041 16.6339 9.95014 16.7295 10.0121C17.1131 9.86883 17.2919 9.80723 17.6407 9.71231C17.9154 9.63674 18.1189 9.6217 18.2911 9.60558C18.2911 9.60558 18.049 9.7621 17.65 9.88638C17.2543 10.0099 17.0841 10.0311 16.7629 10.0909C16.7611 10.1024 16.7131 10.3262 16.4477 10.4498C17.0182 10.2062 18.1432 10.0655 18.7471 9.81941C19.5644 9.48703 19.7138 9.07299 19.7138 9.07299ZM14.5333 12.9204C14.5333 12.9204 14.6773 12.766 14.7188 12.6389C14.7683 12.4939 14.7703 12.337 14.7245 12.1908C14.6989 12.1135 14.6587 12.0418 14.6063 11.9795C14.5839 12.0106 14.5555 12.0371 14.5229 12.0572L14.4935 12.0716L14.462 12.0615C14.4361 12.0537 14.411 12.0438 14.3868 12.0318C14.3545 12.1188 14.3424 12.1607 14.3338 12.2345C14.323 12.3327 14.3037 12.4877 14.3406 12.6138C14.3871 12.7678 14.4803 12.862 14.5333 12.9204ZM16.6651 11.477C16.5433 11.1242 16.3015 11.0698 16.0644 11.0264C15.8922 10.9904 15.7146 10.988 15.5415 11.0193C15.6174 11.1027 15.6436 11.1847 15.6805 11.2377C15.7969 11.4036 16.0014 11.5014 16.2353 11.5493C16.5118 11.6038 16.6651 11.477 16.6651 11.477ZM12.3295 8.65357C12.4118 8.57334 12.5129 8.45372 12.5512 8.33946C12.5512 8.33946 12.3871 8.34197 12.3105 8.39176C12.2113 8.45551 12.1164 8.59483 12.0805 8.76174C12.0805 8.76174 12.2471 8.7338 12.3295 8.65357ZM11.6894 8.39176C11.6128 8.34197 11.448 8.33946 11.448 8.33946C11.4867 8.45408 11.5881 8.57334 11.6708 8.65357C11.7525 8.7338 11.9183 8.76174 11.9183 8.76174C11.8821 8.59483 11.7883 8.45551 11.6894 8.39176ZM9.71092 8.20049C9.70249 8.20049 9.69414 8.19882 9.68635 8.19557C9.67857 8.19232 9.67151 8.18756 9.66558 8.18157C9.65965 8.17557 9.65497 8.16846 9.65181 8.16064C9.64865 8.15282 9.64707 8.14446 9.64716 8.13602C9.64716 8.10021 9.67582 8.07155 9.71092 8.07155C9.74817 8.07155 9.77789 8.10021 9.77789 8.13602C9.77789 8.17184 9.74817 8.20049 9.71092 8.20049ZM9.75103 7.85415C9.66257 7.83337 9.47596 7.8126 9.39358 7.93151C9.31049 8.04971 9.34236 8.27356 9.50784 8.36489C9.50784 8.36489 9.75999 8.1525 10.0659 8.36382C10.0659 8.36382 10.1364 8.31869 10.2962 8.28359C10.2962 8.28359 10.2023 8.17184 10.097 8.12528C10.0021 8.08302 9.80691 8.0275 9.75103 7.85415ZM10.5372 10.8724C10.6339 10.8724 10.78 10.7954 10.9598 10.5733C11.2256 10.2463 11.2861 9.80508 11.2861 9.80508C11.0139 10.2506 10.7428 10.4824 10.5315 10.4702C10.3442 10.4605 10.2575 10.1962 10.2575 10.1962C10.1629 10.2707 10.1464 10.4827 10.1966 10.6178C10.2449 10.7539 10.3914 10.8724 10.5372 10.8724ZM10.524 8.53144C10.4423 8.46697 10.3309 8.32191 10.3309 8.32191C10.1851 8.35522 10.0823 8.37385 9.96987 8.52356C9.866 8.66217 10.0086 8.87528 10.0086 8.87528C10.1124 8.5275 10.524 8.53144 10.524 8.53144ZM13.8255 13.2152C13.7159 13.7549 13.8864 13.9766 13.8864 13.9766C14.1694 13.645 14.193 13.2997 14.2575 12.7875C14.2263 12.8552 14.1858 12.9261 14.1314 12.996C14.0569 13.5128 13.9538 13.5848 13.9538 13.5848C13.9136 13.3653 13.9788 13.1461 13.9788 13.1461C13.9315 13.1767 13.8798 13.2 13.8255 13.2152ZM14.2603 11.9519C14.2331 11.9283 14.2095 11.9054 14.1887 11.8846C14.1479 11.9355 14.0089 12.1052 13.9405 12.2754C13.8882 12.42 13.8331 12.617 13.8058 12.7295C13.7772 12.8416 13.6948 13.0769 13.645 13.1572C13.645 13.1572 13.8653 13.1844 14.0283 12.9981C14.1884 12.8155 14.2421 12.6324 14.2682 12.444C14.2868 12.2972 14.2815 12.0923 14.2603 11.9519ZM14.2217 8.13602C14.2217 8.10021 14.2517 8.07155 14.2868 8.07155C14.3227 8.07155 14.3531 8.10021 14.3531 8.13602C14.3531 8.17184 14.323 8.20049 14.2868 8.20049C14.2697 8.2005 14.2532 8.19373 14.241 8.18166C14.2288 8.16959 14.2219 8.15319 14.2217 8.13602ZM14.4906 8.36525C14.6568 8.27356 14.6894 8.04971 14.606 7.93187C14.5236 7.8126 14.337 7.83337 14.2478 7.85415C14.1923 8.0275 13.9964 8.08337 13.9025 8.12528C13.7965 8.17184 13.702 8.28359 13.702 8.28359C13.8617 8.31869 13.9333 8.36382 13.9333 8.36382C14.0136 8.30309 14.1115 8.27031 14.2122 8.2705C14.3128 8.2707 14.4106 8.30421 14.4906 8.36525ZM13.9906 8.87528C13.9906 8.87528 14.1336 8.66217 14.029 8.5232C13.9172 8.37385 13.8144 8.35486 13.6679 8.32191C13.6679 8.32191 13.5576 8.46697 13.476 8.53144C13.476 8.53144 13.8871 8.5275 13.9906 8.87528ZM13.7424 10.1962C13.7424 10.1962 13.655 10.4605 13.4681 10.4702C13.2575 10.4824 12.9856 10.2506 12.7134 9.80508C12.7134 9.80508 12.7736 10.2463 13.0394 10.5733C13.2184 10.7954 13.3653 10.8724 13.4616 10.8724C13.6071 10.8724 13.7539 10.7539 13.8033 10.6178C13.8517 10.4824 13.8366 10.2707 13.7424 10.1962ZM13.6672 14.8352C13.7804 14.765 13.8964 14.7306 13.919 14.7238C13.8187 14.6593 13.7328 14.6174 13.664 14.5902C13.5942 14.5626 13.4967 14.5382 13.4967 14.5382C13.4516 14.5526 13.3714 14.5597 13.3714 14.5597C13.4656 14.5798 13.568 14.7277 13.5916 14.7711C13.6167 14.8165 13.6672 14.8352 13.6672 14.8352ZM13.4641 15.1618C13.5043 15.1428 13.5866 15.0705 13.5591 14.9183C13.529 14.7403 13.2654 14.5622 13.2654 14.5622C13.2245 14.5632 13.1839 14.5544 13.1472 14.5365C13.0971 14.5631 13.0506 14.5958 13.0086 14.6339C13.0884 14.6206 13.2188 14.6557 13.2915 14.7091C13.3463 14.7492 13.4358 14.8882 13.3807 14.9845C13.3252 15.0798 13.1225 15.0142 13.1225 15.0142C13.2414 15.2549 13.4244 15.1815 13.4641 15.1618ZM13.8259 14.9469C13.8853 14.9351 13.9756 14.9899 13.9756 14.9899C13.9756 14.9444 13.9573 14.8996 14.0093 14.8663C14.0583 14.8355 14.2582 14.8724 14.3424 14.8581C14.3832 14.8509 14.399 14.8276 14.3879 14.8044C14.3621 14.7453 14.3134 14.6908 14.3134 14.6908C14.2166 14.7188 13.9176 14.7968 13.8098 14.8473C13.7439 14.8778 13.6346 14.9362 13.6149 14.9899C13.5877 15.063 13.6239 15.0984 13.6525 15.131C13.6977 15.0014 13.7471 14.9634 13.8259 14.9469ZM14.621 12.9433C14.703 13.4917 14.5698 13.5905 14.5698 13.5905C14.4369 13.3344 14.4806 12.9727 14.4806 12.9727C14.448 12.9347 14.3803 12.8667 14.3409 12.8026C14.4058 13.9451 14.5895 14.0766 14.5895 14.0766C14.8578 13.8316 14.7779 13.0486 14.7543 12.751C14.7152 12.8187 14.6706 12.883 14.621 12.9433ZM13.3452 16.3198C13.03 16.1539 12.7209 15.9 12.4419 15.4981C12.4348 15.4844 12.4265 15.4712 12.4172 15.4587C12.4172 15.4587 12.3126 15.4838 12.2303 15.448L12.284 15.5354C12.5838 15.9824 12.9151 16.2625 13.2546 16.444L13.3452 16.3198ZM9.7385 11.9519C9.7188 12.0923 9.71128 12.2972 9.73205 12.444C9.75712 12.6324 9.81085 12.8155 9.97095 12.9981C10.1336 13.1844 10.3535 13.1572 10.3535 13.1572C10.3033 13.0769 10.2217 12.8416 10.1941 12.7295C10.1559 12.5762 10.1111 12.4247 10.0598 12.2754C9.99065 12.1056 9.85096 11.9355 9.80906 11.8849C9.79043 11.905 9.76643 11.9279 9.7385 11.9519ZM10.6421 11.2904C10.6726 11.2055 10.6518 10.953 10.6518 10.953C10.4896 11.0271 10.2958 10.9265 10.2958 10.9265C10.298 11.1199 10.4548 11.386 10.5035 11.4587C10.5823 11.4004 10.6156 11.3599 10.6421 11.2904ZM9.61099 14.8044C9.59989 14.8276 9.61457 14.8509 9.65684 14.8581C9.74029 14.8724 9.94014 14.8355 9.98957 14.8663C10.0411 14.8996 10.0222 14.9448 10.0222 14.9899C10.0222 14.9899 10.1139 14.9351 10.1715 14.9469C10.2517 14.9637 10.3001 15.0014 10.3456 15.131C10.3746 15.0988 10.4108 15.063 10.3828 14.9899C10.3639 14.9362 10.2546 14.8778 10.1894 14.8473C10.082 14.7972 9.78327 14.7184 9.68513 14.6908C9.68513 14.6908 9.63606 14.7453 9.61099 14.8044ZM10.0401 15.9423L11.0193 17.2839L11.1346 17.1124C10.7378 16.5701 10.2482 15.8982 10.1984 15.8301L10.3524 15.7227L9.86779 15.5408L9.87603 16.0579L10.0401 15.9423ZM9.61206 12.0322C9.5876 12.0444 9.56207 12.0543 9.53578 12.0619L9.50569 12.0723L9.4756 12.0576C9.47166 12.0551 9.43262 12.0332 9.39179 11.9799C9.3397 12.0421 9.30016 12.1139 9.27539 12.1912C9.22238 12.3498 9.23742 12.5057 9.2804 12.6389C9.32123 12.766 9.46522 12.9208 9.46522 12.9208C9.51715 12.8624 9.61206 12.7685 9.65791 12.6142C9.69516 12.4881 9.67546 12.333 9.66507 12.2349C9.65791 12.1607 9.64466 12.1192 9.61206 12.0322ZM9.65791 12.8022C9.61923 12.8667 9.55046 12.9347 9.51715 12.9727C9.51715 12.9727 9.56192 13.3344 9.42904 13.5905C9.42904 13.5905 9.29616 13.4917 9.37818 12.9433C9.32904 12.8826 9.2845 12.8183 9.24494 12.751C9.22166 13.0483 9.14108 13.8316 9.4097 14.0766C9.4097 14.0766 9.59344 13.9448 9.65791 12.8022ZM13.347 10.953C13.347 10.953 13.3262 11.2055 13.3578 11.2904C13.3828 11.3599 13.4165 11.4004 13.4946 11.4587C13.544 11.386 13.702 11.1203 13.7038 10.9265C13.7038 10.9265 13.5096 11.0271 13.347 10.953ZM9.56944 16.6382C9.41113 16.6618 9.25784 16.6697 9.1092 16.6629C9.11171 16.6869 9.11171 16.7184 9.09738 16.7417C9.09738 16.7417 9.12747 16.7757 9.12747 16.8133C9.27718 16.8183 9.4337 16.8097 9.59308 16.7857C9.85812 16.7463 10.1368 16.6937 10.4169 16.5902L10.3241 16.463C10.0677 16.5533 9.81192 16.602 9.56944 16.6382ZM8.76464 16.8724C8.71728 16.9249 8.67188 16.9792 8.62854 17.035C8.61887 17.0529 8.63463 17.0812 8.66364 17.0773C8.69158 17.0744 8.8481 17.059 8.93764 16.9996C9.02718 16.9394 9.08699 16.8237 9.02503 16.7822C8.96343 16.7403 8.86744 16.7603 8.76464 16.8724ZM11.6293 17.7893C11.5909 17.7381 11.4881 17.5973 11.3535 17.4132L11.2389 17.5834L11.6457 18.1407L11.9538 17.6049L11.8449 17.4132C11.7643 17.5544 11.678 17.7055 11.6293 17.7893ZM14.1214 16.0572L14.1314 15.54L13.645 15.7216L13.7994 15.8294L12.3696 17.7897L11.6425 16.5014L11.553 16.6357L10.9061 17.5913L10.7439 17.486L10.7421 17.9938L11.2331 17.8036L11.0684 17.6973C11.1576 17.5647 11.5089 17.0472 11.6257 16.8731L12.3531 18.1407L13.9584 15.9415L14.1214 16.0572ZM8.1289 12.3151C8.12317 12.3033 8.11959 12.2908 8.11672 12.2829C8.10547 12.2457 8.10027 12.207 8.10132 12.1683C7.49172 12.8044 7.13821 12.9132 7.13821 12.9132C7.36457 12.4666 7.92295 12.1897 8.116 12.0827C8.12889 12.0359 8.15105 11.9921 8.18119 11.9541C8.17331 11.9566 8.16471 11.9569 8.15612 11.9577C8.04867 11.9706 7.96307 11.9516 7.89824 11.9233C7.64394 12.1034 7.29831 12.3767 7.02789 12.6754C6.75748 12.9745 6.66042 13.2514 6.61099 13.602C6.61099 13.602 7.116 13.5844 7.43549 13.1521C7.75426 12.7191 7.91364 12.5218 8.1289 12.3151ZM7.79258 11.8545C7.77504 11.8389 7.7592 11.8215 7.7453 11.8026C7.7453 11.8026 7.18728 12.2847 6.5981 12.4938C6.5981 12.4938 6.72345 12.27 6.95734 12.1077C7.241 11.9107 7.4534 11.8448 7.70161 11.7324L7.72202 11.6955C7.7299 11.6829 7.73635 11.6718 7.7453 11.6615C7.53721 11.7399 6.79759 12.0128 6.55834 12.1342C6.31837 12.2557 5.97238 12.5307 5.78398 13.0905C5.78398 13.0905 6.28327 13.1339 6.69516 12.8008C7.10705 12.4666 7.58735 12.0021 7.79258 11.8545ZM8.73671 16.7352C8.71478 16.7222 8.69026 16.7142 8.66488 16.7117C8.6395 16.7092 8.61389 16.7124 8.58986 16.7209C8.52754 16.7431 8.30082 16.8735 8.28613 16.9355C8.27037 16.9967 8.30189 17.0268 8.33735 17.0408C8.37209 17.054 8.41436 17.0669 8.44588 17.0708C8.47263 17.0716 8.49921 17.0663 8.52368 17.0555C8.54816 17.0446 8.56991 17.0285 8.58735 17.0082C8.616 16.9723 8.72238 16.8481 8.73671 16.8187C8.75211 16.7918 8.75999 16.7506 8.73671 16.7352ZM13.0927 17.5913L12.9778 17.4201L12.8553 17.5855C12.8882 17.6328 12.9129 17.6718 12.9301 17.6976L12.7654 17.804L13.2575 17.9942L13.2546 17.486L13.0927 17.5913ZM8.57338 16.477C8.57195 16.4193 8.51966 16.4043 8.47202 16.4043C8.42474 16.4043 8.22668 16.4089 8.12102 16.3316C8.11403 16.3266 8.10744 16.3211 8.10132 16.3151C7.99244 16.222 7.93047 16.0787 7.93047 15.9211C7.93047 15.6206 8.18083 15.3746 8.48993 15.3746C8.79867 15.3746 9.04795 15.6206 9.04795 15.9215C9.04795 15.962 9.04007 16.0296 9.04007 16.0296C9.0655 15.9824 9.15755 15.7736 9.17618 15.7352C9.13253 15.5874 9.04199 15.4577 8.9182 15.3657C8.79442 15.2738 8.64411 15.2246 8.48993 15.2256C8.20805 15.2256 7.96486 15.3853 7.84881 15.6174C7.89251 15.3416 8.03327 15.093 8.13248 15.0017C8.25175 14.8921 8.45375 14.8567 8.45375 14.8567C8.32123 14.8781 8.14573 14.7979 7.95017 14.6217C7.76393 14.4559 7.66937 14.3097 7.66364 14.1883C7.67474 14.3599 7.66937 14.4559 7.61923 14.5959C7.55225 14.7857 7.36779 15.1378 7.43406 15.5343C7.46987 15.7521 7.63105 16.0762 7.90182 16.3413C7.95913 16.4007 7.98026 16.4888 7.98742 16.5336C7.98742 16.5336 8.38535 16.5336 8.47954 16.5429C8.47954 16.5429 8.57446 16.5336 8.57338 16.477ZM8.50247 16.5873C8.4559 16.5802 8.30655 16.5841 8.21701 16.5966C8.11923 16.6127 8.00784 16.6314 7.99566 16.6844C7.98492 16.7352 8.02037 16.7875 8.07016 16.8642C8.10024 16.9115 8.17331 16.8839 8.21343 16.8692C8.2539 16.8549 8.4842 16.7342 8.52073 16.6944C8.55762 16.655 8.57302 16.5991 8.50247 16.5873ZM17.4416 12.1346C17.2027 12.0132 16.4624 11.7403 16.255 11.6618C16.2629 11.6726 16.27 11.6833 16.2772 11.6958L16.2987 11.7327C16.5469 11.8452 16.7586 11.9111 17.0437 12.1081C17.2754 12.2703 17.4011 12.4942 17.4011 12.4942C16.8123 12.285 16.255 11.8029 16.255 11.8029C16.2404 11.8215 16.2244 11.8389 16.207 11.8549C16.4111 12.0024 16.8922 12.467 17.3037 12.8011C17.7159 13.1342 18.2141 13.0909 18.2141 13.0909C18.0265 12.5311 17.6805 12.256 17.4416 12.1346ZM17.8241 11.5486C17.5512 11.4673 16.9405 11.3957 16.6962 11.3473C16.7052 11.3645 16.7131 11.3824 16.7209 11.4021C16.923 11.4534 17.1876 11.5433 17.4294 11.6414C17.6515 11.7334 17.8635 11.8792 17.8635 11.8792C17.4348 11.8678 17.0021 11.7019 16.679 11.5608C16.601 11.6061 16.5134 11.6324 16.4233 11.6375C16.578 11.6776 16.8309 11.7549 17.6411 12.1281C18.4523 12.5006 18.8814 12.3717 18.8814 12.3717C18.5888 11.8251 18.0952 11.6303 17.8241 11.5486ZM13.5222 6.99383H13.6285V6.82549H13.7621V6.73488H13.6285V6.5909H13.5222V6.73488H13.3896V6.82514H13.5222V6.99383ZM16.9523 10.8635C16.9487 10.867 16.9058 10.9007 16.8381 10.9408C17.1307 10.9663 17.7528 10.9945 18.0737 11.1546C18.0737 11.1546 17.4813 11.2313 16.7009 11.0099C16.6214 11.0458 16.5608 11.064 16.4573 11.0748C16.5136 11.1106 16.5677 11.1557 16.6156 11.217C16.9011 11.2979 17.3871 11.3853 18.1905 11.4419C18.9935 11.4978 19.4215 11.3545 19.4215 11.3545C19.1422 11.1872 18.6962 11.0175 18.3947 10.9605C18.092 10.9032 17.3001 10.9097 16.9523 10.8635ZM7.57589 11.6375C7.48589 11.6325 7.39835 11.6063 7.32052 11.5608C6.99745 11.7019 6.56479 11.8678 6.13606 11.8796C6.13606 11.8796 6.34738 11.7334 6.5698 11.6414C6.80027 11.5464 7.03668 11.4665 7.27754 11.4021C7.28544 11.3837 7.2938 11.3654 7.30261 11.3473C7.05834 11.3953 6.44874 11.4673 6.17582 11.549C5.90361 11.6307 5.41042 11.8251 5.11815 12.3713C5.11815 12.3713 5.54724 12.5006 6.35741 12.1281C7.16722 11.7549 7.42152 11.6776 7.57589 11.6375ZM16.101 11.9236C16.0197 11.9581 15.9306 11.97 15.8431 11.958C15.8346 11.9577 15.8262 11.9565 15.818 11.9544C15.8517 11.9985 15.8717 12.0422 15.8836 12.0834C16.0759 12.1905 16.6357 12.4666 16.8613 12.914C16.8613 12.914 16.5075 12.8047 15.8972 12.169C15.8996 12.2193 15.8905 12.2695 15.8707 12.3158C16.0852 12.5218 16.2449 12.7198 16.5637 13.1525C16.8825 13.5848 17.3879 13.6024 17.3879 13.6024C17.3395 13.2517 17.2421 12.9748 16.9713 12.6761C16.7009 12.3771 16.3556 12.1038 16.101 11.9236ZM15.4097 16.7206C15.3854 16.7121 15.3595 16.7091 15.3339 16.7116C15.3083 16.7141 15.2836 16.7222 15.2614 16.7352C15.2396 16.7503 15.2471 16.7918 15.2614 16.8187C15.2783 16.8481 15.3832 16.9727 15.4126 17.0082C15.4299 17.0283 15.4515 17.0444 15.4757 17.0553C15.5 17.0661 15.5264 17.0714 15.553 17.0708C15.5902 17.0648 15.6268 17.0547 15.6618 17.0408C15.697 17.0264 15.7281 16.9967 15.7134 16.9355C15.6977 16.8735 15.4713 16.7431 15.4097 16.7206ZM14.9749 16.7825C14.9129 16.8241 14.9724 16.9397 15.0619 16.9999C15.1515 17.0594 15.3069 17.0748 15.3359 17.0776C15.3642 17.0812 15.3814 17.0529 15.3703 17.0354C15.3271 16.9796 15.2819 16.9254 15.2349 16.8728C15.131 16.7607 15.0351 16.741 14.9749 16.7825ZM16.3356 14.188C16.3309 14.3094 16.2346 14.4551 16.049 14.6213C15.8528 14.7976 15.6776 14.8774 15.5454 14.8563C15.5454 14.8563 15.7478 14.8914 15.8667 15.0014C15.967 15.0927 16.106 15.3413 16.1497 15.617C16.09 15.4987 15.9985 15.3993 15.8854 15.3301C15.7723 15.2608 15.6422 15.2245 15.5096 15.2252C15.3553 15.2239 15.2048 15.2729 15.0809 15.3649C14.957 15.4569 14.8664 15.5868 14.823 15.7349C14.8409 15.7732 14.9341 15.982 14.9591 16.0293C14.9591 16.0293 14.9512 15.9616 14.9512 15.9211C14.9512 15.6203 15.2012 15.3738 15.5096 15.3738C15.8184 15.3738 16.0694 15.6203 16.0694 15.9211C16.0694 16.0787 16.006 16.222 15.8975 16.3147C15.8907 16.3205 15.8857 16.3255 15.8785 16.3312C15.7729 16.4086 15.5741 16.4039 15.5275 16.4039C15.4799 16.4039 15.428 16.419 15.4262 16.4766C15.4247 16.5332 15.5186 16.5425 15.5186 16.5425C15.6139 16.5332 16.0121 16.5332 16.0121 16.5332C16.0186 16.4885 16.0404 16.4004 16.0985 16.3409C16.3682 16.0759 16.5297 15.7517 16.5659 15.5339C16.6314 15.1375 16.4466 14.7854 16.3785 14.5956C16.3291 14.4559 16.3245 14.3595 16.3356 14.188ZM14.89 16.6629C14.7428 16.67 14.5881 16.6622 14.4294 16.6385C14.1873 16.6024 13.9315 16.5536 13.6751 16.463L13.5827 16.5898C13.8624 16.694 14.1425 16.7471 14.4065 16.7861C14.5666 16.8105 14.7217 16.8187 14.8732 16.814C14.8732 16.7761 14.9018 16.7417 14.9018 16.7417C14.89 16.7172 14.8859 16.6897 14.89 16.6629ZM15.7818 16.5963C15.6934 16.5837 15.544 16.5794 15.4964 16.587C15.4265 16.5984 15.4423 16.655 15.4778 16.6944C15.5154 16.7338 15.7457 16.8545 15.7861 16.8688C15.8255 16.8835 15.8982 16.9111 15.9301 16.8638C15.9792 16.7872 16.0143 16.7349 16.0039 16.684C15.9917 16.631 15.88 16.6124 15.7818 16.5963ZM18.4165 10.1235C17.577 10.1772 17.0182 10.3695 16.6124 10.4899C16.6722 10.5114 16.7206 10.535 16.7611 10.5579C17.669 10.3058 18.3155 10.4369 18.3155 10.4369C18.0505 10.5239 17.3094 10.6364 16.8639 10.6339C16.9086 10.6751 16.9376 10.7163 16.9624 10.7531C17.3427 10.7496 17.8639 10.8362 18.5053 10.6994C19.1468 10.5633 19.7073 10.1772 19.7073 10.1772C19.4781 10.1188 19.0326 10.0841 18.4165 10.1235ZM11.7453 7.00422C11.7199 6.82155 11.6525 6.38173 11.5798 6.32728C11.5422 6.29971 11.4932 6.30257 11.438 6.31941C11.3818 6.3366 11.3223 6.37313 11.3198 6.42112C11.3162 6.50171 11.4104 6.7424 11.5494 7.06761C11.6318 7.02678 11.6747 7.01747 11.7453 7.00422ZM5.80906 11.4419C6.61206 11.3849 7.09917 11.2976 7.38499 11.2163C7.42893 11.1602 7.48225 11.1122 7.54258 11.0744C7.43871 11.0637 7.37782 11.0458 7.29903 11.0099C6.51822 11.2309 5.92618 11.1543 5.92618 11.1543C6.24673 10.9945 6.86923 10.9659 7.16149 10.9405C7.12131 10.9177 7.08299 10.8919 7.04688 10.8631C6.69946 10.9097 5.90755 10.9029 5.60562 10.9598C5.30368 11.0171 4.85777 11.1869 4.57804 11.3545C4.57804 11.3545 5.00676 11.4981 5.80906 11.4419ZM11.8051 6.99741C11.8402 6.99347 11.8767 6.99168 11.9136 6.99025C11.8914 6.81475 11.8291 6.52428 11.7937 6.41002C11.7568 6.29469 11.7102 6.21196 11.6336 6.19154C11.6336 6.19154 11.6934 6.352 11.7267 6.51676C11.7589 6.68187 11.7833 6.83982 11.8051 6.99741ZM11.6747 7.38387C11.6747 7.38387 11.5164 7.54505 11.3624 7.58087C11.3624 7.58087 11.4255 7.41898 11.6747 7.38387ZM11.5934 7.56654C11.6955 7.50708 11.7833 7.37241 11.8026 7.30973C11.7163 7.29792 11.4967 7.32155 11.3621 7.41575C11.266 7.47931 11.1885 7.56718 11.1375 7.67041C11.1375 7.67041 11.3782 7.68832 11.5934 7.56654ZM10.371 6.99347H10.4785V6.82514H10.611V6.73452H10.4785V6.59054H10.371V6.73452H10.2371V6.82478H10.371V6.99347ZM12.3259 7.38387C12.5745 7.41898 12.6382 7.58087 12.6382 7.58087C12.4831 7.54505 12.3259 7.38387 12.3259 7.38387ZM12.1969 7.30973C12.2174 7.37241 12.3051 7.50708 12.4065 7.56654C12.6214 7.68832 12.8624 7.67041 12.8624 7.67041C12.8119 7.567 12.7345 7.47914 12.6382 7.41611C12.5032 7.32155 12.2836 7.29792 12.1969 7.30973ZM13.3689 7.53036C13.4083 7.5232 13.4007 7.52607 13.4989 7.51819C13.4799 7.43115 13.4452 7.20622 13.3904 7.15608C13.3381 7.10845 13.2611 7.10415 13.2227 7.10594C13.1848 7.10845 13.1439 7.14713 13.1604 7.19727C13.1758 7.2492 13.3456 7.49813 13.3689 7.53036ZM11.9455 6.14355H12.0537V5.97413H12.1866V5.88423H12.054V5.74097H11.9455V5.88423H11.813V5.97377H11.9455V6.14355ZM12.4505 7.06761C12.5906 6.7424 12.6833 6.50171 12.6798 6.42148C12.6776 6.37313 12.6185 6.3366 12.5634 6.31941C12.5068 6.30257 12.4566 6.29971 12.4201 6.32728C12.3477 6.38173 12.2797 6.82155 12.2546 7.00422C12.3262 7.01747 12.3692 7.02678 12.4505 7.06761ZM12.1948 6.99741C12.2163 6.83982 12.2414 6.68223 12.2736 6.51676C12.3069 6.352 12.3667 6.19118 12.3667 6.19118C12.289 6.21196 12.2428 6.29505 12.207 6.40966C12.1704 6.52428 12.1092 6.81511 12.0866 6.98989C12.1232 6.99168 12.1593 6.99347 12.1948 6.99741ZM10.501 7.51819C10.5992 7.52607 10.5916 7.52356 10.6307 7.53036C10.6536 7.49813 10.8234 7.2492 10.8402 7.19727C10.8556 7.14713 10.8151 7.10845 10.7765 7.1063C10.7385 7.10415 10.6608 7.10845 10.6096 7.15608C10.5551 7.20622 10.52 7.43151 10.501 7.51819ZM7.44731 9.17793L7.52216 9.20837C7.60383 9.24168 7.68441 9.27857 7.75497 9.31296C7.67135 9.22632 7.59803 9.13028 7.53649 9.02678C7.49762 8.95976 7.46786 8.88785 7.44802 8.81296L7.4251 8.73488C7.18298 8.57657 6.93334 8.31833 6.76249 8.16539C6.59093 8.01246 6.34738 7.70479 6.21343 7.32012C6.37353 7.42112 6.51858 7.54684 6.68979 7.75458C6.93943 8.05866 7.20053 8.3871 7.41973 8.65966L7.41221 8.56045C7.41077 8.51496 7.41221 8.47198 7.41328 8.43259L7.41257 8.42148C7.22775 8.04183 6.92797 7.57478 6.69408 7.24527C6.50426 6.97664 6.06908 6.48237 5.76643 6.23165C5.69587 6.54111 5.58377 7.11955 5.85239 7.61776C6.1203 8.11561 6.7804 8.83194 7.44731 9.17793ZM7.31049 9.6525C7.26939 9.59687 7.23032 9.53976 7.19337 9.4813C6.86565 9.32585 6.78219 9.27714 6.6203 9.18975C6.40233 9.06904 6.19429 8.93119 5.99817 8.7775C5.80906 8.63137 5.57446 8.33337 5.57446 8.33337C5.82911 8.41754 6.0852 8.59698 6.25605 8.7227C6.47739 8.88602 6.83341 9.14892 7.13355 9.38531L7.02467 9.07442C6.67403 8.80615 6.16865 8.32478 6.00032 8.1611C5.83305 7.99634 5.1862 7.45085 4.88821 7.39283C4.88821 7.39283 4.80189 8.00995 5.10848 8.42399C5.41543 8.83767 6.40791 9.50565 7.31049 9.6525ZM7.03792 10.7531C7.06228 10.7166 7.09129 10.6751 7.1357 10.6339C6.6905 10.6364 5.95017 10.5239 5.68513 10.4369C5.68513 10.4369 6.3309 10.3058 7.2385 10.5583C7.27933 10.535 7.32804 10.5117 7.38821 10.4899C6.98097 10.3695 6.42331 10.1772 5.58305 10.1235C4.96701 10.0841 4.52288 10.1188 4.29258 10.1772C4.29258 10.1772 4.85383 10.5633 5.49459 10.6994C6.13642 10.8359 6.65719 10.7496 7.03792 10.7531ZM8.50426 9.7467C8.42152 9.64283 8.35669 9.49849 8.30941 9.32908C8.27037 9.19082 8.18155 8.84806 8.12926 8.75959C8.07696 8.67077 7.88714 8.36024 7.51679 8.26353C7.51679 8.26353 7.4183 8.66862 7.60454 8.9881C7.76464 9.26496 8.09451 9.55544 8.50426 9.7467ZM5.25211 9.81941C5.85705 10.0651 6.98098 10.2062 7.55189 10.4498C7.28649 10.3262 7.2385 10.1024 7.23635 10.0909C6.91579 10.0307 6.74459 10.0099 6.34953 9.88638C5.95089 9.7621 5.70877 9.60558 5.70877 9.60558C5.88069 9.6217 6.08377 9.63674 6.35992 9.71231C6.70805 9.80723 6.88678 9.86847 7.27073 10.0121C7.36565 9.95014 7.47954 9.92041 7.58162 9.91718C7.30655 9.7972 6.52145 9.50995 6.00569 9.35558C5.56514 9.22306 4.99315 9.05472 4.28613 9.07335C4.28613 9.07335 4.43549 9.48703 5.25211 9.81941ZM10.2202 7.53036C10.26 7.5232 10.2525 7.52607 10.3502 7.51819C10.3316 7.43115 10.2965 7.20622 10.2421 7.15608C10.1905 7.10845 10.1131 7.10415 10.0755 7.10594C10.0361 7.10845 9.99638 7.14713 10.0125 7.19727C10.0275 7.2492 10.198 7.49813 10.2202 7.53036ZM8.67009 9.80472C8.84201 9.93867 8.91507 10.0719 8.91507 10.0719C8.50426 9.81153 8.24494 9.97377 8.24494 9.97377C8.32446 10.3961 8.68406 10.4738 8.68406 10.4738C8.29545 10.4308 8.13714 10.6217 8.13714 10.6217C8.2804 10.9312 8.6554 10.9458 8.6554 10.9458C8.32446 11.1998 8.38284 11.3821 8.38284 11.3821C8.74924 11.467 8.95089 11.2908 8.95089 11.2908C8.67009 11.6504 8.88642 11.9172 8.88642 11.9172C9.26034 11.8685 9.38355 11.5787 9.38355 11.5787C9.34666 11.9046 9.51249 11.9881 9.51249 11.9881C9.71414 11.9236 9.8155 11.7488 9.8155 11.7488C9.92331 11.9741 10.1751 12.0168 10.1751 12.0168C10.2836 11.8115 10.2048 11.6221 10.2048 11.6221C10.4212 11.6865 10.486 11.5583 10.486 11.5583C10.3481 11.41 10.2697 11.1786 10.2697 11.1786C9.89466 11.3259 9.43298 11.2488 9.30297 11.1006C9.1751 10.9526 9.39036 10.5726 9.50605 10.3047C9.62066 10.0372 9.46951 9.84698 9.33377 9.75529C8.72095 9.34663 8.49745 9.04362 8.36063 8.74849C8.28792 9.29756 8.49745 9.67005 8.67009 9.80472ZM9.33699 6.87743C9.41865 6.85701 9.5279 6.77284 9.61636 6.70408C9.70411 6.63388 9.76178 6.63961 9.76178 6.63961C9.73463 6.61672 9.70258 6.6004 9.66811 6.59189C9.63364 6.58338 9.59767 6.58292 9.56299 6.59054C9.39824 6.62277 9.20268 6.80902 9.20268 6.80902C9.19429 6.83492 9.19268 6.86255 9.19802 6.88925C9.23778 6.89283 9.25533 6.89892 9.33699 6.87743ZM9.57446 7.08588C9.53613 7.15787 9.47918 7.24849 9.50461 7.37743C9.53434 7.52249 9.77396 7.57764 9.77396 7.57764C9.73026 7.53395 9.69301 7.48022 9.68943 7.429C9.68226 7.32478 9.74494 7.23918 9.78757 7.17363C9.82983 7.10845 9.91113 6.93653 9.91221 6.86847C9.914 6.80186 9.85132 6.72592 9.77825 6.65393C9.78757 6.68688 9.77396 6.73631 9.74853 6.79612C9.72023 6.86167 9.60992 7.01783 9.57446 7.08588ZM9.00139 7.66074C9.00139 7.63208 9.00247 7.60486 9.00676 7.57764C9.01679 7.50708 9.01751 7.44835 9.00999 7.39856C8.91436 7.43438 8.84953 7.45694 8.71808 7.66432C8.71808 7.66432 8.92833 7.53825 9.00139 7.66074ZM9.08556 7.58803C9.06694 7.71876 9.09451 7.8588 9.18477 7.98918C9.19952 7.877 9.2268 7.76684 9.26608 7.66074C9.3198 7.51926 9.28864 7.31439 9.22345 7.19047C9.16149 7.07048 9.12747 6.95802 9.13785 6.83337C9.13785 6.83337 9.01428 6.8742 8.94229 6.9179C8.93083 7.06117 9.01715 7.20622 9.05798 7.28753C9.10633 7.38423 9.09631 7.51102 9.08556 7.58803ZM9.9183 7.84806C9.95698 7.9462 10.1142 8.06224 10.1142 8.06224C10.0649 7.95793 10.0355 7.84533 10.0275 7.73022C9.86994 7.68294 9.8789 7.75064 9.9183 7.84806ZM9.86815 12.9956C9.8177 12.9316 9.77558 12.8614 9.74279 12.7868C9.80726 13.299 9.82947 13.6446 10.1128 13.9759C10.1128 13.9759 10.2833 13.7546 10.1737 13.2148C10.1264 13.2019 10.0723 13.179 10.0214 13.1457C10.0214 13.1457 10.0859 13.3649 10.0447 13.5844C10.0447 13.5844 9.94373 13.5128 9.86815 12.9956ZM10.65 8.75959C10.7102 8.80759 10.7614 8.88173 10.7851 9.00708C10.8194 9.18223 10.924 9.37026 10.9555 9.42721L10.9684 9.42435C10.9495 9.30436 11.0257 9.05436 11.0465 9.01819C11.0465 9.01819 10.9348 8.95014 10.8836 8.87994C10.8459 8.82764 10.7804 8.74025 10.597 8.62922C10.5439 8.63656 10.4915 8.64794 10.4401 8.66324C10.4401 8.66324 10.5798 8.70264 10.65 8.75959ZM12.6418 14.9158C12.7385 15.0318 12.9469 15.3674 13.2686 15.3706C13.2686 15.3706 13.2209 15.213 13.0784 15.1221C12.9351 15.0318 12.7532 14.9158 12.6708 14.7761C12.5895 14.6367 12.5028 14.5719 12.4437 14.5461C12.4312 14.6482 12.3807 14.7424 12.3255 14.8409C12.3255 14.8409 12.5107 15.6751 13.1794 15.7399C13.1794 15.7399 13.1651 15.5669 12.9677 15.4347C12.7689 15.3036 12.4735 15.0988 12.4946 14.789C12.4946 14.789 12.5472 14.7997 12.6418 14.9158ZM10.0125 14.7019C10.0125 14.7019 10.169 14.5977 10.3406 14.5336C10.4523 14.491 10.5071 14.3771 10.6257 14.2628C10.4924 14.3101 10.1912 14.357 10.0662 14.3932C9.9405 14.4301 9.84917 14.4928 9.72918 14.6213C9.72918 14.6213 9.914 14.6722 10.0125 14.7019ZM10.9939 8.86668C11.0082 8.68903 10.9197 8.58481 10.7904 8.49527C10.6887 8.42256 10.4763 8.35773 10.4333 8.34591C10.52 8.47019 10.6848 8.61095 10.7754 8.66181C10.8907 8.72521 10.9939 8.86668 10.9939 8.86668ZM12 7.42686C12.0215 7.42695 12.0421 7.41852 12.0574 7.40342C12.0727 7.38832 12.0814 7.36777 12.0816 7.34627C12.0815 7.33564 12.0793 7.32513 12.0752 7.31535C12.071 7.30556 12.065 7.29669 12.0574 7.28924C12.0498 7.28179 12.0408 7.27591 12.031 7.27193C12.0211 7.26794 12.0106 7.26594 12 7.26604C11.9541 7.26604 11.9165 7.30186 11.9165 7.34627C11.9169 7.36805 11.9259 7.3888 11.9415 7.40397C11.9572 7.41914 11.9782 7.42714 12 7.42686ZM13.2077 7.89462C13.4204 7.92112 13.6697 7.91038 13.6697 7.91038C13.6561 7.98739 13.6242 8.04541 13.568 8.08122C13.5548 7.9136 13.2077 7.91181 13.2077 7.91181V7.89462ZM12.5315 8.28251C12.7553 8.23524 12.8262 8.1131 12.8646 8.06582C12.8646 8.06582 12.8352 8.18294 12.8485 8.22986C12.8485 8.22986 12.9469 8.22413 13.024 8.13029C13.024 8.13029 12.9677 8.22413 12.9563 8.30365C12.9563 8.30365 13.0179 8.31081 13.1267 8.24634C13.1267 8.24634 13.1049 8.30508 13.101 8.37277C13.101 8.37277 13.3581 8.29183 13.4838 8.17721C13.4838 8.17721 13.4856 8.25601 13.4795 8.30114C13.4795 8.30114 13.8793 8.26174 13.9093 7.69047C13.9093 7.69047 13.6432 7.78753 13.3757 7.77499C13.1085 7.76174 12.6164 7.75673 12.4563 7.68044C12.4563 7.68044 12.4828 7.77893 12.6103 7.83516C12.6103 7.83516 12.544 7.83516 12.4778 7.8914C12.4778 7.8914 12.5164 7.97234 12.6293 8.01496C12.6293 8.01496 12.4262 8.22163 12.2081 8.2073C12.2081 8.2073 12.3073 8.32943 12.5315 8.28251ZM13.5752 7.67399C13.7249 7.67399 13.8463 7.65322 13.8463 7.62707C13.8463 7.59949 13.7249 7.57908 13.5752 7.57908C13.4262 7.57908 13.3044 7.59949 13.3044 7.62707C13.3044 7.65322 13.4262 7.67399 13.5752 7.67399ZM13.4613 11.6203C13.4584 11.6167 13.4559 11.6149 13.4545 11.6117L13.4412 11.6292C13.3932 11.6753 13.3376 11.7127 13.2768 11.7399C13.2768 11.7399 13.1579 11.9602 13.3019 12.2263C13.4444 12.4931 13.5651 12.7646 13.6239 12.9154C13.6239 12.9154 13.7005 12.9043 13.7858 12.4877C13.8442 12.2055 13.9172 12.1346 13.9928 12.0375C13.9093 12.0784 13.8434 12.0905 13.837 12.092L13.7804 12.1013L13.7535 12.0511C13.7098 11.97 13.6873 11.879 13.6884 11.7868C13.6884 11.7617 13.6894 11.7374 13.6919 11.7163C13.5587 11.7191 13.4878 11.6536 13.4613 11.6203ZM13.7002 7.11668C13.7002 7.05544 13.6239 7.03717 13.5845 7.03717H13.563C13.5236 7.03717 13.4477 7.05508 13.4477 7.11668C13.4477 7.17865 13.5465 7.328 13.5723 7.3939H13.5748C13.6013 7.328 13.7002 7.17865 13.7002 7.11668ZM11.327 8.77857C11.2231 8.66181 11.0906 8.37277 11.0906 8.37277C11.0483 8.36847 10.9985 8.35594 10.9584 8.34591C10.9609 8.3828 10.9595 8.45766 10.9595 8.45766C10.9154 8.44691 10.7822 8.40751 10.7822 8.40751C10.9401 8.51568 10.9892 8.55544 11.0651 8.63173C11.1998 8.76926 11.2754 8.94047 11.2754 8.94047C11.3331 8.84269 11.327 8.77857 11.327 8.77857ZM11.0906 14.2668C10.9401 14.3105 10.9061 14.4781 10.9061 14.4781C10.9724 14.5085 11.001 14.5873 11.1353 14.5873C11.28 14.5873 11.4459 14.4451 11.5587 14.2528C11.6386 14.1149 11.6758 13.8391 11.6758 13.79C11.5605 13.9953 11.2761 14.2127 11.0906 14.2668ZM11.8348 10.7915C11.8979 10.8853 11.9444 10.9046 11.9996 10.9301C12.054 10.9046 12.0999 10.8853 12.1636 10.7915C12.212 10.7177 12.2586 10.5819 12.2324 10.4845C12.1995 10.3649 12.1339 10.3173 12.0934 10.2424C12.0612 10.2721 12.0411 10.2954 12.001 10.3176H11.9992C11.9588 10.2954 11.9384 10.2721 11.905 10.2424C11.8642 10.3176 11.7994 10.3649 11.7654 10.4845C11.7399 10.5819 11.7858 10.7177 11.8348 10.7915ZM11.9982 10.2102H12.001C12.0755 10.1471 12.1422 10.0533 12.1636 9.99813C12.1837 9.94297 12.1891 9.86203 12.1396 9.79971C12.0802 9.72557 12.0057 9.64283 12.001 9.57514H11.9975C11.9917 9.64283 11.9179 9.72557 11.8585 9.79971C11.8091 9.86203 11.8141 9.94297 11.8359 9.99813C11.8563 10.0533 11.9233 10.1471 11.9982 10.2102ZM11.0311 15.4347C10.8331 15.5669 10.8205 15.7399 10.8205 15.7399C11.4881 15.6751 11.673 14.8409 11.673 14.8409C11.6178 14.7424 11.5677 14.6482 11.5537 14.5465C11.4964 14.5723 11.4097 14.6367 11.3273 14.7757C11.2449 14.9158 11.0634 15.0318 10.9204 15.1221C10.7779 15.2127 10.7295 15.3703 10.7295 15.3703C11.053 15.3674 11.2611 15.0318 11.3556 14.9158C11.4509 14.7997 11.5035 14.789 11.5035 14.789C11.525 15.0988 11.2292 15.3036 11.0311 15.4347ZM13.2073 8.49527C13.0795 8.58481 12.991 8.68867 13.0046 8.86668C13.0046 8.86668 13.1088 8.72521 13.2231 8.66181C13.3148 8.61131 13.4795 8.47019 13.5651 8.34591C13.5236 8.35773 13.3108 8.42256 13.2073 8.49527ZM12.9083 8.37277C12.9083 8.37277 12.775 8.66181 12.6719 8.77893C12.6719 8.77893 12.6658 8.84269 12.7235 8.94011C12.7235 8.94011 12.7987 8.76926 12.933 8.63208C13.0096 8.55544 13.0583 8.51568 13.2163 8.40787C13.2163 8.40787 13.0831 8.44655 13.0394 8.45766C13.0394 8.45766 13.0365 8.38244 13.0411 8.34591C13.001 8.35594 12.9512 8.36847 12.9083 8.37277ZM12.1597 6.33266C12.1597 6.24562 12.0881 6.17506 11.9996 6.17506C11.9101 6.17506 11.8384 6.24562 11.8384 6.33266C11.8384 6.44333 11.9792 6.6962 11.9967 6.81403H12.0021C12.02 6.69584 12.1597 6.44333 12.1597 6.33266ZM13.4018 8.62958C13.2192 8.74025 13.1522 8.82764 13.1153 8.87958C13.0648 8.95014 12.9534 9.01819 12.9534 9.01819C12.9735 9.05436 13.0505 9.30472 13.0311 9.42435L13.0429 9.42721C13.0745 9.36991 13.1801 9.18223 13.2138 9.00708C13.2371 8.88173 13.2897 8.80759 13.3492 8.75995C13.4187 8.703 13.5587 8.66324 13.5587 8.66324C13.5074 8.64799 13.4549 8.63673 13.4018 8.62958ZM12.9305 9.62026C12.9083 9.69942 12.9018 9.82012 12.9305 9.93438C12.9527 10.0214 13.0071 10.1346 13.111 10.198C13.2005 10.2528 13.4118 10.2653 13.4928 10.0698C13.4928 10.0698 13.1063 10.0988 12.9305 9.62026ZM10.8882 10.198C10.9921 10.1346 11.0458 10.0214 11.068 9.93438C11.0938 9.83126 11.0938 9.72339 11.068 9.62026C10.8925 10.0988 10.5057 10.0698 10.5057 10.0698C10.5859 10.2653 10.7983 10.2528 10.8882 10.198ZM9.2385 11.8635C9.13705 11.935 9.01936 11.98 8.89609 11.9945C8.45984 12.3896 8.51034 12.5511 8.51034 12.5511C8.7299 12.5837 8.92761 12.4741 9.07696 12.3592C9.17439 12.2818 9.24279 12.1754 9.26536 12.0784C9.28613 11.9817 9.25748 11.9136 9.2385 11.8635ZM7.33413 11.4774C7.33413 11.4774 7.48599 11.6038 7.76285 11.549C7.99781 11.5014 8.20161 11.4036 8.31908 11.2374C8.3549 11.1847 8.37997 11.1027 8.45698 11.0196C8.28398 10.9882 8.10654 10.9905 7.93441 11.0264C7.69731 11.0698 7.45555 11.1242 7.33413 11.4774ZM8.20161 9.90859C8.20805 9.90501 8.28434 9.85845 8.41507 9.84842C8.30547 9.76819 8.04186 9.55293 7.85705 9.44978C7.6529 9.33839 7.31622 9.19082 7.14502 9.16933C7.14502 9.16933 7.30619 9.58122 7.49244 9.74849C7.68764 9.92041 7.82338 9.98488 8.15648 9.93688L8.20161 9.90859ZM8.64179 16.5425C8.6092 16.5898 8.63212 16.641 8.72381 16.684C8.81479 16.7259 8.98706 16.7607 9.02216 16.7152C9.05512 16.6675 9.0082 16.5898 8.81479 16.5404C8.78506 16.5332 8.66651 16.5046 8.64179 16.5425ZM7.09738 10.8036C7.09738 10.8036 7.33019 10.9945 7.5963 11.0006C7.86386 11.0092 8.11099 10.9333 8.21844 10.8559C8.15324 10.8004 8.10072 10.7315 8.06443 10.6539L8.04545 10.6102C7.8395 10.5279 7.62567 10.486 7.41507 10.5622C7.20555 10.6392 7.14967 10.727 7.09738 10.8036ZM7.31443 10.0766C7.31443 10.0766 7.36457 10.3359 7.70698 10.4251C8.03004 10.5074 8.14896 10.486 8.28004 10.443C8.31586 10.4297 8.35526 10.4172 8.40003 10.4082C8.2877 10.3097 8.20957 10.178 8.17689 10.0322C8.08126 10.0536 7.85741 10.0536 7.75891 10.0178C7.65934 9.98022 7.46557 9.97951 7.31443 10.0766ZM12.3732 16.8738C12.4283 16.9566 12.5372 17.1178 12.6457 17.2775L12.7675 17.111L12.3553 16.5021L12.0429 17.0526L12.1576 17.2531C12.25 17.0927 12.3323 16.9483 12.3732 16.8738ZM15.9058 16.2327C15.8313 16.1504 15.7381 16.0956 15.6533 16.0787C15.4108 16.0307 15.3262 16.1876 15.1862 16.2363C15.0472 16.2847 14.957 16.1876 14.8245 15.8746C14.6916 15.5608 14.4584 15.1396 14.3187 14.9827C14.2729 14.9312 14.126 14.9315 14.1024 14.9312C14.0795 14.9312 14.0573 14.939 14.0555 14.9648C14.0544 14.9899 14.0544 15.1307 14.0544 15.1307C14.0064 15.0984 13.8979 15.03 13.8438 15.0239C13.7879 15.016 13.6658 15.1546 13.7227 15.165C14.3309 15.2814 14.6217 15.9351 14.7403 16.1815C14.8019 16.3079 14.8366 16.4448 14.8685 16.5759C15.044 16.5572 15.1704 16.5296 15.2926 16.4469C15.4133 16.3635 15.63 16.3173 15.7453 16.3173C15.8581 16.3173 15.8843 16.2711 15.9058 16.2327ZM11.5795 7.15322C11.5795 7.20085 11.7679 7.24097 11.9996 7.24097C12.2321 7.24097 12.4201 7.20085 12.4201 7.15322C12.4201 7.10486 12.2321 7.06547 11.9996 7.06547C11.7679 7.06547 11.5795 7.10486 11.5795 7.15322ZM12.4029 15.914C12.2919 15.8147 12.0401 15.4652 12.0003 15.3549H11.9982C11.9595 15.4652 11.7066 15.8147 11.5949 15.9136C11.4846 16.0139 11.2149 16.2779 11.0712 16.4086C11.0712 16.4086 11.4813 16.3094 11.7116 16.1049C11.7116 16.1049 11.8764 16.198 11.9964 16.198H12.0021C12.1217 16.198 12.2861 16.1049 12.2861 16.1049C12.5171 16.3094 12.928 16.4086 12.928 16.4086C12.7836 16.2779 12.5143 16.0139 12.4029 15.914ZM12.0017 16.28H11.9967C11.9054 16.28 11.8198 16.2453 11.7718 16.2241C11.8198 16.3244 11.9108 16.4799 11.9982 16.5433H11.9996C12.087 16.4799 12.1783 16.3248 12.227 16.2241C12.1783 16.2453 12.0924 16.28 12.0017 16.28ZM9.25855 16.1808C9.37747 15.9347 9.66865 15.2807 10.2757 15.1643C10.3331 15.1536 10.2098 15.0153 10.1561 15.0232C10.1013 15.0293 9.99279 15.0977 9.94552 15.1299C9.94552 15.1299 9.94552 14.9892 9.94373 14.9641C9.94229 14.9383 9.91937 14.9304 9.89573 14.9304C9.87245 14.9308 9.7256 14.9304 9.67868 14.982C9.54079 15.1389 9.30691 15.5601 9.17474 15.8738C9.04222 16.1869 8.95232 16.2839 8.81228 16.2356C8.67259 16.1869 8.58878 16.03 8.34595 16.078C8.26142 16.0948 8.16758 16.1496 8.09416 16.232C8.11457 16.2696 8.14072 16.3165 8.25497 16.3165C8.36815 16.3165 8.5852 16.3627 8.70626 16.4462C8.82804 16.5289 8.9559 16.5565 9.12997 16.5751C9.16221 16.444 9.19767 16.3072 9.25855 16.1808ZM10.4237 7.67363C10.5737 7.67363 10.6941 7.65286 10.6941 7.62671C10.6941 7.59913 10.5737 7.57872 10.4237 7.57872C10.2743 7.57872 10.1536 7.59913 10.1536 7.62671C10.1536 7.65286 10.2743 7.67363 10.4237 7.67363ZM10.7904 7.89426V7.91145C10.7904 7.91145 10.4448 7.91325 10.4312 8.08087C10.3753 8.04505 10.3427 7.98703 10.3298 7.91002C10.3298 7.91002 10.5795 7.92077 10.7904 7.89426ZM10.52 8.30078C10.5139 8.25565 10.5154 8.17686 10.5154 8.17686C10.6407 8.29147 10.8986 8.37241 10.8986 8.37241C10.8954 8.32933 10.8862 8.2869 10.8714 8.24634C10.9813 8.31009 11.0433 8.30329 11.0433 8.30329C11.0315 8.22378 10.976 8.12994 10.976 8.12994C11.0523 8.22377 11.1504 8.22951 11.1504 8.22951C11.1644 8.18259 11.1353 8.06547 11.1353 8.06547C11.173 8.11274 11.2446 8.23488 11.4677 8.28216C11.6912 8.32908 11.7919 8.20694 11.7919 8.20694C11.5734 8.22127 11.3692 8.01461 11.3692 8.01461C11.4831 7.97198 11.5214 7.89104 11.5214 7.89104C11.4563 7.83481 11.3889 7.83481 11.3889 7.83481C11.5164 7.77857 11.5422 7.68008 11.5422 7.68008C11.3836 7.75637 10.8904 7.76138 10.6239 7.77463C10.3563 7.78717 10.0891 7.69011 10.0891 7.69011C10.1196 8.26138 10.52 8.30078 10.52 8.30078ZM8.14716 11.8817C8.26119 11.8704 8.37184 11.8366 8.47272 11.7822C8.5736 11.7279 8.66271 11.6541 8.73492 11.5651C8.74029 11.5397 8.75211 11.4917 8.76357 11.4594C8.66149 11.4852 8.52718 11.4953 8.36385 11.4573L8.31944 11.4466L8.30583 11.405C8.10741 11.563 7.87245 11.5891 7.79115 11.7327C7.79115 11.7327 7.89 11.9104 8.14716 11.8817ZM10.5508 7.11597C10.5508 7.05508 10.4752 7.03681 10.4362 7.03681H10.4144C10.3757 7.03681 10.2987 7.05472 10.2987 7.11632C10.2987 7.17829 10.3979 7.32764 10.424 7.39355H10.4262C10.4534 7.32764 10.5508 7.17793 10.5508 7.11597ZM10.2192 12.1009L10.1618 12.0916C10.1561 12.0898 10.0891 12.078 10.0057 12.0372C10.0823 12.1342 10.1554 12.2051 10.2134 12.4874C10.2987 12.9039 10.3753 12.915 10.3753 12.915C10.433 12.7646 10.5533 12.4924 10.6969 12.2259C10.8402 11.9598 10.722 11.7395 10.722 11.7395C10.6396 11.6987 10.6042 11.674 10.5587 11.6285L10.5444 11.6113C10.5429 11.6149 10.5401 11.6167 10.5386 11.6199C10.5107 11.6532 10.4401 11.7188 10.3073 11.7159C10.3224 11.8314 10.3007 11.9487 10.2453 12.0511L10.2192 12.1009ZM8.22417 13.342C8.44623 12.9569 8.58269 12.7145 8.67546 12.6285C8.616 12.6357 8.55583 12.6357 8.49781 12.6264L8.44981 12.6192C8.31264 12.8617 8.04222 13.2596 7.79867 13.3986C7.79867 13.3986 7.73635 13.0762 8.45268 12.4229C8.46235 12.3964 8.47668 12.3656 8.49709 12.3319C8.43155 12.3556 8.35669 12.3681 8.27324 12.3667L8.26393 12.3678C7.98921 12.636 7.41006 13.2388 7.46414 13.8921C7.46414 13.8921 8.00318 13.7281 8.22417 13.342ZM8.82267 11.9659C8.81837 11.9587 8.74853 11.8681 8.7299 11.7252C8.61099 11.7671 8.52754 11.7897 8.35383 11.9043C8.09666 12.0719 8.20196 12.2839 8.20196 12.2839C8.58699 12.3348 8.77181 12.0254 8.82267 11.9659ZM11.7865 12.3348C11.8151 12.2442 11.9387 12.0766 11.9416 11.8029C11.9419 11.6994 11.7535 11.5314 11.7009 11.3982C11.5254 11.5511 11.5014 11.8588 11.5218 11.9616C11.5616 12.1611 11.7865 12.3348 11.7865 12.3348ZM8.00354 14.5647C8.2102 14.7485 8.42116 14.8498 8.53255 14.7309C8.6511 14.6038 8.52288 14.415 8.31694 14.2309C8.11242 14.0468 7.9097 13.9358 7.79043 14.0637C7.66937 14.1912 7.79867 14.3799 8.00354 14.5647ZM8.94337 13.6865C9.09559 13.4423 9.13391 12.9523 9.16651 12.4756C9.16368 12.4463 9.16225 12.4169 9.16221 12.3875C9.15075 12.3989 9.13749 12.4089 9.12639 12.419C9.09557 12.4424 9.06391 12.4648 9.03148 12.486C9.03148 12.486 8.96343 13.2775 8.7385 13.5415C8.66686 13.2471 8.84057 12.8656 8.93155 12.5447C8.89989 12.5605 8.8675 12.5749 8.83449 12.5877C8.57374 13.0049 8.26393 13.6034 8.52037 14.0504C8.52037 14.0504 8.79509 13.9261 8.94337 13.6865ZM10.5404 14.4673C10.5404 14.4673 10.7166 14.5117 10.8288 14.462C10.8288 14.462 10.8692 14.2972 10.9949 14.2234C11.0229 14.2077 11.1106 14.1819 11.1919 14.1418C11.1611 14.1178 11.1336 14.1024 11.0967 14.0597C11.0967 14.0597 10.9541 14.1113 10.8363 14.189C10.7181 14.2664 10.6028 14.3993 10.5404 14.4673ZM11.4244 9.429C11.4752 9.25995 11.3664 9.09663 11.3259 9.00494C11.2342 9.07729 11.1593 9.15465 11.1468 9.35522C11.1353 9.55579 11.1898 9.81654 11.1898 9.81654C11.2596 9.67184 11.3739 9.59877 11.4244 9.429ZM12.0007 8.77105H11.9982C11.9552 8.79004 11.779 8.88137 11.7661 9.01102C11.7535 9.14104 11.9896 9.38065 11.9967 9.48022H12.0017C12.0093 9.38065 12.2449 9.14104 12.2328 9.01102C12.2209 8.88137 12.0444 8.79004 12.0007 8.77105ZM11.1783 8.28395C11.2256 8.44978 11.3073 8.6063 11.3875 8.72807C11.4598 8.84054 11.5057 9.02105 11.4992 9.08266C11.4992 9.08266 11.607 8.84913 11.5526 8.68402C11.5089 8.55651 11.3925 8.36453 11.1783 8.28395ZM13.0802 12.0898C13.0311 12.1958 12.9129 12.3001 12.8864 12.3925C12.8542 12.5014 12.8445 12.5701 12.8979 12.6969C12.9466 12.8076 13.0032 12.8728 13.0232 12.9405C13.0232 12.9405 13.1773 12.7445 13.2023 12.6629C13.2295 12.5823 13.2363 12.4483 13.2059 12.3638C13.1737 12.2782 13.1174 12.1679 13.0802 12.0898ZM12.1647 9.44297C12.1361 9.56296 12.1629 9.64319 12.2184 9.71661C12.2736 9.78896 12.3674 9.86812 12.4555 10.0211C12.4555 10.0211 12.5558 9.89068 12.5684 9.82263C12.5805 9.75422 12.5608 9.59161 12.5386 9.52428C12.5172 9.45479 12.4301 9.23524 12.3581 9.01138C12.3581 9.01138 12.1941 9.3212 12.1647 9.44297ZM13.4505 11.5121C13.4011 11.4706 13.3545 11.426 13.3108 11.3785C13.3108 11.3785 13.1812 11.6088 13.1601 11.6761C13.1601 11.6761 13.2238 11.693 13.2947 11.6421C13.3653 11.592 13.3803 11.5784 13.4505 11.5121ZM13.0429 10.7037C12.9892 10.8069 12.8939 10.9587 12.8939 10.9587C12.9007 11.0207 12.8961 11.1271 12.9161 11.2564C12.9369 11.3853 13.1096 11.6052 13.1096 11.6052C13.1522 11.4895 13.2535 11.3312 13.2747 11.1758C13.2868 11.0712 13.2639 10.9143 13.2639 10.9143C13.1941 10.8821 13.1056 10.7796 13.0429 10.7037ZM12.6479 9.87671C12.6003 9.94533 12.5702 10.0245 12.5601 10.1074C12.554 10.1998 12.5691 10.2746 12.621 10.41C12.6869 10.5816 12.7876 10.7728 12.8341 10.8592C12.8341 10.8592 12.9237 10.7338 12.9738 10.6213C12.9738 10.6213 12.8341 10.4333 12.7736 10.3004C12.7041 10.1443 12.6758 10.0003 12.6479 9.87671ZM12.448 8.68402C12.3925 8.84878 12.5017 9.08266 12.5017 9.08266C12.4932 9.02105 12.539 8.84054 12.6117 8.72807C12.6919 8.6063 12.7729 8.44978 12.8216 8.28395C12.6067 8.36453 12.4903 8.55615 12.448 8.68402ZM12.8528 9.35522C12.8399 9.15465 12.7657 9.07729 12.6733 9.00494C12.6339 9.09663 12.5243 9.25995 12.5745 9.429C12.626 9.59913 12.7399 9.67184 12.8091 9.81654C12.8091 9.81654 12.8649 9.55579 12.8528 9.35522ZM11.4606 9.52428C11.4384 9.59161 11.4197 9.75422 11.4312 9.82263C11.443 9.89068 11.5444 10.0211 11.5444 10.0211C11.6314 9.86812 11.726 9.78896 11.78 9.71661C11.8363 9.64319 11.8628 9.56296 11.8341 9.44261C11.8048 9.32084 11.6411 9.01138 11.6411 9.01138C11.5684 9.23524 11.4817 9.45479 11.4606 9.52428ZM11.9996 15.1826C12.0175 15.2163 12.0415 15.2478 12.0727 15.2764C12.2432 15.4358 12.352 15.4208 12.4466 15.3871C12.4466 15.3871 12.1654 15.2947 12.1805 15.0501C12.1969 14.8069 12.3388 14.6604 12.3631 14.5339C12.3911 14.3943 12.3818 14.261 12.2711 14.1002C12.1805 14.4 12.0831 14.6195 12.0053 14.7693C12.0028 14.7732 12.0017 14.7779 11.9996 14.7825C11.9978 14.7779 11.9964 14.7732 11.9935 14.7693C11.8846 14.555 11.7958 14.331 11.7285 14.1002C11.6182 14.261 11.6081 14.3943 11.6357 14.5336C11.6608 14.6604 11.8023 14.8069 11.8184 15.0501C11.8338 15.2947 11.553 15.3871 11.553 15.3871C11.6472 15.4208 11.7553 15.4358 11.9269 15.2764C11.9563 15.2495 11.9809 15.2178 11.9996 15.1826ZM11.7141 15.5347L11.7679 15.4473C11.6858 15.4831 11.5816 15.458 11.5816 15.458C11.5721 15.4704 11.5637 15.4836 11.5565 15.4974C11.2772 15.9 10.9681 16.1532 10.6533 16.319L10.7428 16.4444C11.0838 16.2632 11.4151 15.9817 11.7141 15.5347ZM13.4584 14.4673C13.395 14.3989 13.2804 14.2664 13.1633 14.189C13.0454 14.1113 12.9018 14.0601 12.9018 14.0601C12.8646 14.1024 12.8384 14.1178 12.8073 14.1414C12.8886 14.1819 12.9763 14.2077 13.0032 14.2238C13.1293 14.2972 13.1697 14.462 13.1697 14.462C13.2818 14.5121 13.4584 14.4673 13.4584 14.4673ZM12.9068 14.2668C12.7224 14.212 12.4376 13.9945 12.3223 13.7897C12.3223 13.8387 12.3592 14.1145 12.4401 14.2524C12.553 14.4448 12.7181 14.587 12.8631 14.587C12.9978 14.587 13.0268 14.5082 13.0924 14.4774C13.0924 14.4774 13.058 14.3105 12.9068 14.2668ZM10.534 15.1611C10.5734 15.1808 10.7575 15.2542 10.8767 15.0135C10.8767 15.0135 10.673 15.0791 10.6178 14.9838C10.563 14.8875 10.6529 14.7485 10.7081 14.708C10.78 14.655 10.9111 14.6199 10.9892 14.6328C10.9892 14.6328 10.9262 14.5741 10.8506 14.5357C10.8138 14.5537 10.7733 14.5625 10.7324 14.5615C10.7324 14.5615 10.4695 14.7395 10.4387 14.9179C10.4133 15.0698 10.4946 15.1421 10.534 15.1611ZM11.0254 10.6213C11.0748 10.7338 11.1647 10.8592 11.1647 10.8592C11.2113 10.7728 11.3134 10.5816 11.3782 10.41C11.4301 10.2746 11.4459 10.1998 11.4387 10.1074C11.4288 10.0244 11.3987 9.94523 11.351 9.87671C11.3234 10.0003 11.2947 10.1443 11.2256 10.3004C11.1654 10.4329 11.0254 10.6213 11.0254 10.6213ZM10.5487 11.5121C10.6182 11.5784 10.6346 11.592 10.7048 11.6421C10.7754 11.693 10.8402 11.6761 10.8402 11.6761C10.818 11.6088 10.6898 11.3785 10.6898 11.3785C10.6576 11.4154 10.5798 11.4852 10.5487 11.5121ZM10.7356 10.9143C10.7356 10.9143 10.712 11.0712 10.7249 11.1758C10.7457 11.3312 10.8467 11.4895 10.8907 11.6049C10.8907 11.6049 11.0626 11.3853 11.0827 11.2564C11.102 11.1274 11.0995 11.0207 11.106 10.9591C11.106 10.9591 11.01 10.8069 10.9573 10.7037C10.8943 10.7796 10.8051 10.8821 10.7356 10.9143ZM10.3882 14.2413C10.3882 14.2413 10.5759 14.2009 10.7202 14.1536C10.8778 14.1024 10.9871 14.0339 11.0462 14.0006C11.0179 13.9587 10.962 13.8824 10.9742 13.7621C10.9742 13.7621 10.7256 13.9161 10.6533 13.9738C10.578 14.0339 10.4226 14.1901 10.3882 14.2413ZM10.9763 12.9401C10.9953 12.8728 11.053 12.8076 11.101 12.6969C11.1547 12.5701 11.1443 12.5014 11.1131 12.3925C11.0863 12.3001 10.9684 12.1958 10.9197 12.0898C10.8814 12.1679 10.8248 12.2782 10.794 12.3638C10.7618 12.4483 10.7707 12.5823 10.7962 12.6629C10.8219 12.7445 10.9763 12.9401 10.9763 12.9401ZM10.4068 14.7703C10.4312 14.727 10.5329 14.5791 10.6275 14.559C10.6275 14.559 10.5472 14.5519 10.501 14.5375C10.501 14.5375 10.4043 14.5619 10.3356 14.5895C10.2668 14.6167 10.1812 14.6586 10.0798 14.7231C10.1013 14.7299 10.2181 14.7642 10.332 14.8344C10.332 14.8344 10.3818 14.8162 10.4068 14.7703ZM12.2747 10.0003C12.2281 10.0991 12.2181 10.2055 12.2331 10.2685C12.2485 10.3309 12.3305 10.4226 12.3391 10.5264C12.352 10.688 12.2231 10.8849 12.2231 10.8849C12.3424 10.8266 12.4781 10.6901 12.5376 10.6038C12.5967 10.5178 12.553 10.3928 12.5268 10.328C12.5017 10.2628 12.3105 10.0386 12.2747 10.0003ZM11.1783 11.0984C11.1353 11.2968 11.3492 11.415 11.4491 11.5927C11.4752 11.5211 11.5583 11.3273 11.6536 11.2603C11.6536 11.2603 11.7757 10.9082 11.3825 10.6912C11.3825 10.6912 11.2209 10.9007 11.1783 11.0984ZM11.4727 10.3284C11.4469 10.3928 11.4029 10.5175 11.462 10.6038C11.5214 10.6897 11.6579 10.8266 11.7757 10.8849C11.7757 10.8849 11.6468 10.688 11.6611 10.5261C11.6683 10.4229 11.7507 10.3309 11.7661 10.2682C11.7818 10.2055 11.7718 10.0991 11.7249 10.0003C11.6891 10.0386 11.4982 10.2632 11.4727 10.3284ZM10.885 11.7521C10.885 11.7521 10.9004 11.8541 10.9781 12.0017C11.0551 12.1486 11.1622 12.2514 11.2195 12.3036C11.2195 12.3036 11.3485 12.0852 11.3864 11.9888C11.429 11.8785 11.4244 11.7703 11.4065 11.7295C11.3621 11.6339 11.2116 11.4963 11.1443 11.3764C11.1293 11.4347 10.9208 11.717 10.885 11.7521ZM12.477 11.9616C12.4985 11.8588 12.4742 11.5511 12.299 11.3982C12.246 11.5314 12.0565 11.6994 12.058 11.8029C12.0616 12.0766 12.1833 12.2442 12.2127 12.3348C12.2127 12.3348 12.4376 12.1611 12.477 11.9616ZM12.6164 10.6912C12.2227 10.9082 12.3452 11.2603 12.3452 11.2603C12.4412 11.3273 12.5236 11.5211 12.5494 11.5923C12.6497 11.415 12.8646 11.2968 12.8216 11.0984C12.7779 10.9007 12.6164 10.6912 12.6164 10.6912ZM13.0204 12.0021C13.0635 11.9237 13.095 11.8395 13.1139 11.7521C13.078 11.7173 12.8703 11.4347 12.8545 11.3764C12.7876 11.4963 12.6364 11.6342 12.5938 11.7295C12.5745 11.77 12.5691 11.8785 12.6128 11.9888C12.6511 12.0855 12.7793 12.3036 12.7793 12.3036C12.837 12.2514 12.9441 12.1486 13.0204 12.0021ZM10.9795 13.2506C11.0035 13.347 11.1085 13.5576 11.1085 13.5576C11.1529 13.4842 11.284 13.3126 11.3169 13.1901C11.3499 13.0687 11.2321 12.8635 11.1898 12.8033C10.9781 12.9967 10.9566 13.1546 10.9795 13.2506ZM13.611 14.2413C13.5762 14.1901 13.4212 14.0336 13.3463 13.9738C13.2722 13.9165 13.024 13.7625 13.024 13.7625C13.0368 13.8824 12.981 13.9587 12.953 14.0006C13.0121 14.0339 13.121 14.1024 13.279 14.1536C13.4226 14.2009 13.611 14.2413 13.611 14.2413ZM11.2689 12.3774C11.2217 12.4742 11.2125 12.5851 11.2432 12.6883C11.2847 12.8137 11.4749 12.9888 11.4749 12.9888C11.5304 12.8943 11.6131 12.7693 11.6393 12.7066C11.6654 12.6421 11.6805 12.5662 11.6633 12.4738C11.6418 12.3556 11.5028 12.2066 11.457 12.1163C11.4136 12.203 11.3141 12.2933 11.2689 12.3774ZM12.5798 13.314C12.5863 13.1478 12.3209 12.8344 12.3209 12.8344C12.1805 12.9666 12.1457 13.0501 12.131 13.1826C12.1139 13.314 12.1597 13.4136 12.2195 13.5289C12.2722 13.6328 12.4118 13.7861 12.4118 13.7861C12.4305 13.6593 12.5719 13.5211 12.5798 13.314ZM12.5243 12.9888C12.5243 12.9888 12.7141 12.8137 12.7557 12.688C12.7879 12.5941 12.7754 12.4602 12.7295 12.3774C12.6844 12.2936 12.5856 12.203 12.5419 12.116C12.4967 12.2066 12.3581 12.3559 12.3359 12.4741C12.3212 12.5524 12.3293 12.6332 12.3592 12.7069C12.3853 12.7693 12.4695 12.8943 12.5243 12.9888ZM12.7614 14.078C12.7614 14.078 12.8778 13.9978 12.924 13.8935C12.9677 13.7951 12.943 13.7248 12.8975 13.6751C12.8528 13.6238 12.7471 13.5057 12.7016 13.429C12.6722 13.52 12.5852 13.689 12.5734 13.7403C12.553 13.837 12.5805 13.9537 12.7614 14.078ZM12.2209 13.8423C12.226 13.6851 12.0834 13.4405 12.0014 13.3466H11.9971C11.9165 13.4405 11.7732 13.6851 11.7783 13.8423C11.7879 14.1557 11.9896 14.4512 12 14.5468C12.0096 14.4516 12.2113 14.1557 12.2209 13.8423ZM11.2374 14.078C11.4176 13.9537 11.4462 13.837 11.4251 13.7403C11.4136 13.689 11.3262 13.52 11.2972 13.4286C11.2525 13.5057 11.1464 13.6238 11.1013 13.6747C11.0562 13.7248 11.0315 13.7951 11.0745 13.8935C11.121 13.9978 11.2374 14.078 11.2374 14.078ZM12.8094 12.8036C12.7664 12.8638 12.6493 13.0687 12.6823 13.1901C12.717 13.3126 12.847 13.4842 12.8907 13.5576C12.8907 13.5576 12.9953 13.347 13.0193 13.2506C13.0429 13.1546 13.0207 12.9963 12.8094 12.8036ZM13.6576 14.5336C13.8302 14.5973 13.9871 14.7016 13.9871 14.7016C14.0845 14.6715 14.27 14.621 14.27 14.621C14.15 14.4924 14.0583 14.4297 13.9326 14.3928C13.8058 14.3567 13.5068 14.3097 13.3732 14.2625C13.4914 14.3767 13.5465 14.491 13.6576 14.5336ZM11.8703 13.1826C11.8535 13.0501 11.8184 12.9666 11.6794 12.8344C11.6794 12.8344 11.4136 13.1478 11.4197 13.314C11.4276 13.5207 11.5684 13.6593 11.5881 13.7861C11.5881 13.7861 11.7267 13.6328 11.78 13.5289C11.8395 13.4136 11.8846 13.314 11.8703 13.1826ZM11.9996 11.674C12.0257 11.5569 12.2765 11.3312 12.2528 11.2077C12.2184 11.0236 12.0974 11.0626 12.0014 10.9849H11.9996C11.9029 11.0626 11.78 11.0236 11.7453 11.2077C11.7231 11.3312 11.9724 11.5569 11.9982 11.674H11.9996ZM11.9975 13.0486H12.001C12.0211 12.972 12.1414 12.8792 12.1909 12.7445C12.2206 12.6658 12.2195 12.5726 12.1873 12.5092C12.1497 12.4351 12.0146 12.2531 11.9996 12.2012C11.9828 12.2531 11.8495 12.4351 11.8108 12.5092C11.7786 12.5726 11.7779 12.6654 11.8073 12.7445C11.8574 12.8792 11.9774 12.972 11.9975 13.0486Z" fill="white"/>
<path d="M24 2H44V22H24V2Z" fill="#CC003D"/>
<path d="M38.4991 13.8043C38.5579 13.5586 38.6352 12.8401 38.6352 12.8401H37.9454C37.9411 12.9135 37.926 13.1589 37.9046 13.4092C37.8723 13.7799 37.7652 14.1213 37.3924 14.1213H37.1051C37.1044 14.0901 37.1051 12.8401 37.1051 12.8401H36.4031V16.7165H37.1051V14.7484H37.5281L38.2172 16.7151H38.9705L38.127 14.444C38.3021 14.3114 38.4382 14.0575 38.4991 13.8043ZM30.5457 9.4608C30.5514 8.41245 30.8064 8.06754 31.0754 8.06145C31.344 8.06754 31.599 8.41245 31.6048 9.46116C31.599 10.4855 31.344 10.8358 31.0754 10.8412C30.8068 10.8358 30.5518 10.4852 30.5457 9.4608ZM31.0596 11.4766L31.0693 11.4769L31.0754 11.4766L31.0815 11.4769L31.0912 11.4766C31.5553 11.4676 31.9998 11.1872 32.1925 10.3931C32.2667 10.1234 32.3043 9.78852 32.3046 9.44289L32.3032 9.31754C32.291 8.76381 32.1975 8.3666 32.0525 8.08401C31.8236 7.60228 31.4597 7.42176 31.0836 7.41746L31.0815 7.41675H31.0693L31.0668 7.41746C30.6907 7.42176 30.3268 7.60228 30.0983 8.08401C29.9533 8.36696 29.8598 8.76381 29.8476 9.31789L29.8458 9.44325C29.8462 9.78852 29.8841 10.1234 29.9579 10.3931C30.1506 11.1872 30.5955 11.4676 31.0596 11.4766ZM27.8566 16.1166C27.7885 16.1166 27.6169 16.1008 27.6169 16.1008V14.7362C27.6169 14.7362 27.6721 14.7233 27.7323 14.7233C28.0879 14.7233 28.5081 14.7018 28.5081 15.4196C28.5081 16.0768 28.0464 16.1166 27.8566 16.1166ZM27.9414 14.1084C27.8207 14.1084 27.7133 14.1112 27.6169 14.1162V13.4848H28.8748V12.8401H26.916V16.7155H27.9798C29.0407 16.7155 29.2047 15.7563 29.2047 15.4013C29.2047 14.9819 29.0417 14.1084 27.9414 14.1084ZM34.7792 14.0786H33.8168V12.8401H33.1173V16.7165H33.8168V14.723H34.7792V16.7165H35.4791V12.8401H34.7792V14.0786ZM37.1001 11.392V8.16138H37.6825V7.51703H35.8082V8.16173H36.3906V11.392H37.1001ZM34.3301 9.52097V11.392H35.0317V7.51703H34.3297V8.8666H33.9486C33.791 8.8666 33.6739 8.83079 33.5994 8.75844C33.5464 8.7083 33.5206 8.63989 33.5206 8.55142V7.51703H32.8186V8.62377C32.8186 8.87842 32.9174 9.09404 33.1134 9.2656C33.3068 9.43537 33.5432 9.52097 33.8175 9.52097H34.3301ZM27.6169 8.16173H28.4855V11.392H29.1875V7.51703H26.916V11.392H27.6169V8.16173ZM30.6667 14.1897C30.6682 14.1109 30.6828 13.5593 30.6839 13.4848L30.8078 13.4766C31.319 13.4766 31.4124 13.5765 31.4597 14.1893L30.6667 14.1897ZM30.9744 12.8401H30.0227L29.8934 16.7162H30.5869C30.5869 16.7162 30.6506 14.9189 30.6546 14.8333L31.531 14.834C31.5389 14.9121 31.6696 16.7162 31.6696 16.7162H32.3859C32.3859 16.7162 32.1395 14.0539 32.1195 13.8831C32.0396 13.1975 31.7226 12.8401 30.9744 12.8401ZM39.0808 8.8666C39.0826 8.78781 39.0969 8.23623 39.098 8.16173H39.2301C39.7405 8.16173 39.8261 8.25307 39.8738 8.8666H39.0808ZM40.5335 8.56037C40.4533 7.87448 40.1366 7.51703 39.3884 7.51703H38.4368L38.3071 11.3928H39.0009C39.0009 11.3928 39.0647 9.59547 39.0686 9.51059H39.9447C39.9529 9.58903 40.0836 11.3928 40.0836 11.3928H40.7996C40.7996 11.3928 40.5532 8.73086 40.5335 8.56037Z" fill="white"/>
</svg>
