<svg xmlns="http://www.w3.org/2000/svg" width="80" height="24" viewBox="0 0 80 24" fill="none"><rect width="80" height="24" fill="none"/>
<path d="M12.2439 14.1994C13.4859 14.1994 14.4927 13.2145 14.4927 11.9994C14.4927 10.7845 13.4859 9.79945 12.2439 9.79945C11.002 9.79945 9.99515 10.7845 9.99515 11.9994C9.99515 13.2145 11.002 14.1994 12.2439 14.1994Z" fill="#000000"/>
<path d="M20.429 8.6868C19.8118 7.274 19.7288 5.69236 20.1951 4.2252L20.2085 4.2296C20.2041 4.2252 20.1995 4.2208 20.1951 4.2208C18.6953 4.67625 17.0791 4.59674 15.6336 3.9964C14.1787 3.41948 12.979 2.35822 12.2462 1H12.2417C11.5089 2.35821 10.3092 3.41946 8.85439 3.9964C7.40887 4.59666 5.79266 4.67616 4.2929 4.2208V4.2252C4.75688 5.69264 4.67398 7.27349 4.05896 8.6868C3.4721 10.1105 2.38822 11.2844 1 12C2.38917 12.7144 3.47341 13.8888 4.05896 15.3132C4.67407 16.725 4.75697 18.3044 4.2929 19.7704L4.2794 19.766L4.2929 19.7792C5.79266 19.3239 7.40887 19.4033 8.85439 20.0036C10.3098 20.5775 11.51 21.6376 12.2417 22.9956L12.2327 23H12.2553L12.2463 22.9956C12.99 21.646 14.1871 20.5889 15.6353 20.003C17.0836 19.4169 18.6941 19.3379 20.1951 19.7792C20.2036 19.7747 20.2112 19.7688 20.2175 19.7616L20.1951 19.7704C19.7468 18.3023 19.8295 16.7279 20.4293 15.3124C21.0291 13.897 22.1093 12.7272 23.4879 12C22.0997 11.2844 21.0159 10.1105 20.429 8.6868ZM20.2985 15.2604C18.8611 15.848 17.2566 15.9151 15.7731 15.4496C16.249 16.9006 16.1803 18.4701 15.5796 19.876C14.1392 19.2974 12.9571 18.2349 12.2462 16.8796H12.2417C11.5308 18.2349 10.3488 19.2974 8.90835 19.876C8.30892 18.4696 8.24195 16.9 8.71941 15.4496H8.71488C7.23295 15.9152 5.62982 15.8481 4.19391 15.2604C4.78573 13.8525 5.87218 12.6978 7.2574 12.0044V12C5.87193 11.3048 4.78559 10.1486 4.19391 8.7396C5.62982 8.15194 7.23295 8.08484 8.71488 8.5504H8.71941C8.24195 7.09995 8.30892 5.53045 8.90835 4.124C10.3488 4.70259 11.5308 5.76512 12.2417 7.1204H12.2462C12.9571 5.76512 14.1392 4.70259 15.5796 4.124C16.1803 5.52996 16.2489 7.09941 15.7731 8.5504C17.2566 8.08491 18.861 8.15201 20.2985 8.7396C19.7067 10.1475 18.6203 11.3022 17.235 11.9956V12C18.6205 12.6952 19.7069 13.8514 20.2985 15.2604Z" fill="#000000" fill-opacity="0.4"/>
<path d="M17.235 12V11.9956C18.6202 11.3016 19.7064 10.1462 20.2996 8.73875C18.8616 8.15116 17.257 8.08497 15.7731 8.5504C16.2489 7.09941 16.1803 5.52996 15.5796 4.124C14.1392 4.70259 12.9571 5.76512 12.2462 7.1204H12.2417C11.531 5.76521 10.3497 4.70179 8.90945 4.12312C8.3084 5.52911 8.24059 7.09894 8.71831 8.54955H8.71605C7.23365 8.08393 5.63026 8.15188 4.19391 8.7396C4.78538 10.1485 5.87132 11.3038 7.25657 11.9991V12.0035C5.87158 12.697 4.78552 13.8526 4.19391 15.2604C5.63026 15.8481 7.23365 15.9143 8.71605 15.4487H8.71831C8.24059 16.8993 8.3084 18.4692 8.90945 19.8751C10.3497 19.2965 11.531 18.2347 12.2417 16.8796H12.2462C12.9571 18.2349 14.1392 19.2974 15.5796 19.876C16.1803 18.4701 16.249 16.9006 15.7731 15.4496C17.257 15.915 18.8616 15.8471 20.2996 15.2595C19.7066 13.8508 18.6204 12.6957 17.235 12ZM12.2439 14.1994C11.7992 14.1994 11.3649 14.0701 10.9951 13.8284C10.6253 13.5866 10.337 13.2431 10.1668 12.841C9.99664 12.439 9.95206 11.9967 10.0388 11.57C10.1256 11.1432 10.3398 10.7512 10.6543 10.4435C10.9688 10.1358 11.3695 9.9263 11.8057 9.8414C12.2419 9.75651 12.6941 9.80006 13.105 9.96661C13.5159 10.1331 13.8672 10.4151 14.1143 10.7769C14.3613 11.1386 14.4927 11.5643 14.4927 11.9994C14.4925 12.5828 14.256 13.142 13.8343 13.5545C13.4127 13.967 12.8403 14.1992 12.2439 14.1994Z" fill="#000000" fill-opacity="0.7"/>
<path d="M31.8528 15.867L29.2724 12.1248V15.867H27.125V8.09715H29.2724V11.5755L31.707 8.09715H34.13L31.4392 11.814L34.4241 15.867H31.8528Z" fill="#000000"/>
<path d="M43.2724 8.0858V15.8557H41.5891L41.4044 15.1605C40.6914 15.7671 39.7757 16.0968 38.8308 16.0871C38.277 16.0983 37.7267 15.9991 37.2133 15.7957C36.6999 15.5923 36.2342 15.2888 35.8445 14.9038C35.4547 14.5187 35.1492 14.0602 34.9463 13.5559C34.7434 13.0517 34.6476 12.5124 34.6644 11.9707C34.6488 11.4306 34.7457 10.8928 34.9493 10.3905C35.1529 9.88809 35.459 9.43151 35.8488 9.0486C36.2385 8.66561 36.704 8.36433 37.2166 8.16305C37.7293 7.96177 38.2785 7.86471 38.8308 7.87775C39.7909 7.86717 40.7207 8.20585 41.44 8.82807L41.6695 8.08564L43.2724 8.0858ZM41.1678 11.9707C41.1652 11.5526 41.0361 11.1446 40.7967 10.7983C40.5573 10.4519 40.2185 10.1827 39.8228 10.0245C39.4272 9.86629 38.9926 9.82636 38.5738 9.90957C38.1549 9.99279 37.7707 10.1956 37.4695 10.4922C37.1683 10.7888 36.9637 11.1661 36.8814 11.5764C36.7992 11.9867 36.843 12.4116 37.0074 12.7976C37.1717 13.1835 37.4492 13.5132 37.8049 13.745C38.1605 13.9769 38.5784 14.1005 39.0058 14.1002C39.293 14.1074 39.5786 14.0571 39.8452 13.9524C40.1118 13.8478 40.3538 13.691 40.5562 13.4916C40.7587 13.2922 40.9173 13.0545 41.0225 12.7929C41.1277 12.5314 41.1772 12.2516 41.1678 11.9707Z" fill="#000000"/>
<path d="M49.6304 15.8669L47.0766 12.1489V15.8669H44.9292V8.09715H47.0766V11.5516L49.4847 8.09715H51.9342L49.2422 11.8149L52.2204 15.8669H49.6304Z" fill="#000000"/>
<path d="M60.1019 9.98608H57.5147V15.8669H55.4085V9.98608H52.8215V8.09715H60.102L60.1019 9.98608Z" fill="#000000"/>
<path d="M69.5967 8.09715L66.135 15.7635C65.1831 17.8695 64.3463 18.6675 62.5639 18.6675H61.6788V16.7787H62.4221C63.4569 16.7787 63.7257 16.5093 64.2139 15.3346L64.244 15.2715L60.8792 8.09715H63.2163L65.335 12.877L67.313 8.09715H69.5967Z" fill="#000000"/>
<path d="M73.9219 16.0865C73.3658 16.0954 72.8128 15.9946 72.2969 15.7903C71.781 15.5859 71.3123 15.2821 70.9189 14.897C70.5255 14.5118 70.2152 14.0532 70.0067 13.5483C69.7981 13.0434 69.6956 12.5027 69.7049 11.9583C69.7049 9.62995 71.5207 7.87706 73.9338 7.87706C74.8861 7.84675 75.8177 8.15193 76.5592 8.73707C77.2999 9.32214 77.8019 10.1482 77.973 11.0649H75.8408C75.6809 10.6987 75.4128 10.3877 75.0707 10.1717C74.7286 9.95558 74.3292 9.84443 73.9219 9.85239C72.7574 9.85239 71.8814 10.7667 71.8814 11.9703C71.8814 13.1737 72.772 14.1115 73.9219 14.1115C74.3396 14.1141 74.7477 13.9903 75.0914 13.7572C75.4343 13.5239 75.6952 13.1926 75.8376 12.8087H78C77.8369 13.7435 77.3349 14.5894 76.5855 15.1914C75.8368 15.7935 74.8909 16.1112 73.9219 16.0865Z" fill="#000000"/>
</svg>
