<svg xmlns="http://www.w3.org/2000/svg" width="89" height="24" viewBox="0 0 89 24" fill="none"><rect width="89" height="24" fill="none"/>
<path d="M9.79583 22C7.70017 22 6.30307 21.1049 5.49275 19.7622H5.43687V21.5804H2V2H5.43687V10.4755H5.49275C6.30307 9.13287 7.70017 8.23776 9.79583 8.23776C13.1768 8.23776 15.999 10.6993 15.999 15.1189C15.999 19.5385 13.1768 22 9.79583 22ZM8.92962 18.7552C10.9973 18.7552 12.4224 17.3007 12.4224 15.1189C12.4224 12.9371 10.9973 11.4825 8.92962 11.4825C6.86191 11.4825 5.43687 12.9371 5.43687 15.1189C5.43687 17.3007 6.86191 18.7552 8.92962 18.7552Z" fill="#FF0067"/>
<path d="M21.1466 2.16784V5.94406H17.2347V2.16784H21.1466ZM17.4583 21.5804V8.65735H20.8951V21.5804H17.4583Z" fill="#FF0067"/>
<path d="M28.4664 22C25.0854 22 22.2633 19.5385 22.2633 15.1189C22.2633 10.6993 25.0854 8.23776 28.4664 8.23776C30.5621 8.23776 31.9592 9.13287 32.7695 10.4755H32.8254V2H36.2343V21.5804H32.8254V19.7622H32.7695C31.9592 21.1049 30.5621 22 28.4664 22ZM29.3326 18.7552C31.4003 18.7552 32.8254 17.3007 32.8254 15.1189C32.8254 12.9371 31.4003 11.4825 29.3326 11.4825C27.2649 11.4825 25.8399 12.9371 25.8399 15.1189C25.8399 17.3007 27.2649 18.7552 29.3326 18.7552Z" fill="#FF0067"/>
<path d="M41.8221 18.5595H48.8914V21.5804H37.6587V18.8112L44.2251 11.6783H38.022V8.65736H48.4164V11.3986L41.8221 18.5595Z" fill="#FF0067"/>
<path d="M70.168 21.9243C66.787 21.9243 63.9649 19.4628 63.9649 15.0432C63.9649 10.6236 66.787 8.16206 70.168 8.16206C72.2636 8.16206 73.6607 9.05716 74.4711 10.3998H74.5269V8.58164H77.9359V21.5047H74.5269V19.6865H74.4711C73.6607 21.0292 72.2636 21.9243 70.168 21.9243ZM71.0342 18.6795C73.1019 18.6795 74.5269 17.225 74.5269 15.0432C74.5269 12.8614 73.1019 11.4068 71.0342 11.4068C68.9665 11.4068 67.5414 12.8614 67.5414 15.0432C67.5414 17.225 68.9665 18.6795 71.0342 18.6795Z" fill="#FF0067"/>
<path d="M55.3949 21.9243C52.0139 21.9243 49.1918 19.4628 49.1918 15.0432C49.1918 10.6236 52.0139 8.16206 55.3949 8.16206C57.4905 8.16206 58.8877 9.05716 59.698 10.3998H59.7539V8.58164H63.1628V21.5047H59.7539V19.6865H59.698C58.8877 21.0292 57.4905 21.9243 55.3949 21.9243ZM56.2611 18.6795C58.3288 18.6795 59.7539 17.225 59.7539 15.0432C59.7539 12.8614 58.3288 11.4068 56.2611 11.4068C54.1934 11.4068 52.7683 12.8614 52.7683 15.0432C52.7683 17.225 54.1934 18.6795 56.2611 18.6795Z" fill="#FF0067"/>
<path d="M87 8.18999V11.8823H86.6088C83.8705 11.8823 82.5572 13.0571 82.5572 16.218V21.5047H79.1483V8.5816H82.5293V11.3229H82.5852C83.2558 9.30887 84.7367 8.18999 86.8603 8.18999H87Z" fill="#FF0067"/>
</svg>
