<svg xmlns="http://www.w3.org/2000/svg" width="188" height="24" viewBox="0 0 188 24" fill="none"><rect width="188" height="24" fill="none"/>
<path d="M38.245 9.56059L33.2854 2.56279H25.9665L34.1697 14.1979L27.5217 22H35.6985L51.6494 2.56279H43.6876L38.245 9.56059Z" fill="black"/>
<path d="M18.3267 9.77485V9.4536C23.2863 8.9444 25.4579 6.34338 25.5923 2.56396H16.9866C17.0673 7.14866 14.6006 7.57709 11.6783 7.57709H9.18549V2.56296H2V17.4154H9.18473V12H11.9465C15.0832 12 17.5224 12.3487 17.4427 17.4154H25.861C25.7268 12.8843 23.153 10.3379 18.3277 9.77485H18.3267Z" fill="black"/>
<path d="M65.6872 2.56279H52.4171V17.4153H59.6019V6.50372H63.1945C66.6798 6.50372 67.3496 7.65667 67.3496 10.8469V17.4153H74.5344V10.659C74.5344 5.40432 72.4972 2.56279 65.6872 2.56279Z" fill="black"/>
<path d="M111.987 2.56279H101.343V22H108.528V17.4153H111.718C118.983 17.4153 123.783 14.5201 123.783 10.0426C123.783 5.56508 119.064 2.56279 111.987 2.56279ZM111.638 13.6884H108.528V6.2622H111.638C114.694 6.2622 116.624 7.57592 116.624 9.96161C116.624 12.1332 114.667 13.6884 111.638 13.6884Z" fill="black"/>
<path d="M87.8037 2C80.6997 2 75.3107 5.51249 75.3107 10.0962C75.3107 14.6799 80.8606 17.9783 88.1786 17.9783C93.9424 17.9783 99.3852 15.5652 100.564 12.5357H93.0846C92.0387 13.9838 89.8671 14.8145 88.1786 14.8145C85.4977 14.8145 83.2725 13.4736 82.736 11.222H100.644C100.859 6.10168 95.2563 2 87.8028 2H87.8037ZM83.005 8.08536C83.8902 6.12811 85.8464 5.16306 87.9383 5.16306C90.2707 5.16306 92.1472 6.02093 93.005 8.08536H83.005Z" fill="black"/>
<path d="M128.762 16.1396H129.294C129.471 15.9977 129.62 15.7955 129.741 15.533C129.861 15.2634 129.932 14.9761 129.954 14.671C129.961 14.5575 129.968 14.4262 129.975 14.2773C129.982 14.1283 129.985 13.9474 129.985 13.7345C129.992 13.5146 129.996 13.2521 129.996 12.947C130.003 12.642 130.007 12.2802 130.007 11.8616H133.604V16.1396H134.423V18.353H133.593V16.927H129.592V18.353H128.762V16.1396ZM130.752 14.7881C130.723 15.086 130.663 15.3485 130.571 15.5755C130.478 15.7955 130.376 15.9835 130.262 16.1396H132.752V12.6491H130.805C130.805 13.1386 130.801 13.5678 130.794 13.9367C130.787 14.2985 130.773 14.5823 130.752 14.7881ZM135.687 15.0967C135.694 14.898 135.701 14.6568 135.708 14.373C135.715 14.0822 135.719 13.7877 135.719 13.4898C135.726 13.1847 135.733 12.8903 135.74 12.6065C135.747 12.3156 135.751 12.0673 135.751 11.8616H139.337V16.927H138.486V12.6491H136.538C136.538 12.8548 136.535 13.0747 136.528 13.3089C136.528 13.543 136.524 13.7736 136.517 14.0006C136.51 14.2205 136.503 14.4333 136.496 14.6391C136.496 14.8448 136.492 15.0222 136.485 15.1712C136.456 15.8451 136.329 16.3063 136.102 16.5546C135.875 16.8029 135.517 16.927 135.027 16.927H134.633V16.1396H134.942C135.197 16.1396 135.382 16.058 135.495 15.8948C135.609 15.7316 135.673 15.4656 135.687 15.0967ZM140.595 13.4791C140.595 12.9399 140.765 12.5356 141.106 12.266C141.453 11.9964 141.904 11.8616 142.457 11.8616H144.692V16.927H143.841V15.0222H142.702L141.468 16.927H140.478L141.829 14.969C141.432 14.8838 141.127 14.7171 140.914 14.4688C140.701 14.2134 140.595 13.8835 140.595 13.4791ZM142.479 14.2985H143.841V12.6065H142.479C142.145 12.6065 141.886 12.681 141.702 12.83C141.524 12.9719 141.436 13.1776 141.436 13.4472C141.436 13.7168 141.524 13.9261 141.702 14.0751C141.879 14.224 142.138 14.2985 142.479 14.2985ZM152.988 14.4582C152.988 15.2386 152.771 15.8629 152.339 16.3311C151.906 16.7993 151.335 17.0335 150.625 17.0335C149.887 17.0335 149.291 16.8029 148.837 16.3417C148.383 15.8806 148.156 15.1641 148.156 14.1921V13.1279C148.156 12.5107 148.224 11.9999 148.359 11.5955C148.5 11.1841 148.696 10.8542 148.944 10.6059C149.192 10.3505 149.49 10.1625 149.838 10.0419C150.185 9.92125 150.561 9.83611 150.966 9.78646C151.292 9.75098 151.594 9.71552 151.87 9.68004C152.147 9.64458 152.402 9.61264 152.636 9.58427L152.743 10.4037C152.495 10.432 152.211 10.4675 151.892 10.5101C151.572 10.5456 151.278 10.5775 151.008 10.6059C150.377 10.6768 149.873 10.8826 149.497 11.2231C149.128 11.5565 148.944 12.1276 148.944 12.9364V12.947C149.135 12.642 149.398 12.4114 149.731 12.2553C150.072 12.0993 150.423 12.0212 150.785 12.0212C151.48 12.0212 152.019 12.2376 152.402 12.6704C152.793 13.1031 152.988 13.699 152.988 14.4582ZM150.625 16.3098C151.157 16.3098 151.544 16.136 151.785 15.7884C152.034 15.4337 152.158 14.9903 152.158 14.4582C152.158 13.9048 152.026 13.4862 151.764 13.2024C151.501 12.9116 151.136 12.7661 150.668 12.7661C150.207 12.7661 149.809 12.8974 149.476 13.1599C149.15 13.4153 148.987 13.7523 148.987 14.1708V14.3305C148.987 14.9832 149.132 15.4762 149.423 15.8097C149.714 16.1431 150.114 16.3098 150.625 16.3098ZM155.081 16.927H154.165V11.8616H154.985V15.8309L157.528 11.8616H158.465V16.927H157.645V12.9364L155.081 16.927ZM161.771 16.2992C162.175 16.2992 162.484 16.2211 162.697 16.0651C162.91 15.909 163.016 15.7103 163.016 15.4691C163.016 15.2208 162.935 15.0293 162.771 14.8945C162.608 14.7526 162.324 14.6816 161.92 14.6816H161.101V13.9899H161.995C162.321 13.9899 162.555 13.9225 162.697 13.7877C162.846 13.6458 162.92 13.4756 162.92 13.2769C162.92 13.0499 162.832 12.8619 162.654 12.7129C162.484 12.5639 162.214 12.4895 161.846 12.4895C161.455 12.4895 161.147 12.5746 160.92 12.7448C160.7 12.9151 160.544 13.1528 160.451 13.4578L159.653 13.2982C159.767 12.7874 160.019 12.4043 160.409 12.1489C160.799 11.8864 161.278 11.7552 161.846 11.7552C162.449 11.7552 162.913 11.89 163.24 12.1596C163.573 12.422 163.74 12.7626 163.74 13.1812C163.74 13.4295 163.673 13.6565 163.538 13.8622C163.41 14.0609 163.215 14.2063 162.952 14.2985C163.215 14.3766 163.431 14.5114 163.601 14.7029C163.779 14.8945 163.868 15.1499 163.868 15.4691C163.868 15.9586 163.676 16.3417 163.293 16.6184C162.917 16.8951 162.41 17.0335 161.771 17.0335C161.14 17.0335 160.636 16.8987 160.26 16.6291C159.891 16.3524 159.671 15.9586 159.6 15.4478L160.409 15.3201C160.459 15.5968 160.593 15.8309 160.813 16.0225C161.033 16.2069 161.352 16.2992 161.771 16.2992ZM165.041 16.927V11.8616H165.892V13.9367H168.595V11.8616H169.447V16.927H168.595V14.7242H165.892V16.927H165.041ZM175.209 14.5433H171.463C171.491 15.1108 171.647 15.5436 171.931 15.8416C172.215 16.1396 172.577 16.2885 173.017 16.2885C173.414 16.2885 173.722 16.1963 173.942 16.0118C174.162 15.8274 174.308 15.6146 174.379 15.3733L175.177 15.5117C175.056 15.987 174.808 16.3595 174.432 16.6291C174.056 16.8987 173.573 17.0335 172.985 17.0335C172.261 17.0335 171.683 16.7993 171.25 16.3311C170.824 15.8558 170.611 15.2102 170.611 14.3943C170.611 13.9757 170.672 13.6033 170.792 13.2769C170.92 12.9435 171.09 12.6668 171.303 12.4469C171.516 12.2199 171.768 12.0496 172.059 11.9361C172.357 11.8155 172.672 11.7552 173.006 11.7552C173.68 11.7552 174.216 11.968 174.613 12.3937C175.01 12.8193 175.209 13.4188 175.209 14.1921V14.5433ZM172.995 12.4895C172.598 12.4895 172.265 12.6136 171.995 12.8619C171.733 13.1102 171.566 13.4366 171.495 13.8409H174.357C174.336 13.4507 174.216 13.1279 173.996 12.8726C173.776 12.6171 173.442 12.4895 172.995 12.4895ZM179.791 15.2776L180.589 15.4053C180.49 15.8593 180.259 16.246 179.897 16.5652C179.543 16.8774 179.046 17.0335 178.407 17.0335C177.705 17.0335 177.134 16.81 176.694 16.363C176.254 15.9161 176.034 15.2598 176.034 14.3943C176.034 13.9474 176.095 13.5607 176.215 13.2344C176.343 12.9009 176.513 12.6243 176.726 12.4043C176.939 12.1844 177.191 12.0212 177.482 11.9148C177.773 11.8084 178.085 11.7552 178.418 11.7552C179.078 11.7552 179.578 11.9148 179.919 12.234C180.266 12.5533 180.483 12.9258 180.568 13.3514L179.791 13.5004C179.727 13.2592 179.592 13.0357 179.387 12.83C179.181 12.6171 178.858 12.5107 178.418 12.5107C177.928 12.5107 177.549 12.681 177.279 13.0215C177.017 13.355 176.886 13.8126 176.886 14.3943C176.886 14.9548 177.017 15.4088 177.279 15.7565C177.542 16.1041 177.918 16.2779 178.407 16.2779C178.854 16.2779 179.177 16.175 179.376 15.9693C179.582 15.7565 179.72 15.5259 179.791 15.2776ZM184.833 16.927V16.3311C184.677 16.5368 184.461 16.7071 184.184 16.8419C183.914 16.9696 183.599 17.0335 183.235 17.0335C182.683 17.0335 182.242 16.8987 181.917 16.6291C181.598 16.3595 181.438 15.9906 181.438 15.5223C181.438 14.9973 181.612 14.6178 181.96 14.3837C182.314 14.1496 182.782 14.0219 183.363 14.0006C183.626 13.9935 183.871 13.9935 184.099 14.0006C184.326 14.0006 184.552 14.0041 184.779 14.0112V13.5749C184.779 13.206 184.673 12.9364 184.461 12.7661C184.247 12.5959 183.979 12.5107 183.651 12.5107C183.289 12.5107 183.012 12.5994 182.822 12.7768C182.636 12.9541 182.501 13.1705 182.417 13.4259L181.608 13.2556C181.714 12.8087 181.942 12.4469 182.289 12.1702C182.636 11.8935 183.092 11.7552 183.651 11.7552C184.227 11.7552 184.698 11.9006 185.067 12.1915C185.443 12.4753 185.63 12.9258 185.63 13.543V16.927H184.833ZM184.779 14.6816C184.567 14.6746 184.34 14.671 184.099 14.671C183.863 14.671 183.626 14.6746 183.385 14.6816C183.023 14.6958 182.75 14.7739 182.566 14.9158C182.381 15.0576 182.289 15.2563 182.289 15.5117C182.289 15.7529 182.374 15.948 182.545 16.097C182.723 16.2389 182.96 16.3098 183.257 16.3098C183.683 16.3098 184.041 16.2069 184.333 16.0012C184.63 15.7884 184.779 15.5117 184.779 15.1712V14.6816Z" fill="black"/>
</svg>
