<svg xmlns="http://www.w3.org/2000/svg" width="51" height="24" viewBox="0 0 51 24" fill="none"><rect width="51" height="24" fill="none"/>
<path d="M43.2335 20.7534C42.212 20.7534 42.0112 20.3226 42.0112 19.5763V16.386C42.0112 15.6685 42.2069 15.2089 43.2335 15.2089C44.3312 15.2089 44.5168 15.6685 44.5168 16.386V19.5763C44.5168 20.3226 44.2598 20.7534 43.2335 20.7534ZM43.2335 22C45.1056 22 45.9329 21.274 45.9329 19.6475V16.3131C45.9329 14.6458 45.1431 13.9606 43.2335 13.9606C41.3236 13.9606 40.5951 14.639 40.5951 16.3131V19.6475C40.5951 21.274 41.3541 22 43.2335 22Z" fill="#E2000F"/>
<path d="M32.6924 20.6567V15.3412H33.9025C35.0005 15.3412 35.1656 15.7313 35.1656 16.4776V19.5458C35.1656 20.292 34.9086 20.6499 33.8823 20.6499L32.6924 20.6567ZM31.2847 14.0607V21.9287H33.8823C35.7544 21.9287 36.5817 21.2503 36.5817 19.617V16.4064C36.5817 14.7391 35.7919 14.0539 33.8823 14.0539L31.2847 14.0607Z" fill="#E2000F"/>
<path d="M26.9323 19.1574L27.5893 16.2469L28.2463 19.1625L26.9323 19.1574ZM28.3077 14.0692H26.9017L24.7162 21.9287H26.1698L26.58 20.538H28.6022L29.0038 21.9287H30.4607L28.3077 14.0692Z" fill="#E2000F"/>
<path d="M20.6518 17.8582V15.3514H21.256C22.3556 15.3514 22.5496 15.7415 22.5496 16.4878V16.7558C22.5496 17.502 22.2619 17.8599 21.2356 17.8599L20.6518 17.8582ZM24.4083 21.9287L22.6739 18.9318C23.627 18.6248 24.0356 17.9905 24.0356 16.8253V16.4165C24.0356 14.7493 23.1419 14.0539 21.2322 14.0539H19.2407V21.9287H20.6586V19.1574H21.1811L22.7522 21.9287H24.4083Z" fill="#E2000F"/>
<path d="M39.2743 14.0641H37.8479V21.9406H39.2743V14.0641Z" fill="#E2000F"/>
<path d="M18.444 14.0844H13.7632V15.3412H15.4058V21.9287H16.8117V15.3412H18.444V14.0844Z" fill="#E2000F"/>
<path d="M8.30321 14.0539V21.9389H12.9942V20.6499H9.71937V18.5739H12.3883V17.3053H9.71937V15.2802H12.8496V14.0539H8.30321Z" fill="#E2000F"/>
<path d="M4.67912 18.7283H6.02379V19.4949C6.02379 20.2717 5.66464 20.7008 4.63826 20.7008C3.6119 20.7008 3.41616 20.2717 3.41616 19.5254V16.4369C3.41616 15.7211 3.6119 15.2598 4.63826 15.2598C5.74465 15.2598 5.91484 15.6279 5.91484 16.3639H7.33101C7.33101 14.6679 6.54122 14.0132 4.63146 14.0132C2.74563 14.0132 2.01827 14.7409 2.00034 16.304C2.00011 16.3239 2 16.3438 2 16.3639V19.5254C2 19.5462 2.00011 19.5667 2.00034 19.5872C2.01872 21.2397 2.78211 21.9694 4.63826 21.9694C6.51739 21.9694 7.33781 21.2232 7.33781 19.4949V17.4494H4.67912V18.7283Z" fill="#E2000F"/>
<path d="M37.6425 12.312C37.6425 13.5332 39.4807 13.5213 39.4807 12.312C39.4807 11.1028 37.6425 11.079 37.6425 12.312Z" fill="#E2000F"/>
<path d="M37.019 9.75438C36.9931 9.77282 36.9638 9.78569 36.9327 9.79221C36.9017 9.79876 36.8696 9.79878 36.8385 9.79231C36.8072 9.78584 36.7779 9.77303 36.752 9.75467C36.726 9.73628 36.7045 9.71279 36.688 9.68559C36.6719 9.65843 36.6613 9.62818 36.6572 9.59675C36.6534 9.56535 36.6559 9.53346 36.6649 9.50311C36.6742 9.47275 36.6893 9.44459 36.7099 9.4204C36.7304 9.39624 36.7556 9.37654 36.7841 9.3626C37.3189 9.04173 37.9318 8.8728 38.5561 8.87414C39.332 8.87473 40.0854 9.13579 40.6942 9.61519C41.3033 10.0946 41.7324 10.7644 41.9126 11.5166C41.9216 11.5736 41.9088 11.632 41.8764 11.6799C41.8443 11.7279 41.795 11.762 41.7385 11.7753C41.682 11.7886 41.6227 11.7801 41.5724 11.7517C41.5221 11.7232 41.4841 11.6768 41.4666 11.6218C41.3729 11.2324 41.2014 10.8658 40.9626 10.5438C40.7238 10.2217 40.4223 9.95087 40.0764 9.74722C39.7303 9.5436 39.3469 9.41136 38.9484 9.35839C38.5502 9.30541 38.1452 9.33281 37.7578 9.43891C37.4976 9.50906 37.2481 9.61344 37.0157 9.7493L37.019 9.75438Z" fill="#E2000F"/>
<path d="M36.9289 7.2951C36.8711 7.31354 36.8082 7.30835 36.7543 7.28067C36.7004 7.25301 36.6598 7.20513 36.641 7.14753C36.6226 7.08996 36.6279 7.02741 36.6557 6.97367C36.6834 6.9199 36.7314 6.87936 36.7892 6.86089C37.3587 6.67614 37.9537 6.58114 38.5527 6.57937C40.0772 6.57937 41.539 7.18279 42.6172 8.25693C43.6952 9.33107 44.3006 10.7879 44.3006 12.307V12.4918C44.2942 12.549 44.2665 12.6017 44.2231 12.6394C44.1794 12.6771 44.1232 12.6972 44.0654 12.6955C44.0076 12.6937 43.9527 12.6704 43.9116 12.6302C43.8703 12.59 43.8456 12.5357 43.8428 12.4783V12.3087C43.8431 11.6164 43.7065 10.9308 43.4404 10.2911C43.1747 9.65147 42.7851 9.07029 42.2939 8.58074C41.8025 8.0912 41.2193 7.70293 40.5774 7.4381C39.9355 7.17326 39.2473 7.03707 38.5527 7.0373C38.2762 7.03722 38.0001 7.0582 37.7272 7.10005C37.4553 7.14247 37.1872 7.206 36.9253 7.29002L36.9289 7.2951Z" fill="#E2000F"/>
<path fill-rule="evenodd" clip-rule="evenodd" d="M2.00034 16.304V19.5872C2.01872 21.2397 2.78211 21.9694 4.63826 21.9694C6.51739 21.9694 7.33781 21.2232 7.33781 19.4949V17.4494H4.67912V18.7283H6.02379V19.4949C6.02379 20.2717 5.66464 20.7008 4.63826 20.7008C3.6119 20.7008 3.41616 20.2717 3.41616 19.5254V16.4369C3.41616 15.7211 3.6119 15.2598 4.63826 15.2598C5.74465 15.2598 5.91484 15.6279 5.91484 16.3639H7.33101C7.33101 14.6679 6.54122 14.0132 4.63146 14.0132C2.74563 14.0132 2.01827 14.7409 2.00034 16.304ZM45.9329 19.6475C45.9329 21.274 45.1056 22 43.2335 22C41.3541 22 40.5951 21.274 40.5951 19.6475V16.3131C40.5951 14.639 41.3236 13.9606 43.2335 13.9606C45.1431 13.9606 45.9329 14.6458 45.9329 16.3131V19.6475ZM31.2847 21.9287V14.0607L33.8823 14.0539C35.7919 14.0539 36.5817 14.7391 36.5817 16.4064V19.617C36.5817 21.2503 35.7544 21.9287 33.8823 21.9287H31.2847ZM26.9017 14.0692H28.3077L30.4607 21.9287H29.0038L28.6022 20.538H26.58L26.1698 21.9287H24.7162L26.9017 14.0692ZM22.6739 18.9318L24.4083 21.9287H22.7522L21.1811 19.1574H20.6586V21.9287H19.2407V14.0539H21.2322C23.1419 14.0539 24.0356 14.7493 24.0356 16.4165V16.8253C24.0356 17.9905 23.627 18.6248 22.6739 18.9318ZM37.8479 14.0641H39.2743V21.9406H37.8479V14.0641ZM13.7632 14.0844H18.444V15.3412H16.8117V21.9287H15.4058V15.3412H13.7632V14.0844ZM8.30321 21.9389V14.0539H12.8496V15.2802H9.71937V17.3053H12.3883V18.5739H9.71937V20.6499H12.9942V21.9389H8.30321ZM32.6924 15.3412V20.6567L33.8823 20.6499C34.9086 20.6499 35.1656 20.292 35.1656 19.5458V16.4776C35.1656 15.7313 35.0005 15.3412 33.9025 15.3412H32.6924ZM43.2335 20.7534C42.212 20.7534 42.0112 20.3226 42.0112 19.5763V16.386C42.0112 15.6685 42.2069 15.2089 43.2335 15.2089C44.3312 15.2089 44.5168 15.6685 44.5168 16.386V19.5763C44.5168 20.3226 44.2598 20.7534 43.2335 20.7534ZM20.6518 15.3514V17.8582L21.2356 17.8599C22.2619 17.8599 22.5496 17.502 22.5496 16.7558V16.4878C22.5496 15.7415 22.3556 15.3514 21.256 15.3514H20.6518ZM26.9323 19.1574L27.5893 16.2469L28.2463 19.1625L26.9323 19.1574Z" fill="#1A1A18"/>
<path d="M36.9289 4.9206C36.8716 4.92818 36.8136 4.91403 36.7663 4.88096C36.7191 4.84788 36.6862 4.79833 36.6739 4.74212C36.6618 4.68593 36.6713 4.62721 36.7004 4.57763C36.7296 4.52804 36.7766 4.49125 36.8318 4.47453C37.1127 4.41306 37.397 4.36664 37.6828 4.33546C37.9706 4.30494 38.2597 4.28965 38.5491 4.28967C39.606 4.28922 40.6524 4.49628 41.6289 4.89903C42.6051 5.30178 43.4923 5.89231 44.2395 6.63688C44.9867 7.38145 45.5794 8.26545 45.9835 9.23834C46.3877 10.2113 46.5954 11.254 46.5952 12.307C46.5952 12.5195 46.5867 12.7316 46.5695 12.943C46.5543 13.1516 46.5287 13.3619 46.4948 13.5756C46.4817 13.6324 46.4475 13.6821 46.399 13.7146C46.3507 13.7472 46.2917 13.7601 46.2339 13.7508C46.1764 13.7415 46.1242 13.7107 46.0886 13.6646C46.0531 13.6185 46.0362 13.5606 46.0418 13.5027C46.0726 13.311 46.0965 13.1126 46.1117 12.9074C46.1271 12.7022 46.1355 12.5105 46.1355 12.307C46.1358 11.3145 45.9399 10.3317 45.5588 9.41465C45.1778 8.49763 44.6193 7.66434 43.9152 6.9624C43.2111 6.26045 42.3751 5.70356 41.4551 5.32356C40.5348 4.94353 39.5488 4.74782 38.5527 4.74761C38.2793 4.74784 38.0058 4.76199 37.7339 4.79001C37.4635 4.81905 37.1946 4.86265 36.9289 4.9206Z" fill="#E2000F"/>
<path d="M36.922 2.59699C36.8914 2.60394 36.8596 2.60456 36.8287 2.59882C36.7979 2.59307 36.7687 2.58108 36.7425 2.56358C36.7165 2.54608 36.6942 2.52345 36.6775 2.49708C36.6606 2.47072 36.6493 2.44117 36.6441 2.41028C36.6392 2.37938 36.6405 2.3478 36.6482 2.31746C36.6559 2.28712 36.6698 2.25869 36.6891 2.23391C36.7083 2.20912 36.7322 2.18852 36.7597 2.17338C36.7871 2.15823 36.8174 2.14886 36.8488 2.14584C37.1297 2.09835 37.4139 2.06273 37.7 2.04068C37.9858 2.01863 38.2718 2.00507 38.5509 2.00507C40.2924 2.00527 42.0056 2.4436 43.5318 3.27941C45.0579 4.11522 46.3476 5.32145 47.2813 6.7863C48.2149 8.25112 48.7623 9.92712 48.8725 11.6589C48.9829 13.3907 48.6527 15.1223 47.9124 16.693C47.9011 16.7224 47.8839 16.7491 47.8618 16.7715C47.8398 16.7939 47.8133 16.8116 47.784 16.8234C47.7548 16.8351 47.7234 16.8408 47.6919 16.84C47.6603 16.8391 47.6292 16.8318 47.6007 16.8185C47.5722 16.8052 47.5465 16.7862 47.5257 16.7626C47.5049 16.739 47.489 16.7114 47.4792 16.6815C47.4697 16.6516 47.4661 16.62 47.4692 16.5887C47.4723 16.5574 47.4818 16.5271 47.4972 16.4997C48.2054 14.9985 48.5217 13.3434 48.417 11.6879C48.312 10.0324 47.7892 8.43015 46.8971 7.02967C46.0051 5.62917 44.7726 4.47587 43.3138 3.67665C41.8548 2.87744 40.2174 2.45824 38.5527 2.45792C38.2752 2.45792 38.0012 2.46979 37.7305 2.49184C37.4599 2.51389 37.1823 2.54781 36.9186 2.5919L36.922 2.59699Z" fill="#E2000F"/>
</svg>
