<svg xmlns="http://www.w3.org/2000/svg" width="125" height="24" viewBox="0 0 125 24" fill="none"><rect width="125" height="24" fill="none"/>
<path d="M27.472 4.30901V19.5916H30.0997V6.37601H34.7903V19.5916H37.418V4.30901H27.472Z" fill="white"/>
<path d="M41.9701 8.53097H39.5813V22.78H42.1655V18.2942C42.817 19.2838 43.7725 19.8115 44.8801 19.8115C47.3991 19.8115 49.1363 17.7665 49.1363 14.0503C49.1363 10.3561 47.4425 8.31108 45.0103 8.31108C43.7942 8.31108 42.7953 8.8828 42.1004 9.96026L41.9701 8.53097ZM44.2285 17.7445C42.8604 17.7445 42.1655 16.623 42.1655 14.0723C42.1655 11.4996 42.9039 10.3781 44.3589 10.3781C45.7704 10.3781 46.4653 11.4996 46.4653 14.0503C46.4653 16.623 45.727 17.7445 44.2285 17.7445Z" fill="white"/>
<path d="M58.9226 12.0493C58.9226 9.36657 57.5763 8.35505 54.84 8.35505C53.1245 8.35505 51.7781 8.90479 50.9963 9.36657V11.5435C51.6912 11.0158 53.2114 10.444 54.536 10.444C55.7738 10.444 56.3385 10.8839 56.3385 12.0713V12.687H55.9259C51.9736 12.687 50.2146 14.0063 50.2146 16.2493C50.2146 18.4921 51.561 19.7456 53.5588 19.7456C55.0789 19.7456 55.7304 19.2398 56.2299 18.7121H56.3385C56.3602 18.9979 56.4471 19.3717 56.534 19.5916H59.053C58.9661 18.6901 58.9226 17.7885 58.9226 16.8869V12.0493ZM56.3385 16.9529C56.0127 17.4367 55.4047 17.8325 54.4926 17.8325C53.4068 17.8325 52.8639 17.2168 52.8639 16.2713C52.8639 15.0178 53.7543 14.556 55.9693 14.556H56.3385V16.9529Z" fill="white"/>
<path d="M67.4067 19.5916H70.3384L66.1906 13.7205L69.8389 8.53097H67.233L63.5847 13.7205V8.53097H61.0005V19.5916H63.5847V14.2482L67.4067 19.5916Z" fill="white"/>
<path d="M79.0022 10.598V8.53097H70.3375V10.598H73.3778V19.5916H75.962V10.598H79.0022Z" fill="white"/>
<path d="M80.5324 8.53097V19.5916H82.8338L86.7865 12.7529V19.5916H89.2839V8.53097H86.9817L83.0298 15.3697V8.53097H80.5324Z" fill="white"/>
<path d="M97.8604 19.5916H100.792L96.644 13.7205L100.292 8.53097H97.6862L94.0384 13.7205V8.53097H91.4539V19.5916H94.0384V14.2482L97.8604 19.5916Z" fill="white"/>
<path d="M103.065 23C105.476 23 106.366 21.2628 107.105 18.9979L110.514 8.53097H108.017L105.606 16.8429L103.196 8.53097H100.481L104.238 20.0754C103.956 20.6031 103.544 20.933 102.826 20.933C102.349 20.933 101.936 20.7791 101.654 20.4932V22.6261C101.654 22.6261 102.045 23 103.065 23Z" fill="white"/>
<path d="M120.811 19.5916H123.33L123.287 8.53097H119.747L117.379 15.8974L115.251 8.53097H111.495V19.5916H113.688V11.3236L116.055 19.5916H118.161L120.811 11.3236V19.5916Z" fill="white"/>
<path d="M12.111 22.2221C17.6952 22.2221 22.2221 17.6952 22.2221 12.111C22.2221 6.52687 17.6952 2 12.111 2C6.52687 2 2 6.52687 2 12.111C2 17.6952 6.52687 22.2221 12.111 22.2221Z" fill="#FC3F1D"/>
<path d="M15.9067 18.4304V5.79164H12.6982C9.47108 5.79164 7.77846 7.44341 7.77846 9.88396C7.77846 11.9904 8.87587 13.1782 10.8196 14.4681L12.0007 15.2476L10.4848 13.9762L7.48087 18.4304H9.87097L13.0795 13.6422L11.9635 12.8998C10.615 11.9904 9.95466 11.2851 9.95466 9.75402C9.95466 8.40848 10.9033 7.49908 12.7075 7.49908H13.6933V18.4304H15.9067Z" fill="white"/>
</svg>
