<svg xmlns="http://www.w3.org/2000/svg" width="43" height="24" viewBox="0 0 43 24" fill="none"><rect width="43" height="24" fill="none"/>
<path fill-rule="evenodd" clip-rule="evenodd" d="M9.54699 13.0951L12.2409 14.867V18.1531L9.53457 23L9.54699 13.0951Z" fill="#62B22F"/>
<path fill-rule="evenodd" clip-rule="evenodd" d="M7.31348 11.6955L10.0012 13.2532L2.02109 18.1001L4.62576 13.3596L7.31348 11.6955Z" fill="#974995"/>
<path fill-rule="evenodd" clip-rule="evenodd" d="M19.8494 7.21754L14.7138 7.19192L12.2403 5.70487L9.55183 1L19.8494 7.21754Z" fill="#EE7024"/>
<path fill-rule="evenodd" clip-rule="evenodd" d="M9.55183 1L12.2403 5.70487L12.2448 12.1878L9.53462 11.3597L9.55183 1Z" fill="#FBB61B"/>
<path fill-rule="evenodd" clip-rule="evenodd" d="M2 5.73361L4.63494 10.5239L4.62576 13.3596L2.02109 18.1001L2 5.73361Z" fill="#5A58A3"/>
<path fill-rule="evenodd" clip-rule="evenodd" d="M2 5.73361L19.8082 16.6296L14.7052 16.6653L4.63494 10.5239L2 5.73361Z" fill="#2188CB"/>
<path fill-rule="evenodd" clip-rule="evenodd" d="M14.7138 7.19192L19.8494 7.21754L12.2475 11.8907L12.2397 8.69929L14.7138 7.19192Z" fill="#DA0954"/>
<path fill-rule="evenodd" clip-rule="evenodd" d="M29.5223 7.96334C30.1609 7.39891 30.992 7.10158 31.8437 7.13288C32.7231 7.11503 33.6086 7.1748 34.4826 7.0708C34.2932 7.65134 33.909 8.15737 33.6529 8.71075C33.0227 8.72161 32.3917 8.69833 31.7622 8.72006C30.9527 8.78603 30.1813 9.44185 30.1021 10.2669C30.8387 9.53266 31.9912 9.48299 32.9458 9.72359C33.5854 9.94168 34.155 10.4221 34.3871 11.0663C34.5997 11.6354 34.6378 12.255 34.4965 12.8459C34.2846 13.6539 33.635 14.2794 32.8667 14.5751C31.9516 14.9252 30.9396 14.9252 30.0245 14.5751C29.1708 14.2274 28.5669 13.4203 28.3605 12.5347C28.1346 11.7469 28.1641 10.5804 28.3962 9.77947C28.5994 9.08293 28.9888 8.45501 29.5223 7.96334ZM31.7079 11.0407C31.2275 10.9452 30.6865 11.1408 30.4374 11.563C29.9849 12.3298 30.6066 13.4746 31.621 13.3302C32.7277 13.175 33.018 11.3899 31.7079 11.0407ZM24.5567 9.05767C25.5517 8.8132 26.6895 8.8846 27.5394 9.50472C27.2584 9.95798 27.0046 10.4268 26.7469 10.894C26.3317 10.7551 25.9281 10.5362 25.4787 10.5463C25.0022 10.5315 24.4861 10.7178 24.2152 11.1276C24.0721 11.346 23.9941 11.6007 23.9903 11.8618C23.9864 12.1229 24.0569 12.3797 24.1935 12.6022C24.4434 13.019 24.9347 13.2123 25.4011 13.2557C25.7651 13.2146 26.1353 13.1641 26.4722 13.0089C26.5539 12.9668 26.6469 12.9522 26.7376 12.967C26.9022 13.4373 27.2623 13.8262 27.4043 14.3019C26.4877 14.7925 25.3949 14.8918 24.3914 14.6481C23.6999 14.4448 23.0409 14.0497 22.6451 13.4327C22.0188 12.4718 22.0428 11.1129 22.7623 10.2079C23.1962 9.62269 23.8597 9.24161 24.5567 9.05923V9.05767ZM35.4636 9.08329C37.3966 9.06828 39.33 9.06828 41.2636 9.08329C41.2465 10.9188 41.2574 12.7567 41.2589 14.5938C40.6085 14.5938 39.9573 14.5992 39.307 14.5938C39.3372 13.3877 39.2767 12.1839 39.3147 10.9825C39.3182 10.891 39.2959 10.8003 39.2503 10.7209C38.6566 10.7341 38.0613 10.7349 37.4652 10.7209C37.428 12.0085 37.4582 13.3 37.4505 14.5907C36.7884 14.6015 36.1264 14.5953 35.4651 14.5907C35.4682 12.7551 35.476 10.9188 35.4636 9.08329Z" fill="#1B1537"/>
<path fill-rule="evenodd" clip-rule="evenodd" d="M12.2409 18.1531L14.7052 16.6653L19.8082 16.6296L9.53457 23L12.2409 18.1531Z" fill="#037F37"/>
</svg>
