<svg xmlns="http://www.w3.org/2000/svg" width="45" height="24" viewBox="0 0 45 24" fill="none"><rect width="45" height="24" fill="none"/>
<path d="M23.2792 19.3393C22.4866 19.2865 21.5727 19.1475 20.852 18.9388C20.7169 18.8996 20.1579 18.6942 20.0157 18.6289C17.5063 17.4666 15.7582 14.9291 15.7582 11.9853C15.7582 7.94762 19.0432 4.65875 23.0835 4.65875C27.0879 4.65875 30.3507 7.89152 30.4068 11.8836H33.0531C32.997 6.43299 28.5477 2.01566 23.0835 2.01566C17.5866 2.01566 13.1125 6.48713 13.1125 11.9853C13.1125 15.7758 15.2442 19.0725 18.3654 20.7567C18.929 21.0548 19.7378 21.3621 20.0125 21.4462C20.9022 21.711 21.9941 21.8872 22.966 21.9609C23.2961 21.9856 24.4487 21.9987 24.7846 22H43.0084V19.3641H24.8153C24.5733 19.3641 23.5159 19.3549 23.2792 19.3393ZM24.8153 15.2005C24.6229 15.2005 23.6164 15.194 23.4305 15.1783C23.1154 15.1516 22.6588 15.1046 22.3653 15.0374C22.0339 14.9487 21.7228 14.8313 21.5825 14.7543C20.5995 14.2227 19.9296 13.1829 19.9296 11.9853C19.9296 10.243 21.3405 8.83018 23.0835 8.83018C24.7899 8.83018 26.1773 10.1876 26.2327 11.8836H28.7754C28.7219 8.78517 26.1962 6.28818 23.0835 6.28818C19.9361 6.28818 17.385 8.83866 17.385 11.9853C17.385 14.2044 18.657 16.1209 20.5095 17.0595C20.7946 17.2265 21.3307 17.4013 21.4834 17.4411C22.0065 17.5787 22.709 17.6727 23.2792 17.7144C23.4898 17.732 24.5218 17.7399 24.7396 17.7412V17.7451H43.0078V15.2005H24.8153ZM11.4818 21.9902H8.81778V4.66462H4.92489V2H11.4818V21.9902ZM2 5.99596V8.55817H4.92489V21.9902H7.48449V5.99596H2Z" fill="white"/>
<path d="M38.3012 2.18608C37.3417 2.18608 36.5459 2.95122 36.5459 3.9114C36.5459 4.87157 37.3417 5.66737 38.3012 5.66737C39.2901 5.66737 40.0553 4.87157 40.0553 3.9114C40.0553 2.95122 39.2901 2.18608 38.3012 2.18608ZM38.3012 5.38428C37.5087 5.38428 36.8257 4.76134 36.8257 3.9114C36.8257 3.10451 37.5087 2.46591 38.3012 2.46591C39.0931 2.46591 39.7728 3.10451 39.7728 3.9114C39.7728 4.76134 39.0931 5.38428 38.3012 5.38428Z" fill="white"/>
<path d="M38.9696 4.38419C38.9696 4.19046 38.9409 4.01043 38.7191 3.93933C38.997 3.84279 39.0244 3.6608 39.0244 3.55056C39.0244 3.10505 38.6199 3.0483 38.4536 3.0483H37.6885V4.77361H38.0074V4.06587H38.2586C38.6199 4.06587 38.6499 4.23221 38.6499 4.38419C38.6499 4.67838 38.6499 4.73382 38.7191 4.77361H39.0387C38.9696 4.70382 38.997 4.64968 38.9696 4.38419ZM38.3838 3.81409H38.0074V3.27073H38.3297C38.5528 3.27073 38.7041 3.34118 38.7041 3.55056C38.7041 3.6608 38.6499 3.81409 38.3838 3.81409Z" fill="white"/>
</svg>
