<svg xmlns="http://www.w3.org/2000/svg" width="24" height="24" viewBox="0 0 24 24" fill="none"><rect width="24" height="24" fill="none"/>
<path d="M11.2444 4.22217C9.01127 4.22217 7.56269 4.34504 6.51382 4.73443C4.75165 5.42062 3.5347 6.85888 3.5347 8.74827C3.5347 10.3225 4.26819 11.4622 6.39028 12.7728C8.65491 14.1452 9.1063 14.5987 9.1063 15.4249C9.1063 16.3302 8.21957 17.36 5.93712 17.36C5.14126 17.36 3.94094 17.2496 3.17419 17.0621L2.80833 16.9701C2.60461 17.5167 2.14135 18.8102 2 19.2791L2.36229 19.386C3.05124 19.6056 4.68869 19.7777 5.8605 19.7777C9.76139 19.7777 12.089 17.4218 12.089 14.956C12.089 13.4406 11.4 12.2884 9.07363 10.8377C7.90657 10.1195 7.31205 9.65468 6.95035 9.29437C6.65814 8.91863 6.62548 8.63846 6.62548 8.34285C6.62548 8.0609 6.68843 7.73561 6.87493 7.49758C7.07567 7.20257 7.44509 7.015 7.94518 6.86007C8.45892 6.68971 9.41039 6.68556 10.8928 6.68556H12.2737L13.2596 4.22217H11.2444Z" fill="#C7D544"/>
<path d="M14.7403 4.22217H21.6773C22.0028 4.22217 22.0651 4.45248 21.9398 4.70297C21.486 5.82664 17.2062 16.5433 17.2062 16.5433H14.3459C14.3459 16.5433 17.7259 7.93446 18.2872 6.65232C18.1575 6.65232 18.0385 6.65585 17.8795 6.66058L17.878 6.66063C17.5602 6.67072 17.0845 6.68556 16.0534 6.68556H13.7543L14.7403 4.22217Z" fill="#C7D544"/>
</svg>
