<svg width="106" height="24" fill="none" xmlns="http://www.w3.org/2000/svg"><path fill-rule="evenodd" clip-rule="evenodd" d="M26 16.397h1.052v-5.05h.455v.142h.142v.141h.141l.009.149.149.008v.267h.142v.156h.157v.141h.139l.02.283h.14v.156h.141v.141h.157v.282l.15.008.008.149h.14v.141h.14l.02.283h.14v.14l.148.009.009.148h.138l.02.283h.14v.142h.14l.008.148.15.009v.14h.142v.283h.156v.141h.143v.156h.14l.02.283h.152v.141h.142v.156h.14l.02.283h.14v.141h1.336v-.141h-.142v-.142h-.143v-.155h-.156v-.283h-.142v-.142h-.157v-.155h-.139l-.02-.283h-.14v-.142h-.156v-.141h-.142v-.156h-.139l-.02-.283h-.14v-.141h-.14l-.009-.149-.15-.008v-.282h-.155v-.141h-.143v-.142h-.139l-.02-.282h-.14v-.156h-.156v-.142H29.9l-.02-.282h-.14v-.156h-.142v-.142h-.156v-.282H29.3v-.142h-.157v-.155h-.139l-.02-.283h-.14v-.14l-.148-.009-.009-.149h-.14v-.565h.14l.009-.149.149-.008v-.14h.139l.02-.283h.14v-.14l.149-.009.008-.148h.141v-.283h.157v-.142h.138l.02-.281.133-.009.009-.148h.14v-.142h.157v-.283h.14l.009-.148.15-.009v-.14h.138l.02-.283h.14V7.74h.14l.01-.149.148-.008V7.3h.157V7.16h.142v-.156h.14l.02-.283h.139V6.58h.156v-.156h.141l.008-.275.15-.009V6H31.09v.14l-.149.009-.008.134h-.141v.156h-.14l-.02.282h-.139v.14l-.149.009-.009.149h-.14l-.007.275-.15.009v.14h-.14l-.009.148-.133.009-.02.281h-.139v.142h-.156v.141H29.3v.282l-.15.008-.008.149h-.138l-.02.283h-.14v.141h-.14l-.008.149-.15.008v.282h-.156v.141h-.142v.156h-.14l-.02.283h-.139v.141h-.156v.156h-.143v.127h-.597V6H26v10.397zM76.905 6.44h-.138l-.01.108c-.004.06-.008.187-.008.283v.174h-.142v.437l-.15.009-.007.573h-.141l-.008.431-.15.009v.564h-.142v.111c0 .061-.004.16-.009.22l-.01.108h-.137v.58h-.142v.102c0 .057-.005.155-.01.22l-.009.116h-.138v.566h-.142v.103c0 .056-.004.155-.01.219l-.008.117h-.138v.58h-.157v.424h-.142v.182c0 .1-.004.23-.01.289l-.008.107-.131.009-.008.431h-.141v.188c0 .103-.005.23-.01.282l-.009.095-.13.008-.009.432h-.141v.181c0 .1-.004.231-.01.29l-.008.109h-.138v.438h-.143v.175c0 .096-.004.223-.009.282l-.009.108-.131.008-.008.29h1.053v-.566h.142v-.123c0-.069.005-.167.01-.22l.009-.095h.138v-.58h.142v-.103c0-.056.004-.155.01-.219l.008-.117h.138v-.283h3.754v.142h.142v.566h.142l.008.445.13.009.01.095c.005.052.009.179.009.282v.187h.142v.58H81.1v-.141h-.157v-.58h-.138l-.009-.117a3.435 3.435 0 0 1-.009-.22v-.102h-.142v-.58h-.14l-.02-.566h-.139v-.438h-.138l-.009-.117a4.66 4.66 0 0 1-.01-.29v-.173h-.141v-.58h-.139l-.009-.096a2.833 2.833 0 0 1-.009-.219v-.124h-.142v-.565h-.138l-.01-.109a4.35 4.35 0 0 1-.008-.29v-.181h-.143v-.188c0-.103-.004-.23-.009-.282l-.009-.095-.13-.008-.009-.446h-.141v-.566h-.157v-.58h-.141l-.008-.431-.131-.009-.009-.094a4.072 4.072 0 0 1-.01-.29v-.194h-.141V7.55c0-.096-.005-.223-.01-.283l-.009-.108h-.138v-.439h-.139l-.02-.58h-.14V6h-1.194v.439zm.74 1.584h.156v.58h.139l.02.566h.14v.58h.138l.009.116c.005.065.009.195.009.29v.174h.142v.58h.138l.01.108c.004.06.009.158.009.22v.11h.142v.58h.139l.02.58h.14v.707h-3.143v-.104c0-.057.004-.152.01-.212l.008-.108h.138v-.438h.142v-.565l.15-.008.008-.432h.141v-.58h.156v-.566h.142l.008-.445.13-.009.01-.095c.005-.052.009-.179.009-.282v-.187h.142V9c0-.1.005-.23.01-.29l.009-.108h.138v-.439h.141l.008-.431.15-.009v-.14h.141v.439zM34.986 9.164l-.118.01c-.064.005-.167.009-.227.009h-.11v.141h-.299v.142h-.142v.141h-.157v.283h-.138l-.02.297h-.14v.565l-.15.008v3.904l.15.009v.578h.138l.009.109c.005.06.01.155.01.212v.104h.141v.141h.143v.142h.156v.155h.299v.142h.298v.141h2.247v-.141h.298v-.142h.157v-.138l.282-.02.02-.28h.136l.02-.283h.14v-.439h.137l.009-.54c.012-.698.012-2.705 0-3.403l-.01-.54h-.136l-.008-.432-.133-.009-.02-.281h-.139v-.142h-.156v-.141h-.142v-.142h-.157v-.141h-.111c-.062 0-.16-.004-.22-.01l-.108-.008-.008-.13-1.941-.008v.137zm12.57 0-.118.01c-.064.005-.167.009-.227.009h-.11v.141h-.285v.142h-.156v.14l-.15.008-.008.149h-.141v.104c0 .057-.004.152-.01.212l-.008.108h-.138v.439h-.143v4.187h.143v.175c0 .096.004.223.009.282l.009.107.13.009.009.29h.141v.141h.157v.142h.14l.009.148.15.009v.14h.44v.141h2.105v-.141h.298v-.142h.299v-.155h.156v-.142h.142v-.283h.157v-.297h.142v-.706l.15-.008.007-.87h-1.053v1.301h-.139l-.02.283h-.14v.156h-.298v.141h-.716c-.394 0-.765-.004-.825-.009l-.108-.009v-.123h-.141l-.009-.149-.15-.008v-.14h-.137l-.01-.108a3.111 3.111 0 0 1-.008-.22v-.11h-.143v-3.89h.142v-.103c0-.057.005-.155.01-.22l.009-.116h.138v-.142h.156v-.141h.285v-.142h1.35v.142h.3v.141h.156v.283h.137l.01.117c.005.064.009.198.009.297v.18h.142v.425h.896V10.47h-.142v-.175a4.21 4.21 0 0 0-.01-.283l-.009-.108H50.4V9.75h-.139l-.02-.283h-.14v-.142h-.298v-.141h-.111a3.17 3.17 0 0 1-.22-.01l-.108-.008-.009-.13-1.798-.008v.137zm5.918-.126-.074.005v.122l-.11.009c-.059.005-.161.009-.227.009h-.118v.141h-.143v.142h-.156v.141h-.14l-.02.283h-.139v.439h-.142v.721h.896v-.424h.142v-.439h.157v-.141h.142v-.14l.306-.009.008-.134h1.037v.141h.44v.142h.157v.281l.15.009.006 2.015h-.156v-.141h-.285v-.138l-.312-.02v-.12l-.448-.01a25.93 25.93 0 0 0-.895 0l-.448.01-.008.13-.306.008v.14h-.283l-.008.148-.15.01v.266h-.138l-.02.297h-.14v2.462h.138l.009.108c.005.06.01.155.01.212v.104h.141v.14l.15.009.008.148h.141v.142h.299v.141h1.948v-.141h.298v-.14l.15-.009.008-.148h.14v-.142h.157v.58h.896v-6.351h-.138l-.01-.109a3.012 3.012 0 0 1-.008-.212v-.104h-.142v-.155h-.157v-.138l-.284-.02v-.122l-.313-.02v-.12l-.117-.01c-.12-.009-1.763-.008-1.899.002zm-13.554 7.36h.895V12.93h2.844v3.466h.896V9.168l-.889.008-.007 2.893h-2.843v-2.9h-.896v7.228zm18.722-7.22c-.005.005-.01 1.339-.01 2.964v2.954h-.142v.14l-.15.008-.008.149h-.155v.123l-.108.01c-.06.004-.19.008-.29.008h-.18l-.01.108a5.753 5.753 0 0 0 0 .639l.01.116h.593v-.141h.597v-.14l.149-.009.009-.134h.14v-.156h.14l.02-.283h.139v-.424h.142v-2.495c0-1.372.004-2.543.01-2.603l.008-.108h2.826v3.13c0 1.721.004 3.182.01 3.246l.008.117h.892l-.007-7.221-2.312-.004c-1.271-.002-2.316 0-2.321.006zm5.536.726h2.09v6.493h.896V13.26c0-1.726.004-3.187.01-3.246l.008-.109 2.08-.007v-.721l-5.084-.007v.735zm16.764-.283h.138l.01.109c.005.06.009.19.009.29v.181h.142v.566h.138l.01.108c.004.06.008.19.008.29v.182h.143v.58h.156v.58h.142v.175c0 .096.004.223.01.283l.009.108h.138v.58h.142v.182c0 .1.004.23.009.29l.01.108h.137v.438h.142l.007.573.132.009.009.095c.005.052.009.179.009.282v.187h.142v.58h.455v.283h-.139l-.02.58h-.14v.297h-.156v.283h-.142v.142h-.299v.137l-.117.009c-.065.005-.266.009-.448.009h-.33V19h1.194v-.142h.298v-.14l.15-.008.008-.149h.141v-.141h.14l.01-.149.149-.008v-.282h.138l.009-.108c.005-.06.01-.155.01-.212v-.104h.141v-.438h.157v-.566h.141l.008-.446.131-.008.01-.108c.004-.059.008-.186.008-.282v-.175h.142v-.58h.157v-.58h.142v-.181c0-.1.004-.23.01-.29l.008-.109h.139v-.566h.142v-.181c0-.1.004-.23.009-.29l.01-.108h.137v-.58h.142l.007-.432.15-.008v-.579h.142v-.173c0-.096.004-.226.01-.29l.008-.117h.138v-.566h.139l.02-.58h.14V9.17h-.896v.155H85l-.01.108c-.004.06-.008.19-.008.29v.182h-.142l-.008.573-.13.009-.01.107c-.005.06-.009.218-.009.353v.245h-.142v.182c0 .1-.004.23-.01.29l-.009.108h-.138v.58h-.142v.182c0 .1-.004.23-.009.29l-.01.108h-.137v.58h-.142v.174c0 .095-.005.226-.01.29l-.009.116h-.138v.566h-.142v.439h-.156v.155h-.138l-.01-.116a3.44 3.44 0 0 1-.009-.22v-.102h-.142v-.58h-.139l-.02-.58h-.14v-.58h-.138l-.009-.108a4.42 4.42 0 0 1-.009-.29v-.182h-.142v-.58h-.138l-.01-.108a4.42 4.42 0 0 1-.009-.29v-.182h-.142v-.245c0-.135-.004-.295-.009-.354l-.01-.108h-.137v-.58h-.142v-.182c0-.1-.004-.23-.01-.29l-.009-.108h-.138v-.297h-.896v.452zm6.295-.443c-.005.005-.01 1.014-.01 2.242v2.233h-.142v.323c0 .178-.004.372-.009.431l-.01.109h-.137v.438h-.14l-.02.283h-.139v.279l-.109.01c-.06.004-.194.008-.298.008h-.19v2.745l.746-.008.008-1.874h4.479v.824c0 .453.004.877.009.941l.01.117.883-.008.008-2.737h-.268c-.148 0-.317-.004-.377-.009l-.109-.009V9.169h-2.088c-1.148 0-2.092.004-2.097.01zm5.835 7.22h1.194v-.142h.156v-.297h.142v-.283h.139l.009-.108c.005-.06.009-.155.009-.213v-.104h.142v-.297h.156v-.283h.143v-.297h.138l.009-.108c.005-.06.01-.155.01-.212v-.104h.138l.02-.281.133-.009.008-.29h.14l.008-.29.15-.009v-.281h.141v-.104c0-.057.005-.153.01-.212l.009-.108h.138v-.297h.14l.02-.298h.138v-.282h.14l.02-.298h.14v-.103c0-.058.003-.153.008-.213l.01-.108h.138v-.155h.138l.02-.27h.122l.009.215c.005.118.01 1.48.01 3.027v2.813h.753l-.007-7.221h-1.195l-.008.29h-.138l-.02.283h-.14v.297h-.139l-.02.297h-.14v.283h-.141v.104c0 .057-.004.152-.01.212l-.009.108h-.137l-.008.29-.15.009v.281h-.141v.297h-.14l-.02.283h-.139v.117c0 .064-.004.16-.01.211l-.008.095-.131.009-.008.29h-.142v.28l-.149.01-.008.29h-.14l-.008.29-.15.008v.409h-.138l-.02.297h-.14v.281l-.15.009-.008.148h-.14V9.17h-.896v7.228zm5.986-6.494h2.09v6.493h.754V13.26c0-1.726.004-3.187.009-3.246l.009-.109L104 9.897v-.721l-4.941-.007v.735zm-62.43.135.306.008v.14h.142v.142h.14l.02.297h.138v4.173h-.142v.297h-.156v.155h-.14l-.01.135-.149.008v.14h-1.65v-.138l-.298-.02v-.139h-.139l-.02-.283h-.14v-.438h-.142v-3.593h.142l.008-.446.133-.008.02-.282h.152v-.141h.299v-.142h1.477l.009.135zm53.898 5.495-2.993-.007v-.283l.15-.008v-.423h.138l.02-.58h.14V9.904h2.545v5.63zm-20.509-3.357a5.751 5.751 0 0 0 0 .638l.01.116h3.137v-.862h-3.138l-.009.108zm-15.124.613h.44v.141h.157v.282l.15.008.007.573h.141v.58h-.142v.253c0 .139-.004.301-.009.36l-.01.109h-.137v.141h-.14l-.01.149-.149.008v.14h-.298v.142h-1.195v-.142h-.298v-.14l-.15-.008-.008-.149h-.141v-.283h-.138l-.01-.108c-.004-.06-.008-.384-.008-.721v-.614h.138l.009-.108c.005-.06.009-.158.009-.22v-.11h.142v-.142h.157v-.141h.298v-.141h1.195v.141z" fill="#000"/><path fill-rule="evenodd" clip-rule="evenodd" d="M2 18.07h5.959l-.003-4.691-.016-.002c-.013-.002-.015-.006-.019-.03a1.399 1.399 0 0 1-.003-.117v-.088h-.035l-.004-.12-.038-.004v-.04c0-.039 0-.039-.017-.039s-.017 0-.021-.04c-.004-.039-.005-.04-.021-.04h-.018v-.08h-.02c-.02 0-.02 0-.02-.018 0-.016-.003-.018-.019-.018s-.017-.002-.017-.022c0-.02-.001-.021-.02-.021-.02 0-.022-.002-.022-.019 0-.016-.002-.018-.017-.018-.016 0-.018-.002-.018-.022v-.021h-.077v-.022c0-.02 0-.021-.017-.021-.016 0-.018-.002-.018-.018 0-.018 0-.018-.04-.02-.038-.002-.04-.003-.041-.018-.002-.014-.005-.017-.03-.02a.482.482 0 0 0-.055-.004c-.028 0-.028 0-.028-.018v-.019h-.088c-.048 0-.1-.002-.115-.004-.024-.003-.027-.006-.027-.018v-.015H6.88v.037h-.194v.018c0 .016-.002.018-.028.021a.49.49 0 0 1-.056.004c-.028 0-.028 0-.028.018s-.002.019-.02.019c-.02 0-.022.002-.022.018 0 .017 0 .018-.035.022-.034.004-.035.005-.035.022 0 .016-.002.018-.02.018-.02 0-.021.001-.021.018 0 .016-.003.018-.02.02-.016.002-.019.004-.02.022-.002.017-.005.02-.02.02-.014 0-.017.002-.018.02-.002.017-.004.02-.021.022-.017.001-.02.004-.02.02 0 .015-.001.018-.017.018h-.018v.08h-.041v.08h-.018c-.017 0-.017 0-.017.03a.537.537 0 0 1-.004.057c-.003.025-.006.029-.02.03-.015.002-.015.002-.016.062l-.002.06h-.035v.091c0 .05-.002.104-.004.12-.003.024-.005.028-.019.03l-.015.002-.003 2.768H3.88V4.405H2V18.07z" fill="#0C6666"/><path d="M16.877 18.07v-.08h-.018c-.017 0-.017 0-.02-.038 0-.039 0-.039-.02-.04l-.02-.003v-.04c0-.039 0-.039-.016-.039-.017 0-.017 0-.021-.04-.004-.039-.005-.04-.021-.04h-.018v-.04c0-.04 0-.04-.017-.04-.016 0-.017 0-.02-.04-.005-.036-.006-.04-.019-.04-.012 0-.014-.003-.018-.04-.004-.038-.004-.04-.02-.04s-.017 0-.02-.04c-.004-.035-.006-.04-.018-.04-.012 0-.014-.003-.017-.028a.53.53 0 0 1-.004-.058c0-.028 0-.03-.02-.031-.018-.002-.018-.002-.02-.04-.002-.036-.003-.038-.018-.04-.015-.002-.016-.003-.017-.043l-.002-.042h-.04v-.08h-.036v-.08H16.4c-.017 0-.018 0-.022-.04-.004-.038-.004-.04-.02-.04s-.018-.002-.018-.018v-.018h-1.998v-.086h.035v-.08h.042v-.074h.017c.017 0 .018-.002.018-.021 0-.02.002-.021.02-.023.018-.002.018-.002.02-.04.002-.038.002-.039.02-.039.015 0 .017-.002.017-.021 0-.02 0-.022.02-.022h.02v-.08h.018c.015 0 .018-.002.02-.02.001-.017.004-.02.02-.021l.02-.002v-.08h.017c.016 0 .017 0 .02-.036.005-.036.006-.037.022-.037s.017-.002.017-.022c0-.02.002-.021.017-.021.017 0 .017-.001.021-.04.004-.04.005-.04.022-.04.015 0 .017-.002.017-.022 0-.02.001-.021.017-.021.017 0 .017-.001.021-.04s.005-.04.021-.04c.015 0 .017-.002.017-.019 0-.016.002-.018.018-.018h.018v-.08h.04l.004-.04c.003-.036.005-.04.018-.04.011 0 .014-.003.015-.02.002-.017.005-.02.02-.021.019-.002.02-.003.023-.042.004-.036.006-.04.018-.04.012 0 .015-.003.016-.02.002-.017.004-.02.021-.021l.02-.002v-.037c0-.036 0-.036.017-.036.015 0 .017-.003.019-.02.001-.018.004-.02.02-.022l.02-.002v-.08h.02c.02 0 .021 0 .021-.02s.002-.022.018-.022c.017 0 .017 0 .019-.039.002-.038.002-.038.02-.04l.02-.002v-.036c0-.037 0-.037.017-.037s.018-.002.018-.021c0-.02.001-.022.02-.022h.021v-.08h.018c.015 0 .017-.002.019-.02.002-.017.004-.02.02-.022l.02-.002v-.079h.018c.015 0 .017-.002.017-.018 0-.017.002-.018.021-.018h.02v-.04c0-.04 0-.04.018-.04.016 0 .017-.001.02-.04.005-.04.005-.04.022-.04.016 0 .017-.002.017-.022 0-.02.002-.021.018-.021s.017-.001.02-.04c.005-.04.005-.04.022-.04.015 0 .017-.002.017-.022 0-.02.001-.021.017-.021.017 0 .017-.001.021-.037s.005-.037.021-.037.018-.002.018-.021c0-.02.001-.022.017-.022.017 0 .017 0 .021-.04.004-.039.005-.04.021-.04s.017-.002.017-.021c0-.02.002-.022.018-.022.017 0 .017 0 .019-.038.001-.038.002-.039.02-.04.018-.002.018-.003.022-.039.004-.033.005-.036.019-.036.012 0 .014-.003.014-.022 0-.02.001-.021.02-.021h.02l.004-.04c.004-.04.005-.04.021-.04s.018-.002.018-.022c0-.02.001-.021.017-.021s.017-.001.02-.04c.005-.04.005-.04.022-.04.016 0 .017-.002.017-.022 0-.02.002-.021.018-.021h.018v-.074h.075l.004.037c.004.036.005.037.021.037s.018.002.018.021c0 .02.001.022.017.022s.017 0 .02.04c.005.039.005.04.022.04.016 0 .017.002.017.021 0 .02.002.022.017.022.017 0 .018 0 .022.04.004.039.004.04.02.04.017 0 .017 0 .019.038.002.038.002.038.02.04.018.002.02.005.02.02 0 .016.002.018.018.018h.017v.08l.02.001c.016.002.019.005.02.022.002.018.005.02.02.02h.017v.08h.02c.02 0 .021.001.021.022 0 .02.002.021.017.021.017 0 .018.002.021.037.004.033.006.036.02.038.015.002.016.004.018.04.001.038.002.038.02.04.017.002.02.004.021.021.002.017.005.02.018.022.015.002.016.004.017.04.002.038.002.038.02.04.017.002.02.004.022.022.001.016.004.02.015.02.013 0 .015.003.018.04l.005.04h.02c.018 0 .02 0 .02.021 0 .019.001.022.014.022.013 0 .015.002.018.036.004.036.005.037.023.039.018.001.018.002.02.04.002.038.002.038.019.038.016 0 .017.002.017.022 0 .02.002.021.018.021s.017.001.02.04c.005.04.005.04.022.04.016 0 .017.002.017.022 0 .02.002.021.017.021.017 0 .017.001.021.037s.005.037.021.037.018.002.018.021c0 .02.001.022.017.022.017 0 .017 0 .021.04.004.039.005.04.021.04.017 0 .017 0 .017.04v.04h.02c.02 0 .021 0 .021.021 0 .02.002.022.018.022.018 0 .018 0 .018.036v.037l.019.002c.017.001.02.004.021.021.002.018.004.02.02.02h.017v.08h.02c.02 0 .02.001.02.022 0 .02.002.021.018.021s.017.001.02.04c.005.04.005.04.022.04h.017v.08h.021c.019 0 .02.002.02.018 0 .015.003.018.017.02.015.002.016.004.018.04.002.038.002.038.02.04.017.002.02.004.021.022.002.016.005.02.016.02.013 0 .014.003.018.04l.004.04h.02c.019 0 .02 0 .02.021 0 .019.002.022.014.022.013 0 .014.003.018.036.004.036.005.037.023.038.018.002.019.003.02.04.002.039.002.04.02.04.015 0 .017.001.017.02 0 .02.001.022.017.022s.017.001.02.04c.005.04.005.04.022.04.016 0 .017.002.017.022 0 .02.002.021.018.021.017 0 .017.001.021.04s.005.04.021.04.017.002.017.021c0 .02.002.022.017.022.017 0 .017.001.021.037s.005.037.022.037h.017v.08h.02c.02 0 .021 0 .021.021 0 .02.001.022.018.022h.017v.08h.021c.02 0 .02 0 .02.021 0 .02.002.021.018.021s.017.002.02.037c.005.034.006.037.02.038.014.002.017.006.018.022.002.018.004.02.019.02.016 0 .016.002.02.04.004.04.005.04.022.04h.017v.08l.019.001c.017.002.02.005.021.022.002.018.004.02.02.02h.017v.08h.02c.02 0 .02 0 .02.021 0 .02.003.022.015.022.013 0 .015.003.019.036.003.036.004.037.022.039.016.002.019.004.02.022.002.016.005.02.016.02.013 0 .014.003.018.04l.004.04h.04v.08h.018c.015 0 .017.002.017.018s.002.018.017.018c.017 0 .017.001.021.04.004.04.005.04.022.04.015 0 .017.002.017.022 0 .02.002.021.017.021.017 0 .017.001.021.04.004.04.005.04.021.04s.018.002.018.022c0 .02.001.021.017.021s.017.001.02.037c.005.035.006.037.022.037h.017v.079l.02.002c.016.002.019.004.02.022.002.017.004.02.02.02h.017v.08h.02c.02 0 .021 0 .021.021 0 .02.002.022.017.022.017 0 .017 0 .021.04.004.039.005.04.021.04s.018.001.018.02c0 .02.001.022.017.022s.017.002.021.037c.004.036.005.037.021.037h.017v.08l.02.001c.016.002.019.005.02.022.002.018.004.02.02.02h.017v.08h.02c.02 0 .021.001.021.021s.002.022.014.022c.013 0 .015.003.019.036.004.036.004.037.022.039.016.002.02.004.02.022.002.016.005.02.017.02s.014.003.017.04l.005.04h.04v.08h.017c.016 0 .018.001.018.021s.001.021.017.021c.017 0 .017.001.021.04.004.04.005.04.021.04s.017.002.017.022c0 .02.002.021.018.021s.017.002.02.037c.005.036.005.037.022.037.016 0 .017.002.017.022 0 .02.002.021.018.021.015 0 .017.002.017.018 0 .015-.002.018-.022.021-.012.002-1.93.004-4.263.004h-4.242l-.004.04c-.004.039-.005.04-.021.04-.015 0-.018.002-.018.018s-.002.018-.019.02c-.019.002-.019.002-.02.04-.002.038-.003.039-.02.039-.016 0-.017.002-.017.021 0 .02-.001.022-.02.022h-.021v.08H10.9c-.016 0-.017 0-.02.04-.005.038-.005.04-.022.04-.016 0-.017.001-.017.021s-.002.021-.017.021c-.017 0-.017.002-.021.037-.004.036-.005.037-.022.037-.015 0-.017.002-.017.022 0 .02-.001.021-.017.021-.017 0-.017.001-.021.04-.004.04-.005.04-.021.04s-.017.002-.017.022c0 .02-.002.021-.017.021-.017 0-.018.001-.021.037-.005.036-.005.037-.022.037-.015 0-.017.002-.017.021 0 .02-.001.022-.017.022-.017 0-.017 0-.021.04-.004.039-.005.04-.021.04s-.018.002-.018.021c0 .02 0 .022-.017.022-.016 0-.017 0-.021.04-.004.039-.005.04-.021.04-.015 0-.017.002-.017.018s-.002.018-.018.018h-.018v.08h-.02c-.02 0-.02.001-.02.022 0 .02-.002.021-.018.021s-.018.002-.018.019v.018H22l-.004-.028a.43.43 0 0 1-.003-.04c0-.01-.005-.012-.021-.012-.02 0-.02 0-.02-.021 0-.02-.002-.022-.018-.022-.018 0-.018 0-.018-.036v-.037l-.02-.002c-.018-.001-.018-.001-.02-.04-.002-.038-.002-.038-.02-.038-.015 0-.017-.002-.017-.022 0-.02 0-.021-.02-.021h-.021v-.08h-.018c-.015 0-.017-.002-.017-.019 0-.016-.002-.018-.017-.018-.017 0-.017-.001-.021-.04-.005-.039-.005-.04-.022-.04-.015 0-.017-.002-.017-.021 0-.02-.002-.022-.017-.022-.017 0-.018 0-.021-.04-.005-.038-.005-.04-.021-.04-.015 0-.017-.002-.019-.02-.001-.016-.004-.02-.017-.022-.015-.001-.016-.004-.02-.038-.004-.035-.005-.036-.023-.038-.016-.001-.018-.004-.02-.021-.002-.017-.004-.02-.016-.02s-.014-.004-.018-.04c-.004-.039-.004-.04-.022-.042-.016-.001-.019-.004-.02-.021-.002-.017-.005-.02-.016-.02-.013 0-.015-.004-.018-.04-.004-.039-.005-.04-.021-.04s-.017-.002-.02-.04c-.005-.04-.005-.04-.022-.04-.015 0-.017-.002-.017-.019 0-.016-.002-.018-.017-.018-.016 0-.017-.001-.02-.04-.005-.039-.005-.04-.022-.04-.016 0-.017-.002-.017-.021 0-.02-.002-.022-.017-.022-.017 0-.018 0-.021-.04-.005-.039-.005-.04-.022-.04-.016 0-.017-.002-.017-.021 0-.02-.002-.022-.017-.022-.017 0-.017-.001-.021-.037-.004-.035-.005-.037-.021-.037s-.018-.001-.018-.021-.001-.021-.017-.021-.017-.002-.02-.04c-.005-.04-.005-.04-.022-.04-.016 0-.017-.002-.017-.022 0-.02-.002-.021-.017-.021-.017 0-.018-.001-.022-.04-.004-.04-.004-.04-.02-.04-.017 0-.017-.001-.019-.039-.002-.038-.002-.038-.02-.04-.018-.002-.02-.004-.02-.02s-.002-.018-.018-.018h-.018v-.08h-.02c-.02 0-.02 0-.02-.021 0-.02-.002-.022-.018-.022h-.018v-.08h-.02c-.02 0-.021 0-.021-.021 0-.02-.002-.022-.017-.022-.017 0-.018-.001-.022-.037-.004-.035-.004-.037-.02-.037-.017 0-.018-.001-.018-.021s-.002-.022-.017-.022c-.017 0-.017 0-.021-.04-.004-.039-.005-.04-.021-.04s-.018-.001-.018-.021-.001-.021-.017-.021-.017-.002-.02-.037c-.005-.034-.006-.037-.02-.038-.015-.002-.016-.004-.018-.04-.002-.038-.002-.038-.02-.04-.017-.002-.02-.005-.021-.022-.002-.018-.004-.02-.02-.02h-.017v-.08h-.02c-.02 0-.021-.001-.021-.021s-.002-.022-.018-.022h-.017v-.08h-.021c-.02 0-.02 0-.02-.021 0-.02-.002-.022-.018-.022-.018 0-.018 0-.018-.036v-.037l-.02-.002c-.016-.001-.019-.004-.02-.022-.002-.017-.004-.02-.02-.02h-.017v-.08h-.02c-.02 0-.021 0-.021-.021 0-.02-.001-.021-.018-.021-.017 0-.017 0-.017-.037v-.036l-.02-.002c-.019-.002-.019-.002-.02-.04-.002-.039-.002-.04-.02-.04-.015 0-.017 0-.017-.02s-.002-.021-.02-.023c-.018-.002-.018-.002-.02-.04-.002-.038-.002-.039-.019-.039-.015 0-.017-.002-.019-.02-.001-.017-.004-.02-.02-.022l-.02-.002v-.072l-.019-.002c-.017-.002-.02-.004-.021-.022-.002-.016-.004-.02-.015-.02-.013 0-.014-.003-.018-.04-.004-.038-.005-.039-.023-.04-.016-.002-.019-.005-.02-.023-.002-.016-.005-.02-.016-.02-.013 0-.015-.003-.018-.04l-.004-.04h-.02c-.02 0-.02 0-.02-.021 0-.019-.002-.021-.015-.021-.012 0-.014-.004-.018-.037-.004-.035-.004-.037-.022-.038-.019-.002-.019-.003-.02-.04-.003-.039-.003-.04-.02-.04-.016 0-.017 0-.017-.02s-.002-.022-.017-.022c-.017 0-.017-.001-.021-.04-.004-.04-.005-.04-.022-.04-.015 0-.017-.002-.017-.021 0-.02-.001-.022-.017-.022-.017 0-.017-.001-.021-.037-.004-.035-.005-.037-.021-.037s-.018-.002-.018-.021c0-.02-.001-.022-.017-.022s-.017 0-.02-.04c-.005-.039-.005-.04-.022-.04-.016 0-.017-.002-.017-.021 0-.02-.002-.022-.017-.022-.017 0-.018 0-.022-.04-.004-.038-.004-.04-.02-.04-.015 0-.017-.002-.019-.02-.001-.016-.005-.02-.017-.021-.015-.002-.016-.005-.02-.039-.004-.035-.005-.036-.021-.036h-.017v-.08h-.021c-.02 0-.02-.001-.02-.022 0-.02-.002-.021-.018-.021h-.018v-.08h-.02c-.02 0-.021-.002-.021-.018 0-.017-.002-.019-.017-.019-.017 0-.017 0-.021-.04-.004-.037-.005-.04-.02-.041-.013-.002-.016-.005-.018-.022-.001-.017-.004-.02-.018-.02-.016 0-.017-.001-.021-.04s-.005-.04-.021-.04-.018-.002-.018-.021c0-.02-.001-.022-.017-.022s-.017-.001-.02-.036c-.005-.034-.006-.037-.02-.039-.013-.001-.017-.005-.018-.021-.002-.018-.004-.02-.019-.02-.016 0-.016-.002-.02-.04-.004-.04-.005-.04-.022-.04h-.017v-.08l-.019-.001c-.017-.002-.02-.005-.021-.022-.002-.018-.004-.02-.02-.02h-.016v-.08h-.021c-.019 0-.02-.002-.02-.018 0-.017-.003-.019-.018-.019h-.018v-.079l-.02-.002c-.016-.002-.019-.004-.02-.022-.002-.017-.004-.02-.02-.02h-.017v-.08h-.02c-.02 0-.02 0-.02-.021 0-.02-.002-.022-.019-.022s-.017 0-.017-.036v-.037l-.02-.002c-.016-.001-.019-.004-.02-.021-.002-.018-.004-.02-.02-.02h-.017v-.08h-.041v-.08h-.017c-.016 0-.018-.003-.02-.02-.001-.018-.004-.02-.02-.022l-.02-.002v-.08h-.02c-.02 0-.021 0-.021-.017 0-.015-.003-.019-.016-.02-.016-.002-.016-.004-.018-.04-.002-.038-.002-.038-.02-.04-.017-.002-.02-.004-.022-.022-.001-.016-.004-.02-.015-.02-.013 0-.014-.003-.018-.04l-.004-.04h-.02c-.02 0-.02 0-.02-.021 0-.019-.002-.022-.014-.022-.013 0-.015-.003-.019-.036-.004-.036-.004-.037-.022-.039-.017-.001-.02-.004-.02-.022-.002-.016-.005-.02-.017-.02s-.014-.003-.017-.04l-.005-.04h-.04v-.08h-.017c-.017 0-.018 0-.018-.02 0-.021 0-.022-.02-.022h-.021v-.074h-.018c-.016 0-.018-.002-.018-.021 0-.02-.001-.022-.017-.022s-.017-.001-.02-.04c-.005-.039-.005-.04-.022-.04-.016 0-.017-.002-.017-.021 0-.02-.002-.022-.017-.022-.017 0-.018 0-.022-.04-.004-.038-.004-.04-.02-.04-.015 0-.017-.002-.019-.02-.001-.016-.005-.02-.017-.022-.015-.001-.016-.004-.02-.038-.004-.035-.005-.037-.021-.037s-.017-.001-.017-.021-.002-.022-.018-.022-.017 0-.02-.04l-.005-.04h-.04v-.08h-.018c-.015 0-.017-.001-.017-.018 0-.016-.002-.018-.017-.018-.017 0-.017-.001-.021-.04-.004-.04-.005-.04-.022-.04-.015 0-.017-.002-.017-.022 0-.02-.001-.021-.017-.021-.017 0-.017-.001-.021-.04s-.005-.04-.021-.04-.017-.002-.017-.021c0-.02-.002-.022-.018-.022s-.017-.001-.02-.036c-.005-.034-.006-.037-.02-.039-.014-.001-.016-.005-.018-.025-.002-.02-.003-.023-.019-.023s-.017-.001-.02-.037c-.004-.035-.005-.037-.022-.037-.015 0-.017-.001-.017-.021s-.001-.021-.017-.021c-.017 0-.017-.001-.021-.04-.004-.04-.005-.04-.021-.04-.017 0-.017 0-.017-.04v-.04h-.021c-.019 0-.02-.002-.02-.019 0-.016-.003-.018-.018-.018h-.018v-.08l-.02-.001c-.016-.002-.018-.005-.02-.022-.002-.018-.004-.02-.02-.02h-.017v-.08h-.02c-.02 0-.02 0-.02-.021 0-.02-.002-.022-.019-.022s-.017 0-.017-.036v-.037l-.02-.002c-.016-.002-.019-.004-.02-.022-.002-.017-.004-.02-.02-.02h-.017v-.08h-.02c-.02 0-.021 0-.021-.021 0-.02-.002-.022-.017-.022-.017 0-.017 0-.021-.04-.004-.039-.005-.04-.021-.04h-.018v-.08h-.02c-.02 0-.021 0-.021-.018 0-.016-.002-.018-.018-.018h-.017v-.08l-.02-.001c-.016-.002-.019-.005-.02-.022-.002-.018-.005-.02-.02-.02h-.017v-.08h-.02c-.02 0-.021-.001-.021-.021s-.002-.022-.018-.022c-.018 0-.018 0-.018-.036v-.037l-.019-.002c-.017-.002-.02-.004-.02-.022-.002-.016-.005-.02-.017-.02s-.014-.003-.018-.04l-.004-.04h-.02c-.018 0-.02 0-.02-.021 0-.02 0-.022-.017-.022-.018 0-.018 0-.018-.036v-.037l-.038-.003-.002-.042c-.002-.041-.002-.041-.02-.041-.014 0-.017-.002-.017-.018s-.002-.019-.019-.02c-.019-.002-.019-.002-.02-.04l-.002-.04h-.07l-.003.038c-.004.035-.005.037-.022.037-.015 0-.017.002-.017.021 0 .02-.001.022-.017.022s-.017 0-.02.04c-.005.039-.005.04-.022.04-.016 0-.017.001-.017.021s-.002.022-.018.022c-.017 0-.017 0-.019.038-.002.038-.002.038-.02.04-.018.002-.02.004-.02.023 0 .02-.002.021-.017.021-.018 0-.018 0-.02.039-.001.038-.001.038-.02.04-.018.002-.019.003-.023.038-.003.034-.005.037-.018.037-.012 0-.014.003-.014.022 0 .02-.001.021-.02.021h-.02l-.004.04c-.004.04-.004.04-.021.04-.016 0-.018.002-.018.021 0 .02-.001.022-.017.022s-.017.001-.02.037c-.005.033-.006.036-.02.038-.013.001-.017.005-.018.022-.002.017-.004.02-.018.02-.017 0-.017 0-.021.04-.004.036-.005.039-.02.04-.013.002-.016.006-.018.023-.001.017-.004.02-.018.02-.017 0-.017 0-.021.04-.004.038-.005.04-.021.04s-.017.001-.017.021-.002.021-.018.021h-.018v.074h-.041v.08h-.018c-.016 0-.017.002-.017.022 0 .02-.001.021-.02.021h-.02l-.004.04c-.004.037-.006.04-.018.04-.012 0-.014.004-.016.02-.002.017-.004.02-.02.022-.019.002-.02.003-.023.038-.004.034-.006.037-.018.037-.013 0-.015.003-.015.021 0 .02 0 .022-.02.022h-.02v.08h-.018c-.015 0-.018.002-.02.02 0 .017-.004.02-.02.021-.019.002-.019.002-.02.04-.002.037-.003.038-.019.04-.013.002-.016.005-.016.02 0 .017-.002.018-.02.018h-.021v.08h-.017c-.016 0-.018.003-.02.02-.001.018-.004.02-.02.022l-.02.002v.08h-.041v.079h-.017c-.016 0-.018.002-.02.02-.001.017-.004.02-.02.022l-.02.002v.036c0 .037 0 .037-.017.037s-.018.001-.018.021 0 .022-.02.022h-.021v.08h-.018c-.015 0-.017.002-.019.02-.001.017-.004.02-.02.022l-.02.001v.08h-.018c-.015 0-.017.002-.017.018 0 .017-.002.018-.02.018h-.021v.08h-.018c-.016 0-.018.002-.018.022 0 .02 0 .021-.02.021h-.021v.08h-.017c-.017 0-.018.001-.022.04s-.004.04-.02.04c-.015 0-.017.003-.019.02-.001.016-.004.02-.017.022-.015.002-.016.005-.02.038-.004.036-.005.037-.021.037s-.017.002-.017.021c0 .02-.002.022-.018.022s-.017 0-.02.04c-.005.038-.005.04-.022.04-.014 0-.016.002-.018.02-.002.016-.005.02-.018.021-.014.002-.016.005-.02.039-.003.035-.004.036-.02.036s-.018.002-.018.022c0 .02-.001.021-.017.021-.017 0-.017.001-.021.04-.004.04-.005.04-.021.04s-.017.002-.017.022c0 .02-.001.021-.02.021h-.021v.08h-.018c-.016 0-.017.002-.02.037-.005.033-.006.036-.02.038-.013.002-.016.005-.018.022-.002.017-.004.02-.018.02-.017 0-.017.001-.021.04s-.005.04-.021.04-.018.002-.018.021c0 .02-.001.022-.017.022-.017 0-.017 0-.021.04-.004.039-.005.04-.021.04s-.017.002-.017.021c0 .02-.002.022-.017.022-.017 0-.018 0-.022.037-.004.035-.004.036-.02.036s-.018.002-.018.022c0 .02-.001.021-.017.021-.017 0-.017.001-.021.04-.004.04-.005.04-.021.04s-.018.002-.018.022c0 .02-.001.021-.017.021-.017 0-.017 0-.02.039 0 .038 0 .038-.02.04-.017.002-.02.004-.02.02s-.001.018-.017.018h-.018v.08h-.04l-.004.04c-.003.037-.005.04-.018.04-.01 0-.014.003-.015.02-.002.017-.005.02-.02.022-.018.001-.02.003-.023.038-.004.033-.005.037-.018.037-.012 0-.014.003-.016.023s-.003.023-.02.024c-.018.002-.02.004-.023.039-.004.033-.005.036-.018.036-.011 0-.014.004-.015.02-.002.018-.005.02-.02.022-.019.002-.02.003-.023.042-.004.038-.005.04-.022.04-.015 0-.017.001-.017.02 0 .02-.001.022-.017.022-.018 0-.018 0-.02.039v.008c0 .017-.002.025-.006.028-.002.002-.005.003-.01.004h-.004c-.017.002-.02.004-.02.02s-.002.018-.017.018h-.018v.08h-.041v.08h-.018c-.015 0-.017.002-.019.02-.001.017-.004.02-.02.022l-.02.002v.036c0 .037 0 .037-.018.037-.016 0-.017.001-.017.021s-.001.022-.02.022h-.021v.08h-.018c-.015 0-.017.002-.019.02-.002.017-.004.02-.02.021l-.02.002v.08h-.017c-.016 0-.018.002-.02.02-.001.017-.004.02-.02.021l-.02.002v.037c0 .036 0 .036-.017.036s-.018.002-.018.022c0 .02-.001.021-.02.021h-.021v.08h-.018c-.015 0-.017.002-.019.02-.001.017-.004.02-.02.022l-.02.002v.079h-.017c-.017 0-.017.001-.021.037-.004.035-.005.037-.021.037s-.018.002-.018.021c0 .02-.001.022-.017.022-.017 0-.017 0-.021.04-.004.038-.005.04-.021.04s-.017.001-.017.021-.001.021-.02.021h-.021v.074h-.018c-.016 0-.018.002-.018.021 0 .02-.001.022-.019.023-.007.001-.012.002-.015.004-.004.004-.005.013-.006.037-.002.038-.002.038-.019.038-.016 0-.017.002-.017.022 0 .02-.001.021-.021.021h-.02v.08h-.018c-.015 0-.018.002-.02.02 0 .018-.003.02-.02.022l-.02.002v.079h-.016c-.017 0-.018.001-.022.037-.003.035-.004.037-.02.037s-.018.002-.018.021c0 .02-.001.022-.017.022-.017 0-.017 0-.021.04-.004.038-.005.04-.022.04-.015 0-.017.001-.017.021s0 .021-.017.021c-.016 0-.018.003-.018.019 0 .017-.002.018-.02.018h-.021v.04c0 .04 0 .04-.017.04-.007 0-.011 0-.014-.003l-.21.243h5.044z" fill="#CB2F2F"/><path d="M9.839 4.423c0 .017-.002.019-.018.019s-.017.001-.017.021-.002.022-.018.022-.017 0-.02.04c-.005.038-.006.04-.021.04-.016 0-.017.001-.02.036-.004.034-.006.037-.019.037-.012 0-.014.003-.014.022 0 .02-.001.021-.02.021H9.65v.08l-.019.001c-.017.002-.02.005-.02.022-.002.018-.005.02-.02.02-.016 0-.017 0-.018.039-.002.038-.002.038-.021.04l-.02.002v.036c0 .037 0 .037-.017.037-.016 0-.018.002-.018.02 0 .02-.001.022-.019.024-.02.002-.02.002-.02.04-.003.038-.003.039-.02.039-.016 0-.017.001-.017.021s-.001.022-.021.022h-.02v.08h-.018c-.015 0-.018.002-.02.02 0 .017-.003.02-.02.021l-.02.002v.08h-.016c-.017 0-.018 0-.022.036s-.004.037-.02.037-.018.002-.018.022c0 .02-.001.021-.017.021s-.017.001-.021.04c-.004.04-.005.04-.021.04s-.018.002-.018.022c0 .02-.001.021-.017.021-.017 0-.017.001-.021.04s-.005.04-.021.04c-.017 0-.017 0-.017.037v.037h-.018c-.016 0-.018.001-.018.021s0 .022-.02.022h-.02l-.004.04c-.003.036-.005.04-.018.04-.01 0-.014.003-.015.02-.002.017-.004.02-.021.021l-.02.002v.08h-.017c-.015 0-.017.002-.019.02-.002.017-.004.02-.02.021l-.02.002v.072l-.02.002c-.018.002-.018.002-.02.04-.002.039-.002.04-.02.04-.015 0-.017 0-.017.02s-.001.021-.019.023c-.019.002-.019.002-.02.04-.002.039-.003.039-.02.039-.016 0-.017.002-.017.021 0 .021-.001.022-.02.022h-.022v.08h-.017c-.016 0-.018.002-.018.018s-.002.018-.02.02c-.018.002-.018.002-.02.04-.002.038-.002.039-.018.039-.017 0-.017 0-.021.04-.004.039-.005.04-.022.04-.015 0-.017.001-.017.021s-.001.021-.017.021-.017.002-.02.04c-.005.04-.005.04-.022.04-.016 0-.017.002-.017.022 0 .02-.002.021-.018.021s-.017.002-.02.037c-.005.036-.005.037-.022.037h-.017v.08h-.018c-.016 0-.017.002-.017.021 0 .021-.001.022-.021.022h-.02v.08h-.018c-.015 0-.018.002-.02.02 0 .017-.003.02-.02.022-.019.002-.019.002-.02.04-.002.036-.003.038-.018.04-.014.001-.017.005-.017.02 0 .016-.001.018-.02.018h-.02v.08h-.018c-.017 0-.017 0-.021.04-.004.038-.005.04-.022.04-.015 0-.017.001-.017.02 0 .021 0 .022-.02.022h-.02v.08h-.018c-.015 0-.018.003-.02.02 0 .018-.003.02-.02.022l-.02.002v.037c0 .036 0 .036-.017.036-.016 0-.018.002-.018.022 0 .02 0 .021-.02.021H7.84v.04c0 .04 0 .04-.017.04s-.017 0-.021.04c-.004.039-.005.04-.021.04s-.018.002-.018.021c0 .02-.001.022-.017.022-.017 0-.017 0-.021.04-.004.039-.005.04-.021.04-.015 0-.017.002-.017.018s-.002.019-.018.019h-.018v.08h-.04v.08h-.018c-.015 0-.018.002-.02.02-.001.017-.004.02-.02.021l-.02.002v.037c0 .036 0 .036-.017.036-.016 0-.017.002-.019.023-.002.021-.003.023-.021.025l-.02.002v.036c0 .037 0 .037-.016.037s-.018.002-.02.02c-.001.017-.004.02-.02.022l-.02.002v.079h-.017c-.017 0-.017 0-.021.04-.004.039-.005.04-.021.04s-.017.002-.017.021c0 .02-.002.022-.018.022s-.017 0-.02.04c-.005.039-.005.04-.022.04-.015 0-.017.002-.017.018 0 .015-.002.018-.02.02-.018.002-.018.002-.02.04-.002.038-.002.038-.019.038-.016 0-.016.001-.02.04-.004.04-.005.04-.022.04-.015 0-.017.002-.017.022 0 .02-.001.021-.017.021s-.017.002-.02.037c-.004.034-.006.036-.02.038-.014.002-.017.005-.018.022-.002.017-.004.02-.019.02-.016 0-.017.001-.02.04-.005.039-.005.04-.022.04-.016 0-.017.002-.017.021 0 .02-.002.022-.018.022h-.018v.08h-.04v.08h-.018c-.015 0-.018.002-.02.02 0 .017-.003.02-.02.021l-.02.002v.037c0 .036 0 .036-.017.036-.016 0-.018.002-.018.022 0 .02 0 .021-.02.021h-.021v.08H6.71c-.016 0-.018.003-.02.02-.001.018-.004.02-.02.022l-.02.002v.08h-.017c-.016 0-.017 0-.02.036-.005.036-.006.037-.022.037s-.017.002-.017.021c0 .02-.002.022-.017.022-.017 0-.017 0-.021.04-.004.039-.005.04-.022.04-.015 0-.017.002-.017.021 0 .02-.001.022-.017.022-.017 0-.017 0-.021.04-.004.038-.005.04-.02.04-.016 0-.017.001-.02.036-.005.034-.006.037-.02.038-.015.002-.017.006-.019.025-.001.021-.003.023-.018.023-.016 0-.017.002-.021.037-.004.034-.005.037-.02.038-.013.002-.016.006-.017.022-.002.018-.004.02-.02.02h-.017v.08h-.02c-.02 0-.021.001-.021.022 0 .02-.001.021-.017.021-.018 0-.018 0-.02.038-.001.039-.001.039-.02.04l-.02.003v.036c0 .037 0 .037-.017.037s-.018.002-.018.02c0 .02-.002.022-.02.024-.018.002-.018.002-.02.04-.002.038-.002.039-.02.039-.015 0-.017.001-.017.021s0 .022-.02.022h-.02v.08h-.019c-.016 0-.017.001-.017.022v.022l.027-.004a.391.391 0 0 1 .035-.004c.005 0 .009-.007.009-.018v-.018h.075l.002-.02c.002-.019.004-.02.024-.022.02-.002.022-.004.022-.02 0-.018 0-.018.035-.018h.035l.002-.02c.002-.02.002-.02.039-.022.036-.002.037-.002.037-.02v-.018h.076l.003-.04.115-.004v-.018c0-.017 0-.018.037-.02.035-.001.037-.002.039-.017.001-.014.005-.017.028-.02a.51.51 0 0 1 .059-.004c.03 0 .032 0 .032-.018v-.018l.076-.004c.075-.004.077-.005.077-.018 0-.012.004-.015.027-.018.015-.002.075-.004.133-.004h.105v-.037h.654v.037h.307v.035l.063.004.097.004c.034 0 .034 0 .034.018v.019h.05c.027 0 .061.002.076.004.026.003.028.005.028.021v.018h.117v.018c0 .018.001.019.03.019.015 0 .04.002.055.004.023.003.027.006.029.02.001.015.003.016.038.018.037.001.037.002.037.02v.018h.076l.002.02c.002.02.002.02.038.021.037.002.037.003.037.02s.001.017.039.021c.037.005.038.005.038.023 0 .016.002.018.02.018.02 0 .021.001.021.017 0 .018.001.018.039.022.037.004.038.005.038.022 0 .017.002.018.02.018.02 0 .021.002.021.018 0 .017.001.018.035.022.035.004.036.005.036.022 0 .017.002.018.02.018.02 0 .021.002.021.018s.002.019.02.02c.016.002.019.005.02.022.002.018.004.02.02.02.015 0 .017.002.017.018s.002.018.019.02c.017.002.02.005.02.022.002.018.005.02.02.02s.017.002.017.018.003.018.02.02c.016.002.019.004.02.022.002.017.004.02.02.02.014 0 .016.002.018.02.002.017.004.02.021.022.017.002.02.004.02.02s.001.018.017.018h.018v.08h.02c.02 0 .02 0 .02.021 0 .02.002.022.018.022.015 0 .018.002.02.02 0 .016.004.02.017.022.015.001.016.004.02.038.004.035.005.036.02.036.016 0 .017.002.021.04.004.04.004.04.021.04.016 0 .017.002.017.022 0 .02.002.021.017.021.017 0 .017.001.021.04.004.037.005.04.018.04.013 0 .014.004.018.04.004.039.005.04.02.04s.017.002.02.032a.634.634 0 0 1 .004.059c0 .025 0 .026.018.026h.017v.086h.017c.016 0 .017.002.02.028a.544.544 0 0 1 .005.059c0 .029 0 .03.017.03h.018v.16h.017c.016 0 .017.001.02.032a.877.877 0 0 1 .004.08v.047h.036v.16h.016c.016 0 .018.002.021.032.002.018.004.073.004.123v.09h.035v.4h.017c.016 0 .017.002.02.032.003.018.004 1.109.004 2.424v2.392h1.682l.209-.243c-.003-.004-.005-.011-.007-.025-.002-.016-.003-1.08-.003-2.366V13.1h-.036v-.559h-.041v-.32h-.035l-.003-.242-.016-.002c-.013-.002-.016-.006-.019-.03a1.047 1.047 0 0 1-.004-.098v-.07h-.035l-.003-.163-.015-.002c-.02-.002-.023-.02-.023-.1v-.054h-.034l-.009-.16h-.034v-.123h-.017c-.016 0-.017-.002-.02-.032a.606.606 0 0 1-.004-.059c0-.025-.001-.026-.018-.026h-.018v-.086h-.017c-.017 0-.017 0-.021-.04-.004-.039-.005-.04-.021-.04h-.017v-.117h-.041v-.08h-.036v-.079l-.019-.001c-.017-.002-.02-.005-.02-.022-.002-.018-.005-.02-.02-.02h-.017v-.08H11.4c-.016 0-.017-.001-.02-.04-.005-.039-.005-.04-.022-.04-.015 0-.017-.002-.017-.021 0-.02-.002-.022-.017-.022-.017 0-.017-.001-.021-.037-.004-.035-.005-.037-.021-.037s-.018-.002-.018-.021c0-.02-.001-.022-.017-.022-.017 0-.017 0-.021-.04-.004-.038-.005-.04-.02-.04s-.018-.002-.02-.02c-.001-.017-.003-.02-.02-.021-.018-.002-.02-.004-.02-.023 0-.02-.001-.022-.017-.022h-.018v-.073h-.02c-.02 0-.021-.002-.021-.019 0-.016-.002-.018-.018-.018s-.018-.002-.018-.022c0-.02 0-.021-.02-.021-.019 0-.02-.002-.02-.018s-.003-.019-.02-.02c-.017-.002-.02-.005-.02-.022-.002-.018-.005-.02-.02-.02-.016 0-.017-.002-.017-.022 0-.02-.001-.021-.021-.021-.019 0-.02-.002-.02-.019 0-.016-.003-.018-.018-.018-.017 0-.018-.002-.018-.022 0-.02-.001-.021-.02-.021-.02 0-.021-.002-.021-.018 0-.017-.001-.018-.036-.022-.034-.004-.035-.005-.035-.022 0-.016-.002-.018-.02-.018-.02 0-.021-.001-.021-.018 0-.016-.003-.018-.02-.02-.016-.002-.019-.004-.02-.022l-.002-.02h-.035c-.021 0-.03 0-.033-.004-.002-.003-.002-.007-.002-.014l-.002-.014c-.003-.004-.008-.005-.019-.005-.02 0-.02 0-.02-.021v-.022h-.077v-.018c0-.016-.002-.018-.02-.02-.016-.001-.019-.004-.02-.022l-.002-.02h-.076v-.017c0-.018-.001-.018-.035-.022-.034-.005-.036-.005-.036-.023 0-.016-.002-.017-.02-.017-.02 0-.021-.002-.021-.019 0-.018 0-.018-.04-.02l-.04-.001-.001-.02c-.002-.02-.003-.02-.033-.02-.055 0-.075-.006-.075-.022 0-.013-.003-.014-.04-.018-.041-.004-.042-.005-.042-.022 0-.018-.001-.018-.029-.018a.479.479 0 0 1-.056-.004c-.023-.003-.027-.006-.027-.018 0-.013-.004-.014-.041-.018-.041-.004-.042-.005-.042-.022v-.018h-.051c-.078 0-.095-.004-.097-.024-.002-.016-.002-.016-.06-.018l-.057-.002v-.036h-.194V8.97h-.189v-.037h-.118v-.079l.02-.002c.016-.002.019-.004.02-.022.002-.017.004-.02.02-.02.015 0 .017-.002.017-.021 0-.02.001-.022.017-.022s.017-.001.021-.037c.004-.035.005-.036.021-.036s.017-.002.017-.022c0-.02.002-.021.018-.021s.017-.001.021-.04c.004-.04.005-.04.021-.04.015 0 .017-.003.017-.019s.002-.018.018-.018.017-.002.017-.022c0-.02.002-.021.02-.021h.02l.004-.04c.004-.037.006-.04.018-.04.012 0 .015-.004.016-.02.002-.017.004-.02.02-.022.018-.002.019-.003.023-.038.003-.033.005-.036.02-.038.013-.002.016-.005.017-.022.002-.017.004-.02.02-.02.015 0 .017-.002.017-.021 0-.02 0-.022.02-.022h.021v-.074h.018c.016 0 .018-.001.018-.02 0-.02.001-.022.019-.024.017-.001.02-.004.02-.022.002-.017.005-.02.02-.02h.017v-.08h.02c.02 0 .021 0 .021-.021 0-.02.002-.021.018-.021s.017-.002.02-.037c.005-.036.005-.037.022-.037.016 0 .017-.002.017-.022 0-.02.002-.021.017-.021.016 0 .018-.003.02-.02.001-.018.004-.02.02-.022l.02-.002v-.036c0-.037 0-.037.017-.037s.018-.002.018-.021c0-.021.001-.022.02-.022h.021v-.08h.018c.015 0 .017-.002.019-.02.001-.017.004-.02.02-.022.018-.001.02-.004.02-.02 0-.015.002-.018.017-.018.016 0 .017 0 .021-.04.004-.039.004-.04.021-.04.016 0 .018-.001.018-.021s.001-.022.017-.022.017 0 .02-.036c.005-.036.005-.037.022-.037.016 0 .017-.002.017-.022 0-.02.002-.021.018-.021.015 0 .017-.003.019-.02.001-.018.004-.02.02-.022l.02-.002v-.08h.03c.01 0 .011-.005.011-.02 0-.02.002-.022.017-.022.017 0 .017-.002.021-.037.004-.033.006-.036.02-.038.013-.002.016-.006.018-.022.001-.018.003-.02.019-.02s.017-.002.017-.022c0-.02.001-.021.02-.021h.021V6.85h.018c.016 0 .018-.001.018-.021s0-.022.02-.022h.02v-.08h.018c.015 0 .018-.002.02-.02.001-.017.004-.02.02-.021.017-.002.02-.005.02-.02 0-.016.002-.019.017-.019h.018v-.08h.02c.02 0 .021 0 .021-.02s.002-.022.017-.022c.017 0 .018-.002.021-.037.004-.036.005-.037.022-.037.015 0 .017-.002.017-.022 0-.02.001-.021.018-.021.016 0 .017-.002.017-.022 0-.02.001-.021.02-.021h.021v-.08h.018c.015 0 .017-.002.019-.02.002-.017.004-.02.02-.022.018-.002.02-.003.023-.038.004-.033.005-.036.02-.038.013-.002.016-.005.017-.022.002-.017.004-.02.02-.02.015 0 .017-.002.017-.021 0-.02.001-.022.017-.022s.017-.001.021-.037c.004-.035.005-.037.021-.037s.017-.001.017-.021.001-.022.02-.022h.022v-.08h.017c.016 0 .018-.001.018-.02 0-.021 0-.022.02-.022s.021-.002.021-.019c0-.016.002-.018.018-.018h.018v-.08h.02c.02 0 .02-.001.02-.022 0-.02.002-.021.018-.021s.017-.001.021-.037c.004-.033.005-.036.02-.038.013-.002.016-.006.017-.022.002-.018.004-.02.02-.02.015 0 .017-.002.017-.021 0-.02 0-.022.02-.022h.021v-.08h.017c.015 0 .018-.002.02-.02.001-.017.004-.02.02-.022l.02-.002v-.072l.019-.002c.017-.001.02-.004.02-.022.002-.017.005-.02.02-.02.016 0 .017-.001.017-.021s.002-.022.017-.022c.017 0 .018 0 .022-.036.003-.036.004-.037.02-.037s.018-.002.018-.022c0-.02.001-.021.017-.021.017 0 .017-.001.021-.04s.005-.04.021-.04c.015 0 .017-.003.019-.02.001-.017.004-.02.018-.022.013-.002.016-.005.016-.02 0-.017.002-.018.02-.018h.021v-.08h.017c.016 0 .018-.002.02-.02.001-.017.004-.02.02-.022.018-.002.018-.003.022-.038.004-.033.005-.036.02-.038.013-.001.016-.005.018-.022.002-.017.004-.02.02-.02.015 0 .016-.002.016-.021 0-.02.001-.022.021-.022h.02v-.037c0-.036 0-.036.018-.036.016 0 .017-.003.02-.023 0-.022.003-.024.02-.025l.02-.002V4.52c0-.036 0-.036.017-.036.016 0 .018-.002.018-.022 0-.02 0-.021.02-.021s.02-.002.02-.019v-.018H9.84v.018z" fill="#0C6666"/></svg>