<svg xmlns="http://www.w3.org/2000/svg" width="24" height="24" viewBox="0 0 24 24" fill="none"><rect width="24" height="24" fill="none"/>
<path d="M4.68405 12.6351C3.96253 12.6351 3.48152 12.3273 3.20253 11.8655H3.18329V12.4908H2V5.75662H3.18329V8.67156H3.20253C3.48152 8.20979 3.96253 7.90194 4.68405 7.90194C5.84811 7.90194 6.81975 8.74852 6.81975 10.2685C6.81975 11.7885 5.84811 12.6351 4.68405 12.6351ZM4.38583 11.5192C5.09773 11.5192 5.58836 11.0189 5.58836 10.2685C5.58836 9.51815 5.09773 9.01789 4.38583 9.01789C3.67393 9.01789 3.18329 9.51815 3.18329 10.2685C3.18329 11.0189 3.67393 11.5192 4.38583 11.5192Z" fill="#FF0067"/>
<path d="M8.59208 5.81434V7.11307H7.24525V5.81434H8.59208ZM7.32221 12.4908V8.04624H8.5055V12.4908H7.32221Z" fill="#FF0067"/>
<path d="M11.119 12.6351C9.95491 12.6351 8.98326 11.7885 8.98326 10.2685C8.98326 8.74852 9.95491 7.90194 11.119 7.90194C11.8405 7.90194 12.3215 8.20979 12.6005 8.67156H12.6197V5.75662H13.7934V12.4908H12.6197V11.8655H12.6005C12.3215 12.3273 11.8405 12.6351 11.119 12.6351ZM11.4172 11.5192C12.1291 11.5192 12.6197 11.0189 12.6197 10.2685C12.6197 9.51815 12.1291 9.01789 11.4172 9.01789C10.7053 9.01789 10.2147 9.51815 10.2147 10.2685C10.2147 11.0189 10.7053 11.5192 11.4172 11.5192Z" fill="#FF0067"/>
<path d="M6.44562 17.0621H8.87954V18.1011H5.0122V17.1487L7.27296 14.6956H5.13726V13.6566H8.716V14.5993L6.44562 17.0621Z" fill="#FF0067"/>
<path d="M16.2049 18.2434C15.0409 18.2434 14.0692 17.3969 14.0692 15.8769C14.0692 14.3569 15.0409 13.5103 16.2049 13.5103C16.9264 13.5103 17.4074 13.8181 17.6864 14.2799H17.7057V13.6546H18.8793V18.0991H17.7057V17.4738H17.6864C17.4074 17.9356 16.9264 18.2434 16.2049 18.2434ZM16.5031 17.1275C17.215 17.1275 17.7057 16.6272 17.7057 15.8769C17.7057 15.1265 17.215 14.6262 16.5031 14.6262C15.7912 14.6262 15.3006 15.1265 15.3006 15.8769C15.3006 16.6272 15.7912 17.1275 16.5031 17.1275Z" fill="#FF0067"/>
<path d="M11.119 18.2434C9.95491 18.2434 8.98326 17.3969 8.98326 15.8769C8.98326 14.3569 9.95491 13.5103 11.119 13.5103C11.8405 13.5103 12.3215 13.8181 12.6005 14.2799H12.6197V13.6546H13.7934V18.0991H12.6197V17.4738H12.6005C12.3215 17.9356 11.8405 18.2434 11.119 18.2434ZM11.4172 17.1275C12.1291 17.1275 12.6197 16.6272 12.6197 15.8769C12.6197 15.1265 12.1291 14.6262 11.4172 14.6262C10.7053 14.6262 10.2147 15.1265 10.2147 15.8769C10.2147 16.6272 10.7053 17.1275 11.4172 17.1275Z" fill="#FF0067"/>
<path d="M22 13.5199V14.7898H21.8653C20.9225 14.7898 20.4704 15.1938 20.4704 16.2809V18.0991H19.2967V13.6546H20.4608V14.5974H20.48C20.7109 13.9047 21.2208 13.5199 21.9519 13.5199H22Z" fill="#FF0067"/>
</svg>
