<svg xmlns="http://www.w3.org/2000/svg" width="110" height="24" viewBox="0 0 110 24" fill="none"><rect width="110" height="24" fill="none"/>
<path d="M8.61827 10.4358L12.5229 16.2279H10.3369L6.975 11.2876H5.36191V16.2279H3.44728V7.07513H2L2.96485 5.23218H5.36191V9.58401H6.975L10.1711 5.23218H12.342L8.61827 10.4358ZM11.935 12.2632C11.935 11.4063 12.1259 10.6578 12.5078 10.0177C12.8797 9.4188 13.3873 8.95939 14.0305 8.63931C14.6737 8.31923 15.3672 8.15922 16.111 8.15922C16.8748 8.15922 17.5633 8.31409 18.1764 8.62383C18.8196 8.94391 19.3272 9.4188 19.699 10.0486C20.0709 10.6681 20.2568 11.4063 20.2568 12.2632C20.2568 13.1305 20.0709 13.8791 19.699 14.5089C19.3272 15.1284 18.8196 15.6085 18.1764 15.9492C17.5431 16.2796 16.8547 16.4447 16.111 16.4447C15.3773 16.4447 14.6888 16.2796 14.0456 15.9492C13.3923 15.6188 12.8747 15.1387 12.4928 14.5089C12.1209 13.8687 11.935 13.1202 11.935 12.2632ZM44.4535 8.40704H46.1571V9.47559C46.4184 9.06262 46.7651 8.74774 47.1973 8.53089C47.6395 8.30375 48.2074 8.19019 48.9008 8.19019C49.6144 8.19019 50.2477 8.3554 50.8004 8.68576C51.3331 9.02646 51.7452 9.51175 52.0366 10.1416C52.3381 10.761 52.4889 11.4734 52.4889 12.2787C52.4889 13.0944 52.3381 13.8171 52.0366 14.447C51.7452 15.0664 51.3331 15.5465 50.8004 15.8872C50.5492 16.0627 50.2527 16.1918 49.9109 16.2744C49.5793 16.3673 49.2426 16.4138 48.9008 16.4138C48.3079 16.4138 47.8657 16.3673 47.5742 16.2744C46.9712 16.0885 46.544 15.7788 46.2927 15.3452V19.0001H44.4535V8.40704ZM21.2367 8.40704H23.0609V11.3805H26.1816V8.40704H27.9907V16.2279H26.1816V12.9292H23.0609V16.2279H21.2367V8.40704ZM28.7897 8.40704H35.8V9.89375H33.2069V16.2279H31.3526V9.89375H28.7897V8.40704ZM38.3176 8.40704C39.0011 10.3274 39.6242 12.2271 40.1871 14.1062C40.7197 12.2478 41.3227 10.348 41.9962 8.40704H43.8354L41.0313 16.3828C40.8001 17.0332 40.579 17.534 40.368 17.8851C40.1368 18.2361 39.8504 18.4993 39.5086 18.6749C39.177 18.8607 38.7348 18.9537 38.1819 18.9537C37.8704 18.9537 37.6995 18.9485 37.6694 18.9382L37.0513 17.4514C37.2423 17.4927 37.4784 17.5133 37.7598 17.5133C38.1015 17.5133 38.378 17.4618 38.589 17.3585C38.78 17.2759 38.9257 17.1623 39.0262 17.0178C39.1267 16.8836 39.2121 16.7132 39.2825 16.5067L36.3879 8.40704H38.3176ZM13.7893 12.2478C13.7893 13.1047 13.9903 13.7604 14.3923 14.2146C14.7944 14.6586 15.3522 14.8805 16.0658 14.8805C16.7894 14.8805 17.3522 14.6586 17.7542 14.2146C18.1663 13.7604 18.3723 13.1047 18.3723 12.2478C18.3723 11.4115 18.1713 10.7817 17.7693 10.3584C17.3673 9.92472 16.7994 9.70792 16.0658 9.70792C15.3421 9.70792 14.7793 9.92472 14.3772 10.3584C13.9853 10.7817 13.7893 11.4115 13.7893 12.2478ZM46.2475 12.2632C46.2676 13.0376 46.4686 13.6571 46.8506 14.1217C47.2325 14.5863 47.7702 14.8186 48.4636 14.8186C49.1572 14.8186 49.6898 14.5863 50.0617 14.1217C50.4436 13.6571 50.6396 13.0376 50.6497 12.2632C50.6396 11.4992 50.4436 10.8901 50.0617 10.4358C49.6898 9.97122 49.1572 9.73888 48.4636 9.73888C47.7702 9.73888 47.2325 9.96602 46.8506 10.4203C46.4686 10.8746 46.2676 11.4889 46.2475 12.2632Z" fill="#000000"/>
<path d="M64.4218 5.36468V14.9366H65.7069V18.339H64.3612V16.101H56.2864V18.339H54.9253V14.9366H55.8176C56.4424 14.0999 56.8304 12.9356 56.9816 11.4436C57.0422 10.748 57.0776 10.0524 57.0875 9.35676L57.118 5.36468H64.4218ZM63.0302 6.52904H58.4032L58.3732 9.47774C58.3628 10.8387 58.2618 11.9577 58.0703 12.8347C57.8787 13.7017 57.607 14.4023 57.2539 14.9366H63.0302V6.52904ZM73.8227 8.46464V16.101H72.5829V13.0616C72.5829 11.62 72.6031 10.5413 72.6429 9.82552C72.4514 10.1784 72.0988 10.7328 71.5848 11.489L70.7531 12.7138L68.5299 16.101H67.1389V8.46464H68.364V11.9577C68.364 12.5928 68.3585 13.0061 68.3487 13.1977L68.3182 14.7098C68.7214 14.0142 69.2912 13.117 70.0273 12.0182L72.4164 8.46464H73.8227ZM80.7238 16.101V15.0727C80.4514 15.476 80.0885 15.7885 79.6345 16.0103C79.181 16.222 78.6572 16.3279 78.0623 16.3279C77.2154 16.3279 76.5502 16.1363 76.0661 15.7532C75.5924 15.3701 75.3556 14.8308 75.3556 14.1352V14.0596C75.3556 13.2934 75.6225 12.7138 76.1567 12.3206C76.7013 11.9174 77.5379 11.6855 78.667 11.625L80.6632 11.489V10.9748C80.6632 10.4304 80.5066 10.0221 80.1944 9.74994C79.8817 9.46765 79.4282 9.32653 78.8334 9.32653C78.3395 9.32653 77.891 9.42737 77.4877 9.62896C77.0942 9.8205 76.691 10.1431 76.2779 10.5968L75.4462 9.8407C76.3232 8.78218 77.4419 8.2529 78.8029 8.2529C79.7808 8.2529 80.542 8.48477 81.0866 8.94852C81.6307 9.4122 81.903 10.0574 81.903 10.884V16.101H80.7238ZM78.7576 12.5474C77.9712 12.5877 77.4168 12.7188 77.0942 12.9406C76.7717 13.1624 76.6102 13.5152 76.6102 13.9991V14.0747C76.6102 14.4679 76.7564 14.7703 77.0489 14.982C77.3513 15.1937 77.7747 15.2996 78.3194 15.2996C78.7527 15.2996 79.151 15.2139 79.5139 15.0425C79.8768 14.8711 80.1589 14.6342 80.3609 14.3318C80.5622 14.0193 80.6632 13.6664 80.6632 13.2733V12.4567L78.7576 12.5474ZM82.8951 15.0425H83.6056C83.8878 14.7401 84.0995 14.2965 84.2408 13.7118C84.392 13.117 84.4777 12.3105 84.4979 11.2923L84.5279 8.46464H90.2742V15.0425H91.3935V17.9912H90.1383V16.101H84.135V17.9912H82.8951V15.0425ZM88.9738 9.52309H85.6924L85.6624 11.368C85.6521 12.3256 85.5866 13.1019 85.4654 13.6967C85.3448 14.2914 85.1631 14.7401 84.9213 15.0425H88.9738V9.52309ZM99.8459 12.2904C99.8459 13.0767 99.6795 13.7723 99.3472 14.3772C99.0045 14.9921 98.5302 15.4709 97.9256 15.8137C97.3209 16.1464 96.6301 16.3127 95.8541 16.3127C95.0677 16.3127 94.3768 16.1413 93.7826 15.7986C93.1675 15.4659 92.6884 14.9972 92.3457 14.3923C92.0128 13.7874 91.8469 13.0868 91.8469 12.2904V12.2299C91.8469 11.4536 92.0183 10.7681 92.361 10.1734C92.6933 9.5685 93.1621 9.09973 93.7673 8.76707C94.3719 8.42431 95.0677 8.2529 95.8541 8.2529C96.6301 8.2529 97.3209 8.41923 97.9256 8.7519C98.5302 9.08462 98.999 9.55338 99.3319 10.1582C99.6746 10.7631 99.8459 11.4536 99.8459 12.2299V12.2904ZM93.1774 12.2904C93.1774 12.8751 93.2882 13.3841 93.5103 13.8177C93.7318 14.2713 94.0445 14.6191 94.4478 14.8611C94.8511 15.103 95.3198 15.2239 95.8541 15.2239C96.3883 15.2239 96.8571 15.0979 97.2604 14.8459C97.6636 14.604 97.9709 14.2612 98.1826 13.8177C98.4047 13.3741 98.5155 12.865 98.5155 12.2904V12.2299C98.5155 11.6553 98.4047 11.1512 98.1826 10.7177C97.9611 10.2842 97.6435 9.94651 97.2298 9.7046C96.8265 9.46263 96.3681 9.34164 95.8541 9.34164C95.34 9.34164 94.8811 9.45761 94.4778 9.68948C94.0745 9.93139 93.7569 10.2742 93.525 10.7177C93.2936 11.1613 93.1774 11.6653 93.1774 12.2299V12.2904ZM103.838 12.7289H102.522V16.101H101.222V8.46464H102.522V11.6704H103.853L106.363 8.46464H107.754L104.896 12.1392L107.996 16.101H106.514L103.838 12.7289Z" fill="#000000"/>
</svg>
