<svg xmlns="http://www.w3.org/2000/svg" width="79" height="24" viewBox="0 0 79 24" fill="none"><rect width="79" height="24" fill="none"/>
<path d="M33.7111 14.8585H30.2172V3.26491H36.411C37.7344 3.26491 38.7403 3.63548 39.4814 4.42956C40.2226 5.1707 40.5931 6.1236 40.5931 7.28825C40.5931 8.39996 40.2226 9.35285 39.4814 10.094C38.7403 10.8351 37.7344 11.2586 36.411 11.2586H33.7111V14.8585ZM35.9345 8.13527C36.2522 8.13527 36.5169 8.08233 36.6757 7.92351C36.8874 7.7647 36.9933 7.55294 36.9933 7.23531C36.9933 6.91768 36.8874 6.70592 36.6757 6.54711C36.4639 6.38829 36.1992 6.33535 35.9345 6.33535H33.7111V8.13527H35.9345Z" fill="#EE2D30"/>
<path d="M45.0932 14.8585H41.7052V3.26491H45.1991V9.45873L49.2224 3.26491H52.8223V14.8585H49.3283V8.29408L45.0932 14.8585Z" fill="#EE2D30"/>
<path d="M60.4975 15.07C58.6446 15.07 57.1623 14.4877 55.9448 13.376C54.7272 12.2643 54.1448 10.8349 54.1448 9.035C54.1448 7.28803 54.7272 5.80575 55.9448 4.69403C57.1623 3.58232 58.6976 3 60.4975 3C61.8739 3 62.9856 3.31763 63.8856 3.95289C64.7326 4.58816 65.3678 5.38224 65.7913 6.33513L62.7738 7.81741C62.615 7.34096 62.3503 6.97039 61.9268 6.65276C61.5033 6.33513 61.0269 6.17632 60.5504 6.17632C59.7034 6.17632 59.0152 6.44101 58.5388 7.02333C58.0094 7.60566 57.7447 8.29386 57.7447 9.08794C57.7447 9.93496 58.0094 10.6232 58.5388 11.1525C59.0681 11.7349 59.7563 11.9996 60.5504 11.9996C61.0798 11.9996 61.5033 11.8407 61.9268 11.5231C62.3503 11.2055 62.615 10.782 62.7738 10.3585L65.7913 11.7349C65.5796 12.1584 65.3678 12.5819 65.1031 12.8995C64.8384 13.2701 64.4679 13.6407 64.0444 13.9583C63.6209 14.3289 63.0915 14.5936 62.5092 14.8053C61.8739 14.9641 61.2386 15.07 60.4975 15.07Z" fill="#EE2D30"/>
<path d="M69.3915 14.8585V6.28241H66.2681V3.26491H76.0088V6.33535H72.9384V14.8585H69.3915Z" fill="#EE2D30"/>
<path d="M27.0931 4.74677C25.8755 3.63506 24.3932 3.05273 22.5933 3.05273C21.111 3.05273 19.7876 3.4233 18.6759 4.21738C17.5642 5.01146 16.823 6.01729 16.4524 7.34076H14.4408V3.26449L10.9468 11.2582V14.911H14.4408V10.4641H16.3995C16.7171 11.8405 17.4053 13.0052 18.57 13.8522C19.6817 14.6992 21.0581 15.1227 22.6463 15.1227C24.4462 15.1227 25.9814 14.5404 27.199 13.4287C28.4166 12.317 28.9989 10.8876 28.9989 9.08773C28.946 7.28782 28.3107 5.85848 27.0931 4.74677ZM24.605 11.0994C24.0756 11.6817 23.4403 11.9464 22.5933 11.9464C21.7463 11.9464 21.111 11.6817 20.5817 11.0994C20.0523 10.5171 19.7876 9.82887 19.7876 9.03479C19.7876 8.18778 20.0523 7.49957 20.5817 6.97019C21.111 6.38786 21.7463 6.12317 22.5933 6.12317C23.4403 6.12317 24.0756 6.38786 24.605 6.97019C25.1344 7.55251 25.3991 8.24071 25.3991 9.03479C25.3461 9.88181 25.0814 10.57 24.605 11.0994Z" fill="#EE2D30"/>
<path d="M7.13527 8.13484C6.81764 8.13484 6.55295 8.0819 6.34119 7.92309C6.12944 7.76427 6.02356 7.49958 6.02356 7.18195C6.02356 6.91726 6.12944 6.65256 6.34119 6.49375C6.55295 6.33493 6.81764 6.28199 7.13527 6.28199H11.4762L12.7997 3.21155H6.60589C5.28242 3.21155 4.27659 3.58212 3.53545 4.3762C2.79431 5.11734 2.42374 6.07024 2.42374 7.23489C2.42374 8.13484 2.63549 8.87598 3.059 9.45831C3.48251 10.0406 3.95896 10.4641 4.54128 10.7288L2.42374 14.8051H6.44707L8.03523 11.1523H9.30575L10.6822 8.08191H7.13527V8.13484Z" fill="#231F20"/>
<path d="M3.11171 20.9998H2.84702C2.6882 20.9998 2.52939 20.9469 2.42351 20.841C2.31763 20.7351 2.21175 20.5233 2.21175 20.3116V19.6234C2.21175 19.5705 2.21175 19.4646 2.15882 19.4116C2.10588 19.3587 2.05294 19.3587 2 19.3587V19.0411C2.05294 19.0411 2.10588 19.0411 2.15882 18.9881C2.21175 18.9352 2.21175 18.8823 2.21175 18.7764V18.0882C2.21175 17.8764 2.26469 17.7176 2.42351 17.6117C2.58232 17.5058 2.6882 17.4529 2.84702 17.4529H3.11171V17.8235H2.84702C2.79408 17.8235 2.74114 17.8764 2.6882 17.9294C2.63526 17.9823 2.63526 18.0352 2.63526 18.1411V18.8823C2.63526 19.094 2.58232 19.1999 2.42351 19.2528C2.52939 19.3058 2.63526 19.4116 2.63526 19.6234V20.3645C2.63526 20.4704 2.63526 20.5233 2.6882 20.5763C2.74114 20.6292 2.79408 20.6822 2.84702 20.6822H3.11171V20.9998Z" fill="#231F20"/>
<path d="M7.18876 20.2043H6.71231V18.4044H5.65354V20.2043H5.17709V17.9809H7.18876V20.2043Z" fill="#231F20"/>
<path d="M9.57076 20.2043H9.09431V17.9809H10.1531C10.3648 17.9809 10.5766 18.0338 10.6825 18.1926C10.8413 18.3514 10.8942 18.5102 10.8942 18.722C10.8942 18.9338 10.8413 19.0926 10.6825 19.2514C10.5237 19.4102 10.3648 19.4631 10.1531 19.4631H9.57076V20.2043ZM10.0472 18.9867C10.1531 18.9867 10.206 18.9338 10.259 18.8808C10.3119 18.8279 10.3648 18.7749 10.3648 18.6691C10.3648 18.5632 10.3119 18.5102 10.259 18.4573C10.259 18.4044 10.1531 18.4044 10.0472 18.4044H9.51782V18.9867H10.0472Z" fill="#231F20"/>
<path d="M14.4946 20.2043H13.9652L13.8064 19.8337H12.8535L12.6947 20.2043H12.1653L13.0123 17.9809H13.5947L14.4946 20.2043ZM13.6476 19.4102L13.277 18.4573L12.9065 19.4102H13.6476Z" fill="#231F20"/>
<path d="M17.3528 20.2043H16.1353V17.9809H17.2999C17.5117 17.9809 17.6705 18.0338 17.7764 18.1397C17.8822 18.2455 17.9352 18.4044 17.9352 18.5632C17.9352 18.722 17.8822 18.8279 17.8293 18.8808C17.7764 18.9338 17.6705 19.0396 17.5646 19.0396C17.6705 19.0396 17.7764 19.1455 17.8822 19.1984C17.9881 19.3043 17.9881 19.4102 17.9881 19.569C17.9881 19.7278 17.9352 19.8866 17.8293 19.9925C17.7234 20.1513 17.5646 20.2043 17.3528 20.2043ZM17.194 18.8808C17.2999 18.8808 17.3529 18.8808 17.4058 18.8279C17.4587 18.7749 17.4587 18.722 17.4587 18.6691C17.4587 18.6161 17.4587 18.5632 17.4058 18.5102C17.3529 18.4573 17.2999 18.4044 17.194 18.4044H16.6117V18.8808H17.194ZM17.247 19.7808C17.3528 19.7808 17.4058 19.7808 17.4587 19.7278C17.5117 19.6749 17.5117 19.622 17.5117 19.5161C17.5117 19.4631 17.5117 19.3573 17.4587 19.3573C17.4058 19.3043 17.3528 19.3043 17.247 19.3043H16.6117V19.8337H17.247V19.7808Z" fill="#231F20"/>
<path d="M20.9001 20.2574C20.5825 20.2574 20.2648 20.1515 20.0531 19.9398C19.8413 19.728 19.7355 19.4633 19.7355 19.0928C19.7355 18.7222 19.8413 18.4575 20.0531 18.2458C20.2648 18.034 20.5295 17.9281 20.9001 17.9281C21.2177 17.9281 21.5354 18.034 21.7471 18.2458C21.9589 18.4575 22.0648 18.7222 22.0648 19.0928C22.0648 19.4633 21.9589 19.728 21.7471 19.9398C21.4824 20.1515 21.2177 20.2574 20.9001 20.2574ZM20.3707 19.6222C20.4766 19.781 20.6354 19.8339 20.8472 19.8339C21.0589 19.8339 21.2177 19.781 21.3236 19.6222C21.4295 19.4633 21.5354 19.3045 21.5354 19.0928C21.5354 18.881 21.4824 18.7222 21.3236 18.5634C21.2177 18.4046 21.0589 18.3516 20.8472 18.3516C20.6354 18.3516 20.5295 18.4046 20.3707 18.5634C20.2649 18.7222 20.2119 18.881 20.2119 19.0928C20.2119 19.3045 20.2649 19.4633 20.3707 19.6222Z" fill="#231F20"/>
<path d="M25.0297 20.2043H23.8121V17.9809H24.9768C25.1885 17.9809 25.3474 18.0338 25.4532 18.1397C25.5591 18.2455 25.612 18.4044 25.612 18.5632C25.612 18.722 25.5591 18.8279 25.5062 18.8808C25.4532 18.9338 25.3474 19.0396 25.2415 19.0396C25.3474 19.0396 25.4532 19.1455 25.5591 19.1984C25.665 19.3043 25.665 19.4102 25.665 19.569C25.665 19.7278 25.612 19.8866 25.5062 19.9925C25.4003 20.1513 25.2415 20.2043 25.0297 20.2043ZM24.9238 18.8808C25.0297 18.8808 25.0827 18.8808 25.1356 18.8279C25.1885 18.7749 25.1885 18.722 25.1885 18.6691C25.1885 18.6161 25.1885 18.5632 25.1356 18.5102C25.0827 18.4573 24.9768 18.4044 24.9238 18.4044H24.3415V18.8808H24.9238ZM24.9238 19.7808C25.0297 19.7808 25.0827 19.7808 25.1356 19.7278C25.1885 19.6749 25.1885 19.622 25.1885 19.5161C25.1885 19.4631 25.1885 19.3573 25.1356 19.3573C25.0827 19.3043 25.0297 19.3043 24.9238 19.3043H24.2886V19.8337H24.9238V19.7808Z" fill="#231F20"/>
<path d="M28.5757 20.2574C28.2581 20.2574 27.9405 20.1515 27.7287 19.9398C27.517 19.728 27.4111 19.4633 27.4111 19.0928C27.4111 18.7222 27.517 18.4575 27.7287 18.2458C27.9405 18.034 28.2052 17.9281 28.5757 17.9281C28.8934 17.9281 29.211 18.034 29.4227 18.2458C29.6345 18.4575 29.7404 18.7222 29.7404 19.0928C29.7404 19.4633 29.6345 19.728 29.4227 19.9398C29.211 20.1515 28.8934 20.2574 28.5757 20.2574ZM28.0993 19.6222C28.2052 19.781 28.364 19.8339 28.5757 19.8339C28.7875 19.8339 28.9463 19.781 29.0522 19.6222C29.1581 19.4633 29.2639 19.3045 29.2639 19.0928C29.2639 18.881 29.211 18.7222 29.0522 18.5634C28.9463 18.4046 28.7875 18.3516 28.5757 18.3516C28.364 18.3516 28.2052 18.4046 28.0993 18.5634C27.9934 18.7222 27.9405 18.881 27.9405 19.0928C27.9405 19.3045 27.9934 19.4633 28.0993 19.6222Z" fill="#231F20"/>
<path d="M32.0163 20.2059H31.5399V17.9825H32.0163V19.4118L33.0221 17.9825H33.4986V20.2059H33.0221V18.7236L32.0163 20.2059ZM33.128 17.559C32.9692 17.7707 32.8104 17.8766 32.5457 17.8766C32.281 17.8766 32.1222 17.7707 31.9634 17.559L32.1751 17.4002C32.281 17.559 32.3869 17.6119 32.5986 17.6119C32.7574 17.6119 32.9163 17.559 33.0221 17.4002L33.128 17.559Z" fill="#231F20"/>
<path d="M39.6931 20.2043H39.1108L38.4226 19.3043L38.2638 19.5161V20.2043H37.7873V17.9809H38.2638V18.9867L39.0578 17.9809H39.6402L38.7402 19.0396L39.6931 20.2043Z" fill="#231F20"/>
<path d="M42.2873 20.2574C41.9696 20.2574 41.652 20.1515 41.4402 19.9398C41.2285 19.728 41.1226 19.4633 41.1226 19.0928C41.1226 18.7222 41.2285 18.4575 41.4402 18.2458C41.652 18.034 41.9167 17.9281 42.2873 17.9281C42.6049 17.9281 42.9225 18.034 43.1343 18.2458C43.346 18.4575 43.4519 18.7222 43.4519 19.0928C43.4519 19.4633 43.346 19.728 43.1343 19.9398C42.8696 20.1515 42.6049 20.2574 42.2873 20.2574ZM41.7579 19.6222C41.8637 19.781 42.0226 19.8339 42.2343 19.8339C42.4461 19.8339 42.6049 19.781 42.7108 19.6222C42.8166 19.4633 42.9225 19.3045 42.9225 19.0928C42.9225 18.881 42.8696 18.7222 42.7108 18.5634C42.6049 18.4046 42.4461 18.3516 42.2343 18.3516C42.0226 18.3516 41.8637 18.4046 41.7579 18.5634C41.652 18.7222 41.5991 18.881 41.5991 19.0928C41.5991 19.3045 41.652 19.4633 41.7579 19.6222Z" fill="#231F20"/>
<path d="M47.2103 20.2043H46.7339V19.2514H45.6751V20.2043H45.1986V17.9809H45.6751V18.8808H46.7339V17.9809H47.2103V20.2043Z" fill="#231F20"/>
<path d="M50.2278 20.2574C49.9102 20.2574 49.5925 20.1515 49.3808 19.9398C49.169 19.728 49.0631 19.4633 49.0631 19.0928C49.0631 18.7222 49.169 18.4575 49.3808 18.2458C49.5925 18.034 49.9102 17.9281 50.2278 17.9281C50.6513 17.9281 50.9689 18.0869 51.1807 18.4575L50.7572 18.6693C50.7042 18.5634 50.6513 18.5104 50.5454 18.4575C50.4395 18.4046 50.3337 18.3516 50.2278 18.3516C50.016 18.3516 49.8572 18.4046 49.7513 18.5634C49.6455 18.7222 49.5396 18.881 49.5396 19.0928C49.5396 19.3045 49.5925 19.4633 49.7513 19.6222C49.8572 19.781 50.069 19.8339 50.2278 19.8339C50.3337 19.8339 50.4395 19.781 50.5454 19.728C50.6513 19.6751 50.7042 19.5692 50.7572 19.5163L51.1807 19.728C50.916 20.0457 50.5984 20.2574 50.2278 20.2574Z" fill="#231F20"/>
<path d="M54.9393 20.2043H54.4099L54.2511 19.8337H53.2982L53.1394 20.2043H52.61L53.457 17.9809H54.0393L54.9393 20.2043ZM54.1452 19.4102L53.7746 18.4573L53.4041 19.4102H54.1452Z" fill="#231F20"/>
<path d="M56.4745 20.2574V19.8339C56.5803 19.8339 56.6862 19.781 56.7392 19.6751C56.7921 19.5692 56.845 19.4104 56.898 19.0928L57.0038 17.9281H58.592V20.1515H58.1156V18.4046H57.4274L57.3215 19.1457C57.2685 19.3575 57.2685 19.5692 57.2156 19.728C57.1627 19.8869 57.1097 19.9927 57.0038 20.0457C56.898 20.0986 56.845 20.1515 56.7392 20.2045C56.7392 20.2045 56.6333 20.2574 56.4745 20.2574Z" fill="#231F20"/>
<path d="M61.0269 20.2043V18.4044H60.3917V17.9809H62.1916V18.4044H61.5563V20.2043H61.0269Z" fill="#231F20"/>
<path d="M64.4156 20.2043H63.9392V17.9809H64.4156V19.4102L65.4214 17.9809H65.8979V20.2043H65.4214V18.722L64.4156 20.2043Z" fill="#231F20"/>
<path d="M69.868 20.2043H69.3916V19.2514H68.3328V20.2043H67.8564V17.9809H68.3328V18.8808H69.3916V17.9809H69.868V20.2043Z" fill="#231F20"/>
<path d="M72.2494 20.2043H71.773V17.9809H73.3611V18.4044H72.2494V20.2043Z" fill="#231F20"/>
<path d="M74.9501 21V20.6294H75.2148C75.2677 20.6294 75.3206 20.5765 75.3736 20.5236C75.4265 20.4706 75.4265 20.4177 75.4265 20.3118V19.5707C75.4265 19.3589 75.4794 19.253 75.6383 19.2001C75.5324 19.1472 75.4265 19.0413 75.4265 18.8295V18.0884C75.4265 17.9825 75.4265 17.9296 75.3736 17.8766C75.3206 17.8237 75.2677 17.7707 75.2148 17.7707H74.9501V17.4002H75.2148C75.3736 17.4002 75.5324 17.4531 75.6383 17.559C75.7441 17.6649 75.85 17.8237 75.85 18.0354V18.7236C75.85 18.7766 75.85 18.8825 75.903 18.9354C75.9559 18.9883 76.0088 18.9883 76.0618 18.9883V19.306C76.0088 19.306 75.9559 19.306 75.903 19.3589C75.85 19.4118 75.85 19.4648 75.85 19.5707V20.2589C75.85 20.4706 75.7971 20.6294 75.6383 20.7353C75.4794 20.8412 75.3736 20.8941 75.2148 20.8941H74.9501V21Z" fill="#231F20"/>
</svg>
