<svg xmlns="http://www.w3.org/2000/svg" width="24" height="24" viewBox="0 0 24 24" fill="none"><rect width="24" height="24" fill="none"/>
<path d="M22 12C22 10.982 21.8479 9.99955 21.5652 9.07416C20.9891 7.18845 19.8707 5.53947 18.3917 4.309C16.6585 2.86707 14.4303 2 12 2C6.47715 2 2 6.47715 2 12C2 12.3799 2.02118 12.7549 2.06244 13.1238C2.29292 15.1848 3.14983 17.0565 4.43837 18.5441C6.27178 20.6608 8.97923 22 12 22C17.5228 22 22 17.5228 22 12Z" fill="black"/>
<path d="M22 12C22 10.982 21.8479 9.99955 21.5652 9.07416C20.9891 7.18845 19.8707 5.53947 18.3917 4.309C16.6585 2.86707 14.4303 2 12 2C6.47853 2 2 6.47849 2 12C2 12.3799 2.02118 12.7549 2.06244 13.1238C2.29292 15.1848 3.14983 17.0565 4.43837 18.5441C6.27178 20.6608 8.97923 22 12 22C17.5241 22 22 17.5215 22 12Z" fill="#7F5FFF"/>
<path d="M17.6408 15.6431C17.3398 15.5655 16.9913 16.3426 16.8911 16.6361C16.8011 16.9069 16.6228 17.6791 16.8911 17.7767C17.2171 17.8944 17.6733 17.0421 17.7714 16.7111C17.8466 16.4528 17.9016 15.7107 17.6413 15.6456" fill="#FEE14A"/>
<path fill-rule="evenodd" clip-rule="evenodd" d="M21.5652 9.07416C20.9891 7.18845 19.8707 5.53947 18.3917 4.309C16.5444 3.43645 14.3566 2.9503 12.2777 3.38904C11.4941 3.55456 11.3585 3.88275 11.21 4.24217C11.1577 4.36876 11.1038 4.49923 11.0194 4.62783C10.7637 5.01751 10.2207 5.27655 9.78253 5.48561C9.45103 5.64377 9.17949 5.77332 9.13766 5.90919C8.99996 6.36284 9.65793 7.14047 10.0339 7.28067C10.3634 7.40204 10.6698 7.1619 11.0027 6.90102C11.2755 6.68724 11.5661 6.45953 11.9016 6.40541C12.6412 6.28523 15.3922 6.53659 15.8509 7.26565C16.5334 8.02526 16.4553 9.25407 16.0466 9.42479C15.8321 9.51446 15.48 9.31708 15.095 9.1012C14.693 8.87583 14.2551 8.6303 13.9001 8.67019C13.7382 8.68885 13.5126 8.78577 13.2718 8.88923C12.931 9.03568 12.5596 9.19524 12.2952 9.16443C12.0696 9.13825 11.8896 8.84741 11.712 8.56052C11.5837 8.35329 11.4567 8.14813 11.3148 8.04629C11.0064 7.82546 9.26136 8.20651 8.81219 8.40981C8.26539 8.65567 7.02459 10.4132 6.99154 11.0451C6.95149 11.7797 8.44816 13.2619 9.05254 13.3795C9.34612 13.4363 9.74438 13.3428 10.1269 13.2531C10.5709 13.1489 10.9936 13.0497 11.2066 13.1963C11.389 13.3227 11.5781 14.2252 11.8007 15.288C12.1566 16.9864 12.5982 19.0942 13.2351 19.0988C13.8921 19.1038 15.6871 16.6518 15.9681 16.1751C16.215 15.7535 16.2122 15.175 16.21 14.7115C16.2086 14.4362 16.2075 14.2013 16.259 14.064C16.337 13.8557 16.6025 13.6176 16.874 13.374C17.2036 13.0785 17.542 12.7749 17.5654 12.5068C17.5835 12.3086 17.2934 11.9424 17.0035 11.5764C16.6519 11.1325 16.3006 10.6889 16.4999 10.5459C16.6278 10.4546 17.004 10.55 17.427 10.6572C17.9574 10.7916 18.5615 10.9447 18.8417 10.7717C19.0678 10.6323 19.1794 10.197 19.3147 9.66981C19.4368 9.19389 19.5781 8.64309 19.8401 8.16746C19.9449 7.97719 20.1446 7.85651 20.3619 7.85651C20.7353 7.85651 21.1365 8.03508 21.5652 9.07416Z" fill="#FEE14A"/>
<path fill-rule="evenodd" clip-rule="evenodd" d="M4.43837 18.5441C4.02401 17.6502 4.23302 16.947 4.42066 16.3158C4.55907 15.8502 4.68585 15.4236 4.54224 14.9886C4.40693 14.5792 3.98159 14.4361 3.51406 14.2787C2.94202 14.0862 2.30682 13.8724 2.06244 13.1238C2.29292 15.1848 3.14983 17.0565 4.43837 18.5441Z" fill="#FEE14A"/>
</svg>
