<svg xmlns="http://www.w3.org/2000/svg" width="120" height="24" viewBox="0 0 120 24" fill="none"><rect width="120" height="24" fill="none"/>
<path d="M25.4241 12.0306V12.0061C25.4241 9.52358 27.3347 7.57649 29.9147 7.57649C31.655 7.57649 32.7745 8.30646 33.5291 9.35329L31.7523 10.7283C31.2655 10.12 30.7058 9.73037 29.8904 9.73037C28.6977 9.73037 27.858 10.7405 27.858 11.9817V12.0061C27.858 13.284 28.6977 14.2819 29.8904 14.2819C30.7788 14.2819 31.302 13.8682 31.8131 13.2477L33.5899 14.5132C32.7867 15.6206 31.7037 16.4361 29.8173 16.4361C27.3834 16.4361 25.4241 14.5741 25.4241 12.0306Z" fill="white"/>
<path d="M35.0874 7.74666H37.4483V10.9352H40.4784V7.74666H42.8395V16.2656H40.4784V13.0286H37.4483V16.2656H35.0874V7.74666Z" fill="white"/>
<path d="M45.0792 7.74666H51.9307V9.75478H47.4158V11.0449H51.5047V12.9067H47.4158V14.2575H51.9915V16.2656H45.0792V7.74666Z" fill="white"/>
<path d="M53.1482 12.0306V12.0061C53.1482 9.52358 55.0588 7.57649 57.6388 7.57649C59.3791 7.57649 60.4985 8.30646 61.2532 9.35329L59.4764 10.7283C58.9897 10.12 58.4299 9.73037 57.6145 9.73037C56.4218 9.73037 55.5821 10.7405 55.5821 11.9817V12.0061C55.5821 13.284 56.4218 14.2819 57.6145 14.2819C58.5029 14.2819 59.0262 13.8682 59.5372 13.2477L61.314 14.5132C60.5109 15.6206 59.4278 16.4361 57.5415 16.4361C55.1076 16.4361 53.1482 14.5741 53.1482 12.0306Z" fill="white"/>
<path d="M62.5682 7.74666H64.9289V11.2031L67.8619 7.74666H70.6609L67.4359 11.41L70.7704 16.2656H67.9349L65.7932 13.1016L64.9289 14.0628V16.2656H62.5682V7.74666Z" fill="white"/>
<path d="M77.6835 12.0306V12.0061C77.6835 10.7772 76.795 9.70619 75.4929 9.70619C74.2028 9.70619 73.3389 10.7527 73.3389 11.9817V12.0061C73.3389 13.2354 74.2271 14.3064 75.5172 14.3064C76.8193 14.3064 77.6835 13.2596 77.6835 12.0306ZM70.9171 12.0306V12.0061C70.9171 9.56019 72.8885 7.57649 75.5172 7.57649C78.1459 7.57649 80.093 9.53567 80.093 11.9817V12.0061C80.093 14.4524 78.1214 16.4361 75.4929 16.4361C72.8642 16.4361 70.9171 14.4766 70.9171 12.0306Z" fill="white"/>
<path d="M81.5662 7.74666H88.3811V9.81557H83.9271V11.264H87.9552V13.2231H83.9271V16.2656H81.5662V7.74666Z" fill="white"/>
<path d="M89.9394 7.74666H96.7543V9.81557H92.3003V11.264H96.3284V13.2231H92.3003V16.2656H89.9394V7.74666Z" fill="white"/>
<path d="M98.3613 7.74666H100.734V16.2656H98.3613V7.74666Z" fill="white"/>
<path d="M102 12.0306V12.0061C102 9.52358 103.911 7.57649 106.491 7.57649C108.231 7.57649 109.351 8.30646 110.105 9.35329L108.329 10.7283C107.842 10.12 107.282 9.73037 106.467 9.73037C105.274 9.73037 104.434 10.7405 104.434 11.9817V12.0061C104.434 13.284 105.274 14.2819 106.467 14.2819C107.355 14.2819 107.878 13.8682 108.389 13.2477L110.166 14.5132C109.363 15.6206 108.28 16.4361 106.394 16.4361C103.96 16.4361 102 14.5741 102 12.0306Z" fill="white"/>
<path d="M111.238 7.74666H118.089V9.75478H113.574V11.0449H117.663V12.9067H113.574V14.2575H118.15V16.2656H111.238V7.74666Z" fill="white"/>
<path d="M10.9314 4.91453L4.54433 8.48371L2 6.99087L10.9314 2L19.863 6.99087L17.3185 8.48371L10.9314 4.91453Z" fill="url(#paint0_linear_8043_722)"/>
<path d="M10.9314 9.57437L13.4498 10.93L15.9941 9.40978L10.9314 6.68449L6.05658 9.30877L8.60095 10.8289L10.9314 9.57437Z" fill="url(#paint1_linear_8043_722)"/>
<path d="M17.3185 8.48371L17.3186 15.5273L10.9315 19.0876V22L19.863 17.0221L19.863 6.99087L17.3185 8.48371Z" fill="url(#paint2_linear_8043_722)"/>
<path d="M13.45 13.0751L10.9315 14.4275V17.3152L15.9943 14.5971L13.45 13.0751Z" fill="url(#paint3_linear_8043_722)"/>
<path d="M10.9315 19.0876L4.54433 15.5273V8.48371L2 6.99087V17.0221L10.9315 22V19.0876Z" fill="url(#paint4_linear_8043_722)"/>
<path d="M10.9315 14.4275L8.60095 13.1761V10.8289L6.05658 9.30877V14.6978L10.9315 17.3152V14.4275Z" fill="url(#paint5_linear_8043_722)"/>
<defs>
<linearGradient id="paint0_linear_8043_722" x1="60.075" y1="22" x2="60.075" y2="2" gradientUnits="userSpaceOnUse">
<stop stop-color="#2FBBEA"/>
<stop offset="1" stop-color="#2EA0E0"/>
</linearGradient>
<linearGradient id="paint1_linear_8043_722" x1="60.075" y1="22" x2="60.075" y2="2" gradientUnits="userSpaceOnUse">
<stop stop-color="#2EBBEA"/>
<stop offset="1" stop-color="#2D9BDD"/>
</linearGradient>
<linearGradient id="paint2_linear_8043_722" x1="60.075" y1="22" x2="60.075" y2="2" gradientUnits="userSpaceOnUse">
<stop stop-color="#2356AE"/>
<stop offset="1" stop-color="#1F8FD6"/>
</linearGradient>
<linearGradient id="paint3_linear_8043_722" x1="60.075" y1="22" x2="60.075" y2="7.21311" gradientUnits="userSpaceOnUse">
<stop stop-color="#1C5FB1"/>
<stop offset="1" stop-color="#2253AB"/>
</linearGradient>
<linearGradient id="paint4_linear_8043_722" x1="60.075" y1="22" x2="60.075" y2="2" gradientUnits="userSpaceOnUse">
<stop stop-color="#293F91"/>
<stop offset="1" stop-color="#1285D1"/>
</linearGradient>
<linearGradient id="paint5_linear_8043_722" x1="8.49402" y1="9.30876" x2="8.49402" y2="16.8638" gradientUnits="userSpaceOnUse">
<stop stop-color="#1386D2"/>
<stop offset="1" stop-color="#284193"/>
</linearGradient>
</defs>
</svg>
