<svg xmlns="http://www.w3.org/2000/svg" width="24" height="24" viewBox="0 0 24 24" fill="none"><rect width="24" height="24" fill="none"/>
<path fill-rule="evenodd" clip-rule="evenodd" d="M7.2634 20.8799L8.08754 21.6441C8.61199 22.1236 9.42113 22.1236 9.93059 21.6141C10.4251 21.1196 10.9196 20.6102 11.3391 20.0558C11.7737 19.5163 12.0733 18.842 12.2681 18.1977C12.433 17.7182 12.403 17.1488 12.358 16.6543C12.3131 16.2198 12.1183 15.7253 11.9085 15.3507C11.459 14.4966 10.7248 13.7174 10.0055 13.0432C9.00158 12.1141 7.98265 11.3799 7.44322 10.0463C7.27839 9.6717 7.15851 9.16224 7.15851 8.75767C7.14353 8.27817 7.24842 7.84363 7.42823 7.3941C7.80284 6.43511 8.41719 5.71587 9.12144 5.08653C9.70583 4.56208 9.70583 3.66303 9.13643 3.1236L8.34227 2.37439C7.84779 1.90988 7.06861 1.89489 6.55914 2.32943C6.22949 2.61414 5.91483 2.89884 5.61514 3.22849C4.65615 4.30735 3.89195 5.85073 4.16167 7.34915C4.3265 8.29315 4.70111 9.20719 5.30047 9.98637C5.92981 10.8405 6.81388 11.4548 7.59306 12.1891C8.49211 13.0432 9.45111 14.182 9.37618 15.4856C9.33123 16.0849 9.12145 16.5944 8.77681 17.1039C8.32729 17.7931 7.78786 18.3775 7.23344 18.9319C6.69401 19.4864 6.70899 20.3554 7.2634 20.8799Z" fill="#EF3B39"/>
<path fill-rule="evenodd" clip-rule="evenodd" d="M10.9946 20.8805L11.8338 21.6447C12.3582 22.1242 13.1673 22.1092 13.6768 21.5997C14.1713 21.1053 14.6658 20.5958 15.1003 20.0564C15.5049 19.5169 15.8345 18.8426 16.0293 18.1983C16.1642 17.7188 16.1642 17.1494 16.1192 16.6549C16.0743 16.2204 15.8795 15.7259 15.6697 15.3513C15.2202 14.4972 14.456 13.718 13.7667 13.0437C12.7478 12.1147 11.7438 11.3805 11.1744 10.0469C11.0246 9.67229 10.9197 9.16283 10.8897 8.75826C10.8748 8.27876 10.9647 7.84422 11.1595 7.39469C11.564 6.4357 12.1634 5.71646 12.8826 5.07214C13.467 4.54769 13.467 3.64864 12.8976 3.10921L12.1035 2.36C11.609 1.89549 10.8448 1.8805 10.3203 2.31504C9.97571 2.59974 9.66104 2.89943 9.36136 3.22908C8.38738 4.29296 7.65315 5.83633 7.8929 7.33476C8.05772 8.27876 8.4623 9.1928 9.0317 9.97198C9.69101 10.8411 10.5451 11.4554 11.3243 12.1896C12.2233 13.0437 13.1823 14.1825 13.1074 15.4862C13.0774 16.0855 12.8527 16.595 12.538 17.1045C12.0735 17.7937 11.5341 18.3781 10.9647 18.9325C10.4252 19.472 10.4402 20.356 10.9946 20.8805Z" fill="#EF3B39"/>
<path fill-rule="evenodd" clip-rule="evenodd" d="M14.7409 20.8799L15.5651 21.6441C16.0895 22.1236 16.9136 22.1086 17.4231 21.6141C17.9176 21.1196 18.4121 20.6102 18.8316 20.0708C19.2662 19.5313 19.5659 18.857 19.7607 18.2127C19.9255 17.7332 19.9105 17.1638 19.8506 16.6693C19.8056 16.2348 19.6108 15.7403 19.401 15.3657C18.9515 14.5116 18.2173 13.7324 17.498 13.0581C16.4941 12.1291 15.4752 11.3949 14.9357 10.0613C14.7709 9.6717 14.651 9.17722 14.651 8.77265C14.6211 8.27817 14.7259 7.84363 14.9058 7.3941C15.2804 6.43511 15.8947 5.71587 16.599 5.08653C17.1834 4.56208 17.1834 3.66303 16.614 3.1236L15.8198 2.37439C15.3253 1.90988 14.5461 1.89489 14.0367 2.32943C13.707 2.61414 13.3924 2.89884 13.0927 3.22849C12.1187 4.29237 11.3545 5.83574 11.6242 7.33416C11.789 8.27817 12.1636 9.19221 12.763 9.97139C13.4223 10.8405 14.2914 11.4548 15.0706 12.1891C15.9696 13.0432 16.9286 14.182 16.8537 15.4856C16.8088 16.0849 16.599 16.5944 16.2543 17.1039C15.8048 17.7931 15.2804 18.3775 14.711 18.9319C14.1715 19.4864 14.1865 20.3554 14.7409 20.8799Z" fill="#EF3B39"/>
</svg>
