<svg xmlns="http://www.w3.org/2000/svg" width="84" height="24" viewBox="0 0 84 24" fill="none"><rect width="84" height="24" fill="none"/>
<path d="M39.7392 10.1566H35.5688V2.20309H39.2343C40.8928 2.20309 41.7925 3.23453 41.7925 4.45608C41.7925 5.00391 41.516 5.56459 41.0916 5.98782C41.7179 6.31794 42.2568 7.06103 42.2568 7.83555C42.2568 9.19838 41.1886 10.1566 39.7392 10.1566ZM37.5392 8.55744H39.4684C39.5732 8.56162 39.6777 8.54425 39.7755 8.50635C39.8733 8.46845 39.9622 8.4109 40.0368 8.33724C40.1114 8.26358 40.1699 8.17538 40.2089 8.07813C40.2479 7.98087 40.2663 7.87665 40.2633 7.77196V7.75914C40.2663 7.65478 40.2479 7.55088 40.2092 7.45391C40.1705 7.35693 40.1122 7.26892 40.0381 7.19535C39.964 7.12173 39.8755 7.06405 39.7782 7.02592C39.6809 6.98783 39.5768 6.97005 39.4723 6.97367H37.5431L37.5392 8.55744ZM37.5392 5.37384H38.9771C39.4916 5.37384 39.7996 5.02125 39.7996 4.58838C39.7996 4.15551 39.5134 3.80291 38.9771 3.80291H37.5392V5.37384Z" fill="#2DBE64"/>
<path d="M17.5752 10.1579L14.7077 6.09123L17.489 2.20309H15.1707L12.9604 5.38926V2.20309H10.9456V10.1579H12.9604V6.89341L15.1797 10.1579H17.5752Z" fill="#2DBE64"/>
<path d="M53.7811 2.2025V8.08932C53.7811 8.35327 53.6641 8.55623 53.4165 8.55623C53.0663 8.55623 53.0515 8.15736 53.0515 7.89342H51.1612C51.1612 9.16953 51.8936 10.3596 53.476 10.3596C54.8517 10.3596 55.7982 9.24213 55.7982 7.86838V3.99115H58.5231V10.1567H60.5379V2.2025H53.7811Z" fill="#2DBE64"/>
<path d="M26.6321 2.20309L23.8431 8.07641C23.3286 9.19452 22.263 10.3583 20.4521 10.3583C18.9087 10.3583 17.4605 9.42317 17.2032 7.36353H19.1569C19.3016 8.1862 19.8881 8.55168 20.5428 8.55168C21.1042 8.55168 21.4817 8.21899 21.5858 8.0289L18.2637 2.20309H20.5788L22.6887 6.05654L24.4289 2.20309H26.6321Z" fill="#2DBE64"/>
<path d="M7.36522 10.1567H2V2.2025H6.86106C8.51891 2.2025 9.41924 3.23459 9.41924 4.45613C9.41924 5.00396 9.14271 5.564 8.7183 5.98788C9.344 6.31799 9.8797 7.06043 9.8797 7.83559C9.8797 9.19847 8.81667 10.1567 7.36522 10.1567ZM3.96848 8.55748H7.09709C7.20155 8.56115 7.30568 8.54337 7.40298 8.50523C7.50033 8.4671 7.58876 8.40947 7.66288 8.33585C7.73701 8.26223 7.79525 8.17422 7.83399 8.07725C7.87272 7.98027 7.89111 7.87637 7.88805 7.77201V7.75919C7.89111 7.65483 7.87272 7.55093 7.83399 7.454C7.79525 7.35702 7.73701 7.26901 7.66288 7.1954C7.58876 7.12178 7.50033 7.0641 7.40298 7.02601C7.30568 6.98788 7.20155 6.97009 7.09709 6.97372H3.96848V8.55748ZM3.96848 5.3739H6.60512C7.11957 5.3739 7.42764 5.02131 7.42764 4.58843C7.42764 4.15556 7.1395 3.80297 6.60512 3.80297H3.96848V5.3739Z" fill="#2DBE64"/>
<path d="M32.4069 7.17136C32.0957 7.90031 31.4307 8.41343 30.5021 8.41343C29.1909 8.41343 28.4018 7.39099 28.4018 6.18164C28.4018 4.9723 29.1909 3.94985 30.5021 3.94985C31.4339 3.94985 32.1014 4.46685 32.4101 5.2003H34.578C34.1728 3.37504 32.6423 2 30.5021 2C27.9909 2 26.3182 3.89205 26.3182 6.17843C26.3182 8.4648 27.9902 10.3569 30.5021 10.3569C32.6391 10.3569 34.1677 8.98568 34.5767 7.16815L32.4069 7.17136Z" fill="#2DBE64"/>
<path d="M48.789 2.20309L45.4263 6.80024V2.20309H43.4115V10.1579H45.2494L48.6134 5.56395V10.1579H50.6282V2.20309H48.789Z" fill="#2DBE64"/>
<path d="M62.811 2.2025V7.58256C62.811 8.08031 62.5263 8.37575 62.0172 8.37575H61.4237V10.1567H62.4919C63.8945 10.1567 64.8262 9.27362 64.8262 7.65195V3.99115H66.8651V10.1567H68.8799V2.2025H62.811Z" fill="#2DBE64"/>
<path d="M81.1676 17.3461L27.5447 22L27.8251 10.1065L80.2884 8.03751L81.1676 17.3461Z" fill="#FA5F0A"/>
<path d="M31.1358 12.7816L35.6106 12.6129L35.7541 16.4885L36.3498 16.4661L36.4165 18.2702L35.556 18.3029L35.5189 17.3008L31.2362 17.462L31.2733 18.4641L30.4127 18.4967L30.346 16.6926L30.6108 16.6824C30.9747 16.6688 31.2692 16.3831 31.2558 16.0225L31.1358 12.7816ZM34.8935 16.5212L34.7796 13.4476L32.0261 13.5517L32.1163 15.9973C32.1251 16.2314 32.086 16.4402 32.0072 16.6307L34.8935 16.5212Z" fill="white"/>
<path d="M40.1617 12.4416L40.3349 17.1193L39.4743 17.1519L39.3307 13.2763L38.2983 13.3151L38.3886 15.7607C38.4196 16.6029 37.8192 17.2145 36.78 17.2533L36.7503 16.4512C37.247 16.4322 37.5408 16.1471 37.528 15.7859L37.4081 12.545L40.1617 12.4416Z" fill="white"/>
<path d="M42.2827 12.3618L43.9109 12.3006L44.0841 16.9783L43.2235 17.0109L43.1494 15.0061L42.8448 15.0177L41.7867 17.0654L40.8136 17.1021L41.9154 14.9864C41.3534 14.8401 40.9389 14.3878 40.9153 13.7524C40.8857 12.9503 41.4882 12.3918 42.2827 12.3618ZM42.3124 13.1639C41.9943 13.1762 41.7645 13.3986 41.7759 13.7197C41.7881 14.0401 42.0341 14.2449 42.3515 14.2333L43.1191 14.2041L43.0793 13.1347L42.3124 13.1639Z" fill="white"/>
<path d="M46.8232 12.1902L49.3188 12.0964L49.3485 12.8984L47.7134 12.9603L47.7532 14.0298L48.3954 14.0053C49.3025 13.9713 49.8794 14.5114 49.9105 15.3536C49.9416 16.1958 49.4061 16.7781 48.499 16.8121L46.9964 16.8686L46.8232 12.1902ZM49.049 15.3788C49.0364 15.0243 48.7889 14.793 48.4244 14.8067L47.7822 14.8311L47.8267 16.0339L48.4689 16.0094C48.833 15.9958 49.0624 15.7393 49.049 15.3788Z" fill="white"/>
<path d="M51.2899 15.5554L54.6479 11.8954L55.5085 11.8628L55.6818 16.5404L54.8211 16.5731L54.6902 13.0444L51.3322 16.7044L50.4716 16.7371L50.2983 12.0594L51.159 12.0267L51.2899 15.5554Z" fill="white"/>
<path d="M58.2156 13.0327C58.2022 12.6722 57.9569 12.4804 57.6787 12.4912C57.3341 12.5042 57.1037 12.7137 57.1163 13.0743L56.2561 13.1069C56.2255 12.292 56.8344 11.713 57.6481 11.6824C58.3768 11.6552 59.0451 12.1715 59.0753 13.0001C59.0916 13.441 58.9118 13.7627 58.4697 14.0001C58.9611 14.2022 59.1859 14.5416 59.2058 15.0695C59.2365 15.9118 58.636 16.5294 57.7298 16.5641C56.8228 16.5982 56.1786 16.0267 56.1474 15.1852L57.0081 15.1458C57.0215 15.5063 57.3364 15.7689 57.7001 15.7553C58.0642 15.7417 58.3587 15.456 58.3452 15.0954C58.3303 14.6879 58.0359 14.4443 57.6522 14.4593L57.0499 14.4818L57.0201 13.6797L57.6295 13.6566C57.9806 13.6437 58.2296 13.394 58.2156 13.0327Z" fill="white"/>
<path d="M59.5915 11.7084L60.4521 11.6757L60.5217 13.5465L64.0102 13.4152L63.941 11.5444L64.8016 11.5118L64.9749 16.1894L64.1143 16.2221L64.0399 14.2173L60.551 14.3486L60.6253 16.3534L59.7647 16.386L59.5915 11.7084Z" fill="white"/>
<path d="M65.385 12.761C65.3539 11.9325 66.0157 11.3658 66.7444 11.3379C67.4922 11.31 68.1749 11.8393 68.2046 12.6549L68.2566 14.0584L66.2967 14.1325L66.3236 14.8672C66.3371 15.2278 66.6162 15.4183 66.894 15.4081C67.1722 15.3979 67.4355 15.187 67.422 14.8258L67.4174 14.6924L68.278 14.6536L68.2827 14.787C68.3128 15.6019 67.6714 16.1816 66.9237 16.2101C66.1954 16.2374 65.4936 15.7224 65.463 14.8938L65.384 12.7617L65.385 12.761ZM66.2679 13.3298L67.3668 13.2883L67.3445 12.6869C67.331 12.3264 67.0523 12.1359 66.7746 12.1461C66.4964 12.1563 66.2326 12.3672 66.2461 12.7284L66.2679 13.3298Z" fill="white"/>
<path d="M70.043 11.2137C70.7908 11.1852 71.4735 11.7151 71.5032 12.5301L71.5079 12.6634L70.6473 12.6961L70.6426 12.5628C70.6292 12.2022 70.35 12.0117 70.0723 12.0219C69.7941 12.0322 69.5307 12.243 69.5433 12.6036L69.6222 14.7417C69.6357 15.1023 69.9148 15.2928 70.1926 15.2825C70.4708 15.2723 70.7341 15.0615 70.7206 14.7002L70.716 14.573L71.5766 14.5336L71.5813 14.6608C71.6119 15.4758 70.9701 16.0553 70.2223 16.084C69.4945 16.1112 68.7923 15.5955 68.7616 14.7669L68.6831 12.6356C68.652 11.8069 69.3138 11.2403 70.0421 11.2124L70.043 11.2137Z" fill="white"/>
<path d="M76.048 15.7718L76.0318 15.3439C75.6467 15.6861 75.1247 15.9065 74.4619 15.9317C72.8401 15.9929 71.9674 14.801 71.9228 13.5847C71.8777 12.3615 72.6469 11.1152 74.2817 11.0533C74.9501 11.0281 75.4805 11.2091 75.8896 11.5146L75.8739 11.0934L76.7345 11.0608L76.9077 15.7385L76.0471 15.7711L76.048 15.7718ZM72.7843 13.5527C72.8131 14.3344 73.3784 15.1031 74.4313 15.0629C75.4837 15.0235 75.9904 14.2146 75.9616 13.4323C75.9328 12.6439 75.3806 11.8819 74.3147 11.9221C73.2493 11.9622 72.7551 12.7642 72.7843 13.5527Z" fill="white"/>
</svg>
