<svg xmlns="http://www.w3.org/2000/svg" width="65" height="24" viewBox="0 0 65 24" fill="none"><rect width="65" height="24" fill="none"/>
<path fill-rule="evenodd" clip-rule="evenodd" d="M24.5128 2.354L16.4056 21.6975H11.1156L7.12624 6.25995C6.88372 5.30881 6.67309 4.96112 5.93636 4.5607C4.73479 3.90829 2.74819 3.29567 1 2.91578L1.11967 2.354H9.63389C10.7189 2.354 11.695 3.0762 11.9413 4.32608L14.0486 15.5201L19.2559 2.354H24.5128ZM45.2394 15.3818C45.2609 10.2764 38.1788 9.99508 38.228 7.71447C38.2425 7.02006 38.9041 6.28269 40.3501 6.09353C41.0682 6.00006 43.0425 5.92806 45.2846 6.95974L46.1625 2.85798C44.9584 2.42062 43.4088 2 41.4816 2C36.5361 2 33.0545 4.62987 33.0251 8.39499C32.9942 11.1796 35.5101 12.7326 37.4067 13.6588C39.3554 14.6071 40.0107 15.2144 40.0021 16.0623C39.9895 17.3608 38.4469 17.9327 37.0085 17.9557C34.492 17.9952 33.0321 17.2765 31.8681 16.734L30.9615 20.9721C32.1302 21.5096 34.2883 21.976 36.5269 22C41.7828 22 45.2221 19.4027 45.2394 15.3818ZM58.2988 21.6975H62.9273L58.8884 2.354H54.6158C53.6561 2.354 52.8461 2.91262 52.4858 3.77314L44.9786 21.6975H50.2326L51.2763 18.8087H57.6959L58.2988 21.6975ZM52.7157 14.844L55.3503 7.58026L56.8664 14.844H52.7157ZM31.6631 2.354L27.5248 21.6975H22.5211L26.6598 2.354H31.6631Z" fill="#000000"/>
</svg>
