<svg xmlns="http://www.w3.org/2000/svg" width="24" height="24" viewBox="0 0 24 24" fill="none"><rect width="24" height="24" fill="none"/>
<path fill-rule="evenodd" clip-rule="evenodd" d="M5.88131 13.6203C6.03191 13.6742 6.19276 13.701 6.36461 13.701C6.5372 13.701 6.69675 13.6742 6.84362 13.6203C6.9894 13.5663 7.12214 13.4822 7.23317 13.3733C7.34314 13.2656 7.42906 13.1324 7.49169 12.9745C7.55431 12.8129 7.58563 12.6258 7.58563 12.4131V12.3184C7.58563 12.1182 7.55431 11.9428 7.49169 11.7906C7.42906 11.6355 7.34314 11.5052 7.23317 11.401C7.12266 11.2927 6.98967 11.2099 6.84362 11.1587C6.68998 11.1037 6.5278 11.0763 6.36461 11.0778C6.19276 11.0778 6.03191 11.1048 5.88131 11.1587C5.73406 11.2126 5.60602 11.2933 5.49605 11.401C5.38683 11.5052 5.3009 11.6355 5.23828 11.7906C5.17565 11.9428 5.14434 12.1182 5.14434 12.3184V12.4131C5.14434 12.6256 5.17565 12.812 5.23828 12.9745C5.3009 13.1324 5.38683 13.2656 5.49605 13.3733C5.6061 13.4813 5.73726 13.5654 5.88131 13.6203ZM6.62313 13.1972C6.54077 13.2294 6.45305 13.2458 6.36461 13.2453C6.2744 13.2453 6.18624 13.2293 6.1018 13.1972C6.01863 13.1645 5.94343 13.1144 5.88131 13.0502C5.81868 12.984 5.76687 12.8981 5.72624 12.7939C5.68896 12.6891 5.67013 12.5624 5.67013 12.4131V12.3184C5.67013 12.1823 5.68896 12.0649 5.72605 11.9669C5.76705 11.8685 5.81868 11.7878 5.88131 11.7244C5.94673 11.661 6.02035 11.6137 6.1018 11.5816C6.18587 11.5502 6.27488 11.5342 6.36461 11.5343C6.45575 11.5343 6.54168 11.5503 6.62313 11.5816C6.70756 11.6137 6.78118 11.661 6.84381 11.7244C6.90923 11.7878 6.96105 11.8685 6.99888 11.9667C7.03896 12.0651 7.06002 12.1823 7.06002 12.3184V12.4131C7.06002 12.5622 7.03896 12.6889 6.99888 12.7939C6.96105 12.8981 6.90942 12.984 6.84381 13.0502C6.78118 13.1163 6.70775 13.1657 6.62313 13.1972ZM2.58227 11.1302H2V13.6494H2.51629V11.9143L3.17367 13.1258H3.54943L4.20607 11.9143V13.6486H4.7231V11.1302H4.16898L3.3759 12.6034L2.58227 11.1302ZM11.7167 13.2022H11.4349V14.2434H11.9139V13.6486H13.6324V14.2434H14.1106V13.2022H13.7822V11.1302H11.9279V11.8429C11.9279 11.9857 11.9236 12.1285 11.9141 12.2711C11.9046 12.4101 11.8898 12.5419 11.8718 12.6651C11.8555 12.7743 11.8319 12.8823 11.8011 12.9883C11.7758 13.0837 11.748 13.1542 11.7167 13.2022ZM13.2661 11.5766V13.2022H12.2425C12.3079 13.0502 12.3553 12.863 12.3828 12.6418C12.4114 12.4168 12.4251 12.1814 12.4251 11.9384V11.5766H13.2661ZM15.5208 13.701C15.3611 13.7023 15.2024 13.6767 15.0511 13.6253C14.9067 13.573 14.7743 13.492 14.6618 13.3873C14.5526 13.2796 14.4644 13.1448 14.399 12.9832C14.3326 12.8215 14.3 12.6315 14.3 12.4131V12.3177C14.3 12.1089 14.3313 11.9268 14.3938 11.771C14.4564 11.6159 14.541 11.4877 14.6472 11.3865C14.7546 11.2831 14.8826 11.2037 15.0228 11.1535C15.1674 11.1019 15.32 11.076 15.4735 11.0771C15.8522 11.0771 16.1419 11.1805 16.3421 11.3865C16.5452 11.5926 16.6472 11.8867 16.6472 12.2703V12.5363H14.8256C14.8286 12.6668 14.8489 12.7773 14.8868 12.869C14.9276 12.9579 14.9792 13.0308 15.0418 13.0882C15.1074 13.1422 15.1809 13.1814 15.2625 13.2069C15.346 13.2321 15.4328 13.2449 15.5201 13.2447C15.6985 13.2447 15.8289 13.2164 15.9104 13.1596C15.9948 13.102 16.0524 13.0278 16.0837 12.9359H16.6C16.5504 13.1857 16.4267 13.3765 16.2293 13.5062C16.0356 13.6365 15.7995 13.701 15.5208 13.701ZM15.4975 11.5343C15.412 11.534 15.3269 11.545 15.2442 11.5671C15.1656 11.5896 15.0951 11.626 15.0331 11.6763C14.9734 11.7244 14.9246 11.7878 14.8875 11.867C14.8497 11.9428 14.8292 12.036 14.8264 12.1473H16.1311C16.1281 12.0301 16.1093 11.9318 16.075 11.8524C16.0437 11.773 16 11.7099 15.9439 11.6623C15.8853 11.6136 15.8159 11.5795 15.7415 11.5628C15.6617 11.5433 15.5797 11.5337 15.4975 11.5343ZM16.8934 13.6967C16.9247 13.6995 16.953 13.701 16.9778 13.701C17.1059 13.701 17.2188 13.6762 17.3163 13.6253C17.4132 13.5713 17.4947 13.4798 17.5603 13.3495C17.6257 13.2198 17.6745 13.0451 17.7058 12.8267C17.7401 12.6045 17.7575 12.3244 17.7575 11.985V11.5766H18.621V13.6486H19.1373V11.1302H17.2595V11.8903C17.2595 12.1475 17.2514 12.3592 17.2362 12.5273C17.2203 12.6956 17.197 12.8302 17.1657 12.9314C17.1372 13.0298 17.1001 13.0997 17.0527 13.1404C17.0048 13.1785 16.9451 13.1986 16.8839 13.1972C16.8602 13.1978 16.8365 13.1963 16.8131 13.1929V13.6872C16.8388 13.693 16.8651 13.6967 16.8934 13.6967ZM20.7797 13.701C20.6151 13.7024 20.4515 13.6751 20.2962 13.6203C20.1522 13.5655 20.021 13.4814 19.9112 13.3733C19.8019 13.2656 19.716 13.1324 19.6534 12.9745C19.5908 12.8129 19.5595 12.6258 19.5595 12.4131V12.3184C19.5595 12.1182 19.5908 11.9428 19.6534 11.7906C19.716 11.6355 19.8019 11.5052 19.9112 11.401C20.0205 11.2934 20.1519 11.2107 20.2962 11.1587C20.4515 11.1039 20.6151 11.0765 20.7797 11.0778C20.9516 11.0778 21.1117 11.1048 21.2587 11.1587C21.4088 11.2126 21.5383 11.2933 21.6483 11.401C21.7575 11.5052 21.8434 11.6355 21.9061 11.7906C21.9687 11.9428 22 12.1182 22 12.3184V12.4131C22 12.6256 21.9687 12.812 21.9061 12.9745C21.8434 13.1324 21.7575 13.2656 21.6483 13.3733C21.5371 13.482 21.4044 13.5661 21.2587 13.6203C21.1117 13.6742 20.9523 13.701 20.7797 13.701ZM20.7797 13.2453C20.8707 13.2453 20.9568 13.2293 21.0382 13.1972C21.1222 13.166 21.1977 13.1156 21.2587 13.0502C21.3243 12.984 21.3762 12.8981 21.4133 12.7939C21.4539 12.6891 21.4744 12.5624 21.4744 12.4131V12.3184C21.4744 12.1823 21.4539 12.0649 21.4133 11.9669C21.376 11.8685 21.3243 11.7878 21.2587 11.7244C21.1965 11.6614 21.1212 11.6126 21.0382 11.5816C20.9557 11.55 20.8681 11.5339 20.7797 11.5343C20.6888 11.5343 20.6014 11.5503 20.5169 11.5816C20.4346 11.614 20.3596 11.6626 20.2962 11.7244C20.2338 11.7878 20.182 11.8685 20.1412 11.9667C20.1041 12.0651 20.0853 12.1823 20.0853 12.3184V12.4131C20.0853 12.5622 20.1041 12.6889 20.1412 12.7939C20.1822 12.8981 20.2336 12.984 20.2962 13.0502C20.3619 13.1163 20.4355 13.1659 20.5169 13.1974C20.6014 13.2293 20.6888 13.2453 20.7797 13.2453Z" fill="#000000"/>
<path d="M9.97926 10.4111H8.01935V10.804H9.97907L9.97926 10.4111Z" fill="#000000"/>
<path d="M9.97926 9.75684H8.01935V10.1498H9.97907L9.97926 9.75684Z" fill="#000000"/>
<path fill-rule="evenodd" clip-rule="evenodd" d="M10.1763 12.2693C10.1763 11.8853 10.074 11.5896 9.87027 11.3829C9.66951 11.1763 9.37903 11.0733 8.9992 11.0733C8.83938 11.0733 8.68891 11.0982 8.54722 11.1492C8.40669 11.1999 8.27837 11.2795 8.17056 11.3829C8.06402 11.4844 7.97915 11.6137 7.91635 11.7693C7.85354 11.9248 7.82214 12.1072 7.82214 12.317V12.4125C7.82214 12.6315 7.85578 12.822 7.92158 12.985C7.98719 13.1463 8.07486 13.2813 8.18514 13.3903C8.29824 13.4948 8.43105 13.5757 8.57582 13.6282C8.72742 13.68 8.88666 13.7059 9.04687 13.7049C9.32632 13.7049 9.56278 13.6393 9.75793 13.5092C9.95513 13.3785 10.0793 13.188 10.1295 12.9368H9.61175C9.58054 13.0288 9.52203 13.1039 9.43735 13.1609C9.35566 13.2179 9.22557 13.2469 9.04668 13.2469C8.9589 13.2469 8.87159 13.2339 8.7876 13.2084C8.70679 13.1835 8.63161 13.143 8.56628 13.0893C8.50011 13.0278 8.44741 12.9532 8.41151 12.8703C8.37356 12.7783 8.353 12.6673 8.3502 12.5366H10.177V12.2693H10.1763ZM8.34945 12.1459C8.35319 12.0343 8.37356 11.9409 8.41076 11.8648C8.44454 11.7909 8.49442 11.7256 8.55675 11.6736C8.61936 11.6233 8.69136 11.5861 8.76853 11.564C8.85022 11.5422 8.9349 11.5304 9.02275 11.5304C9.11098 11.5304 9.19211 11.5399 9.268 11.5597C9.34613 11.5786 9.41324 11.6121 9.47025 11.6597C9.52633 11.7072 9.571 11.7706 9.60166 11.8504C9.63661 11.9298 9.65493 12.0283 9.65867 12.1459H8.34945Z" fill="#000000"/>
</svg>
