<svg xmlns="http://www.w3.org/2000/svg" width="45" height="24" viewBox="0 0 45 24" fill="none"><rect width="45" height="24" fill="none"/>
<path d="M23.7669 7.19541H29.3384V8.38483H25.1218V10.4443H29.0241V11.568H25.1218V13.8696H29.4144V15.059H23.7669V7.19541Z" fill="white"/>
<path d="M31.4837 12.4375C31.4837 12.7388 31.5338 12.9957 31.6357 13.2083C31.7367 13.4217 31.878 13.5957 32.0582 13.7312C32.2384 13.8674 32.4468 13.9659 32.6811 14.0283C32.9162 14.0907 33.1707 14.1219 33.4454 14.1219C33.7419 14.1219 33.9948 14.0874 34.204 14.0176C34.4133 13.9479 34.5838 13.8576 34.7139 13.7476C34.844 13.6376 34.9377 13.5112 34.9958 13.3676C35.0532 13.2247 35.0823 13.0795 35.0823 12.9325C35.0823 12.6313 35.0152 12.4096 34.8819 12.266C34.7478 12.1232 34.6016 12.0222 34.4432 11.9631C34.1685 11.8605 33.8486 11.7628 33.4842 11.6709C33.119 11.579 32.669 11.4599 32.135 11.313C31.8021 11.2252 31.5258 11.1094 31.306 10.9658C31.0854 10.823 30.9101 10.6629 30.78 10.4864C30.65 10.31 30.5579 10.1228 30.5037 9.925C30.4496 9.72715 30.4221 9.52525 30.4221 9.31919C30.4221 8.92273 30.5037 8.57963 30.6661 8.28987C30.8285 8.00012 31.0434 7.75961 31.3108 7.56836C31.5783 7.37796 31.8813 7.23595 32.2214 7.144C32.5607 7.0521 32.9041 7.0061 33.2515 7.0061C33.6563 7.0061 34.0376 7.05945 34.3948 7.16615C34.7527 7.2729 35.0669 7.43211 35.3376 7.64556C35.6082 7.85812 35.8231 8.12082 35.9823 8.43273C36.1415 8.74463 36.2206 9.10664 36.2206 9.51784H34.8658C34.8294 9.01139 34.6598 8.65353 34.356 8.44423C34.0522 8.23492 33.666 8.13067 33.1958 8.13067C33.0366 8.13067 32.8742 8.14707 32.7078 8.17992C32.5413 8.21272 32.3895 8.26772 32.2521 8.34487C32.1148 8.42203 32.0008 8.52628 31.9104 8.65843C31.8199 8.79058 31.7746 8.95559 31.7746 9.15424C31.7746 9.43329 31.8595 9.65165 32.0291 9.80925C32.1988 9.96685 32.421 10.0867 32.6957 10.1672C32.7247 10.1745 32.8387 10.2057 33.0374 10.2607C33.2362 10.3157 33.4583 10.3765 33.7039 10.4421C33.9495 10.5086 34.1895 10.5726 34.4246 10.635C34.6597 10.6974 34.8278 10.7434 34.9288 10.7729C35.1817 10.8542 35.4022 10.9642 35.5897 11.1037C35.7771 11.2432 35.9346 11.4033 36.0615 11.5831C36.1875 11.7628 36.282 11.9557 36.3434 12.1609C36.4048 12.3669 36.4355 12.5721 36.4355 12.7774C36.4355 13.2182 36.3467 13.5941 36.1697 13.906C35.9928 14.2179 35.7593 14.4732 35.4709 14.671C35.1817 14.8697 34.8528 15.0141 34.4844 15.106C34.116 15.198 33.7403 15.2439 33.3573 15.2439C32.9162 15.2439 32.5009 15.189 32.1107 15.079C31.7205 14.969 31.3803 14.7999 31.0919 14.5725C30.8027 14.3452 30.5716 14.0529 30.3979 13.6967C30.2242 13.3405 30.1337 12.9202 30.1272 12.4359H31.4821L31.4837 12.4375Z" fill="white"/>
<path d="M37.6196 7.19541H38.9745V13.8688H42.9091V15.0581H37.6196V7.19541Z" fill="white"/>
<path fill-rule="evenodd" clip-rule="evenodd" d="M20.9245 10.57L16.939 3.76942C16.148 2.42079 14.5927 1.74278 13.086 2.08999L5.48817 3.83919C3.98138 4.1864 2.86563 5.47921 2.72505 7.0429L2.01488 14.9245C1.8743 16.4874 2.7404 17.9657 4.15994 18.5846L11.3182 21.7062C12.7377 22.3251 14.3891 21.9451 15.4071 20.7647L20.5415 14.812C21.5595 13.6317 21.7147 11.9186 20.9245 10.57ZM17.9983 13.1792L16.1473 8.89857H14.954L17.4182 14.5943L16.456 16.9403H17.6388L20.528 9.89423L19.8364 8.71386L19.754 8.89857L17.9983 13.1792ZM9.94328 9.7193C10.4022 9.13489 11.1083 8.75979 11.8993 8.75979L11.8985 8.75894C13.2784 8.75894 14.4007 9.89906 14.4007 11.301V14.6287H13.3091V11.301C13.3091 10.5106 12.6757 9.86791 11.8985 9.86791C11.1213 9.86791 10.4886 10.5114 10.4886 11.301V14.6287H9.39712V11.301C9.39712 10.5106 8.76451 9.86791 7.98729 9.86791C7.21008 9.86791 6.57746 10.5114 6.57746 11.301V14.6287H5.48595V8.89769H6.57746V9.20299C6.97901 8.92394 7.46458 8.75979 7.98729 8.75979C8.77826 8.75979 9.48442 9.13489 9.94328 9.7193Z" fill="white"/>
<path fill-rule="evenodd" clip-rule="evenodd" d="M20.9245 10.57L16.939 3.76942C16.148 2.42079 14.5927 1.74278 13.086 2.08999L5.48817 3.83919C3.98138 4.1864 2.86563 5.47921 2.72505 7.0429L2.01488 14.9245C1.8743 16.4874 2.7404 17.9657 4.15994 18.5846L11.3182 21.7062C12.7377 22.3251 14.3891 21.9451 15.4071 20.7647L20.5415 14.812C21.5595 13.6317 21.7147 11.9186 20.9245 10.57ZM17.9983 13.1792L16.1473 8.89857H14.954L17.4182 14.5943L16.456 16.9403H17.6388L20.528 9.89423L19.8364 8.71386L19.754 8.89857L17.9983 13.1792ZM9.94328 9.7193C10.4022 9.13489 11.1083 8.75979 11.8993 8.75979L11.8985 8.75894C13.2784 8.75894 14.4007 9.89906 14.4007 11.301V14.6287H13.3091V11.301C13.3091 10.5106 12.6757 9.86791 11.8985 9.86791C11.1213 9.86791 10.4886 10.5114 10.4886 11.301V14.6287H9.39712V11.301C9.39712 10.5106 8.76451 9.86791 7.98729 9.86791C7.21008 9.86791 6.57746 10.5114 6.57746 11.301V14.6287H5.48595V8.89769H6.57746V9.20299C6.97901 8.92394 7.46458 8.75979 7.98729 8.75979C8.77826 8.75979 9.48442 9.13489 9.94328 9.7193Z" fill="white"/>
</svg>
