<svg xmlns="http://www.w3.org/2000/svg" width="24" height="24" viewBox="0 0 24 24" fill="none"><rect width="24" height="24" fill="none"/>
<path fill-rule="evenodd" clip-rule="evenodd" d="M21.053 7.70247C20.5574 7.3993 19.9117 7.24773 19.1158 7.24773C18.5822 7.24773 18.0887 7.35057 17.6349 7.55627C17.1904 7.75337 16.8123 8.02333 16.501 8.36613C16.1899 8.70037 15.914 9.08173 15.674 9.51023C15.4428 9.93877 15.2606 10.393 15.1271 10.8729C15.0437 11.1728 14.9726 11.466 14.9135 11.7525C14.8198 11.5849 14.7083 11.4288 14.5782 11.2843C14.1157 10.7615 13.4443 10.5001 12.5636 10.5001C12.0481 10.5001 11.6566 10.6072 11.3897 10.8215H11.3633C11.9236 9.8102 12.7105 9.30457 13.7242 9.30457C14.1424 9.30457 14.5738 9.36883 15.0183 9.4974L15.9657 7.67197C15.3787 7.38913 14.6226 7.24773 13.6975 7.24773C12.8973 7.24773 12.1458 7.43627 11.4431 7.81337C10.7496 8.18187 10.176 8.6618 9.72216 9.25313C9.26866 9.84447 8.91294 10.4915 8.65499 11.1943C8.54019 11.5038 8.45076 11.8115 8.38703 12.1176C8.32863 12.0274 8.26289 11.9421 8.19014 11.8615C7.83442 11.4587 7.41629 11.1973 6.93609 11.0773L9.28401 8.80197L9.56399 7.40073H3.5477L3.16094 9.32903H5.33533C5.73544 9.32903 6.04244 9.3076 6.25568 9.26477V9.29047L6.1222 9.3933C6.03344 9.4533 5.9043 9.55613 5.73544 9.70183C5.56659 9.83897 5.40207 9.98893 5.2419 10.1518L3.81433 11.6044L4.08129 12.6971H4.86849C5.88227 12.6971 6.38916 12.9756 6.38916 13.5327C6.38916 13.8412 6.247 14.1026 5.96236 14.3169C5.67771 14.5225 5.27293 14.6254 4.74835 14.6254C4.38362 14.6254 4.0279 14.5654 3.68118 14.4454C3.33413 14.3254 3.05849 14.1583 2.85394 13.9441L2.3327 14.5668C2.11579 13.7477 2 12.8873 2 12C2 6.47717 6.48193 2 12.011 2C15.9997 2 19.4439 4.33034 21.053 7.70247ZM3.0605 16.4843C4.70631 19.7554 8.09604 22 12.011 22C17.3152 22 21.656 17.8794 22 12.6679C21.9156 12.9935 21.8078 13.325 21.677 13.6625C21.4547 14.2367 21.1791 14.7509 20.8501 15.2051C20.5297 15.6507 20.1119 16.0193 19.596 16.3107C19.0801 16.602 18.5065 16.7477 17.8751 16.7477C16.2477 16.7477 15.2509 16.1035 14.8855 14.8151C14.7287 15.1111 14.5238 15.3953 14.2712 15.6679C13.6131 16.3878 12.7729 16.7477 11.7501 16.7477C10.763 16.7477 9.93573 16.4478 9.26866 15.8479C8.9126 15.5231 8.65165 15.1251 8.4858 14.6538C8.31227 15.0491 8.04932 15.4167 7.6966 15.7566C7.01185 16.4165 6.04678 16.7465 4.80175 16.7465C4.15937 16.7465 3.57907 16.6591 3.0605 16.4843ZM17.9552 14.6909C17.4126 14.6909 17.1413 14.271 17.1413 13.4311C17.1413 13.0626 17.1814 12.6512 17.2615 12.197C17.3415 11.7428 17.4527 11.2971 17.5952 10.86C17.7463 10.4144 17.9462 10.0459 18.1951 9.7545C18.4531 9.45453 18.7334 9.30457 19.0357 9.30457C19.5783 9.30457 19.8496 9.7245 19.8496 10.5644C19.8496 10.9415 19.8096 11.3571 19.7295 11.8113C19.6494 12.2655 19.5336 12.7112 19.3825 13.1483C19.2403 13.5853 19.0401 13.9539 18.7821 14.2538C18.5332 14.5452 18.2575 14.6909 17.9552 14.6909ZM10.6428 13.2768C10.6428 13.6882 10.754 14.0267 10.9762 14.2924C11.2075 14.5581 11.4788 14.6909 11.7901 14.6909C12.1368 14.6909 12.4215 14.5538 12.6437 14.2795C12.8663 14.0053 12.9774 13.6968 12.9774 13.354C12.9774 13.054 12.8796 12.8055 12.6838 12.6084C12.4972 12.4112 12.1992 12.3127 11.7901 12.3127C11.4254 12.3127 11.1407 12.407 10.9362 12.5955C10.7406 12.7755 10.6428 13.0026 10.6428 13.2768Z" fill="#FF780F"/>
</svg>
