<svg xmlns="http://www.w3.org/2000/svg" width="24" height="24" viewBox="0 0 24 24" fill="none"><rect width="24" height="24" fill="none"/>
<path d="M10.2724 21.4919L21.1543 5.01839C21.3733 4.68688 21.4828 4.52113 21.4732 4.38397C21.4648 4.26445 21.4038 4.15442 21.3062 4.08252C21.1941 4 20.9928 4 20.5902 4H15.0688C14.6696 4 14.47 4 14.2892 4.05447C14.1292 4.10268 13.9805 4.1817 13.852 4.2869C13.7067 4.40575 13.5977 4.56981 13.3796 4.89791L6.47338 15.2897C6.21406 15.6799 6.0844 15.875 6.03378 16.0853C5.98904 16.2712 5.98881 16.4648 6.03308 16.6508C6.08318 16.8613 6.21235 17.0567 6.47071 17.4475L9.14441 21.4921C9.33238 21.7764 9.42636 21.9186 9.5456 21.9678C9.64979 22.0108 9.76725 22.0107 9.87143 21.9677C9.99064 21.9185 10.0846 21.7763 10.2724 21.4919Z" fill="white"/>
<path d="M2.83743 5.00734L6.16073 10.1102C6.34619 10.395 6.43892 10.5374 6.5577 10.5873C6.66149 10.6309 6.77891 10.6318 6.88339 10.5898C7.00295 10.5417 7.09795 10.4007 7.28795 10.1188L10.7272 5.01594C10.9498 4.6856 11.0611 4.52043 11.0522 4.3836C11.0444 4.26438 10.9837 4.15443 10.886 4.08253C10.7739 4 10.5714 4 10.1664 4H3.40389C3.00539 4 2.80614 4 2.6945 4.08137C2.5972 4.15229 2.53612 4.26089 2.52706 4.37913C2.51666 4.51479 2.62358 4.67897 2.83743 5.00734Z" fill="white"/>
</svg>
