<svg xmlns="http://www.w3.org/2000/svg" width="24" height="24" viewBox="0 0 24 24" fill="none"><rect width="24" height="24" fill="none"/>
<path d="M5.63995 6.01051C2.00002 6.01051 2 6.01051 2 6.01051L5.47085 17.9904L7.37042 11.7266L5.63995 6.01051Z" fill="#65C3D7"/>
<path d="M12.7406 6.01046C9.11065 6.01046 9.11059 6.01046 9.11059 6.01046L11.1196 17.9903H14.7495L12.7406 6.01046Z" fill="#65C3D7"/>
<path fill-rule="evenodd" clip-rule="evenodd" d="M14.7495 6C18.3894 6 18.3895 6 18.3895 6L14.7495 17.9798H11.1196L14.7495 6Z" fill="#231F20"/>
<path fill-rule="evenodd" clip-rule="evenodd" d="M9.11069 17.9903C12.7506 6.01048 12.7506 6.01046 12.7506 6.01046H9.11059L5.47085 17.9904L9.11069 17.9903Z" fill="#231F20"/>
<path fill-rule="evenodd" clip-rule="evenodd" d="M18.6087 15.0623C20.4486 15.0623 20.4485 15.0623 20.4485 15.0623C20.3093 14.6042 19.9812 14.3552 19.5137 14.3552C19.0563 14.3552 18.7381 14.6042 18.6087 15.0623ZM22 15.5204C22 15.6598 21.9901 15.7992 21.9702 15.9387C18.5889 15.9387 18.5889 15.9387 18.5889 15.9387C18.6883 16.4565 19.0264 16.7353 19.5236 16.7353C19.8916 16.7353 20.1999 16.576 20.3491 16.3071C21.9105 16.3071 21.9105 16.3071 21.9105 16.3071C21.5923 17.3527 20.6673 18 19.5236 18C18.1015 18 17.0474 16.9643 17.0474 15.5702C17.0474 14.176 18.0915 13.1403 19.5236 13.1403C20.9856 13.1303 22 14.176 22 15.5204Z" fill="#231F20"/>
</svg>
