<svg xmlns="http://www.w3.org/2000/svg" width="24" height="24" viewBox="0 0 24 24" fill="none"><rect width="24" height="24" fill="none"/>
<path d="M7.19764 4.37645C7.19764 4.37645 9.55483 2.8759 11.1751 2.20335C11.4444 2.09159 11.6157 2.0219 11.9828 2.00467C12.3246 1.98863 12.4112 2.00467 12.9864 2.20335C16.3891 3.37865 20.6599 6.37571 20.8802 6.73582C21.1004 7.09593 20.9658 9.12001 20.8802 10.4984C20.8503 10.9795 20.4763 11.231 20.1581 11.4918C18.8547 12.56 16.4988 13.7642 16.4988 13.7642V9.41804C16.4988 9.41804 16.4973 9.31436 16.4621 9.25661C16.4302 9.20429 16.3642 9.1658 16.3642 9.1658C16.3642 9.1658 11.9828 6.22669 8.80087 4.7614C8.47321 4.61052 8.2712 4.5663 7.9197 4.48821C7.64106 4.42631 7.19764 4.37645 7.19764 4.37645Z" fill="white"/>
<path d="M20.7531 11.1565C20.7531 11.1565 20.8552 13.9781 20.6191 15.7381C20.5799 16.0306 20.5537 16.216 20.3848 16.5473C20.2276 16.8556 20.1706 16.9236 19.7135 17.3297C17.009 19.7321 12.3155 21.9864 11.898 21.9999C11.4805 22.0134 9.82025 20.8831 8.68662 20.1186C8.29095 19.8518 8.26323 19.3974 8.19975 18.9874C7.93973 17.308 8.08982 14.6357 8.08982 14.6357L11.7994 16.8088C11.7994 16.8088 11.8886 16.8593 11.9555 16.8573C12.0161 16.8554 12.082 16.8166 12.082 16.8166C12.082 16.8166 16.7812 14.4362 19.6229 12.3728C19.9155 12.1604 20.0542 12.005 20.2966 11.7351C20.4888 11.5212 20.7531 11.1565 20.7531 11.1565Z" fill="white"/>
<path d="M8.13552 19.7334C8.13552 19.7334 5.67618 18.4124 4.292 17.3249C4.06199 17.1442 3.91684 17.0285 3.71856 16.7145C3.53397 16.4221 3.50439 16.3381 3.38636 15.7333C2.68817 12.1557 3.11081 6.90431 3.30803 6.53068C3.50524 6.15705 5.30015 5.2633 6.51945 4.6494C6.94502 4.43513 7.34671 4.63796 7.72838 4.78718C9.29179 5.3984 11.4976 6.86642 11.4976 6.86642L7.78803 9.03952C7.78803 9.03952 7.70031 9.09272 7.6686 9.1525C7.63987 9.20666 7.64005 9.28394 7.64005 9.28394C7.64005 9.28394 7.32213 14.6034 7.66247 18.1321C7.69752 18.4955 7.76079 18.6951 7.86988 19.043C7.95637 19.3188 8.13552 19.7334 8.13552 19.7334Z" fill="white"/>
</svg>
