<svg xmlns="http://www.w3.org/2000/svg" width="24" height="24" viewBox="0 0 24 24" fill="none"><rect width="24" height="24" fill="none"/>
<path d="M20.888 12.379V11.7017C20.888 11.5243 20.9202 11.3309 20.9363 11.1535H20.9041C20.8074 11.3309 20.7266 11.4759 20.63 11.6695L20.1945 12.3632V12.3793L20.888 12.379ZM20.888 13.6852V12.895H19.5006V12.4435L20.8229 10.3956H21.5969V12.3629H21.9996V12.895H21.5969V13.6849L20.888 13.6852Z" fill="white"/>
<path d="M17.2431 13.6845V13.2332L17.6459 12.8139C18.1619 12.2656 18.5973 11.8293 18.5973 11.3464C18.5973 11.0884 18.4199 10.8948 18.0813 10.8948C17.8681 10.9056 17.6595 10.9606 17.4686 11.0562L17.3397 10.5563C17.6216 10.4208 17.9299 10.3492 18.2426 10.3466C19.1294 10.3466 19.4035 10.8304 19.4035 11.2981C19.4035 11.9107 18.9359 12.4106 18.4682 12.8461L18.2276 13.0716V13.0878H19.4693V13.6682H17.2431V13.6845Z" fill="white"/>
<path fill-rule="evenodd" clip-rule="evenodd" d="M8.22906 8.28308C4.27847 9.15398 1.52122 11.5082 2.06945 13.5559C2.63334 15.6038 6.27804 16.5711 10.2447 15.7168C14.1953 14.8622 16.9528 12.4917 16.4046 10.444C15.8402 8.39608 12.1796 7.42852 8.22906 8.28308ZM11.1476 10.8308H10.3575V13.6688H9.72872V10.8308H8.93861V10.3309H11.1476V10.8308ZM13.0184 13.6688H13.6149L13.6154 10.3309H12.9217L12.083 12.5724V10.3309H11.4865V13.6688H12.1638L13.0184 11.4435V13.6688ZM8.60007 13.6688H7.97129V10.8308H7.13261V13.6688H6.50383V10.3309H8.60007V13.6688ZM3.93987 11.4114C3.93987 10.573 4.39143 10.2666 5.02022 10.2666C5.66533 10.2666 6.10056 10.5575 6.10056 11.4114V12.6198C6.10056 13.4743 5.66511 13.7484 5.02022 13.7484C4.39143 13.7484 3.93987 13.4582 3.93987 12.6198V11.4114ZM5.45567 12.7014C5.45567 13.0561 5.31044 13.2336 5.03633 13.2336C4.72999 13.2336 4.60088 13.04 4.60088 12.7014V11.3309C4.60088 10.9762 4.7461 10.7665 5.03633 10.7665C5.31044 10.7665 5.45567 10.9762 5.45567 11.3309V12.7014Z" fill="white"/>
</svg>
