<svg xmlns="http://www.w3.org/2000/svg" width="24" height="24" viewBox="0 0 24 24" fill="none"><rect width="24" height="24" fill="none"/>
<path d="M7.36816 1.99976L5.63156 5.58688L3.89497 1.99976H2V7.42189H3.32815V3.54183L5.02584 6.81943H6.23729L7.93498 3.54183V7.42189H9.26591V1.99976H7.36816Z" fill="#FF0032"/>
<path d="M15.9233 1.99976V3.08031H18.2962L18.2906 7.42189H19.6188L19.6243 3.08031H22V1.99976H15.9233Z" fill="#FF0032"/>
<path d="M20.6691 20.0763C20.6357 20.2919 20.5496 20.4715 20.4079 20.6041C20.2745 20.7313 20.0967 20.8197 19.8744 20.8722C19.6549 20.922 19.3354 20.9524 18.9936 20.9524C18.6518 20.9524 18.3295 20.9081 18.0656 20.8169C17.8099 20.7313 17.6071 20.5793 17.4654 20.3665C17.3209 20.1537 17.2487 19.8442 17.2487 19.4517V18.8963C17.2487 18.5011 17.3209 18.1943 17.4654 17.9815C17.6071 17.7687 17.8099 17.6195 18.0656 17.5311C18.3295 17.4426 18.6407 17.3956 18.9936 17.3956C19.3465 17.3956 19.6549 17.426 19.8744 17.4758C20.0967 17.5255 20.2745 17.6167 20.4079 17.7438C20.5468 17.8793 20.6357 18.0561 20.6691 18.2717H22C21.9639 17.824 21.8111 17.4426 21.5443 17.1386C21.2998 16.8595 20.9636 16.655 20.544 16.5306C20.1356 16.409 19.6021 16.3455 18.9964 16.3455C18.3601 16.3455 17.8072 16.4367 17.3515 16.6163C16.8902 16.7987 16.5346 17.1027 16.2873 17.52C16.0511 17.9207 15.9289 18.4541 15.9205 19.1091V19.1699L15.9928 19.1726L15.9205 19.1754V19.2362C15.9289 19.8911 16.0511 20.4245 16.2873 20.8252C16.5318 21.2425 16.8902 21.5465 17.3515 21.7289C17.8044 21.9086 18.3573 21.9998 18.9964 21.9998C19.6327 21.9998 20.1384 21.9362 20.544 21.8146C20.9636 21.6902 21.2998 21.4857 21.5443 21.2066C21.8111 20.9026 21.9639 20.5212 22 20.0735L20.6691 20.0763Z" fill="#FF0032"/>
</svg>
