<svg xmlns="http://www.w3.org/2000/svg" width="111" height="24" viewBox="0 0 111 24" fill="none"><rect width="111" height="24" fill="none"/>
<path d="M11.2244 20.4487C16.3188 20.4487 20.4487 16.3188 20.4487 11.2244C20.4487 6.1299 16.3188 2 11.2244 2C6.1299 2 2 6.1299 2 11.2244C2 13.4021 2.75468 15.4036 4.01678 16.9817L5.36093 13.5635L9.98035 13.5617C10.9165 13.5617 11.6997 13.3245 12.3301 12.85C12.9693 12.3682 13.3596 11.7258 13.5012 10.9228C13.6286 10.2001 13.4642 9.66724 13.008 9.32415C12.553 8.9738 11.8575 8.79859 10.9213 8.79859H10.1643L8.91079 11.9666H5.98886L8.20783 6.32393H11.6946C12.8405 6.32393 13.7982 6.49912 14.5677 6.84951C15.346 7.1926 15.9032 7.68534 16.2393 8.32775C16.5829 8.97011 16.6768 9.73297 16.521 10.6163C16.3241 11.7331 15.8852 12.693 15.2044 13.496C14.5323 14.2917 13.6866 14.9049 12.667 15.3356C11.6474 15.7663 10.5272 15.9816 9.30651 15.9816H7.33622L6.16939 18.9416C7.62121 19.8945 9.35805 20.4487 11.2244 20.4487Z" fill="url(#paint0_linear_8043_699)"/>
<path d="M29.4441 18.7192H27.4992V6.62756H32.3359C33.1702 6.62756 33.903 6.77977 34.5344 7.08417C35.1657 7.3773 35.6562 7.79446 36.0057 8.33559C36.3664 8.86547 36.5468 9.49123 36.5468 10.2127C36.5468 10.923 36.3664 11.5488 36.0057 12.0899C35.6562 12.6311 35.1657 13.0539 34.5344 13.3583C33.903 13.6514 33.1702 13.798 32.3359 13.798H29.2749V12.1406H32.3359C33.0236 12.1406 33.5648 11.9715 33.9594 11.6333C34.3653 11.2838 34.5682 10.8103 34.5682 10.2127C34.5682 9.61524 34.3653 9.14733 33.9594 8.80914C33.5648 8.4596 33.0236 8.28485 32.3359 8.28485H29.4441V18.7192ZM44.8189 18.7192H43.077V17.045L42.9924 16.6898V13.5274C42.9924 12.8961 42.7895 12.4056 42.3836 12.0561C41.9777 11.6953 41.4253 11.5149 40.7263 11.5149C40.2189 11.5149 39.7454 11.6164 39.3057 11.8193C38.8773 12.0223 38.5053 12.3041 38.1896 12.6649L37.1073 11.4811C37.5695 11.0189 38.1107 10.6581 38.7308 10.3988C39.3508 10.1395 40.0385 10.0098 40.794 10.0098C41.5944 10.0098 42.2934 10.1508 42.891 10.4326C43.4998 10.7032 43.9733 11.0978 44.3115 11.6164C44.6498 12.1351 44.8189 12.7551 44.8189 13.4767V18.7192ZM40.0837 18.9897C39.441 18.9897 38.8717 18.8714 38.3756 18.6346C37.8795 18.3979 37.4963 18.0765 37.2256 17.6707C36.9551 17.2648 36.8198 16.7913 36.8198 16.2501C36.8198 15.6638 36.9889 15.1678 37.3271 14.7619C37.6653 14.3447 38.1332 14.0291 38.7308 13.8149C39.3396 13.5894 40.0385 13.4767 40.8278 13.4767H43.1954V14.7788H40.9969C40.3317 14.7788 39.7905 14.8972 39.3734 15.134C38.9675 15.3707 38.7646 15.7202 38.7646 16.1825C38.7646 16.5996 38.9224 16.9322 39.2381 17.1803C39.5538 17.417 39.9653 17.5354 40.4726 17.5354C40.9574 17.5354 41.4028 17.4339 41.8086 17.231C42.2145 17.0281 42.5358 16.7518 42.7726 16.4023C43.0206 16.0416 43.1615 15.6301 43.1954 15.1678L43.8042 15.4553C43.8042 16.143 43.6463 16.7574 43.3307 17.2986C43.015 17.8285 42.5753 18.2457 42.0116 18.5501C41.4479 18.8432 40.8052 18.9897 40.0837 18.9897ZM52.31 10.2804H54.221L50.1116 19.8861C49.8297 20.5738 49.4633 21.098 49.0123 21.4588C48.5614 21.8196 47.9469 22 47.169 22H46.1543V20.4272H47.0844C47.434 20.4272 47.7214 20.3427 47.9469 20.1736C48.1837 20.0157 48.3697 19.7733 48.505 19.4463L48.7925 18.7361L45.1565 10.2804H47.1351L50.0439 17.6707H49.3844L52.31 10.2804Z" fill="white" fill-opacity="0.5"/>
<path d="M57.9798 18.7192H55.0711V6.62756H60.1274C61.0296 6.62756 61.8241 6.79104 62.5119 7.11799C63.1997 7.44494 63.7353 7.90152 64.1187 8.48779C64.5021 9.06281 64.6935 9.73925 64.6935 10.5172C64.6935 11.2838 64.5021 11.9602 64.1187 12.5465C63.7353 13.1328 63.1997 13.5894 62.5119 13.9163C61.8241 14.2433 61.0296 14.4068 60.1274 14.4068H57.8107V11.9884H60.1274C60.6238 11.9884 61.0181 11.8588 61.3116 11.5995C61.6044 11.3289 61.7509 10.9682 61.7509 10.5172C61.7509 10.0662 61.6044 9.71106 61.3116 9.45174C61.0181 9.18117 60.6238 9.04587 60.1274 9.04587H57.9798V18.7192ZM72.4892 15.8781L73.8763 17.5861C73.448 18.0258 72.8784 18.3697 72.1681 18.6177C71.4693 18.8657 70.7135 18.9897 69.9018 18.9897C68.8536 18.9897 67.9404 18.7981 67.1621 18.4148C66.3844 18.0314 65.7756 17.4959 65.3357 16.8082C64.9073 16.1204 64.6935 15.3256 64.6935 14.4237C64.6935 13.5105 64.9016 12.71 65.319 12.0223C65.7364 11.3233 66.2997 10.7821 67.0099 10.3988C67.7317 10.0155 68.532 9.82383 69.4117 9.82383C70.2794 9.82383 71.0519 10.0155 71.7282 10.3988C72.405 10.7708 72.9349 11.2951 73.3182 11.9715C73.7016 12.6367 73.893 13.4146 73.893 14.3053V14.4068H71.1194V14.1024C71.1194 13.6627 71.0519 13.285 70.9165 12.9693C70.7815 12.6536 70.5838 12.4113 70.3249 12.2421C70.0765 12.0617 69.7669 11.9715 69.3944 11.9715C69.0341 11.9715 68.7124 12.0674 68.4305 12.2591C68.1601 12.4395 67.9456 12.7044 67.7882 13.0539C67.6303 13.4034 67.5513 13.8374 67.5513 14.356C67.5513 14.9085 67.6585 15.3707 67.8724 15.7428C68.0869 16.1035 68.3855 16.3741 68.7689 16.5545C69.1523 16.7349 69.5922 16.8251 70.088 16.8251C71.0012 16.8251 71.8014 16.5094 72.4892 15.8781ZM73.893 15.2354H66.4011V13.5781H73.6054L73.893 14.3222V15.2354ZM79.5113 18.9897C78.5415 18.9897 77.6848 18.7981 76.9405 18.4148C76.2078 18.0202 75.633 17.479 75.2156 16.7913C74.8097 16.0923 74.6068 15.2975 74.6068 14.4068C74.6068 13.5049 74.8097 12.71 75.2156 12.0223C75.633 11.3345 76.2078 10.799 76.9405 10.4157C77.6848 10.0211 78.5415 9.82383 79.5113 9.82383C80.481 9.82383 81.3319 10.0211 82.0647 10.4157C82.809 10.799 83.3838 11.3345 83.7896 12.0223C84.207 12.71 84.4157 13.5049 84.4157 14.4068C84.4157 15.2975 84.207 16.0923 83.7896 16.7913C83.3838 17.479 82.809 18.0202 82.0647 18.4148C81.3319 18.7981 80.481 18.9897 79.5113 18.9897ZM79.5113 16.656C79.9056 16.656 80.2498 16.5602 80.5427 16.3685C80.8361 16.1768 81.0615 15.9119 81.2195 15.5737C81.3884 15.2354 81.4732 14.8465 81.4732 14.4068C81.4732 13.9671 81.3884 13.5781 81.2195 13.2399C81.0615 12.9017 80.8361 12.6367 80.5427 12.445C80.2498 12.2534 79.9056 12.1576 79.5113 12.1576C79.1279 12.1576 78.7843 12.2534 78.4799 12.445C78.1864 12.6367 77.9552 12.9017 77.7863 13.2399C77.6283 13.5781 77.5494 13.9671 77.5494 14.4068C77.5494 14.8465 77.6283 15.2354 77.7863 15.5737C77.9552 15.9119 78.1864 16.1768 78.4799 16.3685C78.7843 16.5602 79.1279 16.656 79.5113 16.656ZM88.2271 22H85.3693V10.0944H88.2104V12.8171H87.6183C87.6858 12.2534 87.8553 11.7461 88.1257 11.2951C88.3961 10.8441 88.7627 10.489 89.2251 10.2297C89.6869 9.95908 90.234 9.82383 90.8653 9.82383C91.6321 9.82383 92.3366 10.0155 92.9794 10.3988C93.6332 10.7821 94.1515 11.3177 94.5349 12.0054C94.9298 12.6818 95.127 13.4823 95.127 14.4068C95.127 15.32 94.9298 16.1204 94.5349 16.8082C94.1515 17.4959 93.639 18.0314 92.9961 18.4148C92.3533 18.7981 91.6488 18.9897 90.882 18.9897C90.1493 18.9897 89.5295 18.8319 89.0222 18.5162C88.5258 18.2005 88.1482 17.7778 87.8887 17.2479C87.6299 16.7067 87.5001 16.1148 87.5001 15.4722L88.1424 15.2016C88.1989 15.4947 88.3171 15.7541 88.4975 15.9795C88.6895 16.1938 88.9207 16.3629 89.1911 16.4869C89.473 16.5996 89.7716 16.656 90.0876 16.656C90.5159 16.656 90.882 16.5602 91.1864 16.3685C91.5024 16.1768 91.7445 15.9119 91.914 15.5737C92.0945 15.2242 92.1844 14.8352 92.1844 14.4068C92.1844 13.9671 92.0997 13.5781 91.9307 13.2399C91.7728 12.9017 91.5473 12.6367 91.2545 12.445C90.961 12.2534 90.6059 12.1576 90.189 12.1576C89.8057 12.1576 89.4672 12.2478 89.1744 12.4282C88.8809 12.5972 88.6497 12.8453 88.4808 13.1723C88.3119 13.4879 88.2271 13.8769 88.2271 14.3392V22ZM98.9332 18.7192H96.0754V6.543H98.9332V18.7192ZM107.685 15.8781L109.071 17.5861C108.643 18.0258 108.074 18.3697 107.364 18.6177C106.664 18.8657 105.909 18.9897 105.097 18.9897C104.049 18.9897 103.135 18.7981 102.358 18.4148C101.58 18.0314 100.971 17.4959 100.531 16.8082C100.103 16.1204 99.8885 15.3256 99.8885 14.4237C99.8885 13.5105 100.097 12.71 100.515 12.0223C100.931 11.3233 101.495 10.7821 102.206 10.3988C102.927 10.0155 103.728 9.82383 104.607 9.82383C105.475 9.82383 106.248 10.0155 106.924 10.3988C107.6 10.7708 108.13 11.2951 108.513 11.9715C108.897 12.6367 109.089 13.4146 109.089 14.3053V14.4068H106.315V14.1024C106.315 13.6627 106.248 13.285 106.112 12.9693C105.977 12.6536 105.779 12.4113 105.52 12.2421C105.272 12.0617 104.962 11.9715 104.59 11.9715C104.229 11.9715 103.908 12.0674 103.626 12.2591C103.356 12.4395 103.141 12.7044 102.983 13.0539C102.826 13.4034 102.747 13.8374 102.747 14.356C102.747 14.9085 102.854 15.3707 103.068 15.7428C103.282 16.1035 103.581 16.3741 103.964 16.5545C104.348 16.7349 104.787 16.8251 105.284 16.8251C106.197 16.8251 106.997 16.5094 107.685 15.8781ZM109.089 15.2354H101.597V13.5781H108.801L109.089 14.3222V15.2354Z" fill="white"/>
<defs>
<linearGradient id="paint0_linear_8043_699" x1="2" y1="2" x2="52.6865" y2="66.3951" gradientUnits="userSpaceOnUse">
<stop stop-color="#42C5F0"/>
<stop offset="1" stop-color="#0080FF"/>
</linearGradient>
</defs>
</svg>
