<svg xmlns="http://www.w3.org/2000/svg" width="91" height="24" viewBox="0 0 91 24" fill="none"><rect width="91" height="24" fill="none"/>
<path d="M13.8642 5.06874L10.7459 18.7332H13.3185L13.8642 16.1322H16.4299L16.9048 18.7332H19.5697L16.5788 5.06874H13.8642ZM14.1478 14.4099L15.1258 9.0306L16.1251 14.4099H14.1478ZM27.3161 12.3758C27.0185 12.0428 26.6358 11.7026 26.168 11.3411L23.8079 9.55506C23.5386 9.34953 23.3401 9.12982 23.2196 8.90302C23.0921 8.66914 23.0283 8.36439 23.0283 7.98166C23.0283 7.59894 23.1488 7.32254 23.3826 7.117C23.6237 6.91146 23.9142 6.80515 24.2544 6.80515C25.2254 6.80515 25.4805 7.59186 25.4805 9.17235V9.32827H27.9115V8.90302C27.9115 7.98875 27.7697 7.21623 27.4933 6.58545C27.2169 5.95467 26.8059 5.4869 26.2673 5.16797C25.7215 4.84904 25.0766 4.69312 24.3111 4.69312C23.2409 4.69312 22.3691 5.01205 21.71 5.64991C21.0509 6.28778 20.7178 7.16662 20.7178 8.28642C20.7178 9.76769 21.3273 10.9584 22.5392 11.8656L24.5946 13.4035C25.0482 13.7295 25.3671 14.0485 25.5656 14.3604C25.764 14.6721 25.8632 15.0407 25.8632 15.4801C25.8632 15.9195 25.7428 16.2739 25.5018 16.5503C25.2608 16.8268 24.9277 16.9614 24.4954 16.9614C23.3755 16.9614 23.0283 16.1464 23.0283 14.5163V13.9847H20.6044V14.5163C20.6044 15.466 20.7461 16.2881 21.0367 16.9684C21.3273 17.6488 21.7667 18.1733 22.3478 18.5348C22.9362 18.8962 23.652 19.0805 24.4954 19.0805C25.2962 19.0805 25.9766 18.9317 26.5365 18.634C27.0893 18.3434 27.5359 17.8899 27.8052 17.3299C28.0887 16.7558 28.2305 16.0684 28.2305 15.2534C28.2305 14.5871 28.1524 14.0272 27.9894 13.5665C27.8335 13.1059 27.5996 12.716 27.309 12.3829L27.3161 12.3758ZM36.1896 12.3758C35.8919 12.0428 35.5092 11.7026 35.0414 11.3411L32.6813 9.55506C32.412 9.34953 32.2135 9.12982 32.0931 8.90302C31.9655 8.66914 31.9017 8.36439 31.9017 7.98166C31.9017 7.59894 32.0222 7.32254 32.2561 7.117C32.49 6.91146 32.7876 6.80515 33.1278 6.80515C34.0988 6.80515 34.3539 7.59186 34.3539 9.17235V9.32827H36.7849V8.90302C36.7849 7.98875 36.6431 7.21623 36.3668 6.58545C36.0903 5.95467 35.6793 5.4869 35.1407 5.16797C34.5949 4.84904 33.9429 4.69312 33.1845 4.69312C32.1143 4.69312 31.2497 5.01205 30.5834 5.64991C29.9172 6.28778 29.5912 7.16662 29.5912 8.28642C29.5912 9.76769 30.2007 10.9584 31.4127 11.8656L33.468 13.4035C33.9145 13.7295 34.2406 14.0485 34.439 14.3604C34.6374 14.6721 34.7367 15.0407 34.7367 15.4801C34.7367 15.9195 34.6162 16.2739 34.3752 16.5503C34.1342 16.8268 33.8011 16.9614 33.3688 16.9614C32.2418 16.9614 31.9017 16.1464 31.9017 14.5163V13.9847H29.4707V14.5163C29.4707 15.466 29.6196 16.2881 29.9101 16.9684C30.2007 17.6488 30.6401 18.1733 31.2213 18.5348C31.8096 18.8962 32.5183 19.0805 33.3688 19.0805C34.1625 19.0805 34.85 18.9317 35.4099 18.634C35.9628 18.3434 36.4093 17.8899 36.6786 17.3299C36.9621 16.7558 37.1038 16.0684 37.1038 15.2534C37.1038 14.5871 37.0259 14.0272 36.8629 13.5665C36.6999 13.1059 36.473 12.716 36.1754 12.3829L36.1896 12.3758ZM38.8332 5.06874H41.4485V18.7332H38.8332V5.06874ZM6.68476 12.0356C7.42187 11.9789 8.92433 11.6529 8.92433 9.77478V9.50545L9.05901 5.06874H6.41541L6.28073 9.50545V9.73225C6.23111 10.4977 5.60035 11.1072 4.8208 11.1072C4.75697 11.1072 4.70024 11.093 4.6436 11.0859V5.06874H2.02122L2 18.7332H4.6436V12.7869C5.42315 12.7869 6.28783 13.2476 6.59971 13.8996C6.68476 14.1052 6.7485 14.3391 6.78392 14.6084C6.78392 14.6509 6.79813 14.6935 6.79813 14.736C6.79813 14.7997 6.947 18.7332 6.947 18.7332H9.5835C9.5835 18.7332 9.44882 15.1966 9.44882 15.1541C9.42752 13.5807 8.3574 12.3404 6.69186 12.0356H6.68476ZM50.8038 15.147C50.7825 13.5807 49.7123 12.3404 48.0468 12.0285H48.1247C48.2098 12.0144 48.309 11.9789 48.4153 11.9435C49.6556 11.3695 50.4139 10.115 50.4139 8.66914C50.4139 6.8902 49.2304 5.43729 47.5365 5.13962C47.1821 5.0971 46.8773 5.08292 46.8773 5.08292H43.3762V18.719H46.0056V12.7799C46.7782 12.7799 47.6428 13.2405 47.9617 13.8926C48.0468 14.0981 48.1105 14.332 48.1389 14.5942C48.1389 14.6367 48.1531 14.6792 48.1531 14.7218C48.1531 14.7856 48.1531 14.8281 48.1673 14.8635C48.1673 14.8848 48.1673 14.8919 48.1673 14.9132C48.1673 14.9698 48.2948 18.712 48.2948 18.712H50.9313C50.9313 18.712 50.7967 15.1824 50.7967 15.1399L50.8038 15.147ZM47.2885 10.6324C47.1538 10.7812 46.8561 11.0363 46.3033 11.093H45.9843V6.77681H46.2608C46.8207 6.77681 47.3451 7.08157 47.5648 7.45719C47.8909 8.02419 47.8625 8.34312 47.8625 9.07313C47.8625 9.80312 47.6783 10.2142 47.3026 10.6253L47.2885 10.6324Z" fill="#111820"/>
<path d="M86.5445 5.08542V16.1417C86.5445 16.7584 86.0131 17.2049 85.3889 17.2049C84.7655 17.2049 84.2622 16.7442 84.2411 16.1417V5.08542H81.6117V15.107C81.6117 15.1567 81.6117 15.2133 81.6117 15.2842C81.6117 17.3608 83.3056 19.0406 85.3889 19.0406C85.8851 19.0406 86.3744 18.9413 86.8347 18.757C87.2959 18.5657 87.7071 18.2892 88.0613 17.9419C88.4085 17.5946 88.6917 17.1765 88.8758 16.7229C89.0679 16.2693 89.1669 15.7803 89.1669 15.2842C89.1669 15.185 89.1669 15.107 89.181 15.0432V5.08542H86.5445ZM77.338 12.0311H77.4159C77.5009 12.0169 77.6002 11.9815 77.7065 11.946C78.9471 11.3719 79.7055 10.1175 79.7055 8.67164C79.7055 6.89271 78.5219 5.43979 76.8277 5.14212C76.4733 5.0996 76.1685 5.08542 76.1685 5.08542H72.6673V18.7216H75.2968V12.7823C76.0693 12.7823 76.9339 13.243 77.2458 13.895C77.3308 14.1006 77.3947 14.3345 77.4301 14.5967C77.4301 14.6393 77.4442 14.6818 77.4442 14.7243C77.4442 14.788 77.4442 14.8306 77.4584 14.866C77.4584 14.8873 77.4584 14.8944 77.4584 14.9156C77.4584 14.9724 77.586 18.7145 77.586 18.7145H80.2158C80.2158 18.7145 80.0808 15.185 80.0808 15.1424C80.0598 13.5762 78.9892 12.3359 77.3238 12.024L77.338 12.0311ZM76.5796 10.6349C76.4449 10.7837 76.1473 11.0388 75.5874 11.0955H75.2684V6.77931H75.5448C76.1048 6.77931 76.6292 7.08407 76.8489 7.4597C77.175 8.0267 77.1466 8.34563 77.1466 9.07563C77.1466 9.80563 76.9623 10.2167 76.5866 10.6278L76.5796 10.6349Z" fill="#111820"/>
<path d="M61.6252 4.27636C57.3657 4.27636 53.8999 7.72792 53.8999 11.9733C53.8999 14.8153 55.4662 17.2888 57.7767 18.6213V15.0988C56.1254 13.7664 55.5371 11.8812 55.5229 11.8528C55.4804 11.6969 55.5017 11.5268 55.5868 11.378C55.6647 11.2362 55.7994 11.1299 55.9624 11.0803C56.1183 11.0307 56.2884 11.0519 56.4373 11.1228C56.586 11.2007 56.6924 11.3283 56.749 11.4842C56.7987 11.6401 57.9114 15.1272 61.5473 15.1272H61.6252C65.5091 15.0776 66.4233 11.6614 66.4659 11.5126C66.5084 11.3496 66.6147 11.2078 66.7565 11.1228C66.8982 11.0377 67.0754 11.0094 67.2384 11.0519C67.5786 11.137 67.7842 11.4771 67.6991 11.8173C67.692 11.8457 67.1817 13.7876 65.4383 15.1272V18.6213C67.77 17.2959 69.3505 14.8153 69.3505 11.9591C69.3505 7.71375 65.8847 4.26219 61.6252 4.26219V4.27636ZM59.8534 11.2291C59.7187 11.2291 59.5911 11.2008 59.4706 11.1511C59.3501 11.1015 59.2367 11.0236 59.1446 10.9314C59.0524 10.8393 58.9745 10.7259 58.9249 10.6054C58.8752 10.4849 58.8469 10.3503 58.8469 10.2227C58.8469 10.088 58.8752 9.96046 58.9249 9.83997C58.9745 9.71948 59.0524 9.60609 59.1446 9.51394C59.2367 9.42181 59.3501 9.34385 59.4706 9.29424C59.5911 9.24463 59.7258 9.21627 59.8534 9.21627C59.981 9.21627 60.1155 9.24463 60.2361 9.29424C60.3566 9.34385 60.4699 9.42181 60.5621 9.51394C60.6542 9.60609 60.7322 9.71948 60.7818 9.83997C60.8314 9.96046 60.8598 10.0951 60.8598 10.2227C60.8598 10.3574 60.8314 10.4849 60.7818 10.6054C60.7322 10.7259 60.6542 10.8393 60.5621 10.9314C60.4699 11.0236 60.3566 11.1015 60.2361 11.1511C60.1155 11.2008 59.981 11.2291 59.8534 11.2291ZM63.7089 11.222C63.5742 11.222 63.4466 11.1937 63.3262 11.144C63.2057 11.0944 63.0923 11.0165 63.0002 10.9243C62.908 10.8322 62.8301 10.7188 62.7805 10.5983C62.7308 10.4778 62.7025 10.3432 62.7025 10.2156C62.7025 10.0809 62.7308 9.95336 62.7805 9.83288C62.8301 9.7124 62.908 9.599 63.0002 9.50686C63.0923 9.41473 63.2057 9.33676 63.3262 9.28715C63.4466 9.23754 63.5813 9.20919 63.7089 9.20919C63.9782 9.20919 64.2334 9.3155 64.4176 9.49977C64.609 9.69113 64.7153 9.94628 64.7153 10.2085C64.7153 10.4707 64.609 10.7259 64.4176 10.9172C64.2263 11.1015 63.9711 11.2078 63.7089 11.2078V11.222Z" fill="#FFC627"/>
<path d="M58.5168 15.6019V22.15C58.6232 22.0082 58.7578 21.8948 58.9137 21.8098C59.0696 21.7318 59.2397 21.6893 59.4169 21.6893C59.828 21.6893 60.1966 21.9161 60.395 22.2634H60.6076C60.7068 22.0862 60.8485 21.9445 61.0186 21.8452C61.1887 21.746 61.3872 21.6893 61.5857 21.6893C61.9967 21.6893 62.3653 21.9161 62.5637 22.2634H62.7834C62.8827 22.0862 63.0244 21.9445 63.1945 21.8452C63.3646 21.746 63.5631 21.6893 63.7615 21.6893C64.1513 21.6893 64.4986 21.8877 64.7041 22.2067V15.6232C63.8962 16.0697 62.8968 16.3815 61.6424 16.3957H61.5502C60.3241 16.3957 59.3319 16.0697 58.5239 15.6019H58.5168Z" fill="white"/>
<path d="M59.8564 9.22401C59.7217 9.22401 59.5941 9.25237 59.4736 9.30198C59.3532 9.35159 59.2397 9.42955 59.1476 9.52169C59.0555 9.61382 58.9775 9.72722 58.9279 9.8477C58.8783 9.96819 58.8499 10.1028 58.8499 10.2304C58.8499 10.4997 58.9562 10.7478 59.1476 10.9392C59.339 11.1305 59.5941 11.2297 59.8564 11.2297C60.1186 11.2297 60.3809 11.1234 60.5651 10.9392C60.7494 10.7549 60.8627 10.4997 60.8627 10.2304C60.8627 10.0958 60.8344 9.96819 60.7848 9.8477C60.7352 9.72722 60.6572 9.61382 60.5651 9.52169C60.4729 9.42955 60.3595 9.35159 60.2391 9.30198C60.1186 9.25237 59.9839 9.22401 59.8564 9.22401ZM63.7118 9.21693C63.5773 9.21693 63.4497 9.24527 63.3291 9.29489C63.2087 9.3445 63.0953 9.42246 63.0031 9.5146C62.911 9.60674 62.833 9.72013 62.7834 9.84062C62.7338 9.96111 62.7055 10.0958 62.7055 10.2233C62.7055 10.358 62.7338 10.4856 62.7834 10.6061C62.833 10.7265 62.911 10.8399 63.0031 10.9321C63.0953 11.0242 63.2087 11.1022 63.3291 11.1518C63.4497 11.2014 63.5843 11.2297 63.7118 11.2297C63.9812 11.2297 64.2363 11.1234 64.4206 10.9392C64.6119 10.7478 64.7183 10.4927 64.7112 10.2304C64.7112 9.96111 64.6049 9.71305 64.4135 9.52169C64.2221 9.33742 63.967 9.2311 63.7048 9.2311L63.7118 9.21693Z" fill="#111820"/>
<path d="M61.6258 3.00709C56.6646 3.00709 52.6319 7.03273 52.6319 11.9727C52.6319 15.5447 54.7439 18.6207 57.7773 20.0594V23H58.8404C58.8404 22.7307 59.0247 22.518 59.2728 22.4542C59.3224 22.433 59.372 22.4259 59.4216 22.4259C59.4712 22.4259 59.5208 22.433 59.5705 22.4542C59.8114 22.518 59.9957 22.7307 59.9957 23H61.0092C61.0092 22.7307 61.1935 22.518 61.4415 22.4542C61.4911 22.433 61.5408 22.4259 61.5904 22.4259C61.6399 22.4259 61.6896 22.433 61.7392 22.4542C61.9872 22.518 62.1715 22.7307 62.1715 23H63.1708C63.1708 22.7235 63.3693 22.5109 63.6245 22.4471C63.6386 22.4401 63.6599 22.4401 63.6811 22.433C63.7024 22.433 63.7236 22.4188 63.752 22.4188C63.752 22.4188 63.7591 22.4188 63.7661 22.4188C63.8229 22.4188 63.8725 22.433 63.915 22.4542C64.1489 22.5251 64.3261 22.7378 64.3261 22.9929H65.4459V20.0736C68.5076 18.6419 70.6338 15.5518 70.6338 11.9656C70.6338 7.02565 66.594 3 61.6399 3L61.6258 3.00709ZM64.6947 22.2062C64.5954 22.0503 64.4536 21.9156 64.2906 21.8234C64.1276 21.7313 63.9433 21.6817 63.752 21.6817C63.3409 21.6817 62.9724 21.9085 62.774 22.2558H62.5614C62.4621 22.0857 62.3203 21.9368 62.1502 21.8376C61.9801 21.7384 61.7817 21.6817 61.5833 21.6817C61.1722 21.6817 60.8037 21.9085 60.6052 22.2558H60.3926C60.2934 22.0786 60.1516 21.9368 59.9815 21.8376C59.8114 21.7384 59.613 21.6817 59.4146 21.6817C59.0531 21.6817 58.72 21.8589 58.5145 22.1424V15.5943C59.3224 16.0621 60.3146 16.3881 61.5408 16.3881H61.6328C62.8873 16.3739 63.8867 16.0621 64.6947 15.6156V22.2062ZM65.4317 18.6348V15.1336C67.1682 13.7941 67.6856 11.8521 67.6926 11.8238C67.7139 11.7459 67.7139 11.6608 67.7068 11.5758C67.6926 11.4907 67.6643 11.4128 67.6217 11.3418C67.5792 11.271 67.5225 11.2072 67.4516 11.1576C67.3879 11.108 67.3098 11.0725 67.2248 11.0513C67.0618 11.0088 66.8917 11.0371 66.7429 11.1222C66.6011 11.2072 66.4949 11.3489 66.4524 11.5119C66.4168 11.6537 65.4955 15.0769 61.6116 15.1266H61.5337C57.8978 15.1266 56.7851 11.6395 56.7355 11.4836C56.7142 11.4057 56.6717 11.3277 56.6221 11.2639C56.5725 11.2001 56.5016 11.1434 56.4308 11.108C56.3598 11.0655 56.2748 11.0442 56.1897 11.0371C56.1047 11.03 56.0196 11.0371 55.9417 11.0584C55.8638 11.0796 55.7858 11.1222 55.722 11.1718C55.6582 11.2214 55.6015 11.2922 55.5661 11.3631C55.5236 11.434 55.5023 11.519 55.4952 11.597C55.4881 11.682 55.4952 11.7671 55.5165 11.8451C55.5236 11.8734 56.1189 13.7516 57.7702 15.084V18.6136C55.4597 17.2811 53.8934 14.8076 53.8934 11.9656C53.8934 7.72021 57.3592 4.26864 61.6187 4.26864C65.8782 4.26864 69.344 7.72021 69.344 11.9656C69.344 14.8218 67.7564 17.3024 65.4317 18.6277V18.6348Z" fill="#111820"/>
</svg>
