<svg xmlns="http://www.w3.org/2000/svg" width="24" height="24" viewBox="0 0 24 24" fill="none"><rect width="24" height="24" fill="none"/>
<path fill-rule="evenodd" clip-rule="evenodd" d="M4.49039 2.08957C4.93004 1.9075 5.43604 2.00816 5.77251 2.34459L11.9994 8.57152L18.2264 2.34459C18.5628 2.00816 19.0688 1.9075 19.5084 2.08957C19.9481 2.27169 20.2347 2.70067 20.2347 3.17651V16.1177C20.2347 16.7674 19.708 17.2941 19.0582 17.2941C18.4085 17.2941 17.8818 16.7674 17.8818 16.1177V6.01674L12.8313 11.0672C12.3719 11.5267 11.627 11.5267 11.1676 11.0672L6.1171 6.01674V16.1177C6.1171 16.7674 5.59039 17.2941 4.94063 17.2941C4.29087 17.2941 3.76416 16.7674 3.76416 16.1177V3.17651C3.76416 2.70067 4.05079 2.27169 4.49039 2.08957ZM13.1759 17.7814L15.9686 14.9888C16.428 14.5293 16.428 13.7844 15.9686 13.325C15.5091 12.8656 14.7643 12.8656 14.3048 13.325L11.9994 15.6303L9.69407 13.325C9.23462 12.8656 8.48976 12.8656 8.03031 13.325C7.57086 13.7844 7.57086 14.5293 8.03031 14.9888L10.823 17.7814V20.8235C10.823 21.4733 11.3497 22 11.9994 22C12.6492 22 13.1759 21.4733 13.1759 20.8235V17.7814Z" fill="#B34D00"/>
</svg>
