<svg xmlns="http://www.w3.org/2000/svg" width="24" height="24" viewBox="0 0 24 24" fill="none"><rect width="24" height="24" fill="none"/>
<path d="M18.9738 2.00067C19.0029 1.99685 19.0176 2.00928 19.0178 2.03796C19.0517 2.52875 18.9861 3.0055 18.8213 3.46819C18.6358 3.92707 18.3183 4.26034 17.8689 4.46801C17.5165 4.6257 17.1482 4.68445 16.764 4.64424C16.7177 4.61396 16.6849 4.57216 16.6657 4.51884C16.4393 3.88969 16.5274 3.30902 16.9301 2.7768C17.2105 2.45397 17.5573 2.23141 17.9706 2.10913C18.1394 2.05911 18.3111 2.02296 18.4857 2.00067H18.9738Z" fill="white"/>
<path fill-rule="evenodd" clip-rule="evenodd" d="M19.3873 22.0003C18.0203 22.0003 16.6533 22.0003 15.2863 22.0003C15.2838 21.0942 15.2815 20.1882 15.2796 19.2822C15.2841 18.0734 15.2863 16.8634 15.2863 15.6523C15.2852 14.4424 15.2841 13.2325 15.283 12.0225C15.2817 11.9919 15.2783 11.9625 15.2728 11.9344C15.1694 10.7704 14.6655 9.82483 13.7612 9.09764C12.9276 8.46215 11.9854 8.1865 10.9346 8.27068C9.79552 8.40002 8.87027 8.90954 8.15888 9.7992C7.46058 10.7347 7.20753 11.7808 7.3997 12.9376C7.61807 14.0181 8.17729 14.8711 9.07735 15.4964C9.69127 15.909 10.3691 16.1349 11.1109 16.1743C12.3716 16.1807 13.6324 16.1841 14.8932 16.1844C14.8932 17.6621 14.8932 19.1398 14.8932 20.6175C13.6256 20.6187 12.3581 20.6175 11.0905 20.6141C9.18113 20.5383 7.51137 19.8764 6.0813 18.628C4.56752 17.2583 3.64905 15.558 3.32589 13.5273C3.0692 11.7609 3.32 10.0709 4.07829 8.45708C4.8758 6.82585 6.07219 5.5775 7.66745 4.71203C9.27297 3.88681 10.9653 3.63148 12.7445 3.94607C14.2602 4.24519 15.5796 4.91625 16.703 5.95925C17.9025 7.09549 18.7102 8.46811 19.1263 10.0771C19.2844 10.7046 19.3703 11.3418 19.3839 11.9886C19.3873 13.3872 19.3884 14.7859 19.3873 16.1844C19.8482 16.1844 20.3091 16.1844 20.7701 16.1844C20.7701 17.6621 20.7701 19.1398 20.7701 20.6175C20.3091 20.6175 19.8482 20.6175 19.3873 20.6175C19.3873 21.0784 19.3873 21.5394 19.3873 22.0003Z" fill="white"/>
</svg>
