<svg xmlns="http://www.w3.org/2000/svg" width="24" height="24" viewBox="0 0 24 24" fill="none"><rect width="24" height="24" fill="none"/>
<path d="M5.51642 12.8053H7.09563L6.30643 10.9105L5.51642 12.8053Z" fill="white"/>
<path d="M14.8545 9.97245C14.4613 9.97245 14.1505 10.1608 13.9125 10.5465C13.6753 10.9249 13.5589 11.3909 13.5589 11.9397C13.5589 12.4921 13.6757 12.9569 13.9125 13.3409C14.1505 13.7197 14.4617 13.9093 14.8545 13.9093C15.2509 13.9093 15.5597 13.7197 15.7901 13.3409C16.0297 12.9569 16.1429 12.4921 16.1429 11.9397C16.1429 11.3913 16.0301 10.9249 15.7901 10.5465C15.5597 10.1608 15.2509 9.97245 14.8545 9.97245Z" fill="white"/>
<path d="M12.0001 2C6.47723 2 2 6.47723 2 12.0001C2 17.5229 6.47723 22.0001 12.0001 22.0001C17.5229 22.0001 22.0001 17.5229 22.0001 12.0001C22.0001 6.47723 17.5229 2 12.0001 2ZM8.06604 15.1213L7.51883 13.8089H5.09482L4.54602 15.1213H3.30921L5.84162 9.26684C5.92962 9.09284 6.10562 8.97404 6.30643 8.97404C6.52043 8.97404 6.70563 9.10844 6.78963 9.30164L9.30444 15.1209H8.06604V15.1213ZM11.3585 15.1213H10.2052V10.4665L9.18964 11.0009L8.70644 10.0592L10.2028 9.21204L10.5345 9.03004C10.6097 8.99764 10.6945 8.98004 10.7797 8.98004C11.1013 8.98004 11.3585 9.27364 11.3585 9.63805V15.1213ZM16.6221 14.1733C16.1873 14.7729 15.5813 15.0805 14.8365 15.0805C14.3361 15.0805 13.8993 14.9361 13.5193 14.6409C12.7677 14.0577 12.3969 13.0905 12.3969 11.9961C12.3969 11.4457 12.4837 10.9473 12.6689 10.4897C13.0497 9.56565 13.8325 8.91364 14.8361 8.91364C15.5809 8.91364 16.1693 9.22005 16.6073 9.81885C17.0521 10.4209 17.2701 11.1493 17.2701 11.9961C17.2705 12.8449 17.0681 13.5701 16.6221 14.1733ZM20.3789 9.63485V15.1213H19.2273V10.4645L18.2125 10.9981L17.7309 10.0596L19.2265 9.21244L19.5565 9.03044C19.6301 8.99684 19.7173 8.97804 19.8045 8.97804C20.1245 8.97804 20.3817 9.27404 20.3817 9.63485C20.3813 9.65125 20.3789 9.61965 20.3789 9.63485Z" fill="white"/>
</svg>
