<svg xmlns="http://www.w3.org/2000/svg" width="24" height="24" viewBox="0 0 24 24" fill="none"><rect width="24" height="24" fill="none"/>
<path d="M12 22C17.5228 22 22 17.5229 22 12C22 6.47715 17.5228 2 12 2C6.47717 2 2 6.47715 2 12C2 17.5229 6.47717 22 12 22Z" fill="white"/>
<path fill-rule="evenodd" clip-rule="evenodd" d="M22 12C22 17.5229 17.5228 22 12 22C6.47717 22 2 17.5229 2 12C2 6.47715 6.47717 2 12 2C13.079 2 14.1182 2.17091 15.0918 2.48713L12.8127 9.5H6.15667L5.34333 12H12.0002L10.0502 18H12.8002L14.7502 12H22ZM21.685 9.5H15.5627L17.471 3.62798C19.5263 4.97385 21.056 7.05615 21.685 9.5Z" fill="url(#paint0_linear_4241_49)"/>
<defs>
<linearGradient id="paint0_linear_4241_49" x1="2" y1="10.6667" x2="22" y2="10.6667" gradientUnits="userSpaceOnUse">
<stop stop-color="#FF5C4D"/>
<stop offset="0.4" stop-color="#EB469F"/>
<stop offset="1" stop-color="#8341EF"/>
</linearGradient>
</defs>
</svg>
