<svg xmlns="http://www.w3.org/2000/svg" width="24" height="24" viewBox="0 0 24 24" fill="none"><rect width="24" height="24" fill="none"/>
<path d="M20.5043 6.62488C17.5125 1.99985 11.4044 0.624837 6.6674 3.49986C2.05511 6.37488 0.559237 12.6249 3.55099 17.25L3.80031 17.625L2 22L6.54275 20.375L6.91672 20.625C8.53725 21.5 10.2824 22 12.0276 22C13.8975 22 15.7673 21.5 17.3879 20.5C22.0002 17.5 23.3714 11.3749 20.5043 6.62488ZM17.8865 16.25C17.3879 17 16.7646 17.5 15.892 17.625C15.3934 17.625 14.7701 17.875 12.2769 16.875C10.1578 15.875 8.4126 14.2499 7.16603 12.3749C6.41809 11.4999 6.04412 10.3749 5.91947 9.2499C5.91947 8.2499 6.29344 7.37489 6.91672 6.74988C7.16603 6.49988 7.41534 6.37488 7.66466 6.37488H8.28794C8.53725 6.37488 8.78656 6.37488 8.91122 6.87488C9.16053 7.49989 9.78382 8.9999 9.78382 9.1249C9.90847 9.2499 9.90847 9.49991 9.78382 9.62491C9.90847 9.87491 9.78382 10.1249 9.65916 10.2499C9.5345 10.3749 9.40985 10.6249 9.28519 10.7499C9.03588 10.8749 8.91122 11.1249 9.03588 11.3749C9.5345 12.1249 10.1578 12.8749 10.7811 13.4999C11.529 14.1249 12.2769 14.6249 13.1495 14.9999C13.3989 15.1249 13.6482 15.1249 13.7728 14.8749C13.8975 14.6249 14.5208 13.9999 14.7701 13.7499C15.0194 13.4999 15.144 13.4999 15.3934 13.6249L17.3879 14.6249C17.6372 14.7499 17.8865 14.8749 18.0111 14.9999C18.1358 15.3749 18.1358 15.875 17.8865 16.25Z" fill="#000000"/>
</svg>
