<svg width="24" height="24" fill="none" xmlns="http://www.w3.org/2000/svg"><path fill-rule="evenodd" clip-rule="evenodd" d="M2 18.07h5.959l-.003-4.691-.016-.002c-.013-.002-.015-.006-.019-.03a1.399 1.399 0 0 1-.003-.117v-.088h-.035l-.004-.12-.038-.004v-.04c0-.039 0-.039-.017-.039s-.017 0-.021-.04c-.004-.039-.005-.04-.021-.04h-.018v-.08h-.02c-.02 0-.02 0-.02-.018 0-.016-.003-.018-.019-.018s-.017-.002-.017-.022c0-.02-.001-.021-.02-.021-.02 0-.022-.002-.022-.019 0-.016-.002-.018-.017-.018-.016 0-.018-.002-.018-.022v-.021h-.077v-.022c0-.02 0-.021-.017-.021-.016 0-.018-.002-.018-.018 0-.018 0-.018-.04-.02-.038-.002-.04-.003-.041-.018-.002-.014-.005-.017-.03-.02a.482.482 0 0 0-.055-.004c-.028 0-.028 0-.028-.018v-.019h-.088c-.048 0-.1-.002-.115-.004-.024-.003-.027-.006-.027-.018v-.015H6.88v.037h-.194v.018c0 .016-.002.018-.028.021a.49.49 0 0 1-.056.004c-.028 0-.028 0-.028.018s-.002.019-.02.019c-.02 0-.022.002-.022.018 0 .017 0 .018-.035.022-.034.004-.035.005-.035.022 0 .016-.002.018-.02.018-.02 0-.021.001-.021.018 0 .016-.003.018-.02.02-.016.002-.019.004-.02.022-.002.017-.005.02-.02.02-.014 0-.017.002-.018.02-.002.017-.004.02-.021.022-.017.001-.02.004-.02.02 0 .015-.001.018-.017.018h-.018v.08h-.041v.08h-.018c-.017 0-.017 0-.017.03a.537.537 0 0 1-.004.057c-.003.025-.006.029-.02.03-.015.002-.015.002-.016.062l-.002.06h-.035v.091c0 .05-.002.104-.004.12-.003.024-.005.028-.019.03l-.015.002-.003 2.768H3.88V4.405H2V18.07z" fill="#0C6666"/><path d="M16.877 18.07v-.08h-.018c-.017 0-.017 0-.02-.038 0-.039 0-.039-.02-.04l-.02-.003v-.04c0-.039 0-.039-.016-.039-.017 0-.017 0-.021-.04-.004-.039-.005-.04-.021-.04h-.018v-.04c0-.04 0-.04-.017-.04-.016 0-.017 0-.02-.04-.005-.036-.006-.04-.019-.04-.012 0-.014-.003-.018-.04-.004-.038-.004-.04-.02-.04s-.017 0-.02-.04c-.004-.035-.006-.04-.018-.04-.012 0-.014-.003-.017-.028a.53.53 0 0 1-.004-.058c0-.028 0-.03-.02-.031-.018-.002-.018-.002-.02-.04-.002-.036-.003-.038-.018-.04-.015-.002-.016-.003-.017-.043l-.002-.042h-.04v-.08h-.036v-.08H16.4c-.017 0-.018 0-.022-.04-.004-.038-.004-.04-.02-.04s-.018-.002-.018-.018v-.018h-1.998v-.086h.035v-.08h.042v-.074h.017c.017 0 .018-.002.018-.021 0-.02.002-.021.02-.023.018-.002.018-.002.02-.04.002-.038.002-.039.02-.039.015 0 .017-.002.017-.021 0-.02 0-.022.02-.022h.02v-.08h.018c.015 0 .018-.002.02-.02.001-.017.004-.02.02-.021l.02-.002v-.08h.017c.016 0 .017 0 .02-.036.005-.036.006-.037.022-.037s.017-.002.017-.022c0-.02.002-.021.017-.021.017 0 .017-.001.021-.04.004-.04.005-.04.022-.04.015 0 .017-.002.017-.022 0-.02.001-.021.017-.021.017 0 .017-.001.021-.04s.005-.04.021-.04c.015 0 .017-.002.017-.019 0-.016.002-.018.018-.018h.018v-.08h.04l.004-.04c.003-.036.005-.04.018-.04.011 0 .014-.003.015-.02.002-.017.005-.02.02-.021.019-.002.02-.003.023-.042.004-.036.006-.04.018-.04.012 0 .015-.003.016-.02.002-.017.004-.02.021-.021l.02-.002v-.037c0-.036 0-.036.017-.036.015 0 .017-.003.019-.02.001-.018.004-.02.02-.022l.02-.002v-.08h.02c.02 0 .021 0 .021-.02s.002-.022.018-.022c.017 0 .017 0 .019-.039.002-.038.002-.038.02-.04l.02-.002v-.036c0-.037 0-.037.017-.037s.018-.002.018-.021c0-.02.001-.022.02-.022h.021v-.08h.018c.015 0 .017-.002.019-.02.002-.017.004-.02.02-.022l.02-.002v-.079h.018c.015 0 .017-.002.017-.018 0-.017.002-.018.021-.018h.02v-.04c0-.04 0-.04.018-.04.016 0 .017-.001.02-.04.005-.04.005-.04.022-.04.016 0 .017-.002.017-.022 0-.02.002-.021.018-.021s.017-.001.02-.04c.005-.04.005-.04.022-.04.015 0 .017-.002.017-.022 0-.02.001-.021.017-.021.017 0 .017-.001.021-.037s.005-.037.021-.037.018-.002.018-.021c0-.02.001-.022.017-.022.017 0 .017 0 .021-.04.004-.039.005-.04.021-.04s.017-.002.017-.021c0-.02.002-.022.018-.022.017 0 .017 0 .019-.038.001-.038.002-.039.02-.04.018-.002.018-.003.022-.039.004-.033.005-.036.019-.036.012 0 .014-.003.014-.022 0-.02.001-.021.02-.021h.02l.004-.04c.004-.04.005-.04.021-.04s.018-.002.018-.022c0-.02.001-.021.017-.021s.017-.001.02-.04c.005-.04.005-.04.022-.04.016 0 .017-.002.017-.022 0-.02.002-.021.018-.021h.018v-.074h.075l.004.037c.004.036.005.037.021.037s.018.002.018.021c0 .02.001.022.017.022s.017 0 .02.04c.005.039.005.04.022.04.016 0 .017.002.017.021 0 .02.002.022.017.022.017 0 .018 0 .022.04.004.039.004.04.02.04.017 0 .017 0 .019.038.002.038.002.038.02.04.018.002.02.005.02.02 0 .016.002.018.018.018h.017v.08l.02.001c.016.002.019.005.02.022.002.018.005.02.02.02h.017v.08h.02c.02 0 .021.001.021.022 0 .02.002.021.017.021.017 0 .018.002.021.037.004.033.006.036.02.038.015.002.016.004.018.04.001.038.002.038.02.04.017.002.02.004.021.021.002.017.005.02.018.022.015.002.016.004.017.04.002.038.002.038.02.04.017.002.02.004.022.022.001.016.004.02.015.02.013 0 .015.003.018.04l.005.04h.02c.018 0 .02 0 .02.021 0 .019.001.022.014.022.013 0 .015.002.018.036.004.036.005.037.023.039.018.001.018.002.02.04.002.038.002.038.019.038.016 0 .017.002.017.022 0 .02.002.021.018.021s.017.001.02.04c.005.04.005.04.022.04.016 0 .017.002.017.022 0 .02.002.021.017.021.017 0 .017.001.021.037s.005.037.021.037.018.002.018.021c0 .02.001.022.017.022.017 0 .017 0 .021.04.004.039.005.04.021.04.017 0 .017 0 .017.04v.04h.02c.02 0 .021 0 .021.021 0 .02.002.022.018.022.018 0 .018 0 .018.036v.037l.019.002c.017.001.02.004.021.021.002.018.004.02.02.02h.017v.08h.02c.02 0 .02.001.02.022 0 .02.002.021.018.021s.017.001.02.04c.005.04.005.04.022.04h.017v.08h.021c.019 0 .02.002.02.018 0 .015.003.018.017.02.015.002.016.004.018.04.002.038.002.038.02.04.017.002.02.004.021.022.002.016.005.02.016.02.013 0 .014.003.018.04l.004.04h.02c.019 0 .02 0 .02.021 0 .019.002.022.014.022.013 0 .014.003.018.036.004.036.005.037.023.038.018.002.019.003.02.04.002.039.002.04.02.04.015 0 .017.001.017.02 0 .02.001.022.017.022s.017.001.02.04c.005.04.005.04.022.04.016 0 .017.002.017.022 0 .02.002.021.018.021.017 0 .017.001.021.04s.005.04.021.04.017.002.017.021c0 .02.002.022.017.022.017 0 .017.001.021.037s.005.037.022.037h.017v.08h.02c.02 0 .021 0 .021.021 0 .02.001.022.018.022h.017v.08h.021c.02 0 .02 0 .02.021 0 .02.002.021.018.021s.017.002.02.037c.005.034.006.037.02.038.014.002.017.006.018.022.002.018.004.02.019.02.016 0 .016.002.02.04.004.04.005.04.022.04h.017v.08l.019.001c.017.002.02.005.021.022.002.018.004.02.02.02h.017v.08h.02c.02 0 .02 0 .02.021 0 .02.003.022.015.022.013 0 .015.003.019.036.003.036.004.037.022.039.016.002.019.004.02.022.002.016.005.02.016.02.013 0 .014.003.018.04l.004.04h.04v.08h.018c.015 0 .017.002.017.018s.002.018.017.018c.017 0 .017.001.021.04.004.04.005.04.022.04.015 0 .017.002.017.022 0 .02.002.021.017.021.017 0 .017.001.021.04.004.04.005.04.021.04s.018.002.018.022c0 .02.001.021.017.021s.017.001.02.037c.005.035.006.037.022.037h.017v.079l.02.002c.016.002.019.004.02.022.002.017.004.02.02.02h.017v.08h.02c.02 0 .021 0 .021.021 0 .02.002.022.017.022.017 0 .017 0 .021.04.004.039.005.04.021.04s.018.001.018.02c0 .02.001.022.017.022s.017.002.021.037c.004.036.005.037.021.037h.017v.08l.02.001c.016.002.019.005.02.022.002.018.004.02.02.02h.017v.08h.02c.02 0 .021.001.021.021s.002.022.014.022c.013 0 .015.003.019.036.004.036.004.037.022.039.016.002.02.004.02.022.002.016.005.02.017.02s.014.003.017.04l.005.04h.04v.08h.017c.016 0 .018.001.018.021s.001.021.017.021c.017 0 .017.001.021.04.004.04.005.04.021.04s.017.002.017.022c0 .02.002.021.018.021s.017.002.02.037c.005.036.005.037.022.037.016 0 .017.002.017.022 0 .02.002.021.018.021.015 0 .017.002.017.018 0 .015-.002.018-.022.021-.012.002-1.93.004-4.263.004h-4.242l-.004.04c-.004.039-.005.04-.021.04-.015 0-.018.002-.018.018s-.002.018-.019.02c-.019.002-.019.002-.02.04-.002.038-.003.039-.02.039-.016 0-.017.002-.017.021 0 .02-.001.022-.02.022h-.021v.08H10.9c-.016 0-.017 0-.02.04-.005.038-.005.04-.022.04-.016 0-.017.001-.017.021s-.002.021-.017.021c-.017 0-.017.002-.021.037-.004.036-.005.037-.022.037-.015 0-.017.002-.017.022 0 .02-.001.021-.017.021-.017 0-.017.001-.021.04-.004.04-.005.04-.021.04s-.017.002-.017.022c0 .02-.002.021-.017.021-.017 0-.018.001-.021.037-.005.036-.005.037-.022.037-.015 0-.017.002-.017.021 0 .02-.001.022-.017.022-.017 0-.017 0-.021.04-.004.039-.005.04-.021.04s-.018.002-.018.021c0 .02 0 .022-.017.022-.016 0-.017 0-.021.04-.004.039-.005.04-.021.04-.015 0-.017.002-.017.018s-.002.018-.018.018h-.018v.08h-.02c-.02 0-.02.001-.02.022 0 .02-.002.021-.018.021s-.018.002-.018.019v.018H22l-.004-.028a.43.43 0 0 1-.003-.04c0-.01-.005-.012-.021-.012-.02 0-.02 0-.02-.021 0-.02-.002-.022-.018-.022-.018 0-.018 0-.018-.036v-.037l-.02-.002c-.018-.001-.018-.001-.02-.04-.002-.038-.002-.038-.02-.038-.015 0-.017-.002-.017-.022 0-.02 0-.021-.02-.021h-.021v-.08h-.018c-.015 0-.017-.002-.017-.019 0-.016-.002-.018-.017-.018-.017 0-.017-.001-.021-.04-.005-.039-.005-.04-.022-.04-.015 0-.017-.002-.017-.021 0-.02-.002-.022-.017-.022-.017 0-.018 0-.021-.04-.005-.038-.005-.04-.021-.04-.015 0-.017-.002-.019-.02-.001-.016-.004-.02-.017-.022-.015-.001-.016-.004-.02-.038-.004-.035-.005-.036-.023-.038-.016-.001-.018-.004-.02-.021-.002-.017-.004-.02-.016-.02s-.014-.004-.018-.04c-.004-.039-.004-.04-.022-.042-.016-.001-.019-.004-.02-.021-.002-.017-.005-.02-.016-.02-.013 0-.015-.004-.018-.04-.004-.039-.005-.04-.021-.04s-.017-.002-.02-.04c-.005-.04-.005-.04-.022-.04-.015 0-.017-.002-.017-.019 0-.016-.002-.018-.017-.018-.016 0-.017-.001-.02-.04-.005-.039-.005-.04-.022-.04-.016 0-.017-.002-.017-.021 0-.02-.002-.022-.017-.022-.017 0-.018 0-.021-.04-.005-.039-.005-.04-.022-.04-.016 0-.017-.002-.017-.021 0-.02-.002-.022-.017-.022-.017 0-.017-.001-.021-.037-.004-.035-.005-.037-.021-.037s-.018-.001-.018-.021-.001-.021-.017-.021-.017-.002-.02-.04c-.005-.04-.005-.04-.022-.04-.016 0-.017-.002-.017-.022 0-.02-.002-.021-.017-.021-.017 0-.018-.001-.022-.04-.004-.04-.004-.04-.02-.04-.017 0-.017-.001-.019-.039-.002-.038-.002-.038-.02-.04-.018-.002-.02-.004-.02-.02s-.002-.018-.018-.018h-.018v-.08h-.02c-.02 0-.02 0-.02-.021 0-.02-.002-.022-.018-.022h-.018v-.08h-.02c-.02 0-.021 0-.021-.021 0-.02-.002-.022-.017-.022-.017 0-.018-.001-.022-.037-.004-.035-.004-.037-.02-.037-.017 0-.018-.001-.018-.021s-.002-.022-.017-.022c-.017 0-.017 0-.021-.04-.004-.039-.005-.04-.021-.04s-.018-.001-.018-.021-.001-.021-.017-.021-.017-.002-.02-.037c-.005-.034-.006-.037-.02-.038-.015-.002-.016-.004-.018-.04-.002-.038-.002-.038-.02-.04-.017-.002-.02-.005-.021-.022-.002-.018-.004-.02-.02-.02h-.017v-.08h-.02c-.02 0-.021-.001-.021-.021s-.002-.022-.018-.022h-.017v-.08h-.021c-.02 0-.02 0-.02-.021 0-.02-.002-.022-.018-.022-.018 0-.018 0-.018-.036v-.037l-.02-.002c-.016-.001-.019-.004-.02-.022-.002-.017-.004-.02-.02-.02h-.017v-.08h-.02c-.02 0-.021 0-.021-.021 0-.02-.001-.021-.018-.021-.017 0-.017 0-.017-.037v-.036l-.02-.002c-.019-.002-.019-.002-.02-.04-.002-.039-.002-.04-.02-.04-.015 0-.017 0-.017-.02s-.002-.021-.02-.023c-.018-.002-.018-.002-.02-.04-.002-.038-.002-.039-.019-.039-.015 0-.017-.002-.019-.02-.001-.017-.004-.02-.02-.022l-.02-.002v-.072l-.019-.002c-.017-.002-.02-.004-.021-.022-.002-.016-.004-.02-.015-.02-.013 0-.014-.003-.018-.04-.004-.038-.005-.039-.023-.04-.016-.002-.019-.005-.02-.023-.002-.016-.005-.02-.016-.02-.013 0-.015-.003-.018-.04l-.004-.04h-.02c-.02 0-.02 0-.02-.021 0-.019-.002-.021-.015-.021-.012 0-.014-.004-.018-.037-.004-.035-.004-.037-.022-.038-.019-.002-.019-.003-.02-.04-.003-.039-.003-.04-.02-.04-.016 0-.017 0-.017-.02s-.002-.022-.017-.022c-.017 0-.017-.001-.021-.04-.004-.04-.005-.04-.022-.04-.015 0-.017-.002-.017-.021 0-.02-.001-.022-.017-.022-.017 0-.017-.001-.021-.037-.004-.035-.005-.037-.021-.037s-.018-.002-.018-.021c0-.02-.001-.022-.017-.022s-.017 0-.02-.04c-.005-.039-.005-.04-.022-.04-.016 0-.017-.002-.017-.021 0-.02-.002-.022-.017-.022-.017 0-.018 0-.022-.04-.004-.038-.004-.04-.02-.04-.015 0-.017-.002-.019-.02-.001-.016-.005-.02-.017-.021-.015-.002-.016-.005-.02-.039-.004-.035-.005-.036-.021-.036h-.017v-.08h-.021c-.02 0-.02-.001-.02-.022 0-.02-.002-.021-.018-.021h-.018v-.08h-.02c-.02 0-.021-.002-.021-.018 0-.017-.002-.019-.017-.019-.017 0-.017 0-.021-.04-.004-.037-.005-.04-.02-.041-.013-.002-.016-.005-.018-.022-.001-.017-.004-.02-.018-.02-.016 0-.017-.001-.021-.04s-.005-.04-.021-.04-.018-.002-.018-.021c0-.02-.001-.022-.017-.022s-.017-.001-.02-.036c-.005-.034-.006-.037-.02-.039-.013-.001-.017-.005-.018-.021-.002-.018-.004-.02-.019-.02-.016 0-.016-.002-.02-.04-.004-.04-.005-.04-.022-.04h-.017v-.08l-.019-.001c-.017-.002-.02-.005-.021-.022-.002-.018-.004-.02-.02-.02h-.016v-.08h-.021c-.019 0-.02-.002-.02-.018 0-.017-.003-.019-.018-.019h-.018v-.079l-.02-.002c-.016-.002-.019-.004-.02-.022-.002-.017-.004-.02-.02-.02h-.017v-.08h-.02c-.02 0-.02 0-.02-.021 0-.02-.002-.022-.019-.022s-.017 0-.017-.036v-.037l-.02-.002c-.016-.001-.019-.004-.02-.021-.002-.018-.004-.02-.02-.02h-.017v-.08h-.041v-.08h-.017c-.016 0-.018-.003-.02-.02-.001-.018-.004-.02-.02-.022l-.02-.002v-.08h-.02c-.02 0-.021 0-.021-.017 0-.015-.003-.019-.016-.02-.016-.002-.016-.004-.018-.04-.002-.038-.002-.038-.02-.04-.017-.002-.02-.004-.022-.022-.001-.016-.004-.02-.015-.02-.013 0-.014-.003-.018-.04l-.004-.04h-.02c-.02 0-.02 0-.02-.021 0-.019-.002-.022-.014-.022-.013 0-.015-.003-.019-.036-.004-.036-.004-.037-.022-.039-.017-.001-.02-.004-.02-.022-.002-.016-.005-.02-.017-.02s-.014-.003-.017-.04l-.005-.04h-.04v-.08h-.017c-.017 0-.018 0-.018-.02 0-.021 0-.022-.02-.022h-.021v-.074h-.018c-.016 0-.018-.002-.018-.021 0-.02-.001-.022-.017-.022s-.017-.001-.02-.04c-.005-.039-.005-.04-.022-.04-.016 0-.017-.002-.017-.021 0-.02-.002-.022-.017-.022-.017 0-.018 0-.022-.04-.004-.038-.004-.04-.02-.04-.015 0-.017-.002-.019-.02-.001-.016-.005-.02-.017-.022-.015-.001-.016-.004-.02-.038-.004-.035-.005-.037-.021-.037s-.017-.001-.017-.021-.002-.022-.018-.022-.017 0-.02-.04l-.005-.04h-.04v-.08h-.018c-.015 0-.017-.001-.017-.018 0-.016-.002-.018-.017-.018-.017 0-.017-.001-.021-.04-.004-.04-.005-.04-.022-.04-.015 0-.017-.002-.017-.022 0-.02-.001-.021-.017-.021-.017 0-.017-.001-.021-.04s-.005-.04-.021-.04-.017-.002-.017-.021c0-.02-.002-.022-.018-.022s-.017-.001-.02-.036c-.005-.034-.006-.037-.02-.039-.014-.001-.016-.005-.018-.025-.002-.02-.003-.023-.019-.023s-.017-.001-.02-.037c-.004-.035-.005-.037-.022-.037-.015 0-.017-.001-.017-.021s-.001-.021-.017-.021c-.017 0-.017-.001-.021-.04-.004-.04-.005-.04-.021-.04-.017 0-.017 0-.017-.04v-.04h-.021c-.019 0-.02-.002-.02-.019 0-.016-.003-.018-.018-.018h-.018v-.08l-.02-.001c-.016-.002-.018-.005-.02-.022-.002-.018-.004-.02-.02-.02h-.017v-.08h-.02c-.02 0-.02 0-.02-.021 0-.02-.002-.022-.019-.022s-.017 0-.017-.036v-.037l-.02-.002c-.016-.002-.019-.004-.02-.022-.002-.017-.004-.02-.02-.02h-.017v-.08h-.02c-.02 0-.021 0-.021-.021 0-.02-.002-.022-.017-.022-.017 0-.017 0-.021-.04-.004-.039-.005-.04-.021-.04h-.018v-.08h-.02c-.02 0-.021 0-.021-.018 0-.016-.002-.018-.018-.018h-.017v-.08l-.02-.001c-.016-.002-.019-.005-.02-.022-.002-.018-.005-.02-.02-.02h-.017v-.08h-.02c-.02 0-.021-.001-.021-.021s-.002-.022-.018-.022c-.018 0-.018 0-.018-.036v-.037l-.019-.002c-.017-.002-.02-.004-.02-.022-.002-.016-.005-.02-.017-.02s-.014-.003-.018-.04l-.004-.04h-.02c-.018 0-.02 0-.02-.021 0-.02 0-.022-.017-.022-.018 0-.018 0-.018-.036v-.037l-.038-.003-.002-.042c-.002-.041-.002-.041-.02-.041-.014 0-.017-.002-.017-.018s-.002-.019-.019-.02c-.019-.002-.019-.002-.02-.04l-.002-.04h-.07l-.003.038c-.004.035-.005.037-.022.037-.015 0-.017.002-.017.021 0 .02-.001.022-.017.022s-.017 0-.02.04c-.005.039-.005.04-.022.04-.016 0-.017.001-.017.021s-.002.022-.018.022c-.017 0-.017 0-.019.038-.002.038-.002.038-.02.04-.018.002-.02.004-.02.023 0 .02-.002.021-.017.021-.018 0-.018 0-.02.039-.001.038-.001.038-.02.04-.018.002-.019.003-.023.038-.003.034-.005.037-.018.037-.012 0-.014.003-.014.022 0 .02-.001.021-.02.021h-.02l-.004.04c-.004.04-.004.04-.021.04-.016 0-.018.002-.018.021 0 .02-.001.022-.017.022s-.017.001-.02.037c-.005.033-.006.036-.02.038-.013.001-.017.005-.018.022-.002.017-.004.02-.018.02-.017 0-.017 0-.021.04-.004.036-.005.039-.02.04-.013.002-.016.006-.018.023-.001.017-.004.02-.018.02-.017 0-.017 0-.021.04-.004.038-.005.04-.021.04s-.017.001-.017.021-.002.021-.018.021h-.018v.074h-.041v.08h-.018c-.016 0-.017.002-.017.022 0 .02-.001.021-.02.021h-.02l-.004.04c-.004.037-.006.04-.018.04-.012 0-.014.004-.016.02-.002.017-.004.02-.02.022-.019.002-.02.003-.023.038-.004.034-.006.037-.018.037-.013 0-.015.003-.015.021 0 .02 0 .022-.02.022h-.02v.08h-.018c-.015 0-.018.002-.02.02 0 .017-.004.02-.02.021-.019.002-.019.002-.02.04-.002.037-.003.038-.019.04-.013.002-.016.005-.016.02 0 .017-.002.018-.02.018h-.021v.08h-.017c-.016 0-.018.003-.02.02-.001.018-.004.02-.02.022l-.02.002v.08h-.041v.079h-.017c-.016 0-.018.002-.02.02-.001.017-.004.02-.02.022l-.02.002v.036c0 .037 0 .037-.017.037s-.018.001-.018.021 0 .022-.02.022h-.021v.08h-.018c-.015 0-.017.002-.019.02-.001.017-.004.02-.02.022l-.02.001v.08h-.018c-.015 0-.017.002-.017.018 0 .017-.002.018-.02.018h-.021v.08h-.018c-.016 0-.018.002-.018.022 0 .02 0 .021-.02.021h-.021v.08h-.017c-.017 0-.018.001-.022.04s-.004.04-.02.04c-.015 0-.017.003-.019.02-.001.016-.004.02-.017.022-.015.002-.016.005-.02.038-.004.036-.005.037-.021.037s-.017.002-.017.021c0 .02-.002.022-.018.022s-.017 0-.02.04c-.005.038-.005.04-.022.04-.014 0-.016.002-.018.02-.002.016-.005.02-.018.021-.014.002-.016.005-.02.039-.003.035-.004.036-.02.036s-.018.002-.018.022c0 .02-.001.021-.017.021-.017 0-.017.001-.021.04-.004.04-.005.04-.021.04s-.017.002-.017.022c0 .02-.001.021-.02.021h-.021v.08h-.018c-.016 0-.017.002-.02.037-.005.033-.006.036-.02.038-.013.002-.016.005-.018.022-.002.017-.004.02-.018.02-.017 0-.017.001-.021.04s-.005.04-.021.04-.018.002-.018.021c0 .02-.001.022-.017.022-.017 0-.017 0-.021.04-.004.039-.005.04-.021.04s-.017.002-.017.021c0 .02-.002.022-.017.022-.017 0-.018 0-.022.037-.004.035-.004.036-.02.036s-.018.002-.018.022c0 .02-.001.021-.017.021-.017 0-.017.001-.021.04-.004.04-.005.04-.021.04s-.018.002-.018.022c0 .02-.001.021-.017.021-.017 0-.017 0-.02.039 0 .038 0 .038-.02.04-.017.002-.02.004-.02.02s-.001.018-.017.018h-.018v.08h-.04l-.004.04c-.003.037-.005.04-.018.04-.01 0-.014.003-.015.02-.002.017-.005.02-.02.022-.018.001-.02.003-.023.038-.004.033-.005.037-.018.037-.012 0-.014.003-.016.023s-.003.023-.02.024c-.018.002-.02.004-.023.039-.004.033-.005.036-.018.036-.011 0-.014.004-.015.02-.002.018-.005.02-.02.022-.019.002-.02.003-.023.042-.004.038-.005.04-.022.04-.015 0-.017.001-.017.02 0 .02-.001.022-.017.022-.018 0-.018 0-.02.039v.008c0 .017-.002.025-.006.028-.002.002-.005.003-.01.004h-.004c-.017.002-.02.004-.02.02s-.002.018-.017.018h-.018v.08h-.041v.08h-.018c-.015 0-.017.002-.019.02-.001.017-.004.02-.02.022l-.02.002v.036c0 .037 0 .037-.018.037-.016 0-.017.001-.017.021s-.001.022-.02.022h-.021v.08h-.018c-.015 0-.017.002-.019.02-.002.017-.004.02-.02.021l-.02.002v.08h-.017c-.016 0-.018.002-.02.02-.001.017-.004.02-.02.021l-.02.002v.037c0 .036 0 .036-.017.036s-.018.002-.018.022c0 .02-.001.021-.02.021h-.021v.08h-.018c-.015 0-.017.002-.019.02-.001.017-.004.02-.02.022l-.02.002v.079h-.017c-.017 0-.017.001-.021.037-.004.035-.005.037-.021.037s-.018.002-.018.021c0 .02-.001.022-.017.022-.017 0-.017 0-.021.04-.004.038-.005.04-.021.04s-.017.001-.017.021-.001.021-.02.021h-.021v.074h-.018c-.016 0-.018.002-.018.021 0 .02-.001.022-.019.023-.007.001-.012.002-.015.004-.004.004-.005.013-.006.037-.002.038-.002.038-.019.038-.016 0-.017.002-.017.022 0 .02-.001.021-.021.021h-.02v.08h-.018c-.015 0-.018.002-.02.02 0 .018-.003.02-.02.022l-.02.002v.079h-.016c-.017 0-.018.001-.022.037-.003.035-.004.037-.02.037s-.018.002-.018.021c0 .02-.001.022-.017.022-.017 0-.017 0-.021.04-.004.038-.005.04-.022.04-.015 0-.017.001-.017.021s0 .021-.017.021c-.016 0-.018.003-.018.019 0 .017-.002.018-.02.018h-.021v.04c0 .04 0 .04-.017.04-.007 0-.011 0-.014-.003l-.21.243h5.044z" fill="#CB2F2F"/><path d="M9.839 4.423c0 .017-.002.019-.018.019s-.017.001-.017.021-.002.022-.018.022-.017 0-.02.04c-.005.038-.006.04-.021.04-.016 0-.017.001-.02.036-.004.034-.006.037-.019.037-.012 0-.014.003-.014.022 0 .02-.001.021-.02.021H9.65v.08l-.019.001c-.017.002-.02.005-.02.022-.002.018-.005.02-.02.02-.016 0-.017 0-.018.039-.002.038-.002.038-.021.04l-.02.002v.036c0 .037 0 .037-.017.037-.016 0-.018.002-.018.02 0 .02-.001.022-.019.024-.02.002-.02.002-.02.04-.003.038-.003.039-.02.039-.016 0-.017.001-.017.021s-.001.022-.021.022h-.02v.08h-.018c-.015 0-.018.002-.02.02 0 .017-.003.02-.02.021l-.02.002v.08h-.016c-.017 0-.018 0-.022.036s-.004.037-.02.037-.018.002-.018.022c0 .02-.001.021-.017.021s-.017.001-.021.04c-.004.04-.005.04-.021.04s-.018.002-.018.022c0 .02-.001.021-.017.021-.017 0-.017.001-.021.04s-.005.04-.021.04c-.017 0-.017 0-.017.037v.037h-.018c-.016 0-.018.001-.018.021s0 .022-.02.022h-.02l-.004.04c-.003.036-.005.04-.018.04-.01 0-.014.003-.015.02-.002.017-.004.02-.021.021l-.02.002v.08h-.017c-.015 0-.017.002-.019.02-.002.017-.004.02-.02.021l-.02.002v.072l-.02.002c-.018.002-.018.002-.02.04-.002.039-.002.04-.02.04-.015 0-.017 0-.017.02s-.001.021-.019.023c-.019.002-.019.002-.02.04-.002.039-.003.039-.02.039-.016 0-.017.002-.017.021 0 .021-.001.022-.02.022h-.022v.08h-.017c-.016 0-.018.002-.018.018s-.002.018-.02.02c-.018.002-.018.002-.02.04-.002.038-.002.039-.018.039-.017 0-.017 0-.021.04-.004.039-.005.04-.022.04-.015 0-.017.001-.017.021s-.001.021-.017.021-.017.002-.02.04c-.005.04-.005.04-.022.04-.016 0-.017.002-.017.022 0 .02-.002.021-.018.021s-.017.002-.02.037c-.005.036-.005.037-.022.037h-.017v.08h-.018c-.016 0-.017.002-.017.021 0 .021-.001.022-.021.022h-.02v.08h-.018c-.015 0-.018.002-.02.02 0 .017-.003.02-.02.022-.019.002-.019.002-.02.04-.002.036-.003.038-.018.04-.014.001-.017.005-.017.02 0 .016-.001.018-.02.018h-.02v.08h-.018c-.017 0-.017 0-.021.04-.004.038-.005.04-.022.04-.015 0-.017.001-.017.02 0 .021 0 .022-.02.022h-.02v.08h-.018c-.015 0-.018.003-.02.02 0 .018-.003.02-.02.022l-.02.002v.037c0 .036 0 .036-.017.036-.016 0-.018.002-.018.022 0 .02 0 .021-.02.021H7.84v.04c0 .04 0 .04-.017.04s-.017 0-.021.04c-.004.039-.005.04-.021.04s-.018.002-.018.021c0 .02-.001.022-.017.022-.017 0-.017 0-.021.04-.004.039-.005.04-.021.04-.015 0-.017.002-.017.018s-.002.019-.018.019h-.018v.08h-.04v.08h-.018c-.015 0-.018.002-.02.02-.001.017-.004.02-.02.021l-.02.002v.037c0 .036 0 .036-.017.036-.016 0-.017.002-.019.023-.002.021-.003.023-.021.025l-.02.002v.036c0 .037 0 .037-.016.037s-.018.002-.02.02c-.001.017-.004.02-.02.022l-.02.002v.079h-.017c-.017 0-.017 0-.021.04-.004.039-.005.04-.021.04s-.017.002-.017.021c0 .02-.002.022-.018.022s-.017 0-.02.04c-.005.039-.005.04-.022.04-.015 0-.017.002-.017.018 0 .015-.002.018-.02.02-.018.002-.018.002-.02.04-.002.038-.002.038-.019.038-.016 0-.016.001-.02.04-.004.04-.005.04-.022.04-.015 0-.017.002-.017.022 0 .02-.001.021-.017.021s-.017.002-.02.037c-.004.034-.006.036-.02.038-.014.002-.017.005-.018.022-.002.017-.004.02-.019.02-.016 0-.017.001-.02.04-.005.039-.005.04-.022.04-.016 0-.017.002-.017.021 0 .02-.002.022-.018.022h-.018v.08h-.04v.08h-.018c-.015 0-.018.002-.02.02 0 .017-.003.02-.02.021l-.02.002v.037c0 .036 0 .036-.017.036-.016 0-.018.002-.018.022 0 .02 0 .021-.02.021h-.021v.08H6.71c-.016 0-.018.003-.02.02-.001.018-.004.02-.02.022l-.02.002v.08h-.017c-.016 0-.017 0-.02.036-.005.036-.006.037-.022.037s-.017.002-.017.021c0 .02-.002.022-.017.022-.017 0-.017 0-.021.04-.004.039-.005.04-.022.04-.015 0-.017.002-.017.021 0 .02-.001.022-.017.022-.017 0-.017 0-.021.04-.004.038-.005.04-.02.04-.016 0-.017.001-.02.036-.005.034-.006.037-.02.038-.015.002-.017.006-.019.025-.001.021-.003.023-.018.023-.016 0-.017.002-.021.037-.004.034-.005.037-.02.038-.013.002-.016.006-.017.022-.002.018-.004.02-.02.02h-.017v.08h-.02c-.02 0-.021.001-.021.022 0 .02-.001.021-.017.021-.018 0-.018 0-.02.038-.001.039-.001.039-.02.04l-.02.003v.036c0 .037 0 .037-.017.037s-.018.002-.018.02c0 .02-.002.022-.02.024-.018.002-.018.002-.02.04-.002.038-.002.039-.02.039-.015 0-.017.001-.017.021s0 .022-.02.022h-.02v.08h-.019c-.016 0-.017.001-.017.022v.022l.027-.004a.391.391 0 0 1 .035-.004c.005 0 .009-.007.009-.018v-.018h.075l.002-.02c.002-.019.004-.02.024-.022.02-.002.022-.004.022-.02 0-.018 0-.018.035-.018h.035l.002-.02c.002-.02.002-.02.039-.022.036-.002.037-.002.037-.02v-.018h.076l.003-.04.115-.004v-.018c0-.017 0-.018.037-.02.035-.001.037-.002.039-.017.001-.014.005-.017.028-.02a.51.51 0 0 1 .059-.004c.03 0 .032 0 .032-.018v-.018l.076-.004c.075-.004.077-.005.077-.018 0-.012.004-.015.027-.018.015-.002.075-.004.133-.004h.105v-.037h.654v.037h.307v.035l.063.004.097.004c.034 0 .034 0 .034.018v.019h.05c.027 0 .061.002.076.004.026.003.028.005.028.021v.018h.117v.018c0 .018.001.019.03.019.015 0 .04.002.055.004.023.003.027.006.029.02.001.015.003.016.038.018.037.001.037.002.037.02v.018h.076l.002.02c.002.02.002.02.038.021.037.002.037.003.037.02s.001.017.039.021c.037.005.038.005.038.023 0 .016.002.018.02.018.02 0 .021.001.021.017 0 .018.001.018.039.022.037.004.038.005.038.022 0 .017.002.018.02.018.02 0 .021.002.021.018 0 .017.001.018.035.022.035.004.036.005.036.022 0 .017.002.018.02.018.02 0 .021.002.021.018s.002.019.02.02c.016.002.019.005.02.022.002.018.004.02.02.02.015 0 .017.002.017.018s.002.018.019.02c.017.002.02.005.02.022.002.018.005.02.02.02s.017.002.017.018.003.018.02.02c.016.002.019.004.02.022.002.017.004.02.02.02.014 0 .016.002.018.02.002.017.004.02.021.022.017.002.02.004.02.02s.001.018.017.018h.018v.08h.02c.02 0 .02 0 .02.021 0 .02.002.022.018.022.015 0 .018.002.02.02 0 .016.004.02.017.022.015.001.016.004.02.038.004.035.005.036.02.036.016 0 .017.002.021.04.004.04.004.04.021.04.016 0 .017.002.017.022 0 .02.002.021.017.021.017 0 .017.001.021.04.004.037.005.04.018.04.013 0 .014.004.018.04.004.039.005.04.02.04s.017.002.02.032a.634.634 0 0 1 .004.059c0 .025 0 .026.018.026h.017v.086h.017c.016 0 .017.002.02.028a.544.544 0 0 1 .005.059c0 .029 0 .03.017.03h.018v.16h.017c.016 0 .017.001.02.032a.877.877 0 0 1 .004.08v.047h.036v.16h.016c.016 0 .018.002.021.032.002.018.004.073.004.123v.09h.035v.4h.017c.016 0 .017.002.02.032.003.018.004 1.109.004 2.424v2.392h1.682l.209-.243c-.003-.004-.005-.011-.007-.025-.002-.016-.003-1.08-.003-2.366V13.1h-.036v-.559h-.041v-.32h-.035l-.003-.242-.016-.002c-.013-.002-.016-.006-.019-.03a1.047 1.047 0 0 1-.004-.098v-.07h-.035l-.003-.163-.015-.002c-.02-.002-.023-.02-.023-.1v-.054h-.034l-.009-.16h-.034v-.123h-.017c-.016 0-.017-.002-.02-.032a.606.606 0 0 1-.004-.059c0-.025-.001-.026-.018-.026h-.018v-.086h-.017c-.017 0-.017 0-.021-.04-.004-.039-.005-.04-.021-.04h-.017v-.117h-.041v-.08h-.036v-.079l-.019-.001c-.017-.002-.02-.005-.02-.022-.002-.018-.005-.02-.02-.02h-.017v-.08H11.4c-.016 0-.017-.001-.02-.04-.005-.039-.005-.04-.022-.04-.015 0-.017-.002-.017-.021 0-.02-.002-.022-.017-.022-.017 0-.017-.001-.021-.037-.004-.035-.005-.037-.021-.037s-.018-.002-.018-.021c0-.02-.001-.022-.017-.022-.017 0-.017 0-.021-.04-.004-.038-.005-.04-.02-.04s-.018-.002-.02-.02c-.001-.017-.003-.02-.02-.021-.018-.002-.02-.004-.02-.023 0-.02-.001-.022-.017-.022h-.018v-.073h-.02c-.02 0-.021-.002-.021-.019 0-.016-.002-.018-.018-.018s-.018-.002-.018-.022c0-.02 0-.021-.02-.021-.019 0-.02-.002-.02-.018s-.003-.019-.02-.02c-.017-.002-.02-.005-.02-.022-.002-.018-.005-.02-.02-.02-.016 0-.017-.002-.017-.022 0-.02-.001-.021-.021-.021-.019 0-.02-.002-.02-.019 0-.016-.003-.018-.018-.018-.017 0-.018-.002-.018-.022 0-.02-.001-.021-.02-.021-.02 0-.021-.002-.021-.018 0-.017-.001-.018-.036-.022-.034-.004-.035-.005-.035-.022 0-.016-.002-.018-.02-.018-.02 0-.021-.001-.021-.018 0-.016-.003-.018-.02-.02-.016-.002-.019-.004-.02-.022l-.002-.02h-.035c-.021 0-.03 0-.033-.004-.002-.003-.002-.007-.002-.014l-.002-.014c-.003-.004-.008-.005-.019-.005-.02 0-.02 0-.02-.021v-.022h-.077v-.018c0-.016-.002-.018-.02-.02-.016-.001-.019-.004-.02-.022l-.002-.02h-.076v-.017c0-.018-.001-.018-.035-.022-.034-.005-.036-.005-.036-.023 0-.016-.002-.017-.02-.017-.02 0-.021-.002-.021-.019 0-.018 0-.018-.04-.02l-.04-.001-.001-.02c-.002-.02-.003-.02-.033-.02-.055 0-.075-.006-.075-.022 0-.013-.003-.014-.04-.018-.041-.004-.042-.005-.042-.022 0-.018-.001-.018-.029-.018a.479.479 0 0 1-.056-.004c-.023-.003-.027-.006-.027-.018 0-.013-.004-.014-.041-.018-.041-.004-.042-.005-.042-.022v-.018h-.051c-.078 0-.095-.004-.097-.024-.002-.016-.002-.016-.06-.018l-.057-.002v-.036h-.194V8.97h-.189v-.037h-.118v-.079l.02-.002c.016-.002.019-.004.02-.022.002-.017.004-.02.02-.02.015 0 .017-.002.017-.021 0-.02.001-.022.017-.022s.017-.001.021-.037c.004-.035.005-.036.021-.036s.017-.002.017-.022c0-.02.002-.021.018-.021s.017-.001.021-.04c.004-.04.005-.04.021-.04.015 0 .017-.003.017-.019s.002-.018.018-.018.017-.002.017-.022c0-.02.002-.021.02-.021h.02l.004-.04c.004-.037.006-.04.018-.04.012 0 .015-.004.016-.02.002-.017.004-.02.02-.022.018-.002.019-.003.023-.038.003-.033.005-.036.02-.038.013-.002.016-.005.017-.022.002-.017.004-.02.02-.02.015 0 .017-.002.017-.021 0-.02 0-.022.02-.022h.021v-.074h.018c.016 0 .018-.001.018-.02 0-.02.001-.022.019-.024.017-.001.02-.004.02-.022.002-.017.005-.02.02-.02h.017v-.08h.02c.02 0 .021 0 .021-.021 0-.02.002-.021.018-.021s.017-.002.02-.037c.005-.036.005-.037.022-.037.016 0 .017-.002.017-.022 0-.02.002-.021.017-.021.016 0 .018-.003.02-.02.001-.018.004-.02.02-.022l.02-.002v-.036c0-.037 0-.037.017-.037s.018-.002.018-.021c0-.021.001-.022.02-.022h.021v-.08h.018c.015 0 .017-.002.019-.02.001-.017.004-.02.02-.022.018-.001.02-.004.02-.02 0-.015.002-.018.017-.018.016 0 .017 0 .021-.04.004-.039.004-.04.021-.04.016 0 .018-.001.018-.021s.001-.022.017-.022.017 0 .02-.036c.005-.036.005-.037.022-.037.016 0 .017-.002.017-.022 0-.02.002-.021.018-.021.015 0 .017-.003.019-.02.001-.018.004-.02.02-.022l.02-.002v-.08h.03c.01 0 .011-.005.011-.02 0-.02.002-.022.017-.022.017 0 .017-.002.021-.037.004-.033.006-.036.02-.038.013-.002.016-.006.018-.022.001-.018.003-.02.019-.02s.017-.002.017-.022c0-.02.001-.021.02-.021h.021V6.85h.018c.016 0 .018-.001.018-.021s0-.022.02-.022h.02v-.08h.018c.015 0 .018-.002.02-.02.001-.017.004-.02.02-.021.017-.002.02-.005.02-.02 0-.016.002-.019.017-.019h.018v-.08h.02c.02 0 .021 0 .021-.02s.002-.022.017-.022c.017 0 .018-.002.021-.037.004-.036.005-.037.022-.037.015 0 .017-.002.017-.022 0-.02.001-.021.018-.021.016 0 .017-.002.017-.022 0-.02.001-.021.02-.021h.021v-.08h.018c.015 0 .017-.002.019-.02.002-.017.004-.02.02-.022.018-.002.02-.003.023-.038.004-.033.005-.036.02-.038.013-.002.016-.005.017-.022.002-.017.004-.02.02-.02.015 0 .017-.002.017-.021 0-.02.001-.022.017-.022s.017-.001.021-.037c.004-.035.005-.037.021-.037s.017-.001.017-.021.001-.022.02-.022h.022v-.08h.017c.016 0 .018-.001.018-.02 0-.021 0-.022.02-.022s.021-.002.021-.019c0-.016.002-.018.018-.018h.018v-.08h.02c.02 0 .02-.001.02-.022 0-.02.002-.021.018-.021s.017-.001.021-.037c.004-.033.005-.036.02-.038.013-.002.016-.006.017-.022.002-.018.004-.02.02-.02.015 0 .017-.002.017-.021 0-.02 0-.022.02-.022h.021v-.08h.017c.015 0 .018-.002.02-.02.001-.017.004-.02.02-.022l.02-.002v-.072l.019-.002c.017-.001.02-.004.02-.022.002-.017.005-.02.02-.02.016 0 .017-.001.017-.021s.002-.022.017-.022c.017 0 .018 0 .022-.036.003-.036.004-.037.02-.037s.018-.002.018-.022c0-.02.001-.021.017-.021.017 0 .017-.001.021-.04s.005-.04.021-.04c.015 0 .017-.003.019-.02.001-.017.004-.02.018-.022.013-.002.016-.005.016-.02 0-.017.002-.018.02-.018h.021v-.08h.017c.016 0 .018-.002.02-.02.001-.017.004-.02.02-.022.018-.002.018-.003.022-.038.004-.033.005-.036.02-.038.013-.001.016-.005.018-.022.002-.017.004-.02.02-.02.015 0 .016-.002.016-.021 0-.02.001-.022.021-.022h.02v-.037c0-.036 0-.036.018-.036.016 0 .017-.003.02-.023 0-.022.003-.024.02-.025l.02-.002V4.52c0-.036 0-.036.017-.036.016 0 .018-.002.018-.022 0-.02 0-.021.02-.021s.02-.002.02-.019v-.018H9.84v.018z" fill="#0C6666"/></svg>