<svg xmlns="http://www.w3.org/2000/svg" width="24" height="24" viewBox="0 0 24 24" fill="none"><rect width="24" height="24" fill="none"/>
<path d="M20.9947 8.63431C20.916 7.60362 20.1293 6.28223 19.3426 5.64796C18.4579 4.99886 17.5387 4.39893 16.5891 3.85087C15.6467 3.28793 14.675 2.77626 13.6783 2.31806C13.1458 2.09918 12.5749 1.99129 11.9999 2.00093C11.4248 1.98875 10.8533 2.09673 10.3216 2.31806C9.32505 2.77658 8.3534 3.28825 7.4108 3.85087C5.88983 4.77585 4.65731 5.64796 4.65731 5.64796C4.06759 6.14535 3.60818 6.77287 3.31021 7.47514C3.20144 7.73149 3.40129 7.99994 3.67975 7.99994H4.45464C4.76425 7.99994 5.04249 7.82394 5.21968 7.57003C5.42052 7.28225 5.65972 7.02 5.93274 6.79131C5.93274 6.79131 6.9504 6.07618 8.20624 5.3177C8.98452 4.85634 9.78679 4.43678 10.6096 4.06079C11.0487 3.8793 11.5205 3.79075 11.9954 3.80074C12.4701 3.79284 12.9415 3.88131 13.3811 4.06079C14.2041 4.43651 15.0064 4.85608 15.7846 5.3177C16.5686 5.76711 17.3276 6.25904 18.0581 6.79131C18.7076 7.31141 19.3572 8.39495 19.4222 9.24011C19.4222 9.24011 19.5737 10.497 19.5954 11.9858C19.594 12.9053 19.5434 13.824 19.4438 14.738C19.2927 15.695 18.8005 16.5649 18.0581 17.1868C18.0581 17.1868 17.0404 17.9236 15.7846 18.6821C15.0063 19.1434 14.204 19.563 13.3811 19.939C12.9421 20.1205 12.4703 20.209 11.9954 20.199C11.5211 20.209 11.0497 20.1228 10.6096 19.9455C9.78666 19.5698 8.98438 19.1502 8.20624 18.6886C6.9504 17.9518 5.93274 17.1933 5.93274 17.1933C5.69106 16.9998 5.44939 16.7283 5.2367 16.4201C5.06375 16.1695 4.78833 15.9999 4.48382 15.9999H3.69055C3.40852 15.9999 3.20986 16.2741 3.327 16.5307C3.65181 17.242 4.15456 17.928 4.65731 18.3333C4.65731 18.3333 5.88983 19.2583 7.4108 20.1568C8.35322 20.7198 9.32489 21.2314 10.3216 21.6896C10.8546 21.9058 11.4255 22.011 11.9999 21.9988C12.5751 22.011 13.1465 21.903 13.6783 21.6817C14.6748 21.2232 15.6465 20.7115 16.5891 20.1489C18.1101 19.2239 19.3426 18.3254 19.3426 18.3254C20.2417 17.567 20.8379 16.5062 21.0209 15.339C21.1416 14.2244 21.2028 13.104 21.2045 11.9827C21.1782 10.1671 20.9947 8.63431 20.9947 8.63431Z" fill="#000000"/>
<path d="M2.79543 9.80111C2.79543 9.58019 2.97451 9.40111 3.19543 9.40111H9.3954C9.61632 9.40111 9.7954 9.58019 9.7954 9.80111V11.0011C9.7954 11.222 9.61632 11.4011 9.3954 11.4011H2.79543V9.80111Z" fill="#000000"/>
<path d="M2.79529 12.601H15.3952C15.6162 12.601 15.7952 12.7801 15.7952 13.001V14.201C15.7952 14.4219 15.6162 14.601 15.3952 14.601H3.19529C2.97437 14.601 2.79529 14.4219 2.79529 14.201V12.601Z" fill="#000000"/>
</svg>
