<svg xmlns="http://www.w3.org/2000/svg" width="24" height="24" viewBox="0 0 24 24" fill="none"><rect width="24" height="24" fill="none"/>
<path d="M18.2164 12C18.2164 15.7207 15.2481 18.4103 12.0002 18.4103C9.47345 18.4103 7.1159 16.7824 6.19356 14.3077L2.64412 15.5381L2.64965 15.5526C4.08243 19.3216 7.72854 22 12.0002 22C17.5231 22 22.0002 17.5229 22.0002 12C22.0002 9.35556 20.9737 6.95086 19.2975 5.16258L19.2949 5.16492C19.5989 5.48336 19.784 5.90578 19.784 6.36922C19.784 7.3605 18.937 8.16411 17.8921 8.16411C17.3775 8.16411 16.9108 7.96914 16.5697 7.65283C16.5652 7.64858 16.5606 7.64431 16.5561 7.64003L16.5455 7.62997C17.561 8.74786 18.2164 10.2677 18.2164 12Z" fill="white" fill-opacity="0.32"/>
<path fill-rule="evenodd" clip-rule="evenodd" d="M12.0002 5.58975C8.75228 5.58975 5.78397 8.27931 5.78397 12C5.78397 12.8261 5.9303 13.6014 6.19353 14.3077L2.64465 15.5395C2.60859 15.4443 2.57393 15.3483 2.54072 15.2516C2.19038 14.2322 2.00018 13.1383 2.00018 12C2.00018 6.47717 6.47733 2 12.0002 2C14.7791 2 17.2932 3.13347 19.1054 4.96331L19.2949 5.16492C19.5989 5.48336 19.784 5.90578 19.784 6.36922C19.784 7.3605 18.9369 8.16411 17.8921 8.16411C17.3774 8.16411 16.9108 7.96914 16.5697 7.65283L16.5561 7.64003L16.4131 7.48867C15.2571 6.29142 13.6712 5.58975 12.0002 5.58975Z" fill="white" fill-opacity="0.7"/>
<path d="M4.42257 16.8125C5.45957 16.8125 6.30021 15.9719 6.30021 14.9349C6.30021 13.8979 5.45957 13.0573 4.42257 13.0573C3.38559 13.0573 2.54494 13.8979 2.54494 14.9349C2.54494 15.9719 3.38559 16.8125 4.42257 16.8125Z" fill="white"/>
</svg>
