<svg xmlns="http://www.w3.org/2000/svg" width="24" height="24" viewBox="0 0 24 24" fill="none"><rect width="24" height="24" fill="none"/>
<path d="M12.5857 2.75L13.9311 5.00232H18.5386L19.8953 7.48902L18.7218 9.88352L21.1778 14.1313L21.25 14.2556L19.629 16.8913H17.41L14.8285 21.2491L11.6469 21.25L10.5239 19.4479L5.58773 19.4472L4.11619 16.9835L5.0164 14.2704L2.75 9.71718L4.6394 7.34473L4.71135 7.25464L7.13704 7.25535L9.15632 2.75H12.5857ZM7.44653 7.73608L5.2133 7.73514L9.69798 16.7454H6.79252L6.05488 18.9667L10.7888 18.9676L11.7696 20.541L16.8361 11.592L18.3583 14.0116H20.5558L18.1796 9.90253L19.2412 7.73514L9.82084 7.73608L10.8287 5.7111L9.35159 3.48459L7.44653 7.73608ZM15.0955 9.95743L12.0018 15.6544L8.90802 9.95743H15.0955Z" fill="#000000"/>
</svg>
