<svg xmlns="http://www.w3.org/2000/svg" width="87" height="24" viewBox="0 0 87 24" fill="none"><rect width="87" height="24" fill="none"/>
<path d="M41.581 9.53222C37.0528 9.53222 34.1941 11.8773 34.1941 15.7689C34.1941 19.655 37.0528 22 41.581 22C46.1035 22 48.9678 19.655 48.9678 15.7689C48.9734 11.8773 46.1035 9.53222 41.581 9.53222ZM41.581 18.583C40.3526 18.583 40.3247 16.9917 40.3247 15.7689C40.3247 14.5406 40.3526 12.9437 41.581 12.9437C42.8093 12.9437 42.8261 14.535 42.8261 15.7689C42.8317 16.9917 42.8149 18.583 41.581 18.583Z" fill="#EF3B39"/>
<path d="M2.47459 21.7264H7.25401C7.51643 21.7264 7.7286 21.5143 7.7286 21.2518V10.2804C7.7286 10.018 7.51643 9.80581 7.25401 9.80581H2.47459C2.21217 9.80581 2 10.018 2 10.2804V21.2463C2 21.5087 2.21217 21.7264 2.47459 21.7264Z" fill="#EF3B39"/>
<path d="M2.47459 8.5607H7.25401C7.51643 8.5607 7.7286 8.34853 7.7286 8.08611V5.0543C7.7286 4.79188 7.51643 4.57971 7.25401 4.57971H2.47459C2.21217 4.57971 2 4.79188 2 5.0543V8.08611C2 8.34853 2.21217 8.5607 2.47459 8.5607Z" fill="#EF3B39"/>
<path d="M10.4812 21.7264H15.2607C15.5231 21.7264 15.7352 21.5143 15.7352 21.2518V10.2804C15.7352 10.018 15.5231 9.80581 15.2607 9.80581H10.4812C10.2188 9.80581 10.0066 10.018 10.0066 10.2804V21.2463C10.0066 21.5087 10.2188 21.7264 10.4812 21.7264Z" fill="#EF3B39"/>
<path d="M10.4812 8.5607H15.2607C15.5231 8.5607 15.7352 8.34853 15.7352 8.08611V5.0543C15.7352 4.79188 15.5231 4.57971 15.2607 4.57971H10.4812C10.2188 4.57971 10.0066 4.79188 10.0066 5.0543V8.08611C10.0066 8.34853 10.2188 8.5607 10.4812 8.5607Z" fill="#EF3B39"/>
<path d="M29.7329 14.7974L32.9713 10.5707C33.2114 10.2581 32.9881 9.80581 32.5916 9.80581H27.332C27.1757 9.80581 27.0305 9.88397 26.9412 10.0124L23.8368 14.5406H23.7419V5.0543C23.7419 4.79188 23.5297 4.57971 23.2673 4.57971H18.4935C18.231 4.57971 18.0189 4.79188 18.0189 5.0543V21.2463C18.0189 21.5087 18.231 21.7209 18.4935 21.7209H23.2673C23.5297 21.7209 23.7419 21.5087 23.7419 21.2463V15.9476H23.8368L26.9021 21.4808C26.9859 21.6315 27.1478 21.7264 27.3209 21.7264H32.8596C33.2337 21.7264 33.4627 21.3133 33.2617 20.995L29.7106 15.3446C29.6045 15.1715 29.6157 14.9593 29.7329 14.7974Z" fill="#EF3B39"/>
<path d="M51.6147 9.50003C51.5366 9.72895 51.464 9.95228 51.3858 10.1868C51.3077 10.4157 51.2351 10.6446 51.1569 10.8736L50.7102 9.50003H50.3306V11.27H50.593V9.94112L51.0396 11.27H51.2797C51.3579 11.0522 51.4305 10.8345 51.5031 10.6055C51.5812 10.3822 51.6538 10.1645 51.732 9.94112V11.27H52V9.50003H51.6147Z" fill="#EF3B39"/>
<path d="M48.689 9.75128H49.2529V11.2644H49.5321V9.75128H50.1016V9.50003H48.689V9.75128Z" fill="#EF3B39"/>
<path d="M56.5992 9.63423H58.1875C58.9976 9.63423 59.5682 10.0496 59.5682 10.7839C59.5745 10.9775 59.5276 11.169 59.4327 11.3378C59.3377 11.5065 59.1984 11.6459 59.0297 11.7408C59.2491 11.8115 59.4388 11.953 59.5693 12.1431C59.6998 12.3332 59.7637 12.5613 59.751 12.7916C59.751 13.6817 59.0347 14.0847 58.2122 14.0847H56.5992V9.63423ZM58.1949 11.4565C58.2697 11.4595 58.3443 11.4466 58.4138 11.4187C58.4834 11.3908 58.5462 11.3484 58.5982 11.2945C58.6502 11.2406 58.6903 11.1762 58.7157 11.1057C58.7411 11.0352 58.7513 10.9601 58.7457 10.8853C58.751 10.8104 58.74 10.7352 58.7134 10.6649C58.6868 10.5946 58.6453 10.5309 58.5918 10.4783C58.5382 10.4256 58.4739 10.3852 58.4033 10.3599C58.3326 10.3345 58.2573 10.3248 58.1825 10.3315H57.4094V11.4565H58.1949ZM58.2764 13.3998C58.3642 13.4053 58.4523 13.3927 58.5351 13.3628C58.6179 13.3329 58.6937 13.2863 58.7578 13.226C58.8219 13.1656 58.873 13.0928 58.908 13.0119C58.9429 12.931 58.9609 12.8439 58.9609 12.7557C58.9609 12.6676 58.9429 12.5805 58.908 12.4996C58.873 12.4187 58.8219 12.3459 58.7578 12.2855C58.6937 12.2252 58.6179 12.1786 58.5351 12.1487C58.4523 12.1188 58.3642 12.1062 58.2764 12.1117H57.4094V13.3998H58.2764Z" fill="#EF3B39"/>
<path d="M60.5214 9.63423H61.3439V12.4875C61.3439 13.0908 61.7342 13.432 62.3319 13.432C62.9297 13.432 63.3199 13.0908 63.3199 12.4875V9.63423H64.1301V12.4949C64.1301 13.4839 63.4138 14.1737 62.3393 14.1737C61.2649 14.1737 60.5362 13.4938 60.5362 12.4949L60.5214 9.63423Z" fill="#EF3B39"/>
<path d="M65.2645 12.9521C65.566 13.2339 65.9567 13.401 66.3686 13.4243C66.7712 13.4243 67.0207 13.2166 67.0207 12.915C67.0207 12.0669 64.9434 12.2425 64.9434 10.8529C64.9434 10.0692 65.5954 9.55983 66.4624 9.55983C66.9408 9.55391 67.4048 9.72368 67.7666 10.037L67.4084 10.6972C67.1347 10.4555 66.7852 10.3173 66.4204 10.3065C66.0129 10.3065 65.7436 10.5093 65.7436 10.8159C65.7436 11.6466 67.8209 11.4315 67.8209 12.8532C67.8209 13.5752 67.2948 14.1735 66.3389 14.1735C65.7758 14.1782 65.2329 13.9636 64.8248 13.5752L65.2645 12.9521Z" fill="#EF3B39"/>
<path d="M68.6405 9.63423H69.4506V14.0847H68.6405V9.63423Z" fill="#EF3B39"/>
<path d="M70.5303 9.63423H71.3404L73.0299 12.213C73.1929 12.4751 73.4004 12.9029 73.4004 12.9029H73.4128C73.4128 12.9029 73.3683 12.4751 73.3683 12.213V9.63423H74.1711V14.0847H73.3683L71.6788 11.5133C71.5438 11.2898 71.4202 11.0595 71.3083 10.8235C71.3083 10.8235 71.3528 11.2512 71.3528 11.5133V14.0847H70.5426L70.5303 9.63423Z" fill="#EF3B39"/>
<path d="M75.2578 9.63423H77.9254V10.3315H76.068V11.501H77.5673V12.1982H76.068V13.3998H78.0267V14.0971H75.2578V9.63423Z" fill="#EF3B39"/>
<path d="M78.9431 12.9521C79.2452 13.2331 79.6355 13.4 80.0472 13.4244C80.4498 13.4244 80.7017 13.2167 80.7017 12.915C80.7017 12.067 78.622 12.2425 78.622 10.853C78.622 10.0692 79.2765 9.55988 80.1411 9.55988C80.6203 9.55311 81.0854 9.72295 81.4477 10.0371L81.0895 10.6972C80.8158 10.4556 80.4663 10.3174 80.1015 10.3066C79.6915 10.3066 79.4223 10.5093 79.4223 10.8159C79.4223 11.6467 81.502 11.4316 81.502 12.8532C81.502 13.5752 80.9734 14.1735 80.02 14.1735C79.4561 14.1783 78.9124 13.9638 78.5034 13.5752L78.9431 12.9521Z" fill="#EF3B39"/>
<path d="M82.4411 12.9521C82.7426 13.234 83.1333 13.4011 83.5452 13.4244C83.9478 13.4244 84.1973 13.2167 84.1973 12.915C84.1973 12.067 82.12 12.2425 82.12 10.853C82.12 10.0692 82.7721 9.55986 83.639 9.55986C84.1183 9.55333 84.5832 9.72314 84.9457 10.0371L84.5875 10.6972C84.3138 10.4556 83.9643 10.3174 83.5995 10.3066C83.1919 10.3066 82.9227 10.5093 82.9227 10.8159C82.9227 11.6466 85 11.4315 85 12.8532C85 13.5752 84.4739 14.1735 83.518 14.1735C82.954 14.1788 82.4101 13.9642 82.0014 13.5752L82.4411 12.9521Z" fill="#EF3B39"/>
<path d="M56.599 17.1594H58.328C58.519 17.1517 58.7094 17.1843 58.887 17.255C59.0647 17.3256 59.2255 17.4328 59.3591 17.5696C59.4927 17.7064 59.5962 17.8698 59.6628 18.0491C59.7294 18.2284 59.7577 18.4197 59.7458 18.6107C59.76 18.8037 59.7336 18.9976 59.6683 19.1797C59.603 19.3619 59.5002 19.5283 59.3665 19.6681C59.2328 19.808 59.0713 19.9181 58.8924 19.9915C58.7135 20.0649 58.5212 20.0999 58.328 20.0942H57.4165V21.6346H56.6064L56.599 17.1594ZM58.1699 19.3846C58.2709 19.3907 58.3721 19.3749 58.4665 19.3382C58.5609 19.3015 58.6462 19.2448 58.7166 19.172C58.787 19.0992 58.8408 19.012 58.8743 18.9164C58.9079 18.8208 58.9204 18.719 58.9109 18.6181C58.9183 18.5188 58.9042 18.4191 58.8695 18.3258C58.8349 18.2324 58.7806 18.1476 58.7102 18.0772C58.6399 18.0068 58.5552 17.9524 58.462 17.9178C58.3687 17.8831 58.2691 17.869 58.1699 17.8764H57.3968V19.397L58.1699 19.3846Z" fill="#EF3B39"/>
<path d="M61.2899 17.1588H62.1421L63.7056 21.6216H62.8782L62.4953 20.4769H60.9318L60.5539 21.6216H59.7264L61.2899 17.1588ZM62.2928 19.8167L61.8976 18.6225C61.8235 18.3753 61.7222 17.9327 61.7222 17.9327C61.7222 17.9327 61.6209 18.3703 61.5468 18.6225L61.1442 19.8167H62.2928Z" fill="#EF3B39"/>
<path d="M64.308 17.1598H65.7776C66.0636 17.139 66.3508 17.1795 66.6199 17.2784C66.8564 17.3781 67.0561 17.549 67.1911 17.7675C67.3261 17.9859 67.3898 18.241 67.3733 18.4974C67.384 18.7514 67.3194 19.003 67.1875 19.2204C67.0556 19.4377 66.8624 19.6111 66.6323 19.7188C66.6872 19.7921 66.736 19.8698 66.778 19.9512L67.6944 21.6102H66.7829L65.9036 19.9438H65.1256V21.6102H64.308V17.1598ZM65.8345 19.2638C65.9298 19.2705 66.0254 19.2562 66.1146 19.2219C66.2038 19.1876 66.2845 19.1342 66.3509 19.0654C66.4172 18.9966 66.4678 18.9141 66.4989 18.8236C66.53 18.7332 66.541 18.637 66.531 18.5419C66.5435 18.4162 66.516 18.2898 66.4526 18.1806C66.3892 18.0714 66.2931 17.985 66.1778 17.9336C66.0211 17.8709 65.8521 17.8447 65.6838 17.857H65.0934V19.2638H65.8345Z" fill="#EF3B39"/>
<path d="M69.2754 17.856H67.8107V17.1588H71.5404V17.856H70.0781V21.6216H69.2754V17.856Z" fill="#EF3B39"/>
<path d="M72.1676 17.1588H72.9778L74.6672 19.7351C74.8303 19.9997 75.0377 20.4274 75.0377 20.4274H75.0501C75.0501 20.4274 75.0056 19.9997 75.0056 19.7351V17.1588H75.8109V21.6216H75.0056L73.3186 19.0503C73.1829 18.8263 73.0592 18.5952 72.9481 18.358H72.9333C72.9333 18.358 72.9778 18.7857 72.9778 19.0503V21.6216H72.1676V17.1588Z" fill="#EF3B39"/>
<path d="M76.9043 17.1588H79.5744V17.856H77.7145V19.0156H79.2162V19.7129H77.7145V20.9145H79.6732V21.6118H76.9043V17.1588Z" fill="#EF3B39"/>
<path d="M80.4619 17.1598H81.9439C82.2299 17.139 82.517 17.1795 82.7862 17.2784C83.0227 17.3781 83.2224 17.549 83.3574 17.7675C83.4924 17.9859 83.5561 18.241 83.5396 18.4974C83.5503 18.7514 83.4856 19.003 83.3538 19.2204C83.2219 19.4377 83.0287 19.6111 82.7985 19.7188C82.8535 19.7921 82.9023 19.8698 82.9443 19.9512L83.8607 21.6102H82.9492L82.0699 19.9438H81.2918V21.6102H80.4619V17.1598ZM82.0007 19.2638C82.0955 19.2714 82.1908 19.2582 82.28 19.2251C82.3691 19.192 82.45 19.1399 82.517 19.0724C82.584 19.0048 82.6355 18.9235 82.6679 18.834C82.7003 18.7445 82.7129 18.6491 82.7047 18.5542C82.7172 18.4286 82.6897 18.3022 82.6263 18.193C82.5629 18.0838 82.4667 17.9974 82.3515 17.946C82.1947 17.8835 82.0258 17.8573 81.8575 17.8694H81.2671V19.2638H82.0007Z" fill="#EF3B39"/>
</svg>
