<svg xmlns="http://www.w3.org/2000/svg" width="24" height="24" viewBox="0 0 24 24" fill="none"><rect width="24" height="24" fill="none"/>
<path d="M4.32178 8.56218C4.74776 8.56218 5.13876 8.64355 5.48392 8.80406L5.52766 8.82438L5.7327 8.03383L5.70598 8.01926C5.33488 7.8169 4.85621 7.70996 4.32178 7.70996C3.5994 7.70996 2.99803 7.93737 2.58272 8.36768C2.20696 8.75701 2 9.3016 2 9.90107C2 11.022 2.78925 11.7184 4.05975 11.7184C4.43997 11.7184 5.00115 11.6455 5.33129 11.4399L5.34674 11.4303L5.64512 9.37619H3.87026L3.67584 10.1429H4.60897L4.50473 10.8615C4.33929 10.8925 4.18596 10.9089 4.05975 10.9089C3.43971 10.9089 3.08409 10.5415 3.08409 9.90107C3.08409 8.69264 3.94965 8.56218 4.32178 8.56218Z" fill="white"/>
<path d="M7.34599 9.49785C7.63798 9.49785 7.69928 9.69589 7.69928 9.86199C7.69928 9.90035 7.69618 9.93663 7.69244 9.97172H6.80678C6.8915 9.653 7.06826 9.49785 7.34599 9.49785ZM7.34599 8.75814C6.86905 8.75814 6.46975 8.93303 6.19125 9.26387C5.93857 9.564 5.79943 9.98157 5.79943 10.4396C5.79943 10.8241 5.95013 11.7184 7.34599 11.7184C7.62782 11.7184 7.93822 11.6536 8.17634 11.5451L8.1928 11.5376L8.44341 10.6741L8.35723 10.7245C8.08608 10.8835 7.77864 10.9575 7.38966 10.9575C7.01508 10.9575 6.81668 10.8336 6.76939 10.5684H8.53374L8.54175 10.5399C8.58473 10.3869 8.63598 10.1534 8.63598 9.90966C8.63598 9.21014 8.12962 8.75814 7.34599 8.75814Z" fill="white"/>
<path d="M10.1877 8.09612L9.16677 8.23596L8.85142 10.4303C8.83224 10.562 8.82372 10.6596 8.82372 10.7467C8.82372 11.3915 9.18426 11.7184 9.89532 11.7184C10.0591 11.7184 10.221 11.6943 10.3766 11.6469L10.3985 11.6403L10.5774 10.8771L10.5114 10.897C10.3895 10.9338 10.2774 10.9488 10.1246 10.9488C9.8599 10.9488 9.82592 10.8236 9.82592 10.7145C9.82592 10.6257 9.83893 10.5315 9.84939 10.4557L9.98446 9.5209H10.6786L10.8818 8.8318H10.083L10.1877 8.09612Z" fill="white"/>
<path d="M5.16989 12.2795H2.21082L2 13.1288H3.02605L2.59471 16.2024H3.61955L4.05081 13.1288H4.95906L5.16989 12.2795Z" fill="white"/>
<path d="M6.54837 14.1023L6.75305 13.3861L6.73286 13.3695C6.62875 13.2838 6.49173 13.2404 6.32542 13.2404C6.20503 13.2404 5.92422 13.2785 5.71686 13.6023L5.70898 13.3277H4.85503L4.45079 16.2024H5.41015L5.65155 14.4632L5.65813 14.4469C5.77359 14.1583 5.95194 14.0351 6.25448 14.0351C6.32421 14.0351 6.42373 14.0555 6.50801 14.0872L6.54837 14.1023Z" fill="white"/>
<path d="M8.21416 14.8994L8.14417 15.3939C7.9919 15.5182 7.84552 15.5715 7.6573 15.5715C7.54375 15.5715 7.35319 15.5412 7.35319 15.3383C7.35319 15.2168 7.39486 15.0836 7.70399 15.0169L8.10667 14.9298C8.14495 14.9229 8.18107 14.9118 8.21416 14.8994ZM7.9194 13.2404C7.60031 13.2404 7.28 13.2964 6.94029 13.4117L6.92055 13.4184L6.6859 14.2397L6.75927 14.2129C7.12141 14.0807 7.49273 14.0078 7.80472 14.0078C8.22905 14.0078 8.27808 14.1097 8.27808 14.1864C8.27808 14.2679 8.22905 14.3033 7.92209 14.3659L7.43063 14.4696C6.73302 14.6187 6.42198 14.927 6.42198 15.4693C6.42198 15.9678 6.78473 16.2898 7.34618 16.2898C7.63747 16.2898 7.88805 16.2031 8.10961 16.0251C8.11368 16.0733 8.11853 16.1217 8.12572 16.1687L8.13092 16.2025H9.05944L9.05641 16.1599C9.05104 16.0848 9.05104 16.042 9.05104 15.977C9.05104 15.836 9.0662 15.6387 9.0888 15.4858L9.24177 14.3991C9.25329 14.3125 9.25848 14.2052 9.25848 14.1373C9.25848 13.7281 9.02618 13.2404 7.9194 13.2404Z" fill="white"/>
<path d="M11.3641 13.2404C11.0681 13.2404 10.823 13.3418 10.6176 13.5498L10.6045 13.3277H9.73534L9.33111 16.2024H10.3287L10.61 14.1943C10.7212 14.0867 10.8331 14.0405 10.9819 14.0405C11.1689 14.0405 11.2806 14.1359 11.2806 14.2956C11.2806 14.3623 11.2749 14.4317 11.27 14.4703L11.029 16.2024H12.0047L12.2442 14.4814C12.2735 14.2757 12.2773 14.1923 12.2773 14.1427C12.2773 13.5946 11.9188 13.2404 11.3641 13.2404Z" fill="white"/>
<path d="M14.1855 14.4882L13.7709 14.3137C13.5995 14.2394 13.5601 14.2043 13.5601 14.1263C13.5601 14.0103 13.7345 13.986 13.8807 13.986C14.1964 13.986 14.5635 14.1308 14.7541 14.2172L14.7958 14.236L15.0035 13.5333L14.9749 13.518C14.6358 13.3364 14.2575 13.2403 13.8807 13.2403C13.0525 13.2403 12.558 13.5899 12.558 14.1755C12.558 14.5888 12.7453 14.8367 13.2046 15.031L13.5923 15.1948C13.8255 15.2925 13.8464 15.3278 13.8464 15.4038C13.8464 15.4422 13.8464 15.5442 13.5476 15.5442C13.2419 15.5442 12.9014 15.4547 12.5888 15.2921L12.5455 15.2696L12.3433 15.9802L12.3711 15.9955C12.7318 16.1935 13.1166 16.2898 13.5476 16.2898C14.7547 16.2898 14.8485 15.574 14.8485 15.3547C14.8485 14.8628 14.6054 14.6645 14.1855 14.4882Z" fill="white"/>
<path d="M16.3659 13.3277L16.3821 13.1981C16.4043 13.0341 16.4826 12.976 16.6812 12.976C16.7796 12.976 16.8906 12.9932 16.9858 13.0233L17.0246 13.0355L17.2265 12.344L17.1918 12.3311C16.9826 12.2534 16.7685 12.214 16.5556 12.214C15.8501 12.214 15.4785 12.5232 15.3861 13.1873L14.9649 16.2024H15.9623L16.268 14.0296H16.7939L16.9725 13.3277H16.3659Z" fill="white"/>
<path d="M18.3442 13.9797C18.6349 13.9797 18.6959 14.1777 18.6959 14.3439C18.6959 14.3822 18.6929 14.4185 18.6891 14.4536H17.8073C17.8917 14.1349 18.0677 13.9797 18.3442 13.9797ZM18.3442 13.2398C17.8693 13.2398 17.4718 13.4147 17.1945 13.7457C16.943 14.0458 16.8044 14.4635 16.8044 14.9216C16.8044 15.3062 16.9544 16.2006 18.3442 16.2006C18.6248 16.2006 18.9339 16.1358 19.1709 16.0273L19.1873 16.0198L19.4367 15.1561L19.351 15.2066C19.081 15.3655 18.7749 15.4396 18.3877 15.4396C18.0147 15.4396 17.8172 15.3156 17.7701 15.0504H19.5267L19.5347 15.0219C19.5775 14.8689 19.6285 14.6354 19.6285 14.3916C19.6285 13.6919 19.1243 13.2398 18.3442 13.2398Z" fill="white"/>
<path d="M21.755 14.0872L21.7953 14.1023L22 13.3861L21.9798 13.3695C21.8758 13.2838 21.7387 13.2404 21.5724 13.2404C21.452 13.2404 21.1712 13.2785 20.9638 13.6023L20.956 13.3277H20.1021L19.6977 16.2024H20.6571L20.8986 14.4632L20.9052 14.4469C21.0205 14.1583 21.1989 14.0351 21.5014 14.0351C21.5712 14.0351 21.6707 14.0555 21.755 14.0872Z" fill="white"/>
</svg>
