<svg xmlns="http://www.w3.org/2000/svg" width="24" height="24" viewBox="0 0 24 24" fill="none"><rect width="24" height="24" fill="none"/>
<path d="M3.40588 3.40589C2.04205 4.76972 2.00125 6.9399 2.00003 11.1999C5.81762 11.1999 8.20114 9.5609 10.2919 8.12324C11.9252 7.00014 13.3799 5.99988 15.2 5.99988C17.9091 5.99988 20.2745 7.91536 21.5288 8.93104C21.7056 9.07426 21.8604 9.1996 21.9909 9.29914C21.9513 6.26188 21.7383 4.5501 20.5941 3.40589C19.1882 2 16.9255 2 12.4 2L11.6 2C7.0745 2 4.81176 2 3.40588 3.40589Z" fill="#0077FF"/>
<path d="M11.012 21.9999C11.2036 22 11.3996 22 11.6 22H12.4C12.6004 22 12.7963 22 12.9879 21.9999H11.012Z" fill="#0077FF"/>
<path d="M2.00003 11.1999C5.81762 11.1999 8.20114 9.5609 10.2919 8.12324C11.9252 7.00014 13.3799 5.99988 15.2 5.99988C17.9091 5.99988 20.2745 7.91536 21.5288 8.93104C21.7056 9.07426 21.8604 9.1996 21.9909 9.29914C22 9.99374 22 10.7577 22 11.6V12.4C22 16.9255 22 19.1882 20.5941 20.5941C19.2505 21.9378 17.1243 21.9972 12.9879 21.9999H11.012C6.8757 21.9972 4.74954 21.9378 3.40589 20.5941C2 19.1882 2 16.9255 2 12.4L2 11.6C2 11.4646 1.99999 11.3313 2.00003 11.1999Z" fill="#F45FFF"/>
<path d="M17.5001 12.195C17.5001 11.7007 17.9058 11.3 18.4001 11.3C18.8944 11.3 19.3001 11.7007 19.3001 12.195V15.805C19.3001 16.2993 18.8944 16.7 18.4001 16.7C17.9058 16.7 17.5001 16.2993 17.5001 15.805V12.195Z" fill="white"/>
<path d="M14.3002 9.89502C14.3002 9.40072 14.7059 9.00002 15.2002 9.00002C15.6945 9.00002 16.1002 9.40072 16.1002 9.89502V18.105C16.1002 18.5993 15.6945 19 15.2002 19C14.7059 19 14.3002 18.5993 14.3002 18.105V9.89502Z" fill="white"/>
<path d="M11.1002 12.195C11.1002 11.7007 11.5059 11.3 12.0002 11.3C12.4945 11.3 12.9002 11.7007 12.9002 12.195V15.805C12.9002 16.2993 12.4945 16.7 12.0002 16.7C11.5059 16.7 11.1002 16.2993 11.1002 15.805V12.195Z" fill="white"/>
<path d="M7.89978 13.495C7.89978 13.0007 8.30548 12.6 8.79979 12.6C9.29409 12.6 9.69979 13.0007 9.69979 13.495V14.505C9.69979 14.9993 9.29409 15.4 8.79979 15.4C8.30548 15.4 7.89978 14.9993 7.89978 14.505V13.495Z" fill="white"/>
<path d="M4.69978 13.495C4.69978 13.0007 5.10548 12.6 5.59978 12.6C6.09408 12.6 6.49978 13.0007 6.49978 13.495V14.505C6.49978 14.9993 6.09408 15.4 5.59978 15.4C5.10548 15.4 4.69978 14.9993 4.69978 14.505V13.495Z" fill="white"/>
</svg>
