<svg xmlns="http://www.w3.org/2000/svg" width="71" height="24" viewBox="0 0 71 24" fill="none"><rect width="71" height="24" fill="none"/>
<path fill-rule="evenodd" clip-rule="evenodd" d="M69 12.0265C69 9.13126 66.625 6.7841 63.6955 6.7841C60.766 6.7841 58.3909 9.13126 58.3909 12.0265C58.3909 14.9219 60.766 17.269 63.6955 17.269C66.625 17.269 69 14.9219 69 12.0265ZM66.9988 12.0265C66.9988 10.2236 65.5199 8.762 63.6955 8.762C61.8712 8.762 60.3924 10.2236 60.3924 12.0265C60.3924 13.8295 61.8712 15.2911 63.6955 15.2911C65.5199 15.2911 66.9988 13.8295 66.9988 12.0265Z" fill="black"/>
<path d="M30.9731 13.506L34.2885 6.81339H34.5891L37.2458 17.3135H35.0988L33.6799 12.0471L30.9686 17.3078H30.6945L27.9892 12.0593L26.6159 17.3019H24.5832V17.2761L27.2406 6.81492H27.5014L30.8168 13.506H30.9731Z" fill="black"/>
<path fill-rule="evenodd" clip-rule="evenodd" d="M38.8875 17.3156V7.01897L41.5751 7.0126C41.5751 7.0126 43.1298 6.93895 43.9682 7.43739C44.8066 7.9356 45.6536 8.8086 45.6536 10.3498C45.6536 11.8909 44.917 12.9771 44.0092 13.5595C43.1017 14.142 40.974 13.9965 40.974 13.9965V17.3156H38.8875ZM40.9852 12.036V9.03875C40.9852 9.03875 42.1581 9.01471 42.427 9.06341C42.6752 9.10862 43.4488 9.25105 43.4488 10.5557C43.4488 11.8601 42.5236 12.0481 42.3349 12.0481C42.1463 12.0481 40.9852 12.036 40.9852 12.036Z" fill="black"/>
<path d="M54.5364 9.75776L55.7564 8.30759C55.7564 8.30759 54.4775 6.83298 52.0726 6.83298C49.8379 6.83298 48.8555 7.6818 48.491 7.99668C48.4632 8.02065 48.4391 8.04153 48.4182 8.0587L48.411 8.06466C48.0963 8.32374 46.3816 9.7349 46.7325 12.9977C47.0862 16.2864 50.1038 17.9367 53.0037 17.5C55.728 17.0895 56.6006 14.9171 56.8329 14.3387C56.8478 14.3016 56.8601 14.2707 56.8701 14.2477C57.0352 13.8654 57.2356 13.0341 57.2592 12.5487C57.2827 12.0632 57.271 11.863 57.271 11.863H52.6441V13.8409H54.66C54.66 13.8409 54.2708 14.915 53.3513 15.2851C52.4319 15.6553 51.4454 15.728 50.4042 15.1092C49.3633 14.4904 48.7422 13.119 48.8719 11.5899C49.0016 10.0609 50.1296 9.12506 50.8287 8.93239C51.5276 8.73948 52.5968 8.67753 53.3983 9.05361C54.1999 9.42992 54.5364 9.75776 54.5364 9.75776Z" fill="black"/>
<path d="M2 4L5.93698 10.8314L7.77815 9.77135L6.3483 7.29792L16.6706 6.45381L10.7162 15.1697L9.32552 12.7159L3.70407 16.0139L8.24824 14.836L11.7935 21L21.587 4H2Z" fill="url(#paint0_linear_2611_32)"/>
<defs>
<linearGradient id="paint0_linear_2611_32" x1="3.64516" y1="5.91935" x2="21.1935" y2="4" gradientUnits="userSpaceOnUse">
<stop stop-color="#48B6B9"/>
<stop offset="1" stop-color="#62F7F2"/>
</linearGradient>
</defs>
</svg>
