<svg xmlns="http://www.w3.org/2000/svg" width="104" height="24" viewBox="0 0 104 24" fill="none"><rect width="104" height="24" fill="none"/>
<path d="M47.4802 19.5048H51.0834V12.0608C51.0834 8.12769 48.5713 6.03896 45.5491 6.03896C43.5494 6.03896 42.0383 6.90485 40.9494 8.10517H40.4608C39.6388 7.03885 38.2166 6.03896 36.1054 6.03896C34.1912 6.03896 32.661 6.88346 31.8604 7.86083H31.3717V6.41617H28.0162V19.5048H31.5946V12.661C31.5946 10.3268 32.2838 9.52731 34.6833 9.52731C37.0828 9.52731 37.7494 10.3268 37.7494 12.661V19.5048H41.3526V12.661C41.3526 10.3268 42.0191 9.52731 44.4198 9.52731C46.8204 9.52731 47.4859 10.3268 47.4859 12.661L47.4802 19.5048ZM13.6631 17.6311C13.019 17.165 12.7296 16.4758 12.7296 15.432C12.7296 14.1203 13.1305 12.5044 13.7971 11.8097C14.2633 11.3424 14.9299 11.1206 15.8408 11.1206C17.1301 11.1206 18.7076 11.4584 19.3742 12.143C19.8189 12.5878 20.0194 13.2093 20.0194 14.0763C20.0194 15.3206 19.6635 17.076 18.8855 17.809C18.4407 18.2099 17.8417 18.3867 16.9972 18.3867C15.843 18.3867 14.3939 18.1187 13.6631 17.6311ZM19.3303 20.3876L19.1749 21.5868L22.5281 22L24.1169 9.03074L20.7648 8.61975L20.6083 9.87637H20.2209C19.7187 8.98908 18.3743 7.78764 15.8408 7.78764C12.3085 7.78764 9.70859 10.3876 9.2413 13.9423C9.19801 14.289 9.17583 14.6379 9.17487 14.9873C9.17487 18.3867 11.4854 21.187 15.0852 21.5868C15.2847 21.6055 15.4851 21.613 15.6854 21.6093C17.1965 21.6093 18.3304 20.9652 18.908 20.3876H19.3303ZM95.1911 16.549C92.5022 16.549 91.6127 15.6606 91.6127 12.9717C91.6127 10.2829 92.5022 9.36854 95.1911 9.36854C97.88 9.36854 98.7684 10.2795 98.7684 12.9717C98.7684 15.664 97.88 16.549 95.1911 16.549ZM77.9464 16.549C75.2575 16.549 74.3691 15.6606 74.3691 12.9717C74.3691 10.2829 75.2575 9.36854 77.9464 9.36854C80.6353 9.36854 81.5248 10.2795 81.5248 12.9717C81.5248 15.664 80.6353 16.549 77.9464 16.549ZM61.1465 16.549C58.4587 16.549 57.5692 15.6606 57.5692 12.9717C57.5692 10.2829 58.4587 9.36854 61.1465 9.36854C63.8343 9.36854 64.7249 10.2795 64.7249 12.9717C64.7249 15.664 63.8354 16.549 61.1465 16.549ZM4.18444 2L2 19.4789L5.56604 19.9135L7.71557 2.43351L4.18444 2ZM98.9238 18.238V19.5048H102.279V6.41617H98.9238V7.68292H98.4351C97.9014 6.97129 96.5468 6.03896 94.7193 6.03896C90.7197 6.03896 87.9869 9.07916 87.9869 12.9717C87.9869 16.8643 90.7197 19.8831 94.7193 19.8831C96.5423 19.8831 97.8969 18.9497 98.4351 18.238H98.9238ZM61.1465 6.03896C56.7022 6.03896 53.9469 9.07916 53.9469 12.9717C53.9469 16.8643 56.7022 19.8831 61.1465 19.8831C65.5908 19.8831 68.3529 16.8609 68.3529 12.9717C68.3529 9.08254 65.5976 6.03896 61.1465 6.03896ZM81.7241 18.238V19.5048H85.0796V2.14976H81.5248V7.68292H81.0361C80.5024 6.97129 79.3021 6.03896 77.4802 6.03896C73.4807 6.03896 70.7468 9.07916 70.7468 12.9717C70.7468 16.8643 73.4807 19.8831 77.4802 19.8831C79.3021 19.8831 80.7243 18.9497 81.2355 18.238H81.7241Z" fill="white"/>
</svg>
