<svg xmlns="http://www.w3.org/2000/svg" width="24" height="24" viewBox="0 0 24 24" fill="none"><rect width="24" height="24" fill="none"/>
<path fill-rule="evenodd" clip-rule="evenodd" d="M17.3485 14.0089C17.4165 13.7257 17.5056 12.8979 17.5056 12.8979H16.7105C16.7056 12.9823 16.6883 13.2652 16.6635 13.5536C16.6266 13.9809 16.5032 14.3742 16.0735 14.3742H15.7421C15.7414 14.3385 15.7421 12.8979 15.7421 12.8979H14.9336V17.365H15.7421V15.0968C15.7421 15.0968 16.1695 15.0975 16.2299 15.0968L17.024 17.3637H17.8919L16.9198 14.7461C17.1216 14.5938 17.2787 14.3008 17.3485 14.0089ZM8.18275 9.00389C8.18961 7.79545 8.48348 7.39793 8.79336 7.39112C9.10289 7.39793 9.39675 7.79545 9.40361 9.00389C9.39675 10.1844 9.10289 10.5884 8.79336 10.5946C8.48348 10.5884 8.18961 10.1844 8.18275 9.00389ZM8.77502 11.3265C8.77864 11.3265 8.78257 11.3271 8.78615 11.3271C8.78615 11.3271 8.79072 11.3265 8.79331 11.3265L8.80017 11.3271C8.80376 11.3271 8.80768 11.3265 8.81126 11.3265C9.34644 11.3164 9.85878 10.9929 10.0808 10.0781C10.166 9.76695 10.2094 9.38117 10.2098 8.983L10.2081 8.83879C10.1941 8.20031 10.0864 7.74272 9.91915 7.41701C9.65567 6.86164 9.2361 6.65382 8.80281 6.6486L8.80017 6.64795L8.79331 6.64829C8.79072 6.64829 8.78615 6.64795 8.78615 6.64795L8.78352 6.6486C8.35023 6.65382 7.93066 6.86164 7.66717 7.41701C7.49995 7.74272 7.3922 8.20031 7.37818 8.83879L7.37624 8.983C7.37658 9.38117 7.4203 9.76695 7.50552 10.0781C7.72754 10.9929 8.24019 11.3164 8.77502 11.3265ZM5.08369 16.674C5.00533 16.674 4.80777 16.6559 4.80777 16.6559V15.0833C4.80777 15.0833 4.87147 15.0684 4.94068 15.0684C5.35046 15.0684 5.83471 15.0437 5.83471 15.8706C5.83471 16.6279 5.30247 16.674 5.08369 16.674ZM5.18169 14.3593C5.04257 14.3593 4.91885 14.3625 4.80782 14.3684V13.6409H6.25726V12.8979H4V17.3637H5.22609C6.44825 17.3637 6.63764 16.2585 6.63764 15.8496C6.63764 15.366 6.44959 14.3593 5.18169 14.3593ZM13.0616 14.3252H11.9528V12.8979H11.1466V17.365H11.9528V15.0676H13.0616V17.365H13.8681V12.8979H13.0616V14.3252ZM15.7365 11.2291V7.50638H16.4075V6.76364H14.2476V7.50638H14.9189V11.2291H15.7365ZM12.5441 9.07302V11.2291H13.3526V6.76364H12.5441V8.31893H12.1046C11.9227 8.31893 11.7879 8.27768 11.702 8.19422C11.6413 8.1361 11.6115 8.05747 11.6115 7.9555V6.76364H10.8021V8.03866C10.8021 8.33257 10.9164 8.581 11.142 8.77846C11.3647 8.97428 11.637 9.07302 11.9534 9.07302H12.5441ZM4.80782 7.50638H5.8086V11.2291H6.61771V6.76364H4V11.2291H4.80782V7.50638ZM8.32218 14.4531C8.32412 14.3624 8.34078 13.7272 8.34211 13.6412L8.48512 13.6317C9.07385 13.6317 9.1816 13.7467 9.2361 14.4531H8.32218ZM8.6768 12.8979H7.58L7.43113 17.3646H8.23009C8.23009 17.3646 8.30388 15.2933 8.30815 15.1949C8.39597 15.1949 9.2348 15.1955 9.31809 15.1955C9.32723 15.2859 9.47805 17.3646 9.47805 17.3646H10.3032C10.3032 17.3646 10.0194 14.2966 9.99657 14.1001C9.90452 13.3097 9.53911 12.8979 8.6768 12.8979ZM18.0189 8.3188C18.0209 8.22818 18.0375 7.59199 18.0388 7.50659H18.191C18.7794 7.50659 18.878 7.6118 18.9328 8.3188H18.0189ZM19.6933 7.9659C19.6009 7.17544 19.2358 6.76364 18.3735 6.76364H17.2767L17.1275 11.2301H17.9268C17.9268 11.2301 18.0006 9.15876 18.0049 9.06098C18.0924 9.06098 18.9315 9.06132 19.0145 9.06132C19.0239 9.15129 19.1748 11.2301 19.1748 11.2301H19.9999C19.9999 11.2301 19.7158 8.16238 19.6933 7.9659Z" fill="#CC003D"/>
</svg>
