<svg xmlns="http://www.w3.org/2000/svg" width="75" height="24" viewBox="0 0 75 24" fill="none"><rect width="75" height="24" fill="none"/>
<path d="M29.1152 3.40582L22.988 19.4049H26.2791L27.5384 16.0621H34.04L35.3046 19.4049H38.5714L32.4822 3.40582H29.1152ZM28.6681 13.1258L30.8085 7.49673L32.9397 13.1258H28.6681ZM42.5052 15.2793L39.8478 8.16567H36.7079L40.988 19.4042H44.1004L48.3045 8.16567H45.1647L42.5052 15.2793ZM52.2534 8.16567H49.2654V19.4042H52.2534V8.16567ZM50.7577 7.356C51.3354 7.356 51.8894 7.12653 52.2978 6.71808C52.7063 6.30962 52.9357 5.75564 52.9357 5.178C52.9357 4.60036 52.7063 4.04638 52.2978 3.63792C51.8894 3.22947 51.3354 3 50.7577 3C50.1801 3 49.6261 3.22947 49.2177 3.63792C48.8092 4.04638 48.5797 4.60036 48.5797 5.178C48.5797 5.75564 48.8092 6.30962 49.2177 6.71808C49.6261 7.12653 50.1801 7.356 50.7577 7.356ZM58.1751 5.16655H55.1956V8.14604H53.4479V10.8545H55.1956V15.6308C55.1956 18.3393 56.6879 19.5044 58.7903 19.5044C59.4996 19.5136 60.2031 19.3761 60.8567 19.1005V16.3161C60.5 16.447 60.1236 16.5151 59.744 16.519C58.8309 16.519 58.1731 16.1642 58.1731 14.9481V10.8552H60.8567V8.17353H58.1751V5.16655ZM67.1384 7.96145C66.3736 7.96111 65.6162 8.11142 64.9094 8.40379C64.2027 8.69616 63.5604 9.12488 63.0193 9.66546C62.4783 10.206 62.049 10.8479 61.756 11.5544C61.463 12.2609 61.312 13.0181 61.3116 13.783C61.3113 14.5478 61.4616 15.3052 61.754 16.012C62.0463 16.7187 62.4751 17.361 63.0156 17.902C63.5562 18.4431 64.1981 18.8724 64.9046 19.1654C65.611 19.4584 66.3683 19.6094 67.1332 19.6097C68.6671 19.5942 70.1329 18.9741 71.2123 17.8842C72.2917 16.7943 72.8976 15.3225 72.8982 13.7885C72.8989 12.2545 72.2944 10.7822 71.216 9.69134C70.1376 8.60044 68.6723 7.97839 67.1384 7.96145ZM67.1384 16.6303C66.5774 16.6308 66.0288 16.4649 65.562 16.1536C65.0953 15.8422 64.7313 15.3995 64.5163 14.8813C64.3012 14.3631 64.2447 13.7927 64.3538 13.2424C64.463 12.6921 64.7329 12.1865 65.1294 11.7896C65.5259 11.3927 66.0313 11.1223 66.5815 11.0127C67.1317 10.903 67.7021 10.959 68.2205 11.1736C68.7389 11.3882 69.182 11.7517 69.4938 12.2182C69.8055 12.6846 69.9719 13.2331 69.9719 13.7941C69.9707 14.5445 69.6715 15.2636 69.1402 15.7934C68.6088 16.3231 67.8887 16.6202 67.1384 16.6191V16.6303Z" fill="black"/>
<path d="M8.93491 8.59636C10.1369 8.59636 11.1113 7.62197 11.1113 6.42C11.1113 5.21803 10.1369 4.24364 8.93491 4.24364C7.73294 4.24364 6.75855 5.21803 6.75855 6.42C6.75855 7.62197 7.73294 8.59636 8.93491 8.59636Z" fill="#965EEB"/>
<path d="M16.5604 12.4713C19.1758 12.4713 21.296 10.3511 21.296 7.73564C21.296 5.12022 19.1758 3 16.5604 3C13.9449 3 11.8247 5.12022 11.8247 7.73564C11.8247 10.3511 13.9449 12.4713 16.5604 12.4713Z" fill="#00AAFF"/>
<path d="M7.82545 21C11.0428 21 13.6509 18.3919 13.6509 15.1745C13.6509 11.9572 11.0428 9.34909 7.82545 9.34909C4.60814 9.34909 2 11.9572 2 15.1745C2 18.3919 4.60814 21 7.82545 21Z" fill="#04E061"/>
<path d="M17.9218 20.2669C19.8649 20.2669 21.44 18.6918 21.44 16.7487C21.44 14.8057 19.8649 13.2305 17.9218 13.2305C15.9788 13.2305 14.4036 14.8057 14.4036 16.7487C14.4036 18.6918 15.9788 20.2669 17.9218 20.2669Z" fill="#FF4053"/>
</svg>
