<svg xmlns="http://www.w3.org/2000/svg" width="24" height="24" viewBox="0 0 24 24" fill="none"><rect width="24" height="24" fill="none"/>
<path fill-rule="evenodd" clip-rule="evenodd" d="M10.9945 2.27169C11.3002 2.09368 11.6466 2 11.9992 2C12.3518 2 12.6983 2.09368 13.004 2.27169L19.8393 6.24998C20.1498 6.43113 20.4077 6.69204 20.5869 7.00642C20.7661 7.3208 20.8603 7.6775 20.86 8.04054V15.9598C20.86 16.6996 20.4701 17.3833 19.8393 17.7503L13.0047 21.7286C12.699 21.9066 12.3525 22.0003 11.9999 22.0003C11.6473 22.0003 11.3009 21.9066 10.9952 21.7286L4.15988 17.7503C3.84937 17.5692 3.59151 17.3082 3.4123 16.9939C3.23309 16.6795 3.13887 16.3228 3.13916 15.9598V8.04054C3.13916 7.30074 3.52902 6.61698 4.15988 6.24998L10.9952 2.27169H10.9945Z" fill="#00B482"/>
<path d="M12.0641 5.67972C12.2866 5.69767 12.422 5.71706 12.6985 5.89375L16.4964 8.47222C16.9664 8.81051 16.9515 8.97498 17.0132 9.19764C17.1571 9.72191 17.0132 10.2462 16.4957 10.6176L10.6691 14.5714L11.9967 15.4721L15.0922 13.3706C15.6558 13.0107 15.8159 13.122 16.0931 13.191C17.0033 13.4165 17.3995 14.8293 16.5531 15.475C16.5347 15.4893 16.5148 15.5023 16.4964 15.5159L12.6985 18.0943C12.5227 18.2071 12.4858 18.2143 12.3958 18.2452C12.0287 18.3694 11.7082 18.3594 11.2943 18.0943L7.49707 15.5159C7.15187 15.2674 6.94418 14.8695 6.93355 14.4436V9.54524C6.94489 9.11431 7.15541 8.71857 7.49707 8.47222L11.2943 5.89375C11.5161 5.75226 11.6615 5.66823 12.0641 5.679V5.67972ZM9.46479 10.2347V12.2903L13.5115 9.54454L11.9967 8.51602L9.46479 10.2347Z" fill="white"/>
</svg>
