<svg xmlns="http://www.w3.org/2000/svg" width="24" height="24" viewBox="0 0 24 24" fill="none"><rect width="24" height="24" fill="none"/>
<path fill-rule="evenodd" clip-rule="evenodd" d="M4.78534 19C7.32676 19 9.24821 15.6927 10.9708 12.0819C11.7998 10.3314 12.5729 8.4972 13.346 6.94222C14.195 5.21739 15.0658 4 16.1313 4C17.0345 4 17.8844 4.72904 18.7303 5.87138C20.4841 8.24308 22 12.2595 22 14.8938C22 17.1005 20.8636 19 18.5347 19H4.78534Z" fill="white"/>
<path fill-rule="evenodd" clip-rule="evenodd" d="M10.9708 12.0819C9.22506 8.56417 8.43464 5.98314 6.89059 5.98314C5.93109 5.98314 4.85053 6.98879 3.87241 8.63678C2.82454 10.3855 2 12.8532 2 15.5084C2 17.6051 3.0267 19 4.78534 19C7.32676 19 9.24821 15.6927 10.9708 12.0819Z" fill="white" fill-opacity="0.9"/>
</svg>
