<svg xmlns="http://www.w3.org/2000/svg" width="24" height="24" viewBox="0 0 24 24" fill="none"><rect width="24" height="24" fill="none"/>
<path d="M17.5532 19.3831L17.5538 19.3826L21.2231 16.1394L20.5995 14.8412L17.5538 17.481L17.5537 17.4811C17.4822 17.5406 17.4488 17.5685 17.4196 17.5645C17.3941 17.5611 17.3718 17.5333 17.3302 17.4814L17.3299 17.481C15.2255 15.3341 13.3674 12.9636 11.5093 10.5931L11.5073 10.5906L15.4711 5.60177C15.7623 6.94406 16.9491 7.95076 18.3824 7.95076C20.0172 7.95076 21.3609 6.63089 21.3609 4.97538C21.3384 3.31992 19.9948 2 18.36 2C16.9044 2 16.0534 2.51453 15.2248 3.43178C14.9393 3.80775 14.0972 4.86744 13.1824 6.01869L13.182 6.01918L13.1356 6.07752C12.4858 6.89532 11.8035 7.754 11.261 8.44294V2.71587L2.63916 6.5414V22L11.261 18.1969V12.9619L17.0836 19.3826L17.084 19.3831C17.194 19.5039 17.2499 19.5653 17.3077 19.5671C17.3672 19.5689 17.4286 19.5076 17.5532 19.3831Z" fill="white"/>
</svg>
