<svg xmlns="http://www.w3.org/2000/svg" width="24" height="24" viewBox="0 0 24 24" fill="none"><rect width="24" height="24" fill="none"/>
<path fill-rule="evenodd" clip-rule="evenodd" d="M6.77101 5.07026C6.48467 5.24782 6.31047 5.56079 6.31047 5.89773V17.9231C6.31047 18.4608 5.87456 18.8967 5.33685 18.8967H4.69792C4.16022 18.8967 3.7243 19.3326 3.7243 19.8703V21.0264C3.7243 21.5643 4.16022 22 4.69792 22H19.3021C19.8398 22 20.2757 21.5643 20.2757 21.0264V19.8703C20.2757 19.3326 19.8398 18.8967 19.3021 18.8967H18.6632C18.1255 18.8967 17.6896 18.4608 17.6896 17.9231V5.89773C17.6896 5.56079 17.5154 5.24782 17.229 5.07026L12.5131 2.14615C12.1988 1.95128 11.8012 1.95128 11.487 2.14615L6.77101 5.07026Z" fill="white"/>
<path fill-rule="evenodd" clip-rule="evenodd" d="M15.5511 7.22381C15.7134 7.47106 15.6445 7.80304 15.3972 7.9653L9.19043 12.0385C8.94317 12.2007 8.6112 12.1318 8.44894 11.8846C8.28668 11.6373 8.35558 11.3054 8.60283 11.1431L14.8096 7.06991C15.0569 6.90765 15.3889 6.97655 15.5511 7.22381Z" fill="#222222"/>
<path fill-rule="evenodd" clip-rule="evenodd" d="M15.5511 10.9091C15.7134 11.1563 15.6445 11.4883 15.3972 11.6506L9.19043 15.7238C8.94318 15.886 8.6112 15.8171 8.44894 15.5699C8.28668 15.3226 8.35558 14.9907 8.60283 14.8284L14.8096 10.7552C15.0569 10.5929 15.3889 10.6618 15.5511 10.9091Z" fill="#222222"/>
</svg>
