<svg xmlns="http://www.w3.org/2000/svg" width="24" height="24" viewBox="0 0 24 24" fill="none"><rect width="24" height="24" fill="none"/>
<path d="M11.48 12.5389H2V22H11.48V12.5389Z" fill="#A6A8AB"/>
<path d="M22 12.5389H12.52V22H22V12.5389Z" fill="#A6A8AB"/>
<path d="M11.48 2H2V11.4611H11.48V2Z" fill="#A20C33"/>
<path d="M22 2H12.52V11.4611H22V2Z" fill="#A6A8AB"/>
<path d="M5.56 15.1737V17.1098H8.34V17.7884H5.56V20.024H4.76V14.4751H8.68V15.1537L5.56 15.1737Z" fill="white"/>
<path d="M15.36 14.4751H16.16V19.3254H19.16V20.004H15.36V14.4751Z" fill="white"/>
<path d="M4.6 8.86627L4.88 8.2475C5.28 8.62675 6 8.88623 6.72 8.88623C7.68 8.88623 8.1 8.50699 8.1 8.02794C8.1 6.69062 4.74 7.52894 4.74 5.45309C4.74 4.59481 5.4 3.87625 6.86 3.87625C7.52 3.87625 8.18 4.03593 8.66 4.37525L8.4 5.01397C7.92 4.71457 7.36 4.57485 6.88 4.57485C5.94 4.57485 5.54 4.97405 5.54 5.45309C5.54 6.79042 8.9 5.9521 8.9 8.00798C8.9 8.86627 8.22 9.58483 6.76 9.58483C5.86 9.54491 5.02 9.26547 4.6 8.86627Z" fill="white"/>
<path d="M14.44 6.71058C14.44 5.09381 15.64 3.87625 17.28 3.87625C18.9 3.87625 20.1 5.07385 20.1 6.71058C20.1 8.34731 18.9 9.54491 17.28 9.54491C15.64 9.54491 14.44 8.34731 14.44 6.71058ZM19.34 6.71058C19.34 5.49301 18.46 4.59481 17.28 4.59481C16.08 4.59481 15.2 5.49301 15.2 6.71058C15.2 7.92814 16.08 8.82635 17.28 8.82635C18.46 8.86627 19.34 7.9481 19.34 6.71058Z" fill="white"/>
</svg>
