<svg xmlns="http://www.w3.org/2000/svg" width="24" height="24" viewBox="0 0 24 24" fill="none"><rect width="24" height="24" fill="none"/>
<path d="M19.1873 17.8947C18.4992 17.8947 18.3639 17.6045 18.3639 17.1018V14.9527C18.3639 14.4694 18.4957 14.1598 19.1873 14.1598C19.9268 14.1598 20.0518 14.4694 20.0518 14.9527V17.1018C20.0518 17.6045 19.8787 17.8947 19.1873 17.8947ZM19.1873 18.7345C20.4484 18.7345 21.0058 18.2455 21.0058 17.1498V14.9036C21.0058 13.7804 20.4737 13.3189 19.1873 13.3189C17.9007 13.3189 17.41 13.7759 17.41 14.9036V17.1498C17.41 18.2455 17.9213 18.7345 19.1873 18.7345Z" fill="#E2000F"/>
<path d="M12.0864 17.8296V14.2489H12.9016C13.6412 14.2489 13.7525 14.5117 13.7525 15.0144V17.0813C13.7525 17.584 13.5793 17.825 12.8879 17.825L12.0864 17.8296ZM11.1381 13.3863V18.6865H12.8879C14.1491 18.6865 14.7064 18.2295 14.7064 17.1292V14.9664C14.7064 13.8433 14.1744 13.3817 12.8879 13.3817L11.1381 13.3863Z" fill="#E2000F"/>
<path d="M8.20621 16.8196L8.64879 14.859L9.09135 16.823L8.20621 16.8196ZM9.13269 13.392H8.18557L6.71332 18.6865H7.69253L7.96885 17.7496H9.33109L9.60162 18.6865H10.5831L9.13269 13.392Z" fill="#E2000F"/>
<path d="M3.97536 15.9444V14.2558H4.3824C5.12311 14.2558 5.25382 14.5185 5.25382 15.0213V15.2018C5.25382 15.7045 5.06004 15.9456 4.36865 15.9456L3.97536 15.9444ZM6.50593 18.6865L5.33752 16.6677C5.97962 16.4609 6.25482 16.0335 6.25482 15.2486V14.9733C6.25482 13.8502 5.65284 13.3817 4.36635 13.3817H3.02482V18.6865H3.97994V16.8196H4.33194L5.39026 18.6865H6.50593Z" fill="#E2000F"/>
<path d="M16.5202 13.3886H15.5593V18.6945H16.5202V13.3886Z" fill="#E2000F"/>
<path d="M15.421 12.2083C15.421 13.031 16.6593 13.023 16.6593 12.2083C16.6593 11.3937 15.421 11.3777 15.421 12.2083Z" fill="#E2000F"/>
<path d="M15.001 10.4854C14.9835 10.4978 14.9638 10.5065 14.9429 10.5109C14.9219 10.5153 14.9003 10.5153 14.8794 10.5109C14.8583 10.5066 14.8386 10.4979 14.8211 10.4856C14.8036 10.4732 14.7891 10.4574 14.778 10.439C14.7671 10.4207 14.76 10.4004 14.7573 10.3792C14.7547 10.358 14.7564 10.3366 14.7625 10.3161C14.7687 10.2957 14.7789 10.2767 14.7927 10.2604C14.8066 10.2441 14.8235 10.2309 14.8427 10.2215C15.203 10.0053 15.6159 9.89152 16.0364 9.89241C16.5591 9.89281 17.0666 10.0687 17.4768 10.3916C17.8871 10.7146 18.1761 11.1658 18.2975 11.6725C18.3036 11.7109 18.2949 11.7502 18.2731 11.7825C18.2515 11.8148 18.2183 11.8378 18.1802 11.8467C18.1422 11.8557 18.1022 11.85 18.0683 11.8308C18.0344 11.8116 18.0088 11.7804 17.9971 11.7433C17.9339 11.481 17.8184 11.2341 17.6575 11.0171C17.4967 10.8002 17.2936 10.6177 17.0606 10.4806C16.8274 10.3434 16.5692 10.2543 16.3007 10.2186C16.0324 10.1829 15.7597 10.2014 15.4986 10.2729C15.3234 10.3201 15.1553 10.3904 14.9987 10.482L15.001 10.4854Z" fill="#E2000F"/>
<path d="M14.9403 8.82871C14.9014 8.84113 14.859 8.83764 14.8227 8.81899C14.7863 8.80036 14.759 8.7681 14.7464 8.72931C14.7339 8.69052 14.7376 8.64839 14.7562 8.61219C14.7749 8.57596 14.8073 8.54865 14.8462 8.53621C15.2298 8.41176 15.6306 8.34776 16.0342 8.34657C17.0611 8.34657 18.0458 8.75305 18.7722 9.47664C19.4983 10.2002 19.9062 11.1816 19.9062 12.2049V12.3294C19.9019 12.368 19.8832 12.4035 19.8539 12.4289C19.8245 12.4543 19.7867 12.4678 19.7477 12.4666C19.7088 12.4654 19.6718 12.4498 19.6441 12.4227C19.6163 12.3956 19.5997 12.359 19.5978 12.3203V12.206C19.5979 11.7397 19.5059 11.2779 19.3267 10.847C19.1477 10.4161 18.8853 10.0245 18.5544 9.69478C18.2233 9.365 17.8305 9.10345 17.3981 8.92504C16.9656 8.74664 16.5021 8.65489 16.0342 8.65505C15.8479 8.655 15.6619 8.66913 15.4781 8.69732C15.2949 8.7259 15.1143 8.76869 14.9379 8.82529L14.9403 8.82871Z" fill="#E2000F"/>
<path fill-rule="evenodd" clip-rule="evenodd" d="M21.0058 17.1498C21.0058 18.2455 20.4484 18.7345 19.1873 18.7345C17.9213 18.7345 17.41 18.2455 17.41 17.1498V14.9036C17.41 13.7759 17.9007 13.3189 19.1873 13.3189C20.4737 13.3189 21.0058 13.7804 21.0058 14.9036V17.1498ZM11.1381 18.6865V13.3863L12.8879 13.3817C14.1744 13.3817 14.7064 13.8433 14.7064 14.9664V17.1292C14.7064 18.2295 14.1491 18.6865 12.8879 18.6865H11.1381ZM8.18557 13.392H9.13269L10.5831 18.6865H9.60162L9.33109 17.7496H7.96885L7.69253 18.6865H6.71332L8.18557 13.392ZM5.33752 16.6677L6.50593 18.6865H5.39026L4.33194 16.8196H3.97994V18.6865H3.02482V13.3817H4.36635C5.65284 13.3817 6.25482 13.8502 6.25482 14.9733V15.2486C6.25482 16.0335 5.97962 16.4609 5.33752 16.6677ZM15.5593 13.3886H16.5202V18.6945H15.5593V13.3886ZM12.0864 14.2489V17.8296L12.8879 17.825C13.5793 17.825 13.7525 17.584 13.7525 17.0813V15.0144C13.7525 14.5117 13.6412 14.2489 12.9016 14.2489H12.0864ZM19.1873 17.8947C18.4992 17.8947 18.3639 17.6045 18.3639 17.1018V14.9527C18.3639 14.4694 18.4957 14.1598 19.1873 14.1598C19.9268 14.1598 20.0518 14.4694 20.0518 14.9527V17.1018C20.0518 17.6045 19.8787 17.8947 19.1873 17.8947ZM3.97536 14.2558V15.9444L4.36865 15.9456C5.06004 15.9456 5.25382 15.7045 5.25382 15.2018V15.0213C5.25382 14.5185 5.12311 14.2558 4.3824 14.2558H3.97536ZM8.20621 16.8196L8.64879 14.859L9.09135 16.823L8.20621 16.8196Z" fill="white"/>
<path d="M14.9403 7.22916C14.9017 7.23426 14.8626 7.22473 14.8308 7.20245C14.799 7.18017 14.7768 7.14679 14.7685 7.10892C14.7604 7.07108 14.7668 7.03152 14.7863 6.99812C14.806 6.96471 14.8377 6.93993 14.8749 6.92867C15.0641 6.88726 15.2556 6.85598 15.4481 6.83498C15.642 6.81442 15.8368 6.80412 16.0317 6.80413C16.7437 6.80383 17.4486 6.94332 18.1064 7.21463C18.764 7.48594 19.3617 7.88374 19.865 8.38531C20.3684 8.88688 20.7676 9.48238 21.0398 10.1378C21.3121 10.7932 21.452 11.4956 21.4519 12.2049C21.4519 12.3481 21.4462 12.4909 21.4346 12.6334C21.4244 12.7739 21.4071 12.9156 21.3842 13.0595C21.3754 13.0978 21.3524 13.1312 21.3197 13.1532C21.2872 13.1751 21.2474 13.1838 21.2085 13.1775C21.1698 13.1713 21.1346 13.1505 21.1106 13.1195C21.0867 13.0884 21.0753 13.0494 21.0791 13.0104C21.0999 12.8813 21.116 12.7476 21.1262 12.6094C21.1365 12.4711 21.1422 12.342 21.1422 12.2049C21.1424 11.5363 21.0104 10.8743 20.7537 10.2565C20.4971 9.63878 20.1208 9.07745 19.6465 8.60459C19.1722 8.13173 18.609 7.75659 17.9893 7.5006C17.3693 7.2446 16.7051 7.11276 16.0342 7.11262C15.8499 7.11278 15.6657 7.12231 15.4825 7.14118C15.3004 7.16075 15.1193 7.19012 14.9403 7.22916Z" fill="#E2000F"/>
<path d="M14.9356 5.66388C14.915 5.66856 14.8936 5.66898 14.8728 5.66511C14.8521 5.66124 14.8323 5.65316 14.8147 5.64137C14.7972 5.62959 14.7822 5.61434 14.7709 5.59658C14.7595 5.57882 14.7519 5.55892 14.7485 5.5381C14.7452 5.51729 14.746 5.49601 14.7512 5.47558C14.7564 5.45514 14.7657 5.43599 14.7787 5.41929C14.7917 5.4026 14.8078 5.38872 14.8263 5.37852C14.8448 5.36831 14.8652 5.362 14.8863 5.35997C15.0755 5.32798 15.267 5.30398 15.4597 5.28913C15.6522 5.27428 15.8449 5.26514 16.033 5.26514C17.2061 5.26528 18.3601 5.56055 19.3883 6.12359C20.4163 6.68662 21.2851 7.49919 21.9141 8.48597C22.543 9.47273 22.9118 10.6017 22.986 11.7684C23.0604 12.935 22.8379 14.1014 22.3392 15.1595C22.3316 15.1793 22.32 15.1973 22.3051 15.2124C22.2903 15.2275 22.2725 15.2394 22.2527 15.2473C22.233 15.2553 22.2119 15.2591 22.1906 15.2585C22.1694 15.2579 22.1484 15.253 22.1292 15.244C22.11 15.2351 22.0927 15.2223 22.0787 15.2064C22.0647 15.1905 22.054 15.1719 22.0474 15.1518C22.041 15.1316 22.0386 15.1103 22.0407 15.0893C22.0427 15.0682 22.0491 15.0478 22.0595 15.0293C22.5366 14.018 22.7497 12.9031 22.6791 11.7879C22.6084 10.6727 22.2562 9.59333 21.6553 8.64991C21.0544 7.70648 20.2241 6.92957 19.2414 6.39118C18.2586 5.85281 17.1556 5.57041 16.0342 5.57019C15.8472 5.57019 15.6626 5.57819 15.4803 5.59304C15.298 5.6079 15.111 5.63075 14.9334 5.66045L14.9356 5.66388Z" fill="#E2000F"/>
<path d="M14.0773 6.86646H10.9242V7.71308H12.0306V12.1507H12.9777V7.71308H14.0773V6.86646Z" fill="white"/>
<path d="M7.24609 6.84591V12.1576H10.4061V11.2892H8.20008V9.89077H9.99795V9.03616H8.20008V7.67196H10.3087V6.84591H7.24609Z" fill="white"/>
<path d="M4.80476 9.99474H5.71059V10.5112C5.71059 11.0345 5.46865 11.3235 4.77724 11.3235C4.08584 11.3235 3.95398 11.0345 3.95398 10.5317V8.45118C3.95398 7.96901 4.08584 7.65825 4.77724 7.65825C5.52255 7.65825 5.6372 7.90619 5.6372 8.40204H6.59118C6.59118 7.25951 6.05915 6.81848 4.77266 6.81848C3.50228 6.81848 3.01231 7.30869 3.00023 8.36168C3.00008 8.37504 3 8.38849 3 8.40204V10.5317C3 10.5457 3.00008 10.5596 3.00023 10.5733C3.01261 11.6865 3.52686 12.1781 4.77724 12.1781C6.0431 12.1781 6.59576 11.6754 6.59576 10.5112V9.13326H4.80476V9.99474Z" fill="white"/>
</svg>
