<svg xmlns="http://www.w3.org/2000/svg" width="24" height="24" viewBox="0 0 24 24" fill="none"><rect width="24" height="24" fill="none"/>
<path fill-rule="evenodd" clip-rule="evenodd" d="M21.9987 12.0021C21.9987 17.5271 17.5246 22 12.0016 22C6.47788 22 1.99872 17.5267 1.99872 12.0021C1.99872 6.4775 6.47788 2 12.0016 2C17.525 2 21.9987 6.4775 21.9987 12.0021ZM11.2229 6.82208C9.65622 6.82208 8.63997 6.90833 7.90413 7.18167C6.66788 7.66333 5.81413 8.67292 5.81413 9.99917C5.81413 11.1042 6.32872 11.9042 7.81747 12.8242C9.40622 13.7875 9.72288 14.1058 9.72288 14.6858C9.72288 15.3212 9.1008 16.0442 7.49955 16.0442C6.94122 16.0442 6.09913 15.9667 5.56122 15.835L5.30455 15.7704C5.16163 16.1542 4.83663 17.0621 4.73747 17.3912L4.99163 17.4662C5.47497 17.6204 6.62372 17.7412 7.4458 17.7412C10.1825 17.7412 11.8154 16.0875 11.8154 14.3567C11.8154 13.2929 11.3321 12.4842 9.69997 11.4658C8.88122 10.9617 8.46413 10.6354 8.21038 10.3825C8.00538 10.1187 7.98247 9.92208 7.98247 9.71458C7.98247 9.51667 8.02663 9.28833 8.15747 9.12125C8.2983 8.91417 8.55747 8.7825 8.9083 8.67375C9.26872 8.55417 9.93622 8.55125 10.9762 8.55125H11.945L12.6366 6.82208H11.2229ZM13.6754 6.82208H18.5421C18.7704 6.82208 18.8141 6.98375 18.7262 7.15958C18.4079 7.94833 15.4054 15.4708 15.4054 15.4708H13.3987C13.3987 15.4708 15.77 9.42792 16.1637 8.52792C16.0728 8.52792 15.9893 8.5304 15.8777 8.53372L15.8766 8.53375C15.6537 8.54083 15.32 8.55125 14.5966 8.55125H12.9837L13.6754 6.82208Z" fill="#C7D544"/>
<path d="M11.2229 6.82208C9.65622 6.82208 8.63997 6.90833 7.90413 7.18167C6.66788 7.66333 5.81413 8.67292 5.81413 9.99917C5.81413 11.1042 6.32872 11.9042 7.81747 12.8242C9.40622 13.7875 9.72288 14.1058 9.72288 14.6858C9.72288 15.3212 9.1008 16.0442 7.49955 16.0442C6.94122 16.0442 6.09913 15.9667 5.56122 15.835L5.30455 15.7704C5.16163 16.1542 4.83663 17.0621 4.73747 17.3912L4.99163 17.4662C5.47497 17.6204 6.62372 17.7412 7.4458 17.7412C10.1825 17.7412 11.8154 16.0875 11.8154 14.3567C11.8154 13.2929 11.3321 12.4842 9.69997 11.4658C8.88122 10.9617 8.46413 10.6354 8.21038 10.3825C8.00538 10.1187 7.98247 9.92208 7.98247 9.71458C7.98247 9.51667 8.02663 9.28833 8.15747 9.12125C8.2983 8.91417 8.55747 8.7825 8.9083 8.67375C9.26872 8.55417 9.93622 8.55125 10.9762 8.55125H11.945L12.6366 6.82208H11.2229Z" fill="white"/>
<path d="M13.6754 6.82208H18.5421C18.7704 6.82208 18.8141 6.98375 18.7262 7.15958C18.4079 7.94833 15.4054 15.4708 15.4054 15.4708H13.3987C13.3987 15.4708 15.77 9.42792 16.1637 8.52792C16.0728 8.52792 15.9893 8.5304 15.8777 8.53372L15.8766 8.53375C15.6537 8.54083 15.32 8.55125 14.5966 8.55125H12.9837L13.6754 6.82208Z" fill="white"/>
</svg>
