<svg xmlns="http://www.w3.org/2000/svg" width="144" height="24" viewBox="0 0 144 24" fill="none"><rect width="144" height="24" fill="none"/>
<path d="M66.8374 17.5285H72.9308C76.1617 17.5285 78.1087 15.8817 78.1087 13.1763V13.155C78.1087 11.1232 76.709 9.61545 74.5516 9.39089V9.34812C76.1511 9.11286 77.3614 7.60511 77.3614 5.97973V5.95834C77.3614 3.6272 75.5934 2.09805 72.8993 2.09805H66.8374V17.5285ZM72.331 4.05493C74.0359 4.05493 75.0146 4.83555 75.0146 6.24706V6.26844C75.0146 7.81897 73.8885 8.67445 71.8048 8.67445H69.1948V4.05493H72.331ZM72.2889 10.5244C74.541 10.5244 75.6986 11.3799 75.6986 13.0373V13.0587C75.6986 14.7055 74.5621 15.5716 72.4467 15.5716H69.1948V10.5244H72.2889Z" fill="white"/>
<path d="M110.736 17.7531C113.346 17.7531 115.241 16.3416 115.241 14.2885V14.2777C115.241 12.663 114.378 11.7541 112.115 11.2195L110.315 10.8024C109.126 10.5137 108.674 10.0432 108.674 9.34812V9.33742C108.674 8.43919 109.442 7.85106 110.663 7.85106C111.947 7.85106 112.705 8.53543 112.841 9.51922L112.852 9.59407H114.988L114.978 9.46575C114.862 7.55164 113.284 6.06528 110.663 6.06528C108.116 6.06528 106.39 7.44471 106.39 9.45506V9.46575C106.39 11.1018 107.432 12.1284 109.537 12.6203L111.347 13.0373C112.536 13.326 112.936 13.743 112.936 14.4702V14.4809C112.936 15.3898 112.115 15.9673 110.747 15.9673C109.347 15.9673 108.59 15.3577 108.38 14.3205L108.358 14.2136H106.106L106.116 14.3098C106.348 16.3629 107.969 17.7531 110.736 17.7531Z" fill="white"/>
<path d="M121.277 17.7531C121.741 17.7531 122.171 17.6996 122.435 17.6568V15.8711C122.266 15.8924 122.066 15.9138 121.825 15.9138C120.866 15.9138 120.361 15.5716 120.361 14.4275V8.11839H122.435V6.27914H120.361V3.34917H118.035V6.27914H116.446V8.11839H118.035V14.5665C118.035 16.8121 119.088 17.7531 121.277 17.7531Z" fill="white"/>
<path d="M129.156 17.7531C131.839 17.7531 133.544 16.1276 133.901 14.3419L133.922 14.2243H131.765L131.734 14.3098C131.45 15.1546 130.555 15.8603 129.208 15.8603C127.398 15.8603 126.251 14.6199 126.208 12.492H134.049V11.7114C134.049 8.33225 132.144 6.06528 129.04 6.06528C125.935 6.06528 123.936 8.4178 123.936 11.9359V11.9466C123.936 15.4968 125.903 17.7531 129.156 17.7531ZM129.05 7.95799C130.534 7.95799 131.607 8.9097 131.796 10.8559H126.24C126.44 8.97385 127.576 7.95799 129.05 7.95799Z" fill="white"/>
<path d="M136.201 17.5285H138.475V10.8238C138.475 9.14495 139.38 8.17186 140.843 8.17186C141.285 8.17186 141.685 8.22532 141.864 8.30018V6.15082C141.685 6.11874 141.401 6.06528 141.074 6.06528C139.811 6.06528 138.886 6.88865 138.527 8.20393H138.475V6.27913H136.201V17.5285Z" fill="white"/>
<path fill-rule="evenodd" clip-rule="evenodd" d="M84.6218 6.11768C87.7595 5.50656 90.7904 7.59736 91.392 10.7876C91.9929 13.9779 89.9362 17.0595 86.7987 17.6706C85.5737 17.9091 84.3659 17.7362 83.312 17.2471L79.7854 21.608C79.4147 22.0663 78.7488 22.1324 78.2981 21.7556C77.8472 21.3787 77.7822 20.7017 78.1529 20.2434L81.5766 16.0097C80.8063 15.2115 80.251 14.1814 80.0285 13.0007C79.4274 9.81044 81.4839 6.72881 84.6218 6.11768ZM83.657 14.9887C83.6512 14.9846 83.6453 14.9806 83.6393 14.9766C82.8666 14.44 82.2942 13.6047 82.1042 12.5965C81.7228 10.5717 83.0279 8.61589 85.0194 8.22803C87.0112 7.84017 88.9345 9.16713 89.3162 11.1919C89.6979 13.2166 88.392 15.1724 86.4012 15.5603C85.4087 15.7536 84.4333 15.5211 83.657 14.9887Z" fill="white"/>
<path fill-rule="evenodd" clip-rule="evenodd" d="M97.7162 6.11768C100.854 5.50656 103.885 7.59736 104.486 10.7876C105.087 13.9779 103.03 17.0595 99.8929 17.6706C96.7554 18.2817 93.7237 16.191 93.1229 13.0007C92.522 9.81044 94.5787 6.72881 97.7162 6.11768ZM102.41 11.1919C102.029 9.16714 100.105 7.84017 98.1137 8.22803C96.1221 8.61589 94.8171 10.5717 95.1987 12.5965C95.5804 14.6212 97.5037 15.9481 99.4954 15.5603C101.487 15.1725 102.792 13.2166 102.41 11.1919Z" fill="white"/>
<path d="M2.66633 15.7371L3.15694 15.25C3.15694 15.25 3.15694 15.25 3.94085 15.958C4.82339 16.6096 5.92833 16.9353 7.25568 16.9353C8.54772 16.9353 9.60324 16.6131 10.4222 15.9685C11.2483 15.317 11.6613 14.4938 11.6613 13.499C11.6613 12.7074 11.3754 12.0664 10.8035 11.576C10.2316 11.0856 9.30317 10.6793 8.01819 10.357L6.20722 9.91569C4.78809 9.55841 3.74669 9.08203 3.08301 8.48655C2.4264 7.88408 2.0981 7.10995 2.0981 6.1642C2.0981 4.99427 2.58173 4.024 3.549 3.25338C4.51627 2.48277 5.7024 2.09746 7.10741 2.09746C8.54066 2.09746 9.74092 2.46876 10.7082 3.21135C11.6755 3.95394 11.4973 4.04598 11.4973 4.04598L11.0067 4.53311C11.0067 4.53311 10.9059 4.34625 10.0939 3.75778C9.28906 3.16231 8.28648 2.86457 7.08623 2.86457C5.92127 2.86457 4.93989 3.17632 4.14207 3.79982C3.35131 4.41631 2.95593 5.19743 2.95593 6.14318C2.95593 6.89278 3.24187 7.50226 3.81376 7.97164C4.38565 8.44102 5.29291 8.82983 6.53552 9.13807L8.24059 9.56892C9.73032 9.93321 10.8141 10.4201 11.4919 11.0295C12.1767 11.632 12.5191 12.4342 12.5191 13.436C12.5191 14.697 12.0285 15.7233 11.047 16.515C10.0657 17.3066 8.78071 17.7024 7.19213 17.7024C5.62474 17.7024 4.32917 17.3066 3.30541 16.515C3.12866 16.3783 2.66633 15.7371 2.66633 15.7371Z" fill="white"/>
<path d="M19.0066 7.10995C17.8699 7.10995 16.9379 7.50927 16.2107 8.30791C15.4835 9.10655 15.0916 10.1609 15.0351 11.471H22.8933C22.8863 10.1749 22.5262 9.12406 21.8131 8.31842C21.1 7.51277 20.1645 7.10995 19.0066 7.10995ZM22.7768 14.4238H23.6028C23.4123 15.3766 22.9145 16.1541 22.1096 16.7566C21.3047 17.3521 20.3022 17.6498 19.1019 17.6498C17.591 17.6498 16.3943 17.1525 15.5117 16.1576C14.6292 15.1559 14.1879 13.7793 14.1879 12.0279C14.1879 10.3325 14.6292 8.96994 15.5117 7.94012C16.3943 6.90329 17.5627 6.38488 19.0172 6.38488C20.4363 6.38488 21.5766 6.87177 22.4379 7.84554C23.3063 8.81932 23.7406 10.1013 23.7406 11.6916V12.154H15.0246V12.196C15.0246 13.6672 15.3917 14.8231 16.126 15.6638C16.8673 16.5045 17.8628 16.9248 19.1125 16.9248C20.0939 16.9248 20.9058 16.6936 21.5483 16.2312C22.1978 15.7689 22.6073 15.1664 22.7768 14.4238Z" fill="white"/>
<path d="M29.4443 16.9353C30.5316 16.9353 31.4565 16.5955 32.219 15.916C32.9886 15.2294 33.3734 14.3993 33.3734 13.4255V11.8072L29.6985 12.0699C28.6677 12.147 27.8769 12.3992 27.3262 12.8265C26.7825 13.2469 26.5108 13.8178 26.5108 14.5394C26.5108 15.24 26.7861 15.8144 27.3368 16.2627C27.8875 16.7111 28.59 16.9353 29.4443 16.9353ZM29.3278 17.6498C28.2546 17.6498 27.3792 17.3626 26.7014 16.7881C26.0236 16.2067 25.6847 15.4571 25.6847 14.5394C25.6847 13.6076 26.013 12.8755 26.6696 12.3431C27.3333 11.8107 28.304 11.4955 29.5819 11.3974L33.3734 11.1347V10.1574C33.3734 9.21163 33.098 8.46904 32.5473 7.92961C32.0037 7.39018 31.2447 7.12046 30.2704 7.12046C29.3172 7.12046 28.5476 7.34815 27.9616 7.80351C27.3756 8.25887 27.012 8.89988 26.8708 9.72654H26.0765C26.1824 8.70373 26.6096 7.89107 27.3579 7.2886C28.1134 6.68612 29.0878 6.38488 30.281 6.38488C31.4883 6.38488 32.4415 6.71765 33.1404 7.38317C33.8465 8.0487 34.1995 8.95242 34.1995 10.0943V17.4817H33.4051V15.1384H33.384C33.1015 15.881 32.5826 16.4869 31.8271 16.9563C31.0788 17.4186 30.2456 17.6498 29.3278 17.6498Z" fill="white"/>
<path d="M36.9484 17.4817V6.55301H37.7216V8.70723H37.7427C37.9687 7.95763 38.3358 7.38317 38.8442 6.98385C39.3525 6.58454 39.9702 6.38488 40.6975 6.38488C41.0999 6.38488 41.4423 6.44443 41.7248 6.56352V7.38317C41.4282 7.23606 41.047 7.1625 40.581 7.1625C39.7267 7.1625 39.0453 7.48826 38.537 8.13978C38.0287 8.7913 37.7745 9.63547 37.7745 10.6723V17.4817H36.9484Z" fill="white"/>
<path d="M53.8841 17.4817V2.31814H54.6996V8.9279H54.7314C54.9786 8.1643 55.4445 7.55131 56.1294 7.08894C56.8142 6.61956 57.6156 6.38488 58.5334 6.38488C59.7407 6.38488 60.7115 6.75267 61.4458 7.48826C62.1872 8.21684 62.5578 9.19061 62.5578 10.4096V17.4817H61.7423V10.5147C61.7423 9.47084 61.4352 8.64418 60.8209 8.03469C60.2067 7.42521 59.3842 7.12046 58.3534 7.12046C57.2731 7.12046 56.3941 7.47775 55.7163 8.19232C55.0386 8.90689 54.6996 9.83162 54.6996 10.9665V17.4817H53.8841Z" fill="white"/>
<path fill-rule="evenodd" clip-rule="evenodd" d="M7.10743 2.19485C5.72162 2.19485 4.55799 2.57443 3.61043 3.32934C2.66497 4.08258 2.19624 5.02552 2.19624 6.16417C2.19624 7.08455 2.51441 7.83192 3.14922 8.41459C3.79573 8.99448 4.81908 9.46562 6.23098 9.82113L8.04161 10.2624C9.33181 10.586 10.2785 10.997 10.8676 11.5022C11.4625 12.0123 11.7595 12.6809 11.7595 13.499C11.7595 14.5253 11.3314 15.3759 10.4833 16.0448C9.64317 16.7059 8.5645 17.0326 7.2557 17.0326C5.91174 17.0326 4.78506 16.7026 3.88232 16.0361L3.87452 16.0304L3.16016 15.3845L2.79494 15.7471C2.80267 15.7576 2.81119 15.7692 2.8204 15.7816C2.86622 15.8435 2.92908 15.9273 2.99734 16.0152C3.0657 16.1033 3.13895 16.1949 3.20565 16.2725C3.27406 16.3521 3.33032 16.4106 3.36573 16.4381C4.36889 17.2137 5.64192 17.6049 7.19216 17.6049C8.76411 17.6049 10.0254 17.2135 10.9852 16.4393C11.9435 15.6662 12.421 14.6678 12.421 13.436C12.421 12.4589 12.0884 11.6845 11.4269 11.1025L11.426 11.1018C10.7659 10.5081 9.70051 10.0262 8.21715 9.66347L6.51176 9.23256C5.2639 8.923 4.33983 8.52975 3.75127 8.0467C3.15638 7.55845 2.85783 6.9212 2.85783 6.14315C2.85783 5.16566 3.26854 4.35699 4.0814 3.72322M2.58657 15.7937L2.53813 15.7266L3.15376 15.1153L4.00329 15.8826C4.865 16.5174 5.94693 16.8378 7.2557 16.8378C8.53098 16.8378 9.56344 16.5201 10.3613 15.8921C11.1653 15.258 11.5632 14.4623 11.5632 13.499C11.5632 12.7339 11.2884 12.1205 10.7394 11.6497C10.1848 11.1741 9.27409 10.7725 7.9945 10.4515L6.18385 10.0103C4.75798 9.65129 3.69805 9.16964 3.01725 8.5588L3.01645 8.55807C2.3383 7.93583 2 7.1351 2 6.16417C2 4.96295 2.49854 3.96534 3.48761 3.17735C4.47459 2.39104 5.68323 2 7.10743 2C8.55852 2 9.78093 2.37627 10.7682 3.13424C11.2527 3.50618 11.379 3.61635 11.5504 3.83873C11.62 3.90786 11.6548 3.94242 11.6548 4.01154C11.6525 4.03954 11.5961 4.07969 11.5818 4.0988C11.5754 4.10734 11.5685 4.11413 11.5621 4.11944L11.0067 4.66824L10.9214 4.58115L10.92 4.57917C10.9175 4.57548 10.912 4.56809 10.9025 4.55659C10.8834 4.53351 10.8482 4.49461 10.787 4.43651C10.6645 4.32018 10.44 4.12913 10.0361 3.83644C9.25129 3.25581 8.26523 2.97467 7.08184 2.97467C5.9355 2.97467 5.56347 2.97467 4.20278 3.87634C3.43419 4.47554 3.05408 5.22917 3.05408 6.14315C3.05408 6.86429 3.32741 7.44602 3.8763 7.89652C4.43149 8.35218 5.32203 8.73659 6.55933 9.04351L8.26408 9.47428C9.75971 9.84005 10.862 10.3319 11.5574 10.957C12.2653 11.58 12.6173 12.4097 12.6173 13.436C12.6173 14.7261 12.1134 15.7803 11.109 16.5906C10.106 17.3996 8.79735 17.7998 7.19216 17.7998C5.60761 17.7998 4.28949 17.3993 3.24515 16.5918C3.19218 16.5508 3.12438 16.4781 3.05639 16.399C2.98669 16.3179 2.91121 16.2235 2.8419 16.1342C2.77247 16.0447 2.7087 15.9597 2.66231 15.8971C2.6391 15.8657 2.62021 15.84 2.6071 15.822L2.59196 15.8012L2.58797 15.7957L2.58657 15.7937ZM53.7861 2.22068H54.7978V8.48774C55.0726 7.89052 55.4986 7.39706 56.0739 7.00853C56.7768 6.5269 57.5979 6.28742 58.5334 6.28742C59.7622 6.28742 60.7596 6.66255 61.5152 7.41931C62.2782 8.16937 62.6559 9.16971 62.6559 10.4095V17.5791H61.6443V10.5146C61.6443 9.49084 61.3437 8.69104 60.7516 8.10357C60.1592 7.51571 59.3634 7.21786 58.3534 7.21786C57.2974 7.21786 56.4452 7.56598 55.7878 8.25908C55.1298 8.95275 54.7978 9.85226 54.7978 10.9665V17.5791H53.7861V2.22068ZM53.9823 2.41553V17.3842H54.6016V10.9665C54.6016 9.81092 54.9473 8.86095 55.6449 8.12548C56.3431 7.38944 57.2489 7.023 58.3534 7.023C59.405 7.023 60.2543 7.33464 60.8903 7.96574C61.5268 8.59724 61.8405 9.45077 61.8405 10.5146V17.3842H62.4597V10.4095C62.4597 9.21163 62.0963 8.26453 61.3768 7.55747C60.6638 6.84326 59.719 6.48227 58.5334 6.48227C57.6333 6.48227 56.8519 6.71209 56.1851 7.16908C55.5179 7.61957 55.0651 8.2153 54.8249 8.95767L54.803 9.0253H54.6016V2.41553H53.9823ZM19.0172 6.48227C17.5896 6.48227 16.4493 6.98959 15.5867 8.00297C14.7228 9.01105 14.2861 10.3495 14.2861 12.0279C14.2861 13.7632 14.7231 15.1144 15.5856 16.0935C16.4469 17.0642 17.6151 17.5524 19.1019 17.5524C20.2852 17.5524 21.2661 17.2591 22.0508 16.6786C22.8038 16.1149 23.2796 15.3966 23.4816 14.5211H22.8543C22.6692 15.2533 22.2516 15.8505 21.6057 16.3103C20.9428 16.7871 20.1095 17.0221 19.1125 17.0221C17.8381 17.0221 16.8143 16.5922 16.0521 15.7279C15.2981 14.8645 14.9265 13.683 14.9265 12.196V12.0565H23.6424V11.6915C23.6424 10.1196 23.2137 8.8623 22.3645 7.91009C21.5235 6.95936 20.4109 6.48227 19.0172 6.48227ZM15.4371 7.87694C16.3395 6.81684 17.5361 6.28742 19.0172 6.28742C20.4617 6.28742 21.6298 6.78435 22.5116 7.78107M15.4371 7.87694C14.5359 8.9285 14.0898 10.3154 14.0898 12.0279C14.0898 13.7952 14.5353 15.1972 15.4379 16.2218C16.3416 17.2405 17.567 17.7472 19.1019 17.7472C20.3191 17.7472 21.3433 17.4451 22.1683 16.8347C22.9918 16.2183 23.5037 15.4197 23.6992 14.4427L23.7224 14.3263H22.6985L22.6812 14.4022C22.5173 15.1205 22.1221 15.7029 21.4912 16.152C20.8691 16.5997 20.0782 16.8273 19.1125 16.8273C17.8877 16.8273 16.9204 16.4166 16.1999 15.5996C15.4947 14.7921 15.132 13.68 15.1229 12.2514H23.8387V11.6915C23.8387 10.0832 23.399 8.77637 22.5116 7.78107M30.281 6.48227C29.1049 6.48227 28.1538 6.7789 27.4195 7.36445C26.7194 7.92818 26.308 8.68075 26.1866 9.62908H26.7888C26.9431 8.8206 27.3129 8.18392 27.9012 7.72675C28.5088 7.2546 29.3015 7.023 30.2704 7.023C31.2633 7.023 32.0499 7.29833 32.6165 7.86043C33.1899 8.42222 33.4715 9.19207 33.4715 10.1574V11.2255L29.5895 11.4945C28.3224 11.5918 27.3737 11.9036 26.7315 12.4187C26.1004 12.9305 25.7829 13.6334 25.7829 14.5393C25.7829 15.4297 26.11 16.152 26.7653 16.7142C27.4219 17.2706 28.2731 17.5524 29.3279 17.5524C30.2281 17.5524 31.0432 17.3259 31.7754 16.8736C32.5147 16.4141 33.0183 15.8242 33.2922 15.1039L33.3161 15.0409H33.5033V17.3842H34.1014V10.0943C34.1014 8.97385 33.7559 8.0976 33.0729 7.45379C32.3964 6.8097 31.4695 6.48227 30.281 6.48227ZM27.2965 7.21261C28.0732 6.59324 29.0708 6.28742 30.281 6.28742C31.507 6.28742 32.4867 6.6258 33.2081 7.31265C33.9371 7.99989 34.2976 8.93102 34.2976 10.0943V17.5791H33.3071V15.5491C32.9971 16.1442 32.52 16.6407 31.8792 17.0389C31.1146 17.5112 30.2632 17.7472 29.3279 17.7472C28.2363 17.7472 27.3367 17.4546 26.6377 16.8622C25.9375 16.2616 25.5866 15.4843 25.5866 14.5393C25.5866 13.5819 25.9255 12.8207 26.6075 12.2676C27.2926 11.718 28.2861 11.3991 29.5744 11.3002L33.2753 11.0438V10.1574C33.2753 9.23125 33.0063 8.51599 32.4785 7.99893C31.9578 7.48232 31.226 7.21786 30.2704 7.21786C29.333 7.21786 28.5865 7.44161 28.0221 7.88019C27.458 8.31857 27.1053 8.9366 26.9676 9.7428L26.9537 9.82393H25.9679L25.9789 9.71654C26.0873 8.6701 26.5263 7.83269 27.2965 7.21261ZM40.6975 6.48227C39.9896 6.48227 39.3939 6.67618 38.9051 7.06022C38.4157 7.44467 38.0582 8.00048 37.8367 8.73513L37.8158 8.80462H37.6235V6.6504H37.0466V17.3842H37.6764V10.6723C37.6764 9.6195 37.9347 8.75267 38.4595 8.08008C38.987 7.40393 39.6974 7.06504 40.581 7.06504C40.9875 7.06504 41.3372 7.1198 41.6267 7.23323V6.62925C41.3708 6.53228 41.0618 6.48227 40.6975 6.48227ZM38.7832 6.90741C39.3111 6.49283 39.951 6.28742 40.6975 6.28742C41.1092 6.28742 41.4654 6.34828 41.7632 6.47381L41.8229 6.49901V7.54073L41.6809 7.47029C41.4024 7.3321 41.0376 7.25989 40.581 7.25989C39.756 7.25989 39.1037 7.57251 38.6146 8.19941C38.1227 8.82985 37.8727 9.65137 37.8727 10.6723V17.5791H36.8503V6.45555H37.8197V8.20535C38.05 7.66547 38.3706 7.23162 38.7832 6.90741ZM16.138 8.24254C16.8847 7.42238 17.8436 7.0125 19.0067 7.0125C20.1904 7.0125 21.1537 7.42572 21.8868 8.25407C22.6186 9.08085 22.9843 10.156 22.9914 11.4704L22.992 11.5683H14.9328L14.9371 11.4667C14.9944 10.1391 15.3922 9.06146 16.138 8.24254ZM19.0067 7.20735C17.8962 7.20735 16.9911 7.5961 16.2835 8.37321C15.5935 9.13106 15.2095 10.1284 15.1383 11.3735H22.794C22.7698 10.1412 22.4159 9.14705 21.7394 8.38269C21.0464 7.59976 20.1386 7.20735 19.0067 7.20735ZM33.4715 11.7025V13.4255C33.4715 14.4286 33.0736 15.2846 32.2846 15.9884C31.503 16.6851 30.5542 17.0326 29.4444 17.0326C28.572 17.0326 27.8462 16.8034 27.2746 16.3381C26.7014 15.8714 26.4126 15.2694 26.4126 14.5393C26.4126 13.7897 26.6969 13.1896 27.2658 12.7497C27.8374 12.3061 28.6497 12.0505 29.6911 11.9727L33.4715 11.7025ZM29.7058 12.167C28.6856 12.2433 27.9164 12.4922 27.3866 12.9032C26.8684 13.304 26.6089 13.8459 26.6089 14.5393C26.6089 15.2104 26.8708 15.7573 27.399 16.1874C27.9289 16.6187 28.608 16.8378 29.4444 16.8378C30.509 16.8378 31.4101 16.5059 32.1535 15.8435C32.9036 15.1742 33.2753 14.3699 33.2753 13.4255V11.9119L29.7058 12.167Z" fill="white"/>
<path d="M51.9089 9.77753H51.0598C50.8834 8.95783 50.457 8.28553 49.7806 7.76063C49.1043 7.23573 48.2845 6.97329 47.3215 6.97329C46.035 6.97329 45.0131 7.42627 44.2559 8.33226C43.4987 9.23825 43.1201 10.4606 43.1201 11.9994C43.1201 13.5453 43.4987 14.7712 44.2559 15.6772C45.0131 16.5761 46.035 17.0254 47.3215 17.0254C48.2845 17.0254 49.1006 16.7774 49.7696 16.2812C50.446 15.7851 50.8723 15.1307 51.0488 14.3182H51.8979C51.7288 15.3465 51.2252 16.1806 50.3871 16.8205C49.549 17.4605 48.5272 17.7804 47.3215 17.7804C45.7704 17.7804 44.5389 17.2627 43.6273 16.2273C42.7158 15.1919 42.2599 13.7825 42.2599 11.9994C42.2599 10.2305 42.7158 8.8248 43.6273 7.7822C44.5463 6.73959 45.774 6.21829 47.3105 6.21829C48.5235 6.21829 49.549 6.55624 50.3871 7.23214C51.2252 7.90084 51.7325 8.7493 51.9089 9.77753Z" fill="white"/>
</svg>
