<svg xmlns="http://www.w3.org/2000/svg" width="95" height="24" viewBox="0 0 95 24" fill="none"><rect width="95" height="24" fill="none"/>
<path d="M13.1827 10.2578C12.8759 10.2578 12.625 10.5068 12.625 10.8098C12.625 11.1127 12.8759 11.3618 13.1827 11.3618C13.4894 11.3618 13.7404 11.1127 13.7404 10.8098C13.7404 10.5068 13.4894 10.2578 13.1827 10.2578Z" fill="white"/>
<path d="M13.1827 12.6328C12.8759 12.6328 12.625 12.8818 12.625 13.1848C12.625 13.4919 12.8799 13.7368 13.1827 13.7368C13.4854 13.7368 13.7404 13.4877 13.7404 13.1848C13.7404 12.8818 13.4894 12.6328 13.1827 12.6328Z" fill="white"/>
<path d="M16.1013 11.7436C16.1013 10.8177 15.7547 9.64689 15.44 9.02409C15.0217 8.19789 14.6672 7.67889 14.0378 7.05614C13.4562 6.47903 12.9622 6.11782 12.2252 5.74001C12.1655 5.71095 12.1097 5.68188 12.0539 5.65282C11.4364 5.34558 10.2533 4.98437 9.34904 4.98437H8.81919C8.63199 4.98437 8.37304 5.24594 8.37304 5.42862V18.5858C8.37304 18.7768 8.64394 19.03 8.85904 19.03H9.28529C10.2653 19.03 11.4205 18.6771 12.0818 18.3491L12.2252 18.2744C13.002 17.8717 13.492 17.498 14.0975 16.8918C15.1851 15.8082 16.1013 14.135 16.1013 11.9761V11.7436ZM15.0217 12.2708C15.0217 13.8444 14.1055 15.3889 13.3088 16.1819C12.9821 16.5057 12.6276 16.7922 12.2292 17.0455C12.0499 17.1576 11.8587 17.2655 11.6675 17.361C11.1855 17.6018 10.1497 17.9506 9.43669 17.9506V6.0597C10.1617 6.0597 11.1297 6.40015 11.6396 6.63679C11.8388 6.73229 12.038 6.84439 12.2332 6.96479C12.6196 7.21389 12.9861 7.50454 13.2769 7.79519C13.7191 8.23939 14.1573 8.82484 14.4441 9.42684C14.6871 9.93339 15.0257 10.9132 15.0257 11.6356V12.2667L15.0217 12.2708Z" fill="white"/>
<path d="M6.77985 6.14258C6.5209 6.14258 6.25 6.36678 6.25 6.58684V17.4231C6.25 17.6141 6.5209 17.8674 6.736 17.8674H6.82365C7.0587 17.8674 7.30965 17.6183 7.30965 17.3816V6.62834C7.30965 6.36262 7.0547 6.14258 6.77985 6.14258Z" fill="white"/>
<path d="M2.52982 9.82129C2.27089 9.82129 2 9.99564 2 10.1576V13.8486C2 13.9939 2.27089 14.1849 2.486 14.1849H2.57364C2.80868 14.1849 3.05965 13.9939 3.05965 13.8153V10.1949C3.05965 9.99564 2.8047 9.82544 2.52982 9.82544V9.82129Z" fill="white"/>
<path d="M4.65678 7.81149C4.40979 7.81149 4.12695 8.03569 4.12695 8.25574V15.7083C4.12695 15.9533 4.38589 16.1941 4.61296 16.1941H4.67669C4.94758 16.1941 5.1866 15.9533 5.1866 15.6668V8.33879C5.1866 8.03989 4.94758 7.81149 4.65678 7.81149Z" fill="white"/>
<path d="M21.571 2.95427L21.555 2.93351C21.4993 2.88784 21.4475 2.83802 21.3877 2.7965C21.3319 2.75498 21.2762 2.71347 21.2164 2.68025C21.1527 2.64288 21.0929 2.60552 21.0332 2.5723C20.9814 2.54324 20.9256 2.51418 20.8659 2.48511H20.8499L20.834 2.47266C20.5551 2.3315 20.2484 2.22355 19.9297 2.14466C19.607 2.06163 19.2724 2.02011 18.9378 2.0035C18.6071 1.99105 18.2725 2.0118 17.9498 2.06578C17.6391 2.11975 17.3324 2.20694 17.0495 2.32734C16.8782 2.40208 16.7069 2.48927 16.5476 2.58891C16.3922 2.68856 16.2448 2.80066 16.1134 2.91691C15.9859 3.03731 15.8624 3.16187 15.7588 3.30303C15.6552 3.44004 15.5636 3.5812 15.4879 3.73067C15.4162 3.87183 15.3644 4.01299 15.3206 4.15416C15.229 4.47385 15.1573 5.0302 15.2888 5.53257C15.5915 6.68264 16.5197 7.35939 17.659 7.48394C18.4677 7.57114 19.3162 7.38844 19.9536 6.93174C20.0094 6.89024 20.0651 6.84454 20.1169 6.79474C20.1647 6.74904 20.2125 6.70754 20.2524 6.65769L20.2683 6.64524C20.3161 6.59129 20.348 6.53729 20.3719 6.48334C20.4038 6.42106 20.4157 6.35463 20.4197 6.29651C20.4197 6.23008 20.4077 6.15949 20.3878 6.10552C20.3639 6.04324 20.3241 5.98512 20.2842 5.93945C20.2325 5.88548 20.1727 5.84811 20.101 5.8232C20.0293 5.79829 19.9536 5.79414 19.8699 5.79829C19.7943 5.80659 19.7106 5.82735 19.6349 5.86057C19.5632 5.88963 19.4915 5.9353 19.4278 5.98512L19.4118 5.99758L19.3242 6.06401L19.2883 6.09307L19.2445 6.12213C18.647 6.50824 17.7108 6.58714 17.0933 6.19686C16.9778 6.12213 16.8742 6.0391 16.7826 5.93945C16.687 5.83981 16.6073 5.73186 16.5396 5.61561C16.4719 5.49936 16.4201 5.37065 16.3843 5.24194C16.3484 5.11739 16.3245 4.98453 16.3245 4.85582C16.3245 4.71881 16.3404 4.5818 16.3803 4.44479C16.4161 4.31608 16.4719 4.18737 16.5516 4.06697C16.5914 4.00884 16.6352 3.94656 16.687 3.88844C16.7388 3.83031 16.7906 3.77219 16.8543 3.71821C16.9141 3.66009 16.9818 3.61027 17.0416 3.56459C17.1093 3.51892 17.185 3.47325 17.2567 3.43174H17.2646C17.4598 3.33209 17.675 3.24905 17.8941 3.19508C18.1251 3.13695 18.3641 3.10374 18.6071 3.09544C18.8581 3.08298 19.1131 3.10789 19.3561 3.14526C19.603 3.18678 19.8381 3.25321 20.0651 3.3404C20.105 3.357 20.1448 3.37361 20.1886 3.39022C20.2245 3.40682 20.2643 3.42343 20.3082 3.44419L20.3599 3.4691L18.7545 4.15831L18.7386 4.16661L18.7227 4.17492L17.5475 4.68144L17.5156 4.6939C17.412 4.73957 17.3324 4.81015 17.2726 4.88073C17.1969 4.97207 17.1611 5.07587 17.1491 5.18382C17.1491 5.22118 17.1491 5.25855 17.1491 5.29591C17.1491 5.32083 17.1611 5.34574 17.169 5.3748L17.185 5.40386C17.2009 5.43708 17.2168 5.47444 17.2447 5.50766C17.2686 5.53672 17.3005 5.56578 17.3284 5.5907V5.60315C17.412 5.66128 17.5156 5.69449 17.6431 5.69449C17.7586 5.69449 17.8941 5.66958 18.0454 5.60315L18.7625 5.29591L18.7944 5.28346L18.8302 5.26685L21.4634 4.1334C21.81 3.98393 22.1486 3.73482 21.8897 3.31964C21.802 3.17017 21.6626 3.04561 21.555 2.95012L21.571 2.95427Z" fill="white"/>
<path d="M21.4845 19.8687L18.8513 18.7352L18.8155 18.7186L18.7836 18.7062L18.0666 18.3989C17.9152 18.3367 17.7797 18.3034 17.6642 18.3076C17.5407 18.3076 17.4332 18.3408 17.3535 18.3989L17.3376 18.4114C17.3057 18.4363 17.2738 18.4654 17.2539 18.4944C17.23 18.5235 17.2101 18.5609 17.1941 18.5982L17.1782 18.6273C17.1663 18.6522 17.1623 18.6771 17.1583 18.7062C17.1503 18.7435 17.1503 18.7809 17.1583 18.8183C17.1702 18.9262 17.2061 19.03 17.2818 19.1255C17.3415 19.2002 17.4212 19.2667 17.5248 19.3123L17.5567 19.3248L18.7279 19.8313L18.7438 19.8396L18.7597 19.8479L20.3651 20.5371L20.3133 20.5621C20.2735 20.5828 20.2337 20.5994 20.1938 20.616C20.154 20.6326 20.1142 20.6492 20.0703 20.6658C19.8473 20.753 19.6082 20.8195 19.3613 20.861C19.1182 20.9025 18.8633 20.9233 18.6123 20.9108C18.3693 20.9025 18.1303 20.8693 17.8993 20.8112C17.6801 20.7572 17.469 20.6742 17.2698 20.5745H17.2539C17.1782 20.5288 17.1065 20.4873 17.0388 20.4375C16.975 20.3918 16.9113 20.3379 16.8515 20.2839C16.7878 20.2299 16.736 20.1759 16.6842 20.1137C16.6324 20.0555 16.5886 19.9974 16.5488 19.9351C16.4731 19.8147 16.4173 19.686 16.3775 19.5573C16.3416 19.4203 16.3177 19.2833 16.3217 19.1463C16.3217 19.0134 16.3416 18.8847 16.3815 18.7602C16.4173 18.6314 16.4691 18.5027 16.5368 18.3865C16.6046 18.2702 16.6842 18.1623 16.7798 18.0626C16.8715 17.963 16.975 17.88 17.0906 17.8052C17.708 17.415 18.6442 17.4938 19.2417 17.88L19.2856 17.909L19.3214 17.9339L19.3652 17.9713L19.4091 18.0045L19.425 18.017C19.4887 18.0668 19.5604 18.1125 19.6321 18.1415C19.7078 18.1747 19.7915 18.1997 19.8672 18.2038C19.9468 18.2121 20.0265 18.2038 20.0982 18.1789C20.1699 18.154 20.2297 18.1208 20.2815 18.0626C20.3253 18.017 20.3611 17.963 20.385 17.8966C20.405 17.8384 20.4169 17.772 20.4169 17.7056C20.4169 17.6475 20.401 17.581 20.3691 17.5187C20.3452 17.4648 20.3094 17.4108 20.2655 17.3568L20.2496 17.3444C20.2098 17.2987 20.162 17.253 20.1142 17.2074C20.0624 17.1617 20.0066 17.1119 19.9508 17.0703C19.3174 16.6136 18.4649 16.431 17.6562 16.5182C16.5169 16.6427 15.5887 17.3153 15.286 18.4695C15.1545 18.9719 15.2222 19.5282 15.3178 19.8479C15.3577 19.9891 15.4135 20.1303 15.4852 20.2714C15.5608 20.425 15.6525 20.5662 15.756 20.6991C15.8596 20.8402 15.9831 20.9606 16.1146 21.081C16.25 21.1973 16.3934 21.3094 16.5488 21.409C16.7081 21.5087 16.8755 21.5959 17.0507 21.6706C17.3336 21.791 17.6403 21.8823 17.951 21.9322C18.2737 21.9903 18.6083 22.011 18.939 21.9944C19.2736 21.982 19.6082 21.9363 19.9309 21.8533C20.2496 21.7744 20.5524 21.6664 20.8352 21.5253L20.8511 21.517H20.8631C20.9228 21.4879 20.9786 21.4589 21.0304 21.4298C21.0902 21.3966 21.1539 21.3592 21.2136 21.3218C21.2734 21.2845 21.3332 21.243 21.3849 21.2056C21.4447 21.1641 21.4965 21.1184 21.5523 21.0686L21.5682 21.052C21.6758 20.9482 21.8152 20.8278 21.9068 20.6742C22.1697 20.2631 21.8311 20.014 21.4845 19.8645V19.8687Z" fill="white"/>
<path d="M40.9959 10.3154C39.3783 10.3154 38.3594 11.4294 38.3594 13.059C38.3594 14.5487 39.442 15.571 41.0256 15.571C41.6921 15.5798 42.3799 15.4225 42.8554 14.9769C43.4201 14.4483 42.7153 13.6925 42.0997 14.2429C41.7771 14.4919 41.3822 14.5881 41.0001 14.5881C40.2826 14.5881 39.7179 14.1424 39.5354 13.4959H42.9021C43.4753 13.4959 43.539 13.225 43.539 12.9017C43.5305 11.3639 42.6219 10.3198 41.0044 10.3198L40.9959 10.3154ZM39.5184 12.6134C39.6585 11.827 40.2147 11.3027 41.0044 11.3027C41.9554 11.3027 42.3884 11.8314 42.4606 12.6134H39.5184Z" fill="white"/>
<path d="M53.7375 10.417C53.555 10.417 53.3935 10.465 53.292 10.5873L50.5958 13.746V10.8932C50.5958 10.583 50.3029 10.417 50.0227 10.417C49.7425 10.417 49.4453 10.5873 49.4453 10.9019V14.9867C49.4453 15.3144 49.7467 15.4716 50.0227 15.4716C50.2137 15.4716 50.3666 15.4236 50.4685 15.31L53.1685 12.1514V14.9823C53.1685 15.31 53.47 15.4673 53.746 15.4673C54.022 15.4673 54.3235 15.3056 54.3235 14.9823V10.8932C54.3235 10.583 54.0265 10.417 53.746 10.417H53.7375Z" fill="white"/>
<path d="M57.8754 12.7229L59.5224 11.421C60.2189 10.8749 59.5525 10.0711 58.886 10.5779L57.1279 11.9191L56.504 12.4958V10.9274C56.504 10.2502 55.3535 10.2502 55.3535 10.9274V14.9728C55.3535 15.3005 55.625 15.4796 55.918 15.4796C56.211 15.4796 56.504 15.3005 56.504 14.9728V13.7496L56.9669 13.4307L58.8179 15.2699C59.4249 15.8641 60.2444 15.0733 59.5735 14.418L57.8754 12.7273V12.7229Z" fill="white"/>
<path d="M64.8519 10.4159C64.5289 10.4159 64.3379 10.5775 64.2869 10.8134C63.8414 10.477 63.2769 10.3154 62.8394 10.3154C61.3534 10.3154 60.3514 11.3901 60.3514 12.9279C60.3514 14.4657 61.2389 15.571 62.7079 15.571C63.2129 15.571 63.8199 15.4094 64.2829 15.0555C64.3254 15.3045 64.5164 15.4749 64.8474 15.4749C65.1789 15.4749 65.4249 15.2652 65.4249 14.9594V10.9314C65.4249 10.6212 65.1914 10.4159 64.8474 10.4159H64.8519ZM64.2744 13.806C64.0409 14.3128 63.4254 14.5706 62.8264 14.5706C62.0284 14.5706 61.5019 13.924 61.5019 12.941C61.5019 11.9581 62.0669 11.3202 62.9159 11.3202C63.4424 11.3202 64.0199 11.5998 64.2704 12.0848V13.8017L64.2744 13.806Z" fill="white"/>
<path d="M70.5964 10.417H66.7539C66.0364 10.417 65.9769 11.4218 66.7539 11.4218H68.1084V14.9911C68.1084 15.3187 68.4099 15.476 68.6854 15.476C68.9614 15.476 69.2629 15.3144 69.2629 14.9911V11.4174H70.5964C71.3944 11.4174 71.3859 10.417 70.5964 10.417Z" fill="white"/>
<path d="M73.9509 10.3154C72.3334 10.3154 71.3144 11.4294 71.3144 13.059C71.3144 14.5487 72.3969 15.571 73.9849 15.571C74.6514 15.5798 75.3394 15.4225 75.8149 14.9769C76.3794 14.4483 75.6744 13.6925 75.0589 14.2429C74.7364 14.4919 74.3414 14.5881 73.9549 14.5881C73.2374 14.5881 72.6729 14.1424 72.4904 13.4959H75.8569C76.4304 13.4959 76.4939 13.225 76.4939 12.9017C76.4814 11.3639 75.5729 10.3198 73.9549 10.3198L73.9509 10.3154ZM72.4734 12.6134C72.6134 11.827 73.1699 11.3027 73.9594 11.3027C74.9104 11.3027 75.3434 11.8314 75.4154 12.6134H72.4734Z" fill="white"/>
<path d="M81.1919 14.1424C80.8694 14.4614 80.4239 14.5881 80.0204 14.5881C79.1119 14.5881 78.5049 13.9415 78.5049 12.9585C78.5049 11.9755 79.0904 11.2896 79.9819 11.2896C80.3854 11.2896 80.8314 11.4207 81.1454 11.7746C81.6084 12.3119 82.3979 11.6741 81.9054 11.1193C81.3619 10.5033 80.7209 10.3154 79.9819 10.3154C78.3944 10.3154 77.3454 11.3595 77.3454 12.9672C77.3454 14.575 78.4069 15.571 80.0119 15.571C80.7379 15.571 81.4469 15.3439 81.9734 14.7759C82.4829 14.2298 81.7864 13.5527 81.2004 14.1424H81.1919Z" fill="white"/>
<path d="M46.6375 10.6922C46.5568 10.5262 46.387 10.417 46.1959 10.417C46.0049 10.417 45.8351 10.5262 45.7544 10.6922L43.7972 14.7333C43.6571 15.1309 43.9797 15.476 44.3236 15.476C44.5656 15.476 44.7694 15.3362 44.8586 15.1309L46.0049 12.5926C46.0813 12.4266 46.3191 12.4266 46.3955 12.5926L47.5418 15.1309C47.631 15.3406 47.8348 15.476 48.0768 15.476C48.4206 15.476 48.7433 15.1309 48.6032 14.7333L46.6417 10.6922H46.6375Z" fill="white"/>
<path d="M36.9922 14.3877C36.9115 14.3396 36.8945 14.3527 36.8945 14.2566C36.9539 12.0722 36.8733 10.0102 36.8903 7.82584C36.8903 7.51564 36.661 7.25349 36.3511 7.19674C35.5741 7.05694 34.8566 7.31904 34.1646 7.63794C32.1225 8.57724 30.4454 10.3335 29.919 12.531C29.7704 13.1557 29.6685 13.6232 29.5496 14.261C29.5369 14.3309 29.4774 14.3746 29.4053 14.379C28.9595 14.4139 28.5519 14.8508 28.3099 15.2178C28.0509 15.6109 28 16.1046 28 16.5633C28 17.341 29.1293 17.3628 29.1293 16.5896C29.1293 16.2663 29.1803 16.0216 29.2609 15.86C29.3798 15.6241 29.6303 15.4755 29.902 15.4755H36.5039C36.7034 15.4755 36.8987 15.5716 37.0091 15.7333C37.1407 15.9255 37.1874 16.3536 37.1874 16.5633C37.1874 17.3366 38.355 17.3366 38.355 16.5633C38.355 15.908 38.1215 15.2527 37.612 14.8158C37.421 14.6498 37.2044 14.5188 36.9922 14.3833V14.3877ZM35.7864 14.2129C35.7864 14.3003 35.7142 14.3702 35.6251 14.3702H30.8615C30.7724 14.3702 30.7129 14.2916 30.7214 14.2042C30.8233 13.1907 31.0143 12.1509 31.5366 11.2334C32.029 10.3641 32.772 9.64759 33.6127 9.10149C33.9268 8.89619 34.2622 8.71704 34.6019 8.55104C34.8948 8.40689 35.2472 8.21464 35.5869 8.29329C35.7227 8.32384 35.7906 8.42869 35.7906 8.56414V14.2173L35.7864 14.2129Z" fill="white"/>
<path d="M85.4559 12.7229L87.1029 11.421C87.7994 10.8749 87.1329 10.0711 86.4664 10.5779L84.7044 11.9191L84.0799 12.4958V10.9274C84.0799 10.2502 82.9294 10.2502 82.9294 10.9274V14.9728C82.9294 15.3005 83.2014 15.4796 83.4944 15.4796C83.7874 15.4796 84.0799 15.3005 84.0799 14.9728V13.7496L84.5429 13.4307L86.3939 15.2699C87.0009 15.8641 87.8204 15.0733 87.1539 14.418L85.4559 12.7273V12.7229Z" fill="white"/>
<path d="M92.4259 10.4159C92.1034 10.4159 91.9124 10.5775 91.8614 10.8134C91.4154 10.477 90.8509 10.3154 90.4134 10.3154C88.9274 10.3154 87.9259 11.3901 87.9259 12.9279C87.9259 14.4657 88.8129 15.571 90.2819 15.571C90.7874 15.571 91.3944 15.4094 91.8614 15.0555C91.9039 15.3045 92.0949 15.4749 92.4259 15.4749C92.7574 15.4749 92.9994 15.2652 92.9994 14.9594V10.9314C92.9994 10.6212 92.7699 10.4159 92.4259 10.4159ZM91.8484 13.806C91.6149 14.3128 90.9994 14.5706 90.4009 14.5706C89.6029 14.5706 89.0764 13.924 89.0764 12.941C89.0764 11.9581 89.6409 11.3202 90.4899 11.3202C91.0164 11.3202 91.5939 11.5998 91.8444 12.0848V13.8017L91.8484 13.806Z" fill="white"/>
</svg>
