<svg xmlns="http://www.w3.org/2000/svg" width="93" height="24" viewBox="0 0 93 24" fill="none"><rect width="93" height="24" fill="none"/>
<path d="M46.2667 9.60062V2.0076H51.029V3.76918H48.2517V9.60062H46.2667Z" fill="white"/>
<path d="M57.0294 9.60062V6.62417H54.0782V9.60062H52.0932V2.0076H54.0782V4.8398H57.0294V2.0076H59.0144V9.60062H57.0294Z" fill="white"/>
<path d="M70.547 9.60062V3.76918H68.2301V2.0076H74.872V3.76918H72.5397V9.60062H70.547Z" fill="white"/>
<path d="M65.3015 9.60062V5.27261L62.1392 9.60062H60.4787V2.0076H62.4714V6.29009L65.5809 2.0076H67.2942V9.60062H65.3015Z" fill="white"/>
<path d="M34.8471 9.60062V5.08278L32.8621 7.467L30.8771 5.08278V9.60062H28.8921V2.0076H30.8545L32.8621 4.6196L34.8698 2.0076H36.8322V9.60062H34.8471Z" fill="white"/>
<path d="M40.6058 6.92787H42.4552L41.5267 4.54366L40.6058 6.92787ZM43.4891 9.59303L43.0741 8.52998H39.9796L39.5719 9.59303H37.5718L40.5908 2H42.4249L45.4439 9.59303H43.4891Z" fill="white"/>
<path d="M48.6442 21.9696C48.1021 21.9797 47.5636 21.8816 47.0595 21.6808C46.5558 21.4801 46.0962 21.1809 45.708 20.8003C45.3263 20.4449 45.0216 20.0138 44.8132 19.5343C44.6048 19.0548 44.4973 18.537 44.4973 18.0137C44.4973 17.4903 44.6048 16.9726 44.8132 16.4931C45.0216 16.0135 45.3263 15.5825 45.708 15.227C46.0976 14.8489 46.5572 14.5516 47.0613 14.3523C47.565 14.153 48.1028 14.0555 48.6442 14.0653C49.0272 14.0634 49.4085 14.1171 49.7762 14.2247C50.0876 14.3103 50.3867 14.4354 50.6668 14.5968C50.8787 14.7283 51.0804 14.8755 51.2707 15.0372C51.4116 15.1501 51.5407 15.2773 51.6555 15.4169L51.7912 15.5915L50.5235 16.9279L50.4254 16.8064C50.353 16.7127 50.2692 16.6285 50.1763 16.5558C50.0573 16.4531 49.9314 16.3592 49.7988 16.2749C49.6391 16.177 49.4662 16.1028 49.2857 16.0547C49.078 15.9886 48.8616 15.9553 48.6442 15.956C48.2336 15.9491 47.8304 16.0652 47.486 16.2895C47.1416 16.5138 46.871 16.8362 46.7092 17.2156C46.5474 17.595 46.5015 18.0143 46.577 18.4201C46.6528 18.8259 46.847 19.1998 47.1347 19.4943C47.3312 19.6935 47.5671 19.8491 47.827 19.9511C48.0868 20.0531 48.3652 20.0992 48.6442 20.0866C49.0018 20.0853 49.3546 20.005 49.6781 19.8512C49.9401 19.7412 50.1784 19.5814 50.3798 19.3804L50.6365 19.1071L51.8441 20.4434L51.8065 20.4966L51.7007 20.6332C51.5856 20.7655 51.4593 20.8874 51.3233 20.9977C51.1288 21.1683 50.919 21.3207 50.6971 21.4533C50.0639 21.7889 49.3598 21.966 48.6442 21.9696Z" fill="white"/>
<path d="M39.6853 15.9712C39.4296 15.9674 39.176 16.0175 38.9404 16.1182C38.7053 16.2189 38.4934 16.368 38.3191 16.5558C37.966 16.9689 37.7722 17.4956 37.7722 18.0403C37.7722 18.5849 37.966 19.1116 38.3191 19.5247C38.4934 19.7125 38.7053 19.8616 38.9404 19.9623C39.176 20.063 39.4296 20.1131 39.6853 20.1094C39.9396 20.1139 40.1925 20.0642 40.4266 19.9634C40.6608 19.8626 40.8709 19.7131 41.0434 19.5247C41.3966 19.1116 41.5903 18.5849 41.5903 18.0403C41.5903 17.4956 41.3966 16.9689 41.0434 16.5558C40.8726 16.3655 40.6625 16.2146 40.428 16.1137C40.1935 16.0128 39.9399 15.9641 39.6853 15.9712ZM39.6853 21.9696C38.7957 21.949 37.9406 21.6203 37.264 21.039C36.5876 20.4576 36.1312 19.6592 35.972 18.7786C35.8128 17.898 35.9606 16.9891 36.3903 16.2054C36.82 15.4217 37.5054 14.8111 38.3306 14.4768C39.1558 14.1425 40.0707 14.1049 40.9203 14.3704C41.7698 14.6358 42.5025 15.1881 42.9944 15.934C43.486 16.6798 43.7072 17.5735 43.6199 18.4643C43.5326 19.355 43.1426 20.1882 42.5154 20.8231C42.149 21.2019 41.7079 21.4996 41.2205 21.697C40.7331 21.8944 40.2102 21.9873 39.6853 21.9696Z" fill="white"/>
<path d="M70.8942 21.9696V16.1838H68.6677V14.407H75.1284V16.1838H72.8869V21.9696H70.8942Z" fill="white"/>
<path d="M33.8508 21.9696L31.3752 18.7882L30.8846 18.7806V21.9696H28.8921V14.407H30.8846V16.981H31.4658L33.4206 14.3994L35.6774 14.407L33.0734 17.8922L36.1529 21.9696H33.8508Z" fill="white"/>
<path d="M61.9806 21.9696V14.407H67.4678V16.1838H63.9809V17.262H67.0678V18.978H63.9809V20.1929H67.4678V21.9696H61.9806Z" fill="white"/>
<path d="M58.5994 21.9696V17.5125L56.6446 19.8664L54.6898 17.5125V21.9696H52.6894V14.407H54.6669L56.6446 16.9886L58.637 14.3994L60.5918 14.407V21.9696H58.5994Z" fill="white"/>
<path d="M76.321 21.9696V14.407H78.3213V18.6287L81.3856 14.3994L83.1062 14.407V21.9696H81.1062V17.7024L77.9815 21.9772L76.321 21.9696Z" fill="white"/>
<path d="M89.4615 21.9696L86.9783 18.7882L86.4877 18.7806V21.9696H84.495V14.407H86.4877V16.981H87.0687L89.0235 14.3994L91.2803 14.407L88.6763 17.8922L91.7558 21.9696H89.4615Z" fill="white"/>
<path d="M2 8.08204C2 6.47099 2.63615 4.92593 3.7685 3.78675C4.90086 2.64758 6.43665 2.0076 8.03806 2.0076H21.9256V5.04481H8.04561C7.65824 5.04452 7.27465 5.12155 6.91709 5.27144C6.55949 5.42132 6.23505 5.6411 5.96248 5.91802C5.40745 6.47562 5.09523 7.23214 5.09449 8.0213V13.1769C5.02627 13.8369 4.74518 14.4562 4.29403 14.9403C3.84289 15.4243 3.24657 15.7464 2.59629 15.8573L2.06044 15.9408L2 8.08204Z" fill="white"/>
<path d="M2 21.9772V18.902H15.8876C16.671 18.8981 17.4212 18.5832 17.9752 18.0258C18.5292 17.4685 18.8423 16.7138 18.8462 15.9256V11.0281C18.8503 10.3179 19.1053 9.63224 19.5658 9.09388C20.0263 8.55552 20.6621 8.19952 21.3596 8.08955L21.8954 8.00606V15.9256C21.8954 17.5366 21.2593 19.0816 20.1269 20.2208C18.9945 21.36 17.4587 22 15.8573 22L2 21.9772Z" fill="white"/>
<path d="M11.8647 10.6241C11.8717 10.5763 11.8782 10.5286 11.8859 10.4811C11.9433 10.1225 12.0468 9.7827 12.2463 9.48372C12.3914 9.26643 12.5733 9.09092 12.7826 8.94776C13.0076 8.79316 13.2537 8.69175 13.5096 8.61476C13.7432 8.54418 13.9803 8.48796 14.2198 8.44635C14.3531 8.42335 14.4879 8.40624 14.6214 8.38811C14.7523 8.37026 14.8835 8.35409 15.0146 8.33781C15.1188 8.32483 15.2231 8.31307 15.3274 8.3003C15.4482 8.28545 15.5686 8.26958 15.6897 8.25452C15.7472 8.24767 15.8047 8.24078 15.8621 8.23393C15.8749 8.23236 15.8813 8.23814 15.882 8.25268C15.8832 8.28844 15.8847 8.32483 15.8867 8.36007C15.8928 8.47178 15.8993 8.58342 15.9052 8.69502C15.9076 8.74052 15.9094 8.78596 15.9105 8.83129C15.9127 8.92644 15.9151 9.02166 15.9158 9.11691C15.9178 9.36568 15.9201 9.6146 15.9197 9.86352C15.9197 9.98945 15.9173 10.1158 15.9095 10.2415C15.8987 10.4157 15.8852 10.5898 15.8666 10.7633C15.8427 10.9862 15.8084 11.2073 15.739 11.4204C15.6655 11.6457 15.5637 11.8544 15.4239 12.0402C15.309 12.1928 15.1685 12.3128 15.0105 12.4098C14.7771 12.5518 14.5227 12.6494 14.2585 12.6984C14.1162 12.7258 13.9725 12.7453 13.829 12.765C13.7581 12.7747 13.6862 12.7764 13.6148 12.7819C13.6084 12.7821 13.6023 12.7848 13.5976 12.7895C13.6071 12.7932 13.6167 12.7978 13.6263 12.8007C13.7748 12.8437 13.918 12.9058 14.0527 12.9857C14.2544 13.1069 14.4106 13.2783 14.5366 13.4845C14.6354 13.646 14.7165 13.8172 14.7646 14.0033C14.7992 14.1379 14.8246 14.2759 14.8467 14.4135C14.8657 14.529 14.8782 14.6457 14.8842 14.7628C14.8911 14.9003 14.8885 15.0387 14.8872 15.1767C14.8865 15.252 14.8821 15.3275 14.8762 15.4025C14.8708 15.4706 14.8619 15.5385 14.8536 15.6063C14.8459 15.6695 14.8369 15.7326 14.8287 15.7958C14.8267 15.8116 14.8234 15.8188 14.8048 15.8164C14.7173 15.8061 14.6293 15.7985 14.5417 15.7888C14.4565 15.7794 14.3716 15.7682 14.2864 15.7589C14.181 15.7476 14.0757 15.7401 13.971 15.7268C13.8045 15.7054 13.6377 15.6855 13.4723 15.656C13.3344 15.6315 13.1971 15.6002 13.062 15.5618C12.8347 15.4971 12.6368 15.3721 12.4611 15.204C12.2724 15.0233 12.1443 14.7984 12.0428 14.5532C11.9753 14.3876 11.9187 14.2172 11.8734 14.043C11.8706 14.0327 11.8667 14.0224 11.861 14.0053C11.8551 14.0235 11.8514 14.0343 11.848 14.0454C11.7847 14.2805 11.7068 14.5092 11.6008 14.7266C11.4403 15.0555 11.2076 15.3038 10.897 15.4673C10.7592 15.5395 10.6126 15.5825 10.463 15.6135C10.3273 15.6416 10.1911 15.668 10.0543 15.6897C9.94663 15.7068 9.83784 15.7156 9.72944 15.7279C9.6402 15.7382 9.55094 15.7485 9.46132 15.7579C9.36019 15.7687 9.25909 15.7785 9.15806 15.7896C9.0713 15.799 8.98464 15.809 8.89596 15.8189C8.88716 15.7608 8.87683 15.7049 8.8706 15.6484C8.85815 15.5338 8.8475 15.419 8.83717 15.3042C8.83372 15.2649 8.8323 15.2254 8.83209 15.1861C8.83132 15.0763 8.8275 14.9664 8.83278 14.857C8.83859 14.7333 8.84973 14.6096 8.86465 14.4859C8.87843 14.3715 8.89683 14.2574 8.91962 14.1447C8.9446 14.0251 8.98036 13.9083 9.02639 13.7962C9.09795 13.6208 9.19209 13.4572 9.30609 13.3101C9.41018 13.1759 9.53688 13.064 9.67955 12.9803C9.81105 12.903 9.95066 12.8429 10.0954 12.8012C10.1058 12.7981 10.1159 12.7944 10.1262 12.7908L10.1257 12.7841C10.0941 12.7815 10.0625 12.7788 10.0308 12.7763C9.70627 12.7508 9.3853 12.7042 9.07648 12.5868C8.86705 12.507 8.67084 12.4013 8.49655 12.2505C8.35071 12.1246 8.23803 11.9693 8.14476 11.797C8.02227 11.5705 7.9393 11.3219 7.89992 11.0633C7.87678 10.9149 7.85765 10.7659 7.84244 10.6162C7.82835 10.4733 7.81994 10.3295 7.81371 10.1859C7.80748 10.0497 7.80692 9.91319 7.80414 9.77693C7.8024 9.69635 7.79965 9.61585 7.79993 9.53535C7.79993 9.40931 7.80212 9.28323 7.80463 9.15719C7.80692 9.03453 7.81047 8.912 7.8142 8.78933C7.81687 8.70041 7.81983 8.61146 7.82376 8.5225C7.82759 8.43643 7.83336 8.35047 7.83785 8.26482C7.83938 8.23681 7.84418 8.23393 7.86972 8.23699C7.94712 8.24669 8.02457 8.25515 8.10204 8.26444C8.18258 8.2739 8.26311 8.28378 8.34372 8.29348C8.4188 8.30256 8.49387 8.31151 8.56894 8.3209C8.67554 8.33419 8.7821 8.34789 8.88869 8.36108C8.97869 8.37211 9.0689 8.38171 9.15872 8.39389C9.27308 8.40975 9.38739 8.42603 9.50115 8.44541C9.71239 8.48197 9.92154 8.52974 10.1286 8.58877C10.3592 8.65432 10.5854 8.73308 10.7964 8.85582C11.1106 9.03835 11.3709 9.28355 11.5568 9.61481C11.6701 9.81683 11.7461 10.0357 11.7954 10.2648C11.819 10.3747 11.8347 10.4866 11.8541 10.5975C11.8557 10.6065 11.8585 10.6152 11.8606 10.6241H11.8647Z" fill="white"/>
</svg>
