<svg xmlns="http://www.w3.org/2000/svg" width="67" height="24" viewBox="0 0 67 24" fill="none"><rect width="67" height="24" fill="none"/>
<path fill-rule="evenodd" clip-rule="evenodd" d="M27.9775 6.82259H29.9167L33.3417 15.4713H31.3442L30.6829 13.6951H27.1054L26.4558 15.4713H24.4712L27.9775 6.82259ZM35.5142 6.82259H33.8479V8.31717H35.5146L35.5142 6.82259ZM35.5142 9.18634H33.8479V15.4713H35.5146L35.5142 9.18634ZM38.0504 10.1909H38.0871C38.4671 9.48051 38.8954 9.11301 39.6308 9.11301C39.8142 9.11301 39.925 9.12551 40.0225 9.16176V10.6201H39.9858C38.8958 10.5097 38.1117 11.0855 38.1117 12.4084V15.4713H36.4454V9.18634H38.0504V10.1909ZM44.9354 6.82259H43.2691V8.31717H44.9354V6.82259ZM43.2691 9.18634H44.9354V15.4713H43.2691V9.18634ZM47.5325 10.0438H47.4958V9.18634H45.8667V15.4713H47.5325V11.9063C47.5325 11.0484 48.0717 10.4605 48.8067 10.4605C49.505 10.4605 49.8971 10.9384 49.8971 11.6122V15.4713H51.5633V11.3672C51.5633 9.99509 50.6933 9.01467 49.3946 9.01467C48.5371 9.01467 47.9612 9.37009 47.5325 10.0438ZM52.2492 12.323C52.2492 10.4605 53.5108 9.01467 55.3483 9.01467C57.37 9.01467 58.4479 10.5588 58.4479 12.8005H53.8908C54.0133 13.7684 54.5521 14.3688 55.4954 14.3688C56.145 14.3688 56.5246 14.0747 56.7083 13.5968H58.35C58.1175 14.7118 57.125 15.6551 55.5079 15.6551C53.425 15.6551 52.2492 14.1968 52.2492 12.323ZM56.7083 11.6488H53.915C54.0621 10.828 54.4908 10.3013 55.3729 10.3013C56.1325 10.3013 56.6596 10.8526 56.7083 11.6488ZM58.8316 13.4376H60.3754C60.4858 14.1605 61.0004 14.4793 61.7479 14.4793C62.4829 14.4793 62.8996 14.1972 62.8996 13.7563C62.8996 13.2313 62.2908 13.1188 61.5646 12.9838C61.4582 12.9643 61.3515 12.944 61.2454 12.923C60.1183 12.7026 59.0158 12.3963 59.0158 11.0243C59.0158 9.66426 60.1429 9.01509 61.5762 9.01509C63.23 9.01509 64.1492 9.83592 64.2717 11.0976H62.7646C62.6912 10.4238 62.2621 10.1788 61.5517 10.1788C60.9025 10.1788 60.4737 10.4238 60.4737 10.8772C60.4737 11.3293 61.0596 11.4368 61.7762 11.568C61.9142 11.593 62.0571 11.6193 62.2012 11.6493C63.2546 11.8697 64.4187 12.1634 64.4187 13.6338C64.4187 14.8955 63.3404 15.6555 61.7725 15.6555C59.9467 15.6555 58.93 14.773 58.8316 13.4376ZM27.5829 12.2372H30.1925L28.8696 8.56134L27.5829 12.2372ZM42.3383 6.82259H40.6716V15.4709H42.3383V6.82259Z" fill="white"/>
<path fill-rule="evenodd" clip-rule="evenodd" d="M22.4167 12.0021C22.4167 17.5271 17.9425 22 12.4196 22C6.89582 22 2.41666 17.5267 2.41666 12.0021C2.41666 6.4775 6.89582 2 12.4196 2C17.9429 2 22.4167 6.4775 22.4167 12.0021ZM11.6408 6.82208C10.0742 6.82208 9.05791 6.90833 8.32207 7.18167C7.08582 7.66333 6.23207 8.67292 6.23207 9.99917C6.23207 11.1042 6.74666 11.9042 8.23541 12.8242C9.82416 13.7875 10.1408 14.1058 10.1408 14.6858C10.1408 15.3212 9.51874 16.0442 7.91749 16.0442C7.35916 16.0442 6.51707 15.9667 5.97916 15.835L5.72249 15.7704C5.57957 16.1542 5.25457 17.0621 5.15541 17.3912L5.40957 17.4662C5.89291 17.6204 7.04166 17.7412 7.86374 17.7412C10.6004 17.7412 12.2333 16.0875 12.2333 14.3567C12.2333 13.2929 11.75 12.4842 10.1179 11.4658C9.29916 10.9617 8.88207 10.6354 8.62832 10.3825C8.42332 10.1187 8.40041 9.92208 8.40041 9.71458C8.40041 9.51667 8.44457 9.28833 8.57541 9.12125C8.71624 8.91417 8.97541 8.7825 9.32624 8.67375C9.68666 8.55417 10.3542 8.55125 11.3942 8.55125H12.3629L13.0546 6.82208H11.6408ZM14.0933 6.82208H18.96C19.1883 6.82208 19.2321 6.98375 19.1442 7.15958C18.8258 7.94833 15.8233 15.4708 15.8233 15.4708H13.8167C13.8167 15.4708 16.1879 9.42792 16.5817 8.52792C16.4904 8.52792 16.4067 8.53042 16.2946 8.53375C16.0717 8.54083 15.7379 8.55125 15.0146 8.55125H13.4017L14.0933 6.82208Z" fill="#C4D600"/>
</svg>
