<svg xmlns="http://www.w3.org/2000/svg" width="24" height="24" viewBox="0 0 24 24" fill="none"><rect width="24" height="24" fill="none"/>
<path d="M6.70208 16.7214C9.29866 16.7214 11.4036 14.6075 11.4036 11.9999C11.4036 9.39223 9.29866 7.27832 6.70208 7.27832C4.10552 7.27832 2.00058 9.39223 2.00058 11.9999C2.00058 14.6075 4.10552 16.7214 6.70208 16.7214Z" fill="#FFCA05"/>
<path d="M8.72558 15.5168C7.12892 16.442 5.39731 16.6078 4.29124 16.0536C5.70734 16.901 7.52556 16.9743 9.05386 16.0884C10.5821 15.2016 11.4283 13.5838 11.4055 11.9284C11.3307 13.1679 10.3213 14.5915 8.72558 15.5168Z" fill="black"/>
<path d="M7.29837 7.62347C7.62205 8.18595 6.83971 9.24861 5.55035 9.99523C4.26099 10.7428 2.9543 10.8921 2.6306 10.3287C2.61692 10.3021 2.60415 10.2728 2.59503 10.2426C2.51115 9.98057 2.61145 9.64161 2.85309 9.28434C2.8923 9.22846 2.93242 9.17349 2.97346 9.11944C3.3382 8.64216 3.8005 8.22809 4.35126 7.90928C4.90202 7.58957 5.49017 7.39536 6.08378 7.31658C6.15308 7.3065 6.22056 7.29917 6.28621 7.29459C6.71478 7.26253 7.05673 7.34497 7.24092 7.54835C7.26281 7.57308 7.28195 7.59782 7.29837 7.62347Z" fill="black"/>
<path d="M9.2972 8.23294C9.86256 9.2159 8.72183 10.9391 6.75039 12.0824C4.77897 13.2257 2.72183 13.3557 2.1574 12.3728C2.06348 12.2088 2.01332 12.0265 2.00329 11.8304C1.97867 12.4909 2.09174 13.1624 2.35527 13.8C2.39448 13.8953 2.43733 13.9896 2.48293 14.0831C2.48475 14.0867 2.48749 14.0913 2.48931 14.095C2.65982 14.3909 2.91149 14.6236 3.22518 14.7921C4.33125 15.3867 6.20146 15.1824 7.95038 14.1683C9.69839 13.1542 10.81 11.6307 10.851 10.372C10.8628 10.0166 10.789 9.68219 10.6203 9.3863C10.5564 9.29011 10.4899 9.19575 10.4197 9.10597C10.0048 8.56731 9.48868 8.13858 8.91509 7.8326C9.07472 7.93796 9.20416 8.07079 9.2972 8.23294Z" fill="black"/>
<path d="M6.71181 16.7214C9.31375 16.7214 11.423 14.6075 11.423 11.9999C11.423 9.39223 9.31375 7.27832 6.71181 7.27832C4.10987 7.27832 2.00058 9.39223 2.00058 11.9999C2.00058 14.6075 4.10987 16.7214 6.71181 16.7214Z" fill="url(#paint0_radial_2611_96)"/>
<path fill-rule="evenodd" clip-rule="evenodd" d="M13.0843 16.7216V7.27832H13.5565V16.7216H13.0843Z" fill="black"/>
<path d="M22 15.3922H15.8247V16.6383H22V15.3922Z" fill="#EF3124"/>
<path d="M20.067 8.33043C19.8784 7.82274 19.6899 7.40736 18.9828 7.40736C18.2757 7.40736 18.04 7.82274 17.8515 8.33043L15.9659 13.6843H17.2387L17.6629 12.4381H20.1142L20.5384 13.6843H21.9054L20.067 8.33043ZM18.04 11.3304L18.8885 8.79196H18.9357L19.737 11.3304H18.04Z" fill="#EF3124"/>
<defs>
<radialGradient id="paint0_radial_2611_96" cx="0" cy="0" r="1" gradientUnits="userSpaceOnUse" gradientTransform="translate(12.0011 11.9995) scale(9.99914 4.72326)">
<stop offset="0.5" stop-color="white" stop-opacity="0"/>
<stop offset="1" stop-color="white" stop-opacity="0.31"/>
</radialGradient>
</defs>
</svg>
