<svg xmlns="http://www.w3.org/2000/svg" width="32" height="24" viewBox="0 0 32 24" fill="none"><rect width="32" height="24" fill="none"/>
<path fill-rule="evenodd" clip-rule="evenodd" d="M9.735 8.56119H8.64556C8.58399 8.5614 8.52312 8.57441 8.46686 8.59946C8.4106 8.62449 8.36014 8.66098 8.31872 8.70661C8.23567 8.78196 8.18387 8.88577 8.17346 8.9975V17.2295C8.17368 17.2912 8.18671 17.3521 8.21171 17.4084C8.23672 17.4647 8.27317 17.5153 8.31872 17.5567C8.36075 17.6016 8.41133 17.6376 8.46747 17.6625C8.52359 17.6875 8.58415 17.701 8.64556 17.7021H9.735C9.79182 17.705 9.84844 17.6932 9.89934 17.6677C9.95025 17.6422 9.99372 17.604 10.0255 17.5567C10.0766 17.52 10.1169 17.4703 10.1424 17.4128C10.168 17.3553 10.1777 17.2921 10.1708 17.2295V8.9975C10.1551 8.88737 10.1041 8.78527 10.0255 8.70661C9.94694 8.62792 9.84501 8.57692 9.735 8.56119ZM19.7364 8.59751H18.8862C18.7147 8.59751 18.6483 8.58331 18.5382 8.62874C18.4278 8.6742 18.3341 8.75211 18.2688 8.8521L15.727 14.4224H15.6906L13.2575 8.8521C13.2214 8.77646 13.1649 8.71245 13.0942 8.66746C13.0236 8.62245 12.9418 8.5982 12.858 8.59751H11.6597C11.5919 8.59052 11.5235 8.60014 11.4602 8.62546C11.3969 8.65079 11.3408 8.69113 11.2965 8.743C11.258 8.79788 11.2405 8.8648 11.2472 8.93154C11.2538 8.99829 11.2842 9.06043 11.3328 9.10661L15.2548 17.7021C15.287 17.7784 15.344 17.8414 15.4165 17.881C15.4891 17.9206 15.5679 17.9382 15.6542 17.9203H15.7631C15.838 17.9217 15.9118 17.902 15.9761 17.8635C16.0402 17.8249 16.0923 17.7689 16.1264 17.7021L20.0483 9.10661C20.0807 9.05237 20.1006 8.99172 20.107 8.92888C20.1133 8.86605 20.1055 8.80255 20.0846 8.743C20.0567 8.68341 20.0083 8.63586 19.9485 8.60914C19.8998 8.59751 19.8181 8.59751 19.7364 8.59751ZM25.096 8.37576C24.4853 8.36798 23.8795 8.48708 23.3169 8.72551C22.7545 8.96394 22.2473 9.31658 21.8277 9.76111C20.9429 10.6518 20.4467 11.8573 20.4477 13.1135C20.4402 14.3737 20.9218 15.5876 21.7915 16.4987C22.1919 16.9286 22.673 17.2753 23.2074 17.519C23.7416 17.7627 24.3188 17.8985 24.9056 17.9187C25.4924 17.939 26.0776 17.8433 26.6273 17.6371C27.1772 17.4308 27.6811 17.1181 28.1101 16.7168L28.328 16.4987C29.2079 15.5914 29.7024 14.3781 29.708 13.1135C29.7099 12.4912 29.589 11.8747 29.3523 11.2994C29.1153 10.7241 28.7674 10.2013 28.328 9.76111C27.9157 9.31724 27.4151 8.96462 26.8583 8.72605C26.3018 8.48746 25.7014 8.36815 25.096 8.37576ZM27.0208 15.1897C26.5322 15.7018 25.8618 16.0006 25.1547 16.021C24.4477 16.0414 23.7611 15.7819 23.2441 15.2988C23.2079 15.272 23.1821 15.2334 23.1713 15.1897C22.6627 14.6173 22.3788 13.8796 22.3724 13.1135C22.3551 12.7364 22.4173 12.3598 22.5549 12.0083C22.6925 11.6569 22.9026 11.3384 23.1713 11.0737C23.4131 10.8057 23.7109 10.5948 24.0436 10.4558C24.3766 10.3169 24.7358 10.2534 25.096 10.2701C25.4551 10.2618 25.812 10.329 26.1435 10.4675C26.4751 10.6059 26.7738 10.8124 27.0208 11.0737C27.5353 11.6278 27.8208 12.3568 27.8196 13.1135C27.8199 13.8809 27.5353 14.6209 27.0208 15.1897ZM5.59512 8.56119H2.47209C2.36373 8.58089 2.26395 8.63316 2.18609 8.71114C2.10823 8.7891 2.05598 8.88901 2.0363 8.9975V10.0883C2.03651 10.15 2.04955 10.2109 2.07455 10.2673C2.09956 10.3236 2.136 10.374 2.18158 10.4155C2.25684 10.4987 2.36049 10.5506 2.47209 10.561H4.06993V18.5021C4.0673 18.8572 3.93759 19.1996 3.7044 19.4671C3.4712 19.7346 3.14995 19.9095 2.79893 19.9601H2.47209C2.4105 19.9603 2.34966 19.9734 2.2934 19.9984C2.23711 20.0235 2.18665 20.06 2.14526 20.1056C2.10045 20.1477 2.06453 20.1983 2.03959 20.2546C2.01463 20.3107 2.0012 20.3713 2 20.4328V21.5272C2.00272 21.6448 2.04069 21.7589 2.10893 21.8546C2.15099 21.8994 2.20156 21.9353 2.25768 21.9603C2.31381 21.9852 2.37436 21.9988 2.43577 22H2.58102C3.45044 21.9995 4.28713 21.6679 4.92115 21.0723C5.55515 20.4767 5.93895 19.6617 5.9946 18.793C6.01275 18.7214 6.01275 18.6464 5.9946 18.5748V8.9975C5.99439 8.93586 5.98136 8.87497 5.95635 8.81864C5.93134 8.76228 5.8949 8.71177 5.84932 8.67031C5.81983 8.63184 5.78095 8.6016 5.73645 8.58251C5.69193 8.5634 5.64328 8.55607 5.59512 8.56119Z" fill="white"/>
<path fill-rule="evenodd" clip-rule="evenodd" d="M2.03626 2C1.74575 7.17407 5.99456 7.90127 5.99456 7.90127C5.77668 2.21816 2.03626 2 2.03626 2Z" fill="#49DA1F"/>
</svg>
