<svg xmlns="http://www.w3.org/2000/svg" width="24" height="24" viewBox="0 0 24 24" fill="none"><rect width="24" height="24" fill="none"/>
<path fill-rule="evenodd" clip-rule="evenodd" d="M22 12C22 17.5229 17.5229 22 12 22C6.47715 22 2 17.5229 2 12C2 6.47715 6.47715 2 12 2C17.5229 2 22 6.47715 22 12ZM15.2258 17.7006V6.28711H12.3531C9.57437 6.28711 7.91631 7.66764 7.91631 9.9795C7.91631 11.7974 8.84644 12.8358 10.2434 13.8365L10.2669 13.8529L10.2505 13.8765L7.67643 17.7111H9.77425L12.6518 13.4108L11.6663 12.7464C10.4257 11.9044 9.83538 11.2589 9.83538 9.86187C9.83538 8.559 10.7808 7.78053 12.3636 7.78053H13.2856V17.7006H15.2258Z" fill="#333553"/>
</svg>
