<svg xmlns="http://www.w3.org/2000/svg" width="24" height="24" viewBox="0 0 24 24" fill="none"><rect width="24" height="24" fill="none"/>
<path d="M9.13468 8.59636C10.3713 8.59636 11.3737 7.62197 11.3737 6.42C11.3737 5.21803 10.3713 4.24364 9.13468 4.24364C7.89808 4.24364 6.89562 5.21803 6.89562 6.42C6.89562 7.62197 7.89808 8.59636 9.13468 8.59636Z" fill="#965EEB"/>
<path d="M16.9798 12.4713C19.6706 12.4713 21.8519 10.3511 21.8519 7.73564C21.8519 5.12022 19.6706 3 16.9798 3C14.289 3 12.1077 5.12022 12.1077 7.73564C12.1077 10.3511 14.289 12.4713 16.9798 12.4713Z" fill="#00AAFF"/>
<path d="M7.99327 21C11.3033 21 13.9865 18.3919 13.9865 15.1745C13.9865 11.9572 11.3033 9.34909 7.99327 9.34909C4.68328 9.34909 2 11.9572 2 15.1745C2 18.3919 4.68328 21 7.99327 21Z" fill="#04E061"/>
<path d="M18.3805 20.2669C20.3795 20.2669 22 18.6918 22 16.7487C22 14.8057 20.3795 13.2305 18.3805 13.2305C16.3815 13.2305 14.7609 14.8057 14.7609 16.7487C14.7609 18.6918 16.3815 20.2669 18.3805 20.2669Z" fill="#FF4053"/>
</svg>
