<svg xmlns="http://www.w3.org/2000/svg" width="24" height="24" viewBox="0 0 24 24" fill="none"><rect width="24" height="24" fill="none"/>
<path d="M8.96312 8.78931C8.37701 8.83338 7.88878 8.0273 7.73465 7.62534C7.58052 7.22337 7.53303 6.45081 8.26016 4.90894C8.98729 3.36707 7.43222 3.00271 6.6574 3.52126C5.88258 4.03982 5.33752 5.24812 5.21439 6.72091C5.11356 7.92681 5.56557 9.31201 5.84197 9.86862C6.46058 10.6909 6.57305 11.025 6.3481 11.4619C6.20751 11.796 6.09503 12.3356 6.09503 12.6954C6.09503 13.2607 6.17939 13.3121 6.6574 13.0808C6.96671 12.9524 7.47284 12.8753 7.78214 12.9524C8.09145 13.0294 8.40075 13.3635 8.48511 13.7233C8.56946 14.0831 8.45699 14.5456 8.26016 14.7512C8.09145 14.9825 7.61343 15.1624 7.21977 15.1367C6.6574 15.1367 6.46058 15.3166 6.17939 16.0875C5.98256 16.6271 5.81385 17.5523 5.81385 18.1433C5.81385 18.202 5.81366 18.2595 5.81347 18.316C5.81108 19.0271 5.80926 19.5713 6.19999 19.9998C6.56553 20.3596 7.9258 21.098 9.02243 21.4834C10.0909 21.8432 11.4657 21.8998 11.9999 21.8998C12.5342 21.8998 13.909 21.8432 14.9775 21.4834C16.0742 21.098 17.455 20.3596 17.8206 19.9998C18.1968 19.5872 18.1927 19.0675 18.1874 18.3947C18.1868 18.3132 18.1861 18.2294 18.1861 18.1433C18.1861 17.5523 18.0174 16.6271 17.8206 16.0875C17.5394 15.3166 17.3426 15.1367 16.7802 15.1367C16.3865 15.1624 15.9085 14.9825 15.7398 14.7512C15.543 14.5456 15.4305 14.0831 15.5149 13.7233C15.5992 13.3635 15.9085 13.0294 16.2178 12.9524C16.5271 12.8753 17.0333 12.9524 17.3426 13.0808C17.8206 13.3121 17.9049 13.2607 17.9049 12.6954C17.9049 12.3356 17.7925 11.796 17.6519 11.4619C17.4269 11.025 17.5394 10.6909 18.158 9.86862C18.4344 9.31201 18.8864 7.92681 18.7856 6.72091C18.6625 5.24812 18.1174 4.03982 17.3426 3.52126C16.5677 3.00271 15.0127 3.36707 15.7398 4.90894C16.4669 6.45081 16.4194 7.22337 16.2653 7.62534C16.1112 8.0273 15.623 8.83338 15.0368 8.78931C14.84 8.8407 14.2495 8.73791 13.7715 8.53233C13.2654 8.35245 12.4498 8.19826 11.9999 8.19826C11.55 8.19826 10.7346 8.35245 10.2285 8.53233C9.75044 8.73791 9.15995 8.8407 8.96312 8.78931ZM13.5626 15.7853L14.2325 16.549L13.3712 17.4082C13.084 17.6946 12.8381 18.2234 12.7592 18.7344C12.7057 19.0814 12.6049 19.5838 12.6049 19.5838H11.9999H11.3951C11.3951 19.5838 11.2943 19.0814 11.2407 18.7344C11.1619 18.2234 10.9159 17.6946 10.6288 17.4082L9.76745 16.549L10.4374 15.7853L11.3944 16.2626C11.6118 16.3494 11.8169 16.4053 11.9999 16.409C12.1829 16.4053 12.3881 16.3494 12.6055 16.2626L13.5626 15.7853Z" fill="#000000"/>
</svg>
