<svg xmlns="http://www.w3.org/2000/svg" width="45" height="24" viewBox="0 0 45 24" fill="none"><rect width="45" height="24" fill="none"/>
<path fill-rule="evenodd" clip-rule="evenodd" d="M40.8622 7.09988C39.4257 5.89481 37.5639 5.26477 35.6594 5.33926H31.1665V18.6667H35.6594C40.0968 18.6667 42.8258 16.1164 42.8258 12.019C42.8696 11.113 42.7178 10.2082 42.3798 9.36154C42.0419 8.51489 41.5252 7.7448 40.8622 7.09988ZM33.8622 7.66542H35.6261C36.2293 7.6168 36.8362 7.69676 37.4036 7.8996C37.971 8.10244 38.4849 8.42317 38.9087 8.83893C39.3325 9.25469 39.6557 9.75524 39.8553 10.3049C40.0549 10.8546 40.126 11.4398 40.0635 12.019C40.1181 12.5965 40.0415 13.1785 39.839 13.7247C39.6366 14.2709 39.3132 14.7683 38.8911 15.1824C38.469 15.5965 37.9584 15.9174 37.3947 16.1229C36.8309 16.3284 36.2275 16.4136 35.6261 16.3725H33.8733L33.8622 7.66542Z" fill="#000000"/>
<path d="M28.6665 5.3335H26.1665V18.6668H28.6665V5.3335Z" fill="#000000"/>
<path d="M11.9764 7.51796H12.0204L13.1405 11.031H10.7904L11.9764 7.51796Z" fill="#000000"/>
<path fill-rule="evenodd" clip-rule="evenodd" d="M6.2 2C3.8804 2 2 3.8804 2 6.2V17.8C2 20.1196 3.8804 22 6.2 22H17.8C20.1196 22 22 20.1196 22 17.8V6.2C22 3.8804 20.1196 2 17.8 2H6.2ZM7.77209 18.4132H16.2281V16.6622H7.77209V18.4132ZM12.066 5.58714C11.1139 5.58714 10.8182 6.15084 10.5645 6.86963L7.948 14.2814H9.68298L10.2871 12.5194H13.6255L14.1855 14.2814H16.0305L13.5371 6.86963C13.2961 6.15314 13.0182 5.58714 12.066 5.58714Z" fill="#000000"/>
</svg>
