<svg xmlns="http://www.w3.org/2000/svg" width="24" height="24" viewBox="0 0 24 24" fill="none"><rect width="24" height="24" fill="none"/>
<path d="M9.13706 6.86351H11.4106C13.6013 6.86351 15.3173 8.51217 15.3173 10.6164C15.3173 12.7248 13.6013 14.3766 11.4106 14.3766C10.6127 14.3766 9.88096 14.3705 9.28155 14.3652C9.23247 14.3646 9.18426 14.3643 9.13706 14.364V6.86351ZM8.23552 16.1596C8.50097 16.1596 8.8518 16.1628 9.26603 16.1663C9.86964 16.1716 10.6067 16.1779 11.4106 16.1779C14.6125 16.1779 17.1206 13.7349 17.1206 10.6164C17.1206 7.50185 14.6125 5.06226 11.4106 5.06226H8.23552C7.73751 5.06226 7.33386 5.46571 7.33386 5.96296V15.2591C7.33386 15.7565 7.73751 16.1596 8.23552 16.1596Z" fill="#0068FF"/>
<path d="M21.0984 5.06242C20.5997 5.06242 20.1968 5.46588 20.1968 5.96313V16.285C20.1968 18.4059 19.3925 19.1368 17.1206 19.1368H6.87912C4.44917 19.1368 3.80321 18.5534 3.80321 16.285V5.96313C3.80321 5.46588 3.39942 5.06242 2.90161 5.06242C2.40366 5.06242 2 5.46588 2 5.96313V16.285C2 20.3788 4.51616 20.9379 6.87912 20.9379H17.1206C20.4119 20.9379 22 19.4329 22 16.285V5.96313C22 5.46588 21.5958 5.06242 21.0984 5.06242Z" fill="#0068FF"/>
</svg>
