<svg xmlns="http://www.w3.org/2000/svg" width="24" height="24" viewBox="0 0 24 24" fill="none"><rect width="24" height="24" fill="none"/>
<path d="M20.888 12.3793V11.7019C20.888 11.5245 20.9202 11.3312 20.9363 11.1537H20.9041C20.8074 11.3312 20.7266 11.4762 20.63 11.6697L20.1945 12.3634V12.3795L20.888 12.3793ZM20.888 13.6854V12.8953H19.5006V12.4437L20.8229 10.3958H21.5969V12.3632H21.9996V12.8953H21.5969V13.6852L20.888 13.6854Z" fill="#221F20"/>
<path d="M17.2431 13.6848V13.2334L17.6459 12.8141C18.1619 12.2659 18.5973 11.8295 18.5973 11.3467C18.5973 11.0886 18.4199 10.8951 18.0813 10.8951C17.8681 10.9059 17.6595 10.9608 17.4686 11.0564L17.3397 10.5565C17.6216 10.4211 17.9299 10.3495 18.2426 10.3469C19.1294 10.3469 19.4035 10.8306 19.4035 11.2983C19.4035 11.911 18.9359 12.4109 18.4682 12.8463L18.2276 13.0719V13.088H19.4693V13.6684H17.2431V13.6848Z" fill="#221F20"/>
<path fill-rule="evenodd" clip-rule="evenodd" d="M8.22906 8.28332C4.27847 9.15422 1.52122 11.5085 2.06945 13.5561C2.63334 15.6041 6.27804 16.5714 10.2447 15.7171C14.1953 14.8625 16.9528 12.4919 16.4046 10.4442C15.8402 8.39632 12.1796 7.42876 8.22906 8.28332ZM11.1476 10.831H10.3575V13.669H9.72872V10.831H8.93861V10.3311H11.1476V10.831ZM13.0184 13.669H13.6149L13.6154 10.3311H12.9217L12.083 12.5726V10.3311H11.4865V13.669H12.1638L13.0184 11.4437V13.669ZM8.60007 13.669H7.97129V10.831H7.13261V13.669H6.50383V10.3311H8.60007V13.669ZM3.93987 11.4117C3.93987 10.5732 4.39143 10.2669 5.02022 10.2669C5.66533 10.2669 6.10056 10.5578 6.10056 11.4117V12.62C6.10056 13.4746 5.66511 13.7487 5.02022 13.7487C4.39143 13.7487 3.93987 13.4585 3.93987 12.62V11.4117ZM5.45567 12.7017C5.45567 13.0564 5.31044 13.2338 5.03633 13.2338C4.72999 13.2338 4.60088 13.0402 4.60088 12.7017V11.3311C4.60088 10.9765 4.7461 10.7668 5.03633 10.7668C5.31044 10.7668 5.45567 10.9765 5.45567 11.3311V12.7017Z" fill="#3874B6"/>
</svg>
