<svg xmlns="http://www.w3.org/2000/svg" width="24" height="24" viewBox="0 0 24 24" fill="none"><rect width="24" height="24" fill="none"/>
<path d="M2.00009 16.4443L6.94229 16.4443C9.56273 16.4443 11.1418 15.1087 11.1418 12.9144V12.8971C11.1418 11.2492 10.0066 10.0263 8.25677 9.84419V9.8095C9.55415 9.6187 10.5357 8.3958 10.5357 7.0775V7.06016C10.5357 5.16944 9.10177 3.9292 6.91668 3.9292L2.00009 3.9292L2.00009 16.4443ZM6.45572 5.51636C7.83853 5.51636 8.6323 6.14949 8.6323 7.29433V7.31168C8.6323 8.56926 7.71903 9.2631 6.02896 9.2631H3.91213L3.91213 5.51636L6.45572 5.51636ZM6.42158 10.7635C8.24819 10.7635 9.18714 11.4574 9.18714 12.8017V12.819C9.18714 14.1547 8.26528 14.8572 6.5496 14.8572H3.91213L3.91213 10.7635H6.42158Z" fill="#212121"/>
<path fill-rule="evenodd" clip-rule="evenodd" d="M16.4244 7.18939C18.9694 6.69372 21.4278 8.38951 21.9154 10.977C22.4029 13.5646 20.7349 16.0639 18.1899 16.5596C17.1968 16.753 16.2169 16.6128 15.3621 16.2161L12.5018 19.7531C12.2011 20.1248 11.661 20.1784 11.2954 19.8728C10.9298 19.5672 10.8771 19.0181 11.1777 18.6463L13.9545 15.2125C13.3298 14.5651 12.8794 13.7296 12.6989 12.772C12.2114 10.1845 13.8794 7.68506 16.4244 7.18939ZM15.6419 14.3845C15.6372 14.3811 15.6324 14.3778 15.6276 14.3745C15.0008 13.9393 14.5366 13.2619 14.3825 12.4441C14.0731 10.8019 15.1317 9.21561 16.7469 8.90103C18.3621 8.58645 19.9224 9.6627 20.2318 11.3049C20.5412 12.9471 19.4826 14.5334 17.8674 14.848C17.0626 15.0047 16.2715 14.8162 15.6419 14.3845Z" fill="#212121"/>
</svg>
