<svg xmlns="http://www.w3.org/2000/svg" width="24" height="24" viewBox="0 0 24 24" fill="none"><rect width="24" height="24" fill="none"/>
<path d="M10.2702 9.13743C11.3799 9.13743 12.2388 9.4025 12.8467 9.93265C13.4617 10.4628 13.7691 11.1519 13.7691 12.0002C13.7691 12.8484 13.4617 13.5377 12.8467 14.0678C12.2388 14.598 11.3799 14.863 10.2702 14.863H9.14178C8.97447 14.863 8.83884 14.9986 8.83884 15.1659V15.6203C8.83884 15.7876 8.7032 15.9233 8.5359 15.9233H7.23326C7.06595 15.9233 6.93032 15.7876 6.93032 15.6203V15.1659C6.93032 14.9986 6.79469 14.863 6.62738 14.863H5.49894C4.38916 14.863 3.52681 14.598 2.91183 14.0678C2.30394 13.5377 2 12.8484 2 12.0002C2 11.1519 2.30394 10.4628 2.91183 9.93265C3.52681 9.4025 4.38916 9.13743 5.49894 9.13743H6.62738C6.79469 9.13743 6.93032 9.0018 6.93032 8.8345V8.38009C6.93032 8.21278 7.06595 8.07715 7.23326 8.07715H8.5359C8.7032 8.07715 8.83884 8.21278 8.83884 8.38009V8.8345C8.83884 9.0018 8.97447 9.13743 9.14178 9.13743H10.2702ZM5.55195 13.3255H6.77885C6.86251 13.3255 6.93032 13.2578 6.93032 13.1741V10.8264C6.93032 10.7427 6.86251 10.6748 6.77885 10.6748H5.55195C5.06421 10.6748 4.68605 10.795 4.41745 11.0354C4.14884 11.2757 4.01453 11.5973 4.01453 12.0002C4.01453 12.4032 4.14884 12.7247 4.41745 12.9651C4.68605 13.2054 5.06421 13.3255 5.55195 13.3255ZM10.2172 13.3255C10.7049 13.3255 11.0831 13.2054 11.3517 12.9651C11.6203 12.7247 11.7546 12.4032 11.7546 12.0002C11.7546 11.5973 11.6203 11.2757 11.3517 11.0354C11.0831 10.795 10.7049 10.6748 10.2172 10.6748H8.99031C8.90665 10.6748 8.83884 10.7427 8.83884 10.8264V13.1741C8.83884 13.2578 8.90665 13.3255 8.99031 13.3255H10.2172Z" fill="white"/>
<path d="M21.6972 8.2892C21.8645 8.2892 22.0002 8.42484 22.0002 8.59214V9.62972C22.0002 9.79702 21.8645 9.93265 21.6972 9.93265H19.3343C19.1669 9.93265 19.0313 10.0683 19.0313 10.2356V15.4083C19.0313 15.5756 18.8957 15.7112 18.7284 15.7112H17.4258C17.2585 15.7112 17.1228 15.5756 17.1228 15.4083V10.2356C17.1228 10.0683 16.9872 9.93265 16.8199 9.93265H14.457C14.2897 9.93265 14.154 9.79702 14.154 9.62972V8.59214C14.154 8.42484 14.2897 8.2892 14.457 8.2892H21.6972Z" fill="white"/>
</svg>
