<svg xmlns="http://www.w3.org/2000/svg" width="145" height="24" viewBox="0 0 145 24" fill="none"><rect width="145" height="24" fill="none"/>
<path d="M38.1825 22H42.3508L42.9423 20.247C43.1132 19.739 43.5992 18.835 45.6825 18.835H53.0713C54.4325 18.835 55.1227 19.7246 55.265 20.247L55.8387 22H60.039L51.8523 2H46.3717L38.1825 22ZM45.0091 14.2144L48.5325 5.8492C48.6611 5.57748 48.7782 5.32892 49.111 5.32892C49.3794 5.32892 49.4879 5.55795 49.6114 5.8492L53.2225 14.2348C53.6919 15.1913 53.2225 15.7596 51.9605 15.7596H46.5247C45.0091 15.7596 44.6685 15.1784 45.0091 14.2144Z" fill="white"/>
<path d="M122.663 22H126.228V14.627C126.228 14.173 126.228 13.545 127.08 13.545C127.096 13.5445 127.666 13.5441 127.666 13.5441C128.966 13.5441 129.891 14.5589 130.453 15.1218L136.966 21.9975H141.165L134.074 14.6605C134.074 14.6605 133.844 14.4446 133.844 13.9783C133.844 13.5441 134.336 13.5441 134.984 13.5441C135.566 13.5441 137.211 13.5441 137.211 13.5441C141.26 13.4985 143.171 10.6049 143.171 7.76241C143.171 4.35911 140.738 2 137.211 2H122.664L122.663 22ZM126.228 8.88396V6.58286C126.228 5.49999 126.899 5.05524 127.992 5.05524H136.539C138.437 5.05524 139.607 6.0801 139.607 7.76241C139.607 9.42539 138.437 10.4889 136.539 10.4889H127.992C126.918 10.4889 126.228 10.0442 126.228 8.88396Z" fill="white"/>
<path d="M21.0968 2H7.96109C5.1047 2 2 3.72971 2 7.71734C2 11.705 5.11627 13.5072 7.9642 13.5072C10.8121 13.5072 13.7813 13.5072 15.0385 13.5072C16.2955 13.5072 18.1132 14.0147 18.1132 16.1778C18.1132 18.341 16.296 18.9364 15.0305 18.9364H2.75047V22H15.7359C18.3236 22 21.6791 20.4274 21.6791 16.1778C21.6791 11.9284 18.3384 10.4867 15.7228 10.4867C13.1072 10.4867 9.95512 10.4867 8.5284 10.4867C7.10168 10.4867 5.56641 9.7066 5.56641 7.71734C5.56641 5.72808 7.23846 5.04997 8.54649 5.04997H21.0968V2Z" fill="white"/>
<path d="M30.2173 6.89513V22H33.7513V6.7795C33.7513 5.75807 34.4962 5.045 35.4705 5.045H41.6405V2H22.3471V5.045H28.3644C29.4532 5.045 30.2173 5.81589 30.2173 6.89513Z" fill="white"/>
<path d="M61.038 22H64.603L64.6036 14.627C64.6036 14.173 64.6036 13.545 65.4556 13.545C65.4716 13.5445 66.0412 13.5441 66.0412 13.5441C67.3415 13.5441 68.2663 14.5589 68.8292 15.1218L75.3417 21.9975H79.5407L72.4493 14.6605C72.4493 14.6605 72.2202 14.4446 72.2202 13.9783C72.2202 13.5441 72.7112 13.5441 73.3597 13.5441C73.9408 13.5441 75.5861 13.5441 75.5861 13.5441C79.635 13.4985 81.5469 10.6049 81.5469 7.76241C81.5469 4.35911 79.1127 2 75.5861 2H61.0387L61.038 22ZM64.6036 8.88396V6.58286C64.6036 5.49999 65.2744 5.05524 66.367 5.05524H74.9152C76.8127 5.05524 77.9819 6.0801 77.9819 7.76241C77.9819 9.42539 76.8127 10.4889 74.9152 10.4889H66.367C65.2936 10.4889 64.6036 10.0442 64.6036 8.88396Z" fill="white"/>
<path d="M89.8327 6.89513V22H93.3671V6.7795C93.3671 5.75807 94.1119 5.045 95.0856 5.045H101.256V2H81.9625V5.045H87.9798C89.0686 5.045 89.8327 5.81589 89.8327 6.89513Z" fill="white"/>
<path d="M102.92 22H120.617V18.9436H108.173C107.157 18.9436 106.486 18.2666 106.486 17.2412L106.503 15.2492C106.503 14.2046 107.174 13.5275 108.19 13.5275H120.634V10.4711H108.056C107.117 10.4711 106.503 9.89074 106.503 9.02022L106.486 6.44926C106.486 5.59811 107.099 5.05645 108.039 5.05645H120.617V2H102.92V22Z" fill="white"/>
</svg>
