<svg xmlns="http://www.w3.org/2000/svg" width="24" height="24" viewBox="0 0 24 24" fill="none"><rect width="24" height="24" fill="none"/>
<path fill-rule="evenodd" clip-rule="evenodd" d="M12.2564 21.116C11.1915 21.116 10.1855 20.9788 9.23837 20.7044C8.57596 20.5125 7.87294 20.4489 7.20592 20.6251L2 22L3.30882 17.2316C3.4967 16.547 3.39903 15.8248 3.14618 15.1607C2.72389 14.0518 2.51285 12.8509 2.51285 11.558C2.51285 9.7409 2.92988 8.10554 3.76393 6.6518C4.62333 5.19816 5.78595 4.0594 7.2519 3.23564C8.7431 2.41188 10.4113 2 12.2564 2C14.1015 2 15.757 2.41188 17.223 3.23564C18.7142 4.0594 19.8769 5.19816 20.711 6.6518C21.5704 8.10554 22 9.7409 22 11.558C22 13.3752 21.5704 15.0105 20.711 16.4642C19.8769 17.9179 18.7142 19.0567 17.223 19.8803C15.757 20.7041 14.1015 21.116 12.2564 21.116ZM15.8581 15.483C14.8976 16.4763 13.6971 16.973 12.2564 16.973C11.3212 16.973 10.4619 16.7549 9.67833 16.3188C8.89476 15.8585 8.27559 15.2165 7.8206 14.3927C7.36571 13.5689 7.13821 12.6241 7.13821 11.558C7.13821 10.492 7.36571 9.54712 7.8206 8.72336C8.27559 7.8996 8.89476 7.25756 9.67833 6.79724C10.4619 6.33691 11.3212 6.10675 12.2564 6.10675C13.1916 6.10675 14.0383 6.33691 14.7965 6.79724C15.5801 7.25756 16.1993 7.8996 16.6543 8.72336C17.1093 9.54712 17.3367 10.492 17.3367 11.558C17.3367 13.1571 16.8438 14.4654 15.8581 15.483Z" fill="white"/>
</svg>
