<svg xmlns="http://www.w3.org/2000/svg" width="139" height="24" viewBox="0 0 139 24" fill="none"><rect width="139" height="24" fill="none"/>
<path fill-rule="evenodd" clip-rule="evenodd" d="M87.1675 12C87.1675 17.5229 82.6903 22 77.1675 22C71.6446 22 67.1675 17.5229 67.1675 12C67.1675 6.47715 71.6446 2 77.1675 2C78.2465 2 79.2856 2.17091 80.2593 2.48713L77.9801 9.5H71.3241L70.5108 12H77.1676L75.2176 18H77.9676L79.9176 12H87.1675ZM86.8525 9.5H80.7301L82.6385 3.62798C82.8161 3.74432 82.9899 3.86615 83.1594 3.99325C83.1886 4.01508 83.2176 4.03706 83.2464 4.05919C83.3418 4.1323 83.4358 4.20709 83.5284 4.28351C85.1333 5.608 86.318 7.42348 86.8525 9.5Z" fill="white"/>
<path fill-rule="evenodd" clip-rule="evenodd" d="M87.1675 12C87.1675 17.5229 82.6903 22 77.1675 22C71.6446 22 67.1675 17.5229 67.1675 12C67.1675 6.47715 71.6446 2 77.1675 2C78.2465 2 79.2856 2.17091 80.2593 2.48713L77.9801 9.5H71.3241L70.5108 12H77.1676L75.2176 18H77.9676L79.9176 12H87.1675ZM86.8525 9.5H80.7301L82.6385 3.62798C82.8161 3.74432 82.9899 3.86615 83.1594 3.99325C83.1886 4.01508 83.2176 4.03706 83.2464 4.05919C83.3418 4.1323 83.4358 4.20709 83.5284 4.28351C85.1333 5.608 86.318 7.42348 86.8525 9.5Z" fill="white"/>
<path d="M12.0015 19.5002V4.43359H8.1848C4.35146 4.43359 2.3348 6.40026 2.3348 9.31693C2.3348 11.6336 3.4348 13.0003 5.41813 14.4003L2.00146 19.5002H4.8348L8.65146 13.8003L7.3348 12.9169C5.71813 11.8336 4.9348 10.9836 4.9348 9.16693C4.9348 7.56693 6.06813 6.48359 8.20146 6.48359H9.36813V19.5002H12.0015ZM59.9348 19.7169C61.1181 19.7169 61.9681 19.5002 62.6015 19.0502V16.9503C61.9515 17.4003 61.1681 17.6836 60.0848 17.6836C58.2348 17.6836 57.4848 16.2503 57.4848 14.0003C57.4848 11.6336 58.4181 10.4169 60.1015 10.4169C61.1015 10.4169 62.0681 10.7669 62.5848 11.0836V8.90026C62.0515 8.60026 61.0848 8.38359 59.8181 8.38359C56.5181 8.38359 54.8181 10.7503 54.8181 14.0669C54.8181 17.7003 56.4848 19.7169 59.9348 19.7169ZM43.8181 18.7669V16.6669C43.0181 17.2003 41.6681 17.6836 40.4181 17.6836C38.5348 17.6836 37.8181 16.8003 37.7181 14.9836H43.9348V13.6169C43.9348 9.81693 42.2681 8.40026 39.6848 8.40026C36.5348 8.38359 35.0348 10.7836 35.0348 14.0836C35.0348 17.8836 36.9015 19.7169 40.1848 19.7169C41.8348 19.7169 43.0515 19.2836 43.8181 18.7669ZM20.2015 8.60026V12.9169H16.7515V8.60026H14.1681V19.5002H16.7515V14.9503H20.2015V19.5002H22.7848V8.60026H20.2015ZM34.4015 17.4669H33.2515V8.60026H25.7348V9.53359C25.7348 12.2003 25.5681 15.6503 24.6515 17.4669H23.8515V22.0002H26.2348V19.5002H32.0181V21.9836H34.4015V17.4669ZM52.0515 19.5002H54.9681L50.8348 13.6336L54.4681 8.60026H51.8681L48.2348 13.6336V8.60026H45.6515V19.5002H48.2348V14.1503L52.0515 19.5002ZM39.6348 10.4169C40.9181 10.4169 41.3015 11.4836 41.3015 12.8503V13.0669H37.7015C37.7681 11.3336 38.4015 10.4169 39.6348 10.4169ZM30.6848 17.4669H27.0348C27.7515 15.8169 27.9515 12.8503 27.9515 10.9669V10.6503H30.6848V17.4669Z" fill="white"/>
<path d="M102.091 4.44189H92.1681V19.5002H94.7898V6.47856H99.4698V19.5002H102.091V4.44189Z" fill="white"/>
<path d="M103.248 17.2685L103.4 17.3769C103.501 17.4347 103.646 17.4635 103.833 17.4635C104.252 17.4635 104.527 17.2469 104.657 16.8135C104.787 16.3802 104.873 15.5858 104.917 14.4302L105.133 8.60188H112.522V19.5002H109.943V10.6385H107.322L107.17 14.5385C107.127 15.7374 107.018 16.7197 106.845 17.4852C106.672 18.2508 106.383 18.8141 105.978 19.1752C105.574 19.5362 105.003 19.7169 104.267 19.7169C103.963 19.7169 103.718 19.6807 103.53 19.6086L103.248 19.5002V17.2685Z" fill="white"/>
<path d="M134.503 19.7169C132.784 19.7169 131.499 19.2329 130.646 18.2652C129.809 17.283 129.39 15.8819 129.39 14.0619C129.39 12.9497 129.578 11.9674 129.953 11.1152C130.329 10.263 130.885 9.59854 131.621 9.12188C132.373 8.63076 133.297 8.38521 134.395 8.38521C135.03 8.38521 135.579 8.43576 136.041 8.53688C136.518 8.62354 136.894 8.74633 137.168 8.90521V11.0935C136.908 10.9347 136.554 10.783 136.106 10.6385C135.659 10.4941 135.182 10.4219 134.676 10.4219C133.839 10.4219 133.189 10.7252 132.726 11.3319C132.279 11.9241 132.055 12.8124 132.055 13.9969C132.055 15.1235 132.257 16.0191 132.661 16.6835C133.066 17.348 133.73 17.6802 134.655 17.6802C135.204 17.6802 135.68 17.6152 136.085 17.4852C136.489 17.3552 136.85 17.1747 137.168 16.9435V19.0452C136.547 19.4929 135.659 19.7169 134.503 19.7169Z" fill="white"/>
<path fill-rule="evenodd" clip-rule="evenodd" d="M126.736 9.85854C125.87 8.87633 124.743 8.38521 123.356 8.38521C122.129 8.38521 121.096 8.77521 120.258 9.55521C119.42 10.3208 118.908 11.4402 118.72 12.9135H117.246V8.60188H114.668V19.5002H117.246V14.9502H118.698C118.843 16.4958 119.334 17.6802 120.171 18.5035C121.024 19.3124 122.085 19.7169 123.356 19.7169C124.743 19.7169 125.87 19.2329 126.736 18.2652C127.618 17.283 128.058 15.8747 128.058 14.0402C128.058 12.2202 127.618 10.8263 126.736 9.85854ZM124.873 16.8135C124.541 17.3913 124.035 17.6802 123.356 17.6802C122.678 17.6802 122.165 17.3913 121.818 16.8135C121.486 16.2358 121.32 15.3185 121.32 14.0619C121.32 12.7908 121.486 11.8663 121.818 11.2885C122.165 10.7108 122.678 10.4219 123.356 10.4219C124.035 10.4219 124.541 10.7108 124.873 11.2885C125.22 11.8663 125.393 12.7835 125.393 14.0402C125.393 15.3113 125.22 16.2358 124.873 16.8135Z" fill="white"/>
</svg>
