<svg xmlns="http://www.w3.org/2000/svg" width="111" height="24" viewBox="0 0 111 24" fill="none"><rect width="111" height="24" fill="none"/>
<path d="M59.2829 18.6479V5.35724H67.6196V8.44283H62.7592V18.6479H59.2829Z" fill="white"/>
<path d="M78.1042 18.6479V13.4403H72.9433V18.6479H69.4671V5.35724H72.9433V10.3188H78.1042V5.35724H81.575V18.6479H78.1042Z" fill="white"/>
<path d="M97.6838 5.35724V8.44283H101.745V18.6479H105.221V8.44283H109.298V5.35724H97.6838Z" fill="white"/>
<path d="M92.5738 18.6479V11.0722L87.0413 18.6479H84.1354V5.35724H87.6113V12.8508L93.0471 5.35724H96.05V18.6479H92.5738Z" fill="white"/>
<path d="M39.3166 18.6479V10.7493L35.8455 14.9216L32.3795 10.7493V18.6479H28.9034V5.35724H32.3287L35.8455 9.92413L39.3624 5.35724H42.7928V18.6479H39.3166Z" fill="white"/>
<path d="M49.3888 13.9734H52.6208L51.0021 9.80117L49.3888 13.9734ZM54.4275 18.6479L53.705 16.7822H48.2996L47.5771 18.6479H44.0804L49.4246 5.35215H52.6358L57.985 18.6479H54.4275Z" fill="white"/>
<path d="M2 8.05842C2.00403 6.45287 2.63911 4.91425 3.76643 3.77895C4.89375 2.64365 6.42163 2.00406 8.01588 2H21.9053V5.07535H8.01588C7.232 5.0794 6.48133 5.39514 5.9275 5.95385C5.37368 6.51254 5.0615 7.269 5.05883 8.05842V13.225C4.99545 13.8865 4.71635 14.5082 4.2652 14.9931C3.81405 15.478 3.21628 15.799 2.565 15.9057L2.02038 15.9877L2 8.05842Z" fill="white"/>
<path d="M2 22V18.9246H15.8894C16.6724 18.9206 17.4223 18.6055 17.9759 18.0479C18.5296 17.4903 18.8425 16.7352 18.8465 15.9467V11.0415C18.8498 10.3304 19.1038 9.64358 19.5634 9.10375C20.023 8.56387 20.6583 8.20612 21.3556 8.09429L21.9002 8.01225V15.9467C21.8975 17.5522 21.2626 19.091 20.1349 20.2258C19.0071 21.3606 17.4785 21.9986 15.8843 22L2 22Z" fill="white"/>
<path d="M13.7619 16.0031V12.0205L11.95 14.1989L10.1382 12.0205V16.0031H7.74096V8.17121H10.016L11.95 10.6879L13.8892 8.17121H16.1591V16.0031H13.7619Z" fill="white"/>
<path fill-rule="evenodd" clip-rule="evenodd" d="M8.01588 2H21.9053V5.07535H8.01588C7.232 5.0794 6.48133 5.39514 5.9275 5.95385C5.37368 6.51254 5.0615 7.269 5.05883 8.05842V13.225C4.99545 13.8865 4.71635 14.5082 4.2652 14.9931C3.81405 15.478 3.21628 15.799 2.565 15.9057L2.02038 15.9877L2 8.05842C2.00403 6.45287 2.63911 4.91425 3.76643 3.77895C4.89375 2.64365 6.42163 2.00406 8.01588 2ZM2 18.9246V22L15.8843 22C17.4785 21.9986 19.0071 21.3606 20.1349 20.2258C21.2626 19.091 21.8975 17.5522 21.9002 15.9467V8.01225L21.3556 8.09429C20.6583 8.20612 20.023 8.56387 19.5634 9.10375C19.1038 9.64358 18.8498 10.3304 18.8465 11.0415V15.9467C18.8425 16.7352 18.5296 17.4903 17.9759 18.0479C17.4223 18.6055 16.6724 18.9206 15.8894 18.9246H2ZM59.2829 18.6479V5.35724H67.6196V8.44283H62.7592V18.6479H59.2829ZM78.1042 18.6479V13.4403H72.9433V18.6479H69.4671V5.35724H72.9433V10.3188H78.1042V5.35724H81.575V18.6479H78.1042ZM97.6838 5.35724V8.44283H101.745V18.6479H105.221V8.44283H109.298V5.35724H97.6838ZM92.5738 18.6479V11.0722L87.0413 18.6479H84.1354V5.35724H87.6113V12.8508L93.0471 5.35724H96.05V18.6479H92.5738ZM39.3166 18.6479V10.7493L35.8455 14.9216L32.3795 10.7493V18.6479H28.9034V5.35724H32.3287L35.8455 9.92413L39.3624 5.35724H42.7928V18.6479H39.3166ZM54.4275 18.6479L53.705 16.7822H48.2996L47.5771 18.6479H44.0804L49.4246 5.35215H52.6358L57.985 18.6479H54.4275ZM13.7619 16.0031V12.0205L11.95 14.1989L10.1382 12.0205V16.0031H7.74096V8.17121H10.016L11.95 10.6879L13.8892 8.17121H16.1591V16.0031H13.7619ZM52.6208 13.9734H49.3888L51.0021 9.80117L52.6208 13.9734Z" fill="white"/>
</svg>
