<svg xmlns="http://www.w3.org/2000/svg" width="79" height="24" viewBox="0 0 79 24" fill="none"><rect width="79" height="24" fill="none"/>
<path fill-rule="evenodd" clip-rule="evenodd" d="M11.8837 2H4.20399L2 4.09869V22H6.40798L8.62544 19.6221V16.1239H8.66463L11.7625 22H16.3272L18.6781 19.6221L15.0991 13.0224L15.104 13.0102C15.366 12.8588 15.6097 12.6776 15.83 12.4702C16.1362 12.1922 16.43 11.8653 16.7116 11.4894C17.0251 11.0841 17.2822 10.5674 17.4953 9.95519C17.716 9.30384 17.8261 8.62012 17.821 7.93241C17.821 6.27942 17.2553 4.86886 16.1288 3.72768C15.0048 2.57181 13.5783 2 11.8837 2ZM8.62667 8.45892H9.56704C10.058 8.45892 10.4327 8.62055 10.7327 8.93278L10.7364 8.93645C10.9384 9.14461 11.0792 9.38705 11.149 9.67724H8.62667V8.45892ZM5.16763 2.83874V18.7834H7.80017V12.9085H11.4466L14.5444 18.7846H17.281L13.9713 12.6832L14.6374 12.3086L14.6521 12.3024C14.7991 12.2339 15.0072 12.0906 15.2791 11.8433C15.5399 11.607 15.7994 11.3192 16.0553 10.9776L16.059 10.9739C16.3002 10.6617 16.5206 10.2344 16.7129 9.67724C16.8978 9.14093 16.9933 8.55932 16.9933 7.93241C16.9933 6.49492 16.5096 5.29987 15.5423 4.32031L15.5399 4.31786C14.5848 3.33586 13.375 2.83997 11.8825 2.83997H5.16763V2.83874ZM7.80017 5.24232H11.771C12.5032 5.24232 13.1314 5.49578 13.6261 6.01126C14.1281 6.52553 14.373 7.17693 14.373 7.93241C14.373 8.65116 14.122 9.27317 13.6224 9.77519C13.1265 10.2735 12.4983 10.5172 11.771 10.5172H7.80017V5.24232Z" fill="white"/>
<path d="M64.6858 8.17607V17.7757H61.9798V8.17607H64.6858ZM64.4519 4.63255C64.7385 4.9056 64.8805 5.27048 64.8805 5.72597C64.8805 6.17534 64.7385 6.53655 64.4519 6.8096C64.1642 7.08387 63.7736 7.21979 63.2789 7.21979C62.8222 7.21979 62.4585 7.08387 62.1843 6.8096C61.9173 6.53655 61.7827 6.17534 61.7827 5.72597C61.7827 5.27048 61.9198 4.9056 62.1941 4.63255C62.4671 4.3595 62.8296 4.22236 63.2789 4.22236C63.7736 4.22236 64.1642 4.3595 64.4519 4.63255ZM54.9711 5.08069V6.87694L54.9699 6.95531V8.17607H52.9679V10.5784H54.6687V14.5725C54.6687 16.8378 55.7009 17.9704 57.7665 17.9704C58.3823 17.9862 58.9956 17.8869 59.575 17.6777V15.3733L59.4575 15.4125C59.3717 15.4517 59.2456 15.4897 59.0754 15.5288C58.9126 15.5619 58.7448 15.5778 58.5673 15.5778C58.2495 15.5881 57.9405 15.4723 57.7077 15.2558C57.601 15.1559 57.5163 15.0348 57.4592 14.9003C57.4021 14.7657 57.3737 14.6207 57.3759 14.4746V10.5797H59.3693V8.17607H57.3759V5.08069H54.9711Z" fill="white"/>
<path fill-rule="evenodd" clip-rule="evenodd" d="M35.4437 13.7718H42.5492L42.6471 12.6783C42.6471 11.2788 42.1818 10.1131 41.2488 9.18134C40.3182 8.24464 39.1513 7.77568 37.7506 7.77568C36.3498 7.77568 35.1474 8.2777 34.1446 9.27929C33.1406 10.276 32.6385 11.4735 32.6385 12.873C32.6385 14.2726 33.1479 15.4737 34.1642 16.4766C35.1805 17.472 36.4086 17.9704 37.8485 17.9704C38.3456 17.9719 38.8411 17.9131 39.324 17.7953C39.8064 17.6777 40.197 17.5443 40.497 17.3949C40.797 17.2382 41.0798 17.0618 41.3468 16.8671C41.6137 16.6712 41.79 16.5317 41.8745 16.4472L42.0508 16.2721L40.6537 14.4746L40.3697 14.777C40.1946 14.9791 39.8872 15.1811 39.4513 15.3831C39.0215 15.579 38.5514 15.6758 38.0432 15.6758C37.3404 15.6758 36.7576 15.4933 36.2947 15.1284C35.8319 14.7574 35.5478 14.3056 35.4437 13.7718ZM37.7506 10.0801C38.3236 10.0801 38.806 10.2491 39.1966 10.5882C39.5946 10.9262 39.8456 11.3559 39.9497 11.8776H35.4437C35.6066 11.3437 35.887 10.9102 36.2849 10.5784C36.689 10.2466 37.1775 10.0801 37.7506 10.0801Z" fill="white"/>
<path d="M31.7398 10.5784V7.87241H31.3394C30.8068 7.87241 30.2815 7.9965 29.8052 8.23485C29.3228 8.47606 29.0093 8.67075 28.866 8.82013C28.7516 8.93362 28.6413 9.05124 28.5354 9.17277V7.97159H25.8368V17.7757H28.5342V13.0775C28.5342 12.2375 28.7399 11.5923 29.1501 11.1429C29.5664 10.6947 30.1297 10.4695 30.8398 10.4695C31.2378 10.4768 31.5378 10.5123 31.7398 10.5772V10.5784ZM51.4619 9.27929L50.066 10.8711C50.0054 10.7955 49.94 10.7239 49.8701 10.6568C49.7844 10.565 49.6019 10.4486 49.3228 10.3054C49.0591 10.1596 48.7632 10.0822 48.462 10.0801C48.091 10.0801 47.7971 10.1621 47.5828 10.325C47.3673 10.4805 47.2596 10.6629 47.2596 10.8711C47.2596 11.1258 47.4126 11.3364 47.72 11.5066C48.0261 11.6755 48.3971 11.8286 48.8342 11.9645C49.2889 12.099 49.7357 12.2589 50.1725 12.4432C50.6219 12.6269 51.0002 12.9257 51.3064 13.342C51.6125 13.7522 51.7655 14.2628 51.7655 14.875C51.7655 15.7541 51.4165 16.49 50.7198 17.0814C50.0293 17.6741 49.0779 17.9704 47.8669 17.9704C47.3453 17.9704 46.8506 17.9091 46.3804 17.7855C45.9803 17.6894 45.5954 17.5381 45.2368 17.3361C44.9702 17.178 44.7127 17.0051 44.4654 16.8182C44.2959 16.686 44.1385 16.5388 43.9952 16.3786L43.8593 16.1741L45.3641 14.6803C45.4168 14.7574 45.4976 14.8591 45.609 14.9827C45.7254 15.0991 45.9666 15.2619 46.3315 15.4713C46.6963 15.6721 47.0747 15.7737 47.4653 15.7737C47.8951 15.7737 48.2183 15.6917 48.4326 15.5288C48.537 15.4551 48.6219 15.357 48.6799 15.2431C48.738 15.1292 48.7674 15.0028 48.7656 14.875C48.7656 14.6081 48.6114 14.3864 48.3052 14.2113C47.949 14.0079 47.5684 13.8504 47.1726 13.7424C46.7177 13.6037 46.2705 13.4406 45.8331 13.2538C45.3922 13.0616 45.0084 12.7588 44.7189 12.3747C44.4128 11.978 44.2597 11.4772 44.2597 10.8711C44.2597 10.0838 44.6246 9.37113 45.3543 8.73319C46.0902 8.09526 46.9926 7.77568 48.0604 7.77568C48.7387 7.77568 49.3619 7.90302 49.9276 8.15648C50.5019 8.40994 50.8986 8.6585 51.1202 8.89849L51.4619 9.27929ZM70.1982 15.3733L71.3908 13.9775L73.9989 17.7757H77L73.1014 12.18L76.7955 7.97159H73.6977L70.1982 11.9755V5.07457H67.4898V17.7745H70.1958V15.3721L70.1982 15.3733Z" fill="white"/>
</svg>
