<svg xmlns="http://www.w3.org/2000/svg" width="69" height="24" viewBox="0 0 69 24" fill="none"><rect width="69" height="24" fill="none"/>
<path d="M18.3173 4C16.127 4 14.8598 5.50188 14.8598 8.11451V15.8742C14.8598 18.4556 16.1583 19.9887 18.3173 19.9887C20.4918 19.9887 21.7903 18.4556 21.7903 15.8742V8.11451C21.806 5.50188 20.5388 4 18.3173 4ZM17.0031 8.02065C17.0031 6.81602 17.4412 6.20588 18.3173 6.20588C18.6458 6.20588 19.6314 6.20588 19.6314 8.02065V15.9524C19.6314 17.5795 18.8805 17.7672 18.3173 17.7672C17.9887 17.7672 17.0031 17.7672 17.0031 15.9524V8.02065Z" fill="#1F2328"/>
<path d="M12.6539 4.15645H10.4637V5.09512L10.4793 15.8273C10.4793 15.9837 10.4637 16.1245 10.4637 16.2497C10.4481 16.3592 10.4324 16.4843 10.4324 16.5782C10.3385 17.2353 10.1352 17.5012 9.68147 17.5951C9.65018 17.6108 9.57196 17.6108 9.57196 17.6108C9.54067 17.6108 9.49373 17.6264 9.4468 17.6264C9.41551 17.6264 9.18084 17.6264 9.18084 17.6264H7.38172C7.38172 17.6264 8.41426 17.4856 8.41426 16.938V4.15645H6.22403V17.6264H3.1577C3.1577 17.6264 4.19024 17.6264 4.19024 16.938V4.15645H2V19.8323H9.50938C9.57196 19.8323 9.61889 19.8323 9.68147 19.8323C11.903 19.7228 12.4818 18.1583 12.6383 16.4374C12.6539 16.2184 12.6696 15.9837 12.6852 15.749L12.6539 4.15645Z" fill="#1F2328"/>
<path d="M27.5319 4.15645C24.888 4.18773 24.4499 6.23717 24.3873 8.23967L24.2622 11.6189L24.2309 12.4168L24.1214 15.8429C24.0744 17.1883 23.8867 17.5951 23.1045 17.642V19.8479H23.1358C25.7797 19.8166 26.2177 17.7672 26.2803 15.7647L26.4211 11.6032L26.5463 8.16145C26.5932 6.81602 26.781 6.40926 27.5632 6.34668H29.5813C29.5813 6.34668 28.5331 6.34668 28.5331 7.03504V19.8323H30.7077V4.15645H27.5319Z" fill="#1F2328"/>
<path d="M37.9199 9.31914C37.6539 9.24092 37.3567 9.19399 37.0438 9.19399C36.9812 9.19399 36.9343 9.19399 36.8717 9.19399C36.3711 9.22528 35.8704 9.38172 35.448 9.66332C35.4167 9.67897 35.3854 9.71026 35.3542 9.7259C35.2759 9.78848 35.1977 9.85106 35.1038 9.89799C34.8379 10.0701 34.525 10.1952 34.2121 10.2109H34.1339C34.1652 10.2109 35.01 10.0231 35.1508 9.42866C35.1664 9.38172 35.1664 9.31914 35.1664 9.27221V4.15645H32.9918V15.8742C32.9918 17.5325 33.5394 18.7684 34.5406 19.4255C34.744 19.5663 34.963 19.6758 35.1977 19.7541C35.6045 19.9105 36.0582 19.9731 36.5588 19.9731C37.0594 19.9731 37.5131 19.8949 37.9199 19.7541C38.1545 19.6602 38.3892 19.5507 38.5926 19.4099C39.5938 18.7528 40.1414 17.5169 40.1414 15.8586V13.1051C40.1414 11.087 39.3122 9.71026 37.9199 9.31914ZM37.9199 15.9524C37.9199 17.5951 37.1533 17.7828 36.5744 17.7828C36.2459 17.7828 35.2134 17.7828 35.2134 15.9524V13.2303C35.2134 12.6984 35.3072 12.2916 35.4793 11.9944L35.495 11.9787C35.7296 11.6032 36.0895 11.4155 36.5588 11.4155C37.1846 11.4155 37.6226 11.7597 37.826 12.3698C37.8886 12.5732 37.9199 12.8079 37.9199 13.1051V15.9524Z" fill="#1F2328"/>
<path d="M46.4931 4.15645V10.7584C46.4931 11.2904 46.3992 11.6971 46.2271 11.9944L46.2115 12.01C45.9768 12.3855 45.617 12.5732 45.1476 12.5732C44.5219 12.5732 44.0838 12.229 43.8804 11.6189C43.8179 11.4155 43.7866 11.1808 43.7866 10.8836V4.15645H41.565V10.8836C41.565 12.9017 42.3942 14.2628 43.7866 14.6696C44.0525 14.7478 44.3498 14.7947 44.6627 14.7947C44.7252 14.7947 44.7722 14.7947 44.8347 14.7947C45.3354 14.7634 45.836 14.607 46.2584 14.3254C46.2897 14.3098 46.321 14.2785 46.3523 14.2628C46.4305 14.2002 46.5087 14.1377 46.6026 14.0907C46.8685 13.9186 47.1814 13.7935 47.4943 13.7778H47.5725C47.5413 13.7778 46.6964 13.9656 46.5556 14.5601C46.54 14.607 46.54 14.6696 46.54 14.7165V19.8323H48.7146V4.15645H46.4931Z" fill="#1F2328"/>
<path d="M52.1564 17.6264C52.1564 17.6264 53.2046 17.4856 53.2046 16.938V12.98H56.3961V10.7897H52.172C52.172 10.7897 53.2046 10.6489 53.2202 10.117V8.17709C53.2202 8.02065 53.2359 7.87985 53.2359 7.75469C53.2515 7.62953 53.2515 7.52002 53.2672 7.42615C53.2828 7.28535 53.3141 7.17584 53.3454 7.06633C53.4862 6.59699 53.7365 6.40926 54.2528 6.37797C54.2684 6.37797 54.331 6.37797 54.3936 6.37797H54.4092C54.4561 6.37797 54.4874 6.37797 54.4874 6.37797H57.366V4.15645H54.1745C51.8122 4.18773 51.2021 5.79912 51.0456 7.55131C51.03 7.77033 51.0143 8.005 50.9987 8.23967V19.8479H58.0544V17.6264H52.1564Z" fill="#1F2328"/>
<path d="M65.376 11.4781C66.127 10.9618 66.4086 10.1639 66.5024 9.36608C66.5337 9.08448 66.5494 8.78723 66.5494 8.52127V8.25532C66.5494 8.22403 66.5494 8.19274 66.5494 8.17709C66.5337 6.5657 65.9862 5.36108 65.0162 4.704C64.8128 4.5632 64.5938 4.45369 64.3591 4.35982C63.9993 4.21902 63.5926 4.15645 63.1545 4.1408C62.7165 4.15645 62.3097 4.21902 61.9499 4.35982C61.7152 4.45369 61.4962 4.5632 61.2928 4.704C60.3228 5.36108 59.7753 6.55006 59.7596 8.17709V19.8323H63.2953C65.5951 19.8323 66.8153 18.5025 66.8153 15.9837V14.7165C66.7684 13.1364 66.2991 12.0569 65.376 11.4781ZM61.9186 8.17709C61.9186 6.65957 62.5757 6.39361 63.1232 6.36233C63.6864 6.39361 64.3591 6.65957 64.3591 8.17709V8.86545C64.3591 9.0219 64.3591 9.17834 64.3435 9.3035C64.2496 10.2109 63.8272 10.5081 62.8103 10.5081H60.8861C60.8861 10.5081 61.9342 10.3673 61.9342 9.81977V9.35043L61.9186 8.17709ZM64.5938 15.9368C64.5938 17.1101 64.2183 17.6108 63.3266 17.6264H60.8704C60.8704 17.6264 61.9186 17.4856 61.9186 16.938V12.714H62.9668C64.187 12.714 64.6095 13.1833 64.6095 14.607V15.9368H64.5938Z" fill="#1F2328"/>
</svg>
