<svg xmlns="http://www.w3.org/2000/svg" width="130" height="24" viewBox="0 0 130 24" fill="none"><rect width="130" height="24" fill="none"/>
<path d="M125.242 22C126.492 22 127.506 20.9863 127.506 19.7359C127.506 18.4854 126.492 17.4717 125.242 17.4717C123.991 17.4717 122.977 18.4854 122.977 19.7359C122.977 20.9863 123.991 22 125.242 22Z" fill="#0D41D2"/>
<path d="M87.8056 7.84905L84.4131 18.3509H84.0207L80.8188 7.84905H77.3188L81.8358 21.6226H86.5433L91.2263 7.84905H87.8056Z" fill="#0D41D2"/>
<path d="M11.8113 2C6.33962 2 2 6.5283 2 12C2 17.4717 6.33962 22 11.8113 22C17.283 22 21.8113 17.6604 21.8113 12C21.8113 6.33962 17.4717 2 11.8113 2ZM11.9057 18.5094C8.50943 18.5094 5.49056 15.4906 5.49056 11.9057C5.49056 8.50943 8.50943 5.49056 11.9057 5.49056C15.4906 5.49056 18.3207 8.50943 18.3207 11.9057C18.3207 15.4906 15.4906 18.5094 11.9057 18.5094Z" fill="#0D41D2"/>
<path d="M126.657 15.3962L127.6 2H122.883L123.826 15.3962H126.657Z" fill="#0D41D2"/>
<path d="M118.355 16.9528C117.6 15.4434 116.657 14.6887 115.524 14.5C116.657 14.3113 117.411 13.7453 118.166 11.8585L119.624 7.84905H116.326L115.053 11.6698C114.675 12.8019 114.019 13.1792 113.075 13.1792H111.66L111.619 3.09811H108.313V21.6207H111.619L111.66 16.0075H112.887C114.019 16.0075 114.487 16.5736 115.053 17.7056L116.898 21.6207H120.577L118.355 16.9509V16.9528Z" fill="#0D41D2"/>
<path d="M69.5547 7.47168C65.5925 7.47168 62.3849 10.6792 62.3849 14.8302C62.3849 18.9811 65.5925 22 69.5547 22C73.517 22 76.7246 18.7924 76.7246 14.8302C76.7246 10.8679 73.517 7.47168 69.5547 7.47168ZM69.4604 18.8868C67.1963 18.8868 65.4981 17 65.4981 14.7358C65.4981 12.4717 67.1963 10.5849 69.4604 10.5849C71.7246 10.5849 73.6114 12.4717 73.6114 14.7358C73.6114 17 71.7246 18.8868 69.4604 18.8868Z" fill="#0D41D2"/>
<path d="M99.066 7.47168C95.1037 7.47168 91.8962 10.6792 91.8962 14.8302C91.8962 18.9811 95.1037 22 99.066 22C103.028 22 106.236 18.7924 106.236 14.8302C106.236 10.8679 103.028 7.47168 99.066 7.47168ZM98.9717 18.8868C96.7075 18.8868 95.0094 17 95.0094 14.7358C95.0094 12.4717 96.7075 10.5849 98.9717 10.5849C101.236 10.5849 103.123 12.4717 103.123 14.7358C103.123 17 101.236 18.8868 98.9717 18.8868Z" fill="#0D41D2"/>
<path d="M33.1453 13.7132L29.1566 12.9264C27.8585 12.6887 27.6132 12.2528 27.6132 11.5339C27.6132 10.6302 28.5 10.1717 30.251 10.1717C32.2472 10.1717 33.3227 10.9622 33.3717 12.4566L36.3793 10.8528C35.6849 8.70753 33.5113 7.47168 30.2774 7.47168C26.683 7.47168 24.451 9.06036 24.451 11.617C24.451 13.7415 25.5019 14.9453 27.7604 15.4075L31.8302 16.249C32.9132 16.4698 33.3755 16.9188 33.3755 17.749C33.3755 18.8 32.5208 19.2471 30.5208 19.2471C28.3925 19.2471 27.3528 18.4188 27.3415 16.717L24.1849 18.4C24.8227 20.7358 27.0057 22 30.4944 22C34.4623 22 36.6472 20.4604 36.6472 17.666C36.6472 15.4471 35.534 14.1905 33.1472 13.7132H33.1453Z" fill="#0D41D2"/>
<path d="M55.9207 9.96982L55.732 7.84529H52.7037V21.6226H55.9207V14.6094C55.9207 11.351 58.9547 9.92076 60.8773 11.2472V7.76227C58.1283 7.12642 56.3717 8.98114 55.9207 9.96982Z" fill="#0D41D2"/>
<path d="M49.5603 7.84529H44.498V3.10001H41.249V7.84717H38.3678V10.8113H41.249V17.5585C41.249 19.4906 42.0169 21.7943 45.6735 21.7943C47.3169 21.7943 49.5603 21.0189 49.5603 21.0189V17.9811C49.5603 17.9811 47.0395 18.8679 45.7905 18.8679C44.8886 18.8679 44.498 18.2396 44.498 17.0698V10.8113H49.5603V7.84529Z" fill="#0D41D2"/>
</svg>
