<svg xmlns="http://www.w3.org/2000/svg" width="24" height="24" viewBox="0 0 24 24" fill="none"><rect width="24" height="24" fill="none"/>
<path d="M17.5714 3H6.42857C4.53502 3 3 4.53502 3 6.42857V17.5714C3 19.465 4.53502 21 6.42857 21H17.5714C19.465 21 21 19.465 21 17.5714V6.42857C21 4.53502 19.465 3 17.5714 3Z" fill="#000000"/>
<path fill-rule="evenodd" clip-rule="evenodd" d="M7.82165 6.375C7.82165 6.11667 8.03106 5.90725 8.28939 5.90725H12.1192C12.3775 5.90725 12.5869 6.11667 12.5869 6.375C12.5869 6.63333 12.3775 6.84275 12.1192 6.84275H10.672V8.57607C10.672 8.8344 10.4626 9.04382 10.2043 9.04382C9.94596 9.04382 9.73654 8.8344 9.73654 8.57607V6.84275H8.28939C8.03106 6.84275 7.82165 6.63333 7.82165 6.375ZM15.4811 6.375C15.4811 6.11667 15.6905 5.90725 15.9489 5.90725H17.3985C17.791 5.90725 18.0922 6.22954 18.0922 6.60578V8.57607C18.0922 8.8344 17.8827 9.04382 17.6244 9.04382C17.3661 9.04382 17.1567 8.8344 17.1567 8.57607V6.84275H15.9489C15.6905 6.84275 15.4811 6.63333 15.4811 6.375ZM6.375 5.9073C6.63333 5.9073 6.84275 6.11672 6.84275 6.37504V16.7019C6.84275 16.9629 7.04724 17.1573 7.27845 17.1573H17.625C17.8833 17.1573 18.0927 17.3667 18.0927 17.625C18.0927 17.8833 17.8833 18.0927 17.625 18.0927H7.27845C6.51175 18.0927 5.90725 17.4605 5.90725 16.7019V6.37504C5.90725 6.11672 6.11667 5.9073 6.375 5.9073ZM14.0341 6.15189C14.2924 6.15189 14.5018 6.36131 14.5018 6.61964V6.64411C14.5018 6.90243 14.2924 7.11185 14.0341 7.11185C13.7758 7.11185 13.5663 6.90243 13.5663 6.64411V6.61964C13.5663 6.36131 13.7758 6.15189 14.0341 6.15189ZM15.9489 8.10822C16.2072 8.10822 16.4166 8.31764 16.4166 8.57597V10.3093H17.6244C17.8827 10.3093 18.0922 10.5187 18.0922 10.777C18.0922 11.0354 17.8827 11.2448 17.6244 11.2448H16.1747C15.7823 11.2448 15.4811 10.9226 15.4811 10.5463V8.57597C15.4811 8.31764 15.6905 8.10822 15.9489 8.10822ZM8.28939 8.1084C8.54772 8.1084 8.75714 8.31782 8.75714 8.57615V8.60062C8.75714 8.85895 8.54772 9.06836 8.28939 9.06836C8.03106 9.06836 7.82165 8.85895 7.82165 8.60062V8.57615C7.82165 8.31782 8.03106 8.1084 8.28939 8.1084ZM11.6519 8.57615C11.6519 8.31782 11.8613 8.1084 12.1197 8.1084H14.0346C14.2929 8.1084 14.5023 8.31782 14.5023 8.57615C14.5023 8.83448 14.2929 9.04389 14.0346 9.04389H12.1197C11.8613 9.04389 11.6519 8.83448 11.6519 8.57615ZM8.28939 10.0648C8.54772 10.0648 8.75714 10.2742 8.75714 10.5326V12.2445C8.75714 12.5029 8.54772 12.7123 8.28939 12.7123C8.03106 12.7123 7.82165 12.5029 7.82165 12.2445V10.5326C7.82165 10.2742 8.03106 10.0648 8.28939 10.0648ZM10.2038 10.0648C10.4622 10.0648 10.6716 10.2742 10.6716 10.5326V10.557C10.6716 10.8153 10.4622 11.0248 10.2038 11.0248C9.9455 11.0248 9.73608 10.8153 9.73608 10.557V10.5326C9.73608 10.2742 9.9455 10.0648 10.2038 10.0648ZM12.1205 10.0648C12.3788 10.0648 12.5883 10.2742 12.5883 10.5326V12.0137C12.5883 12.39 12.2871 12.7123 11.8946 12.7123H10.2056C9.94728 12.7123 9.73787 12.5029 9.73787 12.2445C9.73787 11.9862 9.94728 11.7768 10.2056 11.7768H11.6528V10.5326C11.6528 10.2742 11.8622 10.0648 12.1205 10.0648ZM14.0341 10.0649C14.2924 10.0649 14.5018 10.2743 14.5018 10.5327V10.5571C14.5018 10.8154 14.2924 11.0249 14.0341 11.0249C13.7758 11.0249 13.5663 10.8154 13.5663 10.5571V10.5327C13.5663 10.2743 13.7758 10.0649 14.0341 10.0649ZM13.5668 12.2446C13.5668 11.9863 13.7762 11.7769 14.0346 11.7769H15.9495C16.2078 11.7769 16.4172 11.9863 16.4172 12.2446C16.4172 12.503 16.2078 12.7124 15.9495 12.7124H14.0346C13.7762 12.7124 13.5668 12.503 13.5668 12.2446ZM7.82165 13.9565C7.82165 13.6982 8.03106 13.4888 8.28939 13.4888H10.2043C10.4626 13.4888 10.672 13.6982 10.672 13.9565C10.672 14.2149 10.4626 14.4243 10.2043 14.4243H8.28939C8.03106 14.4243 7.82165 14.2149 7.82165 13.9565ZM12.1197 13.4888C12.378 13.4888 12.5874 13.6982 12.5874 13.9565V15.9131C12.5874 16.1714 12.378 16.3808 12.1197 16.3808C11.8613 16.3808 11.6519 16.1714 11.6519 15.9131V13.9565C11.6519 13.6982 11.8613 13.4888 12.1197 13.4888ZM15.4811 13.9565C15.4811 13.6982 15.6905 13.4888 15.9489 13.4888H17.6244C17.8827 13.4888 18.0922 13.6982 18.0922 13.9565C18.0922 14.2149 17.8827 14.4243 17.6244 14.4243H15.9489C15.6905 14.4243 15.4811 14.2149 15.4811 13.9565ZM14.0341 13.7334C14.2924 13.7334 14.5018 13.9428 14.5018 14.2011V14.2256C14.5018 14.4839 14.2924 14.6933 14.0341 14.6933C13.7758 14.6933 13.5663 14.4839 13.5663 14.2256V14.2011C13.5663 13.9428 13.7758 13.7334 14.0341 13.7334ZM8.28939 15.2008C8.54772 15.2008 8.75714 15.4102 8.75714 15.6685V15.693C8.75714 15.9513 8.54772 16.1607 8.28939 16.1607C8.03106 16.1607 7.82165 15.9513 7.82165 15.693V15.6685C7.82165 15.4102 8.03106 15.2008 8.28939 15.2008ZM10.2038 15.2008C10.4622 15.2008 10.6716 15.4102 10.6716 15.6685V15.693C10.6716 15.9513 10.4622 16.1607 10.2038 16.1607C9.9455 16.1607 9.73608 15.9513 9.73608 15.693V15.6685C9.73608 15.4102 9.9455 15.2008 10.2038 15.2008ZM15.949 15.2008C16.2073 15.2008 16.4167 15.4102 16.4167 15.6685V15.693C16.4167 15.9513 16.2073 16.1607 15.949 16.1607C15.6907 16.1607 15.4813 15.9513 15.4813 15.693V15.6685C15.4813 15.4102 15.6907 15.2008 15.949 15.2008Z" fill="#000000"/>
</svg>
