<svg xmlns="http://www.w3.org/2000/svg" width="24" height="24" viewBox="0 0 24 24" fill="none"><rect width="24" height="24" fill="none"/>
<path d="M18.6013 14.9808L6.12966 21.9036C5.62035 22.187 5 21.8111 5 21.2212V7.38106C5 6.79111 5.62028 6.41809 6.12966 6.69856C6.37434 6.83445 6.52802 7.09761 6.52802 7.38106V15.3595C6.52802 15.9494 7.15115 16.3254 7.66053 16.0391L14.9108 11.979C15.1384 11.8518 15.4173 11.8518 15.6448 11.9761L18.5984 13.6129C19.1334 13.9137 19.1334 14.6887 18.6013 14.9808Z" fill="white"/>
<path d="M17.6423 7.23668C18.1431 7.53744 18.1431 8.27197 17.6423 8.57266L9.12292 13.6998C8.61361 14.0064 7.97051 13.6333 7.97051 13.0319V2.77757C7.97051 2.1761 8.61361 1.80301 9.12292 2.10957L17.6423 7.23668Z" fill="white"/>
</svg>
