<svg xmlns="http://www.w3.org/2000/svg" width="24" height="24" viewBox="0 0 24 24" fill="none"><rect width="24" height="24" fill="none"/>
<path d="M12.4443 2.00977C12.4567 2.01031 12.4691 2.01113 12.4814 2.01172C12.4873 2.01199 12.4932 2.01242 12.499 2.0127H12.498C14.6842 2.12045 16.6858 2.93496 18.2822 4.23438L16.3369 5.67676C15.1998 4.89276 13.844 4.40757 12.3818 4.33594C12.284 4.33109 12.1857 4.32867 12.0869 4.32715C12.0583 4.32684 12.0297 4.32616 12.001 4.32617V4.3252H12C10.0179 4.3252 8.20829 5.08419 6.84277 6.3291L6.84375 6.33008C5.28893 7.74785 4.31146 9.79525 4.31055 12.0693L4.32031 12.4678C4.42024 14.4449 5.26084 16.2288 6.56543 17.5439H6.56445C7.9568 18.9453 9.87878 19.8135 11.998 19.8135C14.0494 19.8135 15.9141 18.9987 17.2949 17.6768C18.7688 16.2651 19.6914 14.2742 19.6914 12.0693C19.6914 12.0007 19.6891 11.932 19.6875 11.8633L21.8408 10.2656C21.946 10.8516 22.001 11.4543 22.001 12.0703C22.0009 15.0317 20.7305 17.6954 18.71 19.5371L18.709 19.5361C16.9342 21.1546 14.5801 22.1406 11.998 22.1406C11.8309 22.1406 11.6645 22.1358 11.499 22.1279V22.126C8.75865 21.9904 6.30773 20.7459 4.58203 18.8262L4.58301 18.8242C2.97749 17.0375 2 14.6679 2 12.0693C2.00011 9.28938 3.11842 6.77135 4.92773 4.94922C6.73788 3.12648 9.23884 2 12 2H12.001L12.4443 2.00977ZM19.915 5.91211C20.387 6.52654 20.7915 7.19841 21.1143 7.91406L12.002 14.6768L8.19434 12.2734V9.38281L12.002 11.7852L19.915 5.91211Z" fill="white"/>
</svg>
