<svg xmlns="http://www.w3.org/2000/svg" width="66" height="24" viewBox="0 0 66 24" fill="none"><rect width="66" height="24" fill="none"/>
<path d="M27.737 4.29889V19.6991H24.5213V6.38486L27.737 4.29889ZM55.304 3.85528C50.8048 3.85528 47.1613 7.49882 47.1613 11.998C47.1613 16.4973 50.8048 20.1408 55.304 20.1408C59.8032 20.1408 63.4467 16.4973 63.4467 11.998C63.4467 7.50079 59.8032 3.85528 55.304 3.85528ZM55.304 17.1715C52.4471 17.1715 50.1246 14.8569 50.1246 11.9921C50.1246 9.13527 52.4393 6.8127 55.304 6.8127C58.1609 6.8127 60.4835 9.12733 60.4835 11.9921C60.4815 14.849 58.1668 17.1715 55.304 17.1715ZM37.3979 3.85528C32.8987 3.85528 29.2551 7.49882 29.2551 11.998C29.2551 16.4973 32.8987 20.1408 37.3979 20.1408C41.8971 20.1408 45.5406 16.4973 45.5406 11.998C45.5406 7.50079 41.8971 3.85528 37.3979 3.85528ZM37.3979 17.1715C34.541 17.1715 32.2185 14.8569 32.2185 11.9921C32.2185 9.13527 34.5331 6.8127 37.3979 6.8127C40.2547 6.8127 42.5773 9.12733 42.5773 11.9921C42.5773 14.849 40.2626 17.1715 37.3979 17.1715ZM15.5962 8.37027C15.1191 7.89314 14.5611 7.52051 13.9381 7.26025C13.3289 7.00395 12.6703 6.87382 11.9842 6.87382C11.2981 6.87382 10.6415 7.00395 10.0323 7.26025C9.4172 7.51853 8.85727 7.89314 8.37224 8.37224C7.89511 8.8494 7.52247 9.40733 7.26222 10.0303C7.12618 10.3675 7.02366 10.7086 6.96057 11.0517H17.0079C16.9428 10.6987 16.8423 10.3577 16.7062 10.0323C16.4598 9.42707 16.0871 8.86907 15.5962 8.37027ZM12 2C6.47753 2 2 6.47752 2 12C2 17.5225 6.47753 22 12 22C17.5225 22 22 17.5225 22 12C22 6.47752 17.5225 2 12 2ZM18.9736 12.9326H6.97043C7.03549 13.2835 7.13604 13.6227 7.27011 13.946C7.52839 14.5611 7.90299 15.1211 8.38209 15.6061C8.8592 16.0832 9.4172 16.4559 10.0402 16.7161C10.6495 16.9724 11.306 17.1025 11.9941 17.1025C12.8773 17.1025 13.7922 16.8659 14.571 16.4341C15.3301 16.0162 15.9649 15.4129 16.4559 14.64L16.6353 14.3876L18.2185 15.3793L18.0292 15.6455C17.3845 16.6747 16.5249 17.4929 15.4779 18.0686C14.4231 18.6542 13.1869 18.9755 11.998 18.9755C11.0733 18.9755 10.1763 18.7981 9.3324 18.4491C8.47476 18.0943 7.71175 17.5856 7.06309 16.9369C6.41443 16.2883 5.90575 15.5253 5.55087 14.6676C5.20189 13.8237 5.02445 12.9267 5.02445 12.002C5.02445 11.0773 5.20189 10.1802 5.55087 9.33633C5.90575 8.47871 6.41443 7.71569 7.06309 7.06703C7.71175 6.41837 8.47476 5.9097 9.3324 5.55481C10.1763 5.20583 11.0733 5.02839 11.998 5.02839C12.9227 5.02839 13.8198 5.20583 14.6637 5.55481C15.5213 5.9097 16.2843 6.41837 16.931 7.06703C17.5797 7.71569 18.0883 8.47871 18.4432 9.33633C18.7922 10.1802 18.9697 11.0773 18.9697 12.002V12.9326H18.9736Z" fill="#000000"/>
</svg>
