<svg xmlns="http://www.w3.org/2000/svg" width="24" height="24" viewBox="0 0 24 24" fill="none"><rect width="24" height="24" fill="none"/>
<path fill-rule="evenodd" clip-rule="evenodd" d="M5.88131 13.6201C6.03191 13.6739 6.19276 13.7008 6.36461 13.7008C6.5372 13.7008 6.69675 13.6739 6.84362 13.6201C6.9894 13.5661 7.12214 13.4819 7.23317 13.3731C7.34314 13.2654 7.42906 13.1321 7.49169 12.9742C7.55431 12.8126 7.58563 12.6255 7.58563 12.4128V12.3182C7.58563 12.118 7.55431 11.9426 7.49169 11.7903C7.42906 11.6352 7.34314 11.505 7.23317 11.4008C7.12266 11.2924 6.98967 11.2097 6.84362 11.1585C6.68998 11.1034 6.5278 11.076 6.36461 11.0776C6.19276 11.0776 6.03191 11.1046 5.88131 11.1585C5.73406 11.2123 5.60602 11.293 5.49605 11.4008C5.38683 11.505 5.3009 11.6352 5.23828 11.7903C5.17565 11.9426 5.14434 12.118 5.14434 12.3182V12.4128C5.14434 12.6253 5.17565 12.8117 5.23828 12.9742C5.3009 13.1321 5.38683 13.2654 5.49605 13.3731C5.6061 13.4811 5.73726 13.5651 5.88131 13.6201ZM6.62313 13.197C6.54077 13.2292 6.45305 13.2455 6.36461 13.2451C6.2744 13.2451 6.18624 13.229 6.1018 13.197C6.01863 13.1643 5.94343 13.1141 5.88131 13.0499C5.81868 12.9837 5.76687 12.8978 5.72624 12.7936C5.68896 12.6889 5.67013 12.5621 5.67013 12.4128V12.3182C5.67013 12.1821 5.68896 12.0647 5.72605 11.9666C5.76705 11.8682 5.81868 11.7875 5.88131 11.7241C5.94673 11.6608 6.02035 11.6134 6.1018 11.5814C6.18587 11.55 6.27488 11.534 6.36461 11.534C6.45575 11.534 6.54168 11.5501 6.62313 11.5814C6.70756 11.6134 6.78118 11.6608 6.84381 11.7241C6.90923 11.7875 6.96105 11.8682 6.99888 11.9664C7.03896 12.0649 7.06002 12.1821 7.06002 12.3182V12.4128C7.06002 12.562 7.03896 12.6887 6.99888 12.7936C6.96105 12.8978 6.90942 12.9837 6.84381 13.0499C6.78118 13.1161 6.70775 13.1655 6.62313 13.197ZM2.58227 11.1299H2V13.6491H2.51629V11.9141L3.17367 13.1256H3.54943L4.20607 11.9141V13.6484H4.7231V11.1299H4.16898L3.3759 12.6031L2.58227 11.1299ZM11.7167 13.202H11.4349V14.2432H11.9139V13.6484H13.6324V14.2432H14.1106V13.202H13.7822V11.1299H11.9279V11.8427C11.9279 11.9855 11.9236 12.1282 11.9141 12.2708C11.9046 12.4099 11.8898 12.5416 11.8718 12.6648C11.8555 12.774 11.8319 12.882 11.8011 12.988C11.7758 13.0835 11.748 13.1539 11.7167 13.202ZM13.2661 11.5763V13.202H12.2425C12.3079 13.0499 12.3553 12.8628 12.3828 12.6415C12.4114 12.4166 12.4251 12.1812 12.4251 11.9381V11.5763H13.2661ZM15.5208 13.7008C15.3611 13.7021 15.2024 13.6765 15.0511 13.6251C14.9067 13.5727 14.7743 13.4918 14.6618 13.3871C14.5526 13.2794 14.4644 13.1446 14.399 12.983C14.3326 12.8212 14.3 12.6313 14.3 12.4128V12.3174C14.3 12.1087 14.3313 11.9266 14.3938 11.7707C14.4564 11.6157 14.541 11.4874 14.6472 11.3862C14.7546 11.2829 14.8826 11.2035 15.0228 11.1532C15.1674 11.1016 15.32 11.0758 15.4735 11.0768C15.8522 11.0768 16.1419 11.1803 16.3421 11.3862C16.5452 11.5924 16.6472 11.8865 16.6472 12.2701V12.536H14.8256C14.8286 12.6665 14.8489 12.777 14.8868 12.8687C14.9276 12.9576 14.9792 13.0305 15.0418 13.0879C15.1074 13.142 15.1809 13.1811 15.2625 13.2067C15.346 13.2319 15.4328 13.2446 15.5201 13.2445C15.6985 13.2445 15.8289 13.2162 15.9104 13.1593C15.9948 13.1017 16.0524 13.0275 16.0837 12.9357H16.6C16.5504 13.1854 16.4267 13.3763 16.2293 13.506C16.0356 13.6363 15.7995 13.7008 15.5208 13.7008ZM15.4975 11.534C15.412 11.5338 15.3269 11.5448 15.2442 11.5668C15.1656 11.5894 15.0951 11.6257 15.0331 11.6761C14.9734 11.7241 14.9246 11.7875 14.8875 11.8667C14.8497 11.9426 14.8292 12.0358 14.8264 12.1471H16.1311C16.1281 12.0298 16.1093 11.9316 16.075 11.8522C16.0437 11.7728 16 11.7096 15.9439 11.6621C15.8853 11.6133 15.8159 11.5792 15.7415 11.5625C15.6617 11.543 15.5797 11.5334 15.4975 11.534ZM16.8934 13.6965C16.9247 13.6993 16.953 13.7008 16.9778 13.7008C17.1059 13.7008 17.2188 13.676 17.3163 13.6251C17.4132 13.571 17.4947 13.4795 17.5603 13.3492C17.6257 13.2195 17.6745 13.0449 17.7058 12.8264C17.7401 12.6043 17.7575 12.3241 17.7575 11.9847V11.5763H18.621V13.6484H19.1373V11.1299H17.2595V11.89C17.2595 12.1472 17.2514 12.359 17.2362 12.5271C17.2203 12.6954 17.197 12.83 17.1657 12.9312C17.1372 13.0296 17.1001 13.0995 17.0527 13.1401C17.0048 13.1782 16.9451 13.1984 16.8839 13.197C16.8602 13.1975 16.8365 13.1961 16.8131 13.1927V13.687C16.8388 13.6928 16.8651 13.6965 16.8934 13.6965ZM20.7797 13.7008C20.6151 13.7021 20.4515 13.6748 20.2962 13.6201C20.1522 13.5653 20.021 13.4812 19.9112 13.3731C19.8019 13.2654 19.716 13.1321 19.6534 12.9742C19.5908 12.8126 19.5595 12.6255 19.5595 12.4128V12.3182C19.5595 12.118 19.5908 11.9426 19.6534 11.7903C19.716 11.6352 19.8019 11.505 19.9112 11.4008C20.0205 11.2931 20.1519 11.2105 20.2962 11.1585C20.4515 11.1036 20.6151 11.0763 20.7797 11.0776C20.9516 11.0776 21.1117 11.1046 21.2587 11.1585C21.4088 11.2123 21.5383 11.293 21.6483 11.4008C21.7575 11.505 21.8434 11.6352 21.9061 11.7903C21.9687 11.9426 22 12.118 22 12.3182V12.4128C22 12.6253 21.9687 12.8117 21.9061 12.9742C21.8434 13.1321 21.7575 13.2654 21.6483 13.3731C21.5371 13.4818 21.4044 13.5659 21.2587 13.6201C21.1117 13.6739 20.9523 13.7008 20.7797 13.7008ZM20.7797 13.2451C20.8707 13.2451 20.9568 13.229 21.0382 13.197C21.1222 13.1657 21.1977 13.1154 21.2587 13.0499C21.3243 12.9837 21.3762 12.8978 21.4133 12.7936C21.4539 12.6889 21.4744 12.5621 21.4744 12.4128V12.3182C21.4744 12.1821 21.4539 12.0647 21.4133 11.9666C21.376 11.8682 21.3243 11.7875 21.2587 11.7241C21.1965 11.6611 21.1212 11.6124 21.0382 11.5814C20.9557 11.5497 20.8681 11.5337 20.7797 11.534C20.6888 11.534 20.6014 11.5501 20.5169 11.5814C20.4346 11.6138 20.3596 11.6623 20.2962 11.7241C20.2338 11.7875 20.182 11.8682 20.1412 11.9664C20.1041 12.0649 20.0853 12.1821 20.0853 12.3182V12.4128C20.0853 12.562 20.1041 12.6887 20.1412 12.7936C20.1822 12.8978 20.2336 12.9837 20.2962 13.0499C20.3619 13.1161 20.4355 13.1657 20.5169 13.1972C20.6014 13.229 20.6888 13.2451 20.7797 13.2451Z" fill="#FF5029"/>
<path d="M9.97926 10.4108H8.01935V10.8037H9.97907L9.97926 10.4108Z" fill="#FF5029"/>
<path d="M9.97926 9.75659H8.01935V10.1495H9.97907L9.97926 9.75659Z" fill="#FF5029"/>
<path fill-rule="evenodd" clip-rule="evenodd" d="M10.1763 12.269C10.1763 11.8851 10.074 11.5894 9.87027 11.3826C9.66951 11.1761 9.37903 11.0731 8.9992 11.0731C8.83938 11.0731 8.68891 11.098 8.54722 11.149C8.40669 11.1997 8.27837 11.2793 8.17056 11.3826C8.06402 11.4841 7.97915 11.6135 7.91635 11.769C7.85354 11.9245 7.82214 12.107 7.82214 12.3167V12.4122C7.82214 12.6313 7.85578 12.8218 7.92158 12.9848C7.98719 13.1461 8.07486 13.2811 8.18514 13.39C8.29824 13.4946 8.43105 13.5755 8.57582 13.628C8.72742 13.6798 8.88666 13.7057 9.04687 13.7046C9.32632 13.7046 9.56278 13.639 9.75793 13.5089C9.95513 13.3783 10.0793 13.1878 10.1295 12.9366H9.61175C9.58054 13.0285 9.52203 13.1037 9.43735 13.1607C9.35566 13.2177 9.22557 13.2467 9.04668 13.2467C8.9589 13.2466 8.87159 13.2337 8.7876 13.2082C8.70679 13.1832 8.63161 13.1428 8.56628 13.0891C8.50011 13.0275 8.44741 12.9529 8.41151 12.87C8.37356 12.778 8.353 12.667 8.3502 12.5363H10.177V12.269H10.1763ZM8.34945 12.1457C8.35319 12.0341 8.37356 11.9406 8.41076 11.8645C8.44454 11.7907 8.49442 11.7254 8.55675 11.6733C8.61936 11.6231 8.69136 11.5859 8.76853 11.5638C8.85022 11.5419 8.9349 11.5301 9.02275 11.5301C9.11098 11.5301 9.19211 11.5397 9.268 11.5595C9.34613 11.5784 9.41324 11.6118 9.47025 11.6595C9.52633 11.707 9.571 11.7703 9.60166 11.8501C9.63661 11.9296 9.65493 12.0281 9.65867 12.1457H8.34945Z" fill="#FF5029"/>
</svg>
