<svg xmlns="http://www.w3.org/2000/svg" width="81" height="24" viewBox="0 0 81 24" fill="none"><rect width="81" height="24" fill="none"/>
<path fill-rule="evenodd" clip-rule="evenodd" d="M7.90152 6.88558C8.14791 6.78354 8.43149 6.83996 8.62007 7.02851L12.1099 10.5183L15.5997 7.02851C15.7883 6.83996 16.0719 6.78354 16.3182 6.88558C16.5646 6.98765 16.7253 7.22807 16.7253 7.49475V14.7475C16.7253 15.1116 16.4301 15.4068 16.0659 15.4068C15.7018 15.4068 15.4066 15.1116 15.4066 14.7475V9.08653L12.5761 11.917C12.3186 12.1745 11.9012 12.1745 11.6437 11.917L8.81319 9.08653V14.7475C8.81319 15.1116 8.518 15.4068 8.15385 15.4068C7.78969 15.4068 7.49451 15.1116 7.49451 14.7475V7.49475C7.49451 7.22807 7.65514 6.98765 7.90152 6.88558ZM12.7692 15.6799L14.3344 14.1148C14.5918 13.8573 14.5918 13.4398 14.3344 13.1824C14.0769 12.9249 13.6594 12.9249 13.4019 13.1824L12.1099 14.4744L10.8179 13.1824C10.5604 12.9249 10.1429 12.9249 9.88543 13.1824C9.62793 13.4398 9.62793 13.8573 9.88543 14.1148L11.4505 15.6799V17.3849C11.4505 17.749 11.7457 18.0442 12.1099 18.0442C12.474 18.0442 12.7692 17.749 12.7692 17.3849V15.6799Z" fill="white"/>
<path fill-rule="evenodd" clip-rule="evenodd" d="M4.8738 20.3123L4.88804 20.3138C7.21567 20.5588 9.60705 20.6816 12 20.6816C14.3929 20.6816 16.7843 20.5588 19.112 20.3138L19.1262 20.3123L19.1405 20.3111C20.0019 20.2393 20.6813 19.4578 20.6813 18.7502V5.25024C20.6813 4.52662 19.9845 3.75734 19.1983 3.68897L19.1881 3.68808L19.178 3.68704C14.3918 3.19616 9.60758 3.19634 4.88626 3.68687L4.8729 3.68826L4.85952 3.68937C3.99806 3.76116 3.31868 4.54273 3.31868 5.25024V18.7502C3.31868 19.4578 3.99806 20.2393 4.85952 20.3111L4.8738 20.3123ZM19.25 21.6252C20.75 21.5002 22 20.1877 22 18.7502V5.25024C22 3.81275 20.75 2.50024 19.3125 2.37524C14.4375 1.87524 9.56251 1.87524 4.75 2.37524C3.25 2.50024 2 3.81275 2 5.25024V18.7502C2 20.1877 3.25 21.5002 4.75 21.6252C7.12501 21.8753 9.56251 22.0002 12 22.0002C14.4375 22.0002 16.875 21.8753 19.25 21.6252Z" fill="white"/>
<path fill-rule="evenodd" clip-rule="evenodd" d="M39.1695 8.78807C38.9121 8.52884 38.4945 8.52884 38.2371 8.78807C37.9796 9.04732 37.9796 9.46761 38.2371 9.72686L40.6813 12.1877V14.5277C40.6813 14.8919 40.9765 15.1871 41.3407 15.1871C41.7048 15.1871 42 14.8919 42 14.5277V12.1384L44.4442 9.72686C44.7018 9.46761 44.7018 9.04732 44.4442 8.78807C44.1868 8.52884 43.7692 8.52884 43.5119 8.78807L41.3141 10.9471L39.1695 8.78807ZM57.1648 11.8904C57.1648 10.7979 58.0503 9.91233 59.1429 9.91233C60.2354 9.91233 61.1209 10.7979 61.1209 11.8904C61.1209 12.9828 60.2354 13.8684 59.1429 13.8684C58.0503 13.8684 57.1648 12.9828 57.1648 11.8904ZM59.1429 8.59365C57.3222 8.59365 55.8462 10.0696 55.8462 11.8904C55.8462 13.7111 57.3222 15.1871 59.1429 15.1871C60.9635 15.1871 62.4396 13.7111 62.4396 11.8904C62.4396 10.0696 60.9635 8.59365 59.1429 8.59365ZM66.3956 11.8904C66.3956 10.7979 67.2811 9.91233 68.3736 9.91233C69.4662 9.91233 70.3516 10.7979 70.3516 11.8904C70.3516 12.9828 69.4662 13.8684 68.3736 13.8684C67.2811 13.8684 66.3956 12.9828 66.3956 11.8904ZM68.3736 8.59365C66.553 8.59365 65.0769 10.0696 65.0769 11.8904C65.0769 13.7111 66.553 15.1871 68.3736 15.1871C70.1943 15.1871 71.6703 13.7111 71.6703 11.8904C71.6703 10.0696 70.1943 8.59365 68.3736 8.59365ZM28.9993 8.64387C29.2451 8.5418 29.5279 8.59822 29.716 8.78679L31.8813 10.9579L34.0468 8.78679C34.2347 8.59822 34.5176 8.5418 34.7633 8.64387C35.009 8.74591 35.1692 8.98633 35.1692 9.25301V14.5277C35.1692 14.8919 34.8749 15.1871 34.5116 15.1871C34.1486 15.1871 33.8541 14.8919 33.8541 14.5277V10.8448L32.3464 12.3566C32.0895 12.6141 31.6732 12.6141 31.4163 12.3566L29.9086 10.8448V14.5277C29.9086 14.8919 29.6141 15.1871 29.251 15.1871C28.8879 15.1871 28.5934 14.8919 28.5934 14.5277V9.25301C28.5934 8.98633 28.7536 8.74591 28.9993 8.64387ZM47.4945 9.25299C47.4945 8.88886 47.7897 8.59365 48.1538 8.59365H50.022C51.0455 8.59365 51.8901 9.43831 51.8901 10.4618C51.8901 10.84 51.7747 11.1937 51.5778 11.4895C52.1547 11.8417 52.5495 12.5093 52.5495 13.209C52.5495 14.2325 51.7048 15.1871 50.6813 15.1871H48.1538C47.7897 15.1871 47.4945 14.8919 47.4945 14.5277V9.25299ZM48.776 9.91233V11.0112H50.022C50.3171 11.0112 50.5714 10.757 50.5714 10.4618C50.5714 10.1666 50.3171 9.91233 50.022 9.91233H48.776ZM48.8132 12.5497V13.8684H50.6813C50.9765 13.8684 51.2308 13.6486 51.2308 13.209C51.2308 12.7695 50.9765 12.5497 50.6813 12.5497H48.8132ZM75.4066 8.59365C75.7708 8.59365 76.0659 8.88886 76.0659 9.25299V11.1769L78.453 8.78851C78.7112 8.52871 79.1303 8.52871 79.3886 8.78851C79.647 9.04833 79.647 9.46958 79.3886 9.72939L77.2237 11.8933L79.3886 14.0513C79.647 14.3111 79.647 14.7324 79.3886 14.9922C79.1303 15.252 78.7112 15.252 78.453 14.9922L76.0659 12.6091V14.5277C76.0659 14.8919 75.7708 15.1871 75.4066 15.1871C75.0424 15.1871 74.7473 14.8919 74.7473 14.5277V9.25299C74.7473 8.88886 75.0424 8.59365 75.4066 8.59365Z" fill="white"/>
</svg>
