<svg xmlns="http://www.w3.org/2000/svg" width="24" height="24" viewBox="0 0 24 24" fill="none"><rect width="24" height="24" fill="none"/>
<path d="M17.5556 2H6.44444C3.98985 2 2 3.98985 2 6.44444V17.5556C2 20.0102 3.98985 22 6.44444 22H17.5556C20.0102 22 22 20.0102 22 17.5556V6.44444C22 3.98985 20.0102 2 17.5556 2Z" fill="#CC003D"/>
<path fill-rule="evenodd" clip-rule="evenodd" d="M16.7616 13.725C16.8199 13.482 16.8964 12.7714 16.8964 12.7714H16.214C16.2098 12.8439 16.1949 13.0867 16.1736 13.3342C16.142 13.701 16.036 14.0386 15.6672 14.0386H15.3828C15.3822 14.0079 15.3828 12.7714 15.3828 12.7714H14.6889V16.6055H15.3828V14.6588C15.3828 14.6588 15.7496 14.6593 15.8015 14.6588L16.483 16.6044H17.2279L16.3936 14.3577C16.5668 14.227 16.7016 13.9756 16.7616 13.725ZM8.89469 9.4293C8.90058 8.39212 9.15281 8.05093 9.41877 8.04508C9.68443 8.05093 9.93666 8.39212 9.94255 9.4293C9.93666 10.4425 9.68443 10.7893 9.41877 10.7946C9.15281 10.7893 8.90058 10.4425 8.89469 9.4293ZM9.40303 11.4227C9.40614 11.4227 9.40951 11.4233 9.41258 11.4233C9.41455 11.4233 9.41651 11.4227 9.41873 11.4227C9.42069 11.4227 9.42266 11.4233 9.42462 11.4233C9.42769 11.4233 9.43106 11.4227 9.43414 11.4227C9.89347 11.4141 10.3332 11.1365 10.5238 10.3513C10.5969 10.0842 10.6342 9.75312 10.6345 9.41137C10.6345 9.41082 10.6331 9.28845 10.6331 9.2876C10.621 8.7396 10.5285 8.34686 10.385 8.0673C10.1589 7.59063 9.79877 7.41226 9.42688 7.40778C9.42632 7.40778 9.42547 7.40723 9.42462 7.40723C9.42266 7.40723 9.42069 7.40752 9.41873 7.40752C9.41651 7.40752 9.41455 7.40723 9.41258 7.40723C9.41173 7.40723 9.41088 7.40778 9.41032 7.40778C9.03844 7.41226 8.67832 7.59063 8.45218 8.0673C8.30866 8.34686 8.21618 8.7396 8.20414 9.2876C8.20414 9.28845 8.20247 9.41082 8.20247 9.41137C8.20277 9.75312 8.24029 10.0842 8.31344 10.3513C8.50399 11.1365 8.94399 11.4141 9.40303 11.4227ZM6.23481 16.0125C6.16755 16.0125 5.99799 15.9969 5.99799 15.9969V14.6472C5.99799 14.6472 6.05266 14.6344 6.11207 14.6344C6.46377 14.6344 6.8794 14.6132 6.8794 15.3229C6.8794 15.9729 6.42258 16.0125 6.23481 16.0125ZM6.31892 14.0258C6.19951 14.0258 6.09332 14.0286 5.99803 14.0336V13.4092H7.24206V12.7714H5.30469V16.6044H6.35703C7.40599 16.6044 7.56855 15.6559 7.56855 15.3049C7.56855 14.8899 7.40714 14.0258 6.31892 14.0258ZM13.0822 13.9965H12.1305V12.7714H11.4385V16.6055H12.1305V14.6337H13.0822V16.6055H13.7744V12.7714H13.0822V13.9965ZM15.378 11.3392V8.144H15.9539V7.50652H14.1001V8.144H14.6762V11.3392H15.378ZM12.638 9.48863V11.3392H13.3319V7.50652H12.638V8.84141H12.2608C12.1047 8.84141 11.9889 8.806 11.9152 8.73437C11.8631 8.68449 11.8376 8.617 11.8376 8.52949V7.50652H11.1428V8.60086C11.1428 8.85312 11.241 9.06634 11.4346 9.23582C11.6257 9.40389 11.8595 9.48863 12.131 9.48863H12.638ZM5.99803 8.144H6.85699V11.3392H7.55144V7.50652H5.30469V11.3392H5.99803V8.144ZM9.01436 14.1063C9.01603 14.0285 9.03032 13.4833 9.03147 13.4094L9.15421 13.4013C9.65951 13.4013 9.75199 13.5 9.79877 14.1063H9.01436ZM9.31873 12.7714H8.37736L8.24958 16.6052H8.93532C8.93532 16.6052 8.99866 14.8274 9.00232 14.743C9.07769 14.743 9.79766 14.7435 9.86914 14.7435C9.87699 14.821 10.0064 16.6052 10.0064 16.6052H10.7147C10.7147 16.6052 10.4711 13.972 10.4515 13.8033C10.3725 13.1249 10.0588 12.7714 9.31873 12.7714ZM17.337 8.8413C17.3386 8.76352 17.3529 8.21749 17.3541 8.14419H17.4847C17.9897 8.14419 18.0743 8.23449 18.1214 8.8413H17.337ZM18.7741 8.53841C18.6948 7.85997 18.3814 7.50652 17.6413 7.50652H16.7L16.5719 11.34H17.2579C17.2579 11.34 17.3212 9.56223 17.3249 9.4783C17.4 9.4783 18.1202 9.4786 18.1914 9.4786C18.1995 9.55582 18.329 11.34 18.329 11.34H19.0372C19.0372 11.34 18.7934 8.70704 18.7741 8.53841Z" fill="white"/>
</svg>
