<svg xmlns="http://www.w3.org/2000/svg" width="24" height="24" viewBox="0 0 24 24" fill="none"><rect width="24" height="24" fill="none"/>
<path fill-rule="evenodd" clip-rule="evenodd" d="M2.90761 3.87537C2.24473 3.87537 1.80599 4.56358 2.08579 5.16453L3.24434 7.65278C3.31945 7.8141 3.39723 7.9807 3.39723 8.15863V18.6743C3.39723 19.4754 4.04662 20.1247 4.84771 20.1247H19.152C19.9531 20.1247 20.6024 19.4754 20.6024 18.6743V8.15863C20.6024 7.9807 20.6804 7.8141 20.7554 7.65278L21.914 5.16453C22.1939 4.56358 21.7551 3.87537 21.0922 3.87537H2.90761Z" fill="white"/>
<path d="M16.4858 7.89668C16.5582 7.67397 16.8733 7.67397 16.9457 7.89668L17.2051 8.69525C17.2375 8.79486 17.3303 8.8623 17.435 8.8623H18.2747C18.5089 8.8623 18.6062 9.16196 18.4168 9.29961L17.7375 9.79315C17.6528 9.85471 17.6173 9.96383 17.6497 10.0634L17.9091 10.862C17.9815 11.0847 17.7266 11.2699 17.5371 11.1323L16.8578 10.6387C16.7731 10.5772 16.6584 10.5772 16.5737 10.6387L15.8943 11.1323C15.7049 11.2699 15.45 11.0847 15.5224 10.862L15.7818 10.0634C15.8142 9.96383 15.7787 9.85471 15.694 9.79315L15.0147 9.29961C14.8252 9.16196 14.9226 8.8623 15.1568 8.8623H15.9964C16.1012 8.8623 16.194 8.79486 16.2264 8.69525L16.4858 7.89668Z" fill="#222222"/>
<path d="M11.6432 7.89668C11.7155 7.67397 12.0306 7.67397 12.103 7.89668L12.3624 8.69525C12.3948 8.79486 12.4876 8.8623 12.5923 8.8623H13.432C13.6662 8.8623 13.7636 9.16196 13.5741 9.29961L12.8948 9.79315C12.8101 9.85471 12.7746 9.96383 12.807 10.0634L13.0665 10.862C13.1388 11.0847 12.8839 11.2699 12.6945 11.1323L12.0152 10.6387C11.9304 10.5772 11.8157 10.5772 11.731 10.6387L11.0517 11.1323C10.8622 11.2699 10.6073 11.0847 10.6797 10.862L10.9391 10.0634C10.9715 9.96383 10.936 9.85471 10.8513 9.79315L10.172 9.29961C9.98254 9.16196 10.0799 8.8623 10.3141 8.8623H11.1538C11.2585 8.8623 11.3513 8.79486 11.3837 8.69525L11.6432 7.89668Z" fill="#222222"/>
<path d="M6.8007 7.8965C6.87306 7.67379 7.18817 7.67379 7.26054 7.8965L7.52001 8.69507C7.55237 8.79467 7.64518 8.86212 7.74991 8.86212H8.58958C8.82377 8.86212 8.92113 9.16177 8.73166 9.29943L8.05237 9.79297C7.96763 9.85453 7.93219 9.96365 7.96455 10.0633L8.22403 10.8618C8.29639 11.0845 8.04147 11.2697 7.85201 11.1321L7.17272 10.6386C7.08798 10.577 6.97326 10.577 6.88852 10.6386L6.20923 11.1321C6.01976 11.2697 5.76485 11.0845 5.83721 10.8618L6.09668 10.0633C6.12905 9.96365 6.0936 9.85453 6.00886 9.79297L5.32958 9.29943C5.14011 9.16177 5.23747 8.86212 5.47165 8.86212H6.31133C6.41606 8.86212 6.50886 8.79467 6.54123 8.69507L6.8007 7.8965Z" fill="#222222"/>
<path fill-rule="evenodd" clip-rule="evenodd" d="M8.63373 16.3014C8.63373 14.4423 10.1408 12.9352 11.9999 12.9352C13.8589 12.9352 15.366 14.4423 15.366 16.3014V20.1249H14.3688V16.3014C14.3688 14.9931 13.3082 13.9324 11.9999 13.9324C10.6915 13.9324 9.63092 14.9931 9.63092 16.3014V20.1249H8.63373V16.3014Z" fill="#222222"/>
</svg>
