<svg xmlns="http://www.w3.org/2000/svg" width="106" height="24" viewBox="0 0 106 24" fill="none"><rect width="106" height="24" fill="none"/>
<path d="M34.6285 17L38.2999 6.92856H36.4857L33.5427 15.2286H33.2571L30.4141 6.92856H28.5713L32.1285 17H34.6285Z" fill="white"/>
<path d="M43.0595 11.7857L47.3309 6.92856H45.2167L41.6453 11.0286H41.2309V6.92856H39.5167V17H41.2309V12.6857H41.6595L45.4309 17H47.6881L43.0595 11.7857Z" fill="white"/>
<path d="M53.4369 17V9.21428H53.6655L56.4799 17H58.0799L60.9513 9.21428H61.1799V17H62.8513V6.92856H60.2227L57.4227 14.5428H57.1941L54.4513 6.92856H51.7655V17H53.4369Z" fill="white"/>
<path d="M68.2339 14.9286H68.0053L65.8195 9.57142H64.0625L67.3625 17.4L67.2767 17.6286C67.0625 18.2286 66.8053 18.4286 66.2625 18.4286H64.8767L65.0195 19.9286H66.1481C67.5195 19.9286 68.2625 19.3143 68.7625 17.9286L71.8053 9.57142H70.1339L68.2339 14.9286Z" fill="white"/>
<path d="M76.9729 13.2143C77.7301 13.0143 78.2871 12.4 78.2871 11.5571C78.2871 10.3143 77.1015 9.42856 75.4587 9.42856C73.9871 9.42856 72.7443 10.1143 72.2871 11.5286L73.8015 11.7857C74.1015 11.2 74.6871 10.8286 75.4015 10.8286C76.0871 10.8286 76.6443 11.1714 76.6443 11.7286C76.6443 12.2286 76.1871 12.5571 75.3015 12.5571H74.3729V13.9857H75.3015C76.4157 13.9857 76.7587 14.3571 76.7587 14.8286C76.7587 15.4 76.2443 15.7429 75.3015 15.7429C74.4443 15.7429 73.9443 15.4571 73.6157 14.8L72.1015 15.0571C72.4587 16.3 73.6729 17.1429 75.3157 17.1429C77.2015 17.1429 78.4015 16.1714 78.4015 14.9571C78.4015 14.0286 77.7301 13.4429 76.9729 13.2143Z" fill="white"/>
<path d="M82.7709 17C84.5423 17 85.7995 15.9 85.7995 14.3429C85.7995 12.7857 84.5567 11.6857 82.7709 11.6857H81.6137V9.57142H79.9709V17H82.7709ZM88.3281 17V9.57142H86.6851V17H88.3281ZM81.6137 13.1143H82.7709C83.5851 13.1143 84.1567 13.6143 84.1567 14.3429C84.1567 15.0714 83.5851 15.5714 82.7709 15.5714H81.6137V13.1143Z" fill="white"/>
<path d="M96.9543 17L93.5401 13.1429L96.6687 9.57142H94.7115L92.2259 12.4571H91.8259V9.57142H90.1829V17H91.8259V14.0429H92.2259L94.7973 17H96.9543Z" fill="white"/>
<path d="M100.633 9.42856C99.1905 9.42856 97.9191 10.1714 97.5477 11.4571L99.0619 11.7143C99.2905 11.2571 99.8049 10.8286 100.548 10.8286C101.448 10.8286 101.976 11.4714 102.048 12.4429H100.448C98.2619 12.4429 97.1763 13.4 97.1763 14.7714C97.1763 16.1571 98.2477 17.1429 99.7619 17.1429C100.976 17.1429 101.791 16.4429 102.148 15.8286L102.491 17H103.705V12.8286C103.705 10.6714 102.533 9.42856 100.633 9.42856ZM100.148 15.7571C99.3477 15.7571 98.8333 15.3428 98.8333 14.7C98.8333 14.1286 99.2477 13.7286 100.505 13.7286H102.062C102.062 14.9429 101.291 15.7571 100.148 15.7571Z" fill="white"/>
<path fill-rule="evenodd" clip-rule="evenodd" d="M2.00004 11.1999C2.00126 6.9399 2.04206 4.76972 3.40589 3.40589C4.81177 2 7.07451 2 11.6 2L12.4 2C16.9255 2 19.1882 2 20.5941 3.40589C21.7383 4.5501 21.9513 6.26188 21.9909 9.29914C21.9959 9.67714 21.9981 10.0757 21.9991 10.4962C21.9992 10.5241 21.9993 10.552 21.9993 10.5801C21.9994 10.6128 21.9995 10.6456 21.9995 10.6785C21.9999 10.9748 21.9999 11.2818 21.9999 11.6V12.4C21.9999 16.9255 21.9999 19.1882 20.5941 20.5941C19.1882 22 16.9255 22 12.4 22H11.6C9.72493 22 8.23833 22 7.04015 21.9C5.34655 21.7586 4.22927 21.4175 3.40589 20.5941C2 19.1882 2 16.9255 2 12.4L2 11.6C2 11.4646 2 11.3312 2.00004 11.1999ZM2.60005 11.1861C2.60079 9.11872 2.61168 7.59344 2.77038 6.41304C2.93718 5.17248 3.25727 4.40304 3.83015 3.83015C4.40303 3.25727 5.17247 2.93718 6.41305 2.77039C7.67089 2.60128 9.32031 2.6 11.6 2.6H12.4C14.6797 2.6 16.3291 2.60127 17.587 2.77039C18.8275 2.93718 19.597 3.25727 20.1698 3.83015C20.7427 4.40304 21.0628 5.17248 21.2296 6.41304C21.3203 7.08794 21.3628 7.87556 21.3826 8.81278C20.0961 7.774 17.8072 5.99988 15.2 5.99988C13.3799 5.99988 11.9252 7.00012 10.2919 8.12324C8.31291 9.48406 6.07159 11.0252 2.60005 11.1861ZM17.5001 12.195C17.5001 11.7007 17.9058 11.3 18.4001 11.3C18.8944 11.3 19.3001 11.7007 19.3001 12.195V15.805C19.3001 16.2993 18.8944 16.7 18.4001 16.7C17.9058 16.7 17.5001 16.2993 17.5001 15.805V12.195ZM15.2002 9.00004C14.7059 9.00004 14.3002 9.40074 14.3002 9.89504V18.105C14.3002 18.5993 14.7059 19 15.2002 19C15.6945 19 16.1002 18.5993 16.1002 18.105V9.89504C16.1002 9.40074 15.6945 9.00004 15.2002 9.00004ZM11.1002 12.195C11.1002 11.7007 11.5059 11.3 12.0002 11.3C12.4945 11.3 12.9002 11.7007 12.9002 12.195V15.805C12.9002 16.2993 12.4945 16.7 12.0002 16.7C11.5059 16.7 11.1002 16.2993 11.1002 15.805V12.195ZM8.79981 12.6C8.30551 12.6 7.89981 13.0007 7.89981 13.495V14.505C7.89981 14.9993 8.30551 15.4 8.79981 15.4C9.29411 15.4 9.69981 14.9993 9.69981 14.505V13.495C9.69981 13.0007 9.29411 12.6 8.79981 12.6ZM4.69981 13.495C4.69981 13.0007 5.10551 12.6 5.59981 12.6C6.09409 12.6 6.49981 13.0007 6.49981 13.495V14.505C6.49981 14.9993 6.09409 15.4 5.59981 15.4C5.10551 15.4 4.69981 14.9993 4.69981 14.505V13.495Z" fill="white"/>
</svg>
