<svg xmlns="http://www.w3.org/2000/svg" width="24" height="24" viewBox="0 0 24 24" fill="none"><rect width="24" height="24" fill="none"/>
<path d="M6.74833 11.7307C3.86175 16.267 1.5 19.9833 1.5 19.9892C1.5 19.9952 4.8083 20 8.8518 20C14.7248 20 16.2016 19.9947 16.1937 19.9734C16.1882 19.9587 15.947 19.5752 15.6577 19.121L15.1318 18.2952H9.83508C6.92189 18.2952 4.53838 18.2904 4.53838 18.2845C4.53838 18.2517 11.999 6.55432 12.0109 6.56856C12.0188 6.57798 13.941 9.6039 16.2825 13.2928L20.5398 20H21.5105C22.0444 20 22.4813 19.9952 22.4813 19.9893C22.4813 19.9783 12.0378 3.53049 12.0114 3.50002C12.0033 3.4906 9.6349 7.1944 6.74833 11.7307ZM19.7043 10.367C19.1992 11.1518 18.7859 11.7991 18.7859 11.8055C18.7859 11.8119 19.6216 11.8172 20.643 11.8172H22.5L21.5762 10.3841C21.0681 9.59591 20.6457 8.94859 20.6375 8.94561C20.6294 8.94263 20.2095 9.58225 19.7043 10.367ZM12.5039 12.1034C12.5039 12.1084 13.6153 13.8848 14.9738 16.0509L17.4437 19.9893L18.404 19.9949C18.9435 19.998 19.3613 19.9923 19.3574 19.9819C19.3536 19.9717 18.2373 18.1931 16.8767 16.0295L14.4029 12.0957L13.4534 12.095C12.9312 12.0945 12.5039 12.0983 12.5039 12.1034ZM9.46035 14.9877C8.96637 15.7581 8.56218 16.3955 8.56218 16.4042C8.56218 16.4129 9.37054 16.42 10.3585 16.42C11.7105 16.42 12.1549 16.4139 12.1549 16.3952C12.1549 16.3729 10.3775 13.585 10.3641 13.5864C10.361 13.5868 9.95436 14.2173 9.46035 14.9877Z" fill="#000000"/>
</svg>
