<svg xmlns="http://www.w3.org/2000/svg" width="24" height="24" viewBox="0 0 24 24" fill="none"><rect width="24" height="24" fill="none"/>
<path fill-rule="evenodd" clip-rule="evenodd" d="M2 7.23713V16.9082C2 17.4395 2.48852 17.5213 2.73278 17.4958H6.48828C10.1391 17.4958 10.27 17.4836 10.8326 17.2143C11.814 16.7491 11.9449 16.4797 11.9841 14.7292C12.0234 13.2846 12.0103 13.1744 11.6963 12.6725C11.5131 12.3787 11.2644 12.0972 11.1467 12.0604C10.9504 11.987 10.9635 11.938 11.2775 11.632C11.9449 10.9831 11.9841 9.86914 11.3822 9.0122C11.0027 8.4858 9.13153 6.95557 8.54269 6.71073C8.0847 6.51486 7.69214 6.49038 5.59848 6.50262C4.26377 6.50262 3.04683 6.53934 2.90289 6.56383C2.17273 6.56383 2 6.92515 2 7.23713ZM6.65839 11.0076C8.86982 11.0076 9.19695 10.7873 8.18938 9.97931C7.63979 9.5386 7.63979 9.5386 6.35743 9.5386H5.07506V11.0076H6.65839ZM8.9745 14.7781C9.19695 14.57 9.17078 13.8722 8.92216 13.6519C8.76514 13.4927 8.38566 13.456 6.89393 13.456H5.07506V14.925H6.94627C8.22864 14.925 8.86982 14.8761 8.9745 14.7781Z" fill="#0000F7"/>
<path d="M18.0923 16.9863C17.438 17.6711 16.364 17.6711 15.722 16.9863C15.6213 16.8846 15.4233 16.6441 15.4257 16.4054V9.43493L13.1048 9.43493C12.8638 9.43731 12.6211 9.24125 12.5184 9.14144C11.8271 8.50554 11.8271 7.44162 12.5184 6.79349C12.5902 6.72426 12.7898 6.571 13.1048 6.5H20.8949C21.21 6.571 21.4095 6.72426 21.4813 6.79349C22.1727 7.44162 22.1727 8.50554 21.4813 9.14144C21.3787 9.24125 21.1359 9.4373 20.8949 9.43493L18.3886 9.43493L18.3886 16.4054C18.3886 16.6347 18.1587 16.9187 18.0923 16.9863Z" fill="black"/>
</svg>
