<svg xmlns="http://www.w3.org/2000/svg" width="24" height="24" viewBox="0 0 24 24" fill="none"><rect width="24" height="24" fill="none"/>
<path d="M11 2C5.94668 2.50172 2 6.76528 2 11.9506C2 17.4735 6.47715 21.9506 12 21.9506C17.1853 21.9506 21.4489 18.0039 21.9506 12.9506H19.9381C19.446 16.8969 16.0796 19.9506 12 19.9506C7.58172 19.9506 4 16.3689 4 11.9506C4 7.87101 7.05369 4.50462 11 4.01252V2Z" fill="#000000"/>
<path d="M13 4.01252C16.6187 4.46377 19.4869 7.33191 19.9381 10.9506H21.9506C21.4816 6.22621 17.7244 2.46907 13 2V4.01252Z" fill="#000000"/>
</svg>
