<svg xmlns="http://www.w3.org/2000/svg" width="74" height="24" viewBox="0 0 74 24" fill="none"><rect width="74" height="24" fill="none"/>
<path fill-rule="evenodd" clip-rule="evenodd" d="M10.4701 4.32276H9.12686C6.66418 4.32276 5.37687 5.55411 5.37687 7.38246C5.37687 9.45336 6.27239 10.4142 8.11007 11.6548L9.62127 12.6623L5.24627 19.1549H2L5.92724 13.3526C3.66978 11.7481 2.40112 10.1903 2.40112 7.55037C2.40112 4.23881 4.71455 2 9.10821 2H13.4739V19.1549H10.4701V4.32276Z" fill="#F8604A"/>
<path fill-rule="evenodd" clip-rule="evenodd" d="M30.722 16.8414C31.5429 14.9664 31.7668 11.5802 31.7668 9.4347V9.06157H34.9011V16.8414H30.722ZM37.8489 6.74814H29.2295V7.81157C29.2295 10.8433 29.0336 14.7705 27.9888 16.8414H27.0653V22H29.7985V19.1642H36.431V22H39.1642V16.8414H37.8489V6.74814Z" fill="white"/>
<path fill-rule="evenodd" clip-rule="evenodd" d="M22.8675 11.6548H18.9216V6.74814H15.9646V19.1642H18.9216V13.9776H22.8675V19.1642H25.8246V6.74814H22.8675V11.6548Z" fill="white"/>
<path fill-rule="evenodd" clip-rule="evenodd" d="M68.6325 8.81903C69.7798 8.81903 70.8899 9.21082 71.4869 9.58396V7.09329C70.8619 6.74814 69.7705 6.49627 68.306 6.49627C64.528 6.49627 62.569 9.18283 62.569 12.9608C62.569 17.1119 64.4813 19.4067 68.4366 19.4067C69.8078 19.4067 70.7686 19.1642 71.4963 18.6418V16.2444C70.75 16.7668 69.8545 17.084 68.6138 17.084C66.5056 17.084 65.6287 15.4515 65.6287 12.8862C65.6287 10.1996 66.7015 8.81903 68.6325 8.81903Z" fill="white"/>
<path fill-rule="evenodd" clip-rule="evenodd" d="M62.1772 6.74814H59.1922L55.0224 12.4757V6.74814H52.0653V19.1642H55.0224V13.0634L59.3974 19.1642H62.7463L57.9981 12.4757L62.1772 6.74814Z" fill="white"/>
<path fill-rule="evenodd" clip-rule="evenodd" d="M47.0653 11.8321H42.9422C43.0168 9.85448 43.7351 8.81903 45.153 8.81903C46.6175 8.81903 47.0653 10.0317 47.0653 11.5802V11.8321ZM45.209 6.49627C41.6082 6.49627 39.8918 9.23881 39.8918 12.9888C39.8918 17.3078 42.028 19.4067 45.806 19.4067C47.6903 19.4067 49.0895 18.9123 49.9571 18.3246V15.9272C49.0336 16.5429 47.4944 17.084 46.0578 17.084C43.8937 17.084 43.0728 16.0765 42.9515 13.9963H50.0784V12.4384C50.0784 8.12873 48.166 6.49627 45.209 6.49627Z" fill="white"/>
</svg>
