<svg xmlns="http://www.w3.org/2000/svg" width="188" height="24" viewBox="0 0 188 24" fill="none"><rect width="188" height="24" fill="none"/>
<path d="M38.245 9.56084L33.2854 2.56303H25.9665L34.1697 14.1981L27.5217 22.0002H35.6985L51.6494 2.56303H43.6876L38.245 9.56084Z" fill="white"/>
<path d="M18.3267 9.7751V9.45384C23.2863 8.94464 25.4579 6.34362 25.5923 2.5642H16.9866C17.0673 7.1489 14.6006 7.57734 11.6783 7.57734H9.18549V2.5632H2V17.4157H9.18473V12.0003H11.9465C15.0832 12.0003 17.5224 12.349 17.4427 17.4157H25.861C25.7268 12.8846 23.153 10.3381 18.3277 9.7751H18.3267Z" fill="white"/>
<path d="M65.6872 2.56303H52.4171V17.4155H59.6019V6.50396H63.1945C66.6798 6.50396 67.3496 7.65691 67.3496 10.8471V17.4155H74.5344V10.6592C74.5344 5.40457 72.4972 2.56303 65.6872 2.56303Z" fill="white"/>
<path d="M111.987 2.56303H101.343V22.0002H108.528V17.4155H111.718C118.983 17.4155 123.783 14.5204 123.783 10.0428C123.783 5.56532 119.064 2.56303 111.987 2.56303ZM111.638 13.6887H108.528V6.26244H111.638C114.694 6.26244 116.624 7.57617 116.624 9.96185C116.624 12.1335 114.667 13.6887 111.638 13.6887Z" fill="white"/>
<path d="M87.8037 2.00024C80.6997 2.00024 75.3107 5.51273 75.3107 10.0964C75.3107 14.6801 80.8606 17.9785 88.1786 17.9785C93.9424 17.9785 99.3852 15.5654 100.564 12.536H93.0846C92.0387 13.984 89.8671 14.8147 88.1786 14.8147C85.4977 14.8147 83.2725 13.4738 82.736 11.2222H100.644C100.859 6.10192 95.2563 2.00024 87.8028 2.00024H87.8037ZM83.005 8.0856C83.8902 6.12835 85.8464 5.1633 87.9383 5.1633C90.2707 5.1633 92.1472 6.02117 93.005 8.0856H83.005Z" fill="white"/>
<path d="M128.762 16.1398H129.294C129.471 15.9979 129.62 15.7957 129.741 15.5332C129.861 15.2636 129.932 14.9763 129.954 14.6712C129.961 14.5577 129.968 14.4265 129.975 14.2775C129.982 14.1285 129.985 13.9476 129.985 13.7348C129.992 13.5148 129.996 13.2523 129.996 12.9473C130.003 12.6422 130.007 12.2804 130.007 11.8618H133.604V16.1398H134.423V18.3533H133.593V16.9273H129.592V18.3533H128.762V16.1398ZM130.752 14.7883C130.723 15.0863 130.663 15.3488 130.571 15.5758C130.478 15.7957 130.376 15.9837 130.262 16.1398H132.752V12.6493H130.805C130.805 13.1388 130.801 13.568 130.794 13.937C130.787 14.2988 130.773 14.5826 130.752 14.7883ZM135.687 15.0969C135.694 14.8983 135.701 14.6571 135.708 14.3733C135.715 14.0824 135.719 13.788 135.719 13.49C135.726 13.185 135.733 12.8905 135.74 12.6068C135.747 12.3159 135.751 12.0676 135.751 11.8618H139.337V16.9273H138.486V12.6493H136.538C136.538 12.8551 136.535 13.075 136.528 13.3091C136.528 13.5432 136.524 13.7738 136.517 14.0008C136.51 14.2207 136.503 14.4336 136.496 14.6393C136.496 14.8451 136.492 15.0224 136.485 15.1714C136.456 15.8454 136.329 16.3065 136.102 16.5548C135.875 16.8031 135.517 16.9273 135.027 16.9273H134.633V16.1398H134.942C135.197 16.1398 135.382 16.0582 135.495 15.895C135.609 15.7319 135.673 15.4658 135.687 15.0969ZM140.595 13.4794C140.595 12.9402 140.765 12.5358 141.106 12.2662C141.453 11.9966 141.904 11.8618 142.457 11.8618H144.692V16.9273H143.841V15.0224H142.702L141.468 16.9273H140.478L141.829 14.9692C141.432 14.8841 141.127 14.7174 140.914 14.469C140.701 14.2137 140.595 13.8838 140.595 13.4794ZM142.479 14.2988H143.841V12.6068H142.479C142.145 12.6068 141.886 12.6812 141.702 12.8302C141.524 12.9721 141.436 13.1779 141.436 13.4474C141.436 13.717 141.524 13.9263 141.702 14.0753C141.879 14.2243 142.138 14.2988 142.479 14.2988ZM152.988 14.4584C152.988 15.2388 152.771 15.8631 152.339 16.3314C151.906 16.7996 151.335 17.0337 150.625 17.0337C149.887 17.0337 149.291 16.8031 148.837 16.342C148.383 15.8808 148.156 15.1643 148.156 14.1924V13.1282C148.156 12.511 148.224 12.0002 148.359 11.5958C148.5 11.1843 148.696 10.8544 148.944 10.6061C149.192 10.3507 149.49 10.1627 149.838 10.0421C150.185 9.9215 150.561 9.83636 150.966 9.7867C151.292 9.75122 151.594 9.71576 151.87 9.68028C152.147 9.64482 152.402 9.61289 152.636 9.58451L152.743 10.4039C152.495 10.4323 152.211 10.4678 151.892 10.5103C151.572 10.5458 151.278 10.5777 151.008 10.6061C150.377 10.6771 149.873 10.8828 149.497 11.2233C149.128 11.5568 148.944 12.1279 148.944 12.9366V12.9473C149.135 12.6422 149.398 12.4117 149.731 12.2556C150.072 12.0995 150.423 12.0215 150.785 12.0215C151.48 12.0215 152.019 12.2378 152.402 12.6706C152.793 13.1034 152.988 13.6993 152.988 14.4584ZM150.625 16.3101C151.157 16.3101 151.544 16.1363 151.785 15.7886C152.034 15.4339 152.158 14.9905 152.158 14.4584C152.158 13.905 152.026 13.4865 151.764 13.2027C151.501 12.9118 151.136 12.7664 150.668 12.7664C150.207 12.7664 149.809 12.8976 149.476 13.1601C149.15 13.4155 148.987 13.7525 148.987 14.1711V14.3307C148.987 14.9834 149.132 15.4765 149.423 15.8099C149.714 16.1433 150.114 16.3101 150.625 16.3101ZM155.081 16.9273H154.165V11.8618H154.985V15.8312L157.528 11.8618H158.465V16.9273H157.645V12.9366L155.081 16.9273ZM161.771 16.2994C162.175 16.2994 162.484 16.2214 162.697 16.0653C162.91 15.9092 163.016 15.7106 163.016 15.4694C163.016 15.2211 162.935 15.0295 162.771 14.8947C162.608 14.7528 162.324 14.6819 161.92 14.6819H161.101V13.9902H161.995C162.321 13.9902 162.555 13.9228 162.697 13.788C162.846 13.6461 162.92 13.4758 162.92 13.2772C162.92 13.0502 162.832 12.8621 162.654 12.7132C162.484 12.5642 162.214 12.4897 161.846 12.4897C161.455 12.4897 161.147 12.5748 160.92 12.7451C160.7 12.9154 160.544 13.153 160.451 13.4581L159.653 13.2985C159.767 12.7877 160.019 12.4046 160.409 12.1492C160.799 11.8867 161.278 11.7554 161.846 11.7554C162.449 11.7554 162.913 11.8902 163.24 12.1598C163.573 12.4223 163.74 12.7628 163.74 13.1814C163.74 13.4297 163.673 13.6567 163.538 13.8625C163.41 14.0611 163.215 14.2065 162.952 14.2988C163.215 14.3768 163.431 14.5116 163.601 14.7032C163.779 14.8947 163.868 15.1501 163.868 15.4694C163.868 15.9589 163.676 16.342 163.293 16.6187C162.917 16.8954 162.41 17.0337 161.771 17.0337C161.14 17.0337 160.636 16.8989 160.26 16.6293C159.891 16.3526 159.671 15.9589 159.6 15.4481L160.409 15.3204C160.459 15.5971 160.593 15.8312 160.813 16.0227C161.033 16.2072 161.352 16.2994 161.771 16.2994ZM165.041 16.9273V11.8618H165.892V13.937H168.595V11.8618H169.447V16.9273H168.595V14.7245H165.892V16.9273H165.041ZM175.209 14.5435H171.463C171.491 15.1111 171.647 15.5439 171.931 15.8418C172.215 16.1398 172.577 16.2888 173.017 16.2888C173.414 16.2888 173.722 16.1966 173.942 16.0121C174.162 15.8276 174.308 15.6148 174.379 15.3736L175.177 15.5119C175.056 15.9873 174.808 16.3597 174.432 16.6293C174.056 16.8989 173.573 17.0337 172.985 17.0337C172.261 17.0337 171.683 16.7996 171.25 16.3314C170.824 15.856 170.611 15.2104 170.611 14.3946C170.611 13.976 170.672 13.6035 170.792 13.2772C170.92 12.9437 171.09 12.6671 171.303 12.4471C171.516 12.2201 171.768 12.0498 172.059 11.9363C172.357 11.8157 172.672 11.7554 173.006 11.7554C173.68 11.7554 174.216 11.9683 174.613 12.3939C175.01 12.8196 175.209 13.4191 175.209 14.1924V14.5435ZM172.995 12.4897C172.598 12.4897 172.265 12.6138 171.995 12.8621C171.733 13.1105 171.566 13.4368 171.495 13.8412H174.357C174.336 13.451 174.216 13.1282 173.996 12.8728C173.776 12.6174 173.442 12.4897 172.995 12.4897ZM179.791 15.2778L180.589 15.4055C180.49 15.8596 180.259 16.2462 179.897 16.5655C179.543 16.8776 179.046 17.0337 178.407 17.0337C177.705 17.0337 177.134 16.8102 176.694 16.3633C176.254 15.9163 176.034 15.2601 176.034 14.3946C176.034 13.9476 176.095 13.561 176.215 13.2346C176.343 12.9012 176.513 12.6245 176.726 12.4046C176.939 12.1846 177.191 12.0215 177.482 11.915C177.773 11.8086 178.085 11.7554 178.418 11.7554C179.078 11.7554 179.578 11.915 179.919 12.2343C180.266 12.5535 180.483 12.926 180.568 13.3517L179.791 13.5006C179.727 13.2594 179.592 13.036 179.387 12.8302C179.181 12.6174 178.858 12.511 178.418 12.511C177.928 12.511 177.549 12.6812 177.279 13.0218C177.017 13.3552 176.886 13.8128 176.886 14.3946C176.886 14.955 177.017 15.4091 177.279 15.7567C177.542 16.1043 177.918 16.2781 178.407 16.2781C178.854 16.2781 179.177 16.1753 179.376 15.9695C179.582 15.7567 179.72 15.5261 179.791 15.2778ZM184.833 16.9273V16.3314C184.677 16.5371 184.461 16.7074 184.184 16.8422C183.914 16.9699 183.599 17.0337 183.235 17.0337C182.683 17.0337 182.242 16.8989 181.917 16.6293C181.598 16.3597 181.438 15.9908 181.438 15.5226C181.438 14.9976 181.612 14.618 181.96 14.3839C182.314 14.1498 182.782 14.0221 183.363 14.0008C183.626 13.9937 183.871 13.9937 184.099 14.0008C184.326 14.0008 184.552 14.0044 184.779 14.0115V13.5752C184.779 13.2062 184.673 12.9366 184.461 12.7664C184.247 12.5961 183.979 12.511 183.651 12.511C183.289 12.511 183.012 12.5997 182.822 12.777C182.636 12.9544 182.501 13.1708 182.417 13.4262L181.608 13.2559C181.714 12.8089 181.942 12.4471 182.289 12.1704C182.636 11.8938 183.092 11.7554 183.651 11.7554C184.227 11.7554 184.698 11.9009 185.067 12.1917C185.443 12.4755 185.63 12.926 185.63 13.5432V16.9273H184.833ZM184.779 14.6819C184.567 14.6748 184.34 14.6712 184.099 14.6712C183.863 14.6712 183.626 14.6748 183.385 14.6819C183.023 14.6961 182.75 14.7741 182.566 14.916C182.381 15.0579 182.289 15.2565 182.289 15.5119C182.289 15.7532 182.374 15.9482 182.545 16.0972C182.723 16.2391 182.96 16.3101 183.257 16.3101C183.683 16.3101 184.041 16.2072 184.333 16.0015C184.63 15.7886 184.779 15.5119 184.779 15.1714V14.6819Z" fill="white"/>
</svg>
