<svg xmlns="http://www.w3.org/2000/svg" width="24" height="24" viewBox="0 0 24 24" fill="none"><rect width="24" height="24" fill="none"/>
<path fill-rule="evenodd" clip-rule="evenodd" d="M3.10553 9.33134C1.63182 10.8051 1.63182 13.1944 3.10553 14.6682L9.33183 20.8944C10.8055 22.3682 13.1949 22.3682 14.6687 20.8944L20.8949 14.6682C22.3687 13.1944 22.3687 10.8051 20.8949 9.33134L14.6686 3.10504C13.1949 1.63133 10.8055 1.63133 9.33183 3.10504L3.10553 9.33134Z" fill="white"/>
<path d="M17.9533 10.6356C17.9533 9.94073 17.3905 9.37774 16.6956 9.37769C16.0007 9.37769 15.4377 9.9407 15.4377 10.6356C15.4378 11.3304 16.0008 11.8933 16.6956 11.8933C17.3905 11.8932 17.9533 11.3304 17.9533 10.6356ZM18.8759 10.6356C18.8758 11.8399 17.8999 12.8158 16.6956 12.8158C15.4913 12.8158 14.5152 11.8399 14.5152 10.6356C14.5152 9.43123 15.4913 8.45515 16.6956 8.45515C17.8999 8.4552 18.8759 9.43126 18.8759 10.6356Z" fill="#222222"/>
<path d="M13.1564 15.6788C13.1564 14.8625 12.4943 14.2008 11.6784 14.2008C10.862 14.2008 10.2004 14.8624 10.2004 15.6788C10.2004 16.4952 10.862 17.1568 11.6784 17.1568C12.4943 17.1568 13.1564 16.4951 13.1564 15.6788ZM14.079 15.6788C14.079 17.0047 13.0035 18.0793 11.6784 18.0793C10.3526 18.0793 9.27789 17.0046 9.27789 15.6788C9.27789 14.3529 10.3526 13.2782 11.6784 13.2782C13.0035 13.2782 14.079 14.3528 14.079 15.6788Z" fill="#222222"/>
<path d="M8.30054 11.8885C8.30054 11.1936 7.73754 10.6306 7.04264 10.6306C6.34773 10.6306 5.78474 11.1935 5.78474 11.8885C5.78476 12.5834 6.34775 13.1464 7.04264 13.1464C7.73753 13.1463 8.30052 12.5834 8.30054 11.8885ZM9.22288 11.8885C9.22286 13.0928 8.24699 14.0687 7.04264 14.0687C5.83829 14.0687 4.86221 13.0928 4.86219 11.8885C4.86219 10.6841 5.83828 9.70802 7.04264 9.70802C8.247 9.70804 9.22288 10.6841 9.22288 11.8885Z" fill="#222222"/>
<path d="M15.8336 12.2024L13.3899 14.6461L12.7376 13.9938L15.1813 11.5501L15.8336 12.2024Z" fill="#222222"/>
<path d="M10.3373 14.3613L9.68506 15.0136L8.00253 13.3311L8.65482 12.6788L10.3373 14.3613Z" fill="#222222"/>
</svg>
