<svg xmlns="http://www.w3.org/2000/svg" width="122" height="24" viewBox="0 0 122 24" fill="none"><rect width="122" height="24" fill="none"/>
<path d="M46.028 5.31H50.631L53.608 9.934L56.61 5.31H61.212V18.664H56.66V12.052L53.508 16.598L50.456 12.155V18.639H46.028V5.31ZM63.189 11.974C63.189 8.177 66.191 5 70.369 5C74.496 5 77.499 8.126 77.499 11.974C77.499 15.771 74.496 18.948 70.319 18.948C66.166 18.974 63.189 15.823 63.189 11.974ZM73.045 11.974C73.045 10.347 71.895 8.952 70.293 8.952C68.643 8.952 67.592 10.321 67.592 11.974C67.592 13.601 68.742 14.996 70.344 14.996C71.994 14.996 73.045 13.627 73.045 11.974ZM79.399 5.31H83.952V10.037H87.679V5.31H92.232V18.664H87.68V13.808H83.953V18.638H79.4L79.399 5.31ZM94.134 11.974C94.134 8.074 96.835 5 100.663 5C105.141 5 107.192 8.384 107.192 12.31C107.192 12.594 107.192 12.956 107.167 13.266H98.512C98.862 14.712 99.887 15.461 101.313 15.461C102.389 15.461 103.24 15.048 104.19 14.092L106.692 16.236C105.441 17.863 103.665 18.948 101.063 18.948C96.986 18.974 94.134 16.184 94.134 11.974ZM102.914 10.864C102.739 9.391 101.914 8.435 100.663 8.435C99.463 8.435 98.662 9.391 98.412 10.863H102.914V10.864ZM111.669 9.081H107.892V5.311H120V9.081H116.222V18.664H111.694V9.081H111.669ZM2 5.336H6.553V10.063H10.28V5.336H14.833V18.69H10.28V13.834H6.553V18.69H2V5.336ZM16.734 12.026C16.734 8.126 19.436 5.052 23.264 5.052C27.741 5.052 29.793 8.435 29.793 12.362C29.793 12.646 29.793 13.008 29.768 13.317H21.112C21.462 14.764 22.488 15.513 23.914 15.513C24.99 15.513 25.84 15.1 26.791 14.144L29.292 16.288C28.042 17.915 26.24 19 23.664 19C19.611 19 16.734 16.21 16.734 12.026ZM25.515 10.916C25.365 9.417 24.515 8.487 23.288 8.487C22.088 8.487 21.288 9.443 21.038 10.915H25.515V10.916ZM34.27 9.107H30.493V5.336H42.576V9.106H38.798V18.69H34.271L34.27 9.107Z" fill="white"/>
</svg>
