<svg xmlns="http://www.w3.org/2000/svg" width="106" height="24" viewBox="0 0 106 24" fill="none"><rect width="106" height="24" fill="none"/>
<path d="M34.6286 17L38.3 6.92856H36.4856L33.5428 15.2286H33.2572L30.4142 6.92856H28.5714L32.1286 17H34.6286Z" fill="black"/>
<path d="M43.0596 11.7857L47.331 6.92856H45.2168L41.6452 11.0286H41.231V6.92856H39.5166V17H41.231V12.6857H41.6596L45.431 17H47.6882L43.0596 11.7857Z" fill="black"/>
<path d="M53.437 17V9.21428H53.6656L56.4798 17H58.0798L60.9514 9.21428H61.1798V17H62.8514V6.92856H60.2228L57.4228 14.5428H57.1942L54.4514 6.92856H51.7656V17H53.437Z" fill="black"/>
<path d="M68.2338 14.9286H68.0054L65.8196 9.57142H64.0624L67.3624 17.4L67.2768 17.6286C67.0624 18.2286 66.8054 18.4286 66.2624 18.4286H64.8768L65.0196 19.9286H66.1482C67.5196 19.9286 68.2624 19.3143 68.7624 17.9286L71.8054 9.57142H70.1338L68.2338 14.9286Z" fill="black"/>
<path d="M76.973 13.2143C77.73 13.0143 78.2872 12.4 78.2872 11.5571C78.2872 10.3143 77.1016 9.42856 75.4586 9.42856C73.9872 9.42856 72.7444 10.1143 72.2872 11.5286L73.8016 11.7857C74.1016 11.2 74.6872 10.8286 75.4016 10.8286C76.0872 10.8286 76.6444 11.1714 76.6444 11.7286C76.6444 12.2286 76.1872 12.5571 75.3016 12.5571H74.373V13.9857H75.3016C76.4158 13.9857 76.7586 14.3571 76.7586 14.8286C76.7586 15.4 76.2444 15.7429 75.3016 15.7429C74.4444 15.7429 73.9444 15.4571 73.6158 14.8L72.1016 15.0571C72.4586 16.3 73.673 17.1429 75.3158 17.1429C77.2016 17.1429 78.4016 16.1714 78.4016 14.9571C78.4016 14.0286 77.73 13.4429 76.973 13.2143Z" fill="black"/>
<path d="M82.771 17C84.5424 17 85.7996 15.9 85.7996 14.3429C85.7996 12.7857 84.5566 11.6857 82.771 11.6857H81.6138V9.57142H79.971V17H82.771ZM88.328 17V9.57142H86.6852V17H88.328ZM81.6138 13.1143H82.771C83.5852 13.1143 84.1566 13.6143 84.1566 14.3429C84.1566 15.0714 83.5852 15.5714 82.771 15.5714H81.6138V13.1143Z" fill="black"/>
<path d="M96.9544 17L93.5402 13.1429L96.6688 9.57142H94.7116L92.2258 12.4571H91.8258V9.57142H90.183V17H91.8258V14.0429H92.2258L94.7972 17H96.9544Z" fill="black"/>
<path d="M100.633 9.42856C99.1906 9.42856 97.9192 10.1714 97.5478 11.4571L99.062 11.7143C99.2906 11.2571 99.8048 10.8286 100.548 10.8286C101.448 10.8286 101.976 11.4714 102.048 12.4429H100.448C98.262 12.4429 97.1764 13.4 97.1764 14.7714C97.1764 16.1571 98.2478 17.1429 99.762 17.1429C100.976 17.1429 101.791 16.4429 102.148 15.8286L102.491 17H103.705V12.8286C103.705 10.6714 102.533 9.42856 100.633 9.42856ZM100.148 15.7571C99.3478 15.7571 98.8334 15.3428 98.8334 14.7C98.8334 14.1286 99.2478 13.7286 100.505 13.7286H102.062C102.062 14.9429 101.291 15.7571 100.148 15.7571Z" fill="black"/>
<path d="M3.40587 3.40589C2.04205 4.76972 2.00125 6.9399 2.00003 11.1999C5.81762 11.1999 8.20114 9.5609 10.2919 8.12324C11.9252 7.00014 13.3799 5.99988 15.2 5.99988C17.9091 5.99988 20.2745 7.91536 21.5288 8.93104C21.7056 9.07426 21.8604 9.1996 21.9909 9.29914C21.9513 6.26188 21.7383 4.5501 20.5941 3.40589C19.1882 2 16.9255 2 12.4 2L11.6 2C7.0745 2 4.81176 2 3.40587 3.40589Z" fill="#0077FF"/>
<path d="M11.012 21.9999C11.2036 22 11.3996 22 11.6 22H12.4C12.6004 22 12.7963 22 12.9879 21.9999H11.012Z" fill="#0077FF"/>
<path d="M2.00003 11.1999C5.81762 11.1999 8.20114 9.5609 10.2919 8.12324C11.9252 7.00014 13.3799 5.99988 15.2 5.99988C17.9091 5.99988 20.2745 7.91536 21.5288 8.93104C21.7056 9.07426 21.8604 9.1996 21.9909 9.29914C22 9.99374 22 10.7577 22 11.6V12.4C22 16.9255 22 19.1882 20.5941 20.5941C19.2505 21.9378 17.1243 21.9972 12.9879 21.9999H11.012C6.8757 21.9972 4.74954 21.9378 3.40589 20.5941C2 19.1882 2 16.9255 2 12.4L2 11.6C2 11.4646 1.99999 11.3313 2.00003 11.1999Z" fill="#F45FFF"/>
<path d="M17.5001 12.195C17.5001 11.7007 17.9058 11.3 18.4001 11.3C18.8944 11.3 19.3001 11.7007 19.3001 12.195V15.805C19.3001 16.2993 18.8944 16.7 18.4001 16.7C17.9058 16.7 17.5001 16.2993 17.5001 15.805V12.195Z" fill="white"/>
<path d="M14.3002 9.89502C14.3002 9.40072 14.7059 9.00002 15.2002 9.00002C15.6945 9.00002 16.1002 9.40072 16.1002 9.89502V18.105C16.1002 18.5993 15.6945 19 15.2002 19C14.7059 19 14.3002 18.5993 14.3002 18.105V9.89502Z" fill="white"/>
<path d="M11.1002 12.195C11.1002 11.7007 11.5059 11.3 12.0002 11.3C12.4945 11.3 12.9002 11.7007 12.9002 12.195V15.805C12.9002 16.2993 12.4945 16.7 12.0002 16.7C11.5059 16.7 11.1002 16.2993 11.1002 15.805V12.195Z" fill="white"/>
<path d="M7.89978 13.495C7.89978 13.0007 8.30548 12.6 8.79978 12.6C9.29408 12.6 9.69978 13.0007 9.69978 13.495V14.505C9.69978 14.9993 9.29408 15.4 8.79978 15.4C8.30548 15.4 7.89978 14.9993 7.89978 14.505V13.495Z" fill="white"/>
<path d="M4.69978 13.495C4.69978 13.0007 5.10548 12.6 5.59978 12.6C6.09408 12.6 6.49978 13.0007 6.49978 13.495V14.505C6.49978 14.9993 6.09408 15.4 5.59978 15.4C5.10548 15.4 4.69978 14.9993 4.69978 14.505V13.495Z" fill="white"/>
</svg>
