<svg xmlns="http://www.w3.org/2000/svg" width="83" height="24" viewBox="0 0 83 24" fill="none"><rect width="83" height="24" fill="none"/>
<path d="M75.7477 8.72634V11.4564H76.7155C77.1902 11.4564 77.5615 11.3452 77.8293 11.1229C78.0971 10.8867 78.231 10.5672 78.231 10.1643C78.231 9.65024 78.1093 9.28207 77.8659 9.05978C77.6224 8.83749 77.2633 8.72634 76.7885 8.72634H75.7477ZM75.7477 12.9777V15.9578H76.8251C77.3363 15.9578 77.738 15.8466 78.0302 15.6244C78.3345 15.4021 78.4867 15.0061 78.4867 14.4365C78.4867 13.9085 78.3467 13.5334 78.0667 13.3111C77.7989 13.0888 77.385 12.9777 76.8251 12.9777H75.7477ZM73.1731 7.05915H77.2998C78.4806 7.05915 79.357 7.28144 79.9292 7.72602C80.5135 8.15672 80.8056 8.84443 80.8056 9.78918C80.8056 10.4283 80.6474 10.9423 80.3309 11.3313C80.0266 11.7064 79.6127 11.9704 79.0893 12.1232C79.7709 12.2483 80.2883 12.5123 80.6413 12.9152C81.0065 13.3042 81.1891 13.8669 81.1891 14.6032C81.1891 15.6174 80.8361 16.3746 80.13 16.8747C79.4362 17.3749 78.4806 17.625 77.2633 17.625H73.1731V7.05915Z" fill="white"/>
<path d="M66.4157 6.16305C65.9045 6.16305 65.4541 6.08664 65.0645 5.93381C64.6872 5.78098 64.3707 5.57953 64.115 5.32945C63.8594 5.06548 63.6646 4.75983 63.5307 4.4125C63.409 4.05127 63.3481 3.66226 63.3481 3.24546H65.4662C65.4662 3.70394 65.5332 4.05822 65.6671 4.3083C65.8132 4.54448 66.0627 4.66258 66.4157 4.66258C66.7688 4.66258 67.0122 4.54448 67.1461 4.3083C67.2922 4.05822 67.3652 3.70394 67.3652 3.24546H69.4651C69.4651 3.66226 69.3981 4.05127 69.2642 4.4125C69.1425 4.75983 68.9538 5.06548 68.6982 5.32945C68.4426 5.57953 68.1261 5.78098 67.7487 5.93381C67.3713 6.08664 66.927 6.16305 66.4157 6.16305ZM61.8143 7.05917H64.4254V14.0822L68.5704 7.05917H70.9441V17.625H68.333V10.602L64.2063 17.625H61.8143V7.05917Z" fill="white"/>
<path d="M55.3486 15.9786C55.7868 15.9786 56.1338 15.8605 56.3894 15.6244C56.6572 15.3743 56.8642 15.0686 57.0102 14.7074V12.7901H56.2799C55.4521 12.7901 54.8739 12.936 54.5452 13.2278C54.2287 13.5195 54.0704 13.9433 54.0704 14.499C54.0704 14.9992 54.1861 15.3743 54.4174 15.6244C54.6487 15.8605 54.9591 15.9786 55.3486 15.9786ZM57.3754 17.625C57.3146 17.4444 57.2598 17.236 57.2111 16.9998C57.1746 16.7497 57.1441 16.4857 57.1198 16.2079C57.0102 16.4024 56.8763 16.5969 56.7181 16.7914C56.5598 16.9859 56.3772 17.1596 56.1703 17.3124C55.9634 17.4652 55.7199 17.5903 55.4399 17.6875C55.1599 17.7848 54.8434 17.8334 54.4904 17.8334C54.0522 17.8334 53.6444 17.7709 53.267 17.6458C52.8897 17.5208 52.5671 17.3332 52.2993 17.0831C52.0315 16.8192 51.8184 16.4927 51.6602 16.1037C51.5141 15.7147 51.4411 15.2631 51.4411 14.7491C51.4411 13.721 51.8306 12.8943 52.6097 12.2691C53.3888 11.63 54.5939 11.3105 56.2251 11.3105H57.0102V10.727C57.0102 10.1018 56.8763 9.63635 56.6085 9.3307C56.3407 9.01115 55.8416 8.85138 55.1112 8.85138C54.5756 8.85138 54.1131 8.95558 53.7235 9.16398C53.334 9.35849 52.9505 9.60856 52.5732 9.91422L51.8063 7.80938C52.1958 7.54541 52.6827 7.32312 53.267 7.14251C53.8635 6.948 54.6061 6.85075 55.4947 6.85075C56.8337 6.85075 57.8624 7.14945 58.5806 7.74686C59.311 8.33038 59.6761 9.28902 59.6761 10.6228V15.937C59.6761 16.1731 59.6822 16.4718 59.6944 16.8331C59.7188 17.1804 59.7492 17.4444 59.7857 17.625H57.3754Z" fill="white"/>
<path d="M45.5209 15.8536C46.1417 15.8536 46.6469 15.5757 47.0365 15.02C47.4382 14.4504 47.639 13.5543 47.639 12.3316C47.639 11.1368 47.4382 10.2546 47.0365 9.68498C46.6348 9.11535 46.1296 8.83054 45.5209 8.83054C44.9001 8.83054 44.3766 9.11535 43.9506 9.68498C43.5367 10.2407 43.3298 11.1229 43.3298 12.3316C43.3298 12.943 43.3845 13.4709 43.4941 13.9155C43.6037 14.3601 43.7558 14.7282 43.9506 15.02C44.1575 15.2979 44.3888 15.5063 44.6445 15.6452C44.9123 15.7841 45.2044 15.8536 45.5209 15.8536ZM46.2878 17.8334C45.6061 17.8334 45.0218 17.6736 44.5349 17.3541C44.0601 17.0206 43.6645 16.5691 43.348 15.9995V21.397H40.6821V7.05915H43.0741L43.275 8.8097C43.5793 8.1984 43.981 7.71908 44.4801 7.37175C44.9914 7.02441 45.6061 6.85075 46.3243 6.85075C46.86 6.85075 47.3712 6.96189 47.8581 7.18419C48.3451 7.40648 48.7711 7.74686 49.1363 8.20534C49.5137 8.64993 49.8119 9.21955 50.031 9.91422C50.2502 10.595 50.3597 11.4008 50.3597 12.3316C50.3597 13.2625 50.2502 14.0753 50.031 14.7699C49.8119 15.4507 49.5137 16.0203 49.1363 16.4788C48.7589 16.9373 48.3268 17.2777 47.8399 17.4999C47.353 17.7222 46.8356 17.8334 46.2878 17.8334Z" fill="white"/>
<path d="M30.4071 12.6651C30.2732 13.2903 30.1088 13.8391 29.9141 14.3115C29.7193 14.7838 29.4941 15.2006 29.2385 15.5619H34.8624V5.20442H31.0644C30.9914 6.8855 30.9062 8.3443 30.8088 9.5808C30.7114 10.8034 30.5775 11.8315 30.4071 12.6651ZM36.9805 17.625H28.3072L27.9238 21.397H25.9152V15.5619H26.8099C27.1264 15.284 27.4064 14.895 27.6499 14.3948C27.8933 13.8947 28.1003 13.2417 28.2707 12.4359C28.4777 11.4356 28.6359 10.1782 28.7455 8.66384C28.8672 7.14948 28.9402 5.30862 28.9646 3.14127H37.6196V15.5619H39.3726V21.397H37.364L36.9805 17.625Z" fill="white"/>
<path d="M12 22C17.5228 22 22 17.5228 22 12C22 7.83158 19.4495 4.25884 15.824 2.75719C14.646 2.26927 13.3544 2 12 2C9.35767 2 6.95471 3.02482 5.16689 4.69868C3.21792 6.52342 2 9.11948 2 12C2 15.4168 3.71367 18.4334 6.32842 20.2372C7.67179 21.1639 9.253 21.7705 10.9619 21.9468C11.3031 21.982 11.6495 22 12 22Z" fill="#D9D9D9"/>
<path d="M12 22C17.5228 22 22 17.5228 22 12C22 7.83158 19.4495 4.25884 15.824 2.75719C14.646 2.26927 13.3544 2 12 2C9.35767 2 6.95471 3.02482 5.16689 4.69868C3.21792 6.52342 2 9.11948 2 12C2 15.4168 3.71367 18.4334 6.32842 20.2372C7.67179 21.1639 9.253 21.7705 10.9619 21.9468C11.3031 21.982 11.6495 22 12 22Z" fill="url(#paint0_linear_4914_60)"/>
<path d="M7.88743 18.8332C13.4339 13.2883 13.4522 4.69592 5.41145 4.69592C5.32936 4.69592 5.24785 4.69691 5.16689 4.69868C3.21792 6.52342 2 9.11948 2 12C2 15.4168 3.71367 18.4334 6.32842 20.2372C6.84202 19.8239 7.36256 19.3581 7.88743 18.8332Z" fill="#D9D9D9"/>
<path d="M7.88743 18.8332C13.4339 13.2883 13.4522 4.69592 5.41145 4.69592C5.32936 4.69592 5.24785 4.69691 5.16689 4.69868C3.21792 6.52342 2 9.11948 2 12C2 15.4168 3.71367 18.4334 6.32842 20.2372C6.84202 19.8239 7.36256 19.3581 7.88743 18.8332Z" fill="url(#paint1_linear_4914_60)"/>
<path d="M12 22C17.5228 22 22 17.5228 22 12C22 7.83158 19.4495 4.25884 15.824 2.75719C17.6951 4.04164 18.8303 6.11756 18.8303 9.38316C18.8303 14.2993 15.6827 19.0617 10.9619 21.9468C11.3031 21.982 11.6495 22 12 22Z" fill="#D9D9D9"/>
<defs>
<linearGradient id="paint0_linear_4914_60" x1="41.5944" y1="2" x2="41.5944" y2="22" gradientUnits="userSpaceOnUse">
<stop stop-color="#739EFA"/>
<stop offset="1" stop-color="#1538C2"/>
</linearGradient>
<linearGradient id="paint1_linear_4914_60" x1="41.5946" y1="2" x2="41.5946" y2="22" gradientUnits="userSpaceOnUse">
<stop stop-color="#3F4042"/>
<stop offset="1" stop-color="#1F2021"/>
</linearGradient>
</defs>
</svg>
