<svg xmlns="http://www.w3.org/2000/svg" width="166" height="24" viewBox="0 0 166 24" fill="none"><rect width="166" height="24" fill="none"/>
<path d="M16.3154 20.0943C14.9206 21.2711 13.3147 21.8596 11.4978 21.8596C10.2314 21.8596 9.02006 21.6389 7.86383 21.1976C6.7076 20.7379 5.69816 20.0759 4.83556 19.2116C3.97296 18.3474 3.28472 17.29 2.77083 16.0396C2.25695 14.7892 2 13.3641 2 11.7643C2 10.3852 2.25695 9.10717 2.77083 7.93032C3.28472 6.73504 3.99132 5.7053 4.89062 4.84104C5.78992 3.9584 6.84524 3.26883 8.05652 2.77234C9.28622 2.25747 10.6076 2.00003 12.0208 2.00003C12.9018 2.00003 13.746 2.10116 14.5536 2.30344C15.3611 2.48732 16.1044 2.77234 16.7835 3.1585C17.4809 3.52627 18.1049 3.97679 18.6555 4.51005C19.2061 5.02493 19.6558 5.61336 20.0045 6.27535L16.0126 9.33703C15.6272 8.56472 15.0491 7.9487 14.2783 7.48898C13.5074 7.01087 12.6907 6.77184 11.8281 6.77184C11.1858 6.77184 10.5985 6.90055 10.0662 7.158C9.53396 7.41541 9.07515 7.77402 8.68973 8.2337C8.3043 8.69342 8.00147 9.24509 7.78124 9.8887C7.561 10.5139 7.4509 11.2035 7.4509 11.9574C7.4509 12.7297 7.561 13.4285 7.78124 14.0537C8.00147 14.6789 8.3043 15.2214 8.68973 15.681C9.09349 16.1224 9.57067 16.4718 10.1213 16.7292C10.6719 16.9683 11.2867 17.0877 11.9658 17.0877C13.5258 17.0877 14.9023 16.4442 16.0952 15.157H12.7091V11.2954H20.7478V21.7216H16.3154V20.0943Z" fill="white"/>
<path d="M36.6798 17.1454V21.8345H22.7497V2.25077H36.432V6.93983H28.118V9.69812H35.2207V14.0562H28.118V17.1454H36.6798Z" fill="white"/>
<path d="M54.8095 6.93983H49.1933V21.8345H43.8252V6.93983H38.1816V2.25077H54.8095V6.93983Z" fill="white"/>
<path d="M55.5603 11.7367C55.5603 10.5414 55.7807 9.36458 56.2212 8.20611C56.68 7.04763 57.3409 6.00869 58.2031 5.08926C59.0657 4.16984 60.1121 3.42511 61.3419 2.85506C62.5712 2.28502 63.9755 2 65.5536 2C67.4443 2 69.0774 2.39535 70.4538 3.18606C71.849 3.95837 72.8858 4.98813 73.5651 6.27532L69.4629 9.19907C69.2795 8.72097 69.0316 8.32564 68.7199 8.01305C68.4261 7.70041 68.0956 7.45217 67.7285 7.26828C67.3614 7.08439 66.9763 6.95569 66.5725 6.88212C66.1871 6.8086 65.8108 6.7718 65.4436 6.7718C64.6727 6.7718 64.003 6.92809 63.4338 7.24073C62.8833 7.53495 62.4245 7.93027 62.0573 8.42676C61.7085 8.90486 61.4427 9.45653 61.2589 10.0817C61.0939 10.6886 61.0114 11.2954 61.0114 11.9022C61.0114 12.5826 61.1122 13.2353 61.3144 13.8606C61.516 14.4858 61.8098 15.0374 62.1953 15.5155C62.5803 15.9936 63.0488 16.3798 63.5992 16.674C64.168 16.9498 64.8015 17.0877 65.4986 17.0877C65.8658 17.0877 66.2421 17.0509 66.6275 16.9774C67.013 16.8855 67.3797 16.7476 67.7285 16.5637C68.0956 16.3614 68.4169 16.1132 68.6919 15.8189C68.9857 15.5063 69.2154 15.1294 69.3804 14.6881L73.7576 17.3084C73.4638 18.0255 73.0142 18.6691 72.4087 19.2392C71.8215 19.8092 71.1423 20.2873 70.3713 20.6735C69.6192 21.0597 68.8024 21.3539 67.9215 21.5561C67.0588 21.7584 66.2146 21.8596 65.3886 21.8596C63.9389 21.8596 62.6083 21.5745 61.3969 21.0045C60.2038 20.416 59.167 19.6437 58.2861 18.6875C57.4235 17.7313 56.7533 16.6464 56.2762 15.4328C55.7991 14.2191 55.5603 12.9871 55.5603 11.7367Z" fill="#22C2B5"/>
<path d="M83.8912 21.8596C82.4048 21.8596 81.0559 21.5745 79.8445 21.0045C78.633 20.4344 77.5963 19.6897 76.7337 18.7703C75.871 17.8325 75.2009 16.7659 74.7238 15.5707C74.2467 14.3754 74.0083 13.1434 74.0083 11.8746C74.0083 10.5874 74.2558 9.3462 74.7513 8.15092C75.2468 6.95569 75.9352 5.90755 76.8162 5.00652C77.7154 4.08709 78.7705 3.36075 79.982 2.82748C81.2117 2.27583 82.5515 2 84.0012 2C85.4881 2 86.837 2.28502 88.0484 2.85506C89.2594 3.42511 90.2966 4.17903 91.1592 5.11685C92.0219 6.05466 92.6823 7.1212 93.1411 8.31643C93.6183 9.51171 93.8571 10.7345 93.8571 11.985C93.8571 13.2721 93.6091 14.5133 93.1136 15.7086C92.6182 16.8855 91.9297 17.9336 91.0488 18.853C90.1678 19.754 89.1127 20.4804 87.883 21.0321C86.6716 21.5837 85.341 21.8596 83.8912 21.8596ZM79.459 11.9298C79.459 12.5918 79.5507 13.2353 79.7345 13.8606C79.9178 14.4674 80.1933 15.0098 80.5599 15.4879C80.9271 15.966 81.3859 16.3522 81.9368 16.6464C82.5056 16.9406 83.1753 17.0877 83.9462 17.0877C84.7172 17.0877 85.3873 16.9406 85.9561 16.6464C86.5249 16.3338 86.9837 15.9384 87.3325 15.4603C87.6996 14.9639 87.9655 14.403 88.1309 13.7778C88.3143 13.1526 88.4059 12.5182 88.4059 11.8746C88.4059 11.2126 88.3143 10.5782 88.1309 9.97139C87.9471 9.3462 87.663 8.80375 87.2775 8.34402C86.9104 7.86592 86.4424 7.48898 85.8736 7.21314C85.3226 6.91893 84.6713 6.7718 83.9187 6.7718C83.1478 6.7718 82.4781 6.91893 81.9093 7.21314C81.3584 7.50736 80.8996 7.90268 80.5324 8.39921C80.1658 8.87727 79.8903 9.42893 79.707 10.0542C79.5415 10.661 79.459 11.2862 79.459 11.9298Z" fill="#22C2B5"/>
<path d="M104.418 17.2282C105.042 17.2282 105.574 17.0903 106.015 16.8144C106.455 16.5386 106.813 16.18 107.088 15.7387C107.364 15.279 107.565 14.7549 107.694 14.1665C107.822 13.5781 107.887 12.9621 107.887 12.3185V2.25077H113.255V12.3185C113.255 13.6792 113.081 14.9572 112.732 16.1524C112.383 17.3293 111.842 18.3499 111.108 19.2141C110.374 20.0784 109.447 20.7587 108.327 21.2552C107.226 21.7518 105.923 22 104.418 22C102.858 22 101.518 21.7425 100.399 21.2277C99.2977 20.6944 98.3888 19.9864 97.6733 19.1038C96.9573 18.2211 96.4344 17.2006 96.1039 16.0421C95.7734 14.8653 95.6084 13.6241 95.6084 12.3185V2.25077H100.977V12.3185C100.977 12.9621 101.041 13.5872 101.17 14.1941C101.298 14.7825 101.5 15.3066 101.775 15.7663C102.051 16.2076 102.399 16.5662 102.821 16.842C103.262 17.0994 103.794 17.2282 104.418 17.2282Z" fill="#22C2B5"/>
<path d="M115.257 21.8345V2.25077H124.232C125.187 2.25077 126.067 2.45304 126.875 2.85759C127.682 3.24375 128.371 3.75863 128.939 4.40222C129.527 5.02743 129.986 5.75377 130.316 6.58125C130.646 7.39034 130.811 8.20863 130.811 9.03613C130.811 10.1762 130.564 11.2428 130.068 12.2357C129.573 13.2103 128.884 14.0102 128.004 14.6354L132.133 21.8345H126.077L122.635 15.8215H120.626V21.8345H115.257ZM120.626 11.1324H124.012C124.342 11.1324 124.645 10.9485 124.92 10.5808C125.214 10.213 125.361 9.69812 125.361 9.03613C125.361 8.35576 125.196 7.84085 124.865 7.4915C124.535 7.12372 124.204 6.93983 123.874 6.93983H120.626V11.1324Z" fill="#22C2B5"/>
<path d="M164.255 17.1454V21.8345H150.325V2.25077H164.008V6.93983H155.694V9.69812H162.796V14.0562H155.694V17.1454H164.255Z" fill="#22C2B5"/>
<path d="M145.792 8.56467C145.242 8.2337 144.673 7.93949 144.086 7.68203C143.59 7.46138 143.03 7.25911 142.406 7.07522C141.801 6.87296 141.204 6.7718 140.617 6.7718C140.14 6.7718 139.754 6.84536 139.461 6.99245C139.185 7.13958 139.048 7.38782 139.048 7.73722C139.048 7.99463 139.13 8.20611 139.295 8.37162C139.461 8.53708 139.699 8.69342 140.011 8.84051C140.323 8.96921 140.7 9.09796 141.14 9.22666C141.599 9.35537 142.113 9.51166 142.682 9.69555C143.581 9.97139 144.389 10.2748 145.105 10.6058C145.838 10.9368 146.463 11.3321 146.976 11.7919C147.49 12.2332 147.885 12.7757 148.16 13.4192C148.435 14.0628 148.573 14.8444 148.573 15.7638C148.573 16.9406 148.353 17.9336 147.912 18.7427C147.49 19.5334 146.921 20.1678 146.205 20.6459C145.508 21.124 144.71 21.4734 143.811 21.6941C142.93 21.8963 142.04 21.9974 141.14 21.9974C140.424 21.9974 139.69 21.9423 138.937 21.832C138.185 21.7216 137.433 21.5653 136.68 21.363C135.946 21.1608 135.23 20.9217 134.533 20.6459C133.854 20.3701 133.22 20.0575 132.633 19.7081L134.946 14.9914C135.588 15.396 136.258 15.7545 136.956 16.0672C137.543 16.343 138.204 16.5913 138.937 16.8119C139.69 17.0326 140.452 17.1429 141.223 17.1429C141.81 17.1429 142.214 17.0694 142.434 16.9222C142.673 16.7567 142.792 16.5453 142.792 16.2878C142.792 16.012 142.673 15.7821 142.434 15.5983C142.214 15.396 141.902 15.2213 141.498 15.0742C141.094 14.9271 140.626 14.78 140.094 14.6329C139.58 14.4858 139.03 14.3111 138.442 14.1088C137.579 13.8146 136.836 13.502 136.212 13.171C135.588 12.8216 135.074 12.4355 134.671 12.0125C134.267 11.5712 133.964 11.0747 133.762 10.5231C133.578 9.97139 133.487 9.33699 133.487 8.61986C133.487 7.53495 133.679 6.57873 134.065 5.75124C134.469 4.92377 135.01 4.2342 135.689 3.68255C136.368 3.13089 137.139 2.71715 138.001 2.44132C138.882 2.14711 139.809 2 140.782 2C141.498 2 142.195 2.07355 142.874 2.22066C143.553 2.34938 144.205 2.52407 144.829 2.74473C145.471 2.94701 146.068 3.17686 146.618 3.4343C147.169 3.67335 147.664 3.9032 148.105 4.12387L145.792 8.56467Z" fill="#22C2B5"/>
</svg>
