<svg xmlns="http://www.w3.org/2000/svg" width="112" height="24" viewBox="0 0 112 24" fill="none"><rect width="112" height="24" fill="none"/>
<path d="M49.3738 22V18.9132H56.8034V22H59.209V16.9121H57.8252V4.11791H49.2035L48.9906 10.2063C48.8842 13.7189 48.6074 15.7838 47.9262 16.9121H46.9682V22H49.3738ZM51.2471 10.547L51.3962 6.119H55.2494V16.9121H50.3531C50.8001 15.8903 51.1407 14.0595 51.2471 10.547ZM60.6908 8.20523V18.9132H62.8835L66.8005 12.2926V18.9132H69.2699V8.20523H67.0769L63.1602 14.8259V8.20523H60.6908ZM73.7387 8.20523H71.3971V22H73.9303V17.6572C74.5692 18.6152 75.5059 19.1261 76.5914 19.1261C79.0607 19.1261 80.7641 17.1463 80.7641 13.5486C80.7641 9.97218 79.1037 7.99238 76.7191 7.99238C75.5275 7.99238 74.5477 8.54584 73.8664 9.589L73.7387 8.20523ZM75.9531 17.125C74.6116 17.125 73.9303 16.0393 73.9303 13.5698C73.9303 11.0792 74.6546 9.99343 76.0809 9.99343C77.4642 9.99343 78.1455 11.0792 78.1455 13.5486C78.1455 16.0393 77.4219 17.125 75.9531 17.125ZM90.653 18.1894V16.1244C89.8655 16.6566 88.5454 17.125 87.3107 17.125C85.4587 17.125 84.756 16.2522 84.6497 14.464H90.7593V13.1228C90.7593 9.39741 89.1204 7.99238 86.5871 7.99238C83.5004 7.99238 82.0311 10.3554 82.0311 13.5912C82.0311 17.3166 83.8622 19.1261 87.0982 19.1261C88.7156 19.1261 89.9079 18.7003 90.653 18.1894ZM86.5447 9.99343C87.8003 9.99343 88.1836 11.0366 88.1836 12.3777V12.5906H84.6497C84.7136 10.8876 85.3309 9.99343 86.5447 9.99343ZM98.7366 18.9132H101.611L97.5443 13.1441L101.121 8.20523H98.5665L94.9902 13.1441V8.20523H92.4569V18.9132H94.9902V13.655L98.7366 18.9132ZM110 10.2063V8.20523H101.506V10.2063H104.486V18.9132H107.02V10.2063H110Z" fill="white"/>
<path fill-rule="evenodd" clip-rule="evenodd" d="M11.8393 19.9362C16.3111 19.9362 19.9363 16.3111 19.9363 11.8393C19.9363 7.36751 16.3111 3.74238 11.8393 3.74238C7.36751 3.74238 3.74238 7.36751 3.74238 11.8393C3.74238 16.3111 7.36751 19.9362 11.8393 19.9362ZM11.8393 21.6786C17.2734 21.6786 21.6786 17.2735 21.6786 11.8393C21.6786 6.40522 17.2734 2 11.8393 2C6.40521 2 2 6.40522 2 11.8393C2 17.2735 6.40521 21.6786 11.8393 21.6786Z" fill="white"/>
<path d="M12.9622 7.87262H12.0749C10.554 7.87262 9.79353 8.63311 9.79353 9.77382C9.79353 11.0413 10.3005 11.675 11.4412 12.4355L12.3284 13.0692L9.79353 16.9984H7.76559L10.1737 13.4495C8.77954 12.4355 8.01908 11.5483 8.01908 9.9006C8.01908 7.87262 9.41332 6.47843 12.0749 6.47843H14.7366V16.9984H12.9622V7.87262Z" fill="white"/>
<path d="M42.9969 11.8393C42.9969 15.8763 40.5656 19.3455 37.0874 20.8624C35.8837 21.3874 34.5547 21.6785 33.1577 21.6785C32.6744 21.6785 32.1992 21.6437 31.7345 21.5764C29.6945 21.2808 27.8571 20.3593 26.4234 19.0129C24.5121 17.218 23.3184 14.668 23.3184 11.8393C23.3184 6.40519 27.7236 2 33.1577 2C35.6486 2 37.9233 2.92562 39.6567 4.45167C41.7047 6.25477 42.9969 8.89611 42.9969 11.8393Z" fill="#D9D9D9"/>
<path d="M42.9969 11.8393C42.9969 15.8763 40.5656 19.3455 37.0874 20.8624C35.8837 21.3874 34.5547 21.6785 33.1577 21.6785C32.6744 21.6785 32.1992 21.6437 31.7345 21.5764C29.6945 21.2808 27.8571 20.3593 26.4234 19.0129C24.5121 17.218 23.3184 14.668 23.3184 11.8393C23.3184 6.40519 27.7236 2 33.1577 2C35.6486 2 37.9233 2.92562 39.6567 4.45167C41.7047 6.25477 42.9969 8.89611 42.9969 11.8393Z" fill="url(#paint0_linear_2632_172)"/>
<path fill-rule="evenodd" clip-rule="evenodd" d="M26.4234 19.0129L35.18 10.9766L30.1115 12.2084C28.6938 12.5529 27.28 11.6794 26.9538 10.2573C26.6277 8.83509 27.5126 7.40294 28.9304 7.05839L39.6567 4.45167C41.7047 6.25477 42.9969 8.89611 42.9969 11.8393C42.9969 15.8763 40.5656 19.3455 37.0874 20.8624C37.0831 20.5734 37.1272 20.2782 37.2248 19.9874L38.9007 14.9998L31.7345 21.5764C29.6945 21.2808 27.8571 20.3593 26.4234 19.0129Z" fill="url(#paint1_linear_2632_172)"/>
<defs>
<linearGradient id="paint0_linear_2632_172" x1="110" y1="21.1387" x2="97.9425" y2="-39.2964" gradientUnits="userSpaceOnUse">
<stop offset="0.0101305" stop-color="#3E3BA0"/>
<stop offset="1" stop-color="#498BFF"/>
</linearGradient>
<linearGradient id="paint1_linear_2632_172" x1="76.9558" y1="28.4603" x2="13.9497" y2="35.8712" gradientUnits="userSpaceOnUse">
<stop stop-color="#FFB800"/>
<stop offset="1" stop-color="#FFF11D"/>
</linearGradient>
</defs>
</svg>
