<svg xmlns="http://www.w3.org/2000/svg" width="24" height="24" viewBox="0 0 24 24" fill="none"><rect width="24" height="24" fill="none"/>
<path d="M2 8.05842C2.00405 6.45288 2.64215 4.91425 3.77484 3.77895C4.90752 2.64366 6.44266 2.00406 8.0445 2H22V5.07535H8.0445C7.25689 5.0794 6.50266 5.39515 5.94619 5.95385C5.38973 6.51255 5.07607 7.26901 5.07338 8.05842V13.225C5.0097 13.8865 4.72927 14.5082 4.27598 14.9931C3.82268 15.4781 3.22207 15.799 2.56768 15.9057L2.02048 15.9877L2 8.05842Z" fill="white"/>
<path d="M2 22V18.9247H15.9555C16.7422 18.9206 17.4956 18.6056 18.0519 18.048C18.6083 17.4904 18.9226 16.7352 18.9266 15.9467V11.0415C18.9299 10.3304 19.1852 9.64361 19.647 9.10378C20.1088 8.5639 20.747 8.20615 21.4477 8.09432L21.9949 8.01228V15.9467C21.9922 17.5522 21.3543 19.0911 20.2212 20.2259C19.088 21.3606 17.5522 21.9987 15.9504 22H2Z" fill="white"/>
<path d="M11.8647 10.624C11.8717 10.5763 11.8782 10.5286 11.8859 10.4811C11.9433 10.1225 12.0468 9.78267 12.2463 9.48369C12.3914 9.2664 12.5733 9.09089 12.7826 8.94773C13.0076 8.79313 13.2537 8.69172 13.5096 8.61473C13.7432 8.54414 13.9803 8.48792 14.2198 8.44631C14.3531 8.42332 14.4879 8.4062 14.6214 8.38808C14.7523 8.37023 14.8835 8.35405 15.0146 8.33777C15.1188 8.3248 15.2231 8.31304 15.3274 8.30027C15.4482 8.28541 15.5686 8.26955 15.6897 8.25449C15.7472 8.24763 15.8047 8.24075 15.8621 8.23389C15.8749 8.23233 15.8813 8.2381 15.882 8.25264C15.8832 8.28841 15.8847 8.3248 15.8867 8.36004C15.8928 8.47174 15.8993 8.58338 15.9052 8.69499C15.9076 8.74049 15.9094 8.78592 15.9105 8.83125C15.9127 8.9264 15.9151 9.02162 15.9158 9.11687C15.9178 9.36565 15.9201 9.61457 15.9197 9.86348C15.9197 9.98942 15.9173 10.1158 15.9095 10.2414C15.8987 10.4156 15.8852 10.5898 15.8666 10.7633C15.8427 10.9862 15.8084 11.2073 15.739 11.4203C15.6655 11.6456 15.5637 11.8544 15.4239 12.0402C15.309 12.1927 15.1685 12.3128 15.0105 12.4098C14.7771 12.5517 14.5227 12.6494 14.2585 12.6984C14.1162 12.7258 13.9725 12.7453 13.829 12.765C13.758 12.7746 13.6862 12.7764 13.6148 12.7819C13.6084 12.7821 13.6023 12.7848 13.5976 12.7895C13.6071 12.7932 13.6167 12.7977 13.6263 12.8006C13.7748 12.8436 13.918 12.9058 14.0527 12.9856C14.2543 13.1068 14.4106 13.2782 14.5366 13.4845C14.6354 13.646 14.7165 13.8172 14.7646 14.0033C14.7992 14.1379 14.8246 14.2758 14.8467 14.4135C14.8657 14.529 14.8782 14.6456 14.8842 14.7627C14.8911 14.9003 14.8885 15.0386 14.8872 15.1766C14.8865 15.252 14.882 15.3274 14.8762 15.4025C14.8708 15.4706 14.8619 15.5384 14.8536 15.6062C14.8459 15.6695 14.8369 15.7326 14.8287 15.7958C14.8267 15.8115 14.8234 15.8187 14.8048 15.8164C14.7173 15.8061 14.6293 15.7985 14.5417 15.7888C14.4565 15.7794 14.3716 15.7682 14.2864 15.7589C14.181 15.7475 14.0757 15.74 13.971 15.7267C13.8045 15.7054 13.6377 15.6855 13.4723 15.656C13.3344 15.6315 13.1971 15.6002 13.062 15.5618C12.8347 15.4971 12.6368 15.3721 12.4611 15.204C12.2724 15.0233 12.1443 14.7984 12.0428 14.5532C11.9753 14.3876 11.9187 14.2171 11.8734 14.043C11.8706 14.0327 11.8667 14.0224 11.861 14.0053C11.8551 14.0234 11.8514 14.0342 11.848 14.0454C11.7847 14.2805 11.7068 14.5092 11.6008 14.7265C11.4403 15.0554 11.2076 15.3037 10.897 15.4673C10.7592 15.5395 10.6126 15.5824 10.463 15.6135C10.3273 15.6416 10.1911 15.668 10.0543 15.6897C9.94663 15.7067 9.83784 15.7156 9.72944 15.7278C9.6402 15.7382 9.55094 15.7485 9.46132 15.7578C9.36019 15.7687 9.25909 15.7785 9.15806 15.7896C9.0713 15.799 8.98464 15.809 8.89596 15.8189C8.88716 15.7607 8.87683 15.7049 8.8706 15.6484C8.85815 15.5338 8.8475 15.419 8.83717 15.3041C8.83372 15.2649 8.8323 15.2254 8.83209 15.186C8.83132 15.0762 8.8275 14.9664 8.83278 14.8569C8.83859 14.7333 8.84973 14.6095 8.86465 14.4859C8.87843 14.3715 8.89683 14.2574 8.91962 14.1446C8.9446 14.025 8.98036 13.9083 9.02639 13.7961C9.09795 13.6208 9.19209 13.4572 9.30609 13.3101C9.41018 13.1758 9.53688 13.0639 9.67955 12.9803C9.81105 12.903 9.95066 12.8428 10.0954 12.8011C10.1058 12.798 10.1159 12.7943 10.1262 12.7908L10.1257 12.784C10.0941 12.7815 10.0625 12.7788 10.0308 12.7763C9.70627 12.7507 9.3853 12.7041 9.07648 12.5867C8.86705 12.507 8.67084 12.4012 8.49655 12.2504C8.35071 12.1246 8.23803 11.9693 8.14476 11.797C8.02227 11.5705 7.9393 11.3219 7.89992 11.0633C7.87678 10.9149 7.85765 10.7658 7.84244 10.6162C7.82835 10.4732 7.81994 10.3294 7.81371 10.1859C7.80748 10.0496 7.80692 9.91316 7.80414 9.77689C7.8024 9.69632 7.79965 9.61582 7.79993 9.53532C7.79993 9.40928 7.80212 9.2832 7.80463 9.15716C7.80692 9.03449 7.81047 8.91197 7.8142 8.7893C7.81687 8.70038 7.81983 8.61142 7.82376 8.52247C7.82759 8.4364 7.83336 8.35044 7.83785 8.26478C7.83938 8.23678 7.84418 8.23389 7.86972 8.23695C7.94712 8.24666 8.02456 8.25511 8.10204 8.2644C8.18258 8.27387 8.26311 8.28375 8.34372 8.29345C8.41879 8.30253 8.49387 8.31147 8.56894 8.32087C8.67554 8.33415 8.7821 8.34786 8.88869 8.36105C8.97869 8.37207 9.0689 8.38168 9.15872 8.39385C9.27308 8.40972 9.38739 8.426 9.50115 8.44537C9.71239 8.48194 9.92154 8.5297 10.1286 8.58874C10.3592 8.65428 10.5854 8.73305 10.7964 8.85578C11.1106 9.03832 11.3709 9.28351 11.5568 9.61477C11.6701 9.81679 11.7461 10.0356 11.7954 10.2647C11.819 10.3747 11.8347 10.4865 11.8541 10.5974C11.8557 10.6065 11.8585 10.6152 11.8606 10.624H11.8647Z" fill="white"/>
</svg>
