<svg xmlns="http://www.w3.org/2000/svg" width="24" height="24" viewBox="0 0 24 24" fill="none"><rect width="24" height="24" fill="none"/>
<path fill-rule="evenodd" clip-rule="evenodd" d="M14.1412 10.6114H9.9372C9.79133 10.6379 9.65703 10.7082 9.55222 10.8132C9.44738 10.9181 9.37704 11.0525 9.35057 11.1985V12.6664C9.35086 12.7493 9.36842 12.8314 9.40206 12.9072C9.43574 12.983 9.48479 13.0509 9.54612 13.1067C9.64743 13.2186 9.78697 13.2885 9.9372 13.3025H12.0881V17.2931C12.0846 17.7709 11.91 18.2316 11.5961 18.5916C11.2821 18.9516 10.8497 19.1869 10.3772 19.255H9.9372C9.85429 19.2553 9.77238 19.2729 9.69664 19.3066C9.62091 19.3403 9.55298 19.3894 9.49722 19.4508C9.43692 19.5075 9.38858 19.5756 9.35498 19.6513C9.32141 19.7269 9.3033 19.8084 9.3017 19.8911V21.3639C9.30538 21.5221 9.35645 21.6756 9.44836 21.8043C9.50493 21.8647 9.57301 21.913 9.64859 21.9466C9.72414 21.9802 9.80566 21.9984 9.88831 22H10.0838C11.2542 21.9996 12.3805 21.5532 13.234 20.7517C14.0874 19.9501 14.6041 18.8534 14.679 17.6844C14.7034 17.5881 14.7034 17.4872 14.679 17.3909V11.1985C14.6787 11.1156 14.6611 11.0336 14.6275 10.9578C14.5938 10.882 14.5448 10.814 14.4834 10.7582C14.4437 10.7065 14.3914 10.6658 14.3315 10.6401C14.2716 10.6144 14.2061 10.6045 14.1412 10.6114Z" fill="#1F1F1F"/>
<path fill-rule="evenodd" clip-rule="evenodd" d="M14.4803 9.39399C14.831 2.91113 9.70135 2 9.70135 2C9.96441 9.12065 14.4803 9.39399 14.4803 9.39399Z" fill="#49DA1F"/>
</svg>
