<svg xmlns="http://www.w3.org/2000/svg" width="24" height="24" viewBox="0 0 24 24" fill="none"><rect width="24" height="24" fill="none"/>
<path d="M14.5584 8.32301L11.9795 10.9243L9.39966 8.32301C7.97521 6.88739 7.97521 4.55614 9.39966 3.07583C9.73719 2.73497 10.1389 2.46439 10.5817 2.27974C11.0244 2.09508 11.4993 2 11.979 2C12.4587 2 12.9337 2.09508 13.3764 2.27974C13.8191 2.46439 14.2209 2.73497 14.5584 3.07583C15.9828 4.55614 15.9828 6.88739 14.5584 8.32301Z" fill="white"/>
<path d="M9.39966 15.677L11.9786 13.0767L14.5584 15.677C15.9828 17.1126 15.9828 19.4448 14.5584 20.9242C14.2209 21.265 13.8191 21.5356 13.3764 21.7203C12.9337 21.9049 12.4587 22 11.979 22C11.4993 22 11.0244 21.9049 10.5817 21.7203C10.1389 21.5356 9.73719 21.265 9.39966 20.9242C7.97521 19.4439 7.97521 17.1126 9.39966 15.677Z" fill="white"/>
<path d="M15.6253 14.6464L13.0455 12.0005L15.6244 9.39927C15.9619 9.05827 16.3637 8.78757 16.8065 8.60283C17.2494 8.41809 17.7244 8.32297 18.2042 8.32297C18.684 8.32297 19.1591 8.41809 19.6019 8.60283C20.0447 8.78757 20.4465 9.05827 20.784 9.39927C22.2076 10.8349 22.2076 13.1661 20.784 14.6464C20.4465 14.9873 20.0448 15.2579 19.602 15.4425C19.1593 15.6272 18.6844 15.7223 18.2047 15.7223C17.725 15.7223 17.25 15.6272 16.8073 15.4425C16.3646 15.2579 15.9628 14.9873 15.6253 14.6464Z" fill="white"/>
<path d="M8.37453 9.39918L10.9544 12.0004L8.37546 14.6017C8.03792 14.9427 7.63612 15.2134 7.1933 15.3981C6.75049 15.5829 6.27544 15.678 5.79563 15.678C5.31582 15.678 4.84077 15.5829 4.39796 15.3981C3.95514 15.2134 3.55334 14.9427 3.2158 14.6017C1.79135 13.1661 1.79135 10.8348 3.2158 9.35449C4.59369 7.96449 6.95195 7.96449 8.37453 9.39918Z" fill="white"/>
<path d="M14.5584 8.32301L11.9795 10.9243L9.39966 8.32301C7.97521 6.88739 7.97521 4.55614 9.39966 3.07583C9.73719 2.73497 10.1389 2.46439 10.5817 2.27974C11.0244 2.09508 11.4993 2 11.979 2C12.4587 2 12.9337 2.09508 13.3764 2.27974C13.8191 2.46439 14.2209 2.73497 14.5584 3.07583C15.9828 4.55614 15.9828 6.88739 14.5584 8.32301Z" fill="white"/>
<path d="M9.39966 15.677L11.9786 13.0767L14.5584 15.677C15.9828 17.1126 15.9828 19.4448 14.5584 20.9242C14.2209 21.265 13.8191 21.5356 13.3764 21.7203C12.9337 21.9049 12.4587 22 11.979 22C11.4993 22 11.0244 21.9049 10.5817 21.7203C10.1389 21.5356 9.73719 21.265 9.39966 20.9242C7.97521 19.4439 7.97521 17.1126 9.39966 15.677Z" fill="white"/>
<path d="M15.6253 14.6464L13.0455 12.0005L15.6244 9.39927C15.9619 9.05827 16.3637 8.78757 16.8065 8.60283C17.2494 8.41809 17.7244 8.32297 18.2042 8.32297C18.684 8.32297 19.1591 8.41809 19.6019 8.60283C20.0447 8.78757 20.4465 9.05827 20.784 9.39927C22.2076 10.8349 22.2076 13.1661 20.784 14.6464C20.4465 14.9873 20.0448 15.2579 19.602 15.4425C19.1593 15.6272 18.6844 15.7223 18.2047 15.7223C17.725 15.7223 17.25 15.6272 16.8073 15.4425C16.3646 15.2579 15.9628 14.9873 15.6253 14.6464Z" fill="white"/>
<path d="M8.37453 9.39918L10.9544 12.0004L8.37546 14.6017C8.03792 14.9427 7.63612 15.2134 7.1933 15.3981C6.75049 15.5829 6.27544 15.678 5.79563 15.678C5.31582 15.678 4.84077 15.5829 4.39796 15.3981C3.95514 15.2134 3.55334 14.9427 3.2158 14.6017C1.79135 13.1661 1.79135 10.8348 3.2158 9.35449C4.59369 7.96449 6.95195 7.96449 8.37453 9.39918Z" fill="white"/>
</svg>
