<svg xmlns="http://www.w3.org/2000/svg" width="155" height="24" viewBox="0 0 155 24" fill="none"><rect width="155" height="24" fill="none"/>
<path d="M17.5471 19.1715C18.1533 20.6544 18.9138 21.21 20.2045 21.21V21.8162C18.2822 21.7254 16.398 21.7254 14.5539 21.8162V21.21C15.8318 21.21 16.0895 20.6819 15.4833 19.1715L13.9476 15.3904H7.16053L5.67765 19.1715C5.07139 20.6819 5.3291 21.21 6.60709 21.21V21.8162C5.1242 21.7507 3.58851 21.7507 2 21.8162V21.21C3.30334 21.21 4.10393 20.6544 4.67004 19.1715L10.4622 4.32153H11.5205L17.545 19.1715H17.5471ZM7.47105 14.5518H13.5991L10.4896 6.83526L7.47105 14.5518Z" fill="white"/>
<path d="M29.9446 12.488H29.3384C29.3764 10.7981 28.3582 9.84333 26.512 9.84333C24.9636 9.84333 24.0088 10.5151 24.0088 11.6494C24.0088 12.6169 24.7968 13.4428 26.3832 14.1272C26.4212 14.1399 26.6282 14.2307 27.0274 14.3849C27.4267 14.5518 27.6865 14.668 27.828 14.7335C27.9569 14.7969 28.2019 14.9278 28.5505 15.12C28.899 15.3144 29.1567 15.5066 29.3236 15.6756C29.6341 16.0368 30.1495 16.5522 30.3164 17.2113C30.4072 17.5345 30.4453 17.883 30.4453 18.2569C30.4453 19.4061 30.0059 20.308 29.1292 20.9671C28.2526 21.6388 27.038 21.9726 25.5044 21.9726C24.2137 21.9726 23.2083 21.7529 22.4985 21.3135C22.357 20.4242 22.2915 19.3913 22.2788 18.2168H22.8977C22.8597 18.9519 23.1047 19.611 23.6328 20.1644C24.1609 20.7178 24.9362 21.003 25.9818 21.003C27.6971 21.003 28.8082 20.0989 28.8082 18.7195C28.8082 18.1513 28.6138 17.714 28.2399 17.4035C27.866 17.1057 27.1309 16.7064 26.0346 16.2164C24.8601 15.6735 23.9708 15.12 23.3646 14.5391C22.7583 13.9582 22.4478 13.1978 22.4478 12.2557C22.4478 11.1974 22.847 10.3714 23.635 9.76517C24.4229 9.15892 25.4938 8.86107 26.8352 8.86107C27.752 8.86107 28.7448 9.01528 29.8411 9.33847C29.9446 10.3841 29.9826 11.4297 29.9446 12.4859V12.488Z" fill="white"/>
<path d="M32.4985 21.134C33.9813 21.134 34.5622 20.515 34.5622 18.7723V12.3591C34.5622 11.4825 34.408 10.9523 33.994 10.7474C33.7743 10.6439 33.6075 10.5805 33.4659 10.5657C33.3244 10.5531 33.092 10.5277 32.7688 10.5003V9.894C33.9687 9.90668 35.1812 9.66164 36.4211 9.13355V18.7723C36.4211 20.4876 36.9894 21.134 38.4976 21.134V21.8184C36.4972 21.7529 34.4968 21.7529 32.4985 21.8184V21.134ZM35.3121 6.41281C34.9002 6.41281 34.5644 6.29663 34.3193 6.06426C34.0616 5.84458 33.9328 5.53617 33.9328 5.14749C33.9328 4.33423 34.5263 3.766 35.3143 3.766C36.0494 3.766 36.7338 4.28142 36.7338 5.09468C36.7338 5.49392 36.6049 5.81712 36.3345 6.04948C36.0641 6.29451 35.7156 6.41069 35.3143 6.41069L35.3121 6.41281Z" fill="white"/>
<path d="M51.402 20.3587C50.8338 21.4043 50.0606 21.9197 49.0932 21.9197C48.5904 21.9197 48.1384 21.7529 47.7645 21.417C47.3906 21.0811 47.1582 20.6946 47.0674 20.2552V20.2045C45.726 21.3135 44.4861 21.8691 43.3644 21.8691C42.4751 21.8691 41.6745 21.5733 40.9774 20.9924C40.2803 20.4115 39.9318 19.6511 39.9318 18.6963C39.9318 17.1479 40.9901 16.1149 43.0919 15.5868C43.9052 15.3798 44.7184 15.2383 45.8528 15.1348C46.4083 15.0841 46.7569 15.044 46.8984 15.0313V13.6773C46.8984 12.6971 46.8329 12.0909 46.5752 11.2522C46.3048 10.4136 45.6331 9.92357 44.6001 9.92357C44.1608 9.92357 43.7489 10.0017 43.3623 10.1433C42.9757 10.2975 42.7941 10.4411 42.8067 10.57C42.8067 10.6735 43.5418 10.9692 43.4911 11.8353C43.4911 12.5957 43.1046 12.9971 42.3293 13.0478C41.7611 13.0858 41.3492 12.9189 41.0788 12.5704C40.8084 12.2218 40.6669 11.8353 40.6669 11.4086C40.6669 10.5826 41.1443 9.9637 42.0991 9.54967C43.0412 9.13565 44.0087 8.93075 44.9761 8.93075C46.138 8.93075 47.0928 9.26662 47.8405 9.95103C48.5883 10.6354 48.9622 11.5902 48.9622 12.7901V18.8167C48.9622 20.8931 49.6973 21.3325 51.2077 20.158L51.402 20.365V20.3587ZM46.8984 19.5201V15.7136C44.7184 16.2037 43.6073 16.4614 43.5947 16.474C42.473 16.8606 41.9048 17.545 41.9048 18.5378C41.9048 19.1187 42.1118 19.6215 42.5364 20.0207C42.9609 20.42 43.4911 20.627 44.1502 20.627C45.143 20.627 46.0598 20.2531 46.8984 19.518V19.5201Z" fill="white"/>
<path d="M69.3636 19.1715C69.9699 20.6544 70.7303 21.21 72.021 21.21V21.8162C70.0987 21.7254 68.2145 21.7254 66.3704 21.8162V21.21C67.6484 21.21 67.9061 20.6819 67.2998 19.1715L65.7641 15.3904H58.9771L57.4942 19.1715C56.8879 20.6819 57.1456 21.21 58.4236 21.21V21.8162C56.9407 21.7507 55.405 21.7507 53.8165 21.8162V21.21C55.1199 21.21 55.9205 20.6544 56.4866 19.1715L62.2808 4.32153H63.3391L69.3636 19.1715ZM59.2876 14.5518H65.4156L62.3062 6.83526L59.2876 14.5518Z" fill="white"/>
<path d="M74.1376 21.1339C75.6205 21.1339 76.1888 20.515 76.1888 18.7723V5.22563C76.1888 4.34899 76.0346 3.81879 75.6205 3.61177C75.4008 3.50827 75.234 3.4449 75.0924 3.43222C74.9509 3.41955 74.7185 3.3942 74.3953 3.36674V2.76049C75.6987 2.79851 76.9767 2.5408 78.2019 2.00003V18.7744C78.2019 20.4897 78.7574 21.136 80.2656 21.136V21.8205C78.2272 21.7296 76.1888 21.7296 74.1376 21.8205V21.1339Z" fill="white"/>
<path d="M83.0645 21.1339C84.5474 21.1339 85.1156 20.515 85.1156 18.7723V5.22563C85.1156 4.34899 84.9614 3.81879 84.5474 3.61177C84.3277 3.50827 84.1608 3.4449 84.0193 3.43222C83.8778 3.41955 83.6454 3.3942 83.3222 3.36674V2.76049C84.6255 2.79851 85.9035 2.5408 87.1287 2.00003V18.7744C87.1287 20.4897 87.6843 21.136 89.1925 21.136V21.8205C87.1541 21.7296 85.1156 21.7296 83.0645 21.8205V21.1339Z" fill="white"/>
<path d="M91.3745 21.134C92.8574 21.134 93.4383 20.515 93.4383 18.7723V12.3591C93.4383 11.4825 93.2841 10.9523 92.8701 10.7474C92.6504 10.6439 92.4835 10.5805 92.342 10.5657C92.2005 10.5531 91.9681 10.5277 91.6449 10.5003V9.894C92.8448 9.90668 94.0573 9.66164 95.2972 9.13355V18.7723C95.2972 20.4876 95.8655 21.134 97.3737 21.134V21.8184C95.3733 21.7529 93.3728 21.7529 91.3745 21.8184V21.134ZM94.1882 6.41281C93.7763 6.41281 93.4404 6.29663 93.1954 6.06426C92.9377 5.84458 92.8088 5.53617 92.8088 5.14749C92.8088 4.33423 93.4024 3.766 94.1903 3.766C94.9255 3.766 95.6099 4.28142 95.6099 5.09468C95.6099 5.49392 95.481 5.81712 95.2106 6.04948C94.9402 6.29451 94.5917 6.41069 94.1903 6.41069L94.1882 6.41281Z" fill="white"/>
<path d="M110.276 20.3587C109.708 21.4043 108.935 21.9197 107.967 21.9197C107.464 21.9197 107.012 21.7529 106.639 21.417C106.265 21.0811 106.032 20.6946 105.941 20.2552V20.2045C104.6 21.3135 103.36 21.8691 102.238 21.8691C101.349 21.8691 100.549 21.5733 99.8514 20.9924C99.1544 20.4115 98.8058 19.6511 98.8058 18.6963C98.8058 17.1479 99.8641 16.1149 101.966 15.5868C102.779 15.3798 103.592 15.2383 104.727 15.1348C105.282 15.0841 105.631 15.044 105.772 15.0313V13.6773C105.772 12.6971 105.707 12.0909 105.449 11.2522C105.179 10.4136 104.507 9.92357 103.474 9.92357C103.035 9.92357 102.623 10.0017 102.236 10.1433C101.85 10.2975 101.668 10.4411 101.681 10.57C101.681 10.6735 102.416 10.9692 102.365 11.8353C102.365 12.5957 101.979 12.9971 101.203 13.0478C100.635 13.0858 100.223 12.9189 99.9528 12.5704C99.6825 12.2218 99.5409 11.8353 99.5409 11.4086C99.5409 10.5826 100.018 9.9637 100.973 9.54967C101.915 9.13565 102.883 8.93075 103.85 8.93075C105.012 8.93075 105.967 9.26662 106.715 9.95103C107.462 10.6354 107.836 11.5902 107.836 12.7901V18.8167C107.836 20.8931 108.571 21.3325 110.082 20.158L110.276 20.365V20.3587ZM105.772 19.5201V15.7136C103.592 16.2037 102.481 16.4614 102.469 16.474C101.347 16.8606 100.779 17.545 100.779 18.5378C100.779 19.1187 100.986 19.6215 101.41 20.0207C101.835 20.42 102.365 20.627 103.024 20.627C104.017 20.627 104.934 20.2531 105.772 19.518V19.5201Z" fill="white"/>
<path d="M123.512 18.7723C123.512 20.4875 124.08 21.1339 125.589 21.1339V21.8183C123.601 21.7529 121.603 21.7529 119.59 21.8183V21.1339C121.072 21.1339 121.653 20.515 121.653 18.7723V14.2053C121.653 13.935 121.641 13.5864 121.603 13.147C121.565 12.7077 121.525 12.3866 121.461 12.1796C121.396 11.9852 121.307 11.7402 121.178 11.4698C120.779 10.7094 120.12 10.5023 118.933 10.4242C117.243 10.4242 115.927 11.1086 114.997 12.488V18.7723C114.997 20.4875 115.578 21.1339 117.089 21.1339V21.8183C115.101 21.7529 113.102 21.7529 111.089 21.8183V21.1339C112.572 21.1339 113.153 20.515 113.153 18.7723V12.3591C113.153 11.4825 112.986 10.9523 112.572 10.7474C112.353 10.6439 112.186 10.5805 112.044 10.5657C111.903 10.553 111.67 10.5277 111.347 10.5002V9.89398C112.547 9.90666 113.759 9.66162 114.999 9.13353V11.4825C116.457 9.79259 118.147 8.9413 120.044 8.95398C121.385 8.88849 122.198 9.39335 122.741 9.93412C123.102 10.27 123.269 10.9797 123.386 11.417C123.451 11.6367 123.489 11.9451 123.514 12.3211C123.527 12.695 123.54 13.0055 123.54 13.2252C123.54 13.4576 123.54 13.7808 123.527 14.1927C123.514 14.6046 123.514 14.9151 123.514 15.1094V18.7744L123.512 18.7723Z" fill="white"/>
<path d="M139.176 19.5476C137.963 21.1868 136.22 22 133.962 22C131.974 22 130.323 21.4445 129.007 20.3355C127.678 19.2265 127.019 17.6908 127.019 15.7411C127.019 13.6899 127.729 12.0254 129.148 10.7474C130.568 9.46942 132.245 8.83782 134.18 8.83782C135.819 8.83782 137.34 9.24973 138.774 10.0883C138.928 11.2882 138.981 12.6697 138.928 14.2307H138.322C138.322 12.6443 137.923 11.4952 137.135 10.7601C136.347 10.025 135.316 9.66375 134.051 9.66375C132.465 9.66375 131.277 10.1665 130.489 11.1741C129.689 12.1944 129.29 13.4956 129.29 15.0841C129.29 16.7613 129.729 18.1154 130.593 19.161C131.457 20.2066 132.748 20.7347 134.49 20.7347C136.233 20.7347 137.587 20.1538 138.696 18.992L139.173 19.5476H139.176Z" fill="white"/>
<path d="M152.697 18.8631C152.245 19.8053 151.535 20.5404 150.568 21.0959C149.6 21.6515 148.516 21.9219 147.342 21.9219C145.574 21.9219 144.142 21.3283 143.033 20.1285C141.924 18.9286 141.368 17.4183 141.368 15.5868C141.368 13.7554 141.949 12.1416 143.111 10.8509C144.273 9.57291 145.743 8.92863 147.524 8.92863C148.865 8.92863 149.976 9.30253 150.84 10.0651C151.704 10.8277 152.194 11.8458 152.285 13.1492L143.434 15.1623C143.472 16.6451 143.886 17.8978 144.699 18.9159C145.513 19.9362 146.634 20.4516 148.079 20.4516C148.892 20.4516 149.693 20.2848 150.491 19.9616C151.279 19.6384 151.873 19.1483 152.26 18.4914L152.699 18.8653L152.697 18.8631ZM144.594 11.1593C143.909 12.1268 143.523 13.1851 143.432 14.3067L150.194 12.8091C150.052 11.9705 149.729 11.2353 149.214 10.6291C148.698 10.0228 148.026 9.71233 147.2 9.71233C146.142 9.71233 145.278 10.1897 144.594 11.1572V11.1593Z" fill="white"/>
</svg>
