<svg xmlns="http://www.w3.org/2000/svg" width="104" height="24" viewBox="0 0 104 24" fill="none"><rect width="104" height="24" fill="none"/>
<path d="M6.27221 4.43975L12.0374 21.3339H2V18.8941H8.31645L2.59719 2H22.3275V21.3339H19.6401V4.43975H6.27221Z" fill="white"/>
<path d="M42.769 17.1666C42.4933 17.9491 42.0799 18.6626 41.5516 19.2611C41.0233 19.8595 40.3803 20.3659 39.6452 20.7802C38.9102 21.1945 38.0604 21.4937 37.1416 21.7008C36.2229 21.908 35.2582 22 34.2476 22C32.9153 22 31.721 21.839 30.6415 21.5167C29.5619 21.1945 28.6202 20.6881 27.8392 20.0436C27.0583 19.3992 26.4611 18.5475 26.0247 17.5348C25.5883 16.5221 25.3586 15.3253 25.3586 13.9673C25.3586 12.6093 25.5883 11.4125 26.0247 10.3997C26.4841 9.38701 27.1043 8.53539 27.9081 7.86792C28.712 7.20043 29.6538 6.69407 30.7562 6.34883C31.8588 6.00358 33.0532 5.84247 34.3624 5.84247C35.8783 5.84247 37.1876 6.04961 38.3131 6.48693C39.4385 6.92424 40.3803 7.52267 41.0923 8.30523C41.8273 9.08778 42.3326 10.0315 42.6542 11.1363C42.9758 12.241 43.0446 13.4609 42.9069 14.8189H28.023C28.2297 16.4991 28.8728 17.742 29.9294 18.5475C31.0089 19.3532 32.433 19.7675 34.2476 19.7675C35.5797 19.7675 36.7282 19.5603 37.7388 19.146C38.7495 18.7317 39.4844 18.0872 39.9668 17.1896L42.769 17.1666ZM34.4083 8.09808C32.7087 8.09808 31.3075 8.46635 30.1821 9.17986C29.0566 9.91638 28.3675 11.0212 28.0919 12.5403H40.3343C40.3114 11.8498 40.1506 11.2053 39.829 10.6529C39.5074 10.1005 39.071 9.64019 38.5427 9.24891C38.0144 8.85763 37.3942 8.58143 36.6593 8.37428C35.9472 8.21316 35.2123 8.09808 34.4083 8.09808Z" fill="white"/>
<path d="M54.0011 9.04247V21.3333H51.4057V9.04247H44.492V6.6948H60.8688V9.04247H54.0011Z" fill="white"/>
<path d="M76.6715 8.67421L67.415 21.3333H63.2347V6.6948H65.8072V19.2387L75.0637 6.6948H79.244V21.3333H76.6715V8.67421Z" fill="white"/>
<path d="M97.3431 6.6948L92.5196 16.6839L87.6962 6.6948H83.1023V21.3333H102.029V6.6948H97.3431ZM85.6519 8.60517L90.5902 18.7785H85.6519V8.60517ZM94.449 18.7554L99.4333 8.44404V18.7554H94.449Z" fill="white"/>
</svg>
