<svg xmlns="http://www.w3.org/2000/svg" width="54" height="24" viewBox="0 0 54 24" fill="none"><rect width="54" height="24" fill="none"/>
<path d="M41.581 9.53219C37.0528 9.53219 34.1941 11.8772 34.1941 15.7689C34.1941 19.655 37.0528 22 41.581 22C46.1035 22 48.9678 19.655 48.9678 15.7689C48.9734 11.8772 46.1035 9.53219 41.581 9.53219ZM41.581 18.5829C40.3526 18.5829 40.3247 16.9917 40.3247 15.7689C40.3247 14.5405 40.3526 12.9437 41.581 12.9437C42.8093 12.9437 42.8261 14.535 42.8261 15.7689C42.8317 16.9917 42.8149 18.5829 41.581 18.5829Z" fill="#000000"/>
<path d="M2.47459 21.7264H7.25401C7.51643 21.7264 7.7286 21.5142 7.7286 21.2518V10.2804C7.7286 10.018 7.51643 9.80578 7.25401 9.80578H2.47459C2.21217 9.80578 2 10.018 2 10.2804V21.2462C2 21.5087 2.21217 21.7264 2.47459 21.7264Z" fill="#000000"/>
<path d="M2.47459 8.56068H7.25401C7.51643 8.56068 7.7286 8.3485 7.7286 8.08608V5.05428C7.7286 4.79186 7.51643 4.57969 7.25401 4.57969H2.47459C2.21217 4.57969 2 4.79186 2 5.05428V8.08608C2 8.3485 2.21217 8.56068 2.47459 8.56068Z" fill="#000000"/>
<path d="M10.4812 21.7264H15.2607C15.5231 21.7264 15.7352 21.5142 15.7352 21.2518V10.2804C15.7352 10.018 15.5231 9.80578 15.2607 9.80578H10.4812C10.2188 9.80578 10.0066 10.018 10.0066 10.2804V21.2462C10.0066 21.5087 10.2188 21.7264 10.4812 21.7264Z" fill="#000000"/>
<path d="M10.4812 8.56068H15.2607C15.5231 8.56068 15.7352 8.3485 15.7352 8.08608V5.05428C15.7352 4.79186 15.5231 4.57969 15.2607 4.57969H10.4812C10.2188 4.57969 10.0066 4.79186 10.0066 5.05428V8.08608C10.0066 8.3485 10.2188 8.56068 10.4812 8.56068Z" fill="#000000"/>
<path d="M29.7329 14.7974L32.9713 10.5707C33.2114 10.258 32.9881 9.80578 32.5916 9.80578H27.332C27.1757 9.80578 27.0305 9.88395 26.9412 10.0124L23.8368 14.5405H23.7419V5.05428C23.7419 4.79186 23.5297 4.57969 23.2673 4.57969H18.4935C18.231 4.57969 18.0189 4.79186 18.0189 5.05428V21.2462C18.0189 21.5087 18.231 21.7208 18.4935 21.7208H23.2673C23.5297 21.7208 23.7419 21.5087 23.7419 21.2462V15.9476H23.8368L26.9021 21.4807C26.9859 21.6315 27.1478 21.7264 27.3209 21.7264H32.8596C33.2337 21.7264 33.4627 21.3132 33.2617 20.995L29.7106 15.3445C29.6045 15.1715 29.6157 14.9593 29.7329 14.7974Z" fill="#000000"/>
<path fill-rule="evenodd" clip-rule="evenodd" d="M39.9283 9.03527L40.2354 9.32002C40.4308 9.49869 40.7323 9.49869 40.9221 9.30886C41.1064 9.1246 41.2906 8.93476 41.447 8.72818C41.6089 8.52717 41.7206 8.27592 41.7931 8.03583C41.8546 7.85716 41.8434 7.64499 41.8266 7.46074C41.8099 7.29882 41.7373 7.11457 41.6591 6.97498C41.4916 6.65672 41.218 6.36638 40.95 6.11513C40.5759 5.76896 40.1963 5.49537 39.9953 4.99844C39.9339 4.85886 39.8892 4.66902 39.8892 4.51827C39.8836 4.3396 39.9227 4.17768 39.9897 4.01018C40.1293 3.65284 40.3582 3.38483 40.6206 3.15033C40.8384 2.95491 40.8384 2.6199 40.6262 2.4189L40.3303 2.13973C40.146 1.96664 39.8557 1.96106 39.6658 2.12298C39.543 2.22906 39.4258 2.33515 39.3141 2.45798C38.9568 2.85999 38.672 3.43508 38.7725 3.99343C38.8339 4.34518 38.9735 4.68577 39.1968 4.97611C39.4313 5.29437 39.7608 5.52329 40.0511 5.79688C40.3861 6.11513 40.7435 6.53947 40.7155 7.02523C40.6988 7.24857 40.6206 7.4384 40.4922 7.62824C40.3247 7.88508 40.1237 8.10283 39.9171 8.30942C39.7161 8.51601 39.7217 8.83985 39.9283 9.03527Z" fill="#000000"/>
<path fill-rule="evenodd" clip-rule="evenodd" d="M41.3185 9.03527L41.6312 9.32002C41.8266 9.49869 42.1281 9.49311 42.318 9.30327C42.5022 9.11902 42.6865 8.92918 42.8484 8.72818C42.9992 8.52717 43.122 8.27592 43.1946 8.03583C43.2448 7.85716 43.2448 7.64499 43.2281 7.46074C43.2113 7.29882 43.1387 7.11457 43.0606 6.97498C42.8931 6.65672 42.6083 6.36638 42.3515 6.11513C41.9718 5.76896 41.5977 5.49537 41.3855 4.99844C41.3297 4.85886 41.2906 4.66902 41.2795 4.51827C41.2739 4.3396 41.3074 4.17768 41.38 4.01018C41.5307 3.65284 41.7541 3.38483 42.0221 3.14474C42.2398 2.94932 42.2398 2.61432 42.0276 2.41331L41.7317 2.13414C41.5475 1.96106 41.2627 1.95547 41.0673 2.11739C40.9389 2.22348 40.8216 2.33515 40.7099 2.45798C40.347 2.85441 40.0734 3.4295 40.1628 3.98784C40.2242 4.3396 40.3749 4.68019 40.5871 4.97053C40.8328 5.29437 41.151 5.52329 41.4414 5.79687C41.7764 6.11513 42.1337 6.53947 42.1058 7.02523C42.0946 7.24857 42.0109 7.4384 41.8936 7.62824C41.7205 7.88508 41.5195 8.10283 41.3074 8.30942C41.1064 8.51042 41.112 8.83985 41.3185 9.03527Z" fill="#000000"/>
<path fill-rule="evenodd" clip-rule="evenodd" d="M42.7144 9.03527L43.0215 9.32002C43.2169 9.49869 43.524 9.49311 43.7138 9.30886C43.8981 9.1246 44.0823 8.93476 44.2387 8.73376C44.4006 8.53276 44.5123 8.2815 44.5849 8.04142C44.6463 7.86275 44.6407 7.65058 44.6184 7.46632C44.6016 7.3044 44.529 7.12015 44.4509 6.98056C44.2833 6.66231 44.0098 6.37197 43.7418 6.12071C43.3677 5.77454 42.988 5.50095 42.787 5.00403C42.7256 4.85886 42.6809 4.6746 42.6809 4.52385C42.6697 4.3396 42.7088 4.17768 42.7758 4.01018C42.9154 3.65284 43.1443 3.38483 43.4067 3.15033C43.6245 2.95491 43.6245 2.6199 43.4123 2.4189L43.1164 2.13973C42.9322 1.96664 42.6418 1.96106 42.452 2.12298C42.3291 2.22906 42.2119 2.33515 42.1002 2.45798C41.7373 2.85441 41.4525 3.4295 41.5531 3.98784C41.6145 4.3396 41.754 4.68019 41.9774 4.97053C42.2231 5.29437 42.5469 5.52329 42.8372 5.79688C43.1722 6.11513 43.5296 6.53947 43.5017 7.02523C43.4849 7.24857 43.4067 7.4384 43.2783 7.62824C43.1108 7.88508 42.9154 8.10283 42.7032 8.30942C42.5022 8.51601 42.5078 8.83985 42.7144 9.03527Z" fill="#000000"/>
<path d="M51.6147 9.5C51.5366 9.72892 51.464 9.95226 51.3858 10.1868C51.3077 10.4157 51.2351 10.6446 51.1569 10.8735L50.7102 9.5H50.3306V11.2699H50.593V9.94109L51.0396 11.2699H51.2797C51.3579 11.0522 51.4305 10.8344 51.5031 10.6055C51.5812 10.3822 51.6538 10.1644 51.732 9.94109V11.2699H52V9.5H51.6147Z" fill="#000000"/>
<path d="M48.689 9.75125H49.2529V11.2644H49.5321V9.75125H50.1016V9.5H48.689V9.75125Z" fill="#000000"/>
</svg>
