<svg xmlns="http://www.w3.org/2000/svg" width="24" height="24" viewBox="0 0 24 24" fill="none"><rect width="24" height="24" fill="none"/>
<path d="M18.8043 14.2952H11.6615V4.20947H18.1663C20.266 4.20947 21.4053 5.51787 21.4053 7.06602C21.4053 7.76111 21.0549 8.47106 20.5178 9.00817C21.3096 9.42634 21.9884 10.3681 21.9884 11.3504C21.9884 13.0783 20.6396 14.2947 18.8043 14.2947V14.2952ZM14.1543 12.2662H18.4646C19.0687 12.2662 19.4664 11.8197 19.4664 11.2705V11.2542C19.4664 10.705 19.0687 10.2585 18.4646 10.2585H14.1543V12.2662ZM14.1543 8.22992H17.842C18.4948 8.22992 18.8833 7.78341 18.8833 7.23422C18.8833 6.68502 18.519 6.23851 17.842 6.23851H14.1543V8.22992Z" fill="#2DBE64"/>
<path d="M7.2782 14.2952H2V4.20947H6.6398C8.73946 4.20947 9.87874 5.51787 9.87874 7.06602C9.87874 7.76111 9.5284 8.47106 8.99129 9.00817C9.78302 9.42634 10.4618 10.3681 10.4618 11.3504C10.4618 13.0783 9.11302 14.2947 7.27774 14.2947L7.2782 14.2952ZM4.49274 12.2662H6.93855C7.54257 12.2662 7.9403 11.8197 7.9403 11.2705V11.2542C7.9403 10.705 7.54257 10.2585 6.93855 10.2585H4.49274V12.2662ZM4.49274 8.22992H6.31595C6.96876 8.22992 7.35719 7.78341 7.35719 7.23422C7.35719 6.68502 6.99292 6.23851 6.31595 6.23851H4.49274V8.22992Z" fill="#2DBE64"/>
<path d="M3.20386 17.1587H4.01928C4.42398 17.1587 4.75851 17.2781 5.02242 17.5174C5.28633 17.7567 5.41828 18.0647 5.41828 18.4425C5.41828 18.8202 5.28633 19.1241 5.02242 19.3648C4.75851 19.6059 4.42398 19.7263 4.01928 19.7263H2.35962V15.6203H5.06609V16.4181H3.20386V17.1587ZM4.44163 18.8184C4.54943 18.7296 4.60379 18.6047 4.60379 18.4425C4.60379 18.2803 4.54989 18.1544 4.44163 18.0638C4.33384 17.9732 4.18887 17.9277 4.00813 17.9277H3.20432V18.9513H4.00813C4.18934 18.9513 4.33384 18.9071 4.44163 18.8184Z" fill="#2DBE64"/>
<path d="M6.62679 19.7263H5.91544V16.8349H6.70763V18.541L8.00302 16.8349H8.70833V19.7263H7.92171V18.0201L6.62632 19.7263H6.62679Z" fill="#2DBE64"/>
<path d="M10.5157 19.7899C10.1919 19.7899 9.9029 19.7091 9.64828 19.5469C9.39366 19.3848 9.23755 19.1422 9.17993 18.8184H9.99536C10.0609 19.0344 10.2323 19.1422 10.5102 19.1422C10.8071 19.1343 10.9553 19.0247 10.9553 18.8123C10.9553 18.7199 10.9228 18.6465 10.8568 18.5926C10.7913 18.5387 10.6969 18.5117 10.5734 18.5117H10.2207V17.9681H10.5446C10.6486 17.9681 10.7304 17.9439 10.7903 17.8961C10.8503 17.8478 10.88 17.7776 10.88 17.6851C10.88 17.5927 10.847 17.5253 10.7815 17.4714C10.716 17.4175 10.6217 17.3906 10.4981 17.3906C10.263 17.3906 10.1106 17.4886 10.0414 17.6851H9.24916C9.31467 17.3692 9.46522 17.1378 9.70032 16.9915C9.93542 16.8451 10.2091 16.7717 10.5213 16.7717C10.8837 16.7717 11.1602 16.8595 11.3511 17.0347C11.5421 17.2103 11.6374 17.4078 11.6374 17.6275C11.6374 17.878 11.5468 18.0708 11.3656 18.206C11.6239 18.3486 11.7531 18.5721 11.7531 18.8769C11.7531 19.1195 11.6453 19.3327 11.4292 19.5158C11.2132 19.6989 10.9088 19.7904 10.5153 19.7904L10.5157 19.7899Z" fill="#2DBE64"/>
<path d="M12.305 19.7263V16.8349H13.0972V17.9277H14.2885V16.8349H15.0807V19.7263H14.2885V18.6158H13.0972V19.7263H12.305Z" fill="#2DBE64"/>
<path d="M17.1256 19.7899C16.6823 19.7899 16.319 19.6473 16.0355 19.362C15.7521 19.0767 15.6104 18.7143 15.6104 18.2748C15.6104 17.8352 15.754 17.4844 16.0411 17.1991C16.3283 16.9139 16.6916 16.7712 17.1311 16.7712C17.5707 16.7712 17.9424 16.9227 18.2356 17.2252C18.5283 17.5276 18.6635 17.9412 18.6403 18.4657H16.3849C16.4003 18.6469 16.4756 18.7984 16.6108 18.9197C16.7455 19.0409 16.9309 19.1018 17.166 19.1018C17.3086 19.1018 17.435 19.0739 17.5447 19.0177C17.6548 18.962 17.7328 18.8839 17.7788 18.7835H18.6059C18.5209 19.0804 18.3434 19.3225 18.0739 19.5093C17.8039 19.6965 17.488 19.7899 17.1256 19.7899ZM17.1079 17.4129C16.9267 17.4129 16.7752 17.4603 16.654 17.5546C16.5327 17.6489 16.4528 17.779 16.4142 17.9449H17.7733C17.731 17.7637 17.6469 17.6299 17.5219 17.543C17.3964 17.4561 17.2589 17.4129 17.1084 17.4129H17.1079Z" fill="#2DBE64"/>
<path d="M20.5192 19.7899C20.0834 19.7899 19.721 19.6445 19.432 19.3532C19.143 19.0623 18.998 18.7045 18.998 18.2803C18.998 17.8561 19.1425 17.4988 19.432 17.2075C19.721 16.9166 20.0834 16.7708 20.5192 16.7708C20.9044 16.7708 21.2278 16.8785 21.488 17.0946C21.7482 17.3107 21.9187 17.5918 22 17.9388H21.179C21.0517 17.6382 20.8319 17.4877 20.5197 17.4877C20.3078 17.4877 20.134 17.5602 19.9993 17.7047C19.8641 17.8492 19.7967 18.0411 19.7967 18.2799C19.7967 18.5187 19.8641 18.7106 19.9993 18.8551C20.134 18.9996 20.3078 19.0721 20.5197 19.0721C20.8319 19.0721 21.0517 18.9215 21.179 18.6209H22C21.9192 18.968 21.7486 19.2491 21.488 19.4651C21.2278 19.6812 20.9049 19.789 20.5192 19.789V19.7899Z" fill="#2DBE64"/>
</svg>
