<svg xmlns="http://www.w3.org/2000/svg" width="36" height="24" viewBox="0 0 36 24" fill="none"><rect width="36" height="24" fill="none"/>
<path d="M33.1695 18.1972V17.875H33.3V17.8083H32.9695V17.875H33.1V18.1972H33.1695ZM33.8111 18.1972V17.8083H33.7111L33.5945 18.075L33.4778 17.8083H33.375V18.1972H33.4472V17.9056L33.5556 18.1583H33.6306L33.7389 17.9056V18.2H33.8111V18.1972ZM17.0584 20.1278C17.1361 20.1944 17.2195 20.2611 17.3 20.3278C15.7139 21.3833 13.8111 22 11.7639 22C6.24169 22 1.76392 17.5222 1.76392 12C1.76392 6.47778 6.24169 2 11.7639 2C13.8111 2 15.7139 2.61667 17.3 3.67222C17.2195 3.73889 17.1361 3.80278 17.0584 3.87222C14.7028 5.92222 13.35 8.88333 13.35 12C13.35 15.1167 14.7028 18.0778 17.0584 20.1278ZM24.125 2C22.0778 2 20.175 2.61667 18.5889 3.67222C18.6695 3.73889 18.7528 3.80278 18.8306 3.87222C21.1861 5.92222 22.5361 8.88333 22.5361 12C22.5361 15.1167 21.1861 18.0778 18.8306 20.1278C18.7528 20.1944 18.6695 20.2611 18.5889 20.3278C20.175 21.3833 22.0778 22 24.125 22C29.6472 22 34.125 17.5222 34.125 12C34.125 6.47778 29.6472 2 24.125 2ZM17.9445 4.14167C17.8167 4.24444 17.6889 4.34722 17.5667 4.45556C15.4584 6.28889 14.125 8.98889 14.125 12C14.125 15.0111 15.4584 17.7111 17.5667 19.5444C17.6889 19.6528 17.8167 19.7556 17.9445 19.8583C18.0722 19.7556 18.2 19.6528 18.3222 19.5444C20.4306 17.7111 21.7639 15.0111 21.7639 12C21.7639 8.98889 20.4306 6.28889 18.3222 4.45556C18.2 4.34722 18.0722 4.24444 17.9445 4.14167Z" fill="#000000"/>
</svg>
