<svg xmlns="http://www.w3.org/2000/svg" width="24" height="24" viewBox="0 0 24 24" fill="none"><rect width="24" height="24" fill="none"/>
<path fill-rule="evenodd" clip-rule="evenodd" d="M8.15389 15.2923C8.15429 15.2931 8.15463 15.294 8.15513 15.2947C8.15668 15.2971 8.15857 15.2993 8.16013 15.3017C8.97923 16.5513 10.3922 17.3767 11.9979 17.3767H11.9997C13.6071 17.3761 15.0211 16.5485 15.8393 15.2962C15.8404 15.2946 15.8415 15.2929 15.8426 15.2913H15.8376C15.0204 16.5439 13.6067 17.3719 11.9997 17.3726H11.9979C10.3913 17.3726 8.9779 16.5456 8.16013 15.294C8.15953 15.2931 8.15894 15.2922 8.15834 15.2913L8.15389 15.2923Z" fill="#222222"/>
<path d="M11.9979 17.3726H11.9997V16.9186C10.5518 16.9186 9.2777 16.1733 8.54046 15.0433L8.16013 15.2915V15.294C8.9779 16.5456 10.3913 17.3726 11.9979 17.3726Z" fill="#222222"/>
<path d="M7.77627 15.5419C8.67482 16.9192 10.2306 17.8311 11.9997 17.8311V17.3767H11.9979C10.3922 17.3767 8.97923 16.5513 8.16013 15.3017V15.7498H8.15513V15.2947L7.77627 15.5419Z" fill="#222222"/>
<path d="M8.15513 15.2915V14.8331C7.98695 14.8331 7.83232 14.9252 7.75216 15.0731C7.67206 15.221 7.67929 15.4008 7.77112 15.5417L8.15389 15.2923L8.15513 15.2915Z" fill="#222222"/>
<path d="M8.54398 15.041C8.45935 14.9113 8.31497 14.8331 8.16013 14.8331V15.2882L8.53914 15.0413C8.53958 15.042 8.54002 15.0426 8.54046 15.0433L8.54398 15.041Z" fill="#222222"/>
<path d="M15.8376 15.2913L15.8393 15.2915L15.459 15.0433C14.7217 16.1733 13.4476 16.9186 11.9997 16.9186V17.3726C13.6067 17.3719 15.0204 16.5439 15.8376 15.2913Z" fill="#222222"/>
<path d="M15.8443 15.7498H15.8393V15.2962C15.0211 16.5485 13.6071 17.3761 11.9997 17.3767V17.8311C13.7688 17.8311 15.3247 16.9192 16.2232 15.5419L15.8443 15.2947V15.7498Z" fill="#222222"/>
<path d="M15.8443 15.2915L16.2284 15.5417C16.3201 15.4008 16.3274 15.221 16.2473 15.0731C16.1672 14.9252 16.0125 14.8331 15.8443 14.8331V15.2915Z" fill="#222222"/>
<path d="M15.8393 14.8331C15.6845 14.8331 15.5401 14.9113 15.4555 15.041L15.459 15.0433C15.4595 15.0426 15.4599 15.042 15.4603 15.0413L15.8393 15.2882V14.8331Z" fill="#222222"/>
<path d="M9.08333 7.58337C9.08333 7.00808 8.61696 6.54171 8.04167 6.54171C7.82506 6.54171 7.6239 6.60782 7.45726 6.72096C8.12346 6.97196 8.65308 7.50158 8.90408 8.16778C9.01722 8.00114 9.08333 7.79998 9.08333 7.58337Z" fill="#222222"/>
<path d="M7 7.58337C7 8.15867 7.46637 8.62504 8.04167 8.62504C8.40036 8.62504 8.71671 8.44374 8.90408 8.16778C8.65308 7.50158 8.12346 6.97196 7.45726 6.72096C7.1813 6.90833 7 7.22468 7 7.58337Z" fill="#222222"/>
<path d="M4.10417 9.04171C4.10417 7.6725 5.21413 6.56254 6.58333 6.56254L6.61776 6.56277C7.12813 6.33321 7.68398 6.18677 8.26805 6.1407C7.77298 5.85257 7.19743 5.68754 6.58333 5.68754C4.73088 5.68754 3.22917 7.18925 3.22917 9.04171C3.22917 9.6558 3.3942 10.2314 3.68232 10.7264C3.7284 10.1423 3.87484 9.5865 4.1044 9.07613L4.10417 9.04171Z" fill="#222222"/>
<path d="M9.0625 9.04171C9.0625 10.4109 7.95254 11.5209 6.58333 11.5209C5.22562 11.5209 4.12282 10.4295 4.1044 9.07613C3.87484 9.5865 3.7284 10.1423 3.68232 10.7264C4.26335 11.7248 5.34497 12.3959 6.58333 12.3959C8.43579 12.3959 9.9375 10.8942 9.9375 9.04171C9.9375 7.80335 9.2664 6.72173 8.26805 6.1407C7.68398 6.18677 7.12813 6.33321 6.61776 6.56277C6.91292 6.56679 7.19562 6.62239 7.45726 6.72096C7.6239 6.60782 7.82506 6.54171 8.04167 6.54171C8.61696 6.54171 9.08333 7.00808 9.08333 7.58337C9.08333 7.79998 9.01722 8.00114 8.90408 8.16778C9.00648 8.43957 9.0625 8.7341 9.0625 9.04171Z" fill="#222222"/>
<path d="M17.4167 11.5209C16.0475 11.5209 14.9375 10.4109 14.9375 9.04171C14.9375 7.68399 16.0289 6.58119 17.3822 6.56277C16.8719 6.33321 16.316 6.18677 15.7319 6.1407C14.7336 6.72173 14.0625 7.80335 14.0625 9.04171C14.0625 10.8942 15.5642 12.3959 17.4167 12.3959C18.655 12.3959 19.7366 11.7248 20.3177 10.7264C20.2716 10.1423 20.1252 9.5865 19.8956 9.07613C19.8772 10.4295 18.7744 11.5209 17.4167 11.5209Z" fill="#222222"/>
<path d="M20.7708 9.04171C20.7708 7.18925 19.2691 5.68754 17.4167 5.68754C16.8026 5.68754 16.227 5.85257 15.7319 6.1407C16.316 6.18677 16.8719 6.33321 17.3822 6.56277L17.4167 6.56254C17.7243 6.56254 18.0188 6.61856 18.2906 6.72097C18.4572 6.60782 18.6584 6.54171 18.875 6.54171C19.4503 6.54171 19.9167 7.00808 19.9167 7.58337C19.9167 7.79998 19.8506 8.00113 19.7374 8.16778C19.8398 8.43957 19.8958 8.7341 19.8958 9.04171L19.8956 9.07613C20.1252 9.5865 20.2716 10.1423 20.3177 10.7264C20.6058 10.2313 20.7708 9.6558 20.7708 9.04171Z" fill="#222222"/>
<path d="M17.8333 7.58337C17.8333 8.15867 18.2997 8.62504 18.875 8.62504C19.1207 8.62504 19.3465 8.53997 19.5247 8.39768C19.144 7.81382 18.6446 7.31442 18.0607 6.93371C17.9184 7.11183 17.8333 7.33767 17.8333 7.58337Z" fill="#222222"/>
<path fill-rule="evenodd" clip-rule="evenodd" d="M11.1667 9.04171C11.1667 11.573 9.11464 13.625 6.58333 13.625C5.48652 13.625 4.47969 13.2398 3.69079 12.5972C4.01704 16.9011 7.61254 20.2917 12 20.2917C16.3875 20.2917 19.983 16.9011 20.3092 12.5972C19.5203 13.2398 18.5135 13.625 17.4167 13.625C14.8854 13.625 12.8333 11.573 12.8333 9.04171C12.8333 7.93368 13.2265 6.91749 13.881 6.12504H10.119C10.7735 6.91749 11.1667 7.93368 11.1667 9.04171ZM7.75216 15.0731C7.83232 14.9252 7.98695 14.8331 8.15513 14.8331H8.16013C8.31497 14.8331 8.45935 14.9113 8.54398 15.041C9.28049 16.1699 10.5533 16.9144 11.9997 16.9144C13.4462 16.9144 14.719 16.1699 15.4555 15.041C15.5401 14.9113 15.6845 14.8331 15.8393 14.8331H15.8443C16.0125 14.8331 16.1672 14.9252 16.2473 15.0731C16.3274 15.221 16.3201 15.4008 16.2284 15.5417C15.3293 16.9215 13.7713 17.8352 11.9997 17.8352C10.2281 17.8352 8.67018 16.9215 7.77112 15.5417C7.67929 15.4008 7.67206 15.221 7.75216 15.0731Z" fill="white"/>
<path d="M14.9375 9.04171C14.9375 10.4109 16.0475 11.5209 17.4167 11.5209C18.7744 11.5209 19.8772 10.4295 19.8956 9.07613C19.7892 8.83964 19.665 8.61292 19.5247 8.39768C19.3465 8.53997 19.1207 8.62504 18.875 8.62504C18.2997 8.62504 17.8333 8.15867 17.8333 7.58337C17.8333 7.33767 17.9184 7.11183 18.0607 6.93371C17.8455 6.79336 17.6187 6.66915 17.3822 6.56277C16.0289 6.58119 14.9375 7.68399 14.9375 9.04171Z" fill="white"/>
<path d="M6.58333 11.5209C7.95254 11.5209 9.0625 10.4109 9.0625 9.04171C9.0625 8.7341 9.00648 8.43957 8.90408 8.16778C8.71671 8.44374 8.40036 8.62504 8.04167 8.62504C7.46637 8.62504 7 8.15867 7 7.58337C7 7.22468 7.1813 6.90833 7.45726 6.72096C7.19562 6.62239 6.91292 6.56679 6.61776 6.56277C5.50331 7.06405 4.60568 7.96168 4.1044 9.07613C4.12282 10.4295 5.22562 11.5209 6.58333 11.5209Z" fill="white"/>
<path d="M6.58333 6.56254C5.21413 6.56254 4.10417 7.6725 4.10417 9.04171L4.1044 9.07613C4.60568 7.96168 5.50331 7.06405 6.61776 6.56277L6.58333 6.56254Z" fill="white"/>
<path d="M20.3333 11.125V11.9584C20.3333 12.1733 20.3252 12.3863 20.3092 12.5972C21.341 11.7568 22 10.4762 22 9.04171C22 6.5104 19.948 4.45837 17.4167 4.45837C15.9934 4.45837 14.7216 5.10712 13.881 6.12504H15.3333C15.4675 6.12504 15.6004 6.13033 15.7319 6.1407C16.227 5.85257 16.8026 5.68754 17.4167 5.68754C19.2691 5.68754 20.7708 7.18925 20.7708 9.04171C20.7708 9.6558 20.6058 10.2313 20.3177 10.7264C20.328 10.8579 20.3333 10.9909 20.3333 11.125Z" fill="white"/>
<path d="M20.3333 11.9584V11.125C20.3333 10.9909 20.328 10.8579 20.3177 10.7264C19.7366 11.7248 18.655 12.3959 17.4167 12.3959C15.5642 12.3959 14.0625 10.8942 14.0625 9.04171C14.0625 7.80335 14.7336 6.72173 15.7319 6.1407C15.6004 6.13033 15.4675 6.12504 15.3333 6.12504H13.881C13.2265 6.91749 12.8333 7.93368 12.8333 9.04171C12.8333 11.573 14.8854 13.625 17.4167 13.625C18.5135 13.625 19.5203 13.2398 20.3092 12.5972C20.3252 12.3863 20.3333 12.1733 20.3333 11.9584Z" fill="white"/>
<path d="M3.66667 11.9584V11.125C3.66667 10.9909 3.67195 10.8579 3.68232 10.7264C3.3942 10.2314 3.22917 9.6558 3.22917 9.04171C3.22917 7.18925 4.73088 5.68754 6.58333 5.68754C7.19743 5.68754 7.77298 5.85257 8.26805 6.1407C8.39956 6.13033 8.5325 6.12504 8.66667 6.12504H10.119C9.27837 5.10712 8.00661 4.45837 6.58333 4.45837C4.05203 4.45837 2 6.5104 2 9.04171C2 10.4762 2.65901 11.7568 3.69079 12.5972C3.6748 12.3863 3.66667 12.1733 3.66667 11.9584Z" fill="white"/>
<path d="M3.66667 11.125V11.9584C3.66667 12.1733 3.6748 12.3863 3.69079 12.5972C4.47969 13.2398 5.48652 13.625 6.58333 13.625C9.11464 13.625 11.1667 11.573 11.1667 9.04171C11.1667 7.93368 10.7735 6.91749 10.119 6.12504H8.66667C8.5325 6.12504 8.39956 6.13033 8.26805 6.1407C9.2664 6.72173 9.9375 7.80335 9.9375 9.04171C9.9375 10.8942 8.43579 12.3959 6.58333 12.3959C5.34497 12.3959 4.26335 11.7248 3.68232 10.7264C3.67195 10.8579 3.66667 10.9909 3.66667 11.125Z" fill="white"/>
<path d="M17.4167 6.56254L17.3822 6.56277C17.6187 6.66915 17.8455 6.79336 18.0607 6.93371C18.1261 6.85181 18.2037 6.77999 18.2906 6.72097C18.0188 6.61856 17.7243 6.56254 17.4167 6.56254Z" fill="white"/>
<path fill-rule="evenodd" clip-rule="evenodd" d="M8.16013 15.3017C8.97923 16.5513 10.3922 17.3767 11.9979 17.3767H11.9997C13.6071 17.3761 15.0211 16.5485 15.8393 15.2962V15.7498H15.8443V15.2947L16.2232 15.5419C15.3247 16.9192 13.7688 17.8311 11.9997 17.8311C10.2306 17.8311 8.67482 16.9192 7.77627 15.5419L8.15513 15.2947V15.7498H8.16013V15.3017ZM11.9979 17.3726H11.9997C13.6067 17.3719 15.0204 16.5439 15.8376 15.2913L15.8393 15.2915L15.459 15.0433C15.4595 15.0426 15.4599 15.042 15.4603 15.0413L15.8393 15.2882V14.8331H15.8443V15.2915L16.2284 15.5417C15.3293 16.9215 13.7713 17.8352 11.9997 17.8352C10.2281 17.8352 8.67018 16.9215 7.77112 15.5417L8.15389 15.2923L8.15513 15.2915V14.8331H8.16013V15.2882L8.53914 15.0413C8.53958 15.042 8.54002 15.0426 8.54046 15.0433L8.16013 15.2915V15.294C8.9779 16.5456 10.3913 17.3726 11.9979 17.3726ZM11.9997 16.9186C10.5518 16.9186 9.2777 16.1733 8.54046 15.0433L8.54398 15.041C9.28049 16.1699 10.5533 16.9144 11.9997 16.9144C13.4462 16.9144 14.719 16.1699 15.4555 15.041L15.459 15.0433C14.7217 16.1733 13.4476 16.9186 11.9997 16.9186ZM19.5247 8.39768C19.6066 8.33224 19.6784 8.2547 19.7374 8.16778C19.8506 8.00113 19.9167 7.79998 19.9167 7.58337C19.9167 7.00808 19.4503 6.54171 18.875 6.54171C18.6584 6.54171 18.4572 6.60782 18.2906 6.72097C18.2037 6.77999 18.1261 6.85181 18.0607 6.93371C18.6446 7.31442 19.144 7.81382 19.5247 8.39768Z" fill="#222222"/>
<path d="M19.8956 9.07613L19.8958 9.04171C19.8958 8.7341 19.8398 8.43957 19.7374 8.16778C19.6784 8.2547 19.6066 8.33224 19.5247 8.39768C19.665 8.61292 19.7892 8.83964 19.8956 9.07613Z" fill="white"/>
</svg>
