<svg xmlns="http://www.w3.org/2000/svg" width="24" height="24" viewBox="0 0 24 24" fill="none"><rect width="24" height="24" fill="none"/>
<path d="M9.50238 13.6116V13.1983H6.99963V11.3587H11.8794V13.5468C11.8794 16.9909 10.2254 18.992 7.0977 18.992C3.87205 18.992 1.99872 16.464 1.99872 12.0071C1.99872 7.66091 4.04326 5 7.79403 5C9.2108 5 10.4332 5.37341 11.101 5.85946V7.75315C10.1415 7.16183 9.0368 6.84482 7.90817 6.83691C5.44839 6.83691 4.4052 8.49822 4.4052 12.0071C4.4052 15.4104 5.26914 17.1515 7.14231 17.1515C8.93168 17.1603 9.50238 15.7829 9.50238 13.6116Z" fill="black"/>
<path fill-rule="evenodd" clip-rule="evenodd" d="M21.9987 13.8707C21.9987 17.1773 20.2067 19 17.63 19C15.0533 19 13.2613 17.1773 13.2613 13.8955C13.2613 10.5889 15.0533 8.76617 17.63 8.76617C20.2067 8.76617 21.9987 10.5809 21.9987 13.8707ZM17.6326 10.6058C18.9272 10.6058 19.579 11.6018 19.579 13.8707C19.579 16.1564 18.9282 17.1614 17.6326 17.1614C16.3372 17.1614 15.6855 16.1644 15.6855 13.8955C15.6855 11.6018 16.3381 10.6058 17.6326 10.6058Z" fill="black"/>
<path fill-rule="evenodd" clip-rule="evenodd" d="M9.50238 13.6116V13.1983H6.99963V11.3587H11.8794V13.5468C11.8794 16.9909 10.2254 18.992 7.0977 18.992C3.87205 18.992 1.99872 16.464 1.99872 12.0071C1.99872 7.66091 4.04326 5 7.79403 5C9.2108 5 10.4332 5.37341 11.101 5.85946V7.75315C10.1415 7.16183 9.0368 6.84482 7.90817 6.83691C5.44839 6.83691 4.4052 8.49822 4.4052 12.0071C4.4052 15.4104 5.26914 17.1515 7.14231 17.1515C8.93168 17.1603 9.50238 15.7829 9.50238 13.6116ZM21.9987 13.8707C21.9987 17.1773 20.2067 19 17.63 19C15.0533 19 13.2613 17.1773 13.2613 13.8955C13.2613 10.5889 15.0533 8.76617 17.63 8.76617C20.2067 8.76617 21.9987 10.5809 21.9987 13.8707ZM17.6326 10.6058C18.9272 10.6058 19.579 11.6018 19.579 13.8707C19.579 16.1564 18.9282 17.1614 17.6326 17.1614C16.3372 17.1614 15.6855 16.1644 15.6855 13.8955C15.6855 11.6018 16.3381 10.6058 17.6326 10.6058Z" fill="black"/>
</svg>
