<svg xmlns="http://www.w3.org/2000/svg" width="24" height="24" viewBox="0 0 24 24" fill="none"><rect width="24" height="24" fill="none"/>
<path d="M2.26292 18.3414L3.16124 18.183L3.02791 17.4269L5.45478 16.999L5.58686 17.748L6.47791 17.5909L6.21624 16.1069L5.74537 16.1899L5.22452 13.2361L2.29778 13.7521L2.53911 15.502C2.60436 15.9569 2.57499 16.3409 2.40569 16.7788L2 16.8504L2.26292 18.3414ZM3.39916 15.4232L3.246 14.3427L4.45579 14.1294L4.84581 16.3413L3.31724 16.6108C3.44105 16.2538 3.45694 15.8357 3.39916 15.4232ZM8.03534 12.7405L6.20252 13.0636L6.8542 16.7595L7.74525 16.6024L7.50725 15.2527L8.44903 15.0866C9.275 14.941 9.71228 14.4558 9.57396 13.6714C9.43441 12.8799 8.88294 12.591 8.03534 12.7405ZM7.22191 13.6344L8.14195 13.4722C8.43898 13.4198 8.64149 13.5517 8.69009 13.8273C8.73868 14.1029 8.59598 14.3102 8.29895 14.3625L7.37891 14.5248L7.22191 13.6344ZM18.1848 10.9508L18.8364 14.6467L20.7996 14.3006C21.524 14.1728 22.1192 13.8201 21.9796 13.0287C21.9098 12.6329 21.6657 12.3918 21.3268 12.2913C21.5661 12.0815 21.6696 11.7791 21.606 11.4187C21.4665 10.6272 20.8011 10.4968 20.0695 10.6258L18.186 10.9579L18.1848 10.9508ZM19.1945 11.5087L20.2086 11.3299C20.5275 11.2737 20.7032 11.3811 20.7493 11.6426C20.7979 11.9182 20.6658 12.0581 20.3469 12.1143L19.3328 12.2931L19.1945 11.5087ZM19.4562 12.9927L20.5499 12.7999C20.8543 12.7462 21.0288 12.8466 21.0749 13.1081C21.121 13.3695 20.9997 13.5294 20.6882 13.5843L19.5945 13.7771L19.4562 12.9927ZM13.5872 10.8871L13.7065 11.5219L16.8623 10.6521L16.8037 10.32L13.5872 10.8871ZM10.4984 12.3061L9.92572 16.2179L10.8966 16.0467L10.9658 15.4225L12.1684 15.2104L12.4615 15.7708L13.4466 15.5971L11.5634 12.1184L10.4984 12.3061ZM11.8214 14.5138L11.0244 14.6543L11.1454 13.0519L11.167 13.0481L11.8214 14.5138ZM14.1858 11.656L13.2513 11.8207L13.903 15.5166L14.9316 15.3352L16.6804 12.3746L16.7021 12.3708L17.1411 14.9456L18.0759 14.7808L17.4242 11.0849L16.3954 11.2664L14.6465 14.227L14.6249 14.2308L14.1858 11.656Z" fill="#32D264"/>
<path d="M11.9948 7.54138L12.5182 10.5094L13.3948 10.3548L12.8714 7.38681L13.8856 7.20798L13.7573 6.48011L10.8523 6.99234L10.9806 7.72021L11.9948 7.54138ZM8.15014 7.4688L7.30977 7.61698L7.96145 11.3129L8.94669 11.1391L9.75887 8.41654L9.78061 8.41271L10.1638 10.9245L11.0113 10.7751L10.3597 7.0792L9.36718 7.2542L8.55376 9.96973L8.53201 9.97356L8.15014 7.4688ZM15.1772 6.22974L14.2427 6.39453L14.8943 10.0904L15.9231 9.90901L17.6718 6.94842L17.6935 6.94458L18.1326 9.51941L19.0671 9.35463L18.4154 5.65875L17.3867 5.84014L15.638 8.80075L15.6163 8.80458L15.1772 6.22974ZM7.28987 10.4695L6.34001 10.2508C6.15072 10.7869 5.72023 10.9721 5.17691 11.0679C4.27861 11.2263 3.75368 10.9181 3.62534 10.1902L3.61662 10.1408C3.48827 9.41292 3.87613 8.94378 4.77444 8.78538C5.31776 8.68958 5.78438 8.70931 6.14687 9.15544L6.96465 8.62507C6.39619 7.85822 5.52719 7.84386 4.63613 8.00098C3.20174 8.2539 2.43053 9.1331 2.63114 10.2708L2.65606 10.4122C2.85793 11.557 3.88208 12.1123 5.31647 11.8594C6.20028 11.7035 7.01797 11.3845 7.28987 10.4695Z" fill="#5F00A5"/>
</svg>
