<svg xmlns="http://www.w3.org/2000/svg" width="24" height="24" viewBox="0 0 24 24" fill="none"><rect width="24" height="24" fill="none"/>
<path d="M17.3415 4.21654L18.863 4.01865C18.8905 4.59773 19.634 4.61064 19.6605 4.01865L21.2038 4.21654C21.097 4.52204 20.8681 4.77209 20.6751 4.96713C20.4813 5.16223 20.2627 5.30344 20.0209 5.39275C19.7796 5.47993 19.5308 5.52507 19.2732 5.52507C18.8799 5.52507 18.5095 5.41837 18.1632 5.20401C17.8178 4.99067 17.492 4.66188 17.3415 4.21654Z" fill="#009933"/>
<path d="M19.8026 5.81692L18.6286 8.7526V5.81692H17.1662V11.285H18.7428L19.9163 8.35376V11.285H21.3786V5.81692H19.8026Z" fill="#009933"/>
<path d="M10.1877 15.8727C10.1877 16.9612 10.43 17.9685 11.2515 17.9685C12.0733 17.9685 12.3153 16.9612 12.3153 15.8727C12.3153 14.7278 12.0733 13.7629 11.2515 13.7629C10.43 13.7629 10.1877 14.7278 10.1877 15.8727ZM8.15322 15.8727C8.15322 13.6454 9.21847 12.2833 11.2599 12.2833C13.3014 12.2833 14.366 13.6454 14.366 15.8727C14.366 18.0797 13.2837 19.4638 11.2599 19.4638C9.23611 19.4638 8.15322 18.0797 8.15322 15.8727ZM14.5333 19.3383L15.1966 12.3972H17.4378L18.3041 15.9754L19.1966 12.3972H21.3786L22 19.3383H20.2011L19.9669 15.9552L19.0204 19.3383H17.4298L16.5798 15.9552L16.4031 19.3383H14.5333ZM4.35995 17.8735L5.09509 15.007L5.80248 17.8735H4.35995ZM6.03656 12.2012H4.2316L2.47295 17.8667H2V19.9815H3.86357V19.3272H6.27496V19.9815H8.19572V17.8667H7.76685L6.03656 12.2012Z" fill="#009933"/>
<path d="M8.95141 7.89881H9.40509C9.59566 7.89881 9.6926 7.85769 9.76356 7.77493C9.83447 7.69269 9.87005 7.59727 9.87005 7.48849C9.87005 7.35973 9.82995 7.25512 9.75004 7.1743C9.67145 7.09342 9.57888 7.05327 9.40509 7.05327H8.95141V7.89881ZM8.96269 10.0672H9.41881C9.67979 10.0672 9.9067 9.91442 9.9067 9.58544C9.9067 9.25645 9.68899 9.07477 9.41881 9.07477H8.96269V10.0672ZM7.48886 5.82678H9.84276C10.7973 5.84935 11.3389 6.19857 11.3722 7.17008C11.3923 7.74632 11.1646 8.19608 10.6734 8.38691V8.40287C11.3255 8.57021 11.5681 9.08463 11.5681 9.70362C11.5681 10.2441 11.2609 10.8128 10.8012 11.0843C10.5615 11.226 10.331 11.285 9.97578 11.285H7.48886V5.82678Z" fill="#009933"/>
<path d="M4.23982 11.285V7.04927H2.97384V5.83056H7.13697L6.96831 7.04927H5.71091V11.285H4.23982Z" fill="#009933"/>
<path d="M13.4925 8.56105C13.4925 7.65985 13.6832 6.8998 14.3301 6.8998C14.9765 6.8998 15.1673 7.65985 15.1673 8.56105C15.1673 9.41763 14.9765 10.211 14.3301 10.211C13.6832 10.211 13.4925 9.41763 13.4925 8.56105ZM11.8905 8.56105C11.8905 10.2991 12.7432 11.3879 14.3363 11.3879C15.9295 11.3879 16.7818 10.2991 16.7818 8.56105C16.7818 6.80769 15.9437 5.73563 14.3363 5.73563C12.7293 5.73563 11.8905 6.80769 11.8905 8.56105Z" fill="#009933"/>
</svg>
