<svg xmlns="http://www.w3.org/2000/svg" width="24" height="24" viewBox="0 0 24 24" fill="none"><rect width="24" height="24" fill="none"/>
<path fill-rule="evenodd" clip-rule="evenodd" d="M12.1634 10.2436H11.3677L10.6658 13.7597H11.4615L12.1634 10.2436Z" fill="#0097A9"/>
<path fill-rule="evenodd" clip-rule="evenodd" d="M3.49788 10.2436H2.69892L2.00024 13.7597H2.79596L3.49788 10.2436Z" fill="#0097A9"/>
<path fill-rule="evenodd" clip-rule="evenodd" d="M11.109 10.2436H10.3132L8.82854 12.6826L8.36275 10.2436H7.56704L8.23984 13.7597H8.97086L11.109 10.2436Z" fill="#0097A9"/>
<path fill-rule="evenodd" clip-rule="evenodd" d="M15.1393 10.2436H12.5419L12.4028 10.9811H13.3085L12.7554 13.7597H13.5511L14.1042 10.9811H15.0034L15.1393 10.2436Z" fill="#0097A9"/>
<path fill-rule="evenodd" clip-rule="evenodd" d="M6.57401 10.2436L6.11145 12.5693L4.892 10.2436H4.20626L3.50435 13.7597H4.27095L4.73674 11.4275L5.95296 13.7597H6.64193L7.34385 10.2436H6.57401Z" fill="#0097A9"/>
<path fill-rule="evenodd" clip-rule="evenodd" d="M17.0348 10.2436H15.576L14.8741 13.7597H15.6698L16.2229 10.9844H16.9119C17.0704 10.9844 17.1998 11.0361 17.2871 11.1235C17.3615 11.2011 17.4003 11.3143 17.3906 11.434C17.3582 11.7866 17.0801 11.9483 16.7178 11.9483H16.1356L16.8828 13.7597H17.6785L17.1803 12.5564C17.7852 12.4594 18.1604 12.0162 18.1895 11.4146C18.2251 10.7321 17.7238 10.2436 17.0348 10.2436Z" fill="#0097A9"/>
<path d="M18.3416 12.0001C18.3998 11.007 19.2182 10.1919 20.2791 10.1919C21.3401 10.1919 22.0549 10.9973 21.9967 12.0001C21.9385 12.9931 21.1201 13.8082 20.0592 13.8082C18.9982 13.8082 18.2834 13.006 18.3416 12.0001ZM21.2527 12.0001C21.2883 11.4016 20.8678 10.9003 20.2274 10.9003C19.5901 10.9003 19.1179 11.3887 19.0791 12.0001C19.0435 12.5985 19.464 13.0998 20.1044 13.0998C20.7449 13.0998 21.2172 12.6114 21.2527 12.0001Z" fill="#0097A9"/>
</svg>
