<svg xmlns="http://www.w3.org/2000/svg" width="24" height="24" viewBox="0 0 24 24" fill="none"><rect width="24" height="24" fill="none"/>
<path d="M18.1905 1.99976H5.80952C3.70558 1.99976 2 3.70534 2 5.80928V18.1902C2 20.2942 3.70558 21.9998 5.80952 21.9998H18.1905C20.2944 21.9998 22 20.2942 22 18.1902V5.80928C22 3.70534 20.2944 1.99976 18.1905 1.99976Z" fill="white"/>
<path d="M13.7929 11.8835C14.5645 11.111 15.8163 11.1105 16.5885 11.8826L19.1615 14.4556L19.1991 14.4972C19.3745 14.7123 19.3619 15.0294 19.1615 15.2298C18.9476 15.4437 18.6008 15.4437 18.387 15.2298L15.8142 12.6571C15.47 12.3129 14.9119 12.3131 14.5679 12.6575L9.51233 17.7198C9.29861 17.9339 8.95182 17.934 8.73782 17.7203C8.52387 17.5066 8.52351 17.16 8.73712 16.946L13.7929 11.8835Z" fill="#222222"/>
<path d="M14.9634 6.27943C15.1771 6.06543 15.5239 6.06504 15.7379 6.27873C15.9519 6.49243 15.9521 6.83923 15.7384 7.05324L10.6828 12.1158C9.91121 12.8884 8.65916 12.8888 7.88705 12.1167L5.31427 9.54371C5.10041 9.32985 5.10041 8.98306 5.31427 8.7692C5.5281 8.55547 5.87471 8.55547 6.08854 8.7692L8.66155 11.3422L8.69434 11.3734C9.0403 11.686 9.57457 11.6754 9.90783 11.3417L14.9634 6.27943Z" fill="#222222"/>
</svg>
