<svg xmlns="http://www.w3.org/2000/svg" width="94" height="24" viewBox="0 0 94 24" fill="none"><rect width="94" height="24" fill="none"/>
<path fill-rule="evenodd" clip-rule="evenodd" d="M19.3019 19.2224C19.9733 19.4625 20.6903 19.5822 21.4564 19.5822C22.2257 19.5822 22.937 19.4625 23.5917 19.2224C24.2415 18.9817 24.8333 18.6066 25.3282 18.1215C25.8184 17.6413 26.2014 17.0472 26.4806 16.3435C26.7598 15.6231 26.8993 14.7889 26.8993 13.8409V13.4188C26.8993 12.5265 26.7598 11.7446 26.4806 11.0658C26.2014 10.3745 25.8184 9.79377 25.3282 9.32932C24.8356 8.8463 24.2427 8.47754 23.5917 8.24919C22.9068 8.00381 22.1838 7.88172 21.4564 7.8886C20.6903 7.8886 19.9733 8.00907 19.3019 8.24919C18.6455 8.48931 18.0747 8.84908 17.5845 9.32932C17.0976 9.79377 16.7146 10.3745 16.4354 11.0658C16.1563 11.7446 16.0167 12.5265 16.0167 13.4188V13.8409C16.0167 14.7881 16.1563 15.619 16.4354 16.3435C16.7146 17.0472 17.0976 17.6413 17.5845 18.1215C18.0751 18.6028 18.6598 18.9776 19.3019 19.2224ZM22.6088 17.3364C22.2416 17.48 21.8506 17.5528 21.4564 17.5507C21.0542 17.5507 20.6612 17.4793 20.2848 17.3364C19.9141 17.1907 19.5789 16.9672 19.3019 16.6808C19.0228 16.3859 18.7918 16.0028 18.6106 15.5384C18.4445 15.0714 18.3606 14.5064 18.3606 13.8409V13.4188C18.3606 12.8123 18.4445 12.2889 18.6098 11.8518C18.7926 11.4131 19.0228 11.0534 19.3019 10.7709C19.5936 10.4884 19.9217 10.2773 20.2848 10.1344C20.6596 9.99451 21.0564 9.92303 21.4564 9.92338C21.8626 9.92338 22.2457 9.99484 22.6088 10.1344C22.9851 10.2773 23.3133 10.4884 23.5925 10.7709C23.8841 11.0534 24.1151 11.4131 24.2838 11.851C24.4624 12.2897 24.5563 12.8123 24.5563 13.4188V13.8409C24.5563 14.5056 24.4624 15.0706 24.2838 15.5384C24.1151 16.0028 23.885 16.3859 23.5925 16.6808C23.3133 16.9758 22.986 17.1959 22.6088 17.3364ZM4.59562 8.12207H2V19.352H4.3015V11.6175L7.23195 17.0181H8.90698L11.8341 11.6175V19.3487H14.1389V8.12207H11.6688L8.13344 14.6892L4.59562 8.12207ZM45.3146 17.3588H44.0584V22H46.1937V19.3487H53.8543V22H55.9863V17.3588H54.5223V8.12207H46.256V11.2993C46.256 11.9357 46.2369 12.5722 46.1945 13.2078C46.1521 13.8276 46.0865 14.415 46.0059 14.9642C45.9335 15.451 45.8283 15.9323 45.691 16.405C45.578 16.8304 45.4542 17.1444 45.3146 17.3588ZM52.2216 10.112V17.3588H47.6585C47.9501 16.6808 48.1612 15.8466 48.2841 14.8604C48.4113 13.8575 48.4727 12.8081 48.4727 11.7247V10.112H52.2216ZM62.2726 19.5822C61.5607 19.5879 60.8529 19.4739 60.1788 19.2449C59.5349 19.0113 58.9446 18.6505 58.4431 18.1838C57.9562 17.7036 57.5632 17.1029 57.2716 16.3825C56.9758 15.6613 56.8304 14.8147 56.8304 13.8409V13.4155C56.8304 12.4849 56.97 11.6732 57.2483 10.9786C57.5275 10.2873 57.9047 9.71567 58.3783 9.26451C58.8567 8.80385 59.4273 8.44987 60.0525 8.22593C60.6971 7.99584 61.3771 7.88054 62.0615 7.88527C63.7499 7.88527 65.041 8.3464 65.9334 9.26451C66.839 10.1834 67.2935 11.4945 67.2935 13.2045V14.3901H59.1734C59.1867 14.9717 59.2773 15.4644 59.446 15.8732C59.6279 16.2695 59.8581 16.5944 60.1373 16.8503C60.4297 17.0913 60.7571 17.2657 61.121 17.3796C61.4934 17.4919 61.8803 17.5488 62.2693 17.5482C63.0644 17.5482 63.646 17.4219 64.0091 17.1685C64.3855 16.9118 64.6422 16.5811 64.7818 16.1715H67.0833C66.8623 17.2848 66.3106 18.1357 65.4307 18.7139C64.5674 19.2947 63.5147 19.5822 62.2726 19.5822ZM62.1687 9.92338C61.7875 9.9222 61.4079 9.97137 61.0396 10.0696C60.6889 10.1702 60.3749 10.3322 60.0982 10.5565C59.8323 10.7709 59.6146 11.0534 59.4493 11.4065C59.2806 11.7446 59.1892 12.1601 59.1768 12.6561H64.9928C64.9795 12.1335 64.8956 11.6956 64.7427 11.3417C64.6031 10.9877 64.4087 10.7061 64.1586 10.4942C63.8973 10.2768 63.588 10.1248 63.2563 10.0505C62.9004 9.96343 62.5351 9.92073 62.1687 9.92338ZM68.3911 19.5631C68.5306 19.5755 68.6569 19.5822 68.7674 19.5822C69.3382 19.5822 69.8418 19.4717 70.2763 19.2449C70.7083 19.0039 71.0714 18.5959 71.3639 18.0152C71.6555 17.4369 71.8732 16.6584 72.0128 15.6846C72.1657 14.6942 72.243 13.4454 72.243 11.9324V10.112H76.0924V19.3487H78.3938V8.12207H70.0229V11.5103C70.0229 12.6569 69.9872 13.6008 69.919 14.3502C69.8484 15.1005 69.7445 15.7004 69.605 16.1515C69.4778 16.5902 69.3125 16.9018 69.1015 17.0829C68.8879 17.2529 68.6215 17.3425 68.3487 17.3364C68.2431 17.3388 68.1375 17.3324 68.033 17.3172V19.5207C68.1476 19.5465 68.2648 19.5631 68.3911 19.5631ZM85.7154 19.5822C84.9816 19.5883 84.2523 19.4665 83.5602 19.2224C82.9179 18.9783 82.3334 18.6034 81.8436 18.1215C81.3567 17.6413 80.9737 17.0472 80.6945 16.3435C80.4153 15.6231 80.2757 14.7889 80.2757 13.8409V13.4188C80.2757 12.5265 80.4153 11.7446 80.6945 11.0658C80.9737 10.3745 81.3567 9.79377 81.8436 9.32932C82.331 8.8495 82.9167 8.48101 83.5602 8.24919C84.2522 8.00482 84.9815 7.8828 85.7154 7.8886C86.4815 7.8886 87.1952 8.00907 87.8507 8.24919C88.5196 8.48931 89.097 8.84908 89.5872 9.32932C90.0741 9.79377 90.4572 10.3745 90.7363 11.0658C91.0155 11.7446 91.1551 12.5265 91.1551 13.4188V13.8409C91.1551 14.7881 91.0155 15.619 90.7363 16.3435C90.4572 17.0472 90.0741 17.6413 89.5872 18.1215C89.0918 18.6059 88.5002 18.9809 87.8507 19.2224C87.1952 19.4625 86.4848 19.5822 85.7154 19.5822ZM85.7154 17.5507C86.1209 17.5507 86.5047 17.4793 86.8678 17.3364C87.2419 17.1971 87.5785 16.9727 87.8507 16.6808C88.1432 16.3859 88.3742 16.0028 88.5395 15.5384C88.7207 15.0714 88.8121 14.5064 88.8121 13.8409V13.4188C88.8121 12.8123 88.7207 12.2889 88.5395 11.8518C88.3734 11.4131 88.1432 11.0534 87.8507 10.7709C87.5732 10.4899 87.2378 10.2727 86.8678 10.1344C86.5001 9.9934 86.1093 9.92184 85.7154 9.92338C85.31 9.92338 84.9203 9.99484 84.5439 10.1344C84.1769 10.2789 83.8424 10.4953 83.5602 10.7709C83.2818 11.0534 83.0508 11.4131 82.8689 11.851C82.7035 12.2897 82.6196 12.8123 82.6196 13.4188V13.8409C82.6196 14.5056 82.7035 15.0706 82.8689 15.5384C83.0517 16.0028 83.281 16.3859 83.5602 16.6808C83.8526 16.9758 84.1808 17.1968 84.5439 17.3372C84.9203 17.4793 85.31 17.5507 85.7154 17.5507Z" fill="#000000"/>
<path d="M37.5696 4.91642H28.8328V6.66794H37.5687L37.5696 4.91642Z" fill="#000000"/>
<path d="M37.5696 2H28.8328V3.75152H37.5687L37.5696 2Z" fill="#000000"/>
<path fill-rule="evenodd" clip-rule="evenodd" d="M38.4478 13.1999C38.4478 11.4884 37.992 10.1702 37.0837 9.24856C36.1888 8.32781 34.8939 7.86868 33.2007 7.86868C32.4883 7.86868 31.8175 7.9795 31.1859 8.20698C30.5595 8.43282 29.9874 8.78767 29.5069 9.24856C29.0319 9.70103 28.6536 10.2776 28.3736 10.9709C28.0936 11.6642 27.9537 12.4775 27.9537 13.4124V13.8382C27.9537 14.8148 28.1036 15.6639 28.3969 16.3905C28.6894 17.1096 29.0802 17.7112 29.5719 18.197C30.076 18.6629 30.6681 19.0236 31.3134 19.2577C31.9892 19.4886 32.6991 19.6041 33.4132 19.5994C34.6589 19.5994 35.713 19.3069 36.5829 18.7269C37.462 18.1445 38.0153 17.2954 38.2395 16.1755H35.9313C35.7922 16.5855 35.5314 16.9204 35.1539 17.1746C34.7897 17.4287 34.2098 17.5579 33.4124 17.5579C33.021 17.5578 32.6319 17.5 32.2575 17.3862C31.8972 17.2751 31.5621 17.0948 31.2709 16.8554C30.9759 16.5811 30.741 16.2486 30.5809 15.8788C30.4118 15.4689 30.3201 14.9739 30.3076 14.3915H38.4511V13.1999H38.4478ZM30.3043 12.6499C30.321 12.1525 30.4118 11.7359 30.5776 11.3967C30.7282 11.0676 30.9505 10.7763 31.2284 10.5443C31.5075 10.3204 31.8284 10.1544 32.1725 10.056C32.5366 9.9585 32.9141 9.90601 33.3057 9.90601C33.699 9.90601 34.0606 9.9485 34.399 10.0368C34.7473 10.121 35.0464 10.2701 35.3005 10.4826C35.5505 10.6943 35.7497 10.9768 35.8863 11.3326C36.0421 11.6867 36.1238 12.1258 36.1405 12.6499H30.3043Z" fill="#000000"/>
</svg>
