<svg xmlns="http://www.w3.org/2000/svg" width="24" height="24" viewBox="0 0 24 24" fill="none"><rect width="24" height="24" fill="none"/>
<path d="M4.87368 6.01078C3.85804 6.37794 3.50995 6.04416 3.21432 5.22878L2.83762 4.18452C2.47523 3.16888 2.80901 2.82079 3.61962 2.52993L4.66388 2.15323C5.67952 1.78608 6.02761 2.11986 6.32324 2.93523L6.69994 3.97949C7.0671 4.99513 6.73332 5.34322 5.91794 5.63885L4.87368 6.01078Z" fill="#FF4F3E"/>
<path d="M9.48465 6.01076C10.5003 6.37792 10.8484 6.04414 11.144 5.22876L11.5207 4.18451C11.8879 3.16886 11.5541 2.82078 10.7387 2.52514L9.69446 2.15321C8.67881 1.78606 8.33073 2.11984 8.03509 2.93521L7.6584 3.97947C7.29124 4.99512 7.62502 5.3432 8.4404 5.63883L9.48465 6.01076Z" fill="#FABC22"/>
<path d="M14.5152 6.01076C13.4995 6.37792 13.1514 6.04414 12.8558 5.22876L12.4791 4.1845C12.1119 3.16886 12.4457 2.82077 13.2611 2.52514L14.3054 2.14845C15.321 1.78129 15.6691 2.11507 15.9647 2.93044L16.3414 3.9747C16.7086 4.99035 16.3748 5.33843 15.5594 5.63406L14.5152 6.01076Z" fill="#06C92E"/>
<path d="M19.1261 6.01076C20.1418 6.37792 20.4899 6.04414 20.7855 5.22876L21.1622 4.18451C21.5246 3.16886 21.1908 2.82078 20.3802 2.52991L19.3359 2.15321C18.3203 1.78606 17.9722 2.11984 17.6766 2.93521L17.2999 3.97947C16.9327 4.99512 17.2665 5.3432 18.0819 5.63883L19.1261 6.01076Z" fill="#00C2FC"/>
<path d="M4.44008 19.5936C4.44008 19.6465 4.43251 19.6919 4.40981 19.7374C4.39468 19.7828 4.36441 19.8282 4.32657 19.8584C4.28873 19.8963 4.2509 19.919 4.2055 19.9417C4.16009 19.9644 4.10712 19.9719 4.06171 19.9719H3.29741C3.24444 19.9719 3.19903 19.9644 3.15363 19.9417C3.10822 19.9265 3.06282 19.8963 3.03255 19.8584C2.99471 19.8206 2.96444 19.7828 2.9493 19.7374C2.9266 19.6919 2.91904 19.639 2.91904 19.5936V15.8023C2.91904 15.7493 2.9266 15.7039 2.9493 15.651C2.972 15.598 2.99471 15.5602 3.03255 15.5223C3.07039 15.4845 3.10822 15.4618 3.16119 15.4391C3.2066 15.4164 3.25957 15.4088 3.31254 15.4088H4.03144C4.12225 15.4088 4.21306 15.4315 4.28873 15.4769C4.37198 15.5147 4.44008 15.5753 4.49305 15.6434L5.65843 16.9601L6.733 15.651C6.79354 15.5829 6.86165 15.5223 6.93732 15.4693C7.013 15.4239 7.1038 15.4012 7.18704 15.4012H7.86811C7.92108 15.4012 7.96648 15.4088 8.01945 15.4315C8.06486 15.4542 8.11027 15.4769 8.1481 15.5147C8.18594 15.5526 8.20864 15.5904 8.23134 15.6434C8.25405 15.6964 8.26162 15.7418 8.26162 15.7947V19.586C8.26162 19.639 8.25405 19.6844 8.23134 19.7298C8.21621 19.7752 8.18594 19.8206 8.1481 19.8509C8.11027 19.8887 8.07243 19.9114 8.02703 19.9341C7.98162 19.9568 7.92865 19.9644 7.88325 19.9644H7.11894C7.06597 19.9644 7.02057 19.9568 6.96759 19.9341C6.92219 19.9114 6.87678 19.8887 6.83894 19.8509C6.80111 19.813 6.7784 19.7752 6.7557 19.7298C6.733 19.6844 6.72543 19.6314 6.72543 19.586V17.732L5.87032 18.7082C5.84005 18.746 5.79464 18.7763 5.74924 18.799C5.70383 18.8217 5.65087 18.8293 5.60546 18.8293C5.56006 18.8293 5.50708 18.8217 5.46168 18.799C5.41628 18.7763 5.37844 18.7536 5.3406 18.7158L4.44008 17.732V19.5936Z" fill="white"/>
<path d="M12.8928 19.9795C12.8399 19.9795 12.7945 19.9719 12.7491 19.9492C12.7037 19.9341 12.6583 19.9038 12.628 19.866C12.5902 19.8282 12.5599 19.7903 12.5447 19.7449C12.522 19.6995 12.5145 19.6465 12.5145 19.6011V17.5882L11.0615 19.7146C11.0086 19.7903 10.948 19.8509 10.8724 19.8963C10.7967 19.9417 10.7134 19.9719 10.6226 19.9644H9.75238C9.69941 19.9644 9.654 19.9568 9.6086 19.9341C9.56319 19.919 9.51779 19.8887 9.48752 19.8509C9.44968 19.813 9.42698 19.7752 9.40428 19.7298C9.38158 19.6844 9.37401 19.6314 9.37401 19.586V15.8023C9.37401 15.7493 9.38158 15.7039 9.40428 15.651C9.41942 15.6056 9.44968 15.5601 9.48752 15.5223C9.52536 15.4845 9.5632 15.4618 9.61617 15.4391C9.66158 15.4164 9.71455 15.4088 9.76752 15.4088H10.5167C10.5697 15.4088 10.6151 15.4164 10.668 15.4391C10.7134 15.4618 10.7588 15.4845 10.7967 15.5223C10.8345 15.5601 10.8572 15.598 10.8799 15.651C10.9026 15.6964 10.9102 15.7493 10.9102 15.8023V17.7925L12.3631 15.6661C12.4161 15.598 12.4842 15.5374 12.5523 15.492C12.6204 15.4466 12.7112 15.4164 12.7945 15.4239H13.6799C13.7328 15.4239 13.7782 15.4315 13.8312 15.4542C13.8766 15.4769 13.922 15.4996 13.9598 15.5374C13.9977 15.5753 14.0204 15.6131 14.0431 15.6661C14.0658 15.7115 14.0734 15.7645 14.0734 15.8174V19.6087C14.0734 19.6617 14.0658 19.7071 14.0431 19.7525C14.028 19.7979 13.9977 19.8433 13.9598 19.8736C13.922 19.9114 13.8842 19.9417 13.8388 19.9568C13.7934 19.9795 13.7404 19.9871 13.695 19.9871H12.8928V19.9795Z" fill="white"/>
<path d="M16.6539 21.6216C16.6539 21.6746 16.6463 21.72 16.6236 21.7654C16.6085 21.8108 16.5782 21.8562 16.5404 21.8865C16.5025 21.9243 16.4647 21.947 16.4193 21.9697C16.3739 21.9924 16.3209 22 16.2755 22H15.5188C15.4658 22 15.4204 21.9924 15.375 21.9697C15.3296 21.9546 15.2842 21.9243 15.2464 21.8865C15.2085 21.8487 15.1858 21.8108 15.1631 21.7654C15.1404 21.72 15.1328 21.667 15.1328 21.6216V15.7947C15.1328 15.7418 15.1404 15.6964 15.1631 15.6434C15.1782 15.598 15.2085 15.5526 15.2464 15.5147C15.2842 15.4769 15.322 15.4542 15.375 15.4315C15.4204 15.4088 15.4734 15.4012 15.5263 15.4012H16.3285C16.3739 15.4012 16.4117 15.4088 16.4571 15.4239C16.495 15.4391 16.5328 15.4618 16.5631 15.492C16.5933 15.5223 16.616 15.5602 16.6388 15.598C16.6539 15.6358 16.6615 15.6812 16.6615 15.7266V15.7342C16.8128 15.598 16.9868 15.492 17.176 15.4164C17.4182 15.318 17.6679 15.2726 17.9252 15.2802C18.2128 15.2802 18.5003 15.3331 18.7652 15.4542C19.0149 15.5677 19.2344 15.7342 19.4084 15.9385C19.59 16.158 19.7262 16.4077 19.8171 16.6801C19.9154 16.9828 19.9684 17.2931 19.9684 17.6109C19.9684 17.9439 19.9079 18.2693 19.7944 18.5795C19.6808 18.8747 19.5144 19.1395 19.2949 19.3665C19.0755 19.5936 18.8106 19.7752 18.523 19.8963C18.2052 20.0325 17.8571 20.093 17.5166 20.093C17.3577 20.093 17.2063 20.0779 17.055 20.0552C16.9187 20.04 16.7901 20.0022 16.6615 19.9492L16.6539 21.6216ZM16.6539 18.5114C16.7523 18.572 16.8582 18.6174 16.9717 18.6476C17.1004 18.6779 17.229 18.6855 17.3652 18.6855C17.5014 18.6931 17.6376 18.6779 17.7663 18.6249C17.8949 18.572 18.0085 18.4887 18.0993 18.3904C18.2582 18.186 18.3414 17.9287 18.3338 17.6639C18.3414 17.4217 18.2582 17.1871 18.1068 16.998C18.0236 16.9071 17.9252 16.8315 17.8041 16.7861C17.6906 16.7407 17.562 16.718 17.4409 16.7255C17.2895 16.7331 17.1382 16.7709 17.002 16.839C16.8658 16.9071 16.7447 17.0055 16.6539 17.1266V18.5114Z" fill="white"/>
<path d="M4.32657 13.7053C4.32657 13.7583 4.319 13.8037 4.2963 13.8491C4.28117 13.8945 4.2509 13.9399 4.21306 13.9702C4.17522 14.008 4.13739 14.0383 4.09198 14.0534C4.04658 14.0761 3.99361 14.0837 3.9482 14.0837H3.29741C3.24444 14.0837 3.19903 14.0761 3.15363 14.0534C3.10822 14.0383 3.06282 14.008 3.03255 13.9702C2.99471 13.9323 2.97201 13.8945 2.94931 13.8491C2.9266 13.8037 2.91904 13.7507 2.91904 13.7053V12.0329C2.91904 11.98 2.9266 11.9346 2.94931 11.8892C2.97201 11.8437 2.99471 11.7983 3.03255 11.7681C3.07039 11.7302 3.10822 11.7075 3.15363 11.6848C3.19903 11.6697 3.252 11.6546 3.29741 11.6546H3.50172C3.6001 11.5259 3.67578 11.3897 3.73632 11.2384C3.80442 11.0643 3.86496 10.8903 3.91036 10.7086C3.95577 10.5119 3.9936 10.3151 4.03144 10.1108C4.06171 9.9065 4.08441 9.70218 4.09955 9.49029L4.13739 8.89247C4.14495 8.78652 4.19036 8.68815 4.26603 8.62004C4.30387 8.5822 4.34928 8.55193 4.39468 8.5368C4.44008 8.5141 4.49306 8.50653 4.54603 8.50653H7.39137C7.44434 8.50653 7.48974 8.5141 7.54271 8.5368C7.58812 8.5595 7.63352 8.5822 7.67136 8.62004C7.7092 8.65788 7.7319 8.69571 7.7546 8.74869C7.7773 8.79409 7.78487 8.84706 7.78487 8.90003V11.6621H8.15567C8.20864 11.6621 8.25405 11.6697 8.29945 11.6924C8.34486 11.7075 8.39026 11.7378 8.42053 11.7756C8.45837 11.8135 8.48864 11.8513 8.50377 11.8967C8.51891 11.9421 8.53404 11.9951 8.53404 12.0405V13.7129C8.53404 13.7659 8.52647 13.8113 8.50377 13.8567C8.48864 13.9021 8.45837 13.9475 8.42053 13.9778C8.38269 14.0156 8.34486 14.0383 8.29945 14.061C8.25405 14.0837 8.20107 14.0913 8.15567 14.0913H7.49731C7.44434 14.0913 7.39893 14.0837 7.35353 14.061C7.30812 14.0459 7.26272 14.0156 7.23245 13.9778C7.19461 13.9399 7.17191 13.9021 7.14921 13.8567C7.12651 13.8113 7.11894 13.7583 7.11894 13.7129V13.0772H4.33414L4.32657 13.7053ZM6.24112 9.93677H5.56006L5.54492 10.1184C5.51465 10.4438 5.44654 10.7616 5.35574 11.0719C5.2952 11.2762 5.20439 11.4729 5.09088 11.6621H6.24112V9.93677Z" fill="white"/>
<path d="M10.5016 11.3065C10.5697 11.5108 10.7135 11.6848 10.9026 11.7832C11.107 11.8892 11.334 11.9421 11.5686 11.9346C11.7199 11.9346 11.8637 11.927 12.015 11.9043C12.1437 11.8816 12.2723 11.8513 12.3934 11.8059C12.4615 11.7832 12.5372 11.7681 12.6129 11.7681C12.6885 11.7681 12.7566 11.7832 12.8248 11.821C12.8853 11.8589 12.9383 11.9119 12.9685 11.98L13.1199 12.3054C13.1502 12.3583 13.1653 12.4264 13.1653 12.487C13.1653 12.5551 13.1502 12.6232 13.1199 12.6762C13.0896 12.7367 13.0366 12.7821 12.9837 12.8199C12.7339 12.9637 12.4615 13.0697 12.1815 13.1302C11.9242 13.1756 11.6669 13.1983 11.4096 13.1983C11.0615 13.2059 10.7134 13.1453 10.3881 13.0243C10.1005 12.9183 9.83563 12.7518 9.61618 12.5399C9.39673 12.3281 9.23024 12.0632 9.11673 11.7832C8.99565 11.4654 8.93512 11.1324 8.93512 10.7994C8.93512 10.4816 8.99565 10.1638 9.11673 9.86866C9.23024 9.5811 9.39673 9.31624 9.61618 9.09679C9.83563 8.86976 10.1005 8.69571 10.3881 8.5822C10.7134 8.45356 11.0615 8.39302 11.4096 8.39302C11.6972 8.39302 11.9772 8.44599 12.2421 8.54437C12.5069 8.64274 12.7415 8.79409 12.9458 8.98328C13.1502 9.17246 13.3166 9.40705 13.4301 9.65677C13.5512 9.93677 13.6193 10.2319 13.6118 10.5422C13.6118 10.6935 13.6042 10.8449 13.5815 10.9962C13.5664 11.0794 13.521 11.1475 13.4528 11.2081C13.3923 11.2686 13.3166 11.2989 13.2334 11.3065H10.5016ZM12.0907 10.2924C12.0907 10.126 12.0226 9.9746 11.9015 9.86109C11.8259 9.79299 11.7426 9.74001 11.6442 9.70218C11.5459 9.67191 11.4475 9.65677 11.3491 9.66434C11.1448 9.64921 10.9329 9.70218 10.7589 9.81569C10.6151 9.93677 10.5091 10.1032 10.4486 10.2773L12.0907 10.2924Z" fill="white"/>
<path d="M15.7155 13.0772C15.6625 13.0772 15.6171 13.0697 15.5717 13.047C15.5263 13.0318 15.4809 13.0016 15.4506 12.9637C15.4128 12.9259 15.3825 12.888 15.3674 12.8426C15.3447 12.7972 15.3371 12.7443 15.3371 12.6989V10.0351H14.4063C14.3534 10.0351 14.3079 10.0276 14.2625 10.0049C14.2171 9.98974 14.1717 9.95947 14.1415 9.92163C14.1036 9.88379 14.0734 9.84596 14.0582 9.80055C14.0355 9.75515 14.028 9.70218 14.028 9.65677V8.90003C14.028 8.84706 14.0355 8.80166 14.0582 8.74869C14.0809 8.70328 14.1036 8.65788 14.1415 8.62004C14.1793 8.5822 14.2171 8.5595 14.2701 8.5368C14.3155 8.5141 14.3685 8.50653 14.4215 8.50653H17.8117C17.8646 8.50653 17.91 8.5141 17.9554 8.5368C18.0008 8.5595 18.0462 8.5822 18.0841 8.62004C18.1219 8.65788 18.1446 8.69571 18.1673 8.74112C18.19 8.78652 18.1976 8.83949 18.1976 8.8849V9.64164C18.1976 9.69461 18.19 9.74001 18.1673 9.78542C18.1446 9.83082 18.1219 9.87623 18.0841 9.91406C18.0462 9.9519 18.0084 9.9746 17.963 9.99731C17.9176 10.02 17.8646 10.0276 17.8192 10.0276H16.8884V12.6837C16.8884 12.7367 16.8809 12.7821 16.8582 12.8275C16.843 12.8729 16.8128 12.9183 16.7749 12.9486C16.7371 12.9864 16.6992 13.0167 16.6538 13.0318C16.6084 13.0545 16.5555 13.0621 16.5101 13.0621H16.5025L15.7155 13.0772Z" fill="white"/>
</svg>
