<svg xmlns="http://www.w3.org/2000/svg" width="24" height="24" viewBox="0 0 24 24" fill="none"><rect width="24" height="24" fill="none"/>
<path d="M13.1829 10.2578C12.8762 10.2578 12.6252 10.5068 12.6252 10.8098C12.6252 11.1127 12.8762 11.3618 13.1829 11.3618C13.4897 11.3618 13.7406 11.1127 13.7406 10.8098C13.7406 10.5068 13.4897 10.2578 13.1829 10.2578Z" fill="#B32442"/>
<path d="M13.1829 12.6328C12.8762 12.6328 12.6252 12.8818 12.6252 13.1848C12.6252 13.4919 12.8802 13.7368 13.1829 13.7368C13.4857 13.7368 13.7406 13.4877 13.7406 13.1848C13.7406 12.8818 13.4897 12.6328 13.1829 12.6328Z" fill="#B32442"/>
<path d="M16.1016 11.7436C16.1016 10.8177 15.755 9.6469 15.4403 9.0241C15.022 8.1979 14.6674 7.6789 14.038 7.05615C13.4564 6.47905 12.9624 6.11785 12.2255 5.74C12.1657 5.71095 12.1099 5.6819 12.0542 5.6528C11.4367 5.3456 10.2536 4.9844 9.34929 4.9844H8.81944C8.63224 4.9844 8.37329 5.24595 8.37329 5.4286V18.5858C8.37329 18.7768 8.64419 19.03 8.85929 19.03H9.28554C10.2655 19.03 11.4208 18.6771 12.0821 18.3491L12.2255 18.2744C13.0023 17.8717 13.4923 17.498 14.0978 16.8918C15.1853 15.8082 16.1016 14.135 16.1016 11.9761V11.7436ZM15.022 12.2708C15.022 13.8444 14.1057 15.3889 13.309 16.1819C12.9824 16.5057 12.6278 16.7922 12.2294 17.0455C12.0502 17.1576 11.859 17.2655 11.6678 17.361C11.1857 17.6018 10.15 17.9506 9.43694 17.9506V6.0597C10.1619 6.0597 11.13 6.40015 11.6399 6.6368C11.839 6.7323 12.0382 6.8444 12.2334 6.9648C12.6198 7.2139 12.9863 7.50455 13.2771 7.7952C13.7193 8.2394 14.1575 8.82485 14.4444 9.42685C14.6874 9.9334 15.026 10.9132 15.026 11.6356V12.2667L15.022 12.2708Z" fill="#B32442"/>
<path d="M6.78009 6.1426C6.52114 6.1426 6.25024 6.3668 6.25024 6.58685V17.4231C6.25024 17.6141 6.52114 17.8674 6.73624 17.8674H6.82389C7.05894 17.8674 7.30989 17.6183 7.30989 17.3816V6.62835C7.30989 6.36265 7.05494 6.1426 6.78009 6.1426Z" fill="#B32442"/>
<path d="M2.53009 9.82129C2.27114 9.82129 2.00024 9.99565 2.00024 10.1576V13.8486C2.00024 13.9939 2.27114 14.1849 2.48624 14.1849H2.57389C2.80894 14.1849 3.05989 13.9939 3.05989 13.8153V10.1949C3.05989 9.99564 2.80494 9.82545 2.53009 9.82545V9.82129Z" fill="#B32442"/>
<path d="M4.65704 7.8115C4.41004 7.8115 4.12719 8.0357 4.12719 8.25575V15.7083C4.12719 15.9533 4.38614 16.1941 4.61319 16.1941H4.67694C4.94784 16.1941 5.18684 15.9533 5.18684 15.6668V8.3388C5.18684 8.0399 4.94784 7.8115 4.65704 7.8115Z" fill="#B32442"/>
<path d="M21.5712 2.9543L21.5553 2.9335C21.4995 2.88785 21.4477 2.838 21.388 2.7965C21.3322 2.755 21.2764 2.71345 21.2167 2.68025C21.1529 2.6429 21.0932 2.6055 21.0334 2.5723C20.9816 2.54325 20.9259 2.5142 20.8661 2.4851H20.8502L20.8342 2.47265C20.5554 2.3315 20.2486 2.22355 19.93 2.14465C19.6073 2.06165 19.2727 2.0201 18.938 2.0035C18.6074 1.99105 18.2728 2.0118 17.9501 2.0658C17.6394 2.11975 17.3326 2.20695 17.0498 2.32735C16.8785 2.4021 16.7072 2.48925 16.5478 2.5889C16.3925 2.68855 16.2451 2.80065 16.1136 2.9169C15.9861 3.0373 15.8626 3.16185 15.7591 3.30305C15.6555 3.44005 15.5639 3.5812 15.4882 3.73065C15.4165 3.87185 15.3647 4.013 15.3209 4.15415C15.2292 4.47385 15.1575 5.0302 15.289 5.53255C15.5918 6.68265 16.5199 7.3594 17.6593 7.48395C18.468 7.57115 19.3165 7.38845 19.9539 6.93175C20.0096 6.89025 20.0654 6.84455 20.1172 6.79475C20.165 6.74905 20.2128 6.70755 20.2526 6.6577L20.2686 6.64525C20.3164 6.5913 20.3482 6.5373 20.3721 6.48335C20.404 6.42105 20.416 6.35465 20.4199 6.2965C20.4199 6.2301 20.408 6.1595 20.3881 6.10555C20.3642 6.04325 20.3243 5.9851 20.2845 5.93945C20.2327 5.8855 20.173 5.8481 20.1013 5.8232C20.0295 5.7983 19.9539 5.79415 19.8702 5.7983C19.7945 5.8066 19.7109 5.82735 19.6352 5.86055C19.5635 5.88965 19.4918 5.9353 19.428 5.9851L19.4121 5.9976L19.3244 6.064L19.2886 6.09305L19.2448 6.12215C18.6472 6.50825 17.7111 6.58715 17.0936 6.19685C16.9781 6.12215 16.8745 6.0391 16.7829 5.93945C16.6873 5.8398 16.6076 5.73185 16.5399 5.6156C16.4721 5.49935 16.4204 5.37065 16.3845 5.24195C16.3487 5.1174 16.3247 4.98455 16.3247 4.8558C16.3247 4.7188 16.3407 4.5818 16.3805 4.4448C16.4164 4.3161 16.4721 4.18735 16.5518 4.06695C16.5917 4.00885 16.6355 3.94655 16.6873 3.88845C16.739 3.8303 16.7908 3.7722 16.8546 3.7182C16.9143 3.6601 16.9821 3.61025 17.0418 3.5646C17.1095 3.51895 17.1852 3.47325 17.2569 3.43175H17.2649C17.4601 3.3321 17.6752 3.24905 17.8943 3.1951C18.1254 3.13695 18.3644 3.10375 18.6074 3.09545C18.8584 3.083 19.1133 3.1079 19.3563 3.14525C19.6033 3.1868 19.8383 3.2532 20.0654 3.3404C20.1052 3.357 20.1451 3.3736 20.1889 3.3902C20.2247 3.40685 20.2646 3.42345 20.3084 3.4442L20.3602 3.4691L18.7548 4.1583L18.7388 4.1666L18.7229 4.1749L17.5477 4.68145L17.5159 4.6939C17.4123 4.73955 17.3326 4.81015 17.2729 4.88075C17.1972 4.97205 17.1613 5.07585 17.1494 5.1838C17.1494 5.2212 17.1494 5.25855 17.1494 5.2959C17.1494 5.32085 17.1613 5.34575 17.1693 5.3748L17.1852 5.40385C17.2012 5.4371 17.2171 5.47445 17.245 5.50765C17.2689 5.5367 17.3007 5.5658 17.3286 5.5907V5.60315C17.4123 5.6613 17.5159 5.6945 17.6433 5.6945C17.7589 5.6945 17.8943 5.6696 18.0457 5.60315L18.7627 5.2959L18.7946 5.28345L18.8305 5.26685L21.4637 4.1334C21.8102 3.98395 22.1488 3.7348 21.8899 3.31965C21.8023 3.17015 21.6628 3.0456 21.5553 2.9501L21.5712 2.9543Z" fill="#B32442"/>
<path d="M21.4848 19.8687L18.8516 18.7352L18.8157 18.7186L18.7839 18.7062L18.0668 18.3989C17.9154 18.3367 17.78 18.3034 17.6645 18.3076C17.541 18.3076 17.4334 18.3408 17.3537 18.3989L17.3378 18.4114C17.3059 18.4363 17.2741 18.4654 17.2541 18.4944C17.2302 18.5235 17.2103 18.5609 17.1944 18.5982L17.1785 18.6273C17.1665 18.6522 17.1625 18.6771 17.1585 18.7062C17.1506 18.7435 17.1506 18.7809 17.1585 18.8183C17.1705 18.9262 17.2063 19.03 17.282 19.1255C17.3418 19.2002 17.4215 19.2667 17.525 19.3123L17.5569 19.3248L18.7281 19.8313L18.744 19.8396L18.76 19.8479L20.3654 20.5371L20.3136 20.5621C20.2738 20.5828 20.2339 20.5994 20.1941 20.616C20.1542 20.6326 20.1144 20.6492 20.0706 20.6658C19.8475 20.753 19.6085 20.8195 19.3615 20.861C19.1185 20.9025 18.8635 20.9233 18.6126 20.9108C18.3696 20.9025 18.1306 20.8693 17.8995 20.8112C17.6804 20.7572 17.4693 20.6742 17.2701 20.5745H17.2541C17.1785 20.5288 17.1068 20.4873 17.039 20.4375C16.9753 20.3918 16.9116 20.3379 16.8518 20.2839C16.7881 20.2299 16.7363 20.1759 16.6845 20.1137C16.6327 20.0555 16.5889 19.9974 16.549 19.9351C16.4734 19.8147 16.4176 19.686 16.3777 19.5573C16.3419 19.4203 16.318 19.2833 16.322 19.1463C16.322 19.0134 16.3419 18.8847 16.3817 18.7602C16.4176 18.6314 16.4694 18.5027 16.5371 18.3865C16.6048 18.2702 16.6845 18.1623 16.7801 18.0626C16.8717 17.963 16.9753 17.88 17.0908 17.8052C17.7083 17.415 18.6444 17.4938 19.242 17.88L19.2858 17.909L19.3217 17.9339L19.3655 17.9713L19.4093 18.0045L19.4252 18.017C19.489 18.0668 19.5607 18.1125 19.6324 18.1415C19.7081 18.1747 19.7917 18.1997 19.8674 18.2038C19.9471 18.2121 20.0268 18.2038 20.0985 18.1789C20.1702 18.154 20.2299 18.1208 20.2817 18.0626C20.3255 18.017 20.3614 17.963 20.3853 17.8966C20.4052 17.8384 20.4172 17.772 20.4172 17.7056C20.4172 17.6475 20.4012 17.581 20.3694 17.5187C20.3455 17.4648 20.3096 17.4108 20.2658 17.3568L20.2499 17.3444C20.21 17.2987 20.1622 17.253 20.1144 17.2074C20.0626 17.1617 20.0069 17.1119 19.9511 17.0703C19.3177 16.6136 18.4652 16.431 17.6565 16.5182C16.5172 16.6427 15.589 17.3153 15.2862 18.4695C15.1548 18.9719 15.2225 19.5282 15.3181 19.8479C15.3579 19.9891 15.4137 20.1303 15.4854 20.2714C15.5611 20.425 15.6527 20.5662 15.7563 20.6991C15.8599 20.8402 15.9834 20.9606 16.1148 21.081C16.2503 21.1973 16.3937 21.3094 16.549 21.409C16.7084 21.5087 16.8757 21.5959 17.051 21.6706C17.3338 21.791 17.6406 21.8823 17.9513 21.9322C18.274 21.9903 18.6086 22.011 18.9392 21.9944C19.2739 21.982 19.6085 21.9363 19.9312 21.8533C20.2499 21.7744 20.5526 21.6664 20.8355 21.5253L20.8514 21.517H20.8633C20.9231 21.4879 20.9789 21.4589 21.0307 21.4298C21.0904 21.3966 21.1541 21.3592 21.2139 21.3218C21.2737 21.2845 21.3334 21.243 21.3852 21.2056C21.445 21.1641 21.4967 21.1184 21.5525 21.0686L21.5684 21.052C21.676 20.9482 21.8154 20.8278 21.9071 20.6742C22.17 20.2631 21.8314 20.014 21.4848 19.8645V19.8687Z" fill="#B32442"/>
</svg>
