<svg xmlns="http://www.w3.org/2000/svg" width="24" height="24" viewBox="0 0 24 24" fill="none"><rect width="24" height="24" fill="none"/>
<path fill-rule="evenodd" clip-rule="evenodd" d="M11.9998 9.62688C13.1832 9.62688 14.1425 8.67043 14.1425 7.49056C14.1425 6.31068 13.1832 5.35433 11.9998 5.35433C10.8165 5.35433 9.85717 6.31077 9.85717 7.49065C9.85717 8.67053 10.8165 9.62688 11.9998 9.62688ZM6.40518 10.3389H17.5945C18.4492 10.3389 19.142 11.0296 19.142 11.8818C19.142 12.7338 18.4492 13.4246 17.5945 13.4246H14.6035L19.1426 18.6465H15.0954L12.0002 15.0857L8.90494 18.6465H4.85774L9.39685 13.4246H6.40527C5.55056 13.4246 4.85774 12.7338 4.85774 11.8818C4.85774 11.0297 5.55046 10.3389 6.40518 10.3389Z" fill="white"/>
<path fill-rule="evenodd" clip-rule="evenodd" d="M9.39685 13.4246H6.40527C5.55056 13.4246 4.85774 12.7338 4.85774 11.8818C4.85774 11.0297 5.55046 10.3389 6.40518 10.3389H17.5945C18.4492 10.3389 19.142 11.0296 19.142 11.8818C19.142 12.7338 18.4492 13.4246 17.5945 13.4246H14.6035L19.1426 18.6465H15.0954L12.0002 15.0857L8.90494 18.6465H4.85774L9.39685 13.4246ZM12.0001 17.0708L9.49833 19.9488H2L6.53911 14.727H6.40515C4.83485 14.727 3.55529 13.4568 3.55529 11.8818C3.55529 10.3069 4.83466 9.0366 6.40506 9.0366H8.92153C8.68694 8.57216 8.55473 8.0471 8.55473 7.49065C8.55473 5.58789 10.1007 4.052 11.9997 4.052C13.8986 4.052 15.4447 5.58773 15.4447 7.49056C15.4447 8.04703 15.3124 8.57213 15.0778 9.0366H17.5943C19.1646 9.0366 20.4442 10.3067 20.4442 11.8818C20.4442 13.4568 19.1646 14.727 17.5943 14.727H17.461L22.0001 19.9488H14.5018L12.0001 17.0708ZM13.4784 9.0366C13.8875 8.64754 14.1425 8.09873 14.1425 7.49056C14.1425 6.31068 13.1832 5.35433 11.9998 5.35433C10.8165 5.35433 9.85717 6.31077 9.85717 7.49065C9.85717 8.0988 10.1119 8.64757 10.521 9.0366C10.9055 9.40233 11.4264 9.62688 11.9998 9.62688C12.5732 9.62688 13.0939 9.40232 13.4784 9.0366Z" fill="black"/>
</svg>
