<svg xmlns="http://www.w3.org/2000/svg" width="24" height="24" viewBox="0 0 24 24" fill="none"><rect width="24" height="24" fill="none"/>
<path fill-rule="evenodd" clip-rule="evenodd" d="M4.49015 2.08982C4.9298 1.90774 5.4358 2.00841 5.77226 2.34484L11.9992 8.57176L18.2261 2.34484C18.5626 2.00841 19.0686 1.90774 19.5082 2.08982C19.9478 2.27194 20.2345 2.70091 20.2345 3.17676V16.1179C20.2345 16.7676 19.7078 17.2944 19.058 17.2944C18.4082 17.2944 17.8815 16.7676 17.8815 16.1179V6.01699L12.8311 11.0674C12.3716 11.5269 11.6268 11.5269 11.1673 11.0674L6.11685 6.01699V16.1179C6.11685 16.7676 5.59015 17.2944 4.94038 17.2944C4.29062 17.2944 3.76392 16.7676 3.76392 16.1179V3.17676C3.76392 2.70091 4.05054 2.27194 4.49015 2.08982ZM13.1757 17.7817L15.9683 14.989C16.4278 14.5296 16.4278 13.7847 15.9683 13.3252C15.5089 12.8658 14.764 12.8658 14.3046 13.3252L11.9992 15.6306L9.69382 13.3252C9.23437 12.8658 8.48951 12.8658 8.03006 13.3252C7.57061 13.7847 7.57061 14.5296 8.03006 14.989L10.8227 17.7817V20.8238C10.8227 21.4735 11.3494 22.0002 11.9992 22.0002C12.649 22.0002 13.1757 21.4735 13.1757 20.8238V17.7817Z" fill="white"/>
</svg>
