<svg xmlns="http://www.w3.org/2000/svg" width="24" height="24" viewBox="0 0 24 24" fill="none"><rect width="24" height="24" fill="none"/>
<path fill-rule="evenodd" clip-rule="evenodd" d="M4.49015 2.08957C4.9298 1.9075 5.4358 2.00816 5.77226 2.34459L11.9992 8.57152L18.2261 2.34459C18.5626 2.00816 19.0686 1.9075 19.5082 2.08957C19.9478 2.27169 20.2345 2.70067 20.2345 3.17651V16.1177C20.2345 16.7674 19.7078 17.2941 19.058 17.2941C18.4082 17.2941 17.8815 16.7674 17.8815 16.1177V6.01674L12.8311 11.0672C12.3716 11.5267 11.6268 11.5267 11.1673 11.0672L6.11685 6.01674V16.1177C6.11685 16.7674 5.59015 17.2941 4.94038 17.2941C4.29062 17.2941 3.76392 16.7674 3.76392 16.1177V3.17651C3.76392 2.70067 4.05054 2.27169 4.49015 2.08957ZM13.1757 17.7814L15.9683 14.9888C16.4278 14.5293 16.4278 13.7844 15.9683 13.325C15.5089 12.8656 14.764 12.8656 14.3046 13.325L11.9992 15.6303L9.69382 13.325C9.23437 12.8656 8.48951 12.8656 8.03006 13.325C7.57061 13.7844 7.57061 14.5293 8.03006 14.9888L10.8227 17.7814V20.8235C10.8227 21.4733 11.3494 22 11.9992 22C12.649 22 13.1757 21.4733 13.1757 20.8235V17.7814Z" fill="white"/>
</svg>
