<svg xmlns="http://www.w3.org/2000/svg" width="24" height="24" viewBox="0 0 24 24" fill="none"><rect width="24" height="24" fill="none"/>
<path d="M12 22C17.5228 22 22 17.5228 22 12C22 6.47722 17.5221 2 12 2C6.47722 2 2 6.47722 2 12C2 17.5228 6.47722 22 12 22Z" fill="url(#paint0_radial_2632_150)"/>
<path d="M11.9991 17.8021C13.8774 17.8021 15.3993 15.2053 15.3993 12.0022C15.3993 8.79835 13.8774 6.20158 11.9998 6.20158C10.1215 6.20158 8.59889 8.79835 8.59889 12.0015C8.59889 15.2053 10.1215 17.8021 11.9991 17.8021Z" fill="white"/>
<path fill-rule="evenodd" clip-rule="evenodd" d="M5.62432 7.39898C4.61518 7.34756 3.39893 9.4594 3.39893 11.9983C3.39893 14.5387 4.61518 16.6498 5.62432 16.5977C6.6249 16.5462 7.1991 14.5387 7.1991 11.9983C7.1991 9.4594 6.6249 7.45111 5.62432 7.39898ZM18.3739 16.5984C19.3831 16.6498 20.5993 14.5387 20.5993 11.999C20.5993 9.4594 19.3831 7.34756 18.3739 7.39969C17.3734 7.45111 16.7992 9.4594 16.7992 11.999C16.7992 14.5387 17.3734 16.5462 18.3739 16.5984Z" fill="white"/>
<defs>
<radialGradient id="paint0_radial_2632_150" cx="0" cy="0" r="1" gradientUnits="userSpaceOnUse" gradientTransform="translate(12 9.2004) rotate(90) scale(12.7999 16.6193)">
<stop stop-color="#FF9A6F"/>
<stop offset="0.61" stop-color="#FF6427"/>
<stop offset="1" stop-color="#EB581E"/>
</radialGradient>
</defs>
</svg>
