<svg xmlns="http://www.w3.org/2000/svg" width="24" height="24" viewBox="0 0 24 24" fill="none"><rect width="24" height="24" fill="none"/>
<path d="M9.50366 13.6116V13.1983H7.00092V11.3587H11.8806V13.5468C11.8806 16.9909 10.2267 18.992 7.09898 18.992C3.87333 18.992 2 16.464 2 12.0071C2 7.66091 4.04455 5 7.79531 5C9.21208 5 10.4345 5.37341 11.1023 5.85946V7.75315C10.1428 7.16183 9.03808 6.84482 7.90945 6.83691C5.44967 6.83691 4.40648 8.49822 4.40648 12.0071C4.40648 15.4104 5.27042 17.1515 7.14359 17.1515C8.93296 17.1603 9.50366 15.7829 9.50366 13.6116Z" fill="#000000"/>
<path fill-rule="evenodd" clip-rule="evenodd" d="M22 13.8707C22 17.1773 20.208 19 17.6313 19C15.0546 19 13.2626 17.1773 13.2626 13.8955C13.2626 10.5889 15.0546 8.76617 17.6313 8.76617C20.208 8.76617 22 10.5809 22 13.8707ZM17.6339 10.6058C18.9285 10.6058 19.5802 11.6018 19.5802 13.8707C19.5802 16.1564 18.9295 17.1614 17.6339 17.1614C16.3385 17.1614 15.6868 16.1644 15.6868 13.8955C15.6868 11.6018 16.3393 10.6058 17.6339 10.6058Z" fill="#000000"/>
<path fill-rule="evenodd" clip-rule="evenodd" d="M9.50366 13.6116V13.1983H7.00092V11.3587H11.8806V13.5468C11.8806 16.9909 10.2267 18.992 7.09898 18.992C3.87333 18.992 2 16.464 2 12.0071C2 7.66091 4.04455 5 7.79531 5C9.21208 5 10.4345 5.37341 11.1023 5.85946V7.75315C10.1428 7.16183 9.03808 6.84482 7.90945 6.83691C5.44967 6.83691 4.40648 8.49822 4.40648 12.0071C4.40648 15.4104 5.27042 17.1515 7.14359 17.1515C8.93296 17.1603 9.50366 15.7829 9.50366 13.6116ZM22 13.8707C22 17.1773 20.208 19 17.6313 19C15.0546 19 13.2626 17.1773 13.2626 13.8955C13.2626 10.5889 15.0546 8.76617 17.6313 8.76617C20.208 8.76617 22 10.5809 22 13.8707ZM17.6339 10.6058C18.9285 10.6058 19.5802 11.6018 19.5802 13.8707C19.5802 16.1564 18.9295 17.1614 17.6339 17.1614C16.3385 17.1614 15.6868 16.1644 15.6868 13.8955C15.6868 11.6018 16.3393 10.6058 17.6339 10.6058Z" fill="#000000"/>
</svg>
