<svg xmlns="http://www.w3.org/2000/svg" width="72" height="24" viewBox="0 0 72 24" fill="none"><rect width="72" height="24" fill="none"/>
<path d="M24.6994 17.3199V6.46037H31.9365V8.51305H27.1122V10.6447H31.3956V12.65H27.1122V15.2672H32.293V17.3199H24.6994ZM33.5299 9.35982C33.9219 9.24493 34.4272 9.13716 35.0453 9.03806C35.6902 8.93685 36.342 8.88714 36.9946 8.88942C37.685 8.88942 38.2598 8.98061 38.7184 9.16375C39.177 9.34618 39.5407 9.60473 39.8086 9.93943C40.0773 10.2734 40.2679 10.6706 40.3813 11.1303C40.4947 11.5899 40.5515 12.102 40.5515 12.6658V17.3199H38.2471V12.948C38.2471 12.1961 38.1493 11.6624 37.9529 11.35C37.7573 11.0362 37.3908 10.8796 36.855 10.8796C36.6898 10.8796 36.5147 10.8868 36.329 10.9033C36.1433 10.9191 35.9789 10.937 35.8342 10.9579V17.3199H33.5306L33.5299 9.35982ZM42.1754 7.02489L44.4791 6.64853V9.07758H47.2477V11.0204H44.4791V13.9198C44.4791 14.4104 44.5641 14.8025 44.7342 15.0948C44.9043 15.3872 45.2476 15.5337 45.7626 15.5337C46.0109 15.5337 46.2658 15.51 46.5281 15.4633C46.7913 15.4159 47.0317 15.3505 47.2477 15.2672L47.5725 17.085C47.2709 17.2075 46.9605 17.3072 46.6444 17.3831C46.3043 17.4664 45.8859 17.508 45.3919 17.508C44.7626 17.508 44.2423 17.4219 43.8298 17.2495C43.4172 17.0771 43.0876 16.8372 42.8402 16.5284C42.5921 16.2203 42.4199 15.8468 42.3221 15.408C42.2201 14.9292 42.1709 14.4404 42.1754 13.9507V7.02489ZM48.3459 13.2612C48.3459 12.5301 48.4561 11.8901 48.679 11.3421C48.8998 10.7934 49.1914 10.3366 49.5521 9.97034C49.9057 9.60945 50.3298 9.32673 50.7967 9.14005C51.2566 8.95372 51.7476 8.85794 52.2429 8.85781C53.3984 8.85781 54.3103 9.21621 54.9801 9.93152C55.6503 10.6469 55.9856 11.6998 55.9856 13.0888C55.9856 13.2253 55.9803 13.374 55.9698 13.5356C55.9598 13.6979 55.9493 13.8416 55.9392 13.9665H50.7119C50.7635 14.4477 50.9851 14.8284 51.3764 15.1106C51.7686 15.3929 52.2945 15.5337 52.9546 15.5337C53.3769 15.5337 53.7923 15.4942 54.1993 15.4159C54.6067 15.3376 54.939 15.2414 55.1965 15.1264L55.506 17.0225C55.3469 17.0991 55.1812 17.162 55.0116 17.2107C54.8052 17.2732 54.5757 17.3278 54.323 17.3752C54.0703 17.4219 53.8001 17.4613 53.5107 17.4923C53.2231 17.5237 52.9341 17.5395 52.6447 17.5396C51.9133 17.5396 51.2767 17.4298 50.7351 17.2107C50.1934 16.9909 49.7457 16.6907 49.3899 16.3093C49.031 15.9225 48.7612 15.4595 48.6008 14.954C48.4268 14.4073 48.3406 13.8357 48.3459 13.2612ZM53.7582 12.3685C53.7485 12.1716 53.7149 11.9767 53.6585 11.7881C53.6043 11.6051 53.5147 11.4347 53.3953 11.2868C53.272 11.1366 53.119 11.0138 52.9468 10.9263C52.7658 10.8329 52.5419 10.7855 52.2731 10.7855C52.0449 10.7797 51.818 10.8254 51.609 10.9191C51.4232 11.0074 51.2689 11.1252 51.1447 11.271C51.0214 11.4175 50.9257 11.587 50.8584 11.781C50.7919 11.9741 50.7429 12.1695 50.7119 12.3685H53.7582ZM62.2796 11.1453C62.0742 11.0936 61.8311 11.039 61.5531 10.9816C61.0875 10.8843 60.6092 10.8685 60.1383 10.9349C59.9845 10.9518 59.8314 10.9806 59.6819 11.0211V17.3199H57.3776V9.51642C57.7898 9.36987 58.2768 9.23129 58.839 9.10127C59.4004 8.97056 60.0273 8.9052 60.7176 8.9052C60.8413 8.9052 60.9913 8.91237 61.1661 8.92889C61.5194 8.96033 61.8709 9.01261 62.218 9.08549C62.3933 9.12138 62.5428 9.16663 62.6665 9.21835L62.2796 11.1453ZM66.6261 15.6902C66.853 15.6902 67.0694 15.6852 67.2748 15.6744C67.4812 15.6644 67.646 15.6486 67.7702 15.6277V13.8566C67.632 13.8288 67.4926 13.8079 67.3522 13.7941C66.9798 13.751 66.6033 13.7536 66.2313 13.802C66.0398 13.8279 65.8728 13.8781 65.7281 13.9507C65.5843 14.0239 65.471 14.1231 65.388 14.2488C65.3014 14.3893 65.2586 14.5529 65.2647 14.7185C65.2647 15.0848 65.3858 15.3376 65.628 15.4791C65.8706 15.6199 66.2029 15.6902 66.6261 15.6902ZM66.4398 8.85781C67.1201 8.85781 67.6875 8.93681 68.1409 9.09336C68.5947 9.24996 68.9584 9.47401 69.2312 9.76705C69.5049 10.0594 69.6981 10.4149 69.8118 10.8329C69.925 11.2502 69.9818 11.7156 69.9818 12.227V17.085C69.6513 17.1583 69.1927 17.2445 68.6052 17.3436C68.0167 17.4427 67.3059 17.4923 66.4709 17.4923C65.9904 17.4969 65.5113 17.4497 65.0404 17.3515C64.6124 17.2574 64.2439 17.103 63.9348 16.8889C63.6283 16.6784 63.3826 16.3892 63.2231 16.0508C63.0578 15.706 62.9756 15.2823 62.9756 14.7817C62.9756 14.3005 63.0714 13.8932 63.262 13.5593C63.453 13.2246 63.7079 12.9588 64.0275 12.7599C64.3667 12.5537 64.7379 12.408 65.1257 12.329C65.5475 12.2393 65.9777 12.1947 66.4088 12.1961C66.7078 12.1961 66.9736 12.209 67.2053 12.2349C67.4379 12.2615 67.6255 12.2952 67.7702 12.3369V12.1178C67.7702 11.7206 67.6512 11.4017 67.4143 11.1619C67.1769 10.9212 66.7646 10.8013 66.1766 10.8013C65.7854 10.8013 65.3985 10.8301 65.0173 10.8875C64.6802 10.9339 64.3484 11.0152 64.0275 11.1303L63.7337 9.24996C64.114 9.1376 64.5014 9.05122 64.8931 8.99137C65.1305 8.95477 65.381 8.92317 65.6437 8.89728C65.906 8.87145 66.1718 8.85781 66.4398 8.85781Z" fill="#333333"/>
<path fill-rule="evenodd" clip-rule="evenodd" d="M10.8599 2C10.5073 2 10.1609 2.09368 9.85518 2.27169L3.02071 6.24992C2.38985 6.61692 2 7.30067 2 8.04046V15.9596C1.99971 16.3226 2.09392 16.6793 2.27313 16.9937C2.45234 17.308 2.7102 17.5689 3.02071 17.7501L9.85588 21.7283C10.1616 21.9063 10.5081 22 10.8606 22C11.2132 22 11.5597 21.9063 11.8654 21.7283L18.6999 17.7501C19.3307 17.383 19.7206 16.6993 19.7206 15.9596V8.04046C19.7208 7.67738 19.6266 7.32069 19.4474 7.00636C19.2682 6.69198 19.0104 6.43107 18.6999 6.24992L11.8647 2.27169C11.559 2.09368 11.2125 2 10.8599 2ZM11.5592 5.89369C11.2827 5.71701 11.1473 5.69762 10.9248 5.67966C10.5222 5.66889 10.3769 5.7522 10.155 5.89369L6.35785 8.47208C6.01619 8.71843 5.80567 9.11421 5.79433 9.54514V14.4434C5.80496 14.8693 6.01265 15.2672 6.35785 15.5157L10.155 18.0941C10.569 18.3591 10.8894 18.3692 11.2565 18.2449C11.2645 18.2422 11.2721 18.2396 11.2794 18.2372C11.3542 18.212 11.3991 18.1968 11.5592 18.0941L15.3571 15.5157C15.3647 15.51 15.3726 15.5045 15.3806 15.4989C15.3917 15.4911 15.403 15.4832 15.4138 15.4748C16.2601 14.8291 15.8639 13.4164 14.9537 13.1908C14.9222 13.183 14.8921 13.1746 14.8628 13.1664C14.6349 13.1026 14.4522 13.0516 13.9529 13.3704L10.8575 15.4719L9.52983 14.5712L15.3564 10.6175C15.8738 10.2461 16.0177 9.7218 15.8738 9.1975C15.8662 9.16996 15.8597 9.14331 15.8534 9.11711C15.8084 8.9315 15.7689 8.76853 15.3571 8.47208L11.5592 5.89369ZM8.32553 10.2346V12.2902L12.3722 9.5444L10.8575 8.51593L8.32553 10.2346Z" fill="#00B482"/>
<path fill-rule="evenodd" clip-rule="evenodd" d="M10.9248 5.67966C11.1473 5.69762 11.2827 5.71701 11.5592 5.89369L15.3571 8.47208C15.7689 8.76853 15.8084 8.9315 15.8534 9.11711C15.8597 9.14331 15.8662 9.16996 15.8738 9.1975C16.0177 9.7218 15.8738 10.2461 15.3564 10.6175L9.52983 14.5712L10.8575 15.4719L13.9529 13.3704C14.4522 13.0516 14.6349 13.1026 14.8628 13.1664C14.8921 13.1746 14.9222 13.183 14.9537 13.1908C15.8639 13.4164 16.2601 14.8291 15.4138 15.4748C15.403 15.4832 15.3917 15.4911 15.3806 15.4989C15.3726 15.5045 15.3647 15.51 15.3571 15.5157L11.5592 18.0941C11.3991 18.1968 11.3542 18.212 11.2794 18.2372L11.2565 18.2449C10.8894 18.3692 10.569 18.3591 10.155 18.0941L6.35785 15.5157C6.01265 15.2672 5.80496 14.8693 5.79433 14.4434V9.54514C5.80567 9.11421 6.01619 8.71843 6.35785 8.47208L10.155 5.89369C10.3769 5.7522 10.5222 5.66889 10.9248 5.67966ZM8.32553 12.2902V10.2346L10.8575 8.51593L12.3722 9.5444L8.32553 12.2902Z" fill="white"/>
</svg>
