<svg xmlns="http://www.w3.org/2000/svg" width="24" height="24" viewBox="0 0 24 24" fill="none"><rect width="24" height="24" fill="none"/>
<path d="M20.5313 16.4644C20.5139 16.5211 20.4714 16.5595 20.4031 16.5794C20.3347 16.5994 20.2638 16.6136 20.1898 16.622L19.853 16.6645C19.7879 16.6729 19.7206 16.6845 19.6529 16.6987C19.5846 16.7129 19.5157 16.7333 19.4458 16.7601C19.376 16.7869 19.3072 16.8232 19.2389 16.8689C19.1706 16.9141 19.1054 16.9713 19.043 17.0391C18.9689 17.1216 18.9058 17.2193 18.8533 17.3328C18.8007 17.4463 18.7587 17.5666 18.7277 17.6927C18.6962 17.8193 18.6736 17.948 18.6594 18.0804C18.6452 18.2122 18.6384 18.3394 18.6384 18.4618C18.6384 18.5411 18.6425 18.6236 18.651 18.7087C18.6594 18.7938 18.6752 18.8784 18.6978 18.9619C18.7203 19.0455 18.754 19.1264 18.7981 19.2046C18.8422 19.2829 18.8995 19.3544 18.9709 19.4195C19.0361 19.4789 19.1286 19.5372 19.2478 19.5939C19.3671 19.6507 19.521 19.679 19.7086 19.679C19.8309 19.679 19.9571 19.6633 20.0879 19.6323C20.2187 19.6008 20.3374 19.5451 20.444 19.4642C20.5507 19.3833 20.6389 19.274 20.7083 19.1363C20.7782 18.9987 20.8129 18.8248 20.8129 18.6147C20.8129 18.4271 20.7839 18.2684 20.7257 18.1376C20.6673 18.0068 20.5885 17.8975 20.4892 17.8098C20.4236 17.7504 20.3359 17.6948 20.2249 17.6438C20.1141 17.5928 19.9749 17.5671 19.8073 17.5671C19.6397 17.5671 19.479 17.607 19.3345 17.6864C19.1895 17.7657 19.0702 17.8781 18.9762 18.0226H18.9678C18.9762 17.8524 19.0061 17.7147 19.0571 17.6096C19.1086 17.5046 19.1716 17.4216 19.2473 17.3606C19.3224 17.2997 19.4064 17.255 19.4989 17.2267C19.5913 17.1983 19.6833 17.1773 19.7742 17.1626L20.1115 17.1116C20.1882 17.1 20.2628 17.0817 20.3353 17.0564C20.4078 17.0307 20.4735 16.9939 20.5318 16.9456C20.5901 16.8973 20.6406 16.8342 20.6831 16.7559C20.7257 16.6777 20.7556 16.5805 20.7729 16.4644H20.5313ZM19.9759 17.8728C20.0412 17.9243 20.0926 17.99 20.1293 18.0709C20.1662 18.1518 20.1908 18.2427 20.204 18.3436C20.2166 18.4444 20.2229 18.5432 20.2229 18.6399C20.2229 18.6914 20.2192 18.7623 20.2124 18.8532C20.205 18.9441 20.1855 19.0339 20.1525 19.1216C20.1199 19.2099 20.0695 19.2866 20.0012 19.3517C19.9329 19.4169 19.8394 19.4495 19.7201 19.4495C19.6008 19.4495 19.5126 19.4174 19.4475 19.3538C19.3823 19.2897 19.3329 19.2131 19.3003 19.1237C19.2678 19.0344 19.2473 18.9425 19.2389 18.8485C19.2305 18.7549 19.2262 18.6782 19.2262 18.6183C19.2262 18.4649 19.2384 18.3436 19.2626 18.2543C19.2866 18.165 19.313 18.093 19.3413 18.0389C19.3754 17.9737 19.4228 17.9165 19.4842 17.8681C19.5451 17.8198 19.6255 17.7956 19.7248 17.7956C19.8241 17.7956 19.9108 17.8219 19.9759 17.8728ZM16.3106 17.566V17.7578L16.5659 17.7919L17.3223 19.6927C17.2767 19.7999 17.2288 19.8976 17.1774 19.9853C17.1259 20.0731 17.0638 20.1477 16.9899 20.2097L16.6189 19.9564C16.5732 19.979 16.5249 20.0137 16.4739 20.0605C16.4224 20.1072 16.3972 20.1718 16.3972 20.2538C16.3972 20.3105 16.4098 20.3583 16.4356 20.3983C16.4613 20.4377 16.4923 20.4702 16.529 20.496C16.5659 20.5212 16.6053 20.5406 16.6462 20.5532C16.6877 20.5658 16.7234 20.5722 16.755 20.5722C16.8117 20.5722 16.8801 20.5574 16.9599 20.5275C17.0391 20.4975 17.1259 20.4335 17.22 20.3342C17.2851 20.2606 17.3476 20.176 17.4075 20.0809C17.4673 19.9859 17.5167 19.8892 17.5567 19.7899L17.5993 19.6922L18.3799 17.7914L18.61 17.7573V17.5655H17.7905V17.7573L18.0164 17.7783L18.0547 17.8424L17.5888 19.0444L17.1269 17.8382L17.1695 17.7783L17.387 17.7573V17.5655L16.3106 17.566ZM14.3541 17.7578L14.6267 17.7793L14.6908 17.8387C14.685 17.9721 14.6751 18.1093 14.6609 18.2495C14.6467 18.3898 14.6262 18.5275 14.5989 18.6625C14.5722 18.7975 14.539 18.923 14.5011 19.0391C14.4629 19.1558 14.4166 19.2535 14.3625 19.3328L14.1113 19.1138C14.0546 19.1195 14.0089 19.1321 13.9748 19.1521C13.9406 19.1721 13.9149 19.1957 13.8981 19.2241C13.8812 19.2524 13.8697 19.2824 13.8639 19.3134C13.8582 19.3444 13.8555 19.3728 13.8555 19.3985C13.8555 19.4805 13.8781 19.5477 13.9238 19.6002C13.9695 19.6528 14.0446 19.679 14.1497 19.679C14.2632 19.679 14.3625 19.647 14.4481 19.5834C14.5333 19.5193 14.6057 19.4353 14.6656 19.3302C14.725 19.2251 14.7733 19.1059 14.8106 18.9724C14.8474 18.839 14.8774 18.7029 14.8999 18.5637C14.9226 18.4245 14.9388 18.2889 14.9488 18.1571C14.9588 18.0252 14.9667 17.9081 14.9725 17.8056H15.397V19.3686L15.3371 19.4279L15.0985 19.4489V19.6407H16.206V19.4489L15.98 19.4279L15.9207 19.368V17.8382L15.98 17.7783L16.206 17.7573V17.5655H14.3541V17.7578ZM12.7223 19.6412V19.4495L12.5054 19.4279L12.4455 19.3686V18.6788H12.5695C12.6404 18.6788 12.7013 18.6987 12.7507 18.7386C12.8006 18.7786 12.8353 18.8238 12.8552 18.8747L13.1026 19.5046V19.6407H13.9249V19.4489L13.6948 19.419L13.6264 19.368L13.3691 18.8779C13.3317 18.8096 13.2781 18.7418 13.2082 18.6735C13.1383 18.6052 13.0532 18.5642 12.9529 18.55V18.5416C13.0155 18.519 13.0617 18.4875 13.0916 18.4481C13.1216 18.4082 13.1452 18.3698 13.162 18.3331L13.2902 18.0436C13.3012 18.021 13.3112 18.0005 13.3202 17.9821C13.3286 17.9637 13.3401 17.9459 13.3543 17.9291L13.6233 18.1072C13.7085 18.0956 13.7699 18.0625 13.8066 18.0068C13.8435 17.9511 13.8618 17.8912 13.8618 17.8256C13.8618 17.7599 13.8497 17.7084 13.8256 17.6701C13.8014 17.6317 13.7714 17.6018 13.7362 17.5808C13.7005 17.5597 13.6638 17.5461 13.6254 17.5403C13.587 17.5345 13.555 17.5319 13.5293 17.5319C13.4242 17.5319 13.3359 17.5681 13.265 17.6406C13.1941 17.7131 13.1316 17.8088 13.0774 17.928L12.9404 18.2306C12.9146 18.2905 12.8825 18.3399 12.8442 18.3798C12.8053 18.4198 12.7522 18.4392 12.6834 18.4392H12.4438V17.8387L12.5037 17.7788L12.7207 17.7578V17.566H11.6348V17.7578L11.8608 17.7788L11.9206 17.8387V19.3686L11.8608 19.4284L11.6348 19.4495V19.6412H12.7223ZM10.179 17.5765C10.044 17.6175 9.92532 17.6816 9.82287 17.7683C9.72042 17.855 9.63899 17.9669 9.57756 18.1045C9.51654 18.2422 9.48613 18.4092 9.48613 18.6052C9.48613 18.7901 9.5145 18.9498 9.57123 19.0843C9.62797 19.2193 9.70572 19.3307 9.80338 19.419C9.90165 19.5067 10.0156 19.5724 10.1464 19.6149C10.2773 19.6575 10.4166 19.679 10.5646 19.679C10.6813 19.679 10.8042 19.6628 10.9335 19.6302C11.0627 19.5976 11.1815 19.5409 11.2896 19.46C11.3974 19.3791 11.4862 19.2687 11.556 19.1295C11.6259 18.9903 11.6606 18.8127 11.6606 18.5968C11.6606 18.486 11.6501 18.3872 11.6285 18.301C11.607 18.2143 11.5802 18.1371 11.5476 18.0688C11.515 18.0005 11.4777 17.9417 11.4368 17.8918C11.3953 17.8419 11.3564 17.8004 11.3196 17.7662C11.2371 17.6921 11.1363 17.6322 11.017 17.585C10.8977 17.5382 10.7595 17.5146 10.6035 17.5146C10.4559 17.5146 10.3135 17.535 10.179 17.5765ZM10.8274 17.8445C10.894 17.9112 10.945 17.9916 10.9808 18.0856C11.016 18.1797 11.0401 18.2748 11.0532 18.3714C11.0659 18.4681 11.0722 18.5464 11.0722 18.6057C11.0722 18.6767 11.0648 18.7607 11.0507 18.8574C11.0365 18.954 11.0107 19.0465 10.9739 19.1342C10.9372 19.2225 10.8856 19.2971 10.8205 19.358C10.7553 19.419 10.6714 19.4495 10.5694 19.4495C10.4675 19.4495 10.3887 19.419 10.3246 19.358C10.2604 19.2971 10.21 19.2225 10.1733 19.1342C10.1364 19.046 10.1107 18.953 10.0965 18.8547C10.0824 18.757 10.0755 18.6693 10.0755 18.5926C10.0755 18.4392 10.0877 18.3157 10.1118 18.2217C10.1359 18.1276 10.1623 18.0525 10.1906 17.9958C10.2022 17.97 10.2185 17.9432 10.2395 17.9149C10.2604 17.8865 10.2862 17.8592 10.3161 17.834C10.3461 17.8082 10.3814 17.7872 10.4228 17.7699C10.4638 17.7531 10.5127 17.7441 10.5694 17.7441C10.6744 17.7441 10.7607 17.7778 10.8274 17.8445ZM7.01955 20.5695H8.1611V20.3778H7.89691L7.83283 20.3011V19.6192C7.90109 19.6276 7.9662 19.6339 8.02875 19.6381C8.0913 19.6423 8.14375 19.6444 8.1863 19.6444C8.37131 19.6444 8.53417 19.6144 8.67438 19.5551C8.8152 19.4957 8.93132 19.4158 9.02224 19.3165C9.09316 19.243 9.15877 19.1411 9.21867 19.0118C9.27857 18.8826 9.30796 18.7203 9.30796 18.5238C9.30796 18.3273 9.2802 18.1739 9.225 18.0446C9.16928 17.9154 9.10051 17.8119 9.01795 17.7336C8.9355 17.6554 8.84826 17.5997 8.75581 17.565C8.66336 17.5308 8.58192 17.514 8.51049 17.514C8.39968 17.514 8.29141 17.5361 8.1863 17.5808C8.0813 17.6254 7.96303 17.6932 7.83221 17.7846V17.5277H7.64048L7.01852 17.7263V17.8975H7.30792V20.2916L7.24863 20.3557L7.01852 20.3772V20.569L7.01955 20.5695ZM7.83334 17.9637C7.92416 17.9249 7.99885 17.9023 8.05712 17.8954C8.11538 17.8886 8.1559 17.8849 8.17845 17.8849C8.27773 17.8849 8.35968 17.9033 8.42386 17.9401C8.48794 17.9769 8.53835 18.0152 8.57509 18.0552C8.60927 18.0951 8.64499 18.1571 8.68172 18.2422C8.71856 18.3273 8.73693 18.446 8.73693 18.5994C8.73693 18.8516 8.67703 19.0507 8.55774 19.1968C8.43855 19.3428 8.28355 19.4158 8.09283 19.4158C8.02773 19.4158 7.97569 19.4132 7.93732 19.4074C7.89895 19.4016 7.86436 19.3948 7.83283 19.3864L7.83334 17.9637ZM5.62676 18.4397V18.6793H6.43219V18.7092C6.43219 18.8568 6.41586 18.9782 6.38331 19.0733C6.35075 19.1684 6.30657 19.2435 6.25147 19.2987C6.19626 19.3538 6.13381 19.3932 6.06442 19.4158C5.99503 19.4384 5.92523 19.45 5.85432 19.45C5.82329 19.45 5.77707 19.4458 5.71615 19.4374C5.65513 19.429 5.5837 19.4048 5.50176 19.3649L5.4592 19.3176L5.41145 18.9498H5.15134V19.5813C5.29318 19.6213 5.42614 19.6475 5.54961 19.6601C5.67298 19.6727 5.77023 19.679 5.84115 19.679C5.99452 19.679 6.14269 19.658 6.28616 19.6149C6.42953 19.5724 6.55515 19.5062 6.6628 19.4169C6.77107 19.3276 6.85719 19.2152 6.92291 19.0807C6.98801 18.9456 7.02108 18.7849 7.02108 18.5973C7.02108 18.3704 6.97903 18.1865 6.89556 18.0457C6.81148 17.9054 6.71005 17.7951 6.59086 17.7158C6.47157 17.6364 6.34657 17.5829 6.21575 17.5561C6.08493 17.5293 5.97299 17.5156 5.87901 17.5156C5.78493 17.5156 5.67931 17.523 5.56115 17.5366C5.44349 17.5508 5.32053 17.5776 5.19236 17.6175V18.1833H5.4492L5.4939 17.8639L5.54482 17.8172C5.57584 17.803 5.61686 17.7872 5.66778 17.7704C5.7187 17.7536 5.78227 17.7452 5.85901 17.7452C5.97779 17.7452 6.07493 17.7678 6.14953 17.8135C6.22463 17.8592 6.28351 17.9159 6.32606 17.9842C6.36861 18.0525 6.39698 18.1255 6.41116 18.2038C6.42535 18.2821 6.43219 18.3536 6.43219 18.4192V18.4402L5.62676 18.4397ZM4.23877 19.6417H4.9843V19.45L4.76256 19.429L4.70745 19.3691V18.2695C4.70745 18.2185 4.70582 18.1665 4.70317 18.114C4.70062 18.0615 4.69276 18.0089 4.6796 17.9564C4.66694 17.9038 4.64857 17.8539 4.62439 17.8072C4.60021 17.7604 4.56714 17.7168 4.52459 17.6769C4.48469 17.6401 4.43847 17.6102 4.38643 17.5876C4.33387 17.565 4.28132 17.5482 4.22877 17.5387C4.17632 17.5287 4.12642 17.5224 4.08009 17.5198C4.03336 17.5172 3.99448 17.5156 3.96295 17.5156C3.9204 17.5156 3.87162 17.5172 3.81641 17.5198C3.76121 17.523 3.70243 17.5298 3.63988 17.5408C3.57733 17.5524 3.51376 17.5671 3.44814 17.5855C3.38304 17.6039 3.31885 17.6301 3.2564 17.6643C3.19385 17.6984 3.14497 17.7331 3.10977 17.7683C3.07405 17.8035 3.04783 17.8371 3.031 17.8681C3.01366 17.8991 3.00315 17.9285 2.99895 17.9553C2.99474 17.9821 2.99264 18.0042 2.99264 18.0215C2.99264 18.0783 3.01366 18.1166 3.0567 18.1366C3.09926 18.1565 3.14344 18.1665 3.18916 18.1665H3.58212V17.7667C3.62151 17.7609 3.65774 17.7562 3.69029 17.752C3.72294 17.7478 3.75437 17.7457 3.7859 17.7457C3.88213 17.7457 3.95723 17.7599 4.01081 17.7883C4.06438 17.8166 4.10428 17.8518 4.12948 17.8933C4.15479 17.9348 4.1705 17.9779 4.17632 18.0236C4.18203 18.0693 4.18469 18.1103 4.18469 18.1476V18.3142C4.14479 18.3226 4.09173 18.3346 4.02499 18.3504C3.95825 18.3662 3.88682 18.384 3.81009 18.4035C3.73345 18.4234 3.65825 18.4434 3.58416 18.4628C3.51008 18.4828 3.44651 18.5028 3.39243 18.5222C3.33834 18.5422 3.28263 18.5663 3.22436 18.5947C3.16599 18.6231 3.11191 18.6609 3.06252 18.7077C3.01261 18.7544 2.97163 18.8106 2.93906 18.8758C2.90649 18.9409 2.8902 19.0192 2.8902 19.1101C2.8902 19.2719 2.93644 19.4074 3.02837 19.5167C3.12079 19.626 3.26324 19.6806 3.456 19.6806C3.58682 19.6806 3.71131 19.6522 3.8306 19.5955C3.94989 19.5388 4.06754 19.4736 4.18418 19.4001L4.23928 19.6433L4.23877 19.6417ZM4.18367 19.2241C4.09275 19.263 4.01713 19.2924 3.95611 19.3129C3.89519 19.3334 3.83478 19.3439 3.77539 19.3439C3.73866 19.3439 3.70192 19.3397 3.66508 19.3313C3.62835 19.3228 3.59518 19.3066 3.56529 19.2824C3.53539 19.2582 3.51069 19.2262 3.4912 19.1868C3.4712 19.1474 3.4613 19.0948 3.4613 19.0297C3.4613 18.9504 3.48233 18.8831 3.52488 18.828C3.56743 18.7728 3.62253 18.7255 3.69029 18.6856C3.75866 18.6462 3.83529 18.6141 3.92203 18.59C4.00815 18.5658 4.0954 18.5453 4.18367 18.5285V19.2241Z" fill="black"/>
<path d="M15.6365 8.04087L14.2762 8.47235V9.56982L15.6365 9.10999V8.04087ZM15.6365 3.98667L14.2762 3.50997V4.63886L15.6365 5.09564V3.98667ZM16.7669 8.76051L21.9999 6.99245V6.18237L16.7669 4.35147V5.44203L20.2563 6.61385L16.7669 7.71975V8.76051Z" fill="#DD001F"/>
<path d="M5.83885 6.76715L9.17801 3.42798H2.23452L2.94419 4.65727H6.20979L4.13976 6.72728L4.77587 7.82936L4.79963 7.86997C4.83794 7.86768 4.87704 7.86691 4.91611 7.86691C6.10172 7.86691 7.06661 8.8318 7.06661 10.0174C7.06661 11.203 6.10172 12.1679 4.91611 12.1679C4.12903 12.1679 3.44005 11.7433 3.06528 11.111L2 11.7272C2.58782 12.7266 3.67456 13.3995 4.91535 13.3995C6.7792 13.3995 8.29589 11.8828 8.29589 10.0189C8.29589 8.47465 7.25514 7.17026 5.83885 6.76715Z" fill="black" fill-opacity="0.4"/>
<path d="M9.50068 7.39712C9.36351 7.15953 9.28379 6.88441 9.28379 6.59087C9.28379 5.69727 10.0103 4.97073 10.904 4.97073C11.501 4.97073 12.0229 5.29644 12.3034 5.7785L13.2468 5.2336C12.777 4.42582 11.9033 3.88169 10.904 3.88169C9.41025 3.88169 8.19553 5.09717 8.19553 6.59011C8.19553 7.08212 8.32812 7.54272 8.55803 7.94049L9.50146 7.39559L9.50068 7.39712Z" fill="black" fill-opacity="0.4"/>
</svg>
