<svg xmlns="http://www.w3.org/2000/svg" width="41" height="24" viewBox="0 0 41 24" fill="none"><rect width="41" height="24" fill="none"/>
<path d="M5.66552 3.00172H6.83318C7.95833 3.00172 8.83965 3.84846 8.83965 4.92915C8.83965 6.012 7.95833 6.86035 6.83318 6.86035C6.42338 6.86035 6.04758 6.85724 5.73973 6.85454C5.71452 6.85419 5.68976 6.85406 5.66552 6.85389V3.00172ZM5.2025 7.77611C5.33883 7.77611 5.51901 7.77775 5.73176 7.77956C6.04177 7.78226 6.42034 7.78548 6.83318 7.78548C8.47766 7.78548 9.76576 6.53078 9.76576 4.92915C9.76576 3.32956 8.47766 2.07661 6.83318 2.07661H5.2025C4.94673 2.07661 4.73942 2.28382 4.73942 2.53921V7.31361C4.73942 7.56907 4.94673 7.77611 5.2025 7.77611Z" fill="#0068FF"/>
<path d="M5.2025 14.6422C5.45818 14.6422 5.66552 14.435 5.66552 14.1797V9.59934C5.66552 9.34385 5.45818 9.13681 5.2025 9.13681C4.94673 9.13681 4.73942 9.34385 4.73942 9.59934V14.1797C4.73942 14.435 4.94673 14.6422 5.2025 14.6422Z" fill="#0068FF"/>
<path d="M13.933 2.9251C15.0394 2.9251 15.9395 3.8242 15.9395 4.92927C15.9395 6.03443 15.0394 6.9335 13.933 6.9335C12.8266 6.9335 11.9265 6.03443 11.9265 4.92927C11.9265 3.8242 12.8266 2.9251 13.933 2.9251ZM13.933 7.85852C15.5501 7.85852 16.8656 6.54446 16.8656 4.92927C16.8656 3.31409 15.5501 2 13.933 2C12.3159 2 11.0005 3.31409 11.0005 4.92927C11.0005 6.54446 12.3159 7.85852 13.933 7.85852Z" fill="#0068FF"/>
<path d="M24.6093 9.8628C25.7155 9.8628 26.6157 10.7617 26.6157 11.867C26.6157 12.9722 25.7155 13.8712 24.6093 13.8712C23.5028 13.8712 22.6027 12.9722 22.6027 11.867C22.6027 10.7617 23.5028 9.8628 24.6093 9.8628ZM21.6767 11.867C21.6767 13.4822 22.9921 14.7964 24.6093 14.7964C26.2262 14.7964 27.5418 13.4822 27.5418 11.867C27.5418 10.2518 26.2262 8.93771 24.6093 8.93771C22.9921 8.93771 21.6767 10.2518 21.6767 11.867Z" fill="#0068FF"/>
<path d="M21.033 7.85852C21.8943 7.85852 22.7083 7.48252 23.267 6.8269C23.3794 6.69504 23.4812 6.55144 23.5696 6.39977C23.6984 6.17909 23.6236 5.8959 23.4026 5.76731C23.1817 5.63873 22.8983 5.71355 22.7695 5.93413C22.7087 6.03837 22.639 6.13692 22.562 6.22745C22.1797 6.67609 21.6224 6.9335 21.033 6.9335C19.9266 6.9335 19.0265 6.03443 19.0265 4.92927C19.0265 3.8242 19.9266 2.9251 21.033 2.9251C21.6007 2.9251 22.1445 3.16687 22.5246 3.58835C22.6066 3.67968 22.6807 3.77857 22.7445 3.88263C22.8784 4.10034 23.1635 4.16805 23.3815 4.03436C23.5995 3.9006 23.6676 3.61575 23.5334 3.39812C23.4403 3.24663 23.3324 3.10269 23.2127 2.96967C22.6571 2.35337 21.8626 2 21.033 2C19.4159 2 18.1004 3.31409 18.1004 4.92927C18.1004 6.54446 19.4159 7.85852 21.033 7.85852Z" fill="#0068FF"/>
<path d="M27.8241 7.85852C28.6079 7.85852 29.5165 7.38676 30.2544 6.59655C30.6248 6.20002 31.0797 5.51873 31.5196 4.86001C31.7146 4.56794 31.9163 4.26603 32.1014 4.00301C32.5481 3.36825 33.2544 2.9251 33.8193 2.9251C34.9257 2.9251 35.8258 3.8242 35.8258 4.92927C35.8258 6.03443 34.9257 6.9335 33.8193 6.9335C33.5782 6.9335 33.3427 6.8914 33.1193 6.80844C32.8797 6.71942 32.6132 6.8411 32.524 7.08048C32.4348 7.31987 32.5569 7.58634 32.7965 7.67536C33.1236 7.79683 33.4675 7.85852 33.8193 7.85852C35.4364 7.85852 36.7517 6.54446 36.7517 4.92927C36.7517 3.31409 35.4364 2 33.8193 2C32.9445 2 31.9729 2.57724 31.3438 3.47099C31.1521 3.74336 30.9474 4.05004 30.7493 4.34662C30.3299 4.97465 29.8965 5.62395 29.5774 5.96556C29.1403 6.43349 28.4503 6.9335 27.8241 6.9335C26.7179 6.9335 25.8177 6.03443 25.8177 4.92927C25.8177 3.8242 26.7179 2.9251 27.8241 2.9251C28.03 2.9251 28.2333 2.95604 28.428 3.01718C28.6715 3.09432 28.9321 2.95875 29.0089 2.71502C29.0858 2.47137 28.9502 2.21172 28.7062 2.13491C28.4214 2.0453 28.1247 2 27.8241 2C26.2072 2 24.8916 3.31409 24.8916 4.92927C24.8916 6.54446 26.2072 7.85852 27.8241 7.85852Z" fill="#0068FF"/>
<path d="M38.5386 2.0767C38.2824 2.0767 38.0755 2.28391 38.0755 2.53929V14.7192C38.0755 15.8085 37.6624 16.1839 36.4956 16.1839H4.50587C3.25787 16.1839 2.92611 15.8843 2.92611 14.7192V2.53929C2.92611 2.28391 2.71873 2.0767 2.46306 2.0767C2.20731 2.0767 2 2.28391 2 2.53929V14.7192C2 16.8218 3.29228 17.1089 4.50587 17.1089H36.4956C38.186 17.1089 39.0016 16.3359 39.0016 14.7192V2.53929C39.0016 2.28391 38.794 2.0767 38.5386 2.0767Z" fill="#0068FF"/>
<path d="M36.3475 13.8896L33.4249 11.9379L36.3475 9.98619C36.5602 9.84434 36.6173 9.55707 36.4751 9.34467C36.3331 9.13237 36.0455 9.07529 35.833 9.21711L32.5918 11.3815L29.3561 9.2207C29.1439 9.07878 28.856 9.13565 28.714 9.34812C28.5717 9.56042 28.6289 9.84765 28.8415 9.98978L31.7588 11.9379L28.8415 13.8861C28.6289 14.0281 28.5717 14.3154 28.714 14.5276C28.8032 14.661 28.9498 14.7334 29.0993 14.7334C29.1879 14.7334 29.2772 14.708 29.3561 14.6551L32.5918 12.4942L35.833 14.6587C35.912 14.7113 36.0012 14.7366 36.0899 14.7366C36.2391 14.7366 36.3858 14.6647 36.4751 14.5313C36.6173 14.3188 36.5602 14.0315 36.3475 13.8896Z" fill="#0068FF"/>
<path d="M10.5428 14.6415C10.2871 14.6415 10.0798 14.4346 10.0798 14.179V12.3688C10.0798 11.8372 9.64542 11.4048 9.11155 11.4048C8.57314 11.4048 8.13506 11.8372 8.13506 12.3688V14.179C8.13506 14.4346 7.92779 14.6415 7.67209 14.6415C7.41643 14.6415 7.20905 14.4346 7.20905 14.179V12.3688C7.20905 11.3271 8.06249 10.4798 9.11155 10.4798C10.1561 10.4798 11.0059 11.3271 11.0059 12.3688V14.179C11.0059 14.4346 10.7986 14.6415 10.5428 14.6415Z" fill="#0068FF"/>
<path d="M17.4829 13.8739C16.3765 13.8739 15.4763 12.9748 15.4763 11.8697C15.4763 10.7646 16.3765 9.86509 17.4829 9.86509C18.5894 9.86509 19.4895 10.7646 19.4895 11.8697C19.4895 12.9748 18.5894 13.8739 17.4829 13.8739ZM17.4829 8.94004C16.0496 8.94004 14.824 9.99399 14.6298 11.3342C14.5911 11.6016 14.5992 11.7296 14.616 11.8398C14.619 11.8591 14.6172 11.8699 14.5983 11.8494C14.4501 11.6889 14.1993 11.4233 14.1007 11.3248C13.89 11.1144 10.9976 8.22519 10.9976 8.22519C10.8168 8.04459 10.5237 8.04459 10.3429 8.22519C10.162 8.4059 10.162 8.69853 10.3429 8.87927C10.3429 8.87927 13.3763 11.9093 13.8814 12.4138C14.3865 12.9184 14.6411 13.1732 15.1215 13.6351C15.9998 14.4795 16.6974 14.799 17.4829 14.799C19.1001 14.799 20.4156 13.4848 20.4156 11.8697C20.4156 10.2545 19.1001 8.94004 17.4829 8.94004Z" fill="#0068FF"/>
<path d="M26.0632 22C25.9465 22 25.8458 21.9606 25.7612 21.8818C25.6795 21.8001 25.6386 21.6965 25.6386 21.571C25.6386 21.4455 25.6795 21.3448 25.7612 21.269C25.8458 21.1902 25.9465 21.1508 26.0632 21.1508C26.1829 21.1508 26.2836 21.1902 26.3653 21.269C26.447 21.3448 26.4878 21.4455 26.4878 21.571C26.4878 21.6965 26.447 21.8001 26.3653 21.8818C26.2836 21.9606 26.1829 22 26.0632 22ZM27.7429 22C27.5415 22 27.3475 21.9766 27.1607 21.93C26.9769 21.8803 26.8309 21.8191 26.723 21.7461L26.9506 21.2558C27.0586 21.3229 27.1855 21.3784 27.3314 21.4222C27.4803 21.463 27.6262 21.4835 27.7692 21.4835C27.9267 21.4835 28.0376 21.4645 28.1018 21.4266C28.169 21.3886 28.2025 21.3361 28.2025 21.269C28.2025 21.2135 28.1763 21.1727 28.1237 21.1464C28.0741 21.1172 28.007 21.0953 27.9224 21.0808C27.8377 21.0662 27.7444 21.0516 27.6422 21.037C27.543 21.0224 27.4423 21.0034 27.3402 20.9801C27.238 20.9538 27.1447 20.9159 27.06 20.8663C26.9754 20.8166 26.9068 20.7495 26.8543 20.6649C26.8047 20.5803 26.7799 20.4708 26.7799 20.3366C26.7799 20.1878 26.8222 20.0565 26.9068 19.9426C26.9944 19.8288 27.1198 19.7398 27.2833 19.6756C27.4467 19.6085 27.6422 19.5749 27.8698 19.5749C28.0303 19.5749 28.1938 19.5925 28.3601 19.6275C28.5264 19.6625 28.665 19.7136 28.7759 19.7807L28.5483 20.2666C28.4345 20.1994 28.3192 20.1542 28.2025 20.1309C28.0887 20.1046 27.9778 20.0915 27.8698 20.0915C27.7181 20.0915 27.6072 20.1119 27.5372 20.1528C27.4671 20.1936 27.4321 20.2461 27.4321 20.3103C27.4321 20.3687 27.4569 20.4125 27.5065 20.4417C27.559 20.4708 27.6276 20.4942 27.7123 20.5117C27.7969 20.5292 27.8888 20.5452 27.988 20.5599C28.0902 20.5715 28.1923 20.5905 28.2944 20.6168C28.3966 20.643 28.4885 20.6809 28.5702 20.7306C28.6549 20.7772 28.7234 20.8429 28.7759 20.9275C28.8285 21.0092 28.8547 21.1172 28.8547 21.2515C28.8547 21.3974 28.811 21.5272 28.7234 21.6411C28.6359 21.7519 28.5089 21.8395 28.3426 21.9037C28.1792 21.9679 27.9793 22 27.7429 22ZM30.4448 22C30.1763 22 29.9399 21.9475 29.7357 21.8424C29.5343 21.7374 29.3782 21.5943 29.2673 21.4134C29.1564 21.2296 29.101 21.0209 29.101 20.7875C29.101 20.5511 29.155 20.3424 29.2629 20.1615C29.3738 19.9777 29.5241 19.8346 29.7138 19.7325C29.9035 19.6275 30.118 19.5749 30.3573 19.5749C30.5878 19.5749 30.795 19.6245 30.9789 19.7238C31.1656 19.8201 31.313 19.9602 31.421 20.144C31.5289 20.3249 31.5829 20.5423 31.5829 20.7962C31.5829 20.8225 31.5815 20.8531 31.5786 20.8882C31.5756 20.9202 31.5727 20.9509 31.5698 20.9801H29.6569V20.5817H31.2109L30.9482 20.6999C30.9482 20.5774 30.9234 20.4708 30.8738 20.3804C30.8242 20.2899 30.7556 20.2199 30.6681 20.1703C30.5805 20.1177 30.4784 20.0915 30.3616 20.0915C30.2449 20.0915 30.1413 20.1177 30.0509 20.1703C29.9633 20.2199 29.8947 20.2914 29.8451 20.3848C29.7955 20.4752 29.7707 20.5832 29.7707 20.7087V20.8137C29.7707 20.9421 29.7984 21.0559 29.8539 21.1552C29.9122 21.2515 29.9925 21.3259 30.0946 21.3784C30.1997 21.428 30.3222 21.4528 30.4623 21.4528C30.5878 21.4528 30.6972 21.4339 30.7906 21.3959C30.8869 21.358 30.9745 21.3011 31.0533 21.2252L31.4166 21.6192C31.3086 21.7417 31.1729 21.8366 31.0095 21.9037C30.8461 21.9679 30.6578 22 30.4448 22ZM32.0376 21.965V18.717H32.7204V21.965H32.0376ZM33.3542 21.965V18.717H34.037V21.965H33.3542ZM35.8396 22C35.5711 22 35.3347 21.9475 35.1304 21.8424C34.9291 21.7374 34.773 21.5943 34.6621 21.4134C34.5511 21.2296 34.4957 21.0209 34.4957 20.7875C34.4957 20.5511 34.5497 20.3424 34.6577 20.1615C34.7686 19.9777 34.9188 19.8346 35.1085 19.7325C35.2982 19.6275 35.5127 19.5749 35.752 19.5749C35.9825 19.5749 36.1897 19.6245 36.3735 19.7238C36.5602 19.8201 36.7076 19.9602 36.8157 20.144C36.9237 20.3249 36.9778 20.5423 36.9778 20.7962C36.9778 20.8225 36.9761 20.8531 36.9733 20.8882C36.9702 20.9202 36.9675 20.9509 36.9644 20.9801H35.0516V20.5817H36.6057L36.3431 20.6999C36.3431 20.5774 36.3181 20.4708 36.2685 20.3804C36.2189 20.2899 36.1503 20.2199 36.0628 20.1703C35.9753 20.1177 35.8731 20.0915 35.7564 20.0915C35.6397 20.0915 35.5361 20.1177 35.4456 20.1703C35.3581 20.2199 35.2895 20.2914 35.2399 20.3848C35.1902 20.4752 35.1654 20.5832 35.1654 20.7087V20.8137C35.1654 20.9421 35.1932 21.0559 35.2486 21.1552C35.307 21.2515 35.3872 21.3259 35.4894 21.3784C35.5944 21.428 35.717 21.4528 35.8571 21.4528C35.9825 21.4528 36.092 21.4339 36.1854 21.3959C36.2818 21.358 36.3694 21.3011 36.448 21.2252L36.8112 21.6192C36.7035 21.7417 36.5677 21.8366 36.4043 21.9037C36.2408 21.9679 36.0526 22 35.8396 22ZM37.4323 21.965V19.61H38.0844V20.2753L37.9928 20.0827C38.0625 19.9164 38.175 19.7909 38.3296 19.7063C38.4842 19.6187 38.6726 19.5749 38.8942 19.5749V20.2053C38.8652 20.2023 38.8388 20.2009 38.8156 20.2009C38.7923 20.198 38.7674 20.1965 38.741 20.1965C38.5543 20.1965 38.4025 20.2505 38.2859 20.3585C38.172 20.4636 38.1152 20.6284 38.1152 20.8531V21.965H37.4323Z" fill="#0068FF"/>
</svg>
