<svg xmlns="http://www.w3.org/2000/svg" width="87" height="24" viewBox="0 0 87 24" fill="none"><rect width="87" height="24" fill="none"/>
<path d="M5.74997 2C3.19443 2 2 3.44448 2 5.69442V8.30552C2 10.6389 2.41666 11.6389 4.11107 12.6945L5.41662 13.5C6.47218 14.1389 6.61105 14.6111 6.61105 15.9722V18.2778C6.61105 18.9444 6.3055 19.3611 5.72223 19.3611C5.13889 19.3611 4.83327 18.9722 4.83327 18.2778V14.6667H2V18.3056C2 20.5833 3.16662 22 5.69442 22C8.30552 22 9.49995 20.5 9.49995 18.3056V15.4722C9.49995 13.3055 8.94442 12.1945 7.33332 11.1667L6.02777 10.3333C5.11107 9.75 4.8889 9.33334 4.8889 7.83336V5.72223C4.8889 5.05558 5.19444 4.63885 5.74997 4.63885C6.33332 4.63885 6.66667 5.05558 6.66667 5.72223V9.30559H9.49995V5.69442C9.49995 3.47223 8.30552 2 5.74997 2Z" fill="white"/>
<path d="M10.3889 5.05555H12.3889V21.7222H15.2777V5.05555H17.2778V2.27776H10.3889V5.05555Z" fill="white"/>
<path d="M36.1667 2.27779V5.05557H38.1667V21.7223H41.0556V5.05557H43.0556V2.27779H36.1667Z" fill="white"/>
<path d="M20.8986 13.8889L21.5779 4.91665H21.922L22.6014 13.8889H20.8986ZM19.0555 2.27781L17.4444 21.7222H20.3055L20.6988 16.5277H22.8011L23.1944 21.7222H26.1111L24.5 2.27781H19.0555Z" fill="white"/>
<path d="M32.3611 9.13888C32.3611 10.5278 32.0556 10.9445 31.1111 10.9445H30.4722V4.91668H31.2222C32.1111 4.91668 32.3611 5.27779 32.3611 6.7222V9.13888ZM35.1111 20.25V15.1945C35.1111 13.5833 34.5 12.6945 33.0278 12.3889V12.0555C34.5 11.8334 35.25 10.75 35.25 9.00001V5.69445C35.25 3.55557 33.9723 2.27777 31.5 2.27777H27.5833V21.7222H30.4722V13.5833H32.2222V20.25C32.2222 21.3611 32.6945 21.7222 32.6945 21.7222H35.5834C35.5834 21.7222 35.1111 21.3611 35.1111 20.25Z" fill="white"/>
<path d="M50.8508 8.76036V8.71188C50.8508 7.8676 50.4012 7.29036 49.642 7.29036C48.8887 7.29036 48.4332 7.84313 48.4332 8.71785V8.76653C48.4332 9.65338 48.943 10.2001 49.6538 10.2001C50.3888 10.2001 50.8508 9.63501 50.8508 8.76036ZM47.4063 8.77249V8.72395C47.4063 7.43014 48.354 6.51285 49.642 6.51285C50.9477 6.51285 51.8771 7.3938 51.8771 8.69975V8.74822C51.8771 10.0421 50.9902 10.9836 49.6355 10.9836C48.2748 10.9836 47.4063 10.0421 47.4063 8.77249Z" fill="white"/>
<path d="M52.7426 6.5737H53.7264V8.34734H55.4698V6.5737H56.4541V10.9168H55.4698V9.12491H53.7264V10.9168H52.7426V6.5737Z" fill="white"/>
<path d="M57.5437 10.9836C57.3311 10.9836 57.2034 10.9168 57.2034 10.9168V10.115C57.2034 10.115 57.2519 10.1393 57.3736 10.1393C57.6955 10.1393 57.8415 9.78097 57.9083 9.10061C57.9691 8.42032 57.9869 7.5456 57.9869 6.57367H61.0425V10.9168H60.0583V7.35124H58.8742C58.8619 7.96475 58.8376 8.69359 58.7767 9.31334C58.6799 10.2911 58.3939 10.9836 57.5437 10.9836Z" fill="white"/>
<path d="M63.2198 9.25249H64.3678L63.7969 7.37547L63.2198 9.25249ZM63.2139 6.57369H64.4953L65.905 10.9168H64.8782L64.5804 9.95108H63.0071L62.7099 10.9168H61.7864L63.2139 6.57369Z" fill="white"/>
<path d="M67.6079 5.43167H68.2336C68.2519 5.62603 68.3369 5.79618 68.5373 5.79618C68.7376 5.79618 68.835 5.63226 68.8593 5.43167H69.4785C69.4423 5.96634 69.0778 6.31852 68.5373 6.31852C67.9784 6.31852 67.6381 5.96634 67.6079 5.43167ZM66.6543 10.9168V6.57369H67.6381V9.61083L69.4607 6.57369H70.4445V10.9168H69.4607V7.85523L67.6381 10.9168H66.6543Z" fill="white"/>
<path d="M71.5345 6.5737H72.5183V8.34734H74.2618V6.5737H75.2461V10.9168H74.2618V9.12491H72.5183V10.9168H71.5345V6.5737Z" fill="white"/>
<path d="M76.1898 8.57215H77.9031V9.29502H76.1898V8.57215Z" fill="white"/>
<path d="M47.4063 13.055H48.3902V14.9258L49.909 13.0488H50.9536L49.2344 15.1081L51.0387 17.3981H49.8907L48.3902 15.4481V17.3981H47.4063V13.055Z" fill="white"/>
<path d="M51.7277 17.3981V13.055H52.7115V16.0921L54.5341 13.055H55.5178V17.3981H54.5341V14.3365L52.7115 17.3981H51.7277Z" fill="white"/>
<path d="M56.6079 13.055H57.5917V14.8286H59.3352V13.055H60.3194V17.3981H59.3352V15.6061H57.5917V17.3981H56.6079V13.055Z" fill="white"/>
<path d="M64.6225 15.2416V15.1931C64.6225 14.3489 64.1729 13.7717 63.4137 13.7717C62.6604 13.7717 62.2049 14.3244 62.2049 15.1991V15.2478C62.2049 16.1346 62.7148 16.6814 63.4255 16.6814C64.1606 16.6814 64.6225 16.1163 64.6225 15.2416ZM61.1781 15.2538V15.2053C61.1781 13.9114 62.1257 12.9942 63.4137 12.9942C64.7194 12.9942 65.6488 13.8751 65.6488 15.1811V15.2295C65.6488 16.5234 64.7619 17.4649 63.4073 17.4649C62.0465 17.4649 61.1781 16.5234 61.1781 15.2538Z" fill="white"/>
<path d="M67.1821 13.8204H66.0098V13.055H69.3444V13.8204H68.1722V17.3981H67.1821V13.8204Z" fill="white"/>
<path d="M70.1121 13.055H72.9427V13.8204H71.0899V14.8348H72.5722V15.5515H71.0899V16.6327H73.0396V17.3981H70.1121V13.055Z" fill="white"/>
<path d="M74.9735 15.7337H76.1215L75.5508 13.8567L74.9735 15.7337ZM74.9676 13.055H76.2491L77.6587 17.3981H76.6319L76.3342 16.4323H74.7609L74.4636 17.3981H73.5402L74.9676 13.055Z" fill="white"/>
<path d="M78.8329 13.8204H77.6607V13.055H80.9953V13.8204H79.8231V17.3981H78.8329V13.8204Z" fill="white"/>
<path d="M83.2388 15.1323C83.7186 15.1323 83.9738 14.9016 83.9738 14.4703V14.4461C83.9738 13.9843 83.7067 13.8021 83.2388 13.8021H82.7408V15.1323H83.2388ZM81.7629 13.055H83.263C84.32 13.055 84.9215 13.5226 84.9215 14.4398V14.4641C84.9215 15.3813 84.2834 15.8188 83.2937 15.8188H82.7408V17.3981H81.7629V13.055Z" fill="white"/>
</svg>
