<svg xmlns="http://www.w3.org/2000/svg" width="24" height="24" viewBox="0 0 24 24" fill="none"><rect width="24" height="24" fill="none"/>
<path d="M2.029 20.358C2.04948 20.3784 2.07358 20.3881 2.10247 20.3881H2.52041C2.55173 20.3881 2.57824 20.3784 2.59871 20.3605C2.61919 20.3412 2.62883 20.3159 2.62883 20.2847V19.2687H3.2684C3.61889 19.2687 3.89471 19.1882 4.09464 19.0283C4.29459 18.8671 4.39456 18.6314 4.39456 18.3188C4.39456 18.0037 4.29459 17.7633 4.09464 17.5974C3.89591 17.4315 3.62009 17.3485 3.2696 17.3485H2.10367C2.07117 17.3485 2.04587 17.358 2.0278 17.3786C2.00853 17.399 2.00009 17.4255 2.00009 17.4567V20.2834C1.99889 20.3135 2.00973 20.3376 2.029 20.358ZM2.62159 17.8355H3.24791C3.42257 17.8355 3.55144 17.8776 3.63695 17.9616C3.72247 18.0459 3.76582 18.1625 3.76582 18.314C3.76582 18.4679 3.72127 18.5846 3.63334 18.6639C3.54542 18.7433 3.41653 18.7829 3.24791 18.7829H2.62159V17.8355Z" fill="white"/>
<path d="M5.08009 20.2834C5.08009 20.3124 5.08971 20.3376 5.11018 20.3569C5.13066 20.3773 5.15476 20.387 5.18367 20.387H5.58355C5.61605 20.387 5.64135 20.3773 5.66183 20.3569C5.6823 20.3365 5.69194 20.3124 5.69194 20.2834V19.241H6.28814L6.8446 20.2703C6.86509 20.3051 6.88797 20.3328 6.91445 20.3545C6.94096 20.376 6.97709 20.387 7.02287 20.387H7.42275C7.44563 20.387 7.4673 20.3784 7.48537 20.3605C7.50465 20.3436 7.51428 20.3208 7.51428 20.2954C7.51428 20.281 7.50947 20.2654 7.50103 20.2475L6.8699 19.14C7.05297 19.0762 7.19511 18.9729 7.29627 18.8297C7.39744 18.6868 7.44803 18.5087 7.44803 18.2983C7.44803 17.9941 7.34686 17.7596 7.14572 17.595C6.94698 17.4315 6.66755 17.3486 6.31104 17.3486H5.18487C5.15235 17.3486 5.12705 17.358 5.10898 17.3786C5.08971 17.399 5.08129 17.4255 5.08129 17.4567L5.08009 20.2834ZM5.69315 17.8355H6.29778C6.47123 17.8355 6.6025 17.8752 6.68922 17.9545C6.77594 18.0338 6.81931 18.1481 6.81931 18.2947C6.81931 18.4427 6.77594 18.5545 6.68922 18.6314C6.6025 18.7083 6.47123 18.7468 6.29778 18.7468H5.69315V17.8355Z" fill="white"/>
<path d="M10.3448 19.8844H8.88382V19.0979H10.2147C10.2461 19.0979 10.2726 19.0883 10.293 19.0704C10.3135 19.0511 10.3231 19.0257 10.3231 18.9945V18.7204C10.3231 18.6892 10.3135 18.6628 10.293 18.6422C10.2726 18.6217 10.2461 18.6123 10.2147 18.6123H8.88382V17.8522H10.3111C10.3424 17.8522 10.3689 17.8426 10.3894 17.8247C10.4099 17.8054 10.4195 17.7801 10.4195 17.7489V17.4567C10.4195 17.4255 10.4099 17.399 10.3894 17.3786C10.3677 17.358 10.3412 17.3486 10.3099 17.3486H8.3912C8.35868 17.3486 8.33338 17.358 8.31531 17.3786C8.29604 17.399 8.28762 17.4255 8.28762 17.4567V20.2834C8.28762 20.3124 8.29725 20.3376 8.31774 20.3569C8.33821 20.3773 8.36229 20.387 8.3912 20.387H10.3448C10.3761 20.387 10.4026 20.3773 10.4231 20.3593C10.4436 20.3399 10.4532 20.3148 10.4532 20.2834V19.9877C10.4532 19.9564 10.4424 19.9299 10.4231 19.9119C10.4026 19.8938 10.3761 19.8844 10.3448 19.8844Z" fill="white"/>
<path d="M14.0024 17.3486H13.6543C13.5989 17.3486 13.5556 17.3761 13.5243 17.4315L12.6848 18.9862L11.8453 17.4315C11.8127 17.3761 11.7694 17.3486 11.714 17.3486H11.3611C11.3285 17.3486 11.3033 17.358 11.2852 17.3786C11.2659 17.399 11.2575 17.4255 11.2575 17.4567V20.2834C11.2575 20.3124 11.2671 20.3376 11.2876 20.3569C11.3081 20.3773 11.3322 20.387 11.3611 20.387H11.7357C11.767 20.387 11.7923 20.3773 11.8115 20.3569C11.8308 20.3365 11.8392 20.3124 11.8392 20.2834V18.4163L12.4439 19.5621C12.4812 19.6259 12.5306 19.657 12.592 19.657H12.7751C12.8389 19.657 12.8871 19.6259 12.9184 19.5621L13.5231 18.4163V20.2834C13.5231 20.3124 13.5327 20.3376 13.5532 20.3569C13.5737 20.3773 13.5977 20.387 13.6267 20.387H14.0012C14.0325 20.387 14.0591 20.3773 14.0795 20.3593C14.1 20.3399 14.1096 20.3148 14.1096 20.2834V17.4567C14.1096 17.4255 14.0988 17.399 14.0795 17.3786C14.0603 17.358 14.0338 17.3486 14.0024 17.3486Z" fill="white"/>
<path d="M15.5719 17.3486H15.154C15.1251 17.3486 15.0998 17.358 15.0805 17.3761C15.06 17.3954 15.0504 17.4206 15.0504 17.4519V20.2834C15.0504 20.3124 15.06 20.3376 15.0805 20.3569C15.101 20.3773 15.1251 20.387 15.154 20.387H15.5719C15.6032 20.387 15.6297 20.3773 15.6478 20.3569C15.6671 20.3365 15.6767 20.3124 15.6767 20.2834V17.4519C15.6767 17.4206 15.6671 17.3941 15.6478 17.3761C15.6297 17.358 15.6032 17.3486 15.5719 17.3486Z" fill="white"/>
<path d="M18.6759 19.8844H17.2148V19.0979H18.5458C18.5771 19.0979 18.6035 19.0883 18.624 19.0704C18.6446 19.0511 18.6542 19.0257 18.6542 18.9945V18.7204C18.6542 18.6892 18.6446 18.6628 18.624 18.6422C18.6035 18.6217 18.5771 18.6123 18.5458 18.6123H17.2148V17.8522H18.6422C18.6734 17.8522 18.7 17.8426 18.7204 17.8247C18.7408 17.8054 18.7505 17.7801 18.7505 17.7489V17.4567C18.7505 17.4255 18.7408 17.399 18.7204 17.3786C18.6987 17.358 18.6723 17.3486 18.6409 17.3486H16.7222C16.6897 17.3486 16.6644 17.358 16.6464 17.3786C16.627 17.399 16.6187 17.4255 16.6187 17.4567V20.2834C16.6187 20.3124 16.6283 20.3376 16.6487 20.3569C16.6691 20.3773 16.6934 20.387 16.7222 20.387H18.6759C18.7071 20.387 18.7337 20.3773 18.7541 20.3593C18.7745 20.3399 18.7842 20.3148 18.7842 20.2834V19.9877C18.7842 19.9564 18.7734 19.9299 18.7541 19.9119C18.7337 19.8938 18.7071 19.8844 18.6759 19.8844Z" fill="white"/>
<path d="M19.596 20.358C19.6164 20.3784 19.6405 20.3881 19.6695 20.3881H20.0692C20.1019 20.3881 20.127 20.3784 20.1476 20.358C20.1681 20.3376 20.1777 20.3135 20.1777 20.2847V19.2423H20.7738L21.3304 20.2714C21.3508 20.3064 21.3736 20.3339 21.4002 20.3556C21.4267 20.3773 21.4628 20.3881 21.5085 20.3881H21.9085C21.9313 20.3881 21.953 20.3797 21.9712 20.3616C21.9903 20.3449 22 20.3219 22 20.2967C22 20.2823 21.9953 20.2666 21.9867 20.2486L21.3556 19.1413C21.5388 19.0775 21.6808 18.9741 21.782 18.831C21.8831 18.6879 21.9338 18.51 21.9338 18.2996C21.9338 17.9954 21.8326 17.7609 21.6314 17.5961C21.4316 17.4315 21.1521 17.3486 20.7955 17.3486H19.6695C19.6368 17.3486 19.6115 17.358 19.5934 17.3786C19.5743 17.3991 19.5657 17.4255 19.5657 17.4567V20.2834C19.5646 20.3135 19.5754 20.3376 19.596 20.358ZM20.7822 17.8342C20.9558 17.8342 21.087 17.8739 21.1738 17.9532C21.2604 18.0327 21.3038 18.1468 21.3038 18.2936C21.3038 18.4414 21.2604 18.5532 21.1738 18.6303C21.087 18.7072 20.9558 18.7457 20.7822 18.7457H20.1777V17.8342H20.7822Z" fill="white"/>
<path d="M17.5037 8.64303C17.4625 8.53675 17.3675 8.43049 17.2192 8.34873L9.11379 3.71348C8.70544 3.4764 8.36719 3.66851 8.36719 4.13857V13.4173C8.36719 13.8873 8.70544 14.0794 9.11379 13.8465L17.2233 9.20711C17.3675 9.12126 17.4625 9.01908 17.5079 8.9128C17.5243 8.86785 17.5327 8.82289 17.5327 8.77792C17.5327 8.73296 17.5243 8.68799 17.5037 8.64303Z" fill="white"/>
</svg>
