<svg xmlns="http://www.w3.org/2000/svg" width="127" height="24" viewBox="0 0 127 24" fill="none"><rect width="127" height="24" fill="none"/>
<path d="M17.9957 2.21667C17.6928 2.79044 17.3617 3.47799 16.975 4.28112L16.9729 4.28547L12.7223 13.1148C12.1184 14.3692 11.6615 15.3181 11.4197 16.0697C11.4054 16.1143 11.3918 16.1582 11.3789 16.2014C11.2339 16.6903 11.1876 17.0931 11.2603 17.4427C11.2668 17.4737 11.2742 17.5042 11.2825 17.5344C11.3194 17.668 11.375 17.7939 11.4504 17.914C12.0385 18.8499 13.4678 18.8499 16.3264 18.8499H21.5953C21.999 17.443 22 15.4583 22 12.4918V11.5082C22 7.026 22 4.7849 20.6076 3.3924C19.9642 2.7491 19.1387 2.40287 17.9957 2.21667Z" fill="#00D9ED"/>
<path d="M12.7223 13.1148L14.5235 9.37343C13.7583 8.13723 13.2038 7.49873 12.4842 7.41363C12.328 7.39514 12.1702 7.39514 12.014 7.41363C11.0183 7.53143 10.3388 8.70843 8.97979 11.0622C7.62079 13.4161 6.94129 14.593 7.33709 15.5142C7.39917 15.6587 7.47808 15.7954 7.57219 15.9214C8.06156 16.5767 9.05604 16.6975 10.8814 16.7197C11.003 16.7212 11.1284 16.7222 11.2576 16.7229C11.2831 16.5603 11.3239 16.3871 11.3789 16.2014C11.3918 16.1582 11.4054 16.1143 11.4197 16.0697C11.6615 15.3181 12.1184 14.3692 12.7223 13.1148Z" fill="white"/>
<path fill-rule="evenodd" clip-rule="evenodd" d="M34.8883 17.1504H32.4733L29.0371 7.42143H30.8173L33.5635 15.4392H33.8395L36.6823 7.42143H38.4349L34.8883 17.1504ZM43.0327 12.1134L47.5039 17.1504H45.3235L41.6803 12.9828H41.2663V17.1504H39.6103V7.42143H41.2663V11.382H41.6665L45.1165 7.42143H47.1589L43.0327 12.1134ZM55.0683 17.1504H52.5429L50.1279 7.42143H51.8391L53.7849 15.4392H54.0057L56.0619 7.42143H57.8835L59.8431 15.4392H60.0639L62.1753 7.42143H63.8589L61.2783 17.1504H58.7253L57.0555 10.14H56.8347L55.0683 17.1504ZM67.759 17.2884C67.023 17.2884 66.3606 17.132 65.7718 16.8192C65.1922 16.4972 64.7368 16.0556 64.4056 15.4944C64.0836 14.924 63.9226 14.28 63.9226 13.5624C63.9226 12.8448 64.0836 12.2054 64.4056 11.6442C64.7368 11.0738 65.1922 10.6322 65.7718 10.3194C66.3606 9.99743 67.023 9.83643 67.759 9.83643C68.495 9.83643 69.1528 9.99743 69.7324 10.3194C70.3212 10.6322 70.7766 11.0738 71.0986 11.6442C71.4298 12.2054 71.5954 12.8448 71.5954 13.5624C71.5954 14.28 71.4298 14.924 71.0986 15.4944C70.7766 16.0556 70.3212 16.4972 69.7324 16.8192C69.1528 17.132 68.495 17.2884 67.759 17.2884ZM67.759 15.8394C68.403 15.8394 68.9274 15.6324 69.3322 15.2184C69.737 14.7952 69.9394 14.2432 69.9394 13.5624C69.9394 12.8816 69.737 12.3342 69.3322 11.9202C68.9274 11.497 68.403 11.2854 67.759 11.2854C67.115 11.2854 66.5906 11.497 66.1858 11.9202C65.781 12.3342 65.5786 12.8816 65.5786 13.5624C65.5786 14.2432 65.781 14.7952 66.1858 15.2184C66.5906 15.6324 67.115 15.8394 67.759 15.8394ZM72.975 17.1504V9.97443H74.1618L74.4654 11.0094C74.6954 10.6322 74.9668 10.3654 75.2796 10.209C75.6016 10.0526 75.988 9.97443 76.4388 9.97443H76.7424L76.8804 11.4924H75.9696C75.0312 11.4924 74.562 11.9662 74.562 12.9138V17.1504H72.975ZM84.5311 17.1504H82.4473L79.9633 14.2938H79.5769V17.1504H77.9899V7.42143H79.5769V12.762H79.9633L82.3645 9.97443H84.2551L81.2329 13.4244L84.5311 17.1504ZM88.698 17.2884C87.7964 17.2884 87.0006 17.0492 86.3106 16.5708C85.6298 16.0832 85.1744 15.43 84.9444 14.6112L86.5452 14.3352C86.812 14.8228 87.111 15.1862 87.4422 15.4254C87.7734 15.6554 88.1966 15.7704 88.7118 15.7704C89.1902 15.7704 89.5812 15.6646 89.8848 15.453C90.1976 15.2322 90.354 14.9332 90.354 14.556C90.354 14.28 90.2666 14.05 90.0918 13.866C89.917 13.6728 89.6962 13.5164 89.4294 13.3968C89.1626 13.2772 88.8084 13.1438 88.3668 12.9966C87.7504 12.7942 87.2444 12.5964 86.8488 12.4032C86.4532 12.2008 86.1128 11.911 85.8276 11.5338C85.5516 11.1474 85.4136 10.6506 85.4136 10.0434C85.4136 9.48223 85.5516 8.99463 85.8276 8.58063C86.1128 8.15743 86.4946 7.83543 86.973 7.61463C87.4514 7.39383 87.9896 7.28343 88.5876 7.28343C89.434 7.28343 90.1608 7.50423 90.768 7.94583C91.3752 8.38743 91.803 8.99463 92.0514 9.76743L90.4782 10.0296C90.3034 9.63403 90.0596 9.33043 89.7468 9.11883C89.434 8.90723 89.066 8.80143 88.6428 8.80143C88.2104 8.80143 87.847 8.90263 87.5526 9.10503C87.2582 9.30743 87.111 9.59263 87.111 9.96063C87.111 10.2366 87.1938 10.4666 87.3594 10.6506C87.5342 10.8346 87.755 10.9864 88.0218 11.106C88.2886 11.2256 88.6474 11.3636 89.0982 11.52C89.7146 11.7316 90.2206 11.9386 90.6162 12.141C91.0118 12.3434 91.3476 12.6378 91.6236 13.0242C91.9088 13.4106 92.0514 13.9028 92.0514 14.5008C92.0514 15.062 91.8996 15.5542 91.596 15.9774C91.3016 16.4006 90.8968 16.7272 90.3816 16.9572C89.8756 17.178 89.3144 17.2884 88.698 17.2884ZM93.5672 19.9794V9.97443H94.754L95.0852 11.1336C95.3796 10.7748 95.7568 10.4712 96.2168 10.2228C96.6768 9.96523 97.2058 9.83643 97.8038 9.83643C98.4754 9.83643 99.078 9.99743 99.6116 10.3194C100.145 10.6322 100.559 11.0738 100.854 11.6442C101.157 12.2054 101.309 12.8448 101.309 13.5624C101.309 14.28 101.157 14.924 100.854 15.4944C100.559 16.0556 100.145 16.4972 99.6116 16.8192C99.078 17.132 98.4754 17.2884 97.8038 17.2884C97.2242 17.2884 96.709 17.1734 96.2582 16.9434C95.8074 16.7042 95.4394 16.4098 95.1542 16.0602V19.9794H93.5672ZM97.4174 15.867C98.0798 15.867 98.618 15.6554 99.032 15.2322C99.446 14.7998 99.653 14.2432 99.653 13.5624C99.653 12.8816 99.446 12.3296 99.032 11.9064C98.618 11.474 98.0798 11.2578 97.4174 11.2578C96.7458 11.2578 96.1984 11.474 95.7752 11.9064C95.3612 12.3296 95.1542 12.8816 95.1542 13.5624C95.1542 14.2432 95.3612 14.7998 95.7752 15.2322C96.1984 15.6554 96.7458 15.867 97.4174 15.867ZM105.616 9.83643C106.536 9.83643 107.259 10.1262 107.783 10.7058C108.317 11.2762 108.583 12.0812 108.583 13.1208V17.1504H107.41L107.079 16.0188C106.877 16.3592 106.578 16.6582 106.182 16.9158C105.787 17.1642 105.317 17.2884 104.775 17.2884C104.296 17.2884 103.864 17.1918 103.477 16.9986C103.1 16.8054 102.806 16.534 102.594 16.1844C102.383 15.8348 102.277 15.4392 102.277 14.9976C102.277 14.3168 102.544 13.774 103.077 13.3692C103.62 12.9552 104.407 12.7482 105.437 12.7482H106.983C106.946 12.2698 106.799 11.8926 106.541 11.6166C106.293 11.3314 105.957 11.1888 105.534 11.1888C105.193 11.1888 104.899 11.2716 104.65 11.4372C104.402 11.6028 104.218 11.8052 104.098 12.0444L102.636 11.796C102.81 11.1888 103.169 10.7104 103.712 10.3608C104.264 10.0112 104.899 9.83643 105.616 9.83643ZM105.147 15.9498C105.699 15.9498 106.145 15.7704 106.486 15.4116C106.826 15.0528 106.996 14.579 106.996 13.9902H105.492C104.416 13.9902 103.878 14.303 103.878 14.9286C103.878 15.2414 103.993 15.4898 104.223 15.6738C104.453 15.8578 104.761 15.9498 105.147 15.9498ZM113.631 17.2884C112.913 17.2884 112.269 17.132 111.699 16.8192C111.128 16.4972 110.682 16.0556 110.36 15.4944C110.047 14.924 109.891 14.28 109.891 13.5624C109.891 12.8448 110.047 12.2054 110.36 11.6442C110.682 11.0738 111.128 10.6322 111.699 10.3194C112.269 9.99743 112.913 9.83643 113.631 9.83643C114.422 9.83643 115.121 10.0342 115.728 10.4298C116.345 10.8162 116.782 11.3682 117.039 12.0858L115.549 12.3342C115.393 12.0214 115.149 11.7684 114.818 11.5752C114.496 11.382 114.132 11.2854 113.727 11.2854C113.083 11.2854 112.559 11.497 112.154 11.9202C111.749 12.3434 111.547 12.8908 111.547 13.5624C111.547 14.234 111.749 14.7814 112.154 15.2046C112.559 15.6278 113.083 15.8394 113.727 15.8394C114.151 15.8394 114.528 15.7428 114.859 15.5496C115.19 15.3472 115.439 15.085 115.604 14.763L117.095 15.0114C116.837 15.7382 116.391 16.2994 115.756 16.695C115.121 17.0906 114.413 17.2884 113.631 17.2884ZM125.24 13.4796C125.24 13.6176 125.231 13.7878 125.213 13.9902H119.444C119.518 14.5514 119.748 15.0022 120.134 15.3426C120.521 15.6738 121.013 15.8394 121.611 15.8394C122.016 15.8394 122.379 15.7612 122.701 15.6048C123.032 15.4484 123.285 15.2368 123.46 14.97L124.951 15.2184C124.693 15.8808 124.247 16.3914 123.612 16.7502C122.986 17.109 122.287 17.2884 121.514 17.2884C120.797 17.2884 120.153 17.132 119.582 16.8192C119.021 16.4972 118.579 16.0556 118.257 15.4944C117.945 14.924 117.788 14.28 117.788 13.5624C117.788 12.8448 117.945 12.2054 118.257 11.6442C118.579 11.0738 119.021 10.6322 119.582 10.3194C120.153 9.99743 120.797 9.83643 121.514 9.83643C122.232 9.83643 122.871 9.99743 123.433 10.3194C124.003 10.6322 124.444 11.0692 124.757 11.6304C125.079 12.1824 125.24 12.7988 125.24 13.4796ZM121.514 11.2164C121.036 11.2164 120.617 11.3544 120.258 11.6304C119.909 11.9064 119.67 12.279 119.541 12.7482H123.515C123.377 12.2882 123.129 11.9202 122.77 11.6442C122.42 11.359 122.002 11.2164 121.514 11.2164Z" fill="black"/>
<path d="M20.6076 3.3924C19.2151 2 16.974 2 12.4918 2H11.5082C7.026 2 4.7849 2 3.3924 3.3924C2 4.785 2 7.026 2 11.5082V12.4918C2 16.974 2 19.2151 3.3924 20.6076C4.785 22 7.026 22 11.5082 22H12.4918C16.974 22 19.2151 22 20.6076 20.6076C22 19.2151 22 16.974 22 12.4918C22 15.4583 21.999 17.443 21.5953 18.8499H16.3264C13.4678 18.8499 12.0385 18.8499 11.4504 17.914C11.375 17.7939 11.3194 17.668 11.2825 17.5344C11.2742 17.5042 11.2668 17.4737 11.2603 17.4427C11.2152 17.2259 11.2159 16.9886 11.2576 16.7229C11.1284 16.7222 11.003 16.7212 10.8814 16.7197C9.05604 16.6975 8.06156 16.5767 7.57219 15.9214C7.47808 15.7954 7.39917 15.6587 7.33709 15.5142C6.94129 14.593 7.62079 13.4161 8.97979 11.0622C10.3388 8.70843 11.0183 7.53143 12.014 7.41363C12.1702 7.39514 12.328 7.39514 12.4842 7.41363C13.2038 7.49873 13.7583 8.13723 14.5235 9.37343L16.9729 4.28547L16.975 4.28112C17.3617 3.47799 17.6928 2.79044 17.9957 2.21667C19.1387 2.40287 19.9642 2.7491 20.6076 3.3924Z" fill="#0077FF"/>
</svg>
