<svg xmlns="http://www.w3.org/2000/svg" width="24" height="24" viewBox="0 0 24 24" fill="none"><rect width="24" height="24" fill="none"/>
<path d="M4.79743 12.9143C5.01041 12.9143 5.18342 12.7414 5.18342 12.5283V12.2043C5.18342 12.1654 5.21493 12.1339 5.25391 12.1339H6.91489C6.95387 12.1339 6.98538 12.1654 6.98538 12.2043V12.5288C6.98538 13.7368 6.00591 14.7163 4.79792 14.7163C3.58996 14.7163 2.61049 13.7368 2.61049 12.5288V11.7339C2.6105 11.7246 2.60868 11.7154 2.60514 11.7069C2.6016 11.6983 2.59641 11.6905 2.58986 11.684C2.58332 11.6774 2.57554 11.6722 2.56699 11.6687C2.55843 11.6652 2.54926 11.6634 2.54 11.6634H2.07049C2.06123 11.6634 2.05206 11.6616 2.0435 11.658C2.03495 11.6545 2.02717 11.6493 2.02062 11.6427C2.01408 11.6362 2.00888 11.6284 2.00535 11.6199C2.00181 11.6113 1.99999 11.6021 2 11.5929V10.3199C2 10.2809 2.03151 10.2494 2.07049 10.2494H2.53947C2.54873 10.2494 2.55791 10.2476 2.56647 10.2441C2.57503 10.2405 2.58281 10.2353 2.58936 10.2288C2.59591 10.2222 2.60111 10.2145 2.60465 10.2059C2.60819 10.1974 2.61001 10.1882 2.61 10.1789V9.37394C2.61 9.33492 2.64147 9.30344 2.68049 9.30344H4.34094C4.37995 9.30344 4.41143 9.33492 4.41143 9.37394V10.1789C4.41143 10.2179 4.44294 10.2494 4.48195 10.2494H6.50289C6.54187 10.2494 6.57338 10.2809 6.57338 10.3199V11.5923C6.5734 11.6016 6.57158 11.6108 6.56805 11.6193C6.56451 11.6279 6.55932 11.6357 6.55277 11.6422C6.54622 11.6488 6.53845 11.654 6.52989 11.6575C6.52133 11.6611 6.51215 11.6629 6.50289 11.6629H4.48195C4.47269 11.6629 4.46352 11.6647 4.45496 11.6682C4.44639 11.6717 4.43862 11.6769 4.43206 11.6835C4.42551 11.69 4.42032 11.6978 4.41678 11.7064C4.41323 11.7149 4.41142 11.7241 4.41143 11.7334V12.5283C4.41143 12.7414 4.58441 12.9143 4.79743 12.9143ZM9.4633 12.9143C9.67631 12.9143 9.8493 12.7414 9.8493 12.5283V10.3199C9.8493 10.2809 9.8808 10.2494 9.91979 10.2494H11.6148C11.6548 10.2494 11.6868 10.2834 11.6848 10.3234L11.6508 12.5283C11.6508 13.7363 10.6713 14.7158 9.4633 14.7158C8.25534 14.7158 7.27587 13.7363 7.27587 12.5283V10.3199C7.27587 10.2809 7.30738 10.2494 7.34636 10.2494H9.00681C9.04583 10.2494 9.0773 10.2809 9.0773 10.3199V12.5283C9.0773 12.7414 9.25032 12.9143 9.4633 12.9143Z" fill="#0D0B68"/>
<path d="M14.3537 11.6974L14.1422 12.5554C14.0947 12.7298 14.2202 12.9088 14.4012 12.9138C14.5188 12.9171 14.6342 12.8808 14.7287 12.8106C14.8232 12.7404 14.8913 12.6404 14.9222 12.5268L15.0152 12.1849C15.0192 12.17 15.0281 12.1568 15.0404 12.1474C15.0527 12.138 15.0677 12.1329 15.0832 12.1329H16.7386C16.7495 12.1329 16.7601 12.1354 16.7699 12.1402C16.7796 12.145 16.788 12.152 16.7946 12.1606C16.8012 12.1692 16.8057 12.1792 16.8078 12.1898C16.8099 12.2004 16.8095 12.2114 16.8066 12.2219L16.6036 12.9668C16.3221 13.9988 15.3847 14.7153 14.3147 14.7153C13.0242 14.7153 12.0868 13.4883 12.4262 12.2429L12.5427 11.7344C12.5455 11.7239 12.5459 11.713 12.5438 11.7024C12.5417 11.6917 12.5372 11.6817 12.5306 11.6731C12.5241 11.6645 12.5156 11.6576 12.5059 11.6527C12.4962 11.6479 12.4855 11.6454 12.4747 11.6454H12.0228C12.0119 11.6454 12.0012 11.6429 11.9915 11.6381C11.9818 11.6333 11.9734 11.6263 11.9668 11.6177C11.9602 11.6091 11.9557 11.5991 11.9536 11.5884C11.9515 11.5778 11.9519 11.5668 11.9548 11.5564L12.3017 10.2834C12.3058 10.2685 12.3147 10.2553 12.327 10.2459C12.3392 10.2365 12.3543 10.2314 12.3697 10.2314H12.8982C12.9137 10.2314 12.9287 10.2263 12.941 10.2169C12.9533 10.2075 12.9622 10.1943 12.9662 10.1794L13.2212 9.33594C13.2253 9.32102 13.2342 9.30786 13.2464 9.29846C13.2587 9.28907 13.2737 9.28397 13.2892 9.28394H14.9447C14.9555 9.28394 14.9662 9.28644 14.9759 9.29124C14.9856 9.29604 14.9941 9.30302 15.0007 9.31162C15.0072 9.32023 15.0117 9.33024 15.0138 9.34087C15.0159 9.3515 15.0155 9.36246 15.0127 9.37292L14.7777 10.1424C14.7749 10.1529 14.7745 10.1638 14.7766 10.1744C14.7787 10.1851 14.7832 10.195 14.7898 10.2036C14.7963 10.2122 14.8048 10.2192 14.8145 10.224C14.8242 10.2288 14.8348 10.2314 14.8457 10.2314H16.8596C16.8704 10.2314 16.8811 10.2339 16.8908 10.2387C16.9005 10.2435 16.909 10.2505 16.9156 10.2591C16.9222 10.2677 16.9267 10.2777 16.9288 10.2883C16.9308 10.299 16.9305 10.3099 16.9276 10.3204L16.5806 11.5934C16.5766 11.6083 16.5677 11.6214 16.5554 11.6308C16.5431 11.6402 16.5281 11.6453 16.5126 11.6454H14.4222C14.3897 11.6459 14.3622 11.6669 14.3537 11.6974ZM20.2055 10.2914L19.5895 12.5528C19.5613 12.6566 19.4997 12.7483 19.4142 12.8136C19.3287 12.879 19.2241 12.9143 19.1165 12.9143C18.9165 12.9143 18.7711 12.7238 18.8236 12.5308L19.4241 10.3284C19.4269 10.3179 19.4272 10.307 19.4251 10.2964C19.423 10.2858 19.4185 10.2758 19.4119 10.2672C19.4054 10.2586 19.3969 10.2516 19.3872 10.2468C19.3775 10.242 19.3669 10.2394 19.3561 10.2394H17.7006C17.6691 10.2394 17.6411 10.2604 17.6326 10.2914L17.0776 12.3283C16.7501 13.5303 17.6551 14.7153 18.9011 14.7153C20.023 14.7153 21.0065 13.9643 21.3015 12.8813L21.9975 10.3279C22.0003 10.3174 22.0006 10.3065 21.9985 10.2959C21.9964 10.2853 21.9919 10.2753 21.9854 10.2667C21.9788 10.2581 21.9703 10.2511 21.9607 10.2463C21.951 10.2415 21.9403 10.239 21.9295 10.2389H20.274C20.242 10.2399 20.214 10.2609 20.2055 10.2914Z" fill="#7D71FF"/>
</svg>
