<svg xmlns="http://www.w3.org/2000/svg" width="78" height="24" viewBox="0 0 78 24" fill="none"><rect width="78" height="24" fill="none"/>
<path d="M12.2991 15.3658C13.0832 15.3658 13.7202 14.729 13.7202 13.9447V12.7519C13.7202 12.6084 13.8362 12.4924 13.9797 12.4924H20.0949C20.2384 12.4924 20.3544 12.6084 20.3544 12.7519V13.9465C20.3544 18.3939 16.7483 22 12.3009 22C7.85365 22 4.2476 18.3939 4.2476 13.9465V11.0197C4.24764 10.9856 4.24095 10.9519 4.22792 10.9204C4.21489 10.8889 4.19578 10.8602 4.17167 10.8361C4.14756 10.812 4.11894 10.7929 4.08744 10.7799C4.05593 10.7668 4.02217 10.7602 3.98808 10.7602H2.25952C2.22543 10.7602 2.19167 10.7535 2.16016 10.7405C2.12866 10.7275 2.10004 10.7084 2.07593 10.6843C2.05182 10.6602 2.03271 10.6315 2.01968 10.6C2.00665 10.5685 1.99996 10.5348 2 10.5007V5.81403C2 5.67051 2.11601 5.55451 2.25952 5.55451H3.98613C4.02024 5.55456 4.05402 5.54789 4.08553 5.53487C4.11705 5.52185 4.14569 5.50274 4.16981 5.47863C4.19394 5.45452 4.21306 5.42589 4.2261 5.39438C4.23914 5.36287 4.24583 5.32909 4.24579 5.29499V2.33135C4.24579 2.18769 4.36166 2.07183 4.50531 2.07183H10.6185C10.7621 2.07183 10.878 2.18769 10.878 2.33135V5.29499C10.878 5.4385 10.994 5.55451 11.1377 5.55451H18.578C18.7215 5.55451 18.8375 5.67051 18.8375 5.81403V10.4987C18.8376 10.5328 18.8309 10.5666 18.8179 10.5981C18.8049 10.6296 18.7858 10.6583 18.7617 10.6824C18.7376 10.7065 18.7089 10.7257 18.6774 10.7387C18.6459 10.7517 18.6121 10.7584 18.578 10.7584H11.1377C11.1036 10.7583 11.0698 10.765 11.0383 10.778C11.0067 10.791 10.9781 10.8102 10.954 10.8343C10.9299 10.8584 10.9107 10.887 10.8977 10.9185C10.8847 10.95 10.878 10.9838 10.878 11.0179V13.9447C10.878 14.729 11.5149 15.3658 12.2991 15.3658ZM29.4772 15.3658C30.2614 15.3658 30.8983 14.729 30.8983 13.9447V5.81403C30.8983 5.67051 31.0143 5.55451 31.1578 5.55451H37.3981C37.5454 5.55451 37.6632 5.67968 37.6558 5.82695L37.5306 13.9447C37.5306 18.392 33.9246 21.9982 29.4772 21.9982C25.0299 21.9982 21.4239 18.392 21.4239 13.9447V5.81403C21.4239 5.67051 21.5399 5.55451 21.6834 5.55451H27.7965C27.9402 5.55451 28.0561 5.67051 28.0561 5.81403V13.9447C28.0561 14.729 28.6931 15.3658 29.4772 15.3658Z" fill="#EDEEFF"/>
<path d="M47.4819 10.8854L46.7032 14.0442C46.5283 14.6866 46.9903 15.3456 47.6566 15.364C48.0899 15.3761 48.5146 15.2422 48.8625 14.9838C49.2104 14.7253 49.4613 14.3574 49.5748 13.9392L49.9172 12.6802C49.9322 12.6253 49.9648 12.5768 50.01 12.5422C50.0552 12.5076 50.1106 12.4888 50.1675 12.4888H56.2624C56.3022 12.4888 56.3416 12.498 56.3773 12.5156C56.4131 12.5333 56.4443 12.559 56.4685 12.5907C56.4927 12.6224 56.5093 12.6592 56.5169 12.6984C56.5246 12.7375 56.5232 12.7779 56.5127 12.8163L55.7653 15.5591C54.729 19.3585 51.2776 21.9962 47.3382 21.9962C42.5873 21.9962 39.1358 17.4791 40.3856 12.8937L40.8145 11.0217C40.8249 10.9832 40.8262 10.9428 40.8185 10.9037C40.8108 10.8646 40.7942 10.8278 40.77 10.7962C40.7458 10.7645 40.7147 10.7388 40.679 10.7211C40.6433 10.7034 40.604 10.6941 40.5642 10.6939H38.9002C38.8603 10.6939 38.821 10.6847 38.7852 10.667C38.7495 10.6494 38.7183 10.6237 38.6941 10.592C38.6699 10.5603 38.6533 10.5235 38.6456 10.4843C38.6379 10.4452 38.6394 10.4048 38.6499 10.3663L39.9273 5.67968C39.9423 5.62477 39.975 5.5763 40.0202 5.54172C40.0654 5.50714 40.1207 5.48835 40.1777 5.48824H42.1234C42.1803 5.48818 42.2357 5.4694 42.2809 5.43481C42.3261 5.40022 42.3587 5.35173 42.3737 5.29679L43.3125 2.19145C43.3275 2.13653 43.3601 2.08806 43.4053 2.05348C43.4506 2.0189 43.5059 2.00011 43.5628 2H49.6576C49.6975 2.00001 49.7369 2.00922 49.7726 2.02689C49.8084 2.04457 49.8395 2.07025 49.8638 2.10194C49.888 2.13363 49.9046 2.17047 49.9122 2.2096C49.9199 2.24874 49.9185 2.28911 49.908 2.3276L49.0427 5.16064C49.0324 5.19912 49.0311 5.23945 49.0388 5.27852C49.0465 5.3176 49.0631 5.35438 49.0873 5.38603C49.1115 5.41768 49.1426 5.44335 49.1783 5.46107C49.214 5.47879 49.2533 5.48809 49.2931 5.48824H56.7078C56.7476 5.48825 56.787 5.49746 56.8227 5.51513C56.8585 5.53281 56.8897 5.55849 56.9139 5.59018C56.9381 5.62187 56.9547 5.65871 56.9623 5.69784C56.97 5.73698 56.9686 5.77735 56.9581 5.81583L55.6807 10.5025C55.6656 10.5574 55.633 10.6059 55.5878 10.6404C55.5426 10.675 55.4872 10.6938 55.4303 10.6939H47.734C47.6144 10.6957 47.5131 10.7731 47.4819 10.8854ZM69.0262 5.70914L66.7583 14.0349C66.6544 14.4171 66.4276 14.7545 66.1129 14.995C65.7982 15.2356 65.4131 15.3659 65.017 15.3658C64.2807 15.3658 63.7451 14.6645 63.9383 13.9539L66.1491 5.84529C66.1594 5.80681 66.1608 5.76648 66.153 5.72741C66.1453 5.68833 66.1287 5.65155 66.1045 5.6199C66.0804 5.58825 66.0492 5.56258 66.0135 5.54486C65.9779 5.52714 65.9386 5.51784 65.8988 5.51769H59.8039C59.6879 5.51769 59.5848 5.59508 59.5536 5.70914L57.5104 13.2084C56.3046 17.6337 59.6364 21.9962 64.2237 21.9962C68.3543 21.9962 71.9751 19.2314 73.0611 15.2443L75.6235 5.84348C75.6339 5.80501 75.6352 5.76468 75.6275 5.7256C75.6197 5.68653 75.6032 5.64975 75.579 5.6181C75.5548 5.58645 75.5236 5.56077 75.488 5.54305C75.4523 5.52533 75.413 5.51604 75.3732 5.51589H69.2784C69.1606 5.5195 69.0575 5.59688 69.0262 5.70914Z" fill="#7D71FF"/>
</svg>
