<svg xmlns="http://www.w3.org/2000/svg" width="24" height="24" viewBox="0 0 24 24" fill="none"><rect width="24" height="24" fill="none"/>
<path d="M20.5313 16.4641C20.5139 16.5209 20.4714 16.5592 20.4031 16.5792C20.3347 16.5991 20.2638 16.6133 20.1898 16.6217L19.853 16.6643C19.7879 16.6727 19.7206 16.6842 19.6529 16.6984C19.5846 16.7126 19.5157 16.7331 19.4458 16.7599C19.376 16.7867 19.3072 16.8229 19.2389 16.8686C19.1706 16.9138 19.1054 16.9711 19.043 17.0389C18.9689 17.1213 18.9058 17.2191 18.8533 17.3325C18.8007 17.446 18.7587 17.5663 18.7277 17.6924C18.6962 17.819 18.6736 17.9477 18.6594 18.0801C18.6452 18.212 18.6384 18.3391 18.6384 18.4615C18.6384 18.5409 18.6425 18.6233 18.651 18.7085C18.6594 18.7936 18.6752 18.8781 18.6978 18.9617C18.7203 19.0452 18.754 19.1261 18.7981 19.2044C18.8422 19.2827 18.8995 19.3541 18.9709 19.4193C19.0361 19.4786 19.1286 19.5369 19.2478 19.5937C19.3671 19.6504 19.521 19.6788 19.7086 19.6788C19.8309 19.6788 19.9571 19.663 20.0879 19.632C20.2187 19.6005 20.3374 19.5448 20.444 19.4639C20.5507 19.383 20.6389 19.2737 20.7083 19.1361C20.7782 18.9985 20.8129 18.8246 20.8129 18.6144C20.8129 18.4269 20.7839 18.2682 20.7257 18.1374C20.6673 18.0066 20.5885 17.8973 20.4892 17.8096C20.4236 17.7502 20.3359 17.6945 20.2249 17.6435C20.1141 17.5926 19.9749 17.5669 19.8073 17.5669C19.6397 17.5669 19.479 17.6068 19.3345 17.6861C19.1895 17.7654 19.0702 17.8779 18.9762 18.0223H18.9678C18.9762 17.8521 19.0061 17.7145 19.0571 17.6094C19.1086 17.5043 19.1716 17.4213 19.2473 17.3604C19.3224 17.2994 19.4064 17.2548 19.4989 17.2264C19.5913 17.198 19.6833 17.177 19.7742 17.1623L20.1115 17.1114C20.1882 17.0998 20.2628 17.0814 20.3353 17.0562C20.4078 17.0305 20.4735 16.9937 20.5318 16.9453C20.5901 16.897 20.6406 16.834 20.6831 16.7557C20.7257 16.6774 20.7556 16.5802 20.7729 16.4641H20.5313ZM19.9759 17.8726C20.0412 17.9241 20.0926 17.9898 20.1293 18.0707C20.1662 18.1516 20.1908 18.2425 20.204 18.3433C20.2166 18.4442 20.2229 18.543 20.2229 18.6396C20.2229 18.6911 20.2192 18.762 20.2124 18.8529C20.205 18.9438 20.1855 19.0336 20.1525 19.1214C20.1199 19.2097 20.0695 19.2863 20.0012 19.3515C19.9329 19.4166 19.8394 19.4492 19.7201 19.4492C19.6008 19.4492 19.5126 19.4172 19.4475 19.3536C19.3823 19.2895 19.3329 19.2128 19.3003 19.1235C19.2678 19.0342 19.2473 18.9422 19.2389 18.8482C19.2305 18.7547 19.2262 18.678 19.2262 18.6181C19.2262 18.4647 19.2384 18.3433 19.2626 18.254C19.2866 18.1647 19.313 18.0927 19.3413 18.0386C19.3754 17.9735 19.4228 17.9162 19.4842 17.8679C19.5451 17.8196 19.6255 17.7954 19.7248 17.7954C19.8241 17.7954 19.9108 17.8216 19.9759 17.8726ZM16.3106 17.5658V17.7576L16.5659 17.7917L17.3223 19.6925C17.2767 19.7996 17.2288 19.8973 17.1774 19.9851C17.1259 20.0728 17.0638 20.1474 16.9899 20.2094L16.6189 19.9562C16.5732 19.9788 16.5249 20.0134 16.4739 20.0602C16.4224 20.107 16.3972 20.1716 16.3972 20.2535C16.3972 20.3103 16.4098 20.3581 16.4356 20.398C16.4613 20.4374 16.4923 20.47 16.529 20.4957C16.5659 20.5209 16.6053 20.5404 16.6462 20.553C16.6877 20.5656 16.7234 20.5719 16.755 20.5719C16.8117 20.5719 16.8801 20.5572 16.9599 20.5273C17.0391 20.4973 17.1259 20.4332 17.22 20.3339C17.2851 20.2604 17.3476 20.1758 17.4075 20.0807C17.4673 19.9856 17.5167 19.8889 17.5567 19.7896L17.5993 19.6919L18.3799 17.7912L18.61 17.757V17.5653H17.7905V17.757L18.0164 17.778L18.0547 17.8421L17.5888 19.0442L17.1269 17.8379L17.1695 17.778L17.387 17.757V17.5653L16.3106 17.5658ZM14.3541 17.7576L14.6267 17.7791L14.6908 17.8385C14.685 17.9719 14.6751 18.109 14.6609 18.2493C14.6467 18.3896 14.6262 18.5272 14.5989 18.6622C14.5722 18.7972 14.539 18.9228 14.5011 19.0389C14.4629 19.1555 14.4166 19.2533 14.3625 19.3326L14.1113 19.1135C14.0546 19.1193 14.0089 19.1319 13.9748 19.1519C13.9406 19.1718 13.9149 19.1955 13.8981 19.2238C13.8812 19.2522 13.8697 19.2822 13.8639 19.3131C13.8582 19.3441 13.8555 19.3725 13.8555 19.3983C13.8555 19.4802 13.8781 19.5475 13.9238 19.6C13.9695 19.6525 14.0446 19.6788 14.1497 19.6788C14.2632 19.6788 14.3625 19.6468 14.4481 19.5832C14.5333 19.5191 14.6057 19.435 14.6656 19.33C14.725 19.2249 14.7733 19.1056 14.8106 18.9722C14.8474 18.8387 14.8774 18.7027 14.8999 18.5635C14.9226 18.4242 14.9388 18.2887 14.9488 18.1568C14.9588 18.025 14.9667 17.9078 14.9725 17.8054H15.397V19.3683L15.3371 19.4277L15.0985 19.4487V19.6404H16.206V19.4487L15.98 19.4277L15.9207 19.3678V17.8379L15.98 17.778L16.206 17.757V17.5653H14.3541V17.7576ZM12.7223 19.641V19.4492L12.5054 19.4277L12.4455 19.3683V18.6785H12.5695C12.6404 18.6785 12.7013 18.6985 12.7507 18.7384C12.8006 18.7783 12.8353 18.8235 12.8552 18.8745L13.1026 19.5044V19.6404H13.9249V19.4487L13.6948 19.4187L13.6264 19.3678L13.3691 18.8776C13.3317 18.8093 13.2781 18.7416 13.2082 18.6733C13.1383 18.605 13.0532 18.564 12.9529 18.5498V18.5414C13.0155 18.5188 13.0617 18.4873 13.0916 18.4479C13.1216 18.408 13.1452 18.3696 13.162 18.3328L13.2902 18.0434C13.3012 18.0208 13.3112 18.0003 13.3202 17.9819C13.3286 17.9635 13.3401 17.9456 13.3543 17.9288L13.6233 18.1069C13.7085 18.0954 13.7699 18.0623 13.8066 18.0066C13.8435 17.9509 13.8618 17.891 13.8618 17.8253C13.8618 17.7597 13.8497 17.7082 13.8256 17.6698C13.8014 17.6315 13.7714 17.6015 13.7362 17.5805C13.7005 17.5595 13.6638 17.5458 13.6254 17.5401C13.587 17.5343 13.555 17.5316 13.5293 17.5316C13.4242 17.5316 13.3359 17.5679 13.265 17.6404C13.1941 17.7129 13.1316 17.8085 13.0774 17.9278L12.9404 18.2304C12.9146 18.2903 12.8825 18.3397 12.8442 18.3796C12.8053 18.4195 12.7522 18.4389 12.6834 18.4389H12.4438V17.8385L12.5037 17.7786L12.7207 17.7576V17.5658H11.6348V17.7576L11.8608 17.7786L11.9206 17.8385V19.3683L11.8608 19.4282L11.6348 19.4492V19.641H12.7223ZM10.179 17.5763C10.044 17.6173 9.92532 17.6814 9.82287 17.7681C9.72042 17.8547 9.63899 17.9666 9.57756 18.1043C9.51654 18.2419 9.48613 18.409 9.48613 18.605C9.48613 18.7899 9.5145 18.9496 9.57123 19.0841C9.62797 19.2191 9.70572 19.3305 9.80338 19.4187C9.90165 19.5065 10.0156 19.5722 10.1464 19.6147C10.2773 19.6573 10.4166 19.6788 10.5646 19.6788C10.6813 19.6788 10.8042 19.6625 10.9335 19.6299C11.0627 19.5974 11.1815 19.5406 11.2896 19.4597C11.3974 19.3788 11.4862 19.2685 11.556 19.1293C11.6259 18.99 11.6606 18.8125 11.6606 18.5966C11.6606 18.4857 11.6501 18.3869 11.6285 18.3008C11.607 18.2141 11.5802 18.1369 11.5476 18.0686C11.515 18.0003 11.4777 17.9414 11.4368 17.8915C11.3953 17.8416 11.3564 17.8001 11.3196 17.766C11.2371 17.6919 11.1363 17.632 11.017 17.5847C10.8977 17.538 10.7595 17.5143 10.6035 17.5143C10.4559 17.5143 10.3135 17.5348 10.179 17.5763ZM10.8274 17.8442C10.894 17.911 10.945 17.9913 10.9808 18.0854C11.016 18.1794 11.0401 18.2745 11.0532 18.3712C11.0659 18.4678 11.0722 18.5461 11.0722 18.6055C11.0722 18.6764 11.0648 18.7605 11.0507 18.8571C11.0365 18.9538 11.0107 19.0463 10.9739 19.134C10.9372 19.2223 10.8856 19.2969 10.8205 19.3578C10.7553 19.4187 10.6714 19.4492 10.5694 19.4492C10.4675 19.4492 10.3887 19.4187 10.3246 19.3578C10.2604 19.2969 10.21 19.2223 10.1733 19.134C10.1364 19.0457 10.1107 18.9528 10.0965 18.8545C10.0824 18.7568 10.0755 18.6691 10.0755 18.5924C10.0755 18.4389 10.0877 18.3155 10.1118 18.2214C10.1359 18.1274 10.1623 18.0523 10.1906 17.9955C10.2022 17.9698 10.2185 17.943 10.2395 17.9146C10.2604 17.8863 10.2862 17.859 10.3161 17.8337C10.3461 17.808 10.3814 17.787 10.4228 17.7696C10.4638 17.7528 10.5127 17.7439 10.5694 17.7439C10.6744 17.7439 10.7607 17.7775 10.8274 17.8442ZM7.01955 20.5693H8.1611V20.3775H7.89691L7.83283 20.3008V19.6189C7.90109 19.6273 7.9662 19.6336 8.02875 19.6378C8.0913 19.642 8.14375 19.6441 8.1863 19.6441C8.37131 19.6441 8.53417 19.6142 8.67438 19.5548C8.8152 19.4954 8.93132 19.4156 9.02224 19.3163C9.09316 19.2427 9.15877 19.1408 9.21867 19.0116C9.27857 18.8823 9.30796 18.72 9.30796 18.5235C9.30796 18.327 9.2802 18.1736 9.225 18.0444C9.16928 17.9152 9.10051 17.8117 9.01795 17.7334C8.9355 17.6551 8.84826 17.5994 8.75581 17.5648C8.66336 17.5306 8.58192 17.5138 8.51049 17.5138C8.39968 17.5138 8.29141 17.5359 8.1863 17.5805C8.0813 17.6252 7.96303 17.6929 7.83221 17.7843V17.5274H7.64048L7.01852 17.726V17.8973H7.30792V20.2914L7.24863 20.3555L7.01852 20.377V20.5688L7.01955 20.5693ZM7.83334 17.9635C7.92416 17.9246 7.99885 17.902 8.05712 17.8952C8.11538 17.8884 8.1559 17.8847 8.17845 17.8847C8.27773 17.8847 8.35968 17.9031 8.42386 17.9399C8.48794 17.9766 8.53835 18.015 8.57509 18.0549C8.60927 18.0948 8.64499 18.1568 8.68172 18.2419C8.71856 18.327 8.73693 18.4458 8.73693 18.5992C8.73693 18.8514 8.67703 19.0505 8.55774 19.1965C8.43855 19.3426 8.28355 19.4156 8.09283 19.4156C8.02773 19.4156 7.97569 19.413 7.93732 19.4072C7.89895 19.4014 7.86436 19.3946 7.83283 19.3862L7.83334 17.9635ZM5.62676 18.4395V18.679H6.43219V18.709C6.43219 18.8566 6.41586 18.978 6.38331 19.0731C6.35075 19.1681 6.30657 19.2433 6.25147 19.2984C6.19626 19.3536 6.13381 19.393 6.06442 19.4156C5.99503 19.4382 5.92523 19.4497 5.85432 19.4497C5.82329 19.4497 5.77707 19.4455 5.71615 19.4371C5.65513 19.4287 5.5837 19.4046 5.50176 19.3646L5.4592 19.3173L5.41145 18.9496H5.15134V19.5811C5.29318 19.621 5.42614 19.6473 5.54961 19.6599C5.67298 19.6725 5.77023 19.6788 5.84115 19.6788C5.99452 19.6788 6.14269 19.6578 6.28616 19.6147C6.42953 19.5722 6.55515 19.506 6.6628 19.4166C6.77107 19.3273 6.85719 19.2149 6.92291 19.0804C6.98801 18.9454 7.02108 18.7846 7.02108 18.5971C7.02108 18.3701 6.97903 18.1863 6.89556 18.0455C6.81148 17.9052 6.71005 17.7949 6.59086 17.7155C6.47157 17.6362 6.34657 17.5826 6.21575 17.5558C6.08493 17.529 5.97299 17.5154 5.87901 17.5154C5.78493 17.5154 5.67931 17.5227 5.56115 17.5364C5.44349 17.5506 5.32053 17.5774 5.19236 17.6173V18.1831H5.4492L5.4939 17.8637L5.54482 17.8169C5.57584 17.8027 5.61686 17.787 5.66778 17.7702C5.7187 17.7534 5.78227 17.7449 5.85901 17.7449C5.97779 17.7449 6.07493 17.7675 6.14953 17.8132C6.22463 17.859 6.28351 17.9157 6.32606 17.984C6.36861 18.0523 6.39698 18.1253 6.41116 18.2036C6.42535 18.2819 6.43219 18.3533 6.43219 18.419V18.44L5.62676 18.4395ZM4.23877 19.6415H4.9843V19.4497L4.76256 19.4287L4.70745 19.3688V18.2693C4.70745 18.2183 4.70582 18.1663 4.70317 18.1138C4.70062 18.0612 4.69276 18.0087 4.6796 17.9561C4.66694 17.9036 4.64857 17.8537 4.62439 17.8069C4.60021 17.7602 4.56714 17.7166 4.52459 17.6767C4.48469 17.6399 4.43847 17.6099 4.38643 17.5873C4.33387 17.5648 4.28132 17.5479 4.22877 17.5385C4.17632 17.5285 4.12642 17.5222 4.08009 17.5196C4.03336 17.5169 3.99448 17.5154 3.96295 17.5154C3.9204 17.5154 3.87162 17.5169 3.81641 17.5196C3.76121 17.5227 3.70243 17.5295 3.63988 17.5406C3.57733 17.5521 3.51376 17.5669 3.44814 17.5852C3.38304 17.6036 3.31885 17.6299 3.2564 17.664C3.19385 17.6982 3.14497 17.7329 3.10977 17.7681C3.07405 17.8033 3.04783 17.8369 3.031 17.8679C3.01366 17.8989 3.00315 17.9283 2.99895 17.9551C2.99474 17.9819 2.99264 18.004 2.99264 18.0213C2.99264 18.078 3.01366 18.1164 3.0567 18.1363C3.09926 18.1563 3.14344 18.1663 3.18916 18.1663H3.58212V17.7665C3.62151 17.7607 3.65774 17.756 3.69029 17.7518C3.72294 17.7476 3.75437 17.7455 3.7859 17.7455C3.88213 17.7455 3.95723 17.7597 4.01081 17.788C4.06438 17.8164 4.10428 17.8516 4.12948 17.8931C4.15479 17.9346 4.1705 17.9777 4.17632 18.0234C4.18203 18.0691 4.18469 18.1101 4.18469 18.1474V18.3139C4.14479 18.3223 4.09173 18.3344 4.02499 18.3502C3.95825 18.3659 3.88682 18.3838 3.81009 18.4032C3.73345 18.4232 3.65825 18.4431 3.58416 18.4626C3.51008 18.4826 3.44651 18.5025 3.39243 18.522C3.33834 18.5419 3.28263 18.5661 3.22436 18.5945C3.16599 18.6228 3.11191 18.6607 3.06252 18.7074C3.01261 18.7542 2.97163 18.8104 2.93906 18.8755C2.90649 18.9407 2.8902 19.0189 2.8902 19.1098C2.8902 19.2716 2.93644 19.4072 3.02837 19.5165C3.12079 19.6257 3.26324 19.6804 3.456 19.6804C3.58682 19.6804 3.71131 19.652 3.8306 19.5953C3.94989 19.5385 4.06754 19.4734 4.18418 19.3998L4.23928 19.6431L4.23877 19.6415ZM4.18367 19.2238C4.09275 19.2627 4.01713 19.2921 3.95611 19.3126C3.89519 19.3331 3.83478 19.3436 3.77539 19.3436C3.73866 19.3436 3.70192 19.3394 3.66508 19.331C3.62835 19.3226 3.59518 19.3063 3.56529 19.2822C3.53539 19.258 3.51069 19.2259 3.4912 19.1865C3.4712 19.1471 3.4613 19.0946 3.4613 19.0295C3.4613 18.9501 3.48233 18.8829 3.52488 18.8277C3.56743 18.7726 3.62253 18.7253 3.69029 18.6853C3.75866 18.6459 3.83529 18.6139 3.92203 18.5897C4.00815 18.5656 4.0954 18.5451 4.18367 18.5283V19.2238Z" fill="white"/>
<path d="M15.6365 8.04062L14.2762 8.47211V9.56957L15.6365 9.10974V8.04062ZM15.6365 3.98642L14.2762 3.50973V4.63862L15.6365 5.09539V3.98642ZM16.7669 8.76027L21.9999 6.9922V6.18213L16.7669 4.35122V5.44179L20.2563 6.61361L16.7669 7.7195V8.76027Z" fill="#DD001F"/>
<path d="M5.83885 6.7669L9.17801 3.42773H2.23452L2.94419 4.65703H6.20979L4.13976 6.72704L4.77587 7.82912L4.79963 7.86973C4.83794 7.86743 4.87704 7.86666 4.91611 7.86666C6.10172 7.86666 7.06661 8.83155 7.06661 10.0172C7.06661 11.2028 6.10172 12.1677 4.91611 12.1677C4.12903 12.1677 3.44005 11.7431 3.06528 11.1108L2 11.727C2.58782 12.7264 3.67456 13.3992 4.91535 13.3992C6.7792 13.3992 8.29589 11.8825 8.29589 10.0187C8.29589 8.47441 7.25514 7.17001 5.83885 6.7669Z" fill="white" fill-opacity="0.4"/>
<path d="M9.50068 7.39688C9.36351 7.15929 9.28379 6.88416 9.28379 6.59063C9.28379 5.69703 10.0103 4.97049 10.904 4.97049C11.501 4.97049 12.0229 5.29619 12.3034 5.77826L13.2468 5.23336C12.777 4.42558 11.9033 3.88144 10.904 3.88144C9.41025 3.88144 8.19553 5.09693 8.19553 6.58987C8.19553 7.08188 8.32812 7.54248 8.55803 7.94025L9.50146 7.39535L9.50068 7.39688Z" fill="white" fill-opacity="0.4"/>
</svg>
