<svg xmlns="http://www.w3.org/2000/svg" width="132" height="24" viewBox="0 0 132 24" fill="none"><rect width="132" height="24" fill="none"/>
<path d="M23.6809 17.1416H25.6412V8.57603H31.5851V17.1416H33.5455V6.8125H23.6809V17.1416Z" fill="white"/>
<path d="M35.8198 17.1416H37.7801V13.3784H42.2498C44.6179 13.3784 46.0764 12.1503 46.0764 10.182V10.0088C46.0764 8.04066 44.6023 6.8125 42.2498 6.8125H35.8198V17.1416ZM37.7801 11.6149V8.57603H42.2027C43.4103 8.57603 44.0847 9.09563 44.0847 10.0088V10.182C44.0847 11.0953 43.4103 11.6149 42.2027 11.6149H37.7801Z" fill="white"/>
<path d="M52.1684 6.8125H50.0041L45.2992 16.8424V17.1416H47.2909L48.3574 14.7798H53.8151L54.8815 17.1416H56.8732V16.8424L52.1684 6.8125ZM49.1729 13.0163L51.0862 8.79643L52.9996 13.0163H49.1729Z" fill="white"/>
<path d="M66.6082 11.8353C67.3766 11.3472 67.8001 10.6072 67.8001 9.66243V9.48931C67.8001 7.78874 66.4356 6.8125 64.0675 6.8125H58.0609V17.1416H64.3812C66.6552 17.1416 68.1294 15.9922 68.1294 14.2129V14.0397C68.1294 13.0163 67.5962 12.2604 66.6082 11.8353ZM64.0675 8.57603C65.1967 8.57603 65.8084 8.96963 65.8084 9.72547V9.89867C65.8084 10.6859 65.2437 11.0481 64.0518 11.0481H60.0213V8.57603H64.0675ZM66.1376 14.15C66.1376 14.9215 65.479 15.3781 64.3498 15.3781H60.0213V12.8116H64.3498C65.5574 12.8116 66.1376 13.1895 66.1376 13.9768V14.15Z" fill="white"/>
<path d="M75.5373 17.3303C79.1915 17.3303 81.5283 15.2835 81.5283 12.0714V11.8982C81.5283 8.68608 79.1915 6.62344 75.5373 6.62344C71.8831 6.62344 69.5307 8.68608 69.5307 11.8982V12.0714C69.5307 15.2835 71.8831 17.3303 75.5373 17.3303ZM75.5373 15.5039C72.981 15.5039 71.5225 14.2601 71.5225 12.1029V11.8824C71.5225 9.72528 72.981 8.44992 75.5373 8.44992C78.0937 8.44992 79.5365 9.72528 79.5365 11.8824V12.1029C79.5365 14.2601 78.0937 15.5039 75.5373 15.5039Z" fill="white"/>
<path d="M93.7633 6.8125H91.3953L87.3329 11.0166H85.3097V6.8125H83.3497V17.1416H85.3097V12.78H87.3489L91.2857 17.1416H93.5753V16.8424L89.1521 11.8511L93.7633 7.1117V6.8125Z" fill="white"/>
<path d="M101.337 6.8125H99.1729L94.4681 16.8424V17.1416H96.4593L97.5257 14.7798H102.984L104.05 17.1416H106.042V16.8424L101.337 6.8125ZM98.3417 13.0163L100.255 8.79643L102.168 13.0163H98.3417Z" fill="white"/>
<path d="M107.23 17.1416H109.19V13.3784H113.659C116.028 13.3784 117.487 12.1503 117.487 10.182V10.0088C117.487 8.04066 116.012 6.8125 113.659 6.8125H107.23V17.1416ZM109.19 11.6149V8.57603H113.613C114.82 8.57603 115.495 9.09563 115.495 10.0088V10.182C115.495 11.0953 114.82 11.6149 113.613 11.6149H109.19Z" fill="white"/>
<path d="M128.397 15.3781V6.8125H119.583L119.505 11.8039C119.489 13.2524 119.144 14.4491 118.564 15.3781H117.247V19.2358H119.207V17.1416H128.036V19.2358H129.997V15.3781H128.397ZM121.324 11.8668L121.403 8.57603H126.452V15.3781H120.524C120.979 14.5436 121.293 13.3941 121.324 11.8668Z" fill="white"/>
<path fill-rule="evenodd" clip-rule="evenodd" d="M9.13797 4H10.6347C10.967 7.67776 13.605 10.2746 17.7594 11.2021V12.7004C13.5745 13.6387 10.9314 16.2729 10.6386 20.0001H9.1471C8.85512 16.2575 6.20804 13.6171 2 12.6889V11.2109C6.16993 10.2907 8.80688 7.6892 9.13797 4ZM9.90736 9.12129C9.10158 10.205 8.13386 11.128 7.01493 11.8757C8.1471 12.6665 9.11334 13.6648 9.90736 14.8012C10.7041 13.6671 11.7135 12.6633 12.8469 11.8757C11.7228 11.1268 10.7165 10.2094 9.90736 9.12129Z" fill="white"/>
</svg>
