<svg xmlns="http://www.w3.org/2000/svg" width="24" height="24" viewBox="0 0 24 24" fill="none"><rect width="24" height="24" fill="none"/>
<path fill-rule="evenodd" clip-rule="evenodd" d="M13.1278 10.4856L13.0245 10.5067V13.3789L13.1278 13.4C16.1034 14.0189 18.2634 16.6833 18.2634 19.7333V20.6667C18.2634 21.3389 17.7189 21.8856 17.0478 21.8856C16.7253 21.8847 16.4163 21.756 16.1885 21.5278C15.9607 21.2995 15.8326 20.9903 15.8323 20.6678V19.7344C15.8347 19.1873 15.7248 18.6454 15.5094 18.1424C15.294 17.6394 14.9777 17.1859 14.58 16.81C13.8342 16.0966 12.8411 15.6996 11.8089 15.7022C10.7768 15.6995 9.78365 16.0965 9.03782 16.81C8.64022 17.1859 8.32395 17.6394 8.10857 18.1424C7.89319 18.6454 7.78327 19.1873 7.7856 19.7344V20.6678C7.7856 21.3389 7.24116 21.8856 6.57005 21.8856C6.24755 21.8847 5.93854 21.756 5.71071 21.5278C5.48288 21.2995 5.35478 20.9903 5.35449 20.6678V19.7344C5.35449 16.6833 7.51449 14.0189 10.49 13.4011L10.5934 13.3789V10.5067L10.49 10.4856C7.51449 9.86667 5.35449 7.20222 5.35449 4.15222V3.21889C5.35449 2.54667 5.89894 2 6.57005 2C7.24005 2 7.7856 2.54667 7.7856 3.21889V4.15222C7.78335 4.69922 7.89332 5.24087 8.1087 5.74369C8.32408 6.2465 8.64031 6.6998 9.03782 7.07556C9.78365 7.78906 10.7768 8.18608 11.8089 8.18333C12.8411 8.18608 13.8342 7.78906 14.58 7.07556C14.9775 6.69976 15.2937 6.24645 15.5091 5.74365C15.7245 5.24084 15.8345 4.69921 15.8323 4.15222V3.21889C15.8323 2.54667 16.3767 2 17.0478 2C17.7178 2 18.2634 2.54667 18.2634 3.21889V4.15222C18.2634 7.20222 16.1034 9.86556 13.1278 10.4856ZM11.8089 22C12.1175 21.9997 12.4231 21.9386 12.7081 21.8203C12.9931 21.7019 13.252 21.5286 13.47 21.3101C13.688 21.0917 13.8609 20.8325 13.9787 20.5473C14.0965 20.262 14.157 19.9564 14.1567 19.6478C14.1567 18.3478 13.1067 17.2944 11.8089 17.2944C11.1859 17.2953 10.5887 17.5436 10.1486 17.9847C9.70855 18.4258 9.46168 19.0236 9.46227 19.6467C9.46227 20.9467 10.5134 22 11.8089 22Z" fill="#000000"/>
</svg>
