<svg xmlns="http://www.w3.org/2000/svg" width="127" height="24" viewBox="0 0 127 24" fill="none"><rect width="127" height="24" fill="none"/>
<path fill-rule="evenodd" clip-rule="evenodd" d="M8.82385 2C10.3402 2 10.7776 2.88571 11.1567 3.99998L15.1226 15.557H12.1919L11.3025 12.8142H6.00984L5.04753 15.557H2.29184L6.44725 3.99998C6.84092 2.88571 7.30749 2 8.82385 2ZM8.69263 5.01426L6.81176 10.4857H10.5443L8.76553 5.01426H8.69263ZM2 19.2715H15.4139V22H2V19.2715ZM21.7563 11.8284V2.11416H19.1172V15.5569H21.7417L28.5507 5.84271V15.5569H31.1752V2.11416H28.5507L21.7563 11.8284ZM73.7501 8.12846V5.95705H82.6587V8.12846H79.4802V15.557H76.9286V8.12846H73.7501ZM39.6028 9.61398H35.7536V5.97115H33.2749V15.5568H35.7536V11.714H39.6028V15.5568H42.0961V5.97115H39.6028V9.61398ZM86.5661 11.8282L90.0654 5.97115H92.5586V15.5568H90.0362V9.65684L86.5515 15.5568H84.0728V5.97115H86.5661V11.8282ZM112.038 5.97115L108.554 11.8282V5.97115H106.046V15.5568H108.524L112.009 9.65684V15.5568H114.532V5.97115H112.038ZM119.007 11.8282L122.507 5.97115H125V15.5568H122.478V9.65684L118.993 15.5568H116.514V5.97115H119.007V11.8282ZM62.9021 10.6425C62.9021 7.58542 61.0796 5.54258 58.2656 5.54258C55.4661 5.54258 53.5999 7.74256 53.5999 10.7568C53.5999 13.7711 55.5536 15.7996 58.4697 15.7996C61.7795 15.7996 62.8001 13.6425 62.9459 12.7568H60.3797C60.3797 12.7568 59.709 13.6854 58.4551 13.6711C57.1429 13.6568 56.2535 12.7711 56.1223 11.0997H62.9021V10.6425ZM58.2656 7.49971C59.3299 7.49971 60.1319 8.2997 60.2923 9.39969H56.2097C56.3847 8.22827 57.1721 7.49971 58.2656 7.49971ZM52.3753 8.52845C52.3753 9.65702 51.69 10.3284 51.0047 10.5999C51.8212 10.857 52.6232 11.5427 52.6232 12.757C52.6232 14.4713 51.238 15.5427 49.0072 15.5427H44.0645V5.95705H49.0072C51.1214 5.95705 52.3753 6.92847 52.3753 8.52845ZM48.6719 11.6141H46.5723V13.6284H48.6573C49.5759 13.6284 50.0424 13.2713 50.0424 12.557C50.0424 11.957 49.5321 11.6141 48.6719 11.6141ZM46.5723 9.7713H48.599C49.0655 9.7713 49.8675 9.64273 49.8675 8.78559C49.8675 8.21417 49.4009 7.8856 48.599 7.8856H46.5723V9.7713ZM68.8073 13.5568C67.568 13.5568 66.6931 12.3711 66.6931 10.6711C66.6931 8.94256 67.5388 7.78542 68.7927 7.78542C70.1179 7.78542 70.4629 8.64342 70.5825 8.94084L70.5827 8.94143C70.5894 8.9579 70.5953 8.97265 70.6007 8.98542H72.9919C72.919 7.94257 71.9712 5.54258 68.7927 5.54258C66.0808 5.54258 64.127 7.69971 64.127 10.6711C64.127 13.6425 66.0953 15.7996 68.8219 15.7996C72.1462 15.7996 73.1377 13.314 73.2106 12.3568H70.7465C70.4986 12.8425 69.8862 13.5568 68.8073 13.5568ZM103.013 5.97115V13.414H104.719V18.3568H102.43V15.5568H94.5417V5.97115H97.035V13.414H100.52V5.97115H103.013Z" fill="white"/>
</svg>
