<svg xmlns="http://www.w3.org/2000/svg" width="54" height="24" viewBox="0 0 54 24" fill="none"><rect width="54" height="24" fill="none"/>
<path d="M48.8903 12.9403V11.2587C48.8903 10.8182 48.9702 10.3383 49.0102 9.89774H48.9303C48.6903 10.3383 48.4897 10.6982 48.2498 11.1787L47.1687 12.9008V12.9408L48.8903 12.9403ZM48.8903 16.1828V14.2213H45.4461V13.1002L48.7286 8.01623H50.6501V12.9003H51.65V14.2213H50.6501V16.1822L48.8903 16.1828Z" fill="#000000"/>
<path d="M39.8416 16.1812V15.0608L40.8416 14.0197C42.1226 12.6587 43.2036 11.5755 43.2036 10.3767C43.2036 9.7362 42.7631 9.25568 41.9226 9.25568C41.3933 9.28247 40.8754 9.41886 40.4016 9.65621L40.0816 8.4152C40.7814 8.07893 41.5467 7.9012 42.3231 7.89469C44.5246 7.89469 45.2051 9.0957 45.2051 10.2567C45.2051 11.7777 44.0441 13.0187 42.883 14.0997L42.2859 14.6597V14.6997H45.3684V16.1407H39.8416V16.1812Z" fill="#000000"/>
<path fill-rule="evenodd" clip-rule="evenodd" d="M17.4639 2.77185C7.6564 4.93389 0.811413 10.7784 2.17241 15.8619C3.5723 20.9459 12.6204 23.3474 22.4679 21.2264C32.2755 19.1049 39.121 13.2199 37.76 8.1364C36.359 3.05238 27.2714 0.650359 17.4639 2.77185ZM24.7094 9.09664H22.7479V16.1422H21.1869V9.09664H19.2254V7.85563H24.7094V9.09664ZM29.3536 16.1422H30.8346L30.8357 7.85563H29.1136L27.0316 13.4202V7.85563H25.5506V16.1422H27.2321L29.3536 10.6176V16.1422ZM18.385 16.1422H16.824V9.09664H14.7419V16.1422H13.181V7.85563H18.385V16.1422ZM6.81583 10.5381C6.81583 8.45665 7.93685 7.69615 9.49783 7.69615C11.0994 7.69615 12.1798 8.41832 12.1798 10.5381V13.5379C12.1798 15.6594 11.0988 16.3399 9.49783 16.3399C7.93685 16.3399 6.81583 15.6194 6.81583 13.5379V10.5381ZM10.5789 13.7407C10.5789 14.6211 10.2183 15.0617 9.53783 15.0617C8.77733 15.0617 8.4568 14.5811 8.4568 13.7407V10.3382C8.4568 9.45767 8.81733 8.93716 9.53783 8.93716C10.2183 8.93716 10.5789 9.45767 10.5789 10.3382V13.7407Z" fill="#000000"/>
</svg>
