<svg xmlns="http://www.w3.org/2000/svg" width="99" height="24" viewBox="0 0 99 24" fill="none"><rect width="99" height="24" fill="none"/>
<path d="M8.59926 10.4357L12.4927 16.2278H10.313L6.96071 11.2875H5.35225V16.2278H3.44312V7.075H2L2.96208 5.23205H5.35225V9.58389H6.96071L10.1476 5.23205H12.3123L8.59926 10.4357ZM11.9064 12.2631C11.9064 11.4062 12.0968 10.6576 12.4777 10.0175C12.8484 9.41868 13.3545 8.95927 13.9959 8.63919C14.6373 8.31911 15.3288 8.1591 16.0704 8.1591C16.8321 8.1591 17.5186 8.31397 18.1299 8.62371C18.7713 8.94379 19.2774 9.41868 19.6482 10.0485C20.019 10.668 20.2043 11.4062 20.2043 12.2631C20.2043 13.1304 20.019 13.879 19.6482 14.5088C19.2774 15.1282 18.7713 15.6083 18.1299 15.949C17.4985 16.2795 16.812 16.4446 16.0704 16.4446C15.3388 16.4446 14.6523 16.2795 14.011 15.949C13.3596 15.6187 12.8435 15.1386 12.4626 14.5088C12.0918 13.8686 11.9064 13.1201 11.9064 12.2631ZM44.3315 8.40691H46.0302V9.47546C46.2907 9.0625 46.6365 8.74762 47.0674 8.53076C47.5084 8.30363 48.0746 8.19006 48.7661 8.19006C49.4776 8.19006 50.109 8.35527 50.6602 8.68563C51.1914 9.02634 51.6022 9.51163 51.8929 10.1414C52.1935 10.7609 52.3438 11.4733 52.3438 12.2786C52.3438 13.0943 52.1935 13.817 51.8929 14.4468C51.6022 15.0663 51.1914 15.5464 50.6602 15.8871C50.4097 16.0626 50.114 16.1917 49.7733 16.2743C49.4426 16.3672 49.1068 16.4137 48.7661 16.4137C48.1748 16.4137 47.7339 16.3672 47.4433 16.2743C46.842 16.0884 46.416 15.7787 46.1655 15.345V19H44.3315V8.40691ZM21.1815 8.40691H23.0004V11.3804H26.1121V8.40691H27.916V16.2278H26.1121V12.9291H23.0004V16.2278H21.1815V8.40691ZM28.7128 8.40691H35.7029V9.89363H33.1173V16.2278H31.2683V9.89363H28.7128V8.40691ZM38.2133 8.40691C38.8948 10.3273 39.5161 12.227 40.0773 14.1061C40.6084 12.2476 41.2097 10.3479 41.8812 8.40691H43.7152L40.9191 16.3827C40.6886 17.0331 40.4682 17.5339 40.2577 17.8849C40.0272 18.236 39.7416 18.4992 39.4009 18.6748C39.0702 18.8606 38.6292 18.9536 38.078 18.9536C37.7674 18.9536 37.597 18.9484 37.5669 18.9381L36.9506 17.4513C37.141 17.4926 37.3765 17.5132 37.6571 17.5132C37.9978 17.5132 38.2734 17.4616 38.4839 17.3584C38.6743 17.2757 38.8196 17.1622 38.9198 17.0177C39.02 16.8835 39.1052 16.7131 39.1754 16.5066L36.2891 8.40691H38.2133ZM13.7554 12.2476C13.7554 13.1046 13.9558 13.7602 14.3567 14.2145C14.7576 14.6585 15.3138 14.8804 16.0253 14.8804C16.7469 14.8804 17.3081 14.6585 17.709 14.2145C18.1199 13.7602 18.3253 13.1046 18.3253 12.2476C18.3253 11.4114 18.1248 10.7815 17.724 10.3582C17.3232 9.92459 16.7569 9.7078 16.0253 9.7078C15.3038 9.7078 14.7426 9.92459 14.3417 10.3582C13.9508 10.7815 13.7554 11.4114 13.7554 12.2476ZM46.1204 12.2631C46.1404 13.0375 46.3409 13.657 46.7217 14.1216C47.1025 14.5862 47.6387 14.8185 48.3301 14.8185C49.0217 14.8185 49.5528 14.5862 49.9236 14.1216C50.3044 13.657 50.4998 13.0375 50.5099 12.2631C50.4998 11.4991 50.3044 10.89 49.9236 10.4357C49.5528 9.97109 49.0217 9.73876 48.3301 9.73876C47.6387 9.73876 47.1025 9.9659 46.7217 10.4202C46.3409 10.8745 46.1404 11.4888 46.1204 12.2631Z" fill="#222222"/>
<path d="M54.7107 6.5487C55.3321 6.00149 55.9535 5.60916 56.5746 5.37169C57.1963 5.1239 57.8826 5 58.6339 5C60.288 5 61.6155 5.54205 62.618 6.62614C63.0889 7.14237 63.4448 7.75153 63.6851 8.45361C63.9357 9.14536 64.0611 9.90423 64.0611 10.7302C64.0611 11.8349 63.8457 12.8106 63.4144 13.6572C62.9734 14.5451 62.3473 15.2369 61.5357 15.7325C60.7339 16.2177 59.7965 16.4604 58.7245 16.4604C58.1734 16.4604 57.6623 16.3984 57.1909 16.2745C56.7303 16.1506 56.2893 15.9545 55.8683 15.6861C55.4473 15.4176 55.0014 15.0408 54.5304 14.5555L55.3571 13.6108C56.1591 14.3748 56.8953 14.8549 57.5669 15.051C57.958 15.1646 58.3486 15.2214 58.7392 15.2214C59.4612 15.2214 60.1074 15.051 60.6786 14.7103C61.2499 14.3696 61.7061 13.8947 62.0468 13.2855C62.3875 12.6764 62.5779 11.9847 62.618 11.2103H57.2962V10.0023H62.6028C62.5328 9.26927 62.3224 8.61363 61.9714 8.03545C61.6307 7.46761 61.1744 7.0288 60.6032 6.71906C60.0325 6.39899 59.381 6.23896 58.6491 6.23896C58.0882 6.23896 57.5571 6.33705 57.0558 6.53321C56.5649 6.72938 56.0538 7.06494 55.5227 7.53987L54.7107 6.5487ZM64.8504 15.0821C65.0007 15.1234 65.1612 15.144 65.3316 15.144C65.612 15.144 65.8225 15.0666 65.963 14.9117C66.103 14.7465 66.1985 14.4677 66.2484 14.0754C66.2988 13.6314 66.3336 13.0584 66.3536 12.3563L66.4437 8.40717H72.0661V16.2281H70.7733V9.4912H67.6014L67.5265 12.4493C67.4961 13.5127 67.431 14.2922 67.3307 14.7878C67.2205 15.3247 67.0204 15.7118 66.7296 15.9493C66.4491 16.1868 66.0232 16.3055 65.452 16.3055L65.1509 16.2745L64.8504 16.2126V15.0821ZM73.8666 8.40717H75.1594V10.978H77.1585C78.0303 10.978 78.7268 11.2155 79.2482 11.6904C79.769 12.1653 80.0299 12.8055 80.0299 13.6108C80.0299 14.4058 79.769 15.0408 79.2482 15.5157C78.7268 15.9906 78.0303 16.2281 77.1585 16.2281H73.8666V8.40717ZM76.948 15.144C78.1203 15.144 78.7068 14.6329 78.7068 13.6108C78.7068 12.5886 78.1203 12.0776 76.948 12.0776H75.1594V15.144H76.948ZM88.9436 12.4493C88.9436 13.2442 88.7781 13.936 88.4478 14.5245C88.1065 15.1336 87.6357 15.6086 87.0346 15.9493C86.4329 16.2797 85.7516 16.4449 84.9899 16.4449C83.6972 16.4449 82.7049 16.0422 82.0138 15.2369C81.3319 14.4316 80.9912 13.2288 80.9912 11.6284V11.3496C80.9912 10.0694 81.1366 8.99563 81.4274 8.12839C81.7181 7.2611 82.189 6.60033 82.8406 6.14604C83.4915 5.69175 84.3986 5.42331 85.5612 5.34071C86.6635 5.25811 87.5906 5.16519 88.3425 5.06195L88.4478 6.22347C87.7257 6.32672 86.7687 6.41964 85.5763 6.50224C84.7648 6.54354 84.1181 6.69841 83.6369 6.96685C83.1661 7.22496 82.8102 7.61728 82.5699 8.14387C82.3393 8.66007 82.189 9.36215 82.119 10.2501C82.3594 9.69257 82.75 9.25378 83.2914 8.9337C83.8425 8.61363 84.474 8.45361 85.1852 8.45361C85.9371 8.45361 86.5935 8.61363 87.1545 8.9337C87.7257 9.26407 88.1668 9.72354 88.4776 10.3121C88.7885 10.8902 88.9436 11.5768 88.9436 12.3718V12.4493ZM87.621 12.4028C87.621 11.8349 87.5158 11.3445 87.3053 10.9315C87.0845 10.5082 86.7688 10.1778 86.3581 9.94033C85.9572 9.69257 85.4961 9.56867 84.9753 9.56867C84.4436 9.56867 83.9776 9.68223 83.5773 9.90937C83.1764 10.1468 82.8655 10.4773 82.6447 10.9006C82.4245 11.3239 82.3143 11.8246 82.3143 12.4028V12.4802C82.3143 13.0481 82.4245 13.5385 82.6447 13.9515C82.8655 14.3851 83.1764 14.7258 83.5773 14.9736C83.9776 15.2111 84.4436 15.3298 84.9753 15.3298C85.4961 15.3298 85.9621 15.2111 86.3733 14.9736C86.7742 14.7362 87.0796 14.4006 87.2901 13.967C87.5103 13.5334 87.621 13.0377 87.621 12.4802V12.4028ZM95.3277 16.2281V15.175C95.057 15.588 94.6962 15.908 94.2454 16.1351C93.794 16.352 93.2733 16.4604 92.6819 16.4604C91.84 16.4604 91.1787 16.2642 90.6975 15.8719C90.2266 15.4795 89.9912 14.9272 89.9912 14.2148V14.1373C89.9912 13.3527 90.2564 12.759 90.7875 12.3563C91.3289 11.9434 92.1606 11.7059 93.283 11.6439L95.2675 11.5046V10.978C95.2675 10.4205 95.1123 10.0023 94.8015 9.72354C94.4906 9.43442 94.0398 9.28989 93.4485 9.28989C92.9575 9.28989 92.5116 9.39317 92.1107 9.59963C91.7195 9.7958 91.3192 10.1262 90.908 10.5908L90.0812 9.81648C90.953 8.73239 92.0657 8.19032 93.4186 8.19032C94.3908 8.19032 95.147 8.42779 95.6884 8.90274C96.2293 9.37764 96.5 10.0384 96.5 10.885V16.2281H95.3277ZM93.3736 12.5886C92.5919 12.6299 92.0407 12.7642 91.7196 12.9913C91.3989 13.2184 91.2389 13.5798 91.2389 14.0754V14.1528C91.2389 14.5555 91.3843 14.8652 91.6745 15.0821C91.9756 15.2989 92.396 15.4073 92.9374 15.4073C93.3682 15.4073 93.7642 15.3195 94.125 15.144C94.4857 14.9685 94.7662 14.7258 94.9669 14.4161C95.1671 14.0961 95.2675 13.7347 95.2675 13.332V12.4957L93.3736 12.5886Z" fill="#366AF3"/>
</svg>
