<svg xmlns="http://www.w3.org/2000/svg" width="24" height="24" viewBox="0 0 24 24" fill="none"><rect width="24" height="24" fill="none"/>
<path d="M2 13.3136V16.1922C1.99958 16.3104 2.02671 16.4271 2.07925 16.533C2.13178 16.6389 2.20828 16.7311 2.30267 16.8023C2.39706 16.8735 2.50674 16.9217 2.623 16.9431C2.73927 16.9645 2.85892 16.9585 2.97246 16.9255L15.0678 13.416C15.442 13.3067 15.8373 13.2911 16.2189 13.3705C16.6006 13.45 16.9568 13.622 17.2564 13.8715L20.7044 16.7661C20.8192 16.8629 20.9594 16.9249 21.1083 16.9447C21.2572 16.9645 21.4087 16.9414 21.5449 16.8779C21.6811 16.8145 21.7963 16.7135 21.877 16.5867C21.9576 16.46 22.0004 16.3128 22.0002 16.1626V13.3158C21.9997 12.9748 21.8869 12.6434 21.6791 12.373L17.4682 6.90722C17.1365 6.47579 16.6639 6.17448 16.1328 6.05586C15.6018 5.93724 15.0459 6.00884 14.5622 6.25816L2.52381 12.4573C2.36672 12.5387 2.23488 12.6615 2.14255 12.8124C2.05023 12.9633 2.00093 13.1366 2 13.3136Z" fill="#FFDD00"/>
</svg>
