<svg xmlns="http://www.w3.org/2000/svg" width="52" height="24" viewBox="0 0 52 24" fill="none"><rect width="52" height="24" fill="none"/>
<path d="M20.6635 9.98953H22.8177V4.18699H25.6628V2.18913H20.6635V9.98953ZM16.2132 8.25079C15.978 8.26134 15.7432 8.22282 15.5238 8.13767C15.3043 8.05252 15.105 7.92261 14.9384 7.75621C14.7719 7.58981 14.6419 7.39056 14.5566 7.17115C14.4712 6.95173 14.4326 6.71696 14.4429 6.48178H19.755C19.755 6.48178 19.7903 6.08082 19.7903 5.66852C19.7903 3.30942 18.3907 2.01198 16.2075 2.01198C13.9001 2.01198 12.2944 3.69272 12.2944 6.0928C12.2944 8.49225 13.8762 10.2203 16.1842 10.2203C18.3264 10.2203 19.7664 8.98777 19.808 7.1658H17.701C17.6376 7.50194 17.4484 7.80123 17.1719 8.00271C16.8955 8.20418 16.5526 8.29268 16.2132 8.25016V8.25079ZM16.2132 3.80494C16.3906 3.78034 16.5711 3.79151 16.744 3.83779C16.917 3.88407 17.079 3.96453 17.2203 4.07441C17.3617 4.18429 17.4797 4.32137 17.5672 4.47757C17.6547 4.63377 17.7101 4.80592 17.73 4.98386H14.5608C14.6676 4.62785 14.8909 4.31807 15.195 4.10426C15.499 3.89045 15.866 3.78504 16.2372 3.80494H16.2132ZM8.54016 2.1885L7.05863 6.97037L5.61241 2.1885H3.24007L2 9.98953H3.97705L4.72664 5.13643L6.18421 9.98953H7.8782L9.38936 5.04817L10.1093 9.98953H12.116L10.8772 2.1885H8.54016ZM29.6106 2C27.3146 2 26.0108 3.12596 26.0695 5.04249H28.3006C28.3006 4.22923 28.7255 3.86357 29.6163 3.86357C30.2543 3.86357 30.6553 4.12836 30.6553 4.52932C30.6553 4.78906 30.555 4.88866 30.1654 5.00151L28.3945 5.49073C26.6715 5.95663 25.9043 6.66965 25.9043 7.8492C25.9043 9.24688 26.9193 10.178 28.4128 10.178C28.8891 10.2254 29.3682 10.121 29.7815 9.87953C30.1949 9.63811 30.5212 9.27212 30.7139 8.83394V10.0129H32.7742V4.80734C32.7445 2.92548 31.5524 2 29.6106 2ZM28.844 8.36238C28.2955 8.36238 28.0295 8.09696 28.0295 7.70798C28.0295 7.31837 28.2186 7.11789 28.8087 6.93506L30.6736 6.41054V6.55176C30.6826 6.91477 30.5795 7.27174 30.3783 7.57406C30.1772 7.87639 29.8878 8.10939 29.5495 8.24133C29.3251 8.32959 29.0849 8.36994 28.844 8.36238ZM43.3334 12.0712V14.0634H45.5651V19.8716H47.7187V14.0641H49.9504V12.0712H43.3334ZM33.2067 12.0712L31.5297 14.9662H30.6742V12.0712H28.52V19.8716H30.6742V16.8827H31.519L33.3189 19.8716H35.7505L33.3718 15.8917L35.579 12.0712H33.2067ZM16.3494 11.8827C14.0533 11.8827 12.7433 13.0087 12.8082 14.9252H15.0393C15.0393 14.112 15.4643 13.7463 16.3551 13.7463C16.9931 13.7463 17.394 14.0174 17.394 14.4184C17.394 14.6718 17.2932 14.7714 16.8985 14.8836L15.1276 15.3735C13.4103 15.845 12.643 16.5524 12.643 17.7313C12.643 19.1233 13.6581 20.0608 15.1516 20.0608C15.6285 20.1122 16.1093 20.0086 16.5227 19.7654C16.9361 19.5221 17.2602 19.1522 17.447 18.7104V19.8893H19.5129V14.6655C19.4833 12.8082 18.2911 11.8827 16.3494 11.8827ZM15.5702 18.2445C15.033 18.2445 14.7619 17.9797 14.7619 17.5844C14.7619 17.1891 14.9561 16.995 15.5468 16.8298L17.406 16.3046V16.4345C17.412 16.676 17.3683 16.9162 17.2779 17.1402C17.1874 17.3642 17.0519 17.5673 16.8799 17.7369C16.7078 17.9065 16.5029 18.0391 16.2776 18.1264C16.0523 18.2137 15.8116 18.2539 15.5702 18.2445ZM24.7474 11.8821C24.2977 11.8541 23.8507 11.9705 23.4717 12.2143C23.0927 12.4581 22.8015 12.8166 22.6405 13.2375V12.0586H20.4863V22H22.6405V18.7217C22.8066 19.137 23.1 19.489 23.4785 19.7273C23.857 19.9656 24.3012 20.0779 24.7474 20.0482C26.519 20.0482 27.6985 18.6688 27.6985 15.968C27.6985 13.2672 26.536 11.8821 24.7481 11.8821H24.7474ZM24.1574 18.0554C23.172 18.0554 22.5813 17.3833 22.5813 15.968C22.5813 14.5526 23.172 13.8749 24.1454 13.8749C25.1194 13.8749 25.6036 14.5526 25.6036 15.968C25.6036 17.3833 25.1081 18.0547 24.1454 18.0547H24.158L24.1574 18.0554ZM8.54016 12.0712L7.05863 16.8468L5.61241 12.0712H3.24007L2 19.8716H3.97705L4.72664 15.0192L6.18421 19.8716H7.8782L9.38936 14.9309L10.1093 19.8716H12.116L10.8766 12.0712H8.54016Z" fill="#FFE3C6"/>
<path d="M39.2489 18.1323C39.0139 18.1421 38.7794 18.1031 38.5603 18.0176C38.3412 17.9322 38.1422 17.8023 37.9758 17.6361C37.8094 17.4698 37.6794 17.2709 37.5938 17.0518C37.5082 16.8327 37.469 16.5983 37.4786 16.3633H42.7907C42.7907 16.3633 42.826 15.9624 42.826 15.5501C42.826 13.191 41.4327 11.8935 39.2432 11.8935C36.9358 11.8935 35.3301 13.5743 35.3301 15.968C35.3301 18.3618 36.9118 20.0955 39.2199 20.0955C41.3621 20.0955 42.802 18.8573 42.8493 17.0411H40.7367C40.6747 17.3783 40.486 17.6792 40.2094 17.8819C39.9328 18.0847 39.5892 18.174 39.2489 18.1317V18.1323ZM39.2489 13.6865C39.4265 13.6627 39.607 13.6745 39.78 13.7211C39.953 13.7676 40.1151 13.8481 40.2568 13.9577C40.3984 14.0674 40.5169 14.2041 40.6054 14.3599C40.6938 14.5157 40.7505 14.6875 40.772 14.8654H37.5965C37.7023 14.5088 37.9254 14.1984 38.2296 13.9844C38.5339 13.7704 38.9015 13.6655 39.2728 13.6865H39.2489Z" fill="#FFE3C6"/>
</svg>
