<svg xmlns="http://www.w3.org/2000/svg" width="24" height="24" viewBox="0 0 24 24" fill="none"><rect width="24" height="24" fill="none"/>
<path fill-rule="evenodd" clip-rule="evenodd" d="M14.6399 21.6479C17.8671 20.7667 20.4438 18.3096 21.4917 15.1548C21.786 14.2705 21.96 13.3311 21.9941 12.3562C21.9982 12.2383 22.0003 12.1199 22.0003 12.0009C22.0003 11.3348 21.935 10.684 21.8106 10.0544C21.7555 9.77563 21.6887 9.50102 21.6109 9.23111C20.8596 6.6189 19.0721 4.44535 16.722 3.18399C15.5472 2.55345 14.2318 2.15086 12.835 2.03536C12.5596 2.01259 12.2811 2.00098 11.9998 2.00098C6.47725 2.00098 2.00031 6.47792 2.00031 12.0005C2.00031 13.8156 2.48388 15.5176 3.32923 16.985C3.71595 17.6562 4.17838 18.2784 4.70487 18.8397C5.35195 19.5297 6.09579 20.1277 6.91473 20.6124C7.56243 20.9956 8.2571 21.3079 8.98805 21.5385C9.93851 21.8384 10.9503 22.0001 11.9998 22.0001C12.109 22.0001 12.2178 21.9983 12.3261 21.9948C13.1245 21.9692 13.8994 21.85 14.6399 21.6479ZM8.99573 21.5144C8.26509 21.2823 7.57091 20.9684 6.92395 20.5834L7.85627 17.6579L4.73951 18.8267C4.21306 18.2654 3.75079 17.6432 3.36438 16.9718L8.7143 14.9656L12.8293 2.05323C14.2276 2.1654 15.5446 2.56579 16.7208 3.19494L15.6884 12.3503L21.8106 10.0544C21.935 10.684 22.0003 11.3348 22.0003 12.0009C22.0003 12.1199 21.9982 12.2383 21.9941 12.3562L15.4092 14.8256L14.6416 21.6331C13.9011 21.8342 13.1264 21.9521 12.3282 21.9763L13.0341 15.7162L10.5462 16.6492L8.99573 21.5144ZM11.4043 13.9568L14.2337 5.07858L13.3132 13.2409L11.4043 13.9568Z" fill="white"/>
</svg>
