<svg xmlns="http://www.w3.org/2000/svg" width="109" height="24" viewBox="0 0 109 24" fill="none"><rect width="109" height="24" fill="none"/>
<path d="M49.3018 12.0608C49.3018 16.0473 46.8694 17.9257 43.8356 17.9257H41.9775V15.5338H43.6937C45.5181 15.5338 46.7478 14.5473 46.7478 12.0608C46.7478 9.60135 45.5924 8.37162 43.6397 8.37162C41.7546 8.37162 40.41 9.52703 40.41 12.0135V22H37.8762V6.29054H40.41V7.64189H40.7681C41.1632 7.11814 41.6778 6.69646 42.269 6.41202C42.8602 6.12758 43.5109 5.98863 44.1667 6.00676C46.964 6.00676 49.3018 8.03378 49.3018 12.0608ZM32.66 11.0203L30.9708 10.8514C29.6397 10.7297 28.9437 10.3716 28.9437 9.60135C28.9437 8.68243 29.8356 8.14865 31.1127 8.14865C32.437 8.14865 33.2816 8.77703 33.3559 9.67568H35.7883C35.6937 7.40541 33.937 6.00676 31.1397 6.00676C28.3154 6.00676 26.41 7.5 26.41 9.69595C26.41 11.527 27.5654 12.7095 30.1937 12.9797L31.91 13.1486C32.9437 13.2432 33.6464 13.4595 33.6464 14.4459C33.6464 15.3446 32.9978 15.9932 31.2816 15.9932C29.7073 15.9932 28.9302 15.277 28.6532 14.3176H26.0181C26.2883 16.5135 28.1262 18.2162 31.2883 18.2162C34.2478 18.2162 36.1802 16.6419 36.1802 14.3311C36.1802 12.277 34.8289 11.2432 32.66 11.0203ZM59.1127 14.3176C58.714 15.2297 57.7613 15.9189 56.4167 15.9189C54.5586 15.9189 53.187 14.7162 53.187 12.1081C53.187 9.62162 54.464 8.25 56.4437 8.25C58.2005 8.25 59.214 9.31081 59.3154 10.8986H54.7546V12.7365H61.7951V11.527C61.7951 8.17568 59.5789 6.00676 56.4167 6.00676C53.4775 6.00676 50.6532 8.00676 50.6532 12.1081C50.6532 16.2095 53.4775 18.2162 56.4167 18.2162C57.598 18.255 58.7573 17.8899 59.7031 17.1811C60.649 16.4723 61.325 15.4623 61.6194 14.3176H59.1127ZM19.1802 6.00676C16.41 6.00676 14.3356 7.4527 14.0924 9.66892H16.8221C17.0113 8.85135 17.7681 8.25 19.187 8.25C21.0181 8.25 21.6194 9.21622 21.6194 10.3986V14.3784C20.5856 15.5608 19.3762 16.1149 18.1735 16.1149C16.9167 16.1149 16.0519 15.5068 16.0519 14.4257C16.0519 13.3851 16.7275 12.7365 18.0248 12.7365H20.0519V10.9054H17.9573C15.0586 10.9054 13.4437 12.3514 13.4437 14.5676C13.4437 16.6419 15.0113 18.2162 17.5924 18.2162C18.9212 18.1915 20.207 17.7416 21.2613 16.9324H21.6194V17.9257H24.1532V10.1554C24.1532 7.28378 22.2005 6.00676 19.187 6.00676H19.1802ZM1.9978 17.9257H4.53159V2H2.00456V17.9257H1.9978ZM12.6397 6.29054H9.55186L5.86267 11.1419V12.6622L9.64645 17.9189H12.7816L8.34915 11.8986L12.6465 6.30405L12.6397 6.29054ZM104.194 6.29054L102.119 10.8986C101.651 11.8334 101.273 12.8108 100.991 13.8176H100.626C100.484 13.0946 99.9775 12.0338 99.4708 10.9257L97.3964 6.29054H94.5991L99.464 16.7432L97.0586 22H99.7613L106.991 6.29054H104.194ZM94.0383 6.29054H90.9505L87.2613 11.1419V12.6622L91.0451 17.9189H94.1802L89.741 11.8919L94.0383 6.29054ZM78.1802 11.0203L76.491 10.8514C75.1667 10.7297 74.464 10.3716 74.464 9.60135C74.464 8.68243 75.3559 8.14865 76.6329 8.14865C77.964 8.14865 78.8086 8.77703 78.8762 9.66892H81.3086C81.2208 7.40541 79.4573 6.00676 76.66 6.00676C73.8356 6.00676 71.9302 7.49324 71.9302 9.69595C71.9302 11.527 73.0924 12.7095 75.714 12.973L77.4302 13.1419C78.4708 13.2432 79.1667 13.4595 79.1667 14.4459C79.1667 15.3378 78.5181 15.9932 76.8019 15.9932C75.2275 15.9932 74.4505 15.277 74.1735 14.3176H71.5383C71.8086 16.5068 73.6464 18.2095 76.8086 18.2095C79.7681 18.2095 81.7005 16.6419 81.7005 14.3243C81.7005 12.277 80.3491 11.2365 78.1802 11.0203ZM83.3964 17.9189H85.9302V2H83.3964V17.9257V17.9189ZM66.7005 7.64865H66.3356V6.2973H63.8018V17.9189H66.3356V11.8378C66.3356 9.77027 67.2951 8.56081 69.1802 8.56081H70.7816V6.00676H69.8559C68.0991 6.00676 67.3559 6.66216 66.6937 7.64189L66.7005 7.64865Z" fill="#00A88E"/>
</svg>
