<svg xmlns="http://www.w3.org/2000/svg" width="24" height="24" viewBox="0 0 24 24" fill="none"><rect width="24" height="24" fill="none"/>
<path d="M18.8043 14.2957H11.6615V4.20996H18.1663C20.266 4.20996 21.4053 5.51836 21.4053 7.06651C21.4053 7.76159 21.0549 8.47155 20.5178 9.00866C21.3096 9.42683 21.9884 10.3686 21.9884 11.3509C21.9884 13.0788 20.6396 14.2952 18.8043 14.2952V14.2957ZM14.1543 12.2666H18.4646C19.0687 12.2666 19.4664 11.8201 19.4664 11.2709V11.2547C19.4664 10.7055 19.0687 10.259 18.4646 10.259H14.1543V12.2666ZM14.1543 8.23041H17.842C18.4948 8.23041 18.8833 7.7839 18.8833 7.2347C18.8833 6.68551 18.519 6.239 17.842 6.239H14.1543V8.23041Z" fill="white"/>
<path d="M7.2782 14.2957H2V4.20996H6.6398C8.73946 4.20996 9.87874 5.51836 9.87874 7.06651C9.87874 7.76159 9.5284 8.47155 8.99129 9.00866C9.78302 9.42683 10.4618 10.3686 10.4618 11.3509C10.4618 13.0788 9.11302 14.2952 7.27774 14.2952L7.2782 14.2957ZM4.49274 12.2666H6.93855C7.54257 12.2666 7.9403 11.8201 7.9403 11.2709V11.2547C7.9403 10.7055 7.54257 10.259 6.93855 10.259H4.49274V12.2666ZM4.49274 8.23041H6.31595C6.96876 8.23041 7.35719 7.7839 7.35719 7.2347C7.35719 6.68551 6.99292 6.239 6.31595 6.239H4.49274V8.23041Z" fill="white"/>
<path d="M3.20386 17.1592H4.01928C4.42398 17.1592 4.75851 17.2786 5.02242 17.5179C5.28633 17.7572 5.41828 18.0652 5.41828 18.443C5.41828 18.8207 5.28633 19.1246 5.02242 19.3653C4.75851 19.6064 4.42398 19.7268 4.01928 19.7268H2.35962V15.6208H5.06609V16.4186H3.20386V17.1592ZM4.44163 18.8189C4.54943 18.7301 4.60379 18.6051 4.60379 18.443C4.60379 18.2808 4.54989 18.1549 4.44163 18.0643C4.33384 17.9737 4.18887 17.9282 4.00813 17.9282H3.20432V18.9518H4.00813C4.18934 18.9518 4.33384 18.9076 4.44163 18.8189Z" fill="white"/>
<path d="M6.62679 19.7268H5.91544V16.8354H6.70763V18.5415L8.00302 16.8354H8.70833V19.7268H7.92171V18.0206L6.62632 19.7268H6.62679Z" fill="white"/>
<path d="M10.5157 19.7904C10.1919 19.7904 9.9029 19.7096 9.64828 19.5474C9.39366 19.3853 9.23755 19.1427 9.17993 18.8189H9.99536C10.0609 19.0349 10.2323 19.1427 10.5102 19.1427C10.8071 19.1348 10.9553 19.0252 10.9553 18.8128C10.9553 18.7204 10.9228 18.647 10.8568 18.5931C10.7913 18.5392 10.6969 18.5122 10.5734 18.5122H10.2207V17.9686H10.5446C10.6486 17.9686 10.7304 17.9444 10.7903 17.8966C10.8503 17.8483 10.88 17.7781 10.88 17.6856C10.88 17.5932 10.847 17.5258 10.7815 17.4719C10.716 17.418 10.6217 17.3911 10.4981 17.3911C10.263 17.3911 10.1106 17.4891 10.0414 17.6856H9.24916C9.31467 17.3697 9.46522 17.1383 9.70032 16.9919C9.93542 16.8456 10.2091 16.7722 10.5213 16.7722C10.8837 16.7722 11.1602 16.86 11.3511 17.0352C11.5421 17.2108 11.6374 17.4083 11.6374 17.628C11.6374 17.8785 11.5468 18.0713 11.3656 18.2065C11.6239 18.3491 11.7531 18.5726 11.7531 18.8774C11.7531 19.12 11.6453 19.3332 11.4292 19.5163C11.2132 19.6993 10.9088 19.7909 10.5153 19.7909L10.5157 19.7904Z" fill="white"/>
<path d="M12.305 19.7268V16.8354H13.0972V17.9282H14.2885V16.8354H15.0807V19.7268H14.2885V18.6163H13.0972V19.7268H12.305Z" fill="white"/>
<path d="M17.1256 19.7904C16.6823 19.7904 16.319 19.6478 16.0355 19.3625C15.7521 19.0772 15.6104 18.7148 15.6104 18.2753C15.6104 17.8357 15.754 17.4849 16.0411 17.1996C16.3283 16.9144 16.6916 16.7717 17.1311 16.7717C17.5707 16.7717 17.9424 16.9232 18.2356 17.2257C18.5283 17.5281 18.6635 17.9416 18.6403 18.4662H16.3849C16.4003 18.6474 16.4756 18.7989 16.6108 18.9202C16.7455 19.0414 16.9309 19.1023 17.166 19.1023C17.3086 19.1023 17.435 19.0744 17.5447 19.0182C17.6548 18.9624 17.7328 18.8844 17.7788 18.784H18.6059C18.5209 19.0809 18.3434 19.323 18.0739 19.5098C17.8039 19.697 17.488 19.7904 17.1256 19.7904ZM17.1079 17.4134C16.9267 17.4134 16.7752 17.4608 16.654 17.5551C16.5327 17.6494 16.4528 17.7795 16.4142 17.9454H17.7733C17.731 17.7642 17.6469 17.6303 17.5219 17.5435C17.3964 17.4566 17.2589 17.4134 17.1084 17.4134H17.1079Z" fill="white"/>
<path d="M20.5192 19.7904C20.0834 19.7904 19.721 19.645 19.432 19.3537C19.143 19.0628 18.998 18.705 18.998 18.2808C18.998 17.8566 19.1425 17.4993 19.432 17.208C19.721 16.9171 20.0834 16.7712 20.5192 16.7712C20.9044 16.7712 21.2278 16.879 21.488 17.0951C21.7482 17.3111 21.9187 17.5922 22 17.9393H21.179C21.0517 17.6387 20.8319 17.4882 20.5197 17.4882C20.3078 17.4882 20.134 17.5607 19.9993 17.7052C19.8641 17.8497 19.7967 18.0415 19.7967 18.2804C19.7967 18.5192 19.8641 18.7111 19.9993 18.8556C20.134 19.0001 20.3078 19.0726 20.5197 19.0726C20.8319 19.0726 21.0517 18.922 21.179 18.6214H22C21.9192 18.9685 21.7486 19.2496 21.488 19.4656C21.2278 19.6817 20.9049 19.7895 20.5192 19.7895V19.7904Z" fill="white"/>
</svg>
