<svg xmlns="http://www.w3.org/2000/svg" width="24" height="24" viewBox="0 0 24 24" fill="none"><rect width="24" height="24" fill="none"/>
<path d="M3.34156 7.01011L3.35886 6.99991L7.42801 7.16854L7.40998 7.17876V14.6416L16.0737 19.6437L12.0128 21.997L11.985 21.981L3.34156 16.9908V7.01011Z" fill="url(#paint0_linear_3891_185)"/>
<path d="M20.6459 6.99031V7.01069L18.4655 10.45V10.4297L12.0024 6.69818L5.53868 10.4297L3.34326 11.5913L3.33875 7.00143L3.35829 6.99031L12.0024 2L20.6459 6.99031Z" fill="url(#paint1_linear_3891_185)"/>
<path d="M16.0715 19.6271L12 17.2766L12.0181 17.2869L16.5924 14.6456V7.1827L16.6036 4.65626L20.6607 6.99889L20.6615 16.9948L16.0715 19.6271Z" fill="url(#paint2_linear_3891_185)"/>
<defs>
<linearGradient id="paint0_linear_3891_185" x1="9.23197" y1="2" x2="11.1804" y2="15.0755" gradientUnits="userSpaceOnUse">
<stop stop-color="white" stop-opacity="0"/>
<stop offset="1" stop-color="white"/>
</linearGradient>
<linearGradient id="paint1_linear_3891_185" x1="19.1088" y1="9.75111" x2="7.98145" y2="9.4399" gradientUnits="userSpaceOnUse">
<stop stop-color="white" stop-opacity="0"/>
<stop offset="1" stop-color="white"/>
</linearGradient>
<linearGradient id="paint2_linear_3891_185" x1="13.4437" y1="21.0639" x2="19.9526" y2="6.59322" gradientUnits="userSpaceOnUse">
<stop stop-color="white" stop-opacity="0"/>
<stop offset="1" stop-color="white"/>
</linearGradient>
</defs>
</svg>
