<svg xmlns="http://www.w3.org/2000/svg" width="137" height="24" viewBox="0 0 137 24" fill="none"><rect width="137" height="24" fill="none"/>
<path d="M91.9613 15.2719H93.0039V9.47939H95.6174V15.2719H96.66V8.48036H91.9613V15.2719ZM101.452 11.3426C101.263 11.1234 101.03 10.9468 100.768 10.8241C100.492 10.6963 100.192 10.6317 99.8882 10.6351C99.6402 10.6351 99.3936 10.7004 99.1491 10.8297C98.9135 10.9502 98.7168 11.1351 98.5821 11.3629V10.7517H97.5929V17.544H98.5821V14.6621C98.7149 14.889 98.9039 15.0668 99.1491 15.196C99.3936 15.3246 99.6402 15.39 99.8882 15.39C100.192 15.3935 100.492 15.3292 100.768 15.2017C101.033 15.0752 101.262 14.9024 101.452 14.6825C101.642 14.4626 101.79 14.2111 101.896 13.9258C102.002 13.6413 102.055 13.3371 102.055 13.0139C102.055 12.6971 102.002 12.395 101.896 12.1062C101.796 11.8267 101.645 11.5679 101.452 11.3426ZM100.98 13.564C100.927 13.7304 100.842 13.8851 100.731 14.02C100.622 14.1492 100.492 14.2518 100.341 14.3298C100.19 14.4071 100.021 14.4464 99.8334 14.4464C99.6402 14.4464 99.466 14.4071 99.3114 14.3298C99.1602 14.2543 99.0258 14.1489 98.9165 14.02C98.8049 13.8852 98.7202 13.7301 98.6672 13.5633C98.6087 13.3854 98.5795 13.1991 98.5807 13.0118C98.5807 12.8172 98.6088 12.6324 98.6672 12.4589C98.7248 12.2833 98.8077 12.1322 98.9165 12.003C99.0261 11.8737 99.1575 11.7711 99.3114 11.6931C99.466 11.6158 99.6388 11.5765 99.8334 11.5765C100.02 11.5765 100.19 11.6158 100.341 11.6931C100.492 11.7704 100.623 11.8737 100.731 12.003C100.84 12.1322 100.923 12.2847 100.98 12.4596C101.038 12.6379 101.067 12.8244 101.066 13.0118C101.068 13.1993 101.039 13.3859 100.98 13.564ZM106.503 11.3426C106.306 11.1222 106.065 10.9456 105.795 10.8241C105.506 10.6951 105.192 10.6306 104.875 10.6351C104.536 10.6351 104.231 10.6983 103.958 10.8241C103.691 10.9454 103.454 11.1222 103.26 11.3426C103.065 11.5664 102.912 11.8246 102.811 12.1041C102.705 12.3922 102.652 12.6943 102.652 13.0118C102.652 13.335 102.705 13.6392 102.811 13.923C102.917 14.2083 103.066 14.4598 103.26 14.6804C103.453 14.9003 103.686 15.0738 103.958 15.1989C104.23 15.3253 104.536 15.3878 104.875 15.3878C105.214 15.3878 105.521 15.3246 105.795 15.1989C106.065 15.0774 106.306 14.9007 106.503 14.6804C106.699 14.4605 106.85 14.2083 106.957 13.923C107.063 13.6392 107.115 13.335 107.115 13.0118C107.115 12.695 107.063 12.3929 106.957 12.1041C106.855 11.824 106.701 11.5656 106.503 11.3426ZM106.036 13.564C105.975 13.7397 105.891 13.8907 105.782 14.02C105.673 14.1492 105.542 14.2518 105.387 14.3298C105.232 14.4071 105.062 14.4464 104.875 14.4464C104.687 14.4464 104.518 14.4071 104.367 14.3298C104.217 14.254 104.085 14.1486 103.977 14.02C103.865 13.885 103.781 13.73 103.727 13.5633C103.669 13.3852 103.64 13.199 103.641 13.0118C103.641 12.8172 103.669 12.6324 103.727 12.4589C103.785 12.2833 103.868 12.1322 103.977 12.003C104.087 11.8737 104.217 11.7711 104.367 11.6931C104.518 11.6158 104.687 11.5765 104.875 11.5765C105.062 11.5765 105.232 11.6158 105.387 11.6931C105.542 11.7704 105.673 11.8737 105.782 12.003C105.891 12.1322 105.975 12.2847 106.036 12.4596C106.097 12.6338 106.126 12.8179 106.126 13.0118C106.126 13.2057 106.096 13.3898 106.036 13.564ZM111.633 11.9201C111.467 11.7401 111.267 11.5951 111.044 11.4936C110.805 11.3844 110.545 11.3293 110.282 11.332H108.921V9.48009H111.679V8.48036H107.878V15.2719H110.282C110.544 15.2753 110.804 15.2226 111.044 15.1174C111.274 15.0141 111.47 14.8715 111.633 14.6902C111.797 14.5097 111.922 14.2996 112.009 14.0593C112.098 13.8205 112.141 13.5675 112.141 13.3027C112.141 13.0371 112.096 12.7849 112.009 12.5453C111.927 12.3139 111.799 12.1013 111.633 11.9201ZM110.877 13.9961C110.808 14.0881 110.718 14.1622 110.615 14.2121C110.511 14.262 110.397 14.2862 110.282 14.2827H108.922V12.3226H110.282C110.53 12.3226 110.729 12.4189 110.877 12.6093C111.025 12.8003 111.1 13.0315 111.1 13.3034C111.098 13.5739 111.025 13.8057 110.877 13.9961ZM115.777 11.1585L113.899 13.7102V10.751H112.911V15.2719H113.899V14.8932L115.777 12.3613V15.2719H116.766V10.751H115.777V11.1585ZM119.957 12.943C120.194 12.9125 120.414 12.8011 120.578 12.6275C120.739 12.4554 120.819 12.2088 120.819 11.8849C120.823 11.7119 120.787 11.5403 120.713 11.3838C120.639 11.2272 120.529 11.0902 120.393 10.9835C120.108 10.751 119.722 10.6344 119.232 10.6344C118.73 10.6344 118.331 10.77 118.034 11.0419C117.739 11.3137 117.59 11.6728 117.59 12.1189H118.552C118.552 11.9376 118.601 11.7845 118.697 11.6587C118.794 11.5322 118.969 11.469 119.223 11.469C119.423 11.469 119.581 11.5238 119.699 11.6306C119.757 11.6807 119.802 11.7427 119.832 11.8122C119.863 11.8818 119.878 11.9572 119.876 12.0332C119.876 12.2207 119.824 12.3704 119.722 12.4793C119.619 12.5896 119.434 12.6444 119.168 12.6444H118.742V13.3821H119.223C119.483 13.3821 119.672 13.4404 119.79 13.5563C119.848 13.6146 119.894 13.6843 119.925 13.761C119.955 13.8378 119.969 13.9199 119.966 14.0024C119.966 14.183 119.903 14.315 119.776 14.3994C119.65 14.4837 119.491 14.5258 119.305 14.5258C119.033 14.5258 118.83 14.4661 118.697 14.346C118.631 14.287 118.579 14.2142 118.545 14.1329C118.51 14.0515 118.494 13.9636 118.497 13.8753H117.536C117.536 14.3347 117.683 14.7015 117.976 14.9769C118.269 15.2523 118.688 15.3892 119.232 15.3892C119.456 15.3892 119.669 15.3583 119.872 15.2972C120.075 15.2354 120.253 15.1483 120.407 15.0352C120.561 14.9221 120.683 14.7815 120.774 14.6129C120.865 14.4443 120.911 14.2539 120.911 14.0404C120.911 13.7102 120.819 13.453 120.635 13.2689C120.452 13.0867 120.213 12.9718 119.957 12.943ZM124.56 12.5362H122.628V10.751H121.64V15.2719H122.628V13.4193H124.56V15.2719H125.548V10.751H124.56V12.5362ZM129.685 11.2217C129.504 11.0353 129.288 10.8872 129.049 10.7864C128.81 10.6856 128.553 10.6341 128.293 10.6351C127.96 10.6351 127.664 10.6948 127.404 10.8149C127.143 10.9351 126.926 11.1009 126.75 11.3145C126.575 11.528 126.441 11.7809 126.346 12.0718C126.251 12.3764 126.203 12.694 126.206 13.0132C126.206 13.3427 126.25 13.6525 126.337 13.9434C126.424 14.2343 126.556 14.4872 126.731 14.7008C126.907 14.9136 127.126 15.0822 127.389 15.2045C127.652 15.3267 127.962 15.3885 128.319 15.3885C128.591 15.3885 128.835 15.3485 129.054 15.2677C129.271 15.1869 129.462 15.0787 129.625 14.9431C129.941 14.6843 130.151 14.3182 130.215 13.9146H129.218C129.156 14.0762 129.063 14.2153 128.937 14.3312C128.809 14.4478 128.604 14.5047 128.319 14.5047C128.113 14.5047 127.941 14.4745 127.803 14.4134C127.671 14.3574 127.554 14.2707 127.463 14.1605C127.373 14.0502 127.306 13.9228 127.267 13.786C127.224 13.6373 127.196 13.4845 127.185 13.3301H130.205C130.23 13.1825 130.243 13.054 130.247 12.9472C130.25 12.8404 130.25 12.7484 130.25 12.6711C130.253 12.3955 130.202 12.1221 130.101 11.866C130.006 11.626 129.864 11.4071 129.685 11.2217ZM127.187 12.5453C127.187 12.1772 127.289 11.899 127.495 11.7107C127.701 11.5231 127.958 11.4297 128.266 11.4297C128.568 11.4297 128.814 11.528 129.005 11.7254C129.194 11.9236 129.29 12.1962 129.29 12.5453H127.187ZM133.977 13.7207C133.911 13.9469 133.809 14.1247 133.675 14.2532C133.538 14.3825 133.325 14.4478 133.035 14.4478C132.823 14.4478 132.643 14.4085 132.491 14.3312C132.345 14.2579 132.218 14.1518 132.119 14.0214C132.019 13.8845 131.947 13.7294 131.906 13.5647C131.86 13.3843 131.837 13.1987 131.838 13.0125C131.838 12.8186 131.861 12.6367 131.906 12.4645C131.948 12.3005 132.02 12.1459 132.119 12.0086C132.216 11.8765 132.333 11.7704 132.473 11.6931C132.613 11.6158 132.779 11.5765 132.972 11.5765C133.311 11.5765 133.554 11.6524 133.701 11.8041C133.85 11.9559 133.939 12.1554 133.969 12.4013H134.958C134.94 12.1796 134.889 11.9619 134.808 11.755C134.726 11.5449 134.603 11.3536 134.445 11.1929C134.271 11.0188 134.065 10.8814 133.837 10.7889C133.592 10.6857 133.297 10.6344 132.953 10.6344C132.609 10.6344 132.306 10.7004 132.046 10.8332C131.785 10.9653 131.566 11.1423 131.388 11.3615C131.207 11.5877 131.07 11.8461 130.985 12.1231C130.895 12.4111 130.848 12.7069 130.848 13.0118C130.848 13.3209 130.893 13.6188 130.985 13.9041C131.075 14.1893 131.21 14.4408 131.388 14.6614C131.567 14.8813 131.788 15.0576 132.051 15.1904C132.314 15.3225 132.618 15.3892 132.962 15.3892C133.271 15.3892 133.541 15.3464 133.774 15.2628C133.991 15.1888 134.19 15.0721 134.361 14.9197C134.531 14.7673 134.669 14.5822 134.767 14.3755C134.865 14.1682 134.932 13.9479 134.967 13.7214L133.977 13.7207Z" fill="white"/>
<path d="M82.415 7.92402V11.5709H77.5823V7.92402H75.1987V17.5513H77.5823V13.6616H82.415V17.5513H84.7973V7.92402H82.415ZM39.6816 13.4258L41.1103 9.78495C41.1235 9.74387 41.1483 9.70748 41.1818 9.68017C41.2151 9.65428 41.2562 9.64043 41.2984 9.64088C41.3419 9.6382 41.3848 9.65084 41.4199 9.6766C41.4556 9.70399 41.4818 9.7397 41.4961 9.78495L42.9248 13.4258H39.6816ZM43.2022 8.64196C43.0455 8.2475 42.7795 7.90593 42.4355 7.65733C42.1043 7.41811 41.7069 7.28787 41.2984 7.28467C40.8936 7.28705 40.4972 7.41563 40.1602 7.65733C39.8221 7.89902 39.5542 8.24073 39.3923 8.64196L35.599 17.5513H38.0671L38.897 15.432H43.7058L44.5309 17.5513H47.0003L43.2022 8.64077V8.64196ZM14.8931 6C13.7906 6 13.0881 6.60721 12.5667 7.8252L9.49488 15.1201L6.4243 7.8252C5.90282 6.60721 5.20036 6 4.09547 6C3.06559 6 2 6.76199 2 8.41694V17.4453H4.35026V8.66339L7.44108 15.8963C7.85304 16.9084 8.52216 17.5513 9.49369 17.5513C10.4676 17.5513 11.132 16.9167 11.5487 15.8963L14.6359 8.66339V17.4453H16.9981V8.41694C16.9981 6.76199 15.9313 6 14.9003 6M20.9605 15.5142C20.9037 15.5144 20.8491 15.4927 20.8081 15.4534C20.788 15.4349 20.7719 15.4124 20.7609 15.3875C20.7498 15.3625 20.744 15.3355 20.7438 15.3082V13.5913H27.0576V11.6268H20.7414V10.1636C20.7414 10.1088 20.7652 10.0564 20.8057 10.0195C20.8474 9.98062 20.9022 9.95894 20.9593 9.95878H27.2016V7.92402H19.7127C19.3127 7.92402 18.9293 8.07642 18.6459 8.34431C18.5068 8.47527 18.3958 8.63316 18.3197 8.80837C18.2436 8.98357 18.2039 9.17244 18.203 9.36347V16.1118C18.203 16.4928 18.3614 16.8595 18.6459 17.1298C18.9293 17.4001 19.3126 17.5501 19.7139 17.5501H27.2028V15.5177L20.9605 15.5142ZM31.3711 17.5465V10.1648C31.3708 10.111 31.3916 10.0594 31.429 10.0208C31.4664 9.98231 31.5175 9.96002 31.5712 9.95878H37.4004V7.92402H30.4103C30.0365 7.92402 29.6769 8.07642 29.4138 8.34431C29.1482 8.61602 28.9998 8.98113 29.0006 9.36109V17.5501L31.3699 17.5465H31.3711ZM68.9765 15.4796H68.2241C66.2584 15.4796 65.4976 14.5379 65.4976 12.4352C65.4976 10.3922 66.1655 9.38967 68.2241 9.38967H68.9765C70.9851 9.38967 71.703 10.3922 71.703 12.4305C71.703 14.5319 70.9291 15.4761 68.9765 15.4761V15.4796ZM73.9973 12.4245C73.9973 8.90985 72.5924 7.28229 69.0111 7.28229H68.1848C64.6165 7.28229 63.1997 8.91937 63.1997 12.4257C63.1997 15.8832 64.6451 17.5525 68.2086 17.5525H68.9908C72.5508 17.5525 73.9973 15.8832 73.9973 12.4245ZM58.8826 12.5448C58.5158 13.5354 57.9182 14.164 56.2596 14.164H55.1202V8.10619H56.6299C58.042 8.10619 59.0088 9.00629 59.0088 11.1339C59.0088 11.6816 59.023 12.165 58.8826 12.5448ZM52.6723 14.164H51.5674C49.9077 14.164 49.3101 13.5258 48.9422 12.5448C48.8017 12.1638 48.8017 11.6792 48.8017 11.1327C48.8017 9.00153 49.7673 8.105 51.1817 8.105H52.6902L52.6723 14.164ZM56.3239 6H51.4758C47.8516 6 46.4014 7.86926 46.4014 11.1291C46.3978 11.603 46.4312 12.0769 46.5038 12.5472C46.8884 14.8558 48.2183 16.2738 51.6139 16.2738H52.6819V17.5513H55.1202V16.2726H56.1882C59.5826 16.2726 60.9149 14.8522 61.2983 12.546C61.3697 12.0781 61.4031 11.6042 61.3983 11.1291C61.3995 7.86807 59.9493 6 56.3239 6Z" fill="white"/>
<path d="M88.3142 6.45091H88.9221V18H88.3142V6.45091Z" fill="white"/>
</svg>
