<svg xmlns="http://www.w3.org/2000/svg" width="24" height="24" viewBox="0 0 24 24" fill="none"><rect width="24" height="24" fill="none"/>
<path d="M5.28585 8.84112C5.38334 8.89279 5.4807 8.93884 5.57792 8.97908C5.29173 9.11124 5.01698 9.2434 4.74812 9.38699C4.30703 9.61704 3.87778 9.86414 3.46582 10.1343V7.58822C3.59744 7.703 3.72907 7.8123 3.86071 7.91581C4.23274 8.20316 4.72524 8.5652 5.28585 8.84112Z" fill="white"/>
<path d="M11.4106 19.8874C11.9032 20.3701 12.3036 20.7668 12.6357 21.0886H8.54313C9.08667 20.4218 9.49304 19.6461 9.75657 18.9218C9.81942 18.7552 9.87088 18.5884 9.91673 18.4276C10.4319 18.9332 10.9585 19.4448 11.4106 19.8874Z" fill="white"/>
<path d="M22 21.0886H18.5142L17.9419 20.1747C16.3617 17.6517 14.6275 14.87 13.8262 13.548C14.5533 13.2204 15.5606 12.7204 16.4364 11.7146C17.1919 10.8468 17.9015 9.27211 17.4037 7.72028C17.0603 6.65122 16.4421 5.82942 15.4404 5.14542C14.3643 4.40395 12.853 3.67988 11.1703 3.06494H13.9634C14.9538 3.06494 15.8582 3.22012 16.6824 3.53612C17.5181 3.85228 18.2221 4.28902 18.806 4.85228C19.4013 5.41555 19.8534 6.0709 20.1741 6.81203C20.4947 7.5593 20.6663 8.35824 20.6663 9.21448C20.6663 10.1342 20.4947 10.8985 20.1625 11.5192C19.8307 12.1399 19.4701 12.6514 19.0922 13.048C18.7546 13.3872 18.1766 13.9906 17.7873 14.2436L22 21.0886Z" fill="white"/>
<path d="M15.1412 10.5816C15.6576 9.98834 16.0162 9.01881 15.7686 8.24488C15.5933 7.69668 15.2858 7.12729 14.4697 6.5632C11.7628 4.69238 5.68405 2.90918 2 2.90918C2.05117 3.04714 2.11045 3.18493 2.18028 3.32289C2.38234 3.72584 2.64091 4.12084 2.92369 4.50209C3.49474 5.25929 4.1734 5.9625 4.91152 6.5521C5.28316 6.84127 5.66833 7.11454 6.0669 7.30649C6.16387 7.36065 6.26903 7.40122 6.37411 7.44445C6.47636 7.49049 6.58138 7.53637 6.6893 7.5743C6.79414 7.61752 6.89923 7.66621 7.00959 7.70414C7.11745 7.74471 7.22253 7.79341 7.33549 7.83134C8.05745 8.09086 8.84922 8.26939 9.63582 8.39096C9.81347 8.40454 9.99392 8.42623 10.1824 8.46399L10.2042 8.46946C10.4409 8.51815 10.5971 8.75068 10.5488 8.98867C10.511 9.18078 10.3548 9.31593 10.1745 9.34027C10.1475 9.34574 10.1232 9.34574 10.0963 9.34838C9.73809 9.42689 9.33131 9.51616 8.95967 9.62149C8.56387 9.72434 8.17315 9.8406 7.78547 9.97045C7.0152 10.2273 6.25832 10.5329 5.53921 10.917C4.81442 11.2929 4.11966 11.7336 3.46511 12.2368V21.091H5.37742C7.52001 21.091 9.46242 16.5147 7.87071 15.1794L7.82852 15.1382C7.66673 14.9792 7.7206 14.7003 7.89836 14.5595C8.03031 14.4569 8.20273 14.4459 8.3428 14.519L8.35363 14.5244C8.52334 14.6137 15.0341 21.0614 15.1039 21.091H16.4869C16.4869 21.091 11.9535 13.8636 11.8426 13.5594C11.275 11.9999 13.5463 12.4136 15.1412 10.5816Z" fill="white"/>
</svg>
