<svg xmlns="http://www.w3.org/2000/svg" width="24" height="24" viewBox="0 0 24 24" fill="none"><rect width="24" height="24" fill="none"/>
<path d="M20.9948 8.63443C20.9161 7.60374 20.1294 6.28235 19.3427 5.64809C18.458 4.99898 17.5388 4.39906 16.5892 3.85099C15.6468 3.28805 14.6751 2.77638 13.6784 2.31818C13.1459 2.0993 12.575 1.99142 12.0001 2.00105C11.4249 1.98887 10.8535 2.09685 10.3217 2.31818C9.32517 2.77671 8.35352 3.28837 7.41092 3.85099C5.88995 4.77597 4.65743 5.64809 4.65743 5.64809C4.06771 6.14547 3.6083 6.77299 3.31033 7.47527C3.20156 7.73161 3.40141 8.00006 3.67987 8.00006H4.45476C4.76438 8.00006 5.04261 7.82406 5.2198 7.57016C5.42064 7.28237 5.65984 7.02013 5.93286 6.79143C5.93286 6.79143 6.95052 6.0763 8.20636 5.31782C8.98465 4.85647 9.78692 4.4369 10.6098 4.06091C11.0488 3.87942 11.5206 3.79088 11.9955 3.80086C12.4702 3.79296 12.9416 3.88143 13.3813 4.06091C14.2043 4.43664 15.0065 4.85621 15.7847 5.31782C16.5688 5.76723 17.3277 6.25917 18.0582 6.79143C18.7077 7.31153 19.3573 8.39507 19.4223 9.24023C19.4223 9.24023 19.5738 10.4971 19.5955 11.9859C19.5942 12.9054 19.5436 13.8241 19.4439 14.7381C19.2928 15.6952 18.8006 16.5651 18.0582 17.1869C18.0582 17.1869 17.0405 17.9237 15.7847 18.6822C15.0064 19.1436 14.2041 19.5631 13.3813 19.9391C12.9422 20.1206 12.4704 20.2091 11.9955 20.1992C11.5212 20.2091 11.0499 20.1229 10.6098 19.9456C9.78679 19.5699 8.9845 19.1503 8.20636 18.6887C6.95052 17.9519 5.93286 17.1934 5.93286 17.1934C5.69119 16.9999 5.44951 16.7284 5.23682 16.4202C5.06387 16.1696 4.78845 16 4.48394 16H3.69067C3.40864 16 3.20999 16.2742 3.32712 16.5308C3.65193 17.2422 4.15468 17.9281 4.65743 18.3334C4.65743 18.3334 5.88995 19.2584 7.41092 20.1569C8.35335 20.7199 9.32501 21.2316 10.3217 21.6898C10.8547 21.9059 11.4257 22.0111 12.0001 21.999C12.5752 22.0111 13.1467 21.9032 13.6784 21.6818C14.675 21.2233 15.6466 20.7116 16.5892 20.149C18.1102 19.224 19.3427 18.3255 19.3427 18.3255C20.2418 17.5671 20.838 16.5063 21.021 15.3392C21.1417 14.2245 21.203 13.1041 21.2046 11.9828C21.1784 10.1672 20.9948 8.63443 20.9948 8.63443Z" fill="url(#paint0_linear_2565_102)"/>
<path d="M2.79555 9.80123C2.79555 9.58032 2.97464 9.40123 3.19555 9.40123H9.39553C9.61644 9.40123 9.79552 9.58032 9.79552 9.80123V11.0012C9.79552 11.2221 9.61644 11.4012 9.39553 11.4012H2.79555V9.80123Z" fill="#0066B3"/>
<path d="M2.79541 12.6011H15.3954C15.6163 12.6011 15.7954 12.7802 15.7954 13.0011V14.2011C15.7954 14.422 15.6163 14.6011 15.3954 14.6011H3.19541C2.9745 14.6011 2.79541 14.422 2.79541 14.2011V12.6011Z" fill="#EE2F53"/>
<defs>
<linearGradient id="paint0_linear_2565_102" x1="12" y1="2.00012" x2="12" y2="21.9999" gradientUnits="userSpaceOnUse">
<stop stop-color="#0066B3"/>
<stop offset="0.354167" stop-color="#0066B3"/>
<stop offset="0.6875" stop-color="#EE2F53"/>
<stop offset="1" stop-color="#EE2F53"/>
</linearGradient>
</defs>
</svg>
