<svg xmlns="http://www.w3.org/2000/svg" width="24" height="24" viewBox="0 0 24 24" fill="none"><rect width="24" height="24" fill="none"/>
<path fill-rule="evenodd" clip-rule="evenodd" d="M1.99951 4.53058V11.4241H3.40421V10.0097H4.93217C5.37517 9.99584 5.80638 9.86368 6.18106 9.62692C6.64562 9.35606 7.01763 8.95123 7.24838 8.46557C7.46894 8.0206 7.55882 7.52233 7.50794 7.02836C7.47924 6.68417 7.38569 6.34849 7.23218 6.03903C6.99113 5.54871 6.6064 5.14361 6.1292 4.87768C5.73465 4.64888 5.28763 4.52591 4.83152 4.52075L1.99951 4.53058ZM3.40421 8.61148V5.93835H4.46171C4.66941 5.93198 4.87725 5.94829 5.0814 5.98703C5.32183 6.03449 5.54265 6.15242 5.71588 6.32567C5.88924 6.49894 6.0071 6.71986 6.05453 6.9603C6.09485 7.12962 6.10076 7.30531 6.0717 7.47696C6.04275 7.64862 5.97948 7.81268 5.88582 7.95942C5.79043 8.11001 5.66634 8.24033 5.52045 8.3427C5.37467 8.44508 5.20999 8.51778 5.03588 8.55628C4.91832 8.5786 4.79876 8.5884 4.6791 8.58559L3.40421 8.61148Z" fill="#020000"/>
<path fill-rule="evenodd" clip-rule="evenodd" d="M21.4636 7.97242C21.5511 7.8622 21.6388 7.74217 21.668 7.69669C21.9499 7.26389 22.0576 6.7406 21.9698 6.2315C21.8819 5.72258 21.605 5.26561 21.1943 4.95233C20.6796 4.64041 20.082 4.49328 19.4815 4.53058H15.6535V11.4241H19.4815C19.9031 11.4241 20.8051 11.2814 21.1879 10.9894C21.5985 10.6761 21.8754 10.2191 21.9634 9.71017C22.0511 9.20121 21.9434 8.67781 21.6615 8.24498C21.6323 8.19963 21.5349 8.0731 21.4571 7.97242H21.4636ZM17.0582 5.93198H19.8838C20.071 5.93298 20.2505 6.00752 20.3833 6.13956C20.4684 6.22992 20.5259 6.34273 20.5489 6.46459C20.5719 6.58659 20.5595 6.71251 20.513 6.82753C20.4665 6.94265 20.3881 7.04197 20.2869 7.11381C20.1858 7.18565 20.0661 7.22699 19.9421 7.23286H17.0582V5.93198ZM20.3898 9.80211C20.3249 9.86882 20.2473 9.92166 20.1614 9.95735C20.0754 9.99303 19.9832 10.0109 19.8901 10.0097H17.0646V8.71213H19.9487C20.0719 8.7185 20.1908 8.75995 20.2915 8.83168C20.392 8.90327 20.47 9.00211 20.5163 9.11662C20.5627 9.231 20.5753 9.35631 20.553 9.4778C20.5305 9.59919 20.4739 9.71176 20.3898 9.80211Z" fill="#020000"/>
<path fill-rule="evenodd" clip-rule="evenodd" d="M8.33494 5.21498C8.33664 5.11859 8.35835 5.02359 8.39857 4.93602C8.43865 4.84837 8.49652 4.77001 8.56836 4.70577C8.64022 4.64153 8.72456 4.59285 8.81617 4.5627C8.90775 4.53242 9.0045 4.52151 9.1005 4.53044H9.74922V9.03312C9.74922 9.03312 13.0322 4.78351 13.2626 4.53044H14.6315V11.424H13.2269V6.90181L9.74922 11.424H8.34131L8.33494 5.21498Z" fill="#020000"/>
<path fill-rule="evenodd" clip-rule="evenodd" d="M20.6275 12.7679V18.0124H19.106V12.7679H17.7367V18.0124H16.2153V12.7679H14.8552V19.3662H21.9814V13.4232C21.9795 13.3311 21.9587 13.2406 21.9205 13.157C21.8823 13.0733 21.8271 12.9984 21.7588 12.9371C21.6904 12.8756 21.61 12.8289 21.5228 12.7998C21.4354 12.7706 21.3433 12.7598 21.2516 12.7679H20.6275Z" fill="#020000"/>
<path fill-rule="evenodd" clip-rule="evenodd" d="M3.36911 14.128H6.74735V12.7587H2.00906V19.3664H3.36911V14.128Z" fill="#020000"/>
<path fill-rule="evenodd" clip-rule="evenodd" d="M13.0244 13.6803C12.3975 13.0191 11.5338 12.6339 10.623 12.6096H10.5267C9.62297 12.6012 8.75204 12.948 8.10164 13.5754C7.61896 14.0491 7.2866 14.6547 7.14589 15.3163C7.00517 15.9778 7.06245 16.6662 7.31054 17.2955C7.55851 17.9246 7.98642 18.4669 8.54069 18.8546C9.09496 19.2422 9.75111 19.4579 10.4273 19.475L10.4398 19.4781C11.3505 19.5024 12.2336 19.1638 12.895 18.537C13.5561 17.9102 13.9413 17.0463 13.9656 16.1355C13.9898 15.2247 13.6514 14.3415 13.0244 13.6803ZM10.5225 18.0404C9.41535 18.0404 8.51786 17.1429 8.51786 16.0358C8.51786 14.9287 9.41535 14.0312 10.5225 14.0312C11.6296 14.0312 12.5271 14.9287 12.5271 16.0358C12.5271 17.1429 11.6296 18.0404 10.5225 18.0404Z" fill="#020000"/>
</svg>
