<svg xmlns="http://www.w3.org/2000/svg" width="125" height="24" viewBox="0 0 125 24" fill="none"><rect width="125" height="24" fill="none"/>
<path d="M11.6916 10.8772V13.1864H18.2753C17.8166 16.8062 15.3191 19.5215 11.4949 19.5215C7.24808 19.5215 4.63778 16.1748 4.63778 11.9579C4.63778 7.74098 7.24229 4.44954 11.4949 4.44954C14.7389 4.44954 16.3479 6.10944 17.0063 6.97969H19.6701C18.9843 4.99289 16.6909 2 11.4949 2C5.98344 2 2 6.24528 2 11.9579C2 17.6705 5.98344 21.971 11.4949 21.971C15.8835 21.971 18.9539 18.7423 19.6773 15.115H19.7945L20.8884 21.6471H22.9619L21.0245 10.8772H11.6916Z" fill="#6F61EF"/>
<path fill-rule="evenodd" clip-rule="evenodd" d="M31.2896 21.9448C35.1645 21.9448 38.1438 18.8982 38.1438 14.9007C38.1438 10.9017 35.1645 7.85509 31.2896 7.85509C27.3872 7.85509 24.434 10.9032 24.434 14.9007C24.434 18.8982 27.3828 21.9448 31.2896 21.9448ZM31.2896 10.1404C33.8984 10.1404 35.6652 12.2347 35.6652 14.9007C35.6652 17.5667 33.8999 19.661 31.2896 19.661C28.6793 19.661 26.9126 17.5398 26.9126 14.9007C26.9126 12.2616 28.6807 10.1404 31.2896 10.1404Z" fill="#6F61EF"/>
<path d="M46.927 2.30654H49.4849V21.6193H46.927V2.30654Z" fill="#6F61EF"/>
<path d="M55.969 8.18114H53.57V21.6186H55.969V14.355C55.969 11.907 57.5042 10.1665 59.8194 10.1665C62.0592 10.1665 63.5366 11.8264 63.5366 14.355V21.6186H65.9617V13.8938C65.9617 10.4381 63.6943 7.8826 60.3981 7.8826C59.4847 7.88319 58.5889 8.14203 57.808 8.631C57.0271 9.11996 56.3911 9.82035 55.969 10.6561V8.18114Z" fill="#6F61EF"/>
<path d="M75.5034 21.6085H73.5789L67.4352 8.17405H70.125L74.6106 18.2827L79.0658 8.17405H81.5444L75.5034 21.6085Z" fill="#6F61EF"/>
<path fill-rule="evenodd" clip-rule="evenodd" d="M85.0199 15.1992H95.8561C95.8561 10.7927 93.0345 7.85509 89.2117 7.85509C85.3889 7.85509 82.5934 10.8211 82.5934 14.9007C82.5934 18.8444 85.441 21.9448 89.449 21.9448C93.826 21.9448 95.5131 18.9265 95.6984 17.7831H93.3254C93.0881 18.219 92.0853 19.661 89.449 19.661C86.8922 19.661 85.1516 17.7025 85.0199 15.1992ZM93.1937 13.1318H85.1776C85.6783 11.2018 87.1295 9.97773 89.2117 9.97773C91.168 9.97773 92.6149 11.1197 93.1937 13.1318Z" fill="#6F61EF"/>
<path d="M102.562 15.7172C100.058 15.4186 98.2909 14.1662 98.2909 11.7182C98.2909 9.35224 100.453 7.80131 103.645 7.80131C108.022 7.80131 109.497 10.1404 109.892 11.5003H107.336C107.072 11.1465 106.044 9.92246 103.645 9.92246C101.693 9.92246 100.665 10.6569 100.665 11.6361C100.665 12.5884 101.351 13.187 102.879 13.3766C103.495 13.4588 103.969 13.5111 104.493 13.5689C104.845 13.6077 105.219 13.649 105.675 13.7035C108.733 14.0841 110.078 15.4948 110.078 17.9473C110.078 20.2043 108.074 22 104.382 22C99.7942 22 98.1606 19.1161 97.8958 17.8652H100.454C100.612 18.2727 101.612 19.8236 104.382 19.8236C106.598 19.8236 107.679 19.0071 107.679 17.9473C107.679 16.9128 107.1 16.2605 105.364 16.0426C104.765 15.9702 104.341 15.9223 103.92 15.8747C103.516 15.8291 103.114 15.7837 102.562 15.7172Z" fill="#6F61EF"/>
<path d="M111.505 10.412H115.354V17.1307C115.354 20.1266 116.83 21.6193 119.915 21.6193H123V19.3339H120.443C118.387 19.3339 117.753 18.5174 117.753 16.559V10.412H123V8.18186H117.753V2.30654H115.354V8.18186H111.505V10.412Z" fill="#6F61EF"/>
</svg>
