<svg xmlns="http://www.w3.org/2000/svg" width="24" height="24" viewBox="0 0 24 24" fill="none"><rect width="24" height="24" fill="none"/>
<path fill-rule="evenodd" clip-rule="evenodd" d="M6.03323 4.70181C6.40659 4.75705 6.7108 5.04705 6.77994 5.4199C6.79377 5.48895 6.79377 5.558 6.79377 5.62704C6.76611 5.91704 6.86291 6.22085 7.07033 6.428C7.29158 6.66276 7.58194 6.96657 7.83088 7.22895C8.07976 7.49133 8.43931 7.61562 8.78498 7.53276C8.93713 7.49133 9.11684 7.49133 9.2828 7.51895C9.82211 7.60181 10.237 8.04371 10.3199 8.56848C10.3476 8.748 10.3337 8.91371 10.2923 9.07943C10.1955 9.43847 10.2784 9.82514 10.5273 10.0875L10.873 10.4604C10.9837 10.5709 11.1634 10.6123 11.3017 10.5433C11.5229 10.4328 11.758 10.3775 12.0207 10.3775C12.2835 10.3775 12.5186 10.4328 12.7398 10.5433C12.878 10.6123 13.0578 10.5847 13.1685 10.4604L13.5141 10.0875C13.763 9.81133 13.846 9.43847 13.7492 9.07943C13.7077 8.91371 13.6939 8.748 13.7216 8.56848C13.7907 8.0299 14.2194 7.60181 14.7587 7.51895C14.9384 7.49133 15.1044 7.50514 15.2565 7.53276C15.6022 7.61562 15.9755 7.49133 16.2106 7.22895L16.7775 6.62133C17.068 6.30371 17.1786 5.9999 17.1233 5.69609C17.1094 5.59943 17.1094 5.50276 17.1233 5.39229C17.1924 5.03324 17.4966 4.74324 17.8562 4.688C18.4231 4.60514 18.9209 5.08847 18.8379 5.66847C18.7826 6.04133 18.4784 6.35895 18.105 6.40038C18.0774 6.40038 18.0497 6.40038 18.0221 6.41419C17.7455 6.428 17.4828 6.53847 17.2892 6.73181L16.418 7.65705C16.1968 7.89181 16.1138 8.20943 16.1691 8.52705C16.1968 8.65133 16.1968 8.78943 16.1691 8.92752C16.0862 9.45229 15.6713 9.88038 15.1597 9.96324C15.0352 9.99085 14.9108 9.99086 14.8002 9.97705C14.4821 9.93562 14.1503 10.0599 13.929 10.2946L13.5418 10.7089C13.3759 10.8885 13.3482 11.068 13.4312 11.2061C13.5695 11.4409 13.6386 11.717 13.6386 12.007C13.6386 12.297 13.5695 12.5732 13.4312 12.808C13.3482 12.9461 13.3759 13.1256 13.4865 13.2361L13.929 13.7056C14.1503 13.9404 14.4683 14.0509 14.8002 14.0232C14.9108 14.0094 15.0352 14.0094 15.1597 14.037C15.6852 14.1199 16.1 14.548 16.1691 15.0728C16.183 15.2108 16.183 15.349 16.1691 15.4733C16.1138 15.7909 16.1968 16.1085 16.418 16.3432C16.6807 16.6332 17.0265 16.9923 17.2892 17.2685C17.4828 17.4756 17.7455 17.5723 18.0221 17.5861C18.0497 17.5861 18.0774 17.5861 18.1188 17.5999C18.4922 17.6552 18.7964 17.9728 18.8517 18.3456C18.9209 18.9118 18.4369 19.3952 17.87 19.3123C17.5104 19.2571 17.2062 18.9809 17.1371 18.6218C17.1233 18.5113 17.1233 18.4147 17.1371 18.318C17.1924 18.0142 17.0818 17.6966 16.8605 17.4756L16.2106 16.7852C15.9617 16.5227 15.6022 16.3985 15.2565 16.4813C15.1044 16.5227 14.9246 16.5227 14.7587 16.4951C14.2194 16.4123 13.8045 15.9704 13.7216 15.4456C13.6939 15.2661 13.7077 15.1004 13.7492 14.9347C13.846 14.5756 13.763 14.189 13.5141 13.9266L13.1685 13.5537C13.0578 13.4432 12.878 13.4018 12.7398 13.4709C12.5186 13.5813 12.2835 13.6366 12.0207 13.6366C11.7719 13.6366 11.5229 13.5813 11.3017 13.4709C11.1634 13.4018 10.9837 13.4294 10.873 13.5537L10.5273 13.9266C10.2784 14.2027 10.1955 14.5756 10.2923 14.9347C10.3337 15.1004 10.3476 15.2661 10.3199 15.4456C10.2508 15.9842 9.82211 16.4123 9.2828 16.4951C9.10303 16.5227 8.93713 16.5089 8.78498 16.4813C8.43931 16.3985 8.06595 16.5227 7.83088 16.7852L7.07033 17.5861C6.86291 17.807 6.76611 18.0971 6.79377 18.3871C6.79377 18.4561 6.79377 18.5251 6.77994 18.5942C6.72463 18.9671 6.42042 19.2709 6.03323 19.3123C5.46629 19.3814 4.98231 18.898 5.05145 18.3318C5.09293 18.0004 5.4248 17.6552 5.75668 17.5999C5.81199 17.5861 5.8673 17.5861 5.92261 17.5861C6.22683 17.5861 6.51721 17.4894 6.72463 17.2685L7.59581 16.3432C7.81702 16.1085 7.89999 15.7909 7.84469 15.4733C7.81702 15.349 7.81702 15.2108 7.84469 15.0728C7.92767 14.548 8.34251 14.1199 8.85415 14.037C8.97856 14.0094 9.10303 14.0094 9.21369 14.0232C9.53169 14.0647 9.8636 13.9404 10.0848 13.7056L10.472 13.2913C10.6379 13.1118 10.6656 12.9323 10.5826 12.7942C10.4443 12.5595 10.3752 12.2832 10.3752 11.9932C10.3752 11.7032 10.4443 11.427 10.5826 11.1923C10.6656 11.0542 10.6379 10.8747 10.5273 10.7642L10.0848 10.2946C9.8636 10.0599 9.54555 9.94943 9.21369 9.97705C9.10303 9.99086 8.97856 9.99085 8.85415 9.96324C8.32865 9.88038 7.91386 9.45229 7.84469 8.92752C7.83088 8.78943 7.83088 8.65133 7.84469 8.52705C7.89999 8.20943 7.81702 7.89181 7.59581 7.65705C7.33306 7.38085 6.98736 7.008 6.72463 6.73181C6.51721 6.51085 6.22683 6.41419 5.92261 6.41419C5.8673 6.41419 5.81199 6.41419 5.75668 6.40038C5.4248 6.34514 5.10676 5.9999 5.05145 5.66847C4.96848 5.10228 5.45246 4.61895 6.03323 4.70181ZM3.75162 8.78943C3.76545 8.62371 3.72397 8.43038 3.61334 8.26466C3.48889 8.07133 3.28147 7.93323 3.06022 7.89181C2.50711 7.78133 2.02313 8.20943 2.02313 8.748C2.02313 8.77562 2.02313 8.81704 2.02313 8.84466C2.07844 9.27276 2.43797 9.618 2.88046 9.618H2.89429C3.21233 9.618 3.51654 9.74229 3.72397 9.97705L4.62278 10.9299C4.84403 11.1647 4.927 11.4961 4.85786 11.8137C4.84403 11.8828 4.84403 11.938 4.84403 12.007C4.84403 12.0761 4.84403 12.1452 4.85786 12.2004C4.91317 12.518 4.84403 12.8494 4.62278 13.0842L3.68248 14.0785C3.47506 14.2994 3.18468 14.3961 2.88046 14.3961C2.82515 14.3961 2.76984 14.3961 2.71453 14.4099C2.38265 14.4652 2.06461 14.8104 2.0093 15.1418C1.92633 15.708 2.41031 16.1913 2.99108 16.1223C3.36444 16.0671 3.66865 15.7771 3.73779 15.4042C3.75162 15.3351 3.75162 15.2661 3.75162 15.197C3.72397 14.907 3.82076 14.617 4.02818 14.3961C4.30474 14.1061 4.67809 13.7056 4.95465 13.4156C5.1759 13.1809 5.50777 13.0842 5.82582 13.1256C5.92261 13.1394 6.0194 13.1394 6.1162 13.1256C6.60018 13.0566 7.00119 12.6561 7.0565 12.159C7.13947 11.4961 6.61401 10.9299 5.96409 10.9299C5.90878 10.9299 5.8673 10.9299 5.81199 10.9437C5.49394 10.9851 5.16207 10.8609 4.94082 10.6261L4.15263 9.78371C3.84842 9.45229 3.73779 9.16229 3.75162 8.84466V8.78943ZM18.1465 13.098C18.105 13.098 18.0774 13.098 18.0359 13.098C17.4274 13.098 16.9297 12.6008 16.9297 11.9932C16.9297 11.3856 17.4274 10.8885 18.0359 10.8885H18.0497C18.0774 10.8885 18.1188 10.8885 18.1465 10.8885C18.4922 10.9299 18.8379 10.8056 19.073 10.5433L19.958 9.60419C20.1654 9.38324 20.2622 9.09324 20.2345 8.80324C20.2345 8.73419 20.2345 8.66514 20.2484 8.59609C20.3037 8.22323 20.6079 7.91943 20.9951 7.878C21.5759 7.80895 22.046 8.29228 21.9768 8.85847C21.9354 9.1899 21.6035 9.52133 21.2855 9.59038C21.2301 9.60419 21.1748 9.60419 21.1195 9.60419C20.8153 9.60419 20.5249 9.70085 20.3175 9.92181C20.041 10.2118 19.6676 10.6123 19.3772 10.9161C19.156 11.1509 19.073 11.4823 19.1421 11.7999C19.156 11.869 19.156 11.9242 19.156 11.9932C19.156 12.0623 19.156 12.1313 19.1421 12.1866C19.0868 12.5042 19.156 12.8356 19.3772 13.0704L20.3175 14.0647C20.5249 14.2856 20.8153 14.3823 21.1195 14.3823C21.1748 14.3823 21.2301 14.3823 21.2855 14.3961C21.6174 14.4513 21.9354 14.7966 21.9907 15.128C22.0736 15.6942 21.5897 16.1775 21.0089 16.1085C20.6355 16.0532 20.3313 15.7633 20.2622 15.3904C20.2484 15.3213 20.2484 15.2523 20.2484 15.1832C20.276 14.8932 20.1792 14.6032 19.9718 14.3823C19.7091 14.0923 19.3496 13.7194 19.0868 13.4432C18.8517 13.1809 18.5061 13.0566 18.1465 13.098Z" fill="#27CEAA"/>
</svg>
