<svg xmlns="http://www.w3.org/2000/svg" width="160" height="24" viewBox="0 0 160 24" fill="none"><rect width="160" height="24" fill="none"/>
<path d="M11.8652 9.55059L17.6854 17.9551H14.427L9.41571 10.7865H7.01124V17.9551H4.1573V4.67416H2L3.4382 2H7.01124V8.3146H9.41571L14.1797 2H17.4157L11.8652 9.55059ZM16.809 12.2022C16.809 10.9588 17.0936 9.87263 17.6629 8.94383C18.2172 8.07488 18.9738 7.40826 19.9326 6.94382C20.8914 6.47938 21.9251 6.2472 23.0337 6.2472C24.1723 6.2472 25.1985 6.47192 26.1124 6.92136C27.0712 7.3858 27.8278 8.07488 28.382 8.98876C28.9363 9.88763 29.2135 10.9588 29.2135 12.2022C29.2135 13.4607 28.9363 14.5468 28.382 15.4607C27.8278 16.3596 27.0712 17.0562 26.1124 17.5505C25.1685 18.03 24.1423 18.2696 23.0337 18.2696C21.94 18.2696 20.9138 18.03 19.955 17.5505C18.9813 17.0712 18.2098 16.3746 17.6405 15.4607C17.0862 14.5318 16.809 13.4457 16.809 12.2022ZM65.2809 6.60678H67.8202V8.15727C68.2097 7.55805 68.7266 7.10115 69.3708 6.78649C70.0299 6.45692 70.8764 6.29213 71.9101 6.29213C72.9738 6.29213 73.9176 6.53185 74.7416 7.01121C75.5356 7.50558 76.1498 8.20974 76.5843 9.12362C77.0337 10.0225 77.2584 11.0562 77.2584 12.2247C77.2584 13.4082 77.0337 14.4569 76.5843 15.3708C76.1498 16.2696 75.5356 16.9663 74.7416 17.4607C74.3671 17.7153 73.9251 17.9026 73.4157 18.0224C72.9214 18.1573 72.4195 18.2247 71.9101 18.2247C71.0262 18.2247 70.3671 18.1573 69.9326 18.0224C69.0337 17.7528 68.397 17.3034 68.0225 16.6741V21.9775H65.2809V6.60678ZM30.6742 6.60678H33.3933V10.9214H38.045V6.60678H40.7416V17.9551H38.045V13.1686H33.3933V17.9551H30.6742V6.60678ZM41.9326 6.60678H52.3821V8.76404H48.5168V17.9551H45.7528V8.76404H41.9326V6.60678ZM56.1348 6.60678C57.1536 9.39327 58.0824 12.1498 58.9214 14.8764C59.7153 12.1798 60.6142 9.42319 61.618 6.60678H64.3596L60.1798 18.1798C59.8352 19.1236 59.5056 19.8502 59.191 20.3596C58.8465 20.8689 58.4195 21.2509 57.9101 21.5056C57.4157 21.7753 56.7566 21.9101 55.9326 21.9101C55.4682 21.9101 55.2135 21.9026 55.1686 21.8877L54.2472 19.7303C54.5319 19.7903 54.8839 19.8202 55.3033 19.8202C55.8127 19.8202 56.2248 19.7453 56.5393 19.5955C56.824 19.4756 57.0412 19.3108 57.191 19.1011C57.3408 18.9064 57.4681 18.6591 57.5731 18.3596L53.2584 6.60678H56.1348ZM19.573 12.1798C19.573 13.4232 19.8726 14.3746 20.4719 15.0337C21.0712 15.6779 21.9027 16 22.9663 16C24.0449 16 24.8839 15.6779 25.4832 15.0337C26.0974 14.3746 26.4045 13.4232 26.4045 12.1798C26.4045 10.9663 26.1049 10.0524 25.5056 9.43819C24.9064 8.80896 24.0599 8.49439 22.9663 8.49439C21.8877 8.49439 21.0487 8.80896 20.4494 9.43819C19.8652 10.0524 19.573 10.9663 19.573 12.1798ZM67.9551 12.2022C67.985 13.3258 68.2847 14.2247 68.854 14.8988C69.4233 15.573 70.2247 15.9101 71.2584 15.9101C72.2921 15.9101 73.0861 15.573 73.6404 14.8988C74.2097 14.2247 74.5019 13.3258 74.5169 12.2022C74.5019 11.0936 74.2097 10.2097 73.6404 9.55059C73.0861 8.87644 72.2921 8.53932 71.2584 8.53932C70.2247 8.53932 69.4233 8.8689 68.854 9.52805C68.2847 10.1873 67.985 11.0786 67.9551 12.2022Z" fill="white"/>
<path d="M97.7749 2V17.9551H95.7524V10C95.7524 7.39326 95.7751 5.22846 95.8197 3.50562C95.2058 5.37825 94.5311 7.33333 93.7971 9.3708L90.786 17.9551H88.9654L86.1343 9.95502C85.1457 7.2884 84.4037 5.15353 83.9098 3.55056V5.16853L83.9317 10V17.9551H81.9773V2H85.2576L87.7522 9.03368C88.7862 11.8202 89.5055 13.9326 89.9093 15.3708C90.284 14.0824 90.9879 11.97 92.0219 9.03368L94.4937 2H97.7749ZM108.346 17.9551V16.4269C107.941 17.0263 107.402 17.4906 106.728 17.8202C106.054 18.1348 105.275 18.2922 104.391 18.2922C103.132 18.2922 102.144 18.0075 101.425 17.4382C100.72 16.8689 100.368 16.0674 100.368 15.0337V14.9213C100.368 13.7828 100.766 12.9214 101.56 12.3371C102.368 11.7379 103.612 11.3933 105.29 11.3033L108.256 11.1012V10.3371C108.256 9.52813 108.024 8.92136 107.559 8.51685C107.095 8.09734 106.421 7.88762 105.537 7.88762C104.803 7.88762 104.136 8.03749 103.537 8.33706C102.953 8.62171 102.354 9.10116 101.739 9.77531L100.503 8.65172C101.807 7.07868 103.47 6.29213 105.492 6.29213C106.945 6.29213 108.077 6.63671 108.885 7.32587C109.695 8.01495 110.099 8.97375 110.099 10.2022V17.9551H108.346ZM105.425 12.6741C104.256 12.734 103.432 12.9288 102.953 13.2584C102.474 13.588 102.234 14.1124 102.234 14.8315V14.9439C102.234 15.5281 102.451 15.9775 102.886 16.2922C103.335 16.6067 103.964 16.7641 104.773 16.7641C105.417 16.7641 106.009 16.6367 106.548 16.382C107.087 16.1274 107.507 15.7753 107.807 15.3258C108.107 14.8615 108.256 14.3371 108.256 13.7528V12.5393L105.425 12.6741ZM124.532 12.2922C124.532 13.4607 124.307 14.4944 123.858 15.3933C123.393 16.2922 122.741 16.9888 121.903 17.4832C121.063 17.9775 120.105 18.2247 119.026 18.2247C117.004 18.2247 115.581 17.588 114.757 16.3146V22H112.824V6.60678H114.622V8.60671C115.506 7.07868 116.981 6.31459 119.049 6.31459C120.098 6.31459 121.042 6.55431 121.88 7.03368C122.719 7.54304 123.371 8.23967 123.835 9.12362C124.3 10.0075 124.532 11.0262 124.532 12.1798V12.2922ZM122.577 12.1798C122.577 11.3408 122.419 10.5993 122.105 9.95502C121.776 9.32588 121.311 8.83143 120.712 8.47193C120.128 8.11234 119.461 7.93255 118.712 7.93255C117.948 7.93255 117.258 8.10488 116.645 8.44946C116.015 8.80896 115.528 9.30333 115.184 9.93256C114.839 10.5618 114.667 11.3109 114.667 12.1798V12.2922C114.667 13.5955 115.034 14.6442 115.768 15.4382C116.502 16.2172 117.476 16.6067 118.689 16.6067C119.438 16.6067 120.112 16.4195 120.712 16.045C121.296 15.6854 121.753 15.1835 122.083 14.5393C122.412 13.8802 122.577 13.1311 122.577 12.2922V12.1798ZM130.582 12.9438H128.627V17.9551H126.694V6.60678H128.627V11.3708H130.605L134.334 6.60678H136.402L132.155 12.0674L136.761 17.9551H134.559L130.582 12.9438ZM148.094 15.9775C147.3 16.8015 146.506 17.3933 145.711 17.7528C144.917 18.0974 143.989 18.2696 142.925 18.2696C141.727 18.2696 140.686 18.0224 139.802 17.5281C138.902 17.0337 138.206 16.3371 137.712 15.4382C137.217 14.5393 136.97 13.4906 136.97 12.2922C136.97 11.1536 137.21 10.1198 137.689 9.19101C138.184 8.27713 138.865 7.56551 139.734 7.05622C140.618 6.54685 141.644 6.29213 142.813 6.29213C144.461 6.29213 145.741 6.77903 146.655 7.75284C147.585 8.72657 148.048 10.0674 148.048 11.7753C148.048 11.8802 148.034 12.1573 148.004 12.6067H138.97C139.045 13.4157 139.232 14.1124 139.532 14.6966C139.862 15.3109 140.318 15.7903 140.902 16.1348C141.487 16.4794 142.191 16.6517 143.015 16.6517C143.794 16.6517 144.483 16.5093 145.083 16.2247C145.697 15.94 146.319 15.4607 146.947 14.7865L148.094 15.9775ZM146.206 11.191C146.161 10.1573 145.831 9.3408 145.217 8.74157C144.618 8.12735 143.809 7.82023 142.79 7.82023C141.786 7.82023 140.948 8.12735 140.274 8.74157C139.599 9.3408 139.187 10.1573 139.038 11.191H146.206ZM154.458 8.17974V17.9551H152.526V8.17974H148.548V6.60678H158.436V8.17974H154.458Z" fill="#2291FF"/>
</svg>
