<svg xmlns="http://www.w3.org/2000/svg" width="95" height="24" viewBox="0 0 95 24" fill="none"><rect width="95" height="24" fill="none"/>
<path d="M4.53099 20H2.5062C2.22663 20 2 19.7762 2 19.5V6.5C2 6.22384 2.22663 6 2.5062 6H4.53099C4.81056 6 5.03719 6.22384 5.03719 6.5V19.5C5.03719 19.7762 4.81056 20 4.53099 20Z" fill="url(#paint0_linear_2594_144)"/>
<path d="M8.5806 16H6.5558C6.27624 16 6.0496 15.7762 6.0496 15.5V2.5C6.0496 2.22386 6.27624 2 6.5558 2H8.5806C8.86016 2 9.0868 2.22386 9.0868 2.5V15.5C9.0868 15.7762 8.86016 16 8.5806 16Z" fill="url(#paint1_linear_2594_144)"/>
<path d="M12.6302 22H10.6054C10.3258 22 10.0992 21.7762 10.0992 21.5V8.5C10.0992 8.22384 10.3258 8 10.6054 8H12.6302C12.9098 8 13.1364 8.22384 13.1364 8.5V21.5C13.1364 21.7762 12.9098 22 12.6302 22Z" fill="url(#paint2_linear_2594_144)"/>
<path d="M16.6798 18H14.655C14.3755 18 14.1488 17.7762 14.1488 17.5V4.5C14.1488 4.22386 14.3755 4 14.655 4H16.6798C16.9594 4 17.186 4.22386 17.186 4.5V17.5C17.186 17.7762 16.9594 18 16.6798 18Z" fill="url(#paint3_linear_2594_144)"/>
<path d="M30.0255 15.8274L31.8608 9.32572V15.8274H33.7415V7.71429H30.7166L29.1079 13.5333L27.5331 7.71429H24.4742V15.8274H26.3548V9.33691L28.2015 15.8274H30.0255ZM38.0151 11.0602C38.7515 11.0602 39.3406 11.5079 39.3406 12.7948C39.3406 14.0593 38.7741 14.5405 38.0151 14.5405C37.256 14.5405 36.6896 14.0593 36.6896 12.7948C36.6896 11.5079 37.2787 11.0602 38.0151 11.0602ZM38.0151 9.62786C36.327 9.62786 34.7863 10.6126 34.7863 12.7948C34.7863 14.9769 36.327 15.9729 38.0151 15.9729C39.7031 15.9729 41.2439 14.9769 41.2439 12.7948C41.2439 10.6126 39.7031 9.62786 38.0151 9.62786ZM44.0878 9.8069H42.2184V15.8274H44.0878V12.7388C44.0878 11.6198 44.4164 11.105 45.2207 11.105C46.1272 11.105 46.1612 11.81 46.1612 12.6717V15.8274H48.0305V12.2129C48.0305 10.579 47.543 9.67262 45.9799 9.67262C45.0166 9.67262 44.3595 10.1538 44.0878 10.6014V9.8069ZM53.5487 13.9362C53.3334 14.2943 52.8916 14.5405 52.1781 14.5405C51.4982 14.5405 50.8299 14.1376 50.773 13.2871H55.2935C55.4184 11.1386 54.183 9.62786 52.1553 9.62786C50.3764 9.62786 48.8926 10.8588 48.8926 12.7836C48.8926 14.7867 50.252 15.9729 52.2345 15.9729C53.4466 15.9729 54.7273 15.3574 55.2711 13.9362H53.5487ZM52.1553 11.0379C52.8688 11.0379 53.4014 11.4071 53.4355 12.1681H50.7958C50.8979 11.3736 51.487 11.0379 52.1553 11.0379ZM56.661 17.7857C58.2469 17.7857 58.7003 17.3605 59.3122 15.8274L61.7025 9.8069H59.6972L58.4962 13.5781L57.3749 9.8069H55.324L57.6014 15.7938L57.5446 15.9505C57.3633 16.3981 57.2049 16.454 56.4345 16.454H56.0607V17.7857H56.661ZM64.2459 9.8069H62.3766V17.7857H64.2459V15.0217C64.6425 15.6819 65.458 15.9729 66.1152 15.9729C67.6899 15.9729 68.8004 14.7867 68.8004 12.8171C68.8004 10.8476 67.6899 9.67262 66.1152 9.67262C65.458 9.67262 64.6425 9.96357 64.2459 10.6238V9.8069ZM65.5033 11.105C66.2512 11.105 66.8631 11.6981 66.8631 12.8171C66.8631 13.9362 66.2512 14.5405 65.5033 14.5405C64.7669 14.5405 64.1555 14.0593 64.1555 12.8171C64.1555 11.575 64.7669 11.105 65.5033 11.105ZM71.6146 7.71429H69.7449V15.8274H71.6146V7.71429ZM76.6808 12.0674C74.3129 12.2464 72.6249 12.7276 72.6249 14.2048C72.6249 15.3014 73.5765 15.9729 74.7323 15.9729C75.6047 15.9729 76.3298 15.7379 76.7828 15.1L76.8056 15.8274H78.6409C78.55 15.4469 78.5048 14.7419 78.5048 14.0817V13.455L78.5276 12.1457C78.5617 10.3217 77.5644 9.61667 75.8083 9.61667C73.9959 9.61667 72.9082 10.6238 72.8178 11.754H74.5622C74.6414 11.1721 75.0496 10.87 75.6499 10.87C76.3298 10.87 76.6808 11.1162 76.6808 11.8324V12.0674ZM76.726 13.2983C76.726 14.4062 76.1597 14.7195 75.4122 14.7195C74.9247 14.7195 74.551 14.4621 74.551 14.0705C74.551 13.4214 75.4234 13.276 76.726 13.1529V13.2983ZM82.4662 9.62786C80.6194 9.62786 79.3508 10.87 79.3508 12.7836C79.3508 14.6971 80.4609 15.9729 82.4662 15.9729C83.6896 15.9729 85.1511 15.4021 85.5705 13.6117H83.8257C83.6896 14.1824 83.2706 14.5405 82.5795 14.5405C81.9112 14.5405 81.2541 14.104 81.2541 12.7948C81.2541 11.5079 81.9112 11.0602 82.5795 11.0602C83.1345 11.0602 83.5763 11.3064 83.7464 12.0114H85.4908C85.1287 10.1986 83.7348 9.62786 82.4662 9.62786ZM90.8112 13.9362C90.5959 14.2943 90.1541 14.5405 89.4406 14.5405C88.7607 14.5405 88.0924 14.1376 88.0355 13.2871H92.556C92.6805 11.1386 91.4455 9.62786 89.4178 9.62786C87.6389 9.62786 86.1551 10.8588 86.1551 12.7836C86.1551 14.7867 87.5145 15.9729 89.497 15.9729C90.7091 15.9729 91.9893 15.3574 92.5332 13.9362H90.8112ZM89.4178 11.0379C90.1313 11.0379 90.6639 11.4071 90.6979 12.1681H88.0583C88.1604 11.3736 88.7495 11.0379 89.4178 11.0379Z" fill="white"/>
<defs>
<linearGradient id="paint0_linear_2594_144" x1="47.2823" y1="22" x2="47.2823" y2="2" gradientUnits="userSpaceOnUse">
<stop offset="0.197917" stop-color="white" stop-opacity="0.1"/>
<stop offset="0.640625" stop-color="white"/>
</linearGradient>
<linearGradient id="paint1_linear_2594_144" x1="47.2823" y1="22" x2="47.2823" y2="2" gradientUnits="userSpaceOnUse">
<stop offset="0.145833" stop-color="white" stop-opacity="0.1"/>
<stop offset="0.635417" stop-color="white"/>
</linearGradient>
<linearGradient id="paint2_linear_2594_144" x1="47.2823" y1="22" x2="47.2823" y2="2" gradientUnits="userSpaceOnUse">
<stop offset="0.145833" stop-color="white" stop-opacity="0.1"/>
<stop offset="0.635417" stop-color="white"/>
</linearGradient>
<linearGradient id="paint3_linear_2594_144" x1="83.5083" y1="18" x2="83.5083" y2="4" gradientUnits="userSpaceOnUse">
<stop offset="0.197917" stop-color="white" stop-opacity="0.1"/>
<stop offset="0.677083" stop-color="white"/>
</linearGradient>
</defs>
</svg>
