<svg xmlns="http://www.w3.org/2000/svg" width="24" height="24" viewBox="0 0 24 24" fill="none"><rect width="24" height="24" fill="none"/>
<path fill-rule="evenodd" clip-rule="evenodd" d="M7.16388 17.2566L8.47836 18.0477L9.79284 17.2566L10.5922 18.5849L9.25351 19.3906V21.4426H7.70322V19.3906L6.3645 18.5849L7.16388 17.2566Z" fill="#26B170"/>
<path fill-rule="evenodd" clip-rule="evenodd" d="M15.041 4.67434C14.4636 5.40064 14.1339 6.28809 14.1852 7.01458C14.2479 7.9049 14.6237 8.64831 15.0832 9.5571C15.1359 9.6614 15.1897 9.76787 15.2443 9.877L15.5911 10.5702L14.2046 11.2638L13.8578 10.5706C13.8062 10.4674 13.7525 10.362 13.6975 10.2541C13.2938 9.46254 12.825 8.54333 12.6752 7.4702C11.0318 6.14567 10.0199 5.4169 9.35972 5.09755C9.01577 4.93118 8.86985 4.92872 8.83665 4.93231C8.8353 4.93245 8.83423 4.9326 8.83341 4.93273C8.82783 4.93645 8.80492 4.95329 8.76683 5.00245C8.17856 5.7619 7.9768 6.36919 7.95602 6.84114C7.93553 7.30677 8.08711 7.7306 8.37615 8.13711C8.9875 8.99694 10.1149 9.65117 11.059 10.1527L11.2555 11.3731L5.62883 17.2546L5.61667 17.267C5.13665 17.7468 4.94883 18.1315 4.89113 18.4051C4.83673 18.663 4.88467 18.8804 5.00344 19.0806C5.26988 19.5297 5.91374 19.9017 6.53703 20.004C9.01754 20.3579 12.4722 20.7344 15.1689 20.1342C16.5093 19.8359 17.5693 19.3155 18.2455 18.5206C18.9021 17.7486 19.2857 16.6123 19.0702 14.8761L19.0674 14.8503C18.7913 11.7959 18.2433 8.83701 17.6705 6.65205C17.3832 5.5562 17.0954 4.67745 16.8415 4.08583C16.7428 3.856 16.6574 3.68892 16.5891 3.57599C16.1157 3.67293 15.5425 4.04345 15.041 4.67434ZM12.823 5.60629C11.6224 4.66487 10.7257 4.03619 10.0348 3.70196C9.59053 3.48706 9.12918 3.34135 8.67 3.391C8.1622 3.4459 7.79837 3.72112 7.54123 4.05309C6.81505 4.99055 6.44577 5.89744 6.40723 6.77297C6.36841 7.65484 6.66925 8.41181 7.11267 9.03546C7.72146 9.89168 8.63752 10.546 9.44221 11.0258L4.51444 16.1768C3.8971 16.7955 3.51154 17.434 3.37421 18.0852C3.23312 18.7541 3.36974 19.3652 3.67013 19.8716C4.2411 20.834 5.37048 21.3863 6.29668 21.5355L6.31046 21.5376C8.77261 21.8892 12.4953 22.3175 15.5057 21.6475C17.0202 21.3104 18.4472 20.6761 19.4263 19.525C20.4229 18.3535 20.8631 16.7566 20.6103 14.6981C20.3262 11.564 19.7643 8.52532 19.1701 6.25889C18.8735 5.12751 18.563 4.1661 18.2661 3.47436C18.1196 3.13296 17.9623 2.82363 17.7933 2.58683C17.7094 2.46914 17.6024 2.34047 17.4685 2.23441C17.3391 2.13184 17.12 2 16.8295 2C15.6454 2 14.5572 2.79162 13.8274 3.70964C13.3939 4.25502 13.032 4.91144 12.823 5.60629ZM12.6387 7.12355C12.6387 7.12353 12.6387 7.12357 12.6387 7.12355L13.4119 7.0691L12.6387 7.12355Z" fill="#26B170"/>
<path d="M11.8154 16.3635C11.2355 16.3635 10.7654 15.8104 10.7654 15.1282C10.7654 14.446 11.2355 13.8929 11.8154 13.8929C12.3953 13.8929 12.8654 14.446 12.8654 15.1282C12.8654 15.8104 12.3953 16.3635 11.8154 16.3635Z" fill="#26B170"/>
<path fill-rule="evenodd" clip-rule="evenodd" d="M16.1316 14.1318C16.8087 14.2807 17.281 14.7606 17.5694 15.3373L16.1828 16.0307C16.0388 15.7427 15.8935 15.6668 15.7985 15.6459C15.6866 15.6213 15.4366 15.6277 15.012 15.9025L14.1697 14.6009C14.795 14.1963 15.4714 13.9866 16.1316 14.1318Z" fill="#26B170"/>
<path fill-rule="evenodd" clip-rule="evenodd" d="M13.543 17.5648H16.8166V19.1151H15.8392C15.5594 20.3791 14.5813 21.5661 12.7984 21.9964L12.4347 20.4894C13.4326 20.2485 13.9797 19.7019 14.2208 19.1151H13.543V17.5648Z" fill="#26B170"/>
</svg>
