<svg xmlns="http://www.w3.org/2000/svg" width="124" height="24" viewBox="0 0 124 24" fill="none"><rect width="124" height="24" fill="none"/>
<path d="M118.788 14.7541C117.655 14.7541 117.004 13.9318 117.004 12.6128V12.5198C117.004 11.1859 117.687 10.394 118.788 10.394C119.89 10.394 120.557 11.2009 120.557 12.5353V12.6283C120.557 13.9318 119.89 14.7541 118.788 14.7541ZM118.772 15.9182C120.666 15.9182 122.077 14.6142 122.077 12.6128V12.5198C122.077 10.5494 120.666 9.2304 118.788 9.2304C116.895 9.2304 115.484 10.5644 115.484 12.5508V12.6438C115.484 14.5987 116.88 15.9182 118.772 15.9182ZM113.482 15.7933H115.204L112.504 12.3335L115.002 9.3543H113.373L111.077 12.2096V9.3543H109.587V15.7778H111.077V12.6433L113.482 15.7933ZM104.948 14.7541C103.816 14.7541 103.164 13.9318 103.164 12.6128V12.5198C103.164 11.1859 103.847 10.394 104.948 10.394C106.05 10.394 106.717 11.2009 106.717 12.5353V12.6283C106.717 13.9318 106.05 14.7541 104.948 14.7541ZM104.933 15.9182C106.825 15.9182 108.238 14.6142 108.238 12.6128V12.5198C108.238 10.5494 106.825 9.2304 104.948 9.2304C103.055 9.2304 101.643 10.5644 101.643 12.5508V12.6438C101.643 14.5987 103.04 15.9182 104.933 15.9182ZM96.7865 13.2023C96.8645 12.38 96.8955 11.2938 96.9264 10.4559H98.8195V15.7783H100.293V9.3543H95.6075C95.6075 9.3543 95.5765 11.8674 95.4681 12.9535C95.3746 13.9467 95.2043 14.5982 94.7077 14.5982C94.5058 14.5982 94.4129 14.5518 94.4129 14.5518V15.7933C94.4129 15.7933 94.5678 15.8862 94.956 15.8862C96.166 15.8862 96.6162 14.9555 96.7865 13.2018V13.2023ZM90.4559 14.7541C89.3233 14.7541 88.6718 13.9472 88.6718 12.6592V12.5973C88.6718 11.2633 89.3703 10.4874 90.5184 10.4874C91.6355 10.4874 92.2251 11.2628 92.2251 12.5663V12.6128C92.2251 13.9627 91.5736 14.7541 90.4559 14.7541ZM90.4559 15.9182C92.3335 15.9182 93.7609 14.6612 93.7609 12.6128V12.5353C93.7609 10.6888 92.5663 9.32332 90.7822 9.32332C89.5716 9.32332 88.7962 9.89788 88.3616 10.7357H88.2996C88.4545 8.93563 89.122 7.803 90.9371 7.69459L91.2628 7.66311C92.3335 7.60116 92.8146 7.50823 93.1868 7.33736V6.18925C92.7991 6.32914 92.2096 6.37561 91.2783 6.42207L90.8906 6.43756C88.0823 6.57745 87.167 8.70281 87.167 11.5421V11.9923C87.1515 14.6922 88.47 15.9182 90.4559 15.9182ZM82.9618 12.2561H84.0015V15.7783H85.6307V6.99613H82.7604C80.8674 6.99613 79.4865 7.74055 79.4865 9.58712V9.63408C79.4865 11.0305 80.2933 11.7594 81.4105 11.9923L78.804 15.7938H80.5881L82.9618 12.2561ZM84.0015 8.26864V11.1079H82.7759C81.6743 11.1079 81.1002 10.6583 81.1002 9.68055V9.63408C81.1002 8.59439 81.7207 8.26864 82.7604 8.26864H84.0015ZM70.5184 11.8993C70.6733 10.9061 71.2628 10.3006 72.1631 10.3006C73.0784 10.3006 73.6525 10.7977 73.7299 11.8993H70.5184ZM72.2251 15.9177C73.8698 15.9177 74.9715 15.1733 75.1728 13.8233H73.7299C73.6215 14.4439 73.1559 14.8006 72.2561 14.8006C71.1544 14.8006 70.5339 14.1181 70.4874 12.8921H75.1883V12.4574C75.1883 10.1612 73.7454 9.21491 72.1476 9.21491C70.3166 9.21491 68.9511 10.5489 68.9511 12.5353V12.6283C68.9666 14.6767 70.332 15.9177 72.2251 15.9177ZM64.7774 14.7541C63.6447 14.7541 62.9932 13.9318 62.9932 12.6128V12.5198C62.9932 11.1859 63.6757 10.394 64.7774 10.394C65.879 10.394 66.546 11.2009 66.546 12.5353V12.6283C66.546 13.9318 65.879 14.7541 64.7774 14.7541ZM64.7619 15.9182C66.6549 15.9182 68.0668 14.6142 68.0668 12.6128V12.5198C68.0668 10.5494 66.6549 9.2304 64.7774 9.2304C62.8843 9.2304 61.4724 10.5644 61.4724 12.5508V12.6438C61.4569 14.5987 62.8688 15.9182 64.7619 15.9182ZM55.5145 9.3543V10.4559H57.485V15.7783H58.9743V10.4719H60.9448V9.3543H55.5145ZM51.6665 14.7546C50.5339 14.7546 49.8819 13.9323 49.8819 12.6133V12.5203C49.8819 11.1864 50.5649 10.3945 51.6665 10.3945C52.7682 10.3945 53.4351 11.2014 53.4351 12.5358V12.6288C53.4351 13.9323 52.7682 14.7546 51.6665 14.7546ZM51.651 15.9187C53.5441 15.9187 54.956 14.6147 54.956 12.6133V12.5203C54.956 10.5499 53.5441 9.2309 51.6665 9.2309C49.773 9.2309 48.3616 10.5649 48.3616 12.5513V12.6443C48.3616 14.5992 49.758 15.9187 51.651 15.9187ZM43.5048 13.2028C43.5828 12.3805 43.6138 11.2943 43.6447 10.4564H45.5533V15.7788H47.0271V9.3543H42.3412C42.3412 9.3543 42.3103 11.8674 42.2013 12.9535C42.1084 13.9467 41.938 14.5982 41.4414 14.5982C41.2396 14.5982 41.1467 14.5518 41.1467 14.5518V15.7933C41.1467 15.7933 41.3015 15.8862 41.6897 15.8862C42.8843 15.8862 43.3345 14.9555 43.5048 13.2018V13.2028ZM37.1897 14.7546C36.0576 14.7546 35.4061 13.9323 35.4061 12.6133V12.5203C35.4061 11.1864 36.0886 10.3945 37.1897 10.3945C38.2919 10.3945 38.9589 11.2014 38.9589 12.5358V12.6288C38.9589 13.9323 38.2914 14.7546 37.1897 14.7546ZM37.1747 15.9187C39.0673 15.9187 40.4792 14.6147 40.4792 12.6133V12.5203C40.4792 10.5499 39.0673 9.2309 37.1902 9.2309C35.2967 9.2309 33.8853 10.5649 33.8853 12.5513V12.6443C33.8853 14.5992 35.2817 15.9182 37.1742 15.9182L37.1747 15.9187ZM29.5097 15.9187C31.5111 15.9187 32.8921 14.8166 32.8921 13.2183C32.8921 12.1172 32.2561 11.4187 31.0925 11.2323C32.0697 10.9685 32.5508 10.2081 32.5508 9.27736C32.5508 7.84997 31.3563 6.88821 29.6031 6.88821C27.772 6.88821 26.6079 7.83448 26.3906 9.6191H27.9269C28.1133 8.67233 28.5474 8.1912 29.5407 8.1912C30.41 8.1912 30.9216 8.64135 30.9216 9.40176C30.9216 10.2086 30.5339 10.7048 29.5252 10.7048H28.5474V11.8374H29.5407C30.7507 11.8374 31.2164 12.2256 31.2164 13.1254C31.2164 14.0407 30.6423 14.5992 29.5252 14.5992C28.2681 14.5992 27.834 13.8858 27.6941 12.939H26.1273C26.3291 14.7236 27.4773 15.9187 29.5097 15.9187Z" fill="black"/>
<path d="M6.36012 2C6.36012 2 2 2 2 6.36012V17.6399C2 17.6399 2 22 6.36012 22H17.6399C17.6399 22 22 22 22 17.6399V6.36012C22 6.36012 22 2 17.6399 2H6.36012Z" fill="#DBFF00"/>
<path fill-rule="evenodd" clip-rule="evenodd" d="M13.5745 8.8427L10.5334 7.78751C10.9216 7.25992 11.3872 6.85674 11.8679 6.60843L14.1021 5.46032L17.1278 6.48452L14.9869 7.57018C14.4748 7.81849 13.9777 8.26864 13.5745 8.8427ZM17.1278 9.78896L14.9869 10.8596C14.8094 10.9424 14.6426 11.0466 14.4903 11.1699C14.5213 10.9835 14.5368 10.8132 14.5368 10.6423V10.5339C14.5368 9.97532 14.3969 9.52517 14.1176 9.21491C14.2265 9.07502 14.3349 8.95111 14.4439 8.8427L17.1278 9.78896ZM17.1128 11.077L14.9709 12.1476C14.7077 12.2715 14.4593 12.3335 14.2415 12.318C14.4903 12.0232 14.7696 11.7904 15.0644 11.651L16.5847 10.8906L17.1123 11.077H17.1128ZM14.5213 13.9318V13.8233C14.5213 13.6989 14.5058 13.575 14.4903 13.4506L17.0658 14.3819L14.9555 15.4521C14.6607 15.6075 14.3659 15.6539 14.1176 15.592C14.3789 15.0773 14.5171 14.5089 14.5213 13.9318ZM6.93368 16.9729L8.99708 15.9337C9.19942 15.8403 9.38528 15.7004 9.57163 15.53L9.81994 15.6229L9.8664 15.6384L9.88189 15.6234L12.2096 14.4593C12.38 14.3819 12.5508 14.273 12.7057 14.1491C12.6755 14.3233 12.66 14.4998 12.6592 14.6767V14.7851C12.6592 15.3127 12.7991 15.7628 13.0629 16.0731C12.7831 16.4298 12.4574 16.7091 12.1316 16.88L9.91337 17.9971L6.93418 16.9729H6.93368ZM9.81994 18.7105L6.79428 17.6714V17.1278L9.81994 18.183V18.7105ZM6.79428 14.3664V13.8233L9.81994 14.894V15.4211L6.79428 14.3664ZM7.49224 13.4351L9.8664 14.2575L9.91287 14.2425L12.2251 13.0784C12.4884 12.9545 12.7367 12.8921 12.9545 12.9075C12.7057 13.2023 12.4264 13.4351 12.1316 13.575L9.88189 14.7231L6.91819 13.6989L7.49274 13.4351H7.49224ZM6.79428 12.5353L9.81994 13.5905V14.0557L6.79428 13.0015V12.5353ZM8.99758 11.3408C9.21491 11.2318 9.43224 11.1544 9.63358 11.1234L12.5198 12.1321C12.3954 12.1786 12.2561 12.2251 12.1316 12.287L9.89738 13.4042L6.93418 12.365L8.99758 11.3408ZM6.80977 9.71152V9.24588L9.83543 10.2851V10.7667L6.80977 9.71152ZM12.7057 12.0077L9.72701 10.9685V10.9216L9.81994 10.9526L9.85092 10.9681L12.2091 9.78896C12.5198 9.63408 12.8146 9.58712 13.0784 9.64907C12.7986 10.2386 12.6592 10.8282 12.6592 11.3717V11.4802C12.6592 11.682 12.6747 11.8524 12.7057 12.0077ZM13.7764 10.8906C13.7764 11.2009 13.7144 11.5421 13.5745 11.8684C13.4661 11.682 13.4197 11.4337 13.4197 11.1544V11.0615C13.4197 10.7512 13.4816 10.4095 13.6215 10.0837C13.7299 10.2701 13.7764 10.5184 13.7764 10.7977V10.8906ZM13.4197 14.4439V14.3509C13.4197 14.0402 13.4816 13.6989 13.6215 13.3732C13.7299 13.5595 13.7764 13.8078 13.7764 14.0871V14.1801C13.7764 14.4903 13.7144 14.8316 13.5745 15.1573C13.4661 14.9714 13.4197 14.7226 13.4197 14.4439ZM8.99758 8.05131C9.49419 7.803 9.97532 7.75654 10.3475 7.91142L10.4095 7.94289L12.8146 8.78075C12.5697 8.8156 12.3331 8.8943 12.1162 9.01306L9.91287 10.1147L6.93418 9.09051L8.99758 8.05131ZM17.3761 7.19797V6.37561L14.0866 5.25847L11.7749 6.45305C11.2628 6.71684 10.7507 7.167 10.3475 7.72556C9.92836 7.57068 9.41625 7.63213 8.90465 7.89593L6.60793 9.06003V9.85091L9.54066 10.8751V10.9681C9.33881 10.9995 9.12148 11.077 8.90465 11.1854L6.60793 12.3495V13.1404L7.24444 13.3577L6.60793 13.637V14.4903L9.36979 15.4521C9.2299 15.5765 9.07502 15.6694 8.92014 15.7468L6.60793 16.9109V17.7798L9.81994 18.8969L9.8664 18.9124L9.89738 18.8969L12.2091 17.7328C12.7212 17.4695 13.2333 17.0194 13.637 16.4608C14.0557 16.6157 14.5678 16.5542 15.0799 16.2904L17.3606 15.1573V14.304L17.3141 14.289L14.4593 13.2648V13.2493C14.6698 13.2046 14.8732 13.1315 15.0639 13.0319L17.3606 11.8679V10.9835L17.3296 10.9685L16.802 10.7822L17.3606 10.5024V9.68055H17.3451L14.5678 8.70281C14.7226 8.56291 14.878 8.4545 15.0489 8.37706L17.3761 7.19797Z" fill="black"/>
</svg>
