<svg xmlns="http://www.w3.org/2000/svg" width="24" height="24" viewBox="0 0 24 24" fill="none"><rect width="24" height="24" fill="none"/>
<path d="M14.454 16.2744C14.454 15.5854 15.3247 14.7324 17.1432 14.7324C17.252 14.7324 17.3607 14.7324 17.4678 14.743C17.3282 16.0681 16.2822 16.9749 15.2598 16.9749C14.7696 16.9749 14.454 16.7449 14.454 16.2744ZM10.9264 9.03259H10.9483L10.3802 14.2619C9.76686 14.0777 9.1409 13.9388 8.50735 13.8461L10.9264 9.03259ZM6.9858 13.7368C5.63629 13.7368 4.22105 14.076 3.49152 14.8849C3.08399 14.1105 2.87798 13.2452 2.89264 12.3693C2.89264 10.0388 4.40607 7.87305 7.31282 6.49823L6.94278 5.71053C3.53534 7.26147 2 9.8203 2 12.3693C2 13.5729 2.28321 14.7341 3.03384 15.8365C3.01211 15.9596 3.00125 16.0843 3.00138 16.2092C3.00138 17.1388 3.57835 17.8058 4.77611 17.8058C6.02824 17.8058 7.09453 16.9414 7.73722 15.2356H6.80078C6.33253 16.3731 5.57056 16.9651 4.77611 16.9651C4.15532 16.9651 3.88347 16.6805 3.88347 16.2108C3.88347 15.4011 4.86294 14.5799 6.99714 14.5799C8.11678 14.5837 9.22914 14.7608 10.2951 15.1051L10.1433 16.5378H11.014L11.8304 8.82549C12.3315 8.71879 12.8422 8.66414 13.3544 8.66238C15.2703 8.66238 15.7929 9.34083 15.7929 10.0739C15.7929 11.0475 14.9984 11.7251 13.0931 11.9445L13.3763 9.30822L12.5056 9.34083L11.7436 16.5386H12.6143L12.9949 12.8961C13.6438 12.7198 14.3118 12.6236 14.9838 12.6099C16.2684 12.6099 17.14 13.135 17.4013 13.9145C17.3144 13.9058 17.2272 13.9023 17.14 13.904C14.6682 13.904 13.5694 15.1728 13.5694 16.2891C13.5694 17.2733 14.2998 17.8205 15.246 17.8205C16.6255 17.8205 18.1202 16.7041 18.3296 14.8776C18.9598 15.0252 19.5624 15.2731 20.1149 15.6115C18.6234 17.8319 15.6079 19.2866 11.9935 19.2866C10.2188 19.2866 7.99853 18.9042 6.52894 17.8865L6.07125 18.6204C7.51976 19.6707 9.8382 20.1632 11.9951 20.1632C17.863 20.1632 22 16.6838 22 12.3848C22 7.86734 17.5035 4.60725 12.0065 4.60725C11.6689 4.60725 11.4295 4.61785 11.1025 4.63987L11.1893 5.50422C11.4506 5.49362 11.7338 5.48221 11.9951 5.48221C16.9047 5.48221 21.1073 8.45769 21.1073 12.3848C21.1094 13.2489 20.9151 14.102 20.5393 14.8792C19.9842 14.518 19.1785 14.1902 18.3183 14.0263C18.1333 12.976 17.2739 12.079 15.6079 11.9062C15.9344 11.7252 16.2069 11.4597 16.3967 11.1372C16.5867 10.8147 16.6873 10.447 16.688 10.0723C16.688 8.72679 15.741 7.81841 13.3568 7.81841C12.8791 7.8196 12.4022 7.85996 11.931 7.93908L12.026 7.01685L11.1447 6.77629L10.3827 8.28891C9.15249 8.64769 7.95473 9.17528 7.2471 9.57973L7.63906 10.3348C8.35404 9.96602 9.09216 9.6443 9.84874 9.37181L7.65041 13.7588C7.42155 13.7474 7.20327 13.7368 6.9858 13.7368ZM10.394 5.9152C10.394 4.96359 9.31641 4.10984 8.12188 3.83667C8.00204 4.32757 7.93563 4.83011 7.92388 5.33543C7.92388 6.67029 8.60959 7.06332 9.25229 7.06332C9.93637 7.06332 10.3933 6.60424 10.3933 5.9152H10.394Z" fill="#63C634"/>
</svg>
