<svg xmlns="http://www.w3.org/2000/svg" width="24" height="24" viewBox="0 0 24 24" fill="none"><rect width="24" height="24" fill="none"/>
<path fill-rule="evenodd" clip-rule="evenodd" d="M21 9.89691V8.82178C21 7.27379 21 6.49979 20.7965 5.87339C20.3851 4.60742 19.3926 3.61487 18.1266 3.20353C17.5002 3 16.7262 3 15.1782 3H14.7086C14.6674 3.21803 14.6371 3.43974 14.6181 3.66439C14.4844 5.24301 14.9303 6.77128 15.8668 7.96924C16.7933 9.1527 18.0932 9.87051 19.5264 9.99014C20.025 10.0318 20.5199 9.99947 21 9.89691ZM13.4279 3L8.82178 3C7.97649 3 7.36199 3 6.87629 3.03314C7.30178 3.22334 7.71064 3.45267 8.09738 3.71916C9.11699 4.42789 9.96554 5.35529 10.5811 6.43371L9.42947 6.96019C8.91402 6.08814 8.21696 5.33722 7.38561 4.75842C6.61567 4.2278 5.74072 3.87345 4.82301 3.71768C4.06768 4.23043 3.49234 4.98451 3.20353 5.87339C3 6.49979 3 7.27379 3 8.82178V15.1782C3 16.7262 3 17.5002 3.20353 18.1266C3.22938 18.2062 3.25753 18.2847 3.2879 18.362C3.43075 18.3838 3.57485 18.4008 3.72003 18.4129C5.52583 18.564 7.29015 17.9441 8.68791 16.668C10.042 15.43 10.8955 13.7212 11.1073 11.8332L6.2505 14.0548L5.74381 12.9471L12.3265 9.93602L12.3312 9.93316L12.3315 9.93374L12.3341 9.93257L12.3433 9.95279L16.1511 16.0917L15.1159 16.7337L12.3279 12.2388C12.1932 13.1962 11.9077 14.1274 11.481 14.9975C11.0017 15.9787 10.3421 16.861 9.53663 17.5984C8.74996 18.3226 7.82686 18.8826 6.82128 19.2459C5.95896 19.5573 5.04877 19.7095 4.13491 19.6965C4.60673 20.1962 5.20156 20.5782 5.87339 20.7965C6.49979 21 7.27379 21 8.82178 21H15.1782C16.7262 21 17.5002 21 18.1266 20.7965C19.3926 20.3851 20.3851 19.3926 20.7965 18.1266C21 17.5002 21 16.7262 21 15.1782V11.1807C20.4805 11.2689 19.9506 11.2918 19.4226 11.2477C18.5228 11.1726 17.6497 10.9047 16.8626 10.4622C16.0926 10.0284 15.4168 9.44549 14.8747 8.74747C13.7404 7.29735 13.203 5.4561 13.3609 3.56006C13.3766 3.37162 13.399 3.18483 13.4279 3Z" fill="white"/>
</svg>
