<svg xmlns="http://www.w3.org/2000/svg" width="118" height="24" viewBox="0 0 118 24" fill="none"><rect width="118" height="24" fill="none"/>
<path d="M2 19.6659V4.78759H10.253V19.6659H7.93317V6.94511H4.32936V19.6659H2ZM16.5298 4.45346C15.1742 4.45346 14.1098 5.1599 13.3317 6.57279C12.5585 7.99523 12.1718 9.86635 12.1718 12.1766C12.1718 14.5632 12.5442 16.4726 13.2936 17.8807C14.0334 19.2936 15.1074 20 16.5251 20C17.9714 20 19.1026 19.2601 19.9141 17.7804C20.6874 16.3675 21.0788 14.4916 21.0788 12.1575C21.0788 9.84726 20.6778 7.98568 19.8759 6.57279C19.074 5.1599 17.957 4.45346 16.5298 4.45346ZM14.3819 12.1957C14.3819 10.5632 14.5632 9.23628 14.9308 8.2148C15.284 7.18854 15.8186 6.67303 16.5298 6.67303C17.3174 6.67303 17.8854 7.19809 18.2387 8.23389C18.5537 9.14558 18.7112 10.4535 18.7112 12.1575C18.7112 13.7995 18.5298 15.1456 18.1623 16.2005C17.7995 17.2506 17.2554 17.7757 16.5298 17.7757C15.8282 17.7757 15.2983 17.2506 14.9308 16.1814C14.5325 14.8915 14.3471 13.5453 14.3819 12.1957ZM28.0334 4.78759H30.3628V19.6659H28.0334V12.3389H25.9332C24.9899 12.3623 24.0756 12.0123 23.389 11.3652C23.046 11.0706 22.7723 10.704 22.5875 10.2914C22.4027 9.87884 22.3113 9.43053 22.3198 8.97852V4.78282H24.6301V8.68735C24.6301 9.08353 24.7446 9.40334 24.9785 9.642C25.2983 9.95704 25.7804 10.1146 26.42 10.1146H28.0334V4.78759ZM36.3484 19.6659H34.0334V6.98807H31.8186V4.79236H38.5823V6.98807H36.3484V19.6659ZM40.3771 4.78759H44.1384C45.2506 4.78759 46.1241 5.05489 46.7637 5.5895C47.5656 6.25776 47.9666 7.30788 47.9666 8.7494L49.1695 19.6659H46.8401L46.105 12.2578H42.463L42.21 19.6659H39.8854L40.3723 4.78759H40.3771ZM42.506 10.0764H45.8425C45.7327 8.93079 45.5465 8.13842 45.284 7.70883C44.969 7.21241 44.4439 6.96897 43.7088 6.96897H42.5919L42.506 10.0764ZM57.5275 19.4033V4.52506H60.1527C61.9093 4.52506 63.1742 5.29356 63.9523 6.82578C64.4708 7.88563 64.7277 9.0543 64.7017 10.2339C64.7017 12.0811 64.3962 13.4893 63.7804 14.4487C63.2411 15.2697 62.5585 15.685 61.7279 15.685C61.3918 15.6803 61.0599 15.6086 60.7517 15.4742C60.4436 15.3398 60.1653 15.1453 59.9332 14.9021V19.4033H57.5275ZM59.9141 6.5537V11.1456C59.9141 11.8616 60.0239 12.4153 60.2482 12.8067C60.4582 13.1885 60.7255 13.3795 61.0358 13.3795C61.3652 13.3795 61.6468 13.1647 61.8854 12.7303C62.1241 12.2959 62.2387 11.6754 62.2387 10.8687C62.2387 9.37948 62.0573 8.28162 61.685 7.57995C61.3174 6.88305 60.8067 6.52983 60.1527 6.52983C60.0737 6.54216 59.994 6.55013 59.9141 6.5537ZM70.2434 4.19093C68.8878 4.19093 67.8234 4.89737 67.0453 6.31026C66.2721 7.73747 65.8854 9.60382 65.8854 11.9141C65.8854 14.3055 66.2578 16.21 67.0119 17.6181C67.747 19.031 68.8258 19.7375 70.2434 19.7375C71.685 19.7375 72.8115 18.9976 73.6277 17.5179C74.401 16.105 74.7924 14.2291 74.7924 11.895C74.7924 9.58473 74.3914 7.72315 73.5895 6.31026C72.7876 4.89737 71.6706 4.19093 70.2434 4.19093ZM68.0955 11.9332C68.0955 10.3007 68.2816 8.97375 68.6444 7.95227C68.9976 6.92601 69.5275 6.4105 70.2434 6.4105C71.031 6.4105 71.5991 6.93556 71.9523 7.97136C72.2673 8.88305 72.4248 10.1909 72.4248 11.895C72.4248 13.537 72.2434 14.8831 71.8759 15.9379C71.5084 16.9928 70.969 17.5179 70.2434 17.5179C69.5418 17.5179 69.0119 16.9833 68.6444 15.9189C68.2464 14.6289 68.061 13.2827 68.0955 11.9332ZM78.7208 12.0143C78.7208 13.5895 79.1504 14.8783 80.0191 15.8807C80.9499 16.9451 82.253 17.4797 83.9332 17.4797V19.8616C81.4893 19.8616 79.5704 19.1122 78.1814 17.6181C76.8544 16.1957 76.1909 14.3341 76.1909 12.0334C76.1909 9.65632 76.8019 7.78998 78.0286 6.43437C79.3652 4.94033 81.3222 4.19093 83.895 4.19093V6.57757C82.1766 6.57757 80.864 7.10263 79.9618 8.15274C79.1313 9.1074 78.7208 10.3962 78.7208 12.0191V12.0143ZM87.7661 12.0143C87.7661 13.5895 88.1957 14.8783 89.0644 15.8807C89.9905 16.9451 91.2983 17.4797 92.9785 17.4797V19.8616C90.5346 19.8616 88.6158 19.1122 87.2267 17.6181C85.8998 16.1957 85.2363 14.3341 85.2363 12.0334C85.2363 9.65632 85.8473 7.78998 87.0692 6.43437C88.4105 4.94033 90.3675 4.19093 92.9403 4.19093V6.57757C91.222 6.57757 89.9093 7.10263 89.0072 8.15274C88.1766 9.1074 87.7661 10.3962 87.7661 12.0191V12.0143ZM103.37 4L103.976 19.4033H101.609L101.217 9.29833L97.2411 13.284L97.2601 19.4033H94.8974V4.52506H97.2601V10.0191L103.37 4ZM114.84 4L115.446 19.4033H113.079L112.683 9.29833L108.711 13.284L108.73 19.4033H106.368V4.52506H108.73V10.0191L114.84 4Z" fill="#2036F5"/>
</svg>
