<svg xmlns="http://www.w3.org/2000/svg" width="24" height="24" viewBox="0 0 24 24" fill="none"><rect width="24" height="24" fill="none"/>
<path fill-rule="evenodd" clip-rule="evenodd" d="M9.39685 13.4246H6.40527C5.55056 13.4246 4.85774 12.7338 4.85774 11.8818C4.85774 11.0297 5.55046 10.3389 6.40518 10.3389H17.5945C18.4492 10.3389 19.142 11.0296 19.142 11.8818C19.142 12.7338 18.4492 13.4246 17.5945 13.4246H14.6035L19.1426 18.6465H15.0954L12.0002 15.0857L8.90494 18.6465H4.85774L9.39685 13.4246ZM12.0001 17.0708L9.49833 19.9488H2L6.53911 14.727H6.40515C4.83485 14.727 3.55529 13.4568 3.55529 11.8818C3.55529 10.3069 4.83466 9.0366 6.40506 9.0366H8.92153C8.68694 8.57216 8.55473 8.0471 8.55473 7.49065C8.55473 5.58789 10.1007 4.052 11.9997 4.052C13.8986 4.052 15.4447 5.58773 15.4447 7.49056C15.4447 8.04703 15.3124 8.57213 15.0778 9.0366H17.5943C19.1646 9.0366 20.4442 10.3067 20.4442 11.8818C20.4442 13.4568 19.1646 14.727 17.5943 14.727H17.461L22.0001 19.9488H14.5018L12.0001 17.0708ZM13.4784 9.0366C13.8317 8.70061 14.07 8.24549 14.1285 7.73587C14.1377 7.65537 14.1425 7.57352 14.1425 7.49056C14.1425 6.31068 13.1832 5.35433 11.9998 5.35433C10.8165 5.35433 9.85717 6.31077 9.85717 7.49065C9.85717 7.49526 9.85719 7.49986 9.85722 7.50447C9.86104 8.10711 10.115 8.65052 10.521 9.0366C10.7824 9.28523 11.1068 9.46861 11.4679 9.56055C11.638 9.60386 11.8162 9.62688 11.9998 9.62688C12.2145 9.62688 12.4218 9.59542 12.6173 9.53684C12.6425 9.52929 12.6675 9.52129 12.6923 9.51285C12.989 9.41186 13.2564 9.24775 13.4784 9.0366Z" fill="white"/>
</svg>
