<svg xmlns="http://www.w3.org/2000/svg" width="24" height="24" viewBox="0 0 24 24" fill="none"><rect width="24" height="24" fill="none"/>
<path d="M21.999 12C21.999 10.982 21.8468 9.99955 21.5641 9.07416C20.988 7.18845 19.8696 5.53947 18.3907 4.309C16.6575 2.86707 14.4292 2 11.999 2C6.47612 2 1.99896 6.47715 1.99896 12C1.99896 12.3799 2.02014 12.7549 2.0614 13.1238C2.29188 15.1848 3.14879 17.0565 4.43733 18.5441C6.27075 20.6608 8.97819 22 11.999 22C17.5218 22 21.999 17.5228 21.999 12Z" fill="black"/>
<path d="M21.999 12C21.999 10.982 21.8468 9.99955 21.5641 9.07416C20.988 7.18845 19.8696 5.53947 18.3907 4.309C16.6575 2.86707 14.4292 2 11.999 2C6.47749 2 1.99896 6.47849 1.99896 12C1.99896 12.3799 2.02014 12.7549 2.0614 13.1238C2.29188 15.1848 3.14879 17.0565 4.43733 18.5441C6.27075 20.6608 8.97819 22 11.999 22C17.523 22 21.999 17.5215 21.999 12Z" fill="#7F5FFF"/>
<path d="M17.6397 15.6431C17.3387 15.5655 16.9902 16.3426 16.8901 16.6361C16.8 16.9069 16.6217 17.6791 16.8901 17.7767C17.2161 17.8944 17.6722 17.0421 17.7704 16.7111C17.8455 16.4528 17.9006 15.7107 17.6402 15.6456" fill="#FEE14A"/>
<path fill-rule="evenodd" clip-rule="evenodd" d="M21.5641 9.07416C20.988 7.18845 19.8696 5.53947 18.3907 4.309C16.5434 3.43645 14.3555 2.9503 12.2767 3.38904C11.4931 3.55456 11.3575 3.88275 11.2089 4.24217C11.1566 4.36876 11.1027 4.49923 11.0183 4.62783C10.7626 5.01751 10.2197 5.27655 9.78149 5.48561C9.44999 5.64377 9.17845 5.77332 9.13662 5.90919C8.99892 6.36284 9.65689 7.14047 10.0329 7.28067C10.3623 7.40204 10.6688 7.1619 11.0017 6.90102C11.2745 6.68724 11.565 6.45953 11.9006 6.40541C12.6402 6.28523 15.3912 6.53659 15.8498 7.26565C16.5323 8.02526 16.4542 9.25407 16.0456 9.42479C15.831 9.51446 15.479 9.31708 15.0939 9.1012C14.692 8.87583 14.254 8.6303 13.899 8.67019C13.7371 8.68885 13.5116 8.78577 13.2708 8.88923C12.9299 9.03568 12.5586 9.19524 12.2942 9.16443C12.0686 9.13825 11.8885 8.84741 11.711 8.56052C11.5827 8.35329 11.4557 8.14813 11.3137 8.04629C11.0053 7.82546 9.26032 8.20651 8.81115 8.40981C8.26436 8.65567 7.02356 10.4132 6.99051 11.0451C6.95045 11.7797 8.44712 13.2619 9.0515 13.3795C9.34508 13.4363 9.74334 13.3428 10.1258 13.2531C10.5698 13.1489 10.9926 13.0497 11.2056 13.1963C11.3879 13.3227 11.577 14.2252 11.7997 15.288C12.1555 16.9864 12.5971 19.0942 13.234 19.0988C13.891 19.1038 15.6861 16.6518 15.967 16.1751C16.2139 15.7535 16.2112 15.175 16.2089 14.7115C16.2076 14.4362 16.2065 14.2013 16.258 14.064C16.336 13.8557 16.6015 13.6176 16.873 13.374C17.2025 13.0785 17.541 12.7749 17.5643 12.5068C17.5824 12.3086 17.2924 11.9424 17.0025 11.5764C16.6509 11.1325 16.2995 10.6889 16.4988 10.5459C16.6268 10.4546 17.003 10.55 17.4259 10.6572C17.9564 10.7916 18.5604 10.9447 18.8407 10.7717C19.0667 10.6323 19.1784 10.197 19.3137 9.66981C19.4358 9.19389 19.5771 8.64309 19.8391 8.16746C19.9438 7.97719 20.1436 7.85651 20.3609 7.85651C20.7343 7.85651 21.1354 8.03508 21.5641 9.07416Z" fill="#FEE14A"/>
<path fill-rule="evenodd" clip-rule="evenodd" d="M4.43733 18.5441C4.02297 17.6502 4.23198 16.947 4.41962 16.3158C4.55803 15.8502 4.68481 15.4236 4.54121 14.9886C4.40589 14.5792 3.98055 14.4361 3.51302 14.2787C2.94098 14.0862 2.30578 13.8724 2.0614 13.1238C2.29188 15.1848 3.14879 17.0565 4.43733 18.5441Z" fill="#FEE14A"/>
</svg>
