<svg xmlns="http://www.w3.org/2000/svg" width="24" height="24" viewBox="0 0 24 24" fill="none"><rect width="24" height="24" fill="none"/>
<path d="M21.999 11.9992C21.999 6.47663 17.5216 2 11.999 2C6.47567 2 1.99902 6.47663 1.99902 11.9992C1.99902 17.5226 6.47567 22 11.9982 22C17.5216 22 21.999 17.5226 21.999 11.9992Z" fill="#00ADFF"/>
<path d="M12.3993 12.1703C13.2443 7.71867 13.8455 6.94714 15.6888 7.08998C17.131 7.20136 18.8072 9.28271 17.294 13.7787C15.8365 18.1125 12.6213 18.8824 10.2841 17.4975C8.5901 16.4928 7.25445 14.3227 6.74924 13.125C5.9527 11.243 5.53466 9.18667 6.58219 8.06408C7.44007 7.14406 8.42547 6.70099 10.2841 8.81382C12.1427 10.9258 12.3993 12.1703 12.3993 12.1703Z" fill="white"/>
</svg>
