<svg xmlns="http://www.w3.org/2000/svg" width="92" height="24" viewBox="0 0 92 24" fill="none"><rect width="92" height="24" fill="none"/>
<path d="M34.3507 8.76531C35.1383 8.76531 35.8437 8.94165 36.4668 9.29433C37.0898 9.64701 37.5777 10.1408 37.9304 10.7756C38.2831 11.4104 38.4594 12.1334 38.4594 12.9446C38.4594 13.7557 38.2596 14.4846 37.8599 15.1312C37.4719 15.7778 36.9311 16.2833 36.2375 16.6477C35.5439 17.0004 34.7563 17.1767 33.8746 17.1767C33.1222 17.1767 32.4403 17.0415 31.829 16.7711C31.2177 16.489 30.7005 16.0775 30.2772 15.5368C29.5601 14.5963 29.2016 13.2972 29.2016 11.6397C29.2016 9.81747 29.6013 8.37148 30.4007 7.30169C31.2118 6.23189 32.5579 5.6147 34.4389 5.45012C34.8503 5.41485 35.1619 5.35607 35.3735 5.27378C35.5968 5.19148 35.7555 5.0798 35.8496 4.93873C35.9436 4.7859 36.0142 4.57429 36.0612 4.30391L37.8422 4.46261C37.7952 5.17973 37.6189 5.73814 37.3132 6.13784C37.0193 6.52579 36.6372 6.80206 36.167 6.96664C35.6968 7.13122 35.1266 7.24291 34.4565 7.30169C33.6688 7.37222 33.0517 7.53093 32.6049 7.7778C32.1582 8.01292 31.8408 8.33621 31.6527 8.74767C31.4646 9.15913 31.3412 9.69403 31.2824 10.3524C31.6351 9.82335 32.0583 9.42952 32.552 9.17089C33.0575 8.9005 33.6571 8.76531 34.3507 8.76531ZM33.8922 15.3604C34.6328 15.3604 35.2324 15.1429 35.6909 14.708C36.1611 14.2612 36.3962 13.6793 36.3962 12.9622C36.3962 12.2568 36.1611 11.6867 35.6909 11.2517C35.2324 10.805 34.6328 10.5816 33.8922 10.5816C33.1398 10.5816 32.5285 10.805 32.0583 11.2517C31.5998 11.6867 31.3705 12.2568 31.3705 12.9622C31.3705 13.6793 31.5998 14.2612 32.0583 14.708C32.5285 15.1429 33.1398 15.3604 33.8922 15.3604Z" fill="black"/>
<path d="M43.0042 17.0004H40.1298V7.83071H42.0696V14.6374H42.3517L45.7727 7.83071H48.647V17.0004H46.7073V10.1937H46.4252L43.0042 17.0004Z" fill="black"/>
<path d="M56.1641 12.3274C56.6696 12.4802 57.0869 12.7447 57.4161 13.1209C57.757 13.4853 57.9275 13.9379 57.9275 14.4787C57.9275 14.9842 57.7688 15.4427 57.4514 15.8542C57.1457 16.2539 56.699 16.5772 56.1112 16.824C55.5351 17.0592 54.8709 17.1767 54.1185 17.1767C53.1193 17.1767 52.2611 16.9416 51.544 16.4714C50.8386 16.0011 50.3743 15.3781 50.1509 14.6022L52.0201 14.2848C52.2199 14.6962 52.4845 14.996 52.8136 15.1841C53.1428 15.3604 53.5719 15.4486 54.1009 15.4486C54.6769 15.4486 55.1178 15.3487 55.4235 15.1488C55.7409 14.949 55.8996 14.6727 55.8996 14.32C55.8996 13.6264 55.3 13.2796 54.1009 13.2796H52.9547V11.5162H54.1009C54.6417 11.5162 55.0531 11.428 55.3353 11.2517C55.6174 11.0636 55.7585 10.8109 55.7585 10.4934C55.7585 10.1525 55.6116 9.88213 55.3177 9.68228C55.0238 9.48242 54.6593 9.3825 54.2243 9.3825C53.7894 9.3825 53.3955 9.4883 53.0429 9.69991C52.7019 9.91152 52.4374 10.1995 52.2493 10.564L50.3801 10.2466C50.6505 9.40013 51.1325 8.75943 51.8261 8.32446C52.5315 7.87773 53.3544 7.65437 54.2949 7.65437C54.965 7.65437 55.5645 7.76605 56.0935 7.98941C56.6226 8.21278 57.034 8.52431 57.3279 8.92401C57.6336 9.32372 57.7864 9.77632 57.7864 10.2818C57.7864 10.7873 57.6336 11.2223 57.3279 11.5867C57.034 11.9512 56.6461 12.1981 56.1641 12.3274Z" fill="black"/>
<path d="M66.0014 11.4457V7.83071H68.0293V17.0004H66.0014V13.2972H61.8927V17.0004H59.8647V7.83071H61.8927V11.4457H66.0014Z" fill="black"/>
<path d="M79.3111 12.3097C79.3111 12.4861 79.2993 12.7036 79.2758 12.9622H71.9048C71.9988 13.6793 72.2927 14.2554 72.7865 14.6903C73.2802 15.1135 73.9092 15.3252 74.6733 15.3252C75.1906 15.3252 75.6549 15.2252 76.0664 15.0254C76.4896 14.8255 76.8129 14.5551 77.0363 14.2142L78.9407 14.5316C78.6116 15.3781 78.0414 16.0305 77.2302 16.489C76.4308 16.9475 75.5374 17.1767 74.5499 17.1767C73.6329 17.1767 72.81 16.9769 72.0811 16.5772C71.364 16.1657 70.7997 15.6014 70.3882 14.8843C69.9885 14.1554 69.7887 13.3325 69.7887 12.4155C69.7887 11.4986 69.9885 10.6815 70.3882 9.96442C70.7997 9.23555 71.364 8.67126 72.0811 8.27156C72.81 7.8601 73.6329 7.65437 74.5499 7.65437C75.4668 7.65437 76.2839 7.8601 77.001 8.27156C77.7299 8.67126 78.2942 9.22967 78.6939 9.94679C79.1053 10.6521 79.3111 11.4398 79.3111 12.3097ZM74.5499 9.41777C73.9386 9.41777 73.4037 9.59411 72.9452 9.94679C72.4985 10.2995 72.1928 10.7756 72.0282 11.3751H77.1068C76.9305 10.7873 76.6131 10.3171 76.1546 9.96442C75.7078 9.59998 75.1729 9.41777 74.5499 9.41777Z" fill="black"/>
<path d="M85.141 17.1767C84.2241 17.1767 83.4011 16.9769 82.6723 16.5772C81.9434 16.1657 81.3732 15.6014 80.9618 14.8843C80.562 14.1554 80.3622 13.3325 80.3622 12.4155C80.3622 11.4986 80.562 10.6815 80.9618 9.96442C81.3732 9.23555 81.9434 8.67126 82.6723 8.27156C83.4011 7.8601 84.2241 7.65437 85.141 7.65437C86.152 7.65437 87.0455 7.90712 87.8214 8.41263C88.609 8.90638 89.1674 9.61174 89.4966 10.5287L87.5921 10.8461C87.3923 10.4464 87.0808 10.1231 86.6575 9.87625C86.2461 9.62937 85.7817 9.50594 85.2645 9.50594C84.4415 9.50594 83.7714 9.77632 83.2542 10.3171C82.7369 10.8579 82.4783 11.5574 82.4783 12.4155C82.4783 13.2737 82.7369 13.9732 83.2542 14.514C83.7714 15.0548 84.4415 15.3252 85.2645 15.3252C85.8052 15.3252 86.2872 15.2017 86.7104 14.9548C87.1337 14.6962 87.4511 14.3612 87.6627 13.9497L89.5672 14.2671C89.238 15.1958 88.6678 15.913 87.8567 16.4185C87.0455 16.924 86.1403 17.1767 85.141 17.1767Z" fill="black"/>
<path fill-rule="evenodd" clip-rule="evenodd" d="M3.40589 3.40589C2 4.81177 2 7.07452 2 11.6V12.4C2 16.9255 2 19.1882 3.40589 20.5941C4.81177 22 7.07452 22 11.6 22H12.4C16.9255 22 19.1882 22 20.5941 20.5941C22 19.1882 22 16.9255 22 12.4V11.6C22 7.07452 22 4.81177 20.5941 3.40589C19.1882 2 16.9255 2 12.4 2H11.6C7.07452 2 4.81177 2 3.40589 3.40589ZM5.37503 8.08337C5.48336 13.2834 8.08334 16.4084 12.6417 16.4084H12.9001V13.4334C14.5751 13.6 15.8416 14.825 16.35 16.4084H18.7167C18.0667 14.0417 16.3583 12.7334 15.2916 12.2334C16.3583 11.6167 17.8583 10.1167 18.2166 8.08337H16.0666C15.5999 9.73337 14.2167 11.2334 12.9001 11.375V8.08337H10.75V13.85C9.41666 13.5167 7.73336 11.9 7.65836 8.08337H5.37503Z" fill="black"/>
</svg>
