<svg xmlns="http://www.w3.org/2000/svg" width="24" height="24" viewBox="0 0 24 24" fill="none"><rect width="24" height="24" fill="none"/>
<path fill-rule="evenodd" clip-rule="evenodd" d="M11.2193 2.02935C6.47283 2.39199 2.54882 6.16467 2.03033 10.8638L2.00156 11.1269L5.41678 11.1257L8.8323 11.1241L9.3633 10.1672L9.89461 9.2105L7.15143 9.19959L4.40857 9.18867L4.43671 9.0733C4.45204 9.00969 4.58807 8.7066 4.7388 8.39946L5.01306 7.84131H7.83723H10.6614L11.1861 6.9043L11.7106 5.96698L9.17317 5.94577L6.63545 5.92488L6.93128 5.68884C9.8968 3.32214 14.5035 3.35925 17.1757 5.77084L17.3658 5.94234L14.8418 5.94421C13.1732 5.94546 12.3176 5.96043 12.3176 5.98849C12.3176 6.01188 12.5474 6.43813 12.8286 6.93579L13.3392 7.841L16.1543 7.8516L18.9694 7.86251L19.1474 8.17838C19.2453 8.35207 19.3925 8.65079 19.4742 8.84193L19.6227 9.1893H16.8739C14.2736 9.1893 14.1267 9.19335 14.1526 9.2632C14.1676 9.30373 14.4025 9.73903 14.6745 10.2308L15.1689 11.1244L18.5845 11.1257L22 11.1269L21.9709 10.8638C21.3824 5.55943 16.5871 1.619 11.2193 2.02935ZM2.02971 13.2647C2.06317 13.5806 2.22829 14.4141 2.31585 14.7075L2.37245 14.8971L5.05277 14.908L7.73278 14.9189L5.98655 16.6608L4.24001 18.4026L4.60089 18.7979C4.97772 19.2114 5.52435 19.7203 5.59128 19.7203C5.61285 19.7203 6.39841 18.9526 7.33688 18.0147C8.27566 17.0767 9.05778 16.309 9.07497 16.3087C9.09217 16.3084 9.11125 17.5061 9.11719 18.9698L9.12814 21.6314L9.50809 21.73C9.86428 21.8223 10.3421 21.9118 10.8071 21.9735L11.0079 22V17.4902V12.9804H6.50379H2L2.02971 13.2647ZM12.9934 17.4877C12.9934 20.4839 13.0077 21.995 13.0359 21.995C13.282 21.995 14.2993 21.797 14.6939 21.6723L14.8944 21.609V18.2635V14.918H17.2385H19.5824L19.4998 15.1275C19.2465 15.7683 18.7612 16.5603 18.2345 17.1927C18.0704 17.3898 17.9362 17.5794 17.9359 17.614C17.9278 19.1531 17.9353 20.0393 17.9568 20.0505C18.0488 20.0985 19.2281 19.0069 19.7356 18.4041C20.9317 16.9829 21.9916 14.4827 21.9916 13.0817V12.9804H17.4925H12.9934V17.4877Z" fill="white"/>
</svg>
