<svg xmlns="http://www.w3.org/2000/svg" width="24" height="24" viewBox="0 0 24 24" fill="none"><rect width="24" height="24" fill="none"/>
<path d="M17.3415 4.21657L18.863 4.01868C18.8905 4.59776 19.634 4.61067 19.6605 4.01868L21.2038 4.21657C21.097 4.52207 20.8681 4.77212 20.6751 4.96716C20.4813 5.16226 20.2627 5.30347 20.0209 5.39278C19.7796 5.47996 19.5308 5.5251 19.2732 5.5251C18.8799 5.5251 18.5095 5.4184 18.1632 5.20404C17.8178 4.9907 17.492 4.66191 17.3415 4.21657Z" fill="white"/>
<path d="M19.8026 5.81695L18.6286 8.75263V5.81695H17.1662V11.285H18.7428L19.9163 8.35379V11.285H21.3786V5.81695H19.8026Z" fill="white"/>
<path d="M10.1877 15.8727C10.1877 16.9613 10.43 17.9685 11.2515 17.9685C12.0733 17.9685 12.3153 16.9613 12.3153 15.8727C12.3153 14.7278 12.0733 13.7629 11.2515 13.7629C10.43 13.7629 10.1877 14.7278 10.1877 15.8727ZM8.15322 15.8727C8.15322 13.6454 9.21847 12.2833 11.2599 12.2833C13.3014 12.2833 14.366 13.6454 14.366 15.8727C14.366 18.0797 13.2837 19.4639 11.2599 19.4639C9.23611 19.4639 8.15322 18.0797 8.15322 15.8727ZM14.5333 19.3384L15.1966 12.3973H17.4378L18.3041 15.9755L19.1966 12.3973H21.3786L22 19.3384H20.2011L19.9669 15.9552L19.0204 19.3384H17.4298L16.5798 15.9552L16.4031 19.3384H14.5333ZM4.35995 17.8735L5.09509 15.007L5.80248 17.8735H4.35995ZM6.03656 12.2013H4.2316L2.47295 17.8668H2V19.9815H3.86357V19.3273H6.27496V19.9815H8.19572V17.8668H7.76685L6.03656 12.2013Z" fill="white"/>
<path d="M8.95141 7.89884H9.40509C9.59566 7.89884 9.6926 7.85772 9.76356 7.77497C9.83447 7.69272 9.87005 7.59731 9.87005 7.48852C9.87005 7.35977 9.82995 7.25515 9.75004 7.17433C9.67145 7.09345 9.57888 7.0533 9.40509 7.0533H8.95141V7.89884ZM8.96269 10.0672H9.41881C9.67979 10.0672 9.9067 9.91445 9.9067 9.58547C9.9067 9.25648 9.68899 9.0748 9.41881 9.0748H8.96269V10.0672ZM7.48886 5.82681H9.84276C10.7973 5.84938 11.3389 6.1986 11.3722 7.17011C11.3923 7.74635 11.1646 8.19611 10.6734 8.38694V8.4029C11.3255 8.57024 11.5681 9.08466 11.5681 9.70365C11.5681 10.2442 11.2609 10.8129 10.8012 11.0843C10.5615 11.226 10.331 11.285 9.97578 11.285H7.48886V5.82681Z" fill="white"/>
<path d="M4.23982 11.285V7.0493H2.97384V5.83059H7.13697L6.96831 7.0493H5.71091V11.285H4.23982Z" fill="white"/>
<path d="M13.4925 8.56109C13.4925 7.65988 13.6832 6.89983 14.3301 6.89983C14.9765 6.89983 15.1673 7.65988 15.1673 8.56109C15.1673 9.41766 14.9765 10.211 14.3301 10.211C13.6832 10.211 13.4925 9.41766 13.4925 8.56109ZM11.8905 8.56109C11.8905 10.2992 12.7432 11.3879 14.3363 11.3879C15.9295 11.3879 16.7818 10.2992 16.7818 8.56109C16.7818 6.80772 15.9437 5.73566 14.3363 5.73566C12.7293 5.73566 11.8905 6.80772 11.8905 8.56109Z" fill="white"/>
</svg>
