<svg xmlns="http://www.w3.org/2000/svg" width="71" height="24" viewBox="0 0 71 24" fill="none"><rect width="71" height="24" fill="none"/>
<path d="M61.3751 16.7744L61.5632 15.1215C61.8273 15.1546 62.0925 15.1796 62.3593 15.1796C62.7838 15.1796 63.1262 15.0925 63.3866 14.9183C63.9669 14.5652 64.2606 13.9926 64.5012 13.3877L61.8662 6.8179L61.0656 6.5259L61.1724 5.50392H64.7762L64.8511 6.51376L63.9047 6.8179L65.4296 11.2316L66.7843 6.79703L65.8701 6.51376L65.9428 5.50392H69.3645L69.4372 6.5259L68.7093 6.79703L66.3392 13.2626C66.005 14.1882 65.597 15.2256 64.8919 15.9326C64.2741 16.5937 63.3911 16.876 62.5039 16.876C62.166 16.876 61.7898 16.8421 61.3751 16.7744Z" fill="white"/>
<path d="M52.313 16.7456L52.3857 15.5776L53.3396 15.2639V6.90658L52.313 6.52582L52.3857 5.50385H54.9337L55.1 6.45284C55.7834 5.84021 56.6425 5.36695 57.5802 5.36695C59.6464 5.36695 60.4317 7.32881 60.4317 9.22758C60.4317 11.5938 59.3014 13.4656 56.6106 13.4656C56.1933 13.4656 55.7759 13.4003 55.3657 13.3289V15.2806L56.4623 15.5776L56.535 16.7456H52.313ZM57.841 11.3321C58.4457 10.45 58.461 9.06169 58.1302 8.0665C57.9272 7.44008 57.4971 6.86185 56.7841 6.86185C56.5335 6.86185 56.2678 6.92958 55.9883 7.06506C55.7388 7.18566 55.3705 7.47481 55.3657 7.4729V11.9277C56.2161 12.0484 57.2992 12.1467 57.841 11.3321Z" fill="white"/>
<path d="M41.5137 5.50392L41.4215 8.60382H40.1912L39.9803 7.03632H37.7743V11.9278L38.9657 12.2177L39.0384 13.3877H34.6707L34.7434 12.2177L35.7478 11.9278V6.89088L34.7434 6.5259L34.8164 5.50392H41.5137Z" fill="white"/>
<path d="M24.4028 13.3877L24.4677 12.2197L25.4375 11.9389V6.89088L24.4756 6.5259L24.5484 5.50392H28.3339L28.4065 6.5259L27.4638 6.89088L27.4602 8.54568H30.3731V6.89088L29.4256 6.5259L29.4986 5.50392H33.3545L33.4295 6.5259L32.3992 6.89088V11.9278L33.3545 12.2197L33.4295 13.3877H29.4256L29.4986 12.2197L30.3731 11.9278V9.99708H27.4638V11.9389L28.3339 12.2197L28.4065 13.3877H24.4028Z" fill="white"/>
<path d="M14.0975 13.3877L14.1703 12.2197L15.1342 11.9278V6.89088L14.1703 6.5259L14.2431 5.50392H17.8829L17.9558 6.5259L17.0592 6.89088V9.95587L20.2145 7.15201L20.2132 6.89088L19.2661 6.5259L19.3389 5.50392H23.0515L23.1243 6.5259L22.125 6.89088V11.9278L23.0515 12.2197L23.1243 13.3877H19.2661L19.3389 12.2197L20.2 11.9278V8.74818L17.0592 11.6911V11.9278L17.9565 12.2197L18.0285 13.3877H14.0975Z" fill="white"/>
<path d="M8.25607 15.307L9.22582 15.5848L9.2797 16.7456H5.49426L5.56705 15.5776L6.51923 15.3067V3.43229L5.49426 3.16797L5.56705 2.146L8.25607 2V15.307ZM7.5324 5.33728C9.13414 5.33728 10.8937 5.80743 11.6464 6.45569C12.4086 7.09432 12.7898 8.03286 12.7898 9.27134C12.7898 10.1131 12.6113 10.8437 12.2542 11.4629C11.3441 13.0169 9.07495 13.4607 7.45975 13.4607C5.8966 13.4607 3.88157 13.0401 3.12894 12.4208C2.3763 11.7919 2 10.8437 2 9.57616C2 8.67628 2.18332 7.92642 2.54999 7.32653C3.49857 5.74955 5.88611 5.33728 7.5324 5.33728ZM7.37317 6.68707C6.68808 6.68707 5.99251 6.77414 5.57758 6.94832C4.54418 7.36774 4.27409 8.37491 4.27409 9.43102C4.27409 10.4966 4.53811 11.4587 5.56312 11.8992C5.96838 12.0637 6.93389 12.1109 7.61898 12.1109C8.31373 12.1109 8.74421 12.054 9.16876 11.8702C10.2069 11.4206 10.5157 10.4326 10.5157 9.34391C10.5157 8.28616 10.2245 7.34084 9.19772 6.93378C8.7828 6.76931 8.07755 6.68707 7.37317 6.68707Z" fill="white"/>
<path fill-rule="evenodd" clip-rule="evenodd" d="M43.9137 4.99721C43.3405 6.51338 42.9085 8.28736 42.9003 9.65854C42.9003 11.5403 43.693 13.108 45.582 13.3965C46.7382 13.5732 47.9603 13.2853 48.8299 12.484C48.8138 13.5336 48.7426 14.6087 48.565 15.6439C47.5995 15.2257 46.5857 15.005 45.5064 15.005C44.409 15.005 43.3188 15.2996 42.4762 15.9105C41.6119 16.5369 41.0184 17.4976 41.0184 18.711C41.0184 19.9509 41.6553 20.8168 42.3968 21.3378C43.1033 21.8344 43.9448 22 44.5652 22C46.4475 22 47.7348 21.564 48.9149 20.106C49.2746 19.6618 49.5537 19.1577 49.7729 18.6113C50.3045 19.0522 50.8403 19.5823 51.3869 20.2065L52.8008 18.9594C51.9953 18.0394 51.1711 17.2621 50.3135 16.6466C50.9025 13.3932 50.8032 9.9574 51.0081 6.66853L49.1259 6.30519C48.9812 7.32252 48.8299 8.84847 48.402 10.0111C47.9674 11.1011 47.1713 11.7283 45.8653 11.5288C44.9403 11.3875 44.7687 10.4664 44.7735 9.65854C44.7799 8.55782 45.1444 7.03183 45.7237 5.50587L43.9137 4.99721ZM48.1608 17.5386C47.2886 17.1017 46.4126 16.8943 45.5064 16.8943C44.7215 16.8943 44.0385 17.1084 43.578 17.4421C43.1389 17.7604 42.9003 18.1803 42.9003 18.711C42.9003 19.565 43.578 20.1643 44.7102 20.1643C45.9406 20.1643 46.7112 19.8327 47.4545 18.9145C47.7524 18.5467 47.9813 18.0898 48.1608 17.5386Z" fill="white" fill-opacity="0.6"/>
</svg>
