<svg xmlns="http://www.w3.org/2000/svg" width="24" height="24" viewBox="0 0 24 24" fill="none"><rect width="24" height="24" fill="none"/>
<path d="M3 5.78473L5.69 10.5477V13.4513L3.00433 18.2045L3 5.78473Z" fill="#575EAA"/>
<path d="M13.3253 8.81403L15.8444 7.28406L21 7.2803L13.3253 11.9395V8.81403Z" fill="#DC195B"/>
<path d="M13.3112 5.75732L13.3253 12.0615L10.6299 10.4214V0.995972L13.3112 5.75732Z" fill="#FCB52E"/>
<path d="M21 7.2803L15.8444 7.28406L13.3112 5.75732L10.6299 0.995972L21 7.2803Z" fill="#F47733"/>
<path d="M13.3253 18.2314V15.172L10.6304 13.5625V22.996L13.3253 18.2314Z" fill="#60BB46"/>
<path d="M15.8384 16.7149L5.69 10.5477L3 5.78473L20.9897 16.709L15.8384 16.7149Z" fill="#108ACB"/>
<path d="M10.6304 22.996L13.3253 18.2314L15.8384 16.7149L20.9897 16.709L10.6304 22.996Z" fill="#118442"/>
<path d="M3.00433 18.2045L10.6509 13.5625L8.07986 11.9997L5.69 13.4513L3.00433 18.2045Z" fill="#9150A0"/>
</svg>
