<svg xmlns="http://www.w3.org/2000/svg" width="53" height="24" viewBox="0 0 53 24" fill="none"><rect width="53" height="24" fill="none"/>
<path d="M6.28645 2.04853C8.67581 2.04853 10.5729 3.73184 10.5729 6.11252C10.5729 8.49319 8.67581 10.1885 6.33448 10.1885C3.99314 10.1885 2.04803 8.50522 2.04803 6.11252C2.04803 3.71981 3.94511 2.04853 6.28645 2.04853ZM6.33448 8.55331C6.94698 8.54697 7.53207 8.29803 7.96181 7.86093C8.39155 7.42382 8.63099 6.83412 8.62779 6.22073V6.11252C8.63902 5.80457 8.58953 5.49742 8.48214 5.20865C8.37475 4.91987 8.21156 4.65512 8.00191 4.42955C7.79227 4.20398 7.54027 4.022 7.26034 3.89403C6.98041 3.76606 6.67803 3.6946 6.3705 3.68374H6.33448C6.03388 3.68057 5.73563 3.73692 5.45686 3.84955C5.17808 3.96219 4.92429 4.12888 4.71006 4.34006C4.49583 4.55124 4.32539 4.80273 4.20854 5.08008C4.09169 5.35744 4.03072 5.65518 4.02916 5.95621V6.11252C3.98613 6.71167 4.18175 7.30351 4.57324 7.75864C4.96474 8.21377 5.52026 8.49516 6.11835 8.54129H6.33448M12.1218 2.21686H13.8868V2.79399C13.8892 2.97153 13.8731 3.14884 13.8388 3.32303H13.8868C14.1527 2.90208 14.5276 2.56123 14.9716 2.33679C15.4156 2.11235 15.9121 2.01273 16.4082 2.04853C18.5214 2.04853 19.8542 3.73184 19.8542 6.11252C19.8542 8.49319 18.3413 10.1885 16.3122 10.1885C15.8848 10.2035 15.4602 10.1139 15.0752 9.9274C14.6903 9.74093 14.3565 9.46325 14.1029 9.11842H14.0669C14.0909 9.34206 14.1029 9.56682 14.1029 9.79175V13.0622H12.1578V2.21686H12.1218ZM15.916 8.55331C16.9726 8.55331 17.8611 7.66356 17.8611 6.16061C17.8611 4.65766 17.0686 3.73184 15.916 3.73184C14.7633 3.73184 13.9708 4.4773 13.9708 6.16061C14.0189 7.35095 14.6312 8.55331 15.916 8.55331ZM24.837 2.04853C27.0943 2.04853 28.283 3.68374 28.283 5.71574C28.283 5.94419 28.247 6.47323 28.247 6.47323H22.8919C22.938 7.05577 23.2076 7.59781 23.6441 7.98562C24.0807 8.37344 24.6502 8.5769 25.2333 8.55331C26.0537 8.50949 26.8413 8.21585 27.4906 7.71166L28.247 9.08235C27.3568 9.80274 26.2457 10.1935 25.1012 10.1885C24.0489 10.2342 23.0215 9.85965 22.2448 9.14724C21.4681 8.43482 21.0056 7.44278 20.9588 6.38906C20.9469 6.29727 20.9469 6.20431 20.9588 6.11252C20.9126 5.62424 20.9634 5.13163 21.1083 4.66311C21.2532 4.19458 21.4892 3.75942 21.8029 3.38273C22.1166 3.00603 22.5016 2.69526 22.9358 2.46833C23.37 2.2414 23.8448 2.10281 24.3328 2.06055C24.4999 2.03856 24.669 2.03453 24.837 2.04853ZM26.3019 5.1386C26.2539 4.08052 25.5935 3.50339 24.753 3.50339C24.2951 3.49456 23.8503 3.65736 23.5061 3.95987C23.1618 4.26238 22.9427 4.68277 22.8919 5.1386H26.3019ZM29.8799 10.0082H31.825V6.42513C31.8149 6.07961 31.8594 5.73466 31.9571 5.40312C32.0774 4.94472 32.3471 4.53966 32.7234 4.25215C33.0997 3.96464 33.561 3.81115 34.0343 3.816C35.0069 3.816 35.271 4.4773 35.271 5.40312V9.96008H37.1681V4.97027C37.1681 2.89018 36.1955 2.00043 34.4666 2.00043C33.9035 1.99089 33.3489 2.13888 32.8653 2.42777C32.3817 2.71666 31.9881 3.13498 31.729 3.63565H31.693C31.7173 3.46036 31.7293 3.28358 31.729 3.10661V2.21686H29.8799V10.0082ZM2 20.8535C2.81498 21.6093 3.89114 22.0189 5.00172 21.9957C6.86278 21.9957 7.96741 20.9377 7.96741 19.6511C7.96741 17.1743 4.20926 17.3065 4.20926 16.2003C4.20926 15.7194 4.68954 15.4909 5.18182 15.4909C5.87241 15.4796 6.54464 15.7139 7.0789 16.1522L7.78731 14.7455C7.06614 14.1231 6.13247 13.8042 5.18182 13.8557C3.50086 13.8557 2.21612 14.6974 2.21612 16.1522C2.21612 18.6411 5.97427 18.4969 5.97427 19.6511C5.97427 20.096 5.494 20.3605 4.96569 20.3605C4.17831 20.3498 3.42218 20.0504 2.84048 19.5189L2 20.8535ZM12.8662 13.8557C15.1235 13.8557 16.3122 15.4909 16.3122 17.535C16.3122 17.7514 16.2642 18.2804 16.2642 18.2804H10.9211C10.9642 18.8641 11.233 19.4079 11.6702 19.7963C12.1074 20.1848 12.6786 20.3872 13.2624 20.3605C14.084 20.3221 14.8731 20.0279 15.5197 19.5189L16.2642 20.8896C15.3812 21.6144 14.2721 22.0059 13.1304 21.9957C12.0781 22.0414 11.0507 21.6669 10.274 20.9544C9.49728 20.242 9.03474 19.25 8.98799 18.1963C8.978 18.1085 8.97399 18.0201 8.97599 17.9317C8.93997 15.539 10.5729 13.8557 12.8662 13.8557ZM14.3671 16.9578C14.331 15.8877 13.6587 15.3226 12.8182 15.3226C12.3608 15.3113 11.9161 15.4735 11.5731 15.7768C11.2302 16.08 11.0144 16.5019 10.9691 16.9578H14.3671ZM17.9451 14.0361V21.8154H19.8902V18.7253C19.8784 18.2894 19.9392 17.8546 20.0703 17.4388C20.1966 16.9706 20.4731 16.557 20.857 16.2616C21.241 15.9662 21.7113 15.8052 22.1955 15.8036C22.3411 15.8017 22.4862 15.8178 22.6278 15.8517V13.9519C22.515 13.9174 22.3975 13.9011 22.2796 13.9038C21.7096 13.926 21.1617 14.1306 20.7165 14.4877C20.2713 14.8448 19.9522 15.3355 19.8062 15.8877H19.7581C19.7925 15.7135 19.8086 15.5362 19.8062 15.3587V14.0361H17.9451ZM25.6775 21.8154H27.9828L30.7564 14.0361H28.7273L27.0943 18.8576C26.9623 19.3385 26.8302 20.0479 26.8302 20.0479H26.7822C26.7822 20.0479 26.6501 19.3024 26.518 18.8576L24.8851 14.0361H22.8559L25.6775 21.8154ZM31.825 10.9821H33.7221V12.7015H31.825V10.9821ZM31.825 14.0361H33.7702V21.8154H31.825V14.0361ZM39.5094 13.8557C36.94 13.8557 35.307 15.7194 35.4031 17.9317C35.4991 20.1441 37.036 21.9957 39.5935 21.9957C40.1834 22.0094 40.7698 21.9024 41.3169 21.6812C41.8641 21.46 42.3603 21.1292 42.7753 20.7092L42.0309 19.3385C41.4045 19.9304 40.586 20.2762 39.7256 20.3124H39.5455C38.9265 20.2874 38.3426 20.0177 37.9218 19.5625C37.501 19.1073 37.2774 18.5036 37.3002 17.8837V17.7153C37.319 17.1104 37.5755 16.5374 38.014 16.1209C38.4524 15.7044 39.0373 15.478 39.6415 15.4909C40.4003 15.5023 41.1261 15.8034 41.6707 16.3326L42.5111 15.01C42.1178 14.62 41.648 14.3161 41.1313 14.1174C40.6146 13.9187 40.0623 13.8296 39.5094 13.8557ZM47.554 13.8557C49.7993 13.8557 51 15.4909 51 17.535C51 17.7514 50.952 18.2804 50.952 18.2804H45.6089C45.6491 18.8652 45.9169 19.4109 46.3548 19.7999C46.7927 20.189 47.3656 20.3903 47.9503 20.3605C48.7682 20.322 49.5534 20.0277 50.1955 19.5189L50.952 20.8896C50.068 21.6126 48.9596 22.0039 47.8182 21.9957C47.2961 22.02 46.7745 21.9408 46.283 21.7629C45.7915 21.585 45.3399 21.3118 44.9541 20.9589C44.5682 20.6059 44.2556 20.1803 44.0342 19.7062C43.8128 19.2322 43.6869 18.7191 43.6638 18.1963V17.9317C43.6158 15.539 45.2487 13.8557 47.554 13.8557ZM49.0549 16.9578C49.0069 15.8877 48.3465 15.3226 47.506 15.3226C47.0473 15.311 46.6011 15.4728 46.2562 15.7759C45.9113 16.0789 45.6931 16.5009 45.6449 16.9578H49.0549Z" fill="url(#paint0_linear_2611_113)"/>
<defs>
<linearGradient id="paint0_linear_2611_113" x1="29.6182" y1="21.9905" x2="23.9954" y2="2.01606" gradientUnits="userSpaceOnUse">
<stop stop-color="#0B0F38"/>
<stop offset="0.17" stop-color="#0F133D"/>
<stop offset="0.37" stop-color="#191F4C"/>
<stop offset="0.6" stop-color="#2B3365"/>
<stop offset="0.84" stop-color="#434F88"/>
<stop offset="1" stop-color="#5765A4"/>
</linearGradient>
</defs>
</svg>
