<svg xmlns="http://www.w3.org/2000/svg" width="110" height="24" viewBox="0 0 110 24" fill="none"><rect width="110" height="24" fill="none"/>
<path d="M8.65025 10.4793L12.5738 16.3179H10.3772L6.99904 11.3379H5.37815V16.3179H3.45427V7.09163H2L2.96951 5.23389H5.37815V9.62064H6.99904L10.2105 5.23389H12.392L8.65025 10.4793ZM11.983 12.3214C11.983 11.4576 12.1748 10.703 12.5586 10.0578C12.9323 9.45411 13.4423 8.99101 14.0886 8.66836C14.735 8.34572 15.4318 8.18442 16.1791 8.18442C16.9467 8.18442 17.6385 8.34053 18.2545 8.65276C18.9009 8.97541 19.4109 9.45411 19.7845 10.089C20.1582 10.7134 20.345 11.4576 20.345 12.3214C20.345 13.1956 20.1582 13.9502 19.7845 14.585C19.4109 15.2095 18.9009 15.6934 18.2545 16.0369C17.6182 16.3699 16.9265 16.5364 16.1791 16.5364C15.4419 16.5364 14.7501 16.3699 14.1038 16.0369C13.4474 15.7039 12.9272 15.2199 12.5435 14.585C12.1698 13.9397 11.983 13.1852 11.983 12.3214ZM44.6586 8.43422H46.3704V9.51135C46.633 9.09507 46.9814 8.77766 47.4157 8.55907C47.86 8.33011 48.4306 8.21563 49.1274 8.21563C49.8445 8.21563 50.4808 8.38217 51.0362 8.71518C51.5714 9.05862 51.9855 9.5478 52.2784 10.1827C52.5813 10.8071 52.7328 11.5252 52.7328 12.337C52.7328 13.1592 52.5813 13.8877 52.2784 14.5226C51.9855 15.147 51.5714 15.631 51.0362 15.9744C50.7837 16.1513 50.4858 16.2814 50.1424 16.3647C49.8092 16.4584 49.4708 16.5052 49.1274 16.5052C48.5316 16.5052 48.0873 16.4584 47.7944 16.3647C47.1885 16.1774 46.7592 15.8651 46.5067 15.428V19.1123H44.6586V8.43422ZM21.3297 8.43422H23.1627V11.4316H26.2985V8.43422H28.1163V16.3179H26.2985V12.9927H23.1627V16.3179H21.3297V8.43422ZM28.9192 8.43422H35.9633V9.93287H33.3577V16.3179H31.4944V9.93287H28.9192V8.43422ZM38.4931 8.43422C39.1798 10.37 39.806 12.285 40.3716 14.1791C40.9068 12.3058 41.5127 10.3908 42.1894 8.43422H44.0375L41.2199 16.474C40.9876 17.1297 40.7654 17.6344 40.5533 17.9883C40.321 18.3422 40.0332 18.6075 39.6898 18.7845C39.3566 18.9718 38.9122 19.0655 38.3568 19.0655C38.0437 19.0655 37.872 19.0602 37.8417 19.0499L37.2206 17.5512C37.4125 17.5928 37.6498 17.6136 37.9326 17.6136C38.276 17.6136 38.5537 17.5616 38.7658 17.4575C38.9577 17.3742 39.1041 17.2597 39.2051 17.114C39.3061 16.9788 39.3919 16.807 39.4626 16.5989L36.5541 8.43422H38.4931ZM13.8462 12.3058C13.8462 13.1696 14.0482 13.8305 14.4522 14.2884C14.8562 14.736 15.4167 14.9597 16.1337 14.9597C16.8608 14.9597 17.4264 14.736 17.8304 14.2884C18.2444 13.8305 18.4514 13.1696 18.4514 12.3058C18.4514 11.4628 18.2494 10.8279 17.8455 10.4012C17.4415 9.96408 16.8709 9.74555 16.1337 9.74555C15.4066 9.74555 14.841 9.96408 14.437 10.4012C14.0432 10.8279 13.8462 11.4628 13.8462 12.3058ZM46.4613 12.3214C46.4815 13.1019 46.6835 13.7264 47.0673 14.1947C47.451 14.6631 47.9913 14.8973 48.6881 14.8973C49.385 14.8973 49.9202 14.6631 50.2939 14.1947C50.6777 13.7264 50.8746 13.1019 50.8847 12.3214C50.8746 11.5512 50.6777 10.9372 50.2939 10.4793C49.9202 10.011 49.385 9.77676 48.6881 9.77676C47.9913 9.77676 47.451 10.0057 47.0673 10.4636C46.6835 10.9216 46.4815 11.5408 46.4613 12.3214Z" fill="white"/>
<path d="M59.3482 11.2655H57.4644V16.2029H56.0669V5.41658H57.4644V10.1109H59.3482L62.8877 5.41658H64.4678L60.5028 10.6731L64.6805 16.2029H63.1004L59.3482 11.2655ZM72.7058 12.3746C72.7058 13.1645 72.5386 13.8634 72.2041 14.4711C71.8598 15.0888 71.384 15.5699 70.7759 15.9143C70.1685 16.2485 69.4749 16.4156 68.6948 16.4156C67.9047 16.4156 67.2112 16.2435 66.6136 15.8991C65.9957 15.5649 65.5149 15.0939 65.1701 14.4863C64.8362 13.8786 64.669 13.1747 64.669 12.3746V12.3138C64.669 11.5339 64.8411 10.8452 65.1854 10.2477C65.5199 9.63998 65.9908 9.16903 66.5983 8.83482C67.2063 8.49046 67.9047 8.31826 68.6948 8.31826C69.4749 8.31826 70.1685 8.48536 70.7759 8.81958C71.384 9.15385 71.8549 9.6248 72.1888 10.2325C72.5336 10.8402 72.7058 11.5339 72.7058 12.3138V12.3746ZM66.0061 12.3746C66.0061 12.962 66.1174 13.4734 66.34 13.9089C66.5632 14.3647 66.8768 14.7141 67.2819 14.9572C67.6871 15.2002 68.158 15.3218 68.6948 15.3218C69.2315 15.3218 69.7025 15.1952 70.1076 14.942C70.5128 14.6989 70.822 14.3546 71.0347 13.9089C71.2573 13.4633 71.3686 12.9519 71.3686 12.3746V12.3138C71.3686 11.7365 71.2573 11.2301 71.0347 10.7945C70.8116 10.3591 70.4925 10.0198 70.0775 9.77672C69.6723 9.53362 69.2112 9.41207 68.6948 9.41207C68.1783 9.41207 67.7172 9.52858 67.3126 9.76153C66.9075 10.0046 66.5884 10.3489 66.3554 10.7945C66.1224 11.2402 66.0061 11.7466 66.0061 12.3138V12.3746ZM82.747 8.53098V16.2029H81.5316V9.68554L79.0096 16.2029H77.8248L75.3029 9.70073V16.2029H74.0874V8.53098H76.0167L78.4169 14.7293L80.8024 8.53098H82.747ZM84.6654 8.53098H91.0311V16.2029H89.7246V9.59437H85.9718V16.2029H84.6654V8.53098ZM97.9424 16.2029V15.1699C97.6694 15.575 97.3048 15.889 96.8486 16.1118C96.393 16.3245 95.8662 16.4309 95.2686 16.4309C94.4182 16.4309 93.7494 16.2384 93.2636 15.8535C92.7872 15.4687 92.5492 14.9268 92.5492 14.228V14.152C92.5492 13.3823 92.8179 12.7999 93.3546 12.4049C93.9012 11.9998 94.7422 11.7669 95.8766 11.7061L97.8815 11.5694V11.0528C97.8815 10.5059 97.7247 10.0957 97.4106 9.82228C97.097 9.53867 96.6414 9.39689 96.0438 9.39689C95.5471 9.39689 95.0964 9.4982 94.6913 9.70073C94.2965 9.89316 93.8914 10.2173 93.4763 10.6731L92.6408 9.91345C93.5218 8.85001 94.6457 8.31826 96.0131 8.31826C96.9956 8.31826 97.7604 8.55121 98.307 9.01711C98.8541 9.48296 99.1277 10.1312 99.1277 10.9617V16.2029H97.9424ZM95.9676 12.6328C95.1776 12.6733 94.6205 12.805 94.2965 13.0278C93.9725 13.2506 93.8102 13.6051 93.8102 14.0912V14.1672C93.8102 14.5622 93.9572 14.866 94.251 15.0788C94.5547 15.2914 94.9802 15.3978 95.5268 15.3978C95.9627 15.3978 96.3623 15.3117 96.7275 15.1395C97.0921 14.9674 97.3755 14.7293 97.5778 14.4255C97.7807 14.1115 97.8815 13.757 97.8815 13.362V12.5417L95.9676 12.6328ZM104.525 16.4156C103.735 16.4156 103.041 16.2536 102.444 15.9295C101.826 15.5953 101.35 15.1345 101.015 14.547C100.681 13.9596 100.514 13.281 100.514 12.5113V12.3289C100.514 11.5289 100.686 10.83 101.031 10.2325C101.365 9.6248 101.836 9.15385 102.444 8.81958C103.051 8.48536 103.74 8.31826 104.51 8.31826C105.229 8.31826 105.847 8.42966 106.363 8.65247C106.879 8.86519 107.345 9.22474 107.761 9.7311L106.94 10.5363C106.586 10.1211 106.216 9.83242 105.831 9.67035C105.457 9.4982 105.011 9.41207 104.495 9.41207C103.927 9.41207 103.451 9.53867 103.066 9.7919C102.681 10.0451 102.383 10.3996 102.17 10.8553C101.957 11.3111 101.851 11.8023 101.851 12.3289V12.5113C101.851 13.0177 101.957 13.4785 102.17 13.8938C102.383 14.3292 102.692 14.6736 103.097 14.9268C103.502 15.18 103.978 15.3066 104.525 15.3066C104.849 15.3066 105.158 15.2661 105.452 15.1851C105.725 15.104 105.978 14.9825 106.211 14.8205C106.444 14.6584 106.707 14.4103 107.001 14.0761L107.852 14.7901C107.406 15.3674 106.92 15.7827 106.394 16.0358C105.877 16.289 105.254 16.4156 104.525 16.4156Z" fill="white"/>
</svg>
