<svg xmlns="http://www.w3.org/2000/svg" width="88" height="24" viewBox="0 0 88 24" fill="none"><rect width="88" height="24" fill="none"/>
<path fill-rule="evenodd" clip-rule="evenodd" d="M19.6348 11.9999C19.6348 10.2798 19.0621 8.68971 18.1016 7.41336L19.9922 5.99066C21.2491 7.66086 22.0009 9.74656 22.0009 11.9999C22.0009 17.5195 17.5201 22.0002 12.0004 22.0002V19.6342C16.2134 19.6342 19.6348 16.2128 19.6348 11.9999Z" fill="url(#paint0_linear_5543_55)"/>
<path fill-rule="evenodd" clip-rule="evenodd" d="M12.0004 4.36608C7.78751 4.36608 4.36609 7.78749 4.36609 12.0004C4.36609 13.7205 4.93876 15.3105 5.89926 16.5869L4.00868 18.0096C2.7518 16.3394 2 14.2537 2 12.0004C2 6.48073 6.48076 2 12.0004 2V4.36608Z" fill="url(#paint1_linear_5543_55)"/>
<path d="M20.0961 6.12924C20.0886 6.1218 20.0886 6.11436 20.0812 6.10692C20.044 6.06227 20.0142 6.01019 19.9771 5.96555C18.0647 3.44311 15.1553 2 12.0004 2V4.36608C13.8085 4.36608 15.5051 4.98336 16.8518 6.10692H8.28001V8.4731H14.2848L3.90479 17.8708C3.91223 17.8783 3.91223 17.8857 3.91967 17.8931C5.8022 20.4677 8.80831 22.0005 11.9929 22.0005V19.6343C10.2072 19.6343 8.50323 19.0019 7.149 17.8931H15.7134V15.5269H9.9914L20.0961 6.12924Z" fill="white"/>
<path d="M78.6841 8.0224L83.5237 13.3703V8.0224H85.3371V15.9661H83.603L78.7634 10.6072V15.9661H76.9614V8.0224H78.6841Z" fill="white"/>
<path d="M73.3459 8.0224V9.64903H67.0102V11.1197H72.7905V12.7352H67.0102V14.3172H73.5499V15.9661H65.1855V8.0224H73.3459Z" fill="white"/>
<path d="M61.4567 8.05577H53.9197V9.63784H59.0766L53.9197 14.2281V15.9215H61.4567V14.3506H56.1638L61.4567 9.493V8.05577Z" fill="white"/>
<path d="M46.734 16.1669C44.2746 16.1669 42.2005 14.4957 42.2005 12C42.2005 9.50439 44.2746 7.83319 46.734 7.83319C49.1934 7.83319 51.2675 9.50439 51.2675 12C51.2675 14.4957 49.1934 16.1669 46.734 16.1669ZM46.734 14.6294C48.2527 14.6294 49.4428 13.6378 49.4428 12C49.4428 10.3623 48.2641 9.37069 46.734 9.37069C45.2153 9.37069 44.0252 10.3623 44.0252 12C44.0252 13.6378 45.2153 14.6294 46.734 14.6294Z" fill="white"/>
<path d="M31.1046 8.0224L33.9381 13.7825H34.0061L36.9529 8.0224H39.2877V15.9661H37.5083V10.4066H37.4176L34.6861 15.9661H33.1561L30.5266 10.4066H30.4359V15.9661H28.6679V8.0224H31.1046Z" fill="white"/>
<defs>
<linearGradient id="paint0_linear_5543_55" x1="43.6678" y1="22.0029" x2="43.6678" y2="1.99809" gradientUnits="userSpaceOnUse">
<stop stop-color="#418DFB"/>
<stop offset="1" stop-color="#26F971"/>
</linearGradient>
<linearGradient id="paint1_linear_5543_55" x1="43.6681" y1="22.0042" x2="43.6681" y2="2.00234" gradientUnits="userSpaceOnUse">
<stop stop-color="#FEE60C"/>
<stop offset="0.0271898" stop-color="#FEE10F"/>
<stop offset="1" stop-color="#FD3172"/>
</linearGradient>
</defs>
</svg>
