<svg xmlns="http://www.w3.org/2000/svg" width="24" height="24" viewBox="0 0 24 24" fill="none"><rect width="24" height="24" fill="none"/>
<path d="M13.2243 2.0371V12.3525C13.2243 12.8349 12.8539 13.1688 12.4095 13.1688H11.1873C11.1132 13.1688 11.0762 13.243 11.0762 13.2801V21.9258C11.3724 21.9258 11.6687 22 12.0021 22C17.5205 22 22.0018 17.5102 22.0018 11.9814C22.0018 6.89796 18.1871 2.63079 13.2243 2.0371ZM13.002 17.4731C12.2984 17.4731 11.7798 16.8794 11.7798 16.2486C11.7798 15.5436 12.3724 15.0241 13.002 15.0241C13.7057 15.0241 14.2242 15.6178 14.2242 16.2486C14.2983 16.9165 13.7057 17.4731 13.002 17.4731ZM15.9279 17.4731C15.2242 17.4731 14.7057 16.8794 14.7057 16.2486C14.7057 15.5436 15.2983 15.0241 15.9279 15.0241C16.6316 15.0241 17.1501 15.6178 17.1501 16.2486C17.1501 16.8794 16.6686 17.4731 15.9279 17.4731ZM18.8908 17.4731C18.1871 17.4731 17.6686 16.8794 17.6686 16.2486C17.6686 15.5436 18.2612 15.0241 18.8908 15.0241C19.5945 15.0241 20.113 15.6178 20.113 16.2486C20.113 16.8794 19.5945 17.4731 18.8908 17.4731Z" fill="white"/>
<path d="M12.0007 2C6.48236 2 2.00098 6.4898 2.00098 12.0186C2.00098 16.8794 5.37127 20.8497 9.88969 21.7774V12.7607C9.88969 12.3525 10.26 12.0186 10.6304 11.9443H11.8526C11.9267 11.9443 11.9637 11.8701 11.9637 11.833L12.0007 2ZM10.0749 10.2375C9.37118 10.2375 8.85267 9.64378 8.85267 9.01299C8.85267 8.30798 9.44525 7.7885 10.0749 7.7885C10.7786 7.7885 11.2971 8.38219 11.2971 9.01299C11.2971 9.64378 10.7415 10.2375 10.0749 10.2375Z" fill="white"/>
</svg>
