<svg xmlns="http://www.w3.org/2000/svg" width="116" height="24" viewBox="0 0 116 24" fill="none"><rect width="116" height="24" fill="none"/>
<path d="M50.7609 18.2433C53.1702 18.2433 54.8689 17.0473 54.8689 14.638C54.8689 13.0087 54.0022 12.0727 52.5809 11.7607C53.7075 11.3967 54.5049 10.5647 54.5049 9.00473C54.5049 6.99409 53.2049 5.8501 50.8996 5.8501C49.4609 5.8501 48.3169 6.24876 47.7103 6.64742V8.32874C48.4556 7.91274 49.5823 7.47942 50.6916 7.47942C51.7836 7.47942 52.4249 8.01674 52.4249 9.26473C52.4249 10.4261 51.7662 11.0674 50.5702 11.0674H49.1143V12.6967H50.6569C52.0782 12.6967 52.7369 13.2514 52.7369 14.5687C52.7369 15.9553 51.9569 16.614 50.4836 16.614C49.2876 16.614 48.2996 16.1807 47.5196 15.678V17.3593C48.1089 17.7753 49.2009 18.2433 50.7609 18.2433Z" fill="#000000"/>
<path d="M62.8131 12.1247C62.8131 10.0101 61.7385 9.21273 59.5545 9.21273C58.1852 9.21273 57.1105 9.64606 56.4865 10.0101V11.726C57.0412 11.31 58.2545 10.8594 59.3118 10.8594C60.2998 10.8594 60.7505 11.206 60.7505 12.142V12.6274H60.4212C57.2665 12.6274 55.8625 13.6674 55.8625 15.4353C55.8625 17.2033 56.9372 18.1913 58.5319 18.1913C59.7452 18.1913 60.2652 17.7927 60.6638 17.3767H60.7505C60.7678 17.602 60.8372 17.8966 60.9065 18.07H62.9171C62.8478 17.3593 62.8131 16.6487 62.8131 15.938V12.1247ZM60.7505 15.99C60.4905 16.3713 60.0052 16.6833 59.2772 16.6833C58.4105 16.6833 57.9772 16.1633 57.9772 15.3833C57.9772 14.3607 58.6878 13.9967 60.4558 13.9967H60.7505V15.99Z" fill="#000000"/>
<path d="M64.4716 9.3514V18.07H66.5342V10.9807H69.2035V18.07H71.2662V9.3514H64.4716Z" fill="#000000"/>
<path d="M74.9094 9.3514H73.0027V20.5833H75.0654V17.0473C75.5854 17.8273 76.348 18.2433 77.232 18.2433C79.2427 18.2433 80.6293 16.6313 80.6293 13.702C80.6293 10.7901 79.2774 9.17807 77.336 9.17807C76.3654 9.17807 75.5681 9.62873 75.0134 10.4781L74.9094 9.3514ZM76.712 16.614C75.6201 16.614 75.0654 15.73 75.0654 13.7194C75.0654 11.6914 75.6547 10.8074 76.816 10.8074C77.9427 10.8074 78.4974 11.6914 78.4974 13.702C78.4974 15.73 77.908 16.614 76.712 16.614Z" fill="#000000"/>
<path d="M88.4405 12.1247C88.4405 10.0101 87.3659 9.21273 85.1819 9.21273C83.8126 9.21273 82.7379 9.64606 82.1139 10.0101V11.726C82.6686 11.31 83.8819 10.8594 84.9392 10.8594C85.9272 10.8594 86.3779 11.206 86.3779 12.142V12.6274H86.0485C82.8939 12.6274 81.4899 13.6674 81.4899 15.4353C81.4899 17.2033 82.5646 18.1913 84.1592 18.1913C85.3725 18.1913 85.8925 17.7927 86.2912 17.3767H86.3779C86.3952 17.602 86.4645 17.8966 86.5339 18.07H88.5445C88.4752 17.3593 88.4405 16.6487 88.4405 15.938V12.1247ZM86.3779 15.99C86.1179 16.3713 85.6325 16.6833 84.9045 16.6833C84.0379 16.6833 83.6046 16.1633 83.6046 15.3833C83.6046 14.3607 84.3152 13.9967 86.0832 13.9967H86.3779V15.99Z" fill="#000000"/>
<path d="M93.5309 18.07C95.5762 18.07 96.7895 17.2033 96.7895 15.5393C96.7895 14.3953 96.0962 13.7367 94.9349 13.5287C95.8709 13.2687 96.4602 12.61 96.4602 11.57C96.4602 10.0794 95.4722 9.3514 93.5656 9.3514H90.0989V18.07H93.5309ZM93.2709 10.9114C94.0162 10.9114 94.4322 11.2234 94.4322 11.882C94.4322 12.4887 93.9816 12.8527 93.2016 12.8527H92.1616V10.9114H93.2709ZM93.3056 14.3607C94.1896 14.3607 94.6576 14.6727 94.6576 15.4007C94.6576 16.198 94.1376 16.51 93.3056 16.51H92.1616V14.3607H93.3056Z" fill="#000000"/>
<path d="M103.286 18.07H105.626L102.316 13.3727L105.228 9.3514H103.148L100.236 13.3727V9.3514H98.1731V18.07H100.236V13.7887L103.286 18.07Z" fill="#000000"/>
<path d="M106.416 9.3514V18.07H108.202L111.391 12.6794V18.07H113.402V9.3514H111.616L108.427 14.742V9.3514H106.416Z" fill="#000000"/>
<path fill-rule="evenodd" clip-rule="evenodd" d="M33.6667 2C28.1438 2 23.6667 6.47715 23.6667 12C23.6667 15.5854 25.5536 18.7301 28.3885 20.4952V11.9998H31.306V21.7197C32.0629 21.9029 32.8535 22 33.6667 22C39.1895 22 43.6667 17.5228 43.6667 12C43.6667 6.47715 39.1895 2 33.6667 2Z" fill="#000000"/>
<path d="M31.306 11.9998H28.3885V20.4952C29.2775 21.0487 30.2596 21.4665 31.306 21.7197V11.9998Z" fill="#000000"/>
<path fill-rule="evenodd" clip-rule="evenodd" d="M33.6663 6.72205H40.8802V9.63952H38.3871C37.5192 7.91109 35.7287 6.72205 33.6663 6.72205Z" fill="#000000"/>
<path fill-rule="evenodd" clip-rule="evenodd" d="M33.6663 6.72205H40.8802V9.63952H38.3871C37.5192 7.91109 35.7287 6.72205 33.6663 6.72205Z" fill="#000000" fill-opacity="0.5"/>
<path fill-rule="evenodd" clip-rule="evenodd" d="M31.3059 16.7201C32.0167 17.0771 32.8188 17.2782 33.667 17.2782C36.5771 17.2782 38.9449 14.91 38.9449 12C38.9449 9.0899 36.5767 6.72205 33.6663 6.72205C30.7558 6.72205 28.3885 9.0894 28.3885 11.9998H31.306L31.3059 16.7201ZM31.306 11.9998C31.3068 11.3739 31.5556 10.7739 31.9983 10.3313C32.4409 9.88875 33.0411 9.63983 33.667 9.63918C34.2929 9.63993 34.8929 9.88889 35.3355 10.3315C35.7781 10.774 36.0271 11.3741 36.0278 12C36.0271 12.6259 35.7782 13.2261 35.3356 13.6687C34.8931 14.1114 34.293 14.3604 33.667 14.3611C33.041 14.3605 32.4408 14.1115 31.9982 13.6688C31.5555 13.2262 31.3067 12.6258 31.306 11.9998Z" fill="#000000"/>
<path d="M33.667 17.2782V14.3611C33.041 14.3605 32.4408 14.1115 31.9982 13.6688C31.5555 13.2262 31.3067 12.6258 31.306 11.9998L31.3058 16.7189C32.0369 17.085 32.8451 17.2775 33.667 17.2782Z" fill="#000000"/>
<path d="M33.667 17.2782V14.3611C33.041 14.3605 32.4408 14.1115 31.9982 13.6688C31.5555 13.2262 31.3067 12.6258 31.306 11.9998L31.3058 16.7189C32.0369 17.085 32.8451 17.2775 33.667 17.2782Z" fill="#000000" fill-opacity="0.4"/>
<path fill-rule="evenodd" clip-rule="evenodd" d="M22 12C22 17.5228 17.5228 22 12 22C6.47715 22 2 17.5228 2 12C2 6.47715 6.47715 2 12 2C17.5228 2 22 6.47715 22 12ZM12.4624 7.60037H13.4744V18.01H15.4985V6.01001H12.4624C9.42623 6.01001 7.83587 7.60037 7.83587 9.91362C7.83587 11.7931 8.70334 12.8052 10.2937 13.9618L7.54671 18.01H9.85997L12.7515 13.5281L11.7395 12.8052C10.4383 11.9377 9.85997 11.2148 9.85997 9.76905C9.85997 8.46784 10.7274 7.60037 12.4624 7.60037Z" fill="#000000"/>
<path d="M13.4744 7.60037H12.4624C10.7274 7.60037 9.85997 8.46784 9.85997 9.76905C9.85997 11.2148 10.4383 11.9377 11.7395 12.8052L12.7515 13.5281L9.85997 18.01H7.54671L10.2937 13.9618C8.70334 12.8052 7.83587 11.7931 7.83587 9.91362C7.83587 7.60037 9.42623 6.01001 12.4624 6.01001H15.4985V18.01H13.4744V7.60037Z" fill="#000000"/>
<defs>
<linearGradient id="paint0_linear_2632_117" x1="36.4266" y1="14.0001" x2="36.4266" y2="21.719" gradientUnits="userSpaceOnUse">
<stop/>
<stop offset="1" stop-color="#636363"/>
</linearGradient>
<linearGradient id="paint1_linear_2632_117" x1="57.7009" y1="2" x2="57.7009" y2="22" gradientUnits="userSpaceOnUse">
<stop/>
<stop offset="0.78125" stop-color="#636363"/>
</linearGradient>
<linearGradient id="paint2_linear_2632_117" x1="33.3466" y1="25.8573" x2="37.3379" y2="-0.190345" gradientUnits="userSpaceOnUse">
<stop/>
<stop offset="1" stop-opacity="0"/>
</linearGradient>
<linearGradient id="paint3_linear_2632_117" x1="33.6573" y1="15.7232" x2="31.2507" y2="15.4089" gradientUnits="userSpaceOnUse">
<stop/>
<stop offset="1" stop-color="#636363"/>
</linearGradient>
<linearGradient id="paint4_linear_2632_117" x1="31.5218" y1="17.2754" x2="33.204" y2="17.3247" gradientUnits="userSpaceOnUse">
<stop/>
<stop offset="1" stop-opacity="0"/>
</linearGradient>
</defs>
</svg>
