<svg xmlns="http://www.w3.org/2000/svg" width="139" height="24" viewBox="0 0 139 24" fill="none"><rect width="139" height="24" fill="none"/>
<path fill-rule="evenodd" clip-rule="evenodd" d="M87.166 12C87.166 17.5229 82.6888 22 77.166 22C71.6432 22 67.166 17.5229 67.166 12C67.166 6.47715 71.6432 2 77.166 2C78.245 2 79.2842 2.17091 80.2578 2.48713L77.9787 9.5H71.3227L70.5093 12H77.1662L75.2162 18H77.9662L79.9162 12H87.166ZM86.851 9.5H80.7287L82.637 3.62798C82.8147 3.74432 82.9884 3.86615 83.158 3.99325C83.1871 4.01508 83.2161 4.03706 83.245 4.05919C83.3403 4.1323 83.4343 4.20709 83.5269 4.28351C85.1318 5.608 86.3166 7.42348 86.851 9.5Z" fill="white"/>
<path fill-rule="evenodd" clip-rule="evenodd" d="M87.166 12C87.166 17.5229 82.6888 22 77.166 22C71.6432 22 67.166 17.5229 67.166 12C67.166 6.47715 71.6432 2 77.166 2C78.245 2 79.2842 2.17091 80.2578 2.48713L77.9787 9.5H71.3227L70.5093 12H77.1662L75.2162 18H77.9662L79.9162 12H87.166ZM86.851 9.5H80.7287L82.637 3.62798C82.8147 3.74432 82.9884 3.86615 83.158 3.99325C83.1871 4.01508 83.2161 4.03706 83.245 4.05919C83.3403 4.1323 83.4343 4.20709 83.5269 4.28351C85.1318 5.608 86.3166 7.42348 86.851 9.5Z" fill="white"/>
<path d="M12 19.5002V4.43359H8.18333C4.35 4.43359 2.33333 6.40026 2.33333 9.31693C2.33333 11.6336 3.43333 13.0003 5.41667 14.4003L2 19.5002H4.83333L8.65 13.8003L7.33333 12.9169C5.71667 11.8336 4.93333 10.9836 4.93333 9.16693C4.93333 7.56693 6.06667 6.48359 8.2 6.48359H9.36667V19.5002H12ZM59.9333 19.7169C61.1167 19.7169 61.9667 19.5002 62.6 19.0502V16.9503C61.95 17.4003 61.1667 17.6836 60.0833 17.6836C58.2333 17.6836 57.4833 16.2503 57.4833 14.0003C57.4833 11.6336 58.4167 10.4169 60.1 10.4169C61.1 10.4169 62.0667 10.7669 62.5833 11.0836V8.90026C62.05 8.60026 61.0833 8.38359 59.8167 8.38359C56.5167 8.38359 54.8167 10.7503 54.8167 14.0669C54.8167 17.7003 56.4833 19.7169 59.9333 19.7169ZM43.8167 18.7669V16.6669C43.0167 17.2003 41.6667 17.6836 40.4167 17.6836C38.5333 17.6836 37.8167 16.8003 37.7167 14.9836H43.9333V13.6169C43.9333 9.81693 42.2667 8.40026 39.6833 8.40026C36.5333 8.38359 35.0333 10.7836 35.0333 14.0836C35.0333 17.8836 36.9 19.7169 40.1833 19.7169C41.8333 19.7169 43.05 19.2836 43.8167 18.7669ZM20.2 8.60026V12.9169H16.75V8.60026H14.1667V19.5002H16.75V14.9503H20.2V19.5002H22.7833V8.60026H20.2ZM34.4 17.4669H33.25V8.60026H25.7333V9.53359C25.7333 12.2003 25.5667 15.6503 24.65 17.4669H23.85V22.0002H26.2333V19.5002H32.0167V21.9836H34.4V17.4669ZM52.05 19.5002H54.9667L50.8333 13.6336L54.4667 8.60026H51.8667L48.2333 13.6336V8.60026H45.65V19.5002H48.2333V14.1503L52.05 19.5002ZM39.6333 10.4169C40.9167 10.4169 41.3 11.4836 41.3 12.8503V13.0669H37.7C37.7667 11.3336 38.4 10.4169 39.6333 10.4169ZM30.6833 17.4669H27.0333C27.75 15.8169 27.95 12.8503 27.95 10.9669V10.6503H30.6833V17.4669Z" fill="white"/>
<path d="M102.09 4.44189H92.1667V19.5002H94.7883V6.47856H99.4683V19.5002H102.09V4.44189Z" fill="white"/>
<path d="M103.247 17.2685L103.399 17.3769C103.5 17.4347 103.644 17.4635 103.832 17.4635C104.251 17.4635 104.525 17.2469 104.655 16.8135C104.785 16.3802 104.872 15.5858 104.915 14.4302L105.132 8.60188H112.52V19.5002H109.942V10.6385H107.32L107.169 14.5385C107.125 15.7374 107.017 16.7197 106.844 17.4852C106.67 18.2508 106.381 18.8141 105.977 19.1752C105.573 19.5362 105.002 19.7169 104.265 19.7169C103.962 19.7169 103.716 19.6807 103.529 19.6086L103.247 19.5002V17.2685Z" fill="white"/>
<path d="M134.502 19.7169C132.783 19.7169 131.497 19.2329 130.645 18.2652C129.807 17.283 129.388 15.8819 129.388 14.0619C129.388 12.9497 129.576 11.9674 129.952 11.1152C130.327 10.263 130.883 9.59854 131.62 9.12188C132.371 8.63076 133.296 8.38521 134.393 8.38521C135.029 8.38521 135.578 8.43576 136.04 8.53688C136.517 8.62354 136.892 8.74633 137.167 8.90521V11.0935C136.907 10.9347 136.553 10.783 136.105 10.6385C135.657 10.4941 135.181 10.4219 134.675 10.4219C133.837 10.4219 133.187 10.7252 132.725 11.3319C132.277 11.9241 132.053 12.8124 132.053 13.9969C132.053 15.1235 132.256 16.0191 132.66 16.6835C133.064 17.348 133.729 17.6802 134.653 17.6802C135.202 17.6802 135.679 17.6152 136.083 17.4852C136.488 17.3552 136.849 17.1747 137.167 16.9435V19.0452C136.546 19.4929 135.657 19.7169 134.502 19.7169Z" fill="white"/>
<path fill-rule="evenodd" clip-rule="evenodd" d="M126.735 9.85854C125.868 8.87633 124.742 8.38521 123.355 8.38521C122.127 8.38521 121.094 8.77521 120.257 9.55521C119.419 10.3208 118.906 11.4402 118.718 12.9135H117.245V8.60188H114.667V19.5002H117.245V14.9502H118.697C118.841 16.4958 119.332 17.6802 120.17 18.5035C121.022 19.3124 122.084 19.7169 123.355 19.7169C124.742 19.7169 125.868 19.2329 126.735 18.2652C127.616 17.283 128.057 15.8747 128.057 14.0402C128.057 12.2202 127.616 10.8263 126.735 9.85854ZM124.872 16.8135C124.539 17.3913 124.034 17.6802 123.355 17.6802C122.676 17.6802 122.163 17.3913 121.817 16.8135C121.484 16.2358 121.318 15.3185 121.318 14.0619C121.318 12.7908 121.484 11.8663 121.817 11.2885C122.163 10.7108 122.676 10.4219 123.355 10.4219C124.034 10.4219 124.539 10.7108 124.872 11.2885C125.218 11.8663 125.392 12.7835 125.392 14.0402C125.392 15.3113 125.218 16.2358 124.872 16.8135Z" fill="white"/>
</svg>
