<svg xmlns="http://www.w3.org/2000/svg" width="24" height="24" viewBox="0 0 24 24" fill="none"><rect width="24" height="24" fill="none"/>
<path d="M2 11.6C2 7.07452 2 4.81177 3.40589 3.40589C4.81177 2 7.07452 2 11.6 2H12.4C16.9255 2 19.1882 2 20.5941 3.40589C22 4.81177 22 7.07452 22 11.6V12.4C22 16.9255 22 19.1882 20.5941 20.5941C19.1882 22 16.9255 22 12.4 22H11.6C7.07452 22 4.81177 22 3.40589 20.5941C2 19.1882 2 16.9255 2 12.4V11.6Z" fill="black"/>
<path d="M12.6417 16.4084C8.08333 16.4084 5.48336 13.2834 5.37502 8.0834H7.65835C7.73335 11.9001 9.41665 13.5167 10.75 13.8501V8.0834H12.9V11.3751C14.2167 11.2334 15.5999 9.7334 16.0666 8.0834H18.2166C17.8583 10.1167 16.3583 11.6167 15.2916 12.2334C16.3583 12.7334 18.0667 14.0417 18.7167 16.4084H16.35C15.8416 14.8251 14.575 13.6001 12.9 13.4334V16.4084H12.6417Z" fill="white"/>
</svg>
