<svg xmlns="http://www.w3.org/2000/svg" width="89" height="24" viewBox="0 0 89 24" fill="none"><rect width="89" height="24" fill="none"/>
<path d="M39.5229 15.0699C39.537 15.5463 39.4664 16.0158 39.3041 16.4646C39.1699 16.872 38.9652 17.2517 38.697 17.5969C37.3488 19.3231 34.8994 19.4888 32.8594 19.4957C32.6266 19.4957 32.3865 19.4957 32.1465 19.4957L29.8525 19.4749C29.683 19.5233 29.5136 19.5233 29.3442 19.4819C29.1748 19.4405 29.0266 19.3576 28.8996 19.2402C28.7796 19.1229 28.6878 18.9779 28.6384 18.8121C28.5889 18.6464 28.5889 18.4807 28.6313 18.315V5.84556C28.6242 5.68676 28.6455 5.52105 28.6949 5.36916C28.9277 4.80299 29.7183 4.85132 30.2266 4.83751C30.9819 4.83061 31.7442 4.8306 32.4995 4.8306C33.5442 4.78918 34.5889 4.85822 35.6194 5.04464C36.5229 5.22416 37.3347 5.70057 37.9135 6.39792C38.2876 6.90885 38.5135 7.51644 38.5629 8.14474C38.6406 8.87659 38.4994 9.61539 38.1465 10.2713C37.7935 10.9273 37.2006 11.4244 36.4876 11.6729C36.7417 11.7005 36.9888 11.7627 37.2218 11.8593C37.4547 11.9422 37.6735 12.0527 37.8853 12.1769C38.2382 12.391 38.5559 12.6672 38.8029 12.9917C39.2759 13.5924 39.5229 14.3243 39.5229 15.0699ZM35.5559 8.93872C35.563 8.49687 35.4147 8.0688 35.1394 7.72357C34.843 7.39906 34.4336 7.18502 33.9959 7.12288C33.7136 7.07456 33.4312 7.05384 33.1418 7.06074H31.5959V10.8789H33.3536C33.8406 10.8996 34.3277 10.7823 34.7441 10.5406C35.0054 10.368 35.2171 10.1263 35.3582 9.84326C35.5136 9.56019 35.5771 9.24946 35.5559 8.93872ZM36.3818 15.1735C36.4029 14.9042 36.3676 14.6419 36.2688 14.3864C36.1771 14.1309 36.0288 13.9031 35.8383 13.7097C35.1677 13.1919 34.3206 12.9503 33.4665 13.0193H31.6524V17.162H33.8547C34.2148 17.1896 34.5747 17.1481 34.9136 17.0377C35.2524 16.9272 35.57 16.7477 35.8312 16.5129C36.1771 16.1539 36.3747 15.6706 36.3818 15.1735Z" fill="white"/>
<path d="M50.9333 18.9431C50.9404 19.0191 50.9192 19.0951 50.8769 19.1572C50.7851 19.2539 50.6651 19.3229 50.5451 19.3712C50.4251 19.4195 50.2839 19.4472 50.1498 19.4403C49.7898 19.4817 49.4228 19.4886 49.0628 19.461C48.8793 19.4472 48.7028 19.4127 48.5263 19.3712C48.371 19.3367 48.2369 19.2607 48.124 19.1503C48.0675 19.0951 48.0675 19.0398 48.0675 18.9363V13.1779C48.0746 12.3701 47.9757 11.4311 47.2134 10.9547C46.8816 10.7476 46.4864 10.6647 46.0981 10.7199C45.8016 10.7683 45.5122 10.8857 45.2652 11.0513C44.9899 11.2378 44.7358 11.4518 44.5099 11.6935C44.3405 11.8523 44.1923 12.0249 44.0581 12.2182V18.9431C44.0652 19.0191 44.044 19.0951 44.0017 19.1572C43.9029 19.2607 43.7758 19.3367 43.6346 19.3643C43.4864 19.4057 43.3381 19.4265 43.1829 19.4403C42.9146 19.4679 42.6394 19.4817 42.3711 19.4748C42.1099 19.4748 41.8488 19.4403 41.6017 19.3643C41.4676 19.3229 41.3476 19.2539 41.2558 19.1572C41.1993 19.1019 41.1993 19.0467 41.1993 18.9431V8.83506C41.1923 8.75906 41.2135 8.68312 41.2558 8.62098C41.3335 8.53813 41.4323 8.46909 41.5382 8.42076C41.6441 8.37242 41.7641 8.34481 41.8841 8.34481C42.1523 8.31028 42.4276 8.29648 42.7029 8.31028C42.957 8.31028 43.2181 8.35862 43.4511 8.45528C43.5146 8.4829 43.5711 8.52432 43.6135 8.58646C43.6558 8.66241 43.677 8.75219 43.6699 8.84192V10.0226C44.164 9.46332 44.7569 9.00766 45.4346 8.68312C45.9923 8.38624 46.6134 8.24124 47.2487 8.25505C47.8487 8.23434 48.4487 8.34481 49.0063 8.57956C49.4298 8.78672 49.811 9.08359 50.1145 9.44259C50.4181 9.80166 50.6369 10.2228 50.7569 10.6785C50.9968 11.5416 51.0886 12.4391 51.0321 13.3367L50.9968 15.3735L50.9545 17.6589L50.9333 18.9363C50.9404 18.9293 50.9404 18.9363 50.9333 18.9431Z" fill="white"/>
<path d="M62.1863 9.62912C61.0216 8.69706 59.5605 8.19302 58.057 8.19302C56.5535 8.19302 55.0994 8.70392 53.9347 9.62912C52.8406 10.7615 52.6147 12.3357 52.6147 13.8409C52.6076 15.3461 52.8406 16.9203 53.9347 18.0526C55.0994 18.9847 56.5606 19.4887 58.057 19.4887C59.5605 19.4887 61.0216 18.9778 62.1863 18.0526C63.2804 16.9203 63.5063 15.3461 63.5063 13.8409C63.5134 12.3357 63.2804 10.7615 62.1863 9.62912ZM60.3723 15.3944C60.2805 15.8155 60.0828 16.2091 59.7934 16.5405C59.5817 16.7683 59.3205 16.941 59.0311 17.0515C58.4029 17.2655 57.7253 17.2655 57.097 17.0515C56.8076 16.941 56.5393 16.7683 56.3346 16.5405C56.0523 16.2091 55.8476 15.8225 55.7558 15.3944C55.537 14.3656 55.537 13.3093 55.7558 12.2805C55.8476 11.8593 56.0452 11.4657 56.3346 11.1343C56.5464 10.9065 56.8076 10.7339 57.097 10.6234C57.7253 10.4163 58.4029 10.4163 59.0311 10.6234C59.3205 10.7339 59.5887 10.9065 59.7934 11.1343C60.0758 11.4657 60.2805 11.8524 60.3723 12.2805C60.5911 13.3093 60.5911 14.3656 60.3723 15.3944Z" fill="white"/>
<path d="M85.7899 9.62912C84.6255 8.69706 83.1642 8.19302 81.6674 8.19302C80.1644 8.19302 78.7031 8.70392 77.538 9.62912C76.4439 10.7615 76.2187 12.3357 76.2187 13.8409C76.2112 15.3461 76.4439 16.9203 77.538 18.0526C78.7031 18.9847 80.1644 19.4887 81.6674 19.4887C83.171 19.4887 84.6255 18.9778 85.7899 18.0526C86.884 16.9203 87.11 15.3461 87.11 13.8409C87.1168 12.3357 86.884 10.7615 85.7899 9.62912ZM83.9757 15.3944C83.8843 15.8155 83.6863 16.2091 83.3969 16.5405C83.1853 16.7683 82.9239 16.941 82.6277 17.0515C81.9991 17.2655 81.322 17.2655 80.6934 17.0515C80.3972 16.941 80.1358 16.7683 79.9242 16.5405C79.6416 16.2091 79.4368 15.8225 79.3454 15.3944C79.1263 14.3656 79.1263 13.3093 79.3454 12.2805C79.4368 11.8593 79.6348 11.4657 79.9242 11.1343C80.1358 10.9065 80.3972 10.7339 80.6934 10.6234C81.322 10.4163 81.9991 10.4163 82.6277 10.6234C82.9239 10.7339 83.1853 10.9065 83.3969 11.1343C83.6795 11.4657 83.8843 11.8524 83.9757 12.2805C84.1948 13.3093 84.1948 14.3656 83.9757 15.3944Z" fill="white"/>
<path d="M75.3996 8.64854C75.371 8.57259 75.3218 8.50355 75.2652 8.44831C75.2017 8.39308 75.1239 8.35855 75.0468 8.34474C74.9191 8.31022 74.7785 8.29641 74.6441 8.28951C74.0932 8.24118 73.5431 8.25498 72.9923 8.33784C72.8797 8.35165 72.7664 8.39308 72.6606 8.4414C72.5903 8.48974 72.5336 8.54497 72.4838 8.61402C72.4347 8.68306 72.4067 8.75899 72.3924 8.84186C71.5945 11.4034 70.7973 13.965 69.9994 16.5265C69.2018 13.965 68.4042 11.4034 67.6066 8.84186C67.5925 8.75899 67.5572 8.68306 67.5148 8.61402C67.4654 8.54497 67.4089 8.48974 67.3383 8.4414C67.2324 8.38617 67.1195 8.35165 67.0066 8.33784C66.4631 8.25498 65.9054 8.24118 65.3548 8.28951C65.2207 8.28951 65.0866 8.31022 64.9525 8.34474C64.8749 8.35855 64.7972 8.39998 64.7336 8.44831C64.6702 8.50355 64.6207 8.57259 64.5995 8.64854C64.5642 8.84879 64.5855 9.05592 64.6631 9.24232L67.8536 18.8257C67.8889 18.9638 67.9595 19.095 68.0583 19.1985C68.1712 19.2814 68.3054 19.3297 68.4395 19.3435C69.5195 19.5576 70.628 19.5438 71.7078 19.3159C71.7924 19.2952 71.877 19.2607 71.9473 19.2055C72.0463 19.1019 72.1173 18.9707 72.1521 18.8326C73.2182 15.6359 74.2768 12.446 75.343 9.24926C75.4133 9.04899 75.4344 8.84186 75.3996 8.64854Z" fill="white"/>
<path d="M4.21027 6.91632C5.02127 5.71254 6.10677 4.70838 7.38565 3.98249C8.53353 3.25055 9.84987 2.80291 11.2223 2.66982C11.4407 2.65168 11.659 2.71217 11.84 2.83315C12.0208 2.95414 12.1519 3.13561 12.2143 3.33523C12.6572 4.38778 12.8942 5.51292 12.9192 6.65016C12.9442 8.16244 12.6447 9.66866 12.0333 11.06C12.0146 11.1084 11.9834 11.1507 11.9397 11.181C11.8961 11.2112 11.84 11.2293 11.79 11.2293C11.6403 11.2354 11.4906 11.2657 11.3408 11.2657C8.48362 11.3261 5.7075 13.0139 3.87339 15.0645C3.78605 15.1855 3.66128 15.2762 3.5178 15.3246C3.28073 15.3791 3.18715 15.1673 3.13101 14.9919C2.60074 13.2981 2.53836 11.4955 2.95633 9.76546C3.19963 8.74919 3.62385 7.7874 4.20403 6.91027" fill="#F47119"/>
<path d="M11.6806 21.3257C10.1735 21.253 8.70442 20.8473 7.38166 20.1449C6.12886 19.5515 5.0414 18.6735 4.22105 17.5896C4.09385 17.414 4.03662 17.2021 4.04934 16.9901C4.06842 16.7782 4.16381 16.5783 4.31644 16.4209C5.04776 15.5187 5.94444 14.7497 6.96194 14.1563C8.32285 13.3691 9.84278 12.8665 11.4199 12.6727C11.4771 12.6606 11.528 12.6667 11.5789 12.6909C11.6297 12.7151 11.6742 12.7454 11.6997 12.7938C11.7824 12.9149 11.8841 13.0239 11.9668 13.1511C13.4931 15.5187 16.4502 16.9901 19.2483 17.4927C19.4009 17.5048 19.5472 17.5593 19.668 17.6562C19.8397 17.8257 19.6935 18.0135 19.5599 18.1467C18.2944 19.4485 16.6854 20.4053 14.9048 20.9321C13.8683 21.2348 12.7744 21.3681 11.6806 21.3257Z" fill="#54D39C"/>
<path d="M20.6629 7.51666C21.3597 8.78452 21.7334 10.1847 21.7714 11.6087C21.8727 12.9307 21.6257 14.2587 21.0619 15.4665C20.9669 15.6588 20.8086 15.815 20.6059 15.9051C20.4032 15.9953 20.1751 16.0253 19.9598 15.9773C18.7752 15.8331 17.635 15.4905 16.5835 14.9617C15.1899 14.2467 13.9611 13.2672 12.9919 12.0775C12.9539 12.0414 12.9285 11.9873 12.9222 11.9393C12.9159 11.8852 12.9285 11.8371 12.9539 11.789C13.0236 11.6569 13.0742 11.5247 13.1439 11.3925C14.5058 8.95879 14.3411 5.81013 13.3847 3.27436C13.315 3.14216 13.2959 2.99795 13.3213 2.85373C13.3847 2.62539 13.6317 2.65544 13.8153 2.69149C15.627 3.07006 17.3057 3.89328 18.6802 5.07704C19.4784 5.78008 20.1498 6.60331 20.6629 7.51666Z" fill="#1875F0"/>
</svg>
