<svg xmlns="http://www.w3.org/2000/svg" width="24" height="24" viewBox="0 0 24 24" fill="none"><rect width="24" height="24" fill="none"/>
<path d="M13.265 2.7115C13.9533 3.90402 12.2897 6.15699 9.54796 7.7399C6.80626 9.32475 4.02773 9.64133 3.3394 8.44687C3.31031 8.39054 3.28316 8.32839 3.26377 8.2643C3.08539 7.70882 3.29867 6.9902 3.8125 6.23273C3.89588 6.11426 3.98119 5.99773 4.06844 5.88313C4.84403 4.87125 5.82708 3.99336 6.99821 3.31747C8.16935 2.63963 9.41998 2.22788 10.6822 2.06085C10.8296 2.03949 10.9731 2.02395 11.1127 2.01424C12.024 1.94626 12.7511 2.12106 13.1428 2.55223C13.1893 2.60273 13.23 2.65711 13.265 2.7115Z" fill="black"/>
<path d="M16.3005 19.4455C12.9053 21.4072 9.22324 21.7587 6.87128 20.5837C9.88249 22.3802 13.7488 22.5356 16.9985 20.6575C20.2482 18.7774 22.0476 15.3474 21.999 11.8378C21.8401 14.4637 19.6937 17.4819 16.3005 19.4455Z" fill="black"/>
<path d="M12.1012 12.1622C16.2932 9.73839 18.7189 6.08507 17.5167 4.00107C17.319 3.65924 17.0436 3.37567 16.7043 3.15232C17.924 3.80102 19.0214 4.70998 19.9036 5.85201C20.0529 6.04234 20.1945 6.24239 20.3302 6.44633C20.6889 7.07366 20.8459 7.78257 20.8208 8.53616C20.7335 11.2047 18.3699 14.4346 14.6529 16.5847C10.934 18.7347 6.95718 19.1678 4.60521 17.9073C3.93821 17.55 3.40305 17.0566 3.04047 16.4293C3.03853 16.4254 3.03611 16.4211 3.03368 16.4167C3.03126 16.4123 3.02883 16.4079 3.02689 16.4041C2.92995 16.206 2.83881 16.0059 2.75544 15.8039C2.19508 14.4521 1.95465 13.0285 2.007 11.6281C2.02833 12.0438 2.13497 12.4303 2.33469 12.7779C3.5349 14.8619 7.9092 14.5861 12.1012 12.1622Z" fill="black"/>
<path d="M17.5187 4.00495L17.5167 4.00107L17.5187 4.00495Z" fill="black"/>
</svg>
