<svg xmlns="http://www.w3.org/2000/svg" width="145" height="24" viewBox="0 0 145 24" fill="none"><rect width="145" height="24" fill="none"/>
<path d="M11.4919 10.0216L17.0919 18.1081H13.9568L9.13514 11.2108H6.82163V18.1081H4.07568V5.32973H2L3.38379 2.75676H6.82163V8.83243H9.13514L13.719 2.75676H16.8325L11.4919 10.0216ZM16.2487 12.573C16.2487 11.3766 16.5226 10.3315 17.0703 9.43784C17.6036 8.6018 18.3316 7.96036 19.2541 7.51351C20.1766 7.06667 21.1712 6.84324 22.2379 6.84324C23.3334 6.84324 24.3208 7.05946 25.2 7.49189C26.1226 7.93874 26.8505 8.6018 27.3838 9.48108C27.9172 10.3459 28.1838 11.3766 28.1838 12.573C28.1838 13.7838 27.9172 14.8288 27.3838 15.7081C26.8505 16.573 26.1226 17.2432 25.2 17.7189C24.2919 18.1802 23.3045 18.4108 22.2379 18.4108C21.1856 18.4108 20.1982 18.1802 19.2757 17.7189C18.3388 17.2577 17.5964 16.5874 17.0487 15.7081C16.5154 14.8144 16.2487 13.7694 16.2487 12.573ZM62.8865 7.18919H65.3298V8.68108C65.7045 8.1045 66.2018 7.66487 66.8217 7.36216C67.4559 7.04505 68.2703 6.88649 69.2649 6.88649C70.2883 6.88649 71.1964 7.11712 71.9892 7.57838C72.7532 8.05405 73.3442 8.73153 73.7622 9.61081C74.1946 10.4757 74.4109 11.4703 74.4109 12.5946C74.4109 13.7333 74.1946 14.7423 73.7622 15.6216C73.3442 16.4865 72.7532 17.1568 71.9892 17.6324C71.6289 17.8775 71.2036 18.0577 70.7136 18.173C70.2379 18.3027 69.755 18.3676 69.2649 18.3676C68.4145 18.3676 67.7802 18.3027 67.3622 18.173C66.4973 17.9135 65.8847 17.4811 65.5244 16.8757V21.9784H62.8865V7.18919ZM29.5892 7.18919H32.2054V11.3405H36.6811V7.18919H39.2757V18.1081H36.6811V13.5027H32.2054V18.1081H29.5892V7.18919ZM40.4217 7.18919H50.4757V9.26487H46.7568V18.1081H44.0973V9.26487H40.4217V7.18919ZM54.0865 7.18919C55.0667 9.87027 55.9604 12.5225 56.7676 15.1459C57.5316 12.5514 58.3964 9.8991 59.3622 7.18919H62L57.9784 18.3243C57.6469 19.2324 57.3298 19.9315 57.0271 20.4216C56.6955 20.9117 56.2847 21.2793 55.7946 21.5243C55.319 21.7838 54.6847 21.9135 53.8919 21.9135C53.4451 21.9135 53.2 21.9063 53.1568 21.8919L52.2703 19.8162C52.5442 19.8739 52.8829 19.9027 53.2865 19.9027C53.7766 19.9027 54.173 19.8306 54.4757 19.6865C54.7496 19.5712 54.9586 19.4126 55.1027 19.2108C55.2469 19.0234 55.3694 18.7856 55.4703 18.4973L51.319 7.18919H54.0865ZM18.9081 12.5514C18.9081 13.7477 19.1964 14.6631 19.773 15.2973C20.3496 15.9171 21.1496 16.227 22.173 16.227C23.2109 16.227 24.0181 15.9171 24.5946 15.2973C25.1856 14.6631 25.4811 13.7477 25.4811 12.5514C25.4811 11.3838 25.1928 10.5045 24.6163 9.91351C24.0397 9.30811 23.2253 9.00541 22.173 9.00541C21.1352 9.00541 20.328 9.30811 19.7514 9.91351C19.1892 10.5045 18.9081 11.3838 18.9081 12.5514ZM65.4595 12.573C65.4883 13.6541 65.7766 14.5189 66.3244 15.1676C66.8721 15.8162 67.6433 16.1405 68.6379 16.1405C69.6325 16.1405 70.3964 15.8162 70.9298 15.1676C71.4775 14.5189 71.7586 13.6541 71.773 12.573C71.7586 11.5063 71.4775 10.6559 70.9298 10.0216C70.3964 9.37297 69.6325 9.04865 68.6379 9.04865C67.6433 9.04865 66.8721 9.36577 66.3244 10C65.7766 10.6342 65.4883 11.4919 65.4595 12.573Z" fill="#222222"/>
<path d="M95.6211 10.3243C95.6211 11.6505 95.3184 12.8108 94.713 13.8054C94.0932 14.8144 93.2139 15.5928 92.0752 16.1405C90.9364 16.6883 89.5815 16.9622 88.0103 16.9622H87.9238V18.8649H85.9995V16.9622H85.9346C84.3779 16.9622 83.0157 16.6883 81.8481 16.1405C80.695 15.5928 79.8157 14.8216 79.2103 13.827C78.6049 12.818 78.3022 11.6505 78.3022 10.3243V10.2595C78.3022 8.96216 78.6049 7.81622 79.2103 6.82162C79.8157 5.82703 80.695 5.05586 81.8481 4.50811C83.0157 3.96036 84.3779 3.68649 85.9346 3.68649H85.9995V2H87.9238V3.68649H88.0103C89.5527 3.68649 90.9076 3.96036 92.0752 4.50811C93.2139 5.05586 94.086 5.82703 94.6914 6.82162C95.3112 7.81622 95.6211 8.96216 95.6211 10.2595V10.3243ZM86.0427 5.32973H85.9346C84.7238 5.32973 83.7076 5.53153 82.886 5.93514C82.0644 6.33874 81.4301 6.91532 80.9833 7.66487C80.5508 8.4 80.3346 9.26487 80.3346 10.2595V10.3243C80.3346 11.3045 80.5508 12.1766 80.9833 12.9405C81.4301 13.7045 82.0716 14.2955 82.9076 14.7135C83.7436 15.1171 84.7527 15.3189 85.9346 15.3189H86.0427V5.32973ZM93.6103 10.2595C93.6103 9.27928 93.3941 8.41441 92.9617 7.66487C92.5292 6.9009 91.895 6.32432 91.059 5.93514C90.2373 5.53153 89.2211 5.32973 88.0103 5.32973H87.9022V15.3189H88.0103C89.1779 15.3189 90.1941 15.1099 91.059 14.6919C91.8806 14.2883 92.5076 13.7045 92.94 12.9405C93.3869 12.1766 93.6103 11.3045 93.6103 10.3243V10.2595ZM108.723 12.6595C108.723 13.7838 108.485 14.7784 108.009 15.6432C107.519 16.5225 106.842 17.2072 105.977 17.6973C105.112 18.173 104.125 18.4108 103.015 18.4108C101.89 18.4108 100.903 18.1658 100.053 17.6757C99.1733 17.2 98.4886 16.5297 97.9985 15.6649C97.5228 14.8 97.285 13.7982 97.285 12.6595V12.573C97.285 11.4631 97.5301 10.4829 98.0201 9.63243C98.4958 8.76757 99.1661 8.0973 100.031 7.62162C100.896 7.13153 101.89 6.88649 103.015 6.88649C104.125 6.88649 105.112 7.12432 105.977 7.6C106.842 8.07568 107.512 8.74595 107.988 9.61081C108.478 10.4757 108.723 11.4631 108.723 12.573V12.6595ZM99.1877 12.6595C99.1877 13.4955 99.3463 14.2234 99.6634 14.8432C99.9805 15.4919 100.427 15.9892 101.004 16.3351C101.581 16.6811 102.251 16.8541 103.015 16.8541C103.779 16.8541 104.449 16.6739 105.026 16.3135C105.602 15.9676 106.042 15.4775 106.344 14.8432C106.662 14.209 106.82 13.4811 106.82 12.6595V12.573C106.82 11.7514 106.662 11.0306 106.344 10.4108C106.027 9.79099 105.573 9.30811 104.982 8.96216C104.406 8.61622 103.75 8.44324 103.015 8.44324C102.28 8.44324 101.624 8.60901 101.047 8.94054C100.471 9.28649 100.017 9.77658 99.685 10.4108C99.3535 11.045 99.1877 11.7658 99.1877 12.573V12.6595ZM114.647 13.2865H112.765V18.1081H110.905V7.18919H112.765V11.773H114.667L118.257 7.18919H120.246L116.16 12.4432L120.593 18.1081H118.473L114.647 13.2865ZM131.242 7.18919L127.264 18.3459C126.932 19.2829 126.615 20.0036 126.312 20.5081C126.01 21.0414 125.65 21.4234 125.231 21.6541C124.813 21.8847 124.273 22 123.61 22H122.787L122.226 20.4649H123.35C123.71 20.4649 124.02 20.4072 124.28 20.2919C124.727 20.0901 125.094 19.5928 125.382 18.8L121.231 7.18919H123.199L124.517 11.0162C125.008 12.4 125.325 13.3225 125.469 13.7838L126.269 16.3351C126.543 15.4703 126.773 14.7712 126.961 14.2378L127.155 13.6973L128.042 11.0162L129.361 7.18919H131.242ZM137.829 18.4108C136.704 18.4108 135.717 18.1802 134.866 17.7189C133.987 17.2432 133.31 16.5874 132.834 15.7514C132.359 14.9153 132.121 13.9496 132.121 12.8541V12.5946C132.121 11.4559 132.365 10.4613 132.856 9.61081C133.332 8.74595 134.001 8.07568 134.866 7.6C135.731 7.12432 136.712 6.88649 137.807 6.88649C138.83 6.88649 139.71 7.04505 140.445 7.36216C141.18 7.66487 141.843 8.17658 142.434 8.8973L141.266 10.0432C140.762 9.45225 140.235 9.04144 139.688 8.81081C139.154 8.56577 138.521 8.44324 137.785 8.44324C136.978 8.44324 136.301 8.62342 135.753 8.98378C135.206 9.34414 134.78 9.84865 134.477 10.4973C134.175 11.1459 134.023 11.845 134.023 12.5946V12.8541C134.023 13.5748 134.175 14.2306 134.477 14.8216C134.78 15.4414 135.22 15.9315 135.797 16.2919C136.373 16.6523 137.05 16.8324 137.829 16.8324C138.29 16.8324 138.73 16.7748 139.148 16.6595C139.537 16.5441 139.897 16.3712 140.229 16.1405C140.56 15.9099 140.935 15.5568 141.353 15.0811L142.564 16.0973C141.929 16.9189 141.238 17.5099 140.488 17.8703C139.753 18.2306 138.866 18.4108 137.829 18.4108Z" fill="#26AD50"/>
</svg>
