<svg xmlns="http://www.w3.org/2000/svg" width="24" height="24" viewBox="0 0 24 24" fill="none"><rect width="24" height="24" fill="none"/>
<path d="M16.1787 20.1712H16.9007C18.2606 20.1625 19.5614 19.6144 20.5175 18.6473C21.4736 17.6802 22.0067 16.3731 21.9998 15.0132V14.4894C22.0061 13.1297 21.4727 11.823 20.5168 10.856C19.5609 9.88905 18.2604 9.34074 16.9007 9.33138H16.1787C15.5859 9.33047 14.9977 9.43596 14.4421 9.64284L16.3297 5.52775H13.7342L12.7597 7.68912C12.4857 6.58665 11.8506 5.60761 10.9556 4.90801C10.0605 4.20841 8.95712 3.82852 7.82112 3.82886H7.09909C5.73959 3.83884 4.4395 4.38735 3.48371 5.3542C2.52792 6.32104 1.9944 7.62736 2.00005 8.98688V9.5107C1.99377 10.8704 2.5271 12.1771 3.48302 13.1441C4.43894 14.111 5.7394 14.6594 7.09909 14.6687H7.82112C8.4965 14.6699 9.16512 14.5343 9.78664 14.27L7.12504 20.1689H9.61439L11.2968 16.5021C11.6105 17.5558 12.2541 18.4809 13.1329 19.1414C14.0118 19.8019 15.0794 20.1629 16.1787 20.1712ZM13.2906 14.5838C13.2868 13.7783 13.6027 13.0043 14.1689 12.4315C14.7351 11.8586 15.5054 11.5338 16.3109 11.5281H16.7828C17.5859 11.5375 18.3529 11.8639 18.9164 12.4363C19.4799 13.0086 19.7944 13.7806 19.7912 14.5838V14.9188C19.7943 15.3186 19.7187 15.715 19.5686 16.0855C19.4185 16.456 19.1969 16.7933 18.9164 17.0781C18.6359 17.3629 18.3021 17.5898 17.934 17.7456C17.5659 17.9014 17.1707 17.9832 16.771 17.9863H16.2991C15.8992 17.9835 15.5039 17.9019 15.1356 17.7462C14.7674 17.5905 14.4334 17.3637 14.1529 17.0788C13.8724 16.7939 13.6508 16.4565 13.5008 16.0858C13.3508 15.7152 13.2754 15.3187 13.2788 14.9188L13.2906 14.5838ZM10.7116 9.41632C10.7147 9.81605 10.639 10.2125 10.4889 10.583C10.3388 10.9534 10.1172 11.2907 9.83678 11.5756C9.55632 11.8604 9.2225 12.0872 8.85439 12.2431C8.48627 12.3989 8.09107 12.4807 7.69134 12.4838H7.21942C6.81981 12.4807 6.42472 12.3989 6.05673 12.243C5.68875 12.0872 5.35508 11.8603 5.07481 11.5754C4.79454 11.2906 4.57316 10.9533 4.42332 10.5828C4.27348 10.2123 4.19811 9.81594 4.20153 9.41632V9.08126C4.19525 8.27438 4.50961 7.49802 5.07551 6.92283C5.64141 6.34763 6.41255 6.02068 7.21942 6.01382H7.69134C8.09107 6.01691 8.48627 6.0987 8.85439 6.25452C9.2225 6.41035 9.55632 6.63716 9.83678 6.922C10.1172 7.20684 10.3388 7.54414 10.4889 7.91462C10.639 8.28511 10.7147 8.68154 10.7116 9.08126V9.41632Z" fill="white"/>
</svg>
