<svg xmlns="http://www.w3.org/2000/svg" width="24" height="24" viewBox="0 0 24 24" fill="none"><rect width="24" height="24" fill="none"/>
<path d="M10.1624 9.59463C10.1624 8.58534 10.9819 7.76694 11.9921 7.76694C13.0027 7.76694 13.8213 8.58534 13.8213 9.59463C13.8213 10.6047 13.0027 11.423 11.9921 11.423C10.9819 11.423 10.1624 10.6047 10.1624 9.59463ZM13.0933 3.04343C12.4895 2.43963 11.5105 2.43963 10.9068 3.04343L2.45285 11.4973C1.84905 12.101 1.84905 13.08 2.45285 13.6838L10.1624 21.3934V15.1356C8.93252 14.8563 7.77418 14.297 6.78489 13.4952L6.65853 13.3885C6.36817 13.137 6.18367 12.7662 6.18367 12.3522C6.18367 11.5952 6.79695 10.9825 7.55392 10.9825C7.8853 10.9825 8.18936 11.1005 8.42602 11.2955C9.4218 12.1372 10.6918 12.5995 11.999 12.5995C13.3007 12.5995 14.5654 12.1394 15.5621 11.3067C15.8012 11.1045 16.1097 10.9825 16.4461 10.9825C17.2032 10.9825 17.8163 11.5952 17.8163 12.3522C17.8163 12.7744 17.6257 13.1513 17.3252 13.4028C17.2875 13.4343 17.2498 13.4648 17.2121 13.4952C16.2195 14.2999 15.057 14.8603 13.8213 15.1391V21.4097L21.5471 13.6838C22.151 13.08 22.151 12.101 21.5471 11.4973L13.0933 3.04343Z" fill="#00BFF0"/>
</svg>
