<svg xmlns="http://www.w3.org/2000/svg" width="24" height="24" viewBox="0 0 24 24" fill="none"><rect width="24" height="24" fill="none"/>
<path d="M4.74955 21.6255C3.24953 21.5005 1.99951 20.188 1.99951 18.7504V5.25028C1.99951 3.81277 3.24953 2.50025 4.74955 2.37525C9.56211 1.87524 14.4372 1.87524 19.3122 2.37525C20.7497 2.50025 21.9998 3.81277 21.9998 5.25028V18.7504C21.9998 20.188 20.7497 21.5005 19.2497 21.6255C16.8747 21.8755 14.4372 22.0005 11.9996 22.0005C9.56211 22.0005 7.12456 21.8755 4.74955 21.6255Z" fill="url(#paint0_linear_4424_134)"/>
<path fill-rule="evenodd" clip-rule="evenodd" d="M7.9011 6.88567C8.1475 6.78362 8.43108 6.84004 8.61966 7.02862L12.1095 10.5185L15.5994 7.02862C15.788 6.84004 16.0716 6.78362 16.3179 6.88567C16.5643 6.98774 16.725 7.22816 16.725 7.49484V14.7477C16.725 15.1118 16.4298 15.407 16.0656 15.407C15.7015 15.407 15.4063 15.1118 15.4063 14.7477V9.08664L12.5758 11.9172C12.3183 12.1747 11.9008 12.1747 11.6433 11.9172L8.81278 9.08664V14.7477C8.81278 15.1118 8.51759 15.407 8.15343 15.407C7.78927 15.407 7.49408 15.1118 7.49408 14.7477V7.49484C7.49408 7.22816 7.65472 6.98774 7.9011 6.88567ZM12.7689 15.6801L14.334 14.115C14.5915 13.8575 14.5915 13.44 14.334 13.1825C14.0765 12.925 13.6591 12.925 13.4016 13.1825L12.1095 14.4746L10.8175 13.1825C10.56 12.925 10.1425 12.925 9.88504 13.1825C9.62754 13.44 9.62754 13.8575 9.88504 14.115L11.4502 15.6801V17.3851C11.4502 17.7492 11.7454 18.0444 12.1095 18.0444C12.4737 18.0444 12.7689 17.7492 12.7689 17.3851V15.6801Z" fill="#B34D00"/>
<defs>
<linearGradient id="paint0_linear_4424_134" x1="11.9996" y1="2.00024" x2="11.9996" y2="22.0005" gradientUnits="userSpaceOnUse">
<stop stop-color="#FFD754"/>
<stop offset="1" stop-color="#FF9B29"/>
</linearGradient>
</defs>
</svg>
