<svg xmlns="http://www.w3.org/2000/svg" width="54" height="24" viewBox="0 0 54 24" fill="none"><rect width="54" height="24" fill="none"/>
<path d="M33.6679 12.1388C33.4983 14.3113 31.9846 15.6896 29.755 15.6896C27.2371 15.6896 25.5671 13.8812 25.5671 11.1371C25.5671 8.45833 27.315 6.59833 29.8325 6.59833C31.8675 6.59833 33.4592 7.91167 33.6021 9.71958H31.725C31.5292 8.74458 30.825 8.185 29.7938 8.185C28.3854 8.185 27.485 9.3425 27.485 11.1633C27.485 12.9712 28.3721 14.1158 29.7808 14.1158C30.9158 14.1158 31.6067 13.44 31.7642 12.1388H33.6679ZM35.6883 12.3471C35.6883 13.6221 36.2621 14.3758 37.2279 14.3758C38.1804 14.3758 38.7404 13.6217 38.7404 12.3342C38.7404 11.0721 38.1662 10.305 37.2279 10.305C36.2492 10.305 35.6883 11.0596 35.6883 12.3471ZM40.4758 12.3337C40.4758 14.3367 39.1842 15.6504 37.2279 15.6504C35.2579 15.6504 33.9529 14.3233 33.9529 12.3462C33.9529 10.3438 35.2708 9.03 37.28 9.03C39.1842 9.03 40.4758 10.3567 40.4758 12.3337ZM45.1725 10.6821C44.86 10.6304 44.69 10.6171 44.4946 10.6171C43.8812 10.6171 43.3721 10.9033 43.0854 11.3975C42.8896 11.7096 42.8246 12.1129 42.8246 12.8546V15.4817H41.1029V9.2H42.7463V10.3583C43.2029 9.48583 43.8683 9.07 44.7817 9.07C44.9112 9.07 44.99 9.07 45.1725 9.09583V10.6821ZM47.2508 12.3737C47.2508 13.5958 47.825 14.3112 48.7779 14.3112C49.7046 14.3112 50.265 13.5825 50.265 12.3988C50.265 11.1892 49.7046 10.435 48.7779 10.435C47.8125 10.435 47.2508 11.1375 47.2508 12.3737ZM47.2383 9.98C47.6825 9.3425 48.3346 9.03 49.1946 9.03C50.8775 9.03 52 10.3704 52 12.3737C52 14.3504 50.9171 15.6512 49.2604 15.6512C48.4125 15.6512 47.7992 15.3521 47.3162 14.7012V17.7058H45.595V9.2H47.2383V9.98Z" fill="white"/>
<path fill-rule="evenodd" clip-rule="evenodd" d="M22.06 12.0017C22.06 17.5267 17.5725 22 12.0333 22C6.4925 22 2 17.5267 2 12.0017C2 6.4775 6.4925 2 12.0333 2C17.5721 2 22.06 6.4775 22.06 12.0017ZM11.3017 6.7825C9.72292 6.7825 8.69833 6.86958 7.95583 7.14375C6.70958 7.62833 5.84833 8.64333 5.84833 9.97667C5.84833 11.0875 6.36667 11.8921 7.86792 12.8175C9.47042 13.7858 9.78875 14.105 9.78875 14.6887C9.78875 15.3271 9.16125 16.0546 7.54708 16.0546C6.98375 16.0546 6.13542 15.9767 5.59292 15.8442L5.33375 15.7792C5.18958 16.1646 4.86292 17.0783 4.76292 17.4096L5.01833 17.4842C5.50583 17.6392 6.66417 17.7608 7.49333 17.7608C10.2529 17.7608 11.8987 16.0983 11.8987 14.3579C11.8987 13.2879 11.4117 12.4754 9.76625 11.4508C8.94 10.9442 8.51958 10.6167 8.265 10.3617C8.05792 10.0967 8.03417 9.89917 8.03417 9.69042C8.03417 9.49125 8.07875 9.2625 8.21042 9.09375C8.35375 8.88542 8.61417 8.75333 8.9675 8.64458C9.33042 8.52458 10.0046 8.52083 11.0542 8.52083H12.03L12.7271 6.7825H11.3017ZM13.775 6.7825H18.6829C18.9137 6.7825 18.9567 6.94458 18.8683 7.12167C18.5479 7.915 15.5196 15.4787 15.5196 15.4787H13.4954C13.4954 15.4787 15.8871 9.40208 16.2837 8.49708C16.1921 8.49708 16.1076 8.49973 15.995 8.50325C15.7703 8.51029 15.4336 8.52083 14.7046 8.52083H13.0771L13.775 6.7825Z" fill="white"/>
</svg>
