<svg xmlns="http://www.w3.org/2000/svg" width="24" height="24" viewBox="0 0 24 24" fill="none"><rect width="24" height="24" fill="none"/>
<path d="M9.38163 4.47656C5.26495 4.47656 2 7.88347 2 12.0001C2 16.1168 5.26495 19.5237 9.38163 19.5237C13.4983 19.5237 16.9052 16.2588 16.9052 12.0001C16.9052 7.74151 13.6403 4.47656 9.38163 4.47656ZM9.38163 16.9685C6.82645 16.9685 4.55518 14.6973 4.55518 12.0001C4.55518 9.44497 6.82645 7.1737 9.38163 7.1737C12.0788 7.1737 14.2081 9.44497 14.2081 12.0001C14.2081 14.6973 12.0788 16.9685 9.38163 16.9685Z" fill="#0D41D2"/>
<path d="M20.2255 19.5237C21.1663 19.5237 21.9289 18.7611 21.9289 17.8203C21.9289 16.8795 21.1663 16.1168 20.2255 16.1168C19.2847 16.1168 18.522 16.8795 18.522 17.8203C18.522 18.7611 19.2847 19.5237 20.2255 19.5237Z" fill="#0D41D2"/>
<path d="M21.2901 14.5553L21.9999 4.47656H18.451L19.1608 14.5553H21.2901Z" fill="#0D41D2"/>
</svg>
