<svg xmlns="http://www.w3.org/2000/svg" width="71" height="24" viewBox="0 0 71 24" fill="none"><rect width="71" height="24" fill="none"/>
<path d="M7.49609 17.4538V7.76719H6.62574C5.0301 7.76719 4.19199 8.57307 4.19199 9.76576C4.19199 11.1196 4.77222 11.7483 5.96492 12.5541L6.94809 13.215L4.1114 17.4538H2L4.54658 13.6662C3.07988 12.6186 2.25788 11.6032 2.25788 9.87858C2.25788 7.71884 3.75681 6.25214 6.60962 6.25214H9.44634V17.4538H7.49609ZM33.1069 16.9058C32.5428 17.2927 31.6402 17.615 30.4153 17.615C27.9654 17.615 26.5793 16.245 26.5793 13.4244C26.5793 10.9746 27.6914 9.18551 30.0285 9.18551C31.9464 9.18551 33.1875 10.2493 33.1875 13.0699V14.0853H28.5617C28.6423 15.4391 29.1742 16.0999 30.5764 16.0999C31.5113 16.0999 32.5105 15.7454 33.1069 15.3425V16.9058ZM45.0983 17.615C42.5357 17.615 41.2946 16.1161 41.2946 13.4083C41.2946 10.9423 42.5679 9.18551 45.0178 9.18551C45.9687 9.18551 46.6779 9.3467 47.0808 9.57239V11.2003C46.694 10.9584 45.9687 10.7006 45.2273 10.7006C43.9702 10.7006 43.2771 11.6032 43.2771 13.36C43.2771 15.0362 43.8412 16.0999 45.2112 16.0999C46.017 16.0999 46.5973 15.8904 47.0808 15.5519V17.1154C46.6134 17.4538 45.9848 17.615 45.0983 17.615ZM15.5388 9.3467H17.4567V17.4538H15.5388V14.0691H12.976V17.4538H11.0581V9.3467H12.976V12.5541H15.5388V9.3467ZM26.1118 15.9388V19.3074H24.339V17.4538H20.0355V19.3074H18.2626V15.9388H18.859C19.5359 14.585 19.6648 12.0222 19.6648 10.0398V9.3467H25.2577V15.9388H26.1118ZM39.2316 17.4538L36.3949 13.4728V17.4538H34.4769V9.3467H36.3949V13.086L39.1027 9.3467H41.0367L38.329 13.086L41.4074 17.4538H39.2316ZM29.9962 10.7006C29.0775 10.7006 28.6101 11.3775 28.5617 12.667H31.2373V12.5058C31.2373 11.4903 30.9472 10.7006 29.9962 10.7006ZM23.3397 15.9388V10.8618H21.3088V11.1035C21.3088 12.5058 21.1638 14.7139 20.6319 15.9388H23.3397Z" fill="#21201F"/>
<path d="M62.9056 17.9339C60.7709 17.9339 60.3603 16.1031 61.6412 13.5858C62.8892 11.0521 65.2207 9.20495 67.2738 9.20495C69.3425 9.20495 69.8025 11.0194 68.5213 13.5858C67.2738 16.1195 65.1063 17.9339 62.9056 17.9339ZM60.2454 7.25971C61.0829 7.25971 60.853 9.20495 59.7692 11.1338H62.0353C64.4982 5.95201 62.6265 3.94141 60.5082 3.94141C57.0762 3.94141 53.2173 7.39049 50.787 11.8203C48.2417 16.4627 48.5373 20.0589 51.8051 20.0589C55.5162 20.0589 59.1124 16.7406 61.6576 12.0982H56.8135L55.861 13.6348H59.0467L59.1617 12.2453C57.6017 14.9588 55.7953 16.7243 54.7772 16.7243C53.7756 16.7243 54.1697 14.7136 55.7297 12.0001C57.3061 9.27032 59.1617 7.25971 60.2454 7.25971ZM66.5838 13.5694C67.405 12.1963 67.5032 11.2155 67.0107 11.2155C66.4688 11.2155 65.5988 12.229 64.7938 13.5694C63.9565 14.9261 63.858 15.9069 64.3671 15.9069C64.9088 15.9069 65.7794 14.8934 66.5838 13.5694Z" fill="#21201F"/>
</svg>
