<svg xmlns="http://www.w3.org/2000/svg" width="158" height="24" viewBox="0 0 158 24" fill="none"><rect width="158" height="24" fill="none"/>
<path d="M57.3585 11.5005H37.8384V21.9957H44.0277V16.0863H46.5972L50.1092 21.9991H57.1524L53.0647 15.5846C55.0447 14.849 56.6142 13.3612 57.3585 11.5005ZM55.4646 3.85644C54.2534 2.70693 52.6413 2 50.8674 2H37.5506C37.5785 2.53563 37.6532 3.05735 37.768 3.56515C37.795 3.67645 37.8202 3.79123 37.8515 3.90166C37.8628 3.94687 37.8767 3.99209 37.888 4.03817C38.9932 7.66149 42.2678 10.2901 46.139 10.2901H57.5689C57.7794 9.1273 57.6973 7.93042 57.3299 6.8073C56.9626 5.68417 56.3216 4.67009 55.4646 3.85644ZM29.2606 21.9991H35.4168V2H29.2606V21.9991ZM17.095 4.62945L14.5299 13.8186H14.0908L11.5257 4.62945C11.0935 3.073 9.71445 2 8.14756 2H2V21.9991H8.15452V10.1823H8.5945L12.1126 21.9991H16.5089L20.027 10.1823H20.467V21.9991H26.6224V2.00087H20.4748C18.9062 2.00087 17.5289 3.073 17.095 4.62945Z" fill="white"/>
<path d="M125.725 11.2779C121.144 10.3336 120.095 9.08317 120.095 7.02761V6.9737C120.095 4.94683 121.972 3.3069 124.815 3.3069C126.941 3.3069 128.761 3.91818 130.584 5.50159L131.495 4.36251C129.534 2.77997 127.686 2.00174 124.87 2.00174C121.281 2.00174 118.659 4.22425 118.659 7.11282V7.16847C118.659 10.1118 120.536 11.6944 125.174 12.6395C129.562 13.5273 130.639 14.7221 130.639 16.7785V16.8333C130.639 19.0549 128.652 20.694 125.753 20.694C122.91 20.694 120.95 19.7766 118.824 17.8054L117.885 18.8897C120.205 20.9722 122.579 22 125.67 22C129.397 22 132.074 19.834 132.074 16.6941V16.6394C132.074 13.8056 130.198 12.1952 125.725 11.2779ZM149.558 11.2779C144.976 10.3336 143.927 9.08317 143.927 7.02761V6.9737C143.927 4.94683 145.804 3.3069 148.648 3.3069C150.773 3.3069 152.593 3.91818 154.416 5.50159L155.327 4.36251C153.366 2.77997 151.519 2.00174 148.702 2.00174C145.114 2.00174 142.491 4.22425 142.491 7.11282V7.16847C142.491 10.1118 144.368 11.6944 149.006 12.6395C153.395 13.5273 154.472 14.7221 154.472 16.7785V16.8333C154.472 19.0549 152.485 20.694 149.585 20.694C146.743 20.694 144.783 19.7766 142.656 17.8054L141.717 18.8897C144.037 20.9705 146.411 21.9991 149.502 21.9991C153.229 21.9991 155.906 19.8331 155.906 16.6933V16.6385C155.906 13.8047 154.03 12.1952 149.558 11.2779ZM74.8151 2H67.8041V21.9991H69.2388V14.5421H74.456C78.4862 14.5421 81.993 12.3709 81.993 8.17104V8.11365C81.993 4.25729 79.0662 2.00087 74.8151 2.00087V2ZM80.5566 8.25625C80.5566 11.2283 78.1289 13.1699 74.5395 13.1699H69.2406V3.37038H74.7047C78.1836 3.37038 80.5575 5.02856 80.5575 8.2006L80.5566 8.25625ZM103.743 15.1055L98.8141 3.61732L93.8586 15.1055H103.743ZM98.1715 2H99.5105L108.241 21.9991H106.716L104.331 16.4394H93.2708L90.8866 21.9991H89.4397L98.1715 2Z" fill="white" fill-opacity="0.8"/>
</svg>
