<svg xmlns="http://www.w3.org/2000/svg" width="99" height="24" viewBox="0 0 99 24" fill="none"><rect width="99" height="24" fill="none"/>
<path d="M21.8993 18.3904C21.6022 18.3904 21.3443 18.5011 21.1255 18.7226C20.9068 18.944 20.7589 19.2458 20.6819 19.628C20.6063 20.0088 20.6333 20.3099 20.763 20.5314C20.894 20.7528 21.108 20.8636 21.4051 20.8636C21.7021 20.8636 21.9594 20.7528 22.1768 20.5314C22.3955 20.3099 22.5427 20.0088 22.6184 19.628C22.6953 19.2458 22.669 18.944 22.5394 18.7226C22.4097 18.5011 22.1964 18.3904 21.8993 18.3904ZM21.9661 18.0582C22.3902 18.0582 22.7007 18.2006 22.8979 18.4856C23.095 18.7691 23.1457 19.1499 23.0498 19.628C22.9539 20.1047 22.7507 20.4855 22.4401 20.7704C22.1295 21.054 21.7623 21.1958 21.3382 21.1958C20.9129 21.1958 20.6009 21.054 20.4024 20.7704C20.2053 20.4868 20.1546 20.106 20.2505 19.628C20.3464 19.15 20.5496 18.7692 20.8602 18.4856C21.1721 18.2006 21.5408 18.0582 21.9661 18.0582Z" fill="#F4F6CA"/>
<path d="M25.7693 18.8692L25.3156 21.1378H24.9409L25.3359 19.167H24.1266L23.7316 21.1378H23.3569L23.8106 18.8692H25.7693Z" fill="#F4F6CA"/>
<path d="M26.2706 18.8692H28.444L28.3852 19.1669H27.4818L27.0868 21.1377H26.7202L27.1152 19.1669H26.2118L26.2706 18.8692Z" fill="#F4F6CA"/>
<path d="M29.7794 19.1302C29.5795 19.1302 29.406 19.2085 29.2588 19.3651C29.1116 19.5204 29.011 19.7338 28.957 20.0052C28.903 20.2766 28.9179 20.4906 29.0016 20.6473C29.0853 20.8026 29.2278 20.8802 29.429 20.8802C29.6275 20.8802 29.8003 20.8019 29.9475 20.6453C30.0961 20.4886 30.1973 20.2753 30.2513 20.0052C30.3054 19.7365 30.2898 19.5238 30.2047 19.3671C30.1197 19.2091 29.9779 19.1302 29.7794 19.1302ZM29.8422 18.8142C30.1663 18.8142 30.3999 18.9195 30.543 19.1302C30.6862 19.3408 30.7206 19.6325 30.6463 20.0052C30.572 20.3765 30.4208 20.6682 30.1926 20.8802C29.9657 21.0909 29.6903 21.1962 29.3662 21.1962C29.0407 21.1962 28.8071 21.0909 28.6653 20.8802C28.5235 20.6682 28.4898 20.3765 28.5641 20.0052C28.6383 19.6325 28.7882 19.3408 29.0137 19.1302C29.2406 18.9195 29.5167 18.8142 29.8422 18.8142Z" fill="#F4F6CA"/>
<path d="M31.6029 20.0912L31.453 20.8386H31.9837C32.1539 20.8386 32.2896 20.8069 32.3908 20.7434C32.4935 20.6786 32.5569 20.5854 32.5812 20.4639C32.6056 20.3423 32.5792 20.2498 32.5023 20.1864C32.4266 20.1229 32.3038 20.0912 32.1336 20.0912L31.6029 20.0912ZM31.7893 19.1655L31.6637 19.7934H32.1538C32.2943 19.7934 32.4145 19.7657 32.5144 19.7104C32.6143 19.6537 32.6744 19.5753 32.6947 19.4754C32.7149 19.3755 32.6859 19.2992 32.6076 19.2465C32.5292 19.1925 32.4199 19.1655 32.2794 19.1655L31.7893 19.1655ZM31.4753 18.8677H32.3625C32.6285 18.8677 32.823 18.9164 32.9458 19.0136C33.0701 19.1108 33.1146 19.2492 33.0795 19.4288C33.0512 19.5679 32.9924 19.6786 32.9033 19.761C32.8142 19.842 32.696 19.8927 32.5488 19.9129C32.7136 19.9453 32.8331 20.0128 32.9074 20.1155C32.9816 20.2181 33.0032 20.3464 32.9722 20.5003C32.9317 20.7029 32.8223 20.8595 32.644 20.9703C32.4658 21.081 32.2322 21.1364 31.9432 21.1364H31.0216L31.4753 18.8677Z" fill="#F4F6CA"/>
<path d="M36.0796 18.8692H36.4523L35.9986 21.1378H35.6259L36.0796 18.8692ZM35.0284 20.4653C35.0527 20.3438 35.027 20.2513 34.9514 20.1878C34.8758 20.1243 34.7529 20.0926 34.5827 20.0926H34.0521L33.9022 20.84H34.4328C34.603 20.84 34.7387 20.8083 34.84 20.7448C34.9413 20.68 35.0041 20.5868 35.0284 20.4653ZM33.9224 18.8692H34.2971L34.1128 19.7948H34.6597C34.9487 19.7948 35.16 19.8502 35.2937 19.9609C35.4274 20.0703 35.4713 20.2384 35.4254 20.4653C35.3808 20.6922 35.2694 20.861 35.0912 20.9717C34.9129 21.0824 34.6793 21.1378 34.3903 21.1378H33.4687L33.9224 18.8692Z" fill="#F4F6CA"/>
<path d="M38.942 19.9097L38.9055 20.092H37.1919C37.1568 20.3486 37.1946 20.5444 37.3053 20.6794C37.4174 20.8131 37.597 20.8799 37.8441 20.8799C37.9873 20.8799 38.1297 20.8624 38.2715 20.8273C38.4133 20.7922 38.5571 20.7395 38.7029 20.6693L38.632 21.0217C38.4876 21.0784 38.3417 21.1217 38.1945 21.1514C38.0487 21.1811 37.9035 21.1959 37.759 21.1959C37.3972 21.1959 37.1318 21.0906 36.963 20.8799C36.7942 20.6693 36.7456 20.3844 36.8172 20.0252C36.8914 19.6538 37.0501 19.3594 37.2932 19.142C37.5376 18.9233 37.8299 18.8139 38.1702 18.8139C38.4754 18.8139 38.6969 18.9125 38.8346 19.1096C38.9737 19.3054 39.0095 19.5721 38.942 19.9097ZM38.5916 19.8003C38.6294 19.5964 38.6044 19.4337 38.5166 19.3122C38.4302 19.1906 38.2951 19.1299 38.1115 19.1299C37.9035 19.1299 37.7253 19.1886 37.5767 19.3061C37.4282 19.4236 37.3235 19.589 37.2628 19.8023L38.5916 19.8003Z" fill="#F4F6CA"/>
<path d="M41.9132 19.9131C42.0739 19.9456 42.1907 20.011 42.2636 20.1096C42.3379 20.2082 42.3602 20.3304 42.3304 20.4762C42.2845 20.7099 42.1617 20.8881 41.9618 21.011C41.7633 21.1339 41.5034 21.1953 41.182 21.1953C41.0739 21.1953 40.9646 21.1859 40.8538 21.167C40.7445 21.1481 40.6324 21.1197 40.5176 21.0819L40.5885 20.7355C40.6736 20.7855 40.7708 20.8233 40.8802 20.849C40.9909 20.8733 41.1091 20.8854 41.2346 20.8854C41.4385 20.8854 41.6046 20.8476 41.7329 20.772C41.8626 20.6964 41.9395 20.5978 41.9638 20.4763C41.9881 20.3574 41.9564 20.2622 41.8686 20.1906C41.7822 20.1177 41.6465 20.0813 41.4615 20.0813H41.1617L41.2245 19.7734H41.5385C41.6951 19.7734 41.8247 19.7437 41.9274 19.6843C42.03 19.6235 42.0908 19.5459 42.1097 19.4513C42.1272 19.3649 42.0955 19.2906 42.0145 19.2285C41.9334 19.1664 41.8126 19.1353 41.6519 19.1353C41.556 19.1353 41.4514 19.1441 41.3379 19.1617C41.2259 19.1792 41.1009 19.2076 40.9632 19.2467L41.03 18.9085C41.1691 18.8761 41.2974 18.8518 41.4149 18.8356C41.5337 18.8194 41.6445 18.8113 41.7471 18.8113C42.0118 18.8113 42.2096 18.8646 42.3406 18.9713C42.4729 19.0766 42.5202 19.2245 42.4824 19.4149C42.4567 19.5404 42.3946 19.6471 42.296 19.7349C42.1988 19.8213 42.0712 19.8807 41.9132 19.9131Z" fill="#F4F6CA"/>
<path d="M44.0928 19.9961C43.7917 19.9961 43.5756 20.0305 43.4446 20.0994C43.315 20.1683 43.234 20.2858 43.2016 20.4519C43.1746 20.5842 43.1968 20.6895 43.2684 20.7678C43.34 20.8448 43.4507 20.8833 43.6006 20.8833C43.8072 20.8833 43.9875 20.8104 44.1414 20.6645C44.2954 20.5174 44.3966 20.3222 44.4452 20.0792L44.4635 19.9961L44.0928 19.9961ZM44.8666 19.8422L44.6073 21.1365H44.2346L44.3035 20.7922C44.1914 20.9299 44.0651 21.0318 43.9247 21.098C43.7842 21.1628 43.6222 21.1952 43.4386 21.1952C43.2063 21.1952 43.0348 21.1304 42.9241 21.0008C42.8133 20.8698 42.7796 20.6949 42.8228 20.4762C42.8741 20.2209 42.9977 20.0285 43.1935 19.8989C43.3906 19.7692 43.6586 19.7044 43.9976 19.7044H44.5202L44.5283 19.668C44.562 19.4965 44.5317 19.3641 44.4371 19.271C44.344 19.1764 44.1954 19.1292 43.9915 19.1292C43.8619 19.1292 43.7322 19.1447 43.6026 19.1758C43.4743 19.2068 43.3474 19.2534 43.2218 19.3155L43.2907 18.9712C43.4379 18.9185 43.5776 18.8794 43.71 18.8537C43.8437 18.8267 43.9713 18.8132 44.0928 18.8132C44.4209 18.8132 44.6491 18.8983 44.7774 19.0684C44.9057 19.2386 44.9354 19.4965 44.8666 19.8422Z" fill="#F4F6CA"/>
<path d="M45.8161 18.8692H46.1867L45.974 19.9346L47.238 18.8692H47.6958L46.6526 19.7462L47.3534 21.1378H46.9362L46.3609 19.9933L45.8809 20.3984L45.733 21.1378H45.3623L45.8161 18.8692Z" fill="#F4F6CA"/>
<path d="M48.7821 21.3478C48.6228 21.6178 48.485 21.7941 48.3689 21.8764C48.2528 21.9588 48.111 22 47.9435 22H47.6458L47.7086 21.6881H47.9273C48.03 21.6881 48.1144 21.6638 48.1805 21.6151C48.2467 21.5665 48.3324 21.4517 48.4378 21.2708L48.539 21.1007L48.0671 18.8685H48.4621L48.8165 20.643L49.88 18.8685H50.2749L48.7821 21.3478Z" fill="#F4F6CA"/>
<path d="M52.7334 18.8692L52.2797 21.1378H51.9049L52.2999 19.167H51.0907L50.6957 21.1378H50.3209L50.7747 18.8692H52.7334Z" fill="#F4F6CA"/>
<path d="M53.4887 18.8692H53.8594L53.6467 19.9346L54.9106 18.8692H55.3684L54.3252 19.7462L55.0261 21.1378H54.6088L54.0336 19.9933L53.5535 20.3984L53.4056 21.1378H53.035L53.4887 18.8692Z" fill="#F4F6CA"/>
<path d="M57.9343 18.8692L57.4806 21.1378H57.1099L57.4745 19.3168L56.0161 21.1378H55.5381L55.9918 18.8692H56.3625L55.9999 20.6861L57.4543 18.8692H57.9343Z" fill="#F4F6CA"/>
<path d="M61.953 18.8692L61.4993 21.1378H61.1286L61.4932 19.3168L60.0348 21.1378H59.5568L60.0105 18.8692H60.3812L60.0186 20.6861L61.473 18.8692H61.953Z" fill="#F4F6CA"/>
<path d="M63.5536 19.9131C63.7142 19.9456 63.8311 20.011 63.904 20.1096C63.9783 20.2082 64.0005 20.3304 63.9708 20.4762C63.9249 20.7099 63.802 20.8881 63.6022 21.011C63.4037 21.1339 63.1437 21.1953 62.8224 21.1953C62.7143 21.1953 62.6049 21.1859 62.4942 21.167C62.3848 21.1481 62.2728 21.1197 62.158 21.0819L62.2289 20.7355C62.3139 20.7855 62.4112 20.8233 62.5206 20.849C62.6313 20.8733 62.7495 20.8854 62.875 20.8854C63.0789 20.8854 63.245 20.8476 63.3733 20.772C63.503 20.6964 63.5799 20.5978 63.6042 20.4763C63.6285 20.3574 63.5968 20.2622 63.509 20.1906C63.4226 20.1177 63.2869 20.0813 63.1019 20.0813H62.8021L62.8649 19.7734H63.1788C63.3355 19.7734 63.4651 19.7437 63.5677 19.6843C63.6704 19.6235 63.7311 19.5459 63.75 19.4513C63.7676 19.3649 63.7359 19.2906 63.6549 19.2285C63.5738 19.1664 63.453 19.1353 63.2923 19.1353C63.1964 19.1353 63.0918 19.1441 62.9783 19.1617C62.8662 19.1792 62.7413 19.2076 62.6036 19.2467L62.6704 18.9085C62.8095 18.8761 62.9378 18.8518 63.0553 18.8356C63.1741 18.8194 63.2849 18.8113 63.3875 18.8113C63.6522 18.8113 63.85 18.8646 63.981 18.9713C64.1133 19.0766 64.1606 19.2245 64.1228 19.4149C64.0971 19.5404 64.035 19.6471 63.9364 19.7349C63.8392 19.8213 63.7115 19.8807 63.5536 19.9131Z" fill="#F4F6CA"/>
<path d="M66.4159 18.1121H66.8251L66.5253 19.6069L68.2874 18.1121H68.8121L67.4043 19.3072L68.2672 21.1362H67.8216L67.0843 19.5786L66.4179 20.1437L66.2194 21.1362H65.8102L66.4159 18.1121Z" fill="#F4F6CA"/>
<path d="M71.126 18.8692L70.6722 21.1378H70.3016L70.6662 19.3168L69.2078 21.1378H68.7298L69.1835 18.8692H69.5542L69.1916 20.6861L70.6459 18.8692H71.126Z" fill="#F4F6CA"/>
<path d="M71.6255 18.8692H73.7989L73.7401 19.1669H72.8367L72.4417 21.1377H72.0751L72.4701 19.1669H71.5667L71.6255 18.8692Z" fill="#F4F6CA"/>
<path d="M75.1153 19.9961C74.8141 19.9961 74.5981 20.0305 74.4671 20.0994C74.3374 20.1683 74.2564 20.2858 74.224 20.4519C74.197 20.5842 74.2193 20.6895 74.2909 20.7678C74.3624 20.8448 74.4732 20.8833 74.6231 20.8833C74.8297 20.8833 75.0099 20.8104 75.1639 20.6645C75.3178 20.5174 75.4191 20.3222 75.4677 20.0792L75.4859 19.9961L75.1153 19.9961ZM75.889 19.8422L75.6298 21.1365H75.2571L75.3259 20.7922C75.2138 20.9299 75.0876 21.0318 74.9472 21.098C74.8067 21.1628 74.6447 21.1952 74.461 21.1952C74.2288 21.1952 74.0573 21.1304 73.9465 21.0008C73.8358 20.8698 73.802 20.6949 73.8453 20.4762C73.8966 20.2209 74.0201 20.0285 74.2159 19.8989C74.4131 19.7692 74.6811 19.7044 75.0201 19.7044H75.5427L75.5508 19.668C75.5845 19.4965 75.5541 19.3641 75.4596 19.271C75.3664 19.1764 75.2179 19.1292 75.014 19.1292C74.8844 19.1292 74.7547 19.1447 74.6251 19.1758C74.4968 19.2068 74.3699 19.2534 74.2443 19.3155L74.3132 18.9712C74.4604 18.9185 74.6001 18.8794 74.7324 18.8537C74.8661 18.8267 74.9938 18.8132 75.1153 18.8132C75.4434 18.8132 75.6716 18.8983 75.7999 19.0684C75.9282 19.2386 75.9579 19.4965 75.889 19.8422Z" fill="#F4F6CA"/>
<path d="M77.0961 19.5225C77.0745 19.6346 77.1001 19.7224 77.1731 19.7858C77.2473 19.8493 77.3648 19.881 77.5255 19.881H78.0278L78.1716 19.166H77.6693C77.5086 19.166 77.3783 19.1971 77.2784 19.2592C77.1798 19.3213 77.119 19.4091 77.0961 19.5225ZM76.2433 21.1369L77.1346 20.1423C76.9847 20.1072 76.8672 20.0437 76.7821 19.9519C76.697 19.8587 76.6734 19.7156 76.7112 19.5225C76.7558 19.3037 76.8611 19.1403 77.0272 19.0323C77.1946 18.9229 77.4249 18.8682 77.7179 18.8682H78.6051L78.1514 21.1369H77.7766L77.9691 20.1788H77.5052L76.6444 21.1369L76.2433 21.1369Z" fill="#F4F6CA"/>
<path d="M5.16777 13.8169C6.14657 14.3685 7.24988 14.6355 8.47796 14.6355C9.68811 14.6355 10.7915 14.3685 11.7881 13.8169C12.7669 13.283 13.5322 12.5177 14.1017 11.5567C14.6712 10.5957 14.9559 9.52802 14.9559 8.31775C14.9559 7.1254 14.6712 6.0398 14.1017 5.07877C13.5322 4.11778 12.767 3.37033 11.7881 2.81864C10.7915 2.28475 9.68823 2 8.47796 2C7.25002 2 6.1466 2.28475 5.16777 2.83642C4.17118 3.38811 3.40595 4.13555 2.83642 5.09656C2.26694 6.05755 2 7.14306 2 8.31772C2 9.51007 2.26694 10.5779 2.83642 11.5389C3.4059 12.4999 4.17114 13.2651 5.16777 13.8169ZM11.3075 13.0872C10.4532 13.5677 9.51002 13.7991 8.47778 13.7991C7.42781 13.7991 6.48452 13.5677 5.63031 13.0872C4.77609 12.6245 4.11763 11.966 3.63705 11.1295C3.13875 10.2931 2.90739 9.34992 2.90739 8.31768C2.90739 7.28549 3.13875 6.36002 3.63705 5.52361C4.11754 4.68719 4.776 4.02873 5.63031 3.54815C6.48453 3.08544 7.42774 2.8363 8.47778 2.8363C9.50997 2.8363 10.4532 3.08544 11.3075 3.54815C12.1439 4.02864 12.8023 4.68711 13.3007 5.52361C13.7812 6.36003 14.0304 7.28544 14.0304 8.31768C14.0304 9.34986 13.7812 10.2931 13.3007 11.1295C12.8024 11.966 12.144 12.6244 11.3075 13.0872Z" fill="#F4F6CA"/>
<path d="M26.255 3.211C25.3652 2.46356 24.1373 2.08983 22.5712 2.08983H18.1043V2.90846H22.5712C23.8881 2.90846 24.9025 3.211 25.6143 3.79828C26.3083 4.38556 26.6643 5.22198 26.6643 6.28969C26.6643 7.37526 26.3083 8.21174 25.6143 8.78109C24.9024 9.36837 23.8881 9.6531 22.5712 9.6531H18.1043V14.5471H19.0119V10.4717H22.5712C24.1372 10.4717 25.3652 10.1158 26.255 9.36834C27.1449 8.6209 27.5898 7.60652 27.5898 6.2896C27.5898 4.99047 27.1449 3.95838 26.255 3.211Z" fill="#F2E9AD"/>
<path d="M32.6192 2.90851V14.5473H33.5269V2.90851H38.0115V2.08988H28.1346V2.90851H32.6192Z" fill="#EFDD8F"/>
<path d="M52.0264 14.5463H52.9162L52.8984 2.08888H52.151L46.5809 11.7166L41.0107 2.08888H40.2455V14.5463H41.1353V3.92191L46.3495 12.8913H46.7945L52.0087 3.88631L52.0264 14.5463Z" fill="#EDD072"/>
<path d="M59.2169 13.8169C60.1956 14.3685 61.299 14.6355 62.527 14.6355C63.7372 14.6355 64.8406 14.3685 65.8372 13.8169C66.816 13.283 67.5812 12.5177 68.1508 11.5567C68.7202 10.5957 69.005 9.52802 69.005 8.31775C69.005 7.1254 68.7202 6.0398 68.1508 5.07877C67.5813 4.11778 66.816 3.37033 65.8372 2.81864C64.8406 2.28475 63.7373 2 62.527 2C61.2991 2 60.1957 2.28475 59.2169 2.83642C58.2203 3.38811 57.455 4.13555 56.8855 5.09656C56.316 6.05755 56.0491 7.14306 56.0491 8.31772C56.0491 9.51007 56.316 10.5779 56.8855 11.5389C57.455 12.4999 58.2202 13.2651 59.2169 13.8169ZM65.3565 13.0872C64.5023 13.5677 63.5591 13.7991 62.5269 13.7991C61.4769 13.7991 60.5336 13.5677 59.6794 13.0872C58.8252 12.6245 58.1667 11.966 57.6861 11.1295C57.1878 10.2931 56.9565 9.34992 56.9565 8.31768C56.9565 7.28549 57.1878 6.36002 57.6861 5.52361C58.1666 4.68719 58.8251 4.02873 59.6794 3.54815C60.5336 3.08544 61.4768 2.8363 62.5269 2.8363C63.559 2.8363 64.5023 3.08544 65.3565 3.54815C66.1929 4.02864 66.8514 4.68711 67.3498 5.52361C67.8303 6.36003 68.0794 7.28544 68.0794 8.31768C68.0794 9.34986 67.8303 10.2931 67.3498 11.1295C66.8515 11.966 66.193 12.6244 65.3565 13.0872Z" fill="#EBC354"/>
<path d="M82.297 2.08922H81.3894V12.9094L72.9184 2.08922H72.1531V14.5466H73.0608V3.72642L81.5496 14.5466H82.297V2.08922Z" fill="#E8B736"/>
<path d="M90.3482 8.40676L95.7049 14.5464H96.8083L90.9533 7.74821L96.4346 2.08905H95.3312L87.5542 10.0974V2.08905H86.6465V14.5464H87.5542V11.2719L90.3482 8.40676Z" fill="#E6AA19"/>
</svg>
