<svg xmlns="http://www.w3.org/2000/svg" width="128" height="24" viewBox="0 0 128 24" fill="none"><rect width="128" height="24" fill="none"/>
<path d="M2 17.7664L7.32847 17.2847C7.54745 17.927 7.83942 18.365 8.24818 18.6277C8.64234 18.9051 9.16788 19.0365 9.83942 19.0365C10.5693 19.0365 11.1095 18.8759 11.5182 18.5693C11.8248 18.3504 11.9854 18.0584 11.9854 17.708C11.9854 17.3285 11.781 17.0219 11.3577 16.8175C11.0657 16.6569 10.292 16.4963 9.0511 16.2628C7.18248 15.9416 5.89781 15.635 5.16788 15.3431C4.43796 15.0657 3.83942 14.5985 3.34307 13.9416C2.84672 13.2847 2.59854 12.5255 2.59854 11.6788C2.59854 10.7445 2.86131 9.9562 3.41606 9.29927C3.9562 8.62774 4.68613 8.13139 5.62044 7.79562C6.56934 7.47445 7.82482 7.29927 9.40146 7.29927C11.0803 7.29927 12.292 7.41606 13.0949 7.67883C13.8832 7.94161 14.5547 8.33577 15.0803 8.84672C15.6204 9.38686 16.0438 10.1022 16.4088 11.0219L11.2847 11.562C11.1533 11.0949 10.9343 10.7737 10.6277 10.5401C10.219 10.2482 9.70803 10.1022 9.10949 10.1022C8.51095 10.1022 8.07299 10.2044 7.79562 10.4234C7.53285 10.6715 7.40146 10.9197 7.40146 11.2409C7.40146 11.5912 7.57664 11.8394 7.94161 12.0146C8.29197 12.1898 9.06569 12.365 10.2336 12.4964C11.9854 12.7299 13.3139 13.0073 14.1898 13.3723C15.0511 13.7372 15.7226 14.2482 16.1898 14.9197C16.6569 15.5912 16.8759 16.3212 16.8759 17.1241C16.8759 17.927 16.6277 18.7299 16.146 19.489C15.6642 20.2482 14.8905 20.8613 13.8394 21.3139C12.7883 21.7664 11.3577 21.9854 9.54745 21.9854C6.9927 21.9854 5.16788 21.6204 4.10219 20.9051C3.0073 20.1606 2.29197 19.1095 2 17.7664Z" fill="#A20C33"/>
<path d="M19.9708 20.2628C21.3723 21.4015 23.1825 21.9708 25.4307 21.9708C27.9416 21.9708 29.927 21.2847 31.3577 19.8978C32.7883 18.5109 33.4891 16.7591 33.4891 14.5985C33.4891 12.6861 32.9197 11.0657 31.7664 9.75182C30.3358 8.13139 28.219 7.29927 25.4015 7.29927C22.9489 7.29927 21.0073 7.9854 19.562 9.38686C18.1168 10.7591 17.4015 12.5401 17.4015 14.6861C17.4161 16.9927 18.2628 18.8613 19.9708 20.2628ZM23.5474 11.8686C24.0584 11.2701 24.7007 10.9489 25.4891 10.9489C26.2336 10.9489 26.8467 11.2409 27.3577 11.8394C27.854 12.438 28.1168 13.3577 28.1168 14.5839C28.1168 15.8978 27.8686 16.8613 27.3723 17.4453C26.8759 18.0292 26.2336 18.3358 25.4599 18.3358C24.6861 18.3358 24.0584 18.0292 23.5474 17.4161C23.0511 16.8175 22.7883 15.8832 22.7883 14.5985C22.7883 13.4015 23.0511 12.4672 23.5474 11.8686Z" fill="#A20C33"/>
<path d="M40.7445 7.64963H43.2993V11.5912H40.7445V21.6642H35.3577V11.5912H33.3431V7.64963H35.3577V7.0073C35.3577 6.43796 35.4307 5.79562 35.5474 5.12409C35.6642 4.43796 35.9124 3.88321 36.2336 3.44526C36.5839 3.0073 37.0511 2.65693 37.6642 2.39416C38.292 2.11679 39.1825 2 40.3504 2C41.2993 2 42.6569 2.10219 44.4526 2.32117L43.854 5.56204C43.2117 5.45985 42.6861 5.40146 42.3066 5.40146C41.8248 5.40146 41.4745 5.48905 41.2555 5.64963C41.0511 5.81022 40.8905 6.05839 40.8029 6.42336C40.7591 6.62774 40.7445 7.0219 40.7445 7.64963Z" fill="#A20C33"/>
<path d="M50.3796 11.5912V16.5547C50.3796 17.1533 50.438 17.562 50.5548 17.7372C50.7299 18.0292 51.0365 18.1898 51.4745 18.1898C51.8686 18.1898 52.4234 18.073 53.1241 17.8394L53.5183 21.5328C52.1898 21.8248 50.9489 21.9708 49.8102 21.9708C48.4818 21.9708 47.4891 21.7956 46.8613 21.4599C46.219 21.1095 45.7518 20.5985 45.4599 19.8978C45.1533 19.2117 45.0073 18.073 45.0073 16.4964V11.5912H43.0365V7.64963H45.0073V5.08029L50.3942 2.32117V11.5912H50.3796Z" fill="#A20C33"/>
<path d="M54.7299 2.32117H60.1022V21.6642H54.7299V2.32117Z" fill="white"/>
<path d="M62.365 21.6642H67.7664V7.64963H62.365V21.6642Z" fill="white"/>
<path d="M62.365 2.32117V6.0146H67.7664V2.32117H62.365Z" fill="white"/>
<path d="M69.7956 7.64963H74.8175V9.92701C75.562 8.9927 76.3212 8.32117 77.0803 7.92701C77.8394 7.53285 78.7737 7.32847 79.8686 7.32847C81.3577 7.32847 82.511 7.78102 83.3577 8.65693C84.2044 9.53285 84.6131 10.9197 84.6131 12.7591V21.6788H79.2263V13.9562C79.2263 13.0803 79.0511 12.4526 78.7445 12.0876C78.4234 11.7226 77.9708 11.5328 77.3723 11.5328C76.7153 11.5328 76.2044 11.781 75.781 12.2774C75.3869 12.7737 75.1825 13.6496 75.1825 14.9343V21.6642H69.7956V7.64963Z" fill="white"/>
<path d="M102.029 15.4015C102.029 13.562 101.723 12.0438 101.11 10.8905C100.496 9.73723 99.6204 8.86131 98.4672 8.23358C97.3139 7.63504 95.7226 7.31387 93.7226 7.31387C91.2555 7.31387 89.3285 7.9854 87.927 9.34307C86.5256 10.7007 85.8248 12.4672 85.8248 14.6715C85.8248 16.2044 86.1752 17.5474 86.8759 18.6861C87.5621 19.8248 88.438 20.6569 89.5182 21.1825C90.5693 21.6934 92.0292 21.9708 93.8832 21.9708C96.0146 21.9708 97.635 21.6642 98.8029 21.0511C99.9416 20.4526 100.92 19.4307 101.723 18.0146L96.4526 17.5328C96.1314 17.9416 95.8102 18.2628 95.5182 18.4088C95.0511 18.6715 94.5548 18.8029 94.0292 18.8029C93.1971 18.8029 92.5256 18.4963 92.0146 17.8832C91.6496 17.4745 91.4161 16.8321 91.3285 15.9708H102.029V15.4015ZM91.3285 13.4599C91.4161 12.6131 91.6204 11.9708 91.9562 11.562C92.4526 10.8759 93.1387 10.5401 93.9854 10.5401C94.7153 10.5401 95.3139 10.7591 95.7664 11.2117C96.219 11.6642 96.4964 12.4234 96.5985 13.4745H91.3431V13.4599H91.3285Z" fill="white"/>
<path d="M26.6569 4.20438C32.7883 4.86131 35.2409 5.38686 40.9489 6.93431C45.708 8.23358 53.2993 7.66423 53.2993 7.66423C53.2993 7.66423 53.2993 10.1022 53.2993 11.6058C50.3358 12.0146 43.8832 11.8686 38.5256 9.91241C28.9343 6.40876 24.5839 5.69343 19.4453 5.32847C12.4964 4.83212 4.21898 5.88321 4.21898 5.88321L4.13139 5.19708C4.16058 5.19708 16.146 3.08029 26.6569 4.20438Z" fill="white"/>
<path d="M101.942 4.91971H102.204C102.584 4.91971 102.613 4.72993 102.613 4.62774C102.613 4.36496 102.248 4.36496 102.204 4.36496H101.942V4.91971ZM102.409 3.89781C102.964 3.89781 103.241 4.18978 103.241 4.56934C103.241 4.91971 102.993 5.08029 102.759 5.13869C102.92 5.16788 103.007 5.34307 103.022 5.40146L103.416 6.35036H102.759L102.453 5.57664C102.438 5.54745 102.35 5.38686 102.146 5.38686H101.956V6.36496H101.343V3.89781H102.409ZM102.234 6.9781C103.255 6.9781 104.102 6.14599 104.102 5.10949C104.102 4.08759 103.27 3.24088 102.234 3.24088C101.212 3.24088 100.365 4.07299 100.365 5.10949C100.394 6.14599 101.212 6.9781 102.234 6.9781ZM102.234 2.71533C103.562 2.71533 104.642 3.78102 104.642 5.12409C104.642 6.45255 103.577 7.53285 102.234 7.53285C100.905 7.53285 99.8248 6.46715 99.8248 5.12409C99.8394 3.78102 100.905 2.71533 102.234 2.71533Z" fill="white"/>
<path fill-rule="evenodd" clip-rule="evenodd" d="M119.022 7.37226H125.942V14.292H119.022V7.37226ZM122.496 8.74453C121.299 8.74453 120.423 9.63504 120.423 10.8175C120.423 12.0146 121.299 12.8905 122.496 12.8905C123.679 12.8905 124.555 12.0146 124.555 10.8175C124.555 9.62044 123.679 8.74453 122.496 8.74453ZM124 10.8175C124 9.92701 123.358 9.27007 122.496 9.27007C121.62 9.27007 120.978 9.92701 120.978 10.8175C120.978 11.708 121.62 12.365 122.496 12.365C123.358 12.3942 124 11.7226 124 10.8175Z" fill="white"/>
<path fill-rule="evenodd" clip-rule="evenodd" d="M119.022 15.0803H125.942V22H119.022V15.0803ZM121.679 16.4964H121.095V20.5401H123.869V20.0438H121.679V16.4964Z" fill="white"/>
<path fill-rule="evenodd" clip-rule="evenodd" d="M111.343 15.0803H118.263V22H111.343V15.0803ZM113.942 18.4234V17.0073L116.219 16.9927V16.4964H113.358V20.5547H113.942V18.9197H115.971V18.4234H113.942Z" fill="white"/>
<path fill-rule="evenodd" clip-rule="evenodd" d="M111.343 7.37226H118.263V14.292H111.343V7.37226ZM113.445 11.9416L113.241 12.3942C113.547 12.6861 114.161 12.8905 114.818 12.9197C115.883 12.9197 116.38 12.3942 116.38 11.7664C116.38 10.9341 115.628 10.7504 114.957 10.5863C114.416 10.454 113.927 10.3345 113.927 9.89781C113.927 9.54744 114.219 9.25547 114.905 9.25547C115.255 9.25547 115.664 9.35766 116.015 9.57664L116.204 9.10949C115.854 8.86131 115.372 8.74453 114.891 8.74453C113.825 8.74453 113.343 9.27007 113.343 9.89781C113.343 10.74 114.098 10.9264 114.77 11.0923C115.309 11.2255 115.796 11.3455 115.796 11.781C115.796 12.1314 115.489 12.4088 114.788 12.4088C114.263 12.4088 113.737 12.219 113.445 11.9416Z" fill="#A20C33"/>
</svg>
