<svg xmlns="http://www.w3.org/2000/svg" width="114" height="24" viewBox="0 0 114 24" fill="none"><rect width="114" height="24" fill="none"/>
<path d="M19.3306 17.7057L21.0061 16.6259L12.3534 11.9972V10.1214L10.9129 9.34062V12.8287L19.3306 17.7057Z" fill="#000000"/>
<path d="M5.67618 5.89851L2 8.09877V10.005L3.70555 9.1634V17.0266L12.5083 22L13.9339 20.8137L5.67618 16.1901V5.89851Z" fill="#000000"/>
<path d="M9.20735 13.9645L17.325 18.6743L15.7594 19.8606L7.2367 14.9785V4.92008L8.88727 4.02273L17.0399 8.93531L15.7594 9.97461L9.20735 6.12161V13.9645Z" fill="#000000"/>
<path d="M20.5711 6.87709L12.4784 2L11.083 2.86692L19.3806 7.83528L20.5711 6.87709Z" fill="#000000"/>
<path d="M25.6255 10.7835V10.6111L26.5414 10.1693V4.28624L25.6255 3.84447V3.67207H29.0735C29.5907 3.67207 30.0504 3.73313 30.4526 3.85524C30.8621 3.97018 31.1818 4.14617 31.4116 4.38321C31.6487 4.61308 31.7672 4.90759 31.7672 5.26676C31.7672 5.6331 31.6271 5.97071 31.347 6.2796C31.074 6.5885 30.6789 6.804 30.1617 6.92609C30.8585 7.01949 31.4044 7.22422 31.7995 7.54026C32.2017 7.84916 32.4029 8.24063 32.4029 8.71472C32.4029 9.10982 32.27 9.4654 32.0042 9.78144C31.7384 10.0903 31.3721 10.3345 30.9052 10.5141C30.4454 10.6937 29.9211 10.7835 29.3321 10.7835H25.6255ZM28.5347 4.26469H28.1684V6.85066H28.5994C29.0735 6.85066 29.4434 6.73935 29.7092 6.51664C29.975 6.2868 30.1078 5.9779 30.1078 5.59C30.1078 4.70646 29.5834 4.26469 28.5347 4.26469ZM28.9118 7.37863H28.1684V10.1909H28.9873C29.5188 10.1909 29.9319 10.058 30.2264 9.79221C30.5281 9.52641 30.6789 9.18525 30.6789 8.7686C30.6789 8.2945 30.5245 7.94614 30.2156 7.72343C29.9139 7.49359 29.4793 7.37863 28.9118 7.37863ZM35.7289 10.8912C34.989 10.8912 34.4036 10.6793 33.9726 10.2555C33.5487 9.82453 33.3369 9.25703 33.3369 8.5531C33.3369 8.00715 33.4554 7.52591 33.6925 7.10926C33.9295 6.68547 34.2491 6.35502 34.6514 6.11797C35.0537 5.88092 35.5026 5.7624 35.9983 5.7624C36.5801 5.7624 37.0327 5.95635 37.3559 6.34424C37.6792 6.73214 37.8444 7.28166 37.8516 7.9928L37.8085 8.04668H34.7915V8.10055C34.7915 8.40225 34.8489 8.67883 34.9639 8.93022C35.0788 9.17447 35.2584 9.36842 35.5026 9.51206C35.754 9.65571 36.0773 9.72756 36.4724 9.72756C36.6807 9.72756 36.8962 9.70244 37.1189 9.65214C37.3487 9.60183 37.5858 9.51563 37.83 9.39354H37.8623V9.56594C37.6827 9.94663 37.4062 10.2627 37.0327 10.5141C36.6663 10.7655 36.2317 10.8912 35.7289 10.8912ZM35.7505 6.24727C35.499 6.24727 35.2907 6.36223 35.1255 6.59207C34.9675 6.82191 34.8669 7.14516 34.8238 7.56181H36.6448C36.5945 7.06616 36.4903 6.72494 36.3323 6.53819C36.1815 6.34425 35.9875 6.24727 35.7505 6.24727ZM38.6068 13.2617V13.0893L39.3287 12.7445V7.05539L38.6391 6.54897V6.41967L40.6002 5.7624H40.7295L40.8157 6.41967H40.8803C41.1461 6.18983 41.4011 6.02459 41.6453 5.92402C41.8967 5.81628 42.1661 5.7624 42.4534 5.7624C42.7695 5.7624 43.064 5.85937 43.337 6.05332C43.6171 6.24007 43.8398 6.50944 44.005 6.86144C44.1702 7.21344 44.2529 7.63366 44.2529 8.1221C44.2529 8.69674 44.1379 9.19239 43.9081 9.60904C43.6782 10.0185 43.3729 10.3345 42.9922 10.5572C42.6114 10.7799 42.1984 10.8912 41.7531 10.8912C41.5878 10.8912 41.4262 10.884 41.2682 10.8697C41.1174 10.8554 40.9737 10.8266 40.8372 10.7835V12.7445L41.6777 13.0893V13.2617H38.6068ZM41.5591 6.64594C41.4298 6.64594 41.3077 6.66392 41.1928 6.69982C41.085 6.73571 40.9665 6.78958 40.8372 6.86144V9.97538C41.0455 10.2124 41.3292 10.331 41.6884 10.331C41.8608 10.331 42.026 10.2771 42.1841 10.1693C42.3493 10.0616 42.4821 9.8712 42.5827 9.59826C42.6905 9.32532 42.7444 8.93742 42.7444 8.43457C42.7444 7.81684 42.6222 7.36429 42.378 7.07694C42.1338 6.78958 41.8608 6.64594 41.5591 6.64594ZM45.6737 6.38734L44.9518 6.04255V5.87015H47.6994V6.04255L47.1822 6.38734V7.9497H48.8092V6.38734L48.3028 6.04255V5.87015H51.0504V6.04255L50.3285 6.38734V10.2663L51.0504 10.6111V10.7835H48.3028V10.6111L48.8092 10.2663V8.47767H47.1822V10.2663L47.6994 10.6111V10.7835H44.9518V10.6111L45.6737 10.2663V6.38734ZM54.3359 10.8912C53.8259 10.8912 53.377 10.7763 52.9891 10.5465C52.6012 10.3094 52.2995 9.99693 52.084 9.60904C51.8685 9.22114 51.7607 8.79371 51.7607 8.32683C51.7607 7.85273 51.8685 7.42173 52.084 7.03384C52.2995 6.64594 52.6012 6.33704 52.9891 6.1072C53.377 5.87734 53.8259 5.7624 54.3359 5.7624C54.846 5.7624 55.2913 5.87734 55.672 6.1072C56.0599 6.33704 56.3616 6.64594 56.5771 7.03384C56.7926 7.42173 56.9004 7.85273 56.9004 8.32683C56.9004 8.79371 56.7926 9.22114 56.5771 9.60904C56.3616 9.99693 56.0599 10.3094 55.672 10.5465C55.2913 10.7763 54.846 10.8912 54.3359 10.8912ZM54.4545 10.3633C54.6628 10.3633 54.8316 10.2806 54.9609 10.1155C55.0974 9.94306 55.1944 9.71679 55.2518 9.43664C55.3165 9.15649 55.3488 8.85836 55.3488 8.54232C55.3488 8.15443 55.3093 7.78808 55.2303 7.44328C55.1585 7.09849 55.0399 6.81834 54.8747 6.60284C54.7167 6.38734 54.5048 6.2796 54.239 6.2796C54.0235 6.2796 53.8475 6.36579 53.711 6.53819C53.5746 6.70339 53.4739 6.92609 53.4093 7.20624C53.3446 7.47918 53.3123 7.77731 53.3123 8.10055C53.3123 8.49565 53.3519 8.86557 53.4308 9.21037C53.5099 9.54796 53.632 9.82454 53.7972 10.04C53.9696 10.2555 54.1887 10.3633 54.4545 10.3633ZM60.225 10.8912C59.4851 10.8912 58.8996 10.6793 58.4686 10.2555C58.0448 9.82453 57.8329 9.25703 57.8329 8.5531C57.8329 8.00715 57.9514 7.52591 58.1885 7.10926C58.4255 6.68547 58.7452 6.35502 59.1475 6.11797C59.5497 5.88092 59.9987 5.7624 60.4943 5.7624C61.0762 5.7624 61.5287 5.95635 61.852 6.34424C62.1752 6.73214 62.3404 7.28166 62.3476 7.9928L62.3045 8.04668H59.2875V8.10055C59.2875 8.40225 59.345 8.67883 59.4599 8.93022C59.5748 9.17447 59.7544 9.36842 59.9987 9.51206C60.2501 9.65571 60.5733 9.72756 60.9684 9.72756C61.1767 9.72756 61.3922 9.70244 61.6149 9.65214C61.8448 9.60183 62.0818 9.51563 62.3261 9.39354H62.3584V9.56594C62.1788 9.94663 61.9022 10.2627 61.5287 10.5141C61.1624 10.7655 60.7277 10.8912 60.225 10.8912ZM60.2465 6.24727C59.995 6.24727 59.7868 6.36223 59.6216 6.59207C59.4635 6.82191 59.363 7.14516 59.3199 7.56181H61.1408C61.0905 7.06616 60.9863 6.72494 60.8283 6.53819C60.6775 6.34425 60.4835 6.24727 60.2465 6.24727ZM65.7963 13.2617V13.0893L66.5182 12.7445V7.05539L65.8286 6.54897V6.41967L67.7897 5.7624H67.919L68.0052 6.41967H68.0698C68.3358 6.18983 68.591 6.02459 68.8348 5.92402C69.0867 5.81628 69.3561 5.7624 69.643 5.7624C69.9595 5.7624 70.2538 5.85937 70.5265 6.05332C70.8066 6.24007 71.0295 6.50944 71.1945 6.86144C71.3602 7.21344 71.4424 7.63366 71.4424 8.1221C71.4424 8.69674 71.3279 9.19239 71.0976 9.60904C70.8679 10.0185 70.5629 10.3345 70.1817 10.5572C69.8012 10.7799 69.3884 10.8912 68.9426 10.8912C68.7776 10.8912 68.616 10.884 68.4577 10.8697C68.3069 10.8554 68.1634 10.8266 68.0267 10.7835V12.7445L68.8672 13.0893V13.2617H65.7963ZM68.7486 6.64594C68.6193 6.64594 68.4974 6.66392 68.3823 6.69982C68.2745 6.73571 68.156 6.78958 68.0267 6.86144V9.97538C68.2355 10.2124 68.519 10.331 68.8779 10.331C69.0503 10.331 69.216 10.2771 69.3736 10.1693C69.5392 10.0616 69.6719 9.8712 69.7723 9.59826C69.88 9.32532 69.9339 8.93742 69.9339 8.43457C69.9339 7.81684 69.812 7.36429 69.5675 7.07694C69.3237 6.78958 69.0503 6.64594 68.7486 6.64594ZM74.7563 10.8912C74.0162 10.8912 73.431 10.6793 73 10.2555C72.5764 9.82453 72.3643 9.25703 72.3643 8.5531C72.3643 8.00715 72.4828 7.52591 72.7199 7.10926C72.9569 6.68547 73.2768 6.35502 73.6788 6.11797C74.0809 5.88092 74.53 5.7624 75.0257 5.7624C75.6075 5.7624 76.0601 5.95635 76.3833 6.34424C76.7066 6.73214 76.8716 7.28166 76.879 7.9928L76.8359 8.04668H73.8189V8.10055C73.8189 8.40225 73.8761 8.67883 73.9913 8.93022C74.1065 9.17447 74.2856 9.36842 74.53 9.51206C74.7812 9.65571 75.1045 9.72756 75.4998 9.72756C75.7079 9.72756 75.9234 9.70244 76.1463 9.65214C76.3759 9.60183 76.613 9.51563 76.8574 9.39354H76.8897V9.56594C76.7099 9.94663 76.4338 10.2627 76.0601 10.5141C75.6937 10.7655 75.2594 10.8912 74.7563 10.8912ZM74.7779 6.24727C74.5267 6.24727 74.3179 6.36223 74.1529 6.59207C73.9947 6.82191 73.8943 7.14516 73.8512 7.56181H75.6722C75.6217 7.06616 75.518 6.72494 75.3597 6.53819C75.2089 6.34425 75.0149 6.24727 74.7779 6.24727ZM78.3565 10.2663V6.38734L77.6346 6.04255V5.87015H80.4468V6.04255L79.865 6.38734V10.2555H81.4165V6.38734L80.8455 6.04255V5.87015H83.5069V6.04255L82.9358 6.38734V10.2555H84.4766V6.38734L83.9055 6.04255V5.87015H86.7178V6.04255L85.9959 6.38734V10.2663L86.7178 10.6111V10.7835H77.6346V10.6111L78.3565 10.2663ZM89.7718 10.8912C89.0317 10.8912 88.4465 10.6793 88.0155 10.2555C87.5919 9.82453 87.3798 9.25703 87.3798 8.5531C87.3798 8.00715 87.4983 7.52591 87.7353 7.10926C87.9724 6.68547 88.2923 6.35502 88.6943 6.11797C89.0963 5.88092 89.5455 5.7624 90.0412 5.7624C90.623 5.7624 91.0756 5.95635 91.3988 6.34424C91.7221 6.73214 91.887 7.28166 91.8944 7.9928L91.8514 8.04668H88.8344V8.10055C88.8344 8.40225 88.8916 8.67883 89.0068 8.93022C89.1219 9.17447 89.3011 9.36842 89.5455 9.51206C89.7967 9.65571 90.12 9.72756 90.5153 9.72756C90.7234 9.72756 90.9389 9.70244 91.1618 9.65214C91.3914 9.60183 91.6284 9.51563 91.8729 9.39354H91.9052V9.56594C91.7254 9.94663 91.4493 10.2627 91.0756 10.5141C90.7092 10.7655 90.2749 10.8912 89.7718 10.8912ZM89.7934 6.24727C89.5422 6.24727 89.3334 6.36223 89.1684 6.59207C89.0102 6.82191 88.9098 7.14516 88.8667 7.56181H90.6877C90.6372 7.06616 90.5334 6.72494 90.3752 6.53819C90.2243 6.34425 90.0304 6.24727 89.7934 6.24727ZM93.3713 6.38734L92.6494 6.04255V5.87015H95.397V6.04255L94.8798 6.38734V7.9497H96.5068V6.38734L96.0004 6.04255V5.87015H98.748V6.04255L98.026 6.38734V10.2663L98.748 10.6111V10.7835H96.0004V10.6111L96.5068 10.2663V8.47767H94.8798V10.2663L95.397 10.6111V10.7835H92.6494V10.6111L93.3713 10.2663V6.38734ZM100.137 6.38734L99.4153 6.04255V5.87015H102.163V6.04255L101.646 6.38734V9.02719L103.38 6.78602V6.38734L102.874 6.04255V5.87015H105.622V6.04255L104.9 6.38734V10.2663L105.622 10.6111V10.7835H102.874V10.6111L103.38 10.2663V7.60491L101.646 9.84608V10.2663L102.163 10.6111V10.7835H99.4153V10.6111L100.137 10.2663V6.38734ZM108.754 10.8912C108.014 10.8912 107.428 10.6793 106.997 10.2555C106.574 9.82453 106.362 9.25703 106.362 8.5531C106.362 8.00715 106.48 7.52591 106.717 7.10926C106.954 6.68547 107.274 6.35502 107.676 6.11797C108.079 5.88092 108.528 5.7624 109.023 5.7624C109.605 5.7624 110.058 5.95635 110.381 6.34424C110.704 6.73214 110.87 7.28166 110.876 7.9928L110.833 8.04668H107.816V8.10055C107.816 8.40225 107.874 8.67883 107.989 8.93022C108.104 9.17447 108.284 9.36842 108.528 9.51206C108.779 9.65571 109.103 9.72756 109.497 9.72756C109.706 9.72756 109.922 9.70244 110.144 9.65214C110.374 9.60183 110.611 9.51563 110.855 9.39354H110.887V9.56594C110.708 9.94663 110.431 10.2627 110.058 10.5141C109.691 10.7655 109.257 10.8912 108.754 10.8912ZM108.775 6.24727C108.524 6.24727 108.316 6.36223 108.15 6.59207C107.993 6.82191 107.892 7.14516 107.849 7.56181H109.67C109.62 7.06616 109.515 6.72494 109.357 6.53819C109.206 6.34425 109.012 6.24727 108.775 6.24727Z" fill="#000000"/>
<path d="M25.5015 19.538V19.4518L25.9325 19.2363V16.284L25.5015 16.0685V15.9823H29.0034V16.0685L28.5724 16.284V19.2363L29.0034 19.4518V19.538H27.6565V19.4518L28.0875 19.2363V16.2786H26.4174V19.2363L26.8484 19.4518V19.538H25.5015ZM30.7504 19.5919C30.402 19.5919 30.1273 19.4859 29.9261 19.274C29.725 19.0621 29.6244 18.7819 29.6244 18.4336C29.6244 18.1642 29.6765 17.9271 29.7807 17.7224C29.8884 17.5141 30.0285 17.3525 30.2009 17.2375C30.3768 17.119 30.5672 17.0598 30.772 17.0598C31.0557 17.0598 31.2784 17.1586 31.44 17.3561C31.6052 17.5536 31.6878 17.8374 31.6878 18.2073L31.6609 18.2342H30.05C30.0536 18.3994 30.0859 18.5557 30.147 18.7029C30.2081 18.8466 30.3051 18.9633 30.4379 19.0531C30.5744 19.1429 30.7558 19.1878 30.9821 19.1878C31.1796 19.1878 31.4112 19.1159 31.677 18.9723H31.6932V19.0262C31.6106 19.1806 31.4867 19.3135 31.3215 19.4249C31.1598 19.5362 30.9695 19.5919 30.7504 19.5919ZM30.6858 17.2968C30.5134 17.2968 30.3715 17.3579 30.2601 17.48C30.1524 17.5985 30.0859 17.7673 30.0608 17.9864H31.2784C31.2388 17.7422 31.1688 17.5662 31.0683 17.4584C30.9713 17.3507 30.8438 17.2968 30.6858 17.2968ZM32.2232 20.7771V20.6909L32.5626 20.5185V17.6739L32.2394 17.3938V17.3561L32.9074 17.0598H32.9397L32.9828 17.3884H33.0205C33.157 17.2734 33.2881 17.1909 33.4138 17.1406C33.5396 17.0867 33.676 17.0598 33.8233 17.0598C34.0064 17.0598 34.1681 17.1064 34.3081 17.1998C34.4482 17.2932 34.5578 17.4261 34.6368 17.5985C34.7194 17.7673 34.7607 17.9702 34.7607 18.2073C34.7607 18.5018 34.705 18.7532 34.5937 18.9615C34.4859 19.1663 34.3386 19.3225 34.1519 19.4302C33.9652 19.538 33.7604 19.5919 33.5377 19.5919C33.3366 19.5919 33.1552 19.5739 32.9936 19.538V20.5185L33.3761 20.6909V20.7771H32.2232ZM33.527 17.4315C33.4408 17.4315 33.351 17.4458 33.2576 17.4746C33.1678 17.4997 33.0798 17.5392 32.9936 17.5931V19.107C33.1013 19.1932 33.2109 19.2525 33.3222 19.2848C33.4336 19.3171 33.5575 19.3333 33.694 19.3333C33.8664 19.3333 34.0154 19.2614 34.1411 19.1178C34.2669 18.9705 34.3297 18.7263 34.3297 18.3851C34.3297 18.1624 34.2938 17.981 34.2219 17.8409C34.1501 17.7009 34.0531 17.5985 33.931 17.5339C33.8089 17.4656 33.6742 17.4315 33.527 17.4315ZM35.6194 17.3722L35.28 17.1998V17.1136H36.282C36.6088 17.1136 36.8728 17.1532 37.074 17.2322C37.2787 17.3112 37.3811 17.4549 37.3811 17.6632C37.3811 17.7925 37.338 17.9092 37.2518 18.0133C37.1691 18.1175 37.0165 18.1893 36.7938 18.2288C36.9878 18.2504 37.1386 18.2917 37.2464 18.3527C37.3577 18.4138 37.4367 18.4856 37.4834 18.5682C37.5301 18.6472 37.5535 18.7281 37.5535 18.8107C37.5535 19.0513 37.4457 19.2327 37.2302 19.3548C37.0147 19.4769 36.6843 19.538 36.2389 19.538H35.28V19.4518L35.6194 19.2794V17.3722ZM36.4436 17.3453H36.0504V18.148H36.4275C36.6035 18.148 36.7292 18.1103 36.8046 18.0349C36.8836 17.9595 36.9231 17.8661 36.9231 17.7547C36.9231 17.6434 36.8872 17.5482 36.8154 17.4692C36.7435 17.3866 36.6196 17.3453 36.4436 17.3453ZM36.4221 18.3527H36.0504V19.3063H36.4006C36.634 19.3063 36.8028 19.2686 36.907 19.1932C37.0147 19.1142 37.0686 19.0028 37.0686 18.8592C37.0686 18.7011 37.0165 18.5772 36.9124 18.4874C36.8118 18.3977 36.6484 18.3527 36.4221 18.3527ZM41.0876 17.3722V19.2794L41.427 19.4518V19.538H40.3172V19.4518L40.6566 19.2794V17.3722L40.3172 17.1998V17.1136H41.427V17.1998L41.0876 17.3722ZM38.9757 18.0457C39.3133 18.0457 39.5738 18.0834 39.7569 18.1588C39.9401 18.2307 40.0676 18.3222 40.1394 18.4336C40.2112 18.5449 40.2472 18.6563 40.2472 18.7676C40.2472 19.019 40.1394 19.2112 39.9239 19.344C39.7084 19.4733 39.378 19.538 38.9327 19.538H37.9737V19.4518L38.3131 19.2794V17.3722L37.9737 17.1998V17.1136H39.1912V17.1998L38.7441 17.3722V18.0457H38.9757ZM39.1158 18.3043H38.7441V19.2848H39.0943C39.3277 19.2848 39.4965 19.2435 39.6007 19.1609C39.7084 19.0747 39.7623 18.9597 39.7623 18.8161C39.7623 18.6509 39.7102 18.5251 39.6061 18.4389C39.5055 18.3492 39.3421 18.3043 39.1158 18.3043ZM42.2853 17.3722L41.9459 17.1998V17.1136H43.0557V17.1998L42.7163 17.3722V18.7622L43.9015 17.5608V17.3722L43.5621 17.1998V17.1136H44.6719V17.1998L44.3325 17.3722V19.2794L44.6719 19.4518V19.538H43.5621V19.4518L43.9015 19.2794V17.8894L42.7163 19.0908V19.2794L43.0557 19.4518V19.538H41.9459V19.4518L42.2853 19.2794V17.3722ZM42.4038 15.7291H42.8671C42.8671 15.9338 42.9012 16.1008 42.9695 16.2301C43.0413 16.3558 43.1545 16.4187 43.3089 16.4187C43.4633 16.4187 43.5747 16.3558 43.6429 16.2301C43.7148 16.1008 43.7506 15.9338 43.7506 15.7291H44.214C44.214 15.9912 44.1367 16.2067 43.9823 16.3756C43.8279 16.5444 43.6034 16.6288 43.3089 16.6288C43.0144 16.6288 42.7899 16.5444 42.6354 16.3756C42.481 16.2067 42.4038 15.9912 42.4038 15.7291ZM47.6704 19.5919C47.322 19.5919 47.0472 19.4859 46.8461 19.274C46.6449 19.0621 46.5444 18.7819 46.5444 18.4336C46.5444 18.1642 46.5982 17.9271 46.706 17.7224C46.8173 17.5141 46.9664 17.3525 47.1532 17.2375C47.3399 17.119 47.55 17.0598 47.7835 17.0598C47.9271 17.0598 48.0672 17.0849 48.2037 17.1352C48.3402 17.1819 48.4443 17.2448 48.5162 17.3237C48.5736 17.392 48.6024 17.4458 48.6024 17.4854C48.6024 17.5357 48.579 17.5788 48.5323 17.6147L48.3276 17.7871H48.2899L48.1067 17.5392C48.0529 17.4674 47.9846 17.4099 47.902 17.3668C47.823 17.3202 47.7242 17.2968 47.6057 17.2968C47.4082 17.2968 47.2519 17.3758 47.137 17.5339C47.0257 17.6883 46.97 17.9056 46.97 18.1857C46.97 18.3581 46.9987 18.5216 47.0562 18.676C47.1136 18.8268 47.2088 18.9508 47.3417 19.0477C47.4782 19.1411 47.665 19.1878 47.902 19.1878C48.0995 19.1878 48.3312 19.1159 48.597 18.9723H48.6132V19.0262C48.5305 19.1806 48.4066 19.3135 48.2414 19.4249C48.0798 19.5362 47.8894 19.5919 47.6704 19.5919ZM50.2483 19.5919C49.8999 19.5919 49.6252 19.4859 49.424 19.274C49.2229 19.0621 49.1223 18.7819 49.1223 18.4336C49.1223 18.1642 49.1744 17.9271 49.2786 17.7224C49.3863 17.5141 49.5264 17.3525 49.6988 17.2375C49.8748 17.119 50.0651 17.0598 50.2699 17.0598C50.5536 17.0598 50.7763 17.1586 50.9379 17.3561C51.1031 17.5536 51.1857 17.8374 51.1857 18.2073L51.1588 18.2342H49.5479C49.5515 18.3994 49.5838 18.5557 49.6449 18.7029C49.706 18.8466 49.803 18.9633 49.9358 19.0531C50.0723 19.1429 50.2537 19.1878 50.48 19.1878C50.6775 19.1878 50.9092 19.1159 51.175 18.9723H51.1911V19.0262C51.1085 19.1806 50.9846 19.3135 50.8194 19.4249C50.6578 19.5362 50.4674 19.5919 50.2483 19.5919ZM50.1837 17.2968C50.0113 17.2968 49.8694 17.3579 49.7581 17.48C49.6503 17.5985 49.5838 17.7673 49.5587 17.9864H50.7763C50.7367 17.7422 50.6667 17.5662 50.5662 17.4584C50.4692 17.3507 50.3417 17.2968 50.1837 17.2968ZM51.7211 20.7771V20.6909L52.0605 20.5185V17.6739L51.7373 17.3938V17.3561L52.4053 17.0598H52.4376L52.4807 17.3884H52.5184C52.6549 17.2734 52.786 17.1909 52.9117 17.1406C53.0375 17.0867 53.1739 17.0598 53.3212 17.0598C53.5043 17.0598 53.666 17.1064 53.806 17.1998C53.9461 17.2932 54.0557 17.4261 54.1347 17.5985C54.2173 17.7673 54.2586 17.9702 54.2586 18.2073C54.2586 18.5018 54.2029 18.7532 54.0916 18.9615C53.9838 19.1663 53.8366 19.3225 53.6498 19.4302C53.4631 19.538 53.2583 19.5919 53.0356 19.5919C52.8345 19.5919 52.6531 19.5739 52.4915 19.538V20.5185L52.874 20.6909V20.7771H51.7211ZM53.0249 17.4315C52.9387 17.4315 52.8489 17.4458 52.7555 17.4746C52.6657 17.4997 52.5777 17.5392 52.4915 17.5931V19.107C52.5993 19.1932 52.7088 19.2525 52.8201 19.2848C52.9315 19.3171 53.0554 19.3333 53.1919 19.3333C53.3643 19.3333 53.5133 19.2614 53.639 19.1178C53.7648 18.9705 53.8276 18.7263 53.8276 18.3851C53.8276 18.1624 53.7917 17.981 53.7198 17.8409C53.648 17.7009 53.551 17.5985 53.4289 17.5339C53.3068 17.4656 53.1721 17.4315 53.0249 17.4315ZM54.6809 18.0349V17.1136H57.0083V18.0349H56.9221L56.5557 17.3668H56.0601V19.2794L56.4749 19.4518V19.538H55.2143V19.4518L55.6291 19.2794V17.3668H55.1334L54.7671 18.0349H54.6809ZM57.7689 17.3722L57.4295 17.1998V17.1136H58.5393V17.1998L58.1999 17.3722V18.7622L59.3852 17.5608V17.3722L59.0457 17.1998V17.1136H60.1556V17.1998L59.8161 17.3722V19.2794L60.1556 19.4518V19.538H59.0457V19.4518L59.3852 19.2794V17.8894L58.1999 19.0908V19.2794L58.5393 19.4518V19.538H57.4295V19.4518L57.7689 19.2794V17.3722ZM61.6778 20.7771V20.6909L62.0173 20.5185V19.5919C61.7515 19.5811 61.518 19.52 61.3169 19.4087C61.1157 19.2974 60.9595 19.1483 60.8482 18.9615C60.7368 18.7712 60.6812 18.5593 60.6812 18.3258C60.6812 18.0923 60.7368 17.8822 60.8482 17.6955C60.9595 17.5051 61.1157 17.3543 61.3169 17.2429C61.518 17.1316 61.7515 17.0705 62.0173 17.0598V16.1116L61.694 15.8314V15.7937L62.4159 15.4974H62.4483V17.0598C62.714 17.0705 62.9456 17.1334 63.1432 17.2483C63.3407 17.3596 63.4952 17.5087 63.6066 17.6955C63.7179 17.8822 63.7736 18.0923 63.7736 18.3258C63.7736 18.5593 63.7179 18.7694 63.6066 18.9561C63.4952 19.1429 63.3407 19.2937 63.1432 19.4087C62.9456 19.52 62.714 19.5811 62.4483 19.5919V20.5185L62.7877 20.6909V20.7771H61.6778ZM61.166 18.2127C61.166 18.3886 61.1947 18.5593 61.2522 18.7245C61.3132 18.8897 61.4067 19.0298 61.5324 19.1447C61.658 19.2597 61.8197 19.3279 62.0173 19.3494V17.286C61.8197 17.286 61.658 17.331 61.5324 17.4207C61.4067 17.5105 61.3132 17.6273 61.2522 17.7709C61.1947 17.911 61.166 18.0583 61.166 18.2127ZM63.2887 18.4336C63.2887 18.2576 63.2599 18.0869 63.2025 17.9218C63.145 17.7566 63.0534 17.6165 62.9277 17.5015C62.8056 17.3866 62.6458 17.3184 62.4483 17.2968V19.3602C62.6422 19.3602 62.8002 19.3153 62.9223 19.2255C63.048 19.1357 63.1396 19.0208 63.1971 18.8807C63.2581 18.7371 63.2887 18.588 63.2887 18.4336ZM64.64 17.3722L64.3006 17.1998V17.1136H65.4104V17.1998L65.071 17.3722V18.7622L66.2562 17.5608V17.3722L65.9168 17.1998V17.1136H67.0266V17.1998L66.6872 17.3722V19.2794L67.0266 19.4518V19.538H65.9168V19.4518L66.2562 19.2794V17.8894L65.071 19.0908V19.2794L65.4104 19.4518V19.538H64.3006V19.4518L64.64 19.2794V17.3722ZM69.4274 19.538L69.2227 19.2578L68.3122 18.2989V19.2794L68.6516 19.4518V19.538H67.5418V19.4518L67.8812 19.2794V17.3722L67.5418 17.1998V17.1136H68.6516V17.1998L68.3122 17.3722V18.2181L69.2873 17.4261V17.3938L69.1311 17.1998V17.1136H70.0793V17.1998L69.7022 17.3884L68.7271 18.148L69.7938 19.2686L70.1386 19.4518V19.538H69.4274ZM71.0484 19.5919C70.88 19.5919 70.7399 19.5434 70.6281 19.4464C70.517 19.3459 70.4611 19.2075 70.4611 19.0316C70.4611 18.8556 70.5258 18.7029 70.6551 18.5736C70.7884 18.4443 71.0093 18.3438 71.3177 18.2719L71.8296 18.1534V17.7601C71.8296 17.638 71.7797 17.5339 71.6787 17.4477C71.5817 17.3579 71.4706 17.313 71.3447 17.313C71.2086 17.313 71.113 17.3507 71.0591 17.4261C71.0053 17.498 70.9783 17.5949 70.9783 17.717V17.8679L70.9514 17.8948H70.6712C70.6174 17.8948 70.5797 17.8859 70.5581 17.8679C70.5406 17.8499 70.5312 17.8086 70.5312 17.744C70.5312 17.665 70.5547 17.5842 70.6012 17.5015C70.6483 17.4189 70.7197 17.3471 70.8167 17.286C70.9177 17.2214 71.0214 17.1675 71.1292 17.1244C71.241 17.0813 71.3595 17.0598 71.4847 17.0598C71.6107 17.0598 71.7326 17.0777 71.8511 17.1136C71.9737 17.1495 72.072 17.2106 72.1474 17.2968C72.2228 17.3794 72.2605 17.4961 72.2605 17.647V19.177C72.2861 19.2021 72.3218 19.2237 72.3683 19.2417C72.4154 19.2597 72.4801 19.2686 72.5622 19.2686H72.767L72.7831 19.2794V19.2956C72.74 19.3745 72.6754 19.4446 72.5892 19.5057C72.507 19.5631 72.4047 19.5919 72.2821 19.5919C72.171 19.5919 72.0794 19.5631 72.0073 19.5057C71.9393 19.4446 71.8908 19.3656 71.8619 19.2686H71.8296C71.7366 19.362 71.6194 19.4392 71.4794 19.5003C71.3433 19.5614 71.1992 19.5919 71.0484 19.5919ZM70.8814 18.9238C70.8814 19.1465 71.016 19.2578 71.2854 19.2578C71.3716 19.2578 71.4565 19.2489 71.5386 19.2309C71.6248 19.2129 71.7218 19.1806 71.8296 19.1339V18.3366C71.5427 18.3905 71.3326 18.4479 71.1992 18.509C71.0666 18.5664 70.9804 18.6293 70.9406 18.6975C70.9016 18.7658 70.8814 18.8412 70.8814 18.9238ZM73.4417 19.2794V17.3722L73.1023 17.1998V17.1136H74.2121V17.1998L73.8727 17.3722V19.2848H74.9502V17.3722L74.6108 17.1998V17.1136H75.7206V17.1998L75.3812 17.3722V19.2848H75.7637V20.206H75.6775L75.3112 19.538H73.1023V19.4518L73.4417 19.2794ZM76.6042 17.3722L76.2648 17.1998V17.1136H77.3746V17.1998L77.0352 17.3722V18.7622L78.2204 17.5608V17.3722L77.881 17.1998V17.1136H78.9908V17.1998L78.6514 17.3722V19.2794L78.9908 19.4518V19.538H77.881V19.4518L78.2204 19.2794V17.8894L77.0352 19.0908V19.2794L77.3746 19.4518V19.538H76.2648V19.4518L76.6042 19.2794V17.3722ZM80.7013 19.5919C80.4643 19.5919 80.2562 19.5362 80.0764 19.4249C79.9006 19.3135 79.7619 19.1627 79.6615 18.9723C79.5646 18.7819 79.5161 18.5664 79.5161 18.3258C79.5161 18.0852 79.5646 17.8697 79.6615 17.6793C79.7619 17.4889 79.9006 17.3381 80.0764 17.2268C80.2562 17.1155 80.4643 17.0598 80.7013 17.0598C80.9384 17.0598 81.1451 17.1155 81.3209 17.2268C81.5007 17.3381 81.6387 17.4889 81.7357 17.6793C81.8361 17.8697 81.8866 18.0852 81.8866 18.3258C81.8866 18.5664 81.8361 18.7819 81.7357 18.9723C81.6387 19.1627 81.5007 19.3135 81.3209 19.4249C81.1451 19.5362 80.9384 19.5919 80.7013 19.5919ZM80.7767 19.3602C80.9202 19.3602 81.0387 19.3153 81.1323 19.2255C81.2259 19.1357 81.2939 19.0208 81.337 18.8807C81.3801 18.7371 81.4017 18.588 81.4017 18.4336C81.4017 18.2432 81.3748 18.06 81.3209 17.884C81.2704 17.7081 81.1882 17.5644 81.0731 17.453C80.9619 17.3417 80.8165 17.286 80.6367 17.286C80.4892 17.286 80.3693 17.331 80.2757 17.4207C80.1821 17.5105 80.1121 17.6254 80.0656 17.7655C80.0225 17.9056 80.001 18.0546 80.001 18.2127C80.001 18.4031 80.0279 18.5862 80.0818 18.7622C80.1356 18.9382 80.2198 19.0819 80.335 19.1932C80.4501 19.3045 80.5969 19.3602 80.7767 19.3602ZM82.7539 17.3722L82.4145 17.1998V17.1136H83.5243V17.1998L83.1849 17.3722V18.1696H84.3163V17.3722L83.9769 17.1998V17.1136H85.0867V17.1998L84.7473 17.3722V19.2794L85.0867 19.4518V19.538H83.9769V19.4518L84.3163 19.2794V18.4228H83.1849V19.2794L83.5243 19.4518V19.538H82.4145V19.4518L82.7539 19.2794V17.3722ZM85.9426 17.3722L85.6032 17.1998V17.1136H86.713V17.1998L86.3736 17.3722V18.1696H87.505V17.3722L87.1656 17.1998V17.1136H88.2754V17.1998L87.936 17.3722V19.2794L88.2754 19.4518V19.538H87.1656V19.4518L87.505 19.2794V18.4228H86.3736V19.2794L86.713 19.4518V19.538H85.6032V19.4518L85.9426 19.2794V17.3722ZM91.9052 17.3722V19.2794L92.2446 19.4518V19.538H91.1348V19.4518L91.4742 19.2794V17.3722L91.1348 17.1998V17.1136H92.2446V17.1998L91.9052 17.3722ZM89.7933 18.0457C90.1314 18.0457 90.3913 18.0834 90.5745 18.1588C90.7577 18.2307 90.8856 18.3222 90.957 18.4336C91.0291 18.5449 91.0647 18.6563 91.0647 18.7676C91.0647 19.019 90.957 19.2112 90.7415 19.344C90.526 19.4733 90.196 19.538 89.7502 19.538H88.7913V19.4518L89.1307 19.2794V17.3722L88.7913 17.1998V17.1136H90.0088V17.1998L89.5617 17.3722V18.0457H89.7933ZM89.9334 18.3043H89.5617V19.2848H89.9118C90.1455 19.2848 90.3146 19.2435 90.4183 19.1609C90.526 19.0747 90.5799 18.9597 90.5799 18.8161C90.5799 18.6509 90.528 18.5251 90.4236 18.4389C90.3233 18.3492 90.1597 18.3043 89.9334 18.3043ZM93.1032 17.3722L92.7638 17.1998V17.1136H93.8736V17.1998L93.5342 17.3722V18.7622L94.7195 17.5608V17.3722L94.38 17.1998V17.1136H95.4899V17.1998L95.1505 17.3722V19.2794L95.4899 19.4518V19.538H94.38V19.4518L94.7195 19.2794V17.8894L93.5342 19.0908V19.2794L93.8736 19.4518V19.538H92.7638V19.4518L93.1032 19.2794V17.3722ZM93.2217 15.7291H93.6851C93.6851 15.9338 93.7187 16.1008 93.7874 16.2301C93.8588 16.3558 93.9719 16.4187 94.1268 16.4187C94.281 16.4187 94.3922 16.3558 94.4609 16.2301C94.5322 16.1008 94.5686 15.9338 94.5686 15.7291H95.0319C95.0319 15.9912 94.9545 16.2067 94.8003 16.3756C94.6454 16.5444 94.4211 16.6288 94.1268 16.6288C93.8319 16.6288 93.6076 16.5444 93.4534 16.3756C93.2985 16.2067 93.2217 15.9912 93.2217 15.7291ZM97.6906 19.2794V17.3722L97.3512 17.1998V17.1136H98.461V17.1998L98.1216 17.3722V19.2848H99.1991V17.3722L98.8597 17.1998V17.1136H99.9695V17.1998L99.6301 17.3722V19.2848H100.013V20.206H99.9264L99.5601 19.538H97.3512V19.4518L97.6906 19.2794ZM101.65 19.5919C101.302 19.5919 101.027 19.4859 100.825 19.274C100.625 19.0621 100.524 18.7819 100.524 18.4336C100.524 18.1642 100.576 17.9271 100.68 17.7224C100.788 17.5141 100.928 17.3525 101.1 17.2375C101.277 17.119 101.467 17.0598 101.671 17.0598C101.955 17.0598 102.178 17.1586 102.339 17.3561C102.505 17.5536 102.587 17.8374 102.587 18.2073L102.56 18.2342H100.949C100.953 18.3994 100.986 18.5557 101.046 18.7029C101.108 18.8466 101.205 18.9633 101.337 19.0531C101.474 19.1429 101.655 19.1878 101.881 19.1878C102.079 19.1878 102.311 19.1159 102.576 18.9723H102.593V19.0262C102.51 19.1806 102.386 19.3135 102.221 19.4249C102.059 19.5362 101.869 19.5919 101.65 19.5919ZM101.585 17.2968C101.413 17.2968 101.271 17.3579 101.159 17.48C101.052 17.5985 100.986 17.7673 100.96 17.9864H102.178C102.139 17.7422 102.069 17.5662 101.968 17.4584C101.871 17.3507 101.743 17.2968 101.585 17.2968ZM103.462 17.3722L103.123 17.1998V17.1136H104.232V17.1998L103.893 17.3722V18.1696H105.024V17.3722L104.685 17.1998V17.1136H105.795V17.1998L105.455 17.3722V19.2794L105.795 19.4518V19.538H104.685V19.4518L105.024 19.2794V18.4228H103.893V19.2794L104.232 19.4518V19.538H103.123V19.4518L103.462 19.2794V17.3722ZM106.214 18.0349V17.1136H108.542V18.0349H108.455L108.089 17.3668H107.593V19.2794L108.008 19.4518V19.538H106.748V19.4518L107.162 19.2794V17.3668H106.667L106.3 18.0349H106.214ZM108.963 20.7771V20.6909L109.302 20.5185V17.6739L108.979 17.3938V17.3561L109.647 17.0598H109.679L109.722 17.3884H109.76C109.897 17.2734 110.028 17.1909 110.153 17.1406C110.279 17.0867 110.416 17.0598 110.563 17.0598C110.746 17.0598 110.907 17.1064 111.047 17.1998C111.188 17.2932 111.297 17.4261 111.376 17.5985C111.459 17.7673 111.5 17.9702 111.5 18.2073C111.5 18.5018 111.445 18.7532 111.333 18.9615C111.225 19.1663 111.078 19.3225 110.891 19.4302C110.705 19.538 110.5 19.5919 110.277 19.5919C110.076 19.5919 109.895 19.5739 109.733 19.538V20.5185L110.115 20.6909V20.7771H108.963ZM110.266 17.4315C110.18 17.4315 110.091 17.4458 109.997 17.4746C109.907 17.4997 109.819 17.5392 109.733 17.5931V19.107C109.841 19.1932 109.95 19.2525 110.062 19.2848C110.173 19.3171 110.297 19.3333 110.433 19.3333C110.606 19.3333 110.755 19.2614 110.88 19.1178C111.006 18.9705 111.069 18.7263 111.069 18.3851C111.069 18.1624 111.033 17.981 110.961 17.8409C110.89 17.7009 110.793 17.5985 110.67 17.5339C110.548 17.4656 110.414 17.4315 110.266 17.4315Z" fill="#000000"/>
</svg>
