<svg xmlns="http://www.w3.org/2000/svg" width="24" height="24" viewBox="0 0 24 24" fill="none"><rect width="24" height="24" fill="none"/>
<path fill-rule="evenodd" clip-rule="evenodd" d="M13.5446 2H5.86494L3.66095 4.09869V22H8.06893L10.2864 19.6221V16.1239H10.3256L13.4234 22H17.9881L20.339 19.6221L16.76 13.0224L16.7649 13.0102C17.027 12.8588 17.2706 12.6776 17.491 12.4702C17.7971 12.1922 18.091 11.8653 18.3726 11.4894C18.6861 11.0841 18.9432 10.5674 19.1562 9.95519C19.377 9.30384 19.4871 8.62012 19.4819 7.93241C19.4819 6.27942 18.9162 4.86886 17.7898 3.72768C16.6657 2.57181 15.2393 2 13.5446 2ZM10.2876 8.45892H11.228C11.719 8.45892 12.0937 8.62055 12.3937 8.93278L12.3973 8.93645C12.5994 9.14461 12.7402 9.38705 12.81 9.67724H10.2876V8.45892ZM6.82858 2.83874V18.7834H9.46112V12.9085H13.1075L16.2053 18.7846H18.942L15.6323 12.6832L16.2984 12.3086L16.3131 12.3024C16.46 12.2339 16.6682 12.0906 16.94 11.8433C17.2008 11.607 17.4604 11.3192 17.7163 10.9776L17.72 10.9739C17.9612 10.6617 18.1816 10.2344 18.3738 9.67724C18.5587 9.14093 18.6542 8.55932 18.6542 7.93241C18.6542 6.49492 18.1706 5.29987 17.2033 4.32031L17.2008 4.31786C16.2457 3.33586 15.036 2.83997 13.5434 2.83997H6.82858V2.83874ZM9.46112 5.24232H13.432C14.1642 5.24232 14.7923 5.49578 15.287 6.01126C15.789 6.52553 16.0339 7.17693 16.0339 7.93241C16.0339 8.65116 15.7829 9.27317 15.2833 9.77519C14.7874 10.2735 14.1593 10.5172 13.432 10.5172H9.46112V5.24232Z" fill="black"/>
</svg>
