<svg xmlns="http://www.w3.org/2000/svg" width="97" height="24" viewBox="0 0 97 24" fill="none"><rect width="97" height="24" fill="none"/>
<path d="M95.2337 8.25562L95.0836 8.64682C94.936 9.03922 94.8316 9.26619 94.688 9.58305C94.5991 9.77826 94.4953 10.008 94.3541 10.34L91.3157 17.9162C90.7855 19.2627 89.7262 20.0368 88.4179 20.0368C87.9677 20.0368 87.4369 19.8984 87.1344 19.7736L86.861 19.6556L86.9832 19.3836C87.4055 18.4744 87.6765 18.1822 88.5602 18.109C88.8912 18.0836 89.2589 17.69 89.5127 17.0738L89.6408 16.7609L86.8936 10.3353C86.7471 9.99453 86.6344 9.72659 86.5253 9.45979C86.4186 9.21057 86.3171 8.96488 86.1825 8.65837L86.0105 8.25562H87.3681C88.1492 8.25562 88.4956 8.4985 88.7963 9.26619C88.7963 9.26619 90.3075 13.0438 90.4178 13.322C90.5317 13.5976 90.6639 14.2619 90.6639 14.2619L90.7339 14.2567C90.7339 14.2567 90.8318 13.6668 90.9486 13.322C91.066 12.9766 92.4129 9.27612 92.4129 9.27612C92.697 8.51997 93.0814 8.25562 93.8803 8.25562H95.2337Z" fill="white"/>
<path d="M76.0078 9.96939V9.36151C76.0078 8.82479 75.6881 8.2559 74.6751 8.2559H73.9219V17.082H76.0629V13.4217C76.0629 12.8783 76.1193 12.4187 76.2397 12.0192C76.5635 10.966 77.3565 10.283 78.2621 10.283C78.4816 10.283 78.6648 10.3248 78.6648 10.3248L79.0183 10.4067V8.22929L78.7763 8.1931C78.7657 8.1931 78.5403 8.15531 78.3102 8.15531C77.3903 8.15531 76.261 8.952 76.0078 9.96939Z" fill="white"/>
<path d="M82.2183 9.96939V9.36151C82.2183 8.82479 81.9016 8.2559 80.8874 8.2559H80.1324V17.082H82.2711V13.4217C82.2711 12.8783 82.3298 12.4187 82.452 12.0192C82.774 10.966 83.5658 10.283 84.4703 10.283C84.6945 10.283 84.876 10.3248 84.876 10.3248L85.2283 10.4067V8.22929L84.9887 8.1931C84.975 8.1931 84.7514 8.15531 84.5237 8.15531C83.602 8.15531 82.4728 8.952 82.2183 9.96939Z" fill="white"/>
<path d="M70.4502 15.0701L70.4182 15.0829C69.9639 15.2936 69.4123 15.5504 68.7587 15.5504C67.6431 15.5504 66.2007 14.8582 66.0738 13.3444H72.2378C72.2751 13.0541 72.2953 12.6315 72.2953 12.4057C72.2953 9.9222 70.6614 8.25165 68.2445 8.25165C65.6586 8.25165 63.8521 10.148 63.8521 12.8629C63.8521 15.5357 65.9949 17.4734 68.6763 17.4734C70.8553 17.4734 72.0759 16.1356 72.131 16.0819L72.2752 15.9368L72.1856 15.7512C71.9857 15.3417 71.6987 14.8662 71.1376 14.8662C70.8938 14.8662 70.6697 14.9695 70.4502 15.0701ZM70.2663 11.6996H66.0939C66.2345 10.78 67.1627 9.93679 68.3922 9.93679C69.3055 9.93679 70.2663 10.5033 70.2663 11.6996Z" fill="white"/>
<path d="M56.2283 9.26945H56.1684C56.1684 9.26945 56.2283 8.788 56.2283 8.29267V6.62572C56.2283 5.72566 55.7965 5.28914 54.9077 5.28914H54.0895V13.0244C54.1966 15.8347 55.9367 17.5776 58.6252 17.5776C61.1093 17.5776 62.9799 15.5966 62.9799 12.968C62.9799 10.3393 61.1621 8.3575 58.752 8.3575C57.5446 8.3575 56.7148 8.85205 56.2283 9.26945ZM56.1428 12.9958C56.1428 11.0231 57.4003 10.3199 58.4294 10.3199C59.6085 10.3199 60.8241 11.3181 60.8241 12.9818C60.8241 14.6496 59.5896 15.6447 58.399 15.6447C57.0225 15.6447 56.1428 14.3009 56.1428 12.9958Z" fill="white"/>
<path d="M50.0109 12.6678L51.4906 10.4359C51.7632 10.0296 51.9708 9.73936 52.1981 9.42813C52.3577 9.20708 52.5236 8.98364 52.7052 8.71289L53.018 8.26206H51.405C50.4986 8.26206 50.1597 8.45888 49.6724 9.26946C49.6724 9.26946 49.022 10.3552 48.9286 10.5078C48.8455 10.6569 48.621 11.1614 48.6146 11.1749H48.5567C48.5567 11.1749 48.353 10.7094 48.2313 10.5078C48.1143 10.3063 47.4839 9.26509 47.4839 9.26509C46.9682 8.45888 46.6295 8.26206 45.7521 8.26206H44.1435L44.4709 8.71528C44.8609 9.26946 45.0839 9.59505 45.4176 10.0845L47.1424 12.6678L45.678 15.1008C45.4082 15.5048 45.2013 15.8009 44.974 16.1039C44.8121 16.3312 44.6466 16.5519 44.4611 16.8178L44.1502 17.2711H45.7639C46.672 17.2711 47.0116 17.0767 47.4969 16.2665C47.4969 16.2665 48.1474 15.1827 48.2384 15.0301C48.3246 14.8782 48.5508 14.3733 48.5567 14.3642H48.6146C48.6146 14.3642 48.8144 14.8285 48.9349 15.0301C49.0578 15.228 49.6886 16.2732 49.6886 16.2732C50.2007 17.0767 50.5427 17.2711 51.4153 17.2711H53.0242L52.6977 16.8178C52.3108 16.2665 52.0862 15.9409 51.7506 15.4475L50.0109 12.6678Z" fill="white"/>
<path d="M34.8464 12.95C34.8464 15.5877 36.8564 17.5775 39.527 17.5775C42.1607 17.5775 44.2263 15.5444 44.2263 12.95C44.2263 10.3332 42.2076 8.35739 39.527 8.35739C36.8564 8.35739 34.8464 10.3332 34.8464 12.95ZM37.0187 12.95C37.0187 11.4425 38.0954 10.3026 39.527 10.3026C40.9674 10.3026 42.0484 11.4425 42.0484 12.95C42.0484 14.4766 40.9674 15.6315 39.527 15.6315C38.0954 15.6315 37.0187 14.4766 37.0187 12.95Z" fill="white"/>
<path d="M27.3032 9.26945H27.2421C27.2421 9.26945 27.3032 8.788 27.3032 8.29267V6.62572C27.3032 5.72566 26.871 5.28914 25.9814 5.28914H25.1624V13.0244C25.2699 15.8347 27.0069 17.5776 29.6981 17.5776C32.1828 17.5776 34.0526 15.5966 34.0526 12.968C34.0526 10.3393 32.2368 8.3575 29.8273 8.3575C28.6178 8.3575 27.7873 8.85205 27.3032 9.26945ZM27.2196 12.9958C27.2196 11.0231 28.4748 10.3199 29.5058 10.3199C30.681 10.3199 31.8999 11.3181 31.8999 12.9818C31.8999 14.6496 30.6613 15.6447 29.4723 15.6447C28.0958 15.6447 27.2196 14.3009 27.2196 12.9958Z" fill="white"/>
<path d="M14.122 17.4735C13.2376 16.5769 13.2376 15.1258 14.122 14.2306C15.0108 13.3356 16.4485 13.3356 17.337 14.2306C18.2252 15.1258 18.2252 16.5769 17.337 17.4735C16.4485 18.3698 15.0108 18.3698 14.122 17.4735Z" fill="white"/>
<path d="M17.9434 13.6203C18.8289 14.5173 20.2692 14.5173 21.1578 13.6203C22.0432 12.7241 22.0432 11.2721 21.1578 10.3767C20.2692 9.48273 18.8289 9.48273 17.9434 10.3767C17.0526 11.2721 17.0526 12.7241 17.9434 13.6203Z" fill="white"/>
<path d="M10.301 13.6203C11.1918 14.5173 12.628 14.5173 13.5202 13.6203C14.4061 12.7241 14.4061 11.2721 13.5202 10.3767C12.628 9.48273 11.1918 9.48273 10.301 10.3767C9.41922 11.2721 9.41922 12.7241 10.301 13.6203Z" fill="white"/>
<path d="M6.48521 9.7684C7.37485 10.6627 8.81442 10.6627 9.70215 9.7684C10.5877 8.87253 10.5877 7.42061 9.70215 6.52513C8.81442 5.62776 7.37485 5.62776 6.48521 6.52513C5.59782 7.42061 5.59782 8.87253 6.48521 9.7684Z" fill="white"/>
<path d="M14.122 9.7684C15.0108 10.6627 16.4485 10.6627 17.337 9.7684C18.2252 8.87253 18.2252 7.42061 17.337 6.52513C16.4485 5.62776 15.0108 5.62776 14.122 6.52513C13.2376 7.42061 13.2376 8.87253 14.122 9.7684Z" fill="white"/>
<path d="M13.5202 2.67132C14.4061 3.5668 14.4061 5.01911 13.5202 5.91307C12.628 6.80968 11.1918 6.80968 10.301 5.91307C9.41922 5.01911 9.41922 3.5668 10.301 2.67132C11.1918 1.77623 12.628 1.77623 13.5202 2.67132Z" fill="#A6CE39"/>
<path d="M13.5161 18.0835C14.4061 18.9794 14.4061 20.4309 13.5161 21.3275C12.628 22.2242 11.1918 22.2242 10.301 21.3275C9.41922 20.4309 9.41922 18.9794 10.301 18.0835C11.1918 17.1892 12.628 17.1892 13.5161 18.0835Z" fill="white"/>
<path d="M6.48521 17.4735C7.37485 18.3698 8.81442 18.3698 9.70215 17.4735C10.5877 16.5796 10.5877 15.1258 9.70215 14.2306C8.81442 13.3356 7.37485 13.3356 6.48521 14.2306C5.59782 15.1258 5.59782 16.5796 6.48521 17.4735Z" fill="white"/>
<path d="M2.66751 13.6203C3.55564 14.5173 4.99296 14.5173 5.88259 13.6203C6.76923 12.7241 6.76923 11.274 5.88259 10.3767C4.99296 9.48273 3.55564 9.48273 2.66751 10.3767C1.7775 11.274 1.7775 12.7241 2.66751 13.6203Z" fill="white"/>
</svg>
