<svg xmlns="http://www.w3.org/2000/svg" width="136" height="24" viewBox="0 0 136 24" fill="none"><rect width="136" height="24" fill="none"/>
<path d="M21.998 12.001C21.998 17.5235 17.5215 22 11.999 22C6.47647 22 2 17.5235 2 12.001C2 6.4785 6.47647 2.00203 11.999 2.00203C17.5215 2.00203 21.998 6.4785 21.998 12.001Z" fill="#00B49B"/>
<path d="M13.3756 7.49629H16.2537L12.7004 11.7249L16.5742 16.427H13.565L10.568 12.5552H10.5438V16.427H8.22191V7.49629H10.5438V11.1787H10.568L13.3756 7.49629Z" fill="white"/>
<path d="M44.3138 11.999C44.3138 17.5215 39.8373 21.998 34.3148 21.998C28.7923 21.998 24.3158 17.5215 24.3158 11.999C24.3158 6.47647 28.7923 2 34.3148 2C39.8373 2 44.3138 6.47647 44.3138 11.999Z" fill="#5F6AB0"/>
<path d="M36.0784 10.9409V7.49433H38.4003V16.4251H36.0784V12.7649H32.7266V16.4251H30.4047V7.49433H32.7266V10.9409H36.0784Z" fill="white"/>
<path d="M88.9514 11.999C88.9514 17.5215 84.4748 21.998 78.9524 21.998C73.43 21.998 68.9533 17.5215 68.9533 11.999C68.9533 6.47647 73.43 2 78.9524 2C84.4729 2 88.9514 6.47647 88.9514 11.999Z" fill="#37B34A"/>
<path d="M82.8948 7.49433V16.4251H80.5729V9.79405H77.221V16.4251H74.899V7.49433H82.8948Z" fill="white"/>
<path d="M111.27 11.999C111.27 17.5215 106.793 21.998 101.27 21.998C95.7476 21.998 91.2714 17.5215 91.2714 11.999C91.2714 6.47647 95.7476 2 101.27 2C106.791 2 111.27 6.47647 111.27 11.999Z" fill="#009ADE"/>
<path d="M102.599 7.49433H105.477L101.923 11.7229L105.795 16.4251H102.786L99.7891 12.5533H99.7648V16.4251H97.4429V7.49433H99.7648V11.1767H99.7891L102.599 7.49433Z" fill="white"/>
<path d="M133.585 11.999C133.585 17.5215 129.109 21.998 123.588 21.998C118.066 21.998 113.589 17.5215 113.589 11.999C113.589 6.47647 118.066 2 123.588 2C129.109 2 133.585 6.47647 133.585 11.999Z" fill="#F05A64"/>
<path d="M122.002 14.8731L121.385 16.4251H118.922L122.357 7.49433H124.892L128.256 16.4251H125.781L125.2 14.8731H122.002ZM123.624 10.2536H123.6L122.641 13.0975H124.572L123.624 10.2536Z" fill="white"/>
<path d="M66.6314 11.999C66.6314 17.5215 62.1552 21.998 56.6329 21.998C51.11 21.998 46.6337 17.5215 46.6337 11.999C46.6337 6.47647 51.11 2 56.6329 2C62.1552 2 66.6314 6.47647 66.6314 11.999Z" fill="#FAA61A"/>
<path d="M61.5729 11.7934C61.5729 14.6837 59.501 16.7214 56.6348 16.7214C53.7686 16.7214 51.6948 14.6837 51.6948 11.7934C51.6948 9.09262 54.0629 7.19805 56.6348 7.19805C59.2043 7.19805 61.5729 9.09467 61.5729 11.7934ZM54.1114 11.8055C54.1114 13.3454 55.2481 14.47 56.6348 14.47C58.0214 14.47 59.1581 13.3454 59.1581 11.8055C59.1581 10.574 58.0214 9.44738 56.6348 9.44738C55.2481 9.44738 54.1114 10.574 54.1114 11.8055Z" fill="white"/>
</svg>
