<svg xmlns="http://www.w3.org/2000/svg" width="24" height="24" viewBox="0 0 24 24" fill="none"><rect width="24" height="24" fill="none"/>
<path d="M11.9997 1.99997C9.44413 1.99997 8.24969 3.44445 8.24969 5.69446V8.30556C8.24969 10.6389 8.66636 11.6389 10.3608 12.6944L11.6663 13.5C12.7219 14.1389 12.8608 14.6111 12.8608 15.9722V18.2778C12.8608 18.9445 12.5553 19.3611 11.9719 19.3611C11.3886 19.3611 11.083 18.9722 11.083 18.2778V14.6667H8.24969V18.3056C8.24969 20.5834 9.41632 22 11.9441 22C14.5552 22 15.7497 20.5 15.7497 18.3056V15.4722C15.7497 13.3056 15.1941 12.1945 13.583 11.1667L12.2774 10.3333C11.3608 9.74998 11.1385 9.33332 11.1385 7.83334V5.7222C11.1385 5.05555 11.4441 4.63889 11.9997 4.63889C12.583 4.63889 12.9164 5.05555 12.9164 5.7222V9.30557H15.7497V5.69446C15.7497 3.4722 14.5552 1.99997 11.9997 1.99997Z" fill="#FF2800"/>
</svg>
