<svg xmlns="http://www.w3.org/2000/svg" width="80" height="24" viewBox="0 0 80 24" fill="none"><rect width="80" height="24" fill="none"/>
<path d="M41.393 17.3846V5.07688H46.4772C47.3986 5.07688 48.1939 5.25717 48.863 5.61775C49.5361 5.97432 50.0549 6.47311 50.4195 7.11415C50.7841 7.75116 50.9663 8.49234 50.9663 9.3377C50.9663 10.187 50.7801 10.9303 50.4075 11.5673C50.0349 12.2003 49.506 12.691 48.8209 13.0397C48.1399 13.3882 47.3285 13.5624 46.387 13.5624H44.3678V17.3846H41.393ZM44.3678 11.2187H45.8342C46.5032 11.2187 47.012 11.0484 47.3606 10.7079C47.7092 10.3633 47.8834 9.90658 47.8834 9.3377C47.8834 8.76478 47.7092 8.31206 47.3606 7.97953C47.012 7.64299 46.5032 7.47472 45.8342 7.47472H44.3678V11.2187ZM54.6964 17.5408C53.815 17.5408 53.0879 17.3165 52.5149 16.8677C51.946 16.419 51.6615 15.738 51.6615 14.8245C51.6615 14.1434 51.8178 13.6025 52.1303 13.2019C52.4428 12.7973 52.8595 12.4987 53.3803 12.3064C53.9012 12.1101 54.472 11.986 55.093 11.9339C55.8823 11.8657 56.4432 11.7816 56.7757 11.6814C57.1122 11.5813 57.2805 11.391 57.2805 11.1105V11.0805C57.2805 10.772 57.1744 10.5336 56.962 10.3653C56.7497 10.197 56.4632 10.113 56.1026 10.113C55.714 10.113 55.4015 10.197 55.1652 10.3653C54.9288 10.5336 54.7785 10.766 54.7145 11.0624L52.0041 10.9663C52.1203 10.125 52.5249 9.42585 53.218 8.86895C53.9152 8.31206 54.8847 8.03361 56.1267 8.03361C56.9119 8.03361 57.6111 8.15581 58.2241 8.4002C58.841 8.64058 59.3258 8.98915 59.6784 9.44588C60.0349 9.90258 60.2132 10.4575 60.2132 11.1105V17.3846H57.4488V16.0985H57.3767C56.8639 17.06 55.9705 17.5408 54.6964 17.5408ZM55.6039 15.6177C56.0726 15.6177 56.4712 15.4775 56.7998 15.197C57.1323 14.9167 57.2985 14.552 57.2985 14.1033V13.2259C57.1343 13.314 56.9019 13.3882 56.6015 13.4483C56.305 13.5083 56.0205 13.5584 55.7481 13.5985C54.8787 13.7307 54.444 14.0913 54.444 14.6803C54.444 14.9847 54.5522 15.2171 54.7685 15.3773C54.9849 15.5377 55.2633 15.6177 55.6039 15.6177ZM66.319 17.5589C65.3455 17.5589 64.5101 17.3585 63.813 16.9579C63.1199 16.5533 62.587 15.9943 62.2144 15.2812C61.8419 14.564 61.6555 13.7367 61.6555 12.7993C61.6555 11.8537 61.8419 11.0244 62.2144 10.3113C62.587 9.59411 63.1219 9.03521 63.819 8.63458C64.5161 8.23394 65.3475 8.03361 66.313 8.03361C67.1704 8.03361 67.9155 8.18786 68.5485 8.49635C69.1815 8.80484 69.6764 9.24155 70.0329 9.80642C70.3935 10.3673 70.5839 11.0264 70.6039 11.7837H67.8575C67.8014 11.3109 67.6411 10.9403 67.3767 10.6718C67.1162 10.4034 66.7757 10.2692 66.3551 10.2692C65.8422 10.2692 65.4295 10.4835 65.1171 10.9122C64.8045 11.3369 64.6483 11.9559 64.6483 12.7692C64.6483 13.5905 64.8025 14.2155 65.1111 14.6442C65.4235 15.0689 65.8382 15.2812 66.3551 15.2812C66.7597 15.2812 67.0982 15.151 67.3707 14.8906C67.6431 14.6302 67.8054 14.2556 67.8575 13.7668H70.6039C70.5798 14.528 70.3915 15.193 70.0389 15.762C69.6864 16.3309 69.1936 16.7736 68.5605 17.0901C67.9315 17.4026 67.1844 17.5589 66.319 17.5589ZM77.3181 8.15381V10.3173H75.6535V14.482C75.6535 14.7543 75.7175 14.9467 75.8458 15.0589C75.9779 15.167 76.1622 15.2211 76.3986 15.2211C76.5108 15.2211 76.629 15.2111 76.7532 15.191C76.8814 15.167 76.9775 15.147 77.0416 15.131L77.4864 17.2523C77.3462 17.2924 77.1499 17.3405 76.8974 17.3966C76.645 17.4567 76.3405 17.4967 75.9839 17.5168C74.9463 17.5649 74.139 17.3585 73.5621 16.8978C72.9892 16.437 72.7067 15.74 72.7147 14.8064V10.3173H71.4948V8.15381H72.7147V5.94227H75.6535V8.15381H77.3181Z" fill="black"/>
<path fill-rule="evenodd" clip-rule="evenodd" d="M2 2H34.3077V17.3846H7.38462L2 22V2ZM7.38462 7.38462H28.9231V12H7.38462V7.38462Z" fill="#0066FF"/>
</svg>
