<svg xmlns="http://www.w3.org/2000/svg" width="24" height="24" viewBox="0 0 24 24" fill="none"><rect width="24" height="24" fill="none"/>
<path d="M12 2C10.0222 2 8.08879 2.58649 6.4443 3.6853C4.79981 4.78412 3.51809 6.3459 2.76121 8.17316C2.00433 10.0004 1.8063 12.0111 2.19215 13.9509C2.578 15.8907 3.53041 17.6725 4.92894 19.0711C6.32746 20.4696 8.10929 21.422 10.0491 21.8078C11.9889 22.1937 13.9996 21.9957 15.8268 21.2388C17.6541 20.4819 19.2159 19.2002 20.3147 17.5557C21.4135 15.9112 22 13.9778 22 12C21.9966 9.34888 20.9419 6.80731 19.0673 4.93269C17.1927 3.05806 14.6511 2.0034 12 2ZM19.2836 12C19.2836 13.4406 18.8565 14.8488 18.0561 16.0466C17.2558 17.2444 16.1182 18.1779 14.7873 18.7292C13.4564 19.2805 11.9919 19.4247 10.579 19.1437C9.16615 18.8626 7.86833 18.1689 6.8497 17.1503C5.83106 16.1317 5.13736 14.8339 4.85632 13.421C4.57528 12.0081 4.71952 10.5436 5.2708 9.21267C5.82209 7.88176 6.75565 6.74422 7.95343 5.94388C9.15122 5.14354 10.5594 4.71637 12 4.71637C13.9317 4.71637 15.7844 5.48375 17.1503 6.84969C18.5163 8.21564 19.2836 10.0683 19.2836 12Z" fill="white"/>
<path d="M21.8972 10.569C21.5831 8.43215 20.5879 6.4537 19.0595 4.92765C17.5311 3.4016 15.5512 2.40942 13.4139 2.09854C13.2221 2.07359 13.0273 2.09013 12.8425 2.14705C12.6577 2.20397 12.4872 2.29994 12.3428 2.42845C12.1461 2.59955 12.0024 2.82333 11.9287 3.0734C11.855 3.32348 11.8544 3.58941 11.9269 3.83982C11.9994 4.09023 12.1421 4.31469 12.338 4.4867C12.5339 4.65871 12.7749 4.7711 13.0326 4.81063C14.5866 5.03523 16.0264 5.75598 17.1374 6.86547C18.2484 7.97495 18.9712 9.41376 19.1979 10.9674C19.2381 11.2248 19.351 11.4653 19.5233 11.6606C19.6956 11.856 19.9201 11.998 20.1704 12.0701C20.4207 12.1421 20.6863 12.1411 20.9361 12.0672C21.1859 11.9933 21.4093 11.8496 21.5801 11.653C21.7086 11.5062 21.8036 11.3332 21.8583 11.146C21.9131 10.9588 21.9263 10.7618 21.8972 10.569Z" fill="black"/>
</svg>
