<svg xmlns="http://www.w3.org/2000/svg" width="24" height="24" viewBox="0 0 24 24" fill="none"><rect width="24" height="24" fill="none"/>
<path d="M12.2591 21.9429C10.2878 21.9429 9.37176 21.6551 7.77941 20.504C6.77218 21.799 3.58266 22.8111 3.44356 21.0796C3.44356 19.7798 3.15578 18.6815 2.82963 17.4824C2.44114 16.0051 1.99988 14.36 1.99988 11.9763C1.99988 6.28308 6.67147 2 12.2064 2C17.7461 2 22.0867 6.49411 22.0867 12.029C22.1053 17.4783 17.7084 21.9139 12.2591 21.9429ZM12.3407 6.92097C9.64516 6.78189 7.54437 8.64765 7.07914 11.5734C6.69544 13.9955 7.37651 16.9452 7.95686 17.0987C8.23504 17.1658 8.93531 16.5999 9.37176 16.1634C10.0935 16.662 10.9339 16.9614 11.8083 17.0315C14.6013 17.1659 16.9878 15.0396 17.1753 12.2497C17.2845 9.45383 15.134 7.08578 12.3407 6.92578V6.92097Z" fill="#000000"/>
</svg>
