<svg xmlns="http://www.w3.org/2000/svg" width="24" height="24" viewBox="0 0 24 24" fill="none"><rect width="24" height="24" fill="none"/>
<path fill-rule="evenodd" clip-rule="evenodd" d="M6.77107 5.07026C6.48473 5.24782 6.31053 5.56079 6.31053 5.89773V17.9231C6.31053 18.4608 5.87462 18.8967 5.33691 18.8967H4.69798C4.16028 18.8967 3.72437 19.3326 3.72437 19.8703V21.0264C3.72437 21.5643 4.16028 22 4.69798 22H19.3022C19.8399 22 20.2758 21.5643 20.2758 21.0264V19.8703C20.2758 19.3326 19.8399 18.8967 19.3022 18.8967H18.6633C18.1256 18.8967 17.6896 18.4608 17.6896 17.9231V5.89773C17.6896 5.56079 17.5154 5.24782 17.2291 5.07026L12.5132 2.14615C12.1989 1.95128 11.8013 1.95128 11.487 2.14615L6.77107 5.07026Z" fill="#000000"/>
<path fill-rule="evenodd" clip-rule="evenodd" d="M15.5516 7.2239C15.7138 7.47116 15.6449 7.80314 15.3977 7.9654L9.19088 12.0386C8.94363 12.2008 8.61165 12.1319 8.44939 11.8847C8.28713 11.6374 8.35603 11.3055 8.60328 11.1432L14.8101 7.07001C15.0573 6.90775 15.3893 6.97665 15.5516 7.2239Z" fill="#000000"/>
<path fill-rule="evenodd" clip-rule="evenodd" d="M15.5515 10.9092C15.7138 11.1565 15.6449 11.4885 15.3977 11.6507L9.19087 15.7239C8.94361 15.8862 8.61163 15.8173 8.44937 15.57C8.28711 15.3228 8.35601 14.9908 8.60327 14.8285L14.8101 10.7553C15.0573 10.5931 15.3893 10.662 15.5515 10.9092Z" fill="#000000"/>
</svg>
