<svg xmlns="http://www.w3.org/2000/svg" width="24" height="24" viewBox="0 0 24 24" fill="none"><rect width="24" height="24" fill="none"/>
<path d="M4.74955 21.6252C3.24953 21.5002 1.99951 20.1877 1.99951 18.7502V5.25004C1.99951 3.81252 3.24953 2.50001 4.74955 2.375C9.56211 1.875 14.4372 1.875 19.3122 2.375C20.7497 2.50001 21.9998 3.81252 21.9998 5.25004V18.7502C21.9998 20.1877 20.7497 21.5002 19.2497 21.6252C16.8747 21.8752 14.4372 22.0002 11.9996 22.0002C9.56211 22.0002 7.12456 21.8752 4.74955 21.6252Z" fill="url(#paint0_linear_4424_134)"/>
<path fill-rule="evenodd" clip-rule="evenodd" d="M7.9011 6.88542C8.1475 6.78338 8.43108 6.8398 8.61966 7.02837L12.1095 10.5182L15.5994 7.02837C15.788 6.8398 16.0716 6.78338 16.3179 6.88542C16.5643 6.98749 16.725 7.22791 16.725 7.4946V14.7474C16.725 15.1116 16.4298 15.4068 16.0656 15.4068C15.7015 15.4068 15.4063 15.1116 15.4063 14.7474V9.0864L12.5758 11.9169C12.3183 12.1744 11.9008 12.1744 11.6433 11.9169L8.81278 9.0864V14.7474C8.81278 15.1116 8.51759 15.4068 8.15343 15.4068C7.78927 15.4068 7.49408 15.1116 7.49408 14.7474V7.4946C7.49408 7.22791 7.65472 6.98749 7.9011 6.88542ZM12.7689 15.6799L14.334 14.1147C14.5915 13.8572 14.5915 13.4398 14.334 13.1823C14.0765 12.9248 13.6591 12.9248 13.4016 13.1823L12.1095 14.4743L10.8175 13.1823C10.56 12.9248 10.1425 12.9248 9.88504 13.1823C9.62754 13.4398 9.62754 13.8572 9.88504 14.1147L11.4502 15.6799V17.3848C11.4502 17.749 11.7454 18.0442 12.1095 18.0442C12.4737 18.0442 12.7689 17.749 12.7689 17.3848V15.6799Z" fill="#B34D00"/>
<defs>
<linearGradient id="paint0_linear_4424_134" x1="11.9996" y1="2" x2="11.9996" y2="22.0002" gradientUnits="userSpaceOnUse">
<stop stop-color="#FFD754"/>
<stop offset="1" stop-color="#FF9B29"/>
</linearGradient>
</defs>
</svg>
