<svg xmlns="http://www.w3.org/2000/svg" width="24" height="24" viewBox="0 0 24 24" fill="none"><rect width="24" height="24" fill="none"/>
<path d="M8.46243 9.53812L7.29178 10.4093C6.83412 9.65655 6.17591 9.27996 5.31713 9.27996C5.20979 9.27996 5.08786 9.29061 4.9518 9.31234C4.7942 9.33974 4.63971 9.38283 4.49061 9.44097C4.31833 9.49864 4.17564 9.59534 4.06123 9.73151C3.95388 9.86059 3.89999 10.0185 3.89999 10.2048C3.89999 10.3197 3.92517 10.4235 3.97508 10.5166C4.02544 10.6027 4.08243 10.6745 4.14693 10.7318C4.21849 10.7819 4.3223 10.832 4.45836 10.8826C4.59398 10.9327 4.71591 10.9722 4.82325 11.0006C4.9306 11.0294 5.08433 11.0653 5.28489 11.1083L6.07916 11.2804C6.4224 11.3519 6.71971 11.4344 6.97018 11.5275C7.22772 11.6207 7.48527 11.7537 7.74325 11.9254C7.99642 12.0855 8.20065 12.3127 8.33343 12.5819C8.46949 12.8467 8.53708 13.1621 8.53708 13.528C8.53708 13.8864 8.46552 14.2124 8.32283 14.5065C8.18677 14.7935 8.00786 15.0264 7.7861 15.2056C7.55609 15.3939 7.29902 15.5461 7.02363 15.6571C6.74895 15.7758 6.46039 15.8589 6.16486 15.9046C5.88612 15.9548 5.60339 15.98 5.31669 15.98C4.62314 15.98 3.97508 15.847 3.37386 15.5817C2.77307 15.3165 2.31497 14.9079 2 14.3557L3.19141 13.528C3.69943 14.2878 4.4831 14.668 5.54243 14.668C5.97182 14.668 6.32257 14.5819 6.59425 14.4098C6.86637 14.2306 7.00243 13.9831 7.00243 13.6677C7.00243 13.3807 6.89508 13.1767 6.67995 13.0547C6.47232 12.9327 6.0933 12.8108 5.54243 12.6892L4.57631 12.4741C4.37442 12.4306 4.17404 12.3803 3.97553 12.3233C3.77669 12.2546 3.58287 12.172 3.3955 12.0762C3.20508 11.9744 3.03136 11.8438 2.88042 11.689C2.75142 11.5457 2.64054 11.363 2.54733 11.1403C2.45457 10.911 2.40818 10.6528 2.40818 10.3663C2.40818 9.67074 2.67279 9.10431 3.20246 8.66739C3.73919 8.2225 4.4725 8.00027 5.40284 8.00027C6.69099 8.00027 7.71056 8.51303 8.46199 9.53812H8.46243ZM10.8793 8.19366H12.2748V13.9578C12.2748 14.1015 12.2606 14.2448 12.2319 14.3881C12.2103 14.5318 12.1498 14.7035 12.0495 14.9044C11.9567 15.0978 11.8273 15.2699 11.6629 15.4207C11.4982 15.564 11.2623 15.686 10.9544 15.7862C10.6469 15.8935 10.2851 15.9477 9.8703 15.9477C9.5624 15.9477 9.26951 15.9153 8.98988 15.851V14.4528C9.31236 14.5243 9.5624 14.5602 9.74131 14.5602C9.99929 14.5602 10.21 14.5247 10.3748 14.4528C10.5396 14.3739 10.654 14.2625 10.7185 14.1193C10.79 13.9685 10.8329 13.8363 10.847 13.7214C10.8687 13.5994 10.8793 13.4455 10.8793 13.2592V8.19366ZM19.6839 8.00914C18.8401 8.07213 18.079 8.74369 17.6628 9.23472C17.2472 8.74679 16.4865 8.07257 15.6423 8.00914C14.1606 7.89869 13.3213 8.86523 13.3213 10.3955C13.3213 11.6189 14.12 12.7908 15.242 13.9396C16.2316 14.9554 17.6606 16 17.6606 16C17.6606 16 19.0897 14.9523 20.0797 13.9392C21.2009 12.7903 22 11.6193 22 10.3951C22.0022 8.86389 21.166 7.89781 19.6839 8.00914Z" fill="white"/>
</svg>
