<svg xmlns="http://www.w3.org/2000/svg" width="24" height="24" viewBox="0 0 24 24" fill="none"><rect width="24" height="24" fill="none"/>
<path d="M11.9764 7.51796H12.0204L13.1405 11.031H10.7904L11.9764 7.51796Z" fill="white"/>
<path fill-rule="evenodd" clip-rule="evenodd" d="M12 2C6.47715 2 2 6.47715 2 12C2 17.5228 6.47715 22 12 22C17.5228 22 22 17.5228 22 12C22 6.47715 17.5228 2 12 2ZM7.77209 18.4132H16.2281V16.6622H7.77209V18.4132ZM12.066 5.58714C11.1139 5.58714 10.8182 6.15084 10.5645 6.86963L7.948 14.2814H9.68298L10.2871 12.5194H13.6255L14.1855 14.2814H16.0305L13.5371 6.86963C13.2961 6.15314 13.0182 5.58714 12.066 5.58714Z" fill="white"/>
</svg>
