<svg xmlns="http://www.w3.org/2000/svg" width="24" height="24" viewBox="0 0 24 24" fill="none"><rect width="24" height="24" fill="none"/>
<path d="M11.98 21.9996C17.4911 21.9996 21.9587 17.5224 21.9587 11.9998C21.9587 6.47705 17.4911 2 11.98 2C6.46887 2 2.00124 6.47705 2.00124 11.9998C2.00124 17.5224 6.46887 21.9996 11.98 21.9996Z" fill="#000000"/>
<path d="M16.2747 19.4482C12.8859 21.4079 9.21065 21.759 6.86306 20.5852C9.86867 22.3799 13.7278 22.5352 16.9715 20.6589C20.2151 18.7808 22.0112 15.3544 21.9627 11.8485C21.8041 14.4736 19.6617 17.4887 16.2747 19.4482Z" fill="#000000"/>
<path d="M13.2456 2.73098C13.9326 3.92226 12.2721 6.17289 9.53546 7.75414C6.79885 9.33734 4.02547 9.65359 3.33842 8.46038C3.30939 8.40411 3.28229 8.34203 3.26293 8.278C3.08489 7.7231 3.29778 7.00523 3.81065 6.24856C3.89387 6.1302 3.97903 6.01379 4.06612 5.89932C4.84026 4.88847 5.82149 4.01152 6.99045 3.33632C8.15941 2.6592 9.40773 2.24788 10.6677 2.08102C10.8147 2.05968 10.958 2.04416 11.0973 2.03446C12.0069 1.96655 12.7327 2.14117 13.1236 2.57189C13.1701 2.62427 13.2107 2.67666 13.2456 2.73098Z" fill="#000000"/>
<path d="M17.488 4.02179C18.6879 6.10361 16.2668 9.75311 12.0825 12.1745C7.89824 14.5959 3.53206 14.8713 2.33407 12.7895C2.13472 12.4422 2.02828 12.0561 2.00699 11.6409C1.95473 13.0398 2.19472 14.462 2.75404 15.8123C2.83726 16.0141 2.92822 16.2139 3.02499 16.4119C3.02886 16.4196 3.03467 16.4293 3.03854 16.4371C3.40045 17.0637 3.93461 17.5566 4.60038 17.9135C6.94797 19.1728 10.9174 18.7401 14.6294 16.5923C18.3395 14.4445 20.6988 11.218 20.7858 8.55213C20.8109 7.79933 20.6542 7.09117 20.2962 6.46449C20.1607 6.26077 20.0195 6.06093 19.8705 5.87079C18.9898 4.72995 17.8944 3.82194 16.677 3.17392C17.0158 3.39705 17.2905 3.67837 17.488 4.02179C17.488 4.02179 17.4899 4.02373 17.4899 4.02566L17.488 4.02179Z" fill="#000000"/>
</svg>
