<svg xmlns="http://www.w3.org/2000/svg" width="99" height="24" viewBox="0 0 99 24" fill="none"><rect width="99" height="24" fill="none"/>
<path d="M2 10.64C2 7.04026 2 5.24039 2.91672 3.97863C3.21278 3.57114 3.57114 3.21278 3.97863 2.91672C5.24039 2 7.04026 2 10.64 2H13.36C16.9598 2 18.7596 2 20.0214 2.91672C20.4289 3.21278 20.7872 3.57114 21.0833 3.97863C22 5.24039 22 7.04026 22 10.64V13.36C22 16.9598 22 18.7596 21.0833 20.0214C20.7872 20.4289 20.4289 20.7872 20.0214 21.0833C18.7596 22 16.9598 22 13.36 22H10.64C7.04026 22 5.24039 22 3.97863 21.0833C3.57114 20.7872 3.21278 20.4289 2.91672 20.0214C2 18.7596 2 16.9598 2 13.36V10.64Z" fill="#142969"/>
<path d="M10.9047 10.0916C11.625 10.0916 12.1826 10.2637 12.5772 10.6079C12.9765 10.952 13.176 11.3994 13.176 11.95C13.176 12.5007 12.9765 12.9481 12.5772 13.2923C12.1826 13.6364 11.625 13.8085 10.9047 13.8085H10.1721C10.0635 13.8085 9.97544 13.8965 9.97544 14.0051V14.3001C9.97544 14.4087 9.88739 14.4968 9.77878 14.4968H8.93315C8.82454 14.4968 8.73649 14.4087 8.73649 14.3001V14.0051C8.73649 13.8965 8.64845 13.8085 8.53984 13.8085H7.80729C7.08686 13.8085 6.52704 13.6364 6.12782 13.2923C5.73319 12.9481 5.53589 12.5007 5.53589 11.95C5.53589 11.3994 5.73319 10.952 6.12782 10.6079C6.52704 10.2637 7.08686 10.0916 7.80729 10.0916H8.53984C8.64845 10.0916 8.73649 10.0036 8.73649 9.89498V9.59999C8.73649 9.49138 8.82454 9.40333 8.93315 9.40333H9.77878C9.88739 9.40333 9.97544 9.49138 9.97544 9.59999V9.89498C9.97544 10.0036 10.0635 10.0916 10.1721 10.0916H10.9047ZM7.8417 12.8104H8.63816C8.69247 12.8104 8.73649 12.7664 8.73649 12.7121V11.188C8.73649 11.1337 8.69247 11.0897 8.63816 11.0897H7.8417C7.52508 11.0897 7.27959 11.1677 7.10522 11.3237C6.93085 11.4797 6.84366 11.6885 6.84366 11.95C6.84366 12.2116 6.93085 12.4204 7.10522 12.5764C7.27959 12.7325 7.52508 12.8104 7.8417 12.8104ZM10.8703 12.8104C11.1868 12.8104 11.4323 12.7325 11.6067 12.5764C11.7811 12.4204 11.8683 12.2116 11.8683 11.95C11.8683 11.6885 11.7811 11.4797 11.6067 11.3237C11.4323 11.1677 11.1868 11.0897 10.8703 11.0897H10.0738C10.0195 11.0897 9.97544 11.1337 9.97544 11.188V12.7121C9.97544 12.7664 10.0195 12.8104 10.0738 12.8104H10.8703Z" fill="white"/>
<path d="M18.3227 9.54099C18.4313 9.54099 18.5193 9.62904 18.5193 9.73765V10.4112C18.5193 10.5198 18.4313 10.6079 18.3227 10.6079H16.7887C16.6801 10.6079 16.592 10.6959 16.592 10.8045V14.1625C16.592 14.2711 16.504 14.3591 16.3954 14.3591H15.5498C15.4412 14.3591 15.3531 14.2711 15.3531 14.1625V10.8045C15.3531 10.6959 15.2651 10.6079 15.1565 10.6079H13.6226C13.5139 10.6079 13.4259 10.5198 13.4259 10.4112V9.73765C13.4259 9.62904 13.5139 9.54099 13.6226 9.54099H18.3227Z" fill="white"/>
<path d="M34.6359 16.9976C34.5057 16.9976 34.4407 16.9976 34.3951 16.9644C34.3804 16.9537 34.3675 16.9408 34.3567 16.926C34.3236 16.8804 34.3236 16.8154 34.3236 16.6853V16.0868C34.3236 15.9574 34.3236 15.8926 34.292 15.8477C34.2815 15.8328 34.2697 15.8206 34.2552 15.8095C34.2115 15.7762 34.1449 15.7737 34.0114 15.7687C33.4321 15.7467 32.8819 15.6631 32.3608 15.5178C31.7567 15.3467 31.2283 15.085 30.7753 14.7327C30.3324 14.3804 29.9801 13.9325 29.7184 13.3889C29.4566 12.8453 29.3258 12.196 29.3258 11.4411C29.3258 10.6962 29.4566 10.052 29.7184 9.50841C29.9801 8.96484 30.3375 8.52194 30.7904 8.17969C31.2434 7.82738 31.7719 7.5707 32.3758 7.40964C32.8958 7.26475 33.441 7.18119 34.0114 7.15899C34.1449 7.15379 34.2117 7.15119 34.2553 7.1179C34.2698 7.10686 34.2816 7.09463 34.2921 7.07974C34.3236 7.03484 34.3236 6.97012 34.3236 6.84067V6.30262C34.3236 6.17251 34.3236 6.10745 34.3567 6.06184C34.3675 6.04711 34.3804 6.03416 34.3951 6.02347C34.4407 5.99033 34.5057 5.99033 34.6359 5.99033H35.8232C35.9533 5.99033 36.0183 5.99033 36.0639 6.02347C36.0787 6.03416 36.0917 6.04711 36.1023 6.06184C36.1355 6.10745 36.1355 6.17251 36.1355 6.30262V6.84067C36.1355 6.97013 36.1355 7.03486 36.1671 7.07977C36.1776 7.09466 36.1894 7.10691 36.2038 7.11793C36.2475 7.15122 36.3143 7.15376 36.4477 7.15883C37.0256 7.18082 37.5707 7.26442 38.0833 7.40964C38.6973 7.58076 39.2258 7.84248 39.6686 8.19479C40.1116 8.53704 40.4589 8.97994 40.7105 9.52352C40.9722 10.0671 41.1031 10.7062 41.1031 11.4411C41.1031 12.186 40.9722 12.8353 40.7105 13.3889C40.4589 13.9325 40.1116 14.3804 39.6686 14.7327C39.2258 15.085 38.6973 15.3467 38.0833 15.5178C37.5707 15.6631 37.0256 15.7467 36.4477 15.7687C36.3143 15.7737 36.2475 15.7763 36.2038 15.8096C36.1894 15.8206 36.1776 15.8328 36.1671 15.8477C36.1355 15.8926 36.1355 15.9574 36.1355 16.0868V16.6853C36.1355 16.8154 36.1355 16.8804 36.1023 16.926C36.0917 16.9408 36.0787 16.9537 36.0639 16.9644C36.0183 16.9976 35.9533 16.9976 35.8232 16.9976H34.6359ZM36.4023 8.74734C36.2776 8.74006 36.2153 8.73642 36.1667 8.7692C36.1516 8.77938 36.1367 8.79334 36.1257 8.80781C36.0902 8.85442 36.0902 8.91983 36.0902 9.05065V13.8768C36.0902 14.0076 36.0902 14.0731 36.1257 14.1197C36.1367 14.1342 36.1516 14.1481 36.1667 14.1583C36.2153 14.1911 36.2776 14.1874 36.4023 14.1801C36.7203 14.1616 37.024 14.1143 37.3132 14.0381C37.7058 13.9274 38.043 13.7664 38.3248 13.5549C38.6168 13.3335 38.8433 13.0516 39.0043 12.7094C39.1755 12.3571 39.261 11.9343 39.261 11.4411C39.261 10.9378 39.1755 10.515 39.0043 10.1728C38.8433 9.83053 38.6168 9.55371 38.3248 9.34232C38.043 9.13094 37.7058 8.97994 37.3132 8.88935C37.024 8.81324 36.7203 8.7659 36.4023 8.74734ZM31.1678 11.4411C31.1678 11.9343 31.2535 12.3571 31.4246 12.7094C31.5957 13.0617 31.8272 13.3486 32.1192 13.57C32.411 13.7815 32.7482 13.9375 33.1308 14.0381C33.4259 14.1138 33.7295 14.1611 34.0417 14.1798C34.1662 14.1873 34.2284 14.1911 34.2771 14.1583C34.2922 14.1481 34.3071 14.1341 34.3181 14.1197C34.3538 14.0731 34.3538 14.0076 34.3538 13.8768V9.05065C34.3538 8.91985 34.3538 8.85445 34.3182 8.80785C34.3072 8.79338 34.2925 8.77942 34.2773 8.76924C34.2288 8.73646 34.1664 8.74007 34.0417 8.74729C33.7215 8.76581 33.4128 8.81316 33.1157 8.88935C32.7332 8.97994 32.3959 9.13094 32.1041 9.34232C31.8222 9.55371 31.5957 9.83556 31.4246 10.1879C31.2535 10.5301 31.1678 10.9478 31.1678 11.4411Z" fill="#142969"/>
<path d="M44.4541 16.5196C44.4143 16.5828 44.3944 16.6144 44.3652 16.6346C44.3556 16.6412 44.3453 16.6469 44.3346 16.6514C44.302 16.6654 44.2646 16.6654 44.1899 16.6654H42.908C42.7778 16.6654 42.7127 16.6654 42.6671 16.6323C42.6524 16.6215 42.6395 16.6086 42.6288 16.5938C42.5956 16.5483 42.5956 16.4832 42.5956 16.3531V9.66971C42.5956 9.5396 42.5956 9.47455 42.6288 9.42894C42.6395 9.41421 42.6524 9.40126 42.6671 9.39056C42.7127 9.35742 42.7778 9.35742 42.908 9.35742H43.9594C44.0895 9.35742 44.1545 9.35742 44.2001 9.39056C44.2149 9.40126 44.2279 9.41421 44.2385 9.42894C44.2716 9.47455 44.2716 9.5396 44.2716 9.6697V13.8407C44.2716 14.0349 44.2716 14.1321 44.314 14.1573C44.3269 14.165 44.3416 14.1692 44.3566 14.1696C44.4058 14.1705 44.4573 14.0882 44.5602 13.9235L47.3205 9.50427C47.3603 9.44062 47.3801 9.40879 47.4094 9.38847C47.4191 9.38177 47.4293 9.37608 47.4401 9.37146C47.4728 9.35742 47.5104 9.35742 47.5854 9.35742H48.927C49.0571 9.35742 49.1221 9.35742 49.1677 9.39056C49.1825 9.40126 49.1955 9.41421 49.2061 9.42894C49.2392 9.47455 49.2392 9.5396 49.2392 9.6697V16.3531C49.2392 16.4832 49.2392 16.5483 49.2061 16.5938C49.1955 16.6086 49.1825 16.6215 49.1677 16.6323C49.1221 16.6654 49.0571 16.6654 48.927 16.6654H47.8605C47.7304 16.6654 47.6653 16.6654 47.6197 16.6323C47.6049 16.6215 47.592 16.6086 47.5813 16.5938C47.5481 16.5483 47.5481 16.4832 47.5481 16.3531V12.1481C47.5481 11.9551 47.5481 11.8585 47.5059 11.8333C47.4931 11.8255 47.4785 11.8213 47.4635 11.8209C47.4142 11.8198 47.3628 11.9015 47.2599 12.0649L44.4541 16.5196Z" fill="#142969"/>
<path d="M51.3634 16.6654C51.2333 16.6654 51.1683 16.6654 51.1227 16.6323C51.1079 16.6215 51.095 16.6086 51.0843 16.5938C51.0512 16.5483 51.0512 16.4832 51.0512 16.3531V9.66971C51.0512 9.5396 51.0512 9.47455 51.0843 9.42894C51.095 9.41421 51.1079 9.40126 51.1227 9.39056C51.1683 9.35742 51.2333 9.35742 51.3634 9.35742H52.4753C52.6054 9.35742 52.6704 9.35742 52.716 9.39056C52.7307 9.40126 52.7437 9.41421 52.7544 9.42894C52.7875 9.47455 52.7875 9.5396 52.7875 9.6697V11.8385C52.7875 11.9686 52.7875 12.0336 52.8207 12.0793C52.8314 12.0939 52.8444 12.1069 52.859 12.1176C52.9047 12.1508 52.9697 12.1508 53.0998 12.1508H55.6461C55.7762 12.1508 55.8412 12.1508 55.8868 12.1176C55.9016 12.1069 55.9145 12.0939 55.9252 12.0793C55.9583 12.0336 55.9584 11.9686 55.9584 11.8385V9.6697C55.9584 9.5396 55.9583 9.47455 55.9915 9.42894C56.0022 9.41421 56.0151 9.40126 56.0299 9.39056C56.0755 9.35742 56.1406 9.35742 56.2707 9.35742H57.3824C57.5126 9.35742 57.5777 9.35742 57.6233 9.39056C57.638 9.40126 57.6509 9.41421 57.6616 9.42894C57.6948 9.47455 57.6948 9.5396 57.6948 9.6697V16.3531C57.6948 16.4832 57.6948 16.5483 57.6616 16.5938C57.6509 16.6086 57.638 16.6215 57.6233 16.6323C57.5777 16.6654 57.5126 16.6654 57.3824 16.6654H56.2707C56.1406 16.6654 56.0755 16.6654 56.0299 16.6323C56.0151 16.6215 56.0022 16.6086 55.9915 16.5938C55.9583 16.5483 55.9584 16.4832 55.9584 16.3531V14.0031C55.9584 13.873 55.9583 13.808 55.9252 13.7624C55.9145 13.7477 55.9016 13.7347 55.8868 13.724C55.8412 13.6909 55.7762 13.6909 55.6461 13.6909H53.0998C52.9697 13.6909 52.9047 13.6909 52.859 13.724C52.8444 13.7347 52.8314 13.7477 52.8207 13.7624C52.7875 13.808 52.7875 13.873 52.7875 14.0031V16.3531C52.7875 16.4832 52.7875 16.5483 52.7544 16.5938C52.7437 16.6086 52.7307 16.6215 52.716 16.6323C52.6704 16.6654 52.6054 16.6654 52.4753 16.6654H51.3634Z" fill="#142969"/>
<path d="M59.1244 10.8976C58.9943 10.8976 58.9292 10.8976 58.8836 10.8644C58.8689 10.8537 58.856 10.8408 58.8452 10.826C58.8121 10.7804 58.8121 10.7153 58.8121 10.5852V9.66971C58.8121 9.5396 58.8121 9.47455 58.8452 9.42894C58.856 9.41421 58.8689 9.40126 58.8836 9.39056C58.9292 9.35742 58.9943 9.35742 59.1244 9.35742H65.1585C65.2886 9.35742 65.3537 9.35742 65.3993 9.39056C65.414 9.40126 65.4269 9.41421 65.4377 9.42894C65.4708 9.47455 65.4708 9.5396 65.4708 9.6697V10.5852C65.4708 10.7153 65.4708 10.7804 65.4377 10.826C65.4269 10.8408 65.414 10.8537 65.3993 10.8644C65.3537 10.8976 65.2886 10.8976 65.1585 10.8976H63.3219C63.1918 10.8976 63.1268 10.8976 63.0812 10.9307C63.0664 10.9413 63.0535 10.9543 63.0428 10.9691C63.0096 11.0147 63.0096 11.0797 63.0096 11.2098V16.3531C63.0096 16.4832 63.0096 16.5483 62.9765 16.5938C62.9658 16.6086 62.9529 16.6215 62.9381 16.6323C62.8925 16.6654 62.8274 16.6654 62.6973 16.6654H61.5856C61.4554 16.6654 61.3903 16.6654 61.3447 16.6323C61.33 16.6215 61.3171 16.6086 61.3063 16.5938C61.2732 16.5483 61.2732 16.4832 61.2732 16.3531V11.2098C61.2732 11.0797 61.2732 11.0147 61.2401 10.9691C61.2294 10.9543 61.2164 10.9413 61.2017 10.9307C61.1561 10.8976 61.0911 10.8976 60.961 10.8976H59.1244Z" fill="#142969"/>
<path d="M71.0761 16.6654C70.946 16.6654 70.881 16.6654 70.8354 16.6323C70.8207 16.6215 70.8077 16.6086 70.797 16.5938C70.7639 16.5483 70.7639 16.4832 70.7639 16.3531V16.3074C70.7639 16.136 70.7639 16.0502 70.73 16.0242C70.7185 16.0153 70.7085 16.0108 70.6943 16.0079C70.6524 15.9994 70.5828 16.0599 70.4435 16.181C70.2699 16.332 70.0696 16.4583 69.8428 16.5597C69.4703 16.7308 69.0425 16.8164 68.5594 16.8164C67.8246 16.8164 67.2206 16.6251 66.7475 16.2426C66.2744 15.8601 66.0378 15.3266 66.0378 14.6421C66.0378 13.8871 66.2844 13.3386 66.7777 12.9963C67.281 12.644 67.9554 12.4477 68.8009 12.4075C69.1432 12.3873 69.4703 12.3822 69.7824 12.3923C69.9808 12.3923 70.175 12.3944 70.3652 12.3985C70.5006 12.4013 70.5683 12.4028 70.615 12.3698C70.6302 12.359 70.6433 12.3463 70.6543 12.3313C70.6884 12.2853 70.6884 12.2182 70.6884 12.0842V11.8337C70.6884 11.4109 70.5625 11.1039 70.3109 10.9126C70.0592 10.7214 69.7321 10.6257 69.3295 10.6257C68.9268 10.6257 68.6097 10.7264 68.3782 10.9277C68.2089 11.075 68.0745 11.26 67.9752 11.4826C67.9225 11.6007 67.8962 11.6597 67.8581 11.687C67.8444 11.6969 67.8336 11.7027 67.8178 11.7086C67.774 11.7251 67.7181 11.7156 67.6063 11.6966L66.5964 11.5251C66.4637 11.5025 66.3974 11.4913 66.3567 11.4449C66.3445 11.4309 66.3328 11.4118 66.3259 11.3945C66.3032 11.3371 66.3219 11.2781 66.3592 11.16C66.5224 10.6442 66.8229 10.2094 67.2609 9.85569C67.7843 9.42285 68.4838 9.20643 69.3596 9.20643C70.2253 9.20643 70.9451 9.40775 71.5188 9.8104C72.0925 10.203 72.3795 10.8824 72.3795 11.8488V16.3531C72.3795 16.4832 72.3795 16.5483 72.3463 16.5938C72.3356 16.6086 72.3227 16.6215 72.308 16.6323C72.2624 16.6654 72.1973 16.6654 72.0671 16.6654H71.0761ZM70.6884 13.8696C70.6884 13.744 70.6884 13.6813 70.6555 13.6358C70.6451 13.6214 70.6318 13.6079 70.6175 13.5974C70.5723 13.5643 70.5112 13.5638 70.3889 13.5628C70.2311 13.5616 70.0642 13.564 69.8881 13.57C69.5962 13.57 69.3093 13.5751 69.0275 13.5852C68.6349 13.5953 68.3229 13.6808 68.0913 13.8419C67.8698 14.0029 67.7591 14.2344 67.7591 14.5364C67.7591 14.8384 67.8648 15.0749 68.0762 15.246C68.2876 15.4071 68.5694 15.4876 68.9218 15.4876C69.4351 15.4876 69.8579 15.3669 70.1901 15.1253C70.5223 14.8736 70.6884 14.5465 70.6884 14.1438V13.8696Z" fill="#142969"/>
<path d="M81.0626 13.1322C81.0626 14.2596 80.7506 15.1555 80.1264 15.8198C79.5024 16.4842 78.6568 16.8164 77.5898 16.8164C76.3618 16.8164 75.4357 16.4641 74.8116 15.7594C74.1875 15.0448 73.8754 13.9727 73.8754 12.5433V11.3505C73.8754 10.4747 73.9711 9.73993 74.1624 9.14604C74.3637 8.54207 74.6455 8.05387 75.0079 7.68142C75.3703 7.29892 75.8132 7.01706 76.3366 6.83588C76.8601 6.64462 77.4439 6.51376 78.0881 6.4433C78.5713 6.39297 79.0192 6.34264 79.4319 6.29231C79.7219 6.25695 79.9945 6.22407 80.2497 6.19368C80.3804 6.1781 80.4459 6.17031 80.4954 6.19844C80.5114 6.20751 80.5259 6.21909 80.5382 6.2327C80.5765 6.27489 80.5833 6.34048 80.5967 6.47166L80.6987 7.46391C80.7119 7.59238 80.7186 7.65661 80.6906 7.70519C80.6816 7.72088 80.6701 7.73506 80.6567 7.74721C80.6151 7.78483 80.5509 7.79196 80.4226 7.80622C80.1414 7.83746 79.8364 7.87136 79.5074 7.90791C79.0645 7.95824 78.6267 8.00857 78.1938 8.0589C77.3281 8.14949 76.6637 8.40114 76.2007 8.81385C75.8275 9.13843 75.6047 9.63305 75.5323 10.2977C75.513 10.475 75.5033 10.5636 75.5382 10.5934C75.5494 10.603 75.5612 10.6089 75.5756 10.6121C75.6204 10.6221 75.6924 10.5546 75.8364 10.4197C76.0398 10.229 76.2821 10.0712 76.5631 9.94629C77.0262 9.74497 77.5042 9.64431 77.9975 9.64431C78.9236 9.64431 79.6634 9.94125 80.217 10.5352C80.7808 11.119 81.0626 11.9847 81.0626 13.1322ZM77.5446 15.4121C78.1485 15.4121 78.6014 15.2108 78.9035 14.8082C79.2155 14.3955 79.3715 13.8469 79.3715 13.1624C79.3715 12.4678 79.2155 11.9394 78.9035 11.577C78.5914 11.2146 78.1485 11.0334 77.5747 11.0334C77.0312 11.0334 76.5681 11.1894 76.1856 11.5015C75.8031 11.8136 75.6119 12.2162 75.6119 12.7094V13.0114C75.6119 13.8267 75.783 14.4307 76.1252 14.8233C76.4775 15.2159 76.9507 15.4121 77.5446 15.4121Z" fill="#142969"/>
<path d="M83.0305 13.7513C83.0405 13.4694 83.0506 13.1372 83.0606 12.7547C83.0708 12.3621 83.0758 11.9645 83.0758 11.5619C83.0858 11.1492 83.0909 10.7516 83.0909 10.3691C83.0975 10.1122 83.1019 9.87912 83.1041 9.6697C83.1056 9.53862 83.1063 9.47308 83.1395 9.42802C83.1503 9.41337 83.163 9.40075 83.1778 9.39011C83.2232 9.35742 83.2882 9.35742 83.4182 9.35742H88.4407C88.5708 9.35742 88.6359 9.35742 88.6815 9.39056C88.6966 9.40126 88.7096 9.41421 88.72 9.42894C88.7529 9.47455 88.7529 9.5396 88.7529 9.6697V16.3531C88.7529 16.4832 88.7529 16.5483 88.72 16.5938C88.7096 16.6086 88.6966 16.6215 88.6815 16.6323C88.6359 16.6654 88.5708 16.6654 88.4407 16.6654H87.3289C87.1988 16.6654 87.1337 16.6654 87.0881 16.6323C87.0734 16.6215 87.0604 16.6086 87.0498 16.5938C87.0166 16.5483 87.0166 16.4832 87.0166 16.3531V11.2098C87.0166 11.0797 87.0166 11.0147 86.9835 10.9691C86.9728 10.9543 86.9598 10.9413 86.9451 10.9307C86.8995 10.8976 86.8345 10.8976 86.7043 10.8976H85.0036C84.8737 10.8976 84.8087 10.8976 84.7634 10.9301C84.7486 10.9406 84.7359 10.9531 84.7251 10.9678C84.6919 11.0126 84.6909 11.0784 84.689 11.2098C84.6865 11.3703 84.6823 11.5379 84.6763 11.7128C84.6763 12.0048 84.6712 12.2917 84.6611 12.5736C84.6511 12.8554 84.641 13.1271 84.631 13.3889C84.631 13.6506 84.631 13.8771 84.631 14.0683C84.6008 15.0246 84.4196 15.6991 84.0874 16.0916C83.7552 16.4741 83.1815 16.6654 82.3661 16.6654H81.8932C81.7631 16.6654 81.6981 16.6654 81.6525 16.6323C81.6377 16.6215 81.6247 16.6086 81.6141 16.5938C81.581 16.5483 81.581 16.4832 81.581 16.3531V15.4375C81.581 15.3074 81.581 15.2424 81.6141 15.1968C81.6247 15.1821 81.6377 15.1691 81.6525 15.1584C81.6981 15.1253 81.7631 15.1253 81.8932 15.1253H82.0188C82.3812 15.1253 82.6378 15.0246 82.7889 14.8233C82.9399 14.622 83.0204 14.2647 83.0305 13.7513Z" fill="#142969"/>
<path d="M93.727 16.8164C92.6504 16.8164 91.7792 16.4792 91.1151 15.8047C90.4511 15.1303 90.1182 14.1942 90.1182 12.9963C90.1182 11.7984 90.4459 10.8673 91.1004 10.203C91.7644 9.53861 92.64 9.20643 93.727 9.20643C94.8245 9.20643 95.6948 9.53861 96.3398 10.203C96.9934 10.8673 97.3211 11.7984 97.3211 12.9963C97.3211 14.1841 96.9934 15.1203 96.3398 15.8047C95.6948 16.4792 94.8245 16.8164 93.727 16.8164ZM93.727 15.3518C94.3312 15.3518 94.7941 15.1504 95.1166 14.7478C95.4382 14.335 95.5995 13.7513 95.5995 12.9963C95.5995 12.2414 95.4382 11.6676 95.1166 11.275C94.7941 10.8723 94.3312 10.671 93.727 10.671C93.1436 10.671 92.6807 10.8723 92.3383 11.275C92.0063 11.6676 91.8399 12.2414 91.8399 12.9963C91.8399 13.7513 92.0115 14.335 92.353 14.7478C92.6955 15.1504 93.1532 15.3518 93.727 15.3518Z" fill="#142969"/>
</svg>
