<svg xmlns="http://www.w3.org/2000/svg" width="24" height="24" viewBox="0 0 24 24" fill="none"><rect width="24" height="24" fill="none"/>
<path d="M18.2391 4.18476C16.849 7.79672 13.159 7.31466 10.5549 7.42107L9.92893 9.88433C13.1402 7.26773 17.3875 9.86244 16.9335 13.8123C16.8192 14.9619 16.3532 16.0484 15.6006 16.9246C14.8473 17.8008 13.8432 18.4243 12.7239 18.7106C10.533 19.2583 8.11676 18.4414 7.03069 16.2067C6.87969 15.8962 6.74897 15.5763 6.63942 15.249L8.943 14.6574C8.98815 14.7904 9.04908 14.9176 9.12458 15.0361C10.6676 17.5244 13.7975 16.288 14.1324 13.6965C14.4673 11.105 10.8085 9.67151 9.12458 12.7419L7.08076 11.8687H7.04631L7.80687 8.81388C7.92897 8.26928 8.28885 6.85143 8.33272 6.71371C8.3984 6.50089 8.41095 6.43207 8.48291 6.23801C9.79435 2.79517 12.3828 2.44769 14.6864 2.44769H14.9587C12.5793 1.71079 10.0107 1.88827 7.75535 2.94552C5.50007 4.00277 3.7205 5.86365 2.76507 8.16392C1.80956 10.4642 1.74686 13.0382 2.58936 15.3823C3.43186 17.7263 5.11879 19.6716 7.31998 20.8372C9.52116 22.003 12.0782 22.3052 14.4905 21.6849C16.9029 21.0645 18.9965 19.5663 20.3624 17.4832C21.7284 15.4003 22.2676 12.8825 21.8748 10.4229C21.4821 7.96325 20.1853 5.7388 18.2391 4.18476Z" fill="#EB2316"/>
<path d="M17.3312 3.51132C16.9432 4.71322 16.2671 5.47064 15.2249 5.87438C14.1827 6.27812 12.8181 6.30943 11.538 6.31885C10.888 6.31233 10.2381 6.3405 9.59122 6.40337C10.6741 3.78363 12.6209 3.5238 14.6992 3.5238C14.9871 3.5238 15.2782 3.5238 15.5571 3.5238C15.8356 3.5238 16.1013 3.5238 16.3645 3.5238C16.7428 3.5238 17.0559 3.5238 17.3312 3.48629" fill="#008F32"/>
</svg>
