<svg xmlns="http://www.w3.org/2000/svg" width="24" height="24" viewBox="0 0 24 24" fill="none"><rect width="24" height="24" fill="none"/>
<g clip-path="url(#clip0_3891_105)">
<path d="M13.4158 15.9374C12.9906 15.909 12.5003 15.8345 12.1136 15.7225C12.0412 15.7015 11.7413 15.5913 11.665 15.5563C10.3188 14.9327 9.38096 13.5714 9.38096 11.9922C9.38096 9.82602 11.1433 8.06161 13.3108 8.06161C15.4591 8.06161 17.2095 9.79592 17.2396 11.9376H18.6593C18.6292 9.01345 16.2422 6.64365 13.3108 6.64365C10.3618 6.64365 7.9616 9.0425 7.9616 11.9922C7.9616 14.0257 9.1052 15.7943 10.7797 16.6978C11.082 16.8577 11.5159 17.0226 11.6633 17.0677C12.1406 17.2098 12.7264 17.3043 13.2478 17.3438C13.4249 17.3571 14.0432 17.3641 14.2234 17.3648H24.0001V15.9507H14.2399C14.1101 15.9507 13.5428 15.9458 13.4158 15.9374ZM14.2399 13.717C14.1367 13.717 13.5967 13.7135 13.497 13.7051C13.3279 13.6908 13.083 13.6656 12.9255 13.6295C12.7477 13.5819 12.5808 13.5189 12.5056 13.4777C11.9782 13.1924 11.6188 12.6346 11.6188 11.9922C11.6188 11.0575 12.3758 10.2995 13.3108 10.2995C14.2262 10.2995 14.9706 11.0277 15.0003 11.9376H16.3644C16.3357 10.2753 14.9807 8.93577 13.3108 8.93577C11.6223 8.93577 10.2537 10.304 10.2537 11.9922C10.2537 13.1826 10.9361 14.2108 11.9299 14.7143C12.0829 14.8039 12.3705 14.8977 12.4524 14.9191C12.733 14.9929 13.1099 15.0433 13.4158 15.0657C13.5288 15.0751 14.0824 15.0793 14.1993 15.08V15.0821H23.9997V13.717H14.2399ZM7.08674 17.3595H5.65758V8.06476H3.56914V6.63525H7.08674V17.3595ZM2 8.77899V10.1536H3.56914V17.3595H4.9423V8.77899H2Z" fill="#D91920"/>
</g>
<defs>
<clipPath id="clip0_3891_105">
<rect width="24" height="24" fill="white"/>
</clipPath>
</defs>
</svg>
