<svg xmlns="http://www.w3.org/2000/svg" width="114" height="24" viewBox="0 0 114 24" fill="none"><rect width="114" height="24" fill="none"/>
<path d="M8.61827 10.4357L12.5229 16.2278H10.3369L6.975 11.2874H5.36191V16.2278H3.44728V7.07497H2L2.96485 5.23202H5.36191V9.58386H6.975L10.1711 5.23202H12.342L8.61827 10.4357ZM11.935 12.2631C11.935 11.4062 12.1259 10.6576 12.5078 10.0175C12.8797 9.41865 13.3873 8.95923 14.0305 8.63916C14.6737 8.31908 15.3672 8.15906 16.111 8.15906C16.8748 8.15906 17.5633 8.31393 18.1764 8.62367C18.8196 8.94375 19.3272 9.41865 19.699 10.0485C20.0709 10.6679 20.2568 11.4062 20.2568 12.2631C20.2568 13.1304 20.0709 13.8789 19.699 14.5087C19.3272 15.1282 18.8196 15.6083 18.1764 15.949C17.5431 16.2794 16.8547 16.4446 16.111 16.4446C15.3773 16.4446 14.6888 16.2794 14.0456 15.949C13.3923 15.6186 12.8747 15.1385 12.4928 14.5087C12.1209 13.8686 11.935 13.12 11.935 12.2631ZM44.4535 8.40688H46.1571V9.47543C46.4184 9.06246 46.7651 8.74758 47.1973 8.53073C47.6395 8.30359 48.2074 8.19003 48.9008 8.19003C49.6144 8.19003 50.2477 8.35524 50.8004 8.6856C51.3331 9.0263 51.7452 9.51159 52.0366 10.1414C52.3381 10.7609 52.4889 11.4733 52.4889 12.2786C52.4889 13.0942 52.3381 13.817 52.0366 14.4468C51.7452 15.0662 51.3331 15.5464 50.8004 15.8871C50.5492 16.0626 50.2527 16.1916 49.9109 16.2742C49.5793 16.3672 49.2426 16.4136 48.9008 16.4136C48.3079 16.4136 47.8657 16.3672 47.5742 16.2742C46.9712 16.0884 46.544 15.7786 46.2927 15.345V19H44.4535V8.40688ZM21.2367 8.40688H23.0609V11.3804H26.1816V8.40688H27.9907V16.2278H26.1816V12.9291H23.0609V16.2278H21.2367V8.40688ZM28.7897 8.40688H35.8V9.8936H33.2069V16.2278H31.3526V9.8936H28.7897V8.40688ZM38.3176 8.40688C39.0011 10.3272 39.6242 12.227 40.1871 14.106C40.7197 12.2476 41.3227 10.3479 41.9962 8.40688H43.8354L41.0313 16.3826C40.8001 17.0331 40.579 17.5339 40.368 17.8849C40.1368 18.2359 39.8504 18.4992 39.5086 18.6747C39.177 18.8606 38.7348 18.9535 38.1819 18.9535C37.8704 18.9535 37.6995 18.9483 37.6694 18.938L37.0513 17.4513C37.2423 17.4926 37.4784 17.5132 37.7598 17.5132C38.1015 17.5132 38.378 17.4616 38.589 17.3583C38.78 17.2757 38.9257 17.1621 39.0262 17.0176C39.1267 16.8834 39.2121 16.713 39.2825 16.5066L36.3879 8.40688H38.3176ZM13.7893 12.2476C13.7893 13.1046 13.9903 13.7602 14.3923 14.2145C14.7944 14.6585 15.3522 14.8804 16.0658 14.8804C16.7894 14.8804 17.3522 14.6585 17.7542 14.2145C18.1663 13.7602 18.3723 13.1046 18.3723 12.2476C18.3723 11.4113 18.1713 10.7815 17.7693 10.3582C17.3673 9.92456 16.7994 9.70776 16.0658 9.70776C15.3421 9.70776 14.7793 9.92456 14.3772 10.3582C13.9853 10.7815 13.7893 11.4113 13.7893 12.2476ZM46.2475 12.2631C46.2676 13.0374 46.4686 13.6569 46.8506 14.1215C47.2325 14.5861 47.7702 14.8185 48.4636 14.8185C49.1572 14.8185 49.6898 14.5861 50.0617 14.1215C50.4436 13.6569 50.6396 13.0374 50.6497 12.2631C50.6396 11.4991 50.4436 10.8899 50.0617 10.4357C49.6898 9.97106 49.1572 9.73873 48.4636 9.73873C47.7702 9.73873 47.2325 9.96586 46.8506 10.4201C46.4686 10.8745 46.2676 11.4887 46.2475 12.2631Z" fill="#000000"/>
<path d="M54.9474 6.68103C55.5711 6.14788 56.1949 5.76563 56.8183 5.53426C57.4424 5.29283 58.1312 5.17212 58.8854 5.17212C60.5457 5.17212 61.8782 5.70024 62.8845 6.75648C63.3571 7.25945 63.7144 7.85296 63.9556 8.537C64.2072 9.21098 64.333 9.95035 64.333 10.7551C64.333 11.8315 64.1168 12.7821 63.6839 13.6069C63.2412 14.472 62.6128 15.1461 61.7981 15.6289C60.9933 16.1017 60.0524 16.3381 58.9764 16.3381C58.4231 16.3381 57.9101 16.2777 57.4369 16.157C56.9746 16.0363 56.5319 15.8452 56.1094 15.5836C55.6868 15.322 55.2391 14.9549 54.7664 14.4821L55.5962 13.5617C56.4012 14.306 57.1402 14.7738 57.8143 14.9649C58.2069 15.0756 58.599 15.1309 58.9911 15.1309C59.7158 15.1309 60.3644 14.9649 60.9378 14.633C61.5112 14.301 61.9691 13.8383 62.3111 13.2448C62.6531 12.6513 62.8442 11.9773 62.8845 11.2229H57.5426V10.0459H62.8692C62.799 9.3317 62.5877 8.6929 62.2354 8.12958C61.8934 7.57633 61.4355 7.14879 60.8621 6.84701C60.2892 6.53517 59.6352 6.37925 58.9007 6.37925C58.3376 6.37925 57.8045 6.47481 57.3014 6.66594C56.8085 6.85707 56.2956 7.184 55.7625 7.64674L54.9474 6.68103ZM68.46 12.7469H67.1471V16.1117H65.8495V8.49175H67.1471V11.6906H68.4753L70.9801 8.49175H72.3681L69.5164 12.1584L72.6094 16.1117H71.131L68.46 12.7469ZM76.7332 16.323C75.9485 16.323 75.2596 16.162 74.6661 15.8401C74.0524 15.5082 73.5797 15.0505 73.2476 14.467C72.9154 13.8836 72.7499 13.2096 72.7499 12.4451V12.264C72.7499 11.4693 72.9208 10.7752 73.2628 10.1817C73.5944 9.57816 74.0622 9.1104 74.6661 8.7784C75.2694 8.44645 75.9534 8.28047 76.7179 8.28047C77.4323 8.28047 78.046 8.39112 78.559 8.61242C79.0719 8.8237 79.5348 9.18081 79.947 9.68374L79.1324 10.4835C78.7801 10.0711 78.4131 9.78437 78.0308 9.62341C77.6589 9.45243 77.2162 9.36688 76.7032 9.36688C76.1396 9.36688 75.6669 9.49261 75.2847 9.74413C74.9024 9.9956 74.6057 10.3477 74.3944 10.8004C74.1831 11.253 74.0774 11.7409 74.0774 12.264V12.4451C74.0774 12.948 74.1831 13.4058 74.3944 13.8182C74.6057 14.2507 74.9122 14.5927 75.3146 14.8443C75.717 15.0957 76.1897 15.2215 76.7332 15.2215C77.055 15.2215 77.3621 15.1812 77.6534 15.1007C77.9252 15.0203 78.1767 14.8996 78.4082 14.7386C78.6396 14.5777 78.901 14.3312 79.1928 13.9993L80.0374 14.7085C79.5953 15.2818 79.1122 15.6943 78.5889 15.9458C78.076 16.1972 77.4574 16.323 76.7332 16.323ZM84.4776 9.54794V16.1117H83.1799V9.54794H80.509V8.49175H87.1485V9.54794H84.4776ZM94.9986 14.7839C94.4655 15.3372 93.9324 15.7345 93.3987 15.9759C92.8656 16.2073 92.2421 16.323 91.5277 16.323C90.7234 16.323 90.0242 16.157 89.4307 15.825C88.8268 15.4931 88.359 15.0253 88.0274 14.4218C87.6952 13.8182 87.5292 13.114 87.5292 12.3093C87.5292 11.5448 87.6903 10.8506 88.0121 10.227C88.3443 9.61334 88.8017 9.1355 89.3855 8.79354C89.979 8.45151 90.6679 8.28047 91.4525 8.28047C92.559 8.28047 93.4189 8.60741 94.0325 9.26129C94.6566 9.91512 94.9681 10.8155 94.9681 11.9623C94.9681 12.0327 94.9583 12.2187 94.9381 12.5205H88.872C88.9226 13.0637 89.0484 13.5315 89.2493 13.9238C89.471 14.3363 89.7775 14.6581 90.1702 14.8895C90.5622 15.1209 91.0349 15.2366 91.5881 15.2366C92.1114 15.2366 92.5743 15.141 92.9767 14.9499C93.3889 14.7587 93.8066 14.4368 94.2291 13.9842L94.9986 14.7839ZM93.7309 11.5699C93.7009 10.8758 93.4793 10.3275 93.0671 9.92519C92.6647 9.51276 92.1212 9.30654 91.4373 9.30654C90.7632 9.30654 90.2001 9.51276 89.7476 9.92519C89.2945 10.3275 89.0179 10.8758 88.9177 11.5699H93.7309ZM104.14 12.3093C104.14 13.0939 103.988 13.788 103.687 14.3916C103.375 14.9952 102.937 15.4629 102.374 15.7949C101.811 16.1268 101.167 16.2928 100.443 16.2928C99.0848 16.2928 98.1291 15.8653 97.5759 15.0102V18.8278H96.2782V8.49175H97.4849V9.83464C98.0785 8.80862 99.0695 8.29556 100.458 8.29556C101.162 8.29556 101.795 8.45652 102.359 8.7784C102.922 9.12042 103.36 9.58818 103.672 10.1817C103.983 10.7752 104.14 11.4593 104.14 12.2338V12.3093ZM102.827 12.2338C102.827 11.6705 102.721 11.1726 102.51 10.74C102.288 10.3175 101.977 9.98553 101.574 9.74413C101.182 9.50269 100.734 9.38196 100.232 9.38196C99.7186 9.38196 99.2557 9.49768 98.843 9.72905C98.4204 9.97044 98.0937 10.3024 97.8623 10.7249C97.6309 11.1474 97.5154 11.6504 97.5154 12.2338V12.3093C97.5154 13.1845 97.7615 13.8886 98.2549 14.4218C98.7477 14.9448 99.4017 15.2064 100.216 15.2064C100.719 15.2064 101.172 15.0807 101.574 14.8292C101.966 14.5877 102.274 14.2507 102.495 13.8182C102.716 13.3756 102.827 12.8726 102.827 12.3093V12.2338ZM110.706 16.1117V12.7318H106.889V16.1117H105.591V8.49175H106.889V11.6756H110.706V8.49175H112.004V16.1117H110.706Z" fill="#000000"/>
</svg>
