<svg xmlns="http://www.w3.org/2000/svg" width="24" height="24" viewBox="0 0 24 24" fill="none"><rect width="24" height="24" fill="none"/>
<path fill-rule="evenodd" clip-rule="evenodd" d="M2 1.99976H22V21.9998H2V1.99976ZM6.6143 6.59054L8.0842 3.53786H9.6905V8.15215H8.56397V4.85018L7.127 7.63945H6.1016L4.66463 4.85018V8.15215H3.54045V3.53786H5.1444L6.6143 6.59054ZM15.3255 3.53786V4.45742H17.334L17.3293 8.15215H18.4534L18.4581 4.45742H20.469V3.53786H15.3255ZM19.1214 19.3704C19.2413 19.2575 19.3142 19.1046 19.3424 18.9212L20.469 18.9189C20.4384 19.2999 20.309 19.6244 20.0833 19.8831C19.8763 20.1206 19.5917 20.2947 19.2366 20.4005C18.8932 20.504 18.4652 20.5581 17.9266 20.5581C17.3857 20.5581 16.9177 20.4805 16.5343 20.3276C16.1439 20.1724 15.8405 19.9137 15.6336 19.5586C15.4337 19.2175 15.3302 18.7636 15.3231 18.2062V18.1545L15.3843 18.1522L15.3231 18.1498V18.0981C15.3302 17.5407 15.4337 17.0868 15.6336 16.7458C15.8429 16.3906 16.1439 16.1319 16.5343 15.9767C16.92 15.8238 17.3881 15.7462 17.9266 15.7462C18.4393 15.7462 18.8909 15.8003 19.2366 15.9038C19.5917 16.0096 19.8763 16.1837 20.0833 16.4212C20.309 16.6799 20.4384 17.0045 20.469 17.3855H19.3424C19.3142 17.202 19.2389 17.0515 19.1214 16.9363C19.0085 16.8281 18.8579 16.7505 18.6698 16.7081C18.484 16.6658 18.223 16.6399 17.9243 16.6399C17.6256 16.6399 17.3622 16.6799 17.1388 16.7552C16.9224 16.8304 16.7507 16.9574 16.6308 17.1385C16.5085 17.3196 16.4473 17.5807 16.4473 17.917V18.3897C16.4473 18.7237 16.5085 18.9871 16.6308 19.1681C16.7507 19.3492 16.9224 19.4786 17.1388 19.5515C17.3622 19.6291 17.635 19.6667 17.9243 19.6667C18.2135 19.6667 18.484 19.6409 18.6698 19.5985C18.8579 19.5538 19.0085 19.4786 19.1214 19.3704Z" fill="white"/>
</svg>
