<svg xmlns="http://www.w3.org/2000/svg" width="124" height="24" viewBox="0 0 124 24" fill="none"><rect width="124" height="24" fill="none"/>
<path d="M9.49221 5.63142H8.30574C6.13017 5.63142 4.98874 6.72993 4.98874 8.35625C4.98874 10.2014 5.78044 11.0597 7.40676 12.1581L8.74772 13.0593L4.87932 18.8393H2L5.47148 13.6751C3.47184 12.244 2.35187 10.8601 2.35187 8.50859C2.35187 5.56491 4.39442 3.56526 8.28429 3.56526H12.1505V18.8372H9.49221V5.63142ZM23.0949 18.8393H20.4581V14.2243H16.9651V18.8393H14.3497V7.7834H16.9651V12.156H20.4581V7.7834H23.0949V18.8393ZM34.8718 21.2767H32.4559V18.8372H26.5879V21.2767H24.1698V16.7711H24.983C25.9056 14.9259 26.0816 11.4308 26.0816 8.72742V7.7834H33.7068V16.7711H34.8718V21.2767ZM28.3257 9.84954V10.18C28.3257 12.0917 28.1284 15.1018 27.4032 16.7732H31.0956V9.84954H28.3257ZM40.7399 18.9681C37.3992 18.9681 35.5091 17.1229 35.5091 13.3425C35.5091 10.0254 37.0259 7.60746 40.212 7.60746C42.8274 7.60746 44.5181 9.03637 44.5181 12.8598V14.2436H38.2124C38.3218 16.0244 39.0685 16.902 40.9587 16.902C42.2332 16.902 43.617 16.4835 44.4087 15.9579V18.0884C43.6621 18.5948 42.4091 18.9681 40.7399 18.9681ZM38.2124 12.3105H41.8598V12.0917C41.8598 10.7292 41.4651 9.67364 40.167 9.67364C38.8689 9.67364 38.2768 10.5747 38.2103 12.3105M48.8887 13.409V18.8372H46.2732V7.7834H48.8887V12.8812L52.5811 7.7834H55.218L51.5255 12.8812L55.7222 18.835H52.7549L48.8864 13.4068L48.8887 13.409ZM55.5677 13.321C55.5677 9.98045 57.3035 7.60746 60.644 7.60746C61.9399 7.60746 62.9076 7.8263 63.4569 8.13526V10.3538C62.929 10.0233 61.9399 9.67364 60.9294 9.67364C59.2151 9.67364 58.271 10.8815 58.271 13.2545C58.271 15.4966 59.0391 16.902 60.9079 16.902C62.0064 16.902 62.7982 16.6166 63.4569 16.1553V18.288C62.8196 18.7493 61.9636 18.9681 60.7535 18.9681C57.2605 18.9681 55.5677 16.947 55.5677 13.321Z" fill="black"/>
<path d="M77.705 22C83.2278 22 87.705 17.5228 87.705 12C87.705 6.47722 83.2271 2 77.705 2C72.1823 2 67.705 6.47722 67.705 12C67.705 17.5228 72.1823 22 77.705 22Z" fill="url(#paint0_radial_2632_156)"/>
<path d="M77.7042 17.8021C79.5825 17.8021 81.1044 15.2053 81.1044 12.0022C81.1044 8.79835 79.5825 6.20158 77.7049 6.20158C75.8266 6.20158 74.3039 8.79835 74.3039 12.0015C74.3039 15.2053 75.8266 17.8021 77.7042 17.8021Z" fill="white"/>
<path fill-rule="evenodd" clip-rule="evenodd" d="M71.3294 7.39898C70.3202 7.34756 69.104 9.4594 69.104 11.9983C69.104 14.5387 70.3202 16.6498 71.3294 16.5977C72.3299 16.5462 72.9041 14.5387 72.9041 11.9983C72.9041 9.4594 72.3299 7.45111 71.3294 7.39898ZM84.079 16.5984C85.0881 16.6498 86.3044 14.5387 86.3044 11.999C86.3044 9.4594 85.0881 7.34756 84.079 7.39969C83.0784 7.45111 82.5042 9.4594 82.5042 11.999C82.5042 14.5387 83.0784 16.5462 84.079 16.5984Z" fill="white"/>
<path d="M90.683 6.42234V4.2755H98.6404V5.59889L95.2574 10.129C98.012 10.5182 99.3561 12.2308 99.3561 14.769C99.3561 17.3072 97.7727 19.5597 94.1104 19.5597C92.7448 19.5597 91.4665 19.1912 90.4902 18.6492V16.4609C91.4665 16.9373 92.3763 17.5443 94.1332 17.5443C95.8901 17.5443 96.8007 16.3088 96.8007 14.7904C96.8007 13.0992 95.7173 12.0594 93.6783 12.0594H92.2264V10.7367L95.4987 6.42234H90.683ZM100.548 12.5358C100.548 7.28793 102.326 4.01554 106.271 4.01554C107.703 4.01554 108.634 4.31835 109.415 4.70973V6.90084C108.526 6.40091 107.551 6.01168 106.316 6.01168C104.104 6.01168 103.065 7.52932 102.891 11.0417C103.541 9.97897 104.67 9.34978 106.1 9.34978C108.571 9.34978 110.241 11.0624 110.241 14.2062C110.241 17.5886 108.16 19.5619 105.601 19.5619C102.391 19.5619 100.55 17.3493 100.55 12.5379M105.559 11.4095C104.106 11.4095 103.152 12.5593 103.152 14.4005C103.152 16.4159 104.062 17.5443 105.385 17.5443C106.795 17.5443 107.618 16.4395 107.618 14.3798C107.618 12.3201 106.709 11.4095 105.559 11.4095ZM116.659 19.5619C113.928 19.5619 111.629 17.46 111.629 11.778C111.629 6.42234 113.863 4.01768 116.659 4.01768C119.456 4.01768 121.668 6.07739 121.668 11.778C121.668 17.4786 119.413 19.5619 116.659 19.5619ZM116.681 6.05382C115.337 6.05382 114.252 7.39791 114.252 11.7566C114.252 16.1152 115.315 17.5229 116.681 17.5229C118.22 17.5229 119.066 15.7024 119.066 11.7994C119.066 7.55004 117.961 6.05382 116.681 6.05382Z" fill="black"/>
<defs>
<radialGradient id="paint0_radial_2632_156" cx="0" cy="0" r="1" gradientUnits="userSpaceOnUse" gradientTransform="translate(61.8339 9.2004) rotate(90) scale(12.7999 99.4396)">
<stop stop-color="#FF9A6F"/>
<stop offset="0.61" stop-color="#FF6427"/>
<stop offset="1" stop-color="#EB581E"/>
</radialGradient>
</defs>
</svg>
