<svg xmlns="http://www.w3.org/2000/svg" width="24" height="24" viewBox="0 0 24 24" fill="none"><rect width="24" height="24" fill="none"/>
<path d="M18.8043 14.2954H11.6615V4.20972H18.1663C20.266 4.20972 21.4053 5.51812 21.4053 7.06626C21.4053 7.76135 21.0549 8.47131 20.5178 9.00842C21.3096 9.42659 21.9884 10.3684 21.9884 11.3506C21.9884 13.0786 20.6396 14.295 18.8043 14.295V14.2954ZM14.1543 12.2664H18.4646C19.0687 12.2664 19.4664 11.8199 19.4664 11.2707V11.2544C19.4664 10.7052 19.0687 10.2587 18.4646 10.2587H14.1543V12.2664ZM14.1543 8.23016H17.842C18.4948 8.23016 18.8833 7.78365 18.8833 7.23446C18.8833 6.68527 18.519 6.23876 17.842 6.23876H14.1543V8.23016Z" fill="white"/>
<path d="M7.2782 14.2954H2V4.20972H6.6398C8.73946 4.20972 9.87874 5.51812 9.87874 7.06626C9.87874 7.76135 9.5284 8.47131 8.99129 9.00842C9.78302 9.42659 10.4618 10.3684 10.4618 11.3506C10.4618 13.0786 9.11302 14.295 7.27774 14.295L7.2782 14.2954ZM4.49274 12.2664H6.93855C7.54257 12.2664 7.9403 11.8199 7.9403 11.2707V11.2544C7.9403 10.7052 7.54257 10.2587 6.93855 10.2587H4.49274V12.2664ZM4.49274 8.23016H6.31595C6.96876 8.23016 7.35719 7.78365 7.35719 7.23446C7.35719 6.68527 6.99292 6.23876 6.31595 6.23876H4.49274V8.23016Z" fill="white"/>
<path d="M3.20386 17.159H4.01928C4.42398 17.159 4.75851 17.2784 5.02242 17.5177C5.28633 17.7569 5.41828 18.065 5.41828 18.4427C5.41828 18.8205 5.28633 19.1244 5.02242 19.365C4.75851 19.6062 4.42398 19.7265 4.01928 19.7265H2.35962V15.6206H5.06609V16.4183H3.20386V17.159ZM4.44163 18.8186C4.54943 18.7299 4.60379 18.6049 4.60379 18.4427C4.60379 18.2806 4.54989 18.1547 4.44163 18.0641C4.33384 17.9735 4.18887 17.9279 4.00813 17.9279H3.20432V18.9515H4.00813C4.18934 18.9515 4.33384 18.9074 4.44163 18.8186Z" fill="white"/>
<path d="M6.62679 19.7265H5.91544V16.8351H6.70763V18.5412L8.00302 16.8351H8.70833V19.7265H7.92171V18.0204L6.62632 19.7265H6.62679Z" fill="white"/>
<path d="M10.5157 19.7902C10.1919 19.7902 9.9029 19.7093 9.64828 19.5472C9.39366 19.385 9.23755 19.1425 9.17993 18.8186H9.99536C10.0609 19.0347 10.2323 19.1425 10.5102 19.1425C10.8071 19.1346 10.9553 19.0249 10.9553 18.8126C10.9553 18.7201 10.9228 18.6467 10.8568 18.5928C10.7913 18.5389 10.6969 18.512 10.5734 18.512H10.2207V17.9684H10.5446C10.6486 17.9684 10.7304 17.9442 10.7903 17.8963C10.8503 17.848 10.88 17.7779 10.88 17.6854C10.88 17.5929 10.847 17.5256 10.7815 17.4717C10.716 17.4178 10.6217 17.3908 10.4981 17.3908C10.263 17.3908 10.1106 17.4889 10.0414 17.6854H9.24916C9.31467 17.3694 9.46522 17.1381 9.70032 16.9917C9.93542 16.8453 10.2091 16.7719 10.5213 16.7719C10.8837 16.7719 11.1602 16.8597 11.3511 17.0349C11.5421 17.2105 11.6374 17.408 11.6374 17.6278C11.6374 17.8782 11.5468 18.071 11.3656 18.2062C11.6239 18.3489 11.7531 18.5724 11.7531 18.8772C11.7531 19.1197 11.6453 19.333 11.4292 19.516C11.2132 19.6991 10.9088 19.7906 10.5153 19.7906L10.5157 19.7902Z" fill="white"/>
<path d="M12.305 19.7265V16.8351H13.0972V17.9279H14.2885V16.8351H15.0807V19.7265H14.2885V18.616H13.0972V19.7265H12.305Z" fill="white"/>
<path d="M17.1256 19.7902C16.6823 19.7902 16.319 19.6475 16.0355 19.3622C15.7521 19.077 15.6104 18.7145 15.6104 18.275C15.6104 17.8355 15.754 17.4847 16.0411 17.1994C16.3283 16.9141 16.6916 16.7715 17.1311 16.7715C17.5707 16.7715 17.9424 16.9229 18.2356 17.2254C18.5283 17.5279 18.6635 17.9414 18.6403 18.466H16.3849C16.4003 18.6472 16.4756 18.7986 16.6108 18.9199C16.7455 19.0412 16.9309 19.1021 17.166 19.1021C17.3086 19.1021 17.435 19.0742 17.5447 19.018C17.6548 18.9622 17.7328 18.8841 17.7788 18.7838H18.6059C18.5209 19.0807 18.3434 19.3228 18.0739 19.5095C17.8039 19.6968 17.488 19.7902 17.1256 19.7902ZM17.1079 17.4131C16.9267 17.4131 16.7752 17.4605 16.654 17.5548C16.5327 17.6492 16.4528 17.7792 16.4142 17.9451H17.7733C17.731 17.7639 17.6469 17.6301 17.5219 17.5432C17.3964 17.4563 17.2589 17.4131 17.1084 17.4131H17.1079Z" fill="white"/>
<path d="M20.5192 19.7902C20.0834 19.7902 19.721 19.6447 19.432 19.3534C19.143 19.0626 18.998 18.7048 18.998 18.2806C18.998 17.8564 19.1425 17.4991 19.432 17.2078C19.721 16.9169 20.0834 16.771 20.5192 16.771C20.9044 16.771 21.2278 16.8788 21.488 17.0948C21.7482 17.3109 21.9187 17.592 22 17.9391H21.179C21.0517 17.6385 20.8319 17.4879 20.5197 17.4879C20.3078 17.4879 20.134 17.5604 19.9993 17.7049C19.8641 17.8494 19.7967 18.0413 19.7967 18.2801C19.7967 18.5189 19.8641 18.7108 19.9993 18.8553C20.134 18.9998 20.3078 19.0723 20.5197 19.0723C20.8319 19.0723 21.0517 18.9218 21.179 18.6212H22C21.9192 18.9682 21.7486 19.2493 21.488 19.4654C21.2278 19.6814 20.9049 19.7892 20.5192 19.7892V19.7902Z" fill="white"/>
</svg>
