<svg xmlns="http://www.w3.org/2000/svg" width="76" height="24" viewBox="0 0 76 24" fill="none"><rect width="76" height="24" fill="none"/>
<path d="M12.1659 7.50298L11.1161 10.7865H13.2721L12.2223 7.50298H12.1659Z" fill="white"/>
<path fill-rule="evenodd" clip-rule="evenodd" d="M12.1919 22C17.8207 22 22.3838 17.5228 22.3838 12C22.3838 6.47716 17.8207 2 12.1919 2C6.56307 2 2 6.47716 2 12C2 17.5228 6.56307 22 12.1919 22ZM12.1871 5.95508C13.0012 5.95508 13.3356 6.46305 13.5487 7.10366L15.7654 13.6579H14.1907L13.6955 12.11H10.6942L10.1989 13.6579H8.6242L10.8395 7.10366C11.0526 6.46164 11.3729 5.95508 12.1871 5.95508ZM8.46174 15.7802H15.9233V17.3281H8.46174V15.7802Z" fill="white"/>
<path fill-rule="evenodd" clip-rule="evenodd" d="M36.837 15.4672H32.1651V19.3984H28.1479V4.59943H36.837C40.2207 4.59943 42.2709 6.62991 42.2709 10.0122C42.2709 13.29 40.2193 15.4672 36.837 15.4672ZM32.1651 11.8719H36.4998C37.5779 11.8719 38.1493 11.2158 38.1493 10.0107C38.1493 8.74223 37.5779 8.04518 36.4998 8.04518H32.1651V11.8719Z" fill="white"/>
<path fill-rule="evenodd" clip-rule="evenodd" d="M41.8688 19.3998H46.013L46.8872 17.3905H53.4412L54.3 19.3998H58.718L52.46 4.60084H48.2735L41.8688 19.3998ZM48.1725 14.3483H52.1806L50.0956 8.95083L48.1725 14.3483Z" fill="white"/>
<path d="M67.4932 19.3998V14.2613L74.0672 4.60084H69.0354L65.3773 10.1614L61.7192 4.60084H56.6875L63.198 14.1037V19.3998H67.4932Z" fill="white"/>
<path fill-rule="evenodd" clip-rule="evenodd" d="M13.5487 7.10366C13.3356 6.46305 13.0012 5.95508 12.1871 5.95508C11.3729 5.95508 11.0526 6.46164 10.8395 7.10366L8.6242 13.6579H10.1989L10.6942 12.11H13.6955L14.1907 13.6579H15.7654L13.5487 7.10366ZM12.1659 7.50298L11.1161 10.7865H13.2721L12.2223 7.50298H12.1659Z" fill="#EF3124"/>
<path d="M15.9233 15.7802H8.46174V17.3281H15.9233V15.7802Z" fill="#EF3124"/>
</svg>
