<svg xmlns="http://www.w3.org/2000/svg" width="24" height="24" viewBox="0 0 24 24" fill="none"><rect width="24" height="24" fill="none"/>
<path d="M11.9995 1.99997C9.44395 1.99997 8.24951 3.44445 8.24951 5.69446V8.30556C8.24951 10.6389 8.66618 11.6389 10.3606 12.6944L11.6661 13.5C12.7217 14.1389 12.8606 14.6111 12.8606 15.9722V18.2778C12.8606 18.9445 12.5551 19.3611 11.9717 19.3611C11.3884 19.3611 11.0828 18.9722 11.0828 18.2778V14.6667H8.24951V18.3056C8.24951 20.5834 9.41613 22 11.9439 22C14.555 22 15.7495 20.5 15.7495 18.3056V15.4722C15.7495 13.3056 15.1939 12.1945 13.5828 11.1667L12.2772 10.3333C11.3606 9.74998 11.1384 9.33332 11.1384 7.83334V5.7222C11.1384 5.05555 11.4439 4.63889 11.9995 4.63889C12.5828 4.63889 12.9162 5.05555 12.9162 5.7222V9.30557H15.7495V5.69446C15.7495 3.4722 14.555 1.99997 11.9995 1.99997Z" fill="white"/>
</svg>
