<svg xmlns="http://www.w3.org/2000/svg" width="56" height="24" viewBox="0 0 56 24" fill="none"><rect width="56" height="24" fill="none"/>
<path d="M47.3685 20.6284C46.2447 20.6284 46.0235 20.1544 46.0235 19.3333V15.8231C46.0235 15.0337 46.239 14.528 47.3685 14.528C48.5761 14.528 48.7802 15.0337 48.7802 15.8231V19.3333C48.7802 20.1544 48.4976 20.6284 47.3685 20.6284ZM47.3685 22C49.4283 22 50.3384 21.2013 50.3384 19.4117V15.7428C50.3384 13.9084 49.4696 13.1545 47.3685 13.1545C45.2669 13.1545 44.4656 13.901 44.4656 15.7428V19.4117C44.4656 21.2013 45.3007 22 47.3685 22Z" fill="black"/>
<path d="M35.7701 20.522V14.6735H37.1017C38.3096 14.6735 38.4913 15.1027 38.4913 15.9238V19.2997C38.4913 20.1208 38.2085 20.5145 37.0792 20.5145L35.7701 20.522ZM34.2213 13.2646V21.9216H37.0792C39.1393 21.9216 40.0494 21.1751 40.0494 19.378V15.8454C40.0494 14.0111 39.1805 13.2571 37.0792 13.2571L34.2213 13.2646Z" fill="black"/>
<path d="M29.4326 18.8722L30.1555 15.6699L30.8784 18.8778L29.4326 18.8722ZM30.9458 13.2738H29.3989L26.9942 21.9215H28.5936L29.0449 20.3912H31.2698L31.7118 21.9215H33.3149L30.9458 13.2738Z" fill="black"/>
<path d="M22.522 17.4429V14.6847H23.1868C24.3966 14.6847 24.6101 15.1139 24.6101 15.935V16.2299C24.6101 17.051 24.2936 17.4448 23.1644 17.4448L22.522 17.4429ZM26.6552 21.9216L24.7469 18.6241C25.7956 18.2863 26.2451 17.5884 26.2451 16.3064V15.8566C26.2451 14.0223 25.2619 13.2571 23.1606 13.2571H20.9694V21.9216H22.5295V18.8723H23.1044L24.833 21.9216H26.6552Z" fill="black"/>
<path d="M41.216 11.3406C41.216 12.6842 43.2386 12.6712 43.2386 11.3406C43.2386 10.01 41.216 9.98391 41.216 11.3406Z" fill="#E2000F"/>
<path d="M40.4314 3.20789C40.3684 3.21622 40.3047 3.20064 40.2527 3.16426C40.2008 3.12787 40.1647 3.07335 40.1511 3.01152C40.1378 2.94968 40.148 2.88507 40.1803 2.83052C40.2125 2.77597 40.2641 2.73548 40.3248 2.71709C40.634 2.64947 40.9467 2.59839 41.2612 2.56407C41.5776 2.53049 41.8959 2.51367 42.2143 2.51369C43.3771 2.51319 44.5286 2.74103 45.6027 3.18416C46.6772 3.6273 47.653 4.27705 48.4752 5.09626C49.2974 5.91551 49.9496 6.88811 50.3942 7.95861C50.8389 9.02906 51.0677 10.1763 51.0669 11.3349C51.0669 11.5688 51.0578 11.8021 51.0388 12.0347C51.0221 12.2642 50.9941 12.4956 50.9565 12.7308C50.9425 12.7932 50.9045 12.8479 50.8514 12.8837C50.7983 12.9195 50.733 12.9337 50.6697 12.9235C50.6063 12.9133 50.549 12.8794 50.5099 12.8287C50.4705 12.778 50.4523 12.7143 50.4583 12.6506C50.4921 12.4397 50.5183 12.2213 50.5354 11.9955C50.5521 11.7697 50.5615 11.5589 50.5615 11.3349C50.5615 10.2429 50.346 9.16155 49.9268 8.15256C49.5076 7.14361 48.8933 6.22677 48.1186 5.45442C47.3438 4.68207 46.4238 4.06936 45.4115 3.65124C44.3992 3.23312 43.3141 3.01779 42.218 3.01754C41.9172 3.01781 41.6167 3.03338 41.3173 3.0642C41.0195 3.09616 40.724 3.14413 40.4314 3.20789ZM40.4314 5.82047C40.3681 5.84077 40.299 5.83508 40.2395 5.80461C40.1803 5.77418 40.1355 5.72148 40.115 5.65812C40.0945 5.59476 40.1002 5.52598 40.1309 5.46683C40.1613 5.40768 40.2144 5.36306 40.2778 5.34276C40.9045 5.13944 41.559 5.03495 42.218 5.03298C43.8954 5.03298 45.5041 5.69694 46.6901 6.87878C47.8761 8.06063 48.5427 9.66354 48.5427 11.3349V11.5383C48.5355 11.6012 48.5052 11.6592 48.457 11.7007C48.4092 11.7422 48.3473 11.7642 48.2836 11.7623C48.2202 11.7605 48.1599 11.7348 48.1144 11.6905C48.0688 11.6463 48.0419 11.5866 48.0389 11.5234C48.0389 11.4581 48.0389 11.3984 48.0389 11.3368C48.0389 10.5751 47.8886 9.82073 47.5961 9.11693C47.3036 8.41313 46.8749 7.77368 46.3346 7.23504C45.7939 6.69644 45.1524 6.26923 44.4459 5.97781C43.7395 5.68643 42.9825 5.5366 42.218 5.53683C41.9141 5.53675 41.6102 5.55986 41.3098 5.60588C41.0108 5.65255 40.716 5.72243 40.4276 5.81489L40.4314 5.82047ZM40.5308 8.52639C40.5024 8.54665 40.4701 8.56084 40.4356 8.56801C40.4015 8.57518 40.3662 8.57521 40.332 8.56812C40.2979 8.56099 40.2653 8.54687 40.2368 8.52669C40.2083 8.50647 40.1844 8.48059 40.1666 8.45069C40.1488 8.4208 40.137 8.38748 40.1328 8.35296C40.1283 8.3184 40.1313 8.2833 40.1412 8.24991C40.1511 8.21649 40.1681 8.18553 40.1905 8.15889C40.2129 8.1323 40.241 8.11063 40.2725 8.09531C40.8609 7.74227 41.5351 7.5564 42.2218 7.55784C43.0759 7.55852 43.9045 7.84573 44.5745 8.37322C45.2446 8.90071 45.7169 9.63766 45.915 10.4653C45.9248 10.528 45.9108 10.5922 45.8751 10.645C45.8398 10.6978 45.7856 10.7352 45.7234 10.7499C45.6615 10.7645 45.5963 10.7552 45.5409 10.7239C45.4851 10.6926 45.4437 10.6416 45.4244 10.581C45.3212 10.1526 45.1326 9.74924 44.8697 9.39492C44.6072 9.04059 44.2756 8.74257 43.8946 8.51849C43.5141 8.29446 43.0918 8.14895 42.6536 8.09068C42.2154 8.0324 41.77 8.06252 41.3435 8.17927C41.0574 8.25648 40.7828 8.37132 40.527 8.52077L40.5308 8.52639ZM40.4238 0.651283C40.3905 0.658928 40.3555 0.659611 40.3214 0.653286C40.2876 0.646962 40.255 0.63377 40.2266 0.614515C40.1977 0.595264 40.1734 0.570364 40.1548 0.541354C40.1363 0.512345 40.1237 0.479838 40.1184 0.445847C40.1127 0.411852 40.1142 0.377095 40.123 0.343719C40.1313 0.310342 40.1465 0.279054 40.1677 0.251787C40.1886 0.224521 40.2152 0.201855 40.2455 0.185189C40.2759 0.168523 40.3093 0.158211 40.3434 0.154889C40.6526 0.102638 40.9653 0.0634485 41.2798 0.039189C41.5947 0.0149291 41.9092 0 42.2162 0C44.1325 0.000229616 46.0174 0.482509 47.6967 1.40213C49.3759 2.32175 50.7949 3.64894 51.8219 5.26066C52.8493 6.87237 53.4515 8.71643 53.5729 10.6219C53.6943 12.5274 53.3312 14.4325 52.5166 16.1607C52.5041 16.1931 52.4851 16.2225 52.4608 16.2471C52.4366 16.2718 52.4073 16.2912 52.3751 16.3042C52.3428 16.3171 52.3083 16.3233 52.2738 16.3224C52.2393 16.3215 52.2051 16.3135 52.1736 16.2988C52.1421 16.2842 52.1141 16.2632 52.0909 16.2373C52.0682 16.2114 52.0507 16.181 52.0401 16.1481C52.0295 16.1152 52.0257 16.0805 52.0291 16.046C52.0321 16.0116 52.0427 15.9782 52.0598 15.948C52.8387 14.2963 53.187 12.4753 53.0717 10.6538C52.956 8.8323 52.3808 7.06936 51.3993 5.52844C50.4177 3.98753 49.0618 2.71855 47.4565 1.8392C45.8516 0.959857 44.0498 0.498618 42.218 0.498258C41.913 0.498258 41.6114 0.511321 41.3135 0.53558C41.0157 0.559843 40.7107 0.597165 40.4204 0.645683L40.4238 0.651283Z" fill="#E2000F"/>
<path d="M43.0121 13.2682H41.4429V21.9346H43.0121V13.2682Z" fill="black"/>
<path d="M20.093 13.2906H14.9428V14.6735H16.7501V21.9215H18.297V14.6735H20.093V13.2906Z" fill="black"/>
<path d="M8.93491 13.2571V21.9328H14.0963V20.5145H10.4931V18.2304H13.4296V16.8345H10.4931V14.6063H13.9371V13.2571H8.93491Z" fill="black"/>
<path d="M4.94777 18.4002H6.42727V19.2437C6.42727 20.0983 6.03212 20.5705 4.90282 20.5705C3.77353 20.5705 3.55816 20.0983 3.55816 19.2772V15.879C3.55816 15.0915 3.77353 14.5839 4.90282 14.5839C6.12015 14.5839 6.30742 14.9889 6.30742 15.7987H7.86556C7.86556 13.9326 6.99661 13.2123 4.89533 13.2123C2.79406 13.2123 2 14.0334 2 15.7987V19.2772C2 21.1434 2.83526 21.9663 4.90282 21.9663C6.97039 21.9663 7.87307 21.1452 7.87307 19.2437V16.9931H4.94777V18.4002Z" fill="black"/>
</svg>
