<svg xmlns="http://www.w3.org/2000/svg" width="24" height="24" viewBox="0 0 24 24" fill="none"><rect width="24" height="24" fill="none"/>
<path d="M12 21.9998C17.5228 21.9998 22 17.5226 22 11.9998C22 6.47691 17.5228 1.99976 12 1.99976C6.47716 1.99976 2 6.47691 2 11.9998C2 14.3606 2.81814 16.5304 4.18636 18.2411L5.64353 14.5356L10.6514 14.5336C11.6662 14.5336 12.5153 14.2764 13.1987 13.7621C13.8916 13.2398 14.3148 12.5434 14.4683 11.6728C14.6064 10.8894 14.4282 10.3117 13.9336 9.93976C13.4404 9.55994 12.6863 9.37001 11.6714 9.37001H10.8507L9.49188 12.8044H6.32426L8.72981 6.68726H12.5098C13.7521 6.68726 14.7903 6.87719 15.6244 7.25704C16.4682 7.62897 17.0722 8.16314 17.4366 8.85957C17.8091 9.55594 17.9109 10.3829 17.742 11.3405C17.5285 12.5513 17.0527 13.5919 16.3147 14.4624C15.5861 15.325 14.6692 15.9898 13.5639 16.4566C12.4586 16.9236 11.2442 17.157 9.92087 17.157H7.78491L6.51997 20.3659C8.09386 21.3989 9.97675 21.9998 12 21.9998Z" fill="white"/>
</svg>
