<svg xmlns="http://www.w3.org/2000/svg" width="24" height="24" viewBox="0 0 24 24" fill="none"><rect width="24" height="24" fill="none"/>
<path d="M23 5.94995C17.7436 9.10707 11.9236 11.7486 7.36958 13.5811C7.36715 14.9507 6.7483 16.5171 4.8895 18.0207C8.07741 17.6153 12.5702 13.0206 23 5.94995Z" fill="white"/>
<path d="M23 5.94995C19.2077 8.0181 10.0755 9.60203 5.98343 10.1355C6.63917 10.8233 7.37223 12.0847 7.36958 13.5811C11.9236 11.7486 17.7436 9.10707 23 5.94995Z" fill="white"/>
<path d="M1 15.9214C2.31026 17.5517 3.47063 18.2012 4.8895 18.0207C6.7483 16.5171 7.36715 14.9507 7.36958 13.5811C4.6786 14.6638 2.4296 15.4641 1 15.9214Z" fill="#CBC9C9"/>
</svg>
