<svg xmlns="http://www.w3.org/2000/svg" width="24" height="24" viewBox="0 0 24 24" fill="none"><rect width="24" height="24" fill="none"/>
<path d="M2.12361 3.72411C1.9985 3.72411 1.96288 3.80215 2.05328 3.88799C2.53911 4.37574 2.84504 5.04688 2.84504 5.78825C2.84504 6.52962 2.54367 7.20076 2.05693 7.6846C1.96287 7.77825 1.99484 7.85239 2.17108 7.85239H12.619C13.2108 7.36074 13.5906 6.61547 13.5906 5.78435C13.5906 4.95323 13.2108 4.21186 12.619 3.71631H2.12817L2.12361 3.72411Z" fill="white"/>
<path d="M2.12361 9.9364C1.9985 9.9364 1.96288 10.0144 2.05328 10.1002C2.53911 10.588 2.84504 11.2592 2.84504 12.0005C2.84504 12.7418 2.54367 13.413 2.05693 13.8968C1.96287 13.9905 1.99484 14.0646 2.17108 14.0646H8.54523C9.13698 13.573 9.51779 12.8277 9.51779 11.9966C9.51779 11.1655 9.13698 10.4241 8.54523 9.92854H2.12817L2.12361 9.9364Z" fill="white"/>
<path d="M2.12361 16.1478C1.99028 16.1478 1.95831 16.2219 2.05693 16.3156C2.54275 16.8034 2.84504 17.4706 2.84504 18.2158C2.84504 18.9612 2.54275 19.6284 2.05693 20.1123C1.96287 20.2059 1.99393 20.28 2.17018 20.28H4.4751C5.06776 19.7884 5.44766 19.0431 5.44766 18.212C5.44766 17.3809 5.06776 16.6395 4.4751 16.144H2.12726L2.12361 16.1478Z" fill="white"/>
<path d="M21.0268 3.72434H18.2242C18.816 4.21988 19.1959 4.95736 19.1959 5.79237C19.1959 6.62739 18.816 7.36487 18.2242 7.86041H21.0268C21.6186 7.36877 21.9994 6.62739 21.9994 5.79237C21.9994 4.95736 21.6186 4.21988 21.0268 3.72434Z" fill="white" fill-opacity="0.4"/>
<path d="M18.2206 3.72434H15.417C16.0097 4.21988 16.3896 4.95736 16.3896 5.79237C16.3896 6.62739 16.0097 7.36487 15.417 7.86041H18.2206C18.8123 7.36877 19.1922 6.62739 19.1922 5.79237C19.1922 4.95736 18.8123 4.21988 18.2206 3.72434Z" fill="white" fill-opacity="0.6"/>
<path d="M21.0268 9.93612H14.1513C14.7431 10.4317 15.123 11.1691 15.123 12.0042C15.123 12.8392 14.7431 13.5767 14.1513 14.0722H21.0268C21.6195 13.5806 21.9994 12.8392 21.9994 12.0042C21.9994 11.1691 21.6195 10.4317 21.0268 9.93612Z" fill="white" fill-opacity="0.4"/>
<path d="M14.1513 9.93612H11.3478C11.9396 10.4317 12.3204 11.1691 12.3204 12.0042C12.3204 12.8392 11.9396 13.5767 11.3478 14.0722H14.1513C14.7431 13.5806 15.123 12.8392 15.123 12.0042C15.123 11.1691 14.7431 10.4317 14.1513 9.93612Z" fill="white" fill-opacity="0.6"/>
<path d="M15.417 3.72434H12.6144C13.2062 4.21988 13.587 4.95736 13.587 5.79237C13.587 6.62739 13.2062 7.36487 12.6144 7.86041H15.417C16.0097 7.36877 16.3896 6.62739 16.3896 5.79237C16.3896 4.95736 16.0097 4.21988 15.417 3.72434Z" fill="white" fill-opacity="0.8"/>
<path d="M11.3442 9.93612H8.54158C9.13333 10.4317 9.51412 11.1691 9.51412 12.0042C9.51412 12.8392 9.13333 13.5767 8.54158 14.0722H11.3442C11.9369 13.5806 12.3167 12.8392 12.3167 12.0042C12.3167 11.1691 11.9369 10.4317 11.3442 9.93612Z" fill="white" fill-opacity="0.8"/>
<path d="M21.0268 16.148H10.0821C10.6739 16.6435 11.0538 17.381 11.0538 18.216C11.0538 19.051 10.6739 19.7884 10.0821 20.284H21.0268C21.6195 19.7924 21.9994 19.051 21.9994 18.216C21.9994 17.381 21.6195 16.6435 21.0268 16.148Z" fill="white" fill-opacity="0.4"/>
<path d="M10.0785 16.148H7.27496C7.86672 16.6435 8.24751 17.381 8.24751 18.216C8.24751 19.051 7.86672 19.7884 7.27496 20.284H10.0785C10.6702 19.7924 11.0501 19.051 11.0501 18.216C11.0501 17.381 10.6702 16.6435 10.0785 16.148Z" fill="white" fill-opacity="0.6"/>
<path d="M7.27496 16.148H4.47235C5.06411 16.6435 5.44491 17.381 5.44491 18.216C5.44491 19.051 5.06411 19.7884 4.47235 20.284H7.27496C7.86763 19.7924 8.24751 19.051 8.24751 18.216C8.24751 17.381 7.86672 16.6435 7.27496 16.148Z" fill="white" fill-opacity="0.8"/>
</svg>
