<svg width="46" height="24" fill="none" xmlns="http://www.w3.org/2000/svg"><path d="M2 2h20v20H2V2z" fill="#011689"/><path d="M15.184 16.54c-.193.05-.24.128-.207.175.034.046.207.01.297-.031.092-.043.114-.094.083-.142-.025-.037-.143-.009-.173-.002zM13.65 7.518c.097.008.09.006.129.012.022-.032.193-.28.208-.333.018-.05-.023-.089-.062-.09-.039-.003-.115.001-.167.05-.056.05-.09.275-.108.361zm2.933 3.044c-.208-.076-.422-.034-.628.048l-.02.044a.594.594 0 0 1-.154.202c.107.077.354.153.621.144.268-.006.5-.197.5-.197-.053-.076-.108-.165-.319-.241zm-.375 1.171c-.08-.143-.316-.17-.515-.328l-.012.042-.045.01a.847.847 0 0 1-.401.003c.013.032.024.08.029.105a.866.866 0 0 0 .589.317c.256.029.355-.149.355-.149zm-.49-1.29c.132.043.25.064.574-.018.344-.09.393-.35.393-.35a.543.543 0 0 0-.444-.057 1.033 1.033 0 0 1-.418.014.702.702 0 0 1-.225.376.778.778 0 0 1 .12.035zm.277 4.122c.205-.184.334-.373.214-.501-.12-.128-.323-.017-.528.167-.205.184-.334.373-.215.5.111.12.324.018.53-.166zm-.517-.514c.258-.447-.053-1.046-.313-1.463a.887.887 0 0 1-.097-.043c.091.321.264.702.193.996-.227-.264-.294-1.055-.294-1.055a1.11 1.11 0 0 1-.13-.098c0 .028-.002.058-.004.088.032.477.071.967.223 1.21.149.24.422.365.422.365zm-.554-1.692c.147.115.346.225.565.192 0 0 .05-.161-.386-.556a.75.75 0 0 1-.343-.132c-.018.05-.047.118-.025.215.021.097.09.204.189.281zm1.582-2.61c.187-.168.349-.58.349-.58-.173.022-.51.17-.713.28-.186.104-.448.32-.56.4.132.01.208.056.215.06l.045.028c.333.048.47-.017.664-.189zm-.77 2.62-.01-.002a.627.627 0 0 1-.224-.035c.02.034.035.065.045.091.716.654.654.976.654.976-.244-.14-.514-.537-.65-.78l-.05.007a.627.627 0 0 1-.177.003c.093.086.229.329.451.713.221.386.76.55.76.55.055-.653-.525-1.256-.8-1.524zm-.09-.465c-.175-.114-.258-.136-.377-.179-.018.143-.088.234-.094.241.052.06.236.37.624.318 0 0 .103-.211-.153-.38zm-.98-2.149c-.136.092-.287.282-.173.55.115.268.332.647.202.796-.13.148-.59.225-.966.078 0 0-.078.231-.214.38 0 0 .063.127.28.063 0 0-.08.19.029.395 0 0 .252-.043.36-.268 0 0 .1.175.303.24 0 0 .166-.085.13-.41 0 0 .121.29.496.338 0 0 .216-.267-.065-.627 0 0 .202.177.57.092 0 0 .057-.183-.275-.436 0 0 .376-.014.52-.324 0 0-.16-.191-.547-.148 0 0 .36-.078.438-.5 0 0-.26-.162-.67.098 0 0 .072-.133.245-.267.173-.135.383-.507.31-1.057-.137.296-.361.599-.972 1.007zm-.004-2.878c.083.022.1.016.14.012a.177.177 0 0 0-.005-.08s-.196-.187-.36-.218a.233.233 0 0 0-.2.048s.058-.005.146.065c.088.069.197.153.28.173zm-.353.552c-.003.051-.04.105-.083.149 0 0 .24-.056.268-.2.027-.13-.03-.22-.069-.292-.035-.068-.146-.224-.174-.29-.025-.06-.039-.11-.03-.142-.073.072-.135.148-.133.215 0 .068.082.24.124.305.043.065.105.15.097.255zm.466-.239a.643.643 0 0 0-.04.47c.043.115.077.278.08.33.09-.131.118-.27.1-.402a.533.533 0 0 1 .028-.3c.04-.082.126-.226.114-.37-.071-.044-.196-.085-.196-.085a.624.624 0 0 1-.086.357zm-.89.872s.158-.116.196-.214c.039-.097.049-.165-.109-.118a.934.934 0 0 1-.086.332zm2.51.926c.187-.32.088-.724.088-.724-.37.096-.559.407-.612.496-.053.088-.142.43-.18.57a1.2 1.2 0 0 1-.196.417c.41-.192.74-.482.9-.759zm-1.402-1.41c.003.027.005.054.006.083.072-.123.283.003.283.003-.133-.207-.197-.23-.293-.266a.65.65 0 0 0 .004.18zm1.982 1.497-.11.31c.29-.225.583-.446.88-.662.17-.126.425-.305.68-.39 0 0-.235.298-.424.444-.217.17-.439.315-.622.413-.162.087-.244.136-.573.291-.022.04-.09.135-.117.171.903-.146 1.895-.814 2.202-1.228.308-.414.22-1.031.22-1.031-.298.058-.945.604-1.112.768a14.09 14.09 0 0 1-1.024.914zm-.73.238c.07-.034.151-.071.232-.105l.076-.03c.666-.346 1.327-1.062 1.595-1.56.267-.498.157-1.077.086-1.386-.303.25-.739.745-.929 1.013a9.42 9.42 0 0 0-.718 1.176v.012c.001.039.003.082 0 .127l-.007.1c.219-.273.48-.601.73-.905.171-.208.317-.334.477-.435a2.148 2.148 0 0 1-.55.846c-.17.152-.419.41-.661.569l-.024.078a.853.853 0 0 1-.088.214c-.057.097-.13.193-.219.286zm3.469-.24c-.707-.018-1.279.15-1.72.283-.515.154-1.301.441-1.576.561a.616.616 0 0 1 .312.095c.383-.143.562-.205.91-.3.275-.075.479-.09.651-.106 0 0-.242.156-.641.28-.396.124-.566.145-.887.205a.544.544 0 0 1-.315.359c.57-.244 1.695-.384 2.3-.63.816-.333.966-.747.966-.747zm-5.18 3.847s.143-.154.185-.281a.72.72 0 0 0 .006-.448.642.642 0 0 0-.119-.212.292.292 0 0 1-.083.078l-.03.015-.031-.01a.482.482 0 0 1-.075-.03.747.747 0 0 0-.053.203c-.011.098-.03.253.007.379.046.154.14.248.192.306zm2.131-1.443c-.122-.353-.363-.407-.6-.45a1.367 1.367 0 0 0-.524-.008c.076.084.103.166.14.219.116.166.32.263.554.311.277.055.43-.072.43-.072zM12.33 8.654c.082-.08.183-.2.221-.315 0 0-.164.003-.24.053a.6.6 0 0 0-.23.37s.166-.028.248-.108zm-.64-.262c-.077-.05-.242-.053-.242-.053.039.115.14.234.223.315.082.08.247.108.247.108a.602.602 0 0 0-.229-.37zM9.71 8.2a.064.064 0 0 1-.063-.064c0-.036.029-.064.064-.064.037 0 .067.028.067.064 0 .036-.03.064-.067.064zm.041-.346c-.088-.02-.275-.041-.357.078-.084.118-.052.342.114.433 0 0 .252-.213.558-.001 0 0 .07-.045.23-.08 0 0-.094-.112-.199-.159-.095-.042-.29-.098-.346-.27zm.786 3.018c.097 0 .243-.077.423-.299.266-.327.326-.768.326-.768-.272.446-.543.677-.755.665-.187-.01-.274-.274-.274-.274-.094.075-.11.287-.06.422.048.136.194.254.34.254zm-.013-2.34a1.534 1.534 0 0 1-.193-.21c-.146.033-.249.052-.361.202-.104.138.039.351.039.351.103-.348.515-.344.515-.344zm3.302 4.683c-.11.54.06.762.06.762.283-.332.307-.677.372-1.19a1.06 1.06 0 0 1-.127.209c-.074.517-.177.589-.177.589-.04-.22.025-.439.025-.439a.56.56 0 0 1-.153.07zm.434-1.263a1.37 1.37 0 0 1-.071-.067c-.041.05-.18.22-.248.39a5.024 5.024 0 0 0-.135.454 2.245 2.245 0 0 1-.161.428s.22.027.383-.159a.99.99 0 0 0 .24-.554 2.031 2.031 0 0 0-.008-.492zm-.038-3.816c0-.036.03-.064.065-.064.036 0 .066.028.066.064 0 .036-.03.064-.066.064a.065.065 0 0 1-.065-.064zm.269.23c.166-.092.198-.316.115-.434-.082-.12-.269-.099-.358-.078-.056.173-.252.23-.345.271a.672.672 0 0 0-.201.159c.16.035.231.08.231.08a.46.46 0 0 1 .558.001zm-.5.51s.143-.214.038-.353c-.112-.15-.215-.168-.361-.201 0 0-.11.145-.192.21 0 0 .411-.005.515.343zm-.249 1.32s-.087.264-.274.274c-.21.012-.482-.22-.755-.665 0 0 .06.441.326.768.18.222.326.3.423.3.145 0 .292-.12.341-.255.049-.136.034-.347-.06-.422zm-.075 4.64c.113-.071.23-.105.252-.112a1.482 1.482 0 0 0-.255-.134 1.63 1.63 0 0 0-.167-.052c-.045.015-.126.022-.126.022.095.02.197.168.22.211.026.045.076.064.076.064zm-.203.326c.04-.02.123-.092.095-.244-.03-.178-.294-.356-.294-.356a.256.256 0 0 1-.118-.025.683.683 0 0 0-.138.097c.08-.013.21.022.282.075.055.04.145.18.09.276-.056.095-.258.03-.258.03.118.24.301.166.341.147zm.362-.215c.06-.012.15.043.15.043 0-.046-.019-.09.033-.124.05-.03.25.006.333-.008.041-.007.057-.03.046-.054-.026-.059-.075-.113-.075-.113-.096.028-.395.106-.503.156-.066.03-.175.09-.195.143-.027.073.009.108.037.141.046-.13.095-.168.174-.184zm.795-2.004c.082.549-.051.648-.051.648-.133-.257-.09-.618-.09-.618-.032-.038-.1-.106-.14-.17.066 1.142.25 1.274.25 1.274.268-.245.188-1.028.164-1.326-.039.068-.083.132-.133.192zm-1.276 3.377a2.52 2.52 0 0 1-.928-.861s-.104.025-.187-.011l.054.087c.3.447.631.727.97.909l.091-.124zm-3.607-4.368c-.02.14-.027.345-.006.492a.981.981 0 0 0 .239.554c.163.186.383.16.383.16a2.154 2.154 0 0 1-.16-.428 5.46 5.46 0 0 0-.134-.455 1.68 1.68 0 0 0-.25-.39.879.879 0 0 1-.072.067zm.904-.662c.03-.084.01-.337.01-.337-.162.074-.356-.026-.356-.026.002.193.159.459.208.532a.34.34 0 0 0 .138-.169zm-1.031 3.514c-.011.024.004.047.046.054.083.014.283-.023.333.008.051.034.032.079.032.124 0 0 .092-.055.15-.043.08.017.128.054.174.184.029-.032.065-.068.037-.141-.02-.054-.128-.112-.194-.143-.107-.05-.406-.129-.504-.156 0 0-.049.054-.074.113zm.43 1.138.978 1.342.116-.172-.937-1.282.154-.107-.484-.182.008.517.164-.116zm-.429-3.91a.452.452 0 0 1-.076.03l-.03.01-.03-.014c-.004-.003-.043-.025-.084-.078a.627.627 0 0 0-.117.211.711.711 0 0 0 .005.448c.041.127.185.282.185.282.052-.059.147-.152.193-.307.037-.126.017-.281.007-.38a.686.686 0 0 0-.053-.202zm.046.77c-.039.065-.108.133-.14.17 0 0 .044.362-.089.619 0 0-.133-.1-.05-.648a1.57 1.57 0 0 1-.134-.192c-.023.297-.104 1.08.165 1.326 0 0 .183-.132.248-1.275zm3.689-1.849s-.02.253.01.337c.026.07.06.11.138.169.049-.073.207-.339.209-.532 0 0-.194.1-.357.026zm-3.778 5.685a2.378 2.378 0 0 1-.46.025.13.13 0 0 1-.012.079s.03.034.03.071c.15.005.307-.003.466-.027.265-.04.544-.092.824-.196l-.093-.127c-.256.09-.512.139-.755.175zm-.804.234a2.883 2.883 0 0 0-.136.163c-.01.018.006.046.035.042.028-.003.184-.018.274-.077.09-.06.149-.176.087-.218-.062-.042-.158-.022-.26.09zm2.864.917c-.038-.05-.14-.192-.275-.376l-.115.17.407.558.308-.536-.11-.192c-.08.141-.166.293-.215.376zm2.492-1.732.01-.517-.486.182.154.107-1.43 1.96-.726-1.288-.09.135-.647.955-.162-.105-.002.508.491-.19-.165-.107.558-.824.727 1.268 1.605-2.2.163.116zM8.13 12.315a.362.362 0 0 1-.028-.147c-.61.636-.963.745-.963.745.227-.446.785-.723.978-.83a.361.361 0 0 1 .065-.129c-.008.003-.016.003-.025.004a.489.489 0 0 1-.258-.035c-.254.18-.6.454-.87.752-.27.3-.368.576-.417.927 0 0 .505-.018.824-.45.32-.433.479-.63.694-.837zm-.336-.46a.335.335 0 0 1-.048-.052s-.558.482-1.147.69c0 0 .125-.223.36-.385.283-.197.495-.263.744-.376l.02-.037c.008-.012.014-.023.023-.034-.208.079-.947.352-1.187.473-.24.122-.586.397-.774.957 0 0 .5.043.911-.29.412-.334.892-.799 1.098-.947zm.944 4.88a.174.174 0 0 0-.147-.014c-.062.022-.29.152-.304.215-.016.06.016.09.051.105a.522.522 0 0 0 .109.03.18.18 0 0 0 .141-.063c.029-.036.135-.16.15-.19.015-.026.023-.067 0-.083zm4.356.856-.115-.17-.123.165c.033.047.058.086.075.112l-.165.106.492.19-.002-.508-.162.105zm-4.52-1.114c-.001-.058-.053-.073-.101-.073-.047 0-.245.005-.351-.072a.513.513 0 0 1-.19-.41c0-.301.25-.547.559-.547.309 0 .558.246.558.546 0 .041-.008.109-.008.109.026-.048.118-.256.136-.295a.712.712 0 0 0-.686-.51.715.715 0 0 0-.641.392c.044-.275.184-.524.283-.615.12-.11.322-.145.322-.145-.133.021-.308-.06-.504-.235-.186-.166-.28-.312-.286-.434a.882.882 0 0 1-.045.408c-.067.19-.251.542-.185.938.036.218.197.542.468.807.057.06.078.148.085.193 0 0 .398 0 .493.009 0 0 .094-.01.093-.066zm-.07.11a1.479 1.479 0 0 0-.286.01c-.098.016-.21.034-.221.087-.011.051.024.104.074.18.03.047.103.02.143.005.04-.014.271-.135.308-.175.037-.039.052-.095-.019-.107zm8.939-4.452c-.24-.122-.98-.395-1.187-.473.008.01.015.021.022.034l.022.037c.248.112.46.178.745.375.231.162.357.386.357.386-.589-.209-1.146-.691-1.146-.691a.438.438 0 0 1-.048.052c.204.147.685.612 1.097.946.412.333.91.29.91.29-.188-.56-.534-.835-.772-.956zm.382-.586c-.273-.082-.884-.153-1.128-.202a.568.568 0 0 1 .025.055c.202.051.467.141.708.24.223.091.434.237.434.237-.428-.011-.86-.177-1.184-.318a.574.574 0 0 1-.256.076c.155.04.408.118 1.218.491.811.373 1.24.244 1.24.244-.292-.547-.786-.742-1.057-.823zm-4.302-4.555h.107v-.169h.133v-.09h-.133V6.59h-.107v.144h-.132v.09h.132v.169zm3.43 3.87a.948.948 0 0 1-.114.077c.293.025.915.053 1.236.214 0 0-.593.076-1.373-.145a.7.7 0 0 1-.244.065c.057.036.11.08.159.142.285.08.771.168 1.575.225.803.056 1.23-.088 1.23-.088a3.655 3.655 0 0 0-1.026-.393c-.303-.058-1.095-.051-1.443-.098zm-9.376.773a.568.568 0 0 1-.255-.076c-.324.14-.756.307-1.185.319 0 0 .211-.147.434-.239.23-.095.467-.175.708-.239.007-.018.016-.037.025-.055-.245.048-.854.12-1.127.202-.272.082-.766.276-1.058.822 0 0 .43.13 1.24-.243s1.064-.45 1.218-.49zm8.525.287a.49.49 0 0 1-.283.03.387.387 0 0 1 .066.13c.192.107.752.383.977.83 0 0-.354-.11-.964-.745.003.05-.007.1-.026.147.214.206.374.404.693.836.319.433.824.45.824.45-.049-.35-.146-.627-.417-.926a5.544 5.544 0 0 0-.87-.752zm-.691 4.797a.177.177 0 0 0-.149.014c-.021.015-.014.057 0 .084.017.03.122.154.152.19a.182.182 0 0 0 .14.062.52.52 0 0 0 .109-.03c.035-.015.066-.044.051-.105-.015-.063-.242-.193-.303-.215zm-.435.061c-.062.042-.003.158.087.218s.245.075.274.078c.028.003.045-.025.034-.043a3.005 3.005 0 0 0-.135-.162c-.104-.112-.2-.132-.26-.09zm1.36-2.594c-.004.121-.1.267-.286.433-.196.177-.371.256-.504.235 0 0 .203.035.322.145.1.092.239.34.283.616a.713.713 0 0 0-.64-.392.709.709 0 0 0-.687.51c.018.038.111.247.136.294 0 0-.008-.067-.008-.108 0-.3.25-.547.559-.547.308 0 .56.246.56.547 0 .158-.064.301-.172.394l-.02.016c-.105.078-.304.073-.35.073-.048 0-.1.015-.102.073-.001.056.093.066.093.066.095-.01.493-.01.493-.01a.364.364 0 0 1 .087-.192c.27-.265.43-.59.467-.807.065-.397-.12-.749-.188-.938a.892.892 0 0 1-.042-.408zm-1.445 2.475c-.147.007-.302 0-.46-.024a4.018 4.018 0 0 1-.755-.176l-.092.127c.28.104.56.157.823.196.16.024.316.033.467.028 0-.038.029-.072.029-.072-.012-.025-.016-.052-.012-.08zm.892-.067a1.428 1.428 0 0 0-.286-.009c-.07.011-.054.068-.018.107.037.04.268.16.308.175.04.015.112.042.144-.005.05-.077.084-.13.074-.18-.012-.053-.124-.072-.222-.088zm2.634-6.473c-.839.054-1.398.247-1.804.367.06.021.109.045.15.068.907-.252 1.553-.121 1.553-.121-.265.087-1.006.2-1.451.197a.634.634 0 0 1 .098.12c.38-.004.902.082 1.543-.055.642-.136 1.202-.522 1.202-.522-.229-.058-.674-.093-1.29-.053zm-6.67-3.119c-.026-.182-.094-.622-.166-.677-.038-.027-.087-.024-.142-.008-.056.018-.116.054-.118.102-.004.08.09.321.23.647a.626.626 0 0 1 .195-.064zm-5.937 4.438c.803-.057 1.29-.144 1.576-.226a.615.615 0 0 1 .158-.142.691.691 0 0 1-.244-.064c-.78.22-1.373.144-1.373.144.32-.16.943-.188 1.235-.213a.88.88 0 0 1-.114-.078c-.348.047-1.14.04-1.441.097a3.661 3.661 0 0 0-1.028.394s.429.144 1.231.088zm5.996-4.445c.035-.004.072-.005.109-.007a4.602 4.602 0 0 0-.12-.58c-.037-.115-.084-.198-.16-.218 0 0 .06.16.093.325.032.165.056.323.078.48zm-.13.387s-.159.161-.313.197c0 0 .063-.162.313-.197zm-.082.183a.558.558 0 0 0 .21-.257.753.753 0 0 0-.44.106.651.651 0 0 0-.226.254s.241.018.456-.103zm-1.222-.574h.107v-.168h.133v-.09h-.133V6.59h-.107v.144h-.134v.09h.134v.168zm1.955.39c.248.036.312.198.312.198-.155-.036-.312-.197-.312-.197zm-.13-.073c.021.062.11.197.21.257.215.121.456.103.456.103a.639.639 0 0 0-.224-.254.753.753 0 0 0-.441-.106zm1.173.22c.04-.007.032-.004.13-.012-.02-.087-.054-.312-.109-.362-.052-.048-.129-.052-.167-.05-.038.002-.08.041-.063.091.016.052.186.301.209.333zm-1.424-1.386h.109v-.17h.133v-.09h-.133v-.143h-.109v.143h-.132v.09h.132v.17zm.505.924c.14-.326.233-.566.23-.647-.002-.048-.062-.084-.117-.102-.056-.016-.106-.02-.143.008-.072.055-.14.495-.165.677a.61.61 0 0 1 .195.064zm-.255-.07c.021-.158.046-.316.079-.481.033-.165.093-.326.093-.326-.078.021-.124.104-.16.219a4.496 4.496 0 0 0-.12.58c.036.002.072.003.108.007zm-1.694.52c.098.008.09.006.13.012.023-.032.192-.28.21-.333.015-.05-.026-.089-.064-.09-.038-.003-.116.001-.167.05-.055.05-.09.275-.109.361zm-3.054 1.66.075.03c.082.034.162.07.233.105a1.56 1.56 0 0 1-.219-.286.87.87 0 0 1-.088-.214l-.023-.078c-.242-.158-.492-.417-.663-.57a2.141 2.141 0 0 1-.549-.845c.16.101.306.227.477.435.25.304.51.632.73.905l-.008-.1c-.001-.045 0-.088.001-.127V8.42a9.322 9.322 0 0 0-.719-1.176 6.612 6.612 0 0 0-.928-1.013c-.07.31-.182.888.086 1.386.268.498.928 1.214 1.595 1.56zm-.137.474a2.856 2.856 0 0 1-.117-.17c-.327-.156-.41-.205-.573-.292a4.7 4.7 0 0 1-.622-.412c-.189-.147-.424-.445-.424-.445.255.085.511.264.682.39.221.163.577.426.878.662l-.11-.31c-.35-.269-.855-.75-1.024-.914-.167-.165-.814-.71-1.112-.768 0 0-.086.617.22 1.031.307.414 1.3 1.082 2.202 1.229zm-.272 1.101a.631.631 0 0 1 .098-.12c-.446.003-1.186-.11-1.45-.196 0 0 .645-.131 1.553.121a.957.957 0 0 1 .15-.068c-.408-.12-.966-.313-1.806-.367-.616-.039-1.06-.004-1.29.054 0 0 .56.386 1.202.522.641.137 1.162.05 1.543.054zm1.466-1.006a1.188 1.188 0 0 1-.195-.418c-.039-.138-.127-.48-.18-.57-.052-.088-.242-.399-.612-.495 0 0-.099.405.088.724.16.277.49.567.9.759zm-3.252.072c.605.246 1.729.387 2.3.63a.546.546 0 0 1-.316-.358c-.32-.06-.491-.081-.886-.205a2.847 2.847 0 0 1-.641-.28c.172.016.375.03.65.106.35.095.528.156.912.3a.615.615 0 0 1 .31-.095c-.274-.12-1.06-.407-1.575-.561-.44-.133-1.013-.301-1.72-.283 0 0 .15.414.966.746zM10.22 7.53c.04-.007.032-.004.13-.012-.018-.087-.053-.312-.108-.362-.052-.048-.129-.052-.167-.05-.039.002-.079.041-.063.091.015.052.186.301.208.333zM8.67 9.805a.981.981 0 0 1 .245.267c-.41-.26-.67-.098-.67-.098.08.422.44.5.44.5-.39-.043-.548.148-.548.148.143.31.518.324.518.324-.33.254-.272.436-.272.436.366.085.568-.091.568-.091-.28.36-.065.626-.065.626.374-.049.498-.338.498-.338-.037.326.128.41.128.41.202-.065.303-.24.303-.24.108.225.36.268.36.268.109-.205.03-.395.03-.395.216.065.281-.064.281-.064-.138-.148-.216-.38-.216-.38-.375.148-.837.07-.967-.077-.128-.148.087-.528.203-.796.115-.268-.036-.458-.172-.55-.613-.408-.837-.711-.973-1.007-.073.55.136.922.31 1.057zm.667-2.928c.082-.02.19-.104.28-.173.087-.07.145-.064.145-.064a.231.231 0 0 0-.199-.05c-.165.033-.36.219-.36.219a.16.16 0 0 0-.005.08c.04.004.057.01.139-.012zm.237.209c-.038.072-.095.162-.07.291.03.145.27.2.27.2-.044-.043-.081-.097-.085-.148-.007-.104.056-.19.099-.255.042-.066.123-.237.124-.306.002-.066-.06-.142-.134-.214.01.033-.004.082-.03.142-.028.066-.138.222-.174.29zm-.573.575a.53.53 0 0 1 .006-.083c.01-.07.01-.13.003-.18-.096.036-.16.059-.292.266 0 0 .21-.126.283-.003zm.085-.073c-.02.13.009.27.099.401.015-.112.042-.222.081-.328a.642.642 0 0 0-.043-.47.642.642 0 0 1-.085-.358s-.124.041-.196.085c-.011.143.075.288.116.37a.54.54 0 0 1 .028.3zm.832.26c.039.098.196.214.196.214a.927.927 0 0 1-.087-.332c-.157-.047-.148.02-.109.118zm-.05 5.148a.964.964 0 0 1-.125-.21c.064.513.086.859.37 1.19 0 0 .17-.221.06-.761a.547.547 0 0 1-.152-.07s.065.22.024.44c0 0-.101-.072-.177-.59zm.782-4.236a.39.39 0 0 1 .135.247c.034.175.139.363.17.42l.013-.003c-.018-.12.058-.37.079-.406 0 0-.112-.068-.163-.138a.866.866 0 0 0-.287-.25 1.057 1.057 0 0 0-.157.033s.14.04.21.097zm1.992 6.156c.097.116.305.451.627.455 0 0-.048-.158-.19-.249-.144-.09-.326-.206-.408-.346a.53.53 0 0 0-.227-.23.828.828 0 0 1-.119.295s.186.834.854.899c0 0-.014-.173-.211-.305-.2-.131-.495-.336-.473-.646 0 0 .052.01.147.127zm-2.63-.214s.157-.104.329-.168c.111-.043.166-.157.285-.271-.134.047-.435.094-.56.13-.126.037-.217.1-.337.228 0 0 .185.051.284.08zm.982-5.835c.014-.178-.074-.282-.204-.372a1.463 1.463 0 0 0-.357-.15c.087.125.252.266.342.317a.831.831 0 0 1 .219.205zM12 7.427a.081.081 0 0 0 .075-.112.081.081 0 0 0-.075-.049.082.082 0 0 0-.084.08.082.082 0 0 0 .084.08zm1.208.468c.212.026.462.015.462.015-.014.077-.046.135-.102.171-.013-.167-.36-.17-.36-.17v-.016zm-.677.388c.224-.048.295-.17.334-.217 0 0-.03.117-.017.164 0 0 .099-.006.176-.1 0 0-.056.094-.068.174 0 0 .062.007.17-.058 0 0-.021.06-.025.127 0 0 .257-.081.383-.196 0 0 .002.079-.005.124 0 0 .4-.04.43-.61 0 0-.266.097-.533.084-.268-.013-.76-.018-.92-.095 0 0 .027.099.154.155 0 0-.066 0-.132.056 0 0 .038.081.151.124 0 0-.203.207-.42.192 0 0 .098.122.322.076zm1.044-.609c.15 0 .271-.02.271-.047 0-.028-.121-.048-.27-.048-.15 0-.272.02-.272.048 0 .026.122.047.271.047zm-.114 3.946-.007-.008-.013.017a.578.578 0 0 1-.164.11s-.12.221.025.487c.142.267.263.539.322.69 0 0 .076-.012.162-.428.058-.282.131-.353.207-.45-.084.04-.15.053-.156.054l-.057.01-.026-.05a.544.544 0 0 1-.062-.336.277.277 0 0 1-.23-.096zm.24-4.503c0-.062-.077-.08-.117-.08h-.021c-.04 0-.115.018-.115.08s.098.211.124.277h.003c.026-.066.125-.215.125-.277zm-2.374 1.662c-.104-.117-.236-.406-.236-.406-.043-.005-.092-.017-.133-.027.003.037.002.112.002.112a6.59 6.59 0 0 1-.178-.05c.158.108.207.147.283.224.135.137.21.308.21.308.058-.097.052-.161.052-.161zm-.236 5.488c-.15.043-.185.211-.185.211.066.03.095.11.23.11.144 0 .31-.143.423-.335.08-.138.117-.414.117-.463-.116.205-.4.423-.585.477zm.744-3.476c.063.094.11.114.165.14.054-.026.1-.046.164-.14.048-.073.095-.21.068-.306-.032-.12-.098-.168-.139-.243-.032.03-.052.053-.092.076h-.002c-.04-.023-.06-.046-.094-.076-.04.076-.106.123-.14.242-.025.098.02.234.07.307zm.163-.58h.003a.638.638 0 0 0 .163-.213c.02-.055.025-.136-.024-.198-.06-.074-.134-.157-.139-.225h-.003c-.006.068-.08.15-.14.225a.203.203 0 0 0-.022.198c.02.055.087.15.162.212zm-.967 5.224c-.198.132-.21.305-.21.305.667-.065.852-.9.852-.9a.86.86 0 0 1-.12-.293.544.544 0 0 0-.226.229c-.082.14-.264.256-.407.346a.499.499 0 0 0-.19.248c.323-.003.531-.338.626-.454.095-.116.148-.127.148-.127.021.31-.275.515-.473.646zm2.176-6.94c-.128.09-.216.194-.202.372 0 0 .104-.142.218-.205.092-.05.256-.192.342-.316a1.52 1.52 0 0 0-.358.15zm-.299-.122s-.133.289-.236.406c0 0-.006.064.051.161 0 0 .076-.17.21-.308.077-.077.125-.116.283-.224 0 0-.133.039-.177.05 0 0-.002-.076.002-.112-.04.01-.09.022-.133.027zm-.748-2.04a.159.159 0 0 0-.16-.158.16.16 0 0 0-.162.158c0 .11.141.363.159.481h.005c.018-.118.158-.37.158-.481zm1.242 2.297a.866.866 0 0 0-.287.25c-.05.07-.162.138-.162.138.02.036.098.287.078.406l.012.003c.032-.057.137-.245.17-.42a.39.39 0 0 1 .136-.247c.07-.057.21-.097.21-.097a1.036 1.036 0 0 0-.157-.033zm-.471.99a.651.651 0 0 0 0 .314c.022.087.076.2.18.264.09.055.3.067.382-.128 0 0-.387.029-.563-.45zm-2.043.578a.434.434 0 0 0 .18-.264.647.647 0 0 0 0-.314c-.175.479-.562.45-.562.45.08.195.292.183.382.128zm-1.65 1.665a.745.745 0 0 1-.342.132c-.436.395-.386.556-.386.556.22.033.418-.077.567-.192a.534.534 0 0 0 .188-.28c.021-.097-.008-.165-.027-.216zm-1.904-.386s.152.127.429.072c.235-.048.439-.145.556-.312.036-.052.061-.134.138-.217a1.365 1.365 0 0 0-.523.006c-.237.044-.478.098-.6.451zm.868-1.568c.006-.004.082-.05.213-.06-.11-.08-.373-.296-.558-.4-.204-.11-.54-.258-.712-.28 0 0 .161.412.347.58.196.171.331.236.664.188l.046-.028zm.44 6.633c-.033.048-.01.099.082.142.09.042.263.077.298.031.033-.047-.014-.125-.207-.175-.03-.007-.148-.035-.173.003zm-1.545-5.738s.233.19.5.197c.267.008.514-.068.621-.145a.598.598 0 0 1-.154-.202l-.019-.044c-.205-.082-.42-.124-.63-.048-.21.077-.265.165-.318.242zm.217-.727s.05.259.393.348c.323.082.442.061.573.018a.785.785 0 0 1 .12-.035.705.705 0 0 1-.223-.376c-.096.022-.32.022-.418-.014a.546.546 0 0 0-.445.059zm5.06 6.797c.054.083.163.244.272.404l.121-.167-.412-.609-.312.55.115.201c.092-.16.174-.305.215-.38zm3.532-.641a.486.486 0 0 0-.253-.154c-.242-.048-.327.109-.467.157-.139.049-.229-.048-.361-.361-.133-.314-.367-.735-.506-.892-.046-.052-.193-.052-.217-.052-.023 0-.045.008-.046.034-.002.025-.002.166-.002.166a.716.716 0 0 0-.21-.107c-.056-.008-.178.13-.121.141.608.116.899.77 1.017 1.017.062.126.097.263.128.394.176-.019.302-.046.425-.13a.952.952 0 0 1 .452-.129c.113 0 .14-.046.16-.084zm-4.327-9.08c0 .048.189.088.42.088.233 0 .421-.04.421-.088 0-.048-.188-.088-.42-.088-.232 0-.42.04-.42.088zm.824 8.761c-.111-.1-.363-.449-.403-.56h-.002c-.038.111-.291.46-.403.56-.11.1-.38.364-.524.495 0 0 .41-.1.64-.304 0 0 .165.093.285.093h.006c.12 0 .284-.093.284-.093.231.204.642.304.642.304-.144-.131-.414-.395-.525-.495zm-.401.366h-.005a.575.575 0 0 1-.225-.056c.048.1.139.256.226.32H12c.087-.064.178-.22.227-.32a.583.583 0 0 1-.225.056zm-2.743-.1c.118-.245.41-.9 1.017-1.016.057-.01-.066-.149-.12-.14a.7.7 0 0 0-.21.106s0-.14-.002-.166c-.002-.026-.025-.034-.048-.034-.024 0-.17 0-.217.052-.138.157-.372.578-.504.892-.133.313-.223.41-.363.362-.14-.05-.223-.206-.466-.158a.48.48 0 0 0-.252.154c.02.038.047.085.161.085.113 0 .33.046.451.13.122.082.25.11.424.128.032-.131.068-.268.129-.394zm1.165-8.506c.15 0 .27-.021.27-.047 0-.028-.12-.048-.27-.048-.15 0-.27.02-.27.048 0 .026.12.047.27.047zm.366.22v.017s-.345.002-.359.17c-.056-.036-.088-.094-.101-.171 0 0 .25.01.46-.016zm-.27.407c-.006-.045-.005-.124-.005-.124.126.114.384.195.384.195a.47.47 0 0 0-.028-.126c.11.064.172.057.172.057-.011-.08-.067-.173-.067-.173.076.094.174.1.174.1.014-.047-.015-.165-.015-.165.038.048.11.17.333.217.223.047.324-.075.324-.075-.219.014-.423-.192-.423-.192a.277.277 0 0 0 .152-.124c-.065-.056-.132-.056-.132-.056.127-.056.153-.155.153-.155-.158.076-.652.081-.918.095-.268.012-.535-.085-.535-.085.03.571.431.61.431.61zm-2.373 3.58a.866.866 0 0 0 .588-.316.98.98 0 0 1 .029-.106.84.84 0 0 1-.4-.002l-.045-.01-.013-.042c-.199.158-.434.184-.515.328 0 0 .099.177.356.149zm2.404-4.765c0-.06-.076-.08-.115-.08h-.022c-.038 0-.115.019-.115.08 0 .062.099.212.125.278h.002c.027-.066.125-.216.125-.278zm-.332 4.985-.057-.01c-.006-.001-.073-.013-.156-.054.076.097.15.168.207.45.086.417.162.428.162.428.058-.15.178-.423.322-.69.143-.265.025-.486.025-.486a.526.526 0 0 1-.163-.11l-.015-.018c-.001.004-.004.006-.005.009a.282.282 0 0 1-.232.096.554.554 0 0 1-.062.335l-.026.05zm-1.995 1.241c.222-.385.359-.628.451-.713a.64.64 0 0 1-.177-.003l-.048-.007c-.137.243-.408.64-.651.78 0 0-.063-.323.654-.976a.524.524 0 0 1 .044-.091.625.625 0 0 1-.224.035h-.01c-.274.269-.853.872-.799 1.525 0 0 .54-.164.76-.55zm.599-1.376c-.005-.007-.074-.098-.093-.24-.119.041-.202.064-.376.178-.257.168-.152.38-.152.38.385.05.57-.259.62-.318zm2.963.369c.03-.09.153-.258.156-.532 0-.104-.188-.272-.241-.405-.176.153-.2.46-.18.564.04.2.265.373.265.373zm-3.782 2.23c.206.184.417.285.529.166.118-.127-.01-.316-.216-.5-.205-.184-.407-.295-.527-.167-.12.127.009.316.214.5zm.94-.878c.152-.245.19-.735.223-1.211a.93.93 0 0 1-.005-.089c-.011.012-.025.022-.036.032-.03.023-.062.046-.095.067 0 0-.068.791-.293 1.055-.071-.294.103-.675.194-.996-.032.015-.065.03-.098.043-.26.417-.57 1.015-.314 1.462 0 0 .275-.124.423-.364zm1.596.78s.177.045.289-.005c0 0 .04-.165.166-.239.028-.015.116-.041.197-.081-.03-.024-.058-.04-.095-.082 0 0-.143.051-.26.129-.119.077-.234.21-.297.278zm.884-5.038c.051-.17-.058-.332-.098-.424-.092.072-.167.15-.18.35-.01.2.044.462.044.462.07-.145.184-.218.234-.388zm.577-.658h-.003c-.043.019-.219.11-.232.24-.012.13.224.37.23.47h.006c.007-.1.243-.34.23-.47-.011-.13-.188-.221-.231-.24zm-.823-.487c.048.166.13.322.21.444a.765.765 0 0 1 .111.355s.108-.234.054-.399a.661.661 0 0 0-.375-.4zm1.902 3.806c-.049.106-.167.21-.194.303a.38.38 0 0 0 .012.304c.049.11.105.176.125.244 0 0 .154-.197.18-.278a.528.528 0 0 0 .003-.3c-.032-.085-.089-.195-.126-.273zm-.915-2.647c-.029.12-.002.2.053.274.056.072.15.151.238.304 0 0 .1-.13.112-.198a.882.882 0 0 0-.03-.299c-.02-.07-.108-.289-.18-.513 0 0-.164.31-.193.432zm1.286 2.07a1.507 1.507 0 0 1-.14-.134s-.13.23-.15.297c0 0 .063.017.134-.034.07-.05.085-.064.155-.13zm-.408-.81c-.054.104-.15.256-.15.256.008.062.003.168.023.297.02.13.194.35.194.35.042-.117.144-.275.165-.43.012-.105-.011-.262-.011-.262-.07-.032-.158-.134-.221-.21zm-.395-.826a.514.514 0 0 0-.088.23.655.655 0 0 0 .061.303c.066.172.167.363.213.45 0 0 .09-.126.14-.239 0 0-.14-.188-.2-.32-.07-.157-.098-.3-.126-.424zm-.2-1.193c-.056.165.054.399.054.399a.732.732 0 0 1 .11-.355c.08-.122.16-.278.21-.444a.653.653 0 0 0-.374.4zm.405.671c-.013-.2-.087-.278-.18-.35-.04.092-.149.255-.098.424.051.17.165.243.234.388 0 0 .056-.261.044-.462zm-1.392.17a.897.897 0 0 0-.03.298c.012.068.113.198.113.198.087-.153.182-.232.236-.304a.297.297 0 0 0 .054-.274c-.03-.122-.193-.432-.193-.432-.073.224-.16.444-.18.513zM12 15.182a.348.348 0 0 0 .073.093c.17.16.279.145.374.111 0 0-.282-.092-.266-.337.016-.243.158-.39.182-.516a.52.52 0 0 0-.092-.434c-.09.3-.188.52-.266.67l-.005.013-.007-.014a3.866 3.866 0 0 1-.264-.669.524.524 0 0 0-.093.434c.025.126.166.273.182.516.016.245-.265.337-.265.337.094.034.202.049.374-.11a.35.35 0 0 0 .073-.094zm-.286.352.054-.088c-.082.036-.186.011-.186.011a2.518 2.518 0 0 1-.928.861l.089.125c.34-.18.672-.462.971-.91zm1.744-1.068c-.063-.068-.178-.2-.295-.278-.118-.078-.261-.129-.261-.129-.037.042-.064.058-.095.081.082.04.17.067.196.083.126.073.167.238.167.238.112.05.288.005.288.005zm-.551-.2a1.215 1.215 0 0 1-.585-.477c0 .049.037.325.118.462.113.193.278.335.423.335.135 0 .164-.079.23-.11 0 0-.035-.167-.186-.21zm-2.373.894c.04.02.223.093.343-.147 0 0-.204.065-.26-.03-.054-.097.036-.236.091-.276a.444.444 0 0 1 .281-.075s-.063-.059-.138-.097a.255.255 0 0 1-.119.026s-.262.178-.293.356c-.026.152.056.224.095.243zm.491-4.54c.05.113.14.238.14.238.046-.086.148-.277.213-.449a.64.64 0 0 0 .06-.303.51.51 0 0 0-.087-.23c-.028.123-.056.267-.125.423-.06.133-.2.321-.2.321zm-.476.891c.07.066.086.08.156.13.07.051.135.034.135.034a3.43 3.43 0 0 0-.15-.297c-.032.036-.11.106-.141.133zm.187-.598s-.024.157-.011.262c.02.155.122.313.166.429 0 0 .172-.22.192-.349.019-.129.017-.235.023-.297 0 0-.096-.152-.149-.255-.063.076-.152.178-.221.21zm-.348 3.327s.188-.04.332-.087c.158-.052.267-.12.326-.153-.028-.042-.084-.119-.072-.239 0 0-.248.154-.32.212a2.07 2.07 0 0 0-.266.267zm.588-1.3c.02-.068.077-.133.125-.244a.383.383 0 0 0 .012-.304c-.027-.093-.145-.197-.193-.303-.039.078-.095.188-.126.274a.527.527 0 0 0 .002.299c.026.082.18.277.18.277zm-.57 1.83c.025-.044.127-.192.221-.212 0 0-.08-.007-.126-.021 0 0-.097.024-.165.051-.07.028-.155.07-.256.134.021.007.138.041.252.111 0 0 .05-.018.075-.064zM12.276 10a.447.447 0 0 0-.042.268c.015.062.098.154.106.257.013.162-.116.359-.116.359a.986.986 0 0 0 .315-.281c.059-.086.015-.211-.011-.276-.025-.065-.216-.29-.252-.328zm-1.097 1.097c-.043.199.171.317.271.495.026-.072.11-.266.205-.333 0 0 .122-.352-.271-.569 0 0-.162.21-.205.407zm.295-.77c-.026.065-.07.19-.011.276.06.086.196.223.314.28 0 0-.13-.196-.115-.358.007-.103.09-.195.105-.258a.438.438 0 0 0-.041-.268c-.036.039-.227.263-.252.328zm-.588 1.424s.015.102.093.25c.077.147.184.25.242.302 0 0 .128-.219.166-.315a.403.403 0 0 0 .02-.26c-.044-.095-.194-.233-.262-.353-.015.059-.223.341-.259.376zm1.592.21c.021-.103-.003-.41-.178-.564-.053.133-.242.301-.241.405.004.274.125.441.155.532 0 0 .225-.174.264-.373zm.14-1.27c-.394.216-.272.568-.272.568.096.067.179.261.204.332.1-.177.316-.295.273-.494-.044-.197-.206-.407-.206-.407zm.403 1.31a.925.925 0 0 0 .094-.25c-.036-.035-.244-.317-.26-.376-.066.12-.218.258-.26.354-.02.04-.025.149.019.259.038.096.166.315.166.315.058-.053.165-.155.241-.302zm-2.04 1.249c.024.096.128.307.128.307.045-.074.176-.245.209-.368.033-.121-.085-.326-.127-.387-.212.194-.233.352-.21.448zm2.631.99a2.097 2.097 0 0 0-.265-.267c-.074-.058-.322-.212-.322-.212.013.12-.043.197-.071.239.06.033.168.101.326.153.144.047.332.087.332.087zm-2.342-1.864a.43.43 0 0 0-.026.311c.042.126.232.3.232.3.055-.094.138-.219.164-.281a.404.404 0 0 0 .024-.233c-.021-.118-.16-.267-.206-.358-.043.087-.143.177-.188.261zm1.31.937c.007-.166-.258-.48-.258-.48-.14.133-.175.216-.19.349-.017.131.029.23.088.346.053.104.193.257.193.257.018-.127.16-.265.168-.472zm-.055-.325s.19-.175.232-.301a.426.426 0 0 0-.027-.31c-.045-.084-.143-.175-.187-.262-.045.09-.184.24-.206.358a.415.415 0 0 0 .023.233c.026.062.11.187.165.282zm.237 1.089s.117-.08.163-.184c.044-.099.019-.17-.026-.219-.045-.051-.15-.17-.196-.246-.03.091-.117.26-.129.311-.02.097.008.214.188.338zm-.54-.236c.005-.157-.138-.402-.22-.495h-.004c-.08.094-.224.338-.219.495.01.314.212.61.222.705.01-.095.211-.391.22-.705zm-.984.236c.18-.124.21-.241.188-.338-.011-.051-.099-.22-.128-.311-.045.077-.15.195-.196.246-.045.05-.07.12-.027.218a.534.534 0 0 0 .163.185zm1.572-1.274c-.043.06-.16.265-.127.386.035.123.165.294.209.368 0 0 .104-.211.128-.307.024-.096.002-.255-.21-.447zm.849 1.73c.172.063.33.168.33.168.097-.03.282-.081.282-.081-.12-.129-.212-.191-.337-.228-.127-.036-.426-.083-.56-.13.118.114.174.228.285.27zm-1.788-1.351c-.016-.133-.052-.216-.19-.349 0 0-.266.314-.26.48.008.207.148.345.168.472 0 0 .139-.153.192-.257.06-.115.105-.215.09-.346zm.13-1.509c.026-.117.277-.343.253-.466-.035-.184-.156-.145-.252-.223H12c-.097.078-.22.039-.255.223-.022.123.227.349.253.466H12zm-.002 1.375H12c.02-.077.14-.17.19-.304a.308.308 0 0 0-.004-.236c-.037-.074-.172-.256-.187-.308-.017.052-.15.234-.19.308a.31.31 0 0 0-.003.236c.05.134.17.227.19.304z" fill="#fff"/><path d="M24 2h20v20H24V2z" fill="#CC003D"/><path d="M38.5 13.804c.058-.245.135-.964.135-.964h-.69c-.004.074-.019.319-.04.57-.033.37-.14.711-.513.711h-.287v-1.28h-.702v3.876h.702v-1.969h.423l.69 1.967h.752l-.843-2.271c.175-.133.311-.387.372-.64zm-7.954-4.343c.005-1.049.26-1.393.53-1.4.268.007.523.351.529 1.4-.006 1.024-.261 1.375-.53 1.38-.268-.005-.523-.356-.53-1.38zm.514 2.016h.031c.464-.01.909-.29 1.102-1.084.074-.27.111-.604.112-.95l-.002-.125c-.012-.554-.105-.951-.25-1.234-.23-.482-.593-.662-.97-.667h-.016c-.376.005-.74.185-.969.667-.145.283-.238.68-.25 1.234l-.002.125c0 .346.038.68.112.95.193.794.638 1.075 1.102 1.084zm-3.203 4.64c-.069 0-.24-.016-.24-.016v-1.365s.055-.013.115-.013c.356 0 .776-.021.776.697 0 .657-.462.697-.651.697zm.084-2.009c-.12 0-.228.003-.324.008v-.631h1.258v-.645h-1.959v3.875h1.064c1.06 0 1.225-.959 1.225-1.314 0-.42-.163-1.293-1.264-1.293zm6.838-.03h-.962V12.84h-.7v3.877h.7v-1.994h.962v1.993h.7V12.84h-.7v1.239zm2.321-2.686v-3.23h.582v-.645h-1.874v.645h.583v3.23h.71zm-2.77-1.871v1.871h.702V7.517h-.702v1.35h-.381c-.158 0-.275-.036-.35-.109a.27.27 0 0 1-.078-.207V7.517h-.702v1.107c0 .254.098.47.294.642.194.17.43.255.705.255h.512zm-6.713-1.36h.868v3.231h.703V7.517h-2.272v3.875h.7v-3.23zm3.05 6.029.017-.705.124-.008c.511 0 .604.1.652.712h-.793zm.307-1.35h-.951l-.13 3.876h.694l.068-1.883.876.001c.008.078.139 1.882.139 1.882h.716s-.247-2.662-.267-2.833c-.08-.685-.396-1.043-1.145-1.043zm8.107-3.973.017-.705h.132c.51 0 .596.091.644.705h-.793zm1.452-.307c-.08-.686-.396-1.043-1.145-1.043h-.951l-.13 3.876h.694l.068-1.882h.876c.008.078.139 1.882.139 1.882h.716s-.247-2.662-.267-2.833z" fill="#fff"/></svg>