<svg xmlns="http://www.w3.org/2000/svg" width="24" height="24" viewBox="0 0 24 24" fill="none"><rect width="24" height="24" fill="none"/>
<path d="M5.31579 2.01285C5.49665 2.0122 5.49665 2.0122 5.68117 2.01153C5.81465 2.01158 5.94813 2.01162 6.08566 2.01167C6.22671 2.01137 6.36775 2.01102 6.5088 2.01064C6.89292 2.00973 7.27704 2.0095 7.66117 2.00943C7.98134 2.00934 8.30151 2.00896 8.62169 2.0086C9.37679 2.00777 10.1319 2.00752 10.887 2.0076C11.6671 2.00766 12.4471 2.00658 13.2272 2.00498C13.8959 2.00365 14.5647 2.0031 15.2334 2.00317C15.6332 2.00319 16.0331 2.0029 16.4329 2.00182C16.8089 2.00084 17.1848 2.00083 17.5608 2.00157C17.7651 2.00173 17.9695 2.00088 18.1738 2C18.2947 2.00043 18.4156 2.00085 18.5401 2.00129C18.6456 2.00124 18.7511 2.00118 18.8598 2.00113C19.1088 2.02646 19.1088 2.02646 19.3138 2.23C19.363 2.57121 19.3517 2.91612 19.3522 3.26043C19.3547 3.35462 19.3572 3.44881 19.3598 3.54586C19.3628 4.24183 19.2475 4.81321 18.7591 5.33639C18.1758 5.84964 17.6479 5.92403 16.8919 5.92458C16.8041 5.92544 16.7162 5.9263 16.6256 5.92719C16.3361 5.9298 16.0466 5.93104 15.757 5.93231C15.5558 5.93396 15.3546 5.9357 15.1533 5.93755C14.6243 5.9422 14.0953 5.94574 13.5663 5.94897C12.718 5.95425 11.8697 5.96086 11.0215 5.96812C10.7246 5.97045 10.4277 5.97211 10.1308 5.97369C9.95011 5.97506 9.76939 5.97644 9.58868 5.97785C9.46393 5.97825 9.46393 5.97825 9.33667 5.97866C8.96506 5.94756 8.96506 5.94756 8.65475 6.09729C8.64442 6.33787 8.64043 6.57542 8.64114 6.81605C8.64104 6.88795 8.64094 6.95985 8.64084 7.03393C8.64077 7.18621 8.64096 7.33849 8.64139 7.49078C8.64194 7.72464 8.6414 7.95848 8.64074 8.19234C8.64081 8.33996 8.64094 8.48758 8.64114 8.6352C8.64093 8.70559 8.64073 8.77598 8.64051 8.84851C8.61352 9.18068 8.61352 9.18068 8.75724 9.45573C9.02732 9.46684 9.29481 9.47142 9.56498 9.47178C9.64965 9.4723 9.73432 9.47281 9.82155 9.47335C10.0062 9.47444 10.1908 9.47531 10.3754 9.476C10.6679 9.4772 10.9605 9.47918 11.253 9.48141C12.0852 9.48769 12.9173 9.49317 13.7494 9.49658C14.2579 9.49871 14.7664 9.50231 15.2748 9.50683C15.4684 9.50827 15.662 9.50916 15.8555 9.50948C16.1273 9.50998 16.3991 9.51235 16.6709 9.51511C16.7898 9.51465 16.7898 9.51465 16.9112 9.51418C17.7421 9.52667 18.4202 9.77614 19.0063 10.3717C19.4043 10.8511 19.3586 11.3835 19.3552 12.0115C19.3559 12.1016 19.3566 12.1917 19.3573 12.2846C19.3592 12.5808 19.3588 12.8769 19.3582 13.1731C19.3587 13.3801 19.3592 13.587 19.3598 13.794C19.3608 14.2271 19.3605 14.6602 19.3595 15.0934C19.3583 15.6472 19.3604 16.2009 19.3634 16.7547C19.3653 17.1819 19.3652 17.6091 19.3646 18.0363C19.3646 18.2404 19.3652 18.4446 19.3665 18.6487C19.368 18.9346 19.3669 19.2204 19.3652 19.5064C19.3667 19.6316 19.3667 19.6316 19.3682 19.7594C19.3596 20.4306 19.1683 20.9635 18.7176 21.4707C18.6586 21.517 18.5995 21.5633 18.5387 21.611C18.4794 21.6591 18.42 21.7073 18.3589 21.7569C18.0275 21.9775 17.7357 21.9865 17.3492 21.9872C17.2395 21.9876 17.1299 21.988 17.0169 21.9885C16.8966 21.9884 16.7763 21.9884 16.6524 21.9883C16.5257 21.9887 16.3991 21.989 16.2685 21.9894C15.9211 21.9902 15.5736 21.9905 15.2261 21.9906C14.9362 21.9907 14.6464 21.991 14.3565 21.9914C13.6729 21.9922 12.9894 21.9925 12.3058 21.9924C11.5999 21.9923 10.894 21.9934 10.1881 21.995C9.58247 21.9964 8.97683 21.9969 8.3712 21.9968C8.00928 21.9968 7.64736 21.9971 7.28544 21.9982C6.88224 21.9993 6.47905 21.9989 6.07585 21.9983C5.95536 21.9988 5.83487 21.9994 5.71072 22C5.60136 21.9996 5.49201 21.9991 5.37933 21.9987C5.23624 21.9988 5.23624 21.9988 5.09025 21.9989C4.8626 21.9735 4.8626 21.9735 4.65762 21.77C4.63761 21.5099 4.63047 21.2608 4.63228 21.0005C4.63204 20.9202 4.63179 20.8399 4.63153 20.7572C4.63095 20.4866 4.63184 20.216 4.63273 19.9455C4.63262 19.7521 4.63242 19.5587 4.63214 19.3653C4.63164 18.839 4.63242 18.3128 4.63346 17.7865C4.63436 17.2368 4.63418 16.6872 4.63414 16.1375C4.63424 15.2145 4.63513 14.2914 4.63653 13.3684C4.63814 12.2996 4.63868 11.2308 4.63861 10.162C4.63854 9.13576 4.63907 8.10951 4.63992 7.08326C4.64028 6.64562 4.64047 6.20798 4.64052 5.77034C4.64062 5.25554 4.64125 4.74073 4.64228 4.22593C4.64258 4.03642 4.6427 3.84692 4.64265 3.65741C4.6426 3.39986 4.64317 3.14232 4.64392 2.88477C4.64376 2.80878 4.6436 2.73279 4.64344 2.6545C4.64648 2.02461 4.69347 2.01385 5.31579 2.01285ZM8.55226 13.7301C8.52924 14.0332 8.51863 14.3264 8.51783 14.6297C8.51715 14.7191 8.51647 14.8084 8.51576 14.9005C8.51473 15.0896 8.51425 15.2788 8.51428 15.4679C8.51383 15.7577 8.51011 16.0473 8.50622 16.337C8.50562 16.5206 8.50521 16.7042 8.50502 16.8878C8.50355 16.9746 8.50207 17.0614 8.50056 17.1509C8.50119 17.2317 8.50182 17.3125 8.50247 17.3958C8.50218 17.4668 8.50188 17.5379 8.50158 17.611C8.53985 17.8167 8.53985 17.8167 8.72306 17.9765C9.02122 18.1382 9.21985 18.1443 9.55898 18.1441C9.73904 18.1451 9.73904 18.1451 9.92274 18.1461C10.1165 18.1447 10.1165 18.1447 10.3142 18.1432C10.5136 18.1433 10.5136 18.1433 10.717 18.1434C10.9979 18.1434 11.2788 18.1423 11.5598 18.1405C11.9198 18.1382 12.2798 18.1381 12.6399 18.1388C12.9835 18.1392 13.3271 18.138 13.6708 18.1369C13.8649 18.137 13.8649 18.137 14.0629 18.1371C14.1826 18.1362 14.3023 18.1352 14.4257 18.1342C14.5312 18.1337 14.6367 18.1333 14.7454 18.1328C15.0337 18.1244 15.0337 18.1244 15.3166 17.9027C15.3465 17.5874 15.3572 17.2927 15.3539 16.9772C15.3539 16.8854 15.354 16.7935 15.354 16.6989C15.3538 16.5045 15.3528 16.3102 15.3511 16.1158C15.3487 15.8176 15.349 15.5195 15.3497 15.2213C15.3491 15.0327 15.3484 14.8442 15.3475 14.6556C15.3476 14.566 15.3477 14.4764 15.3477 14.3841C15.3652 13.9062 15.3652 13.9062 15.1117 13.5266C14.8352 13.4953 14.8352 13.4953 14.5083 13.5002C14.3818 13.4996 14.2552 13.4989 14.1249 13.4983C13.9862 13.4986 13.8475 13.4991 13.7088 13.4995C13.5671 13.4994 13.4255 13.4992 13.2838 13.4989C12.9867 13.4986 12.6896 13.4991 12.3926 13.5C12.0114 13.5012 11.6302 13.5005 11.249 13.4993C10.9564 13.4986 10.6638 13.4988 10.3712 13.4993C10.2306 13.4995 10.09 13.4993 9.94946 13.4988C9.75317 13.4983 9.55687 13.4992 9.36058 13.5002C9.24876 13.5004 9.13695 13.5005 9.02175 13.5007C8.74048 13.5002 8.74048 13.5002 8.55226 13.7301Z" fill="#009E8A"/>
</svg>
