<svg xmlns="http://www.w3.org/2000/svg" width="24" height="24" viewBox="0 0 24 24" fill="none"><rect width="24" height="24" fill="none"/>
<path fill-rule="evenodd" clip-rule="evenodd" d="M16.2662 10.955C17.2427 10.955 17.7343 11.6913 17.7343 13.3685C17.7343 15.0581 17.2434 15.801 16.2662 15.801C15.2892 15.801 14.7976 15.064 14.7976 13.3868C14.7976 11.6913 15.2898 10.955 16.2662 10.955Z" fill="white"/>
<path fill-rule="evenodd" clip-rule="evenodd" d="M8.3792 3H15.5468C17.2583 3.00017 18.8996 3.6629 20.1097 4.84243C21.3199 6.02195 21.9999 7.62169 22 9.2898V14.7108C22 15.5368 21.8331 16.3547 21.5088 17.1178C21.1845 17.8809 20.7091 18.5741 20.1098 19.1582C19.5106 19.7422 18.7993 20.2054 18.0163 20.5214C17.2333 20.8374 16.3943 21.0001 15.5468 21H8.45317C7.60573 21.0001 6.76659 20.8374 5.98372 20.5214C5.20073 20.2054 4.48937 19.7422 3.89006 19.1582C3.29088 18.5741 2.81552 17.8809 2.4912 17.1178C2.16687 16.3547 2 15.5368 2 14.7108V9.2898C2 5.81543 4.81456 3 8.3792 3ZM10.134 12.8714V13.1769C10.134 14.782 9.70352 15.8002 8.35389 15.7937C6.94104 15.7937 6.28941 14.5066 6.28941 11.9908C6.28941 9.39703 7.07624 8.16896 8.93154 8.16896C9.78281 8.17481 10.616 8.40915 11.3398 8.84626V7.44641C10.8361 7.08712 9.91405 6.81108 8.84545 6.81108C6.01642 6.81108 4.47432 8.77807 4.47432 11.9908C4.47432 15.2855 5.88728 17.1542 8.32024 17.1542C10.6794 17.1542 11.9268 15.675 11.9268 13.1291V11.5115H8.24627V12.8714H10.134ZM16.2643 17.1601C18.2078 17.1601 19.5594 15.8128 19.5594 13.3685C19.5594 10.9366 18.2078 9.5951 16.2643 9.5951C14.3208 9.5951 12.9692 10.9425 12.9692 13.3868C12.9692 15.8128 14.3208 17.1601 16.2643 17.1601Z" fill="white"/>
</svg>
