<svg xmlns="http://www.w3.org/2000/svg" width="140" height="24" viewBox="0 0 140 24" fill="none"><rect width="140" height="24" fill="none"/>
<path d="M55.1972 5H62.2451V6.27209H56.5423V9.77447H59.5401C60.2224 9.77447 60.8119 9.91214 61.309 10.1875C61.8261 10.4738 62.2208 10.8814 62.4936 11.41C62.7765 11.9276 62.9179 12.5444 62.9179 13.2603C62.9179 13.9762 62.7812 14.5875 62.5084 15.0941C62.2351 15.6118 61.8356 16.0137 61.309 16.3001C60.7828 16.5865 60.1929 16.7297 59.5401 16.7297H55.1972V5ZM59.3354 15.4576C60.0372 15.4576 60.5876 15.2648 60.9876 14.8794C61.3871 14.4939 61.587 13.9542 61.587 13.2603C61.587 12.5665 61.3871 12.0268 60.9876 11.6413C60.5876 11.2448 60.0372 11.0466 59.3354 11.0466H56.5423V15.4576H59.3354ZM70.2412 8.38676L67.551 16.9114C67.3268 17.6273 67.112 18.1779 66.9073 18.5634C66.703 18.971 66.4592 19.2628 66.1764 19.439C65.8936 19.6153 65.5284 19.7034 65.0798 19.7034H64.5242L64.1437 18.5304H64.9041C65.1479 18.5304 65.3574 18.4864 65.5331 18.3982C65.835 18.2441 66.0835 17.8641 66.2788 17.2583L63.4714 8.38676H64.8018L65.6941 11.3109C66.0255 12.3682 66.2397 13.0731 66.3373 13.4255L66.8782 15.375C67.0634 14.7142 67.2196 14.18 67.3463 13.7725L67.4777 13.3595L68.0771 11.3109L68.9695 8.38676H70.2412ZM75.7778 16.7297L73.7456 13.3595L71.6982 16.7297H70.3383L73.029 12.3847L70.5431 8.38676H71.9325L73.7599 11.3935L75.573 8.38676H76.9329L74.4913 12.3186L77.1672 16.7297H75.7778ZM79.4542 9.55972V16.7297H78.1967V8.38676H83.3729V9.55972H79.4542ZM89.1194 16.7297V15.6062C88.8561 16.0468 88.5052 16.3882 88.0667 16.6305C87.6282 16.8618 87.1211 16.9775 86.5459 16.9775C85.7274 16.9775 85.0836 16.7682 84.6161 16.3497C84.1575 15.9312 83.9285 15.342 83.9285 14.582V14.4993C83.9285 13.6623 84.1871 13.0291 84.7037 12.5995C85.2298 12.159 86.0393 11.9056 87.1311 11.8395L89.0609 11.6909V11.1292C89.0609 10.5344 88.91 10.0884 88.6076 9.79099C88.3057 9.48258 87.8667 9.3284 87.292 9.3284C86.8139 9.3284 86.3802 9.43858 85.9902 9.65881C85.6103 9.86808 85.2203 10.2205 84.8209 10.7162L84.0161 9.89014C84.8646 8.73369 85.9464 8.15544 87.2625 8.15544C88.2081 8.15544 88.9442 8.40876 89.4704 8.91541C89.997 9.422 90.2603 10.1269 90.2603 11.03V16.7297H89.1194ZM87.2187 12.8473C86.4583 12.8913 85.9221 13.0345 85.6103 13.2768C85.2984 13.5191 85.1422 13.9046 85.1422 14.4333V14.5159C85.1422 14.9454 85.2836 15.2758 85.5665 15.5072C85.8588 15.7384 86.2683 15.8541 86.7944 15.8541C87.2139 15.8541 87.5986 15.7604 87.9495 15.5732C88.301 15.386 88.5738 15.1271 88.7685 14.7967C88.9638 14.4553 89.0609 14.0698 89.0609 13.6403V12.7482L87.2187 12.8473ZM91.246 15.5072C91.3922 15.5512 91.5484 15.5732 91.7141 15.5732C91.9869 15.5732 92.1917 15.4906 92.3283 15.3254C92.465 15.1492 92.5574 14.8518 92.6059 14.4333C92.655 13.9597 92.6888 13.3484 92.7083 12.5995L92.7964 8.38676H98.2649V16.7297H97.0074V9.54315H93.922L93.8492 12.6986C93.8196 13.833 93.7563 14.6646 93.6587 15.1933C93.5515 15.766 93.3568 16.179 93.074 16.4323C92.8012 16.6856 92.3869 16.8123 91.8313 16.8123L91.5389 16.7792L91.246 16.7131V15.5072ZM103.16 9.54315V16.7297H101.902V9.54315H99.3145V8.38676H105.748V9.54315H103.16ZM113.355 15.2758C112.839 15.8816 112.322 16.3167 111.805 16.581C111.289 16.8343 110.684 16.9609 109.992 16.9609C109.212 16.9609 108.535 16.7792 107.96 16.4158C107.374 16.0523 106.921 15.5402 106.6 14.8794C106.278 14.2185 106.117 13.4475 106.117 12.5665C106.117 11.7294 106.273 10.9694 106.585 10.2866C106.907 9.61475 107.35 9.09159 107.916 8.71718C108.491 8.3427 109.159 8.15544 109.919 8.15544C110.991 8.15544 111.825 8.5134 112.419 9.22931C113.024 9.94517 113.326 10.9309 113.326 12.1865C113.326 12.2636 113.316 12.4673 113.297 12.7977H107.419C107.467 13.3925 107.589 13.9046 107.784 14.3341C107.999 14.7858 108.296 15.1382 108.676 15.3915C109.056 15.6448 109.514 15.7715 110.05 15.7715C110.558 15.7715 111.006 15.6668 111.396 15.4576C111.795 15.2483 112.2 14.8959 112.61 14.4003L113.355 15.2758ZM112.127 11.757C112.098 10.997 111.883 10.3967 111.484 9.95619C111.094 9.50463 110.567 9.27885 109.904 9.27885C109.251 9.27885 108.705 9.50463 108.267 9.95619C107.828 10.3967 107.56 10.997 107.463 11.757H112.127ZM122.214 12.5665C122.214 13.4255 122.068 14.1855 121.775 14.8463C121.473 15.5072 121.049 16.0193 120.503 16.3827C119.957 16.7462 119.333 16.9279 118.631 16.9279C117.315 16.9279 116.389 16.4598 115.853 15.5237V19.7034H114.595V8.38676H115.765V9.85705C116.34 8.73369 117.3 8.17195 118.645 8.17195C119.328 8.17195 119.942 8.34819 120.488 8.7006C121.034 9.07507 121.458 9.58721 121.76 10.2371C122.062 10.8869 122.214 11.6358 122.214 12.4838V12.5665ZM120.941 12.4838C120.941 11.8671 120.839 11.3219 120.634 10.8483C120.42 10.3858 120.118 10.0223 119.728 9.75796C119.348 9.49361 118.914 9.36143 118.426 9.36143C117.929 9.36143 117.481 9.48812 117.081 9.74144C116.672 10.0057 116.355 10.3692 116.13 10.8318C115.906 11.2944 115.794 11.8451 115.794 12.4838V12.5665C115.794 13.5247 116.033 14.2956 116.511 14.8794C116.989 15.4521 117.622 15.7384 118.412 15.7384C118.899 15.7384 119.338 15.6008 119.728 15.3254C120.108 15.0611 120.405 14.6921 120.62 14.2185C120.834 13.7339 120.941 13.1832 120.941 12.5665V12.4838ZM130.084 8.38676V16.7297H128.884V13.409C128.884 11.834 128.904 10.6556 128.943 9.87356C128.758 10.2591 128.417 10.8648 127.919 11.6909L127.115 13.0291L124.966 16.7297H123.621V8.38676H124.805V12.203C124.805 12.8969 124.8 13.3484 124.79 13.5577L124.761 15.2098C125.151 14.4498 125.702 13.4696 126.413 12.2691L128.723 8.38676H130.084ZM137.561 16.7297H136.347V13.8055H134.709L132.692 16.7297H131.273L133.452 13.6403C132.847 13.442 132.389 13.1281 132.077 12.6986C131.775 12.2581 131.624 11.7184 131.624 11.0796C131.624 10.2646 131.863 9.61475 132.341 9.13016C132.828 8.63454 133.472 8.38676 134.271 8.38676H137.561V16.7297ZM136.347 9.54315H134.431C133.934 9.54315 133.544 9.68087 133.262 9.95619C132.989 10.2315 132.853 10.6115 132.853 11.0961C132.853 11.5807 132.989 11.9662 133.262 12.2526C133.544 12.5279 133.934 12.6656 134.431 12.6656H136.347V9.54315Z" fill="#B750D1"/>
<path d="M8.65025 10.4793L12.5738 16.3179H10.3772L6.99904 11.3379H5.37815V16.3179H3.45427V7.09167H2L2.96951 5.23393H5.37815V9.62069H6.99904L10.2105 5.23393H12.392L8.65025 10.4793ZM11.983 12.3214C11.983 11.4576 12.1748 10.7031 12.5586 10.0578C12.9323 9.45415 13.4423 8.99105 14.0886 8.66841C14.735 8.34576 15.4318 8.18446 16.1791 8.18446C16.9467 8.18446 17.6385 8.34057 18.2545 8.6528C18.9009 8.97545 19.4109 9.45415 19.7845 10.089C20.1582 10.7135 20.345 11.4576 20.345 12.3214C20.345 13.1957 20.1582 13.9502 19.7845 14.5851C19.4109 15.2095 18.9009 15.6935 18.2545 16.0369C17.6182 16.37 16.9265 16.5365 16.1791 16.5365C15.4419 16.5365 14.7501 16.37 14.1038 16.0369C13.4474 15.7039 12.9272 15.22 12.5435 14.5851C12.1698 13.9398 11.983 13.1852 11.983 12.3214ZM44.6586 8.43426H46.3704V9.51139C46.633 9.09511 46.9814 8.7777 47.4157 8.55911C47.86 8.33015 48.4306 8.21567 49.1274 8.21567C49.8445 8.21567 50.4808 8.38221 51.0362 8.71522C51.5714 9.05866 51.9855 9.54784 52.2784 10.1827C52.5813 10.8072 52.7328 11.5252 52.7328 12.337C52.7328 13.1592 52.5813 13.8878 52.2784 14.5227C51.9855 15.147 51.5714 15.631 51.0362 15.9745C50.7837 16.1514 50.4858 16.2815 50.1424 16.3647C49.8092 16.4584 49.4708 16.5052 49.1274 16.5052C48.5316 16.5052 48.0873 16.4584 47.7944 16.3647C47.1885 16.1774 46.7592 15.8652 46.5067 15.4281V19.1123H44.6586V8.43426ZM21.3297 8.43426H23.1627V11.4316H26.2985V8.43426H28.1163V16.3179H26.2985V12.9927H23.1627V16.3179H21.3297V8.43426ZM28.9192 8.43426H35.9633V9.93291H33.3577V16.3179H31.4944V9.93291H28.9192V8.43426ZM38.4931 8.43426C39.1798 10.37 39.806 12.285 40.3716 14.1792C40.9068 12.3058 41.5127 10.3908 42.1894 8.43426H44.0375L41.2199 16.474C40.9876 17.1297 40.7654 17.6345 40.5533 17.9883C40.321 18.3422 40.0332 18.6076 39.6898 18.7845C39.3566 18.9718 38.9122 19.0655 38.3568 19.0655C38.0437 19.0655 37.872 19.0603 37.8417 19.0499L37.2206 17.5512C37.4125 17.5929 37.6498 17.6136 37.9326 17.6136C38.276 17.6136 38.5537 17.5616 38.7658 17.4575C38.9577 17.3743 39.1041 17.2598 39.2051 17.1141C39.3061 16.9788 39.3919 16.807 39.4626 16.5989L36.5541 8.43426H38.4931ZM13.8462 12.3058C13.8462 13.1696 14.0482 13.8305 14.4522 14.2885C14.8562 14.736 15.4167 14.9597 16.1337 14.9597C16.8608 14.9597 17.4264 14.736 17.8304 14.2885C18.2444 13.8305 18.4514 13.1696 18.4514 12.3058C18.4514 11.4628 18.2494 10.828 17.8455 10.4012C17.4415 9.96412 16.8709 9.74559 16.1337 9.74559C15.4066 9.74559 14.841 9.96412 14.437 10.4012C14.0432 10.828 13.8462 11.4628 13.8462 12.3058ZM46.4613 12.3214C46.4815 13.102 46.6835 13.7264 47.0673 14.1948C47.451 14.6631 47.9913 14.8973 48.6881 14.8973C49.385 14.8973 49.9202 14.6631 50.2939 14.1948C50.6777 13.7264 50.8746 13.102 50.8847 12.3214C50.8746 11.5513 50.6777 10.9372 50.2939 10.4793C49.9202 10.011 49.385 9.7768 48.6881 9.7768C47.9913 9.7768 47.451 10.0058 47.0673 10.4637C46.6835 10.9216 46.4815 11.5409 46.4613 12.3214Z" fill="#222222"/>
</svg>
