<svg xmlns="http://www.w3.org/2000/svg" width="24" height="24" viewBox="0 0 24 24" fill="none"><rect width="24" height="24" fill="none"/>
<path fill-rule="evenodd" clip-rule="evenodd" d="M5.35376 11.0635L5.33225 11.0781L5.59503 11.4239L5.61566 11.4068C5.76428 11.283 6.02185 11.1998 6.40312 11.1998C6.93075 11.1998 7.21977 11.3581 7.31364 11.5644H6.37815V11.9511H7.27919C7.15896 12.1262 6.87688 12.2543 6.40306 12.2543C6.02272 12.2543 5.76514 12.1711 5.61647 12.0472L5.59584 12.0302L5.33266 12.3768L5.35462 12.3913C5.59064 12.5472 5.93827 12.6415 6.40306 12.6415C6.8678 12.6415 7.23827 12.5412 7.47428 12.3764C7.71121 12.2107 7.82665 11.981 7.82665 11.7279C7.82665 11.4747 7.71081 11.2446 7.47387 11.0793C7.23792 10.9146 6.88249 10.8142 6.40312 10.8142C5.92364 10.8142 5.58983 10.9085 5.35381 11.0644V11.0636L5.35376 11.0635ZM2 12.5643L2.00821 12.5335C2.15503 11.9776 2.34977 11.5669 2.6026 11.295C2.85636 11.0217 3.16775 10.8898 3.54382 10.8898C3.91983 10.8898 4.23087 11.0221 4.48497 11.295C4.7378 11.5669 4.93295 11.9781 5.07942 12.5344L5.08757 12.5651H4.60867L4.60393 12.5472C4.45058 12.0088 4.26792 11.7074 4.08358 11.5405C3.90006 11.3744 3.71272 11.3398 3.54387 11.3398C3.37497 11.3398 3.18763 11.3748 3.00457 11.5405C2.82017 11.7074 2.63711 12.0084 2.48422 12.5468L2.47902 12.5647H2V12.5643ZM16.1199 12.5651L16.1281 12.5344C16.275 11.9781 16.4697 11.5673 16.7225 11.295C16.9766 11.0217 17.2881 10.8898 17.6636 10.8898C18.0393 10.8898 18.3512 11.0221 18.6049 11.2954C18.8577 11.5678 19.0524 11.9785 19.1993 12.5344L19.2075 12.5651H18.7284L18.7233 12.5472C18.5704 12.0088 18.3873 11.7074 18.2029 11.5405C18.0199 11.3744 17.8325 11.3398 17.6636 11.3398C17.4948 11.3398 17.3075 11.3748 17.1244 11.5405C16.9395 11.7074 16.7569 12.0088 16.6036 12.5472L16.5989 12.5651L16.1199 12.5651ZM7.94994 11.2766V10.8898H10.4457V11.2766H9.43642V12.5643H8.95913V11.2766H7.94994ZM15.3523 11.5639C15.3497 11.4943 15.3376 11.4426 15.3183 11.4043C15.3003 11.3659 15.2701 11.3346 15.2325 11.315C15.1964 11.2962 15.1533 11.286 15.105 11.2809C15.0564 11.2757 15.0043 11.2757 14.9509 11.2757H13.541V10.8894H14.9758V10.8902C15.074 10.8902 15.1735 10.891 15.267 10.9009C15.3687 10.9115 15.466 10.9329 15.55 10.9773C15.6345 11.0217 15.7051 11.0887 15.7542 11.1883C15.8028 11.2873 15.83 11.4179 15.83 11.5887V12.5638H14.2031C13.9924 12.5638 13.7749 12.5638 13.6103 12.5028C13.5268 12.4716 13.4553 12.4247 13.4049 12.3525C13.3549 12.2803 13.3273 12.186 13.3273 12.0639C13.3273 11.9418 13.3549 11.847 13.4049 11.7752C13.4553 11.7031 13.5268 11.6562 13.6103 11.625C13.7749 11.5639 13.9924 11.5639 14.2031 11.5639H15.3523ZM14.2065 12.1783H15.3527V11.9516H14.2065C14.0988 11.9516 13.9954 11.9516 13.9183 11.9683C13.88 11.9763 13.8516 11.9883 13.8326 12.0037C13.8235 12.011 13.8162 12.0203 13.8114 12.0309C13.8065 12.0415 13.8042 12.0531 13.8046 12.0647C13.8046 12.0921 13.815 12.1109 13.8326 12.1258C13.8516 12.1416 13.88 12.1531 13.9183 12.1612C13.9954 12.1779 14.0988 12.1779 14.2065 12.1779V12.1783ZM21.0954 11.5639V11.5648H19.9746V10.8898H19.4973V12.5643H21.1243C21.3349 12.5643 21.5525 12.5643 21.717 12.5032C21.8006 12.472 21.8721 12.4251 21.922 12.3529C21.9724 12.2808 22 12.1865 22 12.0643C22 11.9422 21.9724 11.8474 21.922 11.7757C21.8721 11.7036 21.8006 11.6566 21.717 11.6254C21.5525 11.5644 21.3349 11.5644 21.1243 11.5644H21.0954V11.5639ZM21.1205 12.1783H19.9746V11.9516H21.1205C21.2286 11.9516 21.3319 11.9516 21.4086 11.9683C21.4469 11.9763 21.4758 11.9883 21.4947 12.0037C21.5124 12.0186 21.5223 12.0374 21.5223 12.0647C21.5223 12.0921 21.5124 12.1109 21.4947 12.1258C21.4758 12.1416 21.4469 12.1531 21.4086 12.1612C21.3319 12.1779 21.2286 12.1779 21.1205 12.1779V12.1783ZM10.7222 10.8898L11.7086 12.3632L11.1577 13.1859H11.7271L13.2645 10.8898H12.6954L11.9778 11.961L11.2606 10.8898L10.7222 10.8898Z" fill="white"/>
</svg>
