<svg xmlns="http://www.w3.org/2000/svg" width="24" height="24" viewBox="0 0 24 24" fill="none"><rect width="24" height="24" fill="none"/>
<path d="M11.985 11.0399H20.9399C20.9799 12.6548 21 13.9547 21 14.9394C21 16.4559 20.8998 17.5983 20.6995 18.3663C20.4991 19.1344 20.1285 19.8041 19.5876 20.3752C18.9666 21.0054 18.1352 21.4387 17.0935 21.675C16.0517 21.8917 14.3489 22 11.985 22C9.42069 22 7.62771 21.7932 6.606 21.3796C5.30384 20.8282 4.37229 19.9912 3.81135 18.8685C3.27045 17.7263 3 16.0522 3 13.8464C3 9.76955 3.19032 7.16002 3.57095 6.01773C4.15192 4.16642 5.47412 2.95519 7.53756 2.38405C8.49916 2.12802 10.242 2 12.7662 2C14.5492 2 15.8414 2.06893 16.6427 2.2068C17.444 2.32496 18.1853 2.57115 18.8665 2.94535C19.5676 3.33925 20.0784 3.93993 20.399 4.74741C20.7195 5.5549 20.8998 6.69719 20.9399 8.1743H16.2521C16.1519 7.15017 15.8714 6.50025 15.4107 6.22452C14.9699 5.94879 13.9382 5.81093 12.3155 5.81093C11.0133 5.81093 10.0618 5.90941 9.46076 6.10635C8.85976 6.3033 8.42904 6.65781 8.1686 7.16987C7.86811 7.76071 7.71786 9.26735 7.71786 11.6898C7.71786 14.5259 7.85809 16.2492 8.13856 16.8597C8.33889 17.3521 8.73956 17.6967 9.34056 17.8937C9.94153 18.0906 10.8531 18.1891 12.0751 18.1891C13.8581 18.1891 15.02 17.9823 15.5609 17.5687C16.1219 17.1551 16.4023 16.2688 16.4023 14.9099C16.4023 14.8705 16.3823 14.6539 16.3422 14.26H11.985V11.0399Z" fill="white"/>
</svg>
