<svg xmlns="http://www.w3.org/2000/svg" width="24" height="24" viewBox="0 0 24 24" fill="none"><rect width="24" height="24" fill="none"/>
<path d="M20.8538 8.63443C20.7751 7.60374 19.9884 6.28232 19.2017 5.64803C18.317 4.99892 17.3978 4.39898 16.4481 3.85091C15.5057 3.28796 14.534 2.77628 13.5373 2.31807C13.0048 2.09918 12.4339 1.99129 11.8589 2.00093C11.2838 1.98875 10.7123 2.09673 10.1806 2.31807C9.18401 2.7766 8.21234 3.28827 7.26974 3.85091C5.74876 4.7759 4.51622 5.64803 4.51622 5.64803C4.10779 5.9925 3.76187 6.39941 3.4888 6.85032C3.45748 6.90204 3.49526 6.9672 3.55572 6.9672H4.83391C4.86477 6.9672 4.89401 6.95358 4.91425 6.93029C5.06166 6.7607 5.223 6.60207 5.39732 6.45629C5.39732 6.45629 6.48195 5.69516 7.82043 4.88788C8.64994 4.39685 9.50498 3.9503 10.382 3.55013C10.8499 3.35696 11.3528 3.26272 11.8589 3.27335C12.3649 3.26494 12.8673 3.35909 13.3359 3.55013C14.213 3.95001 15.0681 4.39657 15.8974 4.88788C16.7331 5.36619 17.542 5.88978 18.3205 6.45629C19.0128 7.00983 19.7051 8.16305 19.7744 9.06259C19.7744 9.06259 19.9359 10.4004 19.959 11.9849C19.9576 12.9635 19.9037 13.9413 19.7974 14.9141C19.6364 15.9327 19.1118 16.8586 18.3205 17.5204C18.3205 17.5204 17.2359 18.3046 15.8974 19.1119C15.0679 19.6029 14.2129 20.0495 13.3359 20.4496C12.8679 20.6428 12.3651 20.737 11.8589 20.7264C11.3534 20.737 10.851 20.6452 10.382 20.4566C9.50485 20.0567 8.64979 19.6101 7.82043 19.1188C6.48195 18.3346 5.39732 17.5273 5.39732 17.5273C5.25647 17.4147 5.1156 17.2773 4.9798 17.1222C4.95956 17.099 4.93042 17.0855 4.8997 17.0855H3.61678C3.55555 17.0855 3.51786 17.1522 3.55051 17.204C3.83563 17.6564 4.17592 18.0593 4.51622 18.3336C4.51622 18.3336 5.74876 19.2586 7.26974 20.1572C8.21219 20.7201 9.18385 21.2318 10.1806 21.69C10.7136 21.9062 11.2845 22.0114 11.8589 21.9992C12.4341 22.0114 13.0055 21.9034 13.5373 21.6821C14.5339 21.2235 15.5055 20.7119 16.4481 20.1493C17.9691 19.2242 19.2017 18.3257 19.2017 18.3257C20.1008 17.5673 20.697 16.5064 20.88 15.3393C21.0007 14.2246 21.062 13.1042 21.0635 11.9829C21.0373 10.1673 20.8538 8.63443 20.8538 8.63443Z" fill="#000000"/>
<path d="M2.93643 8.52318C2.93643 8.5058 2.95049 8.49171 2.96783 8.49171H4.74507C4.76727 8.49171 4.78229 8.51465 4.77366 8.53533L4.55357 9.06393C4.54776 9.0779 4.53446 9.08425 4.52185 9.083L4.5187 9.08315H3.60199V10.9833C3.60199 11.0007 3.58793 11.0147 3.5706 11.0147H2.96783C2.95049 11.0147 2.93643 11.0007 2.93643 10.9833V8.52318Z" fill="#000000"/>
<path d="M9.69147 10.419L9.87066 10.9145C9.87691 10.9307 9.86816 10.9493 9.85191 10.9562C9.64528 11.0382 9.21696 11.0836 8.99971 11.0836C8.13252 11.0836 7.74604 10.6701 7.74604 9.74323C7.74604 8.82935 8.13252 8.42213 8.99971 8.42213C9.26006 8.42213 9.54912 8.46691 9.79137 8.544C9.80072 8.5471 9.80822 8.55394 9.81197 8.56263C9.81572 8.57135 9.81572 8.58129 9.81134 8.59C9.71769 8.78273 9.63466 8.94001 9.56597 9.0687C9.55912 9.08238 9.54287 9.08923 9.5279 9.08485C9.34371 9.03138 9.19887 9.00901 9.04277 9.00901C8.49211 9.00901 8.43155 9.24714 8.43155 9.75255C8.43155 10.3848 8.62886 10.4961 9.04277 10.4961C9.23196 10.4961 9.50353 10.4526 9.64837 10.3991C9.6565 10.3966 9.66587 10.3966 9.674 10.4004C9.68209 10.4041 9.68834 10.4109 9.69147 10.419Z" fill="#000000"/>
<path d="M6.11175 8.42213C5.26393 8.42213 4.93383 8.79248 4.93383 9.74311C4.93383 10.7082 5.26393 11.0836 6.11175 11.0836C6.96635 11.0836 7.29954 10.7082 7.29954 9.74311C7.29954 8.79248 6.96635 8.42213 6.11175 8.42213ZM6.11175 10.5297C5.72549 10.5297 5.60515 10.4228 5.60515 9.75255C5.60515 9.03895 5.73659 8.97545 6.11175 8.97545C6.49431 8.97545 6.62822 9.03895 6.62822 9.75255C6.62822 10.4228 6.50541 10.5297 6.11175 10.5297Z" fill="#000000"/>
<path d="M8.76546 14.6941H8.14517C8.12442 14.6941 8.10933 14.6739 8.11498 14.6538C8.2187 14.3008 8.3268 13.9013 8.40158 13.4583C8.47824 13.0003 8.51849 12.5781 8.53545 12.2012C8.53608 12.1843 8.54989 12.171 8.56686 12.171H10.4103C10.4277 12.171 10.4418 12.1851 10.4418 12.2025V14.6626C10.4418 14.68 10.4277 14.6941 10.4103 14.6941H9.80628C9.7889 14.6941 9.77484 14.68 9.77484 14.6626V12.7625H9.16849C9.14621 13.0429 9.10862 13.3442 9.04702 13.6622C8.97536 14.0347 8.89052 14.3725 8.79499 14.6727C8.79124 14.6852 8.77864 14.6941 8.76546 14.6941Z" fill="#000000"/>
<path d="M13.7645 12.2025V14.6626C13.7645 14.68 13.7785 14.6941 13.7959 14.6941H14.3999C14.4173 14.6941 14.4314 14.68 14.4314 14.6626V12.7625H15.35L15.3531 12.7623C15.3658 12.7636 15.3791 12.7572 15.3849 12.7433L15.6055 12.2147C15.6141 12.1939 15.5991 12.171 15.5768 12.171H13.7959C13.7785 12.171 13.7645 12.1851 13.7645 12.2025Z" fill="#000000"/>
<path d="M2.96787 12.171C2.94605 12.171 2.93087 12.1925 2.93837 12.2128L3.85609 14.6944C3.72659 14.9667 3.58271 15.2533 3.41816 15.5728C3.40739 15.5937 3.4224 15.6189 3.44596 15.6189H4.09882C4.11068 15.6189 4.12161 15.6121 4.12696 15.6016C4.61005 14.6186 4.96554 13.7471 5.45158 12.2126C5.4582 12.1923 5.4432 12.171 5.4218 12.171H4.81542C4.80135 12.171 4.78892 12.1806 4.78507 12.1941C4.59795 12.8501 4.42542 13.3636 4.22543 13.8585L3.60894 12.1914C3.60441 12.1792 3.59263 12.171 3.57945 12.171H2.96787Z" fill="#000000"/>
<path d="M10.8784 12.171H11.49C11.5032 12.171 11.5149 12.1792 11.5195 12.1914L12.1359 13.8585C12.3359 13.3636 12.5085 12.8501 12.6956 12.1941C12.6995 12.1806 12.7119 12.171 12.726 12.171H13.3323C13.3537 12.171 13.3687 12.1923 13.3621 12.2126C12.8761 13.7471 12.5206 14.6186 12.0375 15.6016C12.0321 15.6121 12.0212 15.6189 12.0094 15.6189H11.3565C11.3329 15.6189 11.3179 15.5937 11.3287 15.5728C11.4932 15.2533 11.6371 14.9667 11.7666 14.6944L10.8489 12.2128C10.8414 12.1925 10.8566 12.171 10.8784 12.171Z" fill="#000000"/>
<path d="M7.61503 14.0983L7.79422 14.5938C7.80044 14.61 7.79172 14.6286 7.77547 14.6355C7.56882 14.7175 7.14053 14.7629 6.92328 14.7629C6.05605 14.7629 5.66961 14.3495 5.66961 13.4226C5.66961 12.5087 6.05605 12.1015 6.92328 12.1015C7.18362 12.1015 7.47269 12.1462 7.71491 12.2233C7.72428 12.2264 7.73178 12.2333 7.73554 12.242C7.73929 12.2507 7.73928 12.2606 7.73491 12.2693C7.64125 12.4621 7.55822 12.6193 7.48953 12.748C7.48266 12.7617 7.46644 12.7685 7.45144 12.7642C7.26728 12.7107 7.12244 12.6883 6.96634 12.6883C6.41568 12.6883 6.35512 12.9264 6.35512 13.4319C6.35512 14.0641 6.5524 14.1754 6.96634 14.1754C7.15553 14.1754 7.42709 14.1319 7.57194 14.0784C7.58006 14.0759 7.58944 14.0759 7.59753 14.0797C7.60566 14.0834 7.61191 14.0903 7.61503 14.0983Z" fill="#000000"/>
<path d="M18.0896 12.171C18.1072 12.171 18.121 12.1849 18.1204 12.2024V14.5184C18.1204 14.5322 18.1122 14.5448 18.099 14.5492C17.8192 14.6559 17.3476 14.7633 16.925 14.7633C16.2012 14.7633 15.9082 14.4468 15.8937 13.6389C15.8931 13.637 15.8931 12.2062 15.8931 12.2062V12.2024C15.8931 12.1849 15.9069 12.171 15.9245 12.171H16.5282C16.5458 12.171 16.5597 12.1849 16.5597 12.2024V13.6251C16.5735 14.0545 16.6797 14.1574 17.0457 14.1574C17.1929 14.1574 17.3237 14.1398 17.4544 14.1034V12.2024C17.4544 12.1849 17.4683 12.171 17.4859 12.171H18.0896Z" fill="#000000"/>
</svg>
