<svg xmlns="http://www.w3.org/2000/svg" width="24" height="24" viewBox="0 0 24 24" fill="none"><rect width="24" height="24" fill="none"/>
<path fill-rule="evenodd" clip-rule="evenodd" d="M11.0587 2H12.9582C13.3799 6.59718 16.7277 9.84316 22 11.0026V12.8754C16.689 14.0483 13.3347 17.341 12.9632 22H11.0703C10.6997 17.3218 7.34036 14.0212 2 12.861V11.0136C7.29199 9.86336 10.6385 6.61148 11.0587 2ZM12.0351 8.40157C11.0125 9.75626 9.78439 10.91 8.36437 11.8446C9.8012 12.833 11.0274 14.0809 12.0351 15.5014C13.0462 14.0837 14.3273 12.829 15.7656 11.8446C14.3391 10.9085 13.062 9.76166 12.0351 8.40157Z" fill="white"/>
</svg>
