<svg xmlns="http://www.w3.org/2000/svg" width="24" height="24" viewBox="0 0 24 24" fill="none"><rect width="24" height="24" fill="none"/>
<path d="M17.5531 19.3831L17.5537 19.3826L21.2229 16.1394L20.5993 14.8412L17.5537 17.481L17.5535 17.4811C17.4821 17.5406 17.4486 17.5685 17.4195 17.5645C17.3939 17.5611 17.3717 17.5333 17.3301 17.4814L17.3298 17.481C15.2254 15.3341 13.3673 12.9636 11.5092 10.5931L11.5072 10.5906L15.471 5.60177C15.7622 6.94406 16.949 7.95076 18.3823 7.95076C20.0171 7.95076 21.3608 6.63089 21.3608 4.97538C21.3383 3.31992 19.9947 2 18.3599 2C16.9043 2 16.0533 2.51453 15.2247 3.43178C14.9392 3.80775 14.0971 4.86744 13.1822 6.01869L13.1818 6.01918L13.1355 6.07752C12.4857 6.89532 11.8034 7.754 11.2609 8.44294V2.71587L2.63904 6.5414V22L11.2609 18.1969V12.9619L17.0834 19.3826L17.0839 19.3831C17.1939 19.5039 17.2498 19.5653 17.3076 19.5671C17.3671 19.5689 17.4285 19.5076 17.5531 19.3831Z" fill="white"/>
</svg>
