<svg xmlns="http://www.w3.org/2000/svg" width="24" height="24" viewBox="0 0 24 24" fill="none"><rect width="24" height="24" fill="none"/>
<path d="M11.2444 4.22241C9.01127 4.22241 7.56269 4.34528 6.51382 4.73468C4.75165 5.42087 3.5347 6.85913 3.5347 8.74852C3.5347 10.3227 4.26819 11.4624 6.39028 12.773C8.65491 14.1454 9.1063 14.5989 9.1063 15.4252C9.1063 16.3304 8.21957 17.3603 5.93712 17.3603C5.14126 17.3603 3.94094 17.2499 3.17419 17.0623L2.80833 16.9703C2.60461 17.517 2.14135 18.8104 2 19.2794L2.36229 19.3862C3.05124 19.6058 4.68869 19.778 5.8605 19.778C9.76139 19.778 12.089 17.422 12.089 14.9563C12.089 13.4408 11.4 12.2887 9.07363 10.8379C7.90657 10.1197 7.31205 9.65493 6.95035 9.29462C6.65814 8.91888 6.62548 8.6387 6.62548 8.3431C6.62548 8.06114 6.68843 7.73586 6.87493 7.49783C7.07567 7.20282 7.44509 7.01524 7.94518 6.86032C8.45892 6.68996 9.41039 6.6858 10.8928 6.6858H12.2737L13.2596 4.22241H11.2444Z" fill="#000000"/>
<path d="M14.7403 4.22241H21.6773C22.0028 4.22241 22.0651 4.45272 21.9398 4.70322C21.486 5.82688 17.2062 16.5435 17.2062 16.5435H14.3459C14.3459 16.5435 17.7259 7.93471 18.2872 6.65256C18.1575 6.65256 18.0385 6.6561 17.8795 6.66082L17.878 6.66087C17.5602 6.67096 17.0845 6.6858 16.0534 6.6858H13.7543L14.7403 4.22241Z" fill="#000000"/>
</svg>
