<svg xmlns="http://www.w3.org/2000/svg" width="24" height="24" viewBox="0 0 24 24" fill="none"><rect width="24" height="24" fill="none"/>
<path d="M3.5988 6.55322C4.44752 5.26346 5.58351 4.18757 6.92188 3.40983C8.12315 2.6256 9.50072 2.14599 10.937 2.0034C11.1655 1.98396 11.394 2.04877 11.5834 2.17839C11.7727 2.30802 11.9098 2.50246 11.9751 2.71634C12.4386 3.84407 12.6867 5.04957 12.7128 6.26805C12.7389 7.88836 12.4255 9.50216 11.7857 10.9929C11.7662 11.0447 11.7335 11.0901 11.6878 11.1225C11.6421 11.1549 11.5834 11.1743 11.5311 11.1743C11.3744 11.1808 11.2177 11.2132 11.061 11.2132C8.07092 11.278 5.16567 13.0863 3.24625 15.2834C3.15485 15.413 3.02428 15.5102 2.87412 15.5621C2.62603 15.6204 2.5281 15.3936 2.46934 15.2057C1.91441 13.3909 1.84912 11.4595 2.28654 9.60587C2.54116 8.51701 2.98511 7.48652 3.59227 6.54674" fill="#F47119"/>
<path d="M11.4166 21.9918C9.83935 21.914 8.30197 21.4792 6.91769 20.7267C5.60662 20.0909 4.46858 19.1502 3.61007 17.9889C3.47696 17.8007 3.41707 17.5737 3.43038 17.3466C3.45034 17.1195 3.55017 16.9054 3.7099 16.7367C4.47524 15.77 5.41362 14.9461 6.47845 14.3103C7.90266 13.4669 9.49328 12.9284 11.1437 12.7208C11.2036 12.7078 11.2569 12.7143 11.3101 12.7402C11.3634 12.7662 11.4099 12.7987 11.4366 12.8505C11.5231 12.9803 11.6296 13.0971 11.7161 13.2333C13.3134 15.77 16.408 17.3466 19.3363 17.885C19.496 17.898 19.6491 17.9564 19.7755 18.0602C19.9552 18.2419 19.8022 18.443 19.6624 18.5857C18.338 19.9806 16.6542 21.0057 14.7908 21.5701C13.706 21.8945 12.5613 22.0372 11.4166 21.9918Z" fill="#54D39C"/>
<path d="M20.8166 7.19644C21.5459 8.55486 21.937 10.055 21.9768 11.5808C22.0828 12.9972 21.8243 14.4201 21.2343 15.7141C21.1348 15.9202 20.9691 16.0875 20.757 16.1841C20.5448 16.2807 20.3062 16.3129 20.0808 16.2614C18.8412 16.1069 17.648 15.7399 16.5476 15.1733C15.0891 14.4072 13.8031 13.3577 12.7889 12.083C12.7491 12.0444 12.7226 11.9864 12.716 11.9349C12.7093 11.877 12.7226 11.8255 12.7491 11.7739C12.8221 11.6324 12.8751 11.4907 12.948 11.3491C14.3732 8.74158 14.2008 5.36801 13.1999 2.65111C13.127 2.50947 13.1071 2.35496 13.1336 2.20044C13.1999 1.95579 13.4584 1.98798 13.6506 2.02661C15.5466 2.43222 17.3033 3.31424 18.7418 4.58255C19.5771 5.33582 20.2797 6.21785 20.8166 7.19644Z" fill="#1875F0"/>
</svg>
