<svg xmlns="http://www.w3.org/2000/svg" width="24" height="24" viewBox="0 0 24 24" fill="none"><rect width="24" height="24" fill="none"/>
<path fill-rule="evenodd" clip-rule="evenodd" d="M21.4841 10.57L17.3808 3.76942C16.5664 2.42079 14.9651 1.74278 13.4138 2.08999L5.59133 3.83919C4.03998 4.1864 2.89123 5.47921 2.7465 7.0429L2.01532 14.9245C1.87058 16.4874 2.7623 17.9657 4.22381 18.5846L11.5937 21.7062C13.0552 22.3251 14.7555 21.9451 15.8036 20.7647L21.0899 14.812C22.1379 13.6317 22.2977 11.9186 21.4841 10.57ZM18.4714 13.1792L16.5657 8.89857H15.3371L17.8742 14.5943L16.8835 16.9403H18.1012L21.0759 9.89423L20.3638 8.71386L20.279 8.89857L18.4714 13.1792ZM10.1782 9.7193C10.6507 9.13489 11.3777 8.75979 12.1921 8.75979L12.1912 8.75893C13.612 8.75893 14.7674 9.89906 14.7674 11.301V14.6287H13.6436V11.301C13.6436 10.5106 12.9914 9.86791 12.1912 9.86791C11.391 9.86791 10.7397 10.5114 10.7397 11.301V14.6287H9.61587V11.301C9.61587 10.5106 8.96455 9.86791 8.16435 9.86791C7.36415 9.86791 6.71283 10.5114 6.71283 11.301V14.6287H5.58904V8.89769H6.71283V9.20299C7.12625 8.92394 7.62618 8.75979 8.16435 8.75979C8.97871 8.75979 9.70575 9.13489 10.1782 9.7193Z" fill="white"/>
</svg>
