<svg xmlns="http://www.w3.org/2000/svg" width="24" height="24" viewBox="0 0 24 24" fill="none"><rect width="24" height="24" fill="none"/>
<path fill-rule="evenodd" clip-rule="evenodd" d="M2.90761 3.87524C2.24473 3.87524 1.80599 4.56346 2.08579 5.1644L3.24434 7.65266C3.31945 7.81398 3.39723 7.98058 3.39723 8.15851V18.6742C3.39723 19.4752 4.04662 20.1245 4.84771 20.1245H19.152C19.9531 20.1245 20.6024 19.4752 20.6024 18.6742V8.15851C20.6024 7.98058 20.6804 7.81398 20.7554 7.65266L21.914 5.1644C22.1939 4.56346 21.7551 3.87524 21.0922 3.87524H2.90761Z" fill="white"/>
<path d="M16.4858 7.89656C16.5582 7.67385 16.8733 7.67385 16.9457 7.89656L17.2051 8.69513C17.2375 8.79473 17.3303 8.86218 17.435 8.86218H18.2747C18.5089 8.86218 18.6062 9.16183 18.4168 9.29949L17.7375 9.79303C17.6528 9.85459 17.6173 9.96371 17.6497 10.0633L17.9091 10.8619C17.9815 11.0846 17.7266 11.2698 17.5371 11.1322L16.8578 10.6386C16.7731 10.577 16.6584 10.577 16.5737 10.6386L15.8943 11.1322C15.7049 11.2698 15.45 11.0846 15.5224 10.8619L15.7818 10.0633C15.8142 9.96371 15.7787 9.85459 15.694 9.79303L15.0147 9.29949C14.8252 9.16183 14.9226 8.86218 15.1568 8.86218H15.9964C16.1012 8.86218 16.194 8.79473 16.2264 8.69513L16.4858 7.89656Z" fill="#222222"/>
<path d="M11.6432 7.89656C11.7155 7.67385 12.0306 7.67385 12.103 7.89656L12.3624 8.69513C12.3948 8.79473 12.4876 8.86218 12.5923 8.86218H13.432C13.6662 8.86218 13.7636 9.16183 13.5741 9.29949L12.8948 9.79303C12.8101 9.85459 12.7746 9.96371 12.807 10.0633L13.0665 10.8619C13.1388 11.0846 12.8839 11.2698 12.6945 11.1322L12.0151 10.6386C11.9304 10.577 11.8157 10.577 11.731 10.6386L11.0517 11.1322C10.8622 11.2698 10.6073 11.0846 10.6797 10.8619L10.9391 10.0633C10.9715 9.96371 10.936 9.85459 10.8513 9.79303L10.172 9.29949C9.98254 9.16183 10.0799 8.86218 10.3141 8.86218H11.1538C11.2585 8.86218 11.3513 8.79473 11.3837 8.69513L11.6432 7.89656Z" fill="#222222"/>
<path d="M6.8007 7.89638C6.87306 7.67367 7.18817 7.67367 7.26054 7.89638L7.52001 8.69495C7.55237 8.79455 7.64518 8.862 7.74991 8.862H8.58959C8.82377 8.862 8.92113 9.16165 8.73166 9.29931L8.05237 9.79285C7.96763 9.8544 7.93219 9.96353 7.96455 10.0631L8.22403 10.8617C8.29639 11.0844 8.04147 11.2696 7.85201 11.132L7.17272 10.6384C7.08798 10.5769 6.97326 10.5769 6.88852 10.6384L6.20923 11.132C6.01976 11.2696 5.76485 11.0844 5.83721 10.8617L6.09668 10.0631C6.12905 9.96353 6.0936 9.8544 6.00886 9.79285L5.32958 9.29931C5.14011 9.16165 5.23747 8.862 5.47165 8.862H6.31133C6.41606 8.862 6.50886 8.79455 6.54123 8.69495L6.8007 7.89638Z" fill="#222222"/>
<path fill-rule="evenodd" clip-rule="evenodd" d="M8.63373 16.3013C8.63373 14.4422 10.1408 12.9351 11.9999 12.9351C13.8589 12.9351 15.366 14.4422 15.366 16.3013V20.1248H14.3688V16.3013C14.3688 14.9929 13.3082 13.9323 11.9999 13.9323C10.6915 13.9323 9.63092 14.9929 9.63092 16.3013V20.1248H8.63373V16.3013Z" fill="#222222"/>
</svg>
