<svg xmlns="http://www.w3.org/2000/svg" width="24" height="24" viewBox="0 0 24 24" fill="none"><rect width="24" height="24" fill="none"/>
<path d="M12.0015 22C17.5243 22 22.0015 17.5229 22.0015 12C22.0015 6.47715 17.5243 2 12.0015 2C6.47863 2 2.00146 6.47715 2.00146 12C2.00146 17.5229 6.47863 22 12.0015 22Z" fill="white"/>
<path fill-rule="evenodd" clip-rule="evenodd" d="M22.0015 12C22.0015 17.5229 17.5243 22 12.0015 22C6.47863 22 2.00146 17.5229 2.00146 12C2.00146 6.47715 6.47863 2 12.0015 2C13.0805 2 14.1196 2.17091 15.0933 2.48713L12.8141 9.5H6.15813L5.3448 12H12.0016L10.0516 18H12.8016L14.7516 12H22.0015ZM21.6865 9.5H15.5641L17.4725 3.62798C19.5278 4.97385 21.0575 7.05615 21.6865 9.5Z" fill="url(#paint0_linear_4241_49)"/>
<defs>
<linearGradient id="paint0_linear_4241_49" x1="2.00146" y1="10.6667" x2="22.0015" y2="10.6667" gradientUnits="userSpaceOnUse">
<stop stop-color="#FF5C4D"/>
<stop offset="0.4" stop-color="#EB469F"/>
<stop offset="1" stop-color="#8341EF"/>
</linearGradient>
</defs>
</svg>
