<svg xmlns="http://www.w3.org/2000/svg" width="24" height="24" viewBox="0 0 24 24" fill="none"><rect width="24" height="24" fill="none"/>
<path d="M14.2242 17.4748C15.1205 18.3711 16.5703 18.3711 17.4662 17.4748C18.3618 16.5782 18.3618 15.1271 17.4662 14.232C16.5703 13.3369 15.1205 13.3369 14.2242 14.232C13.3324 15.1271 13.3324 16.5782 14.2242 17.4748Z" fill="#000000"/>
<path d="M18.0782 13.6252C18.9733 14.5244 20.4293 14.5244 21.3274 13.6252C22.2225 12.7269 22.2225 11.2714 21.3274 10.3737C20.4293 9.47762 18.9733 9.47762 18.0782 10.3737C17.1777 11.2714 17.1777 12.7269 18.0782 13.6252Z" fill="#000000"/>
<path d="M10.3703 13.6205C11.2686 14.5175 12.7168 14.5175 13.6165 13.6205C14.5098 12.7243 14.5098 11.2724 13.6165 10.377C12.7168 9.48305 11.2686 9.48305 10.3703 10.377C9.48112 11.2724 9.48112 12.7243 10.3703 13.6205Z" fill="#000000"/>
<path d="M6.52882 9.76817C7.42592 10.6625 8.87757 10.6625 9.77274 9.76817C10.6657 8.87231 10.6657 7.42041 9.77274 6.52495C8.87757 5.62759 7.42592 5.62759 6.52882 6.52495C5.63399 7.42041 5.63399 8.87231 6.52882 9.76817Z" fill="#000000"/>
<path d="M14.2242 9.76817C15.1205 10.6625 16.5703 10.6625 17.4662 9.76817C18.3618 8.87231 18.3618 7.42041 17.4662 6.52495C16.5703 5.62759 15.1205 5.62759 14.2242 6.52495C13.3324 7.42041 13.3324 8.87231 14.2242 9.76817Z" fill="#000000"/>
<path d="M13.6165 2.67131C14.5098 3.56677 14.5098 5.01906 13.6165 5.91301C12.7168 6.8096 11.2686 6.8096 10.3703 5.91301C9.48112 5.01906 9.48112 3.56677 10.3703 2.67131C11.2686 1.77623 12.7168 1.77623 13.6165 2.67131Z" fill="#000000"/>
<path d="M13.6123 18.0838C14.5098 18.9796 14.5098 20.4312 13.6123 21.3278C12.7168 22.2244 11.2686 22.2244 10.3703 21.3278C9.48112 20.4312 9.48112 18.9796 10.3703 18.0838C11.2686 17.1895 12.7168 17.1895 13.6123 18.0838Z" fill="#000000"/>
<path d="M6.52882 17.4748C7.42592 18.3711 8.87757 18.3711 9.77274 17.4748C10.6657 16.5809 10.6657 15.1271 9.77274 14.232C8.87757 13.3369 7.42592 13.3369 6.52882 14.232C5.63399 15.1271 5.63399 16.5809 6.52882 17.4748Z" fill="#000000"/>
<path d="M2.67311 13.6205C3.56869 14.5175 5.01806 14.5175 5.91515 13.6205C6.80923 12.7243 6.80923 11.2743 5.91515 10.377C5.01806 9.48305 3.56869 9.48305 2.67311 10.377C1.77563 11.2743 1.77563 12.7243 2.67311 13.6205Z" fill="#000000"/>
</svg>
