<svg xmlns="http://www.w3.org/2000/svg" width="24" height="24" viewBox="0 0 24 24" fill="none"><rect width="24" height="24" fill="none"/>
<path fill-rule="evenodd" clip-rule="evenodd" d="M21.3566 10.635L20.4497 11.1015V14.696C20.0715 14.8717 19.8086 15.2599 19.8086 15.7105C19.8086 16.3261 20.2991 16.8251 20.9041 16.8251C21.5092 16.8251 21.9997 16.3261 21.9997 15.7105C21.9997 15.2591 21.7359 14.8704 21.3566 14.6952V10.635Z" fill="#222222"/>
<path fill-rule="evenodd" clip-rule="evenodd" d="M10.5458 4.83917L2.46654 9.06774C1.84202 9.3946 1.84518 10.3041 2.47192 10.6264L5.78755 12.3319V15.7104H5.79031C5.78848 15.7474 5.78755 15.7846 5.78755 15.8218C5.78755 17.8532 8.53428 19.5 11.9226 19.5C15.3108 19.5 18.0576 17.8532 18.0576 15.8218C18.0576 15.7846 18.0566 15.7474 18.0548 15.7104H18.0576V12.3319L20.4497 11.1015L21.3566 10.635L21.3732 10.6264C22 10.3041 22.003 9.3946 21.3787 9.06774L13.2993 4.83915C12.4353 4.38695 11.4098 4.38695 10.5458 4.83917ZM7.13587 12.8297C7.24942 12.6064 7.52242 12.5175 7.74564 12.6311L10.3252 13.9433C11.3307 14.4549 12.5136 14.4549 13.5192 13.9433L16.0987 12.6311C16.3219 12.5175 16.595 12.6064 16.7085 12.8297C16.8221 13.0529 16.7332 13.3259 16.5099 13.4394L13.9304 14.7517C12.6664 15.3946 11.1779 15.3946 9.91397 14.7517L7.33444 13.4394C7.11122 13.3259 7.02232 13.0529 7.13587 12.8297Z" fill="white"/>
<path d="M7.74564 12.6311C7.52242 12.5175 7.24942 12.6064 7.13587 12.8297C7.02232 13.0529 7.11122 13.3259 7.33444 13.4394L9.91397 14.7517C11.1779 15.3946 12.6664 15.3946 13.9304 14.7517L16.5099 13.4394C16.7332 13.3259 16.8221 13.0529 16.7085 12.8297C16.595 12.6064 16.3219 12.5175 16.0987 12.6311L13.5192 13.9433C12.5136 14.4549 11.3307 14.4549 10.3252 13.9433L7.74564 12.6311Z" fill="#222222"/>
</svg>
