<svg xmlns="http://www.w3.org/2000/svg" width="24" height="24" viewBox="0 0 24 24" fill="none"><rect width="24" height="24" fill="none"/>
<path fill-rule="evenodd" clip-rule="evenodd" d="M17.5407 15.3641H19.0593C19.5607 14.3152 19.8186 13.1699 19.8186 11.9986C19.8186 7.68074 16.3189 4.18124 11.9993 4.18124C7.68115 4.18124 4.1814 7.68074 4.1814 11.9986C4.1814 16.3193 7.68403 19.8116 12.0007 19.8173L13.0828 19.8188C13.3719 19.8195 13.649 19.9349 13.8532 20.1396C14.0574 20.3444 14.172 20.6217 14.172 20.9108C14.1706 21.5116 13.6807 22 13.0799 22L11.9978 21.9986C6.47806 21.9899 2 17.5223 2 11.9986C2 6.47774 6.47806 2 11.9993 2C17.5219 2 22 6.47774 22 11.9986C22 13.7591 21.5418 15.4779 20.66 17.0007C20.4598 17.3479 20.1154 17.5453 19.7163 17.5453H16.4514C15.8506 17.5453 15.3607 17.0555 15.3607 16.4561L15.3578 11.9928C15.3564 10.1386 13.8551 8.63449 11.9993 8.63449C10.1435 8.63449 8.63929 10.1372 8.63929 11.9928C8.63929 13.8542 10.1507 15.354 11.9906 15.3626L13.1029 15.3497C13.7038 15.3439 14.1994 15.828 14.2066 16.4288C14.2124 17.0295 13.7283 17.5237 13.1274 17.5309L12.0151 17.5424C12.0094 17.5439 12.005 17.5439 11.9978 17.5439C8.94042 17.5295 6.45789 15.0543 6.45789 11.9928C6.45789 8.93272 8.93898 6.45325 11.9993 6.45325C15.0581 6.45325 17.5363 8.93416 17.5392 11.9914L17.5407 15.3641Z" fill="white"/>
</svg>
