<svg xmlns="http://www.w3.org/2000/svg" width="93" height="24" viewBox="0 0 93 24" fill="none"><rect width="93" height="24" fill="none"/>
<path d="M21.8237 21.6868V7.71964H25.4701V21.6868H21.8237ZM23.6554 5.91918C23.1134 5.91918 22.6482 5.72822 22.2603 5.34631C21.8779 4.95833 21.6868 4.49458 21.6868 3.95505C21.6868 3.42158 21.8779 2.96388 22.2603 2.58197C22.6482 2.19399 23.1134 2 23.6554 2C24.1976 2 24.6598 2.19399 25.0421 2.58197C25.4301 2.96388 25.6241 3.42158 25.6241 3.95505C25.6241 4.49458 25.4301 4.95833 25.0421 5.34631C24.6598 5.72822 24.1976 5.91918 23.6554 5.91918Z" fill="white"/>
<path fill-rule="evenodd" clip-rule="evenodd" d="M6.17107 21.6868H2L8.35549 2.98434H13.3716L19.7181 21.6868H15.547L14.184 17.4222H7.53676L6.17107 21.6868ZM10.7916 7.25815H10.9354L13.1974 14.3355H8.5252L10.7916 7.25815Z" fill="white"/>
<path d="M30.0537 4.95302C30.0537 4.40938 30.4944 3.96868 31.038 3.96868H31.9591C32.3586 3.96868 32.7186 4.21025 32.87 4.58006L38.6138 18.6095C38.6376 18.6677 38.6943 18.7058 38.7572 18.7058C38.8202 18.7058 38.8769 18.6677 38.9007 18.6095L44.6445 4.58006C44.7959 4.21025 45.1559 3.96868 45.5554 3.96868H46.4765C47.0201 3.96868 47.4608 4.40939 47.4608 4.95302V20.7383C47.4608 21.2818 47.0201 21.7226 46.4765 21.7226H46.434C45.8903 21.7226 45.4496 21.2818 45.4496 20.7383V8.3376C45.4496 8.28026 45.4032 8.23377 45.3458 8.23377C45.3037 8.23377 45.2658 8.25919 45.2498 8.29811L39.9791 21.1127C39.8273 21.4816 39.4677 21.7226 39.0686 21.7226H38.4458C38.0468 21.7226 37.6872 21.4816 37.5354 21.1127L32.2647 8.29811C32.2486 8.25919 32.2107 8.23377 32.1687 8.23377C32.1113 8.23377 32.0649 8.28026 32.0649 8.3376V20.7383C32.0649 21.2818 31.6242 21.7226 31.0805 21.7226H31.038C30.4944 21.7226 30.0537 21.2818 30.0537 20.7383V4.95302Z" fill="white"/>
<path d="M56.7374 22C55.5354 22 54.4806 21.714 53.5733 21.1418C52.6717 20.5697 51.9666 19.7692 51.458 18.7405C50.9552 17.7117 50.7038 16.5097 50.7038 15.1342C50.7038 13.7472 50.9552 12.5365 51.458 11.5019C51.9666 10.4675 52.6717 9.66414 53.5733 9.092C54.4806 8.51985 55.5354 8.23377 56.7374 8.23377C57.9395 8.23377 58.9913 8.51985 59.8929 9.092C60.8002 9.66414 61.5053 10.4675 62.0081 11.5019C62.5167 12.5365 62.7709 13.7472 62.7709 15.1342C62.7709 16.5097 62.5167 17.7117 62.0081 18.7405C61.5053 19.7692 60.8002 20.5697 59.8929 21.1418C58.9913 21.714 57.9395 22 56.7374 22ZM56.7374 20.1621C57.6505 20.1621 58.4018 19.9282 58.9913 19.46C59.5808 18.9919 60.0172 18.3764 60.3003 17.6135C60.5835 16.8506 60.7251 16.0242 60.7251 15.1342C60.7251 14.2442 60.5835 13.4149 60.3003 12.6462C60.0172 11.8776 59.5808 11.2563 58.9913 10.7825C58.4018 10.3085 57.6505 10.0716 56.7374 10.0716C55.8243 10.0716 55.073 10.3085 54.4835 10.7825C53.894 11.2563 53.4577 11.8776 53.1745 12.6462C52.8913 13.4149 52.7497 14.2442 52.7497 15.1342C52.7497 16.0242 52.8913 16.8506 53.1745 17.6135C53.4577 18.3764 53.894 18.9919 54.4835 19.46C55.073 19.9282 55.8243 20.1621 56.7374 20.1621Z" fill="white"/>
<path d="M67.7738 13.7126V20.7383C67.7738 21.2818 67.3331 21.7226 66.7894 21.7226H66.7122C66.1687 21.7226 65.7279 21.2818 65.7279 20.7383V9.39149C65.7279 8.84786 66.1725 8.40715 66.7162 8.40715C67.2598 8.40715 67.7044 8.84786 67.7044 9.39149V10.3819C67.7044 10.4403 67.7518 10.4877 67.8102 10.4877C67.8514 10.4877 67.8888 10.4636 67.9066 10.4265C68.2188 9.77866 68.6831 9.25581 69.2995 8.85794C69.9352 8.44183 70.7559 8.23377 71.7615 8.23377C72.663 8.23377 73.4519 8.41871 74.128 8.78858C74.8043 9.15268 75.3302 9.70748 75.7058 10.453C76.0815 11.1927 76.2693 12.129 76.2693 13.2617V20.7383C76.2693 21.2818 75.8286 21.7226 75.2849 21.7226H75.2078C74.6641 21.7226 74.2234 21.2818 74.2234 20.7383V13.4004C74.2234 12.3544 73.9519 11.5395 73.4086 10.9558C72.8653 10.3663 72.1198 10.0716 71.172 10.0716C70.519 10.0716 69.9352 10.2131 69.4208 10.4963C68.9123 10.7795 68.5106 11.1927 68.2159 11.736C67.9212 12.2793 67.7738 12.9381 67.7738 13.7126Z" fill="white"/>
<path d="M85.2512 22C84.0491 22 82.9944 21.714 82.087 21.1418C81.1855 20.5697 80.4804 19.7692 79.9718 18.7405C79.469 17.7117 79.2176 16.5097 79.2176 15.1342C79.2176 13.7472 79.469 12.5365 79.9718 11.5019C80.4804 10.4675 81.1855 9.66414 82.087 9.092C82.9944 8.51985 84.0491 8.23377 85.2512 8.23377C86.4532 8.23377 87.5051 8.51985 88.4067 9.092C89.3139 9.66414 90.019 10.4675 90.5218 11.5019C91.0304 12.5365 91.2847 13.7472 91.2847 15.1342C91.2847 16.5097 91.0304 17.7117 90.5218 18.7405C90.019 19.7692 89.3139 20.5697 88.4067 21.1418C87.5051 21.714 86.4532 22 85.2512 22ZM85.2512 20.1621C86.1642 20.1621 86.9156 19.9282 87.5051 19.46C88.0945 18.9919 88.5309 18.3764 88.8141 17.6135C89.0973 16.8506 89.2388 16.0242 89.2388 15.1342C89.2388 14.2442 89.0973 13.4149 88.8141 12.6462C88.5309 11.8776 88.0945 11.2563 87.5051 10.7825C86.9156 10.3085 86.1642 10.0716 85.2512 10.0716C84.338 10.0716 83.5868 10.3085 82.9972 10.7825C82.4077 11.2563 81.9715 11.8776 81.6883 12.6462C81.4051 13.4149 81.2634 14.2442 81.2634 15.1342C81.2634 16.0242 81.4051 16.8506 81.6883 17.6135C81.9715 18.3764 82.4077 18.9919 82.9972 19.46C83.5868 19.9282 84.338 20.1621 85.2512 20.1621Z" fill="white"/>
</svg>
