<svg xmlns="http://www.w3.org/2000/svg" width="24" height="24" viewBox="0 0 24 24" fill="none"><rect width="24" height="24" fill="none"/>
<path d="M18.9739 2.00067C19.003 1.99685 19.0177 2.00928 19.018 2.03796C19.0518 2.52875 18.9862 3.0055 18.8214 3.46819C18.6359 3.92707 18.3184 4.26034 17.869 4.46801C17.5166 4.6257 17.1483 4.68445 16.7642 4.64424C16.7178 4.61396 16.6851 4.57216 16.6659 4.51884C16.4394 3.88969 16.5275 3.30902 16.9302 2.7768C17.2106 2.45397 17.5574 2.23141 17.9707 2.10913C18.1395 2.05911 18.3112 2.02296 18.4859 2.00067H18.9739Z" fill="#A2383B"/>
<path fill-rule="evenodd" clip-rule="evenodd" d="M19.3874 22.0003C18.0204 22.0003 16.6535 22.0003 15.2865 22.0003C15.2839 21.0942 15.2817 20.1882 15.2797 19.2822C15.2842 18.0734 15.2865 16.8634 15.2865 15.6523C15.2853 14.4424 15.2842 13.2325 15.2831 12.0225C15.2819 11.9919 15.2785 11.9625 15.2729 11.9344C15.1695 10.7704 14.6656 9.82483 13.7613 9.09764C12.9277 8.46215 11.9855 8.1865 10.9347 8.27068C9.79564 8.40002 8.87039 8.90954 8.159 9.7992C7.4607 10.7347 7.20765 11.7808 7.39982 12.9376C7.61819 14.0181 8.17741 14.8711 9.07747 15.4964C9.69139 15.909 10.3692 16.1349 11.111 16.1743C12.3718 16.1807 13.6325 16.1841 14.8933 16.1844C14.8933 17.6621 14.8933 19.1398 14.8933 20.6175C13.6258 20.6187 12.3582 20.6175 11.0907 20.6141C9.18125 20.5383 7.51149 19.8764 6.08143 18.628C4.56764 17.2583 3.64917 15.558 3.32601 13.5273C3.06932 11.7609 3.32012 10.0709 4.07841 8.45708C4.87592 6.82585 6.07231 5.5775 7.66757 4.71203C9.2731 3.88681 10.9655 3.63148 12.7446 3.94607C14.2603 4.24519 15.5798 4.91625 16.7032 5.95925C17.9026 7.09549 18.7104 8.46811 19.1264 10.0771C19.2845 10.7046 19.3704 11.3418 19.384 11.9886C19.3874 13.3872 19.3885 14.7859 19.3874 16.1844C19.8483 16.1844 20.3092 16.1844 20.7702 16.1844C20.7702 17.6621 20.7702 19.1398 20.7702 20.6175C20.3092 20.6175 19.8483 20.6175 19.3874 20.6175C19.3874 21.0784 19.3874 21.5394 19.3874 22.0003Z" fill="#A2383B"/>
</svg>
