<svg xmlns="http://www.w3.org/2000/svg" width="24" height="24" viewBox="0 0 24 24" fill="none"><rect width="24" height="24" fill="none"/>
<path d="M17 2H7C4.23858 2 2 4.23858 2 7V17C2 19.7614 4.23858 22 7 22H17C19.7614 22 22 19.7614 22 17V7C22 4.23858 19.7614 2 17 2Z" fill="#51ADFF"/>
<path d="M5.16728 16.386C5.05975 17.139 5.64406 17.8128 6.40472 17.8128H17.5953C18.3559 17.8128 18.9403 17.139 18.8328 16.386L17.5296 7.26056C17.4417 6.64472 16.9143 6.18728 16.2922 6.18728H7.70784C7.08575 6.18728 6.55834 6.64472 6.47039 7.26056L5.16728 16.386Z" fill="white"/>
<path d="M15.1921 8.66192C15.2522 8.48186 15.4469 8.38458 15.627 8.44464C15.8071 8.50474 15.9044 8.69944 15.8443 8.87951C15.2989 10.5136 13.7884 11.698 12 11.698C10.2395 11.698 8.74834 10.5503 8.18195 8.95581L8.1557 8.87951L8.14624 8.84564C8.10807 8.67565 8.20416 8.50099 8.37299 8.44464C8.54181 8.38831 8.72347 8.47028 8.79504 8.62912L8.80786 8.66192L8.82983 8.72586C9.30522 10.0644 10.5497 11.0104 12 11.0104C13.4733 11.0104 14.7341 10.0341 15.1921 8.66192Z" fill="#222222"/>
</svg>
