<svg xmlns="http://www.w3.org/2000/svg" width="24" height="24" viewBox="0 0 24 24" fill="none"><rect width="24" height="24" fill="none"/>
<path fill-rule="evenodd" clip-rule="evenodd" d="M11.9992 2C11.6466 2 11.3002 2.09368 10.9945 2.27169L4.15988 6.24998C3.52902 6.61698 3.13916 7.30074 3.13916 8.04054V15.9598C3.13887 16.3228 3.23309 16.6795 3.4123 16.9939C3.59151 17.3082 3.84937 17.5692 4.15988 17.7503L10.9952 21.7286C11.3009 21.9066 11.6473 22.0003 11.9999 22.0003C12.3525 22.0003 12.699 21.9066 13.0047 21.7286L19.8393 17.7503C20.4701 17.3833 20.86 16.6996 20.86 15.9598V8.04054C20.8603 7.6775 20.7661 7.3208 20.5869 7.00642C20.4077 6.69204 20.1498 6.43113 19.8393 6.24998L13.004 2.27169C12.6983 2.09368 12.3518 2 11.9992 2ZM12.6985 5.89375C12.422 5.71706 12.2866 5.69767 12.0641 5.67972C11.6615 5.66894 11.5161 5.75226 11.2943 5.89375L7.49707 8.47222C7.15541 8.71857 6.94489 9.11431 6.93355 9.54524V14.4436C6.94418 14.8695 7.15187 15.2674 7.49707 15.5159L11.2943 18.0943C11.7082 18.3594 12.0287 18.3694 12.3958 18.2452C12.4039 18.2424 12.4115 18.2398 12.4189 18.2374C12.4936 18.2122 12.5385 18.197 12.6985 18.0943L16.4964 15.5159C16.504 15.5103 16.5119 15.5047 16.5198 15.4992C16.531 15.4913 16.5423 15.4834 16.5531 15.475C17.3995 14.8293 17.0033 13.4165 16.0931 13.191C16.0615 13.1831 16.0315 13.1747 16.0022 13.1665C15.7742 13.1028 15.5916 13.0517 15.0922 13.3706L11.9967 15.4721L10.6691 14.5714L16.4957 10.6176C17.0132 10.2462 17.1571 9.72191 17.0132 9.19764C17.0056 9.1701 16.9991 9.14345 16.9927 9.11725C16.9478 8.93163 16.9083 8.76867 16.4964 8.47222L12.6985 5.89375ZM9.46479 10.2347V12.2903L13.5115 9.54454L11.9967 8.51602L9.46479 10.2347Z" fill="white"/>
</svg>
