<svg xmlns="http://www.w3.org/2000/svg" width="24" height="24" viewBox="0 0 24 24" fill="none"><rect width="24" height="24" fill="none"/>
<path fill-rule="evenodd" clip-rule="evenodd" d="M12 2C6.47753 2 2 6.47752 2 12C2 17.5225 6.47753 22 12 22C17.5225 22 22 17.5225 22 12C22 6.47752 17.5225 2 12 2ZM6.97043 12.9326H18.9697V12.002C18.9697 11.0773 18.7922 10.1802 18.4432 9.33633C18.0883 8.47871 17.5797 7.71569 16.931 7.06703C16.2843 6.41837 15.5213 5.9097 14.6637 5.55481C13.8198 5.20583 12.9227 5.02839 11.998 5.02839C11.0733 5.02839 10.1763 5.20583 9.3324 5.55481C8.47476 5.9097 7.71175 6.41837 7.06309 7.06703C6.41443 7.71569 5.90575 8.47871 5.55087 9.33633C5.20189 10.1802 5.02445 11.0773 5.02445 12.002C5.02445 12.9267 5.20189 13.8237 5.55087 14.6676C5.90575 15.5253 6.41443 16.2883 7.06309 16.9369C7.71175 17.5856 8.47476 18.0943 9.3324 18.4491C10.1763 18.7981 11.0733 18.9755 11.998 18.9755C13.1869 18.9755 14.4231 18.6542 15.4779 18.0686C16.5249 17.4929 17.3845 16.6747 18.0292 15.6455L18.2185 15.3793L16.6353 14.3876L16.4559 14.64C15.9649 15.4129 15.3301 16.0162 14.571 16.4341C13.7922 16.8659 12.8773 17.1025 11.9941 17.1025C11.306 17.1025 10.6495 16.9724 10.0402 16.7161C9.4172 16.4559 8.8592 16.0832 8.38209 15.6061C7.90299 15.1211 7.52839 14.5611 7.27011 13.946C7.13604 13.6227 7.03549 13.2835 6.97043 12.9326ZM15.5962 8.37027C15.1191 7.89314 14.5611 7.52051 13.9381 7.26025C13.3289 7.00395 12.6703 6.87382 11.9842 6.87382C11.2981 6.87382 10.6415 7.00395 10.0323 7.26025C9.4172 7.51853 8.85727 7.89314 8.37224 8.37224C7.89511 8.8494 7.52247 9.40733 7.26222 10.0303C7.12618 10.3675 7.02366 10.7086 6.96057 11.0517H17.0079C16.9428 10.6987 16.8423 10.3577 16.7062 10.0323C16.4598 9.42707 16.0871 8.86907 15.5962 8.37027Z" fill="#000000"/>
</svg>
