<svg xmlns="http://www.w3.org/2000/svg" width="24" height="24" viewBox="0 0 24 24" fill="none"><rect width="24" height="24" fill="none"/>
<path d="M8.95985 20.2539C9.37548 20.2533 9.78875 20.1992 10.1898 20.0935C10.4054 20.2765 10.6397 20.4436 10.8915 20.5903C12.0124 21.2435 13.3443 21.4203 14.5943 21.0818C15.8442 20.7433 16.9099 19.9172 17.5568 18.7851C17.7687 18.4138 17.9275 18.0251 18.0352 17.6288C18.2985 17.5325 18.558 17.412 18.8094 17.265C19.3645 16.9413 19.8519 16.5113 20.242 15.9977C20.6322 15.4841 20.9183 14.8979 21.0841 14.2726C21.2499 13.6473 21.2921 12.9951 21.2083 12.3533C21.1246 11.7115 20.9173 11.0927 20.5967 10.5322C20.3884 10.1684 20.1354 9.83341 19.8442 9.53497C19.894 9.25125 19.9193 8.9634 19.9195 8.6747C19.9195 7.36755 19.4054 6.11394 18.4902 5.18964C17.5751 4.26535 16.3339 3.74608 15.0396 3.74608C14.6146 3.74608 14.2012 3.80132 13.807 3.90535C13.5889 3.72006 13.355 3.554 13.108 3.40972C11.9871 2.75647 10.6552 2.57966 9.4052 2.91819C8.15523 3.25671 7.08958 4.08284 6.44265 5.21486C6.23386 5.58012 6.07293 5.97031 5.96261 6.37581C5.68318 6.47649 5.44737 6.5857 5.19006 6.73596C4.63503 7.05954 4.14855 7.48947 3.75841 8.00299C3.36828 8.51651 3.08214 9.10263 2.91634 9.72786C2.75054 10.3531 2.70832 11.0052 2.7921 11.6469C2.87588 12.2886 3.08309 12.9074 3.40369 13.4678C3.61584 13.839 3.86999 14.1723 4.15568 14.4651C4.106 14.7489 4.08074 15.0367 4.08087 15.3253C4.08087 16.6325 4.59408 17.8861 5.50924 18.8104C6.4244 19.7347 7.66562 20.2539 8.95985 20.2539ZM9.18743 17.4159C9.30922 17.4159 9.42887 17.3835 9.53434 17.322L12.3466 15.6822L13.9008 14.7757V16.4349L10.075 18.6671C9.71576 18.7892 9.33918 18.8518 8.95985 18.8524C8.03365 18.8524 7.14538 18.4808 6.49045 17.8193C5.84253 17.165 5.4755 16.2799 5.46772 15.3553L8.84051 17.322C8.94599 17.3835 9.06564 17.4159 9.18743 17.4159ZM5.94951 12.2477C6.01024 12.3543 6.09768 12.4429 6.20305 12.5045L10.6119 15.0754L9.18824 15.9055L5.32162 13.6509C5.04475 13.4046 4.80185 13.1089 4.60633 12.7662C4.37694 12.3652 4.228 11.9234 4.16802 11.4643C4.10803 11.0052 4.13817 10.5387 4.25672 10.0913C4.37527 9.64397 4.5799 9.22459 4.85893 8.85712C5.13188 8.49767 5.47079 8.19477 5.85706 7.96492V11.8972C5.85689 12.0202 5.88877 12.1411 5.94951 12.2477ZM17.509 6.18065C18.1567 6.83478 18.5237 7.71938 18.5317 8.64358L14.8962 6.5248L10.0987 9.32058V7.5614L13.9191 5.33322C14.28 5.21046 14.6585 5.14773 15.0396 5.14758C15.9658 5.14758 16.8541 5.51919 17.509 6.18065ZM14.9416 17.4462C15.0471 17.3847 15.1347 17.298 15.1956 17.1914C15.2565 17.0848 15.2885 16.9639 15.2885 16.8408V11.7488L16.7548 12.6032V17.0132C16.6799 17.3899 16.5441 17.7511 16.3542 18.0844C15.8911 18.8941 15.1287 19.485 14.2344 19.7271C13.3492 19.9668 12.4066 19.8454 11.6097 19.3898L14.9416 17.4462ZM10.0987 13.1572V10.9399L11.9997 9.83101L13.9008 10.9399V13.1572L11.9997 14.2662L11.0492 13.7117L10.0987 13.1572ZM19.3941 11.2329C19.6234 11.634 19.7723 12.0768 19.8323 12.536C19.8922 12.9953 19.862 13.4619 19.7434 13.9093C19.6247 14.3568 19.42 14.7762 19.1409 15.1437C18.8679 15.5032 18.5289 15.806 18.1426 16.0359L18.1433 11.7944L13.3883 9.02162L14.895 8.14288L18.6739 10.3455C18.9534 10.5925 19.1976 10.8885 19.3941 11.2329ZM9.05791 6.55002C8.95237 6.61156 8.86474 6.7001 8.80384 6.80671C8.74294 6.91332 8.71092 7.03426 8.711 7.15734V12.3479L7.24472 11.4928V6.98546C7.31701 6.61969 7.44948 6.25881 7.64528 5.91561C8.10834 5.10589 8.8708 4.51502 9.76506 4.27288C10.649 4.03354 11.5902 4.1543 12.3864 4.60834L9.05791 6.55002Z" fill="#000000"/>
</svg>
