<svg xmlns="http://www.w3.org/2000/svg" width="72" height="24" viewBox="0 0 72 24" fill="none"><rect width="72" height="24" fill="none"/>
<path fill-rule="evenodd" clip-rule="evenodd" d="M68.6786 7.621C68.1907 7.32217 67.5549 7.17277 66.7713 7.17277C66.2459 7.17277 65.7599 7.27413 65.3131 7.47689C64.8754 7.67118 64.5032 7.93729 64.1966 8.27519C63.8904 8.60465 63.6186 8.98057 63.3824 9.40294C63.1547 9.82536 62.9753 10.2731 62.8439 10.7461C62.7617 11.0418 62.6917 11.3308 62.6336 11.6132C62.5413 11.448 62.4315 11.2941 62.3034 11.1516C61.848 10.6363 61.1869 10.3787 60.3198 10.3787C59.8121 10.3787 59.4267 10.4843 59.1639 10.6954H59.1379C59.6896 9.69863 60.4644 9.20022 61.4626 9.20022C61.8743 9.20022 62.2991 9.26356 62.7368 9.39029L63.6696 7.59094C63.0916 7.31215 62.3471 7.17277 61.4363 7.17277C60.6484 7.17277 59.9084 7.35861 59.2164 7.73032C58.5337 8.09355 57.9689 8.56663 57.522 9.14952C57.0755 9.7324 56.7252 10.3702 56.4712 11.0629C56.3582 11.368 56.2701 11.6714 56.2074 11.9731C56.1499 11.8842 56.0852 11.8 56.0135 11.7206C55.6633 11.3236 55.2516 11.0659 54.7788 10.9477L57.0906 8.70479L57.3663 7.32358H51.4424L51.0616 9.22433H53.2026C53.5966 9.22433 53.8988 9.20321 54.1088 9.16098V9.18632L53.9774 9.28768C53.89 9.34682 53.7628 9.44819 53.5966 9.59181C53.4303 9.72698 53.2683 9.87481 53.1106 10.0353L51.705 11.4672L51.9678 12.5443H52.7429C53.7411 12.5443 54.2402 12.8188 54.2402 13.3679C54.2402 13.672 54.1003 13.9297 53.82 14.1409C53.5397 14.3436 53.1412 14.445 52.6246 14.445C52.2655 14.445 51.9153 14.3859 51.5739 14.2676C51.2322 14.1494 50.9608 13.9846 50.7593 13.7734L50.2461 14.3872C50.0325 13.5798 49.9185 12.7318 49.9185 11.8571C49.9185 6.41321 54.3316 2 59.7757 2C63.7031 2 67.0943 4.29705 68.6786 7.621ZM50.9627 16.2773C52.5832 19.5018 55.9209 21.7143 59.7757 21.7143C64.9983 21.7143 69.2724 17.6525 69.6111 12.5155C69.528 12.8365 69.4219 13.1632 69.2931 13.4959C69.0742 14.0619 68.8028 14.5687 68.4789 15.0165C68.1634 15.4557 67.7521 15.819 67.2441 16.1062C66.7361 16.3934 66.1713 16.5371 65.5497 16.5371C63.9472 16.5371 62.9658 15.9021 62.606 14.6321C62.4516 14.9238 62.2498 15.2039 62.0011 15.4726C61.3531 16.1822 60.5258 16.5371 59.5187 16.5371C58.5468 16.5371 57.7323 16.2414 57.0755 15.65C56.7249 15.3299 56.4679 14.9376 56.3046 14.473C56.1338 14.8627 55.8749 15.225 55.5276 15.5601C54.8533 16.2106 53.9031 16.5358 52.6772 16.5358C52.0447 16.5358 51.4733 16.4497 50.9627 16.2773ZM65.6285 14.5096C65.0943 14.5096 64.8271 14.0957 64.8271 13.2678C64.8271 12.9045 64.8666 12.499 64.9454 12.0513C65.0243 11.6036 65.1337 11.1643 65.274 10.7335C65.4228 10.2942 65.6196 9.93093 65.8648 9.64372C66.1187 9.34804 66.3947 9.20022 66.6924 9.20022C67.2267 9.20022 67.4938 9.61415 67.4938 10.442C67.4938 10.8137 67.4544 11.2234 67.3755 11.6712C67.2967 12.1189 67.1827 12.5582 67.0338 12.989C66.8938 13.4198 66.6967 13.7831 66.4427 14.0788C66.1976 14.366 65.9262 14.5096 65.6285 14.5096ZM58.4285 13.1157C58.4285 13.5212 58.5379 13.8549 58.7568 14.1168C58.9845 14.3787 59.2516 14.5096 59.5582 14.5096C59.8995 14.5096 60.1798 14.3744 60.3986 14.1041C60.6178 13.8338 60.7272 13.5297 60.7272 13.1918C60.7272 12.8961 60.6309 12.6511 60.4381 12.4568C60.2544 12.2625 59.961 12.1653 59.5582 12.1653C59.199 12.1653 58.9188 12.2583 58.7173 12.4441C58.5248 12.6215 58.4285 12.8454 58.4285 13.1157Z" fill="#FF780F"/>
<path d="M40.6752 14.039C40.6752 13.6262 40.7941 13.2682 41.0317 12.965C41.2695 12.6617 41.582 12.43 41.9691 12.27C42.3653 12.1099 42.7747 11.9962 43.1969 11.9288C43.6195 11.853 44.0598 11.8151 44.5175 11.8151H44.7156V11.7014C44.7156 11.2212 44.3943 10.9811 43.7516 10.9811C43.1532 10.9811 42.5283 11.1875 41.8767 11.6003L41.0846 10.0587C41.3928 9.83127 41.8153 9.63331 42.3522 9.46481C42.8979 9.29632 43.4348 9.21211 43.9628 9.21211C44.9045 9.21211 45.6441 9.44796 46.181 9.91972C46.7268 10.3915 46.9995 11.0401 46.9995 11.8656V15.8712H44.9134V15.4795L44.94 15.0751H44.9134C44.6936 15.37 44.3985 15.6016 44.0289 15.7701C43.6681 15.9386 43.2896 16.0228 42.8933 16.0228C42.2421 16.0228 41.7095 15.8333 41.2958 15.4542C40.8822 15.0751 40.6752 14.6034 40.6752 14.039ZM42.9331 13.8368C42.9331 13.9969 42.9903 14.1317 43.1046 14.2412C43.219 14.3423 43.3777 14.3928 43.5801 14.3928C43.8968 14.3928 44.1698 14.2707 44.3985 14.0264C44.6275 13.7821 44.7419 13.5209 44.7419 13.243V13.0661H44.5306C44.1081 13.0661 43.7342 13.1292 43.4082 13.2556C43.0915 13.3735 42.9331 13.5673 42.9331 13.8368Z" fill="#0D1D32"/>
<path d="M34.5943 15.0625L35.4962 13.6978C35.7141 13.8916 35.971 14.0558 36.2674 14.1906C36.5723 14.317 36.8555 14.3802 37.1171 14.3802C37.6572 14.3802 37.9276 14.1906 37.9276 13.8116C37.9276 13.6346 37.8751 13.4999 37.7706 13.4072C37.6746 13.3146 37.4831 13.2682 37.1956 13.2682H36.3719V11.8277H37.0517C37.5048 11.8277 37.7315 11.6592 37.7315 11.3223C37.7315 10.9769 37.4962 10.8042 37.0257 10.8042C36.5375 10.8042 36.0062 10.9685 35.4308 11.297L34.7773 9.94499C35.5094 9.4564 36.4156 9.21211 37.4962 9.21211C38.2105 9.21211 38.8033 9.37636 39.2738 9.7049C39.7443 10.0334 39.9796 10.4715 39.9796 11.019C39.9796 11.7014 39.7009 12.19 39.143 12.4848V12.5101C39.8403 12.8218 40.1889 13.3019 40.1889 13.9506C40.1889 14.6161 39.9316 15.1299 39.4177 15.4921C38.9035 15.8459 38.2326 16.0228 37.4046 16.0228C36.8903 16.0228 36.3807 15.9428 35.8754 15.7827C35.3786 15.6143 34.9514 15.3742 34.5943 15.0625Z" fill="#0D1D32"/>
<path d="M27.0538 16.0228V9.45535H29.3037V11.7763H31.3715V9.45535H33.6213V16.0228H31.3715V13.6254H29.3037V16.0228H27.0538Z" fill="#0D1D32"/>
<path d="M19.5134 12.6111C19.5134 11.634 19.8175 10.8253 20.4258 10.1851C21.034 9.53641 21.8464 9.21211 22.863 9.21211C23.7879 9.21211 24.5128 9.50694 25.0377 10.0966C25.571 10.6779 25.8376 11.4318 25.8376 12.3584C25.8376 12.5101 25.8209 12.7375 25.7876 13.0408H21.7256C21.8006 13.4199 21.9756 13.7105 22.2505 13.9127C22.5338 14.1064 22.8588 14.2033 23.2254 14.2033C23.7587 14.2033 24.3503 13.9842 25.0002 13.5462L25.8001 15.0751C25.4585 15.37 25.0377 15.6016 24.5378 15.7701C24.0462 15.9386 23.5504 16.0228 23.0504 16.0228C21.9589 16.0228 21.0965 15.6859 20.4633 15.012C19.83 14.3381 19.5134 13.5378 19.5134 12.6111ZM21.7756 11.7898H23.7004C23.7004 11.5118 23.617 11.2802 23.4504 11.0949C23.2921 10.9095 23.0796 10.8169 22.813 10.8169C22.263 10.8169 21.9172 11.1412 21.7756 11.7898Z" fill="#0D1D32"/>
<path d="M11.2431 18.6985V9.36867H13.3357V9.70796L13.3089 10.1386H13.3357C13.8097 9.5209 14.5072 9.21211 15.4283 9.21211C16.3673 9.21211 17.1185 9.53832 17.6819 10.1908C18.2542 10.8345 18.5404 11.6826 18.5404 12.7353C18.5404 13.7878 18.2363 14.636 17.6282 15.2797C17.0201 15.9235 16.2511 16.2453 15.321 16.2453C14.6593 16.2453 14.0735 16.0322 13.5638 15.6059H13.537C13.5548 15.7625 13.5638 15.9539 13.5638 16.1801V18.6985H11.2431ZM13.4967 12.7744C13.4967 13.2093 13.613 13.5878 13.8455 13.9096C14.0869 14.2228 14.4223 14.3794 14.8515 14.3794C15.2361 14.3794 15.558 14.2358 15.8173 13.9488C16.0767 13.6617 16.2063 13.2702 16.2063 12.7744C16.2063 12.2785 16.0812 11.8784 15.8308 11.5739C15.5804 11.2694 15.2539 11.1172 14.8515 11.1172C14.467 11.1172 14.1451 11.2564 13.8857 11.5347C13.6264 11.8131 13.4967 12.2264 13.4967 12.7744Z" fill="#0D1D32"/>
<path d="M2 16.0228L5.17593 6.7797H7.58075L10.7567 16.0228H8.40412L7.82905 14.0837H4.91453L4.35254 16.0228H2ZM5.45039 12.2739H7.29322L6.77043 10.4769L6.39139 8.88686H6.36527C6.22586 9.55908 6.09952 10.0891 5.98626 10.4769L5.45039 12.2739Z" fill="#0D1D32"/>
</svg>
