<svg xmlns="http://www.w3.org/2000/svg" width="24" height="24" viewBox="0 0 24 24" fill="none"><rect width="24" height="24" fill="none"/>
<path d="M10.0213 16.5662C9.23971 17.2243 8.33989 17.5534 7.3218 17.5534C6.61224 17.5534 5.9335 17.43 5.28564 17.1832C4.63776 16.9261 4.07215 16.5559 3.58883 16.0725C3.10549 15.5892 2.71986 14.9979 2.43191 14.2986C2.14397 13.5993 2 12.8023 2 11.9076C2 11.1364 2.14397 10.4217 2.43191 9.7635C2.71986 9.09508 3.11578 8.51917 3.61968 8.03585C4.12358 7.54223 4.71489 7.1566 5.39361 6.87894C6.08262 6.59099 6.82304 6.44702 7.61489 6.44702C8.10851 6.44702 8.58156 6.50358 9.03404 6.6167C9.48651 6.71954 9.903 6.87894 10.2835 7.09489C10.6743 7.30057 11.0239 7.55252 11.3324 7.85074C11.6409 8.13869 11.8929 8.46777 12.0883 8.83799L9.85159 10.5502C9.63563 10.1183 9.3117 9.7738 8.87978 9.5167C8.44786 9.24932 7.99024 9.11565 7.50692 9.11565C7.14699 9.11565 6.81791 9.18762 6.51968 9.33158C6.22145 9.47557 5.96436 9.6761 5.7484 9.93319C5.53244 10.1903 5.36277 10.4988 5.23935 10.8587C5.11595 11.2084 5.05425 11.594 5.05425 12.0156C5.05425 12.4476 5.11595 12.8383 5.23935 13.188C5.36277 13.5376 5.53244 13.841 5.7484 14.0981C5.97463 14.3449 6.24202 14.5403 6.55052 14.6842C6.85904 14.8179 7.20353 14.8848 7.58405 14.8848C8.45816 14.8848 9.22944 14.5248 9.89786 13.805H8.00054V11.6454H12.5048V17.4763H10.0213V16.5662Z" fill="white"/>
<path d="M11.8036 11.8922C11.8036 11.2238 11.927 10.5656 12.1739 9.91776C12.4309 9.26988 12.8011 8.68886 13.2845 8.17468C13.7678 7.6605 14.354 7.24401 15.043 6.92521C15.732 6.60642 16.5187 6.44702 17.4031 6.44702C18.4623 6.44702 19.3776 6.66812 20.1488 7.11032C20.9304 7.54223 21.5114 8.11812 21.8919 8.83799L19.5935 10.4731C19.4907 10.2057 19.3519 9.9846 19.177 9.80979C19.0125 9.63497 18.8274 9.49614 18.6217 9.3933C18.4161 9.29045 18.2001 9.21848 17.9738 9.17735C17.7579 9.13621 17.5471 9.11565 17.3414 9.11565C16.9095 9.11565 16.5341 9.20305 16.2153 9.37787C15.9068 9.54241 15.6497 9.7635 15.4441 10.0412C15.2487 10.3085 15.0996 10.617 14.9967 10.9667C14.9042 11.3061 14.8579 11.6454 14.8579 11.9848C14.8579 12.3653 14.9145 12.7304 15.0276 13.08C15.1407 13.4296 15.3052 13.7382 15.5212 14.0055C15.7372 14.2729 15.9994 14.4888 16.3079 14.6534C16.6267 14.8077 16.9815 14.8848 17.3723 14.8848C17.5779 14.8848 17.7887 14.8642 18.0047 14.8231C18.2207 14.7717 18.4263 14.6945 18.6217 14.5917C18.8274 14.4786 19.0073 14.3397 19.1616 14.1752C19.3261 14.0004 19.4547 13.7896 19.5473 13.5428L22 15.0082C21.8354 15.4093 21.5834 15.7692 21.2441 16.088C20.915 16.4068 20.5345 16.6741 20.1026 16.8901C19.6809 17.106 19.2233 17.2706 18.7297 17.3837C18.2464 17.4968 17.7733 17.5534 17.3106 17.5534C16.4981 17.5534 15.7526 17.394 15.0738 17.0752C14.4054 16.7461 13.8244 16.3142 13.3308 15.7795C12.8474 15.2447 12.4721 14.638 12.2047 13.9593C11.9373 13.2805 11.8036 12.5915 11.8036 11.8922Z" fill="#35D3C9"/>
</svg>
