<svg xmlns="http://www.w3.org/2000/svg" width="24" height="24" viewBox="0 0 24 24" fill="none"><rect width="24" height="24" fill="none"/>
<path d="M10.2702 9.13731C11.3799 9.13731 12.2388 9.40238 12.8467 9.93253C13.4617 10.4626 13.7691 11.1518 13.7691 12C13.7691 12.8483 13.4617 13.5376 12.8467 14.0677C12.2388 14.5978 11.3799 14.8629 10.2702 14.8629H9.14178C8.97447 14.8629 8.83884 14.9984 8.83884 15.1658V15.6202C8.83884 15.7875 8.7032 15.9232 8.5359 15.9232H7.23326C7.06595 15.9232 6.93032 15.7875 6.93032 15.6202V15.1658C6.93032 14.9984 6.79469 14.8629 6.62738 14.8629H5.49894C4.38916 14.8629 3.52681 14.5978 2.91183 14.0677C2.30394 13.5376 2 12.8483 2 12C2 11.1518 2.30394 10.4626 2.91183 9.93253C3.52681 9.40238 4.38916 9.13731 5.49894 9.13731H6.62738C6.79469 9.13731 6.93032 9.00168 6.93032 8.83437V8.37997C6.93032 8.21266 7.06595 8.07703 7.23326 8.07703H8.5359C8.7032 8.07703 8.83884 8.21266 8.83884 8.37997V8.83437C8.83884 9.00168 8.97447 9.13731 9.14178 9.13731H10.2702ZM5.55195 13.3254H6.77885C6.86251 13.3254 6.93032 13.2577 6.93032 13.1739V10.8263C6.93032 10.7425 6.86251 10.6747 6.77885 10.6747H5.55195C5.06421 10.6747 4.68605 10.7949 4.41745 11.0352C4.14884 11.2756 4.01453 11.5972 4.01453 12C4.01453 12.403 4.14884 12.7246 4.41745 12.965C4.68605 13.2053 5.06421 13.3254 5.55195 13.3254ZM10.2172 13.3254C10.7049 13.3254 11.0831 13.2053 11.3517 12.965C11.6203 12.7246 11.7546 12.403 11.7546 12C11.7546 11.5972 11.6203 11.2756 11.3517 11.0352C11.0831 10.7949 10.7049 10.6747 10.2172 10.6747H8.99031C8.90665 10.6747 8.83884 10.7425 8.83884 10.8263V13.1739C8.83884 13.2577 8.90665 13.3254 8.99031 13.3254H10.2172Z" fill="#000000"/>
<path d="M21.6972 8.28908C21.8645 8.28908 22.0002 8.42471 22.0002 8.59202V9.62959C22.0002 9.7969 21.8645 9.93253 21.6972 9.93253H19.3343C19.1669 9.93253 19.0313 10.0682 19.0313 10.2355V15.4081C19.0313 15.5754 18.8957 15.7111 18.7284 15.7111H17.4258C17.2585 15.7111 17.1228 15.5754 17.1228 15.4081V10.2355C17.1228 10.0682 16.9872 9.93253 16.8199 9.93253H14.457C14.2897 9.93253 14.154 9.7969 14.154 9.62959V8.59202C14.154 8.42471 14.2897 8.28908 14.457 8.28908H21.6972Z" fill="#000000"/>
</svg>
