<svg xmlns="http://www.w3.org/2000/svg" width="44" height="24" viewBox="0 0 44 24" fill="none"><rect width="44" height="24" fill="none"/>
<path d="M37.5267 22H6.47626C4.00506 22 2.00146 19.9964 2.00146 17.5252V6.4748C2.00146 4.0036 4.00506 2 6.47626 2H37.5267C39.9979 2 42.0015 4.0036 42.0015 6.4748V17.5252C42.0015 19.9964 39.9979 22 37.5267 22Z" fill="white"/>
<path d="M32.7847 15.1756V17.4996H33.9815C34.1371 17.4996 34.3303 17.478 34.5023 17.328C34.6151 17.2316 34.7491 17.0436 34.7491 16.7376C34.7491 16.5068 34.6739 16.3456 34.5719 16.2384C34.4107 16.0612 34.1531 16.0024 33.9491 16.0024H33.4391V15.176H32.7847V15.1756ZM6.47626 15.1756V17.4996H7.13106L8.20466 16.0664V17.4996H8.85946V15.1756H8.20466L7.13106 16.6088V15.1756H6.47626ZM9.44106 17.5H10.0959V16.5552H11.0083V17.5H11.6631V15.176H11.0083V15.9972H10.0959V15.176H9.44106V17.5ZM13.9127 15.24C13.7247 15.1488 13.5263 15.1004 13.2847 15.1004C13.0591 15.1004 12.7319 15.1488 12.4475 15.4008C12.2115 15.61 12.0451 15.9376 12.0451 16.3456C12.0451 16.7804 12.2383 17.0704 12.4155 17.2364C12.6247 17.4348 12.9471 17.5744 13.3119 17.5744C13.5803 17.5744 13.7843 17.494 13.9131 17.4296V16.7908C13.7359 16.952 13.5427 16.9948 13.3979 16.9948C13.0063 16.9948 12.7215 16.7156 12.7215 16.3344C12.7215 15.9964 12.9415 15.6796 13.3763 15.6796C13.6019 15.6796 13.7735 15.7548 13.9131 15.8836V15.24H13.9127ZM16.1935 15.734V15.1756H14.2503V15.734H14.8943V17.5H15.5491V15.734H16.1935ZM17.1915 17.1992C17.4491 17.548 17.7767 17.5748 17.9375 17.5748C18.2811 17.5748 18.5495 17.4404 18.7267 17.2744C18.8607 17.1456 19.0915 16.8612 19.0915 16.3352C19.0915 15.8736 18.9143 15.5836 18.7427 15.412C18.4799 15.1492 18.1523 15.1008 17.9483 15.1008C17.5187 15.1008 17.2935 15.3316 17.1915 15.4764V15.176H16.5367V18.7292H17.1915V17.1992ZM17.7715 15.6804C17.9271 15.6804 18.0991 15.7392 18.2171 15.8468C18.3459 15.9704 18.4155 16.1636 18.4155 16.3352C18.4155 16.5068 18.3511 16.7 18.2115 16.8292C18.1255 16.9096 17.9859 16.9956 17.7715 16.9956C17.5571 16.9956 17.4279 16.9152 17.3419 16.84C17.2131 16.7272 17.1271 16.55 17.1271 16.3356C17.1271 16.1212 17.2023 15.96 17.3471 15.8364C17.4655 15.7284 17.5995 15.6804 17.7715 15.6804ZM19.3019 18.7292H20.0427L21.9159 15.176H21.1751L20.5311 16.4964L19.8119 15.176H19.0499L20.1555 17.1512L19.3019 18.7292ZM21.7863 17.5H22.4411L22.6343 16.2388L23.2139 17.5H23.4499L24.0295 16.2388L24.2227 17.5H24.8775L24.4535 15.176H23.9703L23.3315 16.5124L22.6927 15.176H22.2095L21.7863 17.5ZM26.8927 16.754C26.7855 16.942 26.5975 17.06 26.3507 17.06C26.1039 17.06 25.9535 16.9364 25.8839 16.84C25.8087 16.738 25.7711 16.5876 25.7711 16.448H27.5103V16.3944C27.5103 16.142 27.4783 15.7772 27.2311 15.482C27.0703 15.2888 26.7963 15.1008 26.3239 15.1008C26.0447 15.1008 25.7227 15.16 25.4491 15.4284C25.2827 15.5948 25.0947 15.8792 25.0947 16.3408C25.0947 16.706 25.2019 17.0064 25.4595 17.248C25.6903 17.468 25.9747 17.5756 26.3507 17.5756C27.1611 17.5756 27.4243 17.0228 27.4939 16.8508L26.8927 16.754ZM25.7923 16.0292C25.8459 15.718 26.0983 15.5624 26.3399 15.5624C26.5815 15.5624 26.8391 15.7128 26.8927 16.0292H25.7923ZM27.9327 17.5H28.5875V16.5552H29.4999V17.5H30.1547V15.176H29.4999V15.9972H28.5875V15.176H27.9327V17.5ZM32.4411 15.734V15.1756H30.4983V15.734H31.1423V17.5H31.7971V15.734H32.4411ZM33.4395 16.9844V16.5176H33.7615C33.8203 16.5176 33.9171 16.5228 33.9871 16.5712C34.0299 16.598 34.0731 16.6516 34.0731 16.7376C34.0731 16.8288 34.0299 16.8932 33.9871 16.9256C33.9175 16.9792 33.8155 16.9844 33.7455 16.9844H33.4395ZM34.9963 15.1756V17.4996H35.6511V15.1756H34.9963Z" fill="#D51317"/>
<path fill-rule="evenodd" clip-rule="evenodd" d="M35.2907 13.0768C36.5259 13.0768 37.5275 12.0752 37.5275 10.84C37.5275 9.6048 36.5259 8.6032 35.2907 8.6032C34.0555 8.6032 33.0539 9.6048 33.0539 10.84C33.0539 12.0752 34.0555 13.0768 35.2907 13.0768ZM35.6475 12.0788H36.0659L37.1235 10.0728H36.7051L36.3415 10.8184L35.9355 10.0728H35.5051L36.1295 11.188L35.6475 12.0788ZM33.3871 11.188C33.3871 11.3212 33.4903 11.4244 33.6235 11.4244C33.7567 11.4244 33.8599 11.3212 33.8599 11.188C33.8599 11.0548 33.7567 10.9516 33.6235 10.9516C33.4903 10.9516 33.3871 11.0548 33.3871 11.188ZM34.4791 11.2152C34.6247 11.412 34.8095 11.4272 34.9003 11.4272C35.0943 11.4272 35.2459 11.3516 35.3459 11.2576C35.4215 11.1848 35.5519 11.0244 35.5519 10.7272C35.5519 10.4668 35.4519 10.3028 35.3551 10.206C35.2067 10.0576 35.0219 10.0304 34.9067 10.0304C34.6643 10.0304 34.5371 10.1608 34.4795 10.2424V10.0728H34.1099V12.0788H34.4795V11.2152H34.4791ZM34.8063 10.3576C34.8943 10.3576 34.9911 10.3908 35.0579 10.4516C35.1307 10.5212 35.1699 10.6304 35.1699 10.7272C35.1699 10.824 35.1335 10.9332 35.0547 11.006C35.0063 11.0516 34.9275 11.1 34.8063 11.1C34.6851 11.1 34.6123 11.0544 34.5639 11.012C34.4911 10.9484 34.4427 10.8484 34.4427 10.7272C34.4427 10.606 34.4851 10.5152 34.5671 10.4456C34.6335 10.3852 34.7095 10.3576 34.8063 10.3576Z" fill="#D51317"/>
<path d="M14.7019 8.8548V10.016C14.4503 9.7836 14.1407 9.6484 13.7339 9.6484C12.9499 9.6484 12.5531 10.2192 12.5531 10.8292C12.5531 11.5164 13.0659 12.0196 13.7727 12.0196C14.0339 12.0196 14.3823 11.942 14.7019 11.652V12.8036C14.4695 12.9196 14.1019 13.0648 13.6179 13.0648C12.9599 13.0648 12.3791 12.8132 12.0015 12.4552C11.6823 12.1552 11.3339 11.6324 11.3339 10.8488C11.3339 10.1132 11.6339 9.5228 12.0599 9.1456C12.5731 8.6908 13.1631 8.6036 13.5699 8.6036C14.0051 8.6036 14.3631 8.69 14.7019 8.8548ZM10.8311 11.1C10.8311 11.4772 10.7247 12.0096 10.2795 12.4064C9.79546 12.8324 9.20506 12.9292 8.64386 12.9292H6.47586V6.474H8.07266C8.43026 6.474 9.12746 6.474 9.65026 6.8804C10.0279 7.1708 10.2503 7.674 10.2503 8.216C10.2503 9.0484 9.69867 9.3872 9.52426 9.484C9.95026 9.5516 10.2019 9.7356 10.3663 9.8904C10.7539 10.258 10.8311 10.7612 10.8311 11.1ZM7.73426 9.1548H8.09226C8.28546 9.1548 9.06986 9.1352 9.06986 8.3128C9.06986 7.7224 8.61506 7.5 8.10226 7.5H7.73426V9.1548ZM9.53427 10.984C9.53427 10.7808 9.46666 10.4324 9.05986 10.2484C8.78906 10.1228 8.46946 10.1228 8.19866 10.1228H7.73426V11.9036H8.27626C8.50826 11.9036 8.85706 11.894 9.13746 11.7296C9.44746 11.5452 9.53427 11.2356 9.53427 10.984ZM16.5247 11.0324C16.5247 11.284 16.5923 11.5548 16.7279 11.7388C16.8535 11.9132 17.1151 12.1356 17.5699 12.1356C18.0247 12.1356 18.3539 11.9228 18.5475 11.584L19.6315 11.7584C19.5055 12.068 19.0315 13.0648 17.5699 13.0648C16.8923 13.0648 16.3795 12.8712 15.9635 12.4744C15.4991 12.0388 15.3055 11.4968 15.3055 10.8388C15.3055 10.0064 15.6443 9.4936 15.9443 9.1936C16.4379 8.7096 17.0187 8.6032 17.5219 8.6032C18.3735 8.6032 18.8671 8.942 19.1575 9.2904C19.6027 9.8228 19.6607 10.4808 19.6607 10.9356V11.0324H16.5247ZM18.5475 10.2772C18.4507 9.7064 17.9863 9.4352 17.5507 9.4352C17.1151 9.4352 16.6603 9.716 16.5635 10.2772H18.5475Z" fill="#D51317"/>
</svg>
