<svg xmlns="http://www.w3.org/2000/svg" width="152" height="24" viewBox="0 0 152 24" fill="none"><rect width="152" height="24" fill="none"/>
<path d="M33.8269 18.956H36.367V4.36573H32.6722C28.9564 4.36573 27.0041 6.27611 27.0041 9.08919C27.0041 11.3355 28.0747 12.658 29.9851 14.0226L26.6682 18.956H29.4183L33.1131 13.4348L31.8325 12.5741C30.279 11.5244 29.5233 10.7057 29.5233 8.94224C29.5233 7.38875 30.6149 6.33909 32.6932 6.33909H33.8269V18.956ZM82.804 19.1659C83.9586 19.1659 84.7773 18.956 85.3861 18.5151V16.4788C84.7563 16.9196 84.0006 17.1926 82.9509 17.1926C81.1665 17.1926 80.4317 15.807 80.4317 13.6237C80.4317 11.3355 81.3344 10.1598 82.9719 10.1598C83.9376 10.1598 84.8823 10.4957 85.3861 10.8106V8.69032C84.8613 8.39642 83.9376 8.18648 82.699 8.18648C79.508 8.18648 77.8496 10.4747 77.8496 13.6867C77.8496 17.2136 79.466 19.1659 82.804 19.1659ZM67.185 18.2422V16.2059C66.4083 16.7307 65.1067 17.1926 63.8891 17.1926C62.0627 17.1926 61.3699 16.3318 61.265 14.5684H67.29V13.2458C67.29 9.57203 65.6735 8.18648 63.1753 8.18648C60.1313 8.18648 58.6828 10.5167 58.6828 13.7077C58.6828 17.3815 60.4882 19.1659 63.6792 19.1659C65.2747 19.1659 66.4503 18.7461 67.185 18.2422ZM44.3025 8.39642V12.5741H40.9645V8.39642H38.4664V18.956H40.9645V14.5474H44.3025V18.956H46.8006V8.39642H44.3025ZM58.074 16.9826H56.9614V8.39642H49.6767V9.29913C49.6767 11.8813 49.5088 15.2192 48.6271 16.9826H47.8503V21.3702H50.1596V18.956H55.7647V21.3702H58.074V16.9826ZM75.1624 18.956H77.9965L73.9868 13.2668L77.5137 8.39642H74.9945L71.4676 13.2668V8.39642H68.9695V18.956H71.4676V13.7707L75.1624 18.956ZM63.1334 10.1598C64.3719 10.1598 64.7498 11.1885 64.7498 12.5111V12.721H61.265C61.3279 11.0416 61.9367 10.1598 63.1334 10.1598ZM54.4632 16.9826H50.9363C51.6291 15.3871 51.818 12.5111 51.818 10.6847V10.3698H54.4632V16.9826Z" fill="white"/>
<path d="M101.343 18.956L97.5013 4.36573H94.2894L90.4266 18.956H92.6099L93.4286 15.765H97.9002L98.6979 18.956H101.343ZM93.9325 13.7917L95.6749 7.03186L97.3964 13.7917H93.9325Z" fill="white"/>
<path d="M109.473 4.36573H106.975V8.20748C103.973 8.39642 101.979 10.2858 101.979 13.6237C101.979 16.9616 104.015 18.956 106.975 19.1449V22H109.473V19.1449C112.475 18.956 114.47 17.0246 114.47 13.6237C114.47 10.3278 112.433 8.39642 109.473 8.20748V4.36573ZM104.561 13.6237C104.561 11.3145 105.338 10.2858 106.975 10.1389V17.2136C105.359 17.0666 104.561 15.912 104.561 13.6237ZM111.887 13.6237C111.887 15.9959 111.111 17.0666 109.473 17.2136V10.1389C111.09 10.2858 111.887 11.3774 111.887 13.6237Z" fill="white"/>
<path d="M116.155 8.39642V18.956H118.317L122.18 12.4271V18.956H124.615V8.39642H122.453L118.59 14.9253V8.39642H116.155Z" fill="white"/>
<path d="M126.713 18.956H139.666V8.39642H137.167V16.9826H134.438V8.39642H131.94V16.9826H129.211V8.39642H126.713V18.956Z" fill="white"/>
<path d="M149.654 11.7553C149.654 9.19416 148.353 8.22847 145.707 8.22847C144.049 8.22847 142.747 8.7533 141.992 9.19416V11.2725C142.663 10.7686 144.133 10.2228 145.414 10.2228C146.61 10.2228 147.156 10.6427 147.156 11.7763V12.3641H146.757C142.936 12.3641 141.236 13.6237 141.236 15.765C141.236 17.9063 142.537 19.1029 144.469 19.1029C145.938 19.1029 146.568 18.6201 147.051 18.1163H147.156C147.177 18.3892 147.261 18.7461 147.345 18.956H149.78C149.696 18.0953 149.654 17.2345 149.654 16.3738V11.7553ZM147.156 16.4368C146.841 16.8987 146.253 17.2765 145.372 17.2765C144.322 17.2765 143.797 16.6467 143.797 15.702C143.797 14.4634 144.658 14.0226 146.799 14.0226H147.156V16.4368Z" fill="white"/>
<path fill-rule="evenodd" clip-rule="evenodd" d="M14.2473 21.0371C17.3743 20.1833 19.8711 17.8024 20.8864 14.7456C21.1716 13.8887 21.3402 12.9785 21.3732 12.0338C21.3772 11.9196 21.3792 11.8048 21.3792 11.6896C21.3792 11.0441 21.316 10.4135 21.1954 9.80347C21.142 9.53334 21.0773 9.26725 21.0019 9.00572C20.2739 6.47459 18.5419 4.3685 16.2648 3.14629C15.1264 2.53533 13.8519 2.14523 12.4984 2.03331C12.2316 2.01125 11.9617 2 11.6892 2C6.33799 2 2 6.33799 2 11.6892C2 13.4479 2.46857 15.0971 3.28767 16.5189C3.66239 17.1693 4.11047 17.7722 4.62061 18.3161C5.24761 18.9846 5.96836 19.5641 6.76188 20.0337C7.38948 20.4051 8.0626 20.7077 8.77085 20.9311C9.69181 21.2217 10.6722 21.3783 11.6892 21.3783C11.7949 21.3783 11.9003 21.3766 12.0053 21.3733C12.779 21.3485 13.5297 21.233 14.2473 21.0371ZM8.7783 20.9078C8.07033 20.6829 7.3977 20.3787 6.77082 20.0057L7.6742 17.171L4.65418 18.3035C4.14408 17.7596 3.69615 17.1567 3.32173 16.5061L8.5056 14.5622L12.4929 2.05063C13.8478 2.15932 15.1239 2.54728 16.2636 3.1569L15.2632 12.0281L21.1954 9.80347C21.316 10.4135 21.3792 11.0441 21.3792 11.6896C21.3792 11.8048 21.3772 11.9196 21.3732 12.0338L14.9927 14.4265L14.2489 21.0228C13.5314 21.2176 12.7808 21.3319 12.0073 21.3553L12.6913 15.2896L10.2807 16.1936L8.7783 20.9078ZM11.1121 13.5847L13.8536 4.98208L12.9618 12.8911L11.1121 13.5847Z" fill="white"/>
</svg>
