<svg xmlns="http://www.w3.org/2000/svg" width="24" height="24" viewBox="0 0 24 24" fill="none"><rect width="24" height="24" fill="none"/>
<path d="M18.9589 2H16.0892V3.1976L16.1097 16.8902C16.1097 17.0898 16.0892 17.2695 16.0892 17.4291C16.0688 17.5689 16.0483 17.7285 16.0483 17.8483C15.9253 18.6866 15.6588 19.0259 15.0644 19.1457C15.0234 19.1657 14.9209 19.1657 14.9209 19.1657C14.8799 19.1657 14.8184 19.1856 14.7569 19.1856C14.7159 19.1856 14.4084 19.1856 14.4084 19.1856H12.0512C12.0512 19.1856 13.404 19.006 13.404 18.3074V2H10.5343V19.1856H6.51678C6.51678 19.1856 7.86963 19.1856 7.86963 18.3074V2H4.99994V22H14.8389C14.9209 22 14.9824 22 15.0644 22C17.975 21.8603 18.7335 19.8643 18.9384 17.6687C18.9589 17.3892 18.9794 17.0898 18.9999 16.7904L18.9589 2Z" fill="#1F2328"/>
</svg>
