<svg xmlns="http://www.w3.org/2000/svg" width="16" height="16" viewBox="0 0 16 16" fill="none"><rect width="16" height="16" fill="none"/>
<g clip-path="url(#clip0_10859_73)">
<path fill-rule="evenodd" clip-rule="evenodd" d="M10.9501 3.8322C11.1339 3.96445 11.3095 4.10528 11.4767 4.25478C11.5313 3.90161 11.5417 2.82346 10.5581 1.61098C9.591 0.418853 7.40081 0.143337 6.36347 0.201655C5.81923 0.257915 5.28862 0.375035 4.77887 0.568761C4.27803 0.759126 3.80985 1.01159 3.37763 1.32491C2.2784 2.12174 1.74063 3.44539 1.62275 3.8759C2.09241 3.58751 3.27526 2.94036 4.24934 2.65888C5.33981 2.33759 6.44824 2.23427 7.57647 2.40995C8.82396 2.60421 9.9382 3.10418 10.9501 3.8322Z" fill="#000000"/>
<path d="M5.25277 6.71838C4.60833 6.66848 3.97805 6.74757 3.37391 6.97933C2.84199 7.18351 2.39413 7.48652 2.05746 7.91543C1.83242 7.58627 1.2628 6.95159 1.2628 6.0501C1.30952 5.10285 1.87399 4.57594 2.2784 4.41611C2.59907 4.28937 3.56059 4.17719 4.53671 4.53107C5.81967 4.99618 6.09728 5.99799 6.29486 6.71101C6.3159 6.78694 6.33603 6.85958 6.35638 6.92796C6.00504 6.80532 5.63273 6.74773 5.25277 6.71838Z" fill="#000000"/>
<path d="M3.27919 3.9451C3.87459 3.79922 4.90953 3.78322 5.72225 3.97128C6.54059 4.16058 7.27871 4.50823 7.91407 5.04571C8.79222 5.78851 9.39952 6.69171 9.66116 7.79097C9.42993 8.06078 8.61596 8.68863 7.2099 9.04153C7.25719 8.77715 7.28751 8.51073 7.28052 8.24015C7.25946 7.42686 7.10843 6.63939 6.75262 5.89881C6.2732 4.90117 5.49914 4.24727 4.37346 4.03922C3.6771 3.91042 3.00761 4.03426 2.36789 4.32229C2.36789 4.32229 2.68378 4.09097 3.27919 3.9451Z" fill="#000000"/>
<path d="M8.81418 0.0528983C9.77984 0.162154 10.6863 0.469365 11.5417 0.919623C12.4327 1.38846 13.2403 1.96167 13.9027 2.71517C14.8155 3.75333 15.374 4.95036 15.5841 6.30149C15.6135 6.49044 15.6309 6.68116 15.654 6.87099V7.79097C15.6494 7.81698 15.6423 7.84281 15.6405 7.86899C15.6226 8.13402 15.5888 8.39709 15.5352 8.65734C15.2313 10.1318 14.5205 11.3895 13.4124 12.4353C12.6721 13.1339 11.8193 13.6601 10.8562 14.015C10.1239 14.285 9.36622 14.4344 8.58237 14.4679C8.21857 14.4833 7.85732 14.4645 7.49535 14.4422C7.41384 14.4373 7.35158 14.4589 7.28713 14.505C6.27455 15.2302 5.14069 15.6775 3.90918 15.9006C3.65667 15.9462 3.40053 15.9651 3.14638 16H2.78332C2.71688 15.9 2.71942 15.8712 2.81781 15.784C2.94996 15.6672 3.08847 15.5572 3.21845 15.4383C3.74507 14.9571 4.20199 14.4148 4.65746 13.8713C4.72117 13.7952 4.71881 13.7944 4.62079 13.7528C3.51616 13.285 2.54968 12.6318 1.78071 11.7205C1.04188 10.8449 0.591677 9.84553 0.455527 8.71608C0.436466 8.55544 0.421944 8.39426 0.405243 8.23327V7.38406C0.410689 7.35522 0.417769 7.32674 0.421218 7.29772C0.535583 6.30874 0.897559 5.43583 1.67561 4.75858C1.67561 4.75858 1.31562 5.16548 1.16895 5.47528C0.986691 5.86026 0.903186 6.26505 0.934591 6.68788C0.978522 7.27897 1.15043 7.82901 1.52512 8.30545C1.82029 8.68087 2.19933 8.96288 2.61358 9.20154C3.09846 9.4809 3.63071 9.63765 4.17585 9.75654C4.85278 9.90426 5.53516 9.97715 6.22934 9.89719C6.73564 9.8388 7.22795 9.71797 7.7219 9.60102C8.75137 9.35723 9.63017 8.85478 10.3837 8.13738C10.9717 7.57761 11.4742 6.95379 11.8541 6.24028C12.1811 5.62637 12.3782 4.9815 12.3706 4.2825C12.3653 3.80075 12.254 3.34235 12.0876 2.89315C11.8144 2.15611 11.3896 1.52256 10.7488 1.03816C10.2606 0.669283 9.70787 0.430443 9.11298 0.280416C8.2086 0.0523336 6.73305 0.0803293 6.73305 0.0803293C7.01924 0.0316883 7.83778 -0.0575729 8.81418 0.0528983Z" fill="#000000"/>
</g>
<defs>
<clipPath id="clip0_10859_73">
<rect width="16" height="16" fill="white"/>
</clipPath>
</defs>
</svg>
