<svg xmlns="http://www.w3.org/2000/svg" width="66" height="24" viewBox="0 0 66 24" fill="none"><rect width="66" height="24" fill="none"/>
<path fill-rule="evenodd" clip-rule="evenodd" d="M38.5318 12.6734C36.7107 13.059 35.3943 14.4786 35.1636 16.3054C35.052 17.1888 35.2605 18.2038 35.7118 18.9735C35.8121 19.1445 36.1219 19.5129 36.4004 19.7923C36.8295 20.2228 36.9838 20.3386 37.4129 20.552C38.1529 20.9201 38.4654 20.9895 39.3843 20.9895C40.0458 20.9895 40.2139 20.9715 40.5541 20.8647C42.0053 20.409 43.0373 19.3675 43.4427 17.9493C43.6014 17.3942 43.6136 16.2761 43.4667 15.741C43.0667 14.2834 41.9072 13.1166 40.4765 12.7317C40.0334 12.6125 38.9698 12.5806 38.5318 12.6734ZM41.5632 15.6537C41.2674 15.0259 40.5955 14.5116 39.8745 14.3613C38.6602 14.108 37.4913 14.7537 37.039 15.9275C36.8619 16.3871 36.8586 17.1689 37.0316 17.6726C37.3542 18.6119 38.1806 19.2315 39.1978 19.2968C41.1474 19.4221 42.4174 17.4662 41.5632 15.6537Z" fill="#FFB903"/>
<path d="M34.0198 12.7307C33.3266 12.8814 32.7992 13.2176 32.4605 13.7249L32.2446 14.0481V13.4293V12.8104H31.3655H30.4864V16.8067V20.803H31.3624H32.2385L32.2564 18.4718C32.2723 16.4049 32.2849 16.1135 32.3677 15.9009C32.6823 15.0929 33.3281 14.6419 34.256 14.5821L34.6955 14.5538V13.6022V12.6506L34.5224 12.6548C34.4271 12.6572 34.201 12.6913 34.0198 12.7307Z" fill="#FFB903"/>
<path fill-rule="evenodd" clip-rule="evenodd" d="M24.1193 12.6852C23.5357 12.809 23.0239 13.0827 22.5702 13.5138L22.1745 13.8897V13.3501V12.8104H21.2954H20.4163V18.4052V24H21.2954H22.1745V21.8749V19.7499L22.5149 20.0837C23.1841 20.7398 24.0631 21.0496 25.1235 21.003C26.1749 20.9568 26.9285 20.6247 27.6933 19.8705C28.2043 19.3667 28.4967 18.8947 28.7332 18.1921C28.8788 17.7596 28.9073 17.5873 28.9294 17.0084C28.9512 16.4354 28.9369 16.2519 28.8368 15.8187C28.3269 13.6119 26.2506 12.2328 24.1193 12.6852ZM27.1073 16.1277C26.8809 15.2772 26.2946 14.659 25.4713 14.4028C25.0216 14.2628 24.2814 14.2687 23.8529 14.4156C22.8208 14.7693 22.2005 15.6796 22.2053 16.8334C22.2108 18.1608 23.0472 19.1351 24.3381 19.3177C25.6101 19.4976 26.7861 18.7343 27.1013 17.5242C27.2028 17.1345 27.2055 16.4967 27.1073 16.1277Z" fill="#FFB903"/>
<path d="M2 15.2215C2.00149 15.3476 2.61257 16.4333 2.95362 16.9158C3.35712 17.4865 4.1031 18.2889 4.63202 18.7211C5.85268 19.7186 7.43918 20.4464 9.00568 20.7277C9.84017 20.8775 11.2882 20.8664 12.0161 20.7045C12.5884 20.5772 13.2799 20.3342 13.7558 20.093C14.6211 19.6546 15.7054 18.7297 16.2405 17.9739C16.5059 17.5989 16.9701 16.8107 16.9708 16.7338C16.9719 16.5983 15.2885 16.8651 14.6143 17.1073C13.0056 17.6852 11.4741 19.0047 10.7732 20.4167C10.6823 20.5999 10.5951 20.7491 10.5793 20.7483C10.5637 20.7475 10.4632 20.5616 10.3561 20.3353C10.2489 20.109 10.0117 19.696 9.82898 19.4176C8.31596 17.1132 6.01945 15.6392 3.31716 15.2379C2.6236 15.1349 1.99894 15.1272 2 15.2215Z" fill="#00BE64"/>
<path fill-rule="evenodd" clip-rule="evenodd" d="M29.8649 4.92448C30.2673 3.46734 31.4181 2.41179 32.9639 2.08212C33.405 1.98808 34.5227 1.97097 35.0152 2.05079C36.422 2.27874 37.3103 3.02498 37.48 4.12134C37.6758 5.38634 36.8436 6.43299 35.3083 6.85271C34.6737 7.0262 33.2959 7.02604 32.5197 6.85239C32.2168 6.78466 31.9338 6.71571 31.8909 6.6993C31.7822 6.65758 31.8373 6.88457 32.0383 7.30668C32.3924 8.05026 33.1721 8.42383 34.2693 8.37561C34.867 8.34939 35.4066 8.17979 35.8063 7.89264L36.0664 7.70578L36.6978 8.33889L37.3292 8.97195L37.1446 9.16351C36.671 9.65489 35.8121 10.071 35.0031 10.2009C34.4308 10.2929 33.3506 10.2421 32.8069 10.0978C31.9479 9.86978 31.11 9.3549 30.6038 8.74406C30.3245 8.40704 29.9865 7.73583 29.8609 7.26896C29.7284 6.77625 29.7307 5.41048 29.8649 4.92448ZM54.6704 5.00441C55.0457 3.56857 56.1717 2.3949 57.4766 2.07925C57.9014 1.97651 58.825 1.97502 59.2552 2.07642C59.714 2.18459 60.1914 2.42612 60.5275 2.72009L60.8032 2.96125V2.58416V2.20702H61.8421H62.8811V5.11364V5.25463C62.881 7.79835 62.881 8.18636 63.0659 8.3217C63.0992 8.34606 63.1385 8.36224 63.1848 8.38132L63.1991 8.38722C63.358 8.45303 63.7152 8.44002 63.9068 8.36143C63.9933 8.326 64 8.38488 64 9.1772V10.0311L63.7203 10.1287C63.5047 10.2038 63.2818 10.2262 62.7479 10.2262C62.0965 10.2262 62.0371 10.2173 61.7503 10.0764C61.4151 9.91182 61.1054 9.59047 61.0135 9.3119L60.9543 9.13245L60.6156 9.44277C60.2277 9.79822 59.735 10.0577 59.2172 10.179C58.7196 10.2957 57.7109 10.2562 57.2333 10.1015C56.0189 9.70796 55.0339 8.60845 54.6719 7.24232C54.5136 6.64506 54.5129 5.60672 54.6704 5.00441ZM22.0132 4.62652C22.014 4.09635 22.0304 3.33503 22.0496 2.93477L22.0845 2.20702H25.3264H28.5682V6.12453V10.042L27.5426 10.0276L26.5169 10.0131L26.5031 7.09579L26.4894 4.17851H25.2754H24.0615L23.9964 5.60385C23.9258 7.15099 23.8528 7.681 23.6112 8.40219C23.2882 9.36636 22.8474 9.81884 21.9875 10.0688C21.6249 10.1742 20.7919 10.1932 20.5628 10.1012L20.4163 10.0424V9.21514V8.38791L20.8026 8.3877C21.2648 8.38749 21.4786 8.28135 21.6352 7.97438C21.8769 7.50069 22.0104 6.31779 22.0132 4.62652ZM38.6916 10.0397V6.12336V2.20702H39.7039H40.7163V3.64568V5.08433H42.4745H44.2328V3.64568V2.20702H45.2451H46.2575V6.12336V10.0397H45.2451H44.2328V8.52112V7.00254H42.4745H40.7163V8.52112V10.0397H39.7039H38.6916ZM47.1899 4.15187L47.1753 3.17944L47.1609 2.20702H50.7052H54.2496V3.19277V4.17851H52.9975H51.7454V7.10911V10.0397H50.7331H49.7207V7.11007V4.18043L48.4553 4.16615L47.1899 4.15187ZM35.021 5.20603C35.4841 4.7876 35.2964 4.13658 34.6504 3.92041C34.042 3.71686 33.1418 3.85279 32.5919 4.23116C32.2102 4.49374 31.7653 5.25207 31.9323 5.35533C32.1077 5.46376 33.0105 5.59047 33.6033 5.58994C34.3529 5.58919 34.7012 5.49488 35.021 5.20603ZM60.2185 4.53061C59.8531 4.18197 59.5862 4.04829 59.0978 3.96905C58.7107 3.90623 58.7018 3.90623 58.3128 3.97108C57.8875 4.042 57.5591 4.22066 57.202 4.57553C56.7429 5.03174 56.6258 5.34633 56.6258 6.12336C56.6258 6.60851 56.6468 6.7626 56.7476 7.01773C56.9179 7.44868 57.3498 7.9025 57.7778 8.10013C58.0883 8.24352 58.1587 8.2547 58.7518 8.2547C59.3466 8.2547 59.4127 8.24415 59.7001 8.10311C60.5458 7.68809 60.9973 6.77102 60.8539 5.75954C60.7819 5.25164 60.5946 4.88931 60.2185 4.53061Z" fill="#003D95"/>
<path fill-rule="evenodd" clip-rule="evenodd" d="M9.75162 2.19045C7.05305 2.5402 4.77567 4.39356 3.92616 6.93119C3.65608 7.73791 3.57504 8.26222 3.57754 9.18717C3.57925 9.8278 3.60589 10.1354 3.69609 10.5584C3.98823 11.9273 4.58034 13.0382 5.55197 14.0401C6.91995 15.4508 8.61237 16.1665 10.5814 16.1671C12.4205 16.1677 14.0592 15.5171 15.3764 14.2637C17.2504 12.4801 17.9995 9.92893 17.3737 7.46152C16.5727 4.30399 13.7325 2.11702 10.4907 2.16173C10.1721 2.1661 9.83953 2.17905 9.75162 2.19045ZM13.6323 7.51939C13.2264 6.73415 12.3269 6.02388 11.4605 5.80457C10.7641 5.6283 10.0485 5.66134 9.39085 5.90005C8.84947 6.09661 8.47447 6.34758 8.04961 6.79782C7.36123 7.52733 7.08651 8.27927 7.12791 9.32038C7.16584 10.2726 7.46145 10.9627 8.11094 11.6152C8.73102 12.2381 9.50557 12.5847 10.3884 12.6342C11.0089 12.6689 11.5328 12.5607 12.096 12.2813C13.8822 11.395 14.556 9.30647 13.6323 7.51939Z" fill="#FFB903"/>
</svg>
