<svg xmlns="http://www.w3.org/2000/svg" width="111" height="24" viewBox="0 0 111 24" fill="none"><rect width="111" height="24" fill="none"/>
<path fill-rule="evenodd" clip-rule="evenodd" d="M2.05172 16.8395L2.12586 16.4823L9.71931 16.4802L10.8293 10.7519C10.8958 10.3878 11.1294 10.3761 11.1896 10.7519L11.7065 15.3733C11.8056 16.0478 12.0855 16.4823 13.0875 16.4823C13.1318 16.4823 13.3064 16.4816 13.348 16.4802C14.2377 16.4437 14.5509 16.0168 14.9216 15.374L16.834 11.7823L15.1433 20.0292C14.8578 21.4175 13.4679 22.2802 12.1008 21.9168L3.83247 19.7209C2.56655 19.3802 1.78634 18.1175 2.05172 16.8395ZM7.43206 13.7237H2.69057L2.47924 14.7581H7.21449L7.43206 13.7237ZM2.83262 13.034L2.97397 12.3443H7.72169L7.54431 13.1892V13.034H2.83262ZM8.01201 10.965H3.25667L3.11532 11.6547H7.8672L8.01201 10.965ZM3.39802 10.2754L3.53937 9.58572H8.30234L8.15683 10.2754H3.39802ZM8.73678 8.20641H3.82207L3.68072 8.89607H8.44785L8.45478 8.86366C8.51159 8.59538 8.61068 8.38021 8.73678 8.20641ZM7.73347 2.08296C6.36639 1.7202 4.97574 2.58296 4.69166 3.97055L3.96342 7.51676H10.3159V7.51814L10.4198 7.51676L11.3372 7.51814C12.1618 7.5409 12.7577 7.84297 12.9032 8.80159L13.3605 13.0506C13.4492 13.8795 13.6723 13.9078 14.1254 13.0506C14.5786 12.1933 16.2949 8.8009 16.2949 8.8009C16.6725 8.14159 17.1513 7.78917 17.6862 7.62848L17.7818 7.16021C18.0465 5.88228 17.2663 4.62021 16.0011 4.27952L7.73347 2.08296Z" fill="#0D9A39"/>
<path fill-rule="evenodd" clip-rule="evenodd" d="M109 9.16049H107.911L106.677 15.0349C106.599 15.387 106.444 15.4771 106.184 15.4771H104.23C103.414 15.4771 103.116 15.0997 103.116 14.4883C103.116 14.319 103.141 14.1368 103.18 13.9287L104.182 9.16049H103.094L102.054 14.1246C102.015 14.332 101.989 14.5272 101.989 14.7094C101.989 15.7896 102.753 16.3621 104.022 16.3621H106.431C107.312 16.3621 107.571 15.9588 107.727 15.23L109 9.16049ZM97.4562 16.3621H98.5433L99.4813 11.9194C99.7529 10.657 100.323 10.0456 101.514 10.0456H102.071L102.252 9.16049H101.501C99.6748 9.16049 98.807 9.94115 98.4451 11.6465L97.4562 16.3621ZM96.2007 16.3621L96.4988 14.9564H95.3193L95.0212 16.3629L96.2007 16.3621ZM89.7161 10.4496C89.7806 10.1363 89.949 10.0456 90.2077 10.0456H91.7105C92.8506 10.0456 93.1867 10.5403 93.1867 11.3469C93.1795 11.7639 93.1279 12.178 93.0319 12.5834C92.665 14.3838 92.2106 15.4771 90.566 15.4771H88.662L89.7161 10.4496ZM88.4685 16.3621H90.566C92.8972 16.3621 93.6618 15.1645 94.1713 12.7145C94.2695 12.2781 94.3218 11.833 94.3261 11.3858C94.3261 10.0067 93.6661 9.16049 91.957 9.16049H90.0264C89.2231 9.16049 88.8347 9.46008 88.667 10.2407L86.9271 18.5745H88.002L88.4685 16.3621ZM87.4237 9.16049H86.3359L85.1005 15.0349C85.0238 15.387 84.8676 15.4771 84.6096 15.4771H82.6533C81.8378 15.4771 81.5397 15.0997 81.5397 14.4883C81.5397 14.319 81.5662 14.1368 81.6049 13.9287L82.606 9.16049H81.5175L80.4777 14.1246C80.439 14.3169 80.416 14.5128 80.4125 14.7094C80.4125 15.7896 81.1771 16.3621 82.4462 16.3621H84.8554C85.7354 16.3621 85.9941 15.9588 86.1496 15.23L87.4237 9.16049ZM73.5624 12.8873C73.9766 10.935 74.81 9.96708 76.5586 9.96708C77.918 9.96708 78.5271 10.3704 78.5271 11.4773C78.5271 11.7898 78.4181 12.4574 78.3279 12.8873C77.9137 14.839 77.1361 15.5548 75.3883 15.5548C74.0282 15.5548 73.4198 15.1134 73.4198 13.9935C73.4198 13.681 73.4714 13.3166 73.5624 12.8873ZM76.6102 9.08272C74.1486 9.08272 72.9791 10.1543 72.423 12.757C72.3292 13.1711 72.2811 13.5945 72.2804 14.0194C72.2804 15.7241 73.3037 16.4399 75.3238 16.4399C77.784 16.4399 78.9112 15.6333 79.468 13.017C79.5712 12.5489 79.6658 11.8287 79.6658 11.4643C79.6658 9.77191 78.6303 9.08272 76.6102 9.08272ZM67.8117 16.3621H68.9002L69.8368 11.9194C70.1091 10.657 70.6781 10.0456 71.8698 10.0456H72.4273L72.6086 9.16049H71.8569C70.031 9.16049 69.1625 9.94115 68.7999 11.6465L67.8117 16.3621ZM65.429 15.4771H63.3952C62.23 15.4771 61.9111 14.731 61.9111 13.8862C61.9111 13.5333 61.9756 13.1048 62.0788 12.6094C62.4156 10.9825 62.895 10.0456 64.5404 10.0456H66.0804C66.3663 10.0456 66.4824 10.15 66.4824 10.3581C66.4824 10.41 66.4824 10.4618 66.4688 10.5137L65.429 15.4771ZM65.2211 16.3621C64.9238 17.325 64.1211 17.716 63.2017 17.716H60.3403L60.159 18.6004H63.0212C65.3 18.6004 66.0381 17.7153 66.4659 15.6981L67.5974 10.3581C67.6232 10.2407 67.6354 10.1363 67.6354 10.0456C67.6354 9.38158 67.0535 9.16049 66.1076 9.16049H64.5146C62.119 9.16049 61.393 10.3322 60.9401 12.479C60.837 12.9867 60.771 13.4556 60.771 13.8718C60.771 15.2516 61.3765 16.3621 63.1243 16.3621H65.2211ZM57.6366 13.156L57.36 14.5012C57.2833 14.826 57.1271 14.9564 56.8039 14.9564H55.0819C54.758 14.9564 54.6025 14.7742 54.6025 14.4753C54.6025 14.3709 54.6842 13.8718 54.7236 13.7285C54.8519 13.2604 55.0862 13.156 55.4746 13.156H57.6366ZM54.1403 9.16049L53.83 10.6181H57.2998C57.7663 10.6181 58.025 10.827 58.025 11.2166C58.025 11.2951 58.0128 11.3606 57.9999 11.4513L57.9347 11.7502H54.8139C53.5827 11.7502 52.8719 12.2709 52.6512 13.5866C52.6117 13.8459 52.5301 14.4487 52.5301 14.6705C52.5301 15.6981 53.0876 16.3621 54.0973 16.3621H57.6846C58.6563 16.3621 59.0834 15.9063 59.2647 15.0608L60.0329 11.3469C60.0673 11.1712 60.0845 10.9926 60.0845 10.814C60.0845 9.87634 59.5284 9.16049 58.3747 9.16049H54.1403ZM49.3576 14.8656H47.8685C47.0659 14.8656 46.8459 14.4235 46.8459 13.8372C46.8459 13.5506 46.9534 12.9349 47.0179 12.6094C47.2515 11.5421 47.5625 10.6577 48.7801 10.6577H49.7253C50.0363 10.6577 50.1645 10.7355 50.1645 10.9695C50.1645 11.0344 50.1524 11.0992 50.1395 11.1784L49.3576 14.8656ZM48.4941 9.16049C46.163 9.16049 45.3991 10.2667 44.9591 12.3494C44.8688 12.7656 44.7735 13.4728 44.7735 13.8502C44.7735 15.3337 45.3561 16.3621 47.1175 16.3621H49.0474C48.775 17.0391 48.219 17.2335 47.5582 17.2335H44.4618L44.1522 18.6667H47.5962C49.7984 18.6667 50.7307 17.8983 51.1843 15.7774L52.3022 10.4626C52.328 10.3459 52.3409 10.2415 52.3409 10.137C52.3409 9.57747 51.9912 9.16121 51.2789 9.16121L48.4941 9.16049ZM39.26 11.8806C39.4807 10.8651 39.9465 10.5403 40.9956 10.5403C41.5782 10.5403 42.2647 10.7225 42.2647 11.2821C42.2647 11.334 42.2511 11.3988 42.2382 11.4643C42.2002 11.6335 42.1343 11.8806 41.7731 11.8806H39.26ZM43.0379 16.3621L43.3482 14.9052H40.0074C39.1396 14.9052 38.8544 14.6179 38.8544 14.0843C38.8544 13.9417 38.9232 13.4685 38.9619 13.2863H42.8337C43.6764 13.2863 44.039 12.896 44.2067 12.1146C44.2841 11.7632 44.3364 11.4377 44.3364 11.1647C44.3364 9.53786 43.1067 9.08272 41.1762 9.08272C38.509 9.08272 37.6935 9.44712 37.0707 12.1931C36.9288 12.8175 36.7827 13.7847 36.7827 14.2535C36.7827 15.6859 37.495 16.3621 39.1525 16.3621H43.0379ZM33.7328 9.92819C33.836 9.74599 33.9263 9.61564 33.9915 9.61564C34.0424 9.61564 34.0825 9.66821 34.0825 9.77191C34.0825 9.81152 34.0825 9.85041 34.0689 9.90226L32.6572 16.2145H34.989L36.6465 8.40576C36.6723 8.28837 36.6845 8.17171 36.6845 8.05432C36.6845 7.48179 36.2323 7 34.989 7C34.0954 7 33.2785 7.31255 32.6959 8.34023L29.7305 13.5989C29.6402 13.7681 29.5234 13.9762 29.4203 13.9762C29.3163 13.9762 29.264 13.7674 29.2389 13.5989L28.4614 8.34023C28.3059 7.29959 27.6459 7 26.7394 7C26.0529 7 24.9644 7.1822 24.7057 8.40576L23.0482 16.2145H25.3793L26.6484 9.90226C26.6613 9.83745 26.7122 9.61636 26.8426 9.61636C26.92 9.61636 26.9465 9.77191 26.9716 9.92819L27.724 15.1602C27.8272 15.8638 27.9698 16.3189 29.0053 16.3189C30.0286 16.3189 30.3655 15.8638 30.7668 15.1602L33.7328 9.92819Z" fill="#15162E"/>
</svg>
