<svg xmlns="http://www.w3.org/2000/svg" width="24" height="24" viewBox="0 0 24 24" fill="none"><rect width="24" height="24" fill="none"/>
<path d="M2 16.4443L6.9422 16.4443C9.56264 16.4443 11.1417 15.1087 11.1417 12.9144V12.8971C11.1417 11.2492 10.0065 10.0263 8.25668 9.84419V9.8095C9.55405 9.6187 10.5357 8.3958 10.5357 7.0775V7.06016C10.5357 5.16944 9.10168 3.9292 6.91658 3.9292L2 3.9292L2 16.4443ZM6.45563 5.51636C7.83844 5.51636 8.63221 6.14949 8.63221 7.29433V7.31168C8.63221 8.56926 7.71894 9.2631 6.02886 9.2631H3.91204L3.91204 5.51636L6.45563 5.51636ZM6.42149 10.7635C8.24809 10.7635 9.18704 11.4574 9.18704 12.8017V12.819C9.18704 14.1547 8.26519 14.8572 6.5495 14.8572H3.91204L3.91204 10.7635H6.42149Z" fill="#212121"/>
<path fill-rule="evenodd" clip-rule="evenodd" d="M16.4243 7.18939C18.9693 6.69372 21.4277 8.38951 21.9153 10.977C22.4028 13.5646 20.7348 16.0639 18.1898 16.5596C17.1967 16.753 16.2168 16.6128 15.362 16.2161L12.5017 19.7531C12.201 20.1248 11.6609 20.1784 11.2954 19.8728C10.9297 19.5672 10.877 19.0181 11.1776 18.6463L13.9545 15.2125C13.3297 14.5651 12.8793 13.7296 12.6988 12.772C12.2113 10.1845 13.8793 7.68506 16.4243 7.18939ZM15.6418 14.3845C15.6371 14.3811 15.6323 14.3778 15.6275 14.3745C15.0007 13.9393 14.5365 13.2619 14.3824 12.4441C14.073 10.8019 15.1316 9.21561 16.7468 8.90103C18.362 8.58645 19.9223 9.6627 20.2317 11.3049C20.5411 12.9471 19.4825 14.5334 17.8673 14.848C17.0625 15.0047 16.2714 14.8162 15.6418 14.3845Z" fill="#212121"/>
</svg>
