<svg xmlns="http://www.w3.org/2000/svg" width="88" height="24" viewBox="0 0 88 24" fill="none"><rect width="88" height="24" fill="none"/>
<path fill-rule="evenodd" clip-rule="evenodd" d="M27.2991 14.4018C27.2874 14.3712 27.2638 14.3453 27.2332 14.3312C27.2026 14.3171 27.1673 14.3171 27.1366 14.3265C26.5903 14.529 25.6847 14.6938 24.9712 14.6938C23.4099 14.6938 22.6658 14.2723 22.6658 11.8781C22.6658 9.96406 22.8942 9.06238 24.9712 9.06238C25.5599 9.06238 26.2723 9.14714 26.9669 9.3496C27.0235 9.36608 27.0847 9.34019 27.1106 9.28839C27.3033 8.86431 27.5831 8.1784 27.7891 7.67356L27.8699 7.47562C27.8864 7.44266 27.8864 7.40499 27.8723 7.37203C27.8581 7.33907 27.8299 7.31318 27.7945 7.3014C26.8809 7.00948 25.7906 6.83997 24.8087 6.83997C21.5379 6.83997 20.0803 8.38201 20.0803 11.8428C20.0803 15.3529 21.5379 16.9185 24.8087 16.9185C25.6281 16.9185 27.2435 16.7467 28.023 16.4359C28.0842 16.41 28.1172 16.3394 28.0936 16.2782L27.2991 14.4018Z" fill="white"/>
<path fill-rule="evenodd" clip-rule="evenodd" d="M2 7.22104C2 7.15525 2.05312 7.10191 2.11865 7.10191L8.83571 7.10191C8.9196 7.10191 8.97636 7.18867 8.94377 7.2671L8.11194 9.26883C8.08997 9.3217 8.03973 9.34576 7.99203 9.341C7.98812 9.34139 7.98416 9.34159 7.98015 9.34159H4.51546V16.5371C4.51546 16.6029 4.46234 16.6563 4.39681 16.6563H2.11865C2.05312 16.6563 2 16.6029 2 16.5371V7.22104Z" fill="white"/>
<path fill-rule="evenodd" clip-rule="evenodd" d="M9.50677 11.8423C9.50677 8.24235 10.7519 6.83997 13.9495 6.83997C17.1728 6.83997 18.4295 8.24235 18.4295 11.8423C18.4295 15.4971 17.1728 16.9185 13.9495 16.9185C10.7519 16.9185 9.50677 15.4971 9.50677 11.8423ZM12.0388 11.8781C12.0388 14.4161 12.4927 14.8209 13.9495 14.8209C15.4343 14.8209 15.8975 14.4161 15.8975 11.8781C15.8975 9.17568 15.3924 8.9352 13.9495 8.9352C12.5345 8.9352 12.0388 9.17568 12.0388 11.8781Z" fill="white"/>
<path fill-rule="evenodd" clip-rule="evenodd" d="M46.4361 14.4016L47.2306 16.2779C47.2541 16.3391 47.2211 16.4097 47.1599 16.4356C46.3805 16.7464 44.7651 16.9183 43.9456 16.9183C40.6748 16.9183 39.2172 15.3527 39.2172 11.8425C39.2172 8.38176 40.6748 6.83972 43.9456 6.83972C44.9276 6.83972 46.0178 7.00923 46.9315 7.30115C46.9668 7.31293 46.9951 7.33882 47.0092 7.37178C47.0233 7.40474 47.0233 7.44241 47.0069 7.47537L46.9261 7.67331C46.7201 8.17815 46.4403 8.86406 46.2475 9.28814C46.2216 9.33994 46.1604 9.36583 46.1039 9.34935C45.4092 9.14689 44.6968 9.06213 44.1081 9.06213C42.0312 9.06213 41.8028 9.96381 41.8028 11.8778C41.8028 14.2721 42.5469 14.6935 44.1081 14.6935C44.8216 14.6935 45.7273 14.5287 46.2736 14.3262C46.3042 14.3168 46.3395 14.3168 46.3701 14.3309C46.4008 14.3451 46.4243 14.371 46.4361 14.4016Z" fill="#EE2F53"/>
<path fill-rule="evenodd" clip-rule="evenodd" d="M48.429 16.6559H50.7686C50.8183 16.6559 50.8657 16.6226 50.88 16.5749C51.2403 15.4384 51.5603 14.1589 51.8305 12.7484C52.0629 11.5442 52.2046 10.4031 52.2887 9.34125H54.5756V16.5368C54.5756 16.6026 54.6287 16.6559 54.6942 16.6559H56.9724C57.0379 16.6559 57.091 16.6026 57.091 16.5368V7.2207C57.091 7.15491 57.0379 7.10157 56.9724 7.10157H50.0195C49.9555 7.10157 49.9034 7.15161 49.901 7.21594C49.837 8.64314 49.6853 10.2419 49.3961 11.9764C49.114 13.6538 48.7063 15.1668 48.3152 16.5034C48.2939 16.5797 48.3507 16.6559 48.429 16.6559Z" fill="#EE2F53"/>
<path fill-rule="evenodd" clip-rule="evenodd" d="M69.6297 7.10157C69.5642 7.10157 69.5111 7.15491 69.5111 7.2207V16.5368C69.5111 16.6026 69.5642 16.6559 69.6297 16.6559H71.9079C71.9734 16.6559 72.0265 16.6026 72.0265 16.5368V9.34125H75.4912C75.4952 9.34125 75.4992 9.34105 75.5031 9.34066C75.5508 9.34542 75.601 9.32136 75.623 9.26849L76.4548 7.26676C76.4874 7.18833 76.4307 7.10157 76.3468 7.10157L69.6297 7.10157Z" fill="#EE2F53"/>
<path fill-rule="evenodd" clip-rule="evenodd" d="M29.1863 7.10168H31.493C31.5427 7.10168 31.5871 7.13253 31.6042 7.17893L33.9294 13.492C34.6837 11.6179 35.3344 9.67341 36.0402 7.1891C36.0547 7.13796 36.1016 7.10168 36.1547 7.10168H38.4418C38.5224 7.10168 38.579 7.18229 38.5541 7.2591C36.7209 13.0702 35.3801 16.3701 33.558 20.0928C33.5378 20.1328 33.4966 20.1585 33.4519 20.1585H30.9895C30.9006 20.1585 30.844 20.0628 30.8846 19.9836C31.5053 18.7739 32.0479 17.6886 32.5364 16.6576L29.075 7.25979C29.0467 7.18301 29.104 7.10168 29.1863 7.10168Z" fill="#EE2F53"/>
<path fill-rule="evenodd" clip-rule="evenodd" d="M58.5213 7.25968C58.493 7.1829 58.5502 7.10157 58.6325 7.10157H60.9392C60.9889 7.10157 61.0334 7.13242 61.0505 7.17882L63.3757 13.4919C64.13 11.6178 64.7807 9.6733 65.4864 7.18899C65.501 7.13785 65.5479 7.10157 65.6009 7.10157H67.888C67.9687 7.10157 68.0253 7.18218 68.0003 7.25899C66.1671 13.0701 64.8263 16.37 63.0043 20.0927C62.9841 20.1326 62.9429 20.1584 62.8981 20.1584H60.4357C60.3469 20.1584 60.2903 20.0627 60.3309 19.9835C60.9515 18.7738 61.4942 17.6885 61.9826 16.6574L58.5213 7.25968Z" fill="#EE2F53"/>
<path fill-rule="evenodd" clip-rule="evenodd" d="M83.6069 7.10157H85.8837C85.9501 7.10157 86.0023 7.15388 85.9999 7.22044V15.9908C85.9999 16.0431 85.9691 16.0907 85.9193 16.1073C84.8639 16.5115 83.0851 16.918 81.4913 16.918C78.7615 16.918 77.6562 15.7198 77.6017 12.66C77.5993 12.6529 77.5993 7.23471 77.5993 7.23471V7.22044C77.5993 7.15388 77.6515 7.10157 77.7179 7.10157H79.9947C80.0612 7.10157 80.1133 7.15388 80.1133 7.22044V12.6077C80.1655 14.2339 80.5663 14.6238 81.9467 14.6238C82.5016 14.6238 82.995 14.5572 83.4883 14.4193V7.22044C83.4883 7.15388 83.5405 7.10157 83.6069 7.10157Z" fill="#EE2F53"/>
</svg>
