<svg xmlns="http://www.w3.org/2000/svg" width="24" height="24" viewBox="0 0 24 24" fill="none"><rect width="24" height="24" fill="none"/>
<path fill-rule="evenodd" clip-rule="evenodd" d="M10.6069 6.54272C5.14794 7.74614 1.33793 10.9993 2.09548 13.8288C2.87467 16.6587 7.91099 17.9953 13.3923 16.8148C18.8513 15.6339 22.6616 12.3582 21.904 9.52871C21.1242 6.69887 16.066 5.36187 10.6069 6.54272ZM6.17301 9.28363C5.30415 9.28363 4.68018 9.70693 4.68018 10.8655V12.5352C4.68018 13.6938 5.30415 14.0949 6.17301 14.0949C7.06414 14.0949 7.66585 13.7161 7.66585 12.5352V10.8655C7.66585 9.6856 7.06445 9.28363 6.17301 9.28363ZM6.19528 13.3834C6.57405 13.3834 6.77473 13.1382 6.77473 12.6481V10.7542C6.77473 10.2641 6.57405 9.97439 6.19528 9.97439C5.79424 9.97439 5.59357 10.2641 5.59357 10.7542V12.6481C5.59357 13.1159 5.77198 13.3834 6.19528 13.3834ZM10.2507 13.9848H11.1196V9.37244H8.22296V13.9848H9.09183V10.0632H10.2507V13.9848ZM14.6399 10.0632H13.5481V13.9848H12.6793V10.0632H11.5875V9.37244H14.6399V10.0632ZM17.2249 13.9848H18.0492L18.0499 9.37244H17.0913L15.9324 12.4697V9.37244H15.1081V13.9848H16.0441L17.2249 10.9098V13.9848Z" fill="#3874B6"/>
</svg>
