<svg xmlns="http://www.w3.org/2000/svg" width="24" height="24" viewBox="0 0 24 24" fill="none"><rect width="24" height="24" fill="none"/>
<path d="M21.8835 8.64233H14.8724V12.412H17.0954V10.2895H18.0183L19.2797 12.4132H21.8095L20.3413 10.1093C21.0524 9.84505 21.6162 9.31068 21.8835 8.64233ZM21.2033 5.89677C20.7682 5.48389 20.1892 5.22998 19.5521 5.22998H14.769C14.779 5.42237 14.8058 5.60975 14.8471 5.79215C14.8567 5.83212 14.8658 5.87335 14.877 5.91301C14.8811 5.92925 14.8861 5.94549 14.8902 5.96205C15.2871 7.26346 16.4633 8.20759 17.8537 8.20759H21.9591C22.0347 7.78995 22.0052 7.36005 21.8733 6.95665C21.7413 6.55325 21.5111 6.18902 21.2033 5.89677ZM11.7914 12.4132H14.0026V5.22998H11.7914V12.4132ZM7.42178 6.17442L6.50045 9.47496H6.34273L5.42141 6.17442C5.26619 5.61538 4.77085 5.22998 4.20806 5.22998H2V12.4132H4.21056V8.16886H4.36859L5.63222 12.4132H7.21128L8.47491 8.16886H8.63294V12.4132H10.8438V5.23029H8.63575C8.07233 5.23029 7.57763 5.61538 7.42178 6.17442Z" fill="black"/>
<path d="M15.1486 16.3361C14.1085 16.1218 13.8705 15.8379 13.8705 15.3713V15.3591C13.8705 14.8989 14.2966 14.5267 14.9419 14.5267C15.4245 14.5267 15.8379 14.6654 16.2516 15.0249L16.4585 14.7663C16.0133 14.407 15.5937 14.2304 14.9545 14.2304C14.1397 14.2304 13.5446 14.7349 13.5446 15.3906V15.4033C13.5446 16.0714 13.9706 16.4307 15.0234 16.6453C16.0197 16.8468 16.264 17.118 16.264 17.5848V17.5973C16.264 18.1016 15.813 18.4737 15.1549 18.4737C14.5096 18.4737 14.0647 18.2654 13.5821 17.8179L13.3689 18.0641C13.8955 18.5368 14.4344 18.7702 15.1361 18.7702C15.9822 18.7702 16.5899 18.2785 16.5899 17.5657V17.5532C16.5899 16.91 16.164 16.5444 15.1486 16.3361ZM20.5589 16.3361C19.5188 16.1218 19.2806 15.8379 19.2806 15.3713V15.3591C19.2806 14.8989 19.7067 14.5267 20.3522 14.5267C20.8346 14.5267 21.2479 14.6654 21.6617 15.0249L21.8685 14.7663C21.4234 14.407 21.004 14.2304 20.3646 14.2304C19.55 14.2304 18.9547 14.7349 18.9547 15.3906V15.4033C18.9547 16.0714 19.3806 16.4307 20.4335 16.6453C21.4299 16.8468 21.6743 17.118 21.6743 17.5848V17.5973C21.6743 18.1016 21.2233 18.4737 20.565 18.4737C19.9199 18.4737 19.475 18.2654 18.9922 17.8179L18.779 18.0641C19.3056 18.5365 19.8445 18.77 20.5462 18.77C21.3922 18.77 22 18.2783 22 17.5655V17.5531C22 16.9098 21.574 16.5444 20.5589 16.3361ZM3.59156 14.23H2V18.77H2.32569V17.0771H3.51004C4.42494 17.0771 5.22102 16.5843 5.22102 15.6309V15.6178C5.22102 14.7424 4.5566 14.23 3.59156 14.23ZM4.89493 15.6502C4.89493 16.3249 4.34381 16.7657 3.52899 16.7657H2.32609V14.5411H3.56649C4.35625 14.5411 4.89513 14.9175 4.89513 15.6376L4.89493 15.6502ZM10.1583 17.2051L9.03954 14.5971L7.91461 17.2051H10.1583ZM8.89366 14.23H9.19765L11.1796 18.77H10.8334L10.292 17.5078H7.78117L7.23993 18.77H6.91147L8.89366 14.23Z" fill="#868686"/>
</svg>
