<svg xmlns="http://www.w3.org/2000/svg" width="99" height="24" viewBox="0 0 99 24" fill="none"><rect width="99" height="24" fill="none"/>
<path d="M2 10.6402C2 7.04044 2 5.24057 2.91672 3.97881C3.21278 3.57133 3.57114 3.21296 3.97863 2.9169C5.24039 2.00018 7.04026 2.00018 10.64 2.00018H13.36C16.9598 2.00018 18.7596 2.00018 20.0214 2.9169C20.4289 3.21296 20.7872 3.57133 21.0833 3.97881C22 5.24057 22 7.04044 22 10.6402V13.3602C22 16.9599 22 18.7598 21.0833 20.0216C20.7872 20.4291 20.4289 20.7874 20.0214 21.0835C18.7596 22.0002 16.9598 22.0002 13.36 22.0002H10.64C7.04026 22.0002 5.24039 22.0002 3.97863 21.0835C3.57114 20.7874 3.21278 20.4291 2.91672 20.0216C2 18.7598 2 16.9599 2 13.3602V10.6402Z" fill="#142969"/>
<path d="M10.9047 10.0918C11.625 10.0918 12.1826 10.2639 12.5772 10.6081C12.9765 10.9522 13.176 11.3996 13.176 11.9502C13.176 12.5008 12.9765 12.9483 12.5772 13.2925C12.1826 13.6366 11.625 13.8087 10.9047 13.8087H10.1721C10.0635 13.8087 9.97544 13.8967 9.97544 14.0053V14.3003C9.97544 14.4089 9.88739 14.497 9.77878 14.497H8.93315C8.82454 14.497 8.73649 14.4089 8.73649 14.3003V14.0053C8.73649 13.8967 8.64845 13.8087 8.53984 13.8087H7.80729C7.08686 13.8087 6.52704 13.6366 6.12782 13.2925C5.73319 12.9483 5.53589 12.5008 5.53589 11.9502C5.53589 11.3996 5.73319 10.9522 6.12782 10.6081C6.52704 10.2639 7.08686 10.0918 7.80729 10.0918H8.53984C8.64845 10.0918 8.73649 10.0038 8.73649 9.89516V9.60017C8.73649 9.49156 8.82454 9.40352 8.93315 9.40352H9.77878C9.88739 9.40352 9.97544 9.49156 9.97544 9.60017V9.89516C9.97544 10.0038 10.0635 10.0918 10.1721 10.0918H10.9047ZM7.8417 12.8106H8.63816C8.69247 12.8106 8.73649 12.7666 8.73649 12.7123V11.1882C8.73649 11.1339 8.69247 11.0898 8.63816 11.0898H7.8417C7.52508 11.0898 7.27959 11.1679 7.10522 11.3239C6.93085 11.4799 6.84366 11.6887 6.84366 11.9502C6.84366 12.2118 6.93085 12.4206 7.10522 12.5766C7.27959 12.7326 7.52508 12.8106 7.8417 12.8106ZM10.8703 12.8106C11.1868 12.8106 11.4323 12.7326 11.6067 12.5766C11.7811 12.4206 11.8683 12.2118 11.8683 11.9502C11.8683 11.6887 11.7811 11.4799 11.6067 11.3239C11.4323 11.1679 11.1868 11.0898 10.8703 11.0898H10.0738C10.0195 11.0898 9.97544 11.1339 9.97544 11.1882V12.7123C9.97544 12.7666 10.0195 12.8106 10.0738 12.8106H10.8703Z" fill="white"/>
<path d="M18.3227 9.54117C18.4313 9.54117 18.5193 9.62922 18.5193 9.73783V10.4114C18.5193 10.52 18.4313 10.6081 18.3227 10.6081H16.7887C16.6801 10.6081 16.592 10.6961 16.592 10.8047V14.1626C16.592 14.2713 16.504 14.3593 16.3954 14.3593H15.5498C15.4412 14.3593 15.3531 14.2713 15.3531 14.1626V10.8047C15.3531 10.6961 15.2651 10.6081 15.1565 10.6081H13.6226C13.5139 10.6081 13.4259 10.52 13.4259 10.4114V9.73783C13.4259 9.62922 13.5139 9.54117 13.6226 9.54117H18.3227Z" fill="white"/>
<path d="M34.6359 16.9977C34.5057 16.9977 34.4407 16.9977 34.3951 16.9646C34.3804 16.9539 34.3675 16.941 34.3567 16.9262C34.3236 16.8806 34.3236 16.8156 34.3236 16.6855V16.087C34.3236 15.9576 34.3236 15.8928 34.292 15.8479C34.2815 15.833 34.2697 15.8208 34.2552 15.8097C34.2115 15.7764 34.1449 15.7739 34.0114 15.7689C33.4321 15.7469 32.8819 15.6633 32.3608 15.518C31.7567 15.3469 31.2283 15.0852 30.7753 14.7329C30.3324 14.3806 29.9801 13.9327 29.7184 13.389C29.4566 12.8455 29.3258 12.1962 29.3258 11.4413C29.3258 10.6964 29.4566 10.0522 29.7184 9.5086C29.9801 8.96503 30.3375 8.52213 30.7904 8.17988C31.2434 7.82756 31.7719 7.57088 32.3758 7.40983C32.8958 7.26493 33.441 7.18137 34.0114 7.15917C34.1449 7.15397 34.2117 7.15137 34.2553 7.11808C34.2698 7.10705 34.2816 7.09481 34.292 7.07992C34.3236 7.03503 34.3236 6.97031 34.3236 6.84086V6.3028C34.3236 6.17269 34.3236 6.10763 34.3567 6.06203C34.3675 6.0473 34.3804 6.03435 34.3951 6.02365C34.4407 5.99051 34.5057 5.99051 34.6359 5.99051H35.8232C35.9533 5.99051 36.0183 5.99051 36.0639 6.02365C36.0787 6.03435 36.0917 6.0473 36.1023 6.06203C36.1354 6.10763 36.1355 6.17269 36.1355 6.3028V6.84086C36.1355 6.97031 36.1355 7.03504 36.1671 7.07996C36.1776 7.09484 36.1894 7.10709 36.2038 7.11812C36.2475 7.1514 36.3143 7.15394 36.4477 7.15902C37.0256 7.181 37.5707 7.2646 38.0833 7.40983C38.6973 7.58095 39.2258 7.84266 39.6686 8.19498C40.1116 8.53723 40.4589 8.98013 40.7105 9.5237C40.9722 10.0673 41.1031 10.7064 41.1031 11.4413C41.1031 12.1862 40.9722 12.8355 40.7105 13.389C40.4589 13.9327 40.1116 14.3806 39.6686 14.7329C39.2258 15.0852 38.6973 15.3469 38.0833 15.518C37.5707 15.6633 37.0256 15.7468 36.4477 15.7689C36.3143 15.7739 36.2475 15.7765 36.2038 15.8098C36.1894 15.8208 36.1776 15.833 36.1671 15.8479C36.1355 15.8928 36.1355 15.9576 36.1355 16.087V16.6855C36.1355 16.8156 36.1354 16.8806 36.1023 16.9262C36.0917 16.941 36.0787 16.9539 36.0639 16.9646C36.0183 16.9977 35.9533 16.9977 35.8232 16.9977H34.6359ZM36.4023 8.74752C36.2776 8.74024 36.2153 8.73661 36.1667 8.76938C36.1516 8.77956 36.1367 8.79353 36.1257 8.80799C36.0902 8.85461 36.0902 8.92001 36.0902 9.05083V13.877C36.0902 14.0078 36.0902 14.0733 36.1257 14.1199C36.1367 14.1344 36.1516 14.1483 36.1667 14.1585C36.2153 14.1912 36.2776 14.1876 36.4023 14.1803C36.7203 14.1618 37.024 14.1144 37.3132 14.0383C37.7058 13.9276 38.043 13.7666 38.3248 13.5551C38.6168 13.3337 38.8433 13.0518 39.0043 12.7096C39.1755 12.3573 39.261 11.9345 39.261 11.4413C39.261 10.938 39.1755 10.5152 39.0043 10.173C38.8433 9.83071 38.6168 9.55389 38.3248 9.34251C38.043 9.13112 37.7058 8.98013 37.3132 8.88953C37.024 8.81342 36.7203 8.76608 36.4023 8.74752ZM31.1678 11.4413C31.1678 11.9345 31.2535 12.3573 31.4246 12.7096C31.5957 13.0619 31.8272 13.3488 32.1192 13.5702C32.411 13.7816 32.7482 13.9377 33.1308 14.0383C33.4259 14.114 33.7295 14.1612 34.0417 14.18C34.1662 14.1875 34.2284 14.1912 34.2771 14.1585C34.2922 14.1483 34.3071 14.1343 34.3181 14.1199C34.3538 14.0733 34.3538 14.0078 34.3538 13.877V9.05083C34.3538 8.92004 34.3538 8.85463 34.3182 8.80804C34.3072 8.79356 34.2925 8.7796 34.2773 8.76943C34.2288 8.73664 34.1664 8.74026 34.0417 8.74747C33.7215 8.76599 33.4128 8.81334 33.1157 8.88953C32.7332 8.98013 32.3959 9.13112 32.1041 9.34251C31.8222 9.55389 31.5957 9.83575 31.4246 10.1881C31.2535 10.5303 31.1678 10.948 31.1678 11.4413Z" fill="#142969"/>
<path d="M44.4541 16.5197C44.4143 16.5829 44.3944 16.6146 44.3652 16.6348C44.3556 16.6414 44.3453 16.6471 44.3346 16.6516C44.302 16.6655 44.2646 16.6655 44.1899 16.6655H42.908C42.7778 16.6655 42.7127 16.6655 42.6671 16.6324C42.6524 16.6217 42.6395 16.6088 42.6288 16.594C42.5956 16.5484 42.5956 16.4834 42.5956 16.3533V9.6699C42.5956 9.53978 42.5956 9.47473 42.6288 9.42912C42.6395 9.4144 42.6524 9.40144 42.6671 9.39074C42.7127 9.35761 42.7778 9.35761 42.908 9.35761H43.9594C44.0895 9.35761 44.1545 9.35761 44.2001 9.39074C44.2149 9.40144 44.2279 9.4144 44.2385 9.42912C44.2716 9.47473 44.2716 9.53978 44.2716 9.66989V13.8409C44.2716 14.0351 44.2716 14.1323 44.314 14.1575C44.3269 14.1651 44.3416 14.1694 44.3566 14.1697C44.4058 14.1707 44.4573 14.0883 44.5602 13.9236L47.3205 9.50445C47.3603 9.4408 47.3801 9.40898 47.4094 9.38865C47.4191 9.38196 47.4293 9.37626 47.4401 9.37164C47.4728 9.35761 47.5103 9.35761 47.5854 9.35761H48.927C49.0571 9.35761 49.1221 9.35761 49.1677 9.39074C49.1825 9.40144 49.1955 9.4144 49.2061 9.42912C49.2392 9.47473 49.2392 9.53978 49.2392 9.66989V16.3533C49.2392 16.4834 49.2392 16.5484 49.2061 16.594C49.1955 16.6088 49.1825 16.6217 49.1677 16.6324C49.1221 16.6655 49.0571 16.6655 48.927 16.6655H47.8605C47.7304 16.6655 47.6653 16.6655 47.6197 16.6324C47.6049 16.6217 47.592 16.6088 47.5813 16.594C47.5481 16.5484 47.5481 16.4834 47.5481 16.3533V12.1483C47.5481 11.9552 47.5481 11.8587 47.5059 11.8334C47.4931 11.8257 47.4785 11.8215 47.4635 11.8211C47.4142 11.82 47.3628 11.9017 47.2599 12.0651L44.4541 16.5197Z" fill="#142969"/>
<path d="M51.3634 16.6655C51.2333 16.6655 51.1683 16.6655 51.1227 16.6324C51.1079 16.6217 51.095 16.6088 51.0843 16.594C51.0512 16.5484 51.0512 16.4834 51.0512 16.3533V9.6699C51.0512 9.53978 51.0512 9.47473 51.0843 9.42912C51.095 9.4144 51.1079 9.40144 51.1227 9.39074C51.1683 9.35761 51.2333 9.35761 51.3634 9.35761H52.4753C52.6054 9.35761 52.6704 9.35761 52.716 9.39074C52.7307 9.40144 52.7437 9.4144 52.7544 9.42912C52.7875 9.47473 52.7875 9.53978 52.7875 9.66989V11.8386C52.7875 11.9688 52.7875 12.0338 52.8207 12.0795C52.8314 12.0941 52.8444 12.1071 52.859 12.1178C52.9047 12.151 52.9697 12.151 53.0998 12.151H55.6461C55.7762 12.151 55.8412 12.151 55.8868 12.1178C55.9016 12.1071 55.9145 12.0941 55.9252 12.0795C55.9584 12.0338 55.9584 11.9688 55.9584 11.8386V9.66989C55.9584 9.53978 55.9583 9.47473 55.9915 9.42912C56.0022 9.4144 56.0151 9.40144 56.0299 9.39074C56.0755 9.35761 56.1406 9.35761 56.2707 9.35761H57.3824C57.5126 9.35761 57.5777 9.35761 57.6233 9.39074C57.638 9.40144 57.6509 9.4144 57.6616 9.42912C57.6948 9.47473 57.6948 9.53978 57.6948 9.66989V16.3533C57.6948 16.4834 57.6948 16.5484 57.6616 16.594C57.6509 16.6088 57.638 16.6217 57.6233 16.6324C57.5777 16.6655 57.5126 16.6655 57.3824 16.6655H56.2707C56.1406 16.6655 56.0755 16.6655 56.0299 16.6324C56.0151 16.6217 56.0022 16.6088 55.9915 16.594C55.9583 16.5484 55.9584 16.4834 55.9584 16.3533V14.0033C55.9584 13.8732 55.9584 13.8082 55.9252 13.7626C55.9145 13.7478 55.9016 13.7348 55.8868 13.7242C55.8412 13.6911 55.7762 13.6911 55.6461 13.6911H53.0998C52.9697 13.6911 52.9047 13.6911 52.859 13.7242C52.8444 13.7348 52.8314 13.7478 52.8207 13.7626C52.7875 13.8082 52.7875 13.8732 52.7875 14.0033V16.3533C52.7875 16.4834 52.7875 16.5484 52.7544 16.594C52.7437 16.6088 52.7307 16.6217 52.716 16.6324C52.6704 16.6655 52.6054 16.6655 52.4753 16.6655H51.3634Z" fill="#142969"/>
<path d="M59.1244 10.8977C58.9943 10.8977 58.9292 10.8977 58.8836 10.8645C58.8689 10.8539 58.856 10.841 58.8452 10.8262C58.8121 10.7806 58.8121 10.7155 58.8121 10.5854V9.6699C58.8121 9.53978 58.8121 9.47473 58.8452 9.42912C58.856 9.4144 58.8689 9.40144 58.8836 9.39074C58.9292 9.35761 58.9943 9.35761 59.1244 9.35761H65.1585C65.2887 9.35761 65.3537 9.35761 65.3993 9.39074C65.414 9.40144 65.4269 9.4144 65.4377 9.42912C65.4708 9.47473 65.4708 9.53978 65.4708 9.66989V10.5854C65.4708 10.7155 65.4708 10.7806 65.4377 10.8262C65.4269 10.841 65.414 10.8539 65.3993 10.8645C65.3537 10.8977 65.2887 10.8977 65.1585 10.8977H63.3219C63.1918 10.8977 63.1268 10.8977 63.0812 10.9309C63.0664 10.9415 63.0535 10.9545 63.0428 10.9693C63.0096 11.0149 63.0096 11.0799 63.0096 11.21V16.3533C63.0096 16.4834 63.0096 16.5484 62.9765 16.594C62.9658 16.6088 62.9529 16.6217 62.9381 16.6324C62.8925 16.6655 62.8274 16.6655 62.6973 16.6655H61.5856C61.4554 16.6655 61.3903 16.6655 61.3447 16.6324C61.33 16.6217 61.3171 16.6088 61.3063 16.594C61.2732 16.5484 61.2732 16.4834 61.2732 16.3533V11.21C61.2732 11.0799 61.2732 11.0149 61.2401 10.9693C61.2294 10.9545 61.2164 10.9415 61.2017 10.9309C61.1561 10.8977 61.0911 10.8977 60.961 10.8977H59.1244Z" fill="#142969"/>
<path d="M71.0761 16.6655C70.946 16.6655 70.881 16.6655 70.8354 16.6324C70.8207 16.6217 70.8077 16.6088 70.797 16.594C70.7639 16.5484 70.7639 16.4834 70.7639 16.3533V16.3076C70.7639 16.1362 70.7639 16.0504 70.73 16.0244C70.7185 16.0155 70.7085 16.011 70.6943 16.0081C70.6524 15.9996 70.5828 16.0601 70.4435 16.1812C70.2699 16.3322 70.0696 16.4585 69.8428 16.5599C69.4703 16.731 69.0425 16.8166 68.5594 16.8166C67.8246 16.8166 67.2206 16.6253 66.7475 16.2428C66.2744 15.8603 66.0378 15.3268 66.0378 14.6423C66.0378 13.8873 66.2844 13.3388 66.7777 12.9965C67.281 12.6441 67.9554 12.4479 68.8009 12.4077C69.1432 12.3875 69.4703 12.3824 69.7824 12.3925C69.9808 12.3925 70.175 12.3946 70.3652 12.3986C70.5006 12.4015 70.5683 12.403 70.6151 12.3699C70.6302 12.3592 70.6433 12.3465 70.6543 12.3315C70.6884 12.2855 70.6884 12.2184 70.6884 12.0844V11.8339C70.6884 11.4111 70.5625 11.1041 70.3109 10.9128C70.0592 10.7216 69.7321 10.6259 69.3295 10.6259C68.9268 10.6259 68.6097 10.7266 68.3782 10.9279C68.2089 11.0752 68.0745 11.2602 67.9752 11.4828C67.9225 11.6009 67.8962 11.6599 67.8581 11.6872C67.8444 11.6971 67.8336 11.7029 67.8178 11.7088C67.774 11.7253 67.7181 11.7158 67.6063 11.6968L66.5964 11.5253C66.4637 11.5027 66.3974 11.4915 66.3567 11.4451C66.3445 11.4311 66.3328 11.412 66.3259 11.3947C66.3032 11.3373 66.3219 11.2783 66.3592 11.1601C66.5224 10.6444 66.8229 10.2096 67.2609 9.85588C67.7843 9.42304 68.4838 9.20661 69.3596 9.20661C70.2253 9.20661 70.9451 9.40794 71.5188 9.81058C72.0925 10.2032 72.3795 10.8826 72.3795 11.849V16.3533C72.3795 16.4834 72.3795 16.5484 72.3463 16.594C72.3356 16.6088 72.3227 16.6217 72.308 16.6324C72.2624 16.6655 72.1973 16.6655 72.0671 16.6655H71.0761ZM70.6884 13.8698C70.6884 13.7442 70.6884 13.6814 70.6555 13.636C70.6451 13.6216 70.6318 13.6081 70.6175 13.5976C70.5723 13.5645 70.5112 13.564 70.3889 13.563C70.2311 13.5618 70.0642 13.5641 69.8881 13.5702C69.5962 13.5702 69.3093 13.5752 69.0275 13.5854C68.6349 13.5954 68.3229 13.681 68.0913 13.8421C67.8698 14.0031 67.7591 14.2346 67.7591 14.5366C67.7591 14.8385 67.8648 15.0751 68.0762 15.2462C68.2876 15.4073 68.5694 15.4878 68.9218 15.4878C69.4352 15.4878 69.8579 15.3671 70.1901 15.1255C70.5223 14.8738 70.6884 14.5467 70.6884 14.144V13.8698Z" fill="#142969"/>
<path d="M81.0626 13.1324C81.0626 14.2598 80.7506 15.1556 80.1264 15.82C79.5024 16.4844 78.6568 16.8166 77.5898 16.8166C76.3618 16.8166 75.4357 16.4643 74.8116 15.7596C74.1875 15.0449 73.8754 13.9729 73.8754 12.5435V11.3507C73.8754 10.4749 73.9711 9.74011 74.1624 9.14622C74.3637 8.54225 74.6455 8.05405 75.0079 7.68161C75.3703 7.2991 75.8131 7.01725 76.3366 6.83606C76.8601 6.6448 77.4439 6.51394 78.0881 6.44348C78.5713 6.39315 79.0192 6.34282 79.4319 6.29249C79.7219 6.25713 79.9945 6.22425 80.2497 6.19386C80.3804 6.17828 80.4459 6.1705 80.4954 6.19863C80.5114 6.20769 80.5259 6.21928 80.5382 6.23289C80.5765 6.27508 80.5833 6.34066 80.5967 6.47184L80.6987 7.46409C80.7119 7.59256 80.7186 7.65679 80.6906 7.70537C80.6816 7.72106 80.6701 7.73524 80.6567 7.7474C80.6151 7.78502 80.5509 7.79214 80.4226 7.8064C80.1414 7.83765 79.8364 7.87154 79.5074 7.9081C79.0645 7.95843 78.6267 8.00876 78.1938 8.05909C77.3281 8.14967 76.6637 8.40133 76.2007 8.81404C75.8275 9.13861 75.6047 9.63324 75.5323 10.2979C75.513 10.4752 75.5033 10.5638 75.5382 10.5936C75.5494 10.6032 75.5611 10.609 75.5756 10.6123C75.6204 10.6223 75.6924 10.5548 75.8364 10.4199C76.0398 10.2291 76.2821 10.0713 76.5631 9.94647C77.0262 9.74515 77.5042 9.64449 77.9975 9.64449C78.9236 9.64449 79.6634 9.94143 80.217 10.5353C80.7808 11.1191 81.0626 11.9849 81.0626 13.1324ZM77.5446 15.4123C78.1485 15.4123 78.6014 15.211 78.9035 14.8084C79.2155 14.3956 79.3715 13.8471 79.3715 13.1626C79.3715 12.468 79.2155 11.9395 78.9035 11.5772C78.5914 11.2148 78.1485 11.0336 77.5747 11.0336C77.0312 11.0336 76.5681 11.1896 76.1856 11.5017C75.8031 11.8138 75.6119 12.2163 75.6119 12.7096V13.0116C75.6119 13.8269 75.783 14.4309 76.1252 14.8234C76.4775 15.2161 76.9507 15.4123 77.5446 15.4123Z" fill="#142969"/>
<path d="M83.0305 13.7515C83.0405 13.4696 83.0506 13.1374 83.0606 12.7549C83.0708 12.3623 83.0758 11.9647 83.0758 11.5621C83.0858 11.1494 83.0909 10.7518 83.0909 10.3692C83.0975 10.1124 83.1019 9.87931 83.1041 9.66988C83.1056 9.5388 83.1063 9.47326 83.1395 9.4282C83.1503 9.41355 83.163 9.40093 83.1778 9.3903C83.2232 9.35761 83.2882 9.35761 83.4182 9.35761H88.4407C88.5708 9.35761 88.6359 9.35761 88.6815 9.39074C88.6966 9.40144 88.7096 9.4144 88.72 9.42912C88.7529 9.47473 88.7529 9.53978 88.7529 9.66989V16.3533C88.7529 16.4834 88.7529 16.5484 88.72 16.594C88.7096 16.6088 88.6966 16.6217 88.6815 16.6324C88.6359 16.6655 88.5708 16.6655 88.4407 16.6655H87.3289C87.1988 16.6655 87.1337 16.6655 87.0881 16.6324C87.0734 16.6217 87.0604 16.6088 87.0498 16.594C87.0166 16.5484 87.0166 16.4834 87.0166 16.3533V11.21C87.0166 11.0799 87.0166 11.0149 86.9835 10.9693C86.9728 10.9545 86.9598 10.9415 86.9451 10.9309C86.8995 10.8977 86.8345 10.8977 86.7043 10.8977H85.0036C84.8737 10.8977 84.8087 10.8977 84.7634 10.9302C84.7486 10.9408 84.7359 10.9533 84.7251 10.968C84.6919 11.0128 84.6909 11.0786 84.6889 11.21C84.6865 11.3704 84.6823 11.5381 84.6763 11.713C84.6763 12.005 84.6712 12.2918 84.6611 12.5737C84.6511 12.8556 84.641 13.1273 84.631 13.389C84.631 13.6507 84.631 13.8773 84.631 14.0685C84.6008 15.0248 84.4196 15.6992 84.0874 16.0918C83.7552 16.4743 83.1815 16.6655 82.3661 16.6655H81.8932C81.7631 16.6655 81.6981 16.6655 81.6525 16.6324C81.6377 16.6217 81.6247 16.6088 81.6141 16.594C81.581 16.5484 81.581 16.4834 81.581 16.3533V15.4377C81.581 15.3076 81.581 15.2426 81.6141 15.197C81.6247 15.1822 81.6377 15.1693 81.6525 15.1586C81.6981 15.1255 81.7631 15.1255 81.8932 15.1255H82.0188C82.3812 15.1255 82.6378 15.0248 82.7889 14.8234C82.9399 14.6222 83.0204 14.2648 83.0305 13.7515Z" fill="#142969"/>
<path d="M93.727 16.8166C92.6504 16.8166 91.7792 16.4793 91.1152 15.8049C90.4511 15.1305 90.1182 14.1944 90.1182 12.9965C90.1182 11.7986 90.4459 10.8675 91.1004 10.2032C91.7644 9.53879 92.64 9.20661 93.727 9.20661C94.8245 9.20661 95.6948 9.53879 96.3398 10.2032C96.9934 10.8675 97.3211 11.7986 97.3211 12.9965C97.3211 14.1843 96.9934 15.1204 96.3398 15.8049C95.6948 16.4793 94.8245 16.8166 93.727 16.8166ZM93.727 15.352C94.3312 15.352 94.7942 15.1506 95.1166 14.7479C95.4382 14.3352 95.5995 13.7515 95.5995 12.9965C95.5995 12.2416 95.4382 11.6678 95.1166 11.2752C94.7942 10.8725 94.3312 10.6712 93.727 10.6712C93.1436 10.6712 92.6807 10.8725 92.3383 11.2752C92.0063 11.6678 91.8399 12.2416 91.8399 12.9965C91.8399 13.7515 92.0115 14.3352 92.353 14.7479C92.6955 15.1506 93.1532 15.352 93.727 15.352Z" fill="#142969"/>
</svg>
