<svg xmlns="http://www.w3.org/2000/svg" width="24" height="24" viewBox="0 0 24 24" fill="none"><rect width="24" height="24" fill="none"/>
<path d="M22 11.5082C22 7.026 22 4.7849 20.6076 3.3924C19.2151 2 16.974 2 12.4918 2H11.5082C7.026 2 4.7849 2 3.3924 3.3924C2 4.785 2 7.026 2 11.5082V12.4918C2 16.974 2 19.2151 3.3924 20.6076C4.785 22 7.026 22 11.5082 22H12.4918C16.974 22 19.2151 22 20.6076 20.6076C22 19.2151 22 16.974 22 12.4918V11.5082Z" fill="#0077FF"/>
<path d="M17.9956 2.2167C17.6921 2.7915 17.3604 3.4805 16.9728 4.2855L12.7222 13.1148C11.4822 15.6904 10.8622 16.9782 11.4503 17.914C12.0384 18.8499 13.4677 18.8499 16.3263 18.8499H21.5952C21.9989 17.443 21.9989 15.4582 21.9989 12.4917V11.5081C21.9989 7.0259 21.9989 4.7848 20.6065 3.3923C19.9631 2.749 19.1386 2.4029 17.9956 2.2167Z" fill="#00D9ED"/>
<path d="M14.5234 9.3734L12.7222 13.1148C11.9285 14.7634 11.3889 15.8842 11.2575 16.7229C9.1908 16.7112 8.0941 16.6204 7.5721 15.9214C7.47799 15.7954 7.39908 15.6587 7.337 15.5142C6.9412 14.593 7.6207 13.4161 8.9797 11.0622C10.3387 8.7084 11.0182 7.5314 12.0139 7.4136C12.1701 7.39511 12.3279 7.39511 12.4841 7.4136C13.2037 7.4987 13.7582 8.1372 14.5234 9.3734Z" fill="white"/>
</svg>
