<svg xmlns="http://www.w3.org/2000/svg" width="24" height="24" viewBox="0 0 24 24" fill="none"><rect width="24" height="24" fill="none"/>
<path d="M19.1873 17.895C18.4992 17.895 18.3639 17.6048 18.3639 17.1021V14.9529C18.3639 14.4696 18.4957 14.16 19.1873 14.16C19.9268 14.16 20.0518 14.4696 20.0518 14.9529V17.1021C20.0518 17.6048 19.8787 17.895 19.1873 17.895ZM19.1873 18.7347C20.4484 18.7347 21.0058 18.2457 21.0058 17.15V14.9038C21.0058 13.7807 20.4737 13.3191 19.1873 13.3191C17.9007 13.3191 17.41 13.7761 17.41 14.9038V17.15C17.41 18.2457 17.9213 18.7347 19.1873 18.7347Z" fill="#E2000F"/>
<path d="M12.0864 17.8299V14.2492H12.9016C13.6412 14.2492 13.7525 14.5119 13.7525 15.0147V17.0815C13.7525 17.5842 13.5793 17.8253 12.8879 17.8253L12.0864 17.8299ZM11.1381 13.3865V18.6868H12.8879C14.1491 18.6868 14.7064 18.2297 14.7064 17.1295V14.9667C14.7064 13.8435 14.1744 13.382 12.8879 13.382L11.1381 13.3865Z" fill="#E2000F"/>
<path d="M8.20621 16.8199L8.64879 14.8593L9.09135 16.8233L8.20621 16.8199ZM9.13269 13.3922H8.18557L6.71332 18.6868H7.69253L7.96885 17.7499H9.33109L9.60162 18.6868H10.5831L9.13269 13.3922Z" fill="#E2000F"/>
<path d="M3.97536 15.9447V14.256H4.3824C5.12311 14.256 5.25382 14.5188 5.25382 15.0215V15.202C5.25382 15.7047 5.06004 15.9458 4.36865 15.9458L3.97536 15.9447ZM6.50593 18.6868L5.33752 16.6679C5.97962 16.4611 6.25482 16.0338 6.25482 15.2489V14.9735C6.25482 13.8504 5.65284 13.382 4.36635 13.382H3.02482V18.6868H3.97994V16.8199H4.33194L5.39026 18.6868H6.50593Z" fill="#E2000F"/>
<path d="M16.5202 13.3888H15.5593V18.6948H16.5202V13.3888Z" fill="#E2000F"/>
<path d="M15.421 12.2086C15.421 13.0312 16.6593 13.0232 16.6593 12.2086C16.6593 11.3939 15.421 11.3779 15.421 12.2086Z" fill="#E2000F"/>
<path d="M15.001 10.4856C14.9835 10.498 14.9638 10.5067 14.9429 10.5111C14.9219 10.5155 14.9003 10.5155 14.8794 10.5112C14.8583 10.5068 14.8386 10.4982 14.8211 10.4858C14.8036 10.4734 14.7891 10.4576 14.778 10.4393C14.7671 10.421 14.76 10.4006 14.7573 10.3794C14.7547 10.3583 14.7564 10.3368 14.7625 10.3164C14.7687 10.2959 14.7789 10.2769 14.7927 10.2606C14.8066 10.2444 14.8235 10.2311 14.8427 10.2217C15.203 10.0056 15.6159 9.89176 16.0364 9.89266C16.5591 9.89306 17.0666 10.0689 17.4768 10.3919C17.8871 10.7148 18.1761 11.166 18.2975 11.6727C18.3036 11.7111 18.2949 11.7504 18.2731 11.7828C18.2515 11.8151 18.2183 11.838 18.1802 11.847C18.1422 11.8559 18.1022 11.8502 18.0683 11.8311C18.0344 11.8119 18.0088 11.7806 17.9971 11.7436C17.9339 11.4813 17.8184 11.2343 17.6575 11.0174C17.4967 10.8005 17.2936 10.618 17.0606 10.4808C16.8274 10.3436 16.5692 10.2546 16.3007 10.2189C16.0324 10.1832 15.7597 10.2016 15.4986 10.2731C15.3234 10.3204 15.1553 10.3907 14.9987 10.4822L15.001 10.4856Z" fill="#E2000F"/>
<path d="M14.9403 8.82896C14.9014 8.84138 14.859 8.83788 14.8227 8.81924C14.7863 8.80061 14.759 8.76835 14.7464 8.72955C14.7339 8.69077 14.7376 8.64863 14.7562 8.61243C14.7749 8.57621 14.8073 8.5489 14.8462 8.53646C15.2298 8.412 15.6306 8.348 16.0342 8.34681C17.0611 8.34681 18.0458 8.7533 18.7722 9.47688C19.4983 10.2005 19.9062 11.1818 19.9062 12.2051V12.3297C19.9019 12.3682 19.8832 12.4037 19.8539 12.4291C19.8245 12.4545 19.7867 12.468 19.7477 12.4669C19.7088 12.4657 19.6718 12.45 19.6441 12.4229C19.6163 12.3958 19.5997 12.3592 19.5978 12.3206V12.2063C19.5979 11.7399 19.5059 11.2781 19.3267 10.8472C19.1477 10.4163 18.8853 10.0248 18.5544 9.69502C18.2233 9.36525 17.8305 9.10369 17.3981 8.92529C16.9656 8.74688 16.5021 8.65514 16.0342 8.65529C15.8479 8.65524 15.6619 8.66937 15.4781 8.69757C15.2949 8.72614 15.1143 8.76894 14.9379 8.82553L14.9403 8.82896Z" fill="#E2000F"/>
<path fill-rule="evenodd" clip-rule="evenodd" d="M21.0058 17.15C21.0058 18.2457 20.4484 18.7347 19.1873 18.7347C17.9213 18.7347 17.41 18.2457 17.41 17.15V14.9038C17.41 13.7761 17.9007 13.3191 19.1873 13.3191C20.4737 13.3191 21.0058 13.7807 21.0058 14.9038V17.15ZM11.1381 18.6868V13.3865L12.8879 13.382C14.1744 13.382 14.7064 13.8435 14.7064 14.9667V17.1295C14.7064 18.2297 14.1491 18.6868 12.8879 18.6868H11.1381ZM8.18557 13.3922H9.13269L10.5831 18.6868H9.60162L9.33109 17.7499H7.96885L7.69253 18.6868H6.71332L8.18557 13.3922ZM5.33752 16.6679L6.50593 18.6868H5.39026L4.33194 16.8199H3.97994V18.6868H3.02482V13.382H4.36635C5.65284 13.382 6.25482 13.8504 6.25482 14.9735V15.2489C6.25482 16.0338 5.97962 16.4611 5.33752 16.6679ZM15.5593 13.3888H16.5202V18.6948H15.5593V13.3888ZM12.0864 14.2492V17.8299L12.8879 17.8253C13.5793 17.8253 13.7525 17.5842 13.7525 17.0815V15.0147C13.7525 14.5119 13.6412 14.2492 12.9016 14.2492H12.0864ZM19.1873 17.895C18.4992 17.895 18.3639 17.6048 18.3639 17.1021V14.9529C18.3639 14.4696 18.4957 14.16 19.1873 14.16C19.9268 14.16 20.0518 14.4696 20.0518 14.9529V17.1021C20.0518 17.6048 19.8787 17.895 19.1873 17.895ZM3.97536 14.256V15.9447L4.36865 15.9458C5.06004 15.9458 5.25382 15.7047 5.25382 15.202V15.0215C5.25382 14.5188 5.12311 14.256 4.3824 14.256H3.97536ZM8.20621 16.8199L8.64879 14.8593L9.09135 16.8233L8.20621 16.8199Z" fill="#1A1A18"/>
<path d="M14.9403 7.2294C14.9017 7.2345 14.8626 7.22497 14.8308 7.20269C14.799 7.18042 14.7768 7.14703 14.7685 7.10917C14.7604 7.07132 14.7668 7.03176 14.7863 6.99836C14.806 6.96496 14.8377 6.94017 14.8749 6.92891C15.0641 6.8875 15.2556 6.85623 15.4481 6.83523C15.642 6.81467 15.8368 6.80437 16.0317 6.80438C16.7437 6.80408 17.4486 6.94356 18.1064 7.21487C18.764 7.48618 19.3617 7.88399 19.865 8.38556C20.3684 8.88713 20.7676 9.48263 21.0398 10.138C21.3121 10.7934 21.452 11.4958 21.4519 12.2051C21.4519 12.3483 21.4462 12.4912 21.4346 12.6336C21.4244 12.7741 21.4071 12.9158 21.3842 13.0598C21.3754 13.098 21.3524 13.1315 21.3197 13.1534C21.2872 13.1753 21.2474 13.184 21.2085 13.1778C21.1698 13.1715 21.1346 13.1508 21.1106 13.1197C21.0867 13.0887 21.0753 13.0497 21.0791 13.0106C21.0999 12.8815 21.116 12.7478 21.1262 12.6096C21.1365 12.4714 21.1422 12.3423 21.1422 12.2051C21.1424 11.5366 21.0104 10.8745 20.7537 10.2568C20.4971 9.63903 20.1208 9.07769 19.6465 8.60484C19.1722 8.13198 18.609 7.75683 17.9893 7.50085C17.3693 7.24485 16.7051 7.11301 16.0342 7.11287C15.8499 7.11302 15.6657 7.12256 15.4825 7.14143C15.3004 7.16099 15.1193 7.19036 14.9403 7.2294Z" fill="#E2000F"/>
<path d="M14.9356 5.66413C14.915 5.66881 14.8936 5.66923 14.8728 5.66535C14.8521 5.66148 14.8323 5.6534 14.8147 5.64162C14.7972 5.62983 14.7822 5.61459 14.7709 5.59682C14.7595 5.57906 14.7519 5.55916 14.7485 5.53835C14.7452 5.51754 14.746 5.49626 14.7512 5.47582C14.7564 5.45539 14.7657 5.43623 14.7787 5.41954C14.7917 5.40284 14.8078 5.38897 14.8263 5.37876C14.8448 5.36856 14.8652 5.36224 14.8863 5.36021C15.0755 5.32822 15.267 5.30423 15.4597 5.28937C15.6522 5.27452 15.8449 5.26538 16.033 5.26538C17.2061 5.26552 18.3601 5.5608 19.3883 6.12383C20.4163 6.68687 21.2851 7.49943 21.9141 8.48621C22.543 9.47297 22.9118 10.602 22.986 11.7686C23.0604 12.9352 22.8379 14.1016 22.3392 15.1598C22.3316 15.1795 22.32 15.1975 22.3051 15.2126C22.2903 15.2278 22.2725 15.2396 22.2527 15.2476C22.233 15.2555 22.2119 15.2593 22.1906 15.2588C22.1694 15.2582 22.1484 15.2533 22.1292 15.2443C22.11 15.2353 22.0927 15.2225 22.0787 15.2066C22.0647 15.1908 22.054 15.1722 22.0474 15.152C22.041 15.1319 22.0386 15.1106 22.0407 15.0895C22.0427 15.0684 22.0491 15.048 22.0595 15.0295C22.5366 14.0183 22.7497 12.9033 22.6791 11.7881C22.6084 10.6729 22.2562 9.59357 21.6553 8.65015C21.0544 7.70672 20.2241 6.92981 19.2414 6.39143C18.2586 5.85305 17.1556 5.57066 16.0342 5.57044C15.8472 5.57044 15.6626 5.57844 15.4803 5.59329C15.298 5.60814 15.111 5.63099 14.9334 5.6607L14.9356 5.66413Z" fill="#E2000F"/>
<path d="M14.0773 6.86671H10.9242V7.71332H12.0306V12.1509H12.9777V7.71332H14.0773V6.86671Z" fill="#1A1A18"/>
<path d="M7.24609 6.84616V12.1578H10.4061V11.2895H8.20008V9.89101H9.99795V9.0364H8.20008V7.67221H10.3087V6.84616H7.24609Z" fill="#1A1A18"/>
<path d="M4.80476 9.99499H5.71059V10.5114C5.71059 11.0347 5.46865 11.3238 4.77724 11.3238C4.08584 11.3238 3.95398 11.0347 3.95398 10.532V8.45142C3.95398 7.96926 4.08584 7.65849 4.77724 7.65849C5.52255 7.65849 5.6372 7.90643 5.6372 8.40228H6.59118C6.59118 7.25975 6.05915 6.81872 4.77266 6.81872C3.50228 6.81872 3.01231 7.30893 3.00023 8.36192C3.00008 8.37528 3 8.38874 3 8.40228V10.532C3 10.5459 3.00008 10.5598 3.00023 10.5736C3.01261 11.6867 3.52686 12.1784 4.77724 12.1784C6.0431 12.1784 6.59576 11.6756 6.59576 10.5114V9.13351H4.80476V9.99499Z" fill="#1A1A18"/>
</svg>
