<svg xmlns="http://www.w3.org/2000/svg" width="92" height="24" viewBox="0 0 92 24" fill="none"><rect width="92" height="24" fill="none"/>
<path d="M15.6046 5.22436L13.1413 7.05072C12.1771 5.47238 10.791 4.6832 8.98309 4.6832C8.7571 4.6832 8.50099 4.70575 8.21474 4.75084C7.92846 4.79594 7.60454 4.88613 7.24297 5.02141C6.88139 5.14167 6.58007 5.34462 6.33899 5.63022C6.11301 5.90078 6.00001 6.23149 6.00001 6.62232C6.00001 6.86284 6.05274 7.0808 6.1582 7.27621C6.26366 7.45659 6.38419 7.60692 6.51981 7.72718C6.67047 7.83241 6.88892 7.93763 7.17517 8.04283C7.46142 8.14805 7.71754 8.23074 7.94352 8.29088C8.16954 8.351 8.49345 8.42615 8.91529 8.51634L10.5876 8.87712C11.3108 9.02743 11.936 9.2003 12.4633 9.39571C13.0057 9.59113 13.5481 9.86922 14.0905 10.23C14.6328 10.5757 15.0471 11.0342 15.3334 11.6054C15.6197 12.1616 15.7628 12.823 15.7628 13.5896C15.7628 14.3412 15.6121 15.0252 15.3108 15.6415C15.0245 16.2428 14.6479 16.7313 14.1809 17.1071C13.7289 17.4829 13.194 17.7986 12.5763 18.0541C11.9737 18.3097 11.371 18.4825 10.7684 18.5727C10.1808 18.6779 9.58572 18.7306 8.98309 18.7306C7.52168 18.7306 6.1582 18.4525 4.89267 17.8963C3.62713 17.3401 2.6629 16.4833 2 15.3258L4.50849 13.5896C5.57817 15.183 7.2279 15.9797 9.45766 15.9797C10.3616 15.9797 11.0999 15.7993 11.6724 15.4385C12.2449 15.0628 12.5311 14.5442 12.5311 13.8827C12.5311 13.2815 12.3051 12.8531 11.8532 12.5975C11.4162 12.342 10.6178 12.0864 9.45766 11.8309L7.42376 11.3799C6.94165 11.2747 6.51981 11.1695 6.1582 11.0643C5.79663 10.944 5.38985 10.7711 4.93787 10.5457C4.50095 10.3052 4.13937 10.0346 3.85312 9.73393C3.58193 9.43329 3.34841 9.04999 3.15255 8.58399C2.95669 8.10297 2.85876 7.56181 2.85876 6.96054C2.85876 5.50245 3.4162 4.31492 4.53109 3.39797C5.66103 2.46599 7.2053 2 9.16388 2C11.8758 2 14.0227 3.07478 15.6046 5.22436Z" fill="#00AA86"/>
<path d="M26.8813 18.3247H24.1694V17.1748C23.1449 18.1217 21.9246 18.5953 20.5084 18.5953C19.0018 18.5953 17.917 18.0992 17.2542 17.1071C16.8172 16.4607 16.5988 15.4686 16.5988 14.1308V7.05072H19.3333V13.5445C19.3333 15.2131 20.0715 16.0474 21.5479 16.0474C22.1204 16.0474 22.5875 15.9121 22.9491 15.6415C23.3257 15.3709 23.5894 15.0853 23.74 14.7847C24.0263 14.2285 24.1694 13.3266 24.1694 12.0789V7.05072H26.8813V18.3247Z" fill="#00AA86"/>
<path d="M28.4634 7.05072H31.1753V8.0654C32.0341 7.16348 33.066 6.71251 34.2713 6.71251C35.7479 6.71251 36.9531 7.26117 37.8871 8.3585C38.8967 9.56105 39.4013 11.0342 39.4013 12.7779C39.4013 14.2661 39.0247 15.5363 38.2714 16.5885C37.2921 17.9714 35.9512 18.6629 34.2486 18.6629C33.1037 18.6629 32.0791 18.242 31.1753 17.4002V22H28.4634V7.05072ZM36.6218 12.6426C36.6218 11.5603 36.3428 10.7336 35.7855 10.1624C35.2279 9.59113 34.5803 9.30552 33.842 9.30552C32.953 9.30552 32.2751 9.63623 31.8081 10.2976C31.3561 10.959 31.1301 11.7332 31.1301 12.6201C31.1301 13.6272 31.3712 14.4615 31.8531 15.1229C32.3504 15.7693 33.036 16.0924 33.9097 16.0924C34.211 16.0924 34.5049 16.0398 34.7912 15.9346C35.0773 15.8294 35.3636 15.664 35.6499 15.4385C35.9512 15.1981 36.1848 14.8373 36.3505 14.3563C36.5312 13.8752 36.6218 13.304 36.6218 12.6426Z" fill="#00AA86"/>
<path d="M51.2885 13.2289H42.927C42.942 13.3792 42.9721 13.552 43.0174 13.7475C43.0627 13.9429 43.1604 14.1834 43.311 14.469C43.4617 14.7396 43.6427 14.9876 43.8536 15.2131C44.0796 15.4385 44.3883 15.634 44.7799 15.7993C45.1719 15.9496 45.6162 16.0248 46.1135 16.0248C47.4694 16.0248 48.456 15.5062 49.074 14.469L51.3789 15.7993C49.9629 17.7084 48.1247 18.6629 45.8649 18.6629C44.1473 18.6629 42.7461 18.1217 41.6614 17.0395C40.5918 15.9421 40.0569 14.469 40.0569 12.6201C40.0569 10.711 40.6068 9.25291 41.7065 8.24577C42.8064 7.2236 44.1473 6.71251 45.7292 6.71251C46.7538 6.71251 47.6427 6.90792 48.396 7.29875C49.1643 7.67457 49.7443 8.19316 50.1359 8.85455C50.5429 9.50094 50.8365 10.1849 51.0175 10.9064C51.1982 11.628 51.2885 12.4021 51.2885 13.2289ZM43.0174 11.2446H48.3054C48.2904 11.0492 48.2454 10.8463 48.17 10.6358C48.1097 10.4104 47.9967 10.1548 47.831 9.86922C47.6651 9.58362 47.4014 9.35063 47.0401 9.17023C46.6935 8.97481 46.2715 8.87712 45.7745 8.87712C45.2622 8.87712 44.8102 8.97481 44.4186 9.17023C44.042 9.35063 43.7556 9.59866 43.5597 9.9143C43.379 10.23 43.251 10.4855 43.1757 10.681C43.1154 10.8613 43.0627 11.0492 43.0174 11.2446Z" fill="#00AA86"/>
<path d="M52.0689 7.05072H54.6904V8.65164C55.2777 7.41901 56.4003 6.8027 58.0575 6.8027H58.2835V9.57609C56.4606 9.57609 55.3307 10.2676 54.8937 11.6505C54.7581 12.0714 54.6904 12.6877 54.6904 13.4994V18.3247H52.0689V7.05072Z" fill="#00AA86"/>
<path d="M61.5947 2.40586H64.5325V14.4916C64.5325 14.7922 64.5022 15.0928 64.4422 15.3935C64.3969 15.6941 64.2689 16.0549 64.0579 16.4758C63.8619 16.8816 63.5909 17.2424 63.2443 17.558C62.8977 17.8587 62.4007 18.1142 61.7527 18.3247C61.1051 18.5502 60.3442 18.6629 59.4702 18.6629C58.8226 18.6629 58.2046 18.5953 57.6173 18.46V15.5287C58.2953 15.6791 58.8226 15.7542 59.1992 15.7542C59.7415 15.7542 60.1858 15.6791 60.5325 15.5287C60.8791 15.3634 61.1201 15.1304 61.2557 14.8298C61.4064 14.5141 61.4967 14.236 61.5268 13.9955C61.5721 13.7399 61.5947 13.4168 61.5947 13.0259V2.40586Z" fill="#00AA86"/>
<path d="M79.3605 2.40586H82.0724V7.99775C82.9313 7.14091 84.0083 6.71251 85.3041 6.71251C86.6601 6.71251 87.8277 7.26117 88.8069 8.3585C89.7862 9.45586 90.2758 10.8764 90.2758 12.6201C90.2758 14.4991 89.7485 15.9797 88.6939 17.062C87.6543 18.1293 86.4717 18.6629 85.1458 18.6629C83.9556 18.6629 82.9236 18.1593 82.0497 17.1522V18.3247H79.3605V2.40586ZM82.0273 12.4171C82.0273 13.6047 82.2757 14.5141 82.773 15.1454C83.2703 15.7768 83.9406 16.0924 84.7842 16.0924C85.5528 16.0924 86.1931 15.7693 86.7051 15.1229C87.2324 14.4765 87.496 13.5746 87.496 12.4171C87.496 11.5754 87.2477 10.8238 86.7504 10.1624C86.2684 9.50094 85.5751 9.17023 84.6712 9.17023C83.8729 9.17023 83.2326 9.4784 82.7503 10.0947C82.2683 10.711 82.0273 11.4851 82.0273 12.4171Z" fill="#00AA86"/>
<path d="M75.1215 6.81329C73.8168 6.91048 72.6413 7.94366 71.998 8.6998C71.3557 7.94925 70.1801 6.91048 68.8754 6.81329C66.5858 6.64351 65.2891 8.13131 65.2891 10.4859C65.2891 12.3691 66.5235 14.1718 68.2575 15.94C69.7861 17.5037 71.9945 19.1111 71.9945 19.1111C71.9945 19.1111 74.2032 17.4992 75.733 15.94C77.4655 14.1718 78.7002 12.3691 78.7002 10.4859C78.7035 8.12907 77.4111 6.64127 75.1215 6.81329Z" fill="#00AA86"/>
</svg>
