<svg xmlns="http://www.w3.org/2000/svg" width="24" height="24" viewBox="0 0 24 24" fill="none"><rect width="24" height="24" fill="none"/>
<path d="M17 2H7C4.23858 2 2 4.23858 2 7V17C2 19.7614 4.23858 22 7 22H17C19.7614 22 22 19.7614 22 17V7C22 4.23858 19.7614 2 17 2Z" fill="#844BEC"/>
<path d="M16.0625 5.4375H7.9375C6.55679 5.4375 5.4375 6.55679 5.4375 7.9375V16.0625C5.4375 17.4432 6.55679 18.5625 7.9375 18.5625H16.0625C17.4432 18.5625 18.5625 17.4432 18.5625 16.0625V7.9375C18.5625 6.55679 17.4432 5.4375 16.0625 5.4375Z" fill="white"/>
<path d="M13.1766 11.9237C13.683 11.4167 14.5045 11.4165 15.0112 11.9231L16.6997 13.6116L16.7244 13.6389C16.8395 13.7801 16.8313 13.9884 16.6997 14.1199C16.5681 14.2515 16.3599 14.2596 16.2188 14.1445L16.1914 14.1199L14.5031 12.4314C14.2772 12.2055 13.9109 12.2057 13.6852 12.4317L10.3675 15.7538C10.2272 15.8943 9.99963 15.8944 9.85919 15.7541C9.71879 15.6139 9.71855 15.3864 9.85874 15.246L13.1766 11.9237ZM13.9447 8.24604C14.085 8.1056 14.3126 8.10534 14.453 8.24558C14.5934 8.38582 14.5935 8.61341 14.4533 8.75385L11.1356 12.0761C10.6292 12.5832 9.80757 12.5835 9.30087 12.0768L7.61249 10.3882C7.47214 10.2479 7.47214 10.0203 7.61249 9.87995C7.75282 9.73968 7.98028 9.73968 8.12061 9.87995L9.80914 11.5685L9.83066 11.5889C10.0577 11.7941 10.4083 11.7872 10.627 11.5682L13.9447 8.24604Z" fill="#222222"/>
</svg>
