<svg xmlns="http://www.w3.org/2000/svg" width="24" height="24" viewBox="0 0 24 24" fill="none"><rect width="24" height="24" fill="none"/>
<path fill-rule="evenodd" clip-rule="evenodd" d="M4.698 21.9925H13.6186L4.18052 19.4167C3.69235 19.2831 3.24132 19.036 2.86294 18.6949C2.48456 18.3538 2.18916 17.9279 2 17.4509V19.2451C2.00207 19.9751 2.28798 20.6746 2.79525 21.1908C3.30253 21.707 3.98995 21.9979 4.70734 22L4.698 21.9925ZM4.68522 4.63074C3.97243 4.63706 3.2908 4.92901 2.78814 5.4433C2.28548 5.95759 2.0023 6.65277 2 7.3781V14.8291L4.68522 4.63074Z" fill="#333333"/>
<path fill-rule="evenodd" clip-rule="evenodd" d="M19.6269 17.1979L21.9097 8.53175C22.0929 7.82696 21.995 7.07703 21.6373 6.44536C21.2796 5.81368 20.6911 5.35143 19.9999 5.15931L18.2799 4.69025C18.6978 4.9979 19.0383 5.40179 19.2736 5.86893C19.5088 6.33607 19.6321 6.85321 19.6333 7.3781V17.1904L19.6269 17.1979ZM15.9308 4.05767L8.73124 2.09191C8.0386 1.90546 7.30162 2.00507 6.68084 2.36905C6.06005 2.73303 5.60578 3.33189 5.41698 4.03517L5.4096 4.05017H15.9235L15.9308 4.05767Z" fill="#0DB14B"/>
<path fill-rule="evenodd" clip-rule="evenodd" d="M16.3554 21.9925C16.6729 21.994 16.9879 21.936 17.2847 21.8215C17.6846 21.6669 18.0447 21.4217 18.3375 21.1044C18.6303 20.7871 18.8483 20.406 18.9748 19.9902C19.0373 19.7474 19.0644 19.4965 19.0554 19.2456V7.3856C19.0533 6.6557 18.7675 5.9563 18.2603 5.44013C17.7531 4.92397 17.0659 4.63299 16.3485 4.63074H5.26316L2.40249 15.4932C2.21925 16.198 2.31714 16.9479 2.67485 17.5796C3.03255 18.2112 3.62108 18.6735 4.31222 18.8656L15.5726 21.933C15.8272 21.9901 16.0884 22.0101 16.3485 21.9925H16.3554Z" fill="#0DB14B"/>
</svg>
