<svg xmlns="http://www.w3.org/2000/svg" width="100" height="24" viewBox="0 0 100 24" fill="none"><rect width="100" height="24" fill="none"/>
<path d="M8.65025 10.4793L12.5738 16.3179H10.3772L6.99904 11.3379H5.37815V16.3179H3.45427V7.09163H2L2.96951 5.23389H5.37815V9.62065H6.99904L10.2105 5.23389H12.392L8.65025 10.4793ZM11.983 12.3214C11.983 11.4576 12.1748 10.703 12.5586 10.0578C12.9323 9.45411 13.4423 8.99101 14.0886 8.66837C14.735 8.34572 15.4318 8.18442 16.1791 8.18442C16.9467 8.18442 17.6385 8.34053 18.2545 8.65276C18.9009 8.97541 19.4109 9.45411 19.7845 10.089C20.1582 10.7134 20.345 11.4576 20.345 12.3214C20.345 13.1956 20.1582 13.9502 19.7845 14.585C19.4109 15.2095 18.9009 15.6934 18.2545 16.0369C17.6182 16.3699 16.9265 16.5364 16.1791 16.5364C15.4419 16.5364 14.7501 16.3699 14.1038 16.0369C13.4474 15.7039 12.9272 15.2199 12.5435 14.585C12.1698 13.9397 11.983 13.1852 11.983 12.3214ZM44.6586 8.43423H46.3704V9.51135C46.633 9.09507 46.9814 8.77766 47.4157 8.55907C47.86 8.33011 48.4306 8.21563 49.1274 8.21563C49.8445 8.21563 50.4808 8.38217 51.0362 8.71518C51.5714 9.05862 51.9855 9.5478 52.2784 10.1827C52.5813 10.8071 52.7328 11.5252 52.7328 12.337C52.7328 13.1592 52.5813 13.8877 52.2784 14.5226C51.9855 15.147 51.5714 15.631 51.0362 15.9744C50.7837 16.1513 50.4858 16.2814 50.1424 16.3647C49.8092 16.4584 49.4708 16.5052 49.1274 16.5052C48.5316 16.5052 48.0873 16.4584 47.7944 16.3647C47.1885 16.1774 46.7592 15.8651 46.5067 15.428V19.1123H44.6586V8.43423ZM21.3297 8.43423H23.1627V11.4316H26.2985V8.43423H28.1163V16.3179H26.2985V12.9927H23.1627V16.3179H21.3297V8.43423ZM28.9192 8.43423H35.9633V9.93287H33.3577V16.3179H31.4944V9.93287H28.9192V8.43423ZM38.4931 8.43423C39.1798 10.37 39.806 12.285 40.3716 14.1791C40.9068 12.3058 41.5127 10.3908 42.1894 8.43423H44.0375L41.2199 16.474C40.9876 17.1297 40.7654 17.6344 40.5533 17.9883C40.321 18.3422 40.0332 18.6075 39.6898 18.7845C39.3566 18.9718 38.9122 19.0655 38.3568 19.0655C38.0437 19.0655 37.872 19.0602 37.8417 19.0499L37.2206 17.5512C37.4125 17.5928 37.6498 17.6136 37.9326 17.6136C38.276 17.6136 38.5537 17.5616 38.7658 17.4575C38.9577 17.3742 39.1041 17.2597 39.2051 17.114C39.3061 16.9788 39.3919 16.807 39.4626 16.5989L36.5541 8.43423H38.4931ZM13.8462 12.3058C13.8462 13.1696 14.0482 13.8305 14.4522 14.2884C14.8562 14.736 15.4167 14.9597 16.1337 14.9597C16.8608 14.9597 17.4264 14.736 17.8304 14.2884C18.2444 13.8305 18.4514 13.1696 18.4514 12.3058C18.4514 11.4628 18.2494 10.8279 17.8455 10.4012C17.4415 9.96408 16.8709 9.74555 16.1337 9.74555C15.4066 9.74555 14.841 9.96408 14.437 10.4012C14.0432 10.8279 13.8462 11.4628 13.8462 12.3058ZM46.4613 12.3214C46.4815 13.1019 46.6835 13.7264 47.0673 14.1947C47.451 14.6631 47.9913 14.8973 48.6881 14.8973C49.385 14.8973 49.9202 14.6631 50.2939 14.1947C50.6777 13.7264 50.8746 13.1019 50.8847 12.3214C50.8746 11.5512 50.6777 10.9372 50.2939 10.4793C49.9202 10.011 49.385 9.77676 48.6881 9.77676C47.9913 9.77676 47.451 10.0057 47.0673 10.4636C46.6835 10.9216 46.4815 11.5408 46.4613 12.3214Z" fill="#222222"/>
<path d="M66.4608 10.833C66.4608 11.6208 66.3296 12.358 66.0666 13.0448C65.8042 13.7215 65.4253 14.3174 64.9306 14.8324C64.4358 15.3475 63.8448 15.7414 63.1581 16.0141C62.4714 16.2868 61.7137 16.4232 60.886 16.4232C60.0473 16.4232 59.2852 16.2868 58.5979 16.0141C57.9113 15.7313 57.3257 15.3324 56.8408 14.8173C56.346 14.3123 55.9672 13.7215 55.7046 13.0448C55.442 12.358 55.3107 11.6208 55.3107 10.833V10.7724C55.3107 9.99472 55.442 9.27257 55.7046 8.60601C55.9775 7.92934 56.3608 7.3284 56.8561 6.80322C57.3509 6.28814 57.9419 5.89425 58.6286 5.62156C59.3152 5.34887 60.0675 5.21252 60.886 5.21252C61.7241 5.21252 62.4867 5.34887 63.1734 5.62156C63.8601 5.89425 64.4511 6.28814 64.9459 6.80322C65.4406 7.3082 65.8146 7.89906 66.0666 8.57572C66.3296 9.25239 66.4608 9.98461 66.4608 10.7724V10.833ZM56.7347 10.833C56.7347 11.6915 56.9113 12.4489 57.2651 13.1054C57.6182 13.7821 58.1032 14.3022 58.7193 14.6658C59.3453 15.0294 60.0675 15.2112 60.886 15.2112C61.7137 15.2112 62.4359 15.0294 63.052 14.6658C63.6884 14.3022 64.1783 13.7922 64.5216 13.1357C64.8649 12.4691 65.0366 11.7016 65.0366 10.833V10.7724C65.0366 9.91392 64.8649 9.16148 64.5216 8.51509C64.1783 7.84854 63.6884 7.33345 63.052 6.96986C62.426 6.60628 61.7038 6.42448 60.886 6.42448C60.0779 6.42448 59.3606 6.60628 58.7346 6.96986C58.1081 7.34355 57.6182 7.86368 57.2651 8.53024C56.9113 9.18673 56.7347 9.93409 56.7347 10.7724V10.833ZM71.5666 9.60585V16.1959H70.2638V9.60585H67.5821V8.54544H74.2482V9.60585H71.5666ZM82.1297 14.8627C81.5939 15.4182 81.0586 15.8172 80.5234 16.0595C79.9882 16.2918 79.3622 16.408 78.6449 16.408C77.8369 16.408 77.1349 16.2413 76.5395 15.9081C75.9332 15.5748 75.4636 15.1051 75.1306 14.4992C74.7971 13.8932 74.6304 13.1862 74.6304 12.3782C74.6304 11.6107 74.7922 10.9138 75.1153 10.2876C75.4483 9.67151 75.908 9.19176 76.4936 8.84843C77.0895 8.50503 77.7816 8.33331 78.5695 8.33331C79.6804 8.33331 80.5436 8.66156 81.1598 9.31805C81.7858 9.9745 82.0991 10.8784 82.0991 12.0298C82.0991 12.1005 82.0892 12.2873 82.069 12.5903H75.9786C76.0294 13.1357 76.1557 13.6053 76.3575 13.9992C76.5794 14.4133 76.8878 14.7365 77.2814 14.9688C77.6756 15.2011 78.1501 15.3172 78.7056 15.3172C79.231 15.3172 79.6951 15.2213 80.0992 15.0294C80.5136 14.8375 80.9324 14.5143 81.3566 14.0598L82.1297 14.8627ZM80.8569 11.6359C80.8263 10.939 80.6043 10.3886 80.1905 9.98461C79.7865 9.57053 79.2408 9.36349 78.5541 9.36349C77.8773 9.36349 77.312 9.57053 76.8571 9.98461C76.4028 10.3886 76.1251 10.939 76.024 11.6359H80.8569ZM82.5545 15.0749C82.7059 15.1153 82.8672 15.1354 83.0389 15.1354C83.3215 15.1354 83.5336 15.0597 83.6752 14.9082C83.8168 14.7466 83.9125 14.4739 83.9634 14.0901C84.0137 13.6559 84.0492 13.0953 84.0694 12.4085L84.1602 8.54544H89.8258V16.1959H88.523V9.60585H85.3263L85.2509 12.4994C85.2203 13.5397 85.1546 14.3022 85.054 14.787C84.9425 15.3122 84.7408 15.6909 84.4477 15.9232C84.1651 16.1555 83.7359 16.2717 83.1602 16.2717L82.8573 16.2413L82.5545 16.1808V15.0749ZM91.6403 8.54544H92.9431V11.0602H94.9578C95.8364 11.0602 96.5384 11.2925 97.0637 11.7571C97.5891 12.2217 97.8516 12.8479 97.8516 13.6356C97.8516 14.4133 97.5891 15.0345 97.0637 15.499C96.5384 15.9636 95.8364 16.1959 94.9578 16.1959H91.6403V8.54544ZM94.7457 15.1354C95.9277 15.1354 96.5181 14.6355 96.5181 13.6356C96.5181 12.6357 95.9277 12.1358 94.7457 12.1358H92.9431V15.1354H94.7457Z" fill="#2291FF"/>
</svg>
