<svg xmlns="http://www.w3.org/2000/svg" width="65" height="24" viewBox="0 0 65 24" fill="none"><rect width="65" height="24" fill="none"/>
<path d="M4.65845 18.9999C5.80334 18.9999 6.73143 18.0718 6.73143 16.9269C6.73143 16.6841 6.68971 16.4511 6.61303 16.2346C6.3281 15.4302 5.56058 14.8539 4.65845 14.8539C3.51357 14.8539 2.58547 15.782 2.58547 16.9269C2.58547 17.143 2.61853 17.3513 2.67987 17.5472C2.94353 18.3891 3.72965 18.9999 4.65845 18.9999Z" fill="white"/>
<path fill-rule="evenodd" clip-rule="evenodd" d="M6.61303 16.2346L2.72897 17.6839C2.71233 17.6385 2.69597 17.5929 2.67987 17.5472C2.61853 17.3513 2.58547 17.143 2.58547 16.9269C2.58547 15.782 3.51357 14.8539 4.65845 14.8539C5.56058 14.8539 6.3281 15.4302 6.61303 16.2346Z" fill="white"/>
<path d="M6.61418 16.2342L6.60309 16.2031C6.31414 15.388 6.1535 14.4934 6.1535 13.54C6.1535 9.24631 9.41184 6.14256 12.9771 6.14256C14.8114 6.14256 16.5523 6.95233 17.8212 8.33392L17.9665 8.497L17.9781 8.5086C17.9831 8.51355 17.9881 8.51848 17.9931 8.52337C18.3675 8.8884 18.8797 9.11338 19.4447 9.11338C20.5916 9.11338 21.5214 8.18604 21.5214 7.04209C21.5214 6.50728 21.321 6.01714 20.9874 5.64963C18.9846 3.40341 16.1367 2 12.9771 2C6.91461 2 2 7.16663 2 13.54C2 14.8536 2.20878 16.116 2.59336 17.2924C2.62127 17.3778 2.65011 17.4627 2.67987 17.5472C2.61853 17.3513 2.58547 17.143 2.58547 16.9269C2.58547 15.782 3.51357 14.8539 4.65845 14.8539C5.56058 14.8539 6.3281 15.4302 6.61303 16.2346L6.61418 16.2342Z" fill="white" fill-opacity="0.2"/>
<path d="M12.9655 19.0403C9.89115 19.0403 7.84837 16.1327 7.84834 13.4054C7.84831 10.678 9.85498 7.83883 12.9655 7.83883C16.0844 7.83883 18.0826 10.6736 18.0827 13.4054C18.0827 16.1371 16.0403 19.0403 12.9655 19.0403ZM12.9655 17.2392C15.0458 17.2392 16.3046 15.1696 16.3046 13.4054C16.3046 11.6411 15.0386 9.63991 12.9655 9.63991C10.8924 9.63991 9.62643 11.6411 9.62646 13.4054C9.62649 15.1696 10.8852 17.2392 12.9655 17.2392Z" fill="white"/>
<path d="M22.9736 10.4036C25.0806 10.4036 26.0005 12.2037 26.0005 14.1005V18.935H24.3038V14.3533C24.3038 13.2443 23.845 12.1257 22.58 12.1257C21.1513 12.1257 20.5576 13.4024 20.5576 14.6693V18.935H18.8609V11.0934L20.4761 10.4983V11.5885C21.0371 10.8091 21.9058 10.4036 22.9736 10.4036Z" fill="white"/>
<path d="M30.7479 17.3709C31.5351 17.3709 32.1912 17.0655 32.7159 16.4546L33.6118 17.6711C33.2951 18.124 32.8878 18.4663 32.3902 18.698C31.8926 18.9297 31.3313 19.0456 30.7071 19.0456C29.9108 19.0456 29.2095 18.8613 28.6032 18.4926C27.9969 18.124 27.5264 17.6132 27.1916 16.9601C26.8658 16.2966 26.7029 15.5488 26.7029 14.7167C26.7029 13.8951 26.8613 13.1578 27.178 12.5048C27.5038 11.8413 27.9472 11.3252 28.5082 10.9565C29.0783 10.5879 29.7208 10.4036 30.4357 10.4036C31.1143 10.4036 31.7296 10.5774 32.2816 10.9249C32.8425 11.262 33.2861 11.7517 33.6118 12.3942C33.9374 13.0262 34.1004 13.7687 34.1004 14.6219L28.5489 15.8858C28.7208 16.3703 28.9968 16.7389 29.3769 16.9917C29.7568 17.2445 30.2139 17.3709 30.7479 17.3709ZM30.4357 11.9835C29.8112 11.9835 29.3045 12.2204 28.9154 12.6944C28.5353 13.1684 28.3453 13.8056 28.3453 14.6061V14.6219L32.4445 13.7055C32.3269 13.1895 32.0871 12.7734 31.7251 12.4574C31.3722 12.1414 30.9424 11.9835 30.4357 11.9835Z" fill="white"/>
<path d="M38.2959 19.093C37.5629 19.093 36.8525 18.9719 36.1649 18.7296C35.4863 18.4874 34.9479 18.1661 34.5496 17.7659L35.1604 16.1702C35.5496 16.5283 36.0245 16.8232 36.5857 17.0549C37.1557 17.2761 37.7259 17.3867 38.2959 17.3867C39.0018 17.3867 39.5264 17.2551 39.8704 16.9917C40.2233 16.7284 40.3998 16.3808 40.3998 15.949C40.3998 15.633 40.3002 15.375 40.1012 15.1748C39.9112 14.9642 39.6669 14.8009 39.3683 14.6851C39.0696 14.5692 38.6623 14.4376 38.1467 14.2901C37.4228 14.09 36.8345 13.8899 36.3819 13.6898C35.9386 13.4896 35.5541 13.1789 35.2282 12.7576C34.9116 12.3258 34.7531 11.7465 34.7531 11.0197C34.7531 10.4088 34.8935 9.85585 35.1739 9.36081C35.4635 8.85525 35.8933 8.45501 36.4636 8.16012C37.0425 7.8652 37.7484 7.71774 38.581 7.71774C39.16 7.71774 39.7302 7.80198 40.2912 7.97052C40.8521 8.13903 41.3363 8.38129 41.7435 8.69726L41.1871 10.293C40.7708 10.0086 40.3365 9.79266 39.8839 9.6452C39.4316 9.49774 38.9925 9.42403 38.5672 9.42403C37.8706 9.42403 37.3502 9.56093 37.0065 9.8348C36.6716 10.1086 36.5041 10.472 36.5041 10.9249C36.5041 11.2409 36.5992 11.499 36.7892 11.6991C36.9882 11.8992 37.237 12.0572 37.5356 12.173C37.8343 12.2889 38.2416 12.4205 38.7575 12.568C39.4631 12.7576 40.0424 12.9577 40.4947 13.1684C40.9473 13.3685 41.3317 13.6792 41.6484 14.1005C41.9743 14.5218 42.137 15.0906 42.137 15.8068C42.137 16.4177 41.9923 16.9707 41.7027 17.4657C41.4224 17.9607 40.9926 18.3557 40.4133 18.6506C39.8341 18.9455 39.1284 19.093 38.2959 19.093Z" fill="white"/>
<path d="M46.9849 10.4036C49.347 10.4036 50.6634 12.5481 50.6634 14.7167C50.6634 16.8902 49.3568 19.0456 46.9849 19.0456C46.0077 19.0456 45.234 18.6664 44.664 17.9081L44.6367 21.4049L42.9673 22V11.0934L44.5824 10.4983V11.6043C45.1385 10.8109 46.0252 10.4036 46.9849 10.4036ZM46.795 17.3551C48.2183 17.3551 48.9394 15.991 48.9394 14.7167C48.9394 13.4424 48.2183 12.0783 46.795 12.0783C45.3747 12.0783 44.6367 13.4436 44.6367 14.7167C44.6367 15.9987 45.3702 17.3551 46.795 17.3551Z" fill="white"/>
<path d="M54.987 19.0456C52.5982 19.0456 51.1323 16.958 51.1323 14.7167C51.1323 12.4806 52.6083 10.4036 54.987 10.4036C57.3639 10.4036 58.8554 12.4737 58.8554 14.7167C58.8554 16.9651 57.3741 19.0456 54.987 19.0456ZM54.987 17.3551C56.4157 17.3551 57.1452 15.9991 57.1452 14.7167C57.1452 13.4342 56.4157 12.0783 54.987 12.0783C53.5529 12.0783 52.8425 13.4338 52.8425 14.7167C52.8425 15.9996 53.5529 17.3551 54.987 17.3551Z" fill="white"/>
<path d="M63.6791 18.4768C63.4798 18.6664 63.2355 18.8086 62.9462 18.9034C62.6656 18.9982 62.3669 19.0456 62.0503 19.0456C61.254 19.0456 60.6388 18.8034 60.2042 18.3188C59.7699 17.8343 59.5529 17.1286 59.5529 16.2018V9.22917L61.2495 8.63407V10.5615H63.1905V12.1414H61.2495V16.1544C61.2495 16.5652 61.3354 16.8811 61.5074 17.1023C61.6883 17.313 61.9371 17.4183 62.2538 17.4183C62.6341 17.4183 62.9507 17.3025 63.204 17.0707L63.6791 18.4768Z" fill="white"/>
</svg>
