<svg xmlns="http://www.w3.org/2000/svg" width="24" height="24" viewBox="0 0 24 24" fill="none"><rect width="24" height="24" fill="none"/>
<path d="M9.43675 8.96948C9.09157 8.96948 8.81175 9.2493 8.81175 9.59448C8.81175 9.93966 9.09157 10.2195 9.43675 10.2195H13.1868C13.5319 10.2195 13.8118 9.93966 13.8118 9.59448C13.8118 9.2493 13.5319 8.96948 13.1868 8.96948H9.43675Z" fill="#222222"/>
<path fill-rule="evenodd" clip-rule="evenodd" d="M6.59061 3.66025C6.89136 2.67392 7.80136 2 8.83248 2H18.6555C19.9499 2 20.9992 3.04933 20.9992 4.34375V19.6562C20.9992 20.9507 19.9499 22 18.6555 22H4.16405C2.58968 22 1.46305 20.4787 1.92218 18.9727L6.59061 3.66025ZM10.4524 6.37524C10.4524 6.03007 10.7322 5.75024 11.0774 5.75024H15.5305C16.1346 5.75024 16.6243 6.23994 16.6243 6.84399V15.125H17.5551C18.1354 15.125 18.5486 15.6881 18.3751 16.2414L17.7355 18.2808C17.6323 18.6101 17.2815 18.7934 16.9522 18.6901C16.6228 18.5868 16.4395 18.2361 16.5428 17.9067L17.0232 16.375H16.0169L15.9993 16.3752L15.9816 16.375H7.94404L8.42442 17.9067C8.52772 18.2361 8.34446 18.5868 8.0151 18.6901C7.68574 18.7934 7.335 18.6101 7.23171 18.2808L6.59215 16.2415C6.41869 15.6882 6.8319 15.125 7.41213 15.125H15.3743V7.00024H11.0774C10.7322 7.00024 10.4524 6.72042 10.4524 6.37524ZM8.10863 12.592C8.10863 12.2469 8.38845 11.967 8.73363 11.967H13.1868C13.5319 11.967 13.8118 12.2469 13.8118 12.592C13.8118 12.9372 13.5319 13.217 13.1868 13.217H8.73363C8.38845 13.217 8.10863 12.9372 8.10863 12.592ZM8.81175 9.59448C8.81175 9.2493 9.09157 8.96948 9.43675 8.96948H13.1868C13.5319 8.96948 13.8118 9.2493 13.8118 9.59448C13.8118 9.93966 13.5319 10.2195 13.1868 10.2195H9.43675C9.09157 10.2195 8.81175 9.93966 8.81175 9.59448Z" fill="white"/>
<path fill-rule="evenodd" clip-rule="evenodd" d="M15.9993 16.3752L15.9816 16.375H16.0169L15.9993 16.3752Z" fill="#222222"/>
<path d="M8.73363 11.967C8.38845 11.967 8.10863 12.2469 8.10863 12.592C8.10863 12.9372 8.38845 13.217 8.73363 13.217H13.1868C13.5319 13.217 13.8118 12.9372 13.8118 12.592C13.8118 12.2469 13.5319 11.967 13.1868 11.967H8.73363Z" fill="#222222"/>
<path d="M11.0774 5.75024C10.7322 5.75024 10.4524 6.03007 10.4524 6.37524C10.4524 6.72042 10.7322 7.00024 11.0774 7.00024H15.3743V15.125H7.41213C6.8319 15.125 6.41869 15.6882 6.59215 16.2415L7.23171 18.2808C7.335 18.6101 7.68574 18.7934 8.0151 18.6901C8.34446 18.5868 8.52772 18.2361 8.42442 17.9067L7.94404 16.375H15.9816H16.0169H17.0232L16.5428 17.9067C16.4395 18.2361 16.6228 18.5868 16.9522 18.6901C17.2815 18.7934 17.6323 18.6101 17.7355 18.2808L18.3751 16.2414C18.5486 15.6881 18.1354 15.125 17.5551 15.125H16.6243V6.84399C16.6243 6.23994 16.1346 5.75024 15.5305 5.75024H11.0774Z" fill="#222222"/>
</svg>
