<svg xmlns="http://www.w3.org/2000/svg" width="24" height="24" viewBox="0 0 24 24" fill="none"><rect width="24" height="24" fill="none"/>
<path fill-rule="evenodd" clip-rule="evenodd" d="M7.26346 20.8799L8.0876 21.6441C8.61205 22.1236 9.42119 22.1236 9.93065 21.6141C10.4251 21.1196 10.9196 20.6102 11.3392 20.0558C11.7737 19.5163 12.0734 18.842 12.2682 18.1977C12.433 17.7182 12.4031 17.1488 12.3581 16.6543C12.3131 16.2198 12.1183 15.7253 11.9086 15.3507C11.459 14.4966 10.7248 13.7174 10.0056 13.0432C9.00164 12.1141 7.98271 11.3799 7.44328 10.0463C7.27845 9.6717 7.15858 9.16224 7.15858 8.75767C7.14359 8.27817 7.24848 7.84363 7.42829 7.3941C7.8029 6.43511 8.41725 5.71587 9.1215 5.08653C9.70589 4.56208 9.70589 3.66303 9.13649 3.1236L8.34233 2.37439C7.84785 1.90988 7.06867 1.89489 6.5592 2.32943C6.22955 2.61414 5.91489 2.89884 5.6152 3.22849C4.65621 4.30735 3.89202 5.85073 4.16173 7.34915C4.32656 8.29315 4.70117 9.20719 5.30054 9.98637C5.92987 10.8405 6.81394 11.4548 7.59312 12.1891C8.49217 13.0432 9.45117 14.182 9.37625 15.4856C9.33129 16.0849 9.12151 16.5944 8.77687 17.1039C8.32735 17.7932 7.78792 18.3775 7.2335 18.9319C6.69407 19.4864 6.70905 20.3555 7.26346 20.8799Z" fill="#000000"/>
<path fill-rule="evenodd" clip-rule="evenodd" d="M10.9947 20.8805L11.8338 21.6447C12.3583 22.1242 13.1674 22.1092 13.6769 21.5997C14.1713 21.1053 14.6658 20.5958 15.1004 20.0564C15.5049 19.5169 15.8346 18.8426 16.0294 18.1983C16.1642 17.7188 16.1643 17.1494 16.1193 16.6549C16.0744 16.2204 15.8796 15.7259 15.6698 15.3513C15.2202 14.4972 14.4561 13.718 13.7668 13.0437C12.7479 12.1147 11.7439 11.3805 11.1745 10.0469C11.0247 9.67229 10.9198 9.16283 10.8898 8.75826C10.8748 8.27876 10.9647 7.84422 11.1595 7.39469C11.5641 6.4357 12.1635 5.71646 12.8827 5.07214C13.4671 4.54769 13.4671 3.64864 12.8977 3.10921L12.1035 2.36C11.6091 1.89549 10.8449 1.8805 10.3204 2.31504C9.97577 2.59974 9.6611 2.89943 9.36142 3.22908C8.38744 4.29296 7.65321 5.83633 7.89296 7.33476C8.05778 8.27876 8.46236 9.1928 9.03176 9.97198C9.69107 10.8411 10.5452 11.4554 11.3243 12.1896C12.2234 13.0437 13.1824 14.1825 13.1075 15.4862C13.0775 16.0855 12.8527 16.595 12.5381 17.1045C12.0736 17.7937 11.5341 18.3781 10.9647 18.9325C10.4253 19.472 10.4403 20.356 10.9947 20.8805Z" fill="#000000"/>
<path fill-rule="evenodd" clip-rule="evenodd" d="M14.741 20.8799L15.5651 21.6441C16.0896 22.1236 16.9137 22.1086 17.4232 21.6141C17.9176 21.1196 18.4121 20.6102 18.8317 20.0708C19.2662 19.5313 19.5659 18.857 19.7607 18.2127C19.9255 17.7332 19.9106 17.1638 19.8506 16.6693C19.8057 16.2348 19.6109 15.7403 19.4011 15.3657C18.9516 14.5116 18.2173 13.7324 17.4981 13.0581C16.4942 12.1291 15.4752 11.3949 14.9358 10.0613C14.771 9.6717 14.6511 9.17722 14.6511 8.77265C14.6211 8.27817 14.726 7.84363 14.9058 7.3941C15.2804 6.43511 15.8948 5.71587 16.599 5.08653C17.1834 4.56208 17.1834 3.66303 16.614 3.1236L15.8199 2.37439C15.3254 1.90988 14.5462 1.89489 14.0367 2.32943C13.7071 2.61414 13.3924 2.89884 13.0927 3.22849C12.1188 4.29237 11.3546 5.83574 11.6243 7.33416C11.7891 8.27817 12.1637 9.19221 12.7631 9.97139C13.4224 10.8405 14.2915 11.4548 15.0706 12.1891C15.9697 13.0432 16.9287 14.182 16.8538 15.4856C16.8088 16.0849 16.599 16.5944 16.2544 17.1039C15.8049 17.7932 15.2804 18.3775 14.711 18.9319C14.1716 19.4864 14.1866 20.3555 14.741 20.8799Z" fill="#000000"/>
</svg>
