<svg xmlns="http://www.w3.org/2000/svg" width="24" height="24" viewBox="0 0 24 24" fill="none"><rect width="24" height="24" fill="none"/>
<path d="M2.40789 9.81966C2.40789 9.81966 1.77672 12.6516 3.45321 13.5062C5.1297 14.3612 7.82168 13.8248 8.27611 13.1614C8.73033 12.4974 8.83514 12.0401 8.83514 12.0401V9.82554L2.40789 9.81966Z" fill="#6CC351"/>
<path d="M8.69843 9.82541C8.69843 9.82541 8.06726 12.6574 9.74375 13.512C11.4202 14.367 14.1123 13.8306 14.5665 13.1671C15.0209 12.5032 15.1257 12.0457 15.1257 12.0457V9.83129L8.69843 9.82541Z" fill="white"/>
<path d="M15.129 9.8313C15.129 9.8313 14.4978 12.6633 16.1743 13.518C17.8505 14.3728 20.5429 13.8364 20.9971 13.173C21.4514 12.5091 21.5562 12.0517 21.5562 12.0517V9.83718L15.129 9.8313Z" fill="#E87722"/>
<path d="M21.928 9.85958C21.9038 9.66803 21.7291 9.53217 21.5373 9.55642C21.3461 9.58067 21.2101 9.75558 21.2346 9.94693C21.3222 10.6364 21.3237 11.2098 21.2386 11.6507C21.1519 12.1025 20.9761 12.4933 20.7163 12.8123L20.6987 12.8358C20.3063 13.3044 19.746 13.5884 19.0765 13.6571C18.9701 13.6682 18.4371 13.6948 18.3261 13.6947L18.2083 13.6946C18.0769 13.6945 17.6453 13.6649 17.5212 13.6495C16.3995 13.5106 15.6316 12.7799 15.4133 11.6453C15.0861 9.94287 16.1346 6.9447 16.1453 6.91456C16.2096 6.73245 16.1141 6.53278 15.9324 6.46845C15.7502 6.40352 15.5504 6.49909 15.4865 6.68091C15.4403 6.81097 14.3638 9.88768 14.727 11.7768C14.7466 11.878 14.7704 11.9762 14.7973 12.0731C14.4763 12.9701 13.7372 13.55 12.7504 13.6514C12.6439 13.6624 12.1108 13.689 12 13.6889L11.8822 13.6888C11.7505 13.6887 11.3193 13.6591 11.1949 13.6437C10.0735 13.5049 9.30538 12.7742 9.08725 11.6396C8.75964 9.93709 9.80851 6.93891 9.81917 6.90878C9.88359 6.72666 9.78812 6.52699 9.606 6.46267C9.42429 6.39774 9.22452 6.49331 9.1601 6.67512C9.11414 6.80519 8.03747 9.8819 8.40079 11.771C8.42037 11.8722 8.44441 11.9704 8.4711 12.0673C8.15008 12.9643 7.41076 13.5442 6.42429 13.6456C6.31766 13.6567 5.7847 13.6832 5.67401 13.6831L5.55591 13.683C5.42452 13.6829 4.99313 13.6534 4.86884 13.638C3.74712 13.4991 2.97919 12.7684 2.76095 11.6338C2.43375 9.93131 3.48222 6.93313 3.49307 6.903C3.5574 6.72088 3.46172 6.52121 3.27981 6.45689C3.09779 6.39195 2.89833 6.48753 2.8339 6.66934C2.78794 6.79941 1.71137 9.87611 2.0748 11.7653C2.34975 13.196 3.3623 14.1556 4.78311 14.3315C4.87828 14.3434 5.10016 14.3605 5.2906 14.3713V17.195C5.2906 17.388 5.44705 17.5447 5.64012 17.5449C5.8332 17.5451 5.98975 17.3888 5.98975 17.1957V14.3715C6.19002 14.3622 6.418 14.3489 6.49673 14.3408C7.52713 14.2348 8.34509 13.7221 8.83675 12.9168C9.31797 13.7037 10.1126 14.2136 11.1093 14.3373C11.2045 14.3492 11.4266 14.3663 11.6168 14.3771V17.2008C11.6168 17.3938 11.7733 17.5505 11.9664 17.5507C12.1595 17.5509 12.3157 17.3945 12.3157 17.2015V14.3774C12.5162 14.368 12.744 14.3547 12.8227 14.3465C13.8531 14.2406 14.6725 13.7294 15.1643 12.9248C15.6455 13.7102 16.4398 14.2194 17.4355 14.3431C17.5309 14.355 17.7529 14.3721 17.9429 14.3829V17.2065C17.9429 17.3996 18.0993 17.5563 18.2925 17.5565C18.4854 17.5567 18.6419 17.4003 18.6419 17.2072V14.3832C18.8424 14.3737 19.0704 14.3604 19.1489 14.3523C20.0079 14.2642 20.7324 13.891 21.2441 13.2736L21.2648 13.2461C21.5947 12.8382 21.817 12.3461 21.925 11.7834C22.0239 11.2699 22.025 10.6223 21.928 9.85958Z" fill="white"/>
</svg>
