<svg xmlns="http://www.w3.org/2000/svg" width="24" height="24" viewBox="0 0 24 24" fill="none"><rect width="24" height="24" fill="none"/>
<path d="M20.5714 6.14388L15.9071 8.8368C14.9908 9.36586 14.5326 9.63041 14.1578 9.63433C13.6368 9.63978 13.1541 9.36109 12.8983 8.90711C12.7143 8.58061 12.7143 8.05155 12.7143 6.99339V1.99976H11.2857V6.99339C11.2857 8.05155 11.2857 8.58061 11.1017 8.90711C10.8459 9.36109 10.3632 9.63978 9.84219 9.63433C9.46742 9.63041 9.00923 9.36586 8.09284 8.8368L3.42857 6.14388L2.71429 7.38103L6.03713 9.2995C6.92824 9.81399 7.37381 10.0712 7.46747 10.2892C7.59784 10.5927 7.50318 10.9459 7.23858 11.1435C7.04847 11.2855 6.53398 11.2855 5.50497 11.2855H2V12.714H5.50497C6.53398 12.714 7.04847 12.714 7.23858 12.856C7.50318 13.0536 7.59784 13.4069 7.46747 13.7103C7.37381 13.9283 6.92824 14.1855 6.03713 14.7L2.71429 16.6185L3.42857 17.8556L8.09287 15.1627C9.00923 14.6336 9.46742 14.3691 9.84219 14.3652C10.3632 14.3597 10.8459 14.6384 11.1017 15.0924C11.2857 15.4189 11.2857 15.948 11.2857 17.0061V21.9998H12.7143V17.0061C12.7143 15.948 12.7143 15.4189 12.8983 15.0924C13.1541 14.6384 13.6368 14.3597 14.1578 14.3652C14.5326 14.3691 14.9908 14.6336 15.9072 15.1627L20.5714 17.8556L21.2857 16.6185L17.9629 14.7C17.0718 14.1855 16.6262 13.9283 16.5325 13.7103C16.4022 13.4069 16.4968 13.0536 16.7614 12.856C16.9515 12.714 17.4661 12.714 18.495 12.714H22V11.2855H18.495C17.4661 11.2855 16.9515 11.2855 16.7614 11.1435C16.4968 10.9459 16.4022 10.5927 16.5325 10.2892C16.6262 10.0712 17.0718 9.81399 17.9629 9.2995L21.2857 7.38103L20.5714 6.14388Z" fill="white"/>
</svg>
