<svg xmlns="http://www.w3.org/2000/svg" width="24" height="24" viewBox="0 0 24 24" fill="none"><rect width="24" height="24" fill="none"/>
<path fill-rule="evenodd" clip-rule="evenodd" d="M21.9985 12C21.9985 17.5229 17.5214 22 11.9985 22C6.4757 22 1.99854 17.5229 1.99854 12C1.99854 6.47715 6.4757 2 11.9985 2C13.0775 2 14.1167 2.17091 15.0904 2.48713L12.8112 9.5H6.1552L5.34187 12H11.9987L10.0487 18H12.7987L14.7487 12H21.9985ZM21.6835 9.5H15.5612L17.4695 3.62798C17.6472 3.74432 17.8209 3.86615 17.9905 3.99325C18.0196 4.01508 18.0486 4.03706 18.0775 4.05919C18.1729 4.1323 18.2669 4.20709 18.3595 4.28351C19.9644 5.608 21.1491 7.42348 21.6835 9.5Z" fill="white"/>
<path fill-rule="evenodd" clip-rule="evenodd" d="M21.9985 12C21.9985 17.5229 17.5214 22 11.9985 22C6.4757 22 1.99854 17.5229 1.99854 12C1.99854 6.47715 6.4757 2 11.9985 2C13.0775 2 14.1167 2.17091 15.0904 2.48713L12.8112 9.5H6.1552L5.34187 12H11.9987L10.0487 18H12.7987L14.7487 12H21.9985ZM21.6835 9.5H15.5612L17.4695 3.62798C17.6472 3.74432 17.8209 3.86615 17.9905 3.99325C18.0196 4.01508 18.0486 4.03706 18.0775 4.05919C18.1729 4.1323 18.2669 4.20709 18.3595 4.28351C19.9644 5.608 21.1491 7.42348 21.6835 9.5Z" fill="white"/>
</svg>
