<svg xmlns="http://www.w3.org/2000/svg" width="115" height="24" viewBox="0 0 115 24" fill="none"><rect width="115" height="24" fill="none"/>
<path fill-rule="evenodd" clip-rule="evenodd" d="M58.2075 2.28623H53.8068L49.9249 21.7317H54.3256L58.2075 2.28623Z" fill="white"/>
<path fill-rule="evenodd" clip-rule="evenodd" d="M10.2826 2.28623H5.86404L2 21.7317H6.40072L10.2826 2.28623Z" fill="white"/>
<path fill-rule="evenodd" clip-rule="evenodd" d="M52.3757 2.28623H47.975L39.7639 15.7746L37.1878 2.28623H32.7871L36.5081 21.7317H40.551L52.3757 2.28623Z" fill="white"/>
<path fill-rule="evenodd" clip-rule="evenodd" d="M74.6655 2.28623H60.3005L59.5313 6.36494H64.5402L61.4812 21.7317H65.8819L68.941 6.36494H73.9141L74.6655 2.28623Z" fill="white"/>
<path fill-rule="evenodd" clip-rule="evenodd" d="M27.2952 2.28623L24.737 15.1485L17.9928 2.28623H14.2004L10.3184 21.7317H14.5581L17.1342 8.83363L23.8605 21.7317H27.6708L31.5528 2.28623H27.2952Z" fill="white"/>
<path fill-rule="evenodd" clip-rule="evenodd" d="M85.1485 2.28623H77.0805L73.1986 21.7317H77.5993L80.6583 6.38283H84.4687C85.3453 6.38283 86.0608 6.66905 86.5438 7.15206C86.9553 7.58139 87.1699 8.20751 87.1163 8.86941C86.9374 10.8193 85.3989 11.7138 83.3954 11.7138H80.1753L84.3077 21.7317H88.7084L85.9535 15.0769C89.2988 14.5403 91.3739 12.0894 91.5349 8.76207C91.7317 4.98748 88.9589 2.28623 85.1485 2.28623Z" fill="white"/>
<path d="M92.3757 12C92.6977 6.50805 97.2236 2 103.091 2C108.959 2 112.912 6.45438 112.59 12C112.268 17.492 107.742 22 101.875 22C96.0072 22 92.0537 17.5635 92.3757 12ZM108.476 12C108.673 8.69052 106.347 5.91771 102.805 5.91771C99.2809 5.91771 96.6691 8.61896 96.4544 12C96.2576 15.3095 98.5832 18.0823 102.125 18.0823C105.667 18.0823 108.279 15.381 108.476 12Z" fill="white"/>
</svg>
