<svg xmlns="http://www.w3.org/2000/svg" width="24" height="24" viewBox="0 0 24 24" fill="none"><rect width="24" height="24" fill="none"/>
<path d="M18.2164 12C18.2164 15.7207 15.248 18.4103 12.0001 18.4103C9.47339 18.4103 7.11584 16.7824 6.1935 14.3077L2.64406 15.5381L2.64958 15.5526C4.08237 19.3216 7.72848 22 12.0001 22C17.523 22 22.0001 17.5229 22.0001 12C22.0001 9.35556 20.9737 6.95086 19.2975 5.16258L19.2949 5.16492C19.5988 5.48336 19.784 5.90578 19.784 6.36922C19.784 7.3605 18.9369 8.16411 17.8921 8.16411C17.3774 8.16411 16.9108 7.96914 16.5697 7.65283C16.5651 7.64858 16.5605 7.64431 16.556 7.64003L16.5455 7.62997C17.561 8.74786 18.2164 10.2677 18.2164 12Z" fill="white" fill-opacity="0.32"/>
<path fill-rule="evenodd" clip-rule="evenodd" d="M12.0001 5.58975C8.75222 5.58975 5.78391 8.27931 5.78391 12C5.78391 12.8261 5.93024 13.6014 6.19346 14.3077L2.64459 15.5395C2.60853 15.4443 2.57387 15.3483 2.54066 15.2516C2.19032 14.2322 2.00012 13.1383 2.00012 12C2.00012 6.47717 6.47727 2 12.0001 2C14.779 2 17.2931 3.13347 19.1054 4.96331L19.2949 5.16492C19.5988 5.48336 19.784 5.90578 19.784 6.36922C19.784 7.3605 18.9369 8.16411 17.892 8.16411C17.3774 8.16411 16.9107 7.96914 16.5697 7.65283L16.556 7.64003L16.4131 7.48867C15.2571 6.29142 13.6711 5.58975 12.0001 5.58975Z" fill="white" fill-opacity="0.7"/>
<path d="M4.42251 16.8125C5.4595 16.8125 6.30014 15.9719 6.30014 14.9349C6.30014 13.8979 5.4595 13.0573 4.42251 13.0573C3.38553 13.0573 2.54488 13.8979 2.54488 14.9349C2.54488 15.9719 3.38553 16.8125 4.42251 16.8125Z" fill="white"/>
</svg>
