<svg xmlns="http://www.w3.org/2000/svg" width="24" height="24" viewBox="0 0 24 24" fill="none"><rect width="24" height="24" fill="none"/>
<path fill-rule="evenodd" clip-rule="evenodd" d="M2.99878 8.07103V15.9258C2.99878 16.6904 3.40699 17.3936 4.06592 17.7742L10.9477 21.7194C11.6003 22.0935 12.3974 22.0935 13.0499 21.7194L19.9317 17.7742C20.5906 17.3968 20.9988 16.6904 20.9988 15.9258V8.07103C20.9988 7.30647 20.5906 6.60322 19.9317 6.22577L13.0499 2.28064C12.3974 1.90645 11.6003 1.90645 10.9477 2.28064L4.06592 6.22577C3.40699 6.60322 2.99878 7.30973 2.99878 8.07103ZM9.43405 15.8602H10.8748V7.14969H9.43405V15.8602ZM13.7562 9.408H15.5492L13.0199 12.6342L15.5492 15.8602H13.7562L11.6112 12.9891V12.2793L13.7562 9.408Z" fill="#00A88E"/>
</svg>
