<svg xmlns="http://www.w3.org/2000/svg" width="24" height="24" viewBox="0 0 24 24" fill="none"><rect width="24" height="24" fill="none"/>
<path d="M5.36776 6.09299V11.4648H4.45789V6.86602H2.90986V11.4648H2V6.09299H5.36776Z" fill="white"/>
<path d="M7.0107 11.2526C6.73813 11.0062 6.5399 10.6907 6.43782 10.3407C6.28842 9.84943 6.21737 9.33837 6.22721 8.8257C6.21757 8.29873 6.28857 7.77335 6.43782 7.2672C6.53806 6.90565 6.73604 6.57762 7.0107 6.31801C7.25085 6.11532 7.55679 6.00391 7.87318 6.00391C8.18956 6.00391 8.4955 6.11532 8.73565 6.31801C9.01179 6.57529 9.20945 6.9033 9.30643 7.26512C9.45589 7.77195 9.5269 8.29804 9.51705 8.8257C9.52683 9.33905 9.45578 9.85078 9.30643 10.3427C9.20696 10.6929 9.01 11.0088 8.73776 11.2546C8.49286 11.4489 8.18776 11.5549 7.87318 11.5549C7.55859 11.5549 7.25349 11.4489 7.0086 11.2546L7.0107 11.2526ZM7.23395 9.89301C7.26955 10.1273 7.35729 10.3509 7.49092 10.5479C7.53299 10.6099 7.58955 10.6611 7.65588 10.6972C7.72221 10.7332 7.79638 10.7531 7.87213 10.7552C8.09748 10.7552 8.2744 10.5935 8.40499 10.2702C8.55609 9.80167 8.6217 9.31052 8.59876 8.81947C8.60454 8.44592 8.57494 8.07264 8.5103 7.70449C8.47632 7.46242 8.38937 7.2305 8.25545 7.02472C8.21787 6.95729 8.16255 6.90103 8.0953 6.86185C8.02805 6.82267 7.95133 6.802 7.87318 6.802C7.79502 6.802 7.7183 6.82267 7.65105 6.86185C7.5838 6.90103 7.52848 6.95729 7.49092 7.02472C7.3586 7.23072 7.27111 7.46147 7.23395 7.70242C7.16854 8.0698 7.13823 8.44238 7.1434 8.81533C7.13763 9.17661 7.16797 9.53756 7.23395 9.89301Z" fill="white"/>
<path d="M12.5221 6.09299V8.15302H12.0398C11.865 8.16245 11.6903 8.13121 11.5301 8.06183C11.4036 7.99577 11.3067 7.88567 11.2584 7.75303C11.194 7.56851 11.1648 7.37391 11.172 7.17896V6.09299H10.2622V7.17481C10.2357 7.64147 10.3774 8.10236 10.6623 8.47632C10.812 8.63984 10.9974 8.76773 11.2047 8.85032C11.4119 8.9329 11.6356 8.96801 11.8586 8.95299H12.5221V11.4648H13.4319V6.09299H12.5221Z" fill="white"/>
<path d="M17.4226 6.86602H16.3548V11.4648H15.445V6.86602H14.3771V6.09299H17.4226V6.86602Z" fill="white"/>
<path d="M19.9843 6.09221C20.2846 6.07624 20.5831 6.14837 20.8415 6.29945C21.0672 6.44784 21.2426 6.65934 21.3451 6.90669C21.4703 7.21355 21.5489 7.53685 21.5788 7.86624L22 11.4537H21.0902L20.7953 8.94807H19.2514V11.464H18.3416V6.09221H19.9843ZM19.2556 8.18539H20.709L20.6711 7.87659C20.6542 7.67817 20.6124 7.48257 20.5467 7.29424C20.5006 7.16752 20.4103 7.06101 20.2918 6.99373C20.1391 6.92166 19.9702 6.88886 19.8011 6.89839H19.2556V8.18539Z" fill="white"/>
<path d="M3.00254 12.5344C3.3059 12.5265 3.60531 12.6034 3.86606 12.7562C4.12172 12.9163 4.32102 13.15 4.43683 13.4256C4.58479 13.7767 4.65653 14.1544 4.64745 14.5343C4.65682 14.8938 4.59161 15.2513 4.4558 15.5851C4.35518 15.8415 4.19252 16.0698 3.98191 16.2503C3.8395 16.3824 3.65481 16.4615 3.45957 16.4742C3.35845 16.4811 3.257 16.4662 3.16238 16.4304C3.06776 16.3946 2.98228 16.3388 2.91197 16.2669V17.9062H2V12.5344H3.00254ZM2.96252 15.3157C2.98495 15.4117 3.03127 15.5007 3.09731 15.5747C3.11883 15.6008 3.14573 15.622 3.17624 15.637C3.20675 15.652 3.24015 15.6605 3.27423 15.6618C3.35418 15.6574 3.42946 15.6233 3.48485 15.5664C3.56991 15.4794 3.63083 15.3724 3.66176 15.2556C3.71293 15.077 3.73637 14.8918 3.73127 14.7063C3.73127 14.2048 3.67019 13.8504 3.54382 13.6432C3.49209 13.5474 3.4142 13.4678 3.31894 13.4132C3.22367 13.3586 3.11482 13.3313 3.00464 13.3344H2.91197V14.9012C2.90916 15.041 2.92618 15.1805 2.96252 15.3157Z" fill="white"/>
<path d="M5.652 17.6914C5.37823 17.4452 5.17981 17.1286 5.07911 16.7774C4.92957 16.2862 4.85852 15.7751 4.8685 15.2624C4.85885 14.7361 4.92985 14.2114 5.07911 13.706C5.1785 13.3447 5.37664 13.0171 5.652 12.7589C5.89214 12.5562 6.19808 12.4448 6.51446 12.4448C6.83086 12.4448 7.13679 12.5562 7.37694 12.7589C7.65187 13.0163 7.84935 13.3433 7.94771 13.7039C8.09701 14.2108 8.16801 14.7369 8.15832 15.2645C8.17185 15.7773 8.10434 16.2891 7.95825 16.7815C7.8593 17.1319 7.66226 17.4479 7.38958 17.6934C7.14535 17.8892 6.83998 17.9961 6.525 17.9961C6.21 17.9961 5.90465 17.8892 5.66042 17.6934L5.652 17.6914ZM5.87734 16.3339C5.91429 16.5623 6.00124 16.7801 6.13219 16.9722C6.17386 17.0337 6.22976 17.0845 6.29531 17.1205C6.36085 17.1566 6.43417 17.1768 6.5092 17.1795C6.73386 17.1795 6.91077 17.0178 7.03996 16.6945C7.19314 16.2264 7.25949 15.735 7.23582 15.2438C7.24156 14.8702 7.21194 14.4969 7.14737 14.1288C7.11242 13.8883 7.02552 13.6579 6.89252 13.4532C6.85495 13.3857 6.79963 13.3295 6.73238 13.2903C6.66514 13.2511 6.58841 13.2304 6.51025 13.2304C6.4321 13.2304 6.35538 13.2511 6.28813 13.2903C6.22088 13.3295 6.16556 13.3857 6.12798 13.4532C5.99542 13.6653 5.90999 13.9026 5.87734 14.1495C5.81213 14.5169 5.78181 14.8895 5.78679 15.2624C5.7815 15.6216 5.81182 15.9805 5.87734 16.3339Z" fill="white"/>
<path d="M8.78001 13.7474C9.00208 13.3427 9.35167 13.0197 9.77622 12.8272C10.2733 12.6149 10.8122 12.5143 11.3538 12.533V13.3391C10.705 13.3391 10.2101 13.4987 9.86679 13.822C9.52349 14.1453 9.35078 14.6241 9.35078 15.2728C9.35078 15.9214 9.52139 16.3504 9.8647 16.653C10.208 16.9556 10.7071 17.109 11.3538 17.109V17.9048C10.4228 17.9048 9.70461 17.6837 9.19914 17.2416C8.69365 16.7995 8.44092 16.1397 8.44092 15.2624C8.42091 14.7372 8.53764 14.2157 8.78001 13.7474Z" fill="white"/>
<path d="M11.8422 13.7488C12.0644 13.3434 12.4149 13.0204 12.8405 12.8286C13.3342 12.6144 13.8702 12.511 14.4096 12.526V13.3322C13.763 13.3322 13.268 13.4918 12.9226 13.8151C12.5772 14.1384 12.4066 14.6254 12.4066 15.2638C12.4066 15.9021 12.5772 16.3415 12.9205 16.644C13.2638 16.9466 13.763 17.1 14.4075 17.1V17.9062C13.4766 17.9062 12.7583 17.6851 12.2529 17.243C11.7474 16.8009 11.4946 16.1411 11.4946 15.2638C11.4772 14.7379 11.5969 14.2163 11.8422 13.7488Z" fill="white"/>
<path d="M15.7469 12.5343V14.4513L18.2026 12.4141V17.9061H17.2928V14.2503L15.7469 15.5331V17.9061H14.8349V12.5343H15.7469Z" fill="white"/>
<path d="M19.5405 12.5331V14.4501L21.9919 12.417V17.9049H21.0821V14.2491L19.5362 15.5319V17.9049H18.6305V12.5331H19.5405Z" fill="white"/>
</svg>
