<svg width="24" height="24" fill="none" xmlns="http://www.w3.org/2000/svg"><path d="M21.892 11.972c0 5.443-4.412 9.855-9.856 9.855-5.443 0-9.855-4.412-9.855-9.855a9.857 9.857 0 0 1 5.731-8.954h.001c.468-.011.696.259.441.344-.081.027-.22.242-.289.363C5 5.203 2.587 8.375 2.587 12.007c0 5.054 4.422 9.314 9.476 9.314 5.055 0 9.314-4.26 9.314-9.314s-4.205-9.214-9.26-9.214c-.04 0-.176.054-.216.054-.054-.108-.217-.108-.27-.108-.032 0-.068-.081-.082-.081-.033 0 .101 0 .081-.027-.021-.03-.137-.094-.108-.108.108-.055-.054-.163 0-.163.108 0 .243.135.243.081 0-.054-.004-.126.052-.144.057-.018.028-.073-.024-.1-.015-.007.008-.068.054-.108.056 0 .133.027.19.027 5.443 0 9.855 4.413 9.855 9.856z" fill="#fff"/><path d="M21.806 11.972c.01.06.037.026.028-.14l-.046-.117.018.257zM21.82 10.85c-.046-.192-.11-.41-.133-.278.064.185.056.233.127.435.017.166.008.292-.01.265.008.028.01.093.016.162.004.068.005.14.02.184a1.551 1.551 0 0 0 .007-.363 2.46 2.46 0 0 0-.057-.412c.002-.063.02-.005.03.009v-.001zM12.097 2.857c-.028.005-.064.015-.098.023.028-.005.065-.016.098-.023zM20.25 7.817a.4.4 0 0 0-.059-.095c.036.061.065.112.06.095zM20.858 9.41l-.025-.097a.546.546 0 0 0 .025.098zM12.097 2.857c.017-.004.03-.002.054 0l.067.005.134.01c.01-.007-.025-.01-.078-.013l-.09-.004-.05-.002a.115.115 0 0 0-.037.003zM21.216 8.697c.02.052.039.095.058.134l-.048-.128-.01-.006zM14.517 2.334l.08.022c.025.003.049.003.071.003l-.15-.025zM17.653 3.751c-.063-.047-.107-.03-.14-.033a.371.371 0 0 1 .073.027c.025.013.052.029.08.048.006-.005.002-.018-.013-.042zM21.067 7.934l.044.086a24.15 24.15 0 0 0-.044-.086zM12.07 2.015c-.007-.006-.017-.01-.038-.015 0 .005.02.01.037.015zM20.949 15.768c0 .003.004 0 .006.002.005-.019.005-.025-.006-.002zM21.9 11.972v.055c.008.006.015.012.021.012l-.02-.067zM21.187 12.486l.002-.013c-.003-.082-.002-.036-.002.013zM2.742 11.782c-.02.161-.027.03-.036-.083-.004-.055-.005-.106-.011-.113-.005-.006-.019.032-.03.154.016-.044.048.445.077.042zM21.193 8.612z" fill="#fff"/><path d="m2.665 11.74-.004.05.005-.05zM18.163 18.775a.25.25 0 0 0 .065-.038c-.005-.002-.019.008-.065.038zM20.972 14.301l-.042.127c.018-.05.031-.09.042-.127zM15.887 20.354c-.067.027-.091.033-.179.079a.342.342 0 0 0 .03-.009.794.794 0 0 1 .149-.07zM13.112 21.152h.054l.091-.014-.145.014zM14.563 21.34a.67.67 0 0 1 .137-.005c-.05-.012.356-.138-.137.005zM21.235 8.689a.217.217 0 0 1-.042-.077l.033.09c.007.007.012.007.01-.013zM15.898 20.663c-.072.031-.144.067-.217.095l-.222.086.21-.08c.075-.027.152-.066.23-.101zM2.764 9.09c-.01.035-.02.068-.027.102.011-.039.023-.074.027-.102zM14.115 21.267c-.085.007-.174.023-.266.032-.02.007-.041.013-.053.02l.16-.022.159-.03zM14.701 21.335z" fill="#fff"/><path d="M17.395 19.997c-.367.234-.147.15-.21.223a1.705 1.705 0 0 1-.224.135c-.045.022-.065.027-.076.025-.021-.003-.008-.031-.091.002-.136.09-.258.165-.372.237a1.927 1.927 0 0 1-.33.184c-.02 0-.064.017-.018-.014-.075.043-.17.093-.278.142-.109.047-.23.095-.351.143-.061.026-.124.047-.186.069l-.181.065a36.104 36.104 0 0 1-.323.123.217.217 0 0 1-.054.003c.07.005.086.026.078.046-.095.028-.181.06-.254.084a.424.424 0 0 1-.173.03c.119-.027.126-.04.178-.066-.065.025-.132.041-.198.062-.096 0-.028-.02.063-.043.091-.022.203-.058.199-.073-.048.015-.097.033-.146.047l-.152.042c-.102.029-.204.06-.304.086-.1.023-.199.044-.291.063-.092.018-.178.035-.256.04-.017-.009.019-.02.075-.031.057-.014.135-.03.202-.043.134-.027.226-.046.02-.03l.236-.033c.079-.013.156-.03.235-.044-.37.014.282-.06-.06-.058-.076.016-.143.033-.205.043l-.169.031-.273.056-.275.042-.17.022c-.062.008-.131.01-.21.014-.137.035.05.033-.089.068a2.63 2.63 0 0 1-.494.026 1.678 1.678 0 0 1-.27-.03c-.073-.014-.138-.028-.225-.035a1.748 1.748 0 0 0-.153-.006H11.412c-.085.009-.145.026-.242.032-.048.002-.106.007-.18-.003a3.703 3.703 0 0 1-.28-.043l.164-.03a3.524 3.524 0 0 0-.318-.031c-.07-.007-.115-.007-.16-.008a1.228 1.228 0 0 1-.166-.013 2.585 2.585 0 0 1-.135-.024c-.054-.011-.117-.03-.193-.052.113.013.47.077.381.055a2.462 2.462 0 0 0-.217-.052.614.614 0 0 0-.115-.014c-.062-.003-.113.003-.268-.033l-.053-.057a9.544 9.544 0 0 1-1.952-.681c.041.006.156.05.014-.039-.819-.379-1.65-.997-2.26-1.612l-.266-.202c-.053-.056-.086-.115-.024-.06-.222-.254-.029.005-.152-.103-.135-.138-.16-.199-.067-.119-.056-.05-.112-.11-.173-.174l-.193-.206c-.066-.074-.13-.154-.199-.234l-.102-.123c-.034-.04-.065-.085-.097-.128l-.19-.26c-.06-.088-.115-.177-.169-.262l-.079-.126c-.025-.041-.046-.084-.068-.124a8.856 8.856 0 0 1-.118-.229l.07.101a4.716 4.716 0 0 0-.27-.442c-.038-.057-.077-.11-.112-.18a2.265 2.265 0 0 1-.11-.26l.041.077a10.515 10.515 0 0 1-.54-1.53 6.994 6.994 0 0 1-.226-1.415.372.372 0 0 1-.026-.087 2.445 2.445 0 0 1-.016-.14 9.632 9.632 0 0 1-.024-.363c-.002-.253-.01-.494-.045-.53.013-.152.021-.255.032-.338l.03-.213c.01-.07.018-.146.036-.259l.026-.198c.011-.078.027-.167.044-.273.014-.112.02-.198.02-.29l.006-.15c.003-.054.011-.113.023-.183l.04.001.019-.192.025-.191c.033-.063.062-.125.097-.187l.062-.257c-.03.1-.078.211-.085.193a4.069 4.069 0 0 1 .31-.86.317.317 0 0 1 .057-.091 9.71 9.71 0 0 1 .372-.905c.002.026-.063.177-.111.297.096-.243.115-.26.134-.271.018-.012.034-.017.13-.236-.038.051-.005-.042-.007-.056a4.43 4.43 0 0 0 .127-.191c.047-.078.103-.164.162-.254l.088-.14.093-.138.09-.137c.032-.044.061-.087.09-.129l-.023.078c.424-.584.948-1.198 1.565-1.73-.227.184-.21.104-.032-.057l.101-.03c.102-.118-.202.15.021-.079.118-.097.168-.117.169-.102 0 .015-.045.068-.107.13.09-.084.187-.16.28-.24.025-.004-.04.055-.047.081a.882.882 0 0 1 .129-.106c.058-.04.127-.083.197-.13.07-.046.143-.09.208-.134.065-.044.121-.088.161-.127h.024c.24-.152.439-.269.622-.37.092-.05.178-.099.266-.143l.232-.116h.012a.78.78 0 0 1 .151.014l.044.01.01.004a.064.064 0 0 1 .02.012.043.043 0 0 1 .034 0c.01.006.02.019.015.032-.004.014-.02.017-.031.03l-.018.02-.03.039a.666.666 0 0 0-.046.073 2.032 2.032 0 0 0-.082.112l-.057.086-.015.006-.006.003-.017.007a9.67 9.67 0 0 1-.074.034l-.15.07c-.1.05-.203.101-.306.155-.102.057-.207.114-.31.176-.102.065-.209.127-.311.199-.171.126-.192.15-.19.158.004.008.031-.001-.04.064-.021-.004-.156.081-.251.146-.095.066-.156.107-.039.002l-.197.154-.165.139c-.104.086-.193.17-.288.256-.185.177-.388.37-.688.718.078-.064.159-.141.127-.091-.11.123-.264.27-.26.242l.027-.035c-.322.4-.703.856-1.019 1.33-.319.471-.58.956-.703 1.35l.015-.044c-.027.066-.048.134-.072.202-.022.067-.047.133-.068.202-.04.136-.085.27-.119.409-.121.372.046-.232-.06.039-.107.449-.184.803-.245 1.141-.058.339-.098.661-.096 1.04-.013.074-.024.16-.033.26-.008.1-.006.209-.006.326l.003.183c.002.062.009.126.014.192l.017.198.01.101.014.101c.02.136.038.273.062.408l.078.396c.06.255.108.492.155.686l.01-.05c.04.094.054.154.064.21l.013.082a.825.825 0 0 0 .024.094c.005-.013-.01-.067-.016-.104-.007-.036-.008-.055.016.004l.114.306c.02.05.036.103.057.153l.064.152c.044.1.082.204.13.304l.141.3c.023.051.048.1.075.15l.078.147c.051.1.102.198.16.294l.17.29c.06.095.122.19.183.284.25.374.518.74.818 1.076.037.043.073.086.111.128l.116.123c.078.081.153.165.234.243l.242.233c.08.079.168.149.25.223a1.484 1.484 0 0 0 .277.207c.068.04.118.06.17.086.102.052.22.116.542.37-.074-.029-.143-.064-.215-.097.554.354 1.14.683 1.753.948.611.267 1.25.466 1.884.571-.077-.003-.082.007-.204-.021.128.05.377.09.592.124.217.023.402.033.405.02.099.016.11.02.111.028.002.007-.007.014.054.026.068.01.145.015.224.02.079.003.16.007.239.003.155-.004.293-.008.366.01.024.005-.077.008-.127.009.045-.003.119 0 .202-.003l.258-.008c.082-.004.153-.006.192-.011.04-.007.048-.013.005-.019a5.71 5.71 0 0 0 .687-.064l.16-.023c.052-.007.104-.015.154-.025.102-.019.2-.035.296-.047a2.862 2.862 0 0 1 .227-.064l.273-.062c.18-.044.336-.093.366-.13-.003.017.046.013.127-.003a4.257 4.257 0 0 0 .673-.24c.114-.051.216-.097.281-.137-.085.059.248-.094.15-.022.08-.038.157-.072.226-.11.069-.037.13-.071.18-.101.1-.059.152-.098.118-.097.15-.06.29-.14.424-.218.134-.082.257-.173.374-.255.23-.172.428-.325.595-.405a9.812 9.812 0 0 0 1.075-1.04c.083-.088.158-.181.234-.273.076-.091.153-.181.223-.276.071-.095.144-.187.212-.281l.198-.286c.007.015-.026.075-.08.156a3.443 3.443 0 0 1-.202.281c-.076.098-.15.194-.202.265-.054.07-.084.116-.066.118.035-.043.07-.084.102-.125l.091-.124c.06-.08.116-.158.17-.234l.148-.226c.047-.075.098-.144.14-.22l.134-.224.069-.113c.021-.04.044-.079.066-.119l.141-.247c.048-.086.095-.178.147-.274.111-.197-.036.125-.063.197l.145-.293c.049-.096.09-.196.134-.293.092-.191.164-.389.243-.58.14-.388.265-.77.333-1.155a.996.996 0 0 1-.024.165c.034-.15.091-.347.062-.336l-.028.148c-.048.116-.03-.038-.007-.223.016-.187.04-.404.033-.42.041.27.12-.757.16-.336.005-.05.009-.107.006-.15-.003-.042-.008-.069-.018-.058.017-.149.031-.196.04-.042.014-.276.012-.366.003-.448a3.646 3.646 0 0 1-.006-.408c.015.002.016.102.03.154-.006-.126-.025-.253-.036-.4a89.38 89.38 0 0 0-.037-.526c.01.025.016-.025.026.1a8.052 8.052 0 0 0-.025-.261l-.04-.245c-.014-.08-.025-.159-.042-.236l-.052-.232c-.019-.077-.033-.155-.055-.234l-.062-.24c-.038-.166-.092-.338-.14-.53.058.104.044.038.02-.061-.028-.099-.072-.228-.055-.257l-.077-.2-.086-.195.043.167c-.136-.35-.3-.637-.432-.929l.073.119.067.122c-.048-.107-.105-.209-.16-.312-.056-.102-.108-.206-.17-.305.063.116.114.238.171.357-.098-.162-.107-.145-.118-.145-.013.002-.021-.016-.14-.232.027.043-.02-.037-.083-.151l-.049-.09-.054-.092a2.172 2.172 0 0 1-.087-.163v.002l-.085-.112a27.37 27.37 0 0 1-.094-.117c-.066-.082-.131-.177-.21-.29-.032-.065.078.014.057-.029a1.451 1.451 0 0 1-.15-.158c-.061-.072-.13-.158-.206-.24a14.522 14.522 0 0 0-.22-.24 1.975 1.975 0 0 0-.183-.162c.06.048.08.034.067.012l-.129-.088c-.055-.066-.088-.104-.102-.123-.014-.02-.01-.024.008-.022-.374-.36.08.155-.353-.283.038.03.025.01.102.075-.448-.428-.933-.746-1.406-1.059-.116-.131.425.259.285.12-.175-.108-.351-.22-.54-.317-.183-.104-.376-.192-.566-.283-.096-.045-.194-.082-.29-.124l-.144-.061c-.048-.02-.097-.038-.145-.056a65.892 65.892 0 0 0-.287-.11l-.284-.1.138.053c-.064.016-.199-.044-.37-.11-.173-.062-.38-.144-.58-.169.096.017.134-.008.106-.006-.132-.032-.265-.069-.406-.093-.14-.023-.286-.05-.442-.068l-.241-.024c-.083-.007-.168-.02-.257-.021-.178-.007-.367-.023-.572-.018l.102-.015a8.276 8.276 0 0 0-.369-.02c-.012 0-.033 0-.052.002a.385.385 0 0 0-.05.012 4.778 4.778 0 0 0-.082.024l-.037.01-.017.004h-.005v.017a.09.09 0 0 1 .001.021l.076.009a.25.25 0 0 0-.074-.087.321.321 0 0 0-.092-.046.499.499 0 0 0-.088-.019l-.049-.004c-.015.003-.024-.013-.032-.023l-.011-.017-.005-.005-.003-.003-.005-.001h.004c.013-.002.026-.003.038-.006.006 0 .013-.008.007-.013a.091.091 0 0 0-.013-.012c-.014-.007-.032-.017-.049-.03a.074.074 0 0 1-.011-.01l-.002-.003-.006.032c.055.033-.075-.041-.062-.034a.01.01 0 0 1 .004.004v.002c.013.025-.027-.056.028.055h.001l.008-.005a.126.126 0 0 0 .03-.025c.006-.006.006-.008.007-.012.005-.017-.003-.03-.005-.036-.004-.005 0-.004-.008.013.01-.028-.012-.048-.023-.067-.003-.003-.006-.014.004-.012a.238.238 0 0 1 .061.022c.025.013.047.029.069.043l.016.01.008.004c.001 0 .013.007.043.004a.086.086 0 0 0 .07-.058l.003-.012.001-.007.001-.016v-.007l.002-.026a.147.147 0 0 1 .005-.035l.001-.002a.022.022 0 0 1-.004-.003.056.056 0 0 1-.007-.004c-.007-.005-.007-.008-.004-.002l.003.005v.004s.006.016.004.009l.003-.001c.01-.003.019-.007.03-.014a.13.13 0 0 0 .017-.012l.016-.017a.106.106 0 0 0 .014-.023l.005-.013v-.003c.002-.012-.005-.022-.012-.03a.058.058 0 0 0-.013-.009l-.007-.004c-.002-.002-.002-.006-.001-.008a.118.118 0 0 1 .035-.055.22.22 0 0 1 .033.003c.026.004.051.011.078.011h.515l.127.006.255.012c.085.003.169.012.252.023.084.01.166.02.25.032.082.01.163.029.244.047.08.019.161.039.24.06-.11-.02-.263-.031-.176-.015.262.036.52.094.778.151-.052-.047-.096-.042-.254-.103.051.003.133.013.226.03.091.02.194.045.29.072-.352-.079-.01.047.132.105-.022-.015.032-.01.022-.023.19.09.21.083.25.078a.25.25 0 0 1 .098.01c.052.012.134.037.263.1l-.034.003c.1.035.199.066.298.1.1.032.196.076.3.124.073.07-.213-.078-.237-.058.147.066.299.115.445.17.143.06.282.123.404.205-.127-.054-.302-.143-.428-.198.132.09.207.138.275.176.069.039.13.068.23.13l-.02-.012c.153.097.31.187.457.293l-.11-.083c.096.035.188.08.28.13.045.025.091.05.136.08l.134.094c.09.066.186.13.284.203.097.074.202.148.318.22-.45-.283-.088-.028-.145-.023.104.091.252.24.2.209.107.072.184.145.27.228.084.086.177.179.324.286.003.02.188.199.125.179.236.232-.038-.072-.007-.063.194.168.386.402.584.664l.624.848c.358.525.448.612.727 1.137.032.096.005.063-.03.007a2.119 2.119 0 0 1-.053-.09l-.027-.046c.06.15.113.28.171.407.056.126.107.253.17.391-.033-.053-.018.01.002.1.083.228.096.138.182.449-.031-.049-.076-.109-.126-.215.026.067.053.133.078.2.028.066.049.134.073.201.046.136.1.272.136.416-.004.082-.072-.166-.117-.262l.04.127c.013.044.024.091.037.139l.076.282c.027.09.042.175.061.241a.808.808 0 0 0 .048.142l-.026-.213c.023.12-.018.067-.04-.02-.018-.07-.035-.129-.047-.18a1.084 1.084 0 0 1-.022-.127.31.31 0 0 1 0-.117l.056.205a.855.855 0 0 0-.023-.232c-.01-.047-.02-.1-.038-.152a6.728 6.728 0 0 0-.053-.165l-.06-.173-.03-.088a5.598 5.598 0 0 1-.155-.413l.108.15-.092-.2-.1-.196c-.021-.091-.017-.162.068.032-.089-.296-.114-.247-.197-.5-.008-.028 0-.017.013.007-.047-.089-.091-.179-.14-.267.036.048.014-.062.084.11-.046-.128-.106-.236-.157-.334-.053-.096-.098-.184-.147-.257-.096-.148-.168-.26-.202-.358l.025.037c-.207-.313-.227-.321-.235-.31-.004.006-.006.017-.028-.001-.023-.018-.062-.067-.154-.174-.046-.12-.092-.242-.14-.363l-.078-.035c-.046-.061-.138-.183-.108-.17-.2-.21.016.049-.107-.067-.049-.079-.122-.162-.195-.25a4.054 4.054 0 0 0-.23-.255 5.628 5.628 0 0 1-.197-.213c-.05-.061-.088-.104-.092-.13-.117-.071.24.262-.06.002-.018-.063-.103-.14-.212-.233-.112-.09-.25-.192-.368-.315.1.041.334.267.096.02a1.317 1.317 0 0 1-.165-.106 3.375 3.375 0 0 1-.192-.16l-.1-.088-.104-.082a2.96 2.96 0 0 0-.194-.143c-.034.026-.53-.333-.963-.547a.538.538 0 0 0-.116-.071l-.14-.078c-.055-.03-.114-.064-.179-.093-.13-.061-.271-.132-.41-.194l-.373-.16.015-.002a1.406 1.406 0 0 1-.343-.079 8.096 8.096 0 0 0-.516-.145c.02-.024.081-.018.26.02l-.305-.087a3.676 3.676 0 0 1-.376-.061l.086-.016c-.104-.023-.207-.047-.314-.063l-.33-.047c-.112-.02-.23-.029-.352-.044-.122-.014-.249-.037-.384-.05-.032.03.418.124-.15.103-.02-.02-.04-.052.11-.047-.049-.002-.175.001-.273-.014l.23-.012c-.245-.032-.13.014-.326-.001.005-.026-.145-.022-.116-.041.05-.002.172.014.248.011-.111-.013-.234-.017-.34-.027a1.997 1.997 0 0 1-.24-.031c.009.008.009.016-.014.023-.025.01-.094-.001-.188-.009h-.008l-.036.007-.017.004c-.005.001-.01.008-.014.011a.267.267 0 0 0-.064.098c-.002.006-.004.014-.001.016l.007.005c.016.015.01.03.007.034-.005.006-.01.004-.018.027v.005s-.002.002 0 .002l.008-.002.02-.004.005-.002.063.034-.002-.001c0-.001-.01-.009-.016-.024a.17.17 0 0 1-.007-.015l-.003-.008v-.001a.13.13 0 0 0-.006-.016h-.002l-.004.002a.159.159 0 0 0-.038.018.178.178 0 0 0-.065.078c-.016.053-.011.102-.01.14v.005H11.737c.01 0 .015.002.018.003.003.005-.005-.005.001-.029l.002-.008.013-.05v-.002a.009.009 0 0 0-.004-.003l-.031-.016a.853.853 0 0 0-.08-.037.29.29 0 0 0-.123-.024c-.03.003-.046.013-.043.022-.008 0-.02.006-.018.012 0 .004.003.008.005.01a.305.305 0 0 1 .01.017c.006.008.007.015.002.023a.13.13 0 0 1-.028.027l-.01.01-.005.004-.002.003.007.007.017.015.008.009.002.002h.001l.012.015-.002-.002a.11.11 0 0 1-.01-.015v.001a.125.125 0 0 0-.034.026.095.095 0 0 0-.02.04.126.126 0 0 0-.005.023v.009l.003.01a.202.202 0 0 0 .02.038.36.36 0 0 0 .088.088l.017.013-.002.003-.004.007-.018.025-.036.05c.016-.005.039-.015.048-.016l.008-.002a.312.312 0 0 1-.064.001c-.01 0-.022-.003-.024-.01 0-.005 0-.01.012-.023a.756.756 0 0 0 .004-.004l-.004.005-.006.007c-.001.004.001.005.007.005h.015c.001.002.009-.003.01-.003l.002.003.01.014.022.028a.182.182 0 0 0 .053.045c.022.01.044.01.069.012a.425.425 0 0 1 .098.01c.048.011.071.03.082.047l.03.047.043-.003c.031-.002.041-.007.055-.01l.032-.011a.192.192 0 0 0 .035-.017c.012-.008.002-.01-.044-.005-.019.004-.037.01-.062.012l.04-.01c.045-.015.086-.031.127-.044a.142.142 0 0 1 .056-.008h.067c.09 0 .18.002.272.004.09 0 .182.01.273.018l.274.027c.091.011.182.027.272.04.09.015.181.024.27.043l.265.05.13.023.13.028-.004.012c.415.068.9.238 1.191.312.115.046.264.13.209.124l.186.066c.052.02.097.04.146.06.05.021.102.045.168.076.033.016.07.033.11.055l.135.076c-.148-.063-.126-.046-.115-.039.01.009.011.001-.189-.09l.128.063c.038.02.072.04.104.058.064.036.12.068.178.098.117.06.233.126.436.221-.075-.023-.01.022.09.09.1.07.238.159.323.207l-.231-.176c.094.058.182.114.266.169l.24.174-.112-.026c.332.26.634.49.913.712.272.23.518.456.697.727.085.075.013-.015-.06-.108-.075-.092-.156-.181-.073-.122.068.07.127.15.185.225.057.076.112.149.158.218.09.14.16.252.198.3.077.107.132.188.183.25.05.063.095.108.137.156.042.05.084.098.134.166.049.067.11.15.175.274-.023-.07-.023-.15.202.206.18.35.166.456.043.243-.044-.082-.06-.125-.054-.123-.064-.11-.156-.247-.092-.106l.04.036c.04.088.118.253.18.38.06.13.094.226.058.174.136.26.075.104-.009-.098.047.116.091.218.134.314.022.047.04.094.059.14l.055.138c.078.18.14.369.217.613-.018-.08-.026-.156 0-.08.03.09.047.164.064.223.017.06.03.104.042.14.023.071.037.103.049.126.024.049.041.067.103.316.023.145.003.122-.005.126-.007.004-.005.033.05.285.041.31-.027.071-.062-.048.061.226.08.444.096.636.01.192.006.36.015.493l-.031-.243c.018.145.03.265.03.386l.027-.14c0 .143.001.266-.011.263.023.148.047-.115.082.18-.017.193.004.59-.047.654.007-.075.013-.131.015-.172v-.081c-.003-.03-.01-.02-.016-.006-.013.028-.03.067-.026-.188a2.979 2.979 0 0 1-.015.363c-.006.02-.007-.021-.006-.06-.083.571.034.268-.045.864-.007-.039-.02-.006-.037.049a1.14 1.14 0 0 0-.042.178c.044-.236.059-.107.036.115l-.028.126-.023.1a2.75 2.75 0 0 0-.03.145c-.014.08-.019.14-.046.238.023-.073.042-.148.063-.222a.939.939 0 0 1-.027.198c-.022.09-.054.201-.088.333-.024.016.056-.24.022-.15a1.612 1.612 0 0 1-.056.233c-.027.08-.063.161-.098.246l-.054.13c-.01.022-.018.045-.027.067l-.03.068c-.04.09-.078.184-.11.283-.044.087-.057.086-.067.084-.01-.003-.018-.008-.059.067a3.375 3.375 0 0 1-.11.26c-.033.069-.069.123-.101.178-.068.11-.132.225-.247.44.097-.105.104-.131-.045.183l.194-.355.176-.362-.15.36c-.016.04-.036.078-.054.118.065-.104.116-.223.166-.328l.127-.265c-.04.118-.064.168-.064.18 0 .01.02-.02.059-.066-.1.138-.166.29-.243.445-.04.077-.08.155-.124.234-.023.04-.045.08-.07.12a2.61 2.61 0 0 1-.084.115l-.058-.05c-.169.235-.31.448-.468.677l-.126.174c-.043.058-.086.12-.138.18l-.158.187-.087.099-.097.098c.06-.056.119-.11.173-.17a.484.484 0 0 1-.069.1 31.658 31.658 0 0 1-.27.282c-.048.05-.1.096-.14.14-.002-.033-.119.065-.204.125.012.004-.091.095-.2.194-.055.05-.11.103-.154.147a.323.323 0 0 0-.084.1c-.095.06-.189.122-.284.181-.126.086-.22.157-.301.222-.08.064-.149.116-.215.171-.067.054-.132.11-.214.167a4.16 4.16 0 0 1-.31.19c.14-.114-.099.004.229-.21-.169.098-.321.183-.317.197-.054.02-.17.09-.294.162a2.025 2.025 0 0 1-.347.166c-.07.044-.083.084-.289.162-.024.004-.003-.012-.003-.012.004.012-.314.145-.125.1l-.115.031-.124.033a7.283 7.283 0 0 0-.268.081c-.093.03-.19.054-.289.083-.098.029-.197.06-.297.082l-.296.072c-.098.021-.194.036-.285.053a2.635 2.635 0 0 1-.48.045l-.161.024c-.056.007-.112.012-.169.017-.113.01-.23.024-.344.031-.23.01-.456.021-.65.013.025-.008.002-.013.075-.009a2.327 2.327 0 0 0-.441.007 1.24 1.24 0 0 1-.17.01 1.785 1.785 0 0 1-.328-.034c-.303-.082.324.02.133-.021-.037-.047-.219-.068-.441-.09-.11-.017-.232-.034-.35-.055a1.873 1.873 0 0 1-.327-.087l.098.018a2.448 2.448 0 0 0-.25-.066c-.092-.019-.189-.046-.294-.07-.104-.024-.216-.048-.33-.085-.112-.035-.232-.07-.35-.117 0 0 .025.002.006-.01a4.917 4.917 0 0 1-.66-.229c-.063-.026-.128-.05-.19-.08-.063-.03-.125-.06-.187-.088l-.183-.088a31.498 31.498 0 0 1-.169-.092c.15.048.203.097.138.02-.194-.105.03.08-.358-.132-.114-.091-.374-.275-.388-.329.115.076.233.148.35.222a1.617 1.617 0 0 0-.307-.216c-.114-.072-.23-.143-.317-.208h.035l-.093-.063-.08-.059a7.817 7.817 0 0 0-.137-.097c-.083-.057-.153-.1-.22-.15-.134-.1-.279-.199-.525-.436l.04.06a1.655 1.655 0 0 1-.167-.134 1.107 1.107 0 0 1-.086-.1 1.427 1.427 0 0 0-.24-.247l-.037-.118a8.37 8.37 0 0 1-.858-.988l.07.08.084.095c.06.067.123.142.187.219.066.075.136.15.202.223.066.072.127.14.186.195l-.07-.079-.081-.099-.184-.22c-.12-.151-.23-.29-.278-.335.062.077.145.17.197.252a5.422 5.422 0 0 1-.165-.18c-.029-.033-.06-.066-.088-.103l-.087-.114c-.058-.08-.12-.165-.182-.256a14.93 14.93 0 0 1-.183-.298c.064.013-.09-.265-.251-.6l-.12-.257c-.04-.086-.07-.175-.102-.256a3.429 3.429 0 0 1-.08-.226 1.328 1.328 0 0 1-.037-.171 6.065 6.065 0 0 1-.357-1.243l-.056-.33-.04-.341c-.017-.115-.02-.233-.031-.353l-.014-.18c-.005-.061-.004-.123-.007-.185-.067.356-.01-.291-.087-.229a1.644 1.644 0 0 1-.004-.15l.002-.102a.597.597 0 0 1 .007-.092c.009-.118.028-.235.042-.352.016-.117.038-.232.057-.348.04-.163-.006.221.015.202.027-.252.046-.304.06-.333.015-.03.029-.039.063-.202-.02.031-.024-.013-.012-.101.012-.088.032-.22.072-.359-.044.13-.078.26-.115.392.022-.176.043-.302.072-.4.026-.099.049-.173.078-.245.028-.072.056-.144.086-.242.016-.048.034-.102.053-.167.019-.064.037-.139.063-.224-.019.073-.032.148-.047.222a7.44 7.44 0 0 1 .283-.807c.122-.314.27-.617.325-.791.038-.053.1-.118.027.027.211-.383.459-.805.729-1.184.268-.38.555-.718.807-.95-.012.02-.022.041-.032.062l.148-.176c.05-.06.106-.119.188-.182-.002.013-.034.06.021.008.058-.065.296-.321.474-.449-.043.045-.087.09-.128.136.333-.27.589-.474.834-.668l.184-.142.19-.137c.064-.047.132-.09.202-.136.07-.044.143-.092.222-.135.009.015.072-.004.166-.042l.16-.066.091-.04.024-.01.03-.014.086-.04.057-.093.034-.05a1.692 1.692 0 0 1 .132-.163c.01-.01.034-.02.068-.039a.39.39 0 0 0 .073-.051c-.002.005-.002.01-.005.016a.286.286 0 0 0 .09-.124c.019-.05.02-.111.004-.163a.425.425 0 0 0-.223-.243.779.779 0 0 0-.084-.038l-.044-.016-.035-.01a.971.971 0 0 0-.231-.034h-.028l-.03-.001-.088.001-.14.071-.106.054-.103.054-.1.058-.2.114-.194.121c-.131.08-.256.17-.388.256l-.196.14-.1.072-.1.076c-.259.144-.662.445-1.06.818-.401.372-.795.813-1.098 1.18.049-.054.054-.042.034 0a1.89 1.89 0 0 1-.11.185c-.145.17-.318.527-.343.468l.046-.065c-.07.054-.16.183-.26.334a8.65 8.65 0 0 0-.278.491l.032.084a4.67 4.67 0 0 0-.37.692c-.056.13-.11.263-.16.398-.045.136-.096.27-.135.404-.166.535-.259 1.032-.351 1.274-.01.114-.027.239-.044.364-.012.126-.024.25-.03.363l-.035-.017c-.018.156-.033.292-.045.421-.008.13-.018.251-.023.378-.002.127-.008.258-.005.406.005.148.007.313.02.507-.015-.052-.023-.105-.033-.157 0 .11.016.198.03.276.017.078.035.145.053.21.034.13.082.255.108.453l-.039.127c.11.75.27 1.515.594 2.198-.012-.008-.035-.024-.083-.137l.13.342c.055.134.12.279.178.41.126.258.24.45.243.376-.01.007.007.055.043.127.038.07.095.166.16.271.062.106.142.217.218.323.076.107.148.208.214.288l-.067-.032c.12.128.183.192.253.273.07.08.154.171.306.357.033.046.045.07.035.067-.01-.002-.038-.033-.082-.095.054.078.098.128.134.167.036.038.066.066.096.094.03.03.063.06.106.106l.173.193-.136-.11c.135.144.199.207.25.252.052.045.089.073.177.136.047.04.104.093.163.15.059.056.119.12.178.174.117.112.213.213.224.244.051.022.239.131.413.281.017.03-.053-.017-.089-.04l.092.076a10.83 10.83 0 0 0 .41.287l.146.086c.095.055.182.107.27.16.09.052.18.105.273.17.002.014.025.034.056.056l-.317-.183c-.096-.057-.179-.114-.248-.158a3.054 3.054 0 0 1-.2-.133c-.02.028.333.26.025.117.297.17.823.415 1.186.607a.727.727 0 0 1 .043.034l-.04-.015c.085.044.164.075.24.103l.153.077c.048.024.095.046.154.07.018.02.13.069.26.121l.102.04.103.034.181.06c-.005-.04.254.054.02-.057.03.013-.04-.008-.172-.052-.03-.009-.066-.02-.087-.024l.015.001c-.13-.046-.296-.114-.487-.187a3.623 3.623 0 0 1 .387.128l.072.032.078.033c.11.012.23.027.296.037.031.018.067.037.106.055l.125.052.265.104c.172.064.324.11.359.135.157.035.33.06.506.088.175.032.357.046.53.064l.128.013.125.005.235.006a2.21 2.21 0 0 0 .379-.021c.181-.005.208.025.276.037-.105.005-.23 0-.287.008.091-.002.204 0 .323-.002l.363-.016c.118-.003.226-.017.31-.029a.592.592 0 0 0 .164-.038c.229-.007.166.008.124.02-.042.007-.063.022.25-.023l-.084.024c.078-.005.153-.01.227-.017.074-.007.147-.012.217-.025.141-.024.277-.049.409-.076a7.72 7.72 0 0 0 .753-.223 38.23 38.23 0 0 0 1.623-.629.606.606 0 0 1-.154.055c.091-.035.178-.082.267-.124.088-.044.177-.086.265-.132.086-.05.172-.098.259-.147l.129-.074.126-.081.252-.163c.083-.055.163-.116.245-.174.165-.115.32-.244.476-.368.08-.061.152-.13.228-.195.075-.067.152-.132.225-.2l.216-.206.108-.103.103-.107.207-.213c.067-.072.132-.146.198-.219.134-.143.256-.294.383-.44.072-.083.12-.155.16-.212a2.643 2.643 0 0 0 .165-.275c.022-.044.045-.093.076-.152l.084-.059.104-.205.094-.21c.037-.072.075-.14.113-.207a5.657 5.657 0 0 1 .22-.389c.037-.064.07-.13.107-.197l.108-.205c.038-.07.067-.147.1-.226a5.89 5.89 0 0 0 .097-.249c.03-.088.055-.182.081-.282l-.058.092c.025-.07.054-.16.086-.255.033-.095.057-.199.083-.29l.067-.227c.017-.055.027-.084.032-.07.002-.031-.005-.101.034-.21l.022-.004.032-.178c.01-.06.016-.12.024-.18.015-.12.032-.24.045-.36.043-.276.06-.252.08-.26.01-.004.021-.015.036-.078.007-.03.016-.074.026-.136.007-.061.014-.14.022-.243.004-.077.007-.17.007-.264a9.21 9.21 0 0 0-.015-.273c-.011-.165-.025-.277-.033-.22-.004.123-.02.313-.04.322l-.005-.277c-.059-.052-.115-.259-.174.409.004.155.002.31.004.467a2.02 2.02 0 0 1-.045.147c.01-.065.014-.13.019-.195l.014-.195c-.022.11-.03.2-.032.283l-.006.237a.684.684 0 0 0-.056.19c.002.076-.004.153-.008.23l-.012.23c-.032.05-.01-.21-.076.09-.022.214.098-.19.035.16-.038.106-.06.141-.075.183a.463.463 0 0 0-.022.077l-.027.142c-.026.032-.017-.023 0-.126-.019.116-.062.263-.096.4l-.025.098-.024.088a.78.78 0 0 0-.027.132 1.988 1.988 0 0 0-.084.204c-.028.08-.064.163-.094.24-.061.153-.113.275-.136.253a6.272 6.272 0 0 1-.147.424 4.495 4.495 0 0 1-.076.161c.06-.19-.034-.011-.142.198-.115.205-.255.439-.26.375-.02.072-.071.16-.13.264l-.097.165c-.034.058-.077.114-.117.174-.084.118-.167.245-.258.36l-.13.174-.06.084-.06.078a.778.778 0 0 1 .075-.106c-.094.11-.161.174-.218.231-.058.055-.105.104-.174.166.006.03-.066.129-.159.244l-.072.09-.077.087-.14.16c-.29.21.116-.19.003-.148.02.009-.083.123-.18.225-.1.1-.191.19-.135.163-.224.155-.186.142-.322.195 0 .04-.047.08-.114.133-.034.026-.072.055-.111.088-.041.032-.084.066-.124.107-.169.1-.198.103-.227.114a.295.295 0 0 0-.062.034c-.033.02-.084.055-.172.118-.182.093.126-.13.126-.13l-.005-.004zM7.67 20.7c.08.039.146.073.19.091a3.235 3.235 0 0 1-.19-.091zm-.754-.42c.043.03.094.06.149.092l.173.1c.02.025-.015.02-.09-.024.023.008-.01-.015-.06-.049-.05-.034-.121-.078-.172-.118zm1.545 1.043a.638.638 0 0 1-.189-.085l.23.086.017.002a.171.171 0 0 1-.058-.003z" fill="#fff"/><path d="M8.714 21.365c.02.006.03.007.055.015l-.076-.034-.05-.005.072.023zM11.98 2.885 12 2.88a.218.218 0 0 1-.04.005l.021-.001zM2.544 10.02h-.009l-.007.074.016-.074zM14.919 2.619a.466.466 0 0 0 .057.028.275.275 0 0 0-.057-.028zM16.804 3.436l.245.156a9.271 9.271 0 0 0-.245-.156zM18.104 4.331c.02.008.027.007.034.007l-.002-.002-.032-.005zM21.233 14.255a2.18 2.18 0 0 0-.013.061c-.015.072-.018.083-.013.064a1.55 1.55 0 0 0 .026-.125zM19.909 6.968c.049.064.098.128.147.196-.072-.115-.128-.204-.148-.196zM15.945 20.642v-.001l-.047.022.047-.021zM20.236 7.469a2.489 2.489 0 0 0-.18-.305c.058.095.117.212.18.305zM21.588 10.051l.012.075s.005.003.007.008l-.019-.083zM21.608 10.134l.019.082a.441.441 0 0 0-.02-.082zM21.667 10.39l-.04-.173c.01.06.023.135.04.173zM20.977 8.059l-.022-.016c.008.01.016.016.022.016zM20.7 7.488c.032.068.07.156.111.249.039.095.079.197.127.291l.017.014c-.029-.042-.07-.151-.113-.266-.046-.113-.1-.23-.142-.289zM19.296 5.218c.03.033.062.066.091.1l.087.104.172.208c-.05-.08-.118-.187.046-.003-.208-.272-.191-.24-.18-.208.007.016.011.033-.015.01a.72.72 0 0 1-.065-.065 10.775 10.775 0 0 1-.056-.062l-.08-.084zM18.069 4.076c.233.175.01-.018.026-.016a.916.916 0 0 0-.133-.084c-.008-.001.025.027.107.1zM15.597 3.571l-.04.02c.207.077.007-.01.04-.02zM17.678 4.559l-.166-.144-.103-.035.269.179zM18.55 5.621c-.023-.022-.048-.042-.072-.063.047.04.09.083.134.125l.13.128-.192-.19zM13.616 21.045l.073.028c.145-.034.166-.085-.073-.028zM5.654 18.64a1.56 1.56 0 0 0-.148-.169 1.651 1.651 0 0 0-.19-.183c.067.07.13.144.188.207.06.06.112.112.15.144zM2.963 7.725l.066-.166-.068.153c-.023.052-.043.104-.064.156l.066-.143zM9.277 10.762h.411s.1.597.574.596c.474 0 4.536.162 4.536.162H10.05s-.661-.054-.772-.758z" fill="#fff"/><path d="M4.238 11.411s-.379-.216-.379-.541c0-.325 0-.531.38-.672.378-.14 4.115-1.278 4.927-1.278.812 0 2.166-.108 3.087.109.92.216 1.678.65 1.95.758.27.108.216.325 1.136.325.92 0 1.896.162 2.437.27.541.109 1.137.38 1.408.542.27.162.866.596.92.812h-.545s-.7-.65-.97-.758c-.271-.108-.65-.433-1.463-.541a17.049 17.049 0 0 0-2.166-.163c-.596 0-1.95-.054-1.95-.054s-.799.018-.967-.208c-.17-.226.047-.442.21-.442.162 0 .379.271.541.325.163.054.542.217.867.163-.542-.38-.758-.434-.758-.434s-.757-.373-1.38-.403c-.625-.03-2.14 0-2.14 0s-1.679.187-1.733.295c-.054.108-.105.239.381.309s1.247.083 1.247.083-.274.084-1.168.062c-.893-.021-3.817-.129-3.872 1.441z" fill="#fff"/><path d="M8.083 11.574a1.814 1.814 0 0 0-1.435-.704c-.682 0-1.071.122-1.38.704.247-.699.646-.92 1.353-.92.758 0 1.17.365 1.462.92zM18.48 11.574a1.814 1.814 0 0 0-1.435-.704c-.682 0-1.071.122-1.38.704.247-.699.646-.92 1.353-.92.758 0 1.17.365 1.462.92zM7.38 10.112l6.551.433H8.558s.23.596-.042.866c-.162-.65.054-.812-1.137-1.3zM5.517 14.214c.065.16.147.22.287.22v.066a6.414 6.414 0 0 0-.61 0v-.065c.137 0 .166-.058.1-.22l-.167-.41h-.734l-.16.41c-.065.162-.038.22.1.22v.065a5.91 5.91 0 0 0-.498 0v-.065c.141 0 .228-.06.289-.22l.626-1.606h.115l.651 1.605zm-1.09-.5h.663l-.336-.834-.327.835zM6.857 13.491h-.065c.004-.182-.106-.286-.306-.286-.167 0-.27.073-.27.196 0 .104.085.194.256.268l.07.028c.044.018.071.03.087.038l.078.042a.38.38 0 0 1 .084.06c.033.039.09.095.107.166.01.035.014.073.014.113a.346.346 0 0 1-.142.293.631.631 0 0 1-.392.109.622.622 0 0 1-.325-.071 2.388 2.388 0 0 1-.024-.335h.067c-.004.08.022.15.08.211.057.06.14.09.254.09.185 0 .305-.097.305-.247a.176.176 0 0 0-.061-.142 1.284 1.284 0 0 0-.239-.128 1.064 1.064 0 0 1-.289-.182.327.327 0 0 1-.099-.247c0-.114.044-.203.129-.269a.554.554 0 0 1 .346-.097c.099 0 .206.017.325.051.011.114.015.226.011.34zM7.133 14.426c.16 0 .223-.067.223-.255v-.693c0-.095-.016-.152-.06-.175a.182.182 0 0 0-.058-.02c-.015 0-.04-.003-.075-.006v-.066a.961.961 0 0 0 .394-.082v1.042c0 .186.062.255.225.255v.074a10.023 10.023 0 0 0-.649 0v-.074zm.305-1.592a.149.149 0 0 1-.108-.037.123.123 0 0 1-.041-.1c0-.087.064-.149.15-.149.079 0 .152.056.152.143a.13.13 0 0 1-.043.104.16.16 0 0 1-.11.039zM9.177 14.342c-.061.114-.145.17-.25.17a.23.23 0 0 1-.219-.18v-.006c-.144.12-.278.18-.4.18a.394.394 0 0 1-.258-.095.307.307 0 0 1-.113-.248c0-.168.114-.28.342-.337a1.81 1.81 0 0 1 .298-.048l.113-.012v-.146a.796.796 0 0 0-.034-.262c-.03-.09-.102-.143-.214-.143a.376.376 0 0 0-.133.023c-.042.017-.062.032-.06.046 0 .012.079.044.074.137 0 .082-.042.126-.126.13-.061.005-.106-.013-.135-.05a.2.2 0 0 1-.045-.126c0-.09.052-.157.155-.201a.775.775 0 0 1 .31-.067.44.44 0 0 1 .31.11c.081.074.122.177.122.307v.652c0 .224.08.272.243.145l.02.022zm-.487-.09v-.412c-.235.054-.355.081-.357.083-.12.042-.182.116-.182.223 0 .063.022.117.068.16a.243.243 0 0 0 .175.066c.107 0 .206-.04.297-.12zM11.119 14.214c.066.16.148.22.287.22v.066a6.413 6.413 0 0 0-.61 0v-.065c.138 0 .166-.058.1-.22l-.166-.41h-.734l-.16.41c-.066.162-.038.22.1.22v.065a5.91 5.91 0 0 0-.498 0v-.065c.14 0 .227-.06.288-.22l.627-1.606h.114l.651 1.605h.001zm-1.09-.5h.663l-.336-.834-.326.835zM11.635 14.426c.16 0 .222-.067.222-.255v-1.465c0-.095-.017-.152-.061-.174a.187.187 0 0 0-.058-.02 2.57 2.57 0 0 0-.075-.007v-.065a.941.941 0 0 0 .412-.083v1.814c0 .186.06.255.223.255v.074c-.22-.01-.441-.01-.663 0v-.074zM12.6 14.426c.16 0 .222-.067.222-.255v-1.465c0-.095-.017-.152-.061-.174a.187.187 0 0 0-.058-.02 2.57 2.57 0 0 0-.075-.007v-.065a.941.941 0 0 0 .412-.083v1.814c0 .186.06.255.223.255v.074c-.22-.01-.441-.01-.663 0v-.074zM13.498 14.426c.16 0 .223-.067.223-.255v-.693c0-.095-.016-.152-.06-.175a.182.182 0 0 0-.058-.02c-.015 0-.04-.003-.075-.006v-.066a.961.961 0 0 0 .394-.082v1.042c0 .186.061.255.225.255v.074a10.022 10.022 0 0 0-.649 0v-.074zm.305-1.592a.149.149 0 0 1-.108-.037.123.123 0 0 1-.041-.1c0-.087.064-.149.15-.149.079 0 .152.056.152.143a.13.13 0 0 1-.043.104.16.16 0 0 1-.11.039zM15.542 14.342c-.061.114-.145.17-.25.17a.23.23 0 0 1-.219-.18v-.006c-.145.12-.278.18-.4.18a.394.394 0 0 1-.258-.095.307.307 0 0 1-.113-.248c0-.168.114-.28.342-.337a1.81 1.81 0 0 1 .298-.048l.113-.012v-.146a.796.796 0 0 0-.034-.262c-.03-.09-.102-.143-.214-.143a.376.376 0 0 0-.134.023c-.041.017-.06.032-.06.046 0 .012.08.044.075.137 0 .082-.042.126-.126.13-.061.005-.106-.013-.135-.05a.2.2 0 0 1-.045-.126c0-.09.052-.157.155-.201a.775.775 0 0 1 .31-.067.44.44 0 0 1 .31.11c.081.074.122.177.122.307v.652c0 .224.08.272.242.145l.021.022zm-.487-.09v-.412c-.235.054-.356.081-.357.083-.121.042-.182.116-.182.223 0 .063.022.117.068.16a.243.243 0 0 0 .174.066c.108 0 .207-.04.298-.12zM16.973 14.17c0 .187.061.256.225.256v.074a10.022 10.022 0 0 0-.649 0v-.074c.16 0 .223-.067.223-.255v-.494a1.46 1.46 0 0 0-.02-.219.658.658 0 0 0-.031-.077c-.044-.082-.114-.104-.243-.113a.485.485 0 0 0-.425.223v.68c0 .186.062.255.225.255v.074a10.025 10.025 0 0 0-.648 0v-.074c.16 0 .223-.067.223-.255v-.693c0-.095-.018-.152-.063-.175a.182.182 0 0 0-.057-.02c-.016 0-.041-.003-.076-.006v-.066a.96.96 0 0 0 .395-.082v.254c.158-.182.34-.275.545-.273a.362.362 0 0 1 .292.106c.039.036.057.113.07.16a.487.487 0 0 1 .014.097l.002.098-.001.104c-.002.045-.002.078-.002.1v.396h.001zM18.667 14.254c-.131.177-.32.265-.564.265a.803.803 0 0 1-.535-.18.613.613 0 0 1-.215-.496c0-.222.077-.402.23-.54a.786.786 0 0 1 .544-.207.96.96 0 0 1 .497.136c.016.13.022.279.016.448h-.065c0-.172-.043-.296-.128-.375a.469.469 0 0 0-.334-.12c-.172 0-.3.055-.385.164a.664.664 0 0 0-.13.423.67.67 0 0 0 .14.44c.095.114.234.17.422.17a.595.595 0 0 0 .455-.188l.051.06h.001zM20.128 14.18a.55.55 0 0 1-.23.242.69.69 0 0 1-.348.09.603.603 0 0 1-.466-.194.694.694 0 0 1-.18-.492c0-.198.063-.372.189-.511a.618.618 0 0 1 .477-.208c.145 0 .264.04.358.123a.468.468 0 0 1 .157.333l-.957.218c.004.16.049.296.136.406a.44.44 0 0 0 .366.166.688.688 0 0 0 .26-.053.379.379 0 0 0 .192-.159l.048.04h-.002zm-.876-.832a.673.673 0 0 0-.125.34l.73-.162a.478.478 0 0 0-.105-.235.273.273 0 0 0-.218-.1.33.33 0 0 0-.282.157zM5.24 15.714c3.586-.006 9.114-.042 12.641-.01 0 .005.854 0 .843.015l-.843.01c-3.5.026-9.095.006-12.64-.015z" fill="#fff"/></svg>