<svg xmlns="http://www.w3.org/2000/svg" width="24" height="24" viewBox="0 0 24 24" fill="none"><rect width="24" height="24" fill="none"/>
<path d="M11.999 22C17.5219 22 21.999 17.5228 21.999 12C21.999 7.83158 19.4486 4.25884 15.823 2.75719C14.645 2.26927 13.3534 2 11.999 2C9.3567 2 6.95373 3.02482 5.16592 4.69868C3.21694 6.52342 1.99902 9.11948 1.99902 12C1.99902 15.4168 3.71269 18.4334 6.32744 20.2372C7.67081 21.1639 9.25203 21.7705 10.9609 21.9468C11.3021 21.982 11.6485 22 11.999 22Z" fill="#D9D9D9"/>
<path d="M11.999 22C17.5219 22 21.999 17.5228 21.999 12C21.999 7.83158 19.4486 4.25884 15.823 2.75719C14.645 2.26927 13.3534 2 11.999 2C9.3567 2 6.95373 3.02482 5.16592 4.69868C3.21694 6.52342 1.99902 9.11948 1.99902 12C1.99902 15.4168 3.71269 18.4334 6.32744 20.2372C7.67081 21.1639 9.25203 21.7705 10.9609 21.9468C11.3021 21.982 11.6485 22 11.999 22Z" fill="url(#paint0_linear_4914_56)"/>
<path d="M7.88645 18.8332C13.4329 13.2883 13.4512 4.69592 5.41047 4.69592C5.32839 4.69592 5.24687 4.69691 5.16592 4.69868C3.21694 6.52342 1.99902 9.11948 1.99902 12C1.99902 15.4168 3.71269 18.4334 6.32744 20.2372C6.84104 19.8239 7.36158 19.3581 7.88645 18.8332Z" fill="#D9D9D9"/>
<path d="M7.88645 18.8332C13.4329 13.2883 13.4512 4.69592 5.41047 4.69592C5.32839 4.69592 5.24687 4.69691 5.16592 4.69868C3.21694 6.52342 1.99902 9.11948 1.99902 12C1.99902 15.4168 3.71269 18.4334 6.32744 20.2372C6.84104 19.8239 7.36158 19.3581 7.88645 18.8332Z" fill="url(#paint1_linear_4914_56)"/>
<path d="M11.999 22C17.5219 22 21.999 17.5228 21.999 12C21.999 7.83158 19.4486 4.25884 15.823 2.75719C17.6941 4.04164 18.8293 6.11756 18.8293 9.38316C18.8293 14.2993 15.6818 19.0617 10.9609 21.9468C11.3021 21.982 11.6485 22 11.999 22Z" fill="#D9D9D9"/>
<defs>
<linearGradient id="paint0_linear_4914_56" x1="11.999" y1="2" x2="11.999" y2="22" gradientUnits="userSpaceOnUse">
<stop stop-color="#739EFA"/>
<stop offset="1" stop-color="#1538C2"/>
</linearGradient>
<linearGradient id="paint1_linear_4914_56" x1="11.999" y1="2" x2="11.999" y2="22" gradientUnits="userSpaceOnUse">
<stop stop-color="#3F4042"/>
<stop offset="1" stop-color="#1F2021"/>
</linearGradient>
</defs>
</svg>
