<svg xmlns="http://www.w3.org/2000/svg" width="24" height="24" viewBox="0 0 24 24" fill="none"><rect width="24" height="24" fill="none"/>
<path fill-rule="evenodd" clip-rule="evenodd" d="M1.99951 4.53034V11.4239H3.40421V10.0095H4.93217C5.37517 9.99559 5.80638 9.86343 6.18106 9.62668C6.64562 9.35582 7.01763 8.95099 7.24838 8.46533C7.46894 8.02036 7.55882 7.52209 7.50794 7.02811C7.47924 6.68393 7.38569 6.34824 7.23218 6.03878C6.99113 5.54847 6.6064 5.14337 6.1292 4.87744C5.73465 4.64863 5.28763 4.52566 4.83152 4.52051L1.99951 4.53034ZM3.40421 8.61123V5.9381H4.46171C4.66941 5.93173 4.87725 5.94804 5.0814 5.98679C5.32183 6.03425 5.54265 6.15218 5.71588 6.32542C5.88924 6.4987 6.0071 6.71961 6.05453 6.96005C6.09485 7.12937 6.10076 7.30506 6.0717 7.47671C6.04275 7.64838 5.97948 7.81243 5.88582 7.95917C5.79043 8.10976 5.66634 8.24009 5.52045 8.34246C5.37467 8.44483 5.20999 8.51754 5.03588 8.55604C4.91832 8.57836 4.79876 8.58816 4.6791 8.58535L3.40421 8.61123Z" fill="white"/>
<path fill-rule="evenodd" clip-rule="evenodd" d="M21.4636 7.97218C21.5511 7.86195 21.6388 7.74193 21.668 7.69645C21.9499 7.26364 22.0576 6.74035 21.9698 6.23125C21.8819 5.72233 21.605 5.26536 21.1943 4.95208C20.6796 4.64017 20.082 4.49303 19.4815 4.53034H15.6535V11.4239H19.4815C19.9031 11.4239 20.8051 11.2811 21.1879 10.9892C21.5985 10.6758 21.8754 10.2189 21.9634 9.70993C22.0511 9.20096 21.9434 8.67757 21.6615 8.24474C21.6323 8.19939 21.5349 8.07286 21.4571 7.97218H21.4636ZM17.0582 5.93173H19.8838C20.071 5.93273 20.2505 6.00727 20.3833 6.13931C20.4684 6.22967 20.5259 6.34249 20.5489 6.46435C20.5719 6.58635 20.5595 6.71227 20.513 6.82729C20.4665 6.94241 20.3881 7.04172 20.2869 7.11356C20.1858 7.1854 20.0661 7.22674 19.9421 7.23261H17.0582V5.93173ZM20.3898 9.80186C20.3249 9.86858 20.2473 9.92142 20.1614 9.9571C20.0754 9.99278 19.9832 10.0107 19.8901 10.0095H17.0646V8.71189H19.9487C20.0719 8.71826 20.1908 8.75971 20.2915 8.83144C20.392 8.90302 20.47 9.00186 20.5163 9.11638C20.5627 9.23076 20.5753 9.35606 20.553 9.47756C20.5305 9.59895 20.4739 9.71152 20.3898 9.80186Z" fill="white"/>
<path fill-rule="evenodd" clip-rule="evenodd" d="M8.33494 5.21473C8.33664 5.11835 8.35835 5.02334 8.39857 4.93577C8.43865 4.84812 8.49652 4.76976 8.56836 4.70553C8.64022 4.64129 8.72456 4.5926 8.81617 4.56246C8.90775 4.53217 9.0045 4.52126 9.1005 4.5302H9.74922V9.03287C9.74922 9.03287 13.0322 4.78327 13.2626 4.5302H14.6315V11.4237H13.2269V6.90157L9.74922 11.4237H8.34131L8.33494 5.21473Z" fill="white"/>
<path fill-rule="evenodd" clip-rule="evenodd" d="M20.6275 12.7677V18.0121H19.106V12.7677H17.7367V18.0121H16.2153V12.7677H14.8552V19.366H21.9814V13.4229C21.9795 13.3309 21.9587 13.2403 21.9205 13.1567C21.8823 13.0731 21.8271 12.9982 21.7588 12.9368C21.6904 12.8753 21.61 12.8286 21.5228 12.7995C21.4354 12.7704 21.3433 12.7596 21.2516 12.7677H20.6275Z" fill="white"/>
<path fill-rule="evenodd" clip-rule="evenodd" d="M3.36911 14.1278H6.74735V12.7584H2.00906V19.3661H3.36911V14.1278Z" fill="white"/>
<path fill-rule="evenodd" clip-rule="evenodd" d="M13.0244 13.68C12.3975 13.0189 11.5338 12.6337 10.623 12.6094H10.5267C9.62297 12.6009 8.75204 12.9477 8.10164 13.5751C7.61896 14.0489 7.2866 14.6544 7.14589 15.316C7.00517 15.9775 7.06245 16.666 7.31054 17.2952C7.55851 17.9244 7.98642 18.4667 8.54069 18.8543C9.09496 19.2419 9.75111 19.4576 10.4273 19.4748L10.4398 19.4778C11.3505 19.5021 12.2336 19.1636 12.895 18.5367C13.5561 17.91 13.9413 17.0461 13.9656 16.1353C13.9898 15.2245 13.6514 14.3412 13.0244 13.68ZM10.5225 18.0402C9.41535 18.0402 8.51786 17.1427 8.51786 16.0356C8.51786 14.9284 9.41535 14.0309 10.5225 14.0309C11.6296 14.0309 12.5271 14.9284 12.5271 16.0356C12.5271 17.1427 11.6296 18.0402 10.5225 18.0402Z" fill="white"/>
</svg>
