<svg xmlns="http://www.w3.org/2000/svg" width="66" height="24" viewBox="0 0 66 24" fill="none"><rect width="66" height="24" fill="none"/>
<path fill-rule="evenodd" clip-rule="evenodd" d="M27.5608 6.82259H29.5L32.925 15.4713H30.9275L30.2662 13.6951H26.6887L26.0392 15.4713H24.0546L27.5608 6.82259ZM35.0975 6.82259H33.4312V8.31717H35.0979L35.0975 6.82259ZM35.0975 9.18634H33.4312V15.4713H35.0979L35.0975 9.18634ZM37.6337 10.1909H37.6704C38.0504 9.48051 38.4787 9.11301 39.2142 9.11301C39.3975 9.11301 39.5083 9.12551 39.6058 9.16176V10.6201H39.5692C38.4792 10.5097 37.695 11.0855 37.695 12.4084V15.4713H36.0287V9.18634H37.6337V10.1909ZM44.5187 6.82259H42.8525V8.31717H44.5187V6.82259ZM42.8525 9.18634H44.5187V15.4713H42.8525V9.18634ZM47.1158 10.0438H47.0792V9.18634H45.45V15.4713H47.1158V11.9063C47.1158 11.0484 47.655 10.4605 48.39 10.4605C49.0883 10.4605 49.4804 10.9384 49.4804 11.6122V15.4713H51.1467V11.3672C51.1467 9.99509 50.2767 9.01467 48.9779 9.01467C48.1204 9.01467 47.5446 9.37009 47.1158 10.0438ZM51.8325 12.323C51.8325 10.4605 53.0942 9.01467 54.9317 9.01467C56.9533 9.01467 58.0312 10.5588 58.0312 12.8005H53.4742C53.5967 13.7684 54.1354 14.3688 55.0788 14.3688C55.7283 14.3688 56.1079 14.0747 56.2917 13.5968H57.9333C57.7008 14.7118 56.7083 15.6551 55.0912 15.6551C53.0083 15.6551 51.8325 14.1968 51.8325 12.323ZM56.2917 11.6488H53.4983C53.6454 10.828 54.0742 10.3013 54.9562 10.3013C55.7158 10.3013 56.2429 10.8526 56.2917 11.6488ZM58.415 13.4376H59.9587C60.0692 14.1605 60.5837 14.4793 61.3312 14.4793C62.0662 14.4793 62.4829 14.1972 62.4829 13.7563C62.4829 13.2313 61.8742 13.1188 61.1479 12.9838C61.0415 12.9643 60.9348 12.944 60.8287 12.923C59.7017 12.7026 58.5992 12.3963 58.5992 11.0243C58.5992 9.66426 59.7262 9.01509 61.1596 9.01509C62.8133 9.01509 63.7325 9.83592 63.855 11.0976H62.3479C62.2746 10.4238 61.8454 10.1788 61.135 10.1788C60.4858 10.1788 60.0571 10.4238 60.0571 10.8772C60.0571 11.3293 60.6429 11.4368 61.3596 11.568C61.4975 11.593 61.6404 11.6193 61.7846 11.6493C62.8379 11.8697 64.0021 12.1634 64.0021 13.6338C64.0021 14.8955 62.9237 15.6555 61.3558 15.6555C59.53 15.6555 58.5133 14.773 58.415 13.4376ZM27.1662 12.2372H29.7758L28.4529 8.56134L27.1662 12.2372ZM41.9217 6.82259H40.255V15.4709H41.9217V6.82259Z" fill="white"/>
<path fill-rule="evenodd" clip-rule="evenodd" d="M22 12.0021C22 17.5271 17.5258 22 12.0029 22C6.47917 22 2 17.5267 2 12.0021C2 6.4775 6.47917 2 12.0029 2C17.5262 2 22 6.4775 22 12.0021ZM11.2242 6.82208C9.6575 6.82208 8.64125 6.90833 7.90542 7.18167C6.66917 7.66333 5.81542 8.67292 5.81542 9.99917C5.81542 11.1042 6.33 11.9042 7.81875 12.8242C9.4075 13.7875 9.72417 14.1058 9.72417 14.6858C9.72417 15.3212 9.10208 16.0442 7.50083 16.0442C6.9425 16.0442 6.10042 15.9667 5.5625 15.835L5.30583 15.7704C5.16292 16.1542 4.83792 17.0621 4.73875 17.3912L4.99292 17.4662C5.47625 17.6204 6.625 17.7412 7.44708 17.7412C10.1837 17.7412 11.8167 16.0875 11.8167 14.3567C11.8167 13.2929 11.3333 12.4842 9.70125 11.4658C8.8825 10.9617 8.46542 10.6354 8.21167 10.3825C8.00667 10.1187 7.98375 9.92208 7.98375 9.71458C7.98375 9.51667 8.02792 9.28833 8.15875 9.12125C8.29958 8.91417 8.55875 8.7825 8.90958 8.67375C9.27 8.55417 9.9375 8.55125 10.9775 8.55125H11.9462L12.6379 6.82208H11.2242ZM13.6767 6.82208H18.5433C18.7717 6.82208 18.8154 6.98375 18.7275 7.15958C18.4092 7.94833 15.4067 15.4708 15.4067 15.4708H13.4C13.4 15.4708 15.7712 9.42792 16.165 8.52792C16.0737 8.52792 15.99 8.53042 15.8779 8.53375C15.655 8.54083 15.3212 8.55125 14.5979 8.55125H12.985L13.6767 6.82208Z" fill="#C4D600"/>
</svg>
