<svg xmlns="http://www.w3.org/2000/svg" width="24" height="24" viewBox="0 0 24 24" fill="none"><rect width="24" height="24" fill="none"/>
<path fill-rule="evenodd" clip-rule="evenodd" d="M17.1719 8.05422C17.4541 7.28978 16.7104 6.5459 15.9458 6.82817L9.58927 9.17497C9.38946 9.24873 9.23209 9.4064 9.15859 9.60618L6.82578 15.9489C6.5448 16.7127 7.28732 17.4552 8.05113 17.1743L14.3939 14.8414C14.5937 14.7679 14.7513 14.6105 14.8251 14.4107L17.1719 8.05422Z" fill="#222222"/>
<path fill-rule="evenodd" clip-rule="evenodd" d="M22 12C22 17.5228 17.5228 22 12 22C6.47715 22 2 17.5228 2 12C2 6.47715 6.47715 2 12 2C17.5228 2 22 6.47715 22 12ZM15.9458 6.82817C16.7104 6.5459 17.4541 7.28978 17.1719 8.05422L14.8251 14.4107C14.7513 14.6105 14.5937 14.7679 14.3939 14.8414L8.05113 17.1743C7.28732 17.4552 6.5448 16.7127 6.82578 15.9489L9.15859 9.60618C9.23209 9.4064 9.38946 9.24873 9.58927 9.17497L15.9458 6.82817Z" fill="white"/>
<path d="M16.1996 7.80045L10.5698 9.87895L14.1211 13.4303L16.1996 7.80045Z" fill="white"/>
<path d="M9.86341 10.5868L7.79825 16.2018L13.4132 14.1366L9.86341 10.5868Z" fill="white"/>
</svg>
