<svg xmlns="http://www.w3.org/2000/svg" width="76" height="24" viewBox="0 0 76 24" fill="none"><rect width="76" height="24" fill="none"/>
<path d="M63.1364 10.1728C58.486 10.1728 52.6001 6.51511 52.6001 2.00165H67.3417C71.2143 2.00165 74.3548 5.04834 74.3548 8.80888C74.3548 9.2672 74.3067 9.72429 74.2113 10.1728H63.1364Z" fill="url(#paint0_linear_2724_109)"/>
<path d="M51.8069 2.00165L45.451 2.00167C44.5907 1.99779 43.8051 2.48483 43.4336 3.25244L38.3901 13.8325C38.1738 14.2872 37.475 14.137 37.475 13.6371V2.19505C37.475 2.08807 37.3835 2.00167 37.2733 2.00167L31.1171 2.00165V22.0016L37.6892 22.0016C38.5382 22.0049 39.3152 21.5301 39.6921 20.7776L44.9186 10.2037C45.0475 9.94241 45.451 10.0329 45.451 10.3209V22.0016L51.8069 22.0016V2.00165Z" fill="#4DB45E"/>
<path d="M27.8726 2.00167H20.531C19.568 2.00167 18.7195 2.63323 18.4491 3.55485L15.3855 13.9971C15.2566 14.4435 14.6181 14.4435 14.4871 13.9971L11.4235 3.55485C11.1552 2.63323 10.3046 2.00167 9.34167 2.00167H2V22.0016H8.21026V10.467C8.21026 10.1543 8.65118 10.0885 8.74269 10.3868L12.349 22.0016H17.5236L21.1299 10.3868C21.2214 10.0885 21.6624 10.1543 21.6624 10.467V22.0016H27.8726V2.00167Z" fill="#4DB45E"/>
<path d="M74.2936 11.3475H53.9948V22.0016H60.3527V15.6161H67.7922C70.6338 15.6284 73.2016 13.9424 74.2936 11.3475Z" fill="#4DB45E"/>
<defs>
<linearGradient id="paint0_linear_2724_109" x1="52.6019" y1="6.08722" x2="74.3548" y2="6.08722" gradientUnits="userSpaceOnUse">
<stop offset="0.3" stop-color="#00B4E6"/>
<stop offset="1" stop-color="#088CCB"/>
</linearGradient>
</defs>
</svg>
