<svg xmlns="http://www.w3.org/2000/svg" width="160" height="24" viewBox="0 0 160 24" fill="none"><rect width="160" height="24" fill="none"/>
<path d="M16.809 12.2023C16.809 13.4307 17.0936 14.5094 17.6629 15.4382C18.2172 16.3371 18.9738 17.0337 19.9326 17.5281C20.8914 18.0225 21.9251 18.2697 23.0337 18.2697C24.1423 18.2697 25.176 18.0225 26.1348 17.5281C27.0936 17.0337 27.8427 16.3296 28.382 15.4157C28.9363 14.5019 29.2135 13.4307 29.2135 12.2023C29.2135 10.9588 28.9363 9.88016 28.382 8.9663C27.8427 8.0824 27.1011 7.40824 26.1573 6.94382C25.2285 6.4794 24.1873 6.24719 23.0337 6.24719C21.9101 6.24719 20.8764 6.4794 19.9326 6.94382C18.9588 7.40824 18.1948 8.09739 17.6405 9.01124C17.0861 9.91012 16.809 10.9738 16.809 12.2023ZM68.0224 21.9775V16.6742C68.367 17.2584 68.8539 17.6629 69.4831 17.8876C70.1273 18.1124 70.9363 18.2247 71.9101 18.2247C72.4344 18.2247 72.9438 18.1573 73.4382 18.0225C73.9475 17.9026 74.382 17.7154 74.7415 17.4607C75.5356 16.9663 76.1498 16.2697 76.5842 15.3708C77.0337 14.4569 77.2584 13.4082 77.2584 12.2247C77.2584 11.0861 77.0412 10.045 76.6067 9.10113C76.1573 8.20226 75.5281 7.51311 74.7191 7.03371C73.9101 6.53932 72.9738 6.29213 71.9101 6.29213C70.9063 6.29213 70.0749 6.44944 69.4157 6.76404C68.7565 7.07865 68.2247 7.54307 67.8202 8.15731V6.60675H65.2809V21.9775H68.0224ZM57.573 18.3596C57.4532 18.6891 57.3258 18.9363 57.191 19.1011C56.8464 19.5805 56.2172 19.8202 55.3034 19.8202C54.8539 19.8202 54.5019 19.7903 54.2472 19.7303L55.1685 21.8876C55.1985 21.9026 55.4532 21.9101 55.9326 21.9101C56.7565 21.9101 57.4232 21.7753 57.9326 21.5056C58.412 21.2509 58.8165 20.8764 59.146 20.382C59.4756 19.8876 59.8202 19.1536 60.1798 18.1798L64.3595 6.60675H61.618C60.6142 9.37828 59.7153 12.1348 58.9213 14.8764C58.1573 12.3745 57.2284 9.61799 56.1348 6.60675H53.2584L57.573 18.3596ZM19.573 12.1798C19.573 10.9813 19.8652 10.0674 20.4494 9.43821C21.0337 8.809 21.8727 8.49439 22.9663 8.49439C24.0599 8.49439 24.9064 8.809 25.5056 9.43821C26.1049 10.0674 26.4045 10.9813 26.4045 12.1798C26.4045 13.4082 26.1049 14.3521 25.5056 15.0112C24.9064 15.6704 24.0599 16 22.9663 16C21.8876 16 21.0487 15.6779 20.4494 15.0337C19.8652 14.3745 19.573 13.4232 19.573 12.1798ZM67.955 12.2023C67.985 11.0637 68.2846 10.1723 68.8539 9.5281C69.4382 8.86892 70.2397 8.53933 71.2584 8.53933C72.2771 8.53933 73.0711 8.86892 73.6404 9.5281C74.2097 10.1873 74.5018 11.0787 74.5168 12.2023C74.5018 13.3408 74.2097 14.2472 73.6404 14.9214C73.0711 15.5805 72.2771 15.9101 71.2584 15.9101C70.2397 15.9101 69.4382 15.5805 68.8539 14.9214C68.2846 14.2472 67.985 13.3408 67.955 12.2023ZM14.1798 2L9.41573 8.31461H7.01123V2H3.4382L2 4.67416H4.1573V17.9551H7.01123V10.7865H9.41573L14.427 17.9551H17.6854L11.8652 9.55057L17.4157 2H14.1798ZM33.3933 17.9551V13.1685H38.0449V17.9551H40.7416V6.60675H38.0449V10.9214H33.3933V6.60675H30.6742V17.9551H33.3933ZM45.7528 8.76405V17.9551H48.5168V8.76405H52.382V6.60675H41.9326V8.76405H45.7528Z" fill="#222222"/>
<path d="M85.7721 7.93259C85.7421 9.08615 85.6897 10.1199 85.6148 11.0337C85.39 13.2509 84.8133 14.9813 83.8844 16.2247H82.5586V21.2809H84.5811V17.9551H96.5811V21.2809H98.581V16.2247H96.6709V2H85.817L85.7721 7.93259ZM86.0193 16.2247C86.5586 15.4008 86.9631 14.3371 87.2327 13.0337C87.5174 11.7303 87.6672 10.0899 87.6822 8.11237L87.7271 3.73034H94.6035V16.2247H86.0193Z" fill="#844BEC"/>
<path d="M111.991 12.2023C111.991 11.0487 111.744 10.0225 111.249 9.1236C110.74 8.22473 110.036 7.5281 109.137 7.03371C108.238 6.53932 107.212 6.29213 106.058 6.29213C104.89 6.29213 103.856 6.53932 102.957 7.03371C102.058 7.54307 101.354 8.2472 100.845 9.14608C100.351 10.03 100.103 11.0487 100.103 12.2023V12.2921C100.103 13.4906 100.358 14.5318 100.867 15.4157C101.362 16.3146 102.058 17.0187 102.957 17.5281C103.856 18.0225 104.89 18.2697 106.058 18.2697C107.227 18.2697 108.253 18.015 109.137 17.5056C110.036 17.0112 110.733 16.3146 111.227 15.4157C111.736 14.5019 111.991 13.4607 111.991 12.2921V12.2023ZM102.081 12.2023C102.081 11.3633 102.253 10.6142 102.598 9.95506C102.942 9.29589 103.414 8.79402 104.013 8.44945C104.613 8.0899 105.294 7.91012 106.058 7.91012C106.837 7.91012 107.527 8.0899 108.126 8.44945C108.74 8.809 109.204 9.31087 109.519 9.95506C109.849 10.5993 110.013 11.3483 110.013 12.2023V12.2921C110.013 13.1461 109.856 13.9026 109.542 14.5618C109.212 15.236 108.748 15.7528 108.148 16.1124C107.549 16.4719 106.852 16.6517 106.058 16.6517C105.279 16.6517 104.583 16.4719 103.969 16.1124C103.369 15.7528 102.905 15.2434 102.575 14.5843C102.246 13.9101 102.081 13.1461 102.081 12.2921V12.2023Z" fill="#844BEC"/>
<path d="M119.496 18.2697C120.574 18.2697 121.496 18.0824 122.26 17.7079C123.039 17.3333 123.758 16.7191 124.417 15.8652L123.158 14.809C122.769 15.2584 122.38 15.6255 121.991 15.9101C121.286 16.3895 120.455 16.6292 119.496 16.6292C118.687 16.6292 117.983 16.442 117.384 16.0674C116.799 15.6929 116.342 15.1985 116.013 14.5843C115.699 13.9551 115.541 13.2584 115.541 12.4944V12.2247C115.541 11.4457 115.699 10.7191 116.013 10.045C116.672 8.62173 117.817 7.91012 119.451 7.91012C120.23 7.91012 120.897 8.03746 121.45 8.29214C122.005 8.53184 122.544 8.95881 123.069 9.57304L124.282 8.38203C123.668 7.63296 122.979 7.10112 122.215 6.78651C121.466 6.45693 120.552 6.29213 119.473 6.29213C118.335 6.29213 117.316 6.53932 116.417 7.03371C115.503 7.5281 114.799 8.22473 114.305 9.1236C113.81 10.0225 113.563 11.0562 113.563 12.2247V12.4944C113.563 13.618 113.81 14.6217 114.305 15.5056C114.799 16.3745 115.495 17.0562 116.394 17.5506C117.309 18.03 118.342 18.2697 119.496 18.2697Z" fill="#844BEC"/>
<path d="M135.232 6.60675H125.344V8.17978H129.321V17.9551H131.254V8.17978H135.232V6.60675Z" fill="#844BEC"/>
<path d="M143.157 10.5843L142.236 13.3708L142.034 13.9326C141.989 14.0824 141.817 14.5918 141.517 15.4607L141.315 16.1124L140.483 13.4607C140.094 12.3071 139.764 11.3483 139.495 10.5843L138.124 6.60675H136.079L140.394 18.6742C140.109 19.4981 139.726 20.015 139.247 20.2247C138.963 20.3446 138.64 20.4045 138.282 20.4045H137.113L137.697 22H138.551C139.255 22 139.817 21.8802 140.236 21.6404C140.656 21.4157 141.023 21.0412 141.337 20.5169C141.652 19.9925 141.989 19.221 142.348 18.2022L146.484 6.60675H144.528L143.157 10.5843Z" fill="#844BEC"/>
<path d="M150.026 17.9551V8.17978H155.576V17.9551H157.509V6.60675H148.093V17.9551H150.026Z" fill="#844BEC"/>
</svg>
