<svg xmlns="http://www.w3.org/2000/svg" width="82" height="24" viewBox="0 0 82 24" fill="none"><rect width="82" height="24" fill="none"/>
<path d="M60.8531 16.9085C60.8519 17.0052 60.7728 17.0818 60.6764 17.0804H55.6373L51.3122 12.6569V17.0783H46.8618V6.91892H51.3122V11.2471L55.4657 6.91892H60.343C60.3895 6.91892 60.4337 6.93701 60.4671 6.97042C60.5358 7.03863 60.5358 7.14994 60.4671 7.21815L55.8668 11.8692L60.8018 16.7818C60.8352 16.8152 60.854 16.8612 60.8531 16.9085ZM40.4394 12.1489L35.5519 6.91892H31.3199V17.081H35.5519V11.8511L40.4394 17.081H44.6797V6.91892H40.4394V12.1489ZM23.1944 6.92797C23.1764 6.9217 23.1569 6.91824 23.1375 6.91824H19.2782L17.2189 13.1112L15.055 6.91824H10.3418L8.17782 13.1112L6.11854 6.91824H2.17467C2.07832 6.91824 2 6.99686 2 7.09358C2 7.11307 2.00347 7.13185 2.0097 7.15065L5.39492 17.0804H10.5698L12.6554 11.1239L14.7431 17.0804H19.9173L23.3025 7.15065C23.3337 7.0588 23.2852 6.95928 23.1944 6.92797ZM24.6881 17.081H29.1386V6.91892H24.6881V17.081Z" fill="black"/>
<path d="M69.3107 2.14613L64.937 6.53692C64.743 6.73176 64.743 7.04767 64.937 7.24251L69.663 11.9868L64.9149 16.7568C64.7209 16.9516 64.7203 17.2675 64.9143 17.4624H64.9149L69.2886 21.8539C69.4827 22.0487 69.7973 22.0487 69.9913 21.8539L79.4662 12.3417C79.6606 12.1468 79.6606 11.8302 79.4662 11.6354L70.0143 2.14613C69.8203 1.95129 69.5048 1.95129 69.3107 2.14613Z" fill="url(#paint0_linear_4424_169)"/>
<defs>
<linearGradient id="paint0_linear_4424_169" x1="59.9847" y1="15.5968" x2="83.9749" y2="6.74081" gradientUnits="userSpaceOnUse">
<stop stop-color="#FF9532"/>
<stop offset="0.17" stop-color="#FF8A1C"/>
<stop offset="0.51" stop-color="#FF5B21"/>
<stop offset="0.79" stop-color="#FF5A24"/>
</linearGradient>
</defs>
</svg>
