<svg xmlns="http://www.w3.org/2000/svg" width="24" height="24" viewBox="0 0 24 24" fill="none"><rect width="24" height="24" fill="none"/>
<path fill-rule="evenodd" clip-rule="evenodd" d="M12.1632 10.2436H11.3675L10.6656 13.7596H11.4613L12.1632 10.2436Z" fill="white"/>
<path fill-rule="evenodd" clip-rule="evenodd" d="M3.49763 10.2436H2.69868L2 13.7596H2.79572L3.49763 10.2436Z" fill="white"/>
<path fill-rule="evenodd" clip-rule="evenodd" d="M11.1087 10.2436H10.313L8.8283 12.6825L8.36251 10.2436H7.56679L8.23959 13.7596H8.97062L11.1087 10.2436Z" fill="white"/>
<path fill-rule="evenodd" clip-rule="evenodd" d="M15.1391 10.2436H12.5416L12.4026 10.9811H13.3083L12.7551 13.7596H13.5508L14.104 10.9811H15.0032L15.1391 10.2436Z" fill="white"/>
<path fill-rule="evenodd" clip-rule="evenodd" d="M6.57376 10.2436L6.11121 12.5693L4.89176 10.2436H4.20602L3.5041 13.7596H4.27071L4.73649 11.4275L5.95271 13.7596H6.64169L7.3436 10.2436H6.57376Z" fill="white"/>
<path fill-rule="evenodd" clip-rule="evenodd" d="M17.0345 10.2436H15.5757L14.8738 13.7596H15.6695L16.2227 10.9843H16.9116C17.0701 10.9843 17.1995 11.0361 17.2868 11.1234C17.3612 11.201 17.4001 11.3142 17.3904 11.4339C17.358 11.7865 17.0798 11.9482 16.7176 11.9482H16.1353L16.8825 13.7596H17.6782L17.1801 12.5563C17.785 12.4593 18.1602 12.0162 18.1893 11.4145C18.2249 10.732 17.7235 10.2436 17.0345 10.2436Z" fill="white"/>
<path d="M18.3413 12C18.3996 11.007 19.2179 10.1918 20.2789 10.1918C21.3398 10.1918 22.0547 10.9973 21.9965 12C21.9382 12.993 21.1199 13.8081 20.0589 13.8081C18.998 13.8081 18.2831 13.006 18.3413 12ZM21.2525 12C21.2881 11.4016 20.8676 10.9002 20.2271 10.9002C19.5899 10.9002 19.1176 11.3886 19.0788 12C19.0432 12.5984 19.4637 13.0998 20.1042 13.0998C20.7447 13.0998 21.2169 12.6113 21.2525 12Z" fill="white"/>
</svg>
