<svg xmlns="http://www.w3.org/2000/svg" width="24" height="24" viewBox="0 0 24 24" fill="none"><rect width="24" height="24" fill="none"/>
<path fill-rule="evenodd" clip-rule="evenodd" d="M21.3427 16.0104C19.7828 19.5364 16.2288 22 12.0937 22C8.62196 22 5.55932 20.2634 3.74293 17.6196L7.27354 13.0003L6.61742 17.7254L10.3268 18.9753L14.735 11.8349C14.5221 13.1858 14.1711 16.2444 17.179 17.1448C18.644 17.5833 20.0478 17.0619 21.3427 16.0104ZM22 10.0726C20.5772 12.1826 19.2111 13.6645 18.4877 13.4654C17.2251 13.1179 18.363 9.07397 19.097 6.46599L19.1084 6.4254L15.0039 5.05212L10.125 13.0003L10.7811 8.70039L7.12213 7.4504L2.17888 13.8856C2.06127 13.2749 1.99985 12.6445 2 12C2 6.47679 6.51872 2 12.0937 2C17.002 2 21.0932 5.47176 22 10.0726Z" fill="#000000"/>
</svg>
