<svg xmlns="http://www.w3.org/2000/svg" width="88" height="24" viewBox="0 0 88 24" fill="none"><rect width="88" height="24" fill="none"/>
<path d="M10.2922 7.73905C9.96605 7.74806 9.6421 7.68314 9.34476 7.54918C9.08491 7.4246 8.87249 7.21949 8.73924 6.96454C8.5976 6.70096 8.51806 6.37005 8.50064 5.97179C8.49658 5.78308 8.49426 5.60248 8.49426 5.42881C8.49426 5.25516 8.49426 5.07397 8.50064 4.88585C8.51806 4.49144 8.60088 4.16343 8.74912 3.90178C8.88911 3.64574 9.10506 3.43909 9.3674 3.31018C9.65746 3.1813 9.97145 3.11469 10.289 3.11469C10.6066 3.11469 10.9206 3.1813 11.2106 3.31018C11.4737 3.43957 11.6908 3.64598 11.833 3.90178C11.9831 4.16497 12.0648 4.49299 12.078 4.88585C12.0861 5.07397 12.0907 5.25516 12.0907 5.42881C12.0907 5.60248 12.0861 5.78308 12.078 5.97179C12.0648 6.37005 11.9862 6.70096 11.8423 6.96454C11.7074 7.21948 11.4939 7.42446 11.2333 7.54918C10.9381 7.68287 10.6163 7.7478 10.2922 7.73905ZM10.2922 7.1926C10.6189 7.1926 10.8865 7.0942 11.0951 6.89739C11.3037 6.70057 11.4163 6.38123 11.433 5.93937C11.4419 5.74641 11.4463 5.5741 11.4463 5.42245C11.4463 5.27079 11.4419 5.10041 11.433 4.91131C11.4245 4.61571 11.3697 4.37587 11.2687 4.19179C11.1791 4.01898 11.0388 3.87759 10.8664 3.78659C10.687 3.70198 10.491 3.65809 10.2925 3.65809C10.094 3.65809 9.89804 3.70198 9.71862 3.78659C9.54612 3.87745 9.4057 4.01888 9.31631 4.19179C9.2153 4.37587 9.15821 4.61571 9.14505 4.91131C9.14119 5.10001 9.13905 5.2704 9.13867 5.42245C9.13828 5.5745 9.14041 5.7468 9.14505 5.93937C9.16247 6.38123 9.27645 6.70057 9.48699 6.89739C9.69753 7.0942 9.96593 7.1926 10.2922 7.1926Z" fill="#FDDD2D"/>
<path d="M13.4697 7.67395C13.4495 7.67518 13.4293 7.6721 13.4104 7.66491C13.3914 7.65773 13.3743 7.64659 13.36 7.63226C13.334 7.60298 13.3203 7.56485 13.3217 7.52575V3.33248C13.318 3.29068 13.331 3.24912 13.3577 3.21671C13.3719 3.20238 13.3891 3.19124 13.408 3.18406C13.427 3.17687 13.4472 3.17379 13.4674 3.17503H13.796C13.8166 3.17403 13.8372 3.1772 13.8566 3.18436C13.876 3.19153 13.8936 3.20253 13.9086 3.21671C13.9231 3.23151 13.9343 3.24913 13.9416 3.26845C13.9489 3.28777 13.9521 3.30839 13.951 3.32901V5.10496H16.168V3.33248C16.167 3.31191 16.1701 3.29131 16.1773 3.27199C16.1845 3.25267 16.1955 3.23503 16.2099 3.22018C16.2238 3.20638 16.2405 3.19556 16.2588 3.1884C16.2769 3.18123 16.2964 3.17786 16.3161 3.17851H16.6447C16.6655 3.17659 16.6867 3.17924 16.7063 3.18627C16.7261 3.1933 16.744 3.20453 16.7589 3.21919C16.7739 3.23386 16.7855 3.25159 16.7927 3.27116C16.8001 3.29072 16.8031 3.31165 16.8015 3.33248V7.52748C16.8022 7.54715 16.7988 7.56672 16.7915 7.58504C16.7844 7.60334 16.7735 7.62001 16.7596 7.63399C16.7447 7.64824 16.727 7.65927 16.7077 7.66645C16.6883 7.67361 16.6677 7.67676 16.6471 7.67568H16.3185C16.2987 7.67641 16.2791 7.67308 16.2608 7.66588C16.2425 7.65869 16.2258 7.64779 16.2119 7.63387C16.1981 7.61995 16.1871 7.60332 16.18 7.58501C16.1729 7.5667 16.1696 7.54712 16.1705 7.52748V5.68324H13.9533V7.52748C13.954 7.5472 13.9506 7.56683 13.9433 7.58516C13.936 7.60349 13.925 7.62012 13.9109 7.63399C13.896 7.64818 13.8783 7.65918 13.8589 7.66634C13.8396 7.67351 13.8189 7.67668 13.7983 7.67568L13.4697 7.67395Z" fill="#FDDD2D"/>
<path d="M21.1588 7.67333C21.1391 7.67413 21.1193 7.67086 21.101 7.6637C21.0826 7.65655 21.0659 7.64567 21.0519 7.63173C21.0379 7.61782 21.027 7.60114 21.0198 7.58279C21.0127 7.56445 21.0093 7.54481 21.0102 7.52513V3.75501H19.412V4.78943C19.417 5.2289 19.389 5.66813 19.3284 6.10345C19.2892 6.40859 19.2023 6.7057 19.0706 6.9839C18.9718 7.19 18.8165 7.36386 18.6224 7.48519C18.4208 7.59979 18.1938 7.66283 17.9618 7.6687C17.9417 7.67113 17.9214 7.66888 17.9023 7.66217C17.8833 7.65544 17.8661 7.64439 17.8521 7.6299C17.8371 7.61461 17.8254 7.59648 17.8177 7.57657C17.8101 7.55668 17.8066 7.53544 17.8074 7.51413V7.23165C17.8059 7.21275 17.8083 7.19376 17.8147 7.17586C17.8208 7.15797 17.8308 7.14155 17.8437 7.12764C17.8566 7.11372 17.8723 7.10263 17.8896 7.09503C17.9071 7.08742 17.926 7.08349 17.9449 7.08346C18.0786 7.06182 18.203 7.00142 18.3026 6.9098C18.4231 6.79174 18.5147 6.64753 18.5702 6.48839C18.654 6.25594 18.7102 6.01444 18.7374 5.76887C18.7796 5.41603 18.799 5.06084 18.7954 4.70551V3.32434C18.7947 3.30471 18.7981 3.28514 18.8052 3.26686C18.8125 3.24858 18.8234 3.23198 18.8374 3.21812C18.8512 3.20426 18.8679 3.19342 18.8864 3.1863C18.9047 3.17918 18.9243 3.17592 18.944 3.17673H21.4984C21.5175 3.17593 21.5366 3.17901 21.5545 3.18577C21.5723 3.19254 21.5885 3.20285 21.6023 3.21609C21.6295 3.24705 21.6435 3.28734 21.6412 3.32839V7.52688C21.6428 7.56609 21.6288 7.60431 21.6023 7.63338C21.5881 7.6477 21.5712 7.65883 21.5523 7.66602C21.5335 7.6732 21.5133 7.67629 21.4932 7.67506L21.1588 7.67333Z" fill="#FDDD2D"/>
<path d="M22.7962 7.67264C22.7793 7.6726 22.7626 7.66914 22.7472 7.66248C22.7317 7.65581 22.7177 7.64607 22.7062 7.63386C22.6938 7.62241 22.684 7.60851 22.6772 7.59306C22.6706 7.57762 22.6671 7.56096 22.6673 7.54413C22.6675 7.52047 22.6697 7.49686 22.6736 7.47352L24.2719 3.31729C24.287 3.27803 24.3115 3.24305 24.3434 3.21541C24.3824 3.18704 24.4303 3.17349 24.4785 3.17721H24.9169C24.9651 3.17369 25.013 3.18722 25.0522 3.21541C25.0835 3.24376 25.1078 3.27905 25.123 3.31845L26.7148 7.47641C26.7229 7.4991 26.7272 7.52295 26.7276 7.54703C26.7276 7.5638 26.7242 7.58041 26.7178 7.59584C26.7112 7.61126 26.7015 7.62518 26.6892 7.63675C26.6775 7.64894 26.6635 7.65864 26.6479 7.6653C26.6324 7.67197 26.6156 7.67544 26.5986 7.67553H26.2701C26.2496 7.67731 26.229 7.67478 26.2096 7.6681C26.1903 7.66141 26.1725 7.65074 26.1575 7.63675C26.1371 7.61645 26.1208 7.59248 26.1094 7.56613L25.7545 6.65385H23.6409L23.285 7.56497C23.2773 7.59248 23.2615 7.61707 23.2397 7.6356C23.2239 7.64942 23.2054 7.65996 23.1855 7.66662C23.1656 7.67328 23.1446 7.67591 23.1236 7.67437L22.7962 7.67264ZM23.8272 6.09815H25.5688L24.698 3.81685L23.8272 6.09815Z" fill="#FDDD2D"/>
<path d="M27.9065 7.67311C27.886 7.67436 27.8654 7.67094 27.8464 7.66312C27.8275 7.6553 27.8104 7.64328 27.7968 7.62796C27.7709 7.59742 27.7571 7.55852 27.7579 7.51856V3.33166C27.7568 3.31104 27.76 3.29042 27.7673 3.2711C27.7746 3.25177 27.7857 3.23416 27.8003 3.21936C27.8141 3.20555 27.8308 3.19474 27.849 3.18757C27.8673 3.1804 27.8868 3.17704 27.9065 3.17768H28.2415C28.261 3.17704 28.2807 3.1804 28.2988 3.18757C28.3171 3.19474 28.3337 3.20555 28.3477 3.21936C28.362 3.23428 28.373 3.25193 28.3801 3.27124C28.3873 3.29054 28.3905 3.31109 28.3894 3.33166V6.65432L30.7935 3.2674C30.8101 3.24648 30.8286 3.22711 30.8486 3.20952C30.8788 3.18595 30.9168 3.17458 30.9548 3.17768H31.2708C31.2903 3.17704 31.3099 3.1804 31.3281 3.18757C31.3464 3.19474 31.3631 3.20555 31.377 3.21936C31.3912 3.23428 31.4023 3.25193 31.4094 3.27123C31.4165 3.29054 31.4198 3.31109 31.4187 3.33166V7.52666C31.4194 7.54615 31.4159 7.56554 31.4086 7.58364C31.4013 7.60174 31.3904 7.61817 31.3766 7.6319C31.3627 7.64562 31.3461 7.65637 31.328 7.66346C31.3098 7.67055 31.2903 7.67384 31.2708 7.67311H30.9422C30.9015 7.67399 30.8621 7.65903 30.8324 7.63144C30.8177 7.61797 30.806 7.60149 30.7982 7.5831C30.7904 7.56473 30.7866 7.54489 30.7871 7.52493V4.23004L28.3894 7.58745C28.3745 7.60857 28.3571 7.62798 28.3379 7.64533C28.3072 7.67038 28.2681 7.68299 28.2287 7.68064L27.9065 7.67311ZM29.5691 2.91777C29.3113 2.91777 29.1105 2.87918 28.9666 2.802C28.8351 2.73737 28.728 2.63249 28.6607 2.50273C28.6006 2.38481 28.569 2.25461 28.5683 2.12241C28.5674 2.09035 28.5789 2.05918 28.6008 2.03559C28.6126 2.02337 28.6269 2.01387 28.6428 2.00777C28.6586 2.00167 28.6756 1.99911 28.6926 2.00027H28.9167C28.9332 1.99937 28.9499 2.00205 28.9655 2.00814C28.981 2.01424 28.995 2.0236 29.0066 2.03558C29.0283 2.05931 29.0398 2.09039 29.0392 2.12241C29.0392 2.18685 29.0534 2.25048 29.0809 2.30881C29.1152 2.37527 29.1708 2.42843 29.2388 2.45989C29.3423 2.50462 29.4548 2.52445 29.5674 2.51778C29.6811 2.52509 29.795 2.50525 29.8994 2.45989C29.9662 2.4277 30.0203 2.37463 30.0539 2.30881C30.0814 2.25048 30.0957 2.18685 30.0957 2.12241C30.095 2.09039 30.1066 2.05931 30.1282 2.03558C30.14 2.02337 30.1544 2.01387 30.1701 2.00777C30.186 2.00167 30.203 1.99911 30.2199 2.00027H30.4458C30.4625 1.99937 30.4792 2.00205 30.4946 2.00814C30.5101 2.01424 30.5241 2.0236 30.5357 2.03558C30.5574 2.05931 30.5689 2.09039 30.5683 2.12241C30.5683 2.25505 30.5373 2.38588 30.4777 2.50446C30.4109 2.63359 30.3048 2.73834 30.1747 2.80373C30.0327 2.88091 29.8308 2.9195 29.5691 2.9195L29.5691 2.91777Z" fill="#FDDD2D"/>
<path d="M32.9226 7.67249C32.9024 7.67373 32.8822 7.67066 32.8633 7.66347C32.8444 7.65628 32.8272 7.64515 32.8129 7.63082C32.7869 7.60154 32.7732 7.5634 32.7746 7.52431V3.33104C32.7725 3.2901 32.7863 3.24991 32.8129 3.21874C32.8272 3.2044 32.8444 3.19327 32.8633 3.18608C32.8822 3.17889 32.9024 3.17582 32.9226 3.17706H33.2512C33.2719 3.17605 33.2925 3.17923 33.3119 3.18639C33.3312 3.19355 33.3489 3.20456 33.3639 3.21874C33.3783 3.23354 33.3896 3.25115 33.3968 3.27047C33.4041 3.2898 33.4073 3.31042 33.4063 3.33104V5.1035H35.6233V3.33104C35.6222 3.31046 35.6253 3.28986 35.6325 3.27054C35.6397 3.25122 35.6508 3.23358 35.6652 3.21874C35.6791 3.20493 35.6957 3.19411 35.7139 3.18695C35.7322 3.17978 35.7517 3.17642 35.7714 3.17706H36.1C36.1207 3.17541 36.1416 3.17826 36.1611 3.18541C36.1806 3.19255 36.1984 3.20383 36.213 3.21846C36.2277 3.23309 36.2391 3.25073 36.2464 3.27016C36.2537 3.2896 36.2565 3.31036 36.255 3.33104V7.52604C36.2557 7.54569 36.2523 7.56528 36.2451 7.58358C36.2379 7.6019 36.227 7.61855 36.2132 7.63255C36.1982 7.64673 36.1805 7.65774 36.1612 7.6649C36.1418 7.67206 36.1212 7.67524 36.1005 7.67423H35.7719C35.7523 7.67497 35.7326 7.67163 35.7143 7.66444C35.696 7.65724 35.6793 7.64634 35.6655 7.63242C35.6516 7.6185 35.6407 7.60186 35.6336 7.58356C35.6264 7.56525 35.6231 7.54566 35.624 7.52604V5.68179H33.4068V7.52604C33.4075 7.54574 33.4041 7.56538 33.3968 7.58372C33.3896 7.60204 33.3785 7.61867 33.3644 7.63255C33.3495 7.64673 33.3318 7.65774 33.3124 7.6649C33.2931 7.67206 33.2725 7.67523 33.2519 7.67422L32.9226 7.67249Z" fill="#FDDD2D"/>
<path d="M37.5977 5.69665C37.5784 5.69766 37.5592 5.69444 37.5413 5.68724C37.5235 5.68004 37.5074 5.66903 37.4943 5.65498C37.4681 5.626 37.4542 5.58804 37.4554 5.54904V5.30476C37.4542 5.26577 37.4681 5.22781 37.4943 5.19883C37.5075 5.1849 37.5235 5.17397 37.5414 5.16678C37.5592 5.15959 37.5785 5.15631 37.5977 5.15716H39.5372C39.557 5.15656 39.5765 5.15996 39.595 5.16712C39.6133 5.17428 39.63 5.18507 39.6441 5.19883C39.658 5.21271 39.6687 5.22928 39.676 5.24749C39.6831 5.2657 39.6865 5.28519 39.6858 5.30476V5.54904C39.6866 5.56867 39.6833 5.58824 39.676 5.60652C39.6689 5.6248 39.658 5.64139 39.644 5.65526C39.63 5.66912 39.6133 5.67996 39.595 5.68708C39.5765 5.6942 39.5569 5.69746 39.5372 5.69665L37.5977 5.69665Z" fill="#FDDD2D"/>
<path d="M41.0293 7.6737C41.0091 7.67493 40.9891 7.67185 40.9702 7.66466C40.9514 7.65747 40.9343 7.64634 40.9201 7.63202C40.8938 7.60296 40.8798 7.56473 40.8812 7.52551V3.33224C40.8791 3.29119 40.8931 3.25091 40.9201 3.21994C40.9343 3.20562 40.9514 3.19449 40.9702 3.18731C40.9891 3.18011 41.0091 3.17703 41.0293 3.17826H41.3584C41.3793 3.17653 41.4001 3.17931 41.4198 3.18642C41.4393 3.19353 41.4571 3.20479 41.4719 3.21943C41.4867 3.23407 41.4981 3.25174 41.5054 3.27122C41.5127 3.2907 41.5156 3.31152 41.514 3.33224V5.10472H42.2426L43.3897 3.27957C43.4099 3.24669 43.4389 3.22004 43.4734 3.20258C43.516 3.18405 43.5621 3.17534 43.6086 3.17711H43.9569C43.9759 3.17543 43.9949 3.17799 44.0127 3.1846C44.0304 3.19121 44.0466 3.2017 44.0598 3.21531C44.081 3.24058 44.0925 3.27261 44.0922 3.30562C44.0903 3.33608 44.0789 3.36521 44.0598 3.38897L42.8214 5.35826L44.1811 7.45316C44.1949 7.47401 44.2016 7.49879 44.2002 7.52377C44.2011 7.56427 44.186 7.60352 44.1584 7.63318C44.145 7.6479 44.1286 7.65956 44.1103 7.66735C44.092 7.67515 44.0722 7.67889 44.0522 7.67833H43.6846C43.6471 7.68097 43.6095 7.67077 43.5784 7.64938C43.5557 7.63001 43.536 7.60716 43.5204 7.58166L42.2687 5.683H41.514V7.52726C41.5147 7.54691 41.5113 7.56648 41.5042 7.5848C41.4969 7.60311 41.4861 7.61977 41.4723 7.63376C41.4573 7.64794 41.4396 7.65894 41.4202 7.66611C41.4008 7.67327 41.3802 7.67645 41.3596 7.67544L41.0293 7.6737Z" fill="#FDDD2D"/>
<path d="M45.4334 7.67253C45.413 7.67365 45.3925 7.67016 45.3735 7.66236C45.3545 7.65454 45.3374 7.64258 45.3237 7.62737C45.298 7.59678 45.2844 7.55788 45.2855 7.51797V3.33107C45.2844 3.3105 45.2876 3.28995 45.2948 3.27065C45.3019 3.25134 45.3129 3.2337 45.3272 3.21877C45.3412 3.20497 45.3578 3.19415 45.3761 3.18698C45.3942 3.17981 45.4139 3.17645 45.4334 3.17709H45.7684C45.7881 3.1765 45.8077 3.17989 45.8261 3.18706C45.8445 3.19422 45.8612 3.205 45.8753 3.21877C45.8895 3.23369 45.9005 3.25134 45.9078 3.27065C45.9149 3.28995 45.9181 3.3105 45.917 3.33107V6.65373L48.3211 3.26681C48.3375 3.24588 48.3557 3.22651 48.3756 3.20893C48.4059 3.18541 48.4437 3.17405 48.4819 3.17709H48.7977C48.8174 3.17645 48.8369 3.17981 48.8552 3.18698C48.8734 3.19415 48.8901 3.20497 48.9039 3.21877C48.9182 3.23366 48.9292 3.25132 48.9362 3.27064C48.9434 3.28996 48.9464 3.31053 48.9452 3.33107V7.52607C48.9458 7.5455 48.9423 7.56485 48.9351 7.58291C48.9279 7.60097 48.917 7.61737 48.9032 7.63108C48.8894 7.64481 48.873 7.65557 48.8548 7.66269C48.8366 7.66982 48.8172 7.67316 48.7977 7.67253H48.4691C48.4285 7.67339 48.3892 7.65844 48.3594 7.63084C48.3446 7.61738 48.3329 7.60089 48.3251 7.58252C48.3173 7.56413 48.3135 7.54429 48.3141 7.52433V4.22946L45.917 7.58686C45.9018 7.60783 45.8845 7.62723 45.8654 7.64474C45.8345 7.66988 45.7954 7.68249 45.7556 7.68006L45.4334 7.67253Z" fill="#FDDD2D"/>
<path d="M50.4508 7.67312C50.4306 7.67444 50.4103 7.6714 50.3914 7.66421C50.3724 7.65701 50.3552 7.64584 50.3411 7.63145C50.3148 7.60223 50.301 7.56409 50.3022 7.52494V3.33166C50.2987 3.28979 50.3119 3.24821 50.3388 3.21589C50.3529 3.2015 50.3702 3.19032 50.389 3.18313C50.408 3.17594 50.4283 3.1729 50.4485 3.17422H50.7771C50.7982 3.17223 50.8196 3.17494 50.8397 3.18217C50.8596 3.18939 50.8778 3.20095 50.8927 3.216C50.9078 3.23106 50.9192 3.24924 50.9263 3.26924C50.9333 3.28924 50.9359 3.31056 50.9337 3.33166V5.10414H53.1509V3.33166C53.1499 3.3111 53.1531 3.29055 53.1602 3.27124C53.1675 3.25194 53.1785 3.23429 53.1927 3.21937C53.2067 3.20562 53.2232 3.19484 53.2415 3.18767C53.2598 3.18051 53.2794 3.17711 53.2989 3.17769H53.6281C53.6488 3.17613 53.6696 3.17904 53.689 3.18623C53.7085 3.19341 53.7261 3.2047 53.7408 3.21933C53.7555 3.23395 53.7668 3.25155 53.774 3.27094C53.7812 3.29033 53.7841 3.31104 53.7825 3.33166V7.52667C53.7832 7.54633 53.7798 7.56591 53.7727 7.58422C53.7654 7.60252 53.7546 7.61919 53.7408 7.63319C53.7257 7.64736 53.7081 7.65837 53.6887 7.66553C53.6693 7.67269 53.6487 7.67587 53.6281 7.67486H53.2995C53.2799 7.6756 53.2602 7.67226 53.2418 7.66506C53.2235 7.65787 53.2069 7.64697 53.1929 7.63305C53.1791 7.61913 53.1682 7.6025 53.161 7.58419C53.1539 7.56588 53.1507 7.5463 53.1515 7.52667V5.68242H50.9337V7.52667C50.9344 7.54633 50.931 7.56591 50.9239 7.58422C50.9166 7.60252 50.9059 7.61918 50.892 7.63318C50.8771 7.64736 50.8593 7.65837 50.8399 7.66553C50.8207 7.67269 50.7999 7.67587 50.7794 7.67486L50.4508 7.67312Z" fill="#FDDD2D"/>
<path d="M56.797 7.73905C56.4707 7.74806 56.1468 7.68314 55.8495 7.54918C55.5896 7.4246 55.3772 7.21949 55.2439 6.96454C55.1023 6.70096 55.0228 6.37005 55.0054 5.97179C55.0013 5.78308 54.9989 5.60248 54.9989 5.42881C54.9989 5.25516 54.9989 5.07397 55.0054 4.88585C55.0228 4.49144 55.1054 4.16343 55.2532 3.90178C55.3936 3.6458 55.6098 3.43923 55.8721 3.31018C56.1622 3.1813 56.4762 3.11469 56.7937 3.11469C57.1113 3.11469 57.4253 3.1813 57.7154 3.31018C57.9783 3.43973 58.1954 3.64609 58.3377 3.90178C58.4875 4.16497 58.5689 4.49299 58.5821 4.88585C58.591 5.07417 58.5954 5.25516 58.5954 5.42881C58.5954 5.60248 58.5908 5.78308 58.5821 5.97179C58.5693 6.37005 58.4919 6.70096 58.3499 6.96454C58.2148 7.21936 58.0014 7.42428 57.7408 7.54918C57.4448 7.68325 57.1219 7.74818 56.797 7.73905ZM56.797 7.1926C57.1231 7.1926 57.3906 7.0942 57.5992 6.89739C57.8078 6.70057 57.9207 6.38123 57.9377 5.93937C57.9462 5.74641 57.9504 5.5741 57.9504 5.42245C57.9504 5.27079 57.9462 5.10041 57.9377 4.91131C57.9287 4.61571 57.8739 4.37587 57.7734 4.19179C57.6837 4.01883 57.5432 3.87742 57.3705 3.78659C57.1912 3.70199 56.9952 3.65811 56.797 3.65811C56.5986 3.65811 56.4026 3.70199 56.2233 3.78659C56.0507 3.87757 55.9102 4.01894 55.8204 4.19179C55.7195 4.37587 55.6625 4.61571 55.6497 4.91131C55.6458 5.10001 55.6438 5.2704 55.6434 5.42245C55.643 5.5745 55.6452 5.7468 55.6497 5.93937C55.6671 6.38123 55.7811 6.70057 55.9916 6.89739C56.2023 7.0942 56.4707 7.1926 56.797 7.1926Z" fill="#FDDD2D"/>
<path d="M60.7586 7.67245C60.739 7.67327 60.7193 7.66999 60.7009 7.66284C60.6825 7.65568 60.6658 7.64479 60.6518 7.63086C60.6378 7.61694 60.6269 7.60027 60.6197 7.58193C60.6126 7.56357 60.6092 7.54394 60.61 7.52426V3.74777H59.3729C59.3532 3.74859 59.3335 3.74532 59.3151 3.73816C59.2967 3.731 59.28 3.72011 59.266 3.70619C59.252 3.69226 59.2411 3.67559 59.234 3.65725C59.2268 3.6389 59.2235 3.61926 59.2243 3.59959V3.33099C59.2233 3.31043 59.2264 3.28987 59.2337 3.27057C59.2408 3.25127 59.2519 3.23362 59.2662 3.21869C59.2802 3.20493 59.2968 3.19414 59.3153 3.18698C59.3336 3.17982 59.3532 3.17643 59.3729 3.17702H62.4794C62.5002 3.17546 62.5209 3.17837 62.5403 3.18555C62.5598 3.19274 62.5774 3.20403 62.5921 3.21865C62.6068 3.23327 62.6181 3.25088 62.6253 3.27027C62.6325 3.28966 62.6354 3.31037 62.6338 3.33099V3.60074C62.6345 3.6204 62.6311 3.63998 62.624 3.65829C62.6167 3.67661 62.6059 3.69326 62.5921 3.70726C62.5771 3.72143 62.5594 3.73244 62.54 3.7396C62.5206 3.74676 62.5 3.74994 62.4794 3.74893H61.2481V7.526C61.2487 7.54566 61.2454 7.56524 61.2382 7.58355C61.231 7.60185 61.2202 7.61852 61.2063 7.63252C61.1913 7.64669 61.1736 7.6577 61.1542 7.66486C61.1349 7.67202 61.1143 7.6752 61.0937 7.67419L60.7586 7.67245Z" fill="#FDDD2D"/>
<path d="M63.7902 7.6747C63.77 7.67602 63.7497 7.67298 63.7308 7.66579C63.7119 7.6586 63.6948 7.64742 63.6805 7.63303C63.654 7.60397 63.6401 7.56572 63.6416 7.52651V3.33325C63.6394 3.2922 63.6533 3.25191 63.6805 3.22095C63.6948 3.20655 63.7119 3.19538 63.7308 3.18819C63.7497 3.181 63.77 3.17796 63.7902 3.17927H66.452C66.4722 3.17804 66.4922 3.18112 66.5111 3.18831C66.5299 3.1955 66.547 3.20663 66.5612 3.22095C66.5882 3.25191 66.6022 3.2922 66.6001 3.33325V3.57637C66.6021 3.59627 66.5998 3.61638 66.5931 3.63524C66.5863 3.6541 66.5756 3.67124 66.5613 3.68538C66.5472 3.69953 66.5299 3.71034 66.5111 3.71702C66.4921 3.72369 66.4719 3.72608 66.452 3.72399H64.2605V5.13177H66.3097C66.3299 5.13054 66.3502 5.1336 66.3691 5.14079C66.3881 5.14798 66.4053 5.15911 66.4194 5.17345C66.4462 5.20462 66.4599 5.24481 66.4578 5.28575V5.52366C66.4593 5.56259 66.4455 5.60056 66.4194 5.62959C66.4053 5.64393 66.3881 5.65506 66.3691 5.66225C66.3502 5.66944 66.3299 5.67251 66.3097 5.67127H64.2605V7.13H66.5031C66.5231 7.12863 66.5431 7.13137 66.562 7.13804C66.5808 7.14471 66.5982 7.15517 66.6128 7.16878C66.6263 7.18338 66.6367 7.20055 66.6434 7.21924C66.65 7.23794 66.653 7.25779 66.6517 7.27761V7.52825C66.653 7.56742 66.639 7.60554 66.6128 7.63477C66.5986 7.64917 66.5815 7.66034 66.5625 7.66753C66.5435 7.67472 66.5233 7.67776 66.5031 7.67644L63.7902 7.6747Z" fill="#FDDD2D"/>
<path d="M67.6217 7.67368C67.6047 7.67364 67.5881 7.67019 67.5724 7.66353C67.5568 7.65685 67.5428 7.64712 67.5311 7.63488C67.519 7.62332 67.5093 7.60939 67.5027 7.59396C67.4961 7.57854 67.4928 7.56193 67.4929 7.54515C67.4929 7.52148 67.4949 7.49784 67.4992 7.47454L69.0975 3.31658C69.1124 3.27707 69.1367 3.24173 69.1683 3.21354C69.2075 3.18535 69.2554 3.17182 69.3036 3.17534H69.7419C69.79 3.17172 69.838 3.18525 69.8771 3.21354C69.9086 3.24173 69.933 3.27707 69.9479 3.31658L71.5398 7.47454C71.5481 7.49719 71.5526 7.52105 71.5531 7.54515C71.5521 7.57893 71.5383 7.61102 71.5143 7.63491C71.4904 7.65879 71.4582 7.67265 71.4243 7.67367H71.0957C71.0747 7.6758 71.0534 7.67345 71.0334 7.66676C71.0135 7.66007 70.995 7.6492 70.9795 7.63488C70.9596 7.61426 70.9433 7.59038 70.9314 7.56427L70.5767 6.65197H68.463L68.1082 7.56427C68.1005 7.59163 68.085 7.61617 68.0635 7.63488C68.0477 7.64868 68.0293 7.6592 68.0094 7.66587C67.9894 7.67252 67.9683 7.67517 67.9474 7.67367L67.6217 7.67368ZM68.6528 6.09917H70.3944L69.5235 3.81787L68.6528 6.09917Z" fill="#FDDD2D"/>
<path d="M73.1486 7.67245C73.1289 7.67319 73.1092 7.66985 73.0909 7.66265C73.0725 7.65546 73.0559 7.64456 73.0419 7.63064C73.0281 7.61672 73.0172 7.60009 73.01 7.58178C73.0029 7.56347 72.9997 7.54389 73.0005 7.52426V3.74777H71.7628C71.7431 3.74851 71.7235 3.74517 71.7052 3.73798C71.6868 3.73078 71.6702 3.71988 71.6562 3.70596C71.6423 3.69204 71.6314 3.67541 71.6243 3.6571C71.6172 3.63879 71.6139 3.61921 71.6147 3.59958V3.33099C71.6138 3.31043 71.6169 3.28987 71.6242 3.27057C71.6313 3.25127 71.6423 3.23362 71.6566 3.21869C71.6705 3.20489 71.687 3.19407 71.7053 3.1869C71.7236 3.17974 71.7431 3.17637 71.7628 3.17701H74.8693C74.8899 3.17545 74.9108 3.17837 74.9302 3.18555C74.9496 3.19274 74.9673 3.20403 74.982 3.21865C74.9967 3.23327 75.008 3.25088 75.0151 3.27027C75.0224 3.28966 75.0252 3.31037 75.0237 3.33099V3.60074C75.0244 3.62039 75.021 3.63998 75.0138 3.65828C75.0066 3.6766 74.9957 3.69325 74.9819 3.70725C74.9669 3.72143 74.9493 3.73244 74.9299 3.7396C74.9105 3.74676 74.8899 3.74994 74.8693 3.74893H73.638V7.526C73.6388 7.54567 73.6354 7.56529 73.6283 7.58363C73.621 7.60196 73.6101 7.6186 73.5961 7.63251C73.5812 7.64669 73.5634 7.6577 73.5442 7.66486C73.5248 7.67202 73.5042 7.6752 73.4835 7.67419L73.1486 7.67245Z" fill="#FDDD2D"/>
<path d="M76.131 7.67261C76.1108 7.67393 76.0906 7.67089 76.0716 7.66369C76.0526 7.6565 76.0355 7.64533 76.0213 7.63094C75.9952 7.60172 75.9812 7.56358 75.9824 7.52443V3.33115C75.9805 3.29014 75.9944 3.24994 76.0213 3.21885C76.0355 3.20446 76.0526 3.19328 76.0716 3.18609C76.0906 3.1789 76.1108 3.17586 76.131 3.17718H77.7682C78.0519 3.17047 78.3338 3.22291 78.596 3.33115C78.8201 3.42561 79.0102 3.58593 79.1406 3.79077C79.2694 3.99415 79.3339 4.24788 79.3339 4.55198C79.3339 4.85607 79.2694 5.10883 79.1406 5.31028C79.0094 5.5137 78.8196 5.67288 78.596 5.76701C78.3338 5.87496 78.0518 5.9274 77.7682 5.92098H76.6269V7.52616C76.6277 7.54583 76.6243 7.56545 76.6172 7.58379C76.6099 7.60212 76.599 7.61876 76.585 7.63267C76.5701 7.6469 76.5524 7.65794 76.533 7.66511C76.5137 7.67227 76.4931 7.67542 76.4723 7.67435L76.131 7.67261ZM76.6211 5.378H77.7356C78.0538 5.378 78.2922 5.30739 78.4509 5.16615C78.6096 5.02491 78.6891 4.81922 78.6895 4.54908C78.6895 4.28397 78.6123 4.07789 78.4572 3.9326C78.3023 3.7873 78.0613 3.71378 77.7351 3.71378H76.6204L76.6211 5.378Z" fill="#FDDD2D"/>
<path d="M11.4177 16.4998C11.358 16.3667 11.2534 16.2588 11.122 16.1947L2.76937 11.3869C2.34846 11.1412 2 11.3378 2 11.8292V21.4515C2 21.9391 2.34846 22.1396 2.76937 21.8968L11.1289 17.0851C11.2564 17.0164 11.359 16.9096 11.4221 16.7794C11.439 16.7349 11.4477 16.6876 11.4478 16.64C11.4483 16.5916 11.438 16.5437 11.4177 16.4998Z" fill="#FDDD2D"/>
<path d="M15.3257 21.8926C15.3594 21.9271 15.3999 21.9543 15.4446 21.9724C15.4892 21.9906 15.5371 21.9994 15.5855 21.9983H17.0606C17.1618 22.001 17.2603 21.966 17.3371 21.9C17.3729 21.8656 17.401 21.824 17.4193 21.7778C17.4376 21.7318 17.446 21.6822 17.4435 21.6327V18.0515H19.7014C20.9384 18.0515 21.9105 17.7689 22.6177 17.2034C23.3235 16.6352 23.6764 15.8042 23.6764 14.7019C23.6764 13.5913 23.3235 12.7434 22.6177 12.1582C21.9163 11.5734 20.9419 11.281 19.7053 11.281H15.5894C15.5397 11.2778 15.4899 11.2857 15.4437 11.3039C15.3974 11.3222 15.3558 11.3505 15.3218 11.3867C15.2539 11.4621 15.2185 11.5611 15.2232 11.6624V21.6297C15.2211 21.6782 15.2291 21.7267 15.2467 21.772C15.2644 21.8172 15.2913 21.8583 15.3257 21.8926ZM17.418 12.9976H19.629C20.2455 12.9976 20.7004 13.1451 21.0021 13.4429C21.3037 13.7407 21.4569 14.151 21.4569 14.6852C21.4569 15.2258 21.2997 15.639 20.9893 15.9187C20.6788 16.1983 20.2243 16.3384 19.629 16.3384H17.418V12.9976Z" fill="#FDDD2D"/>
<path d="M26.0962 21.6296C26.0947 21.6777 26.1036 21.7256 26.1219 21.7701C26.1402 21.8147 26.1677 21.8548 26.2026 21.888C26.236 21.9228 26.2764 21.95 26.3211 21.9683C26.3657 21.9866 26.4136 21.9955 26.4619 21.9942H27.8759C27.9268 21.9967 27.9777 21.9883 28.0253 21.9701C28.073 21.9518 28.1162 21.9238 28.1524 21.888C28.187 21.8545 28.2142 21.8143 28.2323 21.7699C28.2506 21.7253 28.2594 21.6777 28.2583 21.6296V17.9536H30.3634L32.3274 21.5829C32.3915 21.6949 32.4749 21.7948 32.5739 21.8778C32.6825 21.9598 32.8163 22.0015 32.9524 21.9957H34.364C34.4053 21.9957 34.4461 21.9875 34.4842 21.9715C34.5221 21.9555 34.5566 21.9319 34.5853 21.9023C34.6181 21.874 34.6442 21.8388 34.6618 21.7992C34.6795 21.7596 34.6882 21.7167 34.6873 21.6734C34.6834 21.614 34.6666 21.5561 34.638 21.5037L32.4098 17.5993C33.0564 17.3742 33.5581 17.0096 33.9149 16.5054C34.2723 16.0006 34.4508 15.375 34.4508 14.6315C34.4508 13.5585 34.095 12.7318 33.3836 12.1512C32.6868 11.5733 31.7 11.2823 30.4417 11.2823H26.4658C26.4161 11.2792 26.3663 11.287 26.3202 11.3053C26.2739 11.3235 26.2321 11.3518 26.1982 11.388C26.1304 11.4634 26.095 11.5625 26.0995 11.6637L26.0962 21.6296ZM28.2603 12.9975H30.3949C31.0071 12.9975 31.4704 13.1375 31.775 13.4176C32.0796 13.6978 32.2343 14.0997 32.2343 14.6172C32.2343 15.1347 32.0811 15.5328 31.775 15.8041C31.4689 16.0753 31.0056 16.2115 30.3949 16.2115H28.2603V12.9975Z" fill="#FDDD2D"/>
<path d="M44.6808 20.2223H39.5215V17.4496H44.22C44.3212 17.4524 44.4198 17.4173 44.4964 17.3513C44.5321 17.3169 44.56 17.2753 44.5783 17.2293C44.5964 17.1832 44.6048 17.1338 44.6024 17.0844V16.1182C44.6051 16.0675 44.5971 16.0166 44.5788 15.9692C44.5605 15.9217 44.5325 15.8785 44.4964 15.8424C44.4604 15.8065 44.4171 15.7785 44.3695 15.7602C44.3218 15.7419 44.271 15.7338 44.22 15.7365H39.5215V13.0571H44.56C44.6612 13.0597 44.7597 13.0247 44.8366 12.9588C44.8722 12.9243 44.9001 12.8826 44.9184 12.8365C44.9366 12.7904 44.9448 12.741 44.9425 12.6915V11.6595C44.9444 11.6087 44.9361 11.5582 44.9179 11.5108C44.8996 11.4634 44.872 11.4202 44.8366 11.3838C44.7605 11.313 44.6596 11.275 44.5557 11.2781H37.7806C37.731 11.275 37.6812 11.2828 37.6347 11.3011C37.5884 11.3194 37.5467 11.3476 37.5125 11.3838C37.4447 11.4592 37.4093 11.5582 37.414 11.6595V21.6297C37.4126 21.6779 37.4214 21.7257 37.4397 21.7703C37.458 21.8148 37.4854 21.8551 37.5204 21.8883C37.5538 21.9233 37.5943 21.9509 37.6392 21.9695C37.684 21.9881 37.7322 21.9971 37.7806 21.9959H44.6808C44.7819 21.9988 44.8803 21.9637 44.9568 21.8976C44.9926 21.8633 45.0206 21.8217 45.039 21.7756C45.0573 21.7296 45.0655 21.6802 45.0632 21.6308V20.5864C45.065 20.537 45.0565 20.4878 45.0381 20.4419C45.0198 20.396 44.992 20.3544 44.9568 20.3196C44.8802 20.2541 44.7817 20.2194 44.6808 20.2223Z" fill="#FDDD2D"/>
<path d="M57.5961 11.2825H56.3639C56.1688 11.2825 56.0157 11.3799 55.9051 11.5749L52.9415 17.0564L49.9793 11.5734C49.8645 11.3768 49.7111 11.281 49.516 11.281H48.2701C48.2203 11.2779 48.1705 11.2857 48.1242 11.304C48.0779 11.3223 48.0361 11.3505 48.0019 11.3867C47.9341 11.4621 47.8987 11.5611 47.9034 11.6623V21.6297C47.9019 21.6778 47.9107 21.7257 47.9291 21.7703C47.9474 21.8148 47.9749 21.8549 48.0097 21.8882C48.0433 21.9229 48.0836 21.9501 48.1282 21.9684C48.1729 21.9867 48.2208 21.9956 48.269 21.9944H49.5915C49.641 21.9967 49.6905 21.9885 49.7367 21.9701C49.7829 21.9518 49.8246 21.9238 49.8591 21.8882C49.8918 21.8537 49.9173 21.8132 49.9343 21.7688C49.9513 21.7245 49.9592 21.6771 49.9576 21.6297V15.0444L52.0917 19.085C52.2238 19.3097 52.3978 19.4197 52.6147 19.4197H53.2613C53.4865 19.4197 53.6556 19.3097 53.767 19.085L55.9016 15.0444V21.6297C55.9002 21.6778 55.909 21.7257 55.9273 21.7703C55.9456 21.8148 55.9732 21.8549 56.0081 21.8882C56.0416 21.9229 56.0818 21.9501 56.1265 21.9684C56.1712 21.9867 56.2191 21.9956 56.2673 21.9944H57.5897C57.6909 21.9972 57.7895 21.9621 57.8661 21.8961C57.9018 21.8617 57.9297 21.8201 57.948 21.774C57.9663 21.728 57.9745 21.6786 57.9722 21.6292V11.6624C57.9741 11.5602 57.9361 11.4613 57.8661 11.3867C57.8309 11.3516 57.7886 11.3243 57.742 11.3063C57.6956 11.2884 57.6459 11.2803 57.5961 11.2825Z" fill="#FDDD2D"/>
<path d="M63.1345 11.2821H61.6594C61.5633 11.2802 61.4703 11.3154 61.3996 11.3804C61.364 11.4149 61.3361 11.4566 61.3178 11.5027C61.2995 11.5488 61.2913 11.5982 61.2937 11.6477V21.6293C61.2922 21.6774 61.301 21.7253 61.3191 21.7697C61.3374 21.8143 61.3649 21.8545 61.3996 21.8878C61.4333 21.9224 61.4737 21.9497 61.5183 21.968C61.563 21.9863 61.6111 21.9951 61.6594 21.994H63.1345C63.1842 21.9967 63.234 21.9885 63.2803 21.9701C63.3265 21.9518 63.3683 21.9237 63.4027 21.8878C63.4359 21.8536 63.462 21.8131 63.4795 21.7688C63.497 21.7244 63.5056 21.677 63.5047 21.6293V11.6453C63.5073 11.5961 63.4995 11.5469 63.482 11.5009C63.4643 11.4548 63.4374 11.413 63.4027 11.3779C63.3665 11.3452 63.3242 11.3198 63.2782 11.3034C63.2321 11.287 63.1834 11.2797 63.1345 11.2821Z" fill="#FDDD2D"/>
<path d="M74.0909 20.2223H68.9315V17.4496H73.6295C73.7309 17.4524 73.8295 17.4174 73.9061 17.3513C73.9419 17.317 73.9699 17.2754 73.9882 17.2294C74.0067 17.1834 74.0149 17.134 74.0126 17.0844V16.1184C74.015 16.0675 74.0069 16.0167 73.9885 15.9692C73.9702 15.9217 73.942 15.8786 73.906 15.8427C73.8699 15.8068 73.8267 15.7786 73.779 15.7603C73.7314 15.742 73.6805 15.7339 73.6295 15.7365H68.9315V13.0571H73.9697C74.0709 13.0599 74.1695 13.0248 74.2461 12.9588C74.2819 12.9244 74.3101 12.8828 74.3284 12.8367C74.3467 12.7905 74.355 12.7411 74.3526 12.6915V11.6595C74.3546 11.6087 74.3461 11.5581 74.3278 11.5107C74.3095 11.4633 74.2818 11.4201 74.2461 11.3838C74.1702 11.3131 74.0695 11.2752 73.9657 11.2781H67.1942C67.1445 11.2749 67.0947 11.2828 67.0484 11.301C67.0023 11.3193 66.9605 11.3476 66.9266 11.3838C66.8586 11.4592 66.8232 11.5582 66.8279 11.6595V21.6297C66.8266 21.6779 66.8354 21.7258 66.8537 21.7703C66.8721 21.8148 66.8996 21.8551 66.9344 21.8883C66.9679 21.9229 67.0083 21.9501 67.0529 21.9684C67.0976 21.9867 67.1455 21.9956 67.1937 21.9945H74.0904C74.1916 21.9972 74.2903 21.9622 74.3669 21.8961C74.4025 21.8617 74.4304 21.8201 74.4487 21.7742C74.4669 21.7281 74.4752 21.6787 74.4728 21.6293V20.5864C74.4747 20.5372 74.4662 20.4879 74.448 20.442C74.4297 20.396 74.4021 20.3544 74.3669 20.3196C74.2901 20.2542 74.1917 20.2196 74.0909 20.2223Z" fill="#FDDD2D"/>
<path d="M77.3401 21.8922C77.3736 21.9267 77.414 21.9539 77.4587 21.972C77.5033 21.9902 77.5512 21.9991 77.5994 21.9979H79.011C79.0619 22.0002 79.1126 21.992 79.1602 21.9738C79.2078 21.9556 79.2511 21.9279 79.2875 21.8922C79.3219 21.8586 79.3492 21.8183 79.3674 21.7738C79.3856 21.7292 79.3945 21.6814 79.3934 21.6332V17.9577H81.4999L83.4639 21.5865C83.5279 21.6988 83.6113 21.7985 83.7104 21.8814C83.8206 21.9631 83.9562 22.0038 84.0934 21.996H85.505C85.5463 21.9961 85.5871 21.9879 85.625 21.9719C85.6631 21.956 85.6976 21.9326 85.7262 21.9031C85.7591 21.8747 85.7852 21.8394 85.8028 21.7999C85.8205 21.7603 85.8292 21.7174 85.8283 21.674C85.8244 21.6147 85.8075 21.5568 85.779 21.5046L83.5508 17.5995C84.1974 17.375 84.6991 17.0104 85.0559 16.5056C85.4133 16.0014 85.5916 15.3753 85.5916 14.6317C85.5916 13.5594 85.236 12.7328 84.5246 12.1519C83.8189 11.571 82.8321 11.2786 81.5738 11.2786H77.5984C77.5486 11.2755 77.4988 11.2834 77.4525 11.3016C77.4061 11.3199 77.3644 11.3481 77.3303 11.3843C77.2623 11.4597 77.2269 11.5588 77.2316 11.66V21.6293C77.2294 21.6783 77.238 21.7273 77.2567 21.7728C77.2754 21.8182 77.3039 21.859 77.3401 21.8922ZM81.5294 12.9933C82.1416 12.9933 82.6054 13.1333 82.9095 13.4129C83.2136 13.6926 83.3684 14.0956 83.3684 14.6125C83.3684 15.1295 83.2156 15.5285 82.9095 15.7999C82.6034 16.0711 82.1397 16.2068 81.5294 16.2068H79.3949V12.9933H81.5294Z" fill="#FDDD2D"/>
</svg>
