<svg xmlns="http://www.w3.org/2000/svg" width="24" height="24" viewBox="0 0 24 24" fill="none"><rect width="24" height="24" fill="none"/>
<path fill-rule="evenodd" clip-rule="evenodd" d="M10.6069 6.54272C5.14794 7.74614 1.33793 10.9993 2.09548 13.8288C2.87467 16.6587 7.91099 17.9953 13.3923 16.8148C18.8513 15.6339 22.6616 12.3582 21.904 9.52871C21.1242 6.69887 16.066 5.36187 10.6069 6.54272ZM18.0492 13.9848H17.2249V10.9098L16.0441 13.9848H15.1081V9.37244H15.9324V12.4697L17.0913 9.37244H18.0499L18.0492 13.9848ZM13.5481 10.0632H14.6399V9.37244H11.5875V10.0632H12.6793V13.9848H13.5481V10.0632ZM11.1196 13.9848H10.2507V10.0632H9.09183V13.9848H8.22296V9.37244H11.1196V13.9848ZM4.68018 10.8655C4.68018 9.70693 5.30415 9.28363 6.17301 9.28363C7.06445 9.28363 7.66585 9.6856 7.66585 10.8655V12.5352C7.66585 13.7161 7.06414 14.0949 6.17301 14.0949C5.30415 14.0949 4.68018 13.6938 4.68018 12.5352V10.8655ZM6.77473 12.6481C6.77473 13.1382 6.57405 13.3834 6.19528 13.3834C5.77198 13.3834 5.59357 13.1159 5.59357 12.6481V10.7542C5.59357 10.2641 5.79424 9.97439 6.19528 9.97439C6.57405 9.97439 6.77473 10.2641 6.77473 10.7542V12.6481Z" fill="white"/>
</svg>
