<svg xmlns="http://www.w3.org/2000/svg" width="208" height="24" viewBox="0 0 208 24" fill="none"><rect width="208" height="24" fill="none"/>
<path d="M96.498 4.34758H106.01V18.7811H103.497V6.29974H99.0109V18.7811H96.498V4.34758Z" fill="#0D0D0D"/>
<path d="M109.407 22C108.923 22 108.577 21.9377 108.369 21.8131C108.161 21.7023 108.058 21.647 108.058 21.647V19.6325C108.196 19.771 108.362 19.8749 108.556 19.944C108.75 20.0133 108.957 20.0479 109.179 20.0479C109.525 20.0479 109.802 19.9717 110.01 19.8194C110.217 19.681 110.391 19.4871 110.529 19.238L106.936 8.33498H109.532L111.837 16.1851L114.142 8.33498H116.531L113.27 18.2203C112.924 19.2864 112.481 20.1794 111.941 20.8993C111.401 21.6331 110.557 22 109.407 22Z" fill="#0D0D0D"/>
<path d="M125.334 10.2871H122.427V18.7811H119.956V10.2871H117.048V8.33498H125.334V10.2871Z" fill="#0D0D0D"/>
<path d="M134.063 18.0749C133.703 18.3242 133.232 18.5388 132.651 18.7187C132.069 18.8987 131.384 18.9887 130.595 18.9887C129.03 18.9887 127.812 18.5457 126.94 17.6596C126.081 16.7597 125.652 15.4028 125.652 13.5892C125.652 12.8 125.742 12.0731 125.922 11.4085C126.102 10.7301 126.372 10.1556 126.732 9.68482C127.106 9.20028 127.57 8.81952 128.123 8.54263C128.691 8.26573 129.349 8.12728 130.096 8.12728C131.329 8.12728 132.312 8.50801 133.045 9.26952C133.793 10.031 134.167 11.3186 134.167 13.1323V14.4406H128.207C128.262 15.3129 128.483 15.9636 128.871 16.3928C129.259 16.822 129.903 17.0366 130.802 17.0366C131.398 17.0366 131.993 16.9396 132.589 16.7459C133.184 16.552 133.675 16.3236 134.063 16.0605V18.0749ZM130.055 10.0794C129.46 10.0794 129.01 10.2941 128.705 10.7232C128.4 11.1525 128.234 11.7824 128.207 12.6131H131.654V12.4054C131.654 11.7547 131.536 11.2078 131.301 10.7647C131.079 10.3079 130.664 10.0794 130.055 10.0794Z" fill="#0D0D0D"/>
<path d="M135.823 18.7811V8.33498H138.294V16.8289H140.994V8.33498H143.465V16.8289H146.165V8.33498H148.636V18.7811H135.823Z" fill="#0D0D0D"/>
<path d="M158.704 18.0749C158.344 18.3242 157.874 18.5388 157.292 18.7187C156.711 18.8987 156.025 18.9887 155.236 18.9887C153.672 18.9887 152.453 18.5457 151.581 17.6596C150.723 16.7597 150.293 15.4028 150.293 13.5892C150.293 12.8 150.383 12.0731 150.563 11.4085C150.743 10.7301 151.013 10.1556 151.373 9.68482C151.747 9.20028 152.211 8.81952 152.765 8.54263C153.332 8.26573 153.99 8.12728 154.738 8.12728C155.97 8.12728 156.953 8.50801 157.687 9.26952C158.434 10.031 158.808 11.3186 158.808 13.1323V14.4406H152.848C152.903 15.3129 153.125 15.9636 153.512 16.3928C153.9 16.822 154.544 17.0366 155.444 17.0366C156.039 17.0366 156.634 16.9396 157.23 16.7459C157.825 16.552 158.317 16.3236 158.704 16.0605V18.0749ZM154.696 10.0794C154.101 10.0794 153.651 10.2941 153.346 10.7232C153.042 11.1525 152.875 11.7824 152.848 12.6131H156.295V12.4054C156.295 11.7547 156.177 11.2078 155.942 10.7647C155.721 10.3079 155.305 10.0794 154.696 10.0794Z" fill="#0D0D0D"/>
<path d="M165.031 18.9887C163.383 18.9887 162.151 18.518 161.334 17.5765C160.531 16.6351 160.13 15.299 160.13 13.5684C160.13 12.7792 160.233 12.0524 160.441 11.3878C160.649 10.7094 160.946 10.1348 161.334 9.66406C161.736 9.17952 162.234 8.80566 162.829 8.54263C163.439 8.26573 164.138 8.12728 164.927 8.12728C165.536 8.12728 166.062 8.17574 166.505 8.27263C166.962 8.3696 167.322 8.48725 167.585 8.62573V10.7232C167.336 10.571 166.99 10.4256 166.547 10.2871C166.118 10.1487 165.668 10.0794 165.197 10.0794C164.394 10.0794 163.771 10.3702 163.328 10.9517C162.899 11.5331 162.684 12.3847 162.684 13.5061C162.684 14.586 162.878 15.4444 163.265 16.0812C163.667 16.7181 164.304 17.0366 165.176 17.0366C165.688 17.0366 166.138 16.9743 166.526 16.8496C166.927 16.7251 167.28 16.552 167.585 16.3305V18.3449C167.28 18.5665 166.92 18.7257 166.505 18.8226C166.09 18.9333 165.598 18.9887 165.031 18.9887Z" fill="#0D0D0D"/>
<path d="M176.807 10.2871H173.9V18.7811H171.429V10.2871H168.521V8.33498H176.807V10.2871Z" fill="#0D0D0D"/>
<path d="M182.382 18.7811H178.27V8.33498H182.424C183.559 8.33498 184.418 8.55649 184.999 8.99952C185.594 9.44255 185.892 10.1071 185.892 10.9932C185.892 11.6163 185.726 12.1285 185.394 12.53C185.061 12.9177 184.618 13.1877 184.065 13.34C184.757 13.4646 185.297 13.7276 185.684 14.1291C186.086 14.5306 186.287 15.0706 186.287 15.749C186.287 16.7459 185.941 17.5004 185.248 18.0127C184.556 18.5249 183.601 18.7811 182.382 18.7811ZM182.071 10.2041H180.742V12.53H181.987C182.458 12.53 182.818 12.4262 183.068 12.2185C183.33 12.0108 183.462 11.727 183.462 11.367C183.462 10.9794 183.337 10.6886 183.089 10.4948C182.853 10.301 182.514 10.2041 182.071 10.2041ZM182.112 14.3368H180.742V16.912H182.112C182.611 16.912 183.005 16.8081 183.296 16.6005C183.587 16.3927 183.732 16.0536 183.732 15.5828C183.732 15.1537 183.594 14.8421 183.317 14.6483C183.04 14.4406 182.639 14.3368 182.112 14.3368Z" fill="#0D0D0D"/>
<path d="M187.945 8.33498H190.353V14.7937L194.175 8.33498H196.313V18.7811H193.905V12.3223L190.083 18.7811H187.945V8.33498Z" fill="#0D0D0D"/>
<path d="M197.662 18.7811L200.009 14.8352C199.344 14.6137 198.832 14.2537 198.472 13.7553C198.112 13.2431 197.932 12.5923 197.932 11.8031C197.932 10.6817 198.32 9.8233 199.095 9.228C199.87 8.63263 200.86 8.33498 202.065 8.33498H205.845V18.7811H203.373V15.3752H202.189L200.196 18.7811H197.662ZM202.252 10.2871C201.712 10.2871 201.276 10.4117 200.944 10.661C200.611 10.9101 200.445 11.3186 200.445 11.8862C200.445 12.4816 200.597 12.9107 200.902 13.1738C201.206 13.4369 201.635 13.5684 202.189 13.5684H203.373V10.2871H202.252Z" fill="#0D0D0D"/>
<path d="M9.08071 18.7811V6.29974H7.95929C6.93476 6.29974 6.15251 6.54203 5.61255 7.0266C5.08644 7.49734 4.82338 8.11344 4.82338 8.8749C4.82338 9.74717 5.01029 10.4394 5.38411 10.9517C5.77177 11.4501 6.34634 11.9554 7.10782 12.4677L8.37465 13.3192L4.71955 18.7811H1.99899L5.28028 13.9007C4.33881 13.2222 3.61194 12.5162 3.09968 11.7824C2.58741 11.0486 2.33127 10.1279 2.33127 9.02028C2.33127 7.63578 2.80893 6.51433 3.76424 5.65594C4.71955 4.7837 6.11098 4.34758 7.93852 4.34758H11.5936V18.7811H9.08071ZM57.5315 18.9887C55.884 18.9887 54.6517 18.518 53.8349 17.5765C53.0319 16.6351 52.6304 15.299 52.6304 13.5684C52.6304 12.7792 52.7342 12.0524 52.9419 11.3878C53.1496 10.7094 53.4473 10.1348 53.8349 9.66406C54.2364 9.17952 54.7348 8.80566 55.3302 8.54263C55.9394 8.26573 56.6385 8.12728 57.4277 8.12728C58.0369 8.12728 58.563 8.17574 59.006 8.27263C59.4629 8.3696 59.8229 8.48725 60.086 8.62573V10.7232C59.8367 10.571 59.4906 10.4256 59.0476 10.2871C58.6184 10.1487 58.1684 10.0794 57.6977 10.0794C56.8947 10.0794 56.2717 10.3702 55.8286 10.9517C55.3994 11.5331 55.1848 12.3847 55.1848 13.5061C55.1848 14.586 55.3786 15.4444 55.7663 16.0812C56.1678 16.7181 56.8047 17.0366 57.6769 17.0366C58.1892 17.0366 58.6391 16.9743 59.0268 16.8496C59.4283 16.7251 59.7813 16.552 60.086 16.3305V18.3449C59.7813 18.5665 59.4214 18.7257 59.006 18.8226C58.5907 18.9333 58.0992 18.9887 57.5315 18.9887ZM42.0804 18.0749C41.7205 18.3242 41.2497 18.5388 40.6682 18.7187C40.0868 18.8987 39.4014 18.9887 38.6123 18.9887C37.0478 18.9887 35.8294 18.5457 34.9572 17.6596C34.0988 16.7597 33.6696 15.4028 33.6696 13.5892C33.6696 12.8 33.7596 12.0731 33.9396 11.4085C34.1195 10.7301 34.3895 10.1556 34.7495 9.68482C35.1233 9.20028 35.5871 8.81952 36.1409 8.54263C36.7086 8.26573 37.3662 8.12728 38.1139 8.12728C39.346 8.12728 40.3291 8.50801 41.0629 9.26952C41.8105 10.031 42.1843 11.3186 42.1843 13.1323V14.4406H36.224C36.2794 15.3129 36.5009 15.9636 36.8886 16.3928C37.2762 16.822 37.92 17.0366 38.8199 17.0366C39.4153 17.0366 40.0106 16.9396 40.606 16.7459C41.2013 16.552 41.6928 16.3236 42.0804 16.0605V18.0749ZM19.4438 8.33498H21.9151V18.7811H19.4438V14.4199H16.1417V18.7811H13.6704V8.33498H16.1417V12.4677H19.4438V8.33498ZM33.0673 16.8289V21.1693H30.7829V18.7811H25.2379V21.1693H22.9535V16.8289H23.7219C23.9434 16.3997 24.1165 15.8806 24.2411 15.2713C24.3795 14.6621 24.4834 14.0184 24.5526 13.34C24.6356 12.6615 24.691 11.9693 24.7188 11.2632C24.7464 10.5432 24.7603 9.86482 24.7603 9.228V8.33498H31.9666V16.8289H33.0673ZM49.9721 18.7811L46.3171 13.6515V18.7811H43.8457V8.33498H46.3171V13.1531L49.806 8.33498H52.2981L48.8091 13.1531L52.7758 18.7811H49.9721ZM38.0723 10.0794C37.477 10.0794 37.027 10.2941 36.7224 10.7232C36.4178 11.1525 36.2517 11.7824 36.224 12.6131H39.6714V12.4054C39.6714 11.7547 39.5537 11.2078 39.3184 10.7647C39.0968 10.3079 38.6815 10.0794 38.0723 10.0794ZM29.4953 16.8289V10.2871H26.8786V10.5986C26.8786 11.0416 26.8647 11.547 26.837 12.1147C26.8094 12.6684 26.7609 13.2292 26.6916 13.7968C26.6362 14.3645 26.5463 14.9183 26.4217 15.4582C26.3109 15.9843 26.1725 16.4412 26.0063 16.8289H29.4953Z" fill="#0D0D0D"/>
<path d="M88.0275 11.7522C88.0275 10.7594 87.8792 9.80135 87.6035 8.8989C87.0417 7.06006 85.9506 5.45166 84.5085 4.25172C82.8183 2.84558 80.6453 2 78.2753 2C72.8893 2 68.5231 6.36622 68.5231 11.7522C68.5231 12.1227 68.5438 12.4884 68.584 12.8482C68.629 13.2506 68.6985 13.6457 68.791 14.0318C69.1603 15.574 69.896 16.9739 70.901 18.1342C72.689 20.1984 75.3294 21.5044 78.2753 21.5044C83.6613 21.5044 88.0275 17.1382 88.0275 11.7522Z" fill="black"/>
<path d="M88.0275 11.7522C88.0275 10.7594 87.8792 9.80135 87.6035 8.8989C87.0417 7.06006 85.9506 5.45166 84.5085 4.25172C82.8183 2.84558 80.6453 2 78.2753 2C72.8907 2 68.5231 6.36753 68.5231 11.7522C68.5231 12.1227 68.5438 12.4884 68.584 12.8482C68.629 13.2506 68.6985 13.6457 68.791 14.0318C69.1603 15.574 69.896 16.9739 70.901 18.1342C72.689 20.1984 75.3294 21.5044 78.2753 21.5044C83.6625 21.5044 88.0275 17.1369 88.0275 11.7522Z" fill="#7F5FFF"/>
<path d="M83.7763 15.3051C83.4828 15.2294 83.1429 15.9873 83.0453 16.2734C82.9574 16.5376 82.7836 17.2906 83.0453 17.3858C83.3632 17.5005 83.808 16.6694 83.9038 16.3466C83.977 16.0947 84.0307 15.371 83.7768 15.3075" fill="#FEE14A"/>
<path fill-rule="evenodd" clip-rule="evenodd" d="M87.6035 8.8989C87.0417 7.06006 85.9506 5.45166 84.5085 4.25172C82.707 3.40083 80.5734 2.92676 78.5462 3.35462C77.782 3.51604 77.6497 3.8361 77.5049 4.18661C77.4539 4.31007 77.4013 4.4373 77.319 4.56272C77.0696 4.94275 76.5401 5.19537 76.1128 5.39925C75.7895 5.55349 75.5247 5.67983 75.4839 5.81233C75.3496 6.25474 75.9913 7.0131 76.358 7.14983C76.6793 7.26819 76.9781 7.034 77.3027 6.77958C77.5688 6.5711 77.8521 6.34903 78.1794 6.29625C78.9007 6.17905 81.5835 6.42419 82.0308 7.13518C82.6964 7.87597 82.6202 9.07433 82.2217 9.24082C82.0125 9.32827 81.6691 9.13578 81.2936 8.92525C80.9016 8.70546 80.4745 8.46601 80.1283 8.50492C79.9704 8.52312 79.7505 8.61763 79.5156 8.71853C79.1832 8.86135 78.8211 9.01696 78.5632 8.98691C78.3432 8.96138 78.1676 8.67774 77.9945 8.39797C77.8694 8.19588 77.7455 7.9958 77.6071 7.89647C77.3063 7.68112 75.6045 8.05273 75.1665 8.25099C74.6333 8.49076 73.4232 10.2048 73.391 10.821C73.3519 11.5374 74.8115 12.9828 75.4009 13.0975C75.6872 13.1529 76.0756 13.0618 76.4486 12.9742C76.8816 12.8726 77.2939 12.7759 77.5016 12.9189C77.6795 13.0422 77.8638 13.9223 78.081 14.9588C78.428 16.6151 78.8587 18.6706 79.4798 18.6751C80.1205 18.68 81.8711 16.2888 82.1451 15.8238C82.3859 15.4127 82.3831 14.8486 82.381 14.3965C82.3797 14.128 82.3786 13.899 82.4288 13.7651C82.5049 13.5619 82.7638 13.3297 83.0286 13.0922C83.3499 12.804 83.68 12.508 83.7028 12.2465C83.7205 12.0532 83.4376 11.696 83.1549 11.3391C82.812 10.9062 82.4693 10.4736 82.6637 10.3342C82.7885 10.2452 83.1553 10.3381 83.5678 10.4427C84.0851 10.5738 84.6742 10.7231 84.9475 10.5544C85.168 10.4184 85.2769 9.99388 85.4088 9.47977C85.5278 9.01565 85.6657 8.47849 85.9212 8.01464C86.0233 7.82909 86.2182 7.7114 86.4301 7.7114C86.7942 7.7114 87.1854 7.88557 87.6035 8.8989Z" fill="#FEE14A"/>
<path fill-rule="evenodd" clip-rule="evenodd" d="M69.9996 13.9745C69.4418 13.7867 68.8224 13.5782 68.584 12.8482C68.629 13.2506 68.6985 13.6457 68.791 14.0318C69.1603 15.574 69.896 16.9739 70.901 18.1342C70.4969 17.2624 70.7008 16.5767 70.8838 15.9611C71.0188 15.507 71.1424 15.091 71.0024 14.6667C70.8704 14.2676 70.4556 14.1279 69.9996 13.9745Z" fill="#FEE14A"/>
</svg>
