<svg xmlns="http://www.w3.org/2000/svg" width="24" height="24" viewBox="0 0 24 24" fill="none"><rect width="24" height="24" fill="none"/>
<path d="M22.0009 12.0004C22.0009 12.1194 21.9988 12.2378 21.9947 12.3557C21.8076 17.7032 17.4136 21.9809 12.0204 21.9809C6.50839 21.9809 2.03998 17.5125 2.03998 12.0004C2.03998 6.48835 6.50839 2.01994 12.0204 2.01994C16.8664 2.01994 20.9057 5.47361 21.8112 10.0538C21.9357 10.6834 22.0009 11.3343 22.0009 12.0004Z" fill="#C4C4C4"/>
<path d="M22 12C22 16.609 18.882 20.4897 14.6402 21.6478C13.8996 21.85 13.1247 21.9692 12.3263 21.9948C12.2179 21.9983 12.1092 22 12 22C10.9504 22 9.93857 21.8383 8.98806 21.5384C8.25709 21.3078 7.56238 20.9955 6.91465 20.6122C6.09567 20.1276 5.3518 19.5295 4.70469 18.8395C4.17818 18.2782 3.71572 17.656 3.32898 16.9847C2.4836 15.5173 2 13.8151 2 12C2 6.47716 6.47715 2 12 2C12.2813 2 12.5598 2.01162 12.8352 2.03439C14.2321 2.14989 15.5475 2.5525 16.7224 3.18307C19.8638 4.86917 22 8.18512 22 12Z" fill="#C4C4C4"/>
<path d="M22 12C22 16.609 18.882 20.4897 14.6402 21.6478C13.8996 21.85 13.1247 21.9692 12.3263 21.9948C12.2179 21.9983 12.1092 22 12 22C10.9504 22 9.93857 21.8383 8.98806 21.5384C8.25709 21.3078 7.56238 20.9955 6.91465 20.6122C6.09567 20.1276 5.3518 19.5295 4.70469 18.8395C4.17818 18.2782 3.71572 17.656 3.32898 16.9847C2.4836 15.5173 2 13.8151 2 12C2 6.47716 6.47715 2 12 2C12.2813 2 12.5598 2.01162 12.8352 2.03439C14.2321 2.14989 15.5475 2.5525 16.7224 3.18307C19.8638 4.86917 22 8.18512 22 12Z" fill="#C4C4C4"/>
<path d="M22 12C22 16.609 18.882 20.4897 14.6402 21.6478C13.8996 21.85 13.1247 21.9692 12.3263 21.9948C12.2179 21.9983 12.1092 22 12 22C10.9504 22 9.93857 21.8383 8.98806 21.5384C8.25709 21.3078 7.56238 20.9955 6.91465 20.6122C6.09567 20.1276 5.3518 19.5295 4.70469 18.8395C4.17818 18.2782 3.71572 17.656 3.32898 16.9847C2.4836 15.5173 2 13.8151 2 12C2 6.47716 6.47715 2 12 2C12.2813 2 12.5598 2.01162 12.8352 2.03439C14.2321 2.14989 15.5475 2.5525 16.7224 3.18307C19.8638 4.86917 22 8.18512 22 12Z" fill="#FFF500"/>
<path fill-rule="evenodd" clip-rule="evenodd" d="M13.0343 15.7159L12.3263 21.9948C13.1247 21.9692 13.8996 21.85 14.6402 21.6478L15.4095 14.8252L21.9947 12.3557C21.9988 12.2378 22.0009 12.1194 22.0009 12.0004C22.0009 11.3343 21.9357 10.6834 21.8112 10.0538L15.6887 12.3498L16.7224 3.18307C15.5475 2.5525 14.2321 2.14989 12.8352 2.03439L8.71431 14.9652L3.32898 16.9847C3.71572 17.656 4.17818 18.2782 4.70469 18.8395L7.85623 17.6577L6.91465 20.6122C7.56238 20.9955 8.25709 21.3078 8.98806 21.5384L10.5463 16.6489L13.0343 15.7159ZM11.4044 13.9564L14.2339 5.07775L13.3134 13.2405L11.4044 13.9564Z" fill="black"/>
</svg>
