<svg xmlns="http://www.w3.org/2000/svg" width="106" height="24" viewBox="0 0 106 24" fill="none"><rect width="106" height="24" fill="none"/>
<path fill-rule="evenodd" clip-rule="evenodd" d="M30.7784 10.1704L35.8889 10.1669C39.111 10.1669 40.7772 11.6109 40.7784 14.1662C40.7784 15.9441 39.9012 18.1666 35.8948 18.1666H27.0002V5.83362H39.8882V8.61112H30.7772L30.7784 10.1704ZM35.4445 15.3879C36.4452 15.3879 37.0002 14.9434 37.0002 14.1662C37.0002 13.3889 36.444 12.9444 35.4445 12.9444H30.7772V15.3879H35.4445ZM87.2581 15.2769H90.9994C90.9994 16.0553 90.32 18.3883 85.3375 18.3871H84.885C80.2425 18.3871 79.11 15.8871 79.11 13.6706V13.4377C79.11 11.1658 80.1094 8.72112 84.8875 8.72112H85.2213C90.2213 8.72112 90.9988 11.2764 90.9988 13.9375V14.2761L82.7682 14.2749C82.8825 15.3862 83.6669 16.0541 85.2919 16.0541C86.8907 16.0541 87.12 15.5681 87.2357 15.3235L87.24 15.314L87.2463 15.2999C87.2507 15.2919 87.2544 15.2842 87.2581 15.2769ZM87.2225 12.4981C87.2225 11.7209 86.7782 10.9436 85 10.9436C83.4444 10.9436 82.8882 11.6103 82.7775 12.4993L87.2225 12.4981ZM99.9857 14.5001H103.666C103.666 15.8336 102.778 18.3888 98 18.3876H97.7775C93 18.3876 92 15.4996 92 13.7216V13.3888C92 11.612 92.9444 8.72162 97.7775 8.72275H98C102.72 8.72162 103.666 11.1675 103.666 12.501H100C99.905 11.9448 99.4438 11.1675 98 11.1675H97.7775C96.3338 11.1675 95.6669 12.2787 95.6669 13.5005V13.6111C95.6669 14.834 96.4438 15.8336 97.7775 15.8336H98C99.5557 15.8336 99.8894 14.9446 99.9857 14.5001ZM74.4438 18.1668H77.9994V8.94531H74.4438V12.2778H70.2219V8.94531H66.6663V18.1668H70.2219V14.8331H74.4438V18.1668ZM65.5544 15.3886V15.4992C65.5544 17.2772 63.6657 18.3884 60.1108 18.3884H59.6663C55.8882 18.3884 54.2218 16.9432 54.2218 15.077V14.9453L57.8883 14.9441C57.9989 15.9437 58.8879 16.1659 59.9992 16.1659C61.2456 16.1659 61.8877 15.9437 61.8877 15.2769C61.8877 14.5996 61.4385 14.3891 60.4907 14.3891L58.5551 14.3879V12.3877H60.4437C61.2221 12.3877 61.5548 12.1654 61.5548 11.6104C61.5548 11.0542 60.9998 10.7214 59.8886 10.7214C58.7773 10.7214 58.2235 11.0542 58.1106 11.7209H54.3324V11.6081C54.3324 9.72075 56.5549 8.72119 59.7769 8.72119H59.9992C63.2212 8.72119 65.2213 9.61019 65.2213 11.1659V11.3882C65.2213 12.7217 63.9537 13.2238 63.1765 13.3896C64.1231 13.5719 65.5544 13.9446 65.5544 15.3886ZM49.666 18.1668H53.222V8.94531H49.5554L45.4444 14.2781V8.94531H41.8885V18.1668H45.555L49.666 12.8341V18.1668Z" fill="white"/>
<path fill-rule="evenodd" clip-rule="evenodd" d="M22 12C22 17.5229 17.5229 22 12 22C6.47715 22 2 17.5229 2 12C2 6.47715 6.47715 2 12 2C17.5229 2 22 6.47715 22 12ZM15.2258 17.7006V6.28711H12.3531C9.57438 6.28711 7.91631 7.66764 7.91631 9.9795C7.91631 11.7974 8.84644 12.8358 10.2434 13.8365L10.2669 13.8529L10.2505 13.8765L7.67643 17.7111H9.77425L12.6518 13.4108L11.6663 12.7464C10.4257 11.9044 9.83538 11.2589 9.83538 9.86187C9.83538 8.559 10.7808 7.78053 12.3636 7.78053H13.2856V17.7006H15.2258Z" fill="white"/>
</svg>
