<svg xmlns="http://www.w3.org/2000/svg" width="24" height="24" viewBox="0 0 24 24" fill="none"><rect width="24" height="24" fill="none"/>
<path d="M17.8307 20V8.64854H20.8715V20H17.8307ZM19.3582 7.18526C18.9062 7.18526 18.5183 7.03006 18.1947 6.71967C17.8759 6.40435 17.7165 6.02744 17.7165 5.58895C17.7165 5.15539 17.8759 4.7834 18.1947 4.47301C18.5183 4.15769 18.9062 4.00003 19.3582 4.00003C19.8103 4.00003 20.1958 4.15769 20.5146 4.47301C20.8382 4.7834 21 5.15539 21 5.58895C21 6.02744 20.8382 6.40435 20.5146 6.71967C20.1958 7.03006 19.8103 7.18526 19.3582 7.18526Z" fill="white"/>
<path fill-rule="evenodd" clip-rule="evenodd" d="M5.31212 20H2L7.0467 4.8647H11.0298L16.0694 20H12.7573L11.6749 16.5488H6.39658L5.31212 20ZM8.98115 8.32337H9.09536L10.8915 14.0508H7.18146L8.98115 8.32337Z" fill="white"/>
</svg>
