<svg xmlns="http://www.w3.org/2000/svg" width="77" height="24" viewBox="0 0 77 24" fill="none"><rect width="77" height="24" fill="none"/>
<path d="M20.1439 9.72727L18.9697 17.1515C18.8939 17.4924 18.7045 17.6818 18.3636 17.6818C18.2121 17.6818 18.0985 17.6439 18.0227 17.5303C17.947 17.4167 17.9091 17.303 17.947 17.1136L19.1212 9.68939C19.197 9.34848 19.3864 9.15909 19.7273 9.15909C19.8788 9.15909 19.9924 9.19697 20.0682 9.31061C20.1818 9.42424 20.1818 9.53788 20.1439 9.72727ZM19.9545 7.60606C18.0985 7.60606 16.9621 8.32576 16.6591 9.99242L15.5606 16.9242C15.3712 18.4773 16.3939 19.2727 18.1742 19.2727C20.0303 19.2727 21.1667 18.5909 21.4318 16.9242L22.5303 10.0682C22.7955 8.40151 21.8106 7.60606 19.9545 7.60606Z" fill="#FF0000"/>
<path d="M49.6136 19.1591L51.8485 4.91667H49.3864L47.1136 19.1591H49.6136Z" fill="#FF0000"/>
<path d="M28.3258 7.68182V7.60606C27.4545 7.49242 26.4697 7.68182 25.8636 8.43939L25.4091 7.7197H23.9318L22.1136 19.197H24.5758L25.9394 10.6742C26.1288 9.5 27.2273 9.65152 27.9848 9.84091L28.3258 7.68182ZM29.3864 4.91667L27.1136 19.1591H29.5758L31.8485 4.91667H29.3864Z" fill="#FF0000"/>
<path d="M35.5985 9.72727L34.4242 17.1515C34.3485 17.4924 34.1591 17.6818 33.8182 17.6818C33.6667 17.6818 33.553 17.6439 33.4773 17.5303C33.4015 17.4167 33.3636 17.303 33.4015 17.1136L34.5758 9.72727C34.6515 9.38636 34.8409 9.19697 35.1818 9.19697C35.3333 9.19697 35.447 9.23485 35.5227 9.34848C35.5985 9.42424 35.6364 9.57576 35.5985 9.72727ZM36.3182 4.91667L35.8258 8.09848C35.4849 7.75758 34.9924 7.60606 34.3485 7.60606C33.0227 7.60606 32.3788 8.28788 32.1894 9.61364L30.9773 17.303C30.75 18.6288 31.4697 19.3106 32.7955 19.3106C33.6288 19.3106 34.2349 19.0455 34.6894 18.4773L35.1061 19.197H36.5833L38.8561 4.95455H36.3182V4.91667Z" fill="#FF0000"/>
<path d="M62.303 7.56818C60.4091 7.56818 59.3106 8.21212 59.0076 9.95455L58.8561 10.7121C58.6667 11.7727 58.8939 12.6818 59.7273 13.3636L61.1667 14.6515C61.4318 14.8788 61.5455 15.1818 61.5076 15.4848L61.2424 17.1136C61.1667 17.4545 60.9773 17.6439 60.6364 17.6439C60.4849 17.6439 60.3712 17.6061 60.2955 17.4924C60.2197 17.3788 60.1818 17.2652 60.2197 17.0758L60.5227 15.0682H58.1742L57.8712 16.8485C57.6439 18.4394 58.7045 19.2348 60.4091 19.2348C62.4167 19.2348 63.4394 18.553 63.7424 16.8864L63.9318 15.8636C64.1212 14.803 63.9697 13.7803 63.1364 13.1364L61.6212 11.8106C61.3182 11.5833 61.2045 11.3182 61.2803 10.9394L61.4697 9.68939C61.5455 9.34848 61.7349 9.15909 62.0758 9.15909C62.2273 9.15909 62.3409 9.19697 62.4167 9.31061C62.4924 9.42424 62.5303 9.53788 62.4924 9.72727L62.2273 11.3939H64.6515L64.8788 10.0682C65.1439 8.62879 64.4242 7.56818 62.303 7.56818Z" fill="#FF0000"/>
<path d="M69.197 7.56818C67.303 7.56818 66.2045 8.21212 65.9015 9.95455L65.75 10.7121C65.5606 11.7727 65.7879 12.6818 66.6212 13.3636L68.0606 14.6515C68.3258 14.8788 68.4394 15.1818 68.4015 15.4848L68.1364 17.1136C68.0606 17.4545 67.8712 17.6439 67.5303 17.6439C67.3788 17.6439 67.2652 17.6061 67.1894 17.4924C67.1136 17.3788 67.0758 17.2652 67.1136 17.0758L67.4167 15.0682H65.0682L64.7652 16.8485C64.5379 18.4394 65.5985 19.2348 67.303 19.2348C69.3106 19.2348 70.3333 18.553 70.6364 16.8864L70.8258 15.8636C71.0151 14.803 70.8636 13.7803 70.0303 13.1364L68.5152 11.8106C68.2121 11.5833 68.0985 11.3182 68.1742 10.9394L68.3636 9.68939C68.4394 9.34848 68.6288 9.15909 68.9697 9.15909C69.1212 9.15909 69.2348 9.19697 69.3106 9.31061C69.3864 9.42424 69.4242 9.53788 69.3864 9.72727L69.1212 11.3939H71.5455L71.7727 10.0682C72.0379 8.62879 71.3182 7.56818 69.197 7.56818Z" fill="#FF0000"/>
<path d="M54.3864 17.1515C54.3106 17.4924 54.1212 17.6818 53.7803 17.6818C53.6288 17.6818 53.5152 17.6439 53.4394 17.5303C53.3636 17.4545 53.3636 17.3409 53.3636 17.2273C53.3636 17.1894 53.3636 17.1515 53.3636 17.1136L53.6667 15.1061C53.7424 14.6894 53.9318 14.4242 54.3106 14.197L54.8788 13.8939L54.3864 17.1515ZM55.4091 7.60606C53.553 7.60606 52.3788 8.32576 52.0758 9.99242L51.8485 11.4318H54.3106L54.5758 9.72727C54.6515 9.38636 54.8409 9.19697 55.1818 9.19697C55.3333 9.19697 55.447 9.23485 55.5227 9.34848C55.5985 9.46212 55.6364 9.57576 55.5985 9.76515L55.2576 11.9621L52.9849 13.1742C51.9242 13.7424 51.3939 14.4621 51.2045 15.6364L50.9394 17.303C50.7121 18.6288 51.4318 19.3106 52.7576 19.3106C53.5909 19.3106 54.197 19.0455 54.6515 18.4773L55.0682 19.197H56.5455L57.9849 10.0682C58.25 8.36364 57.1136 7.60606 55.4091 7.60606Z" fill="#FF0000"/>
<path d="M45.2955 4.80303C43.4394 4.80303 42.1515 5.56061 41.8864 7.22727L40.3712 16.7348C40.1061 18.3636 41.053 19.2727 43.2121 19.2727C44.9924 19.2727 46.2045 18.5152 46.5076 16.8485L47.0758 13.5152H44.5758V13.553L44.0076 17.1136C43.9697 17.4924 43.7424 17.6818 43.4015 17.6818C43.25 17.6818 43.0985 17.6439 43.0227 17.5303C42.947 17.4167 42.9091 17.2652 42.947 17.0758L44.5758 6.96212C44.6515 6.58333 44.8409 6.39394 45.1818 6.39394C45.3333 6.39394 45.4849 6.43182 45.5606 6.54545C45.6364 6.65909 45.6742 6.81061 45.6364 7L45.1439 9.95455H47.6439L48.0606 7.34091C48.25 5.59848 47.1515 4.80303 45.2955 4.80303Z" fill="#FF0000"/>
<path d="M73.4773 10.4091L72.3788 17.303C72.1136 18.8939 71.7349 20.9015 67.9849 20.9015H43.1742C41.3561 20.9015 40.1061 20.5227 39.3864 19.6136C38.7045 18.7803 38.5152 17.947 38.5152 17.947L38.0227 20.9394H18.1742C16.2803 20.9394 15.2197 20.4091 14.6894 19.803C14.6894 19.803 14.6894 19.7652 14.6515 19.7652L14.3106 20.9394H3.09848V3.09848H19.6894L18.8182 5.90152H27.4167L27.8712 3.09848H40.8636L40.4849 5.78788L41.1288 5.0303C42.1894 3.7803 43.7045 3.09848 45.2955 3.09848H53.9318L53.4773 6.05303L53.8939 5.97727C54.3485 5.86364 54.8788 5.82576 55.4091 5.82576C56.697 5.82576 57.7576 6.16667 58.553 6.81061L58.7424 6.96212L58.9318 6.81061C59.803 6.16667 60.9394 5.82576 62.3409 5.82576C63.6667 5.82576 64.7273 6.12879 65.4849 6.77273L65.6364 6.92424L65.8258 6.77273C66.6591 6.12879 67.8333 5.82576 69.2349 5.82576C70.8636 5.82576 72.0379 6.2803 72.8333 7.22727C73.2879 7.79545 73.7803 8.81818 73.4773 10.4091ZM2 22H15.1061L15.2576 21.5455C15.9773 21.9242 16.9242 22 18.1742 22H39.0076L39.197 20.9015C40.1439 21.6591 41.4318 22 43.2121 22H68.0227C72.7197 22 73.25 19.0833 73.5152 17.4924L74.6136 10.5985C74.9924 8.59091 74.3106 7.26515 73.6667 6.50758C72.6818 5.29545 71.1667 4.72727 69.2349 4.68939C67.8333 4.68939 66.6591 4.99242 65.6742 5.52273C64.7652 4.95455 63.6667 4.68939 62.3409 4.68939C60.9394 4.68939 59.7273 4.99242 58.7424 5.56061C57.8333 4.99242 56.7349 4.68939 55.4091 4.68939C55.2197 4.68939 54.9924 4.68939 54.803 4.72727L55.2197 2H45.2955C44.1591 2 43.0227 2.30303 42.0379 2.87121L42.1515 2H26.9621L26.5076 4.80303H20.3333L21.1667 2H2V22Z" fill="#FF0000"/>
<path d="M73.4773 10.4091L72.3788 17.303C72.1136 18.8939 71.7349 20.9015 67.9849 20.9015H43.1742C41.3561 20.9015 40.1061 20.5227 39.3864 19.6136C38.7045 18.7803 38.5152 17.947 38.5152 17.947L38.0227 20.9394H18.1742C16.2803 20.9394 15.2197 20.4091 14.6894 19.803C14.6894 19.803 14.6894 19.7652 14.6515 19.7652L14.3106 20.9394H3.09848V3.09848H19.6894L18.8182 5.90152H27.4167L27.8712 3.09848H40.8636L40.4849 5.78788L41.1288 5.0303C42.1894 3.7803 43.7045 3.09848 45.2955 3.09848H53.9318L53.4773 6.05303L53.8939 5.97727C54.3485 5.86364 54.8788 5.82576 55.4091 5.82576C56.697 5.82576 57.7576 6.16667 58.553 6.81061L58.7424 6.96212L58.9318 6.81061C59.803 6.16667 60.9394 5.82576 62.3409 5.82576C63.6667 5.82576 64.7273 6.12879 65.4849 6.77273L65.6364 6.92424L65.8258 6.77273C66.6591 6.12879 67.8333 5.82576 69.2349 5.82576C70.8636 5.82576 72.0379 6.2803 72.8333 7.22727C73.2879 7.79545 73.7803 8.81818 73.4773 10.4091ZM2 22H15.1061L15.2576 21.5455C15.9773 21.9242 16.9242 22 18.1742 22H39.0076L39.197 20.9015C40.1439 21.6591 41.4318 22 43.2121 22H68.0227C72.7197 22 73.25 19.0833 73.5152 17.4924L74.6136 10.5985C74.9924 8.59091 74.3106 7.26515 73.6667 6.50758C72.6818 5.29545 71.1667 4.72727 69.2349 4.68939C67.8333 4.68939 66.6591 4.99242 65.6742 5.52273C64.7652 4.95455 63.6667 4.68939 62.3409 4.68939C60.9394 4.68939 59.7273 4.99242 58.7424 5.56061C57.8333 4.99242 56.7349 4.68939 55.4091 4.68939C55.2197 4.68939 54.9924 4.68939 54.803 4.72727L55.2197 2H45.2955C44.1591 2 43.0227 2.30303 42.0379 2.87121L42.1515 2H26.9621L26.5076 4.80303H20.3333L21.1667 2H2V22Z" fill="#FF0000"/>
<path d="M12.8333 19.1212L17.1894 4.87879H14.7273L12.4545 12.0758H12.303L12.3409 4.87879H9.61364L7.45455 12.1136H7.30303V4.87879H4.87879V19.1212H7.49242L9.91667 10.9394H10.0682L10.2197 19.1212H12.8333Z" fill="#FF0000"/>
</svg>
