<svg xmlns="http://www.w3.org/2000/svg" width="187" height="24" viewBox="0 0 187 24" fill="none"><rect width="187" height="24" fill="none"/>
<path d="M8.06886 17.805H10.2188V5.39498H7.08917C3.94585 5.39498 2.28576 7.01781 2.28576 9.40434C2.28576 11.3136 3.19744 12.4455 4.81671 13.6047L2 17.805H4.32686L7.45654 13.1001L6.36798 12.3636C5.04804 11.4772 4.40849 10.7817 4.40849 9.28158C4.40849 7.95879 5.3338 7.07238 7.10278 7.07238H8.06886V17.805Z" fill="white"/>
<path d="M51.8029 17.4232C51.2858 17.805 50.5918 17.9823 49.6121 17.9823C46.7817 17.9823 45.4074 16.3186 45.3938 13.332C45.3938 10.6045 46.7953 8.6543 49.5032 8.6543C50.5646 8.6543 51.3402 8.83164 51.7893 9.07709V10.8773C51.3675 10.6045 50.5646 10.3181 49.7482 10.3181C48.3602 10.3181 47.5982 11.3136 47.5982 13.2638C47.5982 15.1185 48.2241 16.2913 49.7346 16.2913C50.6327 16.2913 51.2722 16.0594 51.8029 15.6912V17.4232Z" fill="white"/>
<path fill-rule="evenodd" clip-rule="evenodd" d="M36.3722 15.4594V17.1914C35.7462 17.6141 34.7529 17.9823 33.4057 17.9823C30.7115 17.9823 29.1738 16.4685 29.1738 13.3456C29.1738 10.6317 30.3985 8.6543 32.9839 8.6543C35.093 8.6543 36.4674 9.82712 36.4674 12.9501V14.0684H31.351C31.4463 15.5685 32.0314 16.3049 33.5826 16.3049C34.6032 16.3049 35.719 15.9095 36.3722 15.4594ZM34.3038 12.3228C34.3038 11.1909 33.9772 10.3181 32.9295 10.3181C31.9225 10.3181 31.4055 11.0681 31.351 12.5001H34.3038V12.3228Z" fill="white"/>
<path d="M16.9545 12.3637V8.81796H19.0772V17.805H16.9545V14.0547H14.1241V17.805H12.0014V8.81796H14.1241V12.3637H16.9545Z" fill="white"/>
<path fill-rule="evenodd" clip-rule="evenodd" d="M27.7043 16.114H28.6296V19.8506H26.6701V17.805H21.9212V19.8506H19.9617V16.114H20.6421C21.3905 14.6139 21.5265 11.7773 21.5265 9.58168V8.81796H27.7043V16.114ZM22.5879 16.114H25.5815V10.4818H23.3364V10.7545C23.3364 12.3091 23.173 14.7639 22.5879 16.114Z" fill="white"/>
<path d="M45.5435 17.805H43.135L40.0053 13.3865V17.805H37.8825V8.81796H40.0053V12.9638L42.9989 8.81796H45.1353L42.1416 12.9638L45.5435 17.805Z" fill="white"/>
<path d="M80.0747 11.9782V17.8253H77.9044V5.35986H80.0747V11.0994L83.931 5.35986H86.1366L82.1196 11.2967L86.5491 17.8253H84.0206L80.0747 11.9782Z" fill="white"/>
<path d="M90.9836 8.62419C91.5695 8.62419 92.1075 8.72587 92.5976 8.92916C93.0883 9.13244 93.5065 9.43733 93.8534 9.84383C94.2003 10.2385 94.469 10.7287 94.6608 11.3146C94.8638 11.8885 94.9654 12.5522 94.9654 13.3055C94.9654 14.0588 94.8638 14.7284 94.6608 15.3143C94.469 15.9002 94.2003 16.3965 93.8534 16.803C93.5065 17.1976 93.0883 17.4965 92.5976 17.6998C92.1075 17.9031 91.5695 18.0047 90.9836 18.0047C90.3976 18.0047 89.8596 17.9031 89.3696 17.6998C88.8788 17.4965 88.4607 17.1976 88.1138 16.803C87.7668 16.3965 87.4918 15.9062 87.2888 15.3322C87.0977 14.7464 87.0018 14.0767 87.0018 13.3234C87.0018 12.5701 87.0977 11.9005 87.2888 11.3146C87.4918 10.7287 87.7668 10.2385 88.1138 9.84383C88.4607 9.43733 88.8788 9.13244 89.3696 8.92916C89.8596 8.72587 90.3976 8.62419 90.9836 8.62419ZM90.9836 16.3187C91.5815 16.3187 92.0236 16.0796 92.3106 15.6013C92.6096 15.123 92.7591 14.3577 92.7591 13.3055C92.7591 12.2533 92.6096 11.4939 92.3106 11.0277C92.0236 10.5494 91.5815 10.3102 90.9836 10.3102C90.3856 10.3102 89.9372 10.5494 89.6382 11.0277C89.3512 11.5059 89.2081 12.2712 89.2081 13.3234C89.2081 14.3757 89.3512 15.141 89.6382 15.6192C89.9372 16.0856 90.3856 16.3187 90.9836 16.3187Z" fill="white"/>
<path d="M106.084 17.8253H104.004V11.0815L101.815 17.8253H100.075L98.1208 11.0994V17.8253H96.3086V8.80359H99.4118L101.17 14.8121L103.124 8.80359H106.048L106.084 17.8253Z" fill="white"/>
<path d="M112.389 13.718H112.084C111.163 13.718 110.505 13.8256 110.111 14.0409C109.716 14.2441 109.519 14.6029 109.519 15.117C109.519 15.4996 109.627 15.8105 109.842 16.0497C110.069 16.2769 110.41 16.3905 110.864 16.3905C111.247 16.3905 111.564 16.3247 111.815 16.1932C112.066 16.0497 112.258 15.8763 112.389 15.673V13.718ZM114.523 15.6192C114.523 16.3606 114.559 17.096 114.631 17.8253H112.55C112.514 17.7297 112.478 17.6161 112.443 17.4845C112.419 17.353 112.401 17.2275 112.389 17.1079H112.299C112.096 17.3231 111.833 17.5204 111.51 17.6998C111.187 17.8672 110.715 17.9509 110.093 17.9509C109.268 17.9509 108.599 17.7057 108.084 17.2155C107.582 16.7253 107.331 16.0198 107.331 15.0991C107.331 14.1784 107.707 13.4669 108.461 12.9648C109.214 12.4506 110.41 12.1935 112.048 12.1935H112.389V11.6912C112.389 11.201 112.27 10.8603 112.031 10.6689C111.791 10.4657 111.414 10.364 110.9 10.364C110.625 10.364 110.344 10.3939 110.057 10.4537C109.77 10.5015 109.495 10.5673 109.232 10.651C108.981 10.7347 108.742 10.8304 108.515 10.938C108.3 11.0456 108.12 11.1532 107.977 11.2608V9.48514C108.3 9.29385 108.73 9.10847 109.268 8.92916C109.806 8.74978 110.434 8.66009 111.151 8.66009C112.287 8.66009 113.131 8.88728 113.681 9.34165C114.243 9.79603 114.523 10.5733 114.523 11.6733V15.6192Z" fill="white"/>
<path d="M123.27 8.80359V17.8253H121.136V14.0588H118.284V17.8253H116.15V8.80359H118.284V12.3728H121.136V8.80359H123.27Z" fill="white"/>
<path d="M132.903 19.888H130.93V17.8253H126.141V19.888H124.168V16.1394H124.832C125.023 15.7687 125.173 15.3203 125.28 14.7942C125.4 14.2681 125.49 13.712 125.55 13.1262C125.621 12.5283 125.669 11.9244 125.693 11.3147C125.717 10.7048 125.729 10.1249 125.729 9.57485V8.80359H131.952V16.1394H132.903V19.888ZM129.818 10.4896H127.558V10.7586C127.558 11.1532 127.546 11.5896 127.523 12.0679C127.499 12.5462 127.456 13.0305 127.397 13.5207C127.349 14.011 127.271 14.4893 127.164 14.9556C127.068 15.41 126.949 15.8046 126.805 16.1394H129.818V10.4896Z" fill="white"/>
<path d="M135.952 8.80359V14.3996L139.216 8.80359H141.117V17.8253H139.054V12.2473L135.79 17.8253H133.889V8.80359H135.952Z" fill="white"/>
<path d="M144.9 9.96942C145.175 9.52703 145.516 9.19217 145.923 8.96498C146.341 8.73779 146.801 8.62419 147.303 8.62419C147.806 8.62419 148.266 8.72587 148.685 8.92916C149.103 9.13244 149.462 9.43733 149.761 9.84383C150.06 10.2385 150.293 10.7287 150.46 11.3146C150.628 11.8885 150.711 12.5522 150.711 13.3055C150.711 14.0588 150.622 14.7284 150.442 15.3143C150.275 15.9002 150.036 16.3965 149.725 16.803C149.426 17.1976 149.056 17.4965 148.613 17.6998C148.183 17.9031 147.71 18.0047 147.196 18.0047C146.251 18.0047 145.504 17.5921 144.954 16.7672V20.4261H142.819V8.80358H144.792L144.9 9.96942ZM146.658 16.3187C147.279 16.3187 147.74 16.0796 148.039 15.6013C148.35 15.123 148.506 14.3577 148.506 13.3055C148.506 12.2533 148.362 11.4939 148.075 11.0277C147.788 10.5494 147.351 10.3102 146.765 10.3102C146.167 10.3102 145.719 10.5374 145.421 10.9918C145.122 11.4461 144.966 12.1755 144.954 13.18V13.3234C144.954 14.3757 145.091 15.141 145.366 15.6192C145.653 16.0856 146.084 16.3187 146.658 16.3187Z" fill="white"/>
<path d="M155.671 8.62419C156.257 8.62419 156.795 8.72587 157.286 8.92916C157.776 9.13244 158.195 9.43733 158.541 9.84383C158.888 10.2385 159.157 10.7287 159.348 11.3146C159.551 11.8885 159.653 12.5522 159.653 13.3055C159.653 14.0588 159.551 14.7284 159.348 15.3143C159.157 15.9002 158.888 16.3965 158.541 16.803C158.195 17.1976 157.776 17.4965 157.286 17.6998C156.795 17.9031 156.257 18.0047 155.671 18.0047C155.086 18.0047 154.547 17.9031 154.057 17.6998C153.567 17.4965 153.148 17.1976 152.802 16.803C152.455 16.3965 152.18 15.9062 151.976 15.3322C151.785 14.7464 151.689 14.0767 151.689 13.3234C151.689 12.5701 151.785 11.9005 151.976 11.3146C152.18 10.7287 152.455 10.2385 152.802 9.84383C153.148 9.43733 153.567 9.13244 154.057 8.92916C154.547 8.72587 155.086 8.62419 155.671 8.62419ZM155.671 16.3187C156.269 16.3187 156.712 16.0796 156.999 15.6013C157.298 15.123 157.447 14.3577 157.447 13.3055C157.447 12.2533 157.298 11.4939 156.999 11.0277C156.712 10.5494 156.269 10.3102 155.671 10.3102C155.074 10.3102 154.625 10.5494 154.326 11.0277C154.039 11.5059 153.895 12.2712 153.895 13.3234C153.895 14.3757 154.039 15.141 154.326 15.6192C154.625 16.0856 155.074 16.3187 155.671 16.3187Z" fill="white"/>
<path d="M164.763 8.80359C166.76 8.80359 167.758 9.56885 167.758 11.0994C167.758 11.6375 167.615 12.0799 167.328 12.4266C167.053 12.7615 166.67 13.0006 166.18 13.1441C166.79 13.2398 167.262 13.461 167.597 13.8077C167.932 14.1425 168.099 14.6089 168.099 15.2068C168.099 16.0676 167.8 16.7193 167.202 17.1618C166.617 17.6041 165.792 17.8253 164.727 17.8253H160.997V8.80359H164.763ZM163.077 13.987V16.247H164.548C164.979 16.247 165.319 16.1573 165.57 15.9779C165.821 15.7866 165.947 15.4817 165.947 15.0633C165.947 14.6806 165.827 14.4056 165.588 14.2382C165.349 14.0708 165.003 13.987 164.548 13.987H163.077ZM163.077 10.382V12.4266H164.441C164.847 12.4266 165.158 12.337 165.373 12.1576C165.6 11.9782 165.714 11.7331 165.714 11.4223C165.714 10.7287 165.313 10.382 164.512 10.382H163.077Z" fill="white"/>
<path d="M171.571 13.4669V17.8253H169.437V8.80359H171.571V13.0365L174.584 8.80359H176.737L173.723 13.0365L177.149 17.8253H174.728L171.571 13.4669Z" fill="white"/>
<path d="M180.115 8.80359V14.3996L183.379 8.80359H185.281V17.8253H183.218V12.2473L179.954 17.8253H178.053V8.80359H180.115Z" fill="white"/>
<path d="M68.3334 2H61.6667C57.9848 2 55 4.98477 55 8.66666V15.3334C55 19.0153 57.9848 22 61.6667 22H68.3334C72.0153 22 75.0003 19.0153 75.0003 15.3334V8.66666C75.0003 4.98477 72.0153 2 68.3334 2Z" fill="#EDF2F7"/>
<mask id="mask0_5943_70" style="mask-type:luminance" maskUnits="userSpaceOnUse" x="55" y="2" width="20" height="20">
<path d="M68.3334 2H61.6667C57.9848 2 55 4.98477 55 8.66666V15.3334C55 19.0153 57.9848 22 61.6667 22H68.3334C72.0155 22 74.9997 19.0153 74.9997 15.3334V8.66666C74.9997 4.98477 72.0155 2 68.3334 2Z" fill="#EDF2F7"/>
</mask>
<g mask="url(#mask0_5943_70)">
<g filter="url(#filter0_iiiii_5943_70)">
<path d="M70.8603 2.00607C69.8117 1.95319 68.7751 2.2471 67.9094 2.84262C67.0438 3.43814 66.397 4.3023 66.0686 5.30239C66.0268 5.429 66.0156 5.56368 66.036 5.69546C66.0563 5.82723 66.1076 5.95227 66.1856 6.06031C66.2636 6.16828 66.3661 6.2561 66.4846 6.31651C66.6031 6.37691 66.7342 6.40825 66.8672 6.40786H68.065C68.2234 6.41037 68.3792 6.36767 68.5143 6.2847C68.6492 6.20165 68.758 6.08186 68.8277 5.93919C68.9832 5.61734 69.2217 5.34305 69.5187 5.14499C69.8155 4.94686 70.1598 4.83216 70.5163 4.81273C70.872 4.7933 71.2269 4.86984 71.5434 5.03445C71.86 5.19913 72.1263 5.44577 72.3159 5.74889C72.5055 6.05193 72.6105 6.40034 72.6199 6.75791C72.6301 7.11548 72.5439 7.46906 72.3716 7.78205C72.1984 8.09497 71.9453 8.35586 71.6382 8.53747C71.3311 8.71915 70.9809 8.81497 70.6244 8.81497H67.2305C66.8599 8.81497 66.5044 8.96265 66.2423 9.22558C65.9802 9.48851 65.833 9.84507 65.833 10.2168V21.4315C65.833 21.8033 65.9802 22.1598 66.2423 22.4228C66.5044 22.6857 66.8599 22.8334 67.2305 22.8334H74.0184C74.389 22.8334 74.7447 22.6857 75.0063 22.4228C75.2688 22.1598 75.4161 21.8033 75.4161 21.4315V6.95652C75.431 5.70368 74.9672 4.49253 74.1202 3.57188C73.2725 2.65123 72.106 2.09094 70.8603 2.00607Z" fill="url(#paint0_linear_5943_70)"/>
</g>
<g filter="url(#filter1_diiii_5943_70)">
<path d="M68.4607 7.21289H61.7941C60.8736 7.21289 60.1274 7.8681 60.1274 8.67632V22.4043C60.1274 23.2125 60.8736 23.8677 61.7941 23.8677H68.4607C69.3812 23.8677 70.1274 23.2125 70.1274 22.4043V8.67632C70.1274 7.8681 69.3812 7.21289 68.4607 7.21289Z" fill="url(#paint1_radial_5943_70)"/>
</g>
<path opacity="0.7" d="M65.2143 15.8491C67.0491 15.8491 68.5365 14.3679 68.5365 12.5407C68.5365 10.7136 67.0491 9.23242 65.2143 9.23242M65.2143 15.8491C63.3795 15.8491 61.8921 14.3679 61.8921 12.5407C61.8921 10.7136 63.3795 9.23242 65.2143 9.23242M65.2143 15.8491C66.2553 15.8491 67.0988 14.3676 67.0988 12.5404C67.0988 10.7133 66.2553 9.23242 65.2143 9.23242M65.2143 15.8491C64.1732 15.8491 63.329 14.3676 63.329 12.5404C63.329 10.7133 64.1732 9.23242 65.2143 9.23242M61.9195 12.5966H68.5639M62.6015 10.4511C62.6015 10.4511 63.4058 11.2799 65.1858 11.2799C66.9658 11.2799 67.7806 10.4511 67.7806 10.4511M67.7816 14.5992C67.7816 14.5992 66.9808 13.7738 65.2148 13.7738C63.4488 13.7738 62.62 14.5992 62.62 14.5992M65.2415 9.28773V15.9044" stroke="#5725A3" stroke-width="0.357449" stroke-miterlimit="10"/>
<g filter="url(#filter2_diiii_5943_70)">
<path d="M65.4167 19.0839V14.0835C65.4069 13.6322 65.2184 13.2033 64.8926 12.8908C64.5669 12.5784 64.1305 12.4079 63.6792 12.4168H56.7376C56.2862 12.4079 55.8498 12.5784 55.5241 12.8908C55.1984 13.2033 55.0099 13.6322 55 14.0835V19.0839C55.0052 19.3869 55.0928 19.6829 55.2536 19.9398C55.4144 20.1968 55.6422 20.405 55.9125 20.5422C55.6422 20.6793 55.4144 20.8876 55.2536 21.1445C55.0928 21.4015 55.0052 21.6974 55 22.0005V28.6672C55.0099 29.1185 55.1984 29.5474 55.5241 29.8598C55.8498 30.1723 56.2862 30.3428 56.7376 30.3338H63.6792C64.1305 30.3428 64.5669 30.1723 64.8926 29.8598C65.2184 29.5474 65.4069 29.1185 65.4167 28.6672V22.0005C65.4116 21.6974 65.3239 21.4015 65.1632 21.1445C65.0024 20.8876 64.7746 20.6793 64.5042 20.5422C64.7746 20.405 65.0024 20.1968 65.1632 19.9398C65.3239 19.6829 65.4116 19.3869 65.4167 19.0839ZM56.4583 20.7505C56.4171 20.7505 56.3769 20.7383 56.3426 20.7154C56.3084 20.6925 56.2817 20.66 56.2659 20.6219C56.2501 20.5838 56.246 20.542 56.254 20.5015C56.2621 20.4611 56.2819 20.424 56.311 20.3948C56.3402 20.3657 56.3773 20.3459 56.4178 20.3379C56.4581 20.3298 56.5 20.334 56.5381 20.3497C56.5762 20.3655 56.6087 20.3922 56.6316 20.4264C56.6545 20.4607 56.6667 20.501 56.6667 20.5422C56.6667 20.5974 56.6447 20.6504 56.6057 20.6895C56.5666 20.7286 56.5137 20.7505 56.4583 20.7505ZM57.2917 20.7505C57.2505 20.7505 57.2102 20.7383 57.176 20.7154C57.1417 20.6925 57.115 20.66 57.0992 20.6219C57.0835 20.5838 57.0793 20.542 57.0874 20.5015C57.0954 20.4611 57.1153 20.424 57.1444 20.3948C57.1736 20.3657 57.2106 20.3459 57.251 20.3379C57.2915 20.3298 57.3334 20.334 57.3715 20.3497C57.4095 20.3655 57.4421 20.3922 57.4649 20.4264C57.4878 20.4607 57.5 20.501 57.5 20.5422C57.5 20.5974 57.4781 20.6504 57.439 20.6895C57.4 20.7286 57.3469 20.7505 57.2917 20.7505ZM58.1251 20.7505C58.0839 20.7505 58.0435 20.7383 58.0093 20.7154C57.975 20.6925 57.9483 20.66 57.9326 20.6219C57.9168 20.5838 57.9127 20.542 57.9207 20.5015C57.9287 20.4611 57.9486 20.424 57.9777 20.3948C58.0069 20.3657 58.044 20.3459 58.0844 20.3379C58.1248 20.3298 58.1667 20.334 58.2048 20.3497C58.2428 20.3655 58.2753 20.3922 58.2983 20.4264C58.3212 20.4607 58.3334 20.501 58.3334 20.5422C58.3334 20.5974 58.3115 20.6504 58.2724 20.6895C58.2333 20.7286 58.1803 20.7505 58.1251 20.7505ZM58.9584 20.7505C58.9172 20.7505 58.8769 20.7383 58.8426 20.7154C58.8083 20.6925 58.7817 20.66 58.7659 20.6219C58.7501 20.5838 58.746 20.542 58.754 20.5015C58.7621 20.4611 58.7819 20.424 58.8111 20.3948C58.8402 20.3657 58.8773 20.3459 58.9177 20.3379C58.9581 20.3298 59 20.334 59.0381 20.3497C59.0762 20.3655 59.1087 20.3922 59.1316 20.4264C59.1545 20.4607 59.1667 20.501 59.1667 20.5422C59.1667 20.5974 59.1448 20.6504 59.1057 20.6895C59.0666 20.7286 59.0136 20.7505 58.9584 20.7505ZM59.7917 20.7505C59.7505 20.7505 59.7103 20.7383 59.6759 20.7154C59.6417 20.6925 59.615 20.66 59.5992 20.6219C59.5835 20.5838 59.5793 20.542 59.5874 20.5015C59.5954 20.4611 59.6152 20.424 59.6444 20.3948C59.6735 20.3657 59.7107 20.3459 59.7511 20.3379C59.7915 20.3298 59.8333 20.334 59.8714 20.3497C59.9095 20.3655 59.942 20.3922 59.965 20.4264C59.9878 20.4607 60.0001 20.501 60.0001 20.5422C60.0001 20.5974 59.9781 20.6504 59.939 20.6895C59.8999 20.7286 59.847 20.7505 59.7917 20.7505ZM60.625 20.7505C60.5838 20.7505 60.5435 20.7383 60.5093 20.7154C60.4751 20.6925 60.4484 20.66 60.4325 20.6219C60.4168 20.5838 60.4127 20.542 60.4207 20.5015C60.4288 20.4611 60.4486 20.424 60.4777 20.3948C60.5069 20.3657 60.544 20.3459 60.5844 20.3379C60.6248 20.3298 60.6667 20.334 60.7048 20.3497C60.7429 20.3655 60.7754 20.3922 60.7983 20.4264C60.8211 20.4607 60.8333 20.501 60.8333 20.5422C60.8333 20.5974 60.8114 20.6504 60.7723 20.6895C60.7333 20.7286 60.6803 20.7505 60.625 20.7505ZM61.4584 20.7505C61.4172 20.7505 61.3769 20.7383 61.3426 20.7154C61.3084 20.6925 61.2816 20.66 61.2659 20.6219C61.2502 20.5838 61.246 20.542 61.2541 20.5015C61.2621 20.4611 61.282 20.424 61.311 20.3948C61.3402 20.3657 61.3773 20.3459 61.4177 20.3379C61.4582 20.3298 61.5 20.334 61.5381 20.3497C61.5762 20.3655 61.6087 20.3922 61.6316 20.4264C61.6545 20.4607 61.6667 20.501 61.6667 20.5422C61.6667 20.5974 61.6448 20.6504 61.6057 20.6895C61.5666 20.7286 61.5136 20.7505 61.4584 20.7505ZM62.2917 20.7505C62.2505 20.7505 62.2102 20.7383 62.176 20.7154C62.1417 20.6925 62.115 20.66 62.0993 20.6219C62.0834 20.5838 62.0794 20.542 62.0874 20.5015C62.0954 20.4611 62.1153 20.424 62.1444 20.3948C62.1735 20.3657 62.2107 20.3459 62.2511 20.3379C62.2915 20.3298 62.3334 20.334 62.3714 20.3497C62.4095 20.3655 62.442 20.3922 62.4649 20.4264C62.4878 20.4607 62.5 20.501 62.5 20.5422C62.5 20.5974 62.4781 20.6504 62.4391 20.6895C62.4 20.7286 62.347 20.7505 62.2917 20.7505ZM63.1251 20.7505C63.0838 20.7505 63.0436 20.7383 63.0093 20.7154C62.975 20.6925 62.9483 20.66 62.9326 20.6219C62.9168 20.5838 62.9127 20.542 62.9207 20.5015C62.9287 20.4611 62.9486 20.424 62.9778 20.3948C63.0068 20.3657 63.044 20.3459 63.0844 20.3379C63.1248 20.3298 63.1667 20.334 63.2047 20.3497C63.2428 20.3655 63.2754 20.3922 63.2983 20.4264C63.3212 20.4607 63.3334 20.501 63.3334 20.5422C63.3334 20.5974 63.3114 20.6504 63.2723 20.6895C63.2333 20.7286 63.1803 20.7505 63.1251 20.7505ZM63.9583 20.7505C63.9171 20.7505 63.8769 20.7383 63.8426 20.7154C63.8084 20.6925 63.7817 20.66 63.7659 20.6219C63.7501 20.5838 63.746 20.542 63.754 20.5015C63.7621 20.4611 63.7819 20.424 63.8111 20.3948C63.8402 20.3657 63.8773 20.3459 63.9178 20.3379C63.9581 20.3298 64 20.334 64.0381 20.3497C64.0762 20.3655 64.1087 20.3922 64.1316 20.4264C64.1545 20.4607 64.1667 20.501 64.1667 20.5422C64.1667 20.5974 64.1447 20.6504 64.1057 20.6895C64.0666 20.7286 64.0137 20.7505 63.9583 20.7505Z" fill="#00ADFF"/>
</g>
<g filter="url(#filter3_diiiii_5943_70)">
<path d="M62.6171 16.2215C62.5434 16.1446 62.4549 16.0836 62.3568 16.0422C62.2587 16.0008 62.1532 15.9799 62.0467 15.9807H61.0706L59.693 14.2318C59.6598 14.1877 59.6172 14.1515 59.5682 14.126C59.5192 14.1004 59.4651 14.086 59.41 14.084H59.2536C59.186 14.084 59.1437 14.1727 59.1733 14.2445L59.9508 15.9807H58.9071L58.531 15.5034C58.5146 15.4818 58.4936 15.4641 58.4695 15.4516C58.4454 15.4392 58.4187 15.4323 58.3916 15.4315H58.0536C57.969 15.4315 57.9141 15.5541 57.9563 15.6512L58.2817 16.3693L57.9353 17.0959C57.8887 17.1931 57.9353 17.3155 58.0282 17.3155H58.3662C58.3933 17.3148 58.42 17.3079 58.4441 17.2955C58.4682 17.283 58.4892 17.2654 58.5057 17.2438L58.886 16.7749H59.9381L59.1184 18.5068C59.0846 18.5786 59.1184 18.6673 59.1902 18.6673H59.3466C59.4025 18.6662 59.4575 18.6523 59.5074 18.6267C59.5572 18.601 59.6004 18.5644 59.6339 18.5195L61.0621 16.7749H62.0382C62.1455 16.7745 62.2517 16.7526 62.3504 16.7105C62.4491 16.6685 62.5383 16.607 62.6129 16.5299C62.653 16.4887 62.6758 16.4339 62.6766 16.3765C62.6774 16.3191 62.6561 16.2637 62.6171 16.2215Z" fill="url(#paint2_linear_5943_70)"/>
</g>
</g>
<defs>
<filter id="filter0_iiiii_5943_70" x="65.7097" y="1.87665" width="9.8302" height="21.0802" filterUnits="userSpaceOnUse" color-interpolation-filters="sRGB">
<feFlood flood-opacity="0" result="BackgroundImageFix"/>
<feBlend mode="normal" in="SourceGraphic" in2="BackgroundImageFix" result="shape"/>
<feColorMatrix in="SourceAlpha" type="matrix" values="0 0 0 0 0 0 0 0 0 0 0 0 0 0 0 0 0 0 127 0" result="hardAlpha"/>
<feOffset dx="-0.12335" dy="0.246699"/>
<feGaussianBlur stdDeviation="0.0616748"/>
<feComposite in2="hardAlpha" operator="arithmetic" k2="-1" k3="1"/>
<feColorMatrix type="matrix" values="0 0 0 0 1 0 0 0 0 1 0 0 0 0 1 0 0 0 1 0"/>
<feBlend mode="normal" in2="shape" result="effect1_innerShadow_5943_70"/>
<feColorMatrix in="SourceAlpha" type="matrix" values="0 0 0 0 0 0 0 0 0 0 0 0 0 0 0 0 0 0 127 0" result="hardAlpha"/>
<feOffset dx="0.12335" dy="-0.0616748"/>
<feGaussianBlur stdDeviation="0.14802"/>
<feComposite in2="hardAlpha" operator="arithmetic" k2="-1" k3="1"/>
<feColorMatrix type="matrix" values="0 0 0 0 0.631929 0 0 0 0 0.785547 0 0 0 0 0.559638 0 0 0 1 0"/>
<feBlend mode="normal" in2="effect1_innerShadow_5943_70" result="effect2_innerShadow_5943_70"/>
<feColorMatrix in="SourceAlpha" type="matrix" values="0 0 0 0 0 0 0 0 0 0 0 0 0 0 0 0 0 0 127 0" result="hardAlpha"/>
<feOffset dx="0.12335" dy="-0.12335"/>
<feGaussianBlur stdDeviation="0.0616748"/>
<feComposite in2="hardAlpha" operator="arithmetic" k2="-1" k3="1"/>
<feColorMatrix type="matrix" values="0 0 0 0 0.749397 0 0 0 0 0.973747 0 0 0 0 0.573122 0 0 0 1 0"/>
<feBlend mode="normal" in2="effect2_innerShadow_5943_70" result="effect3_innerShadow_5943_70"/>
<feColorMatrix in="SourceAlpha" type="matrix" values="0 0 0 0 0 0 0 0 0 0 0 0 0 0 0 0 0 0 127 0" result="hardAlpha"/>
<feOffset dx="-0.12335" dy="-0.12335"/>
<feGaussianBlur stdDeviation="0.12335"/>
<feComposite in2="hardAlpha" operator="arithmetic" k2="-1" k3="1"/>
<feColorMatrix type="matrix" values="0 0 0 0 0.231612 0 0 0 0 0.50153 0 0 0 0 0.104592 0 0 0 1 0"/>
<feBlend mode="normal" in2="effect3_innerShadow_5943_70" result="effect4_innerShadow_5943_70"/>
<feColorMatrix in="SourceAlpha" type="matrix" values="0 0 0 0 0 0 0 0 0 0 0 0 0 0 0 0 0 0 127 0" result="hardAlpha"/>
<feOffset dx="-0.12335" dy="0.12335"/>
<feGaussianBlur stdDeviation="0.12335"/>
<feComposite in2="hardAlpha" operator="arithmetic" k2="-1" k3="1"/>
<feColorMatrix type="matrix" values="0 0 0 0 0.782654 0 0 0 0 1 0 0 0 0 0.611881 0 0 0 1 0"/>
<feBlend mode="normal" in2="effect4_innerShadow_5943_70" result="effect5_innerShadow_5943_70"/>
</filter>
<filter id="filter1_diiii_5943_70" x="60.0041" y="7.08954" width="11.3734" height="19.2781" filterUnits="userSpaceOnUse" color-interpolation-filters="sRGB">
<feFlood flood-opacity="0" result="BackgroundImageFix"/>
<feColorMatrix in="SourceAlpha" type="matrix" values="0 0 0 0 0 0 0 0 0 0 0 0 0 0 0 0 0 0 127 0" result="hardAlpha"/>
<feOffset dx="0.833338" dy="2.08334"/>
<feGaussianBlur stdDeviation="0.208334"/>
<feComposite in2="hardAlpha" operator="out"/>
<feColorMatrix type="matrix" values="0 0 0 0 0.482048 0 0 0 0 0.47095 0 0 0 0 0.432109 0 0 0 0.3 0"/>
<feBlend mode="normal" in2="BackgroundImageFix" result="effect1_dropShadow_5943_70"/>
<feBlend mode="normal" in="SourceGraphic" in2="effect1_dropShadow_5943_70" result="shape"/>
<feColorMatrix in="SourceAlpha" type="matrix" values="0 0 0 0 0 0 0 0 0 0 0 0 0 0 0 0 0 0 127 0" result="hardAlpha"/>
<feOffset dx="-0.12335" dy="0.246699"/>
<feGaussianBlur stdDeviation="0.0616748"/>
<feComposite in2="hardAlpha" operator="arithmetic" k2="-1" k3="1"/>
<feColorMatrix type="matrix" values="0 0 0 0 0.87122 0 0 0 0 0.66242 0 0 0 0 0.981315 0 0 0 1 0"/>
<feBlend mode="normal" in2="shape" result="effect2_innerShadow_5943_70"/>
<feColorMatrix in="SourceAlpha" type="matrix" values="0 0 0 0 0 0 0 0 0 0 0 0 0 0 0 0 0 0 127 0" result="hardAlpha"/>
<feOffset dx="0.12335" dy="-0.0616748"/>
<feGaussianBlur stdDeviation="0.208334"/>
<feComposite in2="hardAlpha" operator="arithmetic" k2="-1" k3="1"/>
<feColorMatrix type="matrix" values="0 0 0 0 0.794273 0 0 0 0 0.428191 0 0 0 0 0.980583 0 0 0 1 0"/>
<feBlend mode="normal" in2="effect2_innerShadow_5943_70" result="effect3_innerShadow_5943_70"/>
<feColorMatrix in="SourceAlpha" type="matrix" values="0 0 0 0 0 0 0 0 0 0 0 0 0 0 0 0 0 0 127 0" result="hardAlpha"/>
<feOffset dx="-0.12335" dy="-0.12335"/>
<feGaussianBlur stdDeviation="0.12335"/>
<feComposite in2="hardAlpha" operator="arithmetic" k2="-1" k3="1"/>
<feColorMatrix type="matrix" values="0 0 0 0 0.127871 0 0 0 0 0.0183131 0 0 0 0 0.352604 0 0 0 1 0"/>
<feBlend mode="normal" in2="effect3_innerShadow_5943_70" result="effect4_innerShadow_5943_70"/>
<feColorMatrix in="SourceAlpha" type="matrix" values="0 0 0 0 0 0 0 0 0 0 0 0 0 0 0 0 0 0 127 0" result="hardAlpha"/>
<feOffset dx="-0.12335" dy="0.12335"/>
<feGaussianBlur stdDeviation="0.12335"/>
<feComposite in2="hardAlpha" operator="arithmetic" k2="-1" k3="1"/>
<feColorMatrix type="matrix" values="0 0 0 0 0.441615 0 0 0 0 0.32003 0 0 0 0 0.722998 0 0 0 0.6 0"/>
<feBlend mode="normal" in2="effect4_innerShadow_5943_70" result="effect5_innerShadow_5943_70"/>
</filter>
<filter id="filter2_diiii_5943_70" x="54.8767" y="12.2932" width="11.7899" height="20.5408" filterUnits="userSpaceOnUse" color-interpolation-filters="sRGB">
<feFlood flood-opacity="0" result="BackgroundImageFix"/>
<feColorMatrix in="SourceAlpha" type="matrix" values="0 0 0 0 0 0 0 0 0 0 0 0 0 0 0 0 0 0 127 0" result="hardAlpha"/>
<feOffset dx="0.833338" dy="2.08334"/>
<feGaussianBlur stdDeviation="0.208334"/>
<feComposite in2="hardAlpha" operator="out"/>
<feColorMatrix type="matrix" values="0 0 0 0 0.266002 0 0 0 0 0.147605 0 0 0 0 0.476156 0 0 0 0.3 0"/>
<feBlend mode="normal" in2="BackgroundImageFix" result="effect1_dropShadow_5943_70"/>
<feBlend mode="normal" in="SourceGraphic" in2="effect1_dropShadow_5943_70" result="shape"/>
<feColorMatrix in="SourceAlpha" type="matrix" values="0 0 0 0 0 0 0 0 0 0 0 0 0 0 0 0 0 0 127 0" result="hardAlpha"/>
<feOffset dx="-0.12335" dy="0.246699"/>
<feGaussianBlur stdDeviation="0.0616748"/>
<feComposite in2="hardAlpha" operator="arithmetic" k2="-1" k3="1"/>
<feColorMatrix type="matrix" values="0 0 0 0 0.469059 0 0 0 0 0.872574 0 0 0 0 1 0 0 0 1 0"/>
<feBlend mode="normal" in2="shape" result="effect2_innerShadow_5943_70"/>
<feColorMatrix in="SourceAlpha" type="matrix" values="0 0 0 0 0 0 0 0 0 0 0 0 0 0 0 0 0 0 127 0" result="hardAlpha"/>
<feOffset dx="0.12335" dy="-0.0616748"/>
<feGaussianBlur stdDeviation="0.208334"/>
<feComposite in2="hardAlpha" operator="arithmetic" k2="-1" k3="1"/>
<feColorMatrix type="matrix" values="0 0 0 0 0.361507 0 0 0 0 0.770143 0 0 0 0 1 0 0 0 1 0"/>
<feBlend mode="normal" in2="effect2_innerShadow_5943_70" result="effect3_innerShadow_5943_70"/>
<feColorMatrix in="SourceAlpha" type="matrix" values="0 0 0 0 0 0 0 0 0 0 0 0 0 0 0 0 0 0 127 0" result="hardAlpha"/>
<feOffset dx="-0.12335" dy="-0.12335"/>
<feGaussianBlur stdDeviation="0.12335"/>
<feComposite in2="hardAlpha" operator="arithmetic" k2="-1" k3="1"/>
<feColorMatrix type="matrix" values="0 0 0 0 0 0 0 0 0 0.322494 0 0 0 0 0.701074 0 0 0 1 0"/>
<feBlend mode="normal" in2="effect3_innerShadow_5943_70" result="effect4_innerShadow_5943_70"/>
<feColorMatrix in="SourceAlpha" type="matrix" values="0 0 0 0 0 0 0 0 0 0 0 0 0 0 0 0 0 0 127 0" result="hardAlpha"/>
<feOffset dx="-0.12335" dy="0.12335"/>
<feGaussianBlur stdDeviation="0.12335"/>
<feComposite in2="hardAlpha" operator="arithmetic" k2="-1" k3="1"/>
<feColorMatrix type="matrix" values="0 0 0 0 0 0 0 0 0 0.488101 0 0 0 0 0.883464 0 0 0 1 0"/>
<feBlend mode="normal" in2="effect4_innerShadow_5943_70" result="effect5_innerShadow_5943_70"/>
</filter>
<filter id="filter3_diiiii_5943_70" x="57.8648" y="14.0318" width="4.96851" height="4.79224" filterUnits="userSpaceOnUse" color-interpolation-filters="sRGB">
<feFlood flood-opacity="0" result="BackgroundImageFix"/>
<feColorMatrix in="SourceAlpha" type="matrix" values="0 0 0 0 0 0 0 0 0 0 0 0 0 0 0 0 0 0 127 0" result="hardAlpha"/>
<feOffset dx="0.0521864" dy="0.0521864"/>
<feGaussianBlur stdDeviation="0.0521864"/>
<feComposite in2="hardAlpha" operator="out"/>
<feColorMatrix type="matrix" values="0 0 0 0 0 0 0 0 0 0.306667 0 0 0 0 0.766667 0 0 0 0.4 0"/>
<feBlend mode="normal" in2="BackgroundImageFix" result="effect1_dropShadow_5943_70"/>
<feBlend mode="normal" in="SourceGraphic" in2="effect1_dropShadow_5943_70" result="shape"/>
<feColorMatrix in="SourceAlpha" type="matrix" values="0 0 0 0 0 0 0 0 0 0 0 0 0 0 0 0 0 0 127 0" result="hardAlpha"/>
<feOffset dx="-0.0521864" dy="0.104373"/>
<feGaussianBlur stdDeviation="0.0260931"/>
<feComposite in2="hardAlpha" operator="arithmetic" k2="-1" k3="1"/>
<feColorMatrix type="matrix" values="0 0 0 0 1 0 0 0 0 1 0 0 0 0 1 0 0 0 1 0"/>
<feBlend mode="normal" in2="shape" result="effect2_innerShadow_5943_70"/>
<feColorMatrix in="SourceAlpha" type="matrix" values="0 0 0 0 0 0 0 0 0 0 0 0 0 0 0 0 0 0 127 0" result="hardAlpha"/>
<feOffset dx="0.0521864" dy="-0.0260931"/>
<feGaussianBlur stdDeviation="0.0626237"/>
<feComposite in2="hardAlpha" operator="arithmetic" k2="-1" k3="1"/>
<feColorMatrix type="matrix" values="0 0 0 0 0.459242 0 0 0 0 0.595332 0 0 0 0 0.859505 0 0 0 1 0"/>
<feBlend mode="normal" in2="effect2_innerShadow_5943_70" result="effect3_innerShadow_5943_70"/>
<feColorMatrix in="SourceAlpha" type="matrix" values="0 0 0 0 0 0 0 0 0 0 0 0 0 0 0 0 0 0 127 0" result="hardAlpha"/>
<feOffset dx="0.0521864" dy="-0.0521864"/>
<feGaussianBlur stdDeviation="0.0260931"/>
<feComposite in2="hardAlpha" operator="arithmetic" k2="-1" k3="1"/>
<feColorMatrix type="matrix" values="0 0 0 0 0.639216 0 0 0 0 0.803373 0 0 0 0 0.996078 0 0 0 1 0"/>
<feBlend mode="normal" in2="effect3_innerShadow_5943_70" result="effect4_innerShadow_5943_70"/>
<feColorMatrix in="SourceAlpha" type="matrix" values="0 0 0 0 0 0 0 0 0 0 0 0 0 0 0 0 0 0 127 0" result="hardAlpha"/>
<feOffset dx="-0.0521864" dy="-0.0521864"/>
<feGaussianBlur stdDeviation="0.0521864"/>
<feComposite in2="hardAlpha" operator="arithmetic" k2="-1" k3="1"/>
<feColorMatrix type="matrix" values="0 0 0 0 0.269229 0 0 0 0 0.530029 0 0 0 0 0.770768 0 0 0 1 0"/>
<feBlend mode="normal" in2="effect4_innerShadow_5943_70" result="effect5_innerShadow_5943_70"/>
<feColorMatrix in="SourceAlpha" type="matrix" values="0 0 0 0 0 0 0 0 0 0 0 0 0 0 0 0 0 0 127 0" result="hardAlpha"/>
<feOffset dx="-0.0521864" dy="0.0521864"/>
<feGaussianBlur stdDeviation="0.0521864"/>
<feComposite in2="hardAlpha" operator="arithmetic" k2="-1" k3="1"/>
<feColorMatrix type="matrix" values="0 0 0 0 1 0 0 0 0 1 0 0 0 0 1 0 0 0 1 0"/>
<feBlend mode="normal" in2="effect5_innerShadow_5943_70" result="effect6_innerShadow_5943_70"/>
</filter>
<linearGradient id="paint0_linear_5943_70" x1="68.5664" y1="21.8134" x2="73.7215" y2="11.5566" gradientUnits="userSpaceOnUse">
<stop stop-color="#8E7BFF"/>
<stop offset="1" stop-color="#92DB67"/>
</linearGradient>
<radialGradient id="paint1_radial_5943_70" cx="0" cy="0" r="1" gradientUnits="userSpaceOnUse" gradientTransform="translate(50.7941 0.858882) scale(28.1876 28.9576)">
<stop stop-color="#DE95FB"/>
<stop offset="0.39" stop-color="#C348F9"/>
<stop offset="1" stop-color="#43319A"/>
</radialGradient>
<linearGradient id="paint2_linear_5943_70" x1="58.9191" y1="13.4218" x2="60.2259" y2="19.7316" gradientUnits="userSpaceOnUse">
<stop offset="0.04" stop-color="white"/>
<stop offset="1" stop-color="#D8E5FF"/>
</linearGradient>
</defs>
</svg>
