<svg xmlns="http://www.w3.org/2000/svg" width="24" height="24" viewBox="0 0 24 24" fill="none"><rect width="24" height="24" fill="none"/>
<path d="M23 6C17.7436 9.13102 11.9236 11.7507 7.36958 13.568C7.36715 14.9264 6.7483 16.4799 4.8895 17.971C8.07741 17.5689 12.5702 13.0122 23 6Z" fill="black"/>
<path d="M23 6C19.2077 8.05105 10.0755 9.6219 5.98343 10.1509C6.63917 10.8331 7.37223 12.0841 7.36958 13.568C11.9236 11.7507 17.7436 9.13102 23 6Z" fill="black"/>
<path d="M1 15.889C2.31026 17.5059 3.47063 18.15 4.8895 17.971C6.7483 16.4799 7.36715 14.9264 7.36958 13.568C4.6786 14.6419 2.4296 15.4355 1 15.889Z" fill="black" fill-opacity="0.6"/>
</svg>
