<svg xmlns="http://www.w3.org/2000/svg" width="66" height="24" viewBox="0 0 66 24" fill="none"><rect width="66" height="24" fill="none"/>
<path d="M55.3154 4.51354L55.3239 4.50842L57.3654 4.59302L57.3564 4.59814V8.34197L61.7025 10.8513L59.6653 12.0318L55.3154 9.52039V4.51354Z" fill="url(#paint0_linear_3891_218)"/>
<path d="M63.9956 4.50343V4.51366L62.9015 6.239V6.2288L59.6596 4.35689L56.4172 6.2288L55.3156 6.81157L55.3135 4.50901L55.323 4.50343L59.6596 2L63.9956 4.50343Z" fill="url(#paint1_linear_3891_218)"/>
<path d="M61.7007 10.8424L59.6582 9.66327L59.6672 9.66837L61.9618 8.34338V4.59957L61.9676 3.33215L63.9926 4.50147L64.0027 4.50736L64.0033 9.52185L61.7007 10.8424Z" fill="url(#paint2_linear_3891_218)"/>
<path d="M2 19.7863V11.7983H5.74292C6.70146 11.7983 7.43182 11.9886 7.9339 12.3689C8.43597 12.7417 8.68701 13.2438 8.68701 13.8752C8.68701 14.3012 8.58813 14.6664 8.39031 14.9707C8.19254 15.2674 7.9263 15.4994 7.59158 15.6668C7.26441 15.8266 6.90689 15.9064 6.5189 15.9064L6.72427 15.4956C7.17313 15.4956 7.57632 15.5793 7.9339 15.7467C8.29142 15.9064 8.57292 16.1423 8.77835 16.4542C8.99132 16.7661 9.09786 17.1541 9.09786 17.6181C9.09786 18.3028 8.83539 18.8354 8.31046 19.2157C7.78557 19.5961 7.00577 19.7863 5.9711 19.7863H2ZM3.48348 18.6224H5.87982C6.43522 18.6224 6.86122 18.5311 7.15792 18.3485C7.45463 18.1659 7.60296 17.873 7.60296 17.4698C7.60296 17.0742 7.45463 16.7851 7.15792 16.6025C6.86122 16.4123 6.43522 16.3172 5.87982 16.3172H3.36939V15.1647H5.58317C6.10045 15.1647 6.49604 15.0734 6.76994 14.8908C7.05138 14.7082 7.19216 14.4343 7.19216 14.0692C7.19216 13.6964 7.05138 13.4188 6.76994 13.2362C6.49604 13.0536 6.10045 12.9623 5.58317 12.9623H3.48348V18.6224Z" fill="white"/>
<path d="M13.4084 19.8661C12.7313 19.8661 12.1379 19.7329 11.6282 19.4666C11.1261 19.1928 10.7343 18.82 10.4528 18.3483C10.1789 17.8767 10.042 17.3403 10.042 16.7394C10.042 16.1307 10.1751 15.5944 10.4414 15.1304C10.7153 14.6586 11.088 14.2897 11.5597 14.0234C12.039 13.7572 12.5829 13.624 13.1915 13.624C13.7849 13.624 14.3136 13.7534 14.7777 14.012C15.2418 14.2707 15.6069 14.6358 15.8732 15.1076C16.1394 15.5792 16.2726 16.1345 16.2726 16.7736C16.2726 16.8344 16.2688 16.9029 16.2612 16.979C16.2612 17.055 16.2573 17.1273 16.2498 17.1958H11.1717V16.2487H15.4966L14.9374 16.5454C14.945 16.1954 14.8728 15.8873 14.7206 15.621C14.5685 15.3548 14.3593 15.1456 14.093 14.9934C13.8344 14.8413 13.5339 14.7652 13.1915 14.7652C12.8416 14.7652 12.5334 14.8413 12.2672 14.9934C12.0086 15.1456 11.8031 15.3586 11.651 15.6324C11.5064 15.8987 11.4342 16.2144 11.4342 16.5796V16.8078C11.4342 17.173 11.5179 17.4963 11.6852 17.7777C11.8526 18.0592 12.0884 18.2761 12.3927 18.4282C12.697 18.5804 13.047 18.6564 13.4426 18.6564C13.7849 18.6564 14.093 18.6032 14.3668 18.4967C14.6407 18.3902 14.8842 18.2228 15.0972 17.9945L15.8618 18.8732C15.5879 19.1928 15.2418 19.44 14.8233 19.615C14.4125 19.7824 13.9408 19.8661 13.4084 19.8661Z" fill="white"/>
<path d="M19.5252 19.8661C19.0155 19.8661 18.5248 19.8014 18.0532 19.6721C17.5891 19.5351 17.2201 19.3715 16.9463 19.1814L17.494 18.0973C17.7679 18.2723 18.095 18.4168 18.4754 18.5309C18.8558 18.645 19.2361 18.7021 19.6165 18.7021C20.0654 18.7021 20.3887 18.6412 20.5865 18.5195C20.7919 18.3978 20.8946 18.2342 20.8946 18.0288C20.8946 17.8614 20.8262 17.7359 20.6892 17.6522C20.5523 17.5609 20.3735 17.4925 20.1528 17.4469C19.9322 17.4012 19.685 17.3593 19.4111 17.3213C19.1449 17.2833 18.8748 17.2338 18.6009 17.173C18.3347 17.1045 18.0912 17.0094 17.8706 16.8877C17.65 16.7583 17.4712 16.5871 17.3343 16.3742C17.1973 16.1612 17.1289 15.8797 17.1289 15.5297C17.1289 15.1417 17.2392 14.807 17.4598 14.5256C17.6804 14.2364 17.9885 14.0158 18.3841 13.8637C18.7873 13.7039 19.2628 13.624 19.8105 13.624C20.2213 13.624 20.6359 13.6697 21.0543 13.761C21.4728 13.8523 21.8189 13.9816 22.0928 14.149L21.545 15.2331C21.256 15.0581 20.9631 14.9401 20.6664 14.8793C20.3773 14.8108 20.0882 14.7766 19.7991 14.7766C19.3655 14.7766 19.0422 14.8413 18.8291 14.9706C18.6238 15.0999 18.521 15.2635 18.521 15.4612C18.521 15.6438 18.5895 15.7808 18.7264 15.872C18.8634 15.9634 19.0422 16.0356 19.2628 16.0889C19.4834 16.1422 19.7268 16.1878 19.9931 16.2258C20.267 16.2563 20.5371 16.3057 20.8033 16.3742C21.0695 16.4426 21.313 16.5378 21.5336 16.6594C21.7618 16.7736 21.9445 16.9371 22.0814 17.1501C22.2183 17.3632 22.2868 17.6408 22.2868 17.9832C22.2868 18.3636 22.1727 18.6945 21.9445 18.9759C21.7238 19.2574 21.4081 19.4781 20.9973 19.6378C20.5865 19.7899 20.0958 19.8661 19.5252 19.8661Z" fill="white"/>
<path d="M25.8089 19.8663C25.1394 19.8663 24.6222 19.6951 24.257 19.3528C23.8918 19.0028 23.7092 18.4893 23.7092 17.8122V12.3462H25.1357V17.778C25.1357 18.0671 25.2079 18.2915 25.3525 18.4513C25.5046 18.611 25.7139 18.6909 25.9801 18.6909C26.2996 18.6909 26.566 18.6073 26.7792 18.4398L27.1784 19.4555C27.011 19.5924 26.8057 19.6951 26.5623 19.7636C26.3187 19.832 26.0676 19.8663 25.8089 19.8663ZM22.7051 14.8795V13.7384H26.7675V14.8795H22.7051Z" fill="white"/>
<path d="M31.7281 19.8661C31.2336 19.8661 30.7812 19.752 30.3703 19.5237C29.9673 19.2955 29.6441 18.9531 29.4006 18.4967C29.1645 18.0326 29.0465 17.4469 29.0465 16.7394C29.0465 16.0242 29.1608 15.4384 29.3889 14.982C29.6249 14.5256 29.9444 14.187 30.3474 13.9664C30.7509 13.7382 31.2108 13.624 31.7281 13.624C32.3293 13.624 32.8578 13.7534 33.3145 14.012C33.7786 14.2707 34.1438 14.6321 34.4102 15.0961C34.684 15.5602 34.8206 16.1079 34.8206 16.7394C34.8206 17.3707 34.684 17.9223 34.4102 18.394C34.1438 18.858 33.7786 19.2194 33.3145 19.4781C32.8578 19.7367 32.3293 19.8661 31.7281 19.8661ZM28.3506 22V13.6925H29.7084V15.1304L29.6627 16.7507L29.777 18.3712V22H28.3506ZM31.5686 18.645C31.9109 18.645 32.215 18.569 32.4814 18.4168C32.7552 18.2647 32.9721 18.044 33.1321 17.7549C33.2916 17.4659 33.3713 17.1273 33.3713 16.7394C33.3713 16.3438 33.2916 16.0052 33.1321 15.7237C32.9721 15.4347 32.7552 15.214 32.4814 15.0619C32.215 14.9097 31.9109 14.8337 31.5686 14.8337C31.2262 14.8337 30.9179 14.9097 30.6441 15.0619C30.3703 15.214 30.1534 15.4347 29.9939 15.7237C29.8338 16.0052 29.7541 16.3438 29.7541 16.7394C29.7541 17.1273 29.8338 17.4659 29.9939 17.7549C30.1534 18.044 30.3703 18.2647 30.6441 18.4168C30.9179 18.569 31.2262 18.645 31.5686 18.645Z" fill="white"/>
<path d="M36.1738 19.7863V11.3191H37.6002V19.7863H36.1738Z" fill="white"/>
<path d="M43.2263 19.7862V18.5537L43.146 18.2912V16.1345C43.146 15.7161 43.0206 15.3928 42.7696 15.1646C42.5182 14.9287 42.1381 14.8108 41.6287 14.8108C41.2864 14.8108 40.9477 14.8641 40.6128 14.9706C40.2853 15.0771 40.0078 15.2254 39.7797 15.4156L39.2204 14.3772C39.5479 14.1262 39.9355 13.9398 40.3847 13.818C40.8409 13.6887 41.3124 13.624 41.7994 13.624C42.6819 13.624 43.3629 13.837 43.8425 14.2631C44.3289 14.6815 44.5724 15.332 44.5724 16.2144V19.7862H43.2263ZM41.3087 19.8661C40.852 19.8661 40.4528 19.7899 40.1104 19.6378C39.768 19.4781 39.5022 19.2613 39.3119 18.9874C39.1295 18.7059 39.0381 18.3902 39.0381 18.0402C39.0381 17.6979 39.1178 17.3898 39.2779 17.1159C39.4448 16.8421 39.7149 16.6252 40.0881 16.4655C40.4607 16.3057 40.9552 16.2258 41.5713 16.2258H43.3401V17.173H41.6745C41.187 17.173 40.86 17.2529 40.6925 17.4126C40.5256 17.5648 40.4416 17.7549 40.4416 17.9832C40.4416 18.2419 40.5442 18.4472 40.7494 18.5994C40.9552 18.7515 41.2401 18.8276 41.6054 18.8276C41.9557 18.8276 42.2672 18.7477 42.5416 18.588C42.8228 18.4282 43.0243 18.1924 43.146 17.8805L43.3858 18.7363C43.2486 19.0939 43.0014 19.3715 42.6442 19.5694C42.2938 19.7671 41.8494 19.8661 41.3087 19.8661Z" fill="white"/>
<path d="M49.2113 19.8661C48.5723 19.8661 48.0013 19.7329 47.4995 19.4666C47.0045 19.1928 46.617 18.82 46.3352 18.3483C46.054 17.8767 45.9131 17.3403 45.9131 16.7394C45.9131 16.1307 46.054 15.5944 46.3352 15.1304C46.617 14.6586 47.0045 14.2897 47.4995 14.0234C48.0013 13.7572 48.5723 13.624 49.2113 13.624C49.8041 13.624 50.3251 13.7458 50.7744 13.9892C51.2305 14.225 51.5771 14.575 51.8126 15.0391L50.7175 15.678C50.5346 15.389 50.3102 15.176 50.0439 15.0391C49.7855 14.9021 49.5037 14.8337 49.1996 14.8337C48.8498 14.8337 48.534 14.9097 48.2523 15.0619C47.971 15.214 47.7504 15.4347 47.5904 15.7237C47.4309 16.0052 47.3506 16.3438 47.3506 16.7394C47.3506 17.1349 47.4309 17.4773 47.5904 17.7664C47.7504 18.0479 47.971 18.2647 48.2523 18.4168C48.534 18.569 48.8498 18.645 49.1996 18.645C49.5037 18.645 49.7855 18.5766 50.0439 18.4396C50.3102 18.3027 50.5346 18.0897 50.7175 17.8006L51.8126 18.4396C51.5771 18.8961 51.2305 19.2498 50.7744 19.5009C50.3251 19.7443 49.8041 19.8661 49.2113 19.8661Z" fill="white"/>
<path d="M55.8214 19.8661C55.1446 19.8661 54.5513 19.7329 54.0415 19.4666C53.5391 19.1928 53.1478 18.82 52.866 18.3483C52.5922 17.8767 52.4551 17.3403 52.4551 16.7394C52.4551 16.1307 52.5885 15.5944 52.8543 15.1304C53.1287 14.6586 53.5013 14.2897 53.9729 14.0234C54.4524 13.7572 54.9963 13.624 55.6045 13.624C56.1983 13.624 56.7268 13.7534 57.1909 14.012C57.655 14.2707 58.0202 14.6358 58.2866 15.1076C58.5529 15.5792 58.6858 16.1345 58.6858 16.7736C58.6858 16.8344 58.6821 16.9029 58.6747 16.979C58.6747 17.055 58.6709 17.1273 58.663 17.1958H53.5848V16.2487H57.9102L57.3509 16.5454C57.3583 16.1954 57.286 15.8873 57.134 15.621C56.9819 15.3548 56.7725 15.1456 56.5061 14.9934C56.2478 14.8413 55.9469 14.7652 55.6045 14.7652C55.2547 14.7652 54.9468 14.8413 54.6805 14.9934C54.4221 15.1456 54.2164 15.3586 54.0643 15.6324C53.9197 15.8987 53.848 16.2144 53.848 16.5796V16.8078C53.848 17.173 53.9309 17.4963 54.0984 17.7777C54.2658 18.0592 54.5019 18.2761 54.806 18.4282C55.1106 18.5804 55.4604 18.6564 55.8559 18.6564C56.1983 18.6564 56.5061 18.6032 56.7805 18.4967C57.0543 18.3902 57.2977 18.2228 57.5109 17.9945L58.2749 18.8732C58.0011 19.1928 57.655 19.44 57.2366 19.615C56.8262 19.7824 56.3541 19.8661 55.8214 19.8661Z" fill="white"/>
<defs>
<linearGradient id="paint0_linear_3891_218" x1="58.2693" y1="2" x2="59.2467" y2="8.55953" gradientUnits="userSpaceOnUse">
<stop stop-color="white" stop-opacity="0"/>
<stop offset="1" stop-color="white"/>
</linearGradient>
<linearGradient id="paint1_linear_3891_218" x1="63.2246" y1="5.88847" x2="57.6426" y2="5.73237" gradientUnits="userSpaceOnUse">
<stop stop-color="white" stop-opacity="0"/>
<stop offset="1" stop-color="white"/>
</linearGradient>
<linearGradient id="paint2_linear_3891_218" x1="60.3824" y1="11.5632" x2="63.6479" y2="4.30396" gradientUnits="userSpaceOnUse">
<stop stop-color="white" stop-opacity="0"/>
<stop offset="1" stop-color="white"/>
</linearGradient>
</defs>
</svg>
