<svg xmlns="http://www.w3.org/2000/svg" width="16" height="16" viewBox="0 0 16 16" fill="none"><rect width="16" height="16" fill="none"/>
<g clip-path="url(#clip0_10859_88)">
<path d="M8.17189 15.9543C6.60169 15.9543 5.87199 15.7241 4.60362 14.8032C3.80132 15.8392 1.26075 16.6489 1.14995 15.2637C1.14995 14.2239 0.92072 13.3452 0.660929 12.3859C0.351482 11.2041 0 9.888 0 7.98102C0 3.42646 3.72111 0 8.12987 0C12.5424 0 16 3.59529 16 8.02321C16.0148 12.3827 12.5125 15.9311 8.17189 15.9543ZM8.23684 3.93678C6.08977 3.82551 4.41641 5.31812 4.04583 7.6587C3.7402 9.59641 4.2827 11.9562 4.74497 12.079C4.96655 12.1327 5.52434 11.6799 5.87199 11.3307C6.44687 11.7296 7.11631 11.9691 7.81279 12.0252C10.0375 12.1327 11.9385 10.4317 12.0878 8.19974C12.1748 5.96306 10.4619 4.06863 8.23684 3.94063V3.93678Z" fill="#000000"/>
</g>
<defs>
<clipPath id="clip0_10859_88">
<rect width="16" height="16" fill="white"/>
</clipPath>
</defs>
</svg>
