<svg xmlns="http://www.w3.org/2000/svg" width="24" height="24" viewBox="0 0 24 24" fill="none"><rect width="24" height="24" fill="none"/>
<path d="M2.96862 11.3255C2.79852 11.3255 2.6413 11.2843 2.49697 11.2018C2.3578 11.1193 2.24698 11.0085 2.1645 10.8693C2.08203 10.725 2.04079 10.5678 2.04079 10.3977V6.68637C2.04079 6.51627 2.08203 6.36164 2.1645 6.22246C2.24698 6.07813 2.3578 5.96473 2.49697 5.88226C2.6413 5.79979 2.79852 5.75855 2.96862 5.75855H7.59226V6.38483H2.96862C2.88614 6.38483 2.81398 6.41576 2.75213 6.47761C2.69543 6.53431 2.66707 6.6039 2.66707 6.68637V10.3977C2.66707 10.4801 2.69543 10.5523 2.75213 10.6142C2.81398 10.6709 2.88614 10.6992 2.96862 10.6992H7.59226V11.3255H2.96862Z" fill="white"/>
<path d="M9.30305 11.3255C9.13295 11.3255 8.97574 11.2843 8.83141 11.2018C8.69223 11.1142 8.57883 11.0008 8.49121 10.8616C8.40873 10.7173 8.3675 10.56 8.3675 10.3899V8.76626H12.2953V7.77658C12.2953 7.69411 12.2644 7.62452 12.2025 7.56782C12.1458 7.50597 12.0762 7.47504 11.9937 7.47504H8.3675V6.84102H11.9937C12.169 6.84102 12.3262 6.88483 12.4654 6.97246C12.6097 7.05493 12.7231 7.16834 12.8056 7.31266C12.8932 7.45184 12.937 7.60648 12.937 7.77658V11.3255H9.30305ZM9.30305 10.6915H12.2953V9.40027H9.00151V10.3899C9.00151 10.4724 9.02986 10.5446 9.08656 10.6064C9.14841 10.6631 9.22058 10.6915 9.30305 10.6915Z" fill="white"/>
<path d="M13.6982 11.3255V7.77658C13.6982 7.60648 13.7395 7.45184 13.822 7.31266C13.9096 7.16834 14.023 7.05493 14.1622 6.97246C14.3065 6.88483 14.4637 6.84102 14.6338 6.84102H17.1544V7.47504H14.6338C14.5513 7.47504 14.4792 7.50597 14.4173 7.56782C14.3606 7.62452 14.3323 7.69411 14.3323 7.77658V11.3255H13.6982Z" fill="white"/>
<path d="M18.3739 11.3255C18.1986 11.3255 18.0388 11.2842 17.8945 11.2018C17.7553 11.1141 17.6419 11.0007 17.5543 10.8616C17.4718 10.7172 17.4306 10.56 17.4306 10.3899V7.77656C17.4306 7.60646 17.4718 7.45182 17.5543 7.31264C17.6419 7.16832 17.7553 7.05492 17.8945 6.97244C18.0388 6.88482 18.1986 6.841 18.3739 6.841H21.3661V5.37195H22.0001V11.3255H18.3739ZM18.3739 10.6915H21.0645C21.147 10.6915 21.2166 10.6631 21.2733 10.6064C21.3352 10.5446 21.3661 10.4724 21.3661 10.3899V7.77656C21.3661 7.69409 21.3352 7.6245 21.2733 7.5678C21.2166 7.50595 21.147 7.47502 21.0645 7.47502H18.3739C18.2914 7.47502 18.2192 7.50595 18.1574 7.5678C18.1007 7.6245 18.0723 7.69409 18.0723 7.77656V10.3899C18.0723 10.4724 18.1007 10.5446 18.1574 10.6064C18.2192 10.6631 18.2914 10.6915 18.3739 10.6915Z" fill="white"/>
<path d="M2.93549 18.6278C2.76539 18.6278 2.60824 18.5866 2.46391 18.5041C2.32474 18.4165 2.21134 18.3031 2.12371 18.1639C2.04124 18.0196 2 17.8623 2 17.6922V12.6743H2.63401V17.6922C2.63401 17.7747 2.66236 17.8469 2.719 17.9087C2.78085 17.9654 2.85302 17.9938 2.93549 17.9938H3.69321V18.6278H2.93549Z" fill="white"/>
<path d="M4.33315 18.6278V14.1433H4.96716V18.6278H4.33315ZM4.33315 13.3083V12.6743H4.96716V13.3083H4.33315Z" fill="white"/>
<path d="M6.84616 18.6278C6.67606 18.6278 6.51884 18.5866 6.37451 18.5041C6.23534 18.4165 6.12194 18.3031 6.03431 18.1639C5.95184 18.0196 5.9106 17.8624 5.9106 17.6923V17.6304H6.54461V17.6923C6.54461 17.7747 6.57296 17.8469 6.62967 17.9087C6.69152 17.9654 6.76368 17.9938 6.84616 17.9938H9.53684C9.61932 17.9938 9.6889 17.9654 9.7456 17.9087C9.80746 17.8469 9.83839 17.7747 9.83839 17.6923V17.0041C9.83839 16.9216 9.80746 16.8521 9.7456 16.7954C9.6889 16.7335 9.61932 16.7026 9.53684 16.7026H6.84616C6.67606 16.7026 6.51884 16.6613 6.37451 16.5789C6.23534 16.4912 6.12194 16.3778 6.03431 16.2387C5.95184 16.0943 5.9106 15.9371 5.9106 15.767V15.0789C5.9106 14.9088 5.95184 14.7541 6.03431 14.615C6.12194 14.4706 6.23534 14.3572 6.37451 14.2748C6.51884 14.1871 6.67606 14.1433 6.84616 14.1433H9.53684C9.7121 14.1433 9.86931 14.1871 10.0085 14.2748C10.1528 14.3572 10.2662 14.4706 10.3487 14.615C10.4363 14.7541 10.4801 14.9088 10.4801 15.0789V15.1407H9.83839V15.0789C9.83839 14.9964 9.80746 14.9268 9.7456 14.8701C9.6889 14.8083 9.61932 14.7773 9.53684 14.7773H6.84616C6.76368 14.7773 6.69152 14.8083 6.62967 14.8701C6.57296 14.9268 6.54461 14.9964 6.54461 15.0789V15.767C6.54461 15.8495 6.57296 15.9217 6.62967 15.9835C6.69152 16.0402 6.76368 16.0686 6.84616 16.0686H9.53684C9.7121 16.0686 9.86931 16.1124 10.0085 16.2C10.1528 16.2825 10.2662 16.3959 10.3487 16.5402C10.4363 16.6794 10.4801 16.834 10.4801 17.0041V17.6923C10.4801 17.8624 10.4363 18.0196 10.3487 18.1639C10.2662 18.3031 10.1528 18.4165 10.0085 18.5041C9.86931 18.5866 9.7121 18.6278 9.53684 18.6278H6.84616Z" fill="white"/>
<path d="M12.1853 18.6278C12.01 18.6278 11.8503 18.5866 11.7059 18.5041C11.5668 18.4165 11.4559 18.3031 11.3735 18.1639C11.291 18.0196 11.2497 17.8623 11.2497 17.6922V12.6743H11.8838V14.1433H13.8245V14.7773H11.8838V17.6922C11.8838 17.7747 11.9121 17.8469 11.9688 17.9087C12.0307 17.9654 12.1028 17.9938 12.1853 17.9938H13.8245V18.6278H12.1853Z" fill="white"/>
</svg>
