<svg xmlns="http://www.w3.org/2000/svg" width="112" height="24" viewBox="0 0 112 24" fill="none"><rect width="112" height="24" fill="none"/>
<path fill-rule="evenodd" clip-rule="evenodd" d="M105.467 16.0445V12.4854H103.852V12.6176C103.824 14.062 103.588 15.1005 103.295 16.0445H105.467ZM108.337 16.0445H109.403L109.337 20H106.694V18.348H102.37L102.323 20H99.6609V16.0445H100.586C101.049 14.7134 101.275 13.4201 101.275 10.6067V10.2103H108.337V16.0445ZM54.7435 9.70996C52.8082 9.70996 51.8924 8.88862 51.6658 7.46309L53.8466 7.15164C53.9505 7.68974 54.2147 8.02956 54.7435 8.02956C55.2723 8.02956 55.5365 7.68974 55.6403 7.15164L57.8211 7.46309C57.5946 8.88862 56.6693 9.70996 54.7435 9.70996ZM44.9349 16.1011C45.9734 16.1011 46.6341 15.2883 46.6341 14.2885C46.6341 13.3076 45.9073 12.4759 44.9065 12.4759C43.8682 12.4759 43.2074 13.2889 43.2074 14.2885C43.2074 15.2696 43.9248 16.1011 44.9349 16.1011ZM44.9349 10.031C47.5309 10.031 49.4096 11.9474 49.4096 14.2885C49.4096 16.6015 47.5214 18.5461 44.9065 18.5461C42.3009 18.5461 40.4223 16.6299 40.4223 14.2885C40.4223 11.9757 42.32 10.031 44.9349 10.031ZM94.157 16.1389C95.0728 16.1389 95.8091 15.3742 95.8091 14.2698C95.8091 13.1936 95.0728 12.4194 94.157 12.4194C93.2225 12.4194 92.4861 13.1745 92.4861 14.298C92.4861 15.3742 93.2225 16.1389 94.157 16.1389ZM95.7526 10.2103H98.6036V18.3479H95.7526V17.2624C95.1955 17.942 94.5064 18.5273 93.2886 18.5273C91.3439 18.5273 89.673 16.9224 89.673 14.2886C89.673 11.6453 91.3439 10.0309 93.2698 10.0309C94.5064 10.0309 95.2239 10.588 95.7526 11.2015V10.2103ZM53.3746 14.3075L56.0935 10.2103H58.7274V18.3479H55.9611V15.6951C55.9611 15.1854 55.9611 14.7134 55.9706 14.2507L53.2519 18.3479H50.618V10.2103H53.3841V12.8254C53.3841 13.2313 53.3841 13.8166 53.3746 14.3075ZM81.4881 11.7774L81.507 10.2103H88.5118V18.348H85.6514V12.4854H84.0087V12.7404C83.9238 17.6588 82.8287 18.4518 81.1011 18.4518C80.8273 18.4518 80.2891 18.4045 79.9304 18.348H76.5414L74.2947 14.8738V18.348H71.4436V10.2103H74.2947V13.3445L76.4753 10.2103H79.7698L76.8623 13.9109L79.8454 18.2535L79.9776 15.7517C80.2891 15.7896 80.3647 15.7896 80.4401 15.7896C80.95 15.7896 81.4786 15.4214 81.4881 11.7774ZM66.1664 15.7991C67.1672 15.7991 67.8563 15.3648 68.432 14.5341L70.6318 16.1389C69.5838 17.5549 68.2621 18.5462 65.9586 18.5462C62.8999 18.5462 60.5589 16.2711 60.5589 13.0613C60.5589 10.0687 62.8812 7.60485 66.1003 7.60485C68.0921 7.60485 69.5459 8.47326 70.575 9.94603L68.4131 11.5225C67.8373 10.7201 67.1481 10.3424 66.2323 10.3424C64.6938 10.3424 63.6269 11.5508 63.6269 13.0613C63.6269 14.7229 64.7409 15.7991 66.1664 15.7991ZM35.9476 7.78418H37.8262L39.8465 18.3479H36.986L36.0609 13.1934L33.4837 18.6973H33.1532L30.5665 13.2408L29.6415 18.3479H26.8L28.8202 7.78418H30.6892C30.6892 7.78418 32.313 11.277 32.6342 11.9473C32.9551 12.6176 33.3231 13.4766 33.3231 13.4766C33.3231 13.4766 33.7952 12.3722 34.0312 11.9002C34.2673 11.4282 35.9476 7.78418 35.9476 7.78418Z" fill="#2855AF"/>
<path fill-rule="evenodd" clip-rule="evenodd" d="M4.82273 19.2084C7.39827 19.2084 9.34551 15.8551 11.0912 12.1942C11.9314 10.4193 12.7148 8.55968 13.4983 6.9831C14.3587 5.23431 15.2412 4 16.321 4C17.2363 4 18.0977 4.73917 18.9549 5.89738C20.7323 8.30203 22.2685 12.3743 22.2685 15.0451C22.2685 17.2825 21.1168 19.2084 18.7566 19.2084H4.82273Z" fill="#64CDFF"/>
<path fill-rule="evenodd" clip-rule="evenodd" d="M11.0912 12.1942C9.32206 8.62758 8.52103 6.01069 6.95625 6.01069C5.98386 6.01069 4.88879 7.03031 3.89754 8.7012C2.83561 10.4743 2 12.9762 2 15.6683C2 17.7942 3.04048 19.2084 4.82273 19.2084C7.39827 19.2084 9.34551 15.8551 11.0912 12.1942Z" fill="#2855AF"/>
</svg>
