<svg xmlns="http://www.w3.org/2000/svg" width="133" height="24" viewBox="0 0 133 24" fill="none"><rect width="133" height="24" fill="none"/>
<path d="M8.61827 10.4357L12.5229 16.2278H10.3369L6.975 11.2875H5.36191V16.2278H3.44728V7.07502H2L2.96485 5.23207H5.36191V9.5839H6.975L10.1711 5.23207H12.342L8.61827 10.4357ZM11.935 12.2631C11.935 11.4062 12.1259 10.6577 12.5078 10.0175C12.8797 9.41869 13.3873 8.95928 14.0305 8.6392C14.6737 8.31912 15.3672 8.15911 16.111 8.15911C16.8748 8.15911 17.5633 8.31398 18.1764 8.62372C18.8196 8.9438 19.3272 9.41869 19.699 10.0485C20.0709 10.668 20.2568 11.4062 20.2568 12.2631C20.2568 13.1304 20.0709 13.879 19.699 14.5088C19.3272 15.1283 18.8196 15.6083 18.1764 15.949C17.5431 16.2795 16.8547 16.4446 16.111 16.4446C15.3773 16.4446 14.6888 16.2795 14.0456 15.949C13.3923 15.6187 12.8747 15.1386 12.4928 14.5088C12.1209 13.8686 11.935 13.1201 11.935 12.2631ZM44.4535 8.40693H46.1571V9.47548C46.4184 9.06251 46.7651 8.74763 47.1973 8.53078C47.6395 8.30364 48.2074 8.19007 48.9008 8.19007C49.6144 8.19007 50.2477 8.35528 50.8004 8.68565C51.3331 9.02635 51.7452 9.51164 52.0366 10.1415C52.3381 10.7609 52.4889 11.4733 52.4889 12.2786C52.4889 13.0943 52.3381 13.817 52.0366 14.4468C51.7452 15.0663 51.3331 15.5464 50.8004 15.8871C50.5492 16.0626 50.2527 16.1917 49.9109 16.2743C49.5793 16.3672 49.2426 16.4137 48.9008 16.4137C48.3079 16.4137 47.8657 16.3672 47.5742 16.2743C46.9712 16.0884 46.544 15.7787 46.2927 15.345V19H44.4535V8.40693ZM21.2367 8.40693H23.0609V11.3804H26.1816V8.40693H27.9907V16.2278H26.1816V12.9291H23.0609V16.2278H21.2367V8.40693ZM28.7897 8.40693H35.8V9.89364H33.2069V16.2278H31.3526V9.89364H28.7897V8.40693ZM38.3176 8.40693C39.0011 10.3273 39.6242 12.227 40.1871 14.1061C40.7197 12.2477 41.3227 10.3479 41.9962 8.40693H43.8354L41.0313 16.3827C40.8001 17.0331 40.579 17.5339 40.368 17.8849C40.1368 18.236 39.8503 18.4992 39.5086 18.6748C39.177 18.8606 38.7348 18.9536 38.1819 18.9536C37.8704 18.9536 37.6995 18.9484 37.6694 18.9381L37.0513 17.4513C37.2423 17.4926 37.4784 17.5132 37.7598 17.5132C38.1015 17.5132 38.378 17.4616 38.589 17.3584C38.78 17.2758 38.9257 17.1622 39.0262 17.0177C39.1267 16.8835 39.2121 16.7131 39.2825 16.5066L36.3879 8.40693H38.3176ZM13.7893 12.2477C13.7893 13.1046 13.9903 13.7602 14.3923 14.2145C14.7944 14.6585 15.3522 14.8804 16.0658 14.8804C16.7894 14.8804 17.3522 14.6585 17.7542 14.2145C18.1663 13.7602 18.3723 13.1046 18.3723 12.2477C18.3723 11.4114 18.1713 10.7816 17.7693 10.3583C17.3673 9.9246 16.7994 9.70781 16.0658 9.70781C15.3421 9.70781 14.7793 9.9246 14.3772 10.3583C13.9853 10.7816 13.7893 11.4114 13.7893 12.2477ZM46.2475 12.2631C46.2676 13.0375 46.4686 13.657 46.8506 14.1216C47.2325 14.5862 47.7702 14.8185 48.4636 14.8185C49.1572 14.8185 49.6898 14.5862 50.0617 14.1216C50.4436 13.657 50.6396 13.0375 50.6497 12.2631C50.6396 11.4991 50.4436 10.89 50.0617 10.4357C49.6898 9.9711 49.1572 9.73877 48.4636 9.73877C47.7702 9.73877 47.2325 9.96591 46.8506 10.4202C46.4686 10.8745 46.2676 11.4888 46.2475 12.2631Z" fill="#000000"/>
<path d="M64.1345 5V14.7877H65.4137V18.2668H64.0742V15.9784H56.0365V18.2668H54.6817V14.7877H55.5699C56.1919 13.9321 56.5781 12.7416 56.7285 11.2159C56.7888 10.5047 56.8241 9.79337 56.8339 9.08208L56.8643 5H64.1345ZM62.7493 6.19061H58.1436L58.1137 9.20579C58.1034 10.5974 58.0029 11.7417 57.8122 12.6385C57.6216 13.525 57.351 14.2414 56.9996 14.7877H62.7493V6.19061ZM73.7936 14.6177C73.2618 15.1847 72.73 15.5918 72.1982 15.8392C71.6664 16.0763 71.0445 16.1948 70.3318 16.1948C69.529 16.1948 68.8315 16.0247 68.2394 15.6846C67.6376 15.3444 67.1709 14.8651 66.8396 14.2466C66.5088 13.6281 66.3431 12.9065 66.3431 12.0818C66.3431 11.2984 66.5034 10.5871 66.8249 9.948C67.1557 9.31918 67.6126 8.82952 68.1943 8.47909C68.7864 8.1286 69.4741 7.95333 70.2563 7.95333C71.3606 7.95333 72.2183 8.28836 72.8305 8.95842C73.4525 9.62843 73.7637 10.551 73.7637 11.7262C73.7637 11.7984 73.7534 11.989 73.7333 12.2983H67.6826C67.7326 12.855 67.8581 13.3343 68.0591 13.7363C68.2796 14.159 68.586 14.4888 68.9771 14.7259C69.3687 14.963 69.8402 15.0815 70.3921 15.0815C70.9136 15.0815 71.3753 14.9836 71.7767 14.7877C72.1885 14.5919 72.6045 14.262 73.0261 13.7982L73.7936 14.6177ZM72.5296 11.3242C72.4992 10.6129 72.2786 10.0511 71.8669 9.63875C71.466 9.21611 70.9239 9.00479 70.2416 9.00479C69.5692 9.00479 69.0075 9.21611 68.5556 9.63875C68.1042 10.0511 67.8282 10.6129 67.7277 11.3242H72.5296ZM77.6894 12.5303H76.3798V15.9784H75.0853V8.16984H76.3798V11.4479H77.7046L80.2028 8.16984H81.5879L78.7432 11.9272L81.8286 15.9784H80.3532L77.6894 12.5303ZM82.1681 14.8342C82.3185 14.8754 82.4793 14.896 82.6499 14.896C82.9307 14.896 83.1415 14.8187 83.2822 14.6641C83.4223 14.4991 83.5179 14.2208 83.5679 13.8291C83.6179 13.3859 83.6532 12.8137 83.6733 12.1127L83.7634 8.16984H89.3931V15.9784H88.0987V9.25216H84.9226L84.8471 12.2055C84.8172 13.2673 84.752 14.0456 84.6516 14.5404C84.5413 15.0764 84.3409 15.4629 84.0497 15.7C83.7689 15.9371 83.3419 16.0557 82.7699 16.0557L82.469 16.0247L82.1681 15.9629V14.8342ZM96.163 15.9784V14.9269C95.8919 15.3393 95.5307 15.6588 95.0793 15.8856C94.6274 16.1021 94.1059 16.2103 93.5138 16.2103C92.6708 16.2103 92.0086 16.0145 91.5268 15.6228C91.0553 15.231 90.8196 14.6795 90.8196 13.9682V13.8909C90.8196 13.1075 91.0852 12.5148 91.617 12.1127C92.1591 11.7004 92.9918 11.4633 94.1157 11.4015L96.1027 11.2623V10.7366C96.1027 10.18 95.9468 9.76246 95.6361 9.48412C95.3248 9.19546 94.8734 9.05116 94.2813 9.05116C93.7898 9.05116 93.3432 9.15428 92.9418 9.36041C92.5502 9.55627 92.1488 9.88617 91.7376 10.35L90.9097 9.57692C91.7826 8.49455 92.8967 7.95333 94.2509 7.95333C95.2243 7.95333 95.9821 8.19043 96.5242 8.66463C97.0658 9.13877 97.3368 9.79851 97.3368 10.6438V15.9784H96.163ZM94.2058 12.3447C93.4231 12.3859 92.8712 12.5199 92.5502 12.7467C92.2291 12.9735 92.0689 13.3343 92.0689 13.8291V13.9064C92.0689 14.3084 92.2139 14.6177 92.5051 14.8342C92.806 15.0506 93.2275 15.1589 93.7696 15.1589C94.2009 15.1589 94.5975 15.0712 94.9587 14.896C95.3199 14.7208 95.6008 14.4785 95.8018 14.1692C96.0022 13.8497 96.1027 13.4889 96.1027 13.0869V12.2519L94.2058 12.3447ZM107.004 12.0818C107.004 12.8859 106.854 13.5972 106.553 14.2157C106.241 14.8342 105.805 15.3135 105.243 15.6537C104.681 15.9938 104.039 16.1639 103.316 16.1639C101.962 16.1639 101.009 15.7258 100.457 14.8496V18.7616H99.1625V8.16984H100.366V9.54595C100.958 8.49455 101.947 7.96879 103.332 7.96879C104.034 7.96879 104.666 8.13374 105.228 8.46358C105.79 8.81406 106.227 9.2934 106.537 9.90163C106.849 10.5098 107.004 11.2108 107.004 12.0045V12.0818ZM105.695 12.0045C105.695 11.4272 105.59 10.917 105.379 10.4737C105.158 10.0408 104.847 9.70058 104.446 9.45321C104.054 9.20579 103.607 9.08208 103.106 9.08208C102.594 9.08208 102.133 9.20065 101.721 9.43775C101.299 9.68512 100.974 10.0253 100.743 10.4582C100.512 10.8912 100.397 11.4066 100.397 12.0045V12.0818C100.397 12.9787 100.642 13.7002 101.134 14.2466C101.626 14.7826 102.278 15.0506 103.091 15.0506C103.592 15.0506 104.044 14.9218 104.446 14.6641C104.837 14.4167 105.143 14.0713 105.364 13.6281C105.584 13.1745 105.695 12.6591 105.695 12.0818V12.0045ZM113.42 15.9784V14.9269C113.149 15.3393 112.788 15.6588 112.336 15.8856C111.884 16.1021 111.363 16.2103 110.771 16.2103C109.928 16.2103 109.265 16.0145 108.784 15.6228C108.312 15.231 108.076 14.6795 108.076 13.9682V13.8909C108.076 13.1075 108.342 12.5148 108.874 12.1127C109.416 11.7004 110.249 11.4633 111.372 11.4015L113.36 11.2623V10.7366C113.36 10.18 113.204 9.76246 112.893 9.48412C112.582 9.19546 112.13 9.05116 111.538 9.05116C111.047 9.05116 110.6 9.15428 110.199 9.36041C109.807 9.55627 109.406 9.88617 108.994 10.35L108.167 9.57692C109.039 8.49455 110.154 7.95333 111.508 7.95333C112.481 7.95333 113.239 8.19043 113.781 8.66463C114.323 9.13877 114.594 9.79851 114.594 10.6438V15.9784H113.42ZM111.463 12.3447C110.68 12.3859 110.128 12.5199 109.807 12.7467C109.486 12.9735 109.326 13.3343 109.326 13.8291V13.9064C109.326 14.3084 109.471 14.6177 109.762 14.8342C110.063 15.0506 110.484 15.1589 111.026 15.1589C111.458 15.1589 111.854 15.0712 112.216 14.896C112.577 14.7208 112.858 14.4785 113.059 14.1692C113.259 13.8497 113.36 13.4889 113.36 13.0869V12.2519L111.463 12.3447ZM121.537 15.9784V12.5148H117.728V15.9784H116.434V8.16984H117.728V11.4324H121.537V8.16984H122.831V15.9784H121.537ZM127.961 9.25216V15.9784H126.666V9.25216H124.002V8.16984H130.625V9.25216H127.961Z" fill="#000000" fill-opacity="0.9"/>
</svg>
