<svg xmlns="http://www.w3.org/2000/svg" width="24" height="24" viewBox="0 0 24 24" fill="none"><rect width="24" height="24" fill="none"/>
<path d="M5.23534 8.00384C5.46182 7.97934 6.13954 8.07783 6.36132 8.13763C7.60894 8.47396 8.42548 9.1195 9.08104 10.2021C8.61871 10.6673 8.08551 11.2049 7.60448 11.6454C7.50393 11.2599 7.30846 10.9058 7.03612 10.6152C6.5927 10.1428 5.97699 9.88697 5.333 9.87005C4.68183 9.85367 4.05041 10.0959 3.57714 10.5439C3.13189 10.9689 2.87383 11.5542 2.86034 12.1699C2.84804 12.7703 3.09556 13.3711 3.51073 13.8027C3.96339 14.2683 4.58242 14.5351 5.23144 14.5439C5.70983 14.5481 6.17868 14.4109 6.58007 14.1503C6.90084 13.9395 7.24656 13.5663 7.5244 13.2949L8.65819 12.1913L12.9736 8.00091L13.6933 8.00188L15.667 8.00384C15.0756 8.59279 14.4786 9.17657 13.876 9.75384L10.8769 12.6757L9.07811 14.4267C8.64197 14.8482 8.20282 15.3324 7.69823 15.665C7.07786 16.0737 6.36295 16.3159 5.62206 16.3681C4.46621 16.456 3.3223 16.0814 2.44237 15.3261C1.62536 14.6162 1.08489 13.5898 1.01171 12.5048C0.928313 11.3946 1.29644 10.2978 2.03222 9.46282C2.66723 8.74834 3.52095 8.26435 4.45995 8.08782C4.72741 8.03704 4.96493 8.02208 5.23534 8.00384ZM18.5342 8.00286C18.9534 7.98791 19.3731 8.03199 19.7793 8.1347C20.8862 8.41584 21.8353 9.1163 22.4189 10.0829C22.9857 11.0347 23.1456 12.1687 22.8642 13.2363C22.577 14.315 21.8626 15.2357 20.8808 15.7939C19.8841 16.3628 18.6986 16.5189 17.5849 16.2275C16.3925 15.9189 15.5302 15.2007 14.916 14.1689L16.3926 12.7314C16.5564 13.2483 16.7619 13.6367 17.2012 13.9853C18.2414 14.8108 19.7724 14.6382 20.6113 13.6171C21.4032 12.6526 21.2736 11.1774 20.2861 10.3964C19.8955 10.0345 19.266 9.84005 18.7334 9.83587C17.5854 9.82701 17.0302 10.5271 16.289 11.2568L15.0566 12.4521L11.0312 16.3769C10.7285 16.3862 10.3709 16.3779 10.0635 16.3779L8.333 16.3749L13.4726 11.3681L15.1201 9.76263C15.488 9.40669 15.857 8.99957 16.2881 8.72259C17.0258 8.24848 17.6719 8.06706 18.5342 8.00286Z" fill="white"/>
</svg>
