<svg xmlns="http://www.w3.org/2000/svg" width="24" height="24" viewBox="0 0 24 24" fill="none"><rect width="24" height="24" fill="none"/>
<path d="M18.2162 12C18.2162 15.7206 15.2479 18.4101 12 18.4101C9.47325 18.4101 7.1157 16.7824 6.19335 14.3077L2.64392 15.538L2.64945 15.5526C4.08223 19.3215 7.72835 21.9998 12 21.9998C17.5229 21.9998 22 17.5228 22 12C22 9.35564 20.9736 6.951 19.2973 5.16276L19.2947 5.16509C19.5987 5.48353 19.7838 5.90594 19.7838 6.36937C19.7838 7.36063 18.9368 8.16422 17.8919 8.16422C17.3773 8.16422 16.9106 7.96925 16.5695 7.65295C16.565 7.6487 16.5604 7.64442 16.5559 7.64015L16.5453 7.63009C17.5609 8.74796 18.2162 10.2678 18.2162 12Z" fill="#9980DB"/>
<path fill-rule="evenodd" clip-rule="evenodd" d="M12 5.58991C8.7521 5.58991 5.78378 8.27941 5.78378 12C5.78378 12.8261 5.93011 13.6014 6.19335 14.3077L2.64447 15.5394C2.6084 15.4442 2.57375 15.3482 2.54054 15.2516C2.1902 14.2322 2 13.1383 2 12C2 6.47728 6.47715 2.00024 12 2.00024C14.8181 2.00024 17.364 3.16594 19.1817 5.04145L19.2947 5.16509C19.5987 5.48353 19.7838 5.90594 19.7838 6.36937C19.7838 7.36063 18.9368 8.16422 17.8919 8.16422C17.3773 8.16422 16.9106 7.96925 16.5695 7.65295L16.5559 7.64015L16.413 7.48879C15.257 6.29156 13.671 5.58991 12 5.58991Z" fill="#603AC7"/>
<path d="M4.42238 16.8131C5.45937 16.8131 6.30002 15.9725 6.30002 14.9355C6.30002 13.8985 5.45937 13.0579 4.42238 13.0579C3.38539 13.0579 2.54475 13.8985 2.54475 14.9355C2.54475 15.9725 3.38539 16.8131 4.42238 16.8131Z" fill="white"/>
</svg>
