<svg xmlns="http://www.w3.org/2000/svg" width="148" height="24" viewBox="0 0 148 24" fill="none"><rect width="148" height="24" fill="none"/>
<path d="M7.49755 17.4537V7.76705H6.6272C5.03157 7.76705 4.19345 8.57293 4.19345 9.76562C4.19345 11.1195 4.77368 11.7481 5.96638 12.554L6.94956 13.2148L4.11287 17.4537H2.00146L4.54804 13.6661C3.08134 12.6184 2.25935 11.6031 2.25935 9.87843C2.25935 7.71869 3.75828 6.252 6.61109 6.252H9.44781V17.4537H7.49755ZM33.1084 16.9057C32.5442 17.2926 31.6417 17.6149 30.4167 17.6149C27.9669 17.6149 26.5807 16.2449 26.5807 13.4243C26.5807 10.9744 27.6929 9.18537 30.0299 9.18537C31.9479 9.18537 33.1889 10.2492 33.1889 13.0697V14.0851H28.5632C28.6438 15.439 29.1757 16.0998 30.5779 16.0998C31.5127 16.0998 32.512 15.7452 33.1084 15.3423V16.9057ZM45.0998 17.6149C42.5371 17.6149 41.2961 16.1159 41.2961 13.4082C41.2961 10.9422 42.5694 9.18537 45.0192 9.18537C45.9702 9.18537 46.6794 9.34655 47.0823 9.57224V11.2001C46.6954 10.9583 45.9702 10.7004 45.2287 10.7004C43.9716 10.7004 43.2786 11.6031 43.2786 13.3599C43.2786 15.0361 43.8427 16.0998 45.2126 16.0998C46.0185 16.0998 46.5987 15.8903 47.0823 15.5518V17.1152C46.6149 17.4537 45.9863 17.6149 45.0998 17.6149ZM15.5402 9.34655H17.4582V17.4537H15.5402V14.069H12.9775V17.4537H11.0596V9.34655H12.9775V12.554H15.5402V9.34655ZM26.1133 15.9387V19.3072H24.3404V17.4537H20.037V19.3072H18.2641V15.9387H18.8604C19.5374 14.5848 19.6663 12.0221 19.6663 10.0396V9.34655H25.2591V15.9387H26.1133ZM39.2331 17.4537L36.3964 13.4727V17.4537H34.4784V9.34655H36.3964V13.0859L39.1041 9.34655H41.0382L38.3304 13.0859L41.4089 17.4537H39.2331ZM29.9977 10.7004C29.079 10.7004 28.6116 11.3774 28.5632 12.6668H31.2387V12.5056C31.2387 11.4902 30.9486 10.7004 29.9977 10.7004ZM23.3411 15.9387V10.8616H21.3103V11.1034C21.3103 12.5056 21.1652 14.7137 20.6334 15.9387H23.3411Z" fill="#21201F"/>
<path d="M62.9071 17.9337C60.7724 17.9337 60.3618 16.1029 61.6427 13.5856C62.8907 11.0519 65.2221 9.2048 67.2752 9.2048C69.344 9.2048 69.804 11.0192 68.5227 13.5856C67.2752 16.1193 65.1077 17.9337 62.9071 17.9337ZM60.2469 7.25957C61.0844 7.25957 60.8544 9.2048 59.7707 11.1336H62.0367C64.4996 5.95186 62.6279 3.94126 60.5096 3.94126C57.0776 3.94126 53.2187 7.39034 50.7884 11.8202C48.2432 16.4626 48.5387 20.0587 51.8066 20.0587C55.5177 20.0587 59.1139 16.7404 61.6591 12.0981H56.8149L55.8625 13.6346H59.0482L59.1631 12.2452C57.6031 14.9587 55.7968 16.7241 54.7787 16.7241C53.7771 16.7241 54.1711 14.7135 55.7311 12C57.3076 9.27018 59.1631 7.25957 60.2469 7.25957ZM66.5852 13.5692C67.4065 12.1962 67.5046 11.2154 67.0121 11.2154C66.4702 11.2154 65.6002 12.2289 64.7952 13.5692C63.958 14.926 63.8595 15.9068 64.3686 15.9068C64.9102 15.9068 65.7809 14.8933 66.5852 13.5692Z" fill="#21201F"/>
<path d="M138.443 2H79.8739C76.0017 2 72.8627 5.13899 72.8627 9.01113V14.9889C72.8627 18.861 76.0017 22 79.8739 22H138.443C142.315 22 145.454 18.861 145.454 14.9889V9.01113C145.454 5.13899 142.315 2 138.443 2Z" fill="#21201F"/>
<path fill-rule="evenodd" clip-rule="evenodd" d="M102.73 8.81674C103.478 8.81674 104.072 9.14099 104.51 9.78943C104.949 10.4288 105.168 11.2919 105.168 12.3787C105.168 13.5204 104.916 14.4201 104.415 15.0776C103.912 15.7261 103.223 16.0503 102.346 16.0503C101.451 16.0503 100.756 15.685 100.263 14.9543C99.7702 14.2146 99.5234 13.1871 99.5234 11.8719C99.5234 10.5201 99.6196 9.45149 99.8115 8.66605C100.012 7.87147 100.359 7.25953 100.852 6.83027C101.117 6.58367 101.455 6.39187 101.867 6.25487C102.287 6.11787 102.848 6.02197 103.552 5.96717C103.862 5.93064 104.104 5.88954 104.277 5.84387C104.46 5.78907 104.629 5.70231 104.785 5.58357V6.88507C104.538 7.06773 104.154 7.19103 103.633 7.25497C103.186 7.30063 102.825 7.35087 102.551 7.40567C102.286 7.46047 102.067 7.52897 101.893 7.61117C101.729 7.69337 101.583 7.80297 101.455 7.93997C101.245 8.1409 101.076 8.41949 100.948 8.77568C100.83 9.12274 100.747 9.57937 100.701 10.1457C101.095 9.25974 101.77 8.81674 102.73 8.81674ZM102.346 14.8311C103.259 14.8311 103.716 14.0227 103.716 12.4061C103.716 11.6207 103.597 11.0224 103.36 10.6114C103.131 10.2004 102.793 9.99493 102.346 9.99493C101.432 9.99493 100.976 10.7896 100.976 12.3787C100.976 14.0136 101.432 14.8311 102.346 14.8311ZM113.73 16.0503C112.981 16.0503 112.365 15.9224 111.881 15.6667V14.4063C112.136 14.5433 112.42 14.6529 112.73 14.7351C113.05 14.8173 113.351 14.8584 113.634 14.8584C114.027 14.8584 114.342 14.7762 114.58 14.6118C114.817 14.4474 114.936 14.1689 114.936 13.7761C114.936 13.4382 114.831 13.1962 114.621 13.0501C114.42 12.9039 114.095 12.8308 113.648 12.8308H112.895V11.7211H113.648C114.397 11.7211 114.771 11.4061 114.771 10.7759C114.771 10.4379 114.666 10.2004 114.456 10.0634C114.255 9.92643 113.981 9.85793 113.634 9.85793C113.059 9.85793 112.497 10.0087 111.949 10.3101V9.04968C112.223 8.93093 112.529 8.83962 112.867 8.77568C113.214 8.70262 113.552 8.66605 113.881 8.66605C114.593 8.66605 115.146 8.83043 115.538 9.15924C115.94 9.48805 116.141 9.9493 116.141 10.5429C116.141 11.4197 115.74 11.9723 114.936 12.2006C115.867 12.3651 116.333 12.9085 116.333 13.8309C116.333 14.3332 116.219 14.7488 115.991 15.0776C115.762 15.4064 115.451 15.653 115.059 15.8174C114.666 15.9727 114.223 16.0503 113.73 16.0503ZM125.792 16.0503C124.714 16.0503 123.938 15.7307 123.463 15.0913C122.988 14.4429 122.75 13.5296 122.75 12.3514C122.75 11.1823 122.992 10.2781 123.476 9.63874C123.96 8.9903 124.631 8.66605 125.49 8.66605C126.349 8.66605 127.001 9.00855 127.449 9.69355C127.906 10.3786 128.052 11.3969 127.888 12.7486H124.175C124.212 13.4427 124.358 13.9679 124.613 14.3241C124.869 14.6712 125.308 14.8447 125.928 14.8447C126.285 14.8447 126.605 14.7945 126.888 14.6941C127.18 14.5844 127.454 14.4337 127.71 14.2419V15.5023C127.5 15.6576 127.225 15.79 126.888 15.8996C126.55 16.0001 126.184 16.0503 125.792 16.0503ZM125.49 9.83055C124.741 9.83055 124.312 10.4379 124.202 11.6526H126.545C126.573 11.0407 126.495 10.5841 126.312 10.2827C126.13 9.98124 125.855 9.83055 125.49 9.83055ZM129.206 15.0776C129.7 15.7261 130.398 16.0503 131.302 16.0503C131.65 16.0503 131.946 16.0092 132.193 15.927C132.448 15.8448 132.682 15.7444 132.892 15.6256V14.3652C132.663 14.5205 132.44 14.6392 132.22 14.7214C132.001 14.7945 131.741 14.831 131.439 14.831C130.9 14.831 130.512 14.6256 130.275 14.2146C130.046 13.7944 129.932 13.1733 129.932 12.3514C129.932 11.5294 130.051 10.9129 130.288 10.5019C130.526 10.0909 130.928 9.88537 131.494 9.88537C131.759 9.88537 132.001 9.92187 132.22 9.99493C132.44 10.068 132.663 10.1776 132.892 10.3237V9.07705C132.709 8.9583 132.485 8.86243 132.22 8.78937C131.965 8.70718 131.672 8.66605 131.343 8.66605C130.43 8.66605 129.722 8.99487 129.22 9.65243C128.727 10.3009 128.48 11.2006 128.48 12.3514C128.48 13.5112 128.722 14.4201 129.206 15.0776ZM133.845 10.4059C134.503 10.0589 135.133 9.88537 135.735 9.88537C136.201 9.88537 136.53 9.98124 136.722 10.1731C136.914 10.3557 137.01 10.648 137.01 11.0499V11.6526H136.338C135.388 11.6526 134.671 11.8536 134.188 12.2554C133.713 12.6482 133.475 13.2236 133.475 13.9816C133.475 14.6666 133.648 15.1827 133.996 15.5297C134.352 15.8768 134.781 16.0503 135.283 16.0503C135.768 16.0503 136.151 15.927 136.434 15.6804C136.717 15.4338 136.927 15.1552 137.065 14.8447C137.073 15.0274 137.087 15.2192 137.105 15.4201C137.124 15.6211 137.142 15.7854 137.16 15.9133H138.475C138.457 15.7854 138.443 15.6028 138.435 15.3653C138.425 15.1187 138.421 14.9132 138.421 14.7488V10.8854C138.421 10.1365 138.211 9.57937 137.79 9.21405C137.38 8.84874 136.79 8.66605 136.023 8.66605C135.658 8.66605 135.279 8.71174 134.886 8.80305C134.493 8.88524 134.146 8.99943 133.845 9.14555V10.4059ZM137.01 12.6391V13.2007C137.01 13.3195 136.986 13.4747 136.941 13.6666C136.905 13.8583 136.841 14.0501 136.75 14.2419C136.658 14.4246 136.53 14.5844 136.366 14.7214C136.201 14.8493 136 14.9132 135.763 14.9132C135.471 14.9132 135.247 14.8173 135.091 14.6256C134.945 14.4337 134.872 14.1734 134.872 13.8446C134.872 13.4793 134.986 13.1871 135.215 12.9678C135.452 12.7486 135.845 12.6391 136.393 12.6391H137.01ZM118.452 11.6664V8.80305H117.042V15.9133H118.452V12.8582H120.631V15.9133H122.042V8.80305H120.631V11.6664H118.452ZM107.3 13.5844V8.80305H105.89V15.9133H107.273L109.698 11.1321V15.9133H111.095V8.80305H109.711L107.3 13.5844ZM93.5946 13.1186L92.019 15.9133H93.5396L94.8821 13.4199H95.6771V15.9133H97.0877V8.80305H94.8277C94.0696 8.80305 93.4715 8.99943 93.0327 9.39218C92.5946 9.77574 92.3752 10.3466 92.3752 11.1047C92.3752 11.6527 92.4802 12.0911 92.6902 12.4199C92.9002 12.7395 93.2021 12.9724 93.5946 13.1186ZM94.1152 10.2279C94.3346 10.0361 94.6221 9.94018 94.9784 9.94018H95.6771V12.2829H94.9371C94.5627 12.2829 94.2796 12.1915 94.0877 12.0089C93.8959 11.8171 93.8002 11.5157 93.8002 11.1047C93.8002 10.7028 93.9052 10.4106 94.1152 10.2279ZM86.0746 14.5571C86.3765 14.6027 86.5952 14.5616 86.7321 14.4337C86.8784 14.2967 86.9746 14.0456 87.0202 13.6802C87.0565 13.4336 87.084 13.114 87.1021 12.7212C87.1209 12.3285 87.134 11.8171 87.1434 11.1869C87.1615 10.5476 87.1709 9.75293 87.1709 8.80305H91.4865V15.9133H90.0752V9.99499H88.4177C88.4084 12.2326 88.3534 13.6391 88.2534 14.2146C88.1346 14.8904 87.9015 15.3653 87.5546 15.6393C87.2165 15.9042 86.7234 15.9956 86.0746 15.9133V14.5571ZM79.4746 17.6669H80.6802L80.7759 15.9133H84.6121L84.7077 17.6669H85.9134V14.7214H85.0915V8.80305H80.6934C80.6846 9.98124 80.6665 10.9631 80.639 11.7486C80.6209 12.534 80.5659 13.1642 80.4746 13.6391C80.3834 14.1141 80.2371 14.4749 80.0359 14.7214H79.4746V17.6669ZM81.9402 9.99499H83.6802V14.7214H81.4196C81.5477 14.4931 81.6434 14.1871 81.7077 13.8036C81.7802 13.4199 81.8352 12.9176 81.8721 12.2966C81.9084 11.6755 81.9315 10.9083 81.9402 9.99499Z" fill="white"/>
</svg>
