<svg xmlns="http://www.w3.org/2000/svg" width="87" height="24" viewBox="0 0 87 24" fill="none"><rect width="87" height="24" fill="none"/>
<path d="M44.9124 7.54555C45.0062 7.54555 45.053 7.57665 45.0999 7.7166L47.1939 14.6517C47.2095 14.7294 47.2408 14.745 47.3033 14.745H47.3658C47.4127 14.745 47.444 14.7294 47.4752 14.6517L49.5691 8.30748C49.7567 7.73215 50.0536 7.5611 50.5224 7.5611H51.8037C52.3663 7.5611 52.6476 7.76325 52.8195 8.30748L54.9603 14.6517C54.9916 14.7294 55.0072 14.745 55.0698 14.745H55.1479C55.1947 14.745 55.226 14.7294 55.2573 14.6517L57.3043 7.7166C57.3356 7.57665 57.4137 7.54555 57.5075 7.54555H59.2577C59.3983 7.54555 59.4139 7.6855 59.3671 7.84099L56.8824 15.5847C56.6324 16.3622 56.3823 16.5643 55.8823 16.5643H54.3665C53.8665 16.5643 53.6321 16.3466 53.3664 15.5847L51.3349 9.4737C51.3193 9.4115 51.3037 9.3804 51.2256 9.3804H51.1787C51.1318 9.3804 51.085 9.4115 51.0693 9.4737L49.0066 15.5847C48.7409 16.3466 48.5222 16.5643 48.0065 16.5643H46.5376C45.9594 16.5643 45.6938 16.3777 45.4437 15.5847L43.0685 7.84099C43.0216 7.66995 43.0372 7.54555 43.1779 7.54555H44.9124Z" fill="black"/>
<path d="M67.211 7.54555C67.8674 7.54555 68.2734 7.74769 68.6954 8.52518L72.9773 16.2689C73.0708 16.4399 73.0241 16.5643 72.8211 16.5643H71.1799C71.0083 16.5643 70.9455 16.5332 70.8834 16.3933L69.9613 14.7294H63.8825L62.9918 16.3933C62.9291 16.5176 62.8509 16.5643 62.6947 16.5643H61.0072C60.7884 16.5643 60.7416 16.4399 60.8353 16.2689L65.0857 8.52518C65.5077 7.74769 65.8983 7.54555 66.4452 7.54555H67.211ZM64.7105 13.2523H69.1641L67.1015 9.4737C67.0702 9.4115 67.0234 9.3804 66.9607 9.3804H66.8826C66.8204 9.3804 66.7737 9.4115 66.7423 9.4737L64.7105 13.2523Z" fill="black"/>
<path d="M75.4778 7.54555C75.634 7.54555 75.7122 7.57665 75.7903 7.70105L79.2437 12.3504L82.7284 7.70105C82.8065 7.5922 82.8847 7.54555 83.0409 7.54555H84.7288C84.8697 7.54555 84.9318 7.6855 84.8383 7.8099L80.1971 13.812V16.2844C80.1971 16.471 80.1036 16.5643 79.916 16.5643H78.5252C78.3375 16.5643 78.2281 16.471 78.2281 16.2844V13.812L73.6336 7.8099C73.5401 7.70105 73.6028 7.54555 73.7431 7.54555H75.4778Z" fill="black"/>
<path d="M37.0373 10.7954L39.9282 7.88764C40.0376 7.7788 40.0376 7.54555 39.8032 7.54555H38.1156C37.9124 7.54555 37.803 7.60775 37.6936 7.73215L35.7716 9.6603L37.0373 10.7954Z" fill="#27CEAA"/>
<path d="M40.0996 16.2378L31.8643 7.74769C31.755 7.63884 31.6612 7.56109 31.4424 7.56109H29.6766C29.4422 7.56109 29.4422 7.77878 29.5516 7.90318L33.4114 11.8217L29.1609 16.2222C29.0516 16.331 29.0516 16.5643 29.2703 16.5643H30.958C31.1768 16.5643 31.2706 16.5176 31.3799 16.3777L34.5834 13.0501L37.7868 16.3777C37.8963 16.5021 37.99 16.5643 38.2088 16.5643H39.9746C40.209 16.5643 40.2246 16.3466 40.0996 16.2378Z" fill="black"/>
<path fill-rule="evenodd" clip-rule="evenodd" d="M6.40704 4.02524C6.815 4.08559 7.1474 4.40247 7.22295 4.80989C7.23806 4.88534 7.23806 4.96078 7.23806 5.03623C7.20784 5.3531 7.31361 5.68507 7.54026 5.91141C7.782 6.16794 8.09928 6.4999 8.37129 6.7866C8.64324 7.0733 9.03611 7.2091 9.41382 7.11857C9.58007 7.0733 9.77644 7.0733 9.95778 7.10347C10.5471 7.19401 11.0004 7.67687 11.091 8.25027C11.1212 8.44643 11.1061 8.6275 11.0608 8.80858C10.955 9.2009 11.0456 9.6234 11.3177 9.9101L11.6954 10.3175C11.8163 10.4383 12.0126 10.4835 12.1637 10.4081C12.4055 10.2873 12.6624 10.227 12.9495 10.227C13.2366 10.227 13.4934 10.2873 13.7351 10.4081C13.8862 10.4835 14.0827 10.4533 14.2036 10.3175L14.5813 9.9101C14.8532 9.60832 14.9439 9.2009 14.8382 8.80858C14.7928 8.6275 14.7777 8.44643 14.808 8.25027C14.8835 7.66178 15.3519 7.19401 15.9412 7.10347C16.1376 7.0733 16.3189 7.08839 16.4851 7.11857C16.8628 7.2091 17.2708 7.0733 17.5276 6.7866L18.1471 6.12267C18.4645 5.77561 18.5853 5.44364 18.5249 5.11167C18.5098 5.00605 18.5098 4.90042 18.5249 4.77971C18.6004 4.38738 18.9329 4.07051 19.3257 4.01015C19.9452 3.91961 20.4892 4.44774 20.3985 5.0815C20.3381 5.48891 20.0056 5.83597 19.5977 5.88124C19.5674 5.88124 19.5372 5.88124 19.507 5.89632C19.2048 5.91141 18.9178 6.03213 18.7062 6.24338L17.7543 7.25437C17.5126 7.51089 17.4219 7.85795 17.4823 8.205C17.5126 8.34081 17.5126 8.4917 17.4823 8.6426C17.3917 9.21599 16.9384 9.68377 16.3794 9.7743C16.2434 9.80448 16.1074 9.80448 15.9865 9.78939C15.639 9.74412 15.2764 9.87993 15.0346 10.1364L14.6115 10.5891C14.4302 10.7853 14.4 10.9814 14.4906 11.1324C14.6417 11.3889 14.7173 11.6906 14.7173 12.0075C14.7173 12.3244 14.6417 12.6262 14.4906 12.8827C14.4 13.0336 14.4302 13.2298 14.5511 13.3505L15.0346 13.8635C15.2764 14.12 15.6239 14.2408 15.9865 14.2106C16.1074 14.1955 16.2434 14.1955 16.3794 14.2257C16.9535 14.3162 17.4068 14.784 17.4823 15.3574C17.4975 15.5083 17.4975 15.6592 17.4823 15.795C17.4219 16.1421 17.5126 16.4891 17.7543 16.7456C18.0414 17.0625 18.4191 17.4548 18.7062 17.7566C18.9178 17.9829 19.2048 18.0886 19.507 18.1036C19.5372 18.1036 19.5674 18.1036 19.6128 18.1187C20.0207 18.1791 20.3532 18.5262 20.4136 18.9336C20.4892 19.5522 19.9603 20.0804 19.3408 19.9898C18.9479 19.9295 18.6156 19.6277 18.54 19.2354C18.5249 19.1146 18.5249 19.009 18.54 18.9034C18.6004 18.5714 18.4796 18.2244 18.2378 17.9829L17.5276 17.2285C17.2557 16.9417 16.8628 16.806 16.4851 16.8965C16.3189 16.9417 16.1225 16.9417 15.9412 16.9116C15.3519 16.8211 14.8986 16.3382 14.808 15.7648C14.7777 15.5686 14.7928 15.3876 14.8382 15.2065C14.9439 14.8141 14.8532 14.3917 14.5813 14.1049L14.2036 13.6975C14.0827 13.5768 13.8862 13.5316 13.7351 13.607C13.4934 13.7277 13.2366 13.7881 12.9495 13.7881C12.6775 13.7881 12.4055 13.7277 12.1637 13.607C12.0126 13.5316 11.8163 13.5618 11.6954 13.6975L11.3177 14.1049C11.0456 14.4067 10.955 14.8141 11.0608 15.2065C11.1061 15.3876 11.1212 15.5686 11.091 15.7648C11.0155 16.3533 10.5471 16.8211 9.95778 16.9116C9.76135 16.9417 9.58007 16.9267 9.41382 16.8965C9.03611 16.806 8.62815 16.9417 8.37129 17.2285L7.54026 18.1036C7.31361 18.3451 7.20784 18.662 7.23806 18.9789C7.23806 19.0543 7.23806 19.1297 7.22295 19.2052C7.16251 19.6126 6.83011 19.9446 6.40704 19.9898C5.78755 20.0653 5.25871 19.5371 5.33426 18.9185C5.37959 18.5563 5.74222 18.1791 6.10485 18.1187C6.16529 18.1036 6.22573 18.1036 6.28616 18.1036C6.61857 18.1036 6.93587 17.998 7.16251 17.7566L8.11444 16.7456C8.35614 16.4891 8.44681 16.1421 8.38639 15.795C8.35614 15.6592 8.35614 15.5083 8.38639 15.3574C8.47706 14.784 8.93035 14.3162 9.4894 14.2257C9.62534 14.1955 9.76135 14.1955 9.88226 14.2106C10.2297 14.2559 10.5924 14.12 10.8341 13.8635L11.2572 13.4108C11.4385 13.2147 11.4687 13.0185 11.3781 12.8676C11.227 12.6111 11.1515 12.3093 11.1515 11.9924C11.1515 11.6756 11.227 11.3738 11.3781 11.1173C11.4687 10.9664 11.4385 10.7702 11.3177 10.6495L10.8341 10.1364C10.5924 9.87993 10.2449 9.75921 9.88226 9.78939C9.76135 9.80448 9.62534 9.80448 9.4894 9.7743C8.91519 9.68377 8.46196 9.21599 8.38639 8.6426C8.37129 8.4917 8.37129 8.34081 8.38639 8.205C8.44681 7.85795 8.35614 7.51089 8.11444 7.25437C7.82733 6.95258 7.4496 6.54517 7.16251 6.24338C6.93587 6.00195 6.61857 5.89632 6.28616 5.89632C6.22573 5.89632 6.16529 5.89632 6.10485 5.88124C5.74222 5.82088 5.3947 5.44364 5.33426 5.0815C5.2436 4.46283 5.77244 3.9347 6.40704 4.02524ZM3.91396 8.4917C3.92907 8.31063 3.88374 8.09938 3.76287 7.9183C3.62688 7.70705 3.40024 7.55616 3.15849 7.51089C2.5541 7.39017 2.02527 7.85795 2.02527 8.44643C2.02527 8.47661 2.02527 8.52188 2.02527 8.55206C2.08571 9.01983 2.47856 9.39707 2.96206 9.39707H2.97717C3.32469 9.39707 3.6571 9.53287 3.88374 9.78939L4.86587 10.8306C5.10762 11.0871 5.19827 11.4492 5.12273 11.7963C5.10762 11.8718 5.10762 11.9321 5.10762 12.0075C5.10762 12.083 5.10762 12.1584 5.12273 12.2188C5.18316 12.5659 5.10762 12.928 4.86587 13.1845L3.83842 14.271C3.61177 14.5124 3.29447 14.618 2.96206 14.618C2.90162 14.618 2.84119 14.618 2.78075 14.6331C2.41812 14.6935 2.0706 15.0707 2.01016 15.4329C1.9195 16.0515 2.44834 16.5796 3.08294 16.5042C3.4909 16.4438 3.82331 16.127 3.89885 15.7195C3.91396 15.6441 3.91396 15.5686 3.91396 15.4932C3.88374 15.1763 3.98951 14.8594 4.21616 14.618C4.51835 14.3011 4.9263 13.8635 5.22849 13.5467C5.47025 13.2902 5.83287 13.1845 6.1804 13.2298C6.28616 13.2449 6.39193 13.2449 6.49769 13.2298C7.02653 13.1543 7.46471 12.7167 7.52515 12.1735C7.6158 11.4492 7.04164 10.8306 6.33149 10.8306C6.27105 10.8306 6.22573 10.8306 6.16529 10.8456C5.81776 10.8909 5.45514 10.7551 5.21338 10.4986L4.35214 9.57814C4.01973 9.21599 3.89885 8.89912 3.91396 8.55206V8.4917ZM19.643 13.1996C19.5977 13.1996 19.5674 13.1996 19.5222 13.1996C18.8573 13.1996 18.3134 12.6564 18.3134 11.9924C18.3134 11.3285 18.8573 10.7853 19.5222 10.7853H19.5372C19.5674 10.7853 19.6128 10.7853 19.643 10.7853C20.0207 10.8306 20.3985 10.6948 20.6553 10.4081L21.6224 9.38198C21.849 9.14055 21.9547 8.82367 21.9245 8.50679C21.9245 8.43134 21.9245 8.3559 21.9396 8.28045C22.0001 7.87303 22.3325 7.54107 22.7555 7.4958C23.3902 7.42035 23.9039 7.94848 23.8283 8.56715C23.783 8.9293 23.4204 9.29144 23.0729 9.36689C23.0124 9.38198 22.952 9.38198 22.8916 9.38198C22.5591 9.38198 22.2418 9.4876 22.0152 9.72903C21.713 10.0459 21.3051 10.4835 20.9877 10.8155C20.746 11.072 20.6553 11.4341 20.7309 11.7812C20.746 11.8567 20.746 11.917 20.746 11.9924C20.746 12.0679 20.746 12.1433 20.7309 12.2037C20.6704 12.5508 20.746 12.9129 20.9877 13.1694L22.0152 14.2559C22.2418 14.4973 22.5591 14.6029 22.8916 14.6029C22.952 14.6029 23.0124 14.6029 23.0729 14.618C23.4355 14.6784 23.783 15.0556 23.8435 15.4178C23.9341 16.0364 23.4053 16.5645 22.7707 16.4891C22.3627 16.4287 22.0303 16.1119 21.9547 15.7044C21.9396 15.629 21.9396 15.5535 21.9396 15.4781C21.9699 15.1612 21.8641 14.8443 21.6374 14.6029C21.3504 14.286 20.9575 13.8786 20.6704 13.5768C20.4136 13.2902 20.0359 13.1543 19.643 13.1996Z" fill="#27CEAA"/>
</svg>
