<svg xmlns="http://www.w3.org/2000/svg" width="68" height="24" viewBox="0 0 68 24" fill="none"><rect width="68" height="24" fill="none"/>
<path d="M54.2001 2C56.8139 2 59.0296 3.54223 59.7957 5.67563L65.7522 21.9994L61.1315 21.9997L55.6233 6.92021C55.4347 6.37144 54.8688 5.97298 54.2001 5.97298C53.5313 5.97298 52.9655 6.3715 52.7769 6.92032L47.279 21.9997L42.6522 21.9994L48.6045 5.67575C49.3706 3.54228 51.5862 2 54.2001 2Z" fill="#EF3124"/>
<path d="M20.0415 2.7028H8.4128C4.87111 2.7028 2 5.3074 2 8.52034C2 11.7333 4.87111 14.3379 8.4128 14.3379H14.6626C15.7855 14.3379 16.6959 15.1637 16.6959 16.1825C16.6959 17.2012 15.7855 18.027 14.6626 18.027H3.02023L3.02023 22H14.6626C18.2042 22 21.0754 19.3954 21.0754 16.1825C21.0754 12.9695 18.2042 10.3649 14.6626 10.3649H8.4128C7.28983 10.3649 6.37947 9.53907 6.37947 8.52034C6.37947 7.5016 7.28983 6.67575 8.4128 6.67575H20.0415L20.0415 2.7028Z" fill="#EF3124"/>
<path d="M23.9095 8.47282L23.9095 21.9999H28.2878L28.2878 14.3051H41.0954L42.5388 10.3279H28.2878L28.2871 8.47282C28.2871 7.47261 29.1797 6.66178 30.2808 6.66178L43.8851 6.66177L45.371 2.68457H30.2808C26.7616 2.68457 23.9095 5.27606 23.9095 8.47282Z" fill="#EF3124"/>
</svg>
