<svg xmlns="http://www.w3.org/2000/svg" width="129" height="24" viewBox="0 0 129 24" fill="none"><rect width="129" height="24" fill="none"/>
<path fill-rule="evenodd" clip-rule="evenodd" d="M33.3626 5.89264C31.2311 6.18948 30.7352 6.3656 30.0195 7.08019C29.1575 7.94086 28.774 9.16696 28.6778 11.3695C28.5222 14.933 30.0032 16.9466 32.6779 16.8081C33.0464 16.7891 33.3915 16.7365 33.6256 16.6638C34.7465 16.3157 35.5695 15.4576 35.9855 14.2033C36.1359 13.7495 36.1439 13.6813 36.1468 12.8257C36.1497 11.9692 36.1424 11.9026 35.996 11.4526C35.6359 10.3463 34.7784 9.50681 33.7176 9.22187C33.3468 9.12227 32.5259 9.10935 32.1005 9.1964C31.3984 9.34006 30.6651 9.83278 30.2496 10.4401L30.0666 10.7076L30.1031 10.284C30.2327 8.77856 30.7959 8.08277 32.0988 7.81802C32.36 7.7649 33.2246 7.63464 34.02 7.52853C34.8154 7.42241 35.486 7.31672 35.51 7.29369C35.5341 7.2706 35.5282 6.94977 35.4969 6.58074C35.4655 6.21167 35.4399 5.86341 35.4399 5.80675C35.4399 5.71297 35.4033 5.70429 35.0324 5.71027C34.8082 5.71392 34.0568 5.79595 33.3626 5.89264ZM83.8491 5.89152C81.9546 6.15559 81.4217 6.31419 80.7773 6.80558C79.9721 7.4195 79.4572 8.50522 79.2406 10.0457C79.1323 10.8156 79.146 12.8078 79.2636 13.4082C79.5625 14.9333 80.1969 15.9092 81.2028 16.3912C81.8218 16.6879 82.1022 16.7443 82.9551 16.7434C83.793 16.7426 84.1286 16.6723 84.7678 16.364C85.3681 16.0744 85.9506 15.4682 86.264 14.8069C86.5659 14.1702 86.6753 13.6429 86.6753 12.8257C86.6753 12.0027 86.5663 11.4759 86.2689 10.8623C85.8487 9.99523 85.114 9.41414 84.1909 9.2188C83.7165 9.11835 82.7238 9.14711 82.3347 9.2725C81.7644 9.45629 81.2188 9.84077 80.8654 10.3079L80.7272 10.4905L80.7541 10.2549C80.8007 9.8475 80.9787 9.18301 81.1186 8.89463C81.3872 8.34054 81.8922 7.97788 82.6395 7.80239C82.958 7.72763 84.9949 7.40245 85.7292 7.30925L85.979 7.27748V5.7037L85.5451 5.70963C85.3065 5.71292 84.5433 5.79478 83.8491 5.89152ZM62.1311 6.51122C62.2268 7.09025 62.5521 7.67213 62.9403 7.9585C63.8368 8.61981 65.4785 8.50729 66.1488 7.73853C66.429 7.41722 66.731 6.68993 66.731 6.33653C66.731 6.30751 66.4659 6.28617 66.1056 6.28617H65.4803L65.4459 6.42406C65.342 6.84074 65.0277 7.0275 64.4303 7.0275C63.8768 7.0275 63.6004 6.89279 63.4254 6.53769L63.3015 6.28617H62.0939L62.1311 6.51122ZM98.4547 8.83204C97.5364 8.97453 96.8095 9.47562 96.4022 10.2468C96.2425 10.5492 96.0102 11.3384 96.0648 11.3933C96.0808 11.4094 96.384 11.4225 96.7386 11.4225H97.3833L97.5123 11.1388C97.7529 10.6098 98.1738 10.4034 99.0213 10.399C99.9051 10.3944 100.284 10.628 100.325 11.2029C100.353 11.5873 100.258 11.7917 99.9573 11.9919C99.7477 12.1317 99.7067 12.1384 98.8939 12.1638L98.0484 12.1903L98.0182 13.1699L98.5592 13.1722C100.082 13.1788 100.582 13.4364 100.533 14.1899C100.511 14.529 100.407 14.7117 100.126 14.9042C99.8517 15.0922 99.5649 15.152 98.9425 15.1513C98.4521 15.1506 98.3219 15.1317 98.0875 15.0272C97.7613 14.8818 97.5255 14.6309 97.4377 14.3357L97.3744 14.123H96.0237V14.2951C96.0237 14.5618 96.2564 15.2577 96.4441 15.5522C96.9871 16.4041 97.9602 16.8166 99.2843 16.756C100.624 16.6946 101.571 16.1184 101.926 15.1482C102.092 14.6955 102.088 13.9377 101.919 13.5557C101.772 13.2227 101.378 12.8368 101.035 12.6885L100.786 12.5811L100.995 12.4866C101.247 12.3726 101.575 12.0183 101.705 11.7202C101.922 11.2197 101.863 10.419 101.573 9.91957C101.29 9.43368 100.671 9.02087 100.021 8.88409C99.609 8.79757 98.8413 8.77205 98.4547 8.83204ZM114.188 8.84925C113.272 9.02537 112.464 9.5677 111.957 10.3455C111.487 11.0687 111.275 11.8214 111.275 12.7728C111.275 14.6517 112.169 16.0484 113.721 16.5925C114.101 16.7259 114.211 16.7401 114.877 16.742C115.73 16.7445 116.009 16.6888 116.63 16.3912C117.122 16.1551 117.681 15.6491 117.906 15.235C118.066 14.9417 118.244 14.5161 118.29 14.3216L118.324 14.176H116.951L116.598 14.5408C116.157 14.9958 115.848 15.1263 115.114 15.1667C114.517 15.1996 114.133 15.1143 113.742 14.8613C113.289 14.569 112.952 14.0034 112.87 13.4008L112.838 13.1699H118.494L118.465 12.5477C118.42 11.5704 118.169 10.79 117.692 10.1431C117.27 9.57162 116.554 9.08716 115.863 8.90591C115.424 8.79074 114.631 8.76395 114.188 8.84925ZM122.396 8.8484C120.625 9.19005 119.48 10.7302 119.48 12.7728C119.48 13.9905 119.854 14.9758 120.608 15.7445C120.951 16.0941 121.114 16.2144 121.477 16.3877C122.107 16.6879 122.386 16.7447 123.213 16.7407C123.844 16.7375 123.97 16.721 124.343 16.5921C124.92 16.3932 125.267 16.1721 125.663 15.7507C126.014 15.3767 126.295 14.8859 126.441 14.3913C126.575 13.9382 126.612 13.9642 125.829 13.9642H125.132L125.004 14.2078C124.834 14.5294 124.487 14.7886 124.043 14.9243C123.745 15.0156 123.582 15.0309 123.093 15.0134C122.572 14.9947 122.467 14.9744 122.199 14.8395C121.861 14.6697 121.492 14.3043 121.324 13.9734C120.981 13.2969 120.981 12.2486 121.324 11.5721C121.503 11.2202 121.867 10.869 122.228 10.7013C122.536 10.558 122.597 10.5488 123.239 10.5488C123.895 10.5488 123.937 10.5555 124.268 10.7136C124.639 10.8903 124.951 11.1727 125.055 11.4251L125.119 11.5814H125.822C126.613 11.5814 126.574 11.6077 126.442 11.1541C126.126 10.0713 125.227 9.18417 124.165 8.9084C123.706 8.78905 122.854 8.76013 122.396 8.8484ZM55.6082 8.94239C55.4636 8.96977 55.1497 9.08711 54.9107 9.20313C54.1674 9.56389 53.7042 10.1606 53.5042 11.015C53.4619 11.1954 53.427 11.361 53.4265 11.3828C53.4261 11.4046 53.766 11.4225 54.1817 11.4225H54.9377L54.9692 11.2639C55.0173 11.0215 55.1522 10.8498 55.4169 10.6937C55.6221 10.5726 55.7315 10.5486 56.1588 10.5313C56.7907 10.5058 57.0697 10.5781 57.323 10.8332C57.5054 11.0168 57.6884 11.4372 57.6172 11.5089C57.5993 11.527 57.0383 11.7647 56.3705 12.0372C55.7027 12.3097 54.9859 12.6327 54.7775 12.755C54.2762 13.0491 53.8291 13.4843 53.6492 13.8532C53.5194 14.1193 53.5046 14.2062 53.5046 14.7055C53.5046 15.3721 53.6346 15.7865 53.9607 16.1595C54.3884 16.6487 55.2618 16.9054 56.0458 16.7722C56.668 16.6666 57.1026 16.3862 57.5114 15.8268L57.7562 15.4919L57.8531 15.8097C58.037 16.4128 58.5289 16.7016 59.421 16.73L59.868 16.7441L59.8972 15.302L59.6788 15.2668C59.0968 15.1731 59.0962 15.1706 59.1144 12.8334C59.1288 10.9832 59.1255 10.908 59.0141 10.5753C58.7014 9.64099 58.0774 9.12529 57.0316 8.93699C56.6611 8.87027 55.9756 8.87287 55.6082 8.94239ZM88.1703 8.96908C88.151 8.98846 88.1352 10.716 88.1352 12.8081V16.6118H89.6874L89.8249 16.3867C90.1821 15.802 92.8339 11.7045 92.8993 11.6362C92.9632 11.5694 92.9735 11.9088 92.9735 14.0852V16.6118H94.5512V8.93376H93.0371L92.5644 9.66185C92.3044 10.0623 91.5683 11.1968 90.9286 12.183L89.7655 13.9761V8.93376H88.9854C88.5563 8.93376 88.1895 8.94965 88.1703 8.96908ZM103.492 16.6118H105.068L105.095 13.5141H108.198L108.226 16.6118H109.802V8.93376H108.226L108.198 11.8196H105.095L105.068 8.93376H103.492V16.6118ZM37.7539 16.6647L39.3579 16.6632L39.9944 15.5652C40.3445 14.9613 40.9574 13.9073 41.3566 13.2229C41.7557 12.5385 42.1556 11.8517 42.2452 11.6968L42.4081 11.4152L42.4354 16.6647H43.9595V9.03691L42.3627 9.06614L39.2806 14.2554L39.2527 9.06614L37.7539 9.03675V16.6647ZM46.9391 9.84236C46.9201 10.2838 46.9044 10.9451 46.9041 11.3118C46.9029 12.7551 46.7458 14.035 46.5143 14.4857C46.4707 14.5705 46.3593 14.7041 46.2668 14.7825C46.112 14.9136 46.0675 14.9237 45.7126 14.9079L45.3266 14.8908L45.3269 16.6543L45.4925 16.7125C45.7005 16.7855 46.3425 16.7875 46.5983 16.7159C47.079 16.5815 47.5405 16.1201 47.7451 15.5695C47.9905 14.9091 48.2024 13.0678 48.2345 11.3166L48.2456 10.7076L50.2703 10.6789V16.6647H51.848V9.03967H46.9736L46.9391 9.84236ZM61.3143 16.6647H62.9335L63.6843 15.3806C64.0972 14.6744 64.6169 13.7868 64.8391 13.4082C65.0614 13.0296 65.4064 12.4401 65.6058 12.0983C65.8053 11.7565 65.9862 11.4765 66.0079 11.4761C66.0296 11.4758 66.0474 12.643 66.0474 14.0701V16.6647H67.5725V9.03967H66.0019L65.901 9.18528C65.8455 9.2654 65.1399 10.4389 64.3329 11.7932L62.8657 14.2554L62.8384 9.03967H61.3143V16.6647ZM69.5183 16.6647H71.0434V13.4876H74.0411V16.6647H75.6195L75.5925 9.06614H74.0674L74.0393 11.8991H71.0434V9.03967H69.5183V16.6647ZM115.727 10.5298C116.278 10.7374 116.774 11.3619 116.857 11.9526L116.876 12.0844L112.858 12.1121L112.94 11.8335C113.166 11.0671 113.637 10.6082 114.378 10.4337C114.759 10.3438 115.343 10.3854 115.727 10.5298ZM33.0881 10.812C33.7748 10.9585 34.2211 11.3129 34.4518 11.8949C34.5511 12.1451 34.5685 12.2875 34.5658 12.8257C34.5632 13.3581 34.5429 13.5126 34.4409 13.7788C34.2058 14.3922 33.9199 14.7152 33.3913 14.9649C33.128 15.0893 33.0385 15.1026 32.4686 15.1026C31.894 15.1026 31.8106 15.0899 31.5368 14.9607C30.957 14.6871 30.5438 14.1662 30.3625 13.4807C30.3147 13.2998 30.2871 12.9284 30.2867 12.46C30.2861 11.7534 30.2915 11.7166 30.4192 11.5481C30.8994 10.9142 32.0629 10.5933 33.0881 10.812ZM83.9612 10.8775C84.7107 11.1731 85.085 11.822 85.085 12.8257C85.085 13.8432 84.7107 14.5132 83.9359 14.8828C83.604 15.0412 83.554 15.0497 82.9551 15.0497C82.3831 15.0497 82.2963 15.0366 82.0284 14.9102C81.6338 14.7238 81.3484 14.4546 81.1531 14.0843C80.9098 13.6229 80.8256 13.2264 80.79 12.3756L80.7579 11.6078L80.9905 11.3923C81.2782 11.1256 81.6986 10.9145 82.143 10.8134C82.6306 10.7025 83.6046 10.7368 83.9612 10.8775ZM57.633 13.6444C57.633 14.797 57.6476 14.7589 57.1071 15.0144C56.8766 15.1233 56.7163 15.1554 56.3182 15.1722C55.5212 15.2058 55.1183 15.0291 55.0022 14.5949C54.8929 14.186 55.0754 13.8067 55.5125 13.5347C55.7179 13.4069 57.4625 12.651 57.5672 12.6445C57.6177 12.6413 57.633 12.8743 57.633 13.6444Z" fill="black"/>
<path d="M16.2441 19.4482C12.8625 21.4079 9.19517 21.759 6.85262 20.5852C9.85178 22.3799 13.7026 22.5351 16.9394 20.6589C20.176 18.7808 21.9682 15.3544 21.9199 11.8485C21.7616 14.4736 19.6237 17.4887 16.2441 19.4482Z" fill="black"/>
<path d="M13.2214 2.73098C13.9069 3.92226 12.25 6.17289 9.51929 7.75414C6.78855 9.33734 4.02112 9.65359 3.33555 8.46038C3.30657 8.40411 3.27954 8.34203 3.26022 8.278C3.08256 7.7231 3.29499 7.00523 3.80677 6.24856C3.8898 6.1302 3.97478 6.01379 4.06169 5.89932C4.83417 4.88847 5.81329 4.01152 6.97974 3.33632C8.14619 2.6592 9.39183 2.24788 10.649 2.08102C10.7958 2.05968 10.9387 2.04416 11.0778 2.03446C11.9854 1.96655 12.7097 2.14117 13.0998 2.57189C13.1461 2.62427 13.1867 2.67666 13.2214 2.73098Z" fill="black"/>
<path d="M17.4547 4.02179C18.6521 6.10361 16.2362 9.75311 12.0609 12.1745C7.88558 14.5959 3.52877 14.8713 2.33335 12.7895C2.13443 12.4422 2.02822 12.0561 2.00697 11.6409C1.95483 13.0398 2.1943 14.462 2.75242 15.8123C2.83546 16.0141 2.92623 16.2139 3.02279 16.4119C3.02665 16.4196 3.03245 16.4293 3.03631 16.4371C3.39744 17.0637 3.93045 17.5566 4.5948 17.9135C6.93735 19.1728 10.8983 18.7401 14.6023 16.5923C18.3044 14.4445 20.6586 11.218 20.7455 8.55213C20.7706 7.79933 20.6142 7.09117 20.2569 6.46449C20.1217 6.26077 19.9808 6.06093 19.8321 5.87079C18.9533 4.72995 17.8603 3.82194 16.6455 3.17392C16.9836 3.39705 17.2577 3.67837 17.4547 4.02179Z" fill="black"/>
</svg>
