<svg xmlns="http://www.w3.org/2000/svg" width="116" height="24" viewBox="0 0 116 24" fill="none"><rect width="116" height="24" fill="none"/>
<path d="M31.4114 21.8611V12.9726H36.7757V13.9274H32.4877V16.7051H34.7445C35.3811 16.7051 35.9178 16.8093 36.3547 17.0176C36.7945 17.2259 37.1273 17.5196 37.3529 17.8986C37.5815 18.2777 37.6958 18.7247 37.6958 19.2397C37.6958 19.7547 37.5815 20.209 37.3529 20.6025C37.1273 20.996 36.7945 21.3041 36.3547 21.5269C35.9178 21.7497 35.3811 21.8611 34.7445 21.8611H31.4114ZM32.4877 20.9237H34.7445C35.1496 20.9237 35.4925 20.8426 35.7731 20.6806C36.0567 20.5157 36.2708 20.3045 36.4155 20.047C36.563 19.7866 36.6368 19.5117 36.6368 19.2223C36.6368 18.797 36.4734 18.431 36.1464 18.1243C35.8194 17.8147 35.3522 17.6599 34.7445 17.6599H32.4877V20.9237Z" fill="white"/>
<path d="M40.353 20.3508L43.5647 15.1947H44.7452V21.8611H43.7209V16.7051L40.5266 21.8611H39.3288V15.1947H40.353V20.3508Z" fill="white"/>
<path d="M46.2045 20.1598H47.2983C47.3214 20.4607 47.4574 20.6893 47.7062 20.8455C47.9579 21.0018 48.2849 21.0799 48.6871 21.0799C49.0979 21.0799 49.4495 20.996 49.7417 20.8282C50.034 20.6575 50.1801 20.3826 50.1801 20.0036C50.1801 19.7808 50.1251 19.5869 50.0151 19.422C49.9052 19.2542 49.7504 19.124 49.5508 19.0314C49.3511 18.9388 49.1153 18.8925 48.8433 18.8925H47.6975V17.9724H48.8433C49.2513 17.9724 49.5522 17.8798 49.7461 17.6946C49.9428 17.5095 50.0412 17.278 50.0412 17.0002C50.0412 16.7022 49.9356 16.4635 49.7244 16.2841C49.5131 16.1018 49.2137 16.0107 48.826 16.0107C48.4354 16.0107 48.1098 16.0989 47.8494 16.2754C47.589 16.449 47.4516 16.6733 47.4371 16.9481H46.3608C46.3724 16.5894 46.4823 16.2725 46.6906 15.9977C46.899 15.7199 47.1825 15.5029 47.5413 15.3466C47.9001 15.1875 48.3109 15.1079 48.7739 15.1079C49.2426 15.1079 49.6491 15.1904 49.9934 15.3553C50.3407 15.5174 50.6083 15.7387 50.7964 16.0194C50.9873 16.2971 51.0828 16.6125 51.0828 16.9655C51.0828 17.3416 50.9772 17.6454 50.766 17.8769C50.5548 18.1084 50.29 18.2733 49.9717 18.3717V18.4411C50.2235 18.4585 50.4419 18.5395 50.6271 18.6842C50.8152 18.8259 50.9613 19.0126 51.0654 19.244C51.1696 19.4726 51.2217 19.7258 51.2217 20.0036C51.2217 20.4086 51.1132 20.7616 50.8962 21.0625C50.6792 21.3606 50.3812 21.592 50.0021 21.757C49.6231 21.919 49.1905 22 48.7044 22C48.2328 22 47.8104 21.9233 47.4371 21.77C47.0639 21.6137 46.7673 21.3982 46.5474 21.1233C46.3304 20.8455 46.2161 20.5244 46.2045 20.1598Z" fill="white"/>
<path d="M57.122 18.0592V19.014H53.4416V18.0592H57.122ZM53.6847 15.1947V21.8611H52.6604V15.1947H53.6847ZM57.9033 15.1947V21.8611H56.879V15.1947H57.9033Z" fill="white"/>
<path d="M62.5688 22C61.9265 22 61.3724 21.8582 60.9066 21.5747C60.4436 21.2882 60.0863 20.8889 59.8346 20.3768C59.5858 19.8618 59.4613 19.2629 59.4613 18.58C59.4613 17.8972 59.5858 17.2953 59.8346 16.7745C60.0863 16.2508 60.4364 15.8429 60.8849 15.5506C61.3363 15.2555 61.8629 15.1079 62.4647 15.1079C62.8119 15.1079 63.1548 15.1658 63.4933 15.2815C63.8318 15.3973 64.14 15.5854 64.4177 15.8458C64.6955 16.1033 64.9168 16.4447 65.0818 16.87C65.2467 17.2953 65.3291 17.819 65.3291 18.4411V18.8751H60.1905V17.9898H64.2875C64.2875 17.6136 64.2123 17.278 64.0618 16.9829C63.9143 16.6877 63.7031 16.4548 63.4282 16.2841C63.1562 16.1134 62.835 16.028 62.4647 16.028C62.0567 16.028 61.7037 16.1293 61.4057 16.3318C61.1106 16.5315 60.8834 16.7919 60.7243 17.1131C60.5652 17.4342 60.4856 17.7785 60.4856 18.146V18.7363C60.4856 19.2397 60.5724 19.6665 60.746 20.0166C60.9225 20.3638 61.167 20.6285 61.4795 20.8108C61.792 20.9902 62.1551 21.0799 62.5688 21.0799C62.8379 21.0799 63.081 21.0423 63.298 20.9671C63.5179 20.8889 63.7074 20.7732 63.8665 20.6199C64.0257 20.4636 64.1486 20.2698 64.2354 20.0383L65.225 20.316C65.1208 20.6517 64.9458 20.9468 64.6998 21.2014C64.4539 21.4531 64.1501 21.6499 63.7884 21.7917C63.4267 21.9306 63.0202 22 62.5688 22Z" fill="white"/>
<path d="M69.5954 22C68.9705 22 68.4323 21.8524 67.9809 21.5573C67.5296 21.2622 67.1824 20.8557 66.9393 20.3377C66.6963 19.8198 66.5747 19.2281 66.5747 18.5627C66.5747 17.8856 66.6992 17.2881 66.948 16.7702C67.1997 16.2494 67.5498 15.8429 67.9983 15.5506C68.4497 15.2555 68.9763 15.1079 69.5781 15.1079C70.0468 15.1079 70.4693 15.1947 70.8454 15.3683C71.2215 15.5419 71.5297 15.785 71.7698 16.0975C72.01 16.41 72.159 16.7745 72.2169 17.1912H71.1926C71.1145 16.8874 70.9409 16.6183 70.6718 16.3839C70.4056 16.1467 70.0468 16.028 69.5954 16.028C69.1962 16.028 68.8461 16.1322 68.5451 16.3405C68.2471 16.546 68.0142 16.8367 67.8464 17.2129C67.6815 17.5861 67.599 18.0245 67.599 18.5279C67.599 19.043 67.68 19.4914 67.842 19.8734C68.007 20.2553 68.2384 20.5519 68.5365 20.7631C68.8374 20.9743 69.1904 21.0799 69.5954 21.0799C69.8616 21.0799 70.1032 21.0336 70.3202 20.941C70.5372 20.8484 70.721 20.7153 70.8714 20.5417C71.0219 20.3681 71.1289 20.1598 71.1926 19.9168H72.2169C72.159 20.3103 72.0158 20.6647 71.7872 20.9801C71.5615 21.2926 71.262 21.5414 70.8888 21.7266C70.5184 21.9089 70.0873 22 69.5954 22Z" fill="white"/>
<path d="M2.00001 13.6335V16.7783C1.99954 16.9074 2.02918 17.0349 2.08657 17.1506C2.14397 17.2663 2.22754 17.367 2.33065 17.4448C2.43376 17.5225 2.55358 17.5752 2.68059 17.5985C2.8076 17.6219 2.93831 17.6154 3.06235 17.5794L16.2757 13.7455C16.6845 13.6261 17.1164 13.609 17.5333 13.6958C17.9502 13.7825 18.3394 13.9705 18.6666 14.2431L22.4333 17.4052C22.5588 17.511 22.7119 17.5787 22.8746 17.6004C23.0373 17.622 23.2028 17.5967 23.3516 17.5274C23.5004 17.4581 23.6262 17.3477 23.7143 17.2093C23.8025 17.0708 23.8492 16.9101 23.849 16.7459V13.636C23.8485 13.2635 23.7252 12.9015 23.4982 12.606L18.898 6.63501C18.5357 6.1637 18.0194 5.83454 17.4392 5.70496C16.8591 5.57537 16.2518 5.65358 15.7234 5.92595L2.57223 12.6981C2.40062 12.787 2.25659 12.9212 2.15573 13.0861C2.05487 13.2509 2.00102 13.4403 2.00001 13.6335Z" fill="#FFDD00"/>
<path d="M62.2302 3.02502C60.307 3.02502 58.7819 4.06747 58.7819 6.19464C58.7819 8.32182 60.3045 9.3767 62.2302 9.3767C64.1558 9.3767 65.666 8.33675 65.666 6.19464C65.666 4.05254 64.1409 3.02502 62.2302 3.02502ZM62.2302 7.68242C61.3121 7.68242 60.7175 7.22216 60.7175 6.18967C60.7175 5.15718 61.3121 4.71433 62.2302 4.71433C63.1482 4.71433 63.7229 5.17459 63.7229 6.18967C63.7229 7.20474 63.1308 7.68242 62.2302 7.68242Z" fill="white"/>
<path d="M76.384 7.68988V3.14693H74.4459V9.26474H77.6553L79.6805 4.66208V9.26474H81.6161V3.14693H78.3768L76.384 7.68988Z" fill="white"/>
<path d="M72.5327 6.13244C72.7223 5.98733 72.8737 5.79824 72.9739 5.5815C73.074 5.36477 73.1198 5.12691 73.1074 4.88848C73.1074 3.8734 72.3859 3.14693 71.0275 3.14693H66.5965V9.26474H71.2738C72.6298 9.26474 73.3537 8.5308 73.3537 7.52319C73.3628 7.23871 73.2903 6.95758 73.1448 6.71293C72.9993 6.46829 72.787 6.27033 72.5327 6.14239M68.5222 4.62476H70.6892C71.0201 4.62476 71.2266 4.76159 71.2266 5.06512C71.2266 5.36865 71.0201 5.48309 70.6892 5.48309H68.5222V4.62476ZM70.8832 7.75706H68.5222V6.86638H70.8832C71.2017 6.86638 71.4231 7.00073 71.4231 7.2943C71.4231 7.58788 71.2017 7.74711 70.8832 7.74711" fill="white"/>
<path d="M94.9489 3.14693L93.3591 5.29152H92.5406V3.14693H90.6025V9.26474H92.5406V6.97585H93.6402L94.9489 9.26474H97.0437L95.0782 5.80155L97.0437 3.14693H94.9489Z" fill="white"/>
<path d="M100.671 3.02502C98.7455 3.02502 97.2179 4.06746 97.2179 6.19962C97.2179 8.33177 98.7455 9.38416 100.671 9.38416C102.597 9.38416 104.11 8.34421 104.11 6.19962C104.11 4.05503 102.584 3.02502 100.671 3.02502ZM100.671 7.6874C99.7507 7.6874 99.156 7.22713 99.156 6.19464C99.156 5.16215 99.7507 4.71681 100.671 4.71681C101.592 4.71681 102.164 5.17957 102.164 6.19464C102.164 7.20972 101.572 7.6874 100.671 7.6874Z" fill="white"/>
<path d="M110.158 3.06234V2H108.463V3.06234C106.284 3.27879 104.891 4.33367 104.891 6.18718C104.891 8.04068 106.284 9.1304 108.463 9.34933V10.4216H110.158V9.34933C112.327 9.1304 113.89 8.078 113.89 6.18718C113.89 4.33367 112.312 3.28128 110.158 3.06234ZM108.461 7.64013C107.433 7.50578 106.826 7.09527 106.826 6.18718C106.826 5.27909 107.433 4.90341 108.461 4.76906V7.64013ZM110.158 7.64013V4.76906C111.175 4.90341 111.782 5.30148 111.782 6.18469C111.782 7.0679 111.175 7.50578 110.158 7.64013Z" fill="white"/>
<path d="M87.2662 5.15717C87.2662 6.15234 84.7235 6.13742 84.7235 5.15717V3.14693H82.7854V5.63486C82.7854 8.23971 87.107 7.64759 87.2637 7.19727V9.26474H89.2018V3.14693H87.2637L87.2662 5.15717Z" fill="white"/>
<path d="M31.6163 3.16933H36.7787V4.85614H33.5469V9.25977H31.6163V3.16933Z" fill="white"/>
<path d="M41.8068 3.05239C41.6549 3.03438 41.502 3.02524 41.349 3.02502C40.9966 3.02021 40.6474 3.09177 40.3252 3.23478C40.0031 3.3778 39.7158 3.58888 39.4831 3.8535V3.14693H37.5475V11.5511H39.4781V8.59549C39.7158 8.85198 40.0059 9.05429 40.3287 9.18867C40.6515 9.32304 40.9995 9.38632 41.349 9.37421C41.451 9.37421 41.553 9.37421 41.655 9.37421C43.2423 9.25728 44.4266 8.21733 44.4266 6.21703C44.4266 4.27148 43.2846 3.23152 41.8018 3.06234M41.0903 7.70233C40.9496 7.70291 40.809 7.69293 40.6698 7.67247H40.6375C40.5922 7.66703 40.5473 7.65873 40.5031 7.64759L40.431 7.63018L40.3165 7.59534C39.7692 7.40875 39.4706 6.97585 39.4706 6.23196C39.4648 5.98232 39.5105 5.73417 39.605 5.503L39.6423 5.41841C39.6513 5.40047 39.6613 5.38303 39.6721 5.36616C39.9209 4.93326 40.3787 4.73174 40.9783 4.73174C41.0957 4.73215 41.2129 4.74046 41.3291 4.75662C42.2148 4.82131 42.7074 5.2766 42.7074 6.23196C42.7074 7.27191 42.1277 7.7073 41.0903 7.7073" fill="white"/>
<path d="M52.0073 3.16933L48.5242 10.3296C48.3216 10.7415 48.0078 11.0884 47.6182 11.3311C47.2286 11.5738 46.7789 11.7026 46.3199 11.7029H45.2053V10.0211L46.1333 10.036C46.7702 10.0484 47.2354 9.42149 47.2354 8.79204L44.4987 3.17679H46.6707L48.2505 6.81165L49.8179 3.17679L52.0073 3.16933Z" fill="white"/>
<path d="M53.7688 6.91863C53.7688 7.70481 54.2141 7.81428 55.06 7.81428C55.6994 7.81428 56.2766 7.7073 56.2766 7.3167C56.2766 6.92609 55.779 6.80418 55.2391 6.80418H54.4928V5.4831H55.2391C55.7716 5.4831 56.1547 5.37114 56.1547 4.98551C56.1547 4.63969 55.7318 4.50285 55.0824 4.50285C54.249 4.50285 53.8882 4.61979 53.8882 5.14723H52.0795C52.0795 3.79628 53.1642 3.05986 55.0824 3.05986C56.8936 3.04742 57.9784 3.74155 57.9784 4.71184C57.9784 5.61993 57.4982 6.10508 56.6996 6.10508C57.5131 6.10508 58.2197 6.52802 58.2197 7.63018C58.2197 8.73233 56.8787 9.37172 55.0725 9.37172C53.1518 9.37172 51.97 8.62535 51.97 6.91117L53.7688 6.91863Z" fill="white"/>
</svg>
