<svg xmlns="http://www.w3.org/2000/svg" width="136" height="24" viewBox="0 0 136 24" fill="none"><rect width="136" height="24" fill="none"/>
<path fill-rule="evenodd" clip-rule="evenodd" d="M11.999 22C17.5215 22 21.998 17.5235 21.998 12.001C21.998 6.47851 17.5215 2.00203 11.999 2.00203C6.47647 2.00203 2 6.47851 2 12.001C2 17.5235 6.47647 22 11.999 22ZM16.2537 7.49629H13.3756L10.568 11.1787H10.5438V7.49629H8.22191V16.427H10.5438V12.5552H10.568L13.565 16.427H16.5742L12.7004 11.7249L16.2537 7.49629Z" fill="#000000"/>
<path fill-rule="evenodd" clip-rule="evenodd" d="M34.3148 21.998C39.8373 21.998 44.3138 17.5215 44.3138 11.999C44.3138 6.47647 39.8373 2 34.3148 2C28.7923 2 24.3158 6.47647 24.3158 11.999C24.3158 17.5215 28.7923 21.998 34.3148 21.998ZM36.0784 7.49433V10.9409H32.7266V7.49433H30.4047V16.4251H32.7266V12.7649H36.0784V16.4251H38.4003V7.49433H36.0784Z" fill="#000000"/>
<path fill-rule="evenodd" clip-rule="evenodd" d="M56.6329 21.998C62.1552 21.998 66.6314 17.5215 66.6314 11.999C66.6314 6.47647 62.1552 2 56.6329 2C51.11 2 46.6337 6.47647 46.6337 11.999C46.6337 17.5215 51.11 21.998 56.6329 21.998ZM56.6348 16.7214C59.501 16.7214 61.5729 14.6837 61.5729 11.7934C61.5729 9.09467 59.2043 7.19805 56.6348 7.19805C54.0629 7.19805 51.6948 9.09262 51.6948 11.7934C51.6948 14.6837 53.7686 16.7214 56.6348 16.7214ZM54.1114 11.8055C54.1114 13.3454 55.2481 14.47 56.6348 14.47C58.0214 14.47 59.1581 13.3454 59.1581 11.8055C59.1581 10.574 58.0214 9.44738 56.6348 9.44738C55.2481 9.44738 54.1114 10.574 54.1114 11.8055Z" fill="#000000"/>
<path fill-rule="evenodd" clip-rule="evenodd" d="M78.9524 21.998C84.4748 21.998 88.9514 17.5215 88.9514 11.999C88.9514 6.47647 84.4729 2 78.9524 2C73.43 2 68.9533 6.47647 68.9533 11.999C68.9533 17.5215 73.43 21.998 78.9524 21.998ZM82.8948 16.4251V7.49433H74.899V16.4251H77.221V9.79405H80.5729V16.4251H82.8948Z" fill="#000000"/>
<path fill-rule="evenodd" clip-rule="evenodd" d="M101.27 21.998C106.793 21.998 111.27 17.5215 111.27 11.999C111.27 6.47647 106.791 2 101.27 2C95.7476 2 91.2714 6.47647 91.2714 11.999C91.2714 17.5215 95.7476 21.998 101.27 21.998ZM105.477 7.49433H102.599L99.7891 11.1767H99.7648V7.49433H97.4429V16.4251H99.7648V12.5533H99.7891L102.786 16.4251H105.795L101.923 11.7229L105.477 7.49433Z" fill="#000000"/>
<path fill-rule="evenodd" clip-rule="evenodd" d="M123.588 21.998C129.109 21.998 133.585 17.5215 133.585 11.999C133.585 6.47647 129.109 2 123.588 2C118.066 2 113.589 6.47647 113.589 11.999C113.589 17.5215 118.066 21.998 123.588 21.998ZM121.385 16.4251L122.002 14.8731H125.2L125.781 16.4251H128.256L124.892 7.49433H122.357L118.922 16.4251H121.385ZM123.624 10.2536H123.6L122.641 13.0975H124.572L123.624 10.2536Z" fill="#000000"/>
</svg>
