<svg xmlns="http://www.w3.org/2000/svg" width="104" height="24" viewBox="0 0 104 24" fill="none"><rect width="104" height="24" fill="none"/>
<path d="M98.1216 5.95082L94.7254 9.75683V5.95082H92.2678V15.5587H94.7254V11.5137L98.3607 15.5587H101.536L97.0642 10.5246L101.212 5.95082H98.1216Z" fill="white"/>
<path d="M87.9344 9.53415H84.5383V5.95082H82.0792V15.5587H84.5383V11.7705H87.9344V15.5587H90.3921V5.95082H87.9344V9.53415Z" fill="white"/>
<path d="M16.5929 11.1557C16.5342 12.9481 16.3033 13.306 15.2951 13.306V15.5587H15.6708C18.1831 15.5587 18.7869 14.2609 18.8798 11.377L18.9822 8.18579H21.3374V15.5587H23.7951V5.95082H16.7637L16.5929 11.1557Z" fill="white"/>
<path d="M29.9044 8.86885H28.1298V5.95082H25.6721V15.5587H29.9385C32.6189 15.5587 33.5738 13.8183 33.5738 12.179C33.5738 10.0628 32.2418 8.86749 29.9044 8.86749M29.7172 13.4413H28.1298V11H29.7172C30.571 11 31.082 11.3757 31.082 12.1776C31.082 13.0478 30.5874 13.4413 29.7172 13.4413Z" fill="white"/>
<path d="M41.5779 5.72814V2.1612H39.1202V5.72814C36.3046 5.96721 34.4098 7.96448 34.4098 10.7459C34.4098 13.5273 36.3046 15.5423 39.1202 15.7814V19.4003H41.5779V15.7814C44.3934 15.5601 46.2883 13.5451 46.2883 10.7459C46.2883 7.94672 44.3934 5.94945 41.5779 5.72814ZM39.1202 13.4604C37.7555 13.2719 36.9016 12.2486 36.9016 10.7473C36.9016 9.2459 37.7555 8.22131 39.1202 8.03415V13.4617V13.4604ZM41.5779 13.4604V8.03279C42.9426 8.21995 43.7965 9.24454 43.7965 10.7459C43.7965 12.2473 42.9426 13.2719 41.5779 13.459" fill="white"/>
<path d="M55.5055 12.6066V9.38115C55.5055 7.02596 54.0041 5.54098 51.4781 5.54098C48.9522 5.54098 47.485 7.11202 47.3648 8.75H49.8566C49.9413 8.39208 50.3169 7.77732 51.4781 7.77732C52.4344 7.77732 53.0478 8.22131 53.0478 9.38115H50.6066C48.4221 9.38115 47.1243 10.5246 47.1243 12.4358C47.1243 14.347 48.5437 15.7978 50.5888 15.7978C52.0888 15.7978 52.9221 15.0888 53.2855 14.5519C53.6093 15.2008 54.3265 15.5587 55.265 15.5587H56.1189V13.3402C55.6749 13.3402 55.5041 13.1352 55.5041 12.6066M53.0465 11.9754C53.0465 13.0847 52.2609 13.7158 51.2377 13.7158C50.3497 13.7158 49.6503 13.3921 49.6503 12.4358C49.6503 11.4795 50.418 11.3443 51.0833 11.3443H53.0465V11.9754Z" fill="white"/>
<path d="M66.0369 7.31557H63.2896V4.60246H69.6557V2.1612H60.7131V15.5587H66.0383C68.9904 15.5587 70.6803 14.0915 70.6803 11.3948C70.6803 8.85246 68.9904 7.31557 66.0383 7.31557M65.9194 13.1352H63.291V9.65301H65.9194C67.2842 9.65301 68.0533 10.2842 68.0533 11.3934C68.0533 12.5027 67.2855 13.1339 65.9194 13.1339" fill="white"/>
<path d="M80.0833 12.6066V9.38115C80.0833 7.02596 78.582 5.54098 76.056 5.54098C73.5301 5.54098 72.0628 7.11202 71.9426 8.75H74.4344C74.5191 8.39208 74.8948 7.77732 76.056 7.77732C77.0123 7.77732 77.6257 8.22131 77.6257 9.38115H75.1844C73 9.38115 71.7022 10.5246 71.7022 12.4358C71.7022 14.347 73.1216 15.7978 75.1667 15.7978C76.6667 15.7978 77.5 15.0888 77.8634 14.5519C78.1872 15.2008 78.9044 15.5587 79.8429 15.5587H80.6967V13.3402C80.2527 13.3402 80.082 13.1352 80.082 12.6066M77.6243 11.9754C77.6243 13.0847 76.8388 13.7158 75.8156 13.7158C74.9276 13.7158 74.2281 13.3921 74.2281 12.4358C74.2281 11.4795 74.9959 11.3443 75.6612 11.3443H77.6243V11.9754Z" fill="white"/>
<path d="M15.1421 19.2691H2V22H15.1421V19.2691Z" fill="white"/>
<path d="M10.9604 4C10.5847 2.88251 10.153 2 8.6735 2C7.19399 2 6.73361 2.87842 6.34016 4L2.27322 15.5587H4.96995L5.90847 12.8115H11.097L11.9672 15.5587H14.8347L10.9604 4ZM6.69399 10.4904L8.53689 5.0123H8.60519L10.3456 10.4904H6.69262H6.69399Z" fill="white"/>
</svg>
