<svg xmlns="http://www.w3.org/2000/svg" width="24" height="24" viewBox="0 0 24 24" fill="none"><rect width="24" height="24" fill="none"/>
<path d="M18.7347 17H11.7674V7H18.08C20.2329 7 21.4021 8.29754 21.4021 9.83327C21.4021 10.522 21.0429 11.2261 20.4918 11.759C21.3043 12.174 22 13.1074 22 14.0819C22 15.7953 20.6195 17 18.7347 17ZM14.3237 14.9895H18.3865C18.5222 14.9941 18.6574 14.9717 18.7837 14.9238C18.9101 14.8759 19.025 14.8034 19.1212 14.7109C19.2175 14.6183 19.2931 14.5077 19.3434 14.3857C19.3937 14.2638 19.4176 14.1332 19.4136 14.002V13.9859C19.4176 13.8547 19.3937 13.7241 19.3434 13.6022C19.2931 13.4803 19.2175 13.3696 19.1212 13.2771C19.025 13.1845 18.9101 13.112 18.7837 13.0641C18.6574 13.0162 18.5222 12.9938 18.3865 12.9984H14.3237V14.9895ZM14.3237 10.9871H17.7476C18.4157 10.9871 18.8158 10.5438 18.8158 9.9996C18.8158 9.45539 18.4416 9.01211 17.7476 9.01211H14.3237V10.9871Z" fill="#2DBE64"/>
<path d="M7.22048 17H2V7H6.58856C8.66466 7 9.79087 8.29683 9.79087 9.83269C9.79087 10.5215 9.44472 11.2264 8.91344 11.7586C9.69751 12.1736 10.3721 13.1079 10.3721 14.0817C10.3721 15.7952 9.03495 17 7.22048 17ZM4.46657 14.9893H6.88157C7.01274 14.9946 7.14361 14.9727 7.26599 14.9251C7.38844 14.8774 7.49972 14.8051 7.59304 14.7125C7.68641 14.6199 7.75972 14.509 7.80849 14.3867C7.85727 14.2644 7.88041 14.1334 7.87658 14.0018V13.9856C7.88041 13.8544 7.85733 13.7238 7.80884 13.6019C7.76041 13.4799 7.68751 13.3693 7.59472 13.2768C7.50193 13.1842 7.39117 13.1117 7.26937 13.0638C7.14751 13.0159 7.01721 12.9935 6.8864 12.9981H4.4714L4.46657 14.9893ZM4.46657 10.9866H6.26658C6.91059 10.9866 7.29617 10.5433 7.29617 9.99903C7.29617 9.45478 6.93792 9.01146 6.26658 9.01146H4.46657V10.9866Z" fill="#2DBE64"/>
</svg>
