<svg xmlns="http://www.w3.org/2000/svg" width="24" height="24" viewBox="0 0 24 24" fill="none"><rect width="24" height="24" fill="none"/>
<path fill-rule="evenodd" clip-rule="evenodd" d="M12.1632 10.2436H11.3675L10.6656 13.7597H11.4613L12.1632 10.2436Z" fill="white"/>
<path fill-rule="evenodd" clip-rule="evenodd" d="M3.49763 10.2436H2.69868L2 13.7597H2.79572L3.49763 10.2436Z" fill="white"/>
<path fill-rule="evenodd" clip-rule="evenodd" d="M11.1087 10.2436H10.313L8.8283 12.6826L8.36251 10.2436H7.56679L8.23959 13.7597H8.97062L11.1087 10.2436Z" fill="white"/>
<path fill-rule="evenodd" clip-rule="evenodd" d="M15.1391 10.2436H12.5416L12.4026 10.9811H13.3083L12.7551 13.7597H13.5508L14.104 10.9811H15.0032L15.1391 10.2436Z" fill="white"/>
<path fill-rule="evenodd" clip-rule="evenodd" d="M6.57376 10.2436L6.11121 12.5693L4.89176 10.2436H4.20602L3.5041 13.7597H4.27071L4.73649 11.4275L5.95271 13.7597H6.64169L7.3436 10.2436H6.57376Z" fill="white"/>
<path fill-rule="evenodd" clip-rule="evenodd" d="M17.0345 10.2436H15.5757L14.8738 13.7597H15.6695L16.2227 10.9844H16.9116C17.0701 10.9844 17.1995 11.0361 17.2868 11.1235C17.3612 11.2011 17.4001 11.3143 17.3904 11.434C17.358 11.7866 17.0798 11.9483 16.7176 11.9483H16.1353L16.8825 13.7597H17.6782L17.1801 12.5564C17.785 12.4594 18.1602 12.0162 18.1893 11.4146C18.2249 10.7321 17.7235 10.2436 17.0345 10.2436Z" fill="white"/>
<path d="M18.3413 12.0001C18.3996 11.007 19.2179 10.1919 20.2789 10.1919C21.3398 10.1919 22.0547 10.9973 21.9965 12.0001C21.9382 12.9931 21.1199 13.8082 20.0589 13.8082C18.998 13.8082 18.2831 13.006 18.3413 12.0001ZM21.2525 12.0001C21.2881 11.4016 20.8676 10.9003 20.2271 10.9003C19.5899 10.9003 19.1176 11.3887 19.0788 12.0001C19.0432 12.5985 19.4637 13.0998 20.1042 13.0998C20.7447 13.0998 21.2169 12.6114 21.2525 12.0001Z" fill="white"/>
</svg>
