<svg xmlns="http://www.w3.org/2000/svg" width="24" height="24" viewBox="0 0 24 24" fill="none"><rect width="24" height="24" fill="none"/>
<path fill-rule="evenodd" clip-rule="evenodd" d="M14.3089 11.2711C14.3089 11.0123 14.1618 10.8828 13.8677 10.8828C13.6664 10.8828 13.4419 11.077 13.1942 11.4652C12.9478 11.8539 12.7673 12.2809 12.6601 12.7288V12.7521C12.662 13.0283 12.703 13.3028 12.782 13.5674C12.8455 13.7559 12.8865 13.9514 12.9039 14.1497C12.9039 14.4085 12.5749 14.6673 11.9169 14.9261C11.8321 14.9615 11.7416 14.9812 11.6499 14.9844C11.5588 14.9868 11.4696 14.9582 11.3968 14.9032C11.324 14.8482 11.272 14.77 11.2493 14.6815C11.1664 14.4161 11.1291 14.1384 11.139 13.8605C11.139 13.5149 11.1486 13.1914 11.168 12.8899C11.1873 12.5884 11.2067 12.305 11.226 12.0397C11.2454 11.7809 11.2647 11.5519 11.2841 11.3526C11.3035 11.1533 11.3131 10.9922 11.3131 10.8693C11.3131 10.6105 11.1931 10.481 10.9532 10.481C10.7132 10.481 10.4345 10.7638 10.1171 11.3293C9.79975 11.8922 9.64106 12.3387 9.64106 12.6686C9.63821 12.9776 9.67925 13.2855 9.76297 13.5829C9.82652 13.7715 9.86744 13.967 9.8849 14.1652C9.8849 14.424 9.55591 14.6829 8.89792 14.9417C8.81311 14.977 8.72265 14.9968 8.63085 14.9999C8.53985 15.002 8.4508 14.9732 8.37809 14.9183C8.30541 14.8633 8.25331 14.7854 8.23025 14.6971C8.19753 14.583 8.17186 14.4671 8.1533 14.3502C7.99542 14.4561 7.82921 14.5494 7.65612 14.6291C7.36635 14.7701 7.04926 14.8456 6.72721 14.8504C6.31692 14.8504 6.04212 14.4893 5.90277 13.7672C5.70504 14.0974 5.43504 14.3782 5.11319 14.5883C4.71809 14.8202 4.26412 14.9315 3.80689 14.9086C3.56381 14.9193 3.32116 14.8794 3.0943 14.7911C2.86743 14.7029 2.66131 14.5684 2.48897 14.3961C2.32614 14.2328 2.19876 14.0374 2.11483 13.8222C2.03091 13.6071 1.99225 13.3769 2.00129 13.1461C2.00129 11.8261 2.43866 10.7857 3.3134 10.0248C3.61419 9.74545 3.96748 9.52901 4.35263 9.38816C4.68165 9.28608 5.02426 9.23502 5.36864 9.23675C5.6706 9.22696 5.97012 9.29372 6.23951 9.43086C6.3479 9.20569 6.47176 9.09311 6.61108 9.09311C6.75715 9.09794 6.90078 9.13183 7.03368 9.19281C7.16657 9.25378 7.28607 9.34064 7.3852 9.44833C7.48713 9.53013 7.5718 9.63148 7.63427 9.74646C7.69673 9.86143 7.73575 9.98774 7.74902 10.118C7.60965 10.4344 7.45065 10.7417 7.27296 11.0381C7.20145 11.5355 7.17039 12.038 7.18006 12.5405C7.18006 13.1875 7.26134 13.511 7.4239 13.511C7.54761 13.511 7.77952 13.3585 8.11964 13.0534C8.13218 12.4932 8.17491 11.9338 8.24766 11.3778C8.36674 10.6466 8.63557 9.94796 9.03725 9.3261C9.07941 9.238 9.14296 9.16196 9.22212 9.10497C9.30125 9.04798 9.3934 9.01188 9.49012 9C9.74814 9 9.98425 9.20964 10.1984 9.62891C10.2545 9.7251 10.3012 9.82651 10.3377 9.93172C10.4864 9.72006 10.6826 9.54649 10.9106 9.42509C11.1385 9.30368 11.3918 9.23785 11.6499 9.23293C11.9782 9.23126 12.2959 9.34921 12.5439 9.56485C12.6676 9.66477 12.7668 9.79179 12.8339 9.93614C12.901 10.0805 12.9342 10.2383 12.931 10.3976V10.5257C13.1305 10.2511 13.3919 10.0277 13.694 9.87384C13.996 9.72 14.3301 9.64006 14.6689 9.64056C14.8415 9.62873 15.0148 9.65185 15.1784 9.70854C15.342 9.76523 15.4925 9.85433 15.621 9.97054C15.727 10.0751 15.8106 10.2004 15.8665 10.3386C15.9224 10.4768 15.9495 10.625 15.9462 10.7741C15.9486 11.0629 15.9253 11.3514 15.8765 11.636C15.83 11.8948 15.7778 12.1355 15.7197 12.3581C15.6617 12.5806 15.6094 12.7806 15.563 12.9579C15.5234 13.0904 15.5 13.2273 15.4933 13.3655C15.4933 13.4626 15.5243 13.5111 15.5862 13.5111C15.7503 13.4884 15.9018 13.4103 16.0158 13.2898C16.125 13.1952 16.2343 13.095 16.3435 12.9892C16.3345 12.892 16.3319 12.794 16.3359 12.6959C16.3113 11.8177 16.6229 10.9634 17.2067 10.3084C17.4943 9.98111 17.8508 9.72198 18.2504 9.54977C18.65 9.37756 19.0828 9.29656 19.5174 9.31263C19.8732 9.30086 20.228 9.35753 20.5625 9.47956C21.0192 9.6659 21.2476 9.8406 21.2476 10.0037C21.2476 10.1331 20.9282 10.1978 20.2896 10.1978C19.9914 10.1923 19.6953 10.2484 19.4196 10.3626C19.144 10.4768 18.8947 10.6467 18.6872 10.8616C18.4738 11.0804 18.3068 11.3402 18.196 11.6254C18.0853 11.9106 18.0332 12.2153 18.0428 12.5212C18.0328 12.8425 18.1425 13.156 18.3505 13.4006C18.4613 13.5208 18.5975 13.6147 18.7492 13.6751C18.9009 13.7356 19.0643 13.7612 19.2271 13.75C19.5544 13.762 19.8783 13.6812 20.1619 13.517C19.8959 13.3424 19.68 13.1013 19.5354 12.8174C19.3908 12.5334 19.3226 12.2166 19.3375 11.8981C19.3322 11.5188 19.4761 11.1527 19.7381 10.8791C19.8699 10.7292 20.0328 10.6099 20.2153 10.5295C20.3977 10.449 20.5954 10.4094 20.7947 10.4132C21.2243 10.4132 21.5321 10.5316 21.7178 10.7684C21.922 11.0613 22.0203 11.4154 21.9965 11.772C21.9421 12.5683 21.6968 13.3597 21.1609 13.9498C20.47 14.7262 19.7303 14.9961 18.8846 14.9961C18.0389 14.9961 17.3886 14.7768 16.9629 14.3323C16.8662 14.2331 16.7794 14.1254 16.7032 14.0105C16.6804 14.033 16.657 14.0555 16.6332 14.0779C16.1759 14.5547 15.5508 14.8334 14.8914 14.8543C14.3341 14.8543 14.0554 14.3457 14.0554 13.3286C14.0668 12.9722 14.1095 12.6176 14.1831 12.2688C14.2529 11.9403 14.295 11.6066 14.3089 11.2711ZM3.70819 12.7618C3.70819 13.3596 3.92881 13.6585 4.37005 13.6585C4.84226 13.6508 5.23317 13.3984 5.54282 12.9015C5.66188 12.706 5.75183 12.4941 5.8099 12.2726C5.79714 11.5206 5.87513 10.7697 6.04212 10.0365C5.41575 10.1596 4.84336 10.4758 4.40489 10.941C4.17342 11.1825 3.99252 11.468 3.87286 11.7807C3.7532 12.0934 3.69721 12.427 3.70819 12.7618ZM21.174 11.739C21.1707 12.0218 21.1046 12.3003 20.9805 12.5542V12.562C20.8798 12.4617 20.8007 12.3417 20.7481 12.2095C20.6955 12.0773 20.6705 11.9356 20.6747 11.7933C20.6766 11.6923 20.7004 11.593 20.7444 11.5022C20.7908 11.4012 20.8489 11.3508 20.9186 11.3508C21.0889 11.3508 21.174 11.4802 21.174 11.739Z" fill="white"/>
</svg>
