<svg xmlns="http://www.w3.org/2000/svg" width="127" height="24" viewBox="0 0 127 24" fill="none"><rect width="127" height="24" fill="none"/>
<path d="M2 2.42288V21.6819H5.90809V17.7138H10.1329C11.6116 17.7138 12.7206 17.1847 13.6183 16.6555C14.9387 15.8618 15.9421 14.7508 16.5758 13.4281C17.2096 12.1054 17.4208 10.7825 17.3152 9.40688C17.2096 8.40166 16.9454 7.44916 16.523 6.65566C15.8365 5.27988 14.7803 4.16888 13.46 3.4281C12.2982 2.7931 11.0835 2.42288 9.81602 2.42288H2ZM5.90809 13.7985V6.33816C5.90809 6.33816 8.70693 6.33816 8.86544 6.33816C9.44627 6.33816 10.0273 6.33815 10.6082 6.49682C12.034 6.81432 12.9846 7.76666 13.3544 9.24821C13.5656 10.2005 13.4073 11.2058 12.879 12.0523C12.3509 12.8989 11.5059 13.5339 10.5026 13.6926C10.1858 13.7454 9.81602 13.7985 9.49916 13.7985H5.90809Z" fill="#020000"/>
<path fill-rule="evenodd" clip-rule="evenodd" d="M98.3798 19.1428C96.4259 21.0475 93.891 22 91.1448 22C85.6525 21.8941 81.3749 17.4497 81.3749 11.8942C81.3749 9.19572 82.4838 6.65606 84.3849 4.80427C86.2863 3.00522 88.7682 2 91.4616 2H91.7258C97.0596 2.10578 101.39 6.60317 101.39 12C101.39 14.6983 100.334 17.238 98.3798 19.1428ZM97.2181 12C97.1653 8.71956 94.5248 6.127 91.3033 6.127C88.0818 6.127 85.5469 8.71956 85.494 12C85.494 15.2804 88.0818 17.873 91.356 17.873C94.5775 17.873 97.1653 15.2804 97.2181 12Z" fill="#020000"/>
<path d="M120.771 2.42288V17.7667H116.336V2.42288H112.375V17.7667H107.939V2.42288H103.978V21.6819H124.733V4.38044C124.733 3.69271 124.256 2.47577 122.62 2.42288H120.771Z" fill="#020000"/>
<path d="M70.5485 6.39105H80.3713V2.42288H66.5877V21.6819H70.5485V6.39105Z" fill="#020000"/>
<path d="M56.2366 12.0525C56.5007 11.7352 56.7119 11.4177 56.8176 11.3119C57.6098 10.042 57.9266 8.71916 57.6625 7.29066C57.3985 5.80911 56.6592 4.53927 55.4974 3.69272C54.441 2.89921 52.6984 2.47593 50.7443 2.47593H40.0766V21.735H50.7443C51.9062 21.735 54.441 21.3646 55.4974 20.5181C56.6592 19.6186 57.3985 18.4017 57.6625 16.9203C57.9266 15.4918 57.6625 14.116 56.8176 12.899C56.7119 12.7933 56.448 12.4229 56.2366 12.1584M43.9845 6.33832H51.8534C52.3815 6.33832 52.8567 6.54988 53.2265 6.92027C53.5961 7.29066 53.7546 7.76682 53.7546 8.24299C53.7546 9.19549 52.9624 9.98899 52.0118 9.98899H43.9845V6.33832ZM53.2265 17.1849C52.8567 17.5551 52.3815 17.7668 51.8534 17.7668H43.9845V14.116H52.0118C52.9096 14.116 53.7017 14.9097 53.7546 15.862C53.7546 16.3383 53.5961 16.8145 53.2265 17.1849Z" fill="#020000"/>
<path d="M19.6917 4.38044C19.6917 3.69271 20.1671 2.47577 21.8041 2.42288H23.5998V15.0153C23.5998 15.0153 32.7889 3.16349 33.4226 2.42288H37.2249V21.6819H33.317V9.03649L23.5998 21.6819H19.6917V4.38044Z" fill="#020000"/>
</svg>
