<svg xmlns="http://www.w3.org/2000/svg" width="64" height="24" viewBox="0 0 64 24" fill="none"><rect width="64" height="24" fill="none"/>
<path d="M16.0536 10.4127C16.0536 7.15908 18.6629 4.6784 21.668 4.6784C22.8016 4.6784 24.1152 5.07388 25.2309 6.02662L13.9843 15.9673C13.8838 16.0676 13.8344 16.1171 13.7865 16.1156C13.74 16.1141 13.6951 16.0647 13.6064 15.9673L8.92787 10.8082V15.0146L2 18.0705V5.64913L8.92787 2.57522V7.17706C9.37419 6.6103 9.9382 5.90058 10.4714 5.22951C11.2066 4.3043 11.8835 3.45262 12.1129 3.15047C12.7787 2.41343 13.4625 2 14.6321 2C15.9457 2 17.0253 3.06059 17.0434 4.39079C17.0434 5.72103 15.9637 6.78159 14.6501 6.78159C13.4984 6.78159 12.5448 5.97268 12.3108 4.89411L9.12579 8.90275C10.6194 10.8082 12.1129 12.7137 13.8044 14.4394C13.838 14.4813 13.8559 14.5037 13.8765 14.5065C13.8999 14.5097 13.9268 14.4872 13.9843 14.4394L16.4315 12.3182C16.2336 11.7429 16.0536 10.9879 16.0536 10.4127Z" fill="white"/>
<path fill-rule="evenodd" clip-rule="evenodd" d="M57.0629 14.709C58.5567 14.709 59.9242 13.9361 60.6978 12.7496V12.7855H61.9037C61.0037 14.691 59.0965 16.0033 56.8472 16.0033C53.77 16.0033 51.3228 13.5225 51.2687 10.4666L47.166 14.8528C47.166 14.8528 46.2663 15.8056 44.9709 15.8056C43.6393 15.8056 42.5777 14.727 42.5777 13.4147C42.5777 13.181 42.6135 12.9653 42.6676 12.7496L42.6497 12.7316L39.6624 15.7876L36.4773 10.8082L31.9789 15.7876L28.7938 10.8082L25.9687 14.0619C24.8351 15.4281 23.2695 16.0392 21.668 15.9673C19.9764 15.8954 18.6629 15.3921 17.5472 14.2417L26.0228 6.79957C26.9583 7.93205 27.3362 9.28022 27.3362 10.8082L32.0147 5.27161L35.1998 10.2509L39.6985 5.27161L43.8012 11.3475C44.1429 11.1318 44.5569 11.0059 45.0067 11.0059C46.1764 11.0059 47.1302 11.8508 47.3462 12.9473L47.868 12.408L43.0634 5.25362H49.6133L51.7006 8.16574C52.5286 6.13446 54.5078 4.69639 56.8652 4.69639H56.9372C59.5105 4.69639 61.5437 6.58386 61.5437 8.92073C61.5437 10.0352 60.662 10.934 59.5284 10.934C58.3945 10.934 57.513 10.0352 57.513 8.92073C57.513 8.57917 57.585 8.25563 57.7469 7.96799C57.8368 7.80623 57.9447 7.68038 58.0707 7.55456L58.0528 7.53657L53.3202 12.5878C54.0759 13.8462 55.4977 14.709 57.0629 14.709ZM21.2001 12.6058C21.2001 13.7203 22.0998 14.6012 23.1975 14.6012C24.2952 14.6012 25.1768 13.7024 25.1948 12.6058C25.1948 11.5092 24.2952 10.6105 23.1975 10.6105C22.0818 10.6105 21.2001 11.5092 21.2001 12.6058Z" fill="white"/>
<path d="M10.6742 18.9205H11.2642V21.4625H10.6742V20.4203H9.51595V21.4625H8.92599V18.9205H9.51595V19.9228H10.6742V18.9205Z" fill="white"/>
<path d="M12.489 20.9904H13.8766V21.4625H11.9026V18.9205H13.8293V19.3926H12.489V19.9445H13.6727V20.4022H12.489V20.9904Z" fill="white"/>
<path d="M17.6107 18.9205V19.3999H16.7949V21.4625H16.2121V19.3999H15.4V18.9205H17.6107Z" fill="white"/>
<path d="M19.1619 21.5061C18.357 21.5061 17.767 20.9468 17.767 20.1915C17.767 19.4362 18.357 18.8769 19.1619 18.8769C19.9631 18.8769 20.5568 19.4325 20.5568 20.1915C20.5568 20.9505 19.9631 21.5061 19.1619 21.5061ZM19.1619 21.005C19.6172 21.005 19.9595 20.6745 19.9595 20.1915C19.9595 19.7085 19.6172 19.378 19.1619 19.378C18.7066 19.378 18.3643 19.7085 18.3643 20.1915C18.3643 20.6745 18.7066 21.005 19.1619 21.005Z" fill="white"/>
<path d="M21.2534 18.9205H23.2128V21.4625H22.63V19.3999H21.7559L21.7377 19.9301C21.705 20.9287 21.5629 21.5025 20.9656 21.5025C20.8782 21.5025 20.7835 21.488 20.6743 21.4625L20.7107 20.965C20.7471 20.9759 20.7799 20.9796 20.8163 20.9796C21.1149 20.9796 21.1915 20.6019 21.2169 19.9518L21.2534 18.9205Z" fill="white"/>
<path d="M25.0841 19.7557C25.6998 19.7557 26.0494 20.0281 26.0494 20.5765C26.0494 21.1611 25.6561 21.4625 25.0004 21.4625H23.8495V18.9205H24.4359V19.7557H25.0841ZM24.9676 21.0268C25.2698 21.0268 25.4555 20.8742 25.4555 20.5873C25.4555 20.3077 25.2738 20.1915 24.9676 20.1915H24.4359V21.0268H24.9676Z" fill="white"/>
<path d="M28.1241 21.4625L27.4614 20.4385H27.0532V21.4625H26.467V18.9205H27.0532V19.9482H27.4759L28.1459 18.9205H28.7689L27.9347 20.1479L28.7944 21.4625H28.1241Z" fill="white"/>
<path d="M30.2764 21.5061C29.4717 21.5061 28.8815 20.9468 28.8815 20.1915C28.8815 19.4362 29.4717 18.8769 30.2764 18.8769C31.0778 18.8769 31.6713 19.4325 31.6713 20.1915C31.6713 20.9505 31.0778 21.5061 30.2764 21.5061ZM30.2764 21.005C30.7318 21.005 31.0741 20.6745 31.0741 20.1915C31.0741 19.7085 30.7318 19.378 30.2764 19.378C29.8212 19.378 29.4789 19.7085 29.4789 20.1915C29.4789 20.6745 29.8212 21.005 30.2764 21.005Z" fill="white"/>
<path d="M35.0846 21.4625L34.4219 20.4385H34.0141V21.4625H33.4276V18.9205H34.0141V19.9482H34.4365L35.1065 18.9205H35.7294L34.8953 20.1479L35.7549 21.4625H35.0846Z" fill="white"/>
<path d="M37.9336 21.4625L37.7075 20.9178H36.5241L36.298 21.4625H35.6936L36.83 18.9205H37.4126L38.5526 21.4625H37.9336ZM36.7134 20.4711H37.5218L37.1176 19.4979L36.7134 20.4711Z" fill="white"/>
<path d="M40.6388 18.9205H41.229V21.4625H40.6388V20.4203H39.4806V21.4625H38.8907V18.9205H39.4806V19.9228H40.6388V18.9205Z" fill="white"/>
<path d="M44.1768 20.9832H44.5409V22H43.9981V21.4625H41.8676V18.9205H42.4539V20.9832H43.5902V18.9205H44.1768V20.9832Z" fill="white"/>
<path d="M46.768 18.9205V19.3999H45.9521V21.4625H45.3695V19.3999H44.5574V18.9205H46.768Z" fill="white"/>
<path d="M48.3192 21.5061C47.5142 21.5061 46.9243 20.9468 46.9243 20.1915C46.9243 19.4362 47.5142 18.8769 48.3192 18.8769C49.1203 18.8769 49.7141 19.4325 49.7141 20.1915C49.7141 20.9505 49.1203 21.5061 48.3192 21.5061ZM48.3192 21.005C48.7744 21.005 49.1167 20.6745 49.1167 20.1915C49.1167 19.7085 48.7744 19.378 48.3192 19.378C47.8638 19.378 47.5215 19.7085 47.5215 20.1915C47.5215 20.6745 47.8638 21.005 48.3192 21.005Z" fill="white"/>
<path d="M51.9354 20.1371C52.2449 20.2278 52.416 20.4385 52.416 20.7471C52.416 21.1902 52.0701 21.4625 51.4253 21.4625H50.1687V18.9205H51.3561C51.9463 18.9205 52.2958 19.1565 52.2958 19.5778C52.2958 19.8356 52.1611 20.0281 51.9354 20.1371ZM50.7553 19.3563V19.9737H51.3051C51.56 19.9737 51.6947 19.8683 51.6947 19.6649C51.6947 19.4652 51.56 19.3563 51.3051 19.3563H50.7553ZM51.4034 21.0268C51.6765 21.0268 51.8186 20.9215 51.8186 20.6999C51.8186 20.4857 51.6765 20.384 51.4034 20.384H50.7553V21.0268H51.4034Z" fill="white"/>
<path d="M54.8347 21.4625L54.6089 20.9178H53.4252L53.1995 21.4625H52.5947L53.7311 18.9205H54.314L55.4537 21.4625H54.8347ZM53.6146 20.4711H54.4232L54.0188 19.4979L53.6146 20.4711Z" fill="white"/>
<path d="M56.8954 18.9205C57.5764 18.9205 58.0027 19.2728 58.0027 19.8429C58.0027 20.4094 57.5764 20.7617 56.8954 20.7617H56.3817V21.4625H55.7918V18.9205H56.8954ZM56.8626 20.2823C57.2231 20.2823 57.4052 20.1189 57.4052 19.8429C57.4052 19.5633 57.2231 19.3999 56.8626 19.3999H56.3817V20.2823H56.8626Z" fill="white"/>
<path d="M59.6267 19.7557C60.2421 19.7557 60.5919 20.0281 60.5919 20.5765C60.5919 21.1611 60.1984 21.4625 59.543 21.4625H58.392V18.9205H58.9785V19.7557H59.6267ZM60.916 21.4625V18.9205H61.5023V21.4625H60.916ZM59.5102 21.0268C59.8124 21.0268 59.9981 20.8742 59.9981 20.5873C59.9981 20.3077 59.8161 20.1915 59.5102 20.1915H58.9785V21.0268H59.5102Z" fill="white"/>
</svg>
