<svg xmlns="http://www.w3.org/2000/svg" width="24" height="24" viewBox="0 0 24 24" fill="none"><rect width="24" height="24" fill="none"/>
<path d="M18.3333 2H5.66667C4.19391 2 3 3.19391 3 4.66667V19.3333C3 20.8061 4.19391 22 5.66667 22H18.3333C19.8061 22 21 20.8061 21 19.3333V4.66667C21 3.19391 19.8061 2 18.3333 2Z" fill="#000000"/>
<path d="M7.19974 11.4661C7.64157 11.4661 7.99974 11.8243 7.99974 12.2661C7.99974 12.7079 7.64157 13.0661 7.19974 13.0661C6.75791 13.0661 6.39974 12.7079 6.39974 12.2661C6.39974 11.8243 6.75791 11.4661 7.19974 11.4661Z" fill="#000000"/>
<path d="M7.19974 15.7333C7.64157 15.7333 7.99974 16.0915 7.99974 16.5333C7.99974 16.9752 7.64157 17.3333 7.19974 17.3333C6.75791 17.3333 6.39974 16.9752 6.39974 16.5333C6.39974 16.0915 6.75791 15.7333 7.19974 15.7333Z" fill="#000000"/>
<path d="M11.9989 11.4662C12.4407 11.4662 12.7989 11.8244 12.7989 12.2662C12.7989 12.7081 12.4407 13.0662 11.9989 13.0662C11.5571 13.0662 11.1989 12.7081 11.1989 12.2662C11.1989 11.8244 11.5571 11.4662 11.9989 11.4662Z" fill="#000000"/>
<path d="M11.9989 15.7335C12.4407 15.7335 12.7989 16.0917 12.7989 16.5335C12.7989 16.9753 12.4407 17.3335 11.9989 17.3335C11.5571 17.3335 11.1989 16.9753 11.1989 16.5335C11.1989 16.0917 11.5571 15.7335 11.9989 15.7335Z" fill="#000000"/>
<path d="M16.7997 11.4661C17.2415 11.4661 17.5997 11.8243 17.5997 12.2661C17.5997 12.7079 17.2415 13.0661 16.7997 13.0661C16.3578 13.0661 15.9997 12.7079 15.9997 12.2661C15.9997 11.8243 16.3578 11.4661 16.7997 11.4661Z" fill="#000000"/>
<path d="M16.7997 15.7333C17.2415 15.7333 17.5997 16.0915 17.5997 16.5333C17.5997 16.9752 17.2415 17.3333 16.7997 17.3333C16.3578 17.3333 15.9997 16.9752 15.9997 16.5333C15.9997 16.0915 16.3578 15.7333 16.7997 15.7333Z" fill="#000000"/>
<path fill-rule="evenodd" clip-rule="evenodd" d="M6.15 7.25C6.15 6.91863 6.41863 6.65 6.75 6.65H17.25C17.5814 6.65 17.85 6.91863 17.85 7.25C17.85 7.58137 17.5814 7.85 17.25 7.85H6.75C6.41863 7.85 6.15 7.58137 6.15 7.25Z" fill="#000000"/>
</svg>
