<svg xmlns="http://www.w3.org/2000/svg" width="144" height="24" viewBox="0 0 144 24" fill="none"><rect width="144" height="24" fill="none"/>
<path d="M66.2612 5V16.0314H64.9038V10.5313C64.9038 8.72893 64.9191 7.23218 64.949 6.04099C64.537 7.33574 64.0842 8.68749 63.5917 10.0962L61.5708 16.0314H60.349L58.449 10.5001C57.7856 8.65643 57.2876 7.18037 56.9561 6.07207V7.19074L56.9708 10.5313V16.0314H55.6592V5H57.8607L59.5348 9.86313C60.2287 11.7898 60.7115 13.2502 60.9825 14.2447C61.2339 13.3538 61.7064 11.8933 62.4003 9.86313L64.0592 5H66.2612ZM73.3556 16.0314V14.9749C73.084 15.3892 72.722 15.7103 72.2698 15.9382C71.8175 16.1557 71.2945 16.2645 70.7012 16.2645C69.8566 16.2645 69.1931 16.0677 68.7109 15.6741C68.2379 15.2805 68.0017 14.7263 68.0017 14.0116V13.9339C68.0017 13.1467 68.2684 12.5511 68.8012 12.1471C69.3439 11.7328 70.1787 11.4946 71.3048 11.4324L73.2951 11.2926V10.7643C73.2951 10.205 73.1395 9.78547 72.8276 9.50579C72.5163 9.21574 72.0635 9.07074 71.4703 9.07074C70.9777 9.07074 70.5303 9.17436 70.1281 9.38148C69.7363 9.57829 69.3341 9.90978 68.9215 10.3759L68.0921 9.59904C68.9672 8.51143 70.083 7.9676 71.4403 7.9676C72.4156 7.9676 73.1749 8.20585 73.7175 8.68233C74.2606 9.15877 74.5322 9.82169 74.5322 10.6711V16.0314H73.3556ZM71.3952 12.3801C70.6109 12.4216 70.0579 12.5563 69.7363 12.7841C69.4146 13.012 69.2535 13.3746 69.2535 13.8717V13.9495C69.2535 14.3534 69.3994 14.6641 69.6911 14.8817C69.9926 15.0992 70.415 15.208 70.9576 15.208C71.3903 15.208 71.787 15.1199 72.1489 14.9438C72.5109 14.7678 72.7928 14.5243 72.9936 14.2135C73.195 13.8925 73.2951 13.5299 73.2951 13.1259V12.287L71.3952 12.3801ZM84.2183 12.1161C84.2183 12.924 84.0675 13.6387 83.766 14.2602C83.4542 14.8817 83.0166 15.3633 82.4538 15.7051C81.8905 16.0469 81.2472 16.2179 80.5234 16.2179C79.166 16.2179 78.2108 15.7776 77.6579 14.8972V18.8281H76.3609V8.18516H77.5675V9.56792C78.1608 8.51143 79.1508 7.98313 80.5386 7.98313C81.2423 7.98313 81.8758 8.14888 82.4386 8.48031C83.0019 8.83249 83.4389 9.31414 83.7508 9.92531C84.0626 10.5364 84.2183 11.2408 84.2183 12.0383V12.1161ZM82.9061 12.0383C82.9061 11.4583 82.8005 10.9456 82.5894 10.5001C82.3684 10.0652 82.0565 9.72329 81.6543 9.47473C81.2625 9.22611 80.8151 9.1018 80.3122 9.1018C79.7995 9.1018 79.3369 9.22095 78.9249 9.45919C78.5026 9.70776 78.1755 10.0496 77.9447 10.4846C77.7134 10.9197 77.5975 11.4376 77.5975 12.0383V12.1161C77.5975 13.0172 77.844 13.7423 78.3366 14.2913C78.8291 14.8299 79.4828 15.0992 80.297 15.0992C80.7998 15.0992 81.2521 14.9697 81.6543 14.7108C82.0467 14.4622 82.3531 14.1151 82.5747 13.6698C82.7956 13.214 82.9061 12.6961 82.9061 12.1161V12.0383ZM88.2784 12.5666H86.9662V16.0314H85.6693V8.18516H86.9662V11.479H88.2937L90.7967 8.18516H92.1845L89.3343 11.9607L92.4256 16.0314H90.9474L88.2784 12.5666ZM100.156 8.18516V16.0314H98.9191V12.9084C98.9191 11.4272 98.9392 10.3189 98.9795 9.58345C98.7885 9.946 98.4364 10.5157 97.9237 11.2926L97.0942 12.5511L94.877 16.0314H93.4897V8.18516H94.7115V11.7742C94.7115 12.4268 94.7061 12.8515 94.6963 13.0483L94.6663 14.602C95.068 13.8873 95.6362 12.9654 96.3704 11.8364L98.7531 8.18516H100.156ZM109.904 12.1161C109.904 12.924 109.752 13.6387 109.451 14.2602C109.14 14.8817 108.702 15.3633 108.139 15.7051C107.576 16.0469 106.933 16.2179 106.209 16.2179C104.851 16.2179 103.896 15.7776 103.343 14.8972V18.8281H102.046V8.18516H103.252V9.56792C103.846 8.51143 104.836 7.98313 106.224 7.98313C106.927 7.98313 107.561 8.14888 108.124 8.48031C108.687 8.83249 109.124 9.31414 109.436 9.92531C109.748 10.5364 109.904 11.2408 109.904 12.0383V12.1161ZM108.592 12.0383C108.592 11.4583 108.486 10.9456 108.275 10.5001C108.053 10.0652 107.742 9.72329 107.34 9.47473C106.947 9.22611 106.5 9.1018 105.998 9.1018C105.485 9.1018 105.022 9.22095 104.61 9.45919C104.187 9.70776 103.861 10.0496 103.63 10.4846C103.398 10.9197 103.283 11.4376 103.283 12.0383V12.1161C103.283 13.0172 103.529 13.7423 104.022 14.2913C104.515 14.8299 105.168 15.0992 105.982 15.0992C106.485 15.0992 106.938 14.9697 107.34 14.7108C107.732 14.4622 108.039 14.1151 108.26 13.6698C108.481 13.214 108.592 12.6961 108.592 12.1161V12.0383ZM118.804 12.1161C118.804 12.924 118.638 13.6387 118.307 14.2602C117.965 14.892 117.493 15.384 116.889 15.7362C116.286 16.078 115.597 16.2489 114.823 16.2489C114.039 16.2489 113.351 16.0729 112.757 15.7207C112.144 15.3789 111.666 14.8972 111.324 14.2757C110.993 13.6542 110.827 12.9343 110.827 12.1161V12.0539C110.827 11.2563 110.998 10.552 111.34 9.94084C111.671 9.31935 112.138 8.83771 112.742 8.4959C113.345 8.14372 114.039 7.9676 114.823 7.9676C115.597 7.9676 116.286 8.1385 116.889 8.48031C117.493 8.82217 117.96 9.30382 118.292 9.92531C118.634 10.5468 118.804 11.2563 118.804 12.0539V12.1161ZM112.154 12.1161C112.154 12.7168 112.264 13.2399 112.486 13.6853C112.707 14.1514 113.019 14.5088 113.421 14.7574C113.823 15.0059 114.29 15.1302 114.823 15.1302C115.356 15.1302 115.824 15.0008 116.226 14.7418C116.628 14.4932 116.934 14.141 117.146 13.6853C117.367 13.2296 117.478 12.7065 117.478 12.1161V12.0539C117.478 11.4635 117.367 10.9456 117.146 10.5001C116.925 10.0548 116.608 9.70776 116.195 9.45919C115.794 9.21058 115.336 9.08627 114.823 9.08627C114.311 9.08627 113.853 9.20542 113.451 9.44366C113.048 9.69223 112.732 10.0444 112.501 10.5001C112.27 10.9559 112.154 11.4738 112.154 12.0539V12.1161ZM126.661 13.8407C126.661 14.5036 126.435 15.0371 125.983 15.441C125.53 15.8346 124.912 16.0314 124.128 16.0314H120.177V8.18516H123.947C124.681 8.18516 125.274 8.37159 125.726 8.74446C126.189 9.10701 126.42 9.59382 126.42 10.2049C126.42 10.6607 126.304 11.0388 126.073 11.3392C125.852 11.6396 125.54 11.8519 125.138 11.9762C125.611 12.0901 125.983 12.3129 126.254 12.6443C126.526 12.9654 126.661 13.3642 126.661 13.8407ZM121.458 11.5256H123.751C124.203 11.5256 124.545 11.4272 124.776 11.2304C125.018 11.0232 125.138 10.7332 125.138 10.3604C125.138 9.99781 125.018 9.71813 124.776 9.52132C124.545 9.32451 124.203 9.22611 123.751 9.22611H121.458V11.5256ZM125.349 13.7319C125.349 13.3487 125.219 13.0534 124.957 12.8463C124.696 12.6288 124.309 12.52 123.796 12.52H121.458V14.9749H123.796C124.309 14.9749 124.696 14.8713 124.957 14.6641C125.219 14.4466 125.349 14.1359 125.349 13.7319ZM130.812 12.5666H129.5V16.0314H128.203V8.18516H129.5V11.479H130.827L133.331 8.18516H134.718L131.868 11.9607L134.96 16.0314H133.481L130.812 12.5666ZM140.824 16.0314V14.9749C140.552 15.3892 140.19 15.7103 139.738 15.9382C139.285 16.1557 138.763 16.2645 138.17 16.2645C137.325 16.2645 136.661 16.0677 136.179 15.6741C135.706 15.2805 135.47 14.7263 135.47 14.0116V13.9339C135.47 13.1467 135.736 12.5511 136.269 12.1471C136.812 11.7328 137.647 11.4946 138.773 11.4324L140.763 11.2926V10.7643C140.763 10.205 140.607 9.78547 140.296 9.50579C139.984 9.21574 139.532 9.07074 138.939 9.07074C138.446 9.07074 137.999 9.17436 137.596 9.38148C137.204 9.57829 136.802 9.90978 136.39 10.3759L135.56 9.59904C136.435 8.51143 137.551 7.9676 138.908 7.9676C139.883 7.9676 140.643 8.20585 141.186 8.68233C141.728 9.15877 142 9.82169 142 10.6711V16.0314H140.824ZM138.863 12.3801C138.079 12.4216 137.526 12.5563 137.204 12.7841C136.882 13.012 136.721 13.3746 136.721 13.8717V13.9495C136.721 14.3534 136.867 14.6641 137.159 14.8817C137.46 15.0992 137.883 15.208 138.426 15.208C138.858 15.208 139.255 15.1199 139.617 14.9438C139.979 14.7678 140.261 14.5243 140.462 14.2135C140.663 13.8925 140.763 13.5299 140.763 13.1259V12.287L138.863 12.3801Z" fill="#000000" fill-opacity="0.9"/>
<path d="M8.59926 10.4357L12.4927 16.2278H10.313L6.96071 11.2875H5.35225V16.2278H3.44312V7.07502H2L2.96208 5.23207H5.35225V9.5839H6.96071L10.1476 5.23207H12.3123L8.59926 10.4357ZM11.9064 12.2631C11.9064 11.4062 12.0968 10.6577 12.4777 10.0175C12.8484 9.41869 13.3545 8.95928 13.9959 8.6392C14.6373 8.31912 15.3288 8.15911 16.0704 8.15911C16.8321 8.15911 17.5186 8.31398 18.1299 8.62372C18.7713 8.9438 19.2774 9.41869 19.6482 10.0485C20.019 10.668 20.2043 11.4062 20.2043 12.2631C20.2043 13.1304 20.019 13.879 19.6482 14.5088C19.2774 15.1283 18.7713 15.6083 18.1299 15.949C17.4985 16.2795 16.812 16.4446 16.0704 16.4446C15.3388 16.4446 14.6523 16.2795 14.011 15.949C13.3596 15.6187 12.8435 15.1386 12.4626 14.5088C12.0918 13.8686 11.9064 13.1201 11.9064 12.2631ZM44.3315 8.40693H46.0302V9.47548C46.2907 9.06251 46.6365 8.74763 47.0674 8.53078C47.5084 8.30364 48.0746 8.19007 48.7661 8.19007C49.4776 8.19007 50.109 8.35528 50.6602 8.68565C51.1914 9.02635 51.6022 9.51164 51.8929 10.1415C52.1935 10.7609 52.3438 11.4733 52.3438 12.2786C52.3438 13.0943 52.1935 13.817 51.8929 14.4468C51.6022 15.0663 51.1914 15.5464 50.6602 15.8871C50.4097 16.0626 50.114 16.1917 49.7733 16.2743C49.4426 16.3672 49.1068 16.4137 48.7661 16.4137C48.1748 16.4137 47.7339 16.3672 47.4433 16.2743C46.842 16.0884 46.416 15.7787 46.1655 15.345V19H44.3315V8.40693ZM21.1815 8.40693H23.0004V11.3804H26.1121V8.40693H27.916V16.2278H26.1121V12.9291H23.0004V16.2278H21.1815V8.40693ZM28.7128 8.40693H35.7029V9.89364H33.1173V16.2278H31.2683V9.89364H28.7128V8.40693ZM38.2133 8.40693C38.8948 10.3273 39.5161 12.227 40.0773 14.1061C40.6085 12.2477 41.2097 10.3479 41.8812 8.40693H43.7152L40.9191 16.3827C40.6886 17.0331 40.4682 17.5339 40.2577 17.8849C40.0272 18.236 39.7416 18.4992 39.4009 18.6748C39.0702 18.8606 38.6292 18.9536 38.078 18.9536C37.7674 18.9536 37.597 18.9484 37.5669 18.9381L36.9506 17.4513C37.141 17.4926 37.3765 17.5132 37.6571 17.5132C37.9978 17.5132 38.2734 17.4616 38.4839 17.3584C38.6743 17.2758 38.8196 17.1622 38.9198 17.0177C39.02 16.8835 39.1052 16.7131 39.1754 16.5066L36.2891 8.40693H38.2133ZM13.7554 12.2477C13.7554 13.1046 13.9558 13.7602 14.3567 14.2145C14.7576 14.6585 15.3138 14.8804 16.0253 14.8804C16.7469 14.8804 17.3081 14.6585 17.709 14.2145C18.1199 13.7602 18.3253 13.1046 18.3253 12.2477C18.3253 11.4114 18.1248 10.7816 17.724 10.3583C17.3232 9.92461 16.7569 9.70781 16.0253 9.70781C15.3038 9.70781 14.7426 9.92461 14.3417 10.3583C13.9508 10.7816 13.7554 11.4114 13.7554 12.2477ZM46.1204 12.2631C46.1404 13.0375 46.3409 13.657 46.7217 14.1216C47.1025 14.5862 47.6387 14.8185 48.3301 14.8185C49.0217 14.8185 49.5528 14.5862 49.9236 14.1216C50.3044 13.657 50.4998 13.0375 50.5099 12.2631C50.4998 11.4991 50.3044 10.89 49.9236 10.4357C49.5528 9.97111 49.0217 9.73877 48.3301 9.73877C47.6387 9.73877 47.1025 9.96591 46.7217 10.4202C46.3409 10.8745 46.1404 11.4888 46.1204 12.2631Z" fill="#000000"/>
</svg>
