<svg xmlns="http://www.w3.org/2000/svg" width="63" height="24" viewBox="0 0 63 24" fill="none"><rect width="63" height="24" fill="none"/>
<path d="M15.5079 1.03881L11.9874 1.95123L14.0871 9.59289L17.6076 8.68047L15.5079 1.03881Z" fill="#4AAFEA"/>
<path d="M11.7556 1L1.99839 3.52875L7.3485 23L17.1057 20.4712L11.7556 1Z" fill="#CA4BB0"/>
<path d="M4.8147 13.6677L1 14.6564L3.07804 22.2192L6.89274 21.2306L4.8147 13.6677Z" fill="#F7CA5D"/>
<path d="M9.45461 5.09853C10.0576 5.09853 10.6566 5.10614 11.2534 5.24475C11.872 5.34981 12.0418 5.40794 12.5175 5.58342C13.0522 5.78076 13.3926 5.92698 13.7815 6.1682C14.2442 6.45537 14.6149 6.78224 14.8996 6.94787L12.952 9.64487C12.7509 9.56205 12.3071 9.23304 12.0224 9.10877C11.7375 8.97074 11.2967 8.74571 10.9618 8.62153C10.6435 8.49726 9.94077 8.36109 9.94077 8.36109C9.94077 8.36109 9.30879 8.26364 9.06571 8.28042C8.43372 8.3291 8.15864 8.43269 8.04481 8.52399C7.96463 8.58837 7.70448 8.84842 7.6559 9.15754C7.61805 9.39818 7.68448 9.56283 7.80173 9.74231C7.92912 9.93721 8.43372 10.1809 8.82263 10.2783C9.19212 10.3709 9.45461 10.4565 9.94077 10.554C10.4269 10.7001 10.7187 10.7512 11.3021 10.8974C12.0799 11.0923 12.5984 11.3289 13.1008 11.5773C13.6034 11.8258 13.9653 12.1318 14.2835 12.4493C14.6186 12.7667 14.8699 13.1255 15.0374 13.5258C15.2048 13.9261 15.2885 14.3884 15.2885 14.9129C15.2885 15.5478 15.1462 16.1482 14.8615 16.7141C14.5934 17.2662 14.2481 17.8061 13.6842 18.2557C13.2731 18.5836 12.5332 18.9018 11.7962 19.1364C11.0592 19.371 10.3273 19.4229 9.40604 19.4229C8.75279 19.4229 8.27023 19.3691 7.55865 19.228C6.93954 19.1051 6.5041 18.9903 6.00292 18.7893C5.50183 18.5885 4.93335 18.3044 4.44719 18.0121C3.99956 17.7428 3.71795 17.6222 3.13454 17.1325L5.27368 14.5985C5.39093 14.6676 5.46818 14.7959 5.75984 14.9884C6.05871 15.1857 6.2815 15.3588 6.68358 15.5244C7.08556 15.6901 7.38297 15.8388 7.80173 15.963C8.77405 16.3041 9.60054 16.3041 10.3298 16.2067C10.8159 16.1092 11.3507 15.8264 11.3507 15.3295C11.3507 14.8327 10.9618 14.5985 10.4269 14.3549C9.94077 14.16 9.18744 14.0186 8.43372 13.7702C7.69677 13.5218 6.96139 13.4127 6.39183 13.1367C5.77271 12.888 5.13175 12.4892 4.78752 12.1133C4.40232 11.7683 4.276 11.5666 4.05828 11.1388C3.85402 10.6958 3.7993 9.80016 3.83159 9.17812C3.86378 8.55598 3.98229 8.00486 4.2838 7.52182C4.60209 7.02493 4.94886 6.51321 5.46818 6.1681C5.98741 5.80924 6.54604 5.54889 7.26689 5.33976C7.98784 5.13062 8.70089 5.09853 9.45461 5.09853Z" fill="white"/>
<path d="M20.0577 19.3585C19.3835 19.3585 18.8841 19.1962 18.5594 18.8716C18.2348 18.5469 18.0725 18.0974 18.0725 17.5231C18.0725 16.8905 18.3014 16.4119 18.7592 16.0872C19.2254 15.7626 19.9495 15.6003 20.9317 15.6003H21.8182V14.8137C21.8182 14.306 21.7141 13.923 21.506 13.665C21.298 13.3986 20.9567 13.2655 20.4822 13.2655C20.1159 13.2655 19.833 13.3196 19.6332 13.4278V13.4777C19.7164 13.5277 19.7955 13.6068 19.8704 13.715C19.9536 13.8149 19.9953 13.9564 19.9953 14.1395C19.9953 14.3809 19.9204 14.5807 19.7705 14.7388C19.629 14.8886 19.4168 14.9635 19.1338 14.9635C18.8924 14.9635 18.6926 14.8844 18.5345 14.7263C18.3846 14.5682 18.3097 14.36 18.3097 14.102C18.3097 13.9023 18.3639 13.7108 18.472 13.5277C18.5886 13.3362 18.7592 13.1698 18.9839 13.0283C19.2087 12.8784 19.4834 12.7619 19.808 12.6787C20.1409 12.5871 20.5239 12.5413 20.9567 12.5413C21.789 12.5413 22.4133 12.7328 22.8295 13.1157C23.2457 13.4902 23.4538 14.0188 23.4538 14.7013V18.472H24.2529V19.0963C24.128 19.1795 23.9615 19.2419 23.7535 19.2836C23.5454 19.3335 23.3331 19.3585 23.1167 19.3585C22.7005 19.3585 22.4008 19.2586 22.2177 19.0588C22.0346 18.8508 21.943 18.5886 21.943 18.2722V18.2348H21.8806C21.8224 18.3763 21.7475 18.5137 21.6559 18.6468C21.5643 18.78 21.4478 18.9007 21.3063 19.0089C21.1647 19.1088 20.9899 19.192 20.7819 19.2586C20.5821 19.3252 20.3407 19.3585 20.0577 19.3585ZM20.6945 18.3596C21.0274 18.3596 21.298 18.2805 21.506 18.1224C21.7141 17.9643 21.8182 17.6979 21.8182 17.3233V16.2745H21.1065C20.6071 16.2745 20.2492 16.3661 20.0327 16.5492C19.8247 16.724 19.7206 16.9779 19.7206 17.3108V17.5356C19.7206 17.8186 19.808 18.0267 19.9828 18.1599C20.1659 18.293 20.4031 18.3596 20.6945 18.3596ZM24.9717 18.4595H25.7708V11.0056L24.9717 10.8433V10.219L27.4064 9.71957V13.7524H27.4688C27.5271 13.5943 27.6062 13.4445 27.706 13.3029C27.8142 13.1531 27.9433 13.0241 28.0931 12.9159C28.2429 12.7993 28.4177 12.7078 28.6175 12.6412C28.8173 12.5746 29.042 12.5413 29.2917 12.5413C30.0825 12.5413 30.6444 12.7453 30.9773 13.1531C31.3102 13.5527 31.4767 14.1562 31.4767 14.9635V18.4595H32.2758V19.2087H29.0795V18.4595H29.8411V15.0385C29.8411 14.5473 29.7495 14.1936 29.5664 13.9772C29.3833 13.7524 29.0878 13.6401 28.6799 13.6401C28.5218 13.6401 28.3678 13.6608 28.218 13.7025C28.0681 13.7441 27.9308 13.8107 27.8059 13.9023C27.6894 13.9855 27.5937 14.0937 27.5188 14.2269C27.4439 14.36 27.4064 14.5183 27.4064 14.7013V18.4595H28.168V19.2087H24.9717V18.4595ZM35.0673 19.3585C34.3931 19.3585 33.8937 19.1962 33.569 18.8716C33.2444 18.5469 33.0821 18.0974 33.0821 17.5231C33.0821 16.8905 33.311 16.4119 33.7688 16.0872C34.235 15.7626 34.9591 15.6003 35.9413 15.6003H36.8278V14.8137C36.8278 14.306 36.7237 13.923 36.5157 13.665C36.3076 13.3986 35.9663 13.2655 35.4918 13.2655C35.1255 13.2655 34.8426 13.3196 34.6428 13.4278V13.4777C34.726 13.5277 34.8051 13.6068 34.88 13.715C34.9632 13.8149 35.0049 13.9564 35.0049 14.1395C35.0049 14.3809 34.93 14.5807 34.7801 14.7388C34.6386 14.8886 34.4264 14.9635 34.1434 14.9635C33.902 14.9635 33.7022 14.8844 33.5441 14.7263C33.3942 14.5682 33.3193 14.36 33.3193 14.102C33.3193 13.9023 33.3735 13.7108 33.4816 13.5277C33.5982 13.3362 33.7688 13.1698 33.9935 13.0283C34.2183 12.8784 34.493 12.7619 34.8176 12.6787C35.1505 12.5871 35.5335 12.5413 35.9663 12.5413C36.7986 12.5413 37.4229 12.7328 37.8391 13.1157C38.2553 13.4902 38.4634 14.0188 38.4634 14.7013V18.472H39.2625V19.0963C39.1376 19.1795 38.9711 19.2419 38.7631 19.2836C38.555 19.3335 38.3427 19.3585 38.1263 19.3585C37.7101 19.3585 37.4104 19.2586 37.2273 19.0588C37.0442 18.8508 36.9526 18.5886 36.9526 18.2722V18.2348H36.8902C36.832 18.3763 36.7571 18.5137 36.6655 18.6468C36.5739 18.78 36.4574 18.9007 36.3159 19.0089C36.1743 19.1088 35.9995 19.192 35.7915 19.2586C35.5917 19.3252 35.3503 19.3585 35.0673 19.3585ZM35.7041 18.3596C36.037 18.3596 36.3076 18.2805 36.5157 18.1224C36.7237 17.9643 36.8278 17.6979 36.8278 17.3233V16.2745H36.1161C35.6167 16.2745 35.2588 16.3661 35.0423 16.5492C34.8343 16.724 34.7302 16.9779 34.7302 17.3108V17.5356C34.7302 17.8186 34.8176 18.0267 34.9924 18.1599C35.1755 18.293 35.4127 18.3596 35.7041 18.3596ZM40.1311 18.4595H40.9302V13.8273L40.1311 13.665V13.0408L42.5409 12.5413V13.7524H42.6033C42.6615 13.5943 42.7364 13.4445 42.828 13.3029C42.9196 13.1531 43.0278 13.0241 43.1526 12.9159C43.2858 12.7993 43.4356 12.7078 43.6021 12.6412C43.7686 12.5746 43.9559 12.5413 44.164 12.5413C44.5635 12.5413 44.8757 12.6454 45.1004 12.8535C45.3334 13.0615 45.45 13.3487 45.45 13.715C45.45 14.0313 45.3709 14.2768 45.2128 14.4516C45.0547 14.6264 44.834 14.7138 44.551 14.7138C44.2681 14.7138 44.0516 14.6389 43.9018 14.4891C43.752 14.3393 43.677 14.1562 43.677 13.9397C43.677 13.8232 43.702 13.7192 43.752 13.6276C43.8019 13.536 43.8601 13.4777 43.9268 13.4528V13.4028C43.8935 13.3945 43.8352 13.3904 43.752 13.3904C43.6104 13.3904 43.469 13.432 43.3274 13.5152C43.1859 13.5901 43.057 13.69 42.9404 13.8149C42.8322 13.9314 42.7406 14.0646 42.6657 14.2144C42.5991 14.3642 42.5658 14.5141 42.5658 14.6639V18.4595H43.6146V19.2087H40.1311V18.4595ZM49.1775 18.5344C49.6269 18.5344 49.9599 18.3971 50.1763 18.1224C50.4011 17.8477 50.5134 17.4607 50.5134 16.9612V14.9386C50.5134 14.4391 50.4011 14.0521 50.1763 13.7774C49.9599 13.5027 49.6269 13.3654 49.1775 13.3654C48.728 13.3654 48.3909 13.5027 48.1661 13.7774C47.9497 14.0521 47.8415 14.4391 47.8415 14.9386V16.9612C47.8415 17.4607 47.9497 17.8477 48.1661 18.1224C48.3909 18.3971 48.728 18.5344 49.1775 18.5344ZM49.1775 19.3585C48.7113 19.3585 48.2868 19.2836 47.9039 19.1337C47.5294 18.9756 47.2047 18.7509 46.93 18.4595C46.6636 18.1599 46.4556 17.802 46.3058 17.3858C46.1559 16.9612 46.081 16.4826 46.081 15.9499C46.081 15.4172 46.1559 14.9428 46.3058 14.5265C46.4556 14.102 46.6636 13.7441 46.93 13.4528C47.2047 13.1531 47.5294 12.9284 47.9039 12.7786C48.2868 12.6204 48.7113 12.5413 49.1775 12.5413C49.6436 12.5413 50.0639 12.6204 50.4385 12.7786C50.8214 12.9284 51.146 13.1531 51.4124 13.4528C51.6871 13.7441 51.8993 14.102 52.0492 14.5265C52.199 14.9428 52.2739 15.4172 52.2739 15.9499C52.2739 16.4826 52.199 16.9612 52.0492 17.3858C51.8993 17.802 51.6871 18.1599 51.4124 18.4595C51.146 18.7509 50.8214 18.9756 50.4385 19.1337C50.0639 19.2836 49.6436 19.3585 49.1775 19.3585ZM53.1376 18.4595H53.9366V11.0056L53.1376 10.8433V10.219L55.5723 9.71957V16.0248H55.6347L56.4837 15.0509L57.9945 13.4403H57.2079V12.6912H59.9922V13.4403H59.1057L57.5575 15.001L59.7175 18.4595H60.3168V19.2087H57.2453V18.4595H57.8696L56.4587 16.0123L55.5723 16.9488V18.4595H56.3339V19.2087H53.1376V18.4595Z" fill="#CA4BB0"/>
</svg>
