<svg xmlns="http://www.w3.org/2000/svg" width="24" height="24" viewBox="0 0 24 24" fill="none"><rect width="24" height="24" fill="none"/>
<path d="M18.2391 4.18452C16.849 7.79647 13.159 7.31441 10.5549 7.42082L9.92893 9.88409C13.1402 7.26749 17.3875 9.86219 16.9335 13.812C16.8192 14.9617 16.3532 16.0482 15.6006 16.9243C14.8473 17.8005 13.8432 18.424 12.7239 18.7103C10.533 19.2581 8.11676 18.4412 7.03069 16.2064C6.87969 15.896 6.74897 15.5761 6.63942 15.2487L8.943 14.6571C8.98815 14.7902 9.04908 14.9174 9.12458 15.0358C10.6676 17.5241 13.7975 16.2878 14.1324 13.6963C14.4673 11.1047 10.8085 9.67127 9.12458 12.7417L7.08076 11.8684H7.04631L7.80687 8.81364C7.92897 8.26904 8.28885 6.85119 8.33272 6.71347C8.3984 6.50065 8.41095 6.43183 8.48291 6.23777C9.79435 2.79492 12.3828 2.44744 14.6864 2.44744H14.9587C12.5793 1.71055 10.0107 1.88803 7.75535 2.94528C5.50007 4.00253 3.7205 5.8634 2.76507 8.16367C1.80956 10.4639 1.74686 13.038 2.58936 15.382C3.43186 17.726 5.11879 19.6713 7.31998 20.837C9.52116 22.0027 12.0782 22.305 14.4905 21.6846C16.9029 21.0643 18.9965 19.566 20.3624 17.483C21.7284 15.4001 22.2676 12.8823 21.8748 10.4227C21.4821 7.96301 20.1853 5.73856 18.2391 4.18452Z" fill="white"/>
<path d="M17.3312 3.51108C16.9432 4.71297 16.2671 5.47039 15.2249 5.87414C14.1827 6.27788 12.8181 6.30919 11.538 6.31861C10.888 6.31209 10.2381 6.34026 9.59122 6.40312C10.6741 3.78338 12.6209 3.52356 14.6992 3.52356C14.9871 3.52356 15.2782 3.52356 15.5571 3.52356C15.8356 3.52356 16.1013 3.52356 16.3645 3.52356C16.7428 3.52356 17.0559 3.52356 17.3312 3.48605" fill="#008F32"/>
</svg>
