<svg xmlns="http://www.w3.org/2000/svg" width="24" height="24" viewBox="0 0 24 24" fill="none"><rect width="24" height="24" fill="none"/>
<path d="M18.025 8.22667C17.2369 8.22527 16.4666 8.46168 15.815 8.905V5H14.0492V12.2025C14.0492 14.3942 15.8325 16.1558 18.0158 16.1558C18.5387 16.1574 19.0567 16.0557 19.5402 15.8566C20.0237 15.6575 20.4631 15.3649 20.8332 14.9956C21.2034 14.6263 21.497 14.1875 21.6972 13.7045C21.8974 13.2215 22.0003 12.7037 22 12.1808C22 9.95666 20.235 8.22667 18.025 8.22667ZM10.0208 12.7083L8.40583 8.50417H7.16834L5.54333 12.7083L3.91917 8.50417H2L4.83916 15.8958H6.07666L7.78 11.4933L9.4925 15.8958H10.73L13.5608 8.50417H11.6458L10.0208 12.7083ZM18.0158 14.39C17.7265 14.391 17.4399 14.3347 17.1724 14.2245C16.905 14.1142 16.662 13.9522 16.4574 13.7476C16.2528 13.543 16.0908 13.3 15.9805 13.0326C15.8703 12.7651 15.814 12.4785 15.815 12.1892C15.815 10.9433 16.7608 9.99667 18.025 9.99667C19.2883 9.99667 20.235 10.9825 20.235 12.1883C20.235 13.395 19.2267 14.39 18.0117 14.39H18.0158Z" fill="black"/>
</svg>
