<svg xmlns="http://www.w3.org/2000/svg" width="24" height="24" viewBox="0 0 24 24" fill="none"><rect width="24" height="24" fill="none"/>
<path d="M9.78452 11.1615H10.683V8.74129H11.8697V7.90799H9.78452V11.1615ZM7.92832 10.4363C7.83023 10.4407 7.73229 10.4246 7.64075 10.3891C7.54921 10.3536 7.46606 10.2994 7.39661 10.23C7.32715 10.1606 7.27291 10.0775 7.23733 9.98598C7.20174 9.89446 7.18561 9.79654 7.18994 9.69845H9.4056C9.4056 9.69845 9.42032 9.53121 9.42032 9.35924C9.42032 8.37526 8.83656 7.8341 7.92595 7.8341C6.96354 7.8341 6.29379 8.53514 6.29379 9.5362C6.29379 10.537 6.95354 11.2578 7.91622 11.2578C8.80974 11.2578 9.41033 10.7437 9.42769 9.98375H8.54889C8.52243 10.124 8.4435 10.2488 8.3282 10.3328C8.21289 10.4169 8.06989 10.4538 7.92832 10.436V10.4363ZM7.92832 8.58194C8.00229 8.57168 8.07758 8.57634 8.14972 8.59564C8.22187 8.61495 8.28942 8.6485 8.34839 8.69434C8.40736 8.74017 8.45655 8.79734 8.49306 8.86249C8.52958 8.92764 8.55267 8.99945 8.56099 9.07367H7.23911C7.28365 8.92518 7.3768 8.79596 7.5036 8.70679C7.63041 8.61761 7.78351 8.57364 7.93831 8.58194H7.92832ZM4.72789 7.90773L4.10995 9.90224L3.50673 7.90773H2.51723L2 11.1615H2.82463L3.13728 9.1373L3.74523 11.1615H4.45179L5.08209 9.10049L5.38239 11.1615H6.21937L5.70267 7.90773H4.72789ZM13.5164 7.8291C12.5587 7.8291 12.0149 8.29874 12.0394 9.09812H12.97C12.97 8.75891 13.1472 8.6064 13.5187 8.6064C13.7848 8.6064 13.9521 8.71684 13.9521 8.88408C13.9521 8.99241 13.9103 9.03396 13.7478 9.08103L13.0091 9.28508C12.2905 9.47941 11.9705 9.77681 11.9705 10.2688C11.9705 10.8518 12.3938 11.2402 13.0168 11.2402C13.2154 11.2599 13.4153 11.2163 13.5877 11.1156C13.7601 11.0149 13.8962 10.8623 13.9765 10.6795V11.1713H14.8359V9.00004C14.8235 8.21512 14.3263 7.8291 13.5164 7.8291ZM13.1966 10.4828C12.9678 10.4828 12.8569 10.3721 12.8569 10.2099C12.8569 10.0474 12.9358 9.96377 13.1819 9.88751L13.9597 9.66873V9.72764C13.9635 9.87905 13.9205 10.0279 13.8366 10.154C13.7527 10.2801 13.632 10.3773 13.4909 10.4324C13.3973 10.4692 13.2971 10.486 13.1966 10.4828ZM19.2401 12.0298V12.8607H20.171V15.2833H21.0692V12.861H22.0001V12.0298H19.2401ZM15.0163 12.0298L14.3168 13.2373H13.96V12.0298H13.0615V15.2833H13.96V14.0367H14.3123L15.0631 15.2833H16.0773L15.0852 13.6233L16.0058 12.0298H15.0163ZM7.98512 11.9512C7.02743 11.9512 6.48101 12.4208 6.5081 13.2202H7.4387C7.4387 12.881 7.61593 12.7285 7.98748 12.7285C8.25359 12.7285 8.42083 12.8415 8.42083 13.0088C8.42083 13.1145 8.37876 13.156 8.21415 13.2028L7.47551 13.4072C6.75922 13.6039 6.4392 13.8989 6.4392 14.3906C6.4392 14.9712 6.86256 15.3622 7.4855 15.3622C7.68442 15.3837 7.88496 15.3405 8.0574 15.239C8.22985 15.1376 8.36503 14.9833 8.44292 14.799V15.2907H9.30462V13.1119C9.29226 12.3372 8.79502 11.9512 7.98512 11.9512ZM7.6601 14.6047C7.43607 14.6047 7.323 14.4942 7.323 14.3293C7.323 14.1645 7.40399 14.0835 7.65037 14.0146L8.42583 13.7955V13.8497C8.42831 13.9505 8.41012 14.0506 8.37238 14.1441C8.33463 14.2375 8.27814 14.3222 8.20639 14.3929C8.13463 14.4637 8.04913 14.519 7.95518 14.5554C7.86122 14.5918 7.76079 14.6086 7.6601 14.6047ZM11.4879 11.9509C11.3003 11.9392 11.1139 11.9878 10.9558 12.0895C10.7978 12.1912 10.6763 12.3407 10.6091 12.5163V12.0245H9.71063V16.1711H10.6091V14.8037C10.6784 14.9769 10.8008 15.1237 10.9586 15.2231C11.1165 15.3225 11.3018 15.3694 11.4879 15.357C12.2268 15.357 12.7188 14.7816 12.7188 13.6551C12.7188 12.5286 12.2339 11.9509 11.4882 11.9509H11.4879ZM11.2418 14.5258C10.8308 14.5258 10.5844 14.2455 10.5844 13.6551C10.5844 13.0648 10.8308 12.7821 11.2368 12.7821C11.6431 12.7821 11.845 13.0648 11.845 13.6551C11.845 14.2455 11.6383 14.5255 11.2368 14.5255H11.2421L11.2418 14.5258ZM4.72789 12.0298L4.10995 14.0217L3.50673 12.0298H2.51723L2 15.2833H2.82463L3.13728 13.2594L3.74523 15.2833H4.45179L5.08209 13.2226L5.38239 15.2833H6.21937L5.7024 12.0298H4.72789Z" fill="#8654CC"/>
<path d="M17.5365 14.5579C17.4385 14.562 17.3407 14.5457 17.2493 14.51C17.1579 14.4744 17.0749 14.4202 17.0055 14.3509C16.9361 14.2815 16.8818 14.1986 16.8461 14.1072C16.8104 14.0158 16.7941 13.918 16.7981 13.82H19.0137C19.0137 13.82 19.0285 13.6528 19.0285 13.4808C19.0285 12.4968 18.4473 11.9557 17.5341 11.9557C16.5717 11.9557 15.9019 12.6567 15.9019 13.6552C15.9019 14.6536 16.5617 15.3767 17.5244 15.3767C18.4179 15.3767 19.0185 14.8603 19.0382 14.1027H18.157C18.1312 14.2434 18.0525 14.3689 17.9371 14.4534C17.8218 14.538 17.6784 14.5753 17.5365 14.5576V14.5579ZM17.5365 12.7035C17.6105 12.6936 17.6858 12.6985 17.758 12.7179C17.8302 12.7374 17.8978 12.7709 17.9569 12.8167C18.016 12.8624 18.0654 12.9194 18.1023 12.9844C18.1392 13.0494 18.1628 13.1211 18.1718 13.1953H16.8473C16.8914 13.0465 16.9844 12.917 17.1113 12.8278C17.2382 12.7385 17.3916 12.6948 17.5465 12.7035H17.5365Z" fill="#8654CC"/>
</svg>
