<svg xmlns="http://www.w3.org/2000/svg" width="24" height="24" viewBox="0 0 24 24" fill="none"><rect width="24" height="24" fill="none"/>
<path d="M12 22C17.5228 22 22 17.5228 22 12C22 6.47716 17.5228 2 12 2C6.47716 2 2 6.47716 2 12C2 14.3609 2.81814 16.5307 4.18636 18.2414L5.64353 14.5358L10.6514 14.5339C11.6662 14.5339 12.5153 14.2767 13.1987 13.7623C13.8916 13.24 14.3148 12.5436 14.4683 11.6731C14.6064 10.8896 14.4282 10.3119 13.9336 9.94C13.4404 9.56019 12.6863 9.37025 11.6714 9.37025H10.8507L9.49188 12.8047H6.32426L8.72981 6.6875H12.5098C13.7521 6.6875 14.7903 6.87743 15.6244 7.25728C16.4682 7.62921 17.0722 8.16339 17.4366 8.85981C17.8091 9.55619 17.9109 10.3832 17.742 11.3407C17.5285 12.5515 17.0527 13.5921 16.3147 14.4626C15.5861 15.3253 14.6692 15.99 13.5639 16.4569C12.4586 16.9238 11.2442 17.1573 9.92087 17.1573H7.78491L6.51997 20.3661C8.09386 21.3992 9.97675 22 12 22Z" fill="url(#paint0_linear_8043_698)"/>
<defs>
<linearGradient id="paint0_linear_8043_698" x1="2" y1="2" x2="25.4266" y2="7.55848" gradientUnits="userSpaceOnUse">
<stop stop-color="#42C5F0"/>
<stop offset="1" stop-color="#0080FF"/>
</linearGradient>
</defs>
</svg>
