<svg xmlns="http://www.w3.org/2000/svg" width="24" height="24" viewBox="0 0 24 24" fill="none"><rect width="24" height="24" fill="none"/>
<path d="M11.9994 22C17.5222 22 21.9994 17.5228 21.9994 12C21.9994 6.47715 17.5222 2 11.9994 2C6.47654 2 1.99939 6.47715 1.99939 12C1.99939 17.5228 6.47654 22 11.9994 22Z" fill="#000000"/>
<path fill-rule="evenodd" clip-rule="evenodd" d="M18.3538 7.90155C18.6153 8.14748 18.628 8.55885 18.382 8.82036L12.529 15.0442V15.0442C11.7377 15.8857 10.4022 15.8904 9.60502 15.0546V15.0546L6.98363 12.3064C6.73585 12.0467 6.74556 11.6352 7.00533 11.3874C7.26509 11.1397 7.67653 11.1494 7.92431 11.4091L10.5457 14.1573C10.8282 14.4535 11.3015 14.4518 11.5819 14.1537L17.435 7.92976C17.6809 7.66825 18.0923 7.65562 18.3538 7.90155Z" fill="#000000"/>
</svg>
