<svg xmlns="http://www.w3.org/2000/svg" width="24" height="24" viewBox="0 0 24 24" fill="none"><rect width="24" height="24" fill="none"/>
<path d="M14.454 16.2745C14.454 15.5854 15.3247 14.7325 17.1432 14.7325C17.252 14.7325 17.3607 14.7325 17.4678 14.7431C17.3282 16.0682 16.2822 16.9749 15.2598 16.9749C14.7696 16.9749 14.454 16.745 14.454 16.2745ZM10.9264 9.03265H10.9483L10.3802 14.262C9.76686 14.0778 9.1409 13.9389 8.50735 13.8461L10.9264 9.03265ZM6.9858 13.7369C5.63629 13.7369 4.22105 14.0761 3.49152 14.885C3.08399 14.1106 2.87798 13.2452 2.89264 12.3694C2.89264 10.0389 4.40607 7.87311 7.31282 6.49829L6.94278 5.71059C3.53534 7.26153 2 9.82036 2 12.3694C2 13.573 2.28321 14.7341 3.03384 15.8366C3.01211 15.9596 3.00125 16.0843 3.00138 16.2093C3.00138 17.1388 3.57835 17.8059 4.77611 17.8059C6.02824 17.8059 7.09453 16.9415 7.73722 15.2356H6.80078C6.33253 16.3731 5.57056 16.9651 4.77611 16.9651C4.15532 16.9651 3.88347 16.6806 3.88347 16.2109C3.88347 15.4011 4.86294 14.58 6.99714 14.58C8.11678 14.5838 9.22914 14.7609 10.2951 15.1051L10.1433 16.5379H11.014L11.8304 8.82555C12.3315 8.71885 12.8422 8.6642 13.3544 8.66245C15.2703 8.66245 15.7929 9.34089 15.7929 10.074C15.7929 11.0476 14.9984 11.7252 13.0931 11.9445L13.3763 9.30828L12.5056 9.34089L11.7436 16.5387H12.6143L12.9949 12.8962C13.6438 12.7199 14.3118 12.6237 14.9838 12.61C16.2684 12.61 17.14 13.1351 17.4013 13.9146C17.3145 13.9058 17.2272 13.9023 17.14 13.904C14.6682 13.904 13.5694 15.1729 13.5694 16.2891C13.5694 17.2734 14.2998 17.8205 15.246 17.8205C16.6255 17.8205 18.1202 16.7042 18.3296 14.8776C18.9598 15.0253 19.5625 15.2731 20.1149 15.6115C18.6234 17.832 15.6079 19.2867 11.9935 19.2867C10.2188 19.2867 7.99853 18.9042 6.52894 17.8866L6.07125 18.6205C7.51976 19.6707 9.8382 20.1633 11.9951 20.1633C17.863 20.1633 22 16.6838 22 12.3849C22 7.8674 17.5035 4.60731 12.0065 4.60731C11.6689 4.60731 11.4295 4.61791 11.1025 4.63993L11.1893 5.50429C11.4506 5.49368 11.7338 5.48227 11.9951 5.48227C16.9047 5.48227 21.1073 8.45775 21.1073 12.3849C21.1094 13.249 20.9151 14.1021 20.5393 14.8793C19.9842 14.518 19.1784 14.1902 18.3183 14.0263C18.1333 12.9761 17.2739 12.0791 15.6079 11.9062C15.9344 11.7253 16.2069 11.4598 16.3967 11.1373C16.5867 10.8148 16.6873 10.4471 16.688 10.0723C16.688 8.72685 15.741 7.81847 13.3568 7.81847C12.8791 7.81966 12.4022 7.86002 11.931 7.93914L12.026 7.01691L11.1447 6.77636L10.3827 8.28898C9.15249 8.64775 7.95473 9.17534 7.2471 9.57979L7.63906 10.3349C8.35404 9.96608 9.09216 9.64436 9.84874 9.37187L7.65041 13.7589C7.42155 13.7475 7.20327 13.7369 6.9858 13.7369ZM10.394 5.91526C10.394 4.96365 9.31641 4.1099 8.12188 3.83673C8.00204 4.32763 7.93563 4.83017 7.92388 5.33549C7.92388 6.67035 8.60959 7.06338 9.25229 7.06338C9.93637 7.06338 10.3933 6.6043 10.3933 5.91526H10.394Z" fill="white"/>
</svg>
