<svg xmlns="http://www.w3.org/2000/svg" width="24" height="24" viewBox="0 0 24 24" fill="none"><rect width="24" height="24" fill="none"/>
<path fill-rule="evenodd" clip-rule="evenodd" d="M22 12.0023C22 17.5273 17.5258 22.0002 12.0029 22.0002C6.47917 22.0002 2 17.5269 2 12.0023C2 6.47774 6.47917 2.00024 12.0029 2.00024C17.5262 2.00024 22 6.47774 22 12.0023ZM11.2242 6.82233C9.6575 6.82233 8.64125 6.90858 7.90542 7.18191C6.66917 7.66358 5.81542 8.67316 5.81542 9.99941C5.81542 11.1044 6.33 11.9044 7.81875 12.8244C9.4075 13.7877 9.72417 14.1061 9.72417 14.6861C9.72417 15.3215 9.10208 16.0444 7.50083 16.0444C6.9425 16.0444 6.10042 15.9669 5.5625 15.8352L5.30583 15.7707C5.16292 16.1544 4.83792 17.0623 4.73875 17.3915L4.99292 17.4665C5.47625 17.6207 6.625 17.7415 7.44708 17.7415C10.1837 17.7415 11.8167 16.0877 11.8167 14.3569C11.8167 13.2932 11.3333 12.4844 9.70125 11.4661C8.8825 10.9619 8.46542 10.6357 8.21167 10.3827C8.00667 10.119 7.98375 9.92233 7.98375 9.71483C7.98375 9.51691 8.02792 9.28858 8.15875 9.12149C8.29958 8.91441 8.55875 8.78274 8.90958 8.67399C9.27 8.55441 9.9375 8.55149 10.9775 8.55149H11.9462L12.6379 6.82233H11.2242ZM13.6767 6.82233H18.5433C18.7717 6.82233 18.8154 6.98399 18.7275 7.15983C18.4092 7.94858 15.4067 15.4711 15.4067 15.4711H13.4C13.4 15.4711 15.7712 9.42816 16.165 8.52816C16.0741 8.52816 15.9906 8.53064 15.879 8.53396L15.8779 8.53399C15.655 8.54108 15.3212 8.55149 14.5979 8.55149H12.985L13.6767 6.82233Z" fill="#000000"/>
</svg>
