<svg xmlns="http://www.w3.org/2000/svg" width="76" height="24" viewBox="0 0 76 24" fill="none"><rect width="76" height="24" fill="none"/>
<path fill-rule="evenodd" clip-rule="evenodd" d="M51.7756 17.8173H53.1545V16.6125H53.1997V16.6991H53.2412V16.7401L53.2845 16.7424L53.2868 16.7856H53.3278V16.8722H53.373V16.9134L53.4578 16.9155L53.4599 17.0003H53.5011V17.0417H53.5426V17.0869H53.5878V17.128L53.6725 17.1302L53.6748 17.1735H53.7159V17.2149H53.7611V17.3015H53.8477V17.3466H53.8892V17.3881H54.0173V17.4291L54.0606 17.4314L54.0629 17.4747H54.1039V17.5161H54.1906V17.5613H54.2358V17.6027H54.4049L54.4072 17.646L54.492 17.6481V17.6893H54.5782L54.5805 17.7326L54.6653 17.7347V17.7757L54.7952 17.7777L54.7975 17.8172L55.0966 17.8192L55.0989 17.8625H55.3133V17.9039H56.4322V17.8625H56.6507V17.8173H56.9521V17.7759H57.1254V17.7347L57.2102 17.7326L57.2124 17.6893H57.295V17.6478H57.3812L57.3835 17.6045L57.5549 17.6025V17.5613H57.6001V17.5161H57.683V17.4747H57.7697V17.3881H57.9015V17.3469L57.9863 17.3448L57.9885 17.3015H58.0296V17.2604L58.0729 17.2582L58.0752 17.2149H58.1163V17.1735H58.1573L58.1596 17.1302L58.2444 17.128V17.0869H58.2896V17.0417H58.331V17.0003H58.3762V16.9588H58.4177V16.9137H58.4629V16.8722H58.5043V16.8271H58.5458V16.7856H58.591V16.6991H58.6776V16.6125H58.7187L58.7209 16.5692L58.7643 16.5669V16.4847L58.849 16.4826L58.8512 16.3978H58.8924V16.3527H58.9376V16.2247H58.979V16.1795H59.0204V16.0966H59.0657V16.01H59.1067L59.109 15.9667L59.1523 15.9645V15.7917H59.1935L59.1956 15.707L59.239 15.7047V15.6222H59.2804V15.536L59.3237 15.5338L59.3258 15.4039H59.3671V15.1893H59.4085V15.0613H59.4537V14.8881H59.4951V14.6735H59.5404V14.4551H59.5818V12.821H59.5404V12.5613H59.4951V12.3466H59.4537V12.2149H59.4085V12.0417H59.3671V11.8271H59.3259L59.3237 11.7424L59.2804 11.7401V11.6125H59.2393L59.2371 11.5692L59.1938 11.5669V11.4393H59.1523V11.3527H59.1071V11.2661H59.0657V11.1795H59.0204V11.1381H58.979V11.0515H58.9376V10.9235H58.8509V10.8369H58.8057V10.7917H58.7643V10.7092L58.7209 10.707L58.7187 10.6637H58.6776V10.6226L58.6343 10.6204L58.632 10.5771H58.591V10.536L58.5476 10.5338L58.5455 10.4491H58.4632L58.461 10.4058L58.4177 10.4035V10.3625H58.3766L58.3743 10.3192L58.331 10.3169V10.2759H58.2896V10.2348L58.2462 10.2326L58.244 10.1893H58.2029V10.1478H58.1163V10.1027H58.0748V10.0613H58.0296V10.0161H57.943V9.97466H57.8563V9.92947H57.8149V9.88844L57.7715 9.88618L57.7693 9.84689L57.6849 9.84476L57.6826 9.80146H57.6001V9.76022L57.4701 9.75816L57.4679 9.71487H57.3816V9.6737L57.2968 9.67157L57.2946 9.62827H57.2121V9.58685H57.1258L57.1235 9.54356L56.8655 9.54158V9.50026H56.6511L56.6488 9.45696L56.4322 9.45496V9.41366H55.3547V9.45508H55.14V9.50026H55.0119V9.54167H54.7975L54.7952 9.58497L54.6653 9.58703V9.62827H54.5786V9.67345H54.492V9.71487H54.4505V9.76005H54.2772V9.80146H54.2362L54.2339 9.84476L54.1491 9.84689V9.88806H54.1039V9.92923L54.0191 9.93136L54.0169 9.97466H53.9758V10.0161H53.8892V10.0613H53.8025V10.1027H53.7611V10.1893H53.6748L53.6725 10.2326L53.5878 10.2347V10.2759H53.5426V10.3625H53.5011V10.4039H53.4601L53.4578 10.4472L53.373 10.4493V10.4905H53.3278V10.5771H53.2864V10.6637H53.1997V10.7503H53.1545V5.70508H51.7756V17.8173ZM28.1386 9.45498L27.8805 9.45696L27.8783 9.50026H27.7054V9.54167H27.4492V9.58685H27.3173V9.62827H27.2348L27.2325 9.67157L27.1026 9.67363V9.71487H27.0615L27.0592 9.75816L26.8878 9.76019V9.80146H26.8426V9.84664H26.7601L26.7578 9.88618L26.6731 9.88831V9.9291L26.6297 9.93136L26.6275 9.97466H26.5864V10.0161H26.4998V10.0613H26.4546V10.1027H26.3717V10.1893H26.3265V10.2344H26.2398V10.2759H26.1984V10.3169L26.155 10.3192L26.1529 10.4039H26.1117V10.4491H26.0665V10.4905H26.0251V10.5357H25.9839L25.9817 10.6204L25.9384 10.6226V10.6637H25.8972L25.8951 10.7484L25.8518 10.7506V10.8369H25.8106L25.8084 10.9216L25.7651 10.9238V10.9649H25.7238L25.7218 11.0948L25.6785 11.097V11.2661H25.637V11.3978H25.5918V11.5673H25.5504V11.7857H25.5089V12.0869H26.8878V12.0003H26.9293V11.8271H26.9745V11.6125H27.0159V11.5259H27.0611V11.4393H27.1026V11.3527H27.1478V11.3113H27.1892V11.2661H27.2304L27.2325 11.1814L27.2759 11.1791V11.0929H27.3625V11.0515H27.4492V10.9649H27.5358V10.9235H27.5773V10.8783H27.6639V10.8369H27.7916L27.7939 10.7936L27.8787 10.7914V10.7503H28.0105V10.7051H28.1386V10.6637H28.3986V10.6184L28.9995 10.6204L29.0017 10.6637H29.2613V10.7049L29.3875 10.707L29.3898 10.7503H29.5175V10.7917H29.6041V10.8369H29.736V10.8783H29.7775V10.9235H29.8641V10.9649H29.9052L29.9074 11.0082L29.9508 11.0104V11.0515H29.9922V11.0925L30.0355 11.0948L30.0378 11.1381H30.0788V11.2247H30.1241V11.2661H30.1655V11.3113H30.2107V11.5259H30.2522V11.5673H30.2936V11.7405H30.3388V11.9551H30.3802V12.9039H28.0975L28.0953 12.9472L27.8372 12.9492V12.9905H27.6639V13.0356H27.4906V13.0771H27.3173V13.1222H27.1892V13.1637H26.9748L26.9726 13.207L26.8464 13.209V13.2503H26.7597V13.2917H26.6731V13.3369H26.5864V13.3781L26.4564 13.3802L26.4542 13.4235H26.3717V13.4649H26.3265V13.51H26.2398V13.5515H26.1987L26.1965 13.5948L26.1117 13.5969V13.6381H26.0254L26.0232 13.6814L25.984 13.6836L25.9817 13.7228L25.9384 13.725V13.7661H25.8974L25.8951 13.8094L25.8103 13.8115V13.8527H25.7651V13.8978H25.7237V13.9393H25.6785V14.0259H25.6374L25.6351 14.0692L25.5918 14.0714V14.1125H25.5504V14.1991H25.5089V14.2405H25.4637V14.3271H25.4223V14.4137H25.3771V14.5003H25.3356V14.5869H25.2904V14.7149H25.2491L25.2471 14.9314L25.2037 14.9336L25.2056 16.0082L25.249 16.0104V16.3113H25.2904V16.4393H25.3356V16.5259H25.3771V16.6125H25.4223V16.6991H25.4637V16.8267L25.507 16.8289L25.5092 16.9137H25.5918V17.0003H25.637V17.0417H25.6785V17.1283H25.7651V17.1735H25.8103V17.2149H25.8518V17.26H25.897V17.3015H25.9384V17.3881H26.0251V17.4292L26.1098 17.4314L26.1121 17.4747H26.1532V17.5157L26.1965 17.518L26.1987 17.5613H26.285V17.6027H26.4131V17.6478H26.4998V17.6893H26.5864V17.7344H26.6731V17.7759H26.8012V17.8172L27.0592 17.8192L27.0615 17.8625H27.3173V17.9039H28.5681V17.8625H28.7866V17.8173H29.0428V17.7759H29.1747V17.7347L29.2594 17.7326L29.2617 17.6893H29.3442V17.6478H29.4305L29.4327 17.6045L29.5627 17.6025V17.5613H29.6494V17.5161H29.6908V17.4747H29.7319L29.7341 17.4314L29.8189 17.4292V17.3881H29.9055V17.347L29.9489 17.3448L29.9511 17.3015H29.9922V17.2604L30.0355 17.2582L30.0378 17.2149H30.0788V17.1735H30.1241V17.1283H30.1655V17.0869H30.2066L30.2088 17.0436L30.2522 17.0413V17.0003H30.2936V16.9588H30.3388V16.9137H30.3802V17.8173H31.7629V11.6125H31.7177V11.4393H31.6763V11.2661H31.631V11.1381H31.5896V11.0104L31.5463 11.0082L31.5441 10.9235H31.5029V10.7506L31.4596 10.7484L31.4573 10.7088H31.4163V10.6637H31.3749V10.5771H31.3296V10.4905H31.2882V10.4039H31.243V10.3625H31.2019L31.1997 10.3192L31.1563 10.3169V10.2347L31.0716 10.2326L31.0694 10.1478H31.0282V10.1027H30.983V10.0613H30.9005L30.8983 10.018L30.8549 10.0157V9.97466H30.8139L30.8116 9.93136L30.7269 9.92923V9.88806H30.6816V9.84689L30.5969 9.84476L30.5947 9.76005H30.4255V9.71487H30.3802V9.6737L30.2955 9.67157L30.2932 9.62827H30.1655V9.58685H30.0788V9.54167H29.8189V9.50026H29.6497L29.6475 9.45696L29.3894 9.45498V9.41366H28.1386V9.45498ZM37.5836 9.45508H37.3689V9.50026H37.1956V9.54167H36.9808V9.58685H36.8527V9.62827H36.7661V9.67345H36.6794V9.71487H36.5928V9.76005H36.4647V9.80146H36.4195V9.84664H36.3328V9.88806H36.2914V9.9291L36.2481 9.93136L36.2458 9.97466H36.2047V10.0161H36.1181V10.0613H36.0766V10.1027H36.0314V10.1478H35.99V10.1893H35.9448V10.2344H35.8581V10.3173H35.8167V10.3625H35.7715V10.4039H35.73V10.4491H35.6434V10.5771H35.602L35.6001 9.54356L34.1778 9.54166V17.8173H35.6019V12.3015H35.6434V12.1735H35.6847L35.6867 12.0436L35.73 12.0413V11.9551H35.7715V11.8722H35.8167V11.7405H35.8581V11.6991H35.9033V11.6125H35.9448V11.5673H35.99V11.5259H36.0314V11.4393H36.0729V11.3978H36.1181V11.3527H36.1595V11.3113H36.2458L36.2481 11.268L36.2914 11.2657V11.1795H36.3328V11.1381H36.378V11.0929H36.5061V11.0515H36.5476V11.01H36.6342V10.9649H36.7209V10.9235H36.7661V10.8783H36.8527V10.8369H37.0675V10.7917H37.1956V10.7503H37.3689V10.7051H37.6288V10.6637H37.9302V10.705L38.275 10.707L38.2772 10.7503H38.4464V10.7915L38.5763 10.7936L38.5786 10.8369H38.7478V10.8783H38.8344V10.9235H38.8796V10.9649H38.9663V11.01H39.0077V11.0515H39.0529V11.0929H39.1358V11.1381H39.181V11.2247H39.2225V11.2661H39.2677V11.3113H39.3089L39.311 11.396L39.3543 11.3982V11.4807H39.3958V11.5259H39.441V11.6125H39.4824V11.7401L39.5257 11.7424L39.5277 11.9547L39.5672 11.957L39.5692 12.1735H39.6105L39.6124 12.5594L39.6557 12.5616V17.8173H41.0346V12.1735H40.9932V11.8726L40.9498 11.8704L40.9479 11.6125H40.9065V11.4848L40.8632 11.4826L40.8612 11.3113H40.8199V11.097L40.7765 11.0948L40.7744 11.01H40.7332V10.9235H40.6918V10.8369H40.6466V10.7503H40.6051V10.6637H40.5599V10.5771H40.5185V10.4905H40.4733V10.4491H40.4318V10.4039H40.3866V10.3173H40.3452V10.2347L40.2604 10.2326L40.2581 10.1893H40.2171V10.1482L40.1737 10.146L40.1715 10.1027H40.1304V10.0161H40.0438V9.97466H39.9986V9.92947H39.9119V9.84664H39.829V9.80146H39.7838V9.76005H39.6557V9.71487H39.5691V9.67345H39.4824V9.62827H39.441V9.58685H39.3091V9.54167H39.0944V9.50026H38.9211V9.45508H38.7063V9.41366H37.5836V9.45508ZM45.7364 9.45508H45.4806L45.4783 9.49838L45.3069 9.5004V9.54167H45.0059L45.0036 9.58497L44.9189 9.5871V9.62827H44.787V9.67345H44.7003V9.71487H44.6589V9.76005H44.4856V9.80146H44.4445L44.4423 9.84476L44.3575 9.84689V9.88806H44.2709V9.97466H44.1842V10.0161H44.0976V10.0613H44.0561V10.1027H44.0109V10.1478H43.9695V10.1893H43.9243V10.2344H43.8376V10.2759H43.7962V10.3625H43.7547V10.4039H43.7095V10.4491H43.6229V10.5357H43.5817L43.5795 10.6204L43.5362 10.6226V10.6637H43.4948V10.7503H43.4496V10.8369H43.4081V10.8783H43.3667V11.0515H43.3215V11.1381H43.2803L43.2781 11.2228L43.2348 11.225V11.3527H43.1935L43.1915 11.4826L43.1482 11.4848V12.0869H44.4854L44.4875 11.957L44.5308 11.9547V11.7857H44.5723V11.6539H44.6134L44.6156 11.5692L44.6589 11.5669V11.4393H44.7003V11.3527H44.7456V11.3113H44.787V11.2661H44.8322V11.1795H44.8734L44.8755 11.0948L44.9603 11.0926V11.0515H45.0017V11.01H45.0884V10.9235H45.175V10.8783H45.2617V10.8369H45.3894L45.3917 10.7936L45.4764 10.7914V10.7503H45.6083V10.7051H45.7816V10.6637H45.9964V10.6185H46.5991V10.6637H46.8591V10.7051H46.9872V10.7503H47.1191V10.7917H47.2016L47.2038 10.835L47.3338 10.837V10.8783H47.4205V10.9646L47.5052 10.9667L47.5075 11.01H47.5485V11.0515H47.5938V11.0925L47.6333 11.0948L47.6356 11.1381H47.6766V11.2247H47.7219V11.3113H47.7633V11.3527H47.8085V11.4393H47.8499V11.5259H47.8952V11.7857H47.9366V12.0413L47.9799 12.0436L47.9818 12.9039H45.695V12.9491H45.435V12.9905H45.2617V13.0356H45.0884V13.0771H44.9603V13.1222H44.787V13.1637H44.5723V13.2088H44.4856V13.2503H44.3575V13.2917H44.2709V13.3369H44.1842V13.3783H44.0565L44.0542 13.4216L43.9695 13.4237V13.4649H43.9243V13.51H43.8376V13.5515H43.7965L43.7943 13.5948L43.7095 13.5969V13.6381H43.6229V13.6832H43.5814V13.7247H43.5362V13.7661H43.4948V13.8113H43.4081V13.8527H43.3667V13.9393H43.3215V13.9844H43.28V14.0259H43.2348V14.071H43.1934V14.1125H43.1482V14.1991H43.1067V14.2856H43.0615V14.3271H43.0201V14.4137H42.9749V14.5003H42.9334V14.5417H42.8921L42.8901 14.7582L42.8468 14.7604V14.9332H42.8053V15.1893H42.7601V15.7913L42.8034 15.7936L42.8054 16.0515H42.8468V16.2247H42.892V16.4844H42.9334V16.5673H42.9749V16.6539H43.0201V16.6991H43.0615V16.7856H43.1067V16.8722H43.1479L43.15 16.957L43.1934 16.9592V17.0003H43.2348V17.0413L43.2781 17.0436L43.2803 17.128L43.3648 17.1302L43.3669 17.2149H43.4081V17.26H43.4496V17.3015H43.4948V17.3466H43.5814V17.3881H43.6229V17.4295H43.7095V17.4747H43.7547V17.5161H43.7962V17.5613H43.8828V17.6027H44.0109V17.6478H44.0976V17.6893H44.1842V17.7344H44.2709V17.7759H44.399V17.8173H44.7003V17.8625H44.9189V17.9039H46.1244V17.8625H46.3388L46.3411 17.8192L46.6444 17.8172V17.7759H46.7724V17.7344H46.8591V17.6893H46.9458V17.6481L47.0305 17.646L47.0328 17.6027H47.1605V17.5613H47.2472V17.5161H47.2886V17.4747H47.3752V17.3881H47.5033V17.3466H47.5485V17.3015H47.59V17.26H47.6352V17.2149H47.6766V17.1735H47.7219V17.1283H47.8085V17.0417H47.8499V17.0003H47.8952V16.9588H47.9366V16.9133L47.9799 16.9155L47.9818 17.8173H49.3607V11.7405H49.3155V11.4844H49.274V11.3527H49.2288V11.1795H49.1874V10.9649H49.146V10.9235H49.1007V10.7917H49.0593V10.7092L49.016 10.707L49.0137 10.6637H48.9726V10.536L48.9293 10.5338L48.9272 10.4493L48.8427 10.4472L48.8405 10.3625H48.7993V10.3173H48.7579V10.2759H48.7127V10.2344H48.6712V10.1893H48.626V10.1478H48.5846V10.1027H48.5394V10.0613H48.4979V10.0161H48.4527V9.9749L48.368 9.97277L48.3657 9.92947H48.3246V9.88806H48.2832V9.84702L48.2399 9.84476L48.2376 9.80146H48.1513V9.7603L48.0666 9.75816L48.0643 9.71487H47.978V9.67345H47.8499V9.62827H47.8085V9.58685H47.6766V9.54167H47.4205V9.50026H47.2472V9.45508H46.9872V9.41366H45.7364V9.45508ZM63.7674 9.45508H63.5075V9.50026H63.3342V9.54167H63.0784L63.0761 9.58497L62.9461 9.58703V9.62802L62.8614 9.63015L62.8591 9.67345H62.7766V9.71487H62.6903L62.6881 9.75816L62.5581 9.76022V9.80146H62.4714V9.84664H62.389L62.3867 9.88618L62.3433 9.88844V9.92947H62.3019V9.97466H62.2153V10.0161H62.1286V10.0613H62.0834V10.1027H62.0419V10.1478H62.0005V10.1893H61.9553V10.2344H61.9139V10.2759H61.8686V10.3173H61.8272V10.3625H61.782V10.4039H61.7406V10.4491H61.6953V10.5357H61.6539V10.5771H61.6087V10.6637H61.5261L61.5239 10.7484L61.4806 10.7506V10.8783H61.4392V10.9649H61.3939V11.0515H61.3525V11.1381H61.3073V11.2247H61.266L61.264 11.4826L61.2206 11.4848V11.6991H61.1792V12.0869H62.5581V11.8271H62.6033V11.6991H62.6447V11.5673H62.6899V11.4807H62.7314V11.4393H62.7728V11.3113H62.818V11.2661H62.8592L62.8614 11.1814L62.9047 11.1791V11.1381H62.9458L62.948 11.0948L62.9913 11.0925V11.0515H63.078V11.01H63.1194V10.9649H63.1646V10.9235H63.2061V10.8783H63.2927V10.8369H63.466V10.7917H63.5075V10.7503H63.6808V10.7051H63.8089V10.6637H64.0688V10.6184L64.6283 10.6204L64.6306 10.6637H64.8901V10.7051H65.0597V10.7503H65.1463V10.7917H65.233V10.8369H65.3648V10.8783H65.4474L65.4496 10.9216L65.4929 10.9238V10.9649H65.534L65.5363 11.0082L65.5796 11.0104V11.0515H65.621V11.0929H65.7077V11.1791L65.751 11.1814L65.7533 11.2247H65.7943V11.3527H65.8358V11.4393H65.881V11.5259H65.9224V11.6125H65.9676V11.7857H66.0091V12.9039L63.7241 12.9058L63.7219 12.9491H63.5075V12.9905H63.2927V13.0356H63.1194V13.0771H62.9913V13.1222H62.818V13.1637H62.6037L62.6014 13.207L62.5166 13.2091V13.2503H62.3886V13.2917H62.3433V13.3369H62.2567V13.3781L62.0853 13.3802L62.083 13.4235H62.0005V13.4649H61.9553V13.51H61.9139V13.5515H61.8276L61.8253 13.5948L61.7406 13.5969V13.6381H61.6953V13.6832H61.6539V13.7247H61.6087V13.7661H61.5262L61.5239 13.8094L61.4806 13.8116V13.8527H61.4395L61.4373 13.896L61.3939 13.8982V13.9393H61.3525V13.9844H61.3073V14.0259H61.2659V14.1125H61.2206V14.1539H61.1792V14.2405H61.1381L61.1359 14.2838L61.0926 14.286V14.3271H61.0511V14.4137H61.0059V14.5417H60.9646L60.9626 14.6716L60.9193 14.6738V14.76H60.8779L60.8759 14.9314L60.8326 14.9336V15.1893H60.7912V15.7917H60.8326V16.0515H60.8778V16.2247H60.9193V16.3527H60.9645V16.4844H61.0059V16.6535L61.0492 16.6558L61.0515 16.6991H61.0926V16.7856H61.1378V16.8271H61.1792V16.9137H61.2203L61.2225 16.957L61.2659 16.9592V17.0417H61.3073V17.0869H61.3525V17.1283H61.3939V17.1735H61.4392V17.2149H61.4806V17.26H61.5258V17.3015H61.5673V17.3466H61.6087V17.3881H61.6953V17.4291L61.7387 17.4314L61.7409 17.4747H61.782V17.5161H61.8686V17.5613H61.9139V17.6027H62.0419V17.6478H62.17V17.6893H62.2153V17.7344H62.3433V17.7759H62.43V17.8173H62.7314V17.8625H62.9461V17.9039H64.1555V17.8625H64.3699L64.3721 17.8192L64.7168 17.8172V17.7759H64.8035V17.7344H64.886L64.8883 17.6911L65.0182 17.6891V17.6478H65.0593L65.0616 17.6045L65.233 17.6025V17.5613H65.2782V17.5161H65.3196V17.4747H65.4063V17.4295H65.4477V17.3881H65.5344V17.347L65.5777 17.3448L65.58 17.3015H65.621V17.26H65.7077V17.1735H65.7488L65.751 17.1302L65.8358 17.128V17.0869H65.881V17.0417H65.9224V16.9592L65.9658 16.957L65.968 16.9137H66.0091V17.8173H67.4332V12.1735H67.3917V11.6991H67.3465V11.4844H67.3052L67.3032 11.1814L67.2599 11.1791V11.0966H67.2184V10.9649H67.1732V10.8783H67.1318V10.7917H67.0866V10.6637H67.0451V10.5771H66.9999V10.5357H66.9585V10.4491H66.9174L66.9152 10.4058L66.8718 10.4035V10.3625H66.8304V10.2759H66.7852V10.2347L66.7004 10.2326L66.6983 10.1478H66.6571V10.1027H66.6119V10.0613H66.5704V10.0161H66.4838V9.97466H66.4427L66.4405 9.93136L66.3971 9.9291V9.88806H66.3557V9.84664H66.269V9.80146H66.2238V9.76005H66.0957V9.71487H66.0091V9.6737L65.9243 9.67157L65.9221 9.62827H65.8358V9.58685H65.7077V9.54167H65.4929V9.50026H65.2786L65.2763 9.45696L65.0182 9.45498V9.41366H63.7674V9.45508ZM73.3443 9.45496L73.1277 9.45696L73.1254 9.50026H72.9563V9.54167H72.6963V9.58685H72.5682V9.62827H72.523V9.67345H72.4364V9.71487H72.3497V9.76005H72.2216V9.80146H72.135V9.88806H72.0483V9.92947H72.0069V9.97466H71.9617V10.0161H71.875V10.0613H71.8336V10.1027H71.7884V10.1478H71.7469V10.1893H71.7059L71.7036 10.2326L71.6603 10.2348V10.2759H71.6188V10.3173H71.5736V10.3625H71.5322V10.4039H71.487V10.4491H71.4455V10.5357H71.4003V10.5771H71.3589V10.6637H71.3178L71.3155 10.707L71.2722 10.7092V10.7917H71.2308V10.2915C71.2308 10.0165 71.2297 9.73521 71.2283 9.66653L71.2258 9.54166L69.85 9.54356L69.8481 17.8173H71.2261L71.229 17.5961C71.2305 17.4744 71.2307 16.8014 71.2294 16.1004C71.228 15.3994 71.2281 14.3647 71.2295 13.8009L71.232 12.7759H71.2722V12.5161H71.3137V12.3881H71.3589V12.1735H71.4001L71.4022 12.0436L71.4455 12.0413V11.9551H71.487V11.8726L71.5303 11.8704L71.5324 11.7857H71.5736V11.7405H71.6188V11.6539H71.6603V11.6125H71.7017V11.5259H71.788L71.7902 11.4826L71.8336 11.4803V11.3978H71.875V11.3527H71.9202V11.3113H72.0483V11.2661H72.0898V11.2247H72.135V11.1795H72.2216V11.1381H72.2627L72.2649 11.0948L72.4364 11.0927V11.0515H72.523V11.01H72.6097V10.9649H72.7378V10.9236L72.8677 10.9216L72.87 10.8783H73.0392V10.8369H73.5591V10.7917H73.8605V9.41366H73.3443V9.45496ZM55.9617 10.6637H56.2175V10.7049L56.3474 10.707L56.3497 10.7503H56.4774V10.7917H56.5641V10.8369H56.7374V10.8783H56.824V10.9235H56.8655V10.9649H56.9521V11.01H56.9936V11.0515H57.0388V11.0929H57.1669V11.1791L57.2102 11.1814L57.2124 11.2247H57.2535V11.2657L57.2968 11.268L57.2991 11.3113H57.3814L57.3835 11.396L57.4268 11.3982V11.4393H57.4683V11.4803L57.5116 11.4826L57.5138 11.5259H57.5549V11.5669L57.5982 11.5692L57.6005 11.6125H57.6416V11.7401L57.6849 11.7424L57.6871 11.7857H57.7282V11.8722H57.7734V11.9547L57.813 11.957L57.8152 12.0003H57.8562L57.8582 12.1716L57.9015 12.1738V12.2149H57.943V12.3881H57.9882V12.4747H58.0296V12.6478H58.0748V12.9905H58.1163V13.3369H58.1615L58.1596 14.0692L58.1163 14.0714V14.4137H58.0748V14.8015H58.0296V14.9332H57.9882V15.0613H57.943V15.1893H57.9015V15.2759H57.8563V15.4039H57.8149V15.5356H57.7734V15.5771H57.7282V15.6222H57.687L57.6849 15.707L57.6416 15.7092V15.8369H57.5549V15.8783H57.5135V15.9649H57.4683V16.01H57.4268V16.0515H57.3816V16.0966H57.3402V16.1381H57.2991L57.2968 16.1814L57.2121 16.1835V16.2247H57.1669V16.3113H57.0388V16.3527H56.9521V16.3978H56.9107V16.4393H56.8244L56.8221 16.4826L56.7374 16.4847V16.5259H56.5644L56.5622 16.5692L56.436 16.5712V16.6125H56.2627V16.6539H56.0483L56.046 16.6972L55.4003 16.6991L55.398 16.6558L55.1814 16.6538V16.6125H55.0119V16.571H54.8386V16.5259H54.6653V16.4847L54.5805 16.4826L54.5782 16.4393H54.492V16.3978H54.4053V16.3527H54.3639V16.3113H54.2362L54.2339 16.268L54.1906 16.2657V16.2247H54.1491V16.1836L54.1058 16.1814L54.1035 16.1381H54.0625V16.097L54.0191 16.0948L54.0169 16.0515H53.9306V16.01H53.8892V15.9649H53.8477V15.9235H53.8025V15.8369H53.7159V15.7088H53.6744V15.6637H53.6292V15.6222H53.5878V15.5771H53.5426V15.4905H53.5011V15.3625H53.4559V15.2759H53.4145V15.1893H53.3733L53.3711 15.1046L53.3278 15.1023V14.9747H53.2864V14.8881H53.2412V14.5869H53.1997V14.3726L53.1564 14.3704L53.1544 14.0259H53.1131V13.3369H53.1544L53.1564 12.9924L53.1997 12.9901V12.7759H53.2412V12.4747H53.2864V12.3881H53.3278V12.2604L53.3711 12.2582L53.3733 12.1735H53.4145V12.0869H53.4559V12.0003H53.5011V11.8722H53.5426V11.7857H53.5878V11.7405H53.6292V11.6991H53.6744V11.6539H53.7159V11.5259H53.8025V11.4393H53.8477V11.3978H53.8892V11.3527H53.9306V11.3113H54.0173V11.2247H54.1039V11.1795H54.1491V11.0929H54.2772V11.0515H54.3187V11.01H54.4053V10.9649H54.4505V10.9235H54.5372V10.8783H54.6238V10.8369H54.793L54.7952 10.7936L54.88 10.7914V10.7503H55.0529L55.0552 10.707L55.1814 10.7049V10.6637H55.4414V10.6436C55.4414 10.6325 55.4439 10.621 55.4439 10.621C55.4439 10.621 55.5619 10.6189 55.7029 10.6194L55.9594 10.6204L55.9617 10.6637ZM30.3802 15.1893H30.339L30.3369 15.3192L30.2936 15.3214V15.4491H30.2522V15.5356H30.2107V15.6637H30.1655V15.7503H30.1241V15.8369H30.0377L30.0355 15.9216L29.9922 15.9238V16.01H29.9508V16.0515H29.8641V16.0966H29.8189V16.1381H29.7775V16.1832H29.7364L29.7341 16.2228L29.6908 16.225V16.2661H29.6494V16.3113H29.5627V16.3527H29.4761V16.3978H29.3894V16.4393H29.3028V16.4844H29.2613V16.5259H29.0884L29.0861 16.5692L28.9599 16.5712V16.6125H28.8733V16.6538L28.6566 16.6558L28.6544 16.6991H28.44V16.7405H27.6639V16.6991H27.4495L27.4473 16.6558L27.3625 16.6536V16.6125H27.2307V16.571H27.1892V16.5259H27.0611V16.4844H26.9745V16.3978H26.8878V16.3527H26.8426V16.3113H26.8012V16.2661H26.756V16.1381H26.7145V16.0515H26.6731V16.01H26.6279V15.8369H26.5864V15.6637H26.5411L26.5431 15.3192L26.5864 15.3169V15.1027H26.6279V15.0161H26.6731V14.9295H26.7145V14.8881H26.756V14.76H26.8012V14.7149H26.8426V14.6735H26.8878V14.6283H26.9293V14.5869H26.9745V14.5417H27.0159V14.5003H27.0611V14.4551H27.1478V14.4137H27.2307V14.3722H27.2759V14.3271H27.3625V14.2856H27.4492V14.2405H27.6187V14.1991H27.705L27.7072 14.1558L27.8372 14.1537V14.1125H27.9649L27.9672 14.0692L28.1386 14.0671V14.0259H28.3534V13.9844H30.3802V15.1893ZM47.9818 15.1027H47.9366V15.2759H47.8952V15.4905H47.8499V15.6222H47.8085V15.6637H47.7633V15.7503H47.7222L47.72 15.7936L47.6766 15.7958V15.8783H47.6352V15.9235H47.594L47.5919 16.0082L47.5485 16.0104V16.0515H47.4619V16.0966H47.4205V16.1381H47.3752V16.1832H47.3338V16.2247H47.2886V16.2661H47.2472V16.3113H47.1605V16.3527H47.0738V16.3978H46.9872V16.4393H46.9458V16.4844H46.8591V16.5259H46.6858V16.571H46.5577V16.6125H46.4258V16.6539H46.2977V16.6991H46.083V16.7405H45.2617V16.6991H45.0884V16.6539H44.9603V16.6125H44.8736V16.5713L44.7889 16.5692L44.7866 16.5259H44.6589V16.4848L44.6156 16.4826L44.6133 16.4393H44.5308V16.3978H44.4856V16.3527H44.4444L44.4423 16.268L44.399 16.2657V16.2247H44.3575V16.1836L44.3142 16.1814L44.312 16.0966H44.2709V16.01H44.2256V15.8783H44.1842V15.1027H44.2254L44.2275 15.018L44.2709 15.0157V14.8881H44.3123V14.847L44.3556 14.8448L44.3579 14.8015H44.399V14.7149H44.4442V14.6735H44.4856V14.6283H44.5308V14.5869H44.5723V14.5417H44.6137V14.5003H44.6589V14.4551H44.7456V14.4137H44.8322V14.3722H44.8736V14.3271H44.9603V14.2856H45.0014L45.0036 14.2424L45.2203 14.2404V14.1991H45.3484V14.1539H45.435V14.1125H45.5627L45.565 14.0692L45.7816 14.0672V14.0259H45.9964V13.9844H47.9818V15.1027ZM66.0091 15.2759H65.9676V15.4035L65.9243 15.4058L65.9223 15.5356H65.881V15.6222H65.8358V15.6637H65.7943V15.7954H65.7533L65.751 15.835L65.7077 15.8372V15.8783H65.6666L65.6644 15.9216L65.621 15.9238V16.01H65.5796V16.0515H65.5344V16.0966H65.4929V16.1381H65.4477V16.1832H65.3652L65.363 16.2228L65.3196 16.225V16.3113H65.1915V16.3527H65.1049V16.3978H65.0597V16.4393H64.9772L64.9749 16.4826L64.8901 16.4847V16.5259H64.7172L64.715 16.5692L64.6302 16.5713V16.6125H64.4569V16.6539H64.3288V16.6991H64.1141V16.7405H63.2927V16.6991H63.1194V16.6539H62.9913V16.6125H62.9047V16.571H62.818V16.5259H62.6899V16.4848L62.6466 16.4826L62.6444 16.4393H62.6033V16.3978H62.5581V16.3527H62.5166V16.3113H62.4714V16.2661H62.43V16.225L62.3867 16.2228L62.3845 16.1381H62.3433V16.0515H62.302L62.3 15.8802L62.2567 15.8779V15.7503H62.2153V15.2344H62.2567V15.1027H62.3019V14.9295H62.3433V14.8881H62.3845L62.3867 14.8033L62.43 14.8011V14.7149H62.4714V14.6735H62.5581V14.5869H62.6033V14.5417H62.6447V14.5003H62.6899V14.4551H62.7724L62.7747 14.4155L62.8595 14.4134V14.3722H62.9047V14.3271H62.9913V14.2859L63.0761 14.2838L63.0784 14.2405H63.2475V14.1991H63.3794V14.1539H63.466V14.1125H63.6352L63.6375 14.0692L63.8089 14.0671V14.0259H64.0274V13.9844H66.0091V15.2759Z" fill="#00143C"/>
<path fill-rule="evenodd" clip-rule="evenodd" d="M22 12C22 17.5228 17.5228 22 12 22C9.10425 22 6.49598 20.7692 4.66981 18.8021C4.72073 18.7404 4.76295 18.6704 4.79415 18.5935L6.21822 15.7138H12.0767L12.8023 18.5935C12.8518 18.9045 13.1312 19.1253 13.4467 19.0982C13.9109 19.0622 14.2669 18.6746 14.2669 18.2105C14.2624 18.0798 14.2444 17.9536 14.2128 17.8319L11.5494 7.5435C11.3331 6.68275 10.9996 6.3042 10.3011 6.3042C9.60262 6.3042 9.16549 6.69176 8.74638 7.5435L3.69487 17.5718C2.62455 15.9796 2 14.0627 2 12C2 6.47715 6.47715 2 12 2C17.5228 2 22 6.47715 22 12ZM11.6891 14.1906L10.1119 7.84543L6.97081 14.1906H11.6891Z" fill="#005AFF"/>
</svg>
