<svg xmlns="http://www.w3.org/2000/svg" width="24" height="24" viewBox="0 0 24 24" fill="none"><rect width="24" height="24" fill="none"/>
<path d="M15.7181 17.8905C13.599 17.8905 13.1914 16.073 14.4629 13.5741C15.7018 11.0588 18.0163 9.22518 20.0544 9.22518C22.1081 9.22518 22.5648 11.0264 21.2928 13.5741C20.0544 16.0893 17.9027 17.8905 15.7181 17.8905ZM13.0773 7.29412C13.9087 7.29412 13.6804 9.22518 12.6046 11.1399H14.8541C17.299 5.99595 15.441 4 13.3381 4C9.93113 4 6.10038 7.42394 3.68778 11.8215C1.16108 16.43 1.45448 20 4.69848 20C8.38256 20 11.9525 16.7059 14.4792 12.0973H9.67036L8.72486 13.6227H11.8873L12.0014 12.2434C10.4528 14.9371 8.65965 16.6897 7.64895 16.6897C6.65462 16.6897 7.04582 14.6937 8.59445 12C10.1594 9.29008 12.0014 7.29412 13.0773 7.29412ZM19.3695 13.5578C20.1847 12.1948 20.2821 11.2211 19.7932 11.2211C19.2553 11.2211 18.3916 12.2272 17.5925 13.5578C16.7614 14.9047 16.6636 15.8783 17.1689 15.8783C17.7067 15.8783 18.571 14.8722 19.3695 13.5578Z" fill="white"/>
</svg>
