<svg xmlns="http://www.w3.org/2000/svg" width="24" height="24" viewBox="0 0 24 24" fill="none"><rect width="24" height="24" fill="none"/>
<path fill-rule="evenodd" clip-rule="evenodd" d="M2 7.23719V16.9083C2 17.4395 2.48852 17.5214 2.73278 17.4959H6.48828C10.1391 17.4959 10.27 17.4836 10.8326 17.2143C11.814 16.7491 11.9449 16.4798 11.9841 14.7292C12.0234 13.2847 12.0103 13.1745 11.6963 12.6726C11.5131 12.3788 11.2644 12.0972 11.1467 12.0605C10.9504 11.987 10.9635 11.9381 11.2775 11.632C11.9449 10.9832 11.9841 9.8692 11.3822 9.01227C11.0027 8.48586 9.13153 6.95563 8.54269 6.71079C8.0847 6.51492 7.69214 6.49044 5.59848 6.50268C4.26377 6.50268 3.04683 6.53941 2.90289 6.56389C2.17273 6.56389 2 6.92521 2 7.23719ZM6.65839 11.0077C8.86982 11.0077 9.19695 10.7873 8.18938 9.97937C7.63979 9.53867 7.63979 9.53867 6.35743 9.53867H5.07506V11.0077H6.65839ZM8.9745 14.7782C9.19695 14.5701 9.17078 13.8723 8.92216 13.6519C8.76514 13.4928 8.38566 13.4561 6.89393 13.4561H5.07506V14.9251H6.94627C8.22864 14.9251 8.86982 14.8761 8.9745 14.7782Z" fill="#0000F7"/>
<path d="M18.0923 16.9864C17.438 17.6712 16.364 17.6712 15.722 16.9864C15.6213 16.8847 15.4233 16.6442 15.4257 16.4055V9.43499L13.1048 9.43499C12.8638 9.43737 12.6211 9.24132 12.5184 9.1415C11.8271 8.5056 11.8271 7.44169 12.5184 6.79355C12.5902 6.72432 12.7898 6.57106 13.1048 6.50006H20.8949C21.21 6.57106 21.4095 6.72432 21.4813 6.79355C22.1727 7.44169 22.1727 8.5056 21.4813 9.1415C21.3787 9.24131 21.1359 9.43736 20.8949 9.43499L18.3886 9.43499L18.3886 16.4055C18.3886 16.6348 18.1587 16.9188 18.0923 16.9864Z" fill="black"/>
</svg>
