<svg xmlns="http://www.w3.org/2000/svg" width="24" height="24" viewBox="0 0 24 24" fill="none"><rect width="24" height="24" fill="none"/>
<path fill-rule="evenodd" clip-rule="evenodd" d="M7.16382 17.2566L8.4783 18.0477L9.79278 17.2566L10.5922 18.5849L9.25345 19.3906V21.4426H7.70315V19.3906L6.36444 18.5849L7.16382 17.2566Z" fill="white"/>
<path fill-rule="evenodd" clip-rule="evenodd" d="M15.0409 4.67434C14.4636 5.40064 14.1339 6.28809 14.1851 7.01458C14.2478 7.9049 14.6236 8.64831 15.0831 9.5571C15.1358 9.6614 15.1897 9.76787 15.2443 9.877L15.5911 10.5702L14.2046 11.2638L13.8578 10.5706C13.8062 10.4674 13.7524 10.362 13.6974 10.2541C13.2937 9.46254 12.825 8.54333 12.6751 7.4702C11.0317 6.14567 10.0198 5.4169 9.35966 5.09755C9.01571 4.93118 8.86979 4.92872 8.83659 4.93231C8.83524 4.93245 8.83417 4.9326 8.83334 4.93273C8.82776 4.93645 8.80486 4.95329 8.76677 5.00245C8.17849 5.7619 7.97674 6.36919 7.95596 6.84114C7.93547 7.30677 8.08705 7.7306 8.37609 8.13711C8.98744 8.99694 10.1149 9.65117 11.0589 10.1527L11.2554 11.3731L5.62877 17.2546L5.61661 17.267C5.13659 17.7468 4.94877 18.1315 4.89107 18.4051C4.83667 18.663 4.88461 18.8804 5.00338 19.0806C5.26982 19.5297 5.91368 19.9017 6.53697 20.004C9.01748 20.3579 12.4721 20.7344 15.1688 20.1342C16.5092 19.8359 17.5692 19.3155 18.2454 18.5206C18.9021 17.7486 19.2857 16.6123 19.0701 14.8761L19.0674 14.8503C18.7913 11.7959 18.2433 8.83701 17.6704 6.65205C17.3831 5.5562 17.0954 4.67745 16.8414 4.08583C16.7428 3.856 16.6574 3.68892 16.5891 3.57599C16.1156 3.67293 15.5424 4.04345 15.0409 4.67434ZM12.8229 5.60629C11.6224 4.66487 10.7257 4.03619 10.0347 3.70196C9.59047 3.48706 9.12912 3.34135 8.66994 3.391C8.16214 3.4459 7.79831 3.72112 7.54116 4.05309C6.81499 4.99055 6.44571 5.89744 6.40717 6.77297C6.36835 7.65484 6.66919 8.41181 7.11261 9.03546C7.72139 9.89168 8.63746 10.546 9.44215 11.0258L4.51438 16.1768C3.89704 16.7955 3.51147 17.434 3.37415 18.0852C3.23306 18.7541 3.36968 19.3652 3.67007 19.8716C4.24104 20.834 5.37042 21.3863 6.29662 21.5355L6.3104 21.5376C8.77255 21.8892 12.4953 22.3175 15.5056 21.6475C17.0202 21.3104 18.4472 20.6761 19.4263 19.525C20.4228 18.3535 20.8631 16.7566 20.6102 14.6981C20.3262 11.564 19.7642 8.52532 19.17 6.25889C18.8734 5.12751 18.5629 4.1661 18.266 3.47436C18.1195 3.13296 17.9622 2.82363 17.7933 2.58683C17.7093 2.46914 17.6023 2.34047 17.4685 2.23441C17.339 2.13184 17.1199 2 16.8294 2C15.6453 2 14.5571 2.79162 13.8274 3.70964C13.3938 4.25502 13.0319 4.91144 12.8229 5.60629ZM12.6386 7.12355C12.6386 7.12353 12.6386 7.12357 12.6386 7.12355L13.4119 7.0691L12.6386 7.12355Z" fill="white"/>
<path d="M11.8154 16.3635C11.2355 16.3635 10.7654 15.8104 10.7654 15.1282C10.7654 14.446 11.2355 13.8929 11.8154 13.8929C12.3953 13.8929 12.8654 14.446 12.8654 15.1282C12.8654 15.8104 12.3953 16.3635 11.8154 16.3635Z" fill="white"/>
<path fill-rule="evenodd" clip-rule="evenodd" d="M16.1315 14.1318C16.8086 14.2807 17.281 14.7606 17.5694 15.3373L16.1828 16.0307C16.0388 15.7427 15.8935 15.6668 15.7985 15.6459C15.6866 15.6213 15.4365 15.6277 15.0119 15.9025L14.1697 14.6009C14.795 14.1963 15.4714 13.9866 16.1315 14.1318Z" fill="white"/>
<path fill-rule="evenodd" clip-rule="evenodd" d="M13.543 17.5648H16.8165V19.1151H15.8391C15.5594 20.3791 14.5812 21.5661 12.7984 21.9964L12.4347 20.4894C13.4325 20.2485 13.9796 19.7019 14.2208 19.1151H13.543V17.5648Z" fill="white"/>
</svg>
