<svg xmlns="http://www.w3.org/2000/svg" width="24" height="24" viewBox="0 0 24 24" fill="none"><rect width="24" height="24" fill="none"/>
<path d="M2.01868 18.4072C1.8616 19.5072 2.71516 20.4914 3.82633 20.4914H20.1736C21.2847 20.4914 22.1384 19.5072 21.9813 18.4072L20.0776 5.07664C19.9491 4.17702 19.1787 3.50879 18.27 3.50879H5.72994C4.82119 3.50879 4.05075 4.17702 3.92227 5.07664L2.01868 18.4072Z" fill="white"/>
<path d="M16.663 7.12375C16.7508 6.86072 17.0353 6.71861 17.2983 6.80634C17.5613 6.89414 17.7035 7.17856 17.6157 7.44161C16.819 9.82866 14.6125 11.5588 11.9999 11.5588C9.42821 11.5588 7.2499 9.88235 6.42251 7.55306L6.38417 7.44161L6.37035 7.39213C6.31459 7.1438 6.45497 6.88866 6.70158 6.80634C6.9482 6.72406 7.21358 6.84379 7.31813 7.07583L7.33685 7.12375L7.36895 7.21715C8.06339 9.17246 9.88136 10.5544 11.9999 10.5544C14.1521 10.5544 15.9939 9.1283 16.663 7.12375Z" fill="#222222"/>
</svg>
