<svg xmlns="http://www.w3.org/2000/svg" width="24" height="24" viewBox="0 0 24 24" fill="none"><rect width="24" height="24" fill="none"/>
<path d="M17.8307 20V8.64851H20.8715V20H17.8307ZM19.3582 7.18522C18.9062 7.18522 18.5183 7.03003 18.1947 6.71964C17.8759 6.40432 17.7165 6.02741 17.7165 5.58892C17.7165 5.15535 17.8759 4.78337 18.1947 4.47298C18.5183 4.15766 18.9062 4 19.3582 4C19.8103 4 20.1958 4.15766 20.5146 4.47298C20.8382 4.78337 21 5.15535 21 5.58892C21 6.02741 20.8382 6.40432 20.5146 6.71964C20.1958 7.03003 19.8103 7.18522 19.3582 7.18522Z" fill="white"/>
<path fill-rule="evenodd" clip-rule="evenodd" d="M5.31212 20H2L7.0467 4.86467H11.0298L16.0694 20H12.7573L11.6749 16.5488H6.39658L5.31212 20ZM8.98115 8.32334H9.09536L10.8915 14.0508H7.18146L8.98115 8.32334Z" fill="white"/>
</svg>
