<svg xmlns="http://www.w3.org/2000/svg" width="24" height="24" viewBox="0 0 24 24" fill="none"><rect width="24" height="24" fill="none"/>
<path d="M19.6283 17.3894C18.0106 18.8218 15.9002 19.686 13.5975 19.686C8.76781 19.686 5.14812 15.9326 5.14812 11.6425C5.14812 7.60805 8.35447 4.31397 12.3293 4.31397C16.0808 4.31397 18.7875 7.23224 18.7875 10.3917C18.7875 13.3536 16.4585 15.7562 13.5975 15.7562C10.98 15.7562 9.13236 13.7669 9.13236 11.6425C9.13236 9.73623 10.6023 8.24378 12.3307 8.24378C13.8602 8.24378 14.8047 9.36277 14.8047 10.3917C14.8047 11.285 14.1783 11.8245 13.5975 11.8245C13.3925 11.8245 13.3141 11.7809 13.2315 11.7293C13.3277 11.6055 13.3978 11.4635 13.4378 11.312C13.4778 11.1604 13.4868 11.0024 13.4643 10.8472C13.443 10.6976 13.3925 10.5535 13.3155 10.4234C13.2385 10.2933 13.1366 10.1797 13.0156 10.0891C12.8946 9.99848 12.7569 9.93264 12.6104 9.89535C12.4638 9.85807 12.3114 9.85007 12.1618 9.87182C11.6246 9.95252 11.2835 10.3194 11.1146 10.5911C10.9207 10.9071 10.8193 11.2712 10.8219 11.642C10.8219 13.1584 12.2299 14.1385 13.5975 14.1385C15.5957 14.1399 17.098 12.3889 17.098 10.3917C17.098 7.94727 14.9867 5.92981 12.3307 5.92981C9.24637 5.92981 6.83903 8.55016 6.83903 11.6425C6.83903 15.1463 9.81641 18.0688 13.5989 18.0688C17.7807 18.0688 21.0823 14.5753 21.0823 10.3903C21.0823 5.89181 17.2866 2 12.3307 2C7.0586 2 2.8562 6.36145 2.8562 11.6425C2.8562 17.281 7.57376 22 13.5989 22C16.481 22 19.1248 20.9143 21.1423 19.1282L19.6283 17.3894ZM13.1124 11.6172C13.111 11.6162 13.1124 11.6148 13.1124 11.6172V11.6172Z" fill="white"/>
</svg>
