<svg xmlns="http://www.w3.org/2000/svg" width="24" height="24" viewBox="0 0 24 24" fill="none"><rect width="24" height="24" fill="none"/>
<path fill-rule="evenodd" clip-rule="evenodd" d="M14.6401 21.6476C17.8673 20.7665 20.444 18.3094 21.4919 15.1546C21.7862 14.2702 21.9602 13.3309 21.9943 12.356C21.9984 12.2381 22.0005 12.1196 22.0005 12.0007C22.0005 11.3346 21.9352 10.6837 21.8108 10.0542C21.7556 9.77539 21.6889 9.50078 21.6111 9.23087C20.8598 6.61866 19.0723 4.44511 16.7222 3.18375C15.5474 2.55321 14.232 2.15061 12.8352 2.03512C12.5598 2.01235 12.2813 2.00073 12 2.00073C6.47744 2.00073 2.00049 6.47768 2.00049 12.0003C2.00049 13.8153 2.48407 15.5174 3.32941 16.9847C3.71613 17.656 4.17857 18.2781 4.70505 18.8395C5.35213 19.5294 6.09597 20.1275 6.91491 20.6121C7.56261 20.9954 8.25729 21.3077 8.98823 21.5383C9.9387 21.8381 10.9505 21.9998 12 21.9998C12.1092 21.9998 12.2179 21.9981 12.3263 21.9946C13.1247 21.969 13.8995 21.8498 14.6401 21.6476ZM8.99592 21.5142C8.26527 21.2821 7.57109 20.9682 6.92414 20.5832L7.85645 17.6577L4.73969 18.8265C4.21325 18.2652 3.75097 17.643 3.36456 16.9715L8.71449 14.9653L12.8295 2.05299C14.2278 2.16516 15.5447 2.56555 16.721 3.1947L15.6885 12.35L21.8108 10.0542C21.9352 10.6837 22.0005 11.3346 22.0005 12.0007C22.0005 12.1196 21.9984 12.2381 21.9943 12.356L15.4094 14.8253L14.6418 21.6329C13.9013 21.8339 13.1266 21.9519 12.3284 21.976L13.0343 15.716L10.5464 16.649L8.99592 21.5142ZM11.4044 13.9566L14.2338 5.07834L13.3134 13.2407L11.4044 13.9566Z" fill="white"/>
</svg>
