<svg xmlns="http://www.w3.org/2000/svg" width="110" height="24" viewBox="0 0 110 24" fill="none"><rect width="110" height="24" fill="none"/>
<path d="M11.3546 19.8084C11.8442 20.2863 12.2423 20.679 12.5723 20.9976H8.50416C9.04446 20.3375 9.44841 19.5695 9.71037 18.8525C9.77284 18.6875 9.824 18.5224 9.86958 18.3632C10.3816 18.8638 10.9052 19.3703 11.3546 19.8084Z" fill="white"/>
<path d="M29.4294 12.8971H31.8444C32.3149 12.8971 32.7111 12.7392 33.0334 12.4236C33.3551 12.1075 33.5164 11.739 33.5164 11.3181C33.5164 10.8971 33.3551 10.5283 33.0334 10.2127C32.7111 9.89693 32.3149 9.73904 31.8444 9.73904H29.4294V12.8971ZM31.1013 15.0335H29.4294V19.3063H27.2V7.60246H31.8444C32.4017 7.60246 32.9186 7.69854 33.3956 7.89054C33.8722 8.0827 34.2841 8.34553 34.6311 8.67985C34.9775 9.01433 35.2502 9.40161 35.4486 9.84102C35.6463 10.2809 35.7457 10.742 35.7457 11.2252C35.7457 11.8817 35.6156 12.4264 35.3556 12.8599C35.0956 13.2934 34.8042 13.6466 34.4823 13.9189C34.1108 14.2409 33.6958 14.4887 33.2377 14.662L36.0242 19.3063H33.5164L31.1013 15.0335Z" fill="white"/>
<path d="M40.7614 12.7112C40.2039 12.7112 39.7489 12.8724 39.3959 13.1941C39.0429 13.5165 38.8168 13.9126 38.7178 14.3833H42.8048C42.7055 13.9126 42.4797 13.5165 42.1267 13.1941C41.7739 12.8724 41.3187 12.7112 40.7614 12.7112ZM44.5699 16.7053C44.4582 17.0277 44.288 17.3495 44.059 17.6716C43.8296 17.9934 43.551 18.2815 43.2229 18.5352C42.8945 18.7893 42.5232 18.9969 42.1083 19.1576C41.693 19.3184 41.2444 19.3991 40.7614 19.3991C40.179 19.3991 39.631 19.2848 39.1172 19.0552C38.6032 18.8264 38.1511 18.5138 37.7611 18.1172C37.371 17.7211 37.0613 17.2597 36.8322 16.7332C36.603 16.2071 36.4886 15.6404 36.4886 15.0334C36.4886 14.4269 36.603 13.8601 36.8322 13.3336C37.0613 12.8075 37.371 12.3459 37.7611 11.9495C38.1511 11.5534 38.6032 11.2407 39.1172 11.0113C39.631 10.7824 40.179 10.6676 40.7614 10.6676C41.3187 10.6676 41.845 10.7729 42.3405 10.9836C42.8355 11.1943 43.2695 11.4915 43.6409 11.8754C44.0126 12.2594 44.3066 12.7204 44.5233 13.259C44.7399 13.798 44.8483 14.3896 44.8483 15.0334C44.8483 15.1326 44.8421 15.2284 44.8299 15.3213C44.8173 15.4143 44.805 15.5043 44.7927 15.5907C44.7803 15.6901 44.7676 15.7829 44.7557 15.8693H38.8107C38.9098 16.2907 39.1203 16.6434 39.4425 16.9283C39.7643 17.2135 40.2039 17.3555 40.7614 17.3555C41.046 17.3555 41.2844 17.3246 41.4768 17.2626C41.6684 17.2008 41.8326 17.1264 41.9691 17.0398C42.1175 16.9408 42.2411 16.8295 42.3405 16.7053H44.5699Z" fill="white"/>
<path d="M50.3287 10.6677C50.8365 10.6677 51.3008 10.7515 51.722 10.9187C52.1429 11.0858 52.5053 11.3273 52.8089 11.6431C53.1122 11.9589 53.3477 12.3398 53.5146 12.7856C53.682 13.2316 53.7656 13.733 53.7656 14.2904V19.3063H51.6292V14.569C51.6292 14.0115 51.4649 13.5629 51.1368 13.2222C50.8084 12.8819 50.3844 12.7113 49.8643 12.7113C49.3443 12.7113 48.9198 12.8819 48.5918 13.2222C48.2636 13.5629 48.0995 14.0115 48.0995 14.569V19.3063H45.963V10.7607H47.5422L47.9135 11.5967C48.1242 11.4234 48.3533 11.2686 48.6008 11.1321C48.8115 11.0207 49.0622 10.9158 49.3533 10.8164C49.6443 10.7174 49.9694 10.6677 50.3287 10.6677Z" fill="white"/>
<path d="M56.1806 8.71715H58.0383V10.7606H59.8962V12.7113H58.0383V16.241C58.0383 16.6125 58.1467 16.9069 58.3633 17.1235C58.5802 17.34 58.8745 17.4484 59.2461 17.4484C59.3449 17.4484 59.4253 17.4455 59.4874 17.4392C59.5492 17.4332 59.6051 17.4238 59.6546 17.4112C59.7038 17.3991 59.7535 17.3804 59.8032 17.3555V19.2133C59.7165 19.2505 59.6174 19.2817 59.5061 19.3063C59.2952 19.3679 59.0537 19.3991 58.7814 19.3991C58.3603 19.3991 57.9732 19.3277 57.6202 19.1856C57.2675 19.0433 56.9639 18.8355 56.7101 18.5632C56.4561 18.2909 56.258 17.9685 56.1155 17.5971C55.9731 17.2254 55.9022 16.8047 55.9022 16.3337V12.7113H54.6017V10.9464H55.1587C55.8399 10.9464 56.1806 10.606 56.1806 9.92456V8.71715Z" fill="white"/>
<path d="M63.6112 12.8971H66.0262C66.4968 12.8971 66.8929 12.7392 67.2153 12.4236C67.537 12.1075 67.6983 11.739 67.6983 11.3181C67.6983 10.8971 67.537 10.5283 67.2153 10.2127C66.8929 9.89693 66.4968 9.73904 66.0262 9.73904H63.6112V12.8971ZM65.283 15.0335H63.6112V19.3063H61.3819V7.60246H66.0262C66.5835 7.60246 67.1005 7.69854 67.5776 7.89054C68.0541 8.0827 68.4661 8.34553 68.8131 8.67985C69.1594 9.01433 69.432 9.40161 69.6302 9.84102C69.8281 10.2809 69.9275 10.742 69.9275 11.2252C69.9275 11.8817 69.7975 12.4264 69.5374 12.8599C69.2774 13.2934 68.986 13.6466 68.6644 13.9189C68.2926 14.2409 67.8777 14.4887 67.4196 14.662L70.2061 19.3063H67.6983L65.283 15.0335Z" fill="white"/>
<path d="M77.08 15.0334C77.08 14.3276 76.8757 13.7642 76.4668 13.3428C76.0582 12.9221 75.5502 12.7112 74.9434 12.7112C74.3364 12.7112 73.8289 12.9221 73.4202 13.3428C73.0114 13.7642 72.8071 14.3276 72.8071 15.0334C72.8071 15.7393 73.0114 16.303 73.4202 16.724C73.8289 17.1451 74.3364 17.3555 74.9434 17.3555C75.5502 17.3555 76.0582 17.1451 76.4668 16.724C76.8757 16.303 77.08 15.7393 77.08 15.0334ZM74.6647 19.3991C74.1321 19.3991 73.6245 19.291 73.1414 19.0739C72.6586 18.8575 72.2343 18.5538 71.8688 18.1636C71.5035 17.7736 71.2123 17.3123 70.9957 16.7798C70.7791 16.2472 70.6707 15.665 70.6707 15.0334C70.6707 14.4019 70.7791 13.8198 70.9957 13.2871C71.2123 12.7547 71.5035 12.2931 71.8688 11.9031C72.2343 11.513 72.6586 11.2097 73.1414 10.9928C73.6245 10.7762 74.1321 10.6676 74.6647 10.6676C75.0364 10.6676 75.3708 10.7173 75.6681 10.8164C75.9652 10.9157 76.219 11.0206 76.4299 11.132C76.6648 11.2686 76.8816 11.4233 77.08 11.5966L77.4515 10.7606H79.0304V19.3063H77.4515L77.08 18.4702C76.8816 18.6439 76.6648 18.7986 76.4299 18.9347C76.219 19.0587 75.9652 19.1671 75.6681 19.2597C75.3708 19.3527 75.0364 19.3991 74.6647 19.3991Z" fill="white"/>
<path d="M82.5599 15.0334C82.5599 15.7393 82.7642 16.303 83.1731 16.724C83.5819 17.1451 84.0893 17.3555 84.6963 17.3555C85.303 17.3555 85.8111 17.1451 86.2197 16.724C86.6284 16.303 86.8327 15.7393 86.8327 15.0334C86.8327 14.3276 86.6284 13.7642 86.2197 13.3428C85.8111 12.9221 85.303 12.7113 84.6963 12.7113C84.0893 12.7113 83.5819 12.9221 83.1731 13.3428C82.7642 13.7642 82.5599 14.3276 82.5599 15.0334ZM84.9749 19.3991C84.6035 19.3991 84.2689 19.3527 83.972 19.2597C83.6745 19.1671 83.4205 19.0587 83.21 18.9347C82.9623 18.7986 82.7457 18.6439 82.5599 18.4702L82.1884 19.3063H80.6093V7.60238H82.7457V11.5037C82.9192 11.3551 83.1172 11.219 83.34 11.0949C83.5381 10.996 83.7703 10.9 84.0369 10.807C84.3028 10.7144 84.6157 10.6676 84.9749 10.6676C85.5073 10.6676 86.0154 10.7762 86.4984 10.9928C86.9813 11.2097 87.4055 11.513 87.7709 11.9031C88.1359 12.2931 88.4273 12.7547 88.6439 13.2871C88.8606 13.8198 88.9692 14.4019 88.9692 15.0334C88.9692 15.665 88.8606 16.2472 88.6439 16.7798C88.4273 17.3123 88.1359 17.7736 87.7709 18.1636C87.4055 18.5538 86.9813 18.8575 86.4984 19.0739C86.0154 19.291 85.5073 19.3991 84.9749 19.3991Z" fill="white"/>
<path d="M92.0342 15.0334C92.0342 15.7393 92.2385 16.303 92.6474 16.724C93.0562 17.1451 93.5637 17.3555 94.1706 17.3555C94.7775 17.3555 95.2854 17.1451 95.6942 16.724C96.1028 16.303 96.307 15.7393 96.307 15.0334C96.307 14.3276 96.1028 13.7642 95.6942 13.3428C95.2854 12.9221 94.7775 12.7113 94.1706 12.7113C93.5637 12.7113 93.0562 12.9221 92.6474 13.3428C92.2385 13.7642 92.0342 14.3276 92.0342 15.0334ZM94.4494 19.3991C94.078 19.3991 93.7433 19.3527 93.4463 19.2597C93.149 19.1671 92.895 19.0587 92.6845 18.9347C92.4366 18.7986 92.22 18.6439 92.0342 18.4702L91.6627 19.3063H90.0836V7.60238H92.22V11.5037C92.3935 11.3551 92.5915 11.219 92.8145 11.0949C93.0126 10.996 93.2447 10.9 93.5112 10.807C93.7775 10.7144 94.0901 10.6676 94.4494 10.6676C94.9818 10.6676 95.4897 10.7762 95.9727 10.9928C96.4558 11.2097 96.8798 11.513 97.2452 11.9031C97.6102 12.2931 97.9016 12.7547 98.1183 13.2871C98.3349 13.8198 98.4436 14.4019 98.4436 15.0334C98.4436 15.665 98.3349 16.2472 98.1183 16.7798C97.9016 17.3123 97.6102 17.7736 97.2452 18.1636C96.8798 18.5538 96.4558 18.8575 95.9727 19.0739C95.4897 19.291 94.9818 19.3991 94.4494 19.3991Z" fill="white"/>
<path d="M100.673 9.64585C100.35 9.64585 100.069 9.52534 99.8272 9.28349C99.5858 9.04214 99.4648 8.76078 99.4648 8.43844C99.4648 8.11642 99.5858 7.83473 99.8272 7.59305C100.069 7.3517 100.35 7.23102 100.673 7.23102C100.994 7.23102 101.276 7.3517 101.518 7.59305C101.759 7.83473 101.88 8.11642 101.88 8.43844C101.88 8.76078 101.759 9.04214 101.518 9.28349C101.276 9.52534 100.994 9.64585 100.673 9.64585Z" fill="white"/>
<path d="M101.694 19.3063H99.5577V10.7607H101.694V19.3063Z" fill="white"/>
<path d="M104.202 8.71715H106.06V10.7606H107.918V12.7113H106.06V16.241C106.06 16.6125 106.168 16.9069 106.385 17.1235C106.601 17.34 106.896 17.4484 107.267 17.4484C107.366 17.4484 107.447 17.4455 107.509 17.4392C107.571 17.4332 107.626 17.4238 107.676 17.4112C107.725 17.3991 107.775 17.3804 107.825 17.3555V19.2133C107.738 19.2505 107.639 19.2817 107.527 19.3063C107.317 19.3679 107.075 19.3991 106.803 19.3991C106.382 19.3991 105.995 19.3277 105.642 19.1856C105.289 19.0433 104.985 18.8355 104.732 18.5632C104.478 18.2909 104.279 17.9685 104.137 17.5971C103.995 17.2254 103.923 16.8047 103.923 16.3337V12.7113H102.623V10.9464H103.18C103.861 10.9464 104.202 10.606 104.202 9.92456V8.71715Z" fill="white"/>
<path d="M5.26628 8.87255C5.36319 8.9237 5.45997 8.96929 5.55661 9.00913C5.27212 9.13997 4.99901 9.27081 4.73175 9.41296C4.29329 9.6407 3.8666 9.88534 3.45709 10.1528V7.63218C3.58793 7.74581 3.71877 7.85402 3.84963 7.95649C4.21944 8.24097 4.70901 8.59939 5.26628 8.87255Z" fill="white"/>
<path d="M21.8809 20.9976H18.4159L17.8469 20.0928C16.2762 17.5951 14.5523 14.8412 13.7558 13.5324C14.4785 13.2081 15.4798 12.7131 16.3505 11.7174C17.1014 10.8582 17.8068 9.29927 17.3119 7.76295C16.9706 6.70458 16.356 5.891 15.3603 5.21384C14.2906 4.47979 12.7884 3.76295 11.1157 3.15416H13.8922C14.8766 3.15416 15.7756 3.30779 16.5949 3.62063C17.4257 3.93363 18.1255 4.366 18.7059 4.92363C19.2977 5.48127 19.7471 6.13006 20.0658 6.86379C20.3846 7.60358 20.5551 8.39453 20.5551 9.24221C20.5551 10.1527 20.3846 10.9094 20.0543 11.5239C19.7245 12.1384 19.366 12.6447 18.9904 13.0374C18.6548 13.3732 18.0802 13.9705 17.6933 14.2211L21.8809 20.9976Z" fill="white"/>
<path d="M15.0629 10.5957C15.5762 10.0084 15.9327 9.04853 15.6866 8.28234C15.5123 7.73963 15.2067 7.17593 14.3954 6.61748C11.7046 4.76537 5.66211 3 2 3C2.05086 3.13658 2.10979 3.273 2.17921 3.40958C2.38006 3.80849 2.63709 4.19954 2.91818 4.57698C3.48583 5.32661 4.16045 6.02279 4.89418 6.60649C5.2636 6.89277 5.64648 7.16331 6.04268 7.35334C6.13907 7.40696 6.2436 7.44712 6.34806 7.48991C6.4497 7.5355 6.55409 7.58092 6.66137 7.61847C6.76559 7.66126 6.87004 7.70946 6.97975 7.74701C7.08697 7.78718 7.19143 7.83539 7.30371 7.87293C8.02137 8.12986 8.80843 8.30661 9.59034 8.42696C9.76693 8.4404 9.9463 8.46188 10.1337 8.49926L10.1554 8.50467C10.3906 8.55288 10.5459 8.78308 10.4979 9.01869C10.4603 9.20889 10.3051 9.34268 10.1258 9.36678C10.099 9.37219 10.0749 9.37219 10.0481 9.37481C9.692 9.45253 9.28764 9.54091 8.91822 9.64519C8.52478 9.74701 8.13638 9.86211 7.75101 9.99065C6.98533 10.245 6.23296 10.5475 5.51813 10.9277C4.79766 11.2999 4.10703 11.7362 3.45639 12.2343V21H5.3573C7.48713 21 9.41797 16.4694 7.83574 15.1476L7.7938 15.1067C7.63297 14.9493 7.68652 14.6732 7.86322 14.5339C7.99439 14.4322 8.16578 14.4214 8.30502 14.4937L8.31579 14.4991C8.48449 14.5875 14.9565 20.9706 15.0258 21H16.4006C16.4006 21 11.8942 13.8449 11.784 13.5437C11.2198 11.9998 13.4775 12.4094 15.0629 10.5957Z" fill="white"/>
</svg>
