<svg xmlns="http://www.w3.org/2000/svg" width="24" height="24" viewBox="0 0 24 24" fill="none"><rect width="24" height="24" fill="none"/>
<path d="M10.2702 9.1375C11.3799 9.1375 12.2388 9.40256 12.8467 9.93271C13.4617 10.4628 13.7691 11.152 13.7691 12.0002C13.7691 12.8484 13.4617 13.5377 12.8467 14.0679C12.2388 14.598 11.3799 14.8631 10.2702 14.8631H9.14178C8.97447 14.8631 8.83884 14.9986 8.83884 15.1659V15.6204C8.83884 15.7877 8.7032 15.9234 8.5359 15.9234H7.23326C7.06595 15.9234 6.93032 15.7877 6.93032 15.6204V15.1659C6.93032 14.9986 6.79469 14.8631 6.62738 14.8631H5.49894C4.38916 14.8631 3.52681 14.598 2.91183 14.0679C2.30394 13.5377 2 12.8484 2 12.0002C2 11.152 2.30394 10.4628 2.91183 9.93271C3.52681 9.40256 4.38916 9.1375 5.49894 9.1375H6.62738C6.79469 9.1375 6.93032 9.00186 6.93032 8.83456V8.38015C6.93032 8.21284 7.06595 8.07721 7.23326 8.07721H8.5359C8.7032 8.07721 8.83884 8.21284 8.83884 8.38015V8.83456C8.83884 9.00186 8.97447 9.1375 9.14178 9.1375H10.2702ZM5.55195 13.3256H6.77885C6.86251 13.3256 6.93032 13.2579 6.93032 13.1741V10.8264C6.93032 10.7427 6.86251 10.6749 6.77885 10.6749H5.55195C5.06421 10.6749 4.68605 10.7951 4.41745 11.0354C4.14884 11.2758 4.01453 11.5973 4.01453 12.0002C4.01453 12.4032 4.14884 12.7248 4.41745 12.9651C4.68605 13.2055 5.06421 13.3256 5.55195 13.3256ZM10.2172 13.3256C10.7049 13.3256 11.0831 13.2055 11.3517 12.9651C11.6203 12.7248 11.7546 12.4032 11.7546 12.0002C11.7546 11.5973 11.6203 11.2758 11.3517 11.0354C11.0831 10.7951 10.7049 10.6749 10.2172 10.6749H8.99031C8.90665 10.6749 8.83884 10.7427 8.83884 10.8264V13.1741C8.83884 13.2579 8.90665 13.3256 8.99031 13.3256H10.2172Z" fill="#142969"/>
<path d="M21.6972 8.28927C21.8645 8.28927 22.0002 8.4249 22.0002 8.5922V9.62978C22.0002 9.79708 21.8645 9.93272 21.6972 9.93272H19.3343C19.1669 9.93272 19.0313 10.0684 19.0313 10.2357V15.4083C19.0313 15.5756 18.8957 15.7113 18.7284 15.7113H17.4258C17.2585 15.7113 17.1228 15.5756 17.1228 15.4083V10.2357C17.1228 10.0684 16.9872 9.93272 16.8199 9.93272H14.457C14.2897 9.93272 14.154 9.79708 14.154 9.62978V8.5922C14.154 8.4249 14.2897 8.28927 14.457 8.28927H21.6972Z" fill="#142969"/>
</svg>
