<svg xmlns="http://www.w3.org/2000/svg" width="24" height="24" viewBox="0 0 24 24" fill="none"><rect width="24" height="24" fill="none"/>
<path d="M6.99081 18.4651V15.386H8.81066V15.7721H7.36765V16.7188H8.6636V17.1048H7.36765V18.0699H8.91176V18.4559H6.99081V18.4651Z" fill="white"/>
<path d="M10.8235 18.4651L10.1985 17.6471L9.57353 18.4651H9.13235L9.98713 17.3713L9.0864 16.2408H9.58272L10.1985 17.0864L10.8235 16.2408H11.3107L10.4559 17.3713L11.2647 18.4651H10.8235Z" fill="white"/>
<path d="M11.8713 18.1342V19.6507H11.4945V17.3805C11.4945 16.8015 11.9357 16.1857 12.625 16.1857C13.3235 16.1857 13.8474 16.6268 13.8474 17.3529C13.8474 18.0607 13.3143 18.5478 12.7077 18.5478C12.4136 18.5478 12.0184 18.4191 11.8713 18.1342ZM13.4522 17.3529C13.4522 16.8566 13.1305 16.5625 12.5607 16.5901C12.2849 16.5993 11.8621 16.8015 11.8989 17.5092C11.9081 17.739 12.1471 18.171 12.671 18.171C13.1213 18.171 13.4522 17.9136 13.4522 17.3529Z" fill="white"/>
<path d="M14.1691 16.2408H14.546V16.4798C14.7298 16.2684 15.0147 16.1949 15.318 16.1949V16.5993C15.2721 16.5901 14.8217 16.5349 14.546 17.1232V18.4743H14.1691V16.2408Z" fill="white"/>
<path d="M15.4191 17.3529C15.4191 16.7096 15.8787 16.1857 16.5129 16.1857C17.3033 16.1857 17.5974 16.7096 17.5974 17.3805V17.5643H15.8327C15.8603 17.9871 16.2371 18.2077 16.5864 18.1985C16.8438 18.1893 17.0184 18.1158 17.2022 17.932L17.4504 18.1893C17.2206 18.4099 16.9265 18.557 16.568 18.557C15.8971 18.5478 15.4191 18.0515 15.4191 17.3529ZM16.4853 16.5625C16.1268 16.5625 15.8511 16.875 15.8327 17.2151H17.2022C17.2022 16.8842 16.9632 16.5625 16.4853 16.5625Z" fill="white"/>
<path d="M17.7904 18.1526L18.0662 17.9044C18.057 17.9044 18.204 18.0515 18.2224 18.0607C18.2868 18.1158 18.3511 18.1526 18.4338 18.171C18.6728 18.2353 19.1048 18.2169 19.1415 17.886C19.1599 17.7022 19.0221 17.6011 18.8658 17.5368C18.6636 17.4632 18.443 17.4357 18.2408 17.3438C18.011 17.2426 17.864 17.068 17.864 16.8107C17.864 16.1397 18.8199 16.0294 19.2518 16.3419C19.2702 16.3603 19.4816 16.5533 19.4724 16.5533L19.1967 16.7739C19.0588 16.6085 18.9301 16.5257 18.636 16.5257C18.489 16.5257 18.2868 16.5901 18.25 16.7463C18.1949 16.9669 18.443 17.0496 18.6085 17.0956C18.829 17.1507 19.068 17.1875 19.261 17.307C19.5276 17.4724 19.5919 17.8309 19.4908 18.1066C19.3805 18.4099 19.0496 18.5294 18.7555 18.5386C18.4063 18.557 18.1029 18.4467 17.8548 18.1985C17.8364 18.1985 17.7904 18.1526 17.7904 18.1526Z" fill="white"/>
<path d="M19.7298 18.1526L20.0055 17.9044C19.9963 17.9044 20.1434 18.0515 20.1618 18.0607C20.2261 18.1158 20.2904 18.1526 20.3732 18.171C20.6121 18.2353 21.0441 18.2169 21.0809 17.886C21.0993 17.7022 20.9614 17.6011 20.8051 17.5368C20.6029 17.4632 20.3824 17.4357 20.1801 17.3438C19.9504 17.2426 19.8033 17.068 19.8033 16.8107C19.8033 16.1397 20.7592 16.0294 21.1912 16.3419C21.2096 16.3603 21.421 16.5533 21.4118 16.5533L21.136 16.7739C20.9982 16.6085 20.8695 16.5257 20.5754 16.5257C20.4283 16.5257 20.2261 16.5901 20.1893 16.7463C20.1342 16.9669 20.3824 17.0496 20.5478 17.0956C20.7684 17.1507 21.0074 17.1875 21.2004 17.307C21.4669 17.4724 21.5313 17.8309 21.4301 18.1066C21.3199 18.4099 20.989 18.5294 20.6949 18.5386C20.3456 18.557 20.0423 18.4467 19.7941 18.1985C19.7757 18.1985 19.7298 18.1526 19.7298 18.1526Z" fill="white"/>
<path d="M21.5221 16.2408V16.0018H21.4393V15.9559H21.6599V16.0018H21.5772V16.2408H21.5221Z" fill="white"/>
<path d="M21.9357 16.2408V16.0202L21.8529 16.2408H21.8346L21.7518 16.0202V16.2408H21.7059V15.9559H21.7794L21.8529 16.1489L21.9265 15.9559H22V16.2408H21.9357Z" fill="white"/>
<path d="M4.43566 18.4651L4.15993 17.7298H2.67096L2.39522 18.4651H2L3.19485 15.386H3.62684L4.8125 18.4651H4.43566ZM3.39706 15.8272L2.8364 17.3529H4.00368L3.39706 15.8272Z" fill="white"/>
<path d="M5.06066 18.4651V15.386H5.44669V18.4651H5.06066Z" fill="white"/>
<path d="M6.02573 18.4651V16.2868H6.41176V18.4651H6.02573Z" fill="white"/>
<path d="M6.77941 15.579C6.77941 15.5699 6.77941 15.5699 6.77941 15.5607C6.77941 15.5515 6.77941 15.5515 6.77941 15.5423C6.48529 15.5331 6.24632 15.2941 6.23713 15C6.22794 15 6.21875 15 6.20956 15C6.20037 15 6.19118 15 6.18199 15C6.17279 15.2941 5.93382 15.5331 5.63971 15.5423C5.63971 15.5515 5.63971 15.5515 5.63971 15.5607C5.63971 15.5699 5.63971 15.5699 5.63971 15.579C5.93382 15.5882 6.17279 15.8272 6.18199 16.1213C6.19118 16.1213 6.20037 16.1213 6.20956 16.1213C6.21875 16.1213 6.22794 16.1213 6.23713 16.1213C6.24632 15.8272 6.48529 15.5882 6.77941 15.579Z" fill="white"/>
<path d="M6.60006 5.92923C6.69194 6.30423 6.64019 6.70923 6.73056 7.09061C7.04556 6.85998 7.25556 6.47936 7.21244 6.08298C7.20606 5.37348 6.40806 4.81736 5.74019 5.05623C5.32019 5.17623 5.00969 5.55311 4.93919 5.97873C4.85519 6.46623 5.14806 6.96498 5.58344 7.18773C5.54031 6.76773 5.43944 6.32523 5.55231 5.91423C5.72481 5.46648 6.44069 5.47548 6.60006 5.92923ZM19.0268 6.43773C19.1798 5.88723 18.8468 5.24898 18.3008 5.07273C17.7758 4.86648 17.1259 5.12898 16.8946 5.64048C16.6366 6.11411 16.7926 6.78798 17.2643 7.06548C17.3573 6.68523 17.2887 6.27798 17.3993 5.90861C17.5756 5.46723 18.2824 5.47998 18.4433 5.92736C18.5457 6.32711 18.4531 6.74711 18.4144 7.15061C18.7347 7.05161 18.9346 6.74561 19.0264 6.43886L19.0268 6.43773Z" fill="white" fill-opacity="0.29"/>
<path d="M17.3993 5.90861C17.2883 6.28173 17.3569 6.68561 17.2643 7.06548C16.9898 8.71548 15.8857 10.1894 14.3898 10.9285C13.6452 11.3032 12.823 11.4979 11.9895 11.4968C11.1559 11.4958 10.3342 11.2991 9.59057 10.9225C8.10857 10.1853 7.01219 8.72298 6.73056 7.09061C6.64056 6.70886 6.69156 6.30798 6.60006 5.92923C6.44106 5.47923 5.72481 5.46611 5.55231 5.91423C5.43981 6.32898 5.54106 6.76811 5.58344 7.18773C5.89844 9.22773 7.26369 11.0597 9.11319 11.9691C9.96317 12.3896 10.8948 12.6191 11.8429 12.6416C12.7909 12.664 13.7324 12.4787 14.6013 12.0989C16.6012 11.2352 18.0963 9.30663 18.4162 7.14888C18.4548 6.74538 18.5474 6.325 18.4447 5.92563C18.2834 5.47825 17.5769 5.46588 17.4003 5.90688L17.3993 5.90861Z" fill="white"/>
</svg>
