<svg xmlns="http://www.w3.org/2000/svg" width="24" height="24" viewBox="0 0 24 24" fill="none"><rect width="24" height="24" fill="none"/>
<path d="M12 22C17.5228 22 22 17.5228 22 12C22 7.83158 19.4495 4.25884 15.824 2.75719C14.646 2.26927 13.3544 2 12 2C9.35767 2 6.95471 3.02482 5.16689 4.69868C3.21792 6.52342 2 9.11948 2 12C2 15.4168 3.71367 18.4334 6.32842 20.2372C7.67179 21.1639 9.25301 21.7705 10.9619 21.9468C11.3031 21.982 11.6495 22 12 22Z" fill="#D9D9D9"/>
<path d="M12 22C17.5228 22 22 17.5228 22 12C22 7.83158 19.4495 4.25884 15.824 2.75719C14.646 2.26927 13.3544 2 12 2C9.35767 2 6.95471 3.02482 5.16689 4.69868C3.21792 6.52342 2 9.11948 2 12C2 15.4168 3.71367 18.4334 6.32842 20.2372C7.67179 21.1639 9.25301 21.7705 10.9619 21.9468C11.3031 21.982 11.6495 22 12 22Z" fill="url(#paint0_linear_4914_56)"/>
<path d="M7.88743 18.8332C13.4339 13.2883 13.4522 4.69592 5.41145 4.69592C5.32937 4.69592 5.24785 4.69691 5.16689 4.69868C3.21792 6.52342 2 9.11948 2 12C2 15.4168 3.71367 18.4334 6.32842 20.2372C6.84202 19.8239 7.36256 19.3581 7.88743 18.8332Z" fill="#D9D9D9"/>
<path d="M7.88743 18.8332C13.4339 13.2883 13.4522 4.69592 5.41145 4.69592C5.32937 4.69592 5.24785 4.69691 5.16689 4.69868C3.21792 6.52342 2 9.11948 2 12C2 15.4168 3.71367 18.4334 6.32842 20.2372C6.84202 19.8239 7.36256 19.3581 7.88743 18.8332Z" fill="url(#paint1_linear_4914_56)"/>
<path d="M12 22C17.5228 22 22 17.5228 22 12C22 7.83158 19.4495 4.25884 15.824 2.75719C17.6951 4.04164 18.8303 6.11756 18.8303 9.38316C18.8303 14.2993 15.6827 19.0617 10.9619 21.9468C11.3031 21.982 11.6495 22 12 22Z" fill="#D9D9D9"/>
<defs>
<linearGradient id="paint0_linear_4914_56" x1="12" y1="2" x2="12" y2="22" gradientUnits="userSpaceOnUse">
<stop stop-color="#739EFA"/>
<stop offset="1" stop-color="#1538C2"/>
</linearGradient>
<linearGradient id="paint1_linear_4914_56" x1="12" y1="2" x2="12" y2="22" gradientUnits="userSpaceOnUse">
<stop stop-color="#3F4042"/>
<stop offset="1" stop-color="#1F2021"/>
</linearGradient>
</defs>
</svg>
