<svg xmlns="http://www.w3.org/2000/svg" width="123" height="24" viewBox="0 0 123 24" fill="none"><rect width="123" height="24" fill="none"/>
<path d="M9.32749 19.4722H11.9273V4.53814H8.14541C4.3421 4.53814 2.34404 6.49335 2.34404 9.37293C2.34404 11.6722 3.43979 13.0256 5.395 14.4226L2 19.4722H4.81467L8.59656 13.8208L7.28595 12.94C5.69555 11.8656 4.92243 11.0276 4.92243 9.22233C4.92243 7.63194 6.0396 6.55826 8.16683 6.55826H9.32749V19.4722ZM59.458 19.6865C60.6394 19.6865 61.4774 19.4722 62.1006 19.0211V16.9367C61.456 17.3879 60.6829 17.667 59.6079 17.667C57.7819 17.667 57.0295 16.2493 57.0295 14.0143C57.0295 11.6722 57.9539 10.4687 59.63 10.4687C60.618 10.4687 61.5852 10.8127 62.1006 11.1347V8.96527C61.5638 8.66472 60.618 8.44985 59.3502 8.44985C56.0844 8.44985 54.3869 10.792 54.3869 14.0792C54.3869 17.6891 56.0415 19.6878 59.458 19.6878V19.6865ZM43.471 18.7413V16.6576C42.6758 17.1944 41.3437 17.667 40.0974 17.667C38.2279 17.667 37.519 16.7861 37.4112 14.9815H43.5781V13.6274C43.5781 9.86693 41.9241 8.4492 39.3671 8.4492C36.2512 8.4492 34.7686 10.8341 34.7686 14.1C34.7686 17.8604 36.6167 19.6871 39.8825 19.6871C41.5157 19.6871 42.7192 19.2574 43.471 18.7413ZM20.05 8.66407V12.94H16.6329V8.66407H14.076V19.4722H16.6336V14.9601H20.0493V19.4716H22.6069V8.66342H20.0493L20.05 8.66407ZM34.1454 17.4521H33.0068V8.66407H25.5501V9.5878C25.5501 12.2311 25.3788 15.6475 24.4758 17.4521H23.6813V21.9435H26.0441V19.4722H31.7819V21.9429H34.1454V17.4521ZM51.6365 19.4722H54.5368L50.433 13.6495L54.0428 8.66407H51.4645L47.8546 13.6495V8.66407H45.297V19.4722H47.8546V14.1649L51.6365 19.4722ZM39.3242 10.4687C40.592 10.4687 40.9783 11.5216 40.9783 12.8757V13.0899H37.4112C37.4761 11.3716 38.0993 10.4687 39.3242 10.4687ZM30.4499 17.4521H26.84C27.5488 15.8195 27.7423 12.8757 27.7423 11.0062V10.6835H30.4492L30.4499 17.4521ZM83.828 17.3892C82.16 18.8692 80.0073 19.6864 77.7774 19.6858C72.9315 19.6858 69.3002 15.9325 69.3002 11.643C69.3002 7.60792 72.5167 4.31418 76.505 4.31418C80.2688 4.31418 82.9848 7.23207 82.9848 10.3921C82.9848 13.3535 80.6479 15.7559 77.7774 15.7559C75.1509 15.7559 73.2976 13.7663 73.2976 11.6423C73.2976 9.73645 74.7718 8.24408 76.5063 8.24408C78.0415 8.24408 78.9886 9.36255 78.9886 10.3921C78.9886 11.2846 78.3603 11.8247 77.7774 11.8247C77.5716 11.8247 77.493 11.7812 77.4099 11.7293C77.5065 11.6056 77.577 11.4635 77.6171 11.3118C77.6573 11.1601 77.6663 11.0018 77.6436 10.8465C77.6219 10.6966 77.5709 10.5526 77.4935 10.4225C77.416 10.2924 77.3137 10.1788 77.1923 10.0883C77.0709 9.99783 76.9329 9.93215 76.7861 9.89505C76.6394 9.85795 76.4867 9.85016 76.3369 9.87212C75.7981 9.95261 75.4554 10.3194 75.286 10.5907C75.0915 10.9068 74.9898 11.2712 74.9925 11.6423C74.9925 13.1581 76.4051 14.1383 77.7774 14.1383C79.7819 14.1396 81.2898 12.3888 81.2898 10.3921C81.2898 7.94742 79.1711 5.92989 76.5063 5.92989C73.4112 5.92989 70.9964 8.55047 70.9964 11.6423C70.9964 15.1464 73.9838 18.0688 77.7786 18.0688C81.9747 18.0688 85.2873 14.5751 85.2873 10.3908C85.2873 5.89224 81.4787 2 76.5063 2C71.2165 2 67.0003 6.36157 67.0003 11.6423C67.0003 17.2808 71.7339 22 77.7786 22C80.6706 22 83.323 20.914 85.3476 19.1282L83.828 17.3892ZM77.2911 11.6177C77.2898 11.6164 77.2911 11.6151 77.2911 11.6177V11.6177ZM91.049 4.53814V19.4722H99.5365V17.4521H93.6488V12.9834H98.5479V10.964H93.6488V6.55826H99.4288V4.53814H91.049ZM111.206 17.4521H110.068V8.66407H102.611V9.5878C102.611 12.2311 102.439 15.6475 101.537 17.4521H100.742V21.9435H103.105V19.4722H108.843V21.9429H111.206V17.4521ZM107.511 17.4521H103.901C104.61 15.8195 104.803 12.8757 104.803 11.0062V10.6835H107.511V17.4521ZM120.574 12.1019C120.574 9.48069 119.242 8.49205 116.534 8.49205C114.837 8.49205 113.504 9.02889 112.731 9.48069V11.6073C113.418 11.0912 114.922 10.5329 116.233 10.5329C117.458 10.5329 118.017 10.9627 118.017 12.1227V12.7244H117.609C113.698 12.7244 111.957 14.0136 111.957 16.2051C111.957 18.3973 113.289 19.6222 115.266 19.6222C116.771 19.6222 117.415 19.1276 117.909 18.6121H118.017C118.038 18.8913 118.124 19.2567 118.21 19.4716H120.703C120.617 18.5931 120.574 17.711 120.574 16.8283V12.1013V12.1019ZM118.017 16.8939C117.694 17.3664 117.093 17.7533 116.19 17.7533C115.116 17.7533 114.579 17.1087 114.579 16.1415C114.579 14.8737 115.46 14.4226 117.651 14.4226H118.017V16.8939Z" fill="black"/>
</svg>
