<svg xmlns="http://www.w3.org/2000/svg" width="87" height="24" viewBox="0 0 87 24" fill="none"><rect width="87" height="24" fill="none"/>
<path d="M41.581 9.5321C37.0528 9.5321 34.1941 11.8771 34.1941 15.7688C34.1941 19.6549 37.0528 21.9999 41.581 21.9999C46.1035 21.9999 48.9678 19.6549 48.9678 15.7688C48.9734 11.8771 46.1035 9.5321 41.581 9.5321ZM41.581 18.5828C40.3526 18.5828 40.3247 16.9916 40.3247 15.7688C40.3247 14.5404 40.3526 12.9436 41.581 12.9436C42.8093 12.9436 42.8261 14.5349 42.8261 15.7688C42.8317 16.9916 42.8149 18.5828 41.581 18.5828Z" fill="white"/>
<path d="M2.47459 21.7263H7.25401C7.51643 21.7263 7.7286 21.5141 7.7286 21.2517V10.2803C7.7286 10.0179 7.51643 9.80569 7.25401 9.80569H2.47459C2.21217 9.80569 2 10.0179 2 10.2803V21.2461C2 21.5086 2.21217 21.7263 2.47459 21.7263Z" fill="white"/>
<path d="M2.47459 8.56058H7.25401C7.51643 8.56058 7.7286 8.34841 7.7286 8.08599V5.05418C7.7286 4.79176 7.51643 4.57959 7.25401 4.57959H2.47459C2.21217 4.57959 2 4.79176 2 5.05418V8.08599C2 8.34841 2.21217 8.56058 2.47459 8.56058Z" fill="white"/>
<path d="M10.4812 21.7263H15.2607C15.5231 21.7263 15.7352 21.5141 15.7352 21.2517V10.2803C15.7352 10.0179 15.5231 9.80569 15.2607 9.80569H10.4812C10.2188 9.80569 10.0066 10.0179 10.0066 10.2803V21.2461C10.0066 21.5086 10.2188 21.7263 10.4812 21.7263Z" fill="white"/>
<path d="M10.4812 8.56058H15.2607C15.5231 8.56058 15.7352 8.34841 15.7352 8.08599V5.05418C15.7352 4.79176 15.5231 4.57959 15.2607 4.57959H10.4812C10.2188 4.57959 10.0066 4.79176 10.0066 5.05418V8.08599C10.0066 8.34841 10.2188 8.56058 10.4812 8.56058Z" fill="white"/>
<path d="M29.7329 14.7973L32.9713 10.5706C33.2114 10.2579 32.9881 9.80569 32.5916 9.80569H27.332C27.1757 9.80569 27.0305 9.88385 26.9412 10.0123L23.8368 14.5404H23.7419V5.05418C23.7419 4.79176 23.5297 4.57959 23.2673 4.57959H18.4935C18.231 4.57959 18.0189 4.79176 18.0189 5.05418V21.2461C18.0189 21.5086 18.231 21.7207 18.4935 21.7207H23.2673C23.5297 21.7207 23.7419 21.5086 23.7419 21.2461V15.9475H23.8368L26.9021 21.4806C26.9859 21.6314 27.1478 21.7263 27.3209 21.7263H32.8596C33.2337 21.7263 33.4627 21.3131 33.2617 20.9949L29.7106 15.3445C29.6045 15.1714 29.6157 14.9592 29.7329 14.7973Z" fill="white"/>
<path d="M51.6147 9.4999C51.5366 9.72882 51.464 9.95216 51.3858 10.1867C51.3077 10.4156 51.2351 10.6445 51.1569 10.8734L50.7102 9.4999H50.3306V11.2699H50.593V9.941L51.0396 11.2699H51.2797C51.3579 11.0521 51.4305 10.8343 51.5031 10.6054C51.5812 10.3821 51.6538 10.1643 51.732 9.941V11.2699H52V9.4999H51.6147Z" fill="white"/>
<path d="M48.689 9.75116H49.2529V11.2643H49.5321V9.75116H50.1016V9.4999H48.689V9.75116Z" fill="white"/>
<path d="M56.5992 9.6341H58.1875C58.9976 9.6341 59.5682 10.0495 59.5682 10.7838C59.5745 10.9774 59.5276 11.1689 59.4327 11.3376C59.3377 11.5064 59.1984 11.6458 59.0297 11.7407C59.2491 11.8114 59.4388 11.9529 59.5693 12.143C59.6998 12.3331 59.7637 12.5612 59.751 12.7915C59.751 13.6816 59.0347 14.0846 58.2122 14.0846H56.5992V9.6341ZM58.1949 11.4563C58.2697 11.4593 58.3443 11.4465 58.4138 11.4185C58.4834 11.3906 58.5462 11.3483 58.5982 11.2944C58.6502 11.2404 58.6903 11.1761 58.7157 11.1056C58.7411 11.0351 58.7513 10.9599 58.7457 10.8852C58.751 10.8102 58.74 10.735 58.7134 10.6648C58.6868 10.5945 58.6453 10.5308 58.5918 10.4782C58.5382 10.4255 58.4739 10.3851 58.4033 10.3598C58.3326 10.3344 58.2573 10.3247 58.1825 10.3313H57.4094V11.4563H58.1949ZM58.2764 13.3997C58.3642 13.4052 58.4523 13.3925 58.5351 13.3626C58.6179 13.3327 58.6937 13.2862 58.7578 13.2258C58.8219 13.1655 58.873 13.0926 58.908 13.0118C58.9429 12.9309 58.9609 12.8437 58.9609 12.7556C58.9609 12.6675 58.9429 12.5803 58.908 12.4995C58.873 12.4186 58.8219 12.3458 58.7578 12.2854C58.6937 12.2251 58.6179 12.1785 58.5351 12.1486C58.4523 12.1187 58.3642 12.1061 58.2764 12.1115H57.4094V13.3997H58.2764Z" fill="white"/>
<path d="M60.5214 9.6341H61.3439V12.4874C61.3439 13.0906 61.7342 13.4318 62.3319 13.4318C62.9297 13.4318 63.3199 13.0906 63.3199 12.4874V9.6341H64.1301V12.4948C64.1301 13.4838 63.4138 14.1736 62.3393 14.1736C61.2649 14.1736 60.5362 13.4937 60.5362 12.4948L60.5214 9.6341Z" fill="white"/>
<path d="M65.2645 12.952C65.566 13.2338 65.9567 13.4009 66.3686 13.4242C66.7712 13.4242 67.0207 13.2165 67.0207 12.9149C67.0207 12.0668 64.9434 12.2424 64.9434 10.8528C64.9434 10.069 65.5954 9.55971 66.4624 9.55971C66.9408 9.55379 67.4048 9.72355 67.7666 10.0369L67.4084 10.6971C67.1347 10.4554 66.7852 10.3172 66.4204 10.3064C66.0129 10.3064 65.7436 10.5091 65.7436 10.8157C65.7436 11.6465 67.8209 11.4314 67.8209 12.8531C67.8209 13.575 67.2948 14.1734 66.3389 14.1734C65.7758 14.178 65.2329 13.9635 64.8248 13.575L65.2645 12.952Z" fill="white"/>
<path d="M68.6405 9.6341H69.4506V14.0846H68.6405V9.6341Z" fill="white"/>
<path d="M70.5303 9.6341H71.3404L73.0299 12.2129C73.1929 12.475 73.4004 12.9027 73.4004 12.9027H73.4128C73.4128 12.9027 73.3683 12.475 73.3683 12.2129V9.6341H74.1711V14.0846H73.3683L71.6788 11.5132C71.5438 11.2896 71.4202 11.0594 71.3083 10.8234C71.3083 10.8234 71.3528 11.2511 71.3528 11.5132V14.0846H70.5426L70.5303 9.6341Z" fill="white"/>
<path d="M75.2578 9.6341H77.9254V10.3313H76.068V11.5008H77.5673V12.1981H76.068V13.3997H78.0267V14.0969H75.2578V9.6341Z" fill="white"/>
<path d="M78.9431 12.952C79.2452 13.233 79.6355 13.3999 80.0472 13.4243C80.4498 13.4243 80.7017 13.2166 80.7017 12.9149C80.7017 12.0669 78.622 12.2424 78.622 10.8529C78.622 10.0691 79.2765 9.55975 80.1411 9.55975C80.6203 9.55299 81.0854 9.72283 81.4477 10.0369L81.0895 10.6971C80.8158 10.4554 80.4663 10.3173 80.1015 10.3064C79.6915 10.3064 79.4223 10.5092 79.4223 10.8158C79.4223 11.6465 81.502 11.4314 81.502 12.8531C81.502 13.5751 80.9734 14.1734 80.02 14.1734C79.4561 14.1782 78.9124 13.9637 78.5034 13.5751L78.9431 12.952Z" fill="white"/>
<path d="M82.4411 12.952C82.7426 13.2338 83.1333 13.4009 83.5452 13.4242C83.9478 13.4242 84.1973 13.2166 84.1973 12.9149C84.1973 12.0668 82.12 12.2424 82.12 10.8529C82.12 10.0691 82.7721 9.55974 83.639 9.55974C84.1183 9.55321 84.5832 9.72302 84.9457 10.0369L84.5875 10.6971C84.3138 10.4554 83.9643 10.3172 83.5995 10.3064C83.1919 10.3064 82.9227 10.5092 82.9227 10.8158C82.9227 11.6465 85 11.4314 85 12.8531C85 13.5751 84.4739 14.1734 83.518 14.1734C82.954 14.1787 82.4101 13.9641 82.0014 13.5751L82.4411 12.952Z" fill="white"/>
<path d="M56.599 17.1592H58.328C58.519 17.1516 58.7094 17.1842 58.887 17.2548C59.0647 17.3255 59.2255 17.4327 59.3591 17.5695C59.4927 17.7063 59.5962 17.8696 59.6628 18.049C59.7294 18.2283 59.7577 18.4196 59.7458 18.6106C59.76 18.8036 59.7336 18.9974 59.6683 19.1796C59.603 19.3618 59.5002 19.5281 59.3665 19.668C59.2328 19.8078 59.0713 19.918 58.8924 19.9914C58.7135 20.0648 58.5212 20.0998 58.328 20.0941H57.4165V21.6344H56.6064L56.599 17.1592ZM58.1699 19.3845C58.2709 19.3906 58.3721 19.3748 58.4665 19.3381C58.5609 19.3014 58.6462 19.2447 58.7166 19.1719C58.787 19.0991 58.8408 19.0119 58.8743 18.9163C58.9079 18.8206 58.9204 18.7189 58.9109 18.618C58.9183 18.5187 58.9042 18.419 58.8695 18.3256C58.8349 18.2323 58.7806 18.1475 58.7102 18.0771C58.6399 18.0067 58.5552 17.9523 58.462 17.9176C58.3687 17.883 58.2691 17.8689 58.1699 17.8763H57.3968V19.3968L58.1699 19.3845Z" fill="white"/>
<path d="M61.2899 17.1587H62.1421L63.7056 21.6215H62.8782L62.4953 20.4768H60.9318L60.5539 21.6215H59.7264L61.2899 17.1587ZM62.2928 19.8166L61.8976 18.6224C61.8235 18.3751 61.7222 17.9326 61.7222 17.9326C61.7222 17.9326 61.6209 18.3702 61.5468 18.6224L61.1442 19.8166H62.2928Z" fill="white"/>
<path d="M64.308 17.1596H65.7776C66.0636 17.1389 66.3508 17.1794 66.6199 17.2783C66.8564 17.378 67.0561 17.5489 67.1911 17.7673C67.3261 17.9858 67.3898 18.2409 67.3733 18.4973C67.384 18.7513 67.3194 19.0029 67.1875 19.2202C67.0556 19.4376 66.8624 19.611 66.6323 19.7187C66.6872 19.7919 66.736 19.8697 66.778 19.9511L67.6944 21.6101H66.7829L65.9036 19.9437H65.1256V21.6101H64.308V17.1596ZM65.8345 19.2637C65.9298 19.2704 66.0254 19.2561 66.1146 19.2218C66.2038 19.1875 66.2845 19.1341 66.3509 19.0653C66.4172 18.9965 66.4678 18.9139 66.4989 18.8235C66.53 18.7331 66.541 18.6369 66.531 18.5418C66.5435 18.4161 66.516 18.2897 66.4526 18.1805C66.3892 18.0713 66.2931 17.9849 66.1778 17.9335C66.0211 17.8708 65.8521 17.8445 65.6838 17.8569H65.0934V19.2637H65.8345Z" fill="white"/>
<path d="M69.2754 17.8559H67.8107V17.1587H71.5404V17.8559H70.0781V21.6215H69.2754V17.8559Z" fill="white"/>
<path d="M72.1676 17.1587H72.9778L74.6672 19.735C74.8303 19.9996 75.0377 20.4273 75.0377 20.4273H75.0501C75.0501 20.4273 75.0056 19.9996 75.0056 19.735V17.1587H75.8109V21.6215H75.0056L73.3186 19.0501C73.1829 18.8261 73.0592 18.595 72.9481 18.3578H72.9333C72.9333 18.3578 72.9778 18.7856 72.9778 19.0501V21.6215H72.1676V17.1587Z" fill="white"/>
<path d="M76.9043 17.1587H79.5744V17.8559H77.7145V19.0155H79.2162V19.7128H77.7145V20.9144H79.6732V21.6116H76.9043V17.1587Z" fill="white"/>
<path d="M80.4619 17.1596H81.9439C82.2299 17.1389 82.517 17.1794 82.7862 17.2783C83.0227 17.378 83.2224 17.5489 83.3574 17.7673C83.4924 17.9858 83.5561 18.2409 83.5396 18.4973C83.5503 18.7513 83.4856 19.0029 83.3538 19.2202C83.2219 19.4376 83.0287 19.611 82.7985 19.7187C82.8535 19.7919 82.9023 19.8697 82.9443 19.9511L83.8607 21.6101H82.9492L82.0699 19.9437H81.2918V21.6101H80.4619V17.1596ZM82.0007 19.2637C82.0955 19.2713 82.1908 19.258 82.28 19.225C82.3691 19.1919 82.45 19.1398 82.517 19.0723C82.584 19.0047 82.6355 18.9234 82.6679 18.8339C82.7003 18.7444 82.7129 18.6489 82.7047 18.5541C82.7172 18.4284 82.6897 18.302 82.6263 18.1928C82.5629 18.0837 82.4667 17.9972 82.3515 17.9459C82.1947 17.8834 82.0258 17.8572 81.8575 17.8692H81.2671V19.2637H82.0007Z" fill="white"/>
</svg>
