<svg xmlns="http://www.w3.org/2000/svg" width="24" height="24" viewBox="0 0 24 24" fill="none"><rect width="24" height="24" fill="none"/>
<path d="M19.6285 17.3894C18.0108 18.8218 15.9005 19.686 13.5977 19.686C8.76805 19.686 5.14837 15.9326 5.14837 11.6425C5.14837 7.60805 8.35471 4.31397 12.3296 4.31397C16.0811 4.31397 18.7878 7.23224 18.7878 10.3917C18.7878 13.3536 16.4588 15.7562 13.5977 15.7562C10.9802 15.7562 9.1326 13.7669 9.1326 11.6425C9.1326 9.73623 10.6025 8.24378 12.331 8.24378C13.8605 8.24378 14.8049 9.36277 14.8049 10.3917C14.8049 11.285 14.1786 11.8245 13.5977 11.8245C13.3927 11.8245 13.3144 11.7809 13.2318 11.7293C13.3279 11.6055 13.398 11.4635 13.438 11.312C13.478 11.1604 13.487 11.0024 13.4645 10.8472C13.4433 10.6976 13.3927 10.5535 13.3157 10.4234C13.2387 10.2933 13.1368 10.1797 13.0158 10.0891C12.8948 9.99848 12.7571 9.93264 12.6106 9.89535C12.4641 9.85807 12.3117 9.85007 12.1621 9.87182C11.6249 9.95252 11.2838 10.3194 11.1149 10.5911C10.921 10.9071 10.8195 11.2712 10.8221 11.642C10.8221 13.1584 12.2301 14.1385 13.5977 14.1385C15.596 14.1399 17.0983 12.3889 17.0983 10.3917C17.0983 7.94726 14.987 5.92981 12.331 5.92981C9.24661 5.92981 6.83927 8.55016 6.83927 11.6425C6.83927 15.1463 9.81666 18.0688 13.5991 18.0688C17.7809 18.0688 21.0825 14.5753 21.0825 10.3903C21.0825 5.89181 17.2869 2 12.331 2C7.05885 2 2.85645 6.36145 2.85645 11.6425C2.85645 17.281 7.574 22 13.5991 22C16.4813 22 19.1251 20.9143 21.1425 19.1282L19.6285 17.3894ZM13.1126 11.6172C13.1126 11.6148 13.1112 11.6162 13.1126 11.6172Z" fill="black"/>
</svg>
