<svg xmlns="http://www.w3.org/2000/svg" width="76" height="24" viewBox="0 0 76 24" fill="none"><rect width="76" height="24" fill="none"/>
<path d="M73.3854 11.379C73.3407 11.5253 73.231 11.6242 73.0549 11.6757C72.8786 11.7272 72.6957 11.7638 72.5049 11.7854L71.6362 11.8952C71.4683 11.9169 71.2949 11.9467 71.1202 11.9832C70.9441 12.0198 70.7665 12.0727 70.5862 12.1418C70.4062 12.2109 70.2286 12.3043 70.0526 12.4222C69.8765 12.5387 69.7083 12.6864 69.5473 12.8612C69.3562 13.0739 69.1936 13.3259 69.0581 13.6186C68.9225 13.9112 68.8141 14.2214 68.7341 14.5466C68.6531 14.8731 68.5946 15.2051 68.5581 15.5465C68.5215 15.8866 68.5039 16.2144 68.5039 16.5301C68.5039 16.7347 68.5146 16.9474 68.5365 17.1669C68.5581 17.3864 68.5989 17.6045 68.657 17.8199C68.7152 18.0353 68.802 18.244 68.9157 18.4459C69.0296 18.6477 69.1773 18.832 69.3615 19C69.5297 19.1531 69.7681 19.3035 70.0754 19.4498C70.3831 19.5961 70.7802 19.6693 71.2639 19.6693C71.5794 19.6693 71.9046 19.6287 72.242 19.5487C72.5794 19.4674 72.8854 19.3238 73.1604 19.1152C73.4354 18.9065 73.6631 18.6247 73.842 18.2697C74.0223 17.9148 74.1118 17.4663 74.1118 16.9244C74.1118 16.4407 74.037 16.0315 73.8867 15.6942C73.7362 15.3568 73.5331 15.075 73.277 14.8487C73.1078 14.6957 72.8815 14.552 72.5954 14.4206C72.3097 14.2892 71.9507 14.2228 71.5183 14.2228C71.0862 14.2228 70.6718 14.3258 70.2991 14.5304C69.9252 14.7349 69.6175 15.0249 69.3752 15.3974H69.3533C69.3752 14.9585 69.4523 14.6035 69.5839 14.3326C69.7165 14.0616 69.8791 13.8475 70.0741 13.6903C70.2678 13.5332 70.4846 13.418 70.7231 13.3449C70.9615 13.2717 71.1986 13.2175 71.4331 13.1796L72.3028 13.0482C72.5007 13.0183 72.6931 12.9709 72.8802 12.9059C73.067 12.8395 73.2365 12.7447 73.3868 12.62C73.5373 12.4954 73.6673 12.3328 73.777 12.1309C73.8867 11.9291 73.9639 11.6784 74.0086 11.379H73.3854ZM71.9533 15.0113C72.1215 15.1441 72.2541 15.3134 72.3489 15.5221C72.4439 15.7308 72.5075 15.9651 72.5415 16.2253C72.5739 16.4854 72.5902 16.7401 72.5902 16.9894C72.5902 17.1222 72.5807 17.3051 72.5631 17.5395C72.5441 17.7739 72.4939 18.0055 72.4086 18.2318C72.3246 18.4594 72.1946 18.6572 72.0183 18.8252C71.8423 18.9932 71.6012 19.0772 71.2936 19.0772C70.986 19.0772 70.7583 18.9946 70.5904 18.8306C70.4223 18.6653 70.2949 18.4676 70.211 18.2372C70.127 18.0069 70.0741 17.7698 70.0526 17.5273C70.031 17.2861 70.0199 17.0883 70.0199 16.9339C70.0199 16.5382 70.0512 16.2253 70.1136 15.9949C70.1757 15.7646 70.2436 15.579 70.3168 15.4394C70.4047 15.2714 70.5268 15.1238 70.6852 14.9991C70.8423 14.8745 71.0497 14.8122 71.3057 14.8122C71.5618 14.8122 71.7854 14.8786 71.9533 15.01M62.5007 14.2201V14.7146L63.1591 14.8027L65.1099 19.7045C64.9923 19.9809 64.8689 20.2329 64.7362 20.4592C64.6033 20.6854 64.4433 20.8778 64.2525 21.0377L63.296 20.3847C63.1781 20.4429 63.0533 20.5323 62.922 20.6529C62.7891 20.7735 62.7241 20.9401 62.7241 21.1515C62.7241 21.2978 62.7568 21.4211 62.8231 21.5241C62.8894 21.6257 62.9694 21.7097 63.0641 21.7761C63.1591 21.8411 63.2607 21.8912 63.3662 21.9238C63.4733 21.9563 63.5654 21.9725 63.6468 21.9725C63.7931 21.9725 63.9694 21.9346 64.1752 21.8574C64.3797 21.7801 64.6033 21.6148 64.846 21.3588C65.0139 21.1691 65.1752 20.951 65.3297 20.7058C65.4839 20.4605 65.6112 20.2112 65.7144 19.9552L65.8241 19.7032L67.8373 14.8013L68.4307 14.7133V14.2187H66.3173V14.7133L66.8999 14.7674L66.9986 14.9327L65.797 18.0326L64.606 14.9219L64.7157 14.7674L65.2768 14.7133V14.2187H62.4991L62.5007 14.2201ZM57.4552 14.7146L58.1583 14.7702L58.3236 14.9233C58.3086 15.2674 58.2831 15.621 58.2465 15.9828C58.2099 16.3445 58.157 16.6995 58.0865 17.0477C58.0175 17.3959 57.932 17.7197 57.8344 18.0191C57.7357 18.3199 57.6165 18.5719 57.4768 18.7764L56.8291 18.2115C56.6828 18.2264 56.5649 18.2589 56.477 18.3104C56.3889 18.3619 56.3225 18.4228 56.2791 18.496C56.2357 18.5692 56.206 18.6464 56.191 18.7263C56.1762 18.8063 56.1694 18.8794 56.1694 18.9458C56.1694 19.1572 56.2275 19.3306 56.3454 19.4661C56.4633 19.6016 56.657 19.6693 56.9281 19.6693C57.2207 19.6693 57.4768 19.5867 57.6975 19.4227C57.9173 19.2574 58.1041 19.0406 58.2586 18.7697C58.4118 18.4987 58.5362 18.1912 58.6325 17.847C58.7273 17.5029 58.8046 17.152 58.8628 16.7929C58.9212 16.4339 58.9631 16.0844 58.9889 15.7443C59.0147 15.4042 59.0349 15.1021 59.0499 14.8379H60.1446V18.8686L59.9902 19.0217L59.3749 19.0759V19.5704H62.231V19.0759L61.6483 19.0217L61.4952 18.8672V14.9219L61.6483 14.7674L62.231 14.7133V14.2187H57.4552V14.7146ZM53.247 19.5717V19.0772L52.6875 19.0217L52.5331 18.8686V17.0897H52.8528C53.0357 17.0897 53.1928 17.1412 53.3202 17.2441C53.4489 17.3471 53.5383 17.4636 53.5896 17.595L54.2278 19.2195V19.5704H56.3483V19.0759L55.7549 18.9986L55.5786 18.8672L54.9149 17.6032C54.8186 17.427 54.6804 17.2522 54.5002 17.0761C54.3199 16.9 54.1004 16.7943 53.8418 16.7577V16.7361C54.0031 16.6778 54.1223 16.5965 54.1994 16.4949C54.2768 16.3919 54.3375 16.293 54.381 16.1982L54.7115 15.4517C54.7399 15.3934 54.7657 15.3406 54.7889 15.2931C54.8104 15.2457 54.8402 15.1997 54.8768 15.1563L55.5704 15.6156C55.7902 15.5858 55.9486 15.5004 56.0433 15.3568C56.1383 15.2132 56.1857 15.0587 56.1857 14.8894C56.1857 14.72 56.1544 14.5873 56.0923 14.4884C56.0299 14.3894 55.9525 14.3122 55.8618 14.258C55.7696 14.2038 55.6749 14.1686 55.576 14.1537C55.477 14.1388 55.3944 14.132 55.3281 14.132C55.057 14.132 54.8294 14.2255 54.6465 14.4125C54.4636 14.5994 54.3025 14.846 54.1628 15.1536L53.8094 15.934C53.7428 16.0884 53.6602 16.2158 53.5612 16.3188C53.461 16.4217 53.3241 16.4718 53.1468 16.4718H52.5289V14.9233L52.6833 14.7688L53.2428 14.7146V14.2201H50.4425V14.7146L51.0252 14.7688L51.1794 14.9233V18.8686L51.0252 19.023L50.4425 19.0772V19.5717H53.247ZM46.6881 14.2472C46.3399 14.3529 46.0339 14.5182 45.7697 14.7417C45.5054 14.9653 45.2954 15.2538 45.137 15.6088C44.9797 15.9638 44.9012 16.3946 44.9012 16.9C44.9012 17.3769 44.9744 17.7888 45.1207 18.1356C45.267 18.4838 45.4675 18.771 45.7194 18.9986C45.9728 19.2249 46.2668 19.3943 46.6041 19.504C46.9415 19.6137 47.3007 19.6693 47.6825 19.6693C47.9833 19.6693 48.3004 19.6273 48.6339 19.5433C48.967 19.4593 49.2733 19.313 49.5523 19.1043C49.8302 18.8957 50.0591 18.6112 50.2391 18.2521C50.4194 17.8931 50.5089 17.4352 50.5089 16.8783C50.5089 16.5924 50.4818 16.3377 50.4262 16.1155C50.3707 15.892 50.3015 15.6928 50.2175 15.5167C50.1336 15.3406 50.0373 15.1888 49.9318 15.0601C49.8246 14.9314 49.7244 14.8244 49.6297 14.7363C49.4168 14.5453 49.1568 14.3908 48.8491 14.2689C48.5415 14.1483 48.1852 14.0873 47.7828 14.0873C47.4023 14.0873 47.0365 14.1402 46.6897 14.2472M48.3602 14.9382C48.532 15.1102 48.6636 15.3175 48.7557 15.5601C48.8465 15.8026 48.9089 16.0478 48.9425 16.2971C48.9752 16.5464 48.9915 16.7482 48.9915 16.9013C48.9915 17.0842 48.9725 17.301 48.936 17.5503C48.8994 17.7996 48.8328 18.0381 48.7381 18.2643C48.6433 18.4919 48.5104 18.6843 48.3425 18.8415C48.1744 18.9986 47.9578 19.0772 47.6949 19.0772C47.432 19.0772 47.2289 18.9986 47.0636 18.8415C46.8981 18.6843 46.7681 18.4919 46.6733 18.2643C46.5783 18.0367 46.512 17.7969 46.4754 17.5435C46.4389 17.2915 46.4212 17.0653 46.4212 16.8675C46.4212 16.4718 46.4525 16.1535 46.5147 15.9109C46.577 15.6684 46.6449 15.4747 46.7181 15.3284C46.7478 15.262 46.7899 15.1929 46.8441 15.1197C46.8981 15.0466 46.9646 14.9761 47.0418 14.9111C47.1191 14.8447 47.2099 14.7905 47.3168 14.7458C47.4225 14.7024 47.5486 14.6794 47.6949 14.6794C47.9657 14.6794 48.1868 14.7661 48.3586 14.9382M38.5402 21.9658H41.4841V21.4712H40.8028L40.6375 21.2734V19.5148C40.8136 19.5365 40.9815 19.5528 41.1428 19.5636C41.3041 19.5744 41.4394 19.5799 41.5491 19.5799C42.0262 19.5799 42.4462 19.5027 42.8078 19.3496C43.171 19.1964 43.4704 18.9905 43.7049 18.7344C43.8878 18.5448 44.057 18.2819 44.2115 17.9486C44.366 17.6153 44.4418 17.1967 44.4418 16.69C44.4418 16.1833 44.3702 15.7877 44.2278 15.4544C44.0841 15.1211 43.9068 14.8542 43.6939 14.6523C43.4812 14.4504 43.2562 14.3068 43.0178 14.2174C42.7794 14.1293 42.5694 14.086 42.3852 14.086C42.0994 14.086 41.8202 14.1429 41.5491 14.258C41.2783 14.3732 40.9733 14.548 40.636 14.7837V14.1212H40.1415L38.5375 14.6333V15.075H39.2839V21.2491L39.131 21.4143L38.5375 21.4699V21.9644L38.5402 21.9658ZM40.6389 15.2457C40.8731 15.1454 41.0657 15.0872 41.216 15.0696C41.3662 15.052 41.4707 15.0425 41.5289 15.0425C41.7849 15.0425 41.9962 15.0899 42.1618 15.1847C42.327 15.2796 42.457 15.3785 42.5518 15.4815C42.6399 15.5844 42.732 15.7443 42.8268 15.9638C42.9218 16.1833 42.9691 16.4895 42.9691 16.8851C42.9691 17.5354 42.8147 18.0489 42.507 18.4256C42.1996 18.8022 41.7999 18.9905 41.3081 18.9905C41.1402 18.9905 41.006 18.9837 40.907 18.9688C40.8081 18.9539 40.7189 18.9363 40.6375 18.9146V15.2471L40.6389 15.2457ZM34.9483 16.4732V17.091H37.0254V17.1682C37.0254 17.5489 36.9833 17.8619 36.8994 18.1072C36.8154 18.3524 36.7015 18.5461 36.5594 18.6884C36.417 18.8306 36.256 18.9323 36.077 18.9905C35.8981 19.0488 35.7181 19.0786 35.5352 19.0786C35.4552 19.0786 35.336 19.0677 35.1789 19.0461C35.0215 19.0244 34.8373 18.9621 34.626 18.8591L34.5162 18.7372L34.3931 17.7888H33.7223V19.4173C34.0881 19.5203 34.431 19.588 34.7494 19.6205C35.0675 19.653 35.3183 19.6693 35.5012 19.6693C35.8968 19.6693 36.2789 19.6151 36.6489 19.504C37.0186 19.3943 37.3425 19.2236 37.6202 18.9932C37.8994 18.7629 38.1215 18.473 38.291 18.1261C38.4589 17.7779 38.5441 17.3633 38.5441 16.8797C38.5441 16.2944 38.4357 15.8202 38.2204 15.4571C38.0036 15.0953 37.742 14.8108 37.4347 14.6062C37.127 14.4017 36.8047 14.2634 36.4673 14.1944C36.1299 14.1253 35.8412 14.09 35.5989 14.09C35.3562 14.09 35.0839 14.109 34.7791 14.1442C34.4757 14.1808 34.1586 14.2499 33.8281 14.3529V15.8121H34.4904L34.6057 14.9883L34.737 14.8677C34.817 14.8311 34.9228 14.7905 35.0541 14.7471C35.1854 14.7038 35.3494 14.6821 35.5473 14.6821C35.8536 14.6821 36.1041 14.7404 36.2965 14.8582C36.4902 14.9761 36.642 15.1224 36.7518 15.2986C36.8615 15.4747 36.9347 15.663 36.9712 15.8649C37.0078 16.0668 37.0254 16.251 37.0254 16.4204V16.4746H34.9483V16.4732ZM31.3689 19.5731H33.2915V19.0786L32.7197 19.0244L32.5775 18.8699V16.0342C32.5775 15.9028 32.5733 15.7687 32.5665 15.6332C32.5599 15.4977 32.5397 15.3622 32.5057 15.2267C32.4731 15.0913 32.4257 14.9626 32.3633 14.842C32.301 14.7214 32.2157 14.6089 32.106 14.506C32.0031 14.4111 31.8839 14.3339 31.7497 14.2757C31.6141 14.2174 31.4786 14.174 31.3431 14.1497C31.2078 14.1239 31.0791 14.1077 30.9597 14.1009C30.8391 14.0941 30.7389 14.09 30.6575 14.09C30.5478 14.09 30.422 14.0941 30.2797 14.1009C30.1373 14.109 29.9857 14.1266 29.8244 14.1551C29.6631 14.1849 29.4991 14.2228 29.3299 14.2702C29.162 14.3177 28.9965 14.3854 28.8354 14.4734C28.6741 14.5615 28.5481 14.6509 28.4573 14.7417C28.3652 14.8325 28.2975 14.9192 28.2542 14.9991C28.2094 15.0791 28.1823 15.1549 28.1715 15.2241C28.1607 15.2931 28.1552 15.3501 28.1552 15.3948C28.1552 15.5411 28.2094 15.64 28.3204 15.6915C28.4302 15.7429 28.5441 15.7687 28.662 15.7687H29.6754V14.7377C29.777 14.7227 29.8704 14.7106 29.9544 14.6997C30.0386 14.6889 30.1197 14.6834 30.201 14.6834C30.4491 14.6834 30.6428 14.72 30.781 14.7932C30.9191 14.8664 31.022 14.9571 31.087 15.0642C31.1523 15.1712 31.1928 15.2823 31.2078 15.4002C31.2225 15.5181 31.2294 15.6237 31.2294 15.7199V16.1494C31.1265 16.1711 30.9897 16.2022 30.8175 16.2429C30.6454 16.2835 30.4612 16.3296 30.2633 16.3797C30.0657 16.4312 29.8718 16.4827 29.6807 16.5328C29.4897 16.5843 29.3257 16.6358 29.1862 16.6859C29.0468 16.7374 28.9031 16.7997 28.7528 16.8729C28.6023 16.9461 28.4628 17.0436 28.3354 17.1642C28.2067 17.2848 28.101 17.4297 28.017 17.5977C27.933 17.7657 27.891 17.9676 27.891 18.202C27.891 18.6193 28.0103 18.9688 28.2474 19.2506C28.4857 19.5324 28.8531 19.6734 29.3502 19.6734C29.6875 19.6734 30.0086 19.6002 30.3162 19.4539C30.6239 19.3076 30.9273 19.1396 31.2281 18.9499L31.3702 19.5772L31.3689 19.5731ZM31.2268 18.496C30.9923 18.5963 30.7973 18.6721 30.6399 18.725C30.4828 18.7778 30.327 18.8049 30.1739 18.8049C30.0791 18.8049 29.9844 18.7941 29.8894 18.7724C29.7947 18.7507 29.7091 18.7087 29.632 18.6464C29.5549 18.5841 29.4912 18.5014 29.441 18.3998C29.3894 18.2982 29.3639 18.1627 29.3639 17.9947C29.3639 17.7901 29.4181 17.6167 29.5278 17.4744C29.6375 17.3322 29.7797 17.2102 29.9544 17.1073C30.1307 17.0057 30.3283 16.923 30.552 16.8607C30.7741 16.7984 30.9991 16.7455 31.2268 16.7022V18.496Z" fill="white"/>
<path d="M26.375 10.5945L23.9702 11.3573V13.2974L26.375 12.4845V10.5945ZM26.375 3.42737L23.9702 2.58465V4.58034L26.375 5.38784V3.42737ZM28.3733 11.8667L37.6244 8.74108V7.309L28.3733 4.07227V6.00021L34.542 8.07179L28.3733 10.0268V11.8667Z" fill="#DD001F"/>
<path d="M9.05465 8.34279L14.9577 2.43971H2.68282L3.9374 4.61289H9.71042L6.05097 8.27231L7.1755 10.2206L7.2175 10.2924C7.28523 10.2883 7.35434 10.287 7.42342 10.287C9.51936 10.287 11.2251 11.9927 11.2251 14.0887C11.2251 16.1846 9.51936 17.8904 7.42342 17.8904C6.032 17.8904 4.814 17.1398 4.15147 16.0221L2.26823 17.1113C3.3074 18.8781 5.22858 20.0676 7.42208 20.0676C10.717 20.0676 13.3983 17.3864 13.3983 14.0914C13.3983 11.3614 11.5584 9.05542 9.05465 8.34279Z" fill="white" fill-opacity="0.4"/>
<path d="M15.5281 9.45647C15.2856 9.03645 15.1447 8.55008 15.1447 8.03116C15.1447 6.45142 16.4291 5.16702 18.0089 5.16702C19.0643 5.16702 19.9869 5.74281 20.4828 6.59503L22.1506 5.63174C21.3201 4.20372 19.7756 3.24178 18.0089 3.24178C15.3683 3.24178 13.2208 5.39055 13.2208 8.02981C13.2208 8.8996 13.4552 9.71387 13.8617 10.4171L15.5295 9.45376L15.5281 9.45647Z" fill="white" fill-opacity="0.4"/>
</svg>
