<svg xmlns="http://www.w3.org/2000/svg" width="24" height="24" viewBox="0 0 24 24" fill="none"><rect width="24" height="24" fill="none"/>
<path d="M21.8916 11.9718C21.8916 17.415 17.4795 21.8272 12.0363 21.8272C6.59307 21.8272 2.1809 17.415 2.1809 11.9718C2.1809 8.00097 4.52886 4.5792 7.91218 3.01805H7.91326C8.38058 3.00668 8.60855 3.27689 8.35404 3.3619C8.27282 3.38898 8.13365 3.60396 8.06542 3.72471C4.99997 5.20302 2.58703 8.37569 2.58703 12.007C2.58703 17.0614 7.00895 21.3209 12.0633 21.3209C17.1177 21.3209 21.3772 17.0614 21.3772 12.007C21.3772 6.95261 17.1719 2.79333 12.1175 2.79333C12.0769 2.79333 11.941 2.84693 11.9009 2.84748C11.8467 2.73918 11.6843 2.73918 11.6301 2.73918C11.5993 2.73918 11.5635 2.65795 11.5489 2.65795C11.5159 2.65795 11.6502 2.65849 11.6301 2.63087C11.609 2.60163 11.4926 2.53719 11.5218 2.52257C11.6301 2.46842 11.4677 2.36012 11.5218 2.36012C11.6301 2.36012 11.7655 2.4955 11.7655 2.44135C11.7655 2.3872 11.7606 2.31464 11.817 2.29677C11.8738 2.2789 11.8446 2.22366 11.7926 2.19767C11.778 2.19009 11.8007 2.12944 11.8467 2.08937C11.9025 2.08829 11.98 2.11645 12.0363 2.11645C17.4795 2.11645 21.8916 6.52862 21.8916 11.9718Z" fill="white"/>
<path d="M21.8059 11.9718C21.8168 12.0325 21.8433 11.9978 21.8336 11.8321L21.7881 11.7151L21.8059 11.9718Z" fill="white"/>
<path d="M21.8195 10.8509C21.774 10.6581 21.7101 10.4404 21.6868 10.5715C21.7507 10.7572 21.7426 10.8054 21.8135 11.0074C21.8309 11.1731 21.8222 11.2987 21.8043 11.2717C21.8119 11.3004 21.8146 11.3653 21.8195 11.4336C21.8244 11.5018 21.8254 11.5738 21.8406 11.6182C21.8471 11.5641 21.8536 11.5056 21.8541 11.4449C21.8541 11.3843 21.8514 11.3204 21.8471 11.2549C21.8368 11.1233 21.8254 10.983 21.7902 10.8428C21.7919 10.7805 21.8103 10.8385 21.82 10.852L21.8195 10.8509Z" fill="white"/>
<path d="M12.0974 2.85669C12.0687 2.8621 12.033 2.87185 11.9989 2.87997C12.027 2.87456 12.0639 2.86427 12.0974 2.85669Z" fill="white"/>
<path d="M20.2509 7.81686C20.2146 7.74971 20.1962 7.72318 20.1913 7.72156C20.2265 7.78329 20.2558 7.83365 20.2509 7.81686Z" fill="white"/>
<path d="M20.8584 9.41051C20.8492 9.37531 20.8416 9.34553 20.833 9.31304C20.8406 9.35094 20.8487 9.38885 20.8584 9.41051Z" fill="white"/>
<path d="M12.0974 2.85669C12.1142 2.8529 12.1262 2.85506 12.1511 2.85668L12.2182 2.86156L12.352 2.87184C12.3617 2.86535 12.3271 2.86156 12.274 2.85885C12.2475 2.85777 12.216 2.85668 12.1836 2.85506C12.1673 2.85452 12.1505 2.85398 12.1337 2.85343C12.1191 2.85235 12.1088 2.85343 12.0969 2.85614L12.0974 2.85669Z" fill="white"/>
<path d="M21.2164 8.69681C21.2364 8.74933 21.2548 8.79211 21.2738 8.83056C21.2576 8.78724 21.2418 8.74554 21.2256 8.70277C21.2229 8.70114 21.2202 8.70006 21.2164 8.69681Z" fill="white"/>
<path d="M14.5173 2.33414L14.5975 2.35634C14.6224 2.35851 14.6457 2.35905 14.6684 2.35851L14.5173 2.33414Z" fill="white"/>
<path d="M17.6527 3.75126C17.5904 3.70361 17.546 3.72093 17.5125 3.71768C17.5352 3.7231 17.5596 3.7323 17.5856 3.74476C17.611 3.75776 17.6381 3.774 17.6668 3.79295C17.6717 3.78808 17.6679 3.77508 17.6527 3.75126Z" fill="white"/>
<path d="M21.0668 7.93382L21.1112 8.01992C21.0998 7.99772 21.0803 7.95981 21.0668 7.93382Z" fill="white"/>
<path d="M12.0691 2.01465C12.0632 2.00869 12.0529 2.0049 12.0318 2.00003C12.0318 2.0049 12.0524 2.01032 12.0691 2.01465Z" fill="white"/>
<path d="M20.9487 15.7683C20.9498 15.7715 20.9531 15.7688 20.9547 15.7705C20.9596 15.751 20.9596 15.7445 20.9487 15.7683Z" fill="white"/>
<path d="M21.9009 11.9718V12.0271C21.9079 12.033 21.9149 12.039 21.9214 12.039L21.9009 11.9718Z" fill="white"/>
<path d="M21.187 12.4862C21.1875 12.4803 21.1881 12.4781 21.1886 12.4727C21.1865 12.3909 21.187 12.437 21.187 12.4862Z" fill="white"/>
<path d="M2.74194 11.7818C2.72244 11.9431 2.71486 11.8115 2.7062 11.6994C2.70187 11.6437 2.70133 11.5928 2.69483 11.5863C2.68995 11.5798 2.67642 11.6177 2.66559 11.7401C2.68075 11.6962 2.7127 12.1846 2.74248 11.7818H2.74194Z" fill="white"/>
<path d="M21.1926 8.61233C21.1758 8.57009 21.1585 8.52677 21.1411 8.48345C21.1633 8.54247 21.179 8.58255 21.1926 8.61233Z" fill="white"/>
<path d="M2.66509 11.7395L2.66075 11.7899C2.66292 11.7687 2.664 11.7574 2.66563 11.7395H2.66509Z" fill="white"/>
<path d="M18.1633 18.7747C18.179 18.7704 18.2034 18.7547 18.2277 18.7368C18.2229 18.7352 18.2093 18.7449 18.1633 18.7747Z" fill="white"/>
<path d="M20.972 14.3014L20.9303 14.4275C20.9482 14.3777 20.9612 14.3371 20.972 14.3014Z" fill="white"/>
<path d="M15.8868 20.3538C15.8202 20.3814 15.7958 20.3873 15.7081 20.4328C15.7173 20.4306 15.726 20.4279 15.7374 20.4241C15.7677 20.4047 15.8099 20.383 15.8868 20.3538Z" fill="white"/>
<path d="M13.1121 21.1525C13.1278 21.153 13.1478 21.1525 13.1662 21.1525C13.1949 21.1481 13.228 21.1433 13.2572 21.1384L13.1121 21.1519V21.1525Z" fill="white"/>
<path d="M14.5629 21.3398C14.6263 21.3323 14.6674 21.3323 14.6999 21.335C14.6501 21.3225 15.0557 21.1974 14.5629 21.3398Z" fill="white"/>
<path d="M21.2352 8.68868C21.2212 8.67569 21.2094 8.65348 21.1926 8.61233C21.204 8.64374 21.2148 8.67352 21.2256 8.70277C21.2332 8.70872 21.2385 8.70926 21.2352 8.68868Z" fill="white"/>
<path d="M15.8983 20.663C15.8257 20.6944 15.7542 20.7296 15.6806 20.7577L15.4591 20.8438C15.5214 20.82 15.5923 20.7929 15.6681 20.7642C15.7445 20.7366 15.8208 20.6976 15.8983 20.663Z" fill="white"/>
<path d="M2.76401 9.09049C2.7548 9.1246 2.74451 9.15817 2.73693 9.19229C2.7483 9.1533 2.75967 9.11756 2.76401 9.09049Z" fill="white"/>
<path d="M14.115 21.2673C14.0295 21.2743 13.9412 21.2895 13.8486 21.2992C13.8296 21.3057 13.808 21.3117 13.7961 21.3182L13.9564 21.2965L14.115 21.2667V21.2673Z" fill="white"/>
<path d="M14.7014 21.335H14.7003C14.7003 21.335 14.7003 21.335 14.7014 21.335Z" fill="white"/>
<path d="M17.3949 19.9969C17.0283 20.2308 17.2477 20.1464 17.1843 20.2195C17.0771 20.2947 17.0056 20.3321 16.9607 20.3548C16.9157 20.377 16.8962 20.3819 16.8854 20.3803C16.8637 20.377 16.8767 20.3489 16.7939 20.3824C16.658 20.4713 16.5356 20.5471 16.4224 20.6191C16.3655 20.6548 16.3114 20.6895 16.2572 20.7214C16.2026 20.7518 16.1473 20.7788 16.0915 20.8032C16.0715 20.8032 16.0276 20.8205 16.0737 20.7886C15.999 20.8319 15.9042 20.8823 15.7964 20.9315C15.687 20.9776 15.5668 21.0258 15.4445 21.0745C15.3838 21.1005 15.321 21.1211 15.2593 21.1427C15.1975 21.1649 15.1369 21.1871 15.0779 21.2082C15.0188 21.231 14.962 21.2526 14.9078 21.2732C14.8531 21.2927 14.8022 21.3117 14.7551 21.3312C14.7253 21.3355 14.7096 21.3355 14.701 21.3344C14.7703 21.3393 14.7871 21.3599 14.7789 21.3804C14.6836 21.4081 14.5975 21.44 14.525 21.4644C14.4524 21.4887 14.3918 21.499 14.3522 21.4936C14.4708 21.4671 14.4779 21.4535 14.5299 21.4281C14.4649 21.453 14.3977 21.4692 14.3322 21.4904C14.2364 21.4898 14.304 21.4698 14.395 21.4465C14.4865 21.4254 14.5975 21.3886 14.5937 21.3739C14.5456 21.3891 14.4974 21.407 14.4475 21.4205C14.3977 21.4346 14.3468 21.4487 14.2959 21.4633C14.1941 21.492 14.0923 21.5223 13.9921 21.5488C13.8914 21.5716 13.7934 21.5933 13.7008 21.6117C13.6088 21.6295 13.5227 21.6469 13.4452 21.6517C13.4279 21.6431 13.4636 21.6317 13.5205 21.6209C13.5773 21.6068 13.6548 21.5911 13.7219 21.5775C13.8562 21.5505 13.9477 21.5315 13.742 21.5488L13.9781 21.5153C14.0566 21.5023 14.134 21.4855 14.2125 21.4709C13.8432 21.4855 14.4947 21.4108 14.1535 21.4135C14.0772 21.4286 14.01 21.446 13.9477 21.4563C13.886 21.4676 13.8302 21.4774 13.7793 21.4871C13.677 21.5066 13.592 21.525 13.5064 21.5429C13.4203 21.5564 13.3342 21.5705 13.2313 21.5846C13.1799 21.5911 13.1236 21.5987 13.0613 21.6068C12.999 21.6149 12.9297 21.6165 12.8517 21.6214C12.7136 21.6561 12.901 21.6539 12.7624 21.6886C12.5414 21.72 12.3855 21.7189 12.268 21.7145C12.1499 21.7091 12.0698 21.701 11.9972 21.6858C11.9247 21.6712 11.8597 21.6571 11.7725 21.6496C11.7287 21.6458 11.6794 21.6436 11.6204 21.6436C11.5911 21.6436 11.5592 21.6442 11.5245 21.6447C11.4899 21.6442 11.4525 21.6442 11.4119 21.6447C11.3269 21.6528 11.2668 21.6696 11.1704 21.6761C11.1222 21.6783 11.0642 21.6826 10.99 21.6734C10.9159 21.6653 10.8254 21.6517 10.7106 21.6301L10.8742 21.6008C10.7242 21.5803 10.6272 21.5721 10.5563 21.5689C10.4859 21.5624 10.441 21.5624 10.3955 21.5613C10.35 21.5602 10.3034 21.5586 10.2298 21.5478C10.1929 21.5424 10.1491 21.5348 10.0949 21.5239C10.0413 21.5126 9.97797 21.4942 9.90162 21.4725C10.0148 21.485 10.3722 21.5488 10.2834 21.5272C10.1843 21.499 10.1161 21.485 10.0657 21.4752C10.0153 21.4644 9.98176 21.4617 9.9509 21.4606C9.88917 21.4584 9.83772 21.4638 9.68339 21.4281L9.63033 21.3707C9.00489 21.2207 8.3226 21.0046 7.67821 20.6895C7.71936 20.696 7.83416 20.7393 7.69174 20.651C6.87299 20.272 6.04124 19.6536 5.43205 19.039L5.16617 18.8375C5.1131 18.7812 5.07953 18.7222 5.14235 18.7774C4.91979 18.5229 5.1131 18.7818 4.99018 18.674C4.85481 18.5359 4.83044 18.4753 4.92304 18.5554C4.86726 18.5051 4.81095 18.445 4.7503 18.3805C4.68965 18.3161 4.62467 18.2468 4.55698 18.1747C4.49092 18.1011 4.42648 18.021 4.35825 17.9408C4.32467 17.9002 4.29056 17.8596 4.25645 17.8184C4.22233 17.7773 4.19147 17.7329 4.15897 17.6901C4.09562 17.6029 4.03172 17.5163 3.96891 17.4302C3.90988 17.3419 3.85411 17.2531 3.79996 17.1681C3.77342 17.1253 3.74689 17.0831 3.72144 17.0419C3.69599 17.0008 3.67487 16.958 3.65267 16.9179C3.60935 16.8367 3.56982 16.7603 3.53462 16.6894L3.60556 16.7901C3.48697 16.5757 3.41224 16.4593 3.33481 16.3477C3.29744 16.2914 3.25791 16.2372 3.22272 16.1679C3.18752 16.0986 3.15124 16.0163 3.11225 15.9085L3.15449 15.9854C2.94222 15.4959 2.74565 14.9685 2.61352 14.4546C2.48248 13.9413 2.40288 13.4469 2.38772 13.0402C2.37905 13.0218 2.36931 12.9915 2.36227 12.9525C2.35631 12.9135 2.35089 12.8653 2.34602 12.8122C2.33682 12.7056 2.32815 12.5767 2.32219 12.45C2.32003 12.1971 2.31136 11.9556 2.27725 11.9204C2.2897 11.7677 2.29837 11.6648 2.30866 11.5825C2.32057 11.5002 2.32923 11.4384 2.33898 11.3691C2.34819 11.2998 2.35739 11.2229 2.37472 11.1103C2.3823 11.054 2.39097 10.989 2.40125 10.9116C2.41208 10.8341 2.42833 10.7448 2.44457 10.6392C2.45919 10.5265 2.46407 10.441 2.46569 10.3484C2.46678 10.3018 2.46786 10.2536 2.47057 10.1995C2.47382 10.1453 2.48248 10.0858 2.49439 10.0159L2.53446 10.017L2.55288 9.82476L2.57833 9.6336C2.61082 9.57133 2.63952 9.50852 2.67471 9.44733L2.73699 9.19011C2.70612 9.29083 2.65901 9.4013 2.65197 9.38289C2.69746 9.18037 2.78031 8.94048 2.85828 8.7542C2.89835 8.66106 2.93464 8.58038 2.96279 8.52298C2.99149 8.46558 3.01315 8.43255 3.01857 8.43201C3.1247 8.12389 3.25358 7.8239 3.39058 7.52715C3.39329 7.55315 3.32777 7.70369 3.27957 7.8239C3.37596 7.58076 3.39545 7.56344 3.41387 7.55261C3.43228 7.54123 3.44798 7.53582 3.54383 7.31651C3.50592 7.36849 3.53949 7.27481 3.53733 7.26128C3.57198 7.212 3.61585 7.14648 3.66404 7.06958C3.71115 6.99215 3.76693 6.90605 3.82595 6.81562C3.85465 6.77013 3.88443 6.72356 3.91422 6.67645C3.94508 6.63043 3.97649 6.58386 4.00735 6.53783C4.03768 6.49126 4.068 6.44523 4.09778 6.40083C4.12865 6.35697 4.15843 6.31365 4.18713 6.27249L4.16385 6.35047C4.58839 5.76564 5.11202 5.15158 5.72879 4.62091C5.50244 4.80448 5.51923 4.72433 5.69739 4.56296L5.79811 4.53372C5.89991 4.41459 5.59558 4.6821 5.81922 4.45412C5.93727 4.35719 5.98709 4.33662 5.98763 4.35178C5.98872 4.36748 5.94323 4.42001 5.88096 4.48228C5.97085 4.39781 6.06832 4.322 6.16146 4.24131C6.18636 4.23806 6.12193 4.29655 6.1138 4.32308C6.1398 4.29492 6.18528 4.25756 6.24268 4.21694C6.30062 4.17741 6.36993 4.13355 6.43979 4.08752C6.5091 4.04096 6.58274 3.99655 6.64773 3.95269C6.71271 3.90883 6.76902 3.86497 6.80909 3.82598H6.83346C7.07335 3.67382 7.27154 3.55739 7.45457 3.45613C7.54662 3.40685 7.63326 3.35704 7.72099 3.31317C7.79788 3.27473 7.87423 3.23628 7.95275 3.19675H7.95654C7.95654 3.19675 7.95654 3.19621 7.96466 3.19621C7.98091 3.19621 7.99769 3.19675 8.01448 3.19783C8.04805 3.2 8.08271 3.20433 8.11628 3.21137C8.13307 3.21462 8.15094 3.21949 8.1596 3.22166C8.16285 3.22274 8.16664 3.22383 8.16989 3.22491C8.17693 3.22762 8.18397 3.23141 8.18993 3.23682C8.2013 3.23303 8.21267 3.23249 8.2235 3.23791C8.23379 3.24278 8.24408 3.25578 8.2392 3.26877C8.23541 3.28285 8.21917 3.28556 8.2078 3.29964L8.19047 3.31967C8.18072 3.33213 8.16935 3.34512 8.16069 3.35758C8.14227 3.38249 8.12711 3.40685 8.11358 3.43122C8.08488 3.46804 8.05834 3.50487 8.03235 3.54331C8.0134 3.57147 7.99444 3.59963 7.97495 3.62887L7.96033 3.63483L7.95383 3.63754L7.93704 3.64512C7.91268 3.65649 7.88777 3.66786 7.86286 3.67923C7.81304 3.70252 7.76268 3.7258 7.71232 3.74909C7.61268 3.79944 7.5098 3.85035 7.40691 3.9045C7.30511 3.96135 7.20006 4.01767 7.09717 4.08049C6.99483 4.14492 6.88815 4.20666 6.78581 4.27868C6.61469 4.40539 6.59358 4.42921 6.59682 4.43734C6.60007 4.44492 6.62715 4.43571 6.55621 4.50069C6.53455 4.4969 6.40026 4.58246 6.30495 4.64744C6.20965 4.7135 6.149 4.75357 6.26596 4.64852C6.19449 4.70484 6.12951 4.75574 6.0694 4.80339C6.01038 4.85267 5.95623 4.8987 5.90424 4.94202C5.79973 5.02812 5.71147 5.11259 5.61616 5.19815C5.43097 5.37468 5.2279 5.56854 4.92845 5.91564C5.00643 5.85228 5.08657 5.77485 5.05516 5.82467C4.94415 5.94759 4.79145 6.09434 4.79524 6.06672L4.82178 6.03152C4.49958 6.43278 4.11945 6.88764 3.80321 7.362C3.48426 7.8331 3.2238 8.31775 3.09979 8.71196L3.11496 8.6681C3.08842 8.73417 3.0673 8.8024 3.04348 8.86954C3.02073 8.93723 2.99583 9.00329 2.97525 9.07152C2.93464 9.20798 2.89023 9.34282 2.85612 9.4809C2.73482 9.85345 2.90215 9.24859 2.79655 9.51989C2.68879 9.96879 2.61244 10.3235 2.55071 10.6614C2.49331 10.9998 2.45324 11.322 2.4554 11.7016C2.44187 11.7747 2.43104 11.8619 2.42237 11.961C2.41425 12.0601 2.41587 12.17 2.41587 12.2875C2.41696 12.3465 2.4175 12.4077 2.41858 12.47C2.42129 12.5323 2.42779 12.5962 2.43266 12.6617C2.43808 12.7267 2.44403 12.7933 2.44999 12.8599C2.45324 12.8935 2.45595 12.927 2.45919 12.9611C2.46407 12.9947 2.46894 13.0288 2.47382 13.0624C2.49493 13.1978 2.51226 13.3353 2.53609 13.4702C2.56262 13.6044 2.58861 13.7377 2.61352 13.866C2.67363 14.1205 2.72237 14.3582 2.76948 14.5515L2.77814 14.5012C2.81821 14.5959 2.83337 14.656 2.84258 14.7113C2.84691 14.7389 2.85124 14.7649 2.85558 14.7936C2.86099 14.8217 2.86911 14.8521 2.88048 14.8878C2.88536 14.8748 2.87074 14.8207 2.8637 14.7844C2.8572 14.7476 2.85558 14.7286 2.87994 14.7876C2.91785 14.8894 2.95575 14.9912 2.99366 15.0936C3.01315 15.1445 3.03048 15.1965 3.05106 15.2474L3.11496 15.399C3.15882 15.4997 3.19726 15.6031 3.24492 15.7028C3.29203 15.803 3.33914 15.9031 3.38625 16.0033C3.40899 16.0542 3.43444 16.1035 3.46098 16.1522L3.53895 16.3001C3.5904 16.3991 3.6413 16.4982 3.69978 16.5941C3.7561 16.691 3.81295 16.7874 3.86927 16.8849C3.92992 16.9791 3.99111 17.0739 4.05176 17.1681C4.30193 17.5417 4.56998 17.9078 4.86997 18.2441C4.90679 18.2868 4.94307 18.3302 4.98098 18.3718L5.09686 18.4948C5.17484 18.576 5.24956 18.6599 5.33079 18.7379C5.41201 18.8159 5.4927 18.8933 5.57338 18.9713C5.65352 19.0498 5.74071 19.1197 5.82356 19.1944C5.88529 19.248 5.93727 19.2902 5.98168 19.3244C6.0277 19.3568 6.06669 19.3818 6.10081 19.4012C6.16849 19.4413 6.21777 19.4619 6.26921 19.4873C6.3721 19.5393 6.49015 19.6032 6.81234 19.8566C6.73816 19.8285 6.66884 19.7928 6.59682 19.7603C7.15078 20.1144 7.73669 20.4426 8.34967 20.7084C8.96103 20.9749 9.60054 21.1736 10.2341 21.2792C10.1567 21.2759 10.1523 21.2857 10.03 21.2575C10.1578 21.3084 10.4068 21.348 10.6218 21.3821C10.839 21.4048 11.0236 21.4146 11.0269 21.4026C11.126 21.4178 11.1368 21.4221 11.1384 21.4297C11.1395 21.4368 11.1314 21.4443 11.192 21.4557C11.2597 21.4655 11.3366 21.4714 11.4157 21.4752C11.4947 21.4785 11.5765 21.4828 11.6545 21.479C11.8099 21.4747 11.9485 21.4714 12.0211 21.4887C12.0454 21.4942 11.9442 21.4969 11.8944 21.4979C11.9388 21.4947 12.0129 21.4979 12.0963 21.4952C12.1797 21.4925 12.2723 21.4893 12.3541 21.4866C12.4359 21.4833 12.5068 21.4806 12.5463 21.4757C12.5859 21.4692 12.594 21.4627 12.5512 21.4573C12.7922 21.446 13.0223 21.4297 13.2378 21.3929C13.292 21.3848 13.345 21.3772 13.3976 21.3696C13.4501 21.3626 13.5015 21.355 13.5524 21.3447C13.6537 21.3263 13.7517 21.31 13.8476 21.2981C13.8773 21.2873 13.9125 21.2781 13.951 21.2678C13.9894 21.2564 14.0311 21.2451 14.075 21.2342C14.1627 21.2126 14.258 21.192 14.3484 21.172C14.5277 21.1281 14.6842 21.0794 14.7145 21.0425C14.7107 21.0588 14.76 21.055 14.8412 21.0388C14.9214 21.0187 15.0318 20.9835 15.152 20.9424C15.2733 20.9039 15.3995 20.8487 15.5138 20.7983C15.628 20.748 15.7304 20.7019 15.7953 20.6619C15.7098 20.7209 16.0434 20.5676 15.9453 20.6397C16.0244 20.6023 16.1024 20.5682 16.1711 20.5308C16.2399 20.4935 16.3011 20.4588 16.3509 20.429C16.4506 20.37 16.5031 20.331 16.469 20.3321C16.6184 20.2725 16.7581 20.1924 16.8935 20.1139C17.0273 20.0321 17.1496 19.9411 17.2672 19.8594C17.4962 19.6866 17.6949 19.5339 17.8617 19.4543C18.2581 19.1224 18.6177 18.7769 18.9366 18.4141C19.02 18.3264 19.0947 18.2327 19.1711 18.1412C19.2474 18.0497 19.3243 17.9598 19.3942 17.8645C19.4651 17.7702 19.5377 17.6782 19.6059 17.584C19.6725 17.4881 19.7386 17.3928 19.8041 17.298C19.8111 17.3132 19.7776 17.3728 19.7245 17.454C19.6714 17.5352 19.5999 17.6392 19.522 17.735C19.4456 17.8325 19.3725 17.9289 19.32 17.9998C19.2658 18.0691 19.2361 18.1157 19.2545 18.1179C19.2891 18.0751 19.3238 18.034 19.3563 17.9928C19.3871 17.9506 19.418 17.9094 19.4472 17.8688C19.5063 17.7881 19.5626 17.7107 19.6167 17.6354C19.6676 17.558 19.7169 17.4827 19.7651 17.4091C19.8122 17.3343 19.8631 17.2645 19.9054 17.1887C19.9498 17.1145 19.9942 17.0403 20.0391 16.965C20.0619 16.9277 20.0846 16.8898 20.1079 16.8518C20.1295 16.8129 20.1517 16.7733 20.1739 16.7333C20.2194 16.6537 20.2665 16.5713 20.3153 16.4858C20.3635 16.3997 20.41 16.3076 20.462 16.2118C20.573 16.0152 20.4257 16.3369 20.3987 16.4094C20.4474 16.3109 20.4956 16.2129 20.5438 16.1159C20.5925 16.0196 20.6331 15.9199 20.6781 15.8235C20.7701 15.6318 20.8422 15.4342 20.9207 15.2436C21.0609 14.8553 21.1855 14.4725 21.2537 14.0875C21.2586 14.0907 21.2445 14.1741 21.2304 14.2532C21.264 14.1026 21.3214 13.9061 21.2916 13.9174L21.264 14.0653C21.2163 14.1806 21.2342 14.0274 21.257 13.8422C21.2732 13.6554 21.2976 13.4377 21.29 13.4225C21.3311 13.6922 21.4097 12.6649 21.4508 13.0862C21.4546 13.0353 21.4589 12.9785 21.4562 12.9362C21.4535 12.894 21.4481 12.8675 21.4384 12.8783C21.4551 12.7294 21.4692 12.6823 21.4773 12.8361C21.492 12.5599 21.4898 12.4705 21.4811 12.3877C21.4741 12.3048 21.4708 12.229 21.4752 11.9799C21.4898 11.9816 21.4914 12.0823 21.505 12.1343C21.4985 12.0076 21.4795 11.8808 21.4687 11.7336C21.4638 11.6599 21.4584 11.5809 21.4524 11.4942C21.4443 11.4076 21.4378 11.3133 21.4324 11.2083C21.4421 11.2327 21.4481 11.1834 21.4578 11.3085C21.4503 11.218 21.4427 11.1314 21.4329 11.0469C21.4194 10.963 21.4064 10.8818 21.3934 10.8016C21.3793 10.722 21.368 10.643 21.3512 10.5655C21.3338 10.4886 21.316 10.4117 21.2986 10.3343C21.2802 10.2574 21.2662 10.1789 21.2445 10.1004C21.2239 10.0219 21.2033 9.94172 21.1817 9.85941C21.1443 9.69371 21.0896 9.52205 21.0414 9.32982C21.1005 9.43379 21.0864 9.36827 21.0615 9.26863C21.0344 9.17008 20.9905 9.04066 21.0068 9.0125L20.9304 8.81268L20.8443 8.61666L20.8866 8.78398C20.7512 8.43471 20.5877 8.14718 20.455 7.85531L20.5275 7.9739C20.5508 8.01397 20.5725 8.05512 20.5947 8.09573C20.5465 7.98906 20.4896 7.88725 20.4349 7.78437C20.3792 7.68202 20.3266 7.57752 20.2644 7.47896C20.3283 7.59484 20.3792 7.71668 20.436 7.83581C20.338 7.67444 20.3294 7.69069 20.318 7.69123C20.305 7.69286 20.2969 7.67499 20.1772 7.45947C20.2048 7.5017 20.1582 7.42156 20.0954 7.30785C20.0797 7.27969 20.0629 7.24882 20.0461 7.21796C20.0283 7.18763 20.0099 7.15677 19.992 7.12644C19.9568 7.06579 19.9254 7.00785 19.9048 6.96345V6.96453C19.8777 6.92825 19.849 6.89143 19.8198 6.85298C19.7895 6.81562 19.7586 6.77717 19.7256 6.73602C19.6601 6.65425 19.5945 6.55895 19.5155 6.44686C19.4835 6.38133 19.5935 6.45985 19.5729 6.41707C19.5366 6.38729 19.4841 6.33043 19.4229 6.25895C19.3617 6.18748 19.2929 6.10083 19.2166 6.01853C19.1418 5.93513 19.0655 5.85066 18.9973 5.7781C18.9252 5.70879 18.8608 5.65085 18.8137 5.61673C18.8738 5.66492 18.8949 5.65085 18.8814 5.62864L18.752 5.54146C18.6967 5.4754 18.6642 5.43749 18.6496 5.418C18.6355 5.39742 18.6404 5.39363 18.6577 5.3958C18.2836 5.03516 18.7373 5.55067 18.3047 5.11313C18.3426 5.14346 18.3301 5.12234 18.4065 5.1884C17.9587 4.75953 17.4735 4.44167 17.0007 4.12922C16.8848 3.99764 17.4258 4.38752 17.2861 4.24943C17.1112 4.14059 16.9347 4.0285 16.7468 3.93157C16.5632 3.8276 16.3699 3.74042 16.1798 3.64945C16.0845 3.6045 15.986 3.5666 15.8901 3.5249C15.8419 3.50433 15.7943 3.48375 15.7461 3.46371C15.6984 3.44314 15.6491 3.42635 15.6009 3.40794C15.5046 3.37057 15.4087 3.33375 15.3139 3.29747C15.2181 3.2639 15.1233 3.23087 15.0297 3.19838L15.1677 3.2509C15.1038 3.26661 14.969 3.20704 14.7974 3.14152C14.6246 3.07925 14.4178 2.99694 14.2174 2.97203C14.3143 2.98936 14.3517 2.96445 14.3241 2.96553C14.192 2.93358 14.0587 2.8973 13.918 2.87293C13.7772 2.85019 13.6315 2.82311 13.4755 2.8047C13.3976 2.79712 13.3174 2.789 13.2346 2.78088C13.1517 2.77384 13.0667 2.76192 12.9779 2.75976C12.8003 2.75326 12.6113 2.73701 12.4055 2.74189L12.5079 2.72673C12.4239 2.72023 12.3254 2.71535 12.2198 2.71102C12.1933 2.70994 12.1667 2.70886 12.1391 2.70777C12.1267 2.70777 12.1061 2.70615 12.0871 2.7094C12.0682 2.71211 12.0492 2.71698 12.0362 2.72077C12.0092 2.72835 11.9821 2.73647 11.955 2.7446L11.9176 2.75488L11.9014 2.75867L11.896 2.75976C11.896 2.75813 11.896 2.76301 11.8965 2.76626V2.77654C11.8976 2.78358 11.8976 2.79062 11.8971 2.79712L11.9734 2.80579C11.9555 2.77059 11.9285 2.74026 11.8987 2.7186C11.8689 2.69694 11.8375 2.68286 11.8072 2.67312C11.7768 2.66337 11.7476 2.65796 11.7189 2.65416C11.694 2.65092 11.6859 2.65092 11.6702 2.65037C11.655 2.65254 11.6463 2.63684 11.6382 2.62709L11.6269 2.6103L11.6225 2.60489C11.6225 2.60489 11.6204 2.60218 11.6187 2.60164C11.6176 2.60056 11.6155 2.60056 11.6139 2.60056C11.6128 2.60056 11.6166 2.60056 11.6176 2.60056C11.6306 2.59947 11.6436 2.59839 11.6561 2.5946C11.662 2.59406 11.6691 2.58702 11.6626 2.58214C11.6588 2.57781 11.6545 2.57402 11.6496 2.57023C11.6361 2.56265 11.6182 2.5529 11.6014 2.54045C11.5971 2.5372 11.5933 2.53395 11.59 2.53016C11.5895 2.52908 11.5889 2.52799 11.5884 2.52691L11.5819 2.5594C11.6366 2.59189 11.5072 2.51771 11.5202 2.52529H11.5207C11.5223 2.52637 11.5234 2.52745 11.524 2.52854C11.524 2.52908 11.524 2.53016 11.5245 2.5307C11.537 2.55561 11.4969 2.47493 11.5521 2.58648L11.5532 2.58539L11.5608 2.58052C11.5711 2.57456 11.5819 2.5659 11.5906 2.55615C11.5965 2.54965 11.5965 2.54803 11.5982 2.5437C11.603 2.52745 11.5954 2.51337 11.5933 2.50796C11.5889 2.50254 11.5933 2.50363 11.5852 2.52095C11.5944 2.49334 11.5727 2.47276 11.5619 2.45435C11.5586 2.45056 11.5559 2.44027 11.5662 2.44244C11.5738 2.44352 11.5808 2.4446 11.5879 2.44731C11.6019 2.45164 11.6149 2.4576 11.6274 2.4641C11.6523 2.47709 11.674 2.4928 11.6956 2.50688L11.7119 2.51662C11.7146 2.51825 11.7173 2.51933 11.72 2.52095C11.7211 2.52095 11.7335 2.52799 11.7633 2.52529C11.7785 2.5242 11.8055 2.51229 11.8191 2.4928C11.8272 2.48197 11.8305 2.47439 11.8326 2.4668C11.8337 2.46301 11.8353 2.45868 11.8359 2.45543L11.837 2.44785C11.838 2.43431 11.8375 2.43431 11.838 2.43215V2.42457L11.8397 2.39858C11.8407 2.38287 11.8429 2.36988 11.8451 2.36392C11.8456 2.36338 11.8462 2.36175 11.8462 2.36175C11.844 2.36067 11.8424 2.35959 11.8418 2.35905C11.8397 2.35796 11.837 2.35634 11.8348 2.35471C11.8283 2.35038 11.8277 2.34713 11.831 2.35309C11.831 2.35309 11.8332 2.35688 11.8337 2.3585L11.8348 2.36175V2.36284C11.8348 2.36284 11.8397 2.378 11.8375 2.37096L11.8413 2.36988C11.8505 2.36663 11.8597 2.36338 11.8711 2.35634C11.8759 2.35363 11.8819 2.3493 11.8879 2.34442C11.8933 2.33955 11.8987 2.33468 11.9041 2.3271C11.9095 2.32006 11.9138 2.31302 11.9176 2.30435C11.9193 2.30002 11.9209 2.29569 11.9225 2.29136C11.9241 2.28703 11.9231 2.28919 11.9236 2.28757C11.9252 2.2762 11.9182 2.26591 11.9106 2.25887C11.9068 2.25508 11.9025 2.25183 11.8976 2.24912C11.8954 2.2475 11.8927 2.24695 11.8906 2.24479C11.8889 2.24262 11.8895 2.23937 11.89 2.23667C11.8922 2.22584 11.8976 2.21609 11.9036 2.20688C11.9095 2.19768 11.9171 2.18901 11.9252 2.18197C11.936 2.18197 11.9469 2.18306 11.9577 2.18468C11.9837 2.18901 12.0092 2.19605 12.0357 2.19605C12.0774 2.19605 12.1196 2.19605 12.1608 2.19659C12.248 2.19659 12.3346 2.19659 12.4212 2.19659C12.4646 2.19659 12.5073 2.19551 12.5501 2.19659C12.5929 2.19822 12.6357 2.20038 12.6785 2.20201C12.764 2.20634 12.8485 2.21013 12.9335 2.21392C13.0185 2.21663 13.1019 2.22638 13.1853 2.23667C13.2687 2.24641 13.3515 2.25724 13.4344 2.26916C13.5172 2.27944 13.5985 2.29786 13.6791 2.31627C13.7598 2.33468 13.84 2.35471 13.9196 2.37637C13.8097 2.35688 13.6559 2.34497 13.743 2.36067C14.0051 2.39695 14.2629 2.45543 14.5212 2.51229C14.4687 2.46518 14.4248 2.47005 14.2672 2.40886C14.3181 2.41157 14.3999 2.4224 14.4925 2.4381C14.584 2.45814 14.6869 2.48413 14.7822 2.51121C14.4313 2.43215 14.7724 2.55832 14.9154 2.61626C14.8932 2.60056 14.9468 2.60543 14.9371 2.59297C15.1266 2.68341 15.1472 2.67582 15.1872 2.67095C15.2073 2.66879 15.2322 2.66716 15.2847 2.68016C15.3372 2.69315 15.419 2.71806 15.5479 2.78034L15.5143 2.78413C15.6145 2.81932 15.7125 2.85019 15.8116 2.88322C15.9112 2.91625 16.0082 2.96011 16.1127 3.00831C16.1852 3.0787 15.8993 2.92979 15.8749 2.94983C16.0217 3.01589 16.1739 3.06462 16.3195 3.1204C16.463 3.18051 16.6016 3.24332 16.7235 3.32509C16.5973 3.27094 16.4219 3.18159 16.2957 3.12744C16.4278 3.21787 16.5031 3.26498 16.5713 3.30343C16.6395 3.34187 16.7007 3.37112 16.8004 3.43339L16.7809 3.42093C16.9341 3.51786 17.0912 3.60829 17.2379 3.71443L17.1274 3.6305C17.2238 3.66569 17.3159 3.7101 17.4074 3.76046C17.4529 3.78645 17.4995 3.8119 17.5439 3.84168C17.5877 3.87255 17.6327 3.90341 17.6782 3.93536C17.768 4.00088 17.8644 4.06478 17.9619 4.13843C18.0594 4.21153 18.1639 4.28572 18.2803 4.35828C17.8298 4.07507 18.1915 4.32958 18.1352 4.33499C18.2392 4.42596 18.387 4.57542 18.3355 4.54401C18.4417 4.61603 18.5191 4.68914 18.6052 4.77199C18.6886 4.85754 18.7823 4.95068 18.929 5.05844C18.9317 5.07848 19.1169 5.25663 19.0541 5.23659C19.2897 5.46944 19.0162 5.16512 19.0465 5.17378C19.2409 5.34165 19.4332 5.57558 19.6314 5.83766C19.8258 6.10246 20.0369 6.38946 20.2552 6.6862C20.6126 7.21146 20.7035 7.2981 20.9819 7.82336C21.0138 7.9192 20.9867 7.88617 20.9515 7.82986C20.9337 7.8017 20.9142 7.76758 20.899 7.74051C20.8844 7.71343 20.8719 7.69394 20.8719 7.69394C20.9315 7.84393 20.9851 7.97444 21.0431 8.10061C21.0994 8.22732 21.1497 8.35403 21.2131 8.49211C21.1801 8.43905 21.1947 8.50132 21.2153 8.59175C21.2976 8.82027 21.3111 8.73038 21.3967 9.04066C21.3658 8.99246 21.3214 8.93236 21.271 8.82622C21.297 8.89283 21.3236 8.95889 21.3495 9.0255C21.3766 9.09156 21.3977 9.15979 21.4221 9.22748C21.4681 9.36339 21.5217 9.49931 21.5575 9.64335C21.5542 9.72512 21.4865 9.47657 21.4405 9.38126C21.453 9.42079 21.4665 9.46357 21.4806 9.50797C21.4941 9.55238 21.505 9.59949 21.518 9.6466C21.5434 9.74136 21.5694 9.83829 21.5938 9.92872C21.6208 10.0186 21.636 10.1036 21.6555 10.1702C21.6734 10.2374 21.6896 10.2877 21.7026 10.3121L21.6772 10.0988C21.7004 10.2184 21.6587 10.1659 21.6371 10.0787C21.6192 10.0094 21.6024 9.95038 21.5905 9.89948C21.5786 9.84858 21.5716 9.80634 21.5678 9.77169C21.5602 9.70238 21.5645 9.66447 21.5689 9.65526L21.6241 9.85995C21.63 9.80309 21.6198 9.72241 21.6008 9.62765C21.5905 9.58054 21.5802 9.52855 21.5634 9.47603C21.5472 9.42296 21.5288 9.36773 21.5098 9.31087C21.4903 9.25401 21.4703 9.19607 21.4503 9.13759L21.4199 9.04986C21.4086 9.02116 21.3972 8.99246 21.3858 8.96376C21.3403 8.84951 21.2981 8.73796 21.2651 8.6367L21.3728 8.78778L21.2813 8.58742L21.1806 8.39139C21.1595 8.29988 21.1638 8.22894 21.2488 8.4228C21.16 8.12714 21.1346 8.17588 21.0517 7.92354C21.0441 7.89484 21.0517 7.90621 21.0647 7.93003C21.0181 7.84123 20.9737 7.75134 20.925 7.66307C20.9607 7.71127 20.9391 7.6008 21.0089 7.77246C20.9629 7.64466 20.9028 7.53744 20.8524 7.43943C20.7994 7.3425 20.7539 7.25532 20.7046 7.18222C20.6093 7.03385 20.5368 6.9223 20.5026 6.82374C20.5118 6.83566 20.52 6.84865 20.5281 6.86111C20.3207 6.54812 20.3007 6.53999 20.2931 6.55082C20.2887 6.55678 20.2871 6.56815 20.2649 6.54974C20.2422 6.53187 20.2026 6.48259 20.1111 6.37646C20.0646 6.25625 20.0191 6.13387 19.9703 6.01257L19.8934 5.97846C19.8469 5.91672 19.7548 5.79489 19.7846 5.80734C19.5859 5.59778 19.8014 5.85662 19.6785 5.74128C19.6292 5.66222 19.5561 5.57883 19.483 5.49056C19.4088 5.40284 19.3308 5.31295 19.2528 5.23551C19.1765 5.15591 19.1072 5.08281 19.0557 5.0227C19.0054 4.96151 18.968 4.91927 18.9642 4.89274C18.8473 4.8218 19.2041 5.15537 18.9036 4.89545C18.8862 4.83209 18.8007 4.75466 18.6924 4.66152C18.5803 4.57217 18.4428 4.47037 18.3242 4.3469C18.4249 4.38806 18.6577 4.61387 18.42 4.36694C18.3956 4.35557 18.3702 4.34041 18.3431 4.322C18.3155 4.30413 18.2857 4.28409 18.2554 4.26081C18.1942 4.21478 18.1292 4.16009 18.0626 4.1016C18.0296 4.07236 17.996 4.04312 17.9624 4.01334C17.9278 3.98572 17.8931 3.95811 17.859 3.93103C17.7908 3.87742 17.7247 3.8276 17.6646 3.78807C17.6305 3.81407 17.135 3.45505 16.7024 3.24115C16.711 3.24115 16.6655 3.21408 16.5865 3.16968C16.547 3.14802 16.4988 3.12148 16.4451 3.0917C16.391 3.06246 16.332 3.02834 16.267 2.9991C16.1376 2.93791 15.9957 2.86698 15.8576 2.80524C15.719 2.74568 15.5874 2.6899 15.484 2.6455L15.4991 2.64279C15.4515 2.64658 15.3167 2.61463 15.1558 2.56428C14.9961 2.51121 14.8028 2.46031 14.6398 2.41861C14.6598 2.39478 14.721 2.40074 14.9008 2.43865L14.5948 2.35201C14.5196 2.34388 14.4205 2.33197 14.219 2.29082L14.3046 2.27457C14.2012 2.25237 14.0977 2.228 13.9905 2.21176C13.8833 2.19659 13.7739 2.18089 13.6613 2.16465C13.5486 2.14569 13.4311 2.13649 13.3093 2.12078C13.1869 2.1067 13.0602 2.08396 12.9248 2.07097C12.8929 2.10183 13.3434 2.19497 12.7743 2.17385C12.7548 2.15436 12.7359 2.12241 12.8853 2.12674C12.836 2.12512 12.7099 2.12836 12.6124 2.1132L12.8425 2.10075C12.5972 2.06934 12.712 2.11483 12.516 2.09967C12.5214 2.07421 12.3709 2.07801 12.4001 2.05851C12.4505 2.05689 12.5718 2.07259 12.6476 2.07042C12.5366 2.05689 12.4137 2.0531 12.3075 2.04281C12.2014 2.0336 12.1115 2.02277 12.0671 2.01194C12.0768 2.01952 12.0768 2.02819 12.0541 2.03468C12.0292 2.04443 11.9599 2.0336 11.8657 2.02602C11.8624 2.02602 11.8592 2.02548 11.8581 2.02548C11.8456 2.02819 11.8332 2.03035 11.8218 2.03252C11.8164 2.03414 11.8104 2.03523 11.805 2.03685C11.7996 2.03848 11.7953 2.04497 11.7909 2.04822C11.7731 2.06555 11.7595 2.08288 11.7492 2.09967C11.7389 2.11591 11.7314 2.13161 11.727 2.14569C11.7249 2.15219 11.7232 2.15977 11.7259 2.16248C11.7287 2.16465 11.7314 2.16519 11.733 2.16735C11.7492 2.18197 11.7438 2.19659 11.74 2.20093C11.7352 2.20742 11.7292 2.20526 11.7222 2.228L11.7211 2.23288C11.7211 2.23288 11.7205 2.2345 11.7211 2.23504L11.7297 2.23288C11.7357 2.23179 11.7422 2.23017 11.7492 2.22854L11.7546 2.22746H11.7557C11.701 2.19714 11.831 2.26807 11.8175 2.26103L11.8164 2.25995C11.8153 2.25887 11.8055 2.25129 11.7996 2.23612C11.7974 2.23179 11.7947 2.22638 11.7926 2.22096L11.7898 2.21284V2.21176C11.7909 2.21501 11.7801 2.18089 11.7844 2.19551L11.7823 2.19659L11.7779 2.19822C11.766 2.20201 11.7536 2.20742 11.74 2.21609C11.7129 2.23288 11.688 2.2632 11.675 2.29352C11.6588 2.34659 11.6637 2.39587 11.6648 2.43377V2.43865C11.6951 2.43865 11.5971 2.43865 11.7324 2.43865H11.7373C11.7465 2.43865 11.7525 2.44081 11.7546 2.44244C11.7579 2.44677 11.7503 2.43702 11.7563 2.4132C11.7568 2.41049 11.7574 2.40778 11.7584 2.40507C11.7557 2.4159 11.7828 2.30923 11.7714 2.35417L11.7703 2.35309C11.7693 2.35201 11.7682 2.35092 11.7666 2.35038L11.7357 2.33414C11.7081 2.32006 11.6815 2.30706 11.6561 2.29731C11.6057 2.27782 11.563 2.27078 11.5332 2.27349C11.5034 2.27565 11.4866 2.28648 11.4899 2.29515C11.4823 2.29515 11.4704 2.30056 11.472 2.30652C11.472 2.31139 11.4747 2.31464 11.4769 2.31789C11.4812 2.32385 11.485 2.32926 11.4877 2.33359C11.4931 2.34226 11.4936 2.3493 11.4893 2.35688C11.4844 2.365 11.4741 2.37367 11.4606 2.3845C11.4574 2.3872 11.4541 2.38991 11.4509 2.39316L11.446 2.39803L11.4438 2.40074C11.4438 2.40074 11.4487 2.40561 11.4509 2.40778L11.4676 2.42348L11.4763 2.43161L11.4785 2.43377H11.479V2.43431C11.4763 2.43107 11.5018 2.46301 11.4909 2.44948V2.44894L11.4893 2.44731C11.4855 2.44298 11.4812 2.43594 11.479 2.43215H11.4785V2.43323C11.4698 2.43756 11.4547 2.44839 11.4454 2.45922C11.4352 2.4706 11.4287 2.48305 11.4243 2.49875C11.4222 2.50633 11.4211 2.51446 11.4205 2.52204C11.4205 2.53287 11.4205 2.52799 11.4205 2.5307C11.4211 2.53449 11.4216 2.53774 11.4232 2.54099C11.4281 2.55399 11.4346 2.5659 11.4433 2.57944C11.4606 2.60543 11.4899 2.63684 11.531 2.66662L11.5483 2.67962C11.5483 2.67962 11.5483 2.68124 11.5462 2.68341L11.5418 2.6899L11.524 2.71481L11.4877 2.76517C11.5039 2.7603 11.5267 2.75001 11.5364 2.74893C11.5483 2.74622 11.5478 2.7473 11.5445 2.7473C11.5288 2.74947 11.5012 2.75055 11.4801 2.74839C11.4693 2.7473 11.4584 2.74514 11.4557 2.73756C11.4557 2.73322 11.4568 2.72727 11.4682 2.71481C11.4693 2.71373 11.472 2.71102 11.472 2.71102L11.4676 2.7159C11.4649 2.71915 11.4639 2.72131 11.4617 2.72348C11.4606 2.72727 11.4633 2.72835 11.4693 2.72835C11.4741 2.72835 11.479 2.72835 11.4839 2.72835C11.485 2.72998 11.4926 2.72456 11.4936 2.7251L11.4958 2.72781L11.5061 2.74189C11.5131 2.75164 11.5207 2.76084 11.5283 2.77005C11.544 2.78792 11.5602 2.80416 11.5814 2.81499C11.603 2.8242 11.6252 2.82474 11.6496 2.8269C11.7043 2.82799 11.7227 2.83124 11.7476 2.83665C11.7963 2.84802 11.8191 2.86698 11.8299 2.88376L11.8608 2.93141L11.903 2.92817C11.9344 2.926 11.9442 2.92113 11.9577 2.91734C11.9702 2.91354 11.9805 2.90975 11.9897 2.90651C12.0075 2.89947 12.0194 2.89405 12.0254 2.88972C12.0373 2.8816 12.0265 2.87943 11.981 2.88485C11.962 2.88918 11.9436 2.89405 11.9193 2.89676C11.9333 2.89405 11.9458 2.89026 11.9593 2.88647C12.0037 2.87185 12.0454 2.8556 12.086 2.84315C12.105 2.83719 12.1191 2.83394 12.1418 2.83503H12.209C12.2989 2.83503 12.3898 2.83665 12.4808 2.83936C12.5718 2.83936 12.6627 2.84856 12.7543 2.85723C12.8452 2.86589 12.9367 2.87456 13.0283 2.88376C13.1192 2.89513 13.2097 2.91084 13.3001 2.92383C13.39 2.939 13.481 2.94766 13.5692 2.96715C13.658 2.98394 13.7468 3.00073 13.8346 3.01697C13.8784 3.02509 13.9223 3.03268 13.9656 3.04026C14.0089 3.04946 14.0517 3.05867 14.095 3.06787L14.0912 3.08033C14.5055 3.14802 14.9907 3.31805 15.282 3.39169C15.3973 3.43772 15.5457 3.52111 15.491 3.5157C15.5663 3.54223 15.6253 3.56335 15.6773 3.58176C15.7287 3.60288 15.7737 3.62183 15.823 3.64187C15.8722 3.66299 15.9248 3.68681 15.9908 3.71822C16.0239 3.73446 16.0607 3.75071 16.1008 3.77291C16.1408 3.79565 16.1852 3.82056 16.2356 3.84926C16.0878 3.78591 16.1105 3.80324 16.1208 3.81027C16.1305 3.81894 16.1322 3.81136 15.9323 3.72039C15.9789 3.74313 16.0206 3.76371 16.0596 3.78266C16.0975 3.80269 16.1316 3.82273 16.1641 3.8406C16.2285 3.87688 16.2849 3.90883 16.3423 3.93915C16.4592 3.99818 16.5751 4.06532 16.7776 4.16009C16.7034 4.1368 16.7673 4.18229 16.8675 4.25052C16.9672 4.32037 17.1058 4.40864 17.1913 4.45737L16.9596 4.28138C17.0538 4.33932 17.1421 4.39456 17.226 4.44979C17.3072 4.50881 17.3863 4.56621 17.4659 4.62415L17.3543 4.59762C17.6863 4.85863 17.9884 5.08714 18.2668 5.31024C18.5386 5.5393 18.785 5.76564 18.9637 6.03748C19.0487 6.11166 18.9772 6.02178 18.9036 5.92918C18.8294 5.83712 18.7482 5.74777 18.831 5.80734C18.8992 5.87719 18.9583 5.95679 19.0162 6.03206C19.0731 6.10842 19.1283 6.18098 19.1743 6.24975C19.2648 6.38946 19.3341 6.50155 19.372 6.5492C19.4489 6.6575 19.5036 6.73818 19.555 6.79992C19.6048 6.86273 19.6498 6.90822 19.692 6.95641C19.7337 7.00515 19.7759 7.05442 19.8258 7.12157C19.8745 7.18926 19.9368 7.27156 20.0012 7.39557C19.9785 7.32626 19.9785 7.24557 20.2032 7.60188C20.3835 7.95169 20.3694 8.05783 20.246 7.84502C20.2016 7.76271 20.1853 7.72047 20.1918 7.72156C20.1279 7.61271 20.0359 7.47517 20.1003 7.61596L20.1393 7.65224C20.1799 7.73997 20.2584 7.90458 20.3207 8.03238C20.3808 8.16126 20.4144 8.25818 20.3781 8.2062C20.5135 8.46666 20.4534 8.31017 20.3694 8.10819C20.4165 8.22407 20.4604 8.32587 20.5026 8.42172C20.5248 8.46883 20.5432 8.51594 20.5617 8.56251C20.5801 8.60854 20.5985 8.65402 20.6169 8.69951C20.6949 8.87983 20.7571 9.06882 20.834 9.31303C20.8156 9.23343 20.808 9.15654 20.834 9.23343C20.8644 9.32278 20.8806 9.39697 20.8985 9.45599C20.9153 9.51556 20.9288 9.5605 20.9402 9.59624C20.9629 9.66718 20.9764 9.69858 20.9889 9.72241C21.0127 9.7706 21.0301 9.78902 21.0923 10.0381C21.1145 10.1827 21.0945 10.1599 21.0869 10.1637C21.0799 10.1675 21.082 10.1973 21.1378 10.4486C21.1784 10.7599 21.1097 10.52 21.075 10.4009C21.1362 10.6267 21.1541 10.8449 21.1709 11.0366C21.1817 11.2294 21.1773 11.3973 21.186 11.53L21.1546 11.2868C21.173 11.4319 21.1849 11.5516 21.1849 11.6734C21.1936 11.6263 21.2033 11.5792 21.2115 11.5321C21.2115 11.6762 21.2131 11.7985 21.2006 11.7958C21.2245 11.9442 21.2483 11.6805 21.2835 11.9761C21.2662 12.1689 21.2873 12.5664 21.2358 12.6297C21.2434 12.5545 21.2494 12.4987 21.251 12.4581C21.2521 12.4175 21.251 12.392 21.2505 12.3769C21.2477 12.3465 21.2418 12.3574 21.2353 12.3714C21.2218 12.3991 21.2055 12.4381 21.2088 12.183C21.2098 12.2323 21.2098 12.287 21.2077 12.3476C21.206 12.4083 21.2039 12.4743 21.1941 12.5458C21.1876 12.5669 21.1871 12.5247 21.1882 12.4857C21.1048 13.0575 21.2218 12.7543 21.1432 13.3505C21.1362 13.311 21.1227 13.344 21.1059 13.3987C21.0885 13.4528 21.0701 13.5292 21.0642 13.5774C21.108 13.3407 21.1227 13.4696 21.0999 13.6922C21.0896 13.7393 21.0804 13.781 21.0723 13.8183C21.0636 13.8557 21.0555 13.8882 21.0485 13.918C21.0349 13.977 21.0263 14.023 21.0192 14.0631C21.0051 14.1438 21.0003 14.2034 20.9732 14.3014C20.9959 14.2277 21.0149 14.153 21.036 14.0788C21.0382 14.1194 21.0274 14.1871 21.0089 14.2775C20.9867 14.3669 20.9548 14.4784 20.9207 14.6095C20.8974 14.6263 20.9775 14.3707 20.9429 14.4606C20.9315 14.5353 20.9115 14.6127 20.8866 14.6929C20.86 14.773 20.8237 14.8542 20.7891 14.9393C20.7712 14.9815 20.7534 15.0248 20.7349 15.0692C20.7257 15.0914 20.7171 15.1136 20.7079 15.1364C20.6981 15.1586 20.6878 15.1808 20.6775 15.2035C20.6375 15.2939 20.5996 15.3882 20.5671 15.4873C20.5243 15.5744 20.5108 15.5734 20.501 15.5706C20.4913 15.5679 20.4826 15.5631 20.4425 15.6378C20.4008 15.7466 20.3646 15.8289 20.3315 15.8977C20.299 15.967 20.2633 16.0206 20.2308 16.0764C20.1626 16.1863 20.0992 16.3011 19.9839 16.5167C20.0813 16.4105 20.0878 16.3845 19.9395 16.6986L20.1328 16.3445L20.3093 15.9817L20.1599 16.3418C20.1431 16.3818 20.123 16.4203 20.1052 16.4598C20.1696 16.3558 20.2205 16.2367 20.2714 16.1322C20.3218 16.0271 20.3662 15.9329 20.3976 15.8669C20.3586 15.9854 20.3342 16.0353 20.3342 16.0461C20.3337 16.0569 20.3537 16.0271 20.3927 15.9811C20.2936 16.1192 20.227 16.2708 20.1496 16.4257C20.11 16.5026 20.07 16.5806 20.0256 16.6602C20.0034 16.6997 19.9812 16.7398 19.9557 16.7793C19.9292 16.8177 19.9016 16.8567 19.8718 16.8952L19.8138 16.8443C19.6454 17.0798 19.5046 17.2932 19.346 17.5222C19.3048 17.5785 19.2631 17.6359 19.2204 17.6955C19.1765 17.7545 19.1337 17.8168 19.0823 17.8758C19.0319 17.9365 18.9794 17.9988 18.9236 18.0632C18.8955 18.0951 18.8673 18.1287 18.837 18.1617C18.8056 18.1937 18.7731 18.2262 18.74 18.2598C18.7991 18.2045 18.8586 18.1498 18.9133 18.0908C18.902 18.1146 18.8787 18.1498 18.8445 18.1894C18.8099 18.2283 18.7666 18.2738 18.72 18.322C18.6734 18.3702 18.6231 18.4217 18.5743 18.4715C18.5256 18.5218 18.4747 18.5679 18.4335 18.6128C18.4325 18.5787 18.3155 18.6773 18.2299 18.7374C18.2424 18.7412 18.139 18.8321 18.0296 18.9312C17.9749 18.981 17.9191 19.0336 17.8758 19.078C17.8303 19.1207 17.7978 19.157 17.7924 19.1776C17.6971 19.2383 17.6034 19.3 17.5076 19.359C17.382 19.4446 17.2872 19.516 17.207 19.581C17.1269 19.6455 17.0581 19.6969 16.9921 19.7521C16.9249 19.8057 16.8605 19.8626 16.7776 19.9189C16.6948 19.9752 16.5968 20.0364 16.4684 20.1084C16.6076 19.9953 16.3693 20.1133 16.6969 19.8994C16.528 19.9969 16.3758 20.0825 16.3802 20.0965C16.326 20.116 16.2101 20.1853 16.0861 20.2584C16.0249 20.2964 15.9589 20.3288 15.8982 20.3581C15.8376 20.3873 15.7823 20.4111 15.739 20.4241C15.6686 20.4685 15.6562 20.5075 15.4504 20.5861C15.426 20.5904 15.4466 20.5741 15.4466 20.5741C15.4509 20.5861 15.1331 20.7187 15.3221 20.6732C15.2852 20.6835 15.2468 20.6938 15.2073 20.7052C15.1672 20.7149 15.1255 20.7263 15.0827 20.7382C14.9972 20.762 14.9073 20.7897 14.8147 20.8194C14.7215 20.8481 14.6241 20.8731 14.5261 20.9023C14.428 20.931 14.329 20.9613 14.2288 20.9841C14.1286 21.0084 14.0295 21.0328 13.9326 21.0561C13.8351 21.0772 13.7393 21.0924 13.6483 21.1086C13.4669 21.1427 13.3001 21.1541 13.1685 21.1541C13.116 21.1622 13.0618 21.1703 13.0066 21.1785C12.9514 21.185 12.8951 21.1898 12.8382 21.1952C12.7245 21.2055 12.6086 21.2191 12.4938 21.2261C12.2637 21.2353 12.0384 21.2472 11.8445 21.2386C11.8694 21.2315 11.8462 21.2261 11.9193 21.2304C11.7861 21.2212 11.6989 21.2202 11.6333 21.2239C11.5678 21.2277 11.524 21.231 11.4779 21.2369C11.4319 21.2424 11.3832 21.2472 11.3079 21.2467C11.2326 21.2456 11.1308 21.2413 10.9803 21.2126C10.6765 21.1313 11.3036 21.2326 11.113 21.192C11.0756 21.1449 10.8942 21.1243 10.6716 21.1021C10.5612 21.0853 10.4404 21.068 10.3229 21.0474C10.2639 21.0377 10.2059 21.0258 10.1513 21.0095C10.096 20.9943 10.044 20.9781 9.99584 20.9602L10.0928 20.9781C10.0186 20.9532 9.93465 20.9321 9.84314 20.912C9.75108 20.8931 9.65415 20.8655 9.5491 20.8422C9.44459 20.8178 9.33304 20.7934 9.21987 20.7572C9.10669 20.722 8.98702 20.6873 8.86843 20.6402C8.86843 20.6402 8.89388 20.6424 8.87547 20.6294C8.70598 20.5844 8.46339 20.5086 8.2143 20.4014C8.15202 20.3749 8.08704 20.351 8.02477 20.3213C7.9625 20.2915 7.89968 20.2617 7.83795 20.2325C7.77622 20.2027 7.71503 20.1734 7.65546 20.1447C7.59698 20.1133 7.54066 20.083 7.48597 20.0532C7.63543 20.1009 7.6885 20.1496 7.62351 20.0738C7.42966 19.9682 7.65438 20.1529 7.26558 19.9411C7.15241 19.8496 6.89194 19.666 6.87786 19.6124C6.9932 19.6882 7.11125 19.7603 7.22822 19.8344C7.15078 19.7581 7.03761 19.6866 6.92118 19.6184C6.80747 19.5464 6.69159 19.4754 6.6044 19.4099H6.63906C6.60603 19.3872 6.57571 19.3666 6.54646 19.3466C6.51831 19.326 6.49177 19.3065 6.46632 19.2881C6.41596 19.2518 6.37102 19.2198 6.32932 19.1911C6.24647 19.1337 6.17608 19.0904 6.10947 19.0401C5.97464 18.941 5.83005 18.8424 5.58367 18.6047L5.62482 18.6643C5.54793 18.6096 5.49595 18.5673 5.45696 18.531C5.41959 18.4931 5.39523 18.4623 5.37086 18.4314C5.32267 18.3686 5.27393 18.3069 5.13151 18.1845L5.09361 18.0659C4.91437 17.8969 4.49417 17.441 4.23587 17.0782C4.25699 17.102 4.28027 17.1291 4.30626 17.1583C4.33226 17.1876 4.36041 17.219 4.3902 17.2526C4.44922 17.3197 4.51258 17.395 4.57702 17.4719C4.64308 17.5471 4.71347 17.6224 4.779 17.695C4.84452 17.767 4.90571 17.8358 4.96473 17.8904C4.9447 17.8677 4.92087 17.8406 4.89488 17.8114C4.86997 17.7811 4.84235 17.7475 4.81365 17.7123C4.75517 17.6424 4.69127 17.5655 4.62954 17.4919C4.51041 17.3408 4.40049 17.2011 4.35175 17.1573C4.41402 17.2336 4.49741 17.3262 4.54886 17.4091C4.49633 17.3549 4.44164 17.2948 4.3837 17.2293C4.355 17.1962 4.32467 17.1627 4.29598 17.1264C4.26782 17.089 4.23912 17.0511 4.20933 17.0116C4.15085 16.932 4.08858 16.8475 4.02685 16.7555C3.96782 16.6618 3.90718 16.5627 3.84436 16.4576C3.90772 16.4706 3.75339 16.1934 3.59256 15.8587C3.55357 15.7743 3.51296 15.6871 3.47343 15.601C3.43336 15.5149 3.40249 15.4261 3.37055 15.3448C3.33968 15.2631 3.31098 15.1867 3.29094 15.119C3.27253 15.0508 3.259 14.9923 3.25358 14.9479C3.0868 14.5532 2.97958 14.1395 2.89727 13.7052C2.87886 13.5963 2.85991 13.4864 2.84096 13.3749C2.82742 13.2628 2.81442 13.149 2.80034 13.0337C2.78356 12.9189 2.78031 12.8009 2.77002 12.6812C2.76514 12.6216 2.76081 12.561 2.75594 12.5003C2.75107 12.4397 2.75161 12.3779 2.7489 12.3157C2.68175 12.6725 2.73861 12.0249 2.66172 12.0872C2.65793 12.0287 2.65739 11.9794 2.65847 11.9377C2.65901 11.896 2.65955 11.8624 2.66009 11.8354C2.66172 11.7812 2.66388 11.7536 2.66659 11.7433C2.6758 11.6253 2.69529 11.5083 2.70883 11.3913C2.72453 11.2744 2.74727 11.1585 2.76623 11.0426C2.80684 10.8796 2.76027 11.2641 2.78085 11.2446C2.80792 10.9928 2.82688 10.9413 2.8415 10.9116C2.85612 10.8818 2.86965 10.8731 2.90377 10.7101C2.88482 10.7415 2.88048 10.6966 2.8924 10.6089C2.90431 10.5211 2.92435 10.389 2.96388 10.2504C2.92001 10.3793 2.88644 10.5108 2.84908 10.6419C2.87074 10.4659 2.8924 10.3403 2.92056 10.2417C2.94709 10.1432 2.96983 10.0695 2.99907 9.99749C3.02723 9.92547 3.05485 9.85291 3.08463 9.75544C3.10142 9.70725 3.11929 9.65256 3.1377 9.58812C3.15665 9.52422 3.17452 9.44949 3.20051 9.36393C3.1821 9.43704 3.16911 9.51177 3.15449 9.58595C3.19835 9.40834 3.31152 9.09102 3.43661 8.77857C3.55899 8.46504 3.70628 8.16234 3.76205 7.98798C3.8005 7.93491 3.86169 7.87047 3.78913 8.01505C4.00031 7.63167 4.24778 7.21038 4.51799 6.83132C4.78604 6.45119 5.07303 6.11329 5.32483 5.88098C5.31346 5.90102 5.30317 5.92214 5.29288 5.94272C5.34649 5.88098 5.39198 5.82521 5.44125 5.76673C5.49053 5.7077 5.54685 5.64814 5.62916 5.58532C5.62699 5.59832 5.5945 5.64435 5.65028 5.59345C5.70767 5.52847 5.94648 5.27179 6.12409 5.144C6.08131 5.18948 6.03745 5.23335 5.99575 5.27992C6.32878 5.01079 6.58491 4.8061 6.83021 4.61224C6.89194 4.56459 6.95313 4.51748 7.01432 4.47037C7.07714 4.42488 7.13995 4.37994 7.20439 4.33337C7.26829 4.28626 7.33598 4.24294 7.40637 4.19745C7.47677 4.15251 7.54879 4.10539 7.62839 4.06153C7.63651 4.07724 7.70041 4.05828 7.79409 4.01984C7.84066 4.00034 7.89535 3.97814 7.95437 3.95377C7.98361 3.94132 8.01394 3.92832 8.04535 3.91478L8.06863 3.9045L8.09895 3.89042C8.12765 3.87688 8.15581 3.86334 8.18505 3.8498C8.20401 3.81894 8.2235 3.78753 8.24245 3.75667L8.27603 3.70739C8.29877 3.6749 8.32151 3.64349 8.34426 3.61533C8.36646 3.58718 8.3892 3.56172 8.40761 3.54386C8.41736 3.53411 8.44173 3.52328 8.47584 3.50541C8.50617 3.48808 8.5327 3.46967 8.54894 3.45397C8.54732 3.45938 8.54678 3.4648 8.54353 3.47021C8.58685 3.43447 8.61447 3.39548 8.63342 3.34566C8.65291 3.29639 8.65345 3.23466 8.63775 3.18321C8.60797 3.07979 8.52295 2.99694 8.41465 2.93954C8.38812 2.92492 8.35888 2.913 8.33072 2.90163L8.28686 2.88647C8.27061 2.88051 8.26357 2.87943 8.25166 2.87618C8.20834 2.86481 8.1726 2.85777 8.13361 2.85236C8.09516 2.84694 8.0578 2.84369 8.02098 2.84207H7.99336L7.9625 2.84098C7.93325 2.84098 7.90401 2.84207 7.87531 2.84207C7.8282 2.86589 7.78109 2.88972 7.73452 2.913C7.69933 2.93141 7.66413 2.94928 7.62947 2.96715C7.59481 2.98502 7.56016 3.00343 7.52604 3.0213C7.49247 3.0408 7.4589 3.05975 7.42532 3.0787C7.35872 3.11715 7.29266 3.15506 7.22605 3.19296C7.16107 3.23357 7.09663 3.27364 7.03165 3.31426C6.90061 3.39332 6.77552 3.48321 6.64393 3.57039C6.5795 3.61642 6.51452 3.66299 6.44845 3.7101C6.41542 3.73392 6.38185 3.75775 6.34827 3.78158C6.31524 3.80648 6.28167 3.83193 6.2481 3.85793C5.98926 4.00197 5.58584 4.3025 5.18729 4.67614C4.78658 5.04761 4.3929 5.48948 4.08966 5.85662C4.13894 5.80247 4.14381 5.81384 4.12432 5.85608C4.10428 5.89777 4.06042 5.97033 4.01385 6.04073C3.86873 6.2113 3.69599 6.56761 3.67108 6.50859L3.71657 6.44361C3.64617 6.49776 3.55736 6.62718 3.45773 6.77826C3.36351 6.93258 3.2617 7.1102 3.17885 7.2694L3.21134 7.35333C3.0803 7.54773 2.95521 7.78816 2.84041 8.04537C2.78518 8.17479 2.73103 8.308 2.68175 8.44284C2.63573 8.57875 2.58482 8.71251 2.54638 8.84734C2.37959 9.38235 2.287 9.87891 2.19494 10.1215C2.18411 10.2347 2.16787 10.3598 2.15108 10.4848C2.13862 10.6105 2.12671 10.7356 2.12076 10.8477L2.0861 10.8314C2.06823 10.9868 2.05307 11.1233 2.04115 11.2522C2.03303 11.3816 2.02328 11.5034 2.01787 11.6301C2.01625 11.7568 2.00975 11.8884 2.013 12.0363C2.01841 12.1841 2.02004 12.3492 2.03249 12.5426C2.01841 12.4906 2.01029 12.4381 2 12.3861C2 12.4955 2.0157 12.5843 2.03087 12.6622C2.04657 12.7402 2.06498 12.8068 2.08339 12.8718C2.11696 13.0028 2.16516 13.1268 2.19061 13.325L2.15216 13.4523C2.26155 14.2028 2.42291 14.9674 2.74565 15.6502C2.73374 15.6416 2.71099 15.6264 2.66334 15.5127C2.69529 15.5966 2.74186 15.7201 2.79276 15.8555C2.84799 15.9892 2.91298 16.1338 2.97146 16.2649C3.09654 16.5226 3.21189 16.7159 3.21405 16.6407C3.20485 16.6482 3.22055 16.6964 3.25737 16.7679C3.29528 16.8389 3.35213 16.9342 3.41657 17.0392C3.47885 17.1453 3.55899 17.2558 3.6348 17.3619C3.71061 17.4686 3.78263 17.5704 3.84869 17.6495L3.78209 17.6181C3.90122 17.7464 3.96512 17.8103 4.03497 17.891C4.10537 17.9711 4.18876 18.0621 4.34146 18.2478C4.37449 18.2944 4.38586 18.3177 4.37612 18.315C4.36583 18.3128 4.33767 18.282 4.29435 18.2197C4.3485 18.2982 4.39182 18.348 4.4281 18.3865C4.46438 18.4249 4.49362 18.4525 4.52395 18.4812C4.55481 18.5105 4.5873 18.5413 4.62954 18.5874C4.67178 18.6339 4.72593 18.694 4.80282 18.7796L4.66745 18.6708C4.80174 18.8137 4.86564 18.8771 4.91708 18.922C4.96852 18.967 5.00589 18.9946 5.09415 19.0585C5.14126 19.098 5.19758 19.1505 5.2566 19.2074C5.31563 19.2642 5.37573 19.3271 5.4353 19.3818C5.55226 19.4938 5.64757 19.5951 5.65948 19.6265C5.71038 19.6482 5.89774 19.757 6.07211 19.907C6.08943 19.9363 6.0185 19.8902 5.9833 19.8669C6.01471 19.8929 6.04503 19.9184 6.07481 19.9433C6.10514 19.9671 6.13546 19.9888 6.1647 20.0099C6.22319 20.0521 6.27896 20.0911 6.33203 20.1279C6.3851 20.1642 6.436 20.1989 6.48527 20.2303C6.53563 20.2601 6.58437 20.2882 6.63148 20.3158C6.7257 20.3705 6.81343 20.4231 6.90169 20.4767C6.99158 20.5276 7.08039 20.5812 7.17407 20.6451C7.17623 20.6602 7.19898 20.6797 7.22984 20.7019C7.11721 20.637 7.00999 20.5747 6.91306 20.5189C6.81667 20.4621 6.73437 20.4046 6.66451 20.3608C6.52589 20.2709 6.44683 20.2189 6.46416 20.2276C6.44466 20.2557 6.79826 20.488 6.48961 20.3451C6.78689 20.5157 7.31323 20.7599 7.6755 20.9516C7.69174 20.9635 7.70745 20.9759 7.71936 20.9862C7.70582 20.9819 7.69283 20.9759 7.67983 20.9705C7.76376 21.0155 7.84337 21.0458 7.91809 21.074C7.97712 21.1032 8.02477 21.1276 8.07242 21.1514C8.11953 21.1752 8.16718 21.1974 8.22621 21.2202C8.24354 21.2418 8.35509 21.2895 8.48667 21.342C8.5197 21.355 8.55382 21.3685 8.58793 21.3815C8.62259 21.394 8.65779 21.4048 8.69136 21.4162C8.75905 21.4389 8.8224 21.46 8.87222 21.4768C8.86735 21.4368 9.12565 21.5304 8.89117 21.4194C8.92204 21.4324 8.85219 21.4108 8.71952 21.3674C8.68919 21.3582 8.654 21.3469 8.63342 21.3425C8.63775 21.3425 8.64262 21.3436 8.64804 21.3442C8.51862 21.2976 8.35184 21.2304 8.16123 21.1568C8.24191 21.179 8.32368 21.2017 8.4114 21.2326C8.45526 21.2478 8.50075 21.2651 8.54786 21.2851C8.57115 21.2954 8.59551 21.3063 8.62042 21.3171C8.64533 21.3274 8.67132 21.3387 8.6984 21.3496C8.80832 21.362 8.92746 21.3772 8.99352 21.3875C9.02547 21.4048 9.06121 21.4238 9.1002 21.4422C9.13973 21.4584 9.18142 21.4763 9.22474 21.4942C9.31192 21.5283 9.40398 21.5646 9.48954 21.5981C9.66228 21.662 9.81444 21.7075 9.84855 21.733C10.0056 21.7676 10.1789 21.7925 10.3549 21.8207C10.5303 21.8526 10.7117 21.8667 10.885 21.8851C10.9283 21.8895 10.9711 21.8932 11.0133 21.8976C11.0556 21.9003 11.0973 21.9014 11.1384 21.903C11.2202 21.9057 11.2992 21.9079 11.3729 21.9089C11.5207 21.9138 11.6512 21.9019 11.7519 21.8878C11.9333 21.8835 11.9599 21.9127 12.0281 21.9252C11.9231 21.9295 11.798 21.9252 11.7411 21.9333C11.8321 21.9306 11.9453 21.9328 12.0644 21.9312C12.1835 21.9257 12.3097 21.9203 12.4272 21.9154C12.5447 21.9122 12.6525 21.8981 12.7364 21.8862C12.8203 21.8738 12.8804 21.8608 12.901 21.8478C13.1295 21.8407 13.0667 21.8564 13.025 21.8673C12.9828 21.8754 12.9622 21.8895 13.2741 21.8445L13.1913 21.8694C13.2687 21.8645 13.3445 21.8586 13.4181 21.8521C13.4923 21.8451 13.5649 21.8396 13.6353 21.8266C13.7761 21.8034 13.9115 21.7784 14.0436 21.7514C14.3046 21.6853 14.5521 21.6176 14.7974 21.5283C15.289 21.3555 15.7829 21.1563 16.4197 20.899C16.3331 20.938 16.2876 20.9527 16.2665 20.9543C16.3574 20.9185 16.4441 20.8725 16.5329 20.8297C16.6211 20.7859 16.7105 20.7436 16.7977 20.6976C16.8838 20.6489 16.9704 20.6001 17.0565 20.5509L17.1859 20.4767L17.3121 20.396C17.396 20.3418 17.48 20.2877 17.5639 20.233C17.6473 20.1778 17.7269 20.1166 17.8087 20.0586C17.9738 19.9444 18.1281 19.8155 18.2846 19.6909C18.3642 19.6298 18.4373 19.561 18.5132 19.4955C18.5879 19.4289 18.6648 19.3644 18.7379 19.2967C18.8099 19.2274 18.8819 19.1587 18.9539 19.0899L19.0617 18.987L19.1651 18.8798C19.2344 18.8088 19.3032 18.7379 19.372 18.667C19.4391 18.5949 19.5036 18.5208 19.5696 18.4482C19.7045 18.3052 19.8263 18.1536 19.953 18.0074C20.025 17.9246 20.0727 17.8531 20.1133 17.7957C20.1528 17.7377 20.1826 17.6906 20.2081 17.6473C20.2335 17.604 20.2552 17.5645 20.2779 17.5211C20.2996 17.4767 20.3229 17.4285 20.3543 17.369L20.4382 17.31C20.4729 17.2412 20.5086 17.174 20.5416 17.1047L20.6364 16.8952C20.6732 16.8231 20.7111 16.7549 20.7485 16.6883C20.7837 16.6206 20.8194 16.5551 20.8562 16.4907C20.8931 16.4262 20.9304 16.3629 20.9683 16.299C21.0057 16.2351 21.0393 16.169 21.0755 16.1024C21.1107 16.0353 21.1465 15.967 21.1838 15.8966C21.2218 15.8262 21.251 15.7499 21.2846 15.6714C21.3171 15.5923 21.3495 15.51 21.381 15.4223C21.4107 15.334 21.4356 15.2398 21.4622 15.1402L21.4037 15.2322C21.4286 15.1629 21.4584 15.0725 21.4903 14.9772C21.5228 14.8819 21.5467 14.7784 21.5732 14.6875C21.5986 14.5959 21.6225 14.5147 21.6403 14.46C21.6566 14.4048 21.6669 14.3756 21.6717 14.3896C21.6739 14.3588 21.6669 14.2889 21.7064 14.1801L21.7281 14.1757L21.76 13.9976C21.7703 13.938 21.7763 13.8779 21.7844 13.8178C21.7995 13.6981 21.8163 13.5785 21.8293 13.4588C21.8721 13.1821 21.8894 13.2064 21.9095 13.1983C21.9192 13.1945 21.93 13.1826 21.9452 13.1203C21.9522 13.0895 21.9614 13.0456 21.9707 12.9844C21.9777 12.9227 21.9853 12.8431 21.9934 12.7408C21.9972 12.6644 21.9999 12.5713 21.9999 12.477C21.9961 12.3828 21.9912 12.287 21.9853 12.2041C21.9739 12.039 21.9604 11.9274 21.9522 11.9843C21.9479 12.1072 21.9317 12.2973 21.9111 12.3059L21.9073 12.0287C21.8483 11.9772 21.792 11.7704 21.7335 12.4375C21.7373 12.5929 21.7351 12.7489 21.7367 12.9054C21.7243 12.9546 21.7086 13.0034 21.6923 13.0521C21.7015 12.9871 21.7064 12.9222 21.7107 12.8572L21.7248 12.6617C21.7026 12.7716 21.695 12.862 21.6934 12.9449C21.6896 13.0277 21.6891 13.1025 21.6874 13.1821C21.6674 13.2173 21.6485 13.2806 21.6311 13.3716C21.6328 13.4485 21.6268 13.5248 21.623 13.6017L21.6111 13.8324C21.5786 13.8822 21.6013 13.6218 21.5347 13.9212C21.5131 14.1357 21.6328 13.7312 21.5699 14.0815C21.5315 14.1876 21.5104 14.2234 21.4947 14.2651C21.4865 14.2862 21.48 14.3084 21.473 14.342C21.4665 14.3756 21.4589 14.42 21.4459 14.4844C21.4199 14.5158 21.4286 14.4606 21.4459 14.3582C21.427 14.4736 21.3842 14.6214 21.3501 14.7573C21.3414 14.7914 21.3333 14.8245 21.3252 14.8559C21.3165 14.8873 21.3084 14.9171 21.3008 14.9441C21.2862 14.9988 21.2764 15.0448 21.2743 15.0757C21.2477 15.1282 21.219 15.2013 21.1903 15.2804C21.1616 15.3595 21.1259 15.4429 21.0961 15.5197C21.0349 15.673 20.983 15.7954 20.9597 15.7726C20.951 15.8084 20.9191 15.9064 20.8784 16.0201C20.8579 16.077 20.8357 16.1376 20.8124 16.1966C20.7869 16.254 20.7609 16.3098 20.7371 16.358C20.7961 16.1685 20.7035 16.3466 20.5947 16.5556C20.4799 16.7614 20.3396 16.9948 20.3348 16.9314C20.3142 17.0029 20.2638 17.0906 20.2053 17.1952C20.1756 17.2471 20.1425 17.3024 20.1079 17.3598C20.0738 17.4177 20.031 17.474 19.9909 17.5341C19.9075 17.6522 19.8241 17.7789 19.7326 17.8942C19.6888 17.9533 19.6449 18.0117 19.6032 18.0681C19.5826 18.0968 19.5626 18.1249 19.5425 18.152C19.522 18.1785 19.5019 18.2051 19.4824 18.2305C19.4971 18.2051 19.5279 18.158 19.5577 18.1238C19.464 18.2332 19.3969 18.2982 19.34 18.3551C19.2815 18.4103 19.235 18.4585 19.1662 18.5208C19.1722 18.5511 19.0996 18.6496 19.007 18.7655C18.9837 18.7942 18.9594 18.8245 18.935 18.8549C18.909 18.8841 18.883 18.9134 18.8575 18.9421C18.8061 18.9995 18.7574 19.0552 18.7184 19.1029C18.4287 19.3119 18.8337 18.9112 18.7205 18.9545C18.7406 18.9626 18.6382 19.0774 18.5408 19.1792C18.4406 19.2783 18.3496 19.3688 18.4059 19.3422C18.1823 19.4971 18.2197 19.4836 18.0837 19.5372C18.0848 19.5762 18.0372 19.6173 17.97 19.6698C17.9364 19.6958 17.898 19.7251 17.8585 19.7581C17.8179 19.7895 17.7751 19.8242 17.735 19.8648C17.5661 19.9655 17.5374 19.9682 17.5081 19.9785C17.4935 19.9834 17.4794 19.9915 17.4464 20.0126C17.4134 20.0332 17.3619 20.0684 17.2742 20.1307C17.0922 20.2243 17.4004 20.0001 17.4004 20.0001L17.3949 19.9969ZM7.67117 20.6998V20.6992C7.75023 20.7388 7.81737 20.7734 7.86178 20.7913C7.82062 20.7745 7.76593 20.7474 7.67063 20.6998H7.67117ZM6.91685 20.2806C6.96017 20.3104 7.01107 20.3402 7.06577 20.3716C7.12046 20.403 7.17894 20.4366 7.23905 20.4713C7.25908 20.4972 7.22443 20.4924 7.14916 20.448C7.1719 20.4561 7.13995 20.4334 7.08905 20.3992C7.03815 20.3651 6.96775 20.3213 6.91685 20.2806ZM8.46176 21.3225C8.32964 21.2759 8.28848 21.2521 8.27332 21.238C8.33505 21.2613 8.40761 21.2884 8.50292 21.3236C8.50725 21.3236 8.51537 21.3252 8.5197 21.3257C8.50508 21.3274 8.4883 21.3279 8.46176 21.3225Z" fill="white"/>
<path d="M8.71407 21.3647C8.73357 21.3707 8.7444 21.3723 8.7693 21.3804C8.74331 21.3685 8.7184 21.3577 8.69349 21.3463C8.67617 21.3447 8.6583 21.3425 8.64313 21.3409C8.66696 21.349 8.69187 21.3572 8.71461 21.3642L8.71407 21.3647Z" fill="white"/>
<path d="M11.9805 2.88485L11.9989 2.88052C11.9837 2.88377 11.9691 2.88648 11.9588 2.88648C11.9718 2.88485 11.9724 2.88594 11.9805 2.88485Z" fill="white"/>
<path d="M2.54421 10.0197L2.535 10.0191L2.52796 10.0944L2.54421 10.0197Z" fill="white"/>
<path d="M14.9187 2.61898C14.9263 2.62439 14.9431 2.63197 14.9756 2.64659C14.9734 2.64388 14.9496 2.63089 14.9187 2.61898Z" fill="white"/>
<path d="M16.8036 3.4361L17.0494 3.59206C16.9444 3.52329 16.8664 3.47455 16.8036 3.4361Z" fill="white"/>
<path d="M18.1037 4.33121C18.1232 4.33879 18.1308 4.33825 18.1378 4.33825C18.1367 4.33717 18.1362 4.33662 18.1356 4.33608L18.1037 4.33121Z" fill="white"/>
<path d="M21.233 14.2553C21.2281 14.2765 21.2238 14.2976 21.22 14.3165C21.2054 14.3885 21.2016 14.3994 21.207 14.3799C21.213 14.3604 21.2233 14.3089 21.233 14.2553Z" fill="white"/>
<path d="M19.9085 6.96832C19.9578 7.03222 20.0065 7.09557 20.0558 7.1638C19.9843 7.049 19.928 6.9602 19.9085 6.96832Z" fill="white"/>
<path d="M15.9454 20.6418C15.9454 20.6418 15.9454 20.6418 15.9459 20.6408C15.9292 20.6483 15.9145 20.6554 15.8978 20.663L15.9454 20.6418Z" fill="white"/>
<path d="M20.2358 7.46867C20.173 7.34846 20.1177 7.24991 20.056 7.16435C20.114 7.25911 20.1735 7.37553 20.2358 7.46867Z" fill="white"/>
<path d="M21.5883 10.0511L21.6002 10.1264C21.6002 10.1264 21.6051 10.1285 21.6073 10.134L21.5883 10.0511Z" fill="white"/>
<path d="M21.6079 10.1339L21.6268 10.2163C21.6198 10.1778 21.6138 10.1448 21.6079 10.1339Z" fill="white"/>
<path d="M21.6668 10.3901L21.6267 10.2168C21.6376 10.2774 21.6495 10.3522 21.6668 10.3901Z" fill="white"/>
<path d="M20.9771 8.05891L20.9554 8.04267C20.963 8.0535 20.9706 8.05945 20.9771 8.05891Z" fill="white"/>
<path d="M20.6993 7.48762C20.7323 7.55585 20.7697 7.64358 20.8114 7.73672C20.8498 7.83202 20.8899 7.93382 20.9375 8.02804L20.9554 8.04158C20.9262 8.00043 20.885 7.89104 20.8417 7.77625C20.7962 7.66253 20.7415 7.54665 20.6998 7.48708L20.6993 7.48762Z" fill="white"/>
<path d="M19.2961 5.21764C19.3264 5.25121 19.3578 5.2837 19.387 5.31782L19.4737 5.42179L19.6464 5.62972C19.5955 5.54958 19.5278 5.44291 19.6919 5.62702C19.484 5.35518 19.5008 5.38659 19.5127 5.41908C19.5186 5.43532 19.523 5.45157 19.497 5.42991C19.484 5.41908 19.4634 5.39904 19.432 5.36439C19.4163 5.34706 19.3979 5.32648 19.3757 5.30157C19.3529 5.27775 19.3264 5.24959 19.2961 5.21764Z" fill="white"/>
<path d="M18.0686 4.0756C18.3015 4.25051 18.0784 4.05774 18.0952 4.06044C18.0188 4.00792 17.9706 3.97651 17.962 3.97597C17.9538 3.97489 17.9874 4.0025 18.0686 4.07506V4.0756Z" fill="white"/>
<path d="M15.5967 3.57147L15.5571 3.59151C15.7635 3.66786 15.5642 3.58068 15.5967 3.57147Z" fill="white"/>
<path d="M17.6777 4.55864L17.5115 4.41514L17.4091 4.37994L17.6777 4.55864Z" fill="white"/>
<path d="M18.5504 5.62107C18.5271 5.59887 18.5022 5.57937 18.4784 5.55825C18.5249 5.59778 18.5683 5.64056 18.6116 5.68334L18.7426 5.81114L18.5504 5.62161V5.62107Z" fill="white"/>
<path d="M13.6163 21.0447L13.6889 21.0729C13.834 21.0388 13.8551 20.9884 13.6163 21.0447Z" fill="white"/>
<path d="M5.6536 18.6393C5.62598 18.5998 5.57021 18.5365 5.50631 18.4715C5.44512 18.4038 5.37527 18.335 5.3157 18.2884C5.38285 18.3588 5.44675 18.4319 5.50415 18.4948C5.56371 18.5554 5.6157 18.6074 5.6536 18.6393Z" fill="white"/>
<path d="M2.96326 7.72481L3.02932 7.55857L2.96055 7.71236C2.93781 7.7638 2.91777 7.81633 2.89665 7.86831L2.96326 7.72535V7.72481Z" fill="white"/>
<path d="M9.27718 10.7616H9.68818C9.68818 10.7616 9.78782 11.3588 10.2622 11.3583C10.7365 11.3578 14.7978 11.5197 14.7978 11.5197H10.0505C10.0505 11.5197 9.38873 11.4655 9.27772 10.7616H9.27718Z" fill="white"/>
<path d="M4.2384 11.4114C4.2384 11.4114 3.85935 11.1948 3.85935 10.8699C3.85935 10.545 3.85935 10.3387 4.2384 10.1984C4.61745 10.0582 8.35383 8.92046 9.16608 8.92046C9.97834 8.92046 11.3321 8.81216 12.2527 9.02876C13.1732 9.24536 13.9313 9.67856 14.2021 9.78686C14.4728 9.89516 14.4187 10.1118 15.3392 10.1118C16.2598 10.1118 17.2345 10.2742 17.776 10.3825C18.3175 10.4908 18.9131 10.7616 19.1839 10.924C19.4547 11.0865 20.0503 11.5197 20.1045 11.7363H19.5592C19.5592 11.7363 18.859 11.0865 18.5882 10.9782C18.3175 10.8699 17.9384 10.545 17.1262 10.4367C16.3139 10.3284 15.5558 10.2742 14.9602 10.2742C14.3645 10.2742 13.0108 10.2201 13.0108 10.2201C13.0108 10.2201 12.2115 10.2379 12.0425 10.0121C11.8736 9.78632 12.0902 9.57026 12.2527 9.57026C12.4151 9.57026 12.6317 9.84101 12.7942 9.89516C12.9566 9.94931 13.3357 10.1118 13.6606 10.0576C13.1191 9.67856 12.9025 9.62441 12.9025 9.62441C12.9025 9.62441 12.146 9.25077 11.5222 9.22099C10.8984 9.19121 9.38268 9.22099 9.38268 9.22099C9.38268 9.22099 7.70402 9.40781 7.64987 9.51611C7.59572 9.62441 7.54536 9.75491 8.03109 9.82477C8.51682 9.89462 9.27763 9.90816 9.27763 9.90816C9.27763 9.90816 9.00363 9.99209 8.11015 9.97043C7.21667 9.94877 4.29255 9.84101 4.2384 11.4114Z" fill="white"/>
<path d="M8.08296 11.5738C7.75048 11.1406 7.22089 10.8699 6.64798 10.8699C5.96568 10.8699 5.57688 10.9923 5.26714 11.5738C5.51461 10.8753 5.91424 10.6533 6.6209 10.6533C7.37901 10.6533 7.79055 11.0188 8.08296 11.5738Z" fill="white"/>
<path d="M18.48 11.5738C18.1475 11.1406 17.6179 10.8699 17.045 10.8699C16.3627 10.8699 15.9739 10.9923 15.6642 11.5738C15.9116 10.8753 16.3113 10.6533 17.0179 10.6533C17.776 10.6533 18.1876 11.0188 18.48 11.5738Z" fill="white"/>
<path d="M7.37918 10.1118L13.9314 10.545H8.55803C8.55803 10.545 8.78709 11.1406 8.51634 11.4114C8.35389 10.7616 8.57049 10.5991 7.37918 10.1118Z" fill="white"/>
<path d="M5.51656 14.2142C5.58208 14.3745 5.66439 14.4346 5.8041 14.4346V14.5001C5.59616 14.4904 5.39255 14.4904 5.19328 14.5001V14.4346C5.33136 14.4346 5.35952 14.3772 5.29346 14.2142L5.12722 13.8054H4.39348L4.23319 14.2142C4.16767 14.3772 4.19529 14.4346 4.33337 14.4346V14.5001C4.17309 14.4931 4.00685 14.4931 3.83519 14.5001V14.4346C3.97598 14.4346 4.06262 14.3745 4.12381 14.2142L4.75033 12.6086H4.86459L5.51602 14.2142H5.51656ZM4.42705 13.7149H5.08985L4.75358 12.8805L4.42705 13.7149Z" fill="white"/>
<path d="M6.85742 13.4913H6.7919C6.79623 13.3088 6.68576 13.2054 6.48649 13.2054C6.31917 13.2054 6.21574 13.2779 6.21574 13.4008C6.21574 13.5054 6.30076 13.5947 6.47241 13.6689C6.47674 13.6705 6.49895 13.6803 6.54227 13.6971C6.58559 13.7149 6.6132 13.7279 6.62891 13.735C6.64299 13.742 6.66952 13.7561 6.70688 13.7767C6.74479 13.7978 6.77241 13.8183 6.79082 13.8368C6.82439 13.8757 6.88016 13.9315 6.89803 14.003C6.90778 14.0377 6.91211 14.0756 6.91211 14.1162C6.91211 14.2402 6.86446 14.3382 6.7697 14.4091C6.67493 14.4817 6.54389 14.518 6.37765 14.518C6.23794 14.518 6.1291 14.4941 6.05275 14.447C6.03758 14.3506 6.03055 14.2391 6.02892 14.1124H6.09607C6.09174 14.192 6.11827 14.2629 6.17567 14.323C6.23307 14.3831 6.31646 14.4135 6.42963 14.4135C6.61537 14.4135 6.73504 14.316 6.73504 14.1665C6.73504 14.1053 6.71392 14.0577 6.67385 14.0241C6.63324 13.9922 6.55364 13.9489 6.43505 13.8958C6.30834 13.8373 6.21195 13.7772 6.14643 13.7144C6.08091 13.6516 6.04733 13.5693 6.04733 13.4675C6.04733 13.3532 6.09065 13.2639 6.17567 13.1983C6.26068 13.1328 6.37657 13.1009 6.52169 13.1009C6.62078 13.1009 6.728 13.1176 6.84659 13.1523C6.85796 13.2655 6.86175 13.3781 6.85796 13.4929L6.85742 13.4913Z" fill="white"/>
<path d="M7.13339 14.4259C7.29367 14.4259 7.35648 14.3588 7.35648 14.1709V13.4777C7.35648 13.383 7.3397 13.3256 7.2953 13.3034C7.27147 13.292 7.2536 13.2855 7.2379 13.2839C7.22273 13.2823 7.19728 13.2795 7.16263 13.2768V13.2113C7.29259 13.2129 7.42363 13.1864 7.55738 13.129V14.1709C7.55738 14.3566 7.61857 14.4259 7.78211 14.4259V14.5001C7.56605 14.4931 7.34945 14.4931 7.13339 14.5001V14.4259ZM7.43771 12.8344C7.39331 12.8344 7.35703 12.822 7.33049 12.7965C7.30233 12.7727 7.2888 12.7391 7.2888 12.6974C7.2888 12.6097 7.35269 12.548 7.43825 12.548C7.51785 12.548 7.5915 12.6038 7.5915 12.6915C7.5915 12.7348 7.57742 12.7695 7.54818 12.7949C7.51894 12.8214 7.48103 12.8339 7.43771 12.8339V12.8344Z" fill="white"/>
<path d="M9.17709 14.3425C9.1159 14.4557 9.03197 14.5115 8.92746 14.5115C8.87331 14.5115 8.82403 14.4936 8.78396 14.4573C8.74389 14.421 8.71844 14.3793 8.70869 14.3317V14.3263C8.56357 14.4465 8.42982 14.5061 8.30852 14.5061C8.21213 14.5061 8.12604 14.4741 8.05023 14.4113C7.97496 14.3485 7.93705 14.2662 7.93705 14.1627C7.93705 13.9954 8.05131 13.8839 8.27874 13.8265C8.36646 13.8043 8.45473 13.7886 8.57711 13.7777C8.63721 13.7723 8.67458 13.768 8.69028 13.7664V13.6202C8.69028 13.514 8.68324 13.4485 8.65563 13.3581C8.62638 13.2676 8.55382 13.2146 8.44227 13.2146C8.39462 13.2146 8.35022 13.2227 8.30852 13.2384C8.26683 13.2552 8.24733 13.2703 8.24841 13.2844C8.24841 13.2958 8.32802 13.3277 8.3226 13.4209C8.3226 13.5032 8.28091 13.5465 8.19697 13.5519C8.13578 13.5563 8.09084 13.5378 8.0616 13.5005C8.03236 13.4631 8.01719 13.4209 8.01719 13.3749C8.01719 13.2855 8.06864 13.2184 8.17206 13.174C8.27387 13.1296 8.37838 13.1068 8.48289 13.1068C8.60851 13.1068 8.7114 13.1431 8.79263 13.2173C8.87331 13.2915 8.91392 13.3944 8.91392 13.5243V14.1757C8.91392 14.4005 8.99352 14.4476 9.15652 14.3209L9.17764 14.3431L9.17709 14.3425ZM8.69028 14.2521V13.8405C8.45473 13.8936 8.33451 13.9212 8.33343 13.9229C8.21213 13.9646 8.15095 14.0387 8.15095 14.146C8.15095 14.2088 8.17315 14.2629 8.21917 14.3062C8.2652 14.3496 8.3226 14.3718 8.39354 14.3718C8.50076 14.3718 8.59985 14.3312 8.69082 14.2516L8.69028 14.2521Z" fill="white"/>
<path d="M11.119 14.2142C11.1845 14.3745 11.2668 14.4346 11.4065 14.4346V14.5001C11.1986 14.4904 10.995 14.4904 10.7957 14.5001V14.4346C10.9338 14.4346 10.9619 14.3772 10.8959 14.2142L10.7296 13.8054H9.99588L9.8356 14.2142C9.77008 14.3772 9.79769 14.4346 9.93578 14.4346V14.5001C9.77549 14.4931 9.60925 14.4931 9.43759 14.5001V14.4346C9.57838 14.4346 9.66503 14.3745 9.72621 14.2142L10.3527 12.6086H10.467L11.1184 14.2142H11.119ZM10.0295 13.7149H10.6923L10.356 12.8805L10.0295 13.7149Z" fill="white"/>
<path d="M11.635 14.4259C11.7953 14.4259 11.857 14.3588 11.857 14.1709V12.7061C11.857 12.6113 11.8402 12.5539 11.7958 12.5317C11.772 12.5204 11.7541 12.5139 11.7384 12.5122C11.7233 12.5106 11.6978 12.5079 11.6632 12.5052V12.4397C11.804 12.444 11.942 12.4159 12.0747 12.3574V14.1709C12.0747 14.3566 12.1348 14.4259 12.2978 14.4259V14.5001C12.0774 14.4904 11.857 14.4904 11.635 14.5001V14.4259Z" fill="white"/>
<path d="M12.6 14.4259C12.7603 14.4259 12.822 14.3588 12.822 14.1709V12.7061C12.822 12.6113 12.8052 12.5539 12.7608 12.5317C12.737 12.5204 12.7191 12.5139 12.7034 12.5122C12.6883 12.5106 12.6628 12.5079 12.6282 12.5052V12.4397C12.769 12.444 12.907 12.4159 13.0397 12.3574V14.1709C13.0397 14.3566 13.0998 14.4259 13.2628 14.4259V14.5001C13.0424 14.4904 12.822 14.4904 12.6 14.5001V14.4259Z" fill="white"/>
<path d="M13.4983 14.4259C13.6586 14.4259 13.7214 14.3588 13.7214 14.1709V13.4777C13.7214 13.383 13.7046 13.3256 13.6602 13.3034C13.6363 13.292 13.6185 13.2855 13.6028 13.2839C13.5876 13.2823 13.5622 13.2795 13.5275 13.2768V13.2113C13.6575 13.2129 13.7885 13.1864 13.9223 13.129V14.1709C13.9223 14.3566 13.9835 14.4259 14.147 14.4259V14.5001C13.9309 14.4931 13.7143 14.4931 13.4983 14.5001V14.4259ZM13.8026 12.8344C13.7582 12.8344 13.7219 12.822 13.6954 12.7965C13.6672 12.7727 13.6537 12.7391 13.6537 12.6974C13.6537 12.6097 13.7176 12.548 13.8031 12.548C13.8827 12.548 13.9564 12.6038 13.9564 12.6915C13.9564 12.7348 13.9423 12.7695 13.9131 12.7949C13.8838 12.8214 13.8459 12.8339 13.8026 12.8339V12.8344Z" fill="white"/>
<path d="M15.542 14.3425C15.4808 14.4557 15.3969 14.5115 15.2923 14.5115C15.2382 14.5115 15.1889 14.4936 15.1488 14.4573C15.1088 14.421 15.0833 14.3793 15.0736 14.3317V14.3263C14.9285 14.4465 14.7947 14.5061 14.6734 14.5061C14.577 14.5061 14.4909 14.4741 14.4151 14.4113C14.3398 14.3485 14.3019 14.2662 14.3019 14.1627C14.3019 13.9954 14.4162 13.8839 14.6436 13.8265C14.7313 13.8043 14.8196 13.7886 14.942 13.7777C15.0021 13.7723 15.0395 13.768 15.0552 13.7664V13.6202C15.0552 13.514 15.0481 13.4485 15.0205 13.3581C14.9913 13.2676 14.9187 13.2146 14.8072 13.2146C14.7595 13.2146 14.7151 13.2227 14.6734 13.2384C14.6317 13.2552 14.6122 13.2703 14.6133 13.2844C14.6133 13.2958 14.6929 13.3277 14.6875 13.4209C14.6875 13.5032 14.6458 13.5465 14.5619 13.5519C14.5007 13.5563 14.4557 13.5378 14.4265 13.5005C14.3972 13.4631 14.3821 13.4209 14.3821 13.3749C14.3821 13.2855 14.4335 13.2184 14.5369 13.174C14.6387 13.1296 14.7433 13.1068 14.8478 13.1068C14.9734 13.1068 15.0763 13.1431 15.1575 13.2173C15.2382 13.2915 15.2788 13.3944 15.2788 13.5243V14.1757C15.2788 14.4005 15.3584 14.4476 15.5214 14.3209L15.5425 14.3431L15.542 14.3425ZM15.0552 14.2521V13.8405C14.8196 13.8936 14.6994 13.9212 14.6983 13.9229C14.577 13.9646 14.5158 14.0387 14.5158 14.146C14.5158 14.2088 14.538 14.2629 14.5841 14.3062C14.6301 14.3496 14.6875 14.3718 14.7584 14.3718C14.8656 14.3718 14.9647 14.3312 15.0557 14.2516L15.0552 14.2521Z" fill="white"/>
<path d="M16.9731 14.1709C16.9731 14.3566 17.0343 14.4259 17.1978 14.4259V14.5001C16.9829 14.4931 16.7668 14.4931 16.5491 14.5001V14.4259C16.7094 14.4259 16.7722 14.3588 16.7722 14.1709V13.677C16.7722 13.6478 16.7706 13.6099 16.7668 13.5627C16.7625 13.5151 16.7587 13.4804 16.7516 13.4582C16.7446 13.4371 16.7348 13.4106 16.7208 13.3813C16.6774 13.299 16.6065 13.2768 16.4782 13.2682C16.2957 13.2682 16.1533 13.3424 16.0526 13.4913V14.1709C16.0526 14.3566 16.1154 14.4259 16.2784 14.4259V14.5001C16.0634 14.4931 15.8473 14.4931 15.6296 14.5001V14.4259C15.7899 14.4259 15.8527 14.3588 15.8527 14.1709V13.4777C15.8527 13.383 15.8349 13.3256 15.7899 13.3034C15.7661 13.292 15.7482 13.2855 15.7325 13.2839C15.7174 13.2823 15.6919 13.2795 15.6573 13.2768V13.2113C15.7872 13.2129 15.9183 13.1864 16.052 13.129V13.383C16.2096 13.2005 16.3926 13.1079 16.5973 13.1095C16.7424 13.1025 16.8301 13.1572 16.8886 13.2156C16.9276 13.2519 16.946 13.3288 16.9585 13.3759C16.9655 13.3998 16.9699 13.4333 16.9726 13.4734C16.9742 13.514 16.9753 13.547 16.9753 13.5709C16.9753 13.5958 16.9753 13.631 16.9736 13.6754C16.972 13.7198 16.972 13.7534 16.972 13.7745V14.1709H16.9731Z" fill="white"/>
<path d="M18.667 14.2543C18.5359 14.4313 18.3475 14.5191 18.1033 14.5191C17.8883 14.5191 17.7101 14.459 17.5677 14.3393C17.4242 14.2191 17.3527 14.0534 17.3527 13.8427C17.3527 13.6207 17.4296 13.4409 17.5829 13.3028C17.7361 13.1648 17.9175 13.0965 18.1271 13.0965C18.3042 13.0965 18.4688 13.1409 18.6236 13.2319C18.6404 13.3619 18.6458 13.5108 18.6404 13.6797H18.5749C18.5749 13.5081 18.5316 13.3841 18.4466 13.3045C18.3616 13.2249 18.25 13.1859 18.113 13.1859C17.9413 13.1859 17.813 13.24 17.728 13.3489C17.6413 13.4593 17.598 13.6001 17.598 13.7718C17.598 13.9532 17.6457 14.0994 17.7388 14.2126C17.8325 14.3257 17.9717 14.3826 18.1601 14.3826C18.3486 14.3826 18.4948 14.3198 18.615 14.1942L18.6664 14.2543H18.667Z" fill="white"/>
<path d="M20.1285 14.1806C20.0797 14.2824 20.0028 14.362 19.8983 14.4221C19.7938 14.4822 19.6763 14.5115 19.5496 14.5115C19.3585 14.5115 19.2036 14.4476 19.0839 14.3176C18.9637 14.1877 18.9041 14.0247 18.9041 13.8265C18.9041 13.6283 18.967 13.4539 19.0926 13.3147C19.2182 13.1767 19.3774 13.1068 19.5696 13.1068C19.7148 13.1068 19.8344 13.1474 19.9281 13.2297C20.0218 13.312 20.0743 13.422 20.0846 13.5633L19.1278 13.781C19.1321 13.9413 19.1765 14.0766 19.2642 14.1871C19.352 14.2976 19.4733 14.3534 19.6297 14.3534C19.7175 14.3534 19.8041 14.3355 19.8908 14.3003C19.9758 14.2656 20.0402 14.2126 20.0819 14.1411L20.1296 14.1817L20.1285 14.1806ZM19.2523 13.3478C19.1781 13.4523 19.1364 13.5665 19.1267 13.6884L19.8577 13.5265C19.8426 13.436 19.8074 13.3564 19.7516 13.2909C19.6958 13.2254 19.6233 13.1918 19.5339 13.1918C19.4196 13.1918 19.326 13.2433 19.2523 13.3483V13.3478Z" fill="white"/>
<path d="M5.24045 15.7136C8.82628 15.7082 14.3545 15.6719 17.8813 15.7039C17.8813 15.7093 18.7353 15.7039 18.7239 15.719L17.8813 15.7288C14.3805 15.7553 8.78621 15.7353 5.24045 15.7136Z" fill="white"/>
</svg>
