<svg xmlns="http://www.w3.org/2000/svg" width="24" height="24" viewBox="0 0 24 24" fill="none"><rect width="24" height="24" fill="none"/>
<path d="M3 15.9891C3.00163 16.1242 3.66796 17.2871 4.03985 17.8039C4.47982 18.4152 5.29326 19.2746 5.87 19.7376C7.20103 20.806 8.93097 21.5855 10.6391 21.8868C11.5491 22.0473 13.128 22.0354 13.9217 21.862C14.5458 21.7257 15.2998 21.4654 15.8187 21.207C16.7622 20.7374 17.9446 19.7468 18.5281 18.9372C18.8175 18.5356 19.3237 17.6913 19.3244 17.609C19.3256 17.4638 17.49 17.7496 16.7549 18.009C15.0007 18.6279 13.3308 20.0413 12.5664 21.5537C12.4673 21.7499 12.3722 21.9097 12.3551 21.9089C12.338 21.908 12.2284 21.7089 12.1116 21.4666C11.9948 21.2241 11.7361 20.7818 11.5369 20.4836C9.88703 18.0153 7.38288 16.4365 4.43625 16.0067C3.67998 15.8964 2.99884 15.8881 3 15.9891Z" fill="#00BE64"/>
<path fill-rule="evenodd" clip-rule="evenodd" d="M11.4525 2.03148C8.50993 2.40611 6.02663 4.39125 5.10031 7.10932C4.80581 7.9734 4.71745 8.53499 4.72018 9.52571C4.72204 10.2119 4.75108 10.5414 4.84945 10.9944C5.168 12.4607 5.81364 13.6506 6.87313 14.7237C8.3648 16.2347 10.2102 17.0013 12.3573 17.002C14.3626 17.0026 16.1496 16.3058 17.5858 14.9632C19.6293 13.0528 20.4462 10.3202 19.7637 7.67736C18.8904 4.29531 15.7933 1.95284 12.2584 2.00072C11.911 2.0054 11.5484 2.01927 11.4525 2.03148ZM15.6841 7.73934C15.2415 6.89827 14.2606 6.13749 13.3159 5.90258C12.5565 5.71379 11.7762 5.74917 11.0591 6.00486C10.4688 6.2154 10.0599 6.48421 9.5966 6.96647C8.84597 7.74785 8.54642 8.55325 8.59156 9.66839C8.63292 10.6883 8.95525 11.4275 9.66347 12.1264C10.3396 12.7936 11.1842 13.1648 12.1468 13.2178C12.8235 13.255 13.3948 13.1391 14.0088 12.8398C15.9565 11.8906 16.6913 9.65349 15.6841 7.73934Z" fill="#FFB903"/>
</svg>
