<svg xmlns="http://www.w3.org/2000/svg" width="24" height="24" viewBox="0 0 24 24" fill="none"><rect width="24" height="24" fill="none"/>
<path fill-rule="evenodd" clip-rule="evenodd" d="M1.99985 11.1999C2.00107 6.9399 2.04188 4.76972 3.4057 3.40589C4.81159 2 7.07433 2 11.5998 2L12.3998 2C16.9253 2 19.1881 2 20.5939 3.40589C21.7381 4.5501 21.9511 6.26188 21.9908 9.29914C21.9957 9.67714 21.9979 10.0757 21.999 10.4962C21.999 10.5241 21.9991 10.552 21.9992 10.5801C21.9992 10.6128 21.9993 10.6456 21.9993 10.6785C21.9997 10.9748 21.9997 11.2818 21.9997 11.6V12.4C21.9997 16.9255 21.9997 19.1882 20.5939 20.5941C19.1881 22 16.9253 22 12.3998 22H11.5998C9.72475 22 8.23813 22 7.03997 21.9C5.34637 21.7586 4.22909 21.4175 3.4057 20.5941C1.99982 19.1882 1.99982 16.9255 1.99982 12.4L1.99982 11.6C1.99982 11.4646 1.99982 11.3312 1.99985 11.1999ZM2.59987 11.1861C2.60061 9.11872 2.6115 7.59344 2.7702 6.41304C2.93699 5.17248 3.25709 4.40304 3.82997 3.83015C4.40285 3.25727 5.17229 2.93718 6.41285 2.77039C7.67069 2.60128 9.32011 2.6 11.5998 2.6H12.3998C14.6795 2.6 16.3289 2.60127 17.5868 2.77039C18.8274 2.93718 19.5968 3.25727 20.1697 3.83015C20.7426 4.40304 21.0626 5.17248 21.2294 6.41304C21.3202 7.08794 21.3626 7.87556 21.3824 8.81278C20.096 7.774 17.807 5.99988 15.1998 5.99988C13.3797 5.99988 11.925 7.00012 10.2917 8.12324C8.31271 9.48406 6.07141 11.0252 2.59987 11.1861ZM17.4999 12.195C17.4999 11.7007 17.9056 11.3 18.3999 11.3C18.8942 11.3 19.2999 11.7007 19.2999 12.195V15.805C19.2999 16.2993 18.8942 16.7 18.3999 16.7C17.9056 16.7 17.4999 16.2993 17.4999 15.805V12.195ZM15.2 9.00004C14.7057 9.00004 14.3 9.40074 14.3 9.89504V18.105C14.3 18.5993 14.7057 19 15.2 19C15.6943 19 16.1 18.5993 16.1 18.105V9.89504C16.1 9.40074 15.6943 9.00004 15.2 9.00004ZM11.1 12.195C11.1 11.7007 11.5057 11.3 12 11.3C12.4943 11.3 12.9 11.7007 12.9 12.195V15.805C12.9 16.2993 12.4943 16.7 12 16.7C11.5057 16.7 11.1 16.2993 11.1 15.805V12.195ZM8.79961 12.6C8.30533 12.6 7.89961 13.0007 7.89961 13.495V14.505C7.89961 14.9993 8.30533 15.4 8.79961 15.4C9.29391 15.4 9.69961 14.9993 9.69961 14.505V13.495C9.69961 13.0007 9.29391 12.6 8.79961 12.6ZM4.69961 13.495C4.69961 13.0007 5.10533 12.6 5.59961 12.6C6.09391 12.6 6.49961 13.0007 6.49961 13.495V14.505C6.49961 14.9993 6.09391 15.4 5.59961 15.4C5.10533 15.4 4.69961 14.9993 4.69961 14.505V13.495Z" fill="white"/>
</svg>
