<svg xmlns="http://www.w3.org/2000/svg" width="68" height="24" viewBox="0 0 68 24" fill="none"><rect width="68" height="24" fill="none"/>
<path fill-rule="evenodd" clip-rule="evenodd" d="M14.2686 12.2116C14.7446 12.3819 15.253 12.4667 15.7962 12.4667C16.3417 12.4667 16.846 12.3819 17.3103 12.2116C17.771 12.041 18.1906 11.775 18.5415 11.431C18.8891 11.0905 19.1607 10.6693 19.3587 10.1703C19.5566 9.65954 19.6556 9.06805 19.6556 8.39586V8.09658C19.6556 7.46386 19.5566 6.90949 19.3587 6.42817C19.1607 5.93801 18.8891 5.52621 18.5415 5.19689C18.1922 4.8544 17.7719 4.59293 17.3103 4.43102C16.8246 4.25703 16.312 4.17047 15.7962 4.17534C15.253 4.17534 14.7446 4.26076 14.2686 4.43102C13.8032 4.60128 13.3985 4.85637 13.0509 5.19689C12.7056 5.52621 12.434 5.93801 12.2361 6.42817C12.0382 6.90949 11.9392 7.46386 11.9392 8.09658V8.39586C11.9392 9.06746 12.0382 9.65659 12.2361 10.1703C12.434 10.6693 12.7056 11.0905 13.0509 11.431C13.3987 11.7723 13.8133 12.038 14.2686 12.2116ZM16.6133 10.8743C16.353 10.9762 16.0757 11.0278 15.7962 11.0263C15.5111 11.0263 15.2324 10.9757 14.9655 10.8743C14.7026 10.7711 14.465 10.6125 14.2686 10.4095C14.0706 10.2004 13.9069 9.92877 13.7784 9.59945C13.6606 9.26836 13.6011 8.86775 13.6011 8.39586V8.09658C13.6011 7.66652 13.6606 7.29536 13.7778 6.98548C13.9075 6.67442 14.0706 6.41933 14.2686 6.21903C14.4754 6.01872 14.7081 5.86908 14.9655 5.76775C15.2312 5.66855 15.5126 5.61787 15.7962 5.61812C16.0843 5.61812 16.3559 5.66878 16.6133 5.76775C16.8802 5.86908 17.1129 6.01872 17.3109 6.21903C17.5176 6.41933 17.6814 6.67442 17.801 6.98489C17.9277 7.29595 17.9942 7.66652 17.9942 8.09658V8.39586C17.9942 8.86716 17.9277 9.26777 17.801 9.59945C17.6814 9.92877 17.5182 10.2004 17.3109 10.4095C17.1129 10.6186 16.8808 10.7748 16.6133 10.8743ZM3.84102 4.34088H2.00058V12.3035H3.63246V6.81935L5.71032 10.6487H6.898L8.97351 6.81935V12.3012H10.6077V4.34088H8.85627L6.34953 8.99736L3.84102 4.34088ZM32.713 10.8902H31.8223V14.1811H33.3363V12.3012H38.7681V14.1811H40.2798V10.8902H39.2418V4.34088H33.3805V6.59371C33.3805 7.04498 33.367 7.49626 33.3369 7.94694C33.3069 8.38643 33.2603 8.80295 33.2032 9.19236C33.1518 9.53751 33.0772 9.8788 32.9799 10.2139C32.8998 10.5155 32.812 10.7382 32.713 10.8902ZM37.6105 5.75185V10.8902H34.375C34.5818 10.4095 34.7314 9.81802 34.8186 9.11872C34.9087 8.40764 34.9523 7.66357 34.9523 6.89535V5.75185H37.6105ZM44.7372 12.4667C44.2324 12.4708 43.7305 12.39 43.2526 12.2276C42.796 12.062 42.3774 11.8061 42.0219 11.4752C41.6766 11.1347 41.398 10.7088 41.1912 10.198C40.9815 9.68664 40.8784 9.08632 40.8784 8.39586V8.09422C40.8784 7.4344 40.9773 6.85882 41.1747 6.36631C41.3726 5.87615 41.6401 5.47083 41.9759 5.15094C42.3151 4.8243 42.7197 4.57331 43.163 4.41453C43.6201 4.25138 44.1022 4.16963 44.5875 4.17298C45.7846 4.17298 46.7001 4.49995 47.3329 5.15094C47.975 5.80251 48.2973 6.73216 48.2973 7.94458V8.78527H42.5397C42.5491 9.19766 42.6133 9.54702 42.7329 9.83687C42.862 10.1179 43.0251 10.3482 43.2231 10.5297C43.4305 10.7005 43.6626 10.8242 43.9206 10.905C44.1847 10.9846 44.459 11.0249 44.7348 11.0246C45.2986 11.0246 45.711 10.935 45.9684 10.7553C46.2353 10.5733 46.4174 10.3388 46.5163 10.0484H48.1482C47.9915 10.8378 47.6003 11.4411 46.9764 11.8511C46.3643 12.2629 45.6179 12.4667 44.7372 12.4667ZM44.6635 5.61812C44.3932 5.61728 44.124 5.65214 43.8629 5.7218C43.6143 5.79309 43.3916 5.90797 43.1954 6.06703C43.0069 6.21903 42.8525 6.41933 42.7353 6.66971C42.6157 6.90949 42.5509 7.20405 42.5421 7.55576H46.666C46.6565 7.1852 46.597 6.87473 46.4886 6.62376C46.3897 6.37279 46.2518 6.17307 46.0745 6.02285C45.8892 5.86874 45.6699 5.76091 45.4347 5.70825C45.1823 5.64651 44.9233 5.61623 44.6635 5.61812ZM49.0755 12.4532C49.1745 12.462 49.264 12.4667 49.3424 12.4667C49.7471 12.4667 50.1041 12.3884 50.4122 12.2276C50.7186 12.0567 50.976 11.7674 51.1834 11.3556C51.3902 10.9456 51.5445 10.3936 51.6435 9.70313C51.7519 9.00089 51.8067 8.11543 51.8067 7.04263V5.75185H54.5361V12.3012H56.168V4.34088H50.2326V6.74335C50.2326 7.55635 50.2072 8.2256 50.1589 8.75699C50.1088 9.28898 50.0352 9.71433 49.9362 10.0342C49.8461 10.3453 49.7288 10.5662 49.5792 10.6946C49.4278 10.8151 49.2389 10.8787 49.0454 10.8743C48.9706 10.8761 48.8957 10.8715 48.8216 10.8608V12.4231C48.9029 12.4414 48.986 12.4532 49.0755 12.4532ZM61.3594 12.4667C60.8391 12.471 60.322 12.3847 59.8312 12.2116C59.3758 12.0385 58.9614 11.7727 58.6141 11.431C58.2689 11.0905 57.9973 10.6693 57.7993 10.1703C57.6014 9.65954 57.5024 9.06805 57.5024 8.39586V8.09658C57.5024 7.46386 57.6014 6.90949 57.7993 6.42817C57.9973 5.93801 58.2689 5.52621 58.6141 5.19689C58.9597 4.85667 59.375 4.59539 59.8312 4.43102C60.3219 4.25775 60.839 4.17123 61.3594 4.17534C61.9026 4.17534 62.4087 4.26076 62.8735 4.43102C63.3477 4.60128 63.7572 4.85637 64.1048 5.19689C64.45 5.52621 64.7216 5.93801 64.9195 6.42817C65.1175 6.90949 65.2164 7.46386 65.2164 8.09658V8.39586C65.2164 9.06746 65.1175 9.65659 64.9195 10.1703C64.7216 10.6693 64.45 11.0905 64.1048 11.431C63.7534 11.7745 63.334 12.0404 62.8735 12.2116C62.4087 12.3819 61.905 12.4667 61.3594 12.4667ZM61.3594 11.0263C61.6469 11.0263 61.9191 10.9757 62.1765 10.8743C62.4418 10.7756 62.6804 10.6165 62.8735 10.4095C63.0809 10.2004 63.2446 9.92877 63.3619 9.59945C63.4903 9.26836 63.5551 8.86775 63.5551 8.39586V8.09658C63.5551 7.66652 63.4903 7.29536 63.3619 6.98548C63.244 6.67442 63.0809 6.41933 62.8735 6.21903C62.6767 6.01979 62.4389 5.8658 62.1765 5.76775C61.9158 5.66776 61.6387 5.61702 61.3594 5.61812C61.0719 5.61812 60.7956 5.66878 60.5287 5.76775C60.2685 5.8702 60.0313 6.02363 59.8312 6.21903C59.6339 6.41933 59.4701 6.67442 59.3411 6.98489C59.2238 7.29595 59.1643 7.66652 59.1643 8.09658V8.39586C59.1643 8.86716 59.2238 9.26777 59.3411 9.59945C59.4707 9.92877 59.6333 10.2004 59.8312 10.4095C60.0386 10.6186 60.2713 10.7753 60.5287 10.8749C60.7956 10.9757 61.0719 11.0263 61.3594 11.0263Z" fill="white"/>
<path d="M27.2214 2.06791H21.0265V3.30983H27.2208L27.2214 2.06791Z" fill="white"/>
<path d="M27.2214 0H21.0265V1.24192H27.2208L27.2214 0Z" fill="white"/>
<path fill-rule="evenodd" clip-rule="evenodd" d="M27.8441 7.94135C27.8441 6.72778 27.5209 5.79309 26.8769 5.13963C26.2423 4.48676 25.3242 4.16122 24.1236 4.16122C23.6184 4.16122 23.1428 4.2398 22.695 4.40109C22.2508 4.56122 21.8452 4.81283 21.5045 5.13963C21.1677 5.46045 20.8994 5.86931 20.7009 6.36088C20.5024 6.85245 20.4031 7.4291 20.4031 8.09201V8.39392C20.4031 9.08637 20.5095 9.68843 20.7175 10.2036C20.9248 10.7135 21.202 11.1401 21.5505 11.4846C21.908 11.8149 22.3278 12.0706 22.7854 12.2367C23.2646 12.4004 23.7679 12.4823 24.2743 12.4789C25.1576 12.4789 25.905 12.2715 26.5218 11.8603C27.1451 11.4473 27.5374 10.8453 27.6964 10.0512H26.0598C25.9611 10.3419 25.7762 10.5794 25.5085 10.7596C25.2503 10.9398 24.8391 11.0314 24.2737 11.0314C23.9962 11.0313 23.7203 10.9903 23.4548 10.9097C23.1994 10.8309 22.9617 10.703 22.7552 10.5333C22.5461 10.3388 22.3795 10.103 22.266 9.84087C22.1461 9.55018 22.0811 9.19922 22.0722 8.78623H27.8464V7.94135H27.8441ZM22.0699 7.5514C22.0817 7.19867 22.1461 6.90326 22.2637 6.66279C22.3704 6.4294 22.5281 6.22288 22.7251 6.05837C22.923 5.89961 23.1506 5.78191 23.3945 5.71214C23.6527 5.64302 23.9204 5.60579 24.198 5.60579C24.4769 5.60579 24.7333 5.63593 24.9732 5.69856C25.2202 5.75823 25.4323 5.86399 25.6125 6.01465C25.7897 6.16472 25.931 6.36501 26.0278 6.6173C26.1383 6.8684 26.1962 7.17977 26.208 7.5514H22.0699Z" fill="white"/>
<path fill-rule="evenodd" clip-rule="evenodd" d="M3.12741 22.3866C3.35764 22.484 3.60443 22.533 3.86754 22.533C4.13627 22.533 4.38332 22.4894 4.60742 22.4017C4.83002 22.318 5.03232 22.188 5.20096 22.0203C5.36744 21.854 5.4967 21.6508 5.58925 21.4109C5.6869 21.1669 5.73585 20.8929 5.73585 20.5902V20.4209C5.73585 20.142 5.69404 19.8929 5.61118 19.6729C5.53265 19.4478 5.42098 19.2596 5.27464 19.1082C5.12784 18.9521 4.94733 18.8316 4.74688 18.7558C4.54649 18.673 4.32646 18.6312 4.08757 18.6312C3.74593 18.6312 3.45299 18.7048 3.20823 18.8512C2.96934 18.9927 2.79393 19.1791 2.68124 19.409C2.7001 19.1592 2.74217 18.9488 2.80591 18.7775C2.87348 18.6021 2.96424 18.4598 3.07667 18.3522C3.19421 18.2449 3.33571 18.1671 3.50194 18.1174C3.67225 18.0685 3.87239 18.0417 4.10236 18.0369C4.49779 18.0277 4.80068 18.0098 5.01076 17.9859C5.2211 17.956 5.36438 17.9201 5.44291 17.8752V17.1341C5.28152 17.2177 5.07654 17.2666 4.82745 17.2814C4.57836 17.2914 4.29969 17.3034 3.99196 17.3184C3.61157 17.3373 3.29186 17.4161 3.03282 17.5525C2.78121 17.6828 2.56879 17.8777 2.41736 18.1172C2.26592 18.3571 2.15833 18.648 2.09459 18.9904C2.03187 19.3331 2 19.7234 2 20.1637V20.3111C2 20.6675 2.04589 20.9854 2.13844 21.2641C2.23711 21.5382 2.36866 21.7702 2.53489 21.9614C2.69836 22.1454 2.90077 22.2907 3.12741 22.3866ZM4.62935 21.5142C4.43915 21.7243 4.18522 21.8288 3.86754 21.8288C3.72095 21.8288 3.58454 21.8018 3.45707 21.7482C3.33061 21.6893 3.21817 21.6088 3.12053 21.5063C3.02798 21.3987 2.95404 21.2692 2.9005 21.1177C2.84671 20.9615 2.8207 20.785 2.8207 20.59V20.4207C2.8207 20.074 2.91529 19.807 3.10549 19.6209C3.30078 19.4307 3.55471 19.3351 3.86754 19.3351C4.18012 19.3351 4.43201 19.4307 4.62246 19.6209C4.8175 19.8121 4.91515 20.078 4.91515 20.4207V20.59C4.91515 20.9954 4.82056 21.3031 4.62935 21.5142ZM6.65292 23.9781C6.72584 23.9929 6.79927 24 6.87321 24C7.0634 24 7.22657 23.9709 7.36323 23.9123C7.50065 23.8537 7.62201 23.7609 7.7296 23.6334C7.84203 23.5107 7.94478 23.3527 8.03733 23.1564C8.14552 22.9251 8.24586 22.6902 8.33817 22.4522L9.83985 18.5651H9.01941L7.94962 21.5718L6.76281 18.5651H5.88321L7.53149 22.4524C7.47362 22.6136 7.41983 22.7482 7.37113 22.8558C7.32728 22.9631 7.28037 23.0488 7.23167 23.1125C7.18782 23.1813 7.13606 23.228 7.07819 23.252C7.02439 23.2818 6.95581 23.2958 6.87321 23.2958C6.79952 23.2958 6.72584 23.2889 6.65292 23.2739V23.9781ZM10.1315 18.5651L11.4573 20.4276L10.0581 22.4522H10.9515L11.9552 20.9416L12.9442 22.4522H13.8676L12.4832 20.3985L13.7937 18.5654H12.9154L11.9843 19.8708L11.0399 18.5651H10.1315ZM15.1643 22.4086C15.3981 22.4922 15.65 22.533 15.919 22.533C16.1867 22.533 16.4368 22.4922 16.666 22.4086C16.893 22.3254 17.1 22.1955 17.2736 22.0272C17.4449 21.8607 17.5793 21.6554 17.6769 21.4107C17.7743 21.1616 17.8233 20.8727 17.8233 20.5451V20.3988C17.8233 20.091 17.7743 19.819 17.6769 19.5839C17.5793 19.345 17.4449 19.1449 17.2736 18.9835C17.101 18.8156 16.8935 18.6878 16.666 18.609C16.4368 18.5254 16.1867 18.4846 15.919 18.4846C15.65 18.4846 15.3981 18.5254 15.1641 18.609C14.9394 18.6893 14.7346 18.817 14.5637 18.9835C14.3923 19.1449 14.2577 19.345 14.1603 19.5842C14.0627 19.819 14.0137 20.091 14.0137 20.3988V20.5451C14.0137 20.8727 14.0627 21.1616 14.1603 21.4107C14.2577 21.6557 14.3923 21.8607 14.5637 22.0272C14.7357 22.1941 14.9401 22.3239 15.1643 22.4086ZM16.3213 21.7561C16.1929 21.8051 16.0564 21.8297 15.919 21.8288C15.7789 21.8294 15.6399 21.8048 15.5085 21.7561C15.381 21.7074 15.2668 21.6307 15.1643 21.528C15.0664 21.4255 14.9859 21.2942 14.9221 21.1328C14.8632 20.9714 14.8344 20.7751 14.8344 20.5451V20.3988C14.8344 20.1887 14.8635 20.0074 14.9221 19.856C14.9859 19.7045 15.0664 19.5801 15.1643 19.4814C15.2668 19.3838 15.381 19.3111 15.5085 19.2614C15.6399 19.2128 15.7789 19.1882 15.919 19.1888C16.0565 19.1878 16.193 19.2124 16.3216 19.2614C16.4508 19.3091 16.5682 19.3841 16.6658 19.4814C16.7685 19.5801 16.8493 19.7045 16.908 19.8557C16.9707 20.0074 17.0026 20.1887 17.0026 20.3988V20.5451C17.0026 20.7751 16.9707 20.9714 16.908 21.1328C16.8493 21.2942 16.7685 21.4255 16.666 21.528C16.5704 21.6297 16.4524 21.7079 16.3213 21.7561ZM19.4246 22.3866C19.6546 22.484 19.9006 22.533 20.1645 22.533C20.4335 22.533 20.6795 22.4894 20.9046 22.4017C21.1271 22.3177 21.3294 22.1878 21.4982 22.0203C21.6634 21.854 21.7929 21.6508 21.8865 21.4109C21.9841 21.1669 22.0331 20.8929 22.0331 20.5902V20.4209C22.0331 20.142 21.9913 19.8929 21.9084 19.6729C21.8299 19.4478 21.7172 19.2596 21.5708 19.1082C21.4245 18.9519 21.2491 18.8344 21.0441 18.7558C20.8437 18.673 20.6237 18.6312 20.3848 18.6312C20.0421 18.6312 19.7494 18.7048 19.5052 18.8512C19.2663 18.9927 19.0901 19.1791 18.9774 19.409C18.9976 19.1592 19.0391 18.9488 19.1021 18.7775C19.1707 18.6021 19.2615 18.4598 19.3739 18.3522C19.4904 18.2449 19.6319 18.1671 19.7981 18.1174C19.9695 18.0685 20.1696 18.0417 20.3985 18.0369C20.795 18.0277 21.0979 18.0098 21.307 17.9859C21.5173 17.956 21.6616 17.9201 21.7391 17.8752V17.1341C21.5787 17.2177 21.3738 17.2666 21.1247 17.2814C20.8748 17.2914 20.5969 17.3034 20.2892 17.3184C19.9088 17.3373 19.588 17.4161 19.329 17.5525C19.0775 17.6825 18.8654 17.8775 18.7146 18.1172C18.5631 18.3571 18.4555 18.648 18.3918 18.9904C18.3281 19.3331 18.2962 19.7234 18.2962 20.1637V20.3111C18.2962 20.6675 18.3431 20.9854 18.4359 21.2641C18.5333 21.5382 18.6659 21.7702 18.8311 21.9614C18.9951 22.1452 19.1978 22.2904 19.4246 22.3866ZM20.9266 21.5142C20.7364 21.7243 20.4824 21.8288 20.1645 21.8288C20.0179 21.8288 19.8818 21.8018 19.7543 21.7482C19.6278 21.6893 19.5154 21.6088 19.4177 21.5063C19.3249 21.3987 19.2513 21.2692 19.1975 21.1177C19.1439 20.9615 19.1171 20.785 19.1171 20.59V20.4207C19.1171 20.074 19.2125 19.807 19.4027 19.6209C19.598 19.4307 19.8519 19.3351 20.1648 19.3351C20.4773 19.3351 20.7282 19.4307 20.9194 19.6209C21.1147 19.8121 21.2121 20.078 21.2121 20.4207V20.59C21.2121 20.9954 21.1168 21.3031 20.9266 21.5142ZM23.5687 22.4155C23.7938 22.4942 24.0378 22.533 24.3017 22.533C24.5207 22.533 24.7262 22.5039 24.9174 22.4453C25.0992 22.3861 25.2698 22.2969 25.4222 22.1814C25.567 22.0655 25.6889 21.9236 25.7817 21.763C25.8813 21.5902 25.9507 21.4016 25.9869 21.2054H25.1659C25.0436 21.6218 24.7557 21.8288 24.3017 21.8288C24.1653 21.8288 24.0357 21.8069 23.9134 21.763C23.7907 21.7143 23.6831 21.6386 23.5906 21.5361C23.498 21.4334 23.4251 21.3011 23.3716 21.1397C23.3178 20.9734 23.2908 20.7751 23.2908 20.5451V20.3988C23.2908 20.1887 23.3178 20.0074 23.3713 19.856C23.4254 19.6997 23.498 19.5722 23.5906 19.4746C23.6831 19.3769 23.791 19.3063 23.9134 19.2614C24.0357 19.2125 24.1653 19.1888 24.3017 19.1888C24.5745 19.1888 24.7746 19.2476 24.9021 19.3649C25.0295 19.4814 25.1173 19.6311 25.1662 19.8121H25.9866C25.9568 19.626 25.901 19.4526 25.8174 19.2912C25.7349 19.1303 25.6204 18.9879 25.4808 18.8729C25.3444 18.7505 25.1761 18.6559 24.976 18.5871C24.7797 18.5185 24.5556 18.4846 24.3017 18.4846C24.0617 18.4834 23.8235 18.5256 23.5985 18.609C23.3798 18.6862 23.1799 18.8087 23.0118 18.9685C22.8456 19.1299 22.7141 19.33 22.6167 19.5702C22.519 19.8091 22.4701 20.0859 22.4701 20.3988V20.5451C22.4701 20.8778 22.517 21.1687 22.6095 21.4186C22.7023 21.6674 22.8288 21.8757 22.9899 22.0419C23.1538 22.2066 23.3512 22.334 23.5687 22.4155ZM26.402 22.5261C26.4509 22.531 26.4948 22.533 26.5335 22.533C26.7337 22.533 26.9098 22.4942 27.0613 22.4155C27.2127 22.3329 27.3392 22.1916 27.4419 21.9902C27.5444 21.7901 27.6201 21.5211 27.6688 21.1835C27.7226 20.8409 27.7494 20.4087 27.7494 19.8848V19.2545H29.0971V22.4522H29.9028V18.5651H26.9726V19.7384C26.9726 20.1349 26.9608 20.4625 26.9369 20.7213C26.9119 20.9803 26.8752 21.1884 26.8262 21.3449C26.7826 21.4961 26.7237 21.6037 26.6511 21.6674C26.5774 21.7263 26.4897 21.7561 26.3872 21.7561C26.3382 21.7561 26.3015 21.7533 26.2765 21.7482V22.5111C26.3176 22.5213 26.3597 22.5263 26.402 22.5261ZM34.6622 18.5651L35.9809 20.4505L34.5896 22.4524H35.5416L36.6402 20.8169H37.0066V22.4524H37.8122V20.8169H38.1788L39.321 22.4524H40.2294L38.7645 20.4136L40.1568 18.5651H39.321L38.1788 20.128H37.8122V18.5651H37.0066V20.128H36.6402L35.5852 18.5651H34.6622ZM43.4133 18.5651L41.545 21.3161V18.5651H40.7393V22.4527H41.508L43.3766 19.7017V22.4522H44.1822V18.5651H43.4133ZM47.9576 18.866C47.7376 18.6648 47.384 18.5651 46.895 18.5651H45.0634L45.0636 22.4524H47.0416C47.5204 22.4524 47.872 22.3527 48.0971 22.1516C48.3212 21.9514 48.4336 21.6825 48.4336 21.3449C48.4336 21.1246 48.3699 20.9344 48.2437 20.7733C48.121 20.6068 47.9408 20.4941 47.7006 20.4355C47.8788 20.3873 48.0328 20.2749 48.133 20.1198C48.2355 19.9585 48.2873 19.7922 48.2873 19.6209C48.2873 19.3132 48.1776 19.0613 47.9576 18.866ZM47.4737 21.6386C47.3761 21.7212 47.1958 21.763 46.9319 21.763H45.8703V20.7952H46.9319C47.1958 20.7952 47.3761 20.836 47.4737 20.9196C47.5762 20.9982 47.628 21.1147 47.628 21.2722C47.628 21.4285 47.5762 21.5499 47.4737 21.6386ZM47.3353 20.0462C47.2376 20.1249 47.0663 20.1637 46.8223 20.1637H45.8703V19.2545H46.8223C47.0663 19.2545 47.2376 19.2963 47.3353 19.3789C47.4329 19.4575 47.4816 19.5671 47.4816 19.7096C47.4816 19.8509 47.4329 19.9636 47.3353 20.0462ZM49.6668 22.4453C49.8331 22.5042 50.0202 22.533 50.2303 22.533C50.563 22.533 50.8409 22.4693 51.066 22.3428C51.295 22.2102 51.4564 22.0539 51.5489 21.8727C51.5489 21.9902 51.552 22.0889 51.5571 22.1666C51.5628 22.2175 51.5702 22.2751 51.5785 22.3399L51.5928 22.4522H52.3258C52.3059 22.3061 52.2939 22.1564 52.2888 22.0052C52.284 21.8487 52.2819 21.6674 52.2819 21.4622V19.9146C52.2819 19.6607 52.2432 19.4424 52.1644 19.2614C52.0917 19.0812 51.9862 18.9338 51.8498 18.8211C51.7134 18.7046 51.5469 18.6189 51.3518 18.5651C51.1616 18.5113 50.9465 18.4846 50.7063 18.4846C50.4674 18.4846 50.2522 18.5136 50.062 18.5723C49.8718 18.6261 49.7087 18.7046 49.571 18.8073C49.4424 18.9069 49.3354 19.0316 49.2564 19.1737C49.1827 19.3111 49.1419 19.4626 49.1319 19.6288H49.9157C49.9356 19.4914 50.0034 19.3838 50.1209 19.3063C50.2384 19.2275 50.4215 19.1885 50.6706 19.1885C50.9485 19.1885 51.1517 19.2446 51.2781 19.3568C51.4105 19.4646 51.4762 19.6648 51.4762 19.9585V20.1719H50.2673C49.8231 20.1719 49.4863 20.2662 49.2564 20.4574C49.0274 20.6438 48.9117 20.9296 48.9117 21.3158C48.91 21.4814 48.9401 21.6458 49.0004 21.8C49.0579 21.9457 49.1451 22.078 49.2564 22.1883C49.3751 22.2999 49.5146 22.3872 49.6668 22.4453ZM50.8389 21.7781C50.7165 21.812 50.587 21.8288 50.4506 21.8288C50.2015 21.8288 50.0182 21.7801 49.9006 21.6825C49.7892 21.5848 49.7324 21.4553 49.7324 21.2942C49.7324 21.1228 49.7933 20.9933 49.9157 20.9046C50.0431 20.8169 50.2084 20.7733 50.4136 20.7733H51.4762V20.9854C51.4762 21.1228 51.4464 21.2442 51.3878 21.3528C51.3348 21.4553 51.2611 21.543 51.1685 21.6167C51.076 21.6845 50.9653 21.7383 50.8389 21.7781ZM60.1248 18.5651L58.2575 21.3158V18.5654H57.4506V22.4527H58.2206L60.0879 19.7017V22.4522H60.8948V18.5651H60.1248ZM62.7282 22.4155C62.9639 22.495 63.2111 22.5347 63.4599 22.533C63.8953 22.533 64.2638 22.4333 64.5664 22.2324C64.8744 22.032 65.0676 21.7383 65.1451 21.3528H64.3395C64.2905 21.4943 64.2 21.6088 64.0687 21.6975C63.942 21.785 63.7391 21.8288 63.4601 21.8288C63.3237 21.8288 63.1891 21.8099 63.0576 21.7702C62.9301 21.7312 62.8159 21.6705 62.7134 21.5869C62.6155 21.4992 62.5349 21.3867 62.4712 21.2493C62.4133 21.1078 62.3817 20.9365 62.3766 20.7363H65.2188V20.3251C65.2188 19.7333 65.0595 19.2793 64.7428 18.9606C64.4302 18.6429 63.978 18.4846 63.3875 18.4846C63.148 18.4827 62.91 18.5225 62.6841 18.6021C62.4655 18.679 62.2657 18.8011 62.0977 18.9606C61.9325 19.1179 61.7999 19.3152 61.7022 19.5551C61.6048 19.7953 61.5559 20.076 61.5559 20.3988V20.5451C61.5559 20.8827 61.6066 21.1766 61.7104 21.4255C61.8129 21.6756 61.9493 21.8826 62.1196 22.0488C62.2958 22.2106 62.5028 22.3352 62.7282 22.4155ZM63.028 19.2395C63.1555 19.2056 63.2868 19.1888 63.4242 19.1888C63.5523 19.1875 63.6801 19.2022 63.8046 19.2326C63.9203 19.2583 64.0282 19.3112 64.1194 19.3868C64.2079 19.4595 64.276 19.5572 64.3244 19.6795C64.3782 19.8022 64.4081 19.9536 64.4132 20.1349H62.3766C62.3814 19.9636 62.4133 19.819 62.4712 19.7015C62.5298 19.5801 62.6055 19.4814 62.6991 19.4088C62.7962 19.3307 62.9081 19.2731 63.028 19.2395ZM53.9322 18.5654H53.1266V22.4524H53.9322V20.8169H55.7636V22.4522H56.5692V18.5651H55.7636V20.1277H53.9322V18.5654Z" fill="white"/>
<path d="M31.4034 24C31.3308 24 31.2571 23.9929 31.1844 23.9781V23.2739C31.2571 23.2889 31.3308 23.2958 31.4037 23.2958C31.4873 23.2958 31.5549 23.2818 31.6087 23.252C31.6673 23.228 31.7183 23.1813 31.7632 23.1125C31.8119 23.0488 31.8575 22.9631 31.9016 22.8558C31.9503 22.7482 32.0041 22.6136 32.0627 22.4524L30.4147 18.5651H31.294L32.4811 21.5718L33.5496 18.5651H34.3706L32.8686 22.4522C32.7766 22.6902 32.6766 22.9251 32.5688 23.1564C32.4763 23.3527 32.3735 23.5107 32.2611 23.6334C32.1535 23.7609 32.0309 23.8537 31.8945 23.9123C31.7581 23.9709 31.5934 24 31.4034 24Z" fill="white"/>
</svg>
