<svg xmlns="http://www.w3.org/2000/svg" width="24" height="24" viewBox="0 0 24 24" fill="none"><rect width="24" height="24" fill="none"/>
<path d="M12.0002 1.5C15.7656 1.50002 20.5 3.58751 20.5 8.04112H13.4858C13.3888 7.0987 12.9623 6.55206 12.0459 6.55206C11.0464 6.55206 10.5038 7.05149 10.5038 8.04117C10.5038 9.04008 12.0041 9.27255 13.1867 9.4558C13.2855 9.47111 13.3827 9.48616 13.476 9.5012C16.8884 9.97065 20.4978 12.0743 20.4978 15.9586C20.4978 20.4122 15.7703 22.4997 12.0001 22.4997C8.23473 22.4997 3.5 20.4122 3.5 15.9586H10.5256C10.6226 16.9038 11.049 17.4521 11.9656 17.4521C12.9651 17.4521 13.5077 16.9483 13.5077 15.9586C13.5077 14.9571 12.0078 14.7241 10.8252 14.5403C10.7148 14.5232 10.607 14.5064 10.5037 14.4896C7.09733 14.0145 3.50248 11.9176 3.50248 8.04112C3.50248 3.58751 8.23 1.49998 12.0002 1.5Z" fill="#000000"/>
</svg>
