<svg xmlns="http://www.w3.org/2000/svg" width="24" height="24" viewBox="0 0 24 24" fill="none"><rect width="24" height="24" fill="none"/>
<path fill-rule="evenodd" clip-rule="evenodd" d="M7.90152 6.88537C8.14791 6.78332 8.43149 6.83974 8.62007 7.02829L12.1099 10.5181L15.5997 7.02829C15.7883 6.83974 16.0719 6.78332 16.3182 6.88537C16.5646 6.98743 16.7253 7.22785 16.7253 7.49453V14.7473C16.7253 15.1114 16.4301 15.4066 16.0659 15.4066C15.7018 15.4066 15.4066 15.1114 15.4066 14.7473V9.08631L12.5761 11.9168C12.3186 12.1743 11.9012 12.1743 11.6437 11.9168L8.81319 9.08631V14.7473C8.81319 15.1114 8.518 15.4066 8.15385 15.4066C7.78969 15.4066 7.49451 15.1114 7.49451 14.7473V7.49453C7.49451 7.22785 7.65514 6.98743 7.90152 6.88537ZM12.7692 15.6797L14.3344 14.1146C14.5918 13.8571 14.5918 13.4396 14.3344 13.1821C14.0769 12.9247 13.6594 12.9247 13.4019 13.1821L12.1099 14.4742L10.8179 13.1821C10.5604 12.9247 10.1429 12.9247 9.88543 13.1821C9.62793 13.4396 9.62793 13.8571 9.88543 14.1146L11.4505 15.6797V17.3846C11.4505 17.7488 11.7457 18.044 12.1099 18.044C12.474 18.044 12.7692 17.7488 12.7692 17.3846V15.6797Z" fill="white"/>
<path fill-rule="evenodd" clip-rule="evenodd" d="M4.8738 20.3121L4.88804 20.3136C7.21567 20.5586 9.60705 20.6813 12 20.6813C14.3929 20.6813 16.7843 20.5586 19.112 20.3136L19.1262 20.3121L19.1405 20.3109C20.0019 20.2391 20.6813 19.4575 20.6813 18.75V5.25C20.6813 4.52637 19.9845 3.75709 19.1983 3.68872L19.1881 3.68784L19.178 3.6868C14.3918 3.19591 9.60758 3.19609 4.88626 3.68662L4.8729 3.68801L4.85952 3.68913C3.99806 3.76091 3.31868 4.54248 3.31868 5.25V18.75C3.31868 19.4575 3.99806 20.2391 4.85952 20.3109L4.8738 20.3121ZM19.25 21.625C20.75 21.5 22 20.1875 22 18.75V5.25C22 3.8125 20.75 2.5 19.3125 2.375C14.4375 1.875 9.56251 1.875 4.75 2.375C3.25 2.5 2 3.8125 2 5.25V18.75C2 20.1875 3.25 21.5 4.75 21.625C7.12501 21.875 9.56251 22 12 22C14.4375 22 16.875 21.875 19.25 21.625Z" fill="white"/>
</svg>
