<svg xmlns="http://www.w3.org/2000/svg" width="24" height="24" viewBox="0 0 24 24" fill="none"><rect width="24" height="24" fill="none"/>
<path d="M6.93822 20H4.91343C4.63386 20 4.40723 19.7762 4.40723 19.5V6.5C4.40723 6.22384 4.63386 6 4.91343 6H6.93822C7.21778 6 7.44442 6.22384 7.44442 6.5V19.5C7.44442 19.7762 7.21778 20 6.93822 20Z" fill="url(#paint0_linear_2594_140)"/>
<path d="M10.9878 16H8.96303C8.68347 16 8.45683 15.7762 8.45683 15.5V2.5C8.45683 2.22386 8.68347 2 8.96303 2H10.9878C11.2674 2 11.494 2.22386 11.494 2.5V15.5C11.494 15.7762 11.2674 16 10.9878 16Z" fill="url(#paint1_linear_2594_140)"/>
<path d="M15.0374 22H13.0126C12.7331 22 12.5064 21.7762 12.5064 21.5V8.5C12.5064 8.22384 12.7331 8 13.0126 8H15.0374C15.317 8 15.5436 8.22384 15.5436 8.5V21.5C15.5436 21.7762 15.317 22 15.0374 22Z" fill="url(#paint2_linear_2594_140)"/>
<path d="M19.0871 18H17.0623C16.7827 18 16.5561 17.7762 16.5561 17.5V4.5C16.5561 4.22386 16.7827 4 17.0623 4H19.0871C19.3666 4 19.5932 4.22386 19.5932 4.5V17.5C19.5932 17.7762 19.3666 18 19.0871 18Z" fill="url(#paint3_linear_2594_140)"/>
<defs>
<linearGradient id="paint0_linear_2594_140" x1="12.0002" y1="22" x2="12.0002" y2="2" gradientUnits="userSpaceOnUse">
<stop offset="0.197917" stop-color="white" stop-opacity="0.1"/>
<stop offset="0.640625" stop-color="white"/>
</linearGradient>
<linearGradient id="paint1_linear_2594_140" x1="12.0002" y1="22" x2="12.0002" y2="2" gradientUnits="userSpaceOnUse">
<stop offset="0.145833" stop-color="white" stop-opacity="0.1"/>
<stop offset="0.635417" stop-color="white"/>
</linearGradient>
<linearGradient id="paint2_linear_2594_140" x1="12.0002" y1="22" x2="12.0002" y2="2" gradientUnits="userSpaceOnUse">
<stop offset="0.145833" stop-color="white" stop-opacity="0.1"/>
<stop offset="0.635417" stop-color="white"/>
</linearGradient>
<linearGradient id="paint3_linear_2594_140" x1="18.0747" y1="18" x2="18.0747" y2="4" gradientUnits="userSpaceOnUse">
<stop offset="0.197917" stop-color="white" stop-opacity="0.1"/>
<stop offset="0.677083" stop-color="white"/>
</linearGradient>
</defs>
</svg>
