<svg xmlns="http://www.w3.org/2000/svg" width="24" height="24" viewBox="0 0 24 24" fill="none"><rect width="24" height="24" fill="none"/>
<path fill-rule="evenodd" clip-rule="evenodd" d="M20.3647 17.4818C18.5778 20.2031 15.4988 22 11.9999 22C9.3085 22 6.86543 20.9366 5.0677 19.2072L10.4671 10.9311L8.88294 17.5658L12.9032 18.0484L16.2415 13.9649L15.2693 18.0502L15.2763 18.0481L15.2696 18.0535L20.3647 17.4818ZM21.706 14.416C21.9018 13.6256 22.0006 12.8142 22 11.9999C22 6.47726 17.5227 2 11.9999 2C6.47726 2 2 6.47699 2 11.9999C2 13.1071 2.17969 14.1723 2.51191 15.1676L9.88255 3.75147L14.7496 6.56254L13.3683 12.3853L17.0154 7.85966L20.45 9.85081L19.299 14.8701L21.706 14.416Z" fill="white"/>
</svg>
