<svg xmlns="http://www.w3.org/2000/svg" width="68" height="24" viewBox="0 0 68 24" fill="none"><rect width="68" height="24" fill="none"/>
<path fill-rule="evenodd" clip-rule="evenodd" d="M14.3538 12.2964C14.8331 12.4679 15.345 12.5533 15.892 12.5533C16.4413 12.5533 16.9491 12.4679 17.4165 12.2964C17.8805 12.1246 18.303 11.8567 18.6564 11.5104C19.0064 11.1675 19.2798 10.7434 19.4792 10.2409C19.6785 9.72659 19.7781 9.131 19.7781 8.45414V8.15278C19.7781 7.51567 19.6785 6.95745 19.4792 6.47279C19.2798 5.97923 19.0064 5.56457 18.6564 5.23296C18.3046 4.8881 17.8814 4.62482 17.4165 4.46178C16.9275 4.28658 16.4114 4.19941 15.892 4.20432C15.345 4.20432 14.8331 4.29034 14.3538 4.46178C13.8851 4.63322 13.4776 4.89008 13.1276 5.23296C12.7799 5.56457 12.5065 5.97923 12.3072 6.47279C12.1078 6.95745 12.0082 7.51567 12.0082 8.15278V8.45414C12.0082 9.13041 12.1078 9.72362 12.3072 10.2409C12.5065 10.7434 12.7799 11.1675 13.1276 11.5104C13.4778 11.854 13.8953 12.1216 14.3538 12.2964ZM16.7148 10.9498C16.4526 11.0524 16.1734 11.1043 15.892 11.1029C15.6049 11.1029 15.3243 11.0518 15.0555 10.9498C14.7908 10.8458 14.5515 10.6862 14.3538 10.4818C14.1544 10.2712 13.9895 9.99769 13.8602 9.66608C13.7416 9.33269 13.6816 8.9293 13.6816 8.45414V8.15278C13.6816 7.71973 13.7416 7.34601 13.8596 7.03397C13.9901 6.72075 14.1544 6.46389 14.3538 6.2622C14.562 6.0605 14.7963 5.90982 15.0555 5.80779C15.3231 5.7079 15.6064 5.65686 15.892 5.65711C16.1821 5.65711 16.4555 5.70813 16.7148 5.80779C16.9835 5.90982 17.2178 6.0605 17.4171 6.2622C17.6254 6.46389 17.7903 6.72075 17.9107 7.03338C18.0382 7.3466 18.1053 7.71973 18.1053 8.15278V8.45414C18.1053 8.92871 18.0382 9.3321 17.9107 9.66608C17.7903 9.99769 17.6259 10.2712 17.4171 10.4818C17.2178 10.6923 16.9841 10.8496 16.7148 10.9498ZM3.85379 4.37102H2.00058V12.389H3.6438V6.86668L5.73608 10.7226H6.932L9.02191 6.86668V12.3866H10.6675V4.37102H8.90386L6.37972 9.05981L3.85379 4.37102ZM32.9262 10.9658H32.0293V14.2795H33.5539V12.3866H39.0233V14.2795H40.5455V10.9658H39.5003V4.37102H33.5983V6.63948C33.5983 7.09389 33.5847 7.54829 33.5544 8.0021C33.5242 8.44465 33.4773 8.86405 33.4198 9.25617C33.3681 9.60371 33.2929 9.94737 33.195 10.2848C33.1143 10.5885 33.0259 10.8128 32.9262 10.9658ZM37.8577 5.79177V10.9658H34.5997C34.8079 10.4818 34.9586 9.88617 35.0464 9.18202C35.1372 8.466 35.181 7.71677 35.181 6.94321V5.79177H37.8577ZM45.0338 12.5533C44.5255 12.5574 44.0202 12.476 43.5389 12.3124C43.0792 12.1457 42.6577 11.888 42.2997 11.5549C41.952 11.212 41.6714 10.7831 41.4632 10.2688C41.252 9.75388 41.1482 9.14939 41.1482 8.45414V8.15041C41.1482 7.486 41.2479 6.90643 41.4466 6.4105C41.6459 5.91694 41.9153 5.50881 42.2534 5.18669C42.5949 4.85779 43.0023 4.60506 43.4487 4.44517C43.909 4.28089 44.3945 4.19857 44.8831 4.20195C46.0886 4.20195 47.0104 4.53119 47.6475 5.18669C48.2941 5.84279 48.6186 6.77889 48.6186 7.99973V8.84625H42.8211C42.8306 9.26151 42.8953 9.61329 43.0157 9.90515C43.1456 10.1881 43.3099 10.4201 43.5092 10.6028C43.718 10.7748 43.9518 10.8994 44.2116 10.9807C44.4775 11.0609 44.7537 11.1015 45.0314 11.1011C45.5991 11.1011 46.0144 11.0109 46.2736 10.83C46.5424 10.6467 46.7257 10.4106 46.8253 10.1181H48.4685C48.3107 10.913 47.9169 11.5205 47.2886 11.9334C46.6723 12.348 45.9213 12.5539 45.0344 12.5539L45.0338 12.5533ZM44.9597 5.65711C44.6875 5.65627 44.4164 5.69137 44.1535 5.76152C43.9031 5.8333 43.6789 5.94898 43.4814 6.10915C43.2915 6.2622 43.1361 6.46389 43.0181 6.71601C42.8976 6.95745 42.8324 7.25406 42.8235 7.60821H46.976C46.9665 7.23507 46.9066 6.92245 46.7974 6.66974C46.6978 6.41703 46.559 6.21592 46.3804 6.06465C46.1938 5.90948 45.973 5.8009 45.7362 5.74788C45.4821 5.6857 45.2213 5.65522 44.9597 5.65711ZM49.4023 12.5396C49.5019 12.5485 49.5921 12.5533 49.671 12.5533C50.0785 12.5533 50.438 12.4744 50.7483 12.3124C51.0568 12.1404 51.316 11.8491 51.5248 11.4345C51.733 11.0216 51.8884 10.4657 51.9881 9.77049C52.0973 9.06337 52.1524 8.17176 52.1524 7.09151V5.79177H54.9008V12.3866H56.544V4.37102H50.5673V6.79016C50.5673 7.6088 50.5418 8.2827 50.4932 8.81778C50.4428 9.35346 50.3686 9.78176 50.269 10.1039C50.1782 10.4171 50.0601 10.6396 49.9095 10.7689C49.757 10.8902 49.5668 10.9542 49.372 10.9498C49.2966 10.9516 49.2212 10.947 49.1466 10.9362V12.5094C49.2285 12.5278 49.3115 12.539 49.4017 12.539L49.4023 12.5396ZM61.7715 12.5533C61.2475 12.5576 60.7268 12.4707 60.2326 12.2964C59.7741 12.1221 59.3568 11.8544 59.0071 11.5104C58.6594 11.1675 58.386 10.7434 58.1866 10.2409C57.9873 9.72659 57.8877 9.131 57.8877 8.45414V8.15278C57.8877 7.51567 57.9873 6.95745 58.1866 6.47279C58.386 5.97923 58.6594 5.56457 59.0071 5.23296C59.3551 4.89039 59.7732 4.62729 60.2326 4.46178C60.7268 4.2873 61.2475 4.20018 61.7715 4.20432C62.3184 4.20432 62.828 4.29034 63.296 4.46178C63.7736 4.63322 64.1859 4.89008 64.5359 5.23296C64.8835 5.56457 65.157 5.97923 65.3563 6.47279C65.5556 6.95745 65.6553 7.51567 65.6553 8.15278V8.45414C65.6553 9.13041 65.5556 9.72362 65.3563 10.2409C65.157 10.7434 64.8835 11.1675 64.5359 11.5104C64.1821 11.8562 63.7597 12.124 63.296 12.2964C62.828 12.4679 62.3208 12.5533 61.7715 12.5533ZM61.7715 11.1029C62.0609 11.1029 62.335 11.0518 62.5943 10.9498C62.8614 10.8504 63.1016 10.6902 63.296 10.4818C63.5048 10.2712 63.6698 9.99769 63.7878 9.66608C63.9171 9.33269 63.9824 8.9293 63.9824 8.45414V8.15278C63.9824 7.71973 63.9171 7.34601 63.7878 7.03397C63.6692 6.72075 63.5048 6.46389 63.296 6.2622C63.0979 6.06158 62.8584 5.90652 62.5943 5.80779C62.3317 5.7071 62.0527 5.65601 61.7715 5.65711C61.482 5.65711 61.2037 5.70813 60.935 5.80779C60.673 5.91095 60.4342 6.06545 60.2326 6.2622C60.0339 6.46389 59.869 6.72075 59.7391 7.03338C59.621 7.3466 59.5611 7.71973 59.5611 8.15278V8.45414C59.5611 8.92871 59.621 9.3321 59.7391 9.66608C59.8696 9.99769 60.0333 10.2712 60.2326 10.4818C60.4415 10.6923 60.6758 10.8501 60.935 10.9504C61.2037 11.0518 61.482 11.1029 61.7715 11.1029Z" fill="#FF5029"/>
<path d="M27.3964 2.08226H21.1586V3.3328H27.3958L27.3964 2.08226Z" fill="#FF5029"/>
<path d="M27.3964 0H21.1586V1.25055H27.3958L27.3964 0Z" fill="#FF5029"/>
<path fill-rule="evenodd" clip-rule="evenodd" d="M28.0235 7.99647C28.0235 6.77448 27.698 5.8333 27.0496 5.17531C26.4106 4.51791 25.4861 4.1901 24.2772 4.1901C23.7685 4.1901 23.2896 4.26923 22.8386 4.43164C22.3914 4.59288 21.983 4.84624 21.6398 5.17531C21.3007 5.49835 21.0306 5.91005 20.8307 6.40503C20.6308 6.90001 20.5309 7.48066 20.5309 8.14818V8.45219C20.5309 9.14945 20.638 9.75568 20.8474 10.2745C21.0562 10.7879 21.3352 11.2174 21.6862 11.5643C22.0462 11.897 22.4689 12.1544 22.9296 12.3216C23.4122 12.4864 23.919 12.5689 24.4289 12.5655C25.3183 12.5655 26.0709 12.3567 26.692 11.9426C27.3197 11.5268 27.7147 10.9206 27.8747 10.121H26.2268C26.1274 10.4137 25.9412 10.6528 25.6717 10.8343C25.4117 11.0157 24.9976 11.108 24.4283 11.108C24.1489 11.1079 23.871 11.0666 23.6037 10.9854C23.3465 10.9061 23.1072 10.7773 22.8993 10.6064C22.6887 10.4106 22.521 10.1731 22.4067 9.90917C22.2859 9.61647 22.2205 9.26308 22.2116 8.84722H28.0258V7.99647H28.0235ZM22.2092 7.60382C22.2211 7.24864 22.2859 6.95118 22.4043 6.70904C22.5118 6.47403 22.6706 6.26607 22.869 6.10042C23.0682 5.94056 23.2974 5.82204 23.543 5.75179C23.803 5.68219 24.0725 5.64471 24.3521 5.64471C24.6329 5.64471 24.8911 5.67505 25.1327 5.73811C25.3814 5.7982 25.5949 5.90469 25.7764 6.0564C25.9549 6.20751 26.0971 6.40919 26.1946 6.66323C26.3059 6.91608 26.3642 7.2296 26.3761 7.60382H22.2092Z" fill="#FF5029"/>
<path d="M4.09912 22.5831C3.4094 22.5831 2.8871 22.4082 2.53221 22.0584C2.17745 21.7085 2 21.2063 2 20.5515V20.4016C2 19.7769 2.17745 19.2946 2.53221 18.9548C2.8871 18.6149 3.4094 18.445 4.09912 18.445V17.253H4.92368V18.445C5.60845 18.445 6.12815 18.6149 6.48304 18.9548C6.84288 19.2946 7.0228 19.7769 7.0228 20.4016V20.5515C7.0228 21.2063 6.84288 21.7085 6.48304 22.0584C6.12815 22.4082 5.60845 22.5831 4.92368 22.5831V24H4.09912V22.5831ZM6.18313 20.4016C6.18313 19.9868 6.08072 19.6769 5.87579 19.472C5.6758 19.2671 5.35349 19.1647 4.9087 19.1647V21.8635C5.35349 21.8635 5.6758 21.756 5.87579 21.5411C6.08072 21.3212 6.18313 20.9913 6.18313 20.5515V20.4016ZM2.83968 20.5515C2.83968 20.9913 2.94208 21.3212 3.14701 21.5411C3.35195 21.756 3.67427 21.8635 4.1141 21.8635V19.1647C3.66931 19.1647 3.34439 19.2671 3.13946 19.472C2.9396 19.6769 2.83968 19.9843 2.83968 20.3941V20.5515ZM7.69741 18.5274H8.5221V21.3387L10.4337 18.5274H11.2209V22.5007H10.3962V19.6894L8.48458 22.5007H7.69741V18.5274ZM12.1231 18.5274H12.9478V20.1242H14.8219V18.5274H15.6465V22.5007H14.8219V20.8289H12.9478V22.5007H12.1231V18.5274ZM17.7108 22.5831C17.4959 22.5831 17.3034 22.5531 17.1335 22.4932C16.9686 22.4282 16.8287 22.3407 16.7138 22.2308C16.5987 22.1158 16.5113 21.9834 16.4514 21.8335C16.3913 21.6835 16.3614 21.5186 16.3614 21.3387C16.3614 20.9439 16.4789 20.6515 16.7138 20.4616C16.9487 20.2667 17.2934 20.1692 17.7482 20.1692H18.9853V19.9518C18.9853 19.6519 18.9178 19.447 18.7828 19.3371C18.6529 19.2221 18.4455 19.1647 18.1606 19.1647C17.9057 19.1647 17.7183 19.2046 17.5983 19.2846C17.4784 19.3646 17.4084 19.4745 17.3884 19.6145H16.5862C16.5963 19.4445 16.6387 19.2896 16.7138 19.1497C16.7936 19.0047 16.9011 18.8798 17.0361 18.7748C17.176 18.6699 17.3434 18.5899 17.5383 18.5349C17.7332 18.475 17.9532 18.445 18.1981 18.445C18.4429 18.445 18.6628 18.4725 18.8577 18.5274C19.0577 18.5824 19.2276 18.6699 19.3675 18.7898C19.5074 18.9048 19.6149 19.0547 19.69 19.2396C19.7698 19.4245 19.8098 19.6469 19.8098 19.9068V21.4886C19.8098 21.6985 19.8123 21.8834 19.8174 22.0434C19.8223 22.1983 19.8348 22.3507 19.8548 22.5007H19.1051C19.0901 22.3857 19.0776 22.2883 19.0677 22.2083C19.0626 22.1283 19.0602 22.0284 19.0602 21.9084C18.9652 22.0933 18.8003 22.2533 18.5654 22.3882C18.3355 22.5182 18.0506 22.5831 17.7108 22.5831ZM17.9357 21.8635C18.0756 21.8635 18.2081 21.846 18.3331 21.811C18.463 21.771 18.5754 21.716 18.6704 21.646C18.7653 21.5711 18.8403 21.4811 18.8952 21.3762C18.9552 21.2662 18.9853 21.1413 18.9853 21.0013V20.7839H17.8982C17.6883 20.7839 17.5184 20.8289 17.3884 20.9189C17.2634 21.0088 17.201 21.1413 17.201 21.3162C17.201 21.4811 17.2585 21.6136 17.3734 21.7135C17.4934 21.8135 17.6807 21.8635 17.9357 21.8635ZM20.6742 18.5274H21.4989V20.1242H23.3731V18.5274H24.1978V22.5007H23.3731V20.8289H21.4989V22.5007H20.6742V18.5274ZM26.7492 22.5831C26.4794 22.5831 26.2295 22.5431 25.9996 22.4632C25.7747 22.3782 25.5772 22.2508 25.4073 22.0809C25.2424 21.9109 25.1125 21.6985 25.0175 21.4436C24.9225 21.1888 24.8751 20.8914 24.8751 20.5515V20.4016C24.8751 20.0818 24.925 19.7994 25.025 19.5545C25.125 19.3096 25.2599 19.1047 25.4298 18.9398C25.6047 18.7748 25.8047 18.6524 26.0295 18.5724C26.2595 18.4875 26.4993 18.445 26.7492 18.445C27.0091 18.445 27.2389 18.48 27.4389 18.5499C27.6439 18.6199 27.8162 18.7173 27.9562 18.8423C28.1012 18.9622 28.2161 19.1047 28.301 19.2696C28.386 19.4345 28.4434 19.612 28.4735 19.8019H27.6338C27.5838 19.617 27.4939 19.4645 27.3639 19.3446C27.234 19.2246 27.0291 19.1647 26.7492 19.1647C26.6093 19.1647 26.4768 19.1896 26.3519 19.2396C26.2269 19.2846 26.1169 19.3571 26.0221 19.457C25.9271 19.557 25.8521 19.6869 25.7971 19.8469C25.7421 20.0018 25.7146 20.1867 25.7146 20.4016V20.5515C25.7146 20.7864 25.7421 20.9888 25.7971 21.1588C25.8521 21.3237 25.9271 21.4586 26.0221 21.5636C26.1169 21.6685 26.2269 21.746 26.3519 21.796C26.4768 21.841 26.6093 21.8635 26.7492 21.8635C27.2141 21.8635 27.5089 21.6511 27.6338 21.2262H28.4735C28.4335 21.4361 28.3636 21.6261 28.2635 21.796C28.1686 21.9609 28.0462 22.1033 27.8962 22.2233C27.7463 22.3382 27.5739 22.4282 27.379 22.4932C27.1841 22.5531 26.9741 22.5831 26.7492 22.5831ZM29.1084 18.5274H29.9329V19.9218H30.6826C31.1924 19.9218 31.5697 20.0318 31.8146 20.2517C32.0595 20.4666 32.182 20.7864 32.182 21.2112C32.182 21.6111 32.062 21.9259 31.8222 22.1558C31.5822 22.3857 31.2024 22.5007 30.6826 22.5007H29.1084V18.5274ZM30.6077 21.796C30.8826 21.796 31.075 21.7485 31.185 21.6536C31.2999 21.5536 31.3573 21.4062 31.3573 21.2112C31.3573 21.0163 31.2999 20.8714 31.185 20.7764C31.075 20.6765 30.8826 20.6265 30.6077 20.6265H29.9329V21.796H30.6077ZM32.7067 18.5274H33.5314V22.5007H32.7067V18.5274Z" fill="#FF5029"/>
</svg>
