<svg xmlns="http://www.w3.org/2000/svg" width="84" height="24" viewBox="0 0 84 24" fill="none"><rect width="84" height="24" fill="none"/>
<path d="M72.5364 2V15.6609H74.9565V11.594L78.5018 15.6609H81.6437L77.2581 10.6193L81.3412 6.20005H78.2665L74.9565 9.84754V2H72.5364Z" fill="white"/>
<path d="M67.445 5.79806C66.0508 5.79806 65.1595 6.53751 64.7225 7.24334V6.2014H62.3025V15.6609H64.7225V9.88115C64.7225 8.57031 65.3611 7.96531 66.4703 7.96531C67.5795 7.96531 68.167 8.57031 68.167 9.88115V15.6609H70.587V9.76284C70.587 7.17478 69.4953 5.79672 67.445 5.79672" fill="white"/>
<path d="M23.9091 5.41086C23.9091 4.48723 24.295 4.06642 25.1863 4.06642H27.9088V2H24.498C22.5311 2 21.4891 3.02447 21.4891 4.95778V6.78892H19.3219V8.97365H21.4891V15.6609H23.9091V8.97365H26.278V6.78892H23.9091V5.41086Z" fill="white"/>
<path d="M18.0621 2H15.6421V15.6609H18.0621V2Z" fill="white"/>
<path d="M14.9336 19.3125H2V22H14.9336V19.3125Z" fill="white"/>
<path d="M10.8182 4.28556C10.4499 3.1858 10.025 2.31729 8.56763 2.31729C7.11025 2.31729 6.65851 3.18177 6.27131 4.28556L2.26889 15.6609H4.92283L5.84646 12.9572H10.9527L11.8091 15.6609H14.6311L10.8182 4.28556ZM6.61952 10.673L8.43318 5.2818H8.5004L10.2132 10.673H6.61818H6.61952Z" fill="white"/>
<path d="M60.1863 12.7542V9.57865C60.1863 7.25948 58.7075 5.79806 56.2216 5.79806C53.7357 5.79806 52.2891 7.34418 52.1721 8.95752H54.6257C54.7091 8.60527 55.0788 8.00027 56.2216 8.00027C57.1627 8.00027 57.7677 8.43721 57.7677 9.57999H55.3652C53.214 9.57999 51.9368 10.7053 51.9368 12.5875C51.9368 14.4698 53.3337 15.8976 55.3477 15.8976C56.8239 15.8976 57.644 15.1998 58.003 14.6714C58.3216 15.31 59.0274 15.6623 59.9524 15.6623H60.7927V13.4775C60.3557 13.4775 60.1877 13.2759 60.1877 12.7542M57.7677 12.1331C57.7677 13.2248 56.9946 13.8473 55.9863 13.8473C55.1124 13.8473 54.424 13.5273 54.424 12.5875C54.424 11.6478 55.1796 11.512 55.8357 11.512H57.7677V12.1331Z" fill="white"/>
<path d="M35.0828 12.7542V9.57865C35.0828 7.25948 33.6039 5.79806 31.1167 5.79806C28.6295 5.79806 27.1842 7.34418 27.0672 8.95752H29.5208C29.6042 8.60527 29.9753 8.00027 31.1167 8.00027C32.0578 8.00027 32.6628 8.43721 32.6628 9.57999H30.2603C28.1092 9.57999 26.8319 10.7053 26.8319 12.5875C26.8319 14.4698 28.2288 15.8976 30.2428 15.8976C31.719 15.8976 32.5391 15.1998 32.8981 14.6714C33.2181 15.31 33.9226 15.6623 34.8475 15.6623H35.6878V13.4775C35.2509 13.4775 35.0828 13.2759 35.0828 12.7542ZM32.6628 12.1331C32.6628 13.2248 31.8898 13.8473 30.8814 13.8473C30.0075 13.8473 29.3192 13.5273 29.3192 12.5875C29.3192 11.6478 30.0748 11.512 30.7308 11.512H32.6628V12.1331Z" fill="white"/>
<path d="M48.6268 8.72089C49.5343 8.31756 50.3571 7.37645 50.3571 6.04948C50.3571 3.815 48.8957 2.47056 46.4421 2.47056H40.1581V15.6609H46.2243C49.0476 15.6609 50.6435 14.2667 50.6435 11.8293C50.6435 10.099 49.6526 9.10675 48.6268 8.72089ZM42.6615 4.77225H46.157C47.199 4.77225 47.7529 5.25894 47.7529 6.25114C47.7529 7.24335 47.199 7.73003 46.1732 7.73003H42.6615V4.77225ZM45.9379 13.3579H42.6615V9.99677H45.9379C47.3321 9.99677 48.0379 10.5682 48.0379 11.6773C48.0379 12.7865 47.3159 13.3579 45.9379 13.3579Z" fill="white"/>
</svg>
