<svg xmlns="http://www.w3.org/2000/svg" width="24" height="24" viewBox="0 0 24 24" fill="none"><rect width="24" height="24" fill="none"/>
<path d="M14.5585 8.32301L11.9796 10.9243L9.39978 8.32301C7.97533 6.88739 7.97533 4.55614 9.39978 3.07583C9.73731 2.73497 10.1391 2.46439 10.5818 2.27974C11.0245 2.09508 11.4995 2 11.9791 2C12.4588 2 12.9338 2.09508 13.3765 2.27974C13.8192 2.46439 14.221 2.73497 14.5585 3.07583C15.983 4.55614 15.983 6.88739 14.5585 8.32301Z" fill="#5FAF2D"/>
<path d="M9.39978 15.677L11.9787 13.0767L14.5585 15.677C15.983 17.1126 15.983 19.4448 14.5585 20.9242C14.221 21.265 13.8192 21.5356 13.3765 21.7203C12.9338 21.9049 12.4588 22 11.9791 22C11.4995 22 11.0245 21.9049 10.5818 21.7203C10.1391 21.5356 9.73731 21.265 9.39978 20.9242C7.97533 19.4439 7.97533 17.1126 9.39978 15.677Z" fill="#005A28"/>
<path d="M15.6254 14.6464L13.0456 12.0005L15.6245 9.39927C15.962 9.05827 16.3638 8.78757 16.8067 8.60283C17.2495 8.41809 17.7245 8.32297 18.2043 8.32297C18.6841 8.32297 19.1592 8.41809 19.602 8.60283C20.0448 8.78757 20.4466 9.05827 20.7842 9.39927C22.2077 10.8349 22.2077 13.1661 20.7842 14.6464C20.4466 14.9873 20.0449 15.2579 19.6022 15.4425C19.1594 15.6272 18.6845 15.7223 18.2048 15.7223C17.7251 15.7223 17.2502 15.6272 16.8074 15.4425C16.3647 15.2579 15.963 14.9873 15.6254 14.6464Z" fill="#1EAF37"/>
<path d="M8.37465 9.39918L10.9545 12.0004L8.37559 14.6017C8.03804 14.9427 7.63624 15.2134 7.19343 15.3981C6.75061 15.5829 6.27556 15.678 5.79575 15.678C5.31594 15.678 4.8409 15.5829 4.39808 15.3981C3.95526 15.2134 3.55346 14.9427 3.21592 14.6017C1.79147 13.1661 1.79147 10.8348 3.21592 9.35449C4.59382 7.96449 6.95207 7.96449 8.37465 9.39918Z" fill="#AAE641"/>
<path d="M14.5585 8.32301L11.9796 10.9243L9.39978 8.32301C7.97533 6.88739 7.97533 4.55614 9.39978 3.07583C9.73731 2.73497 10.1391 2.46439 10.5818 2.27974C11.0245 2.09508 11.4995 2 11.9791 2C12.4588 2 12.9338 2.09508 13.3765 2.27974C13.8192 2.46439 14.221 2.73497 14.5585 3.07583C15.983 4.55614 15.983 6.88739 14.5585 8.32301Z" fill="#5FAF2D"/>
<path d="M9.39978 15.677L11.9787 13.0767L14.5585 15.677C15.983 17.1126 15.983 19.4448 14.5585 20.9242C14.221 21.265 13.8192 21.5356 13.3765 21.7203C12.9338 21.9049 12.4588 22 11.9791 22C11.4995 22 11.0245 21.9049 10.5818 21.7203C10.1391 21.5356 9.73731 21.265 9.39978 20.9242C7.97533 19.4439 7.97533 17.1126 9.39978 15.677Z" fill="#005A28"/>
<path d="M15.6254 14.6464L13.0456 12.0005L15.6245 9.39927C15.962 9.05827 16.3638 8.78757 16.8067 8.60283C17.2495 8.41809 17.7245 8.32297 18.2043 8.32297C18.6841 8.32297 19.1592 8.41809 19.602 8.60283C20.0448 8.78757 20.4466 9.05827 20.7842 9.39927C22.2077 10.8349 22.2077 13.1661 20.7842 14.6464C20.4466 14.9873 20.0449 15.2579 19.6022 15.4425C19.1594 15.6272 18.6845 15.7223 18.2048 15.7223C17.7251 15.7223 17.2502 15.6272 16.8074 15.4425C16.3647 15.2579 15.963 14.9873 15.6254 14.6464Z" fill="#1EAF37"/>
<path d="M8.37465 9.39918L10.9545 12.0004L8.37559 14.6017C8.03804 14.9427 7.63624 15.2134 7.19343 15.3981C6.75061 15.5829 6.27556 15.678 5.79575 15.678C5.31594 15.678 4.8409 15.5829 4.39808 15.3981C3.95526 15.2134 3.55346 14.9427 3.21592 14.6017C1.79147 13.1661 1.79147 10.8348 3.21592 9.35449C4.59382 7.96449 6.95207 7.96449 8.37465 9.39918Z" fill="#AAE641"/>
</svg>
