<svg xmlns="http://www.w3.org/2000/svg" width="24" height="24" viewBox="0 0 24 24" fill="none"><rect width="24" height="24" fill="none"/>
<path d="M20.5714 6.14412L15.9071 8.83705C14.9908 9.36611 14.5326 9.63065 14.1578 9.63457C13.6368 9.64003 13.1541 9.36134 12.8983 8.90736C12.7143 8.58085 12.7143 8.05179 12.7143 6.99364V2H11.2857V6.99364C11.2857 8.05179 11.2857 8.58085 11.1017 8.90736C10.8459 9.36134 10.3632 9.64003 9.84219 9.63457C9.46742 9.63065 9.00923 9.36611 8.09284 8.83705L3.42857 6.14412L2.71429 7.38128L6.03713 9.29974C6.92824 9.81423 7.37381 10.0715 7.46747 10.2895C7.59784 10.5929 7.50318 10.9462 7.23858 11.1437C7.04847 11.2857 6.53398 11.2857 5.50497 11.2857H2V12.7143H5.50497C6.53398 12.7143 7.04847 12.7143 7.23858 12.8563C7.50318 13.0538 7.59784 13.4071 7.46747 13.7105C7.37381 13.9285 6.92824 14.1858 6.03713 14.7003L2.71429 16.6187L3.42857 17.8559L8.09287 15.163C9.00923 14.6339 9.46742 14.3693 9.84219 14.3654C10.3632 14.36 10.8459 14.6387 11.1017 15.0926C11.2857 15.4191 11.2857 15.9482 11.2857 17.0064V22H12.7143V17.0064C12.7143 15.9482 12.7143 15.4191 12.8983 15.0926C13.1541 14.6387 13.6368 14.36 14.1578 14.3654C14.5326 14.3693 14.9908 14.6339 15.9072 15.163L20.5714 17.8559L21.2857 16.6187L17.9629 14.7003C17.0718 14.1858 16.6262 13.9285 16.5325 13.7105C16.4022 13.4071 16.4968 13.0538 16.7614 12.8563C16.9515 12.7143 17.4661 12.7143 18.495 12.7143H22V11.2857H18.495C17.4661 11.2857 16.9515 11.2857 16.7614 11.1437C16.4968 10.9462 16.4022 10.5929 16.5325 10.2895C16.6262 10.0715 17.0718 9.81423 17.9629 9.29974L21.2857 7.38128L20.5714 6.14412Z" fill="#FFDE6A"/>
</svg>
