<svg xmlns="http://www.w3.org/2000/svg" width="107" height="24" viewBox="0 0 107 24" fill="none"><rect width="107" height="24" fill="none"/>
<path d="M43.6222 15.9244C43.9168 15.3009 44.0646 14.6939 44.0646 14.105C44.0646 13.5157 43.873 13.2211 43.4922 13.2211C43.3362 13.2211 43.2062 13.3338 43.1022 13.5591C42.9982 13.7844 42.9462 14.001 42.9462 14.209C42.9462 14.9023 43.1716 15.4742 43.6222 15.9244ZM43.8561 18.9406C42.4869 20.5528 40.8443 21.3583 38.9296 21.3583C37.0141 21.3583 35.5799 20.8683 34.6271 19.889C33.6738 18.9102 33.2059 17.6922 33.2232 16.2368C33.2059 14.1744 33.8558 12.3979 35.173 10.9069C36.4902 9.41682 38.2151 8.67156 40.3465 8.67156C41.3171 8.67156 42.0965 8.79288 42.6863 9.03552C43.7088 9.45105 44.2201 9.84101 44.2201 10.205C44.2201 10.4827 43.5047 10.6257 42.0758 10.6344C40.6455 10.643 39.4496 11.137 38.4872 12.1158C37.5262 13.095 37.0444 14.3299 37.0444 15.8213C37.0444 16.6008 37.2745 17.2546 37.7337 17.7837C38.193 18.3127 38.843 18.5766 39.6836 18.5766C40.5241 18.5766 41.2217 18.4033 41.7763 18.0562C40.5454 17.2243 39.9301 16.0202 39.9301 14.4426C39.9128 13.6111 40.2122 12.8532 40.8274 12.1682C41.4427 11.4836 42.2313 11.137 43.1932 11.1283C44.1547 11.1197 44.8436 11.384 45.26 11.9212C45.676 12.4585 45.8839 13.1475 45.8839 13.988C45.8839 14.8286 45.6846 15.7169 45.286 16.6532H45.442C46.2046 16.6354 46.8628 16.3668 47.4178 15.8464C47.6258 15.6384 47.803 15.4565 47.9507 15.3009C48.0976 15.1449 48.2502 15.0669 48.4057 15.0669C48.6483 15.0669 48.7697 15.3533 48.7697 15.9244C48.7697 16.9821 48.4577 17.775 47.8338 18.3032C47.2098 18.8322 46.5209 19.0961 45.767 19.0961C45.013 19.0961 44.3761 19.0445 43.8561 18.9406Z" fill="white"/>
<path d="M105.346 18.7568C105.346 20.1936 104.181 21.3583 102.743 21.3583C101.307 21.3574 100.143 20.1928 100.143 18.756C100.143 17.3192 101.308 16.1545 102.744 16.1554C104.181 16.1554 105.346 17.32 105.346 18.7568Z" fill="#8CD7F8"/>
<path d="M98.3106 15.4742C98.6052 15.4742 98.7525 15.8728 98.7525 16.6701C98.7525 17.1034 98.5705 17.6281 98.2066 18.2434C97.8426 18.8586 97.3703 19.4219 96.7897 19.9323C96.2082 20.4445 95.5626 20.8648 94.8529 21.1932C94.1419 21.5234 93.3918 21.6876 92.6041 21.6876C91.8155 21.6876 91.2003 21.432 90.7583 20.9207C90.3159 20.4098 90.0949 19.8374 90.0949 19.2044C90.0949 18.5722 90.1989 17.8573 90.4073 17.0601C90.6153 16.2628 90.8406 15.4309 91.0833 14.5643C91.7419 12.2596 92.0794 10.6387 92.0972 9.70277C92.0972 9.30415 92.0447 8.99651 91.9408 8.77943C91.8368 8.56279 91.6379 8.45446 91.3432 8.45446C90.8229 8.45446 90.2682 8.76686 89.6794 9.39037C89.0897 10.0147 88.5351 10.812 88.0156 11.7821C86.8192 14.001 86.1871 16.1675 86.1173 18.2819C86.152 18.525 86.1871 18.7672 86.2217 19.0099C86.2564 19.2529 86.2733 19.5125 86.2733 19.7894C86.2733 20.3444 86.0008 20.8513 85.4548 21.3111C84.9089 21.7695 84.2979 22 83.622 22C83.2234 22 82.9287 21.8042 82.7376 21.4142C82.5461 21.0251 82.4512 20.5433 82.4512 19.9722C82.4512 19.4003 82.5808 18.6199 82.8416 17.632C83.1021 16.6437 83.3876 15.5951 83.6996 14.4859C84.5315 11.5573 84.9565 9.37347 84.9734 7.93495C84.9734 7.20659 84.8829 6.63507 84.7009 6.21868C84.5189 5.80316 84.1675 5.59518 83.648 5.59518C82.7121 5.59518 81.7835 6.26244 80.8654 7.59698C79.9464 8.93195 79.124 11.0026 78.3952 13.8104C78.205 14.5383 78.0577 15.1713 77.9537 15.7078L77.9273 16.2021C78.2566 17.7971 78.4216 18.8365 78.4216 19.3223C78.4216 20.3275 78.0659 21.003 77.3562 21.3501C77.026 21.5056 76.7093 21.6529 76.4064 21.7916C76.1035 21.9302 75.7786 22 75.4315 22C74.5649 22 74.1316 21.172 74.1316 19.5168C74.1316 17.8616 74.5914 14.6254 75.5104 9.80633C75.8388 8.0736 76.0039 7.10303 76.0039 6.89505C76.0039 5.49075 75.6481 4.78926 74.9384 4.78926C74.6953 4.78926 74.4744 4.85858 74.2746 4.99723C74.0757 5.13589 73.876 5.28277 73.6771 5.43919C73.4774 5.59518 73.2746 5.7425 73.0662 5.88115C72.8582 6.0198 72.6194 6.08913 72.3512 6.08913C72.0822 6.08913 71.9483 5.85472 71.9483 5.38676C71.9483 4.43396 72.3902 3.65403 73.2746 3.04743C74.1234 2.42305 75.1551 2.11152 76.3674 2.11152C77.9273 2.11152 78.8463 2.83945 79.124 4.2953C79.1925 4.72859 79.2449 5.18788 79.2796 5.67274C80.5617 3.26451 82.1822 2.05952 84.1415 2.05952C86.2733 2.05952 87.4952 3.08252 87.8076 5.12722C87.9116 5.7165 87.9549 6.3491 87.9371 7.02504V7.23258C89.0633 5.67274 90.3978 4.89325 91.9408 4.89325C94.125 4.89325 95.2164 6.21045 95.2164 8.84486C95.2164 9.98875 95.0388 11.3276 94.6835 12.861C94.3282 14.3953 94.0682 15.4963 93.904 16.1631C93.7389 16.83 93.657 17.346 93.657 17.71C93.657 18.3686 93.8862 18.6975 94.3459 18.6975C94.8044 18.6975 95.901 17.7971 97.6342 15.9937C97.9466 15.6475 98.1719 15.4742 98.3106 15.4742Z" fill="#8CD7F8"/>
<path fill-rule="evenodd" clip-rule="evenodd" d="M28.5697 12.3891C29.2283 12.3891 29.5576 12.6751 29.5576 13.2466C29.5576 13.715 29.4618 14.452 29.2716 15.4564C29.0805 16.4616 28.9856 17.2506 28.9856 17.8226C28.9856 20.093 29.6091 21.2278 30.8575 21.2278C32.2436 21.2278 33.5482 20.6559 34.7696 19.5124C35.992 18.3685 36.6029 17.1904 36.6029 15.9768C36.6029 15.3879 36.4811 15.0924 36.2389 15.0924C36.1176 15.0924 35.8962 15.2575 35.576 15.5868L35.499 15.6657C35.1991 15.9734 34.8741 16.3067 34.5231 16.6657C34.1418 17.0561 33.7601 17.4157 33.3792 17.7446C32.9975 18.0739 32.6768 18.2381 32.4173 18.2381C32.2782 18.2381 32.2089 18.1307 32.2089 17.9131C32.2089 17.6974 32.2613 17.3936 32.3653 17.0032C32.4693 16.6133 32.5863 16.1674 32.7163 15.6648C32.8463 15.1618 32.9628 14.6245 33.0672 14.0534C33.1712 13.481 33.2232 12.8402 33.2232 12.1291C33.2232 11.4186 32.9801 10.8202 32.4949 10.3353C32.01 9.85004 31.2994 9.6074 30.3631 9.6074C28.8383 9.6074 27.5467 10.266 26.4899 11.5828V11.2968C26.4899 10.552 26.1948 9.93236 25.606 9.43841C25.0167 8.94403 24.349 8.69705 23.6042 8.69705C22.4772 8.69705 21.4984 9.21743 20.6665 10.2573C20.5967 10.0494 20.4931 9.82448 20.3545 9.5814C19.8692 8.64549 19.3406 8.17754 18.7686 8.17754C18.4047 8.17754 18.0667 8.42018 17.7547 8.90503C16.8357 10.344 16.2465 11.8687 15.9869 13.481C15.8403 14.3186 15.7504 15.5589 15.7164 17.2018C14.9455 17.8929 14.4205 18.2382 14.1414 18.2382C13.7774 18.2382 13.595 17.5198 13.595 16.0808C13.595 14.6423 13.6648 13.524 13.8034 12.7272C14.2714 11.9299 14.6263 11.2453 14.8698 10.6729C14.8698 10.205 14.5964 9.70756 14.0504 9.17851C13.5045 8.64946 12.9282 8.38559 12.3216 8.38559C12.0096 8.38559 11.7323 8.6369 11.4897 9.13908C10.987 8.86221 10.3371 8.72312 9.53985 8.72312C8.7426 8.72312 7.98434 8.83621 7.26507 9.06152C6.54581 9.28683 5.77065 9.75479 4.9383 10.465C2.97939 12.1643 2.00059 14.4868 2.00059 17.4323C1.98326 18.5242 2.34722 19.4518 3.09248 20.214C3.83774 20.9775 4.82088 21.3583 6.04319 21.3583C7.26507 21.3583 8.23998 21.1204 8.96791 20.6434C9.6954 20.1668 10.2847 19.5558 10.7357 18.8101C11.0481 20.4224 11.6625 21.2279 12.5816 21.2279C13.2575 21.2279 13.9508 21.0637 14.6613 20.7348C15.0513 20.5541 15.4215 20.3459 15.7722 20.1103C15.8131 20.4222 15.8716 20.6823 15.9479 20.8903C16.1126 21.3405 16.4115 21.5667 16.8448 21.5667C17.0177 21.5667 17.2175 21.5225 17.4428 21.4362C18.9155 20.8643 19.6526 20.2837 19.6526 19.6944C19.6526 19.4518 19.5616 19.0185 19.3796 18.3945C19.1976 17.771 19.1066 17.0908 19.1066 16.3533C19.1066 15.6171 19.4615 14.621 20.1725 13.364C20.8827 12.1075 21.507 11.4792 22.0443 11.4792C22.5812 11.4792 22.8502 11.7743 22.8502 12.3631C22.8502 12.6409 22.8281 13.0001 22.7848 13.442C22.7419 13.884 22.6986 14.3953 22.6553 14.9759C22.6119 15.5573 22.5682 16.1895 22.5253 16.8741C22.4819 17.5587 22.4598 18.2862 22.4598 19.0575C22.4598 19.8292 22.5422 20.4401 22.7068 20.8903C22.8715 21.3405 23.1709 21.5667 23.6042 21.5667C23.7771 21.5667 23.9764 21.5225 24.2021 21.4362C25.6749 20.8643 26.4119 20.2837 26.4119 19.6944C26.4119 19.4518 26.3205 19.0185 26.1385 18.3945C25.9565 17.771 25.8659 17.1644 25.8659 16.5743V16.5227C26.1082 15.5175 26.5068 14.5772 27.0618 13.702C27.6164 12.8267 28.1191 12.3891 28.5697 12.3891ZM15.7722 20.1103C15.7246 19.7471 15.7009 19.3135 15.7009 18.8101C15.7009 18.2369 15.7061 17.7008 15.7164 17.2018C16.1904 16.777 16.7572 16.2215 17.4171 15.5353C17.729 15.1883 17.9544 15.0145 18.093 15.0145C18.405 15.0145 18.561 15.414 18.561 16.2104C18.561 16.6437 18.379 17.1684 18.0155 17.7837C17.6515 18.3989 17.1788 18.9627 16.5982 19.4735C16.336 19.7042 16.0607 19.9165 15.7722 20.1103ZM7.30407 18.5766C6.3166 18.5766 5.82222 17.9098 5.82222 16.5744C5.82222 14.946 6.34216 13.5937 7.38206 12.5187C8.42196 11.4446 9.64384 10.7687 11.0481 10.4909C10.7011 11.8783 10.5278 13.5417 10.5278 15.4825C10.3718 16.0379 10.1725 16.5059 9.92981 16.8868C9.23655 17.996 8.36087 18.5597 7.30407 18.5766Z" fill="white"/>
<path fill-rule="evenodd" clip-rule="evenodd" d="M60.5364 12.5763C61.2609 10.314 62.0142 8.56759 62.7977 7.33657C62.9702 7.07703 63.2215 6.80882 63.5516 6.53108C63.8809 6.25378 64.2362 6.11513 64.6171 6.11513C64.8424 6.11513 64.9555 6.4102 64.9555 6.99904C64.9555 7.58788 64.92 8.14293 64.8515 8.66288C64.6951 9.66811 64.4962 10.604 64.2531 11.4706C63.6296 13.8273 63.3172 15.2051 63.3172 15.6038V19.4254C63.3172 20.3613 62.9619 21.003 62.2518 21.3501C61.9216 21.5056 61.6062 21.6529 61.3024 21.7916C60.9991 21.9302 60.6564 22 60.2755 22C59.548 22 59.1841 21.1637 59.1841 19.4908C59.1841 19.4105 59.185 19.3291 59.1868 19.2468C59.3525 19.083 59.5101 18.9143 59.6596 18.7406C60.4261 17.8515 60.9976 16.9273 61.3742 15.9684C61.7524 15.0096 61.9405 14.1126 61.9405 13.2773C61.9405 12.4423 61.7204 12.0242 61.2836 12.0242C61.1032 12.0242 60.8546 12.2082 60.5364 12.5763C60.4753 12.7673 60.4143 12.962 60.3535 13.1604C59.6115 15.5854 59.2224 17.6145 59.1868 19.2468C58.5029 19.9228 57.6815 20.5145 56.7224 21.0206C55.5291 21.651 54.1243 21.966 52.5073 21.966C50.8885 21.966 49.4721 21.4262 48.2563 20.3438C47.0392 19.2614 46.4317 17.6999 46.4317 15.6595C46.4317 13.6204 46.7168 11.7711 47.2887 10.1142C47.8603 8.45733 48.6142 7.02617 49.551 5.82119C50.4873 4.61578 51.5523 3.6777 52.7443 3.00654C53.9363 2.33623 55.0667 2 56.1374 2C58.011 2 58.9477 2.83625 58.9477 4.50616C58.9477 5.46546 58.7718 6.23152 58.4191 6.80693C58.0651 7.38147 57.7072 7.66918 57.3424 7.66918C56.8549 7.66918 56.4303 7.4781 56.0655 7.09377C55.6998 6.71117 55.2986 6.51229 54.8605 6.49886C54.422 6.48543 53.2331 6.4525 52.2218 8.07734C51.6393 9.01336 51.6108 9.0996 51.4683 9.5304C51.438 9.62224 51.4024 9.72995 51.3552 9.86466C50.8205 11.3989 50.5068 12.5766 50.5068 14.6304C50.5311 15.6166 51.4128 17.1245 52.1914 17.618C52.7261 17.946 53.3643 18.222 54.0892 18.1306C55.6526 17.9343 56.53 17.1929 57.1691 16.5083C57.7422 15.8939 58.2491 15.3105 58.7915 14.6863L58.8385 14.6322C59.3971 13.9892 59.8897 13.3943 60.3165 12.8457C60.3932 12.747 60.4665 12.6572 60.5364 12.5763ZM76.3684 16.6701C76.3684 15.8728 76.2202 15.4742 75.926 15.4742C75.7869 15.4742 75.5577 15.6428 75.2371 15.9812C74.9164 16.3187 74.5564 16.687 74.1582 17.0865C73.7595 17.4851 73.3566 17.853 72.9493 18.1909C72.5424 18.5293 72.1954 18.6979 71.9094 18.6979C71.6234 18.6979 71.3803 18.5159 71.1814 18.1519C70.9817 17.788 70.8049 17.3291 70.6485 16.7741C70.493 16.2199 70.3318 15.6129 70.168 14.9538C70.0029 14.2952 69.791 13.6799 69.5306 13.1084C70.7096 12.6756 71.6971 11.9646 72.4943 10.9766C73.2916 9.98875 73.6815 8.74997 73.6646 7.25901C73.6646 5.45609 72.893 4.10466 71.3509 3.20341C70.0332 2.44125 68.3612 2.05519 66.3334 2.04653C64.3056 2.03786 62.4853 2.5968 60.8739 3.72293C60.2326 4.17442 59.7469 4.6246 59.4176 5.07523C59.0883 5.52628 58.9241 5.85125 58.9241 6.05013C58.9241 6.24944 59.0801 6.3491 59.392 6.3491C59.7036 6.3491 60.0372 6.25378 60.3925 6.06313C60.7478 5.87248 61.1551 5.6645 61.6144 5.43919C62.0732 5.21431 62.624 5.0059 63.2657 4.81525C63.9061 4.62461 64.8294 4.52928 66.034 4.52928C67.2389 4.52928 68.1527 4.80615 68.7767 5.3612C69.4011 5.91581 69.7126 6.65717 69.7126 7.58398C69.7126 8.51122 69.5609 9.24738 69.2581 9.79333C68.9543 10.3397 68.56 10.812 68.0748 11.2106C67.7112 10.9853 67.2987 10.8722 66.8403 10.8722C66.3806 10.8722 65.9729 10.9598 65.6184 11.1322C65.2627 11.3055 65.085 11.5876 65.085 11.9776C65.085 12.3675 65.2545 12.6968 65.592 12.9655C65.9304 13.2345 66.3238 13.4117 66.7749 13.4984C66.9655 14.1574 67.1557 15.3143 67.3473 16.9686C67.5375 18.6242 67.7805 19.7469 68.0748 20.3362C68.2832 20.7517 68.5691 21.081 68.9331 21.3236C69.2971 21.5667 69.7997 21.6876 70.441 21.6876C71.0818 21.6876 71.7577 21.5234 72.4688 21.1932C73.1789 20.8652 73.8245 20.4445 74.4051 19.9323C74.9857 19.4219 75.458 18.8586 75.8224 18.2434C76.1864 17.6281 76.3684 17.1034 76.3684 16.6701Z" fill="#8CD7F8"/>
<path d="M61.9405 13.2773C61.9405 12.4423 61.7204 12.0242 61.2836 12.0242C61.1032 12.0242 60.8546 12.2082 60.5364 12.5763C60.4753 12.7673 60.4143 12.962 60.3535 13.1604C59.6115 15.5854 59.2224 17.6145 59.1868 19.2468C59.3525 19.083 59.5101 18.9143 59.6596 18.7406C60.4261 17.8515 60.9976 16.9273 61.3742 15.9684C61.7524 15.0096 61.9405 14.1126 61.9405 13.2773Z" fill="#8CD7F8"/>
<path d="M18.561 16.2104C18.561 15.414 18.405 15.0145 18.093 15.0145C17.9544 15.0145 17.729 15.1883 17.4171 15.5353C16.7572 16.2215 16.1904 16.777 15.7164 17.2018C15.7061 17.7008 15.7009 18.2369 15.7009 18.8101C15.7009 19.3135 15.7246 19.7471 15.7722 20.1103C16.0607 19.9165 16.336 19.7042 16.5982 19.4735C17.1788 18.9627 17.6515 18.3989 18.0155 17.7837C18.379 17.1684 18.561 16.6437 18.561 16.2104Z" fill="white"/>
</svg>
