<svg xmlns="http://www.w3.org/2000/svg" width="24" height="24" viewBox="0 0 24 24" fill="none"><rect width="24" height="24" fill="none"/>
<path fill-rule="evenodd" clip-rule="evenodd" d="M11.9998 9.62664C13.1832 9.62664 14.1425 8.67019 14.1425 7.49031C14.1425 6.31044 13.1832 5.35408 11.9998 5.35408C10.8165 5.35408 9.85717 6.31053 9.85717 7.49041C9.85717 8.67028 10.8165 9.62664 11.9998 9.62664ZM6.40518 10.3387H17.5945C18.4492 10.3387 19.142 11.0294 19.142 11.8815C19.142 12.7336 18.4492 13.4244 17.5945 13.4244H14.6035L19.1426 18.6463H15.0954L12.0002 15.0855L8.90494 18.6463H4.85774L9.39685 13.4244H6.40527C5.55056 13.4244 4.85774 12.7336 4.85774 11.8815C4.85774 11.0295 5.55046 10.3387 6.40518 10.3387Z" fill="white"/>
<path fill-rule="evenodd" clip-rule="evenodd" d="M9.39685 13.4244H6.40527C5.55056 13.4244 4.85774 12.7336 4.85774 11.8815C4.85774 11.0295 5.55046 10.3387 6.40518 10.3387H17.5945C18.4492 10.3387 19.142 11.0294 19.142 11.8815C19.142 12.7336 18.4492 13.4244 17.5945 13.4244H14.6035L19.1426 18.6463H15.0954L12.0002 15.0855L8.90494 18.6463H4.85774L9.39685 13.4244ZM12.0001 17.0706L9.49833 19.9486H2L6.53911 14.7267H6.40515C4.83485 14.7267 3.55529 13.4565 3.55529 11.8815C3.55529 10.3067 4.83466 9.03636 6.40506 9.03636H8.92153C8.68694 8.57192 8.55473 8.04686 8.55473 7.49041C8.55473 5.58765 10.1007 4.05176 11.9997 4.05176C13.8986 4.05176 15.4447 5.58748 15.4447 7.49031C15.4447 8.04679 15.3124 8.57188 15.0778 9.03636H17.5943C19.1646 9.03636 20.4442 10.3064 20.4442 11.8815C20.4442 13.4565 19.1646 14.7267 17.5943 14.7267H17.461L22.0001 19.9486H14.5018L12.0001 17.0706ZM13.4784 9.03636C13.8875 8.6473 14.1425 8.09849 14.1425 7.49031C14.1425 6.31044 13.1832 5.35408 11.9998 5.35408C10.8165 5.35408 9.85717 6.31053 9.85717 7.49041C9.85717 8.09856 10.1119 8.64733 10.521 9.03636C10.9055 9.40208 11.4264 9.62664 11.9998 9.62664C12.5732 9.62664 13.0939 9.40208 13.4784 9.03636Z" fill="black"/>
</svg>
