<svg xmlns="http://www.w3.org/2000/svg" width="24" height="24" viewBox="0 0 24 24" fill="none"><rect width="24" height="24" fill="none"/>
<path fill-rule="evenodd" clip-rule="evenodd" d="M16.05 2H7.952C4.668 2 2 4.67 2 7.95V16.05C2 19.33 4.668 22 7.952 22H16.05C19.33 22 22 19.33 22 16.05V7.95C22 4.67 19.33 2 16.05 2Z" fill="white"/>
<path fill-rule="evenodd" clip-rule="evenodd" d="M12.8101 15.6759C12.3121 16.4059 11.6641 16.7899 10.9301 16.7899C10.0781 16.7899 9.43211 16.4079 8.95811 15.6179C8.46011 14.7919 8.20811 13.5519 8.20811 11.9339C8.20811 10.4499 8.47411 9.27192 9.00211 8.42992C9.49811 7.63992 10.1181 7.27192 10.9541 7.27192C11.7001 7.27192 12.2801 7.57992 12.7861 8.24792C13.3281 8.96392 13.7861 10.1459 14.1141 11.6639C13.7021 13.7199 13.3001 14.9619 12.8101 15.6759ZM18.3141 14.4579L18.3061 14.5479C18.2781 14.8939 18.0601 15.2459 17.7001 15.2459C17.4241 15.2459 17.2021 15.1439 17.0201 14.9339C16.8041 14.6819 16.6081 14.3819 16.4101 13.8359C16.9701 11.9339 18.7001 5.83592 18.7001 5.83592H15.4181C15.4181 5.83592 15.1141 7.26592 14.8401 8.56592C14.8261 8.53592 14.8121 8.50392 14.7981 8.47392C14.5241 7.88992 14.0881 7.23792 13.6021 6.78192C12.7561 5.98592 11.7621 5.59992 10.5601 5.59992C8.90211 5.59992 7.50011 6.21192 6.39211 7.42192C5.28811 8.62392 4.70611 10.1679 4.70611 11.8839C4.70611 13.7939 5.26011 15.3639 6.35011 16.5459C7.49011 17.7819 8.85011 18.3579 10.6321 18.3579C11.6701 18.3579 12.6621 18.0479 13.5821 17.4419C14.1741 17.0499 14.7161 16.5059 15.2281 15.7999C15.4441 16.4979 15.6601 16.9739 15.9201 17.3279C16.3381 17.9039 16.9661 18.2339 17.6421 18.2339C18.3441 18.2339 18.9861 17.8719 19.3141 17.2939C19.6061 16.7799 19.7241 16.1419 19.7241 15.0939V14.4579H18.3141Z" fill="#D72031"/>
</svg>
