<svg xmlns="http://www.w3.org/2000/svg" width="24" height="24" viewBox="0 0 24 24" fill="none"><rect width="24" height="24" fill="none"/>
<path fill-rule="evenodd" clip-rule="evenodd" d="M14.0848 19.078L13.3002 21.1628C13.0493 21.8293 12.3027 22.1674 11.6325 21.9179C11.2835 21.7879 11.0077 21.5148 10.8755 21.1682L7.62346 12.646C7.40129 12.0638 7.69571 11.4127 8.28108 11.1917C8.40959 11.1432 8.54591 11.1183 8.68337 11.1183H15.4456C16.0717 11.1183 16.5793 11.6231 16.5793 12.2459C16.5793 12.3809 16.5549 12.5148 16.5074 12.6412C16.3415 13.0818 15.9201 13.3735 15.4493 13.3735H11.2969C10.8944 13.3735 10.5681 13.6981 10.5681 14.0984C10.5681 14.4988 10.8944 14.8233 11.2969 14.8233H14.3162C14.85 14.8233 15.2827 15.256 15.2827 15.7898C15.2827 16.3236 14.85 16.7564 14.3162 16.7564H12.2686C11.8661 16.7564 11.5398 17.0809 11.5398 17.4813C11.5398 17.8816 11.8661 18.2062 12.2686 18.2062H13.4814C13.8375 18.2062 14.1261 18.4948 14.1261 18.8509C14.1261 18.9285 14.1121 19.0054 14.0848 19.078Z" fill="#FFE53B"/>
<path fill-rule="evenodd" clip-rule="evenodd" d="M11.4147 7.11359C11.4147 8.57199 10.2265 9.75455 8.76201 9.75455C7.29672 9.75455 6.10858 8.57199 6.10858 7.11359C6.10858 5.65597 7.29672 4.47341 8.76201 4.47341C10.2265 4.47341 11.4147 5.65597 11.4147 7.11359Z" fill="#40BDFF"/>
<path fill-rule="evenodd" clip-rule="evenodd" d="M16.0714 5.68324C16.0714 7.71764 14.4139 9.36569 12.3696 9.36569C10.3244 9.36569 8.6669 7.71764 8.6669 5.68324C8.6669 3.64884 10.3244 2 12.3696 2C14.4139 2 16.0714 3.64884 16.0714 5.68324Z" fill="#FF5E86"/>
<path fill-rule="evenodd" clip-rule="evenodd" d="M17.8904 7.51083C17.8904 8.74981 16.881 9.75447 15.6362 9.75447C14.3914 9.75447 13.3812 8.74981 13.3812 7.51083C13.3812 6.27107 14.3914 5.26719 15.6362 5.26719C16.881 5.26719 17.8904 6.27107 17.8904 7.51083Z" fill="#FF92BB"/>
</svg>
