<svg xmlns="http://www.w3.org/2000/svg" width="58" height="24" viewBox="0 0 58 24" fill="none"><rect width="58" height="24" fill="none"/>
<path d="M53.5505 9.9342L52.4265 5.96727L44.5609 22L53.5505 9.9342Z" fill="#0B6FBD"/>
<path d="M53.1491 8.52873L52.4267 5.96676L55.7986 4.89252L53.1491 8.52873ZM49.6978 15.0576L53.5503 9.93386L41.5111 2L49.6978 15.0576Z" fill="#0C94FF"/>
<path d="M25.1088 8.91786C23.8247 8.91786 22.6798 9.37868 21.9991 10.1781H21.9682V6.07541H20.6996V17.2916H21.9218V16.2775H21.9528C22.618 17.0608 23.7474 17.522 25.0315 17.522C27.5841 17.522 29.4252 15.7398 29.4252 13.2199C29.4252 10.777 27.5686 8.91786 25.1088 8.91786ZM24.954 16.4159C23.2832 16.4159 21.9682 15.2635 21.9682 13.8345V12.6053C21.9682 11.1765 23.2987 10.0241 25.0315 10.0241C26.9034 10.0241 28.1565 11.2843 28.1565 13.2199C28.1565 15.1712 26.9197 16.4159 24.954 16.4159ZM10.153 15.1252C10.153 16.5542 8.65236 17.522 6.42452 17.522C5.20246 17.522 4.19685 17.2456 3.39321 16.7078C3.01265 16.4677 2.69022 16.146 2.44927 15.766C2.20831 15.3859 2.05485 14.9571 2 14.5105L3.17506 14.2492C3.438 15.7088 4.56742 16.4461 6.42384 16.4461C7.9555 16.4461 8.8838 15.9391 8.8838 15.14C8.8838 14.3567 8.3729 14.0185 6.11458 13.6496C3.22138 13.1888 2.35507 12.6048 2.35507 11.2995C2.35507 9.96281 3.80942 8.91803 5.80514 8.91803C7.89368 8.91803 9.6263 10.0549 9.90491 11.5607L8.729 11.7913C8.43506 10.6844 7.33664 9.99346 5.80514 9.99346C4.55192 9.99346 3.6083 10.5621 3.6083 11.2995C3.6083 11.9141 4.14968 12.1753 6.36202 12.544C9.24023 13.0357 10.153 13.7731 10.153 15.1252ZM38.7461 9.14776L32.9142 20.7486H31.4754L33.6104 16.6155L29.8198 9.14827H31.2894L34.2908 15.2635H34.3218L37.2921 9.14827L38.7461 9.14776ZM15.3301 8.91786C14.2935 8.91786 13.4272 9.17909 12.731 9.68607C12.3961 9.92357 12.1115 10.2251 11.8937 10.5732C11.676 10.9213 11.5293 11.3091 11.4623 11.7142L12.6845 11.9754C12.9321 10.7462 13.9067 10.0241 15.3301 10.0241C16.5832 10.0241 17.3876 10.5311 17.3876 11.3148C17.3876 11.9754 16.8153 12.2366 14.7422 12.6053C12.3906 13.0202 11.416 13.6963 11.416 15.1097C11.416 16.6002 12.5454 17.522 14.4483 17.522C15.7477 17.522 16.9391 17.015 17.4966 16.2618H17.5276V17.2913H18.7497V11.5759C18.749 9.96349 17.4186 8.91786 15.3301 8.91786ZM17.4805 14.4491C17.4805 15.4786 16.1654 16.4004 14.7112 16.4004C13.3499 16.4004 12.7 15.9856 12.7 15.1097C12.7 14.3264 13.3962 13.9422 15.2681 13.5733C16.6305 13.3122 17.2175 13.0816 17.4495 12.6668H17.4805V14.4491Z" fill="white"/>
</svg>
