<svg xmlns="http://www.w3.org/2000/svg" width="24" height="24" viewBox="0 0 24 24" fill="none"><rect width="24" height="24" fill="none"/>
<path d="M2 12C2 6.47715 6.47715 2 12 2C17.5228 2 22 6.47715 22 12C22 17.5228 17.5228 22 12 22C6.47715 22 2 17.5228 2 12Z" fill="#EF3124"/>
<path fill-rule="evenodd" clip-rule="evenodd" d="M16.2281 18.4132H7.77209V16.6622H16.2281V18.4132ZM10.5645 6.86963C10.8182 6.15084 11.1139 5.58714 12.066 5.58714C13.0182 5.58714 13.2961 6.15314 13.5371 6.86963L16.0305 14.2814H14.1855L13.6255 12.5194H10.2871L9.68298 14.2814H7.948L10.5645 6.86963ZM12.0204 7.51796H11.9764L10.7904 11.031H13.1405L12.0204 7.51796Z" fill="white"/>
</svg>
