<svg xmlns="http://www.w3.org/2000/svg" width="24" height="24" viewBox="0 0 24 24" fill="none"><rect width="24" height="24" fill="none"/>
<path fill-rule="evenodd" clip-rule="evenodd" d="M14.3178 7.2501L9.86322 5.70449C10.4318 4.93168 11.1139 4.3411 11.8179 3.97739L15.0906 2.29566L19.5226 3.79589L16.3867 5.38615C15.6366 5.74986 14.9084 6.40924 14.3178 7.2501ZM19.5226 8.63617L16.3867 10.2045C16.1266 10.3257 15.8823 10.4783 15.6593 10.6589C15.7046 10.386 15.7273 10.1364 15.7273 9.88613V9.72732C15.7273 8.90914 15.5224 8.24977 15.1133 7.79531C15.2729 7.5904 15.4317 7.40891 15.5912 7.2501L19.5226 8.63617ZM19.5006 10.5228L16.3633 12.0911C15.9776 12.2726 15.6139 12.3633 15.2948 12.3407C15.6593 11.9089 16.0683 11.5679 16.5001 11.3637L18.7271 10.2498L19.4999 10.5228H19.5006ZM15.7046 14.7045V14.5456C15.7046 14.3634 15.6819 14.1819 15.6593 13.9997L19.4318 15.3638L16.3406 16.9314C15.9088 17.159 15.477 17.227 15.1133 17.1363C15.496 16.3824 15.6984 15.5499 15.7046 14.7045ZM4.59043 19.1591L7.61286 17.6369C7.90925 17.5 8.18149 17.2951 8.45446 17.0456L8.81817 17.1817L8.88623 17.2044L8.90892 17.1824L12.3185 15.4773C12.568 15.3638 12.8183 15.2043 13.0452 15.0228C13.001 15.278 12.9782 15.5366 12.9771 15.7956V15.9544C12.9771 16.7272 13.182 17.3866 13.5684 17.841C13.1586 18.3636 12.6815 18.7727 12.2043 19.0229L8.95502 20.6593L4.59116 19.1591H4.59043ZM8.81817 21.7043L4.38625 20.1821V19.3859L8.81817 20.9315V21.7043ZM4.38625 15.3411V14.5456L8.81817 16.1139V16.886L4.38625 15.3411ZM5.40861 13.977L8.88623 15.1816L8.95429 15.1596L12.3412 13.4545C12.7268 13.273 13.0906 13.1815 13.4096 13.2042C13.0452 13.636 12.6361 13.977 12.2043 14.1819L8.90892 15.8637L4.56774 14.3634L5.40934 13.977H5.40861ZM4.38625 13.3403V12.659L8.81817 14.2046V14.8859L4.38625 13.3418V13.3403ZM7.61359 10.9092C7.93194 10.7497 8.25028 10.6362 8.5452 10.5909L12.7729 12.0684C12.5907 12.1365 12.3865 12.2045 12.2043 12.2953L8.93161 13.9316L4.59116 12.4095L7.61359 10.9092ZM4.40894 8.52274V7.84068L8.84086 9.36287V10.0684L4.40894 8.52274ZM13.0452 11.8862L8.68205 10.364V10.2952L8.81817 10.3406L8.86355 10.3633L12.3178 8.63617C12.7729 8.40931 13.2047 8.34052 13.5911 8.43126C13.1813 9.29481 12.9771 10.1584 12.9771 10.9546V11.1134C12.9771 11.4091 12.9998 11.6586 13.0452 11.8862ZM14.6135 10.2498C14.6135 10.7043 14.5227 11.2041 14.3178 11.682C14.159 11.4091 14.091 11.0453 14.091 10.6362V10.5001C14.091 10.0457 14.1817 9.5451 14.3866 9.06795C14.5454 9.34092 14.6135 9.70464 14.6135 10.1137V10.2498ZM14.091 15.4546V15.3185C14.091 14.8633 14.1817 14.3634 14.3866 13.8863C14.5454 14.1592 14.6135 14.523 14.6135 14.932V15.0682C14.6135 15.5226 14.5227 16.0225 14.3178 16.4996C14.159 16.2274 14.091 15.8629 14.091 15.4546ZM7.61359 6.09089C8.34102 5.72718 9.04577 5.65912 9.59098 5.88598L9.68173 5.93209L13.2047 7.15935C12.846 7.21041 12.4995 7.32568 12.1816 7.49965L8.95429 9.11332L4.59116 7.61308L7.61359 6.09089ZM19.8863 4.84094V3.63636L15.0679 2L11.6818 3.74979C10.9317 4.13619 10.1816 4.79556 9.59098 5.61374C8.97698 5.38688 8.22686 5.47689 7.47747 5.86329L4.11328 7.56844V8.72692L8.40908 10.2272V10.3633C8.11343 10.4094 7.79508 10.5228 7.47747 10.6816L4.11328 12.3868V13.5452L5.04562 13.8636L4.11328 14.2727V15.5226L8.1588 16.9314C7.95389 17.1136 7.72703 17.2497 7.50016 17.3632L4.11328 19.0683V20.341L8.81817 21.9773L8.88623 22L8.93161 21.9773L12.3178 20.2722C13.0679 19.8865 13.818 19.2271 14.4093 18.4089C15.0226 18.6358 15.7727 18.5458 16.5228 18.1594L19.8636 16.4996V15.2497L19.7955 15.2277L15.6139 13.7275V13.7048C15.9221 13.6394 16.22 13.5323 16.4994 13.3864L19.8636 11.6813V10.386L19.8182 10.364L19.0454 10.091L19.8636 9.68122V8.47737H19.8409L15.7727 7.04519C15.9996 6.84028 16.2272 6.68147 16.4774 6.56804L19.8863 4.84094Z" fill="white"/>
</svg>
