<svg xmlns="http://www.w3.org/2000/svg" width="61" height="24" viewBox="0 0 61 24" fill="none"><rect width="61" height="24" fill="none"/>
<path d="M13.1921 19.032H12.1201V6.39995L13.2321 5.69595L13.1921 19.032ZM19.4801 11.312C19.3918 11.2313 19.2885 11.1688 19.1761 11.128C19.0604 11.0886 18.9381 11.0723 18.8161 11.08L16.2241 11.296V11.2H15.1121V19.04H16.2241V12.224H18.6241V19.032H19.7361V12C19.7361 11.879 19.7116 11.7592 19.6641 11.648C19.6145 11.5368 19.5438 11.4363 19.4561 11.352M41.1841 18.24V11.944C41.1841 11.7098 41.0917 11.4852 40.9269 11.3189C40.7621 11.1526 40.5383 11.0581 40.3041 11.056H37.5761C37.4613 11.0578 37.3476 11.0795 37.2401 11.12C37.1362 11.167 37.0414 11.232 36.9601 11.312C36.8759 11.3928 36.8103 11.4911 36.7681 11.6C36.7206 11.7084 36.6961 11.8256 36.6961 11.944V18.2C36.6982 18.4327 36.7916 18.6554 36.9562 18.8199C37.1208 18.9845 37.3434 19.0779 37.5761 19.08H40.3281C40.443 19.0781 40.5566 19.0565 40.6641 19.016C40.7681 18.969 40.8628 18.904 40.9441 18.824C41.0284 18.7432 41.0939 18.6448 41.1361 18.536C41.1842 18.4305 41.2088 18.3159 41.2081 18.2M37.8081 12.176H40.1201V17.96H37.8081V12.176ZM28.7441 11.2H27.6321V19.072H28.7441V11.2ZM28.7441 8.14396H27.6321V9.39196H28.7441V8.14396ZM25.8641 6.39995V19.032H24.7441V18.896L22.6961 19.032H22.6161C22.4596 19.0346 22.3043 19.0046 22.1601 18.944C22.0172 18.8834 21.8869 18.7966 21.7761 18.688C21.6646 18.5764 21.5775 18.4429 21.5201 18.296C21.4569 18.1494 21.4243 17.9916 21.4241 17.832V12.584C21.4238 12.3833 21.4632 12.1845 21.5401 11.9992C21.617 11.8138 21.7298 11.6455 21.8721 11.504C22.0104 11.3618 22.1758 11.2489 22.3586 11.1719C22.5414 11.095 22.7378 11.0555 22.9361 11.056H24.7441V6.39995H25.8641ZM24.7441 17.928V12.176H22.9361C22.886 12.1646 22.8341 12.1646 22.7841 12.176C22.6877 12.2186 22.6107 12.2956 22.5681 12.392C22.5603 12.445 22.5603 12.4989 22.5681 12.552V17.832C22.5766 17.8369 22.5863 17.8395 22.5961 17.8395C22.6059 17.8395 22.6156 17.8369 22.6241 17.832L24.7441 17.928ZM59.0402 17.528C59.0403 17.9317 58.8824 18.3193 58.6002 18.608C58.4599 18.7497 58.2929 18.8622 58.1089 18.9391C57.925 19.016 57.7276 19.0557 57.5282 19.056H54.6002V6.39995H55.7202V11.2L57.7682 11.056C57.9314 11.0479 58.0945 11.0724 58.2482 11.128C58.4024 11.1851 58.5437 11.2721 58.6642 11.384C58.7798 11.4985 58.8721 11.6344 58.9362 11.784C59.0063 11.9313 59.0419 12.0928 59.0402 12.256V17.528ZM57.9282 12.28H55.7202V18.008H57.5362C57.6406 18.0086 57.741 17.9684 57.8162 17.896C57.8913 17.8187 57.9342 17.7157 57.9362 17.608L57.9282 12.28ZM34.9521 11.2V21.12C34.95 21.3527 34.8566 21.5754 34.6921 21.7399C34.5275 21.9045 34.3049 21.9979 34.0721 22H31.4801C31.3649 22 31.2509 21.9772 31.1446 21.9329C31.0382 21.8885 30.9417 21.8236 30.8607 21.7418C30.7796 21.66 30.7155 21.5629 30.6722 21.4562C30.6288 21.3494 30.607 21.2352 30.6081 21.12V19.52L31.7201 20.056V20.856H33.8321V19.04H32.0161C31.8178 19.0404 31.6214 19.001 31.4386 18.924C31.2558 18.8471 31.0904 18.7341 30.9521 18.592C30.6706 18.3035 30.5152 17.915 30.5201 17.512V12.264C30.5183 12.0982 30.5538 11.9341 30.6241 11.784C30.6882 11.6324 30.7836 11.4961 30.9041 11.384C31.0202 11.2705 31.1594 11.1832 31.3121 11.128C31.4653 11.0711 31.6293 11.0492 31.7921 11.064L33.8481 11.2H34.9521ZM33.8321 17.952V12.176H31.7041C31.6952 12.1722 31.6857 12.1703 31.6761 12.1703C31.6665 12.1703 31.657 12.1722 31.6481 12.176V17.464C31.6501 17.5717 31.693 17.6747 31.7681 17.752C31.8433 17.8244 31.9437 17.8646 32.0481 17.864L33.8321 17.952ZM47.6882 17.952H44.1201V6.39995H42.9761V19.04H46.9282L47.6882 17.952ZM52.8482 11.984V19.04H51.7282V18.92L49.3282 19.064H49.2722C49.1573 19.0621 49.0437 19.0405 48.9362 19C48.8322 18.953 48.7374 18.888 48.6562 18.808C48.5742 18.7253 48.509 18.6275 48.4642 18.52C48.4229 18.4127 48.4012 18.2989 48.4002 18.184V15.128C48.4001 14.8952 48.4915 14.6717 48.6546 14.5057C48.8177 14.3396 49.0394 14.2442 49.2722 14.24H51.6722V12.176H49.5522V13.336H48.4402V11.944C48.4401 11.7112 48.5315 11.4877 48.6946 11.3216C48.8577 11.1556 49.0794 11.0602 49.3122 11.056H51.9682C52.1401 11.0586 52.3075 11.1115 52.4496 11.2082C52.5918 11.3048 52.7025 11.4411 52.7682 11.6C52.8157 11.7084 52.8402 11.8256 52.8402 11.944M51.7202 15.36H49.5522V17.928H51.7282L51.7202 15.36Z" fill="#1E1B30"/>
<path d="M3.104 19.2321V4.57604H2V20.3441H7.11202L7.40002 19.2321H3.104Z" fill="#402478"/>
<path d="M4.92002 2.864L6.03202 2V18.264H4.92002V2.864Z" fill="#1E1B30"/>
</svg>
