<svg xmlns="http://www.w3.org/2000/svg" width="198" height="24" viewBox="0 0 198 24" fill="none"><rect width="198" height="24" fill="none"/>
<path d="M107.912 2.0996L111.391 16.9987L122.775 2L113.599 8.53227L107.912 2.0996Z" fill="#FF0016"/>
<path d="M112.71 17.9637H118.497L121.746 5.8342L112.71 17.9637ZM103.766 17.9637H109.778L107.015 5.8342L103.766 17.9637ZM191.304 11.8336C191.083 12.6748 190.439 14.5661 188.424 14.5661C187.227 14.5661 186.712 13.3729 187.137 11.7692C187.684 9.70375 189.042 9.01344 189.885 8.96839C191.155 8.90098 191.799 9.95274 191.304 11.8336ZM192.183 5.43393C191.483 5.43393 189.429 5.68175 187.901 7.6015H187.835L188.327 5.76333H184.16L179.811 22H184.57L186.008 16.6338C186.495 17.7001 187.395 18.2931 188.561 18.2931C189.589 18.2931 194.202 17.9637 196.004 11.7692C196.48 10.1323 196.964 5.43393 192.183 5.43393ZM84.0835 11.8336C83.8622 12.6748 83.2184 14.5661 81.2031 14.5661C80.0065 14.5661 79.4914 13.3729 79.9161 11.7692C80.463 9.70375 81.8213 9.01344 82.6641 8.96839C83.9345 8.90098 84.5779 9.95274 84.0835 11.8336ZM84.962 5.43393C84.2625 5.43393 82.2081 5.68175 80.68 7.6015H80.6141L81.1062 5.76333H76.9397L72.59 22H77.3496L78.7872 16.6338C79.2742 17.7001 80.1741 18.2931 81.3404 18.2931C82.3687 18.2931 86.9808 17.9637 88.7831 11.7692C89.2593 10.1323 89.7435 5.43393 84.962 5.43393ZM127.873 15.6099C126.841 15.6099 126.403 15.2731 126.558 14.6344C126.682 14.2326 126.879 13.9022 127.207 13.6943C127.864 13.2779 129.236 13.2092 130.852 12.6544C130.701 13.5267 130.158 15.6099 127.873 15.6099ZM134.627 5.8379C133.856 5.56466 132.784 5.43393 131.354 5.43393C130.203 5.43393 124.773 5.43393 123.833 9.56591H128.431C128.803 8.8476 129.291 8.3223 130.409 8.3223C131.629 8.3223 131.875 8.93907 131.737 9.38492C131.589 9.864 131.007 10.2197 130.113 10.3703C128.493 10.6435 126.117 10.9678 125.459 11.1443C123.078 11.7833 122.064 13.3831 121.727 14.703C121.204 16.7473 122.454 18.2931 124.959 18.2931C126.914 18.2931 127.884 17.9637 129.764 16.6519L129.652 17.9612H134.75L134.78 17.7595C134.439 17.432 134.39 16.9138 134.551 16.213L136.081 10.5047C136.269 9.76678 136.425 9.12464 136.477 8.45673C136.572 7.2158 136.214 6.39987 134.627 5.8379ZM174.543 8.41153C175.945 8.41153 176.258 9.99136 176.027 10.5716H171.797C172.075 9.39583 172.897 8.41153 174.543 8.41153ZM172.819 15.3394C171.103 15.3394 170.843 13.8144 171.14 12.9879H180.007C180.596 10.774 180.529 8.92718 179.671 7.54943C178.843 6.17383 177.299 5.43393 175.064 5.43393C170.885 5.43393 167.634 8.59476 166.783 11.792C165.38 17.0573 169.327 18.2931 171.773 18.2931C176.332 18.2931 178.445 16.047 179.331 14.2976H174.83C174.637 14.6011 174.013 15.3394 172.819 15.3394ZM154.151 5.76333L153.213 9.26374L157.245 9.26408L154.914 17.9637H159.673L162.004 9.26408L166.044 9.26374L166.982 5.76333H154.151ZM91.7167 5.76333L90.7787 9.26374L94.8102 9.26408L92.4793 17.9637H97.2389L99.5698 9.26408L103.609 9.26374L104.547 5.76333H91.7167ZM42.6049 17.9637H47.3645L49.6956 9.26408H53.3939L51.0629 17.9637H55.8225L59.0915 5.76333H45.874L42.6049 17.9637ZM68.6853 11.8361C68.4156 12.8715 67.5728 15.136 65.5156 15.136C63.4665 15.136 63.8509 12.8715 64.1198 11.8361C64.3787 10.8396 65.1797 8.56905 67.2585 8.56905C69.3323 8.56905 68.945 10.8396 68.6853 11.8361ZM68.0664 5.43398C61.9714 5.43398 60.0843 10.0706 59.6218 11.8361C59.1507 13.6349 58.6632 18.2931 64.7084 18.2931C70.6734 18.2931 72.7131 13.6437 73.1853 11.8361C73.6448 10.0786 74.1359 5.43398 68.0664 5.43398ZM150.468 6.53678C149.439 5.80517 148.075 5.43398 146.507 5.43398C141.884 5.43398 138.99 8.54825 138.08 11.9461C137.536 13.9777 137.783 15.5529 138.804 16.656C139.76 17.6909 141.169 18.2931 143.14 18.2931C145.77 18.2931 149.69 17.089 150.995 13.183H146.319C145.662 14.7425 144.672 15.0206 143.983 15.0206C142.498 15.0206 142.14 13.5688 142.846 11.531C143.628 9.27183 144.461 8.64006 145.666 8.64006C146.906 8.64006 147.061 9.6568 146.9 10.3766H151.676C151.876 8.64006 151.506 7.27522 150.468 6.53678ZM40.8585 6.53678C39.8296 5.80517 38.4654 5.43398 36.8971 5.43398C32.2741 5.43398 29.3805 8.54825 28.4705 11.9461C27.9264 13.9777 28.1729 15.5529 29.1938 16.656C30.1503 17.6909 31.5595 18.2931 33.53 18.2931C36.1603 18.2931 40.0804 17.089 41.3848 13.183H36.709C36.0524 14.7425 35.0619 15.0206 34.3734 15.0206C32.8882 15.0206 32.5305 13.5688 33.2358 11.531C34.0177 9.27183 34.8511 8.64006 36.0557 8.64006C37.2965 8.64006 37.4515 9.6568 37.2899 10.3766H42.0659C42.2667 8.64006 41.8963 7.27522 40.8585 6.53678Z" fill="#1551E5"/>
<path d="M25.0169 5.66417L17.8778 13.7696L2 5.72544L17.0159 8.89806L25.0169 5.66417Z" fill="#FF0016"/>
<path d="M16.722 7.72684C18.1065 7.72684 19.2288 6.60451 19.2288 5.22004C19.2288 3.83561 18.1065 2.71328 16.722 2.71328C15.3375 2.71328 14.2152 3.83561 14.2152 5.22004C14.2152 6.60451 15.3375 7.72684 16.722 7.72684ZM11.8066 12.132L3.44845 21.6238L12.8362 17.8456L30.4163 21.5407L11.8066 12.132Z" fill="#1551E5"/>
</svg>
