<svg xmlns="http://www.w3.org/2000/svg" width="139" height="24" viewBox="0 0 139 24" fill="none"><rect width="139" height="24" fill="none"/>
<path d="M77.1675 22C82.6903 22 87.1675 17.5229 87.1675 12C87.1675 6.47715 82.6903 2 77.1675 2C71.6446 2 67.1675 6.47715 67.1675 12C67.1675 17.5229 71.6446 22 77.1675 22Z" fill="white"/>
<path fill-rule="evenodd" clip-rule="evenodd" d="M87.1675 12C87.1675 17.5229 82.6903 22 77.1675 22C71.6446 22 67.1675 17.5229 67.1675 12C67.1675 6.47715 71.6446 2 77.1675 2C78.2465 2 79.2856 2.17091 80.2593 2.48713L77.9801 9.5H71.3241L70.5108 12H77.1676L75.2176 18H77.9676L79.9176 12H87.1675ZM86.8525 9.5H80.7301L82.6385 3.62798C84.6938 4.97385 86.2235 7.05615 86.8525 9.5Z" fill="url(#paint0_linear_4241_53)"/>
<path d="M12.0015 19.4998V4.43311H8.1848C4.35146 4.43311 2.3348 6.39977 2.3348 9.31644C2.3348 11.6331 3.4348 12.9998 5.41813 14.3998L2.00146 19.4998H4.8348L8.65146 13.7998L7.3348 12.9164C5.71813 11.8331 4.9348 10.9831 4.9348 9.16644C4.9348 7.56644 6.06813 6.48311 8.20146 6.48311H9.36813V19.4998H12.0015ZM59.9348 19.7164C61.1181 19.7164 61.9681 19.4998 62.6015 19.0498V16.9498C61.9515 17.3998 61.1681 17.6831 60.0848 17.6831C58.2348 17.6831 57.4848 16.2498 57.4848 13.9998C57.4848 11.6331 58.4181 10.4164 60.1015 10.4164C61.1015 10.4164 62.0681 10.7664 62.5848 11.0831V8.89977C62.0515 8.59977 61.0848 8.38311 59.8181 8.38311C56.5181 8.38311 54.8181 10.7498 54.8181 14.0664C54.8181 17.6998 56.4848 19.7164 59.9348 19.7164ZM43.8181 18.7664V16.6664C43.0181 17.1998 41.6681 17.6831 40.4181 17.6831C38.5348 17.6831 37.8181 16.7998 37.7181 14.9831H43.9348V13.6164C43.9348 9.81644 42.2681 8.39977 39.6848 8.39977C36.5348 8.38311 35.0348 10.7831 35.0348 14.0831C35.0348 17.8831 36.9015 19.7164 40.1848 19.7164C41.8348 19.7164 43.0515 19.2831 43.8181 18.7664ZM20.2015 8.59977V12.9164H16.7515V8.59977H14.1681V19.4998H16.7515V14.9498H20.2015V19.4998H22.7848V8.59977H20.2015ZM34.4015 17.4664H33.2515V8.59977H25.7348V9.53311C25.7348 12.1998 25.5681 15.6498 24.6515 17.4664H23.8515V21.9998H26.2348V19.4998H32.0181V21.9831H34.4015V17.4664ZM52.0515 19.4998H54.9681L50.8348 13.6331L54.4681 8.59977H51.8681L48.2348 13.6331V8.59977H45.6515V19.4998H48.2348V14.1498L52.0515 19.4998ZM39.6348 10.4164C40.9181 10.4164 41.3015 11.4831 41.3015 12.8498V13.0664H37.7015C37.7681 11.3331 38.4015 10.4164 39.6348 10.4164ZM30.6848 17.4664H27.0348C27.7515 15.8164 27.9515 12.8498 27.9515 10.9664V10.6498H30.6848V17.4664Z" fill="black"/>
<path d="M102.091 4.44141H92.1681V19.4998H94.7898V6.47807H99.4698V19.4998H102.091V4.44141Z" fill="url(#paint1_linear_4241_53)"/>
<path d="M103.248 17.2681L103.4 17.3764C103.501 17.4342 103.646 17.4631 103.833 17.4631C104.252 17.4631 104.527 17.2464 104.657 16.8131C104.787 16.3797 104.873 15.5853 104.917 14.4297L105.133 8.60139H112.522V19.4998H109.943V10.6381H107.322L107.17 14.5381C107.127 15.7369 107.018 16.7192 106.845 17.4847C106.672 18.2503 106.383 18.8136 105.978 19.1748C105.574 19.5358 105.003 19.7164 104.267 19.7164C103.963 19.7164 103.718 19.6803 103.53 19.6081L103.248 19.4998V17.2681Z" fill="url(#paint2_linear_4241_53)"/>
<path d="M134.503 19.7164C132.784 19.7164 131.499 19.2324 130.646 18.2647C129.809 17.2825 129.39 15.8814 129.39 14.0614C129.39 12.9492 129.578 11.967 129.953 11.1147C130.329 10.2625 130.885 9.59806 131.621 9.12139C132.373 8.63027 133.297 8.38472 134.395 8.38472C135.03 8.38472 135.579 8.43527 136.041 8.53639C136.518 8.62306 136.894 8.74584 137.168 8.90472V11.0931C136.908 10.9342 136.554 10.7825 136.106 10.6381C135.659 10.4936 135.182 10.4214 134.676 10.4214C133.839 10.4214 133.189 10.7247 132.726 11.3314C132.279 11.9236 132.055 12.8119 132.055 13.9964C132.055 15.1231 132.257 16.0186 132.661 16.6831C133.066 17.3475 133.73 17.6797 134.655 17.6797C135.204 17.6797 135.68 17.6147 136.085 17.4847C136.489 17.3547 136.85 17.1742 137.168 16.9431V19.0448C136.547 19.4924 135.659 19.7164 134.503 19.7164Z" fill="url(#paint3_linear_4241_53)"/>
<path fill-rule="evenodd" clip-rule="evenodd" d="M126.736 9.85806C125.87 8.87584 124.743 8.38472 123.356 8.38472C122.129 8.38472 121.096 8.77472 120.258 9.55472C119.42 10.3203 118.908 11.4397 118.72 12.9131H117.246V8.60139H114.668V19.4998H117.246V14.9497H118.698C118.843 16.4953 119.334 17.6797 120.171 18.5031C121.024 19.3119 122.085 19.7164 123.356 19.7164C124.743 19.7164 125.87 19.2324 126.736 18.2647C127.618 17.2825 128.058 15.8742 128.058 14.0397C128.058 12.2197 127.618 10.8258 126.736 9.85806ZM124.873 16.8131C124.541 17.3908 124.035 17.6797 123.356 17.6797C122.678 17.6797 122.165 17.3908 121.818 16.8131C121.486 16.2353 121.32 15.3181 121.32 14.0614C121.32 12.7903 121.486 11.8658 121.818 11.2881C122.165 10.7103 122.678 10.4214 123.356 10.4214C124.035 10.4214 124.541 10.7103 124.873 11.2881C125.22 11.8658 125.393 12.7831 125.393 14.0397C125.393 15.3108 125.22 16.2353 124.873 16.8131Z" fill="url(#paint4_linear_4241_53)"/>
<defs>
<linearGradient id="paint0_linear_4241_53" x1="67.1675" y1="10.6667" x2="87.1675" y2="10.6667" gradientUnits="userSpaceOnUse">
<stop stop-color="#FF5C4D"/>
<stop offset="0.4" stop-color="#EB469F"/>
<stop offset="1" stop-color="#8341EF"/>
</linearGradient>
<linearGradient id="paint1_linear_4241_53" x1="2.00146" y1="12.1548" x2="614.951" y2="12.1548" gradientUnits="userSpaceOnUse">
<stop stop-color="#8341EF"/>
<stop offset="1" stop-color="#3F68F9"/>
</linearGradient>
<linearGradient id="paint2_linear_4241_53" x1="-159.504" y1="8.3197" x2="496.409" y2="8.3197" gradientUnits="userSpaceOnUse">
<stop stop-color="#8341EF"/>
<stop offset="1" stop-color="#3F68F9"/>
</linearGradient>
<linearGradient id="paint3_linear_4241_53" x1="-644.812" y1="8.58127" x2="137.168" y2="8.58127" gradientUnits="userSpaceOnUse">
<stop stop-color="#8341EF"/>
<stop offset="1" stop-color="#3F68F9"/>
</linearGradient>
<linearGradient id="paint4_linear_4241_53" x1="92.1681" y1="11.0606" x2="137.168" y2="11.0606" gradientUnits="userSpaceOnUse">
<stop stop-color="#8341EF"/>
<stop offset="1" stop-color="#3F68F9"/>
</linearGradient>
</defs>
</svg>
