<svg xmlns="http://www.w3.org/2000/svg" width="83" height="24" viewBox="0 0 83 24" fill="none"><rect width="83" height="24" fill="none"/>
<path fill-rule="evenodd" clip-rule="evenodd" d="M4.75585 21.9925H13.8677L4.22727 19.4167C3.72863 19.2831 3.26793 19.036 2.88144 18.6949C2.49495 18.3538 2.19322 17.9279 2 17.4509V19.2451C2.00212 19.9751 2.29415 20.6746 2.8123 21.1908C3.33046 21.707 4.03261 21.9979 4.76539 22L4.75585 21.9925ZM4.7428 4.63074C4.01472 4.63706 3.31848 4.92901 2.80504 5.4433C2.2916 5.95759 2.00235 6.65277 2 7.3781V14.8291L4.7428 4.63074Z" fill="#333333"/>
<path fill-rule="evenodd" clip-rule="evenodd" d="M20.0049 17.1979L22.3366 8.53175C22.5237 7.82696 22.4237 7.07703 22.0584 6.44536C21.693 5.81368 21.0918 5.35143 20.3859 5.15931L18.629 4.69025C19.0559 4.9979 19.4037 5.40179 19.6439 5.86893C19.8842 6.33607 20.0101 6.85321 20.0114 7.3781V17.1904L20.0049 17.1979ZM16.2295 4.05767L8.87557 2.09191C8.16808 1.90546 7.41529 2.00507 6.7812 2.36905C6.14711 2.73303 5.68309 3.33189 5.49024 4.03517L5.48271 4.05017H16.222L16.2295 4.05767Z" fill="#0DB14B"/>
<path d="M48.1843 18.3272C50.4337 18.3272 51.7714 17.6271 52.9671 16.3544L52.0179 15.3418C51.8744 15.2056 51.7104 15.0926 51.532 15.0067C51.3928 14.9523 51.2413 14.9367 51.0938 14.9616C50.9464 14.9865 50.8086 15.0511 50.6952 15.1482C50.6279 15.1982 50.5607 15.2453 50.4944 15.2898C49.845 15.751 49.0635 15.9913 48.2661 15.9748C46.2632 15.9748 44.8808 14.3146 44.8808 12.3194C44.8808 10.2941 46.3009 8.6639 48.2661 8.6639C49.0032 8.64282 49.7297 8.84225 50.3518 9.23647C50.4788 9.31848 50.5983 9.40049 50.7253 9.49701C50.8224 9.55637 50.9325 9.59143 51.0461 9.59918C51.1597 9.60693 51.2736 9.58714 51.3779 9.54151C51.8867 9.22301 52.3324 8.81419 52.6931 8.33535L52.806 8.18534C52.2334 7.56385 51.5325 7.0732 50.7516 6.74708C49.9706 6.42097 49.128 6.26711 48.2817 6.29609C40.1878 6.29609 40.2777 18.3197 48.1843 18.3197V18.3272ZM59.29 18.3272C60.4782 18.2983 61.6314 17.921 62.6054 17.2423C63.5793 16.5637 64.3306 15.614 64.7653 14.512C65.1999 13.41 65.2986 12.2048 65.049 11.0472C64.7993 9.88961 64.2125 8.83111 63.3618 8.0042C62.5112 7.17729 61.4346 6.61873 60.2669 6.39845C59.0991 6.17816 57.892 6.30594 56.7968 6.76578C55.7016 7.22562 54.7669 7.9971 54.1097 8.98362C53.4525 9.97014 53.102 11.1279 53.1022 12.3119C53.1016 13.1146 53.2625 13.9093 53.5751 14.6491C53.8878 15.3889 54.346 16.0589 54.9227 16.6195C55.4994 17.1801 56.1829 17.62 56.933 17.9133C57.6831 18.2066 58.4845 18.3473 59.29 18.3272ZM59.3201 15.9668C58.8448 15.9659 58.3745 15.8696 57.9372 15.6839C57.4999 15.4981 57.1046 15.2267 56.7748 14.8856C56.445 14.5446 56.1874 14.1409 56.0174 13.6987C55.8474 13.2564 55.7685 12.7846 55.7852 12.3114C55.7626 11.8391 55.8366 11.3673 56.0027 10.9244C56.1687 10.4815 56.4234 10.0769 56.7512 9.73501C57.079 9.39316 57.4731 9.12123 57.9096 8.93573C58.3462 8.75023 58.816 8.65502 59.2905 8.6559C59.7658 8.65714 60.2359 8.75358 60.673 8.93948C61.1101 9.12538 61.5051 9.39695 61.8347 9.73802C62.1643 10.0791 62.4217 10.4827 62.5916 10.9249C62.7614 11.3671 62.8403 11.8387 62.8234 12.3119C62.846 12.7839 62.7721 13.2556 62.6062 13.6984C62.4402 14.1411 62.1858 14.5457 61.8582 14.8875C61.5306 15.2293 61.1367 15.5013 60.7004 15.6869C60.2641 15.8725 59.7945 15.9674 59.3201 15.9668ZM73.6767 13.7111C73.7811 13.9421 73.886 14.1801 73.9829 14.4256C74.0803 14.1726 74.1837 13.9341 74.2891 13.6961C74.3945 13.458 74.5059 13.2345 74.6254 13.011L77.8325 6.72815C77.8772 6.63599 77.935 6.55076 78.0042 6.47511C78.0613 6.41728 78.1296 6.37167 78.205 6.3411C78.286 6.31003 78.3722 6.29492 78.459 6.29659H81V18.3197H78.4515V11.5688C78.4515 11.2187 78.4665 10.8467 78.5017 10.4446L75.1982 16.8325C75.1061 17.0213 74.9606 17.1791 74.7795 17.2865C74.5986 17.3929 74.3916 17.4471 74.1816 17.443H73.7856C73.5757 17.446 73.369 17.3919 73.1877 17.2865C73.0084 17.177 72.8634 17.0197 72.7691 16.8325L69.4465 10.4366C69.4691 10.6367 69.4837 10.8312 69.4967 11.0322C69.5098 11.2332 69.5118 11.4118 69.5118 11.5758V18.3267H66.9632V6.30359H69.5042C69.591 6.30192 69.6773 6.31703 69.7582 6.3481C69.8336 6.37867 69.902 6.42428 69.959 6.48211C70.0306 6.55583 70.0887 6.64147 70.1307 6.73515L73.3434 13.0485C73.4553 13.2645 73.5677 13.4875 73.6721 13.7261L73.6767 13.7111ZM31.4213 18.3272H28.6037V6.30359H31.4213V18.3272ZM42.1982 6.30359V8.51488H38.8049V18.3272H36.0023V8.51488H32.6095V6.30359H42.2058H42.1982Z" fill="#333333"/>
<path fill-rule="evenodd" clip-rule="evenodd" d="M16.6632 21.9925C16.9875 21.994 17.3093 21.936 17.6125 21.8215C18.0209 21.6669 18.3887 21.4217 18.6878 21.1044C18.9869 20.7871 19.2095 20.4061 19.3388 19.9902C19.4026 19.7474 19.4303 19.4965 19.4211 19.2456V7.3856C19.419 6.6557 19.127 5.9563 18.609 5.44013C18.0909 4.92397 17.3889 4.63299 16.6562 4.63074H5.33312L2.41112 15.4932C2.22395 16.1979 2.32394 16.9479 2.68931 17.5796C3.05469 18.2112 3.65584 18.6735 4.3618 18.8656L15.8636 21.933C16.1236 21.9901 16.3905 22.0101 16.6562 21.9925H16.6632Z" fill="#0DB14B"/>
</svg>
