<svg xmlns="http://www.w3.org/2000/svg" width="71" height="24" viewBox="0 0 71 24" fill="none"><rect width="71" height="24" fill="none"/>
<path fill-rule="evenodd" clip-rule="evenodd" d="M24.4225 14.1844L21.9356 14.195V12.0013H24.9283V10.4142H21.9356V8.30424L24.0746 8.29367V9.11244H25.7363V7.76355C25.7363 7.06918 25.3844 6.7163 24.688 6.7163H19.3926V8.30506H20.1778V14.7251C20.1778 15.4195 20.5346 15.7716 21.2375 15.7716H25.0146C25.7095 15.7716 26.063 15.4195 26.063 14.7251V13.3779H24.4119L24.4225 14.1844ZM33.2863 11.5944C33.2863 9.86007 32.4913 8.98194 30.9225 8.98194C30.0118 8.98194 29.3235 9.35677 28.869 9.81941C28.7989 9.49093 28.5602 9.12667 27.8459 9.12667H26.4473V10.6772L27.2056 10.6398C27.2056 10.6398 27.2081 10.6471 27.2081 10.6658V15.772H28.9301V12.6416C28.9301 12.3261 28.9602 12.0944 29.0286 11.8985C29.2551 11.1122 29.9092 10.6048 30.6936 10.6048C31.3436 10.6048 31.5635 10.9211 31.5635 11.8594V14.7255C31.5635 15.4191 31.9154 15.772 32.6119 15.772H34.0463V14.2206L33.2863 14.2312V11.5944ZM40.7119 10.677H40.2686C40.1627 10.677 40.1578 10.6925 40.1448 10.7299L38.2021 15.7718H36.472L34.5162 10.7299C34.5056 10.6982 34.4967 10.6901 34.4967 10.6884C34.4967 10.6884 34.4763 10.677 34.4054 10.677H34.0087V9.12651H34.8877C35.545 9.12651 35.8553 9.33384 36.0753 9.91926L37.3615 13.3439L38.6346 9.92007C38.8546 9.33384 39.1657 9.12651 39.8231 9.12651L41.6772 9.12618C42.284 9.12618 42.5813 9.33189 42.8143 9.91324L44.1559 13.2582L45.3997 9.91975C45.6009 9.34327 45.9104 9.12618 46.5384 9.12618H47.5159V10.6775H47.0817C47.006 10.6775 46.9881 10.6873 46.9881 10.6873C46.9881 10.6873 46.9734 10.6995 46.9498 10.7523L44.5517 16.6951C44.1314 17.7164 43.3169 18.3018 42.3166 18.3018C41.2984 18.3018 40.6981 17.6334 40.6728 17.605L40.5425 17.457L41.4328 15.9016L41.6112 16.4471C41.6877 16.526 41.9468 16.7374 42.2563 16.7374C42.7076 16.7374 42.9633 16.2927 43.0749 16.0276L43.3071 15.4731L41.2658 10.7523C41.2422 10.7003 41.2283 10.6849 41.2243 10.6832C41.2243 10.6832 41.2047 10.6775 41.1461 10.6775L40.7119 10.677ZM51.4095 10.5565C52.2762 10.5565 52.8586 11.3217 52.8586 12.4616C52.8586 13.5991 52.2615 14.365 51.3728 14.365C50.3766 14.365 49.9237 13.3844 49.9237 12.4722C49.9237 11.2737 50.4793 10.5565 51.4095 10.5565ZM51.6384 8.98162C50.854 8.98162 50.3107 9.25562 49.9612 9.53614V7.76281C49.9612 7.06926 49.6036 6.71638 48.8998 6.71638H47.4776V8.26855L48.2352 8.23115C48.2352 8.23115 48.2368 8.23846 48.2368 8.25798V15.7716H49.9001V15.3472C50.2488 15.6342 50.7831 15.9164 51.5415 15.9164C53.3457 15.9164 54.6058 14.4902 54.6058 12.4486C54.6058 10.3752 53.4133 8.98162 51.6384 8.98162ZM58.7166 14.3528C57.6773 14.3528 56.8937 13.5292 56.8937 12.4372C56.8937 11.3574 57.6773 10.5444 58.7166 10.5444C59.756 10.5444 60.5396 11.3574 60.5396 12.4372C60.5396 13.5292 59.756 14.3528 58.7166 14.3528ZM58.7166 8.98243C56.6876 8.98243 55.1578 10.4671 55.1578 12.4372C55.1578 14.4203 56.6876 15.9164 58.7166 15.9164C60.7188 15.9164 62.2869 14.3878 62.2869 12.4372C62.2869 10.4996 60.7188 8.98243 58.7166 8.98243ZM66.6458 12.3661L67.708 10.7814C67.7658 10.7018 67.7935 10.6774 67.9906 10.6774H68.617V9.12683H67.5931C66.9252 9.12683 66.6556 9.27888 66.2841 9.8708L65.5722 11.0132L64.8595 9.86999C64.488 9.27888 64.2192 9.12683 63.5513 9.12683H62.5258V10.6774H63.153C63.3477 10.6774 63.3713 10.6993 63.4299 10.7847L64.4978 12.3669L62.2529 15.7713H64.2453L65.5722 13.7093L66.8983 15.7713H68.8899L66.6458 12.3661Z" fill="#26262A"/>
<path fill-rule="evenodd" clip-rule="evenodd" d="M9.97622 19.078L9.1916 21.1628C8.94073 21.8293 8.1941 22.1674 7.52396 21.9179C7.17497 21.7879 6.89912 21.5148 6.76688 21.1682L3.51488 12.646C3.29271 12.0638 3.58713 11.4127 4.1725 11.1917C4.30101 11.1432 4.43732 11.1183 4.57478 11.1183H11.3371C11.9632 11.1183 12.4707 11.6231 12.4707 12.2459C12.4707 12.3809 12.4464 12.5148 12.3988 12.6412C12.233 13.0818 11.8115 13.3735 11.3407 13.3735H7.18829C6.78579 13.3735 6.45949 13.6981 6.45949 14.0984C6.45949 14.4988 6.78579 14.8233 7.18829 14.8233H10.2076C10.7414 14.8233 11.1741 15.256 11.1741 15.7898C11.1741 16.3236 10.7414 16.7564 10.2076 16.7564H8.16001C7.75751 16.7564 7.43122 17.0809 7.43122 17.4813C7.43122 17.8816 7.75751 18.2062 8.16001 18.2062H9.37281C9.72889 18.2062 10.0175 18.4948 10.0175 18.8509C10.0175 18.9285 10.0035 19.0054 9.97622 19.078Z" fill="#FFE53B"/>
<path fill-rule="evenodd" clip-rule="evenodd" d="M7.30608 7.11359C7.30608 8.57199 6.11794 9.75455 4.65343 9.75455C3.18814 9.75455 2 8.57199 2 7.11359C2 5.65597 3.18814 4.47341 4.65343 4.47341C6.11794 4.47341 7.30608 5.65597 7.30608 7.11359Z" fill="#40BDFF"/>
<path fill-rule="evenodd" clip-rule="evenodd" d="M11.9629 5.68324C11.9629 7.71764 10.3053 9.36569 8.26098 9.36569C6.21585 9.36569 4.55832 7.71764 4.55832 5.68324C4.55832 3.64884 6.21585 2 8.26098 2C10.3053 2 11.9629 3.64884 11.9629 5.68324Z" fill="#FF5E86"/>
<path fill-rule="evenodd" clip-rule="evenodd" d="M13.7819 7.51083C13.7819 8.74981 12.7725 9.75447 11.5276 9.75447C10.2828 9.75447 9.27261 8.74981 9.27261 7.51083C9.27261 6.27107 10.2828 5.26719 11.5276 5.26719C12.7725 5.26719 13.7819 6.27107 13.7819 7.51083Z" fill="#FF92BB"/>
</svg>
