<svg xmlns="http://www.w3.org/2000/svg" width="24" height="24" viewBox="0 0 24 24" fill="none"><rect width="24" height="24" fill="none"/>
<path d="M20.5313 16.4642C20.5139 16.521 20.4714 16.5593 20.4031 16.5793C20.3347 16.5993 20.2638 16.6134 20.1898 16.6219L19.853 16.6644C19.7879 16.6728 19.7206 16.6844 19.6529 16.6985C19.5846 16.7127 19.5157 16.7332 19.4458 16.76C19.376 16.7868 19.3072 16.8231 19.2389 16.8688C19.1706 16.914 19.1054 16.9712 19.043 17.039C18.9689 17.1215 18.9058 17.2192 18.8533 17.3327C18.8007 17.4461 18.7587 17.5664 18.7277 17.6925C18.6962 17.8191 18.6736 17.9479 18.6594 18.0803C18.6452 18.2121 18.6384 18.3392 18.6384 18.4617C18.6384 18.541 18.6425 18.6235 18.651 18.7086C18.6594 18.7937 18.6752 18.8783 18.6978 18.9618C18.7203 19.0453 18.754 19.1262 18.7981 19.2045C18.8422 19.2828 18.8995 19.3542 18.9709 19.4194C19.0361 19.4788 19.1286 19.5371 19.2478 19.5938C19.3671 19.6506 19.521 19.6789 19.7086 19.6789C19.8309 19.6789 19.9571 19.6632 20.0879 19.6322C20.2187 19.6006 20.3374 19.545 20.444 19.464C20.5507 19.3831 20.6389 19.2739 20.7083 19.1362C20.7782 18.9986 20.8129 18.8247 20.8129 18.6145C20.8129 18.427 20.7839 18.2683 20.7257 18.1375C20.6673 18.0067 20.5885 17.8974 20.4892 17.8097C20.4236 17.7503 20.3359 17.6946 20.2249 17.6437C20.1141 17.5927 19.9749 17.567 19.8073 17.567C19.6397 17.567 19.479 17.6069 19.3345 17.6862C19.1895 17.7656 19.0702 17.878 18.9762 18.0225H18.9678C18.9762 17.8522 19.0061 17.7146 19.0571 17.6095C19.1086 17.5045 19.1716 17.4215 19.2473 17.3605C19.3224 17.2996 19.4064 17.2549 19.4989 17.2265C19.5913 17.1982 19.6833 17.1772 19.7742 17.1624L20.1115 17.1115C20.1882 17.0999 20.2628 17.0815 20.3353 17.0563C20.4078 17.0306 20.4735 16.9938 20.5318 16.9455C20.5901 16.8971 20.6406 16.8341 20.6831 16.7558C20.7257 16.6775 20.7556 16.5803 20.7729 16.4642H20.5313ZM19.9759 17.8727C20.0412 17.9242 20.0926 17.9899 20.1293 18.0708C20.1662 18.1517 20.1908 18.2426 20.204 18.3435C20.2166 18.4443 20.2229 18.5431 20.2229 18.6398C20.2229 18.6912 20.2192 18.7622 20.2124 18.8531C20.205 18.9439 20.1855 19.0338 20.1525 19.1215C20.1199 19.2098 20.0695 19.2865 20.0012 19.3516C19.9329 19.4168 19.8394 19.4493 19.7201 19.4493C19.6008 19.4493 19.5126 19.4173 19.4475 19.3537C19.3823 19.2896 19.3329 19.2129 19.3003 19.1236C19.2678 19.0343 19.2473 18.9424 19.2389 18.8483C19.2305 18.7548 19.2262 18.6781 19.2262 18.6182C19.2262 18.4648 19.2384 18.3435 19.2626 18.2541C19.2866 18.1648 19.313 18.0929 19.3413 18.0387C19.3754 17.9736 19.4228 17.9163 19.4842 17.868C19.5451 17.8197 19.6255 17.7955 19.7248 17.7955C19.8241 17.7955 19.9108 17.8218 19.9759 17.8727ZM16.3106 17.5659V17.7577L16.5659 17.7918L17.3223 19.6926C17.2767 19.7997 17.2288 19.8975 17.1774 19.9852C17.1259 20.0729 17.0638 20.1475 16.9899 20.2095L16.6189 19.9563C16.5732 19.9789 16.5249 20.0136 16.4739 20.0603C16.4224 20.1071 16.3972 20.1717 16.3972 20.2537C16.3972 20.3104 16.4098 20.3582 16.4356 20.3981C16.4613 20.4375 16.4923 20.4701 16.529 20.4959C16.5659 20.5211 16.6053 20.5405 16.6462 20.5531C16.6877 20.5657 16.7234 20.572 16.755 20.572C16.8117 20.572 16.8801 20.5573 16.9599 20.5274C17.0391 20.4974 17.1259 20.4333 17.22 20.334C17.2851 20.2605 17.3476 20.1759 17.4075 20.0808C17.4673 19.9857 17.5167 19.8891 17.5567 19.7898L17.5993 19.6921L18.3799 17.7913L18.61 17.7572V17.5654H17.7905V17.7572L18.0164 17.7782L18.0547 17.8423L17.5888 19.0443L17.1269 17.8381L17.1695 17.7782L17.387 17.7572V17.5654L16.3106 17.5659ZM14.3541 17.7577L14.6267 17.7792L14.6908 17.8386C14.685 17.972 14.6751 18.1091 14.6609 18.2494C14.6467 18.3897 14.6262 18.5273 14.5989 18.6623C14.5722 18.7974 14.539 18.9229 14.5011 19.039C14.4629 19.1557 14.4166 19.2534 14.3625 19.3327L14.1113 19.1136C14.0546 19.1194 14.0089 19.132 13.9748 19.152C13.9406 19.1719 13.9149 19.1956 13.8981 19.224C13.8812 19.2523 13.8697 19.2823 13.8639 19.3133C13.8582 19.3443 13.8555 19.3726 13.8555 19.3984C13.8555 19.4803 13.8781 19.5476 13.9238 19.6001C13.9695 19.6527 14.0446 19.6789 14.1497 19.6789C14.2632 19.6789 14.3625 19.6469 14.4481 19.5833C14.5333 19.5192 14.6057 19.4351 14.6656 19.3301C14.725 19.225 14.7733 19.1058 14.8106 18.9723C14.8474 18.8389 14.8774 18.7028 14.8999 18.5636C14.9226 18.4244 14.9388 18.2888 14.9488 18.1569C14.9588 18.0251 14.9667 17.9079 14.9725 17.8055H15.397V19.3684L15.3371 19.4278L15.0985 19.4488V19.6406H16.206V19.4488L15.98 19.4278L15.9207 19.3679V17.8381L15.98 17.7782L16.206 17.7572V17.5654H14.3541V17.7577ZM12.7223 19.6411V19.4493L12.5054 19.4278L12.4455 19.3684V18.6786H12.5695C12.6404 18.6786 12.7013 18.6986 12.7507 18.7385C12.8006 18.7785 12.8353 18.8236 12.8552 18.8746L13.1026 19.5045V19.6406H13.9249V19.4488L13.6948 19.4189L13.6264 19.3679L13.3691 18.8777C13.3317 18.8095 13.2781 18.7417 13.2082 18.6734C13.1383 18.6051 13.0532 18.5641 12.9529 18.5499V18.5415C13.0155 18.5189 13.0617 18.4874 13.0916 18.448C13.1216 18.4081 13.1452 18.3697 13.162 18.333L13.2902 18.0435C13.3012 18.0209 13.3112 18.0004 13.3202 17.982C13.3286 17.9636 13.3401 17.9458 13.3543 17.9289L13.6233 18.107C13.7085 18.0955 13.7699 18.0624 13.8066 18.0067C13.8435 17.951 13.8618 17.8911 13.8618 17.8254C13.8618 17.7598 13.8497 17.7083 13.8256 17.6699C13.8014 17.6316 13.7714 17.6016 13.7362 17.5806C13.7005 17.5596 13.6638 17.546 13.6254 17.5402C13.587 17.5344 13.555 17.5318 13.5293 17.5318C13.4242 17.5318 13.3359 17.568 13.265 17.6405C13.1941 17.713 13.1316 17.8086 13.0774 17.9279L12.9404 18.2305C12.9146 18.2904 12.8825 18.3398 12.8442 18.3797C12.8053 18.4196 12.7522 18.4391 12.6834 18.4391H12.4438V17.8386L12.5037 17.7787L12.7207 17.7577V17.5659H11.6348V17.7577L11.8608 17.7787L11.9206 17.8386V19.3684L11.8608 19.4283L11.6348 19.4493V19.6411H12.7223ZM10.179 17.5764C10.044 17.6174 9.92532 17.6815 9.82287 17.7682C9.72042 17.8549 9.63899 17.9668 9.57756 18.1044C9.51654 18.2421 9.48613 18.4091 9.48613 18.6051C9.48613 18.79 9.5145 18.9497 9.57123 19.0842C9.62797 19.2192 9.70572 19.3306 9.80338 19.4189C9.90165 19.5066 10.0156 19.5723 10.1464 19.6148C10.2773 19.6574 10.4166 19.6789 10.5646 19.6789C10.6813 19.6789 10.8042 19.6626 10.9335 19.6301C11.0627 19.5975 11.1815 19.5408 11.2896 19.4598C11.3974 19.3789 11.4862 19.2686 11.556 19.1294C11.6259 18.9902 11.6606 18.8126 11.6606 18.5967C11.6606 18.4858 11.6501 18.3871 11.6285 18.3009C11.607 18.2142 11.5802 18.137 11.5476 18.0687C11.515 18.0004 11.4777 17.9416 11.4368 17.8916C11.3953 17.8417 11.3564 17.8002 11.3196 17.7661C11.2371 17.692 11.1363 17.6321 11.017 17.5848C10.8977 17.5381 10.7595 17.5144 10.6035 17.5144C10.4559 17.5144 10.3135 17.5349 10.179 17.5764ZM10.8274 17.8444C10.894 17.9111 10.945 17.9915 10.9808 18.0855C11.016 18.1795 11.0401 18.2746 11.0532 18.3713C11.0659 18.468 11.0722 18.5462 11.0722 18.6056C11.0722 18.6765 11.0648 18.7606 11.0507 18.8573C11.0365 18.9539 11.0107 19.0464 10.9739 19.1341C10.9372 19.2224 10.8856 19.297 10.8205 19.3579C10.7553 19.4189 10.6714 19.4493 10.5694 19.4493C10.4675 19.4493 10.3887 19.4189 10.3246 19.3579C10.2604 19.297 10.21 19.2224 10.1733 19.1341C10.1364 19.0459 10.1107 18.9529 10.0965 18.8546C10.0824 18.7569 10.0755 18.6692 10.0755 18.5925C10.0755 18.4391 10.0877 18.3156 10.1118 18.2216C10.1359 18.1275 10.1623 18.0524 10.1906 17.9957C10.2022 17.9699 10.2185 17.9431 10.2395 17.9148C10.2604 17.8864 10.2862 17.8591 10.3161 17.8339C10.3461 17.8081 10.3814 17.7871 10.4228 17.7698C10.4638 17.7529 10.5127 17.744 10.5694 17.744C10.6744 17.744 10.7607 17.7776 10.8274 17.8444ZM7.01955 20.5694H8.1611V20.3776H7.89691L7.83283 20.3009V19.619C7.90109 19.6274 7.9662 19.6337 8.02875 19.6379C8.0913 19.6421 8.14375 19.6442 8.1863 19.6442C8.37131 19.6442 8.53417 19.6143 8.67438 19.5549C8.8152 19.4956 8.93132 19.4157 9.02224 19.3164C9.09316 19.2429 9.15877 19.1409 9.21867 19.0117C9.27857 18.8825 9.30796 18.7201 9.30796 18.5236C9.30796 18.3272 9.2802 18.1738 9.225 18.0445C9.16928 17.9153 9.10051 17.8118 9.01795 17.7335C8.9355 17.6552 8.84826 17.5995 8.75581 17.5649C8.66336 17.5307 8.58192 17.5139 8.51049 17.5139C8.39968 17.5139 8.29141 17.536 8.1863 17.5806C8.0813 17.6253 7.96303 17.6931 7.83221 17.7845V17.5276H7.64048L7.01852 17.7262V17.8974H7.30792V20.2915L7.24863 20.3556L7.01852 20.3771V20.5689L7.01955 20.5694ZM7.83334 17.9636C7.92416 17.9247 7.99885 17.9022 8.05712 17.8953C8.11538 17.8885 8.1559 17.8848 8.17845 17.8848C8.27773 17.8848 8.35968 17.9032 8.42386 17.94C8.48794 17.9767 8.53835 18.0151 8.57509 18.055C8.60927 18.095 8.64499 18.1569 8.68172 18.2421C8.71856 18.3272 8.73693 18.4459 8.73693 18.5993C8.73693 18.8515 8.67703 19.0506 8.55774 19.1966C8.43855 19.3427 8.28355 19.4157 8.09283 19.4157C8.02773 19.4157 7.97569 19.4131 7.93732 19.4073C7.89895 19.4015 7.86436 19.3947 7.83283 19.3863L7.83334 17.9636ZM5.62676 18.4396V18.6792H6.43219V18.7091C6.43219 18.8567 6.41586 18.9781 6.38331 19.0732C6.35075 19.1683 6.30657 19.2434 6.25147 19.2986C6.19626 19.3537 6.13381 19.3931 6.06442 19.4157C5.99503 19.4383 5.92523 19.4499 5.85432 19.4499C5.82329 19.4499 5.77707 19.4457 5.71615 19.4373C5.65513 19.4289 5.5837 19.4047 5.50176 19.3648L5.4592 19.3175L5.41145 18.9497H5.15134V19.5812C5.29318 19.6211 5.42614 19.6474 5.54961 19.66C5.67298 19.6726 5.77023 19.6789 5.84115 19.6789C5.99452 19.6789 6.14269 19.6579 6.28616 19.6148C6.42953 19.5723 6.55515 19.5061 6.6628 19.4168C6.77107 19.3275 6.85719 19.215 6.92291 19.0805C6.98801 18.9455 7.02108 18.7848 7.02108 18.5972C7.02108 18.3702 6.97903 18.1864 6.89556 18.0456C6.81148 17.9053 6.71005 17.795 6.59086 17.7157C6.47157 17.6363 6.34657 17.5827 6.21575 17.5559C6.08493 17.5291 5.97299 17.5155 5.87901 17.5155C5.78493 17.5155 5.67931 17.5228 5.56115 17.5365C5.44349 17.5507 5.32053 17.5775 5.19236 17.6174V18.1832H5.4492L5.4939 17.8638L5.54482 17.817C5.57584 17.8029 5.61686 17.7871 5.66778 17.7703C5.7187 17.7535 5.78227 17.7451 5.85901 17.7451C5.97779 17.7451 6.07493 17.7677 6.14953 17.8134C6.22463 17.8591 6.28351 17.9158 6.32606 17.9841C6.36861 18.0524 6.39698 18.1254 6.41116 18.2037C6.42535 18.282 6.43219 18.3534 6.43219 18.4191V18.4401L5.62676 18.4396ZM4.23877 19.6416H4.9843V19.4499L4.76256 19.4289L4.70745 19.369V18.2694C4.70745 18.2184 4.70582 18.1664 4.70317 18.1139C4.70062 18.0613 4.69276 18.0088 4.6796 17.9563C4.66694 17.9037 4.64857 17.8538 4.62439 17.8071C4.60021 17.7603 4.56714 17.7167 4.52459 17.6768C4.48469 17.64 4.43847 17.61 4.38643 17.5875C4.33387 17.5649 4.28132 17.5481 4.22877 17.5386C4.17632 17.5286 4.12642 17.5223 4.08009 17.5197C4.03336 17.5171 3.99448 17.5155 3.96295 17.5155C3.9204 17.5155 3.87162 17.5171 3.81641 17.5197C3.76121 17.5228 3.70243 17.5297 3.63988 17.5407C3.57733 17.5523 3.51376 17.567 3.44814 17.5854C3.38304 17.6038 3.31885 17.63 3.2564 17.6642C3.19385 17.6983 3.14497 17.733 3.10977 17.7682C3.07405 17.8034 3.04783 17.837 3.031 17.868C3.01366 17.899 3.00315 17.9284 2.99895 17.9552C2.99474 17.982 2.99264 18.0041 2.99264 18.0214C2.99264 18.0781 3.01366 18.1165 3.0567 18.1365C3.09926 18.1564 3.14344 18.1664 3.18916 18.1664H3.58212V17.7666C3.62151 17.7608 3.65774 17.7561 3.69029 17.7519C3.72294 17.7477 3.75437 17.7456 3.7859 17.7456C3.88213 17.7456 3.95723 17.7598 4.01081 17.7882C4.06438 17.8165 4.10428 17.8517 4.12948 17.8932C4.15479 17.9347 4.1705 17.9778 4.17632 18.0235C4.18203 18.0692 4.18469 18.1102 4.18469 18.1475V18.314C4.14479 18.3224 4.09173 18.3345 4.02499 18.3503C3.95825 18.366 3.88682 18.3839 3.81009 18.4033C3.73345 18.4233 3.65825 18.4433 3.58416 18.4627C3.51008 18.4827 3.44651 18.5026 3.39243 18.5221C3.33834 18.542 3.28263 18.5662 3.22436 18.5946C3.16599 18.6229 3.11191 18.6608 3.06252 18.7075C3.01261 18.7543 2.97163 18.8105 2.93906 18.8756C2.90649 18.9408 2.8902 19.0191 2.8902 19.11C2.8902 19.2718 2.93644 19.4073 3.02837 19.5166C3.12079 19.6259 3.26324 19.6805 3.456 19.6805C3.58682 19.6805 3.71131 19.6521 3.8306 19.5954C3.94989 19.5386 4.06754 19.4735 4.18418 19.4L4.23928 19.6432L4.23877 19.6416ZM4.18367 19.224C4.09275 19.2628 4.01713 19.2923 3.95611 19.3127C3.89519 19.3332 3.83478 19.3437 3.77539 19.3437C3.73866 19.3437 3.70192 19.3395 3.66508 19.3311C3.62835 19.3227 3.59518 19.3064 3.56529 19.2823C3.53539 19.2581 3.51069 19.2261 3.4912 19.1867C3.4712 19.1473 3.4613 19.0947 3.4613 19.0296C3.4613 18.9502 3.48233 18.883 3.52488 18.8278C3.56743 18.7727 3.62253 18.7254 3.69029 18.6855C3.75866 18.6461 3.83529 18.614 3.92203 18.5898C4.00815 18.5657 4.0954 18.5452 4.18367 18.5284V19.224Z" fill="white"/>
<path d="M15.6365 8.04074L14.2762 8.47223V9.56969L15.6365 9.10987V8.04074ZM15.6365 3.98654L14.2762 3.50985V4.63874L15.6365 5.09552V3.98654ZM16.7669 8.76039L21.9999 6.99233V6.18225L16.7669 4.35135V5.44191L20.2563 6.61373L16.7669 7.71962V8.76039Z" fill="#DD001F"/>
<path d="M5.83885 6.76702L9.17801 3.42786H2.23452L2.94419 4.65715H6.20979L4.13976 6.72716L4.77587 7.82924L4.79963 7.86985C4.83794 7.86756 4.87704 7.86678 4.91611 7.86678C6.10172 7.86678 7.06661 8.83167 7.06661 10.0173C7.06661 11.2029 6.10172 12.1678 4.91611 12.1678C4.12903 12.1678 3.44005 11.7432 3.06528 11.1109L2 11.7271C2.58782 12.7265 3.67456 13.3994 4.91535 13.3994C6.7792 13.3994 8.29589 11.8827 8.29589 10.0188C8.29589 8.47453 7.25514 7.17014 5.83885 6.76702Z" fill="white" fill-opacity="0.4"/>
<path d="M9.50068 7.397C9.36351 7.15941 9.28379 6.88429 9.28379 6.59075C9.28379 5.69715 10.0103 4.97061 10.904 4.97061C11.501 4.97061 12.0229 5.29631 12.3034 5.77838L13.2468 5.23348C12.777 4.4257 11.9033 3.88156 10.904 3.88156C9.41025 3.88156 8.19553 5.09705 8.19553 6.58999C8.19553 7.082 8.32812 7.5426 8.55803 7.94037L9.50146 7.39547L9.50068 7.397Z" fill="white" fill-opacity="0.4"/>
</svg>
