<svg xmlns="http://www.w3.org/2000/svg" width="80" height="24" viewBox="0 0 80 24" fill="none"><rect width="80" height="24" fill="none"/>
<path d="M5.723 2.01074C2.00002 2.01074 2 2.01074 2 2.01074L5.55004 14.2477L7.49295 7.8495L5.723 2.01074Z" fill="#000000"/>
<path d="M12.9857 2.01069C9.27289 2.01069 9.27283 2.01069 9.27283 2.01069L11.3276 14.2477H15.0404L12.9857 2.01069Z" fill="#000000"/>
<path fill-rule="evenodd" clip-rule="evenodd" d="M15.0404 2C18.7633 2 18.7634 2 18.7634 2L15.0404 14.2369H11.3276L15.0404 2Z" fill="#000000"/>
<path fill-rule="evenodd" clip-rule="evenodd" d="M9.27293 14.2477C12.9959 2.01071 12.9959 2.01069 12.9959 2.01069H9.27283L5.55004 14.2477L9.27293 14.2477Z" fill="#000000"/>
<path fill-rule="evenodd" clip-rule="evenodd" d="M18.9877 11.2568C20.8695 11.2568 20.8694 11.2568 20.8694 11.2568C20.7271 10.7889 20.3914 10.5346 19.9133 10.5346C19.4454 10.5346 19.12 10.7889 18.9877 11.2568ZM22.4563 11.7247C22.4563 11.8671 22.4462 12.0095 22.4258 12.152C18.9674 12.152 18.9673 12.152 18.9673 12.152C19.0691 12.6809 19.4149 12.9657 19.9235 12.9657C20.2998 12.9657 20.6152 12.803 20.7678 12.5283C22.3648 12.5283 22.3648 12.5283 22.3648 12.5283C22.0393 13.5964 21.0933 14.2576 19.9235 14.2576C18.4689 14.2576 17.3907 13.1997 17.3907 11.7756C17.3907 10.3515 18.4587 9.29356 19.9235 9.29356C21.4188 9.28338 22.4563 10.3515 22.4563 11.7247Z" fill="#000000"/>
<path fill-rule="evenodd" clip-rule="evenodd" d="M30.8076 14.2364C27.1253 14.2364 24.4704 11.6527 24.4704 8.10269C24.4704 4.55263 27.1151 2.01979 30.8177 2.01979C34.0423 2.01979 36.4633 4.05419 36.9006 7.10582C33.0454 7.10582 33.0454 7.10582 33.0454 7.10582C32.7097 6.16998 31.835 5.55965 30.8076 5.55965C29.414 5.55965 28.4273 6.61754 28.4273 8.11282C28.4273 9.60814 29.4242 10.6864 30.8076 10.6864C31.8655 10.6864 32.7301 10.0353 33.0556 9.00798C36.9413 9.00798 36.9413 9.00798 36.9413 9.00798C36.4938 12.1308 34.0321 14.2364 30.8076 14.2364Z" fill="#000000"/>
<path fill-rule="evenodd" clip-rule="evenodd" d="M44.4176 10.6869C45.8621 10.6869 46.8893 9.63925 46.8893 8.12361C46.8893 6.61811 45.8516 5.56022 44.4176 5.56022C42.9731 5.56022 41.9355 6.60797 41.9355 8.12361C41.9355 9.63925 42.9731 10.6869 44.4176 10.6869ZM37.9786 8.11343C37.9786 4.55321 40.6742 2 44.4176 2C48.1508 2 50.8562 4.56338 50.8562 8.11343C50.8562 11.6635 48.1508 14.2268 44.4176 14.2268C40.6742 14.237 37.9786 11.6635 37.9786 8.11343Z" fill="#000000"/>
<path fill-rule="evenodd" clip-rule="evenodd" d="M64.029 7.00446C64.029 14.0028 64.029 14.0028 64.029 14.0028H60.0721V7.54358C60.0721 6.21102 59.574 5.53966 58.5769 5.53966C57.3461 5.53966 56.6342 6.40431 56.6342 7.85891C56.6342 13.9926 56.6342 13.9926 56.6342 13.9926H52.677V2.52874H55.9628L55.9934 3.70869C56.8476 2.75252 58.1194 2.18288 59.6041 2.18288C62.2795 2.18288 64.029 4.08509 64.029 7.00446Z" fill="#000000"/>
<path fill-rule="evenodd" clip-rule="evenodd" d="M77.7413 7.00446C77.7413 14.0028 77.7413 14.0028 77.7413 14.0028H73.7844V7.54358C73.7844 6.21102 73.2859 5.53966 72.2892 5.53966C71.0584 5.53966 70.3462 6.40431 70.3462 7.85891C70.3462 13.9926 70.3462 13.9926 70.3462 13.9926H66.3893V2.52874H69.6751L69.7052 3.70869C70.5599 2.75252 71.8313 2.18288 73.3164 2.18288C75.9918 2.18288 77.7413 4.08509 77.7413 7.00446Z" fill="#000000"/>
<path d="M30.0126 19.4234C30.2281 19.4874 30.3932 19.5918 30.5077 19.7366C30.6222 19.8814 30.6795 20.0599 30.6795 20.2721C30.6795 20.5854 30.56 20.8296 30.3208 21.0047C30.0851 21.1798 29.7465 21.2674 29.3053 21.2674C27.5623 21.2674 27.5622 21.2674 27.5622 21.2674V17.7309H29.2093C29.6202 17.7309 29.9402 17.81 30.1693 17.9683C30.3983 18.1266 30.5128 18.3523 30.5128 18.6453C30.5128 18.8204 30.469 18.9754 30.3814 19.1101C30.2938 19.2415 30.1708 19.3459 30.0126 19.4234ZM28.3757 19.196C29.1386 19.196 29.1386 19.196 29.1386 19.196C29.3171 19.196 29.4518 19.1606 29.5427 19.0899C29.6336 19.0158 29.6791 18.908 29.6791 18.7666C29.6791 18.6285 29.632 18.5224 29.5377 18.4483C29.4467 18.3742 29.3137 18.3371 29.1386 18.3371C28.3757 18.3371 28.3757 18.3371 28.3757 18.3371V19.196ZM29.275 20.6612C29.659 20.6612 29.851 20.5096 29.851 20.2065C29.851 19.9134 29.659 19.7669 29.275 19.7669C28.3757 19.7669 28.3757 19.7669 28.3757 19.7669V20.6612H29.275ZM32.4585 17.6702C32.8088 17.6702 33.122 17.7494 33.3982 17.9077C33.6778 18.0626 33.8967 18.2799 34.055 18.5595C34.2133 18.8356 34.2924 19.1489 34.2924 19.4991C34.2924 19.8495 34.2133 20.1644 34.055 20.4439C33.8967 20.7201 33.6778 20.9374 33.3982 21.0956C33.122 21.2506 32.8088 21.3281 32.4585 21.3281C32.1453 21.3281 31.8623 21.2741 31.6097 21.1664C31.3604 21.0586 31.1516 20.902 30.9832 20.6965C31.5036 20.2115 31.5036 20.2115 31.5036 20.2115C31.7529 20.491 32.0577 20.6309 32.4181 20.6309C32.6775 20.6309 32.8963 20.5551 33.0748 20.4035C33.2567 20.2519 33.3746 20.0482 33.4285 19.7922C31.9937 19.7922 31.9936 19.7922 31.9936 19.7922V19.1657H33.4184C33.3611 18.9232 33.2432 18.7295 33.0647 18.5847C32.8862 18.4399 32.6707 18.3675 32.4181 18.3675C32.0577 18.3675 31.7529 18.5072 31.5036 18.7868C30.9832 18.3018 30.9832 18.3018 30.9832 18.3018C31.1516 18.0963 31.3604 17.9397 31.6097 17.8319C31.8623 17.7241 32.1453 17.6702 32.4585 17.6702ZM38.4824 20.6005C38.4824 22 38.4824 22 38.4824 22H37.7246V21.2674H35.2288V22H34.471L34.476 20.6005H34.6175C34.8297 20.5938 34.9796 20.4388 35.0672 20.1357C35.1547 19.8326 35.2085 19.3998 35.2288 18.8373C35.2691 17.7309 35.2692 17.7309 35.2692 17.7309H37.9872V20.6005H38.4824ZM35.9513 18.9131C35.9344 19.3341 35.899 19.6878 35.8451 19.974C35.7912 20.257 35.7087 20.4658 35.5976 20.6005C37.1789 20.6005 37.1789 20.6005 37.1789 20.6005V18.3978H35.9664L35.9513 18.9131ZM38.7431 19.5295C40.1729 19.5295 40.1729 19.5295 40.1729 19.5295V20.161H38.7431V19.5295ZM43.3891 18.3978C42.2574 18.3978 42.2574 18.3978 42.2574 18.3978V21.2674H41.4491V18.3978H40.3224V17.7309H43.3891V18.3978ZM46.6414 20.6106C46.6414 21.2674 46.6414 21.2674 46.6414 21.2674H43.9031V17.7309H46.5755V18.3876H44.7163V19.1556H46.3586V19.7922H44.7163V20.6106H46.6414ZM47.9044 17.7309C48.6372 18.8019 48.6372 18.802 48.6372 18.802L49.3695 17.7309H50.3297L49.1524 19.4234L50.4256 21.2674H49.4604L48.6372 20.0953L47.8235 21.2674H46.8789L48.1419 19.4587L46.9598 17.7309H47.9044ZM54.044 17.7309C54.044 21.2674 54.044 21.2674 54.044 21.2674H53.2253V19.8174H51.6187V21.2674H50.8006V17.7309H51.6187V19.1253H53.2253V17.7309H54.044ZM56.6176 21.3281C56.2506 21.3281 55.9188 21.2489 55.6222 21.0906C55.3293 20.9323 55.0985 20.7151 54.93 20.4388C54.765 20.1593 54.6824 19.8461 54.6824 19.4991C54.6824 19.1522 54.765 18.8407 54.93 18.5645C55.0985 18.2849 55.3293 18.066 55.6222 17.9077C55.9188 17.7494 56.2506 17.6702 56.6176 17.6702C56.9846 17.6702 57.3147 17.7494 57.6079 17.9077C57.9008 18.066 58.1316 18.2849 58.3 18.5645C58.4684 18.8407 58.5526 19.1522 58.5526 19.4991C58.5526 19.8461 58.4684 20.1593 58.3 20.4388C58.1316 20.7151 57.9008 20.9323 57.6079 21.0906C57.3147 21.2489 56.9846 21.3281 56.6176 21.3281ZM56.6176 20.6309C56.8262 20.6309 57.0151 20.5837 57.1835 20.4894C57.3519 20.3917 57.4831 20.257 57.5774 20.0852C57.675 19.9134 57.7239 19.7181 57.7239 19.4991C57.7239 19.2803 57.675 19.0849 57.5774 18.9131C57.4831 18.7413 57.3519 18.6082 57.1835 18.5139C57.0151 18.4163 56.8262 18.3675 56.6176 18.3675C56.4085 18.3675 56.22 18.4163 56.0515 18.5139C55.8831 18.6082 55.7504 18.7413 55.6528 18.9131C55.5581 19.0849 55.5111 19.2803 55.5111 19.4991C55.5111 19.7181 55.5581 19.9134 55.6528 20.0852C55.7504 20.257 55.8831 20.3917 56.0515 20.4894C56.22 20.5837 56.4085 20.6309 56.6176 20.6309ZM62.2367 17.7309C62.2367 21.2674 62.2367 21.2674 62.2367 21.2674H61.4286V18.3978H60.2162L60.1906 19.1354C60.1739 19.6373 60.1337 20.0448 60.0696 20.358C60.0055 20.6679 59.8979 20.907 59.7462 21.0754C59.5979 21.2405 59.3892 21.323 59.1198 21.323C59.0084 21.323 58.8739 21.3045 58.7155 21.2674C58.7658 20.5752 58.7659 20.5752 58.7659 20.5752C58.8098 20.5887 58.8589 20.5955 58.9125 20.5955C59.1078 20.5955 59.2442 20.481 59.3217 20.2519C59.3993 20.0195 59.4479 19.6575 59.4684 19.1657C59.5187 17.7309 59.5186 17.7309 59.5186 17.7309H62.2367ZM64.8077 21.3281C64.4403 21.3281 64.1085 21.2489 63.8124 21.0906C63.5191 20.9323 63.2887 20.7151 63.1203 20.4388C62.9553 20.1593 62.8727 19.8461 62.8727 19.4991C62.8727 19.1522 62.9553 18.8407 63.1203 18.5645C63.2887 18.2849 63.5191 18.066 63.8124 17.9077C64.1085 17.7494 64.4403 17.6702 64.8077 17.6702C65.1747 17.6702 65.5049 17.7494 65.7977 17.9077C66.091 18.066 66.3214 18.2849 66.4898 18.5645C66.6583 18.8407 66.7425 19.1522 66.7425 19.4991C66.7425 19.8461 66.6583 20.1593 66.4898 20.4388C66.3214 20.7151 66.091 20.9323 65.7977 21.0906C65.5049 21.2489 65.1747 21.3281 64.8077 21.3281ZM64.8077 20.6309C65.0164 20.6309 65.2049 20.5837 65.3734 20.4894C65.5418 20.3917 65.6733 20.257 65.7675 20.0852C65.8652 19.9134 65.9142 19.7181 65.9142 19.4991C65.9142 19.2803 65.8652 19.0849 65.7675 18.9131C65.6733 18.7413 65.5418 18.6082 65.3734 18.5139C65.2049 18.4163 65.0164 18.3675 64.8077 18.3675C64.5987 18.3675 64.4102 18.4163 64.2418 18.5139C64.0734 18.6082 63.9401 18.7413 63.8425 18.9131C63.7483 19.0849 63.701 19.2803 63.701 19.4991C63.701 19.7181 63.7483 19.9134 63.8425 20.0852C63.9401 20.257 64.0734 20.3917 64.2418 20.4894C64.4102 20.5837 64.5987 20.6309 64.8077 20.6309ZM69.864 18.3978C68.1815 18.3978 68.1816 18.3978 68.1816 18.3978L68.1866 21.2674H67.3729V17.7309H69.869L69.864 18.3978ZM70.368 17.7309C71.1812 17.7309 71.1811 17.7309 71.1811 17.7309V20.0346L72.8686 17.7309H73.6366V21.2674H72.8283V18.9687L71.1409 21.2674H70.368V17.7309ZM74.5171 17.7309C75.3307 17.7309 75.3307 17.7309 75.3307 17.7309V20.0346L77.0181 17.7309H77.7861V21.2674H76.9775V18.9687L75.29 21.2674H74.5171V17.7309Z" fill="#000000"/>
</svg>
