<svg xmlns="http://www.w3.org/2000/svg" width="140" height="24" viewBox="0 0 140 24" fill="none"><rect width="140" height="24" fill="none"/>
<path d="M12 22C17.5228 22 22 17.5228 22 12C22 6.47715 17.5228 2 12 2C6.47715 2 2 6.47715 2 12C2 17.5228 6.47715 22 12 22Z" fill="#FF5226"/>
<path d="M13.6199 18.3001V7.59339H12.3639C11.4585 7.59339 10.7719 7.78539 10.3052 8.17005C9.83853 8.54072 9.6052 9.03472 9.6052 9.65272C9.6052 10.1194 9.68719 10.5174 9.85186 10.8467C10.0165 11.1761 10.2572 11.4781 10.5725 11.7527C10.8885 12.0274 11.2865 12.3294 11.7672 12.6587L12.9612 13.4614L9.46119 18.3007H6.82519L10.1612 13.7707L11.7259 15.1707L10.4905 14.3881C9.86935 13.9846 9.27764 13.5374 8.71986 13.0501C8.22519 12.6101 7.84786 12.1301 7.58719 11.6087C7.32653 11.0867 7.19586 10.4761 7.19586 9.77605C7.19586 8.56805 7.62853 7.59339 8.4932 6.85205C9.37186 6.09739 10.6552 5.72005 12.3432 5.72005H16.0699V18.3001H13.6199Z" fill="white"/>
<path d="M33.7034 22C28.1868 22 23.7034 17.534 23.7034 12.018C23.7034 6.50133 28.1868 2 33.7034 2C39.2194 2 43.7034 6.50133 43.7034 12.018C43.7034 17.534 39.2194 22 33.7034 22Z" fill="#FF5226"/>
<path d="M32.1547 3.35335L20.9987 20.76H26.1127L32.5574 10.7267L32.4 10.6554L30.6134 17.8354L34.396 18.502L38.284 13.6154L38.0734 13.5107L36.76 19.0614L45.002 17.4907L43.3207 14.7214L40.35 15.4014L40.7007 15.8047L42.084 10.008L38.8614 7.85335L34.6414 13.16L34.8514 13.2654L36.5847 6.31202L32.1547 3.35335Z" fill="#FFDD00"/>
<path d="M32.1547 3.35335L20.9987 20.76H26.1127L32.5574 10.7267L32.4 10.6554L30.6134 17.8354L34.396 18.502L38.284 13.6154L38.0734 13.5107L36.76 19.0614L40.0734 18.43L42.084 10.008L38.8614 7.85335L34.6414 13.16L34.8514 13.2654L36.5847 6.31202L32.1547 3.35335Z" fill="#FFDD00"/>
<path d="M47.5368 18.3001L53.7548 5.72007H58.4901L59.4581 13.3794L64.2555 5.7194H68.9501V18.3001H64.3588V11.5467L60.0961 18.3001H55.5048L54.6201 11.4847L51.2428 18.3001H47.5368ZM83.0541 15.8087C83.0541 16.2347 83.0615 16.6534 83.0748 17.0647C83.0888 17.4767 83.1161 17.8814 83.1575 18.2794H78.8948C78.7936 18.0817 78.711 17.875 78.6481 17.6621C78.5642 17.3801 78.509 17.0904 78.4835 16.7974C78.0441 17.3187 77.4881 17.7507 76.8155 18.0941C76.1568 18.4241 75.2161 18.5887 73.9948 18.5887C72.7595 18.5887 71.7708 18.3001 71.0295 17.7241C70.3021 17.1474 69.9388 16.3787 69.9388 15.4174C69.9388 14.5254 70.1921 13.8394 70.7001 13.3587C71.2221 12.8647 72.0315 12.5214 73.1301 12.3294C74.2281 12.1227 75.6348 12.0201 77.3508 12.0201H78.4215V11.7934C78.4215 11.3547 78.2361 11.0181 77.8655 10.7847C77.4948 10.5514 76.8015 10.4347 75.7861 10.4347C74.7841 10.4347 73.8508 10.5654 72.9855 10.8261C72.1348 11.0727 71.4415 11.3201 70.9061 11.5674V8.80807C71.5101 8.58807 72.3201 8.36874 73.3361 8.1494C74.3655 7.91607 75.5388 7.7994 76.8568 7.7994C78.1881 7.7994 79.3135 7.92273 80.2335 8.17007C81.1535 8.4034 81.8535 8.80807 82.3335 9.38473C82.8141 9.9474 83.0541 10.7301 83.0541 11.7321V15.8087ZM84.4541 8.10873H88.7168L88.9635 9.85807C89.4855 9.17207 90.1095 8.6714 90.8375 8.3554C91.5648 8.0394 92.4021 7.88207 93.3495 7.88207C94.4201 7.88207 95.3808 8.07407 96.2321 8.45807C97.0646 8.82663 97.7673 9.43647 98.2495 10.2087C98.7441 10.9907 98.9908 11.9794 98.9908 13.1734C98.9908 14.3674 98.7441 15.3627 98.2495 16.1587C97.7695 16.9414 97.0968 17.5321 96.2321 17.9294C95.3668 18.3281 94.3788 18.5267 93.2668 18.5267C92.4708 18.5318 91.6811 18.385 90.9401 18.0941C90.2261 17.7927 89.6088 17.3187 89.0875 16.6741V20.9567H84.4541V8.10873ZM112.415 13.1734C112.415 12.1574 112.69 11.2514 113.239 10.4554C113.802 9.6594 114.598 9.0354 115.627 8.58207C116.671 8.1154 117.899 7.88207 119.313 7.88207C120.782 7.88207 122.011 8.1354 122.999 8.6434C124.001 9.1514 124.701 9.87207 125.099 10.8054C125.511 11.7387 125.565 12.8441 125.263 14.1207H117.131C117.295 14.7107 117.659 15.1567 118.222 15.4587C118.799 15.7474 119.649 15.8914 120.775 15.8914C121.557 15.8914 122.285 15.8227 122.957 15.6847C123.59 15.5449 124.216 15.3734 124.831 15.1707V17.6207C124.241 17.8954 123.582 18.1147 122.855 18.2794C122.141 18.4441 121.201 18.5267 120.034 18.5267C117.467 18.5267 115.552 18.0534 114.289 17.1061C113.04 16.1454 112.415 14.8347 112.415 13.1734ZM125.655 8.10807H137.412V10.7441H133.747V18.2794H129.114V10.7441H125.655V8.10807ZM99.8761 8.10807H104.509V12.7201L108.895 8.10807H112.889L108.812 12.3494L113.733 18.2794H108.133L104.509 13.7907V18.2794H99.8761V8.10807ZM119.334 10.1881C118.702 10.1881 118.201 10.3734 117.831 10.7441C117.46 11.1007 117.22 11.5607 117.11 12.1234H121.187C121.173 11.5607 121.022 11.1007 120.734 10.7434C120.445 10.3734 119.979 10.1881 119.334 10.1881ZM94.2555 13.1734C94.2555 12.3494 94.0288 11.6974 93.5755 11.2174C93.1368 10.7234 92.5048 10.4761 91.6815 10.4761C90.9268 10.4761 90.2948 10.7094 89.7875 11.1761C89.2795 11.6294 89.0255 12.2947 89.0255 13.1734C89.0255 14.0521 89.2721 14.7314 89.7668 15.2121C90.2748 15.6787 90.9128 15.9121 91.6815 15.9121C92.5328 15.9121 93.1708 15.6647 93.5961 15.1707C94.0355 14.6767 94.2555 14.0107 94.2555 13.1734ZM78.4215 13.8934H77.3715C76.3695 13.8934 75.6488 13.9767 75.2095 14.1414C74.7841 14.3061 74.5715 14.6214 74.5715 15.0881C74.5715 15.4861 74.7088 15.7814 74.9828 15.9734C75.2715 16.1521 75.6141 16.2414 76.0128 16.2414C76.6168 16.2414 77.1108 16.1314 77.4948 15.9121C77.8928 15.6787 78.2021 15.4107 78.4215 15.1087V13.8934Z" fill="black"/>
</svg>
