<svg xmlns="http://www.w3.org/2000/svg" width="87" height="24" viewBox="0 0 87 24" fill="none"><rect width="87" height="24" fill="none"/>
<path fill-rule="evenodd" clip-rule="evenodd" d="M38.3949 9.34321C39.1694 9.99109 40.0482 10.3504 41.0623 10.3504C41.5509 10.3504 42.0282 10.2615 42.4856 10.088C42.9911 9.89706 43.45 9.59826 43.8599 9.24771C44.3117 8.86221 44.6611 8.39212 44.9142 7.85429C45.173 7.30552 45.302 6.72688 45.302 6.1198C45.302 5.25546 45.0478 4.47348 44.5573 3.76511C44.1319 3.14856 43.5835 2.60999 42.8677 2.35637C42.3095 2.15887 41.6938 2 41.0984 2C39.9316 2 38.9185 2.37168 38.0766 3.19301C37.26 3.99103 36.8583 4.95083 36.8583 6.09502C36.8583 6.71812 36.9946 7.31063 37.2586 7.87325C37.5276 8.44681 37.9105 8.938 38.3949 9.34321ZM38.6197 6.14384C38.6197 5.56885 38.7068 4.96832 38.9838 4.45672C39.1963 4.06318 39.4921 3.6966 39.9136 3.52023C40.1355 3.42695 40.377 3.32784 40.6132 3.28484C40.7772 3.25496 40.9438 3.24111 41.1108 3.24111C41.6227 3.24111 42.0955 3.38833 42.5104 3.6915C42.9061 3.98155 43.1927 4.36416 43.3334 4.83859C43.4552 5.25109 43.5162 5.67668 43.5162 6.10739C43.5162 6.49951 43.4755 6.90107 43.3544 7.27565C43.2269 7.67063 42.9888 8.03796 42.7323 8.36079C42.3253 8.87169 41.7002 9.03493 41.0736 9.03493C40.4593 9.03493 39.8583 8.87022 39.4479 8.38193C39.1781 8.06053 38.933 7.6947 38.7959 7.29461C38.6698 6.9251 38.6197 6.53374 38.6197 6.14384ZM48.741 10.1777V6.80779H50.326C50.6314 6.80779 50.9244 6.74362 51.2043 6.62194C51.5567 6.46814 51.8933 6.14602 52.1499 5.864C52.5045 5.47339 52.6204 4.96978 52.6204 4.45308C52.6204 4.11565 52.5241 3.77531 52.3958 3.46631C52.239 3.08661 51.9441 2.79364 51.6112 2.5648C51.2411 2.31046 50.8375 2.17199 50.3869 2.17199H47.1142V3.45027H49.6655C49.7001 3.45027 49.7343 3.45027 49.7693 3.45027C49.925 3.45027 50.1195 3.53117 50.2639 3.58947C50.6401 3.74252 50.7977 4.09379 50.7977 4.48369C50.7977 4.71325 50.7266 4.92897 50.5852 5.11042L50.575 5.12355L50.5641 5.13596C50.3158 5.40414 49.9897 5.52947 49.6287 5.52947H47.1142V10.1777H48.741ZM59.4009 10.1777V8.89937H55.8758V6.80779H59.2166V5.52947H54.2494V10.1777H59.4009ZM59.4009 3.45027V2.17199H54.2494V3.45027H59.4009ZM63.0964 10.1777V3.45027H64.8164C65.1726 3.45027 65.5157 3.55303 65.7511 3.83507L65.7692 3.8562L65.7846 3.87952C65.8673 4.00925 65.9268 4.15136 65.9542 4.30295C65.9892 4.49753 65.9854 4.71106 65.9854 4.90784V10.1777H67.6002V4.57624C67.6002 3.92981 67.4625 3.27974 67.0108 2.79364C66.5937 2.34544 66.0659 2.17199 65.4649 2.17199H61.4696V10.1777H63.0964Z" fill="white"/>
<path d="M39.9211 13.4544H41.6464C41.6607 13.6693 41.7197 13.877 41.8123 14.0731C41.9394 14.3406 42.1271 14.5905 42.3114 14.8208L43.8761 16.7747C44.0845 17.0407 44.2699 17.3256 44.4478 17.6135C44.6588 17.956 44.7145 18.4021 44.7145 18.7978C44.7145 19.4012 44.5106 19.9215 44.127 20.3829C43.7892 20.7895 43.3672 21.1408 42.8459 21.2698C42.463 21.3645 42.0319 21.46 41.637 21.46H39.5137V20.1817H41.1721C41.5238 20.1817 41.8717 20.0906 42.1967 19.9609C42.7131 19.7554 42.9407 19.3006 42.9407 18.7606C42.9407 18.3751 42.7906 18.0296 42.5529 17.7316L40.6549 15.3929C40.4454 15.1349 40.2103 14.8543 40.046 14.5657C39.9749 14.4411 39.932 14.307 39.9147 14.1649C39.9 14.0468 39.8812 13.923 39.8812 13.8042C39.8812 13.6861 39.8944 13.5688 39.9211 13.4544Z" fill="white"/>
<path d="M51.568 20.1817V21.46H46.4165V16.8118H51.3848V18.0901H48.0429V20.1817H51.568Z" fill="white"/>
<path d="M51.568 13.4544V14.7326H46.4165V13.4544H51.568Z" fill="white"/>
<path d="M55.7479 18.0901H53.6371V16.8118H56.3591C56.7074 16.8118 57.0497 16.712 57.2637 16.4191C57.4085 16.2201 57.5045 15.9905 57.5045 15.7413C57.5045 15.3557 57.3454 15.0103 56.9722 14.8638C56.7733 14.7866 56.5615 14.7326 56.3479 14.7326H53.6371V13.4544H56.9959C57.3672 13.4544 57.7358 13.5141 58.0916 13.6161C58.4245 13.7116 58.6746 13.9091 58.8675 14.1948C59.088 14.5213 59.1801 14.8864 59.1801 15.2785C59.1801 15.6473 59.0643 16.0269 58.9206 16.3636C58.7479 16.7681 58.4 17.0166 58.007 17.1828L56.8097 17.6886L58.0743 17.9874C58.3383 18.05 58.6144 18.2417 58.8243 18.4115C59.126 18.6557 59.1677 19.2474 59.1677 19.6074V21.46H57.553V19.8064C57.553 19.3517 57.4856 18.8102 57.1411 18.4786C56.7928 18.1441 56.2072 18.0901 55.7479 18.0901Z" fill="white"/>
<path d="M65.6537 21.46H62.7646L60.585 13.4544H62.2599L64.1985 21.1423L66.078 13.4544H67.7559L65.6537 21.46Z" fill="white"/>
<path d="M70.7947 13.4544V21.46H69.1671V13.4544H70.7947Z" fill="white"/>
<path d="M77.7944 20.1817V21.46H76.4426C75.6821 21.46 74.9975 21.2057 74.3769 20.7735C73.7879 20.3639 73.2854 19.8429 73.0086 19.1709C72.7821 18.6192 72.6189 18.0202 72.6189 17.4204C72.6189 16.9081 72.7163 16.4103 72.9157 15.938C73.2282 15.1976 73.7119 14.5956 74.3668 14.1336C74.9539 13.7182 75.6072 13.4544 76.3324 13.4544H77.7944V14.7326H77.263C76.674 14.7326 76.0883 14.85 75.5884 15.1757C75.1897 15.4359 74.8388 15.7689 74.6131 16.1938C74.413 16.5721 74.3073 16.9794 74.3073 17.408C74.3073 18.2541 74.6199 18.9741 75.3045 19.4836C75.8611 19.8982 76.4987 20.1817 77.2013 20.1817H77.7944Z" fill="white"/>
<path d="M85.0158 20.1817V21.46H79.8635V16.8118H84.8315V18.0901H81.4907V20.1817H85.0158Z" fill="white"/>
<path d="M85.0158 13.4544V14.7326H79.8635V13.4544H85.0158Z" fill="white"/>
<path fill-rule="evenodd" clip-rule="evenodd" d="M24.73 6.80447L28.4882 10.5814C24.1453 11.0444 21.6875 13.4597 21.1966 17.9094L17.4383 14.1324C21.8307 13.6938 24.2703 11.2602 24.73 6.80447Z" fill="white"/>
<path d="M25.8644 9.42998C27.3959 10.9691 29.8799 10.9684 31.4124 9.42817C32.945 7.88799 32.9458 5.39169 31.4142 3.85249C29.8827 2.3133 27.3987 2.31411 25.8662 3.85429C24.3336 5.39447 24.3328 7.89078 25.8644 9.42998Z" fill="white"/>
<path d="M14.5062 20.8461C16.0378 22.3853 18.5218 22.3845 20.0543 20.8443C21.5869 19.3041 21.5877 16.8078 20.0561 15.2687C18.5246 13.7295 16.0406 13.7303 14.508 15.2705C12.9755 16.8106 12.9747 19.3069 14.5062 20.8461Z" fill="white"/>
<path d="M14.5062 9.42998C16.0378 10.9691 18.5218 10.9684 20.0543 9.42817C21.5869 7.88799 21.5877 5.39169 20.0561 3.85249C18.5246 2.3133 16.0406 2.31411 14.508 3.85429C12.9755 5.39447 12.9747 7.89078 14.5062 9.42998Z" fill="white"/>
<path d="M3.14814 9.42998C4.6797 10.9691 7.16365 10.9684 8.69619 9.42817C10.2287 7.88799 10.2295 5.39169 8.698 3.85249C7.16643 2.3133 4.68248 2.31411 3.14993 3.85429C1.61739 5.39447 1.61659 7.89078 3.14814 9.42998Z" fill="#E63536"/>
</svg>
