<svg xmlns="http://www.w3.org/2000/svg" width="173" height="24" viewBox="0 0 173 24" fill="none"><rect width="173" height="24" fill="none"/>
<path fill-rule="evenodd" clip-rule="evenodd" d="M30.2817 4.10236L30.1004 4.2252L32.3164 7.1416L32.4904 6.99732C33.7436 5.95321 35.9157 5.25128 39.1309 5.25128C43.5803 5.25128 46.0176 6.58689 46.8092 8.3261H38.9203V11.5876H46.5186C45.5048 13.0641 43.126 14.1443 39.1304 14.1443C35.923 14.1443 33.7509 13.4424 32.4972 12.3978L32.3232 12.254L30.1038 15.1772L30.2891 15.2995C32.2793 16.6137 35.2108 17.4097 39.1304 17.4097C43.0495 17.4097 46.1735 16.5635 48.1638 15.1738C50.1618 13.7767 51.1353 11.8396 51.1353 9.70461C51.1353 7.56958 50.1584 5.62954 48.1604 4.23544C46.1706 2.8467 43.1733 2 39.1309 2C35.0875 2 32.2725 2.79552 30.2822 4.10968V4.10285L30.2817 4.10236ZM2 16.758L2.06922 16.4987C3.30734 11.8109 4.94955 8.34755 7.08165 6.05411C9.22155 3.74994 11.8474 2.63709 15.0188 2.63709C18.1896 2.63709 20.8126 3.75335 22.9554 6.05411C25.0875 8.34755 26.7331 11.8148 27.9683 16.506L28.037 16.7653H23.9985L23.9586 16.6142C22.6654 12.0736 21.125 9.53205 19.5706 8.1243C18.0229 6.72386 16.4431 6.43188 15.0193 6.43188C13.5949 6.43188 12.0151 6.72727 10.4714 8.1243C8.9164 9.53205 7.37265 12.0702 6.08335 16.6108L6.03948 16.7619H2V16.758ZM121.071 16.7653L121.14 16.506C122.379 11.8148 124.02 8.35096 126.153 6.05411C128.296 3.74994 130.922 2.63709 134.089 2.63709C137.257 2.63709 139.887 3.75335 142.026 6.05752C144.158 8.35486 145.8 11.8182 147.039 16.506L147.108 16.7653H143.069L143.025 16.6142C141.736 12.0736 140.192 9.53205 138.637 8.1243C137.093 6.72386 135.514 6.43188 134.089 6.43188C132.665 6.43188 131.086 6.72727 129.542 8.1243C127.983 9.53205 126.443 12.0736 125.15 16.6137L125.11 16.7648L121.071 16.7653ZM52.175 5.8991V2.63709H73.2211V5.89959H64.7102V16.7585H60.6854V5.8991H52.175ZM114.598 8.3222C114.576 7.73532 114.474 7.29954 114.311 6.97587C114.159 6.65246 113.905 6.38798 113.588 6.22325C113.283 6.06483 112.92 5.97855 112.513 5.93566C112.102 5.89179 111.663 5.89179 111.213 5.89179H99.3234V2.63368H111.423V2.64099C112.252 2.64099 113.09 2.64782 113.879 2.73068C114.736 2.82086 115.557 3.00073 116.265 3.37509C116.977 3.74994 117.573 4.31489 117.987 5.15428C118.397 5.98928 118.626 7.09091 118.626 8.53083V16.7541H104.907C103.13 16.7541 101.296 16.7541 99.9084 16.2393C99.204 15.9766 98.6005 15.5808 98.1755 14.972C97.7543 14.3636 97.5218 13.5681 97.5218 12.5381C97.5218 11.5087 97.7543 10.7092 98.1755 10.1043C98.6005 9.49598 99.204 9.10017 99.9084 8.83695C101.296 8.3222 103.13 8.3222 104.907 8.3222H114.598ZM104.935 13.5033H114.602V11.5915H104.935C104.028 11.5915 103.156 11.5915 102.505 11.7319C102.182 11.8001 101.942 11.901 101.783 12.0307C101.706 12.0922 101.645 12.1707 101.604 12.2601C101.563 12.3495 101.543 12.4472 101.547 12.5455C101.547 12.776 101.634 12.9344 101.783 13.0602C101.942 13.1938 102.182 13.2908 102.505 13.359C103.156 13.4999 104.028 13.4999 104.935 13.4999V13.5033ZM163.029 8.3222V8.32952H153.577V2.63709H149.553V16.758H163.272C165.049 16.758 166.883 16.758 168.271 16.2432C168.975 15.98 169.578 15.5842 170 14.9759C170.425 14.3675 170.657 13.572 170.657 12.542C170.657 11.5121 170.425 10.7126 170 10.1082C169.578 9.49988 168.975 9.10358 168.271 8.84085C166.883 8.3261 165.049 8.3261 163.272 8.3261H163.029V8.3222ZM163.24 13.5033H153.577V11.5915H163.24C164.152 11.5915 165.023 11.5915 165.67 11.7319C165.993 11.8001 166.236 11.901 166.396 12.0307C166.545 12.1565 166.629 12.3149 166.629 12.5455C166.629 12.776 166.545 12.9344 166.396 13.0602C166.236 13.1938 165.993 13.2908 165.67 13.359C165.023 13.4999 164.152 13.4999 163.24 13.4999V13.5033ZM75.553 2.63709L83.8713 15.0622L79.2254 22H84.0273L96.9915 2.63709H92.193L86.1414 11.671L80.0936 2.63758L75.553 2.63709Z" fill="#0023FF"/>
</svg>
