<svg xmlns="http://www.w3.org/2000/svg" width="24" height="24" viewBox="0 0 24 24" fill="none"><rect width="24" height="24" fill="none"/>
<path fill-rule="evenodd" clip-rule="evenodd" d="M20.3649 17.4818C18.5779 20.2031 15.4989 22 12 22C9.30863 22 6.86556 20.9366 5.06782 19.2072L10.4672 10.9311L8.88307 17.5658L12.9033 18.0484L16.2416 13.9649L15.2694 18.0502L15.2764 18.0481L15.2697 18.0535L20.3649 17.4818ZM21.7061 14.416C21.9019 13.6256 22.0007 12.8142 22.0001 11.9999C22.0001 6.47726 17.5229 2 12 2C6.47739 2 2.00012 6.47699 2.00012 11.9999C2.00012 13.1071 2.17982 14.1723 2.51203 15.1676L9.88268 3.75147L14.7497 6.56254L13.3684 12.3853L17.0155 7.85966L20.4501 9.85081L19.2991 14.8701L21.7061 14.416Z" fill="#3E424C"/>
</svg>
