<svg xmlns="http://www.w3.org/2000/svg" width="24" height="24" viewBox="0 0 24 24" fill="none"><rect width="24" height="24" fill="none"/>
<path d="M11.9923 4.27622C7.73326 4.27622 4.26787 7.72741 4.26787 11.9723C4.26787 14.8141 5.834 17.2873 8.14426 18.6196V15.0975C6.4931 13.7653 5.90492 11.8802 5.89072 11.8518C5.8482 11.6959 5.8695 11.5258 5.95454 11.3771C6.03248 11.2353 6.16714 11.129 6.33011 11.0794C6.48599 11.0298 6.65607 11.051 6.80493 11.1219C6.95371 11.1999 7.06005 11.3275 7.11668 11.4833C7.1663 11.6392 8.27892 15.1259 11.9144 15.1259H11.9923C15.8758 15.0763 16.7899 11.6605 16.8325 11.5116C16.875 11.3487 16.9813 11.2069 17.1231 11.1219C17.2648 11.0369 17.4419 11.0085 17.6049 11.051C17.9451 11.1361 18.1507 11.4762 18.0656 11.8164C18.0585 11.8448 17.5483 13.7865 15.805 15.1259V18.6196C18.1365 17.2944 19.7168 14.8141 19.7168 11.9581C19.7168 7.71324 16.2514 4.26204 11.9923 4.26204V4.27622ZM10.2207 11.2282C10.086 11.2282 9.95849 11.1999 9.83794 11.1503C9.71748 11.1007 9.60413 11.0227 9.51199 10.9306C9.41984 10.8384 9.34191 10.7251 9.29229 10.6046C9.24267 10.4841 9.21435 10.3495 9.21435 10.2219C9.21435 10.0873 9.24267 9.9597 9.29229 9.83923C9.34191 9.71875 9.41984 9.60537 9.51199 9.51324C9.60413 9.42112 9.71748 9.34316 9.83794 9.29356C9.95849 9.24395 10.0931 9.2156 10.2207 9.2156C10.3483 9.2156 10.4828 9.24395 10.6034 9.29356C10.7238 9.34316 10.8372 9.42112 10.9293 9.51324C11.0215 9.60537 11.0994 9.71875 11.149 9.83923C11.1987 9.9597 11.227 10.0943 11.227 10.2219C11.227 10.3566 11.1987 10.4841 11.149 10.6046C11.0994 10.7251 11.0215 10.8384 10.9293 10.9306C10.8372 11.0227 10.7238 11.1007 10.6034 11.1503C10.4828 11.1999 10.3483 11.2282 10.2207 11.2282ZM14.0758 11.2211C13.9411 11.2211 13.8136 11.1928 13.6931 11.1432C13.5727 11.0936 13.4593 11.0156 13.3672 10.9235C13.275 10.8314 13.1971 10.718 13.1475 10.5975C13.0978 10.477 13.0695 10.3424 13.0695 10.2148C13.0695 10.0802 13.0978 9.95261 13.1475 9.83215C13.1971 9.71167 13.275 9.59829 13.3672 9.50616C13.4593 9.41403 13.5727 9.33608 13.6931 9.28647C13.8136 9.23686 13.9482 9.20852 14.0758 9.20852C14.3451 9.20852 14.6002 9.31482 14.7844 9.49907C14.9758 9.69041 15.0821 9.94553 15.0821 10.2077C15.0821 10.4699 14.9758 10.7251 14.7844 10.9164C14.5931 11.1007 14.338 11.2069 14.0758 11.2069V11.2211Z" fill="#FFC627"/>
<path d="M8.88428 15.6005V22.1478C8.99063 22.0061 9.1252 21.8927 9.28116 21.8077C9.43704 21.7297 9.60711 21.6872 9.78429 21.6872C10.1953 21.6872 10.5638 21.914 10.7622 22.2613H10.9748C11.0741 22.0841 11.2158 21.9423 11.3858 21.8431C11.5559 21.7439 11.7544 21.6872 11.9528 21.6872C12.3638 21.6872 12.7324 21.914 12.9307 22.2613H13.1504C13.2497 22.0841 13.3914 21.9423 13.5614 21.8431C13.7315 21.7439 13.93 21.6872 14.1284 21.6872C14.5182 21.6872 14.8654 21.8856 15.0709 22.2045V15.6218C14.2631 16.0683 13.2638 16.3801 12.0095 16.3943H11.9174C10.6914 16.3943 9.69925 16.0683 8.89138 15.6005H8.88428Z" fill="white"/>
<path d="M10.2237 9.22334C10.089 9.22334 9.96147 9.25169 9.84102 9.3013C9.72056 9.35091 9.60711 9.42886 9.51497 9.52099C9.42292 9.61311 9.34489 9.72649 9.29536 9.84697C9.24574 9.96744 9.21733 10.1021 9.21733 10.2296C9.21733 10.4989 9.32368 10.747 9.51497 10.9383C9.70635 11.1297 9.96147 11.2289 10.2237 11.2289C10.4859 11.2289 10.7481 11.1226 10.9323 10.9383C11.1166 10.7541 11.23 10.4989 11.23 10.2296C11.23 10.095 11.2016 9.96744 11.152 9.84697C11.1024 9.72649 11.0245 9.61311 10.9323 9.52099C10.8402 9.42886 10.7268 9.35091 10.6064 9.3013C10.4859 9.25169 10.3512 9.22334 10.2237 9.22334ZM14.0788 9.21626C13.9442 9.21626 13.8166 9.2446 13.6961 9.29421C13.5756 9.34382 13.4623 9.42177 13.3701 9.5139C13.278 9.60603 13.2001 9.71941 13.1504 9.83989C13.1008 9.96036 13.0725 10.095 13.0725 10.2226C13.0725 10.3572 13.1008 10.4848 13.1504 10.6052C13.2001 10.7257 13.278 10.8391 13.3701 10.9312C13.4623 11.0234 13.5756 11.1013 13.6961 11.1509C13.8166 11.2005 13.9512 11.2289 14.0788 11.2289C14.3481 11.2289 14.6032 11.1226 14.7875 10.9383C14.9788 10.747 15.0851 10.4919 15.078 10.2296C15.078 9.96036 14.9718 9.71233 14.7804 9.52099C14.589 9.33673 14.3339 9.23044 14.0718 9.23044L14.0788 9.21626Z" fill="#111820"/>
<path d="M11.9929 3.00709C7.03227 3.00709 3 7.0323 3 11.9717C3 15.5434 5.11178 18.619 8.14488 20.0576V22.9978H9.20786C9.20786 22.7285 9.39215 22.5159 9.64016 22.452C9.68979 22.4308 9.73932 22.4237 9.78894 22.4237C9.83856 22.4237 9.88818 22.4308 9.9378 22.452C10.1787 22.5159 10.363 22.7285 10.363 22.9978H11.3764C11.3764 22.7285 11.5607 22.5159 11.8087 22.452C11.8583 22.4308 11.9079 22.4237 11.9575 22.4237C12.0071 22.4237 12.0567 22.4308 12.1063 22.452C12.3543 22.5159 12.5386 22.7285 12.5386 22.9978H13.5378C13.5378 22.7214 13.7362 22.5088 13.9914 22.4449C14.0055 22.4379 14.0268 22.4379 14.048 22.4308C14.0693 22.4308 14.0905 22.4166 14.1189 22.4166C14.1189 22.4166 14.126 22.4166 14.133 22.4166C14.1898 22.4166 14.2394 22.4308 14.2819 22.452C14.5157 22.523 14.6929 22.7356 14.6929 22.9907H15.8126V20.0718C18.874 18.6402 21 15.5505 21 11.9646C21 7.02522 16.9606 3 12.0071 3L11.9929 3.00709ZM15.0615 22.204C14.9622 22.0481 14.8205 21.9135 14.6575 21.8213C14.4945 21.7292 14.3102 21.6796 14.1189 21.6796C13.7078 21.6796 13.3394 21.9064 13.141 22.2536H12.9284C12.8291 22.0836 12.6874 21.9347 12.5173 21.8355C12.3472 21.7363 12.1488 21.6796 11.9504 21.6796C11.5393 21.6796 11.1709 21.9064 10.9725 22.2536H10.7599C10.6606 22.0765 10.5189 21.9347 10.3488 21.8355C10.1787 21.7363 9.98032 21.6796 9.78192 21.6796C9.42046 21.6796 9.08741 21.8568 8.88191 22.1403V15.593C9.68979 16.0607 10.6819 16.3867 11.9079 16.3867H12C13.2543 16.3725 14.2536 16.0607 15.0615 15.6142V22.204ZM15.7984 18.6331V15.1323C17.5347 13.793 18.052 11.8512 18.059 11.8229C18.0803 11.7449 18.0804 11.6599 18.0733 11.5749C18.0591 11.4898 18.0307 11.4119 17.9882 11.341C17.9457 11.2701 17.889 11.2063 17.8181 11.1567C17.7544 11.1071 17.6764 11.0717 17.5913 11.0504C17.4284 11.0079 17.2583 11.0363 17.1095 11.1213C16.9677 11.2063 16.8615 11.3481 16.819 11.511C16.7835 11.6528 15.8622 15.0757 11.9787 15.1253H11.9008C8.26533 15.1253 7.15273 11.6386 7.1031 11.4827C7.08189 11.4048 7.03937 11.3268 6.98975 11.263C6.94012 11.1993 6.86929 11.1426 6.79845 11.1071C6.72753 11.0646 6.64248 11.0433 6.55745 11.0363C6.47241 11.0292 6.38737 11.0363 6.30943 11.0575C6.23149 11.0788 6.15356 11.1213 6.08974 11.1709C6.026 11.2205 5.96928 11.2913 5.93386 11.3623C5.89134 11.4331 5.87003 11.5181 5.86293 11.5961C5.85592 11.6811 5.86293 11.7661 5.88423 11.8442C5.89134 11.8725 6.48661 13.7505 8.13778 15.0828V18.6119C5.82752 17.2796 4.26139 14.8063 4.26139 11.9646C4.26139 7.71971 7.72678 4.26851 11.9858 4.26851C16.2449 4.26851 19.7103 7.71971 19.7103 11.9646C19.7103 14.8205 18.1229 17.3009 15.7984 18.626V18.6331Z" fill="#111820"/>
</svg>
