<svg xmlns="http://www.w3.org/2000/svg" width="126" height="24" viewBox="0 0 126 24" fill="none"><rect width="126" height="24" fill="none"/>
<path d="M2 21.4902H4.81063V5.04629H15.0934V21.503H17.8526V2.49702H2V21.4902Z" fill="white"/>
<path d="M55.1278 3.83377C54.9497 3.43607 54.6604 3.09839 54.2948 2.86145C53.9291 2.6245 53.5027 2.49843 53.0669 2.49843C52.6312 2.49843 52.2048 2.6245 51.8391 2.86145C51.4734 3.09839 51.1841 3.43607 51.0061 3.83377L44.2966 18.9152H41.9529V21.5073H64.1981V18.9152H61.8544L55.1278 3.83377ZM47.3428 18.9152L53.0755 5.75322L58.8039 18.9152H47.3428Z" fill="white"/>
<path d="M94.6437 2.497C94.2094 2.49721 93.7848 2.62531 93.4229 2.86533C93.061 3.10535 92.7778 3.44664 92.6086 3.84662L85.2264 21.3317L85.1536 21.5073H88.2041L94.6309 5.91603L101.058 21.4302L101.088 21.5073H104.142L96.6874 3.84662C96.5186 3.44462 96.2343 3.10177 95.8705 2.86151C95.5067 2.62125 95.0797 2.49439 94.6437 2.497Z" fill="white"/>
<path d="M120.698 2.49702L109.699 17.4242V2.49702H106.932V21.5073H109.635L120.681 6.51588V21.5073H123.448V2.49702H120.698Z" fill="white"/>
<path d="M81.1561 4.42503C79.3388 2.86034 77.0203 1.99983 74.6222 2C72.644 1.99981 70.7102 2.58635 69.0654 3.68542C67.4206 4.78449 66.1387 6.34671 65.3819 8.17445C64.6251 10.0022 64.4275 12.0133 64.8139 13.9534C65.2003 15.8935 66.1535 17.6754 67.5528 19.0737C68.7148 20.2315 70.1439 21.0854 71.714 21.5603C73.284 22.0352 74.9469 22.1164 76.5557 21.7967C78.1646 21.4771 79.6701 20.7664 80.9394 19.7274C82.2086 18.6884 83.2027 17.3529 83.8339 15.8389L83.9067 15.6675H80.9076L80.869 15.7275C80.2262 16.8091 79.3131 17.7049 78.2194 18.3268C77.1257 18.9488 75.889 19.2756 74.6308 19.2751C72.8839 19.2731 71.1958 18.6433 69.8745 17.5005C68.5532 16.3577 67.6867 14.7781 67.4328 13.0497H84.5708V12.9383C84.6008 12.6341 84.618 12.3128 84.618 12C84.6173 11.5095 84.58 11.0197 84.5066 10.5347C84.158 8.16245 82.969 5.99428 81.1561 4.42503ZM70.0164 6.38304C70.9781 5.59864 72.1242 5.07297 73.3461 4.85591C74.568 4.63884 75.8251 4.73757 76.9981 5.14274C78.1711 5.5479 79.2211 6.24607 80.0486 7.17098C80.876 8.0959 81.4534 9.21689 81.7259 10.4276H67.5185C67.8731 8.83917 68.7495 7.41525 70.0078 6.38304H70.0164Z" fill="white"/>
<path d="M31.5631 2C29.5853 2 27.6519 2.58649 26.0074 3.68531C24.3629 4.78412 23.0812 6.34591 22.3243 8.17318C21.5674 10.0004 21.3694 12.0111 21.7552 13.9509C22.1411 15.8907 23.0935 17.6726 24.492 19.0711C25.8906 20.4696 27.6724 21.422 29.6122 21.8079C31.552 22.1937 33.5627 21.9957 35.3899 21.2388C37.2172 20.482 38.779 19.2002 39.8778 17.5557C40.9766 15.9112 41.5631 13.9778 41.5631 12C41.5597 9.34889 40.5051 6.80732 38.6304 4.93269C36.7558 3.05806 34.2142 2.0034 31.5631 2ZM38.8468 12C38.8468 13.4406 38.4196 14.8488 37.6192 16.0466C36.8189 17.2444 35.6813 18.1779 34.3504 18.7292C33.0195 19.2805 31.555 19.4248 30.1421 19.1437C28.7292 18.8627 27.4314 18.169 26.4128 17.1503C25.3942 16.1317 24.7005 14.8339 24.4194 13.421C24.1384 12.0081 24.2826 10.5436 24.8339 9.21269C25.3852 7.88177 26.3187 6.74423 27.5165 5.94389C28.7143 5.14355 30.1225 4.71637 31.5631 4.71637C33.4949 4.71637 35.3475 5.48375 36.7134 6.8497C38.0794 8.21565 38.8468 10.0683 38.8468 12Z" fill="white"/>
<path d="M41.4602 10.569C41.1461 8.43214 40.1509 6.45368 38.6226 4.92763C37.0942 3.40158 35.1142 2.4094 32.9769 2.09852C32.7852 2.07357 32.5903 2.09011 32.4055 2.14703C32.2207 2.20395 32.0503 2.29992 31.9058 2.42843C31.7091 2.59953 31.5654 2.82331 31.4918 3.07339C31.4181 3.32346 31.4175 3.58939 31.49 3.8398C31.5625 4.09022 31.7051 4.31467 31.901 4.48668C32.0969 4.65869 32.3379 4.77109 32.5956 4.81061C34.1496 5.03521 35.5894 5.75597 36.7005 6.86546C37.8115 7.97494 38.5342 9.41375 38.761 10.9674C38.8012 11.2248 38.9141 11.4653 39.0863 11.6606C39.2586 11.856 39.4831 11.998 39.7334 12.0701C39.9837 12.1421 40.2494 12.1411 40.4992 12.0672C40.7489 11.9933 40.9724 11.8496 41.1432 11.653C41.2717 11.5062 41.3666 11.3332 41.4214 11.146C41.4761 10.9588 41.4894 10.7618 41.4602 10.569Z" fill="black"/>
</svg>
