<svg xmlns="http://www.w3.org/2000/svg" width="24" height="24" viewBox="0 0 24 24" fill="none"><rect width="24" height="24" fill="none"/>
<path fill-rule="evenodd" clip-rule="evenodd" d="M21.053 7.70222C20.5574 7.39906 19.9117 7.24749 19.1158 7.24749C18.5822 7.24749 18.0887 7.35032 17.6349 7.55602C17.1904 7.75312 16.8123 8.02309 16.501 8.36589C16.1899 8.70012 15.914 9.08149 15.674 9.50999C15.4428 9.93852 15.2606 10.3927 15.1271 10.8727C15.0437 11.1726 14.9726 11.4658 14.9135 11.7523C14.8198 11.5847 14.7083 11.4286 14.5782 11.284C14.1157 10.7613 13.4443 10.4999 12.5636 10.4999C12.0481 10.4999 11.6566 10.607 11.3897 10.8212H11.3633C11.9236 9.80996 12.7105 9.30432 13.7242 9.30432C14.1424 9.30432 14.5738 9.36859 15.0183 9.49716L15.9657 7.67172C15.3787 7.38889 14.6226 7.24749 13.6975 7.24749C12.8973 7.24749 12.1458 7.43602 11.4431 7.81312C10.7496 8.18162 10.176 8.66156 9.72216 9.25289C9.26866 9.84422 8.91294 10.4913 8.65499 11.194C8.54019 11.5035 8.45076 11.8113 8.38703 12.1174C8.32863 12.0272 8.26289 11.9418 8.19014 11.8613C7.83442 11.4585 7.41629 11.1971 6.93609 11.0771L9.28401 8.80172L9.56399 7.40049H3.5477L3.16094 9.32879H5.33533C5.73544 9.32879 6.04244 9.30736 6.25568 9.26452V9.29022L6.1222 9.39306C6.03344 9.45306 5.9043 9.55589 5.73544 9.70159C5.56659 9.83872 5.40207 9.98869 5.2419 10.1515L3.81433 11.6042L4.08129 12.6969H4.86849C5.88227 12.6969 6.38916 12.9754 6.38916 13.5325C6.38916 13.841 6.247 14.1024 5.96236 14.3166C5.67771 14.5223 5.27293 14.6251 4.74835 14.6251C4.38362 14.6251 4.0279 14.5652 3.68118 14.4452C3.33413 14.3252 3.05849 14.1581 2.85394 13.9438L2.3327 14.5665C2.11579 13.7474 2 12.8871 2 11.9998C2 6.47692 6.48193 1.99976 12.011 1.99976C15.9997 1.99976 19.4439 4.3301 21.053 7.70222ZM3.0605 16.484C4.70631 19.7552 8.09604 21.9998 12.011 21.9998C17.3152 21.9998 21.656 17.8791 22 12.6677C21.9156 12.9933 21.8078 13.3248 21.677 13.6622C21.4547 14.2364 21.1791 14.7507 20.8501 15.2049C20.5297 15.6505 20.1119 16.019 19.596 16.3104C19.0801 16.6018 18.5065 16.7475 17.8751 16.7475C16.2477 16.7475 15.2509 16.1033 14.8855 14.8149C14.7287 15.1108 14.5238 15.3951 14.2712 15.6677C13.6131 16.3875 12.7729 16.7475 11.7501 16.7475C10.763 16.7475 9.93573 16.4475 9.26866 15.8476C8.9126 15.5228 8.65165 15.1248 8.4858 14.6535C8.31227 15.0489 8.04932 15.4165 7.6966 15.7564C7.01185 16.4163 6.04678 16.7463 4.80175 16.7463C4.15937 16.7463 3.57907 16.6589 3.0605 16.484ZM17.9552 14.6907C17.4126 14.6907 17.1413 14.2707 17.1413 13.4309C17.1413 13.0623 17.1814 12.651 17.2615 12.1968C17.3415 11.7425 17.4527 11.2969 17.5952 10.8598C17.7463 10.4142 17.9462 10.0456 18.1951 9.75426C18.4531 9.45429 18.7334 9.30432 19.0357 9.30432C19.5783 9.30432 19.8496 9.72426 19.8496 10.5641C19.8496 10.9412 19.8096 11.3569 19.7295 11.8111C19.6494 12.2653 19.5336 12.711 19.3825 13.148C19.2403 13.5851 19.0401 13.9536 18.7821 14.2536C18.5332 14.545 18.2575 14.6907 17.9552 14.6907ZM10.6428 13.2766C10.6428 13.688 10.754 14.0265 10.9762 14.2921C11.2075 14.5578 11.4788 14.6907 11.7901 14.6907C12.1368 14.6907 12.4215 14.5535 12.6437 14.2793C12.8663 14.0051 12.9774 13.6965 12.9774 13.3537C12.9774 13.0538 12.8796 12.8052 12.6838 12.6081C12.4972 12.411 12.1992 12.3124 11.7901 12.3124C11.4254 12.3124 11.1407 12.4067 10.9362 12.5953C10.7406 12.7752 10.6428 13.0023 10.6428 13.2766Z" fill="white"/>
</svg>
