<svg xmlns="http://www.w3.org/2000/svg" width="24" height="24" viewBox="0 0 24 24" fill="none"><rect width="24" height="24" fill="none"/>
<path d="M4.17481 9.77783C2.97729 9.77783 2 10.7764 2 12.0001C2 13.2237 2.97729 14.2223 4.17481 14.2223C5.3861 14.2223 6.34963 13.2237 6.34963 12.0001C6.34963 10.7764 5.3861 9.77783 4.17481 9.77783ZM4.17481 13.1956C3.52787 13.1956 3.00482 12.6611 3.00482 12.0001C3.00482 11.339 3.52787 10.8046 4.17481 10.8046C4.82175 10.8046 5.3448 11.339 5.3448 12.0001C5.3448 12.6611 4.82175 13.1956 4.17481 13.1956ZM14.2092 9.77783C12.5162 9.77783 11.1535 10.7764 11.1535 12.0001C11.1535 13.2237 12.5162 14.2223 14.2092 14.2223C15.9023 14.2223 17.265 13.2237 17.265 12.0001C17.265 10.7764 15.8885 9.77783 14.2092 9.77783ZM14.2092 13.1956C13.0392 13.1956 12.1721 12.5626 12.1721 12.0141C12.1721 11.4656 13.0392 10.8327 14.2092 10.8327C15.3792 10.8327 16.2464 11.4656 16.2464 12.0141C16.2464 12.5626 15.3654 13.1956 14.2092 13.1956ZM21.4908 9.87628C21.2153 9.87628 20.9814 10.1154 20.9814 10.3967V12.1407L18.2285 9.90441C18.1321 9.82003 17.9945 9.89035 17.9945 10.0169V13.6034C17.9945 13.8847 18.2285 14.1238 18.5038 14.1238C18.7791 14.1238 19.0131 13.8847 19.0131 13.6034V11.8735L21.766 14.1098C21.8623 14.1941 22 14.1238 22 13.9972V10.3967C22 10.1154 21.766 9.87628 21.4908 9.87628ZM10.3551 13.0971H8.62079L10.8231 10.1154C10.8919 10.0169 10.8231 9.87628 10.713 9.87628H7.51962C7.24433 9.87628 7.01032 10.1154 7.01032 10.3967C7.01032 10.678 7.24433 10.9171 7.51962 10.9171H8.9649L6.7488 13.8988C6.67996 13.9972 6.7488 14.1379 6.87268 14.1379H10.3551C10.6304 14.1379 10.8644 13.8988 10.8644 13.6175C10.8644 13.3362 10.6304 13.0971 10.3551 13.0971Z" fill="white"/>
</svg>
