<svg xmlns="http://www.w3.org/2000/svg" width="24" height="24" viewBox="0 0 24 24" fill="none"><rect width="24" height="24" fill="none"/>
<path fill-rule="evenodd" clip-rule="evenodd" d="M15.7339 7.13578C15.969 7.30485 16.1934 7.4849 16.4072 7.67604C16.4771 7.22451 16.4903 5.84611 15.2328 4.29596C13.9964 2.77183 11.1962 2.41958 9.87 2.49414C9.1742 2.56607 8.4958 2.71581 7.8441 2.96349C7.20377 3.20687 6.60522 3.52964 6.05261 3.93022C4.64726 4.94896 3.95972 6.64124 3.80902 7.19165C4.40948 6.82294 5.92174 5.99556 7.1671 5.63569C8.56125 5.22493 9.97838 5.09283 11.4208 5.31744C13.0157 5.5658 14.4403 6.20501 15.7339 7.13578Z" fill="#000000"/>
<path d="M8.44997 10.8257C7.62606 10.7619 6.82025 10.8631 6.04786 11.1594C5.3678 11.4204 4.79522 11.8078 4.3648 12.3562C4.07708 11.9353 3.34882 11.1239 3.34882 9.97135C3.40856 8.7603 4.13023 8.08665 4.64726 7.8823C5.05724 7.72026 6.28654 7.57684 7.5345 8.02927C9.17475 8.62392 9.52967 9.90472 9.78229 10.8163C9.80919 10.9134 9.83492 11.0063 9.86093 11.0937C9.41174 10.9369 8.93575 10.8633 8.44997 10.8257Z" fill="#000000"/>
<path d="M5.92676 7.28011C6.68798 7.09361 8.01114 7.07315 9.0502 7.31359C10.0965 7.55561 11.0401 8.00007 11.8524 8.68723C12.9751 9.6369 13.7516 10.7916 14.0861 12.197C13.7905 12.542 12.7498 13.3447 10.9522 13.7959C11.0126 13.4579 11.0514 13.1172 11.0424 12.7713C11.0155 11.7315 10.8224 10.7248 10.3675 9.77792C9.75458 8.50244 8.76496 7.66644 7.32579 7.40044C6.4355 7.23578 5.57956 7.39411 4.76168 7.76235C4.76168 7.76235 5.16554 7.46661 5.92676 7.28011Z" fill="#000000"/>
<path d="M13.0032 2.30396C14.2378 2.44364 15.3967 2.83641 16.4903 3.41206C17.6294 4.01146 18.662 4.74432 19.5089 5.70766C20.6758 7.03494 21.3899 8.56534 21.6585 10.2927C21.6961 10.5343 21.7184 10.7781 21.7478 11.0209V12.197C21.742 12.2303 21.733 12.2633 21.7307 12.2968C21.7077 12.6356 21.6645 12.972 21.596 13.3047C21.2075 15.1897 20.2987 16.7977 18.882 18.1347C17.9356 19.028 16.8452 19.7007 15.614 20.1544C14.6777 20.4996 13.709 20.6907 12.7068 20.7334C12.2417 20.7531 11.7799 20.7291 11.3171 20.7006C11.2129 20.6943 11.1333 20.7219 11.0509 20.7809C9.75631 21.7081 8.30669 22.2799 6.7322 22.5651C6.40937 22.6235 6.08189 22.6477 5.75697 22.6922H5.29279C5.20785 22.5644 5.2111 22.5276 5.33689 22.4161C5.50585 22.2668 5.68293 22.1261 5.84911 21.9741C6.5224 21.3588 7.10656 20.6656 7.68887 19.9707C7.77033 19.8735 7.76732 19.8723 7.64199 19.8192C6.22973 19.2211 4.9941 18.386 4.01097 17.2209C3.06637 16.1015 2.4908 14.8238 2.31673 13.3798C2.29236 13.1744 2.27379 12.9683 2.25244 12.7625V11.6768C2.2594 11.6399 2.26846 11.6035 2.27287 11.5664C2.41908 10.302 2.88186 9.186 3.87659 8.32015C3.87659 8.32015 3.41635 8.84037 3.22884 9.23644C2.99582 9.72863 2.88906 10.2462 2.92921 10.7867C2.98538 11.5424 3.20516 12.2457 3.68419 12.8548C4.06157 13.3348 4.54617 13.6953 5.07579 14.0004C5.6957 14.3576 6.37618 14.558 7.07314 14.71C7.9386 14.8989 8.81101 14.9921 9.69852 14.8898C10.3458 14.8152 10.9752 14.6607 11.6067 14.5112C12.9229 14.1995 14.0465 13.5571 15.0099 12.6399C15.7616 11.9243 16.404 11.1267 16.8898 10.2145C17.3078 9.42961 17.5598 8.60515 17.5501 7.71147C17.5433 7.09556 17.4011 6.5095 17.1882 5.9352C16.8389 4.9929 16.2958 4.18291 15.4766 3.56361C14.8525 3.092 14.1458 2.78665 13.3852 2.59484C12.229 2.30324 10.3425 2.33903 10.3425 2.33903C10.7084 2.27684 11.7549 2.16272 13.0032 2.30396Z" fill="#000000"/>
</svg>
