<svg xmlns="http://www.w3.org/2000/svg" width="24" height="24" viewBox="0 0 24 24" fill="none"><rect width="24" height="24" fill="none"/>
<path d="M2.96862 11.3257C2.79852 11.3257 2.6413 11.2844 2.49697 11.202C2.3578 11.1195 2.24698 11.0087 2.1645 10.8695C2.08203 10.7252 2.04079 10.568 2.04079 10.3979V6.68656C2.04079 6.51646 2.08203 6.36182 2.1645 6.22265C2.24698 6.07832 2.3578 5.96492 2.49697 5.88244C2.6413 5.79997 2.79852 5.75873 2.96862 5.75873H7.59226V6.38501H2.96862C2.88614 6.38501 2.81398 6.41594 2.75213 6.4778C2.69543 6.5345 2.66707 6.60408 2.66707 6.68656V10.3979C2.66707 10.4803 2.69543 10.5525 2.75213 10.6143C2.81398 10.671 2.88614 10.6994 2.96862 10.6994H7.59226V11.3257H2.96862Z" fill="#0FAF95"/>
<path d="M9.30305 11.3257C9.13295 11.3257 8.97574 11.2844 8.83141 11.202C8.69223 11.1143 8.57883 11.0009 8.49121 10.8618C8.40873 10.7174 8.3675 10.5602 8.3675 10.3901V8.76644H12.2953V7.77676C12.2953 7.69429 12.2644 7.6247 12.2025 7.568C12.1458 7.50615 12.0762 7.47522 11.9937 7.47522H8.3675V6.8412H11.9937C12.169 6.8412 12.3262 6.88502 12.4654 6.97264C12.6097 7.05512 12.7231 7.16852 12.8056 7.31285C12.8932 7.45202 12.937 7.60666 12.937 7.77676V11.3257H9.30305ZM9.30305 10.6917H12.2953V9.40045H9.00151V10.3901C9.00151 10.4726 9.02986 10.5448 9.08656 10.6066C9.14841 10.6633 9.22058 10.6917 9.30305 10.6917Z" fill="#0FAF95"/>
<path d="M13.6982 11.3257V7.77676C13.6982 7.60666 13.7395 7.45202 13.822 7.31285C13.9096 7.16852 14.023 7.05512 14.1622 6.97264C14.3065 6.88502 14.4637 6.8412 14.6338 6.8412H17.1544V7.47522H14.6338C14.5513 7.47522 14.4792 7.50615 14.4173 7.568C14.3606 7.6247 14.3323 7.69429 14.3323 7.77676V11.3257H13.6982Z" fill="#0FAF95"/>
<path d="M18.3739 11.3257C18.1986 11.3257 18.0388 11.2844 17.8945 11.202C17.7553 11.1143 17.6419 11.0009 17.5543 10.8618C17.4718 10.7174 17.4306 10.5602 17.4306 10.3901V7.77675C17.4306 7.60664 17.4718 7.452 17.5543 7.31283C17.6419 7.1685 17.7553 7.0551 17.8945 6.97263C18.0388 6.885 18.1986 6.84118 18.3739 6.84118H21.3661V5.37213H22.0001V11.3257H18.3739ZM18.3739 10.6917H21.0645C21.147 10.6917 21.2166 10.6633 21.2733 10.6066C21.3352 10.5447 21.3661 10.4726 21.3661 10.3901V7.77675C21.3661 7.69427 21.3352 7.62469 21.2733 7.56799C21.2166 7.50613 21.147 7.4752 21.0645 7.4752H18.3739C18.2914 7.4752 18.2192 7.50613 18.1574 7.56799C18.1007 7.62469 18.0723 7.69427 18.0723 7.77675V10.3901C18.0723 10.4726 18.1007 10.5447 18.1574 10.6066C18.2192 10.6633 18.2914 10.6917 18.3739 10.6917Z" fill="#0FAF95"/>
<path d="M2.93549 18.628C2.76539 18.628 2.60824 18.5867 2.46391 18.5043C2.32474 18.4166 2.21134 18.3032 2.12371 18.1641C2.04124 18.0197 2 17.8625 2 17.6924V12.6744H2.63401V17.6924C2.63401 17.7749 2.66236 17.8471 2.719 17.9089C2.78085 17.9656 2.85302 17.994 2.93549 17.994H3.69321V18.628H2.93549Z" fill="#0FAF95"/>
<path d="M4.33315 18.628V14.1435H4.96716V18.628H4.33315ZM4.33315 13.3085V12.6744H4.96716V13.3085H4.33315Z" fill="#0FAF95"/>
<path d="M6.84616 18.628C6.67606 18.628 6.51884 18.5868 6.37451 18.5043C6.23534 18.4167 6.12194 18.3033 6.03431 18.1641C5.95184 18.0198 5.9106 17.8625 5.9106 17.6924V17.6306H6.54461V17.6924C6.54461 17.7749 6.57296 17.8471 6.62967 17.9089C6.69152 17.9656 6.76368 17.994 6.84616 17.994H9.53684C9.61932 17.994 9.6889 17.9656 9.7456 17.9089C9.80746 17.8471 9.83839 17.7749 9.83839 17.6924V17.0043C9.83839 16.9218 9.80746 16.8522 9.7456 16.7955C9.6889 16.7337 9.61932 16.7028 9.53684 16.7028H6.84616C6.67606 16.7028 6.51884 16.6615 6.37451 16.5791C6.23534 16.4914 6.12194 16.378 6.03431 16.2388C5.95184 16.0945 5.9106 15.9373 5.9106 15.7672V15.0791C5.9106 14.909 5.95184 14.7543 6.03431 14.6152C6.12194 14.4708 6.23534 14.3574 6.37451 14.275C6.51884 14.1873 6.67606 14.1435 6.84616 14.1435H9.53684C9.7121 14.1435 9.86931 14.1873 10.0085 14.275C10.1528 14.3574 10.2662 14.4708 10.3487 14.6152C10.4363 14.7543 10.4801 14.909 10.4801 15.0791V15.1409H9.83839V15.0791C9.83839 14.9966 9.80746 14.927 9.7456 14.8703C9.6889 14.8085 9.61932 14.7775 9.53684 14.7775H6.84616C6.76368 14.7775 6.69152 14.8085 6.62967 14.8703C6.57296 14.927 6.54461 14.9966 6.54461 15.0791V15.7672C6.54461 15.8497 6.57296 15.9218 6.62967 15.9837C6.69152 16.0404 6.76368 16.0687 6.84616 16.0687H9.53684C9.7121 16.0687 9.86931 16.1126 10.0085 16.2002C10.1528 16.2827 10.2662 16.3961 10.3487 16.5404C10.4363 16.6796 10.4801 16.8342 10.4801 17.0043V17.6924C10.4801 17.8625 10.4363 18.0198 10.3487 18.1641C10.2662 18.3033 10.1528 18.4167 10.0085 18.5043C9.86931 18.5868 9.7121 18.628 9.53684 18.628H6.84616Z" fill="#0FAF95"/>
<path d="M12.1853 18.628C12.01 18.628 11.8503 18.5867 11.7059 18.5043C11.5668 18.4166 11.4559 18.3032 11.3735 18.1641C11.291 18.0197 11.2497 17.8625 11.2497 17.6924V12.6744H11.8838V14.1435H13.8245V14.7775H11.8838V17.6924C11.8838 17.7749 11.9121 17.8471 11.9688 17.9089C12.0307 17.9656 12.1028 17.994 12.1853 17.994H13.8245V18.628H12.1853Z" fill="#0FAF95"/>
</svg>
