<svg xmlns="http://www.w3.org/2000/svg" width="90" height="24" viewBox="0 0 90 24" fill="none"><rect width="90" height="24" fill="none"/>
<path d="M66.9249 19.2956C66.9249 20.38 66.133 21.2101 64.9262 21.2101C63.6921 21.2101 62.927 20.4027 62.927 19.1345C62.927 18.7657 62.9422 18.5114 62.9806 18.0041C63.0883 16.7284 63.6189 15.9668 65.0723 15.7132L66.6096 15.4466V16.0923L65.087 16.361C64.0959 16.5378 63.7113 16.9299 63.6265 18.0295C63.8574 17.6449 64.3264 17.3837 65.0102 17.3837C66.1406 17.3817 66.9249 18.1117 66.9249 19.2956ZM66.2023 19.2956C66.2023 18.5964 65.7637 18.0274 64.9262 18.0274C64.0883 18.0274 63.6497 18.5964 63.6497 19.2956C63.6497 19.9948 64.0803 20.5644 64.9262 20.5644C65.7721 20.5644 66.2023 19.9955 66.2023 19.2956Z" fill="#000000"/>
<path d="M67.4714 17.3205H68.1708V20.1804L70.3772 17.3205H71.0771V21.1181H70.3772V18.2356L68.1708 21.1181H67.4714V17.3205Z" fill="#000000"/>
<path d="M74.4987 20.0036C74.4987 19.6609 74.245 19.5039 73.6997 19.5039H73.069V18.8869H73.7042C74.1508 18.8869 74.4344 18.7259 74.4344 18.3639C74.4344 18.0335 74.0655 17.8491 73.4656 17.8491C72.8658 17.8491 72.5514 18.0877 72.3973 18.3872H71.7117C71.8193 17.8258 72.4192 17.2219 73.4804 17.2219C74.4947 17.2219 75.1254 17.6448 75.1254 18.3447C75.1312 18.5309 75.0744 18.7137 74.9641 18.8641C74.8543 19.0144 74.697 19.1238 74.5179 19.1748C74.9101 19.2749 75.2254 19.5519 75.2254 19.9974C75.2254 20.7515 74.5398 21.2121 73.5027 21.2121C72.3499 21.2121 71.7117 20.5815 71.6197 19.959H72.3347C72.45 20.2277 72.8037 20.5815 73.5 20.5815C74.1155 20.5801 74.4987 20.4265 74.4987 20.0036Z" fill="#000000"/>
<path d="M75.7754 17.3205H76.4748V18.8745H78.6044V17.3205H79.3038V21.1181H78.6044V19.5038H76.4748V21.1181H75.7754V17.3205Z" fill="#000000"/>
<path d="M83.7177 19.3046H80.559C80.5975 20.0114 81.1075 20.5652 81.8503 20.5652C82.6194 20.5652 82.9115 20.158 82.9807 20.0347H83.6726C83.619 20.3576 83.1241 21.2109 81.8503 21.2109C80.685 21.2109 79.8516 20.3342 79.8516 19.223C79.8516 18.07 80.6667 17.2351 81.7811 17.2351C82.8959 17.2351 83.7177 18.0591 83.7177 19.3046ZM80.6037 18.7199H82.941C82.7717 18.1509 82.3487 17.8288 81.7797 17.8288C81.1759 17.8281 80.7502 18.1742 80.6037 18.7199Z" fill="#000000"/>
<path d="M86.1853 17.8747C85.4863 17.8747 84.9866 18.4738 84.9866 19.2196C84.9866 19.9654 85.4863 20.5652 86.1938 20.5652C86.962 20.5652 87.2466 20.0655 87.3082 19.9346H88C87.954 20.1964 87.5543 21.2109 86.1938 21.2109C85.1094 21.2109 84.2639 20.3425 84.2639 19.223C84.2639 18.1036 85.1018 17.2351 86.1836 17.2351C87.5543 17.2351 87.9447 18.2264 87.9978 18.5108H87.2903C87.2314 18.3819 86.9397 17.8747 86.1853 17.8747Z" fill="#000000"/>
<path d="M23.8566 7.26173C25.3119 7.26173 25.8562 8.23242 25.9734 8.46753H27.3258C27.2086 7.92325 26.4882 6.02719 23.8566 6.02719C21.7836 6.02719 20.1817 7.68814 20.1817 9.83438C20.1817 11.9807 21.7987 13.6416 23.8689 13.6416C26.4738 13.6416 27.2504 11.7161 27.3238 11.2013H26.0008C25.8829 11.4515 25.3393 12.407 23.8689 12.407C22.5171 12.407 21.5616 11.2602 21.5616 9.83438C21.5616 8.40857 22.5192 7.26173 23.8566 7.26173Z" fill="#000000"/>
<path d="M30.2161 11.6722V6.20335H28.8787V13.4654H30.2161L34.4353 7.95272V13.4654H35.7727V6.20335H34.4353L30.2161 11.6722Z" fill="#000000"/>
<path d="M36.9811 7.40911H39.9212V13.4654H41.2592V7.40911H44.1993V6.20335H36.9811V7.40911Z" fill="#000000"/>
<path d="M46.7452 11.6722V6.20335H45.4078V13.4654H46.7452L50.9637 7.95272V13.4654H52.3018V6.20335H50.9637L46.7452 11.6722Z" fill="#000000"/>
<path d="M55.0537 10.2313C54.892 11.8765 54.6857 12.3632 53.6861 12.3632H53.5101V13.5682H53.9067C55.4503 13.5682 56.0238 12.5537 56.2445 10.3197L56.5232 7.40911H59.5224V13.4654H60.8596V6.20335H55.4503L55.0537 10.2313Z" fill="#000000"/>
<path d="M64.2961 11.6722V6.20335H62.9584V13.4654H64.2961L68.5151 7.95272V13.4654H69.8528V6.20335H68.5151L64.2961 11.6722Z" fill="#000000"/>
<path d="M77.3597 9.1729H73.2881V6.20335H71.9504V13.4654H73.2881V10.3787H77.3597V13.4654H78.6978V6.20335H77.3597V9.1729Z" fill="#000000"/>
<path d="M83.5158 9.68703L87.8085 6.20335H85.8973L82.0754 9.34905V6.20335H80.7819V13.4654H82.0754V10.1429L86.1028 13.4654H87.9996L83.5158 9.68703Z" fill="#000000"/>
<path fill-rule="evenodd" clip-rule="evenodd" d="M5.92752 2.05848L13.8176 3.54755C14.3857 3.65472 14.8985 3.95699 15.2675 4.40213C15.6364 4.84727 15.8382 5.4073 15.838 5.98544V13.2841C15.8381 13.8622 15.6361 14.422 15.2673 14.867C14.8983 15.312 14.3856 15.6142 13.8176 15.7213L5.92752 17.2111C5.4486 17.3014 4.95565 17.2849 4.48382 17.1629C4.01198 17.0408 3.57288 16.8162 3.19779 16.505C2.82271 16.1938 2.52088 15.8038 2.31382 15.3626C2.10676 14.9214 1.99957 14.44 1.99988 13.9526V5.31424C1.99985 4.82706 2.10726 4.34589 2.31445 3.90497C2.52165 3.46406 2.82353 3.07426 3.1986 2.76336C3.57366 2.45246 4.01268 2.2281 4.48437 2.10626C4.95605 1.98442 5.44881 1.96811 5.92752 2.05848ZM7.06745 14.3935L12.6103 13.5279L12.6165 12.2319L6.80891 13.1022C6.74554 13.1118 6.68083 13.1075 6.61927 13.0897C6.55767 13.0719 6.50065 13.0411 6.45207 12.9992C6.40351 12.9574 6.36454 12.9056 6.33783 12.8473C6.31113 12.789 6.29732 12.7257 6.29735 12.6616V6.87105C6.29787 6.8075 6.31198 6.74483 6.33873 6.68718C6.36549 6.62954 6.40427 6.5783 6.45247 6.53687C6.50065 6.49545 6.55718 6.46483 6.6182 6.44705C6.67918 6.42928 6.74331 6.42477 6.8062 6.43382L12.6103 7.29056L12.6042 5.99795L7.06745 5.1378C6.81345 5.09809 6.55385 5.11388 6.30655 5.18409C6.05924 5.2543 5.83007 5.37725 5.63483 5.5445C5.43958 5.71174 5.28288 5.9193 5.17552 6.1529C5.06816 6.3865 5.01269 6.64056 5.01291 6.89767V12.6357C5.01298 12.8926 5.06867 13.1464 5.17616 13.3798C5.28365 13.6131 5.44039 13.8204 5.6356 13.9875C5.83082 14.1545 6.05988 14.2772 6.30705 14.3473C6.5542 14.4174 6.81363 14.4331 7.06745 14.3935Z" fill="#000000"/>
<path d="M12.6103 13.5279L7.06745 14.3935C6.81363 14.4331 6.5542 14.4174 6.30705 14.3473C6.05988 14.2772 5.83082 14.1545 5.6356 13.9875C5.44039 13.8204 5.28365 13.6131 5.17616 13.3798C5.06867 13.1464 5.01298 12.8926 5.01291 12.6357V6.89767C5.01269 6.64056 5.06816 6.3865 5.17552 6.1529C5.28288 5.9193 5.43958 5.71174 5.63483 5.5445C5.83007 5.37725 6.05924 5.2543 6.30655 5.18409C6.55385 5.11388 6.81345 5.09809 7.06745 5.1378L12.6042 5.99795L12.6103 7.29056L6.8062 6.43382C6.74331 6.42477 6.67918 6.42928 6.6182 6.44705C6.55718 6.46483 6.50065 6.49545 6.45247 6.53687C6.40427 6.5783 6.36549 6.62954 6.33873 6.68718C6.31198 6.74483 6.29787 6.8075 6.29735 6.87105V12.6616C6.29732 12.7257 6.31113 12.789 6.33783 12.8473C6.36454 12.9056 6.40351 12.9574 6.45207 12.9992C6.50065 13.0411 6.55767 13.0719 6.61927 13.0897C6.68083 13.1075 6.74554 13.1118 6.80891 13.1022L12.6165 12.2319L12.6103 13.5279Z" fill="#000000"/>
</svg>
