<svg xmlns="http://www.w3.org/2000/svg" width="24" height="24" viewBox="0 0 24 24" fill="none"><rect width="24" height="24" fill="none"/>
<path fill-rule="evenodd" clip-rule="evenodd" d="M8.0814 2.07533L18.4172 4.02597C19.1614 4.16636 19.8332 4.56233 20.3165 5.14545C20.7997 5.72857 21.0641 6.4622 21.0639 7.21955V16.7806C21.064 17.5379 20.7995 18.2713 20.3162 18.8542C19.8329 19.4371 19.1613 19.833 18.4172 19.9733L8.0814 21.9249C7.45402 22.0431 6.80827 22.0216 6.19018 21.8617C5.57209 21.7018 4.99687 21.4076 4.50552 21C4.01417 20.5923 3.61878 20.0813 3.34754 19.5033C3.0763 18.9254 2.93587 18.2948 2.93628 17.6563V6.34029C2.93624 5.70211 3.07694 5.07177 3.34836 4.49419C3.61978 3.9166 4.01524 3.40598 4.50657 2.99871C4.9979 2.59143 5.573 2.29752 6.1909 2.13792C6.80879 1.97831 7.45429 1.95694 8.0814 2.07533ZM9.57467 18.2338L16.8357 17.0999L16.8438 15.4022L9.236 16.5423C9.15298 16.5549 9.06821 16.5492 8.98757 16.526C8.90688 16.5027 8.83218 16.4622 8.76854 16.4074C8.70492 16.3527 8.65388 16.2848 8.6189 16.2084C8.58392 16.1321 8.56582 16.0491 8.56586 15.9651V8.37968C8.56654 8.29642 8.58502 8.21433 8.62007 8.13882C8.65512 8.0633 8.70592 7.99617 8.76906 7.94191C8.83218 7.88765 8.90623 7.84754 8.98617 7.82425C9.06605 7.80097 9.15006 7.79506 9.23245 7.80692L16.8357 8.92923L16.8277 7.23594L9.57467 6.10916C9.24194 6.05714 8.90187 6.07782 8.57792 6.1698C8.25394 6.26177 7.95374 6.42284 7.69797 6.64192C7.4422 6.86101 7.23693 7.13291 7.09629 7.43892C6.95565 7.74492 6.88299 8.07774 6.88328 8.41455V15.9312C6.88337 16.2677 6.95633 16.6003 7.09713 16.9059C7.23794 17.2116 7.44327 17.4832 7.69899 17.702C7.95471 17.9208 8.25478 18.0816 8.57857 18.1734C8.90233 18.2652 9.24217 18.2858 9.57467 18.2338Z" fill="#000000"/>
<path d="M16.8357 17.0999L9.57467 18.2338C9.24217 18.2858 8.90233 18.2652 8.57857 18.1734C8.25478 18.0816 7.95471 17.9208 7.69899 17.702C7.44327 17.4832 7.23794 17.2116 7.09713 16.9059C6.95633 16.6003 6.88337 16.2677 6.88328 15.9312V8.41455C6.88299 8.07774 6.95565 7.74492 7.09629 7.43892C7.23693 7.13291 7.4422 6.86101 7.69797 6.64192C7.95374 6.42284 8.25394 6.26177 8.57792 6.1698C8.90187 6.07782 9.24194 6.05714 9.57467 6.10916L16.8277 7.23594L16.8357 8.92923L9.23245 7.80692C9.15006 7.79506 9.06605 7.80097 8.98617 7.82425C8.90623 7.84754 8.83218 7.88765 8.76906 7.94191C8.70592 7.99617 8.65512 8.0633 8.62007 8.13882C8.58502 8.21433 8.56654 8.29642 8.56586 8.37968V15.9651C8.56582 16.0491 8.58392 16.1321 8.6189 16.2084C8.65388 16.2848 8.70492 16.3527 8.76854 16.4074C8.83218 16.4622 8.90688 16.5027 8.98757 16.526C9.06821 16.5492 9.15298 16.5549 9.236 16.5423L16.8438 15.4022L16.8357 17.0999Z" fill="#000000"/>
</svg>
