<svg xmlns="http://www.w3.org/2000/svg" width="48" height="24" viewBox="0 0 48 24" fill="none"><rect width="48" height="24" fill="none"/>
<path d="M41.2692 13.8956C40.388 13.8956 39.5674 13.7524 38.8074 13.466C38.0584 13.1686 37.4031 12.7556 36.8414 12.2269C36.2906 11.6872 35.861 11.0539 35.5527 10.3269C35.2443 9.59999 35.0901 8.80691 35.0901 7.94778C35.0901 7.08866 35.2443 6.29563 35.5527 5.5687C35.861 4.84171 36.2961 4.2139 36.8579 3.68521C37.4196 3.1455 38.0749 2.73246 38.8239 2.44609C39.5729 2.14869 40.3935 2 41.2857 2C42.2329 2 43.0976 2.16522 43.8796 2.49565C44.6616 2.81507 45.3225 3.2942 45.8622 3.93303L44.4743 5.23822C44.0558 4.78667 43.5877 4.45071 43.07 4.23042C42.5523 3.99912 41.9906 3.88347 41.3848 3.88347C40.779 3.88347 40.2228 3.9826 39.7161 4.18086C39.2204 4.37912 38.7854 4.65999 38.4109 5.02347C38.0474 5.38693 37.7611 5.8165 37.5518 6.31215C37.3535 6.80781 37.2544 7.35304 37.2544 7.94778C37.2544 8.54258 37.3535 9.08781 37.5518 9.58347C37.7611 10.0791 38.0474 10.5087 38.4109 10.8722C38.7854 11.2356 39.2204 11.5165 39.7161 11.7148C40.2228 11.913 40.779 12.0121 41.3848 12.0121C41.9906 12.0121 42.5523 11.902 43.07 11.6817C43.5877 11.4504 44.0558 11.1034 44.4743 10.6408L45.8622 11.9626C45.3225 12.5904 44.6616 13.0695 43.8796 13.4C43.0976 13.7304 42.2274 13.8956 41.2692 13.8956Z" fill="#212124"/>
<path d="M33.4326 6.40001C34.3531 6.93777 34.3531 8.28208 33.4326 8.81979L26.652 12.9787C25.7315 13.5164 24.5809 12.8443 24.5809 11.7689V3.45096C24.5809 2.37551 25.7315 1.70335 26.652 2.24108L33.4326 6.40001Z" fill="#EF3124"/>
<path d="M24.5815 8.70145C24.5815 8.6283 24.6189 8.56026 24.6806 8.52104L26.3686 7.44781C26.5109 7.35731 26.6972 7.45957 26.6972 7.62828V13.7264H24.5815V8.70145Z" fill="#212124"/>
<path d="M4.77984 21.2448H4.40642V18.5616H2.78686V21.2448H2.40715V18.2176H4.77984V21.2448ZM6.64904 18.9434C6.93715 18.9434 7.16721 19.0497 7.33924 19.2623C7.51267 19.4749 7.59938 19.7588 7.59938 20.114C7.59938 20.4679 7.51267 20.7518 7.33924 20.9658C7.16582 21.1783 6.93575 21.2847 6.64904 21.2847C6.48821 21.2847 6.34555 21.2518 6.22108 21.186C6.0966 21.1189 6.0036 21.0252 5.94206 20.905H5.9085V22H5.54766V18.9833H5.89171V19.3609H5.92528C5.99801 19.2308 6.098 19.1287 6.22527 19.0546C6.35394 18.9805 6.4952 18.9434 6.64904 18.9434ZM6.56303 20.9595C6.77002 20.9595 6.93226 20.8847 7.04974 20.735C7.16721 20.5854 7.22596 20.3784 7.22596 20.114C7.22596 19.8497 7.16721 19.6427 7.04974 19.4931C6.93365 19.3434 6.77212 19.2686 6.56513 19.2686C6.36094 19.2686 6.1987 19.3448 6.07842 19.4973C5.95814 19.6483 5.898 19.8539 5.898 20.114C5.898 20.3728 5.95744 20.5784 6.07632 20.7308C6.1966 20.8833 6.35884 20.9595 6.56303 20.9595ZM9.90075 20.972C9.71475 21.1805 9.46089 21.2847 9.13924 21.2847C8.81752 21.2847 8.56302 21.1805 8.37561 20.972C8.18955 20.7623 8.09659 20.4763 8.09659 20.114C8.09659 19.7504 8.18955 19.4644 8.37561 19.256C8.56161 19.0476 8.81617 18.9434 9.13924 18.9434C9.4623 18.9434 9.71681 19.0476 9.90286 19.256C10.0889 19.4644 10.1819 19.7504 10.1819 20.114C10.1819 20.4763 10.0882 20.7623 9.90075 20.972ZM8.64411 20.7392C8.76019 20.8861 8.92525 20.9595 9.13924 20.9595C9.35322 20.9595 9.51823 20.8861 9.63431 20.7392C9.75038 20.5909 9.80842 20.3825 9.80842 20.114C9.80842 19.8455 9.75038 19.6378 9.63431 19.491C9.51823 19.3427 9.35322 19.2686 9.13924 19.2686C8.92525 19.2686 8.76019 19.3427 8.64411 19.491C8.52803 19.6378 8.46999 19.8455 8.46999 20.114C8.46999 20.3825 8.52803 20.5909 8.64411 20.7392ZM11.6923 19.2623C11.5119 19.2623 11.3637 19.3231 11.2476 19.4448C11.1315 19.5665 11.0665 19.7274 11.0525 19.9273H12.2986C12.2944 19.7274 12.2371 19.5665 12.1266 19.4448C12.0161 19.3231 11.8713 19.2623 11.6923 19.2623ZM12.2881 20.6595H12.6489C12.5944 20.8553 12.4832 21.0085 12.3154 21.1189C12.149 21.2294 11.9426 21.2847 11.6965 21.2847C11.3832 21.2847 11.135 21.1797 10.9518 20.97C10.7686 20.7588 10.677 20.4742 10.677 20.1162C10.677 19.7595 10.7693 19.4749 10.9539 19.2623C11.1385 19.0497 11.386 18.9434 11.6965 18.9434C12.0014 18.9434 12.2413 19.0448 12.4161 19.2476C12.5909 19.4504 12.6783 19.7281 12.6783 20.0805V20.219H11.0525V20.2357C11.0622 20.4595 11.1252 20.6371 11.2413 20.7686C11.3588 20.9 11.5133 20.9658 11.7049 20.9658C11.9972 20.9658 12.1916 20.8637 12.2881 20.6595ZM13.744 20.2147H13.6454V21.2448H13.2846V18.9833H13.6454V19.9294H13.744L14.6399 18.9833H15.0783L14.0419 20.049L15.1182 21.2448H14.6503L13.744 20.2147ZM17.1552 18.9833V19.2854H16.4209V21.2448H16.0601V19.2854H15.3259V18.9833H17.1552ZM20.9103 21.2448L20.6062 20.3784H19.402L19.0978 21.2448H18.7013L19.8174 18.2176H20.1908L21.3069 21.2448H20.9103ZM19.9873 18.7063L19.5132 20.0574H20.495L20.0209 18.7063H19.9873ZM22.3537 20.2525C22.3439 20.3825 22.3299 20.4973 22.3118 20.5965C22.2936 20.6958 22.2677 20.7889 22.2341 20.8756C22.202 20.9623 22.1614 21.0336 22.1125 21.0895C22.0649 21.1441 22.0055 21.1867 21.9341 21.2175C21.8628 21.2483 21.781 21.2637 21.6887 21.2637C21.6369 21.2637 21.5929 21.256 21.5565 21.2406V20.9091C21.5901 20.9203 21.6279 20.9259 21.6698 20.9259C21.7761 20.9259 21.8551 20.8686 21.9068 20.7539C21.96 20.6378 21.9943 20.4679 22.0096 20.2441L22.0978 18.9833H23.5767V21.2448H23.2159V19.2854H22.425L22.3537 20.2525ZM25.1019 20.0113H24.6551V20.9427H25.1019C25.2502 20.9427 25.3683 20.9007 25.4565 20.8168C25.546 20.7315 25.5907 20.6182 25.5907 20.477C25.5907 20.3357 25.546 20.2231 25.4565 20.1392C25.3683 20.0539 25.2502 20.0113 25.1019 20.0113ZM24.2942 21.2448V18.9833H24.6551V19.7091H25.1019C25.3607 19.7091 25.567 19.7784 25.7208 19.9168C25.8746 20.0553 25.9515 20.242 25.9515 20.477C25.9515 20.7119 25.8746 20.8987 25.7208 21.0371C25.567 21.1756 25.3607 21.2448 25.1019 21.2448H24.2942ZM27.569 20.9595V19.2686C27.3228 19.2742 27.1277 19.3525 26.9837 19.5035C26.8411 19.6532 26.7697 19.8567 26.7697 20.114C26.7697 20.37 26.8411 20.5735 26.9837 20.7245C27.1277 20.8741 27.3228 20.9525 27.569 20.9595ZM28.7187 20.114C28.7187 19.8581 28.6466 19.6553 28.5026 19.5057C28.3599 19.3546 28.1662 19.2756 27.9215 19.2686V20.9595C28.1662 20.9539 28.3599 20.8763 28.5026 20.7266C28.6466 20.5756 28.7187 20.3714 28.7187 20.114ZM27.569 21.2721C27.2166 21.2651 26.934 21.1574 26.7215 20.949C26.5089 20.7392 26.4026 20.4609 26.4026 20.114C26.4026 19.7658 26.5089 19.4875 26.7215 19.2791C26.934 19.0693 27.2166 18.9616 27.569 18.956V18.2176H27.9215V18.956C28.2725 18.963 28.5543 19.0714 28.7669 19.2812C28.9795 19.4895 29.0858 19.7672 29.0858 20.114C29.0858 20.4623 28.9795 20.7413 28.7669 20.9511C28.5543 21.1595 28.2725 21.2665 27.9215 21.2721V22H27.569V21.2721ZM30.3928 20.9679C30.5788 20.9679 30.7326 20.914 30.8543 20.8063C30.9774 20.6987 31.0389 20.5637 31.0389 20.4014V20.1938L30.4305 20.2336C30.2599 20.2448 30.1347 20.2805 30.055 20.3406C29.9753 20.4008 29.9354 20.4882 29.9354 20.6028C29.9354 20.7161 29.9781 20.8056 30.0634 20.8714C30.1487 20.9357 30.2585 20.9679 30.3928 20.9679ZM30.3256 21.2847C30.1033 21.2847 29.92 21.2238 29.776 21.1021C29.6333 20.979 29.562 20.8154 29.562 20.6112C29.562 20.4098 29.6333 20.2518 29.776 20.1371C29.9186 20.0224 30.1221 19.9574 30.3865 19.942L31.0389 19.9022V19.6965C31.0389 19.5567 30.9956 19.4497 30.9088 19.3756C30.8221 19.3014 30.6948 19.2644 30.527 19.2644C30.3913 19.2644 30.2788 19.2889 30.1892 19.3378C30.0997 19.3868 30.0424 19.456 30.0172 19.5455H29.6522C29.676 19.3651 29.769 19.2196 29.9312 19.1091C30.0949 18.9987 30.2977 18.9434 30.5396 18.9434C30.8137 18.9434 31.0256 19.0099 31.1753 19.1427C31.3249 19.2756 31.3997 19.4602 31.3997 19.6965V21.2448H31.0557V20.9112H31.0221C30.9494 21.0315 30.8529 21.1238 30.7326 21.1882C30.6123 21.2525 30.4767 21.2847 30.3256 21.2847ZM33.4493 20.198H32.0731V19.856H33.4493V20.198ZM36.2521 20.3364C36.2521 20.6035 36.1612 20.8217 35.9794 20.9909C35.7989 21.1602 35.5668 21.2448 35.2829 21.2448H34.1815V18.2176H35.95V18.5574H34.5591V19.4239H35.2787C35.564 19.4239 35.7976 19.5091 35.9794 19.6798C36.1612 19.849 36.2521 20.0679 36.2521 20.3364ZM34.5591 20.905H35.1843C35.4011 20.905 35.5682 20.856 35.6857 20.7581C35.8045 20.6588 35.864 20.5182 35.864 20.3364C35.864 20.1532 35.8045 20.012 35.6857 19.9126C35.5682 19.8133 35.4011 19.7637 35.1843 19.7637H34.5591V20.905ZM37.5423 20.9679C37.7283 20.9679 37.8821 20.914 38.0039 20.8063C38.1269 20.6987 38.1884 20.5637 38.1884 20.4014V20.1938L37.5801 20.2336C37.4094 20.2448 37.2843 20.2805 37.2045 20.3406C37.1248 20.4008 37.085 20.4882 37.085 20.6028C37.085 20.7161 37.1276 20.8056 37.2129 20.8714C37.2983 20.9357 37.4081 20.9679 37.5423 20.9679ZM37.4751 21.2847C37.2528 21.2847 37.0696 21.2238 36.9255 21.1021C36.7829 20.979 36.7115 20.8154 36.7115 20.6112C36.7115 20.4098 36.7829 20.2518 36.9255 20.1371C37.0682 20.0224 37.2717 19.9574 37.536 19.942L38.1884 19.9022V19.6965C38.1884 19.5567 38.1451 19.4497 38.0584 19.3756C37.9717 19.3014 37.8444 19.2644 37.6766 19.2644C37.5409 19.2644 37.4283 19.2889 37.3388 19.3378C37.2493 19.3868 37.1919 19.456 37.1668 19.5455H36.8017C36.8255 19.3651 36.9185 19.2196 37.0808 19.1091C37.2444 18.9987 37.4472 18.9434 37.6891 18.9434C37.9633 18.9434 38.1752 19.0099 38.3248 19.1427C38.4745 19.2756 38.5493 19.4602 38.5493 19.6965V21.2448H38.2052V20.9112H38.1717C38.0989 21.0315 38.0024 21.1238 37.8821 21.1882C37.7619 21.2525 37.6262 21.2847 37.4751 21.2847ZM40.7458 21.2448V20.221H39.6171V21.2448H39.2563V18.9833H39.6171V19.9189H40.7458V18.9833H41.1066V21.2448H40.7458ZM42.2835 20.2147H42.1849V21.2448H41.824V18.9833H42.1849V19.9294H42.2835L43.1793 18.9833H43.6177L42.5814 20.049L43.6576 21.2448H43.1898L42.2835 20.2147ZM44.7968 20.9679C44.9827 20.9679 45.1366 20.914 45.2582 20.8063C45.3813 20.6987 45.4429 20.5637 45.4429 20.4014V20.1938L44.8345 20.2336C44.6639 20.2448 44.5387 20.2805 44.459 20.3406C44.3792 20.4008 44.3394 20.4882 44.3394 20.6028C44.3394 20.7161 44.3821 20.8056 44.4674 20.8714C44.5527 20.9357 44.6624 20.9679 44.7968 20.9679ZM44.7296 21.2847C44.5072 21.2847 44.324 21.2238 44.18 21.1021C44.0373 20.979 43.966 20.8154 43.966 20.6112C43.966 20.4098 44.0373 20.2518 44.18 20.1371C44.3226 20.0224 44.5261 19.9574 44.7905 19.942L45.4429 19.9022V19.6965C45.4429 19.5567 45.3996 19.4497 45.3128 19.3756C45.2261 19.3014 45.0988 19.2644 44.931 19.2644C44.7953 19.2644 44.6827 19.2889 44.5932 19.3378C44.5037 19.3868 44.4464 19.456 44.4212 19.5455H44.0562C44.0799 19.3651 44.173 19.2196 44.3352 19.1091C44.4988 18.9987 44.7016 18.9434 44.9436 18.9434C45.2177 18.9434 45.4296 19.0099 45.5793 19.1427C45.7289 19.2756 45.8037 19.4602 45.8037 19.6965V21.2448H45.4596V20.9112H45.4261C45.3534 21.0315 45.2569 21.1238 45.1366 21.1882C45.0163 21.2525 44.8807 21.2847 44.7296 21.2847Z" fill="#030306" fill-opacity="0.88"/>
<path d="M12.0782 13.7306H9.64955L6.26213 8.85668H4.11478V13.7306H2V2.16539H4.11478V7.00624H6.33446L9.64955 2.16539H11.9296L7.97513 7.75976L12.0782 13.7306Z" fill="#030306" fill-opacity="0.88"/>
<path d="M13.8466 11.9132C14.4524 12.1225 14.9865 12.1775 15.4492 12.0784C15.9118 11.9793 16.3248 11.6433 16.6883 11.0706L16.8682 10.7901L12.2605 2.16539H14.557L17.983 8.96125L21.4961 2.16539H23.6109L18.5883 11.5001C18.1808 12.2822 17.6961 12.8769 17.1344 13.2845C16.5727 13.692 15.9669 13.9178 15.317 13.9618C14.6782 14.0169 14.0118 13.8958 13.3179 13.5984L13.8466 11.9132Z" fill="#030306" fill-opacity="0.88"/>
</svg>
