<svg xmlns="http://www.w3.org/2000/svg" width="283" height="24" viewBox="0 0 283 24" fill="none"><rect width="283" height="24" fill="none"/>
<path fill-rule="evenodd" clip-rule="evenodd" d="M42.348 2.55652C41.7567 4.64348 41.7567 4.64348 41.7567 4.64348C40.5045 2.93913 38.1045 2.10434 35.6697 2.10434C28.435 2.10434 23.0437 7.77392 23.0089 14.4174C22.9741 18.7304 26.2089 21.9652 30.9741 21.9652C33.5132 21.9652 35.9132 21.1304 37.8263 19.4956C37.3045 21.4435 37.3045 21.4435 37.3045 21.4435H40.8524L45.8958 2.59131L42.348 2.55652ZM31.7393 18.4522C28.9567 18.4522 26.7306 16.9217 26.7306 13.6522C26.7306 9.44348 30.3132 5.51305 34.8697 5.51305C38.1393 5.51305 39.948 7.21739 39.948 10.1391C39.9828 14.4174 36.2958 18.4522 31.7393 18.4522Z" fill="#FB090B"/>
<path fill-rule="evenodd" clip-rule="evenodd" d="M10.6263 18.4522C7.46105 18.4522 5.72192 16.5043 5.72192 13.6522C5.72192 9.54783 9.548 5.47826 14.1741 5.47826C17.2697 5.47826 19.0436 7.18261 19.3567 9.65217C23.0089 9.65217 23.0089 9.65217 23.0089 9.65217C23.148 5.23478 20.1915 2 14.8002 2C7.14801 2 1.96539 8.26087 2.00017 14.2087C2.03496 18.9044 5.40887 22 10.3828 22C15.3567 22 19.9132 18.8348 22.1741 14.3478C17.8958 14.3478 17.8958 14.3478 17.8958 14.3478C16.435 16.7826 13.5828 18.4522 10.6263 18.4522Z" fill="#FB090B"/>
<path fill-rule="evenodd" clip-rule="evenodd" d="M100.052 13.687C104.331 13.7217 107.391 10.9043 107.391 7.3913C107.391 4.1913 104.609 2.59131 101.27 2.59131C91.5654 2.59131 91.5654 2.59131 91.5654 2.59131L86.5219 21.4435H90.0002L92.261 13.0957L101.444 21.4435H106.731L106.765 21.3043L98.3132 13.687H100.052ZM94.1393 6.10434C101.2 6.10434 101.2 6.10434 101.2 6.10434C102.765 6.10434 103.6 6.76522 103.6 7.87826C103.6 9.58261 101.861 10.2783 100.157 10.2783C92.9915 10.2783 92.9915 10.2783 92.9915 10.2783" fill="#FB090B"/>
<path fill-rule="evenodd" clip-rule="evenodd" d="M59.5306 2.55652C56.0523 15.5304 56.0523 15.5304 56.0523 15.5304H53.5828L57.061 2.55652H47.635L42.5915 21.4087H46.1393L50.2437 6.06957H52.6089L49.1306 19.0435H58.6958L62.1741 6.06957H64.5045L60.4002 21.4087H63.9132L68.9567 2.55652H59.5306Z" fill="#FB090B"/>
<path fill-rule="evenodd" clip-rule="evenodd" d="M82.2437 15.5304C80.748 17.5478 78.5219 18.487 76.2263 18.487C72.6784 18.487 70.9045 16.1565 71.2176 13.0957C87.4958 13.0957 87.4958 13.0957 87.4958 13.0957C87.6697 12.7478 87.8089 12.2261 87.9132 11.8087C89.235 6.45218 86.2784 2.03478 80.1567 2.03478C72.6089 2.03478 67.3915 8.29565 67.4263 14.3826C67.461 18.8348 70.6263 21.9652 75.5306 21.9652C80.435 21.9652 84.2263 19.5652 86.5915 15.4956C82.2437 15.4956 82.2437 15.4956 82.2437 15.4956V15.5304ZM79.4611 5.37392C82.3132 5.37392 84.2958 6.90435 84.5393 9.61739C72.4002 9.61739 72.4002 9.61739 72.4002 9.61739C73.9306 6.90435 76.6089 5.37392 79.4611 5.37392Z" fill="#FB090B"/>
<path fill-rule="evenodd" clip-rule="evenodd" d="M199.357 13.2348C199.357 9.26956 202.522 6.13913 208.539 6.13913C216.713 6.13913 216.713 6.13913 216.713 6.13913L217.652 2.55652H208.435C200.122 2.55652 195.774 7.77391 195.635 13.3043C195.531 17.4783 198.278 21.4087 204.574 21.4087C212.609 21.4087 212.609 21.4087 212.609 21.4087L213.583 17.8609H205.026C201.165 17.8957 199.357 15.8087 199.357 13.2348Z" fill="#FB090B"/>
<path fill-rule="evenodd" clip-rule="evenodd" d="M257.931 7.3913C257.931 4.1913 255.148 2.59131 251.809 2.59131C239.913 2.59131 239.913 2.59131 239.913 2.59131L234.87 21.4435H238.383L240.47 13.7565H242.105L247.322 21.4435H255.044L256.018 17.8957H249.722L246.87 13.7565H250.696C254.974 13.7565 257.931 10.9043 257.931 7.3913ZM241.409 10.2435C242.522 6.13913 242.522 6.13913 242.522 6.13913H251.739C253.305 6.13913 254.139 6.8 254.139 7.91304C254.139 9.58261 252.365 10.2783 250.696 10.2783C241.409 10.2435 241.409 10.2435 241.409 10.2435Z" fill="#FB090B"/>
<path fill-rule="evenodd" clip-rule="evenodd" d="M276.713 2.55652C276.122 4.64348 276.122 4.64348 276.122 4.64348C274.87 2.93913 272.47 2.10434 270.035 2.10434C262.905 2.10434 257.409 7.77392 257.374 14.4174C257.339 18.7304 260.574 21.9652 265.339 21.9652C267.878 21.9652 270.278 21.1304 272.191 19.4956C271.67 21.4435 271.67 21.4435 271.67 21.4435H275.218L280.261 2.55652H276.713ZM266.139 18.4522C263.357 18.4522 261.131 16.9217 261.131 13.6522C261.131 9.44348 264.713 5.51305 269.27 5.51305C272.539 5.51305 274.348 7.21739 274.348 10.1391C274.348 14.4174 270.696 18.4522 266.139 18.4522Z" fill="#FB090B"/>
<path fill-rule="evenodd" clip-rule="evenodd" d="M234.591 2.55652C230.522 17.8609 230.522 17.8609 230.522 17.8609H218.696L222.765 2.55652H219.218L214.174 21.4435H233.061L238.105 2.59131H234.591" fill="#FB090B"/>
<path fill-rule="evenodd" clip-rule="evenodd" d="M195.252 9.61739C197.339 2.55652 197.339 2.55652 197.339 2.55652H178.313L174.765 15.5652H190L189.409 17.8261H174.174L173.2 21.4435H192.052L194.591 11.9478H179.252L180.887 6.03478H192.748L191.705 9.65217L195.252 9.61739Z" fill="#FB090B"/>
<path fill-rule="evenodd" clip-rule="evenodd" d="M136.852 2.55652C131.809 21.4087 131.809 21.4087 131.809 21.4087H151.113L156.157 2.55652H136.852ZM148.539 17.8957C136.331 17.8957 136.331 17.8957 136.331 17.8957L139.496 6.13913H151.705" fill="#FB090B"/>
<path fill-rule="evenodd" clip-rule="evenodd" d="M168.47 10.2435C170.626 2.55653 170.626 2.55652 170.626 2.55652H157.896L152.852 21.4087H171.844L174.939 10.2087L168.47 10.2435ZM160.539 5.93043C166.209 5.93043 166.209 5.93043 166.209 5.93043L164.991 10.2435H159.391L160.539 5.93043ZM169.305 17.8957C157.374 17.8957 157.374 17.8957 157.374 17.8957L158.487 13.7913H170.452" fill="#FB090B"/>
<path fill-rule="evenodd" clip-rule="evenodd" d="M125.652 4.64348C124.4 2.93913 122 2.10434 119.565 2.10434C112.331 2.10434 106.939 7.77392 106.905 14.4174C106.87 18.7304 110.105 21.9652 114.87 21.9652C117.409 21.9652 119.809 21.1304 121.722 19.4956C121.2 21.4435 121.2 21.4435 121.2 21.4435H124.783L129.826 2.59131H126.278L125.652 4.64348ZM115.705 18.4522C112.922 18.4522 110.696 16.9217 110.696 13.6522C110.696 9.44348 114.278 5.51305 118.835 5.51305C122.105 5.51305 123.913 7.21739 123.913 10.1391C123.913 14.4174 120.226 18.4522 115.705 18.4522Z" fill="#FB090B"/>
</svg>
