<svg xmlns="http://www.w3.org/2000/svg" width="66" height="24" viewBox="0 0 66 24" fill="none"><rect width="66" height="24" fill="none"/>
<path fill-rule="evenodd" clip-rule="evenodd" d="M9.77337 10.4856L9.67004 10.5067V13.3789L9.77337 13.4001C12.7489 14.019 14.909 16.6834 14.909 19.7334V20.6668C14.909 21.339 14.3645 21.8857 13.6934 21.8857C13.3709 21.8848 13.0619 21.7561 12.8341 21.5279C12.6062 21.2996 12.4781 20.9904 12.4778 20.6679V19.7345C12.4802 19.1873 12.3703 18.6455 12.155 18.1425C11.9396 17.6394 11.6233 17.186 11.2256 16.8101C10.4797 16.0967 9.48662 15.6997 8.45448 15.7023C7.42232 15.6996 6.42918 16.0966 5.68335 16.8101C5.28575 17.186 4.96948 17.6395 4.75409 18.1425C4.53871 18.6455 4.42879 19.1874 4.43112 19.7345V20.6679C4.43112 21.339 3.88668 21.8857 3.21556 21.8857C2.89306 21.8848 2.58405 21.7561 2.35622 21.5279C2.12838 21.2996 2.00029 20.9904 2 20.6679V19.7345C2 16.6834 4.16001 14.019 7.13558 13.4012L7.23892 13.3789V10.5067L7.13558 10.4856C4.16001 9.86671 2 7.20225 2 4.15223V3.2189C2 2.54667 2.54445 2 3.21556 2C3.88557 2 4.43112 2.54667 4.43112 3.2189V4.15223C4.42887 4.69924 4.53884 5.24089 4.75422 5.74371C4.96961 6.24652 5.28583 6.69982 5.68335 7.07558C6.42918 7.78909 7.42232 8.18611 8.45448 8.18336C9.48664 8.18611 10.4798 7.78909 11.2256 7.07558C11.6231 6.69978 11.9393 6.24648 12.1546 5.74367C12.37 5.24086 12.48 4.69923 12.4778 4.15223V3.2189C12.4778 2.54667 13.0223 2 13.6934 2C14.3634 2 14.909 2.54667 14.909 3.2189V4.15223C14.909 7.20225 12.7489 9.8656 9.77337 10.4856ZM8.45448 22.0001C8.76309 21.9998 9.06861 21.9387 9.35362 21.8204C9.63862 21.702 9.89753 21.5287 10.1155 21.3102C10.3336 21.0918 10.5064 20.8326 10.6242 20.5473C10.7421 20.2621 10.8026 19.9565 10.8023 19.6479C10.8023 18.3479 9.75226 17.2945 8.45448 17.2945C7.83141 17.2954 7.23419 17.5437 6.79414 17.9848C6.35408 18.4259 6.10721 19.0237 6.1078 19.6468C6.1078 20.9468 7.15892 22.0001 8.45448 22.0001Z" fill="#000000"/>
<path d="M36.4448 6C34.6352 6 33.0582 6.68355 32.0343 7.81719C31.0104 8.95084 30.5207 10.4696 30.5207 12.1384C30.5207 13.8073 31.0103 15.3259 32.0343 16.4596C33.0583 17.5933 34.6352 18.2768 36.4448 18.2768C38.2544 18.2768 39.8314 17.5933 40.8553 16.4596C41.8792 15.326 42.3689 13.8073 42.3689 12.1384C42.3689 10.4696 41.8793 8.9509 40.8553 7.81719C39.8313 6.68349 38.2544 6 36.4448 6ZM58.3824 6.15885L58.3757 6.15911H58.3726C58.3679 6.15945 58.3632 6.1598 58.3585 6.16019C58.1109 6.16627 57.8722 6.24482 57.6777 6.38415C57.4832 6.52349 57.3434 6.71617 57.2791 6.93352L52.8824 16.6227C52.8224 16.75 52.7909 16.8868 52.7895 17.0253C52.7882 17.1637 52.8172 17.3011 52.8747 17.4293C52.9323 17.5575 53.0173 17.674 53.1248 17.7721C53.2323 17.8702 53.3602 17.9479 53.501 18.0007C53.6419 18.0535 53.7928 18.0803 53.9452 18.0796C54.0975 18.0789 54.2481 18.0507 54.3884 17.9966C54.5286 17.9426 54.6557 17.8637 54.7621 17.7647C54.8685 17.6656 54.9522 17.5483 55.0084 17.4196L55.9231 15.4037H60.8665L61.7812 17.4195C61.8373 17.5483 61.921 17.6655 62.0275 17.7646C62.1339 17.8637 62.2609 17.9425 62.4012 17.9966C62.5414 18.0506 62.6921 18.0788 62.8444 18.0795C62.9967 18.0802 63.1477 18.0534 63.2885 18.0006C63.4293 17.9478 63.5572 17.8701 63.6647 17.772C63.7723 17.6739 63.8573 17.5574 63.9148 17.4292C63.9724 17.301 64.0013 17.1637 64 17.0252C63.9987 16.8868 63.9671 16.7499 63.9071 16.6226L59.5076 6.92715C59.4413 6.70863 59.2987 6.51563 59.1012 6.37723C58.9037 6.23882 58.6621 6.16253 58.4127 6.15984C58.4026 6.15937 58.3924 6.15909 58.3824 6.15885ZM28.2193 6.17613C28.0131 6.17385 27.81 6.22205 27.6312 6.31565C27.4525 6.40926 27.3048 6.54483 27.2036 6.70817L24.2893 11.2573L21.3773 6.71151C21.2732 6.54348 21.1199 6.40491 20.9345 6.31115C20.7491 6.21739 20.5387 6.17209 20.3267 6.18026C20.1275 6.18797 19.9338 6.24265 19.7648 6.33894C19.5959 6.43524 19.4573 6.56982 19.3629 6.72949C19.2684 6.88915 19.2212 7.06841 19.226 7.24964C19.2308 7.43088 19.2874 7.60787 19.3902 7.76323L23.14 13.6171V17.0635C23.1392 17.336 23.2555 17.598 23.4642 17.7937C23.6729 17.9894 23.9574 18.1032 24.2571 18.111C24.5568 18.1188 24.8479 18.0199 25.0686 17.8353C25.2892 17.6508 25.4218 17.3952 25.4381 17.1231C25.4398 17.1022 25.4407 17.0813 25.441 17.0603V13.6137L29.1908 7.75983C29.2951 7.60217 29.3518 7.42228 29.3551 7.23834C29.3584 7.0544 29.3082 6.87291 29.2097 6.71223C29.1111 6.55155 28.9677 6.41736 28.7938 6.32321C28.6199 6.22906 28.4217 6.17838 28.2193 6.17613ZM44.3622 6.2036C44.2098 6.20162 44.0585 6.22719 43.9171 6.27882C43.7757 6.33045 43.647 6.40712 43.5385 6.50437C43.4299 6.60161 43.3437 6.71749 43.2849 6.84528C43.2261 6.97307 43.1958 7.11021 43.1958 7.24874C43.1958 7.38726 43.2261 7.52439 43.2849 7.65218C43.3437 7.77997 43.4299 7.89586 43.5385 7.99311C43.647 8.09035 43.7757 8.16702 43.9171 8.21865C44.0585 8.27029 44.2098 8.29585 44.3622 8.29387H47.0697L47.08 16.9931C47.078 17.1316 47.1063 17.2691 47.1632 17.3976C47.2202 17.5261 47.3047 17.643 47.4118 17.7416C47.5188 17.8401 47.6464 17.9183 47.7871 17.9717C47.9277 18.025 48.0786 18.0524 48.231 18.0523C48.3834 18.0521 48.5342 18.0245 48.6748 17.9709C48.8153 17.9173 48.9427 17.8388 49.0496 17.7401C49.1564 17.6413 49.2406 17.5243 49.2973 17.3957C49.354 17.2671 49.382 17.1295 49.3796 16.991L49.3693 8.29392H52.116C52.2683 8.29591 52.4196 8.27033 52.561 8.2187C52.7025 8.16707 52.8312 8.0904 52.9397 7.99316C53.0482 7.89591 53.1344 7.78003 53.1932 7.65224C53.2521 7.52445 53.2823 7.38731 53.2823 7.24879C53.2823 7.11026 53.2521 6.97313 53.1932 6.84534C53.1344 6.71755 53.0482 6.60166 52.9397 6.50441C52.8312 6.40717 52.7025 6.3305 52.561 6.27887C52.4196 6.22724 52.2683 6.20167 52.116 6.20365L44.3622 6.2036ZM36.4444 8.0902C37.6605 8.0902 38.4708 8.47162 39.0775 9.14355C39.6844 9.81548 40.0688 10.8432 40.0688 12.1385C40.0688 13.4338 39.6844 14.4615 39.0775 15.1335C38.4707 15.8054 37.6605 16.1869 36.4444 16.1869C35.2282 16.1869 34.4179 15.8054 33.8112 15.1335C33.2043 14.4616 32.8199 13.4338 32.8199 12.1385C32.8199 10.8432 33.2043 9.81552 33.8112 9.14355C34.418 8.47162 35.2282 8.0902 36.4444 8.0902ZM58.3952 9.95644L59.9185 13.3136H56.8719L58.3952 9.95644Z" fill="#000000"/>
</svg>
