<svg xmlns="http://www.w3.org/2000/svg" width="74" height="24" viewBox="0 0 74 24" fill="none"><rect width="74" height="24" fill="none"/>
<path d="M7.4321 21.5679H2L4.34568 12H9.71605L7.4321 21.5679Z" fill="#DF1A2B"/>
<path d="M14.2839 21.5679H19.716L15.0247 2.37037H9.65432L14.2839 21.5679Z" fill="#DF1A2B"/>
<path d="M66.7531 21.5679H72.1852L69.8395 12H64.4691L66.7531 21.5679Z" fill="#DF1A2B"/>
<path d="M59.9012 21.5679H54.4691L59.1605 2.37037H64.5309L59.9012 21.5679Z" fill="#DF1A2B"/>
<path d="M29.037 21.5679H23.9136L23.8519 7.12346H17.9259V2.37037H34.963V7.12346H29.037V21.5679Z" fill="#DF1A2B"/>
<path fill-rule="evenodd" clip-rule="evenodd" d="M44.9012 22C50.4241 22 54.9012 17.5228 54.9012 12C54.9012 6.47715 50.4241 2 44.9012 2C39.3784 2 34.9012 6.47715 34.9012 12C34.9012 17.5228 39.3784 22 44.9012 22ZM44.9012 17.6173C48.0036 17.6173 50.5185 15.1023 50.5185 12C50.5185 8.89766 48.0036 6.38272 44.9012 6.38272C41.7989 6.38272 39.2839 8.89766 39.2839 12C39.2839 15.1023 41.7989 17.6173 44.9012 17.6173Z" fill="#DF1A2B"/>
</svg>
