<svg xmlns="http://www.w3.org/2000/svg" width="24" height="24" viewBox="0 0 24 24" fill="none"><rect width="24" height="24" fill="none"/>
<path d="M12.9265 16.66H13.8529V20.251H12.9265V18.8526H11.3092V20.251H10.3827V16.66H11.3092V17.9833H12.9265V16.66ZM14.289 17.5507H15.4425V20.251H16.369V17.5507H17.508V16.66H14.289V17.5507ZM22 19.4695V20.2325C21.8423 20.3116 21.6448 20.3509 21.4143 20.3509C20.9332 20.3509 20.6906 20.1412 20.5935 19.8039L20.5779 19.8264C20.2978 20.1782 19.9102 20.3509 19.4071 20.3509C18.9041 20.3509 18.5165 20.1713 18.1717 19.8051C17.8343 19.4389 17.6616 18.9866 17.6616 18.4546C17.6616 17.9227 17.8338 17.4779 18.1717 17.1117C18.5165 16.7455 18.9254 16.5589 19.4071 16.5589C19.8889 16.5589 20.2632 16.7172 20.5398 17.0384V16.6594H21.4663V19.1992C21.4663 19.4163 21.5651 19.5284 21.7626 19.5284C21.8544 19.5284 21.9342 19.5093 22 19.4695ZM20.5785 18.4552C20.5785 18.1606 20.485 17.9169 20.2915 17.7297C20.1049 17.5357 19.8675 17.4427 19.5804 17.4427C19.2934 17.4427 19.056 17.5362 18.8694 17.7297C18.6828 17.9163 18.5893 18.1606 18.5893 18.4552C18.5893 18.7498 18.6828 18.9941 18.8694 19.1876C19.056 19.3742 19.2934 19.4677 19.5804 19.4677C19.8675 19.4677 20.1049 19.3742 20.2915 19.1876C20.4855 18.9935 20.5785 18.7498 20.5785 18.4552ZM2.75088 16.66L2.72316 18.0087C2.7168 18.5546 2.69659 18.8243 2.61803 19.1339C2.54583 19.4296 2.40779 19.5134 2.19061 19.5134C2.11841 19.5134 2.05256 19.507 2 19.4868V20.2498C2.0722 20.2891 2.19061 20.3093 2.34887 20.3093C3.0004 20.2897 3.31577 19.9824 3.47404 19.4296C3.58609 19.0351 3.60573 18.7325 3.62537 18.2785L3.64616 17.5501H4.79674V20.2504H5.72321V16.66H2.75088ZM7.21227 18.6978C7.31219 19.3112 7.79795 19.5111 8.29123 19.5111C8.61757 19.5111 8.96009 19.3834 9.17091 19.1922L9.74216 19.7669C9.4008 20.1447 8.92601 20.3509 8.27678 20.3509C7.36764 20.3509 6.27136 19.8143 6.27136 18.4552C6.27136 17.0961 7.32721 16.5595 8.22365 16.5595C9.35805 16.5595 9.82764 17.0921 9.82764 17.6899C9.82764 18.6666 8.5858 19.1177 7.21227 18.6978ZM8.82146 17.7956C8.82146 17.5172 8.54595 17.3924 8.23693 17.3924C7.76503 17.3924 7.35667 17.5917 7.23248 18.104C8.19361 18.3813 8.82146 18.1745 8.82146 17.7956Z" fill="white"/>
<path d="M6.6395 11.2317C7.55354 13.3836 9.68165 14.8922 12.1613 14.8922C11.2473 12.7403 9.11916 11.2319 6.6395 11.2317Z" fill="#00C060"/>
<path d="M12.1613 14.8922C13.9539 14.8922 15.4973 13.7978 16.1939 12.2244C14.4013 12.2244 12.8577 13.3188 12.1613 14.8922Z" fill="#00C060"/>
<path d="M12.161 2.97998C9.69412 2.97998 7.69406 4.97985 7.69406 7.44707C7.69406 9.91428 9.69388 11.9142 12.161 11.9142C14.6282 11.9142 16.6282 9.91428 16.6282 7.44707C16.6282 4.97985 14.6284 2.97998 12.161 2.97998ZM12.1613 9.68049C10.9276 9.68049 9.92767 8.68055 9.92767 7.44683C9.92767 6.2131 10.9276 5.21316 12.1613 5.21316C13.395 5.21316 14.3946 6.2131 14.3946 7.44683C14.3946 8.68055 13.3947 9.68049 12.1613 9.68049Z" fill="#FFB705"/>
</svg>
