<svg xmlns="http://www.w3.org/2000/svg" width="83" height="24" viewBox="0 0 83 24" fill="none"><rect width="83" height="24" fill="none"/>
<path d="M23.7311 6.97911L24.0283 5.63296C24.0738 5.41618 24.2451 5.08402 24.6892 5.08402C25.1332 5.08402 25.301 5.41618 25.35 5.63296L25.6472 6.97911H23.7311ZM26.5668 5.38821C26.3814 4.54905 25.85 3.96514 24.6892 3.96514C23.5948 3.96514 22.9969 4.54905 22.8115 5.38821L21.9654 9.18889H22.8675C23.0738 9.18889 23.2801 9.02455 23.322 8.82525L23.4934 8.05253H25.8849L26.0563 8.82525C26.0982 9.02455 26.3045 9.18889 26.5073 9.18889H27.4094L26.5668 5.38821Z" fill="#CF142B"/>
<path d="M29.6332 5.23087H31.6472V9.18889H32.8919V4.08752H29.1367C28.7241 4.08752 28.3884 4.42318 28.3884 4.83577V7.41267C28.3884 7.75883 28.2276 7.97561 27.9514 8.03155L27.6961 8.09449L27.9304 9.18889H28.1647C29.0178 9.18889 29.6332 8.55602 29.6332 7.47561V5.23087Z" fill="#CF142B"/>
<path d="M43.717 8.06302H43.2625V5.21339H43.717C44.5702 5.21339 44.9722 5.75534 44.9722 6.63645C44.9722 7.52456 44.5702 8.06302 43.717 8.06302ZM41.5632 8.06302C40.71 8.06302 40.3079 7.52456 40.3079 6.63645C40.3079 5.75534 40.71 5.21339 41.5632 5.21339H42.0177V8.06302H41.5632ZM43.717 4.08752H43.2625V3.49312H42.3918C42.1856 3.49312 42.0177 3.66095 42.0177 3.86724V4.08752H41.5632C40.0247 4.08752 39.0597 5.13646 39.0597 6.63645C39.0597 8.13994 40.0247 9.18889 41.5632 9.18889H42.0177V9.80777H42.8883C43.0946 9.80777 43.2625 9.63993 43.2625 9.43364V9.18889H43.717C45.2555 9.18889 46.217 8.13994 46.217 6.63645C46.217 5.13646 45.2555 4.08752 43.717 4.08752Z" fill="#CF142B"/>
<path d="M36.7555 8.04554H34.9688V6.52806H36.7555C37.0597 6.52806 37.4163 6.79729 37.4163 7.2868C37.4163 7.77281 37.0597 8.04554 36.7555 8.04554ZM36.7555 5.38122H34.9688V4.08752H33.7241V8.81476C33.7241 9.02106 33.8919 9.18889 34.0982 9.18889H36.7555C37.8429 9.18889 38.6611 8.37071 38.6611 7.2868C38.6611 6.19939 37.9758 5.38122 36.7555 5.38122Z" fill="#CF142B"/>
<path d="M48.0282 6.97911L48.3219 5.63296C48.3708 5.41618 48.5422 5.08402 48.9862 5.08402C49.4303 5.08402 49.5981 5.41618 49.647 5.63296L49.9442 6.97911H48.0282ZM50.8638 5.38821C50.6785 4.54905 50.147 3.96514 48.9862 3.96514C47.8918 3.96514 47.2939 4.54905 47.1086 5.38821L46.2624 9.18889H47.1645C47.3708 9.18889 47.5771 9.02455 47.6191 8.82525L47.7904 8.05253H50.182L50.3498 8.82525C50.3953 9.02455 50.6016 9.18889 50.8044 9.18889H51.7065L50.8638 5.38821Z" fill="#CF142B"/>
<path d="M56.9372 15.2902H54.64V14.2833H56.9372C57.105 14.3042 57.3288 14.4686 57.3288 14.7868C57.3288 15.1049 57.105 15.2902 56.9372 15.2902ZM56.8393 12.3043C57.0036 12.3043 57.2309 12.4931 57.2309 12.8077C57.2309 13.1294 57.0036 13.2903 56.8393 13.3112H54.64V12.3043H56.8393ZM58.0841 13.7028C58.3043 13.4861 58.4442 13.1924 58.4442 12.7833C58.4442 11.8777 57.7449 11.2483 56.8393 11.2483H53.7939C53.5911 11.2483 53.4198 11.4127 53.4198 11.6189V15.9756C53.4198 16.1819 53.5911 16.3497 53.7939 16.3497H57.0316C57.9862 16.3497 58.619 15.6679 58.619 14.7623C58.619 14.3077 58.4022 13.9511 58.0841 13.7028Z" fill="#CF142B"/>
<path d="M48.5841 13.7973C48.5841 12.8847 49.0736 12.1819 49.9303 12.1819H50.2065C51.0666 12.1819 51.5526 12.8847 51.5526 13.7973C51.5526 14.7133 51.0666 15.4126 50.2065 15.4126H49.9303C49.0736 15.4126 48.5841 14.7133 48.5841 13.7973ZM49.8568 11.1294C48.3149 11.1294 47.2415 12.2273 47.2415 13.7973C47.2415 15.3707 48.3149 16.4686 49.8568 16.4686H50.2834C51.8219 16.4686 52.8988 15.3707 52.8988 13.7973C52.8988 12.2273 51.8219 11.1294 50.2834 11.1294H49.8568Z" fill="#CF142B"/>
<path d="M26.6087 11.2483L26.7731 12.0175C26.8185 12.2238 27.0213 12.3917 27.2276 12.3917H28.3884V16.3497H29.6332V12.3917H30.759C30.9653 12.3917 31.1681 12.2238 31.2101 12.0175L31.3744 11.2483H26.6087Z" fill="#CF142B"/>
<path d="M68.57 11.2483V13.2728H66.1469V11.2483H64.9022V16.3497H66.1469V14.3672H68.57V16.3497H69.8148V11.2483H68.57Z" fill="#CF142B"/>
<path d="M38.2695 14.1399L38.5667 12.7938C38.6156 12.577 38.7835 12.2448 39.231 12.2448C39.6751 12.2448 39.8429 12.577 39.8919 12.7938L40.1891 14.1399H38.2695ZM41.1086 12.549C40.9198 11.7099 40.3919 11.1224 39.231 11.1224C38.1366 11.1224 37.5387 11.7099 37.3534 12.549L36.5073 16.3497H37.4094C37.6156 16.3497 37.8219 16.1853 37.8639 15.986L38.0352 15.2098H40.4233L40.5947 15.986C40.6401 16.1853 40.8429 16.3497 41.0492 16.3497H41.9513L41.1086 12.549Z" fill="#CF142B"/>
<path d="M60.668 14.1399L60.9652 12.7938C61.0141 12.577 61.1854 12.2448 61.6295 12.2448C62.0735 12.2448 62.2414 12.577 62.2903 12.7938L62.5875 14.1399H60.668ZM63.5071 12.549C63.3183 11.7099 62.7903 11.1224 61.6295 11.1224C60.5351 11.1224 59.9372 11.7099 59.7484 12.549L58.9057 16.3497H59.8078C60.0141 16.3497 60.2204 16.1853 60.2624 15.986L60.4337 15.2098H62.8253L62.9931 15.986C63.0386 16.1853 63.2449 16.3497 63.4477 16.3497H64.3498L63.5071 12.549Z" fill="#CF142B"/>
<path d="M26.9968 16.3357V16.3497H24.5633C23.0913 16.3497 22.0598 15.3007 22.0598 13.7973C22.0598 12.2973 23.0913 11.2448 24.5633 11.2448H26.4094L26.2276 12.028C26.1821 12.2308 25.9759 12.3917 25.7696 12.3917H24.5633C23.7766 12.3917 23.308 12.9791 23.308 13.7973C23.308 14.6154 23.7766 15.2028 24.5633 15.2028H26.364C26.5668 15.2028 26.7731 15.3672 26.8185 15.5665L26.9968 16.3357Z" fill="#CF142B"/>
<path d="M34.7136 13.9091H32.9269V12.3952H34.7136C35.0178 12.3952 35.3744 12.6644 35.3744 13.1504C35.3744 13.6364 35.0178 13.9091 34.7136 13.9091ZM34.7136 11.2448L32.0562 11.2483C31.8499 11.2483 31.6821 11.4161 31.6821 11.6189V16.3497H32.9269V15.056H34.7136C35.9338 15.056 36.6191 14.2378 36.6191 13.1504C36.6191 12.0665 35.801 11.2448 34.7136 11.2448Z" fill="#CF142B"/>
<path d="M80.3776 15.2728H77.6923V14.2938H80.6119V13.3077H77.6923V12.3252H80.3776C80.5979 12.3252 80.7727 12.2273 80.8322 11.9581L81 11.2483H76.8217C76.6154 11.2483 76.4476 11.4127 76.4476 11.6189V15.9756C76.4476 16.1819 76.6154 16.3497 76.8217 16.3497H81L80.8322 15.6364C80.7727 15.3707 80.5979 15.2728 80.3776 15.2728Z" fill="#CF142B"/>
<path d="M70.6714 16.3497V11.2483H71.9161V14.6119L74.0735 11.549C74.1958 11.3812 74.4616 11.2483 74.6714 11.2483H75.5944V16.3497H74.3462V12.9826L72.1889 16.049C72.0665 16.2133 71.8008 16.3497 71.5945 16.3497H70.6714Z" fill="#CF142B"/>
<path d="M45.71 13.7693L47.4478 11.2483H46.3044C46.0562 11.2483 45.8813 11.3217 45.731 11.563L44.8044 13.0175H44.6366L43.71 11.563C43.5597 11.3217 43.3848 11.2483 43.1366 11.2483H41.9548L43.731 13.8252L41.9932 16.3497H43.1366C43.3848 16.3497 43.5597 16.2763 43.71 16.035L44.6366 14.5805H44.8044L45.731 16.035C45.8813 16.2763 46.0562 16.3497 46.3044 16.3497H47.4862L45.71 13.7693Z" fill="#CF142B"/>
<path d="M22.1612 20.2448C22.1612 19.5839 22.6052 18.986 23.371 18.986C23.6822 18.986 23.885 19.056 24.0668 19.1748L23.9024 19.4196C23.7661 19.3252 23.5913 19.2623 23.364 19.2623C22.801 19.2623 22.5108 19.7238 22.5108 20.2378C22.5108 20.7587 22.7906 21.2378 23.371 21.2378C23.6367 21.2378 23.822 21.1504 23.9619 21.0315L24.1087 21.2657C23.9829 21.3846 23.7101 21.5175 23.364 21.5175C22.5913 21.5175 22.1612 20.9056 22.1612 20.2448Z" fill="#CF142B"/>
<path d="M24.5738 19.0315H25.8605V19.3112H24.9059V20.0455H25.7451V20.3217H24.9059V21.1923H25.8884V21.472H24.5738V19.0315Z" fill="#CF142B"/>
<path d="M27.0458 20.2378C27.4514 20.2378 27.6192 20.0734 27.6192 19.7553C27.6192 19.486 27.4654 19.3007 27.0563 19.3007H26.7696V20.2378H27.0458ZM26.4374 19.0315H27.0842C27.5877 19.0315 27.9619 19.2692 27.9619 19.7483C27.9619 20.2378 27.6192 20.507 27.0458 20.507H26.7696V21.472H26.4374V19.0315Z" fill="#CF142B"/>
<path d="M29.1192 21.2063C29.5248 21.2063 29.7101 21.0804 29.7101 20.7867C29.7101 20.5035 29.5598 20.3322 29.1437 20.3322H28.7905V21.2063H29.1192ZM29.1052 20.0734C29.4584 20.0734 29.6122 19.9441 29.6122 19.6678C29.6122 19.4126 29.4374 19.2972 29.1122 19.2972H28.7905V20.0734H29.1052ZM28.4619 19.0315H29.1402C29.5947 19.0315 29.9479 19.1958 29.9479 19.6399C29.9479 19.9336 29.78 20.1119 29.5108 20.1818V20.1888C29.808 20.2413 30.0563 20.4511 30.0563 20.7867C30.0563 21.2867 29.6786 21.472 29.1262 21.472H28.4619V19.0315Z" fill="#CF142B"/>
<path d="M30.5807 19.0315H30.8884V20.6608C30.8884 20.8462 30.8744 20.958 30.8709 21.0035H30.8814C30.9199 20.9371 30.9933 20.8077 31.1157 20.6329L32.2066 19.0315H32.5353V21.472H32.2311V19.7343C32.2311 19.6084 32.245 19.5 32.245 19.4546H32.2346C32.1961 19.5245 32.1192 19.6609 32.0388 19.7832L30.8884 21.472H30.5807V19.0315Z" fill="#CF142B"/>
<path d="M33.0667 20.2448C33.0667 19.5839 33.5108 18.986 34.2765 18.986C34.5877 18.986 34.7905 19.056 34.9723 19.1748L34.808 19.4196C34.6716 19.3252 34.4968 19.2623 34.2695 19.2623C33.7066 19.2623 33.4164 19.7238 33.4164 20.2378C33.4164 20.7587 33.6961 21.2378 34.2765 21.2378C34.5422 21.2378 34.7276 21.1504 34.8674 21.0315L35.0143 21.2657C34.8884 21.3846 34.6157 21.5175 34.2695 21.5175C33.4968 21.5175 33.0667 20.9056 33.0667 20.2448Z" fill="#CF142B"/>
<path d="M36.9618 21.2028C37.3709 21.2028 37.5387 21.0315 37.5387 20.7273C37.5387 20.4615 37.3814 20.2762 36.9758 20.2762H36.6157V21.2028H36.9618ZM36.2835 19.0315H37.6646V19.3112H36.6157V20.007H37.0038C37.5038 20.007 37.8779 20.2413 37.8779 20.7168C37.8779 21.2063 37.5352 21.472 36.9618 21.472H36.2835V19.0315Z" fill="#CF142B"/>
<path d="M38.3079 21.458L38.3499 21.2063C38.3779 21.2133 38.4198 21.2168 38.4688 21.2168C38.6681 21.2168 38.787 21.0944 38.8989 20.8357L38.9618 20.6958L38.2275 19.0315H38.5457L39.1226 20.3392L39.6996 19.0315H40.0177L39.1716 20.9546C39.0038 21.3357 38.801 21.479 38.4688 21.479C38.3989 21.479 38.3394 21.472 38.3079 21.458Z" fill="#CF142B"/>
<path d="M41.6995 21.1923V19.3112H40.9198L40.8219 20.3427C40.7765 20.8112 40.6821 21.0559 40.5492 21.1923H41.6995ZM39.9898 21.1923H40.1821C40.3744 21.0315 40.4478 20.8077 40.4933 20.2867L40.6156 19.0315H42.0352V21.1923H42.2835L42.2065 22H41.9793L41.9548 21.472H40.3114L40.259 22H40.0317L39.9898 21.1923Z" fill="#CF142B"/>
<path d="M42.689 21.458L42.7345 21.2063C42.7625 21.2133 42.8044 21.2168 42.8534 21.2168C43.0527 21.2168 43.1716 21.0944 43.2834 20.8357L43.3464 20.6958L42.6086 19.0315H42.9303L43.5072 20.3392L44.0841 19.0315H44.4023L43.5562 20.9546C43.3883 21.3357 43.1855 21.479 42.8534 21.479C42.7834 21.479 42.724 21.472 42.689 21.458Z" fill="#CF142B"/>
<path d="M47.717 21.472H44.8219V19.0315H45.1541V21.1923H46.1436V19.0315H46.4722V21.1923H47.4617V19.0315H47.7974V21.1923H48.0492L47.9687 22H47.7415L47.717 21.472Z" fill="#CF142B"/>
<path d="M48.5596 19.0315H49.8463V19.3112H48.8883V20.0455H49.7275V20.3217H48.8883V21.1923H49.8708V21.472H48.5596V19.0315Z" fill="#CF142B"/>
<path d="M50.4198 19.0315H51.7344V19.3042H50.7554V21.472H50.4198V19.0315Z" fill="#CF142B"/>
<path d="M54.0072 20.2553C54.0072 19.7238 53.717 19.2623 53.1505 19.2623C52.5876 19.2623 52.2834 19.7168 52.2834 20.2483C52.2834 20.7797 52.5806 21.2413 53.1435 21.2413C53.71 21.2413 54.0072 20.7867 54.0072 20.2553ZM51.9337 20.2553C51.9337 19.5839 52.3778 18.986 53.1435 18.986C53.9093 18.986 54.3568 19.5769 54.3568 20.2483C54.3568 20.9161 53.9163 21.5175 53.1505 21.5175C52.3848 21.5175 51.9337 20.9231 51.9337 20.2553Z" fill="#CF142B"/>
<path d="M56.3498 21.2063C56.7519 21.2063 56.9372 21.0804 56.9372 20.7867C56.9372 20.5035 56.7904 20.3322 56.3708 20.3322H56.0176V21.2063H56.3498ZM56.3323 20.0734C56.6855 20.0734 56.8393 19.9441 56.8393 19.6678C56.8393 19.4126 56.668 19.2972 56.3428 19.2972H56.0176V20.0734H56.3323ZM55.689 19.0315H56.3673C56.8218 19.0315 57.1785 19.1958 57.1785 19.6399C57.1785 19.9336 57.0071 20.1119 56.7414 20.1818V20.1888C57.0386 20.2413 57.2834 20.4511 57.2834 20.7867C57.2834 21.2867 56.9057 21.472 56.3568 21.472H55.689V19.0315Z" fill="#CF142B"/>
<path d="M58.612 19.0315H58.9442V20.049H60.2659V19.0315H60.6015V21.472H60.2659V20.3287H58.9442V21.472H58.612V19.0315Z" fill="#CF142B"/>
<path d="M62.5351 20.6224L62.2484 19.8322C62.1714 19.6294 62.1365 19.514 62.1015 19.4126H62.0945C62.0596 19.521 62.0211 19.6469 61.9512 19.8322L61.6575 20.6224H62.5351ZM61.9512 19.0315H62.2693L63.2099 21.472H62.8533L62.64 20.8986H61.5526L61.3463 21.472H61.0141L61.9512 19.0315Z" fill="#CF142B"/>
<path d="M63.3742 20.2448C63.3742 19.5839 63.8183 18.986 64.5875 18.986C64.8987 18.986 65.098 19.056 65.2798 19.1748L65.119 19.4196C64.9791 19.3252 64.8043 19.2623 64.577 19.2623C64.0141 19.2623 63.7239 19.7238 63.7239 20.2378C63.7239 20.7587 64.0036 21.2378 64.5875 21.2378C64.8498 21.2378 65.0351 21.1504 65.1749 21.0315L65.3218 21.2657C65.1994 21.3846 64.9232 21.5175 64.577 21.5175C63.8043 21.5175 63.3742 20.9056 63.3742 20.2448Z" fill="#CF142B"/>
<path d="M66.2309 19.3112H65.5421V19.0315H67.2553V19.3112H66.5665V21.472H66.2309V19.3112Z" fill="#CF142B"/>
<path d="M69.528 20.2553C69.528 19.7238 69.2378 19.2623 68.6714 19.2623C68.1085 19.2623 67.8043 19.7168 67.8043 20.2483C67.8043 20.7797 68.1015 21.2413 68.6644 21.2413C69.2308 21.2413 69.528 20.7867 69.528 20.2553ZM67.4546 20.2553C67.4546 19.5839 67.8987 18.986 68.6644 18.986C69.4266 18.986 69.8777 19.5769 69.8777 20.2483C69.8777 20.9161 69.4371 21.5175 68.6714 21.5175C67.9057 21.5175 67.4546 20.9231 67.4546 20.2553Z" fill="#CF142B"/>
<path d="M71.521 20.1084V19.3007H71.1924C70.8357 19.3007 70.6679 19.4336 70.6679 19.6958C70.6679 19.9546 70.8252 20.1084 71.1679 20.1084H71.521ZM70.1784 21.1958H70.2168C70.3812 21.1958 70.4791 21.007 70.6924 20.6993C70.7973 20.542 70.9126 20.3881 70.9931 20.3357V20.3287C70.6189 20.3042 70.3287 20.0979 70.3287 19.6993C70.3287 19.2762 70.6364 19.0315 71.1574 19.0315H71.8497V21.472H71.521V20.3671H71.4231C71.2658 20.3741 71.1644 20.5734 70.9546 20.8846C70.6644 21.3147 70.5455 21.472 70.3148 21.472H70.1854L70.1784 21.1958Z" fill="#CF142B"/>
<path d="M75.4336 21.472H72.535V19.0315H72.8707V21.1923H73.8602V19.0315H74.1889V21.1923H75.1784V19.0315H75.514V21.1923H75.7658L75.6853 22H75.4581L75.4336 21.472Z" fill="#CF142B"/>
<path d="M76.2763 19.0315H77.563V19.3112H76.6049V20.0455H77.4441V20.3217H76.6049V21.1923H77.5874V21.472H76.2763V19.0315Z" fill="#CF142B"/>
<path d="M78.3217 19.0315H78.6329L79.2168 20.6608C79.2867 20.8601 79.3252 20.9825 79.3671 21.1049H79.3741C79.4056 20.9895 79.4511 20.8566 79.521 20.6608L80.1084 19.0315H80.4231L80.7517 21.472H80.4196L80.2168 19.9406C80.1958 19.7623 80.1818 19.6643 80.1748 19.5944H80.1678C80.1469 19.6748 80.1189 19.7797 80.0629 19.9371L79.5175 21.472H79.1923L78.6364 19.9371C78.5804 19.7797 78.549 19.6748 78.521 19.5944H78.514C78.507 19.6783 78.4965 19.7832 78.479 19.9476L78.2902 21.472H77.9825L78.3217 19.0315Z" fill="#CF142B"/>
<path fill-rule="evenodd" clip-rule="evenodd" d="M6.88808 2H13.5419C16.2377 2 18.43 4.19229 18.43 6.88808V13.5419C18.43 16.2342 16.2377 18.43 13.5419 18.43H6.88808C4.19229 18.43 2 16.2342 2 13.5419V6.88808C2 4.19229 4.19229 2 6.88808 2ZM15.395 12.3076L15.402 12.2342H16.5594V12.7552C16.5594 13.6188 16.4615 14.1398 16.2237 14.5629C15.9545 15.0384 15.4265 15.3356 14.8496 15.3356C14.2936 15.3356 13.7796 15.0629 13.4335 14.5908C13.2202 14.3006 13.0419 13.909 12.8671 13.3356C12.4475 13.916 11.9999 14.3636 11.5139 14.6852C10.7587 15.1817 9.94401 15.437 9.09087 15.437C7.62584 15.437 6.51046 14.965 5.57341 13.9475C4.67831 12.979 4.22376 11.6888 4.22376 10.1188C4.22376 8.70975 4.70278 7.44053 5.60837 6.45452C6.51746 5.46152 7.67129 4.95802 9.03143 4.95802C10.0174 4.95802 10.8356 5.2762 11.5314 5.92655C11.93 6.30417 12.2867 6.83913 12.5139 7.31815C12.5244 7.34263 12.5349 7.3671 12.5489 7.39507C12.7727 6.32515 13.0209 5.15033 13.0209 5.15033H15.7202C15.7202 5.15033 14.2971 10.1608 13.8356 11.7237C13.9999 12.1713 14.1608 12.4195 14.3391 12.6258C14.4859 12.7971 14.6713 12.8811 14.895 12.8811C15.1922 12.8811 15.3705 12.5908 15.395 12.3076ZM10.8811 13.2342C10.472 13.8321 9.93702 14.1503 9.33562 14.1503C8.63632 14.1503 8.10486 13.8356 7.71675 13.1852C7.30766 12.5069 7.09787 11.4895 7.09787 10.1608C7.09787 8.94052 7.31815 7.97549 7.75171 7.28319C8.15731 6.63284 8.66779 6.32865 9.3566 6.32865C9.96848 6.32865 10.444 6.58389 10.8601 7.13284C11.3041 7.72025 11.6818 8.69227 11.951 9.94051C11.6118 11.6258 11.2832 12.6468 10.8811 13.2342Z" fill="#CF142B"/>
</svg>
