<svg xmlns="http://www.w3.org/2000/svg" width="24" height="24" viewBox="0 0 24 24" fill="none"><rect width="24" height="24" fill="none"/>
<path fill-rule="evenodd" clip-rule="evenodd" d="M14.1412 10.6114H9.93722C9.79135 10.6379 9.65704 10.7082 9.55223 10.8132C9.4474 10.9181 9.37705 11.0525 9.35058 11.1985V12.6664C9.35087 12.7493 9.36843 12.8314 9.40208 12.9072C9.43575 12.983 9.48481 13.0509 9.54613 13.1067C9.64745 13.2186 9.78698 13.2885 9.93722 13.3025H12.0881V17.2931C12.0846 17.7709 11.91 18.2316 11.5961 18.5916C11.2821 18.9516 10.8497 19.1869 10.3772 19.255H9.93722C9.85431 19.2553 9.77239 19.2729 9.69666 19.3066C9.62092 19.3403 9.553 19.3894 9.49724 19.4508C9.43694 19.5075 9.38859 19.5756 9.355 19.6513C9.32143 19.7269 9.30332 19.8084 9.30171 19.8911V21.3639C9.30539 21.5221 9.35647 21.6756 9.44837 21.8043C9.50494 21.8647 9.57303 21.913 9.6486 21.9466C9.72415 21.9802 9.80567 21.9984 9.88832 22H10.0838C11.2542 21.9996 12.3805 21.5532 13.234 20.7517C14.0875 19.9501 14.6041 18.8534 14.679 17.6844C14.7034 17.5881 14.7034 17.4872 14.679 17.3909V11.1985C14.6787 11.1156 14.6612 11.0336 14.6275 10.9578C14.5938 10.882 14.5448 10.814 14.4835 10.7582C14.4437 10.7065 14.3914 10.6658 14.3315 10.6401C14.2716 10.6144 14.2061 10.6045 14.1412 10.6114Z" fill="#1F1F1F"/>
<path fill-rule="evenodd" clip-rule="evenodd" d="M14.4803 9.39399C14.831 2.91113 9.70136 2 9.70136 2C9.96442 9.12065 14.4803 9.39399 14.4803 9.39399Z" fill="#49DA1F"/>
</svg>
