<svg xmlns="http://www.w3.org/2000/svg" width="24" height="24" viewBox="0 0 24 24" fill="none"><rect width="24" height="24" fill="none"/>
<path d="M18.1639 1.03881L14.6662 1.95123L16.7523 9.59289L20.25 8.68047L18.1639 1.03881Z" fill="#4AAFEA"/>
<path d="M14.4359 1L4.74192 3.52875L10.0574 23L19.7513 20.4712L14.4359 1Z" fill="#CA4BB0"/>
<path d="M7.53998 13.6677L3.75 14.6564L5.81457 22.2192L9.60455 21.2306L7.53998 13.6677Z" fill="#F7CA5D"/>
<path d="M12.1498 5.09853C12.7489 5.09853 13.344 5.10614 13.937 5.24475C14.5515 5.34981 14.7202 5.40794 15.1929 5.58342C15.7241 5.78076 16.0623 5.92698 16.4487 6.1682C16.9084 6.45537 17.2767 6.78224 17.5596 6.94787L15.6245 9.64487C15.4248 9.56205 14.9838 9.23304 14.7009 9.10877C14.418 8.97074 13.98 8.74571 13.6472 8.62153C13.331 8.49726 12.6328 8.36109 12.6328 8.36109C12.6328 8.36109 12.0049 8.26364 11.7634 8.28042C11.1355 8.3291 10.8623 8.43269 10.7492 8.52399C10.6695 8.58837 10.411 8.84842 10.3628 9.15754C10.3252 9.39818 10.3912 9.56283 10.5077 9.74231C10.6342 9.93721 11.1355 10.1809 11.5219 10.2783C11.889 10.3709 12.1498 10.4565 12.6328 10.554C13.1158 10.7001 13.4057 10.7512 13.9853 10.8974C14.7581 11.0923 15.2732 11.3289 15.7724 11.5773C16.2717 11.8258 16.6313 12.1318 16.9475 12.4493C17.2804 12.7667 17.53 13.1255 17.6964 13.5258C17.8628 13.9261 17.9459 14.3884 17.9459 14.9129C17.9459 15.5478 17.8045 16.1482 17.5217 16.7141C17.2553 17.2662 16.9123 17.8061 16.352 18.2557C15.9435 18.5836 15.2085 18.9018 14.4762 19.1364C13.744 19.371 13.0169 19.4229 12.1016 19.4229C11.4525 19.4229 10.9731 19.3691 10.2661 19.228C9.65105 19.1051 9.21843 18.9903 8.7205 18.7893C8.22266 18.5885 7.65786 18.3044 7.17485 18.0121C6.73012 17.7428 6.45033 17.6222 5.8707 17.1325L7.99599 14.5985C8.11247 14.6676 8.18923 14.7959 8.47899 14.9884C8.77593 15.1857 8.99728 15.3588 9.39675 15.5244C9.79613 15.6901 10.0916 15.8388 10.5077 15.963C11.4737 16.3041 12.2948 16.3041 13.0193 16.2067C13.5023 16.1092 14.0336 15.8264 14.0336 15.3295C14.0336 14.8327 13.6472 14.5985 13.1158 14.3549C12.6328 14.16 11.8844 14.0186 11.1355 13.7702C10.4034 13.5218 9.67276 13.4127 9.10689 13.1367C8.49179 12.888 7.85498 12.4892 7.51298 12.1133C7.13027 11.7683 7.00477 11.5666 6.78846 11.1388C6.58553 10.6958 6.53116 9.80016 6.56324 9.17812C6.59522 8.55598 6.71297 8.00486 7.01252 7.52182C7.32875 7.02493 7.67327 6.51321 8.18923 6.1681C8.70509 5.80924 9.26011 5.54889 9.97629 5.33976C10.6926 5.13062 11.401 5.09853 12.1498 5.09853Z" fill="white"/>
</svg>
