<svg xmlns="http://www.w3.org/2000/svg" width="24" height="24" viewBox="0 0 24 24" fill="none"><rect width="24" height="24" fill="none"/>
<path d="M22 2H2V22H22V2Z" fill="#FF0032"/>
<path d="M8.0842 3.5381L6.6143 6.59078L5.1444 3.5381H3.54045V8.1524H4.66463V4.85042L6.1016 7.6397H7.127L8.56397 4.85042V8.1524H9.6905V3.5381H8.0842Z" fill="white"/>
<path d="M15.3255 3.5381V4.45767H17.334L17.3293 8.1524H18.4534L18.4581 4.45767H20.469V3.5381H15.3255Z" fill="white"/>
<path d="M19.3424 18.9214C19.3142 19.1049 19.2413 19.2578 19.1214 19.3706C19.0085 19.4788 18.8579 19.5541 18.6698 19.5988C18.484 19.6411 18.2135 19.667 17.9243 19.667C17.635 19.667 17.3622 19.6294 17.1388 19.5517C16.9224 19.4788 16.7507 19.3495 16.6308 19.1684C16.5085 18.9873 16.4473 18.7239 16.4473 18.3899V17.9172C16.4473 17.5809 16.5085 17.3198 16.6308 17.1388C16.7507 16.9577 16.9224 16.8307 17.1388 16.7554C17.3622 16.6802 17.6256 16.6402 17.9243 16.6402C18.223 16.6402 18.484 16.666 18.6698 16.7084C18.8579 16.7507 19.0085 16.8283 19.1214 16.9365C19.2389 17.0517 19.3142 17.2023 19.3424 17.3857H20.469C20.4384 17.0047 20.309 16.6802 20.0833 16.4214C19.8763 16.1839 19.5917 16.0099 19.2366 15.904C18.8909 15.8006 18.4393 15.7465 17.9266 15.7465C17.3881 15.7465 16.92 15.8241 16.5343 15.977C16.1439 16.1322 15.8429 16.3909 15.6336 16.746C15.4337 17.087 15.3302 17.5409 15.3231 18.0983V18.15L15.3843 18.1524L15.3231 18.1548V18.2065C15.3302 18.7639 15.4337 19.2178 15.6336 19.5588C15.8405 19.9139 16.1439 20.1726 16.5343 20.3278C16.9177 20.4807 17.3857 20.5583 17.9266 20.5583C18.4652 20.5583 18.8932 20.5042 19.2366 20.4008C19.5917 20.2949 19.8763 20.1209 20.0833 19.8833C20.309 19.6246 20.4384 19.3001 20.469 18.9191L19.3424 18.9214Z" fill="white"/>
</svg>
