<svg xmlns="http://www.w3.org/2000/svg" width="24" height="24" viewBox="0 0 24 24" fill="none"><rect width="24" height="24" fill="none"/>
<path d="M18.8043 14.2954H11.6615V4.20966H18.1663C20.266 4.20966 21.4053 5.51806 21.4053 7.06621C21.4053 7.7613 21.0549 8.47125 20.5178 9.00836C21.3096 9.42653 21.9884 10.3683 21.9884 11.3506C21.9884 13.0785 20.6396 14.2949 18.8043 14.2949V14.2954ZM14.1543 12.2664H18.4646C19.0687 12.2664 19.4664 11.8198 19.4664 11.2706V11.2544C19.4664 10.7052 19.0687 10.2587 18.4646 10.2587H14.1543V12.2664ZM14.1543 8.23011H17.842C18.4948 8.23011 18.8833 7.7836 18.8833 7.23441C18.8833 6.68521 18.519 6.2387 17.842 6.2387H14.1543V8.23011Z" fill="#2DBE64"/>
<path d="M7.2782 14.2954H2V4.20966H6.6398C8.73946 4.20966 9.87874 5.51806 9.87874 7.06621C9.87874 7.7613 9.5284 8.47125 8.99129 9.00836C9.78302 9.42653 10.4618 10.3683 10.4618 11.3506C10.4618 13.0785 9.11302 14.2949 7.27774 14.2949L7.2782 14.2954ZM4.49274 12.2664H6.93855C7.54257 12.2664 7.9403 11.8198 7.9403 11.2706V11.2544C7.9403 10.7052 7.54257 10.2587 6.93855 10.2587H4.49274V12.2664ZM4.49274 8.23011H6.31595C6.96876 8.23011 7.35719 7.7836 7.35719 7.23441C7.35719 6.68521 6.99292 6.2387 6.31595 6.2387H4.49274V8.23011Z" fill="#2DBE64"/>
<path d="M3.20386 17.1589H4.01928C4.42398 17.1589 4.75851 17.2783 5.02242 17.5176C5.28633 17.7569 5.41828 18.0649 5.41828 18.4427C5.41828 18.8204 5.28633 19.1243 5.02242 19.365C4.75851 19.6061 4.42398 19.7265 4.01928 19.7265H2.35962V15.6205H5.06609V16.4183H3.20386V17.1589ZM4.44163 18.8186C4.54943 18.7298 4.60379 18.6048 4.60379 18.4427C4.60379 18.2805 4.54989 18.1546 4.44163 18.064C4.33384 17.9734 4.18887 17.9279 4.00813 17.9279H3.20432V18.9515H4.00813C4.18934 18.9515 4.33384 18.9073 4.44163 18.8186Z" fill="#2DBE64"/>
<path d="M6.62679 19.7265H5.91544V16.8351H6.70763V18.5412L8.00302 16.8351H8.70833V19.7265H7.92171V18.0203L6.62632 19.7265H6.62679Z" fill="#2DBE64"/>
<path d="M10.5157 19.7901C10.1919 19.7901 9.9029 19.7093 9.64828 19.5471C9.39366 19.385 9.23755 19.1424 9.17993 18.8186H9.99536C10.0609 19.0346 10.2323 19.1424 10.5102 19.1424C10.8071 19.1345 10.9553 19.0249 10.9553 18.8125C10.9553 18.7201 10.9228 18.6467 10.8568 18.5928C10.7913 18.5389 10.6969 18.5119 10.5734 18.5119H10.2207V17.9683H10.5446C10.6486 17.9683 10.7304 17.9441 10.7903 17.8963C10.8503 17.848 10.88 17.7778 10.88 17.6853C10.88 17.5929 10.847 17.5255 10.7815 17.4716C10.716 17.4177 10.6217 17.3908 10.4981 17.3908C10.263 17.3908 10.1106 17.4888 10.0414 17.6853H9.24916C9.31467 17.3694 9.46522 17.138 9.70032 16.9916C9.93542 16.8453 10.2091 16.7719 10.5213 16.7719C10.8837 16.7719 11.1602 16.8597 11.3511 17.0349C11.5421 17.2105 11.6374 17.408 11.6374 17.6277C11.6374 17.8782 11.5468 18.071 11.3656 18.2062C11.6239 18.3488 11.7531 18.5723 11.7531 18.8771C11.7531 19.1197 11.6453 19.3329 11.4292 19.516C11.2132 19.699 10.9088 19.7906 10.5153 19.7906L10.5157 19.7901Z" fill="#2DBE64"/>
<path d="M12.305 19.7265V16.8351H13.0972V17.9279H14.2885V16.8351H15.0807V19.7265H14.2885V18.616H13.0972V19.7265H12.305Z" fill="#2DBE64"/>
<path d="M17.1256 19.7901C16.6823 19.7901 16.319 19.6475 16.0355 19.3622C15.7521 19.0769 15.6104 18.7145 15.6104 18.275C15.6104 17.8354 15.754 17.4846 16.0411 17.1993C16.3283 16.9141 16.6916 16.7714 17.1311 16.7714C17.5707 16.7714 17.9424 16.9229 18.2356 17.2254C18.5283 17.5278 18.6635 17.9414 18.6403 18.4659H16.3849C16.4003 18.6471 16.4756 18.7986 16.6108 18.9199C16.7455 19.0411 16.9309 19.102 17.166 19.102C17.3086 19.102 17.435 19.0741 17.5447 19.0179C17.6548 18.9621 17.7328 18.8841 17.7788 18.7837H18.6059C18.5209 19.0806 18.3434 19.3227 18.0739 19.5095C17.8039 19.6967 17.488 19.7901 17.1256 19.7901ZM17.1079 17.4131C16.9267 17.4131 16.7752 17.4605 16.654 17.5548C16.5327 17.6491 16.4528 17.7792 16.4142 17.9451H17.7733C17.731 17.7639 17.6469 17.63 17.5219 17.5432C17.3964 17.4563 17.2589 17.4131 17.1084 17.4131H17.1079Z" fill="#2DBE64"/>
<path d="M20.5192 19.7901C20.0834 19.7901 19.721 19.6447 19.432 19.3534C19.143 19.0625 18.998 18.7047 18.998 18.2805C18.998 17.8563 19.1425 17.499 19.432 17.2077C19.721 16.9168 20.0834 16.7709 20.5192 16.7709C20.9044 16.7709 21.2278 16.8787 21.488 17.0948C21.7482 17.3108 21.9187 17.5919 22 17.939H21.179C21.0517 17.6384 20.8319 17.4879 20.5197 17.4879C20.3078 17.4879 20.134 17.5604 19.9993 17.7049C19.8641 17.8494 19.7967 18.0412 19.7967 18.2801C19.7967 18.5189 19.8641 18.7108 19.9993 18.8553C20.134 18.9998 20.3078 19.0723 20.5197 19.0723C20.8319 19.0723 21.0517 18.9217 21.179 18.6211H22C21.9192 18.9682 21.7486 19.2493 21.488 19.4653C21.2278 19.6814 20.9049 19.7892 20.5192 19.7892V19.7901Z" fill="#2DBE64"/>
</svg>
