<svg xmlns="http://www.w3.org/2000/svg" width="81" height="24" viewBox="0 0 81 24" fill="none"><rect width="81" height="24" fill="none"/>
<path d="M4.75 21.625C3.25 21.5 2 20.1875 2 18.75V5.25C2 3.8125 3.25 2.5 4.75 2.375C9.56251 1.875 14.4375 1.875 19.3125 2.375C20.75 2.5 22 3.8125 22 5.25V18.75C22 20.1875 20.75 21.5 19.25 21.625C16.875 21.875 14.4375 22 12 22C9.56251 22 7.12499 21.875 4.75 21.625Z" fill="url(#paint0_linear_4424_142)"/>
<path fill-rule="evenodd" clip-rule="evenodd" d="M7.90152 6.88536C8.14791 6.78332 8.43149 6.83974 8.62007 7.02831L12.1099 10.5181L15.5997 7.02831C15.7883 6.83974 16.0719 6.78332 16.3182 6.88536C16.5646 6.98743 16.7253 7.22785 16.7253 7.49453V14.7473C16.7253 15.1114 16.4301 15.4066 16.0659 15.4066C15.7018 15.4066 15.4066 15.1114 15.4066 14.7473V9.08631L12.5761 11.9168C12.3186 12.1743 11.9012 12.1743 11.6437 11.9168L8.81319 9.08631V14.7473C8.81319 15.1114 8.518 15.4066 8.15385 15.4066C7.78969 15.4066 7.49451 15.1114 7.49451 14.7473V7.49453C7.49451 7.22785 7.65514 6.98743 7.90152 6.88536ZM12.7692 15.6797L14.3344 14.1146C14.5918 13.8571 14.5918 13.4396 14.3344 13.1822C14.0769 12.9247 13.6594 12.9247 13.4019 13.1822L12.1099 14.4742L10.8179 13.1822C10.5604 12.9247 10.1429 12.9247 9.88543 13.1822C9.62793 13.4396 9.62793 13.8571 9.88543 14.1146L11.4505 15.6797V17.3846C11.4505 17.7488 11.7457 18.044 12.1099 18.044C12.474 18.044 12.7692 17.7488 12.7692 17.3846V15.6797Z" fill="#B34D00"/>
<path fill-rule="evenodd" clip-rule="evenodd" d="M39.1695 8.78782C38.9121 8.52859 38.4945 8.52859 38.2371 8.78782C37.9796 9.04708 37.9796 9.46738 38.2371 9.72662L40.6813 12.1875V14.5275C40.6813 14.8916 40.9765 15.1868 41.3407 15.1868C41.7048 15.1868 42 14.8916 42 14.5275V12.1382L44.4442 9.72662C44.7018 9.46736 44.7018 9.04708 44.4442 8.78782C44.1868 8.52859 43.7692 8.52859 43.5119 8.78782L41.3141 10.9469L39.1695 8.78782ZM57.1648 11.8901C57.1648 10.7977 58.0503 9.91209 59.1429 9.91209C60.2354 9.91209 61.1209 10.7977 61.1209 11.8901C61.1209 12.9825 60.2354 13.8681 59.1429 13.8681C58.0503 13.8681 57.1648 12.9825 57.1648 11.8901ZM59.1429 8.59341C57.3222 8.59341 55.8462 10.0694 55.8462 11.8901C55.8462 13.7108 57.3222 15.1868 59.1429 15.1868C60.9635 15.1868 62.4396 13.7108 62.4396 11.8901C62.4396 10.0694 60.9635 8.59341 59.1429 8.59341ZM66.3956 11.8901C66.3956 10.7977 67.2811 9.91209 68.3736 9.91209C69.4662 9.91209 70.3516 10.7977 70.3516 11.8901C70.3516 12.9825 69.4662 13.8681 68.3736 13.8681C67.2811 13.8681 66.3956 12.9825 66.3956 11.8901ZM68.3736 8.59341C66.553 8.59341 65.0769 10.0694 65.0769 11.8901C65.0769 13.7108 66.553 15.1868 68.3736 15.1868C70.1943 15.1868 71.6703 13.7108 71.6703 11.8901C71.6703 10.0694 70.1943 8.59341 68.3736 8.59341ZM28.9993 8.64363C29.2451 8.54156 29.5279 8.59798 29.716 8.78655L31.8813 10.9577L34.0468 8.78655C34.2347 8.59798 34.5176 8.54156 34.7633 8.64363C35.009 8.74567 35.1692 8.98609 35.1692 9.25277V14.5275C35.1692 14.8916 34.8749 15.1868 34.5116 15.1868C34.1486 15.1868 33.8541 14.8916 33.8541 14.5275V10.8446L32.3464 12.3564C32.0895 12.6138 31.6732 12.6138 31.4163 12.3564L29.9086 10.8446V14.5275C29.9086 14.8916 29.6141 15.1868 29.251 15.1868C28.8879 15.1868 28.5934 14.8916 28.5934 14.5275V9.25277C28.5934 8.98609 28.7536 8.74567 28.9993 8.64363ZM47.4945 9.25275C47.4945 8.88862 47.7897 8.59341 48.1538 8.59341H50.022C51.0455 8.59341 51.8901 9.43807 51.8901 10.4615C51.8901 10.8397 51.7747 11.1935 51.5778 11.4892C52.1547 11.8415 52.5494 12.509 52.5494 13.2088C52.5494 14.2323 51.7048 15.1868 50.6813 15.1868H48.1538C47.7897 15.1868 47.4945 14.8916 47.4945 14.5275V9.25275ZM48.776 9.91209V11.011H50.022C50.3171 11.011 50.5714 10.7567 50.5714 10.4615C50.5714 10.1664 50.3171 9.91209 50.022 9.91209H48.776ZM48.8132 12.5495V13.8681H50.6813C50.9765 13.8681 51.2308 13.6484 51.2308 13.2088C51.2308 12.7692 50.9765 12.5495 50.6813 12.5495H48.8132ZM75.4066 8.59341C75.7708 8.59341 76.0659 8.88862 76.0659 9.25275V11.1767L78.453 8.78829C78.7112 8.52846 79.1303 8.52846 79.3886 8.78829C79.647 9.04809 79.647 9.46934 79.3886 9.72914L77.2237 11.893L79.3886 14.0511C79.647 14.3109 79.647 14.7322 79.3886 14.992C79.1303 15.2518 78.7112 15.2518 78.453 14.992L76.0659 12.6088V14.5275C76.0659 14.8916 75.7708 15.1868 75.4066 15.1868C75.0424 15.1868 74.7473 14.8916 74.7473 14.5275V9.25275C74.7473 8.88862 75.0424 8.59341 75.4066 8.59341Z" fill="black"/>
<defs>
<linearGradient id="paint0_linear_4424_142" x1="40.7912" y1="2" x2="40.7912" y2="22" gradientUnits="userSpaceOnUse">
<stop stop-color="#FFD754"/>
<stop offset="1" stop-color="#FF9B29"/>
</linearGradient>
</defs>
</svg>
