<svg xmlns="http://www.w3.org/2000/svg" width="24" height="24" viewBox="0 0 24 24" fill="none"><rect width="24" height="24" fill="none"/>
<path fill-rule="evenodd" clip-rule="evenodd" d="M15.0489 5V10.2103C15.8343 9.26449 16.7752 8.78839 17.8671 8.78839C18.4276 8.78839 18.9344 8.89689 19.3868 9.11196C19.838 9.32576 20.1767 9.60019 20.4048 9.93333C20.6341 10.2678 20.794 10.6456 20.8743 11.0438C20.9583 11.4478 21 12.0764 21 12.9291V18.5H18.5622V13.4824C18.5622 12.4868 18.5154 11.8563 18.4232 11.5882C18.336 11.3253 18.1628 11.1006 17.9316 10.95C17.699 10.7898 17.4046 10.7107 17.0513 10.7107C16.6469 10.7107 16.2849 10.8128 15.9689 11.0157C15.6504 11.22 15.4185 11.525 15.27 11.9328C15.1228 12.3413 15.0489 12.9444 15.0489 13.7428V18.5H12.6117V5H15.0489ZM5.43912 5V10.2103C6.22519 9.26449 7.16607 8.78839 8.25798 8.78839C8.82099 8.78839 9.32397 8.89689 9.7764 9.11196C10.2295 9.32576 10.5682 9.60019 10.7969 9.93333C11.0269 10.2697 11.1817 10.6379 11.2664 11.0438C11.3498 11.4478 11.3909 12.0764 11.3909 12.9291V18.5H8.95116V13.4824C8.95116 12.4868 8.90692 11.8563 8.81404 11.5882C8.72684 11.3259 8.55433 11.1006 8.32369 10.95C8.08863 10.7898 7.79606 10.7107 7.44284 10.7107C7.03906 10.7107 6.67636 10.8128 6.36041 11.0157C6.03878 11.22 5.80751 11.525 5.66091 11.9328C5.51179 12.3413 5.43722 12.9444 5.43912 13.7428L5.43722 18.5H3.00003V5H5.43912Z" fill="white"/>
<path fill-rule="evenodd" clip-rule="evenodd" d="M15.0489 5V10.2103C15.8343 9.26449 16.7752 8.78839 17.8671 8.78839C18.4276 8.78839 18.9344 8.89689 19.3868 9.11196C19.838 9.32576 20.1767 9.60019 20.4048 9.93333C20.6341 10.2678 20.794 10.6456 20.8743 11.0438C20.9583 11.4478 21 12.0764 21 12.9291V18.5H18.5622V13.4824C18.5622 12.4868 18.5154 11.8563 18.4232 11.5882C18.336 11.3253 18.1628 11.1006 17.9316 10.95C17.699 10.7898 17.4046 10.7107 17.0513 10.7107C16.6469 10.7107 16.2849 10.8128 15.9689 11.0157C15.6504 11.22 15.4185 11.525 15.27 11.9328C15.1228 12.3413 15.0489 12.9444 15.0489 13.7428V18.5H12.6117V5H15.0489ZM5.43912 5V10.2103C6.22519 9.26449 7.16607 8.78839 8.25798 8.78839C8.82099 8.78839 9.32397 8.89689 9.7764 9.11196C10.2295 9.32576 10.5682 9.60019 10.7969 9.93333C11.0269 10.2697 11.1817 10.6379 11.2664 11.0438C11.3498 11.4478 11.3909 12.0764 11.3909 12.9291V18.5H8.95116V13.4824C8.95116 12.4868 8.90692 11.8563 8.81404 11.5882C8.72684 11.3259 8.55433 11.1006 8.32369 10.95C8.08863 10.7898 7.79606 10.7107 7.44284 10.7107C7.03906 10.7107 6.67636 10.8128 6.36041 11.0157C6.03878 11.22 5.80751 11.525 5.66091 11.9328C5.51179 12.3413 5.43722 12.9444 5.43912 13.7428L5.43722 18.5H3.00003V5H5.43912Z" fill="white"/>
</svg>
