<svg xmlns="http://www.w3.org/2000/svg" width="24" height="24" viewBox="0 0 24 24" fill="none"><rect width="24" height="24" fill="none"/>
<path fill-rule="evenodd" clip-rule="evenodd" d="M14.141 10.6114H9.93702C9.79115 10.6379 9.65684 10.7082 9.55203 10.8132C9.4472 10.9181 9.37685 11.0525 9.35038 11.1985V12.6664C9.35067 12.7493 9.36823 12.8314 9.40188 12.9072C9.43555 12.983 9.48461 13.0509 9.54594 13.1067C9.64725 13.2186 9.78678 13.2885 9.93702 13.3025H12.0879V17.2931C12.0844 17.7709 11.9098 18.2316 11.5959 18.5916C11.2819 18.9516 10.8495 19.1869 10.377 19.255H9.93702C9.85411 19.2553 9.77219 19.2729 9.69646 19.3066C9.62072 19.3403 9.5528 19.3894 9.49704 19.4508C9.43674 19.5075 9.38839 19.5756 9.3548 19.6513C9.32123 19.7269 9.30312 19.8084 9.30151 19.8911V21.3639C9.30519 21.5221 9.35627 21.6756 9.44817 21.8043C9.50474 21.8647 9.57283 21.913 9.64841 21.9466C9.72396 21.9802 9.80547 21.9984 9.88812 22H10.0837C11.254 21.9996 12.3803 21.5532 13.2338 20.7517C14.0873 19.9501 14.6039 18.8534 14.6788 17.6844C14.7032 17.5881 14.7032 17.4872 14.6788 17.3909V11.1985C14.6785 11.1156 14.661 11.0336 14.6273 10.9578C14.5936 10.882 14.5446 10.814 14.4833 10.7582C14.4435 10.7065 14.3912 10.6658 14.3313 10.6401C14.2714 10.6144 14.2059 10.6045 14.141 10.6114Z" fill="white"/>
<path fill-rule="evenodd" clip-rule="evenodd" d="M14.4801 9.39399C14.8308 2.91113 9.70117 2 9.70117 2C9.96423 9.12065 14.4801 9.39399 14.4801 9.39399Z" fill="#49DA1F"/>
</svg>
