<svg xmlns="http://www.w3.org/2000/svg" width="16" height="16" viewBox="0 0 16 16" fill="none"><rect width="16" height="16" fill="none"/>
<g clip-path="url(#clip0_10859_78)">
<path fill-rule="evenodd" clip-rule="evenodd" d="M8 16C12.4183 16 16 12.4183 16 8C16 3.58172 12.4183 0 8 0C3.58172 0 0 3.58172 0 8C0 12.4183 3.58172 16 8 16ZM11.8914 4.67094C12.0144 4.79393 12.0122 5.06046 11.9845 5.24474L11.0433 11.4C10.9973 11.6997 10.8584 12.0674 10.6181 12.1862C10.3531 12.3173 9.95032 12.2171 9.67309 12.03L7.02832 10.2465C6.74646 10.0563 6.7113 9.65484 6.95583 9.41857L9.66553 6.80027C9.73977 6.72854 9.78045 6.59102 9.71883 6.5181C9.65752 6.44556 9.50671 6.4544 9.42773 6.50829L6.08392 8.78951C5.55807 9.14825 4.89977 9.25419 4.28793 9.07852L3.09404 8.72078C2.89775 8.65964 2.71961 8.52226 2.71372 8.38923C2.708 8.25975 2.83983 8.11904 3.06187 8.01285L11.1164 4.63742C11.3605 4.53377 11.7359 4.51362 11.8914 4.67094Z" fill="#000000"/>
</g>
<defs>
<clipPath id="clip0_10859_78">
<rect width="16" height="16" fill="white"/>
</clipPath>
</defs>
</svg>
