<svg xmlns="http://www.w3.org/2000/svg" width="24" height="24" viewBox="0 0 24 24" fill="none"><rect width="24" height="24" fill="none"/>
<path d="M19.6284 17.3894C18.0107 18.8218 15.9003 19.686 13.5976 19.686C8.76793 19.686 5.14824 15.9326 5.14824 11.6425C5.14824 7.60805 8.35459 4.31397 12.3294 4.31397C16.081 4.31397 18.7876 7.23224 18.7876 10.3917C18.7876 13.3536 16.4586 15.7562 13.5976 15.7562C10.9801 15.7562 9.13248 13.7669 9.13248 11.6425C9.13248 9.73623 10.6024 8.24378 12.3308 8.24378C13.8604 8.24378 14.8048 9.36277 14.8048 10.3917C14.8048 11.285 14.1785 11.8245 13.5976 11.8245C13.3926 11.8245 13.3142 11.7809 13.2317 11.7293C13.3278 11.6055 13.3979 11.4635 13.4379 11.312C13.4779 11.1604 13.4869 11.0024 13.4644 10.8472C13.4432 10.6976 13.3926 10.5535 13.3156 10.4234C13.2386 10.2933 13.1367 10.1797 13.0157 10.0891C12.8947 9.99848 12.757 9.93264 12.6105 9.89535C12.464 9.85807 12.3115 9.85007 12.1619 9.87182C11.6247 9.95252 11.2836 10.3194 11.1147 10.5911C10.9208 10.9071 10.8194 11.2712 10.822 11.642C10.822 13.1584 12.23 14.1385 13.5976 14.1385C15.5958 14.1399 17.0981 12.3889 17.0981 10.3917C17.0981 7.94726 14.9868 5.92981 12.3308 5.92981C9.24649 5.92981 6.83915 8.55016 6.83915 11.6425C6.83915 15.1463 9.81654 18.0688 13.599 18.0688C17.7808 18.0688 21.0824 14.5753 21.0824 10.3903C21.0824 5.89181 17.2867 2 12.3308 2C7.05873 2 2.85632 6.36145 2.85632 11.6425C2.85632 17.281 7.57388 22 13.599 22C16.4812 22 19.125 20.9143 21.1424 19.1282L19.6284 17.3894ZM13.1125 11.6172C13.1125 11.6148 13.1111 11.6162 13.1125 11.6172Z" fill="white"/>
</svg>
