<svg xmlns="http://www.w3.org/2000/svg" width="24" height="24" viewBox="0 0 24 24" fill="none"><rect width="24" height="24" fill="none"/>
<path d="M23 5.95007C17.7436 9.10719 11.9236 11.7487 7.36958 13.5812C7.36715 14.9508 6.7483 16.5173 4.8895 18.0208C8.07741 17.6154 12.5702 13.0207 23 5.95007Z" fill="white"/>
<path d="M23 5.95007C19.2077 8.01822 10.0755 9.60215 5.98343 10.1356C6.63917 10.8235 7.37223 12.0849 7.36958 13.5812C11.9236 11.7487 17.7436 9.10719 23 5.95007Z" fill="white"/>
<path d="M1 15.9215C2.31026 17.5519 3.47063 18.2013 4.8895 18.0208C6.7483 16.5173 7.36715 14.9508 7.36958 13.5812C4.6786 14.664 2.4296 15.4643 1 15.9215Z" fill="#CBC9C9"/>
</svg>
