<svg xmlns="http://www.w3.org/2000/svg" width="157" height="24" viewBox="0 0 157 24" fill="none"><rect width="157" height="24" fill="none"/>
<path d="M12.6646 7.43334L10.4486 9.66858L8.23171 7.43334C7.00769 6.19971 7.00769 4.19648 8.23171 2.92445C8.52175 2.63156 8.86696 2.39905 9.2474 2.24038C9.62784 2.0817 10.036 2 10.4482 2C10.8604 2 11.2685 2.0817 11.6489 2.24038C12.0293 2.39905 12.3746 2.63156 12.6646 2.92445C13.8886 4.19648 13.8886 6.19971 12.6646 7.43334Z" fill="white"/>
<path d="M8.23171 13.7527L10.4478 11.5182L12.6646 13.7527C13.8886 14.9863 13.8886 16.9903 12.6646 18.2615C12.3746 18.5544 12.0293 18.7869 11.6489 18.9456C11.2685 19.1043 10.8604 19.186 10.4482 19.186C10.036 19.186 9.62784 19.1043 9.2474 18.9456C8.86696 18.7869 8.52175 18.5544 8.23171 18.2615C7.00769 16.9895 7.00769 14.9863 8.23171 13.7527Z" fill="white"/>
<path d="M13.5814 12.867L11.3646 10.5934L13.5806 8.35815C13.8707 8.06514 14.2159 7.83253 14.5964 7.67378C14.9769 7.51503 15.3852 7.43329 15.7975 7.43329C16.2097 7.43329 16.618 7.51503 16.9985 7.67378C17.379 7.83253 17.7242 8.06514 18.0143 8.35815C19.2375 9.59178 19.2375 11.595 18.0143 12.867C17.7243 13.1599 17.379 13.3924 16.9986 13.5511C16.6182 13.7098 16.2101 13.7915 15.7978 13.7915C15.3856 13.7915 14.9775 13.7098 14.5971 13.5511C14.2167 13.3924 13.8714 13.1599 13.5814 12.867Z" fill="white"/>
<path d="M7.3509 8.35815L9.56774 10.5934L7.3517 12.8286C7.06165 13.1217 6.71638 13.3543 6.33587 13.513C5.95536 13.6718 5.54715 13.7535 5.13486 13.7535C4.72256 13.7535 4.31435 13.6718 3.93384 13.513C3.55333 13.3543 3.20807 13.1217 2.91802 12.8286C1.69399 11.595 1.69399 9.59178 2.91802 8.31975C4.10204 7.12533 6.12848 7.12533 7.3509 8.35815Z" fill="white"/>
<path d="M12.6646 7.43334L10.4486 9.66858L8.23171 7.43334C7.00769 6.19971 7.00769 4.19648 8.23171 2.92445C8.52175 2.63156 8.86696 2.39905 9.2474 2.24038C9.62784 2.0817 10.036 2 10.4482 2C10.8604 2 11.2685 2.0817 11.6489 2.24038C12.0293 2.39905 12.3746 2.63156 12.6646 2.92445C13.8886 4.19648 13.8886 6.19971 12.6646 7.43334Z" fill="white"/>
<path d="M8.23171 13.7527L10.4478 11.5182L12.6646 13.7527C13.8886 14.9863 13.8886 16.9903 12.6646 18.2615C12.3746 18.5544 12.0293 18.7869 11.6489 18.9456C11.2685 19.1043 10.8604 19.186 10.4482 19.186C10.036 19.186 9.62784 19.1043 9.2474 18.9456C8.86696 18.7869 8.52175 18.5544 8.23171 18.2615C7.00769 16.9895 7.00769 14.9863 8.23171 13.7527Z" fill="white"/>
<path d="M13.5814 12.867L11.3646 10.5934L13.5806 8.35815C13.8707 8.06514 14.2159 7.83253 14.5964 7.67378C14.9769 7.51503 15.3852 7.43329 15.7975 7.43329C16.2097 7.43329 16.618 7.51503 16.9985 7.67378C17.379 7.83253 17.7242 8.06514 18.0143 8.35815C19.2375 9.59178 19.2375 11.595 18.0143 12.867C17.7243 13.1599 17.379 13.3924 16.9986 13.5511C16.6182 13.7098 16.2101 13.7915 15.7978 13.7915C15.3856 13.7915 14.9775 13.7098 14.5971 13.5511C14.2167 13.3924 13.8714 13.1599 13.5814 12.867Z" fill="white"/>
<path d="M7.3509 8.35815L9.56774 10.5934L7.3517 12.8286C7.06165 13.1217 6.71638 13.3543 6.33587 13.513C5.95536 13.6718 5.54715 13.7535 5.13486 13.7535C4.72256 13.7535 4.31435 13.6718 3.93384 13.513C3.55333 13.3543 3.20807 13.1217 2.91802 12.8286C1.69399 11.595 1.69399 9.59178 2.91802 8.31975C4.10204 7.12533 6.12848 7.12533 7.3509 8.35815Z" fill="white"/>
<path d="M131.527 9.89978H128.278V17.7999H125.603V9.89978H122.354V7.27893H131.527V9.89978ZM40.2579 13.6759H48.0548C48.1329 13.3085 48.1716 12.9338 48.17 12.5582C48.17 9.47577 45.9908 7.00933 42.9339 7.00933C39.6851 7.00933 37.4682 9.43737 37.4682 12.5582C37.4682 15.6799 39.6467 18.1079 43.1243 18.1079C45.1124 18.1079 46.6788 17.2983 47.6348 15.8727L45.494 14.6007C45.0356 15.2175 44.1948 15.6415 43.1627 15.6415C41.7867 15.6415 40.6395 15.0631 40.2579 13.6759ZM40.2203 11.5566C40.5259 10.2078 41.5195 9.43657 42.9339 9.43657C44.042 9.43657 45.1884 10.0534 45.494 11.5566H40.2203ZM56.043 7.00933C54.5526 7.00933 53.4437 7.58774 52.6797 8.55096V7.31734H50.0045V22H52.6797V16.5663C53.4437 17.5295 54.5142 18.1079 56.043 18.1079C58.8326 18.1079 61.0879 15.6799 61.0879 12.5582C61.1263 9.43737 58.8326 7.00933 56.043 7.00933ZM55.5462 15.4871C53.9021 15.4871 52.6797 14.2927 52.6797 12.5198C52.6797 10.747 53.9021 9.55258 55.5462 9.55258C57.1894 9.55258 58.4126 10.747 58.4126 12.5206C58.4126 14.2927 57.2278 15.4871 55.5462 15.4871ZM65.2536 13.6759H73.0505C73.1283 13.3084 73.1667 12.9338 73.1649 12.5582C73.1649 9.47577 70.9865 7.00933 67.9296 7.00933C64.6807 7.00933 62.4639 9.43737 62.4639 12.5582C62.4639 15.6799 64.6423 18.1079 68.12 18.1079C70.108 18.1079 71.6745 17.2983 72.6305 15.8727L70.4896 14.6007C70.0312 15.2175 69.1904 15.6415 68.1584 15.6415C66.7824 15.6415 65.6352 15.0631 65.2536 13.6759ZM65.2159 11.5566C65.5216 10.2078 66.5152 9.43657 67.9288 9.43657C69.0376 9.43657 70.1848 10.0534 70.4896 11.5566H65.2159ZM92.6956 7.00933C91.1668 7.00933 90.0964 7.58774 89.3324 8.55096V7.31734H86.6571V22H89.3324V16.5663C90.0964 17.5295 91.1668 18.1079 92.6956 18.1079C95.4853 18.1079 97.7405 15.6799 97.7405 12.5582C97.7405 9.43737 95.4477 7.00933 92.6956 7.00933ZM92.1988 15.4871C90.5556 15.4871 89.3324 14.2927 89.3324 12.5198C89.3324 10.747 90.5556 9.55258 92.1988 9.55258C93.8421 9.55258 95.0653 10.747 95.0653 12.5206C95.0653 14.2927 93.8421 15.4871 92.1988 15.4871ZM101.906 13.6759H109.703C109.78 13.3294 109.818 12.9438 109.818 12.5582C109.818 9.47577 107.64 7.00933 104.582 7.00933C101.333 7.00933 99.1166 9.43737 99.1166 12.5582C99.1166 15.6799 101.295 18.1079 104.773 18.1079C106.761 18.1079 108.327 17.2983 109.283 15.8727L107.142 14.6007C106.684 15.2175 105.843 15.6415 104.811 15.6415C103.397 15.6415 102.25 15.0631 101.906 13.6759ZM102.48 6.19971C103.245 6.19971 103.856 5.5837 103.856 4.81249C103.856 4.04208 103.245 3.38686 102.48 3.38686C101.716 3.38686 101.065 4.04208 101.065 4.81249C101.065 5.5837 101.716 6.19971 102.48 6.19971ZM101.83 11.5566C102.136 10.2078 103.129 9.43657 104.544 9.43657C105.652 9.43657 106.799 10.0534 107.105 11.5566H101.83ZM106.378 6.19971C107.142 6.19971 107.754 5.5837 107.754 4.81249C107.754 4.04208 107.142 3.38686 106.378 3.38686C105.614 3.38686 104.964 4.04208 104.964 4.81249C105.002 5.5837 105.614 6.19971 106.378 6.19971ZM116.506 18.0695C118.532 18.0695 120.291 16.9895 121.169 15.3335L118.838 13.9847C118.418 14.8327 117.538 15.3719 116.468 15.3719C114.863 15.3719 113.678 14.1775 113.678 12.5198C113.678 10.863 114.863 9.66858 116.468 9.66858C117.538 9.66858 118.418 10.2078 118.838 11.0558L121.131 9.70698C120.291 8.08855 118.532 7.00933 116.506 7.00933C113.373 7.00933 111.041 9.43737 111.041 12.5582C111.041 15.6799 113.373 18.0695 116.506 18.0695ZM137.872 18.0695C140.929 18.0695 143.337 15.6415 143.337 12.5198C143.337 9.39897 140.929 7.00933 137.872 7.00933C134.814 7.00933 132.406 9.43737 132.406 12.5582C132.406 15.6799 134.814 18.0695 137.872 18.0695ZM137.872 15.4487C136.304 15.4487 135.081 14.2543 135.081 12.5582C135.081 10.863 136.304 9.66858 137.872 9.66858C139.476 9.66858 140.7 10.863 140.7 12.5582C140.7 14.2543 139.476 15.4487 137.872 15.4487ZM81.8027 17.7999H84.8987L80.9242 12.4814L84.7459 7.31734H81.5738L78.6306 11.5566H77.7138V7.31734H75.0385V17.7999H77.7138V13.6759H78.8218L81.8027 17.7999ZM151.707 17.7999H154.802L150.866 12.4814L154.688 7.31734H151.516L148.535 11.595H147.617V7.31734H144.942V17.7999H147.617V13.6759H148.725L151.707 17.7999ZM24.8936 3.34846V17.7599H27.7609V6.08451H32.8826V17.7999H35.749V3.34846H24.8936Z" fill="white"/>
</svg>
