<svg xmlns="http://www.w3.org/2000/svg" width="24" height="24" viewBox="0 0 24 24" fill="none"><rect width="24" height="24" fill="none"/>
<path fill-rule="evenodd" clip-rule="evenodd" d="M2.99902 8.07115V15.9259C2.99902 16.6905 3.40724 17.3938 4.06617 17.7743L10.948 21.7195C11.6005 22.0937 12.3976 22.0937 13.0501 21.7195L19.9319 17.7743C20.5908 17.3969 20.999 16.6905 20.999 15.9259V8.07115C20.999 7.3066 20.5908 6.60334 19.9319 6.22589L13.0501 2.28076C12.3976 1.90658 11.6005 1.90658 10.948 2.28076L4.06617 6.22589C3.40724 6.60334 2.99902 7.30985 2.99902 8.07115ZM9.4343 15.8604H10.875V7.14982H9.4343V15.8604ZM13.7565 9.40812H15.5494L13.0201 12.6343L15.5494 15.8604H13.7565L11.6115 12.9892V12.2794L13.7565 9.40812Z" fill="white"/>
</svg>
