<svg xmlns="http://www.w3.org/2000/svg" width="155" height="24" viewBox="0 0 155 24" fill="none"><rect width="155" height="24" fill="none"/>
<path d="M17.5471 19.1715C18.1533 20.6544 18.9138 21.2099 20.2045 21.2099V21.8162C18.2822 21.7254 16.398 21.7254 14.5539 21.8162V21.2099C15.8318 21.2099 16.0895 20.6819 15.4833 19.1715L13.9476 15.3904H7.16053L5.67765 19.1715C5.07139 20.6819 5.3291 21.2099 6.60709 21.2099V21.8162C5.1242 21.7507 3.58851 21.7507 2 21.8162V21.2099C3.30334 21.2099 4.10393 20.6544 4.67004 19.1715L10.4622 4.3215H11.5205L17.545 19.1715H17.5471ZM7.47105 14.5517H13.5991L10.4896 6.83523L7.47105 14.5517Z" fill="url(#paint0_linear_4925_56)"/>
<path d="M29.9446 12.488H29.3384C29.3764 10.7981 28.3582 9.8433 26.512 9.8433C24.9636 9.8433 24.0088 10.515 24.0088 11.6494C24.0088 12.6168 24.7968 13.4428 26.3832 14.1272C26.4212 14.1399 26.6282 14.2307 27.0274 14.3849C27.4267 14.5518 27.6865 14.668 27.828 14.7334C27.9569 14.7968 28.2019 14.9278 28.5505 15.12C28.899 15.3144 29.1567 15.5066 29.3236 15.6756C29.6341 16.0368 30.1495 16.5522 30.3164 17.2113C30.4072 17.5345 30.4453 17.883 30.4453 18.2569C30.4453 19.406 30.0059 20.308 29.1292 20.9671C28.2526 21.6388 27.038 21.9726 25.5044 21.9726C24.2137 21.9726 23.2083 21.7529 22.4985 21.3135C22.357 20.4242 22.2915 19.3912 22.2788 18.2168H22.8977C22.8597 18.9519 23.1047 19.6109 23.6328 20.1644C24.1609 20.7178 24.9362 21.003 25.9818 21.003C27.6971 21.003 28.8082 20.0989 28.8082 18.7195C28.8082 18.1513 28.6138 17.714 28.2399 17.4035C27.866 17.1056 27.1309 16.7064 26.0346 16.2163C24.8601 15.6735 23.9708 15.12 23.3646 14.5391C22.7583 13.9582 22.4478 13.1978 22.4478 12.2556C22.4478 11.1973 22.847 10.3714 23.635 9.76514C24.4229 9.15889 25.4938 8.86104 26.8352 8.86104C27.752 8.86104 28.7448 9.01525 29.8411 9.33844C29.9446 10.3841 29.9826 11.4297 29.9446 12.4859V12.488Z" fill="url(#paint1_linear_4925_56)"/>
<path d="M32.4985 21.1339C33.9813 21.1339 34.5622 20.515 34.5622 18.7723V12.3591C34.5622 11.4825 34.408 10.9523 33.994 10.7474C33.7743 10.6439 33.6075 10.5805 33.4659 10.5657C33.3244 10.553 33.092 10.5277 32.7688 10.5002V9.89397C33.9687 9.90665 35.1812 9.66161 36.4211 9.13352V18.7723C36.4211 20.4875 36.9894 21.1339 38.4976 21.1339V21.8183C36.4972 21.7528 34.4968 21.7528 32.4985 21.8183V21.1339ZM35.3121 6.41278C34.9002 6.41278 34.5644 6.2966 34.3193 6.06423C34.0616 5.84455 33.9328 5.53614 33.9328 5.14746C33.9328 4.3342 34.5263 3.76597 35.3143 3.76597C36.0494 3.76597 36.7338 4.28139 36.7338 5.09465C36.7338 5.49389 36.6049 5.81709 36.3345 6.04945C36.0641 6.29448 35.7156 6.41066 35.3143 6.41066L35.3121 6.41278Z" fill="url(#paint2_linear_4925_56)"/>
<path d="M51.402 20.3587C50.8338 21.4043 50.0606 21.9197 49.0932 21.9197C48.5904 21.9197 48.1384 21.7528 47.7645 21.417C47.3906 21.0811 47.1582 20.6945 47.0674 20.2552V20.2045C45.726 21.3135 44.4861 21.869 43.3644 21.869C42.4751 21.869 41.6745 21.5733 40.9774 20.9924C40.2803 20.4115 39.9318 19.651 39.9318 18.6962C39.9318 17.1479 40.9901 16.1149 43.0919 15.5868C43.9052 15.3798 44.7184 15.2383 45.8528 15.1348C46.4083 15.0841 46.7569 15.0439 46.8984 15.0313V13.6772C46.8984 12.6971 46.8329 12.0908 46.5752 11.2522C46.3048 10.4136 45.6331 9.92354 44.6001 9.92354C44.1608 9.92354 43.7489 10.0017 43.3623 10.1432C42.9757 10.2974 42.7941 10.4411 42.8067 10.5699C42.8067 10.6734 43.5418 10.9692 43.4911 11.8352C43.4911 12.5957 43.1046 12.997 42.3293 13.0477C41.7611 13.0858 41.3492 12.9189 41.0788 12.5703C40.8084 12.2218 40.6669 11.8352 40.6669 11.4085C40.6669 10.5826 41.1443 9.96367 42.0991 9.54964C43.0412 9.13562 44.0087 8.93072 44.9761 8.93072C46.138 8.93072 47.0928 9.26659 47.8405 9.951C48.5883 10.6354 48.9622 11.5902 48.9622 12.79V18.8166C48.9622 20.8931 49.6973 21.3325 51.2077 20.158L51.402 20.365V20.3587ZM46.8984 19.5201V15.7136C44.7184 16.2036 43.6073 16.4613 43.5947 16.474C42.473 16.8606 41.9048 17.545 41.9048 18.5378C41.9048 19.1187 42.1118 19.6215 42.5364 20.0207C42.9609 20.4199 43.4911 20.6269 44.1502 20.6269C45.143 20.6269 46.0598 20.2531 46.8984 19.5179V19.5201Z" fill="url(#paint3_linear_4925_56)"/>
<path d="M69.3636 19.1715C69.9699 20.6544 70.7303 21.2099 72.021 21.2099V21.8162C70.0987 21.7254 68.2145 21.7254 66.3704 21.8162V21.2099C67.6484 21.2099 67.9061 20.6819 67.2998 19.1715L65.7641 15.3904H58.9771L57.4942 19.1715C56.8879 20.6819 57.1456 21.2099 58.4236 21.2099V21.8162C56.9407 21.7507 55.405 21.7507 53.8165 21.8162V21.2099C55.1199 21.2099 55.9205 20.6544 56.4866 19.1715L62.2808 4.3215H63.3391L69.3636 19.1715ZM59.2876 14.5517H65.4156L62.3062 6.83523L59.2876 14.5517Z" fill="url(#paint4_linear_4925_56)"/>
<path d="M74.1376 21.1339C75.6205 21.1339 76.1888 20.515 76.1888 18.7723V5.2256C76.1888 4.34896 76.0346 3.81876 75.6205 3.61174C75.4008 3.50824 75.234 3.44487 75.0924 3.43219C74.9509 3.41952 74.7185 3.39417 74.3953 3.36671V2.76046C75.6987 2.79848 76.9767 2.54077 78.2019 2V18.7744C78.2019 20.4896 78.7574 21.136 80.2656 21.136V21.8204C78.2272 21.7296 76.1888 21.7296 74.1376 21.8204V21.1339Z" fill="url(#paint5_linear_4925_56)"/>
<path d="M83.0645 21.1339C84.5474 21.1339 85.1156 20.515 85.1156 18.7723V5.2256C85.1156 4.34896 84.9614 3.81876 84.5474 3.61174C84.3277 3.50824 84.1608 3.44487 84.0193 3.43219C83.8778 3.41952 83.6454 3.39417 83.3222 3.36671V2.76046C84.6255 2.79848 85.9035 2.54077 87.1287 2V18.7744C87.1287 20.4896 87.6843 21.136 89.1925 21.136V21.8204C87.1541 21.7296 85.1156 21.7296 83.0645 21.8204V21.1339Z" fill="url(#paint6_linear_4925_56)"/>
<path d="M91.3745 21.1339C92.8574 21.1339 93.4383 20.515 93.4383 18.7723V12.3591C93.4383 11.4825 93.2841 10.9523 92.8701 10.7474C92.6504 10.6439 92.4835 10.5805 92.342 10.5657C92.2005 10.553 91.9681 10.5277 91.6449 10.5002V9.89397C92.8448 9.90665 94.0573 9.66161 95.2972 9.13352V18.7723C95.2972 20.4875 95.8655 21.1339 97.3737 21.1339V21.8183C95.3733 21.7528 93.3728 21.7528 91.3745 21.8183V21.1339ZM94.1882 6.41278C93.7763 6.41278 93.4404 6.2966 93.1954 6.06423C92.9377 5.84455 92.8088 5.53614 92.8088 5.14746C92.8088 4.3342 93.4024 3.76597 94.1903 3.76597C94.9255 3.76597 95.6099 4.28139 95.6099 5.09465C95.6099 5.49389 95.481 5.81709 95.2106 6.04945C94.9402 6.29448 94.5917 6.41066 94.1903 6.41066L94.1882 6.41278Z" fill="url(#paint7_linear_4925_56)"/>
<path d="M110.276 20.3587C109.708 21.4043 108.935 21.9197 107.967 21.9197C107.464 21.9197 107.012 21.7528 106.639 21.417C106.265 21.0811 106.032 20.6945 105.941 20.2552V20.2045C104.6 21.3135 103.36 21.869 102.238 21.869C101.349 21.869 100.549 21.5733 99.8514 20.9924C99.1544 20.4115 98.8058 19.651 98.8058 18.6962C98.8058 17.1479 99.8641 16.1149 101.966 15.5868C102.779 15.3798 103.592 15.2383 104.727 15.1348C105.282 15.0841 105.631 15.0439 105.772 15.0313V13.6772C105.772 12.6971 105.707 12.0908 105.449 11.2522C105.179 10.4136 104.507 9.92354 103.474 9.92354C103.035 9.92354 102.623 10.0017 102.236 10.1432C101.85 10.2974 101.668 10.4411 101.681 10.5699C101.681 10.6734 102.416 10.9692 102.365 11.8352C102.365 12.5957 101.979 12.997 101.203 13.0477C100.635 13.0858 100.223 12.9189 99.9528 12.5703C99.6825 12.2218 99.5409 11.8352 99.5409 11.4085C99.5409 10.5826 100.018 9.96367 100.973 9.54964C101.915 9.13562 102.883 8.93072 103.85 8.93072C105.012 8.93072 105.967 9.26659 106.715 9.951C107.462 10.6354 107.836 11.5902 107.836 12.79V18.8166C107.836 20.8931 108.571 21.3325 110.082 20.158L110.276 20.365V20.3587ZM105.772 19.5201V15.7136C103.592 16.2036 102.481 16.4613 102.469 16.474C101.347 16.8606 100.779 17.545 100.779 18.5378C100.779 19.1187 100.986 19.6215 101.41 20.0207C101.835 20.4199 102.365 20.6269 103.024 20.6269C104.017 20.6269 104.934 20.2531 105.772 19.5179V19.5201Z" fill="url(#paint8_linear_4925_56)"/>
<path d="M123.512 18.7723C123.512 20.4875 124.08 21.1339 125.589 21.1339V21.8183C123.601 21.7528 121.603 21.7528 119.59 21.8183V21.1339C121.072 21.1339 121.653 20.515 121.653 18.7723V14.2053C121.653 13.9349 121.641 13.5864 121.603 13.147C121.565 12.7076 121.525 12.3866 121.461 12.1795C121.396 11.9852 121.307 11.7402 121.178 11.4698C120.779 10.7093 120.12 10.5023 118.933 10.4242C117.243 10.4242 115.927 11.1086 114.997 12.488V18.7723C114.997 20.4875 115.578 21.1339 117.089 21.1339V21.8183C115.101 21.7528 113.102 21.7528 111.089 21.8183V21.1339C112.572 21.1339 113.153 20.515 113.153 18.7723V12.3591C113.153 11.4825 112.986 10.9523 112.572 10.7474C112.353 10.6438 112.186 10.5805 112.044 10.5657C111.903 10.553 111.67 10.5277 111.347 10.5002V9.89395C112.547 9.90663 113.759 9.66159 114.999 9.1335V11.4825C116.457 9.79256 118.147 8.94127 120.044 8.95395C121.385 8.88846 122.198 9.39332 122.741 9.93409C123.102 10.27 123.269 10.9797 123.386 11.417C123.451 11.6367 123.489 11.9451 123.514 12.3211C123.527 12.695 123.54 13.0055 123.54 13.2252C123.54 13.4575 123.54 13.7807 123.527 14.1926C123.514 14.6046 123.514 14.9151 123.514 15.1094V18.7744L123.512 18.7723Z" fill="url(#paint9_linear_4925_56)"/>
<path d="M139.176 19.5475C137.963 21.1867 136.22 22 133.962 22C131.974 22 130.323 21.4444 129.007 20.3354C127.678 19.2264 127.019 17.6908 127.019 15.741C127.019 13.6899 127.729 12.0254 129.148 10.7474C130.568 9.46939 132.245 8.83779 134.18 8.83779C135.819 8.83779 137.34 9.2497 138.774 10.0883C138.928 11.2881 138.981 12.6696 138.928 14.2307H138.322C138.322 12.6443 137.923 11.4952 137.135 10.76C136.347 10.0249 135.316 9.66372 134.051 9.66372C132.465 9.66372 131.277 10.1665 130.489 11.1741C129.689 12.1944 129.29 13.4956 129.29 15.0841C129.29 16.7613 129.729 18.1153 130.593 19.161C131.457 20.2066 132.748 20.7347 134.49 20.7347C136.233 20.7347 137.587 20.1538 138.696 18.992L139.173 19.5475H139.176Z" fill="url(#paint10_linear_4925_56)"/>
<path d="M152.697 18.8631C152.245 19.8052 151.535 20.5403 150.568 21.0959C149.6 21.6514 148.516 21.9218 147.342 21.9218C145.574 21.9218 144.142 21.3283 143.033 20.1284C141.924 18.9286 141.368 17.4182 141.368 15.5868C141.368 13.7554 141.949 12.1415 143.111 10.8509C144.273 9.57288 145.743 8.9286 147.524 8.9286C148.865 8.9286 149.976 9.30249 150.84 10.0651C151.704 10.8276 152.194 11.8458 152.285 13.1491L143.434 15.1622C143.472 16.6451 143.886 17.8978 144.699 18.9159C145.513 19.9362 146.634 20.4516 148.079 20.4516C148.892 20.4516 149.693 20.2847 150.491 19.9615C151.279 19.6383 151.873 19.1483 152.26 18.4913L152.699 18.8652L152.697 18.8631ZM144.594 11.1593C143.909 12.1267 143.523 13.185 143.432 14.3067L150.194 12.809C150.052 11.9704 149.729 11.2353 149.214 10.6291C148.698 10.0228 148.026 9.7123 147.2 9.7123C146.142 9.7123 145.278 10.1897 144.594 11.1572V11.1593Z" fill="url(#paint11_linear_4925_56)"/>
<defs>
<linearGradient id="paint0_linear_4925_56" x1="1.99789" y1="11.9979" x2="152.693" y2="11.9979" gradientUnits="userSpaceOnUse">
<stop stop-color="#B07B39"/>
<stop offset="0.28" stop-color="#EDE3C7"/>
<stop offset="0.61" stop-color="#B98B4F"/>
<stop offset="0.85" stop-color="#E9DDBF"/>
<stop offset="1" stop-color="#EDE3C7"/>
</linearGradient>
<linearGradient id="paint1_linear_4925_56" x1="1.99789" y1="11.9979" x2="152.693" y2="11.9979" gradientUnits="userSpaceOnUse">
<stop stop-color="#B07B39"/>
<stop offset="0.28" stop-color="#EDE3C7"/>
<stop offset="0.61" stop-color="#B98B4F"/>
<stop offset="0.85" stop-color="#E9DDBF"/>
<stop offset="1" stop-color="#EDE3C7"/>
</linearGradient>
<linearGradient id="paint2_linear_4925_56" x1="1.99789" y1="11.9979" x2="152.693" y2="11.9979" gradientUnits="userSpaceOnUse">
<stop stop-color="#B07B39"/>
<stop offset="0.28" stop-color="#EDE3C7"/>
<stop offset="0.61" stop-color="#B98B4F"/>
<stop offset="0.85" stop-color="#E9DDBF"/>
<stop offset="1" stop-color="#EDE3C7"/>
</linearGradient>
<linearGradient id="paint3_linear_4925_56" x1="1.99789" y1="11.9979" x2="152.693" y2="11.9979" gradientUnits="userSpaceOnUse">
<stop stop-color="#B07B39"/>
<stop offset="0.28" stop-color="#EDE3C7"/>
<stop offset="0.61" stop-color="#B98B4F"/>
<stop offset="0.85" stop-color="#E9DDBF"/>
<stop offset="1" stop-color="#EDE3C7"/>
</linearGradient>
<linearGradient id="paint4_linear_4925_56" x1="1.99789" y1="11.9979" x2="152.693" y2="11.9979" gradientUnits="userSpaceOnUse">
<stop stop-color="#B07B39"/>
<stop offset="0.28" stop-color="#EDE3C7"/>
<stop offset="0.61" stop-color="#B98B4F"/>
<stop offset="0.85" stop-color="#E9DDBF"/>
<stop offset="1" stop-color="#EDE3C7"/>
</linearGradient>
<linearGradient id="paint5_linear_4925_56" x1="1.99789" y1="11.9979" x2="152.693" y2="11.9979" gradientUnits="userSpaceOnUse">
<stop stop-color="#B07B39"/>
<stop offset="0.28" stop-color="#EDE3C7"/>
<stop offset="0.61" stop-color="#B98B4F"/>
<stop offset="0.85" stop-color="#E9DDBF"/>
<stop offset="1" stop-color="#EDE3C7"/>
</linearGradient>
<linearGradient id="paint6_linear_4925_56" x1="1.99789" y1="11.9979" x2="152.693" y2="11.9979" gradientUnits="userSpaceOnUse">
<stop stop-color="#B07B39"/>
<stop offset="0.28" stop-color="#EDE3C7"/>
<stop offset="0.61" stop-color="#B98B4F"/>
<stop offset="0.85" stop-color="#E9DDBF"/>
<stop offset="1" stop-color="#EDE3C7"/>
</linearGradient>
<linearGradient id="paint7_linear_4925_56" x1="1.99789" y1="11.9979" x2="152.693" y2="11.9979" gradientUnits="userSpaceOnUse">
<stop stop-color="#B07B39"/>
<stop offset="0.28" stop-color="#EDE3C7"/>
<stop offset="0.61" stop-color="#B98B4F"/>
<stop offset="0.85" stop-color="#E9DDBF"/>
<stop offset="1" stop-color="#EDE3C7"/>
</linearGradient>
<linearGradient id="paint8_linear_4925_56" x1="1.99789" y1="11.9979" x2="152.693" y2="11.9979" gradientUnits="userSpaceOnUse">
<stop stop-color="#B07B39"/>
<stop offset="0.28" stop-color="#EDE3C7"/>
<stop offset="0.61" stop-color="#B98B4F"/>
<stop offset="0.85" stop-color="#E9DDBF"/>
<stop offset="1" stop-color="#EDE3C7"/>
</linearGradient>
<linearGradient id="paint9_linear_4925_56" x1="1.99789" y1="11.9979" x2="152.693" y2="11.9979" gradientUnits="userSpaceOnUse">
<stop stop-color="#B07B39"/>
<stop offset="0.28" stop-color="#EDE3C7"/>
<stop offset="0.61" stop-color="#B98B4F"/>
<stop offset="0.85" stop-color="#E9DDBF"/>
<stop offset="1" stop-color="#EDE3C7"/>
</linearGradient>
<linearGradient id="paint10_linear_4925_56" x1="1.99789" y1="11.9979" x2="152.693" y2="11.9979" gradientUnits="userSpaceOnUse">
<stop stop-color="#B07B39"/>
<stop offset="0.28" stop-color="#EDE3C7"/>
<stop offset="0.61" stop-color="#B98B4F"/>
<stop offset="0.85" stop-color="#E9DDBF"/>
<stop offset="1" stop-color="#EDE3C7"/>
</linearGradient>
<linearGradient id="paint11_linear_4925_56" x1="1.99789" y1="11.9979" x2="152.693" y2="11.9979" gradientUnits="userSpaceOnUse">
<stop stop-color="#B07B39"/>
<stop offset="0.28" stop-color="#EDE3C7"/>
<stop offset="0.61" stop-color="#B98B4F"/>
<stop offset="0.85" stop-color="#E9DDBF"/>
<stop offset="1" stop-color="#EDE3C7"/>
</linearGradient>
</defs>
</svg>
