<svg xmlns="http://www.w3.org/2000/svg" width="24" height="24" viewBox="0 0 24 24" fill="none"><rect width="24" height="24" fill="none"/>
<path d="M14.4918 11.8813V9.96598H16.3777C16.8999 9.96598 17.3352 9.77936 17.7027 9.40613C17.801 9.30626 17.8862 9.20075 17.9582 9.08981C18.1554 8.78616 18.2539 8.44178 18.2539 8.0605C18.2539 7.72898 18.1821 7.43199 18.0386 7.16235C17.9524 7.0006 17.8405 6.84869 17.7027 6.70506C17.3352 6.33182 16.8903 6.14522 16.3777 6.14522H14.4918V4.23974H16.3777C16.8903 4.23974 17.3739 4.33796 17.8381 4.54422C18.3023 4.75048 18.6988 5.01569 19.0373 5.35945C19.3758 5.70321 19.637 6.10592 19.8401 6.57738C20.0432 7.04885 20.1399 7.53993 20.1399 8.0605C20.1399 8.58109 20.0432 9.07217 19.8401 9.54363C19.637 10.0151 19.3758 10.4178 19.0373 10.7616C18.6988 11.1053 18.3023 11.3705 17.8381 11.5768C17.3739 11.7831 16.8903 11.8813 16.3777 11.8813H14.4918Z" fill="white"/>
<path d="M14.6308 13.7383C15.2074 13.3907 15.8225 13.212 16.4856 13.212C17.1487 13.212 17.7638 13.3907 18.3404 13.7383C18.917 14.0859 19.3687 14.5626 19.7147 15.1584C20.0511 15.7543 20.224 16.3898 20.224 17.075C20.224 17.7603 20.0511 18.3958 19.7147 18.9917C19.3783 19.5875 18.917 20.0543 18.3404 20.4118C17.7638 20.7693 17.1487 20.9381 16.4856 20.9381C15.8225 20.9381 15.2074 20.7593 14.6308 20.4118C14.0542 20.0642 13.6025 19.5875 13.2565 18.9917C12.9202 18.3958 12.7472 17.7603 12.7472 17.075C12.7472 16.3898 12.9202 15.7543 13.2565 15.1584C13.6025 14.5626 14.0542 14.0859 14.6308 13.7383ZM17.8022 15.7145C17.437 15.3372 16.995 15.1386 16.4856 15.1386C15.9763 15.1386 15.5342 15.3272 15.169 15.7145C14.8038 16.0919 14.6116 16.5487 14.6116 17.075C14.6116 17.6014 14.7942 18.0483 15.169 18.4356C15.5342 18.8129 15.9763 19.0016 16.4856 19.0016C16.995 19.0016 17.4274 18.8129 17.8022 18.4356C18.1674 18.0582 18.35 17.6014 18.35 17.075C18.3596 16.5487 18.1674 16.0919 17.8022 15.7145Z" fill="white"/>
<path fill-rule="evenodd" clip-rule="evenodd" d="M5.7932 15.1692V18.9899H7.61362C8.13585 18.9899 8.57108 18.8033 8.93859 18.4301C9.30611 18.0569 9.48986 17.6051 9.48986 17.0845C9.48986 16.5541 9.30611 16.1121 8.93859 15.729C8.57108 15.3558 8.12618 15.1692 7.61362 15.1692H5.7932ZM7.4879 20.9998C9.38112 20.9998 10.9578 19.6447 11.3005 17.8518C11.3511 17.6027 11.3758 17.3474 11.3758 17.0845C11.3758 16.5639 11.2791 16.0728 11.076 15.6014C10.8729 15.1299 10.6117 14.7272 10.2732 14.3834C9.93474 14.0397 9.53821 13.7745 9.07397 13.5682C8.86749 13.4764 8.65716 13.4061 8.44215 13.3562C8.13687 13.2791 7.81719 13.2381 7.4879 13.2381H3.77491V20.9998H7.4879Z" fill="white"/>
<path d="M6.59875 8.57598V7.34822L9.0075 4.15605H11.4163L8.52181 7.97683L11.4163 11.7976H9.02734L6.59875 8.57598Z" fill="white"/>
<path d="M5.76835 11.7976V4.15605H3.7749V11.7976H5.76835Z" fill="#A1FFBB"/>
<path d="M4.85469 2.82708C5.35929 2.82708 5.76835 2.41802 5.76835 1.91342C5.76835 1.40882 5.35929 0.999756 4.85469 0.999756H4.68856C4.18396 0.999756 3.7749 1.40882 3.7749 1.91342C3.7749 2.41802 4.18396 2.82708 4.68856 2.82708H4.85469Z" fill="#A1FFBB"/>
<path d="M14.5652 7.16235V9.08981H17.9582C18.1554 8.78616 18.2539 8.44178 18.2539 8.0605C18.2539 7.72898 18.1821 7.43199 18.0386 7.16235H14.5652Z" fill="#A1FFBB"/>
</svg>
