<svg xmlns="http://www.w3.org/2000/svg" width="24" height="24" viewBox="0 0 24 24" fill="none"><rect width="24" height="24" fill="none"/>
<path fill-rule="evenodd" clip-rule="evenodd" d="M4.38135 15.0854L4.57231 14.1561H9.35077L9.1557 15.0854H4.38135ZM4.06567 16.6216L4.05156 16.6902C3.77824 18.0203 4.6188 19.379 5.92876 19.7263L14.1992 21.9189C15.5061 22.2654 16.7926 21.4699 17.0658 20.1404L18.7395 11.996L16.9865 15.3968C16.6441 16.0613 16.2763 16.6216 15.0208 16.6216C13.7652 16.6216 13.6257 16.0613 13.5623 15.3968L13.0931 10.9927C13.0804 10.8233 13.0677 10.6669 13.0043 10.6669C12.8902 10.6669 12.8394 10.8754 12.8268 10.9666L11.7522 16.6209H10.0336V16.6216H4.06567ZM4.6987 13.5411L4.82486 12.9271H9.60875L9.47987 13.5411H4.6987ZM4.95124 12.3121L5.0774 11.6982H9.86673L9.73785 12.3121H4.95124ZM5.20379 11.0831L5.32995 10.4692H10.1247L9.99583 11.0831H5.20379ZM5.45633 9.85419L5.58249 9.24025H10.3827L10.2538 9.85419H5.45633ZM5.70888 8.62523L5.83504 8.01129H10.8769C10.7335 8.17096 10.6123 8.37203 10.5273 8.62523H5.70888ZM5.96142 7.39627L6.68819 3.85958C6.9614 2.53007 8.24789 1.73464 9.55476 2.0811L17.8253 4.27368C19.1352 4.62096 19.9758 5.97971 19.7025 7.30976L19.662 7.5066C19.1208 7.65212 18.5647 7.99458 18.1533 8.80362L15.9085 13.2338C15.8451 13.3641 15.6929 13.6508 15.5534 13.6508C15.4139 13.6508 15.3886 13.3902 15.3759 13.2338L14.9066 8.80362C14.7559 7.3841 13.61 7.40161 12.8488 7.39767V7.39627H5.96142Z" fill="white"/>
</svg>
