<svg xmlns="http://www.w3.org/2000/svg" width="24" height="24" viewBox="0 0 24 24" fill="none"><rect width="24" height="24" fill="none"/>
<path fill-rule="evenodd" clip-rule="evenodd" d="M9.27319 3.63463C9.14239 3.98377 8.89656 4.65876 8.72692 5.13478L8.4186 6.00011H11.7212C14.6057 6.00011 14.9708 6.00011 15.2903 6.12104C15.3366 6.13857 15.3819 6.15864 15.4338 6.18162C17.2209 6.97205 17.2318 9.34691 15.4522 10.189L15.0377 10.3851H10.9184C8.6526 10.3851 6.79892 10.3956 6.79892 10.4084C6.79892 10.4212 6.55666 11.1005 6.26053 11.9183C5.96441 12.7359 5.72214 13.4179 5.72214 13.4336C5.72214 13.4494 7.78319 13.4622 10.3023 13.4622C15.011 13.4622 16.0647 13.5237 15.9007 13.7894C15.8673 13.8432 15.896 13.855 15.9808 13.8224C16.0535 13.7946 16.0951 13.8004 16.0733 13.8355C16.0518 13.8706 16.1514 14.0133 16.295 14.1526C17.3361 15.1619 17.0432 16.9332 15.7204 17.6272L15.3743 17.8087L9.7215 17.8472L4.06869 17.8857L3.51754 19.3843C3.21428 20.2085 2.98196 20.9083 3.0011 20.9393C3.02024 20.9702 5.55269 20.9975 8.62896 20.9997C14.874 21.0044 15.8042 20.9563 16.727 20.5815C20.0736 19.2212 21.065 15.0821 18.7101 12.3012L18.3459 11.8712L18.6872 11.455C20.7635 8.92363 19.9828 5.02009 17.1047 3.54247C16.079 3.01596 15.9455 3 12.5692 3H9.51114L9.27319 3.63463Z" fill="white"/>
</svg>
