<svg xmlns="http://www.w3.org/2000/svg" width="198" height="24" viewBox="0 0 198 24" fill="none"><rect width="198" height="24" fill="none"/>
<path d="M13.3323 6.15955C15.4114 6.15955 17.3199 6.5567 19.0045 7.34016L19.218 7.4393L20.2188 3.58077L20.0884 3.50963C18.2771 2.52196 15.9408 2 13.3323 2C9.80644 2 6.87126 3.10994 4.84416 5.21025C3.01014 7.11048 2 9.76854 2 12.6945C2 18.1657 5.85223 21.5645 12.0534 21.5645C13.9092 21.5645 16.6482 21.2086 18.2596 20.2054L18.335 20.1584L19.7913 10.1326H11.1285L10.1795 13.8749H14.734L14.2252 17.3822C13.4177 17.5338 12.6694 17.6134 12.0534 17.6134C9.027 17.6134 7.29131 15.8205 7.29131 12.6945C7.29131 6.79633 11.516 6.15955 13.3323 6.15955Z" fill="white"/>
<path d="M28.093 10.7264C29.5182 10.7264 29.8174 11.693 29.8174 12.5037C29.8174 12.691 29.8023 12.868 29.784 13.0393H25.4612C25.8747 11.4837 26.7375 10.7264 28.093 10.7264ZM28.093 7.11599C25.7651 7.11599 23.8162 7.96959 22.4569 9.58441C21.2236 11.0493 20.5445 13.0874 20.5445 15.3231C20.5445 17.1998 21.28 21.5644 28.093 21.5644C29.4686 21.5644 30.9836 21.2484 32.1458 20.7189L32.2262 20.6824L33.4494 16.4673L33.0287 16.7138C31.7053 17.4894 30.2047 17.8507 28.3062 17.8507C26.4779 17.8507 25.5095 17.2459 25.2787 15.9515H33.8903L33.9294 15.8124C34.1391 15.066 34.3893 13.9262 34.3893 12.7364C34.3893 9.32217 31.9178 7.11599 28.093 7.11599Z" fill="white"/>
<path d="M41.963 3.88478L36.98 4.56731L35.4408 15.2777C35.3472 15.9205 35.3056 16.3967 35.3056 16.8219C35.3056 19.969 37.0653 21.5644 40.5359 21.5644C41.3352 21.5644 42.1256 21.4472 42.8851 21.2156L42.9917 21.1833L43.8652 17.4582L43.5432 17.5555C42.948 17.7351 42.401 17.8085 41.6551 17.8085C40.363 17.8085 40.1972 17.1973 40.1972 16.665C40.1972 16.2313 40.2607 15.7713 40.3118 15.4016L40.971 10.839H44.3589L45.3507 7.47555H41.452L41.963 3.88478Z" fill="white"/>
<path d="M60.8221 2.42621H46.3793L45.3503 6.57169H50.3583L48.253 21.5735H53.2551L55.36 6.57169H59.7931L60.8221 2.42621Z" fill="white"/>
<path d="M67.5503 11.323L68.5493 7.8275L68.4508 7.74658C67.9426 7.32809 67.2738 7.11608 66.4621 7.11608C65.8745 7.11608 64.5039 7.30231 63.4918 8.88258L63.4533 7.54231H59.2853L57.3123 21.5735H61.9948L63.173 13.0847L63.2052 13.0048C63.7687 11.5962 64.6392 10.9952 66.1159 10.9952C66.4562 10.9952 66.942 11.0948 67.3533 11.2492L67.5503 11.323Z" fill="white"/>
<path d="M75.6808 15.2136L75.3392 17.6273C74.596 18.2339 73.8816 18.4939 72.9629 18.4939C72.4087 18.4939 71.4786 18.346 71.4786 17.3559C71.4786 16.7628 71.6819 16.1125 73.1908 15.7871L75.1562 15.362C75.343 15.328 75.5193 15.2739 75.6808 15.2136ZM74.2422 7.11616C72.6847 7.11616 71.1214 7.38956 69.4633 7.95251L69.3669 7.98511L68.2216 11.9936L68.5797 11.8628C70.3473 11.2174 72.1597 10.8619 73.6824 10.8619C75.7535 10.8619 75.9928 11.3593 75.9928 11.7335C75.9928 12.1315 75.7535 12.3042 74.2553 12.6096L71.8565 13.1157C68.4516 13.8436 66.9335 15.3484 66.9335 17.9954C66.9335 20.4281 68.704 22 71.4444 22C72.8661 22 74.0891 21.5767 75.1706 20.7079C75.1904 20.943 75.2141 21.1797 75.2492 21.409L75.2746 21.5736H79.8066L79.7918 21.3656C79.7655 20.9995 79.7655 20.7903 79.7655 20.4734C79.7655 19.7849 79.8395 18.8219 79.9499 18.0757L80.6965 12.7717C80.7527 12.349 80.7781 11.8254 80.7781 11.4938C80.7781 9.4966 79.6442 7.11616 74.2422 7.11616Z" fill="white"/>
<path d="M91.0549 7.11608C89.6104 7.11608 88.414 7.61101 87.4116 8.62626L87.3478 7.54231H83.1054L81.1323 21.5735H86.0013L87.3744 11.7723C87.9172 11.2468 88.4634 11.0216 89.1897 11.0216C90.1025 11.0216 90.6474 11.487 90.6474 12.2664C90.6474 12.5918 90.6195 12.9306 90.5958 13.119L89.4193 21.5735H94.1817L95.3506 13.1731C95.4939 12.1694 95.5125 11.7625 95.5125 11.5202C95.5125 8.84483 93.7627 7.11608 91.0549 7.11608Z" fill="white"/>
<path d="M104.826 13.2065L102.803 12.3546C101.966 11.9921 101.774 11.8211 101.774 11.4403C101.774 10.8741 102.625 10.7552 103.338 10.7552C104.879 10.7552 106.671 11.4624 107.601 11.8837L107.805 11.9757L108.819 8.54594L108.679 8.47124C107.024 7.58463 105.177 7.11595 103.338 7.11595C99.2958 7.11595 96.8823 8.82221 96.8823 11.6802C96.8823 13.6977 97.7967 14.9075 100.039 15.8559L101.931 16.6555C103.069 17.1321 103.171 17.3045 103.171 17.6755C103.171 17.8628 103.171 18.3606 101.713 18.3606C100.22 18.3606 98.5585 17.9237 97.0328 17.1302L96.8214 17.0202L95.8347 20.489L95.9704 20.5636C97.7308 21.5301 99.6091 21.9998 101.713 21.9998C107.604 21.9998 108.062 18.5063 108.062 17.4356C108.062 15.0347 106.875 14.0669 104.826 13.2065Z" fill="white"/>
<path d="M115.468 7.54231L115.547 6.90986C115.655 6.10928 116.038 5.82559 117.007 5.82559C117.487 5.82559 118.029 5.90978 118.494 6.05651L118.683 6.1162L119.669 2.74112L119.499 2.67828C118.478 2.29885 117.433 2.10646 116.394 2.10646C112.951 2.10646 111.137 3.61589 110.686 6.85688L108.63 21.5735H113.498L114.99 10.9684H117.557L118.429 7.54231H115.468Z" fill="white"/>
<path d="M125.124 10.7245C126.543 10.7245 126.841 11.6912 126.841 12.5021C126.841 12.6894 126.826 12.8665 126.807 13.0378H122.504C122.915 11.4819 123.775 10.7245 125.124 10.7245ZM125.124 7.11342C122.806 7.11342 120.866 7.96714 119.513 9.58225C118.285 11.0474 117.609 13.0859 117.609 15.322C117.609 17.199 118.341 21.5644 125.124 21.5644C126.494 21.5644 128.002 21.2483 129.159 20.7187L129.239 20.6822L130.457 16.4664L130.038 16.7129C128.72 17.4886 127.226 17.8501 125.336 17.8501C123.516 17.8501 122.552 17.2452 122.322 15.9505H130.896L130.935 15.8114C131.144 15.0648 131.393 13.9248 131.393 12.7349C131.393 9.31997 128.932 7.11342 125.124 7.11342Z" fill="white"/>
<path d="M141.771 11.2492L141.968 11.323L142.967 7.8275L142.869 7.74658C142.361 7.32809 141.692 7.11608 140.88 7.11608C140.293 7.11608 138.922 7.30231 137.91 8.88258L137.872 7.54231H133.704L131.73 21.5735H136.413L137.592 13.0847L137.624 13.0048C138.187 11.5962 139.057 10.9952 140.534 10.9952C140.874 10.9952 141.36 11.0948 141.771 11.2492Z" fill="white"/>
<path d="M139.592 21.5735H144.887L145.553 16.7085H140.258L139.592 21.5735Z" fill="white"/>
<path d="M158.955 7.88681C157.914 7.36817 156.586 7.11599 154.896 7.11599C152.49 7.11599 150.461 7.92326 149.03 9.45061C147.704 10.8648 146.974 12.8401 146.974 15.0128C146.974 19.0541 149.631 21.5644 153.91 21.5644C154.968 21.5644 155.95 21.4038 156.828 21.0871L156.927 21.0518L157.891 17.0136L157.534 17.1686C156.675 17.5417 155.7 17.7471 154.789 17.7471C153.878 17.7471 151.759 17.4806 151.759 15.0128C151.759 12.005 153.71 10.9333 155.535 10.9333C156.481 10.9333 157.313 11.0927 158.011 11.4072L158.227 11.5046L159.09 7.95416L158.955 7.88681Z" fill="white"/>
<path d="M168.637 13.2279C168.637 14.993 168.016 17.98 165.687 17.98C164.292 17.98 163.643 17.177 163.643 15.4525C163.643 13.6875 164.264 10.7004 166.593 10.7004C167.987 10.7004 168.637 11.5035 168.637 13.2279ZM166.566 7.11599C160.778 7.11599 158.725 11.5791 158.725 15.4007C158.725 19.2026 161.402 21.5644 165.713 21.5644C168.29 21.5644 170.377 20.6697 171.748 18.977C172.913 17.5386 173.555 15.5152 173.555 13.2797C173.555 9.47783 170.877 7.11599 166.566 7.11599Z" fill="white"/>
<path d="M192.012 7.11608C190.185 7.11608 188.716 7.75686 187.641 9.02171C186.861 7.79013 185.52 7.11608 183.832 7.11608C182.387 7.11608 181.191 7.61101 180.189 8.62626L180.125 7.54231H175.882L173.909 21.5735H178.778L180.151 11.7723C180.694 11.2468 181.24 11.0216 181.967 11.0216C182.879 11.0216 183.424 11.487 183.424 12.2664C183.424 12.5918 183.396 12.9306 183.373 13.119L182.197 21.5735H186.959L188.128 13.1742C188.213 12.5989 188.248 12.2018 188.271 11.9392C188.275 11.8966 188.278 11.857 188.282 11.8199C188.829 11.2684 189.407 11.0216 190.147 11.0216C191.06 11.0216 191.605 11.487 191.605 12.2664C191.605 12.5913 191.577 12.9302 191.554 13.119L190.377 21.5735H195.139L196.308 13.1732C196.452 12.1694 196.47 11.7625 196.47 11.5202C196.47 8.84483 194.72 7.11608 192.012 7.11608Z" fill="white"/>
</svg>
