<svg xmlns="http://www.w3.org/2000/svg" width="24" height="24" viewBox="0 0 24 24" fill="none"><rect width="24" height="24" fill="none"/>
<path d="M12.2592 21.9429C10.288 21.9429 9.37188 21.6551 7.77953 20.504C6.7723 21.799 3.58279 22.8111 3.44368 21.0796C3.44368 19.7798 3.1559 18.6815 2.82975 17.4824C2.44126 16.0051 2 14.36 2 11.9763C2 6.28308 6.67159 2 12.2065 2C17.7462 2 22.0868 6.49411 22.0868 12.029C22.1054 17.4783 17.7085 21.9139 12.2592 21.9429ZM12.3408 6.92097C9.64528 6.78189 7.5445 8.64765 7.07927 11.5734C6.69556 13.9955 7.37664 16.9452 7.95698 17.0987C8.23517 17.1658 8.93543 16.5999 9.37188 16.1634C10.0936 16.662 10.934 16.9614 11.8084 17.0315C14.6014 17.1659 16.9879 15.0396 17.1754 12.2497C17.2846 9.45383 15.1342 7.08578 12.3408 6.92578V6.92097Z" fill="#000000"/>
</svg>
