<svg xmlns="http://www.w3.org/2000/svg" width="24" height="24" viewBox="0 0 24 24" fill="none"><rect width="24" height="24" fill="none"/>
<path d="M21.7364 9.44929C21.3912 9.01351 20.8428 8.92338 20.6842 8.90613C20.4205 8.87786 20.001 8.85771 19.4703 8.83279C19.2359 8.82176 18.9842 8.81026 18.7129 8.79636C17.3625 7.07154 14.9579 5.9191 12.2206 5.9191C9.48333 5.9191 7.11086 7.05571 5.75611 8.76135C5.31555 8.77718 4.6631 8.80212 4.19811 8.82895C3.77624 8.85292 3.40281 8.97756 3.11757 9.18993C2.74796 9.46655 2.52504 9.88168 2.45793 10.4229C2.41719 10.7537 2.35392 11.1621 2.28824 11.596C2.17031 12.3678 2.04901 13.1664 2.00779 13.7465C1.97184 14.2642 2.06005 14.6415 2.27818 14.8994C2.47808 15.1357 2.77577 15.2709 3.21871 15.3265C3.82755 15.4028 4.79735 15.4699 6.02072 15.5509C7.40998 17.082 9.66979 18.0811 12.2201 18.0811C14.7705 18.0811 17.0586 17.0691 18.4459 15.5216C18.9919 15.4838 19.4656 15.4512 19.8002 15.4258C20.3011 15.3898 20.6928 15.2263 20.9656 14.9392C21.1674 14.7259 21.3035 14.4493 21.3797 14.0936C21.7072 12.5701 21.9262 10.9359 21.9852 10.4713C22.037 10.0682 21.9531 9.72447 21.7364 9.44929Z" fill="white"/>
<path d="M7.90603 8.4301C7.80151 8.28822 7.64906 8.21294 7.46498 8.22206C7.29481 8.23212 7.1251 8.24075 6.95444 8.25035C6.91992 8.25322 6.88973 8.27862 6.88349 8.31505C6.5067 10.4152 6.23058 12.3088 6.03977 14.1027C6.01867 14.3045 6.06998 14.4963 6.18408 14.6453C6.29626 14.7925 6.45588 14.8797 6.63038 14.8898C6.80009 14.9013 6.9717 14.9109 7.14235 14.92H7.14668C7.18406 14.92 7.21858 14.8893 7.22242 14.8486C7.40314 13.0547 7.66296 11.1358 8.0158 8.97997C8.04934 8.76904 8.01147 8.5749 7.90603 8.4301ZM7.86432 8.95311C7.51532 11.083 7.25789 12.9814 7.07811 14.7561C6.93142 14.7474 6.7857 14.7393 6.63996 14.7316C6.5086 14.723 6.3902 14.6573 6.3044 14.5456C6.21522 14.4306 6.17688 14.2796 6.19271 14.1204C6.38109 12.3481 6.6534 10.4776 7.02396 8.40567C7.17303 8.39704 7.49519 8.38122 7.49519 8.38122C7.61454 8.38122 7.71522 8.43156 7.78376 8.52791C7.86335 8.63433 7.89166 8.78534 7.86432 8.95311ZM21.2674 9.88266C21.174 9.7556 20.975 9.62906 20.7943 9.60412C20.4827 9.55954 19.6217 9.50585 19.045 9.49674C18.6975 9.49674 18.4021 9.77911 18.3561 10.1549C18.3461 10.2522 18.1232 11.6573 18.0704 12.1545C18.0239 12.5907 18.3355 12.8112 18.6658 12.8131C18.6658 12.8131 19.4487 12.8112 19.7545 12.804C19.7195 13.0082 19.6653 13.3064 19.6356 13.4641C19.4496 13.4737 19.2626 13.4843 19.0781 13.4934C19.0781 13.4934 19.0872 13.4306 19.0872 13.398C19.0872 13.1708 18.9232 12.9924 18.7142 12.9924L17.9645 13.0169C17.9271 13.0193 17.8959 13.0471 17.8897 13.0864C17.8336 13.4272 17.7751 13.7705 17.7157 14.1137C17.6783 14.317 17.7176 14.5053 17.8216 14.6434C17.9194 14.7748 18.0671 14.8471 18.2372 14.8471C18.2492 14.8471 19.2257 14.7959 20.0503 14.7029C20.3743 14.6664 20.7042 14.3481 20.8024 13.9771C20.9271 13.5049 21.0172 13.0643 21.1183 12.2072C21.1457 11.9852 21.1097 11.8433 20.9932 11.7005C20.8825 11.5663 20.7248 11.4929 20.546 11.4929H19.429C19.4434 11.408 19.5292 10.9028 19.5445 10.804C19.6883 10.805 20.0915 10.817 20.0915 10.817C20.0915 10.817 20.081 10.8558 20.0834 10.9138C20.0929 11.1353 20.2698 11.3174 20.4788 11.3203C20.7157 11.3213 20.951 11.3237 21.1912 11.328C21.2348 11.327 21.265 11.2973 21.2708 11.258C21.3168 10.9699 21.3609 10.6674 21.4026 10.3616C21.4285 10.1516 21.3575 10.0006 21.2674 9.88266ZM21.2449 10.3409C21.2061 10.6204 21.1658 10.8961 21.1255 11.1631C20.9088 11.1588 20.695 11.1573 20.4793 11.1554C20.3552 11.1535 20.2487 11.0432 20.2411 10.9076C20.2396 10.8601 20.2713 10.759 20.2713 10.759C20.278 10.7345 20.2746 10.7086 20.2593 10.688C20.2449 10.6664 20.2204 10.6549 20.197 10.6535C20.197 10.6535 19.6447 10.6401 19.4774 10.6367C19.4343 10.6362 19.4026 10.6664 19.3973 10.7081C19.3858 10.7896 19.2722 11.468 19.2569 11.5629C19.2535 11.5849 19.2612 11.6108 19.2756 11.6281C19.2904 11.6482 19.313 11.6578 19.336 11.6578H20.546C20.6768 11.6578 20.7919 11.7105 20.871 11.8079C20.9486 11.8999 20.9851 11.9891 20.9611 12.187C20.8609 13.0346 20.7713 13.4684 20.649 13.933C20.5704 14.2345 20.2885 14.5092 20.0335 14.5384C19.2138 14.6319 18.2636 14.6808 18.2636 14.6808C18.1323 14.687 18.0196 14.6405 17.9477 14.5418C17.8719 14.4406 17.8441 14.2983 17.8719 14.142C17.93 13.8203 17.9837 13.4996 18.0359 13.1799C18.2598 13.1732 18.4836 13.1655 18.7152 13.1578C18.835 13.1578 18.9276 13.2637 18.928 13.3975C18.9295 13.4497 18.906 13.5677 18.906 13.5677C18.9031 13.5931 18.9098 13.6175 18.9266 13.6367C18.9414 13.6545 18.9649 13.6645 18.9889 13.6631C19.23 13.6506 19.4669 13.6377 19.7066 13.6252C19.7425 13.6233 19.7732 13.596 19.7804 13.5591C19.8077 13.4147 19.8916 12.9507 19.929 12.7331C19.9323 12.7081 19.9261 12.6827 19.9098 12.6636C19.894 12.6458 19.8714 12.6358 19.847 12.6362C19.6337 12.643 18.6663 12.6458 18.6663 12.6458C18.3959 12.6458 18.2003 12.4531 18.2291 12.165C18.2804 11.6736 18.5033 10.2738 18.5153 10.1736C18.5498 9.88168 18.779 9.66069 19.0455 9.66069C19.8264 9.67651 20.4563 9.72542 20.7751 9.76713C20.906 9.7839 21.0656 9.87882 21.138 9.97709C21.2209 10.0878 21.2621 10.1986 21.2449 10.3409ZM18.0719 9.48091C18.0584 9.46463 18.0364 9.45456 18.0167 9.45216L17.4328 9.42819C17.0953 9.42819 16.8029 9.71871 16.7559 10.1017C16.6203 11.2129 16.4563 12.3563 16.2569 13.5974C16.0757 13.6022 15.8935 13.6075 15.7128 13.6137C15.9041 12.3879 16.0642 11.257 16.2003 10.1607C16.2267 9.95215 16.1797 9.7556 16.0675 9.60653C15.9563 9.45838 15.7986 9.37401 15.6203 9.36827C15.4482 9.36492 15.2766 9.35916 15.1049 9.3558C15.0647 9.3558 15.0316 9.38553 15.0263 9.42578C14.8537 10.8548 14.6414 12.3836 14.3619 14.2345C14.3303 14.4406 14.3715 14.6338 14.476 14.781C14.5805 14.9243 14.7339 15.0049 14.9065 15.0049H14.9266C15.5129 14.9848 16.1045 14.9584 16.6883 14.9277C17.0244 14.909 17.3403 14.595 17.4069 14.2139C17.6994 12.5475 17.9233 11.0188 18.091 9.54131C18.0925 9.51927 18.0863 9.49674 18.0719 9.48091ZM17.2559 14.1861C17.2013 14.4929 16.9424 14.7546 16.6788 14.7695C16.0978 14.7997 15.5057 14.8256 14.9209 14.8443L14.906 14.8462C14.7804 14.8462 14.6749 14.7906 14.5992 14.687C14.5196 14.5749 14.4889 14.4229 14.5143 14.2604C14.789 12.4382 14.9995 10.9277 15.1706 9.51735C15.3197 9.52119 15.4678 9.52406 15.6169 9.52887C15.7478 9.53222 15.8662 9.59501 15.9472 9.70624C16.0335 9.82033 16.0709 9.97468 16.0513 10.141C15.9093 11.2638 15.7449 12.4229 15.546 13.6832C15.5426 13.7057 15.5493 13.7311 15.5642 13.747C15.579 13.7666 15.6016 13.7753 15.6232 13.7753C15.8581 13.7681 16.092 13.7623 16.3245 13.7546C16.3614 13.7527 16.3935 13.7249 16.3983 13.6875C16.6025 12.4205 16.7689 11.2546 16.9089 10.1219C16.9463 9.81793 17.1725 9.58879 17.4333 9.58879L17.928 9.60891C17.7612 11.0562 17.5407 12.5552 17.2559 14.1861ZM5.29338 11.3208L6.02635 11.3146C6.06471 11.3141 6.09779 11.2853 6.10401 11.2451C6.1553 10.9076 6.21043 10.5658 6.26653 10.2225C6.30007 10.0126 6.25982 9.81698 6.15002 9.67459C6.04888 9.5375 5.89259 9.46606 5.70324 9.46606C5.25551 9.46606 4.4928 9.49817 3.89692 9.55811C3.56374 9.59214 3.14046 9.90662 3.07287 10.2757C2.82885 11.6166 2.59876 13.4593 2.59876 13.9071C2.59876 14.015 2.61361 14.2872 2.75744 14.4608C2.87583 14.6065 3.06808 14.6549 3.23776 14.6851C3.73538 14.7709 4.63133 14.8433 5.01484 14.8433H5.04408C5.42473 14.8381 5.63564 14.6377 5.70757 14.2096C5.80248 13.6449 5.98415 12.1108 5.99903 11.9881C6.02013 11.84 5.99424 11.7235 5.92711 11.6425C5.85807 11.5586 5.74687 11.5164 5.59634 11.5164L4.4367 11.5178C4.39883 11.5178 4.36575 11.5471 4.35904 11.5873C4.35904 11.5873 4.2833 12.073 4.25214 12.2987C4.23585 12.4224 4.27037 12.549 4.34995 12.6449C4.41993 12.7302 4.51628 12.781 4.61504 12.7839L4.67258 12.7853C4.65962 12.8635 4.57525 13.3261 4.5436 13.5126C4.41274 13.5058 3.96787 13.4795 3.88926 13.4737C3.93528 13.014 4.19653 11.1966 4.26461 10.8141C4.38447 10.8127 4.82406 10.8074 4.91035 10.805C4.90267 10.8582 4.90028 10.9057 4.90028 10.9057C4.90459 11.1343 5.07955 11.3208 5.29338 11.3208ZM4.19798 10.653C4.16203 10.653 4.13182 10.678 4.12271 10.7149C4.07764 10.9028 3.73681 13.2609 3.72385 13.5485C3.72196 13.5941 3.75502 13.6334 3.79816 13.6334C3.89884 13.6406 4.45445 13.6736 4.60355 13.6808C4.6438 13.6818 4.67831 13.654 4.68551 13.6142C4.72481 13.3855 4.82549 12.8289 4.84132 12.7187C4.84467 12.6942 4.83842 12.6717 4.82357 12.6544C4.80918 12.6362 4.78906 12.6247 4.76558 12.6247L4.61888 12.6209C4.5647 12.619 4.51006 12.5897 4.4693 12.5384C4.41993 12.478 4.39691 12.3984 4.407 12.3222C4.43862 12.1012 4.46978 11.8999 4.50335 11.6823L5.59682 11.6803C5.69796 11.6803 5.76892 11.7043 5.80584 11.7489C5.84274 11.793 5.85426 11.8659 5.84035 11.9651C5.82548 12.0916 5.64476 13.6214 5.55081 14.1813C5.49184 14.5317 5.34372 14.6765 5.04122 14.6789H5.0139C4.63566 14.6789 3.75358 14.6079 3.26414 14.5236C3.11266 14.4967 2.96212 14.4584 2.87583 14.3534C2.78714 14.247 2.75646 14.0533 2.75646 13.9076C2.75646 13.5073 2.96691 11.7355 3.22721 10.3064C3.28188 10.0106 3.63997 9.75033 3.91179 9.72158C4.50095 9.66212 5.25837 9.6305 5.70278 9.6305C5.80008 9.6305 5.93527 9.6559 6.02586 9.77622C6.10642 9.88312 6.13566 10.0322 6.10977 10.1967C6.05751 10.5159 6.00622 10.8352 5.95732 11.1516L5.28905 11.1568C5.16443 11.1568 5.05991 11.0437 5.05655 10.9037C5.05704 10.8822 5.09634 10.6449 5.09634 10.6449C5.09634 10.6449 4.33461 10.6487 4.19798 10.653ZM9.96162 10.5432C9.7133 10.5466 9.46641 10.5475 9.21809 10.5495C9.18117 10.5495 9.14906 10.5773 9.1433 10.6142C9.10543 10.8246 8.75884 13.4042 8.73057 13.7149C8.72865 13.7359 8.73584 13.7585 8.74877 13.7743C8.76363 13.7911 8.78424 13.8016 8.80487 13.8016C9.05173 13.8074 9.29862 13.8126 9.54551 13.817C9.5853 13.817 9.61933 13.7858 9.6227 13.7446C9.64283 13.538 9.98607 10.9541 10.0374 10.6372C10.0412 10.6132 10.0345 10.5907 10.0187 10.5725C10.0043 10.5538 9.98271 10.5423 9.96162 10.5432ZM9.47791 13.6559C9.28234 13.6525 9.08674 13.6496 8.89211 13.6449C8.95011 13.1449 9.22193 11.1276 9.28377 10.7091C9.48032 10.7072 9.67637 10.7048 9.87197 10.7038C9.79623 11.2249 9.53066 13.2163 9.47791 13.6559ZM11.0752 9.55714C10.9674 9.40998 10.8116 9.32848 10.6294 9.32848C10.0417 9.33422 9.44388 9.34285 8.85711 9.35629C8.51292 9.36492 8.19701 9.6813 8.13517 10.0758C7.91128 11.5538 7.73153 12.8961 7.58676 14.1808C7.56615 14.3817 7.61551 14.5729 7.72672 14.723C7.84081 14.8759 8.00141 14.9632 8.18024 14.9713C8.77658 14.9972 9.36814 15.0169 9.93957 15.0288L9.95299 15.0308C10.2842 15.0308 10.5843 14.724 10.6337 14.3323C10.814 12.8908 11.011 11.4569 11.196 10.1219C11.2267 9.90901 11.1836 9.70816 11.0752 9.55714ZM11.045 10.1012C10.86 11.4349 10.663 12.8697 10.4822 14.3117C10.4424 14.6266 10.2114 14.8716 9.95347 14.8716H9.94341C9.37293 14.8587 8.78137 14.8385 8.18694 14.8122C8.05462 14.8059 7.93381 14.7398 7.84898 14.6266C7.76123 14.5087 7.7229 14.3582 7.74062 14.2014C7.8835 12.9181 8.06325 11.5773 8.2876 10.1017C8.33699 9.78006 8.58866 9.52311 8.86 9.51735C9.44772 9.50393 10.0436 9.49387 10.6347 9.48764C10.7612 9.48764 10.8739 9.54708 10.9525 9.65349C11.0359 9.77191 11.0695 9.92867 11.045 10.1012ZM14.4678 9.57345C14.3571 9.42389 14.1989 9.33903 14.021 9.33711C13.6428 9.33135 13.267 9.32705 12.8892 9.32321C12.9036 9.21152 12.9434 8.90661 12.9434 8.90661C12.9707 8.69473 12.9247 8.49242 12.8159 8.34143C12.7075 8.1909 12.5493 8.10653 12.3725 8.10653C12.2526 8.10604 11.8619 8.10604 11.8619 8.10604C11.825 8.10604 11.7919 8.13433 11.7876 8.17315C11.698 8.83566 11.1443 12.8898 10.9683 14.2604C10.942 14.4656 10.987 14.6631 11.0944 14.8126C11.2056 14.9665 11.3667 15.0519 11.5469 15.0538C11.6912 15.0542 12.871 15.0509 13.3044 15.0447C13.6419 15.0394 13.9534 14.724 14.012 14.3256C14.2521 12.7091 14.4376 11.3774 14.5977 10.1358C14.6241 9.92531 14.58 9.72588 14.4678 9.57345ZM14.4468 10.1147C14.2871 11.3563 14.1006 12.6861 13.8604 14.3016C13.8125 14.6262 13.568 14.8807 13.3029 14.8841C12.7301 14.8941 12.1351 14.8965 11.5489 14.8941C11.4166 14.8932 11.3005 14.8304 11.2186 14.7182C11.1347 14.6003 11.0992 14.4464 11.1208 14.2729C11.2958 12.9104 11.8432 8.90374 11.9285 8.26472H12.372C12.499 8.26615 12.6136 8.32704 12.6927 8.43729C12.777 8.55428 12.8125 8.71439 12.79 8.886C12.79 8.886 12.7425 9.24985 12.7238 9.39367C12.721 9.41477 12.7272 9.43874 12.7425 9.456C12.7574 9.47277 12.7775 9.48332 12.8001 9.48332C13.2061 9.48572 13.6121 9.48954 14.0196 9.49579C14.149 9.49722 14.2646 9.55954 14.3456 9.6698C14.4319 9.7882 14.4669 9.94593 14.4468 10.1147ZM13.383 10.5408C13.383 10.5408 12.8523 10.5385 12.6395 10.538C12.6021 10.538 12.569 10.5677 12.5632 10.6065C12.5455 10.7484 12.1361 13.747 12.1361 13.747C12.1332 13.7705 12.14 13.793 12.1538 13.8107C12.1687 13.827 12.1893 13.8376 12.2123 13.8376C12.4578 13.8376 12.7056 13.8366 12.952 13.8361C12.9889 13.8342 13.0211 13.8059 13.0283 13.7671C13.0556 13.5835 13.4204 10.9411 13.4592 10.6319C13.4606 10.608 13.4563 10.5845 13.4405 10.5682C13.4261 10.5519 13.406 10.5408 13.383 10.5408ZM12.8859 13.676C12.6907 13.677 12.4966 13.6779 12.301 13.6779C12.301 13.6779 12.6668 11.003 12.7075 10.6971C12.8969 10.6976 13.2957 10.6995 13.2957 10.6995C13.2282 11.2148 12.9453 13.2527 12.8859 13.676Z" fill="#C74A1B"/>
<path d="M7.86432 8.95311C7.51532 11.083 7.25789 12.9814 7.07811 14.7561C6.93142 14.7474 6.7857 14.7393 6.63996 14.7316C6.5086 14.723 6.3902 14.6573 6.3044 14.5456C6.21522 14.4306 6.17688 14.2796 6.19271 14.1204C6.38109 12.3481 6.6534 10.4776 7.02396 8.40567C7.17303 8.39704 7.49519 8.38122 7.49519 8.38122C7.61454 8.38122 7.71522 8.43156 7.78376 8.52791C7.86335 8.63433 7.89166 8.78534 7.86432 8.95311ZM21.2449 10.3409C21.2061 10.6204 21.1658 10.8961 21.1255 11.1631C20.9088 11.1588 20.695 11.1573 20.4793 11.1554C20.3552 11.1535 20.2487 11.0432 20.2411 10.9076C20.2396 10.8601 20.2713 10.759 20.2713 10.759C20.278 10.7345 20.2746 10.7086 20.2593 10.688C20.2449 10.6664 20.2204 10.6549 20.197 10.6535C20.197 10.6535 19.6447 10.6401 19.4774 10.6367C19.4343 10.6362 19.4026 10.6664 19.3973 10.7081C19.3858 10.7896 19.2722 11.468 19.2569 11.5629C19.2535 11.5849 19.2612 11.6108 19.2756 11.6281C19.2904 11.6482 19.313 11.6578 19.336 11.6578H20.546C20.6768 11.6578 20.7919 11.7105 20.871 11.8079C20.9486 11.8999 20.9851 11.9891 20.9611 12.187C20.8609 13.0346 20.7713 13.4684 20.649 13.933C20.5704 14.2345 20.2885 14.5092 20.0335 14.5384C19.2138 14.6319 18.2636 14.6808 18.2636 14.6808C18.1323 14.687 18.0196 14.6405 17.9477 14.5418C17.8719 14.4406 17.8441 14.2983 17.8719 14.142C17.93 13.8203 17.9837 13.4996 18.0359 13.1799C18.2598 13.1732 18.4836 13.1655 18.7152 13.1578C18.835 13.1578 18.9276 13.2637 18.928 13.3975C18.9295 13.4497 18.906 13.5677 18.906 13.5677C18.9031 13.5931 18.9098 13.6175 18.9266 13.6367C18.9414 13.6545 18.9649 13.6645 18.9889 13.6631C19.23 13.6506 19.4669 13.6377 19.7066 13.6252C19.7425 13.6233 19.7732 13.596 19.7804 13.5591C19.8077 13.4147 19.8916 12.9507 19.929 12.7331C19.9323 12.7081 19.9261 12.6827 19.9098 12.6636C19.894 12.6458 19.8714 12.6358 19.847 12.6362C19.6337 12.643 18.6663 12.6458 18.6663 12.6458C18.3959 12.6458 18.2003 12.4531 18.2291 12.165C18.2804 11.6736 18.5033 10.2738 18.5153 10.1736C18.5498 9.88168 18.779 9.66069 19.0455 9.66069C19.8264 9.67651 20.4563 9.72542 20.7751 9.76713C20.906 9.7839 21.0656 9.87882 21.138 9.97709C21.2209 10.0878 21.2621 10.1986 21.2449 10.3409ZM17.2559 14.1861C17.2013 14.4929 16.9424 14.7546 16.6788 14.7695C16.0978 14.7997 15.5057 14.8256 14.9209 14.8443L14.906 14.8462C14.7804 14.8462 14.6749 14.7906 14.5992 14.687C14.5196 14.5749 14.4889 14.4229 14.5143 14.2604C14.789 12.4382 14.9995 10.9277 15.1706 9.51735C15.3197 9.52119 15.4678 9.52406 15.6169 9.52887C15.7478 9.53222 15.8662 9.59501 15.9472 9.70624C16.0335 9.82033 16.0709 9.97468 16.0513 10.141C15.9093 11.2638 15.7449 12.4229 15.546 13.6832C15.5426 13.7057 15.5493 13.7311 15.5642 13.747C15.579 13.7666 15.6016 13.7753 15.6232 13.7753C15.8581 13.7681 16.092 13.7623 16.3245 13.7546C16.3614 13.7527 16.3935 13.7249 16.3983 13.6875C16.6025 12.4205 16.7689 11.2546 16.9089 10.1219C16.9463 9.81793 17.1725 9.58879 17.4333 9.58879L17.928 9.60891C17.7612 11.0562 17.5407 12.5552 17.2559 14.1861ZM4.19798 10.653C4.16203 10.653 4.13182 10.678 4.12271 10.7149C4.07764 10.9028 3.73681 13.2609 3.72385 13.5485C3.72196 13.5941 3.75502 13.6334 3.79816 13.6334C3.89884 13.6406 4.45445 13.6736 4.60355 13.6808C4.6438 13.6818 4.67831 13.654 4.68551 13.6142C4.72481 13.3855 4.82549 12.8289 4.84132 12.7187C4.84467 12.6942 4.83842 12.6717 4.82357 12.6544C4.80918 12.6362 4.78906 12.6247 4.76558 12.6247L4.61888 12.6209C4.5647 12.619 4.51006 12.5897 4.4693 12.5384C4.41993 12.478 4.39691 12.3984 4.407 12.3222C4.43862 12.1012 4.46978 11.8999 4.50335 11.6823L5.59682 11.6803C5.69796 11.6803 5.76892 11.7043 5.80584 11.7489C5.84274 11.793 5.85426 11.8659 5.84035 11.9651C5.82548 12.0916 5.64476 13.6214 5.55081 14.1813C5.49184 14.5317 5.34372 14.6765 5.04122 14.6789H5.0139C4.63566 14.6789 3.75358 14.6079 3.26414 14.5236C3.11266 14.4967 2.96212 14.4584 2.87583 14.3534C2.78714 14.247 2.75646 14.0533 2.75646 13.9076C2.75646 13.5073 2.96691 11.7355 3.22721 10.3064C3.28188 10.0106 3.63997 9.75033 3.91179 9.72158C4.50095 9.66212 5.25837 9.6305 5.70278 9.6305C5.80008 9.6305 5.93527 9.6559 6.02586 9.77622C6.10642 9.88312 6.13566 10.0322 6.10977 10.1967C6.05751 10.5159 6.00622 10.8352 5.95732 11.1516L5.28905 11.1568C5.16443 11.1568 5.05991 11.0437 5.05655 10.9037C5.05704 10.8822 5.09634 10.6449 5.09634 10.6449C5.09634 10.6449 4.33461 10.6487 4.19798 10.653ZM9.96162 10.5432C9.7133 10.5466 9.46641 10.5475 9.21809 10.5495C9.18117 10.5495 9.14906 10.5773 9.1433 10.6142C9.10543 10.8246 8.75884 13.4042 8.73057 13.7149C8.72865 13.7359 8.73584 13.7585 8.74877 13.7743C8.76363 13.7911 8.78424 13.8016 8.80487 13.8016C9.05173 13.8074 9.29862 13.8126 9.54551 13.817L9.54654 13.8169C9.58633 13.8169 9.61935 13.7858 9.6227 13.7446C9.64283 13.538 9.98607 10.9541 10.0374 10.6372C10.0412 10.6132 10.0345 10.5907 10.0187 10.5725C10.0043 10.5538 9.98271 10.5423 9.96162 10.5432ZM11.045 10.1012C10.86 11.4349 10.663 12.8697 10.4822 14.3117C10.4424 14.6266 10.2114 14.8716 9.95347 14.8716H9.94341C9.37293 14.8587 8.78137 14.8385 8.18694 14.8122C8.05462 14.8059 7.93381 14.7398 7.84898 14.6266C7.76123 14.5087 7.7229 14.3582 7.74062 14.2014C7.8835 12.9181 8.06325 11.5773 8.2876 10.1017C8.33699 9.78006 8.58866 9.52311 8.86 9.51735C9.44772 9.50393 10.0436 9.49387 10.6347 9.48764C10.7612 9.48764 10.8739 9.54708 10.9525 9.65349C11.0359 9.77191 11.0695 9.92867 11.045 10.1012ZM14.4468 10.1147C14.2871 11.3563 14.1006 12.6861 13.8604 14.3016C13.8125 14.6262 13.568 14.8807 13.3029 14.8841C12.7301 14.8941 12.1351 14.8965 11.5489 14.8941C11.4166 14.8932 11.3005 14.8304 11.2186 14.7182C11.1347 14.6003 11.0992 14.4464 11.1208 14.2729C11.2958 12.9104 11.8432 8.90374 11.9285 8.26472H12.372C12.499 8.26615 12.6136 8.32704 12.6927 8.43729C12.777 8.55428 12.8125 8.71439 12.79 8.886C12.79 8.886 12.7425 9.24985 12.7238 9.39367C12.721 9.41477 12.7272 9.43874 12.7425 9.456C12.7574 9.47277 12.7775 9.48332 12.8001 9.48332C13.2061 9.48572 13.6121 9.48954 14.0196 9.49579C14.149 9.49722 14.2646 9.55954 14.3456 9.6698C14.4319 9.7882 14.4669 9.94593 14.4468 10.1147ZM13.383 10.5408C13.383 10.5408 12.8523 10.5385 12.6395 10.538C12.6021 10.538 12.569 10.5677 12.5632 10.6065C12.5455 10.7484 12.1361 13.747 12.1361 13.747C12.1332 13.7705 12.14 13.793 12.1538 13.8107C12.1687 13.827 12.1893 13.8376 12.2123 13.8376C12.4578 13.8376 12.7056 13.8366 12.952 13.8361C12.9889 13.8342 13.0211 13.8059 13.0283 13.7671C13.0556 13.5835 13.4204 10.9411 13.4592 10.6319C13.4606 10.608 13.4563 10.5845 13.4405 10.5682C13.4261 10.5519 13.4066 10.5418 13.3836 10.5418L13.383 10.5408Z" fill="#F47920"/>
<path d="M9.97 6.74791C9.59033 6.84427 9.22312 6.96461 8.87412 7.10649C9.06924 7.20046 9.28593 7.28675 9.51891 7.36249C9.69101 7.11177 9.84681 6.90421 9.97 6.74791ZM15.5889 7.13143C15.2126 6.97324 14.8151 6.84237 14.401 6.73929C14.5256 6.89558 14.6953 7.11896 14.8852 7.39557C15.1416 7.31935 15.3775 7.2297 15.5889 7.13143ZM14.6924 7.4507C14.4149 7.05136 14.1872 6.77716 14.0942 6.66882C13.5256 6.54753 12.9302 6.48042 12.3137 6.47322V7.41619C12.6359 7.42338 12.9302 7.52836 13.1546 7.71579C13.7059 7.66835 14.2279 7.57727 14.6924 7.4507ZM9.71019 7.42097C10.1891 7.56047 10.7322 7.65972 11.3108 7.71198C11.5395 7.41234 11.9398 7.41234 12.0989 7.41234H12.1253V6.47322C11.4839 6.47755 10.8641 6.54899 10.2734 6.6765C10.1555 6.81792 9.95036 7.0763 9.71019 7.42097ZM11.0855 8.62473C11.1062 8.48328 11.1349 8.29058 11.1527 8.13718C11.1622 8.05186 11.1805 7.97563 11.2039 7.90947C10.6205 7.85242 10.0726 7.74649 9.58841 7.5998C9.38564 7.90276 9.16705 8.26039 8.95706 8.66019C9.58459 8.65107 10.6478 8.63238 11.086 8.62567L11.0855 8.62473ZM15.2226 15.698C14.9149 15.7086 14.6172 15.7182 14.3382 15.723C13.7303 15.7335 13.0342 15.745 12.3132 15.7484V16.0854C13.2135 16.0935 14.0678 16.2091 14.7797 16.4118C14.922 16.2 15.0721 15.9603 15.2226 15.698ZM13.3391 7.90611C13.4882 8.09882 13.5807 8.33756 13.6129 8.61128C13.7725 8.6161 14.0127 8.62232 14.2739 8.62903C14.6056 8.6386 15.0055 8.65013 15.4264 8.6626C15.2241 8.27381 15.0117 7.92624 14.8151 7.63286C14.3669 7.75942 13.8674 7.85193 13.3391 7.90611ZM15.6421 8.66882C16.4987 8.69422 17.4072 8.72538 17.9896 8.75654C17.4153 8.14437 16.6814 7.62615 15.8343 7.23882C15.5898 7.36633 15.3118 7.47899 15.0055 7.57535C15.2121 7.88791 15.4326 8.2575 15.6421 8.66882ZM14.3962 17.2637C14.7897 17.1654 15.1694 17.0408 15.5294 16.8941C15.3281 16.7992 15.1023 16.7129 14.8569 16.6376C14.679 16.8965 14.5194 17.1074 14.3962 17.2637ZM8.69197 8.66306C8.70874 8.66306 8.72554 8.6626 8.74374 8.6626C8.95898 8.24024 9.18766 7.86202 9.40049 7.53986C9.11622 7.44448 8.85784 7.33325 8.63062 7.21101C8.37126 7.32703 8.12486 7.45454 7.88804 7.5926C8.05678 7.6463 8.20588 7.73594 8.33004 7.86154C8.52658 8.06049 8.65266 8.34379 8.69197 8.66306ZM14.9714 16.4699C15.2663 16.5624 15.5323 16.6721 15.7638 16.7939C16.4839 16.4737 17.1258 16.0595 17.6603 15.5724C16.9503 15.6161 16.1771 15.6592 15.447 15.6894C15.2878 15.9751 15.1253 16.2378 14.9714 16.4699ZM9.48199 15.7115C9.36887 15.7072 9.25812 15.7038 9.14882 15.6995C9.30222 15.967 9.45708 16.2114 9.60039 16.4257C10.3267 16.2143 11.2044 16.0926 12.1258 16.0859V15.7508H11.8147C10.959 15.7508 10.1953 15.7378 9.48199 15.7115ZM12.3142 16.2834V17.5283C12.9292 17.5207 13.5246 17.4535 14.0932 17.3337C14.2035 17.2023 14.4139 16.943 14.6642 16.5835C13.9834 16.3975 13.1699 16.2915 12.3142 16.2834ZM8.92687 15.6908C7.89283 15.6506 7.07741 15.6127 6.77252 15.5978C7.30271 16.0767 7.93741 16.4833 8.64931 16.7992C8.87126 16.6817 9.12869 16.5753 9.41009 16.4842C9.25526 16.2503 9.08987 15.9833 8.92687 15.6908ZM8.88659 16.8998C9.23224 17.0398 9.59368 17.1587 9.96905 17.2546C9.85017 17.1031 9.69723 16.8998 9.52514 16.6525C9.29313 16.7253 9.07884 16.8083 8.88659 16.8998ZM10.2744 17.3251C10.8641 17.4531 11.4849 17.5235 12.1263 17.5283V16.2834C11.2485 16.291 10.4134 16.4023 9.71833 16.5955C9.96329 16.9463 10.1675 17.1995 10.2744 17.3251Z" fill="#00AB4E"/>
</svg>
