<svg xmlns="http://www.w3.org/2000/svg" width="142" height="24" viewBox="0 0 142 24" fill="none"><rect width="142" height="24" fill="none"/>
<path d="M64.5766 22H67.971V19.1429H77.1412V21.9732H80.5081V16.3658H78.7289V5.20427H67.6699L67.4235 11.773C67.3688 13.482 67.013 14.8705 66.1096 16.3658H64.5766V22ZM70.6263 12.04L70.7632 7.9813H75.3345V16.3391H69.5587C70.2431 15.1108 70.5715 13.5887 70.6263 12.04ZM89.3499 5.20427H82.4244V19.1695H85.7913V14.0694H89.3499C92.4709 14.0694 94.3869 12.5741 94.3869 9.61014C94.3869 6.61949 92.5526 5.20427 89.3499 5.20427ZM85.7913 7.9546H89.2677C90.3901 7.9546 91.0471 8.56874 91.0471 9.61014C91.0471 10.6515 90.3901 11.3191 89.2677 11.3191H85.7913V7.9546ZM127.701 5.20427V19.1695H135.118C137.856 19.1695 140.265 18.2616 140.265 15.271C140.265 13.7757 139.526 12.7343 138.349 12.1468C139.361 11.5327 139.936 10.4913 139.936 9.1295C139.936 6.13885 137.582 5.23097 134.818 5.23097H127.701V5.20427ZM131.04 7.90119H134.872C136.077 7.90119 136.652 8.40853 136.652 9.39652C136.652 10.4379 136.077 10.8651 134.872 10.8651H131.04V7.90119ZM131.04 13.5087H135.173C136.323 13.5087 136.898 13.9893 136.898 14.9773C136.898 15.9653 136.35 16.4726 135.173 16.4726H131.04V13.5087ZM110.893 2L110.92 4.4032L123.047 3.25501V2H110.893ZM98.6569 5.20427L94.0304 19.1695H97.6989L98.3561 16.9266H102.9L103.612 19.1695H107.334L102.681 5.20427H98.6569ZM102.079 14.1495H99.0672L100.546 8.35513H100.628L102.079 14.1495ZM112.59 5.20427H109.059V19.1695H112.946L121.268 9.44992H121.349L121.295 19.1695H124.827V5.20427H120.939L112.617 14.9239H112.535L112.59 5.20427Z" fill="#32D264"/>
<path d="M38.0786 7.95449V19.1694H41.3908V7.95449H45.2232V5.20416H34.2463V7.95449H38.0786ZM24.0359 5.20416H20.8605V19.1694H24.5833L29.319 9.71683H29.4011L29.1821 19.1694H32.3848V5.20416H28.6346L23.899 14.63H23.8168L24.0359 5.20416ZM50.5884 5.20416H47.0571V19.1694H50.9443L59.2658 9.44981H59.348L59.2932 19.1694H62.8244V5.20416H58.9373L50.6158 14.9238H50.5336L50.5884 5.20416ZM18.9443 15.6448L15.6047 14.2295C14.5646 16.0719 12.8673 16.4725 10.8143 16.4725C7.41999 16.4725 5.69546 15.0039 5.69546 12.2535V12.0667C5.69546 9.3163 7.41999 7.84767 10.8143 7.84767C12.8673 7.84767 14.5646 8.22151 15.6047 10.0907L18.9443 8.67545C17.3566 5.49788 14.1813 4.88373 10.8143 4.88373C5.39434 4.88373 2 7.60735 2 11.9064V12.4404C2 16.7662 5.39434 19.4631 10.8143 19.4631C14.1539 19.4631 17.3566 18.8222 18.9443 15.6448Z" fill="white"/>
</svg>
