<svg xmlns="http://www.w3.org/2000/svg" width="85" height="24" viewBox="0 0 85 24" fill="none"><rect width="85" height="24" fill="none"/>
<path d="M30.8051 17.0184C29.8702 17.0184 29.0249 16.8007 28.2693 16.3652C27.5265 15.9298 26.9374 15.3279 26.5019 14.5595C26.0793 13.791 25.868 12.9266 25.868 11.9661C25.868 11.0055 26.0793 10.141 26.5019 9.3726C26.9374 8.60417 27.5265 8.00227 28.2693 7.56684C29.0249 7.1314 29.8702 6.91369 30.8051 6.91369C31.74 6.91369 32.5789 7.1314 33.3217 7.56684C34.0773 8.00227 34.6664 8.60417 35.089 9.3726C35.5245 10.141 35.7422 11.0055 35.7422 11.9661C35.7422 12.9266 35.5245 13.791 35.089 14.5595C34.6664 15.3279 34.0773 15.9298 33.3217 16.3652C32.5789 16.8007 31.74 17.0184 30.8051 17.0184ZM30.8051 14.8284C31.535 14.8284 32.1434 14.5659 32.6301 14.0408C33.1296 13.5029 33.3793 12.8113 33.3793 11.9661C33.3793 11.4025 33.264 10.903 33.0335 10.4676C32.803 10.0322 32.4892 9.69282 32.0922 9.44948C31.708 9.20613 31.2789 9.08444 30.8051 9.08444C30.3312 9.08444 29.8958 9.20613 29.4988 9.44948C29.1018 9.69282 28.788 10.0322 28.5575 10.4676C28.3269 10.903 28.2116 11.4025 28.2116 11.9661C28.2116 12.5296 28.3269 13.029 28.5575 13.4645C28.788 13.8999 29.1018 14.2393 29.4988 14.4826C29.8958 14.7131 30.3312 14.8284 30.8051 14.8284Z" fill="white"/>
<path d="M41.243 16.8263H38.8801V9.27659H35.7873V7.10578H44.3551V9.27659H41.243V16.8263Z" fill="white"/>
<path d="M45.2883 16.8263V7.10578H50.7057C51.5894 7.10578 52.2938 7.3619 52.8188 7.87421C53.3568 8.37367 53.6257 9.02683 53.6257 9.83366C53.6257 10.3203 53.504 10.7429 53.2607 11.1016C53.0302 11.4473 52.7677 11.6907 52.4731 11.8316V11.9276C52.8188 12.0685 53.1262 12.3375 53.3952 12.7344C53.6769 13.1187 53.8178 13.5669 53.8178 14.0792C53.8178 14.5914 53.6898 15.0589 53.4336 15.4816C53.1902 15.8914 52.8445 16.218 52.3962 16.4613C51.9608 16.7046 51.4613 16.8263 50.8978 16.8263H45.2883ZM50.1294 11.0439C50.4496 11.0439 50.7121 10.9415 50.917 10.7366C51.1219 10.5316 51.2244 10.2691 51.2244 9.94894C51.2244 9.62873 51.1219 9.3726 50.917 9.18051C50.7121 8.97558 50.4496 8.87314 50.1294 8.87314H47.632V11.0439H50.1294ZM50.2831 15.0397C50.6033 15.0397 50.8722 14.9373 51.0899 14.7324C51.3077 14.5146 51.4165 14.2393 51.4165 13.9063C51.4165 13.5861 51.3077 13.3236 51.0899 13.1187C50.8722 12.9137 50.6033 12.8113 50.2831 12.8113H47.632V15.0397H50.2831Z" fill="white"/>
<path d="M59.5992 17.0184C58.6768 17.0184 57.8382 16.8007 57.0825 16.3652C56.3268 15.9298 55.7314 15.3279 55.2959 14.5595C54.8733 13.791 54.6619 12.9266 54.6619 11.9661C54.6619 11.0055 54.8733 10.141 55.2959 9.3726C55.7314 8.60417 56.3268 8.00227 57.0825 7.56684C57.8382 7.1314 58.6768 6.91369 59.5992 6.91369C60.4958 6.91369 61.309 7.12498 62.0388 7.54763C62.7687 7.97023 63.3386 8.55298 63.7486 9.29579C64.171 10.0258 64.3827 10.8454 64.3827 11.7547C64.3827 12.1774 64.3506 12.5039 64.2864 12.7344H57.0056C57.0953 13.4132 57.3834 13.9703 57.8703 14.4058C58.3569 14.8284 58.933 15.0397 59.5992 15.0397C60.0858 15.0397 60.5149 14.9373 60.8861 14.7323C61.2701 14.5274 61.5455 14.2777 61.7122 13.9831H64.1135C63.8443 14.79 63.3195 15.5008 62.5384 16.1155C61.7697 16.7174 60.7903 17.0184 59.5992 17.0184ZM62.0388 11.14C61.9746 10.4868 61.7184 9.94252 61.2701 9.50709C60.8219 9.07165 60.2649 8.85393 59.5992 8.85393C58.8947 8.85393 58.3119 9.07165 57.8506 9.50709C57.3899 9.92974 57.1081 10.474 57.0056 11.14H62.0388Z" fill="white"/>
<path d="M69.8682 16.8263H67.5051V9.27659H64.4123V7.10578H72.9802V9.27659H69.8682V16.8263Z" fill="white"/>
<path d="M77.957 17.0184C77.0221 17.0184 76.1768 16.8007 75.4211 16.3652C74.6783 15.9298 74.0892 15.3279 73.6539 14.5595C73.2315 13.791 73.0198 12.9266 73.0198 11.9661C73.0198 11.0055 73.2315 10.141 73.6539 9.3726C74.0892 8.60417 74.6783 8.00227 75.4211 7.56684C76.1768 7.1314 77.0221 6.91369 77.957 6.91369C78.8918 6.91369 79.7309 7.1314 80.4737 7.56684C81.2295 8.00227 81.8185 8.60417 82.2409 9.3726C82.6762 10.141 82.8942 11.0055 82.8942 11.9661C82.8942 12.9266 82.6762 13.791 82.2409 14.5595C81.8185 15.3279 81.2295 15.9298 80.4737 16.3652C79.7309 16.8007 78.8918 17.0184 77.957 17.0184ZM77.957 14.8284C78.6868 14.8284 79.2956 14.5659 79.7822 14.0408C80.2817 13.5029 80.5312 12.8113 80.5312 11.9661C80.5312 11.4025 80.4157 10.903 80.1854 10.4676C79.9551 10.0322 79.6414 9.69282 79.2444 9.44948C78.8597 9.20613 78.4312 9.08444 77.957 9.08444C77.4834 9.08444 77.0475 9.20613 76.6504 9.44948C76.2534 9.69282 75.9397 10.0322 75.7094 10.4676C75.4791 10.903 75.3636 11.4025 75.3636 11.9661C75.3636 12.5296 75.4791 13.029 75.7094 13.4645C75.9397 13.8999 76.2534 14.2393 76.6504 14.4826C77.0475 14.7131 77.4834 14.8284 77.957 14.8284Z" fill="white"/>
<path fill-rule="evenodd" clip-rule="evenodd" d="M12 22C17.5228 22 22 17.5228 22 12C22 6.47715 17.5228 2 12 2C6.47715 2 2 6.47715 2 12C2 17.5228 6.47715 22 12 22ZM10.7135 16.5215C11.1995 16.6651 11.7158 16.7368 12.2623 16.7368C13.2091 16.7368 14.0586 16.5213 14.8109 16.0904C15.5761 15.6595 16.1728 15.0638 16.6008 14.3033C17.0418 13.5429 17.2623 12.6874 17.2623 11.7368C17.2623 10.7863 17.0418 9.93076 16.6008 9.17027C16.1728 8.40984 15.5761 7.81413 14.8109 7.3832C14.0586 6.95227 13.2091 6.73681 12.2623 6.73681C11.3154 6.73681 10.4594 6.95227 9.69415 7.3832C8.94189 7.81413 8.34528 8.40984 7.90427 9.17027C7.47627 9.93076 7.26227 10.7863 7.26227 11.7368C7.26227 12.4132 7.37056 13.0414 7.58727 13.6215C7.71702 13.9689 7.76714 14.3467 7.67073 14.7048L6.99909 17.1993L9.67056 16.48C10.0128 16.3879 10.3736 16.4211 10.7135 16.5215ZM14.1105 13.7901C13.6176 14.3097 13.0016 14.5696 12.2623 14.5696C11.7823 14.5696 11.3414 14.4555 10.9393 14.2273C10.5372 13.9865 10.2195 13.6506 9.98598 13.2197C9.75255 12.7888 9.63581 12.2945 9.63581 11.7368C9.63581 11.1792 9.75255 10.6849 9.98598 10.254C10.2195 9.82303 10.5372 9.48716 10.9393 9.24635C11.3414 9.00555 11.7823 8.88515 12.2623 8.88515C12.7421 8.88515 13.1767 9.00555 13.5658 9.24635C13.9678 9.48716 14.2856 9.82303 14.5191 10.254C14.7526 10.6849 14.8692 11.1792 14.8692 11.7368C14.8692 12.5733 14.6163 13.2577 14.1105 13.7901Z" fill="white"/>
</svg>
