<svg xmlns="http://www.w3.org/2000/svg" width="37" height="24" viewBox="0 0 37 24" fill="none"><rect width="37" height="24" fill="none"/>
<path d="M10.529 2V13.463H13.3156V2H10.529Z" fill="black"/>
<path fill-rule="evenodd" clip-rule="evenodd" d="M22.3202 13.463H25.3242L21.412 2H17.7016L13.7971 13.463H16.7934L17.5561 11.0549H21.5576L22.3202 13.463ZM19.6034 4.88496H19.5103L18.2237 8.94702H20.8899L19.6034 4.88496Z" fill="black"/>
<path d="M10.0018 21.9299L8.32852 19.7619H8.06894V21.9299H6.80957V16.7029H8.06894V18.7341H8.311L9.88958 16.7029H11.4717L9.45459 19.2217L11.5769 21.9299H10.0018ZM13.8082 22C13.3357 22 12.9125 21.8959 12.5382 21.6878C12.1664 21.4796 11.8717 21.1768 11.6542 20.7792C11.4391 20.3793 11.3315 19.8928 11.3315 19.3199C11.3315 18.7446 11.4402 18.2569 11.6577 17.8571C11.8776 17.4548 12.1746 17.1508 12.5487 16.945C12.9253 16.7369 13.3451 16.6328 13.8082 16.6328C14.1238 16.6328 14.4161 16.6772 14.6851 16.7661C14.9541 16.8526 15.1903 16.98 15.3937 17.1485C15.5995 17.3168 15.7656 17.5226 15.8919 17.7659C16.0181 18.009 16.0977 18.2873 16.1304 18.6008H14.8534C14.8372 18.4698 14.802 18.3517 14.7483 18.2464C14.6968 18.1388 14.6267 18.0477 14.5378 17.9729C14.4513 17.898 14.3495 17.8407 14.2326 17.801C14.1157 17.7588 13.9847 17.7378 13.8396 17.7378C13.5872 17.7378 13.3697 17.801 13.1872 17.9272C13.0048 18.0511 12.8645 18.2312 12.7663 18.4674C12.668 18.7013 12.619 18.9855 12.619 19.3199C12.619 19.6637 12.668 19.9537 12.7663 20.1899C12.8669 20.4237 13.0071 20.6003 13.1872 20.7196C13.3697 20.8365 13.586 20.895 13.8362 20.895C13.9741 20.895 14.1005 20.8774 14.2151 20.8424C14.3296 20.8049 14.4303 20.7523 14.5168 20.6846C14.6057 20.6143 14.6782 20.5302 14.7343 20.432C14.7927 20.3313 14.8325 20.2179 14.8534 20.0917H16.1304C16.107 20.3232 16.0404 20.5523 15.9304 20.7792C15.8206 21.0061 15.6673 21.2119 15.4709 21.3966C15.2768 21.5791 15.0406 21.7252 14.7623 21.8351C14.484 21.9451 14.1659 22 13.8082 22ZM21.126 16.7029V21.9299H19.877V17.7132H17.9442V21.9299H16.6954V16.7029H21.126ZM21.7646 21.9299V16.7029H25.4093V17.7308H23.0239V18.7866H25.2198V19.7899H23.0239V20.902H25.4058V21.9299H21.7646ZM30.0226 17.7308V16.7029H34.4355V17.7308H32.8501V21.9299H31.6082V17.7308H30.0226Z" fill="black"/>
<path d="M3.6698 19.8671V18.8709H5.18443C5.17084 18.6509 5.13954 18.4615 5.09053 18.3025C5.02271 18.0805 4.9163 17.9144 4.77129 17.8044C4.62865 17.6922 4.44037 17.6373 4.20652 17.6395C3.9633 17.6373 3.77387 17.6711 3.63822 17.7414C3.50258 17.8091 3.40552 17.9073 3.34706 18.0359C3.29093 18.1646 3.25702 18.3189 3.24533 18.499H2C2.03508 18.1506 2.13681 17.836 2.3052 17.5554C2.47357 17.2725 2.71562 17.0479 3.03135 16.8819C3.34706 16.7158 3.73879 16.6328 4.20652 16.6328C4.65553 16.6328 5.04609 16.7357 5.37818 16.9415C5.71027 17.1449 5.96752 17.4337 6.14993 17.808C6.33235 18.1822 6.42239 18.6266 6.42004 19.1411V19.5093C6.42239 20.0238 6.33468 20.4682 6.15695 20.8424C5.98156 21.2143 5.72664 21.5007 5.39221 21.7018C5.06012 21.9006 4.66138 22 4.19599 22C3.76101 22 3.38331 21.9252 3.06291 21.7755C2.74252 21.6259 2.49228 21.4154 2.31221 21.144C2.13213 20.8704 2.03156 20.5523 2.01052 20.1899H3.25585C3.26287 20.4658 3.34589 20.6728 3.50492 20.8108C3.66629 20.9465 3.89664 21.0154 4.19599 21.0178C4.45324 21.0154 4.65437 20.9593 4.79937 20.8494C4.94436 20.7371 5.04609 20.5699 5.10456 20.3477C5.14079 20.2086 5.16579 20.0484 5.17957 19.8671H3.6698Z" fill="black"/>
<path fill-rule="evenodd" clip-rule="evenodd" d="M25.8515 21.9299V16.7029H28.0053C28.3983 16.7029 28.7374 16.779 29.0226 16.931C29.308 17.0829 29.5278 17.2958 29.6821 17.5694C29.8389 17.8407 29.9171 18.1564 29.9171 18.5166C29.9171 18.8767 29.8377 19.1913 29.6787 19.4603C29.5219 19.7291 29.2975 19.9385 29.0052 20.0881C28.7127 20.2355 28.3679 20.3092 27.9703 20.3092H27.1108V21.9299H25.8515ZM28.2123 19.2146C28.0837 19.2801 27.9247 19.3129 27.7352 19.3129H27.1108V17.7238H27.7317C27.9235 17.7238 28.0837 17.7566 28.2123 17.822C28.3432 17.8852 28.4415 17.9764 28.5069 18.0957C28.5748 18.2126 28.6088 18.3529 28.6088 18.5166C28.6088 18.6756 28.5748 18.8148 28.5069 18.9341C28.4415 19.0533 28.3432 19.1468 28.2123 19.2146Z" fill="black"/>
</svg>
