<svg xmlns="http://www.w3.org/2000/svg" width="24" height="24" viewBox="0 0 24 24" fill="none"><rect width="24" height="24" fill="none"/>
<path d="M4.32089 8.18838L3.88709 10.2228H6.74424C6.68188 10.4721 6.62455 10.684 6.56716 10.8536C6.50984 11.0256 6.46994 11.1403 6.44502 11.1951C6.38271 11.3622 6.30042 11.5317 6.19573 11.7062C6.09351 11.8807 5.94888 12.0453 5.75695 12.1973C5.54751 12.3594 5.32064 12.4741 5.07884 12.5389C4.83693 12.6037 4.58518 12.6337 4.32089 12.6311C4.06408 12.6287 3.83224 12.5987 3.62778 12.5415C3.42332 12.4841 3.24631 12.4117 3.09427 12.3295C2.94215 12.2447 2.81753 12.16 2.71779 12.0752C2.61808 11.9929 2.54576 11.9231 2.49588 11.8683L1 13.6484C1.16454 13.7979 1.33406 13.9301 1.50863 14.0447C1.68316 14.1595 1.86765 14.2617 2.06208 14.3514C2.41859 14.5135 2.76765 14.6257 3.11166 14.6905C3.45575 14.7553 3.80728 14.7877 4.17131 14.7852C4.89181 14.7802 5.51762 14.6955 6.04615 14.531C6.57719 14.3639 7.0334 14.1395 7.41738 13.8578C7.79884 13.5786 8.12792 13.2644 8.40463 12.9154C8.61905 12.6511 8.80356 12.3818 8.96058 12.1076C9.11767 11.8333 9.25731 11.5516 9.37445 11.2649C9.49169 10.9783 9.59885 10.6866 9.69111 10.3874C9.70783 10.3319 9.72401 10.2771 9.73979 10.2228H10.9418L9.16185 18.52H11.8395L13.6194 10.2228H22.5637L23 8.18906L22.7956 8.18843L4.32089 8.18838Z" fill="url(#paint0_linear_10612_75)"/>
<path d="M22.3747 11.1057H14.9867L12.9131 20.7714H15.5899L17.1857 13.3196H19.2201L17.6243 20.7714H20.3011L22.3747 11.1057Z" fill="url(#paint1_linear_10612_75)"/>
<path d="M10.1491 7.30534C10.1359 7.0122 10.1005 6.7471 10.0426 6.50762C9.97025 6.20857 9.87803 5.94676 9.76338 5.71993C9.64868 5.49548 9.52405 5.30098 9.39188 5.13654C9.15004 4.8448 8.87333 4.61542 8.55664 4.44847C8.24251 4.28389 7.90595 4.16669 7.54443 4.09683L7.52896 4.09398L7.52746 4.09373L7.51349 4.09117L7.51052 4.09067L7.49799 4.08841L7.49352 4.08765L7.48249 4.08572L7.47654 4.08471L7.45951 4.08177L7.45141 4.08042L7.44249 4.0789L7.43588 4.07776L7.42545 4.07605L7.42034 4.07516L7.40842 4.07323L7.40477 4.0726L7.39134 4.07049L7.3892 4.07011L7.37427 4.06777L7.35806 4.06531L7.34243 4.06297L7.34007 4.06259L7.32678 4.06062L7.32295 4.05999L7.3058 4.05756L7.29549 4.05613L7.28865 4.05512L7.27985 4.05385L7.27146 4.05272L7.26416 4.05171L7.23709 4.04819L7.23276 4.04757L7.21988 4.04591L7.21705 4.04553L7.20265 4.04374L7.20133 4.04361L7.18558 4.04168L7.16988 4.03982L7.1682 4.03957L7.15413 4.03795L7.15091 4.03758L7.13836 4.03617L7.13361 4.03567L7.12258 4.0344L7.11631 4.03377L7.10676 4.03276L7.09902 4.03201L7.09097 4.03112L7.08166 4.03011L7.07514 4.02948L7.06433 4.02834L7.05933 4.02784L7.04698 4.0267L7.04346 4.02632L7.02961 4.02503L7.0276 4.02491L7.01221 4.02347L6.99581 4.02204L6.9948 4.02194L6.97995 4.02067L6.97737 4.02042L6.96406 4.01929L6.95994 4.01891L6.94812 4.01802L6.9425 4.01765L6.9322 4.01689L6.92504 4.01625L6.91626 4.01563L6.90756 4.01499L6.90029 4.01449L6.89005 4.01373L6.88433 4.01335L6.87255 4.01259L6.86837 4.01234L6.85504 4.01146L6.85235 4.01133L6.8375 4.01045L6.83636 4.01037L6.82036 4.00949L6.80433 4.00856L6.8024 4.00845L6.78829 4.00769L6.78482 4.00757L6.76725 4.00668L6.75619 4.00618L6.74963 4.0058L6.74011 4.00542L6.73199 4.00504L6.72403 4.00479L6.70793 4.00415L6.69671 4.00378L6.69181 4.00365L6.6757 4.00317L6.66135 4.00267L6.65955 4.00259L6.64365 4.00209L6.62725 4.00171L6.62592 4.00168L6.61107 4.0013L6.6082 4.00124L6.59489 4.00099L6.59045 4.00087L6.57867 4.00062L6.57272 4.00052L6.54623 4.00018L6.53001 4H6.38845L6.37353 4.00012L6.36769 4.00015L6.35216 4.00033L6.34374 4.00043L6.33662 4.0005L6.32888 4.00063L6.30568 4.00097L6.29924 4.0011L6.29022 4.00123L6.28445 4.00135L6.27482 4.0016L6.25943 4.00198L6.25496 4.00211L6.24407 4.00236L6.24021 4.00246L6.22553 4.00294L6.21339 4.00332L6.21084 4.00338L6.1981 4.00377L6.18285 4.00434L6.18159 4.00437L6.16758 4.00488L6.12329 4.00681L6.12203 4.00688L6.10879 4.00752L6.10688 4.00758L6.09178 4.00834L6.07982 4.00897L6.07671 4.00909L6.0654 4.00972L6.06163 4.00998L6.05101 4.01061L6.0466 4.01086L6.03661 4.01149L6.0316 4.01187L6.01659 4.01289L6.00791 4.01351L6.00167 4.01389L5.99358 4.01452L5.98674 4.01503L5.97181 4.01604L5.96501 4.01655L5.95695 4.01718L5.95077 4.01768L5.9421 4.01832L5.93651 4.01869L5.92724 4.01945L5.92234 4.01983L5.91245 4.02059L5.90815 4.02097L5.89767 4.02185L5.89398 4.0221L5.88292 4.02299L5.87984 4.02324L5.86821 4.02425L5.86573 4.0245L5.85349 4.02564L5.85166 4.02577L5.83882 4.0269L5.83755 4.027L5.82413 4.02829L5.80946 4.02973L5.7955 4.03112L5.78148 4.03256L5.78021 4.03269L5.7675 4.03401L5.76568 4.03414L5.75358 4.03546L5.75114 4.03572L5.73968 4.03698L5.73664 4.03736L5.72579 4.03862L5.72218 4.039L5.71194 4.04014L5.70774 4.04064L5.69812 4.04178L5.69332 4.04241L5.68433 4.04342L5.67892 4.04405L5.67055 4.04506L5.66454 4.04582L5.65677 4.04683L5.65021 4.04772L5.63589 4.04949L5.62934 4.05037L5.62157 4.05138L5.61563 4.05214L5.60732 4.05327L5.59308 4.05529L5.58835 4.05593L5.57887 4.05725L5.57471 4.05788L5.56114 4.05982L5.55051 4.06136L5.54757 4.06173L5.53637 4.06339L5.53401 4.06377L5.52226 4.06552L5.52047 4.06578L5.50815 4.06763L5.50702 4.06776L5.49412 4.06973L5.48003 4.07195C5.18087 4.11942 4.87921 4.18673 4.57501 4.26897C4.30825 4.34132 4.06394 4.42356 3.83958 4.51084C3.61267 4.60063 3.39078 4.7028 3.16885 4.82252L3.90187 6.69238C4.0415 6.60499 4.21102 6.51785 4.40549 6.43057C4.6 6.34582 4.81938 6.27344 5.05872 6.21358C5.29808 6.15636 5.55728 6.12633 5.83159 6.12393C6.15068 6.12393 6.41 6.17367 6.60694 6.27344C6.80643 6.37072 6.956 6.51026 7.05822 6.69238C7.13795 6.84444 7.18781 6.99651 7.21027 7.14351C7.21907 7.20098 7.22551 7.25493 7.22998 7.30544L10.1491 7.30534Z" fill="url(#paint2_linear_10612_75)"/>
<defs>
<linearGradient id="paint0_linear_10612_75" x1="12" y1="8.18835" x2="12" y2="18.5199" gradientUnits="userSpaceOnUse">
<stop stop-color="#75C1EB"/>
<stop offset="1" stop-color="#327ABB"/>
</linearGradient>
<linearGradient id="paint1_linear_10612_75" x1="22" y1="11.5" x2="16" y2="21.5" gradientUnits="userSpaceOnUse">
<stop stop-color="#D86546"/>
<stop offset="1" stop-color="#C94035"/>
</linearGradient>
<linearGradient id="paint2_linear_10612_75" x1="6.65896" y1="4" x2="6.65896" y2="7.30544" gradientUnits="userSpaceOnUse">
<stop stop-color="#C2CBD0"/>
<stop offset="1" stop-color="#BCC7CE"/>
</linearGradient>
</defs>
</svg>
