<svg xmlns="http://www.w3.org/2000/svg" width="94" height="24" viewBox="0 0 94 24" fill="none"><rect width="94" height="24" fill="none"/>
<path d="M24.5356 17.6462V3.74309H32.753V5.48617H26.2372V9.76087H32.0889V11.504H26.2372V15.8617H33.2095V17.6048H24.5356V17.6462Z" fill="#E43225"/>
<path d="M41.8419 17.6462L39.0198 13.9526L36.1976 17.6462H34.2055L38.0652 12.7075L33.998 7.60277H36.2391L39.0198 11.4209L41.8419 7.60277H44.0415L40.1818 12.7075L43.834 17.6462H41.8419Z" fill="#E43225"/>
<path d="M46.5731 16.1522V23H44.8715V12.749C44.8715 10.1344 46.8636 7.35375 49.9763 7.35375C53.1304 7.35375 55.496 9.34585 55.496 12.6245C55.496 15.8202 53.0889 18.0198 50.3498 18.0198C49.0217 18.0198 47.2372 17.4387 46.5731 16.1522ZM53.7115 12.6245C53.7115 10.3834 52.2589 9.05533 49.6858 9.17984C48.4407 9.22134 46.5316 10.1344 46.6976 13.33C46.7391 14.3676 47.8182 16.3182 50.1838 16.3182C52.2174 16.3182 53.7115 15.1561 53.7115 12.6245Z" fill="#E43225"/>
<path d="M56.9486 7.60277H58.6502V8.68182C59.4802 7.72727 60.7668 7.39526 62.1364 7.39526V9.22135C61.9289 9.17984 59.8953 8.93083 58.6502 11.587V17.6877H56.9486V7.60277Z" fill="#E43225"/>
<path d="M62.5929 12.6245C62.5929 9.71936 64.668 7.35375 67.5316 7.35375C71.1008 7.35375 72.4288 9.71936 72.4288 12.749V13.579H64.4605C64.585 15.4881 66.2866 16.4842 67.8636 16.4427C69.0257 16.4012 69.8142 16.0692 70.6443 15.2391L71.7648 16.4012C70.7273 17.3972 69.3992 18.0613 67.7806 18.0613C64.751 18.0198 62.5929 15.7787 62.5929 12.6245ZM67.4071 9.05534C65.7885 9.05534 64.5435 10.4664 64.4605 12.002H70.6443C70.6443 10.5079 69.5652 9.05534 67.4071 9.05534Z" fill="#E43225"/>
<path d="M73.3004 16.2352L74.5455 15.1146C74.504 15.1146 75.168 15.7786 75.251 15.8202C75.5415 16.0692 75.832 16.2352 76.2055 16.3182C77.2846 16.6087 79.2352 16.5257 79.4012 15.0316C79.4842 14.2016 78.8617 13.7451 78.1561 13.4545C77.2431 13.1225 76.247 12.998 75.334 12.583C74.2964 12.1265 73.6324 11.3379 73.6324 10.1759C73.6324 7.14624 77.9486 6.64822 79.8992 8.05928C79.9822 8.14229 80.9368 9.01383 80.8952 9.01383L79.6502 10.0099C79.0277 9.26284 78.4466 8.88932 77.1186 8.88932C76.4546 8.88932 75.5415 9.17984 75.3755 9.88538C75.1265 10.8814 76.247 11.2549 76.9941 11.4624C77.9901 11.7115 79.0692 11.8775 79.9407 12.417C81.1443 13.164 81.4348 14.7826 80.9783 16.0277C80.4802 17.3972 78.9862 17.9368 77.6581 17.9783C76.081 18.0613 74.7115 17.5632 73.5909 16.4427C73.5079 16.4427 73.3004 16.2352 73.3004 16.2352Z" fill="#E43225"/>
<path d="M82.0573 16.2352L83.3024 15.1146C83.2609 15.1146 83.9249 15.7786 84.0079 15.8202C84.2984 16.0692 84.5889 16.2352 84.9625 16.3182C86.0415 16.6087 87.9921 16.5257 88.1581 15.0316C88.2411 14.2016 87.6186 13.7451 86.913 13.4545C86 13.1225 85.004 12.998 84.0909 12.583C83.0534 12.1265 82.3893 11.3379 82.3893 10.1759C82.3893 7.14624 86.7055 6.64822 88.6561 8.05928C88.7391 8.14229 89.6937 9.01383 89.6522 9.01383L88.4071 10.0099C87.7846 9.26284 87.2036 8.88932 85.8755 8.88932C85.2115 8.88932 84.2984 9.17984 84.1324 9.88538C83.8834 10.8814 85.004 11.2549 85.751 11.4624C86.747 11.7115 87.8261 11.8775 88.6976 12.417C89.9012 13.164 90.1917 14.7826 89.7352 16.0277C89.2372 17.3972 87.7431 17.9368 86.415 17.9783C84.8379 18.0613 83.4684 17.5632 82.3478 16.4427C82.2648 16.4427 82.0573 16.2352 82.0573 16.2352Z" fill="#E43225"/>
<path d="M90.1502 7.60277V6.52371H89.7767V6.3162H90.7727V6.52371H90.3992V7.60277H90.1502Z" fill="#E43225"/>
<path d="M92.0178 7.60277V6.60672L91.6443 7.60277H91.5613L91.1878 6.60672V7.60277H90.9802V6.3162H91.3122L91.6443 7.18775L91.9763 6.3162H92.3083V7.60277H92.0178Z" fill="#E43225"/>
<path d="M12.998 17.6462L11.753 14.3261H5.02965L3.78459 17.6462H2L7.39526 3.74309H9.34585L14.6996 17.6462H12.998ZM8.3083 5.73518L5.77668 12.6245H11.0474L8.3083 5.73518Z" fill="#F7971D"/>
<path d="M15.8202 17.6462V3.74309H17.5632V17.6462H15.8202Z" fill="#F7971D"/>
<path d="M20.1779 17.6462V7.81028H21.9209V17.6462H20.1779Z" fill="#F7971D"/>
<path d="M23.581 4.61462C23.581 4.57312 23.581 4.57312 23.581 4.53162C23.581 4.49011 23.581 4.49012 23.581 4.44861C22.253 4.40711 21.1739 3.32806 21.1324 2C21.0909 2 21.0494 2 21.0079 2C20.9664 2 20.9249 2 20.8834 2C20.8419 3.32806 19.7628 4.40711 18.4348 4.44861C18.4348 4.49012 18.4348 4.49011 18.4348 4.53162C18.4348 4.57312 18.4348 4.57312 18.4348 4.61462C19.7628 4.65612 20.8419 5.73518 20.8834 7.06324C20.9249 7.06324 20.9664 7.06324 21.0079 7.06324C21.0494 7.06324 21.0909 7.06324 21.1324 7.06324C21.1739 5.73518 22.253 4.65612 23.581 4.61462Z" fill="#F7971D"/>
</svg>
