<svg xmlns="http://www.w3.org/2000/svg" width="24" height="24" viewBox="0 0 24 24" fill="none"><rect width="24" height="24" fill="none"/>
<path d="M10.2724 21.4919L21.1542 5.01839C21.3732 4.68688 21.4827 4.52113 21.4731 4.38397C21.4647 4.26445 21.4038 4.15442 21.3061 4.08252C21.1941 4 20.9928 4 20.5902 4H15.0688C14.6696 4 14.47 4 14.2892 4.05447C14.1291 4.10268 13.9805 4.1817 13.8519 4.2869C13.7067 4.40575 13.5976 4.56981 13.3796 4.89791L6.47332 15.2897C6.214 15.6799 6.08434 15.875 6.03372 16.0853C5.98898 16.2712 5.98874 16.4648 6.03302 16.6508C6.08311 16.8613 6.21229 17.0567 6.47065 17.4475L9.14435 21.4921C9.33232 21.7764 9.4263 21.9186 9.54554 21.9678C9.64973 22.0108 9.76718 22.0107 9.87137 21.9677C9.99058 21.9185 10.0845 21.7763 10.2724 21.4919Z" fill="black"/>
<path d="M2.83737 5.00734L6.16067 10.1102C6.34613 10.395 6.43886 10.5374 6.55764 10.5873C6.66143 10.6309 6.77885 10.6318 6.88333 10.5898C7.00289 10.5417 7.09789 10.4007 7.28788 10.1188L10.7271 5.01594C10.9498 4.6856 11.0611 4.52043 11.0521 4.3836C11.0443 4.26438 10.9836 4.15443 10.8859 4.08253C10.7738 4 10.5713 4 10.1664 4H3.40383C3.00533 4 2.80608 4 2.69444 4.08137C2.59713 4.15229 2.53606 4.26089 2.527 4.37913C2.5166 4.51479 2.62352 4.67897 2.83737 5.00734Z" fill="black"/>
</svg>
