<svg xmlns="http://www.w3.org/2000/svg" width="24" height="24" viewBox="0 0 24 24" fill="none"><rect width="24" height="24" fill="none"/>
<path fill-rule="evenodd" clip-rule="evenodd" d="M12.2579 21.116C11.1929 21.116 10.1869 20.9788 9.23984 20.7044C8.57742 20.5125 7.87441 20.4489 7.20739 20.6251L2.00146 22L3.31029 17.2316C3.49817 16.547 3.4005 15.8248 3.14765 15.1607C2.72535 14.0518 2.51432 12.8509 2.51432 11.558C2.51432 9.7409 2.93134 8.10554 3.76539 6.6518C4.62479 5.19816 5.78742 4.0594 7.25337 3.23564C8.74456 2.41188 10.4128 2 12.2579 2C14.103 2 15.7585 2.41188 17.2244 3.23564C18.7156 4.0594 19.8784 5.19816 20.7124 6.6518C21.5718 8.10554 22.0015 9.7409 22.0015 11.558C22.0015 13.3752 21.5718 15.0105 20.7124 16.4642C19.8784 17.9179 18.7156 19.0567 17.2244 19.8803C15.7585 20.7041 14.103 21.116 12.2579 21.116ZM15.8596 15.483C14.8991 16.4763 13.6986 16.973 12.2579 16.973C11.3227 16.973 10.4634 16.7549 9.6798 16.3188C8.89623 15.8585 8.27706 15.2165 7.82206 14.3927C7.36717 13.5689 7.13968 12.6241 7.13968 11.558C7.13968 10.492 7.36717 9.54712 7.82206 8.72336C8.27706 7.8996 8.89623 7.25756 9.6798 6.79724C10.4634 6.33691 11.3227 6.10675 12.2579 6.10675C13.193 6.10675 14.0398 6.33691 14.798 6.79724C15.5816 7.25756 16.2008 7.8996 16.6558 8.72336C17.1107 9.54712 17.3381 10.492 17.3381 11.558C17.3381 13.1571 16.8453 14.4654 15.8596 15.483Z" fill="white"/>
</svg>
