<svg xmlns="http://www.w3.org/2000/svg" width="95" height="24" viewBox="0 0 95 24" fill="none"><rect width="95" height="24" fill="none"/>
<path d="M23.3143 19.3714C22.5143 19.3143 21.6 19.2 20.9143 18.9714C20.7429 18.9714 20.1714 18.7429 20.1143 18.6286C17.6 17.4857 15.8857 14.9143 15.8857 11.9429C15.8857 7.94286 19.2 4.62857 23.2 4.62857C27.2 4.62857 30.4571 7.82857 30.5143 11.8857H33.1429C33.0286 6.4 28.5714 2 23.1429 2C17.6571 2 13.2 6.51429 13.2 11.9429C13.2 15.7143 15.3714 19.0286 18.4 20.6857C18.9714 21.0286 19.7714 21.3143 20 21.4286C20.8571 21.6571 22 21.8286 22.9714 21.8857C23.3143 21.8857 24.4 21.8857 24.8 21.8857H92.6857V19.2571H24.9143C24.5714 19.4286 23.5429 19.4286 23.3143 19.3714ZM24.8 15.2571C24.6286 15.2571 23.6 15.2571 23.4286 15.2571C23.0857 15.2571 22.6286 15.2 22.4 15.0857C22.0571 15.0286 21.7714 14.8571 21.6 14.7429C20.6286 14.1714 19.8857 13.1429 19.8857 12C19.8857 10.2286 21.3143 8.85714 23.0286 8.85714C24.7429 8.85714 26.0571 10.2286 26.1714 11.8857H28.7429C28.6857 8.74286 26.1714 6.28571 23.0286 6.28571C19.8857 6.28571 17.3143 8.85714 17.3143 12C17.3143 14.2286 18.5714 16.1143 20.4571 17.0857C20.8 17.2571 21.2571 17.4286 21.4286 17.4857C22 17.6571 22.6286 17.7143 23.2 17.7143C23.4286 17.7143 24.4 17.7143 24.6286 17.7143H92.5143V15.1429H24.8V15.2571ZM8.85714 22V4.62857H4.97143V2H11.5429V22H8.85714ZM2 6V8.57143H4.91429V22H7.48571V6H2Z" fill="black"/>
<path d="M34.8 9.31429C34.6286 9.14286 34.4571 8.97143 34.4571 8.57143C34.4571 8.17143 34.6286 8 34.8 7.82857C35.0286 7.6 35.2571 7.48571 35.5429 7.48571C35.7714 7.48571 36 7.54286 36.2857 7.82857C36.4571 8 36.5143 8.22857 36.5143 8.57143C36.5143 8.91429 36.4571 9.14286 36.1714 9.31429C35.9429 9.54286 35.7143 9.65714 35.4286 9.65714C35.2571 9.6 35.0286 9.54286 34.8 9.31429ZM34.8 11.8857C34.6286 11.7143 34.4571 11.5429 34.4571 11.1429C34.4571 10.7429 34.6286 10.5714 34.8 10.4C35.0286 10.1714 35.2571 10.0571 35.5429 10.0571C35.7714 10.0571 36 10.1143 36.2857 10.4C36.4571 10.5714 36.5143 10.8 36.5143 11.1429C36.5143 11.4857 36.4571 11.7143 36.1714 11.8857C35.9429 12.1143 35.7143 12.2286 35.4286 12.2286C35.2571 12.1714 35.0286 12.1143 34.8 11.8857Z" fill="black"/>
<path d="M41.7714 5.6V7.02857H39.2571V8.17143H39.8857C40.6857 8.17143 41.4286 8.34286 41.8857 8.8C42.2286 9.14286 42.3429 9.6 42.3429 10.1714C42.3429 10.6286 42.1714 11.2 41.7714 11.5429C41.3143 12 40.5143 12.1143 39.6571 12.1143H37.4286V5.6H41.7714ZM39.8286 10.7429C40 10.7429 40.4 10.7429 40.5714 10.5143C40.6286 10.4571 40.7429 10.2857 40.7429 10.0571C40.7429 9.82857 40.6857 9.65714 40.5714 9.6C40.4 9.37143 40.0571 9.37143 39.8286 9.37143H39.2571V10.7429H39.8286Z" fill="black"/>
<path d="M44.9143 7.77143V10L46.6286 7.77143H48V12.1143H46.4V9.88571L44.6857 12.1143H43.3143V7.77143H44.9143Z" fill="black"/>
<path d="M48.8571 8.11429C49.0857 7.94286 49.2571 7.88571 49.6 7.77143C49.9429 7.65714 50.2286 7.6 50.7429 7.6C51.3714 7.6 51.9429 7.77143 52.2857 8.05714C52.5143 8.28571 52.6286 8.51429 52.6286 8.8C52.6286 9.08571 52.6286 9.25714 52.4 9.42857C52.3429 9.6 52.1714 9.65714 52 9.77143C52.2286 9.77143 52.4571 9.94286 52.5714 10.1143C52.7429 10.2857 52.8 10.4571 52.8 10.7429C52.8 11.0857 52.6286 11.4857 52.4 11.7143C52 12.1143 51.4286 12.1714 50.6857 12.1714C50.2857 12.1714 49.9429 12.1143 49.5429 12C49.2 11.9429 48.9143 11.7714 48.6857 11.6L49.2571 10.5714C49.4286 10.6286 49.6571 10.8 49.8286 10.9143C50 10.9714 50.2857 11.0857 50.4571 11.0857C50.6286 11.0857 50.8 11.0857 50.9143 11.0286C50.9714 10.9714 51.1429 10.8571 51.1429 10.6857C51.1429 10.6286 51.0857 10.5143 50.9714 10.4571C50.9143 10.4 50.5714 10.4 50.5143 10.4H49.9429V9.37143H50.3429C50.5143 9.37143 50.7429 9.37143 50.8 9.31429C50.9714 9.25714 51.0286 9.14286 51.0286 9.08571C51.0286 8.91429 50.9714 8.85714 50.8571 8.85714C50.8571 8.85714 50.6857 8.8 50.4 8.8C50.1714 8.8 50 8.85714 49.8286 8.85714C49.6571 8.91429 49.4857 9.02857 49.3714 9.08571L48.8571 8.11429Z" fill="black"/>
<path d="M53.4857 7.77143H55.0286V9.2H56.4571V7.77143H58V12.1143H56.4571V10.5143H55.0286V12.1143H53.4857V7.77143Z" fill="black"/>
<path d="M63.6 10.1714H60.4C60.4 10.4 60.4571 10.7429 60.6286 10.9143C60.6857 10.9714 60.9714 11.1429 61.2571 11.1429C61.2571 11.1429 61.6 11.1429 61.7143 11.0857C61.7714 11.0286 61.9429 10.9143 61.9429 10.7429H63.3714C63.3143 10.9714 63.1429 11.3143 62.9143 11.6C62.6857 11.9429 62.1143 12.1714 61.1429 12.1714C60.5714 12.1714 59.8857 12 59.3714 11.5429C59.1429 11.3143 58.7429 10.7429 58.7429 9.94286C58.7429 9.2 58.9714 8.68571 59.3714 8.22857C59.7143 7.88571 60.2286 7.6 61.1429 7.6C61.6 7.6 62.2857 7.65714 62.8571 8.17143C63.4857 8.74286 63.6 9.54286 63.6 10V10.1714ZM62.2286 9.31429C62.2286 9.14286 62.0571 8.97143 62 8.85714C61.7714 8.62857 61.5429 8.62857 61.3714 8.62857C61.1429 8.62857 60.9143 8.68571 60.7429 8.85714C60.6857 8.91429 60.5143 9.08571 60.5143 9.31429H62.2286Z" fill="black"/>
<path d="M67.7714 11.9429C67.3714 12.1714 67.0286 12.1714 66.7429 12.1714C65.9429 12.1714 65.3714 11.8286 65.0286 11.5429C64.6286 11.1429 64.4 10.5714 64.4 9.94286C64.4 9.31429 64.6286 8.74286 65.1429 8.22857C65.5429 7.82857 66.1143 7.6 66.9143 7.6C67.1429 7.6 67.5429 7.65714 67.8857 7.82857V9.08571C67.6571 8.91429 67.4286 8.85714 67.0857 8.85714C66.6857 8.85714 66.5143 9.02857 66.3429 9.2C66.1143 9.42857 66 9.65714 66 9.94286C66 10.2286 66.0571 10.4 66.2286 10.6857C66.4 10.8571 66.6286 11.0286 67.0286 11.0286C67.2571 11.0286 67.4857 10.9714 67.8286 10.6857V11.9429H67.7714Z" fill="black"/>
<path d="M73.4286 11.8857C72.8 12.1143 72.4 12.2286 72 12.2286C70.8571 12.2286 70.0571 11.7714 69.4857 11.2571C68.8571 10.6286 68.5143 9.71429 68.5143 8.91429C68.5143 8.05714 68.9143 7.14286 69.4857 6.51429C70.0571 5.94286 70.9143 5.54286 71.8857 5.54286C72.2286 5.54286 72.6857 5.6 73.4286 5.88571V7.88571C72.8571 7.25714 72.2286 7.14286 72 7.14286C71.5429 7.14286 71.1429 7.31429 70.8571 7.54286C70.4571 7.94286 70.2857 8.4 70.2857 8.8C70.2857 9.25714 70.4571 9.77143 70.7429 10.0571C70.9714 10.2857 71.4857 10.5143 71.9429 10.5143C72.1714 10.5143 72.8 10.5143 73.3714 9.88571V11.8857H73.4286Z" fill="black"/>
<path d="M75.0286 8.97143H73.8857V7.71429H77.6571V8.97143H76.5143V12H74.9714L75.0286 8.97143Z" fill="black"/>
<path d="M83.0857 7.77143V12.1143H81.5429V11.6571C81.2 12.1143 80.6857 12.2857 80.1714 12.2857C79.6571 12.2857 79.1429 12.1143 78.6286 11.5429C78.2286 11.0857 78 10.5714 78 9.94286C78 9.14286 78.3429 8.57143 78.6286 8.22857C79.0286 7.82857 79.6 7.6 80.1714 7.6C80.9143 7.6 81.3143 7.94286 81.4286 8.17143V7.77143H83.0857ZM79.8857 9.2C79.6571 9.42857 79.5429 9.65714 79.5429 9.94286C79.5429 10.2286 79.6 10.4 79.8857 10.6857C80.0571 10.8571 80.2857 11.0286 80.6286 11.0286C80.8571 11.0286 81.0857 10.9714 81.3714 10.6857C81.5429 10.5143 81.7143 10.3429 81.7143 9.94286C81.7143 9.71429 81.6571 9.48571 81.3714 9.2C81.2 9.02857 80.9714 8.97143 80.6286 8.97143C80.4 8.91429 80.0571 8.97143 79.8857 9.2Z" fill="black"/>
<path d="M85.6 14.2857H84.1143V7.77143H85.6571V8.22857C85.8857 7.88571 86.4 7.6 86.9143 7.6C87.5429 7.6 88.1143 7.82857 88.4571 8.22857C88.8 8.57143 89.0857 9.2 89.0857 9.94286C89.0857 10.6857 88.8571 11.2 88.3429 11.6571C87.8857 12.1143 87.3143 12.2286 86.9143 12.2286C86.6857 12.2286 86.0571 12.1714 85.5429 11.6571V14.2857H85.6ZM85.9429 9.2C85.7714 9.37143 85.6 9.65714 85.6 9.94286C85.6 10.2286 85.7714 10.4 85.9429 10.6857C86.1143 10.8571 86.3429 11.0286 86.6857 11.0286C86.9143 11.0286 87.1429 10.9714 87.4286 10.6857C87.6 10.5143 87.7714 10.2857 87.7714 9.94286C87.7714 9.71429 87.7143 9.48571 87.4286 9.2C87.2571 9.02857 87.0286 8.85714 86.6857 8.85714C86.3429 8.85714 86.1143 8.97143 85.9429 9.2Z" fill="black"/>
<path d="M90.7429 8.97143H89.6V7.71429H93.3714V8.97143H92.2286V12H90.6857L90.7429 8.97143Z" fill="black"/>
</svg>
