<svg xmlns="http://www.w3.org/2000/svg" width="100" height="24" viewBox="0 0 100 24" fill="none"><rect width="100" height="24" fill="none"/>
<path d="M15.3719 14.9808L3.11061 21.9036C2.60988 22.187 2 21.8111 2 21.2212V7.38106C2 6.79111 2.60982 6.41809 3.11061 6.69856C3.35116 6.83445 3.50225 7.09761 3.50225 7.38106V15.3595C3.50225 15.9494 4.11487 16.3254 4.61566 16.0391L11.7436 11.979C11.9674 11.8518 12.2416 11.8518 12.4653 11.9761L15.3691 13.6129C15.895 13.9137 15.895 14.6887 15.3719 14.9808Z" fill="url(#paint0_linear_2594_134)"/>
<path d="M14.429 7.23668C14.9214 7.53744 14.9214 8.27197 14.429 8.57266L6.05339 13.6998C5.55266 14.0064 4.92041 13.6333 4.92041 13.0319V2.77757C4.92041 2.1761 5.55266 1.80301 6.05339 2.10957L14.429 7.23668Z" fill="url(#paint1_linear_2594_134)"/>
<path d="M24.4274 7.20771H26.1953V8.42224C26.7969 7.51421 27.8123 7.06023 29.2474 7.06023C30.8587 7.06023 31.9162 7.64437 32.4253 8.81555C33.0044 7.64437 34.129 7.06023 35.7991 7.06023C37.0775 7.06023 38.0091 7.40144 38.5993 8.08683C39.1896 8.76931 39.4833 9.85947 39.4833 11.3516V16.9125H37.7154V11.3516C37.7154 10.4581 37.5252 9.80163 37.1531 9.3939C36.781 8.98325 36.1964 8.77504 35.4019 8.77504C34.4899 8.77504 33.8353 9.0353 33.4353 9.55001C33.0381 10.0676 32.8395 10.9005 32.8395 12.0601V16.9125H31.0715V11.3516C31.0715 10.458 30.8813 9.80156 30.5092 9.39383C30.1372 8.98319 29.5525 8.77497 28.7552 8.77497C27.8433 8.77497 27.1886 9.03522 26.7887 9.54994C26.3913 10.0675 26.1927 10.9004 26.1927 12.06V16.9124H24.4248V7.20758L24.4274 7.20771Z" fill="#484E57"/>
<path d="M42.1245 21.5771V7.20768H43.8924V8.56969C44.5527 7.56048 45.7219 7.05729 47.392 7.05729C48.8999 7.05729 49.9908 7.45344 50.6734 8.2429C51.3504 9.03236 51.6889 10.3047 51.6889 12.0572C51.6889 13.8009 51.3504 15.0676 50.6734 15.8657C49.9908 16.661 48.8999 17.06 47.392 17.06C45.7219 17.06 44.5526 16.5539 43.8924 15.5476V21.5742H42.1245V21.5771ZM44.6422 14.5702C45.1177 15.0878 45.8814 15.3424 46.9249 15.3424C47.9739 15.3424 48.7376 15.085 49.2132 14.5702C49.6887 14.0526 49.9237 13.2169 49.9237 12.0573C49.9237 10.915 49.6887 10.0793 49.2132 9.5559C48.7376 9.0325 47.9739 8.77224 46.9249 8.77224C45.8814 8.77224 45.1177 9.0354 44.6422 9.5559C44.1666 10.0793 43.926 10.9122 43.926 12.0573C43.926 13.2169 44.1666 14.0555 44.6422 14.5702Z" fill="#484E57"/>
<path d="M53.3504 13.9629H55.1044C55.2638 14.4863 55.5632 14.8651 56.0052 15.0993C56.4527 15.3365 57.085 15.455 57.899 15.455C59.5047 15.455 60.302 15.056 60.302 14.2607C60.302 13.8992 60.0895 13.6159 59.653 13.4019C59.2222 13.1907 58.5229 13.0086 57.5605 12.8611C56.0751 12.6615 55.0316 12.3348 54.4274 11.8808C53.8203 11.4268 53.5154 10.7587 53.5154 9.87389C53.5154 8.92535 53.8316 8.21981 54.4722 7.75416C55.1099 7.2857 56.1143 7.05436 57.485 7.05436C58.8613 7.05436 59.8936 7.30019 60.5929 7.79178C61.2923 8.28338 61.7231 9.06993 61.8937 10.1544H60.1453C59.9859 9.63096 59.6978 9.25214 59.2782 9.015C58.8585 8.78076 58.2459 8.66219 57.4542 8.66219C55.9743 8.66219 55.233 9.04102 55.233 9.79866C55.233 10.1486 55.4456 10.4262 55.8653 10.6286C56.2849 10.8339 56.9507 11.0132 57.8683 11.1607C59.418 11.4094 60.5007 11.7449 61.1049 12.1671C61.7175 12.5894 62.0169 13.2371 62.0169 14.1075C62.0169 16.074 60.6294 17.0571 57.8515 17.0571C56.464 17.0571 55.4121 16.8085 54.6904 16.3082C53.9659 15.8195 53.5182 15.0329 53.3504 13.9629Z" fill="#484E57"/>
<path d="M66.5878 7.20766H69.4217V8.92248H66.5878V13.477C66.5878 14.0757 66.7304 14.5094 67.0074 14.7841C67.2899 15.0588 67.7487 15.1947 68.3726 15.1947H69.5308V16.9095H68.3419C67.0969 16.9095 66.2017 16.6551 65.6506 16.1461C65.0939 15.6343 64.8197 14.813 64.8197 13.6823V8.92241H63.2644V7.20759H64.8197V5.07925H66.5877L66.5878 7.20766Z" fill="#484E57"/>
<path d="M74.5663 17.0629C73.3158 17.0629 72.3983 16.8315 71.8192 16.3718C71.2401 15.912 70.9575 15.1717 70.9575 14.1509C70.9575 13.0925 71.2793 12.3378 71.9227 11.8837C72.5604 11.4298 73.604 11.2013 75.0334 11.2013H78.2281C78.2281 10.3193 78.0155 9.67438 77.5791 9.27243C77.1483 8.8647 76.4545 8.66518 75.5034 8.66518C74.7453 8.66518 74.1606 8.79244 73.7522 9.04689C73.3437 9.30425 73.064 9.7091 72.9213 10.2701H71.1673C71.3379 9.15387 71.7688 8.33839 72.4681 7.82658C73.1675 7.31477 74.2054 7.06314 75.5761 7.06314C77.1147 7.06314 78.2392 7.38992 78.9442 8.04342C79.6491 8.69699 79.9989 9.73801 79.9989 11.1694V16.9183H78.2309V15.6691C77.5203 16.5973 76.2978 17.0629 74.5663 17.0629ZM72.7256 14.0757C72.7256 14.5615 72.9046 14.9114 73.2767 15.1283C73.6431 15.348 74.211 15.4551 74.9803 15.4551C76.0014 15.4551 76.7707 15.2642 77.2855 14.8767C77.7946 14.4892 78.1107 13.8762 78.231 13.0289V12.5835H75.4895C73.6432 12.5835 72.7256 13.0809 72.7256 14.0757Z" fill="#484E57"/>
<path d="M85.1152 7.20766H87.9491V8.92248H85.1152V13.477C85.1152 14.0757 85.2579 14.5094 85.5348 14.7841C85.8174 15.0588 86.2762 15.1947 86.9 15.1947H88.0582V16.9095H86.8692C85.6244 16.9095 84.7292 16.6551 84.1781 16.1461C83.6214 15.6343 83.3472 14.813 83.3472 13.6823V8.92241H81.7918V7.20759H83.3472V5.07925H85.1152V7.20766Z" fill="#484E57"/>
<path d="M89.3342 13.9629H91.0882C91.2476 14.4863 91.547 14.8651 91.989 15.0993C92.4365 15.3365 93.0688 15.455 93.8828 15.455C95.4886 15.455 96.2858 15.056 96.2858 14.2607C96.2858 13.8992 96.0733 13.6159 95.6368 13.4019C95.206 13.1907 94.5067 13.0086 93.5443 12.8611C92.0589 12.6615 91.0154 12.3348 90.4112 11.8808C89.8041 11.4268 89.4992 10.7587 89.4992 9.87389C89.4992 8.92535 89.8154 8.21981 90.456 7.75416C91.0937 7.2857 92.0981 7.05436 93.4688 7.05436C94.8451 7.05436 95.8774 7.30019 96.5767 7.79178C97.2761 8.28338 97.7069 9.06993 97.8775 10.1544H96.1291C95.9697 9.63096 95.6816 9.25214 95.262 9.015C94.8424 8.78076 94.2297 8.66219 93.438 8.66219C91.9581 8.66219 91.2168 9.04102 91.2168 9.79866C91.2168 10.1486 91.4294 10.4262 91.8491 10.6286C92.2687 10.8339 92.9345 11.0132 93.8521 11.1607C95.4018 11.4094 96.4845 11.7449 97.0887 12.1671C97.7013 12.5894 98.0007 13.2371 98.0007 14.1075C98.0007 16.074 96.6132 17.0571 93.8353 17.0571C92.4478 17.0571 91.3959 16.8085 90.6742 16.3082C89.9525 15.8195 89.5048 15.0329 89.3342 13.9629Z" fill="#484E57"/>
<defs>
<linearGradient id="paint0_linear_2594_134" x1="2" y1="11.5834" x2="100.811" y2="11.5834" gradientUnits="userSpaceOnUse">
<stop stop-color="#81DC1E"/>
<stop offset="1" stop-color="#14D152"/>
</linearGradient>
<linearGradient id="paint1_linear_2594_134" x1="2" y1="11.5834" x2="100.811" y2="11.5834" gradientUnits="userSpaceOnUse">
<stop stop-color="#81DC1E"/>
<stop offset="1" stop-color="#14D152"/>
</linearGradient>
</defs>
</svg>
