<svg xmlns="http://www.w3.org/2000/svg" width="24" height="24" viewBox="0 0 24 24" fill="none"><rect width="24" height="24" fill="none"/>
<path d="M3 5.78486L5.69 10.5478V13.4514L3.00433 18.2047L3 5.78486Z" fill="#DADADA"/>
<path d="M13.3253 8.81415L15.8444 7.28418L21 7.28042L13.3253 11.9397V8.81415Z" fill="#EDEDED"/>
<path d="M13.3112 5.75744L13.3253 12.0617L10.6299 10.4215V0.996094L13.3112 5.75744Z" fill="#DADADA"/>
<path d="M21 7.28042L15.8444 7.28418L13.3112 5.75744L10.6299 0.996094L21 7.28042Z" fill="white"/>
<path d="M13.3253 18.2315V15.1721L10.6304 13.5626V22.9961L13.3253 18.2315Z" fill="#DADADA"/>
<path d="M15.8384 16.715L5.69 10.5478L3 5.78486L20.9897 16.7091L15.8384 16.715Z" fill="white"/>
<path d="M10.6304 22.9961L13.3253 18.2315L15.8384 16.715L20.9897 16.7091L10.6304 22.9961Z" fill="#EDEDED"/>
<path d="M3.00433 18.2047L10.6509 13.5626L8.07986 11.9999L5.69 13.4514L3.00433 18.2047Z" fill="#EDEDED"/>
</svg>
