<svg xmlns="http://www.w3.org/2000/svg" width="24" height="24" viewBox="0 0 24 24" fill="none"><rect width="24" height="24" fill="none"/>
<path fill-rule="evenodd" clip-rule="evenodd" d="M9.75375 2.74227C10.1524 2.43751 10.6101 2.21918 11.0978 2.10122C11.5855 1.98325 12.0924 1.96821 12.5863 2.05709C13.0801 2.14597 13.55 2.33678 13.966 2.61739C14.382 2.89799 14.7349 3.26221 15.0021 3.68682C15.3325 4.2136 15.5286 4.81321 15.5738 5.43331C15.619 6.05339 15.5116 6.67512 15.2613 7.24418C15.0278 7.74241 14.6992 8.19011 14.2938 8.562L11.9476 10.9463C11.0792 10.0779 10.2184 9.19425 9.35763 8.31824C8.98999 7.93969 8.70644 7.48776 8.52552 6.99204C8.3446 6.49631 8.2704 5.96797 8.3078 5.4416C8.34519 4.91522 8.49333 4.40268 8.74251 3.93751C8.99167 3.47234 9.33627 3.06504 9.75375 2.74227Z" fill="#000000"/>
<path fill-rule="evenodd" clip-rule="evenodd" d="M9.38062 15.669L11.9401 13.0562C12.8618 13.9931 13.7988 14.9149 14.6977 15.8747C15.2701 16.5534 15.5841 17.4128 15.5841 18.3008C15.5841 19.1887 15.2701 20.0482 14.6977 20.727C14.1551 21.3642 13.4085 21.7938 12.5848 21.9425C11.7612 22.0911 10.9115 21.9496 10.1804 21.542C9.6561 21.2455 9.21204 20.8254 8.88681 20.3184C8.56157 19.8112 8.36501 19.2324 8.31417 18.6322C8.26682 18.0906 8.33765 17.5451 8.52178 17.0334C8.70591 16.5218 8.99893 16.0562 9.38062 15.669Z" fill="#000000"/>
<path fill-rule="evenodd" clip-rule="evenodd" d="M2.70881 9.92576C3.03249 9.43721 3.46977 9.03438 3.98318 8.7518C4.49661 8.46923 5.07085 8.31531 5.65677 8.30324C6.14382 8.29163 6.62811 8.37956 7.07999 8.56163C7.53189 8.74368 7.94185 9.01604 8.28482 9.36205L10.89 12.0053C9.96065 12.9423 9.05417 13.8945 8.1096 14.8086C7.43843 15.395 6.57442 15.7131 5.6832 15.7019C4.79199 15.6905 3.93629 15.3509 3.28013 14.7475C2.63873 14.136 2.23076 13.3197 2.12647 12.4395C2.02218 11.5594 2.22812 10.6704 2.70881 9.92576Z" fill="#000000"/>
<path fill-rule="evenodd" clip-rule="evenodd" d="M15.597 9.34645C15.9998 8.9484 16.4902 8.65042 17.029 8.47646C17.5679 8.3025 18.1399 8.25743 18.6995 8.34485C19.2588 8.4323 19.79 8.64979 20.25 8.97986C20.7101 9.30994 21.0862 9.74336 21.3483 10.2453C21.7659 11.0412 21.885 11.9604 21.6838 12.8364C21.4826 13.7125 20.9745 14.4876 20.2514 15.0215C19.5747 15.5098 18.7501 15.7491 17.9173 15.6993C17.0843 15.6493 16.2942 15.313 15.6809 14.7472C14.7667 13.8483 13.8831 12.919 12.9766 12.0126C13.8527 11.1137 14.721 10.2301 15.597 9.34645Z" fill="#000000"/>
</svg>
