<svg xmlns="http://www.w3.org/2000/svg" width="24" height="24" viewBox="0 0 24 24" fill="none"><rect width="24" height="24" fill="none"/>
<path d="M14.2247 17.4746C15.1211 18.3709 16.5709 18.3709 17.4669 17.4746C18.3625 16.5779 18.3625 15.1268 17.4669 14.2316C16.5709 13.3365 15.1211 13.3365 14.2247 14.2316C13.3329 15.1268 13.3329 16.5779 14.2247 17.4746Z" fill="#ED1651"/>
<path d="M18.0784 13.6253C18.9735 14.5245 20.4296 14.5245 21.3278 13.6253C22.2229 12.7269 22.2229 11.2713 21.3278 10.3736C20.4296 9.47749 18.9735 9.47749 18.0784 10.3736C17.1779 11.2713 17.1779 12.7269 18.0784 13.6253Z" fill="#ED1651"/>
<path d="M10.3684 13.6201C11.2667 14.5172 12.715 14.5172 13.6148 13.6201C14.5082 12.7239 14.5082 11.2719 13.6148 10.3764C12.715 9.48248 11.2667 9.48248 10.3684 10.3764C9.47922 11.2719 9.47922 12.7239 10.3684 13.6201Z" fill="#ED1651"/>
<path d="M6.52547 9.7685C5.6306 8.87261 5.6306 7.42064 6.52547 6.52514C7.4226 5.62775 8.87431 5.62775 9.76952 6.52514C10.6625 7.42064 10.6625 8.87261 9.76952 9.7685C8.87431 10.6629 7.4226 10.6629 6.52547 9.7685Z" fill="#ED1651"/>
<path d="M14.2247 9.7685C15.1211 10.6629 16.5709 10.6629 17.4669 9.7685C18.3625 8.87261 18.3625 7.42064 17.4669 6.52514C16.5709 5.62775 15.1211 5.62775 14.2247 6.52514C13.3329 7.42064 13.3329 8.87261 14.2247 9.7685Z" fill="#ED1651"/>
<path d="M13.6148 2.67134C14.5082 3.56684 14.5082 5.01919 13.6148 5.91318C12.715 6.80981 11.2667 6.80981 10.3684 5.91318C9.47922 5.01919 9.47922 3.56684 10.3684 2.67134C11.2667 1.77622 12.715 1.77622 13.6148 2.67134Z" fill="#A6CE39"/>
<path d="M13.6106 18.0836C14.5082 18.9795 14.5082 20.4311 13.6106 21.3277C12.715 22.2243 11.2667 22.2243 10.3684 21.3277C9.47922 20.4311 9.47922 18.9795 10.3684 18.0836C11.2667 17.1892 12.715 17.1892 13.6106 18.0836Z" fill="#ED1651"/>
<path d="M6.52547 17.4746C7.4226 18.3709 8.87431 18.3709 9.76952 17.4746C10.6625 16.5806 10.6625 15.1268 9.76952 14.2316C8.87431 13.3365 7.4226 13.3365 6.52547 14.2316C5.6306 15.1268 5.6306 16.5806 6.52547 17.4746Z" fill="#ED1651"/>
<path d="M2.67314 13.6201C3.56876 14.5172 5.01819 14.5172 5.91532 13.6201C6.80944 12.7239 6.80944 11.2738 5.91532 10.3764C5.01819 9.48248 3.56876 9.48248 2.67314 10.3764C1.77562 11.2738 1.77562 12.7239 2.67314 13.6201Z" fill="#ED1651"/>
</svg>
