<svg xmlns="http://www.w3.org/2000/svg" width="16" height="16" viewBox="0 0 16 16" fill="none"><rect width="16" height="16" fill="none"/>
<g clip-path="url(#clip0_10859_83)">
<path d="M14.8034 3.69991C12.41 -0.000122452 7.52348 -1.10013 3.73392 1.19989C0.0440918 3.4999 -1.15261 8.49994 1.24079 12.2L1.44024 12.5L0 16L3.6342 14.7L3.93337 14.9C5.2298 15.6 6.62595 16 8.02211 16C9.51799 16 11.0139 15.6 12.3103 14.8C16.0001 12.4 17.0971 7.49993 14.8034 3.69991ZM12.7092 11.4C12.3103 12 11.8117 12.4 11.1136 12.5C10.7147 12.5 10.2161 12.7 8.22156 11.9C6.52623 11.1 5.13008 9.79995 4.13282 8.29994C3.53447 7.59994 3.2353 6.69993 3.13557 5.79992C3.13557 4.99992 3.43475 4.29991 3.93337 3.79991C4.13282 3.59991 4.33227 3.4999 4.53173 3.4999H5.03035C5.2298 3.4999 5.42925 3.4999 5.52898 3.89991C5.72843 4.39991 6.22705 5.59992 6.22705 5.69992C6.32678 5.79992 6.32678 5.99992 6.22705 6.09993C6.32678 6.29993 6.22705 6.49993 6.12733 6.59993C6.0276 6.69993 5.92788 6.89993 5.82815 6.99993C5.6287 7.09993 5.52898 7.29993 5.6287 7.49994C6.0276 8.09994 6.52623 8.69994 7.02486 9.19995C7.62321 9.69995 8.22156 10.1 8.91963 10.4C9.11908 10.5 9.31853 10.5 9.41826 10.3C9.51798 10.1 10.0166 9.59995 10.2161 9.39995C10.4155 9.19995 10.5152 9.19995 10.7147 9.29995L12.3103 10.1C12.5097 10.2 12.7092 10.3 12.8089 10.4C12.9086 10.7 12.9086 11.1 12.7092 11.4Z" fill="#000000"/>
</g>
<defs>
<clipPath id="clip0_10859_83">
<rect width="16" height="16" fill="white"/>
</clipPath>
</defs>
</svg>
