<svg xmlns="http://www.w3.org/2000/svg" width="117" height="24" viewBox="0 0 117 24" fill="none"><rect width="117" height="24" fill="none"/>
<path d="M4.15597 21.9995L16.3493 2L31.2888 21.9973L2 10.4975L25.2635 16.7576L16.347 8.31719L4.15358 21.9973L4.15597 21.9995Z" fill="white" fill-opacity="0.6"/>
<path d="M4.15588 21.999L16.3492 5.82599V2.00189L4.15588 21.999Z" fill="white"/>
<path d="M16.3492 5.82427V8.31736L25.2657 16.7578L16.3492 5.82654V5.82427Z" fill="white"/>
<path d="M2 10.498L27.1553 18.7422L31.2888 22" fill="white"/>
<path d="M48.0016 9.1722C48.9059 8.24529 50.2885 7.90283 51.5473 8.29551C52.1137 8.44619 52.604 8.79322 52.9228 9.2681C53.0061 9.38681 53.0489 9.39138 53.1584 9.29093C53.7628 8.69277 54.5576 8.30237 55.4191 8.18137C56.309 8.03069 57.2252 8.22703 57.9629 8.72473C58.7149 9.26581 59.1385 10.1288 59.098 11.0283C59.1219 12.7223 59.1051 17.1012 59.1051 17.1012H58.1057C58.1057 17.1012 57.5299 17.083 57.2443 17.1012H57.0158C57.0158 17.1012 57.0182 15.9871 57.0182 15.5624V11.8571C57.0278 11.5237 56.9706 11.1927 56.8492 10.8822C56.6874 10.4621 56.3114 10.1539 55.8521 10.0626C54.9099 9.78177 53.9104 10.2886 53.6177 11.1927C53.551 11.4005 53.5249 11.6174 53.5439 11.8342C53.5463 13.3022 53.5439 17.1012 53.5439 17.1012H52.128C52.128 17.1012 52.0423 17.1035 51.4546 17.1012C51.4546 17.1012 51.4451 15.4049 51.4451 14.8844V11.921C51.4617 11.5466 51.3951 11.1721 51.2452 10.8251C51.0691 10.4347 50.7073 10.1516 50.2743 10.0649C49.9601 9.98269 49.6293 9.97812 49.3105 10.0489C48.6656 10.2178 48.1753 10.727 48.0517 11.3571C48.0136 11.5146 47.9969 11.6767 48.004 11.8388C48.0065 13.252 48.0136 17.1012 48.0136 17.1012H45.8386C45.8386 17.1012 45.8456 11.7589 45.841 9.21101C45.841 8.95304 45.948 8.70646 46.1432 8.52838C46.324 8.33662 46.5835 8.23159 46.8523 8.24072C47.1831 8.25442 47.5163 8.24985 47.8469 8.24072C47.9732 8.23844 48.0089 8.27498 48.0065 8.39369C47.9969 8.64711 48.0016 8.89824 48.0016 9.1722Z" fill="white"/>
<path d="M115.006 12.9455C115.006 14.2514 115.01 16.8632 115.01 16.8632C115.01 16.8632 114.96 17.0915 114.777 17.0801C114.477 17.0596 114.175 17.0664 113.873 17.055C113.44 17.0276 113.073 16.7377 112.959 16.3381C112.916 16.2057 112.885 16.1669 112.769 16.2856C112.052 16.9819 111.032 17.3084 110.023 17.16C109.378 17.1212 108.764 16.8838 108.269 16.4843C107.674 15.9706 107.338 15.2377 107.345 14.4706C107.281 13.0117 107.331 11.5483 107.319 10.0871C107.317 9.69219 107.31 8.20136 107.31 8.20136H109.413V13.3839C109.404 13.6807 109.435 13.9775 109.501 14.2651C109.597 14.7742 110.02 15.1715 110.553 15.2514C110.955 15.3473 111.379 15.329 111.772 15.1989C112.388 14.9957 112.819 14.4615 112.871 13.8359C112.907 13.4136 112.916 12.9889 112.897 12.5665C112.897 11.4159 112.878 8.19908 112.878 8.19908C112.878 8.19908 113.216 8.23105 113.711 8.19908C113.747 8.19679 113.783 8.19908 113.818 8.19908C113.928 8.2082 114.04 8.20592 114.149 8.19908C114.613 8.18766 115.013 8.19908 115.013 8.19908C115.013 9.50497 115.013 11.6396 115.013 12.9455H115.003H115.006Z" fill="white"/>
<path d="M69.0302 12.9251C69.0302 14.2378 69.0255 15.5505 69.035 16.8633C69.035 17.0459 68.9803 17.0893 68.8017 17.0779C68.5019 17.0574 68.1997 17.0642 67.8975 17.0528C67.4643 17.0254 67.098 16.7377 66.9837 16.3359C66.9409 16.2012 66.9099 16.1647 66.7933 16.2834C66.077 16.9797 65.0562 17.3062 64.0471 17.1578C63.3952 17.1167 62.7741 16.8747 62.2791 16.4683C61.6937 15.9569 61.3629 15.2286 61.37 14.4707C61.3058 13.0324 61.3439 8.20371 61.3439 8.20371H63.4404V13.4068C63.4285 13.7173 63.4641 14.0278 63.545 14.3291C63.6569 14.804 64.0591 15.167 64.5588 15.2492C65.0039 15.3588 65.475 15.3291 65.901 15.1624C66.465 14.9364 66.8505 14.425 66.898 13.8406C66.9338 13.4182 66.9409 12.9935 66.9243 12.5712C66.9243 11.4068 66.9147 8.20371 66.9147 8.20371H67.7333C67.7333 8.20371 67.7929 8.20371 67.8237 8.20371H69.0278V14.8314C69.0278 14.8314 69.0278 11.6214 69.0278 12.9273L69.0302 12.9251Z" fill="white"/>
<path d="M87.4538 16.9278C87.9156 16.1493 88.6603 15.0443 89.1434 14.2749C89.1768 14.2224 89.1958 14.1562 89.2814 14.122C89.7859 14.9051 90.2951 15.6881 90.7925 16.4781C90.9448 16.784 91.2447 16.9986 91.5944 17.0466C92.2917 17.1082 92.9913 17.0717 93.7338 17.0762C93.66 16.9758 93.6148 16.9119 93.5671 16.8502C92.5463 15.4758 91.5231 14.106 90.4927 12.7385C90.3999 12.6471 90.3999 12.5033 90.4927 12.412C91.4755 11.0901 92.4535 9.76593 93.4315 8.44177C93.4745 8.38468 93.5458 8.33445 93.541 8.24086L91.0305 8.32304C90.6212 9.04905 89.824 10.1723 89.3886 10.8823C89.3505 10.944 89.31 11.0056 89.2552 11.0878C88.8127 10.3801 88.3676 9.70657 87.9632 9.01253C87.7538 8.5308 87.261 8.22031 86.7186 8.22716C86.1427 8.23172 85.5644 8.24998 84.9529 8.24086C85.0218 8.33674 85.0671 8.39839 85.1124 8.46003C86.0855 9.77049 87.0541 11.0832 88.0345 12.3892C88.1321 12.485 88.1296 12.638 88.0297 12.7316C87.0018 14.1083 85.9761 15.4872 84.9529 16.8685C84.9101 16.9278 84.841 16.9781 84.8387 17.0762L87.4562 16.9301L87.4538 16.9278Z" fill="white"/>
<path d="M73.49 2.34812C73.4829 4.04214 73.4853 7.72241 73.4853 9.41644H73.4924V14.4117C73.4972 15.0533 73.747 15.3021 74.4228 15.277C74.875 15.2268 75.3104 15.4505 75.5198 15.8386C75.7221 16.2861 75.5056 16.8067 75.0392 17.0007C74.9559 17.035 74.8655 17.0578 74.7751 17.0669C74.2016 17.1194 73.6258 17.092 73.0594 16.9893C72.1503 16.8546 71.465 16.1263 71.4126 15.245C71.3888 15.0419 71.377 14.8364 71.377 14.6332C71.377 11.4803 71.377 8.32514 71.377 5.17225L73.4877 2.34812H73.49Z" fill="white"/>
<path d="M102.25 9.2676C102.336 9.28129 102.35 9.23106 102.374 9.19911C103.06 8.30872 104.009 8.22425 104.966 8.22425C105.922 8.22425 106.696 8.49136 106.696 8.49136L104.966 10.0644C104.966 10.0644 104.373 9.86803 103.519 10.0667C102.836 10.2196 102.338 10.7835 102.298 11.457C102.255 11.9707 102.277 12.4867 102.277 13.0027C102.277 14.0688 102.281 15.1327 102.284 16.1989C102.222 16.6555 101.836 17.0094 101.358 17.0505C101.049 17.0642 100.739 17.0573 100.432 17.0779C100.237 17.0893 100.173 17.0437 100.173 16.8405C100.178 14.3154 100.175 11.7881 100.168 9.26303C100.118 8.79729 100.442 8.37036 100.92 8.26991C101.225 8.22425 101.534 8.20827 101.844 8.22425C102.246 8.22882 102.248 8.22425 102.248 8.61007C102.248 8.83153 102.248 9.05071 102.248 9.26987L102.25 9.2676Z" fill="white"/>
<path d="M97.7246 15.7863C97.7341 15.9415 97.7341 16.0968 97.7199 16.2498C97.6366 16.6813 97.2652 17.0077 96.8108 17.0511C96.5704 17.0762 96.3277 17.0762 96.0873 17.0511C95.5686 16.9895 95.1806 16.5671 95.1806 16.0671V15.4964C95.176 14.9576 95.628 14.5169 96.1897 14.5124H96.1992C96.3539 14.5124 96.5085 14.5124 96.6632 14.5124C97.2225 14.4827 97.7008 14.8936 97.7317 15.4301C97.7317 15.4712 97.7317 15.5123 97.7317 15.5534V15.7863H97.7246Z" fill="white"/>
<path d="M43.7941 10.8911C43.8227 9.71535 43.0089 8.67428 41.8263 8.37063C41.2741 8.21539 40.7007 8.14005 40.1248 8.1469C39.0588 8.08754 37.7499 8.57383 37.3905 8.73821C37.0312 8.90258 36.2674 9.35691 36.2674 9.35691L37.9545 10.414C37.9545 10.414 37.9926 10.3934 38.0116 10.382C38.7661 9.96421 39.6513 9.82265 40.5055 9.98704C41.3313 10.1126 41.6787 10.5213 41.6811 11.3135C41.6787 11.4231 41.6763 11.5098 41.6834 11.6514C41.6834 11.8135 41.6311 11.8454 41.474 11.8454C40.6269 11.8386 39.7774 11.8158 38.9303 11.85C37.0597 11.9253 35.9437 13.1582 36.0555 14.7449C36.0699 15.6147 36.5886 16.4024 37.4001 16.7905C37.9569 17.0576 38.5733 17.1855 39.1944 17.1649C40.1104 17.1512 40.9885 17.0074 41.6811 16.254C41.6811 16.5074 41.6882 16.7038 41.6787 16.8978C41.6716 17.0325 41.7096 17.0873 41.8595 17.0782C42.176 17.0622 42.4926 17.0622 42.8066 17.0553C43.3302 17.0348 43.7538 16.6444 43.7941 16.1444C43.8037 16.0188 43.7966 15.891 43.7966 15.7631C43.7966 14.1422 43.8061 12.5166 43.7941 10.8934V10.8911ZM41.6763 13.9824C41.731 14.5805 41.3289 15.1284 40.7244 15.2791C39.9535 15.5485 39.104 15.5189 38.3566 15.2015C37.9735 15.0737 37.726 14.7152 37.7499 14.3248C37.7785 13.9367 38.0639 13.6125 38.4566 13.5166C38.7588 13.4207 39.073 13.3728 39.3918 13.3774C39.7155 13.3682 40.0415 13.3728 40.3652 13.3705C40.7483 13.3705 41.1314 13.3705 41.5145 13.3614C41.6382 13.3591 41.6858 13.3911 41.6787 13.5143C41.6692 13.6696 41.6787 13.8248 41.6787 13.9801L41.6763 13.9824Z" fill="white"/>
<path d="M82.8518 13.2452C83.3873 13.2224 83.8156 12.8068 83.8322 12.2932C83.8156 11.9964 83.8012 11.6996 83.7585 11.4073C83.4824 9.52154 82.2307 8.31837 80.2556 8.14487C78.5565 7.99419 76.9622 8.66083 76.2412 10.4302C75.6272 11.9119 75.6319 13.5625 76.2554 15.0397C76.6385 16.0693 77.5571 16.8296 78.6732 17.0465C79.5084 17.2314 80.3794 17.2245 81.2123 17.0259C81.9189 16.8752 82.5781 16.567 83.1398 16.1264C83.5324 15.7931 83.5872 15.2269 83.2635 14.8296C82.9233 14.5054 82.3997 14.4415 81.9856 14.6744C81.8285 14.7657 81.681 14.8776 81.5192 14.9529C80.8649 15.325 80.0867 15.4369 79.3466 15.2702C78.5018 14.978 77.9569 14.1881 78.0092 13.3274C78.0282 13.1904 78.1235 13.2406 78.1878 13.2406C78.9706 13.2361 79.7512 13.2383 80.5316 13.2383C81.3027 13.2429 82.0784 13.2338 82.8518 13.2452ZM79.9106 11.8023H78.2091C78.1353 11.8023 78.0497 11.8366 78.0497 11.6996C78.0996 10.9347 78.6232 10.2727 79.3799 10.0192C80.3841 9.74985 81.4264 10.3115 81.7073 11.2726C81.7452 11.4005 81.7667 11.5306 81.7738 11.663C81.7833 11.7818 81.7452 11.8023 81.6335 11.8023C81.0576 11.7955 80.484 11.7977 79.9106 11.7977V11.8023Z" fill="white"/>
</svg>
