<svg xmlns="http://www.w3.org/2000/svg" width="131" height="24" viewBox="0 0 131 24" fill="none"><rect width="131" height="24" fill="none"/>
<path d="M11.9586 21.9996C17.4578 21.9996 21.9158 17.5224 21.9158 11.9998C21.9158 6.47705 17.4578 2 11.9586 2C6.45928 2 2.00124 6.47705 2.00124 11.9998C2.00124 17.5224 6.45928 21.9996 11.9586 21.9996Z" fill="#000000"/>
<path d="M16.2441 19.4482C12.8625 21.4079 9.19517 21.759 6.85262 20.5852C9.85178 22.3799 13.7026 22.5351 16.9394 20.6589C20.176 18.7808 21.9682 15.3544 21.9199 11.8485C21.7616 14.4735 19.6237 17.4887 16.2441 19.4482Z" fill="#000000"/>
<path d="M13.2214 2.73098C13.9069 3.92226 12.25 6.17289 9.51929 7.75414C6.78855 9.33734 4.02112 9.65359 3.33555 8.46038C3.30657 8.40411 3.27954 8.34203 3.26022 8.278C3.08256 7.7231 3.29499 7.00522 3.80677 6.24855C3.8898 6.1302 3.97478 6.01379 4.06169 5.89932C4.83417 4.88847 5.81329 4.01152 6.97974 3.33632C8.14619 2.6592 9.39183 2.24788 10.649 2.08102C10.7958 2.05968 10.9387 2.04416 11.0778 2.03446C11.9854 1.96655 12.7097 2.14117 13.0998 2.57189C13.1461 2.62427 13.1867 2.67666 13.2214 2.73098Z" fill="#000000"/>
<path d="M17.4547 4.02179C18.6521 6.10361 16.2362 9.75311 12.0609 12.1745C7.88558 14.5959 3.52877 14.8713 2.33335 12.7895C2.13443 12.4422 2.02822 12.0561 2.00697 11.6409C1.95483 13.0398 2.1943 14.462 2.75242 15.8123C2.83546 16.0141 2.92623 16.2139 3.02279 16.4119C3.02665 16.4196 3.03245 16.4293 3.03631 16.4371C3.39744 17.0637 3.93045 17.5566 4.5948 17.9135C6.93735 19.1728 10.8983 18.7401 14.6023 16.5923C18.3044 14.4445 20.6586 11.218 20.7455 8.55213C20.7706 7.79933 20.6142 7.09117 20.2569 6.46449C20.1217 6.26076 19.9808 6.06093 19.8321 5.87079C18.9533 4.72995 17.8603 3.82194 16.6455 3.17392C16.9836 3.39705 17.2577 3.67837 17.4547 4.02179C17.4547 4.02179 17.4567 4.02373 17.4567 4.02566L17.4547 4.02179Z" fill="#000000"/>
<path d="M11.9791 21.9996C17.4898 21.9996 21.9571 17.5224 21.9571 11.9998C21.9571 6.47705 17.4898 2 11.9791 2C6.46851 2 2.00124 6.47705 2.00124 11.9998C2.00124 17.5224 6.46851 21.9996 11.9791 21.9996Z" fill="#000000"/>
<path fill-rule="evenodd" clip-rule="evenodd" d="M27.8287 21.9999V2H28.8287V21.9999H27.8287Z" fill="#000000"/>
<path d="M49.0644 19.1843H35.9858V21.8236H49.0644V19.1843Z" fill="#000000"/>
<path d="M44.9705 4.22826C44.5712 3.15302 44.1718 2.27328 42.6743 2.27328C41.1768 2.27328 40.6776 3.15302 40.2783 4.22826L36.2848 15.5672H38.9804L39.8789 12.9279H45.0704L45.9689 15.5672H48.8642L44.9705 4.22826ZM40.6776 10.5819L42.4746 5.20574H42.5745L44.2717 10.5819H40.6776Z" fill="#000000"/>
<path d="M60.0047 16.1174C59.1841 16.1174 58.4426 15.9404 57.7799 15.5865C57.125 15.2328 56.6093 14.7471 56.2328 14.1298C55.8639 13.5048 55.6795 12.8046 55.6795 12.0292C55.6795 11.2537 55.8639 10.5573 56.2328 9.93991C56.6093 9.31502 57.125 8.82564 57.7799 8.47179C58.4426 8.11793 59.1841 7.94101 60.0047 7.94101C60.8254 7.94101 61.5632 8.11793 62.2182 8.47179C62.8733 8.82564 63.3889 9.31502 63.7654 9.93991C64.1418 10.5573 64.33 11.2537 64.33 12.0292C64.33 12.8046 64.1418 13.5048 63.7654 14.1298C63.3889 14.7471 62.8733 15.2328 62.2182 15.5865C61.5632 15.9404 60.8254 16.1174 60.0047 16.1174ZM60.0047 14.5589C60.4715 14.5589 60.8931 14.4535 61.2696 14.2426C61.646 14.0244 61.9396 13.7232 62.1505 13.3392C62.3688 12.9552 62.4779 12.5185 62.4779 12.0292C62.4779 11.5398 62.3688 11.1031 62.1505 10.7191C61.9396 10.3352 61.646 10.0378 61.2696 9.82698C60.8931 9.60864 60.4715 9.49947 60.0047 9.49947C59.538 9.49947 59.1164 9.60864 58.74 9.82698C58.3635 10.0378 58.0661 10.3352 57.8478 10.7191C57.637 11.1031 57.5316 11.5398 57.5316 12.0292C57.5316 12.5185 57.637 12.9552 57.8478 13.3392C58.0661 13.7232 58.3635 14.0244 58.74 14.2426C59.1164 14.4535 59.538 14.5589 60.0047 14.5589ZM69.4092 9.81568C70.1621 9.81568 70.7682 10.0415 71.2275 10.4933C71.6942 10.945 71.9277 11.6151 71.9277 12.5035V15.9819H70.1658V12.7745C70.1658 12.2927 70.0605 11.9351 69.8497 11.7017C69.6389 11.4607 69.3339 11.3403 68.9349 11.3403C68.4908 11.3403 68.1369 11.4796 67.8734 11.7581C67.6098 12.0292 67.478 12.4357 67.478 12.9778V15.9819H65.7163V9.90604H67.399V10.6175C67.6325 10.3615 67.9223 10.1658 68.2686 10.0303C68.6149 9.88721 68.9952 9.81568 69.4092 9.81568ZM79.6778 12.9665C79.6778 12.9891 79.6666 13.1472 79.6439 13.4408H75.0476C75.1304 13.8172 75.3261 14.1146 75.6348 14.333C75.9435 14.5513 76.3275 14.6605 76.7867 14.6605C77.1029 14.6605 77.3815 14.6154 77.6225 14.525C77.8708 14.4272 78.1005 14.2765 78.3113 14.0733L79.2486 15.0897C78.6764 15.7446 77.8408 16.0721 76.7416 16.0721C76.0564 16.0721 75.4504 15.9404 74.9233 15.6769C74.3963 15.4059 73.9898 15.0332 73.7037 14.5589C73.4175 14.0845 73.2746 13.5462 73.2746 12.9439C73.2746 12.3491 73.4137 11.8146 73.6924 11.3403C73.9784 10.8584 74.3662 10.4858 74.8556 10.2222C75.3524 9.95121 75.9059 9.81568 76.5157 9.81568C77.1105 9.81568 77.6488 9.94368 78.1306 10.1997C78.6125 10.4556 78.9889 10.8245 79.26 11.3064C79.5385 11.7807 79.6778 12.3341 79.6778 12.9665ZM76.5269 11.1483C76.1279 11.1483 75.7929 11.2612 75.5219 11.4871C75.2508 11.7129 75.0852 12.0216 75.0249 12.4131H78.0177C77.9574 12.0292 77.7918 11.7242 77.5207 11.4984C77.2498 11.265 76.9185 11.1483 76.5269 11.1483ZM84.4894 8.07652H90.8701V9.53335H86.3076V11.1596H88.4986C89.4547 11.1596 90.1812 11.3591 90.6781 11.7581C91.1826 12.1572 91.4347 12.7331 91.4347 13.4861C91.4347 14.2765 91.1563 14.8901 90.599 15.3268C90.0419 15.7635 89.2551 15.9819 88.2388 15.9819H84.4894V8.07652ZM88.1371 14.6266C88.604 14.6266 88.9615 14.5362 89.21 14.3556C89.4585 14.1673 89.5827 13.8963 89.5827 13.5424C89.5827 12.8498 89.1008 12.5035 88.1371 12.5035H86.3076V14.6266H88.1371ZM92.827 9.90604H94.5775V13.5198L97.5363 9.90604H99.1513V15.9819H97.4008V12.368L94.4533 15.9819H92.827V9.90604ZM104.866 12.8197C105.228 12.9326 105.507 13.1058 105.702 13.3392C105.906 13.5725 106.007 13.8512 106.007 14.1749C106.007 14.5589 105.876 14.8977 105.612 15.1913C105.348 15.4773 104.987 15.6995 104.528 15.8576C104.068 16.0157 103.549 16.0947 102.969 16.0947C102.495 16.0947 102.028 16.0458 101.569 15.948C101.11 15.8501 100.684 15.7033 100.293 15.5075L100.767 14.2765C101.407 14.5853 102.115 14.7396 102.89 14.7396C103.304 14.7396 103.628 14.6793 103.861 14.5589C104.102 14.4308 104.223 14.2539 104.223 14.028C104.223 13.8324 104.14 13.6855 103.974 13.5877C103.809 13.4823 103.568 13.4295 103.252 13.4295H102.009V12.3341H103.094C103.402 12.3341 103.639 12.2851 103.805 12.1873C103.971 12.0894 104.053 11.9464 104.053 11.7581C104.053 11.5624 103.948 11.4118 103.737 11.3064C103.534 11.201 103.24 11.1483 102.856 11.1483C102.269 11.1483 101.629 11.2876 100.936 11.5661L100.507 10.3465C101.351 9.97756 102.171 9.7931 102.969 9.7931C103.519 9.7931 104.008 9.86085 104.437 9.99638C104.874 10.1319 105.217 10.3314 105.465 10.5949C105.714 10.8509 105.838 11.1521 105.838 11.4984C105.838 11.7845 105.751 12.0442 105.578 12.2776C105.405 12.5035 105.168 12.6842 104.866 12.8197ZM107.425 9.90604H109.175V12.2776H111.817V9.90604H113.579V15.9819H111.817V13.7119H109.175V15.9819H107.425V9.90604ZM121.307 12.9665C121.307 12.9891 121.296 13.1472 121.274 13.4408H116.678C116.76 13.8172 116.956 14.1146 117.264 14.333C117.573 14.5513 117.957 14.6605 118.417 14.6605C118.733 14.6605 119.011 14.6154 119.252 14.525C119.5 14.4272 119.731 14.2765 119.941 14.0733L120.879 15.0897C120.306 15.7446 119.471 16.0721 118.371 16.0721C117.686 16.0721 117.08 15.9404 116.553 15.6769C116.026 15.4059 115.619 15.0332 115.333 14.5589C115.047 14.0845 114.904 13.5462 114.904 12.9439C114.904 12.3491 115.043 11.8146 115.322 11.3403C115.608 10.8584 115.996 10.4858 116.485 10.2222C116.982 9.95121 117.536 9.81568 118.145 9.81568C118.74 9.81568 119.278 9.94368 119.76 10.1997C120.242 10.4556 120.618 10.8245 120.89 11.3064C121.168 11.7807 121.307 12.3341 121.307 12.9665ZM118.157 11.1483C117.758 11.1483 117.422 11.2612 117.152 11.4871C116.88 11.7129 116.714 12.0216 116.655 12.4131H119.647C119.587 12.0292 119.421 11.7242 119.15 11.4984C118.879 11.265 118.548 11.1483 118.157 11.1483ZM125.684 16.0721C125.037 16.0721 124.454 15.9404 123.934 15.6769C123.422 15.4059 123.02 15.0332 122.725 14.5589C122.44 14.0845 122.297 13.5462 122.297 12.9439C122.297 12.3416 122.44 11.8033 122.725 11.329C123.02 10.8547 123.422 10.4858 123.934 10.2222C124.454 9.95121 125.037 9.81568 125.684 9.81568C126.325 9.81568 126.882 9.95121 127.356 10.2222C127.838 10.4858 128.187 10.866 128.406 11.3629L127.04 12.0969C126.723 11.5398 126.267 11.2612 125.673 11.2612C125.214 11.2612 124.833 11.4118 124.533 11.7129C124.232 12.0141 124.08 12.4244 124.08 12.9439C124.08 13.4634 124.232 13.8737 124.533 14.1749C124.833 14.4761 125.214 14.6266 125.673 14.6266C126.275 14.6266 126.731 14.348 127.04 13.7909L128.406 14.5362C128.187 15.0182 127.838 15.3945 127.356 15.6656C126.882 15.9366 126.325 16.0721 125.684 16.0721Z" fill="#000000"/>
<defs>
<radialGradient id="paint0_radial_2611_102" cx="0" cy="0" r="1" gradientUnits="userSpaceOnUse" gradientTransform="translate(65.2102 11.999) scale(63.1978 10.0034)">
<stop offset="0.494792" stop-color="white" stop-opacity="0"/>
<stop offset="1" stop-color="white" stop-opacity="0.33"/>
</radialGradient>
</defs>
</svg>
