<svg xmlns="http://www.w3.org/2000/svg" width="24" height="24" viewBox="0 0 24 24" fill="none"><rect width="24" height="24" fill="none"/>
<path d="M2 8.05842C2.00405 6.45288 2.64215 4.91425 3.77484 3.77895C4.90752 2.64366 6.44266 2.00406 8.0445 2H22V5.07535H8.0445C7.25689 5.0794 6.50266 5.39515 5.94619 5.95385C5.38973 6.51255 5.07607 7.26901 5.07338 8.05842V13.225C5.0097 13.8865 4.72927 14.5082 4.27598 14.9931C3.82268 15.4781 3.22207 15.799 2.56768 15.9057L2.02048 15.9877L2 8.05842Z" fill="#E30613"/>
<path d="M2 22V18.9247H15.9555C16.7422 18.9206 17.4956 18.6056 18.0519 18.048C18.6083 17.4904 18.9226 16.7352 18.9266 15.9467V11.0415C18.9299 10.3304 19.1852 9.64361 19.647 9.10378C20.1088 8.5639 20.747 8.20615 21.4477 8.09432L21.9949 8.01228V15.9467C21.9922 17.5522 21.3543 19.0911 20.2212 20.2259C19.088 21.3606 17.5522 21.9987 15.9504 22H2Z" fill="#E30613"/>
<path d="M13.8179 16.0031V12.0205L11.9974 14.1988L10.1769 12.0205V16.0031H7.76828V8.17117H10.0541L11.9974 10.6878L13.9457 8.17117H16.2265V16.0031H13.8179Z" fill="#E30613"/>
</svg>
