<svg xmlns="http://www.w3.org/2000/svg" width="24" height="24" viewBox="0 0 24 24" fill="none"><rect width="24" height="24" fill="none"/>
<path d="M22.5249 5.91334C22.297 5.80025 22.1988 6.01554 22.0662 6.125C22.0203 6.16052 21.9823 6.20619 21.9436 6.24823C21.611 6.60777 21.2218 6.84408 20.7136 6.81581C19.9709 6.77377 19.3366 7.00936 18.776 7.58419C18.657 6.87598 18.2614 6.45265 17.6585 6.18154C17.3431 6.04019 17.0242 5.89956 16.8034 5.59294C16.6493 5.37475 16.607 5.13119 16.5303 4.89125C16.4815 4.747 16.4321 4.5984 16.2672 4.57375C16.0887 4.54548 16.0185 4.69698 15.9482 4.82384C15.668 5.34213 15.559 5.91334 15.5698 6.49107C15.5941 7.7915 16.1375 8.82809 17.2163 9.56457C17.3388 9.64938 17.3704 9.73346 17.3317 9.85742C17.2578 10.1111 17.1704 10.3576 17.0937 10.612C17.0449 10.7744 16.9711 10.8092 16.7991 10.7389C16.207 10.4888 15.6952 10.1184 15.2436 9.67112C14.4766 8.92015 13.7828 8.09233 12.9168 7.44356C12.714 7.29206 12.5104 7.15071 12.3004 7.01733C11.4173 6.15037 12.4158 5.43854 12.6473 5.35373C12.8889 5.26529 12.7312 4.96229 11.9499 4.96591C11.1686 4.96954 10.4539 5.23412 9.54284 5.58641C9.40951 5.63933 9.26974 5.67775 9.12566 5.70964C8.29918 5.55017 7.44044 5.51538 6.54372 5.61758C4.85492 5.8075 3.50589 6.61502 2.51455 7.99302C1.32321 9.64938 1.04294 11.5319 1.38629 13.4949C1.74684 15.5637 2.79123 17.2766 4.39616 18.6162C6.06059 20.005 7.97733 20.685 10.1636 20.5545C11.4918 20.4769 12.9699 20.2972 14.6379 18.8699C15.0587 19.0815 15.4995 19.1656 16.2321 19.2294C16.7962 19.2823 17.3395 19.2011 17.7596 19.1134C18.4183 18.9721 18.3725 18.3559 18.1345 18.2429C16.4794 17.6572 16.2421 17.4042 16.2421 17.4042C17.2234 16.2306 18.7015 15.0106 19.2799 11.06C19.3258 10.7461 19.2871 10.549 19.2799 10.2952C19.2764 10.1401 19.3115 10.08 19.4864 10.0626C19.9702 10.006 20.4397 9.87192 20.8705 9.63271C22.1214 8.94189 22.626 7.80673 22.745 6.44612C22.7629 6.23736 22.7421 6.02279 22.5249 5.91334ZM11.6244 18.158C9.75358 16.6706 8.8461 16.1806 8.47121 16.2016C8.12069 16.2226 8.18377 16.6278 8.26119 16.8924C8.34147 17.1534 8.44684 17.3331 8.59379 17.5622C8.69557 17.7137 8.76582 17.9391 8.492 18.1088C7.88916 18.4857 6.84191 17.9819 6.79245 17.9573C5.57316 17.2309 4.55386 16.2726 3.83562 14.9613C3.14175 13.6993 2.73891 12.3459 2.67224 10.9005C2.65504 10.5519 2.75611 10.4279 3.09946 10.3648C3.55176 10.28 4.01769 10.2626 4.46928 10.3293C6.37885 10.6113 8.00457 11.4746 9.36722 12.8425C10.145 13.6217 10.7335 14.5518 11.3399 15.4615C11.9843 16.427 12.6782 17.3469 13.5613 18.1015C13.8731 18.3661 14.1218 18.5669 14.3598 18.7148C13.6423 18.7959 12.4445 18.8141 11.6244 18.158ZM12.5212 12.3249C12.5212 12.1698 12.6437 12.0466 12.7979 12.0466C12.833 12.0466 12.8645 12.0538 12.8925 12.064C12.9312 12.0785 12.9663 12.0995 12.9943 12.1306C13.043 12.1799 13.0717 12.2503 13.0717 12.3242C13.0717 12.4793 12.9491 12.6025 12.795 12.6025C12.6409 12.6033 12.5212 12.48 12.5212 12.3249ZM15.3067 13.7703C15.1282 13.8443 14.949 13.9081 14.7777 13.9146C14.5117 13.9284 14.2207 13.8196 14.063 13.6855C13.8179 13.4775 13.6423 13.3615 13.5691 12.9983C13.5376 12.8432 13.5548 12.6033 13.5835 12.4663C13.6466 12.1705 13.5763 11.9799 13.3699 11.8074C13.2014 11.666 12.9878 11.6276 12.7534 11.6276C12.666 11.6276 12.585 11.5884 12.5255 11.5573C12.4273 11.508 12.347 11.3847 12.4237 11.2332C12.4481 11.184 12.567 11.0643 12.5957 11.0426C12.9147 10.8592 13.2824 10.9194 13.6222 11.0564C13.9376 11.1869 14.1756 11.4268 14.5189 11.7646C14.8694 12.1734 14.9325 12.2865 15.1318 12.5931C15.2895 12.8331 15.4328 13.0795 15.531 13.3615C15.5905 13.5376 15.5138 13.6819 15.3067 13.7703Z" fill="#000000"/>
</svg>
