<svg xmlns="http://www.w3.org/2000/svg" width="61" height="24" viewBox="0 0 61 24" fill="none"><rect width="61" height="24" fill="none"/>
<path d="M10.6367 22C7.01174 22 3.73873 19.9515 2.12789 16.787C1.8088 16.1604 2.1099 15.3974 2.77456 15.1682C3.31485 14.982 3.91442 15.218 4.17266 15.7276C5.39243 18.1364 7.88066 19.6975 10.6372 19.6975C12.973 19.6975 15.1157 18.5767 16.4577 16.769C16.8911 16.1858 17.4907 15.2577 17.4907 13.7659L19.555 15.9297C19.555 15.9297 19.4465 16.2398 19.2375 16.633C19.0285 17.0262 18.9411 17.1738 18.8136 17.385C17.1107 20.2071 14.0277 22 10.6367 22Z" fill="#64B441"/>
<path d="M15.2009 11.9148C15.1136 10.7543 14.5987 9.82981 13.7123 9.24189C12.9709 8.74975 11.9734 8.49997 10.7467 8.49997H10.6091V8.49574H9.40842V6.6092H13.2715C13.8499 6.6092 14.3224 6.17103 14.3224 5.61063C14.3224 5.04969 13.8446 4.58189 13.2715 4.58189H8.35798C7.77747 4.58189 7.30702 5.05234 7.30702 5.63285V9.48267C7.30702 10.0632 7.77747 10.5336 8.35798 10.5336H10.7901C12.4179 10.5336 12.937 11.2803 12.937 12.0503C12.937 12.8081 12.5274 14.0252 10.8187 14.0252C9.40577 14.0252 8.56225 13.069 8.38815 12.9128C7.86584 12.444 7.33825 12.4768 6.98898 12.7853C6.54341 13.179 6.59792 13.7315 6.86727 14.14C7.18796 14.6263 8.43789 16.1345 10.8192 16.1345C12.1718 16.1345 13.3667 15.6493 14.1832 14.7692C14.9072 13.9871 15.2787 12.9467 15.2009 11.9148Z" fill="#575756"/>
<path d="M38.8305 13.2976C37.6838 13.2415 36.5905 12.7721 36.0984 12.326C35.5528 11.8312 35.4496 11.1713 35.8745 10.8009C36.4318 10.3151 36.9964 10.7601 37.2372 10.9083C38.4866 11.683 39.483 11.6238 39.9567 11.2496C40.2329 11.0321 40.3467 10.7607 40.3096 10.5368C40.2414 10.1288 39.7619 9.98381 39.1666 9.81976C38.7173 9.69646 37.5097 9.34243 36.9377 9.01275C36.1164 8.53913 35.5522 7.74906 35.7438 6.64942C35.9465 5.48733 36.9493 4.61258 38.258 4.49087C39.917 4.33635 40.7277 4.73694 41.2029 4.99307C41.8834 5.36032 42.0109 6.10806 41.6543 6.53299C41.4897 6.72879 41.0103 6.91348 40.5292 6.70128C38.8888 5.97682 38.0521 6.17474 37.8389 6.60126C37.6129 7.05265 38.0214 7.48711 38.5453 7.6882C38.5771 7.70038 38.8914 7.82685 39.3338 7.97079C39.7164 8.09568 40.1906 8.22427 40.7097 8.41742C41.6654 8.77303 42.4692 9.52871 42.3486 10.794C42.2845 11.4655 41.8876 12.2064 41.2944 12.6445C40.8563 12.9689 39.9905 13.3542 38.8305 13.2976Z" fill="#575756"/>
<path d="M48.694 11.2734C48.4517 11.184 48.0971 11.221 47.8854 11.2591C47.6023 11.3094 47.1573 11.3618 46.7964 11.2591C46.1661 11.0803 45.9317 10.7199 45.9317 10.1664V6.46155H47.4272C47.996 6.46155 48.458 6.02022 48.458 5.47674C48.458 4.93274 47.996 4.49193 47.4272 4.49193H45.9317V3.07742C45.9317 2.48262 45.4496 2.00053 44.8548 2.00053C44.26 2.00053 43.7784 2.48262 43.7784 3.07742V4.49193H43.2905C42.7211 4.49193 42.2597 4.93274 42.2597 5.47674C42.2597 6.02074 42.7211 6.46155 43.2905 6.46155H43.7784V10.1664C43.7784 11.9074 45.1665 13.324 46.9355 13.324C48.7046 13.324 49.1735 12.689 49.1735 12.0947C49.174 11.6666 49.0306 11.3983 48.694 11.2734Z" fill="#575756"/>
<path d="M31.0013 11.3126C29.7757 11.3126 28.7787 10.4421 28.7787 8.89422C28.7787 7.34688 29.7757 6.46632 31.0007 6.46632L31.0013 6.46579V6.46632C32.2263 6.46632 33.2233 7.34688 33.2233 8.89422C33.2238 10.4421 32.2269 11.3126 31.0013 11.3126ZM31.0013 4.49193C28.6289 4.49193 26.699 6.46685 26.699 8.89475C26.699 11.3226 28.6289 13.2976 31.0007 13.2976L31.0013 13.297V13.2976C33.3731 13.2976 35.303 11.3226 35.303 8.89475C35.303 6.46685 33.3731 4.49193 31.0013 4.49193Z" fill="#575756"/>
<path d="M21.8538 11.3126C20.4753 11.3126 19.5211 10.3489 19.5211 8.89422C19.5211 7.30296 20.6859 6.46632 21.8538 6.46632C23.0788 6.46632 24.0758 7.61306 24.0758 8.89422C24.0764 10.1759 23.0794 11.3126 21.8538 11.3126ZM21.9887 4.49193C21.1452 4.49193 20.0932 4.9809 19.5587 5.73657C19.528 5.00736 19.138 4.51839 18.567 4.51839C17.9722 4.51839 17.4901 5.00048 17.4901 5.59528V15.5C17.4901 16.0948 17.9722 16.5769 18.567 16.5769C19.1618 16.5769 19.6439 16.0948 19.6439 15.5V12.2492C20.0519 12.7816 21.0674 13.3007 22.0787 13.3007C24.4505 13.3007 26.1555 11.3226 26.1555 8.89422C26.1555 6.46685 24.4357 4.49193 21.9887 4.49193Z" fill="#575756"/>
<path d="M56.5826 7.4723L55.9724 6.45785L55.3744 7.4723H54.659L55.5787 5.94401L54.6415 4.52527H55.3887L55.9894 5.47251L56.5614 4.52527H57.2774L56.3556 5.99058L57.3023 7.4723H56.5826Z" fill="black"/>
<path d="M59.6291 6.47002C59.6291 7.11827 59.1407 7.52257 58.5009 7.52257C57.9368 7.52257 57.4621 7.21088 57.4155 6.53299H58.0257C58.068 6.82775 58.3035 6.9537 58.5607 6.9537C58.8808 6.9537 59.0189 6.73938 59.0189 6.46155C59.0189 6.17103 58.8041 5.99005 58.5051 5.99005C58.2564 5.99005 58.0923 6.10806 58.0167 6.23453H57.4335L57.6351 4.52527H59.554L59.4899 5.09785H58.1172L58.0627 5.66302C58.0627 5.66302 58.2066 5.49315 58.6437 5.49315C59.1703 5.49368 59.6291 5.84717 59.6291 6.47002Z" fill="black"/>
<path d="M57.4875 4.15801C57.1626 2.89062 56.1307 2 53.9901 2H51.405L51.7559 4.37286C52.0199 6.51394 52.8386 7.20241 54.2875 7.45589C54.2944 7.45695 54.3399 7.46383 54.3409 7.40932C54.3415 7.39027 54.3288 7.37334 54.3124 7.36646C53.3329 6.95423 53.2212 5.60216 53.0116 4.2448L52.8497 3.16315H54.3251C55.6856 3.16315 56.736 3.14145 57.4012 4.19188C57.4113 4.2067 57.4266 4.21728 57.4446 4.21728C57.4706 4.21728 57.4896 4.19665 57.4896 4.17072C57.4896 4.16648 57.4885 4.16225 57.4875 4.15801Z" fill="#5FAF2D"/>
</svg>
