<svg xmlns="http://www.w3.org/2000/svg" width="24" height="24" viewBox="0 0 24 24" fill="none"><rect width="24" height="24" fill="none"/>
<path d="M20.6 8.91119C19.6889 8.06675 18.5556 7.64453 17.2001 7.64453C16.089 7.64453 15.1112 7.93342 14.2667 8.53341C13.4223 9.13341 12.8668 9.91118 12.6001 10.889H11.0668V7.77786H11.0445L8.42234 13.7778V16.5334H11.0668V13.2H12.5334C12.7556 14.2667 13.3112 15.1111 14.1556 15.7334C15.0223 16.3778 16.0223 16.6889 17.2001 16.6889C18.5556 16.6889 19.6889 16.2667 20.6223 15.4223C21.5334 14.5778 22 13.4889 22 12.1778C21.9778 10.8445 21.5111 9.75563 20.6 8.91119ZM18.7112 13.7334C18.3334 14.1556 17.8223 14.3556 17.2001 14.3556C16.5778 14.3556 16.0667 14.1556 15.689 13.7334C15.3112 13.3112 15.1112 12.8 15.1112 12.1778C15.1112 11.5556 15.3112 11.0445 15.689 10.6223C16.0667 10.2001 16.5778 10.0001 17.2001 10.0001C17.8223 10.0001 18.3334 10.2001 18.7112 10.6223C19.0889 11.0445 19.2889 11.5556 19.2889 12.1778C19.2889 12.7778 19.0889 13.3112 18.7112 13.7334Z" fill="#000000"/>
<path d="M5.57775 11.4663C5.33331 11.4663 5.13331 11.3996 4.95553 11.2885C4.79998 11.1774 4.71109 10.9996 4.71109 10.7774C4.71109 10.5551 4.79998 10.3996 4.95553 10.2663C5.11109 10.1552 5.33331 10.0885 5.57775 10.0885H8.82217L9.82217 7.77739H5.15553C4.17776 7.77739 3.39999 8.06628 2.84444 8.64405C2.28889 9.22183 2.02222 9.93293 2.02222 10.7774C2.02222 11.4663 2.17778 12.0218 2.48889 12.444C2.79999 12.8885 3.17777 13.1996 3.59999 13.4218L2 16.5329H5.0222L6.22219 13.7773H7.19996L8.22218 11.4663H5.57775Z" fill="#000000"/>
</svg>
