<svg xmlns="http://www.w3.org/2000/svg" width="24" height="24" viewBox="0 0 24 24" fill="none"><rect width="24" height="24" fill="none"/>
<path d="M13.183 10.2578C12.8762 10.2578 12.6253 10.5068 12.6253 10.8098C12.6253 11.1127 12.8762 11.3618 13.183 11.3618C13.4897 11.3618 13.7407 11.1127 13.7407 10.8098C13.7407 10.5068 13.4897 10.2578 13.183 10.2578Z" fill="#B32442"/>
<path d="M13.183 12.6328C12.8762 12.6328 12.6253 12.8818 12.6253 13.1848C12.6253 13.4919 12.8802 13.7368 13.183 13.7368C13.4857 13.7368 13.7407 13.4877 13.7407 13.1848C13.7407 12.8818 13.4897 12.6328 13.183 12.6328Z" fill="#B32442"/>
<path d="M16.1016 11.7436C16.1016 10.8177 15.755 9.6469 15.4403 9.0241C15.022 8.1979 14.6675 7.6789 14.0381 7.05615C13.4565 6.47905 12.9625 6.11785 12.2255 5.74C12.1658 5.71095 12.11 5.6819 12.0542 5.6528C11.4367 5.3456 10.2536 4.9844 9.34932 4.9844H8.81947C8.63227 4.9844 8.37332 5.24595 8.37332 5.4286V18.5858C8.37332 18.7768 8.64422 19.03 8.85932 19.03H9.28557C10.2656 19.03 11.4208 18.6771 12.0821 18.3491L12.2255 18.2744C13.0023 17.8717 13.4923 17.498 14.0978 16.8918C15.1854 15.8082 16.1016 14.135 16.1016 11.9761V11.7436ZM15.022 12.2708C15.022 13.8444 14.1058 15.3889 13.3091 16.1819C12.9824 16.5057 12.6279 16.7922 12.2295 17.0455C12.0502 17.1576 11.859 17.2655 11.6678 17.361C11.1858 17.6018 10.15 17.9506 9.43697 17.9506V6.0597C10.162 6.0597 11.13 6.40015 11.6399 6.6368C11.8391 6.7323 12.0383 6.8444 12.2335 6.9648C12.6199 7.2139 12.9864 7.50455 13.2772 7.7952C13.7194 8.2394 14.1576 8.82485 14.4444 9.42685C14.6874 9.9334 15.026 10.9132 15.026 11.6356V12.2667L15.022 12.2708Z" fill="#B32442"/>
<path d="M6.78012 6.1426C6.52117 6.1426 6.25027 6.3668 6.25027 6.58685V17.4231C6.25027 17.6141 6.52117 17.8674 6.73627 17.8674H6.82392C7.05897 17.8674 7.30992 17.6183 7.30992 17.3816V6.62835C7.30992 6.36265 7.05497 6.1426 6.78012 6.1426Z" fill="#B32442"/>
<path d="M2.53012 9.82129C2.27117 9.82129 2.00027 9.99565 2.00027 10.1576V13.8486C2.00027 13.9939 2.27117 14.1849 2.48627 14.1849H2.57392C2.80897 14.1849 3.05992 13.9939 3.05992 13.8153V10.1949C3.05992 9.99565 2.80497 9.82545 2.53012 9.82545V9.82129Z" fill="#B32442"/>
<path d="M4.65707 7.8115C4.41007 7.8115 4.12722 8.0357 4.12722 8.25575V15.7083C4.12722 15.9533 4.38617 16.1941 4.61322 16.1941H4.67697C4.94787 16.1941 5.18687 15.9533 5.18687 15.6668V8.3388C5.18687 8.0399 4.94787 7.8115 4.65707 7.8115Z" fill="#B32442"/>
<path d="M21.5713 2.9543L21.5553 2.9335C21.4996 2.88785 21.4478 2.838 21.388 2.7965C21.3322 2.755 21.2765 2.71345 21.2167 2.68025C21.153 2.6429 21.0932 2.6055 21.0335 2.5723C20.9817 2.54325 20.9259 2.5142 20.8662 2.4851H20.8502L20.8343 2.47265C20.5554 2.3315 20.2487 2.22355 19.93 2.14465C19.6073 2.06165 19.2727 2.0201 18.9381 2.0035C18.6074 1.99105 18.2728 2.0118 17.9501 2.0658C17.6394 2.11975 17.3327 2.20695 17.0498 2.32735C16.8785 2.4021 16.7072 2.48925 16.5479 2.5889C16.3925 2.68855 16.2451 2.80065 16.1137 2.9169C15.9862 3.0373 15.8627 3.16185 15.7591 3.30305C15.6555 3.44005 15.5639 3.5812 15.4882 3.73065C15.4165 3.87185 15.3647 4.013 15.3209 4.15415C15.2293 4.47385 15.1576 5.0302 15.2891 5.53255C15.5918 6.68265 16.52 7.3594 17.6593 7.48395C18.468 7.57115 19.3165 7.38845 19.9539 6.93175C20.0097 6.89025 20.0654 6.84455 20.1172 6.79475C20.165 6.74905 20.2128 6.70755 20.2527 6.6577L20.2686 6.64525C20.3164 6.5913 20.3483 6.5373 20.3722 6.48335C20.4041 6.42105 20.416 6.35465 20.42 6.2965C20.42 6.2301 20.408 6.1595 20.3881 6.10555C20.3642 6.04325 20.3244 5.9851 20.2845 5.93945C20.2328 5.8855 20.173 5.8481 20.1013 5.8232C20.0296 5.7983 19.9539 5.79415 19.8702 5.7983C19.7946 5.8066 19.7109 5.82735 19.6352 5.86055C19.5635 5.88965 19.4918 5.9353 19.4281 5.9851L19.4121 5.9976L19.3245 6.064L19.2886 6.09305L19.2448 6.12215C18.6473 6.50825 17.7111 6.58715 17.0936 6.19685C16.9781 6.12215 16.8745 6.0391 16.7829 5.93945C16.6873 5.8398 16.6076 5.73185 16.5399 5.6156C16.4722 5.49935 16.4204 5.37065 16.3846 5.24195C16.3487 5.1174 16.3248 4.98455 16.3248 4.8558C16.3248 4.7188 16.3407 4.5818 16.3806 4.4448C16.4164 4.3161 16.4722 4.18735 16.5519 4.06695C16.5917 4.00885 16.6355 3.94655 16.6873 3.88845C16.7391 3.8303 16.7909 3.7722 16.8546 3.7182C16.9144 3.6601 16.9821 3.61025 17.0419 3.5646C17.1096 3.51895 17.1853 3.47325 17.257 3.43175H17.2649C17.4601 3.3321 17.6753 3.24905 17.8944 3.1951C18.1254 3.13695 18.3644 3.10375 18.6074 3.09545C18.8584 3.083 19.1134 3.1079 19.3564 3.14525C19.6033 3.1868 19.8384 3.2532 20.0654 3.3404C20.1053 3.357 20.1451 3.3736 20.1889 3.3902C20.2248 3.40685 20.2646 3.42345 20.3085 3.4442L20.3602 3.4691L18.7548 4.1583L18.7389 4.1666L18.723 4.1749L17.5478 4.68145L17.5159 4.6939C17.4123 4.73955 17.3327 4.81015 17.2729 4.88075C17.1972 4.97205 17.1614 5.07585 17.1494 5.1838C17.1494 5.2212 17.1494 5.25855 17.1494 5.2959C17.1494 5.32085 17.1614 5.34575 17.1693 5.3748L17.1853 5.40385C17.2012 5.4371 17.2171 5.47445 17.245 5.50765C17.2689 5.5367 17.3008 5.5658 17.3287 5.5907V5.60315C17.4123 5.6613 17.5159 5.6945 17.6434 5.6945C17.7589 5.6945 17.8944 5.6696 18.0457 5.60315L18.7628 5.2959L18.7947 5.28345L18.8305 5.26685L21.4637 4.1334C21.8103 3.98395 22.1489 3.7348 21.89 3.31965C21.8023 3.17015 21.6629 3.0456 21.5553 2.9501L21.5713 2.9543Z" fill="#B32442"/>
<path d="M21.4848 19.8687L18.8516 18.7352L18.8158 18.7186L18.7839 18.7062L18.0669 18.3989C17.9155 18.3367 17.78 18.3034 17.6645 18.3076C17.541 18.3076 17.4335 18.3408 17.3538 18.3989L17.3379 18.4114C17.306 18.4363 17.2741 18.4654 17.2542 18.4944C17.2303 18.5235 17.2104 18.5609 17.1944 18.5982L17.1785 18.6273C17.1666 18.6522 17.1626 18.6771 17.1586 18.7062C17.1506 18.7435 17.1506 18.7809 17.1586 18.8183C17.1705 18.9262 17.2064 19.03 17.2821 19.1255C17.3418 19.2002 17.4215 19.2667 17.5251 19.3123L17.557 19.3248L18.7282 19.8313L18.7441 19.8396L18.76 19.8479L20.3654 20.5371L20.3136 20.5621C20.2738 20.5828 20.234 20.5994 20.1941 20.616C20.1543 20.6326 20.1145 20.6492 20.0706 20.6658C19.8476 20.753 19.6085 20.8195 19.3616 20.861C19.1185 20.9025 18.8636 20.9233 18.6126 20.9108C18.3696 20.9025 18.1306 20.8693 17.8996 20.8112C17.6804 20.7572 17.4693 20.6742 17.2701 20.5745H17.2542C17.1785 20.5288 17.1068 20.4873 17.0391 20.4375C16.9753 20.3918 16.9116 20.3379 16.8518 20.2839C16.7881 20.2299 16.7363 20.1759 16.6845 20.1137C16.6327 20.0555 16.5889 19.9974 16.5491 19.9351C16.4734 19.8147 16.4176 19.686 16.3778 19.5573C16.3419 19.4203 16.318 19.2833 16.322 19.1463C16.322 19.0134 16.3419 18.8847 16.3818 18.7602C16.4176 18.6314 16.4694 18.5027 16.5371 18.3865C16.6049 18.2702 16.6845 18.1623 16.7801 18.0626C16.8718 17.963 16.9753 17.88 17.0909 17.8052C17.7083 17.415 18.6445 17.4938 19.242 17.88L19.2859 17.909L19.3217 17.9339L19.3655 17.9713L19.4094 18.0045L19.4253 18.017C19.489 18.0668 19.5607 18.1125 19.6324 18.1415C19.7081 18.1747 19.7918 18.1997 19.8675 18.2038C19.9471 18.2121 20.0268 18.2038 20.0985 18.1789C20.1702 18.154 20.23 18.1208 20.2818 18.0626C20.3256 18.017 20.3614 17.963 20.3853 17.8966C20.4053 17.8384 20.4172 17.772 20.4172 17.7056C20.4172 17.6475 20.4013 17.581 20.3694 17.5187C20.3455 17.4648 20.3097 17.4108 20.2658 17.3568L20.2499 17.3444C20.2101 17.2987 20.1623 17.253 20.1145 17.2074C20.0627 17.1617 20.0069 17.1119 19.9511 17.0703C19.3177 16.6136 18.4652 16.431 17.6565 16.5182C16.5172 16.6427 15.589 17.3153 15.2863 18.4695C15.1548 18.9719 15.2225 19.5282 15.3181 19.8479C15.358 19.9891 15.4138 20.1303 15.4855 20.2714C15.5611 20.425 15.6528 20.5662 15.7563 20.6991C15.8599 20.8402 15.9834 20.9606 16.1149 21.081C16.2503 21.1973 16.3937 21.3094 16.5491 21.409C16.7084 21.5087 16.8758 21.5959 17.051 21.6706C17.3339 21.791 17.6406 21.8823 17.9513 21.9322C18.274 21.9903 18.6086 22.011 18.9393 21.9944C19.2739 21.982 19.6085 21.9363 19.9312 21.8533C20.2499 21.7744 20.5527 21.6664 20.8355 21.5253L20.8514 21.517H20.8634C20.9231 21.4879 20.9789 21.4589 21.0307 21.4298C21.0905 21.3966 21.1542 21.3592 21.2139 21.3218C21.2737 21.2845 21.3335 21.243 21.3852 21.2056C21.445 21.1641 21.4968 21.1184 21.5526 21.0686L21.5685 21.052C21.6761 20.9482 21.8155 20.8278 21.9071 20.6742C22.17 20.2631 21.8314 20.014 21.4848 19.8645V19.8687Z" fill="#B32442"/>
</svg>
