<svg xmlns="http://www.w3.org/2000/svg" width="24" height="24" viewBox="0 0 24 24" fill="none"><rect width="24" height="24" fill="none"/>
<path d="M13.1832 10.2578C12.8764 10.2578 12.6255 10.5068 12.6255 10.8098C12.6255 11.1127 12.8764 11.3618 13.1832 11.3618C13.4899 11.3618 13.7409 11.1127 13.7409 10.8098C13.7409 10.5068 13.4899 10.2578 13.1832 10.2578Z" fill="white"/>
<path d="M13.1832 12.6328C12.8764 12.6328 12.6255 12.8818 12.6255 13.1848C12.6255 13.4919 12.8804 13.7368 13.1832 13.7368C13.4859 13.7368 13.7409 13.4877 13.7409 13.1848C13.7409 12.8818 13.4899 12.6328 13.1832 12.6328Z" fill="white"/>
<path d="M16.1018 11.7436C16.1018 10.8177 15.7552 9.6469 15.4405 9.0241C15.0222 8.1979 14.6677 7.6789 14.0383 7.05615C13.4567 6.47905 12.9627 6.11785 12.2257 5.74C12.166 5.71095 12.1102 5.6819 12.0544 5.6528C11.4369 5.3456 10.2538 4.9844 9.34953 4.9844H8.81968C8.63248 4.9844 8.37353 5.24595 8.37353 5.4286V18.5858C8.37353 18.7768 8.64443 19.03 8.85953 19.03H9.28578C10.2658 19.03 11.421 18.6771 12.0823 18.3491L12.2257 18.2744C13.0025 17.8717 13.4925 17.498 14.098 16.8918C15.1856 15.8082 16.1018 14.135 16.1018 11.9761V11.7436ZM15.0222 12.2708C15.0222 13.8444 14.106 15.3889 13.3093 16.1819C12.9826 16.5057 12.6281 16.7922 12.2297 17.0455C12.0504 17.1576 11.8592 17.2655 11.668 17.361C11.186 17.6018 10.1502 17.9506 9.43718 17.9506V6.0597C10.1622 6.0597 11.1302 6.40015 11.6401 6.6368C11.8393 6.7323 12.0385 6.8444 12.2337 6.9648C12.6201 7.2139 12.9866 7.50455 13.2774 7.7952C13.7196 8.2394 14.1578 8.82485 14.4446 9.42685C14.6876 9.9334 15.0262 10.9132 15.0262 11.6356V12.2667L15.0222 12.2708Z" fill="white"/>
<path d="M6.78033 6.1426C6.52138 6.1426 6.25048 6.3668 6.25048 6.58685V17.4231C6.25048 17.6141 6.52138 17.8674 6.73648 17.8674H6.82413C7.05918 17.8674 7.31013 17.6183 7.31013 17.3816V6.62835C7.31013 6.36265 7.05518 6.1426 6.78033 6.1426Z" fill="white"/>
<path d="M2.53034 9.82129C2.27139 9.82129 2.00049 9.99565 2.00049 10.1576V13.8486C2.00049 13.9939 2.27139 14.1849 2.48649 14.1849H2.57414C2.80919 14.1849 3.06014 13.9939 3.06014 13.8153V10.1949C3.06014 9.99565 2.80519 9.82545 2.53034 9.82545V9.82129Z" fill="white"/>
<path d="M4.65729 7.8115C4.41029 7.8115 4.12744 8.0357 4.12744 8.25575V15.7083C4.12744 15.9533 4.38639 16.1941 4.61344 16.1941H4.67719C4.94809 16.1941 5.18709 15.9533 5.18709 15.6668V8.3388C5.18709 8.0399 4.94809 7.8115 4.65729 7.8115Z" fill="white"/>
<path d="M21.5715 2.9543L21.5555 2.9335C21.4998 2.88785 21.448 2.838 21.3882 2.7965C21.3324 2.755 21.2767 2.71345 21.2169 2.68025C21.1532 2.6429 21.0934 2.6055 21.0337 2.5723C20.9819 2.54325 20.9261 2.5142 20.8664 2.4851H20.8504L20.8345 2.47265C20.5556 2.3315 20.2489 2.22355 19.9302 2.14465C19.6075 2.06165 19.2729 2.0201 18.9383 2.0035C18.6076 1.99105 18.273 2.0118 17.9503 2.0658C17.6396 2.11975 17.3329 2.20695 17.05 2.32735C16.8787 2.4021 16.7074 2.48925 16.5481 2.5889C16.3927 2.68855 16.2453 2.80065 16.1139 2.9169C15.9864 3.0373 15.8629 3.16185 15.7593 3.30305C15.6557 3.44005 15.5641 3.5812 15.4884 3.73065C15.4167 3.87185 15.3649 4.013 15.3211 4.15415C15.2295 4.47385 15.1578 5.0302 15.2893 5.53255C15.592 6.68265 16.5202 7.3594 17.6595 7.48395C18.4682 7.57115 19.3167 7.38845 19.9541 6.93175C20.0099 6.89025 20.0656 6.84455 20.1174 6.79475C20.1652 6.74905 20.213 6.70755 20.2529 6.6577L20.2688 6.64525C20.3166 6.5913 20.3485 6.5373 20.3724 6.48335C20.4043 6.42105 20.4162 6.35465 20.4202 6.2965C20.4202 6.2301 20.4082 6.1595 20.3883 6.10555C20.3644 6.04325 20.3246 5.9851 20.2847 5.93945C20.233 5.8855 20.1732 5.8481 20.1015 5.8232C20.0298 5.7983 19.9541 5.79415 19.8704 5.7983C19.7948 5.8066 19.7111 5.82735 19.6354 5.86055C19.5637 5.88965 19.492 5.9353 19.4283 5.9851L19.4123 5.9976L19.3247 6.064L19.2888 6.09305L19.245 6.12215C18.6475 6.50825 17.7113 6.58715 17.0938 6.19685C16.9783 6.12215 16.8747 6.0391 16.7831 5.93945C16.6875 5.8398 16.6078 5.73185 16.5401 5.6156C16.4724 5.49935 16.4206 5.37065 16.3848 5.24195C16.3489 5.1174 16.325 4.98455 16.325 4.8558C16.325 4.7188 16.3409 4.5818 16.3808 4.4448C16.4166 4.3161 16.4724 4.18735 16.5521 4.06695C16.5919 4.00885 16.6357 3.94655 16.6875 3.88845C16.7393 3.8303 16.7911 3.7722 16.8548 3.7182C16.9146 3.6601 16.9823 3.61025 17.0421 3.5646C17.1098 3.51895 17.1855 3.47325 17.2572 3.43175H17.2651C17.4603 3.3321 17.6755 3.24905 17.8946 3.1951C18.1256 3.13695 18.3646 3.10375 18.6076 3.09545C18.8586 3.083 19.1136 3.1079 19.3566 3.14525C19.6035 3.1868 19.8386 3.2532 20.0656 3.3404C20.1055 3.357 20.1453 3.3736 20.1891 3.3902C20.225 3.40685 20.2648 3.42345 20.3087 3.4442L20.3604 3.4691L18.755 4.1583L18.7391 4.1666L18.7232 4.1749L17.548 4.68145L17.5161 4.6939C17.4125 4.73955 17.3329 4.81015 17.2731 4.88075C17.1974 4.97205 17.1616 5.07585 17.1496 5.1838C17.1496 5.2212 17.1496 5.25855 17.1496 5.2959C17.1496 5.32085 17.1616 5.34575 17.1695 5.3748L17.1855 5.40385C17.2014 5.4371 17.2173 5.47445 17.2452 5.50765C17.2691 5.5367 17.301 5.5658 17.3289 5.5907V5.60315C17.4125 5.6613 17.5161 5.6945 17.6436 5.6945C17.7591 5.6945 17.8946 5.6696 18.0459 5.60315L18.763 5.2959L18.7949 5.28345L18.8307 5.26685L21.4639 4.1334C21.8105 3.98395 22.1491 3.7348 21.8902 3.31965C21.8025 3.17015 21.6631 3.0456 21.5555 2.9501L21.5715 2.9543Z" fill="white"/>
<path d="M21.485 19.8687L18.8518 18.7352L18.816 18.7186L18.7841 18.7062L18.0671 18.3989C17.9157 18.3367 17.7802 18.3034 17.6647 18.3076C17.5412 18.3076 17.4337 18.3408 17.354 18.3989L17.3381 18.4114C17.3062 18.4363 17.2743 18.4654 17.2544 18.4944C17.2305 18.5235 17.2106 18.5609 17.1946 18.5982L17.1787 18.6273C17.1668 18.6522 17.1628 18.6771 17.1588 18.7062C17.1508 18.7435 17.1508 18.7809 17.1588 18.8183C17.1707 18.9262 17.2066 19.03 17.2823 19.1255C17.342 19.2002 17.4217 19.2667 17.5253 19.3123L17.5572 19.3248L18.7284 19.8313L18.7443 19.8396L18.7602 19.8479L20.3656 20.5371L20.3138 20.5621C20.274 20.5828 20.2342 20.5994 20.1943 20.616C20.1545 20.6326 20.1147 20.6492 20.0708 20.6658C19.8478 20.753 19.6087 20.8195 19.3618 20.861C19.1187 20.9025 18.8638 20.9233 18.6128 20.9108C18.3698 20.9025 18.1308 20.8693 17.8998 20.8112C17.6806 20.7572 17.4695 20.6742 17.2703 20.5745H17.2544C17.1787 20.5288 17.107 20.4873 17.0393 20.4375C16.9755 20.3918 16.9118 20.3379 16.852 20.2839C16.7883 20.2299 16.7365 20.1759 16.6847 20.1137C16.6329 20.0555 16.5891 19.9974 16.5493 19.9351C16.4736 19.8147 16.4178 19.686 16.378 19.5573C16.3421 19.4203 16.3182 19.2833 16.3222 19.1463C16.3222 19.0134 16.3421 18.8847 16.382 18.7602C16.4178 18.6314 16.4696 18.5027 16.5373 18.3865C16.6051 18.2702 16.6847 18.1623 16.7803 18.0626C16.872 17.963 16.9755 17.88 17.0911 17.8052C17.7085 17.415 18.6447 17.4938 19.2422 17.88L19.2861 17.909L19.3219 17.9339L19.3657 17.9713L19.4096 18.0045L19.4255 18.017C19.4892 18.0668 19.5609 18.1125 19.6326 18.1415C19.7083 18.1747 19.792 18.1997 19.8677 18.2038C19.9473 18.2121 20.027 18.2038 20.0987 18.1789C20.1704 18.154 20.2302 18.1208 20.282 18.0626C20.3258 18.017 20.3616 17.963 20.3855 17.8966C20.4055 17.8384 20.4174 17.772 20.4174 17.7056C20.4174 17.6475 20.4015 17.581 20.3696 17.5187C20.3457 17.4648 20.3099 17.4108 20.266 17.3568L20.2501 17.3444C20.2103 17.2987 20.1625 17.253 20.1147 17.2074C20.0629 17.1617 20.0071 17.1119 19.9513 17.0703C19.3179 16.6136 18.4654 16.431 17.6567 16.5182C16.5174 16.6427 15.5892 17.3153 15.2865 18.4695C15.155 18.9719 15.2227 19.5282 15.3183 19.8479C15.3582 19.9891 15.414 20.1303 15.4857 20.2714C15.5613 20.425 15.653 20.5662 15.7565 20.6991C15.8601 20.8402 15.9836 20.9606 16.1151 21.081C16.2505 21.1973 16.3939 21.3094 16.5493 21.409C16.7086 21.5087 16.876 21.5959 17.0512 21.6706C17.3341 21.791 17.6408 21.8823 17.9515 21.9322C18.2742 21.9903 18.6088 22.011 18.9395 21.9944C19.2741 21.982 19.6087 21.9363 19.9314 21.8533C20.2501 21.7744 20.5529 21.6664 20.8357 21.5253L20.8516 21.517H20.8636C20.9233 21.4879 20.9791 21.4589 21.0309 21.4298C21.0907 21.3966 21.1544 21.3592 21.2141 21.3218C21.2739 21.2845 21.3337 21.243 21.3854 21.2056C21.4452 21.1641 21.497 21.1184 21.5528 21.0686L21.5687 21.052C21.6763 20.9482 21.8157 20.8278 21.9073 20.6742C22.1702 20.2631 21.8316 20.014 21.485 19.8645V19.8687Z" fill="white"/>
</svg>
