<svg xmlns="http://www.w3.org/2000/svg" width="92" height="24" viewBox="0 0 92 24" fill="none"><rect width="92" height="24" fill="none"/>
<path d="M52.2748 7.18417H50.2635V16.2908H52.2748V7.18417Z" fill="black"/>
<path d="M33.5507 7.18417L30.9605 12.3747L28.5222 7.18417H26.2L29.7872 14.8062L27.1691 19.9333H29.5097L35.9092 7.18417H33.5507Z" fill="black"/>
<path d="M48.3069 2.26666H46.314V16.2908H48.3069V2.26666Z" fill="black"/>
<path d="M40.408 8.89618C40.9466 8.89996 41.4734 9.05365 41.9289 9.33984C42.3844 9.62602 42.7505 10.0334 42.9859 10.5159H45.0514C44.7764 9.50086 44.1714 8.60527 43.3311 7.96923C42.4907 7.33317 41.4623 6.99256 40.4069 7.00068C37.7738 7.00068 35.6888 9.13194 35.6888 11.7364C35.6888 14.3592 37.7738 16.4721 40.4069 16.4721C42.656 16.4721 44.5026 14.9419 45.0514 12.8473H42.9859C42.7627 13.3434 42.401 13.7651 41.9439 14.0622C41.4869 14.3593 40.9538 14.5193 40.408 14.5232C38.8902 14.5232 37.5918 13.2482 37.5918 11.7364C37.5918 10.1528 38.8902 8.89618 40.408 8.89618Z" fill="black"/>
<path d="M51.2694 3.55942C50.5381 3.55942 50.0078 4.10599 50.0078 4.79825C50.0078 5.50829 50.5381 6.10936 51.2694 6.10936C51.9823 6.10936 52.531 5.50829 52.531 4.79825C52.5319 4.63382 52.4997 4.47088 52.4364 4.31903C52.373 4.16718 52.2799 4.02948 52.1623 3.91405C52.0447 3.79861 51.9052 3.70776 51.7518 3.64686C51.5985 3.58596 51.4345 3.55622 51.2694 3.55942Z" fill="black"/>
<path d="M76.4851 4.27002H74.5101V14.3058C74.5101 15.5079 75.4429 16.2908 76.5583 16.2908H79.4292V14.3236H77.0289C76.8848 14.3236 76.7475 14.2667 76.6453 14.1654C76.5438 14.0642 76.4868 13.9268 76.4868 13.7836V9.15138H79.4309V7.18416H76.4868L76.4851 4.27002Z" fill="black"/>
<path d="M58.5308 7.00181C57.1777 7.00181 56.0077 7.43885 55.0749 8.36797C54.2556 9.27897 53.8052 10.4605 53.811 11.6836C53.811 12.9947 54.2866 14.2335 55.1273 15.0892C56.0233 15.9272 57.2123 16.4737 58.5286 16.4737C59.8449 16.4737 61.0518 15.9272 61.9662 15.0347C62.3687 14.6522 62.6249 14.2152 62.8806 13.6869L60.5405 13.7409C60.0286 14.2691 59.352 14.5421 58.5308 14.5421C57.7264 14.5421 57.0314 14.2874 56.538 13.7592C56.1911 13.4215 55.9378 13.0001 55.8028 12.536H63.2121L63.2183 12.378C63.2378 12.1801 63.2668 11.9082 63.2668 11.6802C63.2646 8.98739 61.2165 7.00181 58.5308 7.00181ZM55.8486 10.6994C56.2393 9.62682 57.2626 8.8962 58.5308 8.8962C59.7835 8.8962 60.7878 9.6257 61.1891 10.6994H55.8486Z" fill="black"/>
<path d="M69.0428 7.00181C68.1982 7.00181 67.3989 7.2409 66.7937 7.81361V7.18419H64.8187V16.2908H66.7926V11.0452C66.7926 9.87758 67.6702 8.8595 68.8223 8.8595C70.0292 8.8595 70.9068 9.86035 70.9068 11.0452V16.2908H72.8818V10.8973C72.8829 8.64098 71.3104 7.00181 69.0428 7.00181Z" fill="black"/>
<path d="M86.5422 10.7383H83.6868C83.4808 10.7328 83.2849 10.6474 83.1409 10.5002C82.9969 10.353 82.9165 10.1556 82.9165 9.95013C82.9165 9.74462 82.9969 9.54729 83.1409 9.40005C83.2849 9.25287 83.4808 9.16741 83.6868 9.16196H88.8041V7.17972H83.6868C82.9466 7.17972 82.2366 7.47262 81.7135 7.99402C81.1899 8.51535 80.8957 9.22251 80.8957 9.95986C80.8957 10.6972 81.1899 11.4044 81.7135 11.9257C82.2366 12.4471 82.9466 12.74 83.6868 12.74H86.5422C86.6454 12.7379 86.7482 12.7566 86.8436 12.7949C86.9396 12.8333 87.0267 12.8906 87.0998 12.9633C87.1724 13.036 87.2299 13.1227 87.2684 13.2181C87.3069 13.3134 87.3259 13.4156 87.3237 13.5184C87.3231 13.7266 87.2416 13.9263 87.0954 14.0752C86.9497 14.2241 86.751 14.3104 86.5422 14.3158H81.2585V16.2986H86.5422C87.2824 16.2986 87.9925 16.0057 88.5161 15.4843C89.0391 14.9629 89.3333 14.2558 89.3333 13.5184C89.3333 12.7811 89.0391 12.0739 88.5161 11.5526C87.9925 11.0312 87.2824 10.7383 86.5422 10.7383Z" fill="black"/>
<path d="M10.9058 18.4725L17.7977 7.85629C17.9363 7.64265 18.0057 7.53583 17.9996 7.44744C17.9943 7.37042 17.9557 7.29951 17.8938 7.25317C17.8229 7.19999 17.6954 7.19999 17.4404 7.19999H13.9435C13.6907 7.19999 13.5643 7.19999 13.4498 7.23509C13.3484 7.26616 13.2543 7.31709 13.1728 7.38489C13.0809 7.46148 13.0118 7.5672 12.8737 7.77865L8.49974 14.4756C8.3355 14.727 8.25339 14.8528 8.22133 14.9883C8.193 15.1081 8.19284 15.2329 8.22089 15.3527C8.25261 15.4884 8.33442 15.6143 8.49805 15.8662L10.1914 18.4727C10.3104 18.6559 10.37 18.7475 10.4455 18.7792C10.5115 18.8069 10.5859 18.8069 10.6518 18.7792C10.7273 18.7475 10.7868 18.6558 10.9058 18.4725Z" fill="black"/>
<path d="M6.19697 7.84917L8.30173 11.1377C8.41919 11.3212 8.47792 11.413 8.55314 11.4451C8.61888 11.4733 8.69324 11.4738 8.75941 11.4468C8.83513 11.4158 8.8953 11.3249 9.01563 11.1432L11.1938 7.85471C11.3348 7.64183 11.4053 7.53538 11.3996 7.4472C11.3947 7.37037 11.3563 7.29951 11.2944 7.25318C11.2234 7.19999 11.0951 7.19999 10.8387 7.19999H6.55573C6.30335 7.19999 6.17716 7.19999 6.10645 7.25243C6.04482 7.29814 6.00615 7.36812 6.0004 7.44432C5.99382 7.53175 6.06154 7.63755 6.19697 7.84917Z" fill="black"/>
<path fill-rule="evenodd" clip-rule="evenodd" d="M17.7977 7.85629L10.9058 18.4725C10.7868 18.6558 10.7273 18.7475 10.6518 18.7792C10.5859 18.8069 10.5115 18.8069 10.4455 18.7792C10.37 18.7475 10.3104 18.6559 10.1914 18.4727L8.49805 15.8662C8.33442 15.6143 8.25261 15.4884 8.22089 15.3527C8.19284 15.2329 8.193 15.1081 8.22133 14.9883C8.25339 14.8528 8.3355 14.727 8.49974 14.4756L12.8737 7.77865C13.0118 7.5672 13.0809 7.46148 13.1728 7.38489C13.2543 7.31709 13.3484 7.26616 13.4498 7.23509C13.5643 7.19999 13.6907 7.19999 13.9435 7.19999H17.4404C17.6954 7.19999 17.8229 7.19999 17.8938 7.25317C17.9557 7.29951 17.9943 7.37042 17.9996 7.44744C18.0057 7.53583 17.9363 7.64265 17.7977 7.85629ZM8.30173 11.1377L6.19697 7.84917C6.06154 7.63755 5.99382 7.53175 6.0004 7.44432C6.00615 7.36812 6.04482 7.29814 6.10645 7.25243C6.17716 7.19999 6.30335 7.19999 6.55573 7.19999H10.8387C11.0951 7.19999 11.2234 7.19999 11.2944 7.25318C11.3563 7.29951 11.3947 7.37037 11.3996 7.4472C11.4053 7.53538 11.3348 7.64183 11.1938 7.85471L9.01563 11.1432C8.8953 11.3249 8.83513 11.4158 8.75941 11.4468C8.69324 11.4738 8.61888 11.4733 8.55314 11.4451C8.47792 11.413 8.41919 11.3212 8.30173 11.1377Z" fill="black"/>
<path fill-rule="evenodd" clip-rule="evenodd" d="M7.97333 2H16.0267C18.1175 2 19.163 2 19.9616 2.40691C20.664 2.76484 21.2352 3.33596 21.5931 4.03844C22 4.83704 22 5.88247 22 7.97333V16.0267C22 18.1175 22 19.163 21.5931 19.9616C21.2352 20.664 20.664 21.2352 19.9616 21.5931C19.163 22 18.1175 22 16.0267 22H7.97333C5.88247 22 4.83704 22 4.03844 21.5931C3.33596 21.2352 2.76484 20.664 2.40691 19.9616C2 19.163 2 18.1175 2 16.0267V7.97333C2 5.88247 2 4.83704 2.40691 4.03844C2.76484 3.33596 3.33596 2.76484 4.03844 2.40691C4.83704 2 5.88247 2 7.97333 2ZM10.9058 18.4725L17.7977 7.85629C17.9363 7.64265 18.0057 7.53583 17.9996 7.44744C17.9943 7.37042 17.9557 7.29951 17.8938 7.25317C17.8229 7.19999 17.6954 7.19999 17.4404 7.19999H13.9435C13.6907 7.19999 13.5643 7.19999 13.4498 7.23509C13.3484 7.26616 13.2543 7.31709 13.1728 7.38489C13.0809 7.46148 13.0118 7.5672 12.8737 7.77865L8.49974 14.4756C8.3355 14.727 8.25339 14.8528 8.22133 14.9883C8.193 15.1081 8.19284 15.2329 8.22089 15.3527C8.25261 15.4884 8.33442 15.6143 8.49805 15.8662L10.1914 18.4727C10.3104 18.6559 10.37 18.7475 10.4455 18.7792C10.5115 18.8069 10.5859 18.8069 10.6518 18.7792C10.7273 18.7475 10.7868 18.6558 10.9058 18.4725ZM6.19697 7.84917L8.30173 11.1377C8.41919 11.3212 8.47792 11.413 8.55314 11.4451C8.61888 11.4733 8.69324 11.4738 8.75941 11.4468C8.83513 11.4158 8.8953 11.3249 9.01563 11.1432L11.1938 7.85471C11.3348 7.64183 11.4053 7.53538 11.3996 7.4472C11.3947 7.37037 11.3563 7.29951 11.2944 7.25318C11.2234 7.19999 11.0951 7.19999 10.8387 7.19999H6.55573C6.30335 7.19999 6.17716 7.19999 6.10645 7.25243C6.04482 7.29814 6.00615 7.36812 6.0004 7.44432C5.99382 7.53175 6.06154 7.63755 6.19697 7.84917Z" fill="#FFCB00"/>
</svg>
