<svg xmlns="http://www.w3.org/2000/svg" width="24" height="24" viewBox="0 0 24 24" fill="none"><rect width="24" height="24" fill="none"/>
<path d="M12 1C18.0753 1.00077 22.9999 5.925 23 12C23 18.0746 18.0754 22.9992 12 23C5.9246 22.9992 1 18.0746 1 12C1.00011 5.925 5.92467 1.00077 12 1ZM12 1.45996C6.1785 1.4703 1.47058 6.17882 1.45898 12C1.47047 17.8209 6.17843 22.5293 12 22.54C17.8216 22.5293 22.5307 17.8209 22.541 12C22.5306 6.17882 17.8215 1.4703 12 1.45996ZM12.5635 4.00293C14.0006 4.04738 15.7073 4.53598 16.7852 5.55664C16.9648 5.77853 17.0547 5.95628 17.0996 6.13379C17.9528 6.53318 18.4024 6.93277 18.6719 7.4209C18.7616 7.64273 18.8505 7.90925 18.7607 8.21973C19.12 8.44158 19.255 8.57468 19.4346 8.84082C19.5693 9.01834 19.6592 9.24045 19.6592 9.41797C19.7041 9.68422 19.704 9.95064 19.4346 10.3057C19.7041 10.4388 19.9287 10.8381 19.9736 11.0156C20.1083 11.6369 19.704 12.2584 19.165 12.7021C18.5361 13.2347 17.1891 13.8558 16.1113 14.1221C13.9106 14.6546 11.9792 14.8769 10.4521 15.1875C11.1258 15.365 12.0689 15.5869 13.5957 15.5869C16.8521 15.5869 19.7102 14.0984 19.749 14.0781C19.749 14.0874 19.7478 14.26 19.7041 14.4326C17.6383 15.6751 14.3154 16.2077 12.9229 16.1191C11.4856 16.0748 10.2723 15.8531 9.10449 15.498C8.74526 15.5868 8.3856 15.7194 8.02637 15.8525C9.82291 16.6514 11.1712 16.8298 12.6982 16.9629C14.2702 17.0959 16.8298 16.6957 19.0303 15.9414C18.9405 16.0302 18.8955 16.2081 18.7607 16.2969C17.6378 16.8738 15.2575 17.4507 14.0898 17.4951C12.9222 17.5394 11.485 17.4953 10.2275 17.2734C9.14969 17.0515 8.2517 16.7402 7.35352 16.3408C7.17383 16.474 7.08398 16.6076 7.08398 16.7852C10.6769 18.649 14.0457 18.6933 17.9082 17.4951L17.5488 17.8496C13.3272 19.536 10.0483 18.871 7.48828 17.6729C7.39854 17.6285 7.30853 17.5834 7.21875 17.5391C7.44331 17.9385 9.41933 19.3586 11.5752 19.5361C13.0573 19.6692 14.8987 19.4037 16.0215 18.96L15.3926 19.2705C14.8535 19.5368 13.4613 20.1135 11.5303 19.9805C8.92567 19.803 7.44339 18.6936 6.81445 18.0723C6.50009 17.806 6.36523 17.4507 6.27539 17.0957C5.69157 16.7851 5.33192 16.4744 5.01758 15.9863C4.8379 15.7201 4.88281 15.4088 4.92773 15.1426C4.92784 15.0539 4.97271 14.9652 5.01758 14.9209C4.74813 14.699 4.43362 14.5217 4.34375 14.2998C4.07427 13.856 4.25394 13.4562 4.43359 13.1455C4.29888 12.9681 4.11913 12.7907 4.07422 12.6133C3.98444 12.3915 3.98446 12.2139 4.0293 11.9922C4.07421 11.5928 4.29891 11.2374 4.56836 10.9268C5.15224 10.2611 6.05107 9.77235 7.57812 9.28418C9.05988 8.79613 9.6888 8.70767 10.8115 8.44141C12.1139 8.13079 13.7307 8.04232 15.0332 7.59863C11.3503 6.97733 7.5326 7.5538 4.38867 9.63965L4.43359 9.01855C7.21822 7.19899 10.3174 6.13347 15.5723 7.06543C15.8416 6.888 16.0215 6.75509 16.1113 6.40039C14.8089 5.95659 13.3717 5.77833 11.5303 5.77832C9.86852 5.82271 6.90406 6.44402 5.33203 7.37598L5.82617 6.7998C6.94899 6.17847 9.82362 5.29044 11.9795 5.24609C13.5064 5.20172 14.3149 5.29015 16.1113 5.77832C15.9316 5.46781 15.572 5.33456 15.0332 5.06836C13.2816 4.26963 10.0032 4.22525 7.30859 5.37891C7.66766 5.15714 7.98184 4.93524 8.43066 4.75781C9.32892 4.35839 10.7669 3.95855 12.5635 4.00293ZM5.78125 15.498C5.7813 15.7199 5.91613 15.9418 6.23047 16.208C6.27538 16.0749 6.32036 15.9857 6.41016 15.8525C6.23056 15.7195 6.00575 15.6311 5.78125 15.498ZM6.58984 14.5215C6.41016 14.6102 6.23047 14.7438 6.14062 14.877C6.41004 15.0544 6.72478 15.1877 7.03906 15.3652C7.21871 15.2321 7.48833 15.1429 7.75781 15.0098C7.39858 14.8323 6.99399 14.699 6.58984 14.5215ZM18.9404 10.8828C18.8508 10.9712 18.7615 11.016 18.6719 11.1045C18.088 11.5483 17.0994 11.9471 15.7969 12.2578C13.0571 12.9679 11.0807 13.1012 8.79004 13.6338C8.34108 13.7226 7.89235 13.9007 7.44336 14.0781C7.89222 14.2999 8.34121 14.4769 8.79004 14.6543C9.68833 14.388 10.1379 14.2551 11.4854 14.0332C11.9796 13.9444 13.5511 13.6779 14.6738 13.4561C16.7398 13.0123 19.7037 12.081 18.9404 10.8828ZM5.0625 13.6787C4.92816 13.9006 5.15249 14.1667 5.37695 14.2998C5.46679 14.211 5.55668 14.122 5.64648 14.0332C5.422 13.9001 5.24212 13.8118 5.0625 13.6787ZM17.2793 9.77246C16.7403 10.0388 15.9764 10.2611 14.8535 10.5273C13.9551 10.7492 11.7543 11.0603 9.37402 11.5928C8.61034 11.7703 6.58966 12.2137 5.60156 13.0566C5.87105 13.2785 6.05083 13.3235 6.36523 13.501C6.76936 13.2347 7.35297 13.0129 8.16113 12.791C9.59835 12.3916 10.7219 12.258 12.0244 12.0361C13.327 11.8142 15.7523 11.326 17.1445 10.8379C17.5936 10.6604 17.9982 10.4826 18.3125 10.2607C18.1781 10.1279 17.3277 9.73015 17.2793 9.77246ZM15.9316 9.24023C14.8089 8.92963 14.2251 8.84058 13.0576 8.97363C11.351 9.15118 9.50939 9.55134 7.89258 9.99512C7.26377 10.1726 3.93963 11.1045 4.92773 12.3916C4.88457 12.4338 5.47008 11.6805 7.62305 11.0156C10.2729 10.2612 13.1022 9.99466 15.9316 9.24023ZM18.4922 8.88477C18.4025 9.01778 18.2225 9.15117 18.043 9.28418C18.3124 9.41727 18.5362 9.5071 18.7607 9.68457C18.9404 9.3739 18.8066 9.15104 18.4922 8.88477ZM16.0215 7.82031C15.752 8.04218 15.4823 8.21939 15.0332 8.35254C15.7518 8.48567 16.2912 8.6633 16.9199 8.84082C17.0549 8.88479 17.5488 8.44124 17.5938 8.35254C17.1446 8.17503 16.6053 7.95348 16.0215 7.82031ZM17.0098 6.75488C16.9649 6.93228 16.7851 7.15395 16.6504 7.28711C17.0546 7.37589 17.4591 7.5534 17.8633 7.68652C17.7733 7.33165 17.369 7.02108 17.0098 6.75488Z" fill="white"/>
</svg>
