<svg xmlns="http://www.w3.org/2000/svg" width="98" height="24" viewBox="0 0 98 24" fill="none"><rect width="98" height="24" fill="none"/>
<path d="M74.5509 6.20534V2.86182L72.0044 4.47036V6.20534H74.5509Z" fill="#575756"/>
<path d="M9.84868 2H2V22H9.54803C15.1668 22 19.7268 17.5183 19.7268 11.9969C19.7268 6.57564 15.3296 2.15659 9.84868 2ZM13.5193 10.3934L4.21117 19.7889L8.18875 13.0085H5.31361L9.82989 8.52991H6.85141L9.44467 5.98685H15.1918L10.7695 10.3934H13.5193Z" fill="#568CEF"/>
<path d="M36.3765 2.83333V17.9003H33.8442V17.0819C32.9343 17.7783 31.8285 18.1713 30.6832 18.2058C27.6698 18.2058 25.4149 15.8457 25.4149 12.5443C25.4097 11.6461 25.5939 10.7569 25.9558 9.9348C27.1359 7.39554 30.4479 5.8994 33.6405 7.85564V4.55426L36.3765 2.83333ZM33.7704 12.5478C33.7986 10.7531 32.6079 9.45012 30.9326 9.44311C29.3135 9.44311 28.0842 10.725 28.056 12.4635C28.028 14.2687 29.2467 15.6736 30.8659 15.7157C32.4849 15.7579 33.7283 14.4022 33.7564 12.5548" fill="#575756"/>
<path d="M43.1165 18.2063C42.374 18.2109 41.6379 18.0676 40.9514 17.7844C40.265 17.5013 39.6418 17.084 39.1186 16.5572C38.5953 16.0303 38.1823 15.4044 37.9038 14.7161C37.6255 14.0277 37.487 13.2907 37.497 12.5482C37.497 9.52431 40.0749 7.00261 43.1867 7.01315C43.9333 6.99944 44.6751 7.1352 45.3682 7.41242C46.0616 7.68966 46.6924 8.10276 47.2236 8.62743C47.7548 9.1521 48.1758 9.77773 48.4615 10.4675C48.7474 11.1573 48.8923 11.8972 48.888 12.6439C48.8834 13.3905 48.7298 14.1287 48.4356 14.815C48.1417 15.5013 47.7133 16.1219 47.1759 16.6402C46.6384 17.1585 46.0027 17.564 45.3062 17.833C44.6096 18.1019 43.8663 18.2288 43.12 18.2063H43.1165ZM46.0914 12.7063C46.1264 10.8624 44.9007 9.50323 43.1761 9.47513C42.7801 9.47275 42.3877 9.54946 42.0218 9.70075C41.6557 9.85204 41.3236 10.0749 41.045 10.3562C40.7662 10.6375 40.5465 10.9717 40.3986 11.339C40.2507 11.7064 40.1777 12.0996 40.1838 12.4955C40.1417 14.3464 41.3603 15.7232 43.0744 15.7513C44.7883 15.7794 46.0527 14.515 46.0914 12.7063Z" fill="#575756"/>
<path d="M77.2307 4.45612L79.7769 2.84757V17.9074H77.2307V4.45612Z" fill="#575756"/>
<path d="M72.0044 7.8521L74.5509 6.20534V17.9037H72.0044V7.8521Z" fill="#575756"/>
<path d="M82.4007 4.48406L84.9365 2.84391V17.9038H82.4007V4.48406Z" fill="#575756"/>
<path d="M70.7049 7.23397H62.0719L60.4212 9.55546H65.9986L59.8275 17.9248H68.5064L70.15 15.5893H64.5059L70.7049 7.23397Z" fill="#575756"/>
<path d="M57.527 14.6273C57.4148 14.7327 57.3023 14.831 57.1969 14.9329C56.6308 15.4743 55.8728 15.7686 55.0896 15.7512C53.3757 15.7231 52.1534 14.3463 52.1956 12.4955C52.1903 12.0995 52.2642 11.7064 52.4127 11.3393C52.5611 10.9721 52.7811 10.6382 53.0601 10.357C53.339 10.0758 53.671 9.85303 54.037 9.7016C54.4029 9.55017 54.7955 9.47316 55.1915 9.47506C55.916 9.47494 56.6143 9.74694 57.1477 10.2372L57.5517 10.6095L59.3921 8.89909C58.8657 8.30292 58.2179 7.82621 57.4923 7.50092C56.7666 7.17564 55.9796 7.00931 55.1844 7.01308C52.0726 7.01308 49.484 9.52424 49.4946 12.5482C49.4858 13.2904 49.6248 14.0269 49.9035 14.7149C50.1823 15.4028 50.5954 16.0283 51.1184 16.555C51.6415 17.0817 52.2642 17.4989 52.9502 17.7824C53.6363 18.0659 54.3719 18.21 55.1141 18.2062C55.9166 18.217 56.7121 18.0569 57.4479 17.7366C58.1836 17.4162 58.8428 16.943 59.3815 16.3482L57.527 14.6273Z" fill="#575756"/>
<path d="M91.1883 6.98856C89.7305 7.00023 88.3176 7.49421 87.1702 8.3934L88.1606 10.3215C88.1606 10.3215 89.6289 9.31358 91.2094 9.31358C93.257 9.31358 93.443 10.6447 93.443 10.6447V11.3822H90.4507C89.397 11.3822 86.4573 11.8388 86.4573 14.7749C86.4573 17.8023 89.4181 18.2273 90.2927 18.2273C91.1672 18.2273 92.6212 17.8199 93.4536 16.9875V17.9252H96V10.5252C96 7.57859 92.7476 6.97803 91.1988 6.97803L91.1883 6.98856ZM90.6368 15.7583C90.0783 15.7583 88.9545 15.6915 88.9545 14.7046C88.9545 13.7178 90.0959 13.5421 90.7105 13.5421H93.4466V14.5255C92.9899 15.4316 91.1531 15.7407 90.6368 15.7407" fill="#575756"/>
</svg>
