<svg xmlns="http://www.w3.org/2000/svg" width="24" height="24" viewBox="0 0 24 24" fill="none"><rect width="24" height="24" fill="none"/>
<path fill-rule="evenodd" clip-rule="evenodd" d="M11.3745 12.3676V20.2155H13.5851L17.2121 15.3762V20.2155H19.4238V12.3676H17.2121L13.5877 17.207V12.3676H11.3745ZM9.28595 14.5243C8.85326 14.1114 8.3016 13.8453 7.70915 13.7635C8.03503 13.5826 9.06785 12.9476 9.06785 11.3887C9.06785 10.374 8.65079 9.43099 7.94394 8.88827C6.96504 8.12619 5.66027 8.12619 4.99313 8.12619H2V20.2155H6.05927C7.11001 20.2155 8.21595 20.0346 9.12166 19.2366C9.95566 18.4937 10.1558 17.4969 10.1558 16.79C10.1558 16.1562 10.0107 15.2132 9.28595 14.5243ZM4.3555 10.048H5.04446C6.00539 10.048 6.85728 10.4651 6.85728 11.5696C6.85728 13.1092 5.38829 13.1464 5.0265 13.1464H4.3555V10.048ZM6.98301 17.9678C6.45827 18.2756 5.80524 18.2949 5.37033 18.2949H4.3555V14.9592H5.22535C5.73853 14.9592 6.33126 14.9592 6.83803 15.1952C7.10895 15.3082 7.33911 15.5008 7.49792 15.7476C7.65672 15.9944 7.73666 16.2837 7.72711 16.577C7.72711 17.0441 7.56418 17.6239 6.98301 17.9678ZM18.3179 3.78467C17.5897 3.78467 16.8778 4.00059 16.2724 4.40512C15.6669 4.80966 15.195 5.38464 14.9163 6.05738C14.6376 6.73012 14.5645 7.4704 14.7064 8.18462C14.8485 8.89884 15.1991 9.55494 15.7138 10.0699C16.2286 10.5849 16.8846 10.9357 17.5988 11.0779C18.313 11.2201 19.0533 11.1474 19.7261 10.8689C20.399 10.5904 20.9741 10.1187 21.3789 9.51336C21.7836 8.90799 21.9998 8.19623 22 7.46803C22.0002 6.98439 21.9051 6.50545 21.72 6.05857C21.5351 5.6117 21.2639 5.20563 20.922 4.86358C20.58 4.52154 20.1741 4.25019 19.7273 4.06507C19.2805 3.87995 18.8015 3.78467 18.3179 3.78467ZM15.5724 8.42897C15.4963 8.42897 15.4218 8.40639 15.3586 8.36411C15.2953 8.32182 15.246 8.2617 15.2169 8.19137C15.1876 8.12105 15.18 8.04365 15.1949 7.969C15.2097 7.89434 15.2464 7.82575 15.3002 7.77193C15.3541 7.7181 15.4226 7.68145 15.4973 7.66659C15.5719 7.65174 15.6493 7.65936 15.7197 7.68849C15.79 7.71762 15.8501 7.76696 15.8925 7.83025C15.9347 7.89354 15.9573 7.96796 15.9573 8.04408C15.9573 8.14617 15.9167 8.24406 15.8445 8.31624C15.7724 8.38842 15.6745 8.42897 15.5724 8.42897ZM18.4077 8.15441C18.2085 8.33822 17.9462 8.43837 17.6751 8.43411C17.5396 8.43798 17.4052 8.40812 17.2841 8.34721C17.1629 8.2863 17.0588 8.19625 16.981 8.08514V9.50667H16.373V6.20432H16.981V6.48401C17.0598 6.37177 17.1654 6.28104 17.2882 6.22008C17.411 6.15913 17.5471 6.12989 17.6842 6.13505C17.9591 6.12948 18.2248 6.2333 18.4231 6.42371C18.5329 6.53724 18.6186 6.67181 18.675 6.8193C18.7314 6.96681 18.7575 7.12419 18.7516 7.28201C18.7585 7.44339 18.7314 7.60441 18.6722 7.75469C18.613 7.90496 18.5228 8.04114 18.4077 8.15441ZM19.5932 9.50667H18.9042L19.6971 8.04023L18.6707 6.20432H19.3789L20.0474 7.43212L20.6465 6.20432H21.3341L19.5932 9.50667ZM17.9344 6.82656C18.052 6.94849 18.1178 7.1113 18.1178 7.28073C18.1185 7.36597 18.1021 7.45049 18.0697 7.52936C18.0373 7.60822 17.9895 7.67984 17.9291 7.74002C17.8182 7.84302 17.6713 7.8983 17.5199 7.89398C17.3735 7.89719 17.2311 7.84547 17.121 7.74901C17.0559 7.68984 17.0045 7.61742 16.9699 7.53663C16.9354 7.45583 16.9186 7.36856 16.9208 7.28073C16.9171 7.19276 16.9338 7.10513 16.9694 7.02461C17.005 6.94409 17.0585 6.87281 17.1261 6.8163C17.2334 6.71855 17.3749 6.66695 17.5199 6.6726C17.6719 6.6732 17.8188 6.72777 17.9344 6.82656Z" fill="white"/>
</svg>
