<svg xmlns="http://www.w3.org/2000/svg" width="76" height="24" viewBox="0 0 76 24" fill="none"><rect width="76" height="24" fill="none"/>
<path d="M63.1363 10.1729C58.4859 10.1729 52.6001 6.51518 52.6001 2.00171H67.3417C71.2142 2.00171 74.3547 5.0484 74.3547 8.80894C74.3547 9.26726 74.3066 9.72435 74.2112 10.1729H63.1363Z" fill="url(#paint0_linear_2724_109)"/>
<path d="M51.8069 2.00171L45.451 2.00173C44.5907 1.99785 43.8051 2.48489 43.4336 3.2525L38.3901 13.8326C38.1738 14.2872 37.475 14.1371 37.475 13.6372V2.19511C37.475 2.08813 37.3835 2.00173 37.2733 2.00173L31.1171 2.00171V22.0017L37.6892 22.0017C38.5382 22.005 39.3152 21.5302 39.6921 20.7777L44.9186 10.2037C45.0475 9.94247 45.451 10.033 45.451 10.321V22.0017L51.8069 22.0017V2.00171Z" fill="#4DB45E"/>
<path d="M27.8726 2.00173H20.531C19.568 2.00173 18.7195 2.63329 18.4491 3.55491L15.3855 13.9972C15.2566 14.4436 14.6181 14.4436 14.4871 13.9972L11.4235 3.55491C11.1552 2.63329 10.3046 2.00173 9.34167 2.00173H2V22.0017H8.21026V10.4671C8.21026 10.1544 8.65118 10.0885 8.74269 10.3868L12.349 22.0017H17.5236L21.1299 10.3868C21.2214 10.0885 21.6624 10.1544 21.6624 10.4671V22.0017H27.8726V2.00173Z" fill="#4DB45E"/>
<path d="M74.2936 11.3475H53.9948V22.0017H60.3527V15.6162H67.7922C70.6338 15.6285 73.2016 13.9425 74.2936 11.3475Z" fill="#4DB45E"/>
<defs>
<linearGradient id="paint0_linear_2724_109" x1="52.6019" y1="6.08728" x2="74.3547" y2="6.08728" gradientUnits="userSpaceOnUse">
<stop offset="0.3" stop-color="#00B4E6"/>
<stop offset="1" stop-color="#088CCB"/>
</linearGradient>
</defs>
</svg>
