<svg xmlns="http://www.w3.org/2000/svg" width="114" height="24" viewBox="0 0 114 24" fill="none"><rect width="114" height="24" fill="none"/>
<path d="M5.11687 22C4.54544 22 4.01731 21.8614 3.53246 21.5844C3.06493 21.3073 2.69264 20.935 2.41558 20.4675C2.13853 19.9827 2 19.4545 2 18.8831V6.4156C2 5.84417 2.13853 5.3247 2.41558 4.85717C2.69264 4.37232 3.06493 3.99137 3.53246 3.71431C4.01731 3.43726 4.54544 3.29873 5.11687 3.29873H20.6493V5.40262H5.11687C4.83982 5.40262 4.59739 5.50651 4.3896 5.71431C4.19913 5.90478 4.10389 6.13855 4.10389 6.4156V18.8831C4.10389 19.1602 4.19913 19.4026 4.3896 19.6104C4.59739 19.8008 4.83982 19.8961 5.11687 19.8961H20.6493V22H5.11687Z" fill="#0FAF95"/>
<path d="M26.3964 22C25.8249 22 25.2968 21.8615 24.812 21.5844C24.3444 21.29 23.9635 20.9091 23.6691 20.4416C23.3921 19.9567 23.2535 19.4286 23.2535 18.8572V13.4026H36.4483V10.078C36.4483 9.80092 36.3444 9.56715 36.1366 9.37668C35.9461 9.16889 35.7124 9.06499 35.4353 9.06499H23.2535V6.93511H35.4353C36.024 6.93511 36.5522 7.08229 37.0197 7.37666C37.5046 7.65372 37.8855 8.03467 38.1626 8.51952C38.4569 8.98705 38.6041 9.50655 38.6041 10.078V22H26.3964ZM26.3964 19.8701H36.4483V15.5325H25.3834V18.8572C25.3834 19.1342 25.4786 19.3766 25.6691 19.5844C25.8769 19.7749 26.1193 19.8701 26.3964 19.8701Z" fill="#0FAF95"/>
<path d="M41.1613 22V10.078C41.1613 9.50655 41.2999 8.98705 41.5769 8.51952C41.8713 8.03467 42.2522 7.65372 42.7198 7.37666C43.2046 7.08229 43.7327 6.93511 44.3042 6.93511H52.7717V9.06499H44.3042C44.0271 9.06499 43.7847 9.16889 43.5769 9.37668C43.3864 9.56715 43.2912 9.80092 43.2912 10.078V22H41.1613Z" fill="#0FAF95"/>
<path d="M56.8683 21.9999C56.2795 21.9999 55.7427 21.8614 55.2579 21.5844C54.7904 21.29 54.4094 20.909 54.115 20.4415C53.838 19.9567 53.6995 19.4285 53.6995 18.8571V10.0779C53.6995 9.50648 53.838 8.98698 54.115 8.51945C54.4094 8.03461 54.7904 7.65366 55.2579 7.3766C55.7427 7.08223 56.2795 6.93505 56.8683 6.93505H66.9202V2H69.05V21.9999H56.8683ZM56.8683 19.8701H65.9072C66.1843 19.8701 66.418 19.7748 66.6085 19.5844C66.8163 19.3766 66.9202 19.1341 66.9202 18.8571V10.0779C66.9202 9.80086 66.8163 9.56709 66.6085 9.37661C66.418 9.16882 66.1843 9.06493 65.9072 9.06493H56.8683C56.5912 9.06493 56.3488 9.16882 56.141 9.37661C55.9505 9.56709 55.8553 9.80086 55.8553 10.0779V18.8571C55.8553 19.1341 55.9505 19.3766 56.141 19.5844C56.3488 19.7748 56.5912 19.8701 56.8683 19.8701Z" fill="#0FAF95"/>
<path d="M74.9197 21.9999C74.3483 21.9999 73.8204 21.8614 73.3355 21.5844C72.868 21.29 72.487 20.909 72.1927 20.4415C71.9156 19.9567 71.7771 19.4285 71.7771 18.8571V2H73.9069V18.8571C73.9069 19.1341 74.0022 19.3766 74.1924 19.5844C74.4002 19.7748 74.6426 19.8701 74.9197 19.8701H77.4651V21.9999H74.9197Z" fill="#0FAF95"/>
<path d="M79.6149 21.9999V6.93505H81.7448V21.9999H79.6149ZM79.6149 4.12986V2H81.7448V4.12986H79.6149Z" fill="#0FAF95"/>
<path d="M88.0569 22C87.4855 22 86.9574 21.8615 86.4725 21.5844C86.005 21.29 85.6241 20.9091 85.3297 20.4416C85.0526 19.9567 84.9141 19.4286 84.9141 18.8572V18.6494H87.044V18.8572C87.044 19.1342 87.1392 19.3766 87.3297 19.5844C87.5375 19.7749 87.7799 19.8701 88.0569 19.8701H97.0959C97.3729 19.8701 97.6067 19.7749 97.7972 19.5844C98.0049 19.3766 98.1088 19.1342 98.1088 18.8572V16.5455C98.1088 16.2684 98.0049 16.0347 97.7972 15.8442C97.6067 15.6364 97.3729 15.5325 97.0959 15.5325H88.0569C87.4855 15.5325 86.9574 15.394 86.4725 15.1169C86.005 14.8225 85.6241 14.4416 85.3297 13.9741C85.0526 13.4892 84.9141 12.9611 84.9141 12.3897V10.078C84.9141 9.50655 85.0526 8.98705 85.3297 8.51952C85.6241 8.03467 86.005 7.65372 86.4725 7.37666C86.9574 7.08229 87.4855 6.93511 88.0569 6.93511H97.0959C97.6846 6.93511 98.2127 7.08229 98.6803 7.37666C99.1651 7.65372 99.5461 8.03467 99.8231 8.51952C100.118 8.98705 100.265 9.50655 100.265 10.078V10.2858H98.1088V10.078C98.1088 9.80092 98.0049 9.56715 97.7972 9.37668C97.6067 9.16889 97.3729 9.06499 97.0959 9.06499H88.0569C87.7799 9.06499 87.5375 9.16889 87.3297 9.37668C87.1392 9.56715 87.044 9.80092 87.044 10.078V12.3897C87.044 12.6667 87.1392 12.9091 87.3297 13.1169C87.5375 13.3074 87.7799 13.4026 88.0569 13.4026H97.0959C97.6846 13.4026 98.2127 13.5498 98.6803 13.8442C99.1651 14.1212 99.5461 14.5022 99.8231 14.987C100.118 15.4546 100.265 15.9741 100.265 16.5455V18.8572C100.265 19.4286 100.118 19.9567 99.8231 20.4416C99.5461 20.9091 99.1651 21.29 98.6803 21.5844C98.2127 21.8615 97.6846 22 97.0959 22H88.0569Z" fill="#0FAF95"/>
<path d="M105.993 21.9999C105.404 21.9999 104.867 21.8614 104.383 21.5844C103.915 21.29 103.543 20.909 103.266 20.4415C102.989 19.9567 102.85 19.4285 102.85 18.8571V2H104.98V6.93505H111.499V9.06493H104.98V18.8571C104.98 19.1341 105.075 19.3766 105.266 19.5844C105.473 19.7748 105.716 19.8701 105.993 19.8701H111.499V21.9999H105.993Z" fill="#0FAF95"/>
</svg>
