<svg xmlns="http://www.w3.org/2000/svg" width="24" height="24" viewBox="0 0 24 24" fill="none"><rect width="24" height="24" fill="none"/>
<path d="M5.5163 12.8053H7.09551L6.3063 10.9105L5.5163 12.8053Z" fill="white"/>
<path d="M14.8544 9.97245C14.4612 9.97245 14.1504 10.1608 13.9123 10.5465C13.6751 10.9249 13.5587 11.3909 13.5587 11.9397C13.5587 12.4921 13.6755 12.9569 13.9123 13.3409C14.1504 13.7197 14.4616 13.9093 14.8544 13.9093C15.2508 13.9093 15.5596 13.7197 15.79 13.3409C16.0296 12.9569 16.1428 12.4921 16.1428 11.9397C16.1428 11.3913 16.03 10.9249 15.79 10.5465C15.5596 10.1608 15.2508 9.97245 14.8544 9.97245Z" fill="white"/>
<path d="M11.9999 2C6.4771 2 1.99988 6.47723 1.99988 12.0001C1.99988 17.5229 6.4771 22.0001 11.9999 22.0001C17.5228 22.0001 22 17.5229 22 12.0001C22 6.47723 17.5228 2 11.9999 2ZM8.06591 15.1213L7.51871 13.8089H5.0947L4.54589 15.1213H3.30909L5.8415 9.26684C5.9295 9.09284 6.1055 8.97404 6.3063 8.97404C6.52031 8.97404 6.70551 9.10844 6.78951 9.30164L9.30432 15.1209H8.06591V15.1213ZM11.3583 15.1213H10.2051V10.4665L9.18952 11.0009L8.70632 10.0592L10.2027 9.21204L10.5343 9.03004C10.6095 8.99764 10.6943 8.98004 10.7795 8.98004C11.1011 8.98004 11.3583 9.27364 11.3583 9.63805V15.1213ZM16.622 14.1733C16.1872 14.7729 15.5812 15.0805 14.8364 15.0805C14.336 15.0805 13.8991 14.9361 13.5191 14.6409C12.7675 14.0577 12.3967 13.0905 12.3967 11.9961C12.3967 11.4457 12.4835 10.9473 12.6687 10.4897C13.0495 9.56565 13.8323 8.91364 14.836 8.91364C15.5808 8.91364 16.1692 9.22004 16.6072 9.81885C17.052 10.4209 17.27 11.1493 17.27 11.9961C17.2704 12.8449 17.068 13.5701 16.622 14.1733ZM20.3788 9.63485V15.1213H19.2272V10.4645L18.2124 10.9981L17.7308 10.0596L19.2264 9.21244L19.5564 9.03044C19.63 8.99684 19.7172 8.97804 19.8044 8.97804C20.1244 8.97804 20.3816 9.27404 20.3816 9.63485C20.3812 9.65125 20.3788 9.61965 20.3788 9.63485Z" fill="white"/>
</svg>
