<svg xmlns="http://www.w3.org/2000/svg" width="142" height="24" viewBox="0 0 142 24" fill="none"><rect width="142" height="24" fill="none"/>
<path d="M9.34189 19.4159H11.9486V4.44532H8.15716C4.34471 4.44532 2.34164 6.40642 2.34164 9.29239C2.34164 11.5965 3.43922 12.9539 5.40032 14.3541L1.99704 19.4151H4.81844L8.6091 13.7505L7.29524 12.8676C5.70134 11.791 4.92578 10.9509 4.92578 9.14147C4.92578 7.54757 6.04595 6.47018 8.17814 6.47018H9.34108L9.34189 19.4159ZM43.5675 18.6831V16.5937C42.7702 17.1319 41.4353 17.6065 40.186 17.6065C38.3121 17.6065 37.6011 16.7228 37.4938 14.9134H43.6757V13.5576C43.6757 9.78791 42.0164 8.36591 39.4533 8.36591C36.33 8.36591 34.8443 10.7572 34.8443 14.0313C34.8443 17.8002 36.6964 19.6305 39.9706 19.6305C41.6072 19.6305 42.8138 19.1996 43.5675 18.6831ZM59.5921 19.6305C60.7768 19.6305 61.6169 19.4151 62.2416 18.9631V16.8737C61.5959 17.3256 60.8196 17.6065 59.743 17.6065C57.9118 17.6065 57.158 16.1845 57.158 13.9442C57.158 11.5965 58.0845 10.3908 59.7648 10.3908C60.755 10.3908 61.7243 10.7354 62.2416 11.0582V8.88403C61.7033 8.5822 60.755 8.36752 59.4847 8.36752C56.2106 8.36752 54.5093 10.7144 54.5093 14.0103C54.5093 17.6283 56.1678 19.6305 59.5921 19.6305ZM20.09 8.58139V12.8676H16.6658V8.58139H14.1026V19.4151H16.6658V14.8924H20.09V19.4151H22.6532V8.58139H20.09ZM34.2196 17.391H33.0777V8.58139H25.6045V9.50787C25.6045 12.1566 25.4318 15.5816 24.5271 17.391H23.7306V21.8927H26.0992V19.4151H31.8502V21.8927H34.2196V17.3902V17.391ZM51.7517 19.4151H54.6595L50.546 13.5786L54.1647 8.58139H51.5798L47.961 13.5786V8.58139H45.3979V19.4151H47.961V14.0951L51.7517 19.4151ZM39.4105 10.3908C40.6816 10.3908 41.0689 11.4464 41.0689 12.803V13.0185H37.4938C37.5583 11.2955 38.183 10.3908 39.4105 10.3908ZM30.5145 17.3902H26.8966C27.6068 15.7527 27.8004 12.8022 27.8004 10.9283V10.6054H30.5145V17.3902Z" fill="black"/>
<path d="M85.7707 11.9992C85.7707 6.47664 81.2933 2 75.7707 2C70.2474 2 65.7707 6.47664 65.7707 11.9992C65.7707 17.5226 70.2474 22 75.7699 22C81.2933 22 85.7707 17.5226 85.7707 11.9992Z" fill="#00ADFF"/>
<path d="M76.171 12.1703C77.016 7.71867 77.6172 6.94714 79.4605 7.08998C80.9027 7.20136 82.5789 9.28271 81.0657 13.7787C79.6082 18.1125 76.393 18.8824 74.0558 17.4975C72.3618 16.4928 71.0262 14.3227 70.521 13.125C69.7244 11.243 69.3064 9.18667 70.3539 8.06408C71.2118 7.14406 72.1972 6.70099 74.0558 8.81382C75.9144 10.9258 76.171 12.1703 76.171 12.1703Z" fill="white"/>
<path d="M88.1249 17.0464V19.4151C88.1249 19.4151 88.4913 19.6305 89.2023 19.6305C91.7436 19.6305 92.4546 17.5419 92.5837 12.071L92.7347 6.47018H96.3962V19.4159H99.0021V4.44613H90.387L90.1925 12.113C90.1069 15.7535 89.9125 17.2401 88.8577 17.2401C88.3403 17.2401 88.1249 17.0464 88.1249 17.0464ZM109.261 12.0274C109.261 9.39973 107.926 8.40868 105.212 8.40868C103.51 8.40868 102.175 8.94778 101.4 9.39973V11.5319C102.089 11.0154 103.597 10.4553 104.91 10.4553C106.138 10.4553 106.698 10.8863 106.698 12.0492V12.6521H106.289C102.369 12.6521 100.624 13.945 100.624 16.1417C100.624 18.3385 101.96 19.566 103.941 19.566C105.449 19.566 106.095 19.0705 106.591 18.5539H106.698C106.72 18.834 106.806 19.1996 106.892 19.4151H109.39C109.305 18.5348 109.262 17.6508 109.261 16.7664V12.0274ZM106.698 16.8309C106.375 17.3047 105.772 17.692 104.868 17.692C103.79 17.692 103.252 17.0464 103.252 16.0772C103.252 14.8061 104.135 14.3541 106.332 14.3541H106.698V16.8309ZM115.587 19.4159C118.128 19.4159 119.636 18.3385 119.636 16.2708C119.636 14.8488 118.775 14.0305 117.332 13.7723C118.494 13.4494 119.227 12.6303 119.227 11.3382C119.227 9.48608 117.999 8.58139 115.63 8.58139H111.322V19.4151L115.587 19.4159ZM115.264 10.5199C116.19 10.5199 116.707 10.9073 116.707 11.7264C116.707 12.4802 116.147 12.9321 115.178 12.9321H113.886V10.5199H115.264ZM115.307 14.8061C116.405 14.8061 116.987 15.1934 116.987 16.0981C116.987 17.0892 116.341 17.4766 115.307 17.4766H113.886V14.8061H115.307ZM127.709 19.4159H130.617L126.504 13.5786L130.121 8.58139H127.537L123.919 13.5786V8.58139H121.355V19.4151H123.919V14.0951L127.709 19.4159ZM139.34 12.0274C139.34 9.39973 138.005 8.40868 135.291 8.40868C133.589 8.40868 132.254 8.94778 131.478 9.39973V11.5319C132.167 11.0154 133.675 10.4553 134.989 10.4553C136.217 10.4553 136.777 10.8863 136.777 12.0492V12.6521H136.368C132.447 12.6521 130.703 13.945 130.703 16.1417C130.703 18.3385 132.038 19.566 134.019 19.566C135.528 19.566 136.173 19.0705 136.669 18.5539H136.777C136.798 18.834 136.884 19.1996 136.971 19.4151H139.469C139.383 18.5348 139.34 17.6508 139.34 16.7664V12.0274ZM136.777 16.8309C136.453 17.3047 135.851 17.692 134.946 17.692C133.869 17.692 133.33 17.0464 133.33 16.0772C133.33 14.8061 134.214 14.3541 136.411 14.3541H136.777V16.8309Z" fill="black"/>
</svg>
