<svg xmlns="http://www.w3.org/2000/svg" width="139" height="24" viewBox="0 0 139 24" fill="none"><rect width="139" height="24" fill="none"/>
<path d="M77.1661 22C82.6889 22 87.1661 17.5229 87.1661 12C87.1661 6.47715 82.6889 2 77.1661 2C71.6432 2 67.1661 6.47715 67.1661 12C67.1661 17.5229 71.6432 22 77.1661 22Z" fill="white"/>
<path fill-rule="evenodd" clip-rule="evenodd" d="M87.1661 12C87.1661 17.5229 82.6889 22 77.1661 22C71.6432 22 67.1661 17.5229 67.1661 12C67.1661 6.47715 71.6432 2 77.1661 2C78.2451 2 79.2842 2.17091 80.2579 2.48713L77.9787 9.5H71.3227L70.5094 12H77.1662L75.2162 18H77.9662L79.9162 12H87.1661ZM86.8511 9.5H80.7287L82.6371 3.62798C84.6924 4.97385 86.2221 7.05615 86.8511 9.5Z" fill="url(#paint0_linear_4241_53)"/>
<path d="M12.0001 19.4998V4.43311H8.18339C4.35006 4.43311 2.33339 6.39977 2.33339 9.31644C2.33339 11.6331 3.43339 12.9998 5.41673 14.3998L2.00006 19.4998H4.83339L8.65006 13.7998L7.33339 12.9164C5.71673 11.8331 4.93339 10.9831 4.93339 9.16644C4.93339 7.56644 6.06673 6.48311 8.20006 6.48311H9.36673V19.4998H12.0001ZM59.9334 19.7164C61.1167 19.7164 61.9667 19.4998 62.6001 19.0498V16.9498C61.9501 17.3998 61.1667 17.6831 60.0834 17.6831C58.2334 17.6831 57.4834 16.2498 57.4834 13.9998C57.4834 11.6331 58.4167 10.4164 60.1001 10.4164C61.1001 10.4164 62.0667 10.7664 62.5834 11.0831V8.89977C62.0501 8.59977 61.0834 8.38311 59.8167 8.38311C56.5167 8.38311 54.8167 10.7498 54.8167 14.0664C54.8167 17.6998 56.4834 19.7164 59.9334 19.7164ZM43.8167 18.7664V16.6664C43.0167 17.1998 41.6667 17.6831 40.4167 17.6831C38.5334 17.6831 37.8167 16.7998 37.7167 14.9831H43.9334V13.6164C43.9334 9.81644 42.2667 8.39977 39.6834 8.39977C36.5334 8.38311 35.0334 10.7831 35.0334 14.0831C35.0334 17.8831 36.9001 19.7164 40.1834 19.7164C41.8334 19.7164 43.0501 19.2831 43.8167 18.7664ZM20.2001 8.59977V12.9164H16.7501V8.59977H14.1667V19.4998H16.7501V14.9498H20.2001V19.4998H22.7834V8.59977H20.2001ZM34.4001 17.4664H33.2501V8.59977H25.7334V9.53311C25.7334 12.1998 25.5667 15.6498 24.6501 17.4664H23.8501V21.9998H26.2334V19.4998H32.0167V21.9831H34.4001V17.4664ZM52.0501 19.4998H54.9667L50.8334 13.6331L54.4667 8.59977H51.8667L48.2334 13.6331V8.59977H45.6501V19.4998H48.2334V14.1498L52.0501 19.4998ZM39.6334 10.4164C40.9167 10.4164 41.3001 11.4831 41.3001 12.8498V13.0664H37.7001C37.7667 11.3331 38.4001 10.4164 39.6334 10.4164ZM30.6834 17.4664H27.0334C27.7501 15.8164 27.9501 12.8498 27.9501 10.9664V10.6498H30.6834V17.4664Z" fill="black"/>
<path d="M102.09 4.44141H92.1667V19.4998H94.7884V6.47807H99.4684V19.4998H102.09V4.44141Z" fill="url(#paint1_linear_4241_53)"/>
<path d="M103.247 17.2681L103.399 17.3764C103.5 17.4342 103.644 17.4631 103.832 17.4631C104.251 17.4631 104.525 17.2464 104.655 16.8131C104.785 16.3797 104.872 15.5853 104.915 14.4297L105.132 8.60139H112.52V19.4998H109.942V10.6381H107.32L107.169 14.5381C107.125 15.7369 107.017 16.7192 106.844 17.4847C106.67 18.2503 106.382 18.8136 105.977 19.1748C105.573 19.5358 105.002 19.7164 104.265 19.7164C103.962 19.7164 103.717 19.6803 103.529 19.6081L103.247 19.4998V17.2681Z" fill="url(#paint2_linear_4241_53)"/>
<path d="M134.502 19.7164C132.783 19.7164 131.497 19.2324 130.645 18.2647C129.807 17.2825 129.388 15.8814 129.388 14.0614C129.388 12.9492 129.576 11.967 129.952 11.1147C130.327 10.2625 130.883 9.59806 131.62 9.12139C132.371 8.63027 133.296 8.38472 134.393 8.38472C135.029 8.38472 135.578 8.43527 136.04 8.53639C136.517 8.62306 136.892 8.74584 137.167 8.90472V11.0931C136.907 10.9342 136.553 10.7825 136.105 10.6381C135.657 10.4936 135.181 10.4214 134.675 10.4214C133.837 10.4214 133.187 10.7247 132.725 11.3314C132.277 11.9236 132.053 12.8119 132.053 13.9964C132.053 15.1231 132.256 16.0186 132.66 16.6831C133.065 17.3475 133.729 17.6797 134.653 17.6797C135.202 17.6797 135.679 17.6147 136.083 17.4847C136.488 17.3547 136.849 17.1742 137.167 16.9431V19.0448C136.546 19.4924 135.657 19.7164 134.502 19.7164Z" fill="url(#paint3_linear_4241_53)"/>
<path fill-rule="evenodd" clip-rule="evenodd" d="M126.735 9.85806C125.868 8.87584 124.742 8.38472 123.355 8.38472C122.127 8.38472 121.095 8.77472 120.257 9.55472C119.419 10.3203 118.906 11.4397 118.718 12.9131H117.245V8.60139H114.667V19.4998H117.245V14.9497H118.697C118.841 16.4953 119.332 17.6797 120.17 18.5031C121.022 19.3119 122.084 19.7164 123.355 19.7164C124.742 19.7164 125.868 19.2324 126.735 18.2647C127.616 17.2825 128.057 15.8742 128.057 14.0397C128.057 12.2197 127.616 10.8258 126.735 9.85806ZM124.872 16.8131C124.54 17.3908 124.034 17.6797 123.355 17.6797C122.676 17.6797 122.163 17.3908 121.817 16.8131C121.485 16.2353 121.318 15.3181 121.318 14.0614C121.318 12.7903 121.485 11.8658 121.817 11.2881C122.163 10.7103 122.676 10.4214 123.355 10.4214C124.034 10.4214 124.54 10.7103 124.872 11.2881C125.218 11.8658 125.392 12.7831 125.392 14.0397C125.392 15.3108 125.218 16.2353 124.872 16.8131Z" fill="url(#paint4_linear_4241_53)"/>
<defs>
<linearGradient id="paint0_linear_4241_53" x1="67.1661" y1="10.6667" x2="87.1661" y2="10.6667" gradientUnits="userSpaceOnUse">
<stop stop-color="#FF5C4D"/>
<stop offset="0.4" stop-color="#EB469F"/>
<stop offset="1" stop-color="#8341EF"/>
</linearGradient>
<linearGradient id="paint1_linear_4241_53" x1="2.00006" y1="12.1548" x2="614.949" y2="12.1548" gradientUnits="userSpaceOnUse">
<stop stop-color="#8341EF"/>
<stop offset="1" stop-color="#3F68F9"/>
</linearGradient>
<linearGradient id="paint2_linear_4241_53" x1="-159.505" y1="8.3197" x2="496.408" y2="8.3197" gradientUnits="userSpaceOnUse">
<stop stop-color="#8341EF"/>
<stop offset="1" stop-color="#3F68F9"/>
</linearGradient>
<linearGradient id="paint3_linear_4241_53" x1="-644.813" y1="8.58127" x2="137.167" y2="8.58127" gradientUnits="userSpaceOnUse">
<stop stop-color="#8341EF"/>
<stop offset="1" stop-color="#3F68F9"/>
</linearGradient>
<linearGradient id="paint4_linear_4241_53" x1="92.1667" y1="11.0606" x2="137.167" y2="11.0606" gradientUnits="userSpaceOnUse">
<stop stop-color="#8341EF"/>
<stop offset="1" stop-color="#3F68F9"/>
</linearGradient>
</defs>
</svg>
