<svg xmlns="http://www.w3.org/2000/svg" width="24" height="24" viewBox="0 0 24 24" fill="none"><rect width="24" height="24" fill="none"/>
<path fill-rule="evenodd" clip-rule="evenodd" d="M13.5448 2H5.86512L3.66113 4.09869V22H8.06912L10.2866 19.6221V16.1239H10.3258L13.4236 22H17.9883L20.3392 19.6221L16.7602 13.0224L16.7651 13.0102C17.0272 12.8588 17.2708 12.6776 17.4912 12.4702C17.7973 12.1922 18.0912 11.8653 18.3728 11.4894C18.6862 11.0841 18.9434 10.5674 19.1564 9.95519C19.3772 9.30384 19.4872 8.62012 19.4821 7.93241C19.4821 6.27942 18.9164 4.86886 17.7899 3.72768C16.6659 2.57181 15.2394 2 13.5448 2ZM10.2878 8.45892H11.2282C11.7192 8.45892 12.0939 8.62055 12.3938 8.93278L12.3975 8.93645C12.5995 9.14461 12.7404 9.38705 12.8101 9.67724H10.2878V8.45892ZM6.82876 2.83874V18.7834H9.4613V12.9085H13.1077L16.2055 18.7846H18.9421L15.6325 12.6832L16.2986 12.3086L16.3133 12.3024C16.4602 12.2339 16.6684 12.0906 16.9402 11.8433C17.201 11.607 17.4606 11.3192 17.7165 10.9776L17.7202 10.9739C17.9614 10.6617 18.1818 10.2344 18.374 9.67724C18.5589 9.14093 18.6544 8.55932 18.6544 7.93241C18.6544 6.49492 18.1707 5.29987 17.2034 4.32031L17.201 4.31786C16.2459 3.33586 15.0362 2.83997 13.5436 2.83997H6.82876V2.83874ZM9.4613 5.24232H13.4322C14.1644 5.24232 14.7925 5.49578 15.2872 6.01126C15.7892 6.52553 16.0341 7.17693 16.0341 7.93241C16.0341 8.65116 15.7831 9.27317 15.2835 9.77519C14.7876 10.2735 14.1595 10.5172 13.4322 10.5172H9.4613V5.24232Z" fill="#000000"/>
</svg>
