<svg xmlns="http://www.w3.org/2000/svg" width="24" height="24" viewBox="0 0 24 24" fill="none"><rect width="24" height="24" fill="none"/>
<path d="M4.87356 6.01078C3.85792 6.37794 3.50983 6.04416 3.2142 5.22878L2.8375 4.18452C2.47511 3.16888 2.80889 2.82079 3.6195 2.52993L4.66376 2.15323C5.6794 1.78608 6.02749 2.11986 6.32312 2.93523L6.69982 3.97949C7.06698 4.99513 6.73319 5.34322 5.91782 5.63885L4.87356 6.01078Z" fill="#FF4F3E"/>
<path d="M9.48453 6.01076C10.5002 6.37792 10.8483 6.04414 11.1439 5.22876L11.5206 4.18451C11.8877 3.16886 11.554 2.82078 10.7386 2.52514L9.69433 2.15321C8.67869 1.78606 8.33061 2.11984 8.03497 2.93521L7.65828 3.97947C7.29112 4.99512 7.6249 5.3432 8.44028 5.63883L9.48453 6.01076Z" fill="#FABC22"/>
<path d="M14.515 6.01076C13.4994 6.37792 13.1513 6.04414 12.8557 5.22876L12.479 4.1845C12.1118 3.16886 12.4456 2.82077 13.261 2.52514L14.3052 2.14845C15.3209 1.78129 15.669 2.11507 15.9646 2.93044L16.3413 3.9747C16.7085 4.99035 16.3747 5.33843 15.5593 5.63406L14.515 6.01076Z" fill="#06C92E"/>
<path d="M19.126 6.01076C20.1417 6.37792 20.4897 6.04414 20.7854 5.22876L21.1621 4.18451C21.5245 3.16886 21.1907 2.82078 20.3801 2.52991L19.3358 2.15321C18.3202 1.78606 17.9721 2.11984 17.6765 2.93521L17.2998 3.97947C16.9326 4.99512 17.2664 5.3432 18.0818 5.63883L19.126 6.01076Z" fill="#00C2FC"/>
<path d="M4.43996 19.5936C4.43996 19.6465 4.43239 19.6919 4.40969 19.7374C4.39455 19.7828 4.36429 19.8282 4.32645 19.8584C4.28861 19.8963 4.25078 19.919 4.20537 19.9417C4.15997 19.9644 4.10699 19.9719 4.06159 19.9719H3.29729C3.24431 19.9719 3.19891 19.9644 3.1535 19.9417C3.1081 19.9265 3.0627 19.8963 3.03243 19.8584C2.99459 19.8206 2.96431 19.7828 2.94918 19.7374C2.92648 19.6919 2.91892 19.639 2.91892 19.5936V15.8023C2.91892 15.7493 2.92648 15.7039 2.94918 15.651C2.97188 15.598 2.99459 15.5602 3.03243 15.5223C3.07026 15.4845 3.1081 15.4618 3.16107 15.4391C3.20647 15.4164 3.25945 15.4088 3.31242 15.4088H4.03132C4.12213 15.4088 4.21294 15.4315 4.28861 15.4769C4.37185 15.5147 4.43996 15.5753 4.49293 15.6434L5.65831 16.9601L6.73287 15.651C6.79341 15.5829 6.86153 15.5223 6.9372 15.4693C7.01287 15.4239 7.10368 15.4012 7.18692 15.4012H7.86798C7.92096 15.4012 7.96636 15.4088 8.01933 15.4315C8.06474 15.4542 8.11015 15.4769 8.14798 15.5147C8.18582 15.5526 8.20852 15.5904 8.23122 15.6434C8.25392 15.6964 8.26149 15.7418 8.26149 15.7947V19.586C8.26149 19.639 8.25392 19.6844 8.23122 19.7298C8.21609 19.7752 8.18582 19.8206 8.14798 19.8509C8.11015 19.8887 8.07231 19.9114 8.02691 19.9341C7.9815 19.9568 7.92853 19.9644 7.88312 19.9644H7.11882C7.06585 19.9644 7.02044 19.9568 6.96747 19.9341C6.92207 19.9114 6.87666 19.8887 6.83882 19.8509C6.80098 19.813 6.77828 19.7752 6.75558 19.7298C6.73288 19.6844 6.72531 19.6314 6.72531 19.586V17.732L5.8702 18.7082C5.83993 18.746 5.79452 18.7763 5.74911 18.799C5.70371 18.8217 5.65074 18.8293 5.60534 18.8293C5.55994 18.8293 5.50696 18.8217 5.46156 18.799C5.41615 18.7763 5.37832 18.7536 5.34048 18.7158L4.43996 17.732V19.5936Z" fill="#0073E6"/>
<path d="M12.8927 19.9795C12.8398 19.9795 12.7943 19.9719 12.7489 19.9492C12.7035 19.9341 12.6581 19.9038 12.6279 19.866C12.59 19.8282 12.5598 19.7903 12.5446 19.7449C12.5219 19.6995 12.5144 19.6465 12.5144 19.6011V17.5882L11.0614 19.7146C11.0084 19.7903 10.9479 19.8509 10.8722 19.8963C10.7966 19.9417 10.7133 19.9719 10.6225 19.9644H9.75226C9.69929 19.9644 9.65388 19.9568 9.60847 19.9341C9.56307 19.919 9.51767 19.8887 9.4874 19.8509C9.44956 19.813 9.42686 19.7752 9.40416 19.7298C9.38146 19.6844 9.37389 19.6314 9.37389 19.586V15.8023C9.37389 15.7493 9.38146 15.7039 9.40416 15.651C9.41929 15.6056 9.44956 15.5601 9.4874 15.5223C9.52524 15.4845 9.56308 15.4618 9.61605 15.4391C9.66145 15.4164 9.71443 15.4088 9.7674 15.4088H10.5166C10.5695 15.4088 10.6149 15.4164 10.6679 15.4391C10.7133 15.4618 10.7587 15.4845 10.7966 15.5223C10.8344 15.5601 10.8571 15.598 10.8798 15.651C10.9025 15.6964 10.9101 15.7493 10.9101 15.8023V17.7925L12.363 15.6661C12.416 15.598 12.4841 15.5374 12.5522 15.492C12.6203 15.4466 12.7111 15.4164 12.7944 15.4239H13.6797C13.7327 15.4239 13.7781 15.4315 13.8311 15.4542C13.8765 15.4769 13.9219 15.4996 13.9597 15.5374C13.9976 15.5753 14.0203 15.6131 14.043 15.6661C14.0657 15.7115 14.0732 15.7645 14.0732 15.8174V19.6087C14.0732 19.6617 14.0657 19.7071 14.043 19.7525C14.0278 19.7979 13.9976 19.8433 13.9597 19.8736C13.9219 19.9114 13.8841 19.9417 13.8386 19.9568C13.7932 19.9795 13.7403 19.9871 13.6949 19.9871H12.8927V19.9795Z" fill="#0073E6"/>
<path d="M16.6538 21.6216C16.6538 21.6746 16.6462 21.72 16.6235 21.7654C16.6084 21.8108 16.5781 21.8562 16.5403 21.8865C16.5024 21.9243 16.4646 21.947 16.4192 21.9697C16.3738 21.9924 16.3208 22 16.2754 22H15.5187C15.4657 22 15.4203 21.9924 15.3749 21.9697C15.3295 21.9546 15.2841 21.9243 15.2462 21.8865C15.2084 21.8487 15.1857 21.8108 15.163 21.7654C15.1403 21.72 15.1327 21.667 15.1327 21.6216V15.7947C15.1327 15.7418 15.1403 15.6964 15.163 15.6434C15.1781 15.598 15.2084 15.5526 15.2462 15.5147C15.2841 15.4769 15.3219 15.4542 15.3749 15.4315C15.4203 15.4088 15.4733 15.4012 15.5262 15.4012H16.3284C16.3738 15.4012 16.4116 15.4088 16.457 15.4239C16.4948 15.4391 16.5327 15.4618 16.563 15.492C16.5932 15.5223 16.6159 15.5602 16.6386 15.598C16.6538 15.6358 16.6613 15.6812 16.6613 15.7266V15.7342C16.8127 15.598 16.9867 15.492 17.1759 15.4164C17.4181 15.318 17.6678 15.2726 17.9251 15.2802C18.2126 15.2802 18.5002 15.3331 18.7651 15.4542C19.0148 15.5677 19.2342 15.7342 19.4083 15.9385C19.5899 16.158 19.7261 16.4077 19.8169 16.6801C19.9153 16.9828 19.9683 17.2931 19.9683 17.6109C19.9683 17.9439 19.9077 18.2693 19.7942 18.5795C19.6807 18.8747 19.5142 19.1395 19.2948 19.3665C19.0753 19.5936 18.8105 19.7752 18.5229 19.8963C18.2051 20.0325 17.857 20.093 17.5164 20.093C17.3575 20.093 17.2062 20.0779 17.0548 20.0552C16.9186 20.04 16.79 20.0022 16.6613 19.9492L16.6538 21.6216ZM16.6538 18.5114C16.7521 18.572 16.8581 18.6174 16.9716 18.6476C17.1002 18.6779 17.2289 18.6855 17.3651 18.6855C17.5013 18.6931 17.6375 18.6779 17.7662 18.6249C17.8948 18.572 18.0083 18.4887 18.0991 18.3904C18.2581 18.186 18.3413 17.9287 18.3337 17.6639C18.3413 17.4217 18.2581 17.1871 18.1067 16.998C18.0235 16.9071 17.9251 16.8315 17.804 16.7861C17.6905 16.7407 17.5618 16.718 17.4408 16.7255C17.2894 16.7331 17.1381 16.7709 17.0019 16.839C16.8657 16.9071 16.7446 17.0055 16.6538 17.1266V18.5114Z" fill="#0073E6"/>
<path d="M4.32645 13.7053C4.32645 13.7583 4.31888 13.8037 4.29618 13.8491C4.28104 13.8945 4.25078 13.9399 4.21294 13.9702C4.1751 14.008 4.13727 14.0383 4.09186 14.0534C4.04646 14.0761 3.99348 14.0837 3.94808 14.0837H3.29729C3.24431 14.0837 3.19891 14.0761 3.1535 14.0534C3.1081 14.0383 3.0627 14.008 3.03243 13.9702C2.99459 13.9323 2.97189 13.8945 2.94918 13.8491C2.92648 13.8037 2.91892 13.7507 2.91892 13.7053V12.0329C2.91892 11.98 2.92648 11.9346 2.94918 11.8892C2.97189 11.8437 2.99459 11.7983 3.03243 11.7681C3.07026 11.7302 3.1081 11.7075 3.1535 11.6848C3.19891 11.6697 3.25188 11.6546 3.29729 11.6546H3.5016C3.59998 11.5259 3.67565 11.3897 3.73619 11.2384C3.8043 11.0643 3.86484 10.8903 3.91024 10.7086C3.95565 10.5119 3.99348 10.3151 4.03132 10.1108C4.06159 9.9065 4.08429 9.70218 4.09943 9.49029L4.13726 8.89247C4.14483 8.78652 4.19024 8.68815 4.26591 8.62004C4.30375 8.5822 4.34915 8.55193 4.39456 8.5368C4.43996 8.5141 4.49293 8.50653 4.54591 8.50653H7.39124C7.44421 8.50653 7.48962 8.5141 7.54259 8.5368C7.588 8.5595 7.6334 8.5822 7.67124 8.62004C7.70907 8.65788 7.73177 8.69571 7.75448 8.74869C7.77718 8.79409 7.78475 8.84706 7.78475 8.90003V11.6621H8.15555C8.20852 11.6621 8.25393 11.6697 8.29933 11.6924C8.34473 11.7075 8.39014 11.7378 8.42041 11.7756C8.45824 11.8135 8.48852 11.8513 8.50365 11.8967C8.51879 11.9421 8.53392 11.9951 8.53392 12.0405V13.7129C8.53392 13.7659 8.52635 13.8113 8.50365 13.8567C8.48852 13.9021 8.45824 13.9475 8.42041 13.9778C8.38257 14.0156 8.34473 14.0383 8.29933 14.061C8.25393 14.0837 8.20095 14.0913 8.15555 14.0913H7.49719C7.44422 14.0913 7.39881 14.0837 7.35341 14.061C7.308 14.0459 7.2626 14.0156 7.23233 13.9778C7.19449 13.9399 7.17179 13.9021 7.14909 13.8567C7.12638 13.8113 7.11882 13.7583 7.11882 13.7129V13.0772H4.33402L4.32645 13.7053ZM6.241 9.93677H5.55993L5.5448 10.1184C5.51453 10.4438 5.44642 10.7616 5.35561 11.0719C5.29507 11.2762 5.20427 11.4729 5.09075 11.6621H6.241V9.93677Z" fill="#0073E6"/>
<path d="M10.5014 11.3065C10.5695 11.5108 10.7133 11.6848 10.9025 11.7832C11.1068 11.8892 11.3339 11.9421 11.5684 11.9346C11.7198 11.9346 11.8636 11.927 12.0149 11.9043C12.1436 11.8816 12.2722 11.8513 12.3933 11.8059C12.4614 11.7832 12.5371 11.7681 12.6127 11.7681C12.6884 11.7681 12.7565 11.7832 12.8246 11.821C12.8852 11.8589 12.9381 11.9119 12.9684 11.98L13.1198 12.3054C13.15 12.3583 13.1652 12.4264 13.1652 12.487C13.1652 12.5551 13.15 12.6232 13.1198 12.6762C13.0895 12.7367 13.0365 12.7821 12.9835 12.8199C12.7338 12.9637 12.4614 13.0697 12.1814 13.1302C11.9241 13.1756 11.6668 13.1983 11.4095 13.1983C11.0614 13.2059 10.7133 13.1453 10.3879 13.0243C10.1004 12.9183 9.83551 12.7518 9.61606 12.5399C9.3966 12.3281 9.23012 12.0632 9.11661 11.7832C8.99553 11.4654 8.93499 11.1324 8.93499 10.7994C8.93499 10.4816 8.99553 10.1638 9.11661 9.86866C9.23012 9.5811 9.3966 9.31624 9.61606 9.09679C9.83551 8.86976 10.1004 8.69571 10.3879 8.5822C10.7133 8.45356 11.0614 8.39302 11.4095 8.39302C11.6971 8.39302 11.9771 8.44599 12.2419 8.54437C12.5068 8.64274 12.7414 8.79409 12.9457 8.98328C13.15 9.17246 13.3165 9.40705 13.43 9.65677C13.5511 9.93677 13.6192 10.2319 13.6116 10.5422C13.6116 10.6935 13.6041 10.8449 13.5814 10.9962C13.5662 11.0794 13.5208 11.1475 13.4527 11.2081C13.3922 11.2686 13.3165 11.2989 13.2333 11.3065H10.5014ZM12.0906 10.2924C12.0906 10.126 12.0225 9.9746 11.9014 9.86109C11.8257 9.79299 11.7425 9.74001 11.6441 9.70218C11.5457 9.67191 11.4474 9.65677 11.349 9.66434C11.1447 9.64921 10.9328 9.70218 10.7587 9.81569C10.615 9.93677 10.509 10.1032 10.4485 10.2773L12.0906 10.2924Z" fill="#0073E6"/>
<path d="M15.7154 13.0772C15.6624 13.0772 15.617 13.0697 15.5716 13.047C15.5262 13.0318 15.4808 13.0016 15.4505 12.9637C15.4127 12.9259 15.3824 12.888 15.3673 12.8426C15.3446 12.7972 15.337 12.7443 15.337 12.6989V10.0351H14.4062C14.3532 10.0351 14.3078 10.0276 14.2624 10.0049C14.217 9.98974 14.1716 9.95947 14.1413 9.92163C14.1035 9.88379 14.0732 9.84596 14.0581 9.80055C14.0354 9.75515 14.0278 9.70218 14.0278 9.65677V8.90003C14.0278 8.84706 14.0354 8.80166 14.0581 8.74869C14.0808 8.70328 14.1035 8.65788 14.1413 8.62004C14.1792 8.5822 14.217 8.5595 14.27 8.5368C14.3154 8.5141 14.3684 8.50653 14.4213 8.50653H17.8115C17.8645 8.50653 17.9099 8.5141 17.9553 8.5368C18.0007 8.5595 18.0461 8.5822 18.084 8.62004C18.1218 8.65788 18.1445 8.69571 18.1672 8.74112C18.1899 8.78652 18.1975 8.83949 18.1975 8.8849V9.64164C18.1975 9.69461 18.1899 9.74001 18.1672 9.78542C18.1445 9.83082 18.1218 9.87623 18.084 9.91406C18.0461 9.9519 18.0083 9.9746 17.9629 9.99731C17.9175 10.02 17.8645 10.0276 17.8191 10.0276H16.8883V12.6837C16.8883 12.7367 16.8807 12.7821 16.858 12.8275C16.8429 12.8729 16.8126 12.9183 16.7748 12.9486C16.737 12.9864 16.6991 13.0167 16.6537 13.0318C16.6083 13.0545 16.5553 13.0621 16.5099 13.0621H16.5024L15.7154 13.0772Z" fill="#0073E6"/>
</svg>
