<svg xmlns="http://www.w3.org/2000/svg" width="24" height="24" viewBox="0 0 24 24" fill="none"><rect width="24" height="24" fill="none"/>
<path fill-rule="evenodd" clip-rule="evenodd" d="M16.8745 8.37166L19.3338 10.8433C16.4918 11.1463 14.8835 12.7268 14.5622 15.6387L12.1028 13.1671C14.9772 12.88 16.5736 11.2875 16.8745 8.37166Z" fill="#002ED9"/>
<path d="M17.6169 10.0898C18.6191 11.097 20.2446 11.0965 21.2475 10.0886C22.2504 9.08071 22.2509 7.44714 21.2487 6.4399C20.2464 5.43266 18.6209 5.43319 17.618 6.44108C16.6152 7.44897 16.6146 9.08254 17.6169 10.0898Z" fill="#002ED9"/>
<path d="M10.1842 17.5605C11.1864 18.5677 12.8119 18.5672 13.8148 17.5593C14.8177 16.5514 14.8182 14.9178 13.8159 13.9106C12.8137 12.9033 11.1882 12.9039 10.1853 13.9118C9.18244 14.9197 9.18193 16.5532 10.1842 17.5605Z" fill="#002ED9"/>
<path d="M2.75134 10.0898C3.75358 11.097 5.37907 11.0965 6.38196 10.0886C7.38485 9.08071 7.38537 7.44714 6.38314 6.4399C5.38089 5.43266 3.7554 5.43319 2.75251 6.44108C1.74962 7.44897 1.7491 9.08254 2.75134 10.0898Z" fill="#E63536"/>
<path d="M10.1842 10.0898C11.1864 11.097 12.8119 11.0965 13.8148 10.0886C14.8177 9.08071 14.8182 7.44714 13.8159 6.4399C12.8137 5.43266 11.1882 5.43319 10.1853 6.44108C9.18244 7.44897 9.18193 9.08254 10.1842 10.0898Z" fill="#002ED9"/>
</svg>
