<svg xmlns="http://www.w3.org/2000/svg" width="24" height="24" viewBox="0 0 24 24" fill="none"><rect width="24" height="24" fill="none"/>
<path d="M12 14.1994C13.215 14.1994 14.2 13.2145 14.2 11.9994C14.2 10.7845 13.215 9.79945 12 9.79945C10.785 9.79945 9.79997 10.7845 9.79997 11.9994C9.79997 13.2145 10.785 14.1994 12 14.1994Z" fill="white"/>
<path d="M20.0074 8.6868C19.4036 7.274 19.3224 5.69236 19.7786 4.2252L19.7917 4.2296C19.7874 4.2252 19.7829 4.2208 19.7786 4.2208C18.3114 4.67625 16.7302 4.59674 15.3161 3.9964C13.8928 3.41948 12.7191 2.35822 12.0022 1H11.9978C11.2809 2.35821 10.1072 3.41946 8.68396 3.9964C7.26981 4.59666 5.68866 4.67616 4.22145 4.2208V4.2252C4.67536 5.69264 4.59426 7.27349 3.99258 8.6868C3.41846 10.1105 2.3581 11.2844 1 12C2.35903 12.7144 3.41974 13.8888 3.99258 15.3132C4.59434 16.725 4.67545 18.3044 4.22145 19.7704L4.20825 19.766L4.22145 19.7792C5.68866 19.3239 7.26981 19.4033 8.68396 20.0036C10.1077 20.5775 11.2819 21.6376 11.9978 22.9956L11.989 23H12.011L12.0022 22.9956C12.7298 21.646 13.9009 20.5889 15.3177 20.003C16.7346 19.4169 18.3102 19.3379 19.7786 19.7792C19.7869 19.7747 19.7943 19.7688 19.8005 19.7616L19.7786 19.7704C19.34 18.3023 19.4209 16.7279 20.0077 15.3124C20.5945 13.897 21.6513 12.7272 23 12C21.6419 11.2844 20.5816 10.1105 20.0074 8.6868ZM19.8798 15.2604C18.4735 15.848 16.9038 15.9151 15.4525 15.4496C15.9181 16.9006 15.8509 18.4701 15.2632 19.876C13.8541 19.2974 12.6977 18.2349 12.0022 16.8796H11.9978C11.3023 18.2349 10.1459 19.2974 8.73676 19.876C8.15033 18.4696 8.08481 16.9 8.55191 15.4496H8.54748C7.09771 15.9152 5.52936 15.8481 4.12461 15.2604C4.70359 13.8525 5.76646 12.6978 7.12162 12.0044V12C5.76621 11.3048 4.70345 10.1486 4.12461 8.7396C5.52936 8.15194 7.09771 8.08484 8.54748 8.5504H8.55191C8.08481 7.09995 8.15033 5.53045 8.73676 4.124C10.1459 4.70259 11.3023 5.76512 11.9978 7.1204H12.0022C12.6977 5.76512 13.8541 4.70259 15.2632 4.124C15.8509 5.52996 15.918 7.09941 15.4525 8.5504C16.9038 8.08491 18.4735 8.15201 19.8798 8.7396C19.3008 10.1475 18.2379 11.3022 16.8828 11.9956V12C18.2382 12.6952 19.301 13.8514 19.8798 15.2604Z" fill="white" fill-opacity="0.4"/>
<path d="M16.8828 12V11.9956C18.2379 11.3016 19.3005 10.1462 19.8808 8.73875C18.474 8.15115 16.9042 8.08497 15.4525 8.5504C15.918 7.09941 15.8509 5.52996 15.2632 4.124C13.8541 4.70259 12.6977 5.76512 12.0022 7.1204H11.9978C11.3025 5.76521 10.1468 4.70179 8.73783 4.12312C8.14982 5.52911 8.08348 7.09894 8.55084 8.54955H8.54862C7.09839 8.08393 5.52979 8.15188 4.12461 8.7396C4.70324 10.1485 5.76562 11.3038 7.12082 11.9991V12.0035C5.76587 12.697 4.70338 13.8526 4.12461 15.2604C5.52979 15.8481 7.09839 15.9143 8.54862 15.4487H8.55084C8.08348 16.8993 8.14982 18.4692 8.73783 19.8751C10.1468 19.2965 11.3025 18.2347 11.9978 16.8796H12.0022C12.6977 18.2349 13.8541 19.2974 15.2632 19.876C15.8509 18.4701 15.9181 16.9006 15.4525 15.4496C16.9042 15.915 18.474 15.8471 19.8808 15.2595C19.3007 13.8508 18.2381 12.6957 16.8828 12ZM12 14.1994C11.5648 14.1994 11.14 14.0701 10.7782 13.8284C10.4164 13.5866 10.1344 13.2431 9.96791 12.841C9.80143 12.439 9.75781 11.9967 9.8427 11.57C9.92759 11.1432 10.1371 10.7512 10.4448 10.4435C10.7525 10.1358 11.1445 9.9263 11.5712 9.8414C11.998 9.75651 12.4404 9.80005 12.8423 9.96661C13.2444 10.1331 13.588 10.4151 13.8297 10.7769C14.0714 11.1386 14.2 11.5643 14.2 11.9994C14.1997 12.5828 13.9684 13.142 13.5559 13.5545C13.1433 13.967 12.5834 14.1992 12 14.1994Z" fill="white" fill-opacity="0.7"/>
</svg>
