<svg xmlns="http://www.w3.org/2000/svg" width="24" height="24" viewBox="0 0 24 24" fill="none"><rect width="24" height="24" fill="none"/>
<path d="M10.1297 12.5384H12.1668V14.6534H13.8344V12.5384H15.8715V18.5133H13.8348V16.3406H12.1673V18.5017H10.1302L10.1297 12.5384Z" fill="#000000"/>
<path d="M16.5826 14.2257H18.2837V18.5133H20.3096V14.2257H22V12.5389H16.5826V14.2257Z" fill="#000000"/>
<path d="M4.05947 12.5384H2V18.5021H3.98118V15.601L5.3467 17.5889L6.75697 15.555V18.5133H8.79362V12.5384H6.7346L5.39144 14.6073L4.05947 12.5384Z" fill="#000000"/>
<path d="M13.846 5.48657V7.17335H12.1556V11.4614H10.1302L10.1297 7.17379L8.42396 7.17335V5.48657H13.846Z" fill="#000000"/>
<path d="M4.03322 5.48657H2V11.4839H4.03322V9.30306H5.69757V11.4839H7.73078V5.48657H5.69757V7.60949H4.03322V5.48657Z" fill="#000000"/>
</svg>
