<svg xmlns="http://www.w3.org/2000/svg" width="76" height="24" viewBox="0 0 76 24" fill="none"><rect width="76" height="24" fill="none"/>
<path d="M9.82933 4C5.51824 4 2 7.59494 2 12C2 16.4051 5.51824 20 9.82933 20C14.19 20 17.6587 16.4051 17.6587 12C17.6587 7.59494 14.19 4 9.82933 4ZM9.82933 16.3038C7.50035 16.3038 5.61735 14.3797 5.61735 12C5.61735 9.62025 7.50035 7.6962 9.82933 7.6962C12.1583 7.6962 14.0413 9.62025 14.0413 12C14.0413 14.3797 12.1583 16.3038 9.82933 16.3038ZM45.9532 4C39.8582 4 34.9525 7.59494 34.9525 12C34.9525 16.4051 39.8582 20 45.9532 20C52.0481 20 56.9539 16.4051 56.9539 12C56.9539 7.59494 51.9986 4 45.9532 4ZM45.9532 16.3038C41.7412 16.3038 38.6194 14.0253 38.6194 12.0506C38.6194 10.0759 41.7412 7.79747 45.9532 7.79747C50.1652 7.79747 53.287 10.0759 53.287 12.0506C53.287 14.0253 50.1156 16.3038 45.9532 16.3038ZM72.1668 4.35443C71.1752 4.35443 70.3329 5.21519 70.3329 6.22785V12.5063L60.4226 4.4557C60.0757 4.1519 59.5801 4.40506 59.5801 4.86076V17.7721C59.5801 18.7848 60.4226 19.6456 61.4136 19.6456C62.4046 19.6456 63.2471 18.7848 63.2471 17.7721V11.5443L73.1577 19.5949C73.5042 19.8987 74 19.6456 74 19.1899V6.22785C74 5.21519 73.1577 4.35443 72.1668 4.35443ZM32.0784 15.9494H25.8348L33.7632 5.21519C34.011 4.86076 33.7632 4.35443 33.3668 4.35443H21.8706C20.8796 4.35443 20.0371 5.21519 20.0371 6.22785C20.0371 7.24051 20.8796 8.10127 21.8706 8.10127H27.0736L19.0957 18.8355C18.8479 19.1899 19.0957 19.6962 19.5416 19.6962H32.0784C33.0695 19.6962 33.9119 18.8355 33.9119 17.8228C33.9119 16.8101 33.0695 15.9494 32.0784 15.9494Z" fill="white"/>
</svg>
