<svg xmlns="http://www.w3.org/2000/svg" width="24" height="24" viewBox="0 0 24 24" fill="none"><rect width="24" height="24" fill="none"/>
<path fill-rule="evenodd" clip-rule="evenodd" d="M3.40589 3.40589C2 4.81177 2 7.07452 2 11.6V12.4C2 16.9255 2 19.1882 3.40589 20.5941C4.81177 22 7.07452 22 11.6 22H12.4C16.9255 22 19.1882 22 20.5941 20.5941C22 19.1882 22 16.9255 22 12.4V11.6C22 7.07452 22 4.81177 20.5941 3.40589C19.1882 2 16.9255 2 12.4 2H11.6C7.07452 2 4.81177 2 3.40589 3.40589ZM5.37503 8.08337C5.48336 13.2834 8.08334 16.4084 12.6417 16.4084H12.9001V13.4334C14.5751 13.6 15.8416 14.825 16.35 16.4084H18.7167C18.0667 14.0417 16.3583 12.7334 15.2916 12.2334C16.3583 11.6167 17.8583 10.1167 18.2166 8.08337H16.0666C15.5999 9.73337 14.2167 11.2334 12.9001 11.375V8.08337H10.75V13.85C9.41666 13.5167 7.73336 11.9 7.65836 8.08337H5.37503Z" fill="white"/>
</svg>
