<svg xmlns="http://www.w3.org/2000/svg" width="134" height="24" viewBox="0 0 134 24" fill="none"><rect width="134" height="24" fill="none"/>
<path d="M8.65025 10.4793L12.5738 16.3179H10.3772L6.99904 11.3379H5.37815V16.3179H3.45427V7.09164H2L2.96951 5.2339H5.37815V9.62066H6.99904L10.2105 5.2339H12.392L8.65025 10.4793ZM11.983 12.3214C11.983 11.4576 12.1748 10.703 12.5586 10.0578C12.9323 9.45412 13.4423 8.99102 14.0886 8.66837C14.735 8.34573 15.4318 8.18443 16.1791 8.18443C16.9467 8.18443 17.6385 8.34054 18.2545 8.65277C18.9009 8.97542 19.4109 9.45412 19.7845 10.089C20.1582 10.7134 20.345 11.4576 20.345 12.3214C20.345 13.1956 20.1582 13.9502 19.7845 14.585C19.4109 15.2095 18.9009 15.6934 18.2545 16.0369C17.6182 16.3699 16.9265 16.5364 16.1791 16.5364C15.4419 16.5364 14.7501 16.3699 14.1038 16.0369C13.4474 15.7039 12.9272 15.2199 12.5435 14.585C12.1698 13.9398 11.983 13.1852 11.983 12.3214ZM44.6586 8.43423H46.3704V9.51136C46.633 9.09508 46.9814 8.77767 47.4157 8.55908C47.86 8.33012 48.4306 8.21564 49.1274 8.21564C49.8445 8.21564 50.4808 8.38218 51.0362 8.71519C51.5714 9.05863 51.9855 9.54781 52.2784 10.1827C52.5813 10.8071 52.7328 11.5252 52.7328 12.337C52.7328 13.1592 52.5813 13.8878 52.2784 14.5226C51.9855 15.147 51.5714 15.631 51.0362 15.9745C50.7837 16.1514 50.4858 16.2814 50.1424 16.3647C49.8092 16.4584 49.4708 16.5052 49.1274 16.5052C48.5316 16.5052 48.0873 16.4584 47.7944 16.3647C47.1885 16.1774 46.7592 15.8652 46.5067 15.428V19.1123H44.6586V8.43423ZM21.3297 8.43423H23.1627V11.4316H26.2985V8.43423H28.1163V16.3179H26.2985V12.9927H23.1627V16.3179H21.3297V8.43423ZM28.9192 8.43423H35.9633V9.93288H33.3577V16.3179H31.4944V9.93288H28.9192V8.43423ZM38.4931 8.43423C39.1798 10.37 39.806 12.285 40.3716 14.1791C40.9068 12.3058 41.5127 10.3908 42.1894 8.43423H44.0375L41.2199 16.474C40.9876 17.1297 40.7654 17.6345 40.5533 17.9883C40.321 18.3422 40.0332 18.6075 39.6898 18.7845C39.3566 18.9718 38.9122 19.0655 38.3568 19.0655C38.0437 19.0655 37.872 19.0603 37.8417 19.0499L37.2206 17.5512C37.4125 17.5928 37.6498 17.6136 37.9326 17.6136C38.276 17.6136 38.5537 17.5616 38.7658 17.4575C38.9577 17.3742 39.1041 17.2597 39.2051 17.1141C39.3061 16.9788 39.3919 16.807 39.4626 16.5989L36.5541 8.43423H38.4931ZM13.8462 12.3058C13.8462 13.1696 14.0482 13.8305 14.4522 14.2884C14.8562 14.736 15.4167 14.9597 16.1337 14.9597C16.8608 14.9597 17.4264 14.736 17.8304 14.2884C18.2444 13.8305 18.4514 13.1696 18.4514 12.3058C18.4514 11.4628 18.2494 10.8279 17.8455 10.4012C17.4415 9.96409 16.8709 9.74556 16.1337 9.74556C15.4066 9.74556 14.841 9.96409 14.437 10.4012C14.0432 10.8279 13.8462 11.4628 13.8462 12.3058ZM46.4613 12.3214C46.4815 13.1019 46.6835 13.7264 47.0673 14.1947C47.451 14.6631 47.9913 14.8973 48.6881 14.8973C49.385 14.8973 49.9202 14.6631 50.2939 14.1947C50.6777 13.7264 50.8746 13.1019 50.8847 12.3214C50.8746 11.5512 50.6777 10.9372 50.2939 10.4793C49.9202 10.011 49.385 9.77677 48.6881 9.77677C47.9913 9.77677 47.451 10.0057 47.0673 10.4636C46.6835 10.9216 46.4815 11.5408 46.4613 12.3214Z" fill="#222222"/>
<path d="M64.7986 5.23022V14.86H66.0915V18.2829H64.7376V16.0314H56.614V18.2829H55.2447V14.86H56.1424C56.771 14.0182 57.1614 12.8468 57.3134 11.3458C57.3744 10.646 57.4101 9.94623 57.42 9.24641L57.4507 5.23022H64.7986ZM63.3986 6.40162H58.7436L58.7134 9.36813C58.703 10.7373 58.6014 11.8631 58.4087 12.7454C58.216 13.6176 57.9426 14.3225 57.5874 14.86H63.3986V6.40162ZM74.561 14.6926C74.0235 15.2505 73.486 15.6511 72.9485 15.8945C72.4111 16.1277 71.7825 16.2444 71.0622 16.2444C70.2507 16.2444 69.5458 16.077 68.9474 15.7423C68.3391 15.4077 67.8675 14.9361 67.5326 14.3276C67.1983 13.719 67.0308 13.0091 67.0308 12.1977C67.0308 11.4269 67.1928 10.7271 67.5178 10.0984C67.8521 9.47968 68.3138 8.99793 68.9018 8.65316C69.5002 8.30833 70.1953 8.13589 70.9858 8.13589C72.102 8.13589 72.9689 8.46551 73.5876 9.12475C74.2162 9.78394 74.5308 10.6917 74.5308 11.8479C74.5308 11.9189 74.5203 12.1064 74.5 12.4107H68.3847C68.4352 12.9584 68.562 13.43 68.7651 13.8255C68.988 14.2414 69.2977 14.5659 69.6929 14.7992C70.0888 15.0324 70.5653 15.149 71.1231 15.149C71.6501 15.149 72.1168 15.0527 72.5225 14.86C72.9387 14.6673 73.3592 14.3428 73.7852 13.8864L74.561 14.6926ZM73.2834 11.4523C73.2527 10.7525 73.0298 10.1998 72.6136 9.7941C72.2085 9.37828 71.6606 9.17037 70.971 9.17037C70.2914 9.17037 69.7237 9.37828 69.2669 9.7941C68.8107 10.1998 68.5318 10.7525 68.4302 11.4523H73.2834ZM78.4984 12.6389H77.1748V16.0314H75.8665V8.3489H77.1748V11.574H78.5138L81.0387 8.3489H82.4386L79.5635 12.0456L82.6818 16.0314H81.1908L78.4984 12.6389ZM83.025 14.9057C83.177 14.9462 83.3395 14.9665 83.5119 14.9665C83.7958 14.9665 84.0088 14.8904 84.151 14.7383C84.2926 14.576 84.3892 14.3022 84.4398 13.9168C84.4903 13.4807 84.526 12.9178 84.5463 12.2282L84.6374 8.3489H90.3273V16.0314H89.019V9.41375H85.809L85.7327 12.3195C85.7025 13.3641 85.6366 14.1298 85.535 14.6166C85.4236 15.144 85.221 15.5243 84.9267 15.7575C84.6429 15.9908 84.2114 16.1075 83.6333 16.1075L83.3291 16.077L83.025 16.0162V14.9057ZM97.1695 16.0314V14.9969C96.8956 15.4026 96.5305 15.717 96.0743 15.9401C95.6175 16.1531 95.0904 16.2596 94.492 16.2596C93.64 16.2596 92.9707 16.0669 92.4838 15.6815C92.0072 15.2961 91.769 14.7535 91.769 14.0537V13.9776C91.769 13.2069 92.0374 12.6237 92.5749 12.2282C93.1228 11.8225 93.9644 11.5892 95.1003 11.5283L97.1086 11.3915V10.8742C97.1086 10.3266 96.951 9.91581 96.637 9.64197C96.3224 9.35797 95.8662 9.216 95.2678 9.216C94.7709 9.216 94.3196 9.31745 93.9139 9.52025C93.5181 9.71295 93.1124 10.0375 92.6968 10.4939L91.8601 9.73327C92.7423 8.66836 93.8684 8.13589 95.237 8.13589C96.2208 8.13589 96.9867 8.36916 97.5346 8.8357C98.082 9.30219 98.3559 9.95128 98.3559 10.7829V16.0314H97.1695ZM95.1915 12.4563C94.4003 12.4969 93.8426 12.6288 93.5181 12.8519C93.1936 13.075 93.0317 13.43 93.0317 13.9168V13.9929C93.0317 14.3884 93.1783 14.6926 93.4725 14.9057C93.7767 15.1186 94.2027 15.2251 94.7506 15.2251C95.1865 15.2251 95.5873 15.1389 95.9524 14.9665C96.3175 14.7941 96.6013 14.5557 96.8044 14.2515C97.007 13.9371 97.1086 13.5821 97.1086 13.1866V12.3651L95.1915 12.4563ZM108.127 12.1977C108.127 12.9888 107.974 13.6886 107.67 14.2971C107.356 14.9057 106.915 15.3773 106.347 15.7119C105.779 16.0466 105.13 16.2139 104.399 16.2139C103.031 16.2139 102.067 15.7829 101.509 14.9209V18.7697H100.201V8.3489H101.418V9.7028C102.016 8.66836 103.015 8.15109 104.415 8.15109C105.125 8.15109 105.764 8.31338 106.332 8.63789C106.9 8.98272 107.341 9.45432 107.655 10.0527C107.97 10.6511 108.127 11.3408 108.127 12.1217V12.1977ZM106.803 12.1217C106.803 11.5537 106.697 11.0517 106.484 10.6156C106.26 10.1897 105.946 9.85493 105.541 9.61155C105.145 9.36813 104.694 9.24641 104.187 9.24641C103.669 9.24641 103.203 9.36307 102.787 9.59635C102.361 9.83972 102.031 10.1744 101.798 10.6004C101.565 11.0263 101.448 11.5335 101.448 12.1217V12.1977C101.448 13.0801 101.697 13.79 102.194 14.3276C102.691 14.8549 103.35 15.1186 104.172 15.1186C104.678 15.1186 105.135 14.9919 105.541 14.7383C105.936 14.4949 106.246 14.1551 106.469 13.719C106.691 13.2728 106.803 12.7657 106.803 12.1977V12.1217ZM114.611 16.0314V14.9969C114.337 15.4026 113.972 15.717 113.516 15.9401C113.059 16.1531 112.532 16.2596 111.933 16.2596C111.081 16.2596 110.412 16.0669 109.925 15.6815C109.449 15.2961 109.21 14.7535 109.21 14.0537V13.9776C109.21 13.2069 109.479 12.6237 110.016 12.2282C110.564 11.8225 111.406 11.5892 112.542 11.5283L114.55 11.3915V10.8742C114.55 10.3266 114.393 9.91581 114.078 9.64197C113.764 9.35797 113.308 9.216 112.709 9.216C112.212 9.216 111.761 9.31745 111.355 9.52025C110.959 9.71295 110.554 10.0375 110.138 10.4939L109.301 9.73327C110.184 8.66836 111.31 8.13589 112.679 8.13589C113.662 8.13589 114.428 8.36916 114.976 8.8357C115.523 9.30219 115.797 9.95128 115.797 10.7829V16.0314H114.611ZM112.633 12.4563C111.842 12.4969 111.284 12.6288 110.959 12.8519C110.635 13.075 110.473 13.43 110.473 13.9168V13.9929C110.473 14.3884 110.62 14.6926 110.914 14.9057C111.218 15.1186 111.644 15.2251 112.192 15.2251C112.628 15.2251 113.029 15.1389 113.394 14.9665C113.759 14.7941 114.043 14.5557 114.246 14.2515C114.448 13.9371 114.55 13.5821 114.55 13.1866V12.3651L112.633 12.4563ZM122.815 16.0314V12.6237H118.966V16.0314H117.657V8.3489H118.966V11.5588H122.815V8.3489H124.123V16.0314H122.815ZM129.307 9.41375V16.0314H127.999V9.41375H125.306V8.3489H132V9.41375H129.307Z" fill="#26AD50"/>
</svg>
