<svg xmlns="http://www.w3.org/2000/svg" width="81" height="24" viewBox="0 0 81 24" fill="none"><rect width="81" height="24" fill="none"/>
<path d="M14.4825 14.9292C14.4825 12.9803 13.4324 11.9883 12.1582 11.3873C9.45056 10.0802 5.46866 10.6812 5.46866 8.35885C5.46866 7.25017 6.36532 6.52078 8.15274 6.52078C10.7483 6.52078 10.9489 8.00291 11.0374 8.84319H14.2111C13.9633 5.12618 11.1672 4 8.03478 4C5.02033 4 2.27136 5.52881 2.27136 8.58056C2.27136 10.0861 2.85537 11.1247 3.59275 11.7666C6.07627 13.9373 11.3795 12.741 11.3795 15.2852C11.3795 17.0299 9.54491 17.3858 8.22354 17.3858C6.30043 17.3858 5.2032 16.5456 5.2032 14.8417H2C2.08849 18.3136 4.5956 19.9766 8.08194 19.9766C11.9753 19.9766 14.4825 18.3369 14.4825 14.9292Z" fill="#000000"/>
<path d="M77.0776 13.9548V4.26259H72.9838L66.654 13.8205V16.388H74.1042V19.574H77.0776V16.388H78.8887V13.9548H77.0776ZM74.1042 13.9548H69.3616L74.1042 6.85339V13.9548Z" fill="#000000"/>
<path d="M61.1914 4C57.2332 4 55.4221 6.2582 55.4634 9.55505H58.4603C58.3243 7.16264 59.7345 6.5908 61.1207 6.5908C62.5069 6.5908 63.5394 7.49525 63.5394 8.77896C63.5394 9.75345 63.3149 10.6404 61.7518 11.9241L55.735 16.7673V19.574H66.4949V16.9832H59.6047L63.834 13.6222C65.5096 12.2742 66.5598 10.9263 66.5598 8.7323C66.5598 5.97228 64.4123 4 61.1914 4Z" fill="#000000"/>
<path d="M54.8025 10.4595V7.44856H53.9061C52.4314 7.44856 51.287 8.1371 50.7323 9.23994V7.44856H47.8239V19.574H50.8443V13.1145C50.8443 11.1889 52.0065 10.4595 53.9532 10.4595H54.8025Z" fill="#000000"/>
<path d="M30.6696 4.26259H27.6492V19.574H30.6696V4.26259Z" fill="#000000"/>
<path d="M34.5572 4.26259H31.5368V19.574H34.5572V4.26259Z" fill="#000000"/>
<path d="M26.8115 13.8264C26.8115 10.2436 24.8648 7.56531 21.172 7.56531C17.8154 7.56531 15.2198 9.73598 15.2198 13.8498C15.2198 17.9635 17.7505 20 21.172 20C24.4165 20 26.2511 18.2728 26.6286 15.8629L23.5611 15.7987C23.3134 16.9249 22.3341 17.5259 21.1248 17.5259C18.9126 17.5259 18.3522 15.8454 18.3522 14.4741H26.8056V13.8264H26.8115ZM18.4702 12.321C18.6295 10.8797 19.7444 10.0219 21.1543 10.0219C22.3872 10.0219 23.5257 10.6638 23.6142 12.321H18.4702Z" fill="#000000"/>
<path d="M47.0043 13.803C47.0043 10.2202 45.0574 7.54187 41.3646 7.54187C38.008 7.54187 35.4124 9.71256 35.4124 13.8263C35.4124 17.9401 37.9373 19.9766 41.3646 19.9766C44.6091 19.9766 46.4437 18.2493 46.8212 15.8394L43.7537 15.7753C43.506 16.9014 42.5267 17.5024 41.3174 17.5024C39.1053 17.5024 38.5449 15.8219 38.5449 14.4507H46.9981V13.803H47.0043ZM38.6628 12.2975C38.8221 10.8562 39.937 9.99847 41.3469 9.99847C42.5798 9.99847 43.7184 10.6403 43.8068 12.2975H38.6628Z" fill="#000000"/>
</svg>
