<svg xmlns="http://www.w3.org/2000/svg" width="208" height="24" viewBox="0 0 208 24" fill="none"><rect width="208" height="24" fill="none"/>
<path d="M96.499 4.34758H106.011V18.7811H103.498V6.29974H99.0119V18.7811H96.499V4.34758Z" fill="#0D0D0D"/>
<path d="M109.409 22C108.924 22 108.578 21.9377 108.37 21.8131C108.162 21.7023 108.059 21.647 108.059 21.647V19.6325C108.197 19.771 108.363 19.8749 108.557 19.944C108.751 20.0133 108.959 20.0479 109.18 20.0479C109.526 20.0479 109.803 19.9717 110.011 19.8194C110.218 19.681 110.392 19.4871 110.53 19.238L106.937 8.33498H109.533L111.838 16.1851L114.143 8.33498H116.532L113.271 18.2203C112.925 19.2864 112.482 20.1794 111.942 20.8993C111.402 21.6331 110.558 22 109.409 22Z" fill="#0D0D0D"/>
<path d="M125.335 10.2871H122.428V18.7811H119.957V10.2871H117.049V8.33498H125.335V10.2871Z" fill="#0D0D0D"/>
<path d="M134.064 18.0749C133.704 18.3242 133.233 18.5388 132.652 18.7187C132.07 18.8987 131.385 18.9887 130.596 18.9887C129.031 18.9887 127.813 18.5457 126.941 17.6596C126.082 16.7597 125.653 15.4028 125.653 13.5892C125.653 12.8 125.743 12.0731 125.923 11.4085C126.103 10.7301 126.373 10.1556 126.733 9.68482C127.107 9.20028 127.571 8.81952 128.124 8.54263C128.692 8.26573 129.35 8.12728 130.097 8.12728C131.33 8.12728 132.313 8.50801 133.046 9.26952C133.794 10.031 134.168 11.3186 134.168 13.1323V14.4406H128.208C128.263 15.3129 128.484 15.9636 128.872 16.3928C129.26 16.822 129.904 17.0366 130.803 17.0366C131.399 17.0366 131.994 16.9396 132.59 16.7459C133.185 16.552 133.676 16.3236 134.064 16.0605V18.0749ZM130.056 10.0794C129.461 10.0794 129.011 10.2941 128.706 10.7232C128.401 11.1525 128.235 11.7824 128.208 12.6131H131.655V12.4054C131.655 11.7547 131.537 11.2078 131.302 10.7647C131.08 10.3079 130.665 10.0794 130.056 10.0794Z" fill="#0D0D0D"/>
<path d="M135.824 18.7811V8.33498H138.295V16.8289H140.995V8.33498H143.466V16.8289H146.166V8.33498H148.637V18.7811H135.824Z" fill="#0D0D0D"/>
<path d="M158.705 18.0749C158.345 18.3242 157.875 18.5388 157.293 18.7187C156.712 18.8987 156.026 18.9887 155.237 18.9887C153.673 18.9887 152.454 18.5457 151.582 17.6596C150.724 16.7597 150.294 15.4028 150.294 13.5892C150.294 12.8 150.384 12.0731 150.564 11.4085C150.744 10.7301 151.014 10.1556 151.374 9.68482C151.748 9.20028 152.212 8.81952 152.766 8.54263C153.333 8.26573 153.991 8.12728 154.739 8.12728C155.971 8.12728 156.954 8.50801 157.688 9.26952C158.435 10.031 158.809 11.3186 158.809 13.1323V14.4406H152.849C152.904 15.3129 153.126 15.9636 153.513 16.3928C153.901 16.822 154.545 17.0366 155.445 17.0366C156.04 17.0366 156.635 16.9396 157.231 16.7459C157.826 16.552 158.318 16.3236 158.705 16.0605V18.0749ZM154.697 10.0794C154.102 10.0794 153.652 10.2941 153.347 10.7232C153.043 11.1525 152.876 11.7824 152.849 12.6131H156.296V12.4054C156.296 11.7547 156.178 11.2078 155.943 10.7647C155.722 10.3079 155.306 10.0794 154.697 10.0794Z" fill="#0D0D0D"/>
<path d="M165.032 18.9887C163.384 18.9887 162.152 18.518 161.335 17.5765C160.532 16.6351 160.131 15.299 160.131 13.5684C160.131 12.7792 160.234 12.0524 160.442 11.3878C160.65 10.7094 160.947 10.1348 161.335 9.66406C161.737 9.17952 162.235 8.80566 162.83 8.54263C163.44 8.26573 164.139 8.12728 164.928 8.12728C165.537 8.12728 166.063 8.17574 166.506 8.27263C166.963 8.3696 167.323 8.48725 167.586 8.62573V10.7232C167.337 10.571 166.991 10.4256 166.548 10.2871C166.119 10.1487 165.669 10.0794 165.198 10.0794C164.395 10.0794 163.772 10.3702 163.329 10.9517C162.9 11.5331 162.685 12.3847 162.685 13.5061C162.685 14.586 162.879 15.4444 163.266 16.0812C163.668 16.7181 164.305 17.0366 165.177 17.0366C165.689 17.0366 166.139 16.9743 166.527 16.8496C166.928 16.7251 167.281 16.552 167.586 16.3305V18.3449C167.281 18.5665 166.921 18.7257 166.506 18.8226C166.091 18.9333 165.599 18.9887 165.032 18.9887Z" fill="#0D0D0D"/>
<path d="M176.808 10.2871H173.901V18.7811H171.43V10.2871H168.522V8.33498H176.808V10.2871Z" fill="#0D0D0D"/>
<path d="M182.383 18.7811H178.271V8.33498H182.425C183.56 8.33498 184.419 8.55649 185 8.99952C185.595 9.44255 185.893 10.1071 185.893 10.9932C185.893 11.6163 185.727 12.1285 185.395 12.53C185.062 12.9177 184.619 13.1877 184.066 13.34C184.758 13.4646 185.298 13.7276 185.685 14.1291C186.087 14.5306 186.288 15.0706 186.288 15.749C186.288 16.7459 185.942 17.5004 185.249 18.0127C184.557 18.5249 183.602 18.7811 182.383 18.7811ZM182.072 10.2041H180.743V12.53H181.988C182.459 12.53 182.819 12.4262 183.069 12.2185C183.331 12.0108 183.463 11.727 183.463 11.367C183.463 10.9794 183.338 10.6886 183.09 10.4948C182.854 10.301 182.515 10.2041 182.072 10.2041ZM182.113 14.3368H180.743V16.912H182.113C182.612 16.912 183.006 16.8081 183.297 16.6005C183.588 16.3927 183.733 16.0536 183.733 15.5828C183.733 15.1537 183.595 14.8421 183.318 14.6483C183.041 14.4406 182.64 14.3368 182.113 14.3368Z" fill="#0D0D0D"/>
<path d="M187.946 8.33498H190.354V14.7937L194.176 8.33498H196.314V18.7811H193.906V12.3223L190.084 18.7811H187.946V8.33498Z" fill="#0D0D0D"/>
<path d="M197.663 18.7811L200.01 14.8352C199.345 14.6137 198.833 14.2537 198.473 13.7553C198.113 13.2431 197.933 12.5923 197.933 11.8031C197.933 10.6817 198.321 9.8233 199.096 9.228C199.871 8.63263 200.861 8.33498 202.066 8.33498H205.846V18.7811H203.374V15.3752H202.19L200.197 18.7811H197.663ZM202.253 10.2871C201.713 10.2871 201.277 10.4117 200.945 10.661C200.612 10.9101 200.446 11.3186 200.446 11.8862C200.446 12.4816 200.598 12.9107 200.903 13.1738C201.207 13.4369 201.636 13.5684 202.19 13.5684H203.374V10.2871H202.253Z" fill="#0D0D0D"/>
<path d="M9.08172 18.7811V6.29974H7.9603C6.93577 6.29974 6.15352 6.54203 5.61356 7.0266C5.08745 7.49734 4.82439 8.11344 4.82439 8.8749C4.82439 9.74717 5.0113 10.4394 5.38512 10.9517C5.77278 11.4501 6.34735 11.9554 7.10883 12.4677L8.37566 13.3192L4.72056 18.7811H2L5.28128 13.9007C4.33982 13.2222 3.61295 12.5162 3.10068 11.7824C2.58841 11.0486 2.33228 10.1279 2.33228 9.02028C2.33228 7.63578 2.80994 6.51433 3.76524 5.65594C4.72056 4.7837 6.11198 4.34758 7.93953 4.34758H11.5947V18.7811H9.08172ZM57.5325 18.9887C55.885 18.9887 54.6528 18.518 53.8359 17.5765C53.0329 16.6351 52.6314 15.299 52.6314 13.5684C52.6314 12.7792 52.7353 12.0524 52.9429 11.3878C53.1506 10.7094 53.4483 10.1348 53.8359 9.66406C54.2374 9.17952 54.7359 8.80566 55.3312 8.54263C55.9404 8.26573 56.6396 8.12728 57.4287 8.12728C58.0379 8.12728 58.564 8.17574 59.007 8.27263C59.4639 8.3696 59.8239 8.48725 60.087 8.62573V10.7232C59.8377 10.571 59.4916 10.4256 59.0486 10.2871C58.6194 10.1487 58.1694 10.0794 57.6987 10.0794C56.8957 10.0794 56.2727 10.3702 55.8296 10.9517C55.4004 11.5331 55.1858 12.3847 55.1858 13.5061C55.1858 14.586 55.3796 15.4444 55.7673 16.0812C56.1688 16.7181 56.8057 17.0366 57.6779 17.0366C58.1902 17.0366 58.6402 16.9743 59.0278 16.8496C59.4293 16.7251 59.7824 16.552 60.087 16.3305V18.3449C59.7824 18.5665 59.4224 18.7257 59.007 18.8226C58.5917 18.9333 58.1002 18.9887 57.5325 18.9887ZM42.0814 18.0749C41.7215 18.3242 41.2508 18.5388 40.6692 18.7187C40.0878 18.8987 39.4024 18.9887 38.6133 18.9887C37.0488 18.9887 35.8304 18.5457 34.9582 17.6596C34.0998 16.7597 33.6706 15.4028 33.6706 13.5892C33.6706 12.8 33.7606 12.0731 33.9406 11.4085C34.1206 10.7301 34.3906 10.1556 34.7505 9.68482C35.1243 9.20028 35.5881 8.81952 36.1419 8.54263C36.7096 8.26573 37.3672 8.12728 38.1149 8.12728C39.3471 8.12728 40.3301 8.50801 41.0639 9.26952C41.8115 10.031 42.1853 11.3186 42.1853 13.1323V14.4406H36.225C36.2804 15.3129 36.5019 15.9636 36.8896 16.3928C37.2772 16.822 37.921 17.0366 38.8209 17.0366C39.4163 17.0366 40.0116 16.9396 40.607 16.7459C41.2023 16.552 41.6938 16.3236 42.0814 16.0605V18.0749ZM19.4448 8.33498H21.9161V18.7811H19.4448V14.4199H16.1427V18.7811H13.6714V8.33498H16.1427V12.4677H19.4448V8.33498ZM33.0683 16.8289V21.1693H30.7839V18.7811H25.2389V21.1693H22.9545V16.8289H23.7229C23.9445 16.3997 24.1175 15.8806 24.2421 15.2713C24.3805 14.6621 24.4844 14.0184 24.5536 13.34C24.6367 12.6615 24.692 11.9693 24.7198 11.2632C24.7474 10.5432 24.7613 9.86482 24.7613 9.228V8.33498H31.9676V16.8289H33.0683ZM49.9731 18.7811L46.3181 13.6515V18.7811H43.8467V8.33498H46.3181V13.1531L49.807 8.33498H52.2991L48.8101 13.1531L52.7768 18.7811H49.9731ZM38.0733 10.0794C37.478 10.0794 37.028 10.2941 36.7234 10.7232C36.4188 11.1525 36.2527 11.7824 36.225 12.6131H39.6724V12.4054C39.6724 11.7547 39.5547 11.2078 39.3194 10.7647C39.0978 10.3079 38.6825 10.0794 38.0733 10.0794ZM29.4963 16.8289V10.2871H26.8796V10.5986C26.8796 11.0416 26.8657 11.547 26.838 12.1147C26.8104 12.6684 26.7619 13.2292 26.6926 13.7968C26.6373 14.3645 26.5473 14.9183 26.4227 15.4582C26.3119 15.9843 26.1735 16.4412 26.0073 16.8289H29.4963Z" fill="#0D0D0D"/>
<path d="M88.0286 11.7522C88.0286 10.7594 87.8802 9.80135 87.6045 8.8989C87.0427 7.06006 85.9516 5.45166 84.5095 4.25172C82.8193 2.84558 80.6463 2 78.2763 2C72.8903 2 68.5241 6.36622 68.5241 11.7522C68.5241 12.1227 68.5448 12.4884 68.585 12.8482C68.63 13.2506 68.6995 13.6457 68.792 14.0318C69.1613 15.574 69.8971 16.9739 70.9021 18.1342C72.69 20.1984 75.3304 21.5044 78.2763 21.5044C83.6623 21.5044 88.0286 17.1382 88.0286 11.7522Z" fill="black"/>
<path d="M88.0286 11.7522C88.0286 10.7594 87.8802 9.80135 87.6045 8.8989C87.0427 7.06006 85.9516 5.45166 84.5095 4.25172C82.8193 2.84558 80.6463 2 78.2763 2C72.8917 2 68.5241 6.36753 68.5241 11.7522C68.5241 12.1227 68.5448 12.4884 68.585 12.8482C68.63 13.2506 68.6995 13.6457 68.792 14.0318C69.1613 15.574 69.8971 16.9739 70.9021 18.1342C72.69 20.1984 75.3304 21.5044 78.2763 21.5044C83.6635 21.5044 88.0286 17.1369 88.0286 11.7522Z" fill="#7F5FFF"/>
<path d="M83.7774 15.3051C83.4838 15.2294 83.144 15.9873 83.0463 16.2734C82.9584 16.5376 82.7846 17.2906 83.0463 17.3858C83.3642 17.5005 83.8091 16.6694 83.9048 16.3466C83.978 16.0947 84.0317 15.371 83.7778 15.3075" fill="#FEE14A"/>
<path fill-rule="evenodd" clip-rule="evenodd" d="M87.6045 8.8989C87.0427 7.06006 85.9516 5.45166 84.5095 4.25172C82.708 3.40083 80.5744 2.92676 78.5472 3.35462C77.783 3.51604 77.6507 3.8361 77.5059 4.18661C77.4549 4.31007 77.4023 4.4373 77.32 4.56272C77.0706 4.94275 76.5411 5.19537 76.1138 5.39925C75.7905 5.55349 75.5257 5.67983 75.4849 5.81233C75.3506 6.25474 75.9923 7.0131 76.359 7.14983C76.6803 7.26819 76.9791 7.034 77.3038 6.77958C77.5698 6.5711 77.8532 6.34903 78.1804 6.29625C78.9017 6.17905 81.5845 6.42419 82.0318 7.13518C82.6974 7.87597 82.6212 9.07433 82.2227 9.24082C82.0135 9.32827 81.6701 9.13578 81.2946 8.92525C80.9026 8.70546 80.4755 8.46601 80.1293 8.50492C79.9714 8.52312 79.7515 8.61763 79.5166 8.71853C79.1842 8.86135 78.8221 9.01696 78.5642 8.98691C78.3442 8.96138 78.1686 8.67774 77.9955 8.39797C77.8704 8.19588 77.7465 7.9958 77.6081 7.89647C77.3073 7.68112 75.6055 8.05273 75.1675 8.25099C74.6343 8.49076 73.4242 10.2048 73.392 10.821C73.3529 11.5374 74.8125 12.9828 75.4019 13.0975C75.6882 13.1529 76.0766 13.0618 76.4496 12.9742C76.8826 12.8726 77.2949 12.7759 77.5026 12.9189C77.6805 13.0422 77.8649 13.9223 78.082 14.9588C78.429 16.6151 78.8597 18.6706 79.4808 18.6751C80.1215 18.68 81.8721 16.2888 82.1461 15.8238C82.3869 15.4127 82.3842 14.8486 82.382 14.3965C82.3807 14.128 82.3796 13.899 82.4298 13.7651C82.5059 13.5619 82.7648 13.3297 83.0296 13.0922C83.351 12.804 83.681 12.508 83.7038 12.2465C83.7215 12.0532 83.4386 11.696 83.1559 11.3391C82.813 10.9062 82.4704 10.4736 82.6647 10.3342C82.7895 10.2452 83.1563 10.3381 83.5688 10.4427C84.0861 10.5738 84.6752 10.7231 84.9485 10.5544C85.169 10.4184 85.2779 9.99388 85.4098 9.47977C85.5289 9.01565 85.6667 8.47849 85.9222 8.01464C86.0243 7.82909 86.2192 7.7114 86.4311 7.7114C86.7952 7.7114 87.1864 7.88557 87.6045 8.8989Z" fill="#FEE14A"/>
<path fill-rule="evenodd" clip-rule="evenodd" d="M70.0006 13.9745C69.4428 13.7867 68.8234 13.5782 68.585 12.8482C68.63 13.2506 68.6995 13.6457 68.792 14.0318C69.1613 15.574 69.8971 16.9739 70.9021 18.1342C70.498 17.2624 70.7018 16.5767 70.8848 15.9611C71.0198 15.507 71.1434 15.091 71.0034 14.6667C70.8714 14.2676 70.4566 14.1279 70.0006 13.9745Z" fill="#FEE14A"/>
</svg>
