<svg xmlns="http://www.w3.org/2000/svg" width="24" height="24" viewBox="0 0 24 24" fill="none"><rect width="24" height="24" fill="none"/>
<path fill-rule="evenodd" clip-rule="evenodd" d="M16.8745 8.37142L19.3338 10.843C16.4918 11.146 14.8835 12.7266 14.5622 15.6384L12.1028 13.1668C14.9772 12.8797 16.5736 11.2872 16.8745 8.37142Z" fill="white"/>
<path d="M17.6169 10.0895C18.6191 11.0968 20.2446 11.0962 21.2475 10.0884C22.2504 9.08047 22.2509 7.4469 21.2487 6.43965C20.2464 5.43241 18.6209 5.43294 17.618 6.44083C16.6152 7.44872 16.6146 9.08229 17.6169 10.0895Z" fill="white"/>
<path d="M10.1842 17.5602C11.1864 18.5674 12.8119 18.5669 13.8148 17.559C14.8177 16.5511 14.8182 14.9176 13.8159 13.9103C12.8137 12.9031 11.1882 12.9036 10.1853 13.9115C9.18244 14.9194 9.18193 16.553 10.1842 17.5602Z" fill="white"/>
<path d="M2.75134 10.0895C3.75358 11.0968 5.37907 11.0962 6.38196 10.0884C7.38485 9.08047 7.38537 7.4469 6.38314 6.43965C5.38089 5.43241 3.7554 5.43294 2.75251 6.44083C1.74962 7.44872 1.7491 9.08229 2.75134 10.0895Z" fill="#E63536"/>
<path d="M10.1842 10.0895C11.1864 11.0968 12.8119 11.0962 13.8148 10.0884C14.8177 9.08047 14.8182 7.4469 13.8159 6.43965C12.8137 5.43241 11.1882 5.43294 10.1853 6.44083C9.18244 7.44872 9.18193 9.08229 10.1842 10.0895Z" fill="white"/>
</svg>
