<svg xmlns="http://www.w3.org/2000/svg" width="24" height="24" viewBox="0 0 24 24" fill="none"><rect width="24" height="24" fill="none"/>
<path d="M5.36776 5.63595V11.0078H4.45789V6.40898H2.90986V11.0078H2V5.63595H5.36776Z" fill="#1928DC"/>
<path d="M7.0107 10.7955C6.73813 10.5492 6.5399 10.2337 6.43782 9.88364C6.28842 9.3924 6.21737 8.88134 6.22721 8.36866C6.21757 7.8417 6.28857 7.31632 6.43782 6.81016C6.53806 6.44862 6.73604 6.12059 7.0107 5.86097C7.25085 5.65829 7.55679 5.54688 7.87318 5.54688C8.18956 5.54688 8.4955 5.65829 8.73565 5.86097C9.01179 6.11826 9.20945 6.44627 9.30643 6.80809C9.45589 7.31492 9.5269 7.84101 9.51705 8.36866C9.52683 8.88201 9.45578 9.39375 9.30643 9.8857C9.20696 10.2359 9.01 10.5517 8.73776 10.7976C8.49286 10.9919 8.18776 11.0978 7.87318 11.0978C7.55859 11.0978 7.25349 10.9919 7.0086 10.7976L7.0107 10.7955ZM7.23395 9.43597C7.26955 9.67023 7.35729 9.89386 7.49092 10.0909C7.53299 10.1529 7.58955 10.2041 7.65588 10.2401C7.72221 10.2762 7.79638 10.2961 7.87213 10.2981C8.09748 10.2981 8.2744 10.1365 8.40499 9.81317C8.55609 9.34464 8.6217 8.85348 8.59876 8.36244C8.60454 7.98889 8.57494 7.61561 8.5103 7.24745C8.47632 7.00539 8.38937 6.77347 8.25545 6.56769C8.21787 6.50025 8.16255 6.444 8.0953 6.40482C8.02805 6.36564 7.95133 6.34496 7.87318 6.34496C7.79502 6.34496 7.7183 6.36564 7.65105 6.40482C7.5838 6.444 7.52848 6.50025 7.49092 6.56769C7.3586 6.77369 7.27111 7.00444 7.23395 7.24539C7.16854 7.61277 7.13823 7.98535 7.1434 8.35829C7.13763 8.71957 7.16797 9.08053 7.23395 9.43597Z" fill="#1928DC"/>
<path d="M12.5221 5.63595V7.69599H12.0398C11.865 7.70542 11.6903 7.67418 11.5301 7.6048C11.4036 7.53874 11.3067 7.42864 11.2584 7.296C11.194 7.11148 11.1648 6.91688 11.172 6.72193V5.63595H10.2622V6.71778C10.2357 7.18444 10.3774 7.64533 10.6623 8.01929C10.812 8.18281 10.9974 8.3107 11.2047 8.39329C11.4119 8.47587 11.6356 8.51098 11.8586 8.49596H12.5221V11.0078H13.4319V5.63595H12.5221Z" fill="#1928DC"/>
<path d="M17.4226 6.40898H16.3548V11.0078H15.445V6.40898H14.3771V5.63595H17.4226V6.40898Z" fill="#1928DC"/>
<path d="M19.9843 5.63517C20.2846 5.61921 20.5831 5.69134 20.8415 5.84242C21.0672 5.99081 21.2426 6.20231 21.3451 6.44965C21.4703 6.75652 21.5489 7.07982 21.5788 7.40921L22 10.9966H21.0902L20.7953 8.49103H19.2514V11.007H18.3416V5.63517H19.9843ZM19.2556 7.72836H20.709L20.6711 7.41956C20.6542 7.22114 20.6124 7.02554 20.5467 6.83721C20.5006 6.71048 20.4103 6.60398 20.2918 6.5367C20.1391 6.46463 19.9702 6.43183 19.8011 6.44136H19.2556V7.72836Z" fill="#1928DC"/>
<path d="M3.00256 12.9954C3.30592 12.9875 3.60533 13.0644 3.86608 13.2171C4.12174 13.3773 4.32104 13.611 4.43685 13.8865C4.58481 14.2377 4.65655 14.6153 4.64747 14.9953C4.65684 15.3547 4.59163 15.7123 4.45582 16.046C4.3552 16.3024 4.19254 16.5308 3.98193 16.7113C3.83952 16.8433 3.65483 16.9225 3.45959 16.9351C3.35847 16.9421 3.25702 16.9272 3.1624 16.8914C3.06778 16.8556 2.9823 16.7998 2.91199 16.7279V18.3672H2.00002V12.9954H3.00256ZM2.96254 15.7766C2.98497 15.8726 3.03129 15.9617 3.09733 16.0357C3.11885 16.0617 3.14575 16.083 3.17626 16.098C3.20677 16.113 3.24017 16.1214 3.27425 16.1227C3.3542 16.1184 3.42948 16.0843 3.48487 16.0274C3.56993 15.9404 3.63085 15.8334 3.66178 15.7165C3.71295 15.538 3.73639 15.3528 3.73129 15.1673C3.73129 14.6658 3.67021 14.3114 3.54384 14.1042C3.49211 14.0084 3.41422 13.9287 3.31896 13.8742C3.2237 13.8196 3.11484 13.7923 3.00466 13.7954H2.91199V15.3621C2.90918 15.5019 2.9262 15.6414 2.96254 15.7766Z" fill="#1928DC"/>
<path d="M5.65202 18.1523C5.37825 17.9061 5.17983 17.5896 5.07913 17.2384C4.92959 16.7472 4.85854 16.2361 4.86852 15.7234C4.85887 15.1971 4.92987 14.6724 5.07913 14.167C5.17852 13.8057 5.37666 13.4781 5.65202 13.2198C5.89217 13.0172 6.1981 12.9058 6.51448 12.9058C6.83088 12.9058 7.13681 13.0172 7.37696 13.2198C7.65189 13.4772 7.84938 13.8042 7.94773 14.1649C8.09703 14.6718 8.16803 15.1978 8.15835 15.7255C8.17187 16.2383 8.10436 16.7501 7.95827 17.2425C7.85932 17.5929 7.66228 17.9089 7.3896 18.1544C7.14537 18.3502 6.84001 18.457 6.52502 18.457C6.21002 18.457 5.90467 18.3502 5.66044 18.1544L5.65202 18.1523ZM5.87736 16.7949C5.91431 17.0233 6.00126 17.2411 6.13222 17.4332C6.17388 17.4947 6.22979 17.5455 6.29533 17.5815C6.36087 17.6175 6.43419 17.6377 6.50922 17.6404C6.73388 17.6404 6.91079 17.4788 7.03998 17.1555C7.19316 16.6874 7.25951 16.196 7.23584 15.7047C7.24158 15.3312 7.21196 14.9579 7.14739 14.5897C7.11244 14.3492 7.02554 14.1188 6.89254 13.9141C6.85497 13.8467 6.79965 13.7904 6.7324 13.7513C6.66516 13.7121 6.58843 13.6914 6.51027 13.6914C6.43212 13.6914 6.3554 13.7121 6.28815 13.7513C6.2209 13.7904 6.16559 13.8467 6.128 13.9141C5.99544 14.1262 5.91001 14.3636 5.87736 14.6105C5.81215 14.9779 5.78183 15.3505 5.78681 15.7234C5.78152 16.0826 5.81184 16.4415 5.87736 16.7949Z" fill="#1928DC"/>
<path d="M8.78003 14.2084C9.0021 13.8036 9.35169 13.4807 9.77624 13.2882C10.2733 13.0759 10.8122 12.9753 11.3538 12.9939V13.8001C10.7051 13.8001 10.2101 13.9597 9.86681 14.283C9.52351 14.6063 9.3508 15.085 9.3508 15.7337C9.3508 16.3824 9.52141 16.8114 9.86472 17.114C10.208 17.4166 10.7072 17.5699 11.3538 17.5699V18.3658C10.4228 18.3658 9.70463 18.1447 9.19916 17.7026C8.69367 17.2604 8.44094 16.6007 8.44094 15.7234C8.42093 15.1982 8.53766 14.6767 8.78003 14.2084Z" fill="#1928DC"/>
<path d="M11.8422 14.2098C12.0644 13.8044 12.4149 13.4813 12.8405 13.2896C13.3342 13.0753 13.8702 12.972 14.4096 12.987V13.7932C13.763 13.7932 13.2681 13.9528 12.9226 14.2761C12.5772 14.5994 12.4066 15.0864 12.4066 15.7247C12.4066 16.3631 12.5772 16.8024 12.9205 17.105C13.2638 17.4076 13.763 17.561 14.4075 17.561V18.3671C13.4766 18.3671 12.7584 18.1461 12.2529 17.7039C11.7474 17.2618 11.4947 16.6021 11.4947 15.7247C11.4773 15.1988 11.5969 14.6773 11.8422 14.2098Z" fill="#1928DC"/>
<path d="M15.7469 12.9952V14.9123L18.2027 12.875V18.3671H17.2928V14.7112L15.7469 15.9941V18.3671H14.8349V12.9952H15.7469Z" fill="#1928DC"/>
<path d="M19.5405 12.994V14.9111L21.992 12.878V18.3659H21.0822V14.7101L19.5362 15.9929V18.3659H18.6305V12.994H19.5405Z" fill="#1928DC"/>
</svg>
