<svg xmlns="http://www.w3.org/2000/svg" width="100" height="24" viewBox="0 0 100 24" fill="none"><rect width="100" height="24" fill="none"/>
<path fill-rule="evenodd" clip-rule="evenodd" d="M9.11199 3.52399C6.02582 3.52399 3.52399 6.02582 3.52399 9.11199C3.52399 12.1982 6.02582 14.7 9.11199 14.7C12.1981 14.7 14.7 12.1982 14.7 9.11199C14.7 6.02582 12.1981 3.52399 9.11199 3.52399ZM2 9.11199C2 5.18414 5.18414 2 9.11199 2C13.0398 2 16.224 5.18414 16.224 9.11199C16.224 13.0398 13.0398 16.224 9.11199 16.224C5.18414 16.224 2 13.0398 2 9.11199Z" fill="#3E424C"/>
<path d="M33.41 13.5831L37.8685 4.63578H41.264L41.9579 10.0833L45.3979 4.63578H48.7639V13.5831H45.4714V8.77994L42.4156 13.5831H39.1234L38.4885 8.73604L36.0674 13.5831H33.41ZM58.8765 11.8112C58.8765 12.1138 58.8813 12.4116 58.8912 12.7045C58.9012 12.9973 58.9206 13.2853 58.9505 13.5684H55.8942C55.8354 13.461 55.7761 13.3146 55.7173 13.1291C55.658 12.9339 55.6187 12.7289 55.5992 12.5141C55.2839 12.8851 54.8855 13.1926 54.4032 13.4366C53.9309 13.6709 53.2566 13.7881 52.3807 13.7881C51.4949 13.7881 50.7864 13.5831 50.2548 13.1731C49.7332 12.763 49.4724 12.2163 49.4724 11.533C49.4724 10.8984 49.6545 10.4103 50.0187 10.0686C50.3928 9.71715 50.9733 9.47308 51.7605 9.33639C52.5481 9.18998 53.5568 9.11675 54.7869 9.11675H55.5547V8.95568C55.5547 8.64326 55.4219 8.40411 55.1563 8.23815C54.8903 8.07218 54.3933 7.98918 53.6649 7.98918C52.9465 7.98918 52.2773 8.08192 51.6571 8.26743C51.0472 8.44312 50.5502 8.61886 50.1661 8.7946V6.83232C50.5991 6.67614 51.18 6.51995 51.9084 6.36372C52.6463 6.19778 53.488 6.11479 54.4327 6.11479C55.3873 6.11479 56.1944 6.20266 56.854 6.37838C57.5132 6.54434 58.0153 6.83232 58.3596 7.24237C58.7044 7.64263 58.8765 8.19909 58.8765 8.91173V11.8112ZM59.8804 6.33443H62.9363L63.1136 7.57918C63.4873 7.09102 63.9354 6.7347 64.4571 6.51017C64.9787 6.28564 65.5791 6.17337 66.2581 6.17337C67.0259 6.17337 67.7145 6.31004 68.3248 6.5834C68.9351 6.85676 69.4174 7.27165 69.7716 7.8281C70.1259 8.38456 70.3032 9.08747 70.3032 9.9368C70.3032 10.7861 70.1259 11.4939 69.7716 12.0601C69.4273 12.6166 68.9451 13.0364 68.3248 13.3195C67.705 13.6026 66.9961 13.7442 66.1989 13.7442C65.6085 13.7442 65.0522 13.6417 64.5306 13.4366C64.0189 13.2219 63.576 12.8851 63.2019 12.4262V15.4721H59.8804V6.33443ZM79.9288 9.9368C79.9288 9.21438 80.1256 8.57007 80.5192 8.00384C80.9228 7.43761 81.4937 6.9934 82.2316 6.67125C82.9799 6.33932 83.8606 6.17337 84.8744 6.17337C85.9276 6.17337 86.8083 6.35398 87.5168 6.71519C88.2356 7.0764 88.7374 7.58891 89.0229 8.25277C89.3183 8.91662 89.3576 9.70249 89.1409 10.6104H83.3095C83.4276 11.0302 83.6884 11.3475 84.092 11.5623C84.5055 11.7673 85.1153 11.8698 85.9224 11.8698C86.4834 11.8698 87.0051 11.821 87.4874 11.7233C87.9696 11.6159 88.4177 11.4939 88.8308 11.3572V13.0998C88.4078 13.2951 87.9355 13.4513 87.4138 13.5684C86.9017 13.6856 86.2278 13.7442 85.3909 13.7442C83.5504 13.7442 82.1776 13.4074 81.2723 12.7337C80.3765 12.0504 79.9288 11.118 79.9288 9.9368ZM89.4212 6.33443H97.8513V8.20886H95.2232V13.5684H91.9018V8.20886H89.4212V6.33443ZM70.9382 6.33443H74.2596V9.61464L77.4041 6.33443H80.2684L77.3453 9.35106L80.8735 13.5684H76.8578L74.2596 10.3761V13.5684H70.9382V6.33443ZM84.8891 7.81349C84.4363 7.81349 84.0773 7.94528 83.8112 8.20886C83.5457 8.46268 83.3735 8.78971 83.2948 9.18998H86.2179C86.2079 8.78971 86.0998 8.46268 85.893 8.20886C85.6863 7.94528 85.3515 7.81349 84.8891 7.81349ZM66.9078 9.9368C66.9078 9.35106 66.7452 8.88734 66.4203 8.54564C66.1055 8.1942 65.6526 8.01846 65.0622 8.01846C64.5211 8.01846 64.0682 8.18443 63.704 8.51635C63.3398 8.8385 63.1577 9.312 63.1577 9.9368C63.1577 10.5616 63.3351 11.0449 63.6893 11.3865C64.0535 11.7184 64.5111 11.8844 65.0622 11.8844C65.6725 11.8844 66.1301 11.7087 66.4351 11.3572C66.7499 11.0058 66.9078 10.5323 66.9078 9.9368ZM55.5547 10.4493H54.802C54.0832 10.4493 53.5667 10.5079 53.2518 10.625C52.9465 10.7422 52.7942 10.9667 52.7942 11.2987C52.7942 11.5818 52.8924 11.7917 53.0892 11.9284C53.296 12.0553 53.5421 12.1187 53.8275 12.1187C54.2605 12.1187 54.6148 12.0406 54.8903 11.8844C55.1758 11.7184 55.3972 11.5281 55.5547 11.3133V10.4493Z" fill="#3E424C"/>
<path fill-rule="evenodd" clip-rule="evenodd" d="M30.3005 13.0108C29.0296 14.9461 26.8398 16.2239 24.3515 16.2239C22.4377 16.2239 20.7004 15.468 19.422 14.2384L23.2617 8.35294L22.135 13.0715L24.994 13.4147L27.3684 10.5104L26.6769 13.4161L26.6801 13.4151L26.6771 13.4175L30.3005 13.0108ZM31.2545 10.8305C31.391 10.2802 31.4635 9.70457 31.4635 9.112C31.4635 5.18416 28.2794 2.00003 24.3515 2.00003C20.4237 2.00003 17.2395 5.18416 17.2395 9.112C17.2395 9.89973 17.3676 10.6576 17.6041 11.3658L22.8458 3.24679L26.3073 5.246L25.3249 9.38726L27.9187 6.16844L30.3614 7.58463L29.5431 11.1533L31.2545 10.8305Z" fill="#3E424C"/>
<path d="M10.1269 13.0586V6.35038H9.34002C8.7724 6.35038 8.34238 6.47076 8.04998 6.71159C7.75759 6.94378 7.61135 7.25339 7.61135 7.64042C7.61135 7.93281 7.66295 8.18221 7.76616 8.38866C7.86936 8.59506 8.01988 8.78426 8.21768 8.95627C8.41548 9.12825 8.66492 9.31748 8.96592 9.52389L9.71412 10.027L7.52108 13.0586H5.86984L7.83905 10.3843C7.54558 10.1768 7.28478 9.97174 7.05667 9.76896C6.74706 9.49378 6.51055 9.19278 6.34714 8.86596C6.18373 8.53914 6.10202 8.15643 6.10202 7.7178C6.10202 6.96099 6.37292 6.35039 6.91476 5.88596C7.46516 5.41295 8.26928 5.17644 9.32713 5.17644H11.6621V13.0586H10.1269Z" fill="#3E424C"/>
<path d="M61.9134 18.7947C61.6346 18.795 61.3582 18.847 61.0982 18.9479V18.3734C61.2397 18.3301 61.3841 18.2972 61.5304 18.2749C61.6946 18.2458 61.8588 18.2311 62.0229 18.2311C62.446 18.2311 62.7651 18.3277 62.9805 18.521C63.1957 18.7107 63.3033 19.0281 63.3033 19.4731V21.1255H62.6795C62.6752 21.0837 62.6733 21.0416 62.6739 20.9996V20.8246C62.5825 20.9333 62.4688 21.021 62.3403 21.0817C62.209 21.1474 62.0502 21.1802 61.8642 21.1802C61.7305 21.1815 61.5975 21.1613 61.4703 21.1201C61.3586 21.0827 61.2548 21.0252 61.1639 20.9503C61.08 20.8738 61.0129 20.7807 60.9669 20.6768C60.9196 20.5675 60.8958 20.4434 60.8958 20.3047C60.8958 20.1479 60.923 20.0111 60.9779 19.8945C61.033 19.7779 61.1156 19.6765 61.2186 19.5989C61.3292 19.5201 61.4535 19.4625 61.5852 19.4293C61.7274 19.3891 61.8843 19.3692 62.0558 19.3692C62.1835 19.3692 62.2965 19.3783 62.395 19.3965C62.4972 19.4148 62.5864 19.4384 62.6631 19.4675C62.6558 19.2269 62.5938 19.0555 62.4771 18.9533C62.3602 18.8475 62.1725 18.7947 61.9134 18.7947ZM62.0229 20.7042C62.1286 20.7042 62.2198 20.6878 62.2965 20.655C62.3726 20.6215 62.4401 20.5709 62.4935 20.5072C62.5482 20.4454 62.5884 20.3724 62.6139 20.2883C62.6438 20.2001 62.6604 20.1079 62.6631 20.0148V19.9109C62.5905 19.8808 62.5154 19.857 62.4386 19.8398C62.3437 19.817 62.2463 19.806 62.1487 19.8069C61.959 19.8069 61.8078 19.8469 61.6946 19.9273C61.5852 20.0038 61.5304 20.1224 61.5304 20.2827C61.5304 20.4106 61.5725 20.5126 61.6563 20.5893C61.7438 20.666 61.8661 20.7042 62.0229 20.7042ZM59.7493 21.1802C59.5305 21.1802 59.3298 21.1454 59.1474 21.0763C58.975 21.0109 58.8169 20.9124 58.6823 20.7863C58.5493 20.6561 58.4449 20.4995 58.3759 20.3266C58.3066 20.1442 58.272 19.94 58.272 19.7138C58.272 19.4913 58.3085 19.2889 58.3813 19.1065C58.4543 18.9205 58.5565 18.7636 58.6879 18.636C58.8267 18.5058 58.9904 18.4053 59.1693 18.3404C59.3553 18.2676 59.5614 18.2311 59.7876 18.2311C59.935 18.2296 60.082 18.2461 60.2253 18.2803C60.3567 18.3132 60.4697 18.3551 60.5645 18.4061V19.019C60.4641 18.9432 60.3511 18.8858 60.2307 18.8494C60.1059 18.8055 59.9745 18.7833 59.8423 18.7837C59.7152 18.7823 59.5891 18.8046 59.4702 18.8494C59.3621 18.8887 59.2633 18.9502 59.1803 19.0298C59.098 19.1131 59.0329 19.2116 58.9886 19.32C58.945 19.4293 58.9232 19.5516 58.9232 19.6864C58.9232 19.8288 58.945 19.9582 58.9886 20.0749C59.0362 20.1917 59.0999 20.292 59.1803 20.3758C59.2641 20.4562 59.3609 20.5182 59.4702 20.5619C59.5873 20.6064 59.7116 20.6286 59.8368 20.6275C59.9665 20.6273 60.0954 20.6089 60.2199 20.5729C60.3456 20.5373 60.4641 20.4799 60.5699 20.4033V20.9723C60.4861 21.038 60.3694 21.089 60.2199 21.1255C60.0659 21.1629 59.9078 21.1813 59.7493 21.1802ZM56.8535 21.1802C56.6239 21.1802 56.4158 21.1454 56.2298 21.0763C56.0543 21.0112 55.894 20.9106 55.7592 20.7807C55.6303 20.6473 55.5298 20.4892 55.4639 20.3158C55.3945 20.1334 55.36 19.9327 55.36 19.7138C55.36 19.4803 55.3982 19.2724 55.4747 19.0901C55.5514 18.9077 55.6553 18.7526 55.7867 18.6249C55.9152 18.4992 56.0678 18.4006 56.2354 18.3352C56.4056 18.266 56.5877 18.2307 56.7714 18.2311C56.9541 18.2296 57.1351 18.267 57.3023 18.3406C57.4665 18.4134 57.6032 18.521 57.7126 18.6632C57.8258 18.8019 57.9079 18.9752 57.9589 19.183C58.0098 19.3874 58.0191 19.6209 57.9863 19.8834H56.0219C56.0621 20.1023 56.1641 20.2829 56.3283 20.4251C56.4925 20.5675 56.7131 20.6385 56.9903 20.6385C57.1437 20.6385 57.3023 20.6148 57.4665 20.5675C57.6341 20.5199 57.7765 20.4489 57.8932 20.354V20.8902C57.7765 20.9777 57.6251 21.0488 57.439 21.1037C57.2567 21.1547 57.0616 21.1802 56.8535 21.1802ZM56.7496 18.7509C56.5709 18.7509 56.4158 18.811 56.2847 18.9315C56.1533 19.0518 56.0675 19.2124 56.0274 19.4129H57.379C57.3716 19.2197 57.3113 19.0609 57.1983 18.9369C57.0851 18.8129 56.9356 18.7509 56.7496 18.7509ZM53.0757 19.4239H54.274V18.2913H54.9141V21.1253H54.274V19.9653H53.0757V21.1253H52.4356V18.2913H53.0757V19.4239ZM50.6968 21.1802C50.5071 21.1802 50.3341 21.162 50.1772 21.1255C50.0204 21.089 49.889 21.0398 49.7831 20.9777V20.3704C49.8927 20.4543 50.0238 20.5219 50.1772 20.5729C50.3304 20.6202 50.5017 20.644 50.6914 20.644C50.8921 20.644 51.049 20.613 51.162 20.551C51.2787 20.489 51.337 20.3942 51.337 20.2665C51.337 20.157 51.2877 20.0714 51.1894 20.0094C51.0909 19.9474 50.9377 19.9163 50.7297 19.9163H50.303V19.4403H50.6968C50.8794 19.4403 51.0179 19.4094 51.1127 19.3472C51.2076 19.2854 51.2551 19.2014 51.2551 19.0955C51.2551 19.0337 51.2387 18.9825 51.2058 18.9423C51.1714 18.8973 51.1262 18.8616 51.0745 18.8384C51.0174 18.8111 50.9565 18.7926 50.8939 18.7837C50.8233 18.7727 50.7519 18.7672 50.6804 18.7673C50.5309 18.7673 50.3814 18.7874 50.2319 18.8274C50.0892 18.8661 49.9529 18.9251 49.827 19.0026V18.4281C49.94 18.3661 50.0787 18.3186 50.2427 18.2857C50.4172 18.2486 50.5951 18.2303 50.7735 18.2311C51.1164 18.2311 51.3845 18.3004 51.5779 18.4389C51.7747 18.5739 51.8732 18.7673 51.8732 19.019C51.8732 19.1465 51.8441 19.2634 51.7857 19.3692C51.7274 19.4749 51.6362 19.5607 51.5122 19.6261C51.6581 19.681 51.7712 19.7648 51.8514 19.878C51.9352 19.9874 51.9772 20.1261 51.9772 20.2937C51.9772 20.4434 51.9443 20.5748 51.8788 20.6878C51.8168 20.7971 51.7274 20.8883 51.6107 20.9613C51.4975 21.0343 51.3627 21.089 51.2058 21.1255C51.0388 21.1631 50.868 21.1814 50.6968 21.1802ZM47.3583 20.2391L48.6386 18.2913H49.2678V21.1253H48.6276V19.1994L47.3583 21.1253H46.7235V18.2913H47.3583V20.2391ZM44.9247 18.2749C45.1181 18.2749 45.2968 18.3095 45.461 18.3788C45.6288 18.4445 45.7729 18.5392 45.8933 18.6634C46.0173 18.7837 46.1139 18.9315 46.1832 19.1065C46.2526 19.2815 46.2872 19.4749 46.2872 19.6864C46.2872 19.9236 46.247 20.1351 46.1668 20.3212C46.0949 20.4968 45.9867 20.6553 45.8494 20.7863C45.716 20.9154 45.5578 21.0159 45.3843 21.0819C45.2093 21.1475 45.0233 21.1804 44.8262 21.1804C44.6282 21.1814 44.4316 21.1461 44.2463 21.0763C44.0677 21.007 43.9069 20.8985 43.7758 20.7589C43.6407 20.6167 43.5351 20.4361 43.4584 20.2172C43.3819 19.9947 43.3435 19.7322 43.3435 19.4293C43.3435 19.0134 43.3873 18.6634 43.4748 18.3788C43.5623 18.0943 43.6991 17.8608 43.8851 17.6784C44.0385 17.5289 44.2226 17.414 44.4378 17.3338C44.6566 17.2534 44.9139 17.2005 45.2093 17.175C45.3171 17.1661 45.4247 17.1552 45.5321 17.1422C45.6232 17.1277 45.6999 17.1132 45.7619 17.0985C45.8174 17.0866 45.8722 17.072 45.9261 17.0547C45.9698 17.0365 46.0117 17.0182 46.0519 17V17.5853C46.019 17.6037 45.9825 17.6201 45.9426 17.6348C45.8917 17.6484 45.8406 17.6611 45.7894 17.673C45.7128 17.6863 45.6362 17.6991 45.5595 17.7113C45.4683 17.7223 45.3551 17.7331 45.2203 17.7441C44.9867 17.7659 44.788 17.8044 44.6238 17.859C44.4598 17.91 44.3248 17.9904 44.2189 18.0997C44.1461 18.1727 44.0858 18.262 44.0385 18.3678C43.991 18.47 43.9527 18.5938 43.9235 18.7399C44.0319 18.5905 44.177 18.4718 44.3448 18.3953C44.5162 18.3149 44.7095 18.2749 44.9247 18.2749ZM44.8154 20.6111C44.9211 20.6111 45.0233 20.5912 45.1218 20.551C45.2203 20.5109 45.3059 20.4525 45.3789 20.3758C45.4556 20.2993 45.5156 20.2062 45.5595 20.0969C45.6032 19.9837 45.6252 19.8562 45.6252 19.7138C45.6252 19.568 45.6032 19.4403 45.5595 19.3308C45.5204 19.2286 45.4607 19.1355 45.3843 19.0573C45.313 18.9853 45.2273 18.9293 45.1328 18.8931C45.0376 18.8529 44.9352 18.8325 44.8318 18.833C44.7296 18.833 44.6275 18.8511 44.5253 18.8877C44.4269 18.9205 44.3375 18.9734 44.2573 19.0462C44.1807 19.1193 44.1186 19.2104 44.0713 19.32C44.0238 19.4293 44 19.5589 44 19.7082C44 19.8543 44.0221 19.9837 44.0657 20.0969C44.1132 20.2062 44.1733 20.2993 44.2463 20.3758C44.3211 20.4505 44.4098 20.5098 44.5074 20.5501C44.6051 20.5905 44.7097 20.6112 44.8154 20.6111ZM40.0671 20.0474C39.8776 19.9893 39.7279 19.8908 39.6186 19.7521C39.5127 19.6136 39.4598 19.444 39.4598 19.2433C39.4598 18.9332 39.5693 18.698 39.7882 18.5374C40.007 18.3732 40.308 18.2913 40.6908 18.2913H41.7962V21.1253H41.1614V20.1678H40.6965L40.0727 21.1253H39.3394L40.0671 20.0474ZM40.6908 18.8056C40.5158 18.8056 40.3754 18.8421 40.2695 18.9151C40.1639 18.9842 40.111 19.0955 40.111 19.2487C40.111 19.3874 40.162 19.4932 40.2641 19.5661C40.3663 19.6391 40.5048 19.6756 40.68 19.6756H41.1614V18.8054L40.6908 18.8056ZM36.304 20.54C36.3331 20.551 36.3623 20.5601 36.3915 20.5675C36.4206 20.5748 36.4535 20.5783 36.49 20.5783C36.5483 20.5783 36.5976 20.5638 36.6378 20.5346C36.6779 20.5018 36.7089 20.4525 36.7307 20.3868C36.7564 20.3175 36.7745 20.2282 36.7855 20.1187C36.7964 20.0094 36.8037 19.878 36.8074 19.7247C36.811 19.6045 36.8128 19.4749 36.8128 19.3364C36.8164 19.1977 36.8184 19.0627 36.8184 18.9315C36.8221 18.8001 36.8238 18.6779 36.8238 18.5649C36.8275 18.4517 36.8292 18.3605 36.8292 18.2913H38.9577V21.1253H38.3176V18.833H37.4147L37.3983 19.7467C37.3931 19.9501 37.3748 20.1529 37.3436 20.354C37.3181 20.529 37.2743 20.6768 37.2123 20.7971C37.1539 20.9175 37.0718 21.0088 36.966 21.0709C36.864 21.1327 36.7344 21.1638 36.5775 21.1638C36.5118 21.1638 36.4572 21.1601 36.4135 21.153C36.3762 21.1473 36.3395 21.1381 36.304 21.1255V20.54ZM33 21.9353V20.5839H33.3008C33.3738 20.4599 33.4304 20.2922 33.4706 20.0805C33.5105 19.8616 33.5326 19.6045 33.536 19.309C33.5434 19.0099 33.5471 18.6705 33.5471 18.2913H33.8262V18.2857H35.7631V20.5839H36.1898V21.9353H35.6153L35.5607 21.1255H33.6237L33.5799 21.9353H33ZM34.0669 20.1079C34.0377 20.3049 33.9975 20.4633 33.9465 20.5839H35.1283V18.8274H34.138C34.1343 19.0864 34.1271 19.3236 34.1161 19.5388C34.1106 19.7292 34.0942 19.9194 34.0669 20.1079Z" fill="#3E424C"/>
</svg>
