<svg xmlns="http://www.w3.org/2000/svg" width="24" height="24" viewBox="0 0 24 24" fill="none"><rect width="24" height="24" fill="none"/>
<path fill-rule="evenodd" clip-rule="evenodd" d="M2 18.0699H7.95887L7.9559 13.3787L7.94046 13.3768C7.92694 13.3752 7.92454 13.3714 7.9213 13.3468C7.91926 13.3313 7.91759 13.2789 7.91759 13.2303V13.1421H7.88265L7.87928 13.0223L7.84097 13.0184V12.9789C7.84097 12.9394 7.84095 12.9393 7.82397 12.9393C7.80741 12.9393 7.80687 12.9383 7.80288 12.8994C7.79886 12.8603 7.7984 12.8595 7.78156 12.8595H7.76435V12.7796H7.74372C7.72473 12.7796 7.72309 12.7781 7.72309 12.7612C7.72309 12.7448 7.72113 12.7427 7.70541 12.7427C7.68913 12.7427 7.68773 12.741 7.68773 12.7212C7.68773 12.7007 7.68674 12.6997 7.6671 12.6997C7.64811 12.6997 7.64647 12.6983 7.64647 12.6813C7.64647 12.6649 7.6445 12.6628 7.62879 12.6628C7.61251 12.6628 7.6111 12.6611 7.6111 12.6413V12.6198H7.53448V12.5983C7.53448 12.5785 7.53308 12.5768 7.5168 12.5768C7.50114 12.5768 7.49912 12.5747 7.49912 12.5587C7.49912 12.5405 7.49908 12.5405 7.45933 12.5387C7.42131 12.537 7.41947 12.5362 7.41776 12.5208C7.41619 12.5067 7.41258 12.5042 7.38893 12.5008C7.37407 12.4987 7.34902 12.497 7.33326 12.497C7.30536 12.497 7.30461 12.4965 7.30461 12.4785V12.4601H7.21703C7.16885 12.4601 7.11713 12.4583 7.1021 12.4562C7.07833 12.4528 7.07475 12.4504 7.07475 12.4377V12.4232H6.88025V12.4601H6.68574V12.4777C6.68574 12.494 6.68369 12.4956 6.65839 12.4992C6.64336 12.5013 6.61816 12.5031 6.6024 12.5031C6.5745 12.5031 6.57376 12.5036 6.57376 12.5215C6.57376 12.5385 6.57212 12.54 6.55313 12.54C6.53429 12.54 6.5325 12.5415 6.5325 12.5578C6.5325 12.575 6.53129 12.5758 6.49713 12.5799C6.46298 12.584 6.46177 12.5848 6.46177 12.602C6.46177 12.6183 6.45998 12.6198 6.44114 12.6198C6.42225 12.6198 6.42051 12.6214 6.42051 12.6379C6.42051 12.6537 6.4182 12.6562 6.40136 12.6579C6.38451 12.6595 6.38198 12.6622 6.38036 12.6797C6.37874 12.6972 6.37637 12.6997 6.36157 12.6997C6.34677 12.6997 6.3444 12.7022 6.34279 12.7197C6.34117 12.7372 6.33863 12.7399 6.32179 12.7416C6.30494 12.7433 6.30263 12.7457 6.30263 12.7615C6.30263 12.7775 6.30058 12.7796 6.28495 12.7796H6.26727V12.8595H6.22601V12.9393H6.20833C6.1911 12.9393 6.19065 12.9401 6.19065 12.9692C6.19065 12.9856 6.18898 13.0118 6.18694 13.0272C6.1837 13.0519 6.1813 13.0557 6.16778 13.0573C6.15242 13.0591 6.15232 13.0595 6.15065 13.1191L6.14896 13.179H6.11402V13.2703C6.11402 13.3205 6.11236 13.3743 6.11032 13.3898C6.10708 13.4144 6.10467 13.4182 6.09116 13.4198L6.07571 13.4217L6.07274 16.1897H3.88019V4.40479H2V18.0699Z" fill="white"/>
<path d="M16.8765 18.0699V17.99H16.8591C16.8419 17.99 16.8417 17.9897 16.8399 17.9516C16.8382 17.9132 16.8382 17.9132 16.819 17.9113L16.7999 17.9094V17.8698C16.7999 17.8303 16.7999 17.8303 16.7829 17.8303C16.7663 17.8303 16.7658 17.8293 16.7618 17.7903C16.7578 17.7513 16.7573 17.7504 16.7405 17.7504H16.7233V17.7105C16.7233 17.6705 16.7232 17.6705 16.7063 17.6705C16.6897 17.6705 16.6892 17.6695 16.6852 17.6306C16.6814 17.594 16.6799 17.5907 16.6673 17.5907C16.6546 17.5907 16.6531 17.5873 16.6494 17.5507C16.6454 17.5122 16.6447 17.5108 16.6289 17.5108C16.6132 17.5108 16.6125 17.5093 16.6085 17.4708C16.6048 17.4346 16.6032 17.4309 16.591 17.4309C16.5794 17.4309 16.577 17.4268 16.5738 17.4024C16.5717 17.3867 16.57 17.3606 16.57 17.3444C16.57 17.3156 16.5695 17.3149 16.5509 17.313C16.5317 17.3111 16.5317 17.311 16.53 17.2731C16.5283 17.2368 16.5275 17.2349 16.5123 17.2331C16.4969 17.2313 16.4963 17.2297 16.4946 17.1897L16.4928 17.1483H16.4521V17.0684H16.4168V16.9885H16.3996C16.3827 16.9885 16.3822 16.9876 16.3782 16.9486C16.3742 16.9096 16.3737 16.9086 16.3571 16.9086C16.3422 16.9086 16.3401 16.9064 16.3401 16.8902V16.8718H14.3421V16.7857H14.3774V16.7059H14.4187V16.6321H14.4364C14.4526 16.6321 14.4541 16.6304 14.4541 16.611C14.4541 16.5917 14.4557 16.5897 14.4732 16.588C14.4924 16.586 14.4924 16.586 14.4941 16.5476C14.4959 16.5096 14.4961 16.5092 14.5133 16.5092C14.5292 16.5092 14.5307 16.5075 14.5307 16.4877C14.5307 16.4673 14.5317 16.4662 14.5513 16.4662H14.5719V16.3864H14.5892C14.6045 16.3864 14.6068 16.3839 14.6084 16.3664C14.61 16.3488 14.6126 16.3462 14.6294 16.3445L14.6486 16.3426V16.2635H14.6657C14.6822 16.2635 14.6829 16.2622 14.6869 16.2266C14.6908 16.191 14.6916 16.1897 14.7081 16.1897C14.7237 16.1897 14.7252 16.1879 14.7252 16.1682C14.7252 16.1486 14.7267 16.1467 14.7422 16.1467C14.7587 16.1467 14.7593 16.1457 14.7633 16.1068C14.7673 16.0677 14.7678 16.0668 14.7846 16.0668C14.8003 16.0668 14.8018 16.065 14.8018 16.0453C14.8018 16.0257 14.8033 16.0238 14.819 16.0238C14.8359 16.0238 14.8363 16.023 14.8403 15.9839C14.8443 15.945 14.8449 15.944 14.8614 15.944C14.8764 15.944 14.8784 15.9417 14.8784 15.9255C14.8784 15.9091 14.8804 15.9071 14.8961 15.9071H14.9138V15.8272H14.9537L14.9578 15.7873C14.9615 15.7506 14.963 15.7473 14.9758 15.7473C14.9871 15.7473 14.99 15.7437 14.9915 15.7274C14.9931 15.71 14.9957 15.7072 15.0119 15.7055C15.03 15.7037 15.0304 15.7029 15.0344 15.664C15.0382 15.6277 15.0397 15.6244 15.0524 15.6244C15.0638 15.6244 15.0666 15.6208 15.0681 15.6045C15.0698 15.5869 15.0723 15.5843 15.0891 15.5826L15.1083 15.5807V15.5442C15.1083 15.5079 15.1084 15.5077 15.1256 15.5077C15.1408 15.5077 15.1431 15.5053 15.1448 15.4877C15.1464 15.4702 15.1489 15.4675 15.1658 15.4658L15.1849 15.4639V15.3848H15.2055C15.2252 15.3848 15.2262 15.3838 15.2262 15.3633C15.2262 15.3436 15.2276 15.3418 15.2436 15.3418C15.2608 15.3418 15.261 15.3414 15.2627 15.3034C15.2645 15.265 15.2645 15.265 15.2836 15.2631L15.3028 15.2611V15.2247C15.3028 15.1882 15.3028 15.1882 15.3205 15.1882C15.3368 15.1882 15.3382 15.1865 15.3382 15.1667C15.3382 15.1462 15.3391 15.1452 15.3588 15.1452H15.3794V15.0653H15.3967C15.4119 15.0653 15.4143 15.0629 15.4159 15.0453C15.4175 15.0278 15.42 15.0251 15.4369 15.0234L15.456 15.0215V14.9424H15.4737C15.4894 14.9424 15.4914 14.9404 15.4914 14.924C15.4914 14.907 15.493 14.9056 15.512 14.9056H15.5327V14.8656C15.5327 14.8257 15.5327 14.8257 15.5497 14.8257C15.5662 14.8257 15.5668 14.8247 15.5708 14.7857C15.5748 14.7467 15.5752 14.7458 15.5921 14.7458C15.6078 14.7458 15.6093 14.744 15.6093 14.7243C15.6093 14.7046 15.6108 14.7028 15.6265 14.7028C15.6433 14.7028 15.6438 14.7019 15.6478 14.6628C15.6518 14.6239 15.6523 14.6229 15.6689 14.6229C15.6844 14.6229 15.6859 14.621 15.6859 14.6014C15.6859 14.5818 15.6874 14.5799 15.703 14.5799C15.7195 14.5799 15.7203 14.5786 15.7242 14.543C15.7282 14.5074 15.7289 14.5062 15.7454 14.5062C15.761 14.5062 15.7625 14.5043 15.7625 14.4847C15.7625 14.465 15.764 14.4632 15.7797 14.4632C15.7966 14.4632 15.797 14.4623 15.8011 14.4232C15.8051 14.3843 15.8056 14.3833 15.8222 14.3833C15.8376 14.3833 15.8391 14.3814 15.8391 14.3618C15.8391 14.342 15.8406 14.3403 15.8565 14.3403C15.8738 14.3403 15.874 14.3399 15.8757 14.3019C15.8774 14.2638 15.8776 14.2634 15.8959 14.2616C15.9137 14.2598 15.9144 14.2586 15.9183 14.2232C15.9219 14.1896 15.9234 14.1867 15.9367 14.1867C15.9493 14.1867 15.9511 14.1839 15.9511 14.1652C15.9511 14.1448 15.9522 14.1436 15.9711 14.1436H15.991L15.9951 14.1037C15.9991 14.0646 15.9996 14.0638 16.0164 14.0638C16.0322 14.0638 16.0337 14.0619 16.0337 14.0423C16.0337 14.0227 16.0352 14.0208 16.0506 14.0208C16.0672 14.0208 16.0677 14.0198 16.0717 13.9808C16.0758 13.9418 16.0762 13.9409 16.0931 13.9409C16.1088 13.9409 16.1103 13.939 16.1103 13.9194C16.1103 13.8996 16.1117 13.8979 16.128 13.8979H16.1456V13.8241H16.2211L16.2252 13.861C16.2292 13.8966 16.2299 13.8979 16.2464 13.8979C16.262 13.8979 16.2635 13.8997 16.2635 13.9194C16.2635 13.939 16.265 13.9409 16.2805 13.9409C16.2971 13.9409 16.2976 13.9419 16.3016 13.9808C16.3056 14.0199 16.3061 14.0208 16.3229 14.0208C16.3387 14.0208 16.3401 14.0226 16.3401 14.0423C16.3401 14.0619 16.3416 14.0638 16.3574 14.0638C16.3742 14.0638 16.3747 14.0646 16.3787 14.1037C16.3826 14.1425 16.3833 14.1436 16.3995 14.1436C16.4159 14.1436 16.4162 14.1444 16.418 14.182C16.4197 14.2205 16.4197 14.2205 16.4389 14.2224C16.4557 14.2241 16.458 14.2265 16.458 14.2423C16.458 14.2583 16.4601 14.2604 16.4757 14.2604H16.4934V14.3395L16.5125 14.3414C16.5294 14.3431 16.5319 14.3457 16.5335 14.3633C16.5352 14.3809 16.5375 14.3833 16.5527 14.3833H16.57V14.4632H16.5906C16.6103 14.4632 16.6113 14.4642 16.6113 14.4847C16.6113 14.5043 16.6128 14.5062 16.6284 14.5062C16.6449 14.5062 16.6456 14.5075 16.6495 14.5427C16.6533 14.5764 16.6548 14.5793 16.6693 14.5811C16.6841 14.5829 16.685 14.5849 16.6867 14.621C16.6884 14.6589 16.6885 14.6591 16.7073 14.6609C16.7238 14.6626 16.7264 14.6654 16.728 14.6824C16.7295 14.6986 16.7327 14.7024 16.7457 14.7039C16.7608 14.7058 16.7616 14.7077 16.7633 14.7439C16.765 14.7818 16.7651 14.7819 16.7839 14.7838C16.8005 14.7855 16.8031 14.7882 16.8047 14.8057C16.8062 14.822 16.809 14.8257 16.8204 14.8257C16.8332 14.8257 16.8346 14.829 16.8384 14.8656L16.8425 14.9056H16.8624C16.8813 14.9056 16.8824 14.9067 16.8824 14.9271C16.8824 14.9458 16.8843 14.9486 16.8968 14.9486C16.9101 14.9486 16.9116 14.9515 16.9152 14.9851C16.9191 15.0205 16.9198 15.0217 16.9376 15.0235C16.9559 15.0253 16.9561 15.0257 16.9578 15.0638C16.9596 15.1018 16.9598 15.1022 16.977 15.1022C16.9929 15.1022 16.9944 15.104 16.9944 15.1237C16.9944 15.1433 16.9958 15.1452 17.0116 15.1452C17.0284 15.1452 17.0289 15.1461 17.0329 15.1851C17.0369 15.2241 17.0374 15.2251 17.054 15.2251C17.0695 15.2251 17.071 15.227 17.071 15.2466C17.071 15.2662 17.0725 15.2681 17.0881 15.2681C17.1046 15.2681 17.1053 15.2693 17.1093 15.3049C17.1133 15.3405 17.114 15.3418 17.1305 15.3418C17.1461 15.3418 17.1476 15.3437 17.1476 15.3633C17.1476 15.383 17.1491 15.3848 17.1648 15.3848C17.1817 15.3848 17.1821 15.3857 17.1862 15.4248C17.1901 15.4637 17.1907 15.4647 17.2072 15.4647C17.2242 15.4647 17.2242 15.4647 17.2242 15.5046V15.5446H17.2449C17.2645 15.5446 17.2655 15.5456 17.2655 15.5661C17.2655 15.5859 17.2669 15.5876 17.2832 15.5876C17.3008 15.5876 17.3009 15.5876 17.3009 15.6241V15.6605L17.32 15.6625C17.3369 15.6642 17.3394 15.6668 17.341 15.6844C17.3426 15.7019 17.345 15.7043 17.3602 15.7043H17.3775V15.7842H17.3981C17.4178 15.7842 17.4187 15.7852 17.4187 15.8057C17.4187 15.8253 17.4202 15.8272 17.4357 15.8272C17.4523 15.8272 17.4528 15.8282 17.4568 15.8671C17.4609 15.9062 17.4613 15.9071 17.4782 15.9071H17.4954V15.987H17.516C17.5349 15.987 17.5366 15.9885 17.5366 16.005C17.5366 16.0201 17.5393 16.0233 17.5528 16.025C17.5683 16.0268 17.5691 16.0285 17.5708 16.0649C17.5725 16.1028 17.5726 16.103 17.5914 16.1049C17.608 16.1065 17.6105 16.1093 17.6121 16.1267C17.6137 16.1431 17.6165 16.1467 17.6279 16.1467C17.6406 16.1467 17.6421 16.15 17.6459 16.1867L17.65 16.2266H17.6699C17.6888 16.2266 17.6899 16.2278 17.6899 16.2481C17.6899 16.2667 17.6918 16.2696 17.704 16.2696C17.7169 16.2696 17.7185 16.2728 17.7222 16.3061C17.7262 16.3416 17.7269 16.3427 17.7449 16.3445C17.7634 16.3464 17.7636 16.3467 17.7653 16.3848C17.767 16.4228 17.7672 16.4232 17.7845 16.4232C17.8004 16.4232 17.8019 16.425 17.8019 16.4447C17.8019 16.4643 17.8034 16.4662 17.8189 16.4662C17.8354 16.4662 17.836 16.4672 17.8399 16.5062C17.844 16.5452 17.8444 16.5461 17.8613 16.5461C17.877 16.5461 17.8785 16.5479 17.8785 16.5676C17.8785 16.5873 17.8799 16.5891 17.8957 16.5891C17.9125 16.5891 17.913 16.59 17.917 16.6291C17.921 16.668 17.9215 16.669 17.9381 16.669C17.9536 16.669 17.9551 16.6709 17.9551 16.6905C17.9551 16.7101 17.9566 16.712 17.9722 16.712C17.9887 16.712 17.9894 16.7133 17.9934 16.7489C17.9974 16.7845 17.9981 16.7857 18.0146 16.7857H18.0317V16.8656H18.0524C18.072 16.8656 18.073 16.8666 18.073 16.8871C18.073 16.9069 18.0744 16.9086 18.0907 16.9086H18.1083V16.9885H18.129C18.1486 16.9885 18.1496 16.9895 18.1496 17.01C18.1496 17.0296 18.1511 17.0315 18.1667 17.0315C18.1832 17.0315 18.184 17.0328 18.1879 17.068C18.1916 17.1017 18.1931 17.1047 18.2076 17.1064C18.2205 17.108 18.2236 17.1118 18.2251 17.1283C18.2267 17.1456 18.2291 17.1483 18.2436 17.1483C18.2597 17.1483 18.2603 17.1495 18.2643 17.1882C18.2683 17.2273 18.2688 17.2281 18.2856 17.2281H18.3028V17.3072L18.322 17.3092C18.3389 17.3108 18.3414 17.3135 18.343 17.3311C18.3446 17.3486 18.3469 17.351 18.3622 17.351H18.3795V17.4309H18.4001C18.4197 17.4309 18.4207 17.4319 18.4207 17.4524C18.4207 17.4711 18.4226 17.4739 18.4352 17.4739C18.4484 17.4739 18.4499 17.4769 18.4536 17.5104C18.4574 17.5458 18.4581 17.547 18.476 17.5488C18.492 17.5505 18.4946 17.5533 18.4962 17.5707C18.4978 17.587 18.5006 17.5907 18.512 17.5907C18.5247 17.5907 18.5262 17.5939 18.53 17.6306L18.5341 17.6705H18.574V17.7504H18.5917C18.6074 17.7504 18.6093 17.7525 18.6093 17.7688C18.6093 17.7851 18.6114 17.7873 18.6263 17.7873C18.6429 17.7873 18.6434 17.7883 18.6474 17.8272C18.6514 17.8663 18.6519 17.8671 18.6687 17.8671C18.6845 17.8671 18.686 17.869 18.686 17.8887C18.686 17.9083 18.6875 17.9102 18.703 17.9102C18.7195 17.9102 18.7201 17.9112 18.7241 17.9501C18.7281 17.9892 18.7285 17.99 18.7454 17.99C18.7611 17.99 18.7626 17.9919 18.7626 18.0115C18.7626 18.0312 18.7641 18.033 18.7797 18.033C18.7962 18.033 18.7969 18.0343 18.8009 18.0699C18.8049 18.1055 18.8056 18.1068 18.8221 18.1068H18.8392V18.1859L18.8584 18.1878C18.8752 18.1895 18.8777 18.1921 18.8794 18.2097C18.881 18.2273 18.8833 18.2297 18.8985 18.2297H18.9158V18.3095H18.9365C18.9561 18.3095 18.9571 18.3106 18.9571 18.331C18.9571 18.3507 18.9586 18.3526 18.9741 18.3526C18.9906 18.3526 18.9912 18.3536 18.9952 18.3925C18.9992 18.4316 18.9997 18.4324 19.0165 18.4324C19.0322 18.4324 19.0337 18.4343 19.0337 18.4539C19.0337 18.4736 19.0352 18.4754 19.0508 18.4754C19.0673 18.4754 19.0681 18.4767 19.072 18.5123C19.076 18.5479 19.0767 18.5492 19.0932 18.5492H19.1103V18.6283L19.1295 18.6302C19.1463 18.6319 19.1489 18.6345 19.1505 18.6521C19.1521 18.6697 19.1544 18.6721 19.1696 18.6721H19.187V18.7519H19.2076C19.2272 18.7519 19.2282 18.753 19.2282 18.7734C19.2282 18.7921 19.2301 18.795 19.2424 18.795C19.2553 18.795 19.2569 18.7982 19.2606 18.8315C19.2645 18.8669 19.2652 18.868 19.2833 18.8699C19.2995 18.8715 19.3021 18.8743 19.3037 18.8917C19.3052 18.9081 19.3081 18.9117 19.3195 18.9117C19.3322 18.9117 19.3337 18.915 19.3375 18.9516L19.3416 18.9916H19.3815V19.0715H19.3991C19.4154 19.0715 19.4168 19.0732 19.4168 19.093C19.4168 19.1126 19.4183 19.1145 19.434 19.1145C19.4509 19.1145 19.4513 19.1153 19.4553 19.1544C19.4593 19.1933 19.4599 19.1943 19.4764 19.1943C19.4919 19.1943 19.4934 19.1962 19.4934 19.2158C19.4934 19.2355 19.4949 19.2373 19.5105 19.2373C19.5271 19.2373 19.5278 19.2386 19.5317 19.2742C19.5357 19.3098 19.5364 19.3111 19.553 19.3111C19.5686 19.3111 19.5701 19.313 19.5701 19.3326C19.5701 19.3524 19.5715 19.3541 19.5877 19.3541C19.6033 19.3541 19.6054 19.3562 19.6054 19.3717C19.6054 19.3873 19.6029 19.3898 19.5833 19.3932C19.5712 19.3953 17.6524 19.397 15.3195 19.397L11.0777 19.3971L11.0736 19.437C11.0696 19.476 11.0691 19.477 11.0525 19.477C11.0376 19.477 11.0355 19.4792 11.0355 19.495C11.0355 19.5109 11.0332 19.5133 11.0164 19.515C10.9972 19.5169 10.9972 19.5169 10.9955 19.5553C10.9937 19.5933 10.9935 19.5937 10.9763 19.5937C10.9603 19.5937 10.9589 19.5955 10.9589 19.6152C10.9589 19.6357 10.9579 19.6367 10.9383 19.6367H10.9176V19.7166H10.9004C10.8836 19.7166 10.8831 19.7175 10.8791 19.7565C10.8751 19.7955 10.8746 19.7965 10.858 19.7965C10.8425 19.7965 10.841 19.7984 10.841 19.818C10.841 19.8376 10.8395 19.8395 10.8239 19.8395C10.8074 19.8395 10.8067 19.8408 10.8027 19.8764C10.7987 19.912 10.798 19.9132 10.7815 19.9132C10.7659 19.9132 10.7644 19.9151 10.7644 19.9347C10.7644 19.9544 10.7629 19.9562 10.7472 19.9562C10.7304 19.9562 10.7299 19.9571 10.7259 19.9962C10.7219 20.0351 10.7213 20.0361 10.7048 20.0361C10.6893 20.0361 10.6878 20.038 10.6878 20.0576C10.6878 20.0773 10.6863 20.0791 10.6707 20.0791C10.6542 20.0791 10.6534 20.0804 10.6495 20.116C10.6455 20.1516 10.6448 20.1529 10.6283 20.1529C10.6126 20.1529 10.6112 20.1547 10.6112 20.1744C10.6112 20.194 10.6097 20.1959 10.5939 20.1959C10.5771 20.1959 10.5766 20.1968 10.5726 20.2358C10.5686 20.2747 10.5681 20.2758 10.5515 20.2758C10.536 20.2758 10.5345 20.2776 10.5345 20.2973C10.5345 20.3169 10.5331 20.3188 10.5173 20.3188C10.5005 20.3188 10.5 20.3196 10.496 20.3587C10.492 20.3976 10.4915 20.3986 10.4749 20.3986C10.46 20.3986 10.4579 20.4009 10.4579 20.4171C10.4579 20.4335 10.4559 20.4355 10.4402 20.4355H10.4225V20.5154H10.4019C10.3823 20.5154 10.3813 20.5164 10.3813 20.5369C10.3813 20.5567 10.3799 20.5584 10.3636 20.5584C10.3479 20.5584 10.3459 20.5604 10.3459 20.5768V20.5953H22L21.9963 20.5667C21.9942 20.5511 21.9925 20.5331 21.9925 20.5268C21.9925 20.5178 21.9881 20.5154 21.9719 20.5154C21.9522 20.5154 21.9512 20.5144 21.9512 20.4939C21.9512 20.4741 21.9498 20.4724 21.9336 20.4724C21.9159 20.4724 21.9159 20.4723 21.9159 20.4359V20.3994L21.8967 20.3975C21.8776 20.3956 21.8776 20.3956 21.8758 20.3572C21.8741 20.3191 21.8739 20.3188 21.8567 20.3188C21.8407 20.3188 21.8393 20.317 21.8393 20.2973C21.8393 20.2768 21.8383 20.2758 21.8186 20.2758H21.798V20.1959H21.7803C21.7646 20.1959 21.7626 20.1938 21.7626 20.1774C21.7626 20.1612 21.7606 20.159 21.7456 20.159C21.7291 20.159 21.7285 20.158 21.7245 20.1191C21.7205 20.08 21.7201 20.0791 21.7032 20.0791C21.6875 20.0791 21.686 20.0773 21.686 20.0576C21.686 20.038 21.6845 20.0361 21.6688 20.0361C21.652 20.0361 21.6515 20.0352 21.6475 19.9962C21.6435 19.9575 21.6429 19.9562 21.6268 19.9562C21.6123 19.9562 21.6099 19.9536 21.6083 19.9363C21.6068 19.9198 21.6037 19.916 21.5908 19.9144C21.5763 19.9127 21.5748 19.9097 21.5711 19.8764C21.5672 19.8413 21.5665 19.8401 21.5484 19.8383C21.5322 19.8367 21.5296 19.8339 21.528 19.8165C21.5265 19.8001 21.5236 19.7965 21.5122 19.7965C21.4995 19.7965 21.498 19.7932 21.4943 19.7569C21.4903 19.718 21.4899 19.7173 21.4717 19.7154C21.4556 19.7138 21.453 19.711 21.4514 19.6936C21.4498 19.6772 21.447 19.6736 21.4356 19.6736C21.4229 19.6736 21.4214 19.6703 21.4176 19.6337C21.4137 19.595 21.413 19.5937 21.397 19.5937C21.381 19.5937 21.3803 19.5924 21.3764 19.5538C21.3724 19.5149 21.3718 19.5138 21.3553 19.5138C21.3403 19.5138 21.3383 19.5116 21.3383 19.4954C21.3383 19.4792 21.3362 19.477 21.3213 19.477C21.3047 19.477 21.3042 19.476 21.3002 19.437C21.2962 19.398 21.2957 19.3971 21.2789 19.3971C21.2631 19.3971 21.2616 19.3953 21.2616 19.3756C21.2616 19.356 21.2601 19.3541 21.2446 19.3541C21.2281 19.3541 21.2275 19.3531 21.2236 19.3142C21.2195 19.2751 21.2191 19.2742 21.2022 19.2742C21.1865 19.2742 21.185 19.2724 21.185 19.2527C21.185 19.2331 21.1835 19.2312 21.1679 19.2312C21.1514 19.2312 21.1507 19.2299 21.1467 19.1943C21.1427 19.1587 21.142 19.1575 21.1255 19.1575C21.1099 19.1575 21.1084 19.1556 21.1084 19.136C21.1084 19.1164 21.1069 19.1145 21.0914 19.1145C21.0748 19.1145 21.0743 19.1135 21.0703 19.0745C21.0663 19.0355 21.0658 19.0346 21.049 19.0346C21.0332 19.0346 21.0318 19.0327 21.0318 19.0131C21.0318 18.9934 21.0303 18.9916 21.0146 18.9916C20.9977 18.9916 20.9973 18.9907 20.9932 18.9516C20.9893 18.9129 20.9887 18.9117 20.9724 18.9117C20.956 18.9117 20.9557 18.9109 20.954 18.8733C20.9522 18.8349 20.9522 18.8349 20.9331 18.833C20.9162 18.8313 20.9139 18.8289 20.9139 18.813C20.9139 18.797 20.9118 18.795 20.8962 18.795H20.8785V18.7151H20.8579C20.8383 18.7151 20.8373 18.7141 20.8373 18.6936C20.8373 18.6738 20.8359 18.6721 20.8196 18.6721H20.8019V18.5922H20.7813C20.7616 18.5922 20.7607 18.5912 20.7607 18.5707C20.7607 18.551 20.7592 18.5492 20.7435 18.5492C20.727 18.5492 20.7263 18.5479 20.7223 18.5123C20.7184 18.4767 20.7177 18.4754 20.7011 18.4754C20.6855 18.4754 20.684 18.4736 20.684 18.4539C20.684 18.4343 20.6825 18.4324 20.667 18.4324C20.6505 18.4324 20.6499 18.4314 20.6459 18.3925C20.6419 18.3534 20.6415 18.3526 20.6246 18.3526C20.6089 18.3526 20.6074 18.3507 20.6074 18.331C20.6074 18.3114 20.6059 18.3095 20.5903 18.3095C20.5738 18.3095 20.5731 18.3083 20.5691 18.273C20.5654 18.2393 20.5639 18.2364 20.5494 18.2346C20.5345 18.2328 20.5336 18.2308 20.532 18.1947C20.5303 18.1568 20.5302 18.1567 20.5114 18.1548C20.4948 18.1531 20.4922 18.1504 20.4906 18.1329C20.489 18.1153 20.4867 18.1129 20.4715 18.1129H20.4542V18.033H20.4335C20.4139 18.033 20.4129 18.032 20.4129 18.0115C20.4129 17.9917 20.4115 17.99 20.3952 17.99H20.3775V17.9102H20.3569C20.3373 17.9102 20.3363 17.9091 20.3363 17.8887C20.3363 17.8689 20.3349 17.8671 20.3186 17.8671C20.3009 17.8671 20.3009 17.8671 20.3009 17.8307V17.7942L20.2818 17.7923C20.2649 17.7906 20.2624 17.7879 20.2608 17.7704C20.2591 17.7528 20.2568 17.7504 20.2416 17.7504H20.2243V17.6705H20.2037C20.184 17.6705 20.183 17.6695 20.183 17.649C20.183 17.6292 20.1816 17.6275 20.1654 17.6275C20.1477 17.6275 20.1477 17.6275 20.1477 17.591V17.5546L20.1285 17.5526C20.1094 17.5507 20.1094 17.5507 20.1076 17.5123C20.1059 17.4743 20.1057 17.4739 20.0885 17.4739C20.0726 17.4739 20.0711 17.4721 20.0711 17.4528C20.0711 17.4335 20.0694 17.4315 20.0519 17.4297C20.0327 17.4278 20.0327 17.4278 20.031 17.3894C20.0293 17.3516 20.029 17.351 20.0122 17.351C19.9973 17.351 19.9949 17.3485 19.9933 17.3311C19.9917 17.3135 19.9892 17.3108 19.9723 17.3092L19.9532 17.3072V17.2351L19.934 17.2331C19.9172 17.2314 19.9146 17.2288 19.913 17.2112C19.9115 17.195 19.9086 17.1913 19.8975 17.1913C19.885 17.1913 19.8835 17.1878 19.8797 17.1517C19.8757 17.1127 19.8754 17.1121 19.857 17.1102C19.8406 17.1086 19.838 17.1058 19.8364 17.0883C19.8349 17.072 19.832 17.0684 19.8207 17.0684C19.8079 17.0684 19.8064 17.0651 19.8027 17.0284L19.7986 16.9885H19.7786C19.7597 16.9885 19.7587 16.9873 19.7587 16.967C19.7587 16.9484 19.7568 16.9455 19.7445 16.9455C19.7316 16.9455 19.73 16.9423 19.7263 16.909C19.7223 16.8735 19.7217 16.8724 19.7036 16.8706C19.6851 16.8687 19.685 16.8684 19.6832 16.8303C19.6815 16.7923 19.6813 16.7919 19.6641 16.7919C19.6481 16.7919 19.6467 16.7901 19.6467 16.7704C19.6467 16.7508 19.6452 16.7489 19.6297 16.7489C19.6131 16.7489 19.6126 16.7479 19.6086 16.7089C19.6046 16.6699 19.6041 16.669 19.5873 16.669C19.5715 16.669 19.5701 16.6672 19.5701 16.6475C19.5701 16.6279 19.5686 16.626 19.553 16.626C19.5364 16.626 19.5357 16.6247 19.5317 16.5891C19.5278 16.5535 19.5271 16.5522 19.5105 16.5522C19.4949 16.5522 19.4934 16.5504 19.4934 16.5307C19.4934 16.5111 19.4919 16.5092 19.4764 16.5092C19.4599 16.5092 19.4593 16.5082 19.4553 16.4693C19.4513 16.4302 19.4509 16.4294 19.434 16.4294C19.4183 16.4294 19.4168 16.4275 19.4168 16.4079C19.4168 16.3882 19.4153 16.3864 19.3996 16.3864C19.3828 16.3864 19.3823 16.3855 19.3783 16.3464C19.3743 16.3077 19.3737 16.3065 19.3576 16.3065C19.3431 16.3065 19.3407 16.3039 19.3391 16.2865C19.3376 16.2701 19.3345 16.2662 19.3216 16.2646C19.3071 16.2629 19.3056 16.2599 19.3018 16.2262C19.2979 16.191 19.2972 16.1897 19.2807 16.1897H19.2636V16.1099H19.2429C19.2233 16.1099 19.2223 16.1088 19.2223 16.0883C19.2223 16.0686 19.2209 16.0668 19.2046 16.0668H19.187V15.987H19.1663C19.1473 15.987 19.1457 15.9855 19.1457 15.9685C19.1457 15.9523 19.1437 15.9501 19.1287 15.9501C19.1121 15.9501 19.1116 15.9491 19.1076 15.9105C19.1038 15.8734 19.1026 15.8708 19.0878 15.869C19.0748 15.8675 19.0717 15.8637 19.0702 15.8472C19.0686 15.8298 19.0661 15.8272 19.0517 15.8272C19.0356 15.8272 19.035 15.826 19.031 15.7873C19.027 15.7482 19.0265 15.7473 19.0097 15.7473C18.9939 15.7473 18.9924 15.7455 18.9924 15.7258C18.9924 15.7062 18.991 15.7043 18.9753 15.7043C18.9588 15.7043 18.9581 15.703 18.9542 15.6678C18.9504 15.6341 18.9489 15.6311 18.9344 15.6294C18.9215 15.6278 18.9184 15.624 18.9169 15.6075C18.9153 15.5902 18.9129 15.5876 18.8985 15.5876C18.8823 15.5876 18.8817 15.5863 18.8777 15.5476C18.8737 15.5086 18.8733 15.5077 18.8564 15.5077H18.8392V15.4286L18.82 15.4267C18.8032 15.425 18.8007 15.4223 18.799 15.4048C18.7974 15.3872 18.7951 15.3848 18.7799 15.3848H18.7626V15.3049H18.742C18.723 15.3049 18.7213 15.3035 18.7213 15.2865C18.7213 15.2701 18.7194 15.2681 18.7036 15.2681H18.686V15.189L18.6668 15.187C18.65 15.1854 18.6474 15.1827 18.6458 15.1652C18.6442 15.1476 18.6419 15.1452 18.6266 15.1452H18.6093V15.0653H18.5887C18.5691 15.0653 18.5681 15.0643 18.5681 15.0438C18.5681 15.024 18.5667 15.0223 18.5504 15.0223C18.5327 15.0223 18.5327 15.0223 18.5327 14.9858V14.9493L18.5136 14.9474C18.4967 14.9457 18.4942 14.9431 18.4926 14.9255C18.4909 14.908 18.4886 14.9056 18.4734 14.9056H18.4561V14.8257H18.4148V14.7458H18.3975C18.3823 14.7458 18.38 14.7434 18.3784 14.7258C18.3767 14.7083 18.3742 14.7056 18.3574 14.7039L18.3382 14.702V14.6229H18.3176C18.2987 14.6229 18.297 14.6214 18.297 14.6049C18.297 14.5898 18.2943 14.5865 18.2807 14.5849C18.2652 14.5831 18.2645 14.5813 18.2628 14.5449C18.2611 14.5071 18.261 14.5069 18.2422 14.505C18.2256 14.5033 18.223 14.5006 18.2214 14.4831C18.2199 14.4668 18.2171 14.4632 18.2057 14.4632C18.1929 14.4632 18.1915 14.4599 18.1877 14.4232L18.1836 14.3833H18.1637C18.1448 14.3833 18.1437 14.3821 18.1437 14.3618C18.1437 14.3432 18.1418 14.3403 18.1296 14.3403C18.1166 14.3403 18.115 14.337 18.1113 14.3038C18.1074 14.2683 18.1067 14.2672 18.0886 14.2653C18.0724 14.2637 18.0698 14.2609 18.0682 14.2435C18.0667 14.2272 18.0638 14.2235 18.0524 14.2235C18.0397 14.2235 18.0382 14.2202 18.0345 14.1836L18.0303 14.1436H17.9905V14.0638H17.9728C17.9565 14.0638 17.9551 14.0621 17.9551 14.0423C17.9551 14.0218 17.9541 14.0208 17.9345 14.0208H17.9138V13.947H17.8962C17.8799 13.947 17.8785 13.9453 17.8785 13.9255C17.8785 13.9059 17.877 13.904 17.8615 13.904C17.8449 13.904 17.8444 13.903 17.8404 13.8641C17.8364 13.825 17.8359 13.8241 17.8191 13.8241C17.8033 13.8241 17.8019 13.8223 17.8019 13.8026C17.8019 13.783 17.8004 13.7811 17.7846 13.7811C17.7678 13.7811 17.7673 13.7802 17.7633 13.7412C17.7594 13.7025 17.7587 13.7013 17.7426 13.7013C17.7282 13.7013 17.7257 13.6986 17.7241 13.6813C17.7226 13.6648 17.7195 13.661 17.7066 13.6594C17.6922 13.6577 17.6906 13.6547 17.6869 13.621C17.683 13.5858 17.6822 13.5845 17.6657 13.5845C17.6501 13.5845 17.6486 13.5826 17.6486 13.563C17.6486 13.5433 17.6471 13.5415 17.6314 13.5415C17.6146 13.5415 17.6141 13.5406 17.6101 13.5016L17.606 13.4616H17.5661V13.3817H17.5484C17.5327 13.3817 17.5307 13.3797 17.5307 13.3633C17.5307 13.3471 17.5287 13.3449 17.5137 13.3449C17.4972 13.3449 17.4966 13.3439 17.4926 13.3049C17.4886 13.2659 17.4882 13.265 17.4713 13.265C17.4556 13.265 17.4541 13.2632 17.4541 13.2435C17.4541 13.2239 17.4526 13.222 17.4371 13.222C17.4205 13.222 17.42 13.221 17.416 13.182C17.412 13.143 17.4115 13.1421 17.3947 13.1421C17.379 13.1421 17.3775 13.1403 17.3775 13.1206C17.3775 13.101 17.376 13.0991 17.3604 13.0991C17.3439 13.0991 17.3431 13.0978 17.3392 13.0626C17.3355 13.0289 17.3339 13.0259 17.3195 13.0242C17.306 13.0226 17.3036 13.019 17.302 12.9993C17.3003 12.9785 17.2985 12.9762 17.2834 12.9762C17.2673 12.9762 17.2665 12.9748 17.2626 12.9393C17.2586 12.9037 17.2579 12.9025 17.2413 12.9025C17.2257 12.9025 17.2242 12.9006 17.2242 12.881C17.2242 12.8613 17.2228 12.8595 17.207 12.8595C17.1902 12.8595 17.1897 12.8586 17.1857 12.8195C17.1817 12.7806 17.1812 12.7796 17.1646 12.7796C17.1476 12.7796 17.1476 12.7796 17.1476 12.7397V12.6997H17.127C17.108 12.6997 17.1064 12.6983 17.1064 12.6813C17.1064 12.6649 17.1044 12.6628 17.0887 12.6628H17.071V12.5838L17.0518 12.5818C17.035 12.5801 17.0325 12.5775 17.0308 12.5599C17.0292 12.5424 17.0269 12.54 17.0117 12.54H16.9944V12.4601H16.9737C16.9541 12.4601 16.9531 12.4591 16.9531 12.4386C16.9531 12.4188 16.9517 12.4171 16.9354 12.4171C16.9178 12.4171 16.9178 12.417 16.9178 12.3806V12.3441L16.8986 12.3422C16.8818 12.3405 16.8792 12.3379 16.8776 12.3203C16.876 12.3027 16.8737 12.3003 16.8584 12.3003H16.8411V12.2205H16.8205C16.8009 12.2205 16.7999 12.2194 16.7999 12.1989C16.7999 12.1793 16.7984 12.1774 16.7829 12.1774C16.7663 12.1774 16.7658 12.1764 16.7618 12.1375C16.7578 12.0984 16.7573 12.0976 16.7405 12.0976H16.7233V12.0177H16.7026C16.6836 12.0177 16.682 12.0162 16.682 11.9993C16.682 11.9829 16.68 11.9808 16.6643 11.9808H16.6466V11.9017L16.6275 11.8998C16.6106 11.8981 16.6081 11.8955 16.6065 11.8779C16.6048 11.8603 16.6025 11.8579 16.5873 11.8579H16.57V11.7781H16.5494C16.5297 11.7781 16.5287 11.777 16.5287 11.7566C16.5287 11.7368 16.5273 11.735 16.5111 11.735C16.4934 11.735 16.4934 11.735 16.4934 11.6986V11.6621L16.4742 11.6602C16.4574 11.6585 16.4549 11.6558 16.4532 11.6383C16.4517 11.6219 16.4489 11.6183 16.4375 11.6183C16.4247 11.6183 16.4233 11.615 16.4195 11.5784L16.4154 11.5384H16.3955C16.3766 11.5384 16.3755 11.5373 16.3755 11.5169C16.3755 11.4971 16.3741 11.4954 16.3578 11.4954C16.3402 11.4954 16.3401 11.4954 16.3401 11.4589V11.4225L16.3018 11.4186L16.3001 11.3771C16.2983 11.3357 16.2983 11.3357 16.2809 11.3357C16.2656 11.3357 16.2635 11.3335 16.2635 11.3176C16.2635 11.3017 16.2612 11.2993 16.2444 11.2976C16.2252 11.2957 16.2252 11.2957 16.2235 11.2573L16.2217 11.2189H16.1527L16.1486 11.2558C16.1446 11.2914 16.1439 11.2926 16.1274 11.2926C16.1118 11.2926 16.1103 11.2945 16.1103 11.3142C16.1103 11.3338 16.1088 11.3357 16.0933 11.3357C16.0767 11.3357 16.0762 11.3367 16.0722 11.3756C16.0682 11.4147 16.0677 11.4155 16.0509 11.4155C16.0351 11.4155 16.0337 11.4174 16.0337 11.437C16.0337 11.4568 16.0322 11.4585 16.0163 11.4585C15.999 11.4585 15.9988 11.4589 15.9971 11.4969C15.9953 11.5354 15.9953 11.5354 15.9762 11.5373C15.9587 11.539 15.957 11.541 15.957 11.5603C15.957 11.5796 15.9555 11.5814 15.9396 11.5814C15.9224 11.5814 15.9222 11.5818 15.9205 11.6198C15.9187 11.658 15.9186 11.6583 15.9001 11.6601C15.882 11.662 15.8814 11.6631 15.8774 11.6985C15.8737 11.7318 15.8721 11.735 15.8592 11.735C15.847 11.735 15.845 11.7379 15.845 11.7566C15.845 11.7769 15.844 11.7781 15.8251 11.7781H15.8052L15.8011 11.818C15.797 11.8571 15.7966 11.8579 15.7797 11.8579C15.764 11.8579 15.7625 11.8598 15.7625 11.8794C15.7625 11.8991 15.761 11.9009 15.7454 11.9009C15.7289 11.9009 15.7282 11.9022 15.7243 11.9375C15.7205 11.9712 15.719 11.9741 15.7045 11.9759C15.6916 11.9774 15.6885 11.9813 15.687 11.9977C15.6854 12.0151 15.683 12.0177 15.6685 12.0177C15.6524 12.0177 15.6518 12.0189 15.6478 12.0573C15.644 12.0944 15.6428 12.097 15.628 12.0987C15.615 12.1003 15.6119 12.1041 15.6104 12.1206C15.6088 12.138 15.6064 12.1406 15.5917 12.1406C15.5753 12.1406 15.5747 12.1417 15.5708 12.1805C15.5668 12.2194 15.5662 12.2205 15.5497 12.2205C15.5342 12.2205 15.5327 12.2224 15.5327 12.242C15.5327 12.2618 15.5313 12.2635 15.515 12.2635H15.4973V12.3372H15.456V12.4171H15.4384C15.4221 12.4171 15.4207 12.4188 15.4207 12.4386C15.4207 12.4589 15.4196 12.4601 15.4007 12.4601H15.3808L15.3767 12.5C15.3729 12.5367 15.3714 12.54 15.3587 12.54C15.3473 12.54 15.3445 12.5436 15.3429 12.5599C15.3413 12.5774 15.3387 12.5801 15.3225 12.5818C15.3044 12.5836 15.3038 12.5847 15.2998 12.6202C15.2961 12.6535 15.2945 12.6567 15.2816 12.6567C15.2693 12.6567 15.2674 12.6596 15.2674 12.6782C15.2674 12.6987 15.2664 12.6997 15.2468 12.6997H15.2262V12.7796H15.2089C15.1936 12.7796 15.1913 12.782 15.1897 12.7996C15.1881 12.8171 15.1855 12.8198 15.169 12.8214C15.1502 12.8233 15.1501 12.8235 15.1483 12.8614C15.1467 12.8978 15.1459 12.8995 15.1304 12.9014C15.1168 12.903 15.1142 12.9062 15.1142 12.9213C15.1142 12.9378 15.1124 12.9393 15.0936 12.9393H15.0729V13.0192H15.0556C15.0404 13.0192 15.0381 13.0216 15.0365 13.0392C15.0348 13.0568 15.0323 13.0594 15.0155 13.0611L14.9963 13.063V13.1421H14.955V13.222H14.9377C14.9225 13.222 14.9202 13.2244 14.9186 13.242C14.917 13.2595 14.9144 13.2622 14.8976 13.2639L14.8784 13.2658V13.3023C14.8784 13.3387 14.8784 13.3387 14.8607 13.3387C14.8445 13.3387 14.8431 13.3404 14.8431 13.3602C14.8431 13.3807 14.8421 13.3817 14.8224 13.3817H14.8018V13.4616H14.7845C14.7693 13.4616 14.767 13.464 14.7653 13.4816C14.7637 13.4991 14.7612 13.5018 14.7443 13.5035L14.7252 13.5054V13.5845H14.7075C14.6918 13.5845 14.6898 13.5866 14.6898 13.6029C14.6898 13.6199 14.6882 13.6214 14.6692 13.6214H14.6486V13.7013H14.6309C14.6146 13.7013 14.6132 13.703 14.6132 13.7228C14.6132 13.7432 14.6122 13.7443 14.5926 13.7443H14.5719V13.8241H14.5547C14.5379 13.8241 14.5374 13.825 14.5334 13.8641C14.5294 13.9028 14.5288 13.904 14.5127 13.904C14.4982 13.904 14.4958 13.9066 14.4942 13.924C14.4927 13.9404 14.4896 13.9443 14.4767 13.9458C14.4622 13.9476 14.4607 13.9506 14.457 13.9843C14.453 14.0195 14.4523 14.0208 14.4358 14.0208C14.4202 14.0208 14.4187 14.0226 14.4187 14.0423C14.4187 14.0619 14.4172 14.0638 14.4015 14.0638C14.3846 14.0638 14.3842 14.0646 14.3802 14.1037C14.3762 14.1424 14.3755 14.1436 14.3594 14.1436C14.345 14.1436 14.3426 14.1463 14.341 14.1636C14.3394 14.1801 14.3364 14.1839 14.3235 14.1855C14.309 14.1872 14.3075 14.1902 14.3037 14.2239C14.2998 14.2591 14.299 14.2604 14.2826 14.2604C14.2669 14.2604 14.2654 14.2623 14.2654 14.2819C14.2654 14.3016 14.264 14.3034 14.2482 14.3034C14.2314 14.3034 14.2309 14.3043 14.2269 14.3433C14.2229 14.3823 14.2224 14.3833 14.2058 14.3833C14.1903 14.3833 14.1888 14.3852 14.1888 14.4048C14.1888 14.4253 14.1878 14.4263 14.1682 14.4263H14.1476V14.5062H14.1305C14.114 14.5062 14.1132 14.5075 14.1093 14.5427C14.1055 14.5764 14.104 14.5793 14.0896 14.5811C14.0767 14.5826 14.0736 14.5865 14.072 14.6029C14.0704 14.6203 14.068 14.6229 14.0536 14.6229C14.0375 14.6229 14.0368 14.6241 14.0329 14.6628C14.0288 14.7019 14.0284 14.7028 14.0115 14.7028C13.9958 14.7028 13.9943 14.7046 13.9943 14.7243C13.9943 14.744 13.9929 14.7458 13.9771 14.7458C13.9603 14.7458 13.9598 14.7467 13.9558 14.7857C13.9518 14.8247 13.9513 14.8257 13.9347 14.8257C13.9192 14.8257 13.9177 14.8276 13.9177 14.8472C13.9177 14.8668 13.9162 14.8687 13.9006 14.8687C13.8841 14.8687 13.8834 14.8699 13.8794 14.9056C13.8754 14.9412 13.8747 14.9424 13.8582 14.9424C13.8426 14.9424 13.8411 14.9443 13.8411 14.9639C13.8411 14.9835 13.8396 14.9854 13.8241 14.9854C13.8075 14.9854 13.807 14.9864 13.803 15.0254C13.799 15.0644 13.7985 15.0653 13.7817 15.0653C13.7659 15.0653 13.7645 15.0671 13.7645 15.0868C13.7645 15.1065 13.763 15.1083 13.7471 15.1083C13.7298 15.1083 13.7296 15.1087 13.7279 15.1467C13.7261 15.1851 13.7261 15.1851 13.707 15.187C13.6901 15.1887 13.6878 15.1911 13.6878 15.207C13.6878 15.223 13.6858 15.2251 13.6702 15.2251H13.6525V15.3049H13.6126L13.6085 15.3449C13.6047 15.3815 13.6032 15.3848 13.5905 15.3848C13.5791 15.3848 13.5763 15.3884 13.5747 15.4048C13.5731 15.4222 13.5705 15.425 13.5545 15.4266C13.5366 15.4284 13.5359 15.4296 13.5321 15.465C13.5285 15.4983 13.5269 15.5016 13.514 15.5016C13.502 15.5016 13.4997 15.5049 13.4981 15.5246C13.4964 15.5455 13.4945 15.5478 13.4777 15.5495C13.4596 15.5514 13.4589 15.5525 13.455 15.5879C13.4513 15.6209 13.4496 15.6244 13.4371 15.6244C13.4259 15.6244 13.423 15.6281 13.4215 15.6444C13.4199 15.6618 13.4173 15.6646 13.4012 15.6663C13.383 15.6681 13.3826 15.6689 13.3786 15.7077C13.3746 15.7464 13.3741 15.7473 13.3573 15.7473C13.3416 15.7473 13.3401 15.7492 13.3401 15.7688C13.3401 15.7886 13.3386 15.7903 13.3227 15.7903C13.3055 15.7903 13.3053 15.7907 13.3035 15.8287L13.3031 15.8369C13.3023 15.8544 13.3015 15.8619 13.2975 15.8653C13.2951 15.8674 13.2917 15.8681 13.2865 15.8687L13.2826 15.8691C13.2658 15.8708 13.2635 15.8732 13.2635 15.889C13.2635 15.905 13.2614 15.9071 13.2458 15.9071H13.2281V15.987H13.1868V16.0668H13.1695C13.1543 16.0668 13.152 16.0693 13.1504 16.0868C13.1488 16.1044 13.1462 16.107 13.1294 16.1087L13.1102 16.1106V16.1471C13.1102 16.1835 13.1102 16.1836 13.0925 16.1836C13.0763 16.1836 13.0749 16.1853 13.0749 16.2051C13.0749 16.2256 13.0739 16.2266 13.0542 16.2266H13.0336V16.3065H13.0163C13.0011 16.3065 12.9988 16.3089 12.9971 16.3264C12.9955 16.344 12.993 16.3466 12.9761 16.3483L12.957 16.3503V16.4294H12.9397C12.9244 16.4294 12.9221 16.4318 12.9205 16.4493C12.9189 16.4669 12.9164 16.4695 12.8995 16.4712L12.8804 16.4732V16.5096C12.8804 16.5461 12.8803 16.5461 12.8627 16.5461C12.8464 16.5461 12.845 16.5478 12.845 16.5676C12.845 16.5881 12.844 16.5891 12.8244 16.5891H12.8037V16.669H12.7864C12.7712 16.669 12.7689 16.6714 12.7673 16.689C12.7656 16.7065 12.7631 16.7092 12.7463 16.7109L12.7271 16.7128V16.7919H12.71C12.6935 16.7919 12.6928 16.7931 12.6888 16.8287C12.6848 16.8644 12.6841 16.8656 12.6676 16.8656C12.652 16.8656 12.6505 16.8675 12.6505 16.8871C12.6505 16.9068 12.649 16.9086 12.6333 16.9086C12.6164 16.9086 12.616 16.9095 12.612 16.9486C12.608 16.9875 12.6074 16.9885 12.5909 16.9885C12.5754 16.9885 12.5739 16.9904 12.5739 17.01C12.5739 17.0305 12.5729 17.0315 12.5532 17.0315H12.5326V17.1052H12.5149C12.4987 17.1052 12.4972 17.107 12.4972 17.1264C12.4972 17.1457 12.4956 17.1476 12.4781 17.1494C12.4707 17.1502 12.4661 17.1506 12.4632 17.1531C12.4587 17.1571 12.4583 17.1662 12.4572 17.1897C12.4554 17.2278 12.4552 17.2281 12.438 17.2281C12.4221 17.2281 12.4206 17.2299 12.4206 17.2496C12.4206 17.2701 12.4196 17.2711 12.4 17.2711H12.3794V17.351H12.3621C12.3468 17.351 12.3445 17.3534 12.3429 17.371C12.3413 17.3885 12.3387 17.3912 12.3219 17.3929L12.3027 17.3948V17.4739H12.2856C12.2691 17.4739 12.2684 17.4752 12.2644 17.5108C12.2605 17.5464 12.2597 17.5476 12.2432 17.5476C12.2276 17.5476 12.2261 17.5495 12.2261 17.5691C12.2261 17.5888 12.2246 17.5907 12.2089 17.5907C12.1921 17.5907 12.1916 17.5915 12.1876 17.6306C12.1836 17.6695 12.1831 17.6705 12.1665 17.6705C12.151 17.6705 12.1495 17.6724 12.1495 17.692C12.1495 17.7118 12.1481 17.7135 12.1318 17.7135C12.1161 17.7135 12.1141 17.7156 12.1141 17.732C12.1141 17.7489 12.1125 17.7504 12.0935 17.7504H12.0729V17.7903C12.0729 17.8302 12.0728 17.8303 12.056 17.8303C12.0487 17.8303 12.0445 17.8298 12.0417 17.8266L11.8327 18.0699H16.8765Z" fill="white"/>
<path d="M9.83904 4.42322C9.83904 4.43961 9.83708 4.44165 9.82136 4.44165C9.80508 4.44165 9.80368 4.44336 9.80368 4.46316C9.80368 4.48283 9.80221 4.48466 9.78647 4.48466C9.76963 4.48466 9.76916 4.48554 9.76515 4.5246C9.7612 4.56305 9.76044 4.56454 9.74481 4.56454C9.72934 4.56454 9.72839 4.56628 9.72458 4.60141C9.7209 4.6353 9.71941 4.63827 9.70613 4.63827C9.69356 4.63827 9.69169 4.64105 9.69169 4.65978C9.69169 4.68026 9.69071 4.68128 9.67106 4.68128H9.65043V4.76038L9.63128 4.76231C9.61443 4.764 9.6119 4.76664 9.61028 4.7842C9.60866 4.80168 9.6063 4.80417 9.5914 4.80417C9.57463 4.80417 9.57435 4.80475 9.57262 4.84257C9.57086 4.88098 9.57086 4.88098 9.55171 4.8829L9.53255 4.88483V4.9213C9.53255 4.95774 9.53253 4.95778 9.51487 4.95778C9.49866 4.95778 9.49719 4.95953 9.49719 4.9789C9.49719 4.99823 9.49557 5.00018 9.47803 5.00194C9.45888 5.00386 9.45888 5.00386 9.45712 5.04227C9.45539 5.08029 9.45519 5.08067 9.43797 5.08067C9.42201 5.08067 9.42057 5.08245 9.42057 5.10217C9.42057 5.12265 9.41958 5.12368 9.39994 5.12368H9.37931V5.20356H9.362C9.34678 5.20356 9.34447 5.20596 9.34284 5.22353C9.34122 5.24109 9.33869 5.24373 9.32184 5.24542L9.30269 5.24735V5.32644H9.28558C9.26907 5.32644 9.26834 5.3277 9.26437 5.36331C9.26041 5.39892 9.25968 5.40018 9.24317 5.40018C9.22755 5.40018 9.22606 5.40204 9.22606 5.42168C9.22606 5.44129 9.22456 5.44319 9.20906 5.44319C9.1925 5.44319 9.19197 5.4442 9.18797 5.48313C9.18396 5.52219 9.18349 5.52306 9.16665 5.52306C9.15091 5.52306 9.14944 5.5249 9.14944 5.54457C9.14944 5.56424 9.14797 5.56608 9.13223 5.56608C9.11539 5.56608 9.11493 5.56695 9.11091 5.60601C9.10692 5.64494 9.10638 5.64595 9.08982 5.64595C9.07297 5.64595 9.07282 5.64628 9.07282 5.68282V5.71969H9.05514C9.03886 5.71969 9.03745 5.72139 9.03745 5.74119C9.03745 5.76153 9.03638 5.7627 9.01751 5.7627H8.99757L8.99347 5.80263C8.9897 5.83929 8.98822 5.84257 8.97547 5.84257C8.9641 5.84257 8.96125 5.8462 8.95973 5.86254C8.95811 5.8801 8.95558 5.88275 8.93873 5.88443L8.91957 5.88636V5.96546H8.90226C8.88705 5.96546 8.88474 5.96787 8.88311 5.98543C8.88149 6.00299 8.87895 6.00563 8.86211 6.00732L8.84295 6.00925V6.08142L8.8238 6.08335C8.80464 6.08528 8.80464 6.08528 8.80288 6.12368C8.80115 6.1617 8.80096 6.16208 8.78373 6.16208C8.76783 6.16208 8.76633 6.16391 8.76633 6.1832C8.76633 6.20253 8.76471 6.20448 8.74717 6.20624C8.72802 6.20816 8.72802 6.20816 8.72626 6.24657C8.72453 6.28459 8.72434 6.28497 8.70711 6.28497C8.69115 6.28497 8.68971 6.28675 8.68971 6.30647C8.68971 6.32695 8.68872 6.32798 8.66908 6.32798H8.64845V6.40786H8.63077C8.61514 6.40786 8.61309 6.40995 8.61309 6.4259C8.61309 6.44177 8.61078 6.44418 8.59393 6.44587C8.57477 6.4478 8.57478 6.4478 8.57302 6.4862C8.5713 6.52384 8.57094 6.5246 8.55455 6.5246C8.53833 6.5246 8.53771 6.52578 8.53373 6.56454C8.52972 6.6036 8.52926 6.60448 8.51242 6.60448C8.49667 6.60448 8.49521 6.60631 8.49521 6.62598C8.49521 6.64559 8.4937 6.64749 8.47821 6.64749C8.46165 6.64749 8.46111 6.6485 8.45711 6.68743C8.4531 6.72649 8.45263 6.72737 8.43579 6.72737C8.42005 6.72737 8.41858 6.7292 8.41858 6.74887C8.41858 6.76851 8.4171 6.77038 8.40148 6.77038C8.38496 6.77038 8.38424 6.77164 8.38027 6.80724C8.37631 6.84285 8.37558 6.84411 8.35907 6.84411H8.34196V6.92399H8.32428C8.308 6.92399 8.3066 6.92569 8.3066 6.94549C8.3066 6.96597 8.30561 6.967 8.28597 6.967H8.26534V7.04687H8.24803C8.23281 7.04687 8.2305 7.04928 8.22887 7.06684C8.22726 7.08434 8.22469 7.08705 8.20814 7.08872C8.18934 7.09061 8.18925 7.09079 8.18751 7.12866C8.18585 7.16506 8.18507 7.16678 8.16956 7.16863C8.15599 7.17026 8.15335 7.17351 8.15335 7.1886C8.15335 7.2051 8.15161 7.20663 8.13272 7.20663H8.11209V7.28651H8.09488C8.07804 7.28651 8.07758 7.28738 8.07357 7.32644C8.06957 7.36537 8.06903 7.36638 8.05247 7.36638C8.03698 7.36638 8.03547 7.36828 8.03547 7.38789C8.03547 7.40837 8.03449 7.40939 8.01484 7.40939H7.99421V7.48927H7.9769C7.96168 7.48927 7.95937 7.49168 7.95775 7.50924C7.95613 7.5268 7.95359 7.52944 7.93675 7.53113L7.91759 7.53306V7.56953C7.91759 7.60597 7.91757 7.60601 7.89991 7.60601C7.88363 7.60601 7.88223 7.60772 7.88223 7.62752C7.88223 7.648 7.88124 7.64902 7.8616 7.64902H7.84097V7.68896C7.84097 7.72888 7.84096 7.7289 7.82397 7.7289C7.80741 7.7289 7.80687 7.72991 7.80288 7.76884C7.79886 7.8079 7.7984 7.80878 7.78156 7.80878C7.76582 7.80878 7.76435 7.81062 7.76435 7.83028C7.76435 7.84995 7.76288 7.85179 7.74714 7.85179C7.7303 7.85179 7.72983 7.85267 7.72582 7.89173C7.72182 7.93066 7.72129 7.93167 7.70472 7.93167C7.68976 7.93167 7.68773 7.93388 7.68773 7.9501C7.68773 7.96649 7.68576 7.96853 7.67004 7.96853H7.65236V8.04841H7.6111V8.12829H7.59379C7.57857 8.12829 7.57626 8.1307 7.57464 8.14826C7.57302 8.16582 7.57048 8.16846 7.55364 8.17015L7.53448 8.17208V8.20855C7.53448 8.24482 7.53438 8.24503 7.51715 8.24503C7.50139 8.24503 7.49966 8.2471 7.498 8.26807C7.49633 8.28911 7.4945 8.29128 7.47701 8.29304L7.45786 8.29497V8.33144C7.45786 8.3677 7.45775 8.36792 7.44055 8.36792C7.42533 8.36792 7.42302 8.37033 7.42139 8.38789C7.41977 8.40545 7.41724 8.40809 7.40039 8.40978L7.38124 8.41171V8.49081H7.36403C7.34719 8.49081 7.34672 8.49168 7.34271 8.53075C7.33871 8.56968 7.33817 8.57068 7.32161 8.57068C7.30612 8.57068 7.30461 8.57258 7.30461 8.59219C7.30461 8.61186 7.30315 8.61369 7.2874 8.61369C7.27057 8.61369 7.2701 8.61457 7.26609 8.65363C7.26209 8.69256 7.26155 8.69357 7.24499 8.69357C7.23011 8.69357 7.22799 8.69583 7.22799 8.71162C7.22799 8.72748 7.22568 8.72989 7.20884 8.73159C7.18968 8.73351 7.18968 8.73351 7.18792 8.77191C7.1862 8.80956 7.18584 8.81031 7.16946 8.81031C7.15324 8.81031 7.15262 8.81149 7.14864 8.85025C7.14463 8.88931 7.14416 8.89019 7.12732 8.89019C7.11158 8.89019 7.11011 8.89203 7.11011 8.9117C7.11011 8.93128 7.1086 8.9332 7.09319 8.9332C7.07691 8.9332 7.07612 8.93457 7.07231 8.96969C7.06864 9.00357 7.06721 9.00631 7.05239 9.00809C7.03917 9.00968 7.03612 9.01342 7.03459 9.02998C7.03298 9.04733 7.03057 9.04995 7.01612 9.04995C7.00001 9.04995 6.99937 9.05118 6.9954 9.08988C6.99138 9.12894 6.99092 9.12982 6.97408 9.12982C6.95833 9.12982 6.95687 9.13166 6.95687 9.15133C6.95687 9.17113 6.95546 9.17283 6.93919 9.17283H6.9215V9.25271H6.88025V9.33259H6.86293C6.84772 9.33259 6.84541 9.335 6.84378 9.35256C6.84216 9.37012 6.83962 9.37276 6.82278 9.37445L6.80362 9.37638V9.41285C6.80362 9.44929 6.8036 9.44933 6.78594 9.44933C6.76966 9.44933 6.76826 9.45104 6.76826 9.47084C6.76826 9.49132 6.76727 9.49234 6.74763 9.49234H6.727V9.57222H6.70969C6.69447 9.57222 6.69216 9.57463 6.69053 9.59219C6.68891 9.60975 6.68638 9.61239 6.66953 9.61408L6.65038 9.61601V9.69511H6.63327C6.61676 9.69511 6.61603 9.69637 6.61207 9.73197C6.6081 9.76758 6.60738 9.76884 6.59086 9.76884C6.57524 9.76884 6.57376 9.77071 6.57376 9.79035C6.57376 9.80995 6.57225 9.81185 6.55676 9.81185C6.5402 9.81185 6.53966 9.81286 6.53566 9.85179C6.53165 9.89085 6.53118 9.89173 6.51434 9.89173C6.4986 9.89173 6.49713 9.89356 6.49713 9.91323C6.49713 9.9329 6.49567 9.93474 6.47992 9.93474C6.46308 9.93474 6.46262 9.93562 6.4586 9.97468C6.45466 10.0131 6.4539 10.0146 6.43827 10.0146C6.42282 10.0146 6.42184 10.0164 6.41808 10.0511C6.4144 10.085 6.41298 10.0877 6.39816 10.0895C6.38437 10.0912 6.38195 10.0946 6.38037 10.1145C6.37872 10.1352 6.37689 10.1375 6.3618 10.1375C6.34573 10.1375 6.34488 10.139 6.34098 10.174C6.33723 10.2077 6.33571 10.2107 6.32124 10.2124C6.30834 10.214 6.30525 10.2178 6.30373 10.2343C6.30211 10.2518 6.2998 10.2542 6.28458 10.2542H6.26727V10.3341H6.24664C6.22699 10.3341 6.22601 10.3351 6.22601 10.3556C6.22601 10.3754 6.22457 10.3771 6.20861 10.3771C6.19138 10.3771 6.19119 10.3775 6.18945 10.4155C6.1877 10.4539 6.1877 10.4539 6.16854 10.4559L6.14939 10.4578V10.4943C6.14939 10.5307 6.14936 10.5307 6.13171 10.5307C6.11549 10.5307 6.11402 10.5325 6.11402 10.5519C6.11402 10.5712 6.1124 10.5731 6.09487 10.5749C6.07571 10.5768 6.07571 10.5768 6.07396 10.6152C6.07222 10.6533 6.07203 10.6536 6.0548 10.6536C6.03885 10.6536 6.0374 10.6554 6.0374 10.6751C6.0374 10.6956 6.03642 10.6966 6.01677 10.6966H5.99614V10.7765H5.97846C5.96206 10.7765 5.96078 10.7781 5.96078 10.7989V10.8212L5.98813 10.8173C6.00316 10.8151 6.01908 10.8134 6.02349 10.8134C6.02847 10.8134 6.03151 10.8064 6.03151 10.795V10.7765H6.10738L6.10923 10.7566C6.11092 10.7383 6.113 10.7364 6.13318 10.7347C6.1533 10.7329 6.15528 10.7311 6.15528 10.7147C6.15528 10.6967 6.15548 10.6966 6.19027 10.6966H6.22526L6.22711 10.6767C6.22896 10.6567 6.22896 10.6567 6.26579 10.6549C6.30227 10.6531 6.30263 10.6529 6.30263 10.6349V10.6168H6.37851L6.3822 10.5768L6.49713 10.5733V10.5554C6.49713 10.5377 6.49761 10.5375 6.53397 10.5356C6.56881 10.5339 6.5709 10.5329 6.5726 10.5177C6.57417 10.5036 6.57778 10.5011 6.60142 10.4977C6.61629 10.4956 6.64266 10.4939 6.66004 10.4939C6.69095 10.4939 6.69164 10.4935 6.69164 10.4761V10.4584L6.76826 10.4539C6.84255 10.4496 6.84488 10.4491 6.84488 10.4357C6.84488 10.4239 6.8489 10.4212 6.87223 10.4179C6.88727 10.4158 6.94694 10.414 7.00484 10.414H7.11011V10.3771H7.76435V10.414H8.07084V10.449L8.13364 10.453C8.16818 10.4552 8.21195 10.457 8.23089 10.457C8.26524 10.457 8.26534 10.4571 8.26534 10.4754V10.4939H8.31461C8.34172 10.4939 8.3762 10.4956 8.39123 10.4978C8.41653 10.5014 8.41858 10.503 8.41858 10.5193V10.5369H8.53646V10.5553C8.53646 10.5733 8.53721 10.5738 8.56511 10.5738C8.58087 10.5738 8.60592 10.5755 8.62078 10.5776C8.64442 10.581 8.64804 10.5835 8.64961 10.5976C8.6513 10.6128 8.6534 10.6138 8.68823 10.6155C8.72471 10.6173 8.72507 10.6175 8.72507 10.6355V10.6536H8.80095L8.8028 10.6736C8.80464 10.6936 8.80464 10.6936 8.84148 10.6954C8.87759 10.6972 8.87832 10.6976 8.87832 10.7147C8.87832 10.7316 8.87945 10.7322 8.91663 10.7364C8.9541 10.7405 8.95494 10.741 8.95494 10.7586C8.95494 10.775 8.9567 10.7765 8.97557 10.7765C8.99438 10.7765 8.9962 10.7781 8.9962 10.7942C8.9962 10.8115 8.99716 10.8121 9.03451 10.8162C9.07198 10.8204 9.07282 10.8209 9.07282 10.8385C9.07282 10.8549 9.07458 10.8564 9.09345 10.8564C9.11229 10.8564 9.11408 10.8579 9.11408 10.8742C9.11408 10.8914 9.11529 10.8922 9.14944 10.8963C9.1836 10.9005 9.18481 10.9012 9.18481 10.9184C9.18481 10.9347 9.1866 10.9363 9.20543 10.9363C9.22433 10.9363 9.22606 10.9378 9.22606 10.9543C9.22606 10.9702 9.22837 10.9726 9.24522 10.9743C9.26206 10.976 9.2646 10.9786 9.26622 10.9962C9.26785 11.0137 9.27016 11.0162 9.28538 11.0162C9.3006 11.0162 9.30269 11.0183 9.30269 11.0342C9.30269 11.0501 9.305 11.0525 9.32184 11.0542C9.33869 11.0559 9.34122 11.0585 9.34284 11.0761C9.34447 11.0936 9.34678 11.096 9.362 11.096C9.37722 11.096 9.37931 11.0982 9.37931 11.1141C9.37931 11.1299 9.38162 11.1323 9.39846 11.134C9.41531 11.1357 9.41784 11.1384 9.41946 11.1559C9.42108 11.1734 9.42345 11.1759 9.43825 11.1759C9.45305 11.1759 9.45542 11.1784 9.45703 11.1959C9.45865 11.2134 9.46119 11.2161 9.47803 11.2178C9.49488 11.2195 9.49719 11.2219 9.49719 11.2377C9.49719 11.2537 9.49924 11.2558 9.51487 11.2558H9.53255V11.3357H9.55318C9.57283 11.3357 9.57381 11.3367 9.57381 11.3572C9.57381 11.3769 9.57527 11.3787 9.59112 11.3787C9.60634 11.3787 9.60865 11.3811 9.61028 11.3986C9.6118 11.4152 9.61485 11.4189 9.62808 11.4205C9.6429 11.4223 9.64432 11.425 9.648 11.4589C9.65178 11.4938 9.65269 11.4954 9.66841 11.4954C9.68431 11.4954 9.685 11.4968 9.68896 11.5354C9.69296 11.5743 9.69349 11.5753 9.71006 11.5753C9.72555 11.5753 9.72706 11.5772 9.72706 11.5968C9.72706 11.6164 9.72856 11.6183 9.74405 11.6183C9.76062 11.6183 9.76115 11.6193 9.76515 11.6582C9.7689 11.6948 9.77042 11.6982 9.78305 11.6982C9.79568 11.6982 9.79719 11.7016 9.80095 11.7381C9.80489 11.7765 9.80567 11.7781 9.82122 11.7781C9.83634 11.7781 9.83765 11.7802 9.84112 11.8103C9.84316 11.8281 9.84486 11.8543 9.84488 11.8687C9.84493 11.8936 9.84575 11.8948 9.86262 11.8948H9.8803V11.9808H9.89718C9.91279 11.9808 9.91434 11.983 9.91781 12.0093C9.91987 12.025 9.92156 12.0513 9.92156 12.0677C9.92156 12.0968 9.92202 12.0976 9.93924 12.0976H9.95692V12.2573H9.97378C9.98972 12.2573 9.99085 12.2591 9.99436 12.2896C9.99641 12.3073 9.9981 12.3433 9.99813 12.3695L9.99818 12.4171H10.0335V12.5768H10.0504C10.0663 12.5768 10.0675 12.5786 10.071 12.6091C10.073 12.6268 10.0747 12.6821 10.0747 12.732L10.0748 12.8226H10.1102V13.222H10.127C10.143 13.222 10.1441 13.2238 10.1476 13.2542C10.1497 13.272 10.1513 14.3628 10.1514 15.6782L10.1514 18.0699H11.8327L12.0417 17.8266C12.0385 17.823 12.0372 17.8158 12.0354 17.8018C12.0333 17.7861 12.0316 16.7216 12.0316 15.4362V13.0991H11.9963V12.54H11.955V12.2205H11.9199L11.9167 11.9777L11.9012 11.9759C11.8877 11.9742 11.8853 11.9705 11.8821 11.9458C11.88 11.9303 11.8784 11.8863 11.8784 11.8479V11.7781H11.8433L11.8401 11.6152L11.8246 11.6134C11.8059 11.6111 11.8019 11.5935 11.8018 11.5123L11.8017 11.4585H11.7677L11.7592 11.2988H11.7251V11.1759H11.7083C11.6923 11.1759 11.6912 11.1741 11.6877 11.1436C11.6856 11.1259 11.6839 11.0996 11.6839 11.0853C11.6839 11.0604 11.683 11.0592 11.6662 11.0592H11.6485V10.9731H11.6313C11.6145 10.9731 11.614 10.9723 11.61 10.9332C11.606 10.8943 11.6054 10.8933 11.5889 10.8933H11.5719V10.7765H11.5306V10.6966H11.4953V10.6175L11.4761 10.6156C11.4593 10.6139 11.4567 10.6113 11.4551 10.5937C11.4535 10.5762 11.4512 10.5738 11.4359 10.5738H11.4186V10.4939H11.4014C11.3846 10.4939 11.3841 10.493 11.3801 10.4539C11.3761 10.415 11.3756 10.414 11.359 10.414C11.3435 10.414 11.342 10.4121 11.342 10.3925C11.342 10.3729 11.3405 10.371 11.3249 10.371C11.3084 10.371 11.3077 10.3697 11.3037 10.3341C11.2997 10.2985 11.299 10.2973 11.2825 10.2973C11.2669 10.2973 11.2654 10.2954 11.2654 10.2758C11.2654 10.2561 11.2639 10.2542 11.2482 10.2542C11.2313 10.2542 11.2309 10.2534 11.2269 10.2143C11.2229 10.1756 11.2222 10.1744 11.2061 10.1744C11.1917 10.1744 11.1893 10.1718 11.1877 10.1544C11.186 10.1368 11.1835 10.1342 11.1667 10.1325C11.1491 10.1307 11.1475 10.1288 11.1475 10.1095C11.1475 10.0901 11.146 10.0883 11.1298 10.0883H11.1121V10.0146H11.0915C11.0725 10.0146 11.0709 10.0132 11.0709 9.99618C11.0709 9.97979 11.0689 9.97775 11.0532 9.97775C11.0369 9.97775 11.0355 9.97604 11.0355 9.95624C11.0355 9.93576 11.0345 9.93474 11.0149 9.93474C10.996 9.93474 10.9943 9.93322 10.9943 9.91669C10.9943 9.90083 10.992 9.89842 10.9751 9.89672C10.9583 9.89503 10.9557 9.89239 10.9541 9.87483C10.9525 9.85727 10.9502 9.85486 10.935 9.85486C10.9191 9.85486 10.9176 9.85305 10.9176 9.83336C10.9176 9.81288 10.9167 9.81185 10.897 9.81185C10.878 9.81185 10.8764 9.81039 10.8764 9.79342C10.8764 9.77703 10.8744 9.77498 10.8587 9.77498C10.8424 9.77498 10.841 9.77328 10.841 9.75348C10.841 9.733 10.84 9.73197 10.8204 9.73197C10.8016 9.73197 10.7998 9.73043 10.7998 9.71414C10.7998 9.69693 10.7986 9.69617 10.7644 9.69204C10.7302 9.6879 10.729 9.68714 10.729 9.66993C10.729 9.65364 10.7272 9.6521 10.7084 9.6521C10.6895 9.6521 10.6878 9.65058 10.6878 9.63405C10.6878 9.61819 10.6855 9.61578 10.6686 9.61408C10.6518 9.61239 10.6492 9.60975 10.6476 9.59219L10.6458 9.57222H10.6108C10.5896 9.57222 10.5813 9.57221 10.5779 9.56811C10.5758 9.56544 10.5758 9.56104 10.5758 9.55379L10.5737 9.53952C10.5713 9.53584 10.5661 9.53535 10.5552 9.53535C10.5355 9.53535 10.5345 9.53433 10.5345 9.51385V9.49234H10.4579V9.4743C10.4579 9.45843 10.4556 9.45602 10.4388 9.45433C10.4219 9.45264 10.4194 9.45 10.4178 9.43243L10.4159 9.41247H10.34V9.39463C10.34 9.37742 10.3388 9.37666 10.3047 9.37253C10.2705 9.36839 10.2693 9.36764 10.2693 9.35042C10.2693 9.33414 10.2675 9.33259 10.2487 9.33259C10.2298 9.33259 10.228 9.33108 10.228 9.31444C10.228 9.2963 10.228 9.29628 10.1883 9.29447L10.1485 9.29265L10.1466 9.27268C10.1448 9.25297 10.1444 9.25271 10.1142 9.25264C10.0593 9.25252 10.0394 9.24677 10.0394 9.23103C10.0394 9.21828 10.0359 9.21672 9.99818 9.21277C9.95754 9.20852 9.95692 9.20819 9.95692 9.19065C9.95692 9.17344 9.95596 9.17283 9.92828 9.17283C9.91252 9.17283 9.88732 9.17108 9.87228 9.16893C9.84891 9.16559 9.84493 9.163 9.84493 9.15112C9.84493 9.13841 9.84138 9.13684 9.80368 9.1329C9.76304 9.12864 9.76242 9.12831 9.76242 9.11077V9.09296L9.71085 9.09289C9.63293 9.09278 9.61609 9.08867 9.61392 9.06917C9.61213 9.0531 9.61182 9.05301 9.55465 9.05126L9.49719 9.0495V9.01308H9.30269V8.97007H9.11408V8.9332H8.9962V8.85411L9.01535 8.85218C9.0322 8.85049 9.03473 8.84784 9.03635 8.83028C9.03798 8.81272 9.04029 8.81031 9.05551 8.81031C9.07136 8.81031 9.07282 8.8085 9.07282 8.78881C9.07282 8.76917 9.0743 8.7673 9.08992 8.7673C9.10644 8.7673 9.10716 8.76604 9.11113 8.73044C9.1151 8.69483 9.11582 8.69357 9.13234 8.69357C9.14796 8.69357 9.14944 8.6917 9.14944 8.67207C9.14944 8.6524 9.15091 8.65056 9.16665 8.65056C9.18349 8.65056 9.18396 8.64968 9.18797 8.61062C9.19197 8.57169 9.1925 8.57068 9.20906 8.57068C9.22402 8.57068 9.22606 8.56847 9.22606 8.55225C9.22606 8.53586 9.22803 8.53382 9.24375 8.53382C9.26002 8.53382 9.26143 8.53211 9.26143 8.51231C9.26143 8.49197 9.26251 8.49081 9.28137 8.49081H9.30131L9.30541 8.45087C9.30918 8.41422 9.31066 8.41093 9.32341 8.41093C9.33478 8.41093 9.33764 8.4073 9.33915 8.39096C9.34076 8.37358 9.34339 8.37075 9.35943 8.36912C9.37726 8.36731 9.37798 8.36608 9.38178 8.3311C9.38542 8.29757 9.38686 8.29481 9.40166 8.29303C9.41489 8.29144 9.41794 8.2877 9.41946 8.27114C9.42109 8.25358 9.4234 8.25117 9.43862 8.25117C9.45447 8.25117 9.45593 8.24936 9.45593 8.22967C9.45593 8.20919 9.45691 8.20816 9.47656 8.20816H9.49719V8.13443H9.51487C9.53108 8.13443 9.53255 8.13268 9.53255 8.11331C9.53255 8.09398 9.53417 8.09204 9.55171 8.09027C9.56855 8.08858 9.57109 8.08594 9.57271 8.06838C9.57434 8.05082 9.57665 8.04841 9.59186 8.04841H9.60917V7.96853H9.6298C9.64945 7.96853 9.65043 7.96751 9.65043 7.94703C9.65043 7.92739 9.65192 7.92552 9.66754 7.92552C9.68405 7.92552 9.68478 7.92426 9.68874 7.88866C9.69271 7.85305 9.69344 7.85179 9.70995 7.85179C9.72557 7.85179 9.72706 7.84992 9.72706 7.83028C9.72706 7.81059 9.72851 7.80878 9.74437 7.80878C9.75958 7.80878 9.76189 7.80637 9.76352 7.78881C9.76514 7.77125 9.76768 7.76861 9.78452 7.76692L9.80368 7.76499V7.72851C9.80368 7.69208 9.8037 7.69204 9.82136 7.69204C9.83764 7.69204 9.83904 7.69033 9.83904 7.67053C9.83904 7.65005 9.84003 7.64902 9.85967 7.64902H9.8803V7.56915H9.89761C9.91283 7.56915 9.91514 7.56674 9.91677 7.54918C9.91839 7.53162 9.92092 7.52898 9.93777 7.52729C9.95461 7.52559 9.95692 7.52318 9.95692 7.50732C9.95692 7.49153 9.95904 7.48927 9.97392 7.48927C9.99048 7.48927 9.99102 7.48826 9.99502 7.44933C9.99903 7.41027 9.99949 7.40939 10.0163 7.40939C10.0321 7.40939 10.0335 7.40756 10.0335 7.38789C10.0335 7.36825 10.035 7.36638 10.0506 7.36638C10.0672 7.36638 10.0679 7.36512 10.0719 7.32952C10.0758 7.29391 10.0765 7.29265 10.0931 7.29265C10.1087 7.29265 10.1102 7.29078 10.1102 7.27114C10.1102 7.25145 10.1116 7.24964 10.1275 7.24964C10.1427 7.24964 10.145 7.24723 10.1466 7.22967C10.1483 7.21211 10.1508 7.20947 10.1676 7.20778L10.1868 7.20585V7.12675H10.2074C10.2116 7.12675 10.2149 7.1267 10.2176 7.12643C10.2274 7.12543 10.228 7.12137 10.228 7.10525C10.228 7.08561 10.2295 7.08374 10.2452 7.08374C10.2616 7.08374 10.2624 7.08245 10.2663 7.04723C10.2701 7.01353 10.2716 7.01057 10.2861 7.00883C10.299 7.00727 10.302 7.00341 10.3036 6.98697C10.3052 6.96941 10.3075 6.967 10.3227 6.967C10.3386 6.967 10.34 6.96518 10.34 6.94549C10.34 6.92501 10.341 6.92399 10.3607 6.92399H10.3813V6.85025H10.399C10.4153 6.85025 10.4167 6.84855 10.4167 6.82875C10.4167 6.80827 10.4176 6.80724 10.4373 6.80724H10.4579V6.72737H10.4752C10.4904 6.72737 10.4928 6.72496 10.4944 6.7074C10.496 6.68984 10.4985 6.68719 10.5154 6.6855C10.5322 6.68381 10.5345 6.6814 10.5345 6.66553C10.5345 6.64958 10.5366 6.64749 10.5522 6.64749H10.5699V6.56761H10.5905C10.6102 6.56761 10.6112 6.56659 10.6112 6.54611C10.6112 6.52647 10.6126 6.5246 10.6283 6.5246C10.6448 6.5246 10.6455 6.52334 10.6495 6.48773C10.6534 6.45213 10.6542 6.45087 10.6707 6.45087C10.6863 6.45087 10.6878 6.449 10.6878 6.42936C10.6878 6.40957 10.6892 6.40786 10.7055 6.40786C10.7217 6.40786 10.7231 6.40615 10.7231 6.38635C10.7231 6.36587 10.7241 6.36485 10.7438 6.36485H10.7644V6.28497H10.7817C10.7969 6.28497 10.7992 6.28256 10.8009 6.265C10.8025 6.24757 10.8051 6.24479 10.8213 6.24314C10.8394 6.24132 10.8401 6.24016 10.844 6.2051C10.8477 6.17177 10.8492 6.16878 10.8637 6.16705C10.8766 6.16549 10.8797 6.16163 10.8812 6.14518C10.8828 6.12762 10.8851 6.12522 10.9003 6.12522C10.9162 6.12522 10.9176 6.1234 10.9176 6.10371C10.9176 6.08407 10.9191 6.0822 10.9348 6.0822C10.9513 6.0822 10.952 6.08094 10.956 6.04534C10.9599 6.00973 10.9606 6.00847 10.9772 6.00847C10.9928 6.00847 10.9943 6.0066 10.9943 5.98697C10.9943 5.96649 10.9953 5.96546 11.0149 5.96546H11.0355V5.88558H11.0532C11.0695 5.88558 11.0709 5.88388 11.0709 5.86408C11.0709 5.8436 11.0719 5.84257 11.0915 5.84257C11.1105 5.84257 11.1121 5.84111 11.1121 5.82414C11.1121 5.80775 11.1141 5.80571 11.1298 5.80571H11.1475V5.72583H11.1681C11.1878 5.72583 11.1888 5.7248 11.1888 5.70432C11.1888 5.68469 11.1903 5.68282 11.2059 5.68282C11.2224 5.68282 11.2231 5.68153 11.227 5.64631C11.2308 5.61261 11.2323 5.60965 11.2468 5.60791C11.2597 5.60635 11.2628 5.60249 11.2643 5.58604C11.2659 5.56848 11.2682 5.56608 11.2834 5.56608C11.2993 5.56608 11.3008 5.56426 11.3008 5.54457C11.3008 5.52409 11.3017 5.52306 11.3214 5.52306H11.342V5.44319H11.3593C11.3745 5.44319 11.3769 5.44078 11.3785 5.42322C11.3801 5.40566 11.3826 5.40302 11.3995 5.40133L11.4186 5.3994V5.32722L11.4378 5.3253C11.4546 5.32361 11.4572 5.32096 11.4588 5.3034C11.4604 5.28584 11.4627 5.28343 11.4779 5.28343C11.4938 5.28343 11.4953 5.28162 11.4953 5.26193C11.4953 5.24229 11.4967 5.24042 11.5124 5.24042C11.5289 5.24042 11.5296 5.23916 11.5336 5.20356C11.5375 5.16795 11.5383 5.16669 11.5548 5.16669C11.5704 5.16669 11.5719 5.16482 11.5719 5.14518C11.5719 5.12552 11.5733 5.12368 11.5891 5.12368C11.6059 5.12368 11.6064 5.1228 11.6104 5.08374C11.6144 5.04504 11.615 5.0438 11.6311 5.0438C11.6456 5.0438 11.648 5.04118 11.6496 5.02383C11.6511 5.00719 11.6542 5.00354 11.6677 5.00192C11.6812 5.00029 11.6839 4.99704 11.6839 4.98195C11.6839 4.96545 11.6856 4.96392 11.7045 4.96392H11.7251V4.88405H11.7424C11.7577 4.88405 11.76 4.88164 11.7616 4.86408C11.7632 4.8467 11.7658 4.84387 11.7819 4.84224C11.7997 4.84043 11.8004 4.8392 11.8042 4.80422C11.8079 4.77069 11.8093 4.76793 11.8241 4.76615C11.8373 4.76456 11.8404 4.76082 11.8419 4.74426C11.8435 4.7267 11.8458 4.72429 11.8611 4.72429C11.8769 4.72429 11.8784 4.72248 11.8784 4.70279C11.8784 4.68231 11.8794 4.68128 11.899 4.68128H11.9196V4.64442C11.9196 4.60772 11.9197 4.60755 11.937 4.60755C11.9527 4.60755 11.9544 4.60548 11.9561 4.58451C11.9578 4.56347 11.9596 4.5613 11.9771 4.55954L11.9963 4.55761V4.52114C11.9963 4.48471 11.9963 4.48466 12.0139 4.48466C12.0302 4.48466 12.0316 4.48295 12.0316 4.46316C12.0316 4.44268 12.0326 4.44165 12.0522 4.44165C12.0712 4.44165 12.0729 4.44019 12.0729 4.42322V4.40479H9.83904V4.42322Z" fill="white"/>
</svg>
