<svg xmlns="http://www.w3.org/2000/svg" width="24" height="24" viewBox="0 0 24 24" fill="none"><rect width="24" height="24" fill="none"/>
<path fill-rule="evenodd" clip-rule="evenodd" d="M12.52 12.5389H22V22H12.52V12.5389ZM16.16 14.4751H15.36V20.004H19.16V19.3253H16.16V14.4751Z" fill="white"/>
<path fill-rule="evenodd" clip-rule="evenodd" d="M12.52 2H22V11.4611H12.52V2ZM17.28 3.87625C15.64 3.87625 14.44 5.09381 14.44 6.71058C14.44 8.34731 15.64 9.54491 17.28 9.54491C18.9 9.54491 20.1 8.34731 20.1 6.71058C20.1 5.07385 18.9 3.87625 17.28 3.87625ZM19.34 6.71058C19.34 5.49301 18.46 4.59481 17.28 4.59481C16.08 4.59481 15.2 5.49301 15.2 6.71058C15.2 7.92814 16.08 8.82635 17.28 8.82635C18.46 8.86627 19.34 7.9481 19.34 6.71058Z" fill="white"/>
<path fill-rule="evenodd" clip-rule="evenodd" d="M2 12.5389H11.48V22H2V12.5389ZM5.56 17.1098V15.1737L8.68001 15.1537V14.4751H4.76V20.024H5.56V17.7884H8.34V17.1098H5.56Z" fill="white"/>
<path fill-rule="evenodd" clip-rule="evenodd" d="M2 2H11.48V11.4611H2V2ZM4.88 8.2475L4.6 8.86627C5.02 9.26547 5.86 9.54491 6.76 9.58483C8.22 9.58483 8.9 8.86627 8.9 8.00798C8.9 6.86995 7.87044 6.61875 6.95115 6.39445C6.20971 6.21355 5.54 6.05014 5.54 5.45309C5.54 4.97405 5.94 4.57485 6.88 4.57485C7.36 4.57485 7.92 4.71457 8.4 5.01397L8.66 4.37525C8.18 4.03593 7.52 3.87625 6.86 3.87625C5.4 3.87625 4.74 4.59481 4.74 5.45309C4.74 6.60465 5.774 6.85941 6.6948 7.08628C7.43386 7.26837 8.1 7.43249 8.1 8.02794C8.1 8.50699 7.68 8.88623 6.72 8.88623C6 8.88623 5.28 8.62675 4.88 8.2475Z" fill="#A20C33"/>
</svg>
