<svg xmlns="http://www.w3.org/2000/svg" width="24" height="24" viewBox="0 0 24 24" fill="none"><rect width="24" height="24" fill="none"/>
<path d="M2.12422 3.72411C1.99911 3.72411 1.96349 3.80215 2.05389 3.88799C2.53971 4.37574 2.84564 5.04687 2.84564 5.78824C2.84564 6.52961 2.54428 7.20075 2.05754 7.68459C1.96348 7.77824 1.99545 7.85237 2.17169 7.85237H12.6196C13.2113 7.36073 13.5912 6.61546 13.5912 5.78434C13.5912 4.95322 13.2113 4.21185 12.6196 3.71631H2.12878L2.12422 3.72411Z" fill="#0A1E78"/>
<path d="M2.12422 9.93638C1.99911 9.93638 1.96349 10.0144 2.05389 10.1002C2.53971 10.5879 2.84564 11.2591 2.84564 12.0005C2.84564 12.7418 2.54428 13.413 2.05754 13.8968C1.96348 13.9905 1.99545 14.0646 2.17169 14.0646H8.54582C9.13757 13.573 9.51837 12.8276 9.51837 11.9966C9.51837 11.1655 9.13757 10.4241 8.54582 9.92853H2.12878L2.12422 9.93638Z" fill="#0A1E78"/>
<path d="M2.12422 16.1478C1.99089 16.1478 1.95892 16.2219 2.05754 16.3156C2.54336 16.8033 2.84564 17.4705 2.84564 18.2158C2.84564 18.9611 2.54336 19.6283 2.05754 20.1122C1.96348 20.2058 1.99454 20.28 2.17079 20.28H4.4757C5.06836 19.7883 5.44826 19.043 5.44826 18.2119C5.44826 17.3808 5.06836 16.6394 4.4757 16.1439H2.12787L2.12422 16.1478Z" fill="#0A1E78"/>
<path d="M21.0274 3.72434H18.2248C18.8165 4.21988 19.1964 4.95735 19.1964 5.79237C19.1964 6.62739 18.8165 7.36486 18.2248 7.8604H21.0274C21.6191 7.36875 21.9999 6.62739 21.9999 5.79237C21.9999 4.95735 21.6191 4.21988 21.0274 3.72434Z" fill="#FF5500"/>
<path d="M18.2211 3.72434H15.4176C16.0103 4.21988 16.3902 4.95735 16.3902 5.79237C16.3902 6.62739 16.0103 7.36486 15.4176 7.8604H18.2211C18.8129 7.36875 19.1928 6.62739 19.1928 5.79237C19.1928 4.95735 18.8129 4.21988 18.2211 3.72434Z" fill="#6262D9"/>
<path d="M21.0274 9.93611H14.1519C14.7437 10.4317 15.1236 11.1691 15.1236 12.0041C15.1236 12.8392 14.7437 13.5767 14.1519 14.0722H21.0274C21.62 13.5806 21.9999 12.8392 21.9999 12.0041C21.9999 11.1691 21.62 10.4317 21.0274 9.93611Z" fill="#FF5500"/>
<path d="M14.1519 9.93611H11.3484C11.9402 10.4317 12.321 11.1691 12.321 12.0041C12.321 12.8392 11.9402 13.5767 11.3484 14.0722H14.1519C14.7437 13.5806 15.1236 12.8392 15.1236 12.0041C15.1236 11.1691 14.7437 10.4317 14.1519 9.93611Z" fill="#6262D9"/>
<path d="M15.4176 3.72434H12.615C13.2068 4.21988 13.5876 4.95735 13.5876 5.79237C13.5876 6.62739 13.2068 7.36486 12.615 7.8604H15.4176C16.0103 7.36875 16.3902 6.62739 16.3902 5.79237C16.3902 4.95735 16.0103 4.21988 15.4176 3.72434Z" fill="#3D3DC7"/>
<path d="M11.3448 9.93611H8.54217C9.13392 10.4317 9.51471 11.1691 9.51471 12.0041C9.51471 12.8392 9.13392 13.5767 8.54217 14.0722H11.3448C11.9374 13.5806 12.3173 12.8392 12.3173 12.0041C12.3173 11.1691 11.9374 10.4317 11.3448 9.93611Z" fill="#3D3DC7"/>
<path d="M21.0274 16.1479H10.0827C10.6745 16.6434 11.0544 17.3809 11.0544 18.216C11.0544 19.051 10.6745 19.7884 10.0827 20.284H21.0274C21.62 19.7923 21.9999 19.051 21.9999 18.216C21.9999 17.3809 21.62 16.6434 21.0274 16.1479Z" fill="#FF5500"/>
<path d="M10.0791 16.1479H7.27556C7.86731 16.6434 8.24811 17.3809 8.24811 18.216C8.24811 19.051 7.86731 19.7884 7.27556 20.284H10.0791C10.6708 19.7923 11.0507 19.051 11.0507 18.216C11.0507 17.3809 10.6708 16.6434 10.0791 16.1479Z" fill="#6262D9"/>
<path d="M7.27556 16.1479H4.47296C5.06471 16.6434 5.44551 17.3809 5.44551 18.216C5.44551 19.051 5.06471 19.7884 4.47296 20.284H7.27556C7.86822 19.7923 8.24811 19.051 8.24811 18.216C8.24811 17.3809 7.86731 16.6434 7.27556 16.1479Z" fill="#3D3DC7"/>
</svg>
