<svg xmlns="http://www.w3.org/2000/svg" width="24" height="24" viewBox="0 0 24 24" fill="none"><rect width="24" height="24" fill="none"/>
<path d="M14.4918 11.8815V9.96622H16.3777C16.8999 9.96622 17.3352 9.7796 17.7027 9.40638C17.801 9.3065 17.8862 9.201 17.9582 9.09005C18.1554 8.78641 18.2539 8.44202 18.2539 8.06074C18.2539 7.72922 18.1821 7.43224 18.0386 7.16259C17.9524 7.00084 17.8405 6.84893 17.7027 6.70531C17.3352 6.33206 16.8903 6.14546 16.3777 6.14546H14.4918V4.23998H16.3777C16.8903 4.23998 17.3739 4.3382 17.8381 4.54446C18.3023 4.75073 18.6988 5.01593 19.0373 5.35969C19.3758 5.70345 19.637 6.10616 19.8401 6.57763C20.0432 7.04909 20.1399 7.54017 20.1399 8.06074C20.1399 8.58133 20.0432 9.07241 19.8401 9.54388C19.637 10.0153 19.3758 10.418 19.0373 10.7618C18.6988 11.1056 18.3023 11.3708 17.8381 11.577C17.3739 11.7833 16.8903 11.8815 16.3777 11.8815H14.4918Z" fill="#7856FF"/>
<path d="M14.6308 13.7386C15.2074 13.391 15.8225 13.2122 16.4856 13.2122C17.1487 13.2122 17.7638 13.391 18.3404 13.7386C18.917 14.0861 19.3687 14.5628 19.7147 15.1587C20.0511 15.7545 20.224 16.3901 20.224 17.0753C20.224 17.7605 20.0511 18.3961 19.7147 18.9919C19.3783 19.5878 18.917 20.0545 18.3404 20.412C17.7638 20.7695 17.1487 20.9383 16.4856 20.9383C15.8225 20.9383 15.2074 20.7596 14.6308 20.412C14.0542 20.0644 13.6025 19.5878 13.2565 18.9919C12.9202 18.3961 12.7472 17.7605 12.7472 17.0753C12.7472 16.3901 12.9202 15.7545 13.2565 15.1587C13.6025 14.5628 14.0542 14.0861 14.6308 13.7386ZM17.8022 15.7148C17.437 15.3374 16.995 15.1388 16.4856 15.1388C15.9763 15.1388 15.5342 15.3275 15.169 15.7148C14.8038 16.0922 14.6116 16.549 14.6116 17.0753C14.6116 17.6016 14.7942 18.0485 15.169 18.4358C15.5342 18.8132 15.9763 19.0019 16.4856 19.0019C16.995 19.0019 17.4274 18.8132 17.8022 18.4358C18.1674 18.0584 18.35 17.6016 18.35 17.0753C18.3596 16.549 18.1674 16.0922 17.8022 15.7148Z" fill="#7856FF"/>
<path fill-rule="evenodd" clip-rule="evenodd" d="M5.7932 15.1694V18.9902H7.61362C8.13585 18.9902 8.57108 18.8036 8.93859 18.4303C9.30611 18.0571 9.48986 17.6053 9.48986 17.0847C9.48986 16.5543 9.30611 16.1123 8.93859 15.7293C8.57108 15.3561 8.12618 15.1694 7.61362 15.1694H5.7932ZM7.4879 21C9.38112 21 10.9578 19.645 11.3005 17.8521C11.3511 17.603 11.3758 17.3476 11.3758 17.0847C11.3758 16.5642 11.2791 16.0731 11.076 15.6016C10.8729 15.1302 10.6117 14.7274 10.2732 14.3837C9.93474 14.0399 9.53821 13.7747 9.07397 13.5684C8.86749 13.4767 8.65716 13.4063 8.44215 13.3565C8.13687 13.2793 7.81719 13.2383 7.4879 13.2383H3.77491V21H7.4879Z" fill="#7856FF"/>
<path d="M6.59875 8.57622V7.34847L9.0075 4.15629H11.4163L8.52181 7.97707L11.4163 11.7978H9.02734L6.59875 8.57622Z" fill="#7856FF"/>
<path d="M5.76835 11.7978V4.15629H3.7749V11.7978H5.76835Z" fill="#A1FFBB"/>
<path d="M4.85469 2.82732C5.35929 2.82732 5.76835 2.41826 5.76835 1.91366C5.76835 1.40906 5.35929 1 4.85469 1H4.68856C4.18396 1 3.7749 1.40906 3.7749 1.91366C3.7749 2.41826 4.18396 2.82732 4.68856 2.82732H4.85469Z" fill="#A1FFBB"/>
<path d="M14.5652 7.16259V9.09005H17.9582C18.1554 8.78641 18.2539 8.44202 18.2539 8.06074C18.2539 7.72922 18.1821 7.43224 18.0386 7.16259H14.5652Z" fill="#A1FFBB"/>
</svg>
