<svg xmlns="http://www.w3.org/2000/svg" width="81" height="24" viewBox="0 0 81 24" fill="none"><rect width="81" height="24" fill="none"/>
<path fill-rule="evenodd" clip-rule="evenodd" d="M14.304 12.2469C14.7814 12.4176 15.2912 12.5027 15.836 12.5027C16.3831 12.5027 16.8888 12.4176 17.3544 12.2469C17.8165 12.0757 18.2373 11.8089 18.5892 11.464C18.9378 11.1225 19.2102 10.7001 19.4087 10.1996C19.6072 9.68739 19.7065 9.0942 19.7065 8.42006V8.11992C19.7065 7.48538 19.6072 6.92941 19.4087 6.4467C19.2102 5.95513 18.9378 5.54214 18.5892 5.21187C18.2389 4.8684 17.8174 4.60618 17.3544 4.4438C16.8674 4.26931 16.3533 4.18249 15.836 4.18738C15.2912 4.18738 14.7814 4.27305 14.304 4.4438C13.8372 4.61455 13.4313 4.87037 13.0827 5.21187C12.7365 5.54214 12.4641 5.95513 12.2656 6.4467C12.0671 6.92941 11.9678 7.48538 11.9678 8.11992V8.42006C11.9678 9.09361 12.0671 9.68444 12.2656 10.1996C12.4641 10.7001 12.7365 11.1225 13.0827 11.464C13.4316 11.8062 13.8473 12.0727 14.304 12.2469ZM16.6555 10.9057C16.3944 11.0078 16.1163 11.0596 15.836 11.0581C15.55 11.0581 15.2706 11.0073 15.0029 10.9057C14.7392 10.8021 14.5009 10.6431 14.304 10.4395C14.1054 10.2298 13.9412 9.9574 13.8124 9.62713C13.6942 9.29508 13.6346 8.89332 13.6346 8.42006V8.11992C13.6346 7.68862 13.6942 7.3164 13.8118 7.00562C13.9418 6.69367 14.1054 6.43784 14.304 6.23696C14.5113 6.03608 14.7447 5.88601 15.0029 5.78438C15.2694 5.68489 15.5515 5.63406 15.836 5.63431C16.1249 5.63431 16.3973 5.68513 16.6555 5.78438C16.9231 5.88601 17.1565 6.03608 17.355 6.23696C17.5624 6.43784 17.7266 6.69367 17.8466 7.00503C17.9736 7.31699 18.0404 7.68862 18.0404 8.11992V8.42006C18.0404 8.89273 17.9736 9.29449 17.8466 9.62713C17.7266 9.9574 17.563 10.2298 17.355 10.4395C17.1565 10.6493 16.9237 10.8058 16.6555 10.9057ZM3.84632 4.3534H2.00058V12.339H3.63717V6.83901L5.72102 10.6794H6.91213L8.99361 6.83901V12.3367H10.6326V4.3534H8.87604L6.36207 9.0233L3.84632 4.3534ZM32.8016 10.9216H31.9083V14.222H33.4267V12.3367H38.8741V14.222H40.3902V10.9216H39.3491V4.3534H33.471V6.61272C33.471 7.0653 33.4574 7.51787 33.4273 7.96985C33.3971 8.41061 33.3505 8.82833 33.2932 9.21886C33.2416 9.56501 33.1668 9.90728 33.0692 10.2434C32.9889 10.5459 32.9008 10.7692 32.8016 10.9216ZM37.7131 5.76843V10.9216H34.4683C34.6757 10.4395 34.8258 9.84632 34.9132 9.14501C35.0036 8.43188 35.0473 7.68567 35.0473 6.91523V5.76843H37.7131ZM44.8604 12.5027C44.3541 12.5068 43.8508 12.4257 43.3715 12.2628C42.9136 12.0967 42.4938 11.8401 42.1372 11.5083C41.791 11.1668 41.5116 10.7397 41.3042 10.2274C41.0938 9.71457 40.9905 9.11251 40.9905 8.42006V8.11756C40.9905 7.45583 41.0897 6.8786 41.2876 6.38466C41.4862 5.8931 41.7544 5.48661 42.0912 5.16579C42.4313 4.83821 42.8371 4.5865 43.2817 4.42725C43.7401 4.26364 44.2236 4.18165 44.7103 4.18501C45.9109 4.18501 46.829 4.51292 47.4636 5.16579C48.1076 5.81924 48.4307 6.75157 48.4307 7.96749V8.8106H42.6566C42.666 9.22418 42.7304 9.57454 42.8504 9.86523C42.9798 10.1471 43.1434 10.3781 43.3419 10.56C43.5499 10.7314 43.7827 10.8555 44.0415 10.9364C44.3063 11.0163 44.5814 11.0567 44.858 11.0563C45.4234 11.0563 45.837 10.9665 46.0952 10.7863C46.3628 10.6038 46.5454 10.3686 46.6447 10.0773H48.2813C48.1241 10.869 47.7318 11.4741 47.1061 11.8853C46.4922 12.2983 45.7442 12.5033 44.861 12.5033L44.8604 12.5027ZM44.7865 5.63431C44.5155 5.63347 44.2455 5.66844 43.9836 5.7383C43.7343 5.80979 43.5109 5.925 43.3142 6.08452C43.1251 6.23696 42.9703 6.43784 42.8527 6.68894C42.7328 6.92941 42.6678 7.22482 42.659 7.57754H46.7947C46.7853 7.20591 46.7256 6.89455 46.6169 6.64286C46.5176 6.39116 46.3794 6.19087 46.2015 6.04021C46.0157 5.88566 45.7958 5.77752 45.5599 5.72471C45.3068 5.66279 45.0471 5.63243 44.7865 5.63431ZM49.2112 12.4891C49.3105 12.498 49.4003 12.5027 49.4789 12.5027C49.8848 12.5027 50.2428 12.4241 50.5518 12.2628C50.859 12.0915 51.1172 11.8014 51.3252 11.3884C51.5326 10.9772 51.6874 10.4236 51.7866 9.73111C51.8954 9.02684 51.9503 8.13883 51.9503 7.06293V5.76843H54.6876V12.3367H56.3242V4.3534H50.3716V6.76279C50.3716 7.57814 50.3462 8.24932 50.2978 8.78224C50.2475 9.31576 50.1737 9.74234 50.0744 10.0632C49.984 10.3751 49.8665 10.5967 49.7164 10.7255C49.5645 10.8463 49.3751 10.9101 49.1811 10.9057C49.106 10.9074 49.0309 10.9029 48.9566 10.8921V12.459C49.0381 12.4773 49.1208 12.4885 49.2106 12.4885L49.2112 12.4891ZM61.5306 12.5027C61.0087 12.507 60.4901 12.4204 59.998 12.2469C59.5413 12.0732 59.1256 11.8067 58.7773 11.464C58.4311 11.1225 58.1587 10.7001 57.9602 10.1996C57.7617 9.68739 57.6624 9.0942 57.6624 8.42006V8.11992C57.6624 7.48538 57.7617 6.92941 57.9602 6.4467C58.1587 5.95513 58.4311 5.54214 58.7773 5.21187C59.1239 4.87068 59.5404 4.60864 59.998 4.4438C60.4901 4.27002 61.0087 4.18325 61.5306 4.18738C62.0753 4.18738 62.5828 4.27305 63.049 4.4438C63.5246 4.61455 63.9352 4.87037 64.2838 5.21187C64.63 5.54214 64.9024 5.95513 65.1009 6.4467C65.2995 6.92941 65.3987 7.48538 65.3987 8.11992V8.42006C65.3987 9.09361 65.2995 9.68444 65.1009 10.1996C64.9024 10.7001 64.63 11.1225 64.2838 11.464C63.9315 11.8084 63.5108 12.0751 63.049 12.2469C62.5828 12.4176 62.0777 12.5027 61.5306 12.5027ZM61.5306 11.0581C61.8189 11.0581 62.0919 11.0073 62.35 10.9057C62.6161 10.8067 62.8554 10.6471 63.049 10.4395C63.257 10.2298 63.4212 9.9574 63.5388 9.62713C63.6676 9.29508 63.7326 8.89332 63.7326 8.42006V8.11992C63.7326 7.68862 63.6676 7.3164 63.5388 7.00562C63.4206 6.69367 63.257 6.43784 63.049 6.23696C62.8516 6.03715 62.6131 5.88271 62.35 5.78438C62.0885 5.6841 61.8106 5.63322 61.5306 5.63431C61.2422 5.63431 60.9651 5.68513 60.6975 5.78438C60.4365 5.88713 60.1987 6.041 59.998 6.23696C59.8 6.43784 59.6358 6.69367 59.5064 7.00503C59.3888 7.31699 59.3291 7.68862 59.3291 8.11992V8.42006C59.3291 8.89273 59.3888 9.29449 59.5064 9.62713C59.6364 9.9574 59.7994 10.2298 59.998 10.4395C60.2059 10.6493 60.4393 10.8064 60.6975 10.9063C60.9651 11.0073 61.2422 11.0581 61.5306 11.0581Z" fill="#FF5029"/>
<path d="M27.2941 2.07387H21.0814V3.31937H27.2935L27.2941 2.07387Z" fill="#FF5029"/>
<path d="M27.2941 0H21.0814V1.24551H27.2935L27.2941 0Z" fill="#FF5029"/>
<path fill-rule="evenodd" clip-rule="evenodd" d="M27.9186 7.96424C27.9186 6.74718 27.5945 5.80979 26.9486 5.15445C26.3122 4.4997 25.3914 4.17321 24.1874 4.17321C23.6808 4.17321 23.2038 4.25202 22.7546 4.41378C22.3092 4.57437 21.9024 4.8267 21.5607 5.15445C21.2229 5.47619 20.9539 5.88623 20.7548 6.37922C20.5557 6.8722 20.4562 7.45052 20.4562 8.11534V8.41812C20.4562 9.11257 20.5629 9.71636 20.7714 10.2331C20.9794 10.7444 21.2573 11.1722 21.6069 11.5177C21.9654 11.849 22.3864 12.1054 22.8453 12.272C23.3259 12.4361 23.8307 12.5182 24.3385 12.5149C25.2243 12.5149 25.9739 12.3069 26.5925 11.8945C27.2176 11.4803 27.611 10.8765 27.7704 10.0802H26.1291C26.0302 10.3717 25.8447 10.6099 25.5763 10.7906C25.3173 10.9713 24.9049 11.0632 24.3379 11.0632C24.0596 11.0632 23.7829 11.022 23.5166 10.9411C23.2605 10.8621 23.0222 10.7339 22.8151 10.5637C22.6053 10.3686 22.4383 10.1321 22.3245 9.86924C22.2042 9.57771 22.139 9.22575 22.1301 8.81157H27.9209V7.96424H27.9186ZM22.1277 7.57317C22.1396 7.21943 22.2042 6.92316 22.3221 6.682C22.4292 6.44794 22.5873 6.24082 22.7849 6.07584C22.9833 5.91662 23.2116 5.79858 23.4562 5.72861C23.7151 5.65929 23.9836 5.62196 24.262 5.62196C24.5417 5.62196 24.7989 5.65218 25.0395 5.71499C25.2871 5.77483 25.4999 5.88089 25.6806 6.03199C25.8583 6.18249 25.9999 6.38336 26.0971 6.63637C26.2079 6.8882 26.266 7.20047 26.2778 7.57317H22.1277Z" fill="#FF5029"/>
<path d="M2 18.6042H2.79921V21.3345L4.65347 18.6045H5.41653V22.4641H4.61732V19.733L2.76306 22.4641H2V18.6042ZM6.29224 18.6042H7.09117V20.1556H8.90928V18.6042H9.70849V22.4638H8.90928V20.8393H7.09117V22.4638H6.29224V18.6042ZM11.4927 19.2885H10.2196V18.6045H13.565V19.2885H12.2919V22.4641H11.4927V19.2885ZM15.6742 22.5439C15.4181 22.5439 15.1752 22.5047 14.9473 22.4268C14.724 22.3472 14.519 22.2236 14.3443 22.0633C14.1745 21.898 14.0388 21.6912 13.9371 21.444C13.8354 21.1966 13.7838 20.9055 13.7838 20.5703V20.4246C13.7838 20.104 13.8332 19.8249 13.9296 19.5873C14.0268 19.3499 14.1571 19.1529 14.3224 18.9974C14.4892 18.8392 14.6871 18.7177 14.9036 18.6407C15.128 18.562 15.3642 18.5226 15.602 18.5244C16.1887 18.5244 16.6365 18.6821 16.9462 18.9974C17.2615 19.3126 17.4192 19.7646 17.4192 20.3514V20.7597H14.5982C14.6038 20.959 14.6346 21.1285 14.6935 21.2697C14.7559 21.4057 14.8358 21.5172 14.9333 21.6049C15.0351 21.687 15.1491 21.747 15.2746 21.7865C15.405 21.8249 15.5386 21.8445 15.6742 21.8445C15.9511 21.8445 16.1515 21.8008 16.2773 21.7131C16.409 21.6268 16.4987 21.5119 16.5466 21.3717H17.3469C17.269 21.7548 17.0776 22.046 16.7722 22.2452C16.4723 22.4442 16.1055 22.5439 15.6742 22.5439ZM15.6381 19.223C15.5025 19.223 15.371 19.2403 15.2452 19.2742C15.1247 19.3082 15.0154 19.3639 14.9179 19.4418C14.826 19.5141 14.7515 19.6114 14.6937 19.733C14.6343 19.849 14.6038 19.9925 14.5985 20.162H16.62C16.6144 19.9827 16.5861 19.8325 16.5326 19.7108C16.4844 19.5895 16.4163 19.4923 16.3289 19.42C16.2379 19.3452 16.1307 19.2927 16.0158 19.2667C15.8921 19.237 15.7653 19.2223 15.6381 19.223ZM18.0738 18.6045H18.8159V19.2524C18.9323 19.0287 19.1115 18.8439 19.3315 18.7205C19.5646 18.5888 19.8261 18.5244 20.1175 18.5244C20.6208 18.5244 21.0182 18.6821 21.3093 18.9974C21.5997 19.3126 21.7451 19.7887 21.7451 20.4249V20.5706C21.7451 20.8998 21.7067 21.1888 21.6291 21.4373C21.5515 21.6848 21.4396 21.8904 21.2953 22.0558C21.1556 22.2144 20.9814 22.339 20.7862 22.4201C20.5872 22.5025 20.3636 22.5439 20.1175 22.5439C19.8404 22.5439 19.5887 22.4826 19.3609 22.3612C19.1334 22.2407 18.9714 22.0698 18.8739 21.8521V23.9201H18.0738V18.6045ZM19.9281 21.8445C20.2279 21.8445 20.4709 21.7405 20.655 21.5315C20.8388 21.3224 20.9319 21.0027 20.9319 20.5703V20.4246C20.9319 20.0166 20.8422 19.7156 20.6626 19.5217C20.4832 19.3227 20.2377 19.223 19.9281 19.223C19.7922 19.223 19.661 19.2448 19.5349 19.2885C19.4091 19.3323 19.2953 19.3978 19.1936 19.4855C19.0933 19.5732 19.014 19.6824 18.9616 19.805C18.9033 19.9322 18.8739 20.0777 18.8739 20.243V20.7522C18.8739 20.9371 18.9036 21.0968 18.9616 21.2328C19.0196 21.3684 19.0972 21.4833 19.1936 21.5752C19.2909 21.6671 19.4027 21.7349 19.5285 21.7789C19.6546 21.8226 19.788 21.8445 19.9281 21.8445ZM22.4019 18.6045H23.2009V20.1556H25.0193V18.6042H25.8182V22.4638H25.0193V20.8393H23.2009V22.4638H22.4019V18.6045ZM28.3655 22.5439C28.1183 22.5454 27.8727 22.5058 27.6385 22.4268C27.4152 22.3472 27.2102 22.2236 27.0355 22.0633C26.866 21.898 26.7301 21.6912 26.6283 21.444C26.5266 21.1966 26.475 20.9055 26.475 20.5703V20.4246C26.475 20.104 26.5232 19.8249 26.6208 19.5873C26.718 19.3499 26.8483 19.1529 27.0136 18.9974C27.1804 18.8392 27.3783 18.7177 27.5948 18.6407C27.8192 18.562 28.0554 18.5226 28.2932 18.5244C28.8788 18.5244 29.3278 18.6821 29.6374 18.9974C29.9527 19.3126 30.1104 19.7646 30.1104 20.3514V20.7597H27.2894C27.295 20.959 27.3258 21.1285 27.3835 21.2697C27.4472 21.4057 27.527 21.5172 27.6245 21.6049C27.7263 21.687 27.8403 21.747 27.9659 21.7865C28.0962 21.8249 28.2298 21.8445 28.3655 21.8445C28.6412 21.8445 28.8427 21.8008 28.9685 21.7131C29.1002 21.6268 29.1899 21.5119 29.2378 21.3717H30.0381C29.9605 21.7548 29.7688 22.046 29.4637 22.2452C29.1624 22.4442 28.7967 22.5439 28.3655 22.5439ZM28.3293 19.223C28.1937 19.223 28.0623 19.2403 27.9364 19.2742C27.8159 19.3082 27.7066 19.3639 27.6091 19.4418C27.5172 19.5141 27.4427 19.6114 27.3835 19.733C27.3255 19.849 27.295 19.9925 27.2894 20.162H29.3101C29.3059 19.9827 29.2765 19.8325 29.2238 19.7108C29.1745 19.5895 29.1078 19.4923 29.0201 19.42C28.9291 19.3452 28.8219 19.2927 28.7071 19.2667C28.5834 19.237 28.4565 19.2223 28.3293 19.223ZM31.6035 19.2885H30.3304V18.6045H33.6744V19.2885H32.4024V22.4641H31.6035V19.2885ZM33.3756 20.046H35.6295V20.8034H33.3756V20.046ZM37.9184 22.5439C37.6662 22.5455 37.4164 22.4959 37.1839 22.3982C36.9589 22.3025 36.7578 22.1583 36.5949 21.9759C36.4307 21.7865 36.2995 21.5556 36.2031 21.284C36.1112 21.0072 36.0653 20.6919 36.0653 20.3372V20.1914C36.0653 19.7548 36.0961 19.3662 36.1594 19.0268C36.2228 18.6866 36.329 18.3974 36.4789 18.1601C36.6287 17.922 36.8397 17.7285 37.0898 17.5996C37.347 17.4637 37.6642 17.3861 38.042 17.3665C38.3474 17.3522 38.6235 17.339 38.8706 17.33C39.1181 17.3149 39.3218 17.2667 39.4815 17.1835V17.9191C39.4039 17.9631 39.2615 18.0003 39.0525 18.0284C38.8446 18.0527 38.5433 18.0704 38.1516 18.0802C37.9237 18.0844 37.7248 18.1119 37.555 18.1601C37.3907 18.2083 37.2495 18.2859 37.1335 18.3932C37.022 18.4994 36.932 18.6407 36.8645 18.8158C36.802 18.9853 36.7602 19.1944 36.7406 19.4418C36.8521 19.2132 37.0273 19.029 37.2638 18.8878C37.5068 18.7421 37.7968 18.6701 38.1361 18.6701C38.3738 18.6701 38.5929 18.7107 38.7907 18.7937C38.9897 18.8682 39.1687 18.9877 39.3139 19.1428C39.4597 19.2941 39.5712 19.4802 39.6491 19.7033C39.7312 19.9224 39.7727 20.1699 39.7727 20.4467V20.6143C39.7727 20.9153 39.7245 21.1865 39.6269 21.4298C39.5421 21.6558 39.4109 21.8615 39.2419 22.0339C39.0746 22.2004 38.8738 22.3294 38.6529 22.4125C38.4295 22.5002 38.1855 22.5439 37.9184 22.5439ZM37.9184 21.8445C38.2337 21.8445 38.4853 21.7405 38.675 21.5315C38.8642 21.3224 38.958 21.017 38.958 20.6143V20.4467C38.958 20.1062 38.8608 19.8425 38.6672 19.6531C38.4789 19.4637 38.2292 19.3684 37.9184 19.3684C37.6085 19.3684 37.3568 19.4637 37.1618 19.6531C36.9738 19.8369 36.8785 20.1018 36.8785 20.4467V20.6143C36.8785 20.8077 36.9059 20.9831 36.9597 21.1383C37.0121 21.2885 37.0853 21.4177 37.1772 21.5239C37.2718 21.6252 37.3853 21.7069 37.5112 21.7646C37.6373 21.8181 37.7727 21.8445 37.9184 21.8445ZM40.9 24C40.828 24 40.7557 23.9933 40.6823 23.9779V23.2795C40.7557 23.2938 40.828 23.3014 40.9003 23.3014C40.9833 23.3014 41.0513 23.2863 41.1049 23.2577C41.1629 23.2336 41.2133 23.1865 41.257 23.1187C41.3052 23.0562 41.3512 22.971 41.3949 22.8637C41.4431 22.7572 41.4966 22.6238 41.5546 22.4641L39.9198 18.6045H40.7921L41.9699 21.5895L43.0306 18.6045H43.8449L42.3552 22.4641C42.2479 22.7356 42.1496 22.9685 42.0565 23.1624C41.9643 23.3574 41.8626 23.5149 41.7522 23.6365C41.654 23.7554 41.5296 23.8498 41.3887 23.9123C41.2528 23.9714 41.0892 24 40.9 24ZM45.4506 20.4532L44.135 18.6045H45.0356L45.9738 19.9006L46.8977 18.6045H47.7701L46.4687 20.4249L47.8424 22.4641H46.926L45.9452 20.9635L44.9493 22.4641H44.0627L45.4506 20.4532ZM48.3482 18.6045H51.0386V19.2885H49.1482V22.4641H48.3482V18.6045ZM52.4541 22.5439C52.245 22.5439 52.0589 22.5145 51.8936 22.4565C51.7425 22.3989 51.6042 22.3123 51.4864 22.2015C51.3762 22.0919 51.2898 21.9607 51.2326 21.8162C51.1729 21.6626 51.1432 21.499 51.1448 21.3342C51.1448 20.9514 51.2586 20.6678 51.4864 20.4829C51.714 20.2934 52.0491 20.1993 52.4902 20.1993H53.6899V19.988C53.6899 19.6968 53.6243 19.4976 53.4929 19.3903C53.3668 19.2787 53.1656 19.223 52.8898 19.223C52.6424 19.223 52.4608 19.2622 52.3445 19.3401C52.2893 19.3752 52.2424 19.422 52.2073 19.4772C52.1721 19.5324 52.1495 19.5947 52.1411 19.6596H51.3629C51.3708 19.502 51.4129 19.3481 51.4862 19.2084C51.5643 19.0666 51.671 18.9426 51.7995 18.8441C51.9354 18.7424 52.0973 18.6648 52.2865 18.6109C52.4748 18.5529 52.6883 18.5244 52.926 18.5244C53.1633 18.5244 53.3769 18.5507 53.5663 18.6045C53.7599 18.658 53.9241 18.7424 54.06 18.8595C54.1957 18.971 54.3008 19.1168 54.3731 19.2961C54.4507 19.4757 54.4891 19.6912 54.4891 19.9443V21.4799C54.4891 21.6845 54.4913 21.8641 54.4966 22.0196C54.5011 22.1696 54.5132 22.3186 54.5328 22.4641H53.8059L53.7697 22.1794C53.7639 22.0824 53.7614 21.9853 53.7622 21.8882C53.6703 22.0678 53.5105 22.2234 53.283 22.3545C53.0594 22.4806 52.7836 22.5439 52.4541 22.5439ZM52.6718 21.8445C52.8077 21.8445 52.9358 21.8282 53.0571 21.7941C53.1832 21.7548 53.2925 21.701 53.3844 21.6332C53.4766 21.5609 53.5486 21.4735 53.6024 21.3717C53.6604 21.2644 53.6899 21.1428 53.6899 21.0072V20.7959H52.6357C52.4322 20.7959 52.2669 20.8396 52.1411 20.9273C52.0194 21.0147 51.9592 21.1431 51.9592 21.3126C51.9592 21.4735 52.0152 21.6013 52.1268 21.6991C52.2428 21.7963 52.4246 21.8445 52.6718 21.8445ZM55.2555 22.5439C55.2115 22.5439 55.1675 22.5414 55.1238 22.5364C55.0801 22.5364 55.0397 22.5319 55.0002 22.5224V21.7646C55.0243 21.7691 55.0605 21.7722 55.1095 21.7722C55.2115 21.7722 55.2981 21.7428 55.3712 21.6848C55.4435 21.6212 55.5015 21.5149 55.5453 21.3639C55.5946 21.2087 55.6307 21.0027 55.6545 20.7454C55.6789 20.4882 55.691 20.162 55.691 19.7691V18.6042H58.5994V22.4638H57.7991V19.2885H56.4616V19.9146C56.4616 20.4347 56.4352 20.8637 56.3817 21.2042C56.3335 21.539 56.2579 21.8061 56.1562 22.0042C56.0544 22.2035 55.9283 22.3447 55.7784 22.4268C55.6285 22.5047 55.4536 22.5439 55.2555 22.5439ZM60.3792 19.2885H59.1072V18.6045H62.4515V19.2885H61.1784V22.4641H60.3792V19.2885ZM64.5607 22.5439C64.3046 22.5439 64.0616 22.5047 63.8338 22.4268C63.6105 22.3472 63.4054 22.2236 63.2308 22.0633C63.0612 21.898 62.9253 21.6912 62.8236 21.444C62.7219 21.1966 62.6703 20.9055 62.6703 20.5703V20.4246C62.6703 20.104 62.7196 19.8249 62.816 19.5873C62.9133 19.3499 63.0436 19.1529 63.2089 18.9974C63.3756 18.8392 63.5736 18.7177 63.7901 18.6407C64.0145 18.5621 64.2507 18.5227 64.4884 18.5244C65.0752 18.5244 65.523 18.6821 65.8338 18.9974C66.1479 19.3126 66.3057 19.7646 66.3057 20.3514V20.7597H63.4847C63.4903 20.959 63.5219 21.1285 63.5799 21.2697C63.6424 21.4057 63.7223 21.5172 63.8198 21.6049C63.9215 21.687 64.0356 21.747 64.1611 21.7865C64.2928 21.8249 64.4251 21.8445 64.5607 21.8445C64.8376 21.8445 65.038 21.8008 65.1649 21.7131C65.2901 21.6327 65.3846 21.5125 65.4331 21.3717H66.2334C66.1558 21.7548 65.9641 22.046 65.6589 22.2452C65.3588 22.4442 64.992 22.5439 64.5607 22.5439ZM64.5246 19.223C64.3889 19.223 64.2586 19.2403 64.1317 19.2742C64.0112 19.3082 63.9019 19.3639 63.8055 19.4418C63.7125 19.5141 63.6379 19.6114 63.5799 19.733C63.5219 19.849 63.4903 19.9925 63.4847 20.162H65.5065C65.5009 19.9827 65.4729 19.8325 65.4191 19.7108C65.3709 19.5895 65.303 19.4923 65.2153 19.42C65.1246 19.3454 65.0179 19.293 64.9034 19.2667C64.7793 19.237 64.6522 19.2224 64.5246 19.223ZM66.9614 18.6045H67.7023V19.2524C67.8189 19.0284 67.9986 18.8435 68.2191 18.7205C68.4511 18.5888 68.7128 18.5244 69.0037 18.5244C69.5076 18.5244 69.9049 18.6821 70.1961 18.9974C70.4872 19.3126 70.6327 19.7887 70.6327 20.4249V20.5706C70.6327 20.8998 70.5935 21.1888 70.5156 21.4373C70.4379 21.6848 70.3272 21.8904 70.1818 22.0558C70.0421 22.2144 69.8679 22.339 69.6726 22.4201C69.4737 22.5025 69.2512 22.5439 69.004 22.5439C68.7269 22.5439 68.4752 22.4826 68.2474 22.3612C68.0199 22.2407 67.8579 22.0698 67.7604 21.8521V23.9201H66.9614V18.6045ZM68.8146 21.8445C69.1155 21.8445 69.3574 21.7405 69.5415 21.5315C69.7264 21.3224 69.8183 21.0027 69.8183 20.5703V20.4246C69.8183 20.0166 69.7287 19.7156 69.549 19.5217C69.3697 19.3227 69.1242 19.223 68.8146 19.223C68.6787 19.223 68.5484 19.2448 68.4217 19.2885C68.2956 19.3323 68.1818 19.3978 68.0798 19.4855C67.9796 19.5733 67.9003 19.6825 67.8481 19.805C67.7901 19.9322 67.7604 20.0777 67.7604 20.243V20.7522C67.7604 20.9371 67.7901 21.0968 67.8481 21.2328C67.9061 21.3684 67.9837 21.4833 68.0801 21.5752C68.1773 21.6671 68.2891 21.7349 68.415 21.7789C68.5411 21.8226 68.6745 21.8445 68.8146 21.8445ZM71.2884 18.6045H72.0876V21.3345L73.9419 18.6045H74.7047V22.4641H73.9057V19.733L72.0515 22.4641H71.2884V18.6045ZM76.3291 20.9993C76.038 20.913 75.8225 20.7695 75.6824 20.5706C75.5411 20.3711 75.4711 20.1315 75.4711 19.849C75.4711 19.4701 75.5969 19.1692 75.8486 18.9458C76.1016 18.7183 76.4836 18.6045 76.998 18.6045H78.743V22.4641H77.9427V21.0946H77.1141L76.256 22.4641H75.3257L76.3291 20.9993ZM76.2854 19.849C76.2854 20.0536 76.3457 20.1993 76.467 20.2859C76.5886 20.3688 76.7528 20.4106 76.9619 20.4106H77.9427V19.2885H76.9619C76.7528 19.2885 76.5886 19.3323 76.467 19.42C76.3457 19.5021 76.2854 19.6453 76.2854 19.849Z" fill="#FF5029"/>
</svg>
