<svg xmlns="http://www.w3.org/2000/svg" width="24" height="24" viewBox="0 0 24 24" fill="none"><rect width="24" height="24" fill="none"/>
<path fill-rule="evenodd" clip-rule="evenodd" d="M1.99992 11.1999C2.00113 6.9399 2.04194 4.76972 3.40576 3.40589C4.81165 2 7.07439 2 11.5999 2L12.3999 2C16.9254 2 19.1881 2 20.594 3.40589C21.7382 4.5501 21.9512 6.26188 21.9908 9.29914C21.9958 9.67714 21.998 10.0757 21.999 10.4962C21.9991 10.5241 21.9992 10.552 21.9992 10.5801C21.9993 10.6128 21.9993 10.6456 21.9994 10.6785C21.9998 10.9748 21.9998 11.2818 21.9998 11.6V12.4C21.9998 16.9255 21.9998 19.1882 20.594 20.5941C19.1881 22 16.9254 22 12.3999 22H11.5999C9.72481 22 8.23819 22 7.04003 21.9C5.34643 21.7586 4.22915 21.4175 3.40576 20.5941C1.99988 19.1882 1.99988 16.9255 1.99988 12.4L1.99988 11.6C1.99988 11.4646 1.99988 11.3312 1.99992 11.1999ZM2.59993 11.1861C2.60067 9.11872 2.61156 7.59344 2.77026 6.41304C2.93705 5.17248 3.25715 4.40304 3.83003 3.83015C4.40291 3.25727 5.17235 2.93718 6.41291 2.77039C7.67075 2.60128 9.32017 2.6 11.5999 2.6H12.3999C14.6796 2.6 16.329 2.60127 17.5868 2.77039C18.8274 2.93718 19.5969 3.25727 20.1697 3.83015C20.7426 4.40304 21.0627 5.17248 21.2295 6.41304C21.3202 7.08794 21.3627 7.87556 21.3825 8.81278C20.096 7.774 17.8071 5.99988 15.1999 5.99988C13.3798 5.99988 11.9251 7.00012 10.2918 8.12324C8.31277 9.48406 6.07147 11.0252 2.59993 11.1861ZM17.5 12.195C17.5 11.7007 17.9057 11.3 18.4 11.3C18.8943 11.3 19.3 11.7007 19.3 12.195V15.805C19.3 16.2993 18.8943 16.7 18.4 16.7C17.9057 16.7 17.5 16.2993 17.5 15.805V12.195ZM15.2001 9.00004C14.7058 9.00004 14.3001 9.40074 14.3001 9.89504V18.105C14.3001 18.5993 14.7058 19 15.2001 19C15.6944 19 16.1001 18.5993 16.1001 18.105V9.89504C16.1001 9.40074 15.6944 9.00004 15.2001 9.00004ZM11.1001 12.195C11.1001 11.7007 11.5058 11.3 12.0001 11.3C12.4944 11.3 12.9001 11.7007 12.9001 12.195V15.805C12.9001 16.2993 12.4944 16.7 12.0001 16.7C11.5058 16.7 11.1001 16.2993 11.1001 15.805V12.195ZM8.79967 12.6C8.30539 12.6 7.89967 13.0007 7.89967 13.495V14.505C7.89967 14.9993 8.30539 15.4 8.79967 15.4C9.29397 15.4 9.69967 14.9993 9.69967 14.505V13.495C9.69967 13.0007 9.29397 12.6 8.79967 12.6ZM4.69967 13.495C4.69967 13.0007 5.10539 12.6 5.59967 12.6C6.09397 12.6 6.49967 13.0007 6.49967 13.495V14.505C6.49967 14.9993 6.09397 15.4 5.59967 15.4C5.10539 15.4 4.69967 14.9993 4.69967 14.505V13.495Z" fill="white"/>
</svg>
