<svg xmlns="http://www.w3.org/2000/svg" width="24" height="24" viewBox="0 0 24 24" fill="none"><rect width="24" height="24" fill="none"/>
<path d="M8.76764 13.5801C8.76764 12.5234 8.19834 11.9856 7.50752 11.6597C6.03949 10.9511 3.88061 11.2769 3.88061 10.0178C3.88061 9.4167 4.36676 9.02124 5.33584 9.02124C6.7431 9.02124 6.85185 9.82481 6.89983 10.2804H8.62053C8.4862 8.26513 6.97019 7.65454 5.27189 7.65454C3.63754 7.65454 2.14712 8.48342 2.14712 10.138C2.14712 10.9542 2.46376 11.5174 2.86355 11.8654C4.21004 13.0423 7.08532 12.3937 7.08532 13.773C7.08532 14.719 6.09064 14.912 5.37423 14.912C4.33158 14.912 3.73669 14.4564 3.73669 13.5326H2C2.04797 15.415 3.40726 16.3166 5.29746 16.3166C7.40836 16.3166 8.76764 15.4276 8.76764 13.5801Z" fill="#0158FF"/>
<path d="M21.0181 13.0517V7.79691H18.7986L15.3667 12.979V14.371H19.406V16.0983H21.0181V14.371H22V13.0517H21.0181ZM19.406 13.0517H16.8347L19.406 9.20157V13.0517Z" fill="#0158FF"/>
<path d="M12.405 7.65454C10.259 7.65454 9.27707 8.87887 9.29948 10.6663H10.9243C10.8506 9.36924 11.6152 9.0592 12.3667 9.0592C13.1183 9.0592 13.6781 9.54957 13.6781 10.2456C13.6781 10.7739 13.5564 11.2548 12.7089 11.9508L9.44671 14.5766V16.0983H15.2805V14.6937H11.5448L13.8378 12.8714C14.7463 12.1406 15.3157 11.4098 15.3157 10.2203C15.3157 8.72386 14.1513 7.65454 12.405 7.65454Z" fill="#0158FF"/>
</svg>
