<svg xmlns="http://www.w3.org/2000/svg" width="24" height="24" viewBox="0 0 24 24" fill="none"><rect width="24" height="24" fill="none"/>
<path d="M17.1659 13.2646C17.1656 13.2895 17.1452 13.3093 17.1203 13.3089H15.8218L14.7073 12.169V13.3084H13.5604V10.6904H14.7073V11.8057L15.7776 10.6904H17.0344C17.0464 10.6904 17.0578 10.6951 17.0664 10.7037C17.0841 10.7213 17.0841 10.7499 17.0664 10.7675L15.8809 11.966L17.1526 13.232C17.1612 13.2406 17.1661 13.2524 17.1659 13.2646ZM11.9054 12.0381L10.646 10.6904H9.55544V13.3091H10.646V11.9614L11.9054 13.3091H12.9981V10.6904H11.9054V12.0381ZM7.46157 10.6927C7.45693 10.6911 7.45193 10.6902 7.44693 10.6902H6.45242L5.92176 12.2861L5.36415 10.6902H4.14959L3.59196 12.2861L3.06131 10.6902H2.04501C2.02018 10.6902 2 10.7105 2 10.7354C2 10.7404 2.00089 10.7453 2.0025 10.7501L2.87484 13.3089H4.20835L4.74579 11.774L5.28377 13.3089H6.6171L7.48944 10.7501C7.49747 10.7265 7.48497 10.7008 7.46157 10.6927ZM7.84648 13.3091H8.99334V10.6904H7.84648V13.3091Z" fill="white"/>
<path d="M19.3453 9.46051L18.2182 10.592C18.1682 10.6422 18.1682 10.7236 18.2182 10.7738L19.4361 11.9963L18.2125 13.2255C18.1625 13.2757 18.1624 13.3571 18.2124 13.4074H18.2125L19.3396 14.539C19.3896 14.5892 19.4707 14.5892 19.5207 14.539L21.9623 12.0878C22.0124 12.0376 22.0124 11.956 21.9623 11.9058L19.5266 9.46051C19.4766 9.4103 19.3953 9.4103 19.3453 9.46051Z" fill="url(#paint0_linear_4424_167)"/>
<defs>
<linearGradient id="paint0_linear_4424_167" x1="16.9421" y1="12.9266" x2="23.1241" y2="10.6445" gradientUnits="userSpaceOnUse">
<stop stop-color="#FF9532"/>
<stop offset="0.17" stop-color="#FF8A1C"/>
<stop offset="0.51" stop-color="#FF5B21"/>
<stop offset="0.79" stop-color="#FF5A24"/>
</linearGradient>
</defs>
</svg>
