<svg xmlns="http://www.w3.org/2000/svg" width="24" height="24" viewBox="0 0 24 24" fill="none"><rect width="24" height="24" fill="none"/>
<path d="M2.029 20.3582C2.04948 20.3786 2.07358 20.3883 2.10247 20.3883H2.52041C2.55173 20.3883 2.57824 20.3786 2.59871 20.3608C2.61919 20.3415 2.62883 20.3161 2.62883 20.2849V19.269H3.2684C3.61889 19.269 3.89471 19.1884 4.09464 19.0285C4.29459 18.8674 4.39456 18.6316 4.39456 18.319C4.39456 18.004 4.29459 17.7635 4.09464 17.5976C3.89591 17.4317 3.62009 17.3488 3.2696 17.3488H2.10367C2.07117 17.3488 2.04587 17.3583 2.0278 17.3789C2.00853 17.3993 2.00009 17.4257 2.00009 17.4569V20.2837C1.99889 20.3137 2.00973 20.3378 2.029 20.3582ZM2.62159 17.8357H3.24791C3.42257 17.8357 3.55144 17.8778 3.63695 17.9619C3.72247 18.0461 3.76582 18.1628 3.76582 18.3143C3.76582 18.4681 3.72127 18.5848 3.63334 18.6641C3.54542 18.7436 3.41653 18.7831 3.24791 18.7831H2.62159V17.8357Z" fill="#FDDD2D"/>
<path d="M5.08009 20.2837C5.08009 20.3126 5.08971 20.3378 5.11018 20.3571C5.13066 20.3775 5.15476 20.3872 5.18367 20.3872H5.58355C5.61605 20.3872 5.64135 20.3775 5.66183 20.3571C5.6823 20.3367 5.69194 20.3126 5.69194 20.2837V19.2413H6.28814L6.8446 20.2705C6.86509 20.3054 6.88797 20.3331 6.91445 20.3548C6.94096 20.3763 6.97709 20.3872 7.02287 20.3872H7.42275C7.44563 20.3872 7.4673 20.3786 7.48537 20.3608C7.50465 20.3438 7.51428 20.321 7.51428 20.2957C7.51428 20.2813 7.50947 20.2656 7.50103 20.2477L6.8699 19.1403C7.05297 19.0765 7.19511 18.9731 7.29627 18.83C7.39744 18.6871 7.44803 18.509 7.44803 18.2986C7.44803 17.9943 7.34685 17.7599 7.14572 17.5953C6.94698 17.4317 6.66755 17.3488 6.31104 17.3488H5.18487C5.15235 17.3488 5.12705 17.3583 5.10898 17.3789C5.08971 17.3993 5.08129 17.4257 5.08129 17.4569L5.08009 20.2837ZM5.69315 17.8357H6.29778C6.47123 17.8357 6.6025 17.8755 6.68922 17.9548C6.77594 18.0341 6.81931 18.1484 6.81931 18.2949C6.81931 18.443 6.77594 18.5547 6.68922 18.6316C6.6025 18.7086 6.47123 18.747 6.29778 18.747H5.69315V17.8357Z" fill="#FDDD2D"/>
<path d="M10.3448 19.8846H8.88382V19.0982H10.2147C10.2461 19.0982 10.2726 19.0885 10.293 19.0706C10.3135 19.0513 10.3231 19.026 10.3231 18.9948V18.7206C10.3231 18.6894 10.3135 18.663 10.293 18.6424C10.2726 18.622 10.2461 18.6125 10.2147 18.6125H8.88382V17.8525H10.3111C10.3424 17.8525 10.3689 17.8428 10.3894 17.825C10.4099 17.8056 10.4195 17.7803 10.4195 17.7491V17.4569C10.4195 17.4257 10.4099 17.3993 10.3894 17.3789C10.3677 17.3583 10.3412 17.3488 10.3099 17.3488H8.3912C8.35868 17.3488 8.33338 17.3583 8.31531 17.3789C8.29604 17.3993 8.28762 17.4257 8.28762 17.4569V20.2837C8.28762 20.3126 8.29725 20.3378 8.31774 20.3571C8.33821 20.3775 8.36229 20.3872 8.3912 20.3872H10.3448C10.3761 20.3872 10.4026 20.3775 10.4231 20.3595C10.4436 20.3402 10.4532 20.315 10.4532 20.2837V19.988C10.4532 19.9566 10.4424 19.9302 10.4231 19.9121C10.4026 19.8941 10.3761 19.8846 10.3448 19.8846Z" fill="#FDDD2D"/>
<path d="M14.0024 17.3488H13.6543C13.5989 17.3488 13.5556 17.3763 13.5243 17.4317L12.6848 18.9864L11.8453 17.4317C11.8127 17.3763 11.7694 17.3488 11.714 17.3488H11.3611C11.3285 17.3488 11.3033 17.3583 11.2852 17.3789C11.2659 17.3993 11.2575 17.4257 11.2575 17.4569V20.2837C11.2575 20.3126 11.2671 20.3378 11.2876 20.3571C11.3081 20.3775 11.3322 20.3872 11.3611 20.3872H11.7357C11.767 20.3872 11.7923 20.3775 11.8115 20.3571C11.8308 20.3367 11.8392 20.3126 11.8392 20.2837V18.4165L12.4439 19.5623C12.4812 19.6261 12.5306 19.6573 12.592 19.6573H12.7751C12.8389 19.6573 12.8871 19.6261 12.9184 19.5623L13.5231 18.4165V20.2837C13.5231 20.3126 13.5327 20.3378 13.5532 20.3571C13.5737 20.3775 13.5977 20.3872 13.6267 20.3872H14.0012C14.0325 20.3872 14.0591 20.3775 14.0795 20.3595C14.1 20.3402 14.1096 20.315 14.1096 20.2837V17.4569C14.1096 17.4257 14.0988 17.3993 14.0795 17.3789C14.0603 17.3583 14.0338 17.3488 14.0024 17.3488Z" fill="#FDDD2D"/>
<path d="M15.5719 17.3488H15.154C15.1251 17.3488 15.0998 17.3583 15.0805 17.3763C15.06 17.3956 15.0504 17.4208 15.0504 17.4522V20.2837C15.0504 20.3126 15.06 20.3378 15.0805 20.3571C15.101 20.3775 15.1251 20.3872 15.154 20.3872H15.5719C15.6032 20.3872 15.6297 20.3775 15.6478 20.3571C15.6671 20.3367 15.6767 20.3126 15.6767 20.2837V17.4522C15.6767 17.4208 15.6671 17.3944 15.6478 17.3763C15.6297 17.3583 15.6032 17.3488 15.5719 17.3488Z" fill="#FDDD2D"/>
<path d="M18.6759 19.8846H17.2148V19.0982H18.5458C18.5771 19.0982 18.6035 19.0885 18.624 19.0706C18.6446 19.0513 18.6542 19.026 18.6542 18.9948V18.7206C18.6542 18.6894 18.6446 18.663 18.624 18.6424C18.6035 18.622 18.5771 18.6125 18.5458 18.6125H17.2148V17.8525H18.6422C18.6734 17.8525 18.7 17.8428 18.7204 17.825C18.7408 17.8056 18.7505 17.7803 18.7505 17.7491V17.4569C18.7505 17.4257 18.7408 17.3993 18.7204 17.3789C18.6987 17.3583 18.6723 17.3488 18.6409 17.3488H16.7222C16.6897 17.3488 16.6644 17.3583 16.6464 17.3789C16.627 17.3993 16.6187 17.4257 16.6187 17.4569V20.2837C16.6187 20.3126 16.6283 20.3378 16.6487 20.3571C16.6691 20.3775 16.6934 20.3872 16.7222 20.3872H18.6759C18.7071 20.3872 18.7337 20.3775 18.7541 20.3595C18.7745 20.3402 18.7842 20.315 18.7842 20.2837V19.988C18.7842 19.9566 18.7734 19.9302 18.7541 19.9121C18.7337 19.8941 18.7071 19.8846 18.6759 19.8846Z" fill="#FDDD2D"/>
<path d="M19.596 20.3582C19.6164 20.3786 19.6405 20.3883 19.6695 20.3883H20.0692C20.1019 20.3883 20.127 20.3786 20.1476 20.3582C20.1681 20.3378 20.1777 20.3137 20.1777 20.2849V19.2425H20.7738L21.3304 20.2716C21.3508 20.3066 21.3736 20.3342 21.4002 20.3559C21.4267 20.3775 21.4628 20.3883 21.5085 20.3883H21.9085C21.9313 20.3883 21.953 20.3799 21.9712 20.3619C21.9903 20.3451 22 20.3221 22 20.297C22 20.2826 21.9953 20.2669 21.9867 20.2488L21.3556 19.1415C21.5388 19.0777 21.6808 18.9744 21.782 18.8313C21.8831 18.6882 21.9338 18.5102 21.9338 18.2999C21.9338 17.9956 21.8326 17.7612 21.6314 17.5964C21.4316 17.4317 21.1521 17.3488 20.7955 17.3488H19.6695C19.6368 17.3488 19.6115 17.3583 19.5934 17.3789C19.5743 17.3993 19.5657 17.4257 19.5657 17.4569V20.2837C19.5646 20.3137 19.5754 20.3378 19.596 20.3582ZM20.7822 17.8344C20.9558 17.8344 21.087 17.8742 21.1738 17.9535C21.2604 18.033 21.3038 18.1471 21.3038 18.2938C21.3038 18.4417 21.2604 18.5534 21.1738 18.6306C21.087 18.7075 20.9558 18.746 20.7822 18.746H20.1777V17.8344H20.7822Z" fill="#FDDD2D"/>
<path d="M17.5037 8.64328C17.4625 8.537 17.3675 8.43073 17.2192 8.34897L9.11379 3.71373C8.70544 3.47664 8.36719 3.66875 8.36719 4.13882V13.4175C8.36719 13.8876 8.70544 14.0797 9.11379 13.8467L17.2233 9.20735C17.3675 9.12151 17.4625 9.01933 17.5079 8.91305C17.5243 8.86809 17.5327 8.82313 17.5327 8.77816C17.5327 8.7332 17.5243 8.68823 17.5037 8.64328Z" fill="#FDDD2D"/>
</svg>
