<svg xmlns="http://www.w3.org/2000/svg" width="118" height="24" viewBox="0 0 118 24" fill="none"><rect width="118" height="24" fill="none"/>
<path d="M17.2561 17.2362C17.2561 16.3921 18.3227 15.3473 20.5504 15.3473C20.6836 15.3473 20.8168 15.3473 20.9481 15.3603C20.7771 16.9835 19.4957 18.0943 18.2432 18.0943C17.6428 18.0943 17.2561 17.8126 17.2561 17.2362ZM12.9348 8.365H12.9617L12.2658 14.771C11.5144 14.5453 10.7476 14.3751 9.9715 14.2615L12.9348 8.365ZM8.1076 14.1277C6.45445 14.1277 4.72078 14.5432 3.82711 15.5341C3.32788 14.5854 3.07552 13.5254 3.09348 12.4525C3.09348 9.59765 4.94743 6.94456 8.5082 5.26042L8.0549 4.29548C3.88079 6.19538 2 9.32995 2 12.4525C2 13.9269 2.34693 15.3493 3.26645 16.6999C3.23984 16.8506 3.22653 17.0033 3.22669 17.1564C3.22669 18.2951 3.93348 19.1122 5.40073 19.1122C6.93459 19.1122 8.2408 18.0533 9.0281 15.9636H7.88095C7.30735 17.3571 6.37393 18.0823 5.40073 18.0823C4.64026 18.0823 4.30725 17.7337 4.30725 17.1583C4.30725 16.1664 5.5071 15.1605 8.1215 15.1605C9.49305 15.1651 10.8557 15.3821 12.1614 15.8038L11.9755 17.5589H13.0422L14.0422 8.1113C14.6561 7.9806 15.2816 7.91365 15.9091 7.9115C18.2561 7.9115 18.8963 8.7426 18.8963 9.6406C18.8963 10.8333 17.9231 11.6633 15.589 11.932L15.9359 8.70265L14.8693 8.7426L13.9358 17.5599H15.0025L15.4687 13.0978C16.2637 12.8819 17.0819 12.7641 17.9052 12.7472C19.4788 12.7472 20.5465 13.3904 20.8665 14.3454C20.7602 14.3346 20.6533 14.3303 20.5465 14.3324C17.5185 14.3324 16.1725 15.8867 16.1725 17.2542C16.1725 18.4599 17.0672 19.1301 18.2263 19.1301C19.9162 19.1301 21.7473 17.7626 22.0038 15.5251C22.7757 15.706 23.514 16.0096 24.1907 16.4242C22.3636 19.1442 18.6696 20.9262 14.242 20.9262C12.068 20.9262 9.3482 20.4577 7.54795 19.2111L6.98728 20.1101C8.7617 21.3966 11.6018 22 14.244 22C21.4322 22 26.5 17.7377 26.5 12.4715C26.5 6.93757 20.9918 2.94396 14.2579 2.94396C13.8444 2.94396 13.5511 2.95694 13.1505 2.98392L13.2569 4.04275C13.577 4.02976 13.9239 4.01578 14.244 4.01578C20.2582 4.01578 25.4065 7.66075 25.4065 12.4715C25.409 13.53 25.171 14.575 24.7106 15.5271C24.0307 15.0846 23.0436 14.6831 21.9899 14.4823C21.7632 13.1957 20.7105 12.0969 18.6696 11.8851C19.0697 11.6634 19.4034 11.3382 19.636 10.9431C19.8687 10.5481 19.9919 10.0976 19.9928 9.6386C19.9928 7.9904 18.8327 6.87764 15.9121 6.87764C15.3269 6.87909 14.7427 6.92853 14.1655 7.02545L14.2818 5.89571L13.2022 5.60104L12.2688 7.454C10.7618 7.8935 9.29455 8.5398 8.4277 9.03525L8.90785 9.96025C9.7837 9.50845 10.6879 9.11435 11.6147 8.78055L8.92175 14.1546C8.6414 14.1406 8.374 14.1277 8.1076 14.1277ZM12.2827 4.5462C12.2827 3.38048 10.9626 2.33463 9.4993 2C9.3525 2.60136 9.27115 3.21696 9.25675 3.83598C9.25675 5.47118 10.0967 5.95265 10.884 5.95265C11.722 5.95265 12.2817 5.39027 12.2817 4.5462H12.2827Z" fill="white"/>
<path d="M34.6805 9.73888C33.6956 9.73888 33.1327 10.2333 33.0203 10.9681H31.6124C31.838 9.32969 32.9354 8.46746 34.6805 8.46746C36.5809 8.46746 37.6079 9.42793 37.6079 11.3903V15.6722H36.2009V13.9786C35.8491 15.0097 35.1035 15.8151 33.6535 15.8151C32.3305 15.8151 31.5 15.1088 31.5 13.8365C31.5 12.2257 32.9783 11.3643 36.2009 11.3643V11.2506C36.2009 10.2333 35.638 9.73888 34.6805 9.73888ZM33.977 14.5997C35.4269 14.5997 36.2009 13.597 36.2009 12.3816C33.8783 12.3816 32.9783 12.9182 32.9783 13.7618C32.9783 14.3033 33.3583 14.5997 33.977 14.5997ZM38.8185 13.3566H40.2822C40.4513 14.0873 40.9292 14.5436 41.9999 14.5436C43.2663 14.5436 43.5897 14.0915 43.5897 13.5824C43.5897 13.1018 43.2242 12.7347 42.253 12.7347H41.0707V11.5339H42.0411C43.0398 11.5339 43.3641 11.1946 43.3641 10.6856C43.3641 10.1627 42.9274 9.73888 41.9845 9.73888C40.9292 9.73888 40.5491 10.2764 40.4221 10.8552H38.9584C39.0999 9.40032 40.2264 8.46746 42.0112 8.46746C43.9819 8.46746 44.8416 9.38571 44.8416 10.4598C44.8416 11.18 44.4057 11.7881 43.6035 12.0024C44.5035 12.2005 45.0672 12.8362 45.0672 13.6262C45.0672 14.771 44.1663 15.8183 41.9991 15.8183C39.945 15.8151 38.9592 14.8116 38.8185 13.3566ZM46.8131 14.2181C46.3481 13.4979 46.1937 12.5366 46.1937 11.3212C46.1937 7.90238 47.4326 6.43286 50.3875 6.07969C51.345 5.96603 51.8512 5.85317 51.9499 5.5H53.2729C53.0481 6.84205 52.0599 7.13921 50.6131 7.32269C48.2202 7.63365 47.6008 8.52348 47.545 10.6295C48.0092 9.52698 49.0928 8.76218 50.4158 8.76218C52.4149 8.76218 53.6392 10.3454 53.6392 12.2809C53.6392 14.2449 52.1472 15.8134 49.9096 15.8134C48.4734 15.8151 47.3622 15.0941 46.8131 14.2181ZM52.1609 12.2825C52.1609 10.9835 51.2326 10.036 49.9096 10.036C48.6003 10.036 47.672 10.9827 47.672 12.2825C47.672 13.6108 48.6011 14.5436 49.9104 14.5436C51.2301 14.5436 52.1609 13.6132 52.1609 12.2825ZM54.7075 18.5V17.2277C56.1849 17.2277 56.4663 16.9598 56.9168 15.7022L54.0751 8.60873H55.5817L57.6786 13.8795L59.7472 8.60873H61.1122L58.129 16.0408C57.3688 17.9488 56.8197 18.5 54.7075 18.5ZM61.9427 8.60873H63.3506V11.7881L66.4333 8.60873H68.1227L64.8564 11.9716L68.3887 15.6738H66.4891L63.3506 12.3531V15.6738H61.9427V8.60873ZM71.8798 9.73888C70.894 9.73888 70.3312 10.2333 70.2188 10.9681H68.8117C69.0365 9.32969 70.1347 8.46746 71.8798 8.46746C73.7794 8.46746 74.8072 9.42793 74.8072 11.3903V15.6722H73.3993V13.9786C73.0475 15.0097 72.302 15.8151 70.852 15.8151C69.529 15.8151 68.6984 15.1088 68.6984 13.8365C68.6984 12.2257 70.1767 11.3643 73.3993 11.3643V11.2506C73.3993 10.2333 72.8365 9.73888 71.8798 9.73888ZM71.1754 14.5997C72.6254 14.5997 73.3993 13.597 73.3993 12.3816C71.0776 12.3816 70.1767 12.9182 70.1767 13.7618C70.1767 14.3033 70.5576 14.5997 71.1754 14.5997ZM80.2537 8.60873H83.434C84.9965 8.60873 85.8555 9.27286 85.8555 10.4452C85.8555 11.176 85.405 11.8019 84.504 12.0422C85.532 12.2119 86.165 12.7485 86.165 13.6944C86.165 14.6557 85.5455 15.673 83.618 15.673H80.2537V8.60873ZM84.4055 10.6856C84.4055 10.1911 84.0955 9.80952 83.364 9.80952H81.6365V11.5478H83.367C84.0955 11.5478 84.4055 11.1662 84.4055 10.6856ZM81.6365 12.6779V14.473H83.536C84.381 14.473 84.69 14.0671 84.69 13.554C84.69 13.1018 84.381 12.6779 83.466 12.6779H81.6365ZM87.547 8.60873H88.955V11.7881L92.037 8.60873H93.7265L90.461 11.9716L93.994 15.6738H92.0935L88.955 12.3531V15.6738H87.547V8.60873ZM94.6125 18.5V17.2277C96.091 17.2277 96.3725 16.9598 96.8225 15.7022L93.9795 8.60873H95.485L97.583 13.8795L99.6515 8.60873H101.016L98.0335 16.0408C97.27 17.9488 96.721 18.5 94.6095 18.5H94.6125ZM106.985 13.0604H108.392C108.054 14.8554 106.83 15.8159 105.043 15.8159C102.859 15.8159 101.383 14.1921 101.383 12.1421C101.383 10.1075 102.861 8.46828 105.014 8.46828C106.874 8.46828 108.069 9.49938 108.336 11.1532H106.929C106.661 10.2488 106.056 9.7397 105.014 9.7397C103.721 9.7397 102.861 10.7009 102.861 12.1421C102.861 13.5978 103.75 14.5444 105.014 14.5444C106.052 14.5436 106.727 14.0492 106.981 13.0595L106.985 13.0604ZM112.572 9.7397C111.587 9.7397 111.025 10.2341 110.911 10.9689H109.504C109.729 9.3305 110.827 8.46828 112.572 8.46828C114.473 8.46828 115.5 9.42874 115.5 11.3911V15.673H114.093V13.9786C113.741 15.0097 112.994 15.8151 111.545 15.8151C110.222 15.8151 109.392 15.1088 109.392 13.8365C109.392 12.2257 110.869 11.3643 114.093 11.3643V11.2506C114.089 10.2333 113.526 9.73888 112.568 9.73888L112.572 9.7397ZM111.869 14.6005C113.319 14.6005 114.093 13.5978 114.093 12.3824C111.77 12.3824 110.869 12.919 110.869 13.7626C110.865 14.3033 111.245 14.5997 111.865 14.5997L111.869 14.6005Z" fill="white"/>
</svg>
