<svg xmlns="http://www.w3.org/2000/svg" width="24" height="24" viewBox="0 0 24 24" fill="none"><rect width="24" height="24" fill="none"/>
<path fill-rule="evenodd" clip-rule="evenodd" d="M2 12C2 6.47715 6.47715 2 12 2C17.5228 2 22 6.47715 22 12C22 17.5228 17.5228 22 12 22C6.47715 22 2 17.5228 2 12ZM7.71183 7.88235V11.2878C8.2256 10.6696 8.84055 10.3584 9.55422 10.3584C9.9222 10.3584 10.2509 10.4293 10.5467 10.5699C10.8428 10.7097 11.0641 10.889 11.2136 11.1068C11.364 11.3266 11.4652 11.5673 11.5205 11.8326C11.575 12.0966 11.6019 12.5075 11.6019 13.0648V16.7059H10.0073V13.4264C10.0073 12.7757 9.97837 12.3636 9.91766 12.1884C9.86066 12.0169 9.74791 11.8697 9.59717 11.7712C9.44353 11.6665 9.25231 11.6148 9.02145 11.6148C8.75754 11.6148 8.52048 11.6816 8.31398 11.8142C8.10376 11.9477 7.9526 12.1471 7.85679 12.4136C7.75932 12.6806 7.71059 13.0748 7.71183 13.5966L7.71059 16.7059H6.11765V7.88235H7.71183ZM13.9927 11.2878V7.88235H12.3998V16.7059H13.9927V13.5966C13.9927 13.0748 14.041 12.6806 14.1373 12.4136C14.2343 12.1471 14.3859 11.9477 14.5941 11.8142C14.8006 11.6816 15.0372 11.6148 15.3015 11.6148C15.5324 11.6148 15.7248 11.6665 15.8768 11.7712C16.028 11.8697 16.1411 12.0165 16.1981 12.1884C16.2584 12.3636 16.289 12.7757 16.289 13.4264V16.7059H17.8824V13.0648C17.8824 12.5075 17.8551 12.0966 17.8002 11.8326C17.7477 11.5723 17.6432 11.3253 17.4933 11.1068C17.3442 10.889 17.1228 10.7097 16.828 10.5699C16.5323 10.4293 16.201 10.3584 15.8347 10.3584C15.121 10.3584 14.5061 10.6696 13.9927 11.2878Z" fill="#000000"/>
</svg>
