<svg xmlns="http://www.w3.org/2000/svg" width="24" height="24" viewBox="0 0 24 24" fill="none"><rect width="24" height="24" fill="none"/>
<path d="M17.3415 4.21645L18.863 4.01855C18.8905 4.59764 19.634 4.61055 19.6605 4.01855L21.2038 4.21645C21.097 4.52195 20.8681 4.77199 20.6751 4.96704C20.4813 5.16213 20.2627 5.30335 20.0209 5.39266C19.7796 5.47984 19.5308 5.52498 19.2732 5.52498C18.8799 5.52498 18.5095 5.41828 18.1632 5.20392C17.8178 4.99057 17.492 4.66179 17.3415 4.21645Z" fill="white"/>
<path d="M19.8026 5.81683L18.6286 8.7525V5.81683H17.1662V11.2849H18.7428L19.9163 8.35367V11.2849H21.3786V5.81683H19.8026Z" fill="white"/>
<path d="M10.1877 15.8726C10.1877 16.9612 10.43 17.9684 11.2515 17.9684C12.0733 17.9684 12.3153 16.9612 12.3153 15.8726C12.3153 14.7277 12.0733 13.7628 11.2515 13.7628C10.43 13.7628 10.1877 14.7277 10.1877 15.8726ZM8.15322 15.8726C8.15322 13.6453 9.21847 12.2832 11.2599 12.2832C13.3014 12.2832 14.366 13.6453 14.366 15.8726C14.366 18.0796 13.2837 19.4637 11.2599 19.4637C9.23611 19.4637 8.15322 18.0796 8.15322 15.8726ZM14.5333 19.3382L15.1966 12.3972H17.4378L18.3041 15.9754L19.1966 12.3972H21.3786L22 19.3382H20.2011L19.9669 15.9551L19.0204 19.3382H17.4298L16.5798 15.9551L16.4031 19.3382H14.5333ZM4.35995 17.8734L5.09509 15.0069L5.80248 17.8734H4.35995ZM6.03656 12.2011H4.2316L2.47295 17.8666H2V19.9814H3.86357V19.3272H6.27496V19.9814H8.19572V17.8666H7.76685L6.03656 12.2011Z" fill="white"/>
<path d="M8.95141 7.89872H9.40509C9.59566 7.89872 9.6926 7.8576 9.76356 7.77484C9.83447 7.6926 9.87005 7.59718 9.87005 7.4884C9.87005 7.35964 9.82995 7.25503 9.75004 7.17421C9.67145 7.09333 9.57888 7.05317 9.40509 7.05317H8.95141V7.89872ZM8.96269 10.0671H9.41881C9.67979 10.0671 9.9067 9.91433 9.9067 9.58534C9.9067 9.25636 9.68899 9.07468 9.41881 9.07468H8.96269V10.0671ZM7.48886 5.82669H9.84276C10.7973 5.84926 11.3389 6.19848 11.3722 7.16999C11.3923 7.74622 11.1646 8.19599 10.6734 8.38682V8.40278C11.3255 8.57012 11.5681 9.08454 11.5681 9.70353C11.5681 10.244 11.2609 10.8127 10.8012 11.0842C10.5615 11.2259 10.331 11.2849 9.97578 11.2849H7.48886V5.82669Z" fill="white"/>
<path d="M4.23982 11.2849V7.04917H2.97384V5.83046H7.13697L6.96831 7.04917H5.71091V11.2849H4.23982Z" fill="white"/>
<path d="M13.4925 8.56096C13.4925 7.65975 13.6832 6.89971 14.3301 6.89971C14.9765 6.89971 15.1673 7.65975 15.1673 8.56096C15.1673 9.41754 14.9765 10.2109 14.3301 10.2109C13.6832 10.2109 13.4925 9.41754 13.4925 8.56096ZM11.8905 8.56096C11.8905 10.299 12.7432 11.3878 14.3363 11.3878C15.9295 11.3878 16.7818 10.299 16.7818 8.56096C16.7818 6.8076 15.9437 5.73554 14.3363 5.73554C12.7293 5.73554 11.8905 6.8076 11.8905 8.56096Z" fill="white"/>
</svg>
