<svg xmlns="http://www.w3.org/2000/svg" width="24" height="24" viewBox="0 0 24 24" fill="none"><rect width="24" height="24" fill="none"/>
<path d="M20.8555 13.0341C20.8503 13.0791 20.8347 13.1974 20.6936 13.2127H19.454C19.3129 13.1974 19.2871 13.0791 19.2818 13.0341V10.9448C19.2871 10.8997 19.3066 10.8039 19.4478 10.7885H20.6941C20.8353 10.8039 20.8503 10.8997 20.8555 10.9448V13.0341ZM21.2847 10.0013H18.8527C18.4872 10.0335 18.1785 10.2358 18.1374 10.6885V13.2753C18.1785 13.728 18.4872 13.9678 18.8527 14H21.2847C21.6501 13.9678 21.9588 13.728 22 13.2753V10.6885C21.9588 10.2358 21.6501 10.0335 21.2847 10.0013ZM11.442 10.7885H10.3547V10.0013H13.6738V10.7885H12.5865V14H11.442V10.7885ZM10.0114 10.7885V10.0013H7.0357V14L10.051 13.9991L10.0521 13.2128H8.1831L8.18329 12.3563H10.0114V11.5711H8.18329V10.7885L10.0114 10.7885ZM16.6495 11.4083C16.6495 11.4948 16.6298 11.5708 16.4875 11.5708H15.1617V10.7859H16.4893C16.6508 10.7859 16.6495 10.9012 16.6495 10.9733V11.4083ZM16.9666 12.4455C17.3236 12.4143 17.6795 12.149 17.6795 11.7132V10.726C17.6381 10.2754 17.3285 10.0321 16.9614 10H14.0171L14.0172 14H15.1617V12.4455H15.6172L16.3611 14H17.6773L16.7914 12.4455H16.9666ZM4.66665 14L5.43344 11.4883V14H6.57794V10.0013H5.03291L4.28897 12.0007L3.54503 10.0013H2V14H3.1445V11.4883L3.91696 14H4.66665Z" fill="#FBC51D"/>
</svg>
