<svg xmlns="http://www.w3.org/2000/svg" width="24" height="24" viewBox="0 0 24 24" fill="none"><rect width="24" height="24" fill="none"/>
<path d="M11.8336 22C7.70631 22 3.9797 19.6479 2.14562 16.0143C1.7823 15.2949 2.12513 14.4187 2.8819 14.1556C3.49708 13.9417 4.17974 14.2127 4.47377 14.7978C5.86259 17.5637 8.73351 19.3562 11.8721 19.3562C15.0793 19.3562 18.0528 17.5717 19.4721 14.8165C19.7725 14.2336 20.4701 13.9636 21.0988 14.1767C21.8721 14.4388 22.2225 15.3116 21.8512 16.0282C19.977 19.6478 16.0513 22 11.8336 22Z" fill="#64B441"/>
<path d="M17.0304 10.4199C16.931 9.08734 16.3447 8.02582 15.3355 7.35075C14.4913 6.78566 13.3556 6.49886 11.9589 6.49886H11.8023V6.494H10.4351V4.32781H14.8336C15.4921 4.32781 16.0302 3.8247 16.0302 3.18122C16.0302 2.53714 15.4861 2 14.8336 2H9.23914C8.57817 2 8.04252 2.54018 8.04252 3.20674V7.62722C8.04252 8.29378 8.57817 8.83396 9.23914 8.83396H12.0083C13.8617 8.83396 14.4528 9.69132 14.4528 10.5754C14.4528 11.4455 13.9864 12.8431 12.0409 12.8431C10.4321 12.8431 9.47171 11.7451 9.27348 11.5658C8.67879 11.0275 8.07807 11.0652 7.68041 11.4194C7.17308 11.8715 7.23514 12.5058 7.54182 12.9749C7.90695 13.5333 9.33012 15.2651 12.0415 15.2651C13.5815 15.2651 14.942 14.7079 15.8717 13.6974C16.696 12.7993 17.1189 11.6047 17.0304 10.4199Z" fill="white"/>
</svg>
