<svg xmlns="http://www.w3.org/2000/svg" width="24" height="24" viewBox="0 0 24 24" fill="none"><rect width="24" height="24" fill="none"/>
<path fill-rule="evenodd" clip-rule="evenodd" d="M6.77107 5.07026C6.48473 5.24782 6.31053 5.56079 6.31053 5.89773V17.9231C6.31053 18.4608 5.87462 18.8967 5.33691 18.8967H4.69798C4.16028 18.8967 3.72437 19.3326 3.72437 19.8703V21.0264C3.72437 21.5643 4.16028 22 4.69798 22H19.3022C19.8399 22 20.2758 21.5643 20.2758 21.0264V19.8703C20.2758 19.3326 19.8399 18.8967 19.3022 18.8967H18.6633C18.1256 18.8967 17.6896 18.4608 17.6896 17.9231V5.89773C17.6896 5.56079 17.5154 5.24782 17.2291 5.07026L12.5132 2.14615C12.1989 1.95128 11.8013 1.95128 11.487 2.14615L6.77107 5.07026Z" fill="white"/>
<path fill-rule="evenodd" clip-rule="evenodd" d="M15.5512 7.22381C15.7134 7.47106 15.6445 7.80304 15.3973 7.9653L9.19049 12.0385C8.94323 12.2007 8.61126 12.1318 8.449 11.8846C8.28674 11.6373 8.35564 11.3054 8.60289 11.1431L14.8097 7.06991C15.0569 6.90765 15.3889 6.97655 15.5512 7.22381Z" fill="#222222"/>
<path fill-rule="evenodd" clip-rule="evenodd" d="M15.5512 10.9091C15.7134 11.1563 15.6445 11.4883 15.3973 11.6506L9.19049 15.7238C8.94324 15.8861 8.61126 15.8171 8.449 15.5699C8.28674 15.3226 8.35564 14.9907 8.60289 14.8284L14.8097 10.7552C15.0569 10.5929 15.3889 10.6618 15.5512 10.9091Z" fill="#222222"/>
</svg>
