<svg xmlns="http://www.w3.org/2000/svg" width="166" height="24" viewBox="0 0 166 24" fill="none"><rect width="166" height="24" fill="none"/>
<path d="M46.7 8.28619V22H39.1885V8.28619H32.0714V2H53.7835V8.28619H46.7Z" fill="white"/>
<path d="M22.1845 2H29.7044V22H22.1845V2Z" fill="white"/>
<path d="M9.36047 15.6299V22H2V2H19.5325V7.83298H9.36047V9.79689H18.7016V15.6299H9.36047Z" fill="white"/>
<path d="M66.9097 22H59.3897V2H77.0817V7.83298H66.9097V9.79689H76.2508V15.6299H66.9097V22Z" fill="white"/>
<path d="M97.5686 22H80.0779V2H87.598V15.7138H97.5686V22Z" fill="white"/>
<path d="M118.5 22H99.9271V2H118.5V7.79941H107.439V9.36886H116.847V14.6311H107.439V16.2006H118.5V22Z" fill="white"/>
<path d="M140.002 22H121.429V2H140.002V7.79941H128.941V9.36886H138.341V14.6311H128.941V16.2006H140.002V22Z" fill="white"/>
<path d="M157.006 22H149.486V8.28619H142.369V2H164.09V8.28619H157.006V22Z" fill="white"/>
</svg>
