<svg xmlns="http://www.w3.org/2000/svg" width="66" height="24" viewBox="0 0 66 24" fill="none"><rect width="66" height="24" fill="none"/>
<path fill-rule="evenodd" clip-rule="evenodd" d="M38.6032 12.6734C36.7822 13.059 35.4657 14.4786 35.235 16.3054C35.1234 17.1888 35.332 18.2038 35.7832 18.9735C35.8835 19.1445 36.1933 19.5129 36.4718 19.7923C36.901 20.2228 37.0552 20.3386 37.4843 20.552C38.2243 20.9201 38.5369 20.9895 39.4557 20.9895C40.1172 20.9895 40.2854 20.9715 40.6256 20.8647C42.0768 20.409 43.1087 19.3675 43.5141 17.9493C43.6729 17.3942 43.685 16.2761 43.5381 15.741C43.1381 14.2834 41.9786 13.1166 40.5479 12.7317C40.1048 12.6125 39.0413 12.5806 38.6032 12.6734ZM41.6347 15.6537C41.3388 15.0259 40.6669 14.5116 39.9459 14.3613C38.7316 14.108 37.5627 14.7537 37.1104 15.9275C36.9334 16.3871 36.9301 17.1689 37.1031 17.6726C37.4256 18.6119 38.2521 19.2315 39.2692 19.2968C41.2188 19.4221 42.4888 17.4662 41.6347 15.6537Z" fill="#000000"/>
<path d="M34.0912 12.7307C33.398 12.8814 32.8706 13.2176 32.5319 13.7249L32.316 14.0481V13.4293V12.8104H31.4369H30.5578V16.8067V20.803H31.4338H32.3099L32.3278 18.4718C32.3438 16.4049 32.3563 16.1135 32.4391 15.9009C32.7537 15.0929 33.3995 14.6419 34.3274 14.5821L34.767 14.5538V13.6022V12.6506L34.5938 12.6548C34.4985 12.6572 34.2724 12.6913 34.0912 12.7307Z" fill="#000000"/>
<path fill-rule="evenodd" clip-rule="evenodd" d="M29.9364 4.92448C30.3387 3.46734 31.4896 2.41179 33.0353 2.08212C33.4764 1.98808 34.5941 1.97097 35.0867 2.05079C36.4934 2.27874 37.3818 3.02498 37.5514 4.12134C37.7472 5.38634 36.915 6.43299 35.3797 6.85271C34.7451 7.0262 33.3673 7.02604 32.5911 6.85239C32.2882 6.78466 32.0052 6.71572 31.9624 6.6993C31.8536 6.65758 31.9087 6.88457 32.1097 7.30668C32.4638 8.05026 33.2435 8.42383 34.3407 8.37561C34.9384 8.34939 35.4781 8.17979 35.8777 7.89264L36.1378 7.70578L36.7692 8.33889L37.4006 8.97195L37.216 9.16351C36.7424 9.65489 35.8835 10.071 35.0746 10.2009C34.5023 10.2929 33.4221 10.2421 32.8784 10.0978C32.0193 9.86978 31.1814 9.3549 30.6752 8.74406C30.396 8.40704 30.058 7.73583 29.9324 7.26896C29.7999 6.77625 29.8022 5.41048 29.9364 4.92448ZM54.7418 5.00441C55.1171 3.56857 56.2431 2.3949 57.548 2.07925C57.9728 1.97651 58.8965 1.97502 59.3266 2.07642C59.7855 2.18459 60.2629 2.42612 60.5989 2.72009L60.8746 2.96125V2.58416V2.20702H61.9136H62.9525V5.11364V5.25463C62.9525 7.79835 62.9525 8.18636 63.1374 8.3217C63.1707 8.34606 63.2099 8.36224 63.2563 8.38132L63.2706 8.38722C63.4294 8.45303 63.7866 8.44002 63.9782 8.36143C64.0647 8.326 64.0714 8.38488 64.0714 9.1772V10.0311L63.7917 10.1287C63.5761 10.2038 63.3532 10.2262 62.8193 10.2262C62.1679 10.2262 62.1085 10.2173 61.8217 10.0764C61.4866 9.91182 61.1768 9.59047 61.0849 9.3119L61.0257 9.13245L60.687 9.44277C60.2991 9.79822 59.8064 10.0577 59.2886 10.179C58.791 10.2957 57.7824 10.2562 57.3048 10.1015C56.0903 9.70796 55.1053 8.60845 54.7433 7.24232C54.585 6.64506 54.5843 5.60672 54.7418 5.00441ZM3.92616 6.93119C4.77567 4.39356 7.05305 2.5402 9.75162 2.19045C9.83953 2.17905 10.1721 2.1661 10.4907 2.16173C13.7325 2.11702 16.5727 4.30399 17.3737 7.46153C17.9995 9.92893 17.2504 12.4801 15.3764 14.2637C14.0592 15.5171 12.4205 16.1677 10.5814 16.1671C8.61237 16.1665 6.91995 15.4508 5.55197 14.0401C4.58034 13.0382 3.98823 11.9273 3.69609 10.5584C3.60589 10.1354 3.57925 9.8278 3.57754 9.18717C3.57504 8.26222 3.65608 7.73791 3.92616 6.93119ZM22.0846 4.62652C22.0854 4.09635 22.1018 3.33503 22.121 2.93477L22.1559 2.20702H25.3978H28.6397V6.12453V10.042L27.614 10.0276L26.5884 10.0131L26.5746 7.09579L26.5608 4.17851H25.3469H24.1329L24.0678 5.60385C23.9972 7.15099 23.9242 7.681 23.6826 8.40219C23.3596 9.36636 22.9188 9.81884 22.059 10.0688C21.6963 10.1742 20.8633 10.1932 20.6342 10.1012L20.4877 10.0424V9.21514V8.38791L20.874 8.3877C21.3363 8.38749 21.5501 8.28135 21.7067 7.97438C21.9483 7.50069 22.0819 6.31779 22.0846 4.62652ZM38.763 10.0397V6.12336V2.20702H39.7754H40.7877V3.64568V5.08433H42.546H44.3042V3.64568V2.20702H45.3166H46.3289V6.12336V10.0397H45.3166H44.3042V8.52112V7.00254H42.546H40.7877V8.52112V10.0397H39.7754H38.763ZM47.2613 4.15187L47.2468 3.17944L47.2323 2.20702H50.7766H54.321V3.19277V4.17851H53.0689H51.8168V7.10911V10.0397H50.8045H49.7922V7.11007V4.18043L48.5267 4.16615L47.2613 4.15187ZM35.0924 5.20603C35.5555 4.7876 35.3678 4.13658 34.7218 3.92041C34.1135 3.71686 33.2132 3.85279 32.6633 4.23116C32.2816 4.49374 31.8367 5.25207 32.0038 5.35533C32.1792 5.46376 33.0819 5.59047 33.6747 5.58994C34.4243 5.58919 34.7727 5.49488 35.0924 5.20603ZM60.2899 4.53061C59.9245 4.18197 59.6576 4.04829 59.1693 3.96905C58.7821 3.90623 58.7732 3.90623 58.3842 3.97108C57.9589 4.042 57.6306 4.22066 57.2734 4.57553C56.8144 5.03174 56.6973 5.34633 56.6973 6.12336C56.6973 6.60851 56.7183 6.7626 56.8191 7.01773C56.9893 7.44868 57.4212 7.9025 57.8492 8.10013C58.1597 8.24352 58.2301 8.2547 58.8233 8.2547C59.418 8.2547 59.4842 8.24415 59.7715 8.10311C60.6172 7.68809 61.0687 6.77102 60.9254 5.75954C60.8534 5.25164 60.666 4.88931 60.2899 4.53061ZM13.6323 7.51939C13.2264 6.73415 12.3269 6.02388 11.4605 5.80457C10.7641 5.6283 10.0485 5.66134 9.39085 5.90005C8.84947 6.09661 8.47447 6.34758 8.04961 6.79782C7.36123 7.52733 7.08651 8.27927 7.12791 9.32038C7.16584 10.2726 7.46145 10.9627 8.11094 11.6152C8.73102 12.2381 9.50557 12.5847 10.3884 12.6342C11.0089 12.6689 11.5328 12.5607 12.096 12.2813C13.8822 11.395 14.556 9.30647 13.6323 7.51939ZM2.95362 16.9158C2.61257 16.4333 2.00149 15.3476 2 15.2215C1.99894 15.1272 2.6236 15.1349 3.31716 15.2379C6.01945 15.6392 8.31596 17.1132 9.82898 19.4176C10.0117 19.696 10.2489 20.109 10.3561 20.3353C10.4632 20.5616 10.5637 20.7475 10.5793 20.7483C10.5951 20.7491 10.6823 20.5999 10.7732 20.4167C11.4741 19.0047 13.0056 17.6852 14.6143 17.1073C15.2885 16.8651 16.9719 16.5983 16.9708 16.7338C16.9701 16.8107 16.5059 17.5989 16.2405 17.9739C15.7054 18.7297 14.6211 19.6546 13.7558 20.093C13.2799 20.3342 12.5884 20.5772 12.0161 20.7045C11.2882 20.8664 9.84017 20.8775 9.00568 20.7277C7.43917 20.4464 5.85269 19.7186 4.63202 18.7211C4.1031 18.2889 3.35712 17.4865 2.95362 16.9158Z" fill="#000000"/>
<path fill-rule="evenodd" clip-rule="evenodd" d="M24.1907 12.6852C23.6071 12.809 23.0954 13.0827 22.6416 13.5138L22.246 13.8897V13.3501V12.8104H21.3668H20.4877V18.4052V24H21.3668H22.246V21.8749V19.7499L22.5863 20.0837C23.2555 20.7398 24.1346 21.0496 25.195 21.003C26.2463 20.9568 26.9999 20.6247 27.7647 19.8705C28.2757 19.3667 28.5681 18.8947 28.8046 18.1921C28.9502 17.7596 28.9788 17.5873 29.0008 17.0084C29.0227 16.4354 29.0084 16.2519 28.9083 15.8187C28.3984 13.6119 26.3221 12.2328 24.1907 12.6852ZM27.1787 16.1277C26.9523 15.2772 26.366 14.659 25.5427 14.4028C25.093 14.2628 24.3529 14.2687 23.9243 14.4156C22.8923 14.7693 22.272 15.6796 22.2767 16.8334C22.2822 18.1608 23.1186 19.1351 24.4095 19.3177C25.6815 19.4976 26.8575 18.7343 27.1727 17.5242C27.2742 17.1345 27.277 16.4967 27.1787 16.1277Z" fill="#000000"/>
</svg>
