<svg xmlns="http://www.w3.org/2000/svg" width="24" height="24" viewBox="0 0 24 24" fill="none"><rect width="24" height="24" fill="none"/>
<path fill-rule="evenodd" clip-rule="evenodd" d="M22 12C22 17.5229 17.5228 22 12 22C6.47717 22 2 17.5229 2 12C2 6.47715 6.47717 2 12 2C13.079 2 14.1182 2.17091 15.0918 2.48713L12.8127 9.5H6.15667L5.34333 12H12.0002L10.0502 18H12.8002L14.7502 12H22ZM21.685 9.5H15.5627L17.471 3.62798C17.6487 3.74432 17.8224 3.86615 17.992 3.99325C18.0211 4.01508 18.0501 4.03706 18.079 4.05919C18.1743 4.1323 18.2683 4.20709 18.3609 4.28351C19.9658 5.608 21.1505 7.42348 21.685 9.5Z" fill="white"/>
<path fill-rule="evenodd" clip-rule="evenodd" d="M22 12C22 17.5229 17.5228 22 12 22C6.47717 22 2 17.5229 2 12C2 6.47715 6.47717 2 12 2C13.079 2 14.1182 2.17091 15.0918 2.48713L12.8127 9.5H6.15667L5.34333 12H12.0002L10.0502 18H12.8002L14.7502 12H22ZM21.685 9.5H15.5627L17.471 3.62798C17.6487 3.74432 17.8224 3.86615 17.992 3.99325C18.0211 4.01508 18.0501 4.03706 18.079 4.05919C18.1743 4.1323 18.2683 4.20709 18.3609 4.28351C19.9658 5.608 21.1505 7.42348 21.685 9.5Z" fill="white"/>
</svg>
