<svg xmlns="http://www.w3.org/2000/svg" width="100" height="24" viewBox="0 0 100 24" fill="none"><rect width="100" height="24" fill="none"/>
<path d="M8.65025 10.4794L12.5738 16.318H10.3772L6.99904 11.338H5.37815V16.318H3.45427V7.09175H2L2.96951 5.23401H5.37815V9.62077H6.99904L10.2105 5.23401H12.392L8.65025 10.4794ZM11.983 12.3215C11.983 11.4577 12.1748 10.7031 12.5586 10.0579C12.9323 9.45423 13.4423 8.99114 14.0886 8.66849C14.735 8.34584 15.4318 8.18454 16.1791 8.18454C16.9467 8.18454 17.6385 8.34066 18.2545 8.65288C18.9009 8.97553 19.4109 9.45423 19.7845 10.0891C20.1582 10.7136 20.345 11.4577 20.345 12.3215C20.345 13.1958 20.1582 13.9503 19.7845 14.5852C19.4109 15.2096 18.9009 15.6936 18.2545 16.037C17.6182 16.3701 16.9265 16.5365 16.1791 16.5365C15.4419 16.5365 14.7501 16.3701 14.1038 16.037C13.4474 15.704 12.9272 15.22 12.5435 14.5852C12.1698 13.9399 11.983 13.1853 11.983 12.3215ZM44.6586 8.43435H46.3704V9.51147C46.633 9.09519 46.9814 8.77778 47.4157 8.55919C47.86 8.33023 48.4306 8.21576 49.1274 8.21576C49.8445 8.21576 50.4808 8.38229 51.0362 8.71531C51.5714 9.05874 51.9855 9.54792 52.2784 10.1828C52.5813 10.8072 52.7328 11.5253 52.7328 12.3371C52.7328 13.1593 52.5813 13.8879 52.2784 14.5227C51.9855 15.1471 51.5714 15.6311 51.0362 15.9746C50.7837 16.1515 50.4858 16.2816 50.1424 16.3648C49.8092 16.4585 49.4708 16.5053 49.1274 16.5053C48.5316 16.5053 48.0873 16.4585 47.7944 16.3648C47.1885 16.1775 46.7592 15.8653 46.5067 15.4281V19.1124H44.6586V8.43435ZM21.3297 8.43435H23.1627V11.4317H26.2985V8.43435H28.1163V16.318H26.2985V12.9928H23.1627V16.318H21.3297V8.43435ZM28.9192 8.43435H35.9633V9.93299H33.3577V16.318H31.4944V9.93299H28.9192V8.43435ZM38.4931 8.43435C39.1798 10.3701 39.806 12.2851 40.3716 14.1792C40.9068 12.3059 41.5127 10.3909 42.1894 8.43435H44.0375L41.2199 16.4741C40.9876 17.1298 40.7654 17.6346 40.5533 17.9884C40.321 18.3423 40.0332 18.6076 39.6898 18.7846C39.3566 18.9719 38.9122 19.0656 38.3568 19.0656C38.0437 19.0656 37.872 19.0604 37.8417 19.05L37.2206 17.5513C37.4125 17.5929 37.6498 17.6137 37.9326 17.6137C38.276 17.6137 38.5537 17.5617 38.7658 17.4576C38.9577 17.3743 39.1041 17.2599 39.2051 17.1142C39.3061 16.9789 39.3919 16.8071 39.4626 16.599L36.5541 8.43435H38.4931ZM13.8462 12.3059C13.8462 13.1697 14.0482 13.8306 14.4522 14.2885C14.8562 14.7361 15.4167 14.9598 16.1337 14.9598C16.8608 14.9598 17.4264 14.7361 17.8304 14.2885C18.2444 13.8306 18.4514 13.1697 18.4514 12.3059C18.4514 11.4629 18.2494 10.828 17.8455 10.4013C17.4415 9.96421 16.8709 9.74567 16.1337 9.74567C15.4066 9.74567 14.841 9.96421 14.437 10.4013C14.0432 10.828 13.8462 11.4629 13.8462 12.3059ZM46.4613 12.3215C46.4815 13.1021 46.6835 13.7265 47.0673 14.1949C47.451 14.6632 47.9913 14.8974 48.6881 14.8974C49.385 14.8974 49.9202 14.6632 50.2939 14.1949C50.6777 13.7265 50.8746 13.1021 50.8847 12.3215C50.8746 11.5514 50.6777 10.9373 50.2939 10.4794C49.9202 10.0111 49.385 9.77688 48.6881 9.77688C47.9913 9.77688 47.451 10.0058 47.0673 10.4638C46.6835 10.9217 46.4815 11.5409 46.4613 12.3215Z" fill="white" fill-opacity="0.9"/>
<path d="M66.4608 10.8331C66.4608 11.6209 66.3296 12.3581 66.0666 13.0449C65.8042 13.7216 65.4253 14.3175 64.9306 14.8326C64.4358 15.3476 63.8448 15.7415 63.1581 16.0142C62.4714 16.2869 61.7137 16.4233 60.886 16.4233C60.0473 16.4233 59.2852 16.2869 58.5979 16.0142C57.9113 15.7314 57.3257 15.3325 56.8408 14.8174C56.346 14.3124 55.9672 13.7216 55.7046 13.0449C55.442 12.3581 55.3107 11.6209 55.3107 10.8331V10.7725C55.3107 9.99485 55.442 9.27269 55.7046 8.60613C55.9775 7.92947 56.3608 7.32852 56.8561 6.80334C57.3509 6.28826 57.9419 5.89437 58.6286 5.62168C59.3152 5.34899 60.0675 5.21265 60.886 5.21265C61.7241 5.21265 62.4867 5.34899 63.1734 5.62168C63.8601 5.89437 64.4511 6.28826 64.9459 6.80334C65.4406 7.30833 65.8146 7.89918 66.0666 8.57585C66.3296 9.25252 66.4608 9.98473 66.4608 10.7725V10.8331ZM56.7347 10.8331C56.7347 11.6916 56.9113 12.4491 57.2651 13.1055C57.6182 13.7822 58.1032 14.3023 58.7193 14.6659C59.3453 15.0295 60.0675 15.2113 60.886 15.2113C61.7137 15.2113 62.4359 15.0295 63.052 14.6659C63.6884 14.3023 64.1783 13.7923 64.5216 13.1358C64.8649 12.4692 65.0366 11.7017 65.0366 10.8331V10.7725C65.0366 9.91404 64.8649 9.1616 64.5216 8.51522C64.1783 7.84866 63.6884 7.33357 63.052 6.96999C62.426 6.6064 61.7038 6.4246 60.886 6.4246C60.0779 6.4246 59.3606 6.6064 58.7346 6.96999C58.1081 7.34367 57.6182 7.8638 57.2651 8.53036C56.9113 9.18686 56.7347 9.93422 56.7347 10.7725V10.8331ZM71.5666 9.60597V16.196H70.2638V9.60597H67.5821V8.54556H74.2482V9.60597H71.5666ZM82.1297 14.8629C81.5939 15.4184 81.0586 15.8173 80.5234 16.0597C79.9882 16.292 79.3622 16.4081 78.6449 16.4081C77.8369 16.4081 77.1349 16.2415 76.5395 15.9082C75.9332 15.5749 75.4636 15.1053 75.1306 14.4993C74.7971 13.8933 74.6304 13.1863 74.6304 12.3784C74.6304 11.6108 74.7922 10.9139 75.1153 10.2877C75.4483 9.67163 75.908 9.19189 76.4936 8.84855C77.0895 8.50516 77.7816 8.33343 78.5695 8.33343C79.6804 8.33343 80.5436 8.66168 81.1598 9.31818C81.7858 9.97462 82.0991 10.8786 82.0991 12.0299C82.0991 12.1006 82.0892 12.2874 82.069 12.5904H75.9786C76.0294 13.1358 76.1557 13.6055 76.3575 13.9993C76.5794 14.4135 76.8878 14.7366 77.2814 14.9689C77.6756 15.2012 78.1501 15.3173 78.7056 15.3173C79.231 15.3173 79.6951 15.2214 80.0992 15.0295C80.5136 14.8376 80.9324 14.5144 81.3566 14.0599L82.1297 14.8629ZM80.8569 11.636C80.8263 10.9391 80.6043 10.3887 80.1905 9.98473C79.7865 9.57065 79.2408 9.36361 78.5541 9.36361C77.8773 9.36361 77.312 9.57065 76.8571 9.98473C76.4028 10.3887 76.1251 10.9391 76.024 11.636H80.8569ZM82.5545 15.075C82.7059 15.1154 82.8672 15.1356 83.0389 15.1356C83.3215 15.1356 83.5336 15.0598 83.6752 14.9083C83.8168 14.7467 83.9125 14.474 83.9634 14.0902C84.0137 13.656 84.0492 13.0954 84.0694 12.4086L84.1602 8.54556H89.8258V16.196H88.523V9.60597H85.3263L85.2509 12.4996C85.2203 13.5398 85.1546 14.3024 85.054 14.7871C84.9425 15.3123 84.7408 15.691 84.4477 15.9233C84.1651 16.1556 83.7359 16.2718 83.1602 16.2718L82.8573 16.2415L82.5545 16.1809V15.075ZM91.6403 8.54556H92.9431V11.0603H94.9578C95.8364 11.0603 96.5384 11.2926 97.0637 11.7572C97.5891 12.2218 97.8516 12.848 97.8516 13.6358C97.8516 14.4135 97.5891 15.0346 97.0637 15.4991C96.5384 15.9637 95.8364 16.196 94.9578 16.196H91.6403V8.54556ZM94.7457 15.1356C95.9277 15.1356 96.5181 14.6356 96.5181 13.6358C96.5181 12.6359 95.9277 12.1359 94.7457 12.1359H92.9431V15.1356H94.7457Z" fill="white"/>
</svg>
