<svg xmlns="http://www.w3.org/2000/svg" width="110" height="24" viewBox="0 0 110 24" fill="none"><rect width="110" height="24" fill="none"/>
<path d="M8.61827 10.4357L12.5229 16.2278H10.3369L6.975 11.2875H5.36191V16.2278H3.44728V7.07501H2L2.96485 5.23206H5.36191V9.58389H6.975L10.1711 5.23206H12.342L8.61827 10.4357ZM11.935 12.2631C11.935 11.4062 12.1259 10.6576 12.5078 10.0175C12.8797 9.41868 13.3873 8.95927 14.0305 8.63919C14.6737 8.31911 15.3672 8.1591 16.111 8.1591C16.8748 8.1591 17.5633 8.31397 18.1764 8.62371C18.8196 8.94379 19.3272 9.41868 19.699 10.0485C20.0709 10.668 20.2568 11.4062 20.2568 12.2631C20.2568 13.1304 20.0709 13.8789 19.699 14.5088C19.3272 15.1282 18.8196 15.6083 18.1764 15.949C17.5431 16.2795 16.8547 16.4446 16.111 16.4446C15.3773 16.4446 14.6888 16.2795 14.0456 15.949C13.3923 15.6187 12.8747 15.1386 12.4928 14.5088C12.1209 13.8686 11.935 13.1201 11.935 12.2631ZM44.4535 8.40691H46.1571V9.47547C46.4184 9.0625 46.7651 8.74762 47.1973 8.53077C47.6395 8.30363 48.2074 8.19006 48.9008 8.19006C49.6144 8.19006 50.2477 8.35527 50.8004 8.68564C51.3331 9.02634 51.7452 9.51163 52.0366 10.1414C52.3381 10.7609 52.4889 11.4733 52.4889 12.2786C52.4889 13.0943 52.3381 13.817 52.0366 14.4468C51.7452 15.0663 51.3331 15.5464 50.8004 15.8871C50.5492 16.0626 50.2527 16.1917 49.9109 16.2743C49.5793 16.3672 49.2426 16.4136 48.9008 16.4136C48.3079 16.4136 47.8657 16.3672 47.5742 16.2743C46.9712 16.0884 46.544 15.7787 46.2927 15.345V19H44.4535V8.40691ZM21.2367 8.40691H23.0609V11.3804H26.1816V8.40691H27.9907V16.2278H26.1816V12.9291H23.0609V16.2278H21.2367V8.40691ZM28.7897 8.40691H35.8V9.89363H33.2069V16.2278H31.3526V9.89363H28.7897V8.40691ZM38.3176 8.40691C39.0011 10.3273 39.6242 12.227 40.1871 14.1061C40.7197 12.2476 41.3227 10.3479 41.9962 8.40691H43.8354L41.0313 16.3827C40.8001 17.0331 40.579 17.5339 40.368 17.8849C40.1368 18.236 39.8503 18.4992 39.5086 18.6748C39.177 18.8606 38.7348 18.9535 38.1819 18.9535C37.8704 18.9535 37.6995 18.9483 37.6694 18.9381L37.0513 17.4513C37.2423 17.4926 37.4784 17.5132 37.7598 17.5132C38.1015 17.5132 38.378 17.4616 38.589 17.3583C38.78 17.2757 38.9257 17.1622 39.0262 17.0176C39.1267 16.8835 39.2121 16.713 39.2825 16.5066L36.3879 8.40691H38.3176ZM13.7893 12.2476C13.7893 13.1046 13.9903 13.7602 14.3923 14.2145C14.7944 14.6585 15.3522 14.8804 16.0658 14.8804C16.7894 14.8804 17.3522 14.6585 17.7542 14.2145C18.1663 13.7602 18.3723 13.1046 18.3723 12.2476C18.3723 11.4114 18.1713 10.7815 17.7693 10.3582C17.3673 9.92459 16.7994 9.7078 16.0658 9.7078C15.3421 9.7078 14.7793 9.92459 14.3772 10.3582C13.9853 10.7815 13.7893 11.4114 13.7893 12.2476ZM46.2475 12.2631C46.2676 13.0375 46.4686 13.657 46.8506 14.1216C47.2325 14.5862 47.7702 14.8185 48.4636 14.8185C49.1572 14.8185 49.6898 14.5862 50.0617 14.1216C50.4436 13.657 50.6396 13.0375 50.6497 12.2631C50.6396 11.4991 50.4436 10.89 50.0617 10.4357C49.6898 9.97109 49.1572 9.73876 48.4636 9.73876C47.7702 9.73876 47.2325 9.9659 46.8506 10.4202C46.4686 10.8745 46.2676 11.4888 46.2475 12.2631Z" fill="#222222"/>
<path d="M64.4218 5.36456V14.9365H65.7069V18.3389H64.3612V16.1009H56.2864V18.3389H54.9253V14.9365H55.8176C56.4424 14.0998 56.8304 12.9355 56.9816 11.4434C57.0422 10.7479 57.0776 10.0523 57.0875 9.35664L57.118 5.36456H64.4218ZM63.0302 6.52892H58.4032L58.3732 9.47762C58.3628 10.8386 58.2618 11.9576 58.0703 12.8346C57.8787 13.7016 57.607 14.4022 57.2539 14.9365H63.0302V6.52892ZM73.8227 8.46451V16.1009H72.5829V13.0615C72.5829 11.6199 72.6031 10.5412 72.6429 9.8254C72.4514 10.1783 72.0988 10.7327 71.5848 11.4888L70.7531 12.7137L68.5299 16.1009H67.1389V8.46451H68.364V11.9576C68.364 12.5927 68.3585 13.006 68.3487 13.1976L68.3182 14.7097C68.7214 14.0141 69.2912 13.1169 70.0273 12.0181L72.4164 8.46451H73.8227ZM80.7238 16.1009V15.0726C80.4514 15.4759 80.0885 15.7884 79.6345 16.0101C79.181 16.2219 78.6572 16.3277 78.0623 16.3277C77.2154 16.3277 76.5502 16.1362 76.0661 15.7531C75.5924 15.37 75.3556 14.8307 75.3556 14.1351V14.0594C75.3556 13.2933 75.6225 12.7137 76.1567 12.3205C76.7013 11.9173 77.5379 11.6854 78.667 11.6249L80.6632 11.4888V10.9747C80.6632 10.4303 80.5066 10.022 80.1944 9.74982C79.8817 9.46753 79.4282 9.32641 78.8334 9.32641C78.3395 9.32641 77.891 9.42725 77.4877 9.62884C77.0942 9.82038 76.691 10.143 76.2779 10.5967L75.4462 9.84057C76.3232 8.78206 77.4419 8.25278 78.8029 8.25278C79.7808 8.25278 80.542 8.48465 81.0866 8.94839C81.6307 9.41208 81.903 10.0573 81.903 10.8839V16.1009H80.7238ZM78.7576 12.5473C77.9712 12.5876 77.4168 12.7187 77.0942 12.9405C76.7717 13.1622 76.6102 13.5151 76.6102 13.999V14.0746C76.6102 14.4677 76.7564 14.7702 77.0489 14.9819C77.3513 15.1936 77.7747 15.2995 78.3194 15.2995C78.7527 15.2995 79.151 15.2137 79.5139 15.0424C79.8768 14.871 80.1589 14.6341 80.3609 14.3316C80.5622 14.0192 80.6632 13.6663 80.6632 13.2731V12.4566L78.7576 12.5473ZM82.8951 15.0424H83.6056C83.8878 14.7399 84.0995 14.2964 84.2408 13.7117C84.392 13.1169 84.4777 12.3104 84.4979 11.2922L84.5279 8.46451H90.2742V15.0424H91.3935V17.9911H90.1383V16.1009H84.135V17.9911H82.8951V15.0424ZM88.9738 9.52297H85.6924L85.6624 11.3678C85.6521 12.3255 85.5866 13.1018 85.4654 13.6966C85.3448 14.2913 85.1631 14.7399 84.9213 15.0424H88.9738V9.52297ZM99.8459 12.2903C99.8459 13.0766 99.6795 13.7722 99.3472 14.3771C99.0045 14.992 98.5302 15.4708 97.9256 15.8136C97.3209 16.1462 96.6301 16.3126 95.8541 16.3126C95.0677 16.3126 94.3768 16.1412 93.7826 15.7985C93.1675 15.4658 92.6884 14.997 92.3457 14.3922C92.0128 13.7873 91.8469 13.0867 91.8469 12.2903V12.2297C91.8469 11.4535 92.0183 10.768 92.361 10.1732C92.6933 9.56837 93.1621 9.09961 93.7673 8.76695C94.3719 8.42419 95.0677 8.25278 95.8541 8.25278C96.6301 8.25278 97.3209 8.41911 97.9256 8.75177C98.5302 9.08449 98.999 9.55326 99.3319 10.1581C99.6746 10.763 99.8459 11.4535 99.8459 12.2297V12.2903ZM93.1774 12.2903C93.1774 12.8749 93.2881 13.384 93.5103 13.8175C93.7318 14.2712 94.0445 14.619 94.4478 14.8609C94.8511 15.1028 95.3198 15.2238 95.8541 15.2238C96.3883 15.2238 96.8571 15.0978 97.2604 14.8458C97.6636 14.6038 97.9709 14.2611 98.1826 13.8175C98.4047 13.374 98.5155 12.8649 98.5155 12.2903V12.2297C98.5155 11.6552 98.4047 11.1511 98.1826 10.7176C97.9611 10.2841 97.6435 9.94639 97.2298 9.70447C96.8265 9.46251 96.3681 9.34152 95.8541 9.34152C95.34 9.34152 94.8811 9.45749 94.4778 9.68936C94.0745 9.93127 93.7569 10.274 93.525 10.7176C93.2936 11.1612 93.1774 11.6652 93.1774 12.2297V12.2903ZM103.838 12.7288H102.522V16.1009H101.222V8.46451H102.522V11.6703H103.853L106.363 8.46451H107.754L104.896 12.139L107.996 16.1009H106.514L103.838 12.7288Z" fill="#00BEA2"/>
</svg>
