<svg xmlns="http://www.w3.org/2000/svg" width="113" height="24" viewBox="0 0 113 24" fill="none"><rect width="113" height="24" fill="none"/>
<path d="M54.9001 19.0036H57.0907L59.9838 8.29886V19.0036H62.381V4.64108H59.0332L56.1193 15.4078L53.1849 4.64108H49.8577V19.0036H52.007V8.29886L54.9001 19.0036Z" fill="#000000"/>
<path d="M72.2188 11.9153C72.2188 9.39413 70.9376 8.44352 68.3338 8.44352C66.7012 8.44352 65.4199 8.96015 64.676 9.39413V11.44C65.3373 10.9441 66.7839 10.4067 68.0444 10.4067C69.2224 10.4067 69.7597 10.82 69.7597 11.936V12.5146H69.3671C65.6059 12.5146 63.932 13.7545 63.932 15.8624C63.932 17.9703 65.2133 19.1482 67.1145 19.1482C68.5611 19.1482 69.1811 18.6729 69.6563 18.1769H69.7597C69.7804 18.4456 69.863 18.7969 69.9457 19.0036H72.3429C72.2601 18.1563 72.2188 17.3089 72.2188 16.4617V11.9153ZM69.7597 16.5237C69.4497 16.9784 68.8711 17.3503 68.0031 17.3503C66.9699 17.3503 66.4532 16.7717 66.4532 15.8831C66.4532 14.7051 67.3005 14.2712 69.4084 14.2712H69.7597V16.5237Z" fill="#000000"/>
<path d="M76.4693 8.60884H74.1961V22H76.6553V17.7843C77.2752 18.7142 78.1842 19.2102 79.2387 19.2102C81.6356 19.2102 83.2886 17.2883 83.2886 13.7958C83.2886 10.324 81.6769 8.40219 79.3624 8.40219C78.2052 8.40219 77.2549 8.93949 76.5933 9.95213L76.4693 8.60884ZM78.6184 17.2676C77.3164 17.2676 76.6553 16.2137 76.6553 13.8165C76.6553 11.3986 77.3577 10.3447 78.7422 10.3447C80.0854 10.3447 80.7469 11.3986 80.7469 13.7958C80.7469 16.2137 80.0442 17.2676 78.6184 17.2676Z" fill="#000000"/>
<path d="M91.0285 19.0036H93.8185L89.8713 13.4859L93.343 8.60884H90.8635L87.3918 13.4859V8.60884H84.9326V19.0036H87.3918V13.9818L91.0285 19.0036Z" fill="#000000"/>
<path d="M102.091 18.3009V16.2964C101.327 16.813 100.045 17.2676 98.8465 17.2676C97.0487 17.2676 96.367 16.4204 96.2635 14.6845H102.194V13.3825C102.194 9.76613 100.603 8.40219 98.1437 8.40219C95.1475 8.40219 93.7218 10.696 93.7218 13.8372C93.7218 17.4536 95.4992 19.2102 98.6402 19.2102C100.211 19.2102 101.368 18.7969 102.091 18.3009ZM98.1025 10.3447C99.322 10.3447 99.6939 11.3573 99.6939 12.6592V12.8659H96.2635C96.3257 11.2127 96.925 10.3447 98.1025 10.3447Z" fill="#000000"/>
<path d="M110.943 10.5514V8.60884H102.698V10.5514H105.59V19.0036H108.05V10.5514H110.943Z" fill="#000000"/>
<path fill-rule="evenodd" clip-rule="evenodd" d="M11.8095 19.8819C16.2678 19.8819 19.8819 16.2678 19.8819 11.8096C19.8819 7.35125 16.2678 3.7371 11.8095 3.7371C7.35125 3.7371 3.7371 7.35125 3.7371 11.8096C3.7371 16.2678 7.35125 19.8819 11.8095 19.8819ZM11.8095 21.6191C17.2272 21.6191 21.619 17.2272 21.619 11.8096C21.619 6.39187 17.2272 2 11.8095 2C6.39187 2 2 6.39187 2 11.8096C2 17.2272 6.39187 21.6191 11.8095 21.6191Z" fill="#000000"/>
<path d="M13.074 7.80233H12.1778C10.6413 7.80233 9.87312 8.57055 9.87312 9.72286C9.87312 11.0032 10.3852 11.6434 11.5376 12.4117L12.4338 13.0518L9.87312 17.021H7.82452L10.2572 13.4359C8.84881 12.4117 8.0806 11.5153 8.0806 9.85088C8.0806 7.80233 9.48899 6.39393 12.1778 6.39393H14.8665V17.021H13.074V7.80233Z" fill="#000000"/>
<path fill-rule="evenodd" clip-rule="evenodd" d="M42.771 15.7436C41.255 19.2024 37.801 21.6191 33.7823 21.6191C30.4083 21.6191 27.4319 19.9155 25.6667 17.3221L29.0979 12.7908L28.4602 17.4259L32.0652 18.652L36.3493 11.6476C36.1424 12.9727 35.8012 15.9731 38.7245 16.8563C40.1482 17.2865 41.5125 16.775 42.771 15.7436ZM43.4098 9.91883C42.027 11.9887 40.6994 13.4423 39.9963 13.247C38.7693 12.9061 39.8752 8.93924 40.5884 6.38093L40.5995 6.34111L36.6106 4.99399L31.869 12.7908L32.5067 8.57277L28.9507 7.34659L24.1467 13.6592C24.0324 13.0602 23.9727 12.4418 23.9728 11.8096C23.9728 6.39153 28.3643 2 33.7823 2C38.5525 2 42.5285 5.40563 43.4098 9.91883Z" fill="#000000"/>
</svg>
