<svg xmlns="http://www.w3.org/2000/svg" width="24" height="24" viewBox="0 0 24 24" fill="none"><rect width="24" height="24" fill="none"/>
<path d="M20.8538 8.63443C20.7751 7.60374 19.9884 6.28232 19.2017 5.64803C18.317 4.99892 17.3978 4.39898 16.4481 3.85091C15.5057 3.28796 14.534 2.77628 13.5373 2.31807C13.0048 2.09918 12.4339 1.99129 11.859 2.00093C11.2838 1.98875 10.7123 2.09673 10.1806 2.31807C9.18402 2.7766 8.21236 3.28827 7.26976 3.85091C5.74877 4.7759 4.51623 5.64803 4.51623 5.64803C4.10781 5.9925 3.76189 6.39941 3.48881 6.85032C3.45749 6.90204 3.49528 6.9672 3.55573 6.9672H4.83393C4.86478 6.9672 4.89402 6.95358 4.91426 6.93029C5.06167 6.7607 5.22302 6.60207 5.39733 6.45629C5.39733 6.45629 6.48197 5.69516 7.82045 4.88788C8.64996 4.39685 9.50499 3.9503 10.382 3.55013C10.8499 3.35696 11.3528 3.26272 11.859 3.27335C12.3649 3.26494 12.8673 3.35909 13.3359 3.55013C14.213 3.95001 15.0681 4.39657 15.8974 4.88788C16.7331 5.36619 17.542 5.88978 18.3205 6.45629C19.0129 7.00983 19.7051 8.16305 19.7744 9.06259C19.7744 9.06259 19.9359 10.4004 19.959 11.9849C19.9576 12.9635 19.9037 13.9413 19.7975 14.9141C19.6365 15.9327 19.1118 16.8586 18.3205 17.5204C18.3205 17.5204 17.2359 18.3046 15.8974 19.1119C15.0679 19.6029 14.2129 20.0495 13.3359 20.4496C12.868 20.6428 12.3651 20.737 11.859 20.7264C11.3534 20.737 10.851 20.6452 10.382 20.4566C9.50487 20.0567 8.6498 19.6101 7.82045 19.1188C6.48197 18.3346 5.39733 17.5273 5.39733 17.5273C5.25649 17.4147 5.11561 17.2773 4.97981 17.1222C4.95957 17.099 4.93044 17.0855 4.89971 17.0855H3.61679C3.55556 17.0855 3.51788 17.1522 3.55053 17.204C3.83564 17.6564 4.17594 18.0593 4.51623 18.3336C4.51623 18.3336 5.74877 19.2586 7.26976 20.1572C8.2122 20.7201 9.18387 21.2318 10.1806 21.69C10.7136 21.9062 11.2845 22.0114 11.859 21.9992C12.4341 22.0114 13.0056 21.9034 13.5373 21.6821C14.5339 21.2235 15.5055 20.7119 16.4481 20.1493C17.9691 19.2242 19.2017 18.3257 19.2017 18.3257C20.1008 17.5673 20.697 16.5064 20.88 15.3393C21.0007 14.2246 21.062 13.1042 21.0636 11.9829C21.0373 10.1673 20.8538 8.63443 20.8538 8.63443Z" fill="url(#paint0_linear_2565_98)"/>
<path d="M2.93645 8.52318C2.93645 8.5058 2.9505 8.49171 2.96784 8.49171H4.74509C4.76728 8.49171 4.7823 8.51465 4.77368 8.53533L4.55359 9.06393C4.54777 9.0779 4.53448 9.08425 4.52186 9.083L4.51872 9.08315H3.60201V10.9833C3.60201 11.0007 3.58795 11.0147 3.57061 11.0147H2.96784C2.9505 11.0147 2.93645 11.0007 2.93645 10.9833V8.52318Z" fill="#0066B3"/>
<path d="M9.69148 10.419L9.87067 10.9145C9.87692 10.9307 9.86817 10.9493 9.85192 10.9562C9.6453 11.0382 9.21698 11.0836 8.99973 11.0836C8.13253 11.0836 7.74606 10.6701 7.74606 9.74323C7.74606 8.82935 8.13253 8.42213 8.99973 8.42213C9.26007 8.42213 9.54914 8.46691 9.79139 8.544C9.80073 8.5471 9.80823 8.55394 9.81198 8.56263C9.81573 8.57135 9.81573 8.58129 9.81136 8.59C9.7177 8.78273 9.63467 8.94001 9.56598 9.0687C9.55914 9.08238 9.54289 9.08923 9.52792 9.08485C9.34373 9.03138 9.19888 9.00901 9.04279 9.00901C8.49213 9.00901 8.43157 9.24714 8.43157 9.75255C8.43157 10.3848 8.62888 10.4961 9.04279 10.4961C9.23198 10.4961 9.50354 10.4526 9.64839 10.3991C9.65651 10.3966 9.66589 10.3966 9.67401 10.4004C9.68211 10.4041 9.68836 10.4109 9.69148 10.419Z" fill="#0066B3"/>
<path d="M6.11176 8.42213C5.26394 8.42213 4.93384 8.79248 4.93384 9.74311C4.93384 10.7082 5.26394 11.0836 6.11176 11.0836C6.96636 11.0836 7.29955 10.7082 7.29955 9.74311C7.29955 8.79248 6.96636 8.42213 6.11176 8.42213ZM6.11176 10.5297C5.72551 10.5297 5.60516 10.4228 5.60516 9.75255C5.60516 9.03895 5.7366 8.97545 6.11176 8.97545C6.49433 8.97545 6.62824 9.03895 6.62824 9.75255C6.62824 10.4228 6.50542 10.5297 6.11176 10.5297Z" fill="#0066B3"/>
<path d="M8.76547 14.6941H8.14518C8.12443 14.6941 8.10934 14.6739 8.115 14.6538C8.21872 14.3008 8.32681 13.9013 8.40159 13.4583C8.47825 13.0003 8.5185 12.5781 8.53547 12.2012C8.53609 12.1843 8.54991 12.171 8.56688 12.171H10.4103C10.4277 12.171 10.4418 12.1851 10.4418 12.2025V14.6626C10.4418 14.68 10.4277 14.6941 10.4103 14.6941H9.80629C9.78892 14.6941 9.77486 14.68 9.77486 14.6626V12.7625H9.16851C9.14623 13.0429 9.10863 13.3442 9.04704 13.6622C8.97538 14.0347 8.89054 14.3725 8.795 14.6727C8.79125 14.6852 8.77866 14.6941 8.76547 14.6941Z" fill="#EE2F53"/>
<path d="M13.7645 12.2025V14.6626C13.7645 14.68 13.7785 14.6941 13.7959 14.6941H14.4C14.4173 14.6941 14.4314 14.68 14.4314 14.6626V12.7625H15.35L15.3532 12.7623C15.3658 12.7636 15.3791 12.7572 15.385 12.7433L15.6055 12.2147C15.6142 12.1939 15.5991 12.171 15.5768 12.171H13.7959C13.7785 12.171 13.7645 12.1851 13.7645 12.2025Z" fill="#EE2F53"/>
<path d="M2.96789 12.171C2.94606 12.171 2.93089 12.1925 2.93839 12.2128L3.85611 14.6944C3.7266 14.9667 3.58272 15.2533 3.41817 15.5728C3.40741 15.5937 3.42241 15.6189 3.44598 15.6189H4.09884C4.11069 15.6189 4.12162 15.6121 4.12698 15.6016C4.61007 14.6186 4.96555 13.7471 5.45159 12.2126C5.45822 12.1923 5.44322 12.171 5.42181 12.171H4.81544C4.80137 12.171 4.78893 12.1806 4.78508 12.1941C4.59796 12.8501 4.42544 13.3636 4.22545 13.8585L3.60896 12.1914C3.60443 12.1792 3.59265 12.171 3.57946 12.171H2.96789Z" fill="#EE2F53"/>
<path d="M10.8784 12.171H11.49C11.5032 12.171 11.515 12.1792 11.5195 12.1914L12.136 13.8585C12.336 13.3636 12.5085 12.8501 12.6956 12.1941C12.6995 12.1806 12.7119 12.171 12.726 12.171H13.3323C13.3537 12.171 13.3687 12.1923 13.3621 12.2126C12.8761 13.7471 12.5206 14.6186 12.0375 15.6016C12.0321 15.6121 12.0212 15.6189 12.0094 15.6189H11.3565C11.333 15.6189 11.3179 15.5937 11.3287 15.5728C11.4932 15.2533 11.6371 14.9667 11.7666 14.6944L10.8489 12.2128C10.8414 12.1925 10.8566 12.171 10.8784 12.171Z" fill="#EE2F53"/>
<path d="M7.61505 14.0983L7.79424 14.5938C7.80046 14.61 7.79174 14.6286 7.77549 14.6355C7.56883 14.7175 7.14054 14.7629 6.92329 14.7629C6.05607 14.7629 5.66963 14.3495 5.66963 13.4226C5.66963 12.5087 6.05607 12.1015 6.92329 12.1015C7.18364 12.1015 7.4727 12.1462 7.71492 12.2233C7.7243 12.2264 7.7318 12.2333 7.73555 12.242C7.7393 12.2507 7.7393 12.2606 7.73492 12.2693C7.64127 12.4621 7.55824 12.6193 7.48955 12.748C7.48267 12.7617 7.46645 12.7685 7.45145 12.7642C7.2673 12.7107 7.12245 12.6883 6.96636 12.6883C6.41569 12.6883 6.35513 12.9264 6.35513 13.4319C6.35513 14.0641 6.55241 14.1754 6.96636 14.1754C7.15554 14.1754 7.42711 14.1319 7.57195 14.0784C7.58008 14.0759 7.58946 14.0759 7.59755 14.0797C7.60567 14.0834 7.61192 14.0903 7.61505 14.0983Z" fill="#EE2F53"/>
<path d="M18.0896 12.171C18.1072 12.171 18.121 12.1849 18.1204 12.2024V14.5184C18.1204 14.5322 18.1122 14.5448 18.099 14.5492C17.8192 14.6559 17.3476 14.7633 16.925 14.7633C16.2012 14.7633 15.9082 14.4468 15.8937 13.6389C15.8931 13.637 15.8931 12.2062 15.8931 12.2062V12.2024C15.8931 12.1849 15.9069 12.171 15.9245 12.171H16.5282C16.5458 12.171 16.5597 12.1849 16.5597 12.2024V13.6251C16.5735 14.0545 16.6798 14.1574 17.0457 14.1574C17.1929 14.1574 17.3237 14.1398 17.4545 14.1034V12.2024C17.4545 12.1849 17.4683 12.171 17.4859 12.171H18.0896Z" fill="#EE2F53"/>
<defs>
<linearGradient id="paint0_linear_2565_98" x1="11.839" y1="1.9272" x2="11.839" y2="21.973" gradientUnits="userSpaceOnUse">
<stop stop-color="#0F67B1"/>
<stop offset="0.4" stop-color="#0F67B1"/>
<stop offset="0.66" stop-color="#EE2F53"/>
<stop offset="1" stop-color="#EE2F53"/>
</linearGradient>
</defs>
</svg>
