<svg xmlns="http://www.w3.org/2000/svg" width="124" height="24" viewBox="0 0 124 24" fill="none"><rect width="124" height="24" fill="none"/>
<path d="M6.36012 2C6.36012 2 2 2 2 6.36012V17.6399C2 17.6399 2 22 6.36012 22H17.6399C17.6399 22 22 22 22 17.6399V6.36012C22 6.36012 22 2 17.6399 2H6.36012Z" fill="white"/>
<path fill-rule="evenodd" clip-rule="evenodd" d="M13.5745 8.8427L10.5334 7.78751C10.9216 7.25992 11.3872 6.85674 11.8679 6.60843L14.1021 5.46032L17.1278 6.48452L14.9869 7.57018C14.4748 7.81849 13.9777 8.26864 13.5745 8.8427ZM17.1278 9.78896L14.9869 10.8596C14.8094 10.9424 14.6426 11.0466 14.4903 11.1699C14.5213 10.9835 14.5368 10.8132 14.5368 10.6423V10.5339C14.5368 9.97532 14.3969 9.52517 14.1176 9.21491C14.2265 9.07502 14.3349 8.95111 14.4439 8.8427L17.1278 9.78896ZM17.1128 11.077L14.9709 12.1476C14.7077 12.2715 14.4593 12.3335 14.2415 12.318C14.4903 12.0232 14.7696 11.7904 15.0644 11.651L16.5847 10.8906L17.1128 11.077ZM14.5213 13.9318V13.8233C14.5213 13.6989 14.5058 13.575 14.4903 13.4506L17.0658 14.3819L14.9555 15.4521C14.6607 15.6075 14.3659 15.6539 14.1176 15.592C14.3789 15.0773 14.5171 14.5089 14.5213 13.9318ZM6.93368 16.9729L8.99708 15.9337C9.19942 15.8403 9.38528 15.7004 9.57163 15.53L9.81994 15.6229L9.8664 15.6384L9.88189 15.6234L12.2096 14.4593C12.38 14.3819 12.5508 14.273 12.7057 14.1491C12.6755 14.3233 12.66 14.4998 12.6592 14.6767V14.7851C12.6592 15.3127 12.7991 15.7628 13.0629 16.0731C12.7831 16.4298 12.4574 16.7091 12.1316 16.88L9.91337 17.9971L6.93368 16.9729ZM9.81994 18.7105L6.79428 17.6714V17.1278L9.81994 18.183V18.7105ZM6.79428 14.3664V13.8233L9.81994 14.894V15.4211L6.79428 14.3664ZM7.49224 13.4351L9.8664 14.2575L9.91287 14.2425L12.2251 13.0784C12.4884 12.9545 12.7367 12.8921 12.9545 12.9075C12.7057 13.2023 12.4264 13.4351 12.1316 13.575L9.88189 14.7231L6.91819 13.6989L7.49224 13.4351ZM6.79428 12.5353L9.81994 13.5905V14.0557L6.79428 13.0015V12.5353ZM8.99758 11.3408C9.21491 11.2318 9.43224 11.1544 9.63358 11.1234L12.5198 12.1321C12.3954 12.1786 12.2561 12.2251 12.1316 12.287L9.89738 13.4042L6.93418 12.365L8.99758 11.3408ZM6.80977 9.71152V9.24588L9.83543 10.2851V10.7667L6.80977 9.71152ZM12.7057 12.0077L9.72701 10.9685V10.9216L9.81994 10.9526L9.85092 10.9681L12.2091 9.78896C12.5198 9.63408 12.8146 9.58712 13.0784 9.64907C12.7986 10.2386 12.6592 10.8282 12.6592 11.3717V11.4802C12.6592 11.682 12.6747 11.8524 12.7057 12.0077ZM13.7764 10.8906C13.7764 11.2009 13.7144 11.5421 13.5745 11.8684C13.4661 11.682 13.4197 11.4337 13.4197 11.1544V11.0615C13.4197 10.7512 13.4816 10.4095 13.6215 10.0837C13.7299 10.2701 13.7764 10.5184 13.7764 10.7977V10.8906ZM13.4197 14.4439V14.3509C13.4197 14.0402 13.4816 13.6989 13.6215 13.3732C13.7299 13.5595 13.7764 13.8078 13.7764 14.0871V14.1801C13.7764 14.4903 13.7144 14.8316 13.5745 15.1573C13.4661 14.9714 13.4197 14.7226 13.4197 14.4439ZM8.99758 8.05131C9.49419 7.803 9.97532 7.75654 10.3475 7.91142L10.4095 7.94289L12.8146 8.78075C12.5697 8.8156 12.3331 8.8943 12.1162 9.01306L9.91287 10.1147L6.93418 9.09051L8.99758 8.05131ZM17.3761 7.19797V6.37561L14.0866 5.25847L11.7749 6.45305C11.2628 6.71684 10.7507 7.167 10.3475 7.72556C9.92836 7.57068 9.41625 7.63214 8.90465 7.89593L6.60793 9.06003V9.85091L9.54066 10.8751V10.9681C9.33881 10.9995 9.12148 11.077 8.90465 11.1854L6.60793 12.3495V13.1404L7.24444 13.3577L6.60793 13.637V14.4903L9.36979 15.4521C9.2299 15.5765 9.07502 15.6694 8.92014 15.7468L6.60793 16.9109V17.7798L9.81994 18.8969L9.8664 18.9124L9.89738 18.8969L12.2091 17.7328C12.7212 17.4695 13.2333 17.0194 13.637 16.4608C14.0557 16.6157 14.5678 16.5542 15.0799 16.2904L17.3606 15.1573V14.304L17.3141 14.289L14.4593 13.2648V13.2493C14.6698 13.2046 14.8732 13.1315 15.0639 13.0319L17.3606 11.8679V10.9835L17.3296 10.9685L16.802 10.7822L17.3606 10.5024V9.68055H17.3451L14.5678 8.70281C14.7226 8.56291 14.878 8.4545 15.0489 8.37706L17.3761 7.19797Z" fill="black"/>
<path d="M118.789 14.7541C117.656 14.7541 117.004 13.9317 117.004 12.6127V12.5198C117.004 11.1858 117.687 10.394 118.789 10.394C119.89 10.394 120.557 11.2008 120.557 12.5353V12.6282C120.557 13.9317 119.89 14.7541 118.789 14.7541ZM118.773 15.9182C120.666 15.9182 122.078 14.6142 122.078 12.6127V12.5198C122.078 10.5493 120.666 9.23035 118.789 9.23035C116.896 9.23035 115.484 10.5643 115.484 12.5508V12.6437C115.484 14.5987 116.88 15.9182 118.773 15.9182ZM113.482 15.7933H115.204L112.505 12.3334L115.003 9.35426H113.373L111.077 12.2095V9.35426H109.587V15.7778H111.077V12.6432L113.482 15.7933ZM104.948 14.7541C103.816 14.7541 103.164 13.9317 103.164 12.6127V12.5198C103.164 11.1858 103.847 10.394 104.948 10.394C106.05 10.394 106.717 11.2008 106.717 12.5353V12.6282C106.717 13.9317 106.05 14.7541 104.948 14.7541ZM104.933 15.9182C106.825 15.9182 108.238 14.6142 108.238 12.6127V12.5198C108.238 10.5493 106.825 9.23035 104.948 9.23035C103.055 9.23035 101.643 10.5643 101.643 12.5508V12.6437C101.643 14.5987 103.04 15.9182 104.933 15.9182ZM96.7867 13.2023C96.8646 12.3799 96.8956 11.2938 96.9266 10.4559H98.8196V15.7783H100.293V9.35426H95.6076C95.6076 9.35426 95.5766 11.8673 95.4682 12.9535C95.3748 13.9467 95.2044 14.5982 94.7078 14.5982C94.506 14.5982 94.413 14.5517 94.413 14.5517V15.7933C94.413 15.7933 94.5679 15.8862 94.9561 15.8862C96.1662 15.8862 96.6163 14.9559 96.7867 13.2023ZM90.4561 14.7541C89.3235 14.7541 88.672 13.9472 88.672 12.6592V12.5972C88.672 11.2633 89.3704 10.4874 90.5185 10.4874C91.6357 10.4874 92.2252 11.2628 92.2252 12.5663V12.6127C92.2252 13.9627 91.5737 14.7541 90.4561 14.7541ZM90.4561 15.9182C92.3336 15.9182 93.761 14.6611 93.761 12.6127V12.5353C93.761 10.6887 92.5665 9.32328 90.7823 9.32328C89.5718 9.32328 88.7964 9.89783 88.3617 10.7357H88.2998C88.4546 8.93558 89.1221 7.80296 90.9372 7.69454L91.263 7.66307C92.3336 7.60111 92.8148 7.50819 93.187 7.33732V6.18921C92.7993 6.3291 92.2097 6.37556 91.2785 6.42203L90.8908 6.43752C88.0824 6.57741 87.1671 8.70276 87.1671 11.5421V11.9922C87.1517 14.6921 88.4701 15.9182 90.4561 15.9182ZM82.9619 12.256H84.0016V15.7783H85.6308V6.99608H82.7606C80.8675 6.99608 79.4866 7.74051 79.4866 9.58708V9.63404C79.4866 11.0305 80.2935 11.7594 81.4106 11.9922L78.8041 15.7938H80.5882L82.9619 12.256ZM84.0016 8.2686V11.1079H82.776C81.6744 11.1079 81.1003 10.6582 81.1003 9.6805V9.63404C81.1003 8.59435 81.7209 8.2686 82.7606 8.2686H84.0016ZM70.5185 11.8993C70.6734 10.9061 71.263 10.3005 72.1633 10.3005C73.0786 10.3005 73.6526 10.7976 73.73 11.8993H70.5185ZM72.2252 15.9177C73.8699 15.9177 74.9716 15.1732 75.1729 13.8233H73.73C73.6216 14.4438 73.156 14.8005 72.2562 14.8005C71.1545 14.8005 70.534 14.1181 70.4876 12.892H75.1884V12.4574C75.1884 10.1611 73.7455 9.21486 72.1478 9.21486C70.3167 9.21486 68.9513 10.5488 68.9513 12.5353V12.6282C68.9667 14.6766 70.3322 15.9177 72.2252 15.9177ZM64.7775 14.7541C63.6449 14.7541 62.9934 13.9317 62.9934 12.6127V12.5198C62.9934 11.1858 63.6758 10.394 64.7775 10.394C65.8791 10.394 66.5461 11.2008 66.5461 12.5353V12.6282C66.5461 13.9317 65.8791 14.7541 64.7775 14.7541ZM64.762 15.9182C66.655 15.9182 68.0669 14.6142 68.0669 12.6127V12.5198C68.0669 10.5493 66.655 9.23035 64.7775 9.23035C62.8845 9.23035 61.4726 10.5643 61.4726 12.5508V12.6437C61.4571 14.5987 62.869 15.9182 64.762 15.9182ZM55.5147 9.35426V10.4559H57.4851V15.7783H58.9745V10.4719H60.945V9.35426H55.5147ZM51.6667 14.7546C50.534 14.7546 49.882 13.9322 49.882 12.6132V12.5203C49.882 11.1863 50.565 10.3944 51.6667 10.3944C52.7683 10.3944 53.4353 11.2013 53.4353 12.5358V12.6287C53.4353 13.9322 52.7683 14.7546 51.6667 14.7546ZM51.6512 15.9187C53.5442 15.9187 54.9561 14.6147 54.9561 12.6132V12.5203C54.9561 10.5498 53.5442 9.23085 51.6667 9.23085C49.7731 9.23085 48.3617 10.5648 48.3617 12.5513V12.6442C48.3617 14.5992 49.7581 15.9187 51.6512 15.9187ZM43.505 13.2028C43.5829 12.3804 43.6139 11.2943 43.6449 10.4564H45.5534V15.7788H47.0272V9.35426H42.3414C42.3414 9.35426 42.3104 11.8673 42.2015 12.9535C42.1086 13.9467 41.9382 14.5982 41.4416 14.5982C41.2397 14.5982 41.1468 14.5517 41.1468 14.5517V15.7933C41.1468 15.7933 41.3017 15.8862 41.6899 15.8862C42.8845 15.8862 43.3346 14.9564 43.505 13.2028ZM37.1899 14.7546C36.0577 14.7546 35.4062 13.9322 35.4062 12.6132V12.5203C35.4062 11.1863 36.0887 10.3944 37.1899 10.3944C38.292 10.3944 38.959 11.2013 38.959 12.5358V12.6287C38.959 13.9322 38.2915 14.7546 37.1899 14.7546ZM37.1749 15.9187C39.0674 15.9187 40.4793 14.6147 40.4793 12.6132V12.5203C40.4793 10.5498 39.0674 9.23085 37.1904 9.23085C35.2968 9.23085 33.8854 10.5648 33.8854 12.5513V12.6442C33.8854 14.5992 35.2823 15.9187 37.1749 15.9187ZM29.5098 15.9187C31.5113 15.9187 32.8922 14.8165 32.8922 13.2183C32.8922 12.1171 32.2562 11.4187 31.0926 11.2323C32.0698 10.9685 32.551 10.2081 32.551 9.27732C32.551 7.84992 31.3564 6.88817 29.6032 6.88817C27.7722 6.88817 26.6081 7.83443 26.3907 9.61905H27.927C28.1134 8.67228 28.5476 8.19116 29.5408 8.19116C30.4101 8.19116 30.9217 8.64131 30.9217 9.40172C30.9217 10.2086 30.534 10.7047 29.5253 10.7047H28.5476V11.8373H29.5408C30.7509 11.8373 31.2165 12.2255 31.2165 13.1253C31.2165 14.0406 30.6424 14.5992 29.5253 14.5992C28.2683 14.5992 27.8341 13.8857 27.6942 12.939H26.1274C26.3293 14.7236 27.4774 15.9187 29.5098 15.9187Z" fill="white"/>
</svg>
