<svg xmlns="http://www.w3.org/2000/svg" width="75" height="24" viewBox="0 0 75 24" fill="none"><rect width="75" height="24" fill="none"/>
<path fill-rule="evenodd" clip-rule="evenodd" d="M19.6366 11.0399H10.8331V14.26H15.1167C15.1561 14.6539 15.1758 14.8705 15.1758 14.9099C15.1758 16.2688 14.9001 17.1551 14.3486 17.5687C13.8168 17.9823 12.6745 18.1891 10.9217 18.1891C9.72032 18.1891 8.82419 18.0906 8.23338 17.8937C7.64254 17.6967 7.24865 17.3521 7.0517 16.8597C6.77597 16.2492 6.63811 14.5259 6.63811 11.6898C6.63811 9.26735 6.78582 7.76071 7.08124 7.16987C7.33727 6.65781 7.76071 6.3033 8.35155 6.10635C8.94239 5.90941 9.87787 5.81093 11.1581 5.81093C12.7534 5.81093 13.7676 5.94879 14.2009 6.22452C14.6539 6.50024 14.9296 7.15017 15.0281 8.1743H19.6366C19.5972 6.69719 19.42 5.5549 19.1049 4.74741C18.7897 3.93993 18.2875 3.33925 17.5983 2.94535C16.9286 2.57115 16.1999 2.32496 15.4121 2.2068C14.6243 2.06893 13.354 2 11.6012 2C9.11961 2 7.40621 2.12802 6.46086 2.38405C4.4323 2.95519 3.13245 4.16642 2.5613 6.01773C2.1871 7.16002 2 9.76955 2 13.8464C2 16.0522 2.26588 17.7263 2.79764 18.8685C3.34909 19.9912 4.2649 20.8282 5.54505 21.3796C6.54948 21.7932 8.31216 22 10.8331 22C13.1571 22 14.8311 21.8917 15.8552 21.675C16.8794 21.4387 17.6967 21.0054 18.3072 20.3752C18.839 19.8041 19.2034 19.1344 19.4003 18.3663C19.5972 17.5983 19.6957 16.4559 19.6957 14.9394C19.6957 13.9547 19.676 12.6548 19.6366 11.0399ZM26.789 17.9232V2.14771H22.2395V21.8523H35.5039V17.9232H26.789ZM50.0968 18.2777H42.3273L41.2342 21.8523H36.5075L42.7408 2.14771H49.5651L55.8871 21.8523H51.2194L50.0968 18.2777ZM72.9587 5.95864V2.14771H57.6264V5.98819H67.1387V6.1359L57.0946 17.9823V21.8523H73.0181V18.0118H62.8258V17.8641L72.9587 5.95864ZM41.0323 11.0323C41.092 8.2966 42.9539 6.27058 46.1725 6.27058C49.391 6.27058 51.2948 8.28448 51.3548 11.0323C51.416 13.8369 49.391 16.0068 46.1725 16.0068C42.9539 16.0068 40.9713 13.825 41.0323 11.0323ZM42.9539 11.1387C42.9539 12.9302 44.3957 14.3841 46.1725 14.3841C47.9491 14.3841 49.391 12.9302 49.391 11.1387C49.391 9.34723 47.9491 7.89328 46.1725 7.89328C44.3957 7.89328 42.9539 9.34723 42.9539 11.1387ZM44.2413 11.1387C44.2413 10.0612 45.1039 9.19142 46.1725 9.19142C47.241 9.19142 48.1036 10.0612 48.1036 11.1387C48.1036 12.2162 47.241 13.0859 46.1725 13.0859C45.1039 13.0859 44.2413 12.2162 44.2413 11.1387Z" fill="#000000"/>
</svg>
