<svg xmlns="http://www.w3.org/2000/svg" width="63" height="24" viewBox="0 0 63 24" fill="none"><rect width="63" height="24" fill="none"/>
<path d="M7.21842 15.9996V13.731L11.6694 7.83235H16.1204L10.7719 14.8925L16.1204 21.9527H11.706L7.21842 15.9996Z" fill="white"/>
<path d="M18.5761 21.9527V18.4135H22.0609C23.026 18.4135 23.8302 18.0687 24.5093 17.379C24.691 17.1945 24.8484 16.9995 24.9815 16.7945C25.3458 16.2334 25.5279 15.5971 25.5279 14.8925C25.5279 14.2799 25.3953 13.7312 25.13 13.2329C24.9708 12.934 24.7639 12.6533 24.5093 12.3879C23.8302 11.6982 23.0081 11.3534 22.0609 11.3534H18.5761V7.83235H22.0609C23.0081 7.83235 23.9017 8.01384 24.7595 8.395C25.6172 8.77613 26.35 9.26615 26.9755 9.9014C27.6011 10.5366 28.0834 11.2808 28.4588 12.1519C28.8341 13.0231 29.0127 13.9306 29.0127 14.8925C29.0127 15.8544 28.8341 16.7619 28.4588 17.6331C28.0834 18.5043 27.6011 19.2484 26.9755 19.8836C26.35 20.5189 25.6172 21.0089 24.7595 21.39C23.9017 21.7712 23.0081 21.9527 22.0609 21.9527H18.5761Z" fill="white"/>
<path d="M50.2965 8.79427C51.3619 8.15905 52.4983 7.83235 53.7233 7.83235C54.9485 7.83235 56.0847 8.15905 57.1501 8.79427C58.2153 9.4295 59.0499 10.3007 59.6889 11.3897C60.3104 12.4786 60.63 13.6402 60.63 14.8925C60.63 16.1448 60.3104 17.3064 59.6889 18.3954C59.0675 19.4844 58.2153 20.3374 57.1501 20.9908C56.0847 21.6441 54.9485 21.9527 53.7233 21.9527C52.4983 21.9527 51.3619 21.626 50.2965 20.9908C49.2313 20.3555 48.3967 19.4844 47.7577 18.3954C47.1362 17.3064 46.8166 16.1448 46.8166 14.8925C46.8166 13.6402 47.1362 12.4786 47.7577 11.3897C48.3967 10.3007 49.2313 9.4295 50.2965 8.79427ZM56.1557 12.406C55.4811 11.7164 54.6644 11.3534 53.7233 11.3534C52.7822 11.3534 51.9655 11.6982 51.2909 12.406C50.6161 13.0957 50.261 13.9306 50.261 14.8925C50.261 15.8544 50.5985 16.6712 51.2909 17.379C51.9655 18.0687 52.7822 18.4135 53.7233 18.4135C54.6644 18.4135 55.4633 18.0687 56.1557 17.379C56.8305 16.6893 57.1677 15.8544 57.1677 14.8925C57.1856 13.9306 56.8305 13.0957 56.1557 12.406Z" fill="white"/>
<path fill-rule="evenodd" clip-rule="evenodd" d="M37.9476 21.9527C40.9628 21.9527 43.5364 20.0626 44.5485 17.4026C44.8808 16.5778 45.0395 15.7199 45.0395 14.8136C45.0395 13.8516 44.8606 12.9442 44.4855 12.073C44.1102 11.2018 43.6276 10.4577 43.0022 9.82246C42.3766 9.18723 41.6439 8.69718 40.7861 8.31605C39.9282 7.93492 39.0346 7.75343 38.0874 7.75343L31.3149 7.75345V7.83237H31.1943V21.9527H31.3149V22H34.8766V21.9527H37.9476ZM34.8766 18.3346H38.0874C39.0525 18.3346 39.8567 17.9898 40.5358 17.3001C41.215 16.6104 41.5546 15.7755 41.5546 14.8136C41.5546 13.8335 41.215 13.0168 40.5358 12.309C39.8567 11.6193 39.0346 11.2744 38.0874 11.2744H34.8766V18.3346Z" fill="white"/>
<path d="M5.68357 21.9527V7.83235H2V21.9527H5.68357Z" fill="#7856FF"/>
<path d="M3.99527 5.3766C4.9277 5.3766 5.68357 4.62072 5.68357 3.6883C5.68357 2.75588 4.9277 2 3.99527 2H3.6883C2.75588 2 2 2.75588 2 3.6883C2 4.62072 2.75588 5.3766 3.6883 5.3766H3.99527Z" fill="#7856FF"/>
<path d="M18.7123 13.2329V16.7945H24.9815C25.3458 16.2334 25.5279 15.5971 25.5279 14.8925C25.5279 14.2799 25.3953 13.7312 25.13 13.2329H18.7123Z" fill="#7856FF"/>
</svg>
