<svg width="24" height="24" fill="none" xmlns="http://www.w3.org/2000/svg"><path d="M22 12.009c0 5.463-4.389 9.902-9.836 9.99C6.55 22.089 1.926 17.48 2 11.872a9.992 9.992 0 0 1 5.814-8.94h.001c.088-.002.169.006.239.02l.07-.02s-.083.124-.054.11c.11-.055.19-.015.225.013.057.045.23.046.215.042-.02-.006-.123.085-.22.11-.075.018-.11.164-.22.329a.737.737 0 0 1-.148.136c-3.086 1.508-5.346 4.71-5.346 8.373 0 5.124 4.321 9.442 9.45 9.442 5.128 0 9.395-4.318 9.395-9.442 0-5.124-4.211-9.341-9.34-9.341-.04 0-.234-.102-.274-.102h-.165c-.032 0-.165-.11-.165-.11-.034 0 .13.075.11.047-.022-.03-.253-.156-.22-.156.165 0 .165-.11.055-.165-.098-.049.302.184.302.129 0-.055-.005-.128.052-.147.058-.018-.134-.092-.19-.092-.011 0 .108.002.166-.055l.005-.005a.162.162 0 0 1 .147-.045.49.49 0 0 0 .096.014C17.523 2.017 22 6.49 22 12.008z" fill="url(#a)"/><path d="M9.2 10.81h.418s.1.605.582.604c.481 0 4.602.164 4.602.164H9.985s-.671-.055-.784-.769z" fill="url(#b)"/><path d="M4.088 11.468s-.385-.22-.385-.549c0-.33 0-.539.385-.68.385-.143 4.176-1.296 5-1.296.824 0 2.198-.11 3.132.11.934.22 1.703.658 1.977.768.275.11.22.33 1.154.33.934 0 1.923.164 2.473.274a5.17 5.17 0 0 1 1.428.549c.275.165.88.604.934.823h-.553s-.71-.658-.985-.768c-.275-.11-.66-.44-1.484-.55a17.308 17.308 0 0 0-2.197-.164c-.605 0-1.978-.055-1.978-.055s-.811.018-.983-.21c-.171-.23.049-.449.214-.449.164 0 .384.275.549.33.165.055.55.22.88.165-.55-.385-.77-.44-.77-.44s-.768-.378-1.4-.409c-.633-.03-2.171 0-2.171 0s-1.704.19-1.759.3c-.054.11-.106.242.387.313.493.07 1.265.084 1.265.084s-.278.085-1.185.063c-.906-.022-3.873-.131-3.928 1.461z" fill="url(#c)"/><path d="M7.989 11.633a1.84 1.84 0 0 0-1.456-.714c-.692 0-1.087.124-1.401.714.251-.708.657-.934 1.374-.934.769 0 1.186.371 1.483.934z" fill="url(#d)"/><path d="M18.538 11.633a1.84 1.84 0 0 0-1.456-.714c-.692 0-1.087.124-1.401.714.251-.708.656-.934 1.374-.934.769 0 1.186.371 1.483.934z" fill="#EDE3C7"/><path d="m7.275 10.15 6.648.44H8.47s.232.604-.042.878c-.165-.659.054-.823-1.154-1.318z" fill="url(#e)"/><path d="M5.385 14.282c.066.162.15.223.291.223v.067a6.47 6.47 0 0 0-.62 0v-.067c.14 0 .17-.058.102-.223l-.168-.415h-.745l-.162.415c-.067.165-.039.223.101.223v.067a5.915 5.915 0 0 0-.505 0v-.067c.143 0 .23-.06.293-.223l.635-1.628h.116l.661 1.628zm-1.106-.506h.673l-.341-.846-.332.846zm2.466-.226h-.067c.004-.185-.108-.29-.31-.29-.17 0-.275.073-.275.198 0 .106.087.197.26.272l.072.028c.044.018.072.032.088.039l.079.042a.388.388 0 0 1 .085.06c.034.04.09.097.109.17.01.034.014.073.014.114a.351.351 0 0 1-.144.297c-.097.074-.23.11-.398.11a.631.631 0 0 1-.33-.072 2.42 2.42 0 0 1-.024-.339h.068a.277.277 0 0 0 .08.214c.059.06.144.091.258.091.189 0 .31-.098.31-.25a.179.179 0 0 0-.062-.144 1.297 1.297 0 0 0-.242-.13 1.08 1.08 0 0 1-.293-.184.331.331 0 0 1-.1-.25c0-.116.044-.207.13-.273a.563.563 0 0 1 .35-.1c.101 0 .21.018.33.053.012.115.016.229.012.345v-.001zm.28.947c.162 0 .226-.068.226-.258v-.703c0-.096-.017-.154-.062-.177a.185.185 0 0 0-.058-.02 2.483 2.483 0 0 0-.077-.007v-.066a.978.978 0 0 0 .4-.084v1.057c0 .188.063.258.229.258v.075c-.22-.007-.44-.007-.658 0v-.075zm.308-1.613a.151.151 0 0 1-.108-.039.125.125 0 0 1-.043-.1c0-.09.065-.152.152-.152.08 0 .156.057.156.146a.132.132 0 0 1-.044.105.162.162 0 0 1-.112.04zm1.765 1.529c-.062.114-.147.17-.253.17a.234.234 0 0 1-.222-.182v-.005c-.147.122-.283.182-.406.182a.4.4 0 0 1-.262-.096.311.311 0 0 1-.115-.252c0-.17.116-.282.347-.34.089-.023.178-.039.302-.05l.115-.011v-.149a.806.806 0 0 0-.035-.265c-.03-.092-.103-.146-.216-.146a.382.382 0 0 0-.136.024c-.042.017-.062.033-.061.047 0 .011.08.044.075.138 0 .084-.042.128-.127.133-.062.005-.108-.014-.138-.052a.202.202 0 0 1-.045-.127c0-.091.053-.16.158-.204a.787.787 0 0 1 .315-.068c.127 0 .232.037.314.112.082.075.123.18.123.311v.66c0 .228.081.276.246.148l.022.022zm-.494-.092v-.417a13.77 13.77 0 0 0-.362.083c-.123.042-.185.118-.185.226 0 .064.023.119.07.163a.247.247 0 0 0 .176.066.45.45 0 0 0 .302-.122zm2.465-.038c.066.162.15.223.291.223v.066c-.21-.01-.417-.01-.62 0v-.066c.14 0 .17-.058.102-.223l-.168-.415h-.745l-.163.415c-.066.165-.038.223.102.223v.066a5.999 5.999 0 0 0-.505 0v-.066c.142 0 .23-.061.292-.223l.636-1.628h.116l.66 1.628h.002zm-1.106-.507h.673l-.342-.846-.33.846zm1.63.722c.162 0 .224-.068.224-.259v-1.485c0-.096-.017-.154-.062-.177a.188.188 0 0 0-.058-.02l-.076-.007v-.066a.955.955 0 0 0 .417-.083v1.838c0 .188.061.259.227.259v.075a7.617 7.617 0 0 0-.673 0v-.075zm.979 0c.162 0 .225-.068.225-.259v-1.485c0-.096-.017-.154-.062-.177a.189.189 0 0 0-.058-.02l-.077-.007v-.066a.956.956 0 0 0 .418-.083v1.838c0 .188.06.259.226.259v.075a7.617 7.617 0 0 0-.672 0v-.075zm.911 0c.163 0 .227-.068.227-.259v-.703c0-.096-.018-.154-.063-.176a.186.186 0 0 0-.058-.02c-.015-.002-.041-.005-.076-.007v-.067a.974.974 0 0 0 .4-.083v1.056c0 .188.063.259.228.259v.075c-.219-.007-.439-.007-.658 0v-.075zm.309-1.614a.151.151 0 0 1-.109-.038.124.124 0 0 1-.042-.1c0-.09.065-.152.152-.152.08 0 .155.056.155.145 0 .044-.014.08-.044.105a.162.162 0 0 1-.112.04zm1.765 1.53c-.062.114-.148.17-.254.17a.233.233 0 0 1-.222-.182v-.005c-.147.121-.282.182-.405.182a.4.4 0 0 1-.263-.096.311.311 0 0 1-.114-.252c0-.17.116-.283.346-.341.09-.023.179-.039.303-.05l.115-.011v-.148a.807.807 0 0 0-.035-.266c-.03-.092-.104-.145-.217-.145a.382.382 0 0 0-.136.024c-.042.017-.062.032-.06.046 0 .012.08.044.075.139 0 .083-.043.127-.128.133-.062.004-.107-.015-.137-.053a.203.203 0 0 1-.045-.127c0-.09.052-.159.157-.204a.787.787 0 0 1 .315-.068c.128 0 .232.037.315.112.082.076.123.18.123.312v.66c0 .228.08.276.246.147l.021.023zm-.494-.092v-.418c-.24.054-.361.082-.362.084-.123.042-.185.117-.185.226 0 .063.022.118.069.162a.247.247 0 0 0 .177.067.45.45 0 0 0 .301-.122zm1.946-.082c0 .188.062.258.228.258v.075a10.172 10.172 0 0 0-.658 0v-.075c.162 0 .226-.068.226-.258v-.501a1.496 1.496 0 0 0-.02-.222.663.663 0 0 0-.032-.078c-.044-.083-.116-.106-.246-.114a.492.492 0 0 0-.432.226v.689c0 .188.064.258.229.258v.075a10.172 10.172 0 0 0-.658 0v-.075c.162 0 .226-.068.226-.258v-.703c0-.096-.018-.154-.064-.177a.185.185 0 0 0-.058-.02 2.463 2.463 0 0 0-.076-.007v-.066a.978.978 0 0 0 .4-.083v.257c.16-.185.346-.279.554-.277a.368.368 0 0 1 .295.107c.04.037.058.115.071.163a.482.482 0 0 1 .014.099l.003.098c0 .026 0 .061-.002.106l-.001.1v.403zm1.718.085c-.133.18-.324.268-.572.268a.815.815 0 0 1-.543-.182.621.621 0 0 1-.218-.503c0-.226.078-.408.233-.548.155-.14.34-.209.552-.209.18 0 .347.045.504.137.017.132.023.283.017.454h-.066c0-.174-.044-.3-.13-.38a.475.475 0 0 0-.34-.12c-.173 0-.304.054-.39.165a.673.673 0 0 0-.132.429.68.68 0 0 0 .143.447c.095.114.236.172.428.172.19 0 .34-.064.461-.191l.052.06zm1.483-.075a.558.558 0 0 1-.233.244.7.7 0 0 1-.354.091.612.612 0 0 1-.473-.197.703.703 0 0 1-.182-.498c0-.2.064-.377.191-.518a.628.628 0 0 1 .484-.211c.148 0 .269.041.364.125a.475.475 0 0 1 .159.338l-.971.22c.004.163.05.3.139.412a.447.447 0 0 0 .37.169.7.7 0 0 0 .265-.054.385.385 0 0 0 .194-.162l.049.042-.002-.002zm-.889-.845a.682.682 0 0 0-.127.346l.742-.165a.486.486 0 0 0-.108-.238.277.277 0 0 0-.22-.1.336.336 0 0 0-.287.158z" fill="url(#f)"/><path d="M5.104 15.802c3.639-.005 9.248-.042 12.826-.01 0 .006.867 0 .855.015l-.855.01c-3.552.027-9.228.007-12.826-.015z" fill="#EDDCAE"/><defs><linearGradient id="a" x1="2" y1="12" x2="22" y2="12" gradientUnits="userSpaceOnUse"><stop stop-color="#EDE3C7"/><stop offset=".2" stop-color="#B07B39"/><stop offset=".5" stop-color="#EDE3C7"/><stop offset=".74" stop-color="#B07B39"/><stop offset=".96" stop-color="#EDE3C7"/></linearGradient><linearGradient id="b" x1="2" y1="12" x2="22" y2="12" gradientUnits="userSpaceOnUse"><stop stop-color="#EDE3C7"/><stop offset=".98" stop-color="#B07B39"/></linearGradient><linearGradient id="c" x1="2" y1="12" x2="22" y2="12" gradientUnits="userSpaceOnUse"><stop stop-color="#B07B39"/><stop offset=".26" stop-color="#EDE3C7"/><stop offset=".57" stop-color="#B07B39"/><stop offset=".8" stop-color="#EDE3C7"/><stop offset="1" stop-color="#B07B39"/></linearGradient><linearGradient id="d" x1="2" y1="12" x2="26.181" y2="12" gradientUnits="userSpaceOnUse"><stop stop-color="#EDE3C7"/><stop offset="1" stop-color="#B07B39"/></linearGradient><linearGradient id="e" x1="2" y1="12" x2="22" y2="12" gradientUnits="userSpaceOnUse"><stop stop-color="#EDE3C7"/><stop offset=".98" stop-color="#B07B39"/></linearGradient><linearGradient id="f" x1="2.001" y1="11.985" x2="21.999" y2="11.985" gradientUnits="userSpaceOnUse"><stop stop-color="#B07B39"/><stop offset=".26" stop-color="#EDE3C7"/><stop offset=".57" stop-color="#B07B39"/><stop offset=".8" stop-color="#EDE3C7"/><stop offset="1" stop-color="#B07B39"/></linearGradient></defs></svg>