<svg xmlns="http://www.w3.org/2000/svg" width="24" height="24" viewBox="0 0 24 24" fill="none"><rect width="24" height="24" fill="none"/>
<path d="M18.959 2H16.0893V3.1976L16.1098 16.8902C16.1098 17.0898 16.0893 17.2695 16.0893 17.4291C16.0688 17.5689 16.0483 17.7285 16.0483 17.8483C15.9253 18.6866 15.6589 19.0259 15.0644 19.1457C15.0234 19.1657 14.9209 19.1657 14.9209 19.1657C14.8799 19.1657 14.8184 19.1856 14.757 19.1856C14.716 19.1856 14.4085 19.1856 14.4085 19.1856H12.0512C12.0512 19.1856 13.4041 19.006 13.4041 18.3074V2H10.5344V19.1856H6.51684C6.51684 19.1856 7.86969 19.1856 7.86969 18.3074V2H5V22H14.8389C14.9209 22 14.9824 22 15.0644 22C17.9751 21.8603 18.7335 19.8643 18.9385 17.6687C18.959 17.3892 18.9795 17.0898 19 16.7904L18.959 2Z" fill="white"/>
</svg>
