<svg xmlns="http://www.w3.org/2000/svg" width="24" height="24" viewBox="0 0 24 24" fill="none"><rect width="24" height="24" fill="none"/>
<path fill-rule="evenodd" clip-rule="evenodd" d="M7.952 2H16.05C19.33 2 22 4.67 22 7.95V16.05C22 19.33 19.33 22 16.05 22H7.952C4.668 22 2 19.33 2 16.05V7.95C2 4.67 4.668 2 7.952 2ZM18.3061 14.5479L18.3141 14.4579H19.7241V15.0939C19.7241 16.1419 19.6061 16.7799 19.3141 17.2939C18.9861 17.8719 18.3441 18.2339 17.6421 18.2339C16.9661 18.2339 16.3381 17.9039 15.9201 17.3279C15.6601 16.9739 15.4441 16.4979 15.2281 15.7999C14.7161 16.5059 14.1741 17.0499 13.5821 17.4419C12.6621 18.0479 11.6701 18.3579 10.6321 18.3579C8.85011 18.3579 7.49011 17.7819 6.35011 16.5459C5.26011 15.3639 4.70611 13.7939 4.70611 11.8839C4.70611 10.1679 5.28811 8.62392 6.39211 7.42192C7.50011 6.21192 8.90211 5.59992 10.5601 5.59992C11.7621 5.59992 12.7561 5.98592 13.6021 6.78192C14.0881 7.23792 14.5241 7.88992 14.7981 8.47392C14.8051 8.48892 14.8121 8.50442 14.8191 8.51992C14.8261 8.53542 14.8331 8.55092 14.8401 8.56592C15.1141 7.26592 15.4181 5.83592 15.4181 5.83592H18.7001C18.7001 5.83592 16.9701 11.9339 16.4101 13.8359C16.6081 14.3819 16.8041 14.6819 17.0201 14.9339C17.2021 15.1439 17.4241 15.2459 17.7001 15.2459C18.0601 15.2459 18.2781 14.8939 18.3061 14.5479ZM12.8101 15.6759C12.3121 16.4059 11.6641 16.7899 10.9301 16.7899C10.0781 16.7899 9.43211 16.4079 8.95811 15.6179C8.46011 14.7919 8.20811 13.5519 8.20811 11.9339C8.20811 10.4499 8.47411 9.27192 9.00211 8.42992C9.49811 7.63992 10.1181 7.27192 10.9541 7.27192C11.7001 7.27192 12.2801 7.57992 12.7861 8.24792C13.3281 8.96392 13.7861 10.1459 14.1141 11.6639C13.7021 13.7199 13.3001 14.9619 12.8101 15.6759Z" fill="#D72031"/>
</svg>
