<svg xmlns="http://www.w3.org/2000/svg" width="62" height="24" viewBox="0 0 62 24" fill="none"><rect width="62" height="24" fill="none"/>
<path fill-rule="evenodd" clip-rule="evenodd" d="M10.6745 9.44352C10.6745 10.517 11.5455 11.3867 12.6191 11.3867C13.693 11.3867 14.563 10.517 14.563 9.44352C14.563 8.37091 13.693 7.50116 12.6191 7.50116C11.5455 7.50116 10.6745 8.37091 10.6745 9.44352ZM13.7893 2.48126L22.7736 11.4656C23.4154 12.1072 23.4154 13.1476 22.7736 13.7893L14.563 22V15.3359C15.8763 15.0396 17.1117 14.444 18.1666 13.5889C18.2066 13.5565 18.2467 13.5241 18.2868 13.4906C18.6061 13.2233 18.8087 12.8228 18.8087 12.3742C18.8087 11.5696 18.1571 10.9185 17.3525 10.9185C16.995 10.9185 16.6671 11.0482 16.413 11.263C15.3539 12.148 14.0098 12.6369 12.6264 12.6369C11.2371 12.6369 9.88749 12.1457 8.82922 11.2512C8.57772 11.0439 8.25458 10.9185 7.90241 10.9185C7.09794 10.9185 6.44618 11.5696 6.44618 12.3742C6.44618 12.8141 6.64226 13.2082 6.95083 13.4755L7.08513 13.5889C8.13649 14.441 9.3675 15.0353 10.6745 15.3322V21.9826L2.48126 13.7893C1.83958 13.1476 1.83958 12.1072 2.48126 11.4656L11.4656 2.48126C12.1072 1.83958 13.1476 1.83958 13.7893 2.48126ZM33.4701 5.3274V11.0651H32.1815V6.36672H30.5588L30.4528 8.36594C30.3857 9.32759 30.2009 10.0177 29.8986 10.4368C29.5964 10.8557 29.1342 11.0651 28.512 11.0651H28.1142L28.109 9.99392L28.3742 9.9673C28.657 9.92852 28.8627 9.75622 28.9919 9.45038C29.1209 9.14466 29.2031 8.58699 29.2384 7.77727L29.3446 5.3274H33.4701ZM38.4229 5.3274H39.7062V11.0651H38.4229V7.23647L36.1746 11.0651H34.8912V5.3274H36.1746V9.15605L38.4229 5.3274ZM45.937 11.0651H44.6484V8.74777H42.4159V11.0651H41.1273V5.32738H42.4159V7.71897H44.6484V5.32738H45.937V11.0651ZM50.8899 5.3274H52.1731V11.0651H50.8899V7.23647L48.6414 11.0651H47.3582V5.3274H48.6414V9.15605L50.8899 5.3274ZM54.9013 7.78001C55.0799 7.93029 55.3088 8.00533 55.5881 8.00533H56.8555V6.35094H55.6676C55.3529 6.35094 55.102 6.43036 54.9146 6.58941C54.7271 6.74868 54.6336 6.95002 54.6336 7.19408C54.6336 7.43441 54.7228 7.62983 54.9013 7.78001ZM58.1388 5.3274V11.0651H56.8555V8.95986H55.6518L54.4268 11.0651H53.0905L54.4428 8.74779C54.0892 8.59926 53.8178 8.38719 53.6287 8.11136C53.4396 7.83565 53.345 7.5193 53.345 7.1622C53.345 6.62841 53.5509 6.19102 53.9628 5.8498C54.3746 5.50858 54.9305 5.33452 55.6306 5.3274H58.1388ZM33.5516 17.8502H32.8675V20.157H31.5789V17.8502H30.9002L29.5798 20.157H27.9994L29.9032 17.1714L28.1002 14.4193H29.6752L30.9744 16.6729H31.5789V14.4193H32.8675V16.6729H33.4773L34.7817 14.4193H36.3567L34.559 17.1555L36.4735 20.157H34.872L33.5516 17.8502ZM40.8536 14.4192H42.1368V20.1569H40.8536V16.3283L38.6051 20.1569H37.3219V14.4192H38.6051V18.2479L40.8536 14.4192ZM47.6226 16.6915C47.4687 16.9055 47.2523 17.076 46.9729 17.2032C47.6305 17.4331 47.9594 17.8766 47.9594 18.5342C47.9594 19.061 47.7454 19.4808 47.3176 19.7936C46.8898 20.1066 46.3172 20.263 45.5995 20.263C45.1612 20.263 44.7617 20.1896 44.4011 20.0429C44.0405 19.8962 43.7595 19.6877 43.5579 19.4172C43.3565 19.1467 43.2557 18.8258 43.2557 18.4547H44.539C44.539 18.688 44.6431 18.8834 44.8519 19.0406C45.0604 19.198 45.3238 19.2767 45.6419 19.2767C45.9566 19.2767 46.2067 19.2033 46.3923 19.0566C46.5778 18.9099 46.6707 18.7181 46.6707 18.4812C46.6707 18.202 46.5893 18.0004 46.4268 17.8766C46.2641 17.753 46.0132 17.6911 45.6738 17.6911H44.7511V16.7631H45.7057C46.2817 16.7561 46.57 16.5192 46.57 16.0525C46.57 15.8192 46.4868 15.6372 46.3208 15.5064C46.1545 15.3755 45.9265 15.3101 45.6367 15.3101C45.3538 15.3101 45.1152 15.3799 44.9207 15.5196C44.7263 15.6592 44.6291 15.8351 44.6291 16.0472H43.3459C43.3459 15.5417 43.5579 15.1272 43.9822 14.8037C44.4064 14.4802 44.9455 14.3186 45.5995 14.3186C46.3101 14.3186 46.8634 14.4635 47.2593 14.7533C47.6552 15.0433 47.8532 15.4552 47.8532 15.9889C47.8532 16.2434 47.7763 16.4777 47.6226 16.6915ZM53.9143 20.1569H52.6258V17.8396H50.3932V20.1569H49.1047V14.4192H50.3932V16.8108H52.6258V14.4192H53.9143V20.1569ZM58.8671 14.4192H60.1505V20.1569H58.8671V16.3283L56.6188 20.1569H55.3355V14.4192H56.6188V18.2479L58.8671 14.4192Z" fill="white"/>
</svg>
