<svg xmlns="http://www.w3.org/2000/svg" width="127" height="24" viewBox="0 0 127 24" fill="none"><rect width="127" height="24" fill="none"/>
<path d="M95.918 17.8401C98.1566 17.8401 99.9416 17.48 101.683 16.6925V13.4359C101.683 13.3719 101.616 13.3322 101.557 13.3627C99.7544 14.3058 98.1044 14.7148 95.918 14.7148C93.2716 14.7148 91.9165 13.4543 91.9165 11.0249C91.9165 8.59544 93.2751 7.33494 95.918 7.33494C98.1073 7.33494 99.7544 7.74392 101.557 8.687C101.616 8.71752 101.683 8.67784 101.683 8.61375V5.35722C99.9416 4.56979 98.1566 4.20965 95.918 4.20965C91.1251 4.20965 88.3687 6.68486 88.3687 11.0279C88.3687 15.3709 91.1251 17.8462 95.918 17.8462V17.8401Z" fill="#FF5500"/>
<path d="M86.7587 11.2445C86.7587 6.36125 83.7537 4.22482 79.433 4.22482C74.7322 4.22482 71.8836 6.78854 71.8836 10.9759C71.8836 16.1308 75.0944 17.84 79.7522 17.84C82.5794 17.84 84.818 17.3883 86.3537 16.7839V13.6617C86.3537 13.5977 86.2865 13.5579 86.2315 13.5854C85.118 14.1379 82.5851 14.8032 79.798 14.8032C77.3508 14.8032 75.8087 14.0127 75.4651 12.0808H86.5751C86.6451 12.0808 86.7037 12.0289 86.7158 11.9617C86.7494 11.7267 86.7651 11.4795 86.7651 11.2476L86.7587 11.2445ZM79.433 7.14868C81.6223 7.14868 82.8308 8.12533 83.2787 9.55673H75.5265C75.9065 8.01241 77.0872 7.14868 79.4301 7.14868" fill="#FF5500"/>
<path d="M63.8524 4.20058C61.4913 4.20058 59.8814 5.11925 58.8787 6.48046C58.8542 6.51403 58.799 6.49877 58.799 6.45604L58.7438 4.56073H55.3769V22.0001H58.8358V15.6213C58.8358 15.5786 58.8879 15.5603 58.9155 15.5969C59.9182 16.9367 61.5189 17.8402 63.8555 17.8402C67.8572 17.8402 70.344 14.9834 70.344 11.0219C70.344 7.06035 67.8572 4.20363 63.8555 4.20363M62.816 14.7118C60.4855 14.7118 58.8358 13.2499 58.8358 11.0219C58.8358 8.79391 60.4855 7.33198 62.816 7.33198C65.3243 7.33198 66.7042 8.74812 66.7042 11.0219C66.7042 13.2957 65.3243 14.7118 62.816 14.7118Z" fill="#FF5500"/>
<path d="M44.3624 17.5012H47.8213V7.692H53.6076V4.56365H38.573V7.692H44.3624V17.5012Z" fill="#0A1E78"/>
<path d="M26.0433 11.7329V4.5606H22.563V17.7088C22.563 17.895 22.7745 18.0018 22.9248 17.892L33.369 10.3167V17.5012H36.8493V4.35306C36.8493 4.16689 36.6378 4.06007 36.4875 4.16994L26.0433 11.7299V11.7329Z" fill="#0A1E78"/>
<path d="M3.67426 17.657C2.70834 17.657 2 17.6142 2 17.6142V14.5042H2.56115C3.2143 14.5042 3.70799 14.3486 4.03303 14.0372C4.36114 13.7259 4.60338 13.2193 4.75977 12.5143C4.91615 11.8123 5.03881 10.7563 5.12774 9.3493C5.186 8.3574 5.24733 6.76729 5.30559 4.57593C5.32093 3.89532 5.34239 3.03464 5.37305 2H19.3252V17.5013H15.4861V4.97574H8.96382C8.94849 5.18328 8.91169 6.00428 8.85343 7.44179C8.82277 8.44897 8.79517 9.08685 8.7645 9.35237C8.62958 11.501 8.42107 13.143 8.13896 14.2814C7.85684 15.4229 7.37235 16.2683 6.68854 16.8237C6.00473 17.3792 4.99895 17.657 3.67732 17.657H3.67426Z" fill="#0A1E78"/>
<path d="M109.481 4.55145C109.383 4.55145 109.355 4.61249 109.426 4.67963C109.806 5.06114 110.045 5.58609 110.045 6.16598C110.045 6.74586 109.809 7.27082 109.429 7.64927C109.355 7.72252 109.38 7.78051 109.518 7.78051H117.69C118.153 7.39595 118.45 6.81301 118.45 6.16293C118.45 5.51284 118.153 4.93295 117.69 4.54535H109.484L109.481 4.55145Z" fill="#0A1E78"/>
<path d="M109.481 9.41058C109.383 9.41058 109.355 9.47158 109.426 9.53873C109.806 9.92023 110.045 10.4452 110.045 11.0251C110.045 11.6049 109.809 12.1299 109.429 12.5084C109.355 12.5817 109.38 12.6396 109.518 12.6396H114.504C114.967 12.2551 115.264 11.6721 115.264 11.022C115.264 10.3719 114.967 9.79208 114.504 9.40444H109.484L109.481 9.41058Z" fill="#0A1E78"/>
<path d="M109.481 14.269C109.377 14.269 109.352 14.327 109.429 14.4003C109.809 14.7818 110.045 15.3037 110.045 15.8866C110.045 16.4696 109.809 16.9915 109.429 17.37C109.355 17.4432 109.379 17.5012 109.517 17.5012H111.32C111.784 17.1166 112.081 16.5337 112.081 15.8836C112.081 15.2335 111.784 14.6536 111.32 14.266H109.484L109.481 14.269Z" fill="#0A1E78"/>
<path d="M124.267 4.55163H122.074C122.537 4.93923 122.834 5.51607 122.834 6.16921C122.834 6.82234 122.537 7.39918 122.074 7.78679H124.267C124.729 7.40223 125.027 6.82234 125.027 6.16921C125.027 5.51607 124.729 4.93923 124.267 4.55163Z" fill="#FF5500"/>
<path d="M122.072 4.55163H119.879C120.342 4.93923 120.639 5.51607 120.639 6.16921C120.639 6.82234 120.342 7.39918 119.879 7.78679H122.072C122.534 7.40223 122.832 6.82234 122.832 6.16921C122.832 5.51607 122.534 4.93923 122.072 4.55163Z" fill="#6262D9"/>
<path d="M124.267 9.41037H118.889C119.352 9.79801 119.649 10.3748 119.649 11.0279C119.649 11.6811 119.352 12.2579 118.889 12.6455H124.267C124.73 12.261 125.027 11.6811 125.027 11.0279C125.027 10.3748 124.73 9.79801 124.267 9.41037Z" fill="#FF5500"/>
<path d="M118.889 9.41037H116.696C117.159 9.79801 117.457 10.3748 117.457 11.0279C117.457 11.6811 117.159 12.2579 116.696 12.6455H118.889C119.352 12.261 119.649 11.6811 119.649 11.0279C119.649 10.3748 119.352 9.79801 118.889 9.41037Z" fill="#6262D9"/>
<path d="M119.879 4.55163H117.687C118.149 4.93923 118.447 5.51607 118.447 6.16921C118.447 6.82234 118.149 7.39918 117.687 7.78679H119.879C120.342 7.40223 120.639 6.82234 120.639 6.16921C120.639 5.51607 120.342 4.93923 119.879 4.55163Z" fill="#3D3DC7"/>
<path d="M116.693 9.41037H114.501C114.964 9.79801 115.262 10.3748 115.262 11.0279C115.262 11.6811 114.964 12.2579 114.501 12.6455H116.693C117.157 12.261 117.454 11.6811 117.454 11.0279C117.454 10.3748 117.157 9.79801 116.693 9.41037Z" fill="#3D3DC7"/>
<path d="M124.267 14.2692H115.706C116.169 14.6567 116.466 15.2336 116.466 15.8867C116.466 16.5399 116.169 17.1167 115.706 17.5043H124.267C124.73 17.1197 125.027 16.5399 125.027 15.8867C125.027 15.2336 124.73 14.6567 124.267 14.2692Z" fill="#FF5500"/>
<path d="M115.703 14.2692H113.51C113.973 14.6567 114.271 15.2336 114.271 15.8867C114.271 16.5399 113.973 17.1167 113.51 17.5043H115.703C116.166 17.1197 116.463 16.5399 116.463 15.8867C116.463 15.2336 116.166 14.6567 115.703 14.2692Z" fill="#6262D9"/>
<path d="M113.51 14.2692H111.318C111.781 14.6567 112.079 15.2336 112.079 15.8867C112.079 16.5399 111.781 17.1167 111.318 17.5043H113.51C113.974 17.1197 114.271 16.5399 114.271 15.8867C114.271 15.2336 113.973 14.6567 113.51 14.2692Z" fill="#3D3DC7"/>
</svg>
