<svg xmlns="http://www.w3.org/2000/svg" width="24" height="24" viewBox="0 0 24 24" fill="none"><rect width="24" height="24" fill="none"/>
<path d="M5.09753 15.8957C5.09753 17.542 7.57583 17.526 7.57583 15.8957C7.57583 14.2654 5.09753 14.2333 5.09753 15.8957Z" fill="#000000"/>
<path d="M4.13618 5.93062C4.059 5.94082 3.9809 5.92174 3.91721 5.87716C3.85353 5.83258 3.80936 5.76577 3.79263 5.69001C3.77636 5.61424 3.78891 5.53507 3.82842 5.46823C3.86794 5.40139 3.93116 5.35178 4.00554 5.32925C4.38442 5.24639 4.76749 5.1838 5.15288 5.14175C5.54059 5.10061 5.93063 5.08 6.32066 5.08002C7.74553 5.07941 9.15646 5.35858 10.4725 5.90155C11.7891 6.44452 12.9848 7.24066 13.9922 8.24444C14.9996 9.24827 15.7987 10.44 16.3436 11.7517C16.8884 13.0633 17.1687 14.4691 17.1678 15.8887C17.1678 16.1752 17.1567 16.461 17.1334 16.7461C17.113 17.0274 17.0786 17.3109 17.0325 17.599C17.0153 17.6755 16.9688 17.7425 16.9038 17.7864C16.8387 17.8303 16.7587 17.8477 16.6811 17.8352C16.6034 17.8227 16.5332 17.7811 16.4854 17.719C16.437 17.6569 16.4147 17.5788 16.4221 17.5007C16.4635 17.2423 16.4956 16.9748 16.5165 16.6981C16.537 16.4214 16.5486 16.163 16.5486 15.8887C16.5486 14.5506 16.2845 13.2256 15.7708 11.9893C15.2571 10.753 14.5045 9.62966 13.5552 8.68329C12.6059 7.73693 11.4786 6.98619 10.2382 6.47386C8.99793 5.96153 7.66837 5.69769 6.32531 5.69739C5.95666 5.69771 5.58847 5.71679 5.22168 5.75455C4.85675 5.79372 4.4946 5.8525 4.13618 5.93062ZM4.13618 9.13181C4.05854 9.15668 3.97393 9.14971 3.90095 9.11238C3.82842 9.0751 3.77357 9.01052 3.74846 8.93289C3.72336 8.85525 3.73033 8.77097 3.76799 8.69849C3.80518 8.62602 3.87026 8.57135 3.9479 8.54648C4.71589 8.29734 5.51781 8.16932 6.32531 8.1669C8.38057 8.1669 10.3517 8.98045 11.8049 10.4286C13.2581 11.8767 14.0749 13.8407 14.0749 15.8887V16.1379C14.0661 16.215 14.0289 16.286 13.9699 16.3369C13.9113 16.3877 13.8355 16.4147 13.7574 16.4124C13.6798 16.4101 13.6059 16.3787 13.5501 16.3244C13.4943 16.2702 13.4613 16.197 13.4576 16.1196C13.4576 16.0396 13.4576 15.9664 13.4576 15.8909C13.4576 14.9576 13.2735 14.0333 12.915 13.171C12.5566 12.3086 12.0313 11.5251 11.3693 10.8651C10.7068 10.2051 9.92073 9.68168 9.05512 9.3246C8.1895 8.96757 7.26206 8.78399 6.32531 8.78427C5.95294 8.78417 5.58057 8.81248 5.21238 8.86887C4.84605 8.92605 4.48484 9.01169 4.13153 9.12498L4.13618 9.13181ZM4.25798 12.4474C4.22311 12.4722 4.18359 12.4896 4.14129 12.4984C4.09945 12.5072 4.05621 12.5072 4.01438 12.4985C3.97254 12.4898 3.93256 12.4725 3.89769 12.4477C3.86282 12.423 3.83354 12.3913 3.81169 12.3546C3.78984 12.318 3.77543 12.2772 3.77031 12.2349C3.76474 12.1925 3.76845 12.1495 3.78054 12.1086C3.79263 12.0676 3.81354 12.0297 3.84097 11.9971C3.8684 11.9645 3.9028 11.9379 3.94139 11.9192C4.66242 11.4866 5.48852 11.2588 6.32996 11.2606C7.37642 11.2614 8.39172 11.6134 9.21271 12.2597C10.0337 12.906 10.6125 13.809 10.8551 14.8231C10.8672 14.9 10.85 14.9787 10.8063 15.0433C10.7631 15.108 10.6966 15.1539 10.6204 15.1718C10.5446 15.1897 10.4646 15.1784 10.3968 15.14C10.3284 15.1016 10.2778 15.0391 10.2541 14.9649C10.1276 14.44 9.89655 13.9457 9.57439 13.5116C9.25269 13.0774 8.84638 12.7123 8.37964 12.4377C7.91336 12.1632 7.39594 11.9849 6.859 11.9135C6.32206 11.8421 5.77629 11.879 5.25376 12.022C4.90323 12.1166 4.56666 12.2574 4.25333 12.4405L4.25798 12.4474ZM4.12688 2.79802C4.08597 2.80738 4.0432 2.80822 4.00136 2.80047C3.95998 2.79272 3.92 2.77656 3.88514 2.75296C3.84981 2.72938 3.82006 2.69887 3.79728 2.66332C3.7745 2.62778 3.75916 2.58794 3.75265 2.5463C3.74567 2.50464 3.74753 2.46205 3.75823 2.42116C3.76845 2.38026 3.78705 2.34192 3.81308 2.30851C3.83865 2.27511 3.87119 2.24733 3.90838 2.22691C3.94557 2.20649 3.98648 2.19386 4.02832 2.18979C4.4072 2.12576 4.79027 2.07774 5.17566 2.04802C5.56151 2.01829 5.9469 2 6.32299 2C8.67112 2.00028 10.9807 2.59122 13.0382 3.71803C15.0958 4.84484 16.8345 6.47104 18.0929 8.44588C19.3518 10.4207 20.0896 12.6802 20.2384 15.015C20.3871 17.3498 19.9422 19.6841 18.9441 21.8017C18.9288 21.8413 18.9055 21.8774 18.8758 21.9076C18.846 21.9378 18.8102 21.9616 18.7707 21.9775C18.7312 21.9933 18.6889 22.001 18.6466 21.9999C18.6043 21.9987 18.5625 21.9889 18.5239 21.9709C18.4853 21.953 18.4509 21.9273 18.4225 21.8956C18.3946 21.8638 18.3733 21.8266 18.3602 21.7862C18.3472 21.7459 18.3426 21.7034 18.3468 21.6611C18.3505 21.619 18.3635 21.5781 18.3844 21.5411C19.3388 19.5172 19.7656 17.2859 19.6243 15.0541C19.4825 12.8222 18.7777 10.6621 17.575 8.77399C16.3724 6.88591 14.7109 5.33103 12.744 4.25357C10.7775 3.17611 8.56978 2.61096 6.32531 2.61051C5.95155 2.61051 5.58197 2.62652 5.21703 2.65625C4.8521 2.68597 4.47833 2.73171 4.12269 2.79115L4.12688 2.79802Z" fill="#000000"/>
</svg>
