<svg xmlns="http://www.w3.org/2000/svg" width="24" height="24" viewBox="0 0 24 24" fill="none"><rect width="24" height="24" fill="none"/>
<path fill-rule="evenodd" clip-rule="evenodd" d="M7.34038 1.11407C7.00693 1.20792 6.99994 1.22081 7.04927 1.64963C7.12301 2.28935 8.12195 4.21021 8.72149 4.86509C9.04755 5.22127 9.28275 5.59906 9.40005 5.95525C9.49871 6.25504 9.75781 6.85373 9.97579 7.28563L10.3721 8.07094L10.2699 8.79014C10.1446 9.67148 10.0021 10.3215 9.80349 10.9184C9.68731 11.2674 9.5768 11.4048 9.3256 11.5131C8.95143 11.6742 8.72747 12.1789 8.84791 12.5894C8.90524 12.7848 8.82745 13.0174 8.50939 13.6022L8.09642 14.3614L7.17244 14.395C6.36048 14.4247 6.19629 14.4625 5.81776 14.7078C5.25194 15.0745 5.00297 15.61 5.00003 16.4671C4.99557 17.7714 5.46729 18.9363 6.59457 20.4042C6.89986 20.8019 7.13273 21.1363 7.11197 21.1475C7.0912 21.1587 6.85306 21.2769 6.58262 21.4101C6.31217 21.5434 6.01812 21.7609 5.92928 21.8937C5.72721 22.1955 5.7186 22.786 5.91449 22.9073C6.35633 23.1809 7.59574 22.835 8.97918 22.0522L9.76997 21.6047L10.417 21.8579C11.5749 22.3112 12.6072 22.2921 13.7971 21.7954L14.24 21.6106L14.9113 21.9865C16.0326 22.6143 16.8623 22.9367 17.4723 22.9816C17.9833 23.0192 18.058 23 18.1653 22.8039C18.4462 22.2904 18.0335 21.6256 17.2423 21.3169C17.0538 21.2434 16.8864 21.1743 16.8704 21.1635C16.8543 21.1526 17.1353 20.7623 17.4947 20.296C18.5668 18.9053 19.0083 17.7798 18.9999 16.4592C18.9931 15.3966 18.5354 14.7234 17.6414 14.4613C17.3394 14.3728 17.2622 14.3083 17.3156 14.1888C17.9703 12.7234 18.3814 10.7368 18.4037 8.93097C18.4218 7.46442 18.3119 7.32626 17.7914 8.16132C17.4879 8.64803 16.2459 10.2427 15.4176 11.209C15.0622 11.6236 15.0394 11.6339 14.7426 11.5135C14.4714 11.4036 14.4114 11.3002 14.23 10.6295C13.7382 8.81085 13.6931 7.95905 14.0519 7.26512C14.1848 7.00804 14.3897 6.49279 14.5071 6.12016C14.673 5.59381 14.8427 5.31077 15.2676 4.85122C16.0978 3.95372 17.1884 1.67441 16.9605 1.31347C16.8442 1.12953 16.3419 1 15.7444 1C14.9387 1 14.0821 1.42516 13.4171 2.15517L12.9189 2.70203H12.0164H11.1139L10.4108 2.01622C9.89911 1.51703 9.57204 1.28552 9.20871 1.16521C8.66356 0.984738 7.87631 0.963232 7.34038 1.11407ZM8.76606 2.57567C9.58369 3.30934 9.5922 3.33412 9.25905 4.00853L8.97705 4.57947L8.66447 4.10288C8.25565 3.47941 7.66472 2.31463 7.57325 1.9522L7.50093 1.66569L7.83529 1.8531C8.01924 1.95626 8.43808 2.28143 8.76606 2.57567ZM16.3554 2.18024C16.0875 2.86961 15.28 4.29296 15.0321 4.51258C14.8265 4.69463 14.8231 4.69374 14.8231 4.45777C14.8231 4.32586 14.7303 4.04867 14.617 3.84164L14.4109 3.46533L14.7089 3.09983C15.1889 2.51115 16.2108 1.69373 16.4669 1.69373C16.5094 1.69373 16.4593 1.91266 16.3554 2.18024ZM13.0855 3.20162C13.6506 3.34135 14.1579 3.8121 14.3224 4.34945C14.7254 5.66527 13.0502 8.92839 11.9718 8.92839C11.5176 8.92839 10.931 8.30056 10.3459 7.18821C9.38455 5.36042 9.30504 4.2993 10.0781 3.61389C10.7177 3.04691 11.8382 2.8933 13.0855 3.20162ZM10.6195 4.80157C10.3204 5.24823 10.7794 5.70639 11.234 5.41493C11.535 5.22207 11.5625 4.81594 11.2846 4.67035C10.979 4.5104 10.7895 4.54776 10.6195 4.80157ZM12.6193 4.68244C12.2666 5.02752 12.6349 5.65407 13.1047 5.50818C13.3404 5.43494 13.4767 4.99898 13.3337 4.7754C13.2059 4.57541 12.7847 4.5206 12.6193 4.68244ZM11.344 8.00483C11.2673 8.07986 11.7693 8.63108 11.9143 8.63108C12.0888 8.63108 12.5947 8.22078 12.5947 8.07926C12.5947 7.97233 12.449 7.93734 12.0039 7.93734C11.6788 7.93734 11.3819 7.96767 11.344 8.00483ZM13.5686 9.43234C13.6583 9.94551 13.8102 10.6133 13.9062 10.9161L14.0806 11.4669L13.6827 11.9056C13.4638 12.1469 13.0953 12.7338 12.8637 13.2098L12.4428 14.0753L12.0091 14.0786C11.6814 14.0811 11.5627 14.0394 11.5236 13.9084C11.383 13.4376 10.7127 12.2587 10.372 11.8831L9.98795 11.4596L10.1807 10.9126C10.3449 10.4466 10.6701 8.91392 10.6701 8.6066C10.6701 8.55288 10.8638 8.68103 11.1006 8.89153C11.3375 9.10193 11.5207 9.34126 11.5079 9.42332C11.4953 9.50538 11.536 9.77653 11.5985 10.0258C11.6887 10.3855 11.6774 10.7124 11.5437 11.61C11.3812 12.7004 11.3819 12.7498 11.5646 12.9902C11.8203 13.3267 12.0983 13.3473 12.3829 13.0509L12.6194 12.8045L12.4473 11.6407C12.3081 10.6998 12.2979 10.3973 12.394 10.0614C12.4595 9.83282 12.496 9.56247 12.4754 9.46059C12.45 9.33601 12.5646 9.18468 12.8248 8.99876C13.0377 8.84663 13.2382 8.65516 13.2703 8.5733C13.3615 8.3408 13.3942 8.43485 13.5686 9.43234ZM17.9566 9.79368C17.8607 10.9616 17.5043 12.5663 17.1364 13.4872C16.866 14.1641 16.8828 14.1476 16.3931 14.2232L15.988 14.2857L15.6334 13.6284C15.3382 13.081 15.2848 12.8891 15.314 12.4801C15.3465 12.0249 15.4257 11.8958 16.4004 10.708C16.9786 10.0035 17.5735 9.24701 17.7223 9.027C17.8711 8.80709 18.0052 8.6392 18.0204 8.65407C18.0356 8.66894 18.0069 9.18171 17.9566 9.79368ZM10.2003 12.3783C10.8827 13.2879 11.3047 14.3792 10.974 14.3792C10.9183 14.3792 10.8727 14.3311 10.8727 14.2723C10.8727 14.2136 10.5081 13.8298 10.0624 13.4196C9.37412 12.7862 9.25206 12.6256 9.25206 12.3538C9.25206 11.9748 9.31081 11.9015 9.61479 11.9015C9.76976 11.9015 9.95685 12.0539 10.2003 12.3783ZM14.8029 12.3052C14.8312 12.6359 14.7727 12.7155 13.9169 13.5103C13.4129 13.9784 12.9735 14.3186 12.9406 14.2664C12.8617 14.1416 13.4952 12.8596 13.9039 12.3166C14.1651 11.9697 14.2771 11.8952 14.4991 11.9202C14.7323 11.9465 14.7769 12.0032 14.8029 12.3052ZM9.90367 13.9149C10.4382 14.3779 10.5689 14.5482 10.5689 14.782V15.0729H9.69055C8.39847 15.0729 8.44173 14.9985 8.44173 17.219C8.44173 18.905 8.45641 19.0515 8.64431 19.2353C8.83808 19.4249 8.98192 19.4335 11.9644 19.4335C14.622 19.4335 15.1151 19.4107 15.307 19.2792C15.5261 19.1292 15.5322 19.0748 15.5322 17.2629C15.5322 15.0131 15.5774 15.0954 14.3147 15.0525C13.158 15.0131 13.1349 14.8834 14.1198 13.9572L14.855 13.2658L15.0295 13.4922C15.2725 13.8074 15.985 15.2295 16.1691 15.7666C17.0001 18.192 15.6763 20.7956 13.194 21.6176C10.3331 22.5649 7.19077 19.8023 7.63534 16.7306C7.68477 16.389 7.79599 15.9134 7.88239 15.6738C8.09348 15.0884 9.07693 13.2809 9.16687 13.313C9.20628 13.3271 9.53791 13.5979 9.90367 13.9149ZM12.5947 14.5795C12.5947 14.6352 12.7072 14.7309 12.8448 14.7922C13.2817 14.987 13.0172 15.0729 11.981 15.0729C10.9724 15.0729 10.7082 14.9686 11.2273 14.7756C11.3665 14.7238 11.4805 14.6356 11.4805 14.5799C11.4805 14.5228 11.7247 14.4783 12.0376 14.4783C12.3493 14.4783 12.5947 14.5229 12.5947 14.5795ZM7.63949 14.9589C7.41392 15.3714 7.12493 16.6975 7.12493 17.3206C7.12493 18.7059 7.86933 20.2445 8.94079 21.0741L9.3412 21.3841L8.10645 21.9969C6.80141 22.6445 6.19933 22.7908 6.13288 22.4761C6.07038 22.1803 6.37679 21.8453 6.96925 21.5617C7.27768 21.414 7.5301 21.2473 7.5301 21.1912C7.5301 21.135 7.37755 20.9062 7.19118 20.6825C6.5031 19.8571 5.72741 18.4609 5.5624 17.7512C5.25681 16.4367 5.40682 15.4902 5.98327 15.0953C6.38115 14.8227 6.4954 14.7922 7.1538 14.7834C7.69369 14.7762 7.73187 14.7901 7.63949 14.9589ZM17.7589 14.959C18.4839 15.3395 18.7201 16.0049 18.5519 17.193C18.3951 18.2998 17.791 19.5023 16.7596 20.7603C16.5859 20.9722 16.4438 21.1828 16.4438 21.2283C16.4438 21.2738 16.6672 21.405 16.9403 21.52C18.0512 21.9875 18.295 22.8776 17.2365 22.6013C16.8159 22.4915 15.2559 21.7509 14.8821 21.4834C14.7159 21.3646 14.7306 21.3335 15.0724 21.0785C15.5637 20.7118 16.2898 19.7226 16.5678 19.0412C16.7572 18.5771 16.7918 18.3003 16.7916 17.2532C16.7914 16.1443 16.7638 15.9495 16.5281 15.395L16.2647 14.7756H16.837C17.2004 14.7756 17.5368 14.8425 17.7589 14.959Z" fill="#4C4D4E"/>
<path d="M8.76606 2.57567C9.58369 3.30934 9.5922 3.33412 9.25905 4.00853L8.97705 4.57947L8.66447 4.10288C8.25565 3.47941 7.66472 2.31463 7.57325 1.9522L7.50093 1.66569L7.83529 1.8531C8.01924 1.95626 8.43808 2.28143 8.76606 2.57567Z" fill="#00AEEF"/>
<path d="M16.3554 2.18024C16.0875 2.86961 15.28 4.29296 15.0321 4.51258C14.8265 4.69463 14.8231 4.69374 14.8231 4.45777C14.8231 4.32586 14.7303 4.04867 14.617 3.84164L14.4109 3.46533L14.7089 3.09983C15.1889 2.51115 16.2108 1.69373 16.4669 1.69373C16.5094 1.69373 16.4593 1.91266 16.3554 2.18024Z" fill="#00AEEF"/>
<path d="M17.9566 9.79368C17.8607 10.9616 17.5043 12.5663 17.1364 13.4872C16.866 14.1641 16.8828 14.1476 16.3931 14.2232L15.988 14.2857L15.6334 13.6284C15.3382 13.081 15.2848 12.8891 15.314 12.4801C15.3465 12.0249 15.4257 11.8958 16.4004 10.708C16.9786 10.0035 17.5735 9.24701 17.7223 9.027C17.8711 8.80709 18.0052 8.6392 18.0204 8.65407C18.0356 8.66894 18.0069 9.18171 17.9566 9.79368Z" fill="#00AEEF"/>
<path fill-rule="evenodd" clip-rule="evenodd" d="M13.0855 3.20162C13.6506 3.34135 14.1579 3.8121 14.3224 4.34945C14.7254 5.66527 13.0502 8.92839 11.9718 8.92839C11.5176 8.92839 10.931 8.30056 10.3459 7.18821C9.38455 5.36042 9.30504 4.2993 10.0781 3.61389C10.7177 3.04691 11.8382 2.8933 13.0855 3.20162ZM11.234 5.41493C10.7794 5.70639 10.3204 5.24823 10.6195 4.80157C10.7895 4.54776 10.979 4.5104 11.2846 4.67035C11.5625 4.81594 11.535 5.22207 11.234 5.41493ZM13.1047 5.50818C12.6349 5.65407 12.2666 5.02752 12.6193 4.68244C12.7847 4.5206 13.2059 4.57541 13.3337 4.7754C13.4767 4.99898 13.3404 5.43494 13.1047 5.50818ZM11.9143 8.63108C11.7693 8.63108 11.2673 8.07986 11.344 8.00483C11.3819 7.96767 11.6788 7.93734 12.0039 7.93734C12.449 7.93734 12.5947 7.97233 12.5947 8.07926C12.5947 8.22078 12.0888 8.63108 11.9143 8.63108Z" fill="#97C93C"/>
<path d="M14.8029 12.3052C14.8312 12.6359 14.7727 12.7155 13.9169 13.5103C13.4129 13.9784 12.9735 14.3186 12.9406 14.2664C12.8617 14.1416 13.4952 12.8596 13.9039 12.3166C14.1651 11.9697 14.2771 11.8952 14.4991 11.9202C14.7323 11.9465 14.7769 12.0032 14.8029 12.3052Z" fill="#00AEEF"/>
<path d="M10.2003 12.3783C10.8827 13.2879 11.3047 14.3792 10.974 14.3792C10.9183 14.3792 10.8727 14.3311 10.8727 14.2723C10.8727 14.2136 10.5081 13.8298 10.0624 13.4196C9.37412 12.7862 9.25206 12.6256 9.25206 12.3538C9.25206 11.9748 9.31081 11.9015 9.61479 11.9015C9.76976 11.9015 9.95685 12.0539 10.2003 12.3783Z" fill="#00AEEF"/>
<path d="M13.5686 9.43234C13.6583 9.94551 13.8102 10.6133 13.9062 10.9161L14.0806 11.4669L13.6827 11.9056C13.4638 12.1469 13.0953 12.7338 12.8637 13.2098L12.4428 14.0753L12.0091 14.0786C11.6814 14.0811 11.5627 14.0394 11.5236 13.9084C11.383 13.4376 10.7127 12.2587 10.372 11.8831L9.98795 11.4596L10.1807 10.9126C10.3449 10.4466 10.6701 8.91392 10.6701 8.6066C10.6701 8.55288 10.8638 8.68103 11.1006 8.89153C11.3375 9.10193 11.5207 9.34126 11.5079 9.42332C11.4953 9.50538 11.536 9.77653 11.5985 10.0258C11.6887 10.3855 11.6774 10.7124 11.5437 11.61C11.3812 12.7004 11.3819 12.7498 11.5646 12.9902C11.8203 13.3267 12.0983 13.3473 12.3829 13.0509L12.6194 12.8045L12.4473 11.6407C12.3081 10.6998 12.2979 10.3973 12.394 10.0614C12.4595 9.83282 12.496 9.56247 12.4754 9.46059C12.45 9.33601 12.5646 9.18468 12.8248 8.99876C13.0377 8.84663 13.2382 8.65516 13.2703 8.5733C13.3615 8.3408 13.3942 8.43485 13.5686 9.43234Z" fill="#97C93C"/>
<path d="M9.90367 13.9149C10.4382 14.3779 10.5689 14.5482 10.5689 14.782V15.0729H9.69055C8.39847 15.0729 8.44173 14.9985 8.44173 17.219C8.44173 18.905 8.45641 19.0515 8.64431 19.2353C8.83808 19.4249 8.98192 19.4335 11.9644 19.4335C14.622 19.4335 15.1151 19.4107 15.307 19.2792C15.5261 19.1292 15.5322 19.0748 15.5322 17.2629C15.5322 15.0131 15.5774 15.0954 14.3147 15.0525C13.158 15.0131 13.1349 14.8834 14.1198 13.9572L14.855 13.2658L15.0295 13.4922C15.2725 13.8074 15.985 15.2295 16.1691 15.7666C17.0001 18.192 15.6763 20.7956 13.194 21.6176C10.3331 22.5649 7.19077 19.8023 7.63534 16.7306C7.68477 16.389 7.79599 15.9134 7.88239 15.6738C8.09348 15.0884 9.07693 13.2809 9.16687 13.313C9.20628 13.3271 9.53791 13.5979 9.90367 13.9149Z" fill="#97C93C"/>
<path d="M12.5947 14.5795C12.5947 14.6352 12.7072 14.7309 12.8448 14.7922C13.2817 14.987 13.0172 15.0729 11.981 15.0729C10.9724 15.0729 10.7082 14.9686 11.2273 14.7756C11.3665 14.7238 11.4805 14.6356 11.4805 14.5799C11.4805 14.5228 11.7247 14.4783 12.0376 14.4783C12.3493 14.4783 12.5947 14.5229 12.5947 14.5795Z" fill="#97C93C"/>
<path d="M17.7589 14.959C18.4839 15.3395 18.7201 16.0049 18.5519 17.193C18.3951 18.2998 17.791 19.5023 16.7596 20.7603C16.5859 20.9722 16.4438 21.1828 16.4438 21.2283C16.4438 21.2738 16.6672 21.405 16.9403 21.52C18.0512 21.9875 18.295 22.8776 17.2365 22.6013C16.8159 22.4915 15.2559 21.7509 14.8821 21.4834C14.7159 21.3646 14.7306 21.3335 15.0724 21.0785C15.5637 20.7118 16.2898 19.7226 16.5678 19.0412C16.7572 18.5771 16.7918 18.3003 16.7916 17.2532C16.7914 16.1443 16.7638 15.9495 16.5281 15.395L16.2647 14.7756H16.837C17.2004 14.7756 17.5368 14.8425 17.7589 14.959Z" fill="#00AEEF"/>
<path d="M7.63949 14.9589C7.41392 15.3714 7.12493 16.6975 7.12493 17.3206C7.12493 18.7059 7.86933 20.2445 8.94079 21.0741L9.3412 21.3841L8.10645 21.9969C6.80141 22.6445 6.19933 22.7908 6.13288 22.4761C6.07038 22.1803 6.37679 21.8453 6.96925 21.5617C7.27768 21.414 7.5301 21.2473 7.5301 21.1912C7.5301 21.135 7.37755 20.9062 7.19118 20.6825C6.5031 19.8571 5.72741 18.4609 5.5624 17.7512C5.25681 16.4367 5.40682 15.4902 5.98327 15.0953C6.38115 14.8227 6.4954 14.7922 7.1538 14.7834C7.69369 14.7762 7.73187 14.7901 7.63949 14.9589Z" fill="#00AEEF"/>
</svg>
