<svg xmlns="http://www.w3.org/2000/svg" width="51" height="24" viewBox="0 0 51 24" fill="none"><rect width="51" height="24" fill="none"/>
<path d="M43.2335 20.7534C42.212 20.7534 42.0112 20.3226 42.0112 19.5764V16.386C42.0112 15.6686 42.2069 15.209 43.2335 15.209C44.3312 15.209 44.5168 15.6686 44.5168 16.386V19.5764C44.5168 20.3226 44.2598 20.7534 43.2335 20.7534ZM43.2335 22C45.1056 22 45.9329 21.2741 45.9329 19.6476V16.3131C45.9329 14.6459 45.1431 13.9607 43.2335 13.9607C41.3236 13.9607 40.5951 14.6391 40.5951 16.3131V19.6476C40.5951 21.2741 41.3541 22 43.2335 22Z" fill="#E2000F"/>
<path d="M32.6924 20.6568V15.3413H33.9025C35.0005 15.3413 35.1656 15.7314 35.1656 16.4777V19.5458C35.1656 20.2921 34.9086 20.65 33.8823 20.65L32.6924 20.6568ZM31.2847 14.0608V21.9288H33.8823C35.7544 21.9288 36.5817 21.2504 36.5817 19.6171V16.4064C36.5817 14.7392 35.7919 14.054 33.8823 14.054L31.2847 14.0608Z" fill="#E2000F"/>
<path d="M26.9323 19.1574L27.5893 16.247L28.2463 19.1625L26.9323 19.1574ZM28.3077 14.0692H26.9017L24.7162 21.9288H26.1698L26.58 20.538H28.6022L29.0038 21.9288H30.4607L28.3077 14.0692Z" fill="#E2000F"/>
<path d="M20.6518 17.8583V15.3515H21.256C22.3556 15.3515 22.5496 15.7416 22.5496 16.4878V16.7558C22.5496 17.5021 22.2619 17.8599 21.2356 17.8599L20.6518 17.8583ZM24.4083 21.9288L22.6739 18.9319C23.627 18.6249 24.0356 17.9905 24.0356 16.8254V16.4166C24.0356 14.7494 23.1419 14.054 21.2322 14.054H19.2407V21.9288H20.6586V19.1574H21.1811L22.7522 21.9288H24.4083Z" fill="#E2000F"/>
<path d="M39.2743 14.0642H37.8479V21.9407H39.2743V14.0642Z" fill="#E2000F"/>
<path d="M18.444 14.0845H13.7632V15.3413H15.4058V21.9288H16.8117V15.3413H18.444V14.0845Z" fill="#E2000F"/>
<path d="M8.30321 14.054V21.939H12.9942V20.65H9.71937V18.574H12.3883V17.3053H9.71937V15.2802H12.8496V14.054H8.30321Z" fill="#E2000F"/>
<path d="M4.67912 18.7283H6.02379V19.495C6.02379 20.2718 5.66464 20.7009 4.63826 20.7009C3.6119 20.7009 3.41616 20.2718 3.41616 19.5255V16.437C3.41616 15.7212 3.6119 15.2599 4.63826 15.2599C5.74465 15.2599 5.91484 15.6279 5.91484 16.364H7.33101C7.33101 14.668 6.54122 14.0133 4.63146 14.0133C2.74563 14.0133 2.01827 14.741 2.00034 16.3041C2.00011 16.3239 2 16.3439 2 16.364V19.5255C2 19.5462 2.00011 19.5668 2.00034 19.5873C2.01872 21.2397 2.78211 21.9695 4.63826 21.9695C6.51739 21.9695 7.33781 21.2232 7.33781 19.495V17.4495H4.67912V18.7283Z" fill="#E2000F"/>
<path d="M37.6425 12.3121C37.6425 13.5333 39.4807 13.5214 39.4807 12.3121C39.4807 11.1028 37.6425 11.0791 37.6425 12.3121Z" fill="#E2000F"/>
<path d="M37.019 9.75445C36.9931 9.77288 36.9638 9.78575 36.9327 9.79227C36.9017 9.79882 36.8696 9.79884 36.8385 9.79237C36.8072 9.7859 36.7779 9.77309 36.752 9.75473C36.726 9.73634 36.7045 9.71285 36.688 9.68566C36.6719 9.65849 36.6613 9.62824 36.6572 9.59681C36.6534 9.56541 36.6559 9.53352 36.6649 9.50317C36.6742 9.47282 36.6893 9.44465 36.7099 9.42046C36.7304 9.3963 36.7556 9.3766 36.7841 9.36266C37.3189 9.04179 37.9318 8.87286 38.5561 8.8742C39.332 8.87479 40.0854 9.13585 40.6942 9.61525C41.3033 10.0946 41.7324 10.7645 41.9126 11.5167C41.9216 11.5737 41.9088 11.632 41.8764 11.68C41.8443 11.728 41.795 11.762 41.7385 11.7753C41.682 11.7886 41.6227 11.7802 41.5724 11.7517C41.5221 11.7232 41.4841 11.6769 41.4666 11.6218C41.3729 11.2325 41.2014 10.8659 40.9626 10.5438C40.7238 10.2218 40.4223 9.95093 40.0764 9.74728C39.7303 9.54366 39.3469 9.41142 38.9484 9.35845C38.5502 9.30547 38.1452 9.33287 37.7578 9.43897C37.4976 9.50912 37.2481 9.6135 37.0157 9.74936L37.019 9.75445Z" fill="#E2000F"/>
<path d="M36.9289 7.29516C36.8711 7.3136 36.8082 7.30841 36.7543 7.28073C36.7004 7.25307 36.6598 7.20519 36.641 7.14759C36.6226 7.09002 36.6279 7.02747 36.6557 6.97373C36.6834 6.91996 36.7314 6.87942 36.7892 6.86095C37.3587 6.6762 37.9537 6.5812 38.5527 6.57943C40.0772 6.57943 41.539 7.18285 42.6172 8.25699C43.6952 9.33113 44.3006 10.788 44.3006 12.307V12.4919C44.2942 12.5491 44.2665 12.6018 44.2231 12.6395C44.1794 12.6772 44.1232 12.6972 44.0654 12.6955C44.0076 12.6938 43.9527 12.6705 43.9116 12.6303C43.8703 12.59 43.8456 12.5358 43.8428 12.4783V12.3087C43.8431 11.6164 43.7065 10.9309 43.4404 10.2912C43.1747 9.65153 42.7851 9.07035 42.2939 8.58081C41.8025 8.09126 41.2193 7.703 40.5774 7.43816C39.9355 7.17332 39.2473 7.03713 38.5527 7.03736C38.2762 7.03728 38.0001 7.05826 37.7272 7.10011C37.4553 7.14253 37.1872 7.20606 36.9253 7.29008L36.9289 7.29516Z" fill="#E2000F"/>
<path fill-rule="evenodd" clip-rule="evenodd" d="M2.00034 16.3041V19.5873C2.01872 21.2397 2.78211 21.9695 4.63826 21.9695C6.51739 21.9695 7.33781 21.2232 7.33781 19.495V17.4495H4.67912V18.7283H6.02379V19.495C6.02379 20.2718 5.66464 20.7009 4.63826 20.7009C3.6119 20.7009 3.41616 20.2718 3.41616 19.5255V16.437C3.41616 15.7212 3.6119 15.2599 4.63826 15.2599C5.74465 15.2599 5.91484 15.6279 5.91484 16.364H7.33101C7.33101 14.668 6.54122 14.0133 4.63146 14.0133C2.74563 14.0133 2.01827 14.741 2.00034 16.3041ZM45.9329 19.6476C45.9329 21.2741 45.1056 22 43.2335 22C41.3541 22 40.5951 21.2741 40.5951 19.6476V16.3131C40.5951 14.6391 41.3236 13.9607 43.2335 13.9607C45.1431 13.9607 45.9329 14.6459 45.9329 16.3131V19.6476ZM31.2847 21.9288V14.0608L33.8823 14.054C35.7919 14.054 36.5817 14.7392 36.5817 16.4064V19.6171C36.5817 21.2504 35.7544 21.9288 33.8823 21.9288H31.2847ZM26.9017 14.0692H28.3077L30.4607 21.9288H29.0038L28.6022 20.538H26.58L26.1698 21.9288H24.7162L26.9017 14.0692ZM22.6739 18.9319L24.4083 21.9288H22.7522L21.1811 19.1574H20.6586V21.9288H19.2407V14.054H21.2322C23.1419 14.054 24.0356 14.7494 24.0356 16.4166V16.8254C24.0356 17.9905 23.627 18.6249 22.6739 18.9319ZM37.8479 14.0642H39.2743V21.9407H37.8479V14.0642ZM13.7632 14.0845H18.444V15.3413H16.8117V21.9288H15.4058V15.3413H13.7632V14.0845ZM8.30321 21.939V14.054H12.8496V15.2802H9.71937V17.3053H12.3883V18.574H9.71937V20.65H12.9942V21.939H8.30321ZM32.6924 15.3413V20.6568L33.8823 20.65C34.9086 20.65 35.1656 20.2921 35.1656 19.5458V16.4777C35.1656 15.7314 35.0005 15.3413 33.9025 15.3413H32.6924ZM43.2335 20.7534C42.212 20.7534 42.0112 20.3226 42.0112 19.5764V16.386C42.0112 15.6686 42.2069 15.209 43.2335 15.209C44.3312 15.209 44.5168 15.6686 44.5168 16.386V19.5764C44.5168 20.3226 44.2598 20.7534 43.2335 20.7534ZM20.6518 15.3515V17.8583L21.2356 17.8599C22.2619 17.8599 22.5496 17.5021 22.5496 16.7558V16.4878C22.5496 15.7416 22.3556 15.3515 21.256 15.3515H20.6518ZM26.9323 19.1574L27.5893 16.247L28.2463 19.1625L26.9323 19.1574Z" fill="white"/>
<path d="M36.9289 4.92066C36.8716 4.92824 36.8136 4.91409 36.7663 4.88102C36.7191 4.84794 36.6862 4.79839 36.6739 4.74218C36.6618 4.686 36.6713 4.62727 36.7004 4.57769C36.7296 4.52811 36.7766 4.49131 36.8318 4.47459C37.1127 4.41312 37.397 4.3667 37.6828 4.33552C37.9706 4.305 38.2597 4.28971 38.5491 4.28973C39.606 4.28928 40.6524 4.49634 41.6289 4.89909C42.6051 5.30184 43.4923 5.89237 44.2395 6.63694C44.9867 7.38151 45.5794 8.26551 45.9835 9.23841C46.3877 10.2113 46.5954 11.2541 46.5952 12.307C46.5952 12.5196 46.5867 12.7316 46.5695 12.943C46.5543 13.1517 46.5287 13.362 46.4948 13.5757C46.4817 13.6324 46.4475 13.6821 46.399 13.7147C46.3507 13.7472 46.2917 13.7602 46.2339 13.7509C46.1764 13.7416 46.1242 13.7108 46.0886 13.6647C46.0531 13.6186 46.0362 13.5607 46.0418 13.5028C46.0726 13.3111 46.0965 13.1126 46.1117 12.9074C46.1271 12.7022 46.1355 12.5106 46.1355 12.307C46.1358 11.3145 45.9399 10.3317 45.5588 9.41471C45.1778 8.49769 44.6193 7.6644 43.9152 6.96246C43.2111 6.26051 42.3751 5.70362 41.4551 5.32362C40.5348 4.94359 39.5488 4.74788 38.5527 4.74767C38.2793 4.7479 38.0058 4.76205 37.7339 4.79007C37.4635 4.81911 37.1946 4.86271 36.9289 4.92066Z" fill="#E2000F"/>
<path d="M36.922 2.59705C36.8914 2.604 36.8596 2.60462 36.8287 2.59888C36.7979 2.59313 36.7687 2.58114 36.7425 2.56364C36.7165 2.54614 36.6942 2.52351 36.6775 2.49715C36.6606 2.47078 36.6493 2.44124 36.6441 2.41034C36.6392 2.37945 36.6405 2.34786 36.6482 2.31752C36.6559 2.28719 36.6698 2.25875 36.6891 2.23397C36.7083 2.20919 36.7322 2.18858 36.7597 2.17344C36.7871 2.15829 36.8174 2.14892 36.8488 2.1459C37.1297 2.09841 37.4139 2.06279 37.7 2.04074C37.9858 2.0187 38.2718 2.00513 38.5509 2.00513C40.2924 2.00534 42.0056 2.44366 43.5318 3.27947C45.0579 4.11528 46.3476 5.32151 47.2813 6.78636C48.2149 8.25118 48.7623 9.92718 48.8725 11.659C48.9829 13.3908 48.6527 15.1223 47.9124 16.6931C47.9011 16.7224 47.8839 16.7491 47.8618 16.7716C47.8398 16.794 47.8133 16.8116 47.784 16.8234C47.7548 16.8352 47.7234 16.8408 47.6919 16.84C47.6603 16.8392 47.6292 16.8319 47.6007 16.8185C47.5722 16.8052 47.5465 16.7862 47.5257 16.7626C47.5049 16.7391 47.489 16.7115 47.4792 16.6816C47.4697 16.6516 47.4661 16.6201 47.4692 16.5888C47.4723 16.5575 47.4818 16.5272 47.4972 16.4997C48.2054 14.9985 48.5217 13.3435 48.417 11.688C48.312 10.0325 47.7892 8.43021 46.8971 7.02973C46.0051 5.62923 44.7726 4.47593 43.3138 3.67671C41.8548 2.87751 40.2174 2.4583 38.5527 2.45798C38.2752 2.45798 38.0012 2.46985 37.7305 2.4919C37.4599 2.51395 37.1823 2.54787 36.9186 2.59196L36.922 2.59705Z" fill="#E2000F"/>
</svg>
