<svg xmlns="http://www.w3.org/2000/svg" width="24" height="24" viewBox="0 0 24 24" fill="none"><rect width="24" height="24" fill="none"/>
<path d="M12 2C7.0625 2 2 3.0625 2 10.75C2 14.875 3.4375 17.4375 6.375 18.625V20.9375C6.375 21.375 6.625 21.75 7 21.9375C7.125 22 7.3125 22 7.4375 22C7.6875 22 8 21.875 8.1875 21.6875L10.4375 19.4375C10.9375 19.4375 11.4375 19.5 12 19.5C16.9375 19.5 22 18.4375 22 10.75C22 3.0625 16.9375 2 12 2ZM11.6875 8.375C12.8125 8.375 13.75 9.3125 13.75 10.4375C13.75 10.8125 13.5 11.0625 13.125 11.0625C12.75 11.0625 12.5 10.8125 12.5 10.4375C12.5 10 12.125 9.625 11.6875 9.625C11.3125 9.625 11.0625 9.375 11.0625 9C11.0625 8.625 11.3125 8.375 11.6875 8.375ZM11.0625 7.0625C11.0625 6.6875 11.3125 6.4375 11.6875 6.4375C13.875 6.4375 15.6875 8.25 15.6875 10.4375C15.6875 10.8125 15.4375 11.0625 15.0625 11.0625C14.6875 11.0625 14.4375 10.8125 14.4375 10.4375C14.4375 8.9375 13.1875 7.6875 11.6875 7.6875C11.3125 7.6875 11.0625 7.375 11.0625 7.0625ZM16.1875 14.8125C15.9375 15.5625 15 16.1875 14.1875 16.3125C14 16.375 13.8125 16.375 13.5625 16.375C13.0625 16.375 12.3125 16.25 11 15.6875C9.5 15.0625 8 13.75 6.8125 12.0625V12C6.4375 11.4375 5.75 10.375 5.75 9.25C5.75 7.875 6.4375 7.1875 6.6875 6.875C7.0625 6.5625 7.5 6.375 8 6.375C8.125 6.375 8.1875 6.375 8.3125 6.375C8.75 6.375 9.0625 6.5 9.375 7.125L9.625 7.625C9.8125 8.125 10.0625 8.6875 10.125 8.75C10.3125 9.125 10.3125 9.4375 10.125 9.75C10.0625 9.9375 9.9375 10.0625 9.8125 10.1875C9.75 10.3125 9.6875 10.375 9.625 10.375C9.5625 10.4375 9.5625 10.4375 9.5 10.5C9.6875 10.8125 10.0625 11.375 10.5625 11.8125C11.3125 12.5 11.875 12.6875 12.1875 12.8125C12.3125 12.6875 12.4375 12.4375 12.625 12.25L12.6875 12.125C13 11.6875 13.5 11.5625 14 11.75C14.25 11.875 15.625 12.5 15.625 12.5L15.75 12.5625C15.9375 12.6875 16.1875 12.75 16.3125 13C16.5 13.5625 16.3125 14.375 16.1875 14.8125ZM17 11.0625C16.625 11.0625 16.375 10.8125 16.375 10.4375C16.375 7.875 14.25 5.75 11.6875 5.75C11.3125 5.75 11.0625 5.5 11.0625 5.125C11.0625 4.75 11.3125 4.5 11.6875 4.5C14.9375 4.5 17.625 7.1875 17.625 10.4375C17.625 10.8125 17.375 11.0625 17 11.0625Z" fill="#000000"/>
</svg>
