<svg xmlns="http://www.w3.org/2000/svg" width="24" height="24" viewBox="0 0 24 24" fill="none"><rect width="24" height="24" fill="none"/>
<path fill-rule="evenodd" clip-rule="evenodd" d="M12.0613 21.9048C17.5503 21.9048 22 17.449 22 11.9524C22 6.45583 17.5503 2 12.0613 2C6.57225 2 2.12253 6.45583 2.12253 11.9524C2.12253 13.7651 2.60651 15.4647 3.45214 16.9286C3.68457 17.3309 3.22242 18.3488 2.75921 19.3691C2.26163 20.4651 1.76284 21.5637 2.12251 21.9048C2.43687 22.2029 3.60797 21.746 4.76422 21.2949C5.83485 20.8772 6.89275 20.4645 7.24593 20.6607C8.67245 21.4534 10.3142 21.9048 12.0613 21.9048ZM16.907 16.9245C18.2111 15.6209 18.9438 13.8528 18.9438 12.0092H15.0383C15.0383 12.8174 14.7172 13.5925 14.1455 14.164C13.5737 14.7355 12.7983 15.0565 11.9898 15.0565C11.1813 15.0565 10.4059 14.7355 9.83419 14.164C9.26248 13.5925 8.94129 12.8174 8.94129 12.0092L5.03589 12.0092C5.03589 13.8528 5.76853 15.6209 7.07265 16.9245C8.37676 18.2281 10.1455 18.9604 11.9898 18.9604C13.8341 18.9604 15.6029 18.2281 16.907 16.9245Z" fill="#000000"/>
</svg>
