<svg xmlns="http://www.w3.org/2000/svg" width="24" height="24" viewBox="0 0 24 24" fill="none"><rect width="24" height="24" fill="none"/>
<path fill-rule="evenodd" clip-rule="evenodd" d="M14.0846 19.0778L13.3 21.1625C13.0491 21.8291 12.3025 22.1671 11.6324 21.9176C11.2834 21.7877 11.0075 21.5145 10.8753 21.168L7.62328 12.6458C7.4011 12.0636 7.69553 11.4124 8.2809 11.1914C8.40941 11.1429 8.54572 11.1181 8.68318 11.1181H15.4455C16.0716 11.1181 16.5791 11.6229 16.5791 12.2457C16.5791 12.3807 16.5548 12.5146 16.5072 12.641C16.3414 13.0816 15.9199 13.3733 15.4491 13.3733H11.2967C10.8942 13.3733 10.5679 13.6978 10.5679 14.0982C10.5679 14.4985 10.8942 14.8231 11.2967 14.8231H14.316C14.8498 14.8231 15.2825 15.2558 15.2825 15.7896C15.2825 16.3234 14.8498 16.7561 14.316 16.7561H12.2684C11.8659 16.7561 11.5396 17.0807 11.5396 17.481C11.5396 17.8814 11.8659 18.2059 12.2684 18.2059H13.4812C13.8373 18.2059 14.1259 18.4946 14.1259 18.8506C14.1259 18.9282 14.1119 19.0052 14.0846 19.0778Z" fill="white"/>
<path fill-rule="evenodd" clip-rule="evenodd" d="M11.4145 7.11334C11.4145 8.57175 10.2263 9.75431 8.76183 9.75431C7.29654 9.75431 6.1084 8.57175 6.1084 7.11334C6.1084 5.65572 7.29654 4.47317 8.76183 4.47317C10.2263 4.47317 11.4145 5.65572 11.4145 7.11334Z" fill="white"/>
<path fill-rule="evenodd" clip-rule="evenodd" d="M16.0712 5.68299C16.0712 7.7174 14.4137 9.36545 12.3694 9.36545C10.3242 9.36545 8.66672 7.7174 8.66672 5.68299C8.66672 3.64859 10.3242 1.99976 12.3694 1.99976C14.4137 1.99976 16.0712 3.64859 16.0712 5.68299Z" fill="white"/>
<path fill-rule="evenodd" clip-rule="evenodd" d="M17.8903 7.51059C17.8903 8.74957 16.8809 9.75423 15.636 9.75423C14.3912 9.75423 13.381 8.74957 13.381 7.51059C13.381 6.27082 14.3912 5.26695 15.636 5.26695C16.8809 5.26695 17.8903 6.27082 17.8903 7.51059Z" fill="white"/>
</svg>
