<svg xmlns="http://www.w3.org/2000/svg" width="24" height="24" viewBox="0 0 24 24" fill="none"><rect width="24" height="24" fill="none"/>
<path d="M5.0975 15.8957C5.0975 17.542 7.5758 17.526 7.5758 15.8957C7.5758 14.2654 5.0975 14.2333 5.0975 15.8957Z" fill="#E2000F"/>
<path d="M4.13614 5.93062C4.05897 5.94082 3.98087 5.92174 3.91718 5.87716C3.85349 5.83258 3.80933 5.76577 3.7926 5.69001C3.77633 5.61424 3.78888 5.53507 3.82839 5.46823C3.86791 5.40139 3.93113 5.35178 4.00551 5.32925C4.38439 5.24639 4.76746 5.1838 5.15285 5.14175C5.54056 5.10061 5.9306 5.08 6.32063 5.08002C7.7455 5.07941 9.15643 5.35858 10.4725 5.90155C11.7891 6.44452 12.9848 7.24066 13.9922 8.24444C14.9996 9.24827 15.7987 10.44 16.3435 11.7517C16.8884 13.0633 17.1687 14.4691 17.1678 15.8887C17.1678 16.1752 17.1566 16.461 17.1334 16.7461C17.1129 17.0274 17.0785 17.3109 17.0325 17.599C17.0153 17.6755 16.9688 17.7425 16.9037 17.7864C16.8386 17.8303 16.7587 17.8477 16.681 17.8352C16.6034 17.8227 16.5332 17.7811 16.4853 17.719C16.437 17.6569 16.4147 17.5788 16.4221 17.5007C16.4635 17.2423 16.4956 16.9748 16.5165 16.6981C16.5369 16.4214 16.5486 16.163 16.5486 15.8887C16.5486 14.5506 16.2845 13.2256 15.7708 11.9893C15.2571 10.753 14.5045 9.62966 13.5552 8.68329C12.6059 7.73693 11.4785 6.98619 10.2382 6.47386C8.9979 5.96153 7.66833 5.69769 6.32528 5.69739C5.95663 5.69771 5.58844 5.71679 5.22165 5.75455C4.85671 5.79372 4.49457 5.8525 4.13614 5.93062ZM4.13614 9.13181C4.05851 9.15668 3.9739 9.14971 3.90091 9.11238C3.82839 9.0751 3.77354 9.01052 3.74843 8.93289C3.72333 8.85525 3.7303 8.77097 3.76796 8.69849C3.80515 8.62602 3.87023 8.57135 3.94787 8.54648C4.71586 8.29734 5.51778 8.16932 6.32528 8.1669C8.38054 8.1669 10.3516 8.98045 11.8049 10.4286C13.2581 11.8767 14.0749 13.8407 14.0749 15.8887V16.1379C14.0661 16.215 14.0289 16.286 13.9698 16.3369C13.9113 16.3877 13.8355 16.4147 13.7574 16.4124C13.6798 16.4101 13.6058 16.3787 13.55 16.3244C13.4943 16.2702 13.4613 16.197 13.4575 16.1196C13.4575 16.0396 13.4575 15.9664 13.4575 15.8909C13.4575 14.9576 13.2734 14.0333 12.915 13.171C12.5566 12.3086 12.0313 11.5251 11.3693 10.8651C10.7068 10.2051 9.9207 9.68168 9.05508 9.3246C8.18947 8.96757 7.26203 8.78399 6.32528 8.78427C5.95291 8.78417 5.58054 8.81248 5.21235 8.86887C4.84602 8.92605 4.48481 9.01169 4.13149 9.12498L4.13614 9.13181ZM4.25794 12.4474C4.22308 12.4722 4.18356 12.4896 4.14126 12.4984C4.09942 12.5072 4.05618 12.5072 4.01434 12.4985C3.97251 12.4898 3.93253 12.4725 3.89766 12.4477C3.86279 12.423 3.83351 12.3913 3.81166 12.3546C3.78981 12.318 3.7754 12.2772 3.77028 12.2349C3.7647 12.1925 3.76842 12.1495 3.78051 12.1086C3.7926 12.0676 3.81351 12.0297 3.84094 11.9971C3.86837 11.9645 3.90277 11.9379 3.94136 11.9192C4.66239 11.4866 5.48849 11.2588 6.32993 11.2606C7.37639 11.2614 8.39169 11.6134 9.21268 12.2597C10.0337 12.906 10.6124 13.809 10.8551 14.8231C10.8672 14.9 10.85 14.9787 10.8063 15.0433C10.7631 15.108 10.6966 15.1539 10.6203 15.1718C10.5446 15.1897 10.4646 15.1784 10.3967 15.14C10.3284 15.1016 10.2777 15.0391 10.254 14.9649C10.1276 14.44 9.89652 13.9457 9.57436 13.5116C9.25266 13.0774 8.84635 12.7123 8.37961 12.4377C7.91333 12.1632 7.39591 11.9849 6.85897 11.9135C6.32203 11.8421 5.77626 11.879 5.25373 12.022C4.9032 12.1166 4.56663 12.2574 4.2533 12.4405L4.25794 12.4474ZM4.12685 2.79802C4.08594 2.80738 4.04317 2.80822 4.00133 2.80047C3.95995 2.79272 3.91997 2.77656 3.88511 2.75296C3.84978 2.72938 3.82003 2.69887 3.79725 2.66332C3.77447 2.62778 3.75913 2.58794 3.75262 2.5463C3.74564 2.50464 3.7475 2.46205 3.7582 2.42116C3.76842 2.38026 3.78702 2.34192 3.81305 2.30851C3.83862 2.27511 3.87116 2.24733 3.90835 2.22691C3.94554 2.20649 3.98645 2.19386 4.02829 2.18979C4.40717 2.12576 4.79024 2.07774 5.17563 2.04802C5.56148 2.01829 5.94687 2 6.32296 2C8.67109 2.00028 10.9806 2.59122 13.0382 3.71803C15.0958 4.84484 16.8345 6.47104 18.0929 8.44588C19.3518 10.4207 20.0896 12.6802 20.2383 15.015C20.3871 17.3498 19.9422 19.6841 18.9441 21.8017C18.9288 21.8413 18.9055 21.8774 18.8758 21.9076C18.846 21.9378 18.8102 21.9616 18.7707 21.9775C18.7312 21.9933 18.6889 22.001 18.6466 21.9999C18.6043 21.9987 18.5624 21.9889 18.5238 21.9709C18.4853 21.953 18.4509 21.9273 18.4225 21.8956C18.3946 21.8638 18.3732 21.8266 18.3602 21.7862C18.3472 21.7459 18.3425 21.7034 18.3467 21.6611C18.3504 21.619 18.3635 21.5781 18.3844 21.5411C19.3388 19.5172 19.7656 17.2859 19.6242 15.0541C19.4824 12.8222 18.7777 10.6621 17.575 8.77399C16.3724 6.88591 14.7109 5.33103 12.7439 4.25357C10.7775 3.17611 8.56975 2.61096 6.32528 2.61051C5.95152 2.61051 5.58194 2.62652 5.217 2.65625C4.85207 2.68597 4.4783 2.73171 4.12266 2.79115L4.12685 2.79802Z" fill="#E2000F"/>
</svg>
