<svg xmlns="http://www.w3.org/2000/svg" width="24" height="24" viewBox="0 0 24 24" fill="none"><rect width="24" height="24" fill="none"/>
<path fill-rule="evenodd" clip-rule="evenodd" d="M4.49039 2.08982C4.93004 1.90774 5.43604 2.00841 5.77251 2.34484L11.9994 8.57176L18.2264 2.34484C18.5628 2.00841 19.0688 1.90774 19.5084 2.08982C19.9481 2.27194 20.2347 2.70091 20.2347 3.17676V16.1179C20.2347 16.7676 19.708 17.2944 19.0582 17.2944C18.4085 17.2944 17.8818 16.7676 17.8818 16.1179V6.01699L12.8313 11.0674C12.3719 11.5269 11.627 11.5269 11.1676 11.0674L6.1171 6.01699V16.1179C6.1171 16.7676 5.59039 17.2944 4.94063 17.2944C4.29087 17.2944 3.76416 16.7676 3.76416 16.1179V3.17676C3.76416 2.70091 4.05079 2.27194 4.49039 2.08982ZM13.1759 17.7817L15.9686 14.989C16.428 14.5296 16.428 13.7847 15.9686 13.3252C15.5091 12.8658 14.7643 12.8658 14.3048 13.3252L11.9994 15.6306L9.69407 13.3252C9.23462 12.8658 8.48976 12.8658 8.03031 13.3252C7.57086 13.7847 7.57086 14.5296 8.03031 14.989L10.823 17.7817V20.8238C10.823 21.4735 11.3497 22.0002 11.9994 22.0002C12.6492 22.0002 13.1759 21.4735 13.1759 20.8238V17.7817Z" fill="#B34D00"/>
</svg>
