<svg xmlns="http://www.w3.org/2000/svg" width="108" height="24" viewBox="0 0 108 24" fill="none"><rect width="108" height="24" fill="none"/>
<path d="M7.51241 7.91058H6.63371C5.03739 7.91058 4.19677 8.7156 4.19677 9.90671C4.19677 11.2581 4.77817 11.8839 5.97614 12.6889L6.95957 13.3482L4.11621 17.5736H2L4.54898 13.7934C3.07715 12.7487 2.25409 11.7375 2.25409 10.0138C2.25409 7.85739 3.75741 6.39963 6.6132 6.39963H9.45581V17.5744H7.50583V7.91058H7.51241ZM17.4938 9.48781V17.5744H15.5738V14.1999H13.0043V17.5744H11.0843V9.48781H13.0043V12.6889H15.5738V9.48781H17.4938ZM26.1702 19.4183H24.3908V17.5678H20.0758V19.4183H18.2964V16.0605H18.8982C19.574 14.7091 19.7081 12.1535 19.7081 10.177V9.48491H25.3136V16.0605H26.1702V19.4183ZM23.3936 10.9988H21.36V11.2384C21.36 12.6357 21.2136 14.8388 20.6776 16.0634H23.3936V10.9988ZM30.4847 17.7274C28.0301 17.7274 26.6381 16.3628 26.6381 13.5478C26.6381 11.1051 27.7556 9.32244 30.0974 9.32244C32.0174 9.32244 33.2614 10.3868 33.2614 13.196V14.2072H28.6255C28.7053 15.5586 29.2406 16.2171 30.6458 16.2171C31.5823 16.2171 32.5855 15.8645 33.1808 15.4588V17.0221C32.6192 17.4083 31.7157 17.7274 30.4847 17.7274ZM28.6255 12.7953H31.3078V12.6365C31.3078 11.6253 31.0149 10.84 30.0629 10.84C29.1469 10.8319 28.6789 11.5109 28.6255 12.7953ZM36.479 13.601V17.5744H34.5524V9.48781H36.479V13.2149L39.1985 9.48781H41.139L38.4231 13.2149L41.5065 17.5678H39.3223L36.479 13.601ZM41.3961 13.5347C41.3961 11.0716 42.6738 9.32171 45.1305 9.32171C46.0825 9.32171 46.7963 9.48127 47.1977 9.7071V11.3317C46.8095 11.092 46.0802 10.8319 45.3378 10.8319C44.0798 10.8319 43.3841 11.7309 43.3841 13.4881C43.3841 15.1586 43.953 16.2229 45.3246 16.2229C46.1337 16.2229 46.7158 16.0168 47.1977 15.6773V17.2348C46.729 17.5744 46.0993 17.7338 45.2104 17.7338C42.6401 17.7274 41.3961 16.2368 41.3961 13.5347Z" fill="black"/>
<path d="M76.5255 9.29455C76.6461 9.19021 76.7405 9.04672 76.8087 8.86412C76.8821 8.68151 76.9398 8.45456 76.9817 8.18325C77.0236 7.90673 77.0551 7.58586 77.0761 7.22064C77.0972 6.85543 77.1155 6.43804 77.1312 5.96847H80.1204V9.29455H80.7339V11.1885H79.9394L79.8687 10.0302H77.0526L76.9817 11.1885H76.1794V9.29455H76.5255ZM79.2079 9.29455V6.70412H77.9178C77.8916 7.34586 77.847 7.87803 77.7841 8.30064C77.7264 8.71803 77.6294 9.04934 77.493 9.29455H79.2079Z" fill="black"/>
<path d="M81.8144 8.5902C81.872 8.32412 81.9088 7.97978 81.9244 7.55716C81.9454 7.12933 81.9559 6.59977 81.9559 5.96847H84.89V10.0302H83.9775V6.70412H82.7898C82.7793 7.24152 82.7583 7.7163 82.7268 8.12846C82.6954 8.54064 82.6298 8.8902 82.5301 9.17716C82.4358 9.4589 82.2968 9.67543 82.1133 9.82672C81.9349 9.97803 81.6937 10.0537 81.3896 10.0537C81.3477 10.0537 81.3056 10.0511 81.2638 10.0459C81.227 10.0459 81.1877 10.0433 81.1458 10.038V9.19282C81.1982 9.20325 81.2375 9.20847 81.2638 9.20847C81.4053 9.20847 81.5181 9.15891 81.602 9.05977C81.6911 8.95543 81.7618 8.79891 81.8144 8.5902Z" fill="black"/>
<path d="M85.9 7.29891C85.9 7.07978 85.942 6.88673 86.0258 6.71977C86.1097 6.55282 86.2251 6.41456 86.3719 6.30499C86.524 6.19021 86.705 6.10673 86.9147 6.05456C87.1297 5.99717 87.3657 5.96847 87.6227 5.96847H89.1409V10.0302H88.2284V8.65281H87.6462L86.6787 10.0302H85.6562L86.781 8.45716C86.4979 8.37369 86.2802 8.23803 86.1281 8.05021C85.9761 7.86238 85.9 7.61195 85.9 7.29891ZM88.2284 7.93281V6.68847H87.6935C87.4418 6.68847 87.2346 6.73543 87.072 6.82934C86.9147 6.92326 86.8361 7.07978 86.8361 7.29891C86.8361 7.52325 86.9069 7.685 87.0485 7.78413C87.1953 7.88324 87.4024 7.93281 87.6699 7.93281H88.2284Z" fill="black"/>
<path d="M80.2384 16.9192C80.2384 17.2583 80.1859 17.5584 80.0811 17.8192C79.9762 18.0801 79.8319 18.2992 79.6483 18.4766C79.4701 18.654 79.255 18.7896 79.0033 18.8836C78.7569 18.9722 78.4894 19.0166 78.2009 19.0166C77.9073 19.0166 77.6373 18.967 77.3908 18.8679C77.1443 18.7687 76.9319 18.62 76.7536 18.4218C76.5754 18.2184 76.4337 17.9679 76.3289 17.6705C76.2292 17.368 76.1794 17.0132 76.1794 16.6062C76.1794 16.2358 76.1951 15.8966 76.2265 15.5888C76.258 15.281 76.3104 15.0044 76.3838 14.7592C76.4625 14.514 76.5674 14.3001 76.6986 14.1175C76.8297 13.9297 76.9975 13.7679 77.202 13.6323C77.4432 13.481 77.7002 13.3844 77.9729 13.3427C78.2508 13.301 78.534 13.2749 78.8224 13.2644C79.1423 13.2488 79.3835 13.2227 79.5461 13.1862C79.7087 13.1444 79.8477 13.0923 79.9631 13.0297V13.8357C79.9053 13.8723 79.8451 13.9036 79.7821 13.9297C79.7192 13.9505 79.6458 13.9688 79.5618 13.9844C79.4779 14.0001 79.381 14.0157 79.2708 14.0314C79.1608 14.0418 79.0323 14.0523 78.8853 14.0627C78.618 14.0888 78.374 14.1149 78.1538 14.141C77.9336 14.1618 77.7369 14.227 77.5639 14.3366C77.3645 14.4723 77.2177 14.6601 77.1233 14.9001C77.0289 15.1401 76.966 15.4323 76.9346 15.7766C77.1967 15.187 77.7029 14.8923 78.4527 14.8923C78.6939 14.8923 78.9221 14.9392 79.137 15.0331C79.3574 15.1218 79.5488 15.2523 79.7114 15.4244C79.8739 15.5967 80.0024 15.808 80.0967 16.0584C80.1911 16.3088 80.2384 16.5958 80.2384 16.9192ZM78.2009 18.2574C78.5208 18.2574 78.7831 18.1505 78.9877 17.9366C79.1974 17.7175 79.3023 17.3836 79.3023 16.9349C79.3023 16.4861 79.1974 16.1548 78.9877 15.9409C78.7831 15.7218 78.5208 15.6123 78.2009 15.6123C77.8863 15.6123 77.6268 15.7192 77.4223 15.9331C77.223 16.147 77.1233 16.4758 77.1233 16.9192C77.1233 17.3783 77.2257 17.7175 77.4301 17.9366C77.6346 18.1505 77.8916 18.2574 78.2009 18.2574Z" fill="black"/>
<path d="M81.9449 17.7094L83.8329 14.8764H84.7296V18.9381H83.825V16.1208L81.9528 18.9381H81.0403V14.8764H81.9449V17.7094Z" fill="black"/>
<path d="M88.7855 17.7721C88.7855 17.9913 88.7382 18.179 88.6439 18.3356C88.5548 18.4921 88.4288 18.6226 88.2663 18.7268C88.1089 18.826 87.9228 18.8991 87.7078 18.946C87.4927 18.993 87.2647 19.0164 87.0235 19.0164C86.6773 19.0164 86.3941 18.9826 86.1738 18.9147C85.9536 18.8417 85.7831 18.7686 85.6626 18.6956V17.9521C85.8146 18.0512 86.0035 18.1322 86.2289 18.1947C86.4596 18.252 86.7088 18.2809 86.9762 18.2809C87.2542 18.2809 87.4744 18.2391 87.637 18.1556C87.7995 18.0721 87.8809 17.9312 87.8809 17.733C87.8809 17.5452 87.8074 17.4121 87.6606 17.3339C87.5137 17.2504 87.2856 17.2086 86.9762 17.2086H86.402V16.5199H86.992C87.2384 16.5199 87.4273 16.4782 87.5583 16.3947C87.6946 16.3113 87.7628 16.186 87.7628 16.019C87.7628 15.8365 87.6868 15.7113 87.5347 15.6434C87.3879 15.5704 87.1964 15.5339 86.9604 15.5339C86.7036 15.5339 86.4727 15.5651 86.2683 15.6278C86.0638 15.6851 85.8828 15.7634 85.7255 15.8625V15.1191C85.8566 15.0356 86.0348 14.9625 86.2604 14.8999C86.4859 14.8321 86.7638 14.7982 87.0942 14.7982C87.5976 14.7982 87.9804 14.8895 88.2427 15.0721C88.5049 15.2547 88.636 15.5208 88.636 15.8703C88.636 16.1365 88.5626 16.3451 88.4158 16.4965C88.2689 16.6425 88.0538 16.7494 87.7707 16.8173C88.4473 16.9217 88.7855 17.24 88.7855 17.7721Z" fill="black"/>
<path d="M92.334 17.2241H90.6113V18.9381H89.6988V14.8764H90.6113V16.4886H92.334V14.8764H93.2465V18.9381H92.334V17.2241Z" fill="black"/>
<path d="M97.707 18.6408C97.6494 18.6773 97.5785 18.719 97.4947 18.766C97.4108 18.8078 97.3112 18.8468 97.1957 18.8835C97.0804 18.92 96.9467 18.9512 96.7946 18.9774C96.6426 19.0035 96.4695 19.0164 96.2754 19.0164C95.5254 19.0164 94.9643 18.8312 94.592 18.4608C94.2249 18.0904 94.0414 17.5712 94.0414 16.9034C94.0414 16.5748 94.0913 16.2799 94.1908 16.019C94.2905 15.7583 94.4295 15.5391 94.6078 15.3617C94.7861 15.1791 94.9984 15.0408 95.2449 14.9469C95.4914 14.8478 95.7614 14.7982 96.0552 14.7982C96.3593 14.7982 96.632 14.8478 96.8733 14.9469C97.1198 15.046 97.3217 15.1947 97.479 15.393C97.6363 15.5912 97.7438 15.8365 97.8014 16.1287C97.8643 16.4208 97.867 16.7625 97.8094 17.1538H94.9853C95.0221 17.5243 95.1453 17.8034 95.355 17.9913C95.5648 18.1738 95.8926 18.2651 96.3383 18.2651C96.6634 18.2651 96.9335 18.2261 97.1486 18.1478C97.3688 18.0643 97.5549 17.9782 97.707 17.8895V18.6408ZM96.0552 15.5182C95.7877 15.5182 95.5622 15.5991 95.3786 15.7608C95.195 15.9226 95.0745 16.1626 95.0168 16.4809H96.9362C96.9467 16.1521 96.8733 15.9095 96.716 15.753C96.5586 15.5965 96.3383 15.5182 96.0552 15.5182Z" fill="black"/>
<path d="M100.56 19.0164C100.23 19.0164 99.9333 18.9695 99.6712 18.8755C99.409 18.7764 99.186 18.6382 99.0026 18.4608C98.819 18.2782 98.6775 18.0565 98.5778 17.7956C98.4781 17.5347 98.4283 17.2373 98.4283 16.9034C98.4283 16.5748 98.4781 16.2799 98.5778 16.019C98.6775 15.7583 98.819 15.5391 99.0026 15.3617C99.186 15.1791 99.4115 15.0408 99.679 14.9469C99.9465 14.8478 100.245 14.7982 100.576 14.7982C100.859 14.7982 101.105 14.8295 101.315 14.8921C101.53 14.9547 101.701 15.033 101.826 15.1269V15.8781C101.664 15.7739 101.486 15.6929 101.292 15.6356C101.103 15.5782 100.883 15.5495 100.631 15.5495C99.7865 15.5495 99.3644 16.0008 99.3644 16.9034C99.3644 17.8061 99.7787 18.2573 100.607 18.2573C100.875 18.2573 101.103 18.2286 101.292 18.1712C101.486 18.1086 101.664 18.0303 101.826 17.9365V18.6878C101.69 18.7764 101.52 18.8548 101.315 18.9225C101.111 18.9852 100.859 19.0164 100.56 19.0164Z" fill="black"/>
<path d="M105.042 18.2261C105.001 18.3199 104.943 18.4138 104.869 18.5078C104.801 18.6017 104.715 18.6878 104.61 18.766C104.51 18.839 104.39 18.8991 104.248 18.946C104.106 18.993 103.941 19.0164 103.752 19.0164C103.574 19.0164 103.409 18.9904 103.257 18.9382C103.105 18.8913 102.971 18.8181 102.856 18.719C102.746 18.6199 102.656 18.4973 102.588 18.3512C102.525 18.1999 102.494 18.0278 102.494 17.8348C102.494 17.3912 102.659 17.0599 102.989 16.8408C103.32 16.6165 103.786 16.5043 104.39 16.5043H105.011V16.2538C105.011 15.9878 104.943 15.8051 104.807 15.706C104.67 15.6016 104.445 15.5495 104.13 15.5495C103.863 15.5495 103.611 15.5887 103.375 15.6669C103.144 15.7399 102.94 15.826 102.761 15.9251V15.166C102.924 15.0773 103.139 14.9939 103.406 14.9156C103.674 14.8373 103.965 14.7982 104.279 14.7982C104.804 14.7982 105.208 14.9078 105.491 15.1269C105.779 15.3408 105.923 15.6851 105.923 16.1599V18.2809C105.923 18.3277 105.923 18.3826 105.923 18.4452C105.929 18.5026 105.931 18.5625 105.931 18.6251C105.937 18.6878 105.942 18.7477 105.947 18.8052C105.952 18.8573 105.958 18.9017 105.963 18.9382H105.121C105.105 18.8652 105.09 18.7635 105.074 18.6329C105.063 18.5026 105.056 18.3851 105.05 18.2809L105.042 18.2261ZM104.004 18.3121C104.198 18.3121 104.358 18.2729 104.484 18.1947C104.615 18.1113 104.72 18.0173 104.799 17.913C104.877 17.8034 104.932 17.6965 104.964 17.5921C104.995 17.4878 105.011 17.4147 105.011 17.3729V17.0991H104.445C104.083 17.0991 103.818 17.1565 103.65 17.2712C103.482 17.3809 103.398 17.5374 103.398 17.7408C103.398 17.9182 103.448 18.059 103.548 18.1634C103.653 18.2626 103.805 18.3121 104.004 18.3121Z" fill="black"/>
<path fill-rule="evenodd" clip-rule="evenodd" d="M66.3341 10.8388C67.3973 10.8388 67.9325 11.657 67.9325 13.5205C67.9325 15.3979 67.3981 16.2233 66.3341 16.2233C65.2701 16.2233 64.7349 15.4045 64.7349 13.5409C64.7349 11.657 65.2708 10.8388 66.3341 10.8388Z" fill="black"/>
<path fill-rule="evenodd" clip-rule="evenodd" d="M57.7459 2H65.5507C67.4143 2.00019 69.2014 2.73656 70.5191 4.04714C71.8369 5.35773 72.5773 7.13521 72.5775 8.98867V15.012C72.5775 15.9298 72.3958 16.8386 72.0426 17.6864C71.6894 18.5343 71.1718 19.3046 70.5193 19.9535C69.8668 20.6025 69.0922 21.1171 68.2396 21.4682C67.387 21.8194 66.4734 22.0001 65.5507 22H57.8265C56.9037 22.0001 55.99 21.8194 55.1375 21.4682C54.285 21.1171 53.5104 20.6025 52.8578 19.9535C52.2053 19.3046 51.6877 18.5343 51.3346 17.6864C50.9814 16.8386 50.7997 15.9298 50.7997 15.012V8.98867C50.7997 5.12826 53.8645 2 57.7459 2ZM59.6567 12.9682V13.3077C59.6567 15.0911 59.188 16.2224 57.7184 16.2152C56.18 16.2152 55.4704 14.7851 55.4704 11.9898C55.4704 9.10781 56.3272 7.74329 58.3474 7.74329C59.2743 7.74978 60.1816 8.01017 60.9697 8.49585V6.94046C60.4212 6.54124 59.4172 6.23454 58.2536 6.23454C55.1731 6.23454 53.494 8.42008 53.494 11.9898C53.494 15.6506 55.0325 17.7269 57.6817 17.7269C60.2506 17.7269 61.6089 16.0833 61.6089 13.2545V11.4573H57.6012V12.9682H59.6567ZM66.3319 17.7335C68.4481 17.7335 69.9199 16.2364 69.9199 13.5205C69.9199 10.8184 68.4481 9.32789 66.3319 9.32789C64.2156 9.32789 62.7439 10.825 62.7439 13.5409C62.7439 16.2364 64.2156 17.7335 66.3319 17.7335Z" fill="black"/>
</svg>
