<svg xmlns="http://www.w3.org/2000/svg" width="16" height="16" viewBox="0 0 16 16" fill="none"><rect width="16" height="16" fill="none"/>
<g clip-path="url(#clip0_10859_68)">
<path fill-rule="evenodd" clip-rule="evenodd" d="M8.04914 15.9238C12.4404 15.9238 16.0001 12.3592 16.0001 7.96191C16.0001 3.56467 12.4404 0 8.04914 0C3.65792 0 0.0981435 3.56467 0.0981435 7.96191C0.0981435 9.41207 0.485327 10.7718 1.16184 11.9429C1.34778 12.2647 0.978055 13.0791 0.607492 13.8953C0.209429 14.772 -0.189603 15.6509 0.0981335 15.9238C0.349616 16.1623 1.2865 15.7968 2.2115 15.4359C3.068 15.1018 3.91432 14.7716 4.19687 14.9286C5.33808 15.5627 6.65145 15.9238 8.04914 15.9238ZM11.9257 11.9396C12.969 10.8967 13.5551 9.48223 13.5551 8.00737H10.4308C10.4308 8.65393 10.1739 9.27401 9.71649 9.7312C9.25912 10.1884 8.63879 10.4452 7.99198 10.4452C7.34516 10.4452 6.72484 10.1884 6.26747 9.7312C5.8101 9.27401 5.55316 8.65393 5.55316 8.00737L2.42883 8.00737C2.42883 9.48223 3.01495 10.8967 4.05824 11.9396C5.10153 12.9824 6.51654 13.5683 7.99198 13.5683C9.46742 13.5683 10.8824 12.9824 11.9257 11.9396Z" fill="#000000"/>
</g>
<defs>
<clipPath id="clip0_10859_68">
<rect width="16" height="16" fill="white"/>
</clipPath>
</defs>
</svg>
