<svg xmlns="http://www.w3.org/2000/svg" width="100" height="24" viewBox="0 0 100 24" fill="none"><rect width="100" height="24" fill="none"/>
<path fill-rule="evenodd" clip-rule="evenodd" d="M9.11199 3.52399C6.02582 3.52399 3.52399 6.02582 3.52399 9.11199C3.52399 12.1982 6.02582 14.7 9.11199 14.7C12.1981 14.7 14.7 12.1982 14.7 9.11199C14.7 6.02582 12.1981 3.52399 9.11199 3.52399ZM2 9.11199C2 5.18414 5.18414 2 9.11199 2C13.0398 2 16.224 5.18414 16.224 9.11199C16.224 13.0398 13.0398 16.224 9.11199 16.224C5.18414 16.224 2 13.0398 2 9.11199Z" fill="white"/>
<path d="M33.41 13.5831L37.8685 4.63578H41.264L41.9579 10.0833L45.3979 4.63578H48.7639V13.5831H45.4714V8.77994L42.4156 13.5831H39.1234L38.4885 8.73604L36.0674 13.5831H33.41ZM58.8765 11.8112C58.8765 12.1138 58.8813 12.4116 58.8912 12.7045C58.9012 12.9973 58.9206 13.2853 58.9505 13.5684H55.8942C55.8354 13.461 55.7761 13.3146 55.7173 13.1291C55.658 12.9339 55.6187 12.7289 55.5992 12.5141C55.2839 12.8851 54.8855 13.1926 54.4032 13.4366C53.9309 13.6709 53.2566 13.7881 52.3807 13.7881C51.4949 13.7881 50.7864 13.5831 50.2548 13.1731C49.7332 12.763 49.4724 12.2163 49.4724 11.533C49.4724 10.8984 49.6545 10.4103 50.0187 10.0686C50.3928 9.71715 50.9733 9.47308 51.7605 9.33639C52.5481 9.18998 53.5568 9.11675 54.7869 9.11675H55.5547V8.95568C55.5547 8.64326 55.4219 8.40411 55.1563 8.23815C54.8903 8.07218 54.3933 7.98918 53.6649 7.98918C52.9465 7.98918 52.2773 8.08192 51.6571 8.26743C51.0472 8.44312 50.5502 8.61886 50.1661 8.7946V6.83232C50.5991 6.67614 51.18 6.51995 51.9084 6.36372C52.6463 6.19778 53.488 6.11479 54.4327 6.11479C55.3873 6.11479 56.1944 6.20266 56.854 6.37838C57.5132 6.54434 58.0153 6.83232 58.3596 7.24237C58.7044 7.64263 58.8765 8.19909 58.8765 8.91173V11.8112ZM59.8804 6.33443H62.9363L63.1136 7.57918C63.4873 7.09102 63.9354 6.7347 64.4571 6.51017C64.9787 6.28564 65.5791 6.17337 66.2581 6.17337C67.0259 6.17337 67.7145 6.31004 68.3248 6.5834C68.9351 6.85676 69.4174 7.27165 69.7716 7.8281C70.1259 8.38456 70.3032 9.08747 70.3032 9.9368C70.3032 10.7861 70.1259 11.4939 69.7716 12.0601C69.4273 12.6166 68.945 13.0364 68.3248 13.3195C67.705 13.6026 66.9961 13.7442 66.1989 13.7442C65.6085 13.7442 65.0522 13.6417 64.5306 13.4366C64.0189 13.2219 63.576 12.8851 63.2019 12.4262V15.4721H59.8804V6.33443ZM79.9288 9.9368C79.9288 9.21438 80.1256 8.57007 80.5192 8.00384C80.9228 7.43761 81.4937 6.9934 82.2316 6.67125C82.9799 6.33932 83.8605 6.17337 84.8744 6.17337C85.9276 6.17337 86.8083 6.35399 87.5168 6.71519C88.2356 7.0764 88.7374 7.58891 89.0229 8.25277C89.3183 8.91662 89.3576 9.70249 89.1409 10.6104H83.3095C83.4276 11.0302 83.6884 11.3475 84.092 11.5623C84.5055 11.7673 85.1153 11.8698 85.9224 11.8698C86.4834 11.8698 87.0051 11.821 87.4874 11.7233C87.9696 11.6159 88.4177 11.4939 88.8308 11.3572V13.0998C88.4078 13.2951 87.9355 13.4513 87.4138 13.5684C86.9017 13.6856 86.2278 13.7442 85.3909 13.7442C83.5504 13.7442 82.1776 13.4074 81.2723 12.7337C80.3765 12.0504 79.9288 11.118 79.9288 9.9368ZM89.4212 6.33443H97.8513V8.20886H95.2232V13.5684H91.9018V8.20886H89.4212V6.33443ZM70.9382 6.33443H74.2596V9.61464L77.4041 6.33443H80.2684L77.3453 9.35106L80.8735 13.5684H76.8578L74.2596 10.3761V13.5684H70.9382V6.33443ZM84.8891 7.81349C84.4363 7.81349 84.0773 7.94528 83.8112 8.20886C83.5457 8.46268 83.3735 8.78971 83.2948 9.18998H86.2179C86.2079 8.78971 86.0998 8.46268 85.893 8.20886C85.6863 7.94528 85.3515 7.81349 84.8891 7.81349ZM66.9078 9.9368C66.9078 9.35106 66.7452 8.88734 66.4203 8.54564C66.1055 8.1942 65.6526 8.01846 65.0622 8.01846C64.5211 8.01846 64.0682 8.18443 63.704 8.51635C63.3398 8.8385 63.1577 9.312 63.1577 9.9368C63.1577 10.5616 63.3351 11.0449 63.6893 11.3865C64.0535 11.7184 64.5111 11.8844 65.0622 11.8844C65.6725 11.8844 66.1301 11.7087 66.4351 11.3572C66.7499 11.0058 66.9078 10.5323 66.9078 9.9368ZM55.5547 10.4493H54.802C54.0832 10.4493 53.5667 10.5079 53.2518 10.625C52.9465 10.7422 52.7942 10.9667 52.7942 11.2987C52.7942 11.5818 52.8924 11.7917 53.0892 11.9284C53.296 12.0553 53.5421 12.1187 53.8275 12.1187C54.2605 12.1187 54.6148 12.0406 54.8903 11.8844C55.1758 11.7184 55.3972 11.5281 55.5547 11.3133V10.4493Z" fill="white"/>
<path fill-rule="evenodd" clip-rule="evenodd" d="M30.3005 13.0108C29.0296 14.9461 26.8398 16.2239 24.3515 16.2239C22.4377 16.2239 20.7004 15.468 19.422 14.2384L23.2617 8.35294L22.135 13.0715L24.994 13.4147L27.3684 10.5104L26.6769 13.4161L26.6801 13.4151L26.6771 13.4175L30.3005 13.0108ZM31.2545 10.8305C31.391 10.2802 31.4635 9.70457 31.4635 9.112C31.4635 5.18416 28.2794 2.00003 24.3515 2.00003C20.4237 2.00003 17.2395 5.18416 17.2395 9.112C17.2395 9.89973 17.3676 10.6576 17.6041 11.3658L22.8458 3.24679L26.3073 5.246L25.3249 9.38726L27.9187 6.16844L30.3614 7.58463L29.5431 11.1533L31.2545 10.8305Z" fill="white"/>
<path d="M68.5614 21.0404V18.2336H69.724C69.8806 18.2336 70.0247 18.248 70.1553 18.2769C70.2902 18.3058 70.4049 18.351 70.4996 18.4124C70.5978 18.4702 70.6722 18.546 70.7232 18.64C70.7777 18.7339 70.8049 18.8459 70.8049 18.9759C70.8049 19.124 70.7686 19.2486 70.6959 19.3498C70.6233 19.4474 70.5229 19.5214 70.3958 19.572C70.5705 19.6225 70.6994 19.7056 70.7833 19.8212C70.8707 19.9332 70.9144 20.0669 70.9144 20.2222C70.9144 20.3631 70.8854 20.4859 70.827 20.5907C70.7725 20.6918 70.6925 20.7767 70.5869 20.8453C70.4814 20.9104 70.3538 20.9591 70.2046 20.9917C70.0588 21.0242 69.8971 21.0404 69.7189 21.0404H68.5614ZM69.189 19.8158V20.5527H69.7189C69.8824 20.5527 70.0134 20.5257 70.1116 20.4715C70.2137 20.4173 70.2647 20.3216 70.2647 20.1843C70.2647 20.0542 70.2171 19.9603 70.1228 19.9025C70.0281 19.8447 69.8936 19.8158 69.7189 19.8158H69.189ZM69.189 18.7213V19.3769H69.7024C69.8477 19.3769 69.9624 19.3498 70.0463 19.2956C70.1302 19.2414 70.1717 19.1566 70.1717 19.0409C70.1717 18.9254 70.128 18.8441 70.0407 18.7971C69.9572 18.7465 69.8426 18.7213 69.6968 18.7213H69.189Z" fill="white"/>
<path d="M66.6522 20.5153C66.7577 20.5153 66.8598 20.4954 66.958 20.4557C67.0562 20.4159 67.1435 20.3581 67.2201 20.2823C67.2962 20.2064 67.3564 20.1143 67.4 20.0059C67.4476 19.8976 67.471 19.7729 67.471 19.632C67.471 19.4912 67.4476 19.3666 67.4 19.2582C67.3564 19.1498 67.2962 19.0577 67.2201 18.9818C67.1435 18.906 67.0562 18.8482 66.958 18.8084C66.8598 18.7687 66.7577 18.7488 66.6522 18.7488C66.5466 18.7488 66.445 18.7687 66.3464 18.8084C66.2482 18.8482 66.1608 18.906 66.0843 18.9818C66.0116 19.0577 65.9515 19.1498 65.9043 19.2582C65.8606 19.3666 65.839 19.4912 65.839 19.632C65.839 19.7729 65.8606 19.8976 65.9043 20.0059C65.9515 20.1143 66.0116 20.2064 66.0843 20.2823C66.1608 20.3581 66.2482 20.4159 66.3464 20.4557C66.445 20.4954 66.5466 20.5153 66.6522 20.5153ZM66.6522 21.0951C66.4485 21.0951 66.2573 21.0608 66.0791 20.9922C65.9043 20.9235 65.7495 20.826 65.615 20.6995C65.4839 20.5695 65.3801 20.4159 65.304 20.2389C65.2274 20.0583 65.1894 19.856 65.1894 19.632C65.1894 19.4117 65.2274 19.213 65.304 19.036C65.3801 18.8554 65.4839 18.7018 65.615 18.5754C65.7495 18.4454 65.9043 18.346 66.0791 18.2774C66.2573 18.2087 66.4485 18.1744 66.6522 18.1744C66.8559 18.1744 67.0471 18.2087 67.2253 18.2774C67.4039 18.346 67.5605 18.4454 67.695 18.5754C67.8295 18.7018 67.9351 18.8554 68.0116 19.036C68.0882 19.213 68.1263 19.4117 68.1263 19.632C68.1263 19.856 68.0882 20.0583 68.0116 20.2389C67.9351 20.4159 67.8295 20.5695 67.695 20.6995C67.5605 20.826 67.4039 20.9235 67.2253 20.9922C67.0471 21.0608 66.8559 21.0951 66.6522 21.0951Z" fill="white"/>
<path d="M62.1646 18.2336H62.8035V20.504H63.9445V18.2336H64.5829V20.504H65.0198V21.8424H64.4519L64.3974 21.0404H62.1646V18.2336Z" fill="white"/>
<path d="M59.3614 21.0404V18.2336H60.524C60.6806 18.2336 60.8247 18.248 60.9553 18.2769C61.0902 18.3058 61.2048 18.351 61.2996 18.4124C61.3978 18.4702 61.4722 18.546 61.5232 18.64C61.5777 18.7339 61.6049 18.8459 61.6049 18.9759C61.6049 19.124 61.5686 19.2486 61.4959 19.3498C61.4233 19.4474 61.3229 19.5214 61.1958 19.572C61.3705 19.6225 61.4994 19.7056 61.5833 19.8212C61.6707 19.9332 61.7144 20.0669 61.7144 20.2222C61.7144 20.3631 61.6854 20.4859 61.627 20.5907C61.5725 20.6918 61.4925 20.7767 61.387 20.8453C61.2814 20.9104 61.1538 20.9591 61.0046 20.9917C60.8588 21.0242 60.6971 21.0404 60.5189 21.0404H59.3614ZM59.989 19.8158V20.5527H60.5189C60.6824 20.5527 60.8134 20.5257 60.9116 20.4715C61.0137 20.4173 61.0647 20.3216 61.0647 20.1843C61.0647 20.0542 61.0171 19.9603 60.9228 19.9025C60.8281 19.8447 60.6936 19.8158 60.5189 19.8158H59.989ZM59.989 18.7213V19.3769H60.5024C60.6477 19.3769 60.7624 19.3498 60.8463 19.2956C60.9302 19.2414 60.9717 19.1566 60.9717 19.0409C60.9717 18.9254 60.928 18.8441 60.8407 18.7971C60.7572 18.7465 60.6426 18.7213 60.4968 18.7213H59.989Z" fill="white"/>
<path d="M57.4146 18.7325C57.1377 18.7325 56.867 18.7831 56.601 18.8843V18.3153C56.7286 18.2756 56.8722 18.2431 57.0322 18.2178C57.1961 18.1889 57.3601 18.1744 57.5236 18.1744C57.9457 18.1744 58.2645 18.2702 58.479 18.4616C58.694 18.6495 58.8013 18.9637 58.8013 19.4044V21.0409H58.1788C58.1754 21.012 58.1732 20.9704 58.1732 20.9163C58.1732 20.8621 58.1732 20.8043 58.1732 20.7429C58.0858 20.8476 57.9751 20.9325 57.8402 20.9976C57.7091 21.0626 57.5508 21.0951 57.3652 21.0951C57.2234 21.0951 57.0923 21.0752 56.9725 21.0355C56.8557 20.9957 56.7541 20.9398 56.6667 20.8675C56.5828 20.7916 56.5175 20.7013 56.4699 20.5966C56.4228 20.4882 56.399 20.3654 56.399 20.2281C56.399 20.0728 56.4262 19.9373 56.4811 19.8217C56.5391 19.7025 56.6191 19.605 56.7212 19.5291C56.8267 19.4532 56.9487 19.3972 57.0871 19.3611C57.229 19.3214 57.3856 19.3015 57.5564 19.3015C57.684 19.3015 57.7965 19.3105 57.8951 19.3286C57.9967 19.3467 58.0858 19.3701 58.1624 19.399C58.1551 19.1606 58.0932 18.9909 57.9768 18.8897C57.8605 18.7849 57.6728 18.7325 57.4146 18.7325ZM57.5236 20.6237C57.6291 20.6237 57.7204 20.6074 57.7965 20.5749C57.8769 20.5388 57.9422 20.49 57.9933 20.4286C58.0478 20.3672 58.088 20.2949 58.1131 20.2119C58.1425 20.1288 58.1589 20.0385 58.1624 19.9409V19.838C58.104 19.8127 58.0296 19.7892 57.9388 19.7675C57.8514 19.7458 57.755 19.735 57.6494 19.735C57.46 19.735 57.309 19.7747 57.1961 19.8542C57.0871 19.9301 57.0322 20.0475 57.0322 20.2064C57.0322 20.3329 57.0742 20.434 57.1581 20.5099C57.2454 20.5857 57.3674 20.6237 57.5236 20.6237Z" fill="white"/>
<path d="M53.0157 21.8444V20.506H53.3159C53.3885 20.3832 53.4452 20.2171 53.485 20.0075C53.5252 19.7907 53.5473 19.5361 53.5507 19.2435C53.5581 18.9473 53.5615 18.6113 53.5615 18.2356H53.8401V18.2302H55.7727V20.506H56.1983V21.8444H55.6252L55.5707 21.0425H53.6381L53.5944 21.8444H53.0157ZM54.0802 20.0346C54.0512 20.2297 54.0109 20.3868 53.9603 20.506H55.1394V18.7666H54.1511C54.1476 19.0231 54.1403 19.2579 54.1295 19.4711C54.1221 19.6806 54.1057 19.8684 54.0802 20.0346Z" fill="white"/>
<path d="M51.4815 20.5153C51.587 20.5153 51.6891 20.4954 51.7873 20.4557C51.8855 20.4159 51.9728 20.3581 52.0494 20.2823C52.126 20.2064 52.1856 20.1143 52.2293 20.0059C52.2769 19.8976 52.3003 19.7729 52.3003 19.632C52.3003 19.4912 52.2769 19.3666 52.2293 19.2582C52.1856 19.1498 52.126 19.0577 52.0494 18.9818C51.9728 18.906 51.8855 18.8482 51.7873 18.8084C51.6891 18.7687 51.587 18.7488 51.4815 18.7488C51.3759 18.7488 51.2743 18.7687 51.1757 18.8084C51.0775 18.8482 50.9901 18.906 50.914 18.9818C50.8409 19.0577 50.7808 19.1498 50.7336 19.2582C50.6899 19.3666 50.6683 19.4912 50.6683 19.632C50.6683 19.7729 50.6899 19.8976 50.7336 20.0059C50.7808 20.1143 50.8409 20.2064 50.914 20.2823C50.9901 20.3581 51.0775 20.4159 51.1757 20.4557C51.2743 20.4954 51.3759 20.5153 51.4815 20.5153ZM51.4815 21.0951C51.2778 21.0951 51.0866 21.0608 50.9084 20.9922C50.7336 20.9235 50.5788 20.826 50.4443 20.6995C50.3132 20.5695 50.2094 20.4159 50.1333 20.2389C50.0567 20.0583 50.0187 19.856 50.0187 19.632C50.0187 19.4117 50.0567 19.213 50.1333 19.036C50.2094 18.8554 50.3132 18.7018 50.4443 18.5754C50.5788 18.4454 50.7336 18.346 50.9084 18.2774C51.0866 18.2087 51.2778 18.1744 51.4815 18.1744C51.6852 18.1744 51.8764 18.2087 52.0546 18.2774C52.2332 18.346 52.3898 18.4454 52.5243 18.5754C52.6588 18.7018 52.7644 18.8554 52.8409 19.036C52.9175 19.213 52.9556 19.4117 52.9556 19.632C52.9556 19.856 52.9175 20.0583 52.8409 20.2389C52.7644 20.4159 52.6588 20.5695 52.5243 20.6995C52.3898 20.826 52.2332 20.9235 52.0546 20.9922C51.8764 21.0608 51.6852 21.0951 51.4815 21.0951Z" fill="white"/>
<path d="M47.4299 18.2341L47.4464 18.6188C47.5593 18.4779 47.699 18.3695 47.8668 18.2937C48.0342 18.2142 48.218 18.1744 48.4178 18.1744C48.5891 18.1744 48.7526 18.2052 48.9092 18.2665C49.0697 18.3244 49.2115 18.4129 49.3353 18.5321C49.459 18.6513 49.5571 18.7994 49.6298 18.9764C49.7029 19.1534 49.7392 19.3611 49.7392 19.5995C49.7392 19.8452 49.699 20.0619 49.619 20.2498C49.539 20.434 49.4334 20.5893 49.3024 20.7158C49.1752 20.8386 49.0294 20.9325 48.8655 20.9976C48.7055 21.0626 48.5437 21.0951 48.3798 21.0951C48.1869 21.0951 48.0139 21.0644 47.8612 21.003C47.7085 20.9415 47.5753 20.8567 47.4628 20.7483V22H46.824V18.2341H47.4299ZM49.0839 19.6375C49.0839 19.493 49.0602 19.3647 49.013 19.2528C48.9693 19.1408 48.9092 19.0468 48.8331 18.971C48.76 18.8915 48.6748 18.8319 48.5761 18.7922C48.478 18.7524 48.3763 18.7325 48.2708 18.7325C48.1652 18.7325 48.0632 18.7524 47.965 18.7922C47.8668 18.8319 47.7794 18.8897 47.7029 18.9656C47.6263 19.0414 47.5645 19.1353 47.5173 19.2473C47.4697 19.3593 47.4464 19.4894 47.4464 19.6375C47.4464 19.7856 47.4697 19.9174 47.5173 20.0331C47.5645 20.145 47.6263 20.2389 47.7029 20.3148C47.7794 20.3907 47.8668 20.4485 47.965 20.4882C48.0632 20.5243 48.1652 20.5424 48.2708 20.5424C48.3763 20.5424 48.478 20.5225 48.5761 20.4828C48.6748 20.443 48.76 20.3853 48.8331 20.3094C48.9092 20.2299 48.9693 20.1342 49.013 20.0222C49.0602 19.9102 49.0839 19.782 49.0839 19.6375Z" fill="white"/>
<path d="M46.2249 21.0404H45.5865V18.77H44.4454V21.0404H43.8066V18.2336H46.2249V21.0404Z" fill="white"/>
<path d="M40.4076 19.973C40.2183 19.9151 40.0691 19.8176 39.9599 19.6804C39.8544 19.5431 39.8016 19.3751 39.8016 19.1764C39.8016 18.8694 39.9108 18.6364 40.1291 18.4774C40.3475 18.3149 40.6478 18.2336 41.0299 18.2336H42.1327V21.0404H41.4994V20.0922H41.0354L40.413 21.0404H39.6815L40.4076 19.973ZM41.0299 18.7429C40.8552 18.7429 40.7151 18.779 40.6096 18.8513C40.504 18.9199 40.4512 19.0301 40.4512 19.1818C40.4512 19.3191 40.5022 19.4239 40.6041 19.4961C40.706 19.5684 40.8443 19.6045 41.019 19.6045H41.4994V18.7429H41.0299Z" fill="white"/>
<path d="M36.6531 20.4607C36.6822 20.4715 36.7114 20.4805 36.7405 20.4877C36.7696 20.495 36.8023 20.4985 36.8387 20.4985C36.8969 20.4985 36.9461 20.4841 36.9861 20.4552C37.0261 20.4227 37.0571 20.3739 37.0789 20.3089C37.1044 20.2403 37.1226 20.1518 37.1335 20.0434C37.1444 19.935 37.1517 19.805 37.1553 19.6532C37.159 19.534 37.1608 19.4058 37.1608 19.2685C37.1644 19.1313 37.1663 18.9976 37.1663 18.8675C37.1699 18.7375 37.1717 18.6165 37.1717 18.5045C37.1754 18.3925 37.1772 18.3022 37.1772 18.2336H39.3008V21.0404H38.6621V18.77H37.7613L37.7449 19.6749C37.7377 19.8989 37.7195 20.0994 37.6903 20.2764C37.6649 20.4498 37.6212 20.5961 37.5593 20.7153C37.5011 20.8345 37.4192 20.9248 37.3137 20.9862C37.2118 21.0476 37.0826 21.0784 36.9261 21.0784C36.8605 21.0784 36.8059 21.0748 36.7623 21.0675C36.7186 21.0603 36.6822 21.0513 36.6531 21.0404V20.4607Z" fill="white"/>
<path d="M33.3567 21.8444V20.506H33.657C33.7298 20.3832 33.7862 20.2171 33.8262 20.0075C33.8662 19.7907 33.8881 19.5361 33.8917 19.2435C33.899 18.9473 33.9026 18.6113 33.9026 18.2356H34.1811V18.2302H36.1136V20.506H36.5395V21.8444H35.9662L35.9116 21.0425H33.9791L33.9354 21.8444H33.3567ZM34.4213 20.0346C34.3921 20.2297 34.3521 20.3868 34.3012 20.506H35.4804V18.7666H34.4922C34.4886 19.0231 34.4813 19.2579 34.4704 19.4711C34.4631 19.6806 34.4467 19.8684 34.4213 20.0346Z" fill="white"/>
<path d="M10.1269 13.0586V6.35038H9.34002C8.7724 6.35038 8.34238 6.47076 8.04998 6.71159C7.75759 6.94378 7.61135 7.25339 7.61135 7.64042C7.61135 7.93281 7.66295 8.18221 7.76616 8.38866C7.86936 8.59506 8.01988 8.78426 8.21768 8.95627C8.41548 9.12825 8.66492 9.31748 8.96592 9.52389L9.71412 10.027L7.52108 13.0586H5.86984L7.83905 10.3843C7.54559 10.1768 7.28479 9.97174 7.05667 9.76896C6.74706 9.49378 6.51055 9.19278 6.34714 8.86596C6.18373 8.53914 6.10202 8.15643 6.10202 7.7178C6.10202 6.96099 6.37292 6.35039 6.91476 5.88596C7.46516 5.41295 8.26928 5.17644 9.32713 5.17644H11.6621V13.0586H10.1269Z" fill="white"/>
</svg>
