<svg xmlns="http://www.w3.org/2000/svg" width="24" height="24" viewBox="0 0 24 24" fill="none"><rect width="24" height="24" fill="none"/>
<path d="M20.888 12.3792V11.7019C20.888 11.5244 20.9202 11.3311 20.9363 11.1536H20.9041C20.8074 11.3311 20.7266 11.4761 20.63 11.6696L20.1945 12.3633V12.3794L20.888 12.3792ZM20.888 13.6853V12.8952H19.5006V12.4437L20.8229 10.3957H21.5969V12.3631H21.9996V12.8952H21.5969V13.6851L20.888 13.6853Z" fill="#221F20"/>
<path d="M17.2431 13.6847V13.2334L17.6459 12.814C18.1619 12.2658 18.5973 11.8295 18.5973 11.3466C18.5973 11.0886 18.4199 10.895 18.0813 10.895C17.8681 10.9058 17.6595 10.9607 17.4686 11.0563L17.3397 10.5565C17.6216 10.421 17.9299 10.3494 18.2426 10.3468C19.1294 10.3468 19.4035 10.8306 19.4035 11.2982C19.4035 11.9109 18.9359 12.4108 18.4682 12.8463L18.2276 13.0718V13.0879H19.4693V13.6684H17.2431V13.6847Z" fill="#221F20"/>
<path fill-rule="evenodd" clip-rule="evenodd" d="M8.22906 8.28325C4.27847 9.15414 1.52122 11.5084 2.06945 13.5561C2.63334 15.604 6.27804 16.5713 10.2447 15.717C14.1953 14.8624 16.9528 12.4918 16.4046 10.4442C15.8402 8.39625 12.1796 7.42868 8.22906 8.28325ZM11.1476 10.8309H10.3575V13.669H9.72872V10.8309H8.93861V10.3311H11.1476V10.8309ZM13.0184 13.669H13.6149L13.6154 10.3311H12.9217L12.083 12.5725V10.3311H11.4865V13.669H12.1638L13.0184 11.4436V13.669ZM8.60007 13.669H7.97129V10.8309H7.13261V13.669H6.50383V10.3311H8.60007V13.669ZM3.93987 11.4116C3.93987 10.5732 4.39143 10.2668 5.02022 10.2668C5.66533 10.2668 6.10056 10.5577 6.10056 11.4116V12.6199C6.10056 13.4745 5.66511 13.7486 5.02022 13.7486C4.39143 13.7486 3.93987 13.4584 3.93987 12.6199V11.4116ZM5.45567 12.7016C5.45567 13.0563 5.31044 13.2337 5.03633 13.2337C4.72999 13.2337 4.60088 13.0402 4.60088 12.7016V11.331C4.60088 10.9764 4.7461 10.7667 5.03633 10.7667C5.31044 10.7667 5.45567 10.9764 5.45567 11.331V12.7016Z" fill="#3874B6"/>
</svg>
