<svg xmlns="http://www.w3.org/2000/svg" width="104" height="24" viewBox="0 0 104 24" fill="none"><rect width="104" height="24" fill="none"/>
<path d="M8.61827 10.4357L12.5229 16.2278H10.3369L6.975 11.2875H5.36191V16.2278H3.44728V7.07502H2L2.96485 5.23207H5.36191V9.5839H6.975L10.1711 5.23207H12.342L8.61827 10.4357ZM11.935 12.2631C11.935 11.4062 12.1259 10.6577 12.5078 10.0175C12.8797 9.41869 13.3873 8.95928 14.0305 8.6392C14.6737 8.31912 15.3672 8.15911 16.111 8.15911C16.8748 8.15911 17.5633 8.31398 18.1764 8.62372C18.8196 8.9438 19.3272 9.41869 19.699 10.0485C20.0709 10.668 20.2568 11.4062 20.2568 12.2631C20.2568 13.1304 20.0709 13.879 19.699 14.5088C19.3272 15.1283 18.8196 15.6083 18.1764 15.949C17.5431 16.2795 16.8547 16.4446 16.111 16.4446C15.3773 16.4446 14.6888 16.2795 14.0456 15.949C13.3923 15.6187 12.8747 15.1386 12.4928 14.5088C12.1209 13.8686 11.935 13.1201 11.935 12.2631ZM44.4535 8.40693H46.1571V9.47548C46.4184 9.06251 46.7651 8.74763 47.1973 8.53078C47.6395 8.30364 48.2074 8.19007 48.9008 8.19007C49.6144 8.19007 50.2477 8.35528 50.8004 8.68565C51.3331 9.02635 51.7452 9.51164 52.0366 10.1415C52.3381 10.7609 52.4889 11.4733 52.4889 12.2786C52.4889 13.0943 52.3381 13.817 52.0366 14.4468C51.7452 15.0663 51.3331 15.5464 50.8004 15.8871C50.5492 16.0626 50.2527 16.1917 49.9109 16.2743C49.5793 16.3672 49.2426 16.4137 48.9008 16.4137C48.3079 16.4137 47.8657 16.3672 47.5742 16.2743C46.9712 16.0884 46.544 15.7787 46.2927 15.345V19H44.4535V8.40693ZM21.2367 8.40693H23.0609V11.3804H26.1816V8.40693H27.9907V16.2278H26.1816V12.9291H23.0609V16.2278H21.2367V8.40693ZM28.7897 8.40693H35.8V9.89364H33.2069V16.2278H31.3526V9.89364H28.7897V8.40693ZM38.3176 8.40693C39.0011 10.3273 39.6242 12.227 40.1871 14.1061C40.7197 12.2477 41.3227 10.3479 41.9962 8.40693H43.8354L41.0313 16.3827C40.8001 17.0331 40.579 17.5339 40.368 17.8849C40.1368 18.236 39.8503 18.4992 39.5086 18.6748C39.177 18.8606 38.7348 18.9536 38.1819 18.9536C37.8704 18.9536 37.6995 18.9484 37.6694 18.9381L37.0513 17.4513C37.2422 17.4926 37.4784 17.5132 37.7598 17.5132C38.1015 17.5132 38.378 17.4616 38.589 17.3584C38.78 17.2758 38.9257 17.1622 39.0262 17.0177C39.1267 16.8835 39.2121 16.7131 39.2825 16.5066L36.3879 8.40693H38.3176ZM13.7893 12.2477C13.7893 13.1046 13.9903 13.7602 14.3923 14.2145C14.7944 14.6585 15.3522 14.8804 16.0658 14.8804C16.7894 14.8804 17.3522 14.6585 17.7542 14.2145C18.1663 13.7602 18.3723 13.1046 18.3723 12.2477C18.3723 11.4114 18.1713 10.7816 17.7693 10.3583C17.3673 9.9246 16.7994 9.70781 16.0658 9.70781C15.3421 9.70781 14.7793 9.9246 14.3772 10.3583C13.9853 10.7816 13.7893 11.4114 13.7893 12.2477ZM46.2475 12.2631C46.2676 13.0375 46.4686 13.657 46.8506 14.1216C47.2325 14.5862 47.7702 14.8185 48.4636 14.8185C49.1572 14.8185 49.6898 14.5862 50.0617 14.1216C50.4436 13.657 50.6396 13.0375 50.6497 12.2631C50.6396 11.4991 50.4436 10.89 50.0617 10.4357C49.6898 9.97111 49.1572 9.73877 48.4636 9.73877C47.7702 9.73877 47.2325 9.96591 46.8506 10.4202C46.4686 10.8745 46.2676 11.4888 46.2475 12.2631Z" fill="white"/>
<path d="M69.1989 15.7506H55.8894V5H57.2823V14.5847H61.8401V5H63.2329V14.5847H67.8055V5H69.1989V15.7506ZM73.9414 12.374H72.6239V15.7506H71.3218V8.10407H72.6239V11.3141H73.9562L76.4697 8.10407H77.8632L75.0009 11.7835L78.1052 15.7506H76.6211L73.9414 12.374ZM86.1952 11.9349C86.1952 12.7223 86.0285 13.4188 85.6952 14.0245C85.352 14.6402 84.8777 15.1197 84.2723 15.4629C83.6663 15.796 82.975 15.9626 82.1975 15.9626C81.41 15.9626 80.7188 15.791 80.1232 15.4478C79.5074 15.1147 79.0281 14.6453 78.685 14.0396C78.3517 13.4339 78.185 12.7324 78.185 11.9349V11.8743C78.185 11.0971 78.3566 10.4106 78.6997 9.81507C79.0331 9.2094 79.5025 8.74001 80.1079 8.40691C80.7139 8.06369 81.41 7.89206 82.1975 7.89206C82.975 7.89206 83.6663 8.05861 84.2723 8.39172C84.8777 8.72488 85.3471 9.19426 85.6804 9.79993C86.0236 10.4056 86.1952 11.0971 86.1952 11.8743V11.9349ZM79.5177 11.9349C79.5177 12.5204 79.6287 13.0301 79.8505 13.4642C80.0729 13.9185 80.3855 14.2667 80.7893 14.509C81.1931 14.7512 81.6625 14.8724 82.1975 14.8724C82.7324 14.8724 83.2018 14.7462 83.6056 14.4939C84.0094 14.2516 84.3176 13.9083 84.5296 13.4642C84.7515 13.0201 84.8624 12.5103 84.8624 11.9349V11.8743C84.8624 11.299 84.7515 10.7942 84.5296 10.3601C84.3072 9.9261 83.9892 9.58791 83.5756 9.34568C83.1718 9.10339 82.7128 8.98225 82.1975 8.98225C81.6827 8.98225 81.2237 9.09836 80.8199 9.33054C80.4161 9.57278 80.0981 9.91599 79.8658 10.3601C79.6336 10.8043 79.5177 11.309 79.5177 11.8743V11.9349ZM86.4908 14.6301C86.6422 14.6705 86.8034 14.6907 86.9755 14.6907C87.258 14.6907 87.47 14.615 87.611 14.4636C87.7525 14.3021 87.8481 14.0295 87.8989 13.6459C87.9492 13.2119 87.9847 12.6516 88.005 11.9652L88.0957 8.10407H93.7589V15.7506H92.4568V9.16394H89.2618L89.1858 12.056C89.1557 13.0957 89.0902 13.8579 88.9891 14.3424C88.8782 14.8673 88.676 15.2459 88.3836 15.478C88.1006 15.7102 87.6716 15.8263 87.0962 15.8263L86.7935 15.796L86.4908 15.7355V14.6301ZM100.569 15.7506V14.7209C100.296 15.1248 99.9331 15.4377 99.4784 15.6597C99.0244 15.8717 98.4992 15.9777 97.9036 15.9777C97.0561 15.9777 96.3895 15.7859 95.9053 15.4024C95.4305 15.0188 95.1933 14.4787 95.1933 13.7822V13.7064C95.1933 12.9393 95.4611 12.3589 95.996 11.9652C96.5414 11.5614 97.379 11.3292 98.5096 11.2686L100.508 11.1324V10.6176C100.508 10.0725 100.352 9.66365 100.039 9.39109C99.726 9.10842 99.2719 8.96711 98.6763 8.96711C98.1812 8.96711 97.732 9.06809 97.3282 9.26994C96.9348 9.46174 96.531 9.78479 96.1173 10.239L95.2846 9.48196C96.1627 8.42204 97.2829 7.89206 98.6457 7.89206C99.6249 7.89206 100.387 8.12424 100.932 8.5886C101.477 9.0529 101.75 9.69895 101.75 10.5267V15.7506H100.569ZM98.6003 12.1923C97.8129 12.2327 97.2577 12.3639 96.9348 12.586C96.6118 12.808 96.4501 13.1614 96.4501 13.6459V13.7216C96.4501 14.1153 96.5965 14.4181 96.8894 14.6301C97.1922 14.8421 97.6162 14.9481 98.161 14.9481C98.5954 14.9481 98.9943 14.8623 99.3577 14.6907C99.721 14.5191 100.004 14.2818 100.205 13.979C100.407 13.6661 100.508 13.3128 100.508 12.9191V12.1015L98.6003 12.1923Z" fill="white" fill-opacity="0.9"/>
</svg>
