<svg xmlns="http://www.w3.org/2000/svg" width="24" height="24" viewBox="0 0 24 24" fill="none"><rect width="24" height="24" fill="none"/>
<path d="M19.1611 9.61426C19.8858 9.61426 20.7012 9.79634 21.3896 10.2686V12.6289C20.973 12.1387 20.339 11.6486 19.4697 11.6484C18.2196 11.6484 17.4043 12.6478 17.4043 13.9736C17.4045 15.2084 18.1835 16.1709 19.4697 16.1709C20.3209 16.1707 20.973 15.717 21.3896 15.2812V17.5879H21.3721C20.6475 18.0782 19.8862 18.1865 19.1797 18.1865C16.77 18.1865 15.0488 16.4976 15.0488 13.9004C15.0489 11.1944 16.9509 9.61431 19.1611 9.61426ZM5.40625 9.84961C7.70661 9.8498 8.35924 11.4479 8.35938 12.5557C8.35938 13.6816 7.70684 15.2801 5.40625 15.2803H4.26465V17.9502H2V9.84961H5.40625ZM14.5918 11.793H12.8164V17.9502H10.5332V11.793H8.75781V9.84961H14.5918V11.793ZM4.26465 13.5H4.91699C5.91315 13.4999 6.02148 12.9007 6.02148 12.5557C6.0214 12.1562 5.87665 11.63 4.91699 11.6299H4.26465V13.5ZM20.7656 6C21.4902 6 21.9978 6.52649 21.998 7.28906C21.998 8.01552 21.527 8.57907 20.7842 8.5791C20.295 8.5791 20.0228 8.28807 19.9141 8.10645V9.61426H19.5879V6.09082H19.8779V6.52637C20.0229 6.25406 20.2949 6.00013 20.7656 6ZM15.9014 8.21582H16.2451V9.08789H15.9375V8.48828H14.126V9.10547H13.8174V8.2334C14.3246 8.19708 14.3613 7.68917 14.3613 7.27148V6.10938H15.9014V8.21582ZM9.60742 6.01855C10.4227 6.01859 10.6943 6.72662 10.6943 7.18066V7.34375H8.7373C8.71919 7.81597 9.02766 8.34277 9.60742 8.34277C9.80671 8.34277 10.1868 8.30633 10.4404 7.76172L10.6943 7.87012C10.4951 8.26967 10.169 8.59665 9.60742 8.59668C8.81026 8.59668 8.39357 7.94328 8.39355 7.30762C8.39355 6.63562 8.82837 6.01855 9.60742 6.01855ZM17.832 6.01855C18.6473 6.01855 18.9189 6.72661 18.9189 7.18066V7.34375H16.9629C16.9448 7.8159 17.2524 8.34264 17.832 8.34277C18.0313 8.34277 18.4124 8.30658 18.666 7.76172L18.9189 7.87012C18.7197 8.26968 18.3937 8.59668 17.832 8.59668C17.035 8.59656 16.6182 7.94322 16.6182 7.30762C16.6182 6.63568 17.0531 6.01867 17.832 6.01855ZM11.6738 7.14453H13.0137V6.10938H13.3398V8.48828H13.0137V7.39844H11.6738V8.48828H11.3477V6.10938H11.6738V7.14453ZM8.08301 6.38086H7.25V8.4873H6.90527V6.38086H6.07227V6.12695H8.08301V6.38086ZM20.7295 6.29102C20.2224 6.29118 19.878 6.76287 19.8779 7.30762C19.8779 7.97943 20.3128 8.32501 20.7656 8.3252C21.3273 8.3252 21.6357 7.88881 21.6357 7.30762C21.6357 6.83541 21.3817 6.29102 20.7295 6.29102ZM14.7051 7.50781C14.705 7.81637 14.6323 8.07002 14.415 8.2334H15.5752V6.38086H14.7051V7.50781ZM9.60742 6.29004C9.15454 6.29004 8.82839 6.61733 8.75586 7.07129H10.3682C10.35 6.68996 10.0965 6.29007 9.60742 6.29004ZM17.832 6.29004C17.3793 6.29015 17.053 6.61738 16.9805 7.07129H18.5928C18.5746 6.68995 18.3211 6.29004 17.832 6.29004Z" fill="white"/>
</svg>
