<svg xmlns="http://www.w3.org/2000/svg" width="48" height="48" viewBox="0 0 48 48" fill="none"><rect width="48" height="48" fill="none"/>
<path d="M43.9844 20.3552C42.9971 21.4339 41.5776 22.1104 40 22.1104C38.4224 22.1104 37.0029 21.434 36.0156 20.3553C36.0053 20.4723 36 20.5908 36 20.7105C36 22.9196 37.7909 24.7105 40 24.7105C42.2091 24.7105 44 22.9196 44 20.7105C44 20.5908 43.9947 20.4723 43.9844 20.3552Z" fill="#0B1F35"/>
<path d="M43.9844 16C42.9971 17.0787 41.5776 17.7552 40 17.7552C38.4224 17.7552 37.0029 17.0787 36.0156 16C36.0053 16.1171 36 16.2355 36 16.3552C36 18.5644 37.7909 20.3552 40 20.3552C42.2091 20.3552 44 18.5644 44 16.3552C44 16.2355 43.9947 16.117 43.9844 16Z" fill="#0B1F35"/>
<path d="M44 12C44 14.2091 42.2091 16 40 16C37.7909 16 36 14.2091 36 12C36 9.79086 37.7909 8 40 8C42.2091 8 44 9.79086 44 12Z" fill="#0B1F35"/>
<path d="M12.7857 17.9716H14.1753L13.513 16.0541H13.487L12.7857 17.9716Z" fill="#0B1F35"/>
<path fill-rule="evenodd" clip-rule="evenodd" d="M34 12H12C9.79086 12 8 13.7909 8 16V32C8 34.2091 9.79086 36 12 36H36C38.2091 36 40 34.2091 40 32V26.5C36.6863 26.5 34 23.8137 34 20.5V12ZM11 22V21.0442H16V22H11ZM14.4089 15.7001L15.8831 19.7457H14.7922L14.461 18.784H12.487L12.1299 19.7457H11.1039L12.651 15.7001C12.8011 15.3077 12.9759 15 13.539 15C14.1019 15 14.2663 15.309 14.4089 15.7001ZM15.0769 25H12C11.4477 25 11 25.4477 11 26V27C11 27.5523 11.4477 28 12 28H15C15.5523 28 16 27.5523 16 27V25.9231C16 25.4133 15.5867 25 15.0769 25Z" fill="#0B1F35"/>
</svg>
