<svg xmlns="http://www.w3.org/2000/svg" width="24" height="24" viewBox="0 0 24 24" fill="none"><rect width="24" height="24" fill="none"/>
<path d="M22 4H2C0.895431 4 0 4.89543 0 6V18C0 19.1046 0.89543 20 2 20H22C23.1046 20 24 19.1046 24 18V6C24 4.89543 23.1046 4 22 4Z" fill="#469CD6"/>
<path d="M5.00172 7.55303C5.02429 7.50685 5.02429 7.43758 5.13716 7.43758C5.22745 7.50684 5.69412 8.16196 5.94982 8.38426C6.40129 8.77679 7.2591 9.05387 7.52998 9.26168C7.688 9.3829 7.688 9.53875 7.84601 9.60802C8.00403 9.67729 8.72639 9.51566 8.9747 9.44639C9.22302 9.37712 9.53905 9.44639 9.62935 9.35403C9.71964 9.26168 9.60677 9.10005 9.67449 9.00769C9.74221 8.91533 9.85508 8.89224 9.99053 8.73061C10.126 8.56898 10.0582 8.49971 10.0582 8.31499C10.0582 8.13028 10.3517 7.78393 10.4194 7.59921C10.4871 7.41449 10.3969 7.02197 10.4871 6.92961C10.5774 6.83725 10.8935 6.92961 11.0063 6.83725C11.1192 6.74489 11.0515 6.35236 11.1869 6.32927C11.3224 6.30618 11.3901 6.44472 11.4127 6.44472C11.4352 6.44472 11.819 6.05219 12.1125 6.00601C12.4059 5.95983 12.9025 6.19073 12.9703 6.23691C13.038 6.28309 13.6701 6.32927 13.8958 6.42163C14.1215 6.51399 14.1441 6.72179 14.2795 6.79106C14.415 6.86033 15.0019 6.83724 15.2728 6.99887C15.5437 7.1605 15.4534 7.46067 15.5663 7.50685C15.6791 7.55303 15.8371 7.41449 16.0403 7.46067C16.2435 7.50685 16.2886 7.57612 16.4918 7.64539C16.6949 7.71466 16.9658 7.69157 17.1238 7.87628C17.2819 8.061 17.1013 8.36117 17.1916 8.59207C17.2819 8.82297 17.3947 8.86914 17.5076 9.35403C17.5979 9.74194 17.4549 10.193 17.3722 10.37C17.7183 10.47 18.4422 10.7209 18.5686 10.9241C18.7266 11.1781 18.5234 11.4321 18.5686 11.5476C18.6137 11.663 18.6363 11.5245 18.704 11.7554C18.7717 11.9863 18.5234 12.171 18.6363 12.3326C18.7492 12.4942 18.9749 12.5404 18.9975 12.7251C19.02 12.9099 18.8846 13.0022 18.862 13.1869C18.8395 13.3717 18.9072 13.3717 18.7492 13.6487C18.5911 13.9258 18.2751 13.972 18.1622 14.3183C18.0494 14.6647 18.4331 14.757 18.2977 15.1265C18.2323 15.3048 18.0719 15.2188 17.8236 15.3805C17.5753 15.5421 17.7559 16.281 17.4399 16.2579C17.1238 16.2348 17.0344 16.3447 17.011 16.4888C16.9884 16.6273 17.0561 16.5811 17.0787 16.8582C17.1013 17.1353 16.2209 17.4124 15.9952 17.5047C15.7694 17.5971 15.6565 17.8511 15.476 17.8742C15.2954 17.8973 15.2502 17.7818 14.9116 17.7587C14.573 17.7356 14.5053 17.9203 14.1893 17.9896C13.8732 18.0589 13.6701 17.7587 13.4895 17.7125C13.3089 17.6664 13.2412 17.8049 13.0606 17.7587C12.88 17.7125 12.9025 17.6202 12.8123 17.5971C12.722 17.574 12.7445 17.7125 12.6091 17.7587C12.5007 17.7957 12.3683 17.7433 12.3156 17.7125C12.3984 17.6356 12.573 17.4632 12.6091 17.3893C12.6542 17.2969 12.5639 17.2969 12.6768 17.0198C12.7897 16.7428 12.9703 16.7428 12.9928 16.4657C13.0154 16.1886 12.6542 16.0963 12.5639 15.8654C12.5188 15.7499 12.5414 15.7037 12.4962 15.6114C12.4511 15.519 12.3833 15.5031 12.3156 15.519C12.2479 15.5349 12.2705 15.7268 11.1192 15.7037C10.4643 15.6906 9.83251 15.4036 9.71964 15.3574C9.60677 15.3112 9.40361 15.4959 8.9747 15.4036C8.5458 15.3112 8.1169 14.6647 8.04918 14.6185C7.98146 14.5723 7.95888 14.7109 7.688 14.5261C7.41711 14.3414 7.19137 13.464 7.07851 13.2562C6.96564 13.0484 6.51416 12.8175 6.46901 12.7482C6.42387 12.679 6.53673 12.5173 6.49159 12.4481C6.44644 12.3788 6.26585 12.0094 6.37872 11.8939C6.49159 11.7785 6.62703 11.9401 6.7399 11.8477C6.85277 11.7554 6.7399 11.5707 6.78505 11.4321C6.83019 11.2936 7.03336 11.2474 7.03336 11.155C7.03336 11.0627 6.49159 11.0165 6.46901 10.9241C6.44644 10.8318 6.80762 10.7856 6.83019 10.5085C6.85277 10.2314 5.99496 10.2084 5.92724 9.8851C5.89281 9.72073 6.10783 9.58493 6.08526 9.51566C6.06268 9.44639 5.67893 9.30785 5.43062 9.03077C5.18231 8.7537 4.97914 7.59921 5.00172 7.55303Z" fill="white"/>
</svg>
