<svg xmlns="http://www.w3.org/2000/svg" width="24" height="24" viewBox="0 0 24 24" fill="none"><rect width="24" height="24" fill="none"/>
<path d="M22 4H2C0.895431 4 0 4.89543 0 6V18C0 19.1046 0.89543 20 2 20H22C23.1046 20 24 19.1046 24 18V6C24 4.89543 23.1046 4 22 4Z" fill="#41479B"/>
<path d="M6.6006 9.00638C6.47004 8.79751 6.00002 8.72014 6 8.32753C5.99998 7.93492 6.33947 7.90978 6.3917 7.64869C6.44392 7.3876 6.36559 7.33277 6.54838 7.02207C6.68662 6.78709 7.09676 6.68265 7.43623 6.65654C7.7757 6.63043 7.67125 6.31712 7.93238 6.2649C8.19351 6.21269 8.3763 6.34323 8.58521 6.34323C8.79412 6.34323 8.79412 6.10825 9.08136 6.13436C9.36861 6.16047 9.39472 6.39545 9.60363 6.39545C9.81253 6.39545 9.81253 6.18658 10.0476 6.21269C10.2826 6.2388 10.152 6.47378 10.3087 6.526C10.4654 6.57822 10.5176 6.16047 10.6743 5.9777C10.8309 5.79494 10.9876 5.95159 11.0921 5.87327C11.1965 5.79494 11.0137 5.63829 11.2749 5.58606C11.536 5.53384 11.8232 5.45552 11.7188 5.32497C11.6143 5.19443 11.3271 5.42941 11.2749 5.22054C11.2226 5.01167 11.9799 4.93334 12.2672 5.06388C12.5544 5.19443 12.1888 5.55996 12.3455 5.63829C12.5022 5.71662 12.7633 5.29887 13.3639 5.40331C13.9645 5.50774 13.8862 6.08215 14.0168 6.2388C14.1473 6.39546 14.7218 6.49989 14.8002 6.76099C14.8785 7.02208 14.9307 7.46594 14.6696 7.49204C14.4085 7.51815 14.4868 7.23095 14.304 7.20485C14.1212 7.17874 13.8601 7.70092 13.9645 7.80536C14.069 7.90979 14.1996 7.80536 14.539 8.06645C14.8785 8.32754 14.539 9.31969 14.6696 9.39802C14.8002 9.47635 15.0091 9.3458 15.1657 9.39802C15.3224 9.45024 15.1919 9.55467 15.2963 9.633C15.4008 9.71133 15.5052 9.60689 15.6097 9.73744C15.7141 9.86798 15.5574 10.4424 15.7925 10.4685C16.0275 10.4946 16.3408 10.1291 16.4975 10.2596C16.6542 10.3902 16.3147 10.5468 16.2364 10.6774C16.158 10.8079 16.3408 10.834 16.367 10.9907C16.3931 11.1473 16.1058 11.1996 16.1842 11.4868C16.2625 11.774 16.7848 11.774 16.8631 11.9306C16.9414 12.0873 16.7586 12.1134 16.7848 12.2178C16.8109 12.3223 16.9414 12.2439 16.9937 12.4006C17.0459 12.5572 16.7586 12.5833 16.7325 12.7139C16.7064 12.8444 16.837 12.8705 16.7064 13.1055C16.5759 13.3405 16.3408 13.3144 16.1058 13.3927C15.8708 13.4711 16.1058 13.6277 15.8186 13.8105C15.5313 13.9932 14.9568 13.8105 14.8263 13.9149C14.6957 14.0194 14.8524 14.3066 14.7479 14.411C14.6435 14.5154 14.3562 14.5676 14.2518 14.646C14.1473 14.7243 13.834 15.0115 13.7817 15.3248C13.7295 15.6381 13.7556 15.8209 13.6512 15.9775C13.5467 16.1342 13.3378 16.0559 13.0506 16.1081C12.7633 16.1603 12.8417 16.3692 12.6328 16.3692C12.4239 16.3692 12.4761 16.2647 12.1888 16.2386C11.9016 16.2125 11.1965 17.048 10.9876 17.0741C10.7787 17.1002 10.7265 16.813 10.5437 16.9175C10.3609 17.0219 10.622 17.4919 10.4654 17.8052C10.3087 18.1185 9.78642 18.3535 9.68196 18.4057C9.57751 18.4579 9.65585 18.6407 9.60363 18.6929C9.5514 18.7451 9.42083 18.7451 9.31638 18.7451C9.21193 18.7451 9.10747 19.0845 9.00302 18.9801C8.89857 18.8757 9.00302 18.484 9.18581 18.3013C9.36861 18.1185 9.7603 18.0402 9.83864 17.753C9.8821 17.5937 9.65585 17.4919 9.65585 17.3091C9.65585 17.2015 9.70808 17.1786 9.86476 17.0741C10.0214 16.9697 9.89087 16.7086 9.9431 16.4736C9.99532 16.2386 10.9093 15.9253 10.7787 15.5337C10.7233 15.3675 10.5176 15.5859 10.3609 15.4292C10.2042 15.2726 10.387 14.8548 10.152 14.5938C9.91698 14.3327 9.27742 14.4523 9.08136 14.2282C8.89857 14.0193 9.08136 13.3144 9.00302 13.1316C8.92468 12.9489 8.45464 12.7661 8.40242 12.6617C8.35019 12.5572 8.50687 12.5311 8.35019 12.3745C8.19351 12.2178 7.80181 12.2178 7.67125 12.035C7.54068 11.8523 7.67125 11.1212 7.59291 10.9124C7.51457 10.7035 7.33177 10.5468 7.30566 10.3902C7.27955 10.2335 7.30566 10.1291 7.33177 10.0247L7.33177 10.0246C7.35789 9.9202 7.1751 9.633 7.07064 9.60689C6.96619 9.58078 6.80951 9.6591 6.67894 9.55467C6.54838 9.45023 6.73117 9.21525 6.6006 9.00638Z" fill="white"/>
</svg>
