<svg xmlns="http://www.w3.org/2000/svg" width="24" height="24" viewBox="0 0 24 24" fill="none"><rect width="24" height="24" fill="none"/>
<path d="M22.2026 4H1.79742C0.804703 4 0 4.81882 0 5.82896V6.66671H24V5.82896C24 4.81882 23.1953 4 22.2026 4Z" fill="#464655"/>
<path d="M24 6.66693H0V9.3336H24V6.66693Z" fill="#FFE15A"/>
<path d="M24 9.33325H0V11.9999H24V9.33325Z" fill="#FF4B55"/>
<path d="M24 12H0V14.6667H24V12Z" fill="#464655"/>
<path d="M24 14.6667H0V17.3334H24V14.6667Z" fill="#FFE15A"/>
<path d="M0 18.1711C0 19.1812 0.804703 20 1.79742 20H22.2026C23.1952 20 24 19.1812 24 18.1711V17.3333H0V18.1711Z" fill="#FF4B55"/>
<path d="M12 14.5263C13.3712 14.5263 14.4828 13.3952 14.4828 12C14.4828 10.6047 13.3712 9.47363 12 9.47363C10.6288 9.47363 9.51721 10.6047 9.51721 12C9.51721 13.3952 10.6288 14.5263 12 14.5263Z" fill="#F5F5F5"/>
<path d="M12.1497 10.4618L12.3943 10.3623C12.4297 10.3479 12.4468 10.3065 12.4312 10.2711C12.3763 10.1474 12.2294 9.89137 11.9501 9.88364C11.7732 9.87877 11.641 9.91932 11.5664 9.95065C11.5283 9.96663 11.5129 10.0128 11.5338 10.049L11.6813 10.3055L12.1497 10.4618Z" fill="#FF4B55"/>
<path d="M11.9501 9.88364C11.9297 9.88306 11.9114 9.88426 11.8922 9.88483L11.8656 10.2821L12.0076 10.3621L12.3149 10.0793C12.234 9.97975 12.1154 9.88817 11.9501 9.88364Z" fill="#FFE15A"/>
<path d="M13.002 12.7981L11.8964 11.4854C11.8964 11.2138 11.9928 10.9919 12.0462 10.8899C12.1984 10.8207 12.2965 10.6504 12.2557 10.4624C12.226 10.3257 12.1175 10.2141 11.9834 10.1829C11.742 10.1268 11.5278 10.3118 11.5278 10.5478C11.5278 10.5567 11.5298 10.565 11.5304 10.5737C11.2919 10.6378 11.2475 10.7158 11.2475 10.7158C11.2475 10.7158 11.4038 10.6735 11.5395 10.6373C11.5422 10.6486 11.5459 10.6594 11.5495 10.6703L11.282 10.7627L11.5741 10.7266C11.6066 10.787 11.6547 10.8371 11.7128 10.8719C11.4944 11.0508 11.1592 11.3871 11.1592 11.7668C11.1592 12.1139 11.4119 12.3453 11.7301 12.4991C11.8413 12.5529 11.9437 12.6238 12.0278 12.7154L12.0309 12.7188L12.0585 13.1497C11.8303 13.1497 11.5582 13.1497 11.4356 13.1497C11.2052 13.1497 11.1419 13.3021 11.1419 13.5541L11.2513 13.3959L11.3435 13.5717L11.355 13.3724L11.4529 13.5013C11.4529 13.5013 11.4519 13.3329 11.5768 13.3109C11.643 13.2991 11.8724 13.2845 12.0673 13.2845L12.1086 13.9267C11.8443 13.9254 11.5451 14.0521 11.5451 14.0521C11.6372 14.0345 11.8619 14.0697 11.8619 14.0697L11.8245 14.1811C12.0836 14.0375 12.5588 14.0345 12.5588 14.0345C12.5588 14.0345 12.4551 13.9626 12.2132 13.9344L12.2188 13.2844H12.599L12.6566 13.132C12.6566 13.132 12.4604 12.8672 12.4604 12.727C12.7645 12.7857 13.002 12.7981 13.002 12.7981ZM12.2199 13.1497L12.2218 12.9268C12.336 13.0512 12.4262 13.1497 12.4262 13.1497C12.4262 13.1497 12.341 13.1497 12.2199 13.1497Z" fill="#464655"/>
<path d="M13.002 12.9856C12.9099 12.6106 12.5061 12.4953 12.0806 12.2355C11.6199 11.9542 11.8963 11.4855 11.8963 11.4855C11.8963 11.4855 13.4397 11.9465 13.5549 12.6106C13.6446 13.1278 13.2785 13.4544 13.0942 13.5481L13.1604 13.3606H12.8177C12.8177 13.3606 13.1805 13.0735 13.1863 12.798L13.002 12.9856Z" fill="#696E7D"/>
<path d="M13.5549 12.6105C13.4779 12.1665 12.7631 11.8136 12.2973 11.6282C12.1483 11.6114 12.0173 11.8663 12.4262 12.1417C12.9763 12.5122 13.0021 12.9856 13.0021 12.9856L13.1864 12.798C13.1807 13.0734 12.8178 13.3606 12.8178 13.3606H13.1605L13.0943 13.5482C13.2785 13.4544 13.6446 13.1277 13.5549 12.6105Z" fill="#FFFCFF"/>
<path d="M13.5549 12.6105C13.5039 12.3163 13.1725 12.0624 12.8193 11.8704C12.6492 11.8187 12.501 11.8253 12.501 11.8253C12.6047 11.8898 12.6507 12.0538 12.6507 12.0538C12.5759 12.0069 12.4089 12.0304 12.4089 12.0304C12.4553 12.0709 12.4993 12.1535 12.5288 12.2169C12.9792 12.5732 13.0021 12.9856 13.0021 12.9856L13.1864 12.7981C13.1807 13.0735 12.8178 13.3607 12.8178 13.3607H13.1605L13.0943 13.5482C13.2785 13.4544 13.6446 13.1278 13.5549 12.6105Z" fill="#FF4B55"/>
<path d="M11.7464 10.5753C11.7803 10.5753 11.8078 10.5473 11.8078 10.5128C11.8078 10.4783 11.7803 10.4503 11.7464 10.4503C11.7124 10.4503 11.6849 10.4783 11.6849 10.5128C11.6849 10.5473 11.7124 10.5753 11.7464 10.5753Z" fill="#F5F5F5"/>
<path d="M11.5854 10.7509C11.5854 10.7509 11.451 10.9111 11.5393 10.958C11.6276 11.0049 11.7128 10.8717 11.7128 10.8717L11.5854 10.7509Z" fill="#FF4B55"/>
</svg>
