<svg xmlns="http://www.w3.org/2000/svg" width="24" height="24" viewBox="0 0 24 24" fill="none"><rect width="24" height="24" fill="none"/>
<path d="M22 4H2C0.895431 4 0 4.89543 0 6V18C0 19.1046 0.89543 20 2 20H22C23.1046 20 24 19.1046 24 18V6C24 4.89543 23.1046 4 22 4Z" fill="#F5F5F5"/>
<path d="M11.8661 18.6467C11.8615 18.6447 11.8575 18.6418 11.8541 18.6382L11.8498 18.6342C11.8306 18.6162 11.8123 18.5972 11.7951 18.5774C11.7491 18.5251 11.6873 18.4485 11.633 18.3808C11.5253 18.2466 11.4363 18.131 11.4195 18.1092C11.4017 18.086 11.3771 18.0689 11.3491 18.0603L11.1236 17.9907L11.0206 17.9427C10.9742 17.9211 10.9618 17.8609 10.9958 17.8227C11.0176 17.7981 11.0527 17.7903 11.0829 17.8032L11.3477 17.9166C11.3772 17.9293 11.408 17.9389 11.4394 17.9453L11.5729 17.9727C11.6307 17.9846 11.6852 18.0088 11.7328 18.0438L12.1567 18.3556C12.1569 18.3558 12.157 18.3561 12.1568 18.3562C12.1558 18.3571 12.0845 18.4163 12.0138 18.4807C11.9822 18.5094 11.9424 18.5464 11.9143 18.5769C11.9027 18.5893 11.892 18.6025 11.8822 18.6163C11.8763 18.6261 11.8709 18.6363 11.8661 18.6467M10.0222 18.0929C9.77997 18.0907 9.54267 18.0243 9.33447 17.9005C9.33444 17.9005 9.33441 17.9005 9.33438 17.9005C9.33427 17.9005 9.33419 17.9004 9.33419 17.9003V17.9003C9.33419 17.9002 9.3342 17.9002 9.33422 17.9001C9.35955 17.8579 9.39342 17.8214 9.43368 17.793C9.50077 17.7438 9.6218 17.6849 9.81739 17.6841H9.82144C9.88636 17.6841 9.95536 17.6903 10.0283 17.7026C10.3114 17.7505 10.3093 18.0942 10.0222 18.0929ZM9.00697 17.8677C9.00692 17.8678 9.00682 17.8679 9.00672 17.8679C8.96536 17.8686 8.92564 17.8519 8.8973 17.8218C8.87279 17.7933 8.85592 17.759 8.84821 17.7223C8.84134 17.6926 8.83716 17.6625 8.83569 17.6321C8.83405 17.598 8.85593 17.5655 8.89007 17.5642H8.89395C8.98075 17.5642 9.04916 17.6395 9.07848 17.7142C9.09271 17.7436 9.09695 17.7767 9.09071 17.8086C9.08918 17.8164 9.08646 17.824 9.08206 17.8306C9.06569 17.8551 9.03728 17.8695 9.00724 17.8676C9.00713 17.8676 9.00702 17.8676 9.00697 17.8677ZM10.7931 17.6607C10.7932 17.6607 10.7931 17.6608 10.7931 17.6607C10.1932 17.575 9.93895 17.3581 9.83126 17.1912C9.76305 17.09 9.73097 16.9687 9.7402 16.8469V16.8469C9.7402 16.8466 9.74038 16.8465 9.7406 16.8465C9.74063 16.8465 9.74067 16.8464 9.74069 16.8464C9.77082 16.8395 9.80165 16.8361 9.83253 16.8363C9.99218 16.8363 10.4005 16.9166 10.7936 17.6605C10.7936 17.6607 10.7935 17.6608 10.7933 17.6608L10.7931 17.6607ZM9.56345 17.5419C9.30708 17.5419 9.11191 17.4976 8.98331 17.4105C8.92862 17.3755 8.88458 17.3262 8.85589 17.2679C8.83741 17.229 8.86307 17.1861 8.90436 17.1737C8.96904 17.1543 9.03608 17.1432 9.10378 17.1409C9.11702 17.1403 9.13037 17.1399 9.14437 17.1399C9.34252 17.1399 9.64382 17.2046 9.96179 17.5126L9.96183 17.5126C9.96193 17.5127 9.96186 17.5129 9.96172 17.5129C9.82963 17.5311 9.69647 17.5408 9.56314 17.5419L9.56345 17.5419ZM8.32219 17.4945C8.32212 17.4943 8.32193 17.4942 8.32173 17.4942C8.05143 17.4941 7.68026 17.4115 7.44875 17.18C7.44865 17.1799 7.44873 17.1798 7.44887 17.1798H7.44916C7.44918 17.1798 7.44921 17.1798 7.44923 17.1798C7.62528 17.1382 7.80503 17.1143 7.98581 17.1085C8.00268 17.1081 8.01969 17.1079 8.0368 17.1078C8.29026 17.1078 8.48427 17.157 8.61349 17.2539C8.62436 17.2604 8.6344 17.2681 8.64345 17.2767C8.68538 17.3168 8.70135 17.3936 8.65227 17.4244C8.59409 17.4684 8.49008 17.4918 8.34305 17.4941L8.32267 17.4948C8.32245 17.4948 8.32226 17.4947 8.32219 17.4945ZM7.44602 17.0446C7.44605 17.0447 7.446 17.0448 7.44593 17.0448C7.41284 17.0448 7.38144 17.03 7.36039 17.0044C7.34089 16.9788 7.32775 16.949 7.32209 16.9173C7.31327 16.8755 7.30988 16.8328 7.31203 16.7902C7.31203 16.7899 7.31225 16.7895 7.31259 16.7894C7.32564 16.7834 7.33978 16.7803 7.3541 16.7801C7.38801 16.7814 7.42009 16.7957 7.4436 16.8201C7.46976 16.8458 7.48971 16.877 7.50195 16.9116C7.51419 16.9404 7.5164 16.9725 7.50817 17.0027C7.4981 17.0281 7.47345 17.0447 7.4461 17.0445C7.44603 17.0445 7.44598 17.0446 7.44602 17.0446ZM9.46947 16.999C9.46944 16.9991 9.46936 16.9991 9.46928 16.9991C9.42792 16.9999 9.38819 16.9832 9.35984 16.9531C9.33533 16.9246 9.31842 16.8904 9.31068 16.8536C9.30381 16.8239 9.29962 16.7938 9.29816 16.7635C9.29651 16.7293 9.3184 16.6968 9.35254 16.6956H9.35641C9.44322 16.6956 9.51163 16.7708 9.54094 16.8455C9.55541 16.8754 9.55955 16.9091 9.55286 16.9415C9.55146 16.9482 9.54911 16.9547 9.54541 16.9605C9.52921 16.9859 9.50027 17.0009 9.46968 16.9989C9.46959 16.9989 9.4695 16.9989 9.46947 16.999ZM8.48376 16.9585C8.4838 16.9584 8.48377 16.9583 8.48371 16.9583C7.93979 16.9392 7.65764 16.7846 7.51647 16.6582C7.45611 16.6053 7.40636 16.5414 7.36989 16.4699C7.35643 16.4433 7.34598 16.4153 7.3387 16.3864C7.33859 16.3859 7.33881 16.3855 7.33923 16.3853C7.38279 16.3721 7.42804 16.3654 7.47353 16.3653H7.48625C7.66971 16.3653 8.04318 16.4423 8.48362 16.9582C8.48363 16.9582 8.48364 16.9583 8.48364 16.9583V16.9584C8.48364 16.9585 8.48372 16.9585 8.48376 16.9585ZM9.07468 16.9033C9.07466 16.9034 9.07462 16.9034 9.07458 16.9034C8.63694 16.8367 8.38899 16.6488 8.25805 16.5029C8.20824 16.4494 8.16579 16.3898 8.13167 16.3256C8.09749 16.2613 8.13985 16.1856 8.21266 16.1846C8.2185 16.1846 8.22458 16.1844 8.23077 16.1844C8.23696 16.1844 8.24339 16.1844 8.24989 16.1846C8.47002 16.1894 8.86982 16.2891 9.07451 16.9031C9.07453 16.9031 9.07457 16.9031 9.07462 16.9031C9.07471 16.9031 9.07476 16.9033 9.07469 16.9033L9.07468 16.9033ZM6.82749 16.6931C6.82753 16.6931 6.82751 16.6932 6.82746 16.6932C6.6882 16.6936 6.5494 16.677 6.41419 16.6437C6.18503 16.5864 6.08672 16.4989 6.04461 16.4356C6.02647 16.4093 6.01433 16.3794 6.00897 16.348C6.00713 16.3361 6.00672 16.324 6.00779 16.312C6.00786 16.3113 6.00832 16.3107 6.00897 16.3105C6.12734 16.2811 6.24874 16.2657 6.3707 16.2646C6.37897 16.2646 6.3873 16.2644 6.39577 16.2644C6.49515 16.2642 6.59433 16.2738 6.69182 16.2931C6.91293 16.3393 7.10996 16.4637 7.24671 16.6435C7.24674 16.6436 7.24676 16.6436 7.24676 16.6437C7.24676 16.6438 7.24665 16.6439 7.24653 16.6439H7.24636C7.24633 16.6439 7.24629 16.6439 7.24626 16.6439C7.10924 16.6774 6.96859 16.6939 6.82752 16.693C6.82746 16.693 6.82744 16.6931 6.82749 16.6931ZM7.84369 16.3241C7.84365 16.324 7.84359 16.324 7.84352 16.324C7.80232 16.3251 7.76254 16.3088 7.73398 16.2791C7.7094 16.2502 7.69249 16.2157 7.68489 16.1785C7.67803 16.1493 7.67385 16.1195 7.67238 16.0895C7.6707 16.0554 7.6926 16.0229 7.72675 16.0216H7.73062C7.81725 16.0216 7.88577 16.097 7.91519 16.1716C7.93085 16.2043 7.93382 16.2417 7.92359 16.2765C7.90957 16.3075 7.87778 16.3265 7.84383 16.3242C7.84377 16.3242 7.84372 16.3241 7.84369 16.3241ZM7.07966 16.2193C7.07965 16.2193 7.07963 16.2193 7.0796 16.2192C6.93415 16.1781 6.79503 16.1173 6.66596 16.0386C6.4744 15.9207 6.24007 15.7121 6.21131 15.3881C6.21129 15.3879 6.21148 15.3877 6.21171 15.3877C6.21174 15.3877 6.21177 15.3877 6.2118 15.3877C6.22634 15.3846 6.24109 15.3828 6.25594 15.3824C6.25939 15.3824 6.26344 15.3822 6.26748 15.3822C6.32473 15.3822 6.44192 15.3983 6.58369 15.5061C6.76404 15.6436 6.93058 15.8833 7.0795 16.2194C7.07954 16.2194 7.07967 16.2194 7.07966 16.2193ZM7.57855 16.201C7.57851 16.201 7.57846 16.2009 7.57841 16.2009C7.45973 16.147 7.34951 16.0762 7.25115 15.9906C7.02307 15.7943 6.84013 15.5516 6.71433 15.2791C6.69 15.2264 6.71509 15.1622 6.77306 15.1593C6.77651 15.1591 6.77997 15.159 6.78363 15.159C6.78882 15.159 6.79418 15.159 6.79964 15.1593C6.88299 15.1617 7.00992 15.1963 7.15066 15.3482C7.3123 15.5226 7.45659 15.8093 7.57931 16.2003L7.57937 16.2005C7.57949 16.2009 7.57911 16.2012 7.57873 16.2011C7.57866 16.2011 7.5786 16.2011 7.57855 16.201ZM6.28591 16.1633C6.28592 16.1633 6.28591 16.1633 6.2859 16.1633C6.11927 16.1632 6.06224 16.0729 6.04544 16.034C6.02871 15.9935 6.02214 15.9494 6.02629 15.9058C6.02629 15.9054 6.02657 15.9051 6.02696 15.905C6.05389 15.8983 6.08152 15.8947 6.10926 15.8943H6.11496C6.22392 15.8916 6.32767 15.9409 6.39442 16.0271C6.40323 16.0402 6.43027 16.0856 6.4079 16.1211C6.38993 16.1491 6.34915 16.1633 6.28591 16.1633C6.2859 16.1633 6.2859 16.1633 6.28591 16.1633ZM5.91662 15.6975C5.91665 15.6975 5.91664 15.6976 5.91661 15.6976C5.78757 15.6979 5.65874 15.6869 5.53161 15.6647C5.38317 15.6377 5.29903 15.5115 5.2546 15.4104C5.22479 15.3414 5.2039 15.2689 5.19244 15.1946C5.19241 15.1944 5.19258 15.1942 5.19279 15.1942C5.65194 15.2077 5.8688 15.3418 5.96984 15.452C6.03237 15.5171 6.07138 15.6012 6.08064 15.6909C6.08066 15.6911 6.08053 15.6913 6.08036 15.6913C6.07967 15.6913 6.01508 15.6975 5.91663 15.6975C5.9166 15.6975 5.91659 15.6975 5.91662 15.6975ZM6.39481 15.2199C6.39483 15.2198 6.39484 15.2198 6.39483 15.2198C6.39386 15.2186 6.3416 15.1539 6.28999 15.0737C6.23561 14.9892 6.18531 14.9008 6.18531 14.8288C6.18531 14.7591 6.16892 14.6122 6.15914 14.5308C6.14692 14.429 6.13457 14.3416 6.13326 14.3321C6.13323 14.3319 6.1334 14.3318 6.1336 14.3318C6.13364 14.3318 6.13366 14.3318 6.1337 14.3318C6.14584 14.3363 6.42087 14.4397 6.42087 14.6979C6.42087 14.9564 6.39535 15.217 6.39511 15.2196V15.2198C6.39511 15.2199 6.39506 15.2199 6.39499 15.2199H6.39486C6.39482 15.2199 6.39479 15.2199 6.39481 15.2199ZM6.03767 15.1953C6.03769 15.1953 6.03768 15.1953 6.03765 15.1953C6.03477 15.1953 6.03193 15.195 6.02909 15.1946C5.94765 15.181 5.80439 15.1187 5.64631 15.028C5.47063 14.9273 5.32796 14.8193 5.24461 14.7241C5.16856 14.6373 5.12362 14.5009 5.11048 14.3188C5.10576 14.2516 5.10557 14.1843 5.10985 14.1172C5.11163 14.0892 5.13093 14.0639 5.15895 14.0642C5.21993 14.0652 5.28502 14.0927 5.3729 14.1532C5.453 14.2102 5.52805 14.274 5.59725 14.3438C5.68513 14.4311 5.7682 14.5231 5.84615 14.6194C5.84689 14.6203 5.84752 14.6212 5.84809 14.6222C5.8604 14.6444 5.93652 14.7823 5.99615 14.9166C6.02674 14.98 6.05021 15.0466 6.06612 15.1152C6.07213 15.1353 6.07213 15.1567 6.06612 15.1768C6.06356 15.1833 6.05886 15.1888 6.05281 15.1923C6.04803 15.1943 6.04287 15.1954 6.03768 15.1954C6.03765 15.1954 6.03764 15.1954 6.03767 15.1953Z" fill="#4E5B31"/>
<path d="M10.9604 18.6467C10.965 18.6447 10.969 18.6418 10.9724 18.6382L10.9767 18.6342C10.9959 18.6162 11.0142 18.5972 11.0314 18.5774C11.0775 18.5251 11.1392 18.4485 11.1935 18.3808C11.3012 18.2466 11.3902 18.131 11.407 18.1092C11.4248 18.086 11.4494 18.0689 11.4774 18.0603L11.7029 17.9907L11.8059 17.9427C11.8523 17.9211 11.8647 17.8609 11.8307 17.8227C11.8089 17.7981 11.7738 17.7903 11.7436 17.8032L11.4788 17.9166C11.4493 17.9293 11.4185 17.9389 11.3871 17.9453L11.2536 17.9727C11.1958 17.9846 11.1413 18.0088 11.0937 18.0438L10.6698 18.3556C10.6696 18.3558 10.6696 18.3561 10.6697 18.3562C10.6707 18.3571 10.742 18.4163 10.8127 18.4807C10.8443 18.5094 10.8841 18.5464 10.9122 18.5769C10.9238 18.5893 10.9345 18.6025 10.9443 18.6163C10.9502 18.6261 10.9556 18.6363 10.9604 18.6467M12.8043 18.0929C13.0465 18.0907 13.2838 18.0243 13.492 17.9005C13.4921 17.9005 13.4921 17.9005 13.4921 17.9005C13.4922 17.9005 13.4923 17.9004 13.4923 17.9003V17.9003C13.4923 17.9002 13.4923 17.9002 13.4923 17.9001C13.467 17.8579 13.4331 17.8214 13.3928 17.793C13.3257 17.7438 13.2047 17.6849 13.0091 17.6841H13.0051C12.9401 17.6841 12.8711 17.6903 12.7982 17.7026C12.5151 17.7505 12.5172 18.0942 12.8043 18.0929ZM13.8195 17.8677C13.8196 17.8678 13.8197 17.8679 13.8198 17.8679C13.8611 17.8686 13.9009 17.8519 13.9292 17.8218C13.9537 17.7933 13.9706 17.759 13.9783 17.7223C13.9852 17.6926 13.9894 17.6625 13.9908 17.6321C13.9925 17.598 13.9706 17.5655 13.9364 17.5642H13.9326C13.8458 17.5642 13.7773 17.6395 13.748 17.7142C13.7338 17.7436 13.7296 17.7767 13.7358 17.8086C13.7373 17.8164 13.74 17.824 13.7445 17.8306C13.7608 17.8551 13.7892 17.8695 13.8193 17.8676C13.8194 17.8676 13.8195 17.8676 13.8195 17.8677ZM12.0334 17.6607C12.0333 17.6607 12.0334 17.6608 12.0334 17.6607C12.6333 17.575 12.8876 17.3581 12.9953 17.1912C13.0635 17.09 13.0955 16.9687 13.0863 16.8469V16.8469C13.0863 16.8466 13.0861 16.8465 13.0859 16.8465C13.0859 16.8465 13.0858 16.8464 13.0858 16.8464C13.0557 16.8395 13.0249 16.8361 12.994 16.8363C12.8343 16.8363 12.426 16.9166 12.0329 17.6605C12.0329 17.6607 12.033 17.6608 12.0332 17.6608L12.0334 17.6607ZM13.2631 17.5419C13.5194 17.5419 13.7146 17.4976 13.8432 17.4105C13.8979 17.3755 13.9419 17.3262 13.9706 17.2679C13.9891 17.229 13.9634 17.1861 13.9221 17.1737C13.8575 17.1543 13.7904 17.1432 13.7227 17.1409C13.7095 17.1403 13.6961 17.1399 13.6821 17.1399C13.484 17.1399 13.1827 17.2046 12.8647 17.5126L12.8647 17.5126C12.8646 17.5127 12.8646 17.5129 12.8648 17.5129C12.9969 17.5311 13.13 17.5408 13.2634 17.5419L13.2631 17.5419ZM14.5043 17.4945C14.5044 17.4943 14.5046 17.4942 14.5048 17.4942C14.7751 17.4941 15.1462 17.4115 15.3778 17.18C15.3779 17.1799 15.3778 17.1798 15.3776 17.1798H15.3773C15.3773 17.1798 15.3773 17.1798 15.3773 17.1798C15.2012 17.1382 15.0215 17.1143 14.8407 17.1085C14.8238 17.1081 14.8068 17.1079 14.7897 17.1078C14.5362 17.1078 14.3422 17.157 14.213 17.2539C14.2021 17.2604 14.1921 17.2681 14.1831 17.2767C14.1411 17.3168 14.1252 17.3936 14.1742 17.4244C14.2324 17.4684 14.3364 17.4918 14.4835 17.4941L14.5038 17.4948C14.5041 17.4948 14.5042 17.4947 14.5043 17.4945ZM15.3805 17.0446C15.3805 17.0447 15.3805 17.0448 15.3806 17.0448C15.4137 17.0448 15.4451 17.03 15.4661 17.0044C15.4856 16.9788 15.4988 16.949 15.5044 16.9173C15.5132 16.8755 15.5166 16.8328 15.5145 16.7902C15.5145 16.7899 15.5143 16.7895 15.5139 16.7894C15.5009 16.7834 15.4867 16.7803 15.4724 16.7801C15.4385 16.7814 15.4064 16.7957 15.3829 16.8201C15.3567 16.8458 15.3368 16.877 15.3246 16.9116C15.3123 16.9404 15.3101 16.9725 15.3183 17.0027C15.3284 17.0281 15.3531 17.0447 15.3804 17.0445C15.3805 17.0445 15.3805 17.0446 15.3805 17.0446ZM13.357 16.999C13.3571 16.9991 13.3571 16.9991 13.3572 16.9991C13.3986 16.9999 13.4383 16.9832 13.4667 16.9531C13.4912 16.9246 13.5081 16.8904 13.5158 16.8536C13.5227 16.8239 13.5269 16.7938 13.5283 16.7635C13.53 16.7293 13.5081 16.6968 13.474 16.6956H13.4701C13.3833 16.6956 13.3149 16.7708 13.2856 16.8455C13.2711 16.8754 13.267 16.9091 13.2737 16.9415C13.275 16.9482 13.2774 16.9547 13.2811 16.9605C13.2973 16.9859 13.3262 17.0009 13.3568 16.9989C13.3569 16.9989 13.357 16.9989 13.357 16.999ZM14.3427 16.9585C14.3427 16.9584 14.3427 16.9583 14.3428 16.9583C14.8867 16.9392 15.1689 16.7846 15.31 16.6582C15.3704 16.6053 15.4201 16.5414 15.4566 16.4699C15.4701 16.4433 15.4805 16.4153 15.4878 16.3864C15.4879 16.3859 15.4877 16.3855 15.4873 16.3853C15.4437 16.3721 15.3985 16.3654 15.353 16.3653H15.3403C15.1568 16.3653 14.7833 16.4423 14.3429 16.9582C14.3429 16.9582 14.3429 16.9583 14.3429 16.9583V16.9584C14.3429 16.9585 14.3428 16.9585 14.3427 16.9585ZM13.7518 16.9033C13.7519 16.9034 13.7519 16.9034 13.7519 16.9034C14.1896 16.8367 14.4375 16.6488 14.5685 16.5029C14.6183 16.4494 14.6607 16.3898 14.6948 16.3256C14.729 16.2613 14.6867 16.1856 14.6139 16.1846C14.608 16.1846 14.6019 16.1844 14.5957 16.1844C14.5895 16.1844 14.5831 16.1844 14.5766 16.1846C14.3565 16.1894 13.9567 16.2891 13.752 16.9031C13.752 16.9031 13.7519 16.9031 13.7519 16.9031C13.7518 16.9031 13.7517 16.9033 13.7518 16.9033L13.7518 16.9033ZM15.999 16.6931C15.999 16.6931 15.999 16.6932 15.9991 16.6932C16.1383 16.6936 16.2771 16.677 16.4123 16.6437C16.6415 16.5864 16.7398 16.4989 16.7819 16.4356C16.8 16.4093 16.8122 16.3794 16.8175 16.348C16.8194 16.3361 16.8198 16.324 16.8187 16.312C16.8187 16.3113 16.8182 16.3107 16.8175 16.3105C16.6992 16.2811 16.5778 16.2657 16.4558 16.2646C16.4475 16.2646 16.4392 16.2644 16.4307 16.2644C16.3314 16.2642 16.2322 16.2738 16.1347 16.2931C15.9136 16.3393 15.7166 16.4637 15.5798 16.6435C15.5798 16.6436 15.5797 16.6436 15.5797 16.6437C15.5797 16.6438 15.5799 16.6439 15.58 16.6439H15.5802C15.5802 16.6439 15.5802 16.6439 15.5802 16.6439C15.7173 16.6774 15.8579 16.6939 15.999 16.693C15.999 16.693 15.9991 16.6931 15.999 16.6931ZM14.9828 16.3241C14.9829 16.324 14.9829 16.324 14.983 16.324C15.0242 16.3251 15.064 16.3088 15.0925 16.2791C15.1171 16.2502 15.134 16.2157 15.1416 16.1785C15.1485 16.1493 15.1527 16.1195 15.1541 16.0895C15.1558 16.0554 15.1339 16.0229 15.0998 16.0216H15.0959C15.0093 16.0216 14.9407 16.097 14.9113 16.1716C14.8957 16.2043 14.8927 16.2417 14.9029 16.2765C14.9169 16.3075 14.9487 16.3265 14.9827 16.3242C14.9827 16.3242 14.9828 16.3241 14.9828 16.3241ZM15.7468 16.2193C15.7469 16.2193 15.7469 16.2193 15.7469 16.2192C15.8924 16.1781 16.0315 16.1173 16.1605 16.0386C16.3521 15.9207 16.5864 15.7121 16.6152 15.3881C16.6152 15.3879 16.615 15.3877 16.6148 15.3877C16.6148 15.3877 16.6147 15.3877 16.6147 15.3877C16.6002 15.3846 16.5854 15.3828 16.5706 15.3824C16.5671 15.3824 16.5631 15.3822 16.559 15.3822C16.5018 15.3822 16.3846 15.3983 16.2428 15.5061C16.0625 15.6436 15.8959 15.8833 15.747 16.2194C15.747 16.2194 15.7468 16.2194 15.7468 16.2193ZM15.248 16.201C15.248 16.201 15.248 16.2009 15.2481 16.2009C15.3668 16.147 15.477 16.0762 15.5754 15.9906C15.8034 15.7943 15.9864 15.5516 16.1122 15.2791C16.1365 15.2264 16.1114 15.1622 16.0535 15.1593C16.05 15.1591 16.0465 15.159 16.0429 15.159C16.0377 15.159 16.0323 15.159 16.0269 15.1593C15.9435 15.1617 15.8166 15.1963 15.6759 15.3482C15.5142 15.5226 15.3699 15.8093 15.2472 16.2003L15.2471 16.2005C15.247 16.2009 15.2474 16.2012 15.2478 16.2011C15.2478 16.2011 15.2479 16.2011 15.248 16.201ZM16.5406 16.1633C16.5406 16.1633 16.5406 16.1633 16.5406 16.1633C16.7072 16.1632 16.7643 16.0729 16.7811 16.034C16.7978 15.9935 16.8044 15.9494 16.8002 15.9058C16.8002 15.9054 16.7999 15.9051 16.7995 15.905C16.7726 15.8983 16.745 15.8947 16.7172 15.8943H16.7115C16.6026 15.8916 16.4988 15.9409 16.4321 16.0271C16.4233 16.0402 16.3962 16.0856 16.4186 16.1211C16.4366 16.1491 16.4774 16.1633 16.5406 16.1633C16.5406 16.1633 16.5406 16.1633 16.5406 16.1633ZM16.9099 15.6975C16.9099 15.6975 16.9099 15.6976 16.9099 15.6976C17.0389 15.6979 17.1678 15.6869 17.2949 15.6647C17.4433 15.6377 17.5275 15.5115 17.5719 15.4104C17.6017 15.3414 17.6226 15.2689 17.6341 15.1946C17.6341 15.1944 17.6339 15.1942 17.6337 15.1942C17.1746 15.2077 16.9577 15.3418 16.8567 15.452C16.7941 15.5171 16.7551 15.6012 16.7459 15.6909C16.7459 15.6911 16.746 15.6913 16.7461 15.6913C16.7468 15.6913 16.8114 15.6975 16.9099 15.6975C16.9099 15.6975 16.9099 15.6975 16.9099 15.6975ZM16.4317 15.2199C16.4317 15.2198 16.4317 15.2198 16.4317 15.2198C16.4326 15.2186 16.4849 15.1539 16.5365 15.0737C16.5909 14.9892 16.6412 14.9008 16.6412 14.8288C16.6412 14.7591 16.6576 14.6122 16.6674 14.5308C16.6796 14.429 16.6919 14.3416 16.6932 14.3321C16.6933 14.3319 16.6931 14.3318 16.6929 14.3318C16.6929 14.3318 16.6928 14.3318 16.6928 14.3318C16.6807 14.3363 16.4056 14.4397 16.4056 14.6979C16.4056 14.9564 16.4312 15.217 16.4314 15.2196V15.2198C16.4314 15.2199 16.4315 15.2199 16.4315 15.2199H16.4317C16.4317 15.2199 16.4317 15.2199 16.4317 15.2199ZM16.7888 15.1953C16.7888 15.1953 16.7888 15.1953 16.7889 15.1953C16.7917 15.1953 16.7946 15.195 16.7974 15.1946C16.8789 15.181 17.0221 15.1187 17.1802 15.028C17.3559 14.9273 17.4985 14.8193 17.5819 14.7241C17.6579 14.6373 17.7029 14.5009 17.716 14.3188C17.7207 14.2516 17.7209 14.1843 17.7167 14.1172C17.7149 14.0892 17.6956 14.0639 17.6676 14.0642C17.6066 14.0652 17.5415 14.0927 17.4536 14.1532C17.3735 14.2102 17.2985 14.274 17.2293 14.3438C17.1414 14.4311 17.0583 14.5231 16.9804 14.6194C16.9796 14.6203 16.979 14.6212 16.9784 14.6222C16.9661 14.6444 16.89 14.7823 16.8304 14.9166C16.7998 14.98 16.7763 15.0466 16.7604 15.1152C16.7544 15.1353 16.7544 15.1567 16.7604 15.1768C16.7629 15.1833 16.7677 15.1888 16.7737 15.1923C16.7785 15.1943 16.7836 15.1954 16.7888 15.1954C16.7889 15.1954 16.7889 15.1954 16.7888 15.1953Z" fill="#4E5B31"/>
<path d="M20.9932 4.7228C20.9934 4.72292 20.9933 4.72313 20.9932 4.7232L20.9121 4.75548C20.8911 4.76386 20.8685 4.76756 20.8459 4.76632L20.8346 4.76569C20.7998 4.76378 20.765 4.77068 20.7336 4.78577L20.7103 4.79698C20.6962 4.80374 20.6826 4.81155 20.6698 4.82036L20.5253 4.9191C20.5205 4.92253 20.5151 4.92505 20.5094 4.92653L20.4831 4.9334C20.4661 4.93782 20.4482 4.93646 20.4322 4.92953L20.415 4.92212C20.4056 4.91806 20.3949 4.91816 20.3856 4.9224C20.3746 4.9274 20.3668 4.93754 20.3648 4.94945L20.36 4.97827C20.358 4.99048 20.3535 5.00215 20.3468 5.01256L20.337 5.02781C20.3299 5.0388 20.3207 5.04831 20.3101 5.05582C20.2959 5.06575 20.2795 5.07188 20.2623 5.07364L20.1983 5.08019C20.1715 5.08293 20.1454 5.09068 20.1215 5.10303L20.1188 5.10441C20.0729 5.12809 20.0198 5.1338 19.9699 5.12044L19.9485 5.11471C19.9196 5.10697 19.889 5.10869 19.8611 5.1196C19.8454 5.12575 19.8309 5.13468 19.8184 5.14597L19.7173 5.23697C19.7029 5.24994 19.6867 5.26074 19.6692 5.26904L19.6461 5.27997C19.6311 5.28709 19.6145 5.29032 19.5979 5.28937L19.5209 5.28541C19.5083 5.28476 19.4957 5.28644 19.4837 5.29036C19.469 5.29519 19.4555 5.3033 19.4443 5.31409L19.4377 5.32052C19.4138 5.3436 19.3826 5.35764 19.3495 5.36021L19.3083 5.36342C19.2938 5.36455 19.2798 5.36951 19.2679 5.37779C19.2564 5.38571 19.2472 5.3964 19.241 5.40886L19.2076 5.47618C19.1989 5.49366 19.1876 5.50969 19.174 5.5237L19.1465 5.55202C19.1383 5.56052 19.1277 5.56637 19.1161 5.56883C19.1051 5.57115 19.0937 5.57033 19.0832 5.56646L19.0692 5.56132C19.0643 5.55951 19.059 5.55904 19.0539 5.55995C19.0416 5.5621 19.0321 5.57168 19.0299 5.58391L19.0244 5.6146C19.022 5.62835 19.0157 5.64122 19.0063 5.65156C18.9978 5.66089 18.987 5.66801 18.9751 5.67212L18.9486 5.68126C18.9274 5.68854 18.9078 5.69961 18.8906 5.71393L18.8693 5.73165C18.86 5.73942 18.8498 5.74613 18.8391 5.75168C18.8144 5.76435 18.787 5.77063 18.7593 5.76993L18.7295 5.76919C18.7186 5.76919 18.7079 5.77194 18.6984 5.77719L18.6735 5.79095C18.6522 5.80272 18.6286 5.80991 18.6043 5.81203L18.5836 5.81385C18.5336 5.81824 18.4865 5.83951 18.4502 5.87418C18.4419 5.88179 18.433 5.88854 18.4234 5.89433L18.4116 5.90145L18.3687 5.92703C18.362 5.93113 18.3541 5.93264 18.3464 5.93126L18.323 5.9271C18.3122 5.92518 18.3011 5.9263 18.2909 5.93034L18.2652 5.94053C18.254 5.94495 18.2413 5.9409 18.2348 5.93085C18.2274 5.91948 18.2123 5.916 18.2007 5.92298L18.1884 5.93037C18.1827 5.93381 18.1762 5.93576 18.1695 5.93604L18.1509 5.93685C18.1335 5.9376 18.116 5.93429 18.1001 5.92719L18.0552 5.90726L18.0129 5.88841C18.0062 5.88541 17.9987 5.88438 17.9914 5.88544C17.9751 5.8878 17.962 5.90023 17.9587 5.91644L17.9508 5.95645C17.9499 5.96114 17.9479 5.96556 17.9451 5.96937L17.9273 5.99298C17.9152 6.00911 17.9001 6.02277 17.8828 6.03322L17.8479 6.05436C17.8384 6.06016 17.8299 6.06767 17.8231 6.07651L17.7372 6.18741L17.6446 6.28473C17.5979 6.33393 17.543 6.37479 17.4825 6.40554L17.4767 6.40846C17.4496 6.42225 17.4213 6.43364 17.3921 6.4425L17.3716 6.44874C17.3196 6.46456 17.2712 6.49046 17.2292 6.52497C17.2049 6.54491 17.1784 6.56203 17.1502 6.576L16.9299 6.68521L16.5551 6.87183C16.5285 6.88505 16.501 6.89623 16.4728 6.90528C16.4446 6.91432 16.4157 6.9212 16.3865 6.92587L16.3771 6.92737C16.3316 6.93463 16.2869 6.9463 16.2437 6.96222L16.0917 7.01821L15.9002 7.07598L15.8896 7.07923L15.8515 7.0907L15.638 7.1553C15.6008 7.16658 15.5616 7.17028 15.5229 7.16619L15.495 7.16325C15.4693 7.16053 15.4432 7.16371 15.4189 7.17255C15.3943 7.18149 15.3679 7.18464 15.3419 7.18175L15.1877 7.16465L15.0906 7.16656C15.0655 7.16706 15.0405 7.16988 15.016 7.17499C14.9838 7.18166 14.9526 7.19221 14.9231 7.2064L14.8073 7.26192L14.5946 7.36416C14.5562 7.3826 14.5208 7.40657 14.4894 7.43531C14.4615 7.46084 14.4304 7.48262 14.3968 7.5001L14.3172 7.54164C14.3112 7.54478 14.3049 7.54739 14.2984 7.54944L14.2034 7.57952C14.1746 7.58863 14.1453 7.56704 14.1455 7.53684L14.1455 7.52993C14.1455 7.52964 14.1455 7.52935 14.1454 7.52907C14.1449 7.52769 14.1434 7.52694 14.142 7.52737L14.088 7.54446C14.0608 7.55304 14.033 7.55953 14.0049 7.56388L13.9404 7.57382C13.9234 7.57644 13.9063 7.57775 13.8892 7.57775H13.8561C13.8463 7.57775 13.8366 7.57636 13.8272 7.57364L13.8027 7.56651C13.7982 7.56519 13.7933 7.56531 13.7888 7.56686L13.6647 7.60764C13.5675 7.63956 13.4672 7.66063 13.3654 7.67046L13.2794 7.67876C13.238 7.68276 13.1971 7.69118 13.1575 7.70389L13.1218 7.71536C13.085 7.72715 13.0466 7.73286 13.008 7.73224L13.0011 7.73213C12.9696 7.73163 12.9382 7.73594 12.908 7.74493C12.8915 7.74985 12.8745 7.75338 12.8574 7.75547L12.7956 7.76303C12.7621 7.76712 12.7281 7.76476 12.6955 7.75606C12.6881 7.75404 12.6805 7.75318 12.6728 7.75351L12.337 7.76809C12.2979 7.76979 12.2586 7.76843 12.2196 7.76403L12.1265 7.7535C12.104 7.75096 12.0812 7.75222 12.0591 7.75725C12.023 7.76547 11.9853 7.76356 11.9501 7.75175L11.8956 7.73341C11.8687 7.72438 11.841 7.71818 11.8129 7.71492L11.691 7.70079C11.6561 7.69673 11.6215 7.68962 11.5878 7.67952L11.512 7.65704C11.4876 7.64981 11.4613 7.6529 11.4392 7.66561L11.4383 7.66615C11.4277 7.67225 11.4159 7.67608 11.4038 7.67737C11.3905 7.67878 11.3771 7.67716 11.3646 7.67261L11.3059 7.65133C11.2963 7.64786 11.2863 7.64596 11.2761 7.64571C11.2643 7.64541 11.2526 7.64733 11.2415 7.65136L11.2073 7.66378C11.191 7.66973 11.1732 7.6706 11.1563 7.66628C11.1445 7.66325 11.1335 7.65775 11.1239 7.65015L11.1204 7.64731C11.1055 7.63548 11.0878 7.62778 11.0691 7.62499L11.0316 7.61942C11.0124 7.61656 10.9944 7.60844 10.9796 7.59595C10.957 7.57698 10.9275 7.56837 10.8982 7.57225L10.7103 7.59716C10.6502 7.60513 10.5891 7.60041 10.531 7.58331L10.2514 7.50186C10.2407 7.49875 10.2296 7.49745 10.2185 7.49802C10.1988 7.49902 10.1798 7.50587 10.1639 7.51771L10.1486 7.52917C10.1359 7.53867 10.1219 7.54625 10.107 7.55168L10.0414 7.5756L10.0085 7.58415C9.97953 7.59168 9.94983 7.59598 9.91992 7.59698C9.88071 7.59828 9.84152 7.59388 9.80358 7.58393L9.78835 7.57994C9.75606 7.57147 9.72468 7.55987 9.69464 7.54531L9.63192 7.51491C9.62077 7.5095 9.60907 7.50533 9.59701 7.50246C9.57851 7.49806 9.55941 7.49679 9.54049 7.4987L9.46626 7.50619C9.44574 7.50804 9.42512 7.50383 9.40697 7.49409L9.24584 7.40767L9.00241 7.25556L8.84515 7.17986C8.8399 7.17734 8.83432 7.17558 8.82856 7.17465L8.79785 7.16966C8.78495 7.16757 8.77254 7.17548 8.76899 7.18806C8.76762 7.1929 8.7677 7.19804 8.76923 7.20284L8.78994 7.26802C8.79507 7.28415 8.79857 7.30075 8.80039 7.31758L8.8037 7.3482C8.80658 7.37481 8.80755 7.4016 8.8066 7.42835L8.80488 7.47677L8.80388 7.50917C8.80342 7.52404 8.80545 7.53888 8.8099 7.55308C8.81563 7.5714 8.82526 7.58828 8.83813 7.60253L8.85051 7.61626C8.86883 7.63656 8.8833 7.66051 8.89289 7.68612C8.8996 7.70404 8.90405 7.723 8.90594 7.74204L8.92127 7.89603L8.92107 8.08139L8.89206 8.37699L8.88228 8.42193L8.84771 8.57507L8.81611 8.71573L8.70199 9.06439C8.69638 9.0815 8.68815 9.09764 8.67757 9.11222C8.66585 9.12838 8.65143 9.1424 8.63494 9.15365L8.57721 9.19303L8.38988 9.32052L8.25194 9.40003C8.22302 9.41201 8.19238 9.41931 8.16116 9.42167L8.09631 9.42658L8.0906 9.4263C8.04844 9.42421 8.00728 9.41269 7.97016 9.39258C7.94992 9.38162 7.92835 9.37316 7.90605 9.36742C7.87197 9.35864 7.83974 9.34358 7.81116 9.32303L7.80134 9.31597C7.76266 9.28816 7.71856 9.2688 7.67191 9.25916C7.63635 9.25181 7.6022 9.2388 7.57076 9.22063L7.49645 9.17767C7.48688 9.17214 7.47837 9.16497 7.4713 9.15647C7.45543 9.1374 7.43264 9.1254 7.40794 9.1231L7.38496 9.12095C7.37656 9.12017 7.36826 9.11856 7.36018 9.11613L7.26954 9.08893C7.26949 9.08892 7.26945 9.08887 7.26945 9.08882C7.26945 9.08877 7.26942 9.08872 7.26937 9.08871L7.23167 9.07743C7.21434 9.07238 7.19644 9.06958 7.17839 9.06911L7.15489 9.06849C7.10166 9.06709 7.04927 9.05486 7.00092 9.03254L6.98266 9.02411C6.96216 9.01465 6.94078 9.00721 6.91882 9.00191L6.91086 8.99999C6.89525 8.99622 6.87932 8.99392 6.86328 8.9931C6.82129 8.99098 6.77942 8.99913 6.74129 9.01685L6.70718 9.0327L6.69837 9.0368C6.67419 9.04806 6.64643 9.04886 6.62164 9.03901L6.6138 9.0359C6.60568 9.03268 6.59695 9.03129 6.58823 9.03183C6.56968 9.03299 6.55275 9.04277 6.54249 9.05827L6.51038 9.10678C6.50651 9.11406 6.50054 9.12001 6.49325 9.12386L6.48627 9.12756C6.47632 9.13282 6.46522 9.13549 6.45397 9.13533L6.42963 9.13499C6.40825 9.13442 6.38701 9.13856 6.36741 9.14713L6.36205 9.14947L6.31475 9.16997L6.27299 9.18819L6.25285 9.1969C6.2527 9.19696 6.25252 9.19693 6.25241 9.19681C6.25231 9.19672 6.25217 9.19667 6.25204 9.1967L6.23971 9.19918L6.21741 9.20305C6.19958 9.20646 6.18112 9.2033 6.16544 9.19414L6.14101 9.17986L6.12564 9.1708C6.11865 9.16668 6.11103 9.16375 6.10308 9.16213L6.0852 9.15849C6.07655 9.15673 6.06756 9.15867 6.0604 9.16384C6.0527 9.1694 6.04791 9.17814 6.04736 9.18763L6.04491 9.22996C6.04406 9.24462 6.04055 9.25901 6.03454 9.27242L6.0338 9.27406C6.0262 9.29101 6.01507 9.30614 6.00115 9.31845L5.95447 9.35972L5.92282 9.3876C5.89809 9.40937 5.87622 9.43419 5.85772 9.46145C5.84431 9.48121 5.83274 9.50216 5.82316 9.52403L5.76726 9.65161C5.72949 9.73781 5.68387 9.82036 5.63098 9.89821L5.60626 9.92548L5.58553 9.94828C5.5437 9.9943 5.49796 10.0366 5.44883 10.0747L5.36842 10.137C5.30894 10.1831 5.24282 10.22 5.17232 10.2463C5.13591 10.2599 5.09849 10.2707 5.06041 10.2785L5.04498 10.2816C5.00103 10.2906 4.95631 10.2952 4.91145 10.2954L4.8297 10.2845C4.79898 10.2805 4.76866 10.2738 4.73903 10.2647C4.69233 10.2504 4.64769 10.23 4.60626 10.2041L4.5425 10.1643L4.40422 10.053L4.22745 9.87841C4.21182 9.86297 4.19441 9.84945 4.17558 9.83813L4.16967 9.83418L4.12076 9.80291C4.11152 9.797 4.10072 9.79399 4.08975 9.79428L4.08705 9.79435C4.07005 9.79479 4.05444 9.80384 4.04562 9.81838C4.04286 9.82294 4.04084 9.82791 4.03965 9.83311L4.03142 9.86893L4.02295 9.90764L4.00133 10.1149C4.00045 10.1234 4.00057 10.132 4.00169 10.1405C4.00962 10.2 4.03203 10.2567 4.06696 10.3055L4.12238 10.383C4.15127 10.4234 4.17549 10.4669 4.19455 10.5128L4.20704 10.5428C4.21088 10.552 4.21538 10.561 4.22052 10.5696L4.25191 10.6223L4.27579 10.6625C4.27738 10.6652 4.27868 10.6681 4.27968 10.6711L4.31478 10.7761C4.32461 10.8055 4.32345 10.8375 4.31151 10.8661L4.30165 10.8898C4.29638 10.9024 4.29574 10.9165 4.29985 10.9295L4.30074 10.9324C4.30748 10.9538 4.30016 10.9772 4.28239 10.991C4.2717 10.9993 4.26453 11.0113 4.2623 11.0247L4.26181 11.0276C4.25894 11.0448 4.2635 11.0624 4.27437 11.076L4.37887 11.207C4.38882 11.2195 4.39686 11.2333 4.40272 11.2482C4.41628 11.2826 4.41757 11.3206 4.40637 11.3558L4.40316 11.3659C4.39475 11.3923 4.38066 11.4166 4.36188 11.4371L4.33729 11.4638C4.32795 11.4738 4.3238 11.4875 4.32607 11.501L4.32685 11.5056C4.32884 11.5174 4.33478 11.5282 4.3437 11.5362L4.39278 11.5804L4.44313 11.6252C4.48025 11.6583 4.50923 11.6994 4.52781 11.7455L4.54957 11.7995C4.55412 11.8108 4.56127 11.8209 4.57043 11.8289L4.57962 11.837C4.59233 11.8481 4.60955 11.8526 4.62608 11.8491L4.63053 11.8482C4.64298 11.8455 4.65597 11.8484 4.66609 11.8562C4.6739 11.8621 4.68349 11.8653 4.69331 11.8651L4.69726 11.865C4.71217 11.8648 4.72655 11.8706 4.7371 11.8811L4.75048 11.8945C4.75834 11.9024 4.76746 11.9089 4.77747 11.9137L4.78939 11.9195L4.81091 11.9302C4.82486 11.9372 4.83705 11.9472 4.84655 11.9596C4.85915 11.976 4.8665 11.9958 4.86764 12.0165L4.87089 12.0752C4.87252 12.1049 4.87866 12.1341 4.88909 12.1619L4.90436 12.2027C4.92552 12.2591 4.93667 12.3188 4.93731 12.3791C4.93754 12.3875 4.93989 12.3958 4.94416 12.4032L4.96467 12.4384C4.97275 12.4523 4.9787 12.4673 4.98232 12.4829C4.98684 12.5025 4.98766 12.5227 4.98474 12.5425L4.97347 12.6189C4.97032 12.6403 4.97806 12.6619 4.9941 12.6764C5.00936 12.6902 5.03028 12.6959 5.05043 12.6918L5.05878 12.6901C5.06788 12.6882 5.07724 12.688 5.08642 12.6894C5.10023 12.6916 5.1132 12.6975 5.12395 12.7065L5.14569 12.7246C5.15766 12.7345 5.16808 12.7462 5.17662 12.7592L5.20686 12.8053C5.22208 12.8285 5.24935 12.8407 5.27678 12.8367C5.29086 12.8346 5.30524 12.8368 5.31805 12.843L5.32712 12.8474C5.33608 12.8517 5.34437 12.8573 5.35175 12.864L5.50612 13.0035C5.53165 13.0266 5.56016 13.0462 5.59088 13.0617L5.59343 13.0631L5.61799 13.0754C5.62377 13.0783 5.62905 13.0822 5.63361 13.0867C5.65372 13.107 5.68533 13.1102 5.70911 13.0944L5.7264 13.0829C5.73032 13.0803 5.73481 13.0787 5.73949 13.0783L5.7724 13.0754C5.79624 13.0733 5.82007 13.0794 5.83988 13.0929L5.85597 13.1037C5.88375 13.1225 5.91662 13.1323 5.95015 13.1319C5.9672 13.1317 5.98417 13.1341 6.00047 13.1391L6.14333 13.1829C6.19188 13.1953 6.23824 13.2151 6.28081 13.2416L6.36388 13.2932L6.42648 13.3319L6.46354 13.362C6.4962 13.3887 6.5324 13.4106 6.57111 13.4273L6.57368 13.4284C6.59859 13.4391 6.62438 13.4477 6.65075 13.454L6.69547 13.4647L6.74117 13.4755L6.77446 13.4883C6.77517 13.4886 6.77596 13.4882 6.77625 13.4875L6.77654 13.4868C6.77658 13.4867 6.77666 13.4867 6.77675 13.4867C6.77691 13.4867 6.77702 13.4868 6.77697 13.487L6.77659 13.488C6.77641 13.4884 6.77665 13.489 6.77714 13.4892L6.95892 13.5588L7.05785 13.5819L7.14939 13.6156L7.20178 13.6346C7.2112 13.638 7.22112 13.6399 7.23114 13.64C7.2529 13.6404 7.27406 13.6329 7.29072 13.6188L7.3015 13.6098C7.32262 13.592 7.34891 13.5816 7.37646 13.58L7.37998 13.5798C7.39391 13.579 7.40787 13.5803 7.42141 13.5836L7.4291 13.5855C7.44725 13.59 7.46613 13.5908 7.48457 13.5877C7.50195 13.5848 7.5186 13.5785 7.5336 13.5693L7.58552 13.5373C7.59295 13.5327 7.59931 13.5266 7.60419 13.5194C7.61032 13.5103 7.61878 13.503 7.62867 13.4983L7.6518 13.4873C7.66681 13.4801 7.68288 13.4755 7.69938 13.4734L7.85678 13.4539C7.87204 13.452 7.88753 13.4534 7.90215 13.4582C7.92653 13.4661 7.95297 13.4648 7.97648 13.4546L8.04218 13.426C8.07581 13.4114 8.11346 13.4088 8.14879 13.4186C8.18047 13.4274 8.21424 13.4262 8.24522 13.4152C8.27367 13.4051 8.30453 13.4032 8.334 13.4097L8.4491 13.4353C8.47522 13.4411 8.49994 13.452 8.52183 13.4674L8.52561 13.4701C8.53635 13.4777 8.54614 13.4865 8.55478 13.4964L8.59635 13.5439C8.5994 13.5474 8.60375 13.5495 8.60839 13.5497L8.63724 13.5503C8.65381 13.5506 8.66383 13.5687 8.65529 13.5829C8.65029 13.5912 8.65147 13.6019 8.65816 13.6089L8.72495 13.679C8.731 13.6853 8.73648 13.6922 8.74132 13.6995L8.80367 13.7938C8.80975 13.8029 8.81462 13.8129 8.81815 13.8233L8.8633 13.9558C8.87135 13.9795 8.88281 14.0018 8.89733 14.0221C8.91106 14.0413 8.92206 14.0623 8.93003 14.0845L8.94346 14.122C8.94635 14.1301 8.94794 14.1385 8.94817 14.1471L8.94827 14.1511C8.9489 14.1745 8.93823 14.1968 8.91958 14.211C8.90871 14.2193 8.90039 14.2305 8.89557 14.2433L8.89535 14.2439L8.89481 14.2454C8.89346 14.2492 8.89358 14.2534 8.89513 14.2571C8.89887 14.2661 8.90958 14.2699 8.91813 14.2652L8.91961 14.2644L8.93225 14.2574C8.94591 14.2499 8.9608 14.2448 8.97623 14.2424C8.98764 14.2406 8.99923 14.2403 9.01071 14.2416L9.06484 14.2473C9.09564 14.2506 9.12672 14.245 9.15446 14.2312L9.18645 14.2153C9.21774 14.1997 9.25429 14.1987 9.28639 14.2126L9.29019 14.2142C9.30658 14.2212 9.32427 14.2248 9.34212 14.2246L9.36213 14.2244C9.38851 14.2241 9.41464 14.2295 9.43874 14.2402L9.52684 14.2801C9.53717 14.2848 9.54821 14.2877 9.5595 14.2888L9.58286 14.291C9.59091 14.2917 9.59899 14.2897 9.60576 14.2853C9.61168 14.2814 9.6163 14.2758 9.61905 14.2693L9.62112 14.2644C9.62514 14.2548 9.62628 14.2443 9.62439 14.2341L9.62394 14.2317C9.62194 14.2208 9.61707 14.2108 9.60984 14.2025L9.5811 14.1695L9.4936 14.068L9.48032 14.0486C9.46536 14.0268 9.45325 14.0032 9.44427 13.9783C9.43514 13.953 9.42933 13.9266 9.42699 13.8998L9.42208 13.8436L9.41834 13.8031C9.41683 13.7867 9.41711 13.7701 9.41919 13.7538L9.42416 13.7145C9.42597 13.7003 9.43153 13.6868 9.44027 13.6754L9.44145 13.6739C9.44737 13.6662 9.45166 13.6574 9.45405 13.6479L9.46767 13.5943C9.46769 13.5942 9.46777 13.5942 9.46786 13.5942C9.46796 13.5942 9.46804 13.5941 9.46806 13.594L9.47156 13.58C9.47217 13.5776 9.47325 13.5753 9.47476 13.5733L9.49831 13.5421C9.51337 13.5221 9.53186 13.5049 9.55292 13.4914L9.61011 13.4547C9.63654 13.4377 9.66158 13.4186 9.68498 13.3977L9.74342 13.3453C9.77316 13.3187 9.80483 13.2943 9.83817 13.2723L9.88249 13.2431C9.89241 13.2365 9.90289 13.2309 9.9138 13.2261L10.0062 13.1861C10.0086 13.1851 10.0104 13.1829 10.011 13.1802C10.0121 13.1752 10.0175 13.1724 10.0223 13.1743L10.0227 13.1744C10.0246 13.1752 10.0267 13.1753 10.0287 13.1746L10.3078 13.0797C10.3108 13.0787 10.3139 13.078 10.317 13.0776C10.4018 13.0629 10.4881 13.0585 10.5739 13.0645L11.2995 13.1156C11.3039 13.1159 11.3083 13.1154 11.3125 13.1142L11.3379 13.1065C11.338 13.1065 11.3381 13.1064 11.3381 13.1063C11.3381 13.1062 11.3381 13.1062 11.3381 13.1062L11.3596 13.0459C11.3643 13.0326 11.3721 13.0206 11.3822 13.0107C11.3891 13.0043 11.397 12.9991 11.4056 12.9953L11.4704 12.9668C11.4816 12.9618 11.4935 12.9584 11.5056 12.9567C11.5228 12.9542 11.5402 12.9551 11.5571 12.9593L11.6545 12.9833C11.6869 12.9913 11.721 12.9867 11.7501 12.9704L11.7603 12.9647C11.7768 12.9554 11.7954 12.9507 11.8144 12.9511C11.8329 12.9514 11.8512 12.9469 11.8675 12.938L11.9245 12.9068C11.9483 12.8939 11.975 12.8874 12.0021 12.8881L12.015 12.8884C12.0274 12.8887 12.0397 12.8865 12.0512 12.8819C12.058 12.8791 12.0644 12.8756 12.0704 12.8713L12.1315 12.8274C12.1792 12.7931 12.2324 12.7673 12.2888 12.7512L12.3017 12.7475C12.3275 12.7401 12.3524 12.73 12.3761 12.7174L12.3886 12.7105L12.4789 12.6629C12.5122 12.6452 12.544 12.6249 12.5739 12.6019L12.5896 12.5898C12.6086 12.5753 12.6288 12.5623 12.6499 12.551L12.6517 12.5501C12.6805 12.5348 12.7111 12.5229 12.7427 12.5147L12.7474 12.5135C12.7687 12.508 12.7904 12.5045 12.8123 12.503L12.9553 12.4929C12.9833 12.4909 13.0085 12.4754 13.023 12.4514C13.0364 12.4289 13.0594 12.4138 13.0853 12.4104L13.0978 12.4087C13.1244 12.4052 13.149 12.3921 13.1668 12.372L13.1757 12.3619C13.1893 12.3465 13.2063 12.3345 13.2253 12.3268C13.2493 12.3171 13.27 12.3006 13.2847 12.2793L13.3091 12.2442L13.3308 12.2129C13.3424 12.1962 13.3576 12.1822 13.3752 12.172C13.3938 12.1612 13.4146 12.1549 13.436 12.1536L13.5353 12.1474C13.5649 12.1455 13.5946 12.1464 13.624 12.1501L13.7737 12.1686C13.7834 12.1698 13.7933 12.1677 13.8017 12.1626C13.8111 12.1569 13.818 12.1478 13.821 12.1371L13.8533 12.0221C13.8599 11.9983 13.8751 11.9778 13.8959 11.9645C13.9072 11.9573 13.917 11.9478 13.9246 11.9367L14.0062 11.8178C14.0322 11.7799 14.0463 11.7349 14.0466 11.6889V11.6662C14.0466 11.642 14.0497 11.618 14.0558 11.5946C14.0642 11.5623 14.0668 11.5287 14.0636 11.4955L14.0592 11.4507C14.0555 11.413 14.0558 11.375 14.0601 11.3373L14.0611 11.3287C14.0678 11.2701 14.083 11.2126 14.106 11.1582L14.1288 11.1045C14.1455 11.0651 14.1689 11.0289 14.198 10.9975C14.2172 10.9767 14.2388 10.9581 14.2623 10.9423L14.3213 10.9023C14.3367 10.8919 14.353 10.8829 14.3701 10.8755L14.3968 10.8638C14.4017 10.8617 14.4069 10.8602 14.4122 10.8593L14.4889 10.8464C14.4889 10.8464 14.4889 10.8464 14.4889 10.8464C14.4889 10.8464 14.4889 10.8464 14.4889 10.8464L14.5013 10.8443C14.5157 10.8418 14.5302 10.8405 14.5448 10.8403L14.7128 10.838C14.7789 10.8371 14.8539 10.8342 14.9199 10.8351C14.9229 10.8352 14.922 10.8351 14.925 10.8351L14.9332 10.835C14.9894 10.8342 15.0455 10.8388 15.1008 10.8486L15.2637 10.8775C15.2753 10.8795 15.2868 10.8824 15.298 10.886L15.305 10.8883C15.3441 10.901 15.3807 10.9204 15.4131 10.9456L15.46 10.9821L15.5616 11.0812C15.5742 11.0935 15.5889 11.1032 15.6051 11.11L15.6463 11.1274C15.6593 11.133 15.6736 11.1349 15.6876 11.1326L15.7011 11.1305C15.7139 11.1284 15.7264 11.1243 15.7379 11.1183L15.7664 11.1035C15.7873 11.0926 15.8069 11.0794 15.8249 11.0642L15.8353 11.0554C15.8492 11.0437 15.8642 11.0334 15.8802 11.0247L15.9327 10.9959C15.9347 10.9949 15.9363 10.9934 15.9376 10.9916L15.9822 10.9244C15.9823 10.9243 15.9824 10.9242 15.9826 10.924L15.9835 10.9231C15.9836 10.9229 15.9838 10.9229 15.984 10.9229L15.9845 10.923C15.9846 10.9231 15.9847 10.923 15.9847 10.9229C15.9847 10.9228 15.9846 10.9227 15.9845 10.9227H15.9844C15.9842 10.9227 15.9841 10.9225 15.9842 10.9223L15.999 10.8998C16.0007 10.8973 16.0031 10.8953 16.006 10.8942L16.1042 10.8559C16.1381 10.8427 16.1738 10.8349 16.2101 10.8329L16.3131 10.827C16.3283 10.8261 16.3431 10.8219 16.3565 10.8146C16.3639 10.8106 16.3706 10.8053 16.3761 10.7988L16.3947 10.777C16.4079 10.7614 16.4273 10.7524 16.4477 10.7522C16.456 10.7522 16.4643 10.7536 16.4722 10.7564L16.5334 10.7786C16.5565 10.7869 16.5814 10.7888 16.6055 10.784L16.6103 10.783C16.6328 10.7786 16.656 10.7807 16.6773 10.7892C16.6956 10.7966 16.7155 10.7992 16.7351 10.7969L16.7522 10.7948L16.771 10.7926C16.816 10.7874 16.8614 10.7989 16.8985 10.825L16.911 10.8338C16.9275 10.8454 16.9466 10.8527 16.9665 10.8552C16.9831 10.8573 16.999 10.8627 17.0134 10.8711L17.1783 10.9676C17.1842 10.971 17.1906 10.9733 17.1974 10.9744L17.2026 10.9754C17.21 10.9766 17.2175 10.9761 17.2247 10.974L17.237 10.9703L17.2716 10.9603C17.2743 10.9595 17.2773 10.9605 17.2789 10.9629L17.2805 10.965L17.2952 10.9858C17.3 10.9926 17.3074 10.9971 17.3155 10.9982C17.3264 10.9998 17.3373 10.9953 17.3439 10.9865L17.3536 10.9735C17.363 10.961 17.3636 10.9439 17.355 10.9308C17.3515 10.9257 17.3461 10.9221 17.3401 10.9209L17.3163 10.916C17.293 10.9113 17.2728 10.8969 17.2608 10.8764L17.2373 10.8363C17.2252 10.8156 17.2281 10.7894 17.2444 10.7718C17.2629 10.7519 17.2639 10.7214 17.2467 10.7004L17.1829 10.6221L17.1674 10.6031L17.1621 10.595L17.1297 10.5458L17.1156 10.5243C17.0163 10.3729 16.8935 10.2381 16.7519 10.1251L16.6771 10.0652L16.6766 10.0649L16.6504 10.0441L16.5363 9.92804L16.4702 9.84031C16.46 9.8267 16.4512 9.81203 16.4441 9.79654L16.4273 9.75983L16.4117 9.72578C16.3898 9.67825 16.3568 9.63673 16.3154 9.60478C16.3007 9.59344 16.287 9.58086 16.2745 9.56717L16.224 9.512L16.2205 9.50754L16.0774 9.31305L16.0641 9.29463C16.0574 9.28529 16.0487 9.27747 16.0388 9.27171C16.0265 9.26464 16.0127 9.26087 15.9985 9.26078L15.9585 9.26051C15.9522 9.26046 15.9462 9.25796 15.9418 9.25352L15.9402 9.25188C15.9388 9.25046 15.9388 9.24822 15.9402 9.24678L15.9644 9.2227C15.971 9.21618 15.9792 9.21154 15.9881 9.20929L15.9904 9.2087C16.0044 9.20518 16.016 9.19538 16.0218 9.18216C16.0265 9.17143 16.027 9.15933 16.0231 9.14826L15.9586 8.96158C15.957 8.95695 15.9561 8.95213 15.9557 8.94724C15.9521 8.90251 15.9546 8.8575 15.9632 8.81344L16.0097 8.57372C16.0147 8.54896 16.0229 8.52494 16.0341 8.50226L16.1003 8.36745C16.1123 8.34307 16.1294 8.32155 16.1504 8.30434C16.1707 8.28769 16.1874 8.267 16.1993 8.24358L16.2497 8.14454L16.2883 8.08804C16.3017 8.06842 16.317 8.05019 16.334 8.03361L16.3564 8.0118C16.3619 8.00652 16.3679 8.0019 16.3744 7.99804L16.4022 7.98121C16.4508 7.9518 16.5048 7.93256 16.5611 7.92465C16.6145 7.91711 16.669 7.92145 16.7206 7.93736L16.7247 7.93861C16.7639 7.95073 16.8049 7.95649 16.846 7.95569L16.9188 7.95428L16.9451 7.95148L16.9605 7.94974C16.9909 7.9463 17.021 7.93992 17.0503 7.93071L17.0879 7.91886C17.1005 7.91488 17.1126 7.90934 17.1239 7.90237L17.1311 7.89791C17.1465 7.88845 17.1595 7.87572 17.1694 7.86064C17.1758 7.85077 17.1808 7.84003 17.1841 7.82875L17.2305 7.67337L17.238 7.6485C17.244 7.62855 17.2519 7.60924 17.2617 7.59085C17.273 7.56962 17.2867 7.54975 17.3024 7.5316L17.4621 7.34776L17.6008 7.21951L17.9126 6.9909L18.0652 6.89967L18.1431 6.85311L18.6036 6.6484C18.7591 6.57931 18.9002 6.48171 19.0196 6.36063L19.0436 6.33636C19.0903 6.2891 19.1416 6.24664 19.1968 6.20963L19.2074 6.20253C19.256 6.1699 19.3078 6.14228 19.362 6.12007L19.3665 6.11822C19.4388 6.0886 19.5066 6.04896 19.5679 6.00047L19.6257 5.9547C19.6374 5.94543 19.648 5.93486 19.6573 5.92317C19.6723 5.90432 19.6836 5.88284 19.6908 5.85984L19.7198 5.76638C19.7237 5.75374 19.734 5.74409 19.7469 5.74098C19.7581 5.73827 19.7674 5.73059 19.7722 5.72013L19.7992 5.66154C19.8056 5.64755 19.8157 5.6355 19.8283 5.62661L19.9318 5.55363C19.9413 5.54699 19.9512 5.54108 19.9615 5.53595L20.4703 5.281C20.4854 5.27346 20.5024 5.27065 20.519 5.27294L20.527 5.27403C20.5537 5.27771 20.5802 5.2658 20.5953 5.24337C20.6061 5.22721 20.6231 5.21623 20.6422 5.21301L20.767 5.19209L20.7814 5.18964C20.7907 5.18806 20.7997 5.1851 20.8082 5.18087C20.8247 5.1726 20.8385 5.15973 20.8478 5.14381L20.8604 5.12232C20.864 5.11615 20.8659 5.10912 20.8659 5.10197L20.8695 4.98374C20.8701 4.96463 20.877 4.94626 20.8892 4.93153C20.8985 4.92025 20.9048 4.90677 20.9075 4.89237L20.9163 4.84467C20.9197 4.82646 20.9273 4.80929 20.9384 4.79451L20.9509 4.77809C20.9544 4.77349 20.9586 4.76945 20.9633 4.76613L20.9977 4.74197C20.999 4.74102 20.9995 4.73925 20.9989 4.73773L20.9928 4.72306C20.9927 4.72282 20.993 4.72261 20.9932 4.7228Z" fill="#D57800"/>
</svg>
