<svg xmlns="http://www.w3.org/2000/svg" width="24" height="24" viewBox="0 0 24 24" fill="none"><rect width="24" height="24" fill="none"/>
<mask id="mask0_1379_136" style="mask-type:alpha" maskUnits="userSpaceOnUse" x="0" y="4" width="24" height="16">
<path d="M22 4H2C0.895431 4 0 4.89543 0 6V18C0 19.1046 0.89543 20 2 20H22C23.1046 20 24 19.1046 24 18V6C24 4.89543 23.1046 4 22 4Z" fill="#007A3D"/>
</mask>
<g mask="url(#mask0_1379_136)">
<path d="M0 4H24V20H0V4Z" fill="#F5F5F5"/>
<path d="M1 4.57141H24M24 6.85713H1M1 9.14284H24M24 11.4286H1" stroke="#CC0000" stroke-width="1.14286"/>
<path d="M0 4H16V13.7143H0V4Z" fill="#000066"/>
<path d="M0 13.7143H24M24 16H0M0 18.2857H24" stroke="#CC0000" stroke-width="1.14286"/>
<path d="M10 5.71431L10.2548 7.45717L11.2405 5.99765L10.7119 7.6786L12.2333 6.7905L11.0286 8.07622L12.7857 7.93574L11.1429 8.57146L12.7857 9.20717L11.0286 9.06669L12.2333 10.3524L10.7119 9.46431L11.2405 11.1453L10.2548 9.68574L10 11.4286L9.74524 9.68574L8.75953 11.1453L9.2881 9.46431L7.76667 10.3524L8.97143 9.06669L7.21429 9.20717L8.85714 8.57146L7.21429 7.93574L8.97143 8.07622L7.76667 6.7905L9.2881 7.6786L8.75953 5.99765L9.74524 7.45717L10 5.71431ZM8.57143 5.78574C8.10745 5.57987 7.59939 5.49315 7.09338 5.53346C6.58738 5.57377 6.09946 5.73983 5.67392 6.01656C5.24838 6.2933 4.8987 6.67194 4.65663 7.11811C4.41457 7.56428 4.28778 8.06385 4.28778 8.57146C4.28778 9.07906 4.41457 9.57863 4.65663 10.0248C4.8987 10.471 5.24838 10.8496 5.67392 11.1263C6.09946 11.4031 6.58738 11.5691 7.09338 11.6095C7.59939 11.6498 8.10745 11.563 8.57143 11.3572C8.05909 11.7248 7.4553 11.944 6.82645 11.9906C6.19761 12.0373 5.56808 11.9096 5.00709 11.6217C4.4461 11.3337 3.97538 10.8967 3.64671 10.3585C3.31803 9.82039 3.14413 9.20203 3.14413 8.57146C3.14413 7.94088 3.31803 7.32252 3.64671 6.78438C3.97538 6.24624 4.4461 5.80917 5.00709 5.52122C5.56808 5.23328 6.19761 5.10562 6.82645 5.15229C7.4553 5.19896 8.05909 5.41814 8.57143 5.78574Z" fill="#FFCC00"/>
</g>
</svg>
