<svg xmlns="http://www.w3.org/2000/svg" width="24" height="24" viewBox="0 0 24 24" fill="none"><rect width="24" height="24" fill="none"/>
<path d="M1.79742 4C0.804703 4 0 4.81882 0 5.82896V16.2105L18.2069 4H1.79742Z" fill="#73AF00"/>
<path d="M22.2026 20C23.1952 20 24 19.1812 24 18.1711V7.78949L5.79309 20H22.2026Z" fill="#4173CD"/>
<path d="M22.2026 4H17.9596L0 15.9731V18.171C0 19.1811 0.804703 20 1.79742 20H6.04036L24 8.0269V5.82896C24 4.81882 23.1953 4 22.2026 4Z" fill="#FFE15A"/>
<path d="M22.2026 4H20.2245L0 17.483V18.171C0 19.1811 0.804703 20 1.79742 20H3.77555L24 6.51704V5.82896C24 4.81882 23.1953 4 22.2026 4Z" fill="#464655"/>
</svg>
