<svg xmlns="http://www.w3.org/2000/svg" width="24" height="24" viewBox="0 0 24 24" fill="none"><rect width="24" height="24" fill="none"/>
<path d="M22.2026 4H1.79742C0.804703 4 0 4.81882 0 5.82896V7.36844H24V5.82896C24 4.81882 23.1953 4 22.2026 4Z" fill="#FF4B55"/>
<path d="M0 18.171C0 19.1811 0.804703 20 1.79742 20H22.2026C23.1952 20 24 19.1811 24 18.171V16.6315H0V18.171Z" fill="#FF4B55"/>
<path d="M24 7.36859H0V16.6319H24V7.36859Z" fill="#F5F5F5"/>
<path d="M12.8842 14.8323L16.7083 14.054C16.9843 13.9978 17.1075 13.6673 16.9375 13.439C16.8778 13.3588 16.7899 13.3053 16.6922 13.2899L12.6183 12.6435C12.5057 12.6256 12.4259 12.518 12.4448 12.399C12.4631 12.2839 12.5778 12.2106 12.6915 12.2257L15.5161 12.6039C15.7457 12.6346 15.8865 12.3556 15.7281 12.1836L15.5013 11.9375C15.4165 11.8453 15.3052 11.7828 15.1833 11.7588L12.8237 11.2938L14.8356 11.4413C14.9898 11.4526 15.0792 11.2671 14.9759 11.15L14.8728 11.033C14.8104 10.9623 14.7275 10.9136 14.6361 10.8942L12.6386 10.4695L14.0582 10.4277C14.1837 10.424 14.2476 10.2726 14.1637 10.1775L14.1 10.1053C14.0501 10.0488 13.9856 10.0077 13.9139 9.98672L12.6478 9.61683H13.6428C13.7412 9.61683 13.8074 9.51418 13.7683 9.42232L13.7348 9.34357C13.6945 9.24903 13.6169 9.1762 13.5211 9.143L12.601 8.82448L13.0535 8.823C13.188 8.82257 13.2782 8.68224 13.2247 8.5567C13.1816 8.45554 13.1056 8.37259 13.0094 8.32184L12 7.78949L10.9906 8.32203C10.8944 8.37278 10.8184 8.45573 10.7753 8.55689C10.7218 8.68248 10.812 8.82276 10.9465 8.82314L11.399 8.82467L10.4789 9.14319C10.3831 9.17634 10.3054 9.24917 10.2652 9.34376L10.2317 9.42251C10.1925 9.51442 10.2587 9.61702 10.3571 9.61702H11.3521L10.0861 9.98691C10.0143 10.0078 9.94984 10.049 9.89997 10.1055L9.83631 10.1777C9.75245 10.2728 9.8163 10.4242 9.94178 10.4279L11.3613 10.4697L9.36386 10.8944C9.27245 10.9138 9.18958 10.9625 9.12723 11.0332L9.02406 11.1502C8.92075 11.2673 9.01009 11.4528 9.16436 11.4415L11.1763 11.294L8.81669 11.759C8.69481 11.783 8.58353 11.8455 8.49864 11.9377L8.27186 12.1838C8.11347 12.3557 8.25433 12.6349 8.48388 12.6041L11.3085 12.2259C11.4221 12.2107 11.5369 12.2841 11.5552 12.3992C11.5741 12.5182 11.4943 12.6258 11.3817 12.6437L7.30778 13.2901C7.21014 13.3055 7.1222 13.359 7.06248 13.4392C6.89252 13.6674 7.0157 13.9979 7.2917 14.0542L11.1158 14.8324V15.3181C11.1158 15.5832 11.0123 15.8375 10.8281 16.0249L10.2317 16.6317H12H13.7684L13.1719 16.0248C12.9877 15.8374 12.8842 15.5831 12.8842 15.318V14.8323H12.8842Z" fill="#73AF00"/>
</svg>
