<svg xmlns="http://www.w3.org/2000/svg" width="24" height="24" viewBox="0 0 24 24" fill="none"><rect width="24" height="24" fill="none"/>
<path d="M22.2026 20H1.79742C0.804703 20 0 19.1812 0 18.171V5.82896C0 4.81887 0.804703 4 1.79742 4H22.2026C23.1952 4 24 4.81882 24 5.82896V18.1711C24 19.1812 23.1953 20 22.2026 20Z" fill="#41479B"/>
<path d="M0.413813 12H1.13259L4.96556 9.44466V12H7.03453V9.44466L10.8675 12H11.5862C11.8148 12 12 11.8115 12 11.5789V11.2449L8.71158 9.05263H12V6.94737H8.71148L12 4.75505V4.42107C12 4.1886 11.8148 4.00014 11.5864 4H10.8675L7.03448 6.55534V4H4.96552V6.55534L1.25831 4.08385C0.825469 4.22217 0.463594 4.52281 0.240516 4.91541L3.28852 6.94737H0V9.05263H3.28852L0 11.2449V11.5789C0 11.8115 0.185297 12 0.413813 12Z" fill="#F5F5F5"/>
<path d="M12 7.36844H6.62067V4H5.37933V7.36844H0V8.63156H5.37933V12H6.62067V8.63156H12V7.36844Z" fill="#FF4B55"/>
<path d="M0.38562 4.69764L3.79165 6.94738H4.55168L0.684683 4.39319C0.573636 4.48238 0.473276 4.5846 0.38562 4.69764Z" fill="#FF4B55"/>
<path d="M7.79452 6.94737L11.937 4.21116C11.865 4.08719 11.738 4 11.5862 4H11.4967L7.03448 6.94737H7.79452Z" fill="#FF4B55"/>
<path d="M4.19412 9.05261L0.0595093 11.7836C0.130806 11.9105 0.259806 12 0.413837 12H0.491884L4.9542 9.05261H4.19412Z" fill="#FF4B55"/>
<path d="M11.9935 11.612L8.11849 9.05261H7.35846L11.7588 11.9591C11.8906 11.8968 11.981 11.7664 11.9935 11.612Z" fill="#FF4B55"/>
<path d="M17.6778 6.94951L17.8296 7.41255L18.3092 7.41632C18.3464 7.41666 18.3618 7.46483 18.3319 7.48734L17.946 7.7773L18.0907 8.24268C18.1019 8.27874 18.0616 8.3086 18.0313 8.28656L17.641 8.00271L17.2507 8.28656C17.2204 8.30855 17.1802 8.27874 17.1913 8.24268L17.336 7.7773L16.9501 7.48734C16.9202 7.46488 16.9356 7.41661 16.9727 7.41632L17.4524 7.41255L17.6042 6.94951C17.6162 6.91364 17.6661 6.91364 17.6778 6.94951Z" fill="#F5F5F5"/>
<path d="M15.6382 7.51892L15.9619 7.87914L16.4016 7.6841C16.4357 7.66898 16.4691 7.70666 16.4507 7.73957L16.2141 8.16418L16.5323 8.52944C16.5569 8.55777 16.532 8.6017 16.4956 8.59412L16.0256 8.49634L15.7826 8.91713C15.7637 8.9497 15.715 8.93916 15.7108 8.90158L15.6569 8.41659L15.1885 8.31142C15.1522 8.30326 15.147 8.2528 15.1809 8.23715L15.6175 8.03515L15.5711 7.54936C15.5675 7.51167 15.6131 7.49107 15.6382 7.51892Z" fill="#F5F5F5"/>
<path d="M14.0025 8.8834L14.4422 9.07844L14.7659 8.71823C14.791 8.69032 14.8366 8.71098 14.833 8.74861L14.7865 9.23441L15.2232 9.43641C15.257 9.45205 15.2518 9.50252 15.2156 9.51067L14.7471 9.61585L14.6933 10.1008C14.6891 10.1384 14.6403 10.149 14.6215 10.1164L14.3784 9.6956L13.9084 9.79337C13.872 9.80096 13.8471 9.75703 13.8718 9.7287L14.19 9.36343L13.9534 8.93883C13.9351 8.90601 13.9684 8.86828 14.0025 8.8834Z" fill="#F5F5F5"/>
<path d="M13.0536 10.8068L13.5333 10.803L13.685 10.34C13.6968 10.3041 13.7466 10.3041 13.7584 10.34L13.9102 10.803L14.3898 10.8068C14.427 10.8071 14.4424 10.8553 14.4125 10.8778L14.0266 11.1678L14.1713 11.6332C14.1825 11.6692 14.1422 11.6991 14.1119 11.677L13.7216 11.3932L13.3313 11.677C13.301 11.699 13.2608 11.6692 13.2719 11.6332L13.4166 11.1678L13.0307 10.8778C13.0011 10.8553 13.0165 10.807 13.0536 10.8068Z" fill="#F5F5F5"/>
<path d="M12.9557 12.9567L13.3924 12.7547L13.3459 12.2689C13.3423 12.2313 13.3879 12.2107 13.413 12.2385L13.7367 12.5987L14.1764 12.4037C14.2105 12.3886 14.2438 12.4263 14.2255 12.4592L13.9888 12.8838L14.307 13.249C14.3317 13.2774 14.3067 13.3213 14.2704 13.3137L13.8004 13.2159L13.5573 13.6367C13.5385 13.6693 13.4898 13.6588 13.4855 13.6212L13.4317 13.1362L12.9633 13.031C12.927 13.0228 12.9219 12.9724 12.9557 12.9567Z" fill="#F5F5F5"/>
<path d="M13.7255 14.9612L14.0437 14.5959L13.8071 14.1713C13.7888 14.1384 13.8221 14.1007 13.8562 14.1158L14.2959 14.3109L14.6196 13.9506C14.6446 13.9227 14.6902 13.9434 14.6866 13.981L14.6401 14.4668L15.0768 14.6688C15.1107 14.6845 15.1054 14.7349 15.0692 14.7431L14.6008 14.8483L14.5469 15.3333C14.5427 15.3708 14.4939 15.3814 14.4751 15.3488L14.2321 14.928L13.7621 15.0258C13.7258 15.0334 13.7009 14.9895 13.7255 14.9612Z" fill="#F5F5F5"/>
<path d="M15.23 16.4739L15.3747 16.0085L14.9888 15.7185C14.9589 15.6961 14.9743 15.6478 15.0114 15.6475L15.4911 15.6437L15.6428 15.1807C15.6546 15.1448 15.7044 15.1448 15.7163 15.1807L15.868 15.6437L16.3477 15.6475C16.3848 15.6478 16.4002 15.696 16.3703 15.7185L15.9844 16.0085L16.1291 16.4739C16.1403 16.5099 16.1 16.5398 16.0697 16.5177L15.6794 16.2339L15.2891 16.5177C15.2592 16.5397 15.2189 16.5099 15.23 16.4739Z" fill="#F5F5F5"/>
<path d="M17.2091 17.233L17.1553 16.748L16.6868 16.6429C16.6505 16.6347 16.6454 16.5842 16.6792 16.5686L17.1159 16.3666L17.0694 15.8808C17.0658 15.8432 17.1114 15.8226 17.1365 15.8504L17.4602 16.2106L17.8999 16.0156C17.934 16.0005 17.9673 16.0381 17.949 16.0711L17.7123 16.4957L18.0305 16.8609C18.0552 16.8893 18.0302 16.9332 17.9939 16.9256L17.5239 16.8278L17.2808 17.2486C17.262 17.2811 17.2133 17.2706 17.2091 17.233Z" fill="#F5F5F5"/>
<path d="M19.3206 17.1074L19.0775 16.6866L18.6075 16.7844C18.5711 16.792 18.5462 16.748 18.5709 16.7197L18.8891 16.3545L18.6525 15.9299C18.6341 15.897 18.6675 15.8593 18.7015 15.8744L19.1412 16.0695L19.4649 15.7093C19.49 15.6814 19.5356 15.702 19.532 15.7396L19.4855 16.2254L19.9222 16.4274C19.956 16.4431 19.9508 16.4935 19.9146 16.5017L19.4461 16.6069L19.3923 17.0919C19.3882 17.1294 19.3394 17.14 19.3206 17.1074Z" fill="#F5F5F5"/>
<path d="M21.1993 16.1189L20.809 15.835L20.4187 16.1189C20.3885 16.1409 20.3482 16.1111 20.3594 16.075L20.504 15.6096L20.1181 15.3197C20.0882 15.2972 20.1037 15.2489 20.1408 15.2486L20.6204 15.2449L20.7722 14.7818C20.7839 14.7459 20.8338 14.7459 20.8456 14.7818L20.9974 15.2449L21.477 15.2486C21.5142 15.249 21.5296 15.2971 21.4997 15.3197L21.1138 15.6096L21.2585 16.075C21.2699 16.111 21.2295 16.1408 21.1993 16.1189Z" fill="#F5F5F5"/>
<path d="M22.5204 14.4382L22.0505 14.3404L21.8074 14.7612C21.7886 14.7937 21.7398 14.7832 21.7356 14.7456L21.6818 14.2606L21.2133 14.1554C21.177 14.1473 21.1719 14.0968 21.2057 14.0812L21.6424 13.8792L21.5959 13.3934C21.5923 13.3558 21.6379 13.3351 21.663 13.363L21.9867 13.7232L22.4264 13.5282C22.4604 13.5131 22.4938 13.5507 22.4754 13.5837L22.2388 14.0082L22.557 14.3735C22.5818 14.4018 22.5569 14.4457 22.5204 14.4382Z" fill="#F5F5F5"/>
<path d="M23.0556 12.3561L22.5872 12.4613L22.5333 12.9463C22.5291 12.9839 22.4803 12.9944 22.4615 12.9618L22.2184 12.541L21.7485 12.6388C21.7121 12.6464 21.6871 12.6025 21.7118 12.5741L22.03 12.2089L21.7934 11.7843C21.7751 11.7514 21.8084 11.7137 21.8425 11.7288L22.2821 11.9238L22.6059 11.5636C22.6309 11.5357 22.6765 11.5564 22.6729 11.594L22.6264 12.0798L23.0631 12.2818C23.0971 12.2975 23.0919 12.348 23.0556 12.3561Z" fill="#F5F5F5"/>
<path d="M22.7121 10.2325L22.3262 10.5225L22.4709 10.9878C22.4821 11.0239 22.4417 11.0538 22.4115 11.0317L22.0212 10.7479L21.6309 11.0317C21.6006 11.0537 21.5604 11.0239 21.5715 10.9878L21.7162 10.5225L21.3303 10.2325C21.3004 10.21 21.3158 10.1618 21.3529 10.1615L21.8326 10.1577L21.9844 9.69466C21.9961 9.65875 22.046 9.65875 22.0578 9.69466L22.2096 10.1577L22.6892 10.1615C22.7266 10.1618 22.742 10.2101 22.7121 10.2325Z" fill="#F5F5F5"/>
<path d="M21.5495 8.43462L21.3129 8.85922L21.6311 9.22449C21.6557 9.25282 21.6308 9.29675 21.5944 9.28916L21.1245 9.19138L20.8814 9.61217C20.8626 9.64475 20.8138 9.63421 20.8096 9.59662L20.7557 9.11163L20.2873 9.00646C20.251 8.9983 20.2458 8.94784 20.2797 8.9322L20.7164 8.7302L20.6699 8.2444C20.6663 8.20677 20.7119 8.18611 20.7369 8.21402L21.0607 8.57423L21.5003 8.37919C21.5345 8.36402 21.5678 8.40175 21.5495 8.43462Z" fill="#F5F5F5"/>
<path d="M19.7688 7.27337L19.7224 7.75916L20.159 7.96116C20.1929 7.97681 20.1876 8.02727 20.1514 8.03543L19.683 8.1406L19.6291 8.62559C19.625 8.66317 19.5762 8.67371 19.5573 8.64114L19.3143 8.22035L18.8443 8.31813C18.8079 8.32571 18.7829 8.28178 18.8076 8.25345L19.1258 7.88819L18.8892 7.46358C18.8709 7.43067 18.9043 7.39299 18.9383 7.40811L19.378 7.60315L19.7017 7.24294C19.7269 7.21503 19.7724 7.23573 19.7688 7.27337Z" fill="#F5F5F5"/>
<path d="M17.6778 6.94951L17.8296 7.41255L18.3092 7.41632C18.3464 7.41666 18.3618 7.46483 18.3319 7.48734L17.946 7.7773L18.0907 8.24268C18.1019 8.27874 18.0616 8.3086 18.0313 8.28656L17.641 8.00271L17.2507 8.28656C17.2204 8.30855 17.1802 8.27874 17.1913 8.24268L17.336 7.7773L16.9501 7.48734C16.9202 7.46488 16.9356 7.41661 16.9727 7.41632L17.4524 7.41255L17.6042 6.94951C17.6162 6.91364 17.6661 6.91364 17.6778 6.94951Z" fill="#F5F5F5"/>
</svg>
