<svg xmlns="http://www.w3.org/2000/svg" width="24" height="24" viewBox="0 0 24 24" fill="none"><rect width="24" height="24" fill="none"/>
<path d="M22.2024 4H1.79494C0.834703 4 0.0504844 4.76593 0 5.73012V18.2699C0.0504844 19.234 0.834703 20 1.79494 20H22.2024C23.1952 20 24 19.1812 24 18.1711V5.82894C24 4.81882 23.1952 4 22.2024 4Z" fill="#F5F5F5"/>
<path d="M1.79495 4C1.3555 4 0.953028 4.16063 0.640747 4.42708L12.0014 12V4H1.79495Z" fill="#464655"/>
<path d="M23.3589 4.42914L12.0013 11.9999H24V5.82889C24 5.26708 23.7507 4.7646 23.3589 4.42914Z" fill="#464655"/>
<path d="M0 18.2699C0.027375 18.7928 0.270703 19.2571 0.640734 19.5728L12.0014 12H0V18.2699Z" fill="#464655"/>
<path d="M22.2024 20C22.643 20 23.0463 19.8384 23.3589 19.5708L12.0013 12V20H22.2024Z" fill="#464655"/>
<path d="M12.9945 11.4105V12.7579C12.9945 13.3151 12.549 13.7684 12.0013 13.7684C11.4536 13.7684 11.0081 13.3151 11.0081 12.7579V11.4105H12.9945ZM13.3256 10.7368H10.677C10.4942 10.7368 10.3459 10.8876 10.3459 11.0737V12.7579C10.3459 13.688 11.0871 14.442 12.0013 14.442C12.9155 14.442 13.6566 13.688 13.6566 12.7579V11.0737C13.6567 10.8876 13.5085 10.7368 13.3256 10.7368Z" fill="#FF4B55"/>
<path d="M12.9945 11.4105V12.7579C12.9945 13.3151 12.549 13.7684 12.0013 13.7684C11.4536 13.7684 11.0081 13.3151 11.0081 12.7579V11.4105H12.9945Z" fill="#F5F5F5"/>
<path d="M10.6744 11.2418C10.7658 11.2418 10.8399 11.1664 10.8399 11.0734C10.8399 10.9804 10.7658 10.905 10.6744 10.905C10.583 10.905 10.5089 10.9804 10.5089 11.0734C10.5089 11.1664 10.583 11.2418 10.6744 11.2418Z" fill="#FFE15A"/>
<path d="M13.3234 11.2418C13.4148 11.2418 13.4889 11.1664 13.4889 11.0734C13.4889 10.9804 13.4148 10.905 13.3234 10.905C13.2319 10.905 13.1578 10.9804 13.1578 11.0734C13.1578 11.1664 13.2319 11.2418 13.3234 11.2418Z" fill="#FFE15A"/>
<path d="M10.6744 12.5891C10.7658 12.5891 10.8399 12.5137 10.8399 12.4207C10.8399 12.3277 10.7658 12.2523 10.6744 12.2523C10.583 12.2523 10.5089 12.3277 10.5089 12.4207C10.5089 12.5137 10.583 12.5891 10.6744 12.5891Z" fill="#FFE15A"/>
<path d="M13.3234 12.5891C13.4148 12.5891 13.4889 12.5137 13.4889 12.4207C13.4889 12.3277 13.4148 12.2523 13.3234 12.2523C13.2319 12.2523 13.1578 12.3277 13.1578 12.4207C13.1578 12.5137 13.2319 12.5891 13.3234 12.5891Z" fill="#FFE15A"/>
<path d="M11.9986 11.2418C12.0901 11.2418 12.1642 11.1664 12.1642 11.0734C12.1642 10.9804 12.0901 10.905 11.9986 10.905C11.9072 10.905 11.8331 10.9804 11.8331 11.0734C11.8331 11.1664 11.9072 11.2418 11.9986 11.2418Z" fill="#FFE15A"/>
<path d="M11.9986 14.2874C12.0901 14.2874 12.1642 14.212 12.1642 14.119C12.1642 14.026 12.0901 13.9506 11.9986 13.9506C11.9072 13.9506 11.8331 14.026 11.8331 14.119C11.8331 14.212 11.9072 14.2874 11.9986 14.2874Z" fill="#FFE15A"/>
<path d="M12.9924 13.8314C13.0838 13.8314 13.1579 13.756 13.1579 13.663C13.1579 13.57 13.0838 13.4946 12.9924 13.4946C12.901 13.4946 12.8269 13.57 12.8269 13.663C12.8269 13.756 12.901 13.8314 12.9924 13.8314Z" fill="#FFE15A"/>
<path d="M11.0241 13.8314C11.1155 13.8314 11.1896 13.756 11.1896 13.663C11.1896 13.57 11.1155 13.4946 11.0241 13.4946C10.9327 13.4946 10.8586 13.57 10.8586 13.663C10.8586 13.756 10.9327 13.8314 11.0241 13.8314Z" fill="#FFE15A"/>
<path d="M12.2152 12.3356V12.6256C12.2152 12.7456 12.1193 12.8432 12.0014 12.8432C11.8835 12.8432 11.7876 12.7456 11.7876 12.6256V12.3356H12.2152Z" fill="#41479B"/>
<path d="M12.2152 11.6478V11.9379C12.2152 12.0578 12.1193 12.1554 12.0014 12.1554C11.8835 12.1554 11.7876 12.0578 11.7876 11.9379V11.6478H12.2152Z" fill="#41479B"/>
<path d="M12.2152 13.0303V13.3204C12.2152 13.4403 12.1193 13.5379 12.0014 13.5379C11.8835 13.5379 11.7876 13.4403 11.7876 13.3204V13.0303H12.2152Z" fill="#41479B"/>
<path d="M12.7911 12.3356V12.6256C12.7911 12.7456 12.6952 12.8432 12.5773 12.8432C12.4594 12.8432 12.3635 12.7456 12.3635 12.6256V12.3356H12.7911Z" fill="#41479B"/>
<path d="M11.6393 12.3356V12.6256C11.6393 12.7456 11.5434 12.8432 11.4255 12.8432C11.3076 12.8432 11.2117 12.7456 11.2117 12.6256V12.3356H11.6393Z" fill="#41479B"/>
<path d="M13.604 10.7368H10.415C10.3075 10.7368 10.2203 10.6481 10.2203 10.5387V10.4148C10.2203 10.3054 10.3075 10.2167 10.415 10.2167H13.604C13.7116 10.2167 13.7988 10.3054 13.7988 10.4148V10.5387C13.7988 10.6482 13.7116 10.7368 13.604 10.7368Z" fill="#FFE15A"/>
<path d="M12.0095 10.3468L11.7539 10.4768L12.0095 10.6068L12.2652 10.4768L12.0095 10.3468Z" fill="#FF4B55"/>
<path d="M12.8404 10.6067C12.9463 10.6067 13.0321 10.5485 13.0321 10.4767C13.0321 10.4048 12.9463 10.3466 12.8404 10.3466C12.7345 10.3466 12.6487 10.4048 12.6487 10.4767C12.6487 10.5485 12.7345 10.6067 12.8404 10.6067Z" fill="#4173CD"/>
<path d="M11.1787 10.6067C11.2846 10.6067 11.3704 10.5485 11.3704 10.4767C11.3704 10.4048 11.2846 10.3466 11.1787 10.3466C11.0728 10.3466 10.987 10.4048 10.987 10.4767C10.987 10.5485 11.0728 10.6067 11.1787 10.6067Z" fill="#4173CD"/>
<path d="M12.457 10.5417C12.4923 10.5417 12.5209 10.5126 12.5209 10.4767C12.5209 10.4408 12.4923 10.4117 12.457 10.4117C12.4217 10.4117 12.3931 10.4408 12.3931 10.4767C12.3931 10.5126 12.4217 10.5417 12.457 10.5417Z" fill="#F5F5F5"/>
<path d="M13.2239 10.5417C13.2592 10.5417 13.2878 10.5126 13.2878 10.4767C13.2878 10.4408 13.2592 10.4117 13.2239 10.4117C13.1886 10.4117 13.16 10.4408 13.16 10.4767C13.16 10.5126 13.1886 10.5417 13.2239 10.5417Z" fill="#F5F5F5"/>
<path d="M11.5622 10.5417C11.5975 10.5417 11.6261 10.5126 11.6261 10.4767C11.6261 10.4408 11.5975 10.4117 11.5622 10.4117C11.5269 10.4117 11.4983 10.4408 11.4983 10.4767C11.4983 10.5126 11.5269 10.5417 11.5622 10.5417Z" fill="#F5F5F5"/>
<path d="M10.7953 10.5417C10.8306 10.5417 10.8592 10.5126 10.8592 10.4767C10.8592 10.4408 10.8306 10.4117 10.7953 10.4117C10.7601 10.4117 10.7314 10.4408 10.7314 10.4767C10.7314 10.5126 10.7601 10.5417 10.7953 10.5417Z" fill="#F5F5F5"/>
<path d="M10.2203 10.4118V10.5418L10.3481 10.6068L10.6037 10.4768L10.3481 10.3468L10.2203 10.4118Z" fill="#FF4B55"/>
<path d="M13.7989 10.5418V10.4118L13.6711 10.3469L13.4155 10.4769L13.6711 10.6068L13.7989 10.5418Z" fill="#FF4B55"/>
<path d="M11.159 9.37085C11.1182 9.35044 11.0697 9.36303 11.029 9.39512C11.0499 9.3636 11.0619 9.32154 11.0596 9.2758C11.055 9.1828 10.994 9.11031 10.9236 9.11403C10.8531 9.11765 10.7997 9.19601 10.8043 9.28901C10.8068 9.33842 10.8258 9.38096 10.853 9.41043C10.798 9.38311 10.7377 9.38573 10.701 9.42322C10.6511 9.47396 10.6631 9.56853 10.7278 9.63439C10.7926 9.7003 10.8855 9.71251 10.9354 9.66172C10.9494 9.64756 10.9574 9.62963 10.9618 9.61017C10.972 9.6374 10.9877 9.66096 11.0126 9.67341C11.0759 9.70512 11.16 9.66315 11.2005 9.5796C11.2408 9.49604 11.2223 9.40261 11.159 9.37085ZM10.9711 9.46466C10.9617 9.48402 10.9563 9.50386 10.953 9.52342C10.9435 9.49781 10.9301 9.47253 10.9085 9.45054C10.9048 9.44677 10.9003 9.44496 10.8964 9.44148C10.9104 9.44739 10.925 9.45159 10.9404 9.45078C10.9611 9.44968 10.9795 9.44072 10.9962 9.42837C10.9873 9.43981 10.9779 9.45069 10.9711 9.46466Z" fill="#F5F5F5"/>
<path d="M12.8022 9.57953C12.8427 9.66304 12.9268 9.70505 12.9901 9.67334C13.015 9.66084 13.0307 9.63724 13.0409 9.6101C13.0454 9.62951 13.0534 9.64749 13.0673 9.66165C13.1172 9.71245 13.2101 9.70024 13.2749 9.63433C13.3396 9.56846 13.3517 9.47389 13.3017 9.42315C13.2649 9.38566 13.2048 9.38304 13.1497 9.41037C13.177 9.38089 13.1959 9.33835 13.1984 9.28894C13.203 9.19594 13.1496 9.11759 13.0791 9.11396C13.0086 9.11034 12.9477 9.18273 12.9431 9.27573C12.9408 9.32152 12.9528 9.36353 12.9738 9.39506C12.9329 9.36296 12.8845 9.35037 12.8437 9.37078C12.7803 9.40254 12.7618 9.49597 12.8022 9.57953ZM13.0065 9.42825C13.0232 9.44065 13.0415 9.44962 13.0623 9.45067C13.0777 9.45148 13.0923 9.44723 13.1063 9.44137C13.1024 9.4448 13.0978 9.44661 13.0941 9.45043C13.0726 9.47237 13.0592 9.49769 13.0496 9.5233C13.0465 9.50379 13.041 9.48386 13.0316 9.46454C13.0248 9.45062 13.0154 9.43974 13.0065 9.42825Z" fill="#F5F5F5"/>
<path d="M14.3339 8.98892C14.1497 8.92224 13.7625 8.88657 13.6151 9.22704C13.5866 9.29281 13.6159 9.3695 13.6805 9.39845C13.7429 9.42649 13.8147 9.39873 13.8452 9.33735L13.8933 9.3954C13.853 9.51062 13.8369 9.61378 13.8323 9.64926C13.7665 9.92659 13.5135 9.95668 13.4072 9.95668C13.2356 9.95668 13.1386 9.76963 13.1377 9.76773C13.1202 9.73329 13.0883 9.7083 13.0509 9.70005C13.0135 9.6918 12.9745 9.70058 12.9446 9.72442C12.8746 9.78041 12.6567 9.93169 12.4924 9.9583C12.4131 9.97123 12.3485 9.95778 12.3048 9.91972C12.2694 9.88901 12.2569 9.85042 12.2569 9.82667C12.2569 9.76839 12.3273 9.69662 12.3847 9.69662C12.4282 9.69662 12.4448 9.72495 12.4448 9.72495C12.4751 9.79019 12.5514 9.8178 12.6151 9.78714C12.6789 9.75628 12.7061 9.67883 12.6759 9.61392C12.6512 9.5606 12.5829 9.47833 12.4706 9.44857C12.5388 9.33845 12.6015 9.20468 12.6404 9.04648L12.2569 8.91643C12.2569 8.91643 12.3848 8.52631 12.0013 8.52631C11.6179 8.52631 11.7457 8.91643 11.7457 8.91643L11.3623 9.04648C11.4012 9.20468 11.4638 9.33855 11.532 9.44857C11.4197 9.47838 11.3514 9.56065 11.3267 9.61392C11.2965 9.67883 11.3237 9.75628 11.3875 9.78714C11.4512 9.81771 11.5275 9.79019 11.5577 9.72518C11.5577 9.72518 11.5745 9.69662 11.6179 9.69662C11.6753 9.69662 11.7458 9.76835 11.7458 9.82667C11.7458 9.85042 11.7332 9.88905 11.6979 9.91972C11.6542 9.95783 11.5895 9.97127 11.5103 9.9583C11.3459 9.93159 11.128 9.78041 11.0581 9.72442C11.0281 9.70053 10.9891 9.6918 10.9517 9.70005C10.9144 9.7083 10.8825 9.73329 10.865 9.76773C10.864 9.76963 10.7671 9.95668 10.5955 9.95668C10.4891 9.95668 10.2361 9.92659 10.1703 9.64926C10.1658 9.61378 10.1497 9.51067 10.1094 9.3954L10.1575 9.33735C10.188 9.39878 10.2598 9.42649 10.3222 9.39845C10.3868 9.3695 10.4161 9.29281 10.3876 9.22704C10.2402 8.88662 9.8529 8.92229 9.66882 8.98892C9.61609 9.00795 9.58164 9.05964 9.58384 9.11654C9.58595 9.17344 9.62429 9.22218 9.67829 9.23706C9.83486 9.27984 9.90512 9.58435 9.9174 9.6876C9.91796 9.69204 9.91881 9.69676 9.91975 9.7012C9.99118 10.0192 10.2502 10.2168 10.5955 10.2168C10.7934 10.2168 10.9303 10.1028 11.0097 10.0083C11.1217 10.0834 11.3019 10.188 11.47 10.2151C11.5023 10.2203 11.5339 10.223 11.5647 10.223C11.6802 10.223 11.7841 10.1868 11.8638 10.1176C11.95 10.0429 12.0014 9.93403 12.0014 9.82677C12.0014 9.93407 12.0528 10.0429 12.139 10.1176C12.2186 10.1868 12.3226 10.223 12.4381 10.223C12.4689 10.223 12.5004 10.2204 12.5327 10.2151C12.7009 10.188 12.8811 10.0834 12.9931 10.0083C13.0725 10.1028 13.2093 10.2168 13.4073 10.2168C13.7526 10.2168 14.0116 10.0192 14.083 9.7012C14.084 9.69676 14.0848 9.69204 14.0854 9.6876C14.0976 9.58435 14.1679 9.27989 14.3244 9.23706C14.3785 9.22223 14.4168 9.17344 14.4189 9.11654C14.421 9.05964 14.3866 9.00795 14.3339 8.98892Z" fill="#FFE15A"/>
<path d="M9.78142 9.25685C9.71621 9.28437 9.69623 9.38735 9.73679 9.48686C9.77735 9.58636 9.8631 9.64472 9.92831 9.61721C9.99352 9.58969 10.0135 9.48672 9.97294 9.38721C9.93238 9.2877 9.84663 9.22934 9.78142 9.25685Z" fill="#4173CD"/>
<path d="M14.0742 9.61648C14.1394 9.64399 14.2252 9.58563 14.2657 9.48612C14.3063 9.38662 14.2863 9.28364 14.2211 9.25612C14.1559 9.22861 14.0701 9.28697 14.0296 9.38648C13.989 9.48598 14.009 9.58896 14.0742 9.61648Z" fill="#4173CD"/>
<path d="M12.0014 9.56688C12.1073 9.56688 12.1931 9.45045 12.1931 9.30682C12.1931 9.16319 12.1073 9.04675 12.0014 9.04675C11.8955 9.04675 11.8097 9.16319 11.8097 9.30682C11.8097 9.45045 11.8955 9.56688 12.0014 9.56688Z" fill="#4173CD"/>
</svg>
