<svg xmlns="http://www.w3.org/2000/svg" width="24" height="24" viewBox="0 0 24 24" fill="none"><rect width="24" height="24" fill="none"/>
<path d="M1.79742 20H22.2026C22.6425 20 23.0454 19.8389 23.3578 19.5718L0.642188 4.4281C0.249656 4.76365 0 5.26653 0 5.82897V18.1711C0 19.1812 0.804703 20 1.79742 20Z" fill="#41479B"/>
<path d="M24 18.171V5.82896C24 4.81887 23.1953 4 22.2026 4H1.79743C1.35746 4 0.954617 4.16107 0.642242 4.42808L23.3579 19.5718C23.7504 19.2364 24 18.7335 24 18.171Z" fill="#73AF00"/>
<path d="M12 14.5263C13.3712 14.5263 14.4828 13.3952 14.4828 12C14.4828 10.6047 13.3712 9.47363 12 9.47363C10.6288 9.47363 9.51721 10.6047 9.51721 12C9.51721 13.3952 10.6288 14.5263 12 14.5263Z" fill="#FFE15A"/>
<path d="M1.81003 12.0286L1.95366 12.3988L2.32763 12.2822C2.34844 12.2757 2.3662 12.2985 2.35542 12.3177L2.16052 12.6628L2.4832 12.8876C2.50116 12.9001 2.49478 12.9284 2.47327 12.9318L2.08664 12.9919L2.1151 13.3888C2.11669 13.4108 2.09091 13.4235 2.07497 13.4085L1.78777 13.1384L1.50056 13.4085C1.48463 13.4235 1.45885 13.4109 1.46044 13.3888L1.48889 12.9919L1.10227 12.9318C1.0808 12.9285 1.07442 12.9001 1.09233 12.8876L1.41502 12.6628L1.22011 12.3177C1.20928 12.2985 1.2271 12.2758 1.24791 12.2822L1.62188 12.3988L1.7655 12.0286C1.77342 12.008 1.80202 12.008 1.81003 12.0286Z" fill="#F5F5F5"/>
<path d="M7.04023 11.0307L7.18385 11.4009L7.55782 11.2843C7.57863 11.2778 7.5964 11.3006 7.58562 11.3198L7.39071 11.6649L7.7134 11.8897C7.73135 11.9022 7.72498 11.9305 7.70346 11.9339L7.31684 11.994L7.34529 12.3909C7.34688 12.4129 7.3211 12.4256 7.30516 12.4106L7.01796 12.1405L6.73076 12.4106C6.71477 12.4256 6.68904 12.413 6.69063 12.3909L6.71909 11.994L6.33246 11.9339C6.31099 11.9306 6.30462 11.9022 6.32252 11.8897L6.64521 11.6649L6.45031 11.3198C6.43948 11.3006 6.45729 11.2779 6.4781 11.2843L6.85207 11.4009L6.9957 11.0307C7.00362 11.0101 7.03226 11.0101 7.04023 11.0307Z" fill="#F5F5F5"/>
<path d="M4.42508 8.63102L4.56871 9.0012L4.94268 8.88467C4.96349 8.87819 4.98126 8.90094 4.97047 8.92016L4.77557 9.2652L5.09826 9.49005C5.11621 9.50255 5.10983 9.53088 5.08832 9.53426L4.70169 9.59436L4.73015 9.99125C4.73174 10.0133 4.70596 10.0259 4.69002 10.011L4.40282 9.74084L4.11562 10.011C4.09968 10.0259 4.0739 10.0133 4.07549 9.99125L4.10394 9.59436L3.71732 9.53426C3.69585 9.53093 3.68947 9.50255 3.70738 9.49005L4.03007 9.2652L3.83516 8.92016C3.82433 8.90099 3.84215 8.87823 3.86296 8.88467L4.23693 9.0012L4.38055 8.63102C4.38852 8.61046 4.41712 8.61046 4.42508 8.63102Z" fill="#F5F5F5"/>
<path d="M4.42508 17.3505L4.56871 17.7207L4.94268 17.6042C4.96349 17.5977 4.98126 17.6204 4.97047 17.6396L4.77557 17.9846L5.09826 18.2095C5.11621 18.222 5.10983 18.2503 5.08832 18.2537L4.70169 18.3138L4.73015 18.7107C4.73174 18.7327 4.70596 18.7454 4.69002 18.7304L4.40282 18.4603L4.11562 18.7304C4.09968 18.7454 4.0739 18.7328 4.07549 18.7107L4.10394 18.3138L3.71732 18.2537C3.69585 18.2504 3.68947 18.222 3.70738 18.2095L4.03007 17.9846L3.83516 17.6396C3.82433 17.6204 3.84215 17.5977 3.86296 17.6042L4.23693 17.7207L4.38055 17.3505C4.38852 17.3299 4.41712 17.3299 4.42508 17.3505Z" fill="#F5F5F5"/>
<path d="M5.49553 12.3635L5.59575 12.6694L5.91267 12.672C5.93723 12.6721 5.94736 12.704 5.92767 12.7188L5.67271 12.9104L5.76829 13.2179C5.7757 13.2417 5.74907 13.2614 5.72911 13.2469L5.47129 13.0593L5.21348 13.2469C5.19351 13.2614 5.16689 13.2417 5.17429 13.2179L5.26987 12.9104L5.01492 12.7188C4.99514 12.704 5.00536 12.6721 5.02992 12.672L5.34684 12.6694L5.44706 12.3635C5.45484 12.3398 5.48779 12.3398 5.49553 12.3635Z" fill="#F5F5F5"/>
<path d="M10.527 10.9133C10.4254 10.8892 10.3234 11.155 10.4365 11.247C10.5496 11.3391 10.7532 11.5117 10.6288 11.6153C10.5044 11.7189 10.4591 11.7304 10.4365 11.857C10.4139 11.9836 10.4365 12.0066 10.3347 12.0642C10.2329 12.1217 9.99535 12.2368 10.0972 12.3519C10.199 12.467 10.3347 12.398 10.4251 12.2138C10.4251 12.2138 11.0585 12.1908 11.0812 12.2368C11.1038 12.2829 11.1603 12.4555 11.2961 12.4094C11.4318 12.3634 11.4318 12.3634 11.4318 12.3634C11.4318 12.3634 11.511 12.3288 11.5675 12.3979C11.624 12.467 11.7598 12.4899 11.9181 12.4899C12.0765 12.4899 12.2122 12.582 12.2009 12.8007C12.1937 12.9408 12.1585 13.232 12.1343 13.4232C12.1213 13.5257 12.1903 13.6199 12.2904 13.6368L12.58 13.686C12.6562 13.6988 12.727 13.6436 12.7338 13.5653C12.7474 13.4079 12.7671 13.1772 12.7665 13.169C12.7599 13.0863 12.9248 12.6627 12.9135 12.467C12.9022 12.2713 12.9022 12.2713 12.9022 12.2713C12.9022 12.2713 13.0718 12.2483 13.1397 12.1332C13.2076 12.0181 13.3546 11.7304 13.6486 11.6269L13.7278 11.4312C13.7278 11.4312 13.5016 11.3276 13.5468 11.2586C13.5921 11.1895 13.6147 11.0054 13.5808 10.8558C13.5468 10.7062 13.5355 10.499 13.5355 10.499C13.5355 10.499 13.4549 10.4643 13.4379 10.512C13.4208 10.5597 13.4038 10.5857 13.3612 10.577C13.3187 10.5684 13.2548 10.564 13.2377 10.5251C13.2207 10.4861 13.1739 10.4471 13.1313 10.4687C13.0887 10.4904 13.0163 10.7807 12.9142 10.811C12.9142 10.811 12.9056 10.6854 12.8418 10.7114C12.7779 10.7374 12.7822 10.798 12.7737 10.9063C12.7652 11.0146 12.0498 11.7468 11.4239 11.5519C11.4239 11.5519 11.3558 11.4133 11.2152 11.4262C11.0747 11.4392 10.9384 11.4349 10.8576 11.3352C10.7766 11.2355 10.6477 10.942 10.527 10.9133Z" fill="#73AF00"/>
<path d="M15.133 12.1172C15.3216 12.3211 17.3942 12.8955 19.4892 11.7788C21.5842 10.6622 22.8311 10.3407 22.8311 10.3407C22.8311 10.3407 22.8477 10.0531 23.1055 10.0109C23.3632 9.96855 23.2385 9.85861 23.172 9.774C23.1055 9.68943 22.7813 9.46101 22.3406 9.65556C22.3406 9.65556 21.828 9.67531 21.7504 8.95346C21.6729 8.23161 21.6396 7.49845 21.4622 7.18264C21.2849 6.86684 19.8218 5.28782 19.6444 5.41183C19.467 5.53589 20.0878 7.10366 20.6642 7.65638C20.6642 7.65638 20.7972 8.6264 20.6309 8.67147C20.4646 8.71659 19.5446 7.85938 17.9041 7.65638C17.9041 7.65638 18.6024 8.6264 19.4559 9.03245C20.3094 9.43849 20.5422 9.81072 20.5201 9.9686C20.4979 10.1265 20.2097 10.8822 19.7331 11.2319C19.2564 11.5815 18.0593 12.5289 15.3436 12.0327C15.3436 12.0326 15.0444 12.0213 15.133 12.1172Z" fill="#FFE15A"/>
</svg>
