<svg xmlns="http://www.w3.org/2000/svg" width="24" height="24" viewBox="0 0 24 24" fill="none"><rect width="24" height="24" fill="none"/>
<path d="M22.2026 4H1.79742C0.804703 4 0 4.81882 0 5.82896V9.33333H24V5.82896C24 4.81882 23.1953 4 22.2026 4Z" fill="#FF4B55"/>
<path d="M0 18.171C0 19.1811 0.804703 20 1.79742 20H22.2026C23.1952 20 24 19.1811 24 18.171V14.6666H0V18.171Z" fill="#464655"/>
<path d="M24 9.33325H0V14.6663H24V9.33325Z" fill="#F5F5F5"/>
<path d="M14.4405 10.928C14.397 10.905 14.3455 10.8225 14.3616 10.7865C14.3785 10.7486 14.3522 10.7519 14.4411 10.7788C14.6019 10.8211 14.7059 10.8018 14.8081 10.7134L14.8989 10.6402L15.0049 10.6941C15.0635 10.721 15.124 10.7403 15.141 10.7364C15.1902 10.7248 15.2849 10.6016 15.2829 10.5593C15.281 10.5017 15.3226 10.517 15.3434 10.5786C15.3869 10.6941 15.3069 10.8934 15.1971 10.9203C15.1443 10.9357 15.095 10.9319 15.0117 10.905C14.9134 10.8664 14.8982 10.8664 14.8453 10.905C14.7357 10.9935 14.5786 11.0013 14.4405 10.928Z" fill="#73AF00"/>
<path d="M14.8547 10.4824C14.8016 10.4067 14.7378 10.1418 14.7565 10.077C14.775 10.0175 14.7936 10.0067 14.8441 10.0229C14.9344 10.0553 14.9558 10.1148 14.945 10.3311C14.9291 10.4932 14.9079 10.5473 14.8547 10.4824Z" fill="#73AF00"/>
<path d="M11.2971 11.6533C11.0791 11.7795 10.7548 11.8012 10.7548 12.1509C10.28 12.1689 9.72002 12.1906 9.21499 12.1797C9.35187 11.9998 10.2182 11.1851 10.5784 10.8622C10.638 10.8088 10.6583 10.7054 10.6236 10.6326L10.6143 10.6131C10.5623 10.5041 10.421 10.4781 10.335 10.5618C9.97601 10.9113 9.62027 11.2369 9.56234 11.2927C9.09752 11.7706 8.9613 11.9099 8.88827 11.9847C8.83629 12.0379 8.80737 12.11 8.80774 12.185L8.80779 12.1899C8.80859 12.3459 8.93309 12.4718 9.08632 12.4718H11.1198C11.235 12.4718 11.0933 12.0644 11.2421 12.0644C11.3456 12.0644 11.3551 12.2106 11.3505 12.3654C11.3471 12.4832 11.2517 12.5764 11.1359 12.5766C10.2567 12.5778 9.34155 12.5864 8.48037 12.5872C8.40926 12.5872 8.35216 12.5285 8.35216 12.4561V12.2985C8.35216 12.1648 8.20629 12.0871 8.09651 12.1605C8.09248 12.1631 8.08854 12.1657 8.0846 12.1682C8.02723 12.2047 7.99788 12.2761 8.02029 12.3411C8.03482 12.3832 8.04115 12.4345 8.04251 12.4882C8.04438 12.5591 7.98762 12.6176 7.91791 12.6198C7.6331 12.6287 7.32359 12.6313 7.2357 12.4604C7.1861 12.364 7.08059 12.3185 6.98491 12.3672L6.97221 12.3737C6.87152 12.4249 6.83116 12.5516 6.88634 12.6515C6.99124 12.8413 7.08696 13.0614 7.03727 13.3698C6.99677 13.467 6.92046 13.5278 6.83777 13.5826C6.7459 13.6434 6.80355 13.7859 6.91132 13.7656C7.1726 13.7165 7.35265 13.506 7.40768 13.258H11.4586C11.6072 13.258 11.7276 13.1354 11.7276 12.9843V12.0897C11.6905 11.8228 11.4087 11.8336 11.2971 11.6533Z" fill="#73AF00"/>
<path d="M16.4353 10.4711C16.4951 10.5102 16.5549 10.5494 16.6216 10.5817C16.6946 10.6172 16.7225 10.7078 16.6798 10.7776C16.6685 10.7961 16.6591 10.8167 16.6538 10.8418V12.616C16.7729 12.6412 16.8413 12.6174 16.8956 12.5793C16.9569 12.5362 17.0398 12.5675 17.0592 12.6407C17.1003 12.7963 17.1676 12.9483 17.2035 13.0868C17.226 13.1733 17.1621 13.2579 17.0742 13.2579H16.3911C16.3306 13.2579 16.2816 13.208 16.2816 13.1465V10.5565C16.2815 10.4763 16.3689 10.4277 16.4353 10.4711Z" fill="#73AF00"/>
<path d="M15.6082 10.9032C15.6087 11.3932 15.6143 11.9208 15.6151 12.446C15.6152 12.514 15.561 12.5692 15.4941 12.5692H15.4862C15.4195 12.5692 15.3653 12.5141 15.3653 12.4461V11.2017C15.3653 11.134 15.2871 11.0978 15.237 11.1423L15.0767 11.2833C15.044 11.3121 15.025 11.3535 15.0249 11.3976C15.0244 11.6 15.0226 12.1894 15.0219 12.4466C15.0217 12.5144 14.9676 12.5692 14.901 12.5692H14.89C14.8235 12.5692 14.7695 12.5149 14.7691 12.4472C14.7679 12.2759 14.7658 11.9585 14.765 11.7204C14.7647 11.6519 14.6851 11.6161 14.6345 11.6613C14.4684 11.8094 14.4301 11.8429 14.3429 11.9345C14.35 11.9814 14.3855 11.9345 14.4067 11.9705V12.2085C13.8017 12.0926 13.7565 12.5845 13.7792 13.1122C13.7826 13.1915 13.8466 13.2543 13.9246 13.2543H15.8242C15.8947 13.2543 15.9518 13.1962 15.9518 13.1245V10.7214C15.9518 10.6412 15.8582 10.5999 15.7999 10.6542C15.7535 10.6974 15.704 10.7407 15.6614 10.7798C15.6273 10.8115 15.6081 10.8561 15.6082 10.9032ZM14.2101 12.5512C14.173 12.443 14.3821 12.4033 14.4068 12.5007C14.4157 12.6197 14.2562 12.6233 14.2101 12.5512Z" fill="#73AF00"/>
<path d="M7.93568 13.449C8.00834 13.449 8.06679 13.5104 8.06679 13.5824C8.06679 13.6582 8.00834 13.7159 7.93568 13.7159C7.86129 13.7159 7.80096 13.6582 7.80096 13.5824C7.80101 13.5104 7.86134 13.449 7.93568 13.449Z" fill="#73AF00"/>
<path d="M12.255 10.5255C12.2905 10.5473 12.327 10.568 12.3658 10.5866C12.4359 10.6204 12.4636 10.709 12.4207 10.7748C12.4078 10.7946 12.3968 10.8171 12.3903 10.8455V12.6161C12.5166 12.6446 12.5857 12.6167 12.6407 12.5752C12.6956 12.5339 12.7745 12.5625 12.7921 12.6295C12.8236 12.7497 12.8711 12.8685 12.9077 12.9814C12.9525 13.1194 12.8519 13.2616 12.7091 13.2616H12.1763C12.09 13.2616 12.02 13.1904 12.02 13.1025V10.6627C12.02 10.54 12.1516 10.4623 12.255 10.5255Z" fill="#73AF00"/>
</svg>
