<svg xmlns="http://www.w3.org/2000/svg" width="24" height="24" viewBox="0 0 24 24" fill="none"><rect width="24" height="24" fill="none"/>
<path d="M18.6206 4.00018H5.37939V20H18.6206V4.00018Z" fill="#FFE15A"/>
<path d="M22.2026 19.9997C23.1952 19.9997 24 19.1809 24 18.1708V5.82892C24 4.81885 23.1953 4 22.2026 4H18.6207V19.9997H22.2026Z" fill="#73AF00"/>
<path d="M1.79742 19.9997H5.37933V4H1.79742C0.804703 4 0 4.81881 0 5.82892V18.1708C0 19.1809 0.804703 19.9997 1.79742 19.9997Z" fill="#4173CD"/>
<path d="M8.99463 11.7842L10.3369 14.5158L11.6793 11.7842L10.3369 9.05255L8.99463 11.7842Z" fill="#73AF00"/>
<path d="M12.3208 11.7838L13.6631 14.5155L15.0054 11.7838L13.6631 9.05222L12.3208 11.7838Z" fill="#73AF00"/>
<path d="M10.6577 15.0678L12 17.7994L13.3423 15.0678L12 12.3362L10.6577 15.0678Z" fill="#73AF00"/>
</svg>
