<svg xmlns="http://www.w3.org/2000/svg" width="24" height="24" viewBox="0 0 24 24" fill="none"><rect width="24" height="24" fill="none"/>
<path d="M22.2025 20H1.79742C0.804703 20 0 19.1811 0 18.171V5.82896C0 4.81887 0.804703 4 1.79742 4H22.2025C23.1952 4 24 4.81882 24 5.82896V18.171C24 19.1811 23.1952 20 22.2025 20Z" fill="#F5F5F5"/>
<path d="M24 9.89473H10.7586V4H6.62067V9.89473H0V14.1053H6.62067V20H10.7586V14.1053H24V9.89473Z" fill="#4173CD"/>
<path d="M24 11.1579H9.51722V4H7.86206V11.1579H0V12.8421H7.86206V20H9.51722V12.8421H24V11.1579Z" fill="#FF4B55"/>
</svg>
