<svg xmlns="http://www.w3.org/2000/svg" width="24" height="24" viewBox="0 0 24 24" fill="none"><rect width="24" height="24" fill="none"/>
<path fill-rule="evenodd" clip-rule="evenodd" d="M18.6857 14.5095C18.7706 14.1555 18.8821 13.1207 18.8821 13.1207H17.8882C17.8821 13.2263 17.8604 13.5799 17.8294 13.9403C17.7833 14.4746 17.629 14.9662 17.0919 14.9662H16.6776C16.6768 14.9215 16.6776 13.1207 16.6776 13.1207H15.6671V18.7046H16.6776V15.8694C16.6776 15.8694 17.2119 15.8702 17.2874 15.8694L18.28 18.703H19.3649L18.1498 15.431C18.4021 15.2406 18.5984 14.8744 18.6857 14.5095ZM7.22842 8.25322C7.237 6.74267 7.60433 6.24577 7.99168 6.23724C8.3786 6.24577 8.74593 6.74267 8.75451 8.25322C8.74593 9.72887 8.3786 10.2339 7.99168 10.2416C7.60433 10.2339 7.237 9.72887 7.22842 8.25322ZM7.96876 11.1565C7.97329 11.1565 7.9782 11.1573 7.98267 11.1573C7.98267 11.1573 7.98839 11.1565 7.99163 11.1565L8.0002 11.1573C8.00468 11.1573 8.00959 11.1565 8.01407 11.1565C8.68304 11.1439 9.32348 10.7396 9.601 9.59596C9.70753 9.20705 9.7618 8.72482 9.76223 8.22711L9.76018 8.04684C9.74265 7.24874 9.60796 6.67675 9.39894 6.26961C9.06958 5.57539 8.54511 5.31561 8.00349 5.30909L8.0002 5.30828L7.99163 5.30871C7.98839 5.30871 7.98267 5.30828 7.98267 5.30828L7.97938 5.30909C7.43777 5.31561 6.9133 5.57539 6.58394 6.26961C6.37492 6.67675 6.24023 7.24874 6.2227 8.04684L6.22027 8.22711C6.2207 8.72482 6.27535 9.20705 6.38188 9.59596C6.6594 10.7396 7.30022 11.1439 7.96876 11.1565ZM3.35457 17.8409C3.25661 17.8409 3.00967 17.8182 3.00967 17.8182V15.8526C3.00967 15.8526 3.08929 15.8339 3.17581 15.8339C3.68803 15.8339 4.29335 15.8031 4.29335 16.8366C4.29335 17.7833 3.62805 17.8409 3.35457 17.8409ZM3.47707 14.9475C3.30316 14.9475 3.14852 14.9516 3.00973 14.9589V14.0496H4.82154V13.1207H1.99995V18.703H3.53257C5.06028 18.703 5.29703 17.3216 5.29703 16.8105C5.29703 16.206 5.06195 14.9475 3.47707 14.9475ZM13.3271 14.9049H11.941V13.1207H10.9332V18.7046H11.941V15.8329H13.3271V18.7046H14.3352V13.1207H13.3271V14.9049ZM16.6707 11.0348V6.38132H17.5094V5.45289H14.8095V6.38132H15.6487V11.0348H16.6707ZM12.6801 8.33963V11.0348H13.6907V5.45289H12.6801V7.39702H12.1308C11.9034 7.39702 11.7348 7.34545 11.6275 7.24113C11.5516 7.16847 11.5144 7.07019 11.5144 6.94273V5.45289H10.5026V7.04668C10.5026 7.41407 10.6455 7.7246 10.9275 7.97143C11.2059 8.21622 11.5463 8.33963 11.9418 8.33963H12.6801ZM3.00973 6.38132H4.26072V11.0348H5.2721V5.45289H1.99995V11.0348H3.00973V6.38132ZM7.4027 15.0647C7.40513 14.9515 7.42595 14.1575 7.42763 14.0498L7.60638 14.0381C8.3423 14.0381 8.47699 14.1818 8.54511 15.0647H7.4027ZM7.84599 13.1207H6.47498L6.28889 18.7042H7.28759C7.28759 18.7042 7.37983 16.1151 7.38517 15.992C7.49494 15.992 8.54349 15.9928 8.6476 15.9928C8.65904 16.1057 8.84756 18.7042 8.84756 18.7042H9.87901C9.87901 18.7042 9.5243 14.8691 9.49571 14.6236C9.38065 13.6355 8.92388 13.1207 7.84599 13.1207ZM19.5237 7.39686C19.5261 7.28358 19.5469 6.48834 19.5486 6.38159H19.7388C20.4743 6.38159 20.5975 6.5131 20.6661 7.39686H19.5237ZM21.6167 6.95573C21.5012 5.96765 21.0449 5.45289 19.9669 5.45289H18.596L18.4094 11.036H19.4086C19.4086 11.036 19.5008 8.44681 19.5062 8.32458C19.6155 8.32458 20.6645 8.32501 20.7682 8.32501C20.78 8.43748 20.9686 11.036 20.9686 11.036H21.9999C21.9999 11.036 21.6449 7.20132 21.6167 6.95573Z" fill="white"/>
</svg>
