<svg xmlns="http://www.w3.org/2000/svg" width="98" height="24" viewBox="0 0 98 24" fill="none"><rect width="98" height="24" fill="none"/>
<path d="M13.3995 11.7292L14.4969 8.76601H14.5372L15.5725 11.7292H13.3995Z" fill="black"/>
<path d="M29.1455 12.5323C29.1455 13.132 28.6783 13.4749 28.0683 13.4749C27.5406 13.4749 27.1231 13.2999 27.1231 12.7821C27.1231 12.2741 27.581 12.1909 27.9768 12.1909H29.1455V12.5323Z" fill="black"/>
<path fill-rule="evenodd" clip-rule="evenodd" d="M13 2C5.92535 2 2 6.68323 2 12C2 17.3168 5.92535 22 13 22H28.3258C35.3989 22 39.3258 17.3182 39.3258 12C39.3258 6.68182 35.3989 2 28.3258 2H13ZM18.8545 6.96138H20.3182V14.4709H18.8545V6.96138ZM24.6238 8.09727C24.0868 8.09727 23.8524 8.32867 23.8524 8.83664H23.8508V9.59438H25.2835V10.7952H23.8508V14.4695H22.3872V10.7938H21.0771V9.59296H22.3872V8.5869C22.3872 7.52439 23.0173 6.96138 24.2063 6.96138H26.2691V8.09727H24.6238ZM14.576 7.13628C15.4577 7.13628 15.7137 7.61462 15.9373 8.21854L16.006 8.40495C18.2437 14.4708 18.2437 14.4708 18.2422 14.4722H16.5364L16.018 12.9864H12.9308L12.372 14.4722H10.7671C10.7671 14.4722 10.7671 14.4722 13.1869 8.21854C13.4212 7.6118 13.6944 7.13628 14.576 7.13628ZM30.6092 11.1284V12.8738C30.6092 13.1602 30.7116 13.2703 30.9739 13.2717V14.4725H30.4664C29.9076 14.4725 29.4808 14.2792 29.2883 13.9278C29.0726 14.2185 28.5759 14.6023 27.6834 14.6023C26.465 14.6023 25.6206 13.8629 25.6206 12.7821C25.6206 11.7478 26.392 11.1284 27.6927 11.1284H29.1455C29.1455 10.5004 28.7808 10.2606 28.2111 10.2606C27.5204 10.2606 27.2969 10.5936 27.2457 10.7869H25.7619C25.8333 9.89934 26.6559 9.04989 28.2111 9.04989C29.7152 9.04989 30.6092 9.85419 30.6092 11.1284ZM10.605 16.4802H18.4262V17.9576H10.605V16.4802Z" fill="black"/>
<path fill-rule="evenodd" clip-rule="evenodd" d="M55.3208 15.4672H50.1816V19.3984H45.7627V4.59943H55.3208C59.0428 4.59943 61.298 6.62991 61.298 10.0122C61.298 13.29 59.0412 15.4672 55.3208 15.4672ZM50.1816 11.8719H54.9498C56.1356 11.8719 56.7642 11.2158 56.7642 10.0107C56.7642 8.74223 56.1356 8.04518 54.9498 8.04518H50.1816V11.8719Z" fill="black"/>
<path fill-rule="evenodd" clip-rule="evenodd" d="M60.8557 19.3998H65.4143L66.3759 17.3905H73.5854L74.53 19.3998H79.3898L72.506 4.60084H67.9008L60.8557 19.3998ZM67.7897 14.3483H72.1987L69.9052 8.95083L67.7897 14.3483Z" fill="black"/>
<path d="M89.0425 19.3998V14.2613L96.2739 4.60084H90.739L86.7151 10.1614L82.6912 4.60084H77.1562L84.3178 14.1037V19.3998H89.0425Z" fill="black"/>
<path fill-rule="evenodd" clip-rule="evenodd" d="M15.9373 8.21854C15.7137 7.61462 15.4577 7.13628 14.576 7.13628C13.6944 7.13628 13.4212 7.6118 13.1869 8.21854C10.7671 14.4722 10.7671 14.4722 10.7671 14.4722H12.372L12.9308 12.9864H16.018L16.5364 14.4722H18.2422C18.2437 14.4708 18.2437 14.4708 16.006 8.40495L15.9373 8.21854ZM13.3995 11.7292L14.4969 8.76601H14.5372L15.5725 11.7292H13.3995Z" fill="white"/>
<path d="M20.3182 6.96138H18.8545V14.4709H20.3182V6.96138Z" fill="white"/>
<path d="M23.8524 8.83664C23.8524 8.32867 24.0868 8.09727 24.6238 8.09727H26.2691V6.96138H24.2063C23.0173 6.96138 22.3872 7.52439 22.3872 8.5869V9.59296H21.0771V10.7938H22.3872V14.4695H23.8508V10.7952H25.2835V9.59438H23.8508V8.83664H23.8524Z" fill="white"/>
<path fill-rule="evenodd" clip-rule="evenodd" d="M30.6092 12.8738V11.1284C30.6092 9.85419 29.7152 9.04989 28.2111 9.04989C26.6559 9.04989 25.8333 9.89934 25.7619 10.7869H27.2457C27.2969 10.5936 27.5204 10.2606 28.2111 10.2606C28.7808 10.2606 29.1455 10.5004 29.1455 11.1284H27.6927C26.392 11.1284 25.6206 11.7478 25.6206 12.7821C25.6206 13.8629 26.465 14.6023 27.6834 14.6023C28.5759 14.6023 29.0726 14.2185 29.2883 13.9278C29.4808 14.2792 29.9076 14.4725 30.4664 14.4725H30.9739V13.2717C30.7116 13.2703 30.6092 13.1602 30.6092 12.8738ZM29.1455 12.5323C29.1455 13.132 28.6783 13.4749 28.0683 13.4749C27.5406 13.4749 27.1231 13.2999 27.1231 12.7821C27.1231 12.2741 27.581 12.1909 27.9768 12.1909H29.1455V12.5323Z" fill="white"/>
<path d="M18.4262 16.4802H10.605V17.9576H18.4262V16.4802Z" fill="white"/>
</svg>
