<svg xmlns="http://www.w3.org/2000/svg" width="24" height="24" viewBox="0 0 24 24" fill="none"><rect width="24" height="24" fill="none"/>
<path fill-rule="evenodd" clip-rule="evenodd" d="M8.47671 20.9792H7.26408V21.9996H6.22139V18.1584H8.47671C9.35496 18.1584 9.88711 18.6855 9.88711 19.5633C9.88711 20.4141 9.35459 20.9792 8.47671 20.9792ZM7.26408 20.0461H8.38918C8.66899 20.0461 8.81732 19.8758 8.81732 19.563C8.81732 19.2337 8.66899 19.0528 8.38918 19.0528H7.26408V20.0461Z" fill="white"/>
<path fill-rule="evenodd" clip-rule="evenodd" d="M9.82766 22H10.9033L11.1302 21.4785H12.8314L13.0543 22H14.201L12.5767 18.1588H11.49L9.82766 22ZM11.4638 20.6889H12.5042L11.963 19.2879L11.4638 20.6889Z" fill="white"/>
<path d="M16.5105 21.9996V20.6659L18.2169 18.1584H16.9108L15.9614 19.6017L15.0119 18.1584H13.7059L15.3957 20.625V21.9996H16.5105Z" fill="white"/>
<path fill-rule="evenodd" clip-rule="evenodd" d="M18.9879 8.85636C18.9879 12.643 15.8593 15.7127 12 15.7127C8.14067 15.7127 5.01207 12.643 5.01207 8.85636C5.01207 5.0697 8.14067 2 12 2C15.8593 2 18.9879 5.0697 18.9879 8.85636ZM11.9952 4.65564C12.5621 4.65564 12.7933 5.00779 12.9423 5.45379L14.4834 10.0124H13.3883L13.0439 8.93566H10.9561L10.6117 10.0124H9.51653L11.0577 5.45379C11.2057 5.00876 11.4292 4.65564 11.9952 4.65564ZM9.40431 11.4888H14.5947V12.5656H9.40431V11.4888Z" fill="#EF3124"/>
<path d="M11.2502 8.01658L11.9806 5.73242H12.0193L12.7498 8.01658H11.2502Z" fill="#EF3124"/>
<path fill-rule="evenodd" clip-rule="evenodd" d="M12.9423 5.45379C12.7933 5.00779 12.5621 4.65564 11.9952 4.65564C11.4292 4.65564 11.2057 5.00876 11.0577 5.45379L9.51653 10.0124H10.6117L10.9561 8.93566H13.0439L13.3883 10.0124H14.4834L12.9423 5.45379ZM11.9806 5.73242L11.2502 8.01658H12.7498L12.0193 5.73242H11.9806Z" fill="white"/>
<path d="M14.5947 11.4888H9.40431V12.5656H14.5947V11.4888Z" fill="white"/>
</svg>
