<svg xmlns="http://www.w3.org/2000/svg" width="24" height="24" viewBox="0 0 24 24" fill="none"><rect width="24" height="24" fill="none"/>
<path d="M7.23161 6.03975C6.87185 4.82094 5.8953 4.95453 5.22761 5.52219C3.58286 7.04148 1.44126 10.2304 2.8119 14.8222C3.95979 18.7123 8.73618 21.2 8.73618 21.2H3.16818C3.16818 21.2 0.293187 17.9777 0.0361805 14.1878C-0.289331 9.39618 1.6297 6.3742 3.85697 4.40418C5.94715 2.55094 7.93457 2 7.93457 2L12 15.32L16.0654 2C16.0654 2 18.0528 2.55094 20.143 4.40418C22.3702 6.3742 24.2893 9.39618 23.9638 14.1878C23.7068 17.9777 20.8318 21.2 20.8318 21.2H15.2638C15.2638 21.2 20.0398 18.7123 21.188 14.8222C22.5587 10.2309 20.4171 7.04201 18.7723 5.52219C18.1041 4.95453 17.1276 4.82094 16.7683 6.03975C15.5348 9.92984 12.0005 21.0758 12.0005 21.0758C12.0005 21.0758 8.46619 9.92612 7.23262 6.03975H7.23161Z" fill="#000000"/>
</svg>
