<svg xmlns="http://www.w3.org/2000/svg" width="24" height="24" viewBox="0 0 24 24" fill="none"><rect width="24" height="24" fill="none"/>
<path fill-rule="evenodd" clip-rule="evenodd" d="M18.6857 14.5095C18.7706 14.1556 18.8821 13.1208 18.8821 13.1208H17.8882C17.8821 13.2263 17.8604 13.5799 17.8294 13.9404C17.7833 14.4746 17.629 14.9663 17.0919 14.9663H16.6776C16.6768 14.9216 16.6776 13.1208 16.6776 13.1208H15.667V18.7047H16.6776V15.8695C16.6776 15.8695 17.2119 15.8703 17.2874 15.8695L18.28 18.7031H19.3649L18.1498 15.4311C18.402 15.2407 18.5984 14.8745 18.6857 14.5095ZM7.22841 8.25329C7.23699 6.74274 7.60432 6.24584 7.99167 6.23732C8.37859 6.24584 8.74592 6.74274 8.7545 8.25329C8.74592 9.72894 8.37859 10.2339 7.99167 10.2416C7.60432 10.2339 7.23699 9.72894 7.22841 8.25329ZM7.96875 11.1565C7.97328 11.1565 7.97819 11.1573 7.98266 11.1573C7.98266 11.1573 7.98838 11.1565 7.99162 11.1565L8.00019 11.1573C8.00467 11.1573 8.00958 11.1565 8.01406 11.1565C8.68303 11.144 9.32347 10.7396 9.60099 9.59604C9.70752 9.20712 9.76179 8.72489 9.76222 8.22718L9.76017 8.04691C9.74264 7.24881 9.60795 6.67682 9.39893 6.26968C9.06957 5.57546 8.5451 5.31569 8.00348 5.30916L8.00019 5.30835L7.99162 5.30878C7.98838 5.30878 7.98266 5.30835 7.98266 5.30835L7.97937 5.30916C7.43776 5.31569 6.91329 5.57546 6.58393 6.26968C6.37491 6.67682 6.24022 7.24881 6.22269 8.04691L6.22026 8.22718C6.22069 8.72489 6.27534 9.20712 6.38187 9.59604C6.65939 10.7396 7.30021 11.144 7.96875 11.1565ZM3.35456 17.841C3.2566 17.841 3.00966 17.8183 3.00966 17.8183V15.8527C3.00966 15.8527 3.08928 15.834 3.1758 15.834C3.68802 15.834 4.29334 15.8031 4.29334 16.8367C4.29334 17.7834 3.62804 17.841 3.35456 17.841ZM3.47706 14.9476C3.30315 14.9476 3.14851 14.9516 3.00972 14.959V14.0496H4.82153V13.1208H1.99994V18.7031H3.53256C5.06027 18.7031 5.29702 17.3216 5.29702 16.8105C5.29702 16.206 5.06194 14.9476 3.47706 14.9476ZM13.327 14.905H11.941V13.1208H10.9332V18.7047H11.941V15.833H13.327V18.7047H14.3352V13.1208H13.327V14.905ZM16.6707 11.0348V6.38139H17.5094V5.45296H14.8095V6.38139H15.6486V11.0348H16.6707ZM12.6801 8.3397V11.0348H13.6907V5.45296H12.6801V7.39709H12.1308C11.9034 7.39709 11.7348 7.34552 11.6275 7.2412C11.5516 7.16855 11.5144 7.07027 11.5144 6.9428V5.45296H10.5026V7.04675C10.5026 7.41414 10.6455 7.72467 10.9275 7.97151C11.2059 8.21629 11.5463 8.3397 11.9418 8.3397H12.6801ZM3.00972 6.38139H4.26071V11.0348H5.27209V5.45296H1.99994V11.0348H3.00972V6.38139ZM7.40269 15.0648C7.40512 14.9515 7.42594 14.1575 7.42762 14.0499L7.60637 14.0382C8.34229 14.0382 8.47698 14.1818 8.5451 15.0648H7.40269ZM7.84598 13.1208H6.47497L6.28888 18.7043H7.28759C7.28759 18.7043 7.37982 16.1151 7.38516 15.9921C7.49493 15.9921 8.54348 15.9929 8.64759 15.9929C8.65903 16.1058 8.84755 18.7043 8.84755 18.7043H9.879C9.879 18.7043 9.52429 14.8692 9.4957 14.6236C9.38064 13.6355 8.92387 13.1208 7.84598 13.1208ZM19.5237 7.39693C19.5261 7.28365 19.5469 6.48841 19.5486 6.38166H19.7388C20.4743 6.38166 20.5975 6.51317 20.6661 7.39693H19.5237ZM21.6167 6.9558C21.5012 5.96772 21.0449 5.45296 19.9669 5.45296H18.596L18.4094 11.036H19.4086C19.4086 11.036 19.5008 8.44688 19.5062 8.32465C19.6155 8.32465 20.6645 8.32509 20.7682 8.32509C20.78 8.43755 20.9685 11.036 20.9685 11.036H21.9999C21.9999 11.036 21.6448 7.2014 21.6167 6.9558Z" fill="#CC003D"/>
</svg>
