<svg xmlns="http://www.w3.org/2000/svg" width="24" height="24" viewBox="0 0 24 24" fill="none"><rect width="24" height="24" fill="none"/>
<path d="M19 8C19 9.52345 18.5133 10.9332 17.687 12.0824C17.32 12.6789 16.9579 13.1964 16.6241 13.6734C16.0431 14.5037 15.5479 15.2115 15.262 16H8.73647C8.45018 15.2145 7.95531 14.5092 7.37561 13.6831C7.02211 13.1793 6.63708 12.6305 6.24855 11.9912C5.46142 10.859 5 9.4834 5 8C5 4.13401 8.13401 1 12 1C15.866 1 19 4.13401 19 8Z" fill="#000000"/>
<path d="M9 18V20L11 22H13L15 20V18H9Z" fill="#000000"/>
</svg>
