<svg xmlns="http://www.w3.org/2000/svg" width="16" height="16" viewBox="0 0 16 16" fill="none"><rect width="16" height="16" fill="none"/>
<path fill-rule="evenodd" clip-rule="evenodd" d="M11.791 8.72223C12.3419 7.95614 12.6663 7.01629 12.6663 6.00065C12.6663 3.42332 10.577 1.33398 7.99967 1.33398C5.42235 1.33398 3.33301 3.42332 3.33301 6.00065C3.33301 6.98958 3.64062 7.90667 4.16538 8.66144C4.42439 9.08765 4.68108 9.45349 4.91674 9.78935C5.30321 10.3401 5.63313 10.8103 5.82399 11.334H10.1743C10.3649 10.8083 10.6951 10.3365 11.0824 9.7829C11.3049 9.46489 11.5463 9.1199 11.791 8.72223ZM5.99967 6.66732L8.99967 3.33398L8.66634 6.00065L9.99967 6.66732L6.99967 10.0007L7.33301 7.33398L5.99967 6.66732Z" fill="#000000"/>
<path d="M5.99967 13.334V12.6673H9.99967V13.334C9.99967 14.4386 9.10424 15.334 7.99967 15.334C6.89511 15.334 5.99967 14.4386 5.99967 13.334Z" fill="#000000"/>
</svg>
