<svg xmlns="http://www.w3.org/2000/svg" width="24" height="24" viewBox="0 0 24 24" fill="none"><rect width="24" height="24" fill="none"/>
<path fill-rule="evenodd" clip-rule="evenodd" d="M2 9.99961C2 8.89508 2.89543 7.99964 4 7.99964H20C21.1046 7.99964 22 8.89507 22 9.99961V17.9996C22 19.1042 21.1046 19.9996 20 19.9996H4.00002C2.89545 19.9996 2.00002 19.1042 2.00002 17.9996L2 9.99961ZM7 17.9996H4.00003V14.9996L7 17.9996ZM20 9.99961H17L20 12.9996V9.99961ZM14 13.9996C14 15.1042 13.1046 15.9996 12 15.9996C10.8954 15.9996 10 15.1042 10 13.9996C10 12.895 10.8954 11.9996 12 11.9996C13.1046 11.9996 14 12.895 14 13.9996Z" fill="#000000"/>
<path d="M12 1.85547L7.0144 4.62526L7.98568 6.37367L12 4.14346L16.0144 6.37367L16.9856 4.62526L12 1.85547Z" fill="#000000"/>
</svg>
