<svg xmlns="http://www.w3.org/2000/svg" width="24" height="24" viewBox="0 0 24 24" fill="none"><rect width="24" height="24" fill="none"/>
<path d="M12.4968 13.9378C12.338 13.9784 12.1715 14 12 14C10.8954 14 10 13.1046 10 12C10 11.0626 10.6449 10.2759 11.5152 10.0592C11.6704 10.0205 11.8328 10 12 10C13.1045 10 14 10.8954 14 12C14 12.9331 13.361 13.7169 12.4968 13.9378Z" fill="#000000"/>
<path d="M19.4968 13.9378C19.338 13.9784 19.1715 14 19 14C17.8954 14 17 13.1046 17 12C17 10.8954 17.8954 10 19 10C20.1046 10 21 10.8954 21 12C21 12.9331 20.3611 13.7169 19.4968 13.9378Z" fill="#000000"/>
<path d="M5.49682 13.9378C5.33797 13.9784 5.17151 14 5 14C3.89543 14 3 13.1046 3 12C3 11.0626 3.64486 10.2759 4.51516 10.0592C4.67038 10.0205 4.83278 10 4.99998 10C6.10455 10 6.99998 10.8954 6.99998 12C6.99998 12.9331 6.36104 13.7169 5.49682 13.9378Z" fill="#000000"/>
</svg>
