<svg xmlns="http://www.w3.org/2000/svg" width="24" height="24" viewBox="0 0 24 24" fill="none"><rect width="24" height="24" fill="none"/>
<path d="M5.99966 5.21576C6.09043 3.78255 7.30301 2.66602 8.76893 2.66602H15.1854C16.65 2.66602 17.8626 3.78255 17.9547 5.21576L18.6484 8.94985C17.5198 8.94985 15.7634 9.77741 15.3335 11.504H8.66687C8.0002 9.33268 6.48063 8.94985 5.51102 8.94985L5.99966 5.21576Z" fill="#000000"/>
<path d="M5.87888 10.973C4.88443 10.4098 3.61089 10.744 3.03645 11.7195L2 13.4784L5.33333 15.4408C5.31658 17.1893 5.33333 18.9131 5.33333 20.666C5.33333 21.3327 5.33333 21.3327 5.33333 21.3327H7.33333C7.33333 21.3327 7.62963 19.5549 7.77778 18.666H16.2222C16.3704 19.5549 16.5185 20.4438 16.6667 21.3327H18.6667C18.6667 21.3327 18.6667 21.3327 18.6667 20.666L18.6482 15.4408L22 13.6695L20.9636 11.9106C20.3891 10.9351 19.1156 10.6009 18.1211 11.1641L17.5196 11.504C16.9831 11.808 16.6362 12.7803 16.5211 13.3327H7.50874C7.43964 12.7069 7.0779 11.6517 6.48042 11.3129L5.87888 10.973Z" fill="#000000"/>
</svg>
