<svg xmlns="http://www.w3.org/2000/svg" width="24" height="24" viewBox="0 0 24 24" fill="none"><rect width="24" height="24" fill="none"/>
<path fill-rule="evenodd" clip-rule="evenodd" d="M5.6 6C4.71634 6 4 6.67157 4 7.5V9.87803C4.93215 10.1869 5.6 11.0203 5.6 12C5.6 12.9797 4.93215 13.8131 4 14.122V16.5C4 17.3284 4.71634 18 5.6 18H18.4C19.2837 18 20 17.3284 20 16.5V14.122C19.0678 13.8131 18.4 12.9797 18.4 12C18.4 11.0203 19.0678 10.1869 20 9.87803V7.5C20 6.67157 19.2837 6 18.4 6H5.6ZM11.691 9.33245C11.7978 9.06448 12.2022 9.06448 12.309 9.33245L12.901 10.8164C12.9473 10.9327 13.0633 11.0117 13.1956 11.0171L14.8839 11.0863C15.1888 11.0988 15.3138 11.4593 15.075 11.6374L13.7524 12.6237C13.6488 12.701 13.6045 12.8288 13.6398 12.9484L14.0914 14.4752C14.173 14.7509 13.8458 14.9737 13.5914 14.8157L12.1821 13.9414C12.0717 13.8728 11.9283 13.8728 11.8179 13.9414L10.4086 14.8157C10.1542 14.9737 9.82706 14.7509 9.9086 14.4752L10.3602 12.9484C10.3955 12.8288 10.3512 12.701 10.2476 12.6237L8.92507 11.6374C8.68626 11.4593 8.81119 11.0988 9.11607 11.0863L10.8044 11.0171C10.9367 11.0117 11.0527 10.9327 11.099 10.8164L11.691 9.33245Z" fill="#000000"/>
</svg>
