<svg xmlns="http://www.w3.org/2000/svg" width="24" height="24" viewBox="0 0 24 24" fill="none"><rect width="24" height="24" fill="none"/>
<path fill-rule="evenodd" clip-rule="evenodd" d="M10.6397 4.67871C7.35024 4.67871 4.68359 7.34535 4.68359 10.6348C4.68359 13.9243 7.35024 16.5909 10.6397 16.5909C11.9377 16.5909 13.1387 16.1757 14.1172 15.4709L18.325 19.6787L19.6836 18.3201L15.4758 14.1123C16.1806 13.1339 16.5959 11.9328 16.5959 10.6348C16.5959 7.34535 13.9292 4.67871 10.6397 4.67871ZM6.60493 10.6348C6.60493 8.40647 8.41137 6.60004 10.6397 6.60004C12.8681 6.60004 14.6745 8.40647 14.6745 10.6348C14.6745 12.8632 12.8681 14.6696 10.6397 14.6696C8.41137 14.6696 6.60493 12.8632 6.60493 10.6348Z" fill="#000000"/>
</svg>
