<svg xmlns="http://www.w3.org/2000/svg" width="24" height="24" viewBox="0 0 24 24" fill="none"><rect width="24" height="24" fill="none"/>
<path d="M1 3C1 1.89543 1.89543 1 3 1H6V3H3V6H1V3Z" fill="black"/>
<path d="M18 3V1H21C22.1046 1 23 1.89543 23 3V6H21V3H18Z" fill="black"/>
<path d="M23 18H21V21H18V23H21C22.1046 23 23 22.1046 23 21V18Z" fill="black"/>
<path d="M6 21V23H3C1.89543 23 1 22.1046 1 21V18.2222H3V21H6Z" fill="black"/>
<path d="M5 5.77778C5 5.34822 5.34822 5 5.77778 5H11.2222V11.2222H5V5.77778Z" fill="black"/>
<path d="M11.2222 12.7778H5V18.2222C5 18.6518 5.34822 19 5.77778 19H11.2222V12.7778Z" fill="black"/>
<path d="M12.7778 5H18.2223C18.6518 5 19.0001 5.34822 19.0001 5.77778V11.2222H12.7778V5Z" fill="black"/>
<path d="M19 14.3333L17.4444 14.3333L17.4444 12.7778H19V14.3333Z" fill="black"/>
<path fill-rule="evenodd" clip-rule="evenodd" d="M17.4444 15.8889V14.3333H15.8889L15.8889 12.7778H12.7778V14.3333L15.8889 14.3333L15.8889 15.8889H12.7778V19H14.3334V17.4444L15.8889 17.4444V19H18.2222C18.6518 19 19 18.6518 19 18.2222V15.8889H17.4444ZM17.4444 15.8889L15.8889 15.8889L15.8889 17.4444H17.4444V15.8889Z" fill="black"/>
</svg>
