<svg xmlns="http://www.w3.org/2000/svg" width="16" height="16" viewBox="0 0 16 16" fill="none"><rect width="16" height="16" fill="none"/>
<path d="M10.1669 7.99982C10.1669 9.19651 9.19681 10.1666 8.00012 10.1666C6.80343 10.1666 5.83333 9.19651 5.83333 7.99982C5.83333 6.80313 6.80343 5.83302 8.00012 5.83302C9.19681 5.83302 10.1669 6.80313 10.1669 7.99982Z" fill="#000000"/>
<path fill-rule="evenodd" clip-rule="evenodd" d="M7.99997 2C4.47393 2 1.40831 4.42971 0.0497244 7.74738C-0.0165749 7.90928 -0.0165748 8.09076 0.0497245 8.25266C1.40832 11.5703 4.47397 14 8 14C11.526 14 14.5917 11.5703 15.9503 8.25266C16.0166 8.09076 16.0166 7.90928 15.9503 7.74738C14.5917 4.4297 11.526 2 7.99997 2ZM8 12.6667C5.19645 12.6667 2.63053 10.7758 1.39168 8.00002C2.63053 5.22421 5.19643 3.33334 7.99997 3.33334C10.8035 3.33334 13.3695 5.22422 14.6083 8.00002C13.3695 10.7758 10.8035 12.6667 8 12.6667Z" fill="#000000"/>
</svg>
