<svg xmlns="http://www.w3.org/2000/svg" width="16" height="16" viewBox="0 0 16 16" fill="none"><rect width="16" height="16" fill="none"/>
<path fill-rule="evenodd" clip-rule="evenodd" d="M8.00097 1C12.0849 1 15.0019 3.04195 15.0019 6.83414C15.0019 10.6263 11.5015 13.8351 8.33804 14.923C8.11965 14.9909 8.01046 15.0248 7.84544 14.9791C7.72971 14.9471 7.57497 14.8331 7.51008 14.7321C7.41756 14.588 7.41756 14.4401 7.41756 14.1443V12.6514C3.91707 12.6514 1 10.6263 1 6.83414C1 3.04195 3.91707 1 8.00097 1ZM7.10094 6.72813L5.45516 8.3192L6.40984 9.27388L8.00102 7.62821L9.5921 9.27388L10.5468 8.3192L8.9011 6.72813L10.5468 5.13694L9.5921 4.18226L8.00102 5.82805L6.40984 4.18226L5.45516 5.13694L7.10094 6.72813Z" fill="#000000"/>
</svg>
