<svg xmlns="http://www.w3.org/2000/svg" width="24" height="24" viewBox="0 0 24 24" fill="none"><rect width="24" height="24" fill="none"/>
<path d="M12.0001 10C13.1406 10 14.0651 10.8954 14.0651 12C14.0651 13.1046 13.1406 14 12.0001 14C10.8597 14 9.93516 13.1046 9.93516 12C9.93516 10.8954 10.8597 10 12.0001 10Z" fill="#000000"/>
<path fill-rule="evenodd" clip-rule="evenodd" d="M10.225 1C9.27741 1 8.45146 1.62459 8.22165 2.51493L7.68413 4.59737C7.63548 4.62403 7.58712 4.65112 7.53905 4.67865L5.40808 4.08824C4.49708 3.83583 3.52561 4.21633 3.05184 5.01111L1.27677 7.98889C0.802999 8.78367 0.948507 9.78876 1.6297 10.4267L3.22431 11.92C3.2238 11.9733 3.2238 12.0267 3.22431 12.0799L1.62964 13.5733C0.948447 14.2112 0.802937 15.2163 1.27671 16.0111L3.05178 18.9889C3.52555 19.7837 4.49701 20.1642 5.40802 19.9118L7.53903 19.3213C7.5871 19.3489 7.63547 19.376 7.68413 19.4026L8.22165 21.4851C8.45146 22.3754 9.27741 23 10.225 23H13.7751C14.7226 23 15.5486 22.3754 15.7784 21.4851L16.3159 19.4026C16.3646 19.376 16.4129 19.3489 16.461 19.3214L18.592 19.9118C19.503 20.1642 20.4744 19.7837 20.9482 18.9889L22.7233 16.0111C23.1971 15.2163 23.0515 14.2112 22.3704 13.5733L20.7758 12.08C20.7763 12.0267 20.7763 11.9733 20.7758 11.92L22.3703 10.4267C23.0515 9.78876 23.197 8.78367 22.7232 7.98889L20.9482 5.01111C20.4744 4.21633 19.5029 3.83583 18.5919 4.08824L16.461 4.67863C16.4129 4.65111 16.3646 4.62402 16.3159 4.59736L15.7784 2.51493C15.5486 1.62459 14.7226 1 13.7751 1H10.225ZM10.225 3L13.7751 3L14.4242 5.51453C14.4977 5.79935 14.6967 6.03848 14.9684 6.16853C15.2316 6.29446 15.4851 6.43668 15.7276 6.59386C15.9799 6.75746 16.2939 6.80516 16.5858 6.72427L19.1598 6.01111L20.9349 8.98889L19.0097 10.7918C18.7919 10.9958 18.6776 11.2821 18.6971 11.575C18.7064 11.7153 18.7112 11.8571 18.7112 12C18.7112 12.1429 18.7064 12.2846 18.6971 12.425C18.6776 12.7178 18.7919 13.0042 19.0098 13.2082L20.935 15.0111L19.1599 17.9889L16.5858 17.2757C16.2939 17.1948 15.9799 17.2425 15.7276 17.4061C15.4851 17.5633 15.2316 17.7055 14.9684 17.8315C14.6967 17.9615 14.4977 18.2007 14.4242 18.4855L13.7751 21L10.225 21L9.5759 18.4855C9.50239 18.2006 9.30337 17.9615 9.03162 17.8315C8.76846 17.7055 8.51495 17.5633 8.27248 17.4061C8.02012 17.2425 7.70618 17.1948 7.41421 17.2757L4.84009 17.9889L3.06502 15.0111L4.99031 13.2081C5.20812 13.0041 5.32244 12.7178 5.30297 12.4249C5.29364 12.2846 5.2889 12.1429 5.2889 12C5.2889 11.8571 5.29364 11.7154 5.30297 11.575C5.32244 11.2822 5.20813 10.9958 4.99032 10.7919L3.06509 8.98889L4.84015 6.01111L7.41423 6.72428C7.7062 6.80518 8.02013 6.75748 8.2725 6.59387C8.51496 6.43669 8.76847 6.29447 9.03162 6.16854C9.30337 6.03849 9.50239 5.79935 9.57591 5.51454L10.225 3Z" fill="#000000"/>
</svg>
