<svg xmlns="http://www.w3.org/2000/svg" width="24" height="24" viewBox="0 0 24 24" fill="none"><rect width="24" height="24" fill="none"/>
<path d="M14.3775 2.27843C14.7487 1.90719 15.3504 1.90719 15.7216 2.27843C16.0928 2.64967 16.0928 3.25144 15.7216 3.62265L3.62326 15.7216C3.25204 16.0928 2.64939 16.0928 2.27817 15.7216C1.90737 15.3503 1.90718 14.7485 2.27817 14.3774L14.3775 2.27843ZM9.00082 2.27843C9.37204 1.90719 9.97376 1.90719 10.345 2.27843C10.7161 2.64967 10.7162 3.25144 10.345 3.62265L3.62326 10.3447C3.25204 10.7157 2.65025 10.7158 2.2791 10.3447C1.90795 9.97352 1.90809 9.37172 2.2791 9.00046L9.00082 2.27843Z" fill="#000000"/>
</svg>
