<svg xmlns="http://www.w3.org/2000/svg" width="24" height="24" viewBox="0 0 24 24" fill="none"><rect width="24" height="24" fill="none"/>
<path d="M11.6914 13.7328L16.8174 14.1088C18.9075 14.2619 20.5254 16.0023 20.5254 18.0981V22.6264C12.8482 22.6264 5.86613 18.9879 3.97949 17.9184C3.66412 17.7396 3.48047 17.4059 3.48047 17.0434C3.48048 16.3387 4.16412 15.8217 4.85059 15.9809C6.80965 16.4354 10.624 17.1318 14.668 16.8354L11.3086 15.8569C10.8456 15.722 10.5273 15.2971 10.5273 14.8149C10.5274 14.1846 11.0628 13.6868 11.6914 13.7328ZM10.9102 2.2221C11.2442 1.92455 11.7547 1.92478 12.0889 2.2221L16.8076 6.42522C17.202 6.77719 16.9478 7.4203 16.4141 7.42034H15.5889V11.141C15.5885 11.6148 15.1965 11.9993 14.7129 11.9994H8.28711C7.80341 11.9994 7.4115 11.6149 7.41113 11.141V7.42034H6.58496C6.0513 7.42016 5.79772 6.77711 6.19238 6.42522L10.9102 2.2221ZM10 10.0004H13V7.00042H10V10.0004Z" fill="#000000"/>
</svg>
