<svg xmlns="http://www.w3.org/2000/svg" width="24" height="24" viewBox="0 0 24 24" fill="none"><rect width="24" height="24" fill="none"/>
<path d="M10.1622 3.19472C10.7979 1.46635 13.2028 1.46634 13.8386 3.19472L15.5989 7.98045L20.6202 8.20349C22.4337 8.28405 23.1768 10.6091 21.7563 11.7579L19.1668 13.8519L17.5821 12.5842L20.5345 10.1966L15.5132 9.97356C14.7265 9.93861 14.0365 9.429 13.7607 8.67918L12.0004 3.89345L10.7995 7.1581L9.18068 5.86302L10.1622 3.19472Z" fill="#000000"/>
<path fill-rule="evenodd" clip-rule="evenodd" d="M2.62015 3.2146L1.38086 4.78437L5.53514 8.10779L3.38051 8.20349C1.56706 8.28405 0.823913 10.6091 2.24445 11.7579L6.1778 14.9387L4.83481 19.8622C4.34978 21.6404 6.29539 23.0774 7.80907 22.059L12.0004 19.2391L16.1917 22.059C17.7054 23.0774 19.6509 21.6404 19.1659 19.8622L18.8694 18.7752L21.3809 20.7844L22.6201 19.2146C14.0128 12.3288 12.9571 11.4842 2.62015 3.2146ZM3.46619 10.1966L7.89997 9.99966L16.2644 16.6912L17.2748 20.3953L13.0835 17.5754C12.4268 17.1336 11.5739 17.1336 10.9172 17.5754L6.72595 20.3953L8.06895 15.4717C8.27937 14.7003 8.01582 13.8758 7.39955 13.3774L3.46619 10.1966Z" fill="#000000"/>
</svg>
