<svg xmlns="http://www.w3.org/2000/svg" width="16" height="16" viewBox="0 0 16 16" fill="none"><rect width="16" height="16" fill="none"/>
<path fill-rule="evenodd" clip-rule="evenodd" d="M8.28124 2.81131C9.28438 1.72959 10.9108 1.72956 11.914 2.81124C12.9172 3.89301 12.9172 5.64702 11.914 6.72883L7.68411 11.2901C7.08205 11.9393 6.10594 11.9393 5.50384 11.2902C4.90165 10.6409 4.90161 9.58813 5.50374 8.93882L9.4396 4.69456L10.1651 5.4769L6.22924 9.72116C6.02781 9.93837 6.02782 10.2905 6.22927 10.5077C6.43069 10.7249 6.75722 10.7249 6.95862 10.5077L11.1885 5.94648C11.7911 5.29676 11.791 4.24332 11.1885 3.59362C10.586 2.94397 9.6092 2.94399 9.00673 3.59367L4.78063 8.15081C3.77447 9.23578 3.77446 10.9949 4.78061 12.0799C5.78675 13.1648 7.418 13.1648 8.42414 12.0799L10.1874 10.1785C10.8862 9.42498 11.738 8.85724 12.6755 8.52025L13 9.56987C12.2136 9.85254 11.499 10.3288 10.9129 10.9609L9.14963 12.8622C7.74281 14.3793 5.46193 14.3793 4.05512 12.8622C2.64829 11.3452 2.64829 8.88551 4.05514 7.36846L8.28124 2.81131Z" fill="#000000"/>
</svg>
