<svg xmlns="http://www.w3.org/2000/svg" width="24" height="24" viewBox="0 0 24 24" fill="none"><rect width="24" height="24" fill="none"/>
<path d="M11.9999 8.68016L10.9999 11.6802H12.9899L12.0399 8.68016H11.9999Z" fill="#000000"/>
<path d="M22.4995 9.24841V7.25L11.9995 2.25L1.49961 7.25V9.25H3.49955L3.49902 17.2536C3.49902 17.2536 1.49911 17.2536 1.49902 19.25V20.75H22.4999V19.25C22.4999 17.2487 20.4995 17.2487 20.4995 17.2487V9.24841H22.4995ZM12.0799 7.04516C12.8899 7.04516 13.1249 7.52516 13.3299 8.13516L15.4699 14.4502H13.9049L13.4049 12.9502H10.5699L10.0699 14.4502H8.56994L10.7899 8.13516C10.9999 7.52516 11.2699 7.04516 12.0799 7.04516ZM15.9999 17.5002H7.99994V16.0002H15.9999V17.5002Z" fill="#000000"/>
</svg>
