<svg xmlns="http://www.w3.org/2000/svg" width="24" height="24" viewBox="0 0 24 24" fill="none"><rect width="24" height="24" fill="none"/>
<path d="M4.00001 2L4 4.99998L20 5L20 2.00002L4.00001 2Z" fill="#000000"/>
<path d="M2 8V11H7.00001C7.00001 12.6768 6.8208 15.0559 6.21855 16.1909C5.64492 17.272 4.59208 18.4003 2.47615 19.1889L2 19.3672L3.52392 22C6.19083 21.006 7.88794 19.4453 8.86861 17.597C9.82065 15.8028 10 12.8232 10 11H13V18.1087C13 21.1522 14.1305 22.0001 16.6088 22.0001H18.8694C21.0869 22.0001 21.7391 20.3263 22 16.3913C21.3043 16.2174 19 15.3043 19 15.3043C18.913 18.4567 18.7826 19.0001 18.0434 19.0001H16.8261C16.1304 19.0001 16 18.8915 16 18.0436V11H22V8H2Z" fill="#000000"/>
</svg>
