<svg xmlns="http://www.w3.org/2000/svg" width="24" height="24" viewBox="0 0 24 24" fill="none"><rect width="24" height="24" fill="none"/>
<path d="M16 23H18V22C19.1 22 20 21.1 20 20V7C20 5.9 19.1 5 18 5H16V2C16 1.4 15.6 1 15 1H9C8.4 1 8 1.4 8 2V5H6C4.9 5 4 5.9 4 7V20C4 21.1 4.9 22 6 22V23H8V22H16V23ZM10 3H14V5H10V3ZM6.57227 17V16.0088L8.84277 13.7676C9.83398 12.8057 10.1025 12.4492 10.1025 11.9561V11.9414C10.1025 11.3408 9.69238 10.9209 9.01855 10.9209C8.33008 10.9209 7.85645 11.3799 7.85645 12.0488V12.0732H6.49414L6.48926 12.0537C6.48926 10.7012 7.54395 9.77344 9.08691 9.77344C10.5371 9.77344 11.5527 10.6035 11.5527 11.8193V11.834C11.5527 12.6348 11.1377 13.2988 9.85352 14.4854L8.5498 15.7012V15.8135H11.6553V17H6.57227ZM14.7178 17.1807C12.9795 17.1807 11.9199 15.7549 11.9199 13.4795V13.4697C11.9199 11.1895 12.9795 9.77344 14.7178 9.77344C16.4609 9.77344 17.5156 11.1895 17.5156 13.4697V13.4795C17.5156 15.7549 16.4609 17.1807 14.7178 17.1807ZM14.7178 16.0137C13.8877 16.0137 13.4141 15.0713 13.4141 13.4795V13.4697C13.4141 11.873 13.8877 10.9404 14.7178 10.9404C15.5527 10.9404 16.0264 11.873 16.0264 13.4697V13.4795C16.0264 15.0713 15.5527 16.0137 14.7178 16.0137Z" fill="#000000"/>
</svg>
