<svg xmlns="http://www.w3.org/2000/svg" width="24" height="24" viewBox="0 0 24 24" fill="none"><rect width="24" height="24" fill="none"/>
<path d="M11.9593 2C17.4596 2 21.9185 6.45891 21.9185 11.9593C21.9185 13.623 21.5105 15.1915 20.7892 16.5701L13.0004 8.78127V7H12.5L11.5563 7.33725L7.34842 3.12933C8.72702 2.40797 10.2955 2 11.9593 2Z" fill="#000000"/>
<path fill-rule="evenodd" clip-rule="evenodd" d="M11.9593 21.9185C6.45891 21.9185 2 17.4596 2 11.9593C2 9.56777 2.84292 7.37315 4.24786 5.65631L2 3.40845L3.40845 2L10.8471 9.43863L11 9.3913V9.59155L22 20.5915L20.5915 22L18.2622 19.6706C16.5454 21.0756 14.3507 21.9185 11.9593 21.9185ZM11 18H13.0004V14.4088L11 12.4085V18ZM8 9.40845V10.3197L8.69587 10.1043L8 9.40845Z" fill="#000000"/>
</svg>
