<svg xmlns="http://www.w3.org/2000/svg" width="24" height="24" viewBox="0 0 24 24" fill="none"><rect width="24" height="24" fill="none"/>
<path d="M13 0H11V2.01915C9.6035 2.15141 8.38744 2.55153 7.42201 3.17957L9.61725 5.37482C9.98443 5.15472 10.4432 4.99066 11 4.90124V6.75753L13 8.75753V4.88448C14.6719 5.15037 15.8009 6.1158 15.9969 7.76731L16.0234 8H19.3231V7.76731C19.1958 4.51366 16.6713 2.33941 13 2.02249V0Z" fill="#000000"/>
<path fill-rule="evenodd" clip-rule="evenodd" d="M5.11321 6.52746L2 3.41424L3.41418 2L22 20.5858L20.5858 22L18.2562 19.6705C17.1027 21.02 15.2308 21.8143 13 21.9924V24H11V21.9821C7.33066 21.6586 4.57444 19.6028 4.47653 16.2041V16H7.77731L7.80273 16.2041C8.03654 17.7171 9.02569 18.8192 11 19.102V13.2952L10.5008 13.1777C6.84627 12.3355 4.99997 10.6795 4.99997 7.69593C4.99997 7.28838 5.03853 6.89842 5.11321 6.52746ZM15.9276 17.3419C15.6068 18.2918 14.6858 18.9615 13 19.1352V14.4142L15.9276 17.3419Z" fill="#000000"/>
</svg>
