<svg xmlns="http://www.w3.org/2000/svg" width="24" height="24" viewBox="0 0 24 24" fill="none"><rect width="24" height="24" fill="none"/>
<path fill-rule="evenodd" clip-rule="evenodd" d="M18.1027 5.78119L5.82489 6.88389C5.14319 6.97019 4.97643 7.37038 4.97643 7.86217V8.13455H18.8114C19.903 8.13455 20.7878 9.01943 20.7878 10.111V13.8846L19.9331 13.1759C18.3279 11.8451 15.9034 12.9719 15.8746 15.0458H15.0273C11.5964 15.0458 9.12862 17.2415 8.0977 19.9931H4.97643C3.88488 19.9931 3 19.1082 3 18.0167V7.86217C3 6.38681 3.5991 5.16979 5.54538 4.92732L15.9551 3.99241C17.0023 3.89836 17.9398 4.64059 18.0885 5.6814L18.1027 5.78119ZM23.2865 18.8057C23.5163 18.964 23.5163 19.2848 23.2865 19.443L18.537 23.3516C18.2771 23.5655 17.8856 23.3806 17.8856 23.044V21.0994C17.5533 21.0994 17.2148 21.0938 16.8731 21.0882H16.8731C14.5539 21.0499 12.0805 21.0091 10.3173 22.6927H9.91895C9.91895 19.7702 12.0072 17.1161 15.0973 17.1161H17.8856V15.1755C17.8856 14.8382 18.2785 14.6536 18.5381 14.8688L23.2865 18.8057Z" fill="#000000"/>
</svg>
