<svg xmlns="http://www.w3.org/2000/svg" width="24" height="24" viewBox="0 0 24 24" fill="none"><rect width="24" height="24" fill="none"/>
<path d="M17.2785 13.0204C17.2785 14.9408 17.1594 16.4501 16.8244 17.8612C16.4877 19.2795 15.9439 20.5525 15.1457 22.0136L13.3908 21.0546C14.1348 19.6927 14.5953 18.5905 14.8781 17.3993C15.1626 16.2012 15.2785 14.865 15.2785 13.0204H17.2785ZM13.3371 10.0341C13.3371 14.8231 13.405 18.4042 10.4572 21.953L8.91816 20.6747C11.3356 17.7644 11.3371 14.9402 11.3371 10.0341H13.3371ZM15.2834 10.8935C15.2833 9.26519 13.9635 7.94523 12.3352 7.94523C10.7122 7.9454 9.39539 9.25686 9.38691 10.8778C9.45296 13.0258 9.40499 14.7199 9.05586 16.165C8.69528 17.6571 8.02509 18.8437 6.93183 20.0048L5.4748 18.6337C6.35169 17.7025 6.83963 16.8203 7.11152 15.6952C7.39401 14.526 7.45394 13.0575 7.38789 10.9247L7.38691 10.9091V10.8935C7.38698 8.16072 9.60243 5.9454 12.3352 5.94523C15.068 5.94523 17.2833 8.16062 17.2834 10.8935V11.0185H15.2834V10.8935Z" fill="#000000"/>
<path d="M12.3027 1.9873C17.1873 1.98737 21.1492 5.93671 21.1699 10.8164L21.21 12.0439C21.2814 14.7804 21.1709 16.7015 20.4961 19.3047L18.5605 18.8027C19.259 16.1082 19.3004 14.2523 19.1709 10.8936V10.8545C19.1707 7.06185 16.0954 3.98737 12.3027 3.9873C10.7588 3.98734 9.33346 4.49636 8.18652 5.35645L6.7627 3.93262C8.28058 2.71613 10.2062 1.98734 12.3027 1.9873ZM6.77734 6.77539C5.934 7.91591 5.43564 9.32714 5.43555 10.8545C5.46512 12.3294 5.42534 13.37 5.28125 14.2021C5.13011 15.0746 4.86859 15.6921 4.50684 16.3252L2.77051 15.333C3.03968 14.8619 3.20619 14.4636 3.31055 13.8613C3.42127 13.2221 3.46531 12.3327 3.43555 10.875V10.8545C3.43565 8.7745 4.15336 6.8629 5.35254 5.35059L6.77734 6.77539Z" fill="#000000"/>
</svg>
