<svg xmlns="http://www.w3.org/2000/svg" width="24" height="24" viewBox="0 0 24 24" fill="none"><rect width="24" height="24" fill="none"/>
<path fill-rule="evenodd" clip-rule="evenodd" d="M3 14.2921C3 13.2956 3.19124 10.9668 5.34946 8.41963C5.41233 8.34542 5.47456 8.27206 5.53612 8.19948C7.42391 5.97387 8.68832 4.48318 9.07678 1.74224C9.12669 1.39007 9.50577 1.17728 9.81114 1.35966C12.8302 3.16273 14.8422 6.39366 14.8422 10.0785C14.8422 11.5665 16.5549 9.76855 17.3212 8.40178C17.5278 8.03322 18.1545 7.84569 18.4278 8.16794C19.6346 9.59091 20.9739 12.1014 21 14.294C21 19.1035 16.9706 22.9999 12 22.9999C7.02939 22.9999 3 19.1016 3 14.2921ZM12.6692 14.4095C12.9993 15.3681 13.2211 16.0118 14.5166 15.2972C14.78 15.1519 15.1211 15.2375 15.2209 15.5213C15.9351 17.5522 15.4406 20.4999 12.0014 20.4999C8.8195 20.4999 6.59486 16.6659 10.7261 12.2823C10.8835 12.1153 11.1425 12.0802 11.3236 12.221C12.132 12.8498 12.4292 13.7128 12.6692 14.4095Z" fill="#000000"/>
</svg>
