<svg xmlns="http://www.w3.org/2000/svg" width="24" height="24" viewBox="0 0 24 24" fill="none"><rect width="24" height="24" fill="none"/>
<path d="M18 4C18.5523 4 19 4.44772 19 5V19.6992C18.9998 19.9472 18.716 20.0877 18.5186 19.9375L16.667 18.5273L15.0605 19.751C14.6311 20.078 14.0359 20.0779 13.6064 19.751L12 18.5273L10.3936 19.751C9.96406 20.0779 9.36889 20.078 8.93945 19.751L7.33301 18.5273L5.48145 19.9375C5.28405 20.0877 5.0002 19.9472 5 19.6992V5C5 4.44772 5.44772 4 6 4H18ZM8 13.4805H13V11.9805H8V13.4805ZM8 10H16V8.48047H8V10Z" fill="#000000"/>
</svg>
