<svg xmlns="http://www.w3.org/2000/svg" width="24" height="24" viewBox="0 0 24 24" fill="none"><rect width="24" height="24" fill="none"/>
<path fill-rule="evenodd" clip-rule="evenodd" d="M12.0014 2C17.8355 2 22.0028 4.91707 22.0028 10.3345C22.0028 15.7519 17.0021 20.3358 12.483 21.8901C12.1709 21.987 12.0149 22.0354 11.7792 21.9702C11.6138 21.9245 11.3928 21.7616 11.3001 21.6173C11.168 21.4115 11.168 21.2002 11.168 20.7776V18.6449C6.16725 18.6449 2 15.7519 2 10.3345C2 4.91707 6.16725 2 12.0014 2ZM15.5355 8.03553L14.1213 6.62132L12 8.74264L9.87868 6.62132L8.46447 8.03553L10.5858 10.1569L8.46447 12.2782L9.87868 13.6924L12 11.5711L14.1213 13.6924L15.5355 12.2782L13.4142 10.1569L15.5355 8.03553Z" fill="#000000"/>
</svg>
