<svg xmlns="http://www.w3.org/2000/svg" width="16" height="16" viewBox="0 0 16 16" fill="none"><rect width="16" height="16" fill="none"/>
<path d="M8.75098 8.00018V3.2002H7.25098V8.00018H8.75098Z" fill="#000000"/>
<path d="M3.2002 8.00025C3.2002 6.22358 4.16547 4.67235 5.60019 3.84241V5.73529C5.04224 6.3263 4.7002 7.12333 4.7002 8.00025C4.7002 9.82279 6.17766 11.3003 8.0002 11.3003C9.82273 11.3003 11.3002 9.82279 11.3002 8.00025C11.3002 7.12333 10.9581 6.3263 10.4002 5.73529V3.84241C11.8349 4.67235 12.8002 6.22358 12.8002 8.00025C12.8002 10.6512 10.6512 12.8003 8.0002 12.8003C5.34923 12.8003 3.2002 10.6512 3.2002 8.00025Z" fill="#000000"/>
</svg>
