<svg xmlns="http://www.w3.org/2000/svg" width="24" height="24" viewBox="0 0 24 24" fill="none"><rect width="24" height="24" fill="none"/>
<path d="M19.7916 18.5747C19.2008 18.8582 18.5008 19 17.6916 19C16.7405 19 15.9194 18.7992 15.2283 18.3975C14.543 17.9958 14.0143 17.4228 13.6422 16.6785C13.2759 15.9283 13.0928 15.0363 13.0928 14.0025V13.9937C13.0928 12.9658 13.2759 12.0827 13.6422 11.3443C14.0143 10.6059 14.543 10.0388 15.2283 9.64304C15.9135 9.24135 16.7316 9.04051 17.6827 9.04051C18.5097 9.04051 19.2245 9.19114 19.827 9.4924C20.4295 9.78776 20.9021 10.1924 21.2447 10.7063C21.5933 11.2143 21.803 11.7962 21.8738 12.4519V12.4962H19.8004L19.7827 12.4519C19.6882 11.9852 19.4637 11.5983 19.1093 11.2911C18.7608 10.984 18.2882 10.8304 17.6916 10.8304C17.2072 10.8304 16.7878 10.9574 16.4333 11.2114C16.0848 11.4595 15.816 11.8198 15.627 12.2924C15.438 12.765 15.3435 13.3321 15.3435 13.9937V14.0114C15.3435 14.6848 15.438 15.2608 15.627 15.7392C15.816 16.2177 16.0878 16.584 16.4422 16.838C16.7966 17.0861 17.216 17.2101 17.7004 17.2101C18.2675 17.2101 18.7253 17.0743 19.0738 16.8025C19.4224 16.5249 19.6586 16.135 19.7827 15.6329L19.8004 15.5797L21.8738 15.5709L21.865 15.6418C21.7823 16.2975 21.5637 16.8793 21.2093 17.3873C20.8608 17.8895 20.3882 18.2852 19.7916 18.5747Z" fill="#000000"/>
<path d="M17.6915 6.97217L19.065 5H20.9346L18.7549 8.01266H16.6105L14.4308 5H16.3004L17.6915 6.97217Z" fill="#000000"/>
<path d="M9.9076 6.01899L4.89241 11.9646H4.77722V6.01899H2.5V18.8051H4.77722V14.6939L6.10146 13.1384L10.1203 18.8051H12.9025L7.7378 11.6186L12.5215 6.01899H9.9076Z" fill="#000000"/>
</svg>
