<svg xmlns="http://www.w3.org/2000/svg" width="24" height="24" viewBox="0 0 24 24" fill="none"><rect width="24" height="24" fill="none"/>
<path d="M8 5C8 3.89543 8.89543 3 10 3H14C15.1046 3 16 3.89543 16 5V6.99951H20C21.1046 6.99951 22 7.89494 22 8.99951V18.9995C22 20.1041 21.1046 20.9995 20 20.9995H4C2.89543 20.9995 2 20.1041 2 18.9995V8.99951C2 7.89494 2.89543 6.99951 4 6.99951H8V5ZM14 5H10V6.99951H14V5ZM8.58984 11.9142L10.5898 13.9142L8.58984 15.9142L10.0041 17.3284L12.0041 15.3284L14.0041 17.3284L15.4183 15.9142L13.4183 13.9142L15.4183 11.9142L14.0041 10.5L12.0041 12.5L10.0041 10.5L8.58984 11.9142Z" fill="#000000"/>
</svg>
