<svg xmlns="http://www.w3.org/2000/svg" width="24" height="24" viewBox="0 0 24 24" fill="none"><rect width="24" height="24" fill="none"/>
<path d="M3.4043 9.17143L15.2329 21L16.159 20.331L16.3473 19.2663C16.5971 17.8531 17.2753 16.5508 18.2899 15.5359L19.5823 14.2431C20.7572 13.0682 21.4042 11.5002 21.4042 9.82732C21.4042 6.29705 18.0923 3 14.5769 3C12.904 3 11.336 3.64701 10.1611 4.82195L8.86821 6.11443C7.85336 7.12899 6.55121 7.80714 5.13811 8.05702L4.07402 8.24519L3.4043 9.17143Z" fill="#000000"/>
<path d="M6.06739 18.2487C7.04332 19.2247 8.62462 19.2247 9.60055 18.2487L6.06739 14.7156C5.09147 15.6915 5.09147 17.2728 6.06739 18.2487Z" fill="#000000"/>
</svg>
