<svg xmlns="http://www.w3.org/2000/svg" width="16" height="16" viewBox="0 0 16 16" fill="none"><rect width="16" height="16" fill="none"/>
<path fill-rule="evenodd" clip-rule="evenodd" d="M15 7.99999C15 11.866 11.866 15 8 15C4.134 15 1 11.866 1 7.99999C1 4.13401 4.134 1 8 1C11.866 1 15 4.13401 15 7.99999ZM8.00121 5.4765C7.73968 5.4765 7.49868 5.59057 7.32648 5.78555L6.86321 6.31012L5.7877 5.40628L6.25097 4.88171C6.67449 4.40216 7.2992 4.09172 8.00121 4.09172C9.31691 4.09172 10.3377 5.16495 10.3377 6.43266C10.3377 7.03772 10.1075 7.59389 9.72589 8.01209C9.61242 8.13643 9.50962 8.24252 9.41398 8.34123C9.25376 8.50659 9.1136 8.65125 8.97699 8.82624C8.77807 9.08104 8.71101 9.25838 8.71101 9.40005H7.29142C7.29142 8.81336 7.57337 8.33854 7.8476 7.98727C8.02665 7.75791 8.26256 7.51301 8.45392 7.31435C8.53498 7.23021 8.60818 7.15422 8.66557 7.09133C8.82041 6.92165 8.91811 6.69151 8.91811 6.43266C8.91811 5.87944 8.48231 5.4765 8.00121 5.4765ZM8.7 12.2V10.8H7.3V12.2H8.7Z" fill="#000000"/>
</svg>
