<svg xmlns="http://www.w3.org/2000/svg" width="24" height="24" viewBox="0 0 24 24" fill="none"><rect width="24" height="24" fill="none"/>
<path d="M4 18.8655H6.47907V13.2059H12.2924V11.1881H6.47907V7.08511H12.8401V5H4V18.8655Z" fill="#000000"/>
<path d="M18.7879 19C19.0313 19 19.2555 18.9872 19.4605 18.9616C19.6719 18.9423 19.8513 18.9199 19.9986 18.8943V17.0782C19.8897 17.0911 19.784 17.1007 19.6815 17.1071C19.579 17.1135 19.4573 17.1167 19.3164 17.1167C18.8552 17.1167 18.5125 17.011 18.2883 16.7996C18.0705 16.5882 17.9616 16.2295 17.9616 15.7234V10.3809H19.9986V8.52642H17.9616V5.95127H15.5305V8.52642H14.0027V10.3809H15.5305V16.0885C15.5305 17.1199 15.79 17.863 16.3089 18.3178C16.8341 18.7726 17.6605 19 18.7879 19Z" fill="#000000"/>
</svg>
