<svg xmlns="http://www.w3.org/2000/svg" width="24" height="24" viewBox="0 0 24 24" fill="none"><rect width="24" height="24" fill="none"/>
<path d="M20.3971 2.07297C19.464 1.65443 17.0205 3.11929 15.1989 4.35398C15.0656 4.43769 14.9101 4.47956 14.7546 4.47956C14.2659 4.45863 13.1329 4.39585 12 4.39585C10.8671 4.39585 9.73413 4.43771 9.24541 4.47956C9.08991 4.47956 8.93441 4.43769 8.80112 4.35398C7.00176 3.11929 4.53598 1.67536 3.60298 2.07297C1.84804 2.84726 2.00352 13.4153 2.00352 13.6037C2.00352 20.9909 5.99504 22 12 22C18.3086 22 21.9965 20.9909 21.9965 13.6037C21.9965 10.7804 22.152 2.84726 20.3971 2.07297ZM7.24611 11.1134C5.84661 11.1134 4.7359 12.1597 4.7359 13.4363H3.62518C3.62518 11.5738 5.24682 10.067 7.24611 10.067C9.24541 10.067 10.8671 11.5738 10.8671 13.4363H9.75635C9.75635 12.1597 8.62341 11.1134 7.24611 11.1134ZM12.0667 16.5263L9.75635 14.943H14.3443L12.0667 16.5263ZM19.2641 13.4363C19.2641 12.1597 18.1312 11.1134 16.7539 11.1134C15.3766 11.1134 14.2436 12.1597 14.2436 13.4363H13.1329C13.1329 11.5738 14.7546 10.067 16.7539 10.067C18.7532 10.067 20.3748 11.5738 20.3748 13.4363H19.2641Z" fill="#000000"/>
</svg>
