<svg xmlns="http://www.w3.org/2000/svg" width="16" height="16" viewBox="0 0 16 16" fill="none"><rect width="16" height="16" fill="none"/>
<path d="M8.00014 6.11971L7.33333 8.12013H8.66028L8.02681 6.11971H8.00014Z" fill="#000000"/>
<path d="M15.0013 6.49862V5.16607L7.99982 1.83203L0.99844 5.16607V6.49968H2.33201L2.33166 11.8365C2.33166 11.8365 0.998104 11.8365 0.998047 13.1678V14.168H15.0016V13.1678C15.0016 11.8333 13.6677 11.8333 13.6677 11.8333V6.49862H15.0013ZM8.05348 5.02948C8.5936 5.02948 8.7503 5.34955 8.88699 5.7563L10.314 9.96719H9.27041L8.937 8.96698H7.0466L6.7132 9.96719H5.71299L7.1933 5.7563C7.33333 5.34955 7.51337 5.02948 8.05348 5.02948ZM10.6674 12.001H5.3329V11.0007H10.6674V12.001Z" fill="#000000"/>
</svg>
