<svg xmlns="http://www.w3.org/2000/svg" width="16" height="16" viewBox="0 0 16 16" fill="none"><rect width="16" height="16" fill="none"/>
<path d="M8.70004 1.36364V0H7.30004V1.36364H2.40035C1.61383 1.36364 0.998449 1.98904 1 2.72727H15C15.0015 1.98904 14.3862 1.36364 13.5997 1.36364H8.70004Z" fill="#000000"/>
<path d="M10.1 5.45455H8.7V10.9091H10.1V5.45455Z" fill="#000000"/>
<path d="M5.9 5.45455H7.3V10.9091H5.9V5.45455Z" fill="#000000"/>
<path d="M12.3107 4.09091H13.7194L12.6764 13.1725L12.6763 13.1741C12.5611 14.2127 11.661 15 10.5884 15H5.41433C4.34176 15 3.44167 14.2128 3.32648 13.1743L3.32628 13.1725L2.28103 4.09091H3.6898L4.71832 13.0272C4.75642 13.3736 5.0566 13.6364 5.41433 13.6364H10.5884C10.9461 13.6364 11.2463 13.3736 11.2844 13.0272L11.2848 13.024L12.3107 4.09091Z" fill="#000000"/>
</svg>
