<svg xmlns="http://www.w3.org/2000/svg" width="24" height="24" viewBox="0 0 24 24" fill="none"><rect width="24" height="24" fill="none"/>
<path fill-rule="evenodd" clip-rule="evenodd" d="M14.0104 4.00027H10.6077C10.0342 4.00027 9.56923 4.44798 9.56923 5.00027C9.56923 5.55255 10.0342 6.00027 10.6077 6.00027H12.6197L8.70322 18.0003H6.03846C5.46494 18.0003 5 18.448 5 19.0003C5 19.5526 5.46494 20.0003 6.03846 20.0003H9.44175C9.45774 20.0006 9.4737 20.0006 9.48961 20.0003H12.8923C13.4658 20.0003 13.9308 19.5526 13.9308 19.0003C13.9308 18.448 13.4658 18.0003 12.8923 18.0003H10.8803L14.7968 6.00027H17.4615C18.0351 6.00027 18.5 5.55255 18.5 5.00027C18.5 4.44798 18.0351 4.00027 17.4615 4.00027H14.0583C14.0423 3.99991 14.0263 3.99991 14.0104 4.00027Z" fill="#000000"/>
</svg>
