<svg xmlns="http://www.w3.org/2000/svg" width="16" height="16" viewBox="0 0 16 16" fill="none"><rect width="16" height="16" fill="none"/>
<path fill-rule="evenodd" clip-rule="evenodd" d="M15.0019 6.83412C15.0019 3.04195 12.0848 1 8.00097 1C3.91707 1 1 3.04195 1 6.83412C1 10.6263 3.91707 12.6514 7.41758 12.6514V14.1443C7.41758 14.4401 7.41758 14.588 7.51006 14.7321C7.57496 14.8331 7.72968 14.9471 7.84541 14.9791C8.01042 15.0248 8.11964 14.9909 8.33807 14.923C11.5015 13.8351 15.0019 10.6263 15.0019 6.83412ZM7.60065 7.64938L7.30087 9.74771H8.70107L8.40128 7.64938L10.1013 9.04761L10.8014 7.64742L8.83843 6.94732L10.8014 6.24723L10.1013 4.84703L8.40128 6.24527L8.70107 4.14694H7.30087L7.60065 6.24524L5.90068 4.84703L5.20058 6.24723L7.16358 6.94732L5.20058 7.64742L5.90068 9.04761L7.60065 7.64938Z" fill="#000000"/>
</svg>
