<svg xmlns="http://www.w3.org/2000/svg" width="24" height="24" viewBox="0 0 24 24" fill="none"><rect width="24" height="24" fill="none"/>
<path d="M8 5C8 3.89543 8.89543 3 10 3H14C15.1046 3 16 3.89543 16 5V6.99951H20C21.1046 6.99951 22 7.89494 22 8.99951V10.9995V12.9995V18.9995C22 20.1041 21.1046 20.9995 20 20.9995H4C2.89543 20.9995 2 20.1041 2 18.9995V12.9995V10.9995V8.99951C2 7.89494 2.89543 6.99951 4 6.99951H8V5ZM14 5H10V6.99951H14V5ZM12 17.8584C13.6943 17.8584 14.8613 17.0137 14.8613 15.793V15.7832C14.8613 14.8652 14.1729 14.1816 13.2158 13.9961V13.9668C14.0361 13.7617 14.6025 13.1709 14.6025 12.4043V12.3945C14.6025 11.3008 13.5283 10.5 12 10.5C10.4668 10.5 9.39746 11.3008 9.39746 12.3945V12.4043C9.39746 13.1709 9.95898 13.7666 10.7842 13.9668V13.9961C9.82227 14.1865 9.13867 14.8652 9.13867 15.7832V15.793C9.13867 17.0137 10.3057 17.8584 12 17.8584ZM12 13.5225C11.3213 13.5225 10.8525 13.1221 10.8525 12.5459V12.5361C10.8525 11.96 11.3262 11.5645 12 11.5645C12.6689 11.5645 13.1426 11.96 13.1426 12.5361V12.5459C13.1426 13.1221 12.6738 13.5225 12 13.5225ZM12 16.7842C11.2236 16.7842 10.6768 16.3301 10.6768 15.6953V15.6855C10.6768 15.0508 11.2188 14.5918 12 14.5918C12.7812 14.5918 13.3184 15.0508 13.3184 15.6855V15.6953C13.3184 16.3301 12.7715 16.7842 12 16.7842Z" fill="#000000"/>
</svg>
