<svg xmlns="http://www.w3.org/2000/svg" width="16" height="16" viewBox="0 0 16 16" fill="none"><rect width="16" height="16" fill="none"/>
<path d="M7.45308 2.87903C7.64205 2.37366 8.35688 2.37366 8.54585 2.87903L9.59234 5.67768C9.67432 5.89693 9.87941 6.04593 10.1133 6.05615L13.0983 6.18659C13.6373 6.21014 13.8582 6.88999 13.436 7.22587L11.0977 9.08597C10.9145 9.23169 10.8362 9.47279 10.8987 9.69835L11.6971 12.5776C11.8413 13.0975 11.263 13.5177 10.813 13.2199L8.32141 11.5709C8.12622 11.4417 7.87271 11.4417 7.67752 11.5709L5.18589 13.2199C4.73596 13.5177 4.15765 13.0975 4.30182 12.5776L5.1002 9.69835C5.16275 9.47279 5.08441 9.23169 4.90123 9.08597L2.56293 7.22587C2.14069 6.88999 2.36159 6.21014 2.90061 6.18659L5.88568 6.05615C6.11952 6.04593 6.32462 5.89693 6.4066 5.67768L7.45308 2.87903Z" fill="#000000"/>
</svg>
