<svg xmlns="http://www.w3.org/2000/svg" width="24" height="24" viewBox="0 0 24 24" fill="none"><rect width="24" height="24" fill="none"/>
<path d="M8.98757 10.2356C8.5718 10.2356 8.23475 10.5727 8.23475 10.9885C8.23475 11.4042 8.5718 11.7413 8.98757 11.7413C9.40335 11.7413 9.7404 11.4042 9.7404 10.9885C9.7404 10.5727 9.40335 10.2356 8.98757 10.2356Z" fill="#000000"/>
<path d="M15.0102 17.7639C15.4259 17.7639 15.763 17.4269 15.763 17.0111C15.763 16.5953 15.4259 16.2583 15.0102 16.2583C14.5944 16.2583 14.2574 16.5953 14.2574 17.0111C14.2574 17.4269 14.5944 17.7639 15.0102 17.7639Z" fill="#000000"/>
<path fill-rule="evenodd" clip-rule="evenodd" d="M4 3C4 2.44772 4.44772 2 5 2H12.185C13.9599 2 15.3468 3.53245 15.1701 5.29851L15.0243 6.75677C15.0117 6.88251 15.1175 6.98825 15.2432 6.97568L16.7015 6.82985C18.4675 6.65325 20 8.0401 20 9.81496V21C20 21.5523 19.5523 22 19 22H5C4.44772 22 4 21.5523 4 21V3ZM11.2461 10.9885C11.2461 12.2358 10.2349 13.2469 8.98757 13.2469C7.74025 13.2469 6.7291 12.2358 6.7291 10.9885C6.7291 9.74114 7.74025 8.72998 8.98757 8.72998C10.2349 8.72998 11.2461 9.74114 11.2461 10.9885ZM16.2049 10.1585L15.0515 9.19067L7.79288 17.8411L8.94628 18.809L16.2049 10.1585ZM15.0102 14.7526C13.7628 14.7526 12.7517 15.7637 12.7517 17.0111C12.7517 18.2584 13.7628 19.2696 15.0102 19.2696C16.2575 19.2696 17.2687 18.2584 17.2687 17.0111C17.2687 15.7637 16.2575 14.7526 15.0102 14.7526Z" fill="#000000"/>
</svg>
