<svg xmlns="http://www.w3.org/2000/svg" width="24" height="24" viewBox="0 0 24 24" fill="none"><rect width="24" height="24" fill="none"/>
<path d="M18 2C19.1046 2 20 2.89544 20 4.00001V20.8931C20 21.8327 18.8981 22.34 18.1846 21.729L16.666 20.4272L15.3096 21.5913C14.7479 22.0727 13.9191 22.0726 13.3574 21.5913L12 20.4272L10.6426 21.5913C10.0809 22.0726 9.25209 22.0727 8.69043 21.5913L7.33301 20.4272L5.81543 21.729C5.10188 22.34 4 21.8327 4 20.8931V4.00001C4 2.89544 4.89543 2 6 2H18ZM6 18.937L6.68262 18.352L7.33301 17.7934L9.66602 19.7934L11.3496 18.352L12 17.7934L12.6504 18.352L14.333 19.7934L16.667 17.7934L17.3174 18.352L18 18.937V4.00001H6V18.937ZM13 14.0001H8V12.0001H13V14.0001ZM16 10.0001H8V8.00004H16V10.0001Z" fill="#000000"/>
</svg>
