<svg xmlns="http://www.w3.org/2000/svg" width="16" height="16" viewBox="0 0 16 16" fill="none"><rect width="16" height="16" fill="none"/>
<path d="M13 2.6C13 2.26863 12.7202 2 12.375 2H6.125C5.77982 2 5.5 2.26863 5.5 2.6V3.2H11.125C11.4702 3.2 11.75 3.46863 11.75 3.8V11.6H12.375C12.7202 11.6 13 11.3314 13 11V2.6Z" fill="#000000"/>
<path d="M9.875 4.4C10.2202 4.4 10.5 4.66863 10.5 5V13.4C10.5 13.7314 10.2202 14 9.875 14H3.625C3.27982 14 3 13.7314 3 13.4V5C3 4.66863 3.27982 4.4 3.625 4.4H9.875Z" fill="#000000"/>
</svg>
