<svg xmlns="http://www.w3.org/2000/svg" width="24" height="24" viewBox="0 0 24 24" fill="none"><rect width="24" height="24" fill="none"/>
<path fill-rule="evenodd" clip-rule="evenodd" d="M3.586 13.0002C2.67196 13.0002 2.23699 11.8751 2.91332 11.2602L10.9904 3.91743C11.5625 3.39731 12.4363 3.39731 13.0084 3.91743L21.0855 11.2602C21.7618 11.8751 21.3268 13.0002 20.4128 13.0002H18.9994V19.5002C18.9994 20.3286 18.3278 21.0002 17.4994 21.0002H6.49939C5.67096 21.0002 4.99939 20.3286 4.99939 19.5002V13.0002H3.586ZM11.9995 11.9881C11.5709 11.3903 10.8701 11.0008 10.0784 11.0008C8.77387 11.0008 7.71631 12.0583 7.71631 13.3629C7.71631 14.0266 7.99009 14.6265 8.43089 15.0556L12.0003 18.5402L15.5682 15.0553C16.0092 14.6261 16.2831 14.0262 16.2831 13.3622C16.2831 12.0577 15.2255 11.0001 13.9209 11.0001C13.129 11.0001 12.428 11.3899 11.9995 11.9881Z" fill="#000000"/>
<path d="M15.9993 3.5449H17.9993V6.99998L15.9993 4.99998V3.5449Z" fill="#000000"/>
</svg>
