<svg xmlns="http://www.w3.org/2000/svg" width="48" height="48" viewBox="0 0 48 48" fill="none"><rect width="48" height="48" fill="none"/>
<path d="M43.837 23.9185C43.837 12.9178 34.9192 4 23.9185 4C20.591 4 17.454 4.81594 14.6968 6.25867L23.0601 14.6219L24.9144 13.9593H26V17.4729L41.5783 33.1402C43.0211 30.383 43.837 27.246 43.837 23.9185Z" fill="#000000"/>
<path fill-rule="evenodd" clip-rule="evenodd" d="M23.9185 43.837C12.9178 43.837 4 34.9192 4 23.9185C4 19.1355 5.68583 14.7463 8.49571 11.3126L4 6.8169L6.8169 4L21.6308 18.8139L22 18.7224V19.1098L25.9111 23.0942L44 41.1831L41.1831 44L36.5244 39.3413C33.0907 42.1512 28.7015 43.837 23.9185 43.837ZM22 35.9996H26V28.7276L22 24.7432V35.9996ZM17.3654 20.1339L15.9511 18.7273V20.5715L17.3654 20.1339Z" fill="#000000"/>
</svg>
