<svg xmlns="http://www.w3.org/2000/svg" width="24" height="24" viewBox="0 0 24 24" fill="none"><rect width="24" height="24" fill="none"/>
<path fill-rule="evenodd" clip-rule="evenodd" d="M15.2 8.11092C15.2 6.02561 14.4 3.90039 12 3.90039C9.59999 3.90039 8.8 5.98668 8.8 8.11092C8.8 10.2351 10.218 11.9004 12 11.9004C13.782 11.9004 15.2 10.1962 15.2 8.11092ZM20 16.6384C20 15.6663 19.538 14.7583 18.6239 14.4276C17.4144 13.9901 15.3193 13.5004 12 13.5004C8.68073 13.5004 6.58563 13.9901 5.37609 14.4276C4.46196 14.7583 4 15.6663 4 16.6384V16.929C4.05244 17.7245 4.40181 18.1995 4.93691 18.7764C6.06277 19.9902 8.43707 21.5004 12 21.5004C15.9043 21.5004 18.1998 19.8949 19.2073 18.6905C19.649 18.1626 19.9542 17.6238 20 16.929V16.6384Z" fill="#000000"/>
</svg>
