<svg xmlns="http://www.w3.org/2000/svg" width="24" height="24" viewBox="0 0 24 24" fill="none"><rect width="24" height="24" fill="none"/>
<path d="M20.2661 9.01562C20.8691 9.01562 21.1938 8.68164 21.1938 8.07861V5.82422C21.1938 3.83887 20.1548 2.7998 18.1416 2.7998H15.8872C15.2842 2.7998 14.9502 3.12451 14.9502 3.72754C14.9502 4.32129 15.2842 4.646 15.8872 4.646H18.021C18.8652 4.646 19.3477 5.09131 19.3477 5.99121V8.07861C19.3477 8.68164 19.6724 9.01562 20.2661 9.01562ZM3.72461 9.01562C4.32764 9.01562 4.64307 8.68164 4.64307 8.07861V5.99121C4.64307 5.09131 5.11621 4.646 5.96973 4.646H8.10352C8.70654 4.646 9.04053 4.32129 9.04053 3.72754C9.04053 3.12451 8.70654 2.7998 8.10352 2.7998H5.84912C3.84521 2.7998 2.79688 3.82959 2.79688 5.82422V8.07861C2.79688 8.68164 3.13086 9.01562 3.72461 9.01562ZM11.2578 13.5522H11.3413C12.2969 13.5522 12.8164 13.0234 12.8164 12.0771V9.16406C12.8164 8.78369 12.5659 8.5332 12.1763 8.5332C11.7866 8.5332 11.5361 8.78369 11.5361 9.16406V12.1235C11.5361 12.207 11.4805 12.2534 11.397 12.2534H11.1187C10.7568 12.2534 10.4785 12.5317 10.4785 12.8843C10.4785 13.3018 10.7754 13.5522 11.2578 13.5522ZM8.521 11.3813C8.97559 11.3813 9.30029 11.0566 9.30029 10.5928V9.33105C9.30029 8.86719 8.97559 8.54248 8.521 8.54248C8.06641 8.54248 7.7417 8.87646 7.7417 9.33105V10.5928C7.7417 11.0566 8.06641 11.3813 8.521 11.3813ZM15.4512 11.3813C15.8965 11.3813 16.2305 11.0566 16.2305 10.5928V9.33105C16.2305 8.87646 15.8965 8.54248 15.4512 8.54248C14.9873 8.54248 14.6626 8.86719 14.6626 9.33105V10.5928C14.6626 11.0566 14.9873 11.3813 15.4512 11.3813ZM11.9443 16.6045C13.0669 16.6045 14.208 16.1221 15.0151 15.3149C15.1357 15.1943 15.2007 15.0366 15.2007 14.8325C15.2007 14.4707 14.9131 14.2017 14.5513 14.2017C14.3657 14.2017 14.2266 14.2666 14.041 14.4614C13.5493 14.9717 12.7515 15.3335 11.9443 15.3335C11.1743 15.3335 10.3857 14.9902 9.85693 14.4614C9.69922 14.3037 9.56006 14.2017 9.3374 14.2017C8.96631 14.2017 8.68799 14.4707 8.68799 14.8325C8.68799 14.9995 8.75293 15.1572 8.87354 15.3057C9.61572 16.1499 10.7939 16.6045 11.9443 16.6045ZM5.84912 21.1968H8.10352C8.70654 21.1968 9.04053 20.8628 9.04053 20.269C9.04053 19.6753 8.70654 19.3413 8.10352 19.3413H5.96973C5.11621 19.3413 4.64307 18.9053 4.64307 18.0054V15.918C4.64307 15.3149 4.31836 14.981 3.72461 14.981C3.12158 14.981 2.79688 15.3149 2.79688 15.918V18.1724C2.79688 20.1577 3.84521 21.1968 5.84912 21.1968ZM15.8872 21.1968H18.1416C20.1548 21.1968 21.1938 20.1577 21.1938 18.1724V15.918C21.1938 15.3149 20.8599 14.981 20.2661 14.981C19.6631 14.981 19.3477 15.3149 19.3477 15.918V18.0054C19.3477 18.9053 18.8652 19.3413 18.021 19.3413H15.8872C15.2842 19.3413 14.9502 19.6753 14.9502 20.269C14.9502 20.8628 15.2842 21.1968 15.8872 21.1968Z" fill="#000000"/>
</svg>
