<svg xmlns="http://www.w3.org/2000/svg" width="25" height="25" viewBox="0 0 25 25" fill="none"><rect width="25" height="25" fill="none"/>
<path d="M9.82328 11.5257H9.11129V13.6367H9.8084C10.508 13.6367 10.9248 13.2374 10.9248 12.5527C10.9248 11.873 10.508 11.5257 9.82328 11.5257Z" fill="#626B75"/>
<path fill-rule="evenodd" clip-rule="evenodd" d="M4.15571 6.74477L1.11426 20.938H23.1143L20.0728 6.74478C19.847 5.6909 18.9156 4.93799 17.8378 4.93799H6.39069C5.31289 4.93799 4.38155 5.6909 4.15571 6.74477ZM7.11426 16.9469V9.93799H10.3839C11.9766 9.93799 13.0483 10.9551 13.0483 12.5478C13.0483 14.1256 11.9121 15.1947 10.2401 15.1947H9.11129V16.9469H7.11426ZM15.1261 11.6863V9.93799H17.1112V11.6863L18.1143 11.6902V13.1737L17.1112 13.1698V15.0253C17.1112 15.3775 17.2473 15.565 17.674 15.565C17.8116 15.565 17.9033 15.5339 17.9821 15.5072C18.0284 15.4915 18.0702 15.4773 18.1143 15.4718V16.8858C18.0646 16.896 18.0122 16.9102 17.9552 16.9255C17.7903 16.97 17.5869 17.0248 17.2993 17.0248C15.7413 17.0248 15.1261 16.5733 15.1261 15.4718V13.1698L14.1143 13.1737V11.6902L15.1261 11.6863Z" fill="#626B75"/>
</svg>
