<svg xmlns="http://www.w3.org/2000/svg" width="48" height="48" viewBox="0 0 48 48" fill="none"><rect width="48" height="48" fill="none"/>
<path d="M34.3628 9.7691H44V15.3247H34.3729C33.4135 16.99 31.6155 18.1111 29.5556 18.1111C27.4956 18.1111 25.6976 16.99 24.7382 15.3247H4V9.7691H24.7483C25.7101 8.11333 27.5028 7 29.5556 7C31.6083 7 33.401 8.11333 34.3628 9.7691Z" fill="#000000"/>
<path d="M44 31.9913H23.2568C22.2962 30.3308 20.5008 29.2135 18.4444 29.2135C16.3881 29.2135 14.5927 30.3308 13.6321 31.9913H4V37.5469H13.6321C14.5927 39.2074 16.3881 40.3247 18.4444 40.3247C20.5008 40.3247 22.2962 39.2074 23.2568 37.5469H44V31.9913Z" fill="#000000"/>
</svg>
