<svg xmlns="http://www.w3.org/2000/svg" width="24" height="24" viewBox="0 0 24 24" fill="none"><rect width="24" height="24" fill="none"/>
<path d="M16.582 21.5014C15.571 21.5014 14.562 21.2344 13.664 20.6934C8.83002 17.7884 6.11502 15.0734 3.29002 10.3194C2.77602 9.45542 2.50302 8.46442 2.50002 7.45442C2.49702 6.24642 2.88502 5.03642 3.59302 4.04642L4.74302 2.41542C5.09402 1.92542 5.63202 1.62042 6.22402 1.57142C6.81202 1.52242 7.39202 1.73342 7.81002 2.15242L10.684 5.02742C11.338 5.68342 11.46 6.69542 10.981 7.49042C10.96 7.52642 10.936 7.55942 10.91 7.59242L10.31 8.35542C9.99702 8.75242 10.031 9.32342 10.389 9.68142L14.323 13.6164C14.681 13.9744 15.252 14.0084 15.65 13.6944L16.413 13.0924C16.445 13.0664 16.48 13.0424 16.517 13.0214C17.313 12.5424 18.324 12.6644 18.979 13.3194L21.852 16.1944C22.27 16.6134 22.482 17.1914 22.433 17.7804C22.384 18.3724 22.079 18.9104 21.596 19.2574L19.963 20.4104C18.951 21.1344 17.766 21.5014 16.582 21.5014ZM6.39402 3.56442L5.22402 5.20542C4.75302 5.86242 4.49802 6.65642 4.50002 7.44842C4.50202 8.10042 4.67802 8.74042 5.01002 9.29842C7.64402 13.7324 10.179 16.2654 14.695 18.9794C15.96 19.7414 17.571 19.6634 18.803 18.7814L20.435 17.6284L17.563 14.7324L16.887 15.2654C15.693 16.2044 13.983 16.1044 12.908 15.0304L8.97402 11.0954C7.90002 10.0214 7.79802 8.31142 8.73802 7.11842L9.26302 6.45142L6.39402 3.56442Z" fill="#000000"/>
</svg>
