<svg xmlns="http://www.w3.org/2000/svg" width="24" height="24" viewBox="0 0 24 24" fill="none"><rect width="24" height="24" fill="none"/>
<path fill-rule="evenodd" clip-rule="evenodd" d="M22 12C22 17.5228 17.5228 22 12 22C6.47715 22 2 17.5228 2 12C2 6.47715 6.47715 2 12 2C17.5228 2 22 6.47715 22 12ZM11 12V6H13V12H11ZM9 6.80267C7.2066 7.8401 6 9.77913 6 12C6 15.3137 8.68629 18 12 18C15.3137 18 18 15.3137 18 12C18 9.77913 16.7934 7.8401 15 6.80267V9.35416C15.6224 10.0593 16 10.9855 16 12C16 14.2091 14.2091 16 12 16C9.79086 16 8 14.2091 8 12C8 10.9855 8.37764 10.0593 9 9.35416V6.80267Z" fill="#000000"/>
</svg>
