<svg xmlns="http://www.w3.org/2000/svg" width="24" height="24" viewBox="0 0 24 24" fill="none"><rect width="24" height="24" fill="none"/>
<path d="M5.7 9.14286H7.80565L10.8378 7.14082C11.3243 6.78676 12 7.14109 12 7.75024V16.2498C12 16.8589 11.3243 17.2132 10.8378 16.8592L7.80565 14.8571H5.7C5.3134 14.8571 5 14.5373 5 14.1429V9.85714C5 9.46265 5.3134 9.14286 5.7 9.14286Z" fill="#000000"/>
<path d="M18.0081 14.8567L16.2002 13.012L14.3919 14.8571L13.4 13.8451L15.2084 12L13.4 10.1549L14.3919 9.14286L16.2002 10.988L18.0081 9.14332L19 10.1553L17.1921 12L19 13.8447L18.0081 14.8567Z" fill="#000000"/>
</svg>
