<svg xmlns="http://www.w3.org/2000/svg" width="24" height="24" viewBox="0 0 24 24" fill="none"><rect width="24" height="24" fill="none"/>
<path d="M8.34187 13.0869H9.65857L9.0705 10.7832H8.9299L8.34187 13.0869Z" fill="black"/>
<path fill-rule="evenodd" clip-rule="evenodd" d="M4.04146 5.80678L1 20H23L19.9585 5.80679C19.7327 4.75292 18.8014 4 17.7236 4L6.27643 4C5.19863 4 4.26729 4.75291 4.04146 5.80678ZM16.4982 10.7568H18.4998V15.9986H16.547V15.1173H16.4494C16.2004 15.7639 15.8259 16.1327 15.0009 16.1327C13.8585 16.1327 13.0254 15.3759 13.0254 14.1401V10.7568H14.9999V13.6563C14.9999 14.2215 15.3204 14.5425 15.7891 14.5425C16.2773 14.5425 16.4982 14.1928 16.4982 13.6563V10.7568ZM5.50049 16L7.71627 9H10.2841L12.5 16H10.4022L10.0303 14.543H7.9702L7.59829 16H5.50049Z" fill="black"/>
</svg>
