<svg fill="none" height="24" viewBox="0 0 24 24" width="24" xmlns="http://www.w3.org/2000/svg" xmlns:xlink="http://www.w3.org/1999/xlink"><clipPath id="a"><path d="m0 0h24v24h-24z"/></clipPath><g clip-path="url(#a)" fill="#000"><path d="m2 19.8311.01172.2216c.01085.1068.03087.2109.05664.3125.22139.8729.97045 1.5349 1.88867 1.6241.06974.0067.1404.0107.21192.0107h6.43655v2h-6.43655l-.21485-.0059c-.0665-.0033-.13259-.0081-.19824-.0146l-.00098-.001c-.10778-.0106-.21412-.0262-.31933-.0449-.03068-.0055-.06136-.0105-.0918-.0166-.03501-.007-.06981-.0146-.10449-.0225-.02444-.0055-.04897-.0106-.07324-.0166-.03973-.0098-.0789-.0213-.11817-.0322-.03102-.0086-.06205-.017-.09277-.0264-.02713-.0082-.05417-.0166-.08106-.0254-.03273-.0106-.06528-.0217-.09765-.0332-.03179-.0112-.0633-.0231-.09473-.0351-.03484-.0133-.06914-.0278-.10352-.042-.02618-.0108-.05221-.0219-.07812-.0332-.0254-.0111-.05104-.0216-.07617-.0332-.04382-.0202-.0869-.0418-.12988-.0635-.00911-.0046-.01829-.009-.02735-.0137-.045-.0231-.08975-.0465-.13379-.0712-.01998-.0113-.0398-.0227-.05957-.0342-.03157-.0184-.06271-.0375-.09375-.0567-.02205-.0136-.04365-.0279-.06543-.042-.0898-.0579-.1778-.1181-.26269-.1826-.01588-.012-.03118-.0248-.04688-.0371-.0831-.065-.16431-.1322-.24219-.2031-.01787-.0163-.03514-.0332-.05273-.0498-.05896-.0556-.11623-.1129-.17187-.1719-.05952-.063-.11733-.1277-.172856-.1943-.112005-.1345-.215933-.2759-.310547-.4239-.008901-.0139-.017628-.0279-.026367-.042-.026452-.0424-.052201-.0854-.077149-.1289-.006167-.0107-.012481-.0214-.018554-.0322-.056362-.1003-.108166-.2034-.15625-.3086-.007265-.0159-.014415-.0318-.021485-.0478-.015136-.0343-.029712-.0688-.043945-.1035-.011952-.0292-.023851-.0584-.035156-.0879-.014137-.0369-.027906-.074-.041016-.1114-.010005-.0285-.019899-.0571-.029297-.0859-.008773-.0269-.017152-.0539-.02539-.0811-.013241-.0436-.025273-.0876-.03711-.1318-.005063-.0189-.010822-.0376-.015625-.0566-.015083-.0597-.028539-.12-.0410155-.1807-.0013369-.0065-.0025997-.013-.0039063-.0195-.0061057-.0305-.0111627-.0611-.0166015-.0918-.0421787-.2379-.06542962-.4825-.0654297-.7324v-6.4991h2z"/><path d="m24 19.8311c0 .25-.0242.4945-.0664.7324-.0054.0307-.0105.0613-.0166.0918-.0013.0064-.0016.0131-.0029.0195-.0125.0608-.0269.1209-.042.1807-.0048.019-.0106.0377-.0157.0566-.0118.0441-.0229.0883-.0361.1318-.0083.0273-.0175.0541-.0264.0811-.0093.0287-.0183.0575-.0283.0859-.0131.0375-.0278.0744-.042.1114-.0113.0295-.0232.0587-.0351.0879-.0143.0347-.0288.0692-.044.1035-.007.0159-.0133.032-.0205.0478-.0481.1054-.1008.2082-.1572.3086-.006.0107-.0115.0216-.0176.0322-.025.0437-.0516.0863-.0781.1289-.0087.0141-.0175.0281-.0264.042-.0946.148-.1985.2894-.3105.4239-.0556.0666-.1133.1313-.1729.1943-.0556.059-.1129.1163-.1718.1719-.0176.0166-.0349.0335-.0528.0498-.0779.0709-.159.1381-.2422.2031-.0157.0123-.031.0251-.0468.0371-.085.0644-.1729.1247-.2627.1826-.0218.0141-.0434.0284-.0655.042-.031.0192-.0621.0383-.0937.0567-.0198.0115-.0396.0229-.0596.0342-.044.0246-.0888.0481-.1338.0712-.009.0047-.0182.0091-.0273.0137-.043.0217-.0861.0433-.1299.0635-.0251.0116-.0508.0221-.0762.0332-.0259.0113-.0519.0224-.0781.0332-.0344.0142-.0687.0287-.1035.042-.0315.012-.0629.0239-.0947.0351-.0324.0115-.065.0226-.0977.0332-.0269.0088-.0539.0172-.0811.0254-.0307.0094-.0617.0178-.0927.0264-.0393.0109-.0785.0224-.1182.0322-.0243.006-.0488.0111-.0732.0166-.0347.0079-.0695.0155-.1045.0225-.0305.0061-.0611.0112-.0918.0166-.1052.0187-.2116.0343-.3194.0449-.0656.0065-.1317.0123-.1982.0156l-.2148.0059h-6.4366v-2h6.4366c.0711 0 .1415-.004.2109-.0107.9186-.0888 1.6671-.751 1.8887-1.6241.0258-.1017.0467-.2056.0576-.3125l.0117-.2216v-6.4991h2z"/><path clip-rule="evenodd" d="m12 5c3.866 0 7 3.13401 7 7 0 3.866-3.134 7-7 7-3.86599 0-7-3.134-7-7 0-3.86599 3.13401-7 7-7zm0 2c-2.76142 0-5 2.23858-5 5 0 2.7614 2.23858 5 5 5 2.7614 0 5-2.2386 5-5 0-2.76142-2.2386-5-5-5z" fill-rule="evenodd"/><path d="m10.6055 2h-6.43655c-1.19761 0-2.16895.97134-2.16895 2.16895v6.49905h-2v-6.49905c.00000052-2.30218 1.86677-4.16895 4.16895-4.16895h6.43655z"/><path d="m19.8311 0c2.3021.0000001 4.1689 1.86677 4.1689 4.16895v6.49905h-2v-6.49905c0-1.19761-.9713-2.16895-2.1689-2.16895h-6.4366v-2z"/></g></svg>