<svg xmlns="http://www.w3.org/2000/svg" width="24" height="24" viewBox="0 0 24 24" fill="none"><rect width="24" height="24" fill="none"/>
<path d="M13 4C13.5523 4 14 4.44772 14 5V16H20.999C21.5513 16 21.999 16.4477 21.999 17V17.1631C21.999 17.5769 21.7467 17.9471 21.3555 18.082C19.7994 18.6182 15.6919 19.9004 12.0166 19.9004C8.34015 19.9004 4.21032 18.6169 2.64648 18.0811C2.2543 17.9467 2.00015 17.5767 2 17.1621V17C2 16.4477 2.44772 16 3 16H10V5C10 4.44772 10.4477 4 11 4H13ZM7.31641 6.38672C7.62646 6.19219 8 6.42185 8 6.78809V14.5C8 14.7761 7.77614 15 7.5 15H3.47754C3.21423 14.9999 2.9982 14.7965 3 14.5332C3.00649 13.6121 3.14359 11.4886 4.16113 9.62891C5.06139 7.98361 6.47912 6.9135 7.31641 6.38672ZM16 6.81738C16 6.44372 16.3864 6.21701 16.6943 6.42871C17.4654 6.95892 18.7299 7.99081 19.7021 9.58008C20.8432 11.4454 20.9936 13.5766 21 14.4932C21.0017 14.753 20.7892 14.9535 20.5293 14.9561L16.5049 14.9951C16.2268 14.9978 16 14.7732 16 14.4951V6.81738Z" fill="#000000"/>
</svg>
