<svg xmlns="http://www.w3.org/2000/svg" width="24" height="24" viewBox="0 0 24 24" fill="none"><rect width="24" height="24" fill="none"/>
<path d="M15.4904 3.47138L17.4041 2.51465C17.4084 2.52172 17.4127 2.52885 17.4169 2.53605C19.0819 5.4135 19.9585 8.67757 19.9585 12.0002C19.9585 15.3228 19.0819 18.5868 17.4169 21.4643C17.4137 21.4697 17.4105 21.4751 17.4073 21.4805L15.4927 20.5234C15.5108 20.4791 15.5322 20.4355 15.5569 20.3929C17.0335 17.8412 17.8108 14.9466 17.8108 12.0002C17.8108 9.05371 17.0335 6.15916 15.5569 3.60746C15.5312 3.56306 15.5091 3.51759 15.4904 3.47138Z" fill="#000000"/>
<path d="M11.5543 5.43908L13.4686 4.48209C13.4723 4.48811 13.4759 4.49418 13.4794 4.5003C14.7989 6.78055 15.4936 9.36716 15.4936 12.0002C15.4936 14.6332 14.7989 17.2198 13.4794 19.5C13.4769 19.5044 13.4743 19.5088 13.4717 19.5131L11.5566 18.5557C11.5745 18.5126 11.5954 18.4701 11.6195 18.4286C12.7505 16.4741 13.3459 14.257 13.3459 12.0002C13.3459 9.74331 12.7505 7.52621 11.6195 5.57171C11.5944 5.52842 11.5727 5.48411 11.5543 5.43908Z" fill="#000000"/>
<path d="M7.82335 7.30428L9.74394 6.34413C10.7095 8.04493 11.2172 9.97001 11.2172 11.9287C11.2172 13.9013 10.7023 15.8398 9.72339 17.5494C9.70991 17.5729 9.69567 17.5958 9.68073 17.6179L7.77652 16.6659C7.79791 16.6048 7.82518 16.5447 7.85854 16.4865C8.65155 15.1015 9.06948 13.5295 9.06948 11.9287C9.06948 10.328 8.65155 8.756 7.85854 7.371C7.84594 7.349 7.83422 7.32675 7.82335 7.30428Z" fill="#000000"/>
<path d="M4.04004 9.19563L5.95627 8.23766C6.69082 9.36423 7.08334 10.6667 7.08334 12.0002C7.08334 13.3316 6.69199 14.6322 5.95957 15.7576L4.04237 14.7992C4.06781 14.739 4.09915 14.6802 4.13656 14.6238C4.66108 13.8317 4.93564 12.9229 4.93564 12.0002C4.93564 11.0775 4.66108 10.1686 4.13656 9.37658C4.098 9.31836 4.06589 9.25776 4.04004 9.19563Z" fill="#000000"/>
</svg>
