<svg xmlns="http://www.w3.org/2000/svg" width="16" height="16" viewBox="0 0 16 16" fill="none"><rect width="16" height="16" fill="none"/>
<path d="M9.5329 4.86386L10.9337 3.46299C11.5893 2.8074 12.416 2.34924 13.3194 2.14077C13.6432 2.06603 13.9334 2.35625 13.8587 2.68009C13.6502 3.58348 13.1921 4.41011 12.5365 5.0657L11.1356 6.46657L12.2771 12.7449C12.4198 13.5294 11.6984 13.7639 11.106 13.9565C11.0616 13.9709 11.0179 13.9852 10.9753 13.9993L8.25067 9.35147L6.48767 11.1145L6.58385 12.5575C6.62224 13.1333 6.29305 13.6706 5.76265 13.8979L5.52602 13.9993L4.22626 11.7732L2 10.4734L2.10143 10.2368C2.32874 9.70637 2.86607 9.37717 3.44187 9.41557L4.88493 9.51167L6.64793 7.74874L2 5.02413C2.01419 4.98157 2.0284 4.93786 2.04285 4.89342C2.23546 4.30101 2.46998 3.57969 3.25446 3.72236L9.5329 4.86386Z" fill="#000000"/>
</svg>
