<svg xmlns="http://www.w3.org/2000/svg" width="48" height="48" viewBox="0 0 48 48" fill="none"><rect width="48" height="48" fill="none"/>
<path d="M37.9141 35.0859L35.0859 37.9141L33.8115 36.6396L11.3604 14.1885L9.58594 12.4141L12.4141 9.58594L14.1885 11.3604L36.6396 33.8115L37.9141 35.0859Z" fill="#000000"/>
<path fill-rule="evenodd" clip-rule="evenodd" d="M4 24C4 35.0457 12.9543 44 24 44C35.0457 44 44 35.0457 44 24C44 12.9543 35.0457 4 24 4C12.9543 4 4 12.9543 4 24ZM40 24C40 15.1634 32.8366 8 24 8C20.3025 8 16.8979 9.25422 14.1885 11.3604L12.4141 9.58594L9.58594 12.4141L11.3604 14.1885C9.25422 16.8979 8 20.3025 8 24C8 32.8366 15.1634 40 24 40C27.6975 40 31.1021 38.7458 33.8115 36.6396L35.0859 37.9141L37.9141 35.0859L36.6396 33.8115C38.7458 31.1021 40 27.6975 40 24Z" fill="#000000"/>
</svg>
