<svg xmlns="http://www.w3.org/2000/svg" width="16" height="16" viewBox="0 0 16 16" fill="none"><rect width="16" height="16" fill="none"/>
<path d="M4 10V8H6V10H4Z" fill="#000000"/>
<path d="M7 8H9V10H7V8Z" fill="#000000"/>
<path d="M12 10V8H10V10H12Z" fill="#000000"/>
<path d="M7 11H9V13H7V11Z" fill="#000000"/>
<path d="M6 13V11H4V13H6Z" fill="#000000"/>
<path d="M5 0H3V2H1V13.25C1 14.7688 2.23122 16 3.75 16H12.25C13.7688 16 15 14.7688 15 13.25V2H13V0H11V2H5V0ZM2.5 6H13.5V13.25C13.5 13.9404 12.9404 14.5 12.25 14.5H3.75C3.05964 14.5 2.5 13.9404 2.5 13.25V6Z" fill="#000000"/>
</svg>
