<svg xmlns="http://www.w3.org/2000/svg" width="16" height="16" viewBox="0 0 16 16" fill="none"><rect width="16" height="16" fill="none"/>
<g clip-path="url(#clip0_143476_8261)">
<path d="M13 0C14.6569 0 16 1.34315 16 3V9C16 10.6569 14.6569 12 13 12H9V14H11C11.5523 14 12 14.4477 12 15V16H4V15C4 14.4477 4.44772 14 5 14H7V12H3C1.34315 12 1.61064e-08 10.6569 0 9V3C0 1.34315 1.34315 4.83192e-08 3 0H13ZM3 2C2.44772 2 2 2.44772 2 3V9C2 9.55228 2.44772 10 3 10H13C13.5523 10 14 9.55228 14 9V3C14 2.44772 13.5523 2 13 2H3Z" fill="#000000"/>
</g>
<defs>
<clipPath id="clip0_143476_8261">
<rect width="16" height="16" fill="white"/>
</clipPath>
</defs>
</svg>
