<svg xmlns="http://www.w3.org/2000/svg" width="16" height="16" viewBox="0 0 16 16" fill="none"><rect width="16" height="16" fill="none"/>
<path d="M12.6663 5.66667C12.6663 6.6823 12.3419 7.62216 11.791 8.38824C11.5463 8.78592 11.3049 9.13091 11.0824 9.44891C10.6951 10.0025 10.3649 10.4743 10.1743 11H5.82399C5.63313 10.4764 5.30321 10.0062 4.91674 9.45537C4.68108 9.1195 4.42439 8.75366 4.16538 8.32746C3.64062 7.57268 3.33301 6.6556 3.33301 5.66667C3.33301 3.08934 5.42235 1 7.99967 1C10.577 1 12.6663 3.08934 12.6663 5.66667Z" fill="#000000"/>
<path d="M5.99967 12.3333V13.6667L7.33301 15H8.66634L9.99967 13.6667V12.3333H5.99967Z" fill="#000000"/>
</svg>
