<svg xmlns="http://www.w3.org/2000/svg" width="24" height="24" viewBox="0 0 24 24" fill="none"><rect width="24" height="24" fill="none"/>
<path fill-rule="evenodd" clip-rule="evenodd" d="M5 1.03906C3.34315 1.03906 2 2.38221 2 4.03906V12.0368C2 13.6937 3.34314 15.0368 5 15.0368H8.00131V13.0368H5C4.44772 13.0368 4 12.5891 4 12.0368V4.03906C4 3.48678 4.44772 3.03906 5 3.03906H18.0044C18.5567 3.03906 19.0044 3.48678 19.0044 4.03906V6.03791H12V8.03791H19.0044V12.0368C19.0044 12.5891 18.5567 13.0368 18.0044 13.0368H13.0183L8.39349 5.63868C7.60682 6.59178 7.21752 8.12219 7.89026 9.24182L12.6814 16.8062L12.3127 17.4191C11.675 16.5595 10.6526 16.0024 9.5 16.0024C7.567 16.0024 6 17.5694 6 19.5024C6 21.4354 7.567 23.0024 9.5 23.0024C10.8992 23.0024 12.1066 22.1814 12.6667 20.9949L12.6695 20.997L13.9859 18.8659L15.3355 20.9966C15.8967 22.1805 17.1027 22.9994 18.5 22.9994C20.433 22.9994 22 21.4323 22 19.4994C22 17.5664 20.433 15.9994 18.5 15.9994C17.3698 15.9994 16.3647 16.535 15.7248 17.3663L15.3161 16.7125L16.3512 15.0368H18.0044C19.6613 15.0368 21.0044 13.6937 21.0044 12.0368V4.03906C21.0044 2.38221 19.6613 1.03906 18.0044 1.03906H5ZM9.5 21.0024C8.67157 21.0024 8 20.3308 8 19.5024C8 18.674 8.67157 18.0024 9.5 18.0024C10.3284 18.0024 11 18.674 11 19.5024C11 20.3308 10.3284 21.0024 9.5 21.0024ZM20 19.4994C20 20.3278 19.3284 20.9994 18.5 20.9994C17.6716 20.9994 17 20.3278 17 19.4994C17 18.6709 17.6716 17.9994 18.5 17.9994C19.3284 17.9994 20 18.6709 20 19.4994Z" fill="#000000"/>
</svg>
