<svg xmlns="http://www.w3.org/2000/svg" width="24" height="24" viewBox="0 0 24 24" fill="none"><rect width="24" height="24" fill="none"/>
<path d="M5.99998 2H7.99998V4H16V2H18V4H21L21 13.8027C20.3926 13.4513 19.7179 13.2034 19 13.083V9H5L5.00001 20C5.00001 20.5523 5.4477 21 6.00002 21H12.3414C12.6048 21.7452 13.0113 22.4229 13.5278 23H6.00002C4.34318 23 3 21.6569 3.00001 20L3 4H5.99998V2Z" fill="#000000"/>
<path d="M8.99998 12V14H6.99998V12H8.99998Z" fill="#000000"/>
<path d="M8.99998 18V16H6.99998V18H8.99998Z" fill="#000000"/>
<path d="M13 12H11V14H13V12Z" fill="#000000"/>
<path d="M14 19C14 16.7909 15.7909 15 18 15C18.0423 15 18.0844 15.0007 18.1263 15.002C18.2694 15.0064 18.3992 15.087 18.4667 15.2132C18.5342 15.3395 18.529 15.4922 18.4532 15.6136C18.166 16.0736 18 16.6168 18 17.2C18 18.8569 19.3431 20.2 21 20.2C21.0683 20.2 21.1359 20.1977 21.203 20.1933C21.3457 20.1837 21.4826 20.2512 21.5621 20.3701C21.6083 20.4392 21.631 20.5196 21.6295 20.6C21.6284 20.6579 21.6147 20.7158 21.5882 20.7695C20.9358 22.0902 19.5745 23 18 23C15.7909 23 14 21.2091 14 19Z" fill="#000000"/>
</svg>
