<svg xmlns="http://www.w3.org/2000/svg" width="24" height="24" viewBox="0 0 24 24" fill="none"><rect width="24" height="24" fill="none"/>
<path fill-rule="evenodd" clip-rule="evenodd" d="M19.0711 4.9289C22.9763 8.83411 22.9763 15.1657 19.0711 19.0709C15.1659 22.9761 8.8343 22.9761 4.9291 19.0709C1.02389 15.1657 1.02389 8.83411 4.9291 4.9289C8.8343 1.0237 15.1659 1.0237 19.0711 4.9289ZM9 10.7999H12.3C14.4 10.7999 16.5 11.6999 18 13.1999L18.9 14.0999L17.5 15.4999L16.6 14.5999C15.4 13.3999 13.9 12.7999 12.3 12.7999H9L11.9 15.7999L10.5 17.1999L5.3 11.7999L10.5 6.49991L11.9 7.89991L9 10.7999Z" fill="#000000"/>
</svg>
