<svg xmlns="http://www.w3.org/2000/svg" width="24" height="24" viewBox="0 0 24 24" fill="none"><rect width="24" height="24" fill="none"/>
<path fill-rule="evenodd" clip-rule="evenodd" d="M17 14.0004C19.2091 14.0004 21 15.7913 21 18.0004C20.9999 20.2094 19.2091 22.0004 17 22.0004C14.8518 22.0004 13.099 20.3068 13.0039 18.182C12.6908 18.0818 12.3294 18.0004 12 18.0004C11.6703 18.0004 11.3084 18.0817 10.9951 18.182C10.9 20.3067 9.14817 22.0004 7 22.0004C4.79094 22.0004 3.00014 20.2094 3 18.0004C3 15.7913 4.79086 14.0004 7 14.0004C8.56893 14.0004 9.92575 14.9043 10.5811 16.2192C10.9777 16.1051 11.477 16.0004 12 16.0004C12.5226 16.0004 13.0215 16.1052 13.418 16.2192C14.0732 14.904 15.4309 14.0004 17 14.0004ZM7 16.0004C5.89543 16.0004 5 16.8958 5 18.0004C5.00014 19.1049 5.89551 20.0004 7 20.0004C8.10449 20.0004 8.99986 19.1049 9 18.0004C9 16.8958 8.10457 16.0004 7 16.0004ZM17 16.0004C15.8954 16.0004 15 16.8958 15 18.0004C15.0001 19.1049 15.8955 20.0004 17 20.0004C18.1045 20.0004 18.9999 19.1049 19 18.0004C19 16.8958 18.1046 16.0004 17 16.0004Z" fill="#000000"/>
<path d="M22 13.0014H2V11.0014H22V13.0014Z" fill="#000000"/>
<path d="M13.502 2.35685C14.5774 1.89596 15.8174 2.45203 16.1875 3.56193L18 9.0004H6L7.8125 3.56193C8.1826 2.45203 9.42264 1.89596 10.498 2.35685L11.6064 2.83146C11.8578 2.93906 12.1422 2.93906 12.3936 2.83146L13.502 2.35685Z" fill="#000000"/>
</svg>
