<svg xmlns="http://www.w3.org/2000/svg" width="48" height="48" viewBox="0 0 48 48" fill="none"><rect width="48" height="48" fill="none"/>
<path fill-rule="evenodd" clip-rule="evenodd" d="M35.748 16C34.8599 19.4505 31.7277 22 28 22C24.2723 22 21.1401 19.4505 20.252 16H8V12H20.252C21.1401 8.54955 24.2723 6 28 6C31.7279 6 34.8603 8.54988 35.7481 12.0007L40 12V16H35.748ZM32 14C32 16.2091 30.2091 18 28 18C25.7909 18 24 16.2091 24 14C24 11.7909 25.7909 10 28 10C30.2091 10 32 11.7909 32 14Z" fill="#000000"/>
<path fill-rule="evenodd" clip-rule="evenodd" d="M27.748 32H40V36H27.748C26.8599 39.4505 23.7277 42 20 42C16.2723 42 13.1401 39.4505 12.252 36H8V32H12.252C13.1401 28.5495 16.2723 26 20 26C23.7277 26 26.8599 28.5495 27.748 32ZM24 34C24 36.2091 22.2091 38 20 38C17.7909 38 16 36.2091 16 34C16 31.7909 17.7909 30 20 30C22.2091 30 24 31.7909 24 34Z" fill="#000000"/>
</svg>
