<svg xmlns="http://www.w3.org/2000/svg" width="16" height="16" viewBox="0 0 16 16" fill="none"><rect width="16" height="16" fill="none"/>
<path d="M2.75 0C2.33579 0 2 0.358176 2 0.8V15.2C2 15.6418 2.33579 16 2.75 16H13.25C13.6642 16 14 15.6418 14 15.2V6.25197C14 4.83208 12.8506 3.7226 11.5261 3.86388L10.4324 3.98054C10.3381 3.9906 10.2588 3.90601 10.2682 3.80542L10.3776 2.63881C10.5101 1.22596 9.46992 0 8.13875 0H2.75ZM6.16182 2.29122C6.14308 2.36359 6.14101 2.44 6.1586 2.5127L6.80859 5.19825C6.85189 5.34259 6.875 5.49596 6.875 5.65493C6.875 6.50824 6.20343 7.2 5.375 7.2C4.54657 7.2 3.875 6.50824 3.875 5.65493C3.875 5.49596 3.89831 5.34259 3.9416 5.19825L4.59413 2.53029C4.61458 2.44665 4.60933 2.3586 4.58592 2.27586C4.52056 2.04484 4.42411 1.61918 4.35081 1.28415C4.29648 1.03585 4.47385 0.8 4.7129 0.8L6.06279 0.800001C6.28669 0.800001 6.4525 1.02151 6.4014 1.25403C6.32628 1.59589 6.22527 2.04614 6.16182 2.29122ZM5.375 4.84826C5.78921 4.84826 6.125 5.22864 6.125 5.65529C6.125 6.08195 5.78921 6.41165 5.375 6.41165C4.96079 6.41165 4.625 6.08195 4.625 5.65529C4.625 5.22864 4.96079 4.84826 5.375 4.84826ZM4.91815 9.6C4.74608 9.6 4.59608 9.47508 4.55435 9.29702L4.36685 8.49701C4.30768 8.24456 4.48669 8 4.73065 8L6.02007 8C6.26404 8 6.44304 8.24456 6.38387 8.49702L6.19637 9.29702C6.15464 9.47508 6.00465 9.6 5.83257 9.6L4.91815 9.6ZM4.91815 12C4.74608 12 4.59608 11.8751 4.55435 11.697L4.36685 10.897C4.30768 10.6446 4.48669 10.4 4.73065 10.4L6.02007 10.4C6.26404 10.4 6.44304 10.6446 6.38387 10.897L6.19637 11.697C6.15464 11.8751 6.00465 12 5.83257 12H4.91815ZM4.91815 14.4C4.74608 14.4 4.59608 14.2751 4.55435 14.097L4.36685 13.297C4.30768 13.0446 4.48669 12.8 4.73065 12.8H6.02007C6.26404 12.8 6.44304 13.0446 6.38387 13.297L6.19637 14.097C6.15464 14.2751 6.00465 14.4 5.83257 14.4H4.91815Z" fill="#000000"/>
</svg>
