<svg xmlns="http://www.w3.org/2000/svg" width="24" height="24" viewBox="0 0 24 24" fill="none"><rect width="24" height="24" fill="none"/>
<path d="M4.94753 11.0697L3.65071 12.3673C1.44846 14.5709 1.44846 18.1437 3.65071 20.3473C5.85296 22.5509 9.42352 22.5509 11.6257 20.3473L14.3997 17.5716C16.6019 15.368 16.6019 11.7953 14.3997 9.59176C14.2246 9.41662 14.041 9.25539 13.85 9.10808L12.09 10.8691C12.2947 10.9962 12.4882 11.1486 12.666 11.3265C13.9107 12.572 13.9107 14.5914 12.666 15.8369L9.89207 18.6125C8.64731 19.858 6.62917 19.858 5.38442 18.6125C4.13967 17.367 4.13967 15.3476 5.38442 14.1021L6.68124 12.8045L4.94753 11.0697Z" fill="#000000"/>
<path d="M20.3473 3.65269C18.145 1.4491 14.5745 1.4491 12.3722 3.65269L9.59833 6.42831C7.39607 8.63191 7.39607 12.2046 9.59833 14.4082C9.74696 14.5569 9.90183 14.6956 10.0621 14.8242L11.8147 13.0706C11.6443 12.9564 11.4825 12.824 11.332 12.6734C10.0873 11.4279 10.0873 9.40859 11.332 8.16308L14.1059 5.38745C15.3507 4.14195 17.3688 4.14195 18.6136 5.38745C19.8583 6.63296 19.8583 8.65233 18.6136 9.89784L17.3718 11.1403L19.1055 12.8751L20.3473 11.6326C22.5496 9.42901 22.5496 5.85628 20.3473 3.65269Z" fill="#000000"/>
</svg>
