<svg xmlns="http://www.w3.org/2000/svg" width="48" height="48" viewBox="0 0 48 48" fill="none"><rect width="48" height="48" fill="none"/>
<path d="M44 24C44 35.0457 35.0457 44 24 44C12.9543 44 4 35.0457 4 24C4 12.9543 12.9543 4 24 4C30.2359 4 35.8052 6.85392 39.4731 11.3269L36.6273 14.1727L36.6248 14.1695L32.6179 18.1764L32.6202 18.1798L29.7045 21.0955L29.7026 21.0917L26.8 23.9943L26.8 24L26.7982 24.0017L26.8 24.0035C26.7981 25.5483 25.5452 26.8 24 26.8C22.4536 26.8 21.2 25.5464 21.2 24C21.2 22.4748 22.4195 21.2344 23.9367 21.2007L26.8629 18.2745C26.0015 17.8429 25.0291 17.6 24 17.6C20.4654 17.6 17.6 20.4654 17.6 24C17.6 27.5346 20.4654 30.4 24 30.4C26.604 30.4 28.8448 28.8448 29.8442 26.6126L34.2466 22.2102C34.3474 22.7917 34.4 23.3897 34.4 24C34.4 29.7438 29.7438 34.4 24 34.4C18.2562 34.4 13.6 29.7438 13.6 24C13.6 18.2562 18.2562 13.6 24 13.6C26.1401 13.6 28.1292 14.2464 29.7828 15.3546L33.7921 11.3454C31.0858 9.24824 27.6887 8 24 8C15.1634 8 8 15.1634 8 24C8 32.8366 15.1634 40 24 40C32.8366 40 40 32.8366 40 24C40 21.7752 39.5459 19.6565 38.7254 17.7314L41.7266 14.7302C43.1787 17.5012 44 20.6547 44 24Z" fill="#000000"/>
</svg>
