<svg xmlns="http://www.w3.org/2000/svg" width="24" height="24" viewBox="0 0 24 24" fill="none"><rect width="24" height="24" fill="none"/>
<path d="M7.67123 2.16732C7.8334 1.98673 8.102 1.94809 8.30795 2.0765L8.86654 2.42513C9.16573 2.61189 9.18772 3.04667 8.92123 3.27767C8.11538 3.97572 6.71216 5.36054 6.47103 6.71517C6.12932 8.63519 8.12239 10.0748 9.31869 10.015C10.3244 9.96453 12.0147 8.1756 12.5277 7.60677C12.6253 7.49854 12.7638 7.43493 12.9095 7.4349H14.2884C14.4254 7.43498 14.5564 7.49178 14.6507 7.59115L21.054 14.3353C21.5098 15.4154 20.6553 16.684 18.3197 19.1966C16.1777 21.5007 12.9075 22.6761 11.8822 21.596C12.8504 19.196 12.3179 18.1313 9.31869 14.8685C6.23994 11.5191 4.7846 11.0392 3.50228 11.349C3.22882 11.4149 2.93676 11.2835 2.84408 11.0179L2.06771 8.79427C2.00769 8.62226 2.04566 8.43084 2.16732 8.29525L7.67123 2.16732ZM3.50912 12.6546C4.36364 12.3547 6.30855 13.8036 8.06674 15.6556C9.94631 17.6355 11.1421 19.3753 10.9144 20.4554C10.9144 20.4554 10.855 20.8786 10.5726 21.1761C10.2901 21.4735 9.83178 21.7761 9.20541 21.7161C8.57835 21.6556 6.03792 19.6037 4.76205 18.3558C3.48601 17.1077 1.5726 14.815 2.08529 13.9749C2.30705 13.5839 2.36999 13.2546 3.50912 12.6546ZM15.7884 2.28158C15.9885 2.08132 16.3151 2.08719 16.5081 2.29427L21.8656 8.0433C22.0486 8.23971 22.0438 8.54605 21.8548 8.73666L19.9954 10.6087C19.7959 10.8095 19.4694 10.8045 19.2757 10.598L15.3119 6.37142C15.1228 6.16992 14.8587 6.05599 14.5824 6.05599H12.6058C12.3267 6.05599 12.0598 6.17217 11.8704 6.37728L10.1742 8.21615C10.1719 8.21863 9.14764 9.35426 8.12338 8.33529C7.10702 7.32417 8.21702 5.95983 8.23666 5.93587L10.7767 3.37435C10.8652 3.28505 10.9841 3.2324 11.1097 3.22689L15.016 3.05502L15.7884 2.28158Z" fill="#000000"/>
</svg>
