<svg xmlns="http://www.w3.org/2000/svg" width="48" height="48" viewBox="0 0 48 48" fill="none"><rect width="48" height="48" fill="none"/>
<path d="M22.126 7.00948C22.7739 5.27679 25.2247 5.27679 25.8726 7.00948L29.4606 16.6049C29.7416 17.3566 30.4448 17.8675 31.2466 17.9025L41.4811 18.3497C43.3292 18.4304 44.0865 20.7613 42.6388 21.913L34.6218 28.2904C33.9938 28.79 33.7252 29.6167 33.9396 30.39L36.6769 40.2618C37.1712 42.0444 35.1885 43.485 33.6459 42.464L25.1031 36.8101C24.4339 36.3672 23.5647 36.3672 22.8955 36.8101L14.3527 42.464C12.8101 43.485 10.8273 42.0444 11.3216 40.2618L14.059 30.39C14.2734 29.6167 14.0048 28.79 13.3768 28.2904L5.35974 21.913C3.91206 20.7613 4.66941 18.4304 6.51751 18.3497L16.752 17.9025C17.5538 17.8675 18.2569 17.3566 18.538 16.6049L22.126 7.00948Z" fill="#000000"/>
</svg>
