<svg xmlns="http://www.w3.org/2000/svg" width="24" height="24" viewBox="0 0 24 24" fill="none"><rect width="24" height="24" fill="none"/>
<path d="M6 11C8.20914 11 10 9.20914 10 7C10 4.79086 8.20914 3 6 3C3.79086 3 2 4.79086 2 7C2 9.20914 3.79086 11 6 11Z" fill="#000000"/>
<path d="M6 21C8.20914 21 10 19.2091 10 17C10 14.7909 8.20914 13 6 13C3.79086 13 2 14.7909 2 17C2 19.2091 3.79086 21 6 21Z" fill="#000000"/>
<path d="M12 5H22V9H12V5Z" fill="#000000"/>
<path d="M22 15H12V19H22V15Z" fill="#000000"/>
</svg>
