<svg xmlns="http://www.w3.org/2000/svg" width="24" height="24" viewBox="0 0 24 24" fill="none"><rect width="24" height="24" fill="none"/>
<path d="M9 14V12H7V14H9Z" fill="#000000"/>
<path d="M9 16V18H7V16H9Z" fill="#000000"/>
<path d="M13 12H11V14H13V12Z" fill="#000000"/>
<path d="M11 16H13V18H11V16Z" fill="#000000"/>
<path d="M17 14V12H15V14H17Z" fill="#000000"/>
<path d="M18 2H16V4H8V2H6V4H3V20C3 21.6569 4.34315 23 6 23H18C19.6569 23 21 21.6569 21 20V4H18V2ZM19 6V8H5V6H19ZM5 20V10H19V20C19 20.5523 18.5523 21 18 21H6C5.44772 21 5 20.5523 5 20Z" fill="#000000"/>
</svg>
