<svg xmlns="http://www.w3.org/2000/svg" width="16" height="16" viewBox="0 0 16 16" fill="none"><rect width="16" height="16" fill="none"/>
<path fill-rule="evenodd" clip-rule="evenodd" d="M2.00978 3.10156H4.00978V6.10156H5.00978V7.10156H2.00978V6.10156H3.00978V4.10156H2.00978V3.10156ZM6.49992 3.33594H13.9999V4.66406H7.00031H6.49992V3.33594ZM13.9999 7.33173V8.67218L6.49992 8.66767V7.33624L13.9999 7.33173ZM2.00978 10.3008C2.00978 9.47235 2.68135 8.80078 3.50978 8.80078H3.80267C4.46934 8.80078 5.00978 9.34122 5.00978 10.0079C5.00978 10.328 4.8826 10.6351 4.65623 10.8614L3.71689 11.8008H5.00978V12.8008H2.50978C2.30755 12.8008 2.12523 12.679 2.04784 12.4921C1.97045 12.3053 2.01323 12.0902 2.15623 11.9472L3.94912 10.1543C3.98796 10.1155 4.00978 10.0628 4.00978 10.0079C4.00978 9.89351 3.91706 9.80078 3.80267 9.80078H3.50978C3.23364 9.80078 3.00978 10.0246 3.00978 10.3008H2.00978ZM6.49992 11.3398H13.9999V12.6719H6.49992V11.3398Z" fill="#000000"/>
</svg>
