<svg xmlns="http://www.w3.org/2000/svg" width="48" height="48" viewBox="0 0 48 48" fill="none"><rect width="48" height="48" fill="none"/>
<path fill-rule="evenodd" clip-rule="evenodd" d="M14 14C14 12.6865 14.2587 11.3867 14.7612 10.1729C15.2637 8.95996 16.0004 7.85742 16.9289 6.92871C17.8575 6 18.9599 5.26367 20.1732 4.76074C21.3864 4.25879 22.6868 4 24 4C25.3132 4 26.6136 4.25879 27.8268 4.76074C29.0401 5.26367 30.1425 6 31.0711 6.92871C31.9997 7.85742 32.7362 8.95996 33.2388 10.1729C33.7413 11.3867 34 12.6865 34 14V22H38V40C38 42.209 36.2091 44 34 44H14C11.7909 44 10 42.209 10 40V22H14V14ZM30 14V22H18V14C18 13.2119 18.1552 12.4316 18.4567 11.7041C18.7583 10.9756 19.2002 10.3145 19.7574 9.75781C20.3145 9.2002 20.976 8.75781 21.7039 8.45703C22.4319 8.15527 23.2121 8 24 8C24.7879 8 25.5681 8.15527 26.2961 8.45703C27.024 8.75781 27.6855 9.2002 28.2426 9.75781C28.7998 10.3145 29.2418 10.9756 29.5433 11.7041C29.8448 12.4316 30 13.2119 30 14ZM24 37C26.2091 37 28 35.2091 28 33C28 30.7909 26.2091 29 24 29C21.7909 29 20 30.7909 20 33C20 35.2091 21.7909 37 24 37Z" fill="#000000"/>
</svg>
