<svg xmlns="http://www.w3.org/2000/svg" width="24" height="24" viewBox="0 0 24 24" fill="none"><rect width="24" height="24" fill="none"/>
<path d="M12 2C17.5228 2 22 6.47715 22 12C22 17.5228 17.5228 22 12 22C6.47715 22 2 17.5228 2 12C2 6.47715 6.47715 2 12 2ZM8.42871 6C7.63977 6 7.00007 6.67606 7 7.50977V17.168C7.0002 17.8587 7.75252 18.2473 8.26855 17.8232L9.14258 17.1045L9.91406 17.7383C10.3009 18.0559 10.8427 18.0561 11.2295 17.7383L12 17.1045L12.7705 17.7383C13.1573 18.0561 13.6991 18.0559 14.0859 17.7383L14.8564 17.1045L15.7314 17.8232C16.2475 18.2473 16.9998 17.8587 17 17.168V7.50977C16.9999 6.67606 16.3602 6 15.5713 6H8.42871ZM15.5713 7.50977V15.7783L14.8574 15.1924L13.4287 16.3652L12 15.1924L10.5713 16.3652L9.14258 15.1924L8.42871 15.7783V7.50977H15.5713ZM9.85742 12V13.5H12.7139V12H9.85742ZM9.85742 9.375V10.8896H14.1426V9.375H9.85742Z" fill="#000000"/>
</svg>
