<svg xmlns="http://www.w3.org/2000/svg" width="16" height="16" viewBox="0 0 16 16" fill="none"><rect width="16" height="16" fill="none"/>
<path d="M6.875 5.04688C6.875 4.42555 7.37868 3.92188 8 3.92188C8.62132 3.92188 9.125 4.42555 9.125 5.04688C9.125 5.6682 8.62132 6.17188 8 6.17188C7.37868 6.17188 6.875 5.6682 6.875 5.04688Z" fill="#000000"/>
<path d="M12.5 7.25V8.75L3.5 8.75V7.25L12.5 7.25Z" fill="#000000"/>
<path d="M8 9.82812C7.37868 9.82812 6.875 10.3318 6.875 10.9531C6.875 11.5744 7.37868 12.0781 8 12.0781C8.62132 12.0781 9.125 11.5744 9.125 10.9531C9.125 10.3318 8.62132 9.82812 8 9.82812Z" fill="#000000"/>
</svg>
