<svg xmlns="http://www.w3.org/2000/svg" width="16" height="16" viewBox="0 0 16 16" fill="none"><rect width="16" height="16" fill="none"/>
<path fill-rule="evenodd" clip-rule="evenodd" d="M7.8774 4.35882C6.79442 3.45634 6.25292 3.00509 5.7956 2.99819C5.39804 2.9922 5.0198 3.16936 4.76989 3.47861C4.48242 3.83435 4.48242 4.53922 4.48242 5.94895L4.48242 10.0471C4.48242 11.4569 4.48242 12.1617 4.76989 12.5175C5.0198 12.8267 5.39804 13.0039 5.7956 12.9979C6.25292 12.991 6.79442 12.5398 7.87741 11.6373L10.3363 9.58817C10.9916 9.0421 11.3193 8.76906 11.4387 8.44216C11.5436 8.15536 11.5436 7.84073 11.4387 7.55394C11.3193 7.22704 10.9916 6.954 10.3363 6.40792L7.8774 4.35882Z" fill="#000000"/>
</svg>
