<svg xmlns="http://www.w3.org/2000/svg" width="24" height="24" viewBox="0 0 24 24" fill="none"><rect width="24" height="24" fill="none"/>
<path d="M9.00005 13.5H12.75V12H9.00005V13.5Z" fill="#000000"/>
<path d="M15 16.5L9.00005 16.5V15L15 15V16.5Z" fill="#000000"/>
<path fill-rule="evenodd" clip-rule="evenodd" d="M11.676 4.5C12.3354 4.5 12.9066 4.66165 13.3598 5.00166C13.8126 5.34136 14.0775 5.80667 14.2192 6.28825C14.3846 6.85018 14.3952 7.47547 14.3278 8.07537C14.9568 8.01179 15.6192 8.03491 16.2132 8.24393C16.7184 8.42167 17.1849 8.73817 17.5166 9.24648C17.8438 9.74809 18 10.3754 18 11.1112V19.5001C13.75 19.5002 10.25 19.5001 6 19.5001V4.50005L11.676 4.5ZM7.5 5.99998V18C10.75 17.9999 13.25 18.0001 16.5 18.0001V11.1112C16.5 10.5831 16.3884 10.2624 16.2603 10.0661C16.1366 9.87648 15.9603 9.74504 15.7154 9.65889C15.1795 9.47032 14.3952 9.52824 13.57 9.72879C13.314 9.79102 13.0441 9.71434 12.8591 9.52681C12.674 9.33928 12.6009 9.06839 12.6666 8.81323C12.8706 8.01972 12.9367 7.24356 12.7803 6.71176C12.7074 6.46417 12.5968 6.30447 12.4596 6.20147C12.3227 6.09878 12.0894 6 11.676 6L7.5 5.99998Z" fill="#000000"/>
</svg>
