<svg xmlns="http://www.w3.org/2000/svg" width="16" height="16" viewBox="0 0 16 16" fill="none"><rect width="16" height="16" fill="none"/>
<path fill-rule="evenodd" clip-rule="evenodd" d="M4 4C4 3.47471 4.10346 2.95457 4.30448 2.46927C4.5055 1.98396 4.80014 1.54301 5.17157 1.17157C5.54301 0.800138 5.98396 0.5055 6.46927 0.304482C6.95457 0.103463 7.47471 0 8 0C8.52529 0 9.04543 0.103463 9.53073 0.304482C10.016 0.505501 10.457 0.800139 10.8284 1.17157C11.1999 1.54301 11.4945 1.98396 11.6955 2.46927C11.8965 2.95457 12 3.47471 12 4V6H14V14.2222C14 15.2041 13.2325 16 12.2857 16H3.71429C2.76751 16 2 15.2041 2 14.2222V6H4V4ZM9.84776 3.23463C9.94827 3.47728 10 3.73736 10 4V6H6V4C6 3.73736 6.05173 3.47728 6.15224 3.23463C6.25275 2.99198 6.40007 2.7715 6.58579 2.58579C6.7715 2.40007 6.99198 2.25275 7.23463 2.15224C7.47728 2.05173 7.73736 2 8 2C8.26264 2 8.52272 2.05173 8.76537 2.15224C9.00802 2.25275 9.2285 2.40007 9.41421 2.58579C9.59993 2.7715 9.74725 2.99198 9.84776 3.23463Z" fill="#000000"/>
</svg>
