<svg xmlns="http://www.w3.org/2000/svg" width="48" height="48" viewBox="0 0 48 48" fill="none"><rect width="48" height="48" fill="none"/>
<path d="M27.0002 22.2214L22.9928 18.214L21.2283 20.0464L25.2194 24.0081L21.2251 27.9715L22.9959 29.7813L27.0002 25.777L31.0044 29.7813L32.7753 27.9715L28.7791 24.0063L32.7776 19.9988L31.0002 18.2214L27.0002 22.2214Z" fill="#000000"/>
<path fill-rule="evenodd" clip-rule="evenodd" d="M19.9224 11.4492C19.1167 11.4492 18.358 11.766 17.7901 12.3376L8.33281 21.8566C7.76375 22.4293 7.4502 23.1913 7.4502 23.9992C7.4502 24.8069 7.76357 25.5689 8.33132 26.1404L17.7901 35.6609C18.358 36.2324 19.1167 36.5492 19.9224 36.5492H36.0002C38.6094 36.5492 40.5502 34.628 40.5502 31.9992V15.9992C40.5502 13.3705 38.6094 11.4492 36.0002 11.4492H19.9224ZM19.2799 13.8177C19.4546 13.6417 19.6777 13.5492 19.9224 13.5492H36.0002C36.7488 13.5492 37.3545 13.8095 37.7719 14.2265C38.1892 14.6434 38.4502 15.249 38.4502 15.9992V31.9992C38.4502 32.7494 38.1892 33.355 37.7719 33.7719C37.3545 34.1889 36.7488 34.4492 36.0002 34.4492H19.9224C19.6777 34.4492 19.4546 34.3567 19.2799 34.1808L9.82106 24.6603C9.64529 24.4834 9.5502 24.2539 9.5502 23.9992C9.5502 23.7449 9.64507 23.5153 9.82255 23.3367L19.2799 13.8177Z" fill="#000000"/>
</svg>
