<svg xmlns="http://www.w3.org/2000/svg" width="24" height="24" viewBox="0 0 24 24" fill="none"><rect width="24" height="24" fill="none"/>
<path d="M18.7152 14.4961C19.0695 13.5758 19.2656 12.5632 19.2656 11.5C19.2656 9.82611 18.7796 8.27759 17.955 7.01716L19.4285 6C20.4187 7.55646 21 9.45325 21 11.5C21 13.0627 20.6611 14.538 20.0602 15.8411L18.7152 14.4961Z" fill="#000000"/>
<path d="M15.7968 11.4999C15.7968 10.5714 15.4977 9.72 15.0001 9.05687L16.4797 8.03552C17.1397 8.99876 17.5312 10.1988 17.5312 11.4999C17.5312 12.0574 17.4593 12.5964 17.3252 13.1061L15.7961 11.577C15.7966 11.5514 15.7968 11.5257 15.7968 11.4999Z" fill="#000000"/>
<path d="M9.59575 5.37667L13.0002 8.78109V5.19999C13.0002 4.70366 12.6846 4.3131 12.2591 4.12421C11.8494 3.94228 11.3378 3.94741 10.9082 4.22524C10.7609 4.32055 10.2298 4.79476 9.59575 5.37667Z" fill="#000000"/>
<path d="M3 14.6671V9.2977C3 8.86125 3.04335 8.58016 3.34404 8.27154C3.61597 7.99243 4.07824 7.99621 4.4787 7.99949C4.52104 7.99984 4.56269 8.00018 4.60335 8.00018H6.59173L2 3.40845L3.40845 2L22 20.5916L20.5915 22L13.0002 14.4086V18.8L13 18.8201C12.9916 19.3069 12.6788 19.6894 12.2591 19.8758C11.8494 20.0577 11.3378 20.0526 10.9082 19.7748C10.4787 19.4969 6.7894 16.0287 6.7894 16.0287H4.60335C4.17811 16.0287 3.64472 16.0047 3.34404 15.696C3.04335 15.3874 3 15.1036 3 14.6671Z" fill="#000000"/>
</svg>
