<svg xmlns="http://www.w3.org/2000/svg" width="24" height="24" viewBox="0 0 24 24" fill="none"><rect width="24" height="24" fill="none"/>
<path d="M22.0002 7L11.9995 2L2.00028 7V9H4.00028L4.00027 16L3.10583 16.4471C2.42788 16.7859 1.99971 17.4789 2 18.2368L2.00028 19H8.18929C7.42381 17.9157 7.00027 16.5663 7.00027 15C7.00027 12.6494 7.94627 10.7619 9.67792 9.5437C11.2999 8.40266 13.3945 8 15.5011 8C17.2306 8 18.9521 8.2714 20.4105 9H22.0002V7Z" fill="#000000"/>
<path d="M15.5011 10C19.2933 10 22.002 11.4787 22.002 15C22.002 18.5213 18.7941 21.9183 15.8567 22.9285C15.6539 22.9915 15.5525 23.023 15.3993 22.9806C15.2918 22.9509 15.1481 22.845 15.0879 22.7512C15.0019 22.6175 15.0019 22.4801 15.0019 22.2054V20C11.7515 20 9.00027 18.5213 9.00027 15C9.00027 11.4787 11.7089 10 15.5011 10Z" fill="#000000"/>
</svg>
