<svg xmlns="http://www.w3.org/2000/svg" width="24" height="24" viewBox="0 0 24 24" fill="none"><rect width="24" height="24" fill="none"/>
<path d="M3 14.6671V9.2977C3 8.86125 3.04335 8.58016 3.34404 8.27154C3.64472 7.96293 4.17811 8.00018 4.60335 8.00018H6.7894C6.7894 8.00018 10.4787 4.50306 10.9082 4.22524C11.3378 3.94741 11.8494 3.94228 12.2591 4.12421C12.6846 4.3131 13.0002 4.70366 13.0002 5.19999V18.8L13 18.8201C12.9916 19.3069 12.6788 19.6894 12.2591 19.8758C11.8494 20.0577 11.3378 20.0526 10.9082 19.7748C10.4787 19.4969 6.7894 16.0287 6.7894 16.0287H4.60335C4.17811 16.0287 3.64472 16.0047 3.34404 15.696C3.04335 15.3874 3 15.1036 3 14.6671Z" fill="#000000"/>
<path d="M17.955 16.4828L19.4285 17.5C20.4187 15.9435 21 14.0467 21 12C21 9.95325 20.4187 8.05646 19.4285 6.5L17.955 7.51716C18.7796 8.77759 19.2656 10.3261 19.2656 12C19.2656 13.6739 18.7796 15.2224 17.955 16.4828Z" fill="#000000"/>
<path d="M15.0001 9.55687C15.4977 10.22 15.7968 11.0714 15.7968 11.9999C15.7968 12.9285 15.4977 13.78 15 14.4431L16.4796 15.4645C17.1397 14.5012 17.5312 13.3011 17.5312 11.9999C17.5312 10.6988 17.1397 9.49876 16.4797 8.53552L15.0001 9.55687Z" fill="#000000"/>
</svg>
