<svg xmlns="http://www.w3.org/2000/svg" width="24" height="24" viewBox="0 0 24 24" fill="none"><rect width="24" height="24" fill="none"/>
<path d="M2 8.25C2 4.1875 5.125 2 9.5 2C12.5592 2 15.0072 3.06957 16.203 5.10188C15.6459 5.03325 15.076 5 14.499 5C12.0045 5 9.64479 5.62127 7.86383 7.03556C6.02523 8.49562 4.99792 10.652 4.99792 13.2509C4.99792 13.6673 5.02515 14.069 5.07814 14.4555C3.3085 12.8314 2 10.6497 2 8.25Z" fill="#000000"/>
<path d="M14.499 7C18.8746 7 22 9.1878 22 13.2509C22 17.3139 18.3756 20.7519 14.9862 21.9176C14.7522 21.9902 14.6352 22.0265 14.4584 21.9776C14.3344 21.9433 14.1687 21.8212 14.0991 21.713C14 21.5586 14 21.4001 14 21.0832V19C10.2495 19 6.99792 17.3139 6.99792 13.2509C6.99792 9.1878 10.1234 7 14.499 7Z" fill="#000000"/>
</svg>
