<svg xmlns="http://www.w3.org/2000/svg" width="24" height="24" viewBox="0 0 24 24" fill="none"><rect width="24" height="24" fill="none"/>
<path d="M10.75 4H13.25V12H10.75V4Z" fill="#000000"/>
<path d="M17.5 11.9624C17.5 15.0142 15.0376 17.4882 12 17.4882C8.96243 17.4882 6.5 15.0142 6.5 11.9624C6.5 10.4939 7.07008 9.1593 8 8.16965V5C5.60879 6.38975 4 8.98729 4 11.9624C4 16.4014 7.58172 20 12 20C16.4183 20 20 16.4014 20 11.9624C20 8.98729 18.3912 6.38975 16 5V8.16965C16.9299 9.1593 17.5 10.4939 17.5 11.9624Z" fill="#000000"/>
</svg>
