<svg xmlns="http://www.w3.org/2000/svg" width="16" height="16" viewBox="0 0 16 16" fill="none"><rect width="16" height="16" fill="none"/>
<g clip-path="url(#clip0_123871_7838)">
<path fill-rule="evenodd" clip-rule="evenodd" d="M4.16106 13.9969C4.10765 13.999 4.05397 14.0001 4.00005 14.0001C1.79088 14.0001 0 12.2092 0 10C0 8.02048 1.43797 6.37677 3.32634 6.05649C3.84737 3.73472 5.92123 2 8.40026 2C11.2722 2 13.6003 4.32815 13.6003 7.20006C13.6003 7.36682 13.5925 7.53174 13.5771 7.69447C14.9692 8.04147 16.0007 9.3001 16.0007 10.7996C16.0007 12.567 14.568 13.9997 12.8006 13.9997C12.7556 13.9997 12.7108 13.9988 12.6662 13.9969H4.16106Z" fill="#000000"/>
</g>
<defs>
<clipPath id="clip0_123871_7838">
<rect width="16" height="16" fill="white"/>
</clipPath>
</defs>
</svg>
