<svg xmlns="http://www.w3.org/2000/svg" width="24" height="24" viewBox="0 0 24 24" fill="none"><rect width="24" height="24" fill="none"/>
<path fill-rule="evenodd" clip-rule="evenodd" d="M9.18712 5.37616C8.48951 6.2133 8.1407 6.63187 8.13537 6.98537C8.13073 7.29269 8.26767 7.58506 8.50673 7.77824C8.78171 8.00045 9.32657 8.00045 10.4163 8.00045H13.5841C14.6739 8.00045 15.2187 8.00045 15.4937 7.77824C15.7328 7.58506 15.8697 7.29269 15.8651 6.98537C15.8597 6.63187 15.5109 6.2133 14.8133 5.37615L13.2294 3.47543C12.8073 2.9689 12.5962 2.71563 12.3435 2.62327C12.1218 2.54224 11.8786 2.54224 11.6569 2.62327C11.4042 2.71563 11.1932 2.9689 10.7711 3.47544L9.18712 5.37616Z" fill="#000000"/>
<path fill-rule="evenodd" clip-rule="evenodd" d="M9.18712 18.6247C8.48951 17.7876 8.1407 17.369 8.13537 17.0155C8.13073 16.7082 8.26767 16.4158 8.50673 16.2227C8.78171 16.0005 9.32657 16.0005 10.4163 16.0005H13.5841C14.6739 16.0005 15.2187 16.0005 15.4937 16.2227C15.7328 16.4158 15.8697 16.7082 15.8651 17.0155C15.8597 17.369 15.5109 17.7876 14.8133 18.6247L13.2294 20.5255C12.8073 21.032 12.5962 21.2853 12.3435 21.3776C12.1218 21.4587 11.8786 21.4587 11.6569 21.3776C11.4042 21.2853 11.1932 21.032 10.7711 20.5255L9.18712 18.6247Z" fill="#000000"/>
</svg>
