<svg xmlns="http://www.w3.org/2000/svg" width="48" height="48" viewBox="0 0 48 48" fill="none"><rect width="48" height="48" fill="none"/>
<path d="M4 29.6667V18.2571C4 17.3297 4.09633 16.7324 4.76452 16.0766C5.43271 15.4208 6.61803 15.5 7.56299 15.5H12.4209C12.4209 15.5 21.3966 8.06896 22.3513 7.4786C23.3059 6.88824 24.4427 6.87736 25.3532 7.26393C26.2986 7.66532 27 8.49522 27 9.54986V38.4487L26.9996 38.4913C26.981 39.5256 26.2858 40.3386 25.3532 40.7346C24.4427 41.1211 23.3059 41.1103 22.3513 40.5199C21.3966 39.9295 12.4209 32.5598 12.4209 32.5598H7.56299C6.61803 32.5598 5.43272 32.5088 4.76452 31.853C4.09633 31.1972 4 30.5941 4 29.6667Z" fill="#000000"/>
<path d="M41.6975 30.4989L37.5005 26.3023L33.3025 30.5L31 28.1977L35.198 24L31 19.8023L33.3025 17.5L37.5005 21.6976L41.6975 17.501L44 19.8034L39.8031 24L44 28.1966L41.6975 30.4989Z" fill="#000000"/>
</svg>
