<svg xmlns="http://www.w3.org/2000/svg" width="24" height="24" viewBox="0 0 24 24" fill="none"><rect width="24" height="24" fill="none"/>
<path d="M15.5329 14.5V12.5H10V10.5H15.5329V9.06131C15.5329 7.69891 15.1372 6.60445 14.3457 5.77793C13.5632 4.95141 12.448 4.53815 11 4.53815C9.552 4.53815 8.43676 4.95141 7.6543 5.77793C6.87184 6.60445 6.48061 7.69891 6.48061 9.06131V11.6499H3V8.76158C3 7.31744 3.32378 6.05041 3.97133 4.96049C4.61889 3.87057 5.54075 3.02134 6.73693 2.41281C7.93311 1.80427 9.35413 1.5 11 1.5C12.6459 1.5 14.0669 1.80427 15.2631 2.41281C16.4592 3.02134 17.3811 3.87057 18.0287 4.96049C18.6762 6.05041 19 7.31744 19 8.76158V10.5H22V12.5H19V14.5H22V16.5H19V22H15.5329V16.5H10V14.5H15.5329Z" fill="#000000"/>
</svg>
