<svg xmlns="http://www.w3.org/2000/svg" width="24" height="24" viewBox="0 0 24 24" fill="none"><rect width="24" height="24" fill="none"/>
<path d="M9.57115 4.00027C8.93032 4.00041 8.36051 4.40669 8.14743 5.01106C7.36227 7.238 5.99992 11.0004 5.99992 11.0004H17.9999C17.9999 11.0004 16.6376 7.238 15.8524 5.01106C15.6393 4.40669 15.0695 4.00041 14.4287 4.00027C12.8095 3.99991 11.1903 3.99991 9.57115 4.00027Z" fill="#000000"/>
<path d="M14.9703 13.0004C14.5477 13.0004 14.1707 13.2661 14.0286 13.6641L12.4799 18.0004H11.52L9.97127 13.6641C9.82913 13.2661 9.45214 13.0004 9.02952 13.0004H3.78648C3.36387 13.0004 2.98688 13.2661 2.84474 13.6641C2.27127 15.2698 0.5 20.0004 0.5 20.0004H23.4999C23.4999 20.0004 21.7285 15.2697 21.1551 13.6641C21.013 13.2661 20.636 13.0004 20.2134 13.0004H14.9703Z" fill="#000000"/>
</svg>
