<svg xmlns="http://www.w3.org/2000/svg" width="24" height="24" viewBox="0 0 24 24" fill="none"><rect width="24" height="24" fill="none"/>
<path d="M12 5.5C13.5 5.5 14 4.56669 14 3.66667C14 2.44444 12 0 12 0C12 0 10 2.44444 10 3.66667C10 4.56669 10.5 5.5 12 5.5Z" fill="#000000"/>
<path d="M22 9C22 7.89543 21.1046 7 20 7H4C2.89543 7 2 7.89543 2 9V11C3.22869 11 4.34373 11.4856 5.1826 12.2692C5.67627 12.7303 6.31162 12.9999 7 12.9999C7.68838 12.9999 8.32373 12.7303 8.8174 12.2692C9.65633 11.4856 10.7714 11.0001 12 11.0001C13.2287 11.0001 14.3437 11.4857 15.1826 12.2693C15.6763 12.7304 16.3116 13 17 13C17.6884 13 18.3237 12.7304 18.8174 12.2693C19.6563 11.4857 20.7714 11.0002 22 11.0002V9Z" fill="#000000"/>
<path d="M20.1826 13.7308C20.6762 13.2698 21.3115 13.0002 22 13.0002V21H2V13C2.68838 13 3.32373 13.2696 3.8174 13.7307C4.65627 14.5143 5.77131 14.9999 7 14.9999C8.22869 14.9999 9.34373 14.5143 10.1826 13.7307C10.6762 13.2697 11.3115 13.0001 12 13.0001C12.6884 13.0001 13.3237 13.2697 13.8174 13.7308C14.6563 14.5144 15.7713 15 17 15C18.2287 15 19.3437 14.5144 20.1826 13.7308Z" fill="#000000"/>
</svg>
