<svg xmlns="http://www.w3.org/2000/svg" width="24" height="24" viewBox="0 0 24 24" fill="none"><rect width="24" height="24" fill="none"/>
<path fill-rule="evenodd" clip-rule="evenodd" d="M3.48172 2L1.9873 3.49442L4.49367 6.00078H4.00049C2.89592 6.00078 2.00048 6.89621 2.00049 8.00078L2.00051 16.0008C2.00051 17.1054 2.89594 18.0008 4.00051 18.0008H16.4937L20.5068 22.0139L22.0012 20.5195L19.4825 18.0008H19.4868L14.7311 13.245L14.7297 13.248L10.7533 9.27153L10.7562 9.27017L7.48683 6.00078H7.4825L3.48172 2ZM9.26349 10.7706C9.09451 11.146 9.00048 11.5624 9.00048 12.0008C9.00048 13.6576 10.3436 15.0008 12.0005 15.0008C12.4389 15.0008 12.8553 14.9068 13.2307 14.7378L9.26349 10.7706ZM4.00051 16.0008L7.00048 16.0008L4.00051 13.0008V16.0008Z" fill="#000000"/>
<path fill-rule="evenodd" clip-rule="evenodd" d="M13.941 9.71281C14.066 9.81898 14.1823 9.93522 14.2884 10.0603L21.5244 17.2962C21.8213 16.9472 22.0005 16.4949 22.0005 16.0008L22.0005 8.00078C22.0005 6.89621 21.1051 6.00078 20.0005 6.00078H10.229L13.941 9.71281ZM17.0005 8.00078L20.0005 8.00078V11.0008L17.0005 8.00078Z" fill="#000000"/>
</svg>
