<svg xmlns="http://www.w3.org/2000/svg" width="24" height="24" viewBox="0 0 24 24" fill="none"><rect width="24" height="24" fill="none"/>
<path d="M11.0633 3.50523C11.3873 2.63888 12.6127 2.63888 12.9367 3.50523L14.7306 8.30292C14.8712 8.67877 15.2228 8.93421 15.6236 8.95173L20.7409 9.17533C21.6649 9.21571 22.0436 10.3812 21.3198 10.957L17.3113 14.1457C16.9972 14.3955 16.8629 14.8088 16.9702 15.1955L18.3388 20.1314C18.586 21.0227 17.5946 21.743 16.8233 21.2325L12.5519 18.4056C12.2173 18.1841 11.7827 18.1841 11.4481 18.4056L7.17672 21.2325C6.40541 21.743 5.41402 21.0227 5.66117 20.1314L7.02983 15.1955C7.13705 14.8088 7.00275 14.3955 6.68873 14.1457L2.68022 10.957C1.95638 10.3812 2.33505 9.21571 3.2591 9.17533L8.37635 8.95173C8.77723 8.93421 9.12882 8.67877 9.26936 8.30292L11.0633 3.50523Z" fill="#000000"/>
</svg>
