<svg xmlns="http://www.w3.org/2000/svg" width="24" height="24" viewBox="0 0 24 24" fill="none"><rect width="24" height="24" fill="none"/>
<path fill-rule="evenodd" clip-rule="evenodd" d="M22.6826 21.2686L21.2686 22.6826L19.9355 21.3496C19.7936 21.7292 19.4291 22 19 22H5C4.44772 22 4 21.5523 4 21V5.41406L1.29102 2.70508L2.70508 1.29102L22.6826 21.2686ZM11 18L9.26855 15.9219C8.86876 15.4421 8.13124 15.4421 7.73145 15.9219L6 18V20H18V19.4141L13.0576 14.4717L11 18Z" fill="#000000"/>
<path d="M12.1846 2C13.9594 2 15.3465 3.53277 15.1699 5.29883L15.0244 6.75684C15.0119 6.88253 15.1175 6.98812 15.2432 6.97559L16.7012 6.83008C18.4672 6.65347 20 8.04056 20 9.81543V15.7588L6.24121 2H12.1846Z" fill="#000000"/>
</svg>
