<svg xmlns="http://www.w3.org/2000/svg" width="24" height="24" viewBox="0 0 24 24" fill="none"><rect width="24" height="24" fill="none"/>
<path fill-rule="evenodd" clip-rule="evenodd" d="M12.7288 15.372C12.7288 14.4173 14.0622 14.2656 14.2616 15.2886C14.2941 15.4556 14.3707 15.6171 14.5115 15.7125C15.0108 16.051 15.571 16.4001 16.1404 16.5815C16.551 16.7485 17.0215 16.8659 17.4394 16.8169C17.4573 16.8148 17.4748 16.8117 17.4919 16.8078C18.0415 16.7173 18.4607 16.2401 18.4607 15.6649C18.4607 15.4656 18.4104 15.2781 18.3217 15.1143C18.2503 14.9886 18.1662 14.8709 18.0871 14.75C18.0268 14.6577 17.9084 14.6227 17.8075 14.6674C17.6368 14.7432 17.4662 14.8179 17.2964 14.8923C17.0518 14.9994 16.8084 15.1061 16.57 15.2134C16.4447 15.2697 16.3285 15.322 16.1938 15.3284C16.1084 15.3324 16.0156 15.3181 15.9084 15.2747C15.6634 15.1501 15.4775 14.9274 15.4775 14.6216V13.1203C20.2418 13.4958 21.4439 7.86648 19.0618 5.05182L16.371 7.95889C16.0929 8.25938 15.9695 8.66708 15.8749 9.06546C15.7777 9.47472 15.5335 9.93046 14.9277 9.93046C14.0115 9.93046 13.8283 9.08626 13.8283 8.05406C13.8283 6.08467 15.3859 6.27179 16.0272 6.55325C16.4853 5.70887 15.779 5.18731 15.1895 4.9484C13.6451 4.48921 12.1874 6.27176 12.0041 7.8666C11.8209 6.27176 10.3549 4.48921 8.81047 4.9484C8.22098 5.18731 7.51469 5.70887 7.9728 6.55325C8.61415 6.27179 10.1717 6.08467 10.1717 8.05406C10.1717 9.08626 9.98846 9.93046 9.07225 9.93046C8.46645 9.93046 8.22226 9.47472 8.12511 9.06546C8.03055 8.66708 7.9071 8.25938 7.62897 7.95889L4.93819 5.05182C2.55605 7.86648 3.75824 13.4958 8.52252 13.1203V14.6247C8.5213 14.9286 8.33615 15.1502 8.09225 15.2744C7.98474 15.3181 7.89174 15.3324 7.80623 15.3284C7.67148 15.322 7.55527 15.2697 7.43 15.2134C7.1915 15.106 6.94869 14.9997 6.70402 14.8925C6.53413 14.8181 6.36334 14.7432 6.19247 14.6674C6.09164 14.6227 5.97325 14.6577 5.91289 14.75C5.83384 14.8709 5.74975 14.9886 5.6783 15.1143C5.58965 15.2781 5.53931 15.4656 5.53931 15.6649C5.53931 16.2401 5.95854 16.7173 6.5081 16.8078C6.52515 16.8117 6.54265 16.8148 6.56064 16.8169C6.97853 16.8659 7.44899 16.7485 7.85957 16.5815C8.42899 16.4001 8.98923 16.051 9.48854 15.7125C9.62799 15.6179 9.70817 15.4582 9.74121 15.293C9.94058 14.27 11.2712 14.4173 11.2712 15.372C11.2712 15.7473 11.0879 16.0289 10.6298 16.4042L9.40933 17.2374C9.03609 17.4922 8.96886 18.0238 9.33063 18.2947C10.1306 18.8936 11.0607 19.125 11.9959 19.125C12.9313 19.125 13.8667 18.8935 14.669 18.2943C15.0311 18.0238 14.9639 17.4922 14.5907 17.2374L13.3702 16.4042C12.9121 16.0289 12.7288 15.7473 12.7288 15.372ZM11.0897 10.3248C10.8655 10.3248 10.6838 10.5319 10.6838 10.7874V12.6256C10.6838 13.0097 12 13.4986 12 13.4986C12 13.4986 13.3162 13.0097 13.3162 12.6256V10.7874C13.3162 10.5319 13.1345 10.3248 12.9103 10.3248H11.0897Z" fill="#000000"/>
</svg>
