<svg xmlns="http://www.w3.org/2000/svg" width="49" height="48" viewBox="0 0 49 48" fill="none"><rect width="49" height="48" fill="none"/>
<path d="M29.8334 16.8888H33.8811L36.5477 14.2222L36.9445 9.77776H40.5V20.4443H29.8334V16.8888Z" fill="#000000"/>
<path d="M12.1744 23.9999C13.8333 14.2222 18.4661 11.5555 24.1034 11.5555C28.3323 11.5555 31.2145 13.3333 33.8811 16.8888L36.5478 16.8888L36.5477 14.2222C33.8809 10.6666 29.1296 8 24.1034 8C16.489 8 9.38891 13.3333 8.50003 23.9999H12.1744Z" fill="#000000"/>
<path d="M19.1666 31.1109H15.1189L12.4523 33.7775L12.0555 38.2219H8.5V27.5554H19.1666V31.1109Z" fill="#000000"/>
<path d="M36.8256 23.9999C35.1667 33.7775 30.5339 36.4442 24.8966 36.4442C20.6677 36.4442 17.7855 34.6664 15.1189 31.1109L12.4522 31.1109L12.4523 33.7775C15.1191 37.3331 19.8704 39.9997 24.8966 39.9997C32.511 39.9997 39.6111 34.6664 40.5 23.9999H36.8256Z" fill="#000000"/>
</svg>
