<svg xmlns="http://www.w3.org/2000/svg" width="24" height="24" viewBox="0 0 24 24" fill="none"><rect width="24" height="24" fill="none"/>
<path fill-rule="evenodd" clip-rule="evenodd" d="M18.2338 15.7474L22.0417 11.5219C24.2782 9.04007 18.8031 0.79403 14.7682 3.56116L8.30125 7.99444C7.0332 8.86322 8.15463 10.4682 9.763 9.68379L12.1398 8.52274C13.3409 7.9362 14.7185 8.94357 16.1025 8.41728C16.4853 8.27164 16.6845 8.91645 16.3016 9.06209C15.1313 9.50703 14.1837 9.07916 13.1988 9.0199C12.93 9.81135 13.7102 10.5526 14.0967 11.0287L14.0976 11.0277L17.9289 15.2791C18.0565 15.4208 18.1578 15.5797 18.2338 15.7474ZM17.7867 16.4475C17.8012 16.7076 17.7387 16.9516 17.5713 17.1385L17.5704 17.1375C17.2355 17.5101 16.6761 17.4347 16.3322 17.0541L12.0375 12.2884C11.7515 11.971 11.3161 12.4531 11.6021 12.7715L15.8968 17.5372C17.011 18.7736 15.619 20.0281 14.7256 19.0367L10.3413 14.1705C10.0552 13.8531 9.6199 14.3352 9.90591 14.6526L14.2296 19.4504C14.5418 19.811 14.6043 20.4287 14.2766 20.7933L14.2757 20.7923C13.9399 21.1649 13.3797 21.0886 13.0366 20.7089L13.0375 20.7079L8.74285 15.9432C8.45683 15.6258 8.02147 16.1079 8.30749 16.4263L12.1126 20.6488C12.4067 20.9782 12.4637 21.4894 12.185 21.7998L12.1841 21.7988C11.9053 22.1081 11.4392 22.0428 11.1532 21.7255L1.95906 11.5219C-0.276534 9.04109 5.19484 0.79225 9.23256 3.56118L11.4166 5.0587L7.97898 7.41598C6.07373 8.72167 7.67577 11.4476 10.01 10.3076L12.5398 9.08524C12.3714 10.0766 13.139 10.9303 13.663 11.5108L13.6621 11.5118L17.4943 15.7633C17.6744 15.9632 17.7632 16.1953 17.7867 16.4475Z" fill="#000000"/>
</svg>
