<svg xmlns="http://www.w3.org/2000/svg" width="24" height="24" viewBox="0 0 24 24" fill="none"><rect width="24" height="24" fill="none"/>
<path d="M4.32385 15C5.33735 19.4009 8.66402 22 13.2454 22C17.6086 22 20.6907 19.6992 21.4763 16.1372L21.5 16H18L17.9665 16.1372C17.3632 17.8559 15.7286 19 13.2594 19C10.7086 19 8.79445 17.5409 7.97339 15H15V13H7.58639C7.52197 12.3546 7.53075 11.6426 7.57808 11H15V9H7.98243C8.80931 6.47431 10.7308 5 13.2454 5C15.5761 5 17.3721 6.25774 18 8H21.5049C20.8601 4.5506 17.5881 2 13.2454 2C8.68736 2 5.3519 4.61476 4.33028 9H2V11H4.0355C3.98766 11.6652 3.98769 12.3346 4.03359 13H2V15H4.32385Z" fill="#000000"/>
</svg>
