<svg xmlns="http://www.w3.org/2000/svg" width="16" height="16" viewBox="0 0 16 16" fill="none"><rect width="16" height="16" fill="none"/>
<path fill-rule="evenodd" clip-rule="evenodd" d="M4.05187 7.29413C3.35425 8.13127 3.00544 8.54984 3.00011 8.90334C2.99548 9.21065 3.13242 9.50303 3.37147 9.69621C3.64645 9.91842 4.19131 9.91842 5.28103 9.91842H8.44889C9.53861 9.91842 10.0835 9.91842 10.3584 9.69621C10.5975 9.50303 10.7344 9.21065 10.7298 8.90334C10.7245 8.54984 10.3757 8.13127 9.67805 7.29412L8.09411 5.3934C7.672 4.88687 7.46094 4.6336 7.20825 4.54124C6.98656 4.46021 6.74335 4.46021 6.52166 4.54124C6.26897 4.6336 6.05792 4.88687 5.6358 5.3934L4.05187 7.29413Z" fill="#000000"/>
</svg>
