<svg xmlns="http://www.w3.org/2000/svg" width="24" height="24" viewBox="0 0 24 24" fill="none"><rect width="24" height="24" fill="none"/>
<path fill-rule="evenodd" clip-rule="evenodd" d="M12 22C17.5228 22 22 17.5228 22 12C22 6.47715 17.5228 2 12 2C6.47715 2 2 6.47715 2 12C2 17.5228 6.47715 22 12 22ZM12.8723 5.09629C12.8675 5.09144 12.8597 5.09144 12.8549 5.09629C12.8509 5.10032 12.8447 5.10105 12.8399 5.09819C12.4648 4.8777 11.9571 5.03898 11.7944 5.47746L11.4397 6.43314C11.4033 6.53144 11.3464 6.62071 11.2729 6.69495L7.67739 10.3283C7.60393 10.4026 7.51559 10.4601 7.41831 10.4969L6.47249 10.8553C6.03855 11.0197 5.87895 11.5329 6.0972 11.9119C6.10003 11.9168 6.0993 11.923 6.09533 11.9271C6.09054 11.9319 6.09054 11.9397 6.09533 11.9446L6.21059 12.061L6.2134 12.0639L9.93983 15.8296L9.94267 15.8324L9.95973 15.8489C10.3362 16.2028 10.9532 16.0598 11.1358 15.5678L11.6195 14.2646C11.6559 14.1663 11.7128 14.0771 11.7863 14.0028L12.8636 12.9141L17.0319 17.1262L18 16.1479L13.8318 11.9358L14.909 10.8472C14.9825 10.773 15.0708 10.7155 15.1681 10.6787L16.4578 10.1899C16.9446 10.0054 17.0861 9.38108 16.736 9.00063L12.8723 5.09629ZM8 19V17.5292H12.859V19H8Z" fill="#000000"/>
</svg>
