<svg xmlns="http://www.w3.org/2000/svg" width="24" height="24" viewBox="0 0 24 24" fill="none"><rect width="24" height="24" fill="none"/>
<path d="M8.51724 19C11.6149 19 13.5359 17.4477 13.5359 14.9931C13.5359 13.1885 12.1379 11.7914 10.217 11.6556V11.4809C11.7055 11.2675 12.842 9.97713 12.842 8.49272C12.842 6.32918 11.1624 5 8.34626 5H2V19H8.51724ZM5.03736 7.24116H7.57184C9.02012 7.24116 9.85489 7.9106 9.85489 9.02633C9.85489 10.1518 8.95977 10.8018 7.3204 10.8018H5.03736V7.24116ZM5.03736 16.7588V12.781H7.67241C9.46264 12.781 10.4382 13.4602 10.4382 14.7408C10.4382 16.0506 9.49282 16.7588 7.74282 16.7588H5.03736Z" fill="#000000"/>
<path d="M15.9899 19H18.9167V13.0721C18.9167 11.5683 20.0129 10.6563 21.6121 10.6563C22.0848 10.6563 22.7687 10.7436 23 10.8309V8.25988C22.7486 8.17256 22.2557 8.12405 21.8534 8.12405C20.4454 8.12405 19.2989 8.93902 19.0072 10.0062H18.8262V8.29868H15.9899V19Z" fill="#000000"/>
</svg>
