<svg xmlns="http://www.w3.org/2000/svg" width="24" height="24" viewBox="0 0 24 24" fill="none"><rect width="24" height="24" fill="none"/>
<path d="M5 4C5 2.89543 5.89543 2 7 2H17C18.1046 2 19 2.89543 19 4V6H5V4Z" fill="#000000"/>
<path fill-rule="evenodd" clip-rule="evenodd" d="M22 16V10C22 8.89543 21.1046 8 20 8H4C2.89543 8 2 8.89543 2 10V16C2 17.1046 2.89543 18 4 18H5V22H19V18H20C21.1046 18 22 17.1046 22 16ZM17 18H7V20H17V18ZM6.5 13.5C7.32843 13.5 8 12.8284 8 12C8 11.1716 7.32843 10.5 6.5 10.5C5.67157 10.5 5 11.1716 5 12C5 12.8284 5.67157 13.5 6.5 13.5Z" fill="#000000"/>
</svg>
