<svg xmlns="http://www.w3.org/2000/svg" width="48" height="48" viewBox="0 0 48 48" fill="none"><rect width="48" height="48" fill="none"/>
<path fill-rule="evenodd" clip-rule="evenodd" d="M16.8759 5.30955C19.3912 4.35141 22.0741 3.91106 24.7637 4.01488C29.7952 4.22208 34.5647 6.3137 38.1255 9.87449C41.6863 13.4353 43.7779 18.2048 43.9851 23.2363C44.0889 25.9259 43.6486 28.6088 42.6905 31.1241C41.7323 33.6395 40.2761 35.9354 38.4092 37.8744C36.5423 39.8133 34.3031 41.3553 31.8258 42.4079C29.3485 43.4605 26.6842 44.002 23.9926 44C22.8563 44 21.7667 43.5486 20.9632 42.7452C20.1598 41.9418 19.7084 40.8521 19.7084 39.7159V34.3465C19.7097 33.6869 19.5587 33.036 19.2672 32.4444C18.9757 31.8528 18.5515 31.3365 18.0277 30.9357C17.5039 30.5349 16.8947 30.2605 16.2474 30.1337C15.6002 30.007 14.9324 30.0315 14.2962 30.2051L12.6968 30.6478C11.6755 30.9268 10.6037 30.9664 9.5647 30.7636C8.52566 30.5608 7.5474 30.1211 6.70599 29.4786C5.86458 28.8362 5.1827 28.0083 4.71338 27.0594C4.24405 26.1105 3.99994 25.0661 4.00001 24.0074C3.998 21.3158 4.53953 18.6515 5.59213 16.1742C6.64473 13.6969 8.18672 11.4577 10.1256 9.59078C12.0646 7.72386 14.3605 6.26768 16.8759 5.30955ZM24.7067 8.29769C22.735 8.29769 21.1366 9.89608 21.1366 11.8678C21.1366 13.8395 22.735 15.4379 24.7067 15.4379C26.6784 15.4379 28.2768 13.8395 28.2768 11.8678C28.2768 9.89608 26.6784 8.29769 24.7067 8.29769ZM14.7104 12.5818C12.7387 12.5818 11.1403 14.1802 11.1403 16.1519C11.1403 18.1236 12.7387 19.722 14.7104 19.722C16.6821 19.722 18.2805 18.1236 18.2805 16.1519C18.2805 14.1802 16.6821 12.5818 14.7104 12.5818ZM31.1329 16.1519C31.1329 14.1802 32.7313 12.5818 34.703 12.5818C36.6747 12.5818 38.2731 14.1802 38.2731 16.1519C38.2731 18.1236 36.6747 19.722 34.703 19.722C32.7313 19.722 31.1329 18.1236 31.1329 16.1519ZM37.559 22.5781C35.5873 22.5781 33.9889 24.1765 33.9889 26.1482C33.9889 28.1199 35.5873 29.7183 37.559 29.7183C39.5308 29.7183 41.1292 28.1199 41.1292 26.1482C41.1292 24.1765 39.5308 22.5781 37.559 22.5781Z" fill="#000000"/>
</svg>
