<svg xmlns="http://www.w3.org/2000/svg" width="24" height="24" viewBox="0 0 24 24" fill="none"><rect width="24" height="24" fill="none"/>
<path d="M5 17C6.104 17 7 17.896 7 19C7 20.104 6.104 21 5 21C3.896 21 3 20.104 3 19C3 17.896 3.896 17 5 17Z" fill="#000000"/>
<path d="M12 17C13.104 17 14 17.896 14 19C14 20.104 13.104 21 12 21C10.896 21 10 20.104 10 19C10 17.896 10.896 17 12 17Z" fill="#000000"/>
<path d="M19 17C20.104 17 21 17.896 21 19C21 20.104 20.104 21 19 21C17.896 21 17 20.104 17 19C17 17.896 17.896 17 19 17Z" fill="#000000"/>
<path d="M5 10C6.104 10 7 10.896 7 12C7 13.104 6.104 14 5 14C3.896 14 3 13.104 3 12C3 10.896 3.896 10 5 10Z" fill="#000000"/>
<path d="M12 10C13.104 10 14 10.896 14 12C14 13.104 13.104 14 12 14C10.896 14 10 13.104 10 12C10 10.896 10.896 10 12 10Z" fill="#000000"/>
<path d="M19 10C20.104 10 21 10.896 21 12C21 13.104 20.104 14 19 14C17.896 14 17 13.104 17 12C17 10.896 17.896 10 19 10Z" fill="#000000"/>
<path d="M5 3C6.104 3 7 3.896 7 5C7 6.104 6.104 7 5 7C3.896 7 3 6.104 3 5C3 3.896 3.896 3 5 3Z" fill="#000000"/>
<path d="M12 3C13.104 3 14 3.896 14 5C14 6.104 13.104 7 12 7C10.896 7 10 6.104 10 5C10 3.896 10.896 3 12 3Z" fill="#000000"/>
<path d="M19 3C20.104 3 21 3.896 21 5C21 6.104 20.104 7 19 7C17.896 7 17 6.104 17 5C17 3.896 17.896 3 19 3Z" fill="#000000"/>
</svg>
