<svg xmlns="http://www.w3.org/2000/svg" width="24" height="24" viewBox="0 0 24 24" fill="none"><rect width="24" height="24" fill="none"/>
<path fill-rule="evenodd" clip-rule="evenodd" d="M17.874 8C17.4299 9.72523 15.8638 11 14 11C12.1362 11 10.5701 9.72523 10.126 8H4V6H10.126C10.5701 4.27477 12.1362 3 14 3C15.864 3 17.4301 4.27494 17.8741 6.00034L20 6V8H17.874ZM16 7C16 8.10457 15.1046 9 14 9C12.8954 9 12 8.10457 12 7C12 5.89543 12.8954 5 14 5C15.1046 5 16 5.89543 16 7Z" fill="#000000"/>
<path fill-rule="evenodd" clip-rule="evenodd" d="M13.874 16H20V18H13.874C13.4299 19.7252 11.8638 21 10 21C8.13616 21 6.57006 19.7252 6.12602 18H4V16H6.12602C6.57006 14.2748 8.13616 13 10 13C11.8638 13 13.4299 14.2748 13.874 16ZM12 17C12 18.1046 11.1046 19 10 19C8.89543 19 8 18.1046 8 17C8 15.8954 8.89543 15 10 15C11.1046 15 12 15.8954 12 17Z" fill="#000000"/>
</svg>
