<svg xmlns="http://www.w3.org/2000/svg" width="24" height="24" viewBox="0 0 24 24" fill="none"><rect width="24" height="24" fill="none"/>
<path d="M22 10.9909V8.04375C22 7.44834 21.5177 6.96603 20.9223 6.96603H18.1126C17.5172 6.96603 17.0349 6.48373 17.0349 5.88832V3.07772C17.0342 2.4823 16.5519 2 15.9565 2H12.2455C6.83012 2 2.21215 6.20274 2.00728 11.6141C1.79246 17.3036 6.35779 22 12.0001 22H18.4391C19.0345 22 19.5167 21.5177 19.5167 20.9223V17.9751C19.5167 17.3797 19.0345 16.8974 18.4391 16.8974H12.1729C9.56733 16.8974 7.28893 14.9362 7.11465 12.3361C6.9233 9.48497 9.1889 7.10404 12.0001 7.10404H15.8185C16.4139 7.10404 16.8962 7.58634 16.8962 8.18175V10.9916C16.8962 11.5871 17.3785 12.0694 17.9739 12.0694H20.9209C21.5163 12.0694 21.9986 11.5871 21.9986 10.9916L22 10.9909Z" fill="#64E34B"/>
</svg>
