<svg xmlns="http://www.w3.org/2000/svg" width="24" height="24" viewBox="0 0 24 24" fill="none"><rect width="24" height="24" fill="none"/>
<path fill-rule="evenodd" clip-rule="evenodd" d="M9 22H5.5V12H3V10H5.5V9H3V7H5.5V2H12.9722C16.0085 2 18.2444 4.27162 19.1083 7H21V9H19.4842C19.4947 9.1667 19.5 9.33349 19.5 9.5C19.5 9.66639 19.4944 9.83319 19.4834 10H21V12H19.0907C18.1948 14.718 15.892 17 12.8164 17H9V22ZM15.9763 10C15.9921 9.83295 16 9.66589 16 9.5C16 9.33391 15.9919 9.16686 15.9759 9H9V10H15.9763ZM9 12H15.3724C14.7401 13.148 13.6331 14 12.0635 14H9V12ZM9 7H15.3519C14.7197 5.89973 13.6263 5.09326 12.0776 5.09326H9V7Z" fill="#000000"/>
</svg>
