<svg xmlns="http://www.w3.org/2000/svg" width="48" height="48" viewBox="0 0 48 48" fill="none"><rect width="48" height="48" fill="none"/>
<path fill-rule="evenodd" clip-rule="evenodd" d="M19 19C19 16.2386 21.2386 14 24 14C26.7614 14 29 16.2386 29 19V22H31V32C31 33.1046 30.1046 34 29 34H19C17.8954 34 17 33.1046 17 32V22H19V19ZM27 19V22H21V19C21 17.3431 22.3431 16 24 16C25.6569 16 27 17.3431 27 19ZM24 30C25.1046 30 26 29.1046 26 28C26 26.8954 25.1046 26 24 26C22.8954 26 22 26.8954 22 28C22 29.1046 22.8954 30 24 30Z" fill="#000000"/>
</svg>
