<svg xmlns="http://www.w3.org/2000/svg" width="16" height="16" viewBox="0 0 16 16" fill="none"><rect width="16" height="16" fill="none"/>
<path d="M7.99902 1C3.91512 1 0.998047 3.04195 0.998047 6.83414C0.998047 10.6263 3.91512 12.6514 7.41561 12.6514V14.1443C7.41561 14.4401 7.41561 14.588 7.50813 14.7321C7.57302 14.8331 7.72776 14.9471 7.84348 14.9791C8.0085 15.0248 8.1177 14.9909 8.33609 14.923C11.4995 13.8351 15 10.6263 15 6.83414C15 3.04195 12.0829 1 7.99902 1ZM9.55035 7.99882H3.99805V6.59884H9.55035L7.80059 4.84883L8.85045 3.79883L12 7.29882L8.85045 10.8002L7.80059 9.75019L9.55035 7.99882Z" fill="#000000"/>
</svg>
