<svg xmlns="http://www.w3.org/2000/svg" width="24" height="24" viewBox="0 0 24 24" fill="none"><rect width="24" height="24" fill="none"/>
<path d="M10.35 12C10.35 11.0887 11.0887 10.35 12 10.35C12.9113 10.35 13.65 11.0887 13.65 12C13.65 12.9113 12.9113 13.65 12 13.65C11.0887 13.65 10.35 12.9113 10.35 12Z" fill="#000000"/>
<path fill-rule="evenodd" clip-rule="evenodd" d="M12 6C8.0642 6 4.56569 8.49522 3 12C4.5657 15.5048 8.06424 18 12 18C15.9358 18 19.4343 15.5048 21 12C19.4343 8.49522 15.9357 6 12 6ZM12 8.65C10.1498 8.65 8.65 10.1498 8.65 12C8.65 13.8502 10.1498 15.35 12 15.35C13.8502 15.35 15.35 13.8502 15.35 12C15.35 10.1498 13.8502 8.65 12 8.65Z" fill="#000000"/>
</svg>
