<svg xmlns="http://www.w3.org/2000/svg" width="24" height="24" viewBox="0 0 24 24" fill="none"><rect width="24" height="24" fill="none"/>
<path fill-rule="evenodd" clip-rule="evenodd" d="M10.8672 19H13L7.43156 4H5.56844L0 19H2.13281L3.6141 15H9.3859L10.8672 19ZM6.41626 7.46738H6.58374L8.64414 13H4.35743L6.41626 7.46738Z" fill="#000000"/>
<path fill-rule="evenodd" clip-rule="evenodd" d="M23 19H20.9999V17.5898C20.2699 18.629 19.1215 19.1948 17.7396 19.1948C15.5966 19.1948 14.0072 17.9233 14.0072 15.9033C14.0072 13.9243 15.4633 12.6143 18.037 12.4604L20.9999 12.2656L21 11.4326C21 10.0688 20.0914 9.56409 18.7066 9.56409C17.964 9.56409 17.3046 9.70813 16.8715 10.0909C16.5945 10.3358 16.4697 10.6406 16.4102 11H14.418L14.4481 10.6943C14.684 8.92041 16.4271 7.75146 18.7855 7.75146C21.4823 7.75146 23 9.13574 23 11.4326V19ZM18.0677 17.2411C16.786 17.2411 15.9999 16.6209 15.9999 15.806C15.9999 14.8679 16.5707 14.3386 18.2523 14.2258L20.9999 14.031V14.5985C20.9999 16.1776 19.7425 17.2411 18.0677 17.2411Z" fill="#000000"/>
</svg>
