<svg xmlns="http://www.w3.org/2000/svg" width="24" height="24" viewBox="0 0 24 24" fill="none"><rect width="24" height="24" fill="none"/>
<path d="M15.6938 14.6241C15.1487 14.6241 14.8263 14.1753 14.8263 13.4227C14.8263 12.6747 15.1534 12.2213 15.6938 12.2213C16.2389 12.2213 16.566 12.6747 16.566 13.4274C16.566 14.18 16.2437 14.6241 15.6938 14.6241Z" fill="#000000"/>
<path d="M8.34187 13.0869L8.9299 10.7832H9.0705L9.65857 13.0869H8.34187Z" fill="#000000"/>
<path fill-rule="evenodd" clip-rule="evenodd" d="M4.04146 5.80678L1 20H23L19.9585 5.80679C19.7327 4.75292 18.8014 4 17.7236 4L6.27643 4C5.19863 4 4.26729 4.75291 4.04146 5.80678ZM15.618 18.192C17.3861 18.192 18.5 17.3926 18.5 15.8909V10.7703H16.6039V11.6697H16.5091C16.2484 11.0901 15.6701 10.7441 14.9733 10.7441C13.6365 10.7441 12.8355 11.7539 12.8355 13.432C12.8355 15.012 13.6365 15.9984 14.9211 15.9984C15.6843 15.9984 16.2105 15.7273 16.4617 15.1944H16.5565V16.2707C16.5565 16.7148 16.2389 16.9672 15.6796 16.9672C15.2198 16.9672 14.8927 16.8177 14.8406 16.5792H12.9729C13.0203 17.5469 14.0726 18.192 15.618 18.192ZM5.50049 16L7.71627 9H10.2841L12.5 16H10.4022L10.0303 14.543H7.9702L7.59829 16H5.50049Z" fill="#000000"/>
</svg>
