<svg xmlns="http://www.w3.org/2000/svg" width="16" height="16" viewBox="0 0 16 16" fill="none"><rect width="16" height="16" fill="none"/>
<path fill-rule="evenodd" clip-rule="evenodd" d="M11.2497 8.33278C11.7219 7.67613 12 6.87054 12 6C12 3.79086 10.2091 2 8 2C5.79086 2 4 3.79086 4 6C4 6.84766 4.26367 7.63373 4.71346 8.28068C4.93547 8.646 5.15549 8.95957 5.35749 9.24746C5.68875 9.71957 5.97153 10.1226 6.13512 10.5714H9.86401C10.0274 10.1208 10.3103 9.71642 10.6424 9.24192C10.8331 8.96935 11.04 8.67365 11.2497 8.33278ZM6.28571 6.57143L8.85714 3.71429L8.57143 6L9.71429 6.57143L7.14286 9.42857L7.42857 7.14286L6.28571 6.57143Z" fill="#000000"/>
<path d="M6.28571 12.2857V11.7143H9.71429V12.2857C9.71429 13.2325 8.94677 14 8 14C7.05323 14 6.28571 13.2325 6.28571 12.2857Z" fill="#000000"/>
</svg>
