<svg xmlns="http://www.w3.org/2000/svg" width="16" height="16" viewBox="0 0 16 16" fill="none"><rect width="16" height="16" fill="none"/>
<path d="M7.0625 2H8.9375V8H7.0625V2Z" fill="#000000"/>
<path d="M12.125 7.97176C12.125 10.2607 10.2782 12.1162 8 12.1162C5.72183 12.1162 3.875 10.2607 3.875 7.97176C3.875 6.87045 4.30256 5.86947 5 5.12724V2.75C3.2066 3.79231 2 5.74047 2 7.97176C2 11.3011 4.68629 14 8 14C11.3137 14 14 11.3011 14 7.97176C14 5.74047 12.7934 3.79231 11 2.75V5.12724C11.6974 5.86947 12.125 6.87045 12.125 7.97176Z" fill="#000000"/>
</svg>
