<svg xmlns="http://www.w3.org/2000/svg" width="24" height="24" viewBox="0 0 24 24" fill="none"><rect width="24" height="24" fill="none"/>
<path d="M17.4541 9H20.6953L20.8418 9.00879C21.1774 9.04926 21.4876 9.22781 21.7041 9.50977C21.9517 9.83239 22.0512 10.258 21.9746 10.667L20.5156 18.3867C20.2312 19.9053 18.9815 20.9994 17.5313 21H6.46877C5.01835 20.9996 3.76889 19.9054 3.48439 18.3867L2.02541 10.667C1.9488 10.258 2.04737 9.8324 2.29494 9.50977C2.54259 9.18738 2.91323 9.00015 3.30373 9H6.54494L8.05373 3L10.5733 3.71777L9.27248 9H14.7276L13.4268 3.71777L15.9463 3L17.4541 9ZM7.00002 17H9.00002V12H7.00002V17ZM11 12V17H13V12H11ZM15 17H17V12H15V17Z" fill="#000000"/>
</svg>
