<svg xmlns="http://www.w3.org/2000/svg" width="24" height="24" viewBox="0 0 24 24" fill="none"><rect width="24" height="24" fill="none"/>
<path d="M4.53231 7.10917C4.53231 5.07406 5.27423 3 7.50004 3C9.72585 3 10.4678 5.03607 10.4678 7.10917C10.4678 9.18227 9.15269 10.8074 7.50003 10.8074C5.84738 10.8074 4.53231 9.14427 4.53231 7.10917Z" fill="#000000"/>
<path d="M14.5323 9.60917C14.5323 7.57406 15.2742 5.5 17.5 5.5C19.7258 5.5 20.4678 7.53607 20.4678 9.60917C20.4678 11.6823 19.1527 13.3074 17.5 13.3074C15.8474 13.3074 14.5323 11.6443 14.5323 9.60917Z" fill="#000000"/>
<path d="M1 17.4616V20.3077H14V17.4616C13.9574 16.6584 13.6735 16.1789 13.2388 15.5964C12.324 14.3709 10.3949 12.8462 7.5 12.8462C4.32774 12.8462 2.46267 14.4672 1.64406 15.6831C1.28522 16.2161 1.03722 16.76 1 17.4616Z" fill="#000000"/>
<path d="M15.5431 15.5232C16.1158 15.3887 16.7667 15.3076 17.5 15.3076C19.9496 15.3076 21.5819 16.3293 22.3559 17.1505C22.7238 17.5408 22.964 17.8622 23 18.4004V20.3076H16V17.4086L15.9972 17.3556C15.958 16.6155 15.7814 16.0239 15.5431 15.5232Z" fill="#000000"/>
</svg>
