<svg xmlns="http://www.w3.org/2000/svg" width="24" height="24" viewBox="0 0 24 24" fill="none"><rect width="24" height="24" fill="none"/>
<path d="M16 23H18V22C19.1 22 20 21.1 20 20V7C20 5.9 19.1 5 18 5H16V2C16 1.4 15.6 1 15 1H9C8.4 1 8 1.4 8 2V5H6C4.9 5 4 5.9 4 7V20C4 21.1 4.9 22 6 22V23H8V22H16V23ZM10 3H14V5H10V3ZM10.0002 10.5859L12.0002 12.5859L14.0002 10.5859L15.4144 12.0002L13.4144 14.0002L15.4144 16.0002L14.0002 17.4144L12.0002 15.4144L10.0002 17.4144L8.58594 16.0002L10.5859 14.0002L8.58594 12.0002L10.0002 10.5859Z" fill="#000000"/>
</svg>
