<svg xmlns="http://www.w3.org/2000/svg" width="24" height="24" viewBox="0 0 24 24" fill="none"><rect width="24" height="24" fill="none"/>
<path fill-rule="evenodd" clip-rule="evenodd" d="M3 10.8994C3 10.3839 3 10.1262 3.06874 9.89046C3.12962 9.68172 3.22954 9.48643 3.36322 9.31494C3.51416 9.12129 3.7232 8.97049 4.14127 8.66891L10.391 4.16053C10.9695 3.74317 11.2588 3.53448 11.5748 3.45382C11.8538 3.38258 12.1462 3.38258 12.4252 3.45382C12.7412 3.53448 13.0305 3.74317 13.609 4.16053L19.8587 8.66891C20.2768 8.97049 20.4858 9.12129 20.6368 9.31494C20.7705 9.48643 20.8704 9.68172 20.9313 9.89046C21 10.1262 21 10.3839 21 10.8994V17.2495C21 18.2122 21 18.6936 20.8126 19.0613C20.6478 19.3847 20.3849 19.6477 20.0614 19.8125C19.6937 19.9998 19.2124 19.9998 18.2497 19.9998H5.75031C4.78761 19.9998 4.30626 19.9998 3.93856 19.8125C3.61512 19.6477 3.35215 19.3847 3.18735 19.0613C3 18.6936 3 18.2122 3 17.2495V10.8994ZM14 11.9998H17V14.9998H14V11.9998Z" fill="#000000"/>
</svg>
