<svg xmlns="http://www.w3.org/2000/svg" width="24" height="24" viewBox="0 0 24 24" fill="none"><rect width="24" height="24" fill="none"/>
<path fill-rule="evenodd" clip-rule="evenodd" d="M19.1404 2.00394C16.4891 2.004 13.9463 3.05697 12.0711 4.93135L9.00145 7.99969L6.82841 7.99971C6.29799 7.99972 5.78929 8.21043 5.41422 8.5855L1 12.9997L6.78287 12.9997L11 17.2169L11 22.9997L15.4142 18.5855C15.7893 18.2104 16 17.7017 16 17.1713L16 15.0022L19.0679 11.9367C20.945 10.0612 21.9996 7.51641 21.9996 4.86288V3.00391C21.9996 2.45161 21.5519 2.0039 20.9996 2.00391L19.1404 2.00394ZM14.9998 7.5C14.9998 8.32843 15.6713 9 16.4998 9C17.3282 9 17.9998 8.32843 17.9998 7.5C17.9998 6.67157 17.3282 6 16.4998 6C15.6713 6 14.9998 6.67157 14.9998 7.5Z" fill="#000000"/>
<path d="M8.75724 18.2427C7.63202 19.3679 6.1059 20.0001 4.5146 20.0001H3.99988L3.99986 19.4856C3.99978 17.8942 4.63199 16.3679 5.75736 15.2426L5.99988 15.0001L8.99988 18.0001L8.75724 18.2427Z" fill="#000000"/>
</svg>
