<svg xmlns="http://www.w3.org/2000/svg" width="24" height="24" viewBox="0 0 24 24" fill="none"><rect width="24" height="24" fill="none"/>
<path d="M14.9167 4C15.0272 4 15.1332 3.9561 15.2113 3.87796C15.2894 3.79982 15.3333 3.69384 15.3333 3.58333V2.83333C15.3333 2.61232 15.2455 2.40036 15.0893 2.24408C14.933 2.0878 14.721 2 14.5 2H9.5C9.27899 2 9.06702 2.0878 8.91074 2.24408C8.75446 2.40036 8.66667 2.61232 8.66667 2.83333V3.58333C8.66667 3.69384 8.71056 3.79982 8.78871 3.87796C8.86685 3.9561 8.97283 4 9.08333 4H14.9167ZM15.9083 7.125C15.7168 6.76895 15.5471 6.65161 15.4 6.275C15.3704 6.19312 15.3159 6.12256 15.2442 6.07324C15.1724 6.02391 15.087 5.9983 15 6H9C8.91295 5.9983 8.82756 6.02391 8.75582 6.07324C8.68408 6.12256 8.62958 6.19312 8.6 6.275C8.45295 6.65161 8.28319 6.76895 8.09167 7.125C7.49554 8.10081 7.12274 9.19645 7 10.3333V19.9167C7 20.1903 7.05389 20.4612 7.15858 20.7139C7.26328 20.9667 7.41674 21.1963 7.61019 21.3898C7.80365 21.5833 8.03331 21.7367 8.28608 21.8414C8.53884 21.9461 8.80975 22 9.08333 22H14.9167C15.1903 22 15.4612 21.9461 15.7139 21.8414C15.9667 21.7367 16.1964 21.5833 16.3898 21.3898C16.5833 21.1963 16.7367 20.9667 16.8414 20.7139C16.9461 20.4612 17 20.1903 17 19.9167V10.3333C16.8773 9.19645 16.5045 8.10081 15.9083 7.125Z" fill="#000000"/>
</svg>
