<svg xmlns="http://www.w3.org/2000/svg" width="16" height="16" viewBox="0 0 16 16" fill="none"><rect width="16" height="16" fill="none"/>
<g clip-path="url(#clip0_126471_28048)">
<path d="M16 8C16 9.34014 15.6705 10.6033 15.088 11.7129L9.00028 5.62518V4H8.6L7.69761 4.3225L4.28707 0.911967C5.39668 0.329524 6.65986 0 8 0C12.4183 0 16 3.58172 16 8Z" fill="#000000"/>
<path fill-rule="evenodd" clip-rule="evenodd" d="M8 16C3.58172 16 0 12.4183 0 8C0 6.07785 0.677893 4.31403 1.80765 2.93457L0 1.12692L1.12676 0.000161084L7.1248 5.9982L7.4 5.91304V6.2734L16 14.8734L14.8732 16.0002L13.0654 14.1924C11.686 15.3221 9.92215 16 8 16ZM7.40039 12.8004H9.00067V10.1276L7.40039 8.52734V12.8004ZM5 6.65573L5.40382 6.53076L5 6.12694V6.65573Z" fill="#000000"/>
</g>
<defs>
<clipPath id="clip0_126471_28048">
<rect width="16" height="16" fill="white"/>
</clipPath>
</defs>
</svg>
