<svg xmlns="http://www.w3.org/2000/svg" width="48" height="48" viewBox="0 0 48 48" fill="none"><rect width="48" height="48" fill="none"/>
<path d="M12.8 24C12.8 17.8144 17.8144 12.8 24 12.8C27.552 12.8 30.7179 14.4535 32.7698 17.0329L28.8 17.6V20.8H40L40 9.6H36.8L36.2186 13.6697C33.2837 10.2017 28.899 8 24 8C15.1634 8 8 15.1634 8 24H12.8Z" fill="#000000"/>
<path d="M24 35.2C30.1856 35.2 35.2 30.1856 35.2 24H40C40 32.8365 32.8365 40 24 40C19.101 40 14.7163 37.7983 11.7814 34.3303L11.2 38.4H8L8 27.2H19.2V30.4L15.2302 30.9671C17.2821 33.5464 20.4479 35.2 24 35.2Z" fill="#000000"/>
</svg>
