<svg xmlns="http://www.w3.org/2000/svg" width="48" height="48" viewBox="0 0 48 48" fill="none"><rect width="48" height="48" fill="none"/>
<path d="M22 8H26V24H22V8Z" fill="#000000"/>
<path d="M36 24.0001C36 30.6275 30.6274 36.0001 24 36.0001C17.3726 36.0001 12 30.6275 12 24.0001C12 20.4461 13.545 17.253 16 15.0557V10.1406C11.2176 12.9071 8 18.0779 8 24.0001C8 32.8367 15.1634 40.0001 24 40.0001C32.8366 40.0001 40 32.8367 40 24.0001C40 18.0779 36.7824 12.9071 32 10.1406V15.0557C34.455 17.253 36 20.4461 36 24.0001Z" fill="#000000"/>
</svg>
