<svg xmlns="http://www.w3.org/2000/svg" width="24" height="24" viewBox="0 0 24 24" fill="none"><rect width="24" height="24" fill="none"/>
<path fill-rule="evenodd" clip-rule="evenodd" d="M3.48123 2L1.98682 3.49442L4.49318 6.00078H4C2.89543 6.00078 2 6.89621 2 8.00078L2.00002 16.0008C2.00002 17.1054 2.89545 18.0008 4.00002 18.0008H16.4932L20.5063 22.0139L22.0008 20.5195L19.482 18.0008H19.4863L14.7306 13.245L14.7292 13.248L10.7528 9.27153L10.7557 9.27017L7.48634 6.00078H7.48201L3.48123 2ZM9.263 10.7706C9.09402 11.146 8.99999 11.5624 8.99999 12.0008C8.99999 13.6576 10.3431 15.0008 12 15.0008C12.4384 15.0008 12.8548 14.9068 13.2302 14.7378L9.263 10.7706ZM4.00002 16.0008L6.99999 16.0008L4.00002 13.0008V16.0008Z" fill="#000000"/>
<path fill-rule="evenodd" clip-rule="evenodd" d="M13.9405 9.71281C14.0656 9.81898 14.1818 9.93522 14.288 10.0603L21.5239 17.2962C21.8208 16.9472 22 16.4949 22 16.0008L22 8.00078C22 6.89621 21.1046 6.00078 20 6.00078H10.2285L13.9405 9.71281ZM17 8.00078L20 8.00078V11.0008L17 8.00078Z" fill="#000000"/>
</svg>
