<svg xmlns="http://www.w3.org/2000/svg" width="24" height="24" viewBox="0 0 24 24" fill="none"><rect width="24" height="24" fill="none"/>
<path d="M1 3V13.5556H5.87112L5.27708 3H1Z" fill="#000000"/>
<path d="M18.6289 3.00879C19.589 3.09431 20.3834 3.80975 20.5447 4.76405L21.9704 13.2085C22.1741 14.415 21.3032 15.5201 20.1045 15.6533L19.8609 15.6667L19.8613 13.667C19.8927 13.6669 19.9136 13.6604 19.9287 13.6533C19.9457 13.6453 19.9616 13.6332 19.9746 13.6182C19.9877 13.6029 19.9942 13.588 19.9971 13.5781C19.9992 13.5707 20.0013 13.56 19.998 13.541L18.5723 5.09668C18.5658 5.05942 18.523 5.00014 18.4355 5H9.53125L10.3447 19.46C10.5059 19.3696 10.6646 19.2712 10.8135 19.1602C11.5538 18.6077 11.7617 18.0782 11.7617 17.7773V13.667H19.8613L19.8609 15.6667H13.762V17.7778C13.762 20.1096 10.8471 22 8.48489 22L7.41562 3H18.4352L18.6289 3.00879ZM5.87112 13.5556H1V3H5.27708L5.87112 13.5556Z" fill="#000000"/>
</svg>
