<svg fill="none" height="24" viewBox="0 0 24 24" width="24" xmlns="http://www.w3.org/2000/svg"><g fill="#000"><path d="m15.9619 10.5784c-.1949-2.26322-1.6024-3.67084-3.8656-3.86582-.3056-.02634-.5554-.27216-.5553-.57904.0001-.30676.2498-.55239.5553-.57871 2.2631-.19487 3.6709-1.60237 3.8658-3.86565.0263-.30571.2721-.55541.579-.55539.3067.00002.5524.24971.5787.55539.1949 2.26322 1.6022 3.67074 3.8659 3.86564.3057.02632.5554.27212.5553.57899-.0001.30675-.2498.55236-.5553.57866-2.2636.19485-3.6712 1.60256-3.8662 3.86593-.0262.3057-.272.5554-.5788.5554s-.5525-.2497-.5788-.5554z"/><path d="m9.79297 4c.28133 0 .55933.01473.83303.04395-.524.37139-.91998.93562-1.04299 1.63085-3.28187.1109-5.91309 2.80955-5.91309 6.1182 0 3.3789 2.74414 6.123 6.12305 6.123 2.95753 0 5.42863-2.1024 5.99903-4.8926.2331.0705.4835.1104.749.1104.3469 0 .6678-.0677.958-.1846-.1982 1.3269-.7313 2.5415-1.5146 3.5606l4.7754 4.8047c.205.205.3222.4882.3222.8007 0 .6543-.459 1.1524-1.123 1.1524-.3125 0-.6055-.1074-.8301-.3321l-4.8047-4.8144c-1.2793.918-2.832 1.4648-4.53123 1.4648-4.29688 0-7.79297-3.4961-7.79297-7.7929 0-4.29691 3.49609-7.793 7.79297-7.793z"/></g></svg>