<svg xmlns="http://www.w3.org/2000/svg" width="16" height="16" viewBox="0 0 16 16" fill="none"><rect width="16" height="16" fill="none"/>
<path d="M8.00001 9.363C8.75312 9.363 9.36364 8.75248 9.36364 7.99936C9.36364 7.24625 8.75312 6.63573 8.00001 6.63573C7.24689 6.63573 6.63637 7.24625 6.63637 7.99936C6.63637 8.75248 7.24689 9.363 8.00001 9.363Z" fill="#000000"/>
<path fill-rule="evenodd" clip-rule="evenodd" d="M0.5 7.99932C1.80475 5.2114 4.72016 3.22656 7.99997 3.22656C11.2798 3.22656 14.1953 5.2114 15.5 7.99932C14.1953 10.7872 11.2798 12.772 8 12.772C4.7202 12.772 1.80475 10.7872 0.5 7.99932ZM10.8637 7.99936C10.8637 9.5809 9.58158 10.863 8.00004 10.863C6.4185 10.863 5.13641 9.5809 5.13641 7.99936C5.13641 6.41782 6.4185 5.13573 8.00004 5.13573C9.58158 5.13573 10.8637 6.41782 10.8637 7.99936Z" fill="#000000"/>
</svg>
