<svg xmlns="http://www.w3.org/2000/svg" width="16" height="16" viewBox="0 0 16 16" fill="none"><rect width="16" height="16" fill="none"/>
<path d="M13.8216 4.32655C14.0595 4.0919 14.0595 3.71145 13.8216 3.4768L12.7872 2.43079C12.5493 2.19614 12.1635 2.19614 11.9256 2.43079L9.48868 4.88534L11.3846 6.78109L13.8216 4.32655Z" fill="#000000"/>
<path d="M2.43398 11.929C2.19606 12.1636 2.19606 12.5441 2.43398 12.7787L3.46832 13.8247C3.70624 14.0594 4.09199 14.0594 4.32991 13.8247L10.653 7.51639L8.75705 5.62063L2.43398 11.929Z" fill="#000000"/>
<path d="M5.53973 6.43906C4.66211 6.28304 3.97952 5.60044 3.8235 4.72283C3.8235 4.68382 3.76499 4.68382 3.74549 4.72283C3.58946 5.60044 2.90687 6.28304 2.02925 6.43906C1.99025 6.43906 1.99025 6.49756 2.02925 6.51707C2.90687 6.67309 3.58946 7.35568 3.74549 8.2333C3.74549 8.2723 3.80399 8.2723 3.8235 8.2333C3.97952 7.35568 4.66211 6.67309 5.53973 6.51707C5.57873 6.49756 5.57873 6.45856 5.53973 6.43906Z" fill="#000000"/>
<path d="M13.6204 11.1528C12.7428 10.9968 12.0602 10.3142 11.9042 9.43658C11.9042 9.39757 11.8457 9.39757 11.8262 9.43658C11.6702 10.3142 10.9876 10.9968 10.11 11.1528C10.071 11.1528 10.071 11.2113 10.11 11.2308C10.9876 11.3868 11.6702 12.0694 11.8262 12.947C11.8262 12.9861 11.8847 12.9861 11.9042 12.947C12.0602 12.0694 12.7428 11.3868 13.6204 11.2308C13.6594 11.2113 13.6594 11.1723 13.6204 11.1528Z" fill="#000000"/>
<path d="M8.91773 3.08681C8.37129 2.98967 7.94628 2.56466 7.84913 2.01821C7.84913 1.99393 7.81271 1.99393 7.80056 2.01821C7.70342 2.56466 7.27841 2.98967 6.73196 3.08681C6.70768 3.08681 6.70768 3.12324 6.73196 3.13538C7.27841 3.23253 7.70342 3.65754 7.80056 4.20398C7.80056 4.22827 7.83699 4.22827 7.84913 4.20398C7.94628 3.65754 8.37129 3.23253 8.91773 3.13538C8.94202 3.12324 8.94202 3.09895 8.91773 3.08681Z" fill="#000000"/>
</svg>
