<svg xmlns="http://www.w3.org/2000/svg" width="24" height="24" viewBox="0 0 24 24" fill="none"><rect width="24" height="24" fill="none"/>
<path d="M3 9.5C3 8.67157 3.67157 8 4.5 8C5.32843 8 6 8.67157 6 9.5V14.5C6 15.3284 5.32843 16 4.5 16C3.67157 16 3 15.3284 3 14.5V9.5Z" fill="#000000"/>
<path d="M8 5.5C8 4.67157 8.67157 4 9.5 4C10.3284 4 11 4.67157 11 5.5V18.5C11 19.3284 10.3284 20 9.5 20C8.67157 20 8 19.3284 8 18.5V5.5Z" fill="#000000"/>
<path d="M13 8.5C13 7.67157 13.6716 7 14.5 7C15.3284 7 16 7.67157 16 8.5V15.5C16 16.3284 15.3284 17 14.5 17C13.6716 17 13 16.3284 13 15.5V8.5Z" fill="#000000"/>
<path d="M18 10.5C18 9.67157 18.6716 9 19.5 9C20.3284 9 21 9.67157 21 10.5V13.5C21 14.3284 20.3284 15 19.5 15C18.6716 15 18 14.3284 18 13.5V10.5Z" fill="#000000"/>
</svg>
