<svg xmlns="http://www.w3.org/2000/svg" width="24" height="24" viewBox="0 0 24 24" fill="none"><rect width="24" height="24" fill="none"/>
<path fill-rule="evenodd" clip-rule="evenodd" d="M3.586 13.0002C2.67196 13.0002 2.23699 11.8751 2.91332 11.2602L10.9904 3.91743C11.5625 3.39731 12.4363 3.39731 13.0084 3.91743L21.0855 11.2602C21.7618 11.8751 21.3268 13.0002 20.4128 13.0002H18.9994V19.5002C18.9994 20.3286 18.3278 21.0002 17.4994 21.0002H6.49939C5.67096 21.0002 4.99939 20.3286 4.99939 19.5002V13.0002H3.586ZM15.9993 3.5449H17.9993V6.99998L15.9993 4.99998V3.5449ZM11.5727 9.69827L9.36732 13.3071C8.11122 15.3625 9.5905 18.0001 11.9993 18.0001C14.4082 18.0001 15.8875 15.3625 14.6314 13.3071L12.426 9.69827C12.231 9.37924 11.7677 9.37924 11.5727 9.69827Z" fill="#000000"/>
</svg>
