<svg xmlns="http://www.w3.org/2000/svg" width="24" height="24" viewBox="0 0 24 24" fill="none"><rect width="24" height="24" fill="none"/>
<path fill-rule="evenodd" clip-rule="evenodd" d="M4.42857 23H21.2868C22.2335 23 23.0011 22.2405 23.0011 21.2988V2.69954C23.0011 1.75868 22.2415 1 21.2948 1H7.85651C6.90981 1 6.14286 1.76284 6.14286 2.7037V21.2963C6.14286 22.2372 5.37528 23 4.42857 23ZM1 4.7037C1 3.76284 1.76758 3 2.71429 3H4.42857V20.0185C4.42857 20.9594 3.66099 21.7222 2.71429 21.7222C1.76758 21.7222 1 20.9594 1 20.0185V4.7037ZM9.50002 6H9.00002V8H9.50002H20V7.5V6.5V6H9.50002ZM9.00002 10H9.50002H20V10.5V11.5V12H9.50002H9.00002V10ZM9.00002 14V14.5V15.5V16H14V15.5V14.5V14H9.00002Z" fill="#000000"/>
</svg>
