<svg xmlns="http://www.w3.org/2000/svg" width="16" height="16" viewBox="0 0 16 16" fill="none"><rect width="16" height="16" fill="none"/>
<g clip-path="url(#clip0_18062_1152)">
<path fill-rule="evenodd" clip-rule="evenodd" d="M6.50018 0.5H9.50018V2.18903C10.5807 2.46714 11.5434 3.03868 12.2984 3.81364L14.0001 2.75009L15.5001 5.37509L13.7955 6.44044C13.929 6.93774 14.0002 7.46056 14.0002 8C14.0002 8.53943 13.929 9.06223 13.7955 9.55953L15.5003 10.6251L14.0003 13.2501L12.2984 12.1863C11.5435 12.9613 10.5807 13.5329 9.50018 13.811V15.5H6.50018V13.811C5.41966 13.5329 4.45693 12.9613 3.702 12.1864L2.00012 13.25L0.500183 10.625L2.20487 9.55957C2.07137 9.06226 2.00018 8.53944 2.00018 8C2.00018 7.46057 2.07137 6.93777 2.20486 6.44047L0.5 5.375L2 2.75L3.70195 3.81368C4.45688 3.0387 5.41963 2.46714 6.50018 2.18903V0.5ZM8.00018 10.625C9.44993 10.625 10.6252 9.44975 10.6252 8C10.6252 6.55025 9.44993 5.375 8.00018 5.375C6.55044 5.375 5.37518 6.55025 5.37518 8C5.37518 9.44975 6.55044 10.625 8.00018 10.625Z" fill="#000000"/>
</g>
<defs>
<clipPath id="clip0_18062_1152">
<rect width="16" height="16" fill="white"/>
</clipPath>
</defs>
</svg>
