<svg xmlns="http://www.w3.org/2000/svg" width="48" height="48" viewBox="0 0 48 48" fill="none"><rect width="48" height="48" fill="none"/>
<path d="M19 13C20.1046 13 21 13.8954 21 15V33C21 34.1046 20.1046 35 19 35H15C13.8954 35 13 34.1046 13 33V15C13 13.8954 13.8954 13 15 13H19Z" fill="#000000"/>
<path fill-rule="evenodd" clip-rule="evenodd" d="M35.2568 8.00684C37.8989 8.14053 40 10.3247 40 13V35L39.9932 35.2568C39.8595 37.8989 37.6753 40 35 40H13C10.2386 40 8 37.7614 8 35V13C8 10.3247 10.1011 8.14053 12.7432 8.00684L13 8H35L35.2568 8.00684ZM13 10C11.3431 10 10 11.3431 10 13V35C10 36.6569 11.3431 38 13 38H35C36.6569 38 38 36.6569 38 35V13C38 11.3431 36.6569 10 35 10H13Z" fill="#000000"/>
</svg>
