<svg xmlns="http://www.w3.org/2000/svg" width="24" height="24" viewBox="0 0 24 24" fill="none"><rect width="24" height="24" fill="none"/>
<path fill-rule="evenodd" clip-rule="evenodd" d="M6.42188 2C4.78015 2 3.5 3.28035 3.5 4.8L3.5 19.2C3.5 20.7197 4.78015 22 6.42188 22L17.5781 22C19.2198 22 20.5 20.7197 20.5 19.2V4.8C20.5 3.28035 19.2198 2 17.5781 2L6.42188 2ZM5.625 4.8C5.625 4.33143 6.00979 4 6.42188 4L17.5781 4C17.9902 4 18.375 4.33143 18.375 4.8V19.2C18.375 19.6686 17.9902 20 17.5781 20L6.42188 20C6.00979 20 5.625 19.6686 5.625 19.2L5.625 4.8Z" fill="#000000"/>
<path d="M7.5 7.40769C7.5 6.90639 7.83579 6.5 8.25 6.5H15.75C16.1642 6.5 16.5 6.90639 16.5 7.40769V8.69995H7.5V7.40769Z" fill="#000000"/>
<path d="M9.9 12.2C9.9 12.8627 9.36274 13.4 8.7 13.4C8.03726 13.4 7.5 12.8627 7.5 12.2C7.5 11.5373 8.03726 11 8.7 11C9.36274 11 9.9 11.5373 9.9 12.2Z" fill="#000000"/>
<path d="M13.5 12.2C13.5 12.8627 12.9627 13.4 12.3 13.4C11.6373 13.4 11.1 12.8627 11.1 12.2C11.1 11.5373 11.6373 11 12.3 11C12.9627 11 13.5 11.5373 13.5 12.2Z" fill="#000000"/>
<path d="M9.9 16.2C9.9 16.8627 9.36274 17.4 8.7 17.4C8.03726 17.4 7.5 16.8627 7.5 16.2C7.5 15.5373 8.03726 15 8.7 15C9.36274 15 9.9 15.5373 9.9 16.2Z" fill="#000000"/>
<path d="M13.5 16.2C13.5 16.8627 12.9627 17.4 12.3 17.4C11.6373 17.4 11.1 16.8627 11.1 16.2C11.1 15.5373 11.6373 15 12.3 15C12.9627 15 13.5 15.5373 13.5 16.2Z" fill="#000000"/>
<path d="M14.9 11.8C14.9 11.3582 15.2582 11 15.7 11C16.1418 11 16.5 11.3582 16.5 11.8V16.6C16.5 17.0418 16.1418 17.4 15.7 17.4C15.2582 17.4 14.9 17.0418 14.9 16.6V11.8Z" fill="#000000"/>
</svg>
