<svg xmlns="http://www.w3.org/2000/svg" width="24" height="24" viewBox="0 0 24 24" fill="none"><rect width="24" height="24" fill="none"/>
<path d="M23 21H1V19H23V21ZM12 2C17.5228 2 22 6.47715 22 12C22 13.822 21.5105 15.5288 20.6592 17H3.34082C2.4895 15.5288 2 13.822 2 12C2 6.47715 6.47715 2 12 2ZM12.54 10.126L11.207 8.79297L10.5527 8.1377L9.84961 8.74121L6.34961 11.7412L7.65039 13.2588L10.4473 10.8613L12.46 12.874L13.1641 12.2471L17.6641 8.24707L16.3359 6.75293L12.54 10.126Z" fill="#000000"/>
</svg>
