<svg xmlns="http://www.w3.org/2000/svg" width="24" height="24" viewBox="0 0 24 24" fill="none"><rect width="24" height="24" fill="none"/>
<path d="M11.063 3.50523C11.3869 2.63888 12.6124 2.63888 12.9363 3.50523L14.7303 8.30292C14.8708 8.67877 15.2224 8.93421 15.6233 8.95173L20.7405 9.17533C21.6646 9.21571 22.0433 10.3812 21.3194 10.957L17.3109 14.1457C16.9969 14.3955 16.8626 14.8088 16.9698 15.1955L18.3385 20.1314C18.5856 21.0227 17.5942 21.743 16.8229 21.2325L12.5516 18.4056C12.2169 18.1841 11.7824 18.1841 11.4477 18.4056L7.17637 21.2325C6.40506 21.743 5.41367 21.0227 5.66082 20.1314L7.02948 15.1955C7.13669 14.8088 7.0024 14.3955 6.68838 14.1457L2.67987 10.957C1.95603 10.3812 2.3347 9.21571 3.25875 9.17533L8.376 8.95173C8.77688 8.93421 9.12847 8.67877 9.26901 8.30292L11.063 3.50523Z" fill="#000000"/>
</svg>
