<svg xmlns="http://www.w3.org/2000/svg" width="16" height="16" viewBox="0 0 16 16" fill="none"><rect width="16" height="16" fill="none"/>
<g clip-path="url(#clip0_92127_17602)">
<path fill-rule="evenodd" clip-rule="evenodd" d="M8 16C12.418 16 16 12.418 16 8C16 3.58203 12.418 0 8 0C3.58203 0 0 3.58203 0 8C0 12.418 3.58203 16 8 16ZM8 4.9375C6.30859 4.9375 4.9375 6.30859 4.9375 8H3.625C3.625 5.58398 5.58398 3.625 8 3.625C9.33984 3.625 10.5381 4.22656 11.3408 5.17578L11.5 4.0625H12.375V7.125H9.3125V6.25L10.3984 6.0957C9.83691 5.38867 8.97168 4.9375 8 4.9375ZM11.0625 8C11.0625 9.69141 9.69141 11.0625 8 11.0625C7.02832 11.0625 6.16309 10.6113 5.60156 9.9043L6.6875 9.75V8.875H3.625V11.9375H4.5L4.65918 10.8242C5.46191 11.7734 6.66016 12.375 8 12.375C10.416 12.375 12.375 10.416 12.375 8H11.0625Z" fill="#000000"/>
</g>
<defs>
<clipPath id="clip0_92127_17602">
<rect width="16" height="16" fill="white"/>
</clipPath>
</defs>
</svg>
