<svg xmlns="http://www.w3.org/2000/svg" width="24" height="24" viewBox="0 0 24 24" fill="none"><rect width="24" height="24" fill="none"/>
<path d="M15.5329 15V13H10V11H15.5329V9.56131C15.5329 8.19891 15.1372 7.10445 14.3457 6.27793C13.5632 5.45141 12.448 5.03815 11 5.03815C9.552 5.03815 8.43676 5.45141 7.6543 6.27793C6.87184 7.10445 6.48061 8.19891 6.48061 9.56131V12.1499H3V9.26158C3 7.81744 3.32378 6.55041 3.97133 5.46049C4.61889 4.37057 5.54075 3.52134 6.73693 2.91281C7.93311 2.30427 9.35413 2 11 2C12.6459 2 14.0669 2.30427 15.2631 2.91281C16.4592 3.52134 17.3811 4.37057 18.0287 5.46049C18.6762 6.55041 19 7.81744 19 9.26158V11H22V13H19V15H22V17H19V22H15.5329V17H10V15H15.5329Z" fill="#000000"/>
</svg>
