<svg xmlns="http://www.w3.org/2000/svg" width="16" height="16" viewBox="0 0 16 16" fill="none"><rect width="16" height="16" fill="none"/>
<path fill-rule="evenodd" clip-rule="evenodd" d="M15 8C15 11.866 11.866 15 8 15C4.13401 15 1 11.866 1 8C1 4.13401 4.13401 1 8 1C11.866 1 15 4.13401 15 8ZM5.85714 6C5.85714 4.89543 6.81653 4 8 4C9.18347 4 10.1429 4.89543 10.1429 6V7.2H11V11.2C11 11.6418 10.6162 12 10.1429 12H5.85714C5.38376 12 5 11.6418 5 11.2V7.2H5.85714V6ZM9.28571 6V7.2H6.71429V6C6.71429 5.33726 7.28992 4.8 8 4.8C8.71008 4.8 9.28571 5.33726 9.28571 6ZM8 10.4C8.47339 10.4 8.8 10.0418 8.8 9.6C8.8 9.15818 8.47339 8.8 8 8.8C7.52661 8.8 7.2 9.15818 7.2 9.6C7.2 10.0418 7.52661 10.4 8 10.4Z" fill="#000000"/>
<path d="M8.8 9.6C8.8 10.0418 8.44183 10.4 8 10.4C7.55817 10.4 7.2 10.0418 7.2 9.6C7.2 9.15818 7.55817 8.8 8 8.8C8.44183 8.8 8.8 9.15818 8.8 9.6Z" fill="#000000"/>
</svg>
