<svg xmlns="http://www.w3.org/2000/svg" width="24" height="24" viewBox="0 0 24 24" fill="none"><rect width="24" height="24" fill="none"/>
<path d="M10.1127 4.87199C9.8806 5.47416 9.67597 6.15366 9.50756 6.90897L14.4924 6.90897C14.324 6.15366 14.1194 5.47416 13.8873 4.87199C13.3355 3.44028 12.6569 2.51381 12 2C11.3431 2.51381 10.6645 3.44028 10.1127 4.87199Z" fill="#000000"/>
<path d="M3.33782 6.90897C4.60972 4.6702 6.69475 2.97029 9.18172 2.2279C8.83134 2.79284 8.51987 3.4303 8.25094 4.12803C7.93241 4.95443 7.66608 5.88329 7.46217 6.90897L3.33782 6.90897Z" fill="#000000"/>
<path d="M14.8183 2.2279C17.3053 2.97029 19.3903 4.6702 20.6622 6.90897L16.5378 6.90897C16.3339 5.88329 16.0676 4.95443 15.7491 4.12803C15.4801 3.43031 15.1687 2.79284 14.8183 2.2279Z" fill="#000000"/>
<path d="M10.1127 19.128C9.8806 18.5258 9.67597 17.8463 9.50756 17.091H14.4924C14.324 17.8463 14.1194 18.5258 13.8873 19.128C13.3355 20.5597 12.6569 21.4862 12 22C11.3431 21.4862 10.6645 20.5597 10.1127 19.128Z" fill="#000000"/>
<path d="M3.33782 17.091C4.60972 19.3298 6.69475 21.0297 9.18172 21.7721C8.83134 21.2072 8.51987 20.5697 8.25094 19.872C7.93241 19.0456 7.66608 18.1167 7.46217 17.091H3.33782Z" fill="#000000"/>
<path d="M14.8183 21.7721C17.3053 21.0297 19.3903 19.3298 20.6622 17.091H16.5378C16.3339 18.1167 16.0676 19.0456 15.7491 19.872C15.4801 20.5697 15.1687 21.2072 14.8183 21.7721Z" fill="#000000"/>
<path d="M2 12C2 10.9358 2.16035 9.90967 2.4578 8.94538H7.15536C7.05376 9.89974 7 10.919 7 11.9998C7 13.0806 7.05376 14.1003 7.15536 15.0546H2.4578C2.16035 14.0903 2 13.0642 2 12Z" fill="#000000"/>
<path d="M9 11.9998C9 10.8988 9.05954 9.88006 9.16812 8.94538H14.8319C14.9405 9.88006 15 10.8988 15 11.9998C15 13.1008 14.9405 14.1199 14.8319 15.0546H9.16812C9.05954 14.1199 9 13.1008 9 11.9998Z" fill="#000000"/>
<path d="M16.8446 8.94538C16.9462 9.89974 17 10.919 17 11.9998C17 13.0806 16.9462 14.1003 16.8446 15.0546L21.5422 15.0546C21.8396 14.0903 22 13.0642 22 12C22 10.9358 21.8396 9.90967 21.5422 8.94539L16.8446 8.94538Z" fill="#000000"/>
</svg>
