<svg xmlns="http://www.w3.org/2000/svg" width="24" height="24" viewBox="0 0 24 24" fill="none"><rect width="24" height="24" fill="none"/>
<path d="M11.9994 2C6.16529 2 1.99805 4.91707 1.99805 10.3345C1.99805 15.7519 6.16529 18.6449 11.166 18.6449V20.7776C11.166 21.2002 11.166 21.4115 11.2981 21.6173C11.3908 21.7616 11.6119 21.9245 11.7772 21.9702C12.0129 22.0354 12.169 21.987 12.481 21.8901C17.0001 20.3358 22.0008 15.7519 22.0008 10.3345C22.0008 4.91707 17.8335 2 11.9994 2ZM14.5 9.99806L12 7.49805L13.5 5.99805L18 10.998L13.5 16L12 14.5L14.5 11.998H6V9.99806H14.5Z" fill="#000000"/>
</svg>
