<svg xmlns="http://www.w3.org/2000/svg" width="24" height="24" viewBox="0 0 24 24" fill="none"><rect width="24" height="24" fill="none"/>
<g clip-path="url(#clip0_57102_8778)">
<path d="M11 0H13V4H11V0Z" fill="#000000"/>
<path d="M4 11H0V13H4V11Z" fill="#000000"/>
<path d="M11 24V20H13V24H11Z" fill="#000000"/>
<path d="M20 13H24V11H20V13Z" fill="#000000"/>
<path fill-rule="evenodd" clip-rule="evenodd" d="M6 12C6 8.68629 8.68629 6 12 6C15.3137 6 18 8.68629 18 12C18 15.3137 15.3137 18 12 18C8.68629 18 6 15.3137 6 12ZM12 8C9.79086 8 8 9.79086 8 12C8 14.2091 9.79086 16 12 16C14.2091 16 16 14.2091 16 12C16 9.79086 14.2091 8 12 8Z" fill="#000000"/>
<path d="M4.22183 2.80747L7.05025 5.6359L5.63604 7.05011L2.80761 4.22168L4.22183 2.80747Z" fill="#000000"/>
<path d="M21.1924 4.22168L19.7782 2.80747L16.9497 5.6359L18.364 7.05011L21.1924 4.22168Z" fill="#000000"/>
<path d="M5.63604 16.9496L2.80761 19.778L4.22183 21.1922L7.05025 18.3638L5.63604 16.9496Z" fill="#000000"/>
<path d="M21.1924 19.778L19.7782 21.1922L16.9497 18.3638L18.364 16.9496L21.1924 19.778Z" fill="#000000"/>
</g>
<defs>
<clipPath id="clip0_57102_8778">
<rect width="24" height="24" fill="white"/>
</clipPath>
</defs>
</svg>
