<svg xmlns="http://www.w3.org/2000/svg" width="24" height="24" viewBox="0 0 24 24" fill="none"><rect width="24" height="24" fill="none"/>
<path d="M11 1.5C14 1.5 15 4.0237 15 6.5C15 8.9763 13.2275 11 11 11C8.77251 11 6.99999 9.02253 6.99999 6.5C6.99999 3.97747 7.99999 1.5 11 1.5Z" fill="#000000"/>
<path d="M20 21V19C19.9485 18.24 19.6051 17.6508 19.1082 17.0733C17.9748 15.756 15.3924 14 11 14C6.9917 14 4.32062 15.6517 3.05402 16.9794C2.45203 17.6104 2.05899 18.1299 2 19V21H20Z" fill="#000000"/>
<path d="M19.6345 3.29316C20.0249 2.90249 20.6581 2.90225 21.0487 3.29263C22.3493 4.59221 23 6.29767 23 8C23 9.70233 22.3493 11.4078 21.0487 12.7074C20.6581 13.0978 20.0249 13.0975 19.6345 12.7068C19.2441 12.3162 19.2444 11.683 19.6351 11.2926C20.5453 10.3831 21 9.1931 21 8C21 6.8069 20.5453 5.61693 19.6351 4.70737C19.2444 4.317 19.2441 3.68383 19.6345 3.29316Z" fill="#000000"/>
<path d="M18.2631 5.87871C17.8726 5.48818 17.2394 5.48818 16.8489 5.87871C16.4584 6.26923 16.4584 6.9024 16.8489 7.29292C17.0444 7.48838 17.1418 7.74255 17.1418 8.00001C17.1418 8.25749 17.0444 8.51167 16.8489 8.70714C16.4584 9.09766 16.4584 9.73083 16.8489 10.1213C17.2394 10.5119 17.8726 10.5119 18.2631 10.1213C18.8487 9.53575 19.1418 8.76622 19.1418 7.99999C19.1418 7.23378 18.8487 6.46429 18.2631 5.87871Z" fill="#000000"/>
</svg>
