<svg xmlns="http://www.w3.org/2000/svg" width="24" height="24" viewBox="0 0 24 24" fill="none"><rect width="24" height="24" fill="none"/>
<path d="M3 14.6671V9.2977C3 8.86125 3.04335 8.58016 3.34404 8.27154C3.64472 7.96293 4.17811 8.00018 4.60335 8.00018H6.7894C6.7894 8.00018 10.4787 4.50306 10.9082 4.22524C11.3378 3.94741 11.8494 3.94228 12.2591 4.12421C12.6846 4.3131 13.0002 4.70366 13.0002 5.19999V18.8L13 18.8201C12.9916 19.3069 12.6788 19.6894 12.2591 19.8758C11.8494 20.0577 11.3378 20.0526 10.9082 19.7748C10.4787 19.4969 6.7894 16.0287 6.7894 16.0287H4.60335C4.17811 16.0287 3.64472 16.0047 3.34404 15.696C3.04335 15.3874 3 15.1036 3 14.6671Z" fill="#000000"/>
<path d="M19.9373 14.9995L18.0002 13.0626L16.0627 15L15 13.9374L16.9375 12L15 10.0626L16.0627 9L18.0002 10.9374L19.9373 9.00048L21 10.0631L19.063 12L21 13.9369L19.9373 14.9995Z" fill="#000000"/>
</svg>
