<svg xmlns="http://www.w3.org/2000/svg" width="24" height="24" viewBox="0 0 24 24" fill="none"><rect width="24" height="24" fill="none"/>
<path fill-rule="evenodd" clip-rule="evenodd" d="M16.4534 3.29359C16.6492 3.09784 16.9058 2.99997 17.1623 3C17.4189 2.99998 17.6755 3.09784 17.8712 3.29359L20.7064 6.12877C21.0979 6.52023 21.0979 7.15491 20.7064 7.54637L19.1256 9.1272L19.1254 9.12716L18.909 9.34354L14.6562 5.09077L16.4534 3.29359ZM15.9823 9.42381L13.1529 6.59435L3 16.7472V21H7.25273L13.006 15.2467C13.002 15.165 13 15.0827 13 15V14C13 11.9565 14.2259 10.1994 15.9823 9.42381ZM19 14V15H17V14C17 13.4477 17.4477 13 18 13C18.5523 13 19 13.4477 19 14ZM14 15H15V14C15 12.3431 16.3431 11 18 11C19.6569 11 21 12.3431 21 14V15H22V19C22 20.1046 21.1046 21 20 21H16C14.8954 21 14 20.1046 14 19V15Z" fill="#000000"/>
</svg>
