<svg xmlns="http://www.w3.org/2000/svg" width="16" height="16" viewBox="0 0 16 16" fill="none"><rect width="16" height="16" fill="none"/>
<g clip-path="url(#clip0_137770_9036)">
<path d="M10.6251 0.236298C10.9328 -0.0724747 11.4395 -0.0794259 11.7568 0.220066C12.0739 0.519632 12.0821 1.01297 11.7745 1.32183L1.3745 11.7632C1.06681 12.0719 0.560054 12.0799 0.242801 11.7805C-0.0745281 11.4809 -0.0815569 10.9876 0.226128 10.6787L10.6251 0.236298ZM6.27333 0.228182C6.58582 -0.0760386 7.09248 -0.0759276 7.40503 0.228182C7.71758 0.532459 7.71758 1.02567 7.40503 1.32995L1.36929 7.20704C1.05686 7.5111 0.550127 7.51094 0.237591 7.20704C-0.0749173 6.9028 -0.0748458 6.40956 0.237591 6.10527L6.27333 0.228182Z" fill="#000000"/>
</g>
<defs>
<clipPath id="clip0_137770_9036">
<rect width="16" height="16" fill="white"/>
</clipPath>
</defs>
</svg>
