<svg xmlns="http://www.w3.org/2000/svg" width="24" height="24" viewBox="0 0 24 24" fill="none"><rect width="24" height="24" fill="none"/>
<path fill-rule="evenodd" clip-rule="evenodd" d="M17.687 13.0824C18.5133 11.9332 19 10.5235 19 9C19 5.13401 15.866 2 12 2C8.13401 2 5 5.13401 5 9C5 10.4834 5.46142 11.859 6.24855 12.9912C6.63708 13.6305 7.02211 14.1793 7.37561 14.6831C7.95531 15.5092 8.45018 16.2145 8.73647 17H15.262C15.5479 16.2115 16.0431 15.5037 16.6241 14.6734C16.9579 14.1964 17.32 13.6789 17.687 13.0824ZM9 10L13.5 5L13 9L15 10L10.5 15L11 11L9 10Z" fill="#000000"/>
<path d="M9 20V19H15V20C15 21.6569 13.6569 23 12 23C10.3431 23 9 21.6569 9 20Z" fill="#000000"/>
</svg>
