<svg xmlns="http://www.w3.org/2000/svg" width="24" height="24" viewBox="0 0 24 24" fill="none"><rect width="24" height="24" fill="none"/>
<path d="M6.50002 1C5.32323 1 4.42903 2.05818 4.62532 3.21848L5.01508 4.52235C5.24959 5.9086 5.06124 7.33334 4.47455 8.61102L3.62203 10.4676C2.5839 12.7284 2.49132 15.3101 3.36483 17.6395L4.62502 21H8.75002L9.88984 17.4539C10.6039 15.2323 10.4599 12.8237 9.48612 10.7031L8.52549 8.61102C7.9388 7.33334 7.75044 5.9086 7.98496 4.52235L8.37471 3.21848C8.571 2.05818 7.6768 1 6.50002 1Z" fill="#000000"/>
<path fill-rule="evenodd" clip-rule="evenodd" d="M14 21C12.9494 21 11.9528 20.7685 11.0585 20.3538L11.7939 18.0659C12.661 15.3682 12.4861 12.4436 11.3037 9.86847L10.4342 7.97502C11.4786 7.35561 12.6978 7 14 7C17.866 7 21 10.134 21 14C21 17.866 17.866 21 14 21ZM16.5 13C17.3284 13 18 12.3284 18 11.5C18 10.6716 17.3284 10 16.5 10C15.6716 10 15 10.6716 15 11.5C15 12.3284 15.6716 13 16.5 13Z" fill="#000000"/>
</svg>
