<svg xmlns="http://www.w3.org/2000/svg" width="24" height="24" viewBox="0 0 24 24" fill="none"><rect width="24" height="24" fill="none"/>
<path d="M9.75 16.5V18H14.25V16.5H9.75Z" fill="#000000"/>
<path fill-rule="evenodd" clip-rule="evenodd" d="M8.62502 3.75C7.38237 3.74999 6.375 4.75736 6.375 6V18.7496C6.375 19.9922 7.38235 20.9995 8.62498 20.9995L15.3748 20.9996C16.6174 20.9996 17.6248 19.9923 17.6248 18.7496V6.00007C17.6248 4.75744 16.6174 3.75008 15.3748 3.75007L8.62502 3.75ZM7.875 6C7.875 5.58578 8.21079 5.24999 8.62501 5.25L15.3748 5.25007C15.789 5.25008 16.1248 5.58586 16.1248 6.00007V18.7496C16.1248 19.1639 15.789 19.4996 15.3748 19.4996L8.62499 19.4996C8.21078 19.4996 7.875 19.1638 7.875 18.7496V6Z" fill="#000000"/>
</svg>
