<svg xmlns="http://www.w3.org/2000/svg" width="24" height="24" viewBox="0 0 24 24" fill="none"><rect width="24" height="24" fill="none"/>
<path d="M3 8H6.00807L10.3397 5.19715C11.0347 4.70146 12 5.19753 12 6.05034V17.9497C12 18.8025 11.0347 19.2985 10.3397 18.8029L6.00807 16H3C2.44772 16 2 15.5523 2 15V9C2 8.44771 2.44772 8 3 8Z" fill="#000000"/>
<path d="M17.4886 16.6805L19.1879 17.7425C20.3297 16.1174 21 14.137 21 12C21 9.86304 20.3297 7.88263 19.1879 6.25757L17.4887 7.31957C18.4396 8.63556 19 10.2523 19 12C19 13.7477 18.4396 15.3645 17.4886 16.6805Z" fill="#000000"/>
<path d="M14.0813 9.44919C14.6551 10.1415 15 11.0305 15 11.9999C15 12.9695 14.655 13.8584 14.0812 14.5508L15.7874 15.6172C16.5485 14.6115 17 13.3584 17 11.9999C17 10.6415 16.5485 9.38852 15.7875 8.38281L14.0813 9.44919Z" fill="#000000"/>
</svg>
