<svg xmlns="http://www.w3.org/2000/svg" width="24" height="24" viewBox="0 0 24 24" fill="none"><rect width="24" height="24" fill="none"/>
<path d="M13.8842 8.22557L15.5363 6.5734C16.3095 5.80021 17.2845 5.25986 18.35 5.01399C18.7319 4.92584 19.0741 5.26813 18.986 5.65006C18.7401 6.71551 18.1998 7.69043 17.4266 8.46362L15.7744 10.1158L17.1207 17.5204C17.289 18.4456 16.4382 18.7221 15.7395 18.9493C15.6872 18.9663 15.6356 18.9831 15.5854 18.9998L12.372 13.5182L10.2927 15.5975L10.4061 17.2993C10.4514 17.9784 10.0632 18.6121 9.43763 18.8802L9.15855 18.9998L7.62563 16.3743L5 14.8414L5.11963 14.5623C5.38771 13.9368 6.02143 13.5485 6.70053 13.5938L8.40246 13.7071L10.4817 11.628L5 8.41459C5.01674 8.3644 5.03349 8.31285 5.05054 8.26044C5.2777 7.56175 5.55429 6.71104 6.4795 6.8793L13.8842 8.22557Z" fill="#000000"/>
</svg>
