<svg xmlns="http://www.w3.org/2000/svg" width="48" height="48" viewBox="0 0 48 48" fill="none"><rect width="48" height="48" fill="none"/>
<path d="M9.97919 39.0208C16.6181 45.6597 27.3819 45.6597 34.0208 39.0208C40.6597 32.3819 40.6597 21.6181 34.0208 14.9792C27.3819 8.34027 16.6181 8.34027 9.97919 14.9792C3.34027 21.6181 3.34027 32.3819 9.97919 39.0208ZM30.0441 20.2857L27.6303 25.3858C27.4412 25.7853 27.5044 26.2486 27.7909 26.5624L31.4471 30.5689C32.1074 31.2924 31.4783 32.4885 30.4854 32.3975L24.9872 31.8932C24.5564 31.8537 24.1322 32.0768 23.9097 32.4599L21.0693 37.3498C20.5564 38.2328 19.2501 38.0545 19.0724 37.0773L18.088 31.6656C18.0109 31.2416 17.6855 30.9162 17.2616 30.8391L11.8498 29.8548C10.8726 29.677 10.6943 28.3707 11.5773 27.8578L16.4672 25.0174C16.8503 24.7949 17.0734 24.3707 17.0339 23.9399L16.5296 18.4417C16.4386 17.4488 17.6347 16.8197 18.3582 17.48L22.3647 21.1363C22.6785 21.4227 23.1418 21.4859 23.5414 21.2968L28.6415 18.8831C29.5624 18.4472 30.4799 19.3647 30.0441 20.2857Z" fill="#000000"/>
<path d="M38.017 4.58579L35.189 7.41376L34.4822 6.70688C33.7011 5.92583 32.4348 5.92583 31.6537 6.70688L29.7881 8.57249C34.5562 10.5898 38.3792 14.4036 40.4085 19.1653L42.2603 17.3135C43.0414 16.5324 43.0414 15.2661 42.2603 14.4851L41.553 13.7777L44.381 10.9497C45.162 10.1687 45.162 8.90237 44.381 8.12132L40.8454 4.58579C40.0644 3.80474 38.7981 3.80474 38.017 4.58579ZM39.4312 7.41421L41.5525 9.53553L39.4317 11.6564L37.3104 9.53508L39.4312 7.41421Z" fill="#000000"/>
</svg>
