<svg xmlns="http://www.w3.org/2000/svg" width="24" height="24" viewBox="0 0 24 24" fill="none"><rect width="24" height="24" fill="none"/>
<path d="M13.5 6C13.5 6.82843 12.8284 7.5 12 7.5C11.1716 7.5 10.5 6.82843 10.5 6C10.5 5.17157 11.1716 4.5 12 4.5C12.8284 4.5 13.5 5.17157 13.5 6Z" fill="#000000"/>
<path d="M21 11V13H3V11H21Z" fill="#000000"/>
<path d="M12 19.5C12.8284 19.5 13.5 18.8284 13.5 18C13.5 17.1716 12.8284 16.5 12 16.5C11.1716 16.5 10.5 17.1716 10.5 18C10.5 18.8284 11.1716 19.5 12 19.5Z" fill="#000000"/>
</svg>
