<svg xmlns="http://www.w3.org/2000/svg" width="24" height="24" viewBox="0 0 24 24" fill="none"><rect width="24" height="24" fill="none"/>
<path d="M22.4299 21.086L3.33804 1.99414L1.92383 3.40835L7.50522 8.98974L3.25793 9.17533C2.33388 9.21571 1.9552 10.3812 2.67904 10.957L6.68755 14.1457C7.00157 14.3955 7.13587 14.8088 7.02865 15.1955L5.65999 20.1314C5.41285 21.0227 6.40424 21.743 7.17554 21.2325L11.4469 18.4056C11.7815 18.1841 12.2161 18.1841 12.5507 18.4056L16.8221 21.2325C17.5934 21.743 18.5848 21.0227 18.3376 20.1314L18.219 19.7035L21.0157 22.5002L22.4299 21.086Z" fill="#000000"/>
<path d="M21.3186 10.957L17.8713 13.6993L10.1409 5.9689L11.0622 3.50523C11.3861 2.63888 12.6115 2.63888 12.9355 3.50523L14.7295 8.30292C14.87 8.67877 15.2216 8.93421 15.6225 8.95173L20.7397 9.17533C21.6638 9.21571 22.0424 10.3812 21.3186 10.957Z" fill="#000000"/>
</svg>
