<svg xmlns="http://www.w3.org/2000/svg" width="24" height="24" viewBox="0 0 24 24" fill="none"><rect width="24" height="24" fill="none"/>
<path fill-rule="evenodd" clip-rule="evenodd" d="M5.70717 4.29198C5.70695 4.29208 5.70738 4.29187 5.70717 4.29198L3.41421 1.99902L2 3.41324L4.29267 5.7059C4.10509 6.09768 4.00004 6.5365 4.00004 6.99986V16.9999H2.00003V17.9999C2.00003 19.1044 2.89546 19.9999 4.00003 19.9999H18.5866L20.5828 21.9961L21.9971 20.5819L5.70717 4.29198ZM6.00004 7.41327V16.9999H15.5866L6.00004 7.41327Z" fill="#000000"/>
<path d="M8.24445 3.99986L10.2444 5.99986H20V3.99986H8.24445Z" fill="#000000"/>
<path d="M14.0001 9.75548L22.0001 17.7555V8.9998C22.0001 8.45124 21.5584 8.00585 21.0112 7.99986H14.9889C14.4418 8.00585 14.0001 8.45124 14.0001 8.9998V9.75548Z" fill="#000000"/>
</svg>
