<svg xmlns="http://www.w3.org/2000/svg" width="24" height="24" viewBox="0 0 24 24" fill="none"><rect width="24" height="24" fill="none"/>
<path d="M19 2C20.6569 2 22 3.34315 22 5V14C22 15.6051 20.7394 16.9158 19.1543 16.9961L19 17H13V20H16C16.5523 20 17 20.4477 17 21V22H7V21C7 20.4477 7.44772 20 8 20H11V17H5L4.8457 16.9961C3.31166 16.9184 2.08163 15.6883 2.00391 14.1543L2 14V5C2 3.34315 3.34315 2 5 2H19ZM5 4C4.44772 4 4 4.44772 4 5V14C4 14.5523 4.44772 15 5 15H19C19.5523 15 20 14.5523 20 14V5C20 4.44771 19.5523 4 19 4H5Z" fill="#000000"/>
</svg>
