<svg xmlns="http://www.w3.org/2000/svg" width="24" height="24" viewBox="0 0 24 24" fill="none"><rect width="24" height="24" fill="none"/>
<path d="M11 8.99983C13.2091 8.99983 15 10.7907 15 12.9998V18.9998C15 21.209 13.2091 22.9998 11 22.9998H5C2.79086 22.9998 1 21.209 1 18.9998V12.9998C1 10.7907 2.79086 8.99983 5 8.99983H11ZM6.75391 11.9998L4.92285 17.0369L4.07422 19.1219L3.69629 20.0477H5.85645L6.5293 18.3934H9.4707L10.1436 20.0477H12.3037L11.9258 19.1219L11.0771 17.0369L9.24609 11.9998H6.75391ZM8.71582 16.3944H7.28418L8 14.4256L8.71582 16.3944Z" fill="#000000"/>
<path d="M19 1C21.2091 1 23 2.79086 23 5V11C23 13.2091 21.2091 15 19 15H17V13C17 12.3029 16.8797 11.6341 16.6611 11.0117C16.6636 11.0087 16.6665 11.006 16.6689 11.0029C16.7543 10.8991 16.8352 10.7921 16.9131 10.6836C17.0774 10.8872 17.2589 11.0659 17.4521 11.2197C18.1925 11.8088 19.0417 12 19.5 12V10C19.5055 10 19.3952 9.99408 19.2178 9.93457C19.0515 9.87877 18.8655 9.78911 18.6973 9.65527C18.4116 9.42796 18.0892 9.00989 18.0977 8.14844C18.256 7.60175 18.3629 7.07026 18.4258 6.59961H19.501V4.59961H17.001L17 3.5H15L15.001 4.59961H12.501V6.59961H16.4033C16.3468 6.93797 16.2638 7.31722 16.1445 7.70801C15.9963 8.19379 15.8001 8.6709 15.5557 9.09863C14.4552 7.81486 12.8235 7 11 7H9V5C9 2.79086 10.7909 1 13 1H19Z" fill="#000000"/>
</svg>
