<svg xmlns="http://www.w3.org/2000/svg" width="24" height="24" viewBox="0 0 24 24" fill="none"><rect width="24" height="24" fill="none"/>
<path d="M12 8.50024C13.933 8.50024 15.5 6.93324 15.5 5.00024C15.5 3.06725 13.933 1.50024 12 1.50024C10.067 1.50024 8.5 3.06725 8.5 5.00024C8.5 6.93324 10.067 8.50024 12 8.50024Z" fill="black"/>
<path d="M15 23.0001C18 23.0002 19 21.2597 19 18.6667C19 15.0769 15.866 10.5001 12 10.5001C8.13401 10.5001 5 15.0769 5 18.6667C5 21.2597 6 23.0002 9 23.0002C11 23.0002 13 23.0004 15 23.0001Z" fill="black"/>
<path d="M23 8.50006C23 10.4331 21.433 12.0001 19.5 12.0001C17.567 12.0001 16 10.4331 16 8.50006C16 6.56706 17.567 5.00006 19.5 5.00006C21.433 5.00006 23 6.56706 23 8.50006Z" fill="black"/>
<path d="M4.5 12.0001C6.433 12.0001 8 10.4331 8 8.50006C8 6.56706 6.433 5.00006 4.5 5.00006C2.567 5.00006 1 6.56706 1 8.50006C1 10.4331 2.567 12.0001 4.5 12.0001Z" fill="black"/>
</svg>
