<svg xmlns="http://www.w3.org/2000/svg" width="16" height="16" viewBox="0 0 16 16" fill="none"><rect width="16" height="16" fill="none"/>
<path fill-rule="evenodd" clip-rule="evenodd" d="M4.30447 2.46973C4.10345 2.9541 4 3.47461 4 4H6C6 3.7373 6.05173 3.47754 6.15225 3.23438C6.25275 2.99219 6.40005 2.77148 6.58578 2.58594C6.77151 2.40039 6.99197 2.25293 7.23462 2.15234C7.47729 2.05176 7.73737 2 8 2C8.26263 2 8.52271 2.05176 8.76538 2.15234C9.00803 2.25293 9.22849 2.40039 9.41422 2.58594C9.59995 2.77148 9.74725 2.99219 9.84775 3.23438C9.94827 3.47754 10 3.7373 10 4V6H2V14.2222C2 15.2041 2.76751 16 3.71429 16H12.2857C13.2325 16 14 15.2041 14 14.2222V6H12V4C12 3.47461 11.8965 2.9541 11.6955 2.46973C11.4945 1.98438 11.1999 1.54297 10.8284 1.17188C10.457 0.799805 10.016 0.505859 9.53073 0.304688C9.04544 0.103516 8.5253 0 8 0C7.4747 0 6.95456 0.103516 6.46927 0.304688C5.98398 0.505859 5.543 0.799805 5.17157 1.17188C4.80014 1.54297 4.50549 1.98438 4.30447 2.46973ZM8 13C9.10457 13 10 12.1046 10 11C10 9.89543 9.10457 9 8 9C6.89543 9 6 9.89543 6 11C6 12.1046 6.89543 13 8 13Z" fill="#000000"/>
</svg>
