<svg xmlns="http://www.w3.org/2000/svg" width="48" height="48" viewBox="0 0 48 48" fill="none"><rect width="48" height="48" fill="none"/>
<path d="M12.6364 11.2727C14.6447 11.2727 16.2727 9.64467 16.2727 7.63636C16.2727 5.62806 14.6447 4 12.6364 4C10.6281 4 9 5.62806 9 7.63636C9 9.64467 10.6281 11.2727 12.6364 11.2727Z" fill="#000000"/>
<path d="M12.6364 22.1818C14.6447 22.1818 16.2727 20.5538 16.2727 18.5455C16.2727 16.5371 14.6447 14.9091 12.6364 14.9091C10.6281 14.9091 9 16.5371 9 18.5455C9 20.5538 10.6281 22.1818 12.6364 22.1818Z" fill="#000000"/>
<path d="M16.2727 29.4545C16.2727 31.4629 14.6447 33.0909 12.6364 33.0909C10.6281 33.0909 9 31.4629 9 29.4545C9 27.4462 10.6281 25.8182 12.6364 25.8182C14.6447 25.8182 16.2727 27.4462 16.2727 29.4545Z" fill="#000000"/>
<path d="M23.5455 11.2727C25.5538 11.2727 27.1818 9.64467 27.1818 7.63636C27.1818 5.62806 25.5538 4 23.5455 4C21.5371 4 19.9091 5.62806 19.9091 7.63636C19.9091 9.64467 21.5371 11.2727 23.5455 11.2727Z" fill="#000000"/>
<path d="M27.1818 18.5455C27.1818 20.5538 25.5538 22.1818 23.5455 22.1818C21.5371 22.1818 19.9091 20.5538 19.9091 18.5455C19.9091 16.5371 21.5371 14.9091 23.5455 14.9091C25.5538 14.9091 27.1818 16.5371 27.1818 18.5455Z" fill="#000000"/>
<path d="M23.5455 33.0909C25.5538 33.0909 27.1818 31.4629 27.1818 29.4545C27.1818 27.4462 25.5538 25.8182 23.5455 25.8182C21.5371 25.8182 19.9091 27.4462 19.9091 29.4545C19.9091 31.4629 21.5371 33.0909 23.5455 33.0909Z" fill="#000000"/>
<path d="M27.1818 40.3636C27.1818 42.3719 25.5538 44 23.5455 44C21.5371 44 19.9091 42.3719 19.9091 40.3636C19.9091 38.3553 21.5371 36.7273 23.5455 36.7273C25.5538 36.7273 27.1818 38.3553 27.1818 40.3636Z" fill="#000000"/>
<path d="M34.4545 11.2727C36.4629 11.2727 38.0909 9.64467 38.0909 7.63636C38.0909 5.62806 36.4629 4 34.4545 4C32.4462 4 30.8182 5.62806 30.8182 7.63636C30.8182 9.64467 32.4462 11.2727 34.4545 11.2727Z" fill="#000000"/>
<path d="M38.0909 18.5455C38.0909 20.5538 36.4629 22.1818 34.4545 22.1818C32.4462 22.1818 30.8182 20.5538 30.8182 18.5455C30.8182 16.5371 32.4462 14.9091 34.4545 14.9091C36.4629 14.9091 38.0909 16.5371 38.0909 18.5455Z" fill="#000000"/>
<path d="M34.4545 33.0909C36.4629 33.0909 38.0909 31.4629 38.0909 29.4545C38.0909 27.4462 36.4629 25.8182 34.4545 25.8182C32.4462 25.8182 30.8182 27.4462 30.8182 29.4545C30.8182 31.4629 32.4462 33.0909 34.4545 33.0909Z" fill="#000000"/>
</svg>
