<svg xmlns="http://www.w3.org/2000/svg" width="24" height="24" viewBox="0 0 24 24" fill="none"><rect width="24" height="24" fill="none"/>
<path d="M13.0009 1V3H18.64C19.8759 3 20.8159 4.10973 20.6128 5.3288L20.5009 6H3.5009L3.38904 5.3288C3.18586 4.10973 4.12594 3 5.36182 3H11.0009V1H13.0009Z" fill="#000000"/>
<path fill-rule="evenodd" clip-rule="evenodd" d="M19.0009 8H5.0009L6.30944 20.2131C6.41833 21.2293 7.27597 22 8.29806 22H15.7037C16.7258 22 17.5835 21.2293 17.6924 20.2131L19.0009 8ZM9.5009 11.5061H11.0009V17.5061C11.0009 17.5061 11.0009 18.0066 10.2509 18.0066C9.5009 18.0066 9.5009 17.5061 9.5009 17.5061V11.5061ZM13.0009 11.5061H14.5009V17.5061C14.5009 17.5061 14.5009 18.0066 13.7509 18.0066C13.0009 18.0066 13.0009 17.5061 13.0009 17.5061V11.5061Z" fill="#000000"/>
</svg>
