<svg xmlns="http://www.w3.org/2000/svg" width="24" height="24" viewBox="0 0 24 24" fill="none"><rect width="24" height="24" fill="none"/>
<path fill-rule="evenodd" clip-rule="evenodd" d="M4 4C2.89543 4 2 4.89543 2 6V9.17071C3.16519 9.58254 4 10.6938 4 12C4 13.3062 3.16519 14.4175 2 14.8293V18C2 19.1046 2.89543 20 4 20H20C21.1046 20 22 19.1046 22 18V14.8293C20.8348 14.4175 20 13.3062 20 12C20 10.6938 20.8348 9.58254 22 9.17071V6C22 4.89543 21.1046 4 20 4H4ZM11.6137 8.44327C11.7473 8.08597 12.2527 8.08597 12.3863 8.44327L13.1262 10.4219C13.1841 10.5769 13.3291 10.6823 13.4945 10.6895L15.6049 10.7817C15.986 10.7984 16.1422 11.279 15.8437 11.5165L14.1905 12.8316C14.061 12.9346 14.0056 13.1051 14.0498 13.2646L14.6143 15.3002C14.7162 15.6678 14.3073 15.9649 13.9892 15.7543L12.2276 14.5885C12.0896 14.4971 11.9104 14.4971 11.7724 14.5885L10.0108 15.7543C9.69269 15.9649 9.28382 15.6678 9.38575 15.3002L9.95021 13.2646C9.99443 13.1051 9.93904 12.9346 9.80953 12.8316L8.15634 11.5165C7.85782 11.279 8.01399 10.7984 8.39509 10.7817L10.5055 10.6895C10.6709 10.6823 10.8159 10.5769 10.8738 10.4219L11.6137 8.44327Z" fill="#000000"/>
</svg>
