<svg xmlns="http://www.w3.org/2000/svg" width="24" height="24" viewBox="0 0 24 24" fill="none"><rect width="24" height="24" fill="none"/>
<path fill-rule="evenodd" clip-rule="evenodd" d="M8 5C8 3.89543 8.89543 3 10 3H14C15.1046 3 16 3.89543 16 5V6.99951H20C21.1046 6.99951 22 7.89494 22 8.99951V10.9995H2V8.99951C2 7.89494 2.89543 6.99951 4 6.99951H8V5ZM14 5V6.99951H10V5H14Z" fill="#000000"/>
<path fill-rule="evenodd" clip-rule="evenodd" d="M22 12.9995H2V18.9995C2 20.1041 2.89543 20.9995 4 20.9995H20C21.1046 20.9995 22 20.1041 22 18.9995V12.9995ZM14 13C14 14.1046 13.1046 15 12 15C10.8954 15 10 14.1046 10 13H14Z" fill="#000000"/>
</svg>
