<svg xmlns="http://www.w3.org/2000/svg" width="16" height="16" viewBox="0 0 16 16" fill="none"><rect width="16" height="16" fill="none"/>
<g clip-path="url(#clip0_18363_1158)">
<path d="M6.58452 1.99927C6.41045 2.44282 6.25698 2.94333 6.13067 3.49969L9.86933 3.49969C9.74302 2.94333 9.58955 2.44282 9.41548 1.99927C9.00159 0.944687 8.49266 0.262257 8 -0.116211C7.50733 0.262257 6.9984 0.944687 6.58452 1.99927Z" fill="#000000"/>
<path d="M1.50337 3.49969C2.45729 1.85063 4.02106 0.598497 5.88629 0.0516614C5.6235 0.46779 5.3899 0.937337 5.18821 1.45127C4.94931 2.05999 4.74956 2.74418 4.59663 3.49969L1.50337 3.49969Z" fill="#000000"/>
<path d="M0.843352 4.99969C0.620265 5.70997 0.5 6.46578 0.5 7.24969C0.5 8.03359 0.620265 8.78941 0.843352 9.49969L4.36655 9.49969C4.29033 8.79663 4.25 8.04577 4.25 7.24953C4.25 6.4534 4.29032 5.70266 4.36652 4.99969H0.843352Z" fill="#000000"/>
<path d="M1.50337 10.9997C2.16201 12.1383 3.11139 13.0877 4.25 13.7463V10.9997H1.50337Z" fill="#000000"/>
<path fill-rule="evenodd" clip-rule="evenodd" d="M5.75 10.9998H15.5V16.2498H5.75V10.9998ZM12.5 13.6248C12.5 14.6603 11.6605 15.4998 10.625 15.4998C9.58947 15.4998 8.75 14.6603 8.75 13.6248C8.75 12.5892 9.58947 11.7498 10.625 11.7498C11.6605 11.7498 12.5 12.5892 12.5 13.6248Z" fill="#000000"/>
<path d="M15.5 7.24969C15.5 8.03359 15.3797 8.78941 15.1566 9.49969H11.6334C11.7097 8.79663 11.75 8.04577 11.75 7.24953C11.75 6.4534 11.7097 5.70266 11.6335 4.99969L15.1566 4.99969C15.3797 5.70997 15.5 6.46578 15.5 7.24969Z" fill="#000000"/>
<path d="M10.1137 0.0516615C11.9789 0.598497 13.5427 1.85063 14.4966 3.49969L11.4034 3.49969C11.2504 2.74418 11.0507 2.05999 10.8118 1.45127C10.6101 0.937337 10.3765 0.46779 10.1137 0.0516615Z" fill="#000000"/>
<path d="M5.87609 4.99969C5.79465 5.68816 5.75 6.43856 5.75 7.24953C5.75 8.06062 5.79467 8.81113 5.87613 9.49969H10.1239C10.2053 8.81113 10.25 8.06062 10.25 7.24953C10.25 6.43856 10.2053 5.68816 10.1239 4.99969H5.87609Z" fill="#000000"/>
</g>
<defs>
<clipPath id="clip0_18363_1158">
<rect width="16" height="16" fill="white"/>
</clipPath>
</defs>
</svg>
