<svg xmlns="http://www.w3.org/2000/svg" width="16" height="16" viewBox="0 0 16 16" fill="none"><rect width="16" height="16" fill="none"/>
<path fill-rule="evenodd" clip-rule="evenodd" d="M3.32438 7.21729L2.22024 8.32142C0.723461 9.81822 0.723461 12.245 2.22024 13.7417L2.35712 13.8786C3.8539 15.3754 6.28067 15.3754 7.77745 13.8786L9.9858 11.6702C11.4826 10.1735 11.4826 7.74671 9.9858 6.24993L9.849 6.11305C9.6958 5.95993 9.533 5.82248 9.3624 5.70068L7.90521 7.15786C8.09701 7.24611 8.27671 7.36924 8.43474 7.52727L8.57161 7.66414C9.2873 8.37988 9.2873 9.54032 8.57161 10.256L6.36324 12.4644C5.6475 13.1801 4.48707 13.1801 3.77133 12.4644L3.63446 12.3275C2.91872 11.6118 2.91872 10.4514 3.63446 9.73562L4.73859 8.6315L3.32438 7.21729Z" fill="#000000"/>
<path fill-rule="evenodd" clip-rule="evenodd" d="M13.0247 8.6316L14.1289 7.52745C15.6256 6.03067 15.6256 3.6039 14.1289 2.10712L13.992 1.97025C12.4952 0.47346 10.0684 0.47346 8.57165 1.97024L6.36327 4.17862C4.86649 5.6754 4.86649 8.10217 6.36327 9.59896L6.50015 9.73586C6.65325 9.88896 6.81609 10.0264 6.98667 10.1482L8.44384 8.69099C8.25205 8.60275 8.07237 8.47962 7.91436 8.32161L7.77749 8.18474C7.06175 7.469 7.06175 6.30857 7.77749 5.59283L9.9859 3.38446C10.7016 2.66872 11.862 2.66872 12.5778 3.38446L12.7146 3.52133C13.4304 4.23707 13.4304 5.3975 12.7146 6.11324L11.6105 7.21739L13.0247 8.6316Z" fill="#000000"/>
</svg>
