<svg xmlns="http://www.w3.org/2000/svg" width="24" height="24" viewBox="0 0 24 24" fill="none"><rect width="24" height="24" fill="none"/>
<path d="M3.99984 4.63281C3.24484 4.63281 2.63281 5.24485 2.63281 5.99982C2.63281 6.7548 3.24484 7.36684 3.99984 7.36684C4.75484 7.36684 5.36688 6.75481 5.36688 5.99982C5.36688 5.24485 4.75484 4.63281 3.99984 4.63281Z" fill="#000000"/>
<path d="M7.99981 5H19.9998V7H7.99981V5Z" fill="#000000"/>
<path d="M19.9998 11H7.99981V13H19.9998V11Z" fill="#000000"/>
<path d="M19.9998 17H7.99981V19H19.9998V17Z" fill="#000000"/>
<path d="M2.63281 11.9998C2.63281 11.2448 3.24484 10.6328 3.99984 10.6328C4.75484 10.6328 5.36688 11.2448 5.36688 11.9998C5.36688 12.7548 4.75484 13.3668 3.99984 13.3668C3.24484 13.3668 2.63281 12.7548 2.63281 11.9998Z" fill="#000000"/>
<path d="M3.99984 16.6331C3.24484 16.6331 2.63281 17.2451 2.63281 18.0001C2.63281 18.755 3.24484 19.3671 3.99984 19.3671C4.75484 19.3671 5.36688 18.7551 5.36688 18.0001C5.36688 17.2451 4.75484 16.6331 3.99984 16.6331Z" fill="#000000"/>
</svg>
