<svg xmlns="http://www.w3.org/2000/svg" width="16" height="16" viewBox="0 0 16 16" fill="none"><rect width="16" height="16" fill="none"/>
<g clip-path="url(#clip0_92210_20901)">
<path d="M8.56516 0.234376C8.2526 -0.0781253 7.74588 -0.0781253 7.43332 0.234376L4.96683 2.70058C4.65429 3.01309 4.65429 3.51976 4.96683 3.83227L7.43388 6.29902C7.74644 6.61153 8.25316 6.61153 8.56572 6.29902L11.0323 3.83281C11.3447 3.5203 11.3447 3.01363 11.0323 2.70112L8.56516 0.234376Z" fill="#000000"/>
<path d="M12.1657 4.96702C12.4783 4.65452 12.985 4.65451 13.2976 4.96702L15.7656 7.43478C16.0782 7.74725 16.0782 8.25395 15.7656 8.56642L13.2981 11.0336C12.9856 11.3461 12.4788 11.3461 12.1663 11.0336L9.69829 8.56586C9.38573 8.25339 9.38573 7.74669 9.69829 7.43422L12.1657 4.96702Z" fill="#000000"/>
<path d="M8.56691 9.69964C8.25435 9.38717 7.74763 9.38717 7.43507 9.69964L4.96684 12.1676C4.65428 12.4801 4.65428 12.9867 4.96684 13.2993L7.43347 15.7656C7.74603 16.0781 8.25275 16.0781 8.56531 15.7656L11.0335 13.2977C11.3461 12.9852 11.3461 12.4785 11.0335 12.166L8.56691 9.69964Z" fill="#000000"/>
<path d="M2.7017 4.96703C3.01424 4.65452 3.52099 4.65452 3.83353 4.96703L6.30201 7.43519C6.61453 7.74774 6.61453 8.25436 6.30201 8.56691L3.83472 11.0339C3.52218 11.3464 3.01544 11.3464 2.7029 11.0339L0.234407 8.56571C-0.0781357 8.25316 -0.0781357 7.74654 0.234407 7.43399L2.7017 4.96703Z" fill="#000000"/>
</g>
<defs>
<clipPath id="clip0_92210_20901">
<rect width="16" height="16" fill="white"/>
</clipPath>
</defs>
</svg>
