<svg xmlns="http://www.w3.org/2000/svg" width="24" height="24" viewBox="0 0 24 24" fill="none"><rect width="24" height="24" fill="none"/>
<path fill-rule="evenodd" clip-rule="evenodd" d="M12 20C16.4183 20 20 16.4183 20 12C20 7.58172 16.4183 4 12 4C7.58172 4 4 7.58172 4 12C4 16.4183 7.58172 20 12 20ZM18.4 12C18.4 15.5346 15.5346 18.4 12 18.4C8.46538 18.4 5.6 15.5346 5.6 12C5.6 8.46538 8.46538 5.6 12 5.6C15.5346 5.6 18.4 8.46538 18.4 12Z" fill="#000000"/>
<path fill-rule="evenodd" clip-rule="evenodd" d="M11.1338 8.03769V11.8272C11.1338 12.6224 11.5031 13.3711 12.1307 13.8482L14.2907 15.2798L15.2876 13.9324L13.1276 12.5008C12.9184 12.3418 12.7953 12.0923 12.7953 11.8272V8.03769H11.1338Z" fill="#000000"/>
</svg>
