<svg xmlns="http://www.w3.org/2000/svg" width="24" height="24" viewBox="0 0 24 24" fill="none"><rect width="24" height="24" fill="none"/>
<path fill-rule="evenodd" clip-rule="evenodd" d="M1.5 20.5C1.5 21.6046 2.39543 22.5 3.5 22.5L14.5 22.5C15.6046 22.5 16.5 21.6046 16.5 20.5L16.5 16.5L1.5 16.5L1.5 20.5ZM6.5 18.5H3.5L3.5 20H6.5L6.5 18.5Z" fill="#000000"/>
<path d="M1.5 14.5L16.5 14.5V13.5C16.5 12.3954 15.6046 11.5 14.5 11.5L3.5 11.5C2.39543 11.5 1.5 12.3954 1.5 13.5L1.5 14.5Z" fill="#000000"/>
<path d="M18.5 18.5H20.4999C21.0522 18.5 21.4999 18.0523 21.4999 17.5L21.4999 8.63996C21.4999 6.8651 19.9675 5.47825 18.2014 5.65485L17.2499 5.75L17.3451 4.79851C17.5217 3.03246 16.1348 1.5 14.36 1.5L8.89993 1.5C8.34765 1.5 7.89993 1.94772 7.89993 2.5L7.89993 9.5L14.5 9.5C16.7091 9.5 18.5 11.2909 18.5 13.5V18.5Z" fill="#000000"/>
</svg>
