<svg xmlns="http://www.w3.org/2000/svg" width="24" height="24" viewBox="0 0 24 24" fill="none"><rect width="24" height="24" fill="none"/>
<path d="M14 12C14 13.1046 13.1046 14 12 14C10.8954 14 10 13.1046 10 12C10 10.8954 10.8954 10 12 10C13.1046 10 14 10.8954 14 12Z" fill="#000000"/>
<path fill-rule="evenodd" clip-rule="evenodd" d="M0 12C2.08759 7.32696 6.75226 4 11.9999 4C17.2476 4 21.9124 7.32696 24 12C21.9124 16.6731 17.2477 20 12 20C6.75232 20 2.08759 16.6731 0 12ZM12 17C14.7614 17 17 14.7614 17 12C17 9.23857 14.7614 7 12 7C9.23857 7 7 9.23857 7 12C7 14.7614 9.23857 17 12 17Z" fill="#000000"/>
</svg>
