<svg xmlns="http://www.w3.org/2000/svg" width="24" height="24" viewBox="0 0 24 24" fill="none"><rect width="24" height="24" fill="none"/>
<path d="M11 2C14 2 15 4.58841 15 7.12821C15 9.668 13.2275 11.7436 11 11.7436C8.77251 11.7436 6.99999 9.71541 6.99999 7.12821C6.99999 4.541 7.99998 2 11 2Z" fill="#000000"/>
<path d="M15.6855 16.6056L16.3401 15.9198C14.9956 15.2853 13.2313 14.8205 11 14.8205C6.9917 14.8205 4.32062 16.5146 3.05402 17.8763C2.45203 18.5235 2.05899 19.0563 2 19.9487V22H10.8025C9.85325 20.9117 10.1738 19.3775 10.8965 18.6029L11.6703 17.7753L12.444 16.9822C13.259 16.1288 14.5445 15.9517 15.557 16.5304L15.6761 16.5984L15.6855 16.6056Z" fill="#000000"/>
<path d="M12.4475 20.812C12.1249 20.59 12.165 20.1773 12.356 19.9725L13.8876 18.3687C14.0626 18.1855 14.3406 18.1456 14.5618 18.272L15.8877 19.2927L19.3221 15.6945L18.2418 14.4185C18.1051 14.2035 18.132 13.924 18.307 13.7408L19.8386 12.137C20.0739 11.8906 20.4757 11.9155 20.6818 12.1893L21.3637 13.0951C21.9744 13.9063 22.082 15.0196 21.5625 15.9313C20.1072 18.4854 18.7289 19.9587 16.22 21.5294C15.824 21.7773 15.3832 21.9021 14.9423 21.9138C14.397 21.9281 13.8517 21.7692 13.3914 21.4554L12.4475 20.812Z" fill="#000000"/>
</svg>
