<svg xmlns="http://www.w3.org/2000/svg" width="16" height="16" viewBox="0 0 16 16" fill="none"><rect width="16" height="16" fill="none"/>
<g clip-path="url(#clip0_92232_23511)">
<path d="M8.79979 0H7.1998V8.79999H8.79979V0Z" fill="#000000"/>
<path d="M0.799805 8.80001C0.799805 5.97304 2.42905 3.52659 4.7998 2.34843V4.20377C3.34901 5.21572 2.3998 6.89702 2.3998 8.80001C2.3998 11.8928 4.907 14.4 7.99979 14.4C11.0926 14.4 13.5998 11.8928 13.5998 8.80001C13.5998 6.89702 12.6506 5.21572 11.1998 4.20377V2.34843C13.5705 3.5266 15.1998 5.97304 15.1998 8.80001C15.1998 12.7765 11.9762 16 7.99979 16C4.02335 16 0.799805 12.7765 0.799805 8.80001Z" fill="#000000"/>
</g>
<defs>
<clipPath id="clip0_92232_23511">
<rect width="16" height="16" fill="white"/>
</clipPath>
</defs>
</svg>
