<svg xmlns="http://www.w3.org/2000/svg" width="24" height="24" viewBox="0 0 24 24" fill="none"><rect width="24" height="24" fill="none"/>
<path fill-rule="evenodd" clip-rule="evenodd" d="M12 9.02771C10.9513 7.23109 9.65792 5.11132 7.26518 5.11132C5.20405 5.11132 3.55449 6.76904 3.55449 8.78774C3.55449 9.81787 3.9795 10.7481 4.67433 11.4196L11.9993 18.9705L19.3246 11.4192C20.0201 10.7474 20.4455 9.81682 20.4455 8.78621C20.4455 6.76751 18.7959 5.10979 16.7347 5.10979C14.3414 5.10979 13.0705 7.22179 12 9.02771ZM11.9993 22.0008L3.19769 12.9398L3.20699 12.9378L3.20336 12.9343C3.20047 12.9315 3.19757 12.9287 3.19468 12.9259C2.65098 12.3973 2.21104 11.7637 1.90806 11.058C1.60877 10.3609 1.44312 9.59356 1.44312 8.78774C1.44312 5.59123 4.04974 2.99994 7.26518 2.99994C8.44581 2.99994 9.54438 3.34929 10.462 3.94968C11.0607 4.34142 11.5823 4.84003 11.9995 5.4182C12.4164 4.83988 12.9379 4.3411 13.5365 3.94917C14.4543 3.34816 15.5534 2.99841 16.7347 2.99841C19.9502 2.99841 22.5568 5.5897 22.5568 8.78621C22.5568 9.59061 22.3918 10.3567 22.0935 11.0527C21.7902 11.7604 21.3492 12.3958 20.804 12.9256C20.8011 12.9285 20.7981 12.9313 20.7952 12.9342L20.7914 12.9378L20.801 12.9398L11.9993 22.0008Z" fill="black"/>
</svg>
