<svg xmlns="http://www.w3.org/2000/svg" width="48" height="48" viewBox="0 0 48 48" fill="none"><rect width="48" height="48" fill="none"/>
<path d="M16.9021 7.3282L22.0015 10.7279V20.5347L13.4945 15.6232L13.1011 9.52269L9.10935 9.78012L9.48639 15.6264L4.23487 18.223L6.00778 21.8086L11.5024 19.0918L20.0015 23.9988L11.4932 28.9111L6.00338 26.1967L4.23047 29.7824L9.48199 32.379L9.10495 38.2252L13.0967 38.4826L13.4904 32.3768L22.0015 27.4629V37.2771L16.9021 40.6768L19.1209 44.005L23.9953 40.7553L28.8698 44.005L31.0886 40.6768L26.0015 37.2854V27.4629L34.5008 32.37L34.895 38.4824L38.8867 38.225L38.5097 32.3787L43.7612 29.7821L41.9883 26.1965L36.5044 28.908L28.0016 23.9988L36.4955 19.0949L41.9839 21.8086L43.7568 18.223L38.5053 15.6264L38.8823 9.78012L34.8906 9.52269L34.4967 15.6301L26.0015 20.5347V10.7196L31.0886 7.3282L28.8698 4L23.9953 7.24965L19.1209 4L16.9021 7.3282Z" fill="#000000"/>
</svg>
