<svg xmlns="http://www.w3.org/2000/svg" width="16" height="16" viewBox="0 0 16 16" fill="none"><rect width="16" height="16" fill="none"/>
<path d="M7.99954 1C9.26192 1 10.2853 2.03589 10.2853 3.31373C10.2853 4.28451 9.69406 5.11348 8.85669 5.45686V5.62745H9.42812C9.90152 5.62745 10.2853 6.01591 10.2853 6.4951C10.2853 6.97429 9.90152 7.36275 9.42812 7.36275H8.85669V13.9469C11.1888 13.58 12.8567 11.7431 12.8567 9.67647H11.5967C11.447 9.67622 11.3725 9.50519 11.4784 9.40533L13.5956 7.40906C13.6613 7.34735 13.7677 7.3472 13.8333 7.40906L15.9505 9.40533C16.0565 9.50526 15.981 9.67647 15.8311 9.67647H14.571C14.571 13.1143 11.5415 15.75 7.99954 15.75C4.45772 15.7498 1.42805 13.1142 1.42805 9.67647H0.16799C0.0183428 9.67622 -0.0562095 9.50519 0.0496849 9.40533L2.16689 7.40906C2.23261 7.34735 2.33901 7.3472 2.40462 7.40906L4.52183 9.40533C4.6278 9.50526 4.55227 9.67647 4.40241 9.67647H3.14235C3.14235 11.7429 4.81071 13.5786 7.14239 13.9458V7.36275H6.57095C6.0977 7.36258 5.7138 6.97418 5.7138 6.4951C5.7138 6.01601 6.0977 5.62762 6.57095 5.62745H7.14239V5.45686C6.30529 5.11335 5.7138 4.28431 5.7138 3.31373C5.7138 2.03599 6.7373 1.00017 7.99954 1ZM7.99954 2.5037C7.55785 2.50386 7.19931 2.86659 7.19931 3.31373C7.19931 3.76087 7.55785 4.12359 7.99954 4.12376C8.44137 4.12376 8.79977 3.76097 8.79977 3.31373C8.79977 2.86648 8.44137 2.5037 7.99954 2.5037Z" fill="#000000"/>
</svg>
