<svg xmlns="http://www.w3.org/2000/svg" width="24" height="24" viewBox="0 0 24 24" fill="none"><rect width="24" height="24" fill="none"/>
<path d="M8.47988 2.5625L2 9.99902L3.39541 19.296C3.54235 20.2749 4.38334 20.9991 5.37326 20.9991H15.1689C14.7435 20.2637 14.5 19.4097 14.5 18.499C14.5 15.7376 16.7386 13.499 19.5 13.499C20.1793 13.499 20.827 13.6345 21.4175 13.8799L21.9999 9.99912L15.5201 2.56253L14.0122 3.87641L19.3472 9.99912H4.65279L9.98777 3.87638L8.47988 2.5625Z" fill="#000000"/>
<path d="M16.6715 19.9133L18.0858 18.4991L16.6715 17.0849L18.0858 15.6707L19.5 17.0849L20.9142 15.6707L22.3284 17.0849L20.9142 18.4991L22.3284 19.9133L20.9142 21.3275L19.5 19.9133L18.0858 21.3275L16.6715 19.9133Z" fill="#000000"/>
</svg>
