<svg xmlns="http://www.w3.org/2000/svg" width="24" height="24" viewBox="0 0 24 24" fill="none"><rect width="24" height="24" fill="none"/>
<path fill-rule="evenodd" clip-rule="evenodd" d="M12 2C6.47715 2 2 6.47715 2 12C2 17.5228 6.47715 22 12 22C17.5228 22 22 17.5228 22 12C22 6.47715 17.5228 2 12 2ZM13.6893 9.23085L12.5794 6.38537C12.379 5.87154 11.621 5.87154 11.4206 6.38537L10.3107 9.23085C10.2238 9.45376 10.0063 9.60526 9.75831 9.61565L6.59263 9.74827C6.02099 9.77222 5.78673 10.4634 6.23451 10.8049L8.71429 12.6962C8.90856 12.8443 8.99164 13.0895 8.92531 13.3188L8.07862 16.2462C7.92572 16.7749 8.53903 17.2021 9.01618 16.8993L11.6586 15.2227C11.8656 15.0913 12.1344 15.0913 12.3414 15.2226L14.9838 16.8993C15.461 17.2021 16.0743 16.7749 15.9214 16.2462L15.0747 13.3188C15.0084 13.0895 15.0914 12.8443 15.2857 12.6962L17.7655 10.8049C18.2133 10.4634 17.979 9.77222 17.4074 9.74827L14.2417 9.61565C13.9937 9.60526 13.7762 9.45376 13.6893 9.23085Z" fill="#000000"/>
</svg>
