<svg xmlns="http://www.w3.org/2000/svg" width="24" height="24" viewBox="0 0 24 24" fill="none"><rect width="24" height="24" fill="none"/>
<path d="M15.627 6.96918H19V8.91363H15.6305C15.2947 9.4965 14.6654 9.88889 13.9444 9.88889C13.2235 9.88889 12.5941 9.4965 12.2584 8.91363H5V6.96918H12.2619C12.5985 6.38966 13.226 6 13.9444 6C14.6629 6 15.2904 6.38966 15.627 6.96918Z" fill="#000000"/>
<path d="M19 14.747H11.7399C11.4037 14.1658 10.7753 13.7747 10.0556 13.7747C9.33584 13.7747 8.70745 14.1658 8.37124 14.747H5V16.6914H8.37124C8.70745 17.2726 9.33584 17.6636 10.0556 17.6636C10.7753 17.6636 11.4037 17.2726 11.7399 16.6914H19V14.747Z" fill="#000000"/>
</svg>
