<svg xmlns="http://www.w3.org/2000/svg" width="24" height="24" viewBox="0 0 24 24" fill="none"><rect width="24" height="24" fill="none"/>
<path d="M19 2C19.5523 2 20 2.44772 20 3.00001V21.7024C20 21.9568 19.7032 22.0957 19.5078 21.9329L17.333 20.1204L15.4346 21.7024C14.9896 22.0733 14.3435 22.0733 13.8984 21.7024L12 20.1204L10.1016 21.7024C9.65655 22.0733 9.01044 22.0733 8.56543 21.7024L6.66699 20.1204L4.49219 21.9329C4.29679 22.0957 4 21.9568 4 21.7024V3.00001C4 2.44772 4.44772 2 5 2H19ZM7 14.0001H13V12.0001H7V14.0001ZM7 10.0001H17V8.00006H7V10.0001Z" fill="#000000"/>
</svg>
