<svg xmlns="http://www.w3.org/2000/svg" width="16" height="16" viewBox="0 0 16 16" fill="none"><rect width="16" height="16" fill="none"/>
<path fill-rule="evenodd" clip-rule="evenodd" d="M5.15034 0.523819C6.15647 0.140566 7.22963 -0.0355769 8.30548 0.00595143C10.3181 0.0888313 12.2259 0.925479 13.6502 2.34979C15.0745 3.77411 15.9112 5.68194 15.994 7.69452C16.0356 8.77037 15.8594 9.84353 15.4762 10.8497C15.0929 11.8558 14.5105 12.7742 13.7637 13.5497C13.0169 14.3253 12.1212 14.9421 11.1303 15.3631C10.1394 15.7842 9.07368 16.0008 7.99703 16C7.54254 16 7.10666 15.8195 6.78529 15.4981C6.46392 15.1767 6.28338 14.7408 6.28338 14.2863V12.1386C6.2839 11.8748 6.2235 11.6144 6.10689 11.3778C5.99028 11.1411 5.8206 10.9346 5.61109 10.7743C5.40157 10.614 5.15787 10.5042 4.89898 10.4535C4.64008 10.4028 4.37297 10.4126 4.11847 10.4821L3.47871 10.6591C3.07022 10.7707 2.64149 10.7865 2.22588 10.7054C1.81026 10.6243 1.41896 10.4484 1.0824 10.1915C0.745833 9.93447 0.473081 9.60332 0.285351 9.22375C0.0976219 8.84419 -2.54145e-05 8.42643 2.21058e-06 8.00297C-0.00079828 6.92632 0.215814 5.86059 0.636852 4.86968C1.05789 3.87877 1.67469 2.98308 2.45026 2.23631C3.22583 1.48954 4.14421 0.907072 5.15034 0.523819ZM8.28267 1.71907C7.49399 1.71907 6.85463 2.35843 6.85463 3.14711C6.85463 3.9358 7.49399 4.57515 8.28267 4.57515C9.07136 4.57515 9.71071 3.9358 9.71071 3.14711C9.71071 2.35843 9.07136 1.71907 8.28267 1.71907ZM4.28416 3.43272C3.49548 3.43272 2.85612 4.07208 2.85612 4.86076C2.85612 5.64945 3.49548 6.2888 4.28416 6.2888C5.07285 6.2888 5.7122 5.64945 5.7122 4.86076C5.7122 4.07208 5.07285 3.43272 4.28416 3.43272ZM10.8531 4.86076C10.8531 4.07208 11.4925 3.43272 12.2812 3.43272C13.0699 3.43272 13.7092 4.07208 13.7092 4.86076C13.7092 5.64945 13.0699 6.2888 12.2812 6.2888C11.4925 6.2888 10.8531 5.64945 10.8531 4.86076ZM13.4236 7.43123C12.6349 7.43123 11.9956 8.07059 11.9956 8.85927C11.9956 9.64796 12.6349 10.2873 13.4236 10.2873C14.2123 10.2873 14.8517 9.64796 14.8517 8.85927C14.8517 8.07059 14.2123 7.43123 13.4236 7.43123Z" fill="#000000"/>
</svg>
