<svg xmlns="http://www.w3.org/2000/svg" width="24" height="24" viewBox="0 0 24 24" fill="none"><rect width="24" height="24" fill="none"/>
<path d="M3.08623 6.5C4.07738 18.3636 12 21 12 21C12 21 19.9226 18.3636 20.9138 6.5C20.9542 6.01549 20.9832 5.5156 20.9995 4.99987C21.017 4.44786 20.5667 4 20.0135 4H3.98651C3.4333 4 2.983 4.44786 3.00049 4.99987C3.01684 5.5156 3.04575 6.01549 3.08623 6.5ZM9.35378 16.0776C7.78347 14.3357 6.04894 11.3859 5.59991 6.5H12L12 18.2383C11.9573 18.214 11.9133 18.1885 11.868 18.1618C11.2055 17.7698 10.2857 17.1113 9.35378 16.0776Z" fill="#000000"/>
</svg>
