<svg xmlns="http://www.w3.org/2000/svg" width="24" height="24" viewBox="0 0 24 24" fill="none"><rect width="24" height="24" fill="none"/>
<path d="M21 9H3V8C3 6.89543 3.89543 6 5 6H19C20.1046 6 21 6.89543 21 8V9Z" fill="#000000"/>
<path d="M5 18H13.9996C13.3719 17.1643 13 16.1256 13 15C13 13.3644 13.7853 11.9122 14.9995 11H3V16C3 17.1046 3.89543 18 5 18Z" fill="#000000"/>
<path d="M19.1498 12.0001C19.1498 12.635 18.635 13.1498 18.0001 13.1498C17.3651 13.1498 16.8503 12.635 16.8503 12.0001C16.8503 11.3651 17.3651 10.8503 18.0001 10.8503C18.635 10.8503 19.1498 11.3651 19.1498 12.0001Z" fill="#000000"/>
<path d="M17 14.5V19H19V14.5H17Z" fill="#000000"/>
</svg>
