<svg xmlns="http://www.w3.org/2000/svg" width="24" height="24" viewBox="0 0 24 24" fill="none"><rect width="24" height="24" fill="none"/>
<path d="M3 8H6.00807L10.3397 5.19715C11.0347 4.70146 12 5.19753 12 6.05034V17.9497C12 18.8025 11.0347 19.2985 10.3397 18.8029L6.00807 16H3C2.44772 16 2 15.5523 2 15V9C2 8.44771 2.44772 8 3 8Z" fill="#000000"/>
<path d="M20.5831 15.9993L18.0003 13.4168L15.4169 16L14 14.5832L16.5834 12L14 9.41683L15.4169 8L18.0003 10.5832L20.5831 8.00065L22 9.41748L19.4173 12L22 14.5825L20.5831 15.9993Z" fill="#000000"/>
</svg>
