<svg xmlns="http://www.w3.org/2000/svg" width="24" height="24" viewBox="0 0 24 24" fill="none"><rect width="24" height="24" fill="none"/>
<path d="M20.0001 7.99999H22.6508C23.1338 7.99999 23.3991 8.56199 23.0921 8.93493L17.4832 15.7528C17.3477 15.9104 17.1688 15.9971 17.0001 16C16.8314 15.9971 16.6524 15.9104 16.5169 15.7528L10.908 8.93493C10.601 8.56199 10.8663 7.99999 11.3493 7.99999L14.0001 7.99999L14.0001 2L20.0001 2V7.99999Z" fill="#000000"/>
<path d="M10.0001 16L12.6508 16C13.1338 16 13.3991 15.438 13.0921 15.0651L7.4832 8.24719C7.34775 8.08963 7.16882 8.00294 7.00009 8C6.83136 8.00294 6.65237 8.08963 6.51692 8.24719L0.907996 15.0651C0.600997 15.438 0.86629 16 1.34934 16L4.00007 16L4.00007 22H10.0001V16Z" fill="#000000"/>
</svg>
