<svg xmlns="http://www.w3.org/2000/svg" width="48" height="48" viewBox="0 0 48 48" fill="none"><rect width="48" height="48" fill="none"/>
<path d="M10 4C8.89544 4 8 4.89544 8 6V42C8 43.1046 8.89544 44 10 44H38C39.1046 44 40 43.1046 40 42V19.6299C40 16.0802 36.935 13.3065 33.403 13.6597L30.4864 13.9514C30.235 13.9765 30.0234 13.765 30.0486 13.5135L30.3402 10.597C30.6936 7.0649 27.9198 4 24.37 4H10ZM19.0982 9.72804C19.0482 9.90898 19.0427 10.1 19.0896 10.2818L20.8229 16.9956C20.9384 17.3565 21 17.7399 21 18.1373C21 20.2706 19.2091 22 17 22C14.7909 22 13 20.2706 13 18.1373C13 17.7399 13.0622 17.3565 13.1776 16.9956L14.9177 10.3257C14.9722 10.1166 14.9582 9.89651 14.8958 9.68964C14.7215 9.11211 14.4643 8.04796 14.2688 7.21038C14.124 6.58962 14.5969 6 15.2344 6L18.8341 6C19.4312 6 19.8733 6.55377 19.7371 7.13507C19.5367 7.98972 19.2674 9.11534 19.0982 9.72804ZM17 16.1207C18.1046 16.1207 19 17.0716 19 18.1382C19 19.2049 18.1046 20.0291 17 20.0291C15.8954 20.0291 15 19.2049 15 18.1382C15 17.0716 15.8954 16.1207 17 16.1207ZM15.7817 28C15.3229 28 14.9229 27.6877 14.8116 27.2425L14.3116 25.2425C14.1538 24.6114 14.6312 24 15.2817 24L18.7202 24C19.3708 24 19.8481 24.6114 19.6903 25.2425L19.1903 27.2425C19.079 27.6877 18.6791 28 18.2202 28L15.7817 28ZM15.7817 34C15.3229 34 14.9229 33.6877 14.8116 33.2425L14.3116 31.2425C14.1538 30.6114 14.6312 30 15.2817 30L18.7202 30C19.3708 30 19.8481 30.6114 19.6903 31.2425L19.1903 33.2425C19.079 33.6877 18.6791 34 18.2202 34H15.7817ZM15.7817 40C15.3229 40 14.9229 39.6877 14.8116 39.2425L14.3116 37.2425C14.1538 36.6114 14.6312 36 15.2817 36H18.7202C19.3708 36 19.8481 36.6114 19.6903 37.2425L19.1903 39.2425C19.079 39.6877 18.6791 40 18.2202 40H15.7817Z" fill="#000000"/>
</svg>
