<svg xmlns="http://www.w3.org/2000/svg" width="24" height="24" viewBox="0 0 24 24" fill="none"><rect width="24" height="24" fill="none"/>
<path fill-rule="evenodd" clip-rule="evenodd" d="M6.75 3.7793C5.50736 3.7793 4.5 4.78666 4.5 6.0293V12.0276C4.5 13.2703 5.50735 14.2776 6.75 14.2776H9.00098V12.7776H6.75C6.33579 12.7776 6 12.4418 6 12.0276V6.0293C6 5.61509 6.33579 5.2793 6.75 5.2793H16.5033C16.9175 5.2793 17.2533 5.61509 17.2533 6.0293V7.52843H12V9.02843H17.2533V12.0276C17.2533 12.4418 16.9175 12.7776 16.5033 12.7776H12.7637L9.29512 7.22901C8.70511 7.94384 8.41314 9.09164 8.9177 9.93137L12.5111 15.6046L12.2345 16.0643C11.7563 15.4196 10.9894 15.0018 10.125 15.0018C8.67525 15.0018 7.5 16.177 7.5 17.6268C7.5 19.0765 8.67525 20.2518 10.125 20.2518C11.1744 20.2518 12.08 19.636 12.5 18.7462L12.5021 18.7477L13.4894 17.1494L14.5016 18.7474C14.9225 19.6354 15.827 20.2495 16.875 20.2495C18.3247 20.2495 19.5 19.0742 19.5 17.6245C19.5 16.1748 18.3247 14.9995 16.875 14.9995C16.0274 14.9995 15.2735 15.4012 14.7936 16.0247L14.4871 15.5344L15.2634 14.2776H16.5033C17.746 14.2776 18.7533 13.2703 18.7533 12.0276V6.0293C18.7533 4.78666 17.746 3.7793 16.5033 3.7793H6.75ZM10.125 18.7518C9.50368 18.7518 9 18.2481 9 17.6268C9 17.0055 9.50368 16.5018 10.125 16.5018C10.7463 16.5018 11.25 17.0055 11.25 17.6268C11.25 18.2481 10.7463 18.7518 10.125 18.7518ZM18 17.6245C18 18.2458 17.4963 18.7495 16.875 18.7495C16.2537 18.7495 15.75 18.2458 15.75 17.6245C15.75 17.0032 16.2537 16.4995 16.875 16.4995C17.4963 16.4995 18 17.0032 18 17.6245Z" fill="#000000"/>
</svg>
