<svg xmlns="http://www.w3.org/2000/svg" width="24" height="24" viewBox="0 0 24 24" fill="none"><rect width="24" height="24" fill="none"/>
<path d="M21.3304 11.1749H13.2278C13.0157 11.1314 12.7931 11.0879 12.5577 11.0444C12.2205 10.9814 12.0869 10.9553 11.9046 10.9183C10.8167 10.7009 10.1615 10.4835 9.63984 10.1748C8.89554 9.72904 8.53292 9.12461 8.53292 8.3245C8.53292 7.52004 8.85525 6.85256 9.46596 6.38945C10.0682 5.93287 10.9249 5.69153 11.9427 5.69153C13.1048 5.69153 14.0018 6.00462 14.6104 6.6221C14.92 6.93518 15.1469 7.32002 15.2847 7.76573C15.3123 7.85487 15.3441 7.98315 15.3759 8.15274C15.395 8.2571 15.4862 8.33102 15.5858 8.33102H17.1296C17.2483 8.33102 17.3437 8.23101 17.3437 8.11143V8.08969C17.3289 7.94184 17.3162 7.82661 17.3013 7.74181C17.1465 6.79603 16.7076 5.96548 16.0354 5.34366C15.0939 4.46311 13.7092 4 12.0339 4C10.5008 4 9.12031 4.39353 8.14699 5.10667C7.60413 5.50673 7.18426 6.00245 6.90435 6.57861C6.61808 7.16782 6.47388 7.84835 6.47388 8.59845C6.47388 9.23984 6.59475 9.78339 6.84074 10.2617C7.01674 10.6031 7.25636 10.9031 7.56384 11.1749H2.66964C2.57634 11.1749 2.5 11.2532 2.5 11.3488V12.6533C2.5 12.749 2.57634 12.8273 2.66964 12.8273H11.8558C11.9003 12.836 11.9385 12.8447 11.9809 12.8534C12.6362 12.9882 13.0306 13.0795 13.3932 13.1839C13.8809 13.3252 14.2541 13.473 14.5637 13.6513C15.3229 14.0905 15.694 14.721 15.694 15.5864C15.694 16.3539 15.3653 17.0387 14.7694 17.5171C14.1227 18.0367 13.1663 18.3085 12.0021 18.3085C11.0754 18.3085 10.2908 18.1237 9.66529 17.7649C9.04821 17.4105 8.62411 16.8996 8.39933 16.2538C8.38237 16.206 8.36328 16.1408 8.34208 16.0582C8.31663 15.9625 8.22969 15.8951 8.13638 15.8951H6.44632C6.32757 15.8951 6.23214 15.9951 6.23214 16.1147V16.1364C6.23638 16.1864 6.24062 16.2277 6.24487 16.2604C6.3827 17.3214 6.88739 18.1911 7.74408 18.8433C8.74286 19.5999 10.1488 20 11.8113 20C13.5968 20 15.0939 19.5695 16.1414 18.7542C16.6715 18.3433 17.0787 17.8367 17.3522 17.254C17.6279 16.6648 17.77 15.9951 17.77 15.2646C17.77 14.5732 17.647 13.9948 17.3925 13.4948C17.2695 13.2513 17.1147 13.0273 16.9302 12.8251H21.3304C21.4237 12.8251 21.5 12.7468 21.5 12.6512V11.3466C21.4994 11.3009 21.4813 11.2572 21.4496 11.2251C21.4178 11.1929 21.375 11.1749 21.3304 11.1749Z" fill="#000000"/>
</svg>
