<svg xmlns="http://www.w3.org/2000/svg" width="24" height="24" viewBox="0 0 24 24" fill="none"><rect width="24" height="24" fill="none"/>
<path d="M12 1C11.4477 1 11 1.44772 11 2V2.54962C10.0232 2.64681 9.06416 2.88606 8.15389 3.26123C6.93452 3.76373 5.82657 4.50037 4.89332 5.42896C3.96005 6.35754 3.21974 7.4599 2.71467 8.67316C2.12248 10.0957 2 11.5 2 13H11V19.966C11 20.5371 10.5371 21 9.96601 21C9.52096 21 9.12583 20.7152 8.98509 20.293L8.94868 20.1838C8.77404 19.6598 8.20772 19.3767 7.68377 19.5513C7.15983 19.726 6.87667 20.2923 7.05132 20.8162L7.08772 20.9254C7.50069 22.1643 8.66009 23 9.96601 23C11.6416 23 13 21.6416 13 19.966V13H22C22 11.5 21.8775 10.0957 21.2853 8.67316C20.7803 7.4599 20.0399 6.35754 19.1067 5.42896C18.1734 4.50037 17.0655 3.76373 15.8461 3.26123C14.9358 2.88606 13.9768 2.64681 13 2.54962V2C13 1.44772 12.5523 1 12 1Z" fill="#000000"/>
</svg>
