<svg xmlns="http://www.w3.org/2000/svg" width="24" height="24" viewBox="0 0 24 24" fill="none"><rect width="24" height="24" fill="none"/>
<path fill-rule="evenodd" clip-rule="evenodd" d="M3 6.99975H21C21.5523 6.99975 22 7.44747 22 7.99977V20.9998C22 21.5521 21.5523 21.9997 21 21.9997H3C2.44772 21.9997 2 21.5521 2 20.9998V7.99977C2 7.44747 2.44772 6.99975 3 6.99975Z" fill="#F94F0D"/>
<path fill-rule="evenodd" clip-rule="evenodd" d="M11.9927 2.26855C15.2614 2.26855 16.7657 5.87851 17.2597 8.83575L17.2555 8.83591L17.2598 8.85858C17.2811 9.09633 17.1238 9.30904 16.8967 9.36979L16.8085 9.3852C16.5354 9.40862 16.2946 9.21079 16.2707 8.94333L16.2725 8.95258C15.8251 6.5102 14.6172 3.27097 11.9927 3.27097C9.36596 3.27097 8.17238 6.50916 7.7354 8.95462C7.69889 9.21595 7.46072 9.40858 7.19098 9.3855C6.91783 9.36208 6.71579 9.12629 6.73966 8.85887C6.74034 8.8515 6.74115 8.8442 6.74213 8.837L6.7257 8.83575C7.21966 5.87851 8.72404 2.26855 11.9927 2.26855Z" fill="#1B1B1B"/>
<path fill-rule="evenodd" clip-rule="evenodd" d="M6.95272 17.3782H17.0473V11.8065H6.95272V17.3782Z" fill="#FFFFFE"/>
<path fill-rule="evenodd" clip-rule="evenodd" d="M7.20098 17.1395H16.7991V12.0452H7.20098V17.1395Z" fill="#000002"/>
<path fill-rule="evenodd" clip-rule="evenodd" d="M8.35936 16.1843V16.2226H8.21936V16.5027H8.17051V16.2226H8.02838V16.1843H8.35936ZM14.7149 16.1843C14.8383 16.1843 14.8794 16.271 14.8794 16.3435C14.8794 16.4161 14.8383 16.5027 14.7149 16.5027C14.5915 16.5027 14.5485 16.4161 14.5485 16.3435C14.5485 16.271 14.5915 16.1843 14.7149 16.1843ZM15.3541 16.1843L15.4391 16.4643L15.5299 16.1843H15.5859L15.6748 16.4643L15.7616 16.1843H15.8062L15.7038 16.5027H15.6458L15.5587 16.2226L15.4681 16.5027H15.4101L15.3097 16.1843H15.3541ZM12.4294 16.1843C12.5526 16.1843 12.5957 16.271 12.5957 16.3435C12.5957 16.4161 12.5526 16.5027 12.4294 16.5027C12.306 16.5027 12.2648 16.4161 12.2648 16.3435C12.2648 16.271 12.306 16.1843 12.4294 16.1843ZM8.90974 16.1843C8.9826 16.1843 9.06017 16.2026 9.06485 16.273H9.01064C9.00596 16.2307 8.95677 16.2187 8.90034 16.2187C8.84864 16.2187 8.80634 16.2407 8.80634 16.273C8.80634 16.2892 8.81817 16.3074 8.86277 16.3134L8.99183 16.3314C9.05077 16.3395 9.07647 16.3677 9.07647 16.4061C9.07647 16.4665 9.01306 16.5027 8.90974 16.5027C8.80877 16.5027 8.75017 16.4705 8.74549 16.404H8.79936C8.79936 16.4443 8.84396 16.4685 8.91217 16.4685C8.98489 16.4685 9.02477 16.4443 9.02477 16.4101C9.02477 16.3275 8.75489 16.4021 8.75489 16.277C8.75489 16.2187 8.81349 16.1843 8.90974 16.1843ZM9.51464 16.1843V16.3725C9.51464 16.4304 9.55477 16.4677 9.62817 16.4677C9.70136 16.4677 9.74149 16.4304 9.74149 16.3725V16.1843H9.79353V16.3684C9.79353 16.4572 9.72502 16.5027 9.62817 16.5027C9.53111 16.5027 9.4626 16.4572 9.4626 16.3684V16.1843H9.51464ZM11.5598 16.1843L11.669 16.4643L11.7765 16.1843H11.8345V16.5027H11.7981V16.2163L11.6888 16.5027H11.6508L11.54 16.2163H11.5382V16.5027H11.5036V16.1843H11.5598ZM13.9714 16.1843C14.0503 16.1843 14.1095 16.2206 14.1139 16.271H14.0612C14.0526 16.2327 14.0132 16.2187 13.9693 16.2187C13.8923 16.2187 13.8377 16.259 13.8377 16.3435C13.8377 16.4282 13.8923 16.4685 13.9693 16.4685C14.0132 16.4685 14.0569 16.4505 14.0656 16.4101H14.1182C14.1074 16.4766 14.0393 16.5027 13.9582 16.5027C13.842 16.5027 13.7872 16.4262 13.7872 16.3435C13.7872 16.271 13.8333 16.1843 13.9714 16.1843ZM10.2357 16.1843L10.3444 16.4643L10.4529 16.1843H10.5106V16.5027H10.4744V16.2163L10.3641 16.5027H10.3262L10.2159 16.2163H10.2144V16.5027H10.1797V16.1843H10.2357ZM13.1904 16.1843C13.2631 16.1843 13.3406 16.2026 13.3476 16.273H13.2937C13.289 16.2307 13.2374 16.2187 13.1809 16.2187C13.1316 16.2187 13.0896 16.2407 13.0896 16.273C13.0896 16.2892 13.1011 16.3074 13.1434 16.3134L13.2749 16.3314C13.3312 16.3395 13.357 16.3677 13.357 16.4061C13.357 16.4665 13.2959 16.5027 13.1904 16.5027C13.0918 16.5027 13.0331 16.4705 13.026 16.404H13.0801C13.0824 16.4443 13.1269 16.4685 13.1926 16.4685C13.2677 16.4685 13.3076 16.4443 13.3076 16.4101C13.3076 16.3275 13.0378 16.4021 13.0378 16.277C13.0378 16.2187 13.094 16.1843 13.1904 16.1843ZM14.7149 16.2187C14.6423 16.2187 14.5934 16.269 14.5934 16.3435C14.5934 16.418 14.6423 16.4685 14.7149 16.4685C14.7853 16.4685 14.8344 16.418 14.8344 16.3435C14.8344 16.269 14.7853 16.2187 14.7149 16.2187ZM12.4294 16.2187C12.3588 16.2187 12.3099 16.269 12.3099 16.3435C12.3099 16.418 12.3588 16.4685 12.4294 16.4685C12.5017 16.4685 12.5508 16.418 12.5508 16.3435C12.5508 16.269 12.5017 16.2187 12.4294 16.2187ZM10.4759 12.8412V15.2291H10.3799V12.8412H10.4759ZM13.2891 12.8412V15.2291H13.1931V12.8412H13.2891ZM8.39962 13.3153V13.3871H8.19579V14.8389H9.01932V13.3871H8.81545V13.3153H9.51775V13.3871H9.31183V14.8389H9.51775V15.0801H9.48881V15.0758C9.48881 15.0092 9.4337 14.924 9.36153 14.9121L9.3446 14.9107H7.6974V14.8389H7.90128V13.3871H7.6974V13.3153H8.39962ZM14.8172 13.3188L15.2337 14.4755L15.6426 13.3188H16.1371V13.3845H15.9502V14.845H16.1371V14.9107H15.4732V14.845H15.6718V13.4679L15.1791 14.845H15.0702L14.5719 13.4937H14.568V14.6642C14.568 14.8073 14.5875 14.845 14.7003 14.845H14.784V14.9107H14.3168V14.845H14.3714C14.4776 14.845 14.501 14.8116 14.5034 14.6884L14.5036 13.3845H14.3168V13.3188H14.8172ZM11.4892 13.3188V13.386H11.4051C11.3332 13.386 11.3052 13.4076 11.3052 13.4433C11.3052 13.4801 11.3194 13.5201 11.3507 13.5896L11.3632 13.6171L11.7553 14.5058L12.3274 13.386H12.1414V13.3188H12.8274V13.386H12.6475L11.9013 14.8455H12.0874V14.9107H11.4033V14.8455H11.5831L11.7172 14.581L11.2372 13.5045C11.2115 13.4466 11.1876 13.3953 11.119 13.3871L11.0992 13.386H11.0071V13.3188H11.4892Z" fill="#FFFFFE"/>
<path fill-rule="evenodd" clip-rule="evenodd" d="M10.8416 16.5027H11.1726V16.1843H10.8416V16.5027Z" fill="#F94F0D"/>
</svg>
