<svg xmlns="http://www.w3.org/2000/svg" width="16" height="16" viewBox="0 0 16 16" fill="none"><rect width="16" height="16" fill="none"/>
<path fill-rule="evenodd" clip-rule="evenodd" d="M4 3C3.44771 3 3 3.44772 3 4C3 4.55228 3.44771 5 4 5C4.55228 5 5 4.55228 5 4C5 3.44772 4.55228 3 4 3ZM7 4C7 5.65685 5.65685 7 4 7C2.34314 7 1 5.65685 1 4C1 2.34315 2.34314 1 4 1C5.65685 1 7 2.34315 7 4Z" fill="#000000"/>
<path fill-rule="evenodd" clip-rule="evenodd" d="M12 13C12.5522 13 13 12.5523 13 12C13 11.4477 12.5522 11 12 11C11.4477 11 11 11.4477 11 12C11 12.5523 11.4477 13 12 13ZM9 12C9 10.3431 10.3431 9 12 9C13.6568 9 15 10.3431 15 12C15 13.6568 13.6568 15 12 15C10.3431 15 9 13.6568 9 12Z" fill="#000000"/>
<path d="M12.0549 1.61194L13.587 2.89752L3.94515 14.3882L2.41306 13.1026L12.0549 1.61194Z" fill="#000000"/>
</svg>
