<svg xmlns="http://www.w3.org/2000/svg" width="24" height="24" viewBox="0 0 24 24" fill="none"><rect width="24" height="24" fill="none"/>
<path d="M3 2V2.06252C2.99999 4.35511 2.99998 6.16074 3.16128 7.59155C3.32632 9.0555 3.67075 10.2503 4.44653 11.2613C4.81893 11.7467 5.25335 12.1811 5.73867 12.5535C6.74969 13.3293 7.9445 13.6737 9.40845 13.8387C10.8393 14 12.6449 14 14.9375 14H18.4923L14.8359 17.7383L16.2657 19.1367L22.268 13L16.2657 6.86328L14.8359 8.26174L18.4923 12H15C12.6312 12 10.9382 11.9985 9.6325 11.8513C8.34691 11.7064 7.56102 11.4309 6.95619 10.9668C6.60953 10.7008 6.29924 10.3905 6.03323 10.0438C5.56913 9.43898 5.29362 8.65309 5.14869 7.3675C5.00149 6.06176 5 4.36883 5 2H3Z" fill="#000000"/>
</svg>
