<svg xmlns="http://www.w3.org/2000/svg" width="16" height="16" viewBox="0 0 16 16" fill="none"><rect width="16" height="16" fill="none"/>
<path d="M8.60831 3.99946C9.43366 3.99946 10.1027 3.32801 10.1027 2.49973C10.1027 1.67145 9.43366 1 8.60831 1C7.78295 1 7.11386 1.67145 7.11386 2.49973C7.11386 3.32801 7.78295 3.99946 8.60831 3.99946Z" fill="#000000"/>
<path d="M5.15628 5.60961C4.62618 5.72989 4.49763 5.9269 4.08706 6.68261C3.6765 7.43832 3.33493 8.22096 3.33493 8.22096C3.21863 8.47965 3.31653 8.78468 3.56144 8.92659C3.80635 9.06847 4.11854 9.00104 4.28361 8.77061L5.28375 7.48544L5.28491 7.48525L6.77491 7.23603L5.99979 9.00001C5.8917 9.43396 6.23131 9.64304 6.61793 9.86563L9.13789 11.3164L10.3894 14.4972C10.4758 14.8064 10.658 15 10.9907 15C11.3722 15 11.4758 14.6776 11.4394 14.3401C11.4394 14.3401 11.1582 12.0043 11.0787 11.1995C10.9991 10.3946 10.9521 10.0773 10.4879 9.81006L8.263 8.50741L9.07656 6.24161C9.15802 5.91467 9.06984 5.56855 8.84205 5.32091C8.61426 5.0733 8.27747 4.95751 7.94621 5.01289C7.94621 5.01289 5.68639 5.48933 5.15628 5.60961Z" fill="#000000"/>
<path d="M6.11761 10.998L7.84325 11.9979L5.79117 14.7946C5.62083 15.0268 5.30346 15.0932 5.05423 14.9488C4.81044 14.8075 4.70731 14.508 4.8124 14.2465L6.11761 10.998Z" fill="#000000"/>
<path d="M11.2228 8.59196L9.43822 7.78369L9.8471 6.25232L11.7706 7.63992C12.0002 7.80557 12.0674 8.11887 11.926 8.36464C11.7846 8.61042 11.4806 8.70866 11.2228 8.59196Z" fill="#000000"/>
</svg>
