<svg xmlns="http://www.w3.org/2000/svg" width="24" height="24" viewBox="0 0 24 24" fill="none"><rect width="24" height="24" fill="none"/>
<path d="M7.16536 14.6012L6.35859 15.4375V19H4V5H6.35859V13.0135H6.46279L10.2422 8.80785H12.9702L8.89847 13.1651L13.1881 19H10.4127L7.16536 14.6012Z" fill="#000000"/>
<path d="M17.1664 11.8106C16.977 12.1642 16.8823 12.5873 16.8823 13.0798V19H14.5237V8.80785H16.8823V10.475H16.9865C17.1507 9.894 17.4475 9.44249 17.8769 9.12043C18.3063 8.79206 18.8336 8.62788 19.4587 8.62788C19.6229 8.62788 19.7776 8.63735 19.9229 8.65629C20.0744 8.67524 20.2039 8.69734 20.3112 8.7226V10.8444C20.166 10.8065 20.0018 10.7749 19.8187 10.7497C19.6419 10.7244 19.4524 10.7118 19.2503 10.7118C18.7641 10.7118 18.3442 10.8065 17.9905 10.9959C17.6369 11.1854 17.3622 11.4569 17.1664 11.8106Z" fill="#000000"/>
</svg>
