<svg xmlns="http://www.w3.org/2000/svg" width="16" height="16" viewBox="0 0 16 16" fill="none"><rect width="16" height="16" fill="none"/>
<g clip-path="url(#clip0_92216_22205)">
<path fill-rule="evenodd" clip-rule="evenodd" d="M0.370117 8C0.370117 3.58172 3.95184 -1.9073e-07 8.37012 0C8.45463 -9.53623e-08 8.53887 0.00131345 8.62281 0.00392241C8.90898 0.0128175 9.16858 0.173968 9.30352 0.426484C9.43847 0.679 9.42817 0.984379 9.27654 1.22724C8.70217 2.14713 8.37012 3.23357 8.37012 4.4C8.37012 7.71371 11.0564 10.4 14.3701 10.4C14.5066 10.4 14.642 10.3955 14.776 10.3865C15.0615 10.3675 15.3354 10.5023 15.4943 10.7401C15.5868 10.8784 15.6322 11.0392 15.6291 11.2C15.6269 11.3158 15.5996 11.4317 15.5465 11.5391C14.2417 14.1805 11.5191 16 8.37012 16C3.95184 16 0.370117 12.4183 0.370117 8Z" fill="#000000"/>
</g>
<defs>
<clipPath id="clip0_92216_22205">
<rect width="16" height="16" fill="white"/>
</clipPath>
</defs>
</svg>
