<svg xmlns="http://www.w3.org/2000/svg" width="24" height="24" viewBox="0 0 24 24" fill="none"><rect width="24" height="24" fill="none"/>
<path fill-rule="evenodd" clip-rule="evenodd" d="M12.0003 9.02734C10.9515 7.23072 9.65816 5.11095 7.26543 5.11095C5.2043 5.11095 3.55473 6.76868 3.55473 8.78738C3.55473 9.8175 3.97974 10.7477 4.67457 11.4193L11.9996 18.9702L19.3248 11.4188C20.0204 10.747 20.4457 9.81645 20.4457 8.78585C20.4457 6.76715 18.7962 5.10942 16.735 5.10942C14.3416 5.10942 13.0707 7.22143 12.0003 9.02734ZM11.9996 22.0004L3.19793 12.9394L3.20723 12.9374L3.20361 12.9339C3.20071 12.9311 3.19782 12.9283 3.19493 12.9255C2.65123 12.3969 2.21129 11.7633 1.90831 11.0576C1.60901 10.3606 1.44336 9.5932 1.44336 8.78738C1.44336 5.59086 4.04999 2.99958 7.26543 2.99958C8.44606 2.99958 9.54462 3.34893 10.4622 3.94931C11.0609 4.34105 11.5826 4.83966 11.9997 5.41784C12.4166 4.83951 12.9381 4.34073 13.5367 3.9488C14.4546 3.34779 15.5537 2.99805 16.735 2.99805C19.9505 2.99805 22.5571 5.58933 22.5571 8.78585C22.5571 9.59025 22.392 10.3563 22.0937 11.0524C21.7905 11.7601 21.3495 12.3954 20.8042 12.9253C20.8013 12.9281 20.7984 12.9309 20.7954 12.9338L20.7917 12.9374L20.8013 12.9394L11.9996 22.0004Z" fill="#000000"/>
</svg>
