<svg xmlns="http://www.w3.org/2000/svg" width="24" height="24" viewBox="0 0 24 24" fill="none"><rect width="24" height="24" fill="none"/>
<path d="M15.3599 18.355L18.5 21.4951L22.9999 17L21.725 15.7244L18.5 18.9495L16.6327 17.0822L15.3599 18.355Z" fill="#000000"/>
<path d="M10.3599 5.99517C8.80278 4.26507 4.77628 4.03159 2.35849 4.00009C1.80625 3.99289 1.35986 4.44288 1.35986 4.99517V17.9952C1.35986 18.5475 1.80625 18.9929 2.35849 19.0001C4.77628 19.0316 8.80278 19.2651 10.3599 20.9952V13.4952V5.99517Z" fill="#000000"/>
<path d="M12.3599 5.99517C13.9169 4.26507 17.9434 4.03159 20.3612 4.00009C20.9135 3.99289 21.3599 4.44288 21.3599 4.99517V13.9112C20.7474 13.6436 20.071 13.4951 19.3599 13.4951C16.5984 13.4951 14.3599 15.7337 14.3599 18.4951C14.3599 18.9248 14.4141 19.3417 14.516 19.7396C13.6302 20.0301 12.8651 20.4338 12.3599 20.9952V5.99517Z" fill="#000000"/>
</svg>
