<svg xmlns="http://www.w3.org/2000/svg" width="48" height="48" viewBox="0 0 48 48" fill="none"><rect width="48" height="48" fill="none"/>
<path d="M31.254 13.9384H38V17.8273H31.261C30.5895 18.993 29.3308 19.7778 27.8889 19.7778C26.4469 19.7778 25.1883 18.993 24.5168 17.8273H10V13.9384H24.5238C25.1971 12.7793 26.452 12 27.8889 12C29.3258 12 30.5807 12.7793 31.254 13.9384Z" fill="#000000"/>
<path d="M38 29.4939H23.4797C22.8073 28.3315 21.5505 27.5495 20.1111 27.5495C18.6717 27.5495 17.4149 28.3315 16.7425 29.4939H10V33.3828H16.7425C17.4149 34.5452 18.6717 35.3273 20.1111 35.3273C21.5505 35.3273 22.8073 34.5452 23.4797 33.3828H38V29.4939Z" fill="#000000"/>
</svg>
