<svg xmlns="http://www.w3.org/2000/svg" width="16" height="16" viewBox="0 0 16 16" fill="none"><rect width="16" height="16" fill="none"/>
<g clip-path="url(#clip0_109259_16642)">
<path d="M14.2821 15.4129L14.8721 16L16 14.8777L1.12792 0.0790516L0 1.20139L1.59511 2.78863V15.0787C1.59511 15.517 1.9522 15.8723 2.39267 15.8723H13.5585C13.879 15.8723 14.1553 15.6842 14.2821 15.4129Z" fill="#000000"/>
<path d="M14.356 6.20208V11.0192L3.28213 0H8.12311C9.5387 0 10.6448 1.21618 10.5039 2.61775L10.3876 3.77505C10.3776 3.87484 10.4619 3.95876 10.5622 3.94878L11.7253 3.83305C13.1338 3.69289 14.356 4.79352 14.356 6.20208Z" fill="#000000"/>
</g>
<defs>
<clipPath id="clip0_109259_16642">
<rect width="16" height="16" fill="white"/>
</clipPath>
</defs>
</svg>
