<svg xmlns="http://www.w3.org/2000/svg" width="24" height="24" viewBox="0 0 24 24" fill="none"><rect width="24" height="24" fill="none"/>
<path fill-rule="evenodd" clip-rule="evenodd" d="M4.9289 4.9289C1.0237 8.83411 1.0237 15.1657 4.9289 19.0709C8.83411 22.9761 15.1657 22.9761 19.0709 19.0709C22.9761 15.1657 22.9761 8.83411 19.0709 4.9289C15.1657 1.0237 8.83411 1.0237 4.9289 4.9289ZM15 10.7999H11.7C9.6 10.7999 7.5 11.6999 6 13.1999L5.1 14.0999L6.5 15.4999L7.4 14.5999C8.6 13.3999 10.1 12.7999 11.7 12.7999H15L12.1 15.7999L13.5 17.1999L18.7 11.7999L13.5 6.49991L12.1 7.89991L15 10.7999Z" fill="#000000"/>
</svg>
