<svg xmlns="http://www.w3.org/2000/svg" width="24" height="24" viewBox="0 0 24 24" fill="none"><rect width="24" height="24" fill="none"/>
<path d="M13 7H15.7695C15.8752 7 15.978 7.03356 16.0635 7.0957L17.7939 8.9082C17.9232 9.00222 17.9999 9.15268 18 9.3125V11H20V10.5C20 10.2239 20.2239 10 20.5 10H21.5C21.776 10.0002 22 10.224 22 10.5V15.5C22 15.776 21.776 15.9998 21.5 16H20.5C20.2239 16 20 15.7761 20 15.5V14.7998H18V16.7354C18 16.8653 17.9488 16.9907 17.8584 17.084L16.0801 19.8477C15.9859 19.9448 15.856 20 15.7207 20H9.37109C9.15431 19.9999 8.96217 19.8596 8.89551 19.6533L8.12988 17.2842C8.06306 17.078 7.87105 17.0044 7.6543 17.0044H5.5C5.22409 17.0042 5.00009 16.7804 5 16.5044V14H4V15.5C4 15.7761 3.77614 16 3.5 16H2.5C2.22386 16 2 15.7761 2 15.5V10.5C2 10.2239 2.22386 10 2.5 10H3.5C3.77614 10 4 10.2239 4 10.5V12H5V9.31055C5 9.15199 5.07564 9.00249 5.20312 8.9082L7.88574 7.09766C7.97168 7.0341 8.07574 7.0001 8.18262 7H11V6H9.5C9.22386 6 9 5.77614 9 5.5V4.5C9.00021 4.22404 9.22399 4 9.5 4H14.5C14.776 4 14.9998 4.22404 15 4.5V5.5C15 5.77614 14.7761 6 14.5 6H13V7Z" fill="#000000"/>
</svg>
