<svg xmlns="http://www.w3.org/2000/svg" width="48" height="48" viewBox="0 0 48 48" fill="none"><rect width="48" height="48" fill="none"/>
<path fill-rule="evenodd" clip-rule="evenodd" d="M24 44C35.0457 44 44 35.0457 44 24C44 12.9543 35.0457 4 24 4C12.9543 4 4 12.9543 4 24C4 35.0457 12.9543 44 24 44ZM18.2857 17.5C18.2857 14.4624 20.8441 12 24 12C27.1559 12 29.7143 14.4624 29.7143 17.5V20.8H32V31.8C32 33.015 30.9767 34 29.7143 34H18.2857C17.0233 34 16 33.015 16 31.8V20.8H18.2857V17.5ZM27.4286 17.5V20.8H20.5714V17.5C20.5714 15.6775 22.1065 14.2 24 14.2C25.8935 14.2 27.4286 15.6775 27.4286 17.5ZM24 29.5556C25.2624 29.5556 26.2222 28.5484 26.2222 27.3333C26.2222 26.1183 25.2624 25.1111 24 25.1111C22.7376 25.1111 21.7778 26.1183 21.7778 27.3333C21.7778 28.5484 22.7376 29.5556 24 29.5556Z" fill="#000000"/>
<path d="M26.2222 27.3333C26.2222 28.5484 25.215 29.5556 24 29.5556C22.785 29.5556 21.7778 28.5484 21.7778 27.3333C21.7778 26.1183 22.785 25.1111 24 25.1111C25.215 25.1111 26.2222 26.1183 26.2222 27.3333Z" fill="#000000"/>
</svg>
