<svg xmlns="http://www.w3.org/2000/svg" width="24" height="24" viewBox="0 0 24 24" fill="none"><rect width="24" height="24" fill="none"/>
<path fill-rule="evenodd" clip-rule="evenodd" d="M13 0H11V2.01915C7.40083 2.36002 5 4.48026 5 7.69593C5 10.6795 6.8463 12.3355 10.5008 13.1777L11 13.2952V19.102C9.02737 18.8192 8.06001 17.717 7.8262 16.2041L7.80078 16H4.5V16.2041C4.5979 19.6028 7.33162 21.6585 11 21.9821V24H13V21.9924C16.7598 21.6923 19.5 19.6418 19.5 16.1328C19.5 13.0492 17.5244 11.5075 13.6985 10.6224L13 10.4602V4.88449C14.6711 5.15038 15.7775 6.11581 15.9735 7.76731L16 8H19.2997V7.76731C19.1723 4.51366 16.6709 2.33941 13 2.02249V0ZM11 4.90124C9.23446 5.1848 8.45468 6.21876 8.45468 7.41042C8.45468 8.59263 9.06801 9.43067 11 9.98828V4.90124ZM13 13.76V19.1352C15.1543 18.9132 16.0596 17.8814 16.0596 16.4897C16.0596 15.1382 15.3739 14.3698 13 13.76Z" fill="#000000"/>
</svg>
