<svg xmlns="http://www.w3.org/2000/svg" width="48" height="48" viewBox="0 0 48 48" fill="none"><rect width="48" height="48" fill="none"/>
<path fill-rule="evenodd" clip-rule="evenodd" d="M34.5 27.0005C39.1944 27.0005 42.9999 30.8061 43 35.5005C43 40.1949 39.1944 44.0005 34.5 44.0005C30.1298 44.0005 26.5312 40.7023 26.0547 36.4594C25.941 36.4151 25.8075 36.3653 25.6592 36.3159C25.1341 36.1409 24.5307 36.0014 24 36.0014C23.4693 36.0015 22.8659 36.1409 22.3408 36.3159C22.192 36.3655 22.0581 36.4149 21.9443 36.4594C21.4683 40.7027 17.8704 44.0014 13.5 44.0014C8.80558 44.0014 5 40.1959 5 35.5014C5.00008 30.8071 8.80563 27.0014 13.5 27.0014C17.1044 27.0014 20.1828 29.2458 21.4189 32.4126C22.1169 32.2034 23.0322 32.0015 24 32.0014C24.9671 32.0014 25.8821 32.2036 26.5801 32.4126C27.816 29.2452 30.8952 27.0005 34.5 27.0005ZM13.5 31.0014C11.0148 31.0014 9.00008 33.0162 9 35.5014C9 37.9867 11.0147 40.0014 13.5 40.0014C15.9853 40.0014 18 37.9867 18 35.5014C17.9999 33.0162 15.9852 31.0014 13.5 31.0014ZM34.5 31.0005C32.0148 31.0005 30.0001 33.0152 30 35.5005C30 37.9857 32.0147 40.0005 34.5 40.0005C36.9853 40.0005 39 37.9857 39 35.5005C38.9999 33.0152 36.9852 31.0005 34.5 31.0005Z" fill="#000000"/>
<path d="M44 25.0024H4V21.0024H44V25.0024Z" fill="#000000"/>
<path d="M27.9385 4.45553C29.5654 3.68254 31.5024 4.50753 32.0723 6.21627L36 18.0005H12L15.9277 6.21627C16.4976 4.50752 18.4346 3.68253 20.0615 4.45553L22.7119 5.7153C23.5268 6.10262 24.4732 6.10262 25.2881 5.7153L27.9385 4.45553Z" fill="#000000"/>
</svg>
