<svg xmlns="http://www.w3.org/2000/svg" width="16" height="16" viewBox="0 0 16 16" fill="none"><rect width="16" height="16" fill="none"/>
<g clip-path="url(#clip0_92232_22896)">
<path fill-rule="evenodd" clip-rule="evenodd" d="M13.7143 8C13.7143 8.51795 13.6476 9.02057 13.5223 9.5H15.0857C15.1856 9.01534 15.2381 8.5137 15.2381 8C15.2381 3.85786 11.8269 0.5 7.61905 0.5C3.41116 0.5 0 3.85786 0 8C0 12.1421 3.41116 15.5 7.61905 15.5C7.87619 15.5 8.13036 15.4875 8.38095 15.463V13.9536C8.13136 13.9842 7.87707 14 7.61905 14C4.25274 14 1.52381 11.3137 1.52381 8C1.52381 4.68629 4.25274 2 7.61905 2C10.9854 2 13.7143 4.68629 13.7143 8ZM8.7619 4.56066V8C8.7619 8.39783 8.60136 8.77936 8.31559 9.06066L6.25304 11.091L5.17554 10.0303L7.2381 8V4.56066H8.7619ZM16 11V12.5H9.90476V11H16ZM16 14V15.5H9.90476V14H16Z" fill="#000000"/>
</g>
<defs>
<clipPath id="clip0_92232_22896">
<rect width="16" height="16" fill="white"/>
</clipPath>
</defs>
</svg>
