<svg xmlns="http://www.w3.org/2000/svg" width="24" height="24" viewBox="0 0 24 24" fill="none"><rect width="24" height="24" fill="none"/>
<path d="M3.49557 4.51562C2.66958 4.51562 2 5.18024 2 6.00006C2 6.8199 2.66958 7.48451 3.49557 7.48451C4.32156 7.48451 4.99115 6.81991 4.99115 6.00006C4.99115 5.18024 4.32156 4.51562 3.49557 4.51562Z" fill="#000000"/>
<path d="M2 11.9996C2 11.1797 2.66958 10.5152 3.49557 10.5152C4.32156 10.5152 4.99115 11.1797 4.99115 11.9996C4.99115 12.8195 4.32156 13.484 3.49557 13.484C2.66958 13.484 2 12.8195 2 11.9996Z" fill="#000000"/>
<path d="M3.49557 16.5312C2.66958 16.5312 2 17.1958 2 18.0156C2 18.8354 2.66958 19.5001 3.49557 19.5001C4.32156 19.5001 4.99115 18.8355 4.99115 18.0156C4.99115 17.1958 4.32156 16.5312 3.49557 16.5312Z" fill="#000000"/>
<path d="M7 4.99977H22V6.99977H7V4.99977Z" fill="#000000"/>
<path d="M7 10.9998H22V12.9998H7V10.9998Z" fill="#000000"/>
<path d="M7 16.9998H22V18.9998H7V16.9998Z" fill="#000000"/>
</svg>
