<svg xmlns="http://www.w3.org/2000/svg" width="24" height="24" viewBox="0 0 24 24" fill="none"><rect width="24" height="24" fill="none"/>
<path fill-rule="evenodd" clip-rule="evenodd" d="M3 10.8996C3 10.3841 3 10.1264 3.06874 9.89065C3.12962 9.68191 3.22954 9.48662 3.36322 9.31513C3.51416 9.12147 3.7232 8.97068 4.14127 8.6691L10.391 4.16072C10.9695 3.74335 11.2588 3.53467 11.5748 3.454C11.8538 3.38277 12.1462 3.38277 12.4252 3.454C12.7412 3.53467 13.0305 3.74335 13.609 4.16072L19.8587 8.6691C20.2768 8.97068 20.4858 9.12147 20.6368 9.31513C20.7705 9.48662 20.8704 9.68191 20.9313 9.89065C21 10.1264 21 10.3841 21 10.8996V17.2497C21 18.2124 21 18.6937 20.8126 19.0614C20.6478 19.3849 20.3849 19.6478 20.0614 19.8126C19.6937 20 19.2124 20 18.2497 20H5.75031C4.78761 20 4.30626 20 3.93856 19.8126C3.61512 19.6478 3.35215 19.3849 3.18735 19.0614C3 18.6937 3 18.2124 3 17.2497V10.8996ZM14 12H17V15H14V12Z" fill="#747474"/>
</svg>
