<svg xmlns="http://www.w3.org/2000/svg" width="16" height="16" viewBox="0 0 16 16" fill="none"><rect width="16" height="16" fill="none"/>
<path fill-rule="evenodd" clip-rule="evenodd" d="M7.48452 5.15789V8C7.48452 8.5964 7.7604 9.15794 8.22913 9.51579L9.84247 10.5895L10.5871 9.57895L8.97375 8.50526C8.8175 8.38596 8.72554 8.19882 8.72554 8V5.15789H7.48452Z" fill="#000000"/>
<path d="M8.10503 12.7368C10.6753 12.7368 12.7589 10.6161 12.7589 8C12.7589 5.38391 10.6753 3.26316 8.10503 3.26316C5.53478 3.26316 3.45118 5.38391 3.45118 8H2.21016C2.21016 4.68629 4.84938 2 8.10503 2C11.3607 2 13.9999 4.68629 13.9999 8C13.9999 11.3137 11.3607 14 8.10503 14C6.11 14 4.34645 12.9913 3.27984 11.4476C3.2772 11.528 3.27059 11.6171 3.25818 11.7157L3.14093 13.0526H1.8999V9.26316L5.62298 9.26316V10.5263L4.24544 10.6476C5.08169 11.9081 6.49827 12.7368 8.10503 12.7368Z" fill="#000000"/>
</svg>
