<svg xmlns="http://www.w3.org/2000/svg" width="24" height="24" viewBox="0 0 24 24" fill="none"><rect width="24" height="24" fill="none"/>
<path fill-rule="evenodd" clip-rule="evenodd" d="M20 4C20 2.89543 19.1046 2 18 2L6 2C4.89543 2 4 2.89543 4 4L4 20C4 21.1046 4.89543 22 6 22L18 22C19.1046 22 20 21.1046 20 20V4ZM12 19C12.8284 19 13.5 18.3284 13.5 17.5C13.5 16.6716 12.8284 16 12 16C11.1716 16 10.5 16.6716 10.5 17.5C10.5 18.3284 11.1716 19 12 19ZM16.5 11C17.1904 11 17.75 11.5596 17.75 12.25V17.75C17.75 18.4404 17.1904 19 16.5 19C15.8096 19 15.25 18.4404 15.25 17.75L15.25 12.25C15.25 11.5596 15.8096 11 16.5 11ZM6 6C6 5.44772 6.44772 5 7 5L17 5C17.5523 5 18 5.44772 18 6L18 8L6 8L6 6ZM7.5 19C8.3284 19 9 18.3284 9 17.5C9 16.6716 8.3284 16 7.5 16C6.6716 16 6 16.6716 6 17.5C6 18.3284 6.6716 19 7.5 19ZM13.5 12.5C13.5 13.3284 12.8284 14 12 14C11.1716 14 10.5 13.3284 10.5 12.5C10.5 11.6716 11.1716 11 12 11C12.8284 11 13.5 11.6716 13.5 12.5ZM9 12.5C9 13.3284 8.3284 14 7.5 14C6.6716 14 6 13.3284 6 12.5C6 11.6716 6.6716 11 7.5 11C8.3284 11 9 11.6716 9 12.5Z" fill="#000000"/>
</svg>
