<svg xmlns="http://www.w3.org/2000/svg" width="24" height="24" viewBox="0 0 24 24" fill="none"><rect width="24" height="24" fill="none"/>
<path d="M8 10.4C8 9.55992 8 9.13988 8.16349 8.81901C8.3073 8.53677 8.53677 8.3073 8.81901 8.16349C9.13988 8 9.55992 8 10.4 8H13.6C14.4401 8 14.8601 8 15.181 8.16349C15.4632 8.3073 15.6927 8.53677 15.8365 8.81901C16 9.13988 16 9.55992 16 10.4V13.6C16 14.4401 16 14.8601 15.8365 15.181C15.6927 15.4632 15.4632 15.6927 15.181 15.8365C14.8601 16 14.4401 16 13.6 16H10.4C9.55992 16 9.13988 16 8.81901 15.8365C8.53677 15.6927 8.3073 15.4632 8.16349 15.181C8 14.8601 8 14.4401 8 13.6V10.4Z" fill="#000000"/>
</svg>
