<svg xmlns="http://www.w3.org/2000/svg" width="16" height="16" viewBox="0 0 16 16" fill="none"><rect width="16" height="16" fill="none"/>
<path d="M5 6.23276V4.0845H6.3209V3.4676C6.3209 1.84914 7.18657 1 9.62687 1C10.2015 1 10.6418 1.03629 11 1.08709V2.9015C10.8881 2.88699 10.6418 2.85796 10.306 2.85796C9.54478 2.85796 9.29104 3.17729 9.29104 3.72162V4.0845H10.9552V6.23276H9.3806V12.2784C9.3806 14.0492 8.26119 15 6.09701 15C5.64925 15 5.28358 14.9782 5.03731 14.9565V12.8808C5.13433 12.9025 5.27612 12.9025 5.41791 12.9025C6.04478 12.9025 6.3209 12.7138 6.3209 12.2856V6.23276H5Z" fill="#000000"/>
</svg>
