<svg xmlns="http://www.w3.org/2000/svg" width="24" height="24" viewBox="0 0 24 24" fill="none"><rect width="24" height="24" fill="none"/>
<path d="M16 7C16.5523 7 17 7.44772 17 8V16C17 16.5523 16.5523 17 16 17H14C13.4477 17 13 16.5523 13 16V8C13 7.44772 13.4477 7 14 7H16Z" fill="#000000"/>
<path fill-rule="evenodd" clip-rule="evenodd" d="M17 4C18.6569 4 20 5.34315 20 7V17C20 18.6569 18.6569 20 17 20H7L6.8457 19.9961C5.26055 19.9158 4 18.6051 4 17V7C4 5.34315 5.34315 4 7 4H17ZM7 5C5.89543 5 5 5.89543 5 7V17C5 18.1046 5.89543 19 7 19H17C18.1046 19 19 18.1046 19 17V7C19 5.89543 18.1046 5 17 5H7Z" fill="#000000"/>
</svg>
