<svg xmlns="http://www.w3.org/2000/svg" width="24" height="24" viewBox="0 0 24 24" fill="none"><rect width="24" height="24" fill="none"/>
<path fill-rule="evenodd" clip-rule="evenodd" d="M5 4C5 2.89543 5.89543 2 7 2H17C18.1046 2 19 2.89543 19 4V20C19 21.1046 18.1046 22 17 22H7C5.89543 22 5 21.1046 5 20L5 4ZM9.40502 7.57534C8.76359 8.34506 8.44287 8.72992 8.43797 9.05495C8.43371 9.33752 8.55962 9.60634 8.77942 9.78396C9.03226 9.98828 9.53323 9.98828 10.5352 9.98828H13.4479C14.4499 9.98828 14.9509 9.98828 15.2037 9.78396C15.4235 9.60634 15.5494 9.33752 15.5451 9.05495C15.5402 8.72992 15.2195 8.34506 14.5781 7.57534L13.1217 5.82769C12.7336 5.36195 12.5395 5.12908 12.3072 5.04416C12.1034 4.96966 11.8797 4.96966 11.6759 5.04416C11.4436 5.12908 11.2495 5.36195 10.8614 5.82768L9.40502 7.57534ZM8.44237 14.9333C8.44727 15.2584 8.76798 15.6432 9.40942 16.4129L10.8658 18.1606C11.2539 18.6263 11.448 18.8592 11.6803 18.9441C11.8841 19.0186 12.1078 19.0186 12.3116 18.9441C12.5439 18.8592 12.738 18.6263 13.1261 18.1606L14.5825 16.4129C15.2239 15.6432 15.5446 15.2584 15.5495 14.9333C15.5538 14.6508 15.4279 14.3819 15.2081 14.2043C14.9552 14 14.4543 14 13.4523 14H10.5396C9.53763 14 9.03665 14 8.78382 14.2043C8.56402 14.3819 8.4381 14.6508 8.44237 14.9333Z" fill="#000000"/>
</svg>
