<svg xmlns="http://www.w3.org/2000/svg" width="24" height="24" viewBox="0 0 24 24" fill="none"><rect width="24" height="24" fill="none"/>
<path d="M19.5 12C19.5 7.85786 16.1421 4.5 12 4.5C9.41059 4.5 7.12768 5.81224 5.77999 7.808L8 8V10L2 10V4H4L4.18895 6.11678C4.20896 6.27293 4.21962 6.41396 4.22386 6.54135C5.94278 4.09716 8.78487 2.5 12 2.5C17.2467 2.5 21.5 6.75329 21.5 12C21.5 17.2467 17.2467 21.5 12 21.5C6.75329 21.5 2.5 17.2467 2.5 12H4.5C4.5 16.1421 7.85786 19.5 12 19.5C16.1421 19.5 19.5 16.1421 19.5 12Z" fill="#000000"/>
<path d="M11 12V7.5H13V12C13 12.3148 13.1482 12.6111 13.4 12.8L16 14.5L14.8 16.1L12.2 14.4C11.4446 13.8334 11 12.9443 11 12Z" fill="#000000"/>
</svg>
