<svg xmlns="http://www.w3.org/2000/svg" width="16" height="16" viewBox="0 0 16 16" fill="none"><rect width="16" height="16" fill="none"/>
<path d="M2.00146 5.80597L10.216 13.9984L10.5085 13.8268L10.5503 13.5906C10.7817 12.2856 11.2565 11.2616 12.196 10.3243L12.7327 9.78894C13.5486 8.97517 13.9979 7.88919 13.9979 6.73055C13.9979 4.28549 11.698 2.00195 9.25659 2.00195C8.09482 2.00195 7.00591 2.45007 6.18995 3.26383L5.65303 3.79916C4.71331 4.73607 3.6607 5.18375 2.35224 5.41451L2.11582 5.4562L2.00146 5.80597Z" fill="#000000"/>
<path d="M3.40317 10.8101C3.40317 10.2874 3.63367 9.81852 3.99858 9.49957L6.45683 11.9512C6.13781 12.3182 5.66758 12.5501 5.14317 12.5501C4.18219 12.5501 3.40317 11.7711 3.40317 10.8101Z" fill="#000000"/>
</svg>
