<svg xmlns="http://www.w3.org/2000/svg" width="16" height="16" viewBox="0 0 16 16" fill="none"><rect width="16" height="16" fill="none"/>
<path d="M12.8753 1.6007H3.9436C3.49587 1.60072 3.13212 1.95681 3.13065 2.39754C3.12948 2.84015 3.49403 3.20021 3.9436 3.20023H14.5V16H3.1247C2.22718 16 1.5 15.2829 1.5 14.3993V2.39988C1.50368 1.07707 2.59993 1.99074e-05 3.9436 0H12.8753V1.6007ZM7.23704 6.59968L5.15647 12.5994H6.72047L7.1204 11.2811H9.14503L9.53186 12.5994H11.2506L9.16645 6.59968H7.23704ZM8.18211 7.95078L8.84865 10.1843H7.42153L8.09998 7.95078H8.18211Z" fill="#000000"/>
</svg>
