<svg xmlns="http://www.w3.org/2000/svg" width="24" height="24" viewBox="0 0 24 24" fill="none"><rect width="24" height="24" fill="none"/>
<path d="M12 4C16.4183 4 20 7.58172 20 12C20 16.4183 16.4183 20 12 20C7.58172 20 4 16.4183 4 12C4 7.58172 7.58172 4 12 4ZM10.418 12.8C10.4922 14.5199 10.8006 16.0073 11.2227 17.0625C11.4676 17.6748 11.7196 18.063 11.9172 18.2719C11.9486 18.3051 11.9772 18.3293 12 18.3492C12.0228 18.3293 12.0514 18.3051 12.0828 18.2719C12.2804 18.063 12.5324 17.6748 12.7773 17.0625C13.1994 16.0073 13.5078 14.5199 13.582 12.8H10.418ZM5.65156 12.8C5.95685 15.2474 7.64264 17.2641 9.90625 18.0477C9.30486 16.7447 8.89867 14.891 8.81563 12.8H5.65156ZM15.1844 12.8C15.1013 14.8912 14.6944 16.7447 14.093 18.0477C16.3569 17.2643 18.0431 15.2477 18.3484 12.8H15.1844ZM9.90625 5.95156C7.64252 6.73506 5.95686 8.75249 5.65156 11.2H8.81563C8.89868 9.10864 9.3047 7.25451 9.90625 5.95156ZM11.9172 5.72813C11.7196 5.93701 11.4676 6.3252 11.2227 6.9375C10.8006 7.99275 10.4922 9.48011 10.418 11.2H13.582C13.5078 9.48011 13.1994 7.99275 12.7773 6.9375C12.5324 6.3252 12.2804 5.93701 12.0828 5.72813C12.0512 5.69467 12.0228 5.67 12 5.65C11.9772 5.67 11.9488 5.69467 11.9172 5.72813ZM14.093 5.95156C14.6946 7.25452 15.1013 9.10848 15.1844 11.2H18.3484C18.0431 8.75224 16.357 6.73489 14.093 5.95156Z" fill="#000000"/>
</svg>
