<svg xmlns="http://www.w3.org/2000/svg" width="24" height="24" viewBox="0 0 24 24" fill="none"><rect width="24" height="24" fill="none"/>
<path d="M13.2454 5C12.0717 5 11.0273 5.32118 10.163 5.92053L7.82732 3.58485C9.30213 2.55587 11.1438 2 13.2454 2C17.5881 2 20.8601 4.5506 21.5049 8C21.507 8.01079 18 8 18 8C17.3721 6.25774 15.5761 5 13.2454 5Z" fill="#000000"/>
<path fill-rule="evenodd" clip-rule="evenodd" d="M5.19906 6.61328L2.00003 3.41424L3.41422 2L22 20.5858L20.5858 22L18.8675 20.2817C17.4345 21.3786 15.5129 22 13.2454 22C8.66402 22 5.33735 19.4009 4.32385 15H2V13H4.03359C4.0112 12.6754 4 12.3398 4 11.9931C4 11.6494 4.01183 11.3291 4.0355 11H2V9H4.33028C4.53225 8.13305 4.82466 7.3353 5.19906 6.61328ZM16.6002 18.0144L13.5858 15H7.97339C8.79445 17.5409 10.7086 19 13.2594 19C14.6491 19 15.7743 18.6376 16.6002 18.0144ZM11.5858 13H7.58639C7.55399 12.6754 7.54279 12.3398 7.54279 11.9931C7.54279 11.6504 7.55455 11.3194 7.57808 11H9.58579L11.5858 13Z" fill="#000000"/>
</svg>
