<svg xmlns="http://www.w3.org/2000/svg" width="24" height="24" viewBox="0 0 24 24" fill="none"><rect width="24" height="24" fill="none"/>
<path d="M14.9999 7.03693C14.9999 5.0376 14.1833 3 11.9999 3C9.81644 3 8.99989 5.00028 8.99989 7.03693C8.99989 9.07359 10.3787 10.75 11.9999 10.75C13.6211 10.75 14.9999 9.03626 14.9999 7.03693Z" fill="#000000"/>
<path d="M17.9999 17V20.25H5.99989V17C5.99989 16 7.91257 12.75 11.9999 12.75C16.0872 12.75 17.9999 16 17.9999 17Z" fill="#000000"/>
<path d="M17.4999 10.7888C17.4999 9.15999 18.0681 7.5 19.7727 7.5C21.4774 7.5 21.9999 9.12958 21.9999 10.7888C21.9999 12.448 21.0384 13.7487 19.7727 13.7487C18.507 13.7487 17.4999 12.4176 17.4999 10.7888Z" fill="#000000"/>
<path d="M6.49989 10.7888C6.49989 9.15999 5.97759 7.5 4.27296 7.5C2.56833 7.5 2.00012 9.12958 2.00012 10.7888C2.00012 12.448 3.00728 13.7487 4.27296 13.7487C5.53864 13.7487 6.49989 12.4176 6.49989 10.7888Z" fill="#000000"/>
<path d="M19.2588 15.25C19.7815 15.25 20.9006 15.4413 21.509 15.7548C22.4724 16.2513 22.4374 17.4422 22.4999 18.3816V20.2499L19.9999 20.2499V17C20.0088 16.5 19.7588 15.75 19.2588 15.25Z" fill="#000000"/>
<path d="M4.7411 15.25C4.21836 15.25 3.09927 15.4413 2.49093 15.7548C1.52747 16.2513 1.56248 17.4422 1.5 18.3816V20.2499L4 20.2499V17C3.9911 16.5 4.2411 15.75 4.7411 15.25Z" fill="#000000"/>
</svg>
