<svg xmlns="http://www.w3.org/2000/svg" width="16" height="16" viewBox="0 0 16 16" fill="none"><rect width="16" height="16" fill="none"/>
<path d="M8 11C8.55228 11 9 11.4477 9 12C9 12.5523 8.55228 13 8 13C7.44772 13 7 12.5523 7 12C7 11.4477 7.44772 11 8 11Z" fill="#000000"/>
<path d="M11 0C12.6569 0 14 1.34315 14 3V13C14 14.6569 12.6569 16 11 16H5C3.34315 16 2 14.6569 2 13V3C2 1.34315 3.34315 1.61064e-08 5 0H11ZM5 2C4.44772 2 4 2.44772 4 3V13C4 13.5523 4.44772 14 5 14H11C11.5523 14 12 13.5523 12 13V3C12 2.44772 11.5523 2 11 2H5Z" fill="#000000"/>
</svg>
