<svg xmlns="http://www.w3.org/2000/svg" width="48" height="48" viewBox="0 0 48 48" fill="none"><rect width="48" height="48" fill="none"/>
<path d="M37 9.6C37 8.71634 36.2725 8 35.375 8H19.125C18.2275 8 17.5 8.71634 17.5 9.6V11.2H32.125C33.0225 11.2 33.75 11.9163 33.75 12.8V33.6H35.375C36.2725 33.6 37 32.8837 37 32V9.6Z" fill="#000000"/>
<path d="M28.875 14.4C29.7725 14.4 30.5 15.1163 30.5 16V38.4C30.5 39.2837 29.7725 40 28.875 40H12.625C11.7275 40 11 39.2837 11 38.4V16C11 15.1163 11.7275 14.4 12.625 14.4H28.875Z" fill="#000000"/>
</svg>
