<svg xmlns="http://www.w3.org/2000/svg" width="24" height="24" viewBox="0 0 24 24" fill="none"><rect width="24" height="24" fill="none"/>
<path d="M15.1123 2.93158C16.7964 2.78393 18.2699 4.05642 18.3691 5.74408L18.4424 6.99799H19C20.6569 6.99799 22 8.34113 22 9.99799V17.998C21.9999 19.6548 20.6568 20.998 19 20.998H5C3.34319 20.998 2.00007 19.6548 2 17.998V6.83002C2.00011 5.27486 3.18905 3.97764 4.73828 3.84174L15.1123 2.93158ZM4 17.998C4.00007 18.5502 4.44776 18.998 5 18.998H19C19.5522 18.998 19.9999 18.5502 20 17.998V9.99799C20 9.4457 19.5523 8.99799 19 8.99799H4V17.998ZM17 11.998C18.1046 11.998 19 12.8934 19 13.998C19 15.1025 18.1045 15.998 17 15.998C15.8955 15.998 15 15.1025 15 13.998C15 12.8934 15.8954 11.998 17 11.998ZM15.2871 4.92377L4.91309 5.83392C4.39673 5.87922 4.00011 6.3117 4 6.83002V6.99799H16.4395L16.373 5.86127C16.3399 5.29885 15.8484 4.87464 15.2871 4.92377Z" fill="#000000"/>
</svg>
