<svg xmlns="http://www.w3.org/2000/svg" width="24" height="24" viewBox="0 0 24 24" fill="none"><rect width="24" height="24" fill="none"/>
<path d="M11 1.75C14 1.75 15 4.2737 15 6.75C15 9.2263 13.2275 11.25 11 11.25C8.7725 11.25 6.99998 9.27253 6.99998 6.75C6.99998 4.22747 7.99997 1.75 11 1.75Z" fill="#000000"/>
<path d="M11 14C6.9917 14 4.32062 15.8877 3.05402 17.405C2.45203 18.1261 2.05899 18.7199 2 19.7143V22H11.5895C10.773 21.0152 10.7841 19.518 11.7493 18.5524L13.3457 16.9552C14.1833 16.1173 15.4781 15.9689 16.4815 16.5743L16.5985 16.6448L16.6303 16.6705L17.3542 15.9465C15.8842 14.8943 13.7589 14 11 14Z" fill="#000000"/>
<path d="M21.8193 12.2371C21.6161 11.9534 21.2079 11.9185 20.9626 12.1639L19.3663 13.761C19.1839 13.9434 19.1499 14.2274 19.2839 14.4496L20.3543 15.775L16.7729 19.3564L15.4484 18.2869C15.2263 18.1529 14.9425 18.187 14.7601 18.3694L13.1638 19.9665C12.9185 20.2119 12.9534 20.6202 13.237 20.8236L14.1752 21.4962C15.0155 22.0987 16.1513 22.1818 17.067 21.6314C19.6325 20.0894 21.0996 18.6514 22.639 16.0603C22.8819 15.6513 22.9986 15.1996 23 14.7506C23.0017 14.1952 22.827 13.6439 22.4966 13.1827L21.8193 12.2371Z" fill="#000000"/>
</svg>
