<svg xmlns="http://www.w3.org/2000/svg" width="24" height="24" viewBox="0 0 24 24" fill="none"><rect width="24" height="24" fill="none"/>
<path d="M19 11H17.3C17.3 11.745 17.145 12.435 16.865 13.05L18.095 14.28C18.665 13.305 19 12.19 19 11ZM14.985 11.165C14.985 11.11 15 11.055 15 11V5C15 3.34 13.655 2 12 2C10.345 2 9 3.34 9 5V5.185L14.985 11.165ZM4.275 3L3 4.275L9.01 10.285V11.005C9.01 12.66 10.345 14.005 12 14.005C12.225 14.005 12.44 13.975 12.65 13.93L14.31 15.59C13.595 15.92 12.81 16.105 12 16.105C9.24 16.105 6.7 14.005 6.7 11.005H5C5 14.42 7.72 17.24 11 17.725V21H13V17.72C13.905 17.585 14.765 17.27 15.54 16.815L19.725 21L21 19.73L4.275 3Z" fill="#000000"/>
</svg>
