<svg xmlns="http://www.w3.org/2000/svg" width="24" height="24" viewBox="0 0 24 24" fill="none"><rect width="24" height="24" fill="none"/>
<path d="M20 22V19.9487C19.9485 19.1692 19.6051 18.5649 19.1082 17.9726C17.9748 16.6216 15.3924 14.8205 11 14.8205C6.9917 14.8205 4.32062 16.5146 3.05402 17.8763C2.45203 18.5235 2.05899 19.0563 2 19.9487V22H20Z" fill="#000000"/>
<path d="M11 2C14 2 15 4.58841 15 7.12821C15 9.668 13.2275 11.7436 11 11.7436C8.77251 11.7436 6.99999 9.71541 6.99999 7.12821C6.99999 4.541 7.99999 2 11 2Z" fill="#000000"/>
<path d="M19.6342 4.29316C20.0245 3.90249 20.6577 3.90225 21.0484 4.29263C22.3489 5.59221 22.9996 7.29767 22.9996 9C22.9996 10.7023 22.3489 12.4078 21.0484 13.7074C20.6577 14.0978 20.0245 14.0975 19.6342 13.7068C19.2438 13.3162 19.244 12.683 19.6347 12.2926C20.5449 11.3831 20.9996 10.1931 20.9996 9C20.9996 7.8069 20.5449 6.61693 19.6347 5.70737C19.244 5.317 19.2438 4.68383 19.6342 4.29316Z" fill="#000000"/>
<path d="M18.2628 6.87871C17.8722 6.48818 17.2391 6.48818 16.8486 6.87871C16.458 7.26923 16.458 7.9024 16.8486 8.29292C17.044 8.48838 17.1414 8.74255 17.1415 9.00001C17.1415 9.25749 17.044 9.51167 16.8486 9.70714C16.458 10.0977 16.458 10.7308 16.8486 11.1213C17.2391 11.5119 17.8722 11.5119 18.2628 11.1213C18.8484 10.5357 19.1415 9.76622 19.1415 8.99999C19.1414 8.23378 18.8484 7.46429 18.2628 6.87871Z" fill="#000000"/>
</svg>
