<svg xmlns="http://www.w3.org/2000/svg" width="16" height="16" viewBox="0 0 16 16" fill="none"><rect width="16" height="16" fill="none"/>
<path d="M6.4178 3.33301C6.17128 3.33301 5.95138 3.48799 5.86845 3.72015L4.8268 6.63682C4.80339 6.70235 4.7924 6.76846 4.79232 6.83301C4.79189 7.14269 5.04233 7.41635 5.37614 7.41635H10.6252C10.959 7.41635 11.2094 7.14269 11.209 6.83301C11.2089 6.76846 11.1979 6.70235 11.1745 6.63682L10.1329 3.72015C10.0499 3.48799 9.82998 3.33301 9.58349 3.33301H6.4178Z" fill="#000000"/>
<path d="M9.73339 8.58301C9.48689 8.58301 9.26699 8.73799 9.18399 8.97015L8.28062 11.4996H7.72067L6.81727 8.97015C6.73435 8.73799 6.51444 8.58301 6.26791 8.58301H3.20948C2.96295 8.58301 2.74304 8.73799 2.66013 8.97015L1.61845 11.8868C1.59505 11.9523 1.58406 12.0184 1.58398 12.083C1.58356 12.3926 1.834 12.6663 2.16781 12.6663H13.8335C14.1673 12.6663 14.4177 12.3926 14.4173 12.083C14.4172 12.0184 14.4063 11.9523 14.3829 11.8868L13.3412 8.97015C13.2583 8.73799 13.0384 8.58301 12.7918 8.58301H9.73339Z" fill="#000000"/>
</svg>
