<svg xmlns="http://www.w3.org/2000/svg" width="24" height="24" viewBox="0 0 24 24" fill="none"><rect width="24" height="24" fill="none"/>
<path d="M5 4C3.89543 4 3 4.89543 3 6H18C19.6569 6 21 7.34315 21 9V17C22.1046 17 23 16.1046 23 15V6C23 4.89543 22.1046 4 21 4L5 4Z" fill="#000000"/>
<path fill-rule="evenodd" clip-rule="evenodd" d="M1 10C1 8.89543 1.89543 8 3 8L17 8C18.1046 8 19 8.89543 19 10V18C19 19.1046 18.1046 20 17 20H3C1.89543 20 1 19.1046 1 18L1 10ZM12 14C12 15.1046 11.1046 16 10 16C8.89543 16 8 15.1046 8 14C8 12.8954 8.89543 12 10 12C11.1046 12 12 12.8954 12 14ZM6 18L3 18V15L6 18ZM17 9.99999H14L17 13V9.99999Z" fill="#000000"/>
</svg>
