<svg xmlns="http://www.w3.org/2000/svg" width="16" height="16" viewBox="0 0 16 16" fill="none"><rect width="16" height="16" fill="none"/>
<path d="M14.875 7.38117H8.90469C8.74844 7.34855 8.58437 7.31594 8.41094 7.28333C8.1625 7.23604 8.06406 7.21647 7.92969 7.18875C7.12813 7.02568 6.64531 6.86262 6.26094 6.63106C5.7125 6.29678 5.44531 5.84346 5.44531 5.24338C5.44531 4.64003 5.68281 4.13942 6.13281 3.79209C6.57656 3.44965 7.20781 3.26865 7.95781 3.26865C8.81406 3.26865 9.475 3.50347 9.92344 3.96657C10.1516 4.20139 10.3188 4.49001 10.4203 4.8243C10.4406 4.89115 10.4641 4.98736 10.4875 5.11455C10.5016 5.19282 10.5687 5.24827 10.6422 5.24827H11.7797C11.8672 5.24827 11.9375 5.17326 11.9375 5.08357V5.06726C11.9266 4.95638 11.9172 4.86996 11.9062 4.80636C11.7922 4.09702 11.4687 3.47411 10.9734 3.00775C10.2797 2.34733 9.25937 2 8.025 2C6.89531 2 5.87812 2.29515 5.16094 2.83C4.76094 3.13004 4.45156 3.50183 4.24531 3.93396C4.03438 4.37587 3.92812 4.88626 3.92812 5.44884C3.92812 5.92988 4.01719 6.33755 4.19844 6.69629C4.32813 6.9523 4.50469 7.17733 4.73125 7.38117H1.125C1.05625 7.38117 1 7.43987 1 7.51162V8.49001C1 8.56176 1.05625 8.62046 1.125 8.62046H7.89375C7.92656 8.62699 7.95469 8.63351 7.98594 8.64003C8.46875 8.74113 8.75938 8.80962 9.02656 8.88789C9.38594 8.99388 9.66094 9.10477 9.88906 9.23848C10.4484 9.56788 10.7219 10.0408 10.7219 10.6898C10.7219 11.2654 10.4797 11.779 10.0406 12.1378C9.56406 12.5275 8.85937 12.7313 8.00156 12.7313C7.31875 12.7313 6.74062 12.5927 6.27969 12.3237C5.825 12.0579 5.5125 11.6747 5.34688 11.1904C5.33438 11.1545 5.32031 11.1056 5.30469 11.0436C5.28594 10.9719 5.22187 10.9213 5.15312 10.9213H3.90781C3.82031 10.9213 3.75 10.9963 3.75 11.086V11.1023C3.75313 11.1398 3.75625 11.1708 3.75938 11.1953C3.86094 11.991 4.23281 12.6433 4.86406 13.1325C5.6 13.7 6.63594 14 7.86094 14C9.17656 14 10.2797 13.6771 11.0516 13.0656C11.4422 12.7574 11.7422 12.3775 11.9438 11.9405C12.1469 11.4986 12.2516 10.9963 12.2516 10.4484C12.2516 9.92988 12.1609 9.49613 11.9734 9.12108C11.8828 8.93844 11.7687 8.77049 11.6328 8.61883H14.875C14.9438 8.61883 15 8.56013 15 8.48838V7.50999C14.9996 7.47567 14.9862 7.44291 14.9628 7.4188C14.9394 7.39468 14.9079 7.38116 14.875 7.38117Z" fill="#000000"/>
</svg>
