<svg xmlns="http://www.w3.org/2000/svg" width="24" height="24" viewBox="0 0 24 24" fill="none"><rect width="24" height="24" fill="none"/>
<path fill-rule="evenodd" clip-rule="evenodd" d="M9.14997 6.44594L6.70208 3.99805L5.5 5.20013L7.46532 7.16545C5.51098 8.22602 3.92105 9.93842 3 12.0002C4.5657 15.505 8.06424 18.0002 12 18.0002C13.7732 18.0002 15.4576 17.4937 16.9165 16.6166L19 18.7001L20.2043 17.5002L18.3113 15.6072L15.2976 12.5935L11.4066 8.70257L9.14997 6.44594ZM19.5039 14.3957C20.106 13.6741 20.6123 12.8681 21 12.0002C19.4343 8.4954 15.9357 6.00018 12 6.00018C11.7133 6.00018 11.429 6.01341 11.1476 6.03931L19.5039 14.3957ZM9.78594 9.48607C9.08941 10.1 8.65 10.9987 8.65 12.0002C8.65 13.8503 10.1498 15.3502 12 15.3502C13.0014 15.3502 13.9002 14.9108 14.5141 14.2142L13.3071 13.0073C13.0054 13.3983 12.5321 13.6502 12 13.6502C11.0887 13.6502 10.35 12.9114 10.35 12.0002C10.35 11.4681 10.6019 10.9948 10.9929 10.6931L9.78594 9.48607Z" fill="#000000"/>
</svg>
