<svg xmlns="http://www.w3.org/2000/svg" width="24" height="24" viewBox="0 0 24 24" fill="none"><rect width="24" height="24" fill="none"/>
<path d="M16 15.5C16 16.8807 14.8807 18 13.5 18C12.1193 18 11 16.8807 11 15.5C11 14.1193 12.1193 13 13.5 13C14.8807 13 16 14.1193 16 15.5Z" fill="#000000"/>
<path fill-rule="evenodd" clip-rule="evenodd" d="M13.8131 2.66888C13.2089 2.21553 12.4472 2 11.5681 2L4 2.00007V22.0001C5.92746 22.0001 7.73922 22.0001 9.514 22.0001C12.957 22.0002 16.2608 22.0002 20.0001 22.0001V10.8149C20.0001 9.83383 19.7918 8.99745 19.3555 8.32864C18.9133 7.65089 18.2913 7.2289 17.6177 6.9919C16.8257 6.71321 15.9425 6.68238 15.1038 6.76716C15.1936 5.9673 15.1795 5.13357 14.959 4.38433C14.77 3.74223 14.4168 3.12182 13.8131 2.66888ZM6 20V3.99998L11.5681 4C12.1193 4 12.4303 4.1317 12.6128 4.26862C12.7958 4.40596 12.9432 4.61889 13.0404 4.94902C13.249 5.65808 13.1608 6.69296 12.8888 7.75097C12.8013 8.09119 12.8987 8.45237 13.1455 8.70241C13.3922 8.95246 13.7521 9.05469 14.0934 8.97172C15.1936 8.70432 16.2394 8.6271 16.9539 8.87852C17.2804 8.99339 17.5155 9.16864 17.6804 9.42148C17.8512 9.68325 18.0001 10.1108 18.0001 10.8149V20.0001C16.2791 20.0001 14.7159 20.0001 13.1851 20C10.8614 20 8.61239 19.9999 6 20Z" fill="#000000"/>
</svg>
