<svg xmlns="http://www.w3.org/2000/svg" width="24" height="24" viewBox="0 0 24 24" fill="none"><rect width="24" height="24" fill="none"/>
<path d="M6.4549 5.63636C7.45905 5.63636 8.27308 4.82234 8.27308 3.81818C8.27308 2.81403 7.45905 2 6.4549 2C5.45075 2 4.63672 2.81403 4.63672 3.81818C4.63672 4.82234 5.45075 5.63636 6.4549 5.63636Z" fill="#000000"/>
<path d="M6.4549 11.0909C7.45905 11.0909 8.27308 10.2769 8.27308 9.27273C8.27308 8.26857 7.45905 7.45455 6.4549 7.45455C5.45075 7.45455 4.63672 8.26857 4.63672 9.27273C4.63672 10.2769 5.45075 11.0909 6.4549 11.0909Z" fill="#000000"/>
<path d="M8.27308 14.7273C8.27308 15.7314 7.45905 16.5455 6.4549 16.5455C5.45075 16.5455 4.63672 15.7314 4.63672 14.7273C4.63672 13.7231 5.45075 12.9091 6.4549 12.9091C7.45905 12.9091 8.27308 13.7231 8.27308 14.7273Z" fill="#000000"/>
<path d="M11.9094 5.63636C12.9136 5.63636 13.7276 4.82234 13.7276 3.81818C13.7276 2.81403 12.9136 2 11.9094 2C10.9053 2 10.0913 2.81403 10.0913 3.81818C10.0913 4.82234 10.9053 5.63636 11.9094 5.63636Z" fill="#000000"/>
<path d="M13.7276 9.27273C13.7276 10.2769 12.9136 11.0909 11.9094 11.0909C10.9053 11.0909 10.0913 10.2769 10.0913 9.27273C10.0913 8.26857 10.9053 7.45455 11.9094 7.45455C12.9136 7.45455 13.7276 8.26857 13.7276 9.27273Z" fill="#000000"/>
<path d="M11.9094 16.5455C12.9136 16.5455 13.7276 15.7314 13.7276 14.7273C13.7276 13.7231 12.9136 12.9091 11.9094 12.9091C10.9053 12.9091 10.0913 13.7231 10.0913 14.7273C10.0913 15.7314 10.9053 16.5455 11.9094 16.5455Z" fill="#000000"/>
<path d="M13.7276 20.1818C13.7276 21.186 12.9136 22 11.9094 22C10.9053 22 10.0913 21.186 10.0913 20.1818C10.0913 19.1777 10.9053 18.3636 11.9094 18.3636C12.9136 18.3636 13.7276 19.1777 13.7276 20.1818Z" fill="#000000"/>
<path d="M17.364 5.63636C18.3681 5.63636 19.1822 4.82234 19.1822 3.81818C19.1822 2.81403 18.3681 2 17.364 2C16.3598 2 15.5458 2.81403 15.5458 3.81818C15.5458 4.82234 16.3598 5.63636 17.364 5.63636Z" fill="#000000"/>
<path d="M19.1822 9.27273C19.1822 10.2769 18.3681 11.0909 17.364 11.0909C16.3598 11.0909 15.5458 10.2769 15.5458 9.27273C15.5458 8.26857 16.3598 7.45455 17.364 7.45455C18.3681 7.45455 19.1822 8.26857 19.1822 9.27273Z" fill="#000000"/>
<path d="M17.364 16.5455C18.3681 16.5455 19.1822 15.7314 19.1822 14.7273C19.1822 13.7231 18.3681 12.9091 17.364 12.9091C16.3598 12.9091 15.5458 13.7231 15.5458 14.7273C15.5458 15.7314 16.3598 16.5455 17.364 16.5455Z" fill="#000000"/>
</svg>
