<svg xmlns="http://www.w3.org/2000/svg" width="16" height="16" viewBox="0 0 16 16" fill="none"><rect width="16" height="16" fill="none"/>
<path fill-rule="evenodd" clip-rule="evenodd" d="M9.74525 2.00016H7.12035C6.78801 2.00016 6.51859 2.27059 6.51859 2.60419C6.51859 2.93778 6.78801 3.20821 7.12035 3.20821H8.92919L5.80448 12.7918H3.60176C3.26942 12.7918 3 13.0622 3 13.3958C3 13.7294 3.26942 13.9998 3.60176 13.9998H6.22687C6.23619 14.0001 6.24549 14.0001 6.25476 13.9998H8.87965C9.21199 13.9998 9.48141 13.7294 9.48141 13.3958C9.48141 13.0622 9.21199 12.7918 8.87965 12.7918H7.07081L10.1955 3.20821H12.3982C12.7306 3.20821 13 2.93778 13 2.60419C13 2.27059 12.7306 2.00016 12.3982 2.00016H9.77312C9.76381 1.99994 9.75451 1.99995 9.74525 2.00016Z" fill="#000000"/>
</svg>
