<svg xmlns="http://www.w3.org/2000/svg" width="16" height="16" viewBox="0 0 16 16" fill="none"><rect width="16" height="16" fill="none"/>
<g clip-path="url(#clip0_126252_7902)">
<path fill-rule="evenodd" clip-rule="evenodd" d="M8 0C3.58172 0 0 3.58172 0 8C0 12.4183 3.58172 16 8 16C12.4183 16 16 12.4183 16 8C16 3.58172 12.4183 0 8 0ZM9.26694 5.94971L8.43458 3.88027C8.28428 3.50658 7.71572 3.50658 7.56542 3.88027L6.73306 5.94971C6.66786 6.11183 6.50473 6.22201 6.31873 6.22956L3.94447 6.32601C3.51574 6.34343 3.34004 6.84613 3.67589 7.0945L5.53572 8.46994C5.68142 8.57769 5.74373 8.75597 5.69398 8.92275L5.05896 11.0518C4.94429 11.4363 5.40427 11.7469 5.76213 11.5268L7.74393 10.3074C7.89918 10.2119 8.10082 10.2119 8.25607 10.3074L10.2379 11.5268C10.5957 11.7469 11.0557 11.4363 10.941 11.0518L10.306 8.92275C10.2563 8.75597 10.3186 8.57769 10.4643 8.46994L12.3241 7.0945C12.66 6.84613 12.4843 6.34343 12.0555 6.32601L9.68127 6.22956C9.49527 6.22201 9.33214 6.11183 9.26694 5.94971Z" fill="#000000"/>
</g>
<defs>
<clipPath id="clip0_126252_7902">
<rect width="16" height="16" fill="white"/>
</clipPath>
</defs>
</svg>
