<svg xmlns="http://www.w3.org/2000/svg" width="24" height="24" viewBox="0 0 24 24" fill="none"><rect width="24" height="24" fill="none"/>
<path d="M14.75 1V3H11V5H14.75V7.51396C13.7176 6.80975 12.4644 6.4 11.1216 6.40039C7.64646 6.40141 4.77242 9.16116 4.77344 12.6363C4.77448 16.1673 7.58335 19.0996 11.1216 19.1007C12.4766 19.1011 13.7251 18.6724 14.75 17.9446V19H17.9936V5H20V3H17.9936V1H14.75ZM8.04609 12.6354C8.04558 10.8887 9.5044 9.40094 11.3951 9.40039C13.2896 9.39984 14.7461 10.8787 14.7461 12.6363C14.7461 14.5885 13.2078 16.1012 11.3951 16.1007C9.58563 16.1001 8.04667 14.5838 8.04609 12.6354Z" fill="#000000"/>
<path d="M5 23V21H18V23H5Z" fill="#000000"/>
</svg>
