<svg xmlns="http://www.w3.org/2000/svg" width="16" height="16" viewBox="0 0 16 16" fill="none"><rect width="16" height="16" fill="none"/>
<path d="M10 8C10.5523 8 11 8.44772 11 9V10C11 10.5523 10.5523 11 10 11H6C5.44772 11 5 10.5523 5 10V9C5 8.44772 5.44772 8 6 8H10Z" fill="#000000"/>
<path fill-rule="evenodd" clip-rule="evenodd" d="M11 2C12.6569 2 14 3.34315 14 5V11C14 12.6569 12.6569 14 11 14H5C3.34315 14 2 12.6569 2 11V5C2 3.34315 3.34315 2 5 2H11ZM5 3C3.89543 3 3 3.89543 3 5V11C3 12.1046 3.89543 13 5 13H11C12.1046 13 13 12.1046 13 11V5C13 3.89543 12.1046 3 11 3H5Z" fill="#000000"/>
</svg>
