<svg xmlns="http://www.w3.org/2000/svg" width="24" height="24" viewBox="0 0 24 24" fill="none"><rect width="24" height="24" fill="none"/>
<path fill-rule="evenodd" clip-rule="evenodd" d="M20 12C20 16.4183 16.4183 20 12 20C7.58172 20 4 16.4183 4 12C4 7.58172 7.58172 4 12 4C16.4183 4 20 7.58172 20 12ZM18.4 12C18.4 15.5346 15.5346 18.4 12 18.4C8.46538 18.4 5.6 15.5346 5.6 12C5.6 8.46538 8.46538 5.6 12 5.6C15.5346 5.6 18.4 8.46538 18.4 12Z" fill="#000000"/>
<path d="M13.3498 9.89258C13.3498 9.89258 13.3452 9.82365 13.3039 9.71387C13.2644 9.60898 13.2005 9.48992 13.1047 9.37988C12.9306 9.18008 12.6023 8.95029 11.9504 8.9502C11.0695 8.9502 10.6298 9.6709 10.5266 10.0771L9.07344 9.70801C9.25688 8.98605 10.0792 7.4502 11.9504 7.4502C13.0178 7.45029 13.7647 7.85507 14.2355 8.39551C14.6756 8.90083 14.8498 9.4982 14.8498 9.89258C14.8498 10.5636 14.6737 11.0762 14.3547 11.4844C14.0661 11.8536 13.6818 12.0965 13.4504 12.2559C13.1886 12.4362 13.0297 12.5638 12.9152 12.7402C12.8092 12.9037 12.7004 13.1766 12.7004 13.7002H11.2004C11.2004 12.9549 11.3595 12.3817 11.6564 11.9238C11.9451 11.4789 12.3242 11.2093 12.5998 11.0195C12.9056 10.8089 13.0586 10.7069 13.173 10.5605C13.257 10.4531 13.3498 10.2788 13.3498 9.89258Z" fill="#000000"/>
<path d="M11.3 15H12.8V16.5H11.3V15Z" fill="#000000"/>
</svg>
