<svg xmlns="http://www.w3.org/2000/svg" width="24" height="24" viewBox="0 0 24 24" fill="none"><rect width="24" height="24" fill="none"/>
<path fill-rule="evenodd" clip-rule="evenodd" d="M5.5 16H11L11 3H5.5C4.11929 3 3 4.11929 3 5.5V13.5C3 14.8807 4.11929 16 5.5 16ZM9 5L9 14H5.5C5.22386 14 5 13.7761 5 13.5L5 5.5C5 5.22386 5.22386 5 5.5 5L9 5Z" fill="#000000"/>
<path fill-rule="evenodd" clip-rule="evenodd" d="M18.5 8H13V21H18.5C19.8807 21 21 19.8807 21 18.5V10.5C21 9.11929 19.8807 8 18.5 8ZM15 19V10H18.5C18.7761 10 19 10.2239 19 10.5V18.5C19 18.7761 18.7761 19 18.5 19H15Z" fill="#000000"/>
</svg>
