<svg xmlns="http://www.w3.org/2000/svg" width="16" height="16" viewBox="0 0 16 16" fill="none"><rect width="16" height="16" fill="none"/>
<g clip-path="url(#clip0_146495_8131)">
<path d="M13.5303 12.4697L12.4697 13.5303L12.0354 13.096L2.90404 3.96459L2.46973 3.53027L3.53027 2.46973L3.96459 2.90404L13.096 12.0354L13.5303 12.4697Z" fill="#000000"/>
<path fill-rule="evenodd" clip-rule="evenodd" d="M0 8C0 12.4183 3.58172 16 8 16C12.4183 16 16 12.4183 16 8C16 3.58172 12.4183 0 8 0C3.58172 0 0 3.58172 0 8ZM14.5 8C14.5 4.41015 11.5899 1.5 8 1.5C6.47528 1.5 5.07318 2.02498 3.96459 2.90404L3.53027 2.46973L2.46973 3.53027L2.90404 3.96459C2.02498 5.07318 1.5 6.47528 1.5 8C1.5 11.5899 4.41015 14.5 8 14.5C9.52472 14.5 10.9268 13.975 12.0354 13.096L12.4697 13.5303L13.5303 12.4697L13.096 12.0354C13.975 10.9268 14.5 9.52472 14.5 8Z" fill="#000000"/>
</g>
<defs>
<clipPath id="clip0_146495_8131">
<rect width="16" height="16" fill="white"/>
</clipPath>
</defs>
</svg>
