<svg xmlns="http://www.w3.org/2000/svg" width="24" height="24" viewBox="0 0 24 24" fill="none"><rect width="24" height="24" fill="none"/>
<path d="M15.75 9.42091C16.5784 9.42091 17.2499 10.0807 17.25 10.8945L17.25 17.5264C17.25 18.3403 16.5784 19 15.75 19L4.50001 19C3.67161 19 3.00004 18.3403 3.00001 17.5264L3.00002 10.8945C3.00013 10.0807 3.67166 9.4209 4.50002 9.4209L15.75 9.42091ZM4.50001 17.5264L15.75 17.5264L15.75 10.8945L4.50002 10.8945L4.50001 17.5264ZM10.25 12.75C11.0784 12.75 11.75 13.4216 11.75 14.25C11.75 15.0784 11.0784 15.75 10.25 15.75C9.42159 15.75 8.75002 15.0784 8.75001 14.25C8.75001 13.4216 9.42159 12.75 10.25 12.75ZM19.5 5.00001C20.3285 5.00001 21 5.65977 21 6.47365L21 13.1055C20.9999 13.9193 20.3284 14.5791 19.5 14.5791L19.5 6.47365L6.75002 6.47364C6.75004 5.65976 7.42161 5.00001 8.25002 5L19.5 5.00001Z" fill="#000000"/>
</svg>
