<svg xmlns="http://www.w3.org/2000/svg" width="24" height="24" viewBox="0 0 24 24" fill="none"><rect width="24" height="24" fill="none"/>
<path fill-rule="evenodd" clip-rule="evenodd" d="M4 9.5V14.5001H5.38458V11.981H5.45381L7.35067 14.5001H8.4791V9.5H7.09453V11.981H7.0253L5.13881 9.5H4ZM9.2261 14.5003V9.50017H12.7498V10.6644H10.6938V11.4753H12.6218V12.5286H10.6938V13.336H12.7498V14.5003H9.2261ZM13.1402 9.50017L14.4279 14.5003H15.8125L16.5325 11.7109H16.6017L17.339 14.5003H18.7132L20.0008 9.50017H18.4916L17.9413 12.5841H17.872L17.1347 9.50017H15.9994L15.2967 12.5841H15.2275L14.6633 9.50017H13.1402Z" fill="#000000"/>
</svg>
