<svg xmlns="http://www.w3.org/2000/svg" width="24" height="24" viewBox="0 0 24 24" fill="none"><rect width="24" height="24" fill="none"/>
<path fill-rule="evenodd" clip-rule="evenodd" d="M21 8.5C21 12.0899 18.0899 15 14.5 15C13.6141 15 12.7696 14.8228 12 14.5018V19H9V22H6L4 20V18L9.07405 12.0803C8.39523 11.0536 8 9.82295 8 8.5C8 4.91015 10.9101 2 14.5 2C18.0899 2 21 4.91015 21 8.5ZM17 8.5C17 9.88071 15.8807 11 14.5 11C13.1193 11 12 9.88071 12 8.5C12 7.11929 13.1193 6 14.5 6C15.8807 6 17 7.11929 17 8.5Z" fill="#000000"/>
</svg>
