<svg xmlns="http://www.w3.org/2000/svg" width="24" height="24" viewBox="0 0 24 24" fill="none"><rect width="24" height="24" fill="none"/>
<path d="M6.49996 1C5.32317 1 4.42897 2.05818 4.62526 3.21848L5.01502 4.52235C5.24953 5.9086 5.06118 7.33334 4.47449 8.61102L3.62197 10.4676C2.58384 12.7284 2.49126 15.3101 3.36477 17.6395L4.62496 21H8.74996L9.88978 17.4539C10.6039 15.2323 10.4598 12.8237 9.48605 10.7031L8.52543 8.61102C7.93874 7.33334 7.75038 5.9086 7.9849 4.52235L8.37465 3.21848C8.57094 2.05818 7.67674 1 6.49996 1Z" fill="#000000"/>
<path fill-rule="evenodd" clip-rule="evenodd" d="M14 21C12.9493 21 11.9527 20.7685 11.0584 20.3538L11.7938 18.0659C12.661 15.3682 12.486 12.4436 11.3036 9.86847L10.4342 7.97502C11.4785 7.35561 12.6977 7 14 7C17.8659 7 21 10.134 21 14C21 17.866 17.8659 21 14 21ZM16.5 13C17.3284 13 18 12.3284 18 11.5C18 10.6716 17.3284 10 16.5 10C15.6715 10 15 10.6716 15 11.5C15 12.3284 15.6715 13 16.5 13Z" fill="#000000"/>
</svg>
