<svg xmlns="http://www.w3.org/2000/svg" width="24" height="24" viewBox="0 0 24 24" fill="none"><rect width="24" height="24" fill="none"/>
<path d="M6.4 12C6.4 8.90721 8.90721 6.4 12 6.4C13.776 6.4 15.359 7.22678 16.3849 8.51644L14.4 8.8V10.4H20L20 4.8H18.4L18.1093 6.83483C16.6418 5.10087 14.4495 4 12 4C7.58172 4 4 7.58172 4 12H6.4Z" fill="#000000"/>
<path d="M12 17.6C15.0928 17.6 17.6 15.0928 17.6 12H20C20 16.4183 16.4183 20 12 20C9.55052 20 7.35816 18.8991 5.89069 17.1652L5.6 19.2H4L4 13.6H9.6V15.2L7.61511 15.4836C8.64105 16.7732 10.224 17.6 12 17.6Z" fill="#000000"/>
</svg>
