<svg fill="none" height="20" viewBox="0 0 20 20" width="20" xmlns="http://www.w3.org/2000/svg" xmlns:xlink="http://www.w3.org/1999/xlink"><clipPath id="a"><path d="m0 0h20v20h-20z"/></clipPath><g clip-path="url(#a)"><path d="m12.5703 10.2588c-.06-1.08123-.324-1.7224-.7148-2.11329-.391-.39096-1.0325-.65586-2.11429-.71582l-.49121-.0127h-3.5c-1.38416.00005-2.15775.28177-2.60449.72852-.44675.44674-.72847 1.22033-.72852 2.60449v3.5c0 1.3844.28174 2.1587.72852 2.6055.44677.4466 1.2205.7284 2.60449.7285h3.5c1.3844 0 2.1587-.2818 2.6055-.7285.4467-.4468.7285-1.2211.7285-2.6055v-3.5zm1.5137 2.3252h.166c1.3844 0 2.1587-.2818 2.6055-.7285.4467-.4468.7285-1.2211.7285-2.6055v-3.5c-.0001-1.38399-.2819-2.15772-.7285-2.60449-.4468-.44678-1.2211-.72852-2.6055-.72852h-3.5c-1.38416.00005-2.15775.28177-2.60449.72852-.44675.44674-.72847 1.22033-.72852 2.60449v.16699h1.83301l.28418.00391c1.40512.03629 2.57012.35239 3.38182 1.16406.8655.86565 1.1679 2.13298 1.168 3.66504zm5-3.334c0 1.5323-.3023 2.8003-1.168 3.666s-2.1337 1.168-3.666 1.168h-.166v.166c0 1.5323-.3023 2.8003-1.168 3.666s-2.1337 1.168-3.666 1.168h-3.5c-1.53206-.0001-2.79939-.3025-3.66504-1.168-.86572-.8657-1.167968-2.1337-1.167968-3.666v-3.5c.000043-1.53216.302308-2.79938 1.167968-3.66504s2.13288-1.16793 3.66504-1.16797h.16699v-.16699c.00004-1.53216.30231-2.79938 1.16797-3.66504s2.13288-1.167925 3.66504-1.167968h3.5c1.5323 0 2.8003.302248 3.666 1.167968.8655.86565 1.1679 2.13298 1.168 3.66504z" fill="#000"/></g></svg>