<svg xmlns="http://www.w3.org/2000/svg" width="24" height="24" viewBox="0 0 24 24" fill="none"><rect width="24" height="24" fill="none"/>
<path d="M5.56514 12C5.56514 12.9503 5.01436 13.6127 4.41857 14.5847C3.3404 16.3414 2.13444 18.3646 3.88579 20.1141C5.63714 21.8637 7.65848 20.6595 9.41523 19.5831C10.389 18.9874 11.0496 18.4366 12 18.4366C12.9503 18.4366 13.6127 18.9874 14.5847 19.5831C16.3414 20.6595 18.3628 21.8655 20.1141 20.1141C21.8655 18.3628 20.6595 16.3414 19.5831 14.5847C18.9874 13.6109 18.4366 12.9503 18.4366 12C18.4366 11.0496 18.9874 10.3872 19.5831 9.41523C20.6595 7.65848 21.8655 5.63714 20.1141 3.88579C18.3628 2.13444 16.3414 3.3404 14.5847 4.41857C13.6109 5.01616 12.9503 5.56514 12 5.56514C11.0496 5.56514 10.3872 5.01436 9.41523 4.41857C7.65848 3.3404 5.63534 2.13444 3.88579 3.88579C2.13624 5.63714 3.3404 7.65848 4.41857 9.41523C5.01436 10.3872 5.56514 11.0496 5.56514 12Z" fill="#000000"/>
</svg>
