<svg xmlns="http://www.w3.org/2000/svg" width="24" height="24" viewBox="0 0 24 24" fill="none"><rect width="24" height="24" fill="none"/>
<path fill-rule="evenodd" clip-rule="evenodd" d="M20 19C20 20.1046 19.1046 21 18 21H10.1631C10.7983 18.8274 12.6271 17.1318 15.0967 17.1318H17.8848V15.1914C17.8848 14.8542 18.2775 14.6695 18.5371 14.8848L19.999 16.0967V13.2471L19.9316 13.1914C18.3265 11.861 15.9028 12.9878 15.874 15.0615H15.0264C11.5 15.0615 8.5 18 8 21H6C4.89543 21 4 20.1046 4 19V9H20V19ZM9 12H15V10.5H9V12Z" fill="#000000"/>
<path d="M19 3C20.1046 3 21 3.89543 21 5V7H3V5C3 3.89543 3.89543 3 5 3H19Z" fill="#000000"/>
<path fill-rule="evenodd" clip-rule="evenodd" d="M23.2865 18.8213C23.5163 18.9796 23.5163 19.3004 23.2865 19.4587L18.537 23.3672C18.2771 23.5811 17.8856 23.3962 17.8856 23.0597V21.115C17.5533 21.115 17.2148 21.1094 16.8731 21.1038C14.5539 21.0656 12.0805 21.0248 10.3173 22.7083H9.91895C9.91895 19.7859 12.0066 17.1318 15.0967 17.1318H17.8848V15.1914C17.8848 14.8542 18.2785 14.6692 18.5381 14.8844L23.2865 18.8213Z" fill="#000000"/>
</svg>
