<svg xmlns="http://www.w3.org/2000/svg" width="24" height="24" viewBox="0 0 24 24" fill="none"><rect width="24" height="24" fill="none"/>
<path d="M13.6314 11.0084L11.4522 8.77318L10.4926 9.79526L12.663 12.005L10.4909 14.2156L11.4539 15.2251L13.6314 12.9916L15.809 15.2251L16.772 14.2156L14.5988 12.0039L16.7732 9.76868L15.8066 8.77731L13.6314 11.0084Z" fill="#000000"/>
<path fill-rule="evenodd" clip-rule="evenodd" d="M9.78248 5C9.34435 5 8.93173 5.17669 8.62292 5.4955L3.47997 10.8049C3.17051 11.1244 3 11.5494 3 12C3 12.4505 3.17042 12.8755 3.47916 13.1943L8.62292 18.5045C8.93173 18.8233 9.34435 19 9.78248 19H18.5257C19.9446 19 21 17.9284 21 16.4622V7.53785C21 6.07161 19.9446 5 18.5257 5H9.78248ZM9.43305 6.32105C9.5281 6.22292 9.64937 6.17131 9.78248 6.17131H18.5257C18.9328 6.17131 19.2622 6.31651 19.4891 6.54909C19.716 6.78163 19.858 7.11942 19.858 7.53785V16.4622C19.858 16.8806 19.716 17.2184 19.4891 17.4509C19.2622 17.6835 18.9328 17.8287 18.5257 17.8287H9.78248C9.64938 17.8287 9.5281 17.7771 9.43305 17.679L4.28929 12.3687C4.19371 12.27 4.14199 12.142 4.14199 12C4.14199 11.8581 4.19359 11.7301 4.2901 11.6304L9.43305 6.32105Z" fill="#000000"/>
</svg>
