<svg xmlns="http://www.w3.org/2000/svg" width="24" height="24" viewBox="0 0 24 24" fill="none"><rect width="24" height="24" fill="none"/>
<path d="M5.42107 5.52381C4.63625 5.52381 4 6.16001 4 6.94488C4 6.94488 4 9.59524 4 10.5C4 11.4048 4.42053 11.4048 4.90476 11.4048C5.38899 11.4048 6.10181 10.9524 6.71429 10.9524C7.7823 10.9524 8.52381 11.6938 8.52381 12.7619C8.52381 13.8299 7.7823 14.5714 6.71429 14.5714C6.10181 14.5714 5.42084 14.119 4.93661 14.119C4.45238 14.119 4 14.119 4 15.0238C4 15.9286 4 18.5789 4 18.5789C4 19.3637 4.63625 20 5.42107 20C5.42107 20 8.07143 20 8.97619 20C9.88095 20 9.88095 19.5476 9.88095 19.0952C9.88095 18.6429 9.42857 17.8982 9.42857 17.2857C9.42857 16.2177 10.1701 15.4762 11.2381 15.4762C12.3061 15.4762 13.0476 16.2177 13.0476 17.2857C13.0476 17.8982 12.5952 18.6429 12.5952 19.0952C12.5952 19.5476 12.5952 20 13.5 20C14.4048 20 17.0551 20 17.0551 20C17.8399 20 18.4762 19.3637 18.4762 18.5789V6.94488C18.4762 6.16001 17.8399 5.52381 17.0551 5.52381H5.42107Z" fill="#000000"/>
<path d="M18.4762 10.5V15.0238C18.4762 14.119 18.9286 14.119 19.4128 14.119C19.6407 14.119 19.9122 14.2193 20.1996 14.3254C20.5229 14.4447 20.8663 14.5714 21.1905 14.5714C22.2585 14.5714 23 13.8299 23 12.7619C23 11.6938 22.2585 10.9524 21.1905 10.9524C20.8663 10.9524 20.5139 11.0791 20.1823 11.1985C19.8874 11.3045 19.6089 11.4048 19.381 11.4048C18.8967 11.4048 18.4762 11.4048 18.4762 10.5Z" fill="#000000"/>
<path d="M9.88095 4.61905C9.88095 5.07143 9.88095 5.52381 8.97619 5.52381H13.5C12.5952 5.52381 12.5952 5.07143 12.5952 4.61905C12.5952 4.40996 12.6919 4.13841 12.7958 3.84634C12.9168 3.50651 13.0476 3.13889 13.0476 2.80952C13.0476 1.74147 12.3061 1 11.2381 1C10.1701 1 9.42857 1.74147 9.42857 2.80952C9.42857 3.13889 9.55941 3.50651 9.68036 3.84634C9.78431 4.13841 9.88095 4.40996 9.88095 4.61905Z" fill="#000000"/>
</svg>
