<svg xmlns="http://www.w3.org/2000/svg" width="16" height="16" viewBox="0 0 16 16" fill="none"><rect width="16" height="16" fill="none"/>
<path d="M1 5.375C1 2.53125 3.1875 1 6.25 1C8.39145 1 10.1051 1.7487 10.9421 3.17131C10.5521 3.12328 10.1532 3.1 9.74928 3.1C8.00317 3.1 6.35135 3.53489 5.10468 4.52489C3.81766 5.54694 3.09855 7.05641 3.09855 8.87561C3.09855 9.1671 3.1176 9.44831 3.1547 9.71885C1.91595 8.58199 1 7.05482 1 5.375Z" fill="#000000"/>
<path d="M9.74928 4.5C12.8122 4.5 15 6.03146 15 8.87561C15 11.7198 12.4629 14.1263 10.0904 14.9423C9.92657 14.9931 9.84467 15.0186 9.72091 14.9843C9.63411 14.9603 9.51806 14.8748 9.46939 14.7991C9.4 14.691 9.4 14.5801 9.4 14.3582V12.9C6.77463 12.9 4.49855 11.7198 4.49855 8.87561C4.49855 6.03146 6.68635 4.5 9.74928 4.5Z" fill="#000000"/>
</svg>
