<svg xmlns="http://www.w3.org/2000/svg" width="24" height="24" viewBox="0 0 24 24" fill="none"><rect width="24" height="24" fill="none"/>
<path d="M9.75 6.37473L13.0002 9.62489V6.04994C13.0002 5.61568 12.7196 5.27395 12.3414 5.10868C11.9772 4.9495 11.5225 4.95398 11.1407 5.19707C10.9953 5.28959 10.4142 5.79014 9.75 6.37473Z" fill="#000000"/>
<path d="M17.9768 14.6016C18.2869 13.8016 18.4583 12.9226 18.4583 12C18.4583 10.5353 18.0263 9.18039 17.2933 8.07752L18.6031 7.1875C19.4833 8.5494 20 10.2091 20 12C20 13.3649 19.6999 14.6535 19.1675 15.7922L17.9768 14.6016Z" fill="#000000"/>
<path d="M15.4583 12C15.4583 11.1875 15.1925 10.4426 14.7502 9.86234L16.0654 8.96865C16.652 9.81149 17 10.8616 17 12C17 12.4982 16.9333 12.9795 16.8092 13.4339L15.4574 12.0821C15.458 12.0548 15.4583 12.0275 15.4583 12Z" fill="#000000"/>
<path d="M4 14.3333V9.63528C4 9.25341 4.03853 9.00746 4.30581 8.73743C4.54753 8.49323 4.95843 8.49653 5.3144 8.4994C5.35203 8.4997 5.38906 8.5 5.4252 8.5H7.36836L7.37092 8.49768L4 5.12676L5.12676 4L20 18.8732L18.8732 20L13.0002 14.1269V17.9494L13 17.967C12.9926 18.3929 12.7145 18.7277 12.3414 18.8907C11.9772 19.0499 11.5225 19.0454 11.1407 18.8023C10.7588 18.5592 7.36836 15.5246 7.36836 15.5246H5.4252C5.04721 15.5246 4.57309 15.5036 4.30581 15.2336C4.03853 14.9636 4 14.7152 4 14.3333Z" fill="#000000"/>
</svg>
