<svg xmlns="http://www.w3.org/2000/svg" width="16" height="16" viewBox="0 0 16 16" fill="none"><rect width="16" height="16" fill="none"/>
<g clip-path="url(#clip0_102626_17274)">
<path d="M8.00139 5.11601C7.70249 5.11601 7.42706 5.24637 7.23027 5.4692L6.70081 6.06871L5.47165 5.03575L6.00111 4.43624C6.48514 3.88818 7.19909 3.5334 8.00139 3.5334C9.50504 3.5334 10.6717 4.75994 10.6717 6.20876C10.6717 6.90026 10.4086 7.53588 9.97244 8.01383C9.84276 8.15593 9.72528 8.27718 9.61598 8.38998C9.43286 8.57897 9.27268 8.74429 9.11656 8.94429C8.88923 9.23549 8.81258 9.43816 8.81258 9.60007H7.19019C7.19019 8.92956 7.51242 8.38691 7.82582 7.98546C8.03046 7.72333 8.30006 7.44345 8.51876 7.21642C8.61141 7.12025 8.69506 7.0334 8.76065 6.96153C8.93762 6.76761 9.04927 6.50459 9.04927 6.20876C9.04927 5.57651 8.55121 5.11601 8.00139 5.11601Z" fill="#000000"/>
<path d="M8.8 12.8V11.2H7.2V12.8H8.8Z" fill="#000000"/>
<path fill-rule="evenodd" clip-rule="evenodd" d="M16 8C16 12.4183 12.4183 16 8 16C3.58172 16 0 12.4183 0 8C0 3.58172 3.58172 0 8 0C12.4183 0 16 3.58172 16 8ZM14.5 8C14.5 11.5899 11.5899 14.5 8 14.5C4.41015 14.5 1.5 11.5899 1.5 8C1.5 4.41015 4.41015 1.5 8 1.5C11.5899 1.5 14.5 4.41015 14.5 8Z" fill="#000000"/>
</g>
<defs>
<clipPath id="clip0_102626_17274">
<rect width="16" height="16" fill="white"/>
</clipPath>
</defs>
</svg>
