<svg xmlns="http://www.w3.org/2000/svg" width="24" height="24" viewBox="0 0 24 24" fill="none"><rect width="24" height="24" fill="none"/>
<path d="M9.57121 4.00027C8.93038 4.00041 8.36057 4.40669 8.14749 5.01106C7.36233 7.238 5.99998 11.0004 5.99998 11.0004H18C18 11.0004 16.6376 7.238 15.8525 5.01106C15.6394 4.40669 15.0696 4.00041 14.4288 4.00027C12.8096 3.99991 11.1904 3.99991 9.57121 4.00027Z" fill="#000000"/>
<path d="M14.9704 13.0004C14.5478 13.0004 14.1708 13.2661 14.0286 13.6641L12.4799 18.0004H11.52L9.97133 13.6641C9.82919 13.2661 9.4522 13.0004 9.02959 13.0004H3.78654C3.36393 13.0004 2.98694 13.2661 2.8448 13.6641C2.27134 15.2698 0.500061 20.0004 0.500061 20.0004H23.5C23.5 20.0004 21.7286 15.2697 21.1552 13.6641C21.013 13.2661 20.636 13.0004 20.2134 13.0004H14.9704Z" fill="#000000"/>
</svg>
