<svg xmlns="http://www.w3.org/2000/svg" width="24" height="24" viewBox="0 0 24 24" fill="none"><rect width="24" height="24" fill="none"/>
<path d="M5.01012 1.12375C5.54533 0.987498 6 1.44804 6 2.00032C6 2.55261 5.52548 2.9796 5.04103 3.2448C4.42067 3.58439 4 4.24323 4 5.00032V9.00032C4 9.75742 4.42067 10.4163 5.04103 10.7559C5.52548 11.021 6 11.448 6 12.0003C6 12.5526 5.54533 13.0132 5.01012 12.8769C3.27976 12.4364 2 10.8678 2 9.00032V5.00032C2 3.13284 3.27976 1.56427 5.01012 1.12375Z" fill="#000000"/>
<path d="M18 12.0003C18 11.448 18.4745 11.021 18.959 10.7559C19.5793 10.4163 20 9.75742 20 9.00032V5.00032C20 4.24323 19.5793 3.58439 18.959 3.2448C18.4745 2.9796 18 2.55261 18 2.00032C18 1.44804 18.4547 0.987498 18.9899 1.12375C20.7202 1.56427 22 3.13284 22 5.00032V9.00032C22 10.8678 20.7202 12.4364 18.9899 12.8769C18.4547 13.0132 18 12.5526 18 12.0003Z" fill="#000000"/>
<path d="M16 7.50037C16 5.02407 15 2.50037 12 2.50037C8.99999 2.50037 7.99999 4.97784 7.99999 7.50037C7.99999 10.0229 9.77251 12.0004 12 12.0004C14.2275 12.0004 16 9.97666 16 7.50037Z" fill="#000000"/>
<path d="M21 20.0004V22.0004H3V20.0004C3.05899 19.1303 3.45203 18.6107 4.05402 17.9797C5.32062 16.6521 7.9917 15.0004 12 15.0004C16.3924 15.0004 18.9748 16.7564 20.1082 18.0737C20.6051 18.6511 20.9485 19.2403 21 20.0004Z" fill="#000000"/>
</svg>
