<svg xmlns="http://www.w3.org/2000/svg" width="24" height="24" viewBox="0 0 24 24" fill="none"><rect width="24" height="24" fill="none"/>
<path fill-rule="evenodd" clip-rule="evenodd" d="M22.0153 18.5837L5.43164 2L4.0182 3.41344L6.79721 6.19245C4.25339 7.41268 2.17862 9.48496 1 12.0042C2.91363 16.0944 7.18963 19.0064 12 19.0064C14.164 19.0064 16.2198 18.4171 18.0011 17.3964L20.6019 19.9971L22.0153 18.5837ZM15.2592 14.6545L13.6859 13.0811C13.3305 13.6366 12.7083 14.0049 12 14.0049C10.8955 14.0049 10 13.1092 10 12.0043C10 11.296 10.3679 10.6737 10.923 10.3182L9.34968 8.74491C8.40406 9.51529 7.80007 10.6892 7.80007 12.0043C7.80007 14.3246 9.68047 16.2056 12.0001 16.2056C13.3152 16.2056 14.4891 15.601 15.2592 14.6545Z" fill="#000000"/>
<path d="M23 12.0042C22.5294 13.01 21.916 13.9446 21.1869 14.7822C21.149 14.8256 21.0824 14.8276 21.0416 14.7869L11.4385 5.18072C11.3776 5.11975 11.4172 5.01586 11.5033 5.01227C11.6682 5.00539 11.8337 5.00191 12 5.00191C16.8103 5.00191 21.0864 7.91394 23 12.0042Z" fill="#000000"/>
</svg>
