<svg xmlns="http://www.w3.org/2000/svg" width="24" height="24" viewBox="0 0 24 24" fill="none"><rect width="24" height="24" fill="none"/>
<path d="M5 9.2C5 7.72986 5 6.99479 5.28611 6.43327C5.53778 5.93935 5.93935 5.53778 6.43327 5.28611C6.99479 5 7.72986 5 9.2 5H14.8C16.2701 5 17.0052 5 17.5667 5.28611C18.0607 5.53778 18.4622 5.93935 18.7139 6.43327C19 6.99479 19 7.72986 19 9.2V14.8C19 16.2701 19 17.0052 18.7139 17.5667C18.4622 18.0607 18.0607 18.4622 17.5667 18.7139C17.0052 19 16.2701 19 14.8 19H9.2C7.72986 19 6.99479 19 6.43327 18.7139C5.93935 18.4622 5.53778 18.0607 5.28611 17.5667C5 17.0052 5 16.2701 5 14.8V9.2Z" fill="#000000"/>
</svg>
