<svg xmlns="http://www.w3.org/2000/svg" width="24" height="24" viewBox="0 0 24 24" fill="none"><rect width="24" height="24" fill="none"/>
<path d="M10 0H12V2.0479C12.3301 2.01616 12.6638 2 13 2C13.339 2 13.6726 2.01775 14 2.05242V0H16V2.49638C19.4721 3.69917 21.8765 6.96948 22 11H19C18.9034 8.70883 17.7667 6.77747 16 5.75535V11H14V5.0504C13.6773 4.99902 13.3435 4.9724 13 4.9724C12.6539 4.9724 12.3203 4.99685 12 5.04417V11H10V5.71858C8.08939 6.79807 7.00004 8.94935 7.00004 11.5117C7.00004 15.7721 10.1974 19 14.6843 19L21 19V21.9834L3 22V19H7.72323C5.11203 17.5436 3.5 14.5142 3.5 10.8889C3.5 6.69476 6.3229 3.55699 10 2.44224V0Z" fill="#000000"/>
</svg>
