<svg xmlns="http://www.w3.org/2000/svg" width="16" height="16" viewBox="0 0 16 16" fill="none"><rect width="16" height="16" fill="none"/>
<path fill-rule="evenodd" clip-rule="evenodd" d="M11.6392 7.87545C12.5417 6.79246 12.993 6.25097 12.9999 5.79365C13.0058 5.39609 12.8287 5.01785 12.5194 4.76794C12.1637 4.48047 11.4588 4.48047 10.0491 4.48047L5.95091 4.48047C4.54117 4.48047 3.8363 4.48047 3.48056 4.76794C3.17131 5.01785 2.99415 5.39609 3.00015 5.79365C3.00704 6.25097 3.45829 6.79246 4.36078 7.87545L6.40988 10.3344C6.95595 10.9897 7.22899 11.3173 7.55589 11.4368C7.84268 11.5416 8.15732 11.5416 8.44411 11.4368C8.77101 11.3173 9.04405 10.9897 9.59013 10.3344L11.6392 7.87545Z" fill="#000000"/>
</svg>
