<svg xmlns="http://www.w3.org/2000/svg" width="24" height="24" viewBox="0 0 24 24" fill="none"><rect width="24" height="24" fill="none"/>
<path d="M7.17462 7.97572C7.18345 7.61994 7.54365 7.19971 8.26404 6.35925L10.7853 3.4178C11.2038 2.92956 11.413 2.68544 11.662 2.59599C11.8806 2.51748 12.1196 2.51748 12.3382 2.59599C12.5872 2.68544 12.7964 2.92956 13.2149 3.4178L15.7362 6.35925C16.4565 7.19971 16.8167 7.61994 16.8256 7.97572C16.8332 8.28492 16.6974 8.58028 16.4576 8.77568C16.1818 9.00052 15.6283 9.00052 14.5213 9.00052H9.47885C8.3719 9.00052 7.81843 9.00052 7.54255 8.77568C7.3028 8.58028 7.16695 8.28492 7.17462 7.97572Z" fill="#000000"/>
<path d="M7.17462 16.0253C7.18345 16.3811 7.54365 16.8013 8.26404 17.6418L10.7853 20.5832C11.2038 21.0715 11.413 21.3156 11.662 21.405C11.8806 21.4836 12.1196 21.4836 12.3382 21.405C12.5872 21.3156 12.7964 21.0715 13.2149 20.5832L15.7362 17.6418C16.4565 16.8013 16.8167 16.3811 16.8256 16.0253C16.8332 15.7161 16.6974 15.4208 16.4576 15.2254C16.1818 15.0005 15.6283 15.0005 14.5213 15.0005H9.47885C8.3719 15.0005 7.81843 15.0005 7.54255 15.2254C7.3028 15.4208 7.16695 15.7161 7.17462 16.0253Z" fill="#000000"/>
</svg>
