<svg xmlns="http://www.w3.org/2000/svg" width="24" height="24" viewBox="0 0 24 24" fill="none"><rect width="24" height="24" fill="none"/>
<path d="M16.8772 18.9999H22L22 23L2 23L2 18.9999L10.1228 18.9999L13.5 21.4823L16.8772 18.9999Z" fill="#000000"/>
<path fill-rule="evenodd" clip-rule="evenodd" d="M20 14.2223L20 4.00042C20 2.89555 19.1044 1.99998 17.9995 2.00016C15.7318 2.00053 13.2727 2.00033 10.922 2.00014C10.2708 2.00009 9.62795 2.00004 8.99974 2C7.89518 1.99993 7 2.89538 7 3.99997L7 14.2223L13.4998 18.9999L20 14.2223ZM13.5 10.4997C14.6046 10.4997 15.5 9.60426 15.5 8.49966C15.5 7.39507 14.6046 6.49962 13.5 6.49962C12.3954 6.49962 11.5 7.39507 11.5 8.49966C11.5 9.60426 12.3954 10.4997 13.5 10.4997Z" fill="#000000"/>
</svg>
