<svg xmlns="http://www.w3.org/2000/svg" width="16" height="16" viewBox="0 0 16 16" fill="none"><rect width="16" height="16" fill="none"/>
<path fill-rule="evenodd" clip-rule="evenodd" d="M14.7919 4.05083C15.0694 3.77331 15.0694 3.38082 14.7919 3.10329L12.8968 1.20817C12.6192 0.930645 12.2267 0.930591 11.9492 1.20812L10.5279 2.62941L13.3705 5.47205L14.7919 4.05083ZM9 9.25098C9 7.55754 10.1225 6.12627 11.664 5.66063L9.58036 3.57696L2 11.1573V13.9999H4.84263L9 9.84258V9.25098ZM13.5 9.24414V9.99414H12V9.24414C12 8.82993 12.3358 8.49414 12.75 8.49414C13.1642 8.49414 13.5 8.82993 13.5 9.24414ZM15 9.24414V9.99414H15.5V12.4941C15.5 13.3226 14.8284 13.9941 14 13.9941H11.5C10.6716 13.9941 10 13.3226 10 12.4941V9.99414H10.5V9.24414C10.5 8.0015 11.5074 6.99414 12.75 6.99414C13.9926 6.99414 15 8.0015 15 9.24414Z" fill="#000000"/>
</svg>
