<svg xmlns="http://www.w3.org/2000/svg" width="24" height="24" viewBox="0 0 24 24" fill="none"><rect width="24" height="24" fill="none"/>
<path fill-rule="evenodd" clip-rule="evenodd" d="M16.6 5H7.4C6.24689 5 5.50235 5.00156 4.93567 5.04785C4.39235 5.09225 4.19091 5.1676 4.09202 5.21799C3.71569 5.40973 3.40973 5.71569 3.21799 6.09202C3.1676 6.19091 3.09225 6.39235 3.04785 6.93567C3.00156 7.50235 3 8.24689 3 9.4V14.6C3 15.7531 3.00156 16.4977 3.04785 17.0643C3.09225 17.6077 3.1676 17.8091 3.21799 17.908C3.40973 18.2843 3.71569 18.5903 4.09202 18.782C4.19091 18.8324 4.39235 18.9078 4.93567 18.9521C5.50235 18.9984 6.24689 19 7.4 19H16.6C17.7531 19 18.4977 18.9984 19.0643 18.9521C19.6077 18.9078 19.8091 18.8324 19.908 18.782C20.2843 18.5903 20.5903 18.2843 20.782 17.908C20.8324 17.8091 20.9078 17.6077 20.9521 17.0643C20.9984 16.4977 21 15.7531 21 14.6V9.4C21 8.24689 20.9984 7.50235 20.9521 6.93567C20.9078 6.39235 20.8324 6.19091 20.782 6.09202C20.5903 5.71569 20.2843 5.40973 19.908 5.21799C19.8091 5.1676 19.6077 5.09225 19.0643 5.04785C18.4977 5.00156 17.7531 5 16.6 5ZM1.43597 5.18404C1 6.03969 1 7.15979 1 9.4V14.6C1 16.8402 1 17.9603 1.43597 18.816C1.81947 19.5686 2.43139 20.1805 3.18404 20.564C4.03969 21 5.15979 21 7.4 21H16.6C18.8402 21 19.9603 21 20.816 20.564C21.5686 20.1805 22.1805 19.5686 22.564 18.816C23 17.9603 23 16.8402 23 14.6V9.4C23 7.15979 23 6.03969 22.564 5.18404C22.1805 4.43139 21.5686 3.81947 20.816 3.43597C19.9603 3 18.8402 3 16.6 3H7.4C5.15979 3 4.03969 3 3.18404 3.43597C2.43139 3.81947 1.81947 4.43139 1.43597 5.18404Z" fill="#000000"/>
<path d="M7 8C7 8.55228 6.55228 9 6 9C5.44772 9 5 8.55228 5 8C5 7.44772 5.44772 7 6 7C6.55228 7 7 7.44772 7 8Z" fill="#000000"/>
<path d="M7 12C7 12.5523 6.55228 13 6 13C5.44772 13 5 12.5523 5 12C5 11.4477 5.44772 11 6 11C6.55228 11 7 11.4477 7 12Z" fill="#000000"/>
<path d="M11 8C11 8.55228 10.5523 9 10 9C9.44771 9 9 8.55228 9 8C9 7.44772 9.44771 7 10 7C10.5523 7 11 7.44772 11 8Z" fill="#000000"/>
<path d="M11 12C11 12.5523 10.5523 13 10 13C9.44771 13 9 12.5523 9 12C9 11.4477 9.44771 11 10 11C10.5523 11 11 11.4477 11 12Z" fill="#000000"/>
<path d="M15 8C15 8.55228 14.5523 9 14 9C13.4477 9 13 8.55228 13 8C13 7.44772 13.4477 7 14 7C14.5523 7 15 7.44772 15 8Z" fill="#000000"/>
<path d="M15 12C15 12.5523 14.5523 13 14 13C13.4477 13 13 12.5523 13 12C13 11.4477 13.4477 11 14 11C14.5523 11 15 11.4477 15 12Z" fill="#000000"/>
<path d="M19 8C19 8.55228 18.5523 9 18 9C17.4477 9 17 8.55228 17 8C17 7.44772 17.4477 7 18 7C18.5523 7 19 7.44772 19 8Z" fill="#000000"/>
<path d="M19 12C19 12.5523 18.5523 13 18 13C17.4477 13 17 12.5523 17 12C17 11.4477 17.4477 11 18 11C18.5523 11 19 11.4477 19 12Z" fill="#000000"/>
<path d="M9 16C9 15.4477 9.44772 15 10 15H14C14.5523 15 15 15.4477 15 16C15 16.5523 14.5523 17 14 17H10C9.44772 17 9 16.5523 9 16Z" fill="#000000"/>
</svg>
