<svg xmlns="http://www.w3.org/2000/svg" width="16" height="16" viewBox="0 0 16 16" fill="none"><rect width="16" height="16" fill="none"/>
<path d="M8.43725 3.68145C9.34585 2.77285 10.819 2.77285 11.7276 3.68145L12.1389 4.09274C13.0475 5.00134 13.0475 6.47447 12.1389 7.38306L11.3163 8.20565L10.4937 7.38306L11.3163 6.56048C11.7706 6.10618 11.7706 5.36962 11.3163 4.91532L10.905 4.50403C10.4507 4.04973 9.71413 4.04973 9.25983 4.50403L7.20338 6.56048C6.74908 7.01478 6.74908 7.75135 7.20338 8.20565L7.61467 8.61694L6.79209 9.43952L6.3808 9.02823C5.4722 8.11963 5.4722 6.6465 6.3808 5.7379L8.43725 3.68145Z" fill="#000000"/>
<path d="M7.20338 12.3186C6.29478 13.2271 4.82165 13.2271 3.91305 12.3186L3.50176 11.9073C2.59316 10.9987 2.59316 9.52553 3.50176 8.61694L4.32434 7.79435L5.14692 8.61694L4.32434 9.43952C3.87004 9.89382 3.87004 10.6304 4.32434 11.0847L4.73563 11.496C5.18993 11.9503 5.9265 11.9503 6.3808 11.496L8.43725 9.43952C8.89155 8.98522 8.89155 8.24865 8.43725 7.79435L8.02596 7.38306L8.84854 6.56048L9.25983 6.97177C10.1684 7.88037 10.1684 9.3535 9.25983 10.2621L7.20338 12.3186Z" fill="#000000"/>
</svg>
