<svg xmlns="http://www.w3.org/2000/svg" width="16" height="16" viewBox="0 0 16 16" fill="none"><rect width="16" height="16" fill="none"/>
<g clip-path="url(#clip0_33957_1199)">
<path d="M8.90822 12.2625V6.93333H7.09853V12.2625H8.90822Z" fill="#000000"/>
<path d="M9.1625 4.70417C9.1625 5.3462 8.64203 5.86667 8 5.86667C7.35797 5.86667 6.8375 5.3462 6.8375 4.70417C6.8375 4.06214 7.35797 3.54167 8 3.54167C8.64203 3.54167 9.1625 4.06214 9.1625 4.70417Z" fill="#000000"/>
<path fill-rule="evenodd" clip-rule="evenodd" d="M16 8C16 12.4183 12.4183 16 8 16C3.58172 16 0 12.4183 0 8C0 3.58172 3.58172 0 8 0C12.4183 0 16 3.58172 16 8ZM14.4 8C14.4 11.5346 11.5346 14.4 8 14.4C4.46538 14.4 1.6 11.5346 1.6 8C1.6 4.46538 4.46538 1.6 8 1.6C11.5346 1.6 14.4 4.46538 14.4 8Z" fill="#000000"/>
</g>
<defs>
<clipPath id="clip0_33957_1199">
<rect width="16" height="16" fill="white"/>
</clipPath>
</defs>
</svg>
