<svg xmlns="http://www.w3.org/2000/svg" width="24" height="24" viewBox="0 0 24 24" fill="none"><rect width="24" height="24" fill="none"/>
<path d="M22 7L11.9993 2L2.00004 7V9H4.00004L4.00003 16L3.10559 16.4471C2.42764 16.7859 1.99947 17.4789 1.99976 18.2368L2.00004 19H8.18905C7.42357 17.9157 7.00003 16.5663 7.00003 15C7.00003 12.6494 7.94603 10.7619 9.67768 9.5437C11.2997 8.40266 13.3943 8 15.5009 8C17.2304 8 18.9519 8.2714 20.4103 9H22V7Z" fill="#000000"/>
<path d="M15.5009 10C19.2931 10 22.0018 11.4787 22.0018 15C22.0018 18.5213 18.7939 21.9183 15.8565 22.9285C15.6537 22.9915 15.5523 23.023 15.3991 22.9806C15.2916 22.9509 15.1479 22.845 15.0877 22.7512C15.0017 22.6175 15.0017 22.4801 15.0017 22.2054V20C11.7513 20 9.00003 18.5213 9.00003 15C9.00003 11.4787 11.7087 10 15.5009 10Z" fill="#000000"/>
</svg>
