<svg xmlns="http://www.w3.org/2000/svg" width="24" height="24" viewBox="0 0 24 24" fill="none"><rect width="24" height="24" fill="none"/>
<g clip-path="url(#clip0_48892_5543)">
<path fill-rule="evenodd" clip-rule="evenodd" d="M21.2929 20.7072L19.1597 18.574C17.0987 20.0977 14.6351 21.0025 12 21.0025C6.71077 21.0025 2.11236 17.3568 0.0745455 12.379C-0.0248485 12.1362 -0.0248485 11.864 0.0745455 11.6213C1.20853 8.85122 3.13542 6.49368 5.53303 4.94732L3.29289 2.70718L4.70711 1.29297L22.7071 19.293L21.2929 20.7072ZM10.0146 9.42886C9.24649 10.0231 8.75195 10.9539 8.75195 12.0002C8.75195 13.7946 10.2066 15.2493 12.0011 15.2493C13.0473 15.2493 13.9781 14.7547 14.5723 13.9866L17.7266 17.1408C16.0307 18.323 14.058 19.0025 12 19.0025C7.79479 19.0025 3.94578 16.1654 2.08746 12.0001C3.16118 9.59345 4.89946 7.63016 6.98704 6.40133L10.0146 9.42886Z" fill="#000000"/>
<path d="M20.5711 14.3287C21.0892 13.6137 21.5407 12.8335 21.9126 12.0001C20.0542 7.83483 16.2052 4.99763 12 4.99763C11.7549 4.99763 11.511 5.00727 11.2687 5.02625L9.51262 3.27019C10.3187 3.09168 11.1504 2.99763 12 2.99763C17.2892 2.99763 21.8877 6.64341 23.9255 11.6213C24.0249 11.864 24.0249 12.1362 23.9255 12.379C23.4273 13.5958 22.7762 14.733 21.9993 15.7569L20.5711 14.3287Z" fill="#000000"/>
</g>
<defs>
<clipPath id="clip0_48892_5543">
<rect width="24" height="24" fill="white"/>
</clipPath>
</defs>
</svg>
