<svg xmlns="http://www.w3.org/2000/svg" width="48" height="48" viewBox="0 0 48 48" fill="none"><rect width="48" height="48" fill="none"/>
<path d="M29.3334 16.8888H33.3811C30.7145 13.3333 27.8323 11.5555 23.6034 11.5555C17.9661 11.5555 13.3333 14.2222 11.6744 23.9999H8.00003C8.88891 13.3333 15.989 8 23.6034 8C28.6296 8 33.3809 10.6666 36.0477 14.2222L36.4445 9.77776H40V20.4443H29.3334V16.8888Z" fill="#000000"/>
<path d="M18.6666 31.1109H14.6189C17.2855 34.6664 20.1677 36.4442 24.3966 36.4442C30.0339 36.4442 34.6667 33.7775 36.3256 23.9999H40C39.1111 34.6664 32.011 39.9997 24.3966 39.9997C19.3704 39.9997 14.6191 37.3331 11.9523 33.7775L11.5555 38.2219H8V27.5554H18.6666V31.1109Z" fill="#000000"/>
</svg>
