<svg xmlns="http://www.w3.org/2000/svg" width="24" height="24" viewBox="0 0 24 24" fill="none"><rect width="24" height="24" fill="none"/>
<path fill-rule="evenodd" clip-rule="evenodd" d="M4.22222 4C2.99492 4 2 4.80338 2 6V15C2 16.1966 2.99492 17 4.22222 17H19.7778C21.0051 17 22 16.1966 22 15V6C22 4.80338 21.0051 4 19.7778 4H4.22222ZM12 12.6667C13.2273 12.6667 14.2222 11.6966 14.2222 10.5C14.2222 9.30338 13.2273 8.33333 12 8.33333C10.7727 8.33333 9.77778 9.30338 9.77778 10.5C9.77778 11.6966 10.7727 12.6667 12 12.6667ZM4 15H7.33333L4 11.5V15ZM16.6667 6H20V9.5L16.6667 6Z" fill="#000000"/>
<path d="M18 21C19.1046 21 20 20.1046 20 19H4C4 20.1046 4.89543 21 6 21H18Z" fill="#000000"/>
</svg>
