<svg xmlns="http://www.w3.org/2000/svg" width="24" height="24" viewBox="0 0 24 24" fill="none"><rect width="24" height="24" fill="none"/>
<path d="M17 4C18.1045 4 18.9999 4.9011 19 6.0127V18.8906C18.9997 19.8116 17.9471 20.3301 17.2246 19.7646L15.999 18.8057L14.9209 19.6504C14.3793 20.0743 13.6207 20.0743 13.0791 19.6504L12 18.8057L10.9209 19.6504C10.3793 20.0743 9.62073 20.0743 9.0791 19.6504L8 18.8057L6.77539 19.7646C6.05295 20.3301 5.00028 19.8116 5 18.8906V6.0127C5.00009 4.9011 5.89549 4 7 4H17ZM7 17.0381L8 16.2559L10 17.8203L12 16.2559L14 17.8203L16 16.2559L17 17.0381V6.0127H7V17.0381ZM13 12V14H9V12H13ZM15 8.5V10.5195H9V8.5H15Z" fill="#000000"/>
</svg>
