<svg xmlns="http://www.w3.org/2000/svg" width="24" height="24" viewBox="0 0 24 24" fill="none"><rect width="24" height="24" fill="none"/>
<path d="M20.1468 15.6468C20.5885 14.5882 20.8858 13.3726 21.0001 12H18.9333C18.8099 12.7273 18.6572 13.3847 18.4779 13.9779L20.1468 15.6468Z" fill="#000000"/>
<path d="M17.587 16.087L19.0705 17.5705C17.4008 19.8568 14.8671 21 12.2232 21C9.39589 21 6.72329 19.5 5.22316 17.5L5 20H3V14H9V16H6.72316C8.22316 18 9.84441 19 12.2232 19C14.3946 19 16.3012 18.2966 17.587 16.087Z" fill="#000000"/>
<path d="M9.75165 5.25165C10.3905 5.07463 11.0697 5 11.777 5C14.1557 5 15.777 6 17.277 8H15.0002V10H21.0002V4H19.0002L18.777 6.5C17.2769 4.5 14.6043 3 11.777 3C10.549 3 9.34474 3.24661 8.23982 3.73982L9.75165 5.25165Z" fill="#000000"/>
<path d="M6.38517 4.88517L7.77246 6.27246C6.51431 7.3152 5.55847 9.10254 5.06688 12H3.00002C3.27118 8.74603 4.56995 6.37442 6.38517 4.88517Z" fill="#000000"/>
<path d="M21 19.5L4.5 3L3 4.5L19.5 21L21 19.5Z" fill="#000000"/>
</svg>
