<svg xmlns="http://www.w3.org/2000/svg" width="24" height="24" viewBox="0 0 24 24" fill="none"><rect width="24" height="24" fill="none"/>
<path d="M18 4.8C18 4.35817 17.6642 4 17.25 4H9.75C9.33579 4 9 4.35817 9 4.8V5.6H15.75C16.1642 5.6 16.5 5.95817 16.5 6.4V16.8H17.25C17.6642 16.8 18 16.4418 18 16V4.8Z" fill="#000000"/>
<path d="M14.25 7.2C14.6642 7.2 15 7.55817 15 8V19.2C15 19.6418 14.6642 20 14.25 20H6.75C6.33579 20 6 19.6418 6 19.2V8C6 7.55817 6.33579 7.2 6.75 7.2H14.25Z" fill="#000000"/>
</svg>
