<svg xmlns="http://www.w3.org/2000/svg" width="24" height="24" viewBox="0 0 24 24" fill="none"><rect width="24" height="24" fill="none"/>
<path fill-rule="evenodd" clip-rule="evenodd" d="M9.18691 5.37616C8.48929 6.2133 8.14048 6.63187 8.13515 6.98537C8.13052 7.29269 8.26746 7.58506 8.50651 7.77824C8.78149 8.00045 9.32635 8.00045 10.4161 8.00045H13.5839C14.6736 8.00045 15.2185 8.00045 15.4935 7.77824C15.7325 7.58506 15.8695 7.29269 15.8648 6.98537C15.8595 6.63187 15.5107 6.2133 14.8131 5.37615L13.2292 3.47543C12.807 2.9689 12.596 2.71563 12.3433 2.62327C12.1216 2.54224 11.8784 2.54224 11.6567 2.62327C11.404 2.71563 11.193 2.9689 10.7708 3.47544L9.18691 5.37616Z" fill="#000000"/>
<path fill-rule="evenodd" clip-rule="evenodd" d="M9.18691 18.6247C8.48929 17.7876 8.14048 17.369 8.13515 17.0155C8.13052 16.7082 8.26746 16.4158 8.50651 16.2227C8.78149 16.0005 9.32635 16.0005 10.4161 16.0005H13.5839C14.6736 16.0005 15.2185 16.0005 15.4935 16.2227C15.7325 16.4158 15.8695 16.7082 15.8648 17.0155C15.8595 17.369 15.5107 17.7876 14.8131 18.6247L13.2292 20.5255C12.807 21.032 12.596 21.2853 12.3433 21.3776C12.1216 21.4587 11.8784 21.4587 11.6567 21.3776C11.404 21.2853 11.193 21.032 10.7708 20.5255L9.18691 18.6247Z" fill="#000000"/>
</svg>
