<svg xmlns="http://www.w3.org/2000/svg" width="48" height="48" viewBox="0 0 48 48" fill="none"><rect width="48" height="48" fill="none"/>
<path d="M44 21.9819V16.0875C44 14.8967 43.0354 13.9321 41.8447 13.9321H36.2251C35.0344 13.9321 34.0698 12.9675 34.0698 11.7766V6.15543C34.0684 4.96461 33.1038 4 31.913 4H24.491C13.6602 4 4.42429 12.4055 4.01457 23.2282C3.58492 34.6072 12.7156 44 24.0002 44H36.8781C38.0689 44 39.0335 43.0354 39.0335 41.8446V35.9502C39.0335 34.7594 38.0689 33.7948 36.8781 33.7948H24.3459C19.1347 33.7948 14.5779 29.8723 14.2293 24.6722C13.8466 18.9699 18.3778 14.2081 24.0002 14.2081H31.637C32.8278 14.2081 33.7924 15.1727 33.7924 16.3635V21.9833C33.7924 23.1741 34.7569 24.1387 35.9477 24.1387H41.8418C43.0326 24.1387 43.9972 23.1741 43.9972 21.9833L44 21.9819Z" fill="#64E34B"/>
</svg>
