<svg xmlns="http://www.w3.org/2000/svg" width="16" height="16" viewBox="0 0 16 16" fill="none"><rect width="16" height="16" fill="none"/>
<g clip-path="url(#clip0_129503_14492)">
<path fill-rule="evenodd" clip-rule="evenodd" d="M0.799999 3.9998H15.2C15.6418 3.9998 16 4.35798 16 4.79982V15.1998C16 15.6416 15.6418 15.9998 15.2 15.9998H0.799999C0.358173 15.9998 0 15.6416 0 15.1998V4.79982C0 4.35798 0.358173 3.9998 0.799999 3.9998Z" fill="#F94F0D"/>
<path fill-rule="evenodd" clip-rule="evenodd" d="M7.99418 0.214844C10.6091 0.214844 11.8126 3.10281 12.2078 5.4686L12.2044 5.46873L12.2079 5.48686C12.2249 5.67706 12.099 5.84723 11.9174 5.89583L11.8468 5.90816C11.6283 5.9269 11.4357 5.76863 11.4165 5.55466L11.418 5.56206C11.0601 3.60816 10.0938 1.01677 7.99418 1.01677C5.89277 1.01677 4.93791 3.60733 4.58832 5.5637C4.55912 5.77276 4.36858 5.92686 4.15278 5.9084C3.93426 5.88966 3.77263 5.70103 3.79173 5.4871C3.79227 5.4812 3.79292 5.47536 3.7937 5.4696L3.78056 5.4686C4.17573 3.10281 5.37923 0.214844 7.99418 0.214844Z" fill="#1B1B1B"/>
<path fill-rule="evenodd" clip-rule="evenodd" d="M3.96218 12.3026H12.0378V7.84516H3.96218V12.3026Z" fill="#FFFFFE"/>
<path fill-rule="evenodd" clip-rule="evenodd" d="M4.16078 12.1116H11.8393V8.0362H4.16078V12.1116Z" fill="#000002"/>
<path fill-rule="evenodd" clip-rule="evenodd" d="M5.08749 11.3474V11.3781H4.97549V11.6021H4.93641V11.3781H4.82271V11.3474H5.08749ZM10.1719 11.3474C10.2707 11.3474 10.3036 11.4168 10.3036 11.4748C10.3036 11.5329 10.2707 11.6021 10.1719 11.6021C10.0732 11.6021 10.0388 11.5329 10.0388 11.4748C10.0388 11.4168 10.0732 11.3474 10.1719 11.3474ZM10.6833 11.3474L10.7513 11.5714L10.8239 11.3474H10.8687L10.9398 11.5714L11.0093 11.3474H11.0449L10.9631 11.6021H10.9167L10.847 11.3781L10.7745 11.6021H10.7281L10.6478 11.3474H10.6833ZM8.34349 11.3474C8.44208 11.3474 8.47659 11.4168 8.47659 11.4748C8.47659 11.5329 8.44208 11.6021 8.34349 11.6021C8.2448 11.6021 8.21181 11.5329 8.21181 11.4748C8.21181 11.4168 8.2448 11.3474 8.34349 11.3474ZM5.5278 11.3474C5.58608 11.3474 5.64814 11.3621 5.65188 11.4184H5.60851C5.60477 11.3846 5.56541 11.3749 5.52027 11.3749C5.47891 11.3749 5.44507 11.3926 5.44507 11.4184C5.44507 11.4313 5.45454 11.4459 5.49021 11.4507L5.59346 11.4651C5.64061 11.4716 5.66117 11.4942 5.66117 11.5249C5.66117 11.5732 5.61045 11.6021 5.5278 11.6021C5.44701 11.6021 5.40014 11.5764 5.39639 11.5232H5.43949C5.43949 11.5555 5.47517 11.5748 5.52974 11.5748C5.58792 11.5748 5.61981 11.5555 5.61981 11.5281C5.61981 11.462 5.40391 11.5217 5.40391 11.4216C5.40391 11.3749 5.45079 11.3474 5.5278 11.3474ZM6.01171 11.3474V11.498C6.01171 11.5443 6.04381 11.5741 6.10254 11.5741C6.16109 11.5741 6.19319 11.5443 6.19319 11.498V11.3474H6.23483V11.4947C6.23483 11.5658 6.18002 11.6021 6.10254 11.6021C6.02489 11.6021 5.97008 11.5658 5.97008 11.4947V11.3474H6.01171ZM7.64783 11.3474L7.73518 11.5714L7.82121 11.3474H7.86761V11.6021H7.83847V11.373L7.75105 11.6021H7.72065L7.632 11.373H7.63057V11.6021H7.60286V11.3474H7.64783ZM9.57709 11.3474C9.64027 11.3474 9.68762 11.3765 9.69113 11.4168H9.64899C9.64208 11.3862 9.61055 11.3749 9.57545 11.3749C9.51387 11.3749 9.47013 11.4072 9.47013 11.4748C9.47013 11.5426 9.51387 11.5748 9.57545 11.5748C9.61055 11.5748 9.64548 11.5604 9.65249 11.5281H9.69457C9.68592 11.5813 9.63142 11.6021 9.56654 11.6021C9.47363 11.6021 9.42979 11.541 9.42979 11.4748C9.42979 11.4168 9.46666 11.3474 9.57709 11.3474ZM6.5886 11.3474L6.67551 11.5714L6.76235 11.3474H6.80851V11.6021H6.77954V11.373L6.6913 11.6021H6.66097L6.57273 11.373H6.57151V11.6021H6.54373V11.3474H6.5886ZM8.95234 11.3474C9.01045 11.3474 9.07251 11.3621 9.07806 11.4184H9.03493C9.03122 11.3846 8.98989 11.3749 8.94475 11.3749C8.90529 11.3749 8.87166 11.3926 8.87166 11.4184C8.87166 11.4313 8.88092 11.4459 8.91476 11.4507L9.01988 11.4651C9.06499 11.4716 9.08558 11.4942 9.08558 11.5249C9.08558 11.5732 9.03673 11.6021 8.95234 11.6021C8.87343 11.6021 8.82652 11.5764 8.8208 11.5232H8.8641C8.86591 11.5555 8.90155 11.5748 8.95408 11.5748C9.0142 11.5748 9.04606 11.5555 9.04606 11.5281C9.04606 11.462 8.83026 11.5217 8.83026 11.4216C8.83026 11.3749 8.87517 11.3474 8.95234 11.3474ZM10.1719 11.3749C10.1138 11.3749 10.0748 11.4152 10.0748 11.4748C10.0748 11.5344 10.1138 11.5748 10.1719 11.5748C10.2282 11.5748 10.2675 11.5344 10.2675 11.4748C10.2675 11.4152 10.2282 11.3749 10.1719 11.3749ZM8.34349 11.3749C8.28701 11.3749 8.24793 11.4152 8.24793 11.4748C8.24793 11.5344 8.28701 11.5748 8.34349 11.5748C8.40136 11.5748 8.44061 11.5344 8.44061 11.4748C8.44061 11.4152 8.40136 11.3749 8.34349 11.3749ZM6.78073 8.67296V10.5833H6.70393V8.67296H6.78073ZM9.03132 8.67296V10.5833H8.95452V8.67296H9.03132ZM5.11969 9.05223V9.1097H4.95663V10.2711H5.61546V9.1097H5.45236V9.05223H6.0142V9.1097H5.84946V10.2711H6.0142V10.4641H5.99105V10.4606C5.99105 10.4074 5.94696 10.3392 5.88923 10.3297L5.87568 10.3286H4.55792V10.2711H4.72102V9.1097H4.55792V9.05223H5.11969ZM10.2538 9.05503L10.5869 9.9804L10.9141 9.05503H11.3097V9.1076H11.1601V10.276H11.3097V10.3286H10.7786V10.276H10.9375V9.17433L10.5433 10.276H10.4562L10.0575 9.195H10.0544V10.1314C10.0544 10.2459 10.07 10.276 10.1602 10.276H10.2272V10.3286H9.85345V10.276H9.89709C9.98206 10.276 10.0008 10.2493 10.0027 10.1507L10.0029 9.1076H9.85345V9.05503H10.2538ZM7.59135 9.05503V9.1088H7.52412C7.46655 9.1088 7.44419 9.1261 7.44419 9.15466C7.44419 9.1841 7.45549 9.2161 7.48054 9.27166L7.49059 9.29366L7.80426 10.0047L8.26189 9.1088H8.11309V9.05503H8.66196V9.1088H8.51799L7.92106 10.2764H8.06996V10.3286H7.52262V10.2764H7.66652L7.77379 10.0648L7.38975 9.20363C7.36919 9.15726 7.35009 9.11623 7.29522 9.1097L7.27935 9.1088H7.20569V9.05503H7.59135Z" fill="#FFFFFE"/>
<path fill-rule="evenodd" clip-rule="evenodd" d="M7.07329 11.6021H7.33808V11.3474H7.07329V11.6021Z" fill="#F94F0D"/>
</g>
<defs>
<clipPath id="clip0_129503_14492">
<rect width="16" height="16" fill="white"/>
</clipPath>
</defs>
</svg>
