<svg xmlns="http://www.w3.org/2000/svg" width="24" height="24" viewBox="0 0 24 24" fill="none"><rect width="24" height="24" fill="none"/>
<path d="M22 7C22 3.47868 19.2913 2 15.4991 2C11.7069 2 8.99823 3.47868 8.99823 7C8.99823 10.5213 11.7495 12 14.9999 12V14.2054C14.9999 14.4801 14.9999 14.6175 15.0859 14.7512C15.1461 14.845 15.2898 14.9509 15.3973 14.9806C15.5505 15.023 15.6519 14.9915 15.8547 14.9285C18.7921 13.9183 22 10.5213 22 7Z" fill="#000000"/>
<path d="M3.65294 8.33199C3.93751 7.93472 4.50892 7.88586 4.85232 8.22944L7.08722 10.4654C7.34251 10.7208 7.39008 11.1184 7.20257 11.4295L5.704 13.285L10.7179 18.2989L12.5722 16.8017C12.8832 16.6141 13.2805 16.6617 13.5358 16.9171L15.7707 19.1531C16.1141 19.4966 16.0653 20.0683 15.6682 20.353L14.3547 21.2947C13.1783 22.1381 11.5881 22.2545 10.3062 21.484C6.71448 19.3252 4.66055 17.312 2.50545 13.6844C2.1653 13.1119 2.00195 12.4795 2.00002 11.8509C1.99763 11.0733 2.24225 10.3014 2.70473 9.65576L3.65294 8.33199Z" fill="#000000"/>
</svg>
