<svg xmlns="http://www.w3.org/2000/svg" width="17" height="16" viewBox="0 0 17 16" fill="none"><rect width="17" height="16" fill="none"/>
<path d="M5.14911 5.46607C5.91652 4.45357 7.13125 3.8 8.5 3.8C9.83259 3.8 11.0192 4.41875 11.7893 5.38839L10.3 5.6V6.8H14.5V2.6H13.3L13.0817 4.12679C12.2982 3.2 11.2402 2.51696 10.0335 2.19821C9.54464 2.06964 9.03036 2 8.5 2C5.18661 2 2.5 4.68661 2.5 8H4.3C4.3 7.04911 4.61607 6.17054 5.14911 5.46607Z" fill="#000000"/>
<path d="M8.5 12.2C10.8196 12.2 12.7 10.3196 12.7 8H14.5C14.5 11.3134 11.8134 14 8.5 14C6.6625 14 5.0192 13.175 3.9183 11.8732L3.7 13.4H2.5V9.2H6.7V10.4L5.21071 10.6116C5.9808 11.5813 7.16741 12.2 8.5 12.2Z" fill="#000000"/>
</svg>
