<svg xmlns="http://www.w3.org/2000/svg" width="24" height="24" viewBox="0 0 24 24" fill="none"><rect width="24" height="24" fill="none"/>
<path fill-rule="evenodd" clip-rule="evenodd" d="M6.5 2C7.47934 2 8.36474 2.40223 9 3.05051C9.63526 2.40223 10.5207 2 11.5 2C13.433 2 15 3.567 15 5.5C15 6.47934 14.5978 7.36474 13.9495 8H15C16.5462 8 17.8192 9.16974 17.9823 10.6726L21.6838 9.43874C22.3313 9.2229 23 9.70487 23 10.3874V17.6126C23 18.2951 22.3313 18.7771 21.6838 18.5613L17.9823 17.3274C17.8192 18.8303 16.5462 20 15 20H5C3.34315 20 2 18.6569 2 17V11C2 9.62969 2.91874 8.47396 4.17384 8.11519C3.45364 7.47413 3 6.54004 3 5.5C3 3.567 4.567 2 6.5 2ZM6.5 7C5.67157 7 5 6.32843 5 5.5C5 4.67157 5.67157 4 6.5 4C7.32843 4 8 4.67157 8 5.5C8 6.32843 7.32843 7 6.5 7ZM8.94949 8H9.05051C9.0335 7.98334 9.01666 7.9665 9 7.94949C8.98334 7.9665 8.9665 7.98334 8.94949 8ZM11.5 7C10.6716 7 10 6.32843 10 5.5C10 4.67157 10.6716 4 11.5 4C12.3284 4 13 4.67157 13 5.5C13 6.32843 12.3284 7 11.5 7ZM10 13C10 12.4477 10.4477 12 11 12H14C14.5523 12 15 12.4477 15 13V15C15 15.5523 14.5523 16 14 16H11C10.4477 16 10 15.5523 10 15V13Z" fill="#000000"/>
</svg>
