<svg xmlns="http://www.w3.org/2000/svg" width="24" height="24" viewBox="0 0 24 24" fill="none"><rect width="24" height="24" fill="none"/>
<path fill-rule="evenodd" clip-rule="evenodd" d="M16.6034 12.9714C17.2724 12.0412 17.6663 10.8999 17.6663 9.66667C17.6663 6.53705 15.1293 4 11.9997 4C8.87006 4 6.33301 6.53705 6.33301 9.66667C6.33301 10.8675 6.70653 11.9811 7.34374 12.8976C7.65826 13.4152 7.96996 13.8594 8.25612 14.2672C8.7254 14.9361 9.12601 15.507 9.35777 16.1429H14.6403C14.8718 15.5045 15.2726 14.9316 15.743 14.2594C16.0132 13.8732 16.3063 13.4543 16.6034 12.9714ZM9.5711 10.4762L13.214 6.42857L12.8092 9.66667L14.4282 10.4762L10.7854 14.5238L11.1902 11.2857L9.5711 10.4762Z" fill="#000000"/>
<path d="M9.5711 18.5714V17.7619H14.4282V18.5714C14.4282 19.9127 13.3409 21 11.9997 21C10.6584 21 9.5711 19.9127 9.5711 18.5714Z" fill="#000000"/>
</svg>
