<svg xmlns="http://www.w3.org/2000/svg" width="24" height="24" viewBox="0 0 24 24" fill="none"><rect width="24" height="24" fill="none"/>
<path d="M17 10.0006V8.00061H8V10.0006H17Z" fill="#000000"/>
<path d="M14 14.0006V12.0006H8V14.0006H14Z" fill="#000000"/>
<path fill-rule="evenodd" clip-rule="evenodd" d="M11.1667 20.8082C11.1667 21.2307 11.1667 21.442 11.2988 21.6478C11.3915 21.7921 11.6125 21.9549 11.7778 22.0006C12.0135 22.0658 12.1695 22.0174 12.4815 21.9205C17 20.3665 22 15.7832 22 10.3665C22 4.94987 17.8333 2.0332 12 2.0332C6.16667 2.0332 2 4.94987 2 10.3665C2 15.7832 6.16667 18.6758 11.1667 18.6758V20.8082ZM13.1667 16.6758H11.1667C9.03367 16.6758 7.22908 16.058 5.99484 15.0211C4.80278 14.0196 4 12.5139 4 10.3665C4 8.22553 4.79572 6.73586 6.05626 5.73484C7.37445 4.68805 9.38996 4.0332 12 4.0332C14.61 4.0332 16.6256 4.68805 17.9437 5.73484C19.2043 6.73586 20 8.22553 20 10.3665C20 12.4444 19.0372 14.4884 17.4484 16.2544C16.2198 17.62 14.6909 18.7319 13.1667 19.4737V16.6758Z" fill="#000000"/>
</svg>
