<svg xmlns="http://www.w3.org/2000/svg" width="24" height="24" viewBox="0 0 24 24" fill="none"><rect width="24" height="24" fill="none"/>
<path d="M20.3403 5.6494C21.009 8.14518 20.0527 10.6936 18.1199 12.1711C18.1092 12.23 18.0941 12.2884 18.0747 12.3456L17.7442 13.3227C17.584 13.7961 17.7242 14.3193 18.0996 14.6492L18.5361 15.0328C18.9115 15.3627 19.0517 15.8859 18.8915 16.3593L18.7053 16.9097C18.5452 17.3831 18.6854 17.9063 19.0607 18.2362L19.1349 18.3014C19.6684 18.7703 19.6988 19.5909 19.2015 20.098L16.1199 23.2396L15.3344 20.4461L13.4392 13.3729C11.0806 13.0161 9.04055 11.3046 8.38368 8.85316C7.49899 5.55144 9.45838 2.15767 12.7601 1.27297C16.0618 0.38828 19.4556 2.34767 20.3403 5.6494Z" fill="#000000"/>
<path d="M9.54593 13.9835C9.59192 13.9801 9.63783 13.9762 9.68365 13.9717C8.15127 12.9062 6.97301 11.3139 6.45212 9.3699C5.69355 6.53888 6.51528 3.65672 8.37657 1.66001C6.05364 1.93054 3.98449 3.51269 3.20782 5.88081C2.41685 8.29253 3.18879 10.8413 4.96842 12.43L2.68577 19.3899L1.79688 21.9015L6.04283 21.1663C6.76442 21.0414 7.22039 20.3207 7.02429 19.6152L7.01397 19.578C6.88016 19.0965 7.04896 18.5818 7.44193 18.2731L7.89889 17.9142C8.29185 17.6055 8.46066 17.0908 8.32684 16.6093L8.17124 16.0494C8.03743 15.568 8.20623 15.0532 8.5992 14.7445L9.41037 14.1073C9.45876 14.0693 9.50404 14.0279 9.54593 13.9835Z" fill="#000000"/>
</svg>
