<svg xmlns="http://www.w3.org/2000/svg" width="24" height="24" viewBox="0 0 24 24" fill="none"><rect width="24" height="24" fill="none"/>
<path fill-rule="evenodd" clip-rule="evenodd" d="M5 2C4.44772 2 4 2.44772 4 3V21C4 21.5523 4.44772 22 5 22H19C19.5523 22 20 21.5523 20 21V9.81496C20 8.0401 18.4675 6.65325 16.7015 6.82985L15.2432 6.97568C15.1175 6.98825 15.0117 6.88251 15.0243 6.75677L15.1701 5.29851C15.3468 3.53245 13.9599 2 12.185 2H5ZM14.4448 19.1344C16.9626 19.1344 17.837 17.2416 17.9845 16.4464H16.1725C16.0145 16.7488 15.5509 17.4208 14.4448 17.4208C13.2016 17.4208 12.4431 16.3344 12.4431 15.024C12.4431 13.7136 13.2016 12.6272 14.4448 12.6272C15.4772 12.6272 15.9934 13.288 16.162 13.6016H17.9845C17.8054 12.6944 16.8783 10.9136 14.4448 10.9136C12.2008 10.9136 10.6101 12.6608 10.6101 15.024C10.6101 17.3872 12.2008 19.1344 14.4448 19.1344ZM9 11V19H7.22969V13.0976L5.72969 14.184V12.4336L7.70009 11H9Z" fill="#000000"/>
</svg>
