<svg xmlns="http://www.w3.org/2000/svg" width="16" height="16" viewBox="0 0 16 16" fill="none"><rect width="16" height="16" fill="none"/>
<path d="M6.375 0C5.47754 0 4.75 0.716344 4.75 1.6H12.875V12.8C13.7725 12.8 14.5 12.0837 14.5 11.2V1.6C14.5 0.716344 13.7725 0 12.875 0H6.375Z" fill="#000000"/>
<path fill-rule="evenodd" clip-rule="evenodd" d="M3.125 3.2C2.22754 3.2 1.5 3.91634 1.5 4.8V14.4C1.5 15.2837 2.22754 16 3.125 16H9.625C10.5225 16 11.25 15.2837 11.25 14.4V4.8C11.25 3.91634 10.5225 3.2 9.625 3.2H3.125ZM9.625 4.8H3.125V14.4H9.625V4.8Z" fill="#000000"/>
</svg>
