<svg xmlns="http://www.w3.org/2000/svg" width="24" height="24" viewBox="0 0 24 24" fill="none"><rect width="24" height="24" fill="none"/>
<path fill-rule="evenodd" clip-rule="evenodd" d="M11.8955 9.08862C10.9719 8.36663 10.51 8.00563 10.12 8.00012C9.78092 7.99532 9.45832 8.13705 9.24518 8.38445C9 8.66904 9 9.23294 9 10.3607L9 13.6393C9 14.7671 9 15.331 9.24518 15.6155C9.45832 15.863 9.78092 16.0047 10.12 15.9999C10.51 15.9944 10.9719 15.6334 11.8955 14.9114L13.9927 13.2721C14.5516 12.8352 14.831 12.6168 14.9329 12.3553C15.0224 12.1259 15.0224 11.8741 14.9329 11.6447C14.831 11.3832 14.5516 11.1648 13.9927 10.7279L11.8955 9.08862Z" fill="#000000"/>
</svg>
