<svg xmlns="http://www.w3.org/2000/svg" width="24" height="24" viewBox="0 0 24 24" fill="none"><rect width="24" height="24" fill="none"/>
<path d="M7.1967 8.19904C4.26777 11.128 4.26777 15.8767 7.1967 18.8056C10.1256 21.7346 14.8744 21.7346 17.8033 18.8056C20.7322 15.8767 20.7322 11.128 17.8033 8.19904L19.2175 6.78482C22.9275 10.4948 22.9275 16.5099 19.2175 20.2199C15.5075 23.9298 9.49247 23.9298 5.78249 20.2199C2.0725 16.5099 2.0725 10.4948 5.78249 6.78482C8.05592 4.51138 11.1949 3.63108 14.1387 4.14392C14.0516 4.05085 13.9594 3.94358 13.8632 3.81903L12.5 2.18863L13.9142 0.774414L18.1569 5.01705L13.9142 9.2597L12.5 7.84548L13.934 6.13993C11.5698 5.68168 9.02768 6.36805 7.1967 8.19904Z" fill="#000000"/>
<path d="M9.64355 17.1157V11.9917H9.61719L8 13.1079V11.9126L9.63916 10.7744H10.9575V17.1157H9.64355Z" fill="#000000"/>
<path d="M14.4123 17.2563C13.05 17.2563 12.07 16.4478 12.0305 15.3008H13.2566C13.3313 15.8369 13.8059 16.2061 14.4211 16.2061C15.1154 16.2061 15.5944 15.7227 15.5944 15.0327C15.5944 14.3296 15.1154 13.8374 14.4299 13.8374C13.9509 13.8374 13.5378 14.0571 13.3181 14.4219H12.1316L12.4436 10.7744H16.4777V11.8291H13.4851L13.34 13.5649H13.3664C13.6257 13.1387 14.1311 12.8706 14.7771 12.8706C15.9899 12.8706 16.8601 13.7627 16.8601 14.9976C16.8601 16.3423 15.8669 17.2563 14.4123 17.2563Z" fill="#000000"/>
</svg>
