<svg xmlns="http://www.w3.org/2000/svg" width="24" height="24" viewBox="0 0 24 24" fill="none"><rect width="24" height="24" fill="none"/>
<path d="M8.13488 3.01508C8.14021 3.36858 8.48902 3.78715 9.18664 4.62429L10.7706 6.52501C11.1927 7.03155 11.4037 7.28482 11.6564 7.37718C11.8781 7.45821 12.1213 7.45821 12.343 7.37718C12.5957 7.28482 12.8068 7.03155 13.2289 6.52502L14.8128 4.6243C15.5104 3.78716 15.8592 3.36858 15.8646 3.01508C15.8692 2.70776 15.7323 2.41539 15.4932 2.22221C15.2182 2 14.6734 2 13.5837 2H10.4158C9.32608 2 8.78122 2 8.50624 2.22221C8.26719 2.41539 8.13025 2.70776 8.13488 3.01508Z" fill="#000000"/>
<path d="M8.13488 20.9849C8.14021 20.6314 8.48902 20.2128 9.18663 19.3757L10.7706 17.475C11.1927 16.9685 11.4037 16.7152 11.6564 16.6228C11.8781 16.5418 12.1213 16.5418 12.343 16.6228C12.5957 16.7152 12.8068 16.9684 13.2289 17.475L14.8128 19.3757C15.5104 20.2128 15.8592 20.6314 15.8646 20.9849C15.8692 21.2922 15.7323 21.5846 15.4932 21.7778C15.2182 22 14.6734 22 13.5837 22H10.4158C9.32608 22 8.78122 22 8.50624 21.7778C8.26719 21.5846 8.13025 21.2922 8.13488 20.9849Z" fill="#000000"/>
</svg>
