<svg fill="none" height="24" viewBox="0 0 24 24" width="24" xmlns="http://www.w3.org/2000/svg" xmlns:xlink="http://www.w3.org/1999/xlink"><clipPath id="a"><path d="m0 0h24v24h-24z"/></clipPath><g clip-path="url(#a)" fill="#000"><path d="m2 12c0-5.52285 4.47715-10 10-10 5.5228 0 10 4.47715 10 10 0 5.5228-4.4772 10-10 10-5.52285 0-10-4.4772-10-10zm-2 0c0 6.6274 5.37258 12 12 12 6.6274 0 12-5.3726 12-12 0-6.62742-5.3726-12-12-12-6.62742 0-12 5.37258-12 12z"/><path d="m10 6v8h8v-2h-6v-6z"/></g></svg>