<svg xmlns="http://www.w3.org/2000/svg" width="24" height="24" viewBox="0 0 24 24" fill="none"><rect width="24" height="24" fill="none"/>
<path d="M5.25 6C4.83579 6 4.5 6.33579 4.5 6.75V13.372C3.62611 13.0631 3 12.2297 3 11.25V6.75C3 5.50736 4.00736 4.5 5.25 4.5H14.25C15.2297 4.5 16.0631 5.12611 16.372 6H5.25Z" fill="#000000"/>
<path fill-rule="evenodd" clip-rule="evenodd" d="M9 9C7.75736 9 6.75 10.0074 6.75 11.25V17.25C6.75 18.4927 7.75736 19.5 9 19.5H18.75C19.9927 19.5 21 18.4927 21 17.25V11.25C21 10.0074 19.9927 9 18.75 9H9ZM18.75 10.5H9C8.58579 10.5 8.25 10.8358 8.25 11.25V12.75H19.5V11.25C19.5 10.8358 19.1642 10.5 18.75 10.5ZM8.25 17.25V14.25H19.5V17.25C19.5 17.6642 19.1642 18 18.75 18H9C8.58579 18 8.25 17.6642 8.25 17.25Z" fill="#000000"/>
</svg>
