<svg xmlns="http://www.w3.org/2000/svg" width="24" height="24" viewBox="0 0 24 24" fill="none"><rect width="24" height="24" fill="none"/>
<path d="M10.5845 5.99927C10.4104 6.44282 10.257 6.94333 10.1307 7.49969L13.8693 7.49969C13.743 6.94333 13.5896 6.44282 13.4155 5.99927C13.0016 4.94469 12.4927 4.26226 12 3.88379C11.5073 4.26226 10.9984 4.94469 10.5845 5.99927Z" fill="#000000"/>
<path d="M5.50337 7.49969C6.45729 5.85063 8.02106 4.5985 9.88629 4.05166C9.62351 4.46779 9.3899 4.93734 9.18821 5.45127C8.94931 6.05999 8.74956 6.74418 8.59663 7.49969L5.50337 7.49969Z" fill="#000000"/>
<path d="M4.84335 8.99969C4.62027 9.70997 4.5 10.4658 4.5 11.2497C4.5 12.0336 4.62027 12.7894 4.84335 13.4997L8.36655 13.4997C8.29033 12.7966 8.25 12.0458 8.25 11.2495C8.25 10.4534 8.29032 9.70266 8.36652 8.99969H4.84335Z" fill="#000000"/>
<path d="M5.50337 14.9997C6.16201 16.1383 7.11139 17.0877 8.25 17.7463V14.9997H5.50337Z" fill="#000000"/>
<path d="M19.5 11.2497C19.5 12.0336 19.3797 12.7894 19.1566 13.4997H15.6334C15.7097 12.7966 15.75 12.0458 15.75 11.2495C15.75 10.4534 15.7097 9.70266 15.6335 8.99969L19.1566 8.99969C19.3797 9.70997 19.5 10.4658 19.5 11.2497Z" fill="#000000"/>
<path d="M14.1137 4.05166C15.9789 4.5985 17.5427 5.85063 18.4966 7.49969L15.4034 7.49969C15.2504 6.74418 15.0507 6.05999 14.8118 5.45127C14.6101 4.93734 14.3765 4.46779 14.1137 4.05166Z" fill="#000000"/>
<path d="M9.87609 8.99969C9.79465 9.68816 9.75 10.4386 9.75 11.2495C9.75 12.0606 9.79467 12.8111 9.87613 13.4997H14.1239C14.2053 12.8111 14.25 12.0606 14.25 11.2495C14.25 10.4386 14.2053 9.68816 14.1239 8.99969H9.87609Z" fill="#000000"/>
<path fill-rule="evenodd" clip-rule="evenodd" d="M9.75 14.9998H19.5V20.2498H9.75V14.9998ZM16.125 17.6248C16.125 18.4532 15.4534 19.1248 14.625 19.1248C13.7966 19.1248 13.125 18.4532 13.125 17.6248C13.125 16.7963 13.7966 16.1248 14.625 16.1248C15.4534 16.1248 16.125 16.7963 16.125 17.6248Z" fill="#000000"/>
</svg>
