<svg xmlns="http://www.w3.org/2000/svg" width="16" height="16" viewBox="0 0 16 16" fill="none"><rect width="16" height="16" fill="none"/>
<path fill-rule="evenodd" clip-rule="evenodd" d="M15.2606 11C15.7173 11.0001 16.0647 10.5815 15.9898 10.1214L15.7401 8.58814C15.6184 7.84033 15.2678 7.15436 14.7493 6.63119C14.3301 6.20829 13.8011 5.89175 13.1943 5.73492C9.34987 4.74121 6.64598 4.76869 2.82299 5.73568C1.45846 6.08086 0.478682 7.23248 0.25729 8.59555L0.0101473 10.1175C-0.064592 10.5776 0.283043 10.9963 0.739752 10.9964L3.71197 10.9972C4.0515 10.9972 4.34731 10.7612 4.42933 10.4248L4.66674 8.16298L11.3334 8.16298L11.5707 10.4265C11.6529 10.763 11.9488 10.9992 12.2883 10.9993L15.2606 11Z" fill="#000000"/>
</svg>
