<svg xmlns="http://www.w3.org/2000/svg" width="24" height="24" viewBox="0 0 24 24" fill="none"><rect width="24" height="24" fill="none"/>
<path d="M12.0003 3C13.6572 3 15.0003 4.34315 15.0003 6C15.0003 7.30577 14.1649 8.41302 13.0003 8.8252V9H14.0003C14.5526 9 15.0003 9.44772 15.0003 10C15.0003 10.5523 14.5526 11 14.0003 11H13.0003V17.9424C14.3337 17.7901 15.5008 17.3414 16.3685 16.7217C17.4491 15.9498 18.0003 14.9738 18.0003 14H16.4837C16.3056 14 16.2161 13.7842 16.3421 13.6582L18.8587 11.1416C18.9368 11.0635 19.0638 11.0635 19.1419 11.1416L21.6585 13.6582C21.7845 13.7841 21.6959 13.9997 21.5179 14H20.0003C20.0003 15.7874 18.9845 17.3118 17.5316 18.3496C16.0767 19.3888 14.1176 20 12.0003 20C9.88308 20 7.92399 19.3888 6.46909 18.3496C5.01617 17.3118 4.00034 15.7874 4.00034 14H2.48374C2.30556 14 2.21615 13.7842 2.34214 13.6582L4.85874 11.1416C4.93684 11.0635 5.06384 11.0635 5.14194 11.1416L7.65854 13.6582C7.78446 13.7841 7.69588 13.9997 7.51792 14H6.00034C6.00034 14.9738 6.55164 15.9498 7.63218 16.7217C8.49984 17.3414 9.667 17.7901 11.0003 17.9424V11H10.0003C9.4481 10.9999 9.00034 10.5523 9.00034 10C9.00034 9.44775 9.4481 9.00005 10.0003 9H11.0003V8.8252C9.83587 8.41297 9.00034 7.30571 9.00034 6C9.00034 4.34318 10.3435 3.00005 12.0003 3ZM12.0003 5C11.4481 5.00005 11.0003 5.44775 11.0003 6C11.0003 6.55225 11.4481 6.99995 12.0003 7C12.5526 7 13.0003 6.55228 13.0003 6C13.0003 5.44772 12.5526 5 12.0003 5Z" fill="#000000"/>
</svg>
