<svg xmlns="http://www.w3.org/2000/svg" width="16" height="16" viewBox="0 0 16 16" fill="none"><rect width="16" height="16" fill="none"/>
<path fill-rule="evenodd" clip-rule="evenodd" d="M4 2H8.832C9.908 2 12 2.5 12 5C12 6.333 11.667 7.167 11 7.5C12.333 7.833 13 8.833 13 10.5C13 11 13 14 9 14H4C3.73478 14 3.48043 13.8946 3.29289 13.7071C3.10536 13.5196 3 13.2652 3 13V3C3 2.73478 3.10536 2.48043 3.29289 2.29289C3.48043 2.10536 3.73478 2 4 2ZM5 12H8.5C9.5 12 10.5 11.75 10.5 10.5C10.5 9.25 9.396 9 8.5 9H5V12ZM5 7.025H8C8.504 7.025 10 7.025 10 5.5C10 3.975 8 4 8 4H5V7.025Z" fill="#000000"/>
</svg>
