<svg xmlns="http://www.w3.org/2000/svg" width="24" height="24" viewBox="0 0 24 24" fill="none"><rect width="24" height="24" fill="none"/>
<path d="M17.0195 12.8203C19.328 12.8203 21.2 14.6916 21.2002 17C21.2002 19.3086 19.3281 21.1807 17.0195 21.1807C14.7111 21.1805 12.8398 19.3084 12.8398 17C12.84 14.6917 14.7112 12.8205 17.0195 12.8203ZM8.7998 13C10.0148 13 11 13.9852 11 15.2002V18.7998C11 20.0148 10.0148 21 8.7998 21H5.2002C3.98517 21 3 20.0148 3 18.7998V15.2002C3 13.9852 3.98517 13 5.2002 13H8.7998ZM6.97949 2.82031C9.28794 2.82031 11.16 4.69159 11.1602 7C11.1602 9.30855 9.28804 11.1807 6.97949 11.1807C4.67109 11.1805 2.7998 9.30845 2.7998 7C2.79997 4.6917 4.67119 2.82048 6.97949 2.82031ZM18.7998 3C20.0148 3 21 3.98517 21 5.2002V8.7998C21 10.0148 20.0148 11 18.7998 11H15.2002C13.9852 11 13 10.0148 13 8.7998V5.2002C13 3.98517 13.9852 3 15.2002 3H18.7998Z" fill="#000000"/>
</svg>
