<svg xmlns="http://www.w3.org/2000/svg" width="24" height="24" viewBox="0 0 24 24" fill="none"><rect width="24" height="24" fill="none"/>
<path d="M17 9.49728V7.49728H8V9.49728H17Z" fill="#000000"/>
<path d="M14 13.4973V11.4973H8V13.4973H14Z" fill="#000000"/>
<path fill-rule="evenodd" clip-rule="evenodd" d="M11.1667 20.777C11.1667 21.1995 11.1667 21.4107 11.2988 21.6165C11.3915 21.7608 11.6125 21.9236 11.7778 21.9693C12.0135 22.0345 12.1695 21.9861 12.4815 21.8893C17 20.3353 22 15.752 22 10.3353C22 4.91862 17.8333 2.00195 12 2.00195C6.16667 2.00195 2 4.91862 2 10.3353C2 15.752 6.16667 18.6446 11.1667 18.6446V20.777ZM13.1667 16.6446H11.1667C9.03367 16.6446 7.22908 16.0268 5.99484 14.9899C4.80278 13.9884 4 12.4826 4 10.3353C4 8.19428 4.79572 6.70461 6.05626 5.70359C7.37445 4.6568 9.38996 4.00195 12 4.00195C14.61 4.00195 16.6256 4.6568 17.9437 5.70359C19.2043 6.70461 20 8.19428 20 10.3353C20 12.4131 19.0372 14.4571 17.4484 16.2231C16.2198 17.5887 14.6909 18.7006 13.1667 19.4425V16.6446Z" fill="#000000"/>
</svg>
