<svg xmlns="http://www.w3.org/2000/svg" width="24" height="24" viewBox="0 0 24 24" fill="none"><rect width="24" height="24" fill="none"/>
<path fill-rule="evenodd" clip-rule="evenodd" d="M12 22C17.5228 22 22 17.5228 22 12C22 6.47715 17.5228 2 12 2C6.47715 2 2 6.47715 2 12C2 17.5228 6.47715 22 12 22ZM9.14286 8.75C9.14286 7.23122 10.422 6 12 6C13.578 6 14.8571 7.23122 14.8571 8.75V10.4H16V15.9C16 16.5075 15.4883 17 14.8571 17H9.14286C8.51167 17 8 16.5075 8 15.9V10.4H9.14286V8.75ZM13.7143 8.75V10.4H10.2857V8.75C10.2857 7.83873 11.0532 7.1 12 7.1C12.9468 7.1 13.7143 7.83873 13.7143 8.75ZM12 14.8C12.6312 14.8 13.1 14.3075 13.1 13.7C13.1 13.0925 12.6312 12.6 12 12.6C11.3688 12.6 10.9 13.0925 10.9 13.7C10.9 14.3075 11.3688 14.8 12 14.8Z" fill="#000000"/>
<path d="M13.1 13.7C13.1 14.3075 12.6075 14.8 12 14.8C11.3925 14.8 10.9 14.3075 10.9 13.7C10.9 13.0925 11.3925 12.6 12 12.6C12.6075 12.6 13.1 13.0925 13.1 13.7Z" fill="#000000"/>
</svg>
