<svg xmlns="http://www.w3.org/2000/svg" width="24" height="24" viewBox="0 0 24 24" fill="none"><rect width="24" height="24" fill="none"/>
<path d="M13.75 5.75C13.75 6.7165 12.9665 7.5 12 7.5C11.0335 7.5 10.25 6.7165 10.25 5.75C10.25 4.7835 11.0335 4 12 4C12.9665 4 13.75 4.7835 13.75 5.75Z" fill="black"/>
<path d="M13.75 12.01C13.75 12.9765 12.9665 13.76 12 13.76C11.0335 13.76 10.25 12.9765 10.25 12.01C10.25 11.0435 11.0335 10.26 12 10.26C12.9665 10.26 13.75 11.0435 13.75 12.01Z" fill="black"/>
<path d="M13.75 18.25C13.75 19.2165 12.9665 20 12 20C11.0335 20 10.25 19.2165 10.25 18.25C10.25 17.2835 11.0335 16.5 12 16.5C12.9665 16.5 13.75 17.2835 13.75 18.25Z" fill="black"/>
</svg>
