<svg xmlns="http://www.w3.org/2000/svg" width="24" height="24" viewBox="0 0 24 24" fill="none"><rect width="24" height="24" fill="none"/>
<path d="M11.6759 21.8924C20.8662 14.483 10.2425 10.2786 12.996 2.84922C13.1835 2.34332 12.585 1.77309 12.1537 2.09255C3.28036 8.66478 13.7321 12.3903 10.8526 21.2547C10.6919 21.7493 11.2731 22.2171 11.6759 21.8924Z" fill="#000000"/>
<path d="M5.17592 21.8924C14.3662 14.483 3.74254 10.2786 6.49601 2.84922C6.6835 2.34332 6.08504 1.77309 5.65373 2.09255C-3.21962 8.66478 7.23212 12.3903 4.35261 21.2547C4.19195 21.7493 4.77311 22.2171 5.17592 21.8924Z" fill="#000000"/>
<path d="M18.1759 21.8924C27.3662 14.483 16.7425 10.2786 19.496 2.84922C19.6835 2.34332 19.085 1.77309 18.6537 2.09255C9.78035 8.66478 20.2321 12.3903 17.3526 21.2547C17.1919 21.7493 17.7731 22.2171 18.1759 21.8924Z" fill="#000000"/>
</svg>
