<svg xmlns="http://www.w3.org/2000/svg" width="24" height="24" viewBox="0 0 24 24" fill="none"><rect width="24" height="24" fill="none"/>
<path fill-rule="evenodd" clip-rule="evenodd" d="M14.0002 1.33301H16.0002L14.6669 3.99967H12.6669L14.0002 1.33301ZM6.91484 5.33366C5.48705 5.33366 4.31259 6.45825 4.25068 7.8847L3.78772 18.5514C3.73888 19.6766 4.39327 20.6636 5.35424 21.0982C5.34069 21.1744 5.33362 21.2529 5.33362 21.333V21.9997C5.33362 22.7361 5.93057 23.333 6.66695 23.333C7.40333 23.333 8.00029 22.7361 8.00029 21.9997V21.3337H16.0002V21.9997C16.0002 22.7361 16.5972 23.333 17.3336 23.333C18.07 23.333 18.6669 22.7361 18.6669 21.9997V21.333C18.6669 21.2529 18.6598 21.1744 18.6463 21.0982C19.6073 20.6636 20.2617 19.6766 20.2129 18.5514L19.7499 7.8847C19.688 6.45825 18.5135 5.33366 17.0857 5.33366H6.91484ZM7.59461 7.33366C6.88697 7.33366 6.30259 7.88648 6.26333 8.59304L5.99997 13.3337H18L17.7366 8.59304C17.6973 7.88648 17.113 7.33366 16.4053 7.33366H7.59461ZM8.50024 17.4997C8.50024 18.3281 7.82867 18.9997 7.00024 18.9997C6.17182 18.9997 5.50024 18.3281 5.50024 17.4997C5.50024 16.6713 6.17182 15.9997 7.00024 15.9997C7.82867 15.9997 8.50024 16.6713 8.50024 17.4997ZM17 19.0007C17.8284 19.0007 18.5 18.3291 18.5 17.5007C18.5 16.6722 17.8284 16.0007 17 16.0007C16.1716 16.0007 15.5 16.6722 15.5 17.5007C15.5 18.3291 16.1716 19.0007 17 19.0007ZM12.0002 1.33301H10.0002L8.66687 3.99967H10.6669L12.0002 1.33301Z" fill="#000000"/>
</svg>
