<svg xmlns="http://www.w3.org/2000/svg" width="24" height="24" viewBox="0 0 24 24" fill="none"><rect width="24" height="24" fill="none"/>
<path d="M9.5 8.5H13V10.5H9.5V8.5Z" fill="#000000"/>
<path d="M14.5 11.5H9.5V13.5H14.5V11.5Z" fill="#000000"/>
<path fill-rule="evenodd" clip-rule="evenodd" d="M11.475 19.525L11.4525 19.5066C10.6417 18.8432 10.1918 18.475 9.3 18.475C8.50977 18.475 7.99479 18.8879 7.29367 19.45L7.2 19.525C7.125 19.6 6.9 19.75 6.375 19.75C5.925 19.75 5.625 19.375 5.625 19V6.25C5.625 4.975 6.6 4 7.875 4H16.125C17.4 4 18.375 4.975 18.375 6.25V19C18.375 19.375 18 19.75 17.625 19.75H17.55C17.1 19.75 16.95 19.6 16.875 19.525C16.125 18.85 15.6 18.475 14.775 18.475C13.9848 18.475 13.4698 18.8879 12.7687 19.45L12.675 19.525C12.3 19.825 11.85 19.825 11.475 19.525ZM7.625 16.839V6.25C7.625 6.13562 7.66318 6.084 7.68609 6.06109C7.709 6.03818 7.76062 6 7.875 6H16.125C16.2394 6 16.291 6.03818 16.3139 6.06109C16.3368 6.084 16.375 6.13562 16.375 6.25V16.7839C15.9146 16.5955 15.3881 16.475 14.775 16.475C13.6006 16.475 12.7111 16.9805 12.0782 17.4464C11.4068 16.9459 10.5526 16.475 9.3 16.475C8.65811 16.475 8.10131 16.626 7.625 16.839ZM18.2912 18.1127L18.2921 18.1136L18.2892 18.1108L18.2871 18.1086C18.289 18.1105 18.2912 18.1127 18.2912 18.1127Z" fill="#000000"/>
</svg>
