<svg xmlns="http://www.w3.org/2000/svg" width="16" height="16" viewBox="0 0 16 16" fill="none"><rect width="16" height="16" fill="none"/>
<path fill-rule="evenodd" clip-rule="evenodd" d="M7.41756 14.1443C7.41756 14.4401 7.41756 14.588 7.51008 14.7321C7.57497 14.8331 7.72971 14.9471 7.84544 14.9791C8.01046 15.0248 8.11965 14.9909 8.33804 14.923C11.5015 13.8351 15.0019 10.6263 15.0019 6.83414C15.0019 3.04195 12.0849 1 8.00097 1C3.91707 1 1 3.04195 1 6.83414C1 10.6263 3.91707 12.6514 7.41756 12.6514V14.1443ZM8.81775 11.2512H7.41756C5.92425 11.2512 4.66086 10.8188 3.79678 10.0928C2.96222 9.39165 2.40019 8.33747 2.40019 6.83414C2.40019 5.33523 2.95727 4.29232 3.83978 3.59151C4.76263 2.85865 6.17369 2.40019 8.00097 2.40019C9.82825 2.40019 11.2393 2.85865 12.1622 3.59151C13.0447 4.29232 13.6018 5.33523 13.6018 6.83414C13.6018 8.28883 12.9277 9.71984 11.8154 10.9562C10.9552 11.9122 9.88484 12.6907 8.81775 13.2101V11.2512Z" fill="#000000"/>
<path d="M7.40926 9.01184L10.9698 5.4513L9.91966 4.40115L7.40926 6.91155L6.25757 5.75985L5.20742 6.81L7.40926 9.01184Z" fill="#000000"/>
</svg>
