<svg xmlns="http://www.w3.org/2000/svg" width="16" height="16" viewBox="0 0 16 16" fill="none"><rect width="16" height="16" fill="none"/>
<path d="M10.286 4.25367C10.286 2.73028 9.66381 1.17773 8.00013 1.17773C6.33646 1.17773 5.71428 2.70184 5.71428 4.25367C5.71428 5.8055 6.76486 7.08284 8.00013 7.08284C9.2354 7.08284 10.286 5.77706 10.286 4.25367Z" fill="#000000"/>
<path d="M12.5718 11.845V14.3214H3.42844V11.845C3.42844 11.0831 4.88581 8.60674 8.00013 8.60674C11.1145 8.60674 12.5718 11.0831 12.5718 11.845Z" fill="#000000"/>
<path d="M12.1906 7.1126C12.1906 5.87153 12.6235 4.60671 13.9224 4.60671C15.2212 4.60671 15.6193 5.84836 15.6193 7.1126C15.6193 8.37684 14.8867 9.3679 13.9224 9.3679C12.958 9.3679 12.1906 8.35367 12.1906 7.1126Z" fill="#000000"/>
<path d="M3.80812 7.1126C3.80812 5.87153 3.41015 4.60671 2.11131 4.60671C0.812472 4.60671 0.379529 5.84836 0.379529 7.1126C0.379529 8.37684 1.14693 9.3679 2.11132 9.3679C3.0757 9.3679 3.80812 8.35367 3.80812 7.1126Z" fill="#000000"/>
<path d="M13.5303 10.5118C13.9286 10.5118 14.7813 10.6575 15.2448 10.8964C15.9789 11.2747 15.9522 12.1821 15.9998 12.8979V14.3214L14.0949 14.3214V11.8452C14.1017 11.4642 13.9112 10.8927 13.5303 10.5118Z" fill="#000000"/>
<path d="M2.46956 10.5118C2.07125 10.5118 1.21856 10.6575 0.755041 10.8964C0.0209329 11.2747 0.0476067 12.1821 0 12.8979V14.3214L1.90487 14.3214V11.8452C1.89809 11.4642 2.08858 10.8927 2.46956 10.5118Z" fill="#000000"/>
</svg>
