<svg xmlns="http://www.w3.org/2000/svg" width="24" height="24" viewBox="0 0 24 24" fill="none"><rect width="24" height="24" fill="none"/>
<path d="M4 18C4 19.1046 4.89543 20 6 20H8V22H6C3.79086 22 2 20.2091 2 18V16H4V18Z" fill="#000000"/>
<path d="M22 18C22 20.2091 20.2091 22 18 22H16V20H18C19.1046 20 20 19.1046 20 18V16H22V18Z" fill="#000000"/>
<path d="M12 9.9873C12.81 9.9873 13.4668 10.6647 13.4668 11.5C13.4668 12.3353 12.81 13.0127 12 13.0127C11.19 13.0127 10.5332 12.3353 10.5332 11.5C10.5332 10.6647 11.19 9.9873 12 9.9873Z" fill="#000000"/>
<path fill-rule="evenodd" clip-rule="evenodd" d="M12 6C15.4984 6.00002 18.6083 8.28729 20 11.5C18.6083 14.7127 15.4985 17 12 17C8.50154 17 5.39173 14.7127 4 11.5C5.39173 8.28727 8.50155 6 12 6ZM12 8.42871C10.3554 8.42871 9.02246 9.80403 9.02246 11.5C9.02246 13.196 10.3554 14.5713 12 14.5713C13.6446 14.5713 14.9775 13.196 14.9775 11.5C14.9775 9.80403 13.6446 8.42871 12 8.42871Z" fill="#000000"/>
<path d="M8 4H6C4.89543 4 4 4.89543 4 6V8H2V6C2 3.79086 3.79086 2 6 2H8V4Z" fill="#000000"/>
<path d="M18 2C20.2091 2 22 3.79086 22 6V8H20V6C20 4.89543 19.1046 4 18 4H16V2H18Z" fill="#000000"/>
</svg>
