<svg xmlns="http://www.w3.org/2000/svg" width="16" height="16" viewBox="0 0 16 16" fill="none"><rect width="16" height="16" fill="none"/>
<path d="M6.88928 8.666H9.06991L8.03048 5.33261H7.98976L6.88928 8.666Z" fill="#000000"/>
<path fill-rule="evenodd" clip-rule="evenodd" d="M15.5 8C15.5 12.1421 12.1421 15.5 8 15.5C3.85786 15.5 0.5 12.1421 0.5 8C0.5 3.85786 3.85786 0.5 8 0.5C12.1421 0.5 15.5 3.85786 15.5 8ZM9.43655 4.71716L11.75 11.75H10.038L9.51815 10.078H6.42053L5.85999 11.75H4.25L6.67775 4.71716C6.91318 4.03499 7.18752 3.5 8.07125 3.5C8.95468 3.5 9.2129 4.03724 9.43655 4.71716Z" fill="#000000"/>
</svg>
