<svg xmlns="http://www.w3.org/2000/svg" width="16" height="16" viewBox="0 0 16 16" fill="none"><rect width="16" height="16" fill="none"/>
<path fill-rule="evenodd" clip-rule="evenodd" d="M3.85232 1.22944C3.50892 0.885856 2.93751 0.934722 2.65294 1.33199L1.70473 2.65576C1.24225 3.30141 0.997632 4.07326 1.00002 4.85089C1.00195 5.47949 1.1653 6.11188 1.50545 6.68443C3.66055 10.312 5.71448 12.3252 9.30616 14.484C10.5881 15.2545 12.1783 15.1382 13.3547 14.2947L14.6682 13.353C15.0653 13.0683 15.1141 12.4966 14.7707 12.1531L12.5358 9.91713C12.2805 9.66173 11.8832 9.6141 11.5722 9.80171L9.7179 11.2989L4.704 6.28505L6.20257 4.42946C6.39008 4.11839 6.34251 3.72082 6.08722 3.46541L3.85232 1.22944Z" fill="#000000"/>
</svg>
