<svg xmlns="http://www.w3.org/2000/svg" width="24" height="24" viewBox="0 0 24 24" fill="none"><rect width="24" height="24" fill="none"/>
<path fill-rule="evenodd" clip-rule="evenodd" d="M5.29324 11.2922L3.6217 12.9638C1.66907 14.9164 1.66907 18.0822 3.62169 20.0348L3.96484 20.378C5.91746 22.3306 9.08329 22.3306 11.0359 20.378L14.3791 17.0348C16.3317 15.0822 16.3317 11.9164 14.3791 9.96383L14.0359 9.62068C13.839 9.4237 13.6296 9.2466 13.4105 9.08936L11.9635 10.5363C12.1994 10.6681 12.4212 10.8343 12.6217 11.0348L12.9649 11.378C14.1364 12.5496 14.1364 14.4491 12.9649 15.6206L9.6217 18.9638C8.45012 20.1354 6.55063 20.1354 5.37906 18.9638L5.03591 18.6206C3.86434 17.4491 3.86434 15.5496 5.03591 14.378L6.70745 12.7064L5.29324 11.2922Z" fill="#000000"/>
<path fill-rule="evenodd" clip-rule="evenodd" d="M18.7075 12.7065L20.3791 11.0349C22.3317 9.08231 22.3317 5.91649 20.3791 3.96387L20.0359 3.62072C18.0833 1.6681 14.9175 1.66809 12.9649 3.62071L9.6217 6.96387C7.66908 8.91649 7.66907 12.0823 9.6217 14.0349L9.96485 14.3781C10.1618 14.575 10.3712 14.7522 10.5903 14.9094L12.0373 13.4624C11.8014 13.3306 11.5796 13.1644 11.3791 12.9639L11.0359 12.6207C9.86434 11.4491 9.86434 9.54965 11.0359 8.37808L14.3791 5.03493C15.5507 3.86336 17.4501 3.86336 18.6217 5.03493L18.9649 5.37808C20.1364 6.54965 20.1364 8.44915 18.9649 9.62072L17.2933 11.2923L18.7075 12.7065Z" fill="#000000"/>
</svg>
