<svg xmlns="http://www.w3.org/2000/svg" width="24" height="24" viewBox="0 0 24 24" fill="none"><rect width="24" height="24" fill="none"/>
<path d="M2 22C2.48103 21.9581 7.34309 21.513 8.62618 20.2311C9.27468 19.5837 9.639 18.7056 9.639 17.7901C9.639 16.8745 9.27468 15.9965 8.62618 15.3491C7.97768 14.7017 7.09812 14.338 6.181 14.338C5.26388 14.338 4.38433 14.7017 3.73582 15.3491C3.60954 15.4791 3.49916 15.6236 3.407 15.7796C3.0951 16.2973 2.92329 16.8871 2.90841 17.491C2.8654 19.0347 2.55817 20.5597 2 22Z" fill="#000000"/>
<path fill-rule="evenodd" clip-rule="evenodd" d="M9.64872 14.3283C10.1907 14.8684 10.5371 15.5734 10.6332 16.3319C11.9095 15.2215 13.2687 13.9552 14.6493 12.5759C18.1483 9.08293 20.5827 5.36784 21.9019 3.0934C21.9824 2.95447 22.0147 2.79291 21.9938 2.63378C21.9729 2.47466 21.8999 2.32689 21.7862 2.21341C21.6726 2.09992 21.5245 2.02708 21.3651 2.0062C21.2057 1.98531 21.0439 2.01755 20.9047 2.0979C18.6313 3.41484 14.905 5.84513 11.406 9.33814C10.0273 10.7145 8.75886 12.0655 7.64457 13.3454C8.40335 13.442 9.1084 13.7878 9.64872 14.3283Z" fill="#000000"/>
</svg>
