<svg xmlns="http://www.w3.org/2000/svg" width="24" height="24" viewBox="0 0 24 24" fill="none"><rect width="24" height="24" fill="none"/>
<path d="M9 11C9 11.8284 8.32843 12.5 7.5 12.5C6.67157 12.5 6 11.8284 6 11C6 10.1716 6.67157 9.5 7.5 9.5C8.32843 9.5 9 10.1716 9 11Z" fill="#000000"/>
<path d="M6 6V4C6 2.89543 6.89543 2 8 2H16C17.1046 2 18 2.89543 18 4V6H20C21.1046 6 22 6.89543 22 8V16C22 17.1046 21.1046 18 20 18H18V22H6V18H4C2.89543 18 2 17.1046 2 16V8C2 6.89543 2.89543 6 4 6H6ZM8 4V6H16V4H8ZM8 18V20H16V18H8ZM4 8V16H20V8H4Z" fill="#000000"/>
</svg>
