<svg xmlns="http://www.w3.org/2000/svg" width="48" height="48" viewBox="0 0 48 48" fill="none"><rect width="48" height="48" fill="none"/>
<path d="M29.9998 14.0739C29.9998 10.0752 28.3667 6 23.9998 6C19.6329 6 17.9998 10.0006 17.9998 14.0739C17.9998 18.1472 20.7574 21.5 23.9998 21.5C27.2422 21.5 29.9998 18.0725 29.9998 14.0739Z" fill="#000000"/>
<path d="M35.9998 34V40.5H11.9998V34C11.9998 32 15.8251 25.5 23.9998 25.5C32.1744 25.5 35.9998 32 35.9998 34Z" fill="#000000"/>
<path d="M34.9998 21.5776C34.9998 18.32 36.1362 15 39.5454 15C42.9547 15 43.9998 18.2592 43.9998 21.5776C43.9998 24.896 42.0768 27.4974 39.5454 27.4974C37.0141 27.4974 34.9998 24.8352 34.9998 21.5776Z" fill="#000000"/>
<path d="M12.9998 21.5776C12.9998 18.32 11.9552 15 8.54592 15C5.13666 15 4.00025 18.2592 4.00025 21.5776C4.00025 24.896 6.01456 27.4974 8.54592 27.4974C11.0773 27.4974 12.9998 24.8352 12.9998 21.5776Z" fill="#000000"/>
<path d="M38.518 30.5C39.5635 30.5 41.8017 30.8826 43.0184 31.5096C44.9453 32.5025 44.8753 34.8843 45.0002 36.7632V40.4998L40.0002 40.4998V34C40.018 33 39.518 31.5 38.518 30.5Z" fill="#000000"/>
<path d="M9.4822 30.5C8.43672 30.5 6.19854 30.8826 4.98187 31.5096C3.05495 32.5025 3.12496 34.8843 3 36.7632V40.4998L8 40.4997V34C7.9822 33 8.4822 31.5 9.4822 30.5Z" fill="#000000"/>
</svg>
