<svg xmlns="http://www.w3.org/2000/svg" width="24" height="24" viewBox="0 0 24 24" fill="none"><rect width="24" height="24" fill="none"/>
<path fill-rule="evenodd" clip-rule="evenodd" d="M22 12C22 17.5229 17.5228 22 12 22C6.47715 22 2 17.5229 2 12C2 6.47715 6.47715 2 12 2C17.5228 2 22 6.47715 22 12ZM12.0017 8.39501C11.6281 8.39501 11.2838 8.55796 11.0378 8.8365L10.376 9.58589L8.83957 8.29469L9.50139 7.5453C10.1064 6.86022 10.9989 6.41674 12.0017 6.41674C13.8813 6.41674 15.3396 7.94992 15.3396 9.76095C15.3396 10.6253 15.0108 11.4198 14.4656 12.0173C14.3035 12.1949 14.1566 12.3465 14.02 12.4875C13.7911 12.7237 13.5909 12.9304 13.3957 13.1803C13.1115 13.5443 13.0157 13.7977 13.0157 14.0001H10.9877C10.9877 13.1619 11.3905 12.4836 11.7823 11.9818C12.0381 11.6542 12.3751 11.3043 12.6485 11.0205C12.7643 10.9003 12.8688 10.7917 12.9508 10.7019C13.172 10.4595 13.3116 10.1307 13.3116 9.76095C13.3116 8.97063 12.689 8.39501 12.0017 8.39501ZM13 18V16H11V18H13Z" fill="#000000"/>
</svg>
