<svg xmlns="http://www.w3.org/2000/svg" width="24" height="24" viewBox="0 0 24 24" fill="none"><rect width="24" height="24" fill="none"/>
<path d="M13.6025 1C13.9233 1.00076 14.2243 1.15537 14.4117 1.4157L19.8723 9H17.4078L13.5961 3.70584L11.5001 6.58814C11.3195 6.83649 11.0348 6.98809 10.7279 6.99933C10.4211 7.01057 10.126 6.88019 9.92775 6.64571L9.0601 5.61969L6.60665 9H4.13538L8.19075 3.4126C8.37122 3.16396 8.65597 3.01207 8.963 3.00069C9.27002 2.9893 9.56524 3.11969 9.76363 3.35429L10.6321 4.38123L12.7914 1.41186C12.9801 1.15242 13.2818 0.999242 13.6025 1Z" fill="#000000"/>
<path fill-rule="evenodd" clip-rule="evenodd" d="M23 11V13H19.7123L12.8116 22.5843C12.6237 22.8453 12.3217 23 12 23C11.6784 23 11.3764 22.8453 11.1885 22.5843L4.28781 13H1V11H23ZM6.75228 13L12 20.2886L17.2478 13H6.75228Z" fill="#000000"/>
</svg>
