<svg xmlns="http://www.w3.org/2000/svg" width="24" height="24" viewBox="0 0 24 24" fill="none"><rect width="24" height="24" fill="none"/>
<path fill-rule="evenodd" clip-rule="evenodd" d="M6 1C3.23858 1 1 3.23858 1 6V18C1 20.7614 3.23858 23 6 23H18C20.7614 23 23 20.7614 23 18V6C23 3.23858 20.7614 1 18 1H6ZM10.6667 6.66667C10.6667 6.29848 10.9651 6 11.3333 6H12.6667C13.0349 6 13.3333 6.29848 13.3333 6.66667V18H10.6667V6.66667ZM6 13.3333C6 12.9651 6.29848 12.6667 6.66667 12.6667H8C8.36819 12.6667 8.66667 12.9651 8.66667 13.3333V18H6V13.3333ZM16 10C15.6318 10 15.3333 10.2985 15.3333 10.6667V18H18V10.6667C18 10.2985 17.7015 10 17.3333 10H16Z" fill="#000000"/>
</svg>
