<svg xmlns="http://www.w3.org/2000/svg" width="24" height="24" viewBox="0 0 24 24" fill="none"><rect width="24" height="24" fill="none"/>
<path fill-rule="evenodd" clip-rule="evenodd" d="M14.9114 11.8955C15.6334 10.9719 15.9944 10.51 15.9999 10.12C16.0047 9.78092 15.863 9.45832 15.6155 9.24518C15.331 9 14.7671 9 13.6393 9L10.3607 9C9.23294 9 8.66904 9 8.38445 9.24518C8.13705 9.45832 7.99532 9.78092 8.00012 10.12C8.00563 10.51 8.36663 10.9719 9.08862 11.8955L10.7279 13.9927C11.1648 14.5516 11.3832 14.831 11.6447 14.9329C11.8741 15.0224 12.1259 15.0224 12.3553 14.9329C12.6168 14.831 12.8352 14.5516 13.2721 13.9927L14.9114 11.8955Z" fill="#000000"/>
</svg>
