<svg xmlns="http://www.w3.org/2000/svg" width="24" height="24" viewBox="0 0 24 24" fill="none"><rect width="24" height="24" fill="none"/>
<path fill-rule="evenodd" clip-rule="evenodd" d="M16.5835 4.9989C16.5741 5.02941 16.5776 5.06354 16.6031 5.09736C16.6444 5.17841 16.6824 5.25885 16.7175 5.33904C16.9624 5.89935 17.0588 6.44847 17.0588 7.12268C17.0588 8.62333 16.4955 9.84792 15.3919 10.7384C15.2935 10.8221 15.3208 10.8946 15.3593 10.9381L15.3723 10.9482C15.374 10.9498 15.378 10.9534 15.3818 10.9567C15.3846 10.9592 15.3801 10.9552 15.3818 10.9567C15.6261 11.1216 16.0019 11.0383 16.163 10.9991C16.1901 10.9925 16.2114 10.9874 16.2252 10.9851C16.3075 10.9716 16.5451 10.8854 16.5451 10.8854C16.773 10.8144 17.0398 10.786 17.3119 10.7989C18.1384 10.6829 19.0013 11.1183 19 12C18.9986 13 18.9308 14.0278 18.023 14.3297L17.7524 14.4196C17.7524 14.4196 17.6087 14.4713 17.5976 14.6321C17.5967 14.6447 17.5966 14.658 17.5975 14.6719L17.6015 14.7353C17.6078 14.8425 17.6077 14.8793 17.6073 14.9767L17.6084 15.0695C17.6084 15.1678 17.6062 15.2655 17.6019 15.3626C17.5397 16.7534 17.0374 18.0203 16.2413 19.0066L16.1597 19.1974C16.1602 19.2444 16.1782 19.2948 16.2275 19.3443C16.4837 19.6013 16.6103 19.9855 16.6138 20.3868C16.6213 21.26 15.9536 21.9744 15.1224 21.9824L14.9675 21.9838C14.8925 21.9952 14.8158 22.0007 14.7377 21.9999L14.0005 21.993L13.2633 21.9999C13.2168 22.0004 13.1671 21.9948 13.1154 21.9846L12.8786 21.9824C12.6296 21.98 12.4222 21.8032 12.2598 21.6647C12.1742 21.5917 12.1011 21.5294 12.0409 21.5088C12.0273 21.5041 12.0097 21.5 11.9974 21.5C11.9307 21.5 11.8445 21.5739 11.7395 21.6638C11.5773 21.8027 11.3703 21.98 11.1214 21.9824L9.26232 21.9999C8.43111 22.0079 7.75116 21.3064 7.7436 20.4332C7.74066 20.0923 7.81023 19.8222 7.98503 19.5641C8.07014 19.4387 7.97224 19.2564 7.90948 19.1847C6.96899 18.1085 6.39286 16.6614 6.39286 15.0696L6.39268 14.9778C6.39231 14.8624 6.39221 14.832 6.40248 14.6719C6.41474 14.4798 6.24757 14.4196 6.24757 14.4196L5.97699 14.3297C5.06917 14.0278 5.00145 13 5 12C4.99855 11 6.10879 10.5741 7.01673 10.8757L7.5705 11.0598C7.5705 11.0598 8.30277 11.2142 8.61095 10.9631C8.65582 10.9264 8.73025 10.8423 8.60813 10.7384C7.50452 9.84792 6.94118 8.62333 6.94118 7.12268C6.94118 6.44849 7.03759 5.89938 7.28248 5.33909C7.31754 5.25888 7.35564 5.17843 7.39694 5.09736C7.42171 5.0645 7.42373 5.03347 7.41361 5.00559C7.39409 4.95184 7.32943 4.90975 7.29541 4.88866C6.84956 4.61199 6.55305 4.12219 6.55305 3.56387C6.55305 2.7001 7.26238 2.00006 8.13742 2.00006C8.65699 2.00006 9.11785 2.24697 9.40662 2.62838L9.41935 2.64545C9.4304 2.66039 9.44287 2.67724 9.45691 2.69412C10.202 2.25312 11.0714 2 12 2C12.9285 2 13.7978 2.25306 14.5428 2.69398C14.5584 2.67552 14.5721 2.65705 14.584 2.64098L14.5934 2.62838C14.843 2.29863 15.2213 2.06953 15.655 2.01349C15.7234 2.00459 15.7931 2 15.864 2C16.7388 2 17.4482 2.70004 17.4482 3.56381C17.4482 3.59862 17.4471 3.63317 17.4448 3.66742C17.4105 4.18239 17.1161 4.63325 16.6981 4.89266C16.6909 4.89702 16.6817 4.9027 16.6777 4.90528C16.6719 4.90845 16.6604 4.91463 16.6556 4.91683L16.6462 4.92262C16.6418 4.92531 16.6294 4.93284 16.6251 4.93516C16.6063 4.95282 16.5909 4.97472 16.5835 4.9989ZM12.0007 8.56528C11.612 8.56528 11.297 8.74835 11.297 8.97412C11.297 9.20001 11.612 9.38308 12.0007 9.38308C12.3893 9.38308 12.7043 9.20001 12.7043 8.97412C12.7043 8.74835 12.3893 8.56528 12.0007 8.56528ZM14.7507 6.58679C14.7507 6.17518 14.4332 5.8417 14.0415 5.8417C13.6497 5.8417 13.3322 6.17518 13.3322 6.58679C13.3322 6.99815 13.6496 7.33175 14.0415 7.33175C14.4332 7.33175 14.7507 6.99815 14.7507 6.58679ZM9.95981 5.8417C10.3515 5.8417 10.6691 6.17518 10.6691 6.58679C10.6691 6.99815 10.3515 7.33175 9.95981 7.33175C9.5681 7.33175 9.25059 6.99815 9.25059 6.58679C9.25065 6.17518 9.56816 5.8417 9.95981 5.8417ZM14.8575 15.7058L14.8622 15.6965L14.871 15.6788L14.8783 15.6641C14.894 15.6319 14.9089 15.5994 14.9229 15.5665L14.9273 15.5562C14.9733 15.4469 15.0105 15.3326 15.0362 15.2108C15.0672 15.0645 15.0829 14.9073 15.0768 14.7344C15.0765 14.7283 15.0759 14.7222 15.0753 14.716C15.0748 14.7107 15.0743 14.7053 15.074 14.6999C15.0287 13.8103 14.3307 13.0757 13.4826 13.0757C13.4527 13.0759 13.4232 13.0773 13.3942 13.0799C13.3667 13.0825 13.3396 13.0862 13.3129 13.0903C12.8101 13.1682 12.4443 13.5603 12.2244 13.8197L12.217 13.8285L12.1887 13.862L12.1826 13.8771L12.1679 13.887L12.1367 13.9242C12.105 13.9619 12.0781 13.9931 12.0559 14.0153C12.0329 14.038 12.0132 14.0527 12.0007 14.0527C11.972 14.0527 11.9161 13.9858 11.8335 13.887C11.6004 13.6082 11.1553 13.0757 10.5116 13.0757C9.66365 13.0757 8.97133 13.8102 8.92599 14.6999C8.90042 15.2024 9.05462 15.5847 9.27194 15.9312C9.70606 16.6233 11.5975 18.2892 11.9966 18.2892C12.4043 18.2892 14.291 16.6292 14.7281 15.9312L14.7359 15.9186C14.7562 15.8864 14.7767 15.8538 14.7954 15.8208L14.8057 15.8026C14.816 15.7843 14.8262 15.7659 14.8361 15.7474L14.8468 15.7271L14.8575 15.7058Z" fill="#000000"/>
</svg>
