<svg xmlns="http://www.w3.org/2000/svg" width="16" height="16" viewBox="0 0 16 16" fill="none"><rect width="16" height="16" fill="none"/>
<path d="M3 5C3.55228 5 4 4.55228 4 4C4 3.44772 3.55228 3 3 3C2.44772 3 2 3.44772 2 4C2 4.55228 2.44772 5 3 5Z" fill="#000000"/>
<path d="M14 3.33594H6V4.66406H14V3.33594Z" fill="#000000"/>
<path d="M14 8.67215V7.33175L6 7.33622V8.66769L14 8.67215Z" fill="#000000"/>
<path d="M14 11.3398H6V12.6719H14V11.3398Z" fill="#000000"/>
<path d="M4 8C4 8.55229 3.55228 9 3 9C2.44772 9 2 8.55229 2 8C2 7.44772 2.44772 7 3 7C3.55228 7 4 7.44772 4 8Z" fill="#000000"/>
<path d="M3 13C3.55228 13 4 12.5523 4 12C4 11.4477 3.55228 11 3 11C2.44772 11 2 11.4477 2 12C2 12.5523 2.44772 13 3 13Z" fill="#000000"/>
</svg>
