<svg xmlns="http://www.w3.org/2000/svg" width="24" height="24" viewBox="0 0 24 24" fill="none"><rect width="24" height="24" fill="none"/>
<path d="M12 22C17.5228 22 22 17.5228 22 12C22 6.47715 17.5228 2 12 2C6.47715 2 2 6.47715 2 12C2 17.5228 6.47715 22 12 22ZM17 12C17 9.23858 14.7614 7 12 7C9.23858 7 7 9.23858 7 12H5.66667C5.66667 8.5022 8.5022 5.66667 12 5.66667C15.4978 5.66667 18.3333 8.5022 18.3333 12C18.3333 15.4978 15.4978 18.3333 12 18.3333C9.85658 18.3333 7.96186 17.2686 6.81591 15.6391C6.81308 15.724 6.80597 15.818 6.79264 15.9221L6.66667 17.3333H5.33333V13.3333L9.33333 13.3333V14.6667L7.85333 14.7947C8.75179 16.1252 10.2737 17 12 17C14.7614 17 17 14.7614 17 12ZM11.3333 12V9H12.6667V12C12.6667 12.2099 12.7655 12.4074 12.9333 12.5333L14.6667 13.6667L13.8667 14.7333L12.1333 13.6C11.6297 13.2223 11.3333 12.6295 11.3333 12Z" fill="#000000"/>
</svg>
