<svg xmlns="http://www.w3.org/2000/svg" width="16" height="16" viewBox="0 0 16 16" fill="none"><rect width="16" height="16" fill="none"/>
<g clip-path="url(#clip0_141828_8127)">
<path d="M12.1254 8.66046C12.1254 10.1733 12.0321 11.3605 11.7689 12.4691C11.5045 13.5827 11.0768 14.5828 10.4486 15.7327L9.79042 15.3724L9.13222 15.013C9.7198 13.9374 10.0849 13.0658 10.309 12.1224C10.5342 11.1736 10.6254 10.1164 10.6254 8.66046H12.1254ZM9.01796 6.30597C9.01796 10.0841 9.07028 12.8932 6.75624 15.679L5.60194 14.72C7.51818 12.4131 7.51796 10.1719 7.51796 6.30597H9.01796ZM10.6303 6.9837C10.6303 5.67861 9.57207 4.62045 8.26698 4.62042C6.96442 4.62042 5.90782 5.6743 5.9037 6.97589C5.9556 8.66714 5.91766 9.99704 5.64394 11.1302C5.36133 12.2999 4.83595 13.2297 3.97792 14.1409L2.88612 13.1126C3.58158 12.374 3.96986 11.6727 4.18593 10.7786C4.40995 9.85141 4.45578 8.68904 4.4037 7.00714V6.9837C4.4037 4.85017 6.13345 3.12042 8.26698 3.12042C10.4005 3.12045 12.1303 4.85018 12.1303 6.9837V7.08234H10.6303V6.9837Z" fill="#000000"/>
<path d="M8.24121 0C12.0717 0.000197429 15.178 3.09784 15.1934 6.9248C15.2975 9.62656 15.2707 11.2662 14.6641 13.6064L13.2129 13.2295C13.765 11.0997 13.7974 9.6317 13.6953 6.98242L13.6943 6.96777V6.95312C13.6943 3.94156 11.2527 1.5002 8.24121 1.5C6.99934 1.50006 5.85427 1.91516 4.9375 2.61426L3.87012 1.54688C5.06446 0.580033 6.58492 6.62308e-05 8.24121 0ZM3.87988 3.67773C3.19395 4.58962 2.78812 5.72422 2.78809 6.95312C2.81141 8.11564 2.78094 8.93356 2.66797 9.58594C2.54968 10.2686 2.34502 10.7519 2.06152 11.248L1.41016 10.875L0.758789 10.5029C0.97279 10.1284 1.10628 9.81009 1.18945 9.33008C1.2774 8.82234 1.31155 8.1184 1.28809 6.96875V6.95312C1.28812 5.30981 1.85927 3.80039 2.8125 2.61035L3.87988 3.67773Z" fill="#000000"/>
</g>
<defs>
<clipPath id="clip0_141828_8127">
<rect width="16" height="16" fill="white"/>
</clipPath>
</defs>
</svg>
