<svg xmlns="http://www.w3.org/2000/svg" width="24" height="24" viewBox="0 0 24 24" fill="none"><rect width="24" height="24" fill="none"/>
<path fill-rule="evenodd" clip-rule="evenodd" d="M11.3397 19.7949H13.5652L7.75467 4H5.81054L0 19.7949H2.22554L3.77124 15.5829H9.79398L11.3397 19.7949ZM6.69523 7.65112H6.86999L9.01997 13.4769H4.54688L6.69523 7.65112Z" fill="#000000"/>
<path fill-rule="evenodd" clip-rule="evenodd" d="M24 19.7949H21.9129V18.3099C21.1512 19.4042 19.9529 20 18.5109 20C16.2747 20 14.6162 18.6611 14.6162 16.5341C14.6162 14.4502 16.1356 13.0707 18.8212 12.9088L21.9129 12.7036L21.913 11.8265C21.913 10.3904 20.9649 9.85893 19.5199 9.85893C18.745 9.85893 18.0569 10.0106 17.6051 10.4137C17.316 10.6715 17.1858 10.9925 17.1236 11.3709H15.0448L15.0763 11.0491C15.3224 9.18114 17.1413 7.95026 19.6023 7.95026C22.4163 7.95026 24 9.40789 24 11.8265V19.7949ZM18.8533 17.9428C17.5158 17.9428 16.6955 17.2897 16.6955 16.4316C16.6955 15.4438 17.2911 14.8864 19.0459 14.7677L21.9129 14.5625V15.1601C21.9129 16.8229 20.6008 17.9428 18.8533 17.9428Z" fill="#000000"/>
</svg>
