<svg xmlns="http://www.w3.org/2000/svg" width="24" height="24" viewBox="0 0 24 24" fill="none"><rect width="24" height="24" fill="none"/>
<path d="M20.7323 6.48982C21.0892 6.13784 21.0892 5.56718 20.7323 5.2152L19.1808 3.64619C18.8239 3.29422 18.2453 3.29422 17.8884 3.64619L14.233 7.32801L17.0769 10.1716L20.7323 6.48982Z" fill="#000000"/>
<path d="M3.65097 17.8935C3.29409 18.2455 3.29409 18.8161 3.65097 19.1681L5.20248 20.7371C5.55937 21.0891 6.13799 21.0891 6.49487 20.7371L15.9795 11.2746L13.1356 8.43094L3.65097 17.8935Z" fill="#000000"/>
<path d="M8.30959 9.65859C6.99316 9.42455 5.96928 8.40067 5.73524 7.08424C5.73524 7.02573 5.64748 7.02573 5.61823 7.08424C5.3842 8.40067 4.36031 9.42455 3.04388 9.65859C2.98537 9.65859 2.98537 9.74635 3.04388 9.7756C4.36031 10.0096 5.3842 11.0335 5.61823 12.3499C5.61823 12.4085 5.70599 12.4085 5.73524 12.3499C5.96928 11.0335 6.99316 10.0096 8.30959 9.7756C8.3681 9.74635 8.3681 9.68784 8.30959 9.65859Z" fill="#000000"/>
<path d="M20.4307 16.7292C19.1142 16.4952 18.0903 15.4713 17.8563 14.1549C17.8563 14.0964 17.7686 14.0964 17.7393 14.1549C17.5053 15.4713 16.4814 16.4952 15.165 16.7292C15.1064 16.7292 15.1064 16.817 15.165 16.8462C16.4814 17.0803 17.5053 18.1041 17.7393 19.4206C17.7393 19.4791 17.8271 19.4791 17.8563 19.4206C18.0903 18.1041 19.1142 17.0803 20.4307 16.8462C20.4892 16.817 20.4892 16.7585 20.4307 16.7292Z" fill="#000000"/>
<path d="M13.3766 4.63022C12.5569 4.4845 11.9194 3.84698 11.7737 3.02732C11.7737 2.99089 11.7191 2.99089 11.7008 3.02732C11.5551 3.84698 10.9176 4.4845 10.0979 4.63022C10.0615 4.63022 10.0615 4.68486 10.0979 4.70308C10.9176 4.84879 11.5551 5.48631 11.7008 6.30597C11.7008 6.3424 11.7555 6.3424 11.7737 6.30597C11.9194 5.48631 12.5569 4.84879 13.3766 4.70308C13.413 4.68486 13.413 4.64843 13.3766 4.63022Z" fill="#000000"/>
</svg>
