<svg xmlns="http://www.w3.org/2000/svg" width="16" height="16" viewBox="0 0 16 16" fill="none"><rect width="16" height="16" fill="none"/>
<path fill-rule="evenodd" clip-rule="evenodd" d="M15 5C15 7.87188 12.8719 10 10 10C9.27918 10 8.60522 9.86594 8 9.6197V13.6H6V16H3.4C2.12 16 1.26667 14.9333 1 14.4V12.8L5.96022 8.03819C5.35098 7.20994 5 6.1663 5 5C5 2.12812 7.12812 0 10 0C12.8719 0 15 2.12812 15 5ZM12.0003 4.9998C12.0003 6.10437 11.1048 6.9998 10.0003 6.9998C8.8957 6.9998 8.00027 6.10437 8.00027 4.9998C8.00027 3.89524 8.8957 2.9998 10.0003 2.9998C11.1048 2.9998 12.0003 3.89524 12.0003 4.9998Z" fill="#000000"/>
</svg>
