<svg xmlns="http://www.w3.org/2000/svg" width="24" height="24" viewBox="0 0 24 24" fill="none"><rect width="24" height="24" fill="none"/>
<path fill-rule="evenodd" clip-rule="evenodd" d="M8.43793 2.65477C9.69559 2.17571 11.037 1.95553 12.3819 2.00744C14.8976 2.11104 17.2824 3.15685 19.0628 4.93724C20.8432 6.71764 21.889 9.10242 21.9926 11.6181C22.0445 12.963 21.8243 14.3044 21.3452 15.5621C20.8662 16.8197 20.1381 17.9677 19.2046 18.9372C18.2711 19.9066 17.1515 20.6776 15.9129 21.2039C14.6743 21.7302 13.3421 22.001 11.9963 22C11.4282 22 10.8833 21.7743 10.4816 21.3726C10.0799 20.9709 9.85422 20.4261 9.85422 19.8579V17.1732C9.85487 16.8435 9.77937 16.518 9.63361 16.2222C9.48785 15.9264 9.27576 15.6682 9.01386 15.4678C8.75197 15.2674 8.44734 15.1302 8.12372 15.0669C7.8001 15.0035 7.46622 15.0157 7.14809 15.1026L6.34839 15.3239C5.83777 15.4634 5.30187 15.4832 4.78235 15.3818C4.26283 15.2804 3.7737 15.0606 3.353 14.7393C2.93229 14.4181 2.59135 14.0042 2.35669 13.5297C2.12203 13.0552 1.99997 12.533 2 12.0037C1.999 10.6579 2.26977 9.32575 2.79607 8.08711C3.32236 6.84847 4.09336 5.72885 5.06282 4.79539C6.03229 3.86193 7.18027 3.13384 8.43793 2.65477ZM12.3533 4.14884C11.3675 4.14884 10.5683 4.94804 10.5683 5.93389C10.5683 6.91975 11.3675 7.71894 12.3533 7.71894C13.3392 7.71894 14.1384 6.91975 14.1384 5.93389C14.1384 4.94804 13.3392 4.14884 12.3533 4.14884ZM7.3552 6.2909C6.36935 6.2909 5.57015 7.0901 5.57015 8.07595C5.57015 9.06181 6.36935 9.861 7.3552 9.861C8.34106 9.861 9.14025 9.06181 9.14025 8.07595C9.14025 7.0901 8.34106 6.2909 7.3552 6.2909ZM15.5664 8.07595C15.5664 7.0901 16.3656 6.2909 17.3515 6.2909C18.3373 6.2909 19.1365 7.0901 19.1365 8.07595C19.1365 9.06181 18.3373 9.861 17.3515 9.861C16.3656 9.861 15.5664 9.06181 15.5664 8.07595ZM18.7795 11.289C17.7937 11.289 16.9945 12.0882 16.9945 13.0741C16.9945 14.0599 17.7937 14.8591 18.7795 14.8591C19.7654 14.8591 20.5646 14.0599 20.5646 13.0741C20.5646 12.0882 19.7654 11.289 18.7795 11.289Z" fill="#000000"/>
</svg>
