<svg xmlns="http://www.w3.org/2000/svg" width="24" height="24" viewBox="0 0 24 24" fill="none"><rect width="24" height="24" fill="none"/>
<path d="M11 2C14 2 15 4.58841 15 7.12821C15 9.668 13.2275 11.7436 11 11.7436C8.77251 11.7436 6.99999 9.71541 6.99999 7.12821C6.99999 4.541 7.99998 2 11 2Z" fill="#000000"/>
<path d="M15 19C15 20.1256 15.3719 21.1643 15.9996 22H2V19.9487C2.05899 19.0563 2.45203 18.5235 3.05402 17.8763C4.32062 16.5146 6.9917 14.8205 11 14.8205C13.1203 14.8205 14.8188 15.2402 16.1362 15.8263C15.4262 16.6896 15 17.795 15 19Z" fill="#000000"/>
<path d="M17 20H23V18H17V20Z" fill="#000000"/>
</svg>
