<svg xmlns="http://www.w3.org/2000/svg" width="48" height="48" viewBox="0 0 48 48" fill="none"><rect width="48" height="48" fill="none"/>
<path d="M4 29.6667V18.2571C4 17.3297 4.09633 16.7324 4.76452 16.0766C5.43271 15.4208 6.61803 15.5 7.56299 15.5H12.4209C12.4209 15.5 21.3966 8.06896 22.3513 7.4786C23.3059 6.88824 24.4427 6.87736 25.3532 7.26393C26.2986 7.66532 27 8.49522 27 9.54986V38.4487L26.9996 38.4913C26.981 39.5256 26.2858 40.3386 25.3532 40.7346C24.4427 41.1211 23.3059 41.1103 22.3513 40.5199C21.3966 39.9295 12.4209 32.5598 12.4209 32.5598H7.56299C6.61803 32.5598 5.43272 32.5088 4.76452 31.853C4.09633 31.1972 4 30.5941 4 29.6667Z" fill="#000000"/>
<path d="M37.2331 33.526L40.5077 35.6875C42.7081 32.38 43.9999 28.3493 43.9999 24C43.9999 19.6507 42.7081 15.62 40.5077 12.3125L37.2332 14.474C39.0657 17.1524 40.1457 20.443 40.1457 24C40.1457 27.557 39.0657 30.8476 37.2331 33.526Z" fill="#000000"/>
<path d="M30.6667 18.8085C31.7724 20.2177 32.4371 22.0269 32.4371 24C32.4371 25.9733 31.7723 27.7826 30.6664 29.1918L33.9545 31.3622C35.4213 29.3152 36.2913 26.7649 36.2913 24C36.2913 21.2352 35.4214 18.6851 33.9548 16.6382L30.6667 18.8085Z" fill="#000000"/>
</svg>
