<svg xmlns="http://www.w3.org/2000/svg" width="24" height="24" viewBox="0 0 24 24" fill="none"><rect width="24" height="24" fill="none"/>
<path d="M12 2C12.3202 2.00001 12.6367 2.01646 12.9492 2.0459C12.5711 2.89366 12.3594 3.83212 12.3594 4.82031C12.3594 5.60274 12.4928 6.35381 12.7354 7.05371C12.4954 7.01833 12.2498 7.00001 12 7C9.23875 7.00007 7.00019 9.23878 7 12C7.0002 14.7612 9.23876 16.9999 12 17C14.7612 16.9999 16.9998 14.7612 17 12C17 11.7498 16.9808 11.504 16.9453 11.2637C17.6455 11.5064 18.3969 11.6406 19.1797 11.6406C20.1677 11.6406 21.1055 11.4278 21.9531 11.0498C21.9826 11.3626 22 11.6795 22 12C21.9998 17.5226 17.5226 21.9999 12 22C6.47734 21.9999 2.0002 17.5226 2 12C2.00019 6.47736 6.47733 2.00007 12 2Z" fill="#000000"/>
<path d="M20.1797 3.82031H23.1797V5.82031H20.1797V8.82031H18.1797V5.82031H15.1797V3.82031H18.1797V0.820312H20.1797V3.82031Z" fill="#000000"/>
</svg>
