<svg xmlns="http://www.w3.org/2000/svg" width="24" height="24" viewBox="0 0 24 24" fill="none"><rect width="24" height="24" fill="none"/>
<path fill-rule="evenodd" clip-rule="evenodd" d="M21.9833 16C22.6113 16.0002 23.089 15.442 22.986 14.8285L22.6427 12.7842C22.4752 11.7871 21.9933 10.8725 21.2803 10.1749C20.7039 9.61105 19.9765 9.189 19.1421 8.97989C13.8561 7.65494 10.1382 7.69159 4.88161 8.98091C3.00539 9.44114 1.65819 10.9766 1.35377 12.7941L1.01395 14.8233C0.911186 15.4368 1.38918 15.9951 2.01716 15.9953L6.10396 15.9963C6.57081 15.9963 6.97756 15.6817 7.09033 15.233L7.41676 12.2173L16.5834 12.2173L16.9097 15.2354C17.0227 15.684 17.4296 15.9989 17.8964 15.999L21.9833 16Z" fill="#000000"/>
</svg>
