<svg xmlns="http://www.w3.org/2000/svg" width="16" height="16" viewBox="0 0 16 16" fill="none"><rect width="16" height="16" fill="none"/>
<path d="M5.99999 7V9H3.99999V7H5.99999Z" fill="#000000"/>
<path d="M5.99999 12V10H3.99999L3.99999 12H5.99999Z" fill="#000000"/>
<path d="M6.99999 7H8.99999V9H6.99999V7Z" fill="#000000"/>
<path d="M8.99999 10H6.99999V12H8.99999V10Z" fill="#000000"/>
<path d="M12 7V9H9.99999L9.99999 7H12Z" fill="#000000"/>
<path fill-rule="evenodd" clip-rule="evenodd" d="M2.99999 0H4.99999V1H11L11 0H13V1H15L15 12.7143C15 13.9766 13.9553 15 12.6667 15H3.33334C2.04469 15 0.99999 13.9767 1 12.7143L1 1H2.99999V0ZM13.4444 5H2.55555L2.55556 12.7143C2.55555 13.1351 2.90376 13.4762 3.33334 13.4762H12.6667C13.0962 13.4762 13.4444 13.1351 13.4444 12.7143L13.4444 5Z" fill="#000000"/>
</svg>
