<svg xmlns="http://www.w3.org/2000/svg" width="24" height="24" viewBox="0 0 24 24" fill="none"><rect width="24" height="24" fill="none"/>
<path d="M10.4025 2.61734L12.0743 1L17.2861 6.03425L13.2753 9.90405L11.628 8.25679L12.5118 7.40846H10.7797L8.09917 4.72795C8.43989 4.67987 8.78843 4.65497 9.143 4.65497H12.5158L10.4025 2.61734Z" fill="#000000"/>
<path fill-rule="evenodd" clip-rule="evenodd" d="M4.26616 6.50909C2.87172 7.76538 2.00013 9.55394 2.00013 11.5387V14.7511H4.85727V11.5387C4.85727 10.3326 5.39371 9.24723 6.2492 8.49213L11.3188 13.5617L6.76659 17.9753L11.9722 23L13.6601 21.3672L11.5463 19.3401H14.8573C15.542 19.3401 16.2042 19.2473 16.831 19.074L19.1631 21.406L20.574 19.9951L3.21364 2.63477L1.80273 4.04567L4.26616 6.50909ZM14.3437 16.5867L12.9669 15.2099L11.5463 16.5867H14.3437Z" fill="#000000"/>
<path d="M18.2947 14.9235L20.2933 16.9221C21.3576 15.72 22.0001 14.1605 22.0001 12.4564V9.24401H19.143V12.4564C19.143 13.3813 18.8276 14.2351 18.2947 14.9235Z" fill="#000000"/>
</svg>
