<svg xmlns="http://www.w3.org/2000/svg" width="24" height="24" viewBox="0 0 24 24" fill="none"><rect width="24" height="24" fill="none"/>
<path fill-rule="evenodd" clip-rule="evenodd" d="M3.40032 2.0139L2 3.41421L4.00015 5.41436V22.7738L11.5255 18.2207C11.8221 18.0413 12.1782 18.0413 12.4748 18.2207L20.0002 22.7738V21.4144L20.5869 22.0011L22.0011 20.5869L21.6007 20.1864L21.5868 20.2003L3.40032 2.0139ZM20.0002 15.7853V5.11779C20.0002 3.45025 18.7092 2.00033 16.9997 2.0002C13.3985 1.99993 10.6018 1.99993 7.00055 2.0002C6.75756 2.00022 6.52302 2.02953 6.29945 2.0846L8.21496 4.00012C11.2565 3.99994 13.813 3.99996 16.9996 4.0002C17.4992 4.00024 18.0002 4.44642 18.0002 5.11779V13.7853L20.0002 15.7853ZM6.00015 19.2262V7.41436L17.5237 18.9379L13.5101 16.5096C12.577 15.945 11.4233 15.945 10.4902 16.5096L6.00015 19.2262Z" fill="#000000"/>
</svg>
