<svg xmlns="http://www.w3.org/2000/svg" width="24" height="24" viewBox="0 0 24 24" fill="none"><rect width="24" height="24" fill="none"/>
<path d="M9.65854 13.0869H8.34184L8.92987 10.7832H9.07047L9.65854 13.0869Z" fill="#FA9313"/>
<path fill-rule="evenodd" clip-rule="evenodd" d="M4.04146 5.80678L1 20H23L19.9585 5.80679C19.7327 4.75292 18.8014 4 17.7236 4H6.27643C5.19863 4 4.26729 4.75291 4.04146 5.80678ZM7.71624 9L5.50046 16H7.59826L7.97017 14.543H10.0302L10.4022 16H12.5L10.284 9H7.71624ZM18.4999 10.7568H16.4984V13.6563C16.4984 14.1928 16.2125 14.5425 15.7243 14.5425C15.2557 14.5425 14.9383 14.2215 14.9383 13.6563V10.7568H12.9639V14.1401C12.9639 15.3759 13.7938 16.1327 14.9362 16.1327C15.7612 16.1327 16.2006 15.7639 16.4495 15.1173H16.5472V15.9986H18.4999V10.7568Z" fill="#FA9313"/>
</svg>
