<svg xmlns="http://www.w3.org/2000/svg" width="24" height="24" viewBox="0 0 24 24" fill="none"><rect width="24" height="24" fill="none"/>
<path d="M6.34928 7.99999H8.99998V2L15 2L15 7.99999L17.6507 7.99999C18.1338 7.99999 18.3991 8.56199 18.0921 8.93493L12.4831 15.7528C12.3477 15.9104 12.1687 15.9971 12 16C11.8312 15.9971 11.6523 15.9104 11.5169 15.7528L5.90793 8.93493C5.60094 8.56199 5.86623 7.99999 6.34928 7.99999Z" fill="#000000"/>
<path d="M9.98633 17.0363L8.31011 15H2V19C2 20.1046 2.89543 21 4 21H20C21.1046 21 22 20.1046 22 19V15H15.6899L14.0137 17.0363L13.9998 17.0525C13.5472 17.5789 12.8533 17.9851 12.0348 17.9994L12 18L11.9652 17.9994C11.1464 17.9851 10.4526 17.5787 10.0003 17.0525L9.98633 17.0363Z" fill="#000000"/>
</svg>
