<svg xmlns="http://www.w3.org/2000/svg" width="24" height="24" viewBox="0 0 24 24" fill="none"><rect width="24" height="24" fill="none"/>
<path fill-rule="evenodd" clip-rule="evenodd" d="M9 9C9 8.60603 9.0776 8.21593 9.22836 7.85195C9.37913 7.48797 9.6001 7.15726 9.87868 6.87868C10.1573 6.6001 10.488 6.37913 10.852 6.22836C11.2159 6.0776 11.606 6 12 6C12.394 6 12.7841 6.0776 13.1481 6.22836C13.512 6.37913 13.8427 6.6001 14.1213 6.87868C14.3999 7.15726 14.6209 7.48797 14.7716 7.85195C14.9224 8.21593 15 8.60603 15 9V10.5H16.5V16.6667C16.5 17.403 15.9244 18 15.2143 18H8.78571C8.07563 18 7.5 17.403 7.5 16.6667V10.5H9V9ZM13.3858 8.42598C13.4612 8.60796 13.5 8.80302 13.5 9V10.5H10.5V9C10.5 8.80302 10.5388 8.60796 10.6142 8.42597C10.6896 8.24399 10.8001 8.07863 10.9393 7.93934C11.0786 7.80005 11.244 7.68956 11.426 7.61418C11.608 7.5388 11.803 7.5 12 7.5C12.197 7.5 12.392 7.5388 12.574 7.61418C12.756 7.68956 12.9214 7.80005 13.0607 7.93934C13.1999 8.07863 13.3104 8.24399 13.3858 8.42598ZM10.5 14.25C10.5 15.0784 11.1716 15.75 12 15.75C12.8284 15.75 13.5 15.0784 13.5 14.25C13.5 13.4216 12.8284 12.75 12 12.75C11.1716 12.75 10.5 13.4216 10.5 14.25Z" fill="#000000"/>
</svg>
