<svg xmlns="http://www.w3.org/2000/svg" width="16" height="16" viewBox="0 0 16 16" fill="none"><rect width="16" height="16" fill="none"/>
<g clip-path="url(#clip0_115011_7935)">
<path fill-rule="evenodd" clip-rule="evenodd" d="M1.62589 10.2581C1.05056 9.47297 0.548221 8.65079 0.118961 7.80096C2.30329 8.2962 4.64487 7.91368 6.58217 6.65776L11.2727 11.2756C10.9328 11.9201 10.5036 12.5301 9.98508 13.0874L9.64487 13.4329C9.08225 13.9731 8.46288 14.4202 7.80631 14.7743C7.55992 14.8896 7.28041 14.9426 6.98998 14.915C6.79025 14.8959 6.60279 14.8404 6.43357 14.7556C5.99679 14.4786 5.56948 14.1805 5.15307 13.8613C5.21696 13.8391 5.28198 13.8159 5.34808 13.7917C6.2166 13.4735 7.14511 12.8038 7.50081 12.5087C7.17419 12.5919 6.29921 12.76 5.41231 12.7669C4.89964 12.7709 4.42354 12.7129 4.05936 12.6458C3.75981 12.5845 3.5215 12.4411 3.29015 12.2126L3.29909 12.2229C3.07158 11.992 2.85172 11.7563 2.63951 11.5162C3.12001 11.3624 3.53631 11.1867 3.76224 11.0776C3.26567 11.0009 2.42889 10.8547 1.83283 10.458C1.75722 10.3978 1.68801 10.3307 1.62589 10.2581ZM11.7703 9.78601C11.9514 9.96912 12.2556 9.93671 12.394 9.71954L12.8092 9.06823C12.9726 8.81194 13.0554 8.52362 13.0607 8.23583C13.0686 7.81406 12.9102 7.39349 12.597 7.07672L12.3258 6.80244L15.9943 3.17474L14.588 1.75264L10.9195 5.38034L10.6801 5.13829C10.1532 4.60539 9.32753 4.50806 8.69111 4.9038L8.0352 5.31165C7.91628 5.38559 7.85114 5.50916 7.84585 5.63596C7.84139 5.74238 7.87912 5.85107 7.96172 5.93462L11.7703 9.78601Z" fill="#000000"/>
</g>
<defs>
<clipPath id="clip0_115011_7935">
<rect width="16" height="16" fill="white"/>
</clipPath>
</defs>
</svg>
