<svg xmlns="http://www.w3.org/2000/svg" width="24" height="24" viewBox="0 0 24 24" fill="none"><rect width="24" height="24" fill="none"/>
<path d="M20.271 9.01758C20.874 9.01758 21.1987 8.68359 21.1987 8.08057V5.82617C21.1987 3.84082 20.1597 2.80176 18.1465 2.80176H15.8921C15.2891 2.80176 14.9551 3.12646 14.9551 3.72949C14.9551 4.32324 15.2891 4.64795 15.8921 4.64795H18.0259C18.8701 4.64795 19.3525 5.09326 19.3525 5.99316V8.08057C19.3525 8.68359 19.6772 9.01758 20.271 9.01758ZM3.72949 9.01758C4.33252 9.01758 4.64795 8.68359 4.64795 8.08057V5.99316C4.64795 5.09326 5.12109 4.64795 5.97461 4.64795H8.1084C8.71143 4.64795 9.04541 4.32324 9.04541 3.72949C9.04541 3.12646 8.71143 2.80176 8.1084 2.80176H5.854C3.8501 2.80176 2.80176 3.83154 2.80176 5.82617V8.08057C2.80176 8.68359 3.13574 9.01758 3.72949 9.01758ZM11.2627 13.5542H11.3462C12.3018 13.5542 12.8213 13.0254 12.8213 12.0791V9.16602C12.8213 8.78564 12.5708 8.53516 12.1812 8.53516C11.7915 8.53516 11.541 8.78564 11.541 9.16602V12.1255C11.541 12.209 11.4854 12.2554 11.4019 12.2554H11.1235C10.7617 12.2554 10.4834 12.5337 10.4834 12.8862C10.4834 13.3037 10.7803 13.5542 11.2627 13.5542ZM8.52588 11.3833C8.98047 11.3833 9.30518 11.0586 9.30518 10.5947V9.33301C9.30518 8.86914 8.98047 8.54443 8.52588 8.54443C8.07129 8.54443 7.74658 8.87842 7.74658 9.33301V10.5947C7.74658 11.0586 8.07129 11.3833 8.52588 11.3833ZM15.4561 11.3833C15.9014 11.3833 16.2354 11.0586 16.2354 10.5947V9.33301C16.2354 8.87842 15.9014 8.54443 15.4561 8.54443C14.9922 8.54443 14.6675 8.86914 14.6675 9.33301V10.5947C14.6675 11.0586 14.9922 11.3833 15.4561 11.3833ZM11.9492 14.2036C13.0718 14.2036 14.2129 14.686 15.02 15.4932C15.1406 15.6138 15.2056 15.7715 15.2056 15.9756C15.2056 16.3374 14.918 16.6064 14.5562 16.6064C14.3706 16.6064 14.2314 16.5415 14.0459 16.3467C13.5542 15.8364 12.7563 15.4746 11.9492 15.4746C11.1792 15.4746 10.3906 15.8179 9.86182 16.3467C9.7041 16.5044 9.56494 16.6064 9.34229 16.6064C8.97119 16.6064 8.69287 16.3374 8.69287 15.9756C8.69287 15.8086 8.75781 15.6509 8.87842 15.5024C9.62061 14.6582 10.7988 14.2036 11.9492 14.2036ZM5.854 21.1987H8.1084C8.71143 21.1987 9.04541 20.8647 9.04541 20.271C9.04541 19.6772 8.71143 19.3433 8.1084 19.3433H5.97461C5.12109 19.3433 4.64795 18.9072 4.64795 18.0073V15.9199C4.64795 15.3169 4.32324 14.9829 3.72949 14.9829C3.12646 14.9829 2.80176 15.3169 2.80176 15.9199V18.1743C2.80176 20.1597 3.8501 21.1987 5.854 21.1987ZM15.8921 21.1987H18.1465C20.1597 21.1987 21.1987 20.1597 21.1987 18.1743V15.9199C21.1987 15.3169 20.8647 14.9829 20.271 14.9829C19.668 14.9829 19.3525 15.3169 19.3525 15.9199V18.0073C19.3525 18.9072 18.8701 19.3433 18.0259 19.3433H15.8921C15.2891 19.3433 14.9551 19.6772 14.9551 20.271C14.9551 20.8647 15.2891 21.1987 15.8921 21.1987Z" fill="#000000"/>
</svg>
