<svg xmlns="http://www.w3.org/2000/svg" width="24" height="24" viewBox="0 0 24 24" fill="none"><rect width="24" height="24" fill="none"/>
<path d="M16.9999 1H6.99995L8.01329 3.70225C8.30602 4.48285 9.05226 5 9.88595 5H14.1139C14.9476 5 15.6938 4.48285 15.9866 3.70225L16.9999 1Z" fill="#000000"/>
<path d="M5.99994 17.5L8.54357 6.76807C8.96666 6.91888 9.41947 6.99984 9.88597 6.99984H14.1139C14.5804 6.99984 15.0332 6.91888 15.4563 6.76808L17.9356 17.5C18.032 17.8713 17.9076 18.2651 17.6152 18.5136L12.6157 22.763C12.2421 23.0806 11.6934 23.0806 11.3198 22.763L6.32026 18.5136C6.02791 18.2651 5.90347 17.8713 5.99994 17.5Z" fill="#000000"/>
</svg>
