<svg xmlns="http://www.w3.org/2000/svg" width="48" height="48" viewBox="0 0 48 48" fill="none"><rect width="48" height="48" fill="none"/>
<path d="M22.1269 7.00948C22.7748 5.27679 25.2257 5.27679 25.8736 7.00948L29.4615 16.6049C29.7426 17.3566 30.4458 17.8675 31.2476 17.9025L41.482 18.3497C43.3301 18.4304 44.0875 20.7613 42.6398 21.913L34.6228 28.2904C33.9948 28.79 33.7262 29.6167 33.9406 30.39L36.6779 40.2618C37.1722 42.0444 35.1894 43.485 33.6468 42.464L25.1041 36.8101C24.4349 36.3672 23.5657 36.3672 22.8965 36.8101L14.3537 42.464C12.8111 43.485 10.8283 42.0444 11.3226 40.2618L14.0599 30.39C14.2744 29.6167 14.0058 28.79 13.3777 28.2904L5.36071 21.913C3.91303 20.7613 4.67038 18.4304 6.51848 18.3497L16.753 17.9025C17.5547 17.8675 18.2579 17.3566 18.539 16.6049L22.1269 7.00948Z" fill="#000000"/>
</svg>
