<svg xmlns="http://www.w3.org/2000/svg" width="24" height="24" viewBox="0 0 24 24" fill="none"><rect width="24" height="24" fill="none"/>
<path fill-rule="evenodd" clip-rule="evenodd" d="M8.66868 7.25364L8.66912 7.25243L10.1986 8.78186L10.1981 8.78301L15.9092 14.4942L15.9095 14.4929L18.3727 16.956L18.3733 16.9583L22.5089 21.0938L21.0947 22.508L19.2282 20.6416C19.0693 22.0203 17.4749 22.9227 16.1912 22.059L11.9999 19.2391L7.80859 22.059C6.2949 23.0774 4.34929 21.6404 4.83432 19.8622L6.17732 14.9387L2.24396 11.7579C0.823425 10.6091 1.56657 8.28405 3.38003 8.20349L6.64507 8.05846L2.00278 3.41617L3.41699 2.00195L8.66868 7.25364ZM8.55588 9.96927C8.53301 9.9711 8.51005 9.97254 8.48701 9.97356L3.4657 10.1966L7.39906 13.3774C8.01533 13.8758 8.27888 14.7003 8.06846 15.4717L6.72546 20.3953L10.9168 17.5754C11.5734 17.1336 12.4263 17.1336 13.083 17.5754L17.2743 20.3953L16.6338 18.0472L8.55588 9.96927Z" fill="#000000"/>
<path d="M20.5341 10.1966L17.1657 12.9205L18.5751 14.33L21.7558 11.7579C23.1763 10.6091 22.4332 8.28405 20.6197 8.20349L15.5984 7.98045L13.8381 3.19472C13.2023 1.46634 10.7974 1.46635 10.1617 3.19472L9.42973 5.18461L10.9615 6.71639L11.9999 3.89345L13.7602 8.67918C14.036 9.429 14.726 9.93861 15.5127 9.97356L20.5341 10.1966Z" fill="#000000"/>
</svg>
