<svg xmlns="http://www.w3.org/2000/svg" width="24" height="24" viewBox="0 0 24 24" fill="none"><rect width="24" height="24" fill="none"/>
<path fill-rule="evenodd" clip-rule="evenodd" d="M9.08862 12.1045C8.36663 13.0281 8.00563 13.49 8.00012 13.88C7.99532 14.2191 8.13705 14.5417 8.38445 14.7548C8.66904 15 9.23294 15 10.3607 15H13.6393C14.7671 15 15.331 15 15.6155 14.7548C15.863 14.5417 16.0047 14.2191 15.9999 13.88C15.9944 13.49 15.6334 13.0281 14.9114 12.1045L13.2721 10.0073C12.8352 9.4484 12.6168 9.16896 12.3553 9.06705C12.1259 8.97765 11.8741 8.97765 11.6447 9.06705C11.3832 9.16896 11.1648 9.4484 10.7279 10.0073L9.08862 12.1045Z" fill="#000000"/>
</svg>
