<svg xmlns="http://www.w3.org/2000/svg" width="24" height="24" viewBox="0 0 24 24" fill="none"><rect width="24" height="24" fill="none"/>
<path fill-rule="evenodd" clip-rule="evenodd" d="M2.0648 5.79744C2.00078 6.58104 2 7.58337 2 9V15C2 16.4166 2.00078 17.419 2.0648 18.2026C2.12787 18.9745 2.24729 19.4457 2.43597 19.816C2.81947 20.5686 3.43139 21.1805 4.18404 21.564C4.55435 21.7527 5.02552 21.8721 5.79744 21.9352C6.58104 21.9992 7.58337 22 9 22H15C16.4166 22 17.419 21.9992 18.2026 21.9352C18.9745 21.8721 19.4457 21.7527 19.816 21.564C20.5686 21.1805 21.1805 20.5686 21.564 19.816C21.7527 19.4457 21.8721 18.9745 21.9352 18.2026C21.9992 17.419 22 16.4166 22 15V9C22 7.58337 21.9992 6.58104 21.9352 5.79744C21.8721 5.02552 21.7527 4.55435 21.564 4.18404C21.1805 3.43139 20.5686 2.81947 19.816 2.43597C19.4457 2.24729 18.9745 2.12787 18.2026 2.0648C17.419 2.00078 16.4166 2 15 2H9C7.58337 2 6.58104 2.00078 5.79744 2.0648C5.02552 2.12787 4.55435 2.24729 4.18404 2.43597C3.43139 2.81947 2.81947 3.43139 2.43597 4.18404C2.24729 4.55435 2.12787 5.02552 2.0648 5.79744ZM1 9C1 6.19974 1 4.79961 1.54497 3.73005C2.02433 2.78924 2.78924 2.02433 3.73005 1.54497C4.79961 1 6.19974 1 9 1H15C17.8003 1 19.2004 1 20.27 1.54497C21.2108 2.02433 21.9757 2.78924 22.455 3.73005C23 4.79961 23 6.19974 23 9V15C23 17.8003 23 19.2004 22.455 20.27C21.9757 21.2108 21.2108 21.9757 20.27 22.455C19.2004 23 17.8003 23 15 23H9C6.19974 23 4.79961 23 3.73005 22.455C2.78924 21.9757 2.02433 21.2108 1.54497 20.27C1 19.2004 1 17.8003 1 15V9Z" fill="#000000"/>
<path fill-rule="evenodd" clip-rule="evenodd" d="M12.8571 6H11.1429V11.1429H6V12.8571H11.1429V18H12.8571V12.8571H18V11.1429H12.8571V6Z" fill="#000000"/>
</svg>
