<svg xmlns="http://www.w3.org/2000/svg" width="24" height="24" viewBox="0 0 24 24" fill="none"><rect width="24" height="24" fill="none"/>
<path fill-rule="evenodd" clip-rule="evenodd" d="M19.8783 7.65637C18.2932 5.2388 15.4553 3.75351 12.3686 4.03268C7.91316 4.43565 4.63237 8.3611 5.03332 12.7942C5.33564 16.1368 7.64563 18.8214 10.6758 19.7659C10.2614 15.7331 11.3433 12.6913 13.2017 10.7012C15.1024 8.66575 17.7424 7.81888 20.116 8.12805C20.0545 7.96238 19.9754 7.80444 19.8783 7.65637ZM20.1032 10.1478C20.0873 10.1459 20.0714 10.1436 20.0555 10.1409C18.2754 9.83934 16.1786 10.4437 14.6634 12.0662C13.2547 13.5748 12.2764 16.0502 12.6778 19.6796C13.2634 19.2678 14.1044 18.5685 15.0073 17.4672C15.2062 17.2247 15.4028 16.9873 15.5982 16.7514C16.9284 15.1454 18.1996 13.6106 19.7179 11.0053C19.8817 10.7242 20.0105 10.4361 20.1032 10.1478ZM12.1884 2.04081C16.0371 1.69272 19.5757 3.54719 21.5508 6.55976C22.6931 8.30191 22.3664 10.4326 21.4459 12.0122C19.8411 14.766 18.4719 16.4183 17.1344 18.0324C16.9404 18.2664 16.7471 18.4996 16.5539 18.7353C15.4612 20.068 14.425 20.9112 13.694 21.4085C12.9078 21.9433 11.9538 22.111 11.0489 21.9251C6.80763 21.0535 3.45107 17.5034 3.04145 12.9744C2.54045 7.43508 6.63903 2.54273 12.1884 2.04081Z" fill="#000000"/>
</svg>
