<svg xmlns="http://www.w3.org/2000/svg" width="16" height="16" viewBox="0 0 16 16" fill="none"><rect width="16" height="16" fill="none"/>
<path fill-rule="evenodd" clip-rule="evenodd" d="M4.42857 4.42857V5.85714H5.85714V4.42857H4.42857ZM3.71429 3C3.3198 3 3 3.3198 3 3.71429V7.28571H7.28571V3H3.71429Z" fill="#000000"/>
<path fill-rule="evenodd" clip-rule="evenodd" d="M11.5714 4.42857H10.1429V5.85714H11.5714V4.42857ZM8.71429 3V7.28571H13V3.71429C13 3.3198 12.6802 3 12.2857 3H8.71429Z" fill="#000000"/>
<path fill-rule="evenodd" clip-rule="evenodd" d="M5.85714 10.1429H4.42857V11.5714H5.85714V10.1429ZM3 8.71429V12.2857C3 12.6802 3.3198 13 3.71429 13H7.28571V8.71429H3Z" fill="#000000"/>
<path d="M10.1429 8.71429H8.71429V10.1429H10.1429V11.5714H8.71429V13H10.1429V11.5714H11.5714V13H12.2857C12.6805 13 13 12.6805 13 12.2857V10.1429H10.1429V8.71429Z" fill="#000000"/>
</svg>
