<svg xmlns="http://www.w3.org/2000/svg" width="24" height="24" viewBox="0 0 24 24" fill="none"><rect width="24" height="24" fill="none"/>
<path fill-rule="evenodd" clip-rule="evenodd" d="M7.3 4H13.5816C14.9804 4 17.7 4.66667 17.7 8C17.7 9.77733 17.2671 10.8893 16.4 11.3333C18.1329 11.7773 19 13.1107 19 15.3333C19 16 19 20 13.8 20H7.3C6.95522 20 6.62456 19.8595 6.38076 19.6095C6.13696 19.3594 6 19.0203 6 18.6667V5.33333C6 4.97971 6.13696 4.64057 6.38076 4.39052C6.62456 4.14048 6.95522 4 7.3 4ZM8.6 17.3333H13.15C14.45 17.3333 15.75 17 15.75 15.3333C15.75 13.6667 14.3148 13.3333 13.15 13.3333H8.6V17.3333ZM8.6 10.7H12.5C13.1552 10.7 15.1 10.7 15.1 8.66667C15.1 6.63333 12.5 6.66667 12.5 6.66667H8.6V10.7Z" fill="#000000"/>
</svg>
