<svg xmlns="http://www.w3.org/2000/svg" width="16" height="16" viewBox="0 0 16 16" fill="none"><rect width="16" height="16" fill="none"/>
<path d="M2.00004 9C2.00004 9 10.4477 9 11 9C11 8.33333 11.0001 7.16667 11.0001 6.5H2.0001C2.00006 7 2.0001 8.5 2.00004 9ZM2.0001 2.5C2.00003 3.16667 2 4.33333 2 5H14C14 4.33333 14 3.16667 14 2.5C14 2.5 2.55238 2.5 2.0001 2.5ZM2.00009 13C2.21041 13 14 13 14 13C14 12.5 14 11 14 10.5C14 10.5 2.55238 10.5 2.00009 10.5C2 11 2 12.5 2.00009 13Z" fill="#000000"/>
</svg>
