<svg xmlns="http://www.w3.org/2000/svg" width="24" height="24" viewBox="0 0 24 24" fill="none"><rect width="24" height="24" fill="none"/>
<path d="M3.41421 2.08594L2 3.50015L6.26063 7.76078C5.8971 7.88979 5.52189 7.9891 5.13851 8.0569L4.07442 8.24507L3.40469 9.17131L15.2333 20.9999L16.1594 20.3309L16.3477 19.2662C16.4154 18.8827 16.5148 18.5075 16.6438 18.1439L20.6676 22.1678L22.0818 20.7536L17.6289 16.3006L8.10409 6.77544L3.41421 2.08594Z" fill="#000000"/>
<path d="M19.5827 14.243L18.9915 14.8344L9.5701 5.41303L10.1615 4.82183C11.3364 3.64689 12.9044 2.99988 14.5773 2.99988C18.0927 2.99988 21.4046 6.29693 21.4046 9.8272C21.4046 11.5001 20.7576 13.0681 19.5827 14.243Z" fill="#000000"/>
<path d="M6.06779 18.2486C7.04372 19.2245 8.62502 19.2245 9.60094 18.2486L6.06779 14.7155C5.09187 15.6914 5.09187 17.2727 6.06779 18.2486Z" fill="#000000"/>
</svg>
