<svg xmlns="http://www.w3.org/2000/svg" width="24" height="24" viewBox="0 0 24 24" fill="none"><rect width="24" height="24" fill="none"/>
<path fill-rule="evenodd" clip-rule="evenodd" d="M6 1C3.23858 1 1 3.23858 1 6V18C1 20.7614 3.23858 23 6 23H18C20.7614 23 23 20.7614 23 18V6C23 3.23858 20.7614 1 18 1H6ZM11.4 8.7C11.4 10.1912 10.1912 11.4 8.7 11.4C7.20883 11.4 6 10.1912 6 8.7C6 7.20883 7.20883 6 8.7 6C10.1912 6 11.4 7.20883 11.4 8.7ZM8.7 9.72C9.26333 9.72 9.72 9.26333 9.72 8.7C9.72 8.13667 9.26333 7.68 8.7 7.68C8.13667 7.68 7.68 8.13667 7.68 8.7C7.68 9.26333 8.13667 9.72 8.7 9.72ZM7.19191 16.1881L15.291 6.53595L16.8078 7.80867L8.70868 17.4608L7.19191 16.1881ZM18 15.3C18 16.7912 16.7912 18 15.3 18C13.8088 18 12.6 16.7912 12.6 15.3C12.6 13.8088 13.8088 12.6 15.3 12.6C16.7912 12.6 18 13.8088 18 15.3ZM15.3 16.32C15.8633 16.32 16.32 15.8633 16.32 15.3C16.32 14.7367 15.8633 14.28 15.3 14.28C14.7367 14.28 14.28 14.7367 14.28 15.3C14.28 15.8633 14.7367 16.32 15.3 16.32Z" fill="#000000"/>
</svg>
