<svg xmlns="http://www.w3.org/2000/svg" width="16" height="16" viewBox="0 0 16 16" fill="none"><rect width="16" height="16" fill="none"/>
<path d="M10 5.33333H11.5179C10.5179 4 9.4371 3.33333 7.85128 3.33333C5.73729 3.33333 3.99999 4.33333 3.37791 8H2.00001C2.33334 4 4.99586 2 7.85128 2C9.73611 2 11.5178 3 12.5179 4.33333L12.6667 2.66667H14V6.66667H10V5.33333Z" fill="#000000"/>
<path d="M5.99997 10.6667H4.48209C5.48208 12 6.5629 12.6667 8.14872 12.6667C10.2627 12.6667 12 11.6667 12.6221 8H14C13.6667 12 11.0041 14 8.14872 14C6.26389 14 4.48217 13 3.48209 11.6667L3.33332 13.3333H2V9.33333H5.99997V10.6667Z" fill="#000000"/>
</svg>
