<svg xmlns="http://www.w3.org/2000/svg" width="24" height="24" viewBox="0 0 24 24" fill="none"><rect width="24" height="24" fill="none"/>
<path d="M14.1273 7.6355L11 0L7.87275 7.6355L0 8.40325L5.94 13.89L4.20163 22L10.8272 17.8634L8.75419 14.5223C7.85995 13.081 8.31811 11.1844 9.77208 10.3105C11.0916 9.51743 12.7952 9.83797 13.7355 11.0584L15.8222 13.7667L15.9766 13.9609L16.3917 13.5836L22 8.40325L14.1273 7.6355Z" fill="#000000"/>
<path d="M10.8025 12.0239C11.2522 11.7536 11.8313 11.8628 12.1513 12.2782L15.0961 16.1002L17.5849 15.3C19.2616 14.7609 21.086 15.4311 22.0176 16.9277L22.4057 17.5264C22.778 18.1311 23.0002 18.8371 23 19.5C23 21.9853 20.9853 24 18.5 24H17.1361C17.0905 24.0006 17.0452 24.0006 17 24C15.9035 23.9852 14.9155 23.6092 13.9835 23.0643C13.3838 22.7137 12.7182 22.4733 12.0237 22.4733H10.8962L10 22.5L10.0595 21.7272C10.1679 21.0474 10.6049 20.4543 11.2495 20.2195C12.293 19.8395 13.3205 19.6349 14.3461 19.7403L10.4538 13.4669C10.1476 12.9735 10.3049 12.3229 10.8025 12.0239Z" fill="#000000"/>
</svg>
