<svg xmlns="http://www.w3.org/2000/svg" width="16" height="16" viewBox="0 0 16 16" fill="none"><rect width="16" height="16" fill="none"/>
<path d="M8 12.3636C8.82845 12.3636 9.5 11.7124 9.5 10.9091C9.5 10.1057 8.82845 9.45455 8 9.45455C7.17157 9.45455 6.5 10.1057 6.5 10.9091C6.5 11.7124 7.17157 12.3636 8 12.3636Z" fill="#000000"/>
<path fill-rule="evenodd" clip-rule="evenodd" d="M8 0C5.92893 0 4.25 1.62806 4.25 3.63636V4.36364H5.75V3.63636C5.75 2.43138 6.75736 1.45455 8 1.45455C9.24264 1.45455 10.25 2.43138 10.25 3.63636V5.81818H2V13.8182C2 15.0232 3.00736 16 4.25 16H11.75C12.9926 16 14 15.0232 14 13.8182V5.81818H11.75V3.63636C11.75 1.62806 10.0711 0 8 0ZM3.5 13.8182V7.27273H12.5V13.8182C12.5 14.2198 12.1642 14.5455 11.75 14.5455H4.25C3.83579 14.5455 3.5 14.2198 3.5 13.8182Z" fill="#000000"/>
</svg>
