<svg xmlns="http://www.w3.org/2000/svg" width="24" height="24" viewBox="0 0 24 24" fill="none"><rect width="24" height="24" fill="none"/>
<path d="M21 11.0918V8.43937C21 7.9035 20.5659 7.46943 20.0301 7.46943H17.5013C16.9655 7.46943 16.5314 7.03535 16.5314 6.49948V3.96994C16.5308 3.43407 16.0967 3 15.5609 3H12.2209C7.34711 3 3.19093 6.78246 3.00655 11.6527C2.81321 16.7732 6.92202 21 12.0001 21H17.7952C18.331 21 18.7651 20.5659 18.7651 20.0301V17.3776C18.7651 16.8417 18.331 16.4076 17.7952 16.4076H12.1556C9.81059 16.4076 7.76004 14.6425 7.60319 12.3025C7.43097 9.73648 9.47001 7.59363 12.0001 7.59363H15.4367C15.9725 7.59363 16.4066 8.02771 16.4066 8.56358V11.0925C16.4066 11.6283 16.8406 12.0624 17.3765 12.0624H20.0288C20.5647 12.0624 20.9987 11.6283 20.9987 11.0925L21 11.0918Z" fill="#64E34B"/>
</svg>
