<svg xmlns="http://www.w3.org/2000/svg" width="16" height="16" viewBox="0 0 16 16" fill="none"><rect width="16" height="16" fill="none"/>
<path d="M5.99999 8V10H3.99999V8H5.99999Z" fill="#000000"/>
<path d="M5.99999 13V11H3.99999L3.99999 13H5.99999Z" fill="#000000"/>
<path d="M6.99999 8H8.99999V10H6.99999V8Z" fill="#000000"/>
<path d="M8.99999 11H6.99999V13H8.99999V11Z" fill="#000000"/>
<path d="M12 8V10H9.99999L9.99999 8H12Z" fill="#000000"/>
<path fill-rule="evenodd" clip-rule="evenodd" d="M2.99999 1H4.99999V2H11L11 1H13V2H15L15 13.7143C15 14.9766 13.9553 16 12.6667 16H3.33334C2.04469 16 0.99999 14.9767 1 13.7143L1 2H2.99999V1ZM13.4444 6H2.55555L2.55556 13.7143C2.55555 14.1351 2.90376 14.4762 3.33334 14.4762H12.6667C13.0962 14.4762 13.4444 14.1351 13.4444 13.7143L13.4444 6Z" fill="#000000"/>
</svg>
