<svg xmlns="http://www.w3.org/2000/svg" width="24" height="24" viewBox="0 0 24 24" fill="none"><rect width="24" height="24" fill="none"/>
<path d="M5 2C4.44772 2 4 2.44772 4 3V21C4 21.5523 4.44772 22 5 22H19C19.5523 22 20 21.5523 20 21V9.81496C20 8.0401 18.4675 6.65325 16.7015 6.82985L15.2432 6.97568C15.1175 6.98825 15.0117 6.88251 15.0243 6.75677L15.1701 5.29851C15.3468 3.53245 13.9599 2 12.185 2H5ZM9.54909 4.86402C9.52411 4.95449 9.52135 5.05 9.54481 5.14088L10.4115 8.49782C10.4692 8.67823 10.5 8.86995 10.5 9.06867C10.5 10.1353 9.60457 11 8.5 11C7.39543 11 6.5 10.1353 6.5 9.06867C6.5 8.86995 6.53108 8.67823 6.5888 8.49782L7.45883 5.16286C7.48611 5.05831 7.47911 4.94826 7.44789 4.84482C7.36075 4.55605 7.23215 4.02398 7.13441 3.60519C7.06198 3.29481 7.29847 3 7.61719 3L9.41706 3C9.71558 3 9.93666 3.27689 9.86854 3.56753C9.76837 3.99486 9.63369 4.55767 9.54909 4.86402ZM8.5 8.06033C9.05229 8.06033 9.5 8.5358 9.5 9.06912C9.5 9.60244 9.05229 10.0146 8.5 10.0146C7.94772 10.0146 7.5 9.60244 7.5 9.06912C7.5 8.5358 7.94772 8.06033 8.5 8.06033ZM7.89087 14C7.66144 14 7.46144 13.8439 7.4058 13.6213L7.1558 12.6213C7.07691 12.3057 7.31559 12 7.64087 12L9.3601 12C9.68538 12 9.92406 12.3057 9.84517 12.6213L9.59517 13.6213C9.53952 13.8439 9.33953 14 9.11009 14L7.89087 14ZM7.89087 17C7.66144 17 7.46144 16.8439 7.4058 16.6213L7.1558 15.6213C7.07691 15.3057 7.31559 15 7.64087 15L9.3601 15C9.68538 15 9.92406 15.3057 9.84517 15.6213L9.59517 16.6213C9.53952 16.8439 9.33953 17 9.11009 17H7.89087ZM7.89087 20C7.66144 20 7.46144 19.8439 7.4058 19.6213L7.1558 18.6213C7.07691 18.3057 7.31559 18 7.64087 18H9.3601C9.68538 18 9.92406 18.3057 9.84517 18.6213L9.59517 19.6213C9.53952 19.8439 9.33953 20 9.11009 20H7.89087Z" fill="#000000"/>
</svg>
