<svg xmlns="http://www.w3.org/2000/svg" width="24" height="24" viewBox="0 0 24 24" fill="none"><rect width="24" height="24" fill="none"/>
<path d="M9.65854 13.0869H8.34184L8.92987 10.7832H9.07047L9.65854 13.0869Z" fill="#898991"/>
<path d="M15.6938 14.6241C15.1487 14.6241 14.8263 14.1753 14.8263 13.4227C14.8263 12.6747 15.1534 12.2213 15.6938 12.2213C16.2389 12.2213 16.566 12.6747 16.566 13.4274C16.566 14.18 16.2437 14.6241 15.6938 14.6241Z" fill="#898991"/>
<path fill-rule="evenodd" clip-rule="evenodd" d="M4.04146 5.80678L1 20H23L19.9585 5.80679C19.7327 4.75292 18.8014 4 17.7236 4H6.27643C5.19863 4 4.26729 4.75291 4.04146 5.80678ZM7.71624 9L5.50046 16H7.59826L7.97017 14.543H10.0302L10.4022 16H12.5L10.284 9H7.71624ZM15.618 18.192C17.3861 18.192 18.5 17.3926 18.5 15.8909V10.7703H16.6039V11.6697H16.5091C16.2484 11.0901 15.6701 10.7441 14.9733 10.7441C13.6366 10.7441 12.8355 11.7539 12.8355 13.432C12.8355 15.012 13.6366 15.9984 14.9212 15.9984C15.6843 15.9984 16.2105 15.7273 16.4617 15.1944H16.5565V16.2707C16.5565 16.7148 16.2389 16.9672 15.6796 16.9672C15.2198 16.9672 14.8927 16.8177 14.8406 16.5792H12.9729C13.0203 17.5469 14.0727 18.192 15.618 18.192Z" fill="#898991"/>
</svg>
