<svg xmlns="http://www.w3.org/2000/svg" width="24" height="24" viewBox="0 0 24 24" fill="none"><rect width="24" height="24" fill="none"/>
<path fill-rule="evenodd" clip-rule="evenodd" d="M7.5 7L14.5 14L20.25 19.75L19 21L13.4999 15.4999L13.4998 20.5L11.9998 22L10.4998 20.5L10.5 14H5C5 12.3872 5.55101 10.8006 6.69141 9.66016C6.85982 9.49175 7.02999 9.34736 7.21017 9.21017L2 4L3.25 2.75L7.5 7ZM19 14H17L7.5 4.5V3.5C7.5 2.54688 8.01562 2 9 2H15C16.0312 2 16.5 2.58756 16.5 3.5V9C16.7929 9.20396 17.0625 9.413 17.3183 9.66887C18.4587 10.8093 19 12.3872 19 14Z" fill="#000000"/>
</svg>
