<svg xmlns="http://www.w3.org/2000/svg" width="24" height="24" viewBox="0 0 24 24" fill="none"><rect width="24" height="24" fill="none"/>
<path d="M14.45 18.4266C15.2232 18.4266 15.85 17.787 15.85 16.998C15.85 16.2091 15.2232 15.5695 14.45 15.5695C13.6768 15.5695 13.05 16.2091 13.05 16.998C13.05 17.787 13.6768 18.4266 14.45 18.4266Z" fill="#000000"/>
<path fill-rule="evenodd" clip-rule="evenodd" d="M5 1C2.79086 1 1 2.79086 1 5V19C1 21.2091 2.79086 23 5 23H19C21.2091 23 23 21.2091 23 19V5C23 2.79086 21.2091 1 19 1H5ZM18.86 13.0695C19 12.3552 19 11.882 19 11.6409C19 7.69601 15.866 4.49805 12 4.49805C8.13401 4.49805 5 7.69601 5 11.6409C5 14.2848 6.4077 16.5931 8.5 17.8282V13.0695H13.1375V11.9006C13.1375 11.5062 12.8241 11.1864 12.4375 11.1864H10.7273C10.4637 11.1864 10.25 10.9683 10.25 10.6993C10.25 10.4304 10.0363 10.2123 9.77273 10.2123H6.57642C6.70426 9.70552 6.89852 9.22591 7.14918 8.78376H7.93803C8.05407 8.78376 8.16829 8.75433 8.27041 8.6981L9.57861 7.97788C10.0343 7.727 10.0746 7.07558 9.6534 6.76824L9.39621 6.58057C10.1741 6.16295 11.06 5.92662 12 5.92662C12.1066 5.92662 12.2125 5.92966 12.3177 5.93566L11.8946 6.60556C11.7382 6.85324 11.7469 7.17351 11.9165 7.412L13.1903 9.20328C13.322 9.38845 13.5327 9.49805 13.7569 9.49805H14.8C15.1866 9.49805 15.5 9.81784 15.5 10.2123V13.0695H18.86ZM19 14.498V19.498H9.9V14.498H19Z" fill="#000000"/>
</svg>
