<svg xmlns="http://www.w3.org/2000/svg" width="16" height="16" viewBox="0 0 16 16" fill="none"><rect width="16" height="16" fill="none"/>
<path d="M11.627 2.96918H15V4.91363H11.6305C11.2947 5.4965 10.6654 5.88889 9.94444 5.88889C9.22347 5.88889 8.59415 5.4965 8.25838 4.91363H1V2.96918H8.26189C8.59853 2.38966 9.22598 2 9.94444 2C10.6629 2 11.2904 2.38966 11.627 2.96918Z" fill="#000000"/>
<path d="M15 10.747H7.73987C7.40366 10.1658 6.77527 9.77474 6.05556 9.77474C5.33584 9.77474 4.70745 10.1658 4.37124 10.747H1V12.6914H4.37124C4.70745 13.2726 5.33584 13.6636 6.05556 13.6636C6.77527 13.6636 7.40366 13.2726 7.73987 12.6914H15V10.747Z" fill="#000000"/>
</svg>
