<svg xmlns="http://www.w3.org/2000/svg" width="24" height="24" viewBox="0 0 24 24" fill="none"><rect width="24" height="24" fill="none"/>
<path fill-rule="evenodd" clip-rule="evenodd" d="M8.56863 7.71444V15.7823C8.9422 15.62 9.37891 15.5049 9.88235 15.5049C10.8648 15.5049 11.5347 15.8637 12.0613 16.245C12.5577 15.89 13.2554 15.5049 14.1765 15.5049C14.6574 15.5049 15.0703 15.5967 15.4314 15.7403V7.71444C15.4314 7.62729 15.4014 7.58796 15.3835 7.57051C15.3655 7.55305 15.325 7.52397 15.2353 7.52397H8.76471C8.67499 7.52397 8.63451 7.55305 8.61654 7.57051C8.59857 7.58796 8.56863 7.62729 8.56863 7.71444ZM10.0392 9.42873H12.7843V10.9525H10.0392V9.42873ZM13.9608 11.7144H10.0392V13.2383H13.9608V11.7144Z" fill="#000000"/>
<path fill-rule="evenodd" clip-rule="evenodd" d="M22 12C22 17.5228 17.5228 22 12 22C6.47715 22 2 17.5228 2 12C2 6.47715 6.47715 2 12 2C17.5228 2 22 6.47715 22 12ZM11.5706 17.8147L11.5882 17.8287C11.8824 18.0573 12.2353 18.0573 12.5294 17.8287L12.6029 17.7716C13.1528 17.3433 13.5567 17.0287 14.1765 17.0287C14.8235 17.0287 15.2353 17.3144 15.8235 17.8287C15.8824 17.8859 16 18.0002 16.3529 18.0002H16.4118C16.7059 18.0002 17 17.7144 17 17.4287V7.71444C17 6.74301 16.2353 6.00016 15.2353 6.00016H8.76471C7.76471 6.00016 7 6.74301 7 7.71444V17.4287C7 17.7144 7.23529 18.0002 7.58824 18.0002C8 18.0002 8.17647 17.8859 8.23529 17.8287L8.30876 17.7715C8.85866 17.3433 9.26257 17.0287 9.88235 17.0287C10.5818 17.0287 10.9347 17.3092 11.5706 17.8147Z" fill="#000000"/>
</svg>
