<svg xmlns="http://www.w3.org/2000/svg" width="24" height="24" viewBox="0 0 24 24" fill="none"><rect width="24" height="24" fill="none"/>
<path fill-rule="evenodd" clip-rule="evenodd" d="M1 9C1 6.19974 1 4.79961 1.54497 3.73005C2.02433 2.78924 2.78924 2.02433 3.73005 1.54497C4.79961 1 6.19974 1 9 1H15C17.8003 1 19.2004 1 20.27 1.54497C21.2108 2.02433 21.9757 2.78924 22.455 3.73005C23 4.79961 23 6.19974 23 9V15C23 17.8003 23 19.2004 22.455 20.27C21.9757 21.2108 21.2108 21.9757 20.27 22.455C19.2004 23 17.8003 23 15 23H9C6.19974 23 4.79961 23 3.73005 22.455C2.78924 21.9757 2.02433 21.2108 1.54497 20.27C1 19.2004 1 17.8003 1 15V9ZM5.70588 6C5.31603 6 5 6.31603 5 6.70588V17.2941C5 17.684 5.31603 18 5.70588 18H6.60888C6.91271 18 7.18245 17.8056 7.27853 17.5173L7.66264 16.365C7.75872 16.0768 8.02847 15.8824 8.3323 15.8824H15.7853C16.0892 15.8824 16.3589 16.0768 16.455 16.365L16.8391 17.5173C16.9352 17.8056 17.2049 18 17.5088 18H18.4118C18.8016 18 19.1176 17.684 19.1176 17.2941V6.70588C19.1176 6.31603 18.8016 6 18.4118 6H5.70588ZM16.2941 8.82353H14.8824V13.0588H16.2941V8.82353ZM9.94118 13.0588C11.1107 13.0588 12.0588 12.1107 12.0588 10.9412C12.0588 9.77163 11.1107 8.82353 9.94118 8.82353C8.77163 8.82353 7.82353 9.77163 7.82353 10.9412C7.82353 12.1107 8.77163 13.0588 9.94118 13.0588ZM9.94131 11.8588C10.4481 11.8588 10.859 11.448 10.859 10.9412C10.859 10.4344 10.4481 10.0235 9.94131 10.0235C9.43451 10.0235 9.02367 10.4344 9.02367 10.9412C9.02367 11.448 9.43451 11.8588 9.94131 11.8588Z" fill="#000000"/>
</svg>
