<svg xmlns="http://www.w3.org/2000/svg" width="24" height="24" viewBox="0 0 24 24" fill="none"><rect width="24" height="24" fill="none"/>
<path d="M16.0004 1C16.7434 1.56719 17.1794 2.44846 17.1794 3.38323V3.77102L22.3931 7.19677C22.3931 7.19677 22.3931 7.5 22.3931 8C21.0005 11 17.1977 10.7824 15.8639 9.99999L12.2514 7.27571L16.0004 1Z" fill="#000000"/>
<path d="M2.00008 7.02434L3.00033 11L2 20.1164H4.37756C4.97558 20.1164 5.4399 19.595 5.37088 19.001L5.13837 17H13.5005V20H17.0005C17.0005 19.3753 16.6883 18.7918 16.1684 18.4453L15.5005 18L16.5004 12.5L11.0004 8L5.33342 9.99999L3.03198 7.02434H2.00008Z" fill="#000000"/>
</svg>
