<svg xmlns="http://www.w3.org/2000/svg" width="48" height="48" viewBox="0 0 48 48" fill="none"><rect width="48" height="48" fill="none"/>
<path d="M25.4134 4.58592C24.632 3.80469 23.3653 3.80469 22.584 4.58592L16.4181 10.7513C15.6368 11.5325 15.6368 12.7991 16.4181 13.5804L22.5854 19.7471C23.3667 20.5283 24.6334 20.5283 25.4148 19.7471L31.5808 13.5817C32.3619 12.8005 32.3619 11.5338 31.5808 10.7526L25.4134 4.58592Z" fill="#000000"/>
<path d="M34.4143 16.416C35.1957 15.6348 36.4624 15.6347 37.2437 16.416L43.4135 22.5852C44.1949 23.3663 44.1949 24.6331 43.4135 25.4142L37.2451 31.582C36.464 32.3631 35.1971 32.3631 34.4157 31.582L28.2461 25.4128C27.4648 24.6317 27.4648 23.3649 28.2461 22.5838L34.4143 16.416Z" fill="#000000"/>
<path d="M25.4177 28.2501C24.6364 27.4689 23.3697 27.4689 22.5883 28.2501L16.4181 34.4197C15.6368 35.201 15.6368 36.4676 16.4181 37.2489L22.5843 43.4145C23.3657 44.1959 24.6324 44.1959 25.4137 43.4145L31.5839 37.2449C32.3653 36.4638 32.3653 35.197 31.5839 34.4159L25.4177 28.2501Z" fill="#000000"/>
<path d="M10.7538 16.416C11.5351 15.6347 12.8019 15.6347 13.5832 16.416L19.7541 22.5862C20.5353 23.3676 20.5353 24.6341 19.7541 25.4154L13.5862 31.5826C12.8049 32.364 11.5381 32.364 10.7568 31.5826L4.58598 25.4124C3.80467 24.6311 3.80467 23.3646 4.58598 22.5832L10.7538 16.416Z" fill="#000000"/>
</svg>
