<svg xmlns="http://www.w3.org/2000/svg" width="24" height="24" viewBox="0 0 24 24" fill="none"><rect width="24" height="24" fill="none"/>
<path d="M7.1745 7.97572C7.18333 7.61994 7.54352 7.19971 8.26392 6.35925L10.7852 3.4178C11.2037 2.92956 11.4129 2.68544 11.6619 2.59599C11.8804 2.51748 12.1195 2.51748 12.338 2.59599C12.587 2.68544 12.7963 2.92956 13.2148 3.4178L15.736 6.35925C16.4564 7.19971 16.8166 7.61994 16.8254 7.97572C16.8331 8.28492 16.6973 8.58028 16.4575 8.77568C16.1816 9.00052 15.6282 9.00052 14.5212 9.00052H9.47873C8.37178 9.00052 7.8183 9.00052 7.54243 8.77568C7.30268 8.58028 7.16683 8.28492 7.1745 7.97572Z" fill="#000000"/>
<path d="M7.1745 16.0253C7.18333 16.3811 7.54352 16.8013 8.26392 17.6418L10.7852 20.5832C11.2037 21.0715 11.4129 21.3156 11.6619 21.405C11.8804 21.4836 12.1195 21.4836 12.338 21.405C12.587 21.3156 12.7963 21.0715 13.2148 20.5832L15.736 17.6418C16.4564 16.8013 16.8166 16.3811 16.8254 16.0253C16.8331 15.7161 16.6973 15.4208 16.4575 15.2254C16.1816 15.0005 15.6282 15.0005 14.5212 15.0005H9.47873C8.37178 15.0005 7.8183 15.0005 7.54243 15.2254C7.30267 15.4208 7.16683 15.7161 7.1745 16.0253Z" fill="#000000"/>
</svg>
