<svg xmlns="http://www.w3.org/2000/svg" width="24" height="24" viewBox="0 0 24 24" fill="none"><rect width="24" height="24" fill="none"/>
<path d="M5.00149 7.06865C4.97061 6.72032 5.42656 6.53277 5.67786 6.79043L8.80802 9.99978L11.7163 6.13333C11.7872 6.04444 11.8936 6 12 6C12.1064 6 12.2128 6.04444 12.2837 6.13333L15.192 9.99978L18.3221 6.79043C18.5734 6.53277 19.0294 6.72032 18.9985 7.06865L18.3 13.9998H5.7L5.00149 7.06865Z" fill="#000000"/>
<path d="M5.7 16C5.7 15.6318 6.0134 15.3333 6.4 15.3333H17.6C17.9866 15.3333 18.3 15.6318 18.3 16V17.3333C18.3 17.7015 17.9866 18 17.6 18H6.4C6.0134 18 5.7 17.7015 5.7 17.3333V16Z" fill="#000000"/>
</svg>
