<svg xmlns="http://www.w3.org/2000/svg" width="24" height="24" viewBox="0 0 24 24" fill="none"><rect width="24" height="24" fill="none"/>
<path d="M10.9113 8.99651C11.3001 8.16378 11.5336 7.20499 11.6161 6.29779C11.7499 4.82632 11.5212 3.06909 10.4523 2.00015L9.03809 3.41436C9.46915 3.84542 9.74053 4.83819 9.6243 6.11672C9.55339 6.89671 9.35123 7.62207 9.08298 8.18397C8.35434 7.94727 7.58681 7.79394 6.79143 7.73503C6.35362 7.70261 5.96468 7.99412 5.83557 8.41371L2.02283 20.8051C1.90479 21.1888 2.26413 21.5481 2.64777 21.4301L15.0392 17.6173C15.4588 17.4882 15.7503 17.0993 15.7179 16.6615C15.4739 13.3669 13.6098 10.5501 10.9113 8.99651Z" fill="#000000"/>
<path d="M17.2339 13.9516C17.0366 13.3045 16.785 12.6818 16.4844 12.0886C18.2222 11.2414 20.3302 11.3619 21.9628 12.4505L20.8533 14.1145C19.7773 13.3971 18.3614 13.3428 17.2339 13.9516Z" fill="#000000"/>
<path d="M14.9416 9.77886C14.5522 9.32437 14.1283 8.90045 13.6738 8.51104L13.6699 8.50718L18.4699 3.70718L19.8841 5.1214L15.0841 9.9214L14.9416 9.77886Z" fill="#000000"/>
<path d="M4 3.41421L5.41421 2L6.82843 3.41421L5.41421 4.82843L4 3.41421Z" fill="#000000"/>
</svg>
