<svg xmlns="http://www.w3.org/2000/svg" width="24" height="24" viewBox="0 0 24 24" fill="none"><rect width="24" height="24" fill="none"/>
<path d="M16.2077 6.68671C16.6604 6.23401 16.5756 5.47812 16.0338 5.13703L14.4089 4.11401C13.7695 3.71144 13.0516 3.50964 12.3361 3.50034C11.2875 3.48671 10.2442 3.88615 9.46107 4.66928L7.94888 6.18146L5.77686 4.00943L2.00002 4.0094L2 6.5094L4.74131 6.50942L6.18112 7.94923L4.66888 9.46146C3.35145 10.7789 3.12097 12.8327 4.11362 14.4093L5.13663 16.0342C5.32209 16.3288 5.63018 16.489 5.94548 16.5004C6.21008 16.51 6.47976 16.4147 6.68632 16.2082L16.2077 6.68671Z" fill="#000000"/>
<path d="M16.6021 18.3411L12.6991 13.6615L11.2791 15.0814L15.1821 19.7611L16.6021 18.3411Z" fill="#000000"/>
<path d="M13.3952 21.548L10.2537 16.1068L8.78963 17.5709L11.931 23.0004L13.3952 21.548Z" fill="#000000"/>
<path d="M16.1059 10.2544L21.5471 13.3959L22.9993 11.9319L17.57 8.79027L16.1059 10.2544Z" fill="#000000"/>
<path d="M13.6605 12.6997L18.3402 16.6028L19.7602 15.1828L15.0805 11.2797L13.6605 12.6997Z" fill="#000000"/>
</svg>
