<svg xmlns="http://www.w3.org/2000/svg" width="24" height="24" viewBox="0 0 24 24" fill="none"><rect width="24" height="24" fill="none"/>
<path d="M16 23H18V22C19.1 22 20 21.1 20 20V7C20 5.9 19.1 5 18 5H16V2C16 1.4 15.6 1 15 1H9C8.4 1 8 1.4 8 2V5H6C4.9 5 4 5.9 4 7V20C4 21.1 4.9 22 6 22V23H8V22H16V23ZM10 3H14V5H10V3ZM14.8203 17.1807C13.082 17.1807 12.0225 15.7549 12.0225 13.4795V13.4697C12.0225 11.1895 13.082 9.77344 14.8203 9.77344C16.5635 9.77344 17.6182 11.1895 17.6182 13.4697V13.4795C17.6182 15.7549 16.5635 17.1807 14.8203 17.1807ZM14.8203 16.0137C13.9902 16.0137 13.5166 15.0713 13.5166 13.4795V13.4697C13.5166 11.873 13.9902 10.9404 14.8203 10.9404C15.6553 10.9404 16.1289 11.873 16.1289 13.4697V13.4795C16.1289 15.0713 15.6553 16.0137 14.8203 16.0137ZM9.10156 17.1562C7.50977 17.1562 6.45996 16.3018 6.3623 15.042L6.35742 14.9785H7.76855L7.77344 15.0322C7.83691 15.5791 8.33984 15.9697 9.10156 15.9697C9.85352 15.9697 10.3467 15.5498 10.3467 14.9541V14.9443C10.3467 14.2705 9.84375 13.8994 8.98926 13.8994H8.18359V12.8496H8.96973C9.71191 12.8496 10.1904 12.459 10.1904 11.8877V11.8779C10.1904 11.292 9.78516 10.9307 9.0918 10.9307C8.39844 10.9307 7.93457 11.3066 7.87598 11.8926L7.87109 11.9365H6.51367L6.51855 11.8779C6.62109 10.6182 7.6123 9.79785 9.0918 9.79785C10.6055 9.79785 11.582 10.5596 11.582 11.6826V11.6924C11.582 12.5713 10.9375 13.1426 10.1123 13.3135V13.3428C11.1621 13.4404 11.8457 14.0459 11.8457 15.0029V15.0127C11.8457 16.292 10.7471 17.1562 9.10156 17.1562Z" fill="#000000"/>
</svg>
