<svg xmlns="http://www.w3.org/2000/svg" width="24" height="24" viewBox="0 0 24 24" fill="none"><rect width="24" height="24" fill="none"/>
<path fill-rule="evenodd" clip-rule="evenodd" d="M19.6425 17.0782L5.29092 2.72656L12.4717 2.73074C14.099 2.73074 15.3705 4.13542 15.2086 5.75424L15.0749 7.09091C15.0634 7.20616 15.1603 7.30309 15.2756 7.29155L16.6126 7.15789C18.2318 6.996 19.6368 8.26723 19.6368 9.89411L19.6425 17.0782ZM17.7277 10.3629C17.7277 10.9654 17.2393 11.4538 16.6368 11.4538C16.0343 11.4538 15.5458 10.9654 15.5458 10.3629C15.5458 9.76042 16.0343 9.27202 16.6368 9.27202C17.2393 9.27202 17.7277 9.76042 17.7277 10.3629Z" fill="#000000"/>
<path fill-rule="evenodd" clip-rule="evenodd" d="M20.0112 22.8488L21.3613 21.4987L2.74657 2.88393L1.39648 4.23402L4.36073 7.19829L4.36403 20.3554C4.36403 20.8616 4.77451 21.272 5.28086 21.272L18.4345 21.272L20.0112 22.8488ZM9.14917 15.9165L11.1141 13.9516L16.5253 19.3629L6.27312 19.363V16.6475L7.64464 15.276C7.87422 15.0464 8.24543 15.0432 8.47888 15.2688L9.14917 15.9165Z" fill="#000000"/>
</svg>
