<svg xmlns="http://www.w3.org/2000/svg" width="24" height="24" viewBox="0 0 24 24" fill="none"><rect width="24" height="24" fill="none"/>
<path fill-rule="evenodd" clip-rule="evenodd" d="M11.6914 13.7334L16.8173 14.1088C18.9075 14.2619 20.5252 16.0026 20.5252 18.0984V19.5659L20.5254 19.6267V22.6267C12.8481 22.6267 5.86581 18.9884 3.97927 17.9189C3.6639 17.7402 3.48047 17.4062 3.48047 17.0437C3.48047 16.339 4.16407 15.8223 4.85056 15.9816C6.80962 16.4362 10.6238 17.1319 14.6678 16.8354L11.3087 15.8569C10.8457 15.722 10.5273 15.2976 10.5274 14.8153C10.5274 14.185 11.0628 13.6874 11.6914 13.7334Z" fill="#000000"/>
<path fill-rule="evenodd" clip-rule="evenodd" d="M9.23733 6.47368C10.4727 6.47368 11.4742 5.47222 11.4742 4.23684C11.4742 3.00147 10.4727 2 9.23733 2C8.00196 2 7.00049 3.00147 7.00049 4.23684C7.00049 5.47222 8.00196 6.47368 9.23733 6.47368ZM9.23733 5.15789C9.74601 5.15789 10.1584 4.74553 10.1584 4.23684C10.1584 3.72816 9.74601 3.31579 9.23733 3.31579C8.72865 3.31579 8.31628 3.72816 8.31628 4.23684C8.31628 4.74553 8.72865 5.15789 9.23733 5.15789Z" fill="#000000"/>
<path fill-rule="evenodd" clip-rule="evenodd" d="M14.7636 12C15.999 12 17.0005 10.9985 17.0005 9.76316C17.0005 8.52778 15.999 7.52632 14.7636 7.52632C13.5283 7.52632 12.5268 8.52778 12.5268 9.76316C12.5268 10.9985 13.5283 12 14.7636 12ZM14.7636 10.6842C15.2723 10.6842 15.6847 10.2718 15.6847 9.76316C15.6847 9.25447 15.2723 8.84211 14.7636 8.84211C14.255 8.84211 13.8426 9.25447 13.8426 9.76316C13.8426 10.2718 14.255 10.6842 14.7636 10.6842Z" fill="#000000"/>
<path d="M15.0479 2.34231L16.0558 3.18808L8.95132 11.6549L7.94336 10.8091L15.0479 2.34231Z" fill="#000000"/>
</svg>
