<svg xmlns="http://www.w3.org/2000/svg" width="16" height="16" viewBox="0 0 16 16" fill="none"><rect width="16" height="16" fill="none"/>
<path d="M4.79963 9.5999H8.79958V7.99992H4.79963V9.5999Z" fill="#000000"/>
<path d="M11.1996 12.7999L4.79963 12.7999V11.1999L11.1996 11.1999V12.7999Z" fill="#000000"/>
<path fill-rule="evenodd" clip-rule="evenodd" d="M7.654 0C8.35728 0 8.96663 0.172422 9.44998 0.535099C9.93294 0.897447 10.2155 1.39377 10.3667 1.90745C10.5431 2.50683 10.5544 3.17381 10.4825 3.81369C11.1535 3.74587 11.86 3.77053 12.4936 3.99348C13.0325 4.18308 13.5301 4.52067 13.8839 5.06286C14.2329 5.59791 14.3995 6.267 14.3995 7.05188V15.9999C9.86623 16.0001 6.13291 15.9999 1.59961 15.9999V5.59801e-05L7.654 0ZM3.19959 1.59997V14.3999C6.66624 14.3998 9.3329 14.3999 12.7996 14.3999V7.05188C12.7996 6.48858 12.6804 6.14654 12.5438 5.93713C12.4119 5.73486 12.2238 5.59466 11.9626 5.50276C11.391 5.30163 10.5544 5.3634 9.67422 5.57732C9.40118 5.6437 9.11327 5.56191 8.91591 5.36188C8.71847 5.16185 8.64055 4.8729 8.71055 4.60073C8.92815 3.75433 8.99871 2.92644 8.83183 2.35919C8.75407 2.09509 8.63615 1.92475 8.48975 1.81488C8.34376 1.70534 8.09496 1.59998 7.654 1.59998L3.19959 1.59997Z" fill="#000000"/>
</svg>
