<svg xmlns="http://www.w3.org/2000/svg" width="16" height="16" viewBox="0 0 16 16" fill="none"><rect width="16" height="16" fill="none"/>
<path fill-rule="evenodd" clip-rule="evenodd" d="M4.92112 13.3698C4.11399 13.2486 3.31055 12.4639 3.31055 11.5075V5.92012C3.31055 4.93294 4.15058 2.62012 5.80058 2.62172L10.2006 2.62012C12.0117 2.61852 12.6906 4.93294 12.6906 5.92012V11.5075C12.6906 12.4639 11.8872 13.2486 11.0801 13.3698H4.92112ZM4.90003 11.2843L6.80133 11.5854C6.84885 11.2854 6.18697 10.3744 5.88696 10.3269L5.07211 10.1978C4.9221 10.1741 4.78124 10.2764 4.75748 10.4264L4.67144 10.9697C4.64768 11.1197 4.75003 11.2605 4.90003 11.2843ZM11.1021 11.2842L9.20059 11.5854C9.15309 11.2854 9.81519 10.3743 10.1152 10.3268L10.9301 10.1978C11.0801 10.174 11.2209 10.2764 11.2447 10.4264L11.3307 10.9696C11.3545 11.1196 11.2521 11.2605 11.1021 11.2842ZM10.201 9.22011H5.80097C5.22225 9.22011 4.6956 8.32362 4.70093 7.53006L4.70097 5.92011C4.70097 5.23379 5.11702 4.59339 5.80097 4.59339H10.201C10.8849 4.59339 11.301 5.19229 11.301 5.87861L11.3009 7.57011C11.3062 8.36367 10.7797 9.22011 10.201 9.22011Z" fill="#000000"/>
</svg>
