<svg xmlns="http://www.w3.org/2000/svg" width="24" height="24" viewBox="0 0 24 24" fill="none"><rect width="24" height="24" fill="none"/>
<path d="M4 17C3.44772 17 3 17.4477 3 18V20C3 20.5523 3.44772 21 4 21H10C10.5523 21 11 20.5523 11 20V18C11 17.4477 10.5523 17 10 17H4Z" fill="#000000"/>
<path d="M4 3C3.44772 3 3 3.44772 3 4V14C3 14.5523 3.44772 15 4 15H10C10.5523 15 11 14.5523 11 14V4C11 3.44772 10.5523 3 10 3H4Z" fill="#000000"/>
<path d="M13 10C13 10.5523 13.4477 11 14 11H20C20.5523 11 21 10.5523 21 10V4C21 3.44772 20.5523 3 20 3H14C13.4477 3 13 3.44772 13 4V10Z" fill="#000000"/>
<path d="M14 21C13.4477 21 13 20.5523 13 20V14C13 13.4477 13.4477 13 14 13H20C20.5523 13 21 13.4477 21 14V20C21 20.5523 20.5523 21 20 21H14Z" fill="#000000"/>
</svg>
