<svg xmlns="http://www.w3.org/2000/svg" width="25" height="24" viewBox="0 0 25 24" fill="none"><rect width="25" height="24" fill="none"/>
<path d="M6.9 12C6.9 8.90721 9.40721 6.4 12.5 6.4C14.276 6.4 15.859 7.22678 16.8849 8.51644L14.9 8.8V10.4H20.5L20.5 4.8H18.9L18.6093 6.83483C17.1418 5.10087 14.9495 4 12.5 4C8.08172 4 4.5 7.58172 4.5 12H6.9Z" fill="#000000"/>
<path d="M12.5 17.6C15.5928 17.6 18.1 15.0928 18.1 12H20.5C20.5 16.4183 16.9183 20 12.5 20C10.0505 20 7.85816 18.8991 6.39069 17.1652L6.1 19.2H4.5L4.5 13.6H10.1V15.2L8.11511 15.4836C9.14105 16.7732 10.724 17.6 12.5 17.6Z" fill="#000000"/>
</svg>
