<svg xmlns="http://www.w3.org/2000/svg" width="48" height="48" viewBox="0 0 48 48" fill="none"><rect width="48" height="48" fill="none"/>
<path d="M6 42C6.86586 41.9246 15.6176 41.1233 17.9271 38.816C19.0944 37.6507 19.7502 36.0702 19.7502 34.4222C19.7502 32.7742 19.0944 31.1936 17.9271 30.0283C16.7598 28.863 15.1766 28.2084 13.5258 28.2084C11.875 28.2084 10.2918 28.863 9.12448 30.0283C8.89718 30.2624 8.69849 30.5225 8.53261 30.8033C7.97119 31.7352 7.66193 32.7967 7.63513 33.8839C7.55773 36.6625 7.0047 39.4075 6 42Z" fill="#000000"/>
<path fill-rule="evenodd" clip-rule="evenodd" d="M19.7677 28.1909C20.7433 29.1632 21.3668 30.4321 21.5398 31.7975C23.8371 29.7987 26.2836 27.5194 28.7688 25.0367C35.0669 18.7493 39.4489 12.0621 41.8235 7.96811C41.9684 7.71805 42.0265 7.42723 41.9888 7.14081C41.9512 6.85439 41.8198 6.5884 41.6152 6.38413C41.4106 6.17986 41.1442 6.04875 40.8572 6.01116C40.5703 5.97356 40.279 6.03159 40.0285 6.17622C35.9363 8.54671 29.229 12.9212 22.9308 19.2086C20.4492 21.6861 18.1659 24.1179 16.1602 26.4218C17.526 26.5956 18.7951 27.218 19.7677 28.1909Z" fill="#000000"/>
</svg>
