<svg xmlns="http://www.w3.org/2000/svg" width="16" height="16" viewBox="0 0 16 16" fill="none"><rect width="16" height="16" fill="none"/>
<path d="M7.42055 2.88537C7.62096 2.37154 8.37904 2.37154 8.57945 2.88537L9.68925 5.73085C9.77619 5.95376 9.99369 6.10526 10.2417 6.11565L13.4074 6.24827C13.979 6.27222 14.2133 6.96344 13.7655 7.30494L11.2857 9.19616C11.0914 9.34432 11.0084 9.58946 11.0747 9.81879L11.9214 12.7462C12.0743 13.2749 11.461 13.7021 10.9838 13.3993L8.34143 11.7227C8.13442 11.5913 7.86558 11.5913 7.65857 11.7227L5.01618 13.3993C4.53903 13.7021 3.92572 13.2749 4.07862 12.7462L4.92531 9.81879C4.99164 9.58946 4.90856 9.34432 4.71429 9.19616L2.23451 7.30494C1.78673 6.96344 2.02099 6.27222 2.59263 6.24827L5.75831 6.11565C6.00631 6.10526 6.22381 5.95376 6.31075 5.73085L7.42055 2.88537Z" fill="#000000"/>
</svg>
