<svg xmlns="http://www.w3.org/2000/svg" width="24" height="24" viewBox="0 0 24 24" fill="none"><rect width="24" height="24" fill="none"/>
<path d="M4 4C4 3.44772 4.44772 3 5 3H14C14.5523 3 15 3.44772 15 4V8H10L10 16L15 16V20C15 20.5523 14.5523 21 14 21H5C4.44771 21 4 20.5523 4 20V4Z" fill="#000000"/>
<path d="M12 14L17 14V16.2381C17 16.6004 17.4215 16.7994 17.7012 16.5691L22.8146 12.3624C22.9328 12.2609 22.9978 12.1266 23 12.0001C22.9978 11.8735 22.9328 11.7393 22.8146 11.6377L17.7012 7.43106C17.4215 7.20081 17 7.39978 17 7.76207V10H12V14Z" fill="#000000"/>
</svg>
