<svg xmlns="http://www.w3.org/2000/svg" width="24" height="24" viewBox="0 0 24 24" fill="none"><rect width="24" height="24" fill="none"/>
<path d="M10.4023 2.61734L12.0742 1L17.286 6.03425L12.0991 11.0388L10.4336 9.40312L12.5117 7.40846H9.14287C6.77593 7.40846 4.85715 9.25763 4.85715 11.5387V14.7511H2V11.5387C2 7.73692 5.19797 4.65497 9.14287 4.65497H12.5156L10.4023 2.61734Z" fill="#000000"/>
<path d="M22 12.4564C22 16.2582 18.802 19.3401 14.8571 19.3401H11.5462L13.6599 21.3672L11.9721 23L6.76646 17.9753L11.9326 12.9665L13.5968 14.5993L11.5462 16.5867H14.8571C17.2241 16.5867 19.1429 14.7375 19.1429 12.4564V9.24401H22V12.4564Z" fill="#000000"/>
</svg>
