<svg xmlns="http://www.w3.org/2000/svg" width="24" height="24" viewBox="0 0 24 24" fill="none"><rect width="24" height="24" fill="none"/>
<path fill-rule="evenodd" clip-rule="evenodd" d="M5 2C4.44772 2 4 2.44772 4 3V21C4 21.5523 4.44772 22 5 22H19C19.5523 22 20 21.5523 20 21V9.81496C20 8.0401 18.4675 6.65325 16.7015 6.82985L15.2432 6.97568C15.1175 6.98825 15.0117 6.88251 15.0243 6.75677L15.1701 5.29851C15.3468 3.53245 13.9599 2 12.185 2H5ZM11 18V13H13V18H11ZM12 11.1875C12.6558 11.1875 13.1875 10.6558 13.1875 10C13.1875 9.34425 12.6558 8.81262 12 8.81262C11.3442 8.81262 10.8126 9.34425 10.8126 10C10.8126 10.6558 11.3442 11.1875 12 11.1875Z" fill="#000000"/>
</svg>
