<svg xmlns="http://www.w3.org/2000/svg" width="24" height="24" viewBox="0 0 24 24" fill="none"><rect width="24" height="24" fill="none"/>
<path fill-rule="evenodd" clip-rule="evenodd" d="M8.25 8.25C8.25 7.75754 8.347 7.26991 8.53545 6.81494C8.72391 6.35997 9.00013 5.94657 9.34835 5.59835C9.69657 5.25013 10.11 4.97391 10.5649 4.78545C11.0199 4.597 11.5075 4.5 12 4.5C12.4925 4.5 12.9801 4.597 13.4351 4.78545C13.89 4.97391 14.3034 5.25013 14.6517 5.59835C14.9999 5.94657 15.2761 6.35997 15.4645 6.81494C15.653 7.26991 15.75 7.75754 15.75 8.25V10.125H17.625V17.8333C17.625 18.7538 16.9055 19.5 16.0179 19.5H7.98214C7.09454 19.5 6.375 18.7538 6.375 17.8333V10.125H8.25V8.25ZM13.7323 7.53247C13.8265 7.75995 13.875 8.00377 13.875 8.25V10.125H10.125V8.25C10.125 8.00377 10.1735 7.75995 10.2677 7.53247C10.362 7.30498 10.5001 7.09828 10.6742 6.92417C10.8483 6.75006 11.055 6.61195 11.2825 6.51773C11.51 6.4235 11.7538 6.375 12 6.375C12.2462 6.375 12.49 6.4235 12.7175 6.51773C12.945 6.61195 13.1517 6.75007 13.3258 6.92418C13.4999 7.09828 13.638 7.30498 13.7323 7.53247ZM10.125 14.8125C10.125 15.848 10.9645 16.6875 12 16.6875C13.0355 16.6875 13.875 15.848 13.875 14.8125C13.875 13.777 13.0355 12.9375 12 12.9375C10.9645 12.9375 10.125 13.777 10.125 14.8125Z" fill="#000000"/>
</svg>
