<svg xmlns="http://www.w3.org/2000/svg" width="16" height="16" viewBox="0 0 16 16" fill="none"><rect width="16" height="16" fill="none"/>
<path fill-rule="evenodd" clip-rule="evenodd" d="M7.55978 13.0299H9.04348L5.16978 2.5H3.8737L0 13.0299H1.4837L2.51416 10.2219H6.52932L7.55978 13.0299ZM4.46349 4.93408H4.57999L6.01332 8.81794H3.03125L4.46349 4.93408Z" fill="#000000"/>
<path fill-rule="evenodd" clip-rule="evenodd" d="M16 13.0299H14.6086V12.04C14.1008 12.7695 13.3019 13.1667 12.3406 13.1667C10.8498 13.1667 9.74414 12.2741 9.74414 10.8561C9.74414 9.46681 10.757 8.54715 12.5475 8.43918L14.6086 8.30241L14.6087 7.71765C14.6087 6.76029 13.9766 6.40595 13.0133 6.40595C12.4967 6.40595 12.038 6.50707 11.7367 6.77579C11.544 6.9477 11.4572 7.16165 11.4158 7.41395H10.0299L10.0509 7.19938C10.2149 5.9541 11.4276 5.1335 13.0682 5.1335C14.9442 5.1335 16 6.10526 16 7.71765V13.0299ZM12.5689 11.7952C11.6772 11.7952 11.1304 11.3598 11.1304 10.7878C11.1304 10.1292 11.5274 9.75762 12.6973 9.67844L14.6086 9.54167V9.94006C14.6086 11.0486 13.7339 11.7952 12.5689 11.7952Z" fill="#000000"/>
</svg>
