<svg xmlns="http://www.w3.org/2000/svg" width="24" height="24" viewBox="0 0 24 24" fill="none"><rect width="24" height="24" fill="none"/>
<path fill-rule="evenodd" clip-rule="evenodd" d="M4.82257 1.36133L22.7797 19.3185L21.3655 20.7327L18.6999 18.0671C16.7218 19.2907 14.423 20 12 20C6.75232 20 2.08759 16.6731 0 12C1.25182 9.19784 3.43029 6.87967 6.10547 5.47265L3.40836 2.77554L4.82257 1.36133ZM7 12C7 10.4582 7.69787 9.07934 8.79497 8.16216L10.9379 10.305C10.3745 10.6588 10 11.2857 10 12C10 13.1046 10.8954 14 12 14C12.7143 14 13.3412 13.6255 13.695 13.0621L15.8378 15.205C14.9207 16.3021 13.5418 17 12 17C9.23857 17 7 14.7614 7 12Z" fill="#000000"/>
<path d="M21.7646 15.4747L10.3942 4.10436C10.9218 4.03552 11.4577 4 11.9999 4C17.2476 4 21.9124 7.32696 24 12C23.4322 13.2711 22.6736 14.4427 21.7646 15.4747Z" fill="#000000"/>
</svg>
