<svg xmlns="http://www.w3.org/2000/svg" width="24" height="24" viewBox="0 0 24 24" fill="none"><rect width="24" height="24" fill="none"/>
<path fill-rule="evenodd" clip-rule="evenodd" d="M2.98889 4.63477H5.97685V9.1167H7.47083V10.6107H2.98889V9.1167H4.48287V6.12875H2.98889V4.63477ZM2.98342 15.6118C2.98342 14.3742 3.98674 13.3709 5.22439 13.3709H5.66197C6.65795 13.3709 7.46536 14.1783 7.46536 15.1742C7.46536 15.6525 7.27536 16.1112 6.93716 16.4494L5.5338 17.8528H7.46536V19.3468H3.73041C3.42828 19.3468 3.1559 19.1648 3.04028 18.8856C2.92466 18.6065 2.98857 18.2852 3.20221 18.0716L5.88075 15.393C5.93878 15.335 5.97138 15.2563 5.97138 15.1742C5.97138 15.0034 5.83285 14.8648 5.66197 14.8648H5.22439C4.81184 14.8648 4.4774 15.1993 4.4774 15.6118H2.98342Z" fill="#000000"/>
<path d="M9.99964 4.99992H20.9996V6.99992H9.99964V4.99992Z" fill="#000000"/>
<path d="M9.99964 10.9999H20.9996V12.9999H9.99964V10.9999Z" fill="#000000"/>
<path d="M9.99964 16.9999H20.9996V18.9999H9.99964V16.9999Z" fill="#000000"/>
</svg>
