<svg xmlns="http://www.w3.org/2000/svg" width="24" height="24" viewBox="0 0 24 24" fill="none"><rect width="24" height="24" fill="none"/>
<path d="M16.7329 18.8615L19.8729 22.0015L21.2871 20.5872L17.9805 17.2807L17.9809 17.2782L5.70269 5.00002H5.69987L2.70718 2.00732L1.29297 3.42154L3.09002 5.21858C2.44296 5.5498 2.00007 6.22319 2.00007 7.00002L2.00007 17C2.00007 18.1046 2.8955 19 4.00007 19H16.0001C16.2588 19 16.506 18.9509 16.7329 18.8615Z" fill="#000000"/>
<path d="M21.4585 17.8336C21.2957 17.7331 21.1451 17.614 21.0098 17.4787L8.53112 5.00002H16.0001C17.1046 5.00002 18.0001 5.89545 18.0001 7.00002L18.0001 8.41419L21.4585 6.28002C22.306 5.75708 23.0001 6.18408 23.0001 7.22997V16.8832C23.0001 17.928 22.306 18.3565 21.4585 17.8336Z" fill="#000000"/>
</svg>
