<svg xmlns="http://www.w3.org/2000/svg" width="24" height="24" viewBox="0 0 24 24" fill="none"><rect width="24" height="24" fill="none"/>
<path d="M16 20L16 22.6506C16 23.1337 15.438 23.399 15.0651 23.092L8.24719 17.4831C8.08963 17.3476 8.00294 17.1687 8 17C8.00294 16.8312 8.08963 16.6522 8.24719 16.5168L15.0651 10.9079C15.438 10.6009 16 10.8662 16 11.3492L16 13.9999L22 13.9999L22 20L16 20Z" fill="black"/>
<path d="M7.99999 9.99995L7.99999 12.6506C7.99999 13.1337 8.56199 13.399 8.93493 13.092L15.7528 7.48307C15.9104 7.34762 15.9971 7.1687 16 6.99997C15.9971 6.83124 15.9104 6.65224 15.7528 6.5168L8.93493 0.907874C8.56199 0.600874 7.99999 0.866167 7.99999 1.34922L7.99999 3.99994L2 3.99995L2 9.99995L7.99999 9.99995Z" fill="black"/>
</svg>
