<svg xmlns="http://www.w3.org/2000/svg" width="24" height="24" viewBox="0 0 24 24" fill="none"><rect width="24" height="24" fill="none"/>
<path d="M7.05449 2.01855C8.2458 2.06072 9.42462 2.5365 10.334 3.4459C11.779 4.89084 12.1292 7.01593 11.3847 8.7906L21.1793 17.9604L21.1772 17.9625C21.2062 17.9887 21.2346 18.0158 21.2626 18.0437C22.1566 18.9377 22.1566 20.3871 21.2626 21.281C20.3686 22.175 18.9192 22.175 18.0253 21.281C17.9973 21.2531 17.9702 21.2246 17.944 21.1956L17.9419 21.1977L8.89542 11.3495C7.09671 12.1635 4.90592 11.8312 3.42735 10.3526C2.51794 9.44318 2.04216 8.26436 2 7.07305L3.31733 5.75572L5.7816 8.21999C6.46195 8.90034 7.56501 8.90033 8.24536 8.21999C8.92571 7.53964 8.92571 6.43658 8.24536 5.75623L5.78109 3.29196L7.05449 2.01855Z" fill="#000000"/>
<path d="M17.6076 4.92362L20.1806 3L22.0748 4.87638L20.1804 7.47218C19.6849 7.96302 18.9746 8.11152 18.3492 7.91769L15.575 11.0001L14.075 9.5001L17.1549 6.7282C16.9637 6.11093 17.1146 5.41199 17.6076 4.92362Z" fill="#000000"/>
<path d="M11.4044 16.2549L9.05256 13.6417L4.11231 17.9596L4.11442 17.9617C4.08542 17.9879 4.05693 18.015 4.02898 18.043C3.13502 18.9369 3.13502 20.3863 4.02898 21.2803C4.92295 22.1743 6.37235 22.1743 7.26631 21.2803C7.29426 21.2523 7.32133 21.2239 7.34753 21.1949L7.34964 21.197L11.4044 16.2549Z" fill="#000000"/>
</svg>
