<svg xmlns="http://www.w3.org/2000/svg" width="24" height="24" viewBox="0 0 24 24" fill="none"><rect width="24" height="24" fill="none"/>
<path fill-rule="evenodd" clip-rule="evenodd" d="M10.0002 2H14.0002V4.25203C15.441 4.62285 16.7246 5.3849 17.7312 6.41819L20.0001 5.00012L22.0001 8.50012L19.7273 9.92059C19.9053 10.5837 20.0002 11.2807 20.0002 12C20.0002 12.7192 19.9053 13.4163 19.7273 14.0794L22.0005 15.5001L20.0005 19.0001L17.7312 17.5818C16.7246 18.6151 15.441 19.3771 14.0002 19.748V22H10.0002V19.748C8.55954 19.3772 7.2759 18.6151 6.26934 17.5818L4.00016 19L2.00024 15.5L4.27316 14.0794C4.09516 13.4164 4.00024 12.7193 4.00024 12C4.00024 11.2808 4.09516 10.5837 4.27315 9.92063L2 8.5L4 5L6.26927 6.41824C7.27585 5.38493 8.55951 4.62285 10.0002 4.25203V2ZM12.0002 15.5C13.9332 15.5 15.5002 13.933 15.5002 12C15.5002 10.067 13.9332 8.5 12.0002 8.5C10.0672 8.5 8.50024 10.067 8.50024 12C8.50024 13.933 10.0672 15.5 12.0002 15.5Z" fill="#000000"/>
</svg>
