<svg xmlns="http://www.w3.org/2000/svg" width="48" height="48" viewBox="0 0 48 48" fill="none"><rect width="48" height="48" fill="none"/>
<path d="M22.1667 13V24H25.8333V13H22.1667Z" fill="#000000"/>
<path d="M13 24C13 19.9287 15.2129 16.3739 18.5 14.4717V19.149C17.3595 20.4425 16.6667 22.1398 16.6667 24C16.6667 28.0498 19.9502 31.3333 24 31.3333C28.0498 31.3333 31.3333 28.0498 31.3333 24C31.3333 22.1398 30.6405 20.4425 29.5 19.149V14.4717C32.7871 16.3739 35 19.9287 35 24C35 30.0756 30.0747 35 24 35C17.9253 35 13 30.0756 13 24Z" fill="#000000"/>
</svg>
