<svg xmlns="http://www.w3.org/2000/svg" width="16" height="16" viewBox="0 0 16 16" fill="none"><rect width="16" height="16" fill="none"/>
<g clip-path="url(#clip0_158643_11428)">
<path fill-rule="evenodd" clip-rule="evenodd" d="M15.5293 14.4668L14.4688 15.5273L13.0996 14.1582C11.7151 15.3068 9.93956 16 8 16C3.58172 16 0 12.4183 0 8C0 6.06069 0.691731 4.28407 1.83984 2.89941L0.46875 1.5293L1.5293 0.46875L15.5293 14.4668ZM4.69141 5.75195C4.25503 6.39251 4 7.1664 4 8C4 10.2091 5.79086 12 8 12C8.83382 12 9.60674 11.7435 10.2471 11.3066L4.69141 5.75195Z" fill="#000000"/>
<path d="M8 0C12.4183 0 16 3.58172 16 8C16 9.42159 15.6267 10.7552 14.9766 11.9121L11.9092 8.8457C11.9679 8.57301 12 8.29024 12 8C12 5.79086 10.2091 4 8 4C7.7095 4 7.42624 4.03103 7.15332 4.08984L4.08594 1.02344C5.24322 0.372771 6.57781 0 8 0Z" fill="#000000"/>
</g>
<defs>
<clipPath id="clip0_158643_11428">
<rect width="16" height="16" fill="white"/>
</clipPath>
</defs>
</svg>
