<svg xmlns="http://www.w3.org/2000/svg" width="16" height="16" viewBox="0 0 16 16" fill="none"><rect width="16" height="16" fill="none"/>
<path fill-rule="evenodd" clip-rule="evenodd" d="M5.75 5.75C5.75 5.45453 5.8082 5.16194 5.92127 4.88896C6.03434 4.61598 6.20008 4.36794 6.40901 4.15901C6.61794 3.95008 6.86598 3.78434 7.13896 3.67127C7.41195 3.5582 7.70453 3.5 8 3.5C8.29547 3.5 8.58806 3.5582 8.86104 3.67127C9.13402 3.78434 9.38206 3.95008 9.59099 4.15901C9.79992 4.36794 9.96566 4.61598 10.0787 4.88896C10.1918 5.16195 10.25 5.45453 10.25 5.75V6.875H11.375V11.5C11.375 12.0523 10.9433 12.5 10.4107 12.5H5.58929C5.05673 12.5 4.625 12.0523 4.625 11.5V6.875H5.75V5.75ZM9.03936 5.31948C9.0959 5.45597 9.125 5.60226 9.125 5.75V6.875H6.875V5.75C6.875 5.60226 6.9041 5.45597 6.96064 5.31948C7.01717 5.18299 7.10004 5.05897 7.2045 4.9545C7.30897 4.85004 7.43299 4.76717 7.56948 4.71064C7.70597 4.6541 7.85226 4.625 8 4.625C8.14774 4.625 8.29403 4.6541 8.43052 4.71064C8.56701 4.76717 8.69103 4.85004 8.7955 4.9545C8.89996 5.05897 8.98283 5.18299 9.03936 5.31948Z" fill="#000000"/>
</svg>
