<svg xmlns="http://www.w3.org/2000/svg" width="24" height="24" viewBox="0 0 24 24" fill="none"><rect width="24" height="24" fill="none"/>
<path fill-rule="evenodd" clip-rule="evenodd" d="M6 1C4.34315 1 3 2.34315 3 4V20.7029C3 22.2757 4.7316 23.233 6.06354 22.3967L10.7778 19.4366V20.7895C10.7778 22.51 12.8061 23.4275 14.0982 22.2916L18.9807 17.9996C19.6286 17.43 20 16.6091 20 15.7464V4C20 2.34315 18.6569 1 17 1H6ZM8 7C7.44772 7 7 7.44772 7 8C7 8.55228 7.44772 9 8 9H15C15.5523 9 16 8.55228 16 8C16 7.44772 15.5523 7 15 7H8ZM7 12C7 11.4477 7.44772 11 8 11H12C12.5523 11 13 11.4477 13 12C13 12.5523 12.5523 13 12 13H8C7.44772 13 7 12.5523 7 12Z" fill="#000000"/>
</svg>
