<svg xmlns="http://www.w3.org/2000/svg" width="24" height="24" viewBox="0 0 24 24" fill="none"><rect width="24" height="24" fill="none"/>
<path d="M14.3334 8.88889H16.1042C14.9376 7.33333 13.6766 6.55556 11.8265 6.55556C9.36017 6.55556 7.33333 7.72222 6.60756 12H5.00001C5.3889 7.33333 8.49517 5 11.8265 5C14.0255 5 16.1041 6.16667 17.2709 7.72222L17.4445 5.77778H19V10.4444H14.3334V8.88889Z" fill="#000000"/>
<path d="M9.66663 15.1111H7.89577C9.06242 16.6667 10.3234 17.4444 12.1735 17.4444C14.6398 17.4444 16.6667 16.2778 17.3924 12H19C18.6111 16.6667 15.5048 19 12.1735 19C9.97454 19 7.89587 17.8333 6.72911 16.2778L6.55554 18.2222H5V13.5556H9.66663V15.1111Z" fill="#000000"/>
</svg>
