<svg fill="none" height="24" viewBox="0 0 40 24" width="40" xmlns="http://www.w3.org/2000/svg"><path clip-rule="evenodd" d="m27 0c6.6274 0 12 5.37258 12 12 0 6.6274-5.3726 12-12 12-2.6136 0-5.0302-.8382-7.001-2.2568-1.9705 1.418-4.3859 2.2568-6.999 2.2568-6.62742 0-12-5.3726-12-12 0-6.62742 5.37258-12 12-12 2.6132 0 5.0294.837746 7 2.25586-.0036.00259-.0072.00522-.0107.00781 1.9725-1.422827 4.3928-2.26367 7.0107-2.26367zm-14 2c-5.52285 0-10 4.47715-10 10 0 5.5228 4.47715 10 10 10 2.0021 0 3.8649-.5912 5.4287-1.6045-1.9017-1.9413-3.1498-4.5244-3.3867-7.3955h-8.042v-2h8.042c.2376-2.88009 1.4925-5.47076 3.4043-7.41406-.0058.0059-.0118.01166-.0176.01758-1.5637-1.01309-3.4268-1.60352-5.4287-1.60352zm14 0c-5.1853 0-9.4485 3.9467-9.9502 9h10.9219l-4.0762-4.04004 1.4082-1.41992 6.5166 6.45996-6.5166 6.46-1.4082-1.42 4.0762-4.04h-10.9219c.5017 5.0533 4.7649 9 9.9502 9 5.5228 0 10-4.4772 10-10 0-5.52285-4.4772-10-10-10z" fill="#000" fill-rule="evenodd"/></svg>