<svg xmlns="http://www.w3.org/2000/svg" width="24" height="24" viewBox="0 0 24 24" fill="none"><rect width="24" height="24" fill="none"/>
<path fill-rule="evenodd" clip-rule="evenodd" d="M9 3C7.89543 3 7 3.89543 7 5V6.99951H3C1.89543 6.99951 1 7.89494 1 8.99951V18.9995C1 20.1041 1.89543 20.9995 3 20.9995H11.6734C11.2416 20.0904 11 19.0734 11 18C11 14.134 14.134 11 18 11C19.0736 11 20.0907 11.2417 21 11.6736V8.99951C21 7.89494 20.1046 6.99951 19 6.99951H15V5C15 3.89543 14.1046 3 13 3H9ZM13 5V6.99951H9V5H13Z" fill="#000000"/>
<path fill-rule="evenodd" clip-rule="evenodd" d="M21.9368 18.7122L22.6361 19.3672C22.8267 19.5457 22.8673 19.8328 22.7336 20.0571L22.1935 20.9631C22.0653 21.1781 21.8092 21.2809 21.5679 21.214L20.6812 20.9684C20.2845 21.327 19.8155 21.6072 19.2987 21.7845L19.0925 22.5833C19.0291 22.8287 18.8079 23 18.5545 23H17.443C17.1896 23 16.9684 22.8287 16.905 22.5833L16.6986 21.7835C16.1826 21.6061 15.7144 21.3261 15.3182 20.9678L14.4295 21.214C14.1883 21.2809 13.9322 21.1781 13.804 20.9631L13.2639 20.0571C13.1302 19.8328 13.1708 19.5457 13.3614 19.3672L14.0629 18.7102C14.0216 18.4797 14 18.2424 14 18C14 17.7576 14.0216 17.5203 14.0628 17.2899L13.3614 16.6329C13.1708 16.4544 13.1302 16.1672 13.2639 15.9429L13.804 15.0369C13.9322 14.8219 14.1883 14.7192 14.4295 14.786L15.3181 15.0322C15.7143 14.6739 16.1826 14.3939 16.6986 14.2165L16.905 13.4167C16.9684 13.1714 17.1896 13 17.443 13H18.5545C18.8079 13 19.0291 13.1714 19.0925 13.4167L19.2986 14.2155C19.8155 14.3928 20.2845 14.673 20.6813 15.0317L21.5679 14.786C21.8092 14.7192 22.0653 14.8219 22.1935 15.0369L22.7336 15.9429C22.8673 16.1672 22.8267 16.4544 22.6361 16.6329L21.9368 17.2878C21.9783 17.5189 22 17.7569 22 18C22 18.2431 21.9783 18.4811 21.9368 18.7122ZM17.9998 16.4985C18.8291 16.4985 19.5015 17.1709 19.5015 18.0003C19.5015 18.8296 18.8291 19.502 17.9998 19.502C17.1704 19.502 16.498 18.8296 16.498 18.0003C16.498 17.1709 17.1704 16.4985 17.9998 16.4985Z" fill="#000000"/>
</svg>
