<svg xmlns="http://www.w3.org/2000/svg" width="24" height="24" viewBox="0 0 24 24" fill="none"><rect width="24" height="24" fill="none"/>
<path fill-rule="evenodd" clip-rule="evenodd" d="M12.7798 3.6295C14.5397 1.86964 17.393 1.86959 19.153 3.62938C20.9131 5.38932 20.9131 8.24291 19.1531 10.0029L11.7322 17.4236C10.676 18.4798 8.96352 18.4799 7.9072 17.4237C6.85074 16.3674 6.85067 14.6547 7.90703 13.5983L14.812 6.69335L16.0848 7.96614L9.17983 14.8711C8.82645 15.2245 8.82647 15.7975 9.17988 16.1508C9.53325 16.5041 10.1061 16.5041 10.4594 16.1508L17.8803 8.7301C18.9374 7.67306 18.9373 5.95923 17.8802 4.90223C16.8232 3.84532 15.1096 3.84535 14.0526 4.9023L6.63842 12.3163C4.87324 14.0815 4.87323 16.9434 6.6384 18.7085C8.40354 20.4736 11.2654 20.4737 13.0305 18.7085L16.1239 15.6152C17.3498 14.3893 18.8443 13.4656 20.4891 12.9174L21.0583 14.625C19.6787 15.0849 18.425 15.8597 17.3967 16.888L14.3033 19.9813C11.8352 22.4494 7.83369 22.4494 5.36561 19.9813C2.89749 17.5132 2.8975 13.5116 5.36564 11.0435L12.7798 3.6295Z" fill="#000000"/>
</svg>
