<svg xmlns="http://www.w3.org/2000/svg" width="24" height="24" viewBox="0 0 24 24" fill="none"><rect width="24" height="24" fill="none"/>
<path d="M12.9999 1V3H18.639C19.8749 3 20.815 4.10973 20.6118 5.3288L20.4999 6H3.49993L3.38806 5.3288C3.18488 4.10973 4.12497 3 5.36085 3H10.9999V1H12.9999Z" fill="#000000"/>
<path fill-rule="evenodd" clip-rule="evenodd" d="M18.9999 8H4.99993L6.30847 20.2131C6.41736 21.2293 7.27499 22 8.29709 22H15.7028C16.7249 22 17.5825 21.2293 17.6914 20.2131L18.9999 8ZM9.49993 12H10.9999V18H9.49993V12ZM12.9999 12H14.4999V18H12.9999V12Z" fill="#000000"/>
</svg>
