<svg xmlns="http://www.w3.org/2000/svg" width="16" height="16" viewBox="0 0 16 16" fill="none"><rect width="16" height="16" fill="none"/>
<path d="M7.45357 2.87903C7.64254 2.37366 8.35737 2.37366 8.54634 2.87903L9.59283 5.67768C9.67481 5.89693 9.8799 6.04593 10.1137 6.05615L13.0988 6.18659C13.6378 6.21014 13.8587 6.88999 13.4365 7.22587L11.0982 9.08597C10.915 9.23169 10.8367 9.47279 10.8992 9.69835L11.6976 12.5776C11.8418 13.0975 11.2635 13.5177 10.8135 13.2199L8.3219 11.5709C8.12671 11.4417 7.8732 11.4417 7.67801 11.5709L5.18638 13.2199C4.73645 13.5177 4.15814 13.0975 4.30231 12.5776L5.10069 9.69835C5.16323 9.47279 5.0849 9.23169 4.90172 9.08597L2.56342 7.22588C2.14118 6.88999 2.36207 6.21014 2.9011 6.18659L5.88616 6.05615C6.12001 6.04593 6.3251 5.89693 6.40708 5.67768L7.45357 2.87903Z" fill="#000000"/>
</svg>
