<svg xmlns="http://www.w3.org/2000/svg" width="24" height="24" viewBox="0 0 24 24" fill="none"><rect width="24" height="24" fill="none"/>
<path fill-rule="evenodd" clip-rule="evenodd" d="M10.1617 3.19472C10.7974 1.46635 13.2023 1.46634 13.8381 3.19472L15.5984 7.98045L20.6197 8.20349C22.4332 8.28405 23.1763 10.6091 21.7558 11.7579L17.8224 14.9387L19.1654 19.8622C19.6505 21.6404 17.7049 23.0774 16.1912 22.059L11.9999 19.2391L7.80859 22.059C6.2949 23.0774 4.34929 21.6404 4.83432 19.8622L6.17732 14.9387L2.24396 11.7579C0.823425 10.6091 1.56657 8.28405 3.38003 8.20349L8.40134 7.98045L10.1617 3.19472ZM13.7602 8.67918L11.9999 3.89345L10.2395 8.67918C9.96373 9.429 9.27374 9.93861 8.48701 9.97356L3.4657 10.1966L7.39906 13.3774C8.01533 13.8758 8.27888 14.7003 8.06846 15.4717L6.72546 20.3953L10.9168 17.5754C11.5734 17.1336 12.4263 17.1336 13.083 17.5754L17.2743 20.3953L15.9313 15.4717C15.7209 14.7003 15.9844 13.8758 16.6007 13.3774L20.5341 10.1966L15.5127 9.97356C14.726 9.93861 14.036 9.429 13.7602 8.67918Z" fill="#000000"/>
</svg>
