<svg xmlns="http://www.w3.org/2000/svg" width="24" height="24" viewBox="0 0 24 24" fill="none"><rect width="24" height="24" fill="none"/>
<path fill-rule="evenodd" clip-rule="evenodd" d="M3 12C3 6.47715 7.47715 2 13 2C13.1056 2 13.2109 2.00164 13.3159 2.0049C13.6736 2.01602 13.9981 2.21746 14.1668 2.5331C14.3354 2.84875 14.3226 3.23047 14.133 3.53405C13.4151 4.68391 13 6.04196 13 7.5C13 11.6421 16.3579 15 20.5 15C20.6707 15 20.8399 14.9943 21.0074 14.9831C21.3642 14.9594 21.7065 15.1279 21.9053 15.4252C22.0208 15.598 22.0776 15.799 22.0738 16C22.071 16.1448 22.0368 16.2896 21.9705 16.4238C20.3394 19.7256 16.9362 22 13 22C7.47715 22 3 17.5228 3 12ZM11.6197 4.11864C7.85921 4.77265 5 8.05242 5 12C5 16.4183 8.58172 20 13 20C15.5595 20 17.8395 18.7981 19.3046 16.9255C14.6222 16.3376 11 12.3418 11 7.5C11 6.3099 11.2193 5.16973 11.6197 4.11864Z" fill="#000000"/>
</svg>
