<svg xmlns="http://www.w3.org/2000/svg" width="24" height="24" viewBox="0 0 24 24" fill="none"><rect width="24" height="24" fill="none"/>
<path d="M8 5C8 3.89543 8.89543 3 10 3H14C15.1046 3 16 3.89543 16 5V6.99951H20C21.1046 6.99951 22 7.89494 22 8.99951V10.9995V12.9995V18.9995C22 20.1041 21.1046 20.9995 20 20.9995H4C2.89543 20.9995 2 20.1041 2 18.9995V12.9995V10.9995V8.99951C2 7.89494 2.89543 6.99951 4 6.99951H8V5ZM14 5H10V6.99951H14V5ZM11.9424 17.7266C13.5244 17.7266 14.6182 16.7158 14.6182 15.2314V15.2217C14.6182 13.8789 13.6709 12.9121 12.3574 12.9121C11.6836 12.9121 11.1367 13.2051 10.8535 13.6787H10.7656L10.9414 11.6719H14.1982V10.5H9.79395L9.4668 14.6699H10.7314C10.8096 14.5186 10.9268 14.3867 11.0586 14.2793C11.293 14.0791 11.5957 13.9766 11.9521 13.9766C12.6992 13.9766 13.2314 14.499 13.2314 15.251V15.2607C13.2314 16.0176 12.7041 16.5498 11.9473 16.5498C11.2832 16.5498 10.7998 16.1348 10.6973 15.6172L10.6875 15.583H9.34961L9.35449 15.6514C9.4375 16.8281 10.4336 17.7266 11.9424 17.7266Z" fill="#000000"/>
</svg>
