<svg xmlns="http://www.w3.org/2000/svg" width="24" height="24" viewBox="0 0 24 24" fill="none"><rect width="24" height="24" fill="none"/>
<path d="M15.5329 14V16H11V18H15.5329V22H19V18H22V16H19V14H22V12H19V9.26158C19 7.81744 18.6762 6.55041 18.0287 5.46049C17.3811 4.37057 16.4592 3.52134 15.2631 2.91281C14.0669 2.30427 12.6459 2 11 2C9.35413 2 7.93311 2.30427 6.73693 2.91281C5.54075 3.52134 4.61889 4.37057 3.97133 5.46049C3.32378 6.55041 3 7.81744 3 9.26158V10.0957H6.48061V9.56131C6.48061 8.19891 6.87184 7.10445 7.6543 6.27793C8.43676 5.45141 9.552 5.03815 11 5.03815C12.448 5.03815 13.5632 5.45141 14.3457 6.27793C15.1372 7.10445 15.5329 8.19891 15.5329 9.56131V12H11V14H15.5329Z" fill="#000000"/>
</svg>
