<svg xmlns="http://www.w3.org/2000/svg" width="24" height="24" viewBox="0 0 24 24" fill="none"><rect width="24" height="24" fill="none"/>
<path d="M7.99955 5C7.99955 3.89543 8.89498 3 9.99955 3C11.1041 3 11.9995 3.89543 11.9995 5C11.9995 3.89543 12.895 3 13.9995 3C15.1041 3 15.9995 3.89543 15.9995 5C15.9995 6.10457 15.1041 7 13.9995 7H19.9996V9H3.99964V7H9.99955C8.89498 7 7.99955 6.10457 7.99955 5Z" fill="#000000"/>
<path d="M22.5211 18.6078L20.9995 11H2.99955L1.47799 18.6078C1.23048 19.8454 2.17706 21 3.43916 21H20.5599C21.822 21 22.7686 19.8454 22.5211 18.6078Z" fill="#000000"/>
</svg>
