<svg xmlns="http://www.w3.org/2000/svg" width="16" height="16" viewBox="0 0 16 16" fill="none"><rect width="16" height="16" fill="none"/>
<path d="M10.5907 4.69227H13V6.08116H10.5932C10.3534 6.4975 9.90387 6.77778 9.38889 6.77778C8.87391 6.77778 8.42439 6.4975 8.18456 6.08116H3V4.69227H8.18707C8.42752 4.27833 8.8757 4 9.38889 4C9.90208 4 10.3503 4.27833 10.5907 4.69227Z" fill="#000000"/>
<path d="M13 10.2478H7.81419C7.57405 9.83269 7.1252 9.55339 6.61111 9.55339C6.09703 9.55339 5.64818 9.83269 5.40803 10.2478H3V11.6367H5.40803C5.64818 12.0519 6.09703 12.3312 6.61111 12.3312C7.1252 12.3312 7.57405 12.0519 7.81419 11.6367H13V10.2478Z" fill="#000000"/>
</svg>
