<svg xmlns="http://www.w3.org/2000/svg" width="24" height="24" viewBox="0 0 24 24" fill="none"><rect width="24" height="24" fill="none"/>
<path fill-rule="evenodd" clip-rule="evenodd" d="M5 2C4.44772 2 4 2.44772 4 3V12H2V14H4H20H22V12H20V9.81496C20 8.0401 18.4675 6.65325 16.7015 6.82985L15.2432 6.97568C15.1175 6.98825 15.0117 6.88251 15.0243 6.75677L15.1701 5.29851C15.3468 3.53245 13.9599 2 12.185 2H5ZM18 20V17V16L20 16V21C20 21.5523 19.5523 22 19 22H5C4.44772 22 4 21.5523 4 21V16L6 16V17V20H18Z" fill="#000000"/>
</svg>
