<svg xmlns="http://www.w3.org/2000/svg" width="24" height="24" viewBox="0 0 24 24" fill="none"><rect width="24" height="24" fill="none"/>
<path fill-rule="evenodd" clip-rule="evenodd" d="M15 4.51587C15 2.58009 16.561 1 18.5 1C20.439 1 22 2.58009 22 4.51587C22 5.7178 21.3742 6.7126 20.747 7.4145C20.1125 8.12443 19.4023 8.6188 19.0688 8.83283C18.7214 9.05571 18.2786 9.0557 17.9313 8.83284C17.5977 8.61881 16.8875 8.12444 16.253 7.4145C15.6258 6.7126 15 5.7178 15 4.51587ZM17 4.51587C17 3.6727 17.6775 3 18.5 3C19.3225 3 20 3.6727 20 4.51587C20 5.01187 19.7337 5.54693 19.2557 6.0818C19.0077 6.35925 18.7375 6.59723 18.5 6.78412C18.2625 6.59723 17.9923 6.35925 17.7443 6.0818C17.2663 5.54693 17 5.01187 17 4.51587Z" fill="#000000"/>
<path d="M2 8.5C2 6.01472 4.01472 4 6.5 4H13V6H6.5C5.11929 6 4 7.11929 4 8.5C4 9.88071 5.11929 11 6.5 11H17.5C19.9853 11 22 13.0147 22 15.5C22 17.9853 19.9853 20 17.5 20H11V18H17.5C18.8807 18 20 16.8807 20 15.5C20 14.1193 18.8807 13 17.5 13H12H6.5C4.01472 13 2 10.9853 2 8.5Z" fill="#000000"/>
<path fill-rule="evenodd" clip-rule="evenodd" d="M5.5 15C3.56105 15 2 16.5801 2 18.5159C2 19.7178 2.62579 20.7126 3.25305 21.4145C3.8875 22.1244 4.59769 22.6188 4.93125 22.8328C5.27861 23.0557 5.72139 23.0557 6.06876 22.8328C6.40233 22.6188 7.11251 22.1244 7.74695 21.4145C8.37421 20.7126 9 19.7178 9 18.5159C9 16.5801 7.43895 15 5.5 15ZM5.5 17C4.67753 17 4 17.6727 4 18.5159C4 19.0119 4.26633 19.5469 4.74433 20.0818C4.99227 20.3593 5.26251 20.5972 5.5 20.7841C5.73749 20.5972 6.00773 20.3593 6.25567 20.0818C6.73367 19.5469 7 19.0119 7 18.5159C7 17.6727 6.32247 17 5.5 17Z" fill="#000000"/>
</svg>
