<svg xmlns="http://www.w3.org/2000/svg" width="24" height="24" viewBox="0 0 24 24" fill="none"><rect width="24" height="24" fill="none"/>
<path d="M19.9998 7.99999H22.6505C23.1336 7.99999 23.3989 8.56199 23.0919 8.93493L17.483 15.7528C17.3475 15.9104 17.1686 15.9971 16.9998 16C16.8311 15.9971 16.6521 15.9104 16.5167 15.7528L10.9078 8.93493C10.6008 8.56199 10.866 7.99999 11.3491 7.99999L13.9998 7.99999L13.9998 2L19.9998 2V7.99999Z" fill="#000000"/>
<path d="M9.99983 16L12.6505 16C13.1336 16 13.3989 15.438 13.0919 15.0651L7.48295 8.24719C7.3475 8.08963 7.16858 8.00294 6.99985 8C6.83111 8.00294 6.65212 8.08963 6.51667 8.24719L0.907752 15.0651C0.600753 15.438 0.866046 16 1.3491 16L3.99982 16L3.99983 22H9.99983V16Z" fill="#000000"/>
</svg>
