<svg xmlns="http://www.w3.org/2000/svg" width="16" height="16" viewBox="0 0 16 16" fill="none"><rect width="16" height="16" fill="none"/>
<path d="M0.00170556 2.24676C-0.0335915 1.84037 0.487493 1.62157 0.774699 1.92217L4.35203 5.66641L7.67574 1.15556C7.7568 1.05185 7.8784 1 8 1C8.1216 1 8.2432 1.05185 8.32426 1.15556L11.648 5.66641L15.2253 1.92217C15.5125 1.62157 16.0336 1.84037 15.9983 2.24676L15 10.5H1L0.00170556 2.24676Z" fill="#000000"/>
<path d="M0.900001 12.7778C0.900001 12.3482 1.25817 12 1.7 12H14.2C14.6418 12 15 12.3482 15 12.7778V14.2222C15 14.6518 14.6418 15 14.2 15H1.7C1.25817 15 0.900001 14.6518 0.900001 14.2222V12.7778Z" fill="#000000"/>
</svg>
