<svg xmlns="http://www.w3.org/2000/svg" width="24" height="24" viewBox="0 0 24 24" fill="none"><rect width="24" height="24" fill="none"/>
<path d="M11.2857 4C13.7143 4 14.5238 6.07073 14.5238 8.10256C14.5238 10.1344 13.0889 11.7949 11.2857 11.7949C9.48251 11.7949 8.04761 10.1723 8.04761 8.10256C8.04761 6.0328 8.85713 4 11.2857 4Z" fill="#000000"/>
<path d="M14.5238 17.6C14.5238 18.5005 14.8249 19.3315 15.333 20H4V18.359C4.04776 17.645 4.36593 17.2188 4.85326 16.701C5.8786 15.6117 8.0409 14.2564 11.2857 14.2564C13.0021 14.2564 14.3771 14.5922 15.4436 15.0611C14.8689 15.7517 14.5238 16.636 14.5238 17.6Z" fill="#000000"/>
<path d="M17.7619 15.2H19.381V16.8H21V18.4H19.381V20H17.7619V18.4H16.1429V16.8H17.7619V15.2Z" fill="#000000"/>
</svg>
