<svg xmlns="http://www.w3.org/2000/svg" width="24" height="24" viewBox="0 0 24 24" fill="none"><rect width="24" height="24" fill="none"/>
<path d="M22 12C22 17.5228 17.5228 22 12 22C6.47715 22 2 17.5228 2 12C2 6.47715 6.47715 2 12 2C15.1179 2 17.9026 3.42696 19.7365 5.66344L18.3136 7.08635L18.3124 7.08475L16.3089 9.0882L16.3101 9.0899L14.8522 10.5477L14.8513 10.5458L13.4 11.9971L13.4 12L13.3991 12.0009L13.4 12.0018C13.3991 12.7741 12.7726 13.4 12 13.4C11.2268 13.4 10.6 12.7732 10.6 12C10.6 11.2374 11.2098 10.6172 11.9684 10.6004L13.4315 9.13724C13.0007 8.92145 12.5146 8.8 12 8.8C10.2327 8.8 8.8 10.2327 8.8 12C8.8 13.7673 10.2327 15.2 12 15.2C13.302 15.2 14.4224 14.4224 14.9221 13.3063L17.1233 11.1051C17.1737 11.3958 17.2 11.6949 17.2 12C17.2 14.8719 14.8719 17.2 12 17.2C9.12812 17.2 6.8 14.8719 6.8 12C6.8 9.12812 9.12812 6.8 12 6.8C13.07 6.8 14.0646 7.12321 14.8914 7.67732L16.896 5.67268C15.5429 4.62412 13.8443 4 12 4C7.58172 4 4 7.58172 4 12C4 16.4183 7.58172 20 12 20C16.4183 20 20 16.4183 20 12C20 10.8876 19.773 9.82824 19.3627 8.86571L20.8633 7.36509C21.5893 8.75059 22 10.3273 22 12Z" fill="#000000"/>
</svg>
