<svg xmlns="http://www.w3.org/2000/svg" width="24" height="24" viewBox="0 0 24 24" fill="none"><rect width="24" height="24" fill="none"/>
<path d="M22 20.5858L3.41418 2L2 3.41424L6.58575 8H2V11H7.00001C7.00001 12.6768 6.8208 15.0559 6.21855 16.1909C5.64493 17.272 4.59208 18.4003 2.47615 19.1889L2 19.3672L3.52392 22C6.19083 21.006 7.88794 19.4453 8.86861 17.597C9.75205 15.9321 9.97015 13.2464 9.997 11.4112L13 14.4142V18.1087C13 21.1522 14.1305 22.0001 16.6088 22.0001L20.5858 22L22 20.5858Z" fill="#000000"/>
<path d="M6.24243 2L9.24242 4.99998L20 5L20 2.00002L6.24243 2Z" fill="#000000"/>
<path d="M12.2424 8L15.2424 11H22V8H12.2424Z" fill="#000000"/>
</svg>
