<svg xmlns="http://www.w3.org/2000/svg" width="24" height="24" viewBox="0 0 24 24" fill="none"><rect width="24" height="24" fill="none"/>
<path d="M14.25 3.25781V4.80949C17.4346 5.72865 19.5 8.58805 19.5 11.9994C19.5 15.4107 17.4346 18.2701 14.25 19.1892V20.741C18.3136 19.7749 21 16.2148 21 11.9994C21 7.78394 18.3136 4.22385 14.25 3.25781Z" fill="#000000"/>
<path d="M9.75 20.7406V19.1896C7.04356 18.409 5.15272 16.2284 4.63974 13.5103C4.54787 13.0234 4.5 12.5182 4.5 11.9994C4.5 8.58805 6.56542 5.72865 9.75 4.80949V3.25781C5.68642 4.22385 3 7.78393 3 11.9994C3 12.6106 3.0564 13.209 3.16576 13.7884C3.8097 17.2005 6.28276 19.9157 9.75 20.7406Z" fill="#000000"/>
<path d="M12 15C12.8889 15 13.5 14.3515 13.5 13.681C13.5 13.5267 13.4647 13.4543 13.4365 13.4128C13.4022 13.3623 13.3345 13.2956 13.1891 13.2167C13.04 13.1357 12.8467 13.0617 12.5923 12.9782C12.5086 12.9508 12.4085 12.9193 12.3015 12.8857C12.1247 12.8302 11.9287 12.7688 11.7555 12.7091C11.5904 12.6521 11.4451 12.6067 11.2925 12.5591C11.1823 12.5246 11.0681 12.489 10.94 12.447C10.6671 12.3574 10.3681 12.2497 10.0954 12.1017C9.81896 11.9517 9.53506 11.7423 9.32329 11.431C9.10542 11.1108 9.00002 10.736 9.00002 10.319C9.00002 8.96375 9.98857 7.89781 11.25 7.59008V6H12.75V7.59008C14.0114 7.89779 15 8.96373 15 10.319H13.5C13.5 9.6485 12.8889 9 12 9C11.1111 9 10.5 9.64851 10.5 10.319C10.5 10.4733 10.5353 10.5457 10.5635 10.5872C10.5978 10.6377 10.6655 10.7044 10.8109 10.7833C10.9601 10.8643 11.1533 10.9383 11.4077 11.0218C11.4914 11.0492 11.5915 11.0807 11.6986 11.1143C11.8753 11.1698 12.0713 11.2312 12.2445 11.2909C12.4096 11.3479 12.5551 11.3933 12.7077 11.4409C12.8179 11.4754 12.9319 11.511 13.06 11.553C13.3329 11.6426 13.6319 11.7503 13.9046 11.8983C14.1811 12.0483 14.465 12.2577 14.6768 12.569C14.8946 12.8892 15 13.264 15 13.681C15 15.0362 14.0114 16.1022 12.75 16.4099V18H11.25V16.4099C9.98857 16.1022 9 15.0363 9 13.681H10.5C10.5 14.3515 11.1111 15 12 15Z" fill="#000000"/>
</svg>
