<svg xmlns="http://www.w3.org/2000/svg" width="24" height="24" viewBox="0 0 24 24" fill="none"><rect width="24" height="24" fill="none"/>
<path d="M15.3604 18.355L18.5004 21.4951L23.0004 17L21.7255 15.7244L18.5004 18.9495L16.6332 17.0822L15.3604 18.355Z" fill="#000000"/>
<path d="M10.3604 5.99517C8.80327 4.26507 4.77677 4.03159 2.35898 4.00009C1.80674 3.99289 1.36035 4.44288 1.36035 4.99517V17.9952C1.36035 18.5475 1.80674 18.9929 2.35898 19.0001C4.77677 19.0316 8.80327 19.2651 10.3604 20.9952V13.4952V5.99517Z" fill="#000000"/>
<path d="M12.3604 5.99517C13.9174 4.26507 17.9439 4.03159 20.3617 4.00009C20.914 3.99289 21.3604 4.44288 21.3604 4.99517V13.9112C20.7479 13.6436 20.0715 13.4951 19.3604 13.4951C16.5989 13.4951 14.3604 15.7337 14.3604 18.4951C14.3604 18.9248 14.4145 19.3417 14.5165 19.7396C13.6307 20.0301 12.8655 20.4338 12.3604 20.9952V5.99517Z" fill="#000000"/>
</svg>
