<svg xmlns="http://www.w3.org/2000/svg" width="24" height="24" viewBox="0 0 24 24" fill="none"><rect width="24" height="24" fill="none"/>
<path fill-rule="evenodd" clip-rule="evenodd" d="M14.1721 3.65198C13.8088 3.23601 13.8514 2.60429 14.2674 2.24098C14.6834 1.87768 15.3151 1.92037 15.6784 2.33633L21.749 9.28681C21.9278 9.49152 22.0082 9.74849 21.9943 10H22.0003L20.5161 20.0764C20.3535 21.1805 19.4061 21.9986 18.2901 21.9986H5.71118C4.59524 21.9986 3.64792 21.1806 3.48522 20.0766L2.02818 10.1894C2.01315 10.1281 2.00396 10.0656 2.00066 10.0027L2.00026 10C1.98786 9.75036 2.06872 9.49579 2.24612 9.29267L8.31668 2.34219C8.67999 1.92623 9.31171 1.88354 9.72768 2.24684C10.1436 2.61015 10.1863 3.24187 9.82303 3.65784L4.28377 10H19.7164L14.1721 3.65198ZM4.31659 12L5.46385 19.785C5.48193 19.9077 5.58718 19.9986 5.71118 19.9986H18.2901C18.4141 19.9986 18.5194 19.9077 18.5374 19.785L19.6841 12H16.0003V16H14.0003V12H10.0003V16H8.00026V12H4.31659Z" fill="#000000"/>
</svg>
