<svg xmlns="http://www.w3.org/2000/svg" width="16" height="16" viewBox="0 0 16 16" fill="none"><rect width="16" height="16" fill="none"/>
<g clip-path="url(#clip0_95721_26374)">
<path fill-rule="evenodd" clip-rule="evenodd" d="M16 8C16 12.4183 12.4183 16 8 16C3.58172 16 0 12.4183 0 8C0 3.58172 3.58172 0 8 0C12.4183 0 16 3.58172 16 8ZM5.55102 5.71429C5.55102 4.45192 6.64747 3.42857 8 3.42857C9.35253 3.42857 10.449 4.45192 10.449 5.71429V7.08571H11.4286V11.6571C11.4286 12.1621 10.99 12.5714 10.449 12.5714H5.55102C5.01001 12.5714 4.57143 12.1621 4.57143 11.6571V7.08571H5.55102V5.71429ZM9.46939 5.71429V7.08571H6.53061V5.71429C6.53061 4.95687 7.18848 4.34286 8 4.34286C8.81152 4.34286 9.46939 4.95687 9.46939 5.71429Z" fill="#000000"/>
</g>
<defs>
<clipPath id="clip0_95721_26374">
<rect width="16" height="16" fill="white"/>
</clipPath>
</defs>
</svg>
