<svg xmlns="http://www.w3.org/2000/svg" width="24" height="24" viewBox="0 0 24 24" fill="none"><rect width="24" height="24" fill="none"/>
<path d="M16 23H18V22C19.1 22 20 21.1 20 20V7C20 5.9 19.1 5 18 5H16V2C16 1.4 15.6 1 15 1H9C8.4 1 8 1.4 8 2V5H6C4.9 5 4 5.9 4 7V20C4 21.1 4.9 22 6 22V23H8V22H16V23ZM10 3H14V5H10V3ZM14.0586 17.1807C12.3203 17.1807 11.2607 15.7549 11.2607 13.4795V13.4697C11.2607 11.1895 12.3203 9.77344 14.0586 9.77344C15.8018 9.77344 16.8564 11.1895 16.8564 13.4697V13.4795C16.8564 15.7549 15.8018 17.1807 14.0586 17.1807ZM14.0586 16.0137C13.2285 16.0137 12.7549 15.0713 12.7549 13.4795V13.4697C12.7549 11.873 13.2285 10.9404 14.0586 10.9404C14.8936 10.9404 15.3672 11.873 15.3672 13.4697V13.4795C15.3672 15.0713 14.8936 16.0137 14.0586 16.0137ZM8.95508 17V11.3457H8.86719L7.13867 12.5469V11.2188L8.95996 9.9541H10.4297V17H8.95508Z" fill="#000000"/>
</svg>
