<svg xmlns="http://www.w3.org/2000/svg" width="24" height="24" viewBox="0 0 24 24" fill="none"><rect width="24" height="24" fill="none"/>
<path d="M5 2C4.44772 2 4 2.44772 4 3V21C4 21.5523 4.44772 22 5 22H6.97669C7.26106 18.399 9.97732 14.9828 14.192 14.9828H15.0138C15.0418 12.9712 17.3935 11.8782 18.9505 13.169L20 14.0392V9.81496C20 8.0401 18.4675 6.65325 16.7015 6.82985L15.2432 6.97568C15.1175 6.98825 15.0117 6.88251 15.0243 6.75677L15.1701 5.29851C15.3468 3.53245 13.9599 2 12.185 2H5Z" fill="#000000"/>
<path d="M22.479 19.3374C22.7114 19.1773 22.7114 18.8527 22.479 18.6925L17.6739 14.7087C17.4112 14.4908 17.0136 14.6777 17.0136 15.019V16.9827H14.192C11.0651 16.9827 8.95193 19.6685 8.95193 22.6259H9.35502C11.1393 20.9222 13.6422 20.9635 15.9891 21.0022C16.3349 21.0079 16.6774 21.0136 17.0136 21.0136V22.9814C17.0136 23.322 17.4098 23.5091 17.6728 23.2926L22.479 19.3374Z" fill="#000000"/>
</svg>
