<svg xmlns="http://www.w3.org/2000/svg" width="24" height="24" viewBox="0 0 24 24" fill="none"><rect width="24" height="24" fill="none"/>
<path d="M17.817 8.19415C20.7459 11.1231 20.7459 15.8718 17.817 18.8008C14.888 21.7297 10.1393 21.7297 7.21037 18.8008C4.28144 15.8718 4.28144 11.1231 7.21037 8.19415L5.79616 6.77994C2.08618 10.4899 2.08618 16.505 5.79616 20.215C9.50614 23.9249 15.5212 23.9249 19.2312 20.215C22.9412 16.505 22.9412 10.4899 19.2312 6.77994C16.9577 4.5065 13.8187 3.6262 10.875 4.13904C10.962 4.04597 11.0542 3.9387 11.1505 3.81414L12.5137 2.18374L11.0995 0.769531L6.85682 5.01217L11.0995 9.25481L12.5137 7.8406L11.0797 6.13505C13.4438 5.6768 15.986 6.36317 17.817 8.19415Z" fill="#000000"/>
<path d="M9.65723 17.1108V11.9868H9.63086L8.01367 13.103V11.9077L9.65283 10.7695H10.9712V17.1108H9.65723Z" fill="#000000"/>
<path d="M14.426 17.2515C13.0637 17.2515 12.0837 16.4429 12.0441 15.2959H13.2702C13.3449 15.832 13.8195 16.2012 14.4348 16.2012C15.1291 16.2012 15.6081 15.7178 15.6081 15.0278C15.6081 14.3247 15.1291 13.8325 14.4436 13.8325C13.9646 13.8325 13.5515 14.0522 13.3317 14.417H12.1452L12.4572 10.7695H16.4914V11.8242H13.4987L13.3537 13.5601H13.3801C13.6394 13.1338 14.1447 12.8657 14.7907 12.8657C16.0036 12.8657 16.8737 13.7578 16.8737 14.9927C16.8737 16.3374 15.8806 17.2515 14.426 17.2515Z" fill="#000000"/>
</svg>
