<svg xmlns="http://www.w3.org/2000/svg" width="24" height="24" viewBox="0 0 24 24" fill="none"><rect width="24" height="24" fill="none"/>
<path fill-rule="evenodd" clip-rule="evenodd" d="M16.9997 4.00021C13.5623 3.99998 10.4377 3.99993 7.00031 4.00012C6.44781 4.00015 6 4.44811 6 5.00009V19.9894L10.5097 17.4082C11.433 16.8797 12.567 16.8797 13.4903 17.4082L18 19.9894V5.00019C18 4.44821 17.5522 4.00025 16.9997 4.00021ZM7.0002 2.00012C10.4377 1.99993 13.5623 1.99998 16.9998 2.00021C18.6563 2.00032 20 3.34317 20 5.00019V21.714C20 22.0706 19.8101 22.4003 19.5016 22.5791C19.1931 22.758 18.8127 22.7591 18.5032 22.5819L12.4968 19.144C12.189 18.9678 11.811 18.9678 11.5032 19.144L5.49676 22.5819C5.18727 22.7591 4.80687 22.758 4.49838 22.5791C4.18989 22.4003 4 22.0706 4 21.714V5.00009C4 3.34307 5.34369 2.00021 7.0002 2.00012Z" fill="#000000"/>
</svg>
