<svg xmlns="http://www.w3.org/2000/svg" width="24" height="24" viewBox="0 0 24 24" fill="none"><rect width="24" height="24" fill="none"/>
<path fill-rule="evenodd" clip-rule="evenodd" d="M19.2119 3C18.1816 3 16.1211 5.99375 16.1211 5.99375C16.1211 5.99375 14.5757 5.49489 12 5.49489C9.4243 5.49489 7.8789 5.99375 7.8789 5.99375C7.8789 5.99375 5.81836 3 4.78807 3C2.54838 3 0.66698 12.9777 3.24267 18.9639C4.12908 21.024 7.74502 20.9929 10.9396 20.9654C11.2999 20.9623 11.6549 20.9593 12 20.9593C12.4801 20.9593 12.9784 20.9692 13.4831 20.9792C16.5581 21.0404 19.8723 21.1064 20.7573 18.9639C23.333 12.9777 21.4516 3 19.2119 3ZM7.5 13.0006C8.32843 13.0006 9 12.329 9 11.5006C9 10.6722 8.32843 10.0006 7.5 10.0006C6.67157 10.0006 6 10.6722 6 11.5006C6 12.329 6.67157 13.0006 7.5 13.0006ZM18 11.5006C18 12.329 17.3284 13.0006 16.5 13.0006C15.6716 13.0006 15 12.329 15 11.5006C15 10.6722 15.6716 10.0006 16.5 10.0006C17.3284 10.0006 18 10.6722 18 11.5006ZM11.2726 15.3119C10.7331 14.9028 10.1907 14.3641 10.1907 13.9046C10.1907 13.0476 11.4051 13 12.0014 13C12.5977 13 13.807 13.0119 13.807 13.9046C13.807 14.3822 13.2686 14.9183 12.7319 15.3207C13.2649 16.3681 13.8256 16.6219 14.2565 16.6353C14.8022 16.6522 15.457 16.3043 16.0852 15.68L17 16.6633C16.2743 17.3845 15.2888 18.032 14.2169 17.9988C13.368 17.9724 12.6146 17.5306 12 16.6767C11.3854 17.5306 10.632 17.9724 9.78312 17.9988C8.71118 18.032 7.72572 17.3845 7 16.6633L7.91485 15.68C8.54301 16.3043 9.19784 16.6522 9.74349 16.6353C10.1756 16.6219 10.7382 16.3667 11.2726 15.3119Z" fill="#000000"/>
</svg>
