<svg xmlns="http://www.w3.org/2000/svg" width="24" height="24" viewBox="0 0 24 24" fill="none"><rect width="24" height="24" fill="none"/>
<path d="M6.66607 4.03688C8.04119 2.54387 10.0149 1.66797 12.4019 1.66797C16.0709 1.66797 18.897 3.83112 19.4563 6.8232L19.5227 7.17833H16.0823L16.0108 6.98004C15.5456 5.68933 14.2009 4.72315 12.4019 4.72315C10.9536 4.72315 9.87517 5.29683 9.15141 6.22529C8.42067 7.16269 8.03405 8.48569 8.03405 9.99919C8.03405 11.5192 8.38579 12.9225 9.10418 13.9369C9.81375 14.9388 10.8929 15.5806 12.4134 15.5806C14.3269 15.5806 15.5306 14.7074 15.9777 13.4519L16.0575 13.1255H19.5136L19.4313 13.6024C18.7525 16.6802 16.0861 18.6358 12.4019 18.6358C9.93273 18.6358 7.95724 17.6786 6.60297 16.1066C5.2529 14.5396 4.53664 12.3818 4.53613 9.99926C4.53613 7.61161 5.29329 5.52733 6.66607 4.03688Z" fill="#000000"/>
<path d="M19 21H5V23H19V21Z" fill="#000000"/>
</svg>
