<svg xmlns="http://www.w3.org/2000/svg" width="24" height="24" viewBox="0 0 24 24" fill="none"><rect width="24" height="24" fill="none"/>
<g clip-path="url(#clip0_47698_5549)">
<path fill-rule="evenodd" clip-rule="evenodd" d="M4.00063 2L22.6115 9.96435C23.5351 10.3255 24 11.1774 24.0001 11.9999C24.0002 12.8225 23.5354 13.6747 22.6116 14.036L4 22L4.00032 15.6706C4.00036 14.4474 4.74303 13.3467 5.87728 12.8888L8.07886 12L5.87742 11.1113C4.74311 10.6533 4.00043 9.55258 4.00046 8.32932L4.00063 2ZM6.00055 5.03381L6.00046 8.32937C6.00045 8.73712 6.24801 9.10405 6.62611 9.25669L13.4215 12L6.62598 14.7433C6.24789 14.896 6.00033 15.2629 6.00032 15.6706L6.00015 18.9662L21.8598 12.1822L21.8797 12.1747C21.9348 12.1538 21.9578 12.1282 21.9707 12.1082C21.9872 12.083 22.0001 12.0455 22.0001 12.0002C22.0001 11.9549 21.9872 11.9174 21.9707 11.8921C21.9577 11.8722 21.9347 11.8465 21.8795 11.8256L21.8597 11.8181L6.00055 5.03381Z" fill="#000000"/>
</g>
<defs>
<clipPath id="clip0_47698_5549">
<rect width="24" height="24" fill="white"/>
</clipPath>
</defs>
</svg>
