<svg xmlns="http://www.w3.org/2000/svg" width="48" height="48" viewBox="0 0 48 48" fill="none"><rect width="48" height="48" fill="none"/>
<path d="M43.4052 11.7552C44.1983 10.973 44.1983 9.70484 43.4052 8.92267L39.9574 5.43598C39.1643 4.65381 37.8785 4.65381 37.0854 5.43598L28.9623 13.6178L35.282 19.937L43.4052 11.7552Z" fill="#000000"/>
<path d="M5.4466 37.0966C4.65353 37.8788 4.65353 39.1469 5.44661 39.9291L8.89441 43.4158C9.68748 44.198 10.9733 44.198 11.7664 43.4158L32.8433 22.388L26.5235 16.0688L5.4466 37.0966Z" fill="#000000"/>
<path d="M15.7991 18.7969C12.8737 18.2768 10.5984 16.0015 10.0783 13.0761C10.0783 12.9461 9.88329 12.9461 9.81828 13.0761C9.29821 16.0015 7.02291 18.2768 4.09751 18.7969C3.9675 18.7969 3.9675 18.9919 4.09751 19.0569C7.02291 19.577 9.29821 21.8523 9.81828 24.7777C9.81828 24.9077 10.0133 24.9077 10.0783 24.7777C10.5984 21.8523 12.8737 19.577 15.7991 19.0569C15.9291 18.9919 15.9291 18.8619 15.7991 18.7969Z" fill="#000000"/>
<path d="M42.7348 34.5094C39.8094 33.9893 37.5341 31.714 37.014 28.7886C37.014 28.6586 36.819 28.6586 36.754 28.7886C36.2339 31.714 33.9586 33.9893 31.0332 34.5094C30.9032 34.5094 30.9032 34.7044 31.0332 34.7694C33.9586 35.2895 36.2339 37.5648 36.754 40.4902C36.754 40.6202 36.949 40.6202 37.014 40.4902C37.5341 37.5648 39.8094 35.2895 42.7348 34.7694C42.8648 34.7044 42.8648 34.5744 42.7348 34.5094Z" fill="#000000"/>
<path d="M27.0591 7.62271C25.2376 7.29889 23.8209 5.88219 23.4971 4.06072C23.4971 3.97976 23.3757 3.97976 23.3352 4.06072C23.0114 5.88219 21.5947 7.29889 19.7732 7.62271C19.6923 7.62271 19.6923 7.74414 19.7732 7.78461C21.5947 8.10843 23.0114 9.52513 23.3352 11.3466C23.3352 11.4276 23.4566 11.4276 23.4971 11.3466C23.8209 9.52513 25.2376 8.10843 27.0591 7.78461C27.1401 7.74414 27.1401 7.66318 27.0591 7.62271Z" fill="#000000"/>
</svg>
