<svg xmlns="http://www.w3.org/2000/svg" width="16" height="16" viewBox="0 0 16 16" fill="none"><rect width="16" height="16" fill="none"/>
<path fill-rule="evenodd" clip-rule="evenodd" d="M5.25 5.25C5.25 4.88886 5.32113 4.53127 5.45933 4.19762C5.59753 3.86398 5.8001 3.56082 6.05546 3.30546C6.31082 3.0501 6.61398 2.84753 6.94762 2.70933C7.28127 2.57113 7.63887 2.5 8 2.5C8.36114 2.5 8.71873 2.57113 9.05238 2.70933C9.38603 2.84753 9.68918 3.0501 9.94454 3.30546C10.1999 3.56082 10.4025 3.86398 10.5407 4.19762C10.6789 4.53127 10.75 4.88887 10.75 5.25V6.625H12.125V12.2778C12.125 12.9528 11.5973 13.5 10.9464 13.5H5.05357C4.40266 13.5 3.875 12.9528 3.875 12.2778V6.625H5.25V5.25ZM9.27033 4.72381C9.33943 4.89063 9.375 5.06943 9.375 5.25V6.625H6.625V5.25C6.625 5.06943 6.66057 4.89063 6.72967 4.72381C6.79877 4.55699 6.90005 4.40541 7.02773 4.27773C7.15541 4.15005 7.30699 4.04877 7.47381 3.97967C7.64063 3.91057 7.81943 3.875 8 3.875C8.18057 3.875 8.35937 3.91057 8.52619 3.97967C8.69301 4.04877 8.84459 4.15005 8.97227 4.27773C9.09995 4.40541 9.20123 4.55699 9.27033 4.72381ZM6.625 10.0625C6.625 10.8219 7.24061 11.4375 8 11.4375C8.75939 11.4375 9.375 10.8219 9.375 10.0625C9.375 9.30311 8.75939 8.6875 8 8.6875C7.24061 8.6875 6.625 9.30311 6.625 10.0625Z" fill="#000000"/>
</svg>
