<svg xmlns="http://www.w3.org/2000/svg" width="24" height="24" viewBox="0 0 24 24" fill="none"><rect width="24" height="24" fill="none"/>
<path fill-rule="evenodd" clip-rule="evenodd" d="M7.44439 3.73809C8.18875 2.66674 9.37896 2 11 2C12.628 2 13.8164 2.68216 14.5573 3.75506C15.2608 4.77386 15.5 6.05227 15.5 7.21053C15.5 9.76736 13.5788 12 11 12C8.42764 12 6.5 9.81324 6.5 7.21053C6.5 6.03565 6.73813 4.75459 7.44439 3.73809ZM9.08686 4.87927C8.69937 5.43697 8.5 6.26117 8.5 7.21053C8.5 8.85628 9.67426 10 11 10C12.3193 10 13.5 8.8243 13.5 7.21053C13.5 6.28348 13.3017 5.45663 12.9115 4.89149C12.5586 4.38045 11.997 4 11 4C9.99603 4 9.43624 4.37641 9.08686 4.87927Z" fill="#000000"/>
<path d="M11 16C7.76305 16 5.65733 17.4968 4.6996 18.6261C4.2233 19.1878 4.03755 19.5011 4 20.0325V21H13.083C13.2034 21.7179 13.4513 22.3926 13.8027 23H3C2.44772 23 2 22.5523 2 22V20C2 18.9753 2.53373 18.0879 3.17422 17.3326C4.46822 15.8067 7.11108 14 11 14C12.9091 14 14.4826 14.3896 15.7437 14.9596C15.1206 15.3631 14.577 15.8789 14.1416 16.4784C13.2684 16.1879 12.2264 16 11 16Z" fill="#000000"/>
<path d="M19 17H21V19H23V21H21V23H19V21H17V19H19V17Z" fill="#000000"/>
</svg>
