<svg xmlns="http://www.w3.org/2000/svg" width="24" height="24" viewBox="0 0 24 24" fill="none"><rect width="24" height="24" fill="none"/>
<path d="M8.2002 9.47538V6.40643H10.0014V5.52514C10.0014 3.21306 11.1819 2 14.5096 2C15.2931 2 15.8935 2.05184 16.382 2.12442V4.71643C16.2294 4.6957 15.8935 4.65422 15.4356 4.65422C14.3976 4.65422 13.8779 5.11042 13.8779 5.88802V6.40643H16.321V9.47538H14V18.112C14 20.6418 12.6473 22 9.69612 22C9.08554 22 8.5869 21.9689 8.25108 21.9378V18.9725C8.38337 19.0036 8.57672 19.0036 8.77007 19.0036C9.62489 19.0036 10.0014 18.7341 10.0014 18.1223V9.47538H8.2002Z" fill="#000000"/>
</svg>
