<svg xmlns="http://www.w3.org/2000/svg" width="24" height="24" viewBox="0 0 24 24" fill="none"><rect width="24" height="24" fill="none"/>
<path fill-rule="evenodd" clip-rule="evenodd" d="M14.1716 3.65198C13.8083 3.23601 13.851 2.60429 14.2669 2.24098C14.6829 1.87768 15.3146 1.92037 15.6779 2.33633L21.7485 9.28681C21.9273 9.49152 22.0077 9.74849 21.9938 10H21.9998L20.5156 20.0764C20.353 21.1805 19.4056 21.9986 18.2896 21.9986H5.71069C4.59475 21.9986 3.64743 21.1806 3.48473 20.0766L2.02769 10.1894C2.01266 10.1281 2.00347 10.0656 2.00017 10.0027L1.99977 10C1.98737 9.75036 2.06823 9.49579 2.24564 9.29267L8.3162 2.34219C8.6795 1.92623 9.31122 1.88354 9.72719 2.24684C10.1432 2.61015 10.1858 3.24187 9.82254 3.65784L4.28328 10H19.7159L14.1716 3.65198ZM4.31611 12L5.46336 19.785C5.48144 19.9077 5.5867 19.9986 5.71069 19.9986H18.2896C18.4136 19.9986 18.5189 19.9077 18.537 19.785L19.6836 12H15.9998V16H13.9998V12H9.99977V16H7.99977V12H4.31611Z" fill="#000000"/>
</svg>
