<svg xmlns="http://www.w3.org/2000/svg" width="24" height="24" viewBox="0 0 24 24" fill="none"><rect width="24" height="24" fill="none"/>
<path d="M3.5699 4.26567C2.22629 5.2254 2.06893 7.16311 3.24009 8.32706L15.2745 20.2874C16.441 21.4467 18.3684 21.2842 19.3243 19.946L21.7202 16.5916C22.0051 16.1928 21.959 15.6462 21.6111 15.3008L21.2574 14.9496L17.8539 18.3531L17.1468 17.646L20.5479 14.2449L19.7522 13.4548L16.3539 16.8531L15.6468 16.146L19.0426 12.7502L18.247 11.96L14.8539 15.3531L14.1468 14.646L17.5374 11.2554L16.7418 10.4653L13.3539 13.8531L12.6468 13.146L16.0322 9.76064L15.2365 8.97051L11.8539 12.3531L11.1468 11.646L14.527 8.26587L13.7313 7.47574L10.3539 10.8531L9.64681 10.146L13.0217 6.7711L12.2261 5.98097L8.85392 9.35312L8.14681 8.64601L11.5165 5.27633L10.7208 4.4862L7.35392 7.85311L6.64681 7.14601L10.0113 3.78156L9.2156 2.99143L5.85392 6.35311L5.14681 5.64601L8.50603 2.28679L8.19896 1.98185C7.85303 1.63833 7.3098 1.59432 6.91309 1.87769L3.5699 4.26567Z" fill="#000000"/>
</svg>
