<svg xmlns="http://www.w3.org/2000/svg" width="24" height="24" viewBox="0 0 24 24" fill="none"><rect width="24" height="24" fill="none"/>
<path d="M9.7212 7.09362L9.72069 7.09497L5.99872 3.373L4.49965 4.87206L8.55517 8.92758C8.49697 8.94088 8.43706 8.94906 8.376 8.95173L3.25875 9.17533C2.3347 9.21571 1.95603 10.3812 2.67987 10.957L6.68838 14.1457C7.0024 14.3955 7.13669 14.8088 7.02948 15.1955L5.66082 20.1314C5.41367 21.0227 6.40506 21.743 7.17637 21.2325L11.4477 18.4056C11.7824 18.1841 12.2169 18.1841 12.5516 18.4056L16.8229 21.2325C17.5942 21.743 18.5856 21.0227 18.3385 20.1314L17.7935 18.1659L21.0035 21.3759L22.5026 19.8769L17.0625 14.4368L17.0632 14.4356L9.7212 7.09362Z" fill="#000000"/>
<path d="M18.5395 13.1684L21.3194 10.957C22.0433 10.3812 21.6646 9.21571 20.7405 9.17533L15.6233 8.95173C15.2224 8.93421 14.8708 8.67877 14.7303 8.30292L12.9363 3.50523C12.6124 2.63888 11.3869 2.63888 11.063 3.50523L10.4679 5.09673L18.5395 13.1684Z" fill="#000000"/>
</svg>
