<svg xmlns="http://www.w3.org/2000/svg" width="16" height="16" viewBox="0 0 16 16" fill="none"><rect width="16" height="16" fill="none"/>
<path d="M4.54775 5.89934C4.54775 4.95868 4.89068 4 5.9195 4C6.94831 4 7.29125 4.94111 7.29125 5.89934C7.29125 6.85757 6.68338 7.60876 5.91949 7.60876C5.1556 7.60876 4.54775 6.84001 4.54775 5.89934Z" fill="#000000"/>
<path d="M9.16996 7.0549C9.16996 6.11423 9.51289 5.15555 10.5417 5.15555C11.5705 5.15555 11.9135 6.09667 11.9135 7.0549C11.9135 8.01313 11.3056 8.76431 10.5417 8.76431C9.77782 8.76431 9.16996 7.99557 9.16996 7.0549Z" fill="#000000"/>
<path d="M2.91504 10.6844V12H8.92392V10.6844C8.90422 10.3132 8.77302 10.0915 8.57205 9.82232C8.14923 9.25585 7.25755 8.55112 5.91948 8.55112C4.45319 8.55112 3.59112 9.30036 3.21274 9.8624C3.04687 10.1088 2.93224 10.3602 2.91504 10.6844Z" fill="#000000"/>
<path d="M9.63717 9.78848C9.9019 9.72632 10.2027 9.68884 10.5417 9.68884C11.6739 9.68884 12.4284 10.1611 12.7862 10.5407C12.9562 10.7211 13.0673 10.8696 13.0839 11.1184V11.9999H9.84838V10.6599L9.84708 10.6355C9.82893 10.2934 9.74734 10.0199 9.63717 9.78848Z" fill="#000000"/>
</svg>
