<svg xmlns="http://www.w3.org/2000/svg" width="24" height="24" viewBox="0 0 24 24" fill="none"><rect width="24" height="24" fill="none"/>
<path fill-rule="evenodd" clip-rule="evenodd" d="M5.52274 3.99689L7.94903 8.7301C9.50223 11.7601 7.58163 15 4.49911 15C2.19143 15 0.534876 13.1842 0.499603 11C0.48776 10.2666 0.658774 9.49173 1.04919 8.7301L4.49911 2C9.49913 2 14.4992 2.00003 19.4991 2.00003L22.949 8.7301C24.4052 11.5707 22.8081 14.5958 20.0629 14.9629C19.8799 14.9873 19.6918 15 19.4991 15C17.1914 15 15.5349 13.1842 15.4996 11C15.4878 10.2666 15.6588 9.49173 16.0492 8.7301L18.4722 4.00331L12.999 3.99689C12.999 11 13.4996 16 16.0492 21H7.99911C10.4996 16 10.9991 11 10.999 3.99689H5.52274ZM4.49911 6.38434L2.82898 9.64244C2.58116 10.1259 2.47977 10.5851 2.4903 11H6.50793C6.51845 10.5851 6.41707 10.1259 6.16925 9.64243L4.49911 6.38434ZM17.829 9.64244L19.4991 6.38434L21.1692 9.64243C21.4171 10.1259 21.5185 10.5851 21.5079 11H17.4903C17.4798 10.5851 17.5812 10.1259 17.829 9.64244Z" fill="#000000"/>
</svg>
