<svg xmlns="http://www.w3.org/2000/svg" width="48" height="48" viewBox="0 0 48 48" fill="none"><rect width="48" height="48" fill="none"/>
<path d="M22.1267 7.00948C22.7746 5.27679 25.2254 5.27679 25.8733 7.00948L29.4613 16.6049C29.7423 17.3566 30.4455 17.8675 31.2473 17.9025L41.4818 18.3497C43.3299 18.4304 44.0872 20.7613 42.6395 21.913L34.6225 28.2904C33.9945 28.79 33.7259 29.6167 33.9403 30.39L36.6776 40.2618C37.1719 42.0444 35.1892 43.485 33.6466 42.464L25.1038 36.8101C24.4346 36.3672 23.5654 36.3672 22.8962 36.8101L14.3534 42.464C12.8108 43.485 10.828 42.0444 11.3223 40.2618L14.0597 30.39C14.2741 29.6167 14.0055 28.79 13.3775 28.2904L5.36044 21.913C3.91276 20.7613 4.67011 18.4304 6.51821 18.3497L16.7527 17.9025C17.5545 17.8675 18.2576 17.3566 18.5387 16.6049L22.1267 7.00948Z" fill="#000000"/>
</svg>
