<svg xmlns="http://www.w3.org/2000/svg" width="16" height="16" viewBox="0 0 16 16" fill="none"><rect width="16" height="16" fill="none"/>
<g clip-path="url(#clip0_140935_8128)">
<path d="M2.28012 7.99996C2.28012 8.84474 1.79054 9.43352 1.26095 10.2975C0.302581 11.8591 -0.769388 13.6574 0.787367 15.2126C2.34412 16.7677 4.14087 15.6973 5.70243 14.7406C6.568 14.211 7.15519 13.7214 7.99996 13.7214C8.84474 13.7214 9.43352 14.211 10.2975 14.7406C11.8591 15.6973 13.6558 16.7693 15.2126 15.2126C16.7693 13.6558 15.6973 11.8591 14.7406 10.2975C14.211 9.43192 13.7214 8.84474 13.7214 7.99996C13.7214 7.15519 14.211 6.5664 14.7406 5.70243C15.6973 4.14087 16.7693 2.34412 15.2126 0.787367C13.6558 -0.769388 11.8591 0.302581 10.2975 1.26095C9.43192 1.79214 8.84474 2.28012 7.99996 2.28012C7.15519 2.28012 6.5664 1.79054 5.70243 1.26095C4.14087 0.302581 2.34252 -0.769388 0.787367 0.787367C-0.767788 2.34412 0.302581 4.14087 1.26095 5.70243C1.79054 6.5664 2.28012 7.15519 2.28012 7.99996Z" fill="#000000"/>
</g>
<defs>
<clipPath id="clip0_140935_8128">
<rect width="16" height="16" fill="white"/>
</clipPath>
</defs>
</svg>
