<svg xmlns="http://www.w3.org/2000/svg" width="24" height="24" viewBox="0 0 24 24" fill="none"><rect width="24" height="24" fill="none"/>
<path d="M14.6667 8.44444H16.6906C15.3572 6.66667 13.9161 5.77778 11.8017 5.77778C8.98305 5.77778 6.66666 7.11111 5.83721 12H4.00002C4.44446 6.66667 7.99448 4 11.8017 4C14.3148 4 16.6904 5.33333 18.0239 7.11111L18.2222 4.88889H20V10.2222H14.6667V8.44444Z" fill="#000000"/>
<path d="M9.33329 15.5556H7.30945C8.64277 17.3333 10.0839 18.2222 12.1983 18.2222C15.0169 18.2222 17.3333 16.8889 18.1628 12H20C19.5555 17.3333 16.0055 20 12.1983 20C9.68519 20 7.30956 18.6667 5.97613 16.8889L5.77776 19.1111H4V13.7778H9.33329V15.5556Z" fill="#000000"/>
</svg>
