<svg xmlns="http://www.w3.org/2000/svg" width="16" height="16" viewBox="0 0 16 16" fill="none"><rect width="16" height="16" fill="none"/>
<path fill-rule="evenodd" clip-rule="evenodd" d="M4.8 2.5556C4.8 1.69646 5.51635 1 6.4 1H9.6C10.4837 1 11.2 1.69646 11.2 2.5556V4H14.4C15.2837 4 16 4.69646 16 5.5556V7H0L0 5.5556C0 4.69646 0.716345 4 1.6 4H4.8V2.5556ZM9.6 2.5556V4H6.4V2.5556H9.6Z" fill="#000000"/>
<path fill-rule="evenodd" clip-rule="evenodd" d="M16 8.5H0L0 13.4444C0 14.3035 0.716345 15 1.6 15H14.4C15.2837 15 16 14.3035 16 13.4444V8.5ZM9.6 8.50038C9.6 9.35951 8.88366 10.056 8 10.056C7.11634 10.056 6.4 9.35951 6.4 8.50038H9.6Z" fill="#000000"/>
</svg>
