<svg xmlns="http://www.w3.org/2000/svg" width="16" height="16" viewBox="0 0 16 16" fill="none"><rect width="16" height="16" fill="none"/>
<path d="M9.60039 7.99992C9.60039 8.88358 8.88405 9.59992 8.00039 9.59992C7.11674 9.59992 6.40039 8.88358 6.40039 7.99992C6.40039 7.11626 7.11674 6.39992 8.00039 6.39992C8.88405 6.39992 9.60039 7.11626 9.60039 7.99992Z" fill="#000000"/>
<path d="M9.60041 13.501C9.60041 14.3846 8.88407 15.101 8.00041 15.101C7.11676 15.101 6.40041 14.3846 6.40041 13.501C6.40041 12.6173 7.11676 11.901 8.00041 11.901C8.88407 11.901 9.60041 12.6173 9.60041 13.501Z" fill="#000000"/>
<path d="M9.60041 2.49844C9.60041 3.38209 8.88407 4.09844 8.00041 4.09844C7.11676 4.09844 6.40041 3.38209 6.40041 2.49844C6.40041 1.61478 7.11676 0.898438 8.00041 0.898438C8.88407 0.898438 9.60041 1.61478 9.60041 2.49844Z" fill="#000000"/>
</svg>
