<svg xmlns="http://www.w3.org/2000/svg" width="16" height="16" viewBox="0 0 16 16" fill="none"><rect width="16" height="16" fill="none"/>
<g clip-path="url(#clip0_126461_10431)">
<path d="M5.75 2.37473L9.00015 5.62489V2.04994C9.00015 1.61568 8.7196 1.27395 8.34144 1.10868C7.97724 0.949501 7.52251 0.953983 7.14066 1.19707C6.99532 1.28959 6.41417 1.79014 5.75 2.37473Z" fill="#000000"/>
<path d="M13.9768 10.6016C14.2869 9.80163 14.4583 8.92257 14.4583 8C14.4583 6.53535 14.0263 5.18039 13.2933 4.07752L14.6031 3.1875C15.4833 4.5494 16 6.2091 16 8C16 9.36486 15.6999 10.6535 15.1675 11.7922L13.9768 10.6016Z" fill="#000000"/>
<path d="M11.4583 8C11.4583 7.18753 11.1925 6.44257 10.7502 5.86234L12.0654 4.96865C12.652 5.81149 13 6.86156 13 8C13 8.49823 12.9333 8.97953 12.8092 9.43395L11.4574 8.08213C11.458 8.05483 11.4583 8.02745 11.4583 8Z" fill="#000000"/>
<path d="M0 10.3333V5.63528C0 5.25341 0.0385337 5.00746 0.30581 4.73743C0.54753 4.49323 0.958434 4.49653 1.3144 4.4994C1.35203 4.4997 1.38906 4.5 1.4252 4.5H3.36836L3.37092 4.49768L0 1.12676L1.12676 0L16 14.8732L14.8732 16L9.00015 10.1269V13.9494L9 13.967C8.99255 14.3929 8.71449 14.7277 8.34144 14.8907C7.97724 15.0499 7.52251 15.0454 7.14066 14.8023C6.75881 14.5592 3.36836 11.5246 3.36836 11.5246H1.4252C1.04721 11.5246 0.573086 11.5036 0.30581 11.2336C0.0385337 10.9636 0 10.7152 0 10.3333Z" fill="#000000"/>
</g>
<defs>
<clipPath id="clip0_126461_10431">
<rect width="16" height="16" fill="white"/>
</clipPath>
</defs>
</svg>
