<svg xmlns="http://www.w3.org/2000/svg" width="48" height="48" viewBox="0 0 48 48" fill="none"><rect width="48" height="48" fill="none"/>
<path fill-rule="evenodd" clip-rule="evenodd" d="M44 24C44 35.0457 35.0457 44 24 44C12.9543 44 4 35.0457 4 24C4 12.9543 12.9543 4 24 4C35.0457 4 44 12.9543 44 24ZM22 24V12H26V24H22ZM18 13.6055C14.4132 15.6803 12 19.5584 12 24.0001C12 30.6275 17.3726 36.0001 24 36.0001C30.6274 36.0001 36 30.6275 36 24.0001C36 19.5584 33.5868 15.6803 30 13.6055V18.7084C31.2447 20.1187 32 21.9712 32 24.0001C32 28.4184 28.4183 32.0001 24 32.0001C19.5817 32.0001 16 28.4184 16 24.0001C16 21.9712 16.7553 20.1187 18 18.7084V13.6055Z" fill="#000000"/>
</svg>
