<svg xmlns="http://www.w3.org/2000/svg" width="16" height="16" viewBox="0 0 16 16" fill="none"><rect width="16" height="16" fill="none"/>
<path d="M4 7C4.55228 7 5 7.44772 5 8C5 8.55228 4.55228 9 4 9C3.44772 9 3 8.55228 3 8C3 7.44772 3.44772 7 4 7Z" fill="#000000"/>
<path d="M13 1C14.6569 1 16 2.34315 16 4V12C16 13.6569 14.6569 15 13 15H3C1.39489 15 0.0842144 13.7394 0.00390625 12.1543L0 12V4C1.28853e-07 2.34315 1.34315 1 3 1H13ZM3 3C2.44772 3 2 3.44772 2 4V12L2.00488 12.1025C2.05621 12.6067 2.48232 13 3 13H13C13.5523 13 14 12.5523 14 12V4C14 3.44772 13.5523 3 13 3H3Z" fill="#000000"/>
</svg>
