<svg xmlns="http://www.w3.org/2000/svg" width="24" height="24" viewBox="0 0 24 24" fill="none"><rect width="24" height="24" fill="none"/>
<path d="M16 11.9997C16.8284 11.9997 17.4999 12.6714 17.5 13.4997C17.5 14.3281 16.8284 14.9997 16 14.9997C15.1716 14.9997 14.5 14.3281 14.5 13.4997C14.5001 12.6714 15.1716 11.9997 16 11.9997Z" fill="#000000"/>
<path fill-rule="evenodd" clip-rule="evenodd" d="M14.4902 5.0085C15.8373 4.8944 17.0163 5.88039 17.0957 7.18721L17.1543 8.15791H17.5996C18.925 8.15791 19.9999 9.19812 20 10.4812V16.6765C19.9999 17.9595 18.9251 18.9997 17.5996 18.9997H6.40039C5.07494 18.9997 4.00005 17.9595 4 16.6765V8.02803C4.00009 6.82375 4.95113 5.8189 6.19043 5.71358L14.4902 5.0085ZM5.59961 16.6765C5.59966 17.1041 5.9586 17.4509 6.40039 17.4509H17.5996C18.0414 17.4509 18.4003 17.1041 18.4004 16.6765V10.4812C18.4003 10.0535 18.0414 9.70674 17.5996 9.70674H5.59961V16.6765ZM14.6299 6.55147L6.33008 7.25655C5.91718 7.2918 5.59969 7.62676 5.59961 8.02803V8.15791H15.5518L15.498 7.27803C15.4715 6.84256 15.0788 6.51355 14.6299 6.55147Z" fill="#000000"/>
</svg>
