<svg xmlns="http://www.w3.org/2000/svg" width="24" height="24" viewBox="0 0 24 24" fill="none"><rect width="24" height="24" fill="none"/>
<path d="M1 21V10.4444H5.87112L5.27708 21H1Z" fill="#000000"/>
<path d="M5.27708 21H1V10.4444H5.87112L5.27708 21ZM11.7617 6.22266C11.7617 5.9218 11.5538 5.39232 10.8135 4.83984C10.6645 4.72866 10.5061 4.62944 10.3447 4.53906L9.53125 19H18.4355L18.4352 21H7.41562L8.48489 2C10.8471 2 13.762 3.89035 13.762 6.22222V8.33333H19.8609C21.1824 8.33333 22.1876 9.50472 21.9704 10.7915L20.5447 19.236L20.5039 19.4238C20.2765 20.2831 19.525 20.9114 18.6289 20.9912L18.4352 21L18.4355 19C18.523 18.9999 18.5658 18.9406 18.5723 18.9033L19.998 10.459C20.0013 10.44 19.9992 10.4293 19.9971 10.4219C19.9942 10.412 19.9876 10.398 19.9746 10.3828C19.9616 10.3676 19.9458 10.3547 19.9287 10.3467C19.9136 10.3396 19.8927 10.3331 19.8613 10.333H11.7617V6.22266Z" fill="#000000"/>
</svg>
