<svg xmlns="http://www.w3.org/2000/svg" width="24" height="24" viewBox="0 0 24 24" fill="none"><rect width="24" height="24" fill="none"/>
<path d="M11 2C14 2 15 4.58841 15 7.12821C15 9.668 13.2275 11.7436 11 11.7436C8.77251 11.7436 6.99999 9.71541 6.99999 7.12821C6.99999 4.541 7.99998 2 11 2Z" fill="#000000"/>
<path d="M15 19C15 20.1256 15.3719 21.1643 15.9996 22H2V19.9487C2.05899 19.0563 2.45203 18.5235 3.05402 17.8763C4.32062 16.5146 6.9917 14.8205 11 14.8205C13.1203 14.8205 14.8188 15.2402 16.1362 15.8263C15.4262 16.6896 15 17.795 15 19Z" fill="#000000"/>
<path d="M20.3447 15.4941C20.2361 15.1905 19.8255 15.1905 19.7169 15.4941L19.1158 17.1755C19.0687 17.3073 18.9509 17.3968 18.8166 17.4029L17.1018 17.4813C16.7922 17.4954 16.6653 17.9039 16.9078 18.1057L18.251 19.2232C18.3563 19.3108 18.4013 19.4556 18.3653 19.5911L17.9067 21.321C17.8239 21.6334 18.1561 21.8858 18.4146 21.7069L19.8459 20.7161C19.958 20.6385 20.1036 20.6385 20.2157 20.7161L21.647 21.7069C21.9055 21.8858 22.2377 21.6334 22.1549 21.321L21.6963 19.5911C21.6603 19.4556 21.7053 19.3108 21.8106 19.2232L23.1538 18.1057C23.3963 17.9039 23.2694 17.4954 22.9598 17.4813L21.2451 17.4029C21.1107 17.3968 20.9929 17.3073 20.9458 17.1755L20.3447 15.4941Z" fill="#000000"/>
</svg>
