<svg xmlns="http://www.w3.org/2000/svg" width="16" height="16" viewBox="0 0 16 16" fill="none"><rect width="16" height="16" fill="none"/>
<path d="M6.41732 3.33301C6.1708 3.33301 5.95089 3.48799 5.86797 3.72015L4.82631 6.63682C4.8029 6.70235 4.79192 6.76846 4.79183 6.83301C4.79141 7.14269 5.04185 7.41635 5.37566 7.41635H10.6247C10.9585 7.41635 11.2089 7.14269 11.2085 6.83301C11.2084 6.76846 11.1974 6.70235 11.174 6.63682L10.1324 3.72015C10.0494 3.48799 9.8295 3.33301 9.583 3.33301H6.41732Z" fill="#000000"/>
<path d="M9.7329 8.58301C9.4864 8.58301 9.2665 8.73799 9.1835 8.97015L8.28014 11.4996H7.72019L6.81678 8.97015C6.73387 8.73799 6.51396 8.58301 6.26743 8.58301H3.20899C2.96247 8.58301 2.74256 8.73799 2.65964 8.97015L1.61797 11.8868C1.59457 11.9523 1.58358 12.0184 1.5835 12.083C1.58308 12.3926 1.83351 12.6663 2.16732 12.6663H13.833C14.1668 12.6663 14.4172 12.3926 14.4168 12.083C14.4167 12.0184 14.4058 11.9523 14.3824 11.8868L13.3407 8.97015C13.2578 8.73799 13.0379 8.58301 12.7913 8.58301H9.7329Z" fill="#000000"/>
</svg>
