<svg xmlns="http://www.w3.org/2000/svg" width="24" height="24" viewBox="0 0 24 24" fill="none"><rect width="24" height="24" fill="none"/>
<path fill-rule="evenodd" clip-rule="evenodd" d="M6 1C3.23858 1 1 3.23858 1 6V18C1 20.7614 3.23858 23 6 23H18C20.7614 23 23 20.7614 23 18V6C23 3.23858 20.7614 1 18 1H6ZM13.6408 5.06078L17.6256 9.03983C17.7658 9.19059 17.8298 9.37874 17.8265 9.56371C17.8211 9.85679 17.6466 10.1419 17.3376 10.2578L15.9879 10.7583C15.8873 10.7961 15.7959 10.8549 15.7199 10.9309L14.597 12.0539L18.513 15.9699L17.5422 16.9407L13.6262 13.0246L12.4882 14.1626C12.4122 14.2386 12.3533 14.3301 12.3156 14.4307L11.8151 15.7653C11.6261 16.2692 10.9875 16.4156 10.5979 16.0532L6.72085 12.177L6.71793 12.174C6.66656 12.1226 6.62657 12.0659 6.60059 12.0213C6.5351 11.9087 6.50248 11.7846 6.50014 11.661C6.4944 11.3584 6.67012 11.0588 6.98897 10.9392L7.96786 10.5722C8.06853 10.5344 8.15995 10.4756 8.23598 10.3995L11.9569 6.67857C12.033 6.60254 12.0918 6.51112 12.1296 6.41045L12.4966 5.42534C12.6108 5.12056 12.9513 4.92942 13.2572 4.92775C13.4021 4.92695 13.5391 4.96862 13.6408 5.06078ZM6.5 17.6271V19H12.6781V17.6271H6.5Z" fill="#000000"/>
</svg>
