<svg xmlns="http://www.w3.org/2000/svg" width="24" height="24" viewBox="0 0 24 24" fill="none"><rect width="24" height="24" fill="none"/>
<path d="M5.01012 1.12375C5.54533 0.987498 6 1.44804 6 2.00032C6 2.55261 5.52548 2.9796 5.04103 3.2448C4.42067 3.58439 4 4.24323 4 5.00032V9.00032C4 9.75742 4.42067 10.4163 5.04103 10.7559C5.52548 11.021 6 11.448 6 12.0003C6 12.5526 5.54533 13.0132 5.01012 12.8769C3.27976 12.4364 2 10.8678 2 9.00032V5.00032C2 3.13284 3.27976 1.56427 5.01012 1.12375Z" fill="#000000"/>
<path d="M18 12.0003C18 11.448 18.4745 11.021 18.959 10.7559C19.5793 10.4163 20 9.75742 20 9.00032V5.00032C20 4.24323 19.5793 3.58439 18.959 3.2448C18.4745 2.9796 18 2.55261 18 2.00032C18 1.44804 18.4547 0.987498 18.9899 1.12375C20.7202 1.56427 22 3.13284 22 5.00032V9.00032C22 10.8678 20.7202 12.4364 18.9899 12.8769C18.4547 13.0132 18 12.5526 18 12.0003Z" fill="#000000"/>
<path d="M21 22.0004V19.9491C20.9485 19.1696 20.6051 18.5652 20.1082 17.973C18.9748 16.622 16.3924 14.8209 12 14.8209C7.9917 14.8209 5.32062 16.515 4.05402 17.8766C3.45203 18.5238 3.05899 19.0567 3 19.9491V22.0004H21Z" fill="#000000"/>
<path d="M12 2.00037C15 2.00037 16 4.58878 16 7.12857C16 9.66836 14.2275 11.744 12 11.744C9.77251 11.744 7.99999 9.71578 7.99999 7.12857C7.99999 4.54136 8.99999 2.00037 12 2.00037Z" fill="#000000"/>
</svg>
