<svg xmlns="http://www.w3.org/2000/svg" width="24" height="24" viewBox="0 0 24 24" fill="none"><rect width="24" height="24" fill="none"/>
<path d="M12.3054 1.4204C12.0958 0.859866 11.3029 0.859867 11.0933 1.4204L9.93259 4.52456C9.84166 4.76774 9.61418 4.93301 9.35481 4.94435L6.04389 5.08902C5.44602 5.11515 5.20101 5.8692 5.66935 6.24176L8.26289 8.30491C8.46607 8.46653 8.55296 8.73395 8.48359 8.98413L7.59805 12.1777C7.43815 12.7544 8.07959 13.2204 8.57863 12.8901L11.3423 11.0611C11.5588 10.9178 11.8399 10.9178 12.0564 11.0611L14.8201 12.8901C15.3191 13.2204 15.9605 12.7544 15.8006 12.1777L14.9151 8.98413C14.8457 8.73395 14.9326 8.46653 15.1358 8.30491L17.7293 6.24176C18.1977 5.8692 17.9527 5.11515 17.3548 5.08902L14.0439 4.94435C13.7845 4.93301 13.557 4.76774 13.4661 4.52456L12.3054 1.4204Z" fill="#000000"/>
<path d="M16.8173 14.1088L11.6914 13.7334C11.0628 13.6874 10.5274 14.185 10.5274 14.8153C10.5273 15.2976 10.8457 15.722 11.3087 15.8569L14.6678 16.8354C10.6238 17.1319 6.80962 16.4362 4.85056 15.9816C4.16407 15.8223 3.48047 16.339 3.48047 17.0437C3.48047 17.4062 3.6639 17.7402 3.97927 17.9189C5.86581 18.9884 12.8481 22.6267 20.5254 22.6267V19.6267L20.5252 19.5659V18.0984C20.5252 16.0026 18.9075 14.2619 16.8173 14.1088Z" fill="#000000"/>
</svg>
