<svg xmlns="http://www.w3.org/2000/svg" width="24" height="24" viewBox="0 0 24 24" fill="none"><rect width="24" height="24" fill="none"/>
<path fill-rule="evenodd" clip-rule="evenodd" d="M15.0149 5.15577C14.7849 4.64898 14.4964 4.4015 14 4.4015V2.20077C15.4116 2.20077 16.312 3.08822 16.8041 4.17252C17.2654 5.18875 17.3931 6.41597 17.3931 7.42646C17.3931 8.62646 17.1043 9.75363 16.5302 10.6107C15.944 11.4858 15.0656 12.104 14 12.104L14 9.90332C14.3511 9.90332 14.6616 9.69122 14.9203 9.30496C15.1911 8.90069 15.3931 8.25848 15.3931 7.42646C15.3931 6.56297 15.2758 5.73061 15.0149 5.15577Z" fill="#000000"/>
<path fill-rule="evenodd" clip-rule="evenodd" d="M17.4633 15.7259C18.4643 16.2549 19.3615 16.9429 19.8817 17.5697C20.0838 17.8132 20.3408 18.1369 20.5537 18.5102C20.7654 18.8814 20.973 19.3775 21.0067 19.9486V22.0074H14V19.8067L18.9341 19.8242C18.8027 19.5363 18.6007 19.2897 18.4049 19.0538C18.112 18.7008 17.454 18.1623 16.5975 17.7097C15.7476 17.2606 14.8158 16.9544 14.0062 16.9544V14.7537C15.2192 14.7537 16.4557 15.1935 17.4633 15.7259Z" fill="#000000"/>
<path d="M10 22.0074L10 23.0001H12V1H10L10 2.25963C7.94782 2.65658 7.24294 5.0024 7.24294 7.38705C7.24294 9.70155 8.41994 11.5737 10 11.9749L10 14.7672C6.95147 14.9641 4.90067 16.5479 3.89443 17.8371C3.38359 18.4916 3.05006 19.0304 3 19.933V22.0074H10Z" fill="#000000"/>
</svg>
