<svg xmlns="http://www.w3.org/2000/svg" width="24" height="24" viewBox="0 0 24 24" fill="none"><rect width="24" height="24" fill="none"/>
<path d="M12 3C11.4696 3 10.9609 3.21071 10.5858 3.58579C10.2107 3.96086 10 4.46957 10 5C10 5.53043 10.2107 6.03914 10.5858 6.41421C10.9609 6.78929 11.4696 7 12 7C12.5304 7 13.0391 6.78929 13.4142 6.41421C13.7893 6.03914 14 5.53043 14 5C14 4.46957 13.7893 3.96086 13.4142 3.58579C13.0391 3.21071 12.5304 3 12 3ZM13 9.5C13.2652 9.5 13.5196 9.60536 13.7071 9.79289C13.8946 9.98043 14 10.2348 14 10.5V19.5H17V22H9V19.5H11.5V12H9V9.5H13Z" fill="#000000"/>
</svg>
