<svg xmlns="http://www.w3.org/2000/svg" width="16" height="16" viewBox="0 0 16 16" fill="none"><rect width="16" height="16" fill="none"/>
<path d="M8.71354 0V1.42857H12.7414C13.6242 1.42857 14.2957 2.22124 14.1506 3.092L14.0707 3.57143H1.92782L1.84792 3.092C1.70279 2.22124 2.37428 1.42857 3.25705 1.42857H7.28496V0H8.71354Z" fill="#000000"/>
<path fill-rule="evenodd" clip-rule="evenodd" d="M12.9992 5H2.99925L3.93392 13.7236C4.0117 14.4495 4.6243 15 5.35436 15H10.6441C11.3742 15 11.9868 14.4495 12.0646 13.7236L12.9992 5ZM6.21354 7.50438H7.28496V11.7901C7.28496 11.7901 7.28496 12.1475 6.74925 12.1475C6.21354 12.1475 6.21354 11.7901 6.21354 11.7901V7.50438ZM8.71354 7.50438H9.78496V11.7901C9.78496 11.7901 9.78496 12.1475 9.24925 12.1475C8.71354 12.1475 8.71354 11.7901 8.71354 11.7901V7.50438Z" fill="#000000"/>
</svg>
