<svg xmlns="http://www.w3.org/2000/svg" width="24" height="24" viewBox="0 0 24 24" fill="none"><rect width="24" height="24" fill="none"/>
<path d="M9.70902 10.5877H8.99703V12.6987H9.69414C10.3937 12.6987 10.8105 12.2995 10.8105 11.6148C10.8105 10.935 10.3937 10.5877 9.70902 10.5877Z" fill="#626B75"/>
<path fill-rule="evenodd" clip-rule="evenodd" d="M4.04146 5.80678L1 20H23L19.9585 5.80679C19.7327 4.75292 18.8014 4 17.7236 4H6.27643C5.19863 4 4.26729 4.75291 4.04146 5.80678ZM7 16.0089V9H10.2697C11.8624 9 12.9341 10.0171 12.9341 11.6098C12.9341 13.1876 11.7979 14.2567 10.1258 14.2567H8.99703V16.0089H7ZM15.0119 10.7483V9H16.997V10.7483L18 10.7522V12.2357L16.997 12.2318V14.0873C16.997 14.4395 17.1331 14.627 17.5598 14.627C17.6973 14.627 17.7891 14.5959 17.8679 14.5692C17.9141 14.5535 17.956 14.5393 18 14.5338V15.9479C17.9503 15.9581 17.8979 15.9722 17.8409 15.9875C17.676 16.032 17.4726 16.0868 17.185 16.0868C15.6271 16.0868 15.0119 15.6353 15.0119 14.5338V12.2318L14 12.2357V10.7522L15.0119 10.7483Z" fill="#626B75"/>
</svg>
