<svg xmlns="http://www.w3.org/2000/svg" width="24" height="24" viewBox="0 0 24 24" fill="none"><rect width="24" height="24" fill="none"/>
<path d="M19 2C19.5523 2 20 2.44772 20 3.00001V21.6948C20 21.9491 19.7032 22.0881 19.5078 21.9252L17.333 20.1127L15.4346 21.6948C14.9896 22.0656 14.3435 22.0656 13.8984 21.6948L12 20.1127L10.1016 21.6948C9.65655 22.0656 9.01044 22.0656 8.56543 21.6948L6.66699 20.1127L4.49219 21.9252C4.29679 22.0881 4 21.9491 4 21.6948V3.00001C4 2.44772 4.44772 2 5 2H19ZM10.5 12.5001L8.5 10.5001L7 12.0001L10.5 15.5001L17 9.00007L15.5 7.50006L10.5 12.5001Z" fill="#000000"/>
</svg>
