<svg xmlns="http://www.w3.org/2000/svg" width="24" height="24" viewBox="0 0 24 24" fill="none"><rect width="24" height="24" fill="none"/>
<path d="M9.25 4C9.25 5.10457 8.35457 6 7.25 6C6.14543 6 5.25 5.10457 5.25 4C5.25 2.89543 6.14543 2 7.25 2C8.35457 2 9.25 2.89543 9.25 4Z" fill="#000000"/>
<path d="M6.41915 7C5.45258 7 4.62432 7.69125 4.45141 8.64223L2.75 18H5.25V22H9.25V18H11.75L10.0486 8.64223C9.87568 7.69125 9.04742 7 8.08085 7H6.41915Z" fill="#000000"/>
<path d="M15.6289 7C14.5728 7 13.6987 7.82117 13.6328 8.87524L13.25 15H15.25V22H19.25V15H21.25L20.8672 8.87524C20.8013 7.82117 19.9272 7 18.8711 7H15.6289Z" fill="#000000"/>
<path d="M17.25 6C18.3546 6 19.25 5.10457 19.25 4C19.25 2.89543 18.3546 2 17.25 2C16.1454 2 15.25 2.89543 15.25 4C15.25 5.10457 16.1454 6 17.25 6Z" fill="#000000"/>
</svg>
