<svg xmlns="http://www.w3.org/2000/svg" width="24" height="24" viewBox="0 0 24 24" fill="none"><rect width="24" height="24" fill="none"/>
<path fill-rule="evenodd" clip-rule="evenodd" d="M10 3.3444C10 2.67454 10.6457 2.1941 11.2873 2.38658L19.4299 4.82934C19.7683 4.93085 20 5.24231 20 5.5956V18.4051C20 18.7584 19.7683 19.0699 19.4299 19.1714L11.2873 21.6142C10.6457 21.8067 10 21.3262 10 20.6563V3.3444ZM14 12.0004C14 12.5527 13.5523 13.0004 13 13.0004C12.4477 13.0004 12 12.5527 12 12.0004C12 11.4481 12.4477 11.0004 13 11.0004C13.5523 11.0004 14 11.4481 14 12.0004Z" fill="#000000"/>
<path d="M5 5.00037C4.44772 5.00037 4 5.44808 4 6.00037V18.0004C4 18.5527 4.44772 19.0004 5 19.0004H8V5.00037H5Z" fill="#000000"/>
</svg>
