<svg xmlns="http://www.w3.org/2000/svg" width="16" height="16" viewBox="0 0 16 16" fill="none"><rect width="16" height="16" fill="none"/>
<path fill-rule="evenodd" clip-rule="evenodd" d="M14.8286 12.4887L3.52157 1.18164L2.55786 2.14535L4.45264 4.04013C2.71822 4.8721 1.30361 6.28502 0.5 8.00267C1.80475 10.7915 4.7202 12.7769 8 12.7769C9.47544 12.7769 10.8771 12.3751 12.0917 11.6791L13.8649 13.4524L14.8286 12.4887ZM10.2222 9.80967L9.14945 8.73694C8.90716 9.11571 8.4829 9.36679 8.00001 9.36679C7.24689 9.36679 6.63637 8.75607 6.63637 8.00272C6.63637 7.51983 6.88721 7.09555 7.26565 6.85314L6.19296 5.78044C5.54822 6.30569 5.13641 7.1061 5.13641 8.00272C5.13641 9.58476 6.4185 10.8673 8.00004 10.8673C8.8967 10.8673 9.69711 10.455 10.2222 9.80967Z" fill="#000000"/>
<path d="M15.5 8.00267C15.1839 8.67827 14.7733 9.30672 14.2859 9.87122C14.2483 9.91483 14.1816 9.9168 14.1408 9.87606L7.66714 3.4003C7.60619 3.33934 7.64582 3.23566 7.73198 3.23282C7.82102 3.22988 7.91036 3.2284 7.99997 3.2284C11.2798 3.2284 14.1953 5.21387 15.5 8.00267Z" fill="#000000"/>
</svg>
