<svg xmlns="http://www.w3.org/2000/svg" width="24" height="24" viewBox="0 0 24 24" fill="none"><rect width="24" height="24" fill="none"/>
<path d="M5.19862 8.10742L6.99144 6.3146L5.57722 4.90039L1.37012 9.1075L5.57722 13.3146L6.99144 11.9004L5.19847 10.1074L7.99669 10.1074C9.65354 10.1074 10.9967 11.4506 10.9967 13.1074L10.9967 20.1074L12.9967 20.1074L12.9967 13.1074C12.9967 11.4506 14.3398 10.1074 15.9967 10.1074L18.7949 10.1074L17.0019 11.9004L18.4161 13.3146L22.6233 9.1075L18.4161 4.90039L17.0019 6.3146L18.7948 8.10742L15.9967 8.10742C14.3611 8.10743 12.9089 8.89277 11.9967 10.1069C11.0845 8.89277 9.63229 8.10743 7.99669 8.10742L5.19862 8.10742Z" fill="#000000"/>
</svg>
