<svg xmlns="http://www.w3.org/2000/svg" width="24" height="24" viewBox="0 0 24 24" fill="none"><rect width="24" height="24" fill="none"/>
<path d="M8.84932 14.7534C8.84932 14.2192 8.76712 13.6986 8.64384 13.1644L8.59452 13H4V11H7.99048C7.6342 9.93973 7.30137 8.86623 7.30137 7.76712C7.30137 4.24658 10.0411 2 14.6986 2C16.4384 2 18.1507 2.30137 19 2.72603V5.69863C18.2466 5.30137 16.6712 5 15.1233 5C12.3425 5 10.7945 6.23288 10.7945 8.21918C10.7945 9.17756 11.0615 9.96182 11.3711 10.8712C11.3856 10.9138 11.4002 10.9568 11.4149 11H17V13H12.0066L12.0548 13.1644C12.1644 13.6438 12.2192 14.1233 12.2192 14.6164C12.2192 16.589 11.1918 18.1918 9.75342 19H20V22H5V19.2877C7.27397 18.8082 8.84932 16.9589 8.84932 14.7534Z" fill="#000000"/>
</svg>
