<svg xmlns="http://www.w3.org/2000/svg" width="24" height="24" viewBox="0 0 24 24" fill="none"><rect width="24" height="24" fill="none"/>
<path fill-rule="evenodd" clip-rule="evenodd" d="M14 2C14.8054 2 15.6605 2.12138 16.2695 2.73047C16.8785 3.33951 17 4.19459 17 5V5.99609H19.9932C21.6535 5.99629 22.9996 7.34179 23 9.00195V18.9941C22.9996 20.6543 21.6535 21.9998 19.9932 22H4.00781C2.34736 22 1.0004 20.6544 1 18.9941V9.00195C1.00036 7.34167 2.34733 5.99609 4.00781 5.99609H7V5C7.00002 4.19459 7.12149 3.33951 7.73047 2.73047C8.33953 2.12138 9.19463 2 10 2H14ZM3.01758 18.9941C3.01798 19.5403 3.46152 19.9824 4.00781 19.9824H19.9932C20.5393 19.9822 20.982 19.5402 20.9824 18.9941V13.7617H13.8613V14.6182C13.8613 15.1324 13.4449 15.5488 12.9307 15.5488H11.0693C10.5551 15.5488 10.1387 15.1324 10.1387 14.6182V13.7617H3.01758V18.9941ZM4.00781 8.01367C3.46149 8.01367 3.01794 8.45576 3.01758 9.00195V11.7441H20.9824V9.00195C20.9821 8.45588 20.5393 8.01387 19.9932 8.01367H4.00781ZM10 4C9.3054 4 9.16046 4.1286 9.14453 4.14453C9.12849 4.16059 9.00003 4.30573 9 5V5.99609H15V5C15 4.30573 14.8715 4.16059 14.8555 4.14453C14.8395 4.1286 14.6946 4 14 4H10Z" fill="#000000"/>
</svg>
