<svg xmlns="http://www.w3.org/2000/svg" width="24" height="24" viewBox="0 0 24 24" fill="none"><rect width="24" height="24" fill="none"/>
<path d="M8.00006 14H13.0001V12H8.00006V14Z" fill="#000000"/>
<path d="M16.0001 18L8.00006 18V16L16.0001 16V18Z" fill="#000000"/>
<path fill-rule="evenodd" clip-rule="evenodd" d="M11.5681 2C12.4472 2 13.2089 2.21553 13.8131 2.66888C14.4168 3.12182 14.77 3.74223 14.959 4.38433C15.1795 5.13357 15.1936 5.9673 15.1038 6.76716C15.9425 6.68238 16.8257 6.71321 17.6177 6.9919C18.2913 7.2289 18.9133 7.65089 19.3555 8.32864C19.7918 8.99745 20.0001 9.83383 20.0001 10.8149V22.0001C14.3334 22.0003 9.66668 22.0001 4 22.0001V2.00007L11.5681 2ZM6 3.99998V20C10.3334 19.9999 13.6667 20.0001 18.0001 20.0001V10.8149C18.0001 10.1108 17.8512 9.68325 17.6804 9.42148C17.5155 9.16864 17.2804 8.99339 16.9539 8.87852C16.2394 8.6271 15.1936 8.70432 14.0934 8.97172C13.7521 9.05469 13.3922 8.95246 13.1455 8.70241C12.8987 8.45237 12.8013 8.09119 12.8888 7.75097C13.1608 6.69296 13.249 5.65808 13.0404 4.94902C12.9432 4.61889 12.7958 4.40596 12.6128 4.26862C12.4303 4.1317 12.1193 4 11.5681 4L6 3.99998Z" fill="#000000"/>
</svg>
