<svg xmlns="http://www.w3.org/2000/svg" width="16" height="16" viewBox="0 0 16 16" fill="none"><rect width="16" height="16" fill="none"/>
<path d="M14.5 0.8C14.5 0.358172 14.1362 0 13.6875 0H5.5625C5.11377 0 4.75 0.358172 4.75 0.8V1.6H12.0625C12.5112 1.6 12.875 1.95817 12.875 2.4V12.8H13.6875C14.1362 12.8 14.5 12.4418 14.5 12V0.8Z" fill="#000000"/>
<path d="M10.4375 3.2C10.8862 3.2 11.25 3.55817 11.25 4V15.2C11.25 15.6418 10.8862 16 10.4375 16H2.3125C1.86377 16 1.5 15.6418 1.5 15.2V4C1.5 3.55817 1.86377 3.2 2.3125 3.2H10.4375Z" fill="#000000"/>
</svg>
