<svg xmlns="http://www.w3.org/2000/svg" width="16" height="16" viewBox="0 0 16 16" fill="none"><rect width="16" height="16" fill="none"/>
<path d="M2.6 5.71429H4.40484L7.00382 4.11266C7.4208 3.82941 8 4.11287 8 4.60019V11.3998C8 11.8871 7.4208 12.1706 7.00382 11.8873L4.40484 10.2857H2.6C2.26863 10.2857 2 10.0299 2 9.71429V6.28571C2 5.97012 2.26863 5.71429 2.6 5.71429Z" fill="#000000"/>
<path d="M13.1498 10.2853L11.6002 8.80962L10.0502 10.2857L9.2 9.4761L10.75 8L9.2 6.5239L10.0502 5.71429L11.6002 7.19038L13.1498 5.71465L14 6.52427L12.4504 8L14 9.47572L13.1498 10.2853Z" fill="#000000"/>
</svg>
