<svg xmlns="http://www.w3.org/2000/svg" width="24" height="24" viewBox="0 0 24 24" fill="none"><rect width="24" height="24" fill="none"/>
<path fill-rule="evenodd" clip-rule="evenodd" d="M6 1C3.23858 1 1 3.23858 1 6V18C1 20.7614 3.23858 23 6 23H18C20.7614 23 23 20.7614 23 18V6C23 3.23858 20.7614 1 18 1H6ZM16.0671 5C14.9762 5 13.9939 5.66051 13.5823 6.6708L13.4832 6.914C13.4249 6.91189 13.3664 6.91083 13.3076 6.91083H9.48718C6.84974 6.91083 4.71167 9.04889 4.71167 11.6863C4.71167 12.2833 4.82122 12.8548 5.02132 13.3816L6.62232 18H8.63851V16.1429C10.1242 16.5143 11.2385 16.5143 13.0957 16.5143V18H15.2179L16.1732 15.0279L17.6044 13.5967C17.7005 13.5967 17.8003 13.5955 17.9003 13.5934C18.5723 13.5795 19.1289 13.0844 19.259 12.425L19.6939 10.2196C19.7392 9.99008 19.5635 9.77634 19.3295 9.77634H17.6858C17.3358 8.97508 16.7722 8.28844 16.0671 7.78834V5ZM15.6957 9.77634C15.6957 10.1866 15.3631 10.5192 14.9528 10.5192C14.5425 10.5192 14.2099 10.1866 14.2099 9.77634C14.2099 9.36607 14.5425 9.03348 14.9528 9.03348C15.3631 9.03348 15.6957 9.36607 15.6957 9.77634Z" fill="#000000"/>
</svg>
