<svg xmlns="http://www.w3.org/2000/svg" width="16" height="16" viewBox="0 0 16 16" fill="none"><rect width="16" height="16" fill="none"/>
<path d="M4.64911 5.46607C5.41652 4.45357 6.63125 3.8 8 3.8C9.33259 3.8 10.5192 4.41875 11.2893 5.38839L9.8 5.6V6.8H14V2.6H12.8L12.5817 4.12679C11.7982 3.2 10.7402 2.51696 9.53348 2.19821C9.04464 2.06964 8.53036 2 8 2C4.68661 2 2 4.68661 2 8H3.8C3.8 7.04911 4.11607 6.17054 4.64911 5.46607Z" fill="#000000"/>
<path d="M8 12.2C10.3196 12.2 12.2 10.3196 12.2 8H14C14 11.3134 11.3134 14 8 14C6.1625 14 4.5192 13.175 3.4183 11.8732L3.2 13.4H2V9.2H6.2V10.4L4.71071 10.6116C5.4808 11.5813 6.66741 12.2 8 12.2Z" fill="#000000"/>
</svg>
