<svg xmlns="http://www.w3.org/2000/svg" width="48" height="48" viewBox="0 0 48 48" fill="none"><rect width="48" height="48" fill="none"/>
<path d="M24.0028 4C12.3345 4 4 9.83415 4 20.6689C4 31.5038 12.3345 37.2898 22.3359 37.2898V41.5552C22.3359 42.4003 22.3359 42.823 22.6002 43.2346C22.7856 43.5233 23.2277 43.8489 23.5583 43.9403C24.0298 44.0707 24.3418 43.9739 24.9659 43.7801C34.0042 40.6717 44.0055 31.5038 44.0055 20.6689C44.0055 9.83415 35.671 4 24.0028 4ZM29.0039 23.9961H12V19.9961H29.0039L24.0039 14.9961L27.0039 11.9961L36.0039 21.9961L27 32L24 29L29.0039 23.9961Z" fill="#000000"/>
</svg>
