<svg xmlns="http://www.w3.org/2000/svg" width="24" height="24" viewBox="0 0 24 24" fill="none"><rect width="24" height="24" fill="none"/>
<path fill-rule="evenodd" clip-rule="evenodd" d="M11.277 8.21053V12C11.277 12.7952 11.6463 13.5439 12.2739 14.0211L14.4339 15.4526L15.4308 14.1053L13.2708 12.6737C13.0616 12.5146 12.9385 12.2651 12.9385 12V8.21053H11.277Z" fill="#000000"/>
<path d="M12.1077 18.3158C15.5489 18.3158 18.3385 15.4881 18.3385 12C18.3385 8.51189 15.5489 5.68421 12.1077 5.68421C8.66658 5.68421 5.87697 8.51189 5.87697 12H4.21543C4.21543 7.58172 7.74894 4 12.1077 4C16.4665 4 20 7.58172 20 12C20 16.4183 16.4665 20 12.1077 20C9.43671 20 7.07559 18.655 5.64756 16.5968C5.64404 16.704 5.63518 16.8228 5.61856 16.9543L5.46159 18.7368H3.80005V13.6842L8.78466 13.6842V15.3684L6.94035 15.5301C8.05997 17.2107 9.95654 18.3158 12.1077 18.3158Z" fill="#000000"/>
</svg>
