<svg xmlns="http://www.w3.org/2000/svg" width="25" height="25" viewBox="0 0 25 25" fill="none"><rect width="25" height="25" fill="none"/>
<path d="M9.7728 14.0249H8.4561L9.04413 11.7212H9.18473L9.7728 14.0249Z" fill="#8A8A8E"/>
<path d="M15.8081 15.562C15.2629 15.562 14.9406 15.1133 14.9406 14.3607C14.9406 13.6127 15.2677 13.1593 15.8081 13.1593C16.3532 13.1593 16.6803 13.6127 16.6803 14.3653C16.6803 15.118 16.3579 15.562 15.8081 15.562Z" fill="#8A8A8E"/>
<path fill-rule="evenodd" clip-rule="evenodd" d="M4.15571 6.74477L1.11426 20.938H23.1143L20.0728 6.74478C19.847 5.6909 18.9156 4.93799 17.8378 4.93799H6.39069C5.31289 4.93799 4.38155 5.6909 4.15571 6.74477ZM7.8305 9.93799L5.61472 16.938H7.71252L8.08443 15.481H10.1445L10.5164 16.938H12.6142L10.3983 9.93799H7.8305ZM15.7322 19.13C17.5003 19.13 18.6143 18.3306 18.6143 16.8289V11.7083H16.7182V12.6077H16.6234C16.3627 12.028 15.7844 11.6821 15.0876 11.6821C13.7508 11.6821 12.9497 12.6918 12.9497 14.37C12.9497 15.95 13.7508 16.9364 15.0354 16.9364C15.7986 16.9364 16.3247 16.6652 16.576 16.1323H16.6708V17.2087C16.6708 17.6528 16.3532 17.9052 15.7938 17.9052C15.334 17.9052 15.007 17.7556 14.9548 17.5172H13.0872C13.1346 18.4849 14.1869 19.13 15.7322 19.13Z" fill="#8A8A8E"/>
</svg>
