<svg xmlns="http://www.w3.org/2000/svg" width="24" height="24" viewBox="0 0 24 24" fill="none"><rect width="24" height="24" fill="none"/>
<path d="M12 14.0001C13.1046 14.0001 14 13.1047 14 12.0001C14 10.8955 13.1046 10.0001 12 10.0001C10.8955 10.0001 10 10.8955 10 12.0001C10 13.1047 10.8955 14.0001 12 14.0001Z" fill="#000000"/>
<path fill-rule="evenodd" clip-rule="evenodd" d="M1 12.0001C2.91363 7.9111 7.18958 5 12 5C16.8103 5 21.0864 7.9111 23 12.0001C21.0864 16.089 16.8104 19.0001 12 19.0001C7.18963 19.0001 2.91363 16.089 1 12.0001ZM16.2001 12.0001C16.2001 14.3197 14.3197 16.2001 12.0001 16.2001C9.68047 16.2001 7.80007 14.3197 7.80007 12.0001C7.80007 9.68052 9.68047 7.80011 12.0001 7.80011C14.3197 7.80011 16.2001 9.68052 16.2001 12.0001Z" fill="#000000"/>
</svg>
