<svg xmlns="http://www.w3.org/2000/svg" width="48" height="48" viewBox="0 0 48 48" fill="none"><rect width="48" height="48" fill="none"/>
<path d="M42 22.1837V16.8787C42 15.807 41.1319 14.9389 40.0602 14.9389H35.0026C33.9309 14.9389 33.0628 14.0707 33.0628 12.999V7.93989C33.0615 6.86815 32.1934 6 31.1217 6H24.4419C14.6942 6 6.38186 13.5649 6.01311 23.3054C5.62643 33.5464 13.844 42 24.0002 42H35.5903C36.662 42 37.5301 41.1319 37.5301 40.0601V34.7552C37.5301 33.6834 36.662 32.8153 35.5903 32.8153H24.3113C19.6212 32.8153 15.5201 29.2851 15.2064 24.605C14.8619 19.473 18.94 15.1873 24.0002 15.1873H30.8733C31.945 15.1873 32.8131 16.0554 32.8131 17.1272V22.185C32.8131 23.2567 33.6812 24.1248 34.7529 24.1248H40.0576C41.1293 24.1248 41.9974 23.2567 41.9974 22.185L42 22.1837Z" fill="#64E34B"/>
</svg>
