<svg xmlns="http://www.w3.org/2000/svg" width="24" height="24" viewBox="0 0 24 24" fill="none"><rect width="24" height="24" fill="none"/>
<path fill-rule="evenodd" clip-rule="evenodd" d="M3.41418 2L22 20.5858L20.5858 22L17.5858 19H9.99997V22H6.49997V19H3.99997V17H6.49997V15H3.99997V13H6.49997V7.91421L2 3.41424L3.41418 2ZM13.5858 15H9.99997V17H15.5858L13.5858 15Z" fill="#000000"/>
<path d="M6.2424 2L9.2424 5H13.0776C15.6831 5 17 6.37598 17 8.5C17 9.77586 16.5323 10.769 15.6086 11.3662L17.9593 13.7169C19.5571 12.5428 20.5 10.6627 20.5 8.5C20.5 4.81836 17.9087 2 13.9721 2H6.2424Z" fill="#000000"/>
</svg>
