<svg xmlns="http://www.w3.org/2000/svg" width="24" height="24" viewBox="0 0 24 24" fill="none"><rect width="24" height="24" fill="none"/>
<path d="M19.3613 17C18.5025 19.9002 17.0793 20.9865 17.0615 21H6.93848C6.9207 20.9865 5.49749 19.9002 4.63867 17H19.3613ZM19.5605 8.02148C19.8242 9.17231 20 10.5434 20 12.1582C20 13.2148 19.9243 14.1589 19.7988 15H4.20117C4.07574 14.1589 4.00001 13.2148 4 12.1582C4 10.5434 4.17582 9.17231 4.43945 8.02148H19.5605ZM17.0615 3C17.0759 3.01241 18.1091 3.91087 18.9463 6.02148H5.05371C5.8909 3.91087 6.92412 3.01241 6.93848 3H17.0615Z" fill="#000000"/>
</svg>
