<svg xmlns="http://www.w3.org/2000/svg" width="24" height="24" viewBox="0 0 24 24" fill="none"><rect width="24" height="24" fill="none"/>
<path fill-rule="evenodd" clip-rule="evenodd" d="M12.7799 3.6295C14.5398 1.86964 17.3931 1.86959 19.1531 3.62938C20.9132 5.38932 20.9132 8.24291 19.1532 10.0029L11.7323 17.4236C10.6761 18.4798 8.96364 18.4799 7.90732 17.4237C6.85086 16.3674 6.85079 14.6547 7.90716 13.5983L14.8121 6.69335L16.0849 7.96614L9.17995 14.8711C8.82657 15.2245 8.82659 15.7975 9.18 16.1508C9.53337 16.5041 10.1062 16.5041 10.4596 16.1508L17.8804 8.7301C18.9375 7.67306 18.9375 5.95923 17.8804 4.90223C16.8233 3.84532 15.1097 3.84535 14.0527 4.9023L6.63854 12.3163C4.87336 14.0815 4.87335 16.9434 6.63852 18.7085C8.40366 20.4736 11.2655 20.4737 13.0306 18.7085L16.124 15.6152C17.3499 14.3893 18.8445 13.4656 20.4892 12.9174L21.0584 14.625C19.6788 15.0849 18.4251 15.8597 17.3968 16.888L14.3034 19.9813C11.8353 22.4494 7.83381 22.4494 5.36573 19.9813C2.89761 17.5132 2.89762 13.5116 5.36576 11.0435L12.7799 3.6295Z" fill="#000000"/>
</svg>
