<svg xmlns="http://www.w3.org/2000/svg" width="24" height="24" viewBox="0 0 24 24" fill="none"><rect width="24" height="24" fill="none"/>
<path d="M4 2C3.44772 2 3 2.44772 3 3V21C3 21.5523 3.44772 22 4 22H12.3204C12.2985 21.7069 12.3267 21.3988 12.4144 21.0824L12.8008 19.6888L11.6691 18.7885C9.77245 17.2797 10.7647 14.226 13.1859 14.1202L14.6307 14.0571L15.1372 12.7025C15.7673 11.0174 17.6991 10.5832 19 11.4V9.81496C19 8.0401 17.4675 6.65325 15.7015 6.82985L14.2432 6.97568C14.1175 6.98825 14.0117 6.88251 14.0243 6.75677L14.1701 5.29851C14.3468 3.53245 12.9599 2 11.185 2H4Z" fill="black"/>
<path d="M17.126 13.4475C17.2858 13.0201 17.8904 13.0201 18.0502 13.4475L18.9354 15.8147C19.0047 16.0001 19.1782 16.1262 19.376 16.1348L21.9008 16.2451C22.3567 16.2651 22.5436 16.8401 22.1864 17.1242L20.2086 18.6975C20.0537 18.8207 19.9874 19.0247 20.0403 19.2154L20.7156 21.6508C20.8376 22.0905 20.3484 22.4459 19.9679 22.1941L17.8604 20.7993C17.6953 20.69 17.4809 20.69 17.3158 20.7993L15.2083 22.1941C14.8278 22.4459 14.3386 22.0905 14.4606 21.6508L15.1358 19.2154C15.1887 19.0247 15.1225 18.8207 14.9675 18.6975L12.9898 17.1242C12.6326 16.8401 12.8195 16.2651 13.2754 16.2451L15.8002 16.1348C15.998 16.1262 16.1715 16.0001 16.2408 15.8147L17.126 13.4475Z" fill="black"/>
</svg>
