<svg xmlns="http://www.w3.org/2000/svg" width="16" height="16" viewBox="0 0 16 16" fill="none"><rect width="16" height="16" fill="none"/>
<path fill-rule="evenodd" clip-rule="evenodd" d="M1.59961 0.8C1.59961 0.358176 1.95779 0 2.39961 0H8.14761C9.56753 0 10.677 1.22596 10.5357 2.63881L10.419 3.80542C10.409 3.90601 10.4936 3.9906 10.5942 3.98054L11.7608 3.86388C13.1736 3.7226 14.3996 4.83208 14.3996 6.25197V15.2C14.3996 15.6418 14.0414 16 13.5996 16H2.39961C1.95779 16 1.59961 15.6418 1.59961 15.2V0.8ZM7.95457 11.4276L6.0886 13.6H4.30381L7.06209 10.3639L4.38495 7.2H6.37707L8.04465 9.21016L9.75737 7.2H11.5782L8.93705 10.2828L11.6954 13.6H9.78441L7.95457 11.4276Z" fill="#000000"/>
</svg>
