<svg xmlns="http://www.w3.org/2000/svg" width="48" height="48" viewBox="0 0 48 48" fill="none"><rect width="48" height="48" fill="none"/>
<path d="M40 12V8H13.9048C10.6437 8 8 10.6436 8 13.9048V34H4V36.1905C4 38.2944 5.70558 40 7.80952 40H24L23.9999 34H12V13.9048C12 12.8528 12.8528 12 13.9048 12H40Z" fill="#000000"/>
<path fill-rule="evenodd" clip-rule="evenodd" d="M28 18C28 16.8954 28.8954 16 30 16H42C43.1045 16 44 16.8954 44 18V42C44 43.1046 43.1045 44 42 44H30C28.8954 44 28 43.1046 28 42V18ZM33 36H39V40H33V36Z" fill="#000000"/>
</svg>
