<svg xmlns="http://www.w3.org/2000/svg" width="24" height="24" viewBox="0 0 24 24" fill="none"><rect width="24" height="24" fill="none"/>
<path fill-rule="evenodd" clip-rule="evenodd" d="M19.9995 4C19.9995 2.89543 19.1041 2 17.9995 2L5.99951 2C4.89494 2 3.99951 2.89543 3.99951 4L3.99951 20C3.99951 21.1046 4.89494 22 5.99951 22L17.9995 22C19.1041 22 19.9995 21.1046 19.9995 20V4ZM11.9995 19C12.8279 19 13.4995 18.3284 13.4995 17.5C13.4995 16.6716 12.8279 16 11.9995 16C11.1711 16 10.4995 16.6716 10.4995 17.5C10.4995 18.3284 11.1711 19 11.9995 19ZM16.4995 11C17.1899 11 17.7495 11.5596 17.7495 12.25V17.75C17.7495 18.4404 17.1899 19 16.4995 19C15.8092 19 15.2495 18.4404 15.2495 17.75L15.2495 12.25C15.2495 11.5596 15.8092 11 16.4995 11ZM5.99951 6C5.99951 5.44772 6.44723 5 6.99951 5L16.9995 5C17.5518 5 17.9995 5.44772 17.9995 6L17.9995 8L5.99951 8L5.99951 6ZM7.49952 19C8.32792 19 8.99952 18.3284 8.99952 17.5C8.99952 16.6716 8.32792 16 7.49952 16C6.67112 16 5.99951 16.6716 5.99951 17.5C5.99951 18.3284 6.67112 19 7.49952 19ZM13.4995 12.5C13.4995 13.3284 12.8279 14 11.9995 14C11.1711 14 10.4995 13.3284 10.4995 12.5C10.4995 11.6716 11.1711 11 11.9995 11C12.8279 11 13.4995 11.6716 13.4995 12.5ZM8.99951 12.5C8.99951 13.3284 8.32791 14 7.49951 14C6.67111 14 5.99951 13.3284 5.99951 12.5C5.99951 11.6716 6.67111 11 7.49951 11C8.32791 11 8.99951 11.6716 8.99951 12.5Z" fill="#000000"/>
</svg>
