<svg xmlns="http://www.w3.org/2000/svg" width="24" height="24" viewBox="0 0 24 24" fill="none"><rect width="24" height="24" fill="none"/>
<path d="M2 7C2 5.89543 2.89543 5 4 5H18C19.1046 5 20 5.89543 20 7V8H2V7Z" fill="#000000"/>
<path d="M13.9996 10C13.3719 10.8357 13 11.8744 13 13V17H4C2.89543 17 2 16.1046 2 15V10H13.9996Z" fill="#000000"/>
<path d="M15.3638 12.3636L18.0002 15L21.6366 11.3636L20.3638 10.0908L18.0002 12.4544L16.6366 11.0908L15.3638 12.3636Z" fill="#000000"/>
<path d="M18.0002 20L15.3638 17.3636L16.6366 16.0908L18.0002 17.4544L20.3638 15.0908L21.6366 16.3636L18.0002 20Z" fill="#000000"/>
</svg>
