<svg xmlns="http://www.w3.org/2000/svg" width="24" height="24" viewBox="0 0 24 24" fill="none"><rect width="24" height="24" fill="none"/>
<path fill-rule="evenodd" clip-rule="evenodd" d="M11.0325 2.9834C9.37568 2.9834 8.03253 4.32654 8.03253 5.9834V6.98097H10.0325V5.9834C10.0325 5.43111 10.4802 4.9834 11.0325 4.9834H11.168C11.7202 4.9834 12.168 5.43111 12.168 5.9834V7.94842C12.168 8.28278 12.0009 8.59501 11.7227 8.78047L1.86344 15.372C1.31425 15.7381 0.984375 16.3545 0.984375 17.0145C0.984375 18.6428 2.30433 19.9627 3.93257 19.9627H20.0643C21.6938 19.9627 23.0147 18.6418 23.0147 17.0124C23.0147 16.355 22.6877 15.7408 22.1424 15.3738L13.6386 9.65017C13.9785 9.15663 14.168 8.56507 14.168 7.94842V5.9834C14.168 4.32654 12.8248 2.9834 11.168 2.9834H11.0325ZM12.0307 10.9788L2.98447 17.0283C2.99185 17.5457 3.4135 17.9627 3.93257 17.9627H20.0643C20.5848 17.9627 21.0076 17.5443 21.0146 17.0255L12.0307 10.9788Z" fill="#000000"/>
</svg>
