<svg xmlns="http://www.w3.org/2000/svg" width="24" height="24" viewBox="0 0 24 24" fill="none"><rect width="24" height="24" fill="none"/>
<path fill-rule="evenodd" clip-rule="evenodd" d="M23 4.289L18.0906 14.4231C17.884 14.8496 17.4856 15.1506 17.0195 15.2323C16.5535 15.3141 16.0767 15.1665 15.7379 14.8356L13.3609 12.5148L10.8208 17.678C10.6169 18.0926 10.2309 18.3874 9.77796 18.4747C9.32501 18.562 8.85741 18.4316 8.51457 18.1224L6.05971 15.9085L3.6644 21L1 19.7414L4.24013 12.8541C4.43875 12.4319 4.82495 12.1288 5.28156 12.0366C5.73818 11.9445 6.21138 12.0742 6.55759 12.3864L9.03901 14.6243L11.6154 9.38726C11.8238 8.96346 12.2222 8.66532 12.6869 8.58529C13.1516 8.50526 13.6265 8.65303 13.9642 8.98277L16.3319 11.2945L20.3501 3L23 4.289Z" fill="#000000"/>
</svg>
