<svg xmlns="http://www.w3.org/2000/svg" width="24" height="24" viewBox="0 0 24 24" fill="none"><rect width="24" height="24" fill="none"/>
<path fill-rule="evenodd" clip-rule="evenodd" d="M3.70898 2.29492L21.707 20.293L20.293 21.707L18.3281 19.7422C16.6043 21.1529 14.4013 22 12 22C6.47715 22 2 17.5228 2 12C2 9.59769 2.847 7.39315 4.25879 5.66895L2.29688 3.70703L3.70898 2.29492ZM7.82715 9.23828C7.30223 10.0298 6.99609 10.9791 6.99609 12C6.99609 14.7636 9.23642 17.0039 12 17.0039C13.0203 17.0039 13.9685 16.6972 14.7598 16.1729L7.82715 9.23828Z" fill="#000000"/>
<path d="M12 2C17.5228 2 22 6.47715 22 12C22 13.6688 21.5893 15.241 20.8662 16.624L16.9521 12.71C16.9852 12.478 17.0039 12.2411 17.0039 12C17.0039 9.23642 14.7636 6.99609 12 6.99609C11.7586 6.99609 11.5213 7.01386 11.2891 7.04688L7.37402 3.13184C8.75734 2.40874 10.331 2 12 2Z" fill="#000000"/>
</svg>
