<svg xmlns="http://www.w3.org/2000/svg" width="24" height="24" viewBox="0 0 24 24" fill="none"><rect width="24" height="24" fill="none"/>
<path d="M14.7031 4.79468L17.0838 2.41391C17.8649 1.63286 19.1312 1.63286 19.9123 2.41391L21.3265 3.82812C22.1075 4.60917 22.1075 5.8755 21.3265 6.65655L19.0373 8.94574C19.6531 10.1641 20 11.5415 20 13C20 17.9706 15.9706 22 11 22C6.02944 22 2 17.9706 2 13C2 8.02944 6.02944 4 11 4C12.32 4 13.5736 4.28417 14.7031 4.79468ZM18.498 3.82812L16.4721 5.85407C17.0029 6.26117 17.4871 6.72609 17.9152 7.23942L19.9123 5.24234L18.498 3.82812ZM14.6401 8.63443L11.8884 9.93673C11.6728 10.0388 11.4229 10.0046 11.2535 9.85011L9.09188 7.87741C8.70154 7.52118 8.05617 7.86061 8.1053 8.39629L8.37735 11.3628C8.39867 11.5952 8.27829 11.8241 8.07161 11.9441L5.43334 13.4766C4.95693 13.7534 5.0531 14.4582 5.58035 14.5541L8.50019 15.0852C8.72893 15.1268 8.90448 15.3023 8.94609 15.5311L9.47719 18.4509C9.5731 18.9782 10.2779 19.0743 10.5546 18.5979L12.0871 15.9596C12.2072 15.753 12.4361 15.6326 12.6685 15.6539L15.635 15.926C16.1706 15.9751 16.5101 15.3297 16.1538 14.9394L14.1811 12.7777C14.0266 12.6084 13.9925 12.3584 14.0945 12.1429L15.3968 9.39118C15.632 8.89429 15.137 8.39926 14.6401 8.63443Z" fill="#000000"/>
</svg>
