<svg xmlns="http://www.w3.org/2000/svg" width="24" height="24" viewBox="0 0 24 24" fill="none"><rect width="24" height="24" fill="none"/>
<path d="M16.031 13.2698C16.031 12.4783 15.7906 12.0004 15.2355 12.0004C14.6853 12.0004 14.3572 12.4783 14.3572 13.265C14.3572 14.0566 14.6805 14.5296 15.2355 14.5296C15.7954 14.5296 16.031 14.0614 16.031 13.2698Z" fill="#96A5A5"/>
<path d="M7.99703 10.5877H8.70902C9.39372 10.5877 9.8105 10.935 9.8105 11.6148C9.8105 12.2995 9.39372 12.6987 8.69414 12.6987H7.99703V10.5877Z" fill="#96A5A5"/>
<path fill-rule="evenodd" clip-rule="evenodd" d="M4.04146 5.80678L1 20H23L19.9585 5.80679C19.7327 4.75292 18.8014 4 17.7236 4H6.27643C5.19863 4 4.26729 4.75291 4.04146 5.80678ZM15.9731 15.1378L15.961 15.1565C15.6765 15.599 15.3833 16.0548 14.6361 16.0548C13.2895 16.0548 12.4883 15.0074 12.4883 13.2505C12.4883 11.5081 13.2895 10.4752 14.6409 10.4752C15.3553 10.4752 15.743 10.9926 15.9248 11.4309H16.0213L16.0213 8.41846H18.0003V15.9776H16.0696V15.1378H15.9731ZM6 9V16.0089H7.99703V14.2567H9.1258C10.7979 14.2567 11.9341 13.1876 11.9341 11.6098C11.9341 10.0171 10.8624 9 9.26968 9H6Z" fill="#96A5A5"/>
</svg>
