<svg xmlns="http://www.w3.org/2000/svg" width="16" height="16" viewBox="0 0 16 16" fill="none"><rect width="16" height="16" fill="none"/>
<path d="M0 10.3333V5.63528C0 5.25341 0.0385334 5.00746 0.30581 4.73743C0.573086 4.46741 1.04721 4.5 1.4252 4.5H3.36836C3.36836 4.5 6.75881 1.44016 7.14066 1.19707C7.52251 0.953983 7.97724 0.949501 8.34144 1.10868C8.7196 1.27395 9.00015 1.61568 9.00015 2.04994V13.9494L9 13.967C8.99255 14.3929 8.71449 14.7277 8.34144 14.8907C7.97724 15.0499 7.52251 15.0454 7.14066 14.8023C6.75881 14.5592 3.36836 11.5246 3.36836 11.5246H1.4252C1.04721 11.5246 0.573086 11.5036 0.30581 11.2336C0.0385336 10.9636 0 10.7152 0 10.3333Z" fill="#000000"/>
<path d="M13.2933 11.9225L14.6031 12.8125C15.4833 11.4506 16 9.7909 16 8C16 6.2091 15.4833 4.5494 14.6031 3.1875L13.2933 4.07752C14.0263 5.1804 14.4583 6.53535 14.4583 8C14.4583 9.46465 14.0263 10.8196 13.2933 11.9225Z" fill="#000000"/>
<path d="M10.7502 5.86234C11.1925 6.44257 11.4583 7.18753 11.4583 8C11.4583 8.81253 11.1924 9.55755 10.7501 10.1378L12.0653 11.0315C12.652 10.1886 13 9.1385 13 8C13 6.86157 12.652 5.81149 12.0654 4.96865L10.7502 5.86234Z" fill="#000000"/>
</svg>
