<svg xmlns="http://www.w3.org/2000/svg" width="24" height="24" viewBox="0 0 24 24" fill="none"><rect width="24" height="24" fill="none"/>
<path d="M8 5C8 3.89543 8.89543 3 10 3H14C15.1046 3 16 3.89543 16 5V6.99951H20C21.1046 6.99951 22 7.89494 22 8.99951V10.9995V12.9995V18.9995C22 20.1041 21.1046 20.9995 20 20.9995H4C2.89543 20.9995 2 20.1041 2 18.9995V12.9995V10.9995V8.99951C2 7.89494 2.89543 6.99951 4 6.99951H8V5ZM14 5H10V6.99951H14V5ZM14.0586 17.9072C15.8018 17.9072 16.8564 16.4814 16.8564 14.2061V14.1963C16.8564 11.916 15.8018 10.5 14.0586 10.5C12.3203 10.5 11.2607 11.916 11.2607 14.1963V14.2061C11.2607 16.4814 12.3203 17.9072 14.0586 17.9072ZM14.0586 16.7402C13.2285 16.7402 12.7549 15.7979 12.7549 14.2061V14.1963C12.7549 12.5996 13.2285 11.667 14.0586 11.667C14.8936 11.667 15.3672 12.5996 15.3672 14.1963V14.2061C15.3672 15.7979 14.8936 16.7402 14.0586 16.7402ZM8.95508 17.7266H10.4297V10.6807H8.95996L7.13867 11.9453V13.2734L8.86719 12.0723H8.95508V17.7266Z" fill="#000000"/>
</svg>
