<svg xmlns="http://www.w3.org/2000/svg" width="24" height="24" viewBox="0 0 24 24" fill="none"><rect width="24" height="24" fill="none"/>
<path d="M8.06357 21.2004C16.0596 21.2004 20.4331 14.1592 20.4331 8.05316C20.4331 7.85317 20.4331 7.65408 20.4204 7.45589C21.2712 6.80178 22.0057 5.99187 22.5894 5.06409C21.7959 5.43777 20.9543 5.68283 20.0924 5.79109C21 5.21362 21.6792 4.30536 22.0037 3.23533C21.1503 3.77356 20.2167 4.15288 19.2431 4.35691C18.5877 3.61611 17.7208 3.12558 16.7766 2.96121C15.8324 2.79684 14.8635 2.96781 14.02 3.44765C13.1764 3.92749 12.5051 4.68945 12.1101 5.61563C11.715 6.54181 11.6181 7.58057 11.8344 8.57116C10.106 8.47906 8.41514 8.00166 6.87157 7.16994C5.32799 6.33823 3.96623 5.17079 2.87469 3.74342C2.31876 4.76064 2.14848 5.96483 2.39854 7.1108C2.6486 8.25677 3.30019 9.25836 4.22065 9.91165C3.5288 9.88985 2.85204 9.69149 2.24748 9.33329C2.24748 9.35221 2.24748 9.37203 2.24748 9.39185C2.24776 10.4587 2.59521 11.4925 3.23091 12.3181C3.86661 13.1437 4.75142 13.7102 5.73527 13.9214C5.09524 14.1069 4.42371 14.134 3.77228 14.0007C4.05008 14.9188 4.59092 15.7217 5.31917 16.2971C6.04741 16.8724 6.92664 17.1914 7.83388 17.2096C6.29445 18.4955 4.39275 19.1936 2.4348 19.1915C2.0889 19.1908 1.74334 19.1685 1.3999 19.1248C3.38801 20.4808 5.70129 21.2001 8.06357 21.1968" fill="#000000"/>
</svg>
