<svg xmlns="http://www.w3.org/2000/svg" width="48" height="48" viewBox="0 0 48 48" fill="none"><rect width="48" height="48" fill="none"/>
<path fill-rule="evenodd" clip-rule="evenodd" d="M42 16.5C42 23.4033 36.4033 29 29.5 29C27.9141 29 26.3965 28.7041 25 28.165V37.5H19V44H12L8 39.5V35.5L19.0996 23.4355C17.7734 21.4512 17 19.0654 17 16.5C17 9.59668 22.5967 4 29.5 4C36.4033 4 42 9.59668 42 16.5ZM34 16.5C34 18.9854 31.9854 21 29.5 21C27.0146 21 25 18.9854 25 16.5C25 14.0146 27.0146 12 29.5 12C31.9854 12 34 14.0146 34 16.5Z" fill="#000000"/>
</svg>
