<svg xmlns="http://www.w3.org/2000/svg" width="16" height="16" viewBox="0 0 16 16" fill="none"><rect width="16" height="16" fill="none"/>
<path d="M2.00195 5.80597L10.2165 13.9984L10.5089 13.8268L10.5508 13.5906C10.7821 12.2856 11.257 11.2616 12.1965 10.3243L12.7331 9.78894C13.5491 8.97517 13.9984 7.88919 13.9984 6.73055C13.9984 4.28549 11.6985 2.00195 9.25708 2.00195C8.09531 2.00195 7.0064 2.45007 6.19044 3.26383L5.65351 3.79916C4.7138 4.73607 3.66119 5.18375 2.35273 5.41451L2.11631 5.4562L2.00195 5.80597Z" fill="#000000"/>
<path d="M3.40366 10.8101C3.40366 10.2874 3.63416 9.81852 3.99907 9.49957L6.45731 11.9512C6.1383 12.3182 5.66807 12.5501 5.14366 12.5501C4.18268 12.5501 3.40366 11.7711 3.40366 10.8101Z" fill="#000000"/>
</svg>
