<svg xmlns="http://www.w3.org/2000/svg" width="16" height="16" viewBox="0 0 16 16" fill="none"><rect width="16" height="16" fill="none"/>
<path d="M6.23242 12.3525C7.20867 13.3288 8.79125 13.3287 9.76758 12.3525L12.1211 10H15V13C15 14.1046 14.1046 15 13 15H3C1.89543 15 1 14.1046 1 13V10H3.87988L6.23242 12.3525Z" fill="#000000"/>
<path d="M10 5.99902H11.5859C12.4768 5.99903 12.9229 7.07707 12.293 7.70703L8.70801 11.292C8.31751 11.6824 7.68445 11.6824 7.29395 11.292L3.70898 7.70703C3.07902 7.07707 3.52511 5.99902 4.41602 5.99902H6V1H10V5.99902Z" fill="#000000"/>
</svg>
