<svg xmlns="http://www.w3.org/2000/svg" width="16" height="16" viewBox="0 0 16 16" fill="none"><rect width="16" height="16" fill="none"/>
<path d="M3.00107 4.71243C2.97901 4.48021 3.30468 4.35518 3.48419 4.52696L5.72002 6.66652L7.79734 4.08889C7.848 4.02963 7.924 4 8 4C8.076 4 8.152 4.02963 8.20267 4.08889L10.28 6.66652L12.5158 4.52696C12.6953 4.35518 13.021 4.48021 12.9989 4.71243L12.5 9.33319H3.5L3.00107 4.71243Z" fill="#000000"/>
<path d="M3.5 10.6667C3.5 10.4212 3.72386 10.2222 4 10.2222H12C12.2761 10.2222 12.5 10.4212 12.5 10.6667V11.5556C12.5 11.801 12.2761 12 12 12H4C3.72386 12 3.5 11.801 3.5 11.5556V10.6667Z" fill="#000000"/>
</svg>
