<svg xmlns="http://www.w3.org/2000/svg" width="16" height="16" viewBox="0 0 16 16" fill="none"><rect width="16" height="16" fill="none"/>
<path fill-rule="evenodd" clip-rule="evenodd" d="M7.48464 5.15789V8C7.48464 8.5964 7.76052 9.15794 8.22926 9.51579L9.84259 10.5895L10.5872 9.57895L8.97387 8.50526C8.81763 8.38596 8.72567 8.19882 8.72567 8V5.15789H7.48464Z" fill="#000000"/>
<path d="M8.10515 12.7368C10.6754 12.7368 12.759 10.6161 12.759 8C12.759 5.38391 10.6754 3.26316 8.10515 3.26316C5.5349 3.26316 3.45131 5.38391 3.45131 8H2.21028C2.21028 4.68629 4.8495 2 8.10515 2C11.3608 2 14 4.68629 14 8C14 11.3137 11.3608 14 8.10515 14C6.11013 14 4.34657 12.9913 3.27996 11.4476C3.27733 11.528 3.27071 11.6171 3.2583 11.7157L3.14105 13.0526H1.90002V9.26316L5.6231 9.26316V10.5263L4.24556 10.6476C5.08182 11.9081 6.49839 12.7368 8.10515 12.7368Z" fill="#000000"/>
</svg>
