<svg xmlns="http://www.w3.org/2000/svg" width="16" height="16" viewBox="0 0 16 16" fill="none"><rect width="16" height="16" fill="none"/>
<g clip-path="url(#clip0_18150_28)">
<path fill-rule="evenodd" clip-rule="evenodd" d="M16 8C16 12.4183 12.4183 16 8 16C3.58172 16 0 12.4183 0 8C0 3.58172 3.58172 0 8 0C12.4183 0 16 3.58172 16 8ZM8.90822 6.93333V12.2625H7.09852V6.93333H8.90822ZM8 5.86667C8.64203 5.86667 9.1625 5.3462 9.1625 4.70417C9.1625 4.06214 8.64203 3.54167 8 3.54167C7.35797 3.54167 6.8375 4.06214 6.8375 4.70417C6.8375 5.3462 7.35797 5.86667 8 5.86667Z" fill="#000000"/>
</g>
<defs>
<clipPath id="clip0_18150_28">
<rect width="16" height="16" fill="white"/>
</clipPath>
</defs>
</svg>
