<svg xmlns="http://www.w3.org/2000/svg" width="24" height="24" viewBox="0 0 24 24" fill="none"><rect width="24" height="24" fill="none"/>
<path d="M15.0002 8H17.277C15.777 6 14.1557 5 11.777 5C8.60598 5 6.00002 6.5 5.06688 12H3.00002C3.50002 6 7.49383 3 11.777 3C14.6043 3 17.2769 4.5 18.777 6.5L19.0002 4H21.0002V10H15.0002V8Z" fill="#000000"/>
<path d="M9 16H6.72316C8.22316 18 9.84441 19 12.2232 19C15.3942 19 18.0001 17.5 18.9333 12H21.0001C20.5001 18 16.5063 21 12.2232 21C9.39589 21 6.72329 19.5 5.22316 17.5L5 20H3V14H9V16Z" fill="#000000"/>
</svg>
