<svg xmlns="http://www.w3.org/2000/svg" width="48" height="48" viewBox="0 0 48 48" fill="none"><rect width="48" height="48" fill="none"/>
<path d="M29.3334 16.8889H33.3811C30.7145 13.3333 27.8323 11.5556 23.6034 11.5556C17.9661 11.5556 13.3333 14.2222 11.6744 24H8.00003C8.88891 13.3333 15.989 8 23.6034 8C28.6296 8 33.3809 10.6667 36.0477 14.2222L36.4445 9.77778H40V20.4444H29.3334V16.8889Z" fill="#000000"/>
<path d="M18.6666 31.1111H14.6189C17.2855 34.6667 20.1677 36.4444 24.3966 36.4444C30.0339 36.4444 34.6667 33.7778 36.3256 24H40C39.1111 34.6667 32.011 40 24.3966 40C19.3704 40 14.6191 37.3333 11.9523 33.7778L11.5555 38.2222H8V27.5556H18.6666V31.1111Z" fill="#000000"/>
</svg>
