<svg xmlns="http://www.w3.org/2000/svg" width="24" height="24" viewBox="0 0 24 24" fill="none"><rect width="24" height="24" fill="none"/>
<path fill-rule="evenodd" clip-rule="evenodd" d="M23.5001 9.49981C21.9899 7.9896 20.197 6.79164 18.2238 5.97432C16.2507 5.157 14.1358 4.73633 12.0001 4.73633C9.8643 4.73633 7.74946 5.157 5.77627 5.97432C3.80309 6.79164 2.01021 7.9896 0.5 9.49981L2.86362 11.8634C7.90949 6.81769 16.0904 6.81772 21.1362 11.8635C21.1362 11.8636 21.1362 11.8636 21.1363 11.8636L23.5001 9.49981ZM19.8635 13.1364C19.8635 13.1364 19.8634 13.1364 19.8634 13.1363C15.5205 8.79346 8.47934 8.79342 4.13641 13.1362L6.36362 15.3634C9.47649 12.2507 14.5234 12.2507 17.6362 15.3635L17.6363 15.3636L19.8635 13.1364ZM13.0607 19.9392L16.3635 16.6364L16.3634 16.6363C13.9535 14.2264 10.0463 14.2264 7.63641 16.6362L10.9394 19.9392C11.5252 20.525 12.4749 20.525 13.0607 19.9392Z" fill="#000000"/>
</svg>
