<svg xmlns="http://www.w3.org/2000/svg" width="24" height="24" viewBox="0 0 24 24" fill="none"><rect width="24" height="24" fill="none"/>
<path fill-rule="evenodd" clip-rule="evenodd" d="M18.2807 11.0417L17.6326 10.3967L21.9998 6.00847L20.5822 4.59766L16.215 8.98587L15.6076 8.38136C14.8727 7.65 13.7295 7.52448 12.8535 8.07898L11.9506 8.65044C11.7869 8.75403 11.6982 8.92569 11.6923 9.10117C11.6873 9.24842 11.7407 9.39837 11.8559 9.51304L17.1671 14.7988C17.4196 15.0501 17.8401 15.0019 18.0292 14.6999L18.5963 13.7943C18.8195 13.438 18.9308 13.0382 18.9351 12.6401C18.9412 12.0565 18.7176 11.4765 18.2807 11.0417ZM3.04868 15.3288C2.2641 14.2537 1.57824 13.1286 0.991211 11.9662C4.0128 12.6511 7.25183 12.1219 9.9317 10.3846L16.4232 16.7756C15.9564 17.6606 15.3679 18.4985 14.6576 19.2648L14.1555 19.7749C13.3946 20.5026 12.5591 21.1077 11.6741 21.5901C11.3224 21.7647 10.9192 21.8465 10.4995 21.8065C10.2088 21.7789 9.93682 21.6953 9.69328 21.5674C9.10006 21.1898 8.51952 20.7839 7.95354 20.3499C8.04304 20.3188 8.13413 20.2864 8.22676 20.2524C9.42827 19.8123 10.7128 18.8858 11.2049 18.4776C10.753 18.5927 9.54256 18.8252 8.31561 18.8348C7.56114 18.8407 6.86391 18.7494 6.34942 18.6493C5.97893 18.5548 5.67556 18.3634 5.38037 18.0719L5.39696 18.091C5.0802 17.7697 4.77414 17.4417 4.4788 17.1075C5.14375 16.8946 5.71989 16.6515 6.03252 16.5006C5.35204 16.3955 4.20974 16.196 3.38677 15.6588C3.26113 15.5613 3.14791 15.4504 3.04868 15.3288ZM9.86606 21.6764C9.81219 21.6415 9.75823 21.6074 9.70413 21.5743C9.75801 21.6086 9.81198 21.6426 9.86606 21.6764Z" fill="#000000"/>
</svg>
