<svg xmlns="http://www.w3.org/2000/svg" width="48" height="48" viewBox="0 0 48 48" fill="none"><rect width="48" height="48" fill="none"/>
<path d="M26.998 18.5618L18.7461 10.3099C20.4813 8.90253 21.9884 7.70178 22.3493 7.4786C23.3039 6.88824 24.4408 6.87736 25.3513 7.26393C26.2967 7.66532 26.998 8.49522 26.998 9.54986V18.5618Z" fill="#000000"/>
<path d="M38.8881 30.4518C39.6973 28.4735 40.1458 26.2921 40.1458 24C40.1458 20.443 39.0658 17.1524 37.2333 14.474L40.5078 12.3125C42.7082 15.62 44 19.6507 44 24C44 27.3882 43.2161 30.583 41.8294 33.3932L38.8881 30.4518Z" fill="#000000"/>
<path d="M32.4372 24C32.4372 22.0269 31.7726 20.2177 30.6668 18.8085L33.9549 16.6381C35.4215 18.685 36.2914 21.2352 36.2914 24C36.2914 25.1802 36.1329 26.3213 35.8371 27.4009L32.4372 24Z" fill="#000000"/>
<path d="M3.99805 18.2571V29.6667C3.99805 30.5941 4.09438 31.1972 4.76257 31.853C5.43076 32.5088 6.61607 32.5598 7.56104 32.5598H12.4189C12.4189 32.5598 21.3947 39.9295 22.3493 40.5199C23.3039 41.1103 24.4408 41.1211 25.3513 40.7346C26.2839 40.3386 26.979 39.5256 26.9977 38.4913L26.998 38.4487V29.8169L41.1811 44L43.998 41.1831L6.81495 4L3.99805 6.8169L12.5624 15.3813L12.4189 15.5H7.56104C7.47068 15.5 7.37813 15.4993 7.28405 15.4985C6.39413 15.4916 5.36687 15.4836 4.76257 16.0766C4.09438 16.7324 3.99805 17.3297 3.99805 18.2571Z" fill="#000000"/>
</svg>
