<svg xmlns="http://www.w3.org/2000/svg" width="24" height="24" viewBox="0 0 24 24" fill="none"><rect width="24" height="24" fill="none"/>
<path d="M10.5 8.0625C10.5 7.23407 11.1716 6.5625 12 6.5625C12.8284 6.5625 13.5 7.23407 13.5 8.0625C13.5 8.89093 12.8284 9.5625 12 9.5625C11.1716 9.5625 10.5 8.89093 10.5 8.0625Z" fill="#000000"/>
<path d="M18 11V13L6 13V11L18 11Z" fill="#000000"/>
<path d="M12 14.4375C11.1716 14.4375 10.5 15.1091 10.5 15.9375C10.5 16.7659 11.1716 17.4375 12 17.4375C12.8284 17.4375 13.5 16.7659 13.5 15.9375C13.5 15.1091 12.8284 14.4375 12 14.4375Z" fill="#000000"/>
</svg>
