<svg xmlns="http://www.w3.org/2000/svg" width="16" height="16" viewBox="0 0 16 16" fill="none"><rect width="16" height="16" fill="none"/>
<path fill-rule="evenodd" clip-rule="evenodd" d="M12.1886 4.23464L3.90572 4.99233C3.44583 5.05163 3.33333 5.32661 3.33333 5.66453V5.85169H12.6667C13.403 5.85169 14 6.45971 14 7.20974V12.6419C14 13.392 13.403 14 12.6667 14H3.33333C2.59695 14 2 13.392 2 12.6419V5.66453C2 4.65078 2.40417 3.81453 3.71716 3.64792L10.7397 3.00552C11.4462 2.9409 12.0786 3.4509 12.1789 4.16607L12.1886 4.23464ZM10 9.93363C10 10.6941 10.5943 11.2839 11.341 11.2839C12.0876 11.2839 12.6667 10.6941 12.6667 9.93363C12.6667 9.17312 12.0876 8.56781 11.341 8.56781C10.5943 8.56781 10 9.17312 10 9.93363Z" fill="#000000"/>
</svg>
