<svg xmlns="http://www.w3.org/2000/svg" width="24" height="24" viewBox="0 0 24 24" fill="none"><rect width="24" height="24" fill="none"/>
<path d="M13.4194 2.09382C13.426 2.08723 13.4367 2.08723 13.4433 2.09382L18.7524 7.40293C18.7526 7.40278 18.7526 7.40307 18.7524 7.40293C18.7523 7.40307 18.7523 7.40383 18.7524 7.40398C19.2336 7.92131 19.0392 8.76917 18.3701 9.02008L16.5979 9.68471C16.4643 9.73483 16.3429 9.81299 16.242 9.91392L14.7617 11.3941L20.4893 17.1217L19.159 18.4521L13.4314 12.7245L11.951 14.2049C11.85 14.3058 11.7719 14.4272 11.7218 14.5609L11.0572 16.3329C10.8063 17.002 9.95844 17.1964 9.4411 16.7152C9.44101 16.7152 9.44121 16.7152 9.4411 16.7152L9.41766 16.6927L9.41377 16.6889L4.29324 11.5684L4.28937 11.5645L4.13099 11.4061C4.12442 11.3995 4.12442 11.3888 4.13099 11.3823C4.13645 11.3768 4.13745 11.3683 4.13357 11.3616C3.83367 10.8462 4.05297 10.1485 4.64925 9.92491L5.94892 9.43757C6.08259 9.38745 6.20398 9.30928 6.30492 9.20834L11.2456 4.26768C11.3465 4.16673 11.4247 4.04534 11.4748 3.91167L11.9621 2.61214C12.1857 2.01589 12.8834 1.79658 13.3987 2.09641C13.4054 2.1003 13.414 2.0993 13.4194 2.09382Z" fill="#000000"/>
<path d="M4.42496 19L4.42496 21H13.425V19H4.42496Z" fill="#000000"/>
</svg>
