<svg xmlns="http://www.w3.org/2000/svg" width="16" height="16" viewBox="0 0 16 16" fill="none"><rect width="16" height="16" fill="none"/>
<path fill-rule="evenodd" clip-rule="evenodd" d="M3 1.5C3 1.22386 3.22386 1 3.5 1H12.5C12.7761 1 13 1.22386 13 1.5V12.3197C13 12.513 12.8885 12.6891 12.7137 12.7717L8.71369 14.6626C8.382 14.8194 8 14.5775 8 14.2106V13.0311C8 12.8476 7.809 12.7267 7.64316 12.8051L3.71369 14.6626C3.382 14.8194 3 14.5775 3 14.2106V1.5ZM5 5.5C5 5.22386 5.22386 5 5.5 5H10.5C10.7761 5 11 5.22386 11 5.5C11 5.77614 10.7761 6 10.5 6H5.5C5.22386 6 5 5.77614 5 5.5ZM5.5 7C5.22386 7 5 7.22386 5 7.5C5 7.77614 5.22386 8 5.5 8H8.5C8.77614 8 9 7.77614 9 7.5C9 7.22386 8.77614 7 8.5 7H5.5Z" fill="#000000"/>
</svg>
