<svg xmlns="http://www.w3.org/2000/svg" width="16" height="16" viewBox="0 0 16 16" fill="none"><rect width="16" height="16" fill="none"/>
<path d="M3.45455 2.90909C4.25787 2.90909 4.90909 2.25787 4.90909 1.45455C4.90909 0.651222 4.25787 0 3.45455 0C2.65122 0 2 0.651222 2 1.45455C2 2.25787 2.65122 2.90909 3.45455 2.90909Z" fill="#000000"/>
<path d="M3.45455 7.27273C4.25787 7.27273 4.90909 6.62151 4.90909 5.81818C4.90909 5.01486 4.25787 4.36364 3.45455 4.36364C2.65122 4.36364 2 5.01486 2 5.81818C2 6.62151 2.65122 7.27273 3.45455 7.27273Z" fill="#000000"/>
<path d="M4.90909 10.1818C4.90909 10.9851 4.25787 11.6364 3.45455 11.6364C2.65122 11.6364 2 10.9851 2 10.1818C2 9.3785 2.65122 8.72727 3.45455 8.72727C4.25787 8.72727 4.90909 9.3785 4.90909 10.1818Z" fill="#000000"/>
<path d="M7.81818 2.90909C8.62151 2.90909 9.27273 2.25787 9.27273 1.45455C9.27273 0.651222 8.62151 0 7.81818 0C7.01486 0 6.36364 0.651222 6.36364 1.45455C6.36364 2.25787 7.01486 2.90909 7.81818 2.90909Z" fill="#000000"/>
<path d="M9.27273 5.81818C9.27273 6.62151 8.62151 7.27273 7.81818 7.27273C7.01486 7.27273 6.36364 6.62151 6.36364 5.81818C6.36364 5.01486 7.01486 4.36364 7.81818 4.36364C8.62151 4.36364 9.27273 5.01486 9.27273 5.81818Z" fill="#000000"/>
<path d="M7.81818 11.6364C8.62151 11.6364 9.27273 10.9851 9.27273 10.1818C9.27273 9.3785 8.62151 8.72727 7.81818 8.72727C7.01486 8.72727 6.36364 9.3785 6.36364 10.1818C6.36364 10.9851 7.01486 11.6364 7.81818 11.6364Z" fill="#000000"/>
<path d="M9.27273 14.5455C9.27273 15.3488 8.62151 16 7.81818 16C7.01486 16 6.36364 15.3488 6.36364 14.5455C6.36364 13.7421 7.01486 13.0909 7.81818 13.0909C8.62151 13.0909 9.27273 13.7421 9.27273 14.5455Z" fill="#000000"/>
<path d="M12.1818 2.90909C12.9851 2.90909 13.6364 2.25787 13.6364 1.45455C13.6364 0.651222 12.9851 0 12.1818 0C11.3785 0 10.7273 0.651222 10.7273 1.45455C10.7273 2.25787 11.3785 2.90909 12.1818 2.90909Z" fill="#000000"/>
<path d="M13.6364 5.81818C13.6364 6.62151 12.9851 7.27273 12.1818 7.27273C11.3785 7.27273 10.7273 6.62151 10.7273 5.81818C10.7273 5.01486 11.3785 4.36364 12.1818 4.36364C12.9851 4.36364 13.6364 5.01486 13.6364 5.81818Z" fill="#000000"/>
<path d="M12.1818 11.6364C12.9851 11.6364 13.6364 10.9851 13.6364 10.1818C13.6364 9.3785 12.9851 8.72727 12.1818 8.72727C11.3785 8.72727 10.7273 9.3785 10.7273 10.1818C10.7273 10.9851 11.3785 11.6364 12.1818 11.6364Z" fill="#000000"/>
</svg>
