<svg xmlns="http://www.w3.org/2000/svg" width="25" height="25" viewBox="0 0 25 25" fill="none"><rect width="25" height="25" fill="none"/>
<path d="M16.1452 14.2078C16.1452 13.4163 15.9049 12.9384 15.3498 12.9384C14.7996 12.9384 14.4714 13.4163 14.4714 14.203C14.4714 14.9946 14.7947 15.4676 15.3498 15.4676C15.9097 15.4676 16.1452 14.9994 16.1452 14.2078Z" fill="#96A5A5"/>
<path d="M8.11129 11.5257H8.82328C9.50798 11.5257 9.92475 11.873 9.92475 12.5527C9.92475 13.2374 9.50798 13.6367 8.8084 13.6367H8.11129V11.5257Z" fill="#96A5A5"/>
<path fill-rule="evenodd" clip-rule="evenodd" d="M4.15571 6.74477L1.11426 20.938H23.1143L20.0728 6.74478C19.847 5.6909 18.9156 4.93799 17.8378 4.93799H6.39069C5.31289 4.93799 4.38155 5.6909 4.15571 6.74477ZM16.0873 16.0758L16.0752 16.0945C15.7907 16.537 15.4976 16.9928 14.7504 16.9928C13.4037 16.9928 12.6025 15.9454 12.6025 14.1885C12.6025 12.4461 13.4037 11.4132 14.7552 11.4132C15.4696 11.4132 15.8573 11.9305 16.0391 12.3689H16.1356L16.1356 9.35644H18.1145V16.9156H16.1839V16.0758H16.0873ZM6.11426 9.93799V16.9469H8.11129V15.1947H9.24006C10.9121 15.1947 12.0483 14.1256 12.0483 12.5478C12.0483 10.9551 10.9766 9.93799 9.38394 9.93799H6.11426Z" fill="#96A5A5"/>
</svg>
