<svg xmlns="http://www.w3.org/2000/svg" width="16" height="16" viewBox="0 0 16 16" fill="none"><rect width="16" height="16" fill="none"/>
<path d="M15 7.29365V5.23062C15 4.81384 14.6624 4.47622 14.2456 4.47622H12.2788C11.862 4.47622 11.5244 4.13861 11.5244 3.72182V1.7544C11.5239 1.33761 11.1863 1 10.7696 1H8.17185C4.38108 1 1.1485 3.94192 1.0051 7.72986C0.854723 11.7125 4.05046 15 8.00006 15H12.5073C12.9241 15 13.2617 14.6624 13.2617 14.2456V12.1826C13.2617 11.7658 12.9241 11.4282 12.5073 11.4282H8.12106C6.29713 11.4282 4.70225 10.0553 4.58026 8.23528C4.44631 6.23948 6.03223 4.57283 8.00006 4.57283H10.673C11.0897 4.57283 11.4273 4.91044 11.4273 5.32723V7.29415C11.4273 7.71094 11.7649 8.04855 12.1817 8.04855H14.2446C14.6614 8.04855 14.999 7.71094 14.999 7.29415L15 7.29365Z" fill="#64E34B"/>
</svg>
