<svg xmlns="http://www.w3.org/2000/svg" width="24" height="24" viewBox="0 0 24 24" fill="none"><rect width="24" height="24" fill="none"/>
<path d="M16 20.0008L16 22.6515C16 23.1345 15.438 23.3998 15.0651 23.0928L8.24719 17.4839C8.08963 17.3485 8.00294 17.1696 8 17.0008C8.00294 16.8321 8.08963 16.6531 8.24719 16.5176L15.0651 10.9087C15.438 10.6017 16 10.867 16 11.3501L16 14.0008L22 14.0008L22 20.0008L16 20.0008Z" fill="#000000"/>
<path d="M7.99999 10.0008L7.99999 12.6515C7.99999 13.1345 8.56199 13.3998 8.93493 13.0928L15.7528 7.48393C15.9104 7.34848 15.9971 7.16956 16 7.00082C15.9971 6.83209 15.9104 6.6531 15.7528 6.51765L8.93493 0.908728C8.56199 0.601729 7.99999 0.867022 7.99999 1.35007L7.99999 4.0008L2 4.0008L2 10.0008L7.99999 10.0008Z" fill="#000000"/>
</svg>
