<svg xmlns="http://www.w3.org/2000/svg" width="16" height="16" viewBox="0 0 16 16" fill="none"><rect width="16" height="16" fill="none"/>
<path fill-rule="evenodd" clip-rule="evenodd" d="M10.0003 5.63169C10.0003 4.32832 9.50027 3 8.00021 3C6.50014 3 6.00012 4.30399 6.00012 5.63169C6.00012 6.95939 6.88642 8.00021 8.00021 8.00021C9.114 8.00021 10.0003 6.93506 10.0003 5.63169ZM13.0004 10.9616C13.0004 10.354 12.7117 9.78648 12.1403 9.57979C11.3843 9.3063 10.0748 9.00025 8.00021 9.00025C5.92558 9.00025 4.61609 9.3063 3.86009 9.57979C3.28874 9.78648 3 10.354 3 10.9616V11.1432C3.03278 11.6404 3.25114 11.9373 3.58559 12.2979C4.28929 13.0566 5.77328 14.0005 8.00021 14.0005C10.4405 14.0005 11.8752 12.997 12.505 12.2442C12.781 11.9142 12.9718 11.5775 13.0004 11.1432V10.9616Z" fill="#000000"/>
</svg>
