<svg xmlns="http://www.w3.org/2000/svg" width="24" height="24" viewBox="0 0 24 24" fill="none"><rect width="24" height="24" fill="none"/>
<path d="M10.5439 3C10.9055 3 11.2614 3.027 11.6094 3.07617C10.8909 3.30765 10.2893 3.93298 10.2031 4.78125L10.1924 4.99023C10.1923 5.14791 10.2105 5.29884 10.2432 5.44238C7.56096 5.5983 5.43383 7.82271 5.43359 10.5439C5.43359 13.3664 7.72158 15.655 10.5439 15.6553C13.2584 15.6553 15.4774 13.5388 15.6436 10.8662C15.7964 10.9037 15.9575 10.9268 16.127 10.9268C17.0599 10.9261 17.7583 10.3142 18.0234 9.56445C18.065 9.88517 18.0888 10.2119 18.0889 10.5439C18.0889 12.1881 17.5627 13.7098 16.6699 14.9492L22 20.2793L20.2793 22L14.9492 16.6699C13.7098 17.5627 12.1881 18.0889 10.5439 18.0889C6.37749 18.0886 3 14.7104 3 10.5439C3.00025 6.37766 6.37765 3.00026 10.5439 3Z" fill="#000000"/>
<path d="M16.127 0.556641C16.399 0.556701 16.6173 0.778706 16.6406 1.0498C16.8136 3.05701 18.0616 4.30566 20.0693 4.47852C20.3404 4.50193 20.5616 4.72006 20.5615 4.99219C20.5612 5.264 20.3401 5.48151 20.0693 5.50488C18.0616 5.67769 16.8127 6.92624 16.6396 8.93359C16.6164 9.2046 16.3989 9.42656 16.127 9.42676C15.8548 9.42676 15.6366 9.20473 15.6133 8.93359C15.4403 6.92641 14.1918 5.67785 12.1846 5.50488C11.9135 5.48152 11.6923 5.2634 11.6924 4.99121C11.6926 4.71926 11.9137 4.50185 12.1846 4.47852C14.1917 4.30565 15.4403 3.05705 15.6133 1.0498C15.6366 0.778652 15.8548 0.556622 16.127 0.556641Z" fill="#000000"/>
</svg>
