<svg xmlns="http://www.w3.org/2000/svg" width="16" height="16" viewBox="0 0 16 16" fill="none"><rect width="16" height="16" fill="none"/>
<g clip-path="url(#clip0_92179_18128)">
<path fill-rule="evenodd" clip-rule="evenodd" d="M16 8C16 12.4183 12.4183 16 8 16C3.58172 16 0 12.4183 0 8C0 3.58172 3.58172 0 8 0C12.4183 0 16 3.58172 16 8ZM7.25 3.20001H8.75V8H7.25V3.20001ZM5.59922 3.84222C4.1645 4.67217 3.19922 6.22339 3.19922 8.00007C3.19922 10.651 5.34825 12.8001 7.99922 12.8001C10.6502 12.8001 12.7992 10.651 12.7992 8.00007C12.7992 6.22339 11.8339 4.67217 10.3992 3.84222V5.73511C10.9572 6.32611 11.2992 7.12315 11.2992 8.00007C11.2992 9.82261 9.82176 11.3001 7.99922 11.3001C6.17668 11.3001 4.69922 9.82261 4.69922 8.00007C4.69922 7.12315 5.04126 6.32611 5.59922 5.73511V3.84222Z" fill="#000000"/>
</g>
<defs>
<clipPath id="clip0_92179_18128">
<rect width="16" height="16" fill="white"/>
</clipPath>
</defs>
</svg>
