<svg xmlns="http://www.w3.org/2000/svg" width="24" height="24" viewBox="0 0 24 24" fill="none"><rect width="24" height="24" fill="none"/>
<path fill-rule="evenodd" clip-rule="evenodd" d="M16.9994 4.0002C13.3983 3.99993 10.6017 3.99993 7.00055 4.0002C6.50096 4.00024 6 4.44642 6 5.11779V19.2262L10.4901 16.5096C11.4232 15.945 12.5768 15.945 13.5099 16.5096L18 19.2262V5.11779C18 4.44642 17.499 4.00024 16.9994 4.0002ZM7.0004 2.0002C10.6017 1.99993 13.3983 1.99993 16.9996 2.0002C18.709 2.00033 20 3.45025 20 5.11779V22.7738L12.4746 18.2207C12.178 18.0413 11.822 18.0413 11.5254 18.2207L4 22.7738V5.11779C4 3.45025 5.29099 2.00033 7.0004 2.0002Z" fill="#000000"/>
</svg>
