<svg xmlns="http://www.w3.org/2000/svg" width="24" height="24" viewBox="0 0 24 24" fill="none"><rect width="24" height="24" fill="none"/>
<path d="M16.0609 7.00041L14.3437 8.82885L15.7579 10.2431L20 6.0004L15.7575 1.75781L14.3433 3.17203L16.0607 5.00041L9.82843 5.00041C7.7522 5.00041 5.76101 5.82519 4.2929 7.29331L5.70711 8.70752C6.80015 7.61447 8.28263 7.00041 9.82843 7.00041L16.0609 7.00041Z" fill="#000000"/>
<path d="M7.93883 19.0006L9.65628 20.8293L8.24207 22.2435L4 18.0009L8.24253 13.7583L9.65674 15.1725L7.93962 17.0006L14.1716 17.0006C15.7174 17.0006 17.1998 16.3865 18.2929 15.2935L19.7071 16.7077C18.239 18.1758 16.2478 19.0006 14.1716 19.0006H7.93883Z" fill="#000000"/>
</svg>
