<svg xmlns="http://www.w3.org/2000/svg" width="24" height="24" viewBox="0 0 24 24" fill="none"><rect width="24" height="24" fill="none"/>
<path d="M12 22C17.5229 22 22 17.5228 22 12C22 6.47715 17.5229 2 12 2C6.47717 2 2.00002 6.47715 2.00002 12C2.00002 17.5228 6.47717 22 12 22ZM12 20C7.58174 20 4.00002 16.4183 4.00002 12C4.00002 7.58172 7.58174 4 12 4C16.4183 4 20 7.58172 20 12C20 16.4183 16.4183 20 12 20ZM10.3897 16.1916L17.1079 9.47341L15.6928 8.05859L10.3897 13.3631L7.91423 10.8876L6.50002 12.3019L10.3897 16.1916Z" fill="#000000"/>
</svg>
