<svg xmlns="http://www.w3.org/2000/svg" width="24" height="24" viewBox="0 0 24 24" fill="none"><rect width="24" height="24" fill="none"/>
<path fill-rule="evenodd" clip-rule="evenodd" d="M13 7.82929C14.1652 7.41746 15 6.30622 15 5C15 3.34315 13.6569 2 12 2C10.3431 2 9 3.34315 9 5C9 6.30622 9.83481 7.41746 11 7.82929V8H8.06203C6.68543 8 5.48548 8.93689 5.15161 10.2724L2.84097 19.5149C2.5254 20.7772 3.48012 22 4.78126 22H19.2197C20.5208 22 21.4756 20.7772 21.16 19.5149L18.8494 10.2724C18.5155 8.93689 17.3155 8 15.9389 8H13V7.82929ZM13 5C13 5.55228 12.5523 6 12 6C11.4477 6 11 5.55228 11 5C11 4.44772 11.4477 4 12 4C12.5523 4 13 4.44772 13 5ZM10.5723 18.0191L8.96094 15.7681H8.6875V18.0191H7.26172V12.6431H8.6875V14.7525H8.94141L10.543 12.6431H12.1592L10.1182 15.104L12.2666 18.0191H10.5723ZM17.0322 12.6431V13.7173H14.7324V18.0191H13.3066V12.6431H17.0322Z" fill="#000000"/>
</svg>
