<svg xmlns="http://www.w3.org/2000/svg" width="16" height="16" viewBox="0 0 16 16" fill="none"><rect width="16" height="16" fill="none"/>
<g clip-path="url(#clip0_108614_16597)">
<path d="M0 16C0.384828 15.9665 4.27448 15.6104 5.30094 14.5849C5.81974 14.067 6.1112 13.3645 6.1112 12.6321C6.1112 11.8996 5.81974 11.1972 5.30094 10.6793C4.78214 10.1613 4.0785 9.87038 3.3448 9.87038C2.61111 9.87038 1.90746 10.1613 1.38866 10.6793C1.28763 10.7833 1.19933 10.8989 1.1256 11.0237C0.876084 11.4379 0.738636 11.9097 0.726725 12.3928C0.692322 13.6278 0.446534 14.8478 0 16Z" fill="#000000"/>
<path fill-rule="evenodd" clip-rule="evenodd" d="M6.11898 9.86262C6.55259 10.2948 6.8297 10.8587 6.90659 11.4655C7.92759 10.5772 9.01494 9.56417 10.1195 8.46075C12.9186 5.66634 14.8662 2.69427 15.9215 0.874716C15.9859 0.763578 16.0118 0.634326 15.995 0.507028C15.9783 0.37973 15.9199 0.26151 15.829 0.170725C15.738 0.0799397 15.6196 0.0216665 15.4921 0.00495783C15.3646 -0.0117508 15.2351 0.014038 15.1238 0.0783196C13.305 1.13187 10.324 3.07611 7.52481 5.87051C6.42185 6.97159 5.40709 8.05242 4.51566 9.07636C5.12268 9.15361 5.68672 9.43021 6.11898 9.86262Z" fill="#000000"/>
</g>
<defs>
<clipPath id="clip0_108614_16597">
<rect width="16" height="16" fill="white"/>
</clipPath>
</defs>
</svg>
