<svg xmlns="http://www.w3.org/2000/svg" width="24" height="24" viewBox="0 0 24 24" fill="none"><rect width="24" height="24" fill="none"/>
<path d="M23 3C23 1.89543 22.1046 1 21 1L17 1V3L21 3V7H23V3Z" fill="#000000"/>
<path d="M3 1C1.89543 1 1 1.89543 1 3V7H3V3H7V1H3Z" fill="#000000"/>
<path d="M1 21C1 22.1046 1.89543 23 3 23H7V21H3V17H1V21Z" fill="#000000"/>
<path d="M23 21C23 22.1046 22.1046 23 21 23H17V21H21V17H23V21Z" fill="#000000"/>
<path d="M6.69586 16.62V13.92H4.01086V12.18H6.69586V9.48H8.55586V12.18H11.2409V13.92H8.55586V16.62H6.69586Z" fill="#000000"/>
<path d="M12.89 18L16.865 9.15H13.805V10.725H11.555V7.05H19.13V9.15L15.29 18H12.89Z" fill="#000000"/>
</svg>
