<svg xmlns="http://www.w3.org/2000/svg" width="24" height="24" viewBox="0 0 24 24" fill="none"><rect width="24" height="24" fill="none"/>
<path d="M20.5855 10C20.5064 9.72058 20.4161 9.44469 20.3149 9.17317C19.8626 7.95991 19.1997 6.85752 18.364 5.92893C17.5282 5.00035 16.5361 4.26375 15.4442 3.7612C14.3522 3.25866 13.1819 3 12 3C10.8181 3 9.64778 3.25866 8.55585 3.7612C7.46392 4.26375 6.47177 5.00035 5.63604 5.92893C4.80031 6.85752 4.13738 7.95991 3.68508 9.17317C3.58386 9.44469 3.49363 9.72058 3.41455 10H2.5C1.67157 10 1 10.6716 1 11.5C1 12.3284 1.67157 13 2.5 13H21.5C22.3284 13 23 12.3284 23 11.5C23 10.6716 22.3284 10 21.5 10H20.5855Z" fill="#000000"/>
<path fill-rule="evenodd" clip-rule="evenodd" d="M21 16.5722C21 15.7039 20.2961 15 19.4278 15H4.57216C3.70388 15 3 15.7039 3 16.5722C3 17.1823 3.13214 17.7905 3.44463 18.3146C4.29465 19.7403 5.34507 20.8043 6.69022 21.6052C8.02056 22.3972 9.68228 21.9268 10.7516 20.8071L11.6452 19.8715C11.8408 19.6744 12.1602 19.6746 12.3555 19.8722L13.2484 20.8071C14.3177 21.9268 15.9794 22.3972 17.3098 21.6052C18.6549 20.8043 19.7053 19.7403 20.5554 18.3146C20.8679 17.7905 21 17.1823 21 16.5722ZM7.65 19.1562C8.74248 19.4234 9.81614 18.9668 9.97811 18.4835C10.1401 18.0002 9.39248 17.0727 8.3 16.8056C7.20752 16.5385 6.18386 17.0329 6.02189 17.5162C5.85992 17.9994 6.55752 18.8891 7.65 19.1562ZM14.0219 18.4835C14.1839 18.9668 15.2575 19.4234 16.35 19.1562C17.4425 18.8891 18.1401 17.9994 17.9781 17.5162C17.8161 17.0329 16.7925 16.5385 15.7 16.8056C14.6075 17.0727 13.8599 18.0002 14.0219 18.4835Z" fill="#000000"/>
</svg>
