<svg xmlns="http://www.w3.org/2000/svg" width="24" height="24" viewBox="0 0 24 24" fill="none"><rect width="24" height="24" fill="none"/>
<path d="M10.7147 6.66314C11.2246 6.51998 11.8131 6.6535 12.2548 6.91216C12.7352 7.22852 12.9798 7.67308 13.244 8.15826C13.3252 8.30713 13.4098 8.45323 13.4989 8.59771C13.6313 8.81255 13.7598 9.0297 13.8876 9.24713C14.0052 9.44728 14.0647 9.54854 14.1239 9.64849C14.1833 9.74869 14.2438 9.84889 14.3632 10.0489L14.4003 10.1114C14.4681 10.2234 14.5433 10.3234 14.6278 10.4239C15.0883 10.3322 15.5491 10.2402 16.0087 10.1446L16.119 10.1211C16.3104 10.0816 16.5017 10.0411 16.6923 9.9981C17.0353 9.92161 17.2695 9.86929 17.4403 9.8399C17.5298 9.81562 17.6241 9.80281 17.7216 9.80279C18.2971 9.80279 18.7636 10.2547 18.7636 10.8126C18.7636 11.1797 18.5316 11.537 18.2294 11.7139C18.6994 17.7283 18.6958 17.7465 18.954 20.754C18.9761 21.0125 18.9953 21.2708 18.9989 21.5303L18.9999 21.5977C18.9997 21.7328 18.9765 21.8169 18.8925 21.9249C18.796 21.9976 18.6906 21.9992 18.5702 21.9961C18.4689 21.9801 18.4166 21.9332 18.3476 21.8624C18.2804 21.7577 18.2699 21.6628 18.2587 21.5411L18.247 21.421C18.2432 21.3778 18.239 21.3342 18.2353 21.2911L18.2304 21.2354L18.2274 21.2042L18.2226 21.1563C18.1818 20.7099 18.1477 20.2624 18.1142 19.8155C18.1077 19.7297 18.1012 19.6435 18.0946 19.5577C18.0809 19.3774 18.0672 19.1969 18.0536 19.0167C18.0324 18.7347 18.0106 18.4529 17.9892 18.171L17.9677 17.8868L17.9628 17.8165C17.9504 17.6529 17.9381 17.4888 17.9257 17.3253C17.8725 16.6237 17.8181 15.9222 17.7636 15.2208C17.7541 15.0987 17.7447 14.9766 17.7353 14.8545L17.7294 14.7833L17.703 14.4434C17.671 14.031 17.6399 13.6185 17.6083 13.2061C17.6029 13.1356 17.5971 13.0647 17.5917 12.9942C17.5632 12.6246 17.5362 12.2548 17.5136 11.8848L17.4423 11.9014C16.8623 12.0311 16.2808 12.1521 15.6972 12.2657C15.4519 12.3136 15.2081 12.3644 14.9657 12.4249C14.4742 12.5448 13.9613 12.6378 13.5028 12.3751C13.2727 12.2058 13.1149 11.9377 12.9677 11.6866C12.9327 11.627 12.8988 11.5679 12.8642 11.5118L12.8388 11.6104C12.7999 11.7641 12.7608 11.9177 12.7216 12.0713L12.7001 12.1563C12.6233 12.4567 12.5442 12.7563 12.456 13.0538L12.4354 13.1231C12.4034 13.2307 12.371 13.3381 12.3378 13.4454L12.3036 13.5606L12.2724 13.6602C12.2534 13.7556 12.2561 13.8132 12.286 13.9053C12.3361 13.9763 12.3871 14.0414 12.4433 14.1075L12.4901 14.1651C12.6271 14.3293 12.7687 14.4898 12.9101 14.6504C13.0025 14.7563 13.0929 14.8639 13.1815 14.9727C13.2319 15.0344 13.2827 15.0962 13.3339 15.1573C13.7479 15.6544 13.9977 16.1679 14.1854 16.7774C14.2202 16.8901 14.2555 17.0027 14.2909 17.1153L14.3056 17.1631L14.3339 17.254C14.4292 17.5571 14.5265 17.8596 14.6239 18.1622L14.6503 18.2422C14.7279 18.4833 14.805 18.7248 14.8827 18.9659C15.1213 19.706 15.185 19.903 15.247 20.0997C15.2692 20.1703 15.2921 20.2409 15.3222 20.337L15.3446 20.4092C15.4504 20.7509 15.4559 21.0434 15.2997 21.3731C15.125 21.6663 14.8674 21.8691 14.536 21.9747C14.1898 22.0358 13.8567 21.9933 13.5556 21.8165C13.2414 21.5996 13.0898 21.2919 12.956 20.9512C12.9255 20.8763 12.8949 20.8014 12.8642 20.7266L12.8397 20.668C12.3645 19.516 11.5074 17.303 11.496 17.2735C11.496 17.2735 9.16626 15.5931 8.0331 14.4317C7.7844 14.1768 7.60237 13.8689 7.5331 13.5196C7.2896 12.0175 7.92732 10.4391 8.59853 9.11822L8.6415 9.03326C9.07506 8.18209 9.74871 7.02811 10.7147 6.66314Z" fill="#000000"/>
<path d="M10.0526 18.0489L8.9208 21.3692C8.74823 21.8283 8.24696 22.0881 7.75674 21.9717C7.27727 21.8579 6.95658 21.4192 7.00478 20.9434L7.28799 16.1827L10.0526 18.0489Z" fill="#000000"/>
<path d="M12.827 2.00103C13.4138 2.01193 13.8583 2.27361 14.2597 2.67681C14.61 3.07806 14.7402 3.57243 14.7099 4.0899C14.6515 4.58922 14.401 5.03603 14.0097 5.36236C13.5801 5.67326 13.0905 5.83776 12.5556 5.78521C11.9393 5.68582 11.4843 5.40126 11.1161 4.90435C10.8234 4.44849 10.7443 3.91934 10.8622 3.39263C11.0188 2.8892 11.3806 2.45605 11.8534 2.20318C12.1496 2.06394 12.4188 1.99781 12.747 2.00006C12.7733 2.00021 12.7999 2.00087 12.827 2.00103Z" fill="#000000"/>
</svg>
