<svg xmlns="http://www.w3.org/2000/svg" width="24" height="24" viewBox="0 0 24 24" fill="none"><rect width="24" height="24" fill="none"/>
<path d="M20.6987 12.5634L19.5241 13.738L18.8999 10.3046L19.377 9.82744L20.6987 11.1491C21.0892 11.5397 21.0892 12.1728 20.6987 12.5634Z" fill="#000000"/>
<path d="M12.8501 3.30071L14.1722 4.62281L13.6951 5.09985L10.2611 4.47548L11.4359 3.30071C11.8264 2.91018 12.4595 2.91018 12.8501 3.30071Z" fill="#000000"/>
<path d="M14.3684 7.255L16.4454 5.17796C17.4174 4.20593 18.643 3.52663 19.9825 3.21754C20.4626 3.10672 20.8929 3.53703 20.7821 4.01717C20.473 5.35662 19.7937 6.58224 18.8217 7.55427L16.7447 9.63131L18.4371 18.94C18.6487 20.1031 17.5792 20.4508 16.7008 20.7364C16.6349 20.7578 16.5701 20.7789 16.507 20.7999L12.4673 13.9087L9.85339 16.5226L9.996 18.6622C10.0529 19.5159 9.56484 20.3125 8.77843 20.6496L8.42759 20.7999L6.50049 17.4993L3.19971 15.5721L3.35009 15.2212C3.68711 14.4348 4.48379 13.9467 5.3375 14.0037L7.47708 14.1463L10.091 11.5324L3.19971 7.49263C3.22075 7.42952 3.24182 7.36472 3.26324 7.29884C3.54882 6.42048 3.89653 5.35099 5.05965 5.56253L14.3684 7.255Z" fill="#000000"/>
</svg>
