<svg xmlns="http://www.w3.org/2000/svg" width="48" height="48" viewBox="0 0 48 48" fill="none"><rect width="48" height="48" fill="none"/>
<path fill-rule="evenodd" clip-rule="evenodd" d="M16.2504 16.25C16.2504 11.9698 19.7202 8.5 24.0004 8.5C28.2806 8.5 31.7504 11.9698 31.7504 16.25V20.9H34.8504V36.4C34.8504 38.1121 33.4625 39.5 31.7504 39.5H16.2504C14.5383 39.5 13.1504 38.1121 13.1504 36.4V20.9H16.2504V16.25ZM28.6504 16.25V20.9H19.3504V16.25C19.3504 13.6819 21.4323 11.6 24.0004 11.6C26.5685 11.6 28.6504 13.6819 28.6504 16.25ZM24.0004 33.3C25.7125 33.3 27.1004 31.9121 27.1004 30.2C27.1004 28.4879 25.7125 27.1 24.0004 27.1C22.2883 27.1 20.9004 28.4879 20.9004 30.2C20.9004 31.9121 22.2883 33.3 24.0004 33.3Z" fill="#000000"/>
</svg>
