<svg xmlns="http://www.w3.org/2000/svg" width="24" height="24" viewBox="0 0 24 24" fill="none"><rect width="24" height="24" fill="none"/>
<path d="M12 2C17.5228 2 22 6.47715 22 12C22 12.388 21.9779 12.7709 21.9349 13.1475C20.7907 11.6895 19.0124 10.7529 17.0154 10.7529L17 10.7529V10C17 9.44772 16.5523 9 16 9H14.5099C14.1896 9 13.8887 8.84656 13.7005 8.58732L11.8807 6.07953C11.6384 5.74565 11.626 5.29727 11.8495 4.95051L12.4539 4.01266C12.3037 4.00426 12.1523 4 12 4C10.6571 4 9.39153 4.33087 8.28029 4.91553L8.64771 5.17827C9.24941 5.60854 9.19188 6.52053 8.54087 6.87177L6.67201 7.88008C6.52612 7.95879 6.36295 8 6.19718 8H5.07026L5.05717 8.02271C4.70541 8.63542 4.43243 9.29913 4.25203 10H8.81818C9.19474 10 9.5 10.3053 9.5 10.6818C9.5 11.0584 9.80526 11.3636 10.1818 11.3636H12.625C12.9883 11.3636 13.3064 11.5574 13.4815 11.8472C11.8411 12.9737 10.7653 14.8627 10.7653 17.003C10.7653 19.0056 11.7072 20.7882 13.1721 21.932C12.7876 21.9769 12.3965 22 12 22C6.47715 22 2 17.5228 2 12C2 6.47715 6.47715 2 12 2Z" fill="#000000"/>
<path fill-rule="evenodd" clip-rule="evenodd" d="M17.0154 21.253C17.8278 21.253 18.587 21.0251 19.2325 20.6296L21.5964 22.9934L23.0106 21.5792L20.6456 19.2142C21.0388 18.57 21.2654 17.813 21.2654 17.003C21.2654 14.6557 19.3627 12.7529 17.0154 12.7529C14.6682 12.7529 12.7653 14.6557 12.7653 17.003C12.7653 19.3502 14.6681 21.253 17.0154 21.253ZM17.0154 19.253C18.258 19.253 19.2654 18.2457 19.2654 17.003C19.2654 15.7603 18.2581 14.7529 17.0154 14.7529C15.7727 14.7529 14.7653 15.7603 14.7653 17.003C14.7653 18.2457 15.7727 19.253 17.0154 19.253Z" fill="#000000"/>
</svg>
