<svg xmlns="http://www.w3.org/2000/svg" width="16" height="16" viewBox="0 0 16 16" fill="none"><rect width="16" height="16" fill="none"/>
<g clip-path="url(#clip0_92244_24351)">
<path d="M5.19038 1.24808L6.02243 0L7.99996 1.31835L9.97749 0L10.8095 1.24808L8.75087 2.62052V6.70097L12.2822 4.66218L12.4415 2.19093L13.9384 2.28747L13.7855 4.65924L15.916 5.71265L15.2511 7.05726L13.0332 5.96062L9.50087 8.00001L13.0337 10.0397L15.2521 8.94286L15.9169 10.2875L13.7864 11.3409L13.9394 13.7126L12.4425 13.8092L12.2832 11.3384L8.75087 9.29905V13.3795L10.8095 14.7519L9.97749 16L7.99996 14.6816L6.02243 16L5.19038 14.7519L7.25087 13.3783V9.29905L3.71569 11.3401L3.55645 13.8092L2.05956 13.7126L2.21252 11.3409L0.0820312 10.2875L0.746871 8.94286L2.96673 10.0405L6.50087 8.00001L2.96726 5.95988L0.747842 7.05726L0.083002 5.71265L2.21349 4.65923L2.06053 2.28747L3.55742 2.19093L3.71669 4.66051L7.25087 6.70097V2.62174L5.19038 1.24808Z" fill="#000000"/>
</g>
<defs>
<clipPath id="clip0_92244_24351">
<rect width="16" height="16" fill="white"/>
</clipPath>
</defs>
</svg>
