<svg xmlns="http://www.w3.org/2000/svg" width="24" height="24" viewBox="0 0 24 24" fill="none"><rect width="24" height="24" fill="none"/>
<path d="M12 2C17.5228 2 22 6.47715 22 12C22 17.5228 17.5228 22 12 22C6.47715 22 2 17.5228 2 12C2 6.47715 6.47715 2 12 2ZM10.0225 13C10.1153 15.1499 10.5007 17.0091 11.0283 18.3281C11.3345 19.0935 11.6495 19.5787 11.8965 19.8398C11.9358 19.8814 11.9716 19.9116 12 19.9365C12.0284 19.9116 12.0642 19.8814 12.1035 19.8398C12.3505 19.5787 12.6655 19.0935 12.9717 18.3281C13.4993 17.0091 13.8847 15.1499 13.9775 13H10.0225ZM4.06445 13C4.44606 16.0593 6.5533 18.5801 9.38281 19.5596C8.63107 17.9309 8.12333 15.6138 8.01953 13H4.06445ZM15.9805 13C15.8767 15.614 15.368 17.9309 14.6162 19.5596C17.4462 18.5803 19.5539 16.0596 19.9355 13H15.9805ZM9.38281 4.43945C6.55315 5.41883 4.44608 7.94062 4.06445 11H8.01953C8.12335 8.3858 8.63087 6.06813 9.38281 4.43945ZM11.8965 4.16016C11.6495 4.42127 11.3345 4.9065 11.0283 5.67188C10.5007 6.99094 10.1153 8.85013 10.0225 11H13.9775C13.8847 8.85013 13.4993 6.99094 12.9717 5.67188C12.6655 4.9065 12.3505 4.42127 12.1035 4.16016C12.064 4.11834 12.0285 4.0875 12 4.0625C11.9715 4.0875 11.936 4.11834 11.8965 4.16016ZM14.6162 4.43945C15.3682 6.06815 15.8766 8.3856 15.9805 11H19.9355C19.5539 7.9403 17.4463 5.41861 14.6162 4.43945Z" fill="#000000"/>
</svg>
