<svg xmlns="http://www.w3.org/2000/svg" width="24" height="24" viewBox="0 0 24 24" fill="none"><rect width="24" height="24" fill="none"/>
<path fill-rule="evenodd" clip-rule="evenodd" d="M6.09063 22C4.54178 21.7745 3 20.3146 3 18.5352V8.13971C3 6.30304 4.61199 2 7.77829 2.00298L16.2218 2C19.6972 1.99702 21 6.30304 21 8.13971V18.5352C21 20.3146 19.4583 21.7745 17.9095 22H6.09063ZM6.05016 18.1199L9.6987 18.6801C9.78989 18.1219 8.51976 16.427 7.94405 16.3386L6.38038 16.0984C6.09251 16.0543 5.82221 16.2447 5.77661 16.5238L5.61151 17.5346C5.56591 17.8137 5.76232 18.0756 6.05016 18.1199ZM17.9517 18.1197L14.3028 18.6801C14.2116 18.1219 15.4822 16.4268 16.0579 16.3384L17.6217 16.0984C17.9095 16.0542 18.1797 16.2447 18.2254 16.5238L18.3904 17.5344C18.4361 17.8135 18.2396 18.0756 17.9517 18.1197ZM16.2225 14.2794H7.77904C6.66849 14.2794 5.65787 12.6115 5.6681 11.135L5.66817 8.13969C5.66817 6.86278 6.46656 5.6713 7.77904 5.6713H16.2225C17.5349 5.6713 18.3334 6.78557 18.3334 8.06248L18.3332 11.2095C18.3434 12.686 17.333 14.2794 16.2225 14.2794Z" fill="#000000"/>
</svg>
