<svg xmlns="http://www.w3.org/2000/svg" width="24" height="24" viewBox="0 0 24 24" fill="none"><rect width="24" height="24" fill="none"/>
<path d="M8.45342 3.6641L9.56282 2L12.0001 3.62483L14.4373 2L15.5467 3.6641L12.9998 5.36206V10.2683L17.25 7.81444L17.4469 4.76174L19.4428 4.89046L19.2542 7.81358L21.88 9.11188L20.9935 10.9047L18.2485 9.5474L13.9998 12.0004L18.2508 14.4547L20.9935 13.0986L21.8799 14.8914L19.2541 16.1897L19.4427 19.1129L17.4468 19.2416L17.2498 16.1862L12.9998 13.7324V18.6379L15.5467 20.3359L14.4373 22L12.0001 20.3752L9.56282 22L8.45342 20.3359L10.9998 18.6383V13.7324L6.75028 16.1859L6.55321 19.2416L4.55736 19.1129L4.74588 16.1897L2.12012 14.8914L3.00657 13.0986L5.74897 14.4546L9.99977 12.0004L5.75136 9.54757L3.00661 10.9047L2.12016 9.11188L4.74592 7.81358L4.5574 4.89046L6.55325 4.76174L6.75016 7.81482L10.9998 10.2683V5.36167L8.45342 3.6641Z" fill="#000000"/>
</svg>
