<svg xmlns="http://www.w3.org/2000/svg" width="24" height="24" viewBox="0 0 24 24" fill="none"><rect width="24" height="24" fill="none"/>
<path d="M7.15918 5.63086C5.23946 7.09218 4 9.40119 4 12C4 14.5986 5.23973 16.9068 7.15918 18.3682L5.94434 19.957C3.54757 18.1302 2 15.2462 2 12C2 8.75356 3.5473 5.86882 5.94434 4.04199L7.15918 5.63086ZM18.0547 4.04199C20.4521 5.8688 22 8.75328 22 12C22 15.2465 20.4518 18.1302 18.0547 19.957L16.8398 18.3682C18.7596 16.9069 20 14.5989 20 12C20 9.40091 18.7599 7.09215 16.8398 5.63086L18.0547 4.04199ZM9.58887 8.80859C8.62378 9.53887 8 10.6965 8 12C8 13.3033 8.62405 14.4601 9.58887 15.1904L8.37402 16.7793C6.93189 15.6835 6 13.951 6 12C6 10.0488 6.93162 8.31552 8.37402 7.21973L9.58887 8.80859ZM15.625 7.21973C17.0678 8.3155 18 10.0485 18 12C18 13.9512 17.0675 15.6835 15.625 16.7793L14.4102 15.1904C15.3753 14.4602 16 13.3036 16 12C16 10.6962 15.3756 9.53884 14.4102 8.80859L15.625 7.21973ZM12 10C13.1046 10 14 10.8954 14 12C14 13.1046 13.1046 14 12 14C10.8954 14 10 13.1046 10 12C10 10.8954 10.8954 10 12 10Z" fill="#000000"/>
</svg>
