<svg xmlns="http://www.w3.org/2000/svg" width="48" height="48" viewBox="0 0 48 48" fill="none"><rect width="48" height="48" fill="none"/>
<path d="M39.1611 18.5586C40.041 18.5586 40.5059 18.0605 40.5059 17.1973V13.1299C40.5059 9.70996 38.7627 8 35.293 8H31.2256C30.3623 8 29.8809 8.46484 29.8809 9.32812C29.8809 10.1914 30.3623 10.6729 31.2256 10.6729H35.2432C36.8867 10.6729 37.833 11.5527 37.833 13.2793V17.1973C37.833 18.0605 38.3145 18.5586 39.1611 18.5586ZM9.32812 18.5586C10.208 18.5586 10.6729 18.0605 10.6729 17.1973V13.2793C10.6729 11.5527 11.5859 10.6729 13.2461 10.6729H17.2637C18.1436 10.6729 18.625 10.1914 18.625 9.32812C18.625 8.46484 18.1436 8 17.2637 8H13.2129C9.74316 8 8 9.70996 8 13.1299V17.1973C8 18.0605 8.48145 18.5586 9.32812 18.5586ZM22.9248 27.042H23.0576C24.7344 27.042 25.6475 26.1289 25.6475 24.4521V19.2227C25.6475 18.5752 25.2158 18.1602 24.585 18.1602C23.9209 18.1602 23.4893 18.5752 23.4893 19.2227V24.6016C23.4893 24.7676 23.3896 24.8506 23.2402 24.8506H22.6592C22.0615 24.8506 21.5967 25.3154 21.5967 25.9131C21.5967 26.627 22.0781 27.042 22.9248 27.042ZM17.9277 23.124C18.708 23.124 19.2725 22.5762 19.2725 21.7793V19.5215C19.2725 18.7246 18.708 18.1768 17.9277 18.1768C17.1475 18.1768 16.5996 18.7246 16.5996 19.5215V21.7793C16.5996 22.5762 17.1475 23.124 17.9277 23.124ZM30.5283 23.124C31.292 23.124 31.8398 22.5762 31.8398 21.7793V19.5215C31.8398 18.7246 31.292 18.1768 30.5283 18.1768C29.7314 18.1768 29.1836 18.7246 29.1836 19.5215V21.7793C29.1836 22.5762 29.7314 23.124 30.5283 23.124ZM24.1533 29.4365C26.1621 29.4365 28.1875 30.2998 29.6318 31.7441C29.8311 31.9268 29.9307 32.209 29.9307 32.541C29.9307 33.1719 29.4658 33.6201 28.8516 33.6201C28.5361 33.6201 28.3037 33.5039 27.9883 33.1719C27.0752 32.2256 25.6309 31.5781 24.1533 31.5781C22.7588 31.5781 21.2979 32.1924 20.335 33.1719C20.0693 33.4209 19.8535 33.6201 19.4551 33.6201C18.8408 33.6201 18.376 33.1719 18.376 32.541C18.376 32.2588 18.4756 31.9932 18.6914 31.7607C20.0361 30.2334 22.1445 29.4365 24.1533 29.4365ZM13.2129 40.4893H17.2637C18.1436 40.4893 18.625 40.0078 18.625 39.1611C18.625 38.2979 18.1436 37.8164 17.2637 37.8164H13.2461C11.5859 37.8164 10.6729 36.9365 10.6729 35.21V31.292C10.6729 30.4121 10.1914 29.9307 9.32812 29.9307C8.46484 29.9307 8 30.4121 8 31.292V35.3428C8 38.7793 9.74316 40.4893 13.2129 40.4893ZM31.2256 40.4893H35.293C38.7627 40.4893 40.5059 38.7627 40.5059 35.3428V31.292C40.5059 30.4121 40.0244 29.9307 39.1611 29.9307C38.2979 29.9307 37.833 30.4121 37.833 31.292V35.21C37.833 36.9365 36.8867 37.8164 35.2432 37.8164H31.2256C30.3623 37.8164 29.8809 38.2979 29.8809 39.1611C29.8809 40.0078 30.3623 40.4893 31.2256 40.4893Z" fill="#000000"/>
</svg>
