<svg xmlns="http://www.w3.org/2000/svg" width="24" height="24" viewBox="0 0 24 24" fill="none"><rect width="24" height="24" fill="none"/>
<path d="M16 7.1282C16 4.58841 15 2 12 2C8.99999 2 7.99999 4.541 7.99999 7.1282C7.99999 9.71541 9.77251 11.7436 12 11.7436C14.2275 11.7436 16 9.668 16 7.1282Z" fill="#000000"/>
<path d="M21 19.9487V22H14L13 16L13.5504 14.8992C17.0102 15.26 19.1152 16.789 20.1082 17.9726C20.6051 18.5649 20.9485 19.1692 21 19.9487Z" fill="#000000"/>
<path d="M10.4538 14.9077L11 16L10 22H3V19.9487C3.05899 19.0563 3.45203 18.5235 4.05402 17.8763C5.15009 16.6979 7.29789 15.2707 10.4538 14.9077Z" fill="#000000"/>
</svg>
