<svg xmlns="http://www.w3.org/2000/svg" width="24" height="24" viewBox="0 0 24 24" fill="none"><rect width="24" height="24" fill="none"/>
<path d="M17 22H20C21.1046 22 22 21.1046 22 20V4C22 2.89543 21.1046 2 20 2L17 2V4L20 4V20H17V22Z" fill="#000000"/>
<path d="M7 4L4 4L4 20L7 20V22H4C2.89543 22 2 21.1046 2 20L2 4C2 2.89543 2.89543 2 4 2L7 2L7 4Z" fill="#000000"/>
<path d="M9 17C10.1046 17 11 16.1046 11 15C11 13.8954 10.1046 13 9 13C7.89543 13 7 13.8954 7 15C7 16.1046 7.89543 17 9 17Z" fill="#000000"/>
<path d="M17 15C17 16.1046 16.1046 17 15 17C13.8954 17 13 16.1046 13 15C13 13.8954 13.8954 13 15 13C16.1046 13 17 13.8954 17 15Z" fill="#000000"/>
</svg>
