<svg xmlns="http://www.w3.org/2000/svg" width="24" height="24" viewBox="0 0 24 24" fill="none"><rect width="24" height="24" fill="none"/>
<path fill-rule="evenodd" clip-rule="evenodd" d="M11.2222 8.11111C11.2222 9.82933 9.82933 11.2222 8.11111 11.2222C6.39289 11.2222 5 9.82933 5 8.11111C5 6.39289 6.39289 5 8.11111 5C9.82933 5 11.2222 6.39289 11.2222 8.11111ZM8.11111 9.66667C8.97022 9.66667 9.66667 8.97022 9.66667 8.11111C9.66667 7.252 8.97022 6.55556 8.11111 6.55556C7.252 6.55556 6.55556 7.252 6.55556 8.11111C6.55556 8.97022 7.252 9.66667 8.11111 9.66667Z" fill="#000000"/>
<path fill-rule="evenodd" clip-rule="evenodd" d="M7.83197 18.1933L6.63895 17.1951L16.168 5.80664L17.361 6.80486L7.83197 18.1933Z" fill="#000000"/>
<path fill-rule="evenodd" clip-rule="evenodd" d="M12.7778 15.8889C12.7778 14.1707 14.1707 12.7778 15.8889 12.7778C17.6071 12.7778 19 14.1707 19 15.8889C19 17.6071 17.6071 19 15.8889 19C14.1707 19 12.7778 17.6071 12.7778 15.8889ZM15.8889 14.3333C15.0298 14.3333 14.3333 15.0298 14.3333 15.8889C14.3333 16.748 15.0298 17.4444 15.8889 17.4444C16.748 17.4444 17.4444 16.748 17.4444 15.8889C17.4444 15.0298 16.748 14.3333 15.8889 14.3333Z" fill="#000000"/>
</svg>
