<svg fill="none" height="24" viewBox="0 0 24 24" width="24" xmlns="http://www.w3.org/2000/svg"><path d="m5.30311 22c-1.1209 0-1.52936-.979-.93092-1.7622.40847-.5315 1.1399-1.5758 1.54836-2.3404-2.97323-1.4172-4.92055-4.1585-4.92055-7.2167 0-4.81124 4.89206-8.6807 11-8.6807 6.1079 0 11 3.86946 11 8.6807 0 4.979-5.006 8.7832-11.7029 8.662-2.00435 1.3986-4.67361 2.6573-5.99399 2.6573zm1.1304-1.8928c.85492-.3356 2.55526-1.3893 3.69519-2.2191.3799-.289.6839-.4102 1.0924-.4102.3419.0093.5984.0186.7789.0186 5.063 0 9.0907-3.0583 9.0907-6.8158 0-3.75762-4.0277-6.8159-9.0907-6.8159-5.06304 0-9.09067 3.05828-9.09067 6.8159 0 2.4428 1.68134 4.5687 4.57858 5.9114.60794.2797.71244.7272.42746 1.2401-.35147.6433-1.0734 1.5664-1.55786 2.1631-.07599.0933-.02849.1585.076.1119z" fill="#000"/></svg>