<svg xmlns="http://www.w3.org/2000/svg" width="24" height="24" viewBox="0 0 24 24" fill="none"><rect width="24" height="24" fill="none"/>
<path d="M21.6076 8.05041L15.9507 2.39355L13.7355 4.60881L10.0521 6.02266C8.39228 6.65976 7.1005 8.00012 6.5251 9.68228L3.57617 18.3033L4.10736 18.8345L9.55326 13.3886C9.41968 12.8888 9.54895 12.3333 9.94108 11.9412C10.5261 11.3562 11.4745 11.3562 12.0595 11.9412C12.6444 12.5262 12.6444 13.4746 12.0595 14.0596C11.6674 14.4516 11.1121 14.5809 10.6124 14.4475L5.16639 19.8935L5.69749 20.4246L14.3339 17.4674C16.0014 16.8965 17.3336 15.6212 17.9767 13.9802L19.4581 10.1999L21.6076 8.05041Z" fill="#000000"/>
</svg>
