<svg xmlns="http://www.w3.org/2000/svg" width="24" height="24" viewBox="0 0 24 24" fill="none"><rect width="24" height="24" fill="none"/>
<path fill-rule="evenodd" clip-rule="evenodd" d="M4 3C4 2.44772 4.44772 2 5 2H12.185C13.9599 2 15.3468 3.53245 15.1701 5.29851L15.0243 6.75677C15.0117 6.88251 15.1175 6.98825 15.2432 6.97568L16.7015 6.82985C18.4675 6.65325 20 8.0401 20 9.81496V14H7V22H5C4.44772 22 4 21.5523 4 21V3Z" fill="#000000"/>
<path fill-rule="evenodd" clip-rule="evenodd" d="M9 23H22V16H15.5H9V23ZM17.5 19.5C17.5 20.6046 16.6046 21.5 15.5 21.5C14.3954 21.5 13.5 20.6046 13.5 19.5C13.5 18.3954 14.3954 17.5 15.5 17.5C16.6046 17.5 17.5 18.3954 17.5 19.5Z" fill="#000000"/>
</svg>
