<svg xmlns="http://www.w3.org/2000/svg" width="16" height="16" viewBox="0 0 16 16" fill="none"><rect width="16" height="16" fill="none"/>
<path d="M1.36719 9.58156C1.36719 8.84703 1.50815 7.13048 3.09895 5.253C3.1453 5.1983 3.19116 5.14423 3.23654 5.09073C4.62801 3.45025 5.56 2.35148 5.84633 0.331152C5.88312 0.071574 6.16253 -0.0852747 6.38762 0.0491542C8.61292 1.37819 10.096 3.75967 10.096 6.47574C10.096 7.57256 11.3584 6.24728 11.9232 5.23985C12.0755 4.96818 12.5375 4.82996 12.7389 5.06749C13.6284 6.11634 14.6156 7.9668 14.6348 9.58296C14.6348 13.128 11.6648 16 8.00101 16C4.33721 16 1.36719 13.1266 1.36719 9.58156ZM8.49425 9.66807C8.31737 9.15454 8.09827 8.51844 7.50241 8.05499C7.36892 7.95117 7.17803 7.97707 7.06205 8.10014C4.01692 11.3313 5.65669 14.1573 8.00206 14.1573C10.537 14.1573 10.9015 11.9845 10.3751 10.4876C10.3016 10.2784 10.0501 10.2153 9.85596 10.3224C8.90105 10.8491 8.73762 10.3746 8.49425 9.66807Z" fill="#000000"/>
</svg>
