<svg xmlns="http://www.w3.org/2000/svg" width="24" height="24" viewBox="0 0 24 24" fill="none"><rect width="24" height="24" fill="none"/>
<path d="M6.27637 12.3624C6.60882 12.1961 7 12.4379 7 12.8096V22.0001H3V14.3096C3 14.1203 3.10708 13.9471 3.27637 13.8624L6.27637 12.3624ZM14.5 9.00005C14.7761 9.00005 14.9999 9.22396 15 9.50005V22.0001H9V9.50005C9.00006 9.22396 9.2239 9.00005 9.5 9.00005H14.5ZM17 12.8096C17 12.4379 17.3912 12.1961 17.7236 12.3624L20.7236 13.8624C20.8929 13.9471 21 14.1203 21 14.3096V22.0001H17V12.8096ZM11.7656 1.17775C11.8394 0.940752 12.1606 0.940751 12.2344 1.17775L12.8291 3.09475H14.7539C14.9918 3.09518 15.0907 3.41384 14.8984 3.56057L13.3408 4.74515L13.9355 6.66215C14.0089 6.89939 13.7494 7.09688 13.5566 6.95024L12 5.76566L10.4434 6.95024C10.2506 7.09688 9.99115 6.89939 10.0645 6.66215L10.6592 4.74515L9.10156 3.56057C8.90925 3.41384 9.00817 3.09518 9.24609 3.09475H11.1709L11.7656 1.17775Z" fill="#000000"/>
</svg>
