<svg xmlns="http://www.w3.org/2000/svg" width="48" height="48" viewBox="0 0 48 48" fill="none"><rect width="48" height="48" fill="none"/>
<path fill-rule="evenodd" clip-rule="evenodd" d="M6.82843 4.00391L4 6.83233L8.55986 11.3922C8.20081 12.1546 8.00009 13.0063 8.00009 13.9049V34.0001H4.00012V36.1906C4.00012 38.2945 5.7057 40.0001 7.80965 40.0001H37.1678L41.1678 44.0001L43.9962 41.1717L6.82843 4.00391ZM12.0001 14.8324V34.0001H31.1678L12.0001 14.8324Z" fill="#000000"/>
<path d="M28.0001 19.5186L44.0001 35.5186V18.0001C44.0001 16.8956 43.1047 16.0001 42.0001 16.0001H30.0001C28.8955 16.0001 28.0001 16.8956 28.0001 18.0001V19.5186Z" fill="#000000"/>
<path d="M20.4816 12.0001L16.4816 8.00013H40.0001V12.0001H20.4816Z" fill="#000000"/>
</svg>
