<svg xmlns="http://www.w3.org/2000/svg" width="24" height="24" viewBox="0 0 24 24" fill="none"><rect width="24" height="24" fill="none"/>
<path d="M5 2C4.44772 2 4 2.44772 4 3V21C4 21.5523 4.44772 22 5 22H13.3204C13.2985 21.7069 13.3267 21.3988 13.4144 21.0824L13.8008 19.6888L12.6691 18.7885C10.7725 17.2797 11.7647 14.226 14.1859 14.1202L15.6307 14.0571L16.1372 12.7025C16.7673 11.0174 18.6991 10.5832 20 11.4V9.81496C20 8.0401 18.4675 6.65325 16.7015 6.82985L15.2432 6.97568C15.1175 6.98825 15.0117 6.88251 15.0243 6.75677L15.1701 5.29851C15.3468 3.53245 13.9599 2 12.185 2H5Z" fill="#000000"/>
<path d="M18.126 13.4475C18.2858 13.0201 18.8904 13.0201 19.0502 13.4475L19.9354 15.8147C20.0047 16.0001 20.1782 16.1262 20.376 16.1348L22.9008 16.2451C23.3567 16.2651 23.5436 16.8401 23.1864 17.1242L21.2086 18.6975C21.0537 18.8207 20.9874 19.0247 21.0403 19.2154L21.7156 21.6508C21.8376 22.0905 21.3484 22.4459 20.9679 22.1941L18.8604 20.7993C18.6953 20.69 18.4809 20.69 18.3158 20.7993L16.2083 22.1941C15.8278 22.4459 15.3386 22.0905 15.4606 21.6508L16.1358 19.2154C16.1887 19.0247 16.1225 18.8207 15.9675 18.6975L13.9898 17.1242C13.6326 16.8401 13.8195 16.2651 14.2754 16.2451L16.8002 16.1348C16.998 16.1262 17.1715 16.0001 17.2408 15.8147L18.126 13.4475Z" fill="#000000"/>
</svg>
