<svg xmlns="http://www.w3.org/2000/svg" width="16" height="16" viewBox="0 0 16 16" fill="none"><rect width="16" height="16" fill="none"/>
<g clip-path="url(#clip0_144422_26364)">
<path d="M16 7.19274V4.835C16 4.35867 15.6142 3.97283 15.1379 3.97283H12.8901C12.4137 3.97283 12.0279 3.58698 12.0279 3.11065V0.862173C12.0274 0.385844 11.6415 0 11.1652 0H8.1964C3.8641 0 0.169718 3.36219 0.00582659 7.69127C-0.166031 12.2429 3.48624 16 8.00007 16H13.1513C13.6276 16 14.0134 15.6142 14.0134 15.1378V12.7801C14.0134 12.3038 13.6276 11.9179 13.1513 11.9179H8.13835C6.05386 11.9179 4.23114 10.3489 4.09172 8.2689C3.93864 5.98798 5.75112 4.08323 8.00007 4.08323H11.0548C11.5311 4.08323 11.917 4.46907 11.917 4.9454V7.19331C11.917 7.66964 12.3028 8.05549 12.7791 8.05549H15.1367C15.613 8.05549 15.9989 7.66964 15.9989 7.19331L16 7.19274Z" fill="#64E34B"/>
</g>
<defs>
<clipPath id="clip0_144422_26364">
<rect width="16" height="16" fill="white"/>
</clipPath>
</defs>
</svg>
