<svg xmlns="http://www.w3.org/2000/svg" width="16" height="16" viewBox="0 0 16 16" fill="none"><rect width="16" height="16" fill="none"/>
<path fill-rule="evenodd" clip-rule="evenodd" d="M4.36078 8.12043C3.45829 9.20341 3.00704 9.74491 3.00015 10.2022C2.99415 10.5998 3.17131 10.978 3.48056 11.2279C3.8363 11.5154 4.54117 11.5154 5.95091 11.5154H10.0491C11.4588 11.5154 12.1637 11.5154 12.5194 11.2279C12.8287 10.978 13.0058 10.5998 12.9999 10.2022C12.993 9.74491 12.5417 9.20341 11.6392 8.12042L9.59013 5.66151C9.04405 5.00622 8.77101 4.67857 8.44411 4.55909C8.15732 4.45426 7.84268 4.45426 7.55589 4.55909C7.22899 4.67857 6.95595 5.00622 6.40987 5.66151L4.36078 8.12043Z" fill="#000000"/>
</svg>
