<svg xmlns="http://www.w3.org/2000/svg" width="24" height="24" viewBox="0 0 24 24" fill="none"><rect width="24" height="24" fill="none"/>
<path d="M13.75 6.01001C13.75 6.97651 12.9665 7.76001 12 7.76001C11.0335 7.76001 10.25 6.97651 10.25 6.01001C10.25 5.04351 11.0335 4.26001 12 4.26001C12.9665 4.26001 13.75 5.04351 13.75 6.01001Z" fill="black"/>
<path d="M13.75 12.01C13.75 12.9765 12.9665 13.76 12 13.76C11.0335 13.76 10.25 12.9765 10.25 12.01C10.25 11.0435 11.0335 10.26 12 10.26C12.9665 10.26 13.75 11.0435 13.75 12.01Z" fill="black"/>
<path d="M13.75 18.01C13.75 18.9765 12.9665 19.76 12 19.76C11.0335 19.76 10.25 18.9765 10.25 18.01C10.25 17.0435 11.0335 16.26 12 16.26C12.9665 16.26 13.75 17.0435 13.75 18.01Z" fill="black"/>
</svg>
