<svg xmlns="http://www.w3.org/2000/svg" width="24" height="24" viewBox="0 0 24 24" fill="none"><rect width="24" height="24" fill="none"/>
<path fill-rule="evenodd" clip-rule="evenodd" d="M4 2.50001C4 1.67159 4.67157 1.00001 5.5 1.00001L18.5 1C19.3284 0.999999 20 1.67157 20 2.5V20H17.8333L19.5 24H16L14.3333 20H9.66667L8 24H4.5L6.16667 20H4V2.50001ZM9 15.5C9 16.3284 8.32843 17 7.5 17C6.67157 17 6 16.3284 6 15.5C6 14.6716 6.67157 14 7.5 14C8.32843 14 9 14.6716 9 15.5ZM18 15.5C18 16.3284 17.3284 17 16.5 17C15.6716 17 15 16.3284 15 15.5C15 14.6716 15.6716 14 16.5 14C17.3284 14 18 14.6716 18 15.5Z" fill="black"/>
</svg>
