<svg xmlns="http://www.w3.org/2000/svg" width="24" height="24" viewBox="0 0 24 24" fill="none"><rect width="24" height="24" fill="none"/>
<path fill-rule="evenodd" clip-rule="evenodd" d="M12 10.0277C10.9513 8.23109 9.65792 6.11132 7.26518 6.11132C5.20405 6.11132 3.55449 7.76904 3.55449 9.78774C3.55449 10.8179 3.9795 11.7481 4.67433 12.4196L11.9993 19.9705L19.3246 12.4192C20.0201 11.7474 20.4455 10.8168 20.4455 9.78621C20.4455 7.76751 18.7959 6.10979 16.7347 6.10979C14.3414 6.10979 13.0705 8.22179 12 10.0277ZM11.9993 23.0008L3.19769 13.9398L3.20699 13.9378L3.20336 13.9343C3.20047 13.9315 3.19757 13.9287 3.19468 13.9259C2.65098 13.3973 2.21104 12.7637 1.90806 12.058C1.60877 11.3609 1.44312 10.5936 1.44312 9.78774C1.44312 6.59123 4.04974 3.99994 7.26518 3.99994C8.44581 3.99994 9.54438 4.34929 10.462 4.94968C11.0607 5.34142 11.5823 5.84003 11.9995 6.4182C12.4164 5.83988 12.9379 5.3411 13.5365 4.94917C14.4543 4.34816 15.5534 3.99841 16.7347 3.99841C19.9502 3.99841 22.5568 6.5897 22.5568 9.78621C22.5568 10.5906 22.3918 11.3567 22.0935 12.0527C21.7902 12.7604 21.3492 13.3958 20.804 13.9256C20.8011 13.9285 20.7981 13.9313 20.7952 13.9342L20.7914 13.9378L20.801 13.9398L11.9993 23.0008Z" fill="black"/>
</svg>
