<svg xmlns="http://www.w3.org/2000/svg" width="24" height="24" viewBox="0 0 24 24" fill="none"><rect width="24" height="24" fill="none"/>
<path d="M17 10V8H8V10H17Z" fill="black"/>
<path d="M14 14V12H8V14H14Z" fill="black"/>
<path fill-rule="evenodd" clip-rule="evenodd" d="M11.1667 20.8076C11.1667 21.2301 11.1667 21.4414 11.2988 21.6471C11.3915 21.7915 11.6125 21.9543 11.7778 22C12.0135 22.0652 12.1695 22.0168 12.4815 21.9199C17 20.3659 22 15.7826 22 10.3659C22 4.94926 17.8333 2.03259 12 2.03259C6.16667 2.03259 2 4.94926 2 10.3659C2 15.7826 6.16667 18.6752 11.1667 18.6752V20.8076ZM13.1667 16.6752H11.1667C9.03367 16.6752 7.22908 16.0574 5.99484 15.0205C4.80278 14.019 4 12.5132 4 10.3659C4 8.22492 4.79572 6.73525 6.05626 5.73423C7.37445 4.68744 9.38996 4.03259 12 4.03259C14.61 4.03259 16.6256 4.68744 17.9437 5.73423C19.2043 6.73525 20 8.22492 20 10.3659C20 12.4438 19.0372 14.4878 17.4484 16.2537C16.2198 17.6193 14.6909 18.7313 13.1667 19.4731V16.6752Z" fill="black"/>
</svg>
