<svg xmlns="http://www.w3.org/2000/svg" width="24" height="24" viewBox="0 0 24 24" fill="none"><rect width="24" height="24" fill="none"/>
<path d="M9.72156 7.09334L9.72106 7.0947L5.99908 3.37272L4.50002 4.87179L8.55554 8.92731C8.49734 8.9406 8.43743 8.94879 8.37637 8.95146L3.25912 9.17506C2.33507 9.21544 1.9564 10.3809 2.68023 10.9567L6.68874 14.1454C7.00277 14.3952 7.13706 14.8086 7.02984 15.1952L5.66118 20.1311C5.41404 21.0224 6.40543 21.7427 7.17673 21.2322L11.4481 18.4053C11.7827 18.1838 12.2173 18.1838 12.5519 18.4053L16.8233 21.2322C17.5946 21.7427 18.586 21.0224 18.3388 20.1311L17.7938 18.1656L21.0039 21.3757L22.503 19.8766L17.0629 14.4365L17.0636 14.4354L9.72156 7.09334Z" fill="black"/>
<path d="M18.5399 13.1681L21.3198 10.9567C22.0436 10.3809 21.6649 9.21544 20.7409 9.17506L15.6237 8.95146C15.2228 8.93394 14.8712 8.6785 14.7306 8.30265L12.9367 3.50495C12.6127 2.63861 11.3873 2.63861 11.0634 3.50495L10.4682 5.09646L18.5399 13.1681Z" fill="black"/>
</svg>
