<svg xmlns="http://www.w3.org/2000/svg" width="24" height="24" viewBox="0 0 24 24" fill="none"><rect width="24" height="24" fill="none"/>
<path d="M17 8V10H8V8H17Z" fill="black"/>
<path d="M14 12V14H8V12H14Z" fill="black"/>
<path fill-rule="evenodd" clip-rule="evenodd" d="M11.1667 20.775C11.1667 21.1975 11.1667 21.4088 11.2988 21.6146C11.3915 21.7589 11.6125 21.9217 11.7778 21.9674C12.0135 22.0326 12.1695 21.9842 12.4815 21.8873C17 20.3333 22 15.75 22 10.3333C22 4.91667 17.8333 2 12 2C6.16667 2 2 4.91667 2 10.3333C2 15.75 6.16667 18.6426 11.1667 18.6426V20.775ZM13.1667 18.6426C13.1667 17.538 12.2712 16.6426 11.1667 16.6426C9.03367 16.6426 7.22908 16.0248 5.99484 14.9879C4.80278 13.9864 4 12.4806 4 10.3333C4 8.19232 4.79572 6.70266 6.05626 5.70164C7.37445 4.65485 9.38996 4 12 4C14.61 4 16.6256 4.65485 17.9437 5.70164C19.2043 6.70266 20 8.19232 20 10.3333C20 12.4112 19.0372 14.4552 17.4484 16.2212C16.2198 17.5868 14.6909 18.6987 13.1667 19.4405V18.6426Z" fill="black"/>
</svg>
