<svg xmlns="http://www.w3.org/2000/svg" width="48" height="48" viewBox="0 0 48 48" fill="none"><rect width="48" height="48" fill="none"/>
<path fill-rule="evenodd" clip-rule="evenodd" d="M30.4 16.7209C30.4 12.5503 28.8 8.2998 24 8.2998C19.2 8.2998 17.6 12.4724 17.6 16.7209C17.6 20.9693 20.436 24.2998 24 24.2998C27.564 24.2998 30.4 20.8915 30.4 16.7209ZM40 33.7758C40 31.8316 39.0761 30.0156 37.2478 29.3543C34.8287 28.4791 30.6385 27.4998 24 27.4998C17.3615 27.4998 13.1713 28.4791 10.7522 29.3543C8.92393 30.0156 8 31.8316 8 33.7758V34.3569C8.10488 35.948 8.80361 36.898 9.87382 38.0518C12.1255 40.4795 16.8741 43.4998 24 43.4998C31.8086 43.4998 36.3996 40.2887 38.4146 37.88C39.2979 36.8241 39.9084 35.7467 40 34.3569V33.7758Z" fill="black"/>
</svg>
