<svg xmlns="http://www.w3.org/2000/svg" width="24" height="24" viewBox="0 0 24 24" fill="none"><rect width="24" height="24" fill="none"/>
<path d="M9.57124 3.99978C8.93041 3.99992 8.3606 4.4062 8.14752 5.01057C7.36236 7.23751 6.00001 11 6.00001 11H18C18 11 16.6377 7.23751 15.8525 5.01057C15.6394 4.4062 15.0696 3.99992 14.4288 3.99978C12.8096 3.99942 11.1904 3.99942 9.57124 3.99978Z" fill="black"/>
<path d="M14.9704 13C14.5478 13 14.1708 13.2656 14.0287 13.6636L12.48 18H11.5201L9.97136 13.6636C9.82922 13.2656 9.45223 13 9.02962 13H3.78657C3.36396 13 2.98697 13.2656 2.84483 13.6636C2.27137 15.2693 0.500092 20 0.500092 20H23.5C23.5 20 21.7286 15.2692 21.1552 13.6636C21.0131 13.2656 20.6361 13 20.2135 13H14.9704Z" fill="black"/>
</svg>
