<svg xmlns="http://www.w3.org/2000/svg" width="24" height="24" viewBox="0 0 24 24" fill="none"><rect width="24" height="24" fill="none"/>
<path fill-rule="evenodd" clip-rule="evenodd" d="M16.6554 5.65633C19.4511 5.65072 21.7207 6.75531 22.3416 8.68435C22.9699 10.6366 21.7405 12.9076 19.4223 14.5675C20.2394 17.2015 19.8853 19.6605 18.2859 20.8336C16.6801 22.0114 14.2411 21.5835 12.0049 19.9693C9.76863 21.5835 7.32968 22.0114 5.72391 20.8336C4.12447 19.6605 3.77033 17.2015 4.58748 14.5675C2.26924 12.9076 1.03986 10.6366 1.66821 8.68435C2.28897 6.75566 4.5578 5.65113 7.35279 5.65633C8.19589 2.89841 9.96195 1 12.0041 1C14.0462 1 15.8123 2.89841 16.6554 5.65633ZM12.001 15C13.6578 15 15.001 13.6569 15.001 12C15.001 10.3431 13.6578 9 12.001 9C10.3441 9 9.00098 10.3431 9.00098 12C9.00098 13.6569 10.3441 15 12.001 15Z" fill="black"/>
</svg>
