<svg width="24" height="24" viewBox="0 0 24 24" fill="none" xmlns="http://www.w3.org/2000/svg">
<path d="M4.16128 5.03552L1.5 17.4546H6.92825L8.90207 11.7959C9.18224 10.9927 9.93982 10.4546 10.7905 10.4546H13.2039C14.0541 10.4546 14.8114 10.9921 15.0919 11.7947L15.3225 12.4546H16.4948L18.4895 12.4441C18.5617 12.4437 18.6335 12.4473 18.7047 12.4546H20.4286L18.8388 5.03553C18.6412 4.11339 17.8263 3.45459 16.8832 3.45459L6.11688 3.45459C5.17381 3.45459 4.35888 4.11338 4.16128 5.03552Z" fill="black"/>
<path fill-rule="evenodd" clip-rule="evenodd" d="M13.2039 12.4546L16 20.4546H13.8814L13.3571 18.9546L10.6414 18.9546L10.1182 20.4546H7.99999L10.7905 12.4546L13.2039 12.4546ZM11.1646 17.4546L12.8328 17.4546L11.9979 15.0657L11.1646 17.4546Z" fill="black"/>
<path d="M20.5 14.4546L22.5 14.4546V20.4546H20.5V19.4071C20.2126 20.131 19.671 20.5455 18.7426 20.5455C17.4384 20.5455 16.5 19.6889 16.5 18.2686V14.4546L18.5 14.4441V17.5688C18.5 18.3204 18.8808 18.7183 19.5108 18.7183C20.1795 18.7183 20.5 18.2652 20.5 17.5467V14.4546Z" fill="black"/>
</svg>
