<svg xmlns="http://www.w3.org/2000/svg" width="24" height="24" viewBox="0 0 24 24" fill="none"><rect width="24" height="24" fill="none"/>
<path d="M11.0634 3.50494C11.3873 2.63859 12.6127 2.63859 12.9367 3.50494L14.7306 8.30263C14.8712 8.67848 15.2228 8.93392 15.6237 8.95144L20.7409 9.17504C21.6649 9.21542 22.0436 10.3809 21.3198 10.9567L17.3113 14.1454C16.9973 14.3952 16.863 14.8085 16.9702 15.1952L18.3388 20.1311C18.586 21.0224 17.5946 21.7427 16.8233 21.2322L12.5519 18.4053C12.2173 18.1838 11.7827 18.1838 11.4481 18.4053L7.17673 21.2322C6.40543 21.7427 5.41404 21.0224 5.66118 20.1311L7.02984 15.1952C7.13706 14.8085 7.00277 14.3952 6.68874 14.1454L2.68023 10.9567C1.9564 10.3809 2.33507 9.21542 3.25912 9.17504L8.37637 8.95144C8.77725 8.93392 9.12884 8.67848 9.26938 8.30263L11.0634 3.50494Z" fill="black"/>
</svg>
