<svg width="24" height="24" viewBox="0 0 24 24" fill="none" xmlns="http://www.w3.org/2000/svg">
<path d="M1.5 17.453L4.16128 5.03394C4.35888 4.1118 5.17381 3.453 6.11688 3.453L16.8832 3.453C17.8263 3.453 18.6412 4.11181 18.8388 5.03395L19.8372 9.69292C18.5022 10.0945 17.3812 11.0003 17.011 12.4102C16.8573 12.1934 16.6831 11.9886 16.4882 11.798C15.5535 10.8838 14.3034 10.453 13.0038 10.453H9.49998C8.39541 10.453 7.49998 11.3484 7.49998 12.453L7.49998 17.453H1.5Z" fill="black"/>
<path fill-rule="evenodd" clip-rule="evenodd" d="M18.6481 20.547C19.5047 20.547 20.196 20.1546 20.5 19.4914V20.453H22.5V11.953L20.5 11.953V15.2914H20.4387C20.1347 14.6117 19.4716 14.2082 18.6481 14.2082C17.1118 14.2082 16.1778 15.4019 16.1778 17.3638C16.1778 19.3422 17.1063 20.547 18.6481 20.547ZM19.3666 15.7446C20.1071 15.7446 20.5 16.369 20.5 17.3804C20.5 18.3972 20.1126 19.0106 19.3666 19.0106C18.6205 19.0106 18.1839 18.3972 18.1839 17.3748C18.1839 16.3635 18.626 15.7446 19.3666 15.7446Z" fill="black"/>
<path fill-rule="evenodd" clip-rule="evenodd" d="M9.49998 20.453H11.5V17.953L12.8818 17.953C14.6615 17.953 15.8867 16.9935 15.8867 15.2915C15.8867 13.5729 14.7224 12.453 13.0038 12.453L9.49998 12.453L9.49998 20.453ZM11.5 13.953L12.466 13.953C13.3253 13.953 13.9285 14.2981 13.9285 15.1408C13.9285 15.9724 13.3198 16.453 12.4549 16.453L11.5 16.453V13.953Z" fill="black"/>
</svg>
