<svg width="24" height="24" viewBox="0 0 24 24" fill="none" xmlns="http://www.w3.org/2000/svg">
<path d="M2 17L4.66128 4.58093C4.85888 3.6588 5.67381 3 6.61688 3L17.3832 3C18.3263 3 19.1412 3.6588 19.3388 4.58094L20.5 10C16.9727 10 13.5191 10 10 10C8.89543 10 8 10.8954 8 12L8 17H2Z" fill="black"/>
<path d="M18 12V14H17V15.4614H18V18.2941C18 19.5054 18.639 20 20.2672 20C20.6395 20 21.2944 19.9667 21.5 19.9222V18.5C21.5 18.5 20.9395 18.5278 20.7117 18.5278C20.2005 18.5278 20 18.3219 20 17.8551V15.4614H21.5V14H20V12H18Z" fill="black"/>
<path fill-rule="evenodd" clip-rule="evenodd" d="M10 20H12V17.5L13.3818 17.5C15.1615 17.5 16.3867 16.5405 16.3867 14.8385C16.3867 13.1199 15.2225 12 13.5038 12L10 12L10 20ZM12 13.5L12.966 13.5C13.8254 13.5 14.4285 13.8451 14.4285 14.6878C14.4285 15.5194 13.8198 16 12.955 16L12 16V13.5Z" fill="black"/>
</svg>
