<svg width="24" height="24" viewBox="0 0 24 24" fill="none" xmlns="http://www.w3.org/2000/svg">
<path d="M1 16.6666L3.66128 4.24756C3.85888 3.32542 4.67381 2.66663 5.61688 2.66663L16.3832 2.66663C17.3263 2.66663 18.1412 3.32543 18.3388 4.24757L19.8215 11.167L18.1769 11.1667C17.0177 11.1667 15.9121 11.5562 15.0758 12.3914L14.5919 11.0067C14.3114 10.2041 13.5541 9.66663 12.7039 9.66663H10.2905C9.43982 9.66663 8.68223 10.2047 8.40207 11.0079L6.42824 16.6666H1Z" fill="black"/>
<path fill-rule="evenodd" clip-rule="evenodd" d="M10.2905 11.6666L12.7039 11.6666L15.5 19.6666H13.3814L12.8571 18.1666L10.1414 18.1666L9.61818 19.6666H7.5L10.2905 11.6666ZM10.6646 16.6666L12.3328 16.6666L11.4979 14.2778L10.6646 16.6666Z" fill="black"/>
<path fill-rule="evenodd" clip-rule="evenodd" d="M22 19.6195C22 21.084 20.7688 22.1666 18.8125 22.1666C17.0993 22.1666 15.9443 21.2719 15.8669 20.1666L17.768 20.1666C17.8399 20.4982 18.2543 20.7082 18.8678 20.7082C19.6193 20.7082 20 20.3545 20 19.7466V18.5583H19.9454C19.6304 19.1938 19.0059 19.5254 18.1327 19.5254C16.6241 19.5254 15.6846 18.0575 15.6846 16.2062C15.6846 14.272 16.6241 13.1667 18.177 13.1667C18.9949 13.1667 19.6905 13.4817 20 14.1559V13.1667L22 13.1667V19.6195ZM17.6292 16.2007C17.6292 17.1844 18.0602 18.0885 18.8063 18.0885C19.5579 18.0885 20 17.1899 20 16.2062C20 15.217 19.5524 14.703 18.8063 14.703C18.0658 14.703 17.6292 15.217 17.6292 16.2007Z" fill="black"/>
</svg>
