<svg xmlns="http://www.w3.org/2000/svg" width="25" height="25" viewBox="0 0 25 25" fill="none"><rect width="25" height="25" fill="none"/>
<path d="M9.7728 14.0249H8.4561L9.04413 11.7212H9.18473L9.7728 14.0249Z" fill="#F6BF65"/>
<path fill-rule="evenodd" clip-rule="evenodd" d="M4.15571 6.74477L1.11426 20.938H23.1143L20.0728 6.74478C19.847 5.6909 18.9156 4.93799 17.8378 4.93799H6.39069C5.31289 4.93799 4.38155 5.6909 4.15571 6.74477ZM7.8305 9.93799L5.61472 16.938H7.71252L8.08443 15.481H10.1445L10.5164 16.938H12.6142L10.3983 9.93799H7.8305ZM18.6142 11.6948H16.6126V14.5943C16.6126 15.1308 16.3268 15.4804 15.8386 15.4804C15.3699 15.4804 15.0526 15.1595 15.0526 14.5943V11.6948H13.0781V15.0781C13.0781 16.3139 13.9081 17.0707 15.0504 17.0707C15.8755 17.0707 16.3148 16.7019 16.5638 16.0552H16.6614V16.9366H18.6142V11.6948Z" fill="#F6BF65"/>
</svg>
