<svg width="24" height="24" viewBox="0 0 24 24" fill="none" xmlns="http://www.w3.org/2000/svg">
<path d="M14.1782 8.36981C12.2833 8.36981 10.744 9.54077 10.3605 10.0259V8.61874H7V23.0004H10.3402V17.8848C10.7339 18.3801 12.263 19.5308 14.168 19.5308C17.3329 19.5308 19.0728 17.8111 19.0728 13.9452C19.0728 10.0869 17.3329 8.36981 14.1782 8.36981ZM12.9818 16.7418C10.9853 16.7418 10.3656 16.0153 10.3656 13.9274C10.3656 11.8293 10.9879 11.1131 12.9818 11.1131C14.9884 11.1131 15.5879 11.8293 15.5879 13.9274C15.5904 16.0179 14.9884 16.7418 12.9818 16.7418Z" fill="#00274F"/>
<path d="M7 2.80467V6.41915L18.6283 5.35741V1.40002L7 2.80467Z" fill="#E4003A"/>
</svg>
