<svg xmlns="http://www.w3.org/2000/svg" width="20" height="20" viewBox="0 0 20 20" fill="none"><rect width="20" height="20" fill="none"/>
<path d="M7.97418 2.28045C9.05286 1.06728 10.9483 1.06721 12.0269 2.28045C12.4152 2.71719 12.935 3.01709 13.5074 3.13494C15.0975 3.46251 16.0463 5.10485 15.5347 6.64568L15.4742 6.85564C15.3533 7.34963 15.3735 7.86923 15.5347 8.35467C15.8519 9.31032 15.6064 10.3044 14.9957 11.0002H15.0006V17.0002C15.0005 17.33 14.8371 17.639 14.565 17.8254C14.293 18.0114 13.9465 18.0517 13.6392 17.9328L10.1226 16.5676L6.34137 17.9406C6.0351 18.0516 5.69319 18.0063 5.42633 17.8195C5.15936 17.6324 5.00062 17.3262 5.00055 17.0002V11.0002H5.00446C4.39367 10.3044 4.14909 9.31037 4.46637 8.35467C4.62754 7.8693 4.64775 7.34957 4.52692 6.85564L4.46637 6.64568C3.97074 5.15288 4.84529 3.56454 6.34626 3.16912L6.49372 3.13494C6.99452 3.03176 7.4546 2.78924 7.82184 2.43768L7.97418 2.28045ZM13.0006 12.0236C12.6302 12.1797 12.2968 12.4163 12.0269 12.7199L11.9244 12.8303C10.8668 13.897 9.13447 13.8968 8.07672 12.8303L7.97418 12.7199C7.70447 12.4165 7.37065 12.1797 7.00055 12.0236V15.5724L9.79352 14.5597L9.87946 14.5334C10.0827 14.4798 10.2993 14.491 10.4966 14.5676L13.0006 15.5392V12.0236ZM10.5328 3.60955C10.2497 3.29106 9.75145 3.29112 9.46833 3.60955C8.79369 4.36843 7.89156 4.88909 6.89704 5.09393C6.47963 5.17984 6.23051 5.61136 6.36481 6.0158C6.68464 6.97948 6.68471 8.02088 6.36481 8.98455C6.23056 9.38898 6.47965 9.82051 6.89704 9.90643C7.89153 10.1113 8.79371 10.6319 9.46833 11.3908C9.75148 11.709 10.2498 11.7092 10.5328 11.3908C11.2075 10.6319 12.1094 10.1112 13.1041 9.90643C13.5211 9.82035 13.7703 9.38878 13.6363 8.98455C13.3164 8.0208 13.3164 6.97956 13.6363 6.0158C13.7705 5.6115 13.5212 5.18006 13.1041 5.09393C12.1095 4.88917 11.2075 4.36835 10.5328 3.60955Z" fill="#000000"/>
</svg>
