<svg xmlns="http://www.w3.org/2000/svg" width="20" height="20" viewBox="0 0 20 20" fill="none"><rect width="20" height="20" fill="none"/>
<path d="M14 10C16.2091 10 18 11.7909 18 14C18 14.7417 17.7971 15.4358 17.4453 16.0312L19.207 17.793L17.793 19.207L16.0312 17.4453C15.4358 17.7971 14.7417 18 14 18C11.7909 18 10 16.2091 10 14C10 11.7909 11.7909 10 14 10ZM14 12C12.8954 12 12 12.8954 12 14C12 15.1046 12.8954 16 14 16C15.1046 16 16 15.1046 16 14C16 12.8954 15.1046 12 14 12Z" fill="#000000"/>
<path d="M10 2C13.6489 2 16.7251 4.44361 17.6865 7.7832C17.6944 7.81082 17.7023 7.83847 17.71 7.86621C17.8116 8.23427 17.8876 8.61286 17.9365 9H14.0908C13.1027 8.99987 12.1658 8.56083 11.5332 7.80176C10.6289 6.7165 10.5447 5.25659 11.1494 4.11133C10.7773 4.03912 10.3932 4 10 4C8.58049 4 7.27642 4.49333 6.24902 5.31738C8.11419 5.89433 9.35145 7.75343 9.10156 9.75293C9.00285 10.5426 8.63057 11.2797 8.04785 11.8271C7.81218 12.0486 7.72949 12.3883 7.83691 12.6934L8.9707 15.9092C8.9804 15.9109 8.99029 15.9115 9 15.9131V17.9346C5.05382 17.4425 2 14.0795 2 10C2 5.58172 5.58172 2 10 2ZM4.75293 7.08984C4.2738 7.95188 4 8.94382 4 10C4 11.9976 4.97714 13.7659 6.47852 14.8564L5.95117 13.3584C5.5801 12.3058 5.86521 11.1333 6.67871 10.3691C6.91892 10.1434 7.07487 9.83558 7.11621 9.50488C7.26194 8.33906 6.42542 7.27578 5.27051 7.14746L4.75293 7.08984ZM13.0566 4.83594C12.673 5.31165 12.6494 6.01747 13.0693 6.52148C13.3219 6.82457 13.6963 6.99987 14.0908 7H15.1953C14.6794 6.10845 13.9421 5.36116 13.0566 4.83594Z" fill="#000000"/>
</svg>
