<svg xmlns="http://www.w3.org/2000/svg" width="20" height="20" viewBox="0 0 20 20" fill="none"><rect width="20" height="20" fill="none"/>
<path d="M10.75 3.0791C13.0247 3.49141 14.7498 5.48145 14.75 7.875V10.1924C14.7501 10.3004 14.7705 10.4076 14.8105 10.5078L16.1963 13.9717C16.2887 14.2027 16.2606 14.4648 16.1211 14.6709C15.9815 14.8767 15.7487 15 15.5 15H12.75C12.75 16.5188 11.5188 17.75 10 17.75C8.48122 17.75 7.25 16.5188 7.25 15H4.5C4.25906 14.9999 4.0325 14.8839 3.8916 14.6885C3.75083 14.493 3.71198 14.2413 3.78809 14.0127L4.95605 10.5098C4.98494 10.4231 4.99999 10.3316 5 10.2402V7.875C5.00005 5.39467 6.8531 3.34811 9.25 3.04102V1H10.75V3.0791ZM8.75 15C8.75 15.6904 9.30964 16.25 10 16.25C10.6904 16.25 11.25 15.6904 11.25 15H8.75ZM9.875 4.5C8.01126 4.50024 6.50005 6.01126 6.5 7.875V10.2402C6.50001 10.4928 6.45874 10.7438 6.37891 10.9834L5.54102 13.5H14.3926L13.418 11.0645C13.3071 10.7871 13.2501 10.4911 13.25 10.1924V7.875C13.2499 6.0112 11.7388 4.50012 9.875 4.5Z" fill="#000000"/>
<path d="M13.8057 1.24805C15.8849 2.42252 17.3664 4.52921 17.6846 7.00098L16.1719 7.00879C15.8674 5.09814 14.6966 3.47688 13.0752 2.55859L13.8057 1.24805Z" fill="#000000"/>
<path d="M6.92578 2.55762C5.30465 3.47531 4.13438 5.09603 3.8291 7.00586L2.31543 6.99805C2.63449 4.52674 4.11682 2.42089 6.19629 1.24707L6.92578 2.55762Z" fill="#000000"/>
</svg>
