<svg xmlns="http://www.w3.org/2000/svg" width="24" height="24" viewBox="0 0 24 24" fill="none"><rect width="24" height="24" fill="none"/>
<path d="M18.5547 12.9998C18.808 12.9999 19.0295 13.1716 19.0928 13.4168L19.2988 14.2157C19.8156 14.393 20.2849 14.6735 20.6816 15.0321L21.5684 14.786C21.8095 14.7193 22.0653 14.822 22.1934 15.0369L22.7334 15.9432C22.867 16.1675 22.8263 16.4542 22.6357 16.6326L21.9365 17.2879C21.978 17.519 22 17.7568 22 17.9998C22 18.2428 21.978 18.4807 21.9365 18.7117L22.6357 19.367C22.8263 19.5455 22.8671 19.8331 22.7334 20.0574L22.1934 20.9627C22.0652 21.1776 21.8095 21.2804 21.5684 21.2137L20.6816 20.9686C20.2849 21.3271 19.8155 21.6067 19.2988 21.784L19.0928 22.5828C19.0295 22.8281 18.808 22.9998 18.5547 22.9998H17.4434C17.19 22.9998 16.9686 22.8281 16.9053 22.5828L16.6982 21.783C16.1825 21.6056 15.7144 21.3257 15.3184 20.9676L14.4297 21.2137C14.1885 21.2805 13.9319 21.1777 13.8037 20.9627L13.2637 20.0574C13.13 19.8331 13.1707 19.5455 13.3613 19.367L14.0625 18.7098C14.0212 18.4794 14 18.2421 14 17.9998C14 17.7576 14.0212 17.5203 14.0625 17.2899L13.3613 16.6326C13.1709 16.4542 13.1302 16.1674 13.2637 15.9432L13.8037 15.0369C13.9319 14.8219 14.1885 14.7191 14.4297 14.786L15.3184 15.0321C15.7144 14.674 16.1825 14.3941 16.6982 14.2166L16.9053 13.4168C16.9686 13.1715 17.19 12.9998 17.4434 12.9998H18.5547ZM18 16.4989C17.1707 16.4989 16.4982 17.1706 16.498 17.9998C16.498 18.8292 17.1706 19.5018 18 19.5018C18.8293 19.5017 19.502 18.8291 19.502 17.9998C19.5018 17.1707 18.8292 16.499 18 16.4989Z" fill="#000000"/>
<path d="M9.40332 2.1971C9.65676 2.00879 9.98464 1.95121 10.2871 2.04182L21 5.25569V10.9998H19V6.74397L11 4.34358V20.9998H3V10.9998L9 8.74983V2.99983L9.00684 2.88264C9.03891 2.61136 9.18142 2.3622 9.40332 2.1971ZM5 12.3856V18.9998H9V10.8856L5 12.3856Z" fill="#000000"/>
</svg>
