<svg xmlns="http://www.w3.org/2000/svg" width="20" height="20" viewBox="0 0 20 20" fill="none"><rect width="20" height="20" fill="none"/>
<path d="M19.0005 12.5C19.0023 12.5178 19.492 17.5025 15.0005 19L14.5933 18.8496C11.0553 17.4065 10.9548 13.6604 10.9878 12.7178L11.0005 12.5L15.0005 11L19.0005 12.5ZM13.0571 13.8643C13.0941 14.098 13.1482 14.3495 13.2261 14.6055C13.4832 15.4501 13.9721 16.2941 15.0005 16.833C16.0287 16.294 16.5178 15.45 16.7749 14.6055C16.8528 14.3496 16.905 14.098 16.9419 13.8643L15.0005 13.1357L13.0571 13.8643Z" fill="#000000"/>
<path d="M9.00049 13.5635C7.15126 13.8034 6.20692 14.7014 5.68994 15.5293C5.37141 16.0396 5.19595 16.5577 5.10107 16.9521C5.05407 17.1477 5.02809 17.3085 5.01416 17.415C5.00724 17.468 5.0025 17.5071 5.00049 17.5303C4.99949 17.5418 4.99972 17.5496 4.99951 17.5527V17.5498L3.00146 17.4502V17.4463C3.00158 17.4442 3.00228 17.4412 3.00244 17.4385C3.00275 17.4331 3.00291 17.4266 3.00342 17.4189C3.00448 17.4032 3.00613 17.3824 3.0083 17.3574C3.01265 17.3073 3.01984 17.2388 3.03076 17.1553C3.05257 16.9885 3.09019 16.7582 3.15576 16.4854C3.28627 15.9425 3.53121 15.21 3.99268 14.4707C4.84684 13.1025 6.38422 11.813 9.00049 11.5498V13.5635Z" fill="#000000"/>
<path d="M9.99951 2C12.2087 2 13.9995 3.79086 13.9995 6C13.9995 8.20914 12.2087 10 9.99951 10C7.79054 9.99981 5.99951 8.20902 5.99951 6C5.99951 3.79098 7.79054 2.00019 9.99951 2ZM9.99951 4C8.89511 4.00019 7.99951 4.89555 7.99951 6C7.99951 7.10445 8.89511 7.99981 9.99951 8C11.1041 8 11.9995 7.10457 11.9995 6C11.9995 4.89543 11.1041 4 9.99951 4Z" fill="#000000"/>
</svg>
