<svg xmlns="http://www.w3.org/2000/svg" width="20" height="20" viewBox="0 0 20 20" fill="none"><rect width="20" height="20" fill="none"/>
<path d="M11.293 2.29299C11.6045 1.98146 12.0832 1.91041 12.4717 2.11819C12.8602 2.32612 13.0669 2.76421 12.9805 3.19632L12.1299 7.44632L15.4473 9.10549C15.7348 9.24924 15.9358 9.52259 15.9873 9.83987C16.0388 10.1571 15.9343 10.4798 15.707 10.7071L8.70704 17.7071C8.3955 18.0186 7.91682 18.0897 7.52833 17.8819C7.13982 17.6739 6.93312 17.2358 7.01954 16.8037L7.86915 12.5528L4.55275 10.8946C4.26525 10.7508 4.06419 10.4775 4.01271 10.1602C3.96125 9.84292 4.06571 9.52027 4.29298 9.29299L11.293 2.29299ZM6.68751 9.72561L9.44728 11.1055C9.85061 11.3072 10.0689 11.7541 9.98048 12.1963L9.62794 13.9571L13.3115 10.2735L10.5527 8.89456C10.1494 8.69288 9.9311 8.24592 10.0195 7.80374L10.3711 6.04202L6.68751 9.72561Z" fill="#000000"/>
</svg>
