<svg xmlns="http://www.w3.org/2000/svg" width="24" height="24" viewBox="0 0 24 24" fill="none"><rect width="24" height="24" fill="none"/>
<path d="M9.81268 2.33177C10.9977 1.0687 13.0035 1.06884 14.1887 2.33177L14.8478 3.03392C15.2787 3.49317 15.8431 3.80592 16.4611 3.9265L17.2805 4.08568C19.0754 4.43571 20.1421 6.29733 19.5373 8.02318L19.3683 8.50756L19.2941 8.75072C19.1464 9.32375 19.1714 9.92988 19.3683 10.4919L19.5373 10.9763C20.1171 12.6305 19.161 14.4079 17.5002 14.8611V20.9997C17.5002 21.3212 17.3459 21.6233 17.0851 21.8113C16.8244 21.9991 16.4887 22.0496 16.1838 21.948L12.0002 20.5535L7.81659 21.948C7.51172 22.0495 7.1759 21.9992 6.91522 21.8113C6.6547 21.6233 6.50018 21.321 6.50018 20.9997V14.8611C4.84006 14.4073 3.88344 12.63 4.46307 10.9763L4.63299 10.4919C4.82997 9.92986 4.85498 9.32378 4.70721 8.75072L4.63299 8.50756L4.46307 8.02318C3.8773 6.35145 4.86032 4.552 6.55389 4.12279L6.72089 4.08568L7.54022 3.9265C8.15836 3.80594 8.72259 3.49322 9.1535 3.03392L9.81268 2.33177ZM8.50018 19.612L11.6838 18.5515L11.84 18.5124C11.9986 18.4867 12.1626 18.5003 12.3166 18.5515L15.5002 19.612V15.4431C15.2612 15.5858 15.0406 15.7601 14.8478 15.9656L14.1887 16.6677L14.0754 16.7829C12.8792 17.9301 10.9607 17.8914 9.81268 16.6677L9.1535 15.9656C8.96015 15.7595 8.74006 15.5829 8.50018 15.4402V19.612ZM12.7297 3.69994C12.3347 3.27942 11.6666 3.27932 11.2717 3.69994L10.6125 4.40306C9.89432 5.16848 8.95321 5.68848 7.92303 5.88939L7.1037 6.04857C6.50561 6.1653 6.14949 6.78595 6.35077 7.36107L6.52069 7.84545C6.89593 8.91604 6.8959 10.0834 6.52069 11.154L6.35077 11.6384C6.1493 12.2136 6.50557 12.8341 7.1037 12.9509L7.92303 13.1101C8.95311 13.311 9.89434 13.8311 10.6125 14.5964L11.2717 15.2995C11.6667 15.7202 12.3347 15.7203 12.7297 15.2995L13.3889 14.5964C14.107 13.8311 15.0482 13.311 16.0783 13.1101L16.8976 12.9509C17.4959 12.8343 17.852 12.2136 17.6506 11.6384L17.4807 11.154C17.1055 10.0835 17.1054 8.91599 17.4807 7.84545L17.6506 7.36107C17.8519 6.78587 17.4959 6.16523 16.8976 6.04857L16.0783 5.88939C15.0482 5.68846 14.107 5.16842 13.3889 4.40306L12.7297 3.69994Z" fill="#000000"/>
</svg>
