<svg xmlns="http://www.w3.org/2000/svg" width="20" height="20" viewBox="0 0 20 20" fill="none"><rect width="20" height="20" fill="none"/>
<path d="M7.5 3.25C7.66835 3.25 7.83501 3.25842 8 3.27148V4.77539C7.8357 4.75821 7.66885 4.75 7.5 4.75C4.87665 4.75 2.75 6.87665 2.75 9.5C2.75 12.1234 4.87665 14.25 7.5 14.25C9.20595 14.25 10.7014 13.3504 11.5391 12H13.2275C13.014 12.4872 12.7405 12.9423 12.416 13.3555L16.0303 16.9697L14.9697 18.0303L11.3555 14.416C10.2932 15.2503 8.95553 15.75 7.5 15.75C4.04822 15.75 1.25 12.9518 1.25 9.5C1.25 6.04822 4.04822 3.25 7.5 3.25ZM13.5 1C13.7761 1.00002 13.9968 1.22489 14.0205 1.5C14.1959 3.53675 15.4628 4.80303 17.5 4.97852C17.7751 5.00221 18.0001 5.22383 18 5.5C17.9999 5.77607 17.775 5.99684 17.5 6.02051C15.4629 6.19593 14.196 7.46311 14.0205 9.5C13.9969 9.77504 13.776 9.99986 13.5 10C13.2238 10 13.0022 9.77512 12.9785 9.5C12.8031 7.46326 11.5367 6.19604 9.5 6.02051C9.22498 5.9968 9.00002 5.77609 9 5.5C9.0001 5.22391 9.22501 5.00221 9.5 4.97852C11.5365 4.80306 12.8031 3.53676 12.9785 1.5C13.0022 1.22487 13.2238 1.00001 13.5 1Z" fill="#000000"/>
</svg>
