<svg xmlns="http://www.w3.org/2000/svg" width="20" height="20" viewBox="0 0 20 20" fill="none"><rect width="20" height="20" fill="none"/>
<path d="M19 12.5001C19 12.5198 18.9921 17.503 15 19.0001C11.0079 17.503 11 12.5198 11 12.5001L15 11.0001L19 12.5001ZM12.6084 13.4981C12.6706 13.852 12.7677 14.2652 12.917 14.6944C13.2805 15.7394 13.9053 16.7542 15 17.3536C16.0947 16.7542 16.7195 15.7394 17.083 14.6944C17.2322 14.2653 17.3284 13.8519 17.3906 13.4981L15 12.6016L12.6084 13.4981Z" fill="#000000"/>
<path d="M6.77441 2.41999C6.94818 2.27753 7.17713 2.22065 7.39746 2.26471L18 4.38483V9.00006H16.5V5.61432L8 3.91413V16.5001H9V18.0001H2V8.00006L6.5 7.25006V3.00006L6.50488 2.91608C6.52663 2.72307 6.62254 2.54454 6.77441 2.41999ZM3.5 9.27057V16.5001H6.5V8.77057L3.5 9.27057Z" fill="#000000"/>
</svg>
