<svg xmlns="http://www.w3.org/2000/svg" width="20" height="20" viewBox="0 0 20 20" fill="none"><rect width="20" height="20" fill="none"/>
<path d="M16.5029 11.1934L16.5068 11.1973C16.5086 11.1989 16.511 11.2007 16.5137 11.2031C16.5194 11.2084 16.5274 11.2155 16.5371 11.2246C16.5567 11.2428 16.5841 11.2688 16.6182 11.3018C16.6865 11.3678 16.7819 11.4634 16.8955 11.583C17.1219 11.8214 17.4246 12.1626 17.7285 12.5742C18.3151 13.3686 19 14.5482 19 15.8125C19 16.3879 18.7887 17.1503 18.334 17.7832C17.8608 18.4418 17.0889 19 16 19C14.9112 18.9999 14.1393 18.4417 13.666 17.7832C13.2113 17.1504 13 16.3879 13 15.8125C13 14.5482 13.6849 13.3686 14.2715 12.5742C14.5754 12.1627 14.8781 11.8214 15.1045 11.583C15.2181 11.4634 15.3135 11.3678 15.3818 11.3018C15.416 11.2687 15.4443 11.2429 15.4639 11.2246C15.4734 11.2158 15.4807 11.2083 15.4863 11.2031C15.4892 11.2005 15.4923 11.1979 15.4941 11.1963L15.4971 11.1934C15.4971 11.1934 15.4977 11.1932 15.8496 11.583L15.4971 11.1934L16 10.7393L16.5029 11.1934ZM16 12.8291C15.841 13.0074 15.6583 13.2215 15.4785 13.4648C14.9401 14.1939 14.5 15.0457 14.5 15.8125C14.5 16.076 14.6136 16.5322 14.8838 16.9082C15.1356 17.2586 15.489 17.4999 16 17.5C16.5111 17.5 16.8645 17.2586 17.1162 16.9082C17.3863 16.5322 17.5 16.0761 17.5 15.8125C17.5 15.0457 17.0598 14.1939 16.5215 13.4648C16.3417 13.2214 16.159 13.0074 16 12.8291Z" fill="#000000"/>
<path d="M17.0498 7.08691V9H15.5498V7.91113L10 4.3877L4.4502 7.91113V15.5498H11V17.0498H2.9502V7.08789L9.59863 2.86719L10 2.61133L17.0498 7.08691Z" fill="#000000"/>
</svg>
