<svg xmlns="http://www.w3.org/2000/svg" width="24" height="24" viewBox="0 0 24 24" fill="none"><rect width="24" height="24" fill="none"/>
<path d="M4 18C4 19.1046 4.89543 20 6 20H8V22H6C3.79086 22 2 20.2091 2 18V16H4V18Z" fill="#000000"/>
<path d="M22 18C22 20.2091 20.2091 22 18 22H16V20H18C19.1046 20 20 19.1046 20 18V16H22V18Z" fill="#000000"/>
<path d="M12 13C13.0253 13 14.2159 13.293 15.1797 13.9062C16.1594 14.5297 17 15.5594 17 17V18H15V17C15 16.4407 14.6979 15.9703 14.1064 15.5938C13.4988 15.2071 12.689 15 12 15C11.2787 15 10.4869 15.1795 9.90918 15.5625C9.37933 15.9138 9.00012 16.4462 9 17.333V18H7V17.333C7.00014 15.7203 7.76343 14.5858 8.80469 13.8955C9.79833 13.2369 11.007 13 12 13Z" fill="#000000"/>
<path d="M12 6C13.6569 6 15 7.34315 15 9C15 10.6569 13.6569 12 12 12C10.3431 12 9 10.6569 9 9C9 7.34315 10.3431 6 12 6ZM12 8C11.4477 8 11 8.44772 11 9C11 9.55228 11.4477 10 12 10C12.5523 10 13 9.55228 13 9C13 8.44772 12.5523 8 12 8Z" fill="#000000"/>
<path d="M8 4H6C4.89543 4 4 4.89543 4 6V8H2V6C2 3.79086 3.79086 2 6 2H8V4Z" fill="#000000"/>
<path d="M18 2C20.2091 2 22 3.79086 22 6V8H20V6C20 4.89543 19.1046 4 18 4H16V2H18Z" fill="#000000"/>
</svg>
