<svg xmlns="http://www.w3.org/2000/svg" width="20" height="20" viewBox="0 0 20 20" fill="none"><rect width="20" height="20" fill="none"/>
<path d="M19 12.5C19.0007 12.5069 19.4969 17.501 15 19L14.5928 18.8496C11.0549 17.4065 10.9544 13.6604 10.9873 12.7178L11 12.5L15 11L19 12.5ZM13.0566 13.8643C13.0936 14.0981 13.1477 14.3495 13.2256 14.6055C13.4827 15.4501 13.9716 16.2941 15 16.833C16.0284 16.294 16.5173 15.4501 16.7744 14.6055C16.8523 14.3496 16.9045 14.098 16.9414 13.8643L15 13.1357L13.0566 13.8643Z" fill="#000000"/>
<path d="M12.8672 3C13.9209 3.00002 14.8982 3.55257 15.4404 4.45605L16.3662 6H18.5C18.5 6.76943 18.0648 7.43602 17.4277 7.77051L18.0283 8.76953L18.0049 9H15.834L13.7256 5.48535C13.5449 5.18416 13.2184 5.00002 12.8672 5H7.13281C6.78156 5 6.45514 5.18416 6.27441 5.48535L4.02734 9.22949L4.40527 13H9V15H5V16.5H3V15H2.59473L1.97168 8.76953L2.14258 8.48535L2.57129 7.77051C1.93461 7.4359 1.5 6.76918 1.5 6H3.63379L4.55957 4.45605C5.10177 3.55256 6.07911 3 7.13281 3H12.8672Z" fill="#000000"/>
<path d="M6.57129 9.14355C7.04458 9.14355 7.42856 9.52674 7.42871 10C7.42871 10.4734 7.04468 10.8574 6.57129 10.8574H5.71484C5.24146 10.8574 4.85742 10.4734 4.85742 10C4.85757 9.52674 5.24155 9.14355 5.71484 9.14355H6.57129Z" fill="#000000"/>
</svg>
