<svg xmlns="http://www.w3.org/2000/svg" width="20" height="20" viewBox="0 0 20 20" fill="none"><rect width="20" height="20" fill="none"/>
<path d="M11.4697 2.46955C11.7033 2.23592 12.0622 2.18291 12.3535 2.33869C12.6449 2.49464 12.8001 2.82321 12.7353 3.14728L11.8476 7.58478L15.3349 9.32893C15.5506 9.43674 15.7016 9.64175 15.7402 9.87971C15.7788 10.1177 15.7007 10.3596 15.5303 10.5301L8.53026 17.5301C8.29663 17.7637 7.93782 17.8167 7.64647 17.661C7.35509 17.505 7.19982 17.1764 7.26464 16.8524L8.15135 12.4139L4.66503 10.6707C4.4494 10.5629 4.29837 10.3579 4.25975 10.1199C4.22115 9.88198 4.29925 9.64001 4.46971 9.46955L11.4697 2.46955ZM6.26561 9.79377L9.33495 11.3289C9.63745 11.4802 9.80166 11.8156 9.73534 12.1473L9.22069 14.7176L13.7334 10.2049L10.665 8.67072C10.3625 8.51946 10.1983 8.184 10.2646 7.85236L10.7783 5.28107L6.26561 9.79377Z" fill="#000000"/>
</svg>
