<svg xmlns="http://www.w3.org/2000/svg" width="20" height="20" viewBox="0 0 20 20" fill="none"><rect width="20" height="20" fill="none"/>
<path d="M15.2871 4.54199L15.2861 4.54297C15.5287 4.61554 15.739 4.77779 15.8682 5.00391L18 8.73438V10C18 11.6569 16.6569 13 15 13C13.3431 13 12 11.6569 12 10V8.73438L13.5068 6.0957L11 5.34375V15H14V17H6V15H9V5.34375L6.49219 6.0957L8 8.73438V10C8 11.6569 6.65685 13 5 13C3.34315 13 2 11.6569 2 10V8.73438L4.13184 5.00391L4.20508 4.89258C4.3337 4.7242 4.51228 4.60306 4.71289 4.54297L10 2.95605L15.2871 4.54199ZM4 9.26465V10C4 10.5523 4.44772 11 5 11C5.55228 11 6 10.5523 6 10V9.26465L5 7.51465L4 9.26465ZM14 9.26465V10C14 10.5523 14.4477 11 15 11C15.5523 11 16 10.5523 16 10V9.26465L15 7.51465L14 9.26465Z" fill="#000000"/>
</svg>
