<svg xmlns="http://www.w3.org/2000/svg" width="20" height="20" viewBox="0 0 20 20" fill="none"><rect width="20" height="20" fill="none"/>
<path d="M9.99996 2C10.3631 2.00001 10.6976 2.19719 10.874 2.51465L13.1484 6.60938L17.6963 7.51953C18.0577 7.59191 18.3501 7.85719 18.457 8.20996C18.5639 8.56292 18.4678 8.94626 18.207 9.20703L15.042 12.3721L15.4951 16.9004C15.5321 17.2707 15.3607 17.6314 15.0498 17.8359C14.7389 18.0404 14.3399 18.0546 14.0146 17.874L9.99996 15.6436L5.98531 17.874C5.66002 18.0547 5.26106 18.0404 4.95016 17.8359C4.63925 17.6314 4.46782 17.2707 4.50484 16.9004L4.95699 12.3721L1.79293 9.20703C1.53215 8.94625 1.43606 8.56293 1.54293 8.20996C1.64985 7.85718 1.94221 7.59189 2.30367 7.51953L6.85055 6.60938L9.12594 2.51465L9.19918 2.40137C9.38634 2.15094 9.68214 2 9.99996 2ZM8.48629 7.7832C8.27263 8.1678 7.90108 8.44 7.46969 8.52637L4.52828 9.11328L6.54 11.125C6.858 11.443 7.01629 11.8874 6.97164 12.335L6.68453 15.1973L9.27145 13.7607C9.66788 13.5405 10.1395 13.5125 10.5546 13.6777L10.7285 13.7607L13.3144 15.1973L13.0283 12.335C12.9836 11.8874 13.1419 11.443 13.4599 11.125L15.4707 9.11328L12.5302 8.52637C12.0988 8.44001 11.7273 8.1678 11.5136 7.7832L9.99996 5.05859L8.48629 7.7832Z" fill="#000000"/>
</svg>
