<svg xmlns="http://www.w3.org/2000/svg" width="20" height="20" viewBox="0 0 20 20" fill="none"><rect width="20" height="20" fill="none"/>
<path d="M15.5 10.25C17.0187 10.2501 18.25 11.4813 18.25 13V15H19.5L19.5684 15.0049C19.7252 15.0266 19.8643 15.1218 19.9404 15.2637C20.0274 15.4262 20.0182 15.624 19.916 15.7773L17.916 18.7773C17.8233 18.9164 17.6671 18.9999 17.5 19C17.3329 19 17.1767 18.9164 17.084 18.7773L15.084 15.7773C14.9817 15.6239 14.9726 15.4263 15.0596 15.2637C15.1467 15.1014 15.3158 15 15.5 15H16.75V13C16.75 12.3097 16.1902 11.7501 15.5 11.75H15V10.25H15.5Z" fill="#000000"/>
<path d="M11.5 10C11.6671 10.0001 11.8233 10.0836 11.916 10.2227L13.916 13.2227C14.0182 13.376 14.0274 13.5738 13.9404 13.7363C13.8534 13.8986 13.6841 13.9999 13.5 14H12.25V16C12.25 16.6904 12.8096 17.25 13.5 17.25H14V18.75H13.5C11.9812 18.75 10.75 17.5188 10.75 16V14H9.5L9.43164 13.9951C9.27473 13.9735 9.13576 13.8782 9.05957 13.7363C8.97256 13.5737 8.9817 13.3761 9.08398 13.2227L11.084 10.2227C11.1767 10.0836 11.3329 10 11.5 10Z" fill="#000000"/>
<path d="M10.4023 2.86816L17.0498 7.08887V9.00098H15.5498V7.91211L10 4.38867L4.4502 7.91211V15.5508H8V17.0508H2.9502V7.08887L9.59863 2.86816L10 2.61133L10.4023 2.86816Z" fill="#000000"/>
</svg>
