<svg xmlns="http://www.w3.org/2000/svg" width="24" height="24" viewBox="0 0 24 24" fill="none"><rect width="24" height="24" fill="none"/>
<path d="M11.6221 7.07433C11.9045 6.95903 12.2271 6.97826 12.4961 7.13195L15.9961 9.13195C16.3076 9.30997 16.5 9.64132 16.5 10.0001C16.5 10.3589 16.3076 10.6902 15.9961 10.8683L10.5147 14.0001L12 14.8478L15.0039 13.132L15.9961 14.8683L12.4961 16.8683C12.1887 17.044 11.8113 17.044 11.5039 16.8683L8.00391 14.8683C7.69238 14.6902 7.5 14.3589 7.5 14.0001V10.0001C7.50006 9.64132 7.69238 9.30997 8.00391 9.13195L11.5039 7.13195L11.6221 7.07433ZM9.5 10.5802V12.2765L13.4844 10.0001L12 9.15148L9.5 10.5802Z" fill="#000000"/>
<path d="M9.54786 3.23351C11.0702 2.37612 12.9303 2.37511 14.4531 3.23156L18.4512 5.48058C20.0253 6.36605 20.9997 8.03292 21 9.83898V14.1593C21 15.9655 20.0254 17.6321 18.4512 18.5177L14.4512 20.7677C12.9292 21.6237 11.0708 21.6238 9.54883 20.7677L5.55176 18.5196C3.97545 17.6328 3.00044 15.9631 3.00293 14.1544L3.00879 9.83215C3.01155 8.02985 3.98449 6.3673 5.55469 5.48254L9.54786 3.23351ZM13.4727 4.97472C12.559 4.46096 11.4426 4.46138 10.5293 4.9757L6.53711 7.22472C5.59506 7.75545 5.01068 8.75289 5.00879 9.8341L5.00293 14.1573C5.00144 15.2425 5.58656 16.2443 6.53223 16.7765L10.5293 19.0245C11.4425 19.5382 12.5575 19.5382 13.4707 19.0245L17.4707 16.7745C18.4152 16.2431 19 15.243 19 14.1593V9.83898C18.9997 8.75546 18.4151 7.75498 17.4707 7.22375L13.4727 4.97472Z" fill="#000000"/>
</svg>
