<svg xmlns="http://www.w3.org/2000/svg" width="24" height="24" viewBox="0 0 24 24" fill="none"><rect width="24" height="24" fill="none"/>
<path d="M18.0654 13.9004C18.517 13.9004 18.8224 14.0392 19.041 14.2754C19.2538 14.5056 19.376 14.82 19.4844 15.1494L21.7705 22.0996H19.8984L19.3945 20.4785H16.5361L15.9932 22.0996H14.2197L16.6191 15.1475C16.7334 14.8165 16.8628 14.5029 17.0811 14.2734C17.3048 14.0384 17.6138 13.9004 18.0654 13.9004ZM17.0576 18.9092H18.8975L18.0039 16.043L17.0576 18.9092Z" fill="#000000"/>
<path d="M17 3C19.2091 3 21 4.79086 21 7V12H19V7C19 5.89543 18.1046 5 17 5H7C5.89543 5 5 5.89543 5 7V17C5 18.1046 5.89543 19 7 19H12V21H7C4.79086 21 3 19.2091 3 17V7C3 4.79086 4.79086 3 7 3H17Z" fill="#000000"/>
<path d="M13 17H7V15H13V17Z" fill="#000000"/>
<path d="M17.6641 8.24707L12.46 12.874L10.4473 10.8613L7.65039 13.2588L6.34961 11.7412L10.5527 8.1377L12.54 10.126L16.3359 6.75293L17.6641 8.24707Z" fill="#000000"/>
</svg>
