<svg xmlns="http://www.w3.org/2000/svg" width="20" height="20" viewBox="0 0 20 20" fill="none"><rect width="20" height="20" fill="none"/>
<path d="M17 6.96509L10 2.2981L3 6.96509V17.0002H9V15.0002H5V8.0354L10 4.70142L14.9473 8.00024H17V6.96509Z" fill="#000000"/>
<path d="M15.0001 18.9998C19.497 17.5008 19.0008 12.5067 19.0001 12.4998L15.0001 10.9998L11.0001 12.4998L10.9874 12.7176C10.9544 13.6603 11.0549 17.4063 14.5928 18.8494L15.0001 18.9998ZM13.2257 14.6053C13.1478 14.3493 13.0936 14.0979 13.0567 13.8641L15.0001 13.1356L16.9415 13.8641C16.9046 14.0978 16.8524 14.3494 16.7745 14.6053C16.5174 15.45 16.0285 16.2939 15.0001 16.8328C13.9717 16.2939 13.4828 15.45 13.2257 14.6053Z" fill="#000000"/>
</svg>
