<svg xmlns="http://www.w3.org/2000/svg" width="24" height="24" viewBox="0 0 24 24" fill="none"><rect width="24" height="24" fill="none"/>
<path d="M14.3303 2.25676C14.6615 1.95865 15.1504 1.91564 15.5285 2.15129C15.9066 2.38738 16.0834 2.8457 15.9611 3.27434L14.2238 9.35442L19.3156 11.0517C19.6531 11.1643 19.9051 11.4476 19.9777 11.7958C20.0504 12.1443 19.9327 12.505 19.6682 12.7431L9.66816 21.7431C9.33684 22.0411 8.84801 22.0844 8.46992 21.8486C8.09204 21.6124 7.91511 21.154 8.0373 20.7255L9.77363 14.6445L4.68281 12.9482C4.3455 12.8355 4.09332 12.5522 4.0207 12.204C3.94812 11.8557 4.06592 11.4949 4.33027 11.2568L14.3303 2.25676ZM6.94355 11.5937L11.3156 13.0517C11.8232 13.2211 12.1079 13.7598 11.9611 14.2743L10.9162 17.9286L17.0539 12.4052L12.6828 10.9482C12.1755 10.7787 11.8906 10.2399 12.0373 9.72551L13.0812 6.07024L6.94355 11.5937Z" fill="#000000"/>
</svg>
