<svg xmlns="http://www.w3.org/2000/svg" width="20" height="20" viewBox="0 0 20 20" fill="none"><rect width="20" height="20" fill="none"/>
<path d="M13.7199 2.71978C14.7032 1.73664 16.2972 1.73663 17.2805 2.71978C18.2637 3.703 18.2636 5.29707 17.2805 6.28033L14.0305 9.53033C13.7376 9.82322 13.2628 9.82322 12.9699 9.53033L12.2502 8.8106L10.0607 11.0001L12.5305 13.4698C12.7126 13.6519 12.7886 13.9149 12.7316 14.1661C12.6745 14.4173 12.4923 14.6225 12.2492 14.7081L2.99922 17.9581C2.72709 18.0537 2.42388 17.9843 2.21992 17.7803C2.01601 17.5764 1.94659 17.2731 2.04219 17.001L5.29219 7.75103L5.33028 7.66314C5.43011 7.46468 5.61435 7.31864 5.83418 7.26861C6.08536 7.21162 6.34831 7.28766 6.53047 7.46978L9.0002 9.93951L11.1897 7.75006L10.4699 7.03033C10.1771 6.73743 10.1771 6.26265 10.4699 5.96978L13.7199 2.71978ZM3.97578 16.0235L10.6262 13.6866L6.3127 9.3731L3.97578 16.0235ZM16.2199 3.78033C15.8225 3.38296 15.1779 3.38298 14.7805 3.78033L12.0607 6.50006L13.5002 7.93951L16.2199 5.21978C16.6173 4.82231 16.6174 4.17776 16.2199 3.78033Z" fill="#000000"/>
</svg>
