<svg xmlns="http://www.w3.org/2000/svg" width="20" height="20" viewBox="0 0 20 20" fill="none"><rect width="20" height="20" fill="none"/>
<path d="M11 3.05273C11.9637 3.16024 12.8327 3.43769 13.5254 3.94141C14.5002 4.65034 15 5.71706 15 7H13C13 6.28301 12.7498 5.84966 12.3496 5.55859C11.8999 5.23156 11.14 5 10 5C8.86001 5 8.10006 5.23156 7.65039 5.55859C7.25024 5.84966 7 6.28301 7 7C7 7.32249 7.07727 7.53593 7.18164 7.69629C7.29235 7.86631 7.47188 8.0337 7.75391 8.19824C8.35543 8.54913 9.20056 8.76986 10.2422 9.03027C11.2004 9.26982 12.3555 9.54923 13.2539 10.0732C13.7217 10.3461 14.1674 10.7102 14.4941 11.2119C14.8272 11.7234 15 12.3226 15 13C15 14.9614 13.3415 16.565 11 16.9238V19H9V16.9463C8.03635 16.8388 7.16725 16.5623 6.47461 16.0586C5.49983 15.3497 5 14.2829 5 13H7C7 13.717 7.25024 14.1503 7.65039 14.4414C8.10006 14.7684 8.86001 15 10 15C12.1447 15 13 13.7694 13 13C13 12.6775 12.9227 12.4641 12.8184 12.3037C12.7076 12.1337 12.5281 11.9663 12.2461 11.8018C11.6446 11.4509 10.7994 11.2301 9.75781 10.9697C8.79961 10.7302 7.6445 10.4508 6.74609 9.92676C6.27829 9.65387 5.83261 9.2898 5.50586 8.78809C5.17279 8.27659 5 7.67737 5 7C5 5.71706 5.49983 4.65034 6.47461 3.94141C7.16728 3.43769 8.03631 3.16024 9 3.05273V1H11V3.05273Z" fill="#000000"/>
</svg>
