<svg xmlns="http://www.w3.org/2000/svg" width="20" height="20" viewBox="0 0 20 20" fill="none"><rect width="20" height="20" fill="none"/>
<path d="M12.5665 4.00977C12.8463 4.05592 13.0806 4.25843 13.1632 4.53711L14.5597 9.25H16.5001C16.8349 9.25001 17.1288 9.47205 17.2208 9.79395L18.7208 15.0439C18.7854 15.2701 18.7403 15.5133 18.5987 15.7012C18.457 15.889 18.2354 16 18.0001 16H2.00008C1.76475 16 1.54317 15.889 1.40145 15.7012C1.25987 15.5133 1.21475 15.2701 1.27938 15.0439L2.77938 9.79395L2.82235 9.67773C2.94493 9.41969 3.20717 9.25 3.50008 9.25H5.43465L6.77938 4.54395L6.82235 4.42773C6.94493 4.16969 7.20717 4 7.50008 4H12.4444L12.5665 4.00977ZM9.49422 10.75L10.5655 14.5H17.0059L15.9347 10.75H9.49422ZM2.99422 14.5H9.00594L7.93465 10.75H4.06551L2.99422 14.5ZM6.99422 9.25H12.9952L11.8839 5.5H8.06551L6.99422 9.25Z" fill="#000000"/>
</svg>
