<svg xmlns="http://www.w3.org/2000/svg" width="24" height="24" viewBox="0 0 24 24" fill="none"><rect width="24" height="24" fill="none"/>
<path d="M10.5 3C14.6421 3 18 6.35786 18 10.5C18 12.2105 17.4259 13.7861 16.4619 15.0479L20.707 19.293L19.293 20.707L15.0479 16.4619C13.7861 17.4259 12.2105 18 10.5 18C6.35786 18 3 14.6421 3 10.5C3 6.35786 6.35786 3 10.5 3ZM10.5 5C7.46243 5 5 7.46243 5 10.5C5 13.5376 7.46243 16 10.5 16C13.5376 16 16 13.5376 16 10.5C16 7.46243 13.5376 5 10.5 5Z" fill="#000000"/>
</svg>
