<svg xmlns="http://www.w3.org/2000/svg" width="20" height="20" viewBox="0 0 20 20" fill="none"><rect width="20" height="20" fill="none"/>
<path d="M19 12.5003C19.0051 12.5526 19.4762 17.5082 15 19.0003L14.5928 18.8499C11.0553 17.407 10.9544 13.6614 10.9873 12.7181L11 12.5003L15 11.0003L19 12.5003ZM13.0566 13.8645C13.0936 14.0982 13.1477 14.3499 13.2256 14.6058C13.4827 15.4503 13.9717 16.2944 15 16.8333C16.0283 16.2944 16.5173 15.4503 16.7744 14.6058C16.8522 14.35 16.9045 14.0982 16.9414 13.8645L15 13.136L13.0566 13.8645Z" fill="#000000"/>
<path d="M7.37402 2.22002C7.61053 2.03038 7.92085 1.95805 8.2168 2.02373L18 4.19853V9.00029H16V5.80205L9 4.24639V18.0003H2V9.00029L7 7.57158V3.00029C7.0001 2.6972 7.13765 2.40975 7.37402 2.22002ZM4 10.5081V16.0003H7V9.65166L4 10.5081Z" fill="#000000"/>
</svg>
