<svg xmlns="http://www.w3.org/2000/svg" width="24" height="24" viewBox="0 0 24 24" fill="none"><rect width="24" height="24" fill="none"/>
<g clip-path="url(#clip0_6898_1977)">
<path d="M14.2939 14.2936C14.5712 14.0167 14.9855 13.9265 15.3525 14.0641L23.3525 17.0641C23.7343 17.2077 23.9914 17.5694 24.001 17.9772C24.0104 18.3853 23.7695 18.7586 23.3945 18.9196L20.2627 20.2614L18.9199 23.3942C18.7591 23.7693 18.3855 24.0098 17.9775 24.0007C17.5695 23.9911 17.2079 23.7343 17.0645 23.3522L14.0645 15.3522C13.9268 14.9851 14.0167 14.5709 14.2939 14.2936ZM18.0625 20.3171L18.7402 18.7389L19.1074 18.5817L20.3174 18.0622L16.71 16.7097L18.0625 20.3171Z" fill="#000000"/>
<path d="M12.5674 3.00164C15.1734 2.06563 17.9196 3.99734 17.9199 6.76629V7.00164H18C20.2091 7.00164 22 8.7925 22 11.0016V13.0007H20V11.0016C20 9.89707 19.1046 9.00164 18 9.00164H6C4.89543 9.00164 4 9.89707 4 11.0016V17.0016C4.00065 18.1057 4.89583 19.0016 6 19.0016H13V21.0016H6C3.79126 21.0016 2.00065 19.2102 2 17.0016V9.61102C2.00018 7.92361 3.05949 6.41703 4.64746 5.84637L12.5674 3.00164ZM15.9199 6.76629C15.9196 5.38195 14.5461 4.41556 13.2432 4.88348L7.34668 7.00164H15.9199V6.76629Z" fill="#000000"/>
</g>
<defs>
<clipPath id="clip0_6898_1977">
<rect width="24" height="24" fill="white"/>
</clipPath>
</defs>
</svg>
