<svg xmlns="http://www.w3.org/2000/svg" width="20" height="20" viewBox="0 0 20 20" fill="none"><rect width="20" height="20" fill="none"/>
<path d="M6.12207 5.10107C4.67797 6.24835 3.7502 8.01716 3.75 10.0005C3.75006 11.9835 4.67844 13.7506 6.12207 14.8979V16.7095C3.80972 15.3652 2.25007 12.8658 2.25 10.0005C2.25023 7.13516 3.80958 4.63475 6.12207 3.29053V5.10107Z" fill="#000000"/>
<path d="M13.9268 3.29053C16.2392 4.6348 17.7988 7.13412 17.7988 9.99951C17.7988 12.865 16.2394 15.3652 13.9268 16.7095V14.8989C15.371 13.7516 16.2988 11.983 16.2988 9.99951C16.2988 8.01638 15.3705 6.24937 13.9268 5.10205V3.29053Z" fill="#000000"/>
<path d="M10.7617 5.42725C11.2322 5.51891 11.6913 5.70063 12.0811 5.98877C12.6951 6.44307 13.116 7.14696 13.1162 8.05225H11.6162C11.616 7.66041 11.4515 7.38948 11.1885 7.19482C10.9787 7.03988 10.6953 6.9291 10.3779 6.88135L9.6377 6.88721C9.33411 6.93757 9.06355 7.04547 8.86133 7.19482C8.59801 7.3895 8.43376 7.66018 8.43359 8.05225C8.43364 8.28128 8.48212 8.42361 8.53613 8.51807C8.5913 8.61419 8.67803 8.70587 8.81836 8.79541C9.13355 8.99622 9.58794 9.1175 10.207 9.27197C10.7581 9.40948 11.4756 9.58131 12.0381 9.93994C12.336 10.13 12.6157 10.3863 12.8164 10.7368C13.018 11.0893 13.1162 11.4961 13.1162 11.9478C13.116 12.8053 12.6804 13.4969 12.0947 13.9517C11.7129 14.248 11.2554 14.4534 10.7754 14.5601V16.0005H9.27539V14.5698C8.80977 14.4773 8.35581 14.2965 7.96973 14.0112C7.35537 13.5569 6.93379 12.8533 6.93359 11.9478H8.43359C8.43377 12.3397 8.59812 12.6105 8.86133 12.8052C9.06913 12.9586 9.34929 13.0683 9.66309 13.1167H10.3535C10.6627 13.0639 10.9523 12.9398 11.1748 12.7671C11.4664 12.5406 11.616 12.2578 11.6162 11.9478C11.6162 11.7191 11.5686 11.5764 11.5146 11.4819C11.4595 11.3857 11.3718 11.2942 11.2314 11.2046C10.9164 11.0037 10.4626 10.8825 9.84375 10.728C9.29264 10.5905 8.57444 10.4187 8.01172 10.0601C7.71382 9.87001 7.43514 9.61366 7.23438 9.26318C7.03254 8.91052 6.93364 8.50416 6.93359 8.05225C6.93378 7.14661 7.35527 6.44305 7.96973 5.98877C8.3524 5.70599 8.80141 5.5254 9.2627 5.43213L9.25098 4.00635L10.75 3.99365L10.7617 5.42725Z" fill="#000000"/>
</svg>
