<svg xmlns="http://www.w3.org/2000/svg" width="20" height="20" viewBox="0 0 20 20" fill="none"><rect width="20" height="20" fill="none"/>
<path d="M15.5957 10.5C16.0473 10.5 16.3527 10.6388 16.5713 10.875C16.7843 11.1052 16.9063 11.4195 17.0146 11.749L19.3008 18.7002H17.4297L16.9248 17.0791H14.0674L13.5234 18.7002H11.75L14.1504 11.748C14.2647 11.4169 14.3938 11.1026 14.6123 10.873C14.836 10.6381 15.1443 10.5 15.5957 10.5ZM14.5879 15.5098H16.4287L15.5342 12.6426L14.5879 15.5098Z" fill="#000000"/>
<path d="M15.2998 1.9502C16.8186 1.9502 18.0498 3.18141 18.0498 4.7002V9H16.5498V4.7002C16.5498 4.00984 15.9902 3.4502 15.2998 3.4502H4.7002C4.00984 3.4502 3.4502 4.00984 3.4502 4.7002V15.2998C3.4502 15.9902 4.00984 16.5498 4.7002 16.5498H10V18.0498H4.7002C3.18141 18.0498 1.9502 16.8186 1.9502 15.2998V4.7002C1.9502 3.18141 3.18141 1.9502 4.7002 1.9502H15.2998Z" fill="#000000"/>
<path d="M11 14.4502H5V12.9502H11V14.4502Z" fill="#000000"/>
<path d="M14.9941 6.56445L10.5361 10.4648L8.52441 8.95508L5.98047 11.0762L5.01953 9.92383L8.47559 7.04395L10.4629 8.53516L14.0059 5.43555L14.9941 6.56445Z" fill="#000000"/>
</svg>
