<svg xmlns="http://www.w3.org/2000/svg" width="20" height="20" viewBox="0 0 20 20" fill="none"><rect width="20" height="20" fill="none"/>
<path d="M9.9998 11.4141L8.58558 9.99993L9.9998 8.58572L11.414 9.99993L9.9998 11.4141Z" fill="#000000"/>
<path d="M15.6567 9.99993L16.3638 10.707L9.9998 17.071C8.82822 18.2426 6.92873 18.2426 5.75716 17.071L2.92873 14.2426C1.75716 13.071 1.75716 11.1715 2.92873 9.99993L9.29269 3.63597L9.9998 4.34308L12.8282 1.51465L18.4851 7.1715L15.6567 9.99993ZM4.34294 11.4141C3.95242 11.8047 3.95242 12.4378 4.34294 12.8284L7.17137 15.6568C7.56189 16.0473 8.19506 16.0473 8.58558 15.6568L13.5353 10.707L9.29269 6.4644L4.34294 11.4141ZM11.414 5.75729L14.2424 8.58572L15.6567 7.1715L12.8282 4.34308L11.414 5.75729Z" fill="#000000"/>
</svg>
