<svg xmlns="http://www.w3.org/2000/svg" width="24" height="24" viewBox="0 0 24 24" fill="none"><rect width="24" height="24" fill="none"/>
<path d="M12.0005 16H11.9985C9.28638 16 7.89394 16.5885 7.13135 17.4482C6.34418 18.3359 5.99854 19.7594 5.99854 22H3.99854C3.99854 19.666 4.3327 17.5897 5.63525 16.1211C6.96251 14.6247 9.07012 14 11.9985 14H12.0005V16Z" fill="#000000"/>
<path d="M19.0005 17H22.0005V19H19.0005V22H17.0005V19H14.0005V17H17.0005V14H19.0005V17Z" fill="#000000"/>
<path d="M11.9995 3C14.7609 3 16.9995 5.23858 16.9995 8C16.9995 10.7614 14.7609 13 11.9995 13C9.23809 13 6.99951 10.7614 6.99951 8C6.99951 5.23858 9.23809 3 11.9995 3ZM11.9995 5C10.3427 5 8.99951 6.34315 8.99951 8C8.99951 9.65685 10.3427 11 11.9995 11C13.6564 11 14.9995 9.65685 14.9995 8C14.9995 6.34315 13.6564 5 11.9995 5Z" fill="#000000"/>
</svg>
