<svg xmlns="http://www.w3.org/2000/svg" width="20" height="20" viewBox="0 0 20 20" fill="none"><rect width="20" height="20" fill="none"/>
<path d="M12.5494 2.08698C14.0948 4.33815 14.9996 7.06321 14.9996 10.0001C14.9996 12.9366 14.0945 15.6611 12.5494 17.9122L11.3483 17.0118C12.7058 15.0122 13.4996 12.5991 13.4996 10.0001C13.4996 7.40076 12.7061 4.98711 11.3483 2.98737L12.5494 2.08698Z" fill="#000000"/>
<path d="M9.19983 4.59967C10.33 6.10397 10.9996 7.97369 10.9996 10.0001C10.9996 12.0264 10.33 13.8962 9.19983 15.4005L7.99963 14.5001C8.94138 13.2465 9.49962 11.6887 9.49963 10.0001C9.49963 8.31119 8.94164 6.75275 7.99963 5.49908L9.19983 4.59967Z" fill="#000000"/>
<path d="M6.13635 6.89752C6.68436 7.80283 6.99963 8.86457 6.99963 10.0001C6.99962 11.1357 6.68357 12.1972 6.13538 13.1026L4.92737 12.1954C5.29125 11.5458 5.49962 10.7975 5.49963 10.0001C5.49963 9.20247 5.29231 8.4534 4.92834 7.80377L6.13635 6.89752Z" fill="#000000"/>
</svg>
