<svg xmlns="http://www.w3.org/2000/svg" width="20" height="20" viewBox="0 0 20 20" fill="none"><rect width="20" height="20" fill="none"/>
<path d="M6.65141 5.24121C7.08413 5.61273 7.56588 6.33236 7.90239 6.9668C8.08027 7.30219 8.24511 7.66534 8.35747 8.01074C8.45483 8.31008 8.57286 8.76753 8.47856 9.20898C8.37489 9.69415 8.05828 10.094 7.87602 10.3145C7.80667 10.3983 7.73225 10.4824 7.66704 10.5566C7.69405 10.6183 7.72893 10.6913 7.77641 10.7734C7.92691 11.0336 8.1513 11.3206 8.41899 11.5898C8.68654 11.8589 8.97407 12.0861 9.23637 12.2412C9.31078 12.2852 9.37806 12.3194 9.43657 12.3467C9.50803 12.2813 9.58689 12.2096 9.66802 12.1406C9.89638 11.9465 10.2972 11.6269 10.792 11.5215C11.2322 11.4279 11.6889 11.5444 11.9893 11.6416C12.335 11.7535 12.6986 11.918 13.0342 12.0957C13.6684 12.4315 14.3903 12.9139 14.7627 13.3525L15 13.6328V14.3984C14.9999 16.3154 13.5446 18.2587 11.3301 18.0938C6.07083 17.7014 2.29963 13.9292 1.90727 8.66992C1.74232 6.45534 3.68552 5 5.60259 5H6.37114L6.65141 5.24121ZM5.55864 7.00098C4.51495 7.02137 3.84535 7.76916 3.90141 8.52148C4.22012 12.7934 7.20666 15.7808 11.4786 16.0996C12.232 16.1555 12.9802 15.4831 12.9981 14.4365C12.7881 14.2738 12.4713 14.0606 12.0987 13.8633C11.8296 13.7208 11.5764 13.6095 11.3741 13.5439C11.2849 13.5151 11.2241 13.5019 11.1885 13.4951C11.1862 13.4965 11.1833 13.4984 11.1807 13.5C11.126 13.5338 11.0542 13.5865 10.9629 13.6641C10.8712 13.7421 10.7809 13.8271 10.6739 13.9258C10.5764 14.0157 10.4531 14.1281 10.3321 14.2246C10.1482 14.3712 9.91776 14.4483 9.68266 14.4424C9.1468 14.4285 8.63293 14.2077 8.2188 13.9629C7.78641 13.7073 7.36629 13.3684 7.00005 13C6.63402 12.6318 6.2968 12.2099 6.04497 11.7744C5.80388 11.3575 5.58804 10.8362 5.58794 10.292C5.58792 10.0821 5.6537 9.8773 5.77641 9.70703C5.87165 9.57503 5.98389 9.44498 6.07329 9.34277C6.17323 9.22852 6.25483 9.13701 6.33501 9.04004C6.41312 8.94554 6.46734 8.87291 6.502 8.81641L6.50395 8.81152C6.49698 8.77594 6.48444 8.71603 6.4561 8.62891C6.39026 8.42657 6.2788 8.17296 6.13579 7.90332C5.93773 7.52995 5.72203 7.21252 5.55864 7.00098Z" fill="#000000"/>
<path d="M10 6C10.5252 6 11.0451 6.10377 11.5303 6.30469C12.0156 6.5057 12.4567 6.80045 12.8282 7.17188C13.1996 7.5433 13.4943 7.98443 13.6954 8.46973C13.8963 8.95494 14 9.47483 14 10H12C12 9.73736 11.9482 9.47703 11.8477 9.23438C11.7472 8.99183 11.5998 8.77158 11.4141 8.58594C11.2285 8.4003 11.0082 8.25285 10.7657 8.15234C10.523 8.05185 10.2627 8 10 8V6Z" fill="#000000"/>
<path d="M10 2C11.0506 2 12.091 2.20735 13.0616 2.60938C14.0321 3.01141 14.9145 3.59997 15.6573 4.34277C16.4001 5.08559 16.9886 5.96795 17.3907 6.93848C17.7927 7.90908 18 8.94943 18 10H16C16 9.21209 15.8445 8.43204 15.543 7.7041C15.2415 6.97615 14.7994 6.31496 14.2422 5.75781C13.6851 5.20067 13.0239 4.75856 12.2959 4.45703C11.568 4.15553 10.7879 4 10 4V2Z" fill="#000000"/>
</svg>
