<svg xmlns="http://www.w3.org/2000/svg" width="20" height="20" viewBox="0 0 20 20" fill="none"><rect width="20" height="20" fill="none"/>
<path d="M7.97394 2.28045C9.05261 1.06728 10.948 1.06721 12.0267 2.28045C12.415 2.71719 12.9347 3.01709 13.5071 3.13494C15.0972 3.46251 16.0461 5.10485 15.5345 6.64568L15.4739 6.85564C15.3531 7.34963 15.3733 7.86923 15.5345 8.35467C15.891 9.42894 15.5357 10.5505 14.7503 11.2433V17.0002C14.7502 17.246 14.6291 17.4763 14.4271 17.6164C14.225 17.7563 13.9668 17.7885 13.7366 17.7023L10.0003 16.301L6.26398 17.7023C6.03387 17.7886 5.77565 17.7562 5.57355 17.6164C5.37142 17.4763 5.25037 17.2461 5.25031 17.0002V11.2443C4.46413 10.5515 4.10931 9.42945 4.46613 8.35467C4.6273 7.8693 4.6475 7.34957 4.52668 6.85564L4.46613 6.64568C3.97049 5.15288 4.84504 3.56454 6.34601 3.16912L6.49347 3.13494C6.99427 3.03176 7.45435 2.78924 7.8216 2.43768L7.97394 2.28045ZM13.2503 11.9328C12.78 12.0787 12.356 12.3494 12.0267 12.7199L11.9241 12.8303C10.8665 13.897 9.13423 13.8968 8.07648 12.8303L7.97394 12.7199C7.64476 12.3495 7.22035 12.0788 6.75031 11.9328V15.9172L9.73664 14.798L9.8675 14.7619C9.99944 14.7382 10.1369 14.7504 10.264 14.798L13.2503 15.9172V11.9328ZM10.9056 3.27752C10.4236 2.73525 9.57706 2.73532 9.09503 3.27752C8.49201 3.95595 7.68522 4.42152 6.79621 4.60467C6.08556 4.75095 5.66131 5.48445 5.88996 6.17303C6.17597 7.03462 6.17603 7.96575 5.88996 8.82732C5.66135 9.51589 6.08558 10.2494 6.79621 10.3957C7.68519 10.5788 8.49203 11.0444 9.09503 11.7228C9.57709 12.2648 10.4237 12.265 10.9056 11.7228C11.5087 11.0444 12.3153 10.5788 13.2044 10.3957C13.9147 10.2493 14.339 9.5157 14.1107 8.82732C13.8246 7.96567 13.8246 7.03469 14.1107 6.17303C14.3393 5.48459 13.9148 4.75116 13.2044 4.60467C12.3154 4.4216 11.5087 3.95586 10.9056 3.27752Z" fill="#000000"/>
</svg>
