<svg xmlns="http://www.w3.org/2000/svg" width="20" height="20" viewBox="0 0 20 20" fill="none"><rect width="20" height="20" fill="none"/>
<path d="M6.12195 5.4248C4.82476 6.52754 4.00018 8.16854 3.99988 10C3.99988 11.8316 4.82488 13.4723 6.12195 14.5752V16.9971C3.66633 15.628 1.99988 13.0096 1.99988 10C2.00025 6.99063 3.66632 4.37187 6.12195 3.00293V5.4248Z" fill="#000000"/>
<path d="M13.9266 3.00293C16.3823 4.37199 18.0486 6.99042 18.0487 10C18.0485 13.0095 16.3823 15.6281 13.9266 16.9971V14.5752C15.2239 13.4724 16.0485 11.8316 16.0487 10C16.0487 8.1684 15.2238 6.52766 13.9266 5.4248V3.00293Z" fill="#000000"/>
<path d="M11.0096 5.22656C11.4421 5.33444 11.8624 5.5168 12.2294 5.78809C12.9021 6.2857 13.366 7.06162 13.3661 8.05273H11.3661C11.366 7.74634 11.2445 7.5479 11.0399 7.39648C10.8063 7.2238 10.4414 7.10562 10.0253 7.10547C9.60891 7.10547 9.24347 7.22377 9.00964 7.39648C8.80493 7.54792 8.68355 7.74622 8.68347 8.05273C8.68353 8.24479 8.72337 8.34312 8.75281 8.39453C8.78379 8.44839 8.8389 8.5122 8.953 8.58496C9.22696 8.75947 9.63703 8.87297 10.2675 9.03027C10.8073 9.16497 11.569 9.34451 12.1727 9.72949C12.4968 9.93629 12.8081 10.2195 13.0331 10.6123C13.2595 11.008 13.3661 11.4592 13.3661 11.9482C13.3658 12.8969 12.8825 13.6566 12.2479 14.1494C11.8885 14.4284 11.4679 14.6302 11.0253 14.7539V16H9.02527V14.7686C8.59848 14.6602 8.18363 14.4807 7.82117 14.2129C7.14822 13.7154 6.6837 12.9394 6.68347 11.9482H8.68347C8.68367 12.2546 8.80488 12.4531 9.00964 12.6045C9.24347 12.7772 9.60899 12.8955 10.0253 12.8955C10.4007 12.8953 10.7677 12.767 11.0214 12.5703C11.2639 12.3819 11.3659 12.1671 11.3661 11.9482C11.3661 11.7567 11.3271 11.6581 11.2977 11.6064C11.2669 11.5525 11.2108 11.4889 11.0966 11.416C10.8227 11.2415 10.4133 11.128 9.78308 10.9707C9.24337 10.836 8.48179 10.6564 7.87781 10.2715C7.55348 10.0647 7.24164 9.78077 7.01648 9.3877C6.7901 8.99206 6.68353 8.54165 6.68347 8.05273C6.68357 7.06147 7.14823 6.28569 7.82117 5.78809C8.17958 5.52327 8.5889 5.34318 9.01062 5.23438L9.00085 4.00781L10.9999 3.99121L11.0096 5.22656Z" fill="#000000"/>
</svg>
