<svg xmlns="http://www.w3.org/2000/svg" width="20" height="20" viewBox="0 0 20 20" fill="none"><rect width="20" height="20" fill="none"/>
<path d="M12.1055 4.0127C12.4748 4.0728 12.7856 4.33718 12.8994 4.70312L14.2363 9H16.5996L16.7656 9.01367C17.1428 9.07686 17.4567 9.3528 17.5625 9.73047L18.9629 14.7305C19.0472 15.0317 18.9859 15.3552 18.7969 15.6045C18.6078 15.8537 18.3128 16 18 16H11C10.6872 15.9999 10.3922 15.8537 10.2031 15.6045C10.0142 15.3553 9.95283 15.0317 10.0371 14.7305L11.0821 11H8.80275L9.9551 14.7031C10.0494 15.0065 9.99397 15.3369 9.80568 15.5928C9.61722 15.8487 9.31788 16 9.00002 16H2.00002C1.68219 15.9999 1.38279 15.8487 1.19435 15.5928C1.00612 15.3369 0.950664 15.0065 1.04494 14.7031L2.6006 9.70312C2.73066 9.28509 3.1179 9.00007 3.55568 9H5.76369L7.10061 4.70312C7.23066 4.28509 7.6179 4.00007 8.05568 4H11.9444L12.1055 4.0127ZM3.35842 14H7.64162L6.70803 11H4.29201L3.35842 14ZM12.3184 14H16.6817L15.8408 11H13.1592L12.3184 14ZM7.85842 9H12.1416L11.208 6H8.79201L7.85842 9Z" fill="#000000"/>
</svg>
