<svg xmlns="http://www.w3.org/2000/svg" width="24" height="24" viewBox="0 0 24 24" fill="none"><rect width="24" height="24" fill="none"/>
<path d="M9.81244 2.33177C10.9975 1.0687 13.0033 1.06884 14.1884 2.33177L14.8476 3.03392C15.2785 3.49317 15.8428 3.80592 16.4609 3.9265L17.2802 4.08568C19.0752 4.43571 20.1419 6.29733 19.537 8.02318L19.3681 8.50756L19.2939 8.75072C19.1461 9.32375 19.1712 9.92988 19.3681 10.4919L19.537 10.9763C20.1168 12.6305 19.1608 14.4079 17.4999 14.8611V20.9997C17.4999 21.3212 17.3456 21.6233 17.0849 21.8113C16.8242 21.9991 16.4884 22.0496 16.1835 21.948L11.9999 20.5535L7.81634 21.948C7.51148 22.0495 7.17566 21.9992 6.91498 21.8113C6.65446 21.6233 6.49994 21.321 6.49994 20.9997V14.8611C4.83982 14.4073 3.8832 12.63 4.46283 10.9763L4.63275 10.4919C4.82973 9.92986 4.85474 9.32378 4.70697 8.75072L4.63275 8.50756L4.46283 8.02318C3.87706 6.35145 4.86007 4.552 6.55365 4.12279L6.72064 4.08568L7.53998 3.9265C8.15812 3.80594 8.72235 3.49322 9.15326 3.03392L9.81244 2.33177ZM8.49994 19.612L11.6835 18.5515L11.8398 18.5124C11.9984 18.4867 12.1624 18.5003 12.3163 18.5515L15.4999 19.612V15.4431C15.261 15.5858 15.0403 15.7601 14.8476 15.9656L14.1884 16.6677L14.0751 16.7829C12.879 17.9301 10.9605 17.8914 9.81244 16.6677L9.15326 15.9656C8.95991 15.7595 8.73982 15.5829 8.49994 15.4402V19.612ZM12.7294 3.69994C12.3344 3.27942 11.6663 3.27932 11.2714 3.69994L10.6122 4.40306C9.89407 5.16848 8.95297 5.68848 7.92279 5.88939L7.10345 6.04857C6.50537 6.1653 6.14924 6.78595 6.35052 7.36107L6.52045 7.84545C6.89569 8.91604 6.89566 10.0834 6.52045 11.154L6.35052 11.6384C6.14905 12.2136 6.50533 12.8341 7.10345 12.9509L7.92279 13.1101C8.95287 13.311 9.8941 13.8311 10.6122 14.5964L11.2714 15.2995C11.6664 15.7202 12.3345 15.7203 12.7294 15.2995L13.3886 14.5964C14.1068 13.8311 15.0479 13.311 16.0781 13.1101L16.8974 12.9509C17.4957 12.8343 17.8518 12.2136 17.6503 11.6384L17.4804 11.154C17.1052 10.0835 17.1052 8.91599 17.4804 7.84545L17.6503 7.36107C17.8517 6.78587 17.4956 6.16523 16.8974 6.04857L16.0781 5.88939C15.048 5.68846 14.1067 5.16842 13.3886 4.40306L12.7294 3.69994Z" fill="#000000"/>
</svg>
