<svg xmlns="http://www.w3.org/2000/svg" width="20" height="20" viewBox="0 0 20 20" fill="none"><rect width="20" height="20" fill="none"/>
<path d="M10.8154 8.08691C11.4092 7.31496 12.5908 7.31496 13.1846 8.08691L13.3027 8.26367L14.8682 11.0039L13.1318 11.9961L12 10.0156L11.3027 11.2363C10.7269 12.2441 9.27311 12.2441 8.69727 11.2363L7.99902 10.0156L6.86816 11.9961L5.13184 11.0039L6.69727 8.26367L6.81543 8.08691C7.40924 7.31496 8.59076 7.31496 9.18457 8.08691L9.30273 8.26367L10 9.4834L10.6973 8.26367L10.8154 8.08691Z" fill="#000000"/>
<path d="M10 2C14.4183 2 18 5.58172 18 10C18 14.4183 14.4183 18 10 18C5.58172 18 2 14.4183 2 10C2 5.58172 5.58172 2 10 2ZM10 4C6.68629 4 4 6.68629 4 10C4 13.3137 6.68629 16 10 16C13.3137 16 16 13.3137 16 10C16 6.68629 13.3137 4 10 4Z" fill="#000000"/>
</svg>
