<svg xmlns="http://www.w3.org/2000/svg" width="20" height="20" viewBox="0 0 20 20" fill="none"><rect width="20" height="20" fill="none"/>
<path d="M16.7917 11.2578C17.1798 11.2579 17.5647 11.3327 17.9236 11.4785C18.2827 11.6244 18.6095 11.8392 18.8835 12.1113L19.0798 12.3252C19.5118 12.8458 19.7537 13.4982 19.7537 14.1787C19.7536 14.9562 19.4377 15.6965 18.8835 16.2461L18.8796 16.25L15.5857 19.4697C15.5084 19.5681 15.4081 19.6488 15.2878 19.6992C15.009 19.816 14.6868 19.7541 14.4714 19.542L11.1248 16.2471L11.1228 16.2451C10.5691 15.6956 10.2537 14.9549 10.2537 14.1777C10.2537 13.4007 10.5693 12.6608 11.1228 12.1113C11.3968 11.8393 11.7237 11.6245 12.0828 11.4785C12.4418 11.3326 12.8274 11.2578 13.2156 11.2578C13.6036 11.2578 13.9885 11.3327 14.3474 11.4785C14.5824 11.574 14.8011 11.7024 15.0027 11.8535C15.2045 11.7021 15.4237 11.5741 15.6589 11.4785C16.018 11.3326 16.4035 11.2578 16.7917 11.2578ZM16.7917 12.7578C16.5958 12.7578 16.4018 12.7956 16.2234 12.8682C16.0451 12.9407 15.8863 13.046 15.7556 13.1758L15.7517 13.1797L15.5271 13.3984C15.2357 13.6831 14.7706 13.6831 14.4792 13.3984L14.2556 13.1797L14.2507 13.1758C14.12 13.046 13.9613 12.9407 13.783 12.8682C13.6046 12.7957 13.4115 12.7578 13.2156 12.7578C13.0197 12.7578 12.8265 12.7958 12.6482 12.8682C12.4698 12.9407 12.3102 13.046 12.1794 13.1758C11.9022 13.451 11.7537 13.8108 11.7537 14.1777C11.7537 14.5438 11.9015 14.9027 12.1775 15.1777L14.9929 17.9512L17.8269 15.1807C18.1045 14.9054 18.2536 14.5459 18.2537 14.1787C18.2537 13.8574 18.1399 13.5415 17.9255 13.2832L17.8269 13.1758C17.6962 13.046 17.5375 12.9407 17.3591 12.8682C17.1808 12.7957 16.9876 12.7579 16.7917 12.7578Z" fill="#000000"/>
<path d="M8.69995 1.9502C10.2186 1.9503 11.45 3.18148 11.45 4.7002V5.9502H13.2996C14.8183 5.9502 16.0496 7.18141 16.0496 8.7002V9H14.5496V8.7002C14.5496 8.00984 13.9899 7.4502 13.2996 7.4502H9.94995V4.7002C9.94995 4.00991 9.39022 3.4503 8.69995 3.4502H5.44995V16.5498H8.99976V18.0498H3.94995V1.9502H8.69995Z" fill="#000000"/>
</svg>
