<svg xmlns="http://www.w3.org/2000/svg" width="20" height="20" viewBox="0 0 20 20" fill="none"><rect width="20" height="20" fill="none"/>
<path d="M7.91895 3.63315C8.61597 3.07189 9.50077 2.78661 10.4814 3.04331C11.2134 3.23498 11.7735 3.6778 12.125 4.29135C12.4612 4.87852 12.5764 5.56578 12.5625 6.2435C12.5346 7.59196 11.995 9.16573 11.1338 10.6322C10.3958 11.8887 9.36601 13.151 8.10254 14.182C8.23504 14.3511 8.36829 14.4547 8.49121 14.5121C8.68983 14.6046 9.04481 14.664 9.67969 14.3763C10.3321 14.0807 11.1939 13.4515 12.2744 12.3109C12.5559 12.0142 12.9901 11.9184 13.3701 12.0697C13.7503 12.2212 13.9998 12.5901 14 12.9994C14 13.6722 14.1022 14.0995 14.2148 14.3285C14.2667 14.4337 14.3075 14.4708 14.3164 14.4779C14.3112 14.4774 14.3175 14.4787 14.3164 14.4779C14.3545 14.4815 14.5849 14.4708 15.0488 14.1312C15.4944 13.805 16.0526 13.2485 16.7051 12.3929L18.2949 13.6058C17.5762 14.5481 16.8856 15.2658 16.2305 15.7455C15.5939 16.2115 14.871 16.5389 14.127 16.4681C13.3049 16.3897 12.7385 15.8593 12.4199 15.2123C12.3872 15.1457 12.3576 15.0764 12.3291 15.0062C11.6889 15.5384 11.0828 15.9357 10.5049 16.1976C9.50473 16.6508 8.51925 16.7321 7.64648 16.3255C7.14663 16.0925 6.7557 15.7293 6.44922 15.307C5.12926 16.0396 3.63295 16.4994 2 16.4994V14.4994C3.30475 14.4994 4.5342 14.1077 5.63574 13.4681C5.48901 12.8863 5.40374 12.2622 5.37012 11.6312C5.26707 9.69463 5.62825 7.47909 6.37695 5.79428C6.75008 4.95482 7.25452 4.16825 7.91895 3.63315ZM9.97461 4.97788C9.70851 4.90835 9.46299 4.95716 9.17285 5.19077C8.85 5.4509 8.50891 5.9224 8.20508 6.60581C7.59968 7.96797 7.27881 9.86375 7.36719 11.5248C7.37824 11.7322 7.39477 11.933 7.41797 12.1253C8.2061 11.3806 8.8815 10.517 9.40918 9.6185C10.1618 8.33677 10.544 7.09939 10.5625 6.20151C10.5716 5.75672 10.4903 5.46143 10.3896 5.2855C10.304 5.13609 10.1853 5.03306 9.97461 4.97788Z" fill="#000000"/>
</svg>
