<svg xmlns="http://www.w3.org/2000/svg" width="20" height="20" viewBox="0 0 20 20" fill="none"><rect width="20" height="20" fill="none"/>
<path d="M5 2.49955C8.26145 1.52114 11.7385 1.52114 15 2.49955V3.39409L18 3.856V6.99955C18 9.07062 16.3211 10.7496 14.25 10.7496H14.1758C13.7483 11.3975 13.1737 11.9387 12.5 12.3287V14.2496C12.5 15.4922 13.5074 16.4996 14.75 16.4996H15V17.9996H5V16.4996H5.25C6.49264 16.4996 7.5 15.4922 7.5 14.2496V12.3287C6.82634 11.9387 6.25173 11.3975 5.82422 10.7496H5.75C3.67893 10.7496 2 9.07062 2 6.99955V3.856L5 3.39409V2.49955ZM11 12.899C10.6768 12.9646 10.3425 12.9996 10 12.9996C9.65746 12.9996 9.32317 12.9646 9 12.899V14.2496C9 15.0937 8.7207 15.8728 8.25 16.4996H11.75C11.2793 15.8728 11 15.0937 11 14.2496V12.899ZM13.5 3.6558C11.1958 3.13585 8.80419 3.13585 6.5 3.6558V7.99955C6.5 9.93255 8.067 11.4996 10 11.4996C11.933 11.4996 13.5 9.93255 13.5 7.99955V3.6558ZM3.5 5.14213V6.99955C3.5 8.02933 4.19252 8.89541 5.13672 9.16264C5.04785 8.78951 5 8.3999 5 7.99955V4.91166L3.5 5.14213ZM15 7.99955C15 8.39997 14.9512 8.78944 14.8623 9.16264C15.807 8.89571 16.5 8.02966 16.5 6.99955V5.14213L15 4.91166V7.99955Z" fill="#000000"/>
</svg>
