<svg xmlns="http://www.w3.org/2000/svg" width="24" height="24" viewBox="0 0 24 24" fill="none"><rect width="24" height="24" fill="none"/>
<path d="M17.9873 13C21.1234 13 22.9509 16.5424 21.1328 19.0977L18.502 22.7939C18.2557 23.1398 17.7426 23.1408 17.4951 22.7959L14.8506 19.1084C13.02 16.5547 14.8452 13.0003 17.9873 13ZM17.9707 15C16.8662 15.0001 15.9707 15.8955 15.9707 17C15.9707 18.1045 16.8662 18.9999 17.9707 19C19.0753 19 19.9707 18.1046 19.9707 17C19.9707 15.8954 19.0753 15 17.9707 15Z" fill="#000000"/>
<path d="M13 3C15.2091 3 17 4.79086 17 7H18C20.2091 7 22 8.79086 22 11V12H20V11C20 9.89543 19.1046 9 18 9H6C4.89543 9 4 9.89543 4 11V17C4 18.1046 4.89543 19 6 19H12V21H6C3.79086 21 2 19.2091 2 17V11C2 8.79086 3.79086 7 6 7H7C7 4.79086 8.79086 3 11 3H13ZM11 5C9.89543 5 9 5.89543 9 7H15C15 5.89543 14.1046 5 13 5H11Z" fill="#000000"/>
</svg>
