<svg xmlns="http://www.w3.org/2000/svg" width="20" height="20" viewBox="0 0 20 20" fill="none"><rect width="20" height="20" fill="none"/>
<path d="M16.0723 4.13025L5.07227 17.1302L3.92773 16.1615L14.9277 3.1615L16.0723 4.13025Z" fill="#000000"/>
<path d="M14 11.3959C15.5188 11.3959 16.75 12.6271 16.75 14.1459C16.75 15.6646 15.5188 16.8959 14 16.8959C12.4812 16.8959 11.25 15.6646 11.25 14.1459C11.25 12.6271 12.4812 11.3959 14 11.3959ZM14 12.8959C13.3096 12.8959 12.75 13.4555 12.75 14.1459C12.75 14.8362 13.3097 15.3959 14 15.3959C14.6903 15.3959 15.25 14.8362 15.25 14.1459C15.25 13.4555 14.6904 12.8959 14 12.8959Z" fill="#000000"/>
<path d="M6 3.39587C7.51878 3.39587 8.75 4.62709 8.75 6.14587C8.74999 7.66465 7.51877 8.89587 6 8.89587C4.48123 8.89587 3.25001 7.66465 3.25 6.14587C3.25 4.62709 4.48122 3.39587 6 3.39587ZM6 4.89587C5.30964 4.89587 4.75 5.45552 4.75 6.14587C4.75001 6.83622 5.30965 7.39587 6 7.39587C6.69035 7.39587 7.24999 6.83622 7.25 6.14587C7.25 5.45552 6.69036 4.89587 6 4.89587Z" fill="#000000"/>
</svg>
