<svg xmlns="http://www.w3.org/2000/svg" width="20" height="20" viewBox="0 0 20 20" fill="none"><rect width="20" height="20" fill="none"/>
<path d="M18.5303 17.4697L17.4697 18.5303L14.6162 15.6768C14.5067 15.702 14.3954 15.7238 14.2812 15.7354L14 15.75H8V17.5C7.99985 17.6816 7.90105 17.8495 7.74219 17.9375C7.58341 18.0253 7.3893 18.0199 7.23535 17.9238L3.23535 15.4238C3.08928 15.3325 3.00014 15.1722 3 15C3 14.8277 3.08927 14.6676 3.23535 14.5762L7.23535 12.0762C7.38938 11.98 7.58331 11.9746 7.74219 12.0625C7.90106 12.1506 8 12.3183 8 12.5V14.25H13.1895L5.08691 6.14746C4.8783 6.37082 4.75 6.67026 4.75 7V10H3.25V7C3.25 6.25585 3.54704 5.58248 4.02734 5.08789L1.46973 2.53027L2.53027 1.46973L18.5303 17.4697Z" fill="#000000"/>
<path d="M16.75 13C16.75 13.2121 16.7223 13.4179 16.6768 13.6162L15.25 12.1895V10H16.75V13Z" fill="#000000"/>
<path d="M12.2578 2.0625C12.4167 1.97455 12.6106 1.97999 12.7646 2.07617L16.7646 4.57617C16.9107 4.66756 17 4.82768 17 5C16.9999 5.17224 16.9107 5.33253 16.7646 5.42383L12.7646 7.92383C12.6107 8.01987 12.4166 8.02532 12.2578 7.9375C12.099 7.84945 12.0001 7.68161 12 7.5V5.75H8.81055L7.31055 4.25H12V2.5L12.0049 2.43262C12.0259 2.27769 12.1188 2.13961 12.2578 2.0625Z" fill="#000000"/>
</svg>
