<svg xmlns="http://www.w3.org/2000/svg" width="24" height="24" viewBox="0 0 24 24" fill="none"><rect width="24" height="24" fill="none"/>
<path d="M5.02832 3.86805C6.44327 1.60457 9.63663 1.33589 11.4102 3.33094L12 3.99403L12.5898 3.33094C14.3634 1.33589 17.5567 1.60457 18.9717 3.86805L19.3477 4.46962C19.5046 4.72074 19.5421 5.02893 19.4502 5.31044C19.3582 5.59195 19.1461 5.81858 18.8711 5.9286C17.4605 6.49288 16.6258 7.21424 15.9688 8.11317L23 6.79481V7.99989C23 10.7025 22.1845 12.8544 20.707 14.3319C19.5873 15.4516 18.1502 16.1196 16.5566 16.3768L18.3418 19.9472L16.9189 20.6581C13.8223 22.2063 10.1777 22.2063 7.08105 20.6581L5.6582 19.9472L7.44238 16.3768C5.84924 16.1195 4.41246 15.4514 3.29297 14.3319C1.81552 12.8544 1 10.7025 1 7.99989V6.79481L8.03027 8.11317C7.37324 7.21446 6.53922 6.49278 5.12891 5.9286C4.85393 5.81858 4.64181 5.59195 4.5498 5.31044C4.45788 5.02893 4.49539 4.72074 4.65234 4.46962L5.02832 3.86805ZM17.0127 4.59559C16.2266 3.78257 14.875 3.77052 14.085 4.65907L12 7.00477L9.91504 4.65907C9.1248 3.77034 7.77233 3.78208 6.98633 4.59559C8.25404 5.29003 9.12583 6.15801 9.8291 7.18739C10.3227 7.90992 10.2273 8.75437 9.7998 9.34169C9.38215 9.91532 8.64082 10.2621 7.83594 10.1112L3.06934 9.21669C3.2677 10.8749 3.87591 12.0867 4.70703 12.9179C5.73251 13.9433 7.20788 14.4999 9 14.4999H10.6182L8.3457 19.0429C10.6717 20.0767 13.3272 20.0765 15.6533 19.0429L13.3818 14.4999H15C16.7921 14.4999 18.2675 13.9433 19.293 12.9179C20.1241 12.0867 20.7313 10.8749 20.9297 9.21669L16.1641 10.1112C15.3592 10.2621 14.6179 9.91532 14.2002 9.34169C13.7727 8.75437 13.6773 7.90992 14.1709 7.18739C14.874 6.15822 15.7454 5.28996 17.0127 4.59559Z" fill="#000000"/>
</svg>
