<svg xmlns="http://www.w3.org/2000/svg" width="20" height="20" viewBox="0 0 20 20" fill="none"><rect width="20" height="20" fill="none"/>
<path d="M8.43945 2.15316C10.2546 1.79218 12.1393 2.0718 13.7715 2.94417C15.4036 3.81657 16.6823 5.22862 17.3906 6.93831C18.0989 8.64817 18.1924 10.551 17.6553 12.3221C17.118 14.0932 15.9831 15.6229 14.4443 16.6512C12.9054 17.6795 11.0577 18.1432 9.21582 17.9618C7.4089 17.7838 5.71813 16.9957 4.41895 15.7303L3.69727 16.4022C3.56244 16.5275 3.3695 16.568 3.19531 16.5086C3.02094 16.4488 2.89288 16.298 2.86328 16.116L2.28516 12.5575C2.25837 12.3924 2.31604 12.224 2.43848 12.1102C2.56086 11.9966 2.73209 11.9514 2.89453 11.9901L6.40234 12.826C6.58151 12.8688 6.72255 13.0073 6.76953 13.1854C6.81623 13.3635 6.76174 13.5531 6.62695 13.6785L5.88672 14.366C6.85118 15.2748 8.09002 15.8403 9.41211 15.9705C10.7933 16.1065 12.179 15.76 13.333 14.9891C14.487 14.218 15.3382 13.0701 15.7412 11.742C16.144 10.4138 16.0741 8.98628 15.543 7.70394C15.0117 6.42161 14.0523 5.36215 12.8281 4.70784C11.604 4.05372 10.1903 3.84432 8.8291 4.11507C7.46801 4.38589 6.24282 5.12055 5.3623 6.1932C4.48176 7.26615 4.00008 8.61183 4 9.99984H2C2.00008 8.14921 2.64145 6.35524 3.81543 4.92464C4.98958 3.49403 6.62426 2.51422 8.43945 2.15316Z" fill="#000000"/>
<path d="M11 9.58577L12.707 11.2928L11.293 12.7069L9 10.4139V5.99984H11V9.58577Z" fill="#000000"/>
</svg>
