<svg xmlns="http://www.w3.org/2000/svg" width="24" height="24" viewBox="0 0 24 24" fill="none"><rect width="24" height="24" fill="none"/>
<path d="M22 23H14V21H22V23Z" fill="#000000"/>
<path d="M12 2C12.0303 2.03014 15.0304 4.99967 20.999 5C20.9991 6.10096 21.1332 8.41389 20.8096 11H18.7939C18.9994 9.49871 19.0298 8.07044 19.0224 6.89648C16.6312 6.64829 14.7384 5.98051 13.3554 5.28906C12.8274 5.02501 12.3759 4.75548 11.999 4.50977C11.6222 4.75536 11.1713 5.0252 10.6435 5.28906C9.2603 5.98054 7.36734 6.64845 4.97557 6.89648C4.96459 8.67245 5.03995 11.0308 5.67771 13.3428C6.52492 16.4136 8.26017 19.0548 11.999 19.9521V21.999L11.539 21.8994C2.03155 19.6274 2.99928 7.95309 2.999 5C8.96202 5 11.9629 2.0368 12 2Z" fill="#000000"/>
<path d="M22 20H14V18H22V20Z" fill="#000000"/>
<path d="M21.7578 14.9658L14.2578 16.9658L13.7422 15.0342L21.2422 13.0342L21.7578 14.9658Z" fill="#000000"/>
</svg>
