<svg xmlns="http://www.w3.org/2000/svg" width="20" height="20" viewBox="0 0 20 20" fill="none"><rect width="20" height="20" fill="none"/>
<path d="M17.5809 7.18616C17.9345 7.43876 18.0844 7.89141 17.952 8.3053C17.8192 8.71901 17.4344 8.99963 16.9998 8.99963H15.9998V14.9996H17.4998V16.9996H2.49982V14.9996H3.99982V8.99963H2.99982C2.5653 8.9996 2.18047 8.71899 2.04767 8.3053C1.91521 7.89142 2.06513 7.43875 2.41876 7.18616L9.99982 1.77112L17.5809 7.18616ZM5.99982 8.99963V14.9996H8.99982V8.99963H5.99982ZM10.9998 8.99963V14.9996H13.9998V8.99963H10.9998ZM6.11993 6.99963H13.8807L9.99982 4.22815L6.11993 6.99963Z" fill="#000000"/>
</svg>
