<svg xmlns="http://www.w3.org/2000/svg" width="20" height="20" viewBox="0 0 20 20" fill="none"><rect width="20" height="20" fill="none"/>
<path d="M11.5 6C13.433 6 15 7.567 15 9.5C15 11.433 13.433 13 11.5 13C9.567 13 8 11.433 8 9.5C8 7.567 9.567 6 11.5 6ZM11.5 8C10.6716 8 10 8.67157 10 9.5C10 10.3284 10.6716 11 11.5 11C12.3284 11 13 10.3284 13 9.5C13 8.67157 12.3284 8 11.5 8Z" fill="#000000"/>
<path d="M7 12H5V7H7V12Z" fill="#000000"/>
<path d="M15 2C16.6569 2 18 3.34315 18 5V14C18 15.3057 17.1645 16.413 16 16.8252V18H14V17H6V18H4V16.8252C2.83548 16.413 2 15.3057 2 14V5C2 3.34315 3.34315 2 5 2H15ZM5 4C4.44772 4 4 4.44772 4 5V14C4 14.5523 4.44772 15 5 15H15C15.5523 15 16 14.5523 16 14V5C16 4.44772 15.5523 4 15 4H5Z" fill="#000000"/>
</svg>
