<svg xmlns="http://www.w3.org/2000/svg" width="24" height="24" viewBox="0 0 24 24" fill="none"><rect width="24" height="24" fill="none"/>
<path d="M18 13.9999C20.2091 13.9999 22 15.7908 22 17.9999C21.9999 20.209 20.2091 21.9999 18 21.9999C15.7909 21.9999 14.0001 20.209 14 17.9999C14 15.7908 15.7909 13.9999 18 13.9999ZM18 15.9999C16.8954 15.9999 16 16.8953 16 17.9999C16.0001 19.1044 16.8955 19.9999 18 19.9999C19.1045 19.9999 19.9999 19.1044 20 17.9999C20 16.8953 19.1046 15.9999 18 15.9999Z" fill="#000000"/>
<path d="M12.5898 3.33094C14.3634 1.33589 17.5567 1.60457 18.9717 3.86805L19.3477 4.46962C19.5044 4.72065 19.5421 5.02911 19.4502 5.31044C19.3581 5.59168 19.1459 5.81866 18.8711 5.9286C17.4607 6.49287 16.6258 7.21429 15.9688 8.11317L23 6.79481V7.99989C22.9999 9.51312 22.7432 10.8537 22.2588 11.9999H20.0156C20.4703 11.2647 20.7948 10.3438 20.9297 9.21669L16.1641 10.1112C15.3594 10.262 14.6179 9.91503 14.2002 9.34169C13.7728 8.7545 13.6777 7.90982 14.1709 7.18739C14.874 6.15829 15.7455 5.28994 17.0127 4.59559C16.2266 3.78257 14.875 3.77052 14.085 4.65907L12 7.00477L9.91504 4.65907C9.1248 3.77034 7.77233 3.78208 6.98633 4.59559C8.25389 5.29001 9.12589 6.15809 9.8291 7.18739C10.3223 7.90982 10.2272 8.7545 9.7998 9.34169C9.38211 9.91503 8.64057 10.262 7.83594 10.1112L3.06934 9.21669C3.26779 10.8746 3.87602 12.0868 4.70703 12.9179C5.7325 13.9431 7.20808 14.4999 9 14.4999H10.6182L8.3457 19.0429C9.5088 19.5598 10.7545 19.8174 12 19.8173V21.8192C10.3148 21.8192 8.62931 21.4321 7.08105 20.6581L5.6582 19.9472L7.44238 16.3768C5.8494 16.1195 4.41241 15.4512 3.29297 14.3319C1.81564 12.8545 1.00013 10.7022 1 7.99989V6.79481L8.03027 8.11317C7.37327 7.21451 6.53908 6.49277 5.12891 5.9286C4.85412 5.81866 4.64192 5.59168 4.5498 5.31044C4.45794 5.02911 4.49564 4.72065 4.65234 4.46962L5.02832 3.86805C6.44327 1.60457 9.63663 1.33589 11.4102 3.33094L12 3.99403L12.5898 3.33094Z" fill="#000000"/>
</svg>
