<svg xmlns="http://www.w3.org/2000/svg" width="20" height="20" viewBox="0 0 20 20" fill="none"><rect width="20" height="20" fill="none"/>
<g clip-path="url(#clip0_6898_1897)">
<path d="M16 10C19.1391 10.0001 20.9649 13.548 19.1406 16.1025L16.5039 19.7939C16.2569 20.1398 15.7431 20.1398 15.4961 19.7939L12.8594 16.1025C11.035 13.548 12.8608 10 16 10ZM16 12C14.8954 12 14 12.8954 14 14C14 15.1046 14.8954 16 16 16C17.1046 16 18 15.1046 18 14C18 12.8954 17.1046 12 16 12Z" fill="#000000"/>
<path d="M11 2C12.6569 2 14 3.34315 14 5V6H15C16.3059 6 17.4141 6.83532 17.8262 8H16.1152C15.8406 7.69394 15.4436 7.5 15 7.5H5C4.17157 7.5 3.5 8.17157 3.5 9V15C3.5 15.8284 4.17157 16.5 5 16.5H10V18H5C3.34315 18 2 16.6569 2 15V9C2 7.34315 3.34315 6 5 6H6V5C6 3.34315 7.34315 2 9 2H11ZM9 3.5C8.17157 3.5 7.5 4.17157 7.5 5V6H12.5V5C12.5 4.17157 11.8284 3.5 11 3.5H9Z" fill="#000000"/>
</g>
<defs>
<clipPath id="clip0_6898_1897">
<rect width="20" height="20" fill="white"/>
</clipPath>
</defs>
</svg>
