<svg xmlns="http://www.w3.org/2000/svg" width="20" height="20" viewBox="0 0 20 20" fill="none"><rect width="20" height="20" fill="none"/>
<path d="M10 7.99997C11.1046 7.99997 12 8.8954 12 9.99997C11.9999 11.1044 11.1045 12 10 12C8.8955 12 8.00011 11.1044 8 9.99997C8 8.8954 8.89543 7.99997 10 7.99997Z" fill="#000000"/>
<path d="M9.78809 4.78025C11.9251 4.15165 14.221 3.46966 17.4316 4.27243L18 4.41501V14.9609L17.0684 14.7275C14.2792 14.03 12.3247 14.5983 10.2119 15.2197C8.07491 15.8482 5.77896 16.5298 2.56836 15.7275L2 15.5859V5.03903L2.93164 5.27243C5.72073 5.96972 7.67528 5.40171 9.78809 4.78025ZM14.4092 5.40915C12.8947 5.43395 11.587 5.81524 10.2119 6.2197C8.28733 6.7858 6.23437 7.39153 3.5 6.92087V12.5L5.58789 14.5879C7.10358 14.5638 8.41216 14.1849 9.78809 13.7802C11.7127 13.2142 13.7657 12.6073 16.5 13.0781V7.49997L14.4092 5.40915Z" fill="#000000"/>
</svg>
