<svg xmlns="http://www.w3.org/2000/svg" width="24" height="24" viewBox="0 0 24 24" fill="none"><rect width="24" height="24" fill="none"/>
<path d="M8.4998 10C9.32823 10 9.9998 10.6716 9.9998 11.5C9.9998 12.3284 9.32823 13 8.4998 13C7.67138 13 6.9998 12.3284 6.9998 11.5C6.9998 10.6716 7.67138 10 8.4998 10Z" fill="#000000"/>
<path d="M15.4998 10C16.3282 10 16.9998 10.6716 16.9998 11.5C16.9998 12.3284 16.3282 13 15.4998 13C14.6714 13 13.9998 12.3284 13.9998 11.5C13.9998 10.6716 14.6714 10 15.4998 10Z" fill="#000000"/>
<path d="M16.8045 4C18.8485 4.00022 20.5633 5.54181 20.7811 7.57422L21.7566 16.6807C21.9465 18.4537 20.5574 19.9999 18.7742 20H17.8279C17.0325 19.9999 16.2693 19.6836 15.7068 19.1211L13.5857 17H10.4139L8.29277 19.1211C7.73024 19.6836 6.96718 19.9999 6.17168 20H5.22539C3.4423 19.9998 2.05315 18.4536 2.24297 16.6807L3.21855 7.57422C3.43631 5.54186 5.1512 4.00031 7.19512 4H16.8045ZM7.19512 6C6.17329 6.00031 5.3157 6.77103 5.20683 7.78711L4.23125 16.8936C4.168 17.4845 4.63114 17.9998 5.22539 18H6.17168C6.43674 17.9999 6.69125 17.8944 6.87871 17.707L9.58574 15H14.4139L17.1209 17.707C17.3083 17.8945 17.5629 17.9999 17.8279 18H18.7742C19.3686 17.9999 19.8316 17.4845 19.7684 16.8936L18.7928 7.78711C18.6839 6.77098 17.8264 6.00022 16.8045 6H7.19512Z" fill="#000000"/>
</svg>
