<svg xmlns="http://www.w3.org/2000/svg" width="20" height="20" viewBox="0 0 20 20" fill="none"><rect width="20" height="20" fill="none"/>
<path d="M13.5303 7.53027L7.53027 13.5303L6.46973 12.4697L12.4697 6.46973L13.5303 7.53027Z" fill="#000000"/>
<path d="M12.25 11C12.9403 11 13.5 11.5597 13.5 12.25C13.5 12.9404 12.9404 13.5 12.25 13.5C11.5597 13.5 11 12.9403 11 12.25C11 11.5597 11.5597 11 12.25 11Z" fill="#000000"/>
<path d="M7.75 6.5C8.44033 6.50001 8.99997 7.05968 9 7.75C9 8.44035 8.44035 8.99999 7.75 9C7.05964 9 6.5 8.44036 6.5 7.75C6.50003 7.05967 7.05966 6.5 7.75 6.5Z" fill="#000000"/>
<path d="M15 2.5C16.3807 2.5 17.5 3.61929 17.5 5V15C17.5 16.3807 16.3807 17.5 15 17.5H5C3.61929 17.5 2.5 16.3807 2.5 15V5C2.5 3.61929 3.61929 2.5 5 2.5H15ZM5 4C4.44772 4 4 4.44772 4 5V15C4 15.5177 4.39333 15.9438 4.89746 15.9951L5 16H15C15.5523 16 16 15.5523 16 15V5C16 4.44772 15.5523 4 15 4H5Z" fill="#000000"/>
</svg>
