<svg xmlns="http://www.w3.org/2000/svg" width="20" height="20" viewBox="0 0 20 20" fill="none"><rect width="20" height="20" fill="none"/>
<path d="M6 6C6.55228 6 7 6.44772 7 7C7 7.55228 6.55228 8 6 8C5.44772 8 5 7.55228 5 7C5 6.44772 5.44772 6 6 6Z" fill="#000000"/>
<path d="M9 6C9.55228 6 10 6.44772 10 7C10 7.55228 9.55228 8 9 8C8.44772 8 8 7.55228 8 7C8 6.44772 8.44772 6 9 6Z" fill="#000000"/>
<path d="M15.25 3C16.7688 3 18 4.23122 18 5.75V14.25C18 15.7688 16.7688 17 15.25 17H4.75C3.23122 17 2 15.7688 2 14.25V5.75C2 4.23122 3.23122 3 4.75 3H15.25ZM4.75 4.5C4.05964 4.5 3.5 5.05964 3.5 5.75V14.25C3.5 14.9404 4.05964 15.5 4.75 15.5H11.0244C11.008 15.3356 11 15.1687 11 15C11 12.2386 13.2386 10 16 10C16.1687 10 16.3355 10.0082 16.5 10.0244V5.75C16.5 5.05964 15.9404 4.5 15.25 4.5H4.75ZM16 11.5C14.067 11.5 12.5 13.067 12.5 15C12.5 15.1698 12.5126 15.3367 12.5361 15.5H15.25C15.9404 15.5 16.5 14.9404 16.5 14.25V11.5352C16.3367 11.5117 16.1698 11.5 16 11.5Z" fill="#000000"/>
</svg>
