<svg xmlns="http://www.w3.org/2000/svg" width="20" height="20" viewBox="0 0 20 20" fill="none"><rect width="20" height="20" fill="none"/>
<path d="M12.4999 4C12.832 4 13.1243 4.21868 13.2187 4.53711L14.6152 9.25H16.4999C16.8347 9.25 17.1286 9.47208 17.2206 9.79395L18.7206 15.0439C18.7852 15.2701 18.7401 15.5133 18.5986 15.7012C18.4568 15.889 18.2352 16 17.9999 16H1.99992C1.76469 15.9999 1.54295 15.889 1.40129 15.7012C1.25981 15.5134 1.21464 15.2701 1.27922 15.0439L2.77922 9.79395L2.82218 9.67773C2.94472 9.41977 3.20713 9.25012 3.49992 9.25H5.43449L6.77922 4.54395L6.82218 4.42773C6.94472 4.16977 7.20713 4.00012 7.49992 4H12.4999ZM2.99406 14.5H9.00578L7.93449 10.75H4.06535L2.99406 14.5ZM10.9941 14.5H17.0058L15.9345 10.75H12.0653L10.9941 14.5ZM9.49406 10.75L9.99992 12.5205L10.5058 10.75H9.49406ZM6.99406 9.25H13.0507L11.9403 5.5H8.06535L6.99406 9.25Z" fill="#000000"/>
</svg>
