<svg xmlns="http://www.w3.org/2000/svg" width="20" height="20" viewBox="0 0 20 20" fill="none"><rect width="20" height="20" fill="none"/>
<path d="M13 2C14.5753 2 15.8659 3.21425 15.9893 4.75781C16.6082 5.30737 17 6.10716 17 7C17 8.13975 16.3638 9.12995 15.4277 9.6377L14.4922 17.124C14.4296 17.6245 14.0043 18 13.5 18H6.5C5.99568 18 5.57037 17.6245 5.50781 17.124L4.57129 9.6377C3.63563 9.12982 3 8.13945 3 7C3 6.10742 3.39111 5.30735 4.00977 4.75781C4.13308 3.21422 5.42468 2 7 2H13ZM6.63281 10L7.38281 16H12.6172L13.3672 10H6.63281ZM7 4C6.44772 4 6 4.44772 6 5V6C5.44772 6 5 6.44772 5 7C5 7.55228 5.44772 8 6 8H14C14.5523 8 15 7.55228 15 7C15 6.44772 14.5523 6 14 6V5C14 4.44772 13.5523 4 13 4H7Z" fill="#000000"/>
</svg>
