<svg xmlns="http://www.w3.org/2000/svg" width="20" height="20" viewBox="0 0 20 20" fill="none"><rect width="20" height="20" fill="none"/>
<path d="M15.2637 13.0596C15.4263 12.9726 15.6239 12.9817 15.7773 13.084L18.7773 15.084C18.9164 15.1767 19 15.3329 19 15.5C18.9999 15.6671 18.9164 15.8233 18.7773 15.916L15.7773 17.916C15.624 18.0182 15.4262 18.0274 15.2637 17.9404C15.1014 17.8534 15.0001 17.6841 15 17.5V16.25C13.7574 16.25 12.75 17.2574 12.75 18.5V19H11.25V18.5C11.25 16.4289 12.9289 14.75 15 14.75V13.5L15.0049 13.4316C15.0265 13.2747 15.1218 13.1358 15.2637 13.0596Z" fill="#000000"/>
<path d="M18.0498 11H16.5498V7.12109L10 10.8643L3.4502 7.12109V14.5498H10V16.0498H1.9502V3.9502H18.0498V11ZM10 9.13574L16.4502 5.4502H3.5498L10 9.13574Z" fill="#000000"/>
</svg>
