<svg xmlns="http://www.w3.org/2000/svg" width="20" height="20" viewBox="0 0 20 20" fill="none"><rect width="20" height="20" fill="none"/>
<path d="M15.2998 2.9502C16.8186 2.9502 18.0498 4.18141 18.0498 5.7002V11H16.5498V8.5H3.4502V13C3.45033 13.6902 4.00992 14.25 4.7002 14.25H13V12.5C13 12.3182 13.0988 12.1506 13.2578 12.0625C13.4167 11.9746 13.6106 11.98 13.7646 12.0762L17.7646 14.5762C17.9108 14.6675 18 14.8276 18 15C18 15.1724 17.9108 15.3325 17.7646 15.4238L13.7646 17.9238C13.6106 18.02 13.4167 18.0254 13.2578 17.9375C13.0988 17.8494 13 17.6818 13 17.5V15.75H4.7002C3.18149 15.75 1.95033 14.5187 1.9502 13V5.7002C1.9502 4.18141 3.18141 2.9502 4.7002 2.9502H15.2998ZM4.7002 4.4502C4.00984 4.4502 3.4502 5.00984 3.4502 5.7002V7H16.5498V5.7002C16.5498 5.00984 15.9902 4.4502 15.2998 4.4502H4.7002Z" fill="#000000"/>
</svg>
