<svg xmlns="http://www.w3.org/2000/svg" width="20" height="20" viewBox="0 0 20 20" fill="none"><rect width="20" height="20" fill="none"/>
<path d="M10.032 5.59943C10.8886 5.59943 11.1393 6.12077 11.3562 6.78009L13.5994 13.5994H11.9392L11.4353 11.9783H8.4314L7.88843 13.5994H6.3269L8.6814 6.78009C8.90965 6.1187 9.17536 5.59959 10.032 5.59943ZM9.95288 7.37677L8.88647 10.6092H11.0007L9.99292 7.37677H9.95288Z" fill="#000000"/>
<path d="M9.99976 1.70001C14.5837 1.70001 18.2995 5.41594 18.2996 9.99982C18.2996 14.5838 14.5837 18.2996 9.99976 18.2996C5.41588 18.2995 1.69995 14.5837 1.69995 9.99982C1.70006 5.41601 5.41595 1.70012 9.99976 1.70001ZM9.99976 3.20001C6.24437 3.20012 3.20006 6.24444 3.19995 9.99982C3.19995 13.7553 6.24431 16.7995 9.99976 16.7996C13.7553 16.7996 16.7996 13.7554 16.7996 9.99982C16.7995 6.24437 13.7552 3.20001 9.99976 3.20001Z" fill="#000000"/>
</svg>
