<svg xmlns="http://www.w3.org/2000/svg" width="20" height="20" viewBox="0 0 20 20" fill="none"><rect width="20" height="20" fill="none"/>
<path d="M9.61621 5.57594C9.90262 5.45691 10.2316 5.47673 10.5039 5.63551L13.5039 7.38551C13.8111 7.56473 14 7.89414 14 8.24977C13.9999 8.60534 13.8111 8.93485 13.5039 9.11402L8.98535 11.7498L10 12.3416L12.4961 10.8855L13.5039 12.614L10.5039 14.364C10.1927 14.5454 9.80731 14.5454 9.49609 14.364L6.49609 12.614C6.18894 12.4349 6.00008 12.1053 6 11.7498V8.24977C6 7.89414 6.18894 7.56473 6.49609 7.38551L9.49609 5.63551L9.61621 5.57594ZM8 8.82398V10.0076L11.0137 8.24977L10 7.65797L8 8.82398Z" fill="#000000"/>
<path d="M8 2.49977C9.2376 1.78523 10.7624 1.78523 12 2.49977L15.4951 4.51734C16.7326 5.23191 17.4951 6.55322 17.4951 7.98219V12.0173C17.4949 13.4462 16.7326 14.7677 15.4951 15.4822L12 17.4998C10.7625 18.2141 9.23748 18.2141 8 17.4998L4.50488 15.4822C3.26744 14.7677 2.50508 13.4462 2.50488 12.0173V7.98219C2.50488 6.55322 3.26742 5.23191 4.50488 4.51734L8 2.49977ZM11 4.23219C10.3812 3.87492 9.6188 3.87492 9 4.23219L5.50488 6.24977C4.88622 6.60706 4.50488 7.26775 4.50488 7.98219V12.0173C4.50508 12.7317 4.88624 13.3926 5.50488 13.7498L9 15.7673C9.61868 16.1244 10.3813 16.1244 11 15.7673L14.4951 13.7498C15.1138 13.3926 15.4949 12.7317 15.4951 12.0173V7.98219C15.4951 7.26775 15.1138 6.60706 14.4951 6.24977L11 4.23219Z" fill="#000000"/>
</svg>
