<svg xmlns="http://www.w3.org/2000/svg" width="20" height="20" viewBox="0 0 20 20" fill="none"><rect width="20" height="20" fill="none"/>
<path d="M18.0003 14C15.2388 14 13.0003 16.2386 13.0003 19H11.0003C11.0003 15.134 14.1343 12 18.0003 12V14Z" fill="#000000"/>
<path d="M18.0003 19H15.0003C15.0003 17.3431 16.3434 16 18.0003 16V19Z" fill="#000000"/>
<path d="M14.0003 2.99902C15.1044 2.99953 16.0003 3.89672 16.0003 5.00098V10H14.0003V5.00098H5.7151V10.001H12.0003V12.001H5.67604L4.47682 15.001H9.00026V17.001H2.99928C2.66785 17.001 2.35726 16.8357 2.17115 16.5615C1.98538 16.2871 1.94784 15.9377 2.07057 15.6299L3.7151 11.5186V5.00098C3.7151 3.89644 4.61057 2.99907 5.7151 2.99902H14.0003Z" fill="#000000"/>
</svg>
