<svg xmlns="http://www.w3.org/2000/svg" width="24" height="24" viewBox="0 0 24 24" fill="none"><rect width="24" height="24" fill="none"/>
<path d="M22.707 15.7069L19.9141 18.4999L22.707 21.2929L21.293 22.7069L18.5 19.914L15.707 22.7069L14.293 21.2929L17.0859 18.4999L14.293 15.7069L15.707 14.2929L18.5 17.0858L21.293 14.2929L22.707 15.7069Z" fill="#000000"/>
<path d="M9.40332 2.19717C9.65676 2.00887 9.98464 1.95128 10.2871 2.0419L21 5.25577V11.9999H19V6.74405L11 4.34366V18.9999H12V20.9999H3V10.9999L9 8.74991V2.99991L9.00684 2.88272C9.03891 2.61144 9.18142 2.36228 9.40332 2.19717ZM5 12.3857V18.9999H9V10.8857L5 12.3857Z" fill="#000000"/>
</svg>
