<svg xmlns="http://www.w3.org/2000/svg" width="20" height="20" viewBox="0 0 20 20" fill="none"><rect width="20" height="20" fill="none"/>
<path d="M10 2.75C10.2508 2.75 10.485 2.87534 10.6241 3.08398L13.1836 6.92383L16.5498 4.40039C16.7867 4.22274 17.1066 4.20072 17.3653 4.34473C17.6238 4.48881 17.7733 4.7716 17.7471 5.06641L16.6866 17H3.31351L2.25296 5.06641C2.22676 4.77161 2.37631 4.48881 2.63479 4.34473C2.89349 4.20071 3.21335 4.22275 3.45022 4.40039L6.81546 6.92383L9.37601 3.08398L9.43265 3.00977C9.57407 2.84605 9.78065 2.75001 10 2.75ZM7.62405 8.41602C7.50977 8.58743 7.33002 8.70439 7.12698 8.73926C6.92382 8.77405 6.71473 8.72328 6.54983 8.59961L3.89554 6.6084L4.68655 15.5H15.3135L16.1035 6.6084L13.4502 8.59961C13.2853 8.72328 13.0762 8.77406 12.8731 8.73926C12.67 8.70438 12.4903 8.58743 12.376 8.41602L10 4.85156L7.62405 8.41602Z" fill="#000000"/>
</svg>
