<svg xmlns="http://www.w3.org/2000/svg" width="20" height="20" viewBox="0 0 20 20" fill="none"><rect width="20" height="20" fill="none"/>
<path d="M10.0322 5.59961C10.8889 5.59961 11.1396 6.12096 11.3564 6.78027L13.5996 13.5996H11.9395L11.4355 11.9785H8.43164L7.88867 13.5996H6.32715L8.68164 6.78027C8.90989 6.11889 9.17565 5.5998 10.0322 5.59961ZM9.9541 7.37695L8.88672 10.6094H11.001L9.99316 7.37695H9.9541Z" fill="#000000"/>
<path d="M10 2C14.4183 2 18 5.58172 18 10C18 14.4183 14.4183 18 10 18C5.58172 18 2 14.4183 2 10C2 5.58172 5.58172 2 10 2ZM10 4C6.68629 4 4 6.68629 4 10C4 13.3137 6.68629 16 10 16C13.3137 16 16 13.3137 16 10C16 6.68629 13.3137 4 10 4Z" fill="#000000"/>
</svg>
