<svg xmlns="http://www.w3.org/2000/svg" width="24" height="24" viewBox="0 0 24 24" fill="none"><rect width="24" height="24" fill="none"/>
<path d="M23 15C22.9999 15.0645 22.9749 21.5075 18 23C13.0251 21.5075 13.0001 15.0645 13 15L18 13L23 15ZM15.1387 16.2988C15.216 16.7448 15.3343 17.2593 15.5156 17.7852C15.97 19.1027 16.724 20.2666 18 20.8643C19.276 20.2666 20.03 19.1027 20.4844 17.7852C20.6656 17.2594 20.783 16.7448 20.8604 16.2988L18 15.1543L15.1387 16.2988Z" fill="#000000"/>
<path d="M21 7.94531V11H19V9.05371L12 4.67871L5 9.05371V19H11V21H3V7.94531L12 2.32031L21 7.94531Z" fill="#000000"/>
</svg>
