<svg xmlns="http://www.w3.org/2000/svg" width="20" height="20" viewBox="0 0 20 20" fill="none"><rect width="20" height="20" fill="none"/>
<path d="M12.9287 8.25C15.7308 8.25007 17.75 10.378 17.75 12.835C17.7499 14.3001 17.0888 15.6398 16.209 16.6035C15.3445 17.5503 14.1581 18.25 13 18.25C12.5858 18.25 12.25 17.9142 12.25 17.5V16.2061C11.3316 16.1046 10.4596 15.8154 9.75879 15.3125C8.84705 14.6582 8.2501 13.6599 8.25 12.3838C8.25 11.1681 8.71409 10.1093 9.57227 9.36426C10.4204 8.62794 11.5913 8.25 12.9287 8.25ZM12.9287 9.75C11.8653 9.75 11.0716 10.0492 10.5557 10.4971C10.0499 10.9362 9.75 11.5695 9.75 12.3838C9.7501 13.1374 10.0815 13.6974 10.6338 14.0938C11.2085 14.5061 12.044 14.75 13 14.75H13.75V16.5801C14.1903 16.3968 14.6675 16.0662 15.1006 15.5918C15.784 14.8433 16.2499 13.8506 16.25 12.835C16.25 11.2319 14.9281 9.75007 12.9287 9.75Z" fill="#000000"/>
<path d="M11.25 2C13.3211 2 15 3.67893 15 5.75V6H13.5V5.75C13.5 4.50736 12.4926 3.5 11.25 3.5H6.75C5.50736 3.5 4.5 4.50736 4.5 5.75V14.25C4.5 15.4926 5.50736 16.5 6.75 16.5H8V18H6.75C4.67893 18 3 16.3211 3 14.25V5.75C3 3.67893 4.67893 2 6.75 2H11.25Z" fill="#000000"/>
<path d="M10 5C10.5523 5 11 5.44772 11 6C11 6.55228 10.5523 7 10 7H8C7.44772 7 7 6.55228 7 6C7 5.44772 7.44772 5 8 5H10Z" fill="#000000"/>
</svg>
