<svg xmlns="http://www.w3.org/2000/svg" width="20" height="20" viewBox="0 0 20 20" fill="none"><rect width="20" height="20" fill="none"/>
<path d="M10.0029 2.01172C14.6912 2.29523 17.0275 7.88952 13.9531 11.4229L16.917 14.5176L12.998 18.4121L9.99609 15.4102L7.00098 18.415L3.10059 14.5156L6.03516 11.4473C2.67956 8.0305 4.94748 2.3022 9.62988 2.01172V2C9.68619 2 9.74217 2.00143 9.79785 2.00293C9.86567 2.00064 9.93415 2 10.0029 2V2.01172ZM11.4092 13.9951L13.002 15.5879L14.1143 14.4824L12.5508 12.8496L11.4092 13.9951ZM13.0576 6.30371C12.9241 6.88138 12.6342 7.44306 12.165 7.93359L5.89941 14.4844L7 15.585L12.252 10.3184C13.4099 9.15721 13.5821 7.58779 13.0576 6.30371ZM6.73926 6.14258C6.21045 7.36419 6.34611 8.87052 7.41895 10L8.61816 8.74609L7.58398 7.66602C7.14451 7.20718 6.87033 6.68254 6.73926 6.14258ZM9.81934 4.01172C8.75477 4.14928 8.25045 5.46976 9.02832 6.28223L10.0029 7.2998L10.7197 6.55078C11.5924 5.63821 11.0197 4.15458 9.81934 4.01172Z" fill="#000000"/>
</svg>
