<svg xmlns="http://www.w3.org/2000/svg" width="24" height="24" viewBox="0 0 24 24" fill="none"><rect width="24" height="24" fill="none"/>
<g clip-path="url(#clip0_6490_972)">
<path d="M14.2939 14.293C14.5712 14.016 14.9856 13.9259 15.3525 14.0635L23.3525 17.0635C23.7344 17.207 23.9913 17.5688 24.001 17.9766C24.0104 18.3847 23.7696 18.7579 23.3945 18.9189L20.2627 20.2607L18.9199 23.3936C18.7591 23.7688 18.3856 24.0092 17.9775 24C17.5695 23.9904 17.2079 23.7336 17.0645 23.3516L14.0645 15.3516C13.9269 14.9845 14.0167 14.5702 14.2939 14.293ZM18.0625 20.3164L18.7402 18.7383L19.1074 18.5811L20.3174 18.0615L16.71 16.709L18.0625 20.3164Z" fill="#000000"/>
<path d="M17 3C19.2091 3 21 4.79086 21 7V13H19V7C19 5.89543 18.1046 5 17 5H7C5.89543 5 5 5.89543 5 7V17C5 18.1046 5.89543 19 7 19H13V21H7C4.79086 21 3 19.2091 3 17V7C3 4.79086 4.79086 3 7 3H17Z" fill="#000000"/>
<path d="M12 13H7V11H12V13Z" fill="#000000"/>
<path d="M16 9H7V7H16V9Z" fill="#000000"/>
</g>
<defs>
<clipPath id="clip0_6490_972">
<rect width="24" height="24" fill="white"/>
</clipPath>
</defs>
</svg>
