<svg xmlns="http://www.w3.org/2000/svg" width="20" height="20" viewBox="0 0 20 20" fill="none"><rect width="20" height="20" fill="none"/>
<path d="M14 10C16.2091 10 18 11.7909 18 14C18 14.8334 17.7437 15.6064 17.3076 16.2471L19.0303 17.9697L17.9697 19.0303L16.2471 17.3076C15.6064 17.7437 14.8334 18 14 18C11.7909 18 10 16.2091 10 14C10 11.7909 11.7909 10 14 10ZM14 11.5C12.6193 11.5 11.5 12.6193 11.5 14C11.5 15.3807 12.6193 16.5 14 16.5C15.3807 16.5 16.5 15.3807 16.5 14C16.5 12.6193 15.3807 11.5 14 11.5Z" fill="#000000"/>
<path d="M8.7002 1.9502C10.2189 1.9503 11.4502 3.18148 11.4502 4.7002V5.9502H13.2998C14.8186 5.9502 16.0498 7.18141 16.0498 8.7002V9H14.5498V8.7002C14.5498 8.00984 13.9902 7.4502 13.2998 7.4502H9.9502V4.7002C9.9502 4.00991 9.39046 3.4503 8.7002 3.4502H5.4502V16.5498H9V18.0498H3.9502V1.9502H8.7002Z" fill="#000000"/>
</svg>
