<svg xmlns="http://www.w3.org/2000/svg" width="24" height="24" viewBox="0 0 24 24" fill="none"><rect width="24" height="24" fill="none"/>
<path d="M9.00001 13H7.00001V10H9.00001V13Z" fill="#000000"/>
<path d="M17 13H15V10H17V13Z" fill="#000000"/>
<path d="M12 2C14.7614 2 17 4.23858 17 7H19.9258L20.9971 20.9229C21.0184 21.2006 20.9227 21.4753 20.7334 21.6797C20.5442 21.8839 20.2784 22 20 22H4.00001C3.7216 22 3.45585 21.8839 3.26661 21.6797C3.07736 21.4753 2.98158 21.2006 3.00294 20.9229L4.07423 7H7.00001C7.00001 4.23858 9.23859 2.00001 12 2ZM5.08009 20H18.9199L18.0742 9H5.92579L5.08009 20ZM12 4C10.3432 4.00001 9.00001 5.34315 9.00001 7H15C15 5.34315 13.6569 4 12 4Z" fill="#000000"/>
</svg>
