<svg xmlns="http://www.w3.org/2000/svg" width="20" height="20" viewBox="0 0 20 20" fill="none"><rect width="20" height="20" fill="none"/>
<path d="M15.2637 13.0596C15.4263 12.9726 15.6239 12.9817 15.7773 13.084L18.7773 15.084C18.9164 15.1767 19 15.3329 19 15.5C18.9999 15.6671 18.9164 15.8233 18.7773 15.916L15.7773 17.916C15.624 18.0182 15.4262 18.0274 15.2637 17.9404C15.1014 17.8534 15.0001 17.6841 15 17.5V16.5C13.8954 16.5 13 17.3954 13 18.5V19H11V18.5C11 16.2909 12.7909 14.5 15 14.5V13.5L15.0049 13.4316C15.0265 13.2747 15.1218 13.1358 15.2637 13.0596Z" fill="#000000"/>
<path d="M15 2C16.6569 2 18 3.34315 18 5V11H16V5C16 4.44772 15.5523 4 15 4H5C4.44772 4 4 4.44772 4 5V15C4 15.5523 4.44772 16 5 16H9V18H5C3.34315 18 2 16.6569 2 15V5C2 3.34315 3.34315 2 5 2H15Z" fill="#000000"/>
<path d="M10 12H6V10H10V12Z" fill="#000000"/>
<path d="M13 8H6V6H13V8Z" fill="#000000"/>
</svg>
