<svg xmlns="http://www.w3.org/2000/svg" width="20" height="20" viewBox="0 0 20 20" fill="none"><rect width="20" height="20" fill="none"/>
<path d="M17.3936 7.08105C17.7612 7.23862 18 7.6 18 8C18 8.40002 17.7612 8.76136 17.3936 8.91895L16 9.51562V12.5156C15.9999 13.5036 15.4781 14.4185 14.6279 14.9219C11.774 16.6115 8.22603 16.6115 5.37207 14.9219C4.52191 14.4185 4.00008 13.5036 4 12.5156V9.51562L2.60645 8.91895C2.23878 8.76136 2 8.40002 2 8C2.00003 7.6 2.23879 7.23862 2.60645 7.08105L10 3.91211L17.3936 7.08105ZM10 12.0879L6 10.373V12.5156C6.00008 12.797 6.14855 13.0578 6.39062 13.2012C8.61632 14.5189 11.3837 14.5189 13.6094 13.2012C13.8515 13.0578 13.9999 12.797 14 12.5156V10.373L10 12.0879ZM5.53711 8L10 9.91211L14.4619 8L10 6.08691L5.53711 8Z" fill="#000000"/>
</svg>
