<svg xmlns="http://www.w3.org/2000/svg" width="20" height="20" viewBox="0 0 20 20" fill="none"><rect width="20" height="20" fill="none"/>
<path d="M19 19H11V17H19V19Z" fill="#000000"/>
<path d="M15 2C16.6569 2 18 3.34315 18 5V7H16V5C16 4.44772 15.5523 4 15 4H5C4.44772 4 4 4.44772 4 5V15C4 15.5523 4.44772 16 5 16H9V18H5C3.34315 18 2 16.6569 2 15V5C2 3.34315 3.34315 2 5 2H15Z" fill="#000000"/>
<path d="M18.7578 13.9658L11.2578 15.9658L10.7422 14.0342L18.2422 12.0342L18.7578 13.9658Z" fill="#000000"/>
<path d="M9 12H6V10H9V12Z" fill="#000000"/>
<path d="M13 8H6V6H13V8Z" fill="#000000"/>
</svg>
