<svg xmlns="http://www.w3.org/2000/svg" width="20" height="20" viewBox="0 0 20 20" fill="none"><rect width="20" height="20" fill="none"/>
<path d="M12.0005 11.709C11.4033 11.5751 10.7388 11.5 10.0005 11.5C6.767 11.5001 4.95042 12.9366 3.99268 14.4707C3.53121 15.21 3.28627 15.9425 3.15576 16.4854C3.09019 16.7582 3.05257 16.9885 3.03076 17.1553C3.01984 17.2388 3.01265 17.3073 3.0083 17.3574C3.00613 17.3824 3.00448 17.4032 3.00342 17.4189C3.00311 17.4235 3.00293 17.4277 3.00277 17.4315C3.00266 17.434 3.00256 17.4363 3.00244 17.4385L3.00137 17.4429L3.00049 17.4463V17.4502L4.99951 17.5498V17.5527L4.99962 17.5486C4.99969 17.5445 4.99979 17.5383 5.00049 17.5303C5.0025 17.5071 5.00724 17.468 5.01416 17.415C5.02809 17.3085 5.05407 17.1477 5.10107 16.9521C5.19595 16.5577 5.37141 16.0396 5.68994 15.5293C6.29292 14.5637 7.47695 13.5001 10.0005 13.5C10.7907 13.5 11.4496 13.6045 12.0005 13.7773V11.709Z" fill="#000000"/>
<path d="M13.9995 6C13.9995 3.79086 12.2087 2 9.99951 2C7.79054 2.00019 5.99951 3.79098 5.99951 6C5.99951 8.20902 7.79054 9.99981 9.99951 10C12.2087 10 13.9995 8.20914 13.9995 6ZM7.99951 6C7.99951 4.89555 8.89511 4.00019 9.99951 4C11.1041 4 11.9995 4.89543 11.9995 6C11.9995 7.10457 11.1041 8 9.99951 8C8.89511 7.99981 7.99951 7.10445 7.99951 6Z" fill="#000000"/>
<path d="M20 14C20 12.3431 18.6569 11 17 11H14V15H13V17H14V18H13V19H14V20H16V19H18V18H16V17H17C18.6569 17 20 15.6569 20 14ZM17 15H16V13H17C17.5523 13 18 13.4477 18 14C18 14.5523 17.5523 15 17 15Z" fill="#000000"/>
</svg>
