<svg xmlns="http://www.w3.org/2000/svg" width="20" height="20" viewBox="0 0 20 20" fill="none"><rect width="20" height="20" fill="none"/>
<path d="M6.50008 8C7.32851 8 8.00008 8.67157 8.00008 9.5C8.00008 10.3284 7.32851 11 6.50008 11C5.67169 11 5.00008 10.3284 5.00008 9.5C5.00008 8.6716 5.67169 8.00004 6.50008 8Z" fill="#000000"/>
<path d="M13.5001 8C14.3285 8 15.0001 8.67157 15.0001 9.5C15.0001 10.3284 14.3285 11 13.5001 11C12.6717 11 12.0001 10.3284 12.0001 9.5C12.0001 8.6716 12.6717 8.00004 13.5001 8Z" fill="#000000"/>
<path d="M13.8516 3C15.8689 3.00001 17.5712 4.50218 17.8214 6.50391L18.712 13.6318C18.9355 15.4202 17.5407 17 15.7384 17C15.0232 16.9999 14.3312 16.7438 13.7882 16.2783L11.1309 14H8.86922L6.21199 16.2783C5.66898 16.7438 4.97698 16.9999 4.2618 17C2.45947 17 1.0646 15.4202 1.28816 13.6318L2.17977 6.50391C2.42999 4.5022 4.13123 3 6.14852 3H13.8516ZM6.14852 5C5.13988 5 4.28926 5.7511 4.16414 6.75195L3.27254 13.8799C3.1982 14.4746 3.66247 15 4.2618 15C4.49956 14.9999 4.72971 14.9145 4.91023 14.7598L7.84969 12.2412L8.12996 12H11.8702L12.1505 12.2412L15.0899 14.7598C15.2705 14.9145 15.5006 14.9999 15.7384 15C16.3377 15 16.802 14.4746 16.7276 13.8799L15.836 6.75195C15.7109 5.75111 14.8603 5.00001 13.8516 5H6.14852Z" fill="#000000"/>
</svg>
