<svg xmlns="http://www.w3.org/2000/svg" width="20" height="20" viewBox="0 0 20 20" fill="none"><rect width="20" height="20" fill="none"/>
<path d="M10.3994 2.53199C11.9859 1.47458 14.0981 1.68384 15.4463 3.03199L16.207 3.79274C16.4447 4.03042 16.5471 4.37167 16.4795 4.70094C16.4119 5.03016 16.1832 5.30365 15.8711 5.42848C14.8298 5.84499 14.2368 6.13762 13.8184 6.44703C13.7219 6.51833 13.6314 6.59155 13.5459 6.67164L19 5.83375V6.99977C19 9.15312 18.4608 10.8466 17.2451 11.9812C16.3745 12.7938 15.2556 13.2245 13.9951 13.4011L15.4688 16.7166L14.6143 17.1443L14.4727 17.2146C11.6574 18.6222 8.34358 18.6222 5.52832 17.2146L5.38672 17.1443L4.53223 16.7166L6.00391 13.4021C4.74639 13.2284 3.62794 12.804 2.75684 11.9949C1.53831 10.863 1 9.16742 1 6.99977V5.83375L6.4541 6.67262C6.36845 6.59235 6.27824 6.51847 6.18164 6.44703C5.76321 6.13762 5.17016 5.84499 4.12891 5.42848C3.81685 5.30365 3.58812 5.03016 3.52051 4.70094C3.45293 4.37167 3.55529 4.03042 3.79297 3.79274L4.55371 3.03199C5.90188 1.68384 8.01414 1.47458 9.60059 2.53199L10 2.79762L10.3994 2.53199ZM8.49121 4.19606C7.81316 3.7442 6.94356 3.7555 6.28418 4.18922C6.69395 4.39297 7.05252 4.60306 7.37109 4.83863C8.04362 5.33597 8.48925 5.90822 8.91406 6.64625C9.56794 7.78225 8.55592 9.02026 7.39258 8.84156L3.07227 8.17652C3.22617 9.33284 3.61476 10.0624 4.11816 10.53C4.78927 11.1532 5.86365 11.4998 7.5 11.4998H9.03906L7.15234 15.7429C8.98614 16.442 11.0128 16.4426 12.8467 15.7439L10.9609 11.4998H12.5C14.1316 11.4998 15.207 11.1464 15.8799 10.5183C16.384 10.0478 16.7711 9.31917 16.9258 8.17652L12.6074 8.84156C11.4441 9.02026 10.4321 7.78225 11.0859 6.64625C11.5108 5.90822 11.9564 5.33597 12.6289 4.83863C12.9473 4.60321 13.3054 4.39285 13.7148 4.18922C13.0555 3.75595 12.1866 3.74436 11.5088 4.19606L10 5.20192L8.49121 4.19606Z" fill="#000000"/>
</svg>
