<svg xmlns="http://www.w3.org/2000/svg" width="24" height="24" viewBox="0 0 24 24" fill="none"><rect width="24" height="24" fill="none"/>
<path d="M12 2.00098C14.4018 2.00098 16.606 2.84752 18.3301 4.25879L18.3691 4.22461C18.7619 3.90426 19.3409 3.92685 19.707 4.29297C20.0731 4.65908 20.0957 5.23809 19.7754 5.63086L19.7402 5.66895C21.1525 7.3933 22 9.59817 22 12.001C22 14.403 21.1527 16.6069 19.7412 18.3311L19.7754 18.3691C20.0957 18.7619 20.0731 19.3409 19.707 19.707C19.3409 20.0731 18.7619 20.0957 18.3691 19.7754L18.3311 19.7412C16.6068 21.1532 14.4025 22.001 12 22.001C9.5972 22.001 7.39233 21.1535 5.66797 19.7412C5.27542 20.0956 4.67118 20.0852 4.29297 19.707C3.91474 19.3288 3.90339 18.7236 4.25781 18.3311C2.84654 16.607 2 14.4028 2 12.001C2 9.59839 2.84671 7.39323 4.25879 5.66895C3.90392 5.27641 3.91458 4.67136 4.29297 4.29297C4.67136 3.91458 5.27641 3.90392 5.66895 4.25879C7.39308 2.84723 9.59791 2.00098 12 2.00098ZM14.7568 16.1709C13.9663 16.6946 13.0192 17.001 12 17.001C10.9805 17.001 10.0328 16.6949 9.24219 16.1709L7.09473 18.3184C8.44957 19.3719 10.1508 20.001 12 20.001C13.8489 20.001 15.5496 19.3716 16.9043 18.3184L14.7568 16.1709ZM5.68164 7.0957C4.62835 8.45047 4 10.152 4 12.001C4 13.8491 4.62816 15.5498 5.68066 16.9043L7.82812 14.7568C7.30509 13.9666 7 13.0195 7 12.001C7 10.9816 7.30533 10.0337 7.8291 9.24316L5.68164 7.0957ZM16.1699 9.24316C16.6939 10.0338 17 10.9814 17 12.001C17 13.0197 16.6941 13.9666 16.1709 14.7568L18.3184 16.9043C19.3711 15.5497 20 13.8494 20 12.001C20 10.1518 19.3709 8.45054 18.3174 7.0957L16.1699 9.24316ZM12 9.00098C10.3431 9.00098 9 10.3441 9 12.001C9 13.6578 10.3431 15.001 12 15.001C13.6569 15.001 15 13.6578 15 12.001C15 10.3441 13.6569 9.00098 12 9.00098ZM12 4.00098C10.1516 4.00098 8.45029 4.62885 7.0957 5.68164L9.24316 7.8291C10.0335 7.30579 10.9811 7.00098 12 7.00098C13.0186 7.00098 13.9657 7.30606 14.7559 7.8291L16.9033 5.68164C15.5488 4.62914 13.8482 4.00098 12 4.00098Z" fill="#000000"/>
</svg>
