<svg xmlns="http://www.w3.org/2000/svg" width="24" height="24" viewBox="0 0 24 24" fill="none"><rect width="24" height="24" fill="none"/>
<path d="M12.9995 4.08398C15.8372 4.56003 17.9995 7.02698 17.9995 10V13.0752C17.9995 13.215 18.0287 13.3537 18.0854 13.4814L19.2885 16.1875C19.8763 17.5101 18.9077 19 17.4604 19H14.9995C14.9995 20.6569 13.6563 22 11.9995 22C10.3427 21.9999 8.99946 20.6568 8.99946 19H6.53852C5.09139 18.9998 4.12272 17.51 4.7104 16.1875L5.91352 13.4814C5.97025 13.3537 5.99946 13.215 5.99946 13.0752V10C5.99947 7.02715 8.16195 4.56024 10.9995 4.08398V2H12.9995V4.08398ZM10.9995 19C10.9995 19.5522 11.4473 19.9999 11.9995 20C12.5517 20 12.9995 19.5523 12.9995 19H10.9995ZM11.9995 6C9.79044 6.00014 7.99946 7.79095 7.99946 10V13.0752C7.99946 13.4949 7.91114 13.9104 7.74067 14.2939L6.53852 17H17.4604L16.2582 14.2939C16.0878 13.9104 15.9995 13.4949 15.9995 13.0752V10C15.9995 7.79086 14.2086 6 11.9995 6Z" fill="#000000"/>
</svg>
