<svg xmlns="http://www.w3.org/2000/svg" width="20" height="20" viewBox="0 0 20 20" fill="none"><rect width="20" height="20" fill="none"/>
<path d="M6.99976 13C7.55196 13 7.99962 13.4478 7.99976 14C7.99976 14.5523 7.55204 15 6.99976 15C6.44756 14.9999 5.99976 14.5522 5.99976 14C5.99989 13.4479 6.44764 13.0001 6.99976 13Z" fill="#000000"/>
<path d="M9.99976 13C10.552 13 10.9996 13.4478 10.9998 14C10.9998 14.5523 10.552 15 9.99976 15C9.44756 14.9999 8.99976 14.5522 8.99976 14C8.99989 13.4479 9.44764 13.0001 9.99976 13Z" fill="#000000"/>
<path d="M12.9998 10C13.552 10 13.9996 10.4478 13.9998 11V14C13.9998 14.5523 13.552 15 12.9998 15C12.4476 14.9999 11.9998 14.5522 11.9998 14V11C11.9999 10.4479 12.4476 10.0001 12.9998 10Z" fill="#000000"/>
<path d="M6.99976 10C7.55196 10 7.99962 10.4478 7.99976 11C7.99976 11.5523 7.55204 12 6.99976 12C6.44756 11.9999 5.99976 11.5522 5.99976 11C5.99989 10.4479 6.44764 10.0001 6.99976 10Z" fill="#000000"/>
<path d="M9.99976 10C10.552 10 10.9996 10.4478 10.9998 11C10.9998 11.5523 10.552 12 9.99976 12C9.44756 11.9999 8.99976 11.5522 8.99976 11C8.99989 10.4479 9.44764 10.0001 9.99976 10Z" fill="#000000"/>
<path d="M13.9998 7H5.99976V5H13.9998V7Z" fill="#000000"/>
<path d="M14.2996 1.9502C15.8183 1.9502 17.0496 3.18141 17.0496 4.7002V15.3008C17.0494 16.8194 15.8182 18.0508 14.2996 18.0508H5.69995C4.18128 18.0508 2.95014 16.8194 2.94995 15.3008V4.7002C2.94995 3.18141 4.18117 1.9502 5.69995 1.9502H14.2996ZM5.69995 3.4502C5.00959 3.4502 4.44995 4.00984 4.44995 4.7002V15.3008C4.45014 15.991 5.00971 16.5508 5.69995 16.5508H14.2996C14.9898 16.5508 15.5494 15.991 15.5496 15.3008V4.7002C15.5496 4.00984 14.9899 3.4502 14.2996 3.4502H5.69995Z" fill="#000000"/>
</svg>
