<svg xmlns="http://www.w3.org/2000/svg" width="20" height="20" viewBox="0 0 20 20" fill="none"><rect width="20" height="20" fill="none"/>
<path d="M6.12207 5.10114C4.67797 6.24842 3.7502 8.01722 3.75 10.0005C3.75006 11.9836 4.67844 13.7507 6.12207 14.898V16.7095C3.80972 15.3652 2.25007 12.8659 2.25 10.0005C2.25023 7.13522 3.80958 4.63481 6.12207 3.29059V5.10114Z" fill="#000000"/>
<path d="M13.9268 3.29059C16.2392 4.63486 17.7988 7.13418 17.7988 9.99957C17.7988 12.8651 16.2394 15.3652 13.9268 16.7095V14.899C15.371 13.7516 16.2988 11.9831 16.2988 9.99957C16.2988 8.01644 15.3705 6.24943 13.9268 5.10211V3.29059Z" fill="#000000"/>
<path d="M10.7617 5.42731C11.2322 5.51898 11.6913 5.70069 12.0811 5.98883C12.6951 6.44313 13.116 7.14702 13.1162 8.05231H11.6162C11.616 7.66047 11.4515 7.38954 11.1885 7.19489C10.9787 7.03994 10.6953 6.92916 10.3779 6.88141L9.6377 6.88727C9.33411 6.93763 9.06355 7.04553 8.86133 7.19489C8.59801 7.38956 8.43376 7.66024 8.43359 8.05231C8.43364 8.28134 8.48212 8.42367 8.53613 8.51813C8.5913 8.61425 8.67803 8.70593 8.81836 8.79547C9.13355 8.99629 9.58794 9.11756 10.207 9.27203C10.7581 9.40954 11.4756 9.58137 12.0381 9.94C12.336 10.1301 12.6157 10.3864 12.8164 10.7369C13.018 11.0894 13.1162 11.4961 13.1162 11.9478C13.116 12.8053 12.6804 13.4969 12.0947 13.9517C11.7129 14.2481 11.2554 14.4535 10.7754 14.5601V16.0005H9.27539V14.5699C8.80977 14.4774 8.35581 14.2965 7.96973 14.0113C7.35537 13.557 6.93379 12.8533 6.93359 11.9478H8.43359C8.43377 12.3398 8.59812 12.6106 8.86133 12.8052C9.06913 12.9587 9.34929 13.0683 9.66309 13.1168H10.3535C10.6627 13.064 10.9523 12.9398 11.1748 12.7672C11.4664 12.5406 11.616 12.2579 11.6162 11.9478C11.6162 11.7191 11.5686 11.5764 11.5146 11.482C11.4595 11.3858 11.3718 11.2942 11.2314 11.2047C10.9164 11.0038 10.4626 10.8825 9.84375 10.7281C9.29264 10.5906 8.57444 10.4188 8.01172 10.0601C7.71382 9.87007 7.43514 9.61372 7.23438 9.26324C7.03254 8.91058 6.93364 8.50423 6.93359 8.05231C6.93378 7.14667 7.35527 6.44311 7.96973 5.98883C8.3524 5.70605 8.80141 5.52547 9.2627 5.43219L9.25098 4.00641L10.75 3.99371L10.7617 5.42731Z" fill="#000000"/>
</svg>
