<svg xmlns="http://www.w3.org/2000/svg" width="20" height="20" viewBox="0 0 20 20" fill="none"><rect width="20" height="20" fill="none"/>
<path d="M19 18.999H11V16.999H19V18.999Z" fill="#000000"/>
<path d="M10.3994 2.53126C11.9859 1.47385 14.0981 1.68311 15.4463 3.03126L16.207 3.792C16.4446 4.02968 16.5471 4.37099 16.4795 4.70021C16.4118 5.02933 16.1831 5.30295 15.8711 5.42775C14.8299 5.84424 14.2368 6.1369 13.8184 6.4463C13.722 6.51758 13.6314 6.59085 13.5459 6.67091L19 5.83302V6.99903C19 8.13127 18.8484 9.13548 18.5303 9.99903H16.3086C16.5988 9.55364 16.8191 8.96419 16.9258 8.17579L12.6074 8.84083C11.4442 9.01949 10.4323 7.78146 11.0859 6.64552C11.5107 5.90753 11.9564 5.33522 12.6289 4.8379C12.9473 4.6025 13.3054 4.3921 13.7148 4.18849C13.0555 3.75521 12.1866 3.74363 11.5088 4.19532L10 5.20118L8.49121 4.19532C7.81316 3.74347 6.94356 3.75477 6.28418 4.18849C6.69392 4.39222 7.05254 4.60235 7.37109 4.8379C8.04356 5.33522 8.48927 5.90753 8.91406 6.64552C9.56773 7.78146 8.55584 9.01949 7.39258 8.84083L3.07227 8.17579C3.22619 9.33197 3.61479 10.0617 4.11816 10.5293C4.78928 11.1524 5.86375 11.499 7.5 11.499H9.03906L7.15234 15.7422C7.75197 15.9708 8.37262 16.122 9 16.2012V18.2178C7.80637 18.0978 6.62912 17.7643 5.52832 17.2139L5.38672 17.1436L4.53223 16.7158L6.00391 13.4014C4.74645 13.2277 3.62792 12.8032 2.75684 11.9942C1.53836 10.8623 1.00004 9.16658 1 6.99903V5.83302L6.4541 6.67189C6.36848 6.59165 6.2782 6.51771 6.18164 6.4463C5.76322 6.1369 5.17011 5.84424 4.12891 5.42775C3.81692 5.30295 3.58818 5.02933 3.52051 4.70021C3.45294 4.37099 3.55537 4.02968 3.79297 3.792L4.55371 3.03126C5.90188 1.68311 8.01414 1.47385 9.60059 2.53126L10 2.79689L10.3994 2.53126Z" fill="#000000"/>
<path d="M18.7578 13.9649L11.2578 15.9649L10.7422 14.0332L18.2422 12.0332L18.7578 13.9649Z" fill="#000000"/>
</svg>
