<svg xmlns="http://www.w3.org/2000/svg" width="20" height="20" viewBox="0 0 20 20" fill="none"><rect width="20" height="20" fill="none"/>
<path d="M12.5494 2.08691C14.0948 4.33809 14.9996 7.06315 14.9996 10C14.9996 12.9366 14.0945 15.6611 12.5494 17.9121L11.3483 17.0117C12.7058 15.0121 13.4996 12.599 13.4996 10C13.4996 7.4007 12.7061 4.98705 11.3483 2.9873L12.5494 2.08691Z" fill="#000000"/>
<path d="M9.19983 4.59961C10.33 6.1039 10.9996 7.97363 10.9996 10C10.9996 12.0264 10.33 13.8961 9.19983 15.4004L7.99963 14.5C8.94138 13.2464 9.49962 11.6886 9.49963 10C9.49963 8.31112 8.94164 6.75269 7.99963 5.49902L9.19983 4.59961Z" fill="#000000"/>
<path d="M6.13635 6.89746C6.68436 7.80277 6.99963 8.86451 6.99963 10C6.99962 11.1357 6.68357 12.1971 6.13538 13.1025L4.92737 12.1953C5.29125 11.5458 5.49962 10.7975 5.49963 10C5.49963 9.20241 5.29231 8.45333 4.92834 7.80371L6.13635 6.89746Z" fill="#000000"/>
</svg>
