<svg xmlns="http://www.w3.org/2000/svg" width="20" height="20" viewBox="0 0 20 20" fill="none"><rect width="20" height="20" fill="none"/>
<path d="M10.7617 5.42676C11.2322 5.51842 11.6912 5.70013 12.0811 5.98828C12.6952 6.44258 13.116 7.1464 13.1162 8.05176H11.6162C11.616 7.65985 11.4516 7.389 11.1885 7.19434C10.9787 7.03938 10.6953 6.92861 10.3779 6.88086L9.6377 6.88672C9.33418 6.93706 9.06354 7.04504 8.86133 7.19434C8.59801 7.38901 8.43376 7.65969 8.43359 8.05176C8.43359 8.28097 8.4821 8.42308 8.53613 8.51758C8.59129 8.61378 8.67792 8.70531 8.81836 8.79492C9.13356 8.99579 9.58785 9.11698 10.207 9.27148C10.7581 9.40899 11.4756 9.5808 12.0381 9.93945C12.336 10.1295 12.6156 10.3858 12.8164 10.7363C13.0181 11.0889 13.1162 11.4955 13.1162 11.9473C13.1161 12.8049 12.6804 13.4963 12.0947 13.9512C11.713 14.2475 11.2554 14.4529 10.7754 14.5596V16H9.27539V14.5693C8.80971 14.4768 8.35584 14.2961 7.96973 14.0107C7.35531 13.5564 6.93369 12.8529 6.93359 11.9473H8.43359C8.43368 12.3394 8.59806 12.61 8.86133 12.8047C9.06915 12.9582 9.34922 13.0678 9.66309 13.1162H10.3535C10.6626 13.0634 10.9523 12.9393 11.1748 12.7666C11.4664 12.54 11.6161 12.2574 11.6162 11.9473C11.6162 11.7184 11.5686 11.5759 11.5146 11.4814C11.4595 11.3852 11.3719 11.2937 11.2314 11.2041C10.9164 11.0032 10.4627 10.882 9.84375 10.7275C9.2926 10.59 8.57446 10.4183 8.01172 10.0596C7.71375 9.86948 7.43515 9.61329 7.23438 9.2627C7.0325 8.90995 6.93359 8.5038 6.93359 8.05176C6.93378 7.14612 7.35527 6.44256 7.96973 5.98828C8.35237 5.70557 8.80147 5.5249 9.2627 5.43164L9.25098 4.00586L10.75 3.99316L10.7617 5.42676Z" fill="#000000"/>
<path d="M15.2998 1.9502C16.8186 1.9502 18.0498 3.18141 18.0498 4.7002V15.2998C18.0498 16.8186 16.8186 18.0498 15.2998 18.0498H4.7002C3.18141 18.0498 1.9502 16.8186 1.9502 15.2998V4.7002C1.9502 3.18141 3.18141 1.9502 4.7002 1.9502H15.2998ZM4.7002 3.4502C4.00984 3.4502 3.4502 4.00984 3.4502 4.7002V15.2998C3.4502 15.9902 4.00984 16.5498 4.7002 16.5498H15.2998C15.9902 16.5498 16.5498 15.9902 16.5498 15.2998V4.7002C16.5498 4.00984 15.9902 3.4502 15.2998 3.4502H4.7002Z" fill="#000000"/>
</svg>
