<svg xmlns="http://www.w3.org/2000/svg" width="20" height="20" viewBox="0 0 20 20" fill="none"><rect width="20" height="20" fill="none"/>
<path d="M9.99977 11.4141L8.58556 9.99993L9.64622 8.93927L11.0604 10.3535L9.99977 11.4141Z" fill="#000000"/>
<path d="M15.4798 10.1767L16.187 10.8838L9.823 17.2478C8.74905 18.3217 7.00785 18.3217 5.93391 17.2478L2.75193 14.0658C1.67799 12.9919 1.67799 11.2506 2.75193 10.1767L9.11589 3.81275L9.823 4.51985L12.8282 1.51465L18.4851 7.1715L15.4798 10.1767ZM3.81259 11.2374C3.32443 11.7255 3.32443 12.517 3.81259 13.0051L6.99457 16.1871C7.48272 16.6753 8.27418 16.6753 8.76234 16.1871L14.0656 10.8838L9.11589 5.93407L3.81259 11.2374ZM10.8837 5.58051L14.4192 9.11605L16.3637 7.1715L12.8282 3.63597L10.8837 5.58051Z" fill="#000000"/>
</svg>
