<svg xmlns="http://www.w3.org/2000/svg" width="20" height="20" viewBox="0 0 20 20" fill="none"><rect width="20" height="20" fill="none"/>
<path d="M8.99995 11H6.99995V9H8.99995V11Z" fill="#000000"/>
<path d="M12.9999 11H10.9999V9H12.9999V11Z" fill="#000000"/>
<path d="M9.99995 2C12.2091 2 13.9999 3.79086 13.9999 6H15.9052L16.9951 16.9004C17.0232 17.1815 16.9307 17.4614 16.7412 17.6709C16.5516 17.8803 16.2824 18 15.9999 18H3.99995C3.71747 18 3.4483 17.8803 3.25874 17.6709C3.06918 17.4614 2.97672 17.1815 3.00483 16.9004L4.09467 6H5.99995C5.99995 3.79088 7.79084 2.00004 9.99995 2ZM5.10542 16H14.8945L14.0947 8H5.90522L5.10542 16ZM9.99995 4C8.89541 4.00004 7.99995 4.89545 7.99995 6H11.9999C11.9999 4.89543 11.1045 4 9.99995 4Z" fill="#000000"/>
</svg>
