<svg xmlns="http://www.w3.org/2000/svg" width="20" height="20" viewBox="0 0 20 20" fill="none"><rect width="20" height="20" fill="none"/>
<path d="M10.0005 8.00021C11.1048 8.00048 12.0005 8.89581 12.0005 10.0002C12.0004 11.1045 11.1048 11.9999 10.0005 12.0002C8.89599 12.0002 8.0006 11.1047 8.00049 10.0002C8.00049 8.89564 8.89592 8.00021 10.0005 8.00021Z" fill="#000000"/>
<path d="M9.70264 4.54611C11.7305 3.91235 13.9586 3.20936 17.2427 4.03049L18.0005 4.21994V15.2815L16.7583 14.9709C14.043 14.2919 12.27 14.8382 10.2983 15.4543C8.27057 16.088 6.04216 16.7914 2.7583 15.9709L1.99951 15.7815V4.71994L3.24268 5.03049C5.95783 5.70917 7.73083 5.16235 9.70264 4.54611ZM14.1626 5.66232C12.754 5.69231 11.5676 6.05763 10.2983 6.45431C8.53701 7.00478 6.62461 7.60597 4.00049 7.21701V12.5002L5.83643 14.3361C7.24559 14.3063 8.43286 13.9419 9.70264 13.5451C11.4639 12.9947 13.3765 12.3933 16.0005 12.7824V7.50021L14.1626 5.66232Z" fill="#000000"/>
</svg>
