<svg xmlns="http://www.w3.org/2000/svg" width="24" height="24" viewBox="0 0 24 24" fill="none"><rect width="24" height="24" fill="none"/>
<path d="M22 18C19.2386 18 17 20.2386 17 23H15C15 19.134 18.134 16 22 16V18Z" fill="#000000"/>
<path d="M22 23H19C19 21.3431 20.3431 20 22 20V23Z" fill="#000000"/>
<path d="M18 3C19.1045 3.00009 20 3.89548 20 5V14H5.70408L3.91892 19H13V21H3.91892C2.53602 20.9998 1.57004 19.6295 2.03513 18.3271L3.99998 12.8271V5C3.99998 3.8955 4.8955 3.00011 5.99998 3H18ZM5.99998 12H18V5H5.99998V12Z" fill="#000000"/>
<path d="M15 18H8.99998L9.50095 16H14.501L15 18Z" fill="#000000"/>
</svg>
