<svg xmlns="http://www.w3.org/2000/svg" width="20" height="20" viewBox="0 0 20 20" fill="none"><rect width="20" height="20" fill="none"/>
<path d="M19 12.4993C19.0007 12.5062 19.4969 17.5003 15 18.9993L14.5928 18.849C11.055 17.4058 10.9544 13.6598 10.9873 12.7171L11 12.4993L15 10.9993L19 12.4993ZM13.0566 13.8636C13.0936 14.0973 13.1477 14.3489 13.2256 14.6048C13.4827 15.4495 13.9717 16.2934 15 16.8324C16.0284 16.2934 16.5173 15.4495 16.7744 14.6048C16.8522 14.349 16.9045 14.0973 16.9414 13.8636L15 13.1351L13.0566 13.8636Z" fill="#000000"/>
<path d="M7.37402 2.22005C7.61057 2.0303 7.92076 1.95804 8.2168 2.02376L18 4.19857V9.00032H16V5.80208L9 4.24642V18.0003H2V9.00032L7 7.57161V3.00032C7 2.6971 7.13755 2.40985 7.37402 2.22005ZM4 10.5081V16.0003H7V9.65169L4 10.5081Z" fill="#000000"/>
</svg>
