<svg xmlns="http://www.w3.org/2000/svg" width="20" height="20" viewBox="0 0 20 20" fill="none"><rect width="20" height="20" fill="none"/>
<path d="M16.9751 11C18.3694 11.0003 19.5005 12.131 19.5005 13.5254C19.5003 14.9196 18.3693 16.0495 16.9751 16.0498H15.5005V17H17.0005V18H15.5005V19H14.0005V18H13.0005V17H14.0005V16.0498H13.0005V14.5498H14.0005V11H16.9751ZM15.5005 14.5498H16.9751C17.5408 14.5495 18.0003 14.0911 18.0005 13.5254C18.0005 12.9595 17.541 12.5003 16.9751 12.5H15.5005V14.5498Z" fill="#000000"/>
<path d="M9.99951 11.75C10.7425 11.75 11.4069 11.8281 12.0005 11.9658V13.5176C11.4409 13.3507 10.7807 13.25 9.99951 13.25C7.38684 13.2501 6.12428 14.3607 5.47705 15.3975C5.14052 15.9366 4.95623 16.4814 4.85693 16.8945C4.80765 17.0996 4.78004 17.2688 4.76514 17.3828C4.75773 17.4395 4.75279 17.4823 4.75049 17.5088C4.74934 17.522 4.74885 17.5314 4.74854 17.5361L3.25049 17.4629V17.4531C3.25076 17.4484 3.25197 17.4426 3.25244 17.4355C3.25339 17.4213 3.25432 17.4023 3.25635 17.3789C3.2604 17.3322 3.26741 17.2673 3.27783 17.1875C3.29867 17.0282 3.33468 16.8062 3.39795 16.543C3.52403 16.0186 3.76095 15.3132 4.20459 14.6025C5.118 13.1396 6.8549 11.7501 9.99951 11.75Z" fill="#000000"/>
<path d="M9.99951 2.25C12.0706 2.25 13.7495 3.92893 13.7495 6C13.7495 8.07107 12.0706 9.75 9.99951 9.75C7.92847 9.74997 6.24951 8.07105 6.24951 6C6.24951 3.92895 7.92847 2.25003 9.99951 2.25ZM9.99951 3.75C8.7569 3.75003 7.74951 4.75738 7.74951 6C7.74951 7.24262 8.7569 8.24997 9.99951 8.25C11.2422 8.25 12.2495 7.24264 12.2495 6C12.2495 4.75736 11.2422 3.75 9.99951 3.75Z" fill="#000000"/>
</svg>
