<svg xmlns="http://www.w3.org/2000/svg" width="20" height="20" viewBox="0 0 20 20" fill="none"><rect width="20" height="20" fill="none"/>
<path d="M16.25 3C17.2165 3 18 3.7835 18 4.75V10.75C18 11.7165 17.2165 12.5 16.25 12.5H14.5V15.25C14.5 16.2165 13.7165 17 12.75 17H3.75C2.78453 17 2 16.2185 2 15.251V9.24805C2.00019 8.28015 2.78519 7.5 3.75 7.5H5.5V4.74902C5.5 3.7811 6.28493 3 7.25 3H16.25ZM3.75 9C3.61048 9 3.50019 9.1117 3.5 9.24805V15.251C3.5 15.388 3.6109 15.5 3.75 15.5H12.75C12.8881 15.5 13 15.3881 13 15.25V12.5H7.25C6.28473 12.5 5.5 11.7187 5.5 10.751V9H3.75ZM7 7.4502V10.751C7 10.8878 7.1107 11 7.25 11H16.25C16.3881 11 16.5 10.8881 16.5 10.75V7.4502H7ZM7.25 4.5C7.1105 4.5 7 4.61238 7 4.74902V5.9502H16.5V4.75C16.5 4.61193 16.3881 4.5 16.25 4.5H7.25Z" fill="#000000"/>
</svg>
