<svg xmlns="http://www.w3.org/2000/svg" width="20" height="20" viewBox="0 0 20 20" fill="none"><rect width="20" height="20" fill="none"/>
<path d="M11.1679 1.9529C12.3064 1.71943 13.5526 1.765 14.5224 2.24977L14.6981 3.9363L12.0429 6.0613L13.9979 8.01735L16.1337 5.34743L17.7968 5.52614C18.2859 6.50442 18.3231 7.75166 18.0858 8.88844C17.8447 10.0429 17.2906 11.2367 16.413 12.1297C15.8418 12.7107 15.1745 13.199 14.3046 13.4929C13.4434 13.7838 12.4523 13.8608 11.2645 13.7322C11.2472 13.7303 11.2333 13.7335 11.2255 13.7361L11.2206 13.7371L7.69423 17.2976C6.33999 18.6644 4.1438 18.6698 2.7831 17.3093C1.41048 15.9365 1.41055 13.6977 2.7831 12.325L6.30556 8.80251C6.30306 8.805 6.30409 8.80472 6.30653 8.79762C6.30932 8.78931 6.31325 8.77439 6.31142 8.75563C6.19621 7.57659 6.28593 6.59532 6.5829 5.74001C6.88194 4.87893 7.3656 4.21611 7.92763 3.6443C8.81323 2.74331 10.0133 2.18971 11.1679 1.9529ZM11.4911 3.93727C10.6638 4.12 9.87917 4.51271 9.34267 5.05837C8.92691 5.48133 8.63849 5.8982 8.46278 6.40407C8.28514 6.91572 8.19718 7.59029 8.29188 8.55934C8.34958 9.15033 8.16208 9.77486 7.7079 10.2293L4.18544 13.7507C3.59854 14.3377 3.59862 15.2955 4.18544 15.8826C4.76725 16.4642 5.70599 16.462 6.28505 15.8777L9.81142 12.3181C10.2647 11.8606 10.8879 11.6722 11.4774 11.7361C12.4666 11.8432 13.1545 11.7633 13.6718 11.5886C14.1801 11.4169 14.5911 11.1305 14.9989 10.7156C15.5385 10.1666 15.9286 9.38377 16.1151 8.56911L15.5477 9.27809C14.8068 10.2043 13.4347 10.2809 12.5966 9.44313L10.6405 7.48805C9.79292 6.64045 9.86971 5.23625 10.8046 4.48805L11.4911 3.93727Z" fill="#000000"/>
</svg>
