<svg xmlns="http://www.w3.org/2000/svg" width="24" height="24" viewBox="0 0 24 24" fill="none"><rect width="24" height="24" fill="none"/>
<path d="M18.0654 13.9004C18.517 13.9004 18.8224 14.0392 19.041 14.2754C19.2538 14.5056 19.376 14.82 19.4844 15.1494L21.7705 22.0996H19.8984L19.3945 20.4785H16.5361L15.9932 22.0996H14.2197L16.6191 15.1475C16.7334 14.8165 16.8628 14.5029 17.0811 14.2734C17.3048 14.0384 17.6138 13.9004 18.0654 13.9004ZM17.0576 18.9092H18.8975L18.0039 16.043L17.0576 18.9092Z" fill="#000000"/>
<path d="M12 2C13.6569 2 15 3.34314 15 5V7H17C18.6568 7 20 8.34317 20 10V12H18V10C18 9.44774 17.5523 9 17 9H13V5C13 4.44771 12.5523 4 12 4H6V20H12V22H4V2H12Z" fill="#000000"/>
</svg>
