<svg xmlns="http://www.w3.org/2000/svg" width="20" height="20" viewBox="0 0 20 20" fill="none"><rect width="20" height="20" fill="none"/>
<path d="M11.9999 18.4501H3.99986V16.9501H11.9999V18.4501Z" fill="#000000"/>
<path d="M10.5165 1.25963C10.7543 1.22118 10.9965 1.29923 11.1669 1.46959L15.5301 5.83287C15.7004 6.00325 15.7786 6.24546 15.7401 6.48326C15.7015 6.72117 15.5504 6.92623 15.3348 7.03404L14.3544 7.52428L11.9696 9.90904L17.5301 15.4696L16.4696 16.5301L10.909 10.9696L8.52525 13.3534L8.03404 14.3348C7.92624 14.5504 7.72117 14.7015 7.48326 14.7401C7.24546 14.7786 7.00325 14.7004 6.83287 14.5301L2.46959 10.1669C2.29922 9.99649 2.22118 9.75429 2.25963 9.51646C2.29825 9.27849 2.44927 9.0735 2.6649 8.96568L3.64635 8.47447L9.47545 2.64537L9.96568 1.6649C10.0735 1.44927 10.2785 1.29824 10.5165 1.25963ZM10.7616 3.42662C10.7256 3.49856 10.6779 3.56406 10.621 3.62096L4.62096 9.62096C4.56406 9.67785 4.49856 9.72555 4.42662 9.76158L4.26646 9.84166L7.15807 12.7333L7.23814 12.5731C7.25612 12.5372 7.27725 12.503 7.30064 12.4706L7.37877 12.3788L13.3788 6.37877C13.4073 6.35026 13.438 6.32414 13.4706 6.30064L13.5731 6.23814L13.7342 6.15709L10.8426 3.26549L10.7616 3.42662Z" fill="#000000"/>
</svg>
