<svg xmlns="http://www.w3.org/2000/svg" width="20" height="20" viewBox="0 0 20 20" fill="none"><rect width="20" height="20" fill="none"/>
<path d="M9.62207 5.85226C9.85552 5.71615 10.1445 5.71615 10.3779 5.85226L13.3779 7.60226C13.6081 7.73663 13.7499 7.98317 13.75 8.24972C13.75 8.51634 13.6081 8.76273 13.3779 8.89718L8.4873 11.7497L10 12.6316L12.6221 11.1023L13.3779 12.3972L10.3779 14.1472C10.1444 14.2834 9.85559 14.2834 9.62207 14.1472L6.62207 12.3972C6.39185 12.2627 6.25 12.0163 6.25 11.7497V8.24972C6.25012 7.98317 6.39186 7.73663 6.62207 7.60226L9.62207 5.85226ZM7.75 8.67941V10.4441L11.5117 8.24972L10 7.36691L7.75 8.67941Z" fill="#000000"/>
<path d="M8.125 2.71749C9.28525 2.04762 10.7147 2.04762 11.875 2.71749L15.3701 4.73507C16.5303 5.40497 17.2451 6.64344 17.2451 7.98312V12.0183C17.245 13.3579 16.5303 14.5965 15.3701 15.2663L11.875 17.2839C10.7148 17.9536 9.28517 17.9536 8.125 17.2839L4.62988 15.2663C3.46974 14.5965 2.75502 13.3579 2.75488 12.0183V7.98312C2.75488 6.64344 3.46973 5.40497 4.62988 4.73507L8.125 2.71749ZM11.125 4.01632C10.4288 3.6144 9.57115 3.6144 8.875 4.01632L5.37988 6.0339C4.68383 6.43584 4.25488 7.17933 4.25488 7.98312V12.0183C4.25502 12.822 4.68384 13.5656 5.37988 13.9675L8.875 15.9851C9.57107 16.3869 10.4289 16.3869 11.125 15.9851L14.6201 13.9675C15.3162 13.5656 15.745 12.822 15.7451 12.0183V7.98312C15.7451 7.17933 15.3162 6.43584 14.6201 6.0339L11.125 4.01632Z" fill="#000000"/>
</svg>
