<svg xmlns="http://www.w3.org/2000/svg" width="20" height="20" viewBox="0 0 20 20" fill="none"><rect width="20" height="20" fill="none"/>
<path d="M7 10.5C7.82843 10.5 8.5 11.1716 8.5 12C8.5 12.8284 7.82843 13.5 7 13.5C6.17157 13.5 5.5 12.8284 5.5 12C5.5 11.1716 6.17157 10.5 7 10.5Z" fill="#000000"/>
<path d="M13 10.5C13.8284 10.5 14.5 11.1716 14.5 12C14.5 12.8284 13.8284 13.5 13 13.5C12.1716 13.5 11.5 12.8284 11.5 12C11.5 11.1716 12.1716 10.5 13 10.5Z" fill="#000000"/>
<path d="M10 2C10.8284 2 11.5 2.67157 11.5 3.5C11.5 4.05495 11.198 4.5384 10.75 4.79785V7H15C16.6569 7 18 8.34315 18 10V15C18 16.6569 16.6569 18 15 18H5C3.34315 18 2 16.6569 2 15V10C2 8.34315 3.34315 7 5 7H9.25V4.79785C8.802 4.5384 8.5 4.05495 8.5 3.5C8.5 2.67157 9.17157 2 10 2ZM5 9C4.44772 9 4 9.44772 4 10V15C4 15.5523 4.44772 16 5 16H15C15.5523 16 16 15.5523 16 15V10C16 9.44772 15.5523 9 15 9H5Z" fill="#000000"/>
</svg>
