<svg xmlns="http://www.w3.org/2000/svg" width="20" height="20" viewBox="0 0 20 20" fill="none"><rect width="20" height="20" fill="none"/>
<path d="M10.4707 10.4701C10.6786 10.2624 10.9895 10.195 11.2646 10.2982L19.2646 13.2982C19.5508 13.4059 19.7438 13.677 19.751 13.9828C19.758 14.2886 19.5779 14.5689 19.2969 14.6898L16.0723 16.0716L14.6904 19.2962C14.5698 19.5774 14.2892 19.7571 13.9834 19.7503C13.6775 19.7431 13.4065 19.5504 13.2988 19.264L10.2988 11.264C10.1956 10.9886 10.2628 10.678 10.4707 10.4701ZM14.0469 16.9876L14.9307 14.929L16.9883 14.0462L12.2822 12.2816L14.0469 16.9876Z" fill="#000000"/>
<path d="M11.3643 2.76693C13.157 2.11816 15.0497 3.44632 15.0498 5.35287V5.9515H15.2998C16.8185 5.9515 18.0497 7.1828 18.0498 8.7015V10.0003H16.5498V8.7015C16.5497 8.01122 15.9901 7.4515 15.2998 7.4515H4.7002C4.0099 7.4515 3.45029 8.01122 3.4502 8.7015V15.3011C3.45069 15.991 4.01014 16.5511 4.7002 16.5511H10V18.0511H4.7002C3.18172 18.0511 1.95069 16.8195 1.9502 15.3011V8.10385C1.95042 6.94652 2.6756 5.91317 3.76367 5.51889L11.3643 2.76693ZM13.5498 5.35287C13.5497 4.48625 12.6889 3.88208 11.874 4.17709L6.97363 5.9515H13.5498V5.35287Z" fill="#000000"/>
</svg>
