<svg xmlns="http://www.w3.org/2000/svg" width="20" height="20" viewBox="0 0 20 20" fill="none"><rect width="20" height="20" fill="none"/>
<path d="M11.5 10C11.6671 10.0001 11.8233 10.0836 11.916 10.2227L13.916 13.2227C14.0182 13.376 14.0274 13.5738 13.9404 13.7363C13.8534 13.8986 13.6841 13.9999 13.5 14H12.5V16C12.5 16.5523 12.9477 17 13.5 17H14V19H13.5C11.8431 19 10.5 17.6569 10.5 16V14H9.5L9.43164 13.9951C9.27473 13.9735 9.13576 13.8782 9.05957 13.7363C8.97256 13.5737 8.9817 13.3761 9.08398 13.2227L11.084 10.2227C11.1767 10.0836 11.3329 10 11.5 10Z" fill="#000000"/>
<path d="M15.5 10C17.1567 10.0001 18.5 11.3432 18.5 13V15H19.5L19.5684 15.0049C19.7252 15.0266 19.8643 15.1218 19.9404 15.2637C20.0274 15.4262 20.0182 15.624 19.916 15.7773L17.916 18.7773C17.8233 18.9164 17.6671 18.9999 17.5 19C17.3329 19 17.1767 18.9164 17.084 18.7773L15.084 15.7773C14.9817 15.6239 14.9726 15.4263 15.0596 15.2637C15.1467 15.1014 15.3158 15 15.5 15H16.5V13C16.5 12.4478 16.0522 12.0001 15.5 12H15V10H15.5Z" fill="#000000"/>
<path d="M9 2C10.6569 2 12 3.34315 12 5V6H13C14.6569 6 16 7.34315 16 9H14C14 8.44772 13.5523 8 13 8H10V5C10 4.44772 9.55228 4 9 4H6V16H7V18H4V2H9Z" fill="#000000"/>
</svg>
