<svg xmlns="http://www.w3.org/2000/svg" width="20" height="20" viewBox="0 0 20 20" fill="none"><rect width="20" height="20" fill="none"/>
<path d="M13.0001 15C13.0001 16.6568 11.6568 17.9999 10.0001 18C8.3432 18 7.00006 16.6569 7.00006 15H5.25787C4.18143 14.9995 3.45594 13.8987 3.87994 12.9092L4.95123 10.4082C4.9832 10.3336 5.00003 10.253 5.00006 10.1719V8C5.00006 5.58118 6.71795 3.56299 9.00006 3.09961V1H11.0001V3.09961C13.2822 3.56291 14.9999 5.58121 15.0001 8V10.1719C15.0001 10.253 15.0169 10.3336 15.0489 10.4082L16.1202 12.9092C16.5442 13.8989 15.818 14.9999 14.7413 15H13.0001ZM9.00006 15C9.00006 15.5523 9.44777 16 10.0001 16C10.5523 15.9999 11.0001 15.5522 11.0001 15H9.00006ZM10.0001 5C8.34339 5.00016 7.00006 6.3433 7.00006 8V10.1719C7.00003 10.5239 6.92876 10.8727 6.7901 11.1963L6.01666 13H13.9835L13.21 11.1953C13.0715 10.8719 13.0001 10.5237 13.0001 10.1719V8C12.9999 6.34337 11.6566 5.00014 10.0001 5Z" fill="#000000"/>
</svg>
