<svg xmlns="http://www.w3.org/2000/svg" width="20" height="20" viewBox="0 0 20 20" fill="none"><rect width="20" height="20" fill="none"/>
<path d="M5.96833 3.49572C7.08251 3.31016 8.22224 3.63695 9.06891 4.38536L12.359 7.29357C13.8765 6.95315 15.4704 7.18121 16.8345 7.93907C18.3266 8.76943 18.0173 11.0019 16.355 11.3942L16.3541 11.3951L13.4078 12.0875L11.857 15.0328C11.3108 16.0692 10.3113 16.7913 9.15583 16.984L7.62263 17.2399C7.38505 17.2793 7.14231 17.2014 6.97126 17.0318C6.80058 16.8622 6.7209 16.6202 6.75837 16.3824L7.20466 13.5465L5.15583 14.0289C3.22334 14.4829 1.46135 12.8017 1.82282 10.8502L2.1236 9.234L2.12263 9.23302C2.27899 8.3966 3.19626 7.97327 3.92341 8.35021L4.06598 8.43615L5.14606 9.18712L6.48884 8.83361L3.96345 5.04552C3.64358 4.56522 3.88604 3.9235 4.4195 3.76134L4.52985 3.73595L5.96833 3.49572ZM8.78181 13.1754L8.40192 15.5895L8.90876 15.5045C9.60213 15.3889 10.2021 14.9555 10.5299 14.3336L11.4732 12.5426L8.78181 13.1754ZM6.2154 4.97521L5.76716 5.04943L8.24763 8.76915C8.26197 8.79065 8.2804 8.81522 8.30134 8.84337C8.44962 9.04309 8.48896 9.30388 8.40681 9.53868C8.32444 9.77348 8.13081 9.95276 7.8902 10.0162L5.19294 10.7262C4.98068 10.782 4.75408 10.7429 4.5738 10.6178L3.52595 9.88927L3.29841 11.1236C3.13417 12.011 3.93499 12.7744 4.81305 12.568L16.0093 9.93322C16.3382 9.85573 16.4012 9.41423 16.106 9.24962C15.0123 8.64199 13.7251 8.48031 12.5152 8.79845L12.5142 8.79943L12.3482 8.8424C12.1064 8.90573 11.848 8.84486 11.6607 8.67931L8.07575 5.50841C7.56818 5.05978 6.88412 4.864 6.2154 4.97521Z" fill="#000000"/>
</svg>
