<svg xmlns="http://www.w3.org/2000/svg" width="20" height="20" viewBox="0 0 20 20" fill="none"><rect width="20" height="20" fill="none"/>
<path d="M11 9C11.5522 9 11.9999 9.44779 12 10C12 10.5523 11.5523 11 11 11C10.4477 11 10 10.5523 10 10C10.0001 9.44779 10.4478 9 11 9Z" fill="#000000"/>
<path d="M17 4.26172V15.7393L9.34082 18.0967L7 16.5361V3.46582L8.94531 2.16895L9.33984 1.90527L17 4.26172ZM9 4.53613V15.4658L9.65918 15.9053L15 14.2617V5.73828L9.65918 4.0957L9 4.53613Z" fill="#000000"/>
<path d="M5 17H3V3H5V17Z" fill="#000000"/>
</svg>
