<svg xmlns="http://www.w3.org/2000/svg" width="20" height="20" viewBox="0 0 20 20" fill="none"><rect width="20" height="20" fill="none"/>
<path d="M19.0303 12.0297L12.0303 19.0297L10.9697 17.9692L17.9697 10.9692L19.0303 12.0297Z" fill="#000000"/>
<path d="M17.5 15.9994C18.3283 15.9994 18.9998 16.6712 19 17.4994C19 18.3279 18.3284 18.9994 17.5 18.9994C16.6716 18.9994 16 18.3279 16 17.4994C16.0002 16.6712 16.6717 15.9994 17.5 15.9994Z" fill="#000000"/>
<path d="M11.3643 2.76507C13.1569 2.11637 15.0496 3.44457 15.0498 5.35101V5.94964H15.2998C16.8185 5.94964 18.0496 7.18101 18.0498 8.69964V9.00042H16.5498V8.69964C16.5496 8.00944 15.99 7.44964 15.2998 7.44964H4.7002C4.00996 7.44964 3.45038 8.00944 3.4502 8.69964V15.2992C3.45031 15.9895 4.00991 16.5492 4.7002 16.5492H9V18.0492H4.7002C3.18149 18.0492 1.95031 16.8179 1.9502 15.2992V8.10198C1.95049 6.94465 2.67553 5.91123 3.76367 5.51702L11.3643 2.76507ZM13.5498 5.35101C13.5496 4.4845 12.6888 3.88028 11.874 4.17522L6.97363 5.94964H13.5498V5.35101Z" fill="#000000"/>
<path d="M12.5 10.9994C13.3283 10.9994 13.9998 11.6712 14 12.4994C14 13.3279 13.3284 13.9994 12.5 13.9994C11.6716 13.9994 11 13.3279 11 12.4994C11.0002 11.6712 11.6717 10.9995 12.5 10.9994Z" fill="#000000"/>
</svg>
