<svg xmlns="http://www.w3.org/2000/svg" width="24" height="24" viewBox="0 0 24 24" fill="none"><rect width="24" height="24" fill="none"/>
<path d="M12.5 10C12.7761 10 13 10.2239 13 10.5V14H14V15H10V14H11V11H10V10H12.5Z" fill="#000000"/>
<path d="M12 6.5C12.6904 6.5 13.25 7.05964 13.25 7.75C13.25 8.44036 12.6904 9 12 9C11.3096 9 10.75 8.44036 10.75 7.75C10.75 7.05964 11.3096 6.5 12 6.5Z" fill="#000000"/>
<path d="M21 21C21 21.3466 20.8202 21.6684 20.5254 21.8506C20.2306 22.0327 19.8626 22.0495 19.5527 21.8945L16 20.1182L12 22.1182L8 20.1182L4.44727 21.8945C4.13735 22.0495 3.76939 22.0327 3.47461 21.8506C3.17979 21.6684 3 21.3466 3 21V2H21V21ZM5 19.3818L8 17.8818L12 19.8818L16 17.8818L19 19.3818V4H5V19.3818Z" fill="#000000"/>
</svg>
