<svg xmlns="http://www.w3.org/2000/svg" width="20" height="20" viewBox="0 0 20 20" fill="none"><rect width="20" height="20" fill="none"/>
<path d="M15.5664 10.5C16.3909 10.5 16.6321 11.0213 16.8408 11.6807L19 18.5H17.4023L16.917 16.8789H14.0254L13.5029 18.5H12L14.2656 11.6807C14.4853 11.0192 14.7417 10.5001 15.5664 10.5ZM14.4629 15.5098H16.499L15.5283 12.2773H15.4902L14.4629 15.5098Z" fill="#000000"/>
<path d="M10 2C11.9388 2 13.7159 2.69046 15.1006 3.83789L15.9697 2.96973L17.0303 4.03027L16.1611 4.89844C17.1086 6.04138 17.7432 7.45192 17.9365 9H16.4219C16.2459 7.86488 15.7768 6.82712 15.0938 5.96582L14.5303 6.53027L13.4697 5.46973L14.0332 4.90527C12.9247 4.02657 11.5244 3.5 10 3.5C8.47535 3.5 7.07439 4.02629 5.96582 4.90527L6.53027 5.46973L5.46973 6.53027L4.90527 5.96582C4.02629 7.07439 3.5 8.47535 3.5 10C3.5 11.5244 4.02657 12.9247 4.90527 14.0332L5.46973 13.4697L6.53027 14.5303L5.96582 15.0938C7.07446 15.973 8.47514 16.5 10 16.5C10.1683 16.5 10.335 16.4921 10.5 16.4795V17.9824C10.3346 17.9926 10.168 18 10 18C8.06069 18 6.28327 17.3091 4.89844 16.1611L4.03027 17.0303L2.96973 15.9697L3.83789 15.1006C2.69046 13.7159 2 11.9388 2 10C2 8.06092 2.69017 6.2832 3.83789 4.89844L2.96973 4.03027L4.03027 2.96973L4.89844 3.83789C6.2832 2.69017 8.06092 2 10 2Z" fill="#000000"/>
<path d="M11.5 10L10 11.5L8.5 10L10 8.5L11.5 10Z" fill="#000000"/>
</svg>
