<svg xmlns="http://www.w3.org/2000/svg" width="20" height="20" viewBox="0 0 20 20" fill="none"><rect width="20" height="20" fill="none"/>
<g clip-path="url(#clip0_6490_1042)">
<path d="M16.7925 11.0078C17.2123 11.0079 17.6293 11.0891 18.0181 11.2471C18.4071 11.4052 18.7632 11.6379 19.061 11.9336L19.0601 11.9346C19.6599 12.5298 20.0044 13.3331 20.0044 14.1787C20.0043 15.0245 19.6602 15.8286 19.0601 16.4238L19.0552 16.4287L15.771 19.6387C15.6695 19.763 15.5395 19.866 15.3853 19.9307C15.0137 20.0862 14.5846 20.0031 14.2974 19.7207L10.9507 16.4248L10.9478 16.4219C10.348 15.8266 10.0044 15.0233 10.0044 14.1777C10.0044 13.3322 10.348 12.5288 10.9478 11.9336C11.2456 11.638 11.6007 11.4052 11.9897 11.2471C12.3788 11.089 12.7962 11.0078 13.2163 11.0078C13.6363 11.0079 14.0539 11.089 14.4429 11.2471C14.6396 11.3271 14.8272 11.4273 15.0034 11.5439C15.18 11.427 15.3687 11.3272 15.5659 11.2471C15.9549 11.0891 16.3724 11.0078 16.7925 11.0078ZM16.7925 13.0078C16.6288 13.0078 16.467 13.0395 16.3188 13.0996C16.1707 13.1598 16.0399 13.2475 15.9331 13.3535L15.9272 13.3584L15.7026 13.5771C15.3142 13.9567 14.6937 13.9565 14.3052 13.5771L14.0815 13.3584L14.0757 13.3535C13.969 13.2476 13.8379 13.1599 13.6899 13.0996C13.5418 13.0394 13.38 13.0079 13.2163 13.0078C13.0525 13.0078 12.8909 13.0395 12.7427 13.0996C12.5945 13.1598 12.4638 13.2475 12.3569 13.3535C12.1257 13.5831 12.0044 13.8791 12.0044 14.1777C12.0044 14.4754 12.1243 14.7708 12.354 15L14.9946 17.6006L17.6567 14.999C17.885 14.7701 18.0043 14.4754 18.0044 14.1787C18.0044 13.9173 17.912 13.657 17.7339 13.4424L17.6519 13.3535C17.5451 13.2475 17.4132 13.1599 17.2651 13.0996C17.1172 13.0395 16.956 13.0079 16.7925 13.0078Z" fill="#000000"/>
<path d="M8.00049 13.7773C6.79237 14.1567 6.10409 14.8661 5.68994 15.5293C5.37141 16.0396 5.19595 16.5577 5.10107 16.9521C5.05407 17.1477 5.02809 17.3085 5.01416 17.415C5.00724 17.468 5.0025 17.5071 5.00049 17.5303C4.99949 17.5418 4.99972 17.5496 4.99951 17.5527V17.5498L3.00049 17.4502V17.4463C3.0006 17.4442 3.00228 17.4412 3.00244 17.4385C3.00275 17.4331 3.00291 17.4266 3.00342 17.4189C3.00448 17.4032 3.00613 17.3824 3.0083 17.3574C3.01265 17.3073 3.01984 17.2388 3.03076 17.1553C3.05257 16.9885 3.09019 16.7582 3.15576 16.4854C3.28627 15.9425 3.53121 15.21 3.99268 14.4707C4.73172 13.2869 5.98221 12.1614 8.00049 11.709V13.7773Z" fill="#000000"/>
<path d="M9.99951 2C12.2087 2 13.9995 3.79086 13.9995 6C13.9995 8.20914 12.2087 10 9.99951 10C7.79054 9.99981 5.99951 8.20902 5.99951 6C5.99951 3.79098 7.79054 2.00019 9.99951 2ZM9.99951 4C8.89511 4.00019 7.99951 4.89555 7.99951 6C7.99951 7.10445 8.89511 7.99981 9.99951 8C11.1041 8 11.9995 7.10457 11.9995 6C11.9995 4.89543 11.1041 4 9.99951 4Z" fill="#000000"/>
</g>
<defs>
<clipPath id="clip0_6490_1042">
<rect width="20" height="20" fill="white"/>
</clipPath>
</defs>
</svg>
