<svg xmlns="http://www.w3.org/2000/svg" width="24" height="24" viewBox="0 0 24 24" fill="none"><rect width="24" height="24" fill="none"/>
<path d="M22.207 15.207L15.207 22.207L13.793 20.793L20.793 13.793L22.207 15.207Z" fill="#000000"/>
<path d="M20.5 19C21.3284 19 22 19.6716 22 20.5C22 21.3284 21.3284 22 20.5 22C19.6716 22 19 21.3284 19 20.5C19 19.6716 19.6716 19 20.5 19Z" fill="#000000"/>
<path d="M15.7637 4C16.8999 4 17.9391 4.64191 18.4473 5.6582L19.6182 8H22C22 8.90443 21.3991 9.66681 20.5752 9.91406L21.0186 10.8008L20.9248 12H18.918L18.9805 11.1982L16.6582 6.55273C16.4888 6.21401 16.1424 6 15.7637 6H8.23633C7.85759 6 7.51121 6.21401 7.3418 6.55273L5.01855 11.1982L5.39551 16H12V18H6V20H4V18H3.5459L2.98145 10.8008L3.42383 9.91406C2.60037 9.66653 2 8.9041 2 8H4.38184L5.55273 5.6582C6.06093 4.64191 7.10005 4 8.23633 4H15.7637Z" fill="#000000"/>
<path d="M15.5 14C16.3284 14 17 14.6716 17 15.5C17 16.3284 16.3284 17 15.5 17C14.6716 17 14 16.3284 14 15.5C14 14.6716 14.6716 14 15.5 14Z" fill="#000000"/>
<path d="M8 11C8.55228 11 9 11.4477 9 12C9 12.5523 8.55228 13 8 13H7C6.44772 13 6 12.5523 6 12C6 11.4477 6.44772 11 7 11H8Z" fill="#000000"/>
</svg>
