<svg xmlns="http://www.w3.org/2000/svg" width="20" height="20" viewBox="0 0 20 20" fill="none"><rect width="20" height="20" fill="none"/>
<g clip-path="url(#clip0_6490_877)">
<path d="M16.792 11.0076C17.212 11.0077 17.6287 11.0889 18.0176 11.2469C18.4068 11.4051 18.7626 11.6377 19.0605 11.9334L19.0596 11.9344C19.6595 12.5296 20.0038 13.3329 20.0039 14.1785C20.0039 15.0244 19.6598 15.8284 19.0596 16.4237L19.0547 16.4285L15.7705 19.6385C15.6689 19.7629 15.5392 19.8658 15.3848 19.9305C15.0131 20.0861 14.5841 20.0031 14.2969 19.7205L10.9502 16.4246L10.9473 16.4217C10.3476 15.8265 10.0039 15.023 10.0039 14.1776C10.004 13.3322 10.3476 12.5286 10.9473 11.9334C11.2452 11.6378 11.6002 11.405 11.9893 11.2469C12.3784 11.0888 12.7956 11.0076 13.2158 11.0076C13.636 11.0077 14.0533 11.0888 14.4424 11.2469C14.6392 11.3269 14.8266 11.4271 15.0029 11.5438C15.1796 11.4268 15.3682 11.3271 15.5654 11.2469C15.9545 11.0888 16.3718 11.0076 16.792 11.0076ZM16.792 13.0076C16.6282 13.0076 16.4666 13.0393 16.3184 13.0994C16.1702 13.1597 16.0395 13.2473 15.9326 13.3534L15.9268 13.3582L15.7021 13.577C15.3136 13.9566 14.6932 13.9566 14.3047 13.577L14.0811 13.3582L14.0752 13.3534C13.9684 13.2474 13.8375 13.1597 13.6895 13.0994C13.5412 13.0392 13.3797 13.0077 13.2158 13.0076C13.0519 13.0076 12.8905 13.0392 12.7422 13.0994C12.594 13.1597 12.4633 13.2473 12.3564 13.3534C12.1252 13.5828 12.004 13.879 12.0039 14.1776C12.0039 14.4751 12.1239 14.7706 12.3535 14.9998L14.9941 17.6004L17.6562 14.9989C17.8846 14.77 18.0039 14.4753 18.0039 14.1785C18.0038 13.9171 17.9116 13.6568 17.7334 13.4422L17.6514 13.3534C17.5445 13.2473 17.4129 13.1597 17.2646 13.0994C17.1166 13.0393 16.9556 13.0077 16.792 13.0076Z" fill="#000000"/>
<path d="M7.37402 2.22054C7.61057 2.03079 7.92076 1.95853 8.2168 2.02425L18 4.19905V9.00081H16V5.80257L9 4.24691V18.0008H2V9.00081L7 7.5721V3.00081C7 2.69761 7.13759 2.41034 7.37402 2.22054ZM4 10.5086V16.0008H7V9.65218L4 10.5086Z" fill="#000000"/>
</g>
<defs>
<clipPath id="clip0_6490_877">
<rect width="20" height="20" fill="white"/>
</clipPath>
</defs>
</svg>
