<svg xmlns="http://www.w3.org/2000/svg" width="24" height="24" viewBox="0 0 24 24" fill="none"><rect width="24" height="24" fill="none"/>
<path d="M7.79297 7.79297C8.06674 7.5194 8.47467 7.4286 8.83887 7.55957L21.3389 12.0596C21.7392 12.204 22.0049 12.5861 22 13.0117C21.9949 13.4374 21.7201 13.8133 21.3164 13.9482L15.79 15.79L13.9482 21.3164C13.8134 21.7201 13.4373 21.9948 13.0117 22C12.5861 22.0048 12.2039 21.7393 12.0596 21.3389L7.55957 8.83887C7.42844 8.47459 7.51933 8.06682 7.79297 7.79297ZM12.9629 17.9473L14.21 14.21L17.9473 12.9629L10.1592 10.1592L12.9629 17.9473Z" fill="#000000"/>
<path d="M5.70703 9.70703L3.70703 11.707L2.29297 10.293L4.29297 8.29297L5.70703 9.70703Z" fill="#000000"/>
<path d="M5.70703 4.29297L4.29297 5.70703L2.29297 3.70703L3.70703 2.29297L5.70703 4.29297Z" fill="#000000"/>
<path d="M11.707 3.70703L9.70703 5.70703L8.29297 4.29297L10.293 2.29297L11.707 3.70703Z" fill="#000000"/>
</svg>
