<svg xmlns="http://www.w3.org/2000/svg" width="20" height="20" viewBox="0 0 20 20" fill="none"><rect width="20" height="20" fill="none"/>
<path fill-rule="evenodd" clip-rule="evenodd" d="M10.6101 2.56445C11.8242 4.26411 13.1227 5.4338 14.2702 6.67969C15.3866 7.89188 16.3497 9.17532 16.4968 10.9375C16.7832 14.371 13.9484 17.75 10.0056 17.75C6.06497 17.7499 3.21587 14.3729 3.50167 10.9375C3.6484 9.17511 4.6126 7.89193 5.72921 6.67969C6.87692 5.43372 8.17521 4.26421 9.38937 2.56445L9.99972 1.70996L10.6101 2.56445ZM9.99874 4.23926C8.88075 5.64224 7.71024 6.7416 6.83175 7.69531C5.76084 8.85793 5.09974 9.82513 4.99679 11.0625C4.78363 13.6269 6.94617 16.2499 10.0056 16.25C13.0631 16.25 15.2157 13.629 15.0017 11.0625C14.8984 9.82496 14.2375 8.85796 13.1667 7.69531C12.2882 6.74145 11.1168 5.64253 9.99874 4.23926Z" fill="#000000"/>
</svg>
