<svg xmlns="http://www.w3.org/2000/svg" width="24" height="24" viewBox="0 0 24 24" fill="none"><rect width="24" height="24" fill="none"/>
<path d="M10 4.25183C6.54961 5.13992 4.00007 8.27228 4 11.9999C4.00021 16.418 7.58185 19.9999 12 19.9999C15.7283 19.9999 18.8605 17.4492 19.748 13.9979H21.7998C20.8739 18.5632 16.8385 21.9999 12 21.9999C6.47728 21.9999 2.00021 17.5225 2 11.9999C2.00008 7.16206 5.43561 3.12663 10 2.20007V4.25183Z" fill="#000000"/>
<path d="M12 1.99988C13.3132 1.99988 14.6139 2.25807 15.8271 2.76062C17.0404 3.26317 18.1427 4.00003 19.0713 4.92859C19.9998 5.85715 20.7367 6.95951 21.2393 8.17273C21.7418 9.38599 22 10.6867 22 11.9999H12V1.99988ZM14 9.99988H19.7451C19.6519 9.63907 19.5339 9.28416 19.3906 8.93835C18.9886 7.96783 18.4 7.08547 17.6572 6.34265C16.9144 5.59983 16.0321 5.01129 15.0615 4.60925C14.7157 4.46602 14.3608 4.34793 14 4.25476V9.99988Z" fill="#000000"/>
</svg>
