<svg xmlns="http://www.w3.org/2000/svg" width="20" height="20" viewBox="0 0 20 20" fill="none"><rect width="20" height="20" fill="none"/>
<path d="M10.0002 2C11.0475 2.00011 12.053 2.29628 12.7629 2.56641C13.1246 2.70408 13.4276 2.84197 13.6409 2.94629C13.7473 2.99835 13.8334 3.04304 13.8938 3.0752C13.9237 3.09112 13.9487 3.10469 13.9661 3.11426C13.9745 3.11889 13.9823 3.12304 13.9876 3.12598C13.9899 3.12732 13.9927 3.12895 13.9944 3.12988L13.9963 3.13184H13.9983C13.9952 3.13773 13.9566 3.20621 13.5032 4.00098L13.9983 3.13184C14.2687 3.28645 14.453 3.55941 14.4944 3.86816C14.5354 4.1767 14.4303 4.48787 14.2102 4.70801L11.6887 7.22656L13.8733 8.31934C15.1265 8.94618 16.0606 10.0707 16.4456 11.418L16.8694 12.9023C17.5983 15.457 15.6795 18.0006 13.0227 18.001H6.97779C4.32064 18.001 2.40189 15.4572 3.13111 12.9023L3.55591 11.418C3.94096 10.0706 4.87383 8.94611 6.1272 8.31934L8.31177 7.22656L5.79615 4.70801C5.57619 4.48788 5.47099 4.17661 5.51197 3.86816C5.55331 3.55961 5.73596 3.28752 6.00611 3.13281L6.00806 3.13184L6.01099 3.13086L6.03834 3.11523C6.05578 3.10557 6.08046 3.09227 6.1106 3.07617C6.17105 3.04389 6.25682 2.99961 6.36353 2.94727C6.57653 2.84281 6.87809 2.70424 7.23951 2.56641C7.94847 2.29607 8.95267 2 10.0002 2ZM7.02173 10.1084C6.26971 10.4845 5.70978 11.1593 5.47877 11.9678L5.05494 13.4512C4.69045 14.7286 5.64927 16.001 6.97779 16.001H13.0227C14.3508 16.0006 15.3097 14.7283 14.9456 13.4512L14.5217 11.9678C14.2908 11.1595 13.7305 10.4846 12.9788 10.1084L10.0002 8.61914L7.02173 10.1084ZM10.0002 4.00098C9.40857 4.00098 8.78669 4.14686 8.24537 4.33008L10.0012 6.08594L11.7581 4.33008C11.2154 4.14674 10.5921 4.00107 10.0002 4.00098Z" fill="#000000"/>
</svg>
