<svg xmlns="http://www.w3.org/2000/svg" width="24" height="24" viewBox="0 0 24 24" fill="none"><rect width="24" height="24" fill="none"/>
<path d="M13 7.14941C13.4065 7.26201 13.7994 7.43992 14.1455 7.69629C14.8295 8.20303 15.2998 8.99184 15.2998 10H13.2998C13.2998 9.67502 13.1708 9.46362 12.9551 9.30371C12.7104 9.12248 12.331 9.00007 11.9004 9C11.4697 9 11.0904 9.12252 10.8457 9.30371C10.6298 9.46364 10.5 9.67488 10.5 10C10.5 10.2018 10.5413 10.3076 10.5742 10.3652C10.6085 10.4252 10.6685 10.4929 10.7881 10.5693C11.0729 10.7513 11.4971 10.8689 12.1426 11.0303C12.6971 11.1689 13.4737 11.3521 14.0889 11.7451C14.4186 11.9559 14.7339 12.2436 14.9619 12.6426C15.1915 13.0443 15.2998 13.5018 15.2998 14C15.2998 14.9642 14.81 15.7368 14.1641 16.2393C13.82 16.5068 13.4212 16.7051 13 16.833V18H11V16.9004C10.5226 16.7946 10.0569 16.6019 9.6543 16.3037C8.97033 15.797 8.5 15.0081 8.5 14H10.5C10.5 14.3251 10.6298 14.5364 10.8457 14.6963C11.0904 14.8775 11.4697 15 11.9004 15C12.2904 14.9999 12.6718 14.867 12.9365 14.6611C13.1905 14.4636 13.2998 14.2357 13.2998 14C13.2998 13.7982 13.2585 13.6924 13.2256 13.6348C13.1913 13.5748 13.1313 13.5071 13.0117 13.4307C12.7269 13.2487 12.3027 13.1311 11.6572 12.9697C11.1027 12.8311 10.327 12.6478 9.71191 12.2549C9.38196 12.0441 9.06605 11.7566 8.83789 11.3574C8.60831 10.9557 8.5 10.4982 8.5 10C8.5 8.9919 8.97033 8.20303 9.6543 7.69629C10.0569 7.39806 10.5225 7.20437 11 7.09863V6H13V7.14941Z" fill="#000000"/>
<path d="M17 3C19.2091 3 21 4.79086 21 7V17C21 19.2091 19.2091 21 17 21H7C4.79086 21 3 19.2091 3 17V7C3 4.79086 4.79086 3 7 3H17ZM7 5C5.89543 5 5 5.89543 5 7V17C5 18.1046 5.89543 19 7 19H17C18.1046 19 19 18.1046 19 17V7C19 5.89543 18.1046 5 17 5H7Z" fill="#000000"/>
</svg>
