<svg xmlns="http://www.w3.org/2000/svg" width="20" height="20" viewBox="0 0 20 20" fill="none"><rect width="20" height="20" fill="none"/>
<path d="M10 2C11.933 2 13.5 3.567 13.5 5.5C13.5 6.48017 13.0955 7.36463 12.4463 8L13.7471 10.082C13.9896 10.0288 14.2415 10 14.5 10C16.433 10 18 11.567 18 13.5C18 15.433 16.433 17 14.5 17C13.0075 17 11.7337 16.0656 11.2305 14.75H8.76953C8.26626 16.0656 6.99252 17 5.5 17C3.567 17 2 15.433 2 13.5C2 11.567 3.567 10 5.5 10C5.75781 10 6.00904 10.0282 6.25098 10.0811L7.55273 8C6.90379 7.36466 6.5 6.47992 6.5 5.5C6.5 3.567 8.067 2 10 2ZM5.5 11.5C4.39543 11.5 3.5 12.3954 3.5 13.5C3.5 14.6046 4.39543 15.5 5.5 15.5C6.60457 15.5 7.5 14.6046 7.5 13.5C7.5 12.3954 6.60457 11.5 5.5 11.5ZM14.5 11.5C13.3954 11.5 12.5 12.3954 12.5 13.5C12.5 14.6046 13.3954 15.5 14.5 15.5C15.6046 15.5 16.5 14.6046 16.5 13.5C16.5 12.3954 15.6046 11.5 14.5 11.5ZM11.1768 8.79688C10.809 8.92816 10.4129 9 10 9C9.58678 9 9.1903 8.92836 8.82227 8.79688L7.62207 10.7168C8.39747 11.3089 8.91636 12.2176 8.98926 13.25H11.0107C11.0836 12.2181 11.6022 11.3099 12.377 10.7178L11.1768 8.79688ZM10 3.5C8.89543 3.5 8 4.39543 8 5.5C8 6.60457 8.89543 7.5 10 7.5C11.1046 7.5 12 6.60457 12 5.5C12 4.39543 11.1046 3.5 10 3.5Z" fill="#000000"/>
</svg>
