<svg xmlns="http://www.w3.org/2000/svg" width="20" height="20" viewBox="0 0 20 20" fill="none"><rect width="20" height="20" fill="none"/>
<path d="M12.9022 2.34863C14.2338 4.58897 14.9998 7.20474 14.9999 10C14.9999 12.7918 14.2355 15.405 12.9071 17.6436L11.1923 16.6133C12.3396 14.6756 12.9999 12.415 12.9999 10C12.9998 7.5728 12.3338 5.30151 11.1757 3.35742L12.9022 2.34863Z" fill="#000000"/>
<path d="M9.44812 4.36719C10.4327 6.01496 10.9998 7.94098 10.9999 10C10.9999 12.0384 10.4428 13.9462 9.47644 15.583L7.76257 14.5527C8.54763 13.2169 8.99988 11.6614 8.99988 10C8.99979 8.30904 8.53273 6.72747 7.72156 5.37598L9.44812 4.36719Z" fill="#000000"/>
<path d="M5.99402 6.38574C6.6317 7.44088 6.99979 8.67721 6.99988 10C6.99988 11.2846 6.6517 12.4876 6.04773 13.5225L4.33289 12.4922C4.75581 11.7583 4.99988 10.9078 4.99988 10C4.99979 9.04545 4.73262 8.15323 4.26843 7.39453L5.99402 6.38574Z" fill="#000000"/>
</svg>
