<svg xmlns="http://www.w3.org/2000/svg" width="20" height="20" viewBox="0 0 20 20" fill="none"><rect width="20" height="20" fill="none"/>
<path d="M7.97394 2.28051C9.05261 1.06734 10.948 1.06727 12.0267 2.28051C12.415 2.71725 12.9347 3.01715 13.5071 3.135C15.0972 3.46257 16.0461 5.10492 15.5345 6.64574L15.4739 6.85571C15.3531 7.34969 15.3733 7.8693 15.5345 8.35473C15.891 9.429 15.5357 10.5505 14.7503 11.2434V17.0002C14.7502 17.2461 14.6291 17.4764 14.4271 17.6164C14.225 17.7564 13.9668 17.7885 13.7366 17.7024L10.0003 16.301L6.26398 17.7024C6.03387 17.7887 5.77565 17.7562 5.57355 17.6164C5.37142 17.4764 5.25037 17.2461 5.25031 17.0002V11.2444C4.46413 10.5515 4.10931 9.42952 4.46613 8.35473C4.6273 7.86936 4.6475 7.34963 4.52668 6.85571L4.46613 6.64574C3.97049 5.15294 4.84504 3.5646 6.34601 3.16918L6.49347 3.135C6.99427 3.03182 7.45435 2.7893 7.8216 2.43774L7.97394 2.28051ZM13.2503 11.9329C12.78 12.0788 12.356 12.3494 12.0267 12.72L11.9241 12.8303C10.8665 13.8971 9.13423 13.8968 8.07648 12.8303L7.97394 12.72C7.64476 12.3496 7.22035 12.0788 6.75031 11.9329V15.9172L9.73664 14.7981L9.8675 14.762C9.99944 14.7383 10.1369 14.7504 10.264 14.7981L13.2503 15.9172V11.9329ZM10.9056 3.27758C10.4236 2.73531 9.57706 2.73538 9.09503 3.27758C8.49201 3.95601 7.68522 4.42158 6.79621 4.60473C6.08556 4.75101 5.66131 5.48451 5.88996 6.17309C6.17597 7.03468 6.17603 7.96581 5.88996 8.82738C5.66135 9.51595 6.08558 10.2495 6.79621 10.3957C7.68519 10.5789 8.49203 11.0445 9.09503 11.7229C9.57709 12.2649 10.4237 12.2651 10.9056 11.7229C11.5087 11.0444 12.3153 10.5788 13.2044 10.3957C13.9147 10.2493 14.339 9.51576 14.1107 8.82738C13.8246 7.96573 13.8246 7.03475 14.1107 6.17309C14.3393 5.48465 13.9148 4.75122 13.2044 4.60473C12.3154 4.42166 11.5087 3.95592 10.9056 3.27758Z" fill="#000000"/>
</svg>
