<svg xmlns="http://www.w3.org/2000/svg" width="20" height="20" viewBox="0 0 20 20" fill="none"><rect width="20" height="20" fill="none"/>
<path d="M19.207 12.2069L12.207 19.2069L10.793 17.7928L17.793 10.7928L19.207 12.2069Z" fill="#000000"/>
<path d="M17.5 15.9998C18.3284 15.9998 19 16.6714 19 17.4998C18.9999 18.3281 18.3283 18.9998 17.5 18.9998C16.6717 18.9998 16.0001 18.3281 16 17.4998C16 16.6715 16.6716 15.9999 17.5 15.9998Z" fill="#000000"/>
<path d="M10.7588 2.37482C12.7451 1.47208 15 2.92445 15 5.10627V5.99982C16.6569 5.99982 18 7.34297 18 8.99982H16C16 8.44754 15.5523 7.99982 15 7.99982H5C4.44772 7.99982 4 8.44754 4 8.99982V14.9998C4.0002 15.5519 4.44784 15.9998 5 15.9998H9V17.9998H5C3.34327 17.9998 2.0002 16.6565 2 14.9998V8.28791C2 7.11153 2.68789 6.0433 3.75879 5.55646L10.7588 2.37482ZM13 5.10627C13 4.37898 12.248 3.89418 11.5859 4.19513L7.61621 5.99982H13V5.10627Z" fill="#000000"/>
<path d="M12.5 10.9998C13.3284 10.9998 14 11.6714 14 12.4998C13.9999 13.3281 13.3283 13.9998 12.5 13.9998C11.6717 13.9998 11.0001 13.3281 11 12.4998C11 11.6715 11.6716 10.9999 12.5 10.9998Z" fill="#000000"/>
</svg>
