<svg xmlns="http://www.w3.org/2000/svg" width="24" height="24" viewBox="0 0 24 24" fill="none"><rect width="24" height="24" fill="none"/>
<path d="M13 11.0005C13.5523 11.0005 14 11.4482 14 12.0005C13.9998 12.5526 13.5522 13.0005 13 13.0005C12.4478 13.0005 12.0002 12.5526 12 12.0005C12 11.4482 12.4477 11.0005 13 11.0005Z" fill="#000000"/>
<path d="M20 4.7085V19.2925L10.3066 21.5737L8 20.0356V3.96533L10.3066 2.42725L20 4.7085ZM10 5.03564V18.9653L10.6924 19.4272L18 17.7075V6.29248L10.6924 4.57275L10 5.03564Z" fill="#000000"/>
<path d="M6 20.0005H4V4.00049H6V20.0005Z" fill="#000000"/>
</svg>
