<svg xmlns="http://www.w3.org/2000/svg" width="20" height="20" viewBox="0 0 20 20" fill="none"><rect width="20" height="20" fill="none"/>
<path d="M14 10C16.2091 10 18 11.7909 18 14C18 14.7417 17.7971 15.4358 17.4453 16.0312L19.207 17.793L17.793 19.207L16.0312 17.4453C15.4358 17.7971 14.7417 18 14 18C11.7909 18 10 16.2091 10 14C10 11.7909 11.7909 10 14 10ZM14 12C12.8954 12 12 12.8954 12 14C12 15.1046 12.8954 16 14 16C15.1046 16 16 15.1046 16 14C16 12.8954 15.1046 12 14 12Z" fill="#000000"/>
<path d="M17 8H15V4H5V15.6123L6.68359 15.0518L7.07715 14.9199L7.44727 15.1055L8 15.3818V17.6182L6.92188 17.0791L3 18.3877V2H17V8Z" fill="#000000"/>
<path d="M9 12H7V10H9V12Z" fill="#000000"/>
<path d="M13 8H7V6H13V8Z" fill="#000000"/>
</svg>
