<svg xmlns="http://www.w3.org/2000/svg" width="20" height="20" viewBox="0 0 20 20" fill="none"><rect width="20" height="20" fill="none"/>
<path d="M10 5C11.3261 5 12.5975 5.52716 13.5352 6.46484C14.4728 7.40253 15 8.67392 15 10V13H17V18H3V13H5V10C5 8.67392 5.52716 7.40253 6.46484 6.46484C7.40253 5.52716 8.67392 5 10 5ZM5 16H15V15H5V16ZM10 7C9.20435 7 8.44151 7.3163 7.87891 7.87891C7.3163 8.44151 7 9.20435 7 10V13H13V10C13 9.20435 12.6837 8.44151 12.1211 7.87891C11.5585 7.3163 10.7956 7 10 7Z" fill="#000000"/>
<path d="M3.5 9V11H1V9H3.5Z" fill="#000000"/>
<path d="M19 11H16.5V9H19V11Z" fill="#000000"/>
<path d="M5.96289 4.5498L4.54883 5.96387L2.79883 4.21484L4.21289 2.7998L5.96289 4.5498Z" fill="#000000"/>
<path d="M17.2139 4.21484L15.4639 5.96387L14.0498 4.5498L15.7998 2.7998L17.2139 4.21484Z" fill="#000000"/>
<path d="M11 3.5H9V1H11V3.5Z" fill="#000000"/>
</svg>
