<svg xmlns="http://www.w3.org/2000/svg" width="20" height="20" viewBox="0 0 20 20" fill="none"><rect width="20" height="20" fill="none"/>
<path d="M14.25 4.56494V8.56494L17.75 10.5649V15.436L13.5 17.8647L10 15.8638L6.5 17.8647L2.25 15.436V10.5649L5.75 8.56494V4.56494L10 2.13623L14.25 4.56494ZM3.75 11.4351V14.5649L6.5 16.1362L9.25 14.5649V11.4351L6.49902 9.86377L3.75 11.4351ZM10.75 11.4351V14.5649L13.5 16.1362L16.25 14.5649V11.4351L13.5 9.86377L10.75 11.4351ZM7.25 5.43506V8.56494L10 10.1362L12.75 8.56494V5.43506L10 3.86377L7.25 5.43506Z" fill="#000000"/>
</svg>
