<svg xmlns="http://www.w3.org/2000/svg" width="24" height="24" viewBox="0 0 24 24" fill="none"><rect width="24" height="24" fill="none"/>
<path d="M12.5772 3.18262L21.0772 9.18262C21.4331 9.43392 21.585 9.88745 21.4532 10.3027C21.3213 10.7179 20.9357 11 20.5001 11H19.0001V19H21.0001V21H3.00009V19H5.00009V11H3.50009C3.06446 11 2.67883 10.7179 2.54696 10.3027C2.41518 9.88749 2.56709 9.43392 2.92294 9.18262L11.4229 3.18262L12.0001 2.77637L12.5772 3.18262ZM7.00009 11V19H9.00009V11H7.00009ZM11.0001 11V19H13.0001V11H11.0001ZM15.0001 11V19H17.0001V11H15.0001ZM6.65243 9H17.3487L12.0001 5.22461L6.65243 9Z" fill="#000000"/>
</svg>
