<svg xmlns="http://www.w3.org/2000/svg" width="20" height="20" viewBox="0 0 20 20" fill="none"><rect width="20" height="20" fill="none"/>
<path d="M7.4502 15H5.9502V11H7.4502V15Z" fill="#000000"/>
<path d="M10.75 15H9.25V6H10.75V15Z" fill="#000000"/>
<path d="M14.0508 15H12.5508V8H14.0508V15Z" fill="#000000"/>
<path d="M15.2998 1.9502C16.8186 1.9502 18.0498 3.18141 18.0498 4.7002V15.2998C18.0498 16.8186 16.8186 18.0498 15.2998 18.0498H4.7002C3.18141 18.0498 1.9502 16.8186 1.9502 15.2998V4.7002C1.9502 3.18141 3.18141 1.9502 4.7002 1.9502H15.2998ZM4.7002 3.4502C4.00984 3.4502 3.4502 4.00984 3.4502 4.7002V15.2998C3.4502 15.9902 4.00984 16.5498 4.7002 16.5498H15.2998C15.9902 16.5498 16.5498 15.9902 16.5498 15.2998V4.7002C16.5498 4.00984 15.9902 3.4502 15.2998 3.4502H4.7002Z" fill="#000000"/>
</svg>
