<svg xmlns="http://www.w3.org/2000/svg" width="24" height="24" viewBox="0 0 24 24" fill="none"><rect width="24" height="24" fill="none"/>
<path d="M19.7915 14.0078C20.2114 14.0079 20.6283 14.0892 21.0171 14.2471C21.4062 14.4052 21.7621 14.6379 22.0601 14.9336L22.0591 14.9346C22.6591 15.5299 23.0034 16.333 23.0034 17.1787C23.0034 18.0246 22.6594 18.8285 22.0591 19.4238L22.0542 19.4287L18.77 22.6387C18.6684 22.763 18.5387 22.866 18.3843 22.9307C18.0127 23.0861 17.5835 23.0032 17.2964 22.7207L13.9497 19.4248L13.9468 19.4219C13.3472 18.8266 13.0034 18.0231 13.0034 17.1777C13.0035 16.3323 13.3472 15.5288 13.9468 14.9336C14.2446 14.638 14.5998 14.4052 14.9888 14.2471C15.3778 14.089 15.7953 14.0079 16.2153 14.0078C16.6354 14.0078 17.0529 14.0891 17.4419 14.2471C17.6386 14.327 17.8262 14.4273 18.0024 14.5439C18.179 14.427 18.3678 14.3272 18.5649 14.2471C18.9539 14.089 19.3715 14.0079 19.7915 14.0078ZM19.7915 16.0078C19.6278 16.0079 19.466 16.0395 19.3179 16.0996C19.1698 16.1599 19.0389 16.2475 18.9321 16.3535L18.9263 16.3584L18.7017 16.5771C18.3131 16.9565 17.6927 16.9567 17.3042 16.5771L17.0806 16.3584L17.0747 16.3535C16.968 16.2476 16.837 16.1598 16.689 16.0996C16.5408 16.0395 16.3791 16.0078 16.2153 16.0078C16.0516 16.0079 15.8899 16.0394 15.7417 16.0996C15.5936 16.1599 15.4627 16.2475 15.356 16.3535C15.1248 16.583 15.0035 16.8792 15.0034 17.1777C15.0034 17.4753 15.1235 17.7708 15.353 18L17.9937 20.6006L20.6558 17.999C20.8842 17.7701 21.0034 17.4755 21.0034 17.1787C21.0034 16.9172 20.9111 16.6571 20.7329 16.4424L20.6509 16.3535C20.5441 16.2475 20.4123 16.1598 20.2642 16.0996C20.1162 16.0396 19.955 16.0079 19.7915 16.0078Z" fill="#000000"/>
<path d="M11.0005 16.0303C8.93293 16.1594 7.79419 16.7009 7.13135 17.4482C6.34418 18.3359 5.99854 19.7594 5.99854 22H3.99854C3.99854 19.666 4.3327 17.5897 5.63525 16.1211C6.80661 14.8004 8.58575 14.1589 11.0005 14.0264V16.0303Z" fill="#000000"/>
<path d="M11.9995 3C14.7609 3 16.9995 5.23858 16.9995 8C16.9995 10.7614 14.7609 13 11.9995 13C9.23809 13 6.99951 10.7614 6.99951 8C6.99951 5.23858 9.23809 3 11.9995 3ZM11.9995 5C10.3427 5 8.99951 6.34315 8.99951 8C8.99951 9.65685 10.3427 11 11.9995 11C13.6564 11 14.9995 9.65685 14.9995 8C14.9995 6.34315 13.6564 5 11.9995 5Z" fill="#000000"/>
</svg>
