<svg xmlns="http://www.w3.org/2000/svg" width="24" height="24" viewBox="0 0 24 24" fill="none"><rect width="24" height="24" fill="none"/>
<path d="M13 3.5L13.7998 4.09961C14.5552 4.66617 15 5.55573 15 6.5V7C15 8.30214 14.1693 9.40737 13.0098 9.82227V11H22V22H2V11H11.0098V9.8291C9.84006 9.41971 9 8.30944 9 7V6.5H11V7C11 7.55228 11.4477 8 12 8C12.5523 8 13 7.55228 13 7V6.5C13 6.18524 12.8514 5.88905 12.5996 5.7002L11.7998 5.09961C11.2964 4.72189 11 4.12938 11 3.5V2H13V3.5ZM4 20H20V13H4V20Z" fill="#000000"/>
</svg>
