<svg xmlns="http://www.w3.org/2000/svg" width="24" height="24" viewBox="0 0 24 24" fill="none"><rect width="24" height="24" fill="none"/>
<path d="M7.65104 6.24121C7.97051 6.51541 8.23568 6.91352 8.4401 7.2793C8.65648 7.66654 8.8556 8.11069 9.02018 8.55273C9.18464 8.99454 9.32277 9.45737 9.40787 9.88281C9.48604 10.2737 9.54593 10.7565 9.45572 11.1787C9.34925 11.677 9.08312 12.0845 8.87174 12.3701C8.76318 12.5168 8.64827 12.6567 8.55436 12.7725C8.59668 12.9013 8.66775 13.0638 8.77994 13.2578C8.98707 13.616 9.29006 14.0031 9.64713 14.3623C10.0039 14.7211 10.3905 15.0283 10.7506 15.2412C10.9322 15.3485 11.0885 15.4195 11.2155 15.4658C11.3258 15.3687 11.4554 15.2556 11.5924 15.1475C11.882 14.9192 12.2952 14.6368 12.8141 14.5264C13.2379 14.4362 13.7229 14.4978 14.1149 14.5771C14.5413 14.6635 15.0044 14.8035 15.4469 14.9697C15.8903 15.1362 16.3362 15.3379 16.7243 15.5566C17.0906 15.7632 17.4887 16.0303 17.7624 16.3525L17.9997 16.6328V18.3271C17.9996 20.2959 16.4866 22.2125 14.2692 22.0635C7.46962 21.6061 2.39257 16.5204 1.93619 9.73047C1.78722 7.51319 3.70427 6.00005 5.67252 6H7.37076L7.65104 6.24121ZM5.67252 8C4.59999 8.00005 3.8776 8.77899 3.93229 9.5957C4.32145 15.3878 8.60314 19.6781 14.403 20.0684C15.2202 20.1233 15.9996 19.4 15.9997 18.3271V17.458C15.9302 17.4112 15.8452 17.3571 15.7419 17.2988C15.4588 17.1392 15.1091 16.979 14.7438 16.8418C14.3781 16.7044 14.0183 16.598 13.7174 16.5371C13.5677 16.5068 13.4445 16.4904 13.3503 16.4844C13.2495 16.478 13.2158 16.4855 13.2301 16.4824C13.1634 16.4967 13.0421 16.5512 12.8307 16.7178C12.7297 16.7974 12.6272 16.8868 12.5075 16.9922C12.3954 17.0909 12.2601 17.2115 12.1237 17.3203C11.9397 17.467 11.7095 17.5441 11.4743 17.5381C10.8557 17.5222 10.2452 17.2656 9.73307 16.9629C9.20287 16.6494 8.68365 16.2306 8.22819 15.7725C7.77282 15.3144 7.35699 14.7923 7.0485 14.2588C6.75075 13.7438 6.49971 13.1266 6.49967 12.5C6.49967 12.29 6.56628 12.0854 6.68912 11.915C6.79134 11.7733 6.90379 11.6336 6.99869 11.5166C7.09983 11.3919 7.18607 11.2864 7.26432 11.1807C7.42859 10.9587 7.48556 10.8313 7.50065 10.7607C7.49746 10.7757 7.50492 10.7427 7.49869 10.6416C7.49288 10.5475 7.47688 10.4241 7.44694 10.2744C7.38688 9.97434 7.28199 9.61591 7.14615 9.25098C7.01046 8.88647 6.85202 8.53767 6.69401 8.25488C6.63707 8.153 6.58366 8.06897 6.53776 8H5.67252Z" fill="#000000"/>
<path d="M11.9997 6C12.7875 6 13.5677 6.1556 14.2956 6.45703C15.0234 6.75853 15.6847 7.20074 16.2419 7.75781C16.799 8.31493 17.2411 8.9762 17.5426 9.7041C17.8441 10.432 17.9997 11.2121 17.9997 12H15.9997C15.9997 11.4748 15.8959 10.9549 15.695 10.4697C15.494 9.98447 15.1992 9.54328 14.8278 9.17188C14.4564 8.80052 14.0152 8.50568 13.5299 8.30469C13.0448 8.10384 12.5247 8 11.9997 8V6Z" fill="#000000"/>
<path d="M11.9997 2C13.3128 2 14.6136 2.25827 15.8268 2.76074C17.04 3.26326 18.1424 4.00023 19.071 4.92871C19.9995 5.85724 20.7364 6.95968 21.2389 8.17285C21.7415 9.38611 21.9997 10.6868 21.9997 12H19.9997C19.9997 10.9494 19.7923 9.90908 19.3903 8.93848C18.9883 7.968 18.3997 7.08556 17.6569 6.34277C16.9141 5.60003 16.0316 5.01138 15.0612 4.60938C14.0907 4.20742 13.0501 4 11.9997 4V2Z" fill="#000000"/>
</svg>
