<svg xmlns="http://www.w3.org/2000/svg" width="20" height="20" viewBox="0 0 20 20" fill="none"><rect width="20" height="20" fill="none"/>
<path d="M6.49934 8C7.32777 8 7.99934 8.67157 7.99934 9.5C7.99934 10.3284 7.32777 11 6.49934 11C5.67108 10.9998 4.99934 10.3283 4.99934 9.5C4.99934 8.6717 5.67108 8.0002 6.49934 8Z" fill="#000000"/>
<path d="M13.4993 8C14.3278 8 14.9993 8.67157 14.9993 9.5C14.9993 10.3284 14.3278 11 13.4993 11C12.6711 10.9998 11.9993 10.3283 11.9993 9.5C11.9993 8.6717 12.6711 8.0002 13.4993 8Z" fill="#000000"/>
<path d="M14.7298 2.94922C16.1195 2.94962 17.291 3.98671 17.4593 5.36621L18.514 14.0156C18.6911 15.4687 17.5568 16.7496 16.0931 16.75C15.5394 16.75 15.0011 16.5617 14.5687 16.2158L11.2366 13.5498H8.79133L6.07258 16.0361C5.57014 16.4953 4.91342 16.7499 4.23274 16.75C2.596 16.7499 1.32775 15.318 1.52571 13.6934L2.54133 5.36621C2.70966 3.98646 3.88181 2.94922 5.2718 2.94922H14.7298ZM5.2718 4.44922C4.64 4.44922 4.10712 4.92072 4.03059 5.54785L3.01496 13.875C2.92603 14.6059 3.49645 15.2499 4.23274 15.25C4.53896 15.2499 4.83485 15.1354 5.06086 14.9287L8.2093 12.0498H11.763L11.9691 12.2139L15.5062 15.0439C15.6726 15.177 15.88 15.25 16.0931 15.25C16.6564 15.2496 17.0929 14.7566 17.0247 14.1973L15.97 5.54785C15.8936 4.92097 15.3613 4.44962 14.7298 4.44922H5.2718Z" fill="#000000"/>
</svg>
