<svg xmlns="http://www.w3.org/2000/svg" width="20" height="20" viewBox="0 0 20 20" fill="none"><rect width="20" height="20" fill="none"/>
<path d="M12.1055 4.0127C12.4748 4.0728 12.7855 4.33718 12.8994 4.70312L14.2363 9H16.5996L16.7656 9.01367C17.1428 9.07686 17.4567 9.3528 17.5625 9.73047L18.9629 14.7305C19.0472 15.0317 18.9859 15.3552 18.7969 15.6045C18.6078 15.8537 18.3128 16 18 16H11C10.6872 15.9999 10.3922 15.8537 10.2031 15.6045C10.0141 15.3553 9.95281 15.0317 10.0371 14.7305L11.082 11H8.80274L9.95508 14.7031C10.0494 15.0065 9.99396 15.3369 9.80567 15.5928C9.6172 15.8487 9.31787 16 9 16H2C1.68217 15.9999 1.38277 15.8487 1.19434 15.5928C1.00611 15.3369 0.950648 15.0065 1.04493 14.7031L2.60059 9.70312C2.73064 9.28509 3.11788 9.00007 3.55567 9H5.76368L7.10059 4.70312C7.23064 4.28509 7.61788 4.00007 8.05567 4H11.9443L12.1055 4.0127ZM3.3584 14H7.64161L6.70801 11H4.292L3.3584 14ZM12.3184 14H16.6816L15.8408 11H13.1592L12.3184 14ZM7.8584 9H12.1416L11.208 6H8.792L7.8584 9Z" fill="#000000"/>
</svg>
