<svg xmlns="http://www.w3.org/2000/svg" width="24" height="24" viewBox="0 0 24 24" fill="none"><rect width="24" height="24" fill="none"/>
<path d="M19.2471 13.333C19.2694 13.356 19.3004 13.3885 19.3389 13.4297C19.4158 13.5121 19.5221 13.6308 19.6494 13.7793C19.9032 14.0753 20.2421 14.4979 20.582 15.0078C21.2402 15.9951 22 17.4494 22 19C22 19.6408 21.8515 20.5845 21.3564 21.4043C20.8289 22.2778 19.902 23 18.5 23C17.098 23 16.1711 22.2778 15.6436 21.4043C15.1485 20.5845 15 19.6408 15 19C15 17.4494 15.7598 15.9951 16.418 15.0078C16.7579 14.4979 17.0968 14.0753 17.3506 13.7793C17.4779 13.6308 17.5842 13.5121 17.6611 13.4297C17.6996 13.3885 17.7306 13.356 17.7529 13.333L18.5 12.5859L19.2471 13.333ZM21 7.94531V11H19V9.05371L12 4.67871L5 9.05371V19H13V21H3V7.94531L12 2.32031L21 7.94531ZM18.5 15.5342C18.3663 15.7081 18.2241 15.9041 18.082 16.1172C17.4902 17.0049 17 18.0506 17 19C17 19.3918 17.1016 19.9481 17.3564 20.3701C17.5789 20.7384 17.9021 21 18.5 21C19.0979 21 19.4211 20.7384 19.6436 20.3701C19.8984 19.9481 20 19.3918 20 19C20 18.0506 19.5098 17.0049 18.918 16.1172C18.7759 15.9041 18.6337 15.7081 18.5 15.5342Z" fill="#000000"/>
</svg>
