<svg xmlns="http://www.w3.org/2000/svg" width="20" height="20" viewBox="0 0 20 20" fill="none"><rect width="20" height="20" fill="none"/>
<path d="M10.415 3.17761C11.905 1.93601 14.0963 2.0357 15.4678 3.4071L16.0303 3.9696C16.2084 4.14776 16.2849 4.40349 16.2344 4.65026C16.1837 4.89721 16.0124 5.10253 15.7783 5.19616C14.7369 5.61274 14.118 5.91474 13.6719 6.24401C13.3839 6.4566 13.1537 6.69213 12.9268 7.00964L18.4502 6.11901V6.99987C18.4502 8.85973 17.9995 10.5475 16.9951 11.785C16.1739 12.7968 15.0277 13.4484 13.6016 13.6669L14.999 16.9266L13.4238 17.5175C11.2168 18.3451 8.78427 18.345 6.57715 17.5175L5.00098 16.9266L6.39746 13.6669C4.97173 13.4482 3.82603 12.7965 3.00488 11.785C2.00036 10.5475 1.5498 8.8598 1.5498 6.99987V6.11901L7.07129 7.00964C6.84454 6.69248 6.61495 6.45645 6.32715 6.24401C5.88111 5.91486 5.26267 5.61257 4.22168 5.19616C3.98762 5.10253 3.81534 4.89721 3.76465 4.65026C3.71419 4.40348 3.79159 4.14773 3.96973 3.9696L4.53223 3.4071C5.90366 2.0357 8.095 1.936 9.58496 3.17761L9.99902 3.52331L10.415 3.17761ZM14.1572 4.25476C13.3355 3.64244 12.1837 3.65605 11.375 4.32995L10.4795 5.07605L10 5.47644L8.62402 4.32995C7.8152 3.65608 6.66348 3.64219 5.8418 4.25476C6.38426 4.50457 6.83366 4.75275 7.21875 5.03698C7.85482 5.50651 8.27952 6.04686 8.69238 6.76257C9.237 7.70677 8.39233 8.74215 7.41699 8.58484L3.09082 7.88659C3.21021 9.11673 3.58446 10.1185 4.16992 10.8397C4.87181 11.7042 5.94541 12.2499 7.5 12.2499H8.6377L6.99902 16.0721L7.10352 16.1122C8.97112 16.8125 11.0289 16.8125 12.8965 16.1122L13 16.0721L11.3623 12.2499H12.5C14.0547 12.2499 15.1283 11.7043 15.8301 10.8397C16.4155 10.1185 16.7888 9.11674 16.9082 7.88659L12.582 8.58484C11.6068 8.7419 10.7631 7.70668 11.3076 6.76257L11.4629 6.5028C11.8296 5.91328 12.2245 5.44795 12.7812 5.03698C13.1662 4.75287 13.615 4.50447 14.1572 4.25476Z" fill="#000000"/>
</svg>
