<svg xmlns="http://www.w3.org/2000/svg" width="20" height="20" viewBox="0 0 20 20" fill="none"><rect width="20" height="20" fill="none"/>
<path d="M7.97418 2.28045C9.05286 1.06728 10.9483 1.06721 12.0269 2.28045C12.4152 2.71719 12.935 3.01709 13.5074 3.13494C15.0975 3.46251 16.0463 5.10485 15.5347 6.64568L15.4742 6.85564C15.3533 7.34963 15.3735 7.86923 15.5347 8.35467C15.8913 9.42894 15.536 10.5505 14.7506 11.2433V17.0002C14.7505 17.246 14.6293 17.4763 14.4273 17.6164C14.2253 17.7563 13.967 17.7885 13.7369 17.7023L10.0006 16.301L6.26422 17.7023C6.03412 17.7886 5.77589 17.7562 5.57379 17.6164C5.37167 17.4763 5.25062 17.2461 5.25055 17.0002V11.2443C4.46438 10.5515 4.10955 9.42945 4.46637 8.35467C4.62754 7.8693 4.64775 7.34957 4.52692 6.85564L4.46637 6.64568C3.97074 5.15288 4.84529 3.56454 6.34626 3.16912L6.49372 3.13494C6.99452 3.03176 7.4546 2.78924 7.82184 2.43768L7.97418 2.28045ZM13.2506 11.9328C12.7802 12.0787 12.3563 12.3494 12.0269 12.7199L11.9244 12.8303C10.8668 13.897 9.13447 13.8968 8.07672 12.8303L7.97418 12.7199C7.645 12.3495 7.22059 12.0788 6.75055 11.9328V15.9172L9.73688 14.798L9.86774 14.7619C9.99968 14.7382 10.1372 14.7504 10.2642 14.798L13.2506 15.9172V11.9328ZM10.9058 3.27752C10.4238 2.73525 9.5773 2.73532 9.09528 3.27752C8.49225 3.95595 7.68546 4.42152 6.79645 4.60467C6.0858 4.75095 5.66156 5.48445 5.8902 6.17303C6.17621 7.03462 6.17628 7.96575 5.8902 8.82732C5.6616 9.51589 6.08582 10.2494 6.79645 10.3957C7.68543 10.5788 8.49227 11.0444 9.09528 11.7228C9.57733 12.2648 10.4239 12.265 10.9058 11.7228C11.5089 11.0444 12.3155 10.5788 13.2047 10.3957C13.915 10.2493 14.3393 9.5157 14.1109 8.82732C13.8248 7.96567 13.8248 7.03469 14.1109 6.17303C14.3395 5.48459 13.915 4.75116 13.2047 4.60467C12.3156 4.4216 11.5089 3.95586 10.9058 3.27752Z" fill="#000000"/>
</svg>
