<svg xmlns="http://www.w3.org/2000/svg" width="24" height="24" viewBox="0 0 24 24" fill="none"><rect width="24" height="24" fill="none"/>
<path d="M13 4.08398C15.8376 4.56013 18 7.02706 18 10V13.0752C18 13.215 18.0292 13.3537 18.0859 13.4814L19.2891 16.1875C19.8769 17.5101 18.9083 19 17.4609 19H15C15 20.6569 13.6569 22 12 22C10.3431 22 9 20.6569 9 19H6.53906C5.09175 19 4.12313 17.5101 4.71094 16.1875L5.91406 13.4814C5.97079 13.3537 6 13.215 6 13.0752V10C6.00001 7.02707 8.16237 4.56013 11 4.08398V2H13V4.08398ZM11 19C11 19.5523 11.4477 20 12 20C12.5523 20 13 19.5523 13 19H11ZM12 6C9.79086 6 8.00001 7.79086 8 10V13.0752C8 13.4949 7.91168 13.9104 7.74121 14.2939L6.53906 17H17.4609L16.2588 14.2939C16.0883 13.9104 16 13.495 16 13.0752V10C16 7.79086 14.2091 6 12 6Z" fill="#000000"/>
<path d="M7.17285 3.62012C5.24542 5.08087 4.00098 7.39509 4.00098 10H2.00098C2.00098 6.66668 3.63227 3.71549 6.13965 1.89844L7.17285 3.62012Z" fill="#000000"/>
<path d="M17.5879 1.67383C20.2771 3.46624 22.0498 6.5258 22.0498 10H20.0488C20.0488 7.28391 18.6953 4.88455 16.626 3.43848L17.5879 1.67383Z" fill="#000000"/>
</svg>
