<svg xmlns="http://www.w3.org/2000/svg" width="24" height="24" viewBox="0 0 24 24" fill="none"><rect width="24" height="24" fill="none"/>
<path d="M9.03027 4.18729C9.82148 3.46647 10.8215 3.02308 11.9795 3.14237C12.9309 3.2405 13.6975 3.6824 14.2002 4.41385C14.6773 5.10826 14.8555 5.97261 14.8623 6.84452C14.8757 8.58425 14.2144 10.718 13.1416 12.7469C12.1562 14.6103 10.7781 16.4688 9.11914 17.95C9.29641 18.1833 9.48309 18.3529 9.67188 18.4646C10.0178 18.6692 10.5022 18.761 11.2441 18.4939C12.0194 18.2148 13.033 17.5527 14.293 16.2928L14.3975 16.2019C14.6535 16.0086 14.9905 15.9483 15.3018 16.0467C15.6573 16.1592 15.9211 16.4605 15.9854 16.8279C16.233 18.2437 16.8115 18.6367 17.1826 18.6756C17.6743 18.7267 18.7362 18.3521 20.2002 16.4002L21.7998 17.6004C20.2642 19.6478 18.5983 20.8332 16.9766 20.6648C15.8118 20.5437 15.0152 19.7845 14.5254 18.7859C13.6066 19.5497 12.7421 20.0805 11.9219 20.3758C10.7261 20.8062 9.60381 20.7477 8.6543 20.1863C8.2167 19.9275 7.84943 19.5803 7.54199 19.1795C5.89944 20.2788 4.02129 21.0008 2 21.0008V19.0008C3.60446 19.0008 5.17144 18.3984 6.61719 17.3875C6.29937 16.4584 6.11902 15.4016 6.05176 14.3152C5.90081 11.8759 6.30804 9.10698 7.20801 6.95389C7.65776 5.87806 8.25724 4.89181 9.03027 4.18729ZM11.7744 5.13162C11.2985 5.08261 10.8417 5.24233 10.377 5.6658C9.8941 6.1059 9.43678 6.80674 9.05273 7.72537C8.28534 9.56149 7.9134 12.0196 8.04785 14.1922C8.08774 14.8362 8.17172 15.4395 8.2959 15.9822C9.53179 14.7652 10.5869 13.2988 11.373 11.8123C12.36 9.94585 12.8722 8.1474 12.8623 6.86014C12.8573 6.2191 12.7243 5.79552 12.5527 5.54569C12.4065 5.33304 12.1863 5.17414 11.7744 5.13162Z" fill="#000000"/>
</svg>
