<svg xmlns="http://www.w3.org/2000/svg" width="24" height="24" viewBox="0 0 24 24" fill="none"><rect width="24" height="24" fill="none"/>
<path d="M7.99999 7.10144C7.58651 7.1859 7.18255 7.3225 6.79882 7.51061C5.81153 7.99474 5.01064 8.79145 4.52147 9.77624C4.03267 10.7609 3.88202 11.88 4.09276 12.9589C4.30384 14.038 4.86546 15.0188 5.68944 15.7469C6.51356 16.475 7.55534 16.9116 8.65233 16.9882C9.74931 17.0646 10.8416 16.7764 11.7588 16.1698C12.6756 15.5631 13.3677 14.6709 13.7266 13.6317C13.9089 13.1035 13.9999 12.5513 14 11.9999H16C15.9999 12.7718 15.8724 13.5445 15.6172 14.2841C15.1147 15.7393 14.1454 16.9894 12.8613 17.8387C11.5771 18.6879 10.0485 19.0904 8.51268 18.9833C6.97671 18.8761 5.51906 18.2645 4.36522 17.245C3.21159 16.2255 2.42537 14.8536 2.12987 13.3426C1.8347 11.8319 2.04591 10.2653 2.73046 8.88659C3.41534 7.50771 4.53655 6.3925 5.91893 5.71472C6.57916 5.39109 7.28189 5.17691 7.99999 5.07311V7.10144Z" fill="#000000"/>
<path d="M11.1152 6.17663C12.3977 5.32113 13.9276 4.91299 15.4658 5.0155C17.0039 5.11808 18.4655 5.72503 19.623 6.74304C20.7807 7.76114 21.57 9.13383 21.8682 10.6464C22.1662 12.1587 21.956 13.7271 21.2715 15.1083C20.5868 16.4895 19.4653 17.6064 18.081 18.285C17.4208 18.6087 16.7181 18.8228 16 18.9266V16.8973C16.4134 16.8129 16.8174 16.6773 17.2012 16.4891C18.1897 16.0044 18.9905 15.2069 19.4795 14.2206C19.9684 13.234 20.1182 12.1134 19.9053 11.0331C19.6923 9.95271 19.1286 8.9722 18.3017 8.24499C17.4749 7.51791 16.4307 7.08383 15.332 7.01061C14.2334 6.9375 13.1415 7.22971 12.2256 7.84069C11.3096 8.45175 10.6211 9.34798 10.2666 10.3905C10.0892 10.9123 9.99999 11.4561 9.99999 11.9999H7.99999C7.99999 11.2386 8.12472 10.4774 8.37304 9.74694C8.86925 8.28746 9.83287 7.03212 11.1152 6.17663Z" fill="#000000"/>
</svg>
