<svg xmlns="http://www.w3.org/2000/svg" width="20" height="20" viewBox="0 0 20 20" fill="none"><rect width="20" height="20" fill="none"/>
<path d="M10.0004 3C10.3346 3.00012 10.647 3.16721 10.8324 3.44531L13.2455 7.06543L16.4008 4.7002C16.7175 4.4629 17.1444 4.43433 17.4896 4.62793C17.8347 4.82166 18.033 5.20076 17.9955 5.59473L16.9096 17H3.09119L2.00526 5.59473C1.96774 5.20064 2.16588 4.82162 2.51112 4.62793C2.85634 4.43446 3.28334 4.46281 3.59998 4.7002L6.75428 7.06543L9.16834 3.44531L9.24354 3.34668C9.43212 3.12827 9.70778 3 10.0004 3ZM7.83241 9.05469C7.68004 9.28323 7.44001 9.43884 7.16932 9.48535C6.89858 9.53173 6.62058 9.4645 6.40076 9.2998L4.20936 7.65625L4.90955 15H15.0912L15.7904 7.65625L13.6 9.2998C13.3802 9.46456 13.1022 9.53163 12.8314 9.48535C12.5607 9.43893 12.3208 9.28324 12.1683 9.05469L10.0004 5.80273L7.83241 9.05469Z" fill="#000000"/>
</svg>
