<svg xmlns="http://www.w3.org/2000/svg" width="24" height="24" viewBox="0 0 24 24" fill="none"><rect width="24" height="24" fill="none"/>
<path d="M9.81244 2.33202C10.9975 1.06894 13.0033 1.06908 14.1884 2.33202L14.8476 3.03417C15.2785 3.49341 15.8428 3.80617 16.4609 3.92674L17.2802 4.08592C19.0752 4.43595 20.1419 6.29757 19.537 8.02342L19.3681 8.5078L19.2939 8.75096C19.1461 9.32399 19.1712 9.93013 19.3681 10.4922L19.537 10.9765C20.1168 12.6307 19.1608 14.4081 17.4999 14.8613V21C17.4999 21.3214 17.3456 21.6236 17.0849 21.8115C16.8242 21.9994 16.4884 22.0499 16.1835 21.9482L11.9999 20.5537L7.81634 21.9482C7.51148 22.0497 7.17566 21.9994 6.91498 21.8115C6.65446 21.6235 6.49994 21.3213 6.49994 21V14.8613C4.83982 14.4076 3.8832 12.6303 4.46283 10.9765L4.63275 10.4922C4.82973 9.9301 4.85474 9.32403 4.70697 8.75096L4.63275 8.5078L4.46283 8.02342C3.87706 6.35169 4.86007 4.55224 6.55365 4.12303L6.72064 4.08592L7.53998 3.92674C8.15812 3.80619 8.72235 3.49346 9.15326 3.03417L9.81244 2.33202ZM8.49994 19.6123L11.6835 18.5517L11.8398 18.5127C11.9984 18.487 12.1624 18.5005 12.3163 18.5517L15.4999 19.6123V15.4433C15.261 15.5861 15.0403 15.7604 14.8476 15.9658L14.1884 16.668L14.0751 16.7832C12.879 17.9303 10.9605 17.8916 9.81244 16.668L9.15326 15.9658C8.95991 15.7598 8.73982 15.5832 8.49994 15.4404V19.6123ZM12.7294 3.70018C12.3344 3.27967 11.6663 3.27956 11.2714 3.70018L10.6122 4.40331C9.89407 5.16873 8.95297 5.68872 7.92279 5.88964L7.10345 6.04882C6.50537 6.16554 6.14924 6.78619 6.35052 7.36132L6.52045 7.84569C6.89569 8.91628 6.89566 10.0837 6.52045 11.1543L6.35052 11.6387C6.14905 12.2138 6.50533 12.8344 7.10345 12.9512L7.92279 13.1103C8.95287 13.3112 9.8941 13.8314 10.6122 14.5967L11.2714 15.2998C11.6664 15.7205 12.3345 15.7205 12.7294 15.2998L13.3886 14.5967C14.1068 13.8313 15.0479 13.3113 16.0781 13.1103L16.8974 12.9512C17.4957 12.8345 17.8518 12.2139 17.6503 11.6387L17.4804 11.1543C17.1052 10.0837 17.1052 8.91624 17.4804 7.84569L17.6503 7.36132C17.8517 6.78612 17.4956 6.16547 16.8974 6.04882L16.0781 5.88964C15.048 5.68871 14.1067 5.16866 13.3886 4.40331L12.7294 3.70018Z" fill="#000000"/>
</svg>
