<svg xmlns="http://www.w3.org/2000/svg" width="20" height="20" viewBox="0 0 20 20" fill="none"><rect width="20" height="20" fill="none"/>
<path d="M6.46973 6.46973C6.68183 6.25762 6.9998 6.19238 7.27832 6.30371L17.2783 10.3037C17.5525 10.4134 17.7367 10.6737 17.749 10.9688C17.7613 11.2638 17.5991 11.5388 17.335 11.6709L13.5586 13.5586L11.6709 17.335C11.5388 17.5991 11.2638 17.7613 10.9688 17.749C10.6737 17.7367 10.4134 17.5525 10.3037 17.2783L6.30371 7.27832C6.19238 6.9998 6.25762 6.68183 6.46973 6.46973ZM11.0752 15.1709L12.3291 12.665L12.4414 12.4414L12.665 12.3291L15.1709 11.0752L8.3457 8.3457L11.0752 15.1709Z" fill="#000000"/>
<path d="M5.03027 10.0303L3.03027 12.0303L1.96973 10.9697L3.96973 8.96973L5.03027 10.0303Z" fill="#000000"/>
<path d="M5.03027 3.96973L3.96973 5.03027L1.96973 3.03027L3.03027 1.96973L5.03027 3.96973Z" fill="#000000"/>
<path d="M12.0303 3.03027L10.0303 5.03027L8.96973 3.96973L10.9697 1.96973L12.0303 3.03027Z" fill="#000000"/>
</svg>
