<svg xmlns="http://www.w3.org/2000/svg" width="24" height="24" viewBox="0 0 24 24" fill="none"><rect width="24" height="24" fill="none"/>
<path d="M12 9.0002C13.6569 9.0002 15 10.3433 15 12.0002C14.9998 13.6569 13.6567 15.0002 12 15.0002C10.3433 15.0002 9.00019 13.6569 9 12.0002C9 10.3433 10.3431 9.0002 12 9.0002ZM12 11.0002C11.4477 11.0002 11 11.4479 11 12.0002C11.0002 12.5523 11.4478 13.0002 12 13.0002C12.5522 13.0002 12.9998 12.5523 13 12.0002C13 11.4479 12.5523 11.0002 12 11.0002Z" fill="#000000"/>
<path d="M15.5459 4.09981C17.0777 3.92961 18.8767 4.00364 21.2168 4.52364L22 4.69746V18.7463L20.7832 18.4758C18.6234 17.9958 17.0472 17.9448 15.7666 18.0871C14.4782 18.2303 13.445 18.5722 12.3164 18.9484C11.1951 19.3222 9.97799 19.7303 8.4541 19.8996C6.92231 20.0698 5.12329 19.9958 2.7832 19.4758L2 19.302V5.25313L3.2168 5.52364C5.37655 6.00358 6.95275 6.05459 8.2334 5.91231C9.52185 5.76914 10.555 5.42717 11.6836 5.05098C12.8049 4.67722 14.022 4.26914 15.5459 4.09981ZM17.5273 6.02754C16.8763 6.00356 16.2962 6.02827 15.7666 6.08711C14.4782 6.23029 13.445 6.57225 12.3164 6.94844C11.1951 7.3222 9.97799 7.73029 8.4541 7.89961C7.19901 8.03905 5.76453 8.01452 4 7.71504V15.5002L6.4707 17.9709C7.12255 17.995 7.70325 17.9712 8.2334 17.9123C9.52184 17.7691 10.555 17.4272 11.6836 17.051C12.8049 16.6772 14.022 16.2691 15.5459 16.0998C16.8009 15.9604 18.2355 15.984 20 16.2834V8.5002L17.5273 6.02754Z" fill="#000000"/>
</svg>
