<svg xmlns="http://www.w3.org/2000/svg" width="24" height="24" viewBox="0 0 24 24" fill="none"><rect width="24" height="24" fill="none"/>
<path d="M19.3633 5.0202L6.16309 20.6208L4.63574 19.3288L17.8359 3.72919L19.3633 5.0202Z" fill="#000000"/>
<path d="M16.7998 13.5749C18.6774 13.5751 20.1992 15.0977 20.1992 16.9753C20.199 18.8527 18.6773 20.3745 16.7998 20.3747C14.9223 20.3745 13.3996 18.8527 13.3994 16.9753C13.3995 15.0977 14.9223 13.5751 16.7998 13.5749ZM16.7998 15.5749C16.0268 15.5751 15.3995 16.2023 15.3994 16.9753C15.3996 17.7482 16.0269 18.3745 16.7998 18.3747C17.5727 18.3745 18.199 17.7482 18.1992 16.9753C18.1992 16.2023 17.5728 15.5751 16.7998 15.5749Z" fill="#000000"/>
<path d="M7.2002 3.97528C9.07778 3.97549 10.5996 5.49803 10.5996 7.37567C10.5992 9.253 9.07756 10.7749 7.2002 10.7751C5.32265 10.7751 3.80017 9.25313 3.7998 7.37567C3.7998 5.4979 5.32243 3.97528 7.2002 3.97528ZM7.2002 5.97528C6.427 5.97528 5.7998 6.60247 5.7998 7.37567C5.80017 8.14856 6.42722 8.77509 7.2002 8.77509C7.97299 8.77487 8.59925 8.14843 8.59961 7.37567C8.59961 6.6026 7.97321 5.97549 7.2002 5.97528Z" fill="#000000"/>
</svg>
