<svg xmlns="http://www.w3.org/2000/svg" width="24" height="24" viewBox="0 0 24 24" fill="none"><rect width="24" height="24" fill="none"/>
<path d="M21.707 20.293L20.293 21.707L17.3496 18.7637C16.9278 18.9152 16.474 19 16 19H10V20.5C9.99989 20.6816 9.90107 20.8494 9.74219 20.9375C9.58338 21.0254 9.38932 21.0199 9.23535 20.9238L5.23535 18.4238C5.08925 18.3325 5.0001 18.1723 5 18C5.00001 17.8277 5.08925 17.6676 5.23535 17.5762L9.23535 15.0762C9.38938 14.98 9.58332 14.9746 9.74219 15.0625C9.90108 15.1506 9.99999 15.3183 10 15.5V17H15.5859L6.39551 7.80957C6.14815 8.14241 6 8.55345 6 9V13H4V9C4.00001 8.00085 4.36695 7.08776 4.97266 6.38672L2.29297 3.70703L3.70703 2.29297L21.707 20.293Z" fill="#000000"/>
<path d="M20 15C20 15.3335 19.9578 15.6571 19.8809 15.9668L18 14.0859V11H20V15Z" fill="#000000"/>
<path d="M15.2578 3.0625C15.4167 2.97456 15.6106 2.98 15.7646 3.07617L19.7646 5.57617C19.9108 5.66755 20 5.82767 20 6C19.9999 6.17228 19.9107 6.33251 19.7646 6.42383L15.7646 8.92383C15.6107 9.0199 15.4166 9.02535 15.2578 8.9375C15.0989 8.84943 15.0001 8.68164 15 8.5V7H10.9141L8.91406 5H15V3.5L15.0049 3.43262C15.026 3.27768 15.1188 3.1396 15.2578 3.0625Z" fill="#000000"/>
</svg>
