<svg xmlns="http://www.w3.org/2000/svg" width="20" height="20" viewBox="0 0 20 20" fill="none"><rect width="20" height="20" fill="none"/>
<path d="M17.4999 5.25C17.4999 3.73128 16.2686 2.50011 14.7499 2.5H5.24988C3.7311 2.5 2.49988 3.73122 2.49988 5.25V14.75C2.49998 16.2687 3.73116 17.5 5.24988 17.5H9.99988V16H5.24988C4.55959 16 3.99998 15.4403 3.99988 14.75V5.25C3.99988 4.55964 4.55952 4 5.24988 4H14.7499C15.4401 4.00011 15.9999 4.55971 15.9999 5.25V10H17.4999V5.25Z" fill="#000000"/>
<path d="M11.2645 10.2976C10.9893 10.1944 10.6785 10.2618 10.4706 10.4694C10.2626 10.6774 10.1954 10.988 10.2987 11.2634L13.2987 19.2634C13.4063 19.5499 13.6773 19.7425 13.9833 19.7497C14.2891 19.7565 14.5696 19.5768 14.6903 19.2956L16.0721 16.071L19.2968 14.6892C19.5778 14.5683 19.7579 14.288 19.7509 13.9821C19.7436 13.6764 19.5507 13.4053 19.2645 13.2976L11.2645 10.2976ZM14.0468 16.987L12.2821 12.281L16.9882 14.0456L14.9305 14.9284L14.0468 16.987Z" fill="#000000"/>
<path d="M12.9999 5.9502V7.4502H5.99988V5.9502H12.9999Z" fill="#000000"/>
<path d="M9.03699 10.4502V8.9502H5.99988V10.4502H9.03699Z" fill="#000000"/>
</svg>
