<svg xmlns="http://www.w3.org/2000/svg" width="20" height="20" viewBox="0 0 20 20" fill="none"><rect width="20" height="20" fill="none"/>
<path d="M16.75 12.9999C16.7499 14.5186 15.5187 15.7499 14 15.7499H8V17.4999C7.99996 17.6816 7.90114 17.8493 7.74219 17.9374C7.58334 18.0253 7.38936 18.0199 7.23535 17.9237L3.23535 15.4237C3.08919 15.3324 3.00003 15.1723 3 14.9999C3 14.8275 3.08919 14.6674 3.23535 14.5761L7.23535 12.0761C7.38938 11.9799 7.58331 11.9745 7.74219 12.0624C7.90114 12.1505 8 12.3182 8 12.4999V14.2499H14C14.6903 14.2499 15.2499 13.6902 15.25 12.9999V9.9999H16.75V12.9999Z" fill="#000000"/>
<path d="M12.2578 2.0624C12.4167 1.97445 12.6106 1.97989 12.7646 2.07607L16.7646 4.57607C16.9108 4.66744 17 4.82752 17 4.9999C17 5.17226 16.9108 5.33238 16.7646 5.42373L12.7646 7.92373C12.6106 8.01987 12.4167 8.02532 12.2578 7.9374C12.0989 7.8493 12 7.68162 12 7.4999V5.7499H6C5.30964 5.7499 4.75 6.30954 4.75 6.9999V9.9999H3.25V6.9999C3.25 5.48112 4.48122 4.2499 6 4.2499H12V2.4999C12 2.31815 12.0989 2.15052 12.2578 2.0624Z" fill="#000000"/>
</svg>
