<svg xmlns="http://www.w3.org/2000/svg" width="20" height="20" viewBox="0 0 20 20" fill="none"><rect width="20" height="20" fill="none"/>
<path d="M13 10.4998C13.8284 10.4998 14.5 11.1714 14.5 11.9998C14.5 12.8282 13.8284 13.4998 13 13.4998C12.1716 13.4998 11.5 12.8282 11.5 11.9998C11.5 11.1714 12.1716 10.4998 13 10.4998Z" fill="#000000"/>
<path d="M10.7588 2.37482C12.7451 1.47208 15 2.92445 15 5.10627V5.99982C16.6569 5.99982 18 7.34297 18 8.99982V14.9998C18 16.6567 16.6569 17.9998 15 17.9998H5C3.34315 17.9998 2 16.6567 2 14.9998V8.28791C2 7.11148 2.68781 6.04327 3.75879 5.55646L10.7588 2.37482ZM5 7.99982C4.44772 7.99982 4 8.44754 4 8.99982V14.9998C4 15.5521 4.44772 15.9998 5 15.9998H15C15.5523 15.9998 16 15.5521 16 14.9998V8.99982C16 8.44754 15.5523 7.99982 15 7.99982H5ZM13 5.10627C13 4.37898 12.248 3.89418 11.5859 4.19513L7.61621 5.99982H13V5.10627Z" fill="#000000"/>
</svg>
