<svg xmlns="http://www.w3.org/2000/svg" width="20" height="20" viewBox="0 0 20 20" fill="none"><rect width="20" height="20" fill="none"/>
<path d="M13.4199 3C15.2741 3 16.8502 4.35527 17.1279 6.18848L17.9912 11.8877L18 11.9434V17H16.5V12.0537L15.6445 6.41309C15.4779 5.31316 14.5324 4.5 13.4199 4.5H6.58008C5.4676 4.5 4.52212 5.31316 4.35547 6.41309L3.5 12.0537V17H2V11.9434L2.00879 11.8877L2.87207 6.18848C3.14983 4.35527 4.72595 3 6.58008 3H13.4199Z" fill="#000000"/>
<path d="M14 17H9V15.5H14V17Z" fill="#000000"/>
<path d="M12.627 6C13.5021 6 14.2431 6.64657 14.3613 7.51367L14.8379 11.0137C14.9811 12.0644 14.1649 12.9999 13.1045 13H6.89551C5.83511 12.9999 5.01887 12.0644 5.16211 11.0137L5.63867 7.51367C5.75691 6.64657 6.49792 6 7.37305 6H12.627ZM7.37305 7.5C7.24815 7.5 7.14205 7.59213 7.125 7.71582L6.64746 11.2158C6.627 11.3659 6.74406 11.4999 6.89551 11.5H13.1045C13.2559 11.4999 13.373 11.3659 13.3525 11.2158L12.875 7.71582C12.8579 7.59213 12.7518 7.5 12.627 7.5H7.37305Z" fill="#000000"/>
</svg>
