<svg xmlns="http://www.w3.org/2000/svg" width="24" height="24" viewBox="0 0 24 24" fill="none"><rect width="24" height="24" fill="none"/>
<path d="M21.9998 20.9996H1.99982V18.9996H21.9998V20.9996Z" fill="#000000"/>
<path d="M16.9725 2.99964C17.2856 2.99111 17.5853 3.13015 17.7811 3.37464L21.7811 8.37464L21.9998 8.64905V16.9996H2.99982C2.6156 16.9996 2.26501 16.7795 2.09846 16.4332C1.93215 16.0868 1.97852 15.6747 2.21857 15.3746L8.85627 7.07874L11.8123 9.54065L16.1863 3.41858L16.2596 3.32776C16.4415 3.12733 16.6986 3.00718 16.9725 2.99964ZM12.1873 12.4576L9.14338 9.92151L5.08088 14.9996H19.9998V9.3512L17.0438 5.65687L12.1873 12.4576Z" fill="#000000"/>
</svg>
