<svg xmlns="http://www.w3.org/2000/svg" width="20" height="20" viewBox="0 0 20 20" fill="none"><rect width="20" height="20" fill="none"/>
<path d="M6.5 10C7.32843 10 8 10.6716 8 11.5C8 12.3284 7.32843 13 6.5 13C5.67157 13 5 12.3284 5 11.5C5 10.6716 5.67157 10 6.5 10Z" fill="#000000"/>
<path d="M13.5 10C14.3284 10 15 10.6716 15 11.5C15 12.3284 14.3284 13 13.5 13C12.6716 13 12 12.3284 12 11.5C12 10.6716 12.6716 10 13.5 10Z" fill="#000000"/>
<path d="M10 2C10.8284 2 11.5 2.67157 11.5 3.5C11.5 4.05495 11.198 4.5384 10.75 4.79785V6.9502H14.7002C16.2188 6.95041 17.4502 8.18154 17.4502 9.7002V15.25C17.4502 16.7687 16.2188 17.9998 14.7002 18H5.2998C3.87592 18 2.70525 16.918 2.56445 15.5312L2.5498 15.25V9.7002C2.54981 8.18141 3.78102 6.9502 5.2998 6.9502H9.25V4.79785C8.802 4.5384 8.5 4.05495 8.5 3.5C8.5 2.67157 9.17157 2 10 2ZM5.2998 8.4502C4.60945 8.4502 4.04981 9.00984 4.0498 9.7002V15.25L4.05664 15.3779C4.12064 16.0083 4.65259 16.5 5.2998 16.5H14.7002C15.3904 16.4998 15.9502 15.9402 15.9502 15.25V9.7002C15.9502 9.00997 15.3904 8.45041 14.7002 8.4502H5.2998Z" fill="#000000"/>
</svg>
