<svg xmlns="http://www.w3.org/2000/svg" width="20" height="20" viewBox="0 0 20 20" fill="none"><rect width="20" height="20" fill="none"/>
<path d="M9.99988 6C11.0607 6 12.0779 6.42173 12.828 7.17188C13.5781 7.92202 13.9999 8.93913 13.9999 10L13.995 10.1982C13.9511 11.083 13.6132 11.926 13.0389 12.5977L13.9803 17.3037C14.0503 17.6533 13.9292 18.0141 13.662 18.25C13.3947 18.4859 13.0216 18.561 12.6835 18.4482L9.99988 17.5537L7.31628 18.4482C6.97811 18.561 6.60501 18.4859 6.33777 18.25C6.07054 18.0141 5.9495 17.6533 6.01941 17.3037L6.95984 12.5977C6.34308 11.876 5.99988 10.9561 5.99988 10C5.99988 8.93913 6.42161 7.92202 7.17175 7.17188C7.9219 6.42173 8.93901 6 9.99988 6ZM8.31824 16.0068L9.68347 15.5518L9.83972 15.5127C9.9985 15.4869 10.1622 15.5004 10.3163 15.5518L11.6815 16.0068L11.2401 13.8018C10.9051 13.9111 10.5551 13.9774 10.1981 13.9951L9.99988 14C9.57412 14 9.1559 13.9306 8.75867 13.8008L8.31824 16.0068ZM9.99988 8C9.46944 8 8.96089 8.21087 8.58582 8.58594C8.21074 8.96101 7.99988 9.46957 7.99988 10C7.99988 10.5304 8.21074 11.039 8.58582 11.4141C8.96089 11.7891 9.46944 12 9.99988 12L10.1971 11.9902C10.6551 11.9449 11.0857 11.7423 11.4139 11.4141C11.789 11.039 11.9999 10.5304 11.9999 10L11.9901 9.80273C11.9447 9.34474 11.7422 8.91422 11.4139 8.58594C11.0389 8.21087 10.5303 8 9.99988 8Z" fill="#000000"/>
<path d="M14.9999 2C16.6567 2.00002 17.9998 3.34321 17.9999 5V13C17.9999 14.6568 16.6567 16 14.9999 16V14C15.5522 14 15.9999 13.5523 15.9999 13V5C15.9998 4.44777 15.5521 4.00001 14.9999 4H4.99988C4.4476 4 3.99989 4.44772 3.99988 5V13L4.00476 13.1025C4.0561 13.6067 4.48221 14 4.99988 14V16C3.39478 16 2.08411 14.7394 2.00378 13.1543L1.99988 13V5C1.99989 3.34315 3.34303 2 4.99988 2H14.9999Z" fill="#000000"/>
</svg>
