<svg xmlns="http://www.w3.org/2000/svg" width="20" height="20" viewBox="0 0 20 20" fill="none"><rect width="20" height="20" fill="none"/>
<path d="M19 12.5C19 12.5 19 17.5 15 19C11 17.5 11 12.5 11 12.5L15 11L19 12.5ZM12.6084 13.498C12.6706 13.8519 12.7677 14.2651 12.917 14.6943C13.2805 15.7394 13.9053 16.7541 15 17.3535C16.0947 16.7541 16.7195 15.7394 17.083 14.6943C17.2323 14.2652 17.3284 13.8519 17.3906 13.498L15 12.6016L12.6084 13.498Z" fill="#000000"/>
<path d="M11.25 2C12.7688 2 14 3.23122 14 4.75V6H15.25C16.7687 6.00007 18 7.23126 18 8.75V9H16.5V8.75C16.5 8.05968 15.9403 7.50007 15.25 7.5H4.75C4.0597 7.50007 3.5 8.05969 3.5 8.75V15.25C3.5 15.9403 4.0597 16.4999 4.75 16.5H10V18H4.75C3.23127 17.9999 2 16.7687 2 15.25V8.75C2 7.23126 3.23127 6.00007 4.75 6H6V4.75C6 3.23122 7.23122 2 8.75 2H11.25ZM8.75 3.5C8.05964 3.5 7.5 4.05964 7.5 4.75V6H12.5V4.75C12.5 4.05964 11.9404 3.5 11.25 3.5H8.75Z" fill="#000000"/>
</svg>
