<svg xmlns="http://www.w3.org/2000/svg" width="24" height="24" viewBox="0 0 24 24" fill="none"><rect width="24" height="24" fill="none"/>
<path d="M14.9997 4C15.4461 4 15.8389 4.29632 15.9616 4.72559L17.7546 11H19.9997C20.4461 11 20.8389 11.2963 20.9616 11.7256L22.9616 18.7256C23.0476 19.0272 22.9874 19.3521 22.7985 19.6025C22.6095 19.853 22.3134 20 21.9997 20H1.99969C1.68598 19.9999 1.38977 19.853 1.20086 19.6025C1.01206 19.3522 0.95177 19.0271 1.03777 18.7256L3.03777 11.7256C3.16041 11.2964 3.55331 11.0001 3.99969 11H6.2448L8.03777 4.72559C8.16041 4.29636 8.55331 4.00011 8.99969 4H14.9997ZM11.3259 13L12.7546 18H20.6735L19.2448 13H11.3259ZM3.32586 18H10.6735L9.2448 13H4.75457L3.32586 18ZM8.32586 11H15.6735L14.2448 6H9.75457L8.32586 11Z" fill="#000000"/>
</svg>
