<svg xmlns="http://www.w3.org/2000/svg" width="20" height="20" viewBox="0 0 20 20" fill="none"><rect width="20" height="20" fill="none"/>
<path d="M6.99976 12.9998C7.55196 12.9998 7.99962 13.4476 7.99976 13.9998C7.99976 14.552 7.55204 14.9998 6.99976 14.9998C6.44756 14.9997 5.99976 14.552 5.99976 13.9998C5.99989 13.4476 6.44764 12.9999 6.99976 12.9998Z" fill="#000000"/>
<path d="M9.99976 12.9998C10.552 12.9998 10.9996 13.4476 10.9998 13.9998C10.9998 14.552 10.552 14.9998 9.99976 14.9998C9.44756 14.9997 8.99976 14.552 8.99976 13.9998C8.99989 13.4476 9.44764 12.9999 9.99976 12.9998Z" fill="#000000"/>
<path d="M12.9998 9.99976C13.552 9.99976 13.9996 10.4476 13.9998 10.9998V13.9998C13.9998 14.552 13.552 14.9998 12.9998 14.9998C12.4476 14.9997 11.9998 14.552 11.9998 13.9998V10.9998C11.9999 10.4476 12.4476 9.99986 12.9998 9.99976Z" fill="#000000"/>
<path d="M6.99976 9.99976C7.55196 9.99976 7.99962 10.4476 7.99976 10.9998C7.99976 11.552 7.55204 11.9998 6.99976 11.9998C6.44756 11.9997 5.99976 11.552 5.99976 10.9998C5.99989 10.4476 6.44764 9.99986 6.99976 9.99976Z" fill="#000000"/>
<path d="M9.99976 9.99976C10.552 9.99976 10.9996 10.4476 10.9998 10.9998C10.9998 11.552 10.552 11.9998 9.99976 11.9998C9.44756 11.9997 8.99976 11.552 8.99976 10.9998C8.99989 10.4476 9.44764 9.99986 9.99976 9.99976Z" fill="#000000"/>
<path d="M13.9998 6.99976H5.99976V4.99976H13.9998V6.99976Z" fill="#000000"/>
<path d="M14.2996 1.94995C15.8183 1.94995 17.0496 3.18117 17.0496 4.69995V15.3005C17.0494 16.8192 15.8182 18.0505 14.2996 18.0505H5.69995C4.18128 18.0505 2.95014 16.8192 2.94995 15.3005V4.69995C2.94995 3.18117 4.18117 1.94995 5.69995 1.94995H14.2996ZM5.69995 3.44995C5.00959 3.44995 4.44995 4.0096 4.44995 4.69995V15.3005C4.45014 15.9907 5.00971 16.5505 5.69995 16.5505H14.2996C14.9898 16.5505 15.5494 15.9907 15.5496 15.3005V4.69995C15.5496 4.00959 14.9899 3.44995 14.2996 3.44995H5.69995Z" fill="#000000"/>
</svg>
