<svg xmlns="http://www.w3.org/2000/svg" width="20" height="20" viewBox="0 0 20 20" fill="none"><rect width="20" height="20" fill="none"/>
<path d="M7 7C7.55228 7 8 7.44772 8 8C8 8.55228 7.55228 9 7 9C6.44772 9 6 8.55228 6 8C6 7.44772 6.44772 7 7 7Z" fill="#000000"/>
<path d="M10 7C10.5523 7 11 7.44772 11 8C11 8.55228 10.5523 9 10 9C9.44772 9 9 8.55228 9 8C9 7.44772 9.44772 7 10 7Z" fill="#000000"/>
<path d="M15 3C16.6569 3 18 4.34315 18 6V14C18 15.6569 16.6569 17 15 17H5C3.39489 17 2.08421 15.7394 2.00391 14.1543L2 14V6C2 4.34315 3.34315 3 5 3H15ZM5 5C4.44772 5 4 5.44772 4 6V14L4.00488 14.1025C4.05621 14.6067 4.48232 15 5 15H11C11 12.2386 13.2386 10 16 10V6C16 5.44772 15.5523 5 15 5H5ZM16 12C14.3431 12 13 13.3431 13 15H15C15.5523 15 16 14.5523 16 14V12Z" fill="#000000"/>
</svg>
