<svg xmlns="http://www.w3.org/2000/svg" width="20" height="20" viewBox="0 0 20 20" fill="none"><rect width="20" height="20" fill="none"/>
<path d="M9.12982 3.1133C9.53945 2.49923 10.4604 2.4993 10.8701 3.1133L10.9501 3.2549L12.7099 6.98634L16.7626 7.66505C17.6571 7.81489 17.9543 8.95191 17.247 9.51955L14.2294 11.9395L14.998 16.1358C15.1676 17.064 14.121 17.7278 13.3534 17.1787L9.99993 14.7783L6.64642 17.1787C5.87885 17.7278 4.83313 17.0641 5.00286 16.1358L5.76947 11.9395L2.75384 9.51955C2.04632 8.95191 2.34262 7.81479 3.23724 7.66505L7.289 6.98634L9.05072 3.2549L9.12982 3.1133ZM8.58978 7.74513C8.415 8.11544 8.06978 8.37663 7.66595 8.44435L4.47552 8.97755L6.82513 10.8633C7.18296 11.1507 7.35485 11.611 7.2724 12.0625L6.67767 15.3106L9.2724 13.4551L9.35638 13.4004C9.75237 13.1623 10.2486 13.162 10.6445 13.4004L10.7275 13.4551L13.3222 15.3115L12.7275 12.0625C12.645 11.6108 12.8176 11.1506 13.1757 10.8633L15.5243 8.97853L12.3339 8.44435C11.93 8.37668 11.5849 8.11546 11.4101 7.74513L9.99993 4.75685L8.58978 7.74513Z" fill="#000000"/>
</svg>
