<svg xmlns="http://www.w3.org/2000/svg" width="20" height="20" viewBox="0 0 20 20" fill="none"><rect width="20" height="20" fill="none"/>
<path d="M19.207 12.2067L12.207 19.2067L10.793 17.7927L17.793 10.7927L19.207 12.2067Z" fill="#000000"/>
<path d="M17.5 15.9997C18.3283 15.9997 18.9998 16.6714 19 17.4997C19 18.3281 18.3284 18.9997 17.5 18.9997C16.6716 18.9996 16 18.3281 16 17.4997C16.0002 16.6714 16.6717 15.9997 17.5 15.9997Z" fill="#000000"/>
<path d="M7.37402 2.21941C7.61054 2.02976 7.92084 1.95744 8.2168 2.02312L18 4.19793V8.99969H16V5.80144L9 4.24578V17.9997H2V8.99969L7 7.57098V2.99969C7.00008 2.69649 7.13752 2.40915 7.37402 2.21941ZM4 10.5075V15.9997H7V9.65105L4 10.5075Z" fill="#000000"/>
<path d="M12.5 10.9997C13.3283 10.9997 13.9998 11.6714 14 12.4997C14 13.3281 13.3284 13.9997 12.5 13.9997C11.6716 13.9996 11 13.3281 11 12.4997C11.0002 11.6714 11.6717 10.9997 12.5 10.9997Z" fill="#000000"/>
</svg>
