<svg xmlns="http://www.w3.org/2000/svg" width="20" height="20" viewBox="0 0 20 20" fill="none"><rect width="20" height="20" fill="none"/>
<path d="M10 12.4502H6V10.9502H10V12.4502Z" fill="#000000"/>
<path d="M7.4502 2.9502H12.5498V1H14.0498V2.9502H15.2998C16.8185 2.95033 18.0498 4.18149 18.0498 5.7002V15.2998C18.0497 16.8184 16.8184 18.0497 15.2998 18.0498H4.7002C3.18149 18.0498 1.95033 16.8185 1.9502 15.2998V5.7002C1.9502 4.18141 3.18141 2.9502 4.7002 2.9502H5.9502V1H7.4502V2.9502ZM3.4502 15.2998C3.45033 15.99 4.00992 16.5498 4.7002 16.5498H15.2998C15.99 16.5497 16.5497 15.99 16.5498 15.2998V8.4502H3.4502V15.2998ZM4.7002 4.4502C4.00984 4.4502 3.4502 5.00984 3.4502 5.7002V6.9502H16.5498V5.7002C16.5498 5.00992 15.99 4.45033 15.2998 4.4502H4.7002Z" fill="#000000"/>
</svg>
