<svg xmlns="http://www.w3.org/2000/svg" width="20" height="20" viewBox="0 0 20 20" fill="none"><rect width="20" height="20" fill="none"/>
<path d="M14.709 2.04313C15.0117 1.95109 15.3403 2.00825 15.5947 2.19645C15.8493 2.38501 15.9999 2.68338 16 3.00017V13.5002C16 14.8809 14.8807 16.0002 13.5 16.0002C12.1193 16.0002 11 14.8809 11 13.5002C11.0001 12.1195 12.1194 11.0002 13.5 11.0002C13.6712 11.0002 13.8385 11.0172 14 11.05V5.35954L8 7.23454V15.5002C8 16.8809 6.88071 18.0002 5.5 18.0002C4.11929 18.0002 3 16.8809 3 15.5002C3.00011 14.1195 4.11935 13.0002 5.5 13.0002C5.67121 13.0002 5.83847 13.0172 6 13.05V4.69743L6.70898 4.48063L14.709 2.04313Z" fill="#000000"/>
</svg>
