<svg xmlns="http://www.w3.org/2000/svg" width="20" height="20" viewBox="0 0 20 20" fill="none"><rect width="20" height="20" fill="none"/>
<path d="M5.92686 3.24874C7.04109 3.06317 8.17868 3.35722 9.06064 4.05245L9.2335 4.196L9.23447 4.19698L12.4288 7.02217C13.9682 6.70811 15.574 6.95284 16.9542 7.71944C18.6465 8.66053 18.2968 11.1931 16.4112 11.6374L13.5782 12.3034L12.0782 15.1501C11.4956 16.2555 10.4298 17.0247 9.19736 17.2302L7.66416 17.486C7.34724 17.5388 7.02418 17.4359 6.796 17.2097C6.56809 16.9836 6.46199 16.6616 6.51182 16.3444L6.90049 13.8737L5.21299 14.2712C3.10463 14.7665 1.18137 12.9327 1.57627 10.8034L1.87607 9.18721C2.06317 8.18638 3.16114 7.67346 4.03525 8.12569L4.20713 8.22921L5.19248 8.91378L6.08408 8.67842L3.754 5.18331L3.75205 5.1794C3.34514 4.56333 3.65054 3.73161 4.34482 3.5212L4.48838 3.488L5.92686 3.24874ZM9.00303 13.3786L8.70322 15.2858L8.86826 15.2575C9.48454 15.1548 10.0174 14.7702 10.3087 14.2175L10.9972 12.9099L9.00303 13.3786ZM6.25498 5.22042L6.18857 5.23116L8.45518 8.6296C8.46391 8.64268 8.47678 8.66072 8.5001 8.6921C8.6979 8.95839 8.75122 9.30575 8.6417 9.61885C8.53199 9.93199 8.27398 10.1708 7.95322 10.2556L5.25596 10.9665C4.97275 11.0411 4.67028 10.9871 4.42979 10.82L3.70127 10.3132L3.54307 11.1687C3.41163 11.8786 4.05258 12.489 4.75498 12.3239L15.9522 9.68917C15.9937 9.67935 16.0086 9.66521 16.0157 9.65694C16.0268 9.64403 16.0386 9.62104 16.0431 9.58956C16.0475 9.55785 16.0425 9.53187 16.0353 9.51632C16.0306 9.50634 16.0205 9.48818 15.9835 9.46749C14.9459 8.89114 13.7248 8.73786 12.5772 9.03975L12.4103 9.0837C12.0878 9.16807 11.744 9.08565 11.4942 8.86495L7.9083 5.69503C7.45701 5.29644 6.84928 5.12141 6.25498 5.22042Z" fill="#000000"/>
</svg>
