<svg xmlns="http://www.w3.org/2000/svg" width="20" height="20" viewBox="0 0 20 20" fill="none"><rect width="20" height="20" fill="none"/>
<path d="M10 2C12.7614 2 15 4.23858 15 7C15 7.46495 14.9351 7.91468 14.8164 8.3418C16.6796 9.06865 18 10.8795 18 13C18 15.7614 15.7614 18 13 18C11.874 18 10.8356 17.6273 10 16.999C9.16423 17.627 8.1259 18 7 18C4.23858 18 2 15.7614 2 13C2 10.8796 3.32048 9.06947 5.18359 8.34277C5.0647 7.91539 5 7.46528 5 7C5 4.23858 7.23858 2 10 2ZM6.10547 10.1348C4.88539 10.5153 4 11.6546 4 13C4 14.6569 5.34315 16 7 16C8.65685 16 10 14.6569 10 13C10 12.6469 9.93548 12.3095 9.82324 11.9951C8.32089 11.9429 6.98753 11.2292 6.10547 10.1348ZM13.8936 10.1348C13.3499 10.8092 12.635 11.3384 11.8145 11.6582C11.9337 12.0853 12 12.5348 12 13C12 13.908 11.756 14.7583 11.333 15.4922C11.8095 15.8125 12.3824 16 13 16C14.6569 16 16 14.6569 16 13C16 11.6543 15.1141 10.515 13.8936 10.1348ZM10 4C8.34315 4 7 5.34315 7 7C7 8.65685 8.34315 10 10 10C11.6569 10 13 8.65685 13 7C13 5.34315 11.6569 4 10 4Z" fill="#000000"/>
</svg>
