<svg xmlns="http://www.w3.org/2000/svg" width="20" height="20" viewBox="0 0 20 20" fill="none"><rect width="20" height="20" fill="none"/>
<path d="M8.43945 2.15374C10.2547 1.79271 12.1392 2.07232 13.7715 2.94475C15.4036 3.81724 16.6824 5.22908 17.3906 6.9389C18.0988 8.64876 18.1935 10.5516 17.6562 12.3227C17.119 14.0935 15.9839 15.6236 14.4453 16.6518C12.9065 17.68 11.0576 18.1437 9.21582 17.9623C7.37399 17.7809 5.65145 16.9653 4.34277 15.6567L5.75781 14.2426C6.73929 15.224 8.03085 15.835 9.41211 15.9711C10.7933 16.1071 12.179 15.7597 13.333 14.9887C14.487 14.2176 15.3392 13.0707 15.7422 11.7426C16.1451 10.4142 16.0742 8.98601 15.543 7.70354C15.0118 6.42137 14.0521 5.36273 12.8281 4.70843C11.6041 4.05431 10.1903 3.84493 8.8291 4.11565C7.46793 4.38655 6.24279 5.12096 5.3623 6.19378C4.4817 7.26681 4.00098 8.6123 4.00098 10.0004H1.99902C1.99902 8.14958 2.64127 6.35497 3.81543 4.92425C4.98958 3.4936 6.62423 2.51481 8.43945 2.15374Z" fill="#000000"/>
<path d="M3.35352 12.6869L5.82812 13.0405C6.01539 13.0674 6.17157 13.1979 6.23145 13.3774C6.2913 13.5569 6.24508 13.7552 6.11133 13.8891L3.98926 16.0102C3.85534 16.1441 3.65718 16.1912 3.47754 16.1313C3.29816 16.0714 3.16752 15.9152 3.14062 15.728L2.78711 13.2533C2.76486 13.0976 2.81754 12.9398 2.92871 12.8285C3.03997 12.7173 3.19775 12.6647 3.35352 12.6869Z" fill="#000000"/>
<path d="M12.25 11.0004C12.9403 11.0004 13.5 11.5601 13.5 12.2504C13.4998 12.9406 12.9402 13.5004 12.25 13.5004C11.5598 13.5004 11.0002 12.9406 11 12.2504C11 11.5601 11.5597 11.0005 12.25 11.0004Z" fill="#000000"/>
<path d="M13.207 8.20745L8.20703 13.2074L6.79297 11.7934L11.793 6.79339L13.207 8.20745Z" fill="#000000"/>
<path d="M7.75 6.50042C8.44033 6.50042 8.99996 7.0601 9 7.75042C8.99978 8.44059 8.44022 9.00042 7.75 9.00042C7.05978 9.00042 6.50022 8.44059 6.5 7.75042C6.50004 7.0601 7.05967 6.50042 7.75 6.50042Z" fill="#000000"/>
</svg>
