<svg xmlns="http://www.w3.org/2000/svg" width="20" height="20" viewBox="0 0 20 20" fill="none"><rect width="20" height="20" fill="none"/>
<path d="M11.25 5C12.9069 5 14.25 6.34315 14.25 8C14.25 9.65685 12.9069 11 11.25 11H8.75V12.5H11V14H8.75V15H7.25V14H6V12.5H7.25V11H6V9.5H7.25V5H11.25ZM8.75 9.5H11.25C12.0784 9.5 12.75 8.82843 12.75 8C12.75 7.17157 12.0784 6.5 11.25 6.5H8.75V9.5Z" fill="#000000"/>
<path d="M15.2998 1.9502C16.8186 1.9502 18.0498 3.18141 18.0498 4.7002V15.2998C18.0498 16.8186 16.8186 18.0498 15.2998 18.0498H4.7002C3.18141 18.0498 1.9502 16.8186 1.9502 15.2998V4.7002C1.9502 3.18141 3.18141 1.9502 4.7002 1.9502H15.2998ZM4.7002 3.4502C4.00984 3.4502 3.4502 4.00984 3.4502 4.7002V15.2998C3.4502 15.9902 4.00984 16.5498 4.7002 16.5498H15.2998C15.9902 16.5498 16.5498 15.9902 16.5498 15.2998V4.7002C16.5498 4.00984 15.9902 3.4502 15.2998 3.4502H4.7002Z" fill="#000000"/>
</svg>
