<svg xmlns="http://www.w3.org/2000/svg" width="20" height="20" viewBox="0 0 20 20" fill="none"><rect width="20" height="20" fill="none"/>
<path d="M10.6101 2.56445C11.8243 4.26411 13.1228 5.4338 14.2703 6.67969C15.3867 7.89188 16.3498 9.17532 16.4969 10.9375C16.7833 14.371 13.9485 17.75 10.0056 17.75C6.06503 17.7499 3.21593 14.3729 3.50174 10.9375C3.64846 9.17511 4.61266 7.89193 5.72927 6.67969C6.87698 5.43372 8.17527 4.26421 9.38943 2.56445L9.99978 1.70996L10.6101 2.56445ZM9.99881 4.23926C8.88081 5.64224 7.71031 6.7416 6.83181 7.69531C5.76091 8.85793 5.0998 9.82513 4.99685 11.0625C4.7837 13.6269 6.94623 16.2499 10.0056 16.25C13.0632 16.25 15.2158 13.629 15.0017 11.0625C14.8985 9.82496 14.2376 8.85796 13.1668 7.69531C12.2882 6.74145 11.1169 5.64253 9.99881 4.23926Z" fill="#000000"/>
</svg>
