<svg xmlns="http://www.w3.org/2000/svg" width="20" height="20" viewBox="0 0 20 20" fill="none"><rect width="20" height="20" fill="none"/>
<path d="M11.9999 19.0001H3.99989V17.0001H11.9999V19.0001Z" fill="#000000"/>
<path d="M10.4765 1.01283C10.7936 0.961507 11.1165 1.066 11.3436 1.29311L15.7069 5.65639C15.9341 5.88356 16.0385 6.20644 15.9872 6.52357C15.9357 6.84081 15.7346 7.11418 15.4472 7.25795L14.5018 7.73061L12.3231 9.90932L17.7069 15.2931L16.2929 16.7072L10.9091 11.3234L8.73134 13.5011L8.2577 14.4474C8.11393 14.7348 7.84057 14.936 7.52333 14.9874C7.20621 15.0387 6.88331 14.9343 6.65614 14.7072L2.29286 10.3439C2.06576 10.1167 1.96126 9.7938 2.01259 9.4767C2.06409 9.15952 2.26526 8.88609 2.55263 8.74232L3.49892 8.26869L9.26942 2.49818L9.74208 1.55287C9.88584 1.2655 10.1593 1.06434 10.4765 1.01283ZM10.7977 3.79799L4.79774 9.79799C4.76058 9.83515 4.72099 9.86975 4.6786 9.90053L7.0995 12.3214L7.20204 12.2023L13.202 6.20228C13.2395 6.16481 13.2794 6.12975 13.3222 6.09877L10.9013 3.67787C10.8703 3.72067 10.8352 3.7605 10.7977 3.79799Z" fill="#000000"/>
</svg>
