<svg xmlns="http://www.w3.org/2000/svg" width="20" height="20" viewBox="0 0 20 20" fill="none"><rect width="20" height="20" fill="none"/>
<path d="M14.5 4.41943V8.41846L18 10.4194V15.5796L13.5 18.1509L10 16.1509L6.5 18.1509L2 15.5796V10.4194L5.5 8.41846V4.41943L10 1.84814L14.5 4.41943ZM4 11.5796V14.4185L6.5 15.8472L9 14.4185V11.5796L6.5 10.1509L4 11.5796ZM11 11.5796V14.4185L13.5 15.8472L16 14.4185V11.5796L13.5 10.1509L11 11.5796ZM7.5 5.57959V8.41846L10 9.84717L12.5 8.41846V5.57959L10 4.15088L7.5 5.57959Z" fill="#000000"/>
</svg>
