<svg xmlns="http://www.w3.org/2000/svg" width="24" height="24" viewBox="0 0 24 24" fill="none"><rect width="24" height="24" fill="none"/>
<path d="M7.65098 6.24121C7.97045 6.51541 8.23562 6.91352 8.44004 7.2793C8.65642 7.66654 8.85554 8.11069 9.02012 8.55273C9.18458 8.99454 9.32271 9.45737 9.40781 9.88281C9.48598 10.2737 9.54587 10.7565 9.45566 11.1787C9.34919 11.677 9.08306 12.0845 8.87168 12.3701C8.76312 12.5168 8.64821 12.6567 8.5543 12.7725C8.59662 12.9013 8.66768 13.0638 8.77988 13.2578C8.98701 13.616 9.29 14.0031 9.64707 14.3623C10.0038 14.7211 10.3905 15.0283 10.7506 15.2412C10.9321 15.3485 11.0884 15.4195 11.2154 15.4658C11.3258 15.3687 11.4553 15.2556 11.5924 15.1475C11.8819 14.9192 12.2952 14.6368 12.8141 14.5264C13.2378 14.4362 13.7229 14.4978 14.1148 14.5771C14.5413 14.6635 15.0043 14.8035 15.4469 14.9697C15.8902 15.1362 16.3362 15.3379 16.7242 15.5566C17.0905 15.7632 17.4887 16.0303 17.7623 16.3525L17.9996 16.6328V18.3271C17.9996 20.2959 16.4866 22.2125 14.2691 22.0635C7.46956 21.6061 2.39251 16.5204 1.93613 9.73047C1.78716 7.51319 3.70421 6.00005 5.67246 6H7.3707L7.65098 6.24121ZM5.67246 8C4.59993 8.00005 3.87754 8.77899 3.93223 9.5957C4.32139 15.3878 8.60308 19.6781 14.4029 20.0684C15.2202 20.1233 15.9996 19.4 15.9996 18.3271V17.458C15.9301 17.4112 15.8451 17.3571 15.7418 17.2988C15.4587 17.1392 15.1091 16.979 14.7437 16.8418C14.378 16.7044 14.0182 16.598 13.7174 16.5371C13.5676 16.5068 13.4444 16.4904 13.3502 16.4844C13.2495 16.478 13.2157 16.4855 13.2301 16.4824C13.1633 16.4967 13.042 16.5512 12.8307 16.7178C12.7297 16.7974 12.6271 16.8868 12.5074 16.9922C12.3953 17.0909 12.2601 17.2115 12.1236 17.3203C11.9396 17.467 11.7094 17.5441 11.4742 17.5381C10.8557 17.5222 10.2451 17.2656 9.73301 16.9629C9.20281 16.6494 8.68359 16.2306 8.22812 15.7725C7.77275 15.3144 7.35693 14.7923 7.04844 14.2588C6.75069 13.7438 6.49965 13.1266 6.49961 12.5C6.49961 12.29 6.56622 12.0854 6.68906 11.915C6.79128 11.7733 6.90372 11.6336 6.99863 11.5166C7.09977 11.3919 7.18601 11.2864 7.26426 11.1807C7.42853 10.9587 7.4855 10.8313 7.50059 10.7607C7.4974 10.7757 7.50485 10.7427 7.49863 10.6416C7.49282 10.5475 7.47682 10.4241 7.44687 10.2744C7.38682 9.97434 7.28193 9.61591 7.14609 9.25098C7.0104 8.88647 6.85196 8.53767 6.69394 8.25488C6.63701 8.153 6.5836 8.06897 6.53769 8H5.67246Z" fill="#000000"/>
<path d="M11.9996 6C12.7874 6 13.5677 6.1556 14.2955 6.45703C15.0234 6.75853 15.6847 7.20074 16.2418 7.75781C16.7989 8.31493 17.241 8.9762 17.5426 9.7041C17.8441 10.432 17.9996 11.2121 17.9996 12H15.9996C15.9996 11.4748 15.8959 10.9549 15.6949 10.4697C15.4939 9.98447 15.1991 9.54328 14.8277 9.17188C14.4563 8.80052 14.0151 8.50568 13.5299 8.30469C13.0448 8.10384 12.5247 8 11.9996 8V6Z" fill="#000000"/>
<path d="M11.9996 2C13.3127 2 14.6136 2.25827 15.8268 2.76074C17.0399 3.26326 18.1424 4.00023 19.0709 4.92871C19.9994 5.85724 20.7363 6.95968 21.2389 8.17285C21.7414 9.38611 21.9996 10.6868 21.9996 12H19.9996C19.9996 10.9494 19.7923 9.90908 19.3902 8.93848C18.9882 7.968 18.3996 7.08556 17.6568 6.34277C16.9141 5.60003 16.0316 5.01138 15.0611 4.60938C14.0906 4.20742 13.0501 4 11.9996 4V2Z" fill="#000000"/>
</svg>
