<svg xmlns="http://www.w3.org/2000/svg" width="20" height="20" viewBox="0 0 20 20" fill="none"><rect width="20" height="20" fill="none"/>
<path d="M10.0205 1.78711C10.2728 1.78714 10.5224 1.79908 10.7676 1.82227C11.3316 1.87581 11.6996 2.28758 11.8096 2.71289C11.9159 3.12437 11.8054 3.61792 11.418 3.94629C10.5497 4.68151 10.001 5.77663 10.001 7.00098L10.0059 7.20703C10.1133 9.32032 11.8612 11.001 14.001 11.001L14.2695 10.9922C14.8916 10.9506 15.4735 10.7658 15.9854 10.4717C16.4259 10.2187 16.928 10.2826 17.2793 10.5234C17.6422 10.7725 17.9032 11.2588 17.7607 11.8066C16.8661 15.246 13.7421 17.7866 10.0205 17.7871C5.60223 17.7871 2.01953 14.2054 2.01953 9.78711C2.01982 5.36916 5.60232 1.78711 10.0205 1.78711ZM8.86426 3.89941C6.1041 4.43843 4.02073 6.86913 4.02051 9.78711C4.02051 13.1008 6.7068 15.7871 10.0205 15.7871L10.2803 15.7812C12.3491 15.6927 14.1467 14.5559 15.1553 12.8877C14.7818 12.961 14.3956 13.0009 14.001 13.001C10.6873 13.001 8.00129 10.3143 8.00098 7.00098C8.00098 5.86602 8.3169 4.80448 8.86426 3.89941Z" fill="#000000"/>
</svg>
