<svg xmlns="http://www.w3.org/2000/svg" width="20" height="20" viewBox="0 0 20 20" fill="none"><rect width="20" height="20" fill="none"/>
<g clip-path="url(#clip0_6898_1895)">
<path d="M16 10C19.1391 10.0001 20.9649 13.548 19.1406 16.1025L16.5039 19.7939C16.2569 20.1398 15.7431 20.1398 15.4961 19.7939L12.8594 16.1025C11.0349 13.548 12.8608 10 16 10ZM16 12C14.8954 12 14 12.8954 14 14C14 15.1046 14.8954 16 16 16C17.1046 16 18 15.1046 18 14C18 12.8954 17.1046 12 16 12Z" fill="#000000"/>
<path d="M11 2C12.6569 2 14 3.34315 14 5V6H15C16.6569 6 18 7.34315 18 9H16C16 8.44772 15.5523 8 15 8H5C4.44772 8 4 8.44772 4 9V15C4 15.5523 4.44772 16 5 16H10V18H5C3.34315 18 2 16.6569 2 15V9C2 7.34315 3.34315 6 5 6H6V5C6 3.34315 7.34315 2 9 2H11ZM9 4C8.44772 4 8 4.44772 8 5V6H12V5C12 4.44772 11.5523 4 11 4H9Z" fill="#000000"/>
</g>
<defs>
<clipPath id="clip0_6898_1895">
<rect width="20" height="20" fill="white"/>
</clipPath>
</defs>
</svg>
