<svg xmlns="http://www.w3.org/2000/svg" width="20" height="20" viewBox="0 0 20 20" fill="none"><rect width="20" height="20" fill="none"/>
<path d="M7.97394 2.28045C9.05261 1.06728 10.948 1.06721 12.0267 2.28045C12.415 2.71719 12.9347 3.01709 13.5071 3.13494C15.0972 3.46251 16.0461 5.10485 15.5345 6.64568L15.4739 6.85564C15.3531 7.34963 15.3733 7.86923 15.5345 8.35467C15.8517 9.31032 15.6062 10.3044 14.9954 11.0002H15.0003V17.0002C15.0002 17.33 14.8369 17.639 14.5648 17.8254C14.2928 18.0114 13.9463 18.0517 13.639 17.9328L10.1224 16.5676L6.34113 17.9406C6.03486 18.0516 5.69294 18.0063 5.42609 17.8195C5.15912 17.6324 5.00037 17.3262 5.00031 17.0002V11.0002H5.00421C4.39343 10.3044 4.14884 9.31037 4.46613 8.35467C4.6273 7.8693 4.6475 7.34957 4.52668 6.85564L4.46613 6.64568C3.97049 5.15288 4.84504 3.56454 6.34601 3.16912L6.49347 3.13494C6.99427 3.03176 7.45435 2.78924 7.8216 2.43768L7.97394 2.28045ZM13.0003 12.0236C12.63 12.1797 12.2965 12.4163 12.0267 12.7199L11.9241 12.8303C10.8665 13.897 9.13423 13.8968 8.07648 12.8303L7.97394 12.7199C7.70423 12.4165 7.37041 12.1797 7.00031 12.0236V15.5724L9.79328 14.5597L9.87921 14.5334C10.0825 14.4798 10.299 14.491 10.4964 14.5676L13.0003 15.5392V12.0236ZM10.5325 3.60955C10.2495 3.29106 9.75121 3.29112 9.46808 3.60955C8.79345 4.36843 7.89131 4.88909 6.89679 5.09393C6.47939 5.17984 6.23027 5.61136 6.36457 6.0158C6.6844 6.97948 6.68447 8.02088 6.36457 8.98455C6.23031 9.38898 6.47941 9.82051 6.89679 9.90643C7.89128 10.1113 8.79346 10.6319 9.46808 11.3908C9.75124 11.709 10.2495 11.7092 10.5325 11.3908C11.2072 10.6319 12.1092 10.1112 13.1038 9.90643C13.5209 9.82035 13.7701 9.38878 13.6361 8.98455C13.3161 8.0208 13.3161 6.97956 13.6361 6.0158C13.7703 5.6115 13.521 5.18006 13.1038 5.09393C12.1093 4.88917 11.2072 4.36835 10.5325 3.60955Z" fill="#000000"/>
</svg>
