<svg xmlns="http://www.w3.org/2000/svg" width="24" height="24" viewBox="0 0 24 24" fill="none"><rect width="24" height="24" fill="none"/>
<path d="M5.5 2.49997C9.77712 1.51295 14.2229 1.51295 18.5 2.49997L18.4189 4.66892L22 5.11716V8.99997C22 11.2091 20.2091 13 18 13H17.7646C17.2338 14.2153 16.2356 15.1755 15 15.6582V18C15 19.1045 15.8954 20 17 20H18V22H6V20H7C8.10457 20 9 19.1045 9 18V15.6582C7.76439 15.1753 6.76527 14.2155 6.23438 13H6C3.79086 13 2 11.2091 2 8.99997V5.11716L5.58008 4.66892L5.5 2.49997ZM11 18C11 18.7287 10.8044 19.4115 10.4639 20H13.5361C13.1956 19.4115 13 18.7287 13 18V16H11V18ZM16.4375 4.12888C13.4992 3.63755 10.4998 3.63745 7.56152 4.12888L7.82031 11.1113C7.88019 12.7237 9.20481 14 10.8184 14H13.1816C14.7952 14 16.1198 12.7237 16.1797 11.1113L16.4375 4.12888ZM4 6.88181V8.99997C4 10.0416 4.79646 10.8951 5.81348 10.9892L5.6543 6.67478L4 6.88181ZM18.1855 10.9892C19.203 10.8955 20 10.0419 20 8.99997V6.88181L18.3447 6.67478L18.1855 10.9892Z" fill="#000000"/>
</svg>
