<svg xmlns="http://www.w3.org/2000/svg" width="20" height="20" viewBox="0 0 20 20" fill="none"><rect width="20" height="20" fill="none"/>
<path d="M12 5C12 3.34315 10.6569 2 9 2H4V18H10V16H6V4H9C9.55228 4 10 4.44772 10 5V8H13C13.5523 8 14 8.44772 14 9H16C16 7.34315 14.6569 6 13 6H12V5Z" fill="#000000"/>
<path d="M15.0001 19C19.497 17.501 19.0008 12.5069 19.0001 12.5L15.0001 11L11.0001 12.5L10.9874 12.7178C10.9544 13.6604 11.0549 17.4065 14.5928 18.8496L15.0001 19ZM13.2257 14.6055C13.1478 14.3495 13.0936 14.0981 13.0567 13.8643L15.0001 13.1357L16.9415 13.8643C16.9046 14.098 16.8524 14.3496 16.7745 14.6055C16.5174 15.4501 16.0285 16.294 15.0001 16.833C13.9717 16.2941 13.4828 15.4502 13.2257 14.6055Z" fill="#000000"/>
</svg>
