<svg xmlns="http://www.w3.org/2000/svg" width="20" height="20" viewBox="0 0 20 20" fill="none"><rect width="20" height="20" fill="none"/>
<path d="M8 3.81445C5.38889 4.6581 3.5 7.10807 3.5 10C3.50004 13.5898 6.41018 16.5 10 16.5C12.8919 16.5 15.3419 14.6111 16.1855 12H17.748C16.8599 15.4504 13.7277 18 10 18C5.58175 18 2.00004 14.4182 2 10C2 6.27232 4.54955 3.14004 8 2.25195V3.81445Z" fill="#000000"/>
<path d="M10 2C11.0506 2 12.0909 2.20734 13.0615 2.60938C14.0321 3.01141 14.9144 3.59995 15.6572 4.34277C16.4 5.08559 16.9886 5.96795 17.3906 6.93848C17.7927 7.90908 18 8.94943 18 10H10V2ZM11.5 8.5H16.3232C16.2435 8.16375 16.1377 7.83346 16.0049 7.5127C15.6782 6.72408 15.2003 6.0069 14.5967 5.40332C13.9931 4.79974 13.2759 4.32177 12.4873 3.99512C12.1665 3.86222 11.8363 3.75555 11.5 3.67578V8.5Z" fill="#000000"/>
</svg>
