<svg xmlns="http://www.w3.org/2000/svg" width="24" height="24" viewBox="0 0 24 24" fill="none"><rect width="24" height="24" fill="none"/>
<path d="M10.0488 2.19161C12.3179 1.74027 14.6735 2.08935 16.7139 3.17989C18.7542 4.27047 20.3539 6.03468 21.2393 8.17208C22.1246 10.3095 22.2409 12.6887 21.5693 14.9025C20.8977 17.1162 19.4791 19.0285 17.5557 20.3137C15.632 21.5989 13.3219 22.1781 11.0195 21.9514C9.08855 21.7611 7.26456 21.0119 5.76074 19.8107L5.13574 20.5949C5.0208 20.7389 4.83643 20.8078 4.65527 20.7746C4.47404 20.7412 4.3247 20.6113 4.26855 20.4357L3.17285 17.0002C3.12209 16.841 3.15451 16.6669 3.25879 16.5363C3.36311 16.4059 3.52594 16.3355 3.69238 16.3498L7.28418 16.6594C7.4679 16.6752 7.62842 16.7917 7.70117 16.9611C7.77344 17.1304 7.7467 17.3261 7.63184 17.4699L7.00879 18.2492C8.21183 19.2099 9.67119 19.809 11.2158 19.9611C13.0577 20.1425 14.9054 19.6788 16.4443 18.6506C17.9832 17.6224 19.118 16.0925 19.6553 14.3215C20.1925 12.5504 20.0989 10.6476 19.3906 8.9377C18.6823 7.22787 17.4037 5.81601 15.7715 4.94356C14.1393 4.07113 12.2546 3.79154 10.4395 4.15255C8.62424 4.51365 6.98956 5.49335 5.81543 6.92403C4.64146 8.35469 4 10.1485 4 11.9992H2C2 9.68587 2.80206 7.4438 4.26953 5.65548C5.73714 3.86719 7.77991 2.64303 10.0488 2.19161Z" fill="#000000"/>
<path d="M14.5 13.0002C15.3284 13.0002 16 13.6718 16 14.5002C15.9999 15.3286 15.3284 16.0002 14.5 16.0002C13.6716 16.0002 13.0001 15.3286 13 14.5002C13 13.6718 13.6716 13.0002 14.5 13.0002Z" fill="#000000"/>
<path d="M15.707 9.70723L9.70703 15.7072L8.29297 14.2932L14.293 8.29317L15.707 9.70723Z" fill="#000000"/>
<path d="M9.70703 8.20723C10.5355 8.20723 11.207 8.87881 11.207 9.70723C11.207 10.5356 10.5354 11.2072 9.70703 11.2072C8.87865 11.2072 8.20706 10.5356 8.20703 9.70723C8.20703 8.87883 8.87863 8.20727 9.70703 8.20723Z" fill="#000000"/>
</svg>
