<svg xmlns="http://www.w3.org/2000/svg" width="24" height="24" viewBox="0 0 24 24" fill="none"><rect width="24" height="24" fill="none"/>
<path d="M20 14.9999C19.9999 17.209 18.2091 18.9999 16 18.9999H10V20.4999C9.99996 20.6816 9.90114 20.8493 9.74219 20.9374C9.58334 21.0253 9.38936 21.0199 9.23535 20.9237L5.23535 18.4237C5.08919 18.3324 5.00003 18.1723 5 17.9999C5 17.8275 5.08919 17.6674 5.23535 17.5761L9.23535 15.0761C9.38938 14.9799 9.58331 14.9745 9.74219 15.0624C9.90114 15.1505 10 15.3182 10 15.4999V16.9999H16C17.1045 16.9999 17.9999 16.1044 18 14.9999V10.9999H20V14.9999Z" fill="#000000"/>
<path d="M15.2578 3.0624C15.4167 2.97445 15.6106 2.97989 15.7646 3.07607L19.7646 5.57607C19.9108 5.66744 20 5.82752 20 5.9999C20 6.17226 19.9108 6.33238 19.7646 6.42373L15.7646 8.92373C15.6106 9.01987 15.4167 9.02532 15.2578 8.9374C15.0989 8.8493 15 8.68162 15 8.4999V6.9999H8C6.89543 6.9999 6 7.89533 6 8.9999V12.9999H4V8.9999C4 6.79076 5.79086 4.9999 8 4.9999H15V3.4999C15 3.31815 15.0989 3.15052 15.2578 3.0624Z" fill="#000000"/>
</svg>
