<svg xmlns="http://www.w3.org/2000/svg" width="20" height="20" viewBox="0 0 20 20" fill="none"><rect width="20" height="20" fill="none"/>
<path d="M10.793 10.792C11.0606 10.5246 11.4574 10.4314 11.8164 10.5508L19.3164 13.0508C19.7097 13.182 19.9812 13.5429 19.999 13.957C20.0163 14.3717 19.7749 14.7543 19.3936 14.918L16.2617 16.2598L14.9189 19.3926C14.7554 19.7741 14.3728 20.0153 13.958 19.9981C13.5437 19.9805 13.183 19.7089 13.0518 19.3154L10.5518 11.8154C10.4325 11.4564 10.5255 11.0596 10.793 10.792ZM14.1162 16.1885L14.7393 14.7373L16.1895 14.1153L13.0801 13.0791L14.1162 16.1885Z" fill="#000000"/>
<path d="M10.7588 2.37404C12.745 1.47139 14.9999 2.92379 15 5.10549V5.99904C16.6568 5.99904 17.9999 7.34227 18 8.99904V10H16V8.99904C15.9999 8.44684 15.5522 7.99904 15 7.99904H5C4.44777 7.99904 4.0001 8.44684 4 8.99904V14.999C4.00012 15.5512 4.44779 15.999 5 15.999H10V17.999H5C3.34322 17.999 2.00012 16.6558 2 14.999V8.28713C2.00007 7.1108 2.68791 6.04249 3.75879 5.55568L10.7588 2.37404ZM13 5.10549C12.9999 4.37832 12.248 3.89349 11.5859 4.19435L7.61621 5.99904H13V5.10549Z" fill="#000000"/>
</svg>
