<svg xmlns="http://www.w3.org/2000/svg" width="20" height="20" viewBox="0 0 20 20" fill="none"><rect width="20" height="20" fill="none"/>
<path d="M18 17.0006H2V15.0006H18V17.0006Z" fill="#000000"/>
<path d="M13.9443 2.50251C14.2283 2.48678 14.5059 2.5924 14.707 2.79353L18 6.0865V13.0006H3C2.61393 13.0006 2.26231 12.7779 2.09668 12.4293C1.93135 12.0804 1.98142 11.6667 2.22559 11.3677L7.35254 5.10212L9.84375 7.09431L13.2188 2.87556L13.29 2.79646C13.4633 2.6217 13.6961 2.51636 13.9443 2.50251ZM10.1562 9.90583L7.64648 7.899L5.11035 11.0006H16V6.91462L14.083 4.99763L10.1562 9.90583Z" fill="#000000"/>
</svg>
