<svg xmlns="http://www.w3.org/2000/svg" width="20" height="20" viewBox="0 0 20 20" fill="none"><rect width="20" height="20" fill="none"/>
<path d="M9.99976 6.24976C10.9942 6.24976 11.9479 6.64525 12.6511 7.34839C13.3543 8.0516 13.7497 9.00527 13.7498 9.99976L13.7449 10.1853C13.7018 11.0554 13.3567 11.8834 12.7693 12.5271L13.7351 17.3523C13.7913 17.6332 13.6824 17.9216 13.4548 18.0955C13.2273 18.2692 12.9209 18.2985 12.6648 18.1707L9.99976 16.8376L7.33472 18.1707C7.0786 18.2985 6.77218 18.2692 6.54468 18.0955C6.31722 17.9216 6.20825 17.6331 6.2644 17.3523L7.22925 12.5251C6.60114 11.8361 6.24976 10.9363 6.24976 9.99976C6.24981 9.00527 6.64517 8.0516 7.34839 7.34839C8.0516 6.64517 9.00527 6.24981 9.99976 6.24976ZM11.4275 13.4656C11.035 13.6273 10.6155 13.7236 10.1853 13.7449L9.99976 13.7498C9.50472 13.7497 9.01995 13.6517 8.57104 13.4666L8.03589 16.1433L9.66479 15.3289L9.74487 15.2947C9.93666 15.2253 10.15 15.2367 10.3347 15.3289L11.9636 16.1433L11.4275 13.4656ZM9.99976 7.74976C9.40309 7.74981 8.83085 7.98703 8.40894 8.40894C7.98703 8.83085 7.74981 9.40309 7.74976 9.99976C7.74976 10.5964 7.9871 11.1686 8.40894 11.5906C8.83085 12.0125 9.40309 12.2497 9.99976 12.2498L10.2224 12.239C10.7374 12.1878 11.2214 11.9597 11.5906 11.5906C12.0125 11.1686 12.2498 10.5965 12.2498 9.99976L12.239 9.7771C12.1878 9.26219 11.9597 8.77804 11.5906 8.40894C11.1686 7.9871 10.5964 7.74976 9.99976 7.74976Z" fill="#000000"/>
<path d="M15.2996 1.94995C16.8183 1.94996 18.0495 3.18123 18.0496 4.69995V12.2996C18.0495 13.8183 16.8183 15.0496 15.2996 15.0496H14.9998V13.5496H15.2996C15.9899 13.5496 16.5495 12.9899 16.5496 12.2996V4.69995C16.5495 4.00965 15.9899 3.44996 15.2996 3.44995H4.69995C4.0096 3.44995 3.44996 4.0096 3.44995 4.69995V12.2996C3.44997 12.9899 4.0096 13.5496 4.69995 13.5496H4.99976V15.0496H4.69995C3.18118 15.0496 1.94997 13.8183 1.94995 12.2996V4.69995C1.94996 3.18118 3.18118 1.94995 4.69995 1.94995H15.2996Z" fill="#000000"/>
</svg>
