<svg xmlns="http://www.w3.org/2000/svg" width="24" height="24" viewBox="0 0 24 24" fill="none"><rect width="24" height="24" fill="none"/>
<path d="M15.0007 22.0002H4.00065V20.0002H15.0007V22.0002Z" fill="#000000"/>
<path d="M12.4548 1.01191C12.7325 0.966839 13.0147 1.04145 13.2331 1.21308L13.3219 1.29218L18.7067 6.67695C18.9339 6.90419 19.0384 7.22696 18.987 7.54414C18.9354 7.86134 18.7344 8.13479 18.4469 8.27851L17.8053 8.59882C17.6131 8.69495 17.4378 8.82185 17.2858 8.97382L14.8366 11.4221L21.7067 18.2922L20.2926 19.7062L13.4225 12.8361L10.9743 15.2844C10.8222 15.4364 10.6954 15.6126 10.5993 15.8049L10.279 16.4465C10.1352 16.734 9.86188 16.935 9.5446 16.9865C9.22736 17.038 8.90468 16.9335 8.67741 16.7062L3.29264 11.3215C3.06561 11.0942 2.96095 10.7714 3.01237 10.4543C3.06394 10.1373 3.26519 9.86464 3.55241 9.72089L4.19401 9.3996C4.3861 9.3035 4.56166 9.17648 4.71354 9.0246L11.0251 2.71308C11.1771 2.56109 11.3039 2.38581 11.4001 2.19355L11.7204 1.55195C11.8641 1.26456 12.1376 1.06345 12.4548 1.01191ZM12.8493 3.64667C12.7257 3.81716 12.5885 3.97776 12.4391 4.12714L6.1276 10.4387C5.9786 10.5877 5.81811 10.7245 5.64811 10.8478L9.15104 14.3508C9.2745 14.1806 9.41105 14.0195 9.56022 13.8703L15.8717 7.55878C16.021 7.40959 16.1819 7.27307 16.3522 7.1496L12.8493 3.64667Z" fill="#000000"/>
</svg>
