<svg xmlns="http://www.w3.org/2000/svg" width="24" height="24" viewBox="0 0 24 24" fill="none"><rect width="24" height="24" fill="none"/>
<path d="M19.3635 5.0202L6.16333 20.6208L4.63599 19.3288L17.8362 3.72919L19.3635 5.0202Z" fill="#000000"/>
<path d="M16.8 13.5749C18.6776 13.5751 20.1994 15.0977 20.1995 16.9753C20.1993 18.8527 18.6775 20.3745 16.8 20.3747C14.9226 20.3745 13.3999 18.8527 13.3997 16.9753C13.3997 15.0977 14.9225 13.5751 16.8 13.5749ZM16.8 15.5749C16.0271 15.5751 15.3997 16.2023 15.3997 16.9753C15.3999 17.7482 16.0272 18.3745 16.8 18.3747C17.5729 18.3745 18.1993 17.7482 18.1995 16.9753C18.1994 16.2023 17.573 15.5751 16.8 15.5749Z" fill="#000000"/>
<path d="M7.20044 3.97528C9.07803 3.97549 10.5999 5.49803 10.5999 7.37567C10.5995 9.253 9.07781 10.7749 7.20044 10.7751C5.32289 10.7751 3.80041 9.25313 3.80005 7.37567C3.80005 5.4979 5.32267 3.97528 7.20044 3.97528ZM7.20044 5.97528C6.42724 5.97528 5.80005 6.60247 5.80005 7.37567C5.80041 8.14856 6.42746 8.77509 7.20044 8.77509C7.97324 8.77487 8.59949 8.14843 8.59985 7.37567C8.59985 6.6026 7.97346 5.97549 7.20044 5.97528Z" fill="#000000"/>
</svg>
