<svg xmlns="http://www.w3.org/2000/svg" width="24" height="24" viewBox="0 0 24 24" fill="none"><rect width="24" height="24" fill="none"/>
<path d="M5.5 5H4V9.5C4 11.433 5.567 13 7.5 13C9.433 13 11 11.433 11 9.5V5H9.5V3H13V9.5C13 12.1829 11.0787 14.4152 8.53711 14.9004C8.82746 17.2685 10.8586 19.0949 13.3057 19.0664C15.9071 19.0359 18 16.9181 18 14.3164V13.8535C16.5545 13.4231 15.5 12.0854 15.5 10.5C15.5 8.567 17.067 7 19 7C20.933 7 22.5 8.567 22.5 10.5C22.5 12.0854 21.4455 13.4231 20 13.8535V14.3164C20 18.0135 17.0259 21.0231 13.3291 21.0664C9.77147 21.1079 6.83146 18.3904 6.52734 14.9121C3.95389 14.4527 2 12.2055 2 9.5V3H5.5V5ZM19 9C18.1716 9 17.5 9.67157 17.5 10.5C17.5 11.3284 18.1716 12 19 12C19.8284 12 20.5 11.3284 20.5 10.5C20.5 9.67157 19.8284 9 19 9Z" fill="#000000"/>
</svg>
