<svg xmlns="http://www.w3.org/2000/svg" width="20" height="20" viewBox="0 0 20 20" fill="none"><rect width="20" height="20" fill="none"/>
<path d="M16.25 15H17.5L17.5684 15.0049C17.7252 15.0266 17.8643 15.1218 17.9404 15.2637C18.0274 15.4262 18.0182 15.624 17.916 15.7773L15.916 18.7773C15.8233 18.9164 15.6671 18.9999 15.5 19C15.3329 19 15.1767 18.9164 15.084 18.7773L13.084 15.7773C12.9817 15.6239 12.9726 15.4263 13.0596 15.2637C13.1467 15.1014 13.3158 15 13.5 15H14.75V12H16.25V15Z" fill="#000000"/>
<path d="M8.7002 1.9502C10.2189 1.9503 11.4502 3.18148 11.4502 4.7002V5.9502H13.2998C14.8186 5.9502 16.0498 7.18141 16.0498 8.7002V10H14.5498V8.7002C14.5498 8.00984 13.9902 7.4502 13.2998 7.4502H9.9502V4.7002C9.9502 4.00991 9.39046 3.4503 8.7002 3.4502H5.4502V16.5498H11V18.0498H3.9502V1.9502H8.7002Z" fill="#000000"/>
</svg>
