<svg xmlns="http://www.w3.org/2000/svg" width="20" height="20" viewBox="0 0 20 20" fill="none"><rect width="20" height="20" fill="none"/>
<path d="M10.8202 2.91895C12.0178 4.59544 13.1755 5.62699 14.2343 6.75195C15.2809 7.86397 16.1932 9.04286 16.4921 10.8359C17.1015 14.4933 14.0742 18 10.0058 18C5.93767 17.9998 2.90989 14.4933 3.51943 10.8359C3.81828 9.04287 4.73163 7.86396 5.77822 6.75195C6.83702 5.62701 7.99475 4.59545 9.19229 2.91895L10.0058 1.7793L10.8202 2.91895ZM10.0058 5.13867C8.97544 6.39819 7.98022 7.33048 7.23428 8.12305C6.28102 9.13589 5.69328 9.95735 5.49209 11.1641C5.10154 13.5063 7.07404 15.9998 10.0058 16C12.9376 16 14.9099 13.5066 14.5194 11.1641C14.3182 9.95746 13.7314 9.13579 12.7782 8.12305C12.0322 7.33042 11.0362 6.39834 10.0058 5.13867Z" fill="#000000"/>
</svg>
