<svg xmlns="http://www.w3.org/2000/svg" width="20" height="20" viewBox="0 0 20 20" fill="none"><rect width="20" height="20" fill="none"/>
<path d="M6.73391 4.55762C7.15267 4.91704 7.64853 5.64866 8.00637 6.32324C8.19243 6.67402 8.36157 7.04757 8.47512 7.39648C8.57736 7.71076 8.67836 8.13292 8.59622 8.51855C8.50293 8.95509 8.21224 9.33189 8.01516 9.57031C7.90724 9.70085 7.7908 9.83256 7.70071 9.93555C7.68948 9.94839 7.67895 9.96156 7.66848 9.97363C7.70501 10.0967 7.76937 10.2532 7.87649 10.4385C8.05535 10.7478 8.31484 11.08 8.61965 11.3867C8.92445 11.6933 9.257 11.9568 9.5679 12.1406C9.74503 12.2453 9.89735 12.3111 10.02 12.3516C10.028 12.3443 10.0372 12.3376 10.0454 12.3301C10.1513 12.2324 10.2801 12.1125 10.4136 11.999C10.6576 11.7917 11.0349 11.4983 11.481 11.4033C11.8661 11.3214 12.2877 11.4214 12.6031 11.5234C12.9524 11.6365 13.3262 11.8053 13.6773 11.9912C14.3513 12.3481 15.0836 12.8446 15.4439 13.2686L15.6226 13.4785V14.3877C15.6226 16.2046 14.2538 17.9716 12.2329 17.8555C6.53852 17.5282 2.47132 13.461 2.14407 7.7666C2.02828 5.74599 3.79506 4.377 5.61184 4.37695H6.52297L6.73391 4.55762ZM5.61184 5.87695C4.44312 5.877 3.58629 6.72079 3.64114 7.68066C3.92472 12.6143 7.38524 16.0748 12.3189 16.3584C13.279 16.4136 14.1226 15.5566 14.1226 14.3877V14.0674C13.8749 13.8568 13.4554 13.5707 12.9751 13.3164C12.6739 13.1569 12.3829 13.0284 12.1411 12.9502C11.8655 12.861 11.7684 12.8755 11.7935 12.8701C11.7469 12.88 11.618 12.943 11.3843 13.1416C11.279 13.2311 11.1758 13.3277 11.062 13.4326C10.9554 13.5309 10.8312 13.6447 10.7115 13.7402C10.5735 13.85 10.4014 13.9078 10.2251 13.9033C9.7269 13.8905 9.22906 13.6828 8.80422 13.4316C8.36592 13.1725 7.93488 12.8253 7.55618 12.4443C7.17757 12.0635 6.83257 11.6303 6.57766 11.1895C6.33085 10.7625 6.12847 10.2591 6.12844 9.75488C6.1286 9.59765 6.17806 9.44394 6.27004 9.31641C6.36283 9.18782 6.4741 9.05784 6.57083 8.94727C6.67537 8.82776 6.76864 8.72441 6.85891 8.61523C7.05844 8.37385 7.12048 8.2469 7.12942 8.20508C7.12363 8.23215 7.13827 8.13673 7.04836 7.86035C6.96971 7.61879 6.84098 7.32768 6.68118 7.02637C6.42666 6.54657 6.13978 6.12606 5.92922 5.87695H5.61184Z" fill="#000000"/>
<path d="M10.0005 5C10.6569 5.00006 11.3072 5.12969 11.9136 5.38086C12.5201 5.63213 13.0715 6.00065 13.5357 6.46484C13.9999 6.92909 14.3684 7.48038 14.6197 8.08691C14.8708 8.69344 15.0005 9.34352 15.0005 10H13.5005C13.5005 9.54043 13.4098 9.08475 13.2339 8.66016C13.0581 8.23579 12.7999 7.85023 12.4751 7.52539C12.1503 7.2006 11.7647 6.94249 11.3404 6.7666C10.9159 6.59077 10.46 6.50006 10.0005 6.5V5Z" fill="#000000"/>
<path d="M10.0005 2C11.0509 2.00006 12.0916 2.2074 13.062 2.60938C14.0324 3.01141 14.915 3.60006 15.6577 4.34277C16.4004 5.08554 16.9891 5.96805 17.3911 6.93848C17.7931 7.90903 18.0005 8.94949 18.0005 10H16.5005C16.5005 9.14647 16.332 8.30126 16.0054 7.5127C15.6788 6.72418 15.2007 6.00685 14.5972 5.40332C13.9937 4.79984 13.2763 4.32177 12.4878 3.99512C11.6993 3.66852 10.8539 3.50006 10.0005 3.5V2Z" fill="#000000"/>
</svg>
