<svg xmlns="http://www.w3.org/2000/svg" width="24" height="24" viewBox="0 0 24 24" fill="none"><rect width="24" height="24" fill="none"/>
<path d="M16.7928 2.79303C18.0117 1.57415 19.9879 1.57425 21.2069 2.79303C22.4258 4.01197 22.4258 5.98814 21.2069 7.20709L16.7069 11.7071C16.3163 12.0976 15.6833 12.0976 15.2928 11.7071L14.4998 10.9141L11.9139 13.5001L14.7069 16.293C14.9485 16.5347 15.0504 16.8832 14.9764 17.2169C14.9023 17.5504 14.6627 17.8227 14.3416 17.9395L3.34163 21.9395C2.97651 22.0723 2.56751 21.9818 2.2928 21.7071C2.0182 21.4324 1.92763 21.0233 2.06038 20.6583L6.06038 9.65826L6.11116 9.54205C6.24614 9.28014 6.49119 9.08832 6.78304 9.0235C7.11662 8.94949 7.4652 9.05147 7.70686 9.29303L10.4998 12.086L13.0858 9.50006L12.2928 8.70709C11.9024 8.31655 11.9023 7.6835 12.2928 7.29303L16.7928 2.79303ZM4.67073 19.3282L12.1825 16.5967L7.40218 11.8165L4.67073 19.3282ZM19.7928 4.20709C19.3549 3.76936 18.6447 3.76926 18.2069 4.20709L14.4139 8.00006L15.9998 9.586L19.7928 5.79303C20.2307 5.35512 20.2307 4.64499 19.7928 4.20709Z" fill="#000000"/>
</svg>
