<svg xmlns="http://www.w3.org/2000/svg" width="20" height="20" viewBox="0 0 20 20" fill="none"><rect width="20" height="20" fill="none"/>
<path d="M13 10.75C13.6904 10.75 14.25 11.3096 14.25 12C14.25 12.6904 13.6904 13.25 13 13.25C12.3096 13.25 11.75 12.6904 11.75 12C11.75 11.3096 12.3096 10.75 13 10.75Z" fill="#000000"/>
<path d="M11.3643 2.76562C13.157 2.11679 15.0498 3.4449 15.0498 5.35156V5.95019H15.2998C16.8186 5.95019 18.0498 7.18141 18.0498 8.70019V15.2998C18.0497 16.8185 16.8185 18.0498 15.2998 18.0498H4.7002C3.18148 18.0498 1.95031 16.8185 1.9502 15.2998V8.10254C1.95035 6.94506 2.67542 5.91182 3.76367 5.51757L11.3643 2.76562ZM4.7002 7.45019C4.00984 7.45019 3.4502 8.00984 3.4502 8.70019V15.2998C3.45031 15.9901 4.00991 16.5498 4.7002 16.5498H15.2998C15.9901 16.5498 16.5497 15.9901 16.5498 15.2998V8.70019C16.5498 8.00984 15.9902 7.45019 15.2998 7.45019H4.7002ZM13.5498 5.35156C13.5498 4.48483 12.689 3.8807 11.874 4.17578L6.97363 5.95019H13.5498V5.35156Z" fill="#000000"/>
</svg>
