<svg xmlns="http://www.w3.org/2000/svg" width="24" height="24" viewBox="0 0 24 24" fill="none"><rect width="24" height="24" fill="none"/>
<path d="M10.9355 2.65348C13.4652 1.90948 16 3.80579 16 6.44254V7.00016H14V6.44254C14 5.14101 12.7486 4.2042 11.5 4.57145C10.0881 4.9869 9.62826 6.75753 10.6592 7.80778L12.623 9.80778L20.2744 14.3986C21.3449 15.0409 22 16.1981 22 17.4464C21.9998 19.409 20.4089 21 18.4463 21.0002H5.55371C3.59114 21 2.00019 19.409 2 17.4464C2 16.1981 2.65513 15.0409 3.72559 14.3986L10.3965 10.3947L9.23242 9.20914C7.14334 7.08155 8.07508 3.49523 10.9355 2.65348ZM4.75488 16.1134C4.28684 16.3943 4 16.9006 4 17.4464C4.00019 18.3044 4.69571 19 5.55371 19.0002H18.4463C19.3043 19 19.9998 18.3044 20 17.4464C20 16.9006 19.7132 16.3943 19.2451 16.1134L12 11.7658L4.75488 16.1134Z" fill="#000000"/>
</svg>
