<svg xmlns="http://www.w3.org/2000/svg" width="20" height="20" viewBox="0 0 20 20" fill="none"><rect width="20" height="20" fill="none"/>
<path d="M13.53 7.53027L11.0603 10L13.53 12.4697L12.4695 13.5303L9.99976 11.0605L7.53003 13.5303L6.46948 12.4697L8.93921 10L6.46948 7.53027L7.53003 6.46973L9.99976 8.93945L12.4695 6.46973L13.53 7.53027Z" fill="#000000"/>
<path d="M9.99976 1.7002C14.5837 1.7002 18.2995 5.41613 18.2996 10C18.2996 14.584 14.5837 18.2998 9.99976 18.2998C5.41588 18.2997 1.69995 14.5839 1.69995 10C1.70006 5.41619 5.41595 1.7003 9.99976 1.7002ZM9.99976 3.2002C6.24437 3.2003 3.20006 6.24462 3.19995 10C3.19995 13.7555 6.24431 16.7997 9.99976 16.7998C13.7553 16.7998 16.7996 13.7555 16.7996 10C16.7995 6.24455 13.7552 3.2002 9.99976 3.2002Z" fill="#000000"/>
</svg>
