<svg xmlns="http://www.w3.org/2000/svg" width="24" height="24" viewBox="0 0 24 24" fill="none"><rect width="24" height="24" fill="none"/>
<path fill-rule="evenodd" clip-rule="evenodd" d="M14.1142 15.5227C14.1126 15.5242 14.1132 15.5237 14.1132 15.5237L14.1142 15.5227Z" fill="#000000"/>
<path d="M18.2694 2.42602C15.6689 1.18383 12.4579 1.63822 10.3017 3.79418C8.85837 5.23775 8.01581 7.42553 8.50087 9.71118C8.51039 9.75602 8.50817 9.79317 8.50283 9.81469C8.50101 9.82186 8.49924 9.82663 8.49794 9.82934L3.15615 15.2307C1.61767 16.7865 1.62463 19.2929 3.17177 20.8401C4.72507 22.3934 7.24347 22.3934 8.79677 20.8401L14.1132 15.5237C14.1132 15.5237 14.1126 15.5242 14.1142 15.5227L14.1132 15.5237C14.1132 15.5237 14.1194 15.5203 14.1288 15.5178C14.148 15.5128 14.1806 15.5101 14.2206 15.5178C16.5353 15.9654 18.7436 15.1521 20.202 13.6936C22.358 11.5374 22.8114 8.32635 21.5692 5.72583L19.8788 5.54223L17.7333 8.29321C17.3638 8.76705 16.6632 8.81066 16.2382 8.38598L15.5077 7.65551C15.0709 7.21866 15.1301 6.49329 15.6327 6.13403L18.4198 4.14184L18.2694 2.42602ZM11.7167 5.20825C12.7621 4.16306 14.1556 3.67767 15.5253 3.75219L14.4696 4.50708C12.9618 5.58482 12.7822 7.759 14.0927 9.06958L14.8241 9.80004C16.0992 11.0748 18.2029 10.9448 19.3114 9.5227L20.2333 8.33911C20.3471 9.75047 19.8655 11.1998 18.787 12.2786C17.7674 13.2982 16.2207 13.8675 14.5995 13.554C13.9687 13.4322 13.233 13.5758 12.7001 14.1086L7.38271 19.426C6.61046 20.1983 5.35809 20.1983 4.58583 19.426C3.81666 18.6568 3.81313 17.4104 4.57802 16.637L9.91982 11.2366C10.4634 10.687 10.5927 9.93103 10.4579 9.29614C10.1296 7.74957 10.6933 6.23168 11.7167 5.20825Z" fill="#000000"/>
</svg>
