<svg xmlns="http://www.w3.org/2000/svg" width="24" height="24" viewBox="0 0 24 24" fill="none"><rect width="24" height="24" fill="none"/>
<path d="M13 5.05273C13.9637 5.16024 14.8327 5.43769 15.5254 5.94141C16.5002 6.65034 17 7.71706 17 9H15C15 8.28301 14.7498 7.84966 14.3496 7.55859C13.8999 7.23156 13.14 7 12 7C10.86 7 10.1001 7.23156 9.65039 7.55859C9.25024 7.84966 9 8.28301 9 9C9 9.32249 9.07727 9.53593 9.18164 9.69629C9.29235 9.86631 9.47188 10.0337 9.75391 10.1982C10.3554 10.5491 11.2006 10.7699 12.2422 11.0303C13.2004 11.2698 14.3555 11.5492 15.2539 12.0732C15.7217 12.3461 16.1674 12.7102 16.4941 13.2119C16.8272 13.7234 17 14.3226 17 15C17 16.9614 15.3415 18.565 13 18.9238V21H11V18.9463C10.0364 18.8388 9.16725 18.5623 8.47461 18.0586C7.49983 17.3497 7 16.2829 7 15H9C9 15.717 9.25024 16.1503 9.65039 16.4414C10.1001 16.7684 10.86 17 12 17C14.1447 17 15 15.7694 15 15C15 14.6775 14.9227 14.4641 14.8184 14.3037C14.7076 14.1337 14.5281 13.9663 14.2461 13.8018C13.6446 13.4509 12.7994 13.2301 11.7578 12.9697C10.7996 12.7302 9.6445 12.4508 8.74609 11.9268C8.27829 11.6539 7.83261 11.2898 7.50586 10.7881C7.17279 10.2766 7 9.67737 7 9C7 7.71706 7.49983 6.65034 8.47461 5.94141C9.16728 5.43769 10.0363 5.16024 11 5.05273V3H13V5.05273Z" fill="#000000"/>
</svg>
