<svg xmlns="http://www.w3.org/2000/svg" width="24" height="24" viewBox="0 0 24 24" fill="none"><rect width="24" height="24" fill="none"/>
<path d="M19 13C20.6569 13 22 14.3431 22 16V17.2695C22.5974 17.6153 23 18.26 23 19V21C23 22.1046 22.1046 23 21 23H17C15.8954 23 15 22.1046 15 21V19C15 18.2601 15.4027 17.6155 16 17.2695V16C16 14.3431 17.3431 13 19 13ZM17 21H21V19H17V21ZM19 15C18.4477 15 18 15.4477 18 16V17H20V16C20 15.4477 19.5523 15 19 15Z" fill="#000000"/>
<path d="M17 3C19.2091 3 21 4.79086 21 7V11H19V7C19 5.89543 18.1046 5 17 5H7C5.89543 5 5 5.89543 5 7V17C5 18.1046 5.89543 19 7 19H13V21H7C4.79086 21 3 19.2091 3 17V7C3 4.79086 4.79086 3 7 3H17Z" fill="#000000"/>
<path d="M13 17H7V15H13V17Z" fill="#000000"/>
<path d="M17.6641 8.24707L12.46 12.874L10.4473 10.8613L7.65039 13.2588L6.34961 11.7412L10.5527 8.1377L12.54 10.126L16.3359 6.75293L17.6641 8.24707Z" fill="#000000"/>
</svg>
