<svg xmlns="http://www.w3.org/2000/svg" width="24" height="24" viewBox="0 0 24 24" fill="none"><rect width="24" height="24" fill="none"/>
<path d="M12 18H6V16H12V18Z" fill="#000000"/>
<path d="M12 15H6V13H12V15Z" fill="#000000"/>
<path d="M18 11H12V9H18V11Z" fill="#000000"/>
<path d="M18 8H12V6H18V8Z" fill="#000000"/>
<path d="M18 2C20.2091 2 22 3.79086 22 6V18C22 20.2091 20.2091 22 18 22H6C3.79086 22 2 20.2091 2 18V6C2 3.79086 3.79086 2 6 2H18ZM6 4C4.89543 4 4 4.89543 4 6V18C4 19.1046 4.89543 20 6 20H18C19.1046 20 20 19.1046 20 18V6C20 4.89543 19.1046 4 18 4H6Z" fill="#000000"/>
</svg>
