<svg xmlns="http://www.w3.org/2000/svg" width="20" height="20" viewBox="0 0 20 20" fill="none"><rect width="20" height="20" fill="none"/>
<path d="M5 16C4.44772 16 4 15.5523 4 15V13H2V15C2 16.6569 3.34315 18 5 18H7V16H5Z" fill="#000000"/>
<path d="M15 18C16.6569 18 18 16.6569 18 15V13H16V15C16 15.5523 15.5523 16 15 16H13V18H15Z" fill="#000000"/>
<path d="M5 4H7V2H5C3.34315 2 2 3.34315 2 5V7H4V5C4 4.44772 4.44772 4 5 4Z" fill="#000000"/>
<path d="M18 5C18 3.34315 16.6569 2 15 2H13V4H15C15.5523 4 16 4.44772 16 5V7H18V5Z" fill="#000000"/>
<path d="M8 12H10V14H14V10H12V8H14V6H12V8H10V6H6V8H10V10H6V14H8V12ZM10 10H12V12H10V10Z" fill="#000000"/>
</svg>
