<svg xmlns="http://www.w3.org/2000/svg" width="24" height="24" viewBox="0 0 24 24" fill="none"><rect width="24" height="24" fill="none"/>
<path d="M14.7773 4C15.2129 4.00004 15.5985 4.28214 15.7304 4.69727L17.7314 11H20C20.4464 11 20.8392 11.2963 20.9619 11.7256L22.9619 18.7256C23.0479 19.0272 22.9876 19.3521 22.7988 19.6025C22.6099 19.853 22.3137 20 22 20H1.99997C1.68123 20 1.38168 19.8479 1.19333 19.5908C1.00501 19.3334 0.950352 19.0012 1.04685 18.6973L3.26951 11.6973L3.33005 11.5479C3.49819 11.2158 3.84151 11 4.22263 11H6.26853L8.26951 4.69727L8.33005 4.54785C8.49819 4.21583 8.84151 4 9.22263 4H14.7773ZM3.36716 18H10.6328L9.04587 13H4.95408L3.36716 18ZM13.3261 18H20.6738L19.2451 13H14.7549L13.3261 18ZM11.1445 13L11.9492 15.5352L12.6738 13H11.1445ZM8.36716 11H15.6328L14.0459 6H9.95407L8.36716 11Z" fill="#000000"/>
</svg>
