<svg xmlns="http://www.w3.org/2000/svg" width="20" height="20" viewBox="0 0 20 20" fill="none"><rect width="20" height="20" fill="none"/>
<path d="M18 16.4997H2.00001V14.9997H18V16.4997Z" fill="#000000"/>
<path d="M13.9434 2.75163C14.1508 2.73597 14.3559 2.8078 14.5088 2.94889L18 6.17155V12.9997H2.50001C2.20617 12.9996 1.93923 12.8276 1.81739 12.5602C1.6959 12.293 1.74105 11.9791 1.93361 11.7575L7.40626 5.46452L9.88282 7.44499L13.4141 3.03092L13.4658 2.97331C13.5924 2.84487 13.7618 2.76538 13.9434 2.75163ZM10.1172 9.55338L9.53126 9.08561L7.59278 7.53483L4.1465 11.4997H16.5V6.8278L14.083 4.59635L10.1172 9.55338Z" fill="#000000"/>
</svg>
