<svg xmlns="http://www.w3.org/2000/svg" width="20" height="20" viewBox="0 0 20 20" fill="none"><rect width="20" height="20" fill="none"/>
<path d="M2.5 4.82071L4.74166 8.78984V11.2095L2.5036 15.1706L2.5 4.82071Z" fill="#575EAA"/>
<path d="M11.1044 7.34513L13.2037 6.07015L17.5 6.06702L11.1044 9.94972V7.34513Z" fill="#DC195B"/>
<path d="M11.0927 4.79787L11.1044 10.0514L8.85822 8.6846V0.830078L11.0927 4.79787Z" fill="#FCB52E"/>
<path d="M17.5 6.06702L13.2037 6.07015L11.0927 4.79787L8.85822 0.830078L17.5 6.06702Z" fill="#F47733"/>
<path d="M11.1044 15.1929V12.6434L8.85868 11.3022V19.1634L11.1044 15.1929Z" fill="#60BB46"/>
<path d="M13.1987 13.9292L4.74166 8.78984L2.5 4.82071L17.4914 13.9242L13.1987 13.9292Z" fill="#108ACB"/>
<path d="M8.85868 19.1634L11.1044 15.1929L13.1987 13.9292L17.4914 13.9242L8.85868 19.1634Z" fill="#118442"/>
<path d="M2.5036 15.1706L8.87575 11.3022L6.73322 9.99989L4.74166 11.2095L2.5036 15.1706Z" fill="#9150A0"/>
</svg>
