<svg xmlns="http://www.w3.org/2000/svg" width="24" height="24" viewBox="0 0 24 24" fill="none"><rect width="24" height="24" fill="none"/>
<path d="M12.0001 2C13.2264 2.00005 14.3908 2.4522 15.1973 2.85547C15.6109 3.06228 15.9553 3.26918 16.1973 3.4248C16.3184 3.50267 16.4153 3.56847 16.4835 3.61621C16.5176 3.64008 16.545 3.65966 16.5645 3.67383C16.5742 3.68087 16.582 3.68704 16.588 3.69141C16.5908 3.69351 16.5938 3.69484 16.5958 3.69629L16.5977 3.69824L16.5997 3.69922C16.5965 3.7039 16.5533 3.76234 16.0001 4.5L16.5997 3.69922C16.8231 3.86687 16.967 4.1215 16.9952 4.39941C17.023 4.67738 16.9327 4.95519 16.7471 5.16406L13.754 8.53027L15.8536 9.23047C17.7057 9.8479 19.142 11.3283 19.7032 13.1982L20.4132 15.5635C21.375 18.7711 18.9729 21.9996 15.6241 22H8.37605C5.02713 21.9998 2.62515 18.7712 3.58698 15.5635L4.29694 13.1982C4.85813 11.3286 6.29375 9.84799 8.14558 9.23047L10.2452 8.53027L7.253 5.16406C7.06735 4.95517 6.97709 4.67748 7.00495 4.39941C7.03313 4.12155 7.17707 3.86784 7.40046 3.7002L8.00007 4.5C7.44063 3.7539 7.40283 3.70378 7.40046 3.7002L7.40437 3.69629C7.40625 3.69496 7.40948 3.69333 7.41218 3.69141C7.418 3.6871 7.42618 3.68069 7.43562 3.67383C7.45508 3.65971 7.4828 3.63991 7.51667 3.61621C7.58481 3.56853 7.68194 3.50251 7.8028 3.4248C8.04482 3.26926 8.38951 3.06212 8.8028 2.85547C9.60936 2.45227 10.7739 2.0001 12.0001 2ZM8.77839 11.1279C7.54375 11.5396 6.58608 12.5269 6.21198 13.7734L5.503 16.1377C4.92596 18.0623 6.36678 19.9998 8.37605 20H15.6241C17.6332 19.9996 19.0742 18.0622 18.4971 16.1377L17.7882 13.7734C17.4141 12.5269 16.4564 11.5396 15.2217 11.1279L12.0001 10.0537L8.77839 11.1279ZM12.0001 4C11.227 4.0001 10.3907 4.29793 9.69733 4.64453C9.64294 4.67173 9.58953 4.69952 9.53815 4.72656L12.0001 7.49414L14.461 4.72656C14.4097 4.69957 14.3571 4.67168 14.3028 4.64453C13.6095 4.29786 12.7733 4.00005 12.0001 4Z" fill="#000000"/>
</svg>
