<svg xmlns="http://www.w3.org/2000/svg" width="20" height="20" viewBox="0 0 20 20" fill="none"><rect width="20" height="20" fill="none"/>
<path d="M5.49976 10.95C7.4603 10.95 9.04946 12.5393 9.04956 14.4998C9.04956 16.4604 7.46037 18.0496 5.49976 18.0496C3.53923 18.0495 1.94995 16.4603 1.94995 14.4998C1.95006 12.5393 3.5393 10.9501 5.49976 10.95ZM5.49976 12.45C4.36773 12.4501 3.45006 13.3678 3.44995 14.4998C3.44995 15.6319 4.36766 16.5495 5.49976 16.5496C6.63194 16.5496 7.54956 15.632 7.54956 14.4998C7.54946 13.3677 6.63187 12.45 5.49976 12.45Z" fill="#000000"/>
<path d="M15.2498 13.7498H17.9998V15.2498H15.2498V17.9998H13.7498V15.2498H10.9998V13.7498H13.7498V10.9998H15.2498V13.7498Z" fill="#000000"/>
<path d="M5.49976 1.95C7.4603 1.95 9.04946 3.53928 9.04956 5.4998C9.04956 7.46041 7.46037 9.04961 5.49976 9.04961C3.53923 9.0495 1.94995 7.46035 1.94995 5.4998C1.95006 3.53935 3.5393 1.9501 5.49976 1.95ZM5.49976 3.45C4.36773 3.4501 3.45006 4.36777 3.44995 5.4998C3.44995 6.63192 4.36766 7.5495 5.49976 7.54961C6.63194 7.54961 7.54956 6.63199 7.54956 5.4998C7.54946 4.36771 6.63187 3.45 5.49976 3.45Z" fill="#000000"/>
<path d="M14.4998 1.95C16.4603 1.95 18.0495 3.53928 18.0496 5.4998C18.0496 7.46041 16.4604 9.04961 14.4998 9.04961C12.5392 9.0495 10.95 7.46035 10.95 5.4998C10.9501 3.53935 12.5393 1.9501 14.4998 1.95ZM14.4998 3.45C13.3677 3.4501 12.4501 4.36777 12.45 5.4998C12.45 6.63192 13.3677 7.5495 14.4998 7.54961C15.6319 7.54961 16.5496 6.63199 16.5496 5.4998C16.5495 4.36771 15.6319 3.45 14.4998 3.45Z" fill="#000000"/>
</svg>
