<svg xmlns="http://www.w3.org/2000/svg" width="20" height="20" viewBox="0 0 20 20" fill="none"><rect width="20" height="20" fill="none"/>
<path d="M12.9355 3.5498C13.8504 3.5498 14.7057 4.00482 15.2168 4.76367L17.9219 8.78125L18.0498 8.9707V13.7002C18.0496 15.2188 16.8185 16.4502 15.2998 16.4502H4.7002C3.18154 16.4502 1.95041 15.2188 1.9502 13.7002V8.9707L2.07812 8.78125L4.7832 4.76367C5.29425 4.00484 6.14958 3.54983 7.06445 3.5498H12.9355ZM3.4502 13.7002C3.45041 14.3904 4.00997 14.9502 4.7002 14.9502H15.2998C15.99 14.9502 16.5496 14.3904 16.5498 13.7002V9.9502H13.4639L12.6709 11.5352L12.4639 11.9502H7.53613L7.3291 11.5352L6.53613 9.9502H3.4502V13.7002ZM7.06445 5.0498C6.64862 5.04983 6.25963 5.25665 6.02734 5.60156L4.10938 8.4502H7.46387L7.6709 8.86523L8.46387 10.4502H11.5361L12.3291 8.86523L12.5361 8.4502H15.8906L13.9727 5.60156C13.7404 5.25663 13.3514 5.0498 12.9355 5.0498H7.06445Z" fill="#000000"/>
</svg>
