<svg xmlns="http://www.w3.org/2000/svg" width="24" height="24" viewBox="0 0 24 24" fill="none"><rect width="24" height="24" fill="none"/>
<path d="M2.45605 2.6611C2.74038 2.47682 3.09889 2.44863 3.4082 2.58688L22.4082 11.0869C22.7681 11.2479 23 11.6057 23 12C23 12.3943 22.7681 12.752 22.4082 12.9131L3.4082 21.4131C3.09889 21.5513 2.74037 21.5231 2.45605 21.3388C2.17178 21.1545 2.00001 20.8388 2 20.5V13.833L6.40039 12L2 10.167V3.49997C2 3.16114 2.17179 2.84547 2.45605 2.6611ZM4 8.83298L9.38477 11.0771C9.75729 11.2324 10 11.5963 10 12C9.99999 12.4036 9.75728 12.7675 9.38477 12.9228L4 15.166V18.956L19.5508 12L4 5.04294V8.83298Z" fill="#000000"/>
</svg>
