<svg xmlns="http://www.w3.org/2000/svg" width="20" height="20" viewBox="0 0 20 20" fill="none"><rect width="20" height="20" fill="none"/>
<path d="M8.0752 3.82814C8.72139 3.30778 9.52658 3.05285 10.418 3.28615C11.0847 3.46076 11.59 3.86051 11.9082 4.41603C12.215 4.9517 12.3258 5.58976 12.3125 6.2383C12.2858 7.53052 11.7657 9.06241 10.918 10.5059C10.1557 11.8038 9.08208 13.0994 7.76465 14.1319C7.95596 14.4438 8.16887 14.6382 8.38574 14.7393C8.66863 14.871 9.10269 14.9129 9.7832 14.6045C10.4769 14.2901 11.3636 13.6356 12.4551 12.4834C12.6661 12.2607 12.9923 12.1893 13.2773 12.3028C13.5625 12.4164 13.7499 12.6931 13.75 13C13.75 13.692 13.854 14.1623 13.9902 14.4395C14.1146 14.692 14.2251 14.7201 14.293 14.7266C14.4193 14.7385 14.7112 14.689 15.1963 14.334C15.668 13.9886 16.2426 13.4113 16.9033 12.5449L17.5 13L18.0967 13.4541C17.3862 14.3857 16.712 15.0834 16.083 15.544C15.4679 15.9943 14.8063 16.2822 14.1504 16.2197C13.4361 16.1517 12.9354 15.6932 12.6445 15.1026C12.5647 14.9404 12.4995 14.7641 12.4453 14.5772C11.7145 15.2206 11.0359 15.6832 10.4014 15.9707C9.44698 16.4031 8.54036 16.4669 7.75195 16.0996C7.22848 15.8556 6.829 15.452 6.52539 14.9766C5.18999 15.7564 3.66574 16.25 2 16.25V14.75C3.42116 14.75 4.74942 14.3043 5.9248 13.5879C5.75339 12.9762 5.65568 12.3044 5.61914 11.6182C5.51791 9.71605 5.87468 7.541 6.60547 5.8965C6.96993 5.0765 7.45348 4.32889 8.0752 3.82814ZM10.0381 4.73732C9.68266 4.64432 9.35761 4.72165 9.0166 4.99611C8.65098 5.29057 8.28914 5.80178 7.97656 6.5049C7.35327 7.90733 7.02702 9.84269 7.11719 11.5381C7.13764 11.9223 7.17987 12.2862 7.24121 12.6221C8.20129 11.7908 9.0129 10.7883 9.625 9.74611C10.3912 8.44131 10.7928 7.16225 10.8125 6.20802C10.8223 5.73365 10.7367 5.38853 10.6064 5.16115C10.4876 4.95389 10.3138 4.80953 10.0381 4.73732Z" fill="#000000"/>
</svg>
