<svg xmlns="http://www.w3.org/2000/svg" width="20" height="20" viewBox="0 0 20 20" fill="none"><rect width="20" height="20" fill="none"/>
<path d="M9.99976 15.0496H4.99976V13.5496H9.99976V15.0496Z" fill="#000000"/>
<path d="M9.99976 12.0496H4.99976V10.5496H9.99976V12.0496Z" fill="#000000"/>
<path d="M14.9998 9.45H9.99976V7.95H14.9998V9.45Z" fill="#000000"/>
<path d="M14.9998 6.45H9.99976V4.95H14.9998V6.45Z" fill="#000000"/>
<path d="M15.2996 1.95C16.8183 1.95 18.0496 3.18121 18.0496 4.7V15.2996C18.0496 16.8184 16.8183 18.0496 15.2996 18.0496H4.69995C3.18117 18.0496 1.94995 16.8184 1.94995 15.2996V4.7C1.94995 3.18121 3.18117 1.95 4.69995 1.95H15.2996ZM4.69995 3.45C4.00959 3.45 3.44995 4.00964 3.44995 4.7V15.2996C3.44995 15.99 4.0096 16.5496 4.69995 16.5496H15.2996C15.9899 16.5496 16.5496 15.99 16.5496 15.2996V4.7C16.5496 4.00964 15.9899 3.45 15.2996 3.45H4.69995Z" fill="#000000"/>
</svg>
