<svg xmlns="http://www.w3.org/2000/svg" width="20" height="20" viewBox="0 0 20 20" fill="none"><rect width="20" height="20" fill="none"/>
<path fill-rule="evenodd" clip-rule="evenodd" d="M10.8202 2.91895C12.0177 4.59544 13.1754 5.62699 14.2342 6.75195C15.2808 7.86397 16.1932 9.04286 16.492 10.8359C17.1014 14.4933 14.0742 18 10.0057 18C5.93761 17.9998 2.90983 14.4933 3.51937 10.8359C3.81822 9.04287 4.73157 7.86396 5.77816 6.75195C6.83696 5.62701 7.99469 4.59545 9.19222 2.91895L10.0057 1.7793L10.8202 2.91895ZM10.0057 5.13867C8.97538 6.39819 7.98016 7.33048 7.23422 8.12305C6.28096 9.13589 5.69321 9.95735 5.49203 11.1641C5.10148 13.5063 7.07398 15.9998 10.0057 16C12.9376 16 14.9098 13.5066 14.5194 11.1641C14.3182 9.95746 13.7313 9.13579 12.7782 8.12305C12.0322 7.33042 11.0361 6.39834 10.0057 5.13867Z" fill="#000000"/>
</svg>
