<svg xmlns="http://www.w3.org/2000/svg" width="20" height="20" viewBox="0 0 20 20" fill="none"><rect width="20" height="20" fill="none"/>
<path d="M16.25 15H17.5L17.5684 15.0049C17.7252 15.0266 17.8643 15.1218 17.9404 15.2637C18.0274 15.4262 18.0182 15.624 17.916 15.7773L15.916 18.7773C15.8233 18.9163 15.667 18.9999 15.5 19C15.333 18.9999 15.1767 18.9163 15.084 18.7773L13.084 15.7773C12.9818 15.624 12.9726 15.4262 13.0596 15.2637C13.1466 15.1015 13.3159 15.0001 13.5 15H14.75V12H16.25V15Z" fill="#000000"/>
<path d="M12 4H16V8L18 10H15.8789L14.5 8.62109V5.5H11.3789L10 4.12109L8.62109 5.5H5.5V8.62109L4.12109 10L5.5 11.3789V14.5H8.62109L10 15.8789V18L8 16H4V12L2 10L4 8V4H8L10 2L12 4Z" fill="#000000"/>
<path d="M13.0303 9.03027L9.5 12.5605L6.96973 10.0303L8.03027 8.96973L9.5 10.4395L11.9697 7.96973L13.0303 9.03027Z" fill="#000000"/>
</svg>
