<svg xmlns="http://www.w3.org/2000/svg" width="24" height="24" viewBox="0 0 24 24" fill="none"><rect width="24" height="24" fill="none"/>
<path d="M13.1133 10.2002C13.9678 8.7762 16.0322 8.7762 16.8867 10.2002L18.8574 13.4854L17.1426 14.5146L15.1719 11.2295C15.0942 11.1 14.9058 11.1 14.8281 11.2295L13.7148 13.085C12.938 14.3796 11.062 14.3796 10.2852 13.085L9.17188 11.2295C9.0942 11.1 8.90581 11.1 8.82812 11.2295L6.85742 14.5146L5.14258 13.4854L7.11328 10.2002C7.96779 8.7762 10.0322 8.7762 10.8867 10.2002L12 12.0566L13.1133 10.2002Z" fill="#000000"/>
<path d="M12 2C17.5228 2 22 6.47715 22 12C22 17.5228 17.5228 22 12 22C6.47715 22 2 17.5228 2 12C2 6.47715 6.47715 2 12 2ZM12 4C7.58172 4 4 7.58172 4 12C4 16.4183 7.58172 20 12 20C16.4183 20 20 16.4183 20 12C20 7.58172 16.4183 4 12 4Z" fill="#000000"/>
</svg>
