<svg xmlns="http://www.w3.org/2000/svg" width="20" height="20" viewBox="0 0 20 20" fill="none"><rect width="20" height="20" fill="none"/>
<path d="M12.5 4C12.9416 4 13.3311 4.28993 13.458 4.71289L14.7441 9H16.501L16.6631 9.01367C17.035 9.075 17.347 9.3429 17.458 9.71289L18.958 14.7129C19.0487 15.0155 18.9912 15.3432 18.8027 15.5967C18.6142 15.8501 18.3168 15.9997 18.001 16H10.1006V15.9941C10.0673 15.9975 10.0337 16 9.99998 16H1.99998C1.68393 15.9999 1.3859 15.8502 1.19724 15.5967C1.00888 15.3432 0.951326 15.0154 1.04197 14.7129L2.54197 9.71289C2.66885 9.28996 3.05844 9.00007 3.49998 9H5.25584L6.54197 4.71289C6.66885 4.28996 7.05844 4.00007 7.49998 4H12.5ZM9.84373 11L10.7441 14H16.6572L15.7568 11H9.84373ZM3.34373 14H8.65623L7.75584 11H4.24412L3.34373 14ZM7.34373 9H12.6562L11.7558 6H8.24412L7.34373 9Z" fill="#000000"/>
</svg>
