<svg xmlns="http://www.w3.org/2000/svg" width="24" height="24" viewBox="0 0 24 24" fill="none"><rect width="24" height="24" fill="none"/>
<path d="M20.665 14.1533C21.4762 14.3707 22.2101 14.8109 22.7842 15.4238C23.3583 16.0368 23.7492 16.7983 23.9131 17.6221C24.0769 18.4458 24.0077 19.299 23.7119 20.085C23.4161 20.871 22.9056 21.559 22.2393 22.0703C21.573 22.5815 20.7771 22.8962 19.9414 22.9785C19.1056 23.0608 18.263 22.9076 17.5098 22.5361C16.7565 22.1647 16.1222 21.5892 15.6787 20.876C15.2353 20.1628 15 19.3398 15 18.5H13.5L13.4326 18.4951C13.2776 18.474 13.1396 18.3813 13.0625 18.2422C12.9746 18.0833 12.98 17.8894 13.0762 17.7354L15.5762 13.7354C15.6675 13.5892 15.8276 13.5 16 13.5C16.1724 13.5 16.3325 13.5892 16.4238 13.7354L18.9238 17.7354C19.02 17.8894 19.0254 18.0833 18.9375 18.2422C18.8494 18.4012 18.6818 18.5 18.5 18.5H17C17 18.9666 17.1305 19.4241 17.377 19.8203C17.6234 20.2165 17.9761 20.5358 18.3945 20.7422C18.813 20.9485 19.2808 21.034 19.7451 20.9883C20.2094 20.9425 20.6514 20.7673 21.0215 20.4834C21.3916 20.1994 21.6755 19.8175 21.8398 19.3809C22.0042 18.9443 22.0431 18.4702 21.9521 18.0127C21.8611 17.555 21.6432 17.1316 21.3242 16.791C21.0054 16.4506 20.5979 16.2057 20.1475 16.085L20.665 14.1533Z" fill="#000000"/>
<path d="M12 2C13.6569 2 15 3.34314 15 5V7H17C18.6568 7 20 8.34317 20 10V12H18V10C18 9.44774 17.5523 9 17 9H13V5C13 4.44771 12.5523 4 12 4H6V20H12V22H4V2H12Z" fill="#000000"/>
</svg>
