<svg xmlns="http://www.w3.org/2000/svg" width="20" height="20" viewBox="0 0 20 20" fill="none"><rect width="20" height="20" fill="none"/>
<path d="M6.73385 4.55762C7.1526 4.91704 7.64847 5.64866 8.00631 6.32324C8.19236 6.67402 8.36151 7.04757 8.47506 7.39648C8.5773 7.71076 8.6783 8.13292 8.59616 8.51855C8.50287 8.95509 8.21218 9.33189 8.0151 9.57031C7.90718 9.70085 7.79074 9.83256 7.70065 9.93555C7.68942 9.94839 7.67889 9.96156 7.66842 9.97363C7.70495 10.0967 7.76931 10.2532 7.87643 10.4385C8.05529 10.7478 8.31478 11.08 8.61959 11.3867C8.92439 11.6933 9.25694 11.9568 9.56783 12.1406C9.74497 12.2453 9.89729 12.3111 10.02 12.3516C10.0279 12.3443 10.0372 12.3376 10.0454 12.3301C10.1513 12.2324 10.2801 12.1125 10.4135 11.999C10.6576 11.7917 11.0349 11.4983 11.4809 11.4033C11.8661 11.3214 12.2876 11.4214 12.603 11.5234C12.9523 11.6365 13.3261 11.8053 13.6772 11.9912C14.3512 12.3481 15.0836 12.8446 15.4438 13.2686L15.6225 13.4785V14.3877C15.6225 16.2046 14.2538 17.9716 12.2329 17.8555C6.53846 17.5282 2.47126 13.461 2.14401 7.7666C2.02822 5.74599 3.795 4.377 5.61178 4.37695H6.52291L6.73385 4.55762ZM5.61178 5.87695C4.44305 5.877 3.58623 6.72079 3.64108 7.68066C3.92466 12.6143 7.38518 16.0748 12.3188 16.3584C13.2789 16.4136 14.1225 15.5566 14.1225 14.3877V14.0674C13.8749 13.8568 13.4553 13.5707 12.9751 13.3164C12.6739 13.1569 12.3828 13.0284 12.1411 12.9502C11.8654 12.861 11.7683 12.8755 11.7934 12.8701C11.7468 12.88 11.618 12.943 11.3842 13.1416C11.279 13.2311 11.1758 13.3277 11.062 13.4326C10.9554 13.5309 10.8312 13.6447 10.7114 13.7402C10.5735 13.85 10.4013 13.9078 10.2251 13.9033C9.72684 13.8905 9.229 13.6828 8.80416 13.4316C8.36586 13.1725 7.93481 12.8253 7.55612 12.4443C7.17751 12.0635 6.83251 11.6303 6.5776 11.1895C6.33078 10.7625 6.12841 10.2591 6.12838 9.75488C6.12854 9.59765 6.178 9.44394 6.26998 9.31641C6.36276 9.18782 6.47404 9.05784 6.57076 8.94727C6.67531 8.82776 6.76858 8.72441 6.85885 8.61523C7.05838 8.37385 7.12042 8.2469 7.12936 8.20508C7.12357 8.23215 7.13821 8.13673 7.0483 7.86035C6.96965 7.61879 6.84092 7.32768 6.68112 7.02637C6.4266 6.54657 6.13971 6.12606 5.92916 5.87695H5.61178Z" fill="#000000"/>
<path d="M10.0005 5C10.6568 5.00006 11.3071 5.12969 11.9135 5.38086C12.52 5.63213 13.0714 6.00065 13.5356 6.46484C13.9998 6.92909 14.3684 7.48038 14.6196 8.08691C14.8708 8.69344 15.0005 9.34352 15.0005 10H13.5005C13.5005 9.54043 13.4097 9.08475 13.2339 8.66016C13.058 8.23579 12.7998 7.85023 12.4751 7.52539C12.1503 7.2006 11.7646 6.94249 11.3403 6.7666C10.9158 6.59077 10.4599 6.50006 10.0005 6.5V5Z" fill="#000000"/>
<path d="M10.0005 2C11.0509 2.00006 12.0915 2.2074 13.062 2.60938C14.0323 3.01141 14.915 3.60006 15.6577 4.34277C16.4004 5.08554 16.9891 5.96805 17.3911 6.93848C17.7931 7.90903 18.0005 8.94949 18.0005 10H16.5005C16.5005 9.14647 16.3319 8.30126 16.0053 7.5127C15.6787 6.72418 15.2006 6.00685 14.5971 5.40332C13.9937 4.79984 13.2762 4.32177 12.4878 3.99512C11.6993 3.66852 10.8539 3.50006 10.0005 3.5V2Z" fill="#000000"/>
</svg>
