<svg xmlns="http://www.w3.org/2000/svg" width="20" height="20" viewBox="0 0 20 20" fill="none"><rect width="20" height="20" fill="none"/>
<path d="M11.5 5.99951C13.4329 5.99951 14.9999 7.5666 15 9.49951C15 11.4325 13.433 12.9995 11.5 12.9995C9.567 12.9995 8 11.4325 8 9.49951C8.00011 7.5666 9.56707 5.99951 11.5 5.99951ZM11.5 7.49951C10.3955 7.49951 9.50011 8.39503 9.5 9.49951C9.5 10.6041 10.3954 11.4995 11.5 11.4995C12.6046 11.4995 13.5 10.6041 13.5 9.49951C13.4999 8.39503 12.6045 7.49951 11.5 7.49951Z" fill="#000000"/>
<path d="M6.4502 11.9995H4.9502V6.99951H6.4502V11.9995Z" fill="#000000"/>
<path d="M15.2998 2.44971C16.8186 2.44971 18.0498 3.68092 18.0498 5.19971V13.8003C18.0497 15.2684 16.8988 16.4633 15.4502 16.5415V17.9995H13.9502V16.5503H6.0498V17.9995H4.5498V16.5415C3.10118 16.4633 1.95035 15.2684 1.9502 13.8003V5.19971C1.9502 3.68092 3.18141 2.44971 4.7002 2.44971H15.2998ZM4.7002 3.94971C4.00984 3.94971 3.4502 4.50935 3.4502 5.19971V13.8003C3.45035 14.4905 4.00994 15.0503 4.7002 15.0503H15.2998C15.9901 15.0503 16.5496 14.4905 16.5498 13.8003V5.19971C16.5498 4.50935 15.9902 3.94971 15.2998 3.94971H4.7002Z" fill="#000000"/>
</svg>
