<svg xmlns="http://www.w3.org/2000/svg" width="24" height="24" viewBox="0 0 24 24" fill="none"><rect width="24" height="24" fill="none"/>
<path d="M18.0654 13.9004C18.517 13.9004 18.8224 14.0392 19.041 14.2754C19.2538 14.5056 19.376 14.82 19.4844 15.1494L21.7705 22.0996H19.8984L19.3945 20.4785H16.5361L15.9932 22.0996H14.2197L16.6191 15.1475C16.7334 14.8165 16.8628 14.5029 17.0811 14.2734C17.3048 14.0384 17.6138 13.9004 18.0654 13.9004ZM17.0576 18.9092H18.8975L18.0039 16.043L17.0576 18.9092Z" fill="#000000"/>
<path d="M13.333 6H19C20.6568 6.00005 22 7.34318 22 9V12H20V9C20 8.44775 19.5522 8.00005 19 8H12.667L8.66699 5H5C4.4478 5.0001 4 5.44778 4 6V18C4 18.5522 4.4478 18.9999 5 19H12V21H5C3.34323 20.9999 2 19.6568 2 18V6C2 4.34321 3.34323 3.0001 5 3H9.33301L13.333 6Z" fill="#000000"/>
</svg>
