<svg xmlns="http://www.w3.org/2000/svg" width="20" height="20" viewBox="0 0 20 20" fill="none"><rect width="20" height="20" fill="none"/>
<path d="M5 2.49955C8.26145 1.52114 11.7385 1.52114 15 2.49955V3.1519L18 3.65287V6.99955C18 9.20869 16.2091 10.9986 14 10.9986C13.7155 11.3775 13.3789 11.7149 13 11.9996V13.9996C13 15.1041 13.8954 15.9996 15 15.9996V17.9996H5V15.9996C6.10457 15.9996 7 15.1041 7 13.9996V11.9996C6.62097 11.7148 6.28363 11.3777 5.99902 10.9986C3.79033 10.998 2 9.20837 2 6.99955V3.65287L5 3.1519V2.49955ZM11 12.899C10.6768 12.9646 10.3425 12.9996 10 12.9996C9.65746 12.9996 9.32317 12.9646 9 12.899V13.9996C9 14.7282 8.80424 15.4112 8.46387 15.9996H11.5361C11.1958 15.4112 11 14.7282 11 13.9996V12.899ZM13 4.06303C11.0192 3.66959 8.98078 3.66959 7 4.06303V7.99955C7 9.65641 8.34315 10.9996 10 10.9996C11.6569 10.9996 13 9.65641 13 7.99955V4.06303ZM4 5.34623V6.99955C4 7.76316 4.42848 8.42627 5.05762 8.76323C5.01951 8.5144 5 8.25904 5 7.99955V5.17924L4 5.34623ZM15 7.99955C15 8.25909 14.9795 8.51435 14.9414 8.76323C15.571 8.4264 16 7.76347 16 6.99955V5.34623L15 5.17924V7.99955Z" fill="#000000"/>
</svg>
