<svg xmlns="http://www.w3.org/2000/svg" width="24" height="24" viewBox="0 0 24 24" fill="none"><rect width="24" height="24" fill="none"/>
<path d="M5.5 15C7.433 15 9 16.567 9 18.5C8.99995 20.4329 7.43296 22 5.5 22C3.56704 22 2.00005 20.4329 2 18.5C2 16.567 3.567 15 5.5 15ZM5.5 17C4.67157 17 4 17.6716 4 18.5C4.00005 19.3284 4.67161 20 5.5 20C6.32839 20 6.99995 19.3284 7 18.5C7 17.6716 6.32843 17 5.5 17Z" fill="#000000"/>
<path d="M15 5.99999H8.5C7.11929 5.99999 6 7.11928 6 8.49999C6.00019 9.88054 7.11941 11 8.5 11H15.5C17.9852 11.0001 20 13.0148 20 15.5C19.9998 17.9851 17.9851 19.9999 15.5 20H11V18H15.5C16.8805 17.9999 17.9998 16.8805 18 15.5C18 14.1193 16.8806 13.0001 15.5 13H8.5C6.01484 13 4.00019 10.9851 4 8.49999C4 6.01471 6.01472 3.99999 8.5 3.99999H15V5.99999Z" fill="#000000"/>
<path d="M17.2578 2.06249C17.4167 1.97454 17.6106 1.97998 17.7646 2.07616L21.7646 4.57616C21.9108 4.66754 22 4.82761 22 4.99999C22 5.17235 21.9108 5.33247 21.7646 5.42382L17.7646 7.92382C17.6106 8.01997 17.4167 8.02541 17.2578 7.93749C17.0989 7.84939 17 7.68172 17 7.49999V2.49999C17 2.31824 17.0989 2.15061 17.2578 2.06249Z" fill="#000000"/>
</svg>
