<svg xmlns="http://www.w3.org/2000/svg" width="20" height="20" viewBox="0 0 20 20" fill="none"><rect width="20" height="20" fill="none"/>
<path d="M15.5664 10.5C16.3909 10.5 16.6321 11.0213 16.8408 11.6807L19 18.5H17.4023L16.917 16.8789H14.0254L13.5029 18.5H12L14.2656 11.6807C14.4853 11.0192 14.7417 10.5001 15.5664 10.5ZM14.4629 15.5098H16.499L15.5283 12.2773H15.4902L14.4629 15.5098Z" fill="#000000"/>
<path d="M7 2.9502C8.22666 2.95033 9.3158 3.5395 10 4.4502C10.6842 3.53949 11.7733 2.95032 13 2.9502H17.9502V9H16.4502V4.4502H13C11.7575 4.45041 10.75 5.45768 10.75 6.7002V17H9.01465C8.64637 16.2595 7.88308 15.7501 7 15.75H2.0498V2.9502H7ZM3.5498 14.25H7C7.84423 14.2501 8.62329 14.5291 9.25 15V6.7002C9.25 5.4577 8.24245 4.45043 7 4.4502H3.5498V14.25Z" fill="#000000"/>
</svg>
