<svg xmlns="http://www.w3.org/2000/svg" width="24" height="24" viewBox="0 0 24 24" fill="none"><rect width="24" height="24" fill="none"/>
<path d="M12.041 6.5C13.1118 6.5 13.4252 7.15144 13.6963 7.97559L16.5 16.5H14.4248L13.7949 14.4736H10.04L9.36035 16.5H7.40918L10.3516 7.97559C10.6369 7.14872 10.9698 6.50001 12.041 6.5ZM11.9424 8.72168L10.6084 12.7617H13.252L11.9912 8.72168H11.9424Z" fill="#000000"/>
<path d="M12 2C17.5228 2 22 6.47715 22 12C22 17.5228 17.5228 22 12 22C6.47715 22 2 17.5228 2 12C2 6.47715 6.47715 2 12 2ZM12 4C7.58172 4 4 7.58172 4 12C4 16.4183 7.58172 20 12 20C16.4183 20 20 16.4183 20 12C20 7.58172 16.4183 4 12 4Z" fill="#000000"/>
</svg>
