<svg xmlns="http://www.w3.org/2000/svg" width="20" height="20" viewBox="0 0 20 20" fill="none"><rect width="20" height="20" fill="none"/>
<path d="M10.457 2.12988C10.9159 2.15643 11.2185 2.48375 11.3115 2.82422C11.4016 3.15379 11.3168 3.55535 11 3.82129C10.0703 4.60205 9.48145 5.7716 9.48145 7.0791L9.4873 7.29785C9.60141 9.54328 11.4579 11.3291 13.7314 11.3291L13.917 11.3252C14.8408 11.2854 15.6867 10.9498 16.3662 10.4111L16.4912 10.3271C16.7911 10.1566 17.1383 10.172 17.4053 10.3076C17.7202 10.4678 17.9795 10.8303 17.9131 11.2842C17.3474 15.1484 14.0228 18.1159 10.001 18.1162C5.58275 18.1162 2.0011 14.5344 2.00098 10.1162C2.00098 5.69793 5.5827 2.11621 10.001 2.11621C10.1542 2.11622 10.3064 2.12118 10.457 2.12988ZM9.09375 3.67969C5.93341 4.12109 3.50098 6.83427 3.50098 10.1162L3.50977 10.4502C3.68372 13.8848 6.52324 16.6162 10.001 16.6162L10.3057 16.6094C12.9915 16.4852 15.2492 14.7292 16.1162 12.3105C15.3898 12.6429 14.5822 12.829 13.7314 12.8291C10.5559 12.8291 7.98175 10.2544 7.98145 7.0791C7.98145 5.80746 8.39522 4.63199 9.09375 3.67969Z" fill="#000000"/>
</svg>
