<svg xmlns="http://www.w3.org/2000/svg" width="24" height="24" viewBox="0 0 24 24" fill="none"><rect width="24" height="24" fill="none"/>
<path d="M18.0654 13.9004C18.517 13.9004 18.8224 14.0392 19.041 14.2754C19.2538 14.5056 19.376 14.82 19.4844 15.1494L21.7705 22.0996H19.8985L19.3945 20.4785H16.5361L15.9932 22.0996H14.2197L16.6192 15.1475C16.7334 14.8163 16.8636 14.5029 17.082 14.2734C17.3058 14.0384 17.6139 13.9004 18.0654 13.9004ZM17.0576 18.9092H18.8975L18.0039 16.043L17.0576 18.9092Z" fill="#000000"/>
<path d="M12 2C12.0361 2.03583 15.0359 4.99983 20.999 5C20.9992 6.24128 21.1686 9.02301 20.6611 12H18.6319C18.9848 10.1399 19.0315 8.32881 19.0225 6.89648C16.631 6.64834 14.7385 5.98052 13.3555 5.28906C12.8273 5.02498 12.376 4.75552 11.999 4.50977C11.6222 4.75539 11.1714 5.02515 10.6436 5.28906C9.26034 5.98059 7.36751 6.64841 4.9756 6.89648C4.96462 8.67248 5.03995 11.0307 5.67775 13.3428C6.52499 16.4137 8.2599 19.0549 11.999 19.9521V21.999L11.5391 21.8994C2.03109 19.6277 2.99931 7.95314 2.99904 5C8.97876 4.99994 11.9797 2.02028 12 2Z" fill="#000000"/>
</svg>
