<svg xmlns="http://www.w3.org/2000/svg" width="20" height="20" viewBox="0 0 20 20" fill="none"><rect width="20" height="20" fill="none"/>
<path d="M16 12C16.7911 12 17.5649 12.2343 18.2227 12.6738C18.8804 13.1133 19.3926 13.7389 19.6953 14.4697C19.9979 15.2005 20.0772 16.0045 19.9229 16.7803C19.7685 17.5562 19.3875 18.2687 18.8281 18.8281C18.2687 19.3875 17.5562 19.7685 16.7803 19.9229C16.0045 20.0772 15.2005 19.9979 14.4697 19.6953C13.7389 19.3926 13.1133 18.8804 12.6738 18.2227C12.2343 17.5649 12 16.7911 12 16H11C10.8158 16 10.6467 15.8986 10.5596 15.7363C10.4726 15.5737 10.4817 15.3761 10.584 15.2227L12.584 12.2227C12.6767 12.0836 12.8328 12 13 12C13.1672 12 13.3233 12.0836 13.416 12.2227L15.416 15.2227C15.5183 15.3761 15.5274 15.5737 15.4404 15.7363C15.3533 15.8986 15.1842 16 15 16H13.5C13.5 16.4943 13.6464 16.9776 13.9209 17.3887C14.1955 17.7997 14.5863 18.1203 15.043 18.3096C15.4996 18.4987 16.0025 18.5485 16.4873 18.4521C16.9723 18.3557 17.4179 18.1172 17.7676 17.7676C18.1172 17.4179 18.3557 16.9723 18.4521 16.4873C18.5485 16.0025 18.4987 15.4996 18.3096 15.043C18.1203 14.5863 17.7997 14.1955 17.3887 13.9209C16.9776 13.6464 16.4943 13.5 16 13.5V12Z" fill="#000000"/>
<path d="M14.2998 1.9502C15.8186 1.9502 17.0498 3.18141 17.0498 4.7002V10H15.5498V4.7002C15.5498 4.00984 14.9902 3.4502 14.2998 3.4502H5.7002C5.00984 3.4502 4.4502 4.00984 4.4502 4.7002V15.3008C4.45038 15.991 5.00995 16.5508 5.7002 16.5508H10V18.0508H5.7002C4.18153 18.0508 2.95038 16.8194 2.9502 15.3008V4.7002C2.9502 3.18141 4.18141 1.9502 5.7002 1.9502H14.2998Z" fill="#000000"/>
<path d="M7 13C7.5522 13 7.99987 13.4478 8 14C8 14.5523 7.55228 15 7 15C6.4478 14.9999 6 14.5522 6 14C6.00013 13.4479 6.44789 13.0001 7 13Z" fill="#000000"/>
<path d="M7 10C7.5522 10 7.99987 10.4478 8 11C8 11.5523 7.55228 12 7 12C6.4478 11.9999 6 11.5522 6 11C6.00013 10.4479 6.44789 10.0001 7 10Z" fill="#000000"/>
<path d="M10 10C10.5522 10 10.9999 10.4478 11 11C11 11.5523 10.5523 12 10 12C9.4478 11.9999 9 11.5522 9 11C9.00013 10.4479 9.44789 10.0001 10 10Z" fill="#000000"/>
<path d="M14 7H6V5H14V7Z" fill="#000000"/>
</svg>
