<svg xmlns="http://www.w3.org/2000/svg" width="20" height="20" viewBox="0 0 20 20" fill="none"><rect width="20" height="20" fill="none"/>
<path d="M13.0303 9.03027L9.5 12.5605L6.96973 10.0303L8.03027 8.96973L9.5 10.4395L11.9697 7.96973L13.0303 9.03027Z" fill="#000000"/>
<path d="M12 4H16V8L18 10L16 12V16H12L10 18L8 16H4V12L2 10L4 8V4H8L10 2L12 4ZM8.62109 5.5H5.5V8.62109L4.12109 10L5.5 11.3789V14.5H8.62109L10 15.8789L11.3789 14.5H14.5V11.3789L15.8789 10L14.5 8.62109V5.5H11.3789L10 4.12109L8.62109 5.5Z" fill="#000000"/>
</svg>
