<svg xmlns="http://www.w3.org/2000/svg" width="20" height="20" viewBox="0 0 20 20" fill="none"><rect width="20" height="20" fill="none"/>
<path d="M9.9986 2C11.0028 2.00001 11.9757 2.28471 12.6724 2.5498C13.0261 2.68439 13.3219 2.81917 13.5299 2.9209C13.6338 2.97175 13.7168 3.01491 13.775 3.0459C13.8038 3.06126 13.8269 3.07396 13.8433 3.08301C13.8515 3.08749 13.859 3.09103 13.8638 3.09375C13.8661 3.09505 13.8682 3.09679 13.8697 3.09766L13.8716 3.09863L13.8726 3.09961C14.0718 3.21327 14.2084 3.41197 14.2427 3.63867C14.2768 3.86504 14.2056 4.09535 14.0494 4.2627L11.2457 7.26465L13.9205 8.53809C15.165 9.13072 16.091 10.2347 16.4576 11.5635L16.9234 13.2539C17.5814 15.6415 15.7859 18.0008 13.3091 18.001H6.68805C4.21162 18.0005 2.41594 15.6413 3.0738 13.2539L3.53962 11.5635C3.90612 10.2351 4.83271 9.1308 6.07673 8.53809L8.75153 7.26367L5.9527 4.2627C5.79674 4.09543 5.72641 3.86481 5.76032 3.63867C5.79459 3.41251 5.93109 3.21345 6.12946 3.09961L6.13239 3.09766C6.13374 3.09689 6.13623 3.0958 6.13825 3.09473C6.14289 3.09211 6.15011 3.08823 6.15778 3.08398C6.17405 3.07497 6.19837 3.06223 6.22712 3.04688C6.28509 3.01591 6.36777 2.97168 6.47126 2.9209C6.67866 2.81917 6.97392 2.68438 7.32673 2.5498C8.02224 2.28458 8.99427 2.00008 9.9986 2ZM6.72126 9.89258C5.87038 10.2981 5.23668 11.0533 4.98591 11.9619L4.51911 13.6523C4.12467 15.0846 5.20246 16.5005 6.68805 16.501H13.3091C14.795 16.5008 15.8727 15.0848 15.4781 13.6523L15.0113 11.9629C14.7605 11.0538 14.1274 10.2981 13.2759 9.89258L9.9986 8.33105L6.72126 9.89258ZM9.9986 3.50098C9.25355 3.50106 8.47623 3.71749 7.86091 3.95215C7.82504 3.96586 7.78984 3.98148 7.75544 3.99512L9.9986 6.40137L12.2457 3.99512C12.2108 3.98134 12.1755 3.96597 12.1392 3.95215C11.5221 3.71734 10.7438 3.50098 9.9986 3.50098Z" fill="#000000"/>
</svg>
