<svg xmlns="http://www.w3.org/2000/svg" width="20" height="20" viewBox="0 0 20 20" fill="none"><rect width="20" height="20" fill="none"/>
<path d="M18.0003 14C15.2389 14 13.0003 16.2386 13.0003 19H11.5003C11.5003 15.4102 14.4105 12.5 18.0003 12.5V14Z" fill="#000000"/>
<path d="M18.0003 19H15.0003C15.0003 17.3432 16.3435 16 18.0003 16V19Z" fill="#000000"/>
<path d="M14.3001 2.95117C15.2661 2.95181 16.0501 3.73507 16.0501 4.70117V10.5713L16.3636 11.4502L5.22786 11.4512L3.764 15.5508H9.99935V17.0508H2.69954C2.45614 17.0507 2.2268 16.9321 2.08626 16.7334C1.94593 16.5342 1.91176 16.2783 1.99349 16.0488L3.94954 10.5713V4.70117C3.94954 3.73471 4.7331 2.95124 5.69954 2.95117H14.3001ZM5.69954 4.45117C5.56153 4.45124 5.44954 4.56314 5.44954 4.70117V9.95117H14.5501V4.70117C14.5501 4.5635 14.4377 4.45181 14.3001 4.45117H5.69954Z" fill="#000000"/>
<path d="M12.0003 14.4502H8.00033L8.50033 13H11.5003L12.0003 14.4502Z" fill="#000000"/>
</svg>
