<svg xmlns="http://www.w3.org/2000/svg" width="24" height="24" viewBox="0 0 24 24" fill="none"><rect width="24" height="24" fill="none"/>
<path d="M15.3726 3.21484C17.0324 5.73646 17.9994 8.75445 17.9995 11.999C17.9995 15.2433 17.033 18.2617 15.3735 20.7832L13.6655 19.7393C15.1395 17.522 15.9995 14.8611 15.9995 11.999C15.9994 9.13657 15.14 6.47519 13.6655 4.25781L15.3726 3.21484Z" fill="#000000"/>
<path d="M11.9575 5.30176C13.2467 7.21464 13.9994 9.51878 13.9995 11.999C13.9995 14.479 13.2473 16.7835 11.9585 18.6963L10.2485 17.6514C11.3524 16.0433 11.9995 14.0969 11.9995 11.999C11.9994 9.90107 11.3526 7.95471 10.2485 6.34668L11.9575 5.30176Z" fill="#000000"/>
<path d="M8.5376 7.3916C9.4575 8.69439 9.99941 10.2829 9.99951 11.999C9.99951 13.7147 9.45704 15.3028 8.5376 16.6055L6.82861 15.5605C7.56443 14.5645 7.99951 13.3325 7.99951 11.999C7.99941 10.6652 7.5649 9.43272 6.82861 8.43652L8.5376 7.3916Z" fill="#000000"/>
</svg>
