<svg xmlns="http://www.w3.org/2000/svg" width="20" height="20" viewBox="0 0 20 20" fill="none"><rect width="20" height="20" fill="none"/>
<path d="M7.00003 7.00167C6.54496 7.00188 6.093 7.10377 5.67972 7.30636C5.08724 7.59684 4.60704 8.07477 4.31351 8.66574C4.02016 9.25651 3.9293 9.92756 4.05569 10.5749C4.1823 11.2225 4.51931 11.8108 5.0137 12.2478C5.50814 12.6846 6.13286 12.9469 6.79105 12.9929C7.44936 13.0388 8.10489 12.8657 8.6553 12.5017C9.1991 12.1419 9.60978 11.614 9.82718 10.9997H11.8985C11.855 11.2129 11.7982 11.4242 11.7266 11.6316C11.3677 12.671 10.6759 13.5629 9.75882 14.1696C8.84158 14.7763 7.74942 15.0645 6.65237 14.988C5.55535 14.9114 4.5136 14.4749 3.68948 13.7468C2.86541 13.0185 2.30383 12.038 2.0928 10.9587C1.882 9.87966 2.03258 8.76083 2.52152 7.77609C3.0107 6.79116 3.81145 5.99461 4.79886 5.51046C5.48783 5.17268 6.24132 4.99987 7.00003 4.99972V7.00167Z" fill="#000000"/>
<path d="M10.2256 5.84054C11.1415 5.22963 12.2335 4.93738 13.3321 5.01046C14.4306 5.08367 15.475 5.51785 16.3018 6.24484C17.1286 6.972 17.6923 7.95264 17.9053 9.03292C18.1182 10.1132 17.9684 11.2339 17.4795 12.2204C16.9905 13.2068 16.1897 14.0043 15.2012 14.489C14.5122 14.8268 13.7588 14.9987 13 14.9987V12.9968C13.4551 12.9968 13.907 12.8957 14.3203 12.6931C14.9135 12.4022 15.3941 11.9237 15.6875 11.3318C15.9808 10.7399 16.0711 10.0677 15.9434 9.41964C15.8156 8.77154 15.4775 8.18305 14.9815 7.74679C14.4854 7.31055 13.8584 7.05048 13.1992 7.00656C12.5402 6.96271 11.8845 7.13711 11.335 7.50363C10.7855 7.87017 10.3729 8.4086 10.1602 9.0339C10.0538 9.3469 10.0001 9.6735 10 9.99972H8.00003C8.00006 9.45601 8.08926 8.91206 8.26663 8.39035C8.62112 7.34793 9.30966 6.45155 10.2256 5.84054Z" fill="#000000"/>
</svg>
