<svg xmlns="http://www.w3.org/2000/svg" width="24" height="24" viewBox="0 0 24 24" fill="none"><rect width="24" height="24" fill="none"/>
<path d="M14.7773 4C15.2129 4.00004 15.5986 4.28214 15.7305 4.69727L17.7314 11H20C20.4464 11 20.8393 11.2963 20.9619 11.7256L22.9619 18.7256C23.0479 19.0272 22.9877 19.3521 22.7988 19.6025C22.6099 19.853 22.3138 20 22 20H2C1.68127 20 1.38171 19.8479 1.19336 19.5908C1.00504 19.3334 0.950383 19.0012 1.04688 18.6973L3.26954 11.6973L3.33008 11.5479C3.49822 11.2158 3.84154 11 4.22266 11H6.26856L8.26954 4.69727L8.33008 4.54785C8.49822 4.21583 8.84154 4 9.22266 4H14.7773ZM3.36719 18H10.6328L9.0459 13H4.95411L3.36719 18ZM13.3262 18H20.6738L19.2451 13H14.7549L13.3262 18ZM11.1445 13L11.9492 15.5352L12.6738 13H11.1445ZM8.36719 11H15.6328L14.0459 6H9.95411L8.36719 11Z" fill="#000000"/>
</svg>
