<svg xmlns="http://www.w3.org/2000/svg" width="24" height="24" viewBox="0 0 24 24" fill="none"><rect width="24" height="24" fill="none"/>
<path d="M23.0005 15C23.0005 15 23 21.4997 18.0005 23C13.0005 21.5 13.0005 15 13.0005 15L18.0005 13L23.0005 15ZM15.1392 16.2988C15.2165 16.7449 15.3348 17.2592 15.5161 17.7852C15.9705 19.1028 16.7244 20.2665 18.0005 20.8643C19.2764 20.2664 20.0305 19.1028 20.4849 17.7852C20.6662 17.2592 20.7835 16.7449 20.8608 16.2988L18.0005 15.1543L15.1392 16.2988Z" fill="#000000"/>
<path d="M11.0005 16.0303C8.93293 16.1594 7.79419 16.7009 7.13135 17.4482C6.34418 18.3359 5.99854 19.7594 5.99854 22H3.99854C3.99854 19.666 4.3327 17.5897 5.63525 16.1211C6.80661 14.8004 8.58575 14.1589 11.0005 14.0264V16.0303Z" fill="#000000"/>
<path d="M11.9995 3C14.7609 3 16.9995 5.23858 16.9995 8C16.9995 10.7614 14.7609 13 11.9995 13C9.23809 13 6.99951 10.7614 6.99951 8C6.99951 5.23858 9.23809 3 11.9995 3ZM11.9995 5C10.3427 5 8.99951 6.34315 8.99951 8C8.99951 9.65685 10.3427 11 11.9995 11C13.6564 11 14.9995 9.65685 14.9995 8C14.9995 6.34315 13.6564 5 11.9995 5Z" fill="#000000"/>
</svg>
