<svg xmlns="http://www.w3.org/2000/svg" width="20" height="20" viewBox="0 0 20 20" fill="none"><rect width="20" height="20" fill="none"/>
<path d="M15.5 11C15.7761 11 16 11.2239 16 11.5C16 13.433 17.567 15 19.5 15C19.7761 15 20 15.2239 20 15.5C20 15.7761 19.7761 16 19.5 16C17.567 16 16 17.567 16 19.5C16 19.7761 15.7761 20 15.5 20C15.2239 20 15 19.7761 15 19.5C15 17.567 13.433 16 11.5 16C11.2239 16 11 15.7761 11 15.5C11 15.2239 11.2239 15 11.5 15C13.433 15 15 13.433 15 11.5C15 11.2239 15.2239 11 15.5 11Z" fill="#000000"/>
<path d="M15.2998 2.9502C16.8172 2.9502 18.0497 4.17729 18.0498 5.69727V8.5H3.4502V14.2998C3.45033 14.99 4.00992 15.5498 4.7002 15.5498H9V17.0498H4.7002C3.18149 17.0498 1.95033 15.8185 1.9502 14.2998V5.7002C1.9502 4.18141 3.18141 2.9502 4.7002 2.9502H15.2998ZM4.7002 4.4502C4.00984 4.4502 3.4502 5.00984 3.4502 5.7002V7H16.5498V5.69727C16.5497 5.00833 15.9914 4.4502 15.2998 4.4502H4.7002Z" fill="#000000"/>
</svg>
