<svg xmlns="http://www.w3.org/2000/svg" width="24" height="24" viewBox="0 0 24 24" fill="none"><rect width="24" height="24" fill="none"/>
<path d="M9.9043 3.36537C11.2336 2.75191 12.7664 2.75191 14.0957 3.36537L18.9189 5.59193C18.9375 5.60048 18.9548 5.61164 18.9727 5.62123C18.9888 5.62992 19.0049 5.63901 19.0205 5.64857C19.0422 5.66185 19.0635 5.67579 19.084 5.69057C19.0996 5.7018 19.115 5.71359 19.1299 5.72572C19.151 5.74292 19.1709 5.76164 19.1904 5.78041C19.2035 5.79293 19.2171 5.80524 19.2295 5.8185C19.2484 5.83875 19.2661 5.86027 19.2832 5.88197C19.2947 5.8965 19.3057 5.91167 19.3164 5.92689C19.331 5.94771 19.3444 5.96948 19.3574 5.99135C19.3623 5.99957 19.3693 6.00739 19.374 6.01576L22 10.7423V12.0011C21.9997 13.6577 20.6567 15.0011 19 15.0011H18C16.3433 15.0011 15.0003 13.6577 15 12.0011V10.7423L17.1025 6.95619L13.2568 5.18178C13.1726 5.14293 13.0866 5.1089 13 5.07826V19.0001H17V21.0001H7V19.0001H11V5.07826C10.9134 5.1089 10.8274 5.14293 10.7432 5.18178L6.89648 6.95619L9 10.7423V12.0011C8.99974 13.6577 7.65669 15.0011 6 15.0011H5C3.34331 15.0011 2.00026 13.6577 2 12.0011V10.7423L4.62598 6.01576V6.01381C4.66943 5.93573 4.72427 5.864 4.78711 5.79994C4.83815 5.74802 4.89451 5.70164 4.95508 5.66225C4.97793 5.64739 5.00214 5.63429 5.02637 5.62123C5.03683 5.61558 5.04695 5.60892 5.05762 5.60365C5.06535 5.59983 5.07319 5.59556 5.08105 5.59193L9.9043 3.36537ZM4 11.2589V12.0011C4.00026 12.5532 4.44788 13.0011 5 13.0011H6C6.55212 13.0011 6.99974 12.5532 7 12.0011V11.2589L5.5 8.55971L4 11.2589ZM17 11.2589V12.0011C17.0003 12.5532 17.4479 13.0011 18 13.0011H19C19.5521 13.0011 19.9997 12.5532 20 12.0011V11.2589L18.5 8.55971L17 11.2589Z" fill="#000000"/>
</svg>
