<svg xmlns="http://www.w3.org/2000/svg" width="20" height="20" viewBox="0 0 20 20" fill="none"><rect width="20" height="20" fill="none"/>
<path d="M8.43945 2.15398C10.2547 1.79297 12.1393 2.07255 13.7715 2.94499C15.4036 3.81745 16.6824 5.22937 17.3906 6.93913C18.0988 8.649 18.1925 10.5519 17.6553 12.3229C17.118 14.0939 15.9831 15.6238 14.4443 16.652C12.9055 17.6802 11.0577 18.144 9.21582 17.9626C7.37399 17.7812 5.65149 16.9665 4.34277 15.6579L5.40332 14.5973C6.46665 15.6606 7.86681 16.322 9.36328 16.4694C10.8596 16.6167 12.3611 16.2403 13.6113 15.405C14.8615 14.5696 15.7832 13.3262 16.2197 11.8874C16.6562 10.4484 16.5802 8.90259 16.0049 7.51335C15.4295 6.12418 14.3905 4.97715 13.0645 4.26823C11.7382 3.55934 10.2064 3.33228 8.73145 3.62566C7.2569 3.91909 5.92945 4.71451 4.97559 5.87663C4.02171 7.03905 3.5 8.49695 3.5 10.0007H2C2 8.15001 2.64151 6.35611 3.81543 4.92546C4.98957 3.49476 6.62421 2.51507 8.43945 2.15398Z" fill="#000000"/>
<path d="M3.35352 12.6872L5.82812 13.0407C6.01544 13.0676 6.1716 13.1981 6.23145 13.3776C6.29128 13.5572 6.24515 13.7554 6.11133 13.8893L3.98926 16.0104C3.85534 16.1442 3.65713 16.1914 3.47754 16.1315C3.29818 16.0716 3.16757 15.9153 3.14062 15.7282L2.78711 13.2536C2.76487 13.0979 2.81762 12.94 2.92871 12.8288C3.03998 12.7175 3.19774 12.6649 3.35352 12.6872Z" fill="#000000"/>
<path d="M12.25 10.9997C12.9402 10.9997 13.4998 11.5595 13.5 12.2497C13.5 12.94 12.9404 13.4997 12.25 13.4997C11.5597 13.4996 11 12.94 11 12.2497C11.0002 11.5595 11.5598 10.9997 12.25 10.9997Z" fill="#000000"/>
<path d="M13.0303 8.02995L8.03027 13.03L6.96973 11.9694L11.9697 6.96941L13.0303 8.02995Z" fill="#000000"/>
<path d="M7.75 6.49968C8.44022 6.49968 8.99978 7.05951 9 7.74968C9 8.44003 8.44036 8.99968 7.75 8.99968C7.05964 8.99968 6.5 8.44003 6.5 7.74968C6.50022 7.05951 7.05978 6.49968 7.75 6.49968Z" fill="#000000"/>
</svg>
