<svg xmlns="http://www.w3.org/2000/svg" width="24" height="24" viewBox="0 0 24 24" fill="none"><rect width="24" height="24" fill="none"/>
<path d="M12.9997 11H15.9997V13H12.9997V16H10.9997V13H7.99967V11H10.9997V8H12.9997V11Z" fill="#000000"/>
<path d="M11.9997 2C12.029 2.02923 15.0289 4.99979 20.9987 5C20.999 7.99996 21.999 19.9998 11.9997 22L11.5387 21.8994C2.0304 19.6276 2.99897 7.95313 2.9987 5C8.97418 5 11.975 2.02459 11.9997 2ZM11.9987 4.50977C11.6219 4.7554 11.1711 5.02514 10.6432 5.28906C9.25996 5.9806 7.36722 6.64843 4.97526 6.89648C4.96424 8.6725 5.03965 11.0307 5.67741 13.3428C6.52457 16.4137 8.25937 19.0549 11.9987 19.9521C15.7388 19.0552 17.4737 16.414 18.321 13.3428C18.9587 11.0307 19.0333 8.67243 19.0221 6.89648C16.6307 6.64832 14.7382 5.98054 13.3551 5.28906C12.827 5.02495 12.3756 4.75553 11.9987 4.50977Z" fill="#000000"/>
</svg>
