<svg xmlns="http://www.w3.org/2000/svg" width="20" height="20" viewBox="0 0 20 20" fill="none"><rect width="20" height="20" fill="none"/>
<path d="M2.46875 2.15402C2.76015 1.97118 3.12475 1.95078 3.43457 2.10031L17.9346 9.10031C18.2801 9.26718 18.5 9.61696 18.5 10.0007C18.4999 10.3844 18.2801 10.7343 17.9346 10.9011L3.43457 17.9011C3.12482 18.0505 2.7601 18.0301 2.46875 17.8474C2.17738 17.6645 2.00009 17.3447 2 17.0007V12.5007C2 12.1561 2.17763 11.8358 2.46973 11.653L5.11328 10.0007L2 8.05539V3.0007C2 2.65664 2.17737 2.33697 2.46875 2.15402ZM4 6.94601L7.53027 9.15304C7.82237 9.33583 8 9.6561 8 10.0007C7.99991 10.3452 7.82237 10.6656 7.53027 10.8484L4 13.0544V15.407L15.2002 10.0007L4 4.59347V6.94601Z" fill="#000000"/>
</svg>
