<svg xmlns="http://www.w3.org/2000/svg" width="20" height="20" viewBox="0 0 20 20" fill="none"><rect width="20" height="20" fill="none"/>
<path d="M8.89648 2.74377C10.7923 2.11193 12.7498 3.52286 12.75 5.52111V5.99963H11.25V5.52111C11.2498 4.5468 10.2955 3.85879 9.37109 4.16662C8.39862 4.49078 8.07392 5.70415 8.75488 6.47033L10.4697 8.39904L16.7773 11.7643C17.6836 12.2476 18.2499 13.1913 18.25 14.2184C18.25 15.7544 17.0048 16.9996 15.4688 16.9996H4.53125C2.99521 16.9996 1.75 15.7544 1.75 14.2184C1.75005 13.1913 2.31638 12.2476 3.22266 11.7643L8.80664 8.78576L7.63379 7.46642C6.23751 5.89537 6.90244 3.40845 8.89648 2.74377ZM3.92871 13.0875C3.51124 13.3102 3.25005 13.7452 3.25 14.2184C3.25 14.926 3.82364 15.4996 4.53125 15.4996H15.4688C16.1764 15.4996 16.75 14.926 16.75 14.2184C16.7499 13.7453 16.4896 13.3102 16.0723 13.0875L10 9.84924L3.92871 13.0875Z" fill="#000000"/>
</svg>
