<svg xmlns="http://www.w3.org/2000/svg" width="24" height="24" viewBox="0 0 24 24" fill="none"><rect width="24" height="24" fill="none"/>
<path d="M16.3799 3C18.9486 3 21.0999 4.94692 21.3555 7.50293L21.9951 13.9004L22 13.9502V21H20V14.0498L19.3652 7.70117C19.2117 6.16772 17.921 5 16.3799 5H7.62012C6.07897 5 4.78827 6.16772 4.63477 7.70117L4 14.0498V21H2V13.9502L2.00488 13.9004L2.64453 7.50293C2.90013 4.94692 5.05136 3 7.62012 3H16.3799Z" fill="#000000"/>
<path d="M18 19H12V17H18V19Z" fill="#000000"/>
<path d="M16.0742 6.5C17.1192 6.50013 17.9882 7.30477 18.0684 8.34668L18.4141 12.8467C18.5034 14.0082 17.5849 15 16.4199 15H7.58008C6.41508 15 5.49662 14.0082 5.58594 12.8467L5.93164 8.34668C6.01179 7.30477 6.88082 6.50013 7.92578 6.5H16.0742ZM7.58008 13H16.4199L16.0742 8.5H7.92578L7.58008 13Z" fill="#000000"/>
</svg>
