<svg xmlns="http://www.w3.org/2000/svg" width="24" height="24" viewBox="0 0 24 24" fill="none"><rect width="24" height="24" fill="none"/>
<path d="M16.207 10.207L11 15.4141L7.79297 12.207L9.20703 10.793L11 12.5859L14.793 8.79297L16.207 10.207Z" fill="#000000"/>
<path d="M15 4H20V9L23 12L20 15V20H15L12 23L9 20H4V15L1 12L4 9V4H9L12 1L15 4ZM9.82812 6H6V9.82812L3.82812 12L6 14.1719V18H9.82812L12 20.1719L14.1719 18H18V14.1719L20.1719 12L18 9.82812V6H14.1719L12 3.82812L9.82812 6Z" fill="#000000"/>
</svg>
