<svg xmlns="http://www.w3.org/2000/svg" width="20" height="20" viewBox="0 0 20 20" fill="none"><rect width="20" height="20" fill="none"/>
<path d="M17.5566 7.31543C17.8263 7.43632 18 7.70448 18 8C18 8.29552 17.8263 8.56368 17.5566 8.68457L15.75 9.49414V12.5713C15.75 13.4236 15.3317 14.222 14.6309 14.707C11.8447 16.6353 8.15531 16.6353 5.36914 14.707C4.66834 14.222 4.25 13.4236 4.25 12.5713V9.49414L2.44336 8.68457C2.17369 8.56368 2 8.29552 2 8C2 7.70448 2.17369 7.43632 2.44336 7.31543L10 3.92773L17.5566 7.31543ZM10 12.0723L5.75 10.166V12.5713C5.75 12.9313 5.92665 13.2688 6.22266 13.4736C8.49527 15.0465 11.5047 15.0465 13.7773 13.4736C14.0733 13.2688 14.25 12.9313 14.25 12.5713V10.166L10 12.0723ZM4.58301 8L10 10.4277L15.416 8L10 5.57129L4.58301 8Z" fill="#000000"/>
</svg>
