<svg xmlns="http://www.w3.org/2000/svg" width="24" height="24" viewBox="0 0 24 24" fill="none"><rect width="24" height="24" fill="none"/>
<path fill-rule="evenodd" clip-rule="evenodd" d="M23 16V21C23 22.1046 22.1046 23 21 23H15L14.7959 22.9893C13.7872 22.887 13 22.0357 13 21V16L18 13L23 16ZM15 17.1318V21H21V17.1318L18 15.332L15 17.1318Z" fill="#000000"/>
<path d="M15 4C16.6568 4 18 5.34315 18 7V8H19C20.6568 8 21.9999 9.34324 22 11V12H20V11C19.9999 10.4478 19.5522 10 19 10H16V7C16 6.44772 15.5523 6 15 6H4V18H11V20H2V4H15Z" fill="#000000"/>
<path d="M10 14H6V12H10V14Z" fill="#000000"/>
<path d="M13 10H6V8H13V10Z" fill="#000000"/>
</svg>
