<svg xmlns="http://www.w3.org/2000/svg" width="20" height="20" viewBox="0 0 20 20" fill="none"><rect width="20" height="20" fill="none"/>
<path d="M15.5 12C17.433 12 19 13.567 19 15.5C19 17.433 17.433 19 15.5 19C13.567 19 12 17.433 12 15.5C12 13.567 13.567 12 15.5 12ZM15.5 14C14.6716 14 14 14.6716 14 15.5C14 16.3284 14.6716 17 15.5 17C16.3284 17 17 16.3284 17 15.5C17 14.6716 16.3284 14 15.5 14Z" fill="#000000"/>
<path d="M18 4.5791L17.9844 5.07422C17.9412 5.94957 17.7775 7.87876 17.166 10H15.0742C15.0811 9.97877 15.0889 9.95779 15.0957 9.93652C15.5435 8.54444 15.7726 7.18981 15.8877 6.17383C15.8942 6.1162 15.8975 6.05907 15.9033 6.00391L10 4.10059L4.0957 6.00391C4.1015 6.0591 4.10578 6.11616 4.1123 6.17383C4.22735 7.18981 4.45649 8.54444 4.9043 9.93652C5.77212 12.6342 7.30309 15.0402 10 15.9199V18C2.99951 16.2729 2.1249 7.29152 2.01562 5.07422L2 4.5791L10 2L18 4.5791Z" fill="#000000"/>
</svg>
