<svg xmlns="http://www.w3.org/2000/svg" width="20" height="20" viewBox="0 0 20 20" fill="none"><rect width="20" height="20" fill="none"/>
<path d="M10 2.00098C11.9473 2.00098 13.7319 2.69703 15.1191 3.85352C15.4067 3.68374 15.7832 3.72177 16.0303 3.96875C16.2773 4.21575 16.3141 4.59132 16.1445 4.87891C17.3026 6.26664 18 8.05219 18 10.001C18 11.949 17.3028 13.7336 16.1455 15.1211C16.3143 15.4085 16.277 15.7836 16.0303 16.0303C15.7836 16.2769 15.4085 16.3143 15.1211 16.1455C13.7334 17.3033 11.9485 18.001 10 18.001C8.05071 18.001 6.26483 17.3031 4.87695 16.1445C4.58972 16.3129 4.21625 16.2766 3.96973 16.0303C3.72295 15.7835 3.68542 15.4085 3.85449 15.1211C2.69724 13.7336 2 11.949 2 10.001C2 8.05219 2.6974 6.26664 3.85547 4.87891C3.68658 4.59159 3.72321 4.21743 3.96973 3.9707C4.21629 3.72414 4.5906 3.68692 4.87793 3.85547C6.26559 2.69764 8.05143 2.00098 10 2.00098ZM12.248 13.3086C11.6072 13.745 10.8337 14.001 10 14.001C9.16598 14.001 8.3919 13.7452 7.75098 13.3086L5.96484 15.0947C7.07358 15.9742 8.47486 16.501 10 16.501C11.5249 16.501 12.9255 15.9739 14.0342 15.0947L12.248 13.3086ZM4.90527 5.9668C4.02629 7.07536 3.5 8.47633 3.5 10.001C3.5 11.5251 4.02582 12.9258 4.9043 14.0342L6.69043 12.248C6.25472 11.6076 6 10.834 6 10.001C6 9.16744 6.25523 8.39364 6.69141 7.75293L4.90527 5.9668ZM13.3066 7.75195C13.7435 8.39297 14 9.16676 14 10.001C14 10.8342 13.7445 11.6075 13.3086 12.248L15.0947 14.0342C15.9734 12.9257 16.5 11.5253 16.5 10.001C16.5 8.47556 15.9735 7.07367 15.0938 5.96484L13.3066 7.75195ZM10 7.50098C8.61929 7.50098 7.5 8.62026 7.5 10.001C7.5 11.3817 8.61929 12.501 10 12.501C11.3807 12.501 12.5 11.3817 12.5 10.001C12.5 8.62026 11.3807 7.50098 10 7.50098ZM10 3.50098C8.47535 3.50098 7.07439 4.02726 5.96582 4.90625L7.75195 6.69238C8.39266 6.2562 9.16647 6.00098 10 6.00098C10.8328 6.00098 11.6057 6.25597 12.2461 6.69141L14.0322 4.90527C12.9239 4.02709 11.5239 3.50098 10 3.50098Z" fill="#000000"/>
</svg>
