<svg xmlns="http://www.w3.org/2000/svg" width="24" height="24" viewBox="0 0 24 24" fill="none"><rect width="24" height="24" fill="none"/>
<path d="M16 12.0001C17.1046 12.0001 18 12.8956 18 14.0001C18 15.1047 17.1046 16.0001 16 16.0001C14.8954 16.0001 14 15.1047 14 14.0001C14 12.8956 14.8954 12.0001 16 12.0001Z" fill="#000000"/>
<path d="M12.5674 3.00111C15.1736 2.06494 17.9199 3.99653 17.9199 6.76576V7.00014H18C20.2091 7.00014 22 8.791 22 11.0001V17.0001C22 19.2093 20.2091 21.0001 18 21.0001H6C3.79087 21.0001 2.00002 19.2093 2 17.0001V9.61049C2 7.92283 3.05924 6.41649 4.64746 5.84584L12.5674 3.00111ZM6 9.00014C4.89543 9.00014 4 9.89557 4 11.0001V17.0001C4.00002 18.1047 4.89544 19.0001 6 19.0001H18C19.1046 19.0001 20 18.1047 20 17.0001V11.0001C20 9.89557 19.1046 9.00014 18 9.00014H6ZM15.9199 6.76576C15.9199 5.38115 14.5463 4.41486 13.2432 4.88295L7.34961 7.00014H15.9199V6.76576Z" fill="#000000"/>
</svg>
