<svg xmlns="http://www.w3.org/2000/svg" width="24" height="24" viewBox="0 0 24 24" fill="none"><rect width="24" height="24" fill="none"/>
<path d="M7 7C7.55228 7 8 7.44772 8 8C8 8.55228 7.55228 9 7 9C6.44772 9 6 8.55228 6 8C6 7.44772 6.44772 7 7 7Z" fill="#000000"/>
<path d="M10 7C10.5523 7 11 7.44772 11 8C11 8.55228 10.5523 9 10 9C9.44772 9 9 8.55228 9 8C9 7.44772 9.44772 7 10 7Z" fill="#000000"/>
<path d="M18 3C20.2091 3 22 4.79086 22 7V17C22 19.2091 20.2091 21 18 21H6C3.79086 21 2 19.2091 2 17V7C2 4.79086 3.79086 3 6 3H18ZM19 14C16.7909 14 15 15.7909 15 18C15 18.3455 15.0454 18.6803 15.1279 19H18C19.1046 19 20 18.1046 20 17V14.1279C19.6803 14.0454 19.3455 14 19 14ZM6 5C4.89543 5 4 5.89543 4 7V17C4 18.1046 4.89543 19 6 19H13.085C13.0301 18.6748 13 18.3409 13 18C13 14.6863 15.6863 12 19 12C19.3407 12 19.6748 12.0284 20 12.083V7C20 5.89543 19.1046 5 18 5H6Z" fill="#000000"/>
</svg>
