<svg xmlns="http://www.w3.org/2000/svg" width="20" height="20" viewBox="0 0 20 20" fill="none"><rect width="20" height="20" fill="none"/>
<path d="M15.0312 2.28242C15.2585 2.2132 15.5054 2.25629 15.6963 2.39766C15.8872 2.53906 15.9999 2.76263 16 3.00019V13.5002C16 14.8809 14.8807 16.0002 13.5 16.0002C12.1193 16.0002 11 14.8809 11 13.5002C11.0001 12.1196 12.1194 11.0002 13.5 11.0002C13.8557 11.0002 14.1937 11.0753 14.5 11.2092V4.9416L8 6.97285V15.5002C8 16.8809 6.88071 18.0002 5.5 18.0002C4.11929 18.0002 3 16.8809 3 15.5002C3.00012 14.1196 4.11936 13.0002 5.5 13.0002C5.85566 13.0002 6.1937 13.0753 6.5 13.2092V4.88203L15.0312 2.28242Z" fill="#000000"/>
</svg>
