<svg xmlns="http://www.w3.org/2000/svg" width="20" height="20" viewBox="0 0 20 20" fill="none"><rect width="20" height="20" fill="none"/>
<path d="M10.7881 8.4209C11.3589 7.15256 13.1465 7.11632 13.7686 8.36035L15.1709 11.165L13.8291 11.835L12.4268 9.03125C12.3703 8.91829 12.2083 8.92122 12.1562 9.03613L11.4131 10.6865C10.8647 11.905 9.13531 11.905 8.58691 10.6865L7.84375 9.03613C7.79167 8.92122 7.62972 8.91829 7.57324 9.03125L6.1709 11.835L4.8291 11.165L6.23145 8.36035C6.85346 7.11632 8.64113 7.15256 9.21191 8.4209L9.9541 10.0713C9.95887 10.0819 9.96309 10.0869 9.96484 10.0889C9.96671 10.091 9.96865 10.0925 9.9707 10.0938C9.97543 10.0966 9.98554 10.1006 10 10.1006C10.0145 10.1006 10.0246 10.0966 10.0293 10.0938C10.0313 10.0925 10.0333 10.091 10.0352 10.0889C10.0369 10.0869 10.0411 10.0819 10.0459 10.0713L10.7881 8.4209Z" fill="#000000"/>
<path d="M10 2C14.4183 2 18 5.58172 18 10C18 14.4183 14.4183 18 10 18C5.58172 18 2 14.4183 2 10C2 5.58172 5.58172 2 10 2ZM10 3.5C6.41015 3.5 3.5 6.41015 3.5 10C3.5 13.5899 6.41015 16.5 10 16.5C13.5899 16.5 16.5 13.5899 16.5 10C16.5 6.41015 13.5899 3.5 10 3.5Z" fill="#000000"/>
</svg>
