<svg xmlns="http://www.w3.org/2000/svg" width="24" height="24" viewBox="0 0 24 24" fill="none"><rect width="24" height="24" fill="none"/>
<path d="M17 2.7832C20.0091 4.7461 22 8.13928 22 12C22 15.8609 20.0094 19.2549 17 21.2178V18.707C18.8409 17.0591 20 14.6652 20 12C20 9.33504 18.8406 6.94188 17 5.29395V2.7832Z" fill="#000000"/>
<path d="M7 5.29297C5.15912 6.94091 4 9.33481 4 12C4 14.665 5.15941 17.0581 7 18.7061V21.2168C3.99088 19.2539 2 15.8607 2 12C2 8.13909 3.99063 4.74508 7 2.78223V5.29297Z" fill="#000000"/>
<path d="M13 6.10254C13.5913 6.22415 14.1666 6.45716 14.6582 6.82129C15.4547 7.41136 16 8.32523 16 9.5H14C14 9.00821 13.7952 8.67198 13.4668 8.42871C13.1096 8.1642 12.5807 8 12 8C11.4193 8 10.8904 8.1642 10.5332 8.42871C10.2048 8.67198 10 9.00821 10 9.5C10 9.78935 10.0602 9.96505 10.126 10.0801C10.1931 10.1975 10.2995 10.3103 10.4756 10.4229C10.8729 10.6767 11.4468 10.8314 12.2422 11.0303C12.9466 11.2064 13.8729 11.4268 14.6006 11.8916C14.9868 12.1384 15.3494 12.471 15.6104 12.9277C15.8727 13.3869 16 13.9143 16 14.5C16 15.6141 15.4351 16.5116 14.6768 17.1016C14.1906 17.4797 13.61 17.7428 13 17.8828V19H11V17.8965C10.4087 17.7749 9.83332 17.5428 9.3418 17.1787C8.54533 16.5886 8 15.6748 8 14.5H10C10 14.9918 10.2048 15.328 10.5332 15.5713C10.8904 15.8358 11.4193 16 12 16C12.54 16 13.0709 15.8168 13.4482 15.5234C13.8147 15.2384 14 14.8858 14 14.5C14 14.2107 13.9398 14.035 13.874 13.9199C13.8069 13.8025 13.7005 13.6897 13.5244 13.5771C13.1271 13.3233 12.5532 13.1686 11.7578 12.9697C11.0534 12.7936 10.1271 12.5732 9.39941 12.1084C9.01315 11.8616 8.65063 11.529 8.38965 11.0723C8.12725 10.6131 8 10.0857 8 9.5C8 8.32523 8.54533 7.41136 9.3418 6.82129C9.83337 6.45716 10.4087 6.22415 11 6.10254V5H13V6.10254Z" fill="#000000"/>
</svg>
