<svg xmlns="http://www.w3.org/2000/svg" width="20" height="20" viewBox="0 0 20 20" fill="none"><rect width="20" height="20" fill="none"/>
<path d="M15.2998 2.95001C16.8172 2.95001 18.0497 4.1771 18.0498 5.69708V14.3026C18.0497 15.8223 16.8174 17.0496 15.2998 17.0496H4.7002C3.18141 17.0496 1.9502 15.8184 1.9502 14.2996V5.70001C1.9502 4.18123 3.18141 2.95001 4.7002 2.95001H15.2998ZM3.4502 8.49982V14.2996C3.4502 14.99 4.00984 15.5496 4.7002 15.5496H15.2998C15.9912 15.5496 16.5497 14.9917 16.5498 14.3026V8.49982H3.4502ZM4.7002 4.45001C4.00984 4.45001 3.4502 5.00966 3.4502 5.70001V6.99982H16.5498V5.69708C16.5497 5.00815 15.9914 4.45001 15.2998 4.45001H4.7002Z" fill="#000000"/>
</svg>
