<svg xmlns="http://www.w3.org/2000/svg" width="20" height="20" viewBox="0 0 20 20" fill="none"><rect width="20" height="20" fill="none"/>
<path d="M16.7925 11.2578C17.1804 11.2579 17.5655 11.3327 17.9243 11.4785C18.2833 11.6244 18.6103 11.8393 18.8843 12.1113L19.0806 12.3252C19.5124 12.8458 19.7544 13.4983 19.7544 14.1787C19.7543 14.9561 19.4383 15.6965 18.8843 16.2461L18.8804 16.25L15.5864 19.4697C15.5092 19.5679 15.4087 19.6488 15.2886 19.6992C15.0098 19.8159 14.6876 19.7539 14.4722 19.542L11.1255 16.2471L11.1235 16.2451C10.5698 15.6956 10.2544 14.9549 10.2544 14.1777C10.2544 13.4007 10.57 12.6608 11.1235 12.1113C11.3975 11.8394 11.7246 11.6244 12.0835 11.4785C12.4424 11.3327 12.8282 11.2578 13.2163 11.2578C13.6042 11.2579 13.9894 11.3327 14.3481 11.4785C14.5829 11.574 14.8019 11.7025 15.0034 11.8535C15.2051 11.7022 15.4246 11.5741 15.6597 11.4785C16.0186 11.3327 16.4044 11.2578 16.7925 11.2578ZM16.7925 12.7578C16.5966 12.7578 16.4024 12.7958 16.2241 12.8682C16.046 12.9406 15.887 13.0462 15.7563 13.1758L15.7524 13.1797L15.5278 13.3984C15.2365 13.683 14.7714 13.6829 14.48 13.3984L14.2563 13.1797L14.2515 13.1758C14.1208 13.0461 13.9619 12.9406 13.7837 12.8682C13.6055 12.7957 13.4121 12.7579 13.2163 12.7578C13.0206 12.7578 12.8271 12.7959 12.6489 12.8682C12.4706 12.9406 12.3109 13.0461 12.1802 13.1758C11.9029 13.451 11.7544 13.8108 11.7544 14.1777C11.7544 14.5438 11.9023 14.9027 12.1782 15.1777L14.9937 17.9512L17.8276 15.1807C18.1051 14.9054 18.2543 14.5458 18.2544 14.1787C18.2544 13.8575 18.1405 13.5415 17.9263 13.2832L17.8276 13.1758C17.697 13.0461 17.538 12.9407 17.3599 12.8682C17.1817 12.7958 16.9882 12.7579 16.7925 12.7578Z" fill="#000000"/>
<path d="M9.00049 13.3105C7.05277 13.5539 6.03566 14.5026 5.47705 15.3975C5.14052 15.9366 4.95623 16.4814 4.85693 16.8945C4.80765 17.0996 4.78004 17.2688 4.76514 17.3828C4.75773 17.4395 4.75279 17.4823 4.75049 17.5088C4.74934 17.522 4.74885 17.5314 4.74854 17.5361L3.25049 17.4629V17.4531C3.25076 17.4484 3.25197 17.4426 3.25244 17.4355C3.25339 17.4213 3.25432 17.4023 3.25635 17.3789C3.2604 17.3322 3.26741 17.2673 3.27783 17.1875C3.29867 17.0282 3.33468 16.8062 3.39795 16.543C3.52403 16.0186 3.76095 15.3132 4.20459 14.6025C5.01628 13.3025 6.47825 12.0604 9.00049 11.7998V13.3105Z" fill="#000000"/>
<path d="M9.99951 2.25C12.0706 2.25 13.7495 3.92893 13.7495 6C13.7495 8.07107 12.0706 9.75 9.99951 9.75C7.92847 9.74997 6.24951 8.07105 6.24951 6C6.24951 3.92895 7.92847 2.25003 9.99951 2.25ZM9.99951 3.75C8.7569 3.75003 7.74951 4.75738 7.74951 6C7.74951 7.24262 8.7569 8.24997 9.99951 8.25C11.2422 8.25 12.2495 7.24264 12.2495 6C12.2495 4.75736 11.2422 3.75 9.99951 3.75Z" fill="#000000"/>
</svg>
