<svg xmlns="http://www.w3.org/2000/svg" width="20" height="20" viewBox="0 0 20 20" fill="none"><rect width="20" height="20" fill="none"/>
<path d="M19 13.5V18C19 18.5523 18.5523 19 18 19H12C11.4477 19 11 18.5523 11 18V13.5L15 11L19 13.5ZM12.5 14.3311V17.5H17.5V14.3311L15 12.7686L12.5 14.3311ZM11.7002 3.94922C13.2189 3.94932 14.4502 5.1805 14.4502 6.69922V7.94922H15.2998C15.3592 7.94922 15.4181 7.95135 15.4766 7.95508C15.4978 7.95643 15.5189 7.95813 15.54 7.95996C15.5856 7.96393 15.6309 7.96941 15.6758 7.97559C15.6882 7.97728 15.7006 7.97861 15.7129 7.98047C15.7615 7.98783 15.8097 7.99695 15.8574 8.00684C15.8711 8.00967 15.8848 8.01259 15.8984 8.01562C15.9402 8.02494 15.9814 8.03567 16.0225 8.04688C16.0423 8.05228 16.0624 8.05666 16.082 8.0625C16.1355 8.07841 16.1882 8.0962 16.2402 8.11523C16.256 8.121 16.2714 8.12774 16.2871 8.13379C16.3178 8.14567 16.3487 8.15697 16.3789 8.16992L16.4238 8.18945C16.4387 8.19615 16.453 8.20399 16.4678 8.21094C16.4949 8.22376 16.5222 8.23632 16.5488 8.25C16.5758 8.26383 16.6024 8.27828 16.6289 8.29297C16.651 8.30524 16.6726 8.3182 16.6943 8.33105C16.7138 8.34258 16.7338 8.35325 16.7529 8.36523L16.7852 8.38672C16.8719 8.44274 16.9555 8.50321 17.0352 8.56836C17.0616 8.58999 17.0867 8.61316 17.1123 8.63574C17.1289 8.65039 17.1459 8.66465 17.1621 8.67969C17.1829 8.69893 17.2034 8.71841 17.2236 8.73828C17.2456 8.75991 17.2668 8.78234 17.2881 8.80469C17.3071 8.82472 17.3263 8.84463 17.3447 8.86523C17.3669 8.89 17.3879 8.91584 17.4092 8.94141C17.4228 8.95775 17.437 8.97358 17.4502 8.99023C17.4526 8.9933 17.4556 8.99595 17.458 8.99902C17.5683 9.139 17.6652 9.28924 17.7471 9.44922H12.9502V6.69922C12.9502 6.00893 12.3905 5.44932 11.7002 5.44922H3.4502V14.5488H9V16.0488H1.9502V3.94922H11.7002Z" fill="#000000"/>
</svg>
