<svg xmlns="http://www.w3.org/2000/svg" width="24" height="24" viewBox="0 0 24 24" fill="none"><rect width="24" height="24" fill="none"/>
<path d="M10.8535 3.13675C11.3527 2.19148 12.7516 2.22278 13.1914 3.2305L15.4931 8.50784L20.9248 9.03128C22.0452 9.13912 22.5083 10.5228 21.6787 11.2832L17.6426 14.9795L18.8369 20.7989C18.9166 21.1875 18.7593 21.5871 18.4355 21.8164C18.1118 22.0454 17.6827 22.0615 17.3428 21.8574L12 18.6485L7.24314 21.5059C6.27298 22.088 5.07273 21.2383 5.29979 20.1299L6.3574 14.9795L2.32127 11.2832C1.4919 10.5228 1.95511 9.13944 3.07518 9.03128L8.50682 8.50784L10.8086 3.2305L10.8535 3.13675ZM10.3398 9.30764C10.0494 9.97315 9.42101 10.4295 8.69822 10.4991L4.83201 10.8701L7.70799 13.5049C8.22668 13.98 8.4578 14.6928 8.31639 15.3819L7.58006 18.9698L10.9707 16.9346C11.6042 16.5542 12.3957 16.5543 13.0293 16.9346L16.4199 18.9698L15.6836 15.3819C15.5422 14.6929 15.7735 13.98 16.292 13.5049L19.167 10.8701L15.3017 10.4991C14.579 10.4293 13.9504 9.97317 13.6601 9.30764L12 5.501L10.3398 9.30764Z" fill="#000000"/>
</svg>
