<svg xmlns="http://www.w3.org/2000/svg" width="20" height="20" viewBox="0 0 20 20" fill="none"><rect width="20" height="20" fill="none"/>
<path d="M2.34961 2.1163C2.56708 1.97893 2.83995 1.96193 3.07227 2.07235L18.3223 9.32235C18.5836 9.44663 18.75 9.7107 18.75 10.0001C18.75 10.2895 18.5836 10.5535 18.3223 10.6778L3.07227 17.9278C2.83992 18.0383 2.56711 18.0213 2.34961 17.8839C2.13214 17.7464 2 17.5074 2 17.2501V11.5245L5.23828 10.0001L2 8.47567V2.75009C2.00004 2.49285 2.13214 2.25371 2.34961 2.1163ZM3.5 7.52352L8.76172 10.0001L3.5 12.4757V16.0626L16.252 10.0001L3.5 3.93759V7.52352Z" fill="#000000"/>
</svg>
