<svg xmlns="http://www.w3.org/2000/svg" width="20" height="20" viewBox="0 0 20 20" fill="none"><rect width="20" height="20" fill="none"/>
<path d="M14.2998 1.9502C15.8186 1.9502 17.0498 3.18141 17.0498 4.7002V8H15.5498V4.7002C15.5498 4.00984 14.9902 3.4502 14.2998 3.4502H5.7002C5.00984 3.4502 4.4502 4.00984 4.4502 4.7002V15.3008C4.45051 15.9909 5.01004 16.5508 5.7002 16.5508H9V18.0508H5.7002C4.18161 18.0508 2.95051 16.8193 2.9502 15.3008V4.7002C2.9502 3.18141 4.18141 1.9502 5.7002 1.9502H14.2998Z" fill="#000000"/>
<path d="M15 13H18V15H15V18H13V15H10V13H13V10H15V13Z" fill="#000000"/>
<path d="M7 13C7.5522 13 7.99987 13.4478 8 14C7.99987 14.5522 7.5522 15 7 15C6.44789 14.9999 6.00013 14.5521 6 14C6.00013 13.4479 6.44789 13.0001 7 13Z" fill="#000000"/>
<path d="M7 10C7.5522 10 7.99987 10.4478 8 11C7.99987 11.5522 7.5522 12 7 12C6.44789 11.9999 6.00013 11.5521 6 11C6.00013 10.4479 6.44789 10.0001 7 10Z" fill="#000000"/>
<path d="M14 7H6V5H14V7Z" fill="#000000"/>
</svg>
