<svg xmlns="http://www.w3.org/2000/svg" width="20" height="20" viewBox="0 0 20 20" fill="none"><rect width="20" height="20" fill="none"/>
<path d="M17 10.9998C17 11.9189 16.8185 12.8292 16.4668 13.6785C16.115 14.5277 15.6001 15.3 14.9502 15.95C14.3002 16.5999 13.5279 17.1148 12.6787 17.4666C11.8294 17.8183 10.9193 17.9998 10 17.9998C9.08075 17.9998 8.17057 17.8183 7.32129 17.4666C6.47207 17.1148 5.69978 16.5999 5.0498 15.95C4.39987 15.3 3.88496 14.5277 3.5332 13.6785C3.18147 12.8292 3 11.9189 3 10.9998C3.00006 8.72798 3.91072 7.03656 4.91016 6.08472L5.86426 5.17749L6.70703 6.76147C6.77076 6.67036 6.83741 6.57338 6.90234 6.46948C7.44596 5.59953 8 4.28061 8 2.49976V0.967529L9.40234 1.58472L9 2.49976C9.38629 1.62174 9.4013 1.58598 9.40234 1.58472L9.4043 1.58569H9.40625C9.40778 1.58637 9.41006 1.5877 9.41211 1.58862C9.41642 1.59055 9.42223 1.59347 9.42871 1.59644C9.44169 1.60236 9.45927 1.60982 9.48047 1.61987C9.52323 1.64016 9.58228 1.66929 9.65527 1.70679C9.80129 1.78179 10.0043 1.89219 10.2461 2.03979C10.7283 2.33422 11.3739 2.78212 12.0342 3.40112C13.0897 4.39074 14.2034 5.84185 14.7246 7.8103L14.9541 7.66187L15.8848 7.0564L16.3896 8.0437L15.5 8.49976L16.3906 8.04468L16.3926 8.04858C16.3935 8.0505 16.3953 8.05303 16.3965 8.05542C16.3989 8.06018 16.4011 8.06639 16.4043 8.073C16.4109 8.08662 16.4199 8.10455 16.4297 8.12573C16.4494 8.16853 16.4755 8.22718 16.5049 8.29956C16.5637 8.44432 16.6378 8.64786 16.7109 8.9021C16.8571 9.41019 17 10.129 17 10.9998ZM5 10.9998C5 11.6562 5.12969 12.3063 5.38086 12.9128C5.63211 13.5194 6.00061 14.0706 6.46484 14.5349C6.92912 14.9992 7.48032 15.3676 8.08691 15.6189C8.69349 15.8701 9.34346 15.9998 10 15.9998C10.6565 15.9998 11.3065 15.8701 11.9131 15.6189C12.5197 15.3676 13.0709 14.9992 13.5352 14.5349C13.9994 14.0706 14.3679 13.5194 14.6191 12.9128C14.8703 12.3063 15 11.6562 15 10.9998C15 10.6519 14.968 10.3386 14.9238 10.0671L14.5459 10.3142L13.1387 11.2302L13.0029 9.5564C12.8286 7.39936 11.7447 5.87135 10.666 4.86011C10.3883 4.59978 10.1125 4.37675 9.85742 4.18823C9.61896 5.59074 9.11205 6.70696 8.59766 7.53003C8.24594 8.09272 7.89182 8.5185 7.62012 8.80835C7.48409 8.95344 7.36801 9.06585 7.28223 9.14429C7.23941 9.18343 7.20337 9.21435 7.17676 9.23706C7.16361 9.24828 7.15228 9.25817 7.14355 9.26538C7.13951 9.26872 7.13584 9.27171 7.13281 9.27417C7.13125 9.27544 7.12923 9.27703 7.12793 9.27808L7.12598 9.27905L7.125 9.28003C7.12114 9.27593 7.07594 9.21968 6.5 8.49976L7.125 9.28003L6.18359 10.0339L5.47656 8.70581C5.19929 9.30487 5.00003 10.0713 5 10.9998Z" fill="#000000"/>
</svg>
