<svg xmlns="http://www.w3.org/2000/svg" width="20" height="20" viewBox="0 0 20 20" fill="none"><rect width="20" height="20" fill="none"/>
<path d="M6.99988 6.45166C6.46137 6.45171 5.92642 6.57232 5.43738 6.81201C4.73638 7.1557 4.16755 7.72123 3.8202 8.42041C3.47292 9.1197 3.36675 9.91489 3.51649 10.6812C3.66635 11.4473 4.0644 12.1427 4.6493 12.6597C5.23445 13.1767 5.97386 13.4871 6.75281 13.5415C7.53179 13.5958 8.30757 13.3912 8.95887 12.9605C9.60988 12.5297 10.1006 11.8956 10.3554 11.1577C10.3733 11.1057 10.3868 11.0521 10.4022 10.9995H11.9491C11.905 11.2182 11.8467 11.4353 11.7733 11.648C11.4108 12.6977 10.7122 13.5987 9.78602 14.2114C8.85951 14.8242 7.75646 15.1149 6.64832 15.0376C5.54024 14.9602 4.48852 14.5192 3.65613 13.7837C2.82388 13.0482 2.25696 12.0583 2.04383 10.9683C1.83092 9.87832 1.98345 8.74808 2.47742 7.75342C2.97155 6.75877 3.77999 5.95425 4.77723 5.46533C5.47295 5.12433 6.23381 4.94982 6.99988 4.94971V6.45166Z" fill="#000000"/>
<path d="M10.1981 5.79834C11.1232 5.18145 12.2263 4.88654 13.3358 4.96045C14.4454 5.03442 15.4998 5.47325 16.3348 6.20752C17.1698 6.94191 17.7398 7.93197 17.955 9.02295C18.17 10.114 18.019 11.2463 17.5253 12.2427C17.0315 13.2389 16.2218 14.0441 15.2235 14.5337C14.5279 14.8748 13.767 15.0482 13.0009 15.0483V13.5474C13.5391 13.547 14.0735 13.4266 14.5624 13.187C15.2641 12.8429 15.8334 12.2769 16.1805 11.5767C16.5276 10.8763 16.6344 10.0799 16.4833 9.31299C16.332 8.54614 15.9315 7.84972 15.3446 7.3335C14.7576 6.81741 14.0161 6.50954 13.2362 6.45752C12.4562 6.40555 11.6805 6.61266 11.0302 7.04639C10.3798 7.48017 9.89027 8.11686 9.63856 8.85694C9.5127 9.22718 9.45015 9.61365 9.45008 9.99951H7.95008C7.95015 9.45063 8.03963 8.9012 8.21863 8.37451C8.57669 7.32167 9.27299 6.41545 10.1981 5.79834Z" fill="#000000"/>
</svg>
