<svg xmlns="http://www.w3.org/2000/svg" width="20" height="20" viewBox="0 0 20 20" fill="none"><rect width="20" height="20" fill="none"/>
<path d="M11.2179 2.19993C12.3228 1.97339 13.5072 2.02344 14.4112 2.47533L14.5441 3.73997L11.8878 5.86595C11.7711 5.95952 11.7614 6.13506 11.8673 6.24095L13.8224 8.19603C13.9272 8.30043 14.099 8.29116 14.1915 8.17552L16.3273 5.5056L17.5753 5.64036C18.0303 6.55079 18.0721 7.73488 17.8419 8.83763C17.6088 9.95387 17.0745 11.1013 16.2364 11.9538C15.6856 12.5142 15.0497 12.9769 14.2247 13.2556C13.4065 13.5319 12.4531 13.6091 11.2901 13.4831C11.1827 13.4717 11.0961 13.5099 11.045 13.5613L7.51768 17.1208C6.26035 18.3898 4.22244 18.3946 2.95909 17.1316C1.68448 15.857 1.68459 13.7792 2.95909 12.5046L6.48057 8.98216C6.53144 8.93119 6.56939 8.84242 6.5587 8.73216C6.44607 7.57937 6.53639 6.63631 6.81847 5.82396C7.1021 5.00727 7.56084 4.37521 8.1046 3.822C8.9486 2.96333 10.1007 2.42903 11.2179 2.19993ZM12.3409 3.57884C12.0792 3.58723 11.8016 3.61692 11.5157 3.67552C10.6237 3.85846 9.75926 4.27811 9.16514 4.88255C8.7311 5.32413 8.41877 5.77172 8.22764 6.322C8.03509 6.87661 7.94775 7.58941 8.04503 8.5847C8.09602 9.10703 7.9289 9.65472 7.53233 10.0515L4.01085 13.574C3.32566 14.2591 3.32471 15.377 4.00987 16.0622C4.68902 16.7412 5.78508 16.7384 6.46104 16.0564L9.98741 12.4968C10.3832 12.0973 10.9296 11.9298 11.4503 11.9861C12.4643 12.0959 13.1899 12.016 13.7501 11.8269C14.3037 11.6399 14.7476 11.329 15.1759 10.8933C15.776 10.2827 16.1958 9.41384 16.381 8.52708C16.4401 8.24396 16.4709 7.96969 16.4806 7.71165L15.3536 9.12083C14.7054 9.93117 13.505 9.99909 12.7716 9.26634L10.8155 7.31029C10.0741 6.56857 10.1411 5.33986 10.9591 4.68529L12.3409 3.57884Z" fill="#000000"/>
</svg>
