<svg xmlns="http://www.w3.org/2000/svg" width="20" height="20" viewBox="0 0 20 20" fill="none"><rect width="20" height="20" fill="none"/>
<path d="M18.9998 12.5C18.9997 12.5462 18.9811 17.507 14.9998 19C11.0184 17.507 10.9998 12.5462 10.9998 12.5L14.9998 11L18.9998 12.5ZM12.6082 13.498C12.6704 13.8518 12.7675 14.2653 12.9167 14.6943C13.2803 15.7393 13.9051 16.7542 14.9998 17.3535C16.0944 16.7542 16.7193 15.7393 17.0828 14.6943C17.232 14.2653 17.3281 13.8518 17.3904 13.498L14.9998 12.6016L12.6082 13.498Z" fill="#000000"/>
<path d="M17.0496 7.08789V8H15.5496V7.91113L9.99976 4.3877L4.44995 7.91113V15.5498H8.99976V17.0498H2.94995V7.08789L9.59839 2.86719L9.99976 2.61133L17.0496 7.08789Z" fill="#000000"/>
</svg>
