<svg xmlns="http://www.w3.org/2000/svg" width="20" height="20" viewBox="0 0 20 20" fill="none"><rect width="20" height="20" fill="none"/>
<path d="M19.0303 12.0303L12.0303 19.0303L10.9697 17.9698L17.9697 10.9698L19.0303 12.0303Z" fill="#000000"/>
<path d="M17.5 16.0001C18.3284 16.0001 19 16.6716 19 17.5001C19 18.3285 18.3284 19.0001 17.5 19.0001C16.6716 19.0001 16 18.3285 16 17.5001C16 16.6716 16.6716 16.0001 17.5 16.0001Z" fill="#000000"/>
<path d="M6.77441 2.41999C6.94818 2.27753 7.17713 2.22065 7.39746 2.26471L18 4.38483V9.00006H16.5V5.61432L8 3.91413V16.5001H9V18.0001H2V8.00006L6.5 7.25006V3.00006L6.50488 2.91608C6.52663 2.72307 6.62254 2.54454 6.77441 2.41999ZM3.5 9.27057V16.5001H6.5V8.77057L3.5 9.27057Z" fill="#000000"/>
<path d="M12.5 11.0001C13.3284 11.0001 14 11.6717 14 12.5001C14 13.3285 13.3284 14.0001 12.5 14.0001C11.6716 14 11 13.3285 11 12.5001C11 11.6717 11.6716 11.0001 12.5 11.0001Z" fill="#000000"/>
</svg>
