<svg xmlns="http://www.w3.org/2000/svg" width="20" height="20" viewBox="0 0 20 20" fill="none"><rect width="20" height="20" fill="none"/>
<path d="M17 11C18.6569 11 20 12.3431 20 14C20 15.6569 18.6569 17 17 17H16V18H18V19H16V20H14V19H13V18H14V17H13V15H14V11H17ZM16 15H17C17.5523 15 18 14.5523 18 14C18 13.4477 17.5523 13 17 13H16V15Z" fill="#000000"/>
<path d="M8 3H12V1H14V3H15C16.6569 3 18 4.34315 18 6V9H4V15C4 15.5523 4.44772 16 5 16H11V18H5C3.34315 18 2 16.6569 2 15V6C2 4.34315 3.34315 3 5 3H6V1H8V3ZM5 5C4.44772 5 4 5.44772 4 6V7H16V6C16 5.44772 15.5523 5 15 5H5Z" fill="#000000"/>
</svg>
