<svg xmlns="http://www.w3.org/2000/svg" width="20" height="20" viewBox="0 0 20 20" fill="none"><rect width="20" height="20" fill="none"/>
<path d="M13 10.7495C13.6902 10.7495 14.2497 11.3093 14.25 11.9995C14.25 12.6898 13.6904 13.2495 13 13.2495C12.3096 13.2495 11.75 12.6898 11.75 11.9995C11.7503 11.3093 12.3098 10.7495 13 10.7495Z" fill="#000000"/>
<path d="M11.3643 2.76508C13.1569 2.11636 15.0496 3.44454 15.0498 5.35102V5.94965H15.2998C16.8185 5.94965 18.0497 7.18099 18.0498 8.69965V15.2993C18.0498 16.818 16.8186 18.0493 15.2998 18.0493H4.7002C3.18141 18.0493 1.9502 16.818 1.9502 15.2993V8.10199C1.95047 6.94461 2.67547 5.91123 3.76367 5.51703L11.3643 2.76508ZM4.7002 7.44965C4.00993 7.44965 3.45035 8.00942 3.4502 8.69965V15.2993C3.4502 15.9896 4.00984 16.5493 4.7002 16.5493H15.2998C15.9902 16.5493 16.5498 15.9896 16.5498 15.2993V8.69965C16.5497 8.00942 15.9901 7.44965 15.2998 7.44965H4.7002ZM13.5498 5.35102C13.5496 4.48447 12.6889 3.88027 11.874 4.17524L6.97363 5.94965H13.5498V5.35102Z" fill="#000000"/>
</svg>
