<svg xmlns="http://www.w3.org/2000/svg" width="20" height="20" viewBox="0 0 20 20" fill="none"><rect width="20" height="20" fill="none"/>
<path d="M13.53 7.53009L11.0603 9.99982L13.53 12.4695L12.4695 13.5301L9.99976 11.0604L7.53003 13.5301L6.46948 12.4695L8.93921 9.99982L6.46948 7.53009L7.53003 6.46954L9.99976 8.93927L12.4695 6.46954L13.53 7.53009Z" fill="#000000"/>
<path fill-rule="evenodd" clip-rule="evenodd" d="M9.99976 1.70001C14.5837 1.70001 18.2995 5.41594 18.2996 9.99982C18.2996 14.5838 14.5837 18.2996 9.99976 18.2996C5.41588 18.2995 1.69995 14.5837 1.69995 9.99982C1.70006 5.41601 5.41595 1.70012 9.99976 1.70001ZM9.99976 3.20001C6.24437 3.20012 3.20006 6.24444 3.19995 9.99982C3.19995 13.7553 6.24431 16.7995 9.99976 16.7996C13.7553 16.7996 16.7996 13.7554 16.7996 9.99982C16.7995 6.24437 13.7552 3.20001 9.99976 3.20001Z" fill="#000000"/>
</svg>
