<svg xmlns="http://www.w3.org/2000/svg" width="20" height="20" viewBox="0 0 20 20" fill="none"><rect width="20" height="20" fill="none"/>
<path d="M8.54688 2.13257C10.3867 1.79274 12.2878 2.10866 13.919 3.02515C15.5502 3.9417 16.809 5.40186 17.4756 7.15015C18.1419 8.89822 18.1741 10.8248 17.5674 12.5945C16.9604 14.3644 15.7525 15.8663 14.1533 16.8376C12.5541 17.8089 10.6648 18.1882 8.81446 17.9109C7.09839 17.6536 5.51587 16.8465 4.30274 15.616L3.39942 16.3962C3.25995 16.5165 3.06549 16.5501 2.89356 16.4841C2.72155 16.4179 2.59896 16.2618 2.57618 16.0789L2.13086 12.5017C2.1102 12.3358 2.17421 12.1705 2.30079 12.0613C2.4273 11.9522 2.59975 11.9131 2.76075 11.9578L6.23536 12.9226C6.41287 12.972 6.54856 13.1158 6.58887 13.2957C6.62895 13.4754 6.5672 13.6626 6.42774 13.783L5.44239 14.6326C6.41833 15.5927 7.67493 16.2234 9.03614 16.4275C10.5396 16.6528 12.0747 16.3445 13.374 15.5554C14.6734 14.7662 15.6553 13.5462 16.1484 12.1082C16.6415 10.6702 16.6148 9.10477 16.0732 7.68433C15.5316 6.26387 14.5089 5.07746 13.1836 4.33276C11.8584 3.58832 10.3141 3.33206 8.81934 3.60815C7.3244 3.88434 5.9728 4.67542 5.00098 5.84448C4.02932 7.01344 3.49847 8.48654 3.5 10.0066L2 10.0085C1.99801 8.13754 2.65166 6.32433 3.84766 4.8855C5.04374 3.44672 6.707 2.47248 8.54688 2.13257Z" fill="#000000"/>
<path d="M10.75 9.68921L12.5303 11.4695L11.4697 12.53L9.25 10.3103V4.99975H10.75V9.68921Z" fill="#000000"/>
</svg>
