<svg xmlns="http://www.w3.org/2000/svg" width="24" height="24" viewBox="0 0 24 24" fill="none"><rect width="24" height="24" fill="none"/>
<path d="M18 10C18.1978 10.0001 18.3959 10.0153 18.5928 10.0449C19.2405 10.1424 19.8547 10.3969 20.3809 10.7871C20.907 11.1774 21.3292 11.6915 21.6104 12.2832C21.8914 12.8749 22.0229 13.5273 21.9932 14.1816C21.9633 14.8359 21.7739 15.4735 21.4404 16.0371C21.1068 16.6008 20.6393 17.074 20.0801 17.415C19.5208 17.756 18.8863 17.9547 18.2324 17.9932C17.9362 18.0105 17.6403 17.9922 17.3496 17.9443C17.0073 18.6829 16.5368 19.3636 15.9502 19.9502C14.6374 21.263 12.8565 22 11 22H9C7.14349 22 5.36256 21.263 4.0498 19.9502C2.73705 18.6374 2 16.8565 2 15V9H18V10ZM4 15L4.00586 15.248C4.06719 16.4838 4.58579 17.6561 5.46484 18.5352C6.40253 19.4728 7.67392 20 9 20H11C12.3261 20 13.5975 19.4728 14.5352 18.5352C15.4728 17.5975 16 16.3261 16 15V11.2197C15.9982 11.1834 15.9978 11.1472 16 11.1113V11H4V15ZM18 12.001V15C18 15.335 17.9738 15.6673 17.9268 15.9951C17.9895 15.9973 18.0523 15.9998 18.1152 15.9961C18.442 15.9769 18.7595 15.8784 19.0391 15.708C19.3186 15.5376 19.5519 15.3003 19.7188 15.0186C19.8855 14.7368 19.9811 14.4179 19.9961 14.0908C20.0109 13.7637 19.9442 13.4374 19.8037 13.1416C19.6632 12.8459 19.4524 12.5887 19.1895 12.3936C18.9264 12.1984 18.6189 12.0712 18.2949 12.0225C18.197 12.0077 18.0984 12.0011 18 12.001Z" fill="#000000"/>
<path d="M9.58398 3.8125C9.39942 3.94498 9.24909 4.12006 9.14746 4.32324C9.04583 4.52651 8.99524 4.75229 9 4.97949C9.00028 4.99317 9.00028 5.00683 9 5.02051C8.99524 5.24771 9.04583 5.47349 9.14746 5.67676C9.24909 5.87995 9.39942 6.05502 9.58398 6.1875L8.41699 7.8125C7.96873 7.49069 7.60615 7.06387 7.35938 6.57031C7.11269 6.07685 6.98949 5.53105 7.00098 4.97949C6.99627 4.4419 7.1188 3.91091 7.35938 3.42969C7.60615 2.93613 7.96873 2.50931 8.41699 2.1875L9.58398 3.8125Z" fill="#000000"/>
<path d="M13.584 3.8125C13.3994 3.94498 13.2491 4.12005 13.1475 4.32324C13.0458 4.52651 12.9952 4.75229 13 4.97949C13.0003 4.99317 13.0003 5.00683 13 5.02051C12.9952 5.24771 13.0458 5.47349 13.1475 5.67676C13.2491 5.87995 13.3994 6.05502 13.584 6.1875L12.417 7.8125C11.9687 7.49069 11.6062 7.06387 11.3594 6.57031C11.1127 6.07686 10.9895 5.53105 11.001 4.97949C10.9963 4.4419 11.1188 3.91091 11.3594 3.42969C11.6062 2.93613 11.9687 2.50931 12.417 2.1875L13.584 3.8125Z" fill="#000000"/>
</svg>
