<svg xmlns="http://www.w3.org/2000/svg" width="20" height="20" viewBox="0 0 20 20" fill="none"><rect width="20" height="20" fill="none"/>
<path d="M6.12207 5.4248C4.82489 6.52754 4.0003 8.16854 4 10C4 11.8316 4.82501 13.4723 6.12207 14.5752V16.9971C3.66645 15.628 2 13.0096 2 10C2.00037 6.99063 3.66644 4.37187 6.12207 3.00293V5.4248Z" fill="#000000"/>
<path d="M13.9268 3.00293C16.3824 4.37199 18.0488 6.99042 18.0488 10C18.0486 13.0095 16.3825 15.6281 13.9268 16.9971V14.5752C15.224 13.4724 16.0487 11.8316 16.0488 10C16.0488 8.1684 15.2239 6.52766 13.9268 5.4248V3.00293Z" fill="#000000"/>
<path d="M11.0098 5.22656C11.4422 5.33444 11.8625 5.5168 12.2295 5.78809C12.9023 6.2857 13.3661 7.06162 13.3662 8.05273H11.3662C11.3661 7.74634 11.2446 7.5479 11.04 7.39648C10.8064 7.2238 10.4415 7.10562 10.0254 7.10547C9.60903 7.10547 9.24359 7.22377 9.00977 7.39648C8.80505 7.54792 8.68368 7.74622 8.68359 8.05273C8.68365 8.24479 8.7235 8.34312 8.75293 8.39453C8.78391 8.44839 8.83902 8.5122 8.95312 8.58496C9.22708 8.75947 9.63715 8.87297 10.2676 9.03027C10.8074 9.16497 11.5691 9.34451 12.1729 9.72949C12.4969 9.93629 12.8082 10.2195 13.0332 10.6123C13.2597 11.008 13.3662 11.4592 13.3662 11.9482C13.366 12.8969 12.8826 13.6566 12.248 14.1494C11.8886 14.4284 11.468 14.6302 11.0254 14.7539V16H9.02539V14.7686C8.59861 14.6602 8.18375 14.4807 7.82129 14.2129C7.14834 13.7154 6.68383 12.9394 6.68359 11.9482H8.68359C8.68379 12.2546 8.805 12.4531 9.00977 12.6045C9.2436 12.7772 9.60911 12.8955 10.0254 12.8955C10.4009 12.8953 10.7678 12.767 11.0215 12.5703C11.264 12.3819 11.366 12.1671 11.3662 11.9482C11.3662 11.7567 11.3273 11.6581 11.2979 11.6064C11.267 11.5525 11.2109 11.4889 11.0967 11.416C10.8228 11.2415 10.4134 11.128 9.7832 10.9707C9.24349 10.836 8.48191 10.6564 7.87793 10.2715C7.5536 10.0647 7.24177 9.78077 7.0166 9.3877C6.79022 8.99206 6.68366 8.54165 6.68359 8.05273C6.68369 7.06147 7.14835 6.28569 7.82129 5.78809C8.1797 5.52327 8.58903 5.34318 9.01074 5.23438L9.00098 4.00781L11 3.99121L11.0098 5.22656Z" fill="#000000"/>
</svg>
