<svg xmlns="http://www.w3.org/2000/svg" width="20" height="20" viewBox="0 0 20 20" fill="none"><rect width="20" height="20" fill="none"/>
<path d="M18.9805 17.4238L18.0195 18.5762L15.5 16.4766L12.9805 18.5762L12.0195 17.4238L15.5 14.5234L18.9805 17.4238Z" fill="#000000"/>
<path d="M11.25 2C12.7688 2 14 3.23122 14 4.75V6H15.25C16.7687 6.00007 18 7.23126 18 8.75V9H16.5V8.75C16.5 8.05968 15.9403 7.50007 15.25 7.5H4.75C4.0597 7.50007 3.5 8.05969 3.5 8.75V15.25C3.5 15.9403 4.0597 16.4999 4.75 16.5H10V18H4.75C3.23127 17.9999 2 16.7687 2 15.25V8.75C2 7.23126 3.23127 6.00007 4.75 6H6V4.75C6 3.23122 7.23122 2 8.75 2H11.25ZM8.75 3.5C8.05964 3.5 7.5 4.05964 7.5 4.75V6H12.5V4.75C12.5 4.05964 11.9404 3.5 11.25 3.5H8.75Z" fill="#000000"/>
<path d="M18.9805 13.4238L18.0195 14.5762L15.5 12.4766L12.9805 14.5762L12.0195 13.4238L15.5 10.5234L18.9805 13.4238Z" fill="#000000"/>
</svg>
