<svg xmlns="http://www.w3.org/2000/svg" width="20" height="20" viewBox="0 0 20 20" fill="none"><rect width="20" height="20" fill="none"/>
<path d="M12.9022 2.34814C14.2338 4.58848 14.9998 7.20425 14.9999 9.99951C14.9999 12.7914 14.2355 15.4045 12.9071 17.6431L11.1923 16.6128C12.3396 14.6751 12.9999 12.4146 12.9999 9.99951C12.9998 7.57231 12.3338 5.30102 11.1757 3.35693L12.9022 2.34814Z" fill="#000000"/>
<path d="M9.44812 4.3667C10.4327 6.01447 10.9998 7.94049 10.9999 9.99951C10.9999 12.0379 10.4428 13.9457 9.47644 15.5825L7.76257 14.5522C8.54763 13.2164 8.99988 11.661 8.99988 9.99951C8.99979 8.30855 8.53273 6.72699 7.72156 5.37549L9.44812 4.3667Z" fill="#000000"/>
<path d="M5.99402 6.38525C6.6317 7.44039 6.99979 8.67673 6.99988 9.99951C6.99988 11.2841 6.6517 12.4871 6.04773 13.522L4.33289 12.4917C4.75581 11.7578 4.99988 10.9073 4.99988 9.99951C4.99979 9.04496 4.73262 8.15274 4.26843 7.39404L5.99402 6.38525Z" fill="#000000"/>
</svg>
