<svg xmlns="http://www.w3.org/2000/svg" width="20" height="20" viewBox="0 0 20 20" fill="none"><rect width="20" height="20" fill="none"/>
<path d="M19 19H11V17H19V19Z" fill="#000000"/>
<path d="M8 3H12V1H14V3H15C16.6569 3 18 4.34315 18 6V9H4V15C4 15.5523 4.44772 16 5 16H9V18H5C3.34315 18 2 16.6569 2 15V6C2 4.34315 3.34315 3 5 3H6V1H8V3ZM5 5C4.44772 5 4 5.44772 4 6V7H16V6C16 5.44772 15.5523 5 15 5H5Z" fill="#000000"/>
<path d="M18.7578 13.9658L11.2578 15.9658L10.7422 14.0342L18.2422 12.0342L18.7578 13.9658Z" fill="#000000"/>
</svg>
