<svg xmlns="http://www.w3.org/2000/svg" width="20" height="20" viewBox="0 0 20 20" fill="none"><rect width="20" height="20" fill="none"/>
<path d="M13.53 8.53027L9.53003 12.5303L8.46948 11.4697L12.4695 7.46973L13.53 8.53027Z" fill="#000000"/>
<path d="M9.99976 2.9502C14.4456 2.9502 18.0495 6.5542 18.0496 11C18.0496 13.3845 17.0122 15.526 15.365 17H4.63452C2.98726 15.526 1.94995 13.3844 1.94995 11C1.95006 6.55426 5.55402 2.9503 9.99976 2.9502ZM9.99976 4.4502C6.38245 4.4503 3.45006 7.38269 3.44995 11C3.44995 12.7432 4.13133 14.3268 5.24194 15.5H14.7576C15.8682 14.3268 16.5496 12.7433 16.5496 11C16.5495 7.38262 13.6172 4.4502 9.99976 4.4502Z" fill="#000000"/>
</svg>
