<svg xmlns="http://www.w3.org/2000/svg" width="20" height="20" viewBox="0 0 20 20" fill="none"><rect width="20" height="20" fill="none"/>
<path d="M15.2637 13.0596C15.4263 12.9726 15.6239 12.9817 15.7773 13.084L18.7773 15.084C18.9164 15.1767 19 15.3329 19 15.5C18.9999 15.6671 18.9164 15.8233 18.7773 15.916L15.7773 17.916C15.624 18.0182 15.4262 18.0274 15.2637 17.9404C15.1014 17.8534 15.0001 17.6841 15 17.5V16.5C13.8954 16.5 13 17.3954 13 18.5V19H11V18.5C11 16.2909 12.7909 14.5 15 14.5V13.5L15.0049 13.4316C15.0265 13.2747 15.1218 13.1358 15.2637 13.0596Z" fill="#000000"/>
<path d="M18 11H16V7.48145L10 11.1738L4 7.48145V14H9V16H2V4H18V11ZM10 8.8252L14.5918 6H5.4082L10 8.8252Z" fill="#000000"/>
</svg>
