<svg xmlns="http://www.w3.org/2000/svg" width="24" height="24" viewBox="0 0 24 24" fill="none"><rect width="24" height="24" fill="none"/>
<path d="M6.63903 2.99124C7.95485 2.61529 9.37275 2.93862 10.3959 3.84769L15.684 8.54886L16.2045 8.4014C18.4093 7.77156 20.7831 8.23203 22.5931 9.63968L22.5941 9.6387C24.0706 10.788 23.5678 13.1357 21.7504 13.5801L16.7123 14.8106L14.598 19.041C14.0111 20.2149 12.8845 21.0262 11.5853 21.2119L9.64196 21.4903C9.33782 21.5337 9.02982 21.4342 8.80798 21.2217C8.58631 21.009 8.47467 20.7061 8.50524 20.4004L8.87243 16.7266L5.32751 17.5928C2.92166 18.18 0.681664 16.151 1.03161 13.6983L1.39684 11.1436L1.39782 11.1426C1.54548 10.1169 2.64742 9.56926 3.53845 10.0059L3.71423 10.1065L5.6693 11.4112L8.06677 10.7256L4.25427 5.1807L4.25134 5.17679C3.83339 4.56204 4.13286 3.70903 4.85583 3.50003H4.85876L6.63903 2.99124ZM10.933 16.2227L10.6224 19.3301L11.3031 19.2325C11.9525 19.1395 12.5155 18.7333 12.809 18.1465L14.1654 15.4326L10.933 16.2227ZM9.06774 5.34183C8.55634 4.88755 7.84679 4.72614 7.18884 4.91409L6.61169 5.07913L10.4447 10.6553C10.4495 10.6622 10.4555 10.67 10.4818 10.7051C10.679 10.9684 10.7342 11.3123 10.6293 11.6241C10.5242 11.9356 10.2725 12.1753 9.95641 12.2657L5.77477 13.461C5.49285 13.5415 5.18972 13.4946 4.94567 13.3321L3.26403 12.211L3.01208 13.9805C2.86223 15.031 3.82205 15.9015 4.85387 15.6494L21.2757 11.6358C21.4687 11.5883 21.5213 11.3397 21.3646 11.2178C20.0583 10.2024 18.3452 9.86992 16.7543 10.3242L15.7054 10.6231C15.3767 10.7168 15.0225 10.6363 14.767 10.4092L9.06774 5.34183Z" fill="#000000"/>
</svg>
