<svg xmlns="http://www.w3.org/2000/svg" width="20" height="20" viewBox="0 0 20 20" fill="none"><rect width="20" height="20" fill="none"/>
<path d="M10 2.00098C11.8527 2.00098 13.557 2.63232 14.9131 3.68945C15.3041 3.40581 15.8546 3.4397 16.207 3.79199C16.5594 4.14435 16.5921 4.69395 16.3086 5.08496C17.3673 6.44157 18 8.14684 18 10.001C18 11.8543 17.3674 13.5587 16.3096 14.915C16.5927 15.306 16.5593 15.8548 16.207 16.207C15.855 16.559 15.3069 16.5922 14.916 16.3096C13.5594 17.3682 11.8541 18.001 10 18.001C8.14559 18.001 6.43972 17.3685 5.08301 16.3096C4.69219 16.5915 4.14473 16.5578 3.79297 16.2061C3.44122 15.8541 3.40701 15.3058 3.68945 14.915C2.63181 13.5588 2 11.8541 2 10.001C2 8.14706 2.632 6.4415 3.69043 5.08496C3.40764 4.69415 3.44107 4.14607 3.79297 3.79395C4.14511 3.4418 4.69406 3.40751 5.08496 3.69043C6.44132 2.6325 8.14657 2.00098 10 2.00098ZM12.0312 13.4453C11.4357 13.7973 10.7419 14.001 10 14.001C9.25748 14.001 8.56269 13.7978 7.9668 13.4453L6.52344 14.8887C7.50453 15.5878 8.70353 16.001 10 16.001C11.296 16.001 12.4947 15.5883 13.4756 14.8896L12.0312 13.4453ZM13.4443 7.96777C13.7969 8.56367 14 9.25845 14 10.001C14 10.7424 13.7969 11.4359 13.4453 12.0312L14.8896 13.4756C15.5878 12.4949 16 11.2965 16 10.001C16 8.70471 15.5876 7.50542 14.8887 6.52441L13.4443 7.96777ZM5.11035 6.52539C4.41194 7.50619 4 8.70519 4 10.001C4 11.296 4.41172 12.4941 5.10938 13.4746L6.55371 12.0303C6.20256 11.4352 6 10.7419 6 10.001C6 9.25911 6.20177 8.5643 6.55371 7.96875L5.11035 6.52539ZM10 8.00098C8.89543 8.00098 8 8.89641 8 10.001C8 11.1055 8.89543 12.001 10 12.001C11.1046 12.001 12 11.1055 12 10.001C12 8.89641 11.1046 8.00098 10 8.00098ZM10 4.00098C8.70422 4.00098 7.50521 4.41291 6.52441 5.11133L7.96777 6.55469C8.56332 6.20274 9.25813 6.00098 10 6.00098C10.741 6.00098 11.4342 6.20354 12.0293 6.55469L13.4736 5.11035C12.4932 4.4127 11.295 4.00098 10 4.00098Z" fill="#000000"/>
</svg>
