<svg xmlns="http://www.w3.org/2000/svg" width="20" height="20" viewBox="0 0 20 20" fill="none"><rect width="20" height="20" fill="none"/>
<path d="M8.81738 2.50623C10.8749 1.82056 12.9996 3.3522 13 5.52088V5.9994H11V5.52088C10.9996 4.71742 10.2126 4.14995 9.4502 4.40369C8.64805 4.67107 8.37987 5.67203 8.94141 6.30408L10.6279 8.20057L16.9785 11.5873C17.9151 12.0869 18.4998 13.0629 18.5 14.1244C18.5 15.7122 17.2128 16.9994 15.625 16.9994H4.375C2.78719 16.9994 1.5 15.7122 1.5 14.1244C1.50017 13.0628 2.08573 12.0869 3.02246 11.5873L8.4082 8.71326L7.44727 7.63221C5.93182 5.92701 6.65309 3.22766 8.81738 2.50623ZM3.96289 13.3519C3.67795 13.5039 3.50017 13.8015 3.5 14.1244C3.5 14.6076 3.89175 14.9994 4.375 14.9994H15.625C16.1082 14.9994 16.5 14.6076 16.5 14.1244C16.4998 13.8014 16.3221 13.5039 16.0371 13.3519L10 10.1322L3.96289 13.3519Z" fill="#000000"/>
</svg>
