<svg xmlns="http://www.w3.org/2000/svg" width="24" height="24" viewBox="0 0 24 24" fill="none"><rect width="24" height="24" fill="none"/>
<path d="M14 7C16.2091 7 18 8.79086 18 11C18 13.2091 16.2091 15 14 15C11.7909 15 10 13.2091 10 11C10 8.79086 11.7909 7 14 7ZM14 9C12.8954 9 12 9.89543 12 11C12 12.1046 12.8954 13 14 13C15.1046 13 16 12.1046 16 11C16 9.89543 15.1046 9 14 9Z" fill="#000000"/>
<path d="M8 14H6V8H8V14Z" fill="#000000"/>
<path d="M18.2061 3.00488C20.3194 3.11211 22 4.85996 22 7V15C22 16.8638 20.7252 18.43 19 18.874V21H17V19H7V21H5V18.874C3.27477 18.43 2 16.8638 2 15V7C2 4.79086 3.79086 3 6 3H18L18.2061 3.00488ZM6 5C4.89543 5 4 5.89543 4 7V15C4 16.1046 4.89543 17 6 17H18C19.1046 17 20 16.1046 20 15V7C20 5.96435 19.2128 5.113 18.2041 5.01074L18 5H6Z" fill="#000000"/>
</svg>
