<svg xmlns="http://www.w3.org/2000/svg" width="20" height="20" viewBox="0 0 20 20" fill="none"><rect width="20" height="20" fill="none"/>
<path d="M16.75 11.0003C16.75 11.8867 16.5755 12.7644 16.2363 13.5833C15.8971 14.4022 15.4002 15.147 14.7734 15.7737C14.1466 16.4005 13.4019 16.8974 12.583 17.2366C11.7641 17.5758 10.8864 17.7503 10 17.7503C9.11364 17.7503 8.23589 17.5758 7.41699 17.2366C6.59806 16.8974 5.85335 16.4005 5.22656 15.7737C4.59978 15.147 4.10289 14.4022 3.76367 13.5833C3.4245 12.7644 3.25001 11.8867 3.25 11.0003C3.25 8.79641 4.13342 7.1713 5.08301 6.26691L5.79785 5.58527L6.67188 7.22784C6.81088 7.05232 6.96313 6.84464 7.11426 6.60284C7.67827 5.70039 8.24999 4.33612 8.25 2.50031V1.35089L9.30176 1.81378L9.30371 1.81476H9.30566C9.30696 1.81535 9.30875 1.81688 9.31055 1.81769C9.31427 1.81936 9.31949 1.82192 9.3252 1.82452C9.33709 1.82996 9.35311 1.83752 9.37305 1.84698C9.41359 1.86622 9.4704 1.89372 9.54102 1.92999C9.68219 2.00251 9.88017 2.1101 10.1162 2.25421C10.5872 2.54182 11.2183 2.97958 11.8633 3.58429C12.9544 4.6073 14.1011 6.12847 14.5635 8.21417L15.7881 7.41827L16.168 8.15851L16.1699 8.16241C16.1707 8.16398 16.1709 8.16627 16.1719 8.16827C16.1739 8.17231 16.1768 8.17708 16.1797 8.18292C16.1856 8.19511 16.194 8.212 16.2031 8.23175C16.2213 8.27116 16.2447 8.32566 16.2725 8.39386C16.3283 8.5313 16.4002 8.7269 16.4707 8.97198C16.6115 9.4617 16.75 10.1569 16.75 11.0003ZM4.75 11.0003C4.75001 11.6896 4.88568 12.3723 5.14941 13.0091C5.41325 13.646 5.80059 14.2247 6.28809 14.7122C6.77559 15.1997 7.35427 15.5871 7.99121 15.8509C8.62807 16.1146 9.31069 16.2503 10 16.2503C10.6893 16.2503 11.3719 16.1146 12.0088 15.8509C12.6457 15.5871 13.2244 15.1997 13.7119 14.7122C14.1994 14.2247 14.5867 13.646 14.8506 13.0091C15.1143 12.3723 15.25 11.6896 15.25 11.0003C15.25 10.4672 15.1799 10.0115 15.0977 9.65656L13.3535 10.7923L13.252 9.53644C13.0712 7.29976 11.9459 5.71769 10.8369 4.67804C10.4243 4.29125 10.0175 3.98324 9.66992 3.74933C9.47286 5.30437 8.93283 6.52243 8.38574 7.39777C8.04372 7.94498 7.69992 8.35809 7.4375 8.638C7.30615 8.7781 7.19471 8.88582 7.11328 8.96027C7.07266 8.9974 7.03916 9.02626 7.01465 9.04718C7.0024 9.05763 6.99214 9.06616 6.98438 9.07257C6.9806 9.07568 6.97726 9.07823 6.97461 9.08038L6.96973 9.08527C6.96662 9.08194 6.9305 9.03843 6.5 8.50031L6.96875 9.08624L6.2627 9.6507L5.47559 8.17218C5.06973 8.85395 4.75 9.80136 4.75 11.0003Z" fill="#000000"/>
</svg>
