<svg xmlns="http://www.w3.org/2000/svg" width="24" height="24" viewBox="0 0 24 24" fill="none"><rect width="24" height="24" fill="none"/>
<path d="M12.0002 4C12.3039 4.00002 12.5917 4.1378 12.7814 4.375L16.2082 8.6582L19.9455 6.16797C20.2709 5.95105 20.6928 5.94389 21.0256 6.14941C21.3583 6.35509 21.5409 6.73586 21.4924 7.12402L19.883 20H4.11736L2.50798 7.12402C2.45946 6.73584 2.642 6.35508 2.97478 6.14941C3.30752 5.94392 3.72944 5.95103 4.05486 6.16797L7.79119 8.6582L11.2189 4.375L11.2951 4.29102C11.4814 4.10577 11.7344 4 12.0002 4ZM8.78142 10.625C8.4574 11.03 7.87707 11.1197 7.44548 10.832L4.76287 9.04395L5.88298 18H18.1174L19.2365 9.04395L16.5549 10.832C16.1233 11.1198 15.543 11.03 15.2189 10.625L12.0002 6.60156L8.78142 10.625Z" fill="#000000"/>
</svg>
