<svg xmlns="http://www.w3.org/2000/svg" width="20" height="20" viewBox="0 0 20 20" fill="none"><rect width="20" height="20" fill="none"/>
<path d="M13.5429 2.54302C14.6238 1.46225 16.3761 1.46219 17.4569 2.54302C18.5378 3.62387 18.5377 5.37619 17.4569 6.45708L14.2069 9.70708C13.8164 10.0976 13.1834 10.0976 12.7929 9.70708L12.2499 9.16411L10.414 11.0001L12.7069 13.293C12.9519 13.538 13.053 13.8924 12.9735 14.2295C12.8939 14.5667 12.6449 14.8386 12.3163 14.9483L3.31631 17.9483C2.95697 18.0681 2.5607 17.9749 2.29287 17.7071C2.02505 17.4393 1.93188 17.043 2.05166 16.6836L5.05166 7.68364L5.09951 7.5645C5.22961 7.29557 5.47527 7.09609 5.77041 7.02642C6.10757 6.94699 6.46197 7.04807 6.70693 7.29302L8.9999 9.58599L10.8358 7.75005L10.2929 7.20708C9.90236 6.81656 9.90235 6.18354 10.2929 5.79302L13.5429 2.54302ZM4.57998 15.419L10.1483 13.5626L6.43642 9.85064L4.57998 15.419ZM16.0429 3.95708C15.7431 3.6573 15.2568 3.65736 14.9569 3.95708L12.414 6.50005L13.4999 7.58599L16.0429 5.04302C16.3426 4.74318 16.3427 4.25688 16.0429 3.95708Z" fill="#000000"/>
</svg>
