<svg xmlns="http://www.w3.org/2000/svg" width="20" height="20" viewBox="0 0 20 20" fill="none"><rect width="20" height="20" fill="none"/>
<path d="M19 19H11V17.5H19V19Z" fill="#000000"/>
<path d="M10.415 3.17773C11.905 1.93613 14.0963 2.03583 15.4678 3.40722L16.0303 3.96972C16.2084 4.14788 16.2849 4.40361 16.2344 4.65039C16.1837 4.89733 16.0124 5.10265 15.7783 5.19628C14.7369 5.61286 14.118 5.91486 13.6719 6.24414C13.3839 6.45672 13.1537 6.69225 12.9268 7.00976L18.4502 6.11914V6.99999C18.4502 7.21469 18.4428 7.42703 18.4307 7.63671L16.9072 7.88671L12.582 8.58496C11.6068 8.74202 10.7631 7.7068 11.3076 6.76269L11.4629 6.50292C11.8296 5.9134 12.2245 5.44807 12.7812 5.0371C13.1662 4.75299 13.615 4.50459 14.1572 4.25488C13.3355 3.64256 12.1837 3.65617 11.375 4.33007L10.4795 5.07617L10 5.47656L8.62402 4.33007C7.8152 3.6562 6.66348 3.64231 5.8418 4.25488C6.38426 4.50469 6.83366 4.75287 7.21875 5.0371C7.85482 5.50663 8.27952 6.04698 8.69238 6.76269C9.237 7.70689 8.39233 8.74227 7.41699 8.58496L3.09082 7.88671C3.21021 9.11685 3.58446 10.1186 4.16992 10.8398C4.87181 11.7044 5.94541 12.25 7.5 12.25H8.6377L6.99902 16.0723L7.10352 16.1123C7.71944 16.3433 8.35635 16.4956 9 16.5742V18.084C8.17748 17.9991 7.36289 17.8122 6.57715 17.5176L5.00098 16.9268L6.39746 13.667C4.97173 13.4484 3.82603 12.7966 3.00488 11.7852C2.00036 10.5477 1.5498 8.85991 1.5498 6.99999V6.11914L7.07129 7.00976C6.84454 6.6926 6.61495 6.45657 6.32715 6.24414C5.88111 5.91498 5.26267 5.61269 4.22168 5.19628C3.98762 5.10265 3.81534 4.89733 3.76465 4.65039C3.71419 4.4036 3.79159 4.14785 3.96973 3.96972L4.53223 3.40722C5.90366 2.03583 8.095 1.93613 9.58496 3.17773L9.99902 3.52343L10.415 3.17773Z" fill="#000000"/>
<path d="M19 16.5H11V15H19V16.5Z" fill="#000000"/>
<path d="M18.7959 11.1894L11.7959 14.1894L11.2051 12.8105L18.2051 9.81054L18.7959 11.1894Z" fill="#000000"/>
</svg>
