<svg xmlns="http://www.w3.org/2000/svg" width="20" height="20" viewBox="0 0 20 20" fill="none"><rect width="20" height="20" fill="none"/>
<path d="M18.5303 12.5303L16.0605 15.0001L18.5303 17.4698L17.4697 18.5303L15 16.0606L12.5303 18.5303L11.4697 17.4698L13.9395 15.0001L11.4697 12.5303L12.5303 11.4698L15 13.9395L17.4697 11.4698L18.5303 12.5303Z" fill="#000000"/>
<path d="M6.77441 2.41999C6.94818 2.27753 7.17713 2.22065 7.39746 2.26471L18 4.38483V9.00006H16.5V5.61432L8 3.91413V16.5001H9V18.0001H2V8.00006L6.5 7.25006V3.00006L6.50488 2.91608C6.52663 2.72307 6.62254 2.54454 6.77441 2.41999ZM3.5 9.27057V16.5001H6.5V8.77057L3.5 9.27057Z" fill="#000000"/>
</svg>
