<svg xmlns="http://www.w3.org/2000/svg" width="20" height="20" viewBox="0 0 20 20" fill="none"><rect width="20" height="20" fill="none"/>
<path d="M6.65135 5.24121C7.08407 5.61273 7.56582 6.33236 7.90233 6.9668C8.08021 7.30219 8.24505 7.66534 8.35741 8.01074C8.45477 8.31008 8.5728 8.76753 8.4785 9.20898C8.37482 9.69415 8.05822 10.094 7.87596 10.3145C7.80661 10.3983 7.73219 10.4824 7.66698 10.5566C7.69399 10.6183 7.72887 10.6913 7.77635 10.7734C7.92685 11.0336 8.15124 11.3206 8.41893 11.5898C8.68648 11.8589 8.97401 12.0861 9.23631 12.2412C9.31072 12.2852 9.378 12.3194 9.43651 12.3467C9.50797 12.2813 9.58683 12.2096 9.66795 12.1406C9.89632 11.9465 10.2971 11.6269 10.792 11.5215C11.2322 11.4279 11.6889 11.5444 11.9892 11.6416C12.3349 11.7535 12.6986 11.918 13.0342 12.0957C13.6683 12.4315 14.3902 12.9139 14.7627 13.3525L15 13.6328V14.3984C14.9998 16.3154 13.5445 18.2587 11.3301 18.0938C6.07076 17.7014 2.29957 13.9292 1.90721 8.66992C1.74226 6.45534 3.68546 5 5.60252 5H6.37108L6.65135 5.24121ZM5.55858 7.00098C4.51489 7.02137 3.84528 7.76916 3.90135 8.52148C4.22006 12.7934 7.2066 15.7808 11.4785 16.0996C12.232 16.1555 12.9801 15.4831 12.998 14.4365C12.788 14.2738 12.4712 14.0606 12.0986 13.8633C11.8295 13.7208 11.5763 13.6095 11.374 13.5439C11.2848 13.5151 11.224 13.5019 11.1885 13.4951C11.1861 13.4965 11.1832 13.4984 11.1806 13.5C11.1259 13.5338 11.0542 13.5865 10.9629 13.6641C10.8711 13.7421 10.7808 13.8271 10.6738 13.9258C10.5763 14.0157 10.453 14.1281 10.332 14.2246C10.1481 14.3712 9.9177 14.4483 9.6826 14.4424C9.14674 14.4285 8.63287 14.2077 8.21874 13.9629C7.78635 13.7073 7.36623 13.3684 6.99999 13C6.63396 12.6318 6.29674 12.2099 6.04491 11.7744C5.80382 11.3575 5.58798 10.8362 5.58788 10.292C5.58786 10.0821 5.65364 9.8773 5.77635 9.70703C5.87159 9.57503 5.98382 9.44498 6.07323 9.34277C6.17317 9.22852 6.25477 9.13701 6.33495 9.04004C6.41306 8.94554 6.46728 8.87291 6.50194 8.81641L6.50389 8.81152C6.49692 8.77594 6.48438 8.71603 6.45604 8.62891C6.3902 8.42657 6.27874 8.17296 6.13573 7.90332C5.93767 7.52995 5.72197 7.21252 5.55858 7.00098Z" fill="#000000"/>
<path d="M9.99999 6C10.5251 6 11.0451 6.10377 11.5303 6.30469C12.0156 6.5057 12.4567 6.80045 12.8281 7.17188C13.1995 7.5433 13.4943 7.98443 13.6953 8.46973C13.8962 8.95494 14 9.47483 14 10H12C12 9.73736 11.9482 9.47703 11.8476 9.23438C11.7471 8.99183 11.5997 8.77158 11.414 8.58594C11.2284 8.4003 11.0082 8.25285 10.7656 8.15234C10.523 8.05185 10.2626 8 9.99999 8V6Z" fill="#000000"/>
<path d="M9.99999 2C11.0505 2 12.0909 2.20735 13.0615 2.60938C14.032 3.01141 14.9144 3.59997 15.6572 4.34277C16.4 5.08559 16.9886 5.96795 17.3906 6.93848C17.7926 7.90908 18 8.94943 18 10H16C16 9.21209 15.8445 8.43204 15.543 7.7041C15.2414 6.97615 14.7993 6.31496 14.2422 5.75781C13.685 5.20067 13.0238 4.75856 12.2959 4.45703C11.568 4.15553 10.7879 4 9.99999 4V2Z" fill="#000000"/>
</svg>
