<svg xmlns="http://www.w3.org/2000/svg" width="20" height="20" viewBox="0 0 20 20" fill="none"><rect width="20" height="20" fill="none"/>
<path d="M10.793 10.793C11.0607 10.5254 11.4573 10.4322 11.8164 10.5518L19.3164 13.0518C19.7098 13.183 19.9814 13.5437 19.999 13.958C20.0162 14.3727 19.775 14.7554 19.3936 14.9189L16.2617 16.2607L14.9189 19.3936C14.7553 19.7749 14.3727 20.0163 13.958 19.999C13.5437 19.9815 13.1831 19.7098 13.0518 19.3164L10.5518 11.8164C10.4322 11.4573 10.5255 11.0607 10.793 10.793ZM14.1162 16.1895L14.7393 14.7383L16.1895 14.1162L13.0801 13.0801L14.1162 16.1895Z" fill="#000000"/>
<path d="M15 2C16.6569 2 18 3.34315 18 5V10H16V5C16 4.44772 15.5523 4 15 4H5C4.44772 4 4 4.44772 4 5V15C4 15.5523 4.44772 16 5 16H10V18H5C3.34315 18 2 16.6569 2 15V5C2 3.34315 3.34315 2 5 2H15Z" fill="#000000"/>
<path d="M9 12H6V10H9V12Z" fill="#000000"/>
<path d="M13 8H6V6H13V8Z" fill="#000000"/>
</svg>
