<svg xmlns="http://www.w3.org/2000/svg" width="24" height="24" viewBox="0 0 24 24" fill="none"><rect width="24" height="24" fill="none"/>
<path d="M17.9988 14C20.2079 14 21.9988 15.7909 21.9988 18C21.9988 20.2091 20.2079 22 17.9988 22C15.7898 21.9998 13.9988 20.209 13.9988 18C13.9988 15.791 15.7898 14.0002 17.9988 14ZM17.9988 16C16.8944 16.0002 15.9988 16.8956 15.9988 18C15.9988 19.1044 16.8944 19.9998 17.9988 20C19.1034 20 19.9988 19.1046 19.9988 18C19.9988 16.8954 19.1034 16 17.9988 16Z" fill="#000000"/>
<path d="M11.9998 2C12.0301 2.03014 15.0299 4.99981 20.9988 5C20.9989 6.24128 21.1684 9.02301 20.6609 12H18.6316C18.9846 10.1399 19.0312 8.32881 19.0222 6.89648C16.6307 6.64833 14.7383 5.98055 13.3552 5.28906C12.8271 5.02495 12.3757 4.75553 11.9988 4.50977C11.622 4.75541 11.1712 5.02513 10.6433 5.28906C9.26006 5.9806 7.36732 6.64843 4.97535 6.89648C4.96437 8.67248 5.03971 11.0307 5.6775 13.3428C6.49826 16.3178 8.15206 18.8897 11.6541 19.8633L11.9988 19.9521V21.999L11.5388 21.8994C2.03091 19.6277 2.99906 7.95313 2.99879 5C8.97577 5 11.9766 2.02312 11.9998 2Z" fill="#000000"/>
</svg>
