<svg xmlns="http://www.w3.org/2000/svg" width="20" height="20" viewBox="0 0 20 20" fill="none"><rect width="20" height="20" fill="none"/>
<path d="M19.0303 12.0303L12.0303 19.0303L10.9697 17.9697L17.9697 10.9697L19.0303 12.0303Z" fill="#000000"/>
<path d="M17.5 16C18.3284 16 19 16.6716 19 17.5C19 18.3284 18.3284 19 17.5 19C16.6716 19 16 18.3284 16 17.5C16 16.6716 16.6716 16 17.5 16Z" fill="#000000"/>
<path d="M13.4336 3.25C14.0483 3.25002 14.6183 3.57251 14.9346 4.09961L16.375 6.5H18.5V7C18.5 7.55228 18.0523 8 17.5 8H15.5254L13.6484 4.87109C13.6033 4.79586 13.5214 4.75002 13.4336 4.75H6.56641C6.47864 4.75 6.39676 4.79586 6.35156 4.87109L3.76953 9.17383L4.18262 13.5498H9V15.0498H4.75V16.5H3.25V15.0498H2.81738L2.25293 9.07031L2.23047 8.8252L2.35645 8.61426L2.72461 8H2.5C1.94772 8 1.5 7.55228 1.5 7V6.5H3.625L5.06543 4.09961C5.3817 3.57251 5.9517 3.25 6.56641 3.25H13.4336Z" fill="#000000"/>
<path d="M12.5 11C13.3284 11 14 11.6716 14 12.5C14 13.3284 13.3284 14 12.5 14C11.6716 14 11 13.3284 11 12.5C11 11.6716 11.6716 11 12.5 11Z" fill="#000000"/>
<path d="M6.57129 9.14355C7.04458 9.14355 7.42856 9.52674 7.42871 10C7.42871 10.4734 7.04468 10.8574 6.57129 10.8574H5.71484C5.24146 10.8574 4.85742 10.4734 4.85742 10C4.85757 9.52674 5.24155 9.14355 5.71484 9.14355H6.57129Z" fill="#000000"/>
</svg>
