<svg xmlns="http://www.w3.org/2000/svg" width="24" height="24" viewBox="0 0 24 24" fill="none"><rect width="24" height="24" fill="none"/>
<path d="M16.9998 17H14.9998V10.4141L8.11597 17.2979L6.7019 15.8838L13.5857 9H6.99976V7H16.9998V17Z" fill="#000000"/>
<path d="M16.9998 3C19.2089 3 20.9998 4.79086 20.9998 7V17C20.9998 19.2091 19.2089 21 16.9998 21H6.99976C4.79062 21 2.99976 19.2091 2.99976 17V7C2.99976 4.79086 4.79062 3 6.99976 3H16.9998ZM6.99976 5C5.89519 5 4.99976 5.89543 4.99976 7V17C4.99976 18.1046 5.89519 19 6.99976 19H16.9998C18.1043 19 18.9998 18.1046 18.9998 17V7C18.9998 5.89543 18.1043 5 16.9998 5H6.99976Z" fill="#000000"/>
</svg>
