<svg xmlns="http://www.w3.org/2000/svg" width="20" height="20" viewBox="0 0 20 20" fill="none"><rect width="20" height="20" fill="none"/>
<path d="M7 12.9998C7.5522 12.9998 7.99987 13.4476 8 13.9998C8 14.552 7.55228 14.9998 7 14.9998C6.4478 14.9997 6 14.552 6 13.9998C6.00013 13.4476 6.44789 12.9999 7 12.9998Z" fill="#000000"/>
<path d="M10 12.9998C10.5522 12.9998 10.9999 13.4476 11 13.9998C11 14.552 10.5523 14.9998 10 14.9998C9.4478 14.9997 9 14.552 9 13.9998C9.00013 13.4476 9.44789 12.9999 10 12.9998Z" fill="#000000"/>
<path d="M13 9.99976C13.5522 9.99976 13.9999 10.4476 14 10.9998V13.9998C14 14.552 13.5523 14.9998 13 14.9998C12.4478 14.9997 12 14.552 12 13.9998V10.9998C12.0001 10.4476 12.4479 9.99986 13 9.99976Z" fill="#000000"/>
<path d="M7 9.99976C7.5522 9.99976 7.99987 10.4476 8 10.9998C8 11.552 7.55228 11.9998 7 11.9998C6.4478 11.9997 6 11.552 6 10.9998C6.00013 10.4476 6.44789 9.99986 7 9.99976Z" fill="#000000"/>
<path d="M10 9.99976C10.5522 9.99976 10.9999 10.4476 11 10.9998C11 11.552 10.5523 11.9998 10 11.9998C9.4478 11.9997 9 11.552 9 10.9998C9.00013 10.4476 9.44789 9.99986 10 9.99976Z" fill="#000000"/>
<path d="M14 6.99976H6V4.99976H14V6.99976Z" fill="#000000"/>
<path d="M14.2998 1.94995C15.8186 1.94995 17.0498 3.18117 17.0498 4.69995V15.3005C17.0496 16.8192 15.8185 18.0505 14.2998 18.0505H5.7002C4.18153 18.0505 2.95038 16.8192 2.9502 15.3005V4.69995C2.9502 3.18117 4.18141 1.94995 5.7002 1.94995H14.2998ZM5.7002 3.44995C5.00984 3.44995 4.4502 4.0096 4.4502 4.69995V15.3005C4.45038 15.9907 5.00995 16.5505 5.7002 16.5505H14.2998C14.99 16.5505 15.5496 15.9907 15.5498 15.3005V4.69995C15.5498 4.00959 14.9902 3.44995 14.2998 3.44995H5.7002Z" fill="#000000"/>
</svg>
