<svg xmlns="http://www.w3.org/2000/svg" width="20" height="20" viewBox="0 0 20 20" fill="none"><rect width="20" height="20" fill="none"/>
<path d="M13 4H16V7L19 10H16.1719L14 7.82812V6H12.1719L10 3.82812L7.82812 6H6V7.82812L3.82812 10L6 12.1719V14H7.82812L10 16.1719V19L7 16H4V13L1 10L4 7V4H7L10 1L13 4Z" fill="#000000"/>
<path d="M16.5 15H17.5L17.5684 15.0049C17.7252 15.0266 17.8643 15.1218 17.9404 15.2637C18.0274 15.4262 18.0182 15.624 17.916 15.7773L15.916 18.7773C15.8233 18.9163 15.667 18.9999 15.5 19C15.333 18.9999 15.1767 18.9163 15.084 18.7773L13.084 15.7773C12.9818 15.624 12.9726 15.4262 13.0596 15.2637C13.1466 15.1015 13.3159 15.0001 13.5 15H14.5V12H16.5V15Z" fill="#000000"/>
<path d="M13.207 9.20703L9.5 12.9141L6.79297 10.207L8.20703 8.79297L9.5 10.0859L11.793 7.79297L13.207 9.20703Z" fill="#000000"/>
</svg>
