<svg xmlns="http://www.w3.org/2000/svg" width="20" height="20" viewBox="0 0 20 20" fill="none"><rect width="20" height="20" fill="none"/>
<path d="M10 12C10.6904 12 11.25 12.5596 11.25 13.25C11.25 13.9404 10.6904 14.5 10 14.5C9.30964 14.5 8.75 13.9404 8.75 13.25C8.75 12.5596 9.30964 12 10 12Z" fill="#000000"/>
<path d="M11 11H9L8.75 6H11.25L11 11Z" fill="#000000"/>
<path d="M15 2C16.6569 2 18 3.34315 18 5V15C18 16.6569 16.6569 18 15 18H5C3.34315 18 2 16.6569 2 15V5C2 3.34315 3.34315 2 5 2H15ZM5 4C4.44772 4 4 4.44772 4 5V15C4 15.5523 4.44772 16 5 16H15C15.5523 16 16 15.5523 16 15V5C16 4.44772 15.5523 4 15 4H5Z" fill="#000000"/>
</svg>
