<svg xmlns="http://www.w3.org/2000/svg" width="24" height="24" viewBox="0 0 24 24" fill="none"><rect width="24" height="24" fill="none"/>
<path d="M22.207 15.2076L15.207 22.2076L13.793 20.7935L20.793 13.7935L22.207 15.2076Z" fill="#000000"/>
<path d="M20.5 19.0005C21.3284 19.0005 22 19.6721 22 20.5005C21.9998 21.3288 21.3283 22.0005 20.5 22.0005C19.6717 22.0005 19.0002 21.3288 19 20.5005C19 19.6721 19.6716 19.0006 20.5 19.0005Z" fill="#000000"/>
<path d="M12.5674 3.00053C15.1734 2.06454 17.9196 3.99626 17.9199 6.76518V7.00053H18C20.2091 7.00053 21.9999 8.79146 22 11.0005V12.0005H20V11.0005C19.9999 9.89603 19.1045 9.00053 18 9.00053H6C4.89548 9.00053 4.00008 9.89603 4 11.0005V17.0005C4.00038 18.1048 4.89566 19.0005 6 19.0005H12V21.0005H6C3.79109 21.0005 2.00038 19.2094 2 17.0005V9.60991C2.0002 7.92246 3.0594 6.41586 4.64746 5.84526L12.5674 3.00053ZM15.9199 6.76518C15.9196 5.38088 14.5461 4.41447 13.2432 4.88237L7.34668 7.00053H15.9199V6.76518Z" fill="#000000"/>
<path d="M15.5 14.0005C16.3284 14.0005 17 14.6721 17 15.5005C16.9998 16.3288 16.3283 17.0005 15.5 17.0005C14.6717 17.0005 14.0002 16.3288 14 15.5005C14 14.6721 14.6716 14.0006 15.5 14.0005Z" fill="#000000"/>
</svg>
