<svg xmlns="http://www.w3.org/2000/svg" width="20" height="20" viewBox="0 0 20 20" fill="none"><rect width="20" height="20" fill="none"/>
<path d="M5.92673 3.24874C7.04097 3.06317 8.17856 3.35722 9.06052 4.05245L9.23337 4.196L9.23435 4.19698L12.4287 7.02217C13.9681 6.70811 15.5739 6.95284 16.9541 7.71944C18.6464 8.66053 18.2967 11.1931 16.4111 11.6374L13.5781 12.3034L12.0781 15.1501C11.4955 16.2555 10.4297 17.0247 9.19724 17.2302L7.66404 17.486C7.34712 17.5388 7.02406 17.4359 6.79587 17.2097C6.56796 16.9836 6.46186 16.6616 6.51169 16.3444L6.90037 13.8737L5.21287 14.2712C3.1045 14.7665 1.18125 12.9327 1.57615 10.8034L1.87595 9.18721C2.06305 8.18638 3.16102 7.67346 4.03513 8.12569L4.20701 8.22921L5.19236 8.91378L6.08396 8.67842L3.75388 5.18331L3.75193 5.1794C3.34501 4.56333 3.65042 3.73161 4.3447 3.5212L4.48826 3.488L5.92673 3.24874ZM9.00291 13.3786L8.7031 15.2858L8.86814 15.2575C9.48442 15.1548 10.0173 14.7702 10.3086 14.2175L10.997 12.9099L9.00291 13.3786ZM6.25486 5.22042L6.18845 5.23116L8.45505 8.6296C8.46379 8.64268 8.47666 8.66072 8.49998 8.6921C8.69777 8.95839 8.7511 9.30575 8.64158 9.61885C8.53187 9.93199 8.27386 10.1708 7.9531 10.2556L5.25584 10.9665C4.97263 11.0411 4.67016 10.9871 4.42966 10.82L3.70115 10.3132L3.54294 11.1687C3.41151 11.8786 4.05246 12.489 4.75486 12.3239L15.9521 9.68917C15.9935 9.67935 16.0084 9.66521 16.0156 9.65694C16.0267 9.64403 16.0385 9.62104 16.0429 9.58956C16.0473 9.55785 16.0423 9.53187 16.0351 9.51632C16.0305 9.50634 16.0204 9.48818 15.9834 9.46749C14.9458 8.89114 13.7246 8.73786 12.5771 9.03975L12.4101 9.0837C12.0877 9.16807 11.7438 9.08565 11.4941 8.86495L7.90818 5.69503C7.45689 5.29644 6.84916 5.12141 6.25486 5.22042Z" fill="#000000"/>
</svg>
