<svg xmlns="http://www.w3.org/2000/svg" width="20" height="20" viewBox="0 0 20 20" fill="none"><rect width="20" height="20" fill="none"/>
<path d="M18.707 12.7067L16.4141 14.9997L18.707 17.2927L17.293 18.7067L15 16.4138L12.707 18.7067L11.293 17.2927L13.5859 14.9997L11.293 12.7067L12.707 11.2927L15 13.5857L17.293 11.2927L18.707 12.7067Z" fill="#000000"/>
<path d="M7.37402 2.22042C7.61057 2.03067 7.92076 1.95841 8.2168 2.02413L18 4.19893V9.00069H16V5.80245L9 4.24678V18.0007H2V9.00069L7 7.57198V3.00069C7 2.69756 7.13769 2.41022 7.37402 2.22042ZM4 10.5085V16.0007H7V9.65206L4 10.5085Z" fill="#000000"/>
</svg>
