<svg xmlns="http://www.w3.org/2000/svg" width="20" height="20" viewBox="0 0 20 20" fill="none"><rect width="20" height="20" fill="none"/>
<path d="M4.5 13C5.88071 13 7 14.1193 7 15.5C6.99987 16.8806 5.88063 18 4.5 18C3.11937 18 2.00013 16.8806 2 15.5C2 14.1193 3.11929 13 4.5 13ZM4.5 14.5C3.94772 14.5 3.5 14.9477 3.5 15.5C3.50013 16.0522 3.94779 16.5 4.5 16.5C5.05221 16.5 5.49987 16.0522 5.5 15.5C5.5 14.9477 5.05228 14.5 4.5 14.5Z" fill="#000000"/>
<path d="M12 5.49999H6.3252C5.28966 5.49999 4.4502 6.33946 4.4502 7.37499C4.45032 8.41042 5.28974 9.24999 6.3252 9.24999H13.6748C15.5388 9.24999 17.0498 10.761 17.0498 12.625C17.0497 14.4888 15.5387 16 13.6748 16H8.5V14.5H13.6748C14.7103 14.5 15.5497 13.6604 15.5498 12.625C15.5498 11.5895 14.7103 10.75 13.6748 10.75H6.3252C4.46131 10.75 2.95032 9.23885 2.9502 7.37499C2.9502 5.51103 4.46123 3.99999 6.3252 3.99999H12V5.49999Z" fill="#000000"/>
<path d="M14.2637 2.30956C14.4263 2.22256 14.6239 2.23169 14.7773 2.33398L17.7773 4.33398C17.9164 4.42672 18 4.58286 18 4.74999C17.9999 4.91708 17.9164 5.07332 17.7773 5.16601L14.7773 7.16601C14.624 7.26821 14.4262 7.27736 14.2637 7.19042C14.1014 7.10337 14.0001 6.93412 14 6.74999V2.74999L14.0049 2.68164C14.0265 2.52473 14.1218 2.38575 14.2637 2.30956Z" fill="#000000"/>
</svg>
