<svg xmlns="http://www.w3.org/2000/svg" width="24" height="24" viewBox="0 0 24 24" fill="none"><rect width="24" height="24" fill="none"/>
<path d="M11.5874 13.8281L10.1732 12.4139L11.5874 10.9997L13.0016 12.4139L11.5874 13.8281Z" fill="#000000"/>
<path d="M18.365 12.1218L19.0721 12.8289L11.4155 20.4855C9.85345 22.0475 7.32072 22.0474 5.75863 20.4855L3.51578 18.2427C1.9537 16.6806 1.95375 14.1479 3.51578 12.5858L11.1724 4.9292L11.8795 5.6363L15.1223 2.39355L21.6078 8.87905L18.365 12.1218ZM4.92999 14C4.14901 14.7811 4.14896 16.0475 4.92999 16.8285L7.17284 19.0713C7.95389 19.8521 9.22029 19.8522 10.0013 19.0713L16.2437 12.8289L11.1724 7.75762L4.92999 14ZM13.2937 7.05052L16.9508 10.7076L18.7793 8.87905L15.1223 5.22198L13.2937 7.05052Z" fill="#000000"/>
</svg>
