<svg xmlns="http://www.w3.org/2000/svg" width="24" height="24" viewBox="0 0 24 24" fill="none"><rect width="24" height="24" fill="none"/>
<path d="M16 11.9996C17.1046 11.9996 18 12.8951 18 13.9996C18 15.1042 17.1046 15.9996 16 15.9996C14.8954 15.9996 14 15.1042 14 13.9996C14 12.8951 14.8954 11.9996 16 11.9996Z" fill="#000000"/>
<path d="M12.5674 3.00062C15.1736 2.06445 17.9199 3.99604 17.9199 6.76527V6.99965H18C20.2091 6.99965 22 8.79051 22 10.9996V16.9996C22 19.2088 20.2091 20.9996 18 20.9996H6C3.79087 20.9996 2.00002 19.2088 2 16.9996V9.61C2 7.92235 3.05924 6.41601 4.64746 5.84535L12.5674 3.00062ZM6 8.99965C4.89543 8.99965 4 9.89508 4 10.9996V16.9996C4.00002 18.1042 4.89544 18.9996 6 18.9996H18C19.1046 18.9996 20 18.1042 20 16.9996V10.9996C20 9.89508 19.1046 8.99965 18 8.99965H6ZM15.9199 6.76527C15.9199 5.38066 14.5463 4.41437 13.2432 4.88246L7.34961 6.99965H15.9199V6.76527Z" fill="#000000"/>
</svg>
