<svg xmlns="http://www.w3.org/2000/svg" width="20" height="20" viewBox="0 0 20 20" fill="none"><rect width="20" height="20" fill="none"/>
<path d="M10 2C12.7614 2 15 4.23858 15 7C15 7.46495 14.9351 7.91468 14.8164 8.3418C16.6796 9.06865 18 10.8795 18 13C18 15.7614 15.7614 18 13 18C11.874 18 10.8356 17.6273 10 16.999C9.16423 17.627 8.1259 18 7 18C4.23858 18 2 15.7614 2 13C2 10.8796 3.32048 9.06947 5.18359 8.34277C5.0647 7.91539 5 7.46528 5 7C5 4.23858 7.23858 2 10 2ZM5.7998 9.71191C4.45794 10.2015 3.5 11.4886 3.5 13C3.5 14.933 5.067 16.5 7 16.5C8.933 16.5 10.5 14.933 10.5 13C10.5 12.6472 10.4458 12.3073 10.3486 11.9863C10.2334 11.9943 10.1172 12 10 12C8.23842 12 6.69043 11.0885 5.7998 9.71191ZM14.1992 9.71191C13.6323 10.5879 12.7996 11.2742 11.8145 11.6582C11.9337 12.0853 12 12.5348 12 13C12 14.0875 11.6511 15.0926 11.0615 15.9131C11.6166 16.2832 12.2828 16.5 13 16.5C14.933 16.5 16.5 14.933 16.5 13C16.5 11.4883 15.5415 10.2012 14.1992 9.71191ZM10 3.5C8.067 3.5 6.5 5.067 6.5 7C6.5 8.933 8.067 10.5 10 10.5C11.933 10.5 13.5 8.933 13.5 7C13.5 5.067 11.933 3.5 10 3.5Z" fill="#000000"/>
</svg>
