<svg xmlns="http://www.w3.org/2000/svg" width="20" height="20" viewBox="0 0 20 20" fill="none"><rect width="20" height="20" fill="none"/>
<path d="M15.5 11.9998C17.433 11.9998 19 13.5668 19 15.4998C19 17.4328 17.433 18.9998 15.5 18.9998C13.567 18.9998 12 17.4328 12 15.4998C12 13.5668 13.567 11.9998 15.5 11.9998ZM15.5 13.9998C14.6716 13.9998 14 14.6714 14 15.4998C14 16.3282 14.6716 16.9998 15.5 16.9998C16.3284 16.9998 17 16.3282 17 15.4998C17 14.6714 16.3284 13.9998 15.5 13.9998Z" fill="#000000"/>
<path d="M10.3994 2.53199C11.9859 1.47458 14.0981 1.68384 15.4463 3.03199L16.207 3.79274C16.4446 4.03041 16.547 4.37175 16.4795 4.70094C16.4118 5.03001 16.183 5.30369 15.8711 5.42848C14.8299 5.84497 14.2368 6.13764 13.8184 6.44703C13.722 6.51829 13.6314 6.5916 13.5459 6.67164L19 5.83375V6.99977C19 8.1318 18.8493 9.13632 18.5312 9.99977H16.3086C16.5987 9.5544 16.8191 8.96485 16.9258 8.17652L12.6074 8.84156C11.4442 9.0202 10.4324 7.78216 11.0859 6.64625C11.5107 5.90828 11.9565 5.33594 12.6289 4.83863C12.9472 4.60324 13.3055 4.39283 13.7148 4.18922C13.0555 3.75595 12.1866 3.74436 11.5088 4.19606L10 5.20192L8.49121 4.19606C7.81316 3.7442 6.94356 3.7555 6.28418 4.18922C6.6939 4.39295 7.05255 4.60309 7.37109 4.83863C8.04352 5.33594 8.48928 5.90828 8.91406 6.64625C9.56762 7.78216 8.55581 9.0202 7.39258 8.84156L3.07227 8.17652C3.22621 9.33264 3.61481 10.0625 4.11816 10.53C4.78928 11.1531 5.86379 11.4998 7.5 11.4998H9.03906L7.15234 15.7429C8.06938 16.0925 9.03474 16.2662 10 16.2664V18.2693C8.46795 18.2692 6.93576 17.9183 5.52832 17.2146L5.38672 17.1443L4.53223 16.7166L6.00391 13.4021C4.74648 13.2284 3.62791 12.8039 2.75684 11.9949C1.53838 10.863 1.00006 9.16725 1 6.99977V5.83375L6.4541 6.67262C6.3685 6.5924 6.27818 6.51843 6.18164 6.44703C5.76322 6.13764 5.17009 5.84497 4.12891 5.42848C3.81696 5.30369 3.58821 5.03001 3.52051 4.70094C3.45295 4.37175 3.55541 4.03041 3.79297 3.79274L4.55371 3.03199C5.90188 1.68384 8.01414 1.47458 9.60059 2.53199L10 2.79762L10.3994 2.53199Z" fill="#000000"/>
</svg>
