<svg xmlns="http://www.w3.org/2000/svg" width="24" height="24" viewBox="0 0 24 24" fill="none"><rect width="24" height="24" fill="none"/>
<path d="M22.207 15.2069L15.207 22.2069L13.793 20.7929L20.793 13.7929L22.207 15.2069Z" fill="#000000"/>
<path d="M20.5 18.9999C21.3284 18.9999 21.9999 19.6716 22 20.4999C22 21.3283 21.3284 21.9999 20.5 21.9999C19.6716 21.9999 19 21.3283 19 20.4999C19.0001 19.6716 19.6717 19 20.5 18.9999Z" fill="#000000"/>
<path d="M9.40332 2.19717C9.65676 2.00887 9.98464 1.95128 10.2871 2.0419L21 5.25577V10.9999H19V6.74405L11 4.34366V20.9999H3V10.9999L9 8.74991V2.99991L9.00684 2.88272C9.03891 2.61144 9.18142 2.36228 9.40332 2.19717ZM5 12.3857V18.9999H9V10.8857L5 12.3857Z" fill="#000000"/>
<path d="M15.5 13.9999C16.3284 13.9999 16.9999 14.6716 17 15.4999C17 16.3283 16.3284 16.9999 15.5 16.9999C14.6716 16.9999 14 16.3283 14 15.4999C14.0001 14.6716 14.6717 13.9999 15.5 13.9999Z" fill="#000000"/>
</svg>
