<svg xmlns="http://www.w3.org/2000/svg" width="20" height="20" viewBox="0 0 20 20" fill="none"><rect width="20" height="20" fill="none"/>
<path d="M7.97394 2.28051C9.05261 1.06734 10.948 1.06727 12.0267 2.28051C12.415 2.71725 12.9347 3.01715 13.5071 3.135C15.0972 3.46257 16.0461 5.10492 15.5345 6.64574L15.4739 6.85571C15.3531 7.34969 15.3733 7.8693 15.5345 8.35473C15.8517 9.31038 15.6062 10.3045 14.9954 11.0002H15.0003V17.0002C15.0002 17.3301 14.8369 17.639 14.5648 17.8254C14.2928 18.0115 13.9463 18.0517 13.639 17.9329L10.1224 16.5676L6.34113 17.9407C6.03486 18.0517 5.69294 18.0064 5.42609 17.8196C5.15912 17.6324 5.00037 17.3263 5.00031 17.0002V11.0002H5.00421C4.39343 10.3044 4.14884 9.31043 4.46613 8.35473C4.6273 7.86936 4.6475 7.34963 4.52668 6.85571L4.46613 6.64574C3.97049 5.15294 4.84504 3.5646 6.34601 3.16918L6.49347 3.135C6.99427 3.03182 7.45435 2.7893 7.8216 2.43774L7.97394 2.28051ZM13.0003 12.0237C12.63 12.1798 12.2965 12.4164 12.0267 12.72L11.9241 12.8303C10.8665 13.8971 9.13423 13.8968 8.07648 12.8303L7.97394 12.72C7.70423 12.4165 7.37041 12.1798 7.00031 12.0237V15.5725L9.79328 14.5598L9.87921 14.5334C10.0825 14.4799 10.299 14.491 10.4964 14.5676L13.0003 15.5393V12.0237ZM10.5325 3.60961C10.2495 3.29112 9.75121 3.29118 9.46808 3.60961C8.79345 4.36849 7.89131 4.88915 6.89679 5.09399C6.47939 5.1799 6.23027 5.61142 6.36457 6.01586C6.6844 6.97955 6.68447 8.02094 6.36457 8.98461C6.23031 9.38904 6.47941 9.82057 6.89679 9.90649C7.89128 10.1113 8.79346 10.632 9.46808 11.3909C9.75124 11.7091 10.2495 11.7093 10.5325 11.3909C11.2072 10.6319 12.1092 10.1113 13.1038 9.90649C13.5209 9.82041 13.7701 9.38885 13.6361 8.98461C13.3161 8.02086 13.3161 6.97962 13.6361 6.01586C13.7703 5.61156 13.521 5.18012 13.1038 5.09399C12.1093 4.88923 11.2072 4.36841 10.5325 3.60961Z" fill="#000000"/>
</svg>
