<svg xmlns="http://www.w3.org/2000/svg" width="20" height="20" viewBox="0 0 20 20" fill="none"><rect width="20" height="20" fill="none"/>
<path d="M11.7578 11.0624C11.9167 10.9744 12.1106 10.9799 12.2646 11.0761L16.2646 13.5761L16.3174 13.6132C16.4322 13.7074 16.5 13.8491 16.5 13.9999C16.5 14.1723 16.4108 14.3324 16.2646 14.4237L12.2646 16.9237C12.1106 17.0199 11.9167 17.0253 11.7578 16.9374C11.5989 16.8493 11.5 16.6816 11.5 16.4999V14.9999H3.99902V12.9999H11.5V11.4999C11.5 11.3182 11.5989 11.1505 11.7578 11.0624Z" fill="#000000"/>
<path d="M7.73535 3.07607C7.88938 2.97989 8.08331 2.97445 8.24219 3.0624C8.40114 3.15052 8.5 3.31815 8.5 3.4999V4.9999H16V6.9999H8.5V8.4999C8.49996 8.68162 8.40113 8.8493 8.24219 8.9374C8.08334 9.02532 7.88936 9.01987 7.73535 8.92373L3.73535 6.42373L3.68262 6.38662C3.56779 6.2924 3.50003 6.15065 3.5 5.9999C3.5 5.82752 3.58919 5.66744 3.73535 5.57607L7.73535 3.07607Z" fill="#000000"/>
</svg>
