<svg xmlns="http://www.w3.org/2000/svg" width="24" height="24" viewBox="0 0 24 24" fill="none"><rect width="24" height="24" fill="none"/>
<path d="M23 15C23 15 23 21.5 18 23C13 21.5 13 15 13 15L18 13L23 15ZM15.1387 16.2988C15.216 16.7449 15.3343 17.2591 15.5156 17.7852C15.97 19.1029 16.7238 20.2665 18 20.8643C19.2762 20.2665 20.03 19.1029 20.4844 17.7852C20.6657 17.2592 20.783 16.7449 20.8604 16.2988L18 15.1543L15.1387 16.2988Z" fill="#000000"/>
<path d="M13 3C15.2091 3 17 4.79086 17 7H18C20.2091 7 22 8.79086 22 11H20C20 9.89543 19.1046 9 18 9H6C4.89543 9 4 9.89543 4 11V17C4 18.1046 4.89543 19 6 19H12V21H6C3.79086 21 2 19.2091 2 17V11C2 8.79086 3.79086 7 6 7H7C7 4.79086 8.79086 3 11 3H13ZM11 5C9.89543 5 9 5.89543 9 7H15C15 5.89543 14.1046 5 13 5H11Z" fill="#000000"/>
</svg>
