<svg xmlns="http://www.w3.org/2000/svg" width="24" height="24" viewBox="0 0 24 24" fill="none"><rect width="24" height="24" fill="none"/>
<path d="M21.4062 8.58691C21.767 8.74744 21.9998 9.10516 22 9.5V13H20V11.0391L19 11.4834V14.916C18.9999 16.2524 18.2901 17.4887 17.1357 18.1621C13.9623 20.0132 10.0377 20.0132 6.86426 18.1621C5.78196 17.5308 5.09 16.4046 5.00781 15.165L5 14.916V11.4834L2.59375 10.4141C2.23291 10.2536 2.00025 9.89487 2 9.5C2.00019 9.10516 2.23302 8.74744 2.59375 8.58691L12 4.40625L21.4062 8.58691ZM12 14.5957L7 12.3721V14.916L7.00391 15.0322C7.04231 15.6121 7.36578 16.1392 7.87207 16.4346C10.4228 17.9224 13.5772 17.9224 16.1279 16.4346C16.6679 16.1196 16.9999 15.5411 17 14.916V12.3721L12 14.5957ZM5.46191 9.5L12 12.4062L18.5371 9.5L12 6.59473L5.46191 9.5Z" fill="#000000"/>
</svg>
