<svg xmlns="http://www.w3.org/2000/svg" width="24" height="24" viewBox="0 0 24 24" fill="none"><rect width="24" height="24" fill="none"/>
<path d="M22 23H14V21H22V23Z" fill="#000000"/>
<path d="M5.02832 3.86817C6.44327 1.60469 9.63663 1.33601 11.4102 3.33107L12 3.99415L12.5898 3.33107C14.3634 1.33601 17.5567 1.60469 18.9717 3.86817L19.3477 4.46974C19.5045 4.72083 19.5421 5.02911 19.4502 5.31056C19.3582 5.59198 19.146 5.81873 18.8711 5.92872C17.4606 6.493 16.6258 7.21438 15.9688 8.11329L23 6.79493V8.00001C23 9.09303 22.8641 10.0953 22.6074 11H20.5049C20.704 10.4745 20.8501 9.88163 20.9297 9.21681L16.1641 10.1113C15.3593 10.2622 14.6179 9.91535 14.2002 9.34181C13.7728 8.75454 13.6774 7.91001 14.1709 7.18751C14.874 6.15836 15.7454 5.29008 17.0127 4.59571C16.2266 3.78269 14.875 3.77064 14.085 4.65919L12 7.00489L9.91504 4.65919C9.1248 3.77046 7.77233 3.7822 6.98633 4.59571C8.25399 5.29015 9.12585 6.15816 9.8291 7.18751C10.3226 7.91001 10.2272 8.75454 9.7998 9.34181C9.38214 9.91535 8.64074 10.2622 7.83594 10.1113L3.06934 9.21681C3.26773 10.875 3.87595 12.0868 4.70703 12.918C5.73251 13.9434 7.20795 14.5 9 14.5H10.6182L8.3457 19.043C9.50885 19.56 10.7545 19.8175 12 19.8174V21.8193C10.3147 21.8193 8.62936 21.4323 7.08105 20.6582L5.6582 19.9473L7.44238 16.377C5.84929 16.1196 4.41244 15.4515 3.29297 14.332C1.81556 12.8546 1.00004 10.7026 1 8.00001V6.79493L8.03027 8.11329C7.37325 7.2146 6.53917 6.4929 5.12891 5.92872C4.85399 5.81873 4.64185 5.59198 4.5498 5.31056C4.4579 5.02911 4.49547 4.72083 4.65234 4.46974L5.02832 3.86817Z" fill="#000000"/>
<path d="M22 20H14V18H22V20Z" fill="#000000"/>
<path d="M21.7578 14.9658L14.2578 16.9658L13.7422 15.0342L21.2422 13.0342L21.7578 14.9658Z" fill="#000000"/>
</svg>
