<svg xmlns="http://www.w3.org/2000/svg" width="20" height="20" viewBox="0 0 20 20" fill="none"><rect width="20" height="20" fill="none"/>
<path d="M11 3.09961C13.2821 3.56296 14.9998 5.58126 15 8V10.1719C15 10.2531 15.0169 10.3336 15.0488 10.4082L16.4189 13.6064C16.5512 13.9153 16.519 14.2703 16.334 14.5508C16.149 14.8311 15.8358 14.9998 15.5 15H13C13 16.6569 11.6569 18 10 18C8.34315 18 7 16.6569 7 15H4.5C4.1639 15 3.85009 14.8313 3.66504 14.5508C3.48003 14.2702 3.44871 13.9154 3.58105 13.6064L4.95117 10.4082C4.98316 10.3336 4.99997 10.2531 5 10.1719V8C5 5.58108 6.71776 3.56288 9 3.09961V1H11V3.09961ZM9 15C9 15.5523 9.44772 16 10 16C10.5523 16 11 15.5523 11 15H9ZM10 5C8.34322 5.00004 7 6.34322 7 8V10.1719C6.99997 10.5239 6.92872 10.8727 6.79004 11.1963L6.0166 13H13.9834L13.21 11.1953C13.0715 10.8719 13 10.5237 13 10.1719V8C12.9999 6.34333 11.6566 5.00008 10 5Z" fill="#000000"/>
<path d="M13.9268 1.03027C16.0825 2.24744 17.6165 4.4345 17.9365 7L15.9189 7.01074C15.6175 5.19364 14.4989 3.65304 12.9541 2.77734L13.9268 1.03027Z" fill="#000000"/>
<path d="M7.04785 2.77637C5.5029 3.65138 4.38536 5.19131 4.08301 7.00781L2.06348 6.99707C2.38434 4.43204 3.91923 2.24581 6.0752 1.0293L7.04785 2.77637Z" fill="#000000"/>
</svg>
