<svg xmlns="http://www.w3.org/2000/svg" width="20" height="20" viewBox="0 0 20 20" fill="none"><rect width="20" height="20" fill="none"/>
<path d="M16.2637 4.29102L5.26367 17.291L3.73633 16L14.7363 3L16.2637 4.29102Z" fill="#000000"/>
<path d="M14 11.1455C15.6567 11.1455 16.9998 12.4888 17 14.1455C17 15.8024 15.6569 17.1455 14 17.1455C12.3431 17.1455 11 15.8024 11 14.1455C11.0002 12.4888 12.3433 11.1455 14 11.1455ZM14 13.1455C13.4478 13.1455 13.0002 13.5934 13 14.1455C13 14.6978 13.4477 15.1455 14 15.1455C14.5523 15.1455 15 14.6978 15 14.1455C14.9998 13.5934 14.5522 13.1455 14 13.1455Z" fill="#000000"/>
<path d="M6 3.14551C7.65674 3.14551 8.99982 4.4888 9 6.14551C9 7.80236 7.65685 9.14551 6 9.14551C4.34315 9.14551 3 7.80236 3 6.14551C3.00018 4.4888 4.34326 3.14551 6 3.14551ZM6 5.14551C5.44782 5.14551 5.00018 5.59337 5 6.14551C5 6.69779 5.44772 7.14551 6 7.14551C6.55228 7.14551 7 6.69779 7 6.14551C6.99982 5.59337 6.55218 5.14551 6 5.14551Z" fill="#000000"/>
</svg>
