<svg xmlns="http://www.w3.org/2000/svg" width="24" height="24" viewBox="0 0 24 24" fill="none"><rect width="24" height="24" fill="none"/>
<path d="M3 5.78876L5.69 10.5517V13.4553L3.00433 18.2086L3 5.78876Z" fill="#575EAA"/>
<path d="M13.3253 8.81806L15.8444 7.28809L21 7.28432L13.3253 11.9436V8.81806Z" fill="#DC195B"/>
<path d="M13.3112 5.76135L13.3253 12.0656L10.6299 10.4254V1L13.3112 5.76135Z" fill="#FCB52E"/>
<path d="M21 7.28432L15.8444 7.28809L13.3112 5.76135L10.6299 1L21 7.28432Z" fill="#F47733"/>
<path d="M13.3253 18.2354V15.176L10.6304 13.5665V23L13.3253 18.2354Z" fill="#60BB46"/>
<path d="M15.8384 16.7189L5.69 10.5517L3 5.78876L20.9897 16.713L15.8384 16.7189Z" fill="#108ACB"/>
<path d="M10.6304 23L13.3253 18.2354L15.8384 16.7189L20.9897 16.713L10.6304 23Z" fill="#118442"/>
<path d="M3.00433 18.2086L10.6509 13.5665L8.07986 12.0038L5.69 13.4553L3.00433 18.2086Z" fill="#9150A0"/>
</svg>
