<svg xmlns="http://www.w3.org/2000/svg" width="20" height="20" viewBox="0 0 20 20" fill="none"><rect width="20" height="20" fill="none"/>
<path d="M13.7199 2.71978C14.7031 1.73664 16.2972 1.73663 17.2804 2.71978C18.2637 3.703 18.2636 5.29707 17.2804 6.28033L14.0304 9.53033C13.7375 9.82322 13.2628 9.82322 12.9699 9.53033L12.2502 8.8106L10.0607 11.0001L12.5304 13.4698C12.7126 13.6519 12.7886 13.9149 12.7316 14.1661C12.6744 14.4173 12.4922 14.6225 12.2492 14.7081L2.99919 17.9581C2.72706 18.0537 2.42385 17.9843 2.21989 17.7803C2.01598 17.5764 1.94656 17.2731 2.04216 17.001L5.29216 7.75103L5.33025 7.66314C5.43008 7.46468 5.61432 7.31864 5.83415 7.26861C6.08533 7.21162 6.34828 7.28766 6.53044 7.46978L9.00017 9.93951L11.1896 7.75006L10.4699 7.03033C10.1771 6.73743 10.177 6.26265 10.4699 5.96978L13.7199 2.71978ZM3.97575 16.0235L10.6261 13.6866L6.31267 9.3731L3.97575 16.0235ZM16.2199 3.78033C15.8225 3.38296 15.1779 3.38298 14.7804 3.78033L12.0607 6.50006L13.5002 7.93951L16.2199 5.21978C16.6173 4.82231 16.6173 4.17776 16.2199 3.78033Z" fill="#000000"/>
</svg>
