<svg xmlns="http://www.w3.org/2000/svg" width="24" height="24" viewBox="0 0 24 24" fill="none"><rect width="24" height="24" fill="none"/>
<path d="M10.6973 2.08469C13.1031 1.76867 15.5426 2.33838 17.5596 3.68723C19.5764 5.0361 21.0343 7.0728 21.6611 9.41673C22.2878 11.7607 22.0402 14.2531 20.9658 16.4284C19.8911 18.6039 18.0618 20.3152 15.8193 21.2419C13.5767 22.1686 11.0734 22.2478 8.77637 21.4656C7.42522 21.0054 6.20061 20.2647 5.17383 19.3054L4.51758 19.9626C4.38745 20.0925 4.19653 20.1405 4.02051 20.0876C3.84402 20.0342 3.70999 19.8876 3.67383 19.7068L2.9668 16.1716C2.93402 16.0077 2.98535 15.8377 3.10352 15.7195C3.22173 15.6012 3.39173 15.55 3.55566 15.5827L7.09082 16.2898C7.27153 16.3259 7.41816 16.4592 7.47168 16.6355C7.52483 16.8117 7.47673 17.0033 7.34668 17.1335L6.58887 17.8904C7.39994 18.6356 8.36167 19.2122 9.4209 19.573C11.2585 20.1988 13.2616 20.1347 15.0557 19.3933C16.8495 18.6519 18.3131 17.283 19.1729 15.5427C20.0323 13.8024 20.2298 11.8084 19.7285 9.93333C19.2271 8.05827 18.0606 6.42938 16.4473 5.35032C14.8337 4.27126 12.8826 3.81528 10.958 4.06809C9.03344 4.32093 7.26646 5.26519 5.98633 6.72434C4.70627 8.18356 4.00012 10.0587 4 11.9997H2C2.00012 9.57334 2.88233 7.22905 4.48242 5.40501C6.08255 3.58109 8.2916 2.40077 10.6973 2.08469Z" fill="#000000"/>
<path d="M13 11.5857L15.707 14.2927L14.293 15.7068L11 12.4138V6.99973H13V11.5857Z" fill="#000000"/>
</svg>
