<svg xmlns="http://www.w3.org/2000/svg" width="20" height="20" viewBox="0 0 20 20" fill="none"><rect width="20" height="20" fill="none"/>
<path d="M17.4356 7.13971C17.7008 7.32917 17.8133 7.66818 17.714 7.97858C17.6144 8.28895 17.3261 8.50006 17.0001 8.50006H15.7501V15.5001H17.0001V17.0001H3.0001V15.5001H4.2501V8.50006H3.0001C2.67414 8.50004 2.38578 8.28895 2.28623 7.97858C2.18688 7.66821 2.29941 7.32918 2.56455 7.13971L10.0001 1.82819L17.4356 7.13971ZM5.7501 8.50006V15.5001H9.2501V8.50006H5.7501ZM10.7501 8.50006V15.5001H14.2501V8.50006H10.7501ZM5.34092 7.00006H14.6603L10.0001 3.67096L5.34092 7.00006Z" fill="#000000"/>
</svg>
