<svg xmlns="http://www.w3.org/2000/svg" width="20" height="20" viewBox="0 0 20 20" fill="none"><rect width="20" height="20" fill="none"/>
<path d="M10 12C10.5523 12 11 12.4477 11 13C11 13.5523 10.5523 14 10 14C9.44772 14 9 13.5523 9 13C9 12.4477 9.44772 12 10 12Z" fill="#000000"/>
<path d="M10.75 11H9.25L9 6H11L10.75 11Z" fill="#000000"/>
<path d="M15.2998 1.9502C16.8185 1.95033 18.0498 3.18149 18.0498 4.7002V15.2998C18.0497 16.8184 16.8184 18.0497 15.2998 18.0498H4.7002C3.18148 18.0498 1.9503 16.8185 1.9502 15.2998V4.7002C1.9502 3.18141 3.18141 1.9502 4.7002 1.9502H15.2998ZM4.7002 3.4502C4.00984 3.4502 3.4502 4.00984 3.4502 4.7002V15.2998C3.4503 15.9901 4.00991 16.5498 4.7002 16.5498H15.2998C15.99 16.5497 16.5497 15.99 16.5498 15.2998V4.7002C16.5498 4.00992 15.99 3.45033 15.2998 3.4502H4.7002Z" fill="#000000"/>
</svg>
