<svg xmlns="http://www.w3.org/2000/svg" width="24" height="24" viewBox="0 0 24 24" fill="none"><rect width="24" height="24" fill="none"/>
<path d="M15.3726 3.21518C17.0324 5.7368 17.9994 8.75479 17.9995 11.9994C17.9995 15.2436 17.033 18.262 15.3735 20.7835L13.6655 19.7396C15.1395 17.5224 15.9995 14.8614 15.9995 11.9994C15.9994 9.1369 15.14 6.47552 13.6655 4.25815L15.3726 3.21518Z" fill="#000000"/>
<path d="M11.9575 5.30209C13.2467 7.21498 13.9994 9.51911 13.9995 11.9994C13.9995 14.4793 13.2473 16.7838 11.9585 18.6966L10.2485 17.6517C11.3524 16.0437 11.9995 14.0972 11.9995 11.9994C11.9994 9.90141 11.3526 7.95505 10.2485 6.34702L11.9575 5.30209Z" fill="#000000"/>
<path d="M8.5376 7.39194C9.4575 8.69472 9.99941 10.2833 9.99951 11.9994C9.99951 13.7151 9.45704 15.3031 8.5376 16.6058L6.82861 15.5609C7.56443 14.5648 7.99951 13.3328 7.99951 11.9994C7.99941 10.6655 7.5649 9.43306 6.82861 8.43686L8.5376 7.39194Z" fill="#000000"/>
</svg>
