<svg xmlns="http://www.w3.org/2000/svg" width="20" height="20" viewBox="0 0 20 20" fill="none"><rect width="20" height="20" fill="none"/>
<path d="M15.4619 10.4998C15.6725 10.4998 15.8566 10.6458 15.9092 10.8543L16.0801 11.533C16.5096 11.6837 16.8997 11.9225 17.2295 12.2273L17.9658 12.0183C18.1663 11.9615 18.3798 12.0485 18.4863 12.2312L18.9346 13.0017C19.0457 13.1924 19.0119 13.4359 18.8535 13.5877L18.2725 14.1443C18.307 14.3407 18.3252 14.5433 18.3252 14.7498C18.3252 14.9563 18.307 15.1588 18.2725 15.3552L18.8535 15.9119C19.0119 16.0636 19.0457 16.3081 18.9346 16.4988L18.4863 17.2683C18.3798 17.4511 18.1663 17.539 17.9658 17.4822L17.2295 17.2732C16.8998 17.578 16.5096 17.8159 16.0801 17.9666L15.9092 18.6463C15.8565 18.8546 15.6723 18.9998 15.4619 18.9998H14.5381C14.3277 18.9998 14.1435 18.8546 14.0908 18.6463L13.9199 17.9656C13.4911 17.8148 13.1017 17.5767 12.7725 17.2722L12.0342 17.4822C11.8337 17.539 11.6202 17.4511 11.5137 17.2683L11.0654 16.4988C10.9543 16.3081 10.9881 16.0636 11.1465 15.9119L11.7295 15.3533C11.6952 15.1575 11.6768 14.9557 11.6768 14.7498C11.6768 14.5439 11.6952 14.3421 11.7295 14.1463L11.1465 13.5877C10.9881 13.4359 10.9543 13.1924 11.0654 13.0017L11.5137 12.2312C11.6202 12.0485 11.8337 11.9615 12.0342 12.0183L12.7725 12.2273C13.1017 11.9229 13.4912 11.6848 13.9199 11.534L14.0908 10.8543C14.1434 10.6458 14.3276 10.4998 14.5381 10.4998H15.4619ZM15.001 13.4734C14.3119 13.4734 13.7532 14.045 13.7529 14.7498C13.7529 15.4547 14.3117 16.0271 15.001 16.0271C15.6902 16.027 16.249 15.4547 16.249 14.7498C16.2488 14.0451 15.69 13.4735 15.001 13.4734Z" fill="#000000"/>
<path d="M7.37402 2.2195C7.61049 2.02997 7.92094 1.95757 8.2168 2.02321L18 4.19801V7.99977H16V5.80153L9 4.24586V17.9998H2V8.99977L7 7.57106V2.99977C7.0002 2.69679 7.13773 2.40916 7.37402 2.2195ZM4 10.5076V15.9998H7V9.65114L4 10.5076Z" fill="#000000"/>
</svg>
