<svg xmlns="http://www.w3.org/2000/svg" width="20" height="20" viewBox="0 0 20 20" fill="none"><rect width="20" height="20" fill="none"/>
<path d="M10 5C12.7614 5 15 7.23858 15 10V13H17V18H3V13H5V10C5 7.23858 7.23858 5 10 5ZM4.5 16.5H15.5V14.5H4.5V16.5ZM10 6.5C8.067 6.5 6.5 8.067 6.5 10V13H13.5V10C13.5 8.067 11.933 6.5 10 6.5Z" fill="#000000"/>
<path d="M3.5 10.75H1V9.25H3.5V10.75Z" fill="#000000"/>
<path d="M19 10.75H16.5V9.25H19V10.75Z" fill="#000000"/>
<path d="M5.92188 4.87695L4.86035 5.9375L2.96094 4.03809L4.02148 2.97656L5.92188 4.87695Z" fill="#000000"/>
<path d="M17.0371 4.03809L15.1377 5.9375L14.0762 4.87695L15.9766 2.97656L17.0371 4.03809Z" fill="#000000"/>
<path d="M10.75 3.5H9.25V1H10.75V3.5Z" fill="#000000"/>
</svg>
