<svg xmlns="http://www.w3.org/2000/svg" width="20" height="20" viewBox="0 0 20 20" fill="none"><rect width="20" height="20" fill="none"/>
<path d="M15.2996 2.95001C16.8169 2.95001 18.0494 4.1771 18.0496 5.69708V14.3026C18.0494 15.8223 16.8171 17.0496 15.2996 17.0496H4.69995C3.18117 17.0496 1.94995 15.8184 1.94995 14.2996V5.70001C1.94995 4.18123 3.18117 2.95001 4.69995 2.95001H15.2996ZM3.44995 8.49982V14.2996C3.44995 14.99 4.00959 15.5496 4.69995 15.5496H15.2996C15.9909 15.5496 16.5494 14.9917 16.5496 14.3026V8.49982H3.44995ZM4.69995 4.45001C4.0096 4.45001 3.44995 5.00966 3.44995 5.70001V6.99982H16.5496V5.69708C16.5494 5.00815 15.9911 4.45001 15.2996 4.45001H4.69995Z" fill="#000000"/>
</svg>
