<svg xmlns="http://www.w3.org/2000/svg" width="24" height="24" viewBox="0 0 24 24" fill="none"><rect width="24" height="24" fill="none"/>
<path d="M23 14.9999C23 14.9999 23 21.4999 18 22.9999C13 21.4999 13 14.9999 13 14.9999L18 12.9999L23 14.9999ZM15.1387 16.2987C15.216 16.7448 15.3343 17.2591 15.5156 17.785C15.97 19.1028 16.7239 20.2664 18 20.8642C19.2761 20.2664 20.03 19.1028 20.4844 17.785C20.6657 17.2591 20.783 16.7448 20.8604 16.2987L18 15.1542L15.1387 16.2987Z" fill="#000000"/>
<path d="M9.40332 2.19716C9.65676 2.00885 9.98464 1.95127 10.2871 2.04189L21 5.25575V10.9999H19V6.74403L11 4.34364V20.9999H3V10.9999L9 8.74989V2.99989L9.00684 2.88271C9.03891 2.61142 9.18142 2.36226 9.40332 2.19716ZM5 12.3856V18.9999H9V10.8856L5 12.3856Z" fill="#000000"/>
</svg>
