<svg xmlns="http://www.w3.org/2000/svg" width="20" height="20" viewBox="0 0 20 20" fill="none"><rect width="20" height="20" fill="none"/>
<path d="M5 12C6.65685 12 8 13.3431 8 15C7.99995 16.6568 6.65682 18 5 18C3.34318 18 2.00005 16.6568 2 15C2 13.3431 3.34315 12 5 12ZM5 14C4.44772 14 4 14.4477 4 15C4.00005 15.5522 4.44775 16 5 16C5.55225 16 5.99995 15.5522 6 15C6 14.4477 5.55228 14 5 14Z" fill="#000000"/>
<path d="M11 5.99999H7.5C6.6718 6.00019 6.00009 6.67176 6 7.49999C6.00005 8.32825 6.67178 8.99979 7.5 8.99999H12.5C14.4329 8.99999 15.9999 10.5671 16 12.5C15.9999 14.4329 14.433 16 12.5 16H10V14H12.5C13.3284 14 13.9999 13.3284 14 12.5C13.9999 11.6716 13.3284 11 12.5 11H7.5C5.56721 10.9998 4.00005 9.43282 4 7.49999C4.00009 5.56719 5.56723 4.00019 7.5 3.99999H11V5.99999Z" fill="#000000"/>
<path d="M13.2578 2.06249C13.4167 1.97454 13.6106 1.97998 13.7646 2.07616L17.7646 4.57616C17.9108 4.66754 18 4.82761 18 4.99999C18 5.17235 17.9108 5.33247 17.7646 5.42382L13.7646 7.92382C13.6106 8.01997 13.4167 8.02541 13.2578 7.93749C13.0989 7.84939 13 7.68172 13 7.49999V2.49999C13 2.31824 13.0989 2.15061 13.2578 2.06249Z" fill="#000000"/>
</svg>
