<svg xmlns="http://www.w3.org/2000/svg" width="24" height="24" viewBox="0 0 24 24" fill="none"><rect width="24" height="24" fill="none"/>
<path d="M18.7373 2.03518C19.0379 1.95335 19.3598 2.01601 19.6074 2.2051C19.855 2.39428 20 2.68843 20 3.00002V16.5C20 18.1569 18.6569 19.5 17 19.5C15.3431 19.5 14 18.1569 14 16.5C14 14.8432 15.3432 13.5 17 13.5C17.351 13.5 17.6869 13.5631 18 13.6739V5.80862L9 8.26369V19C9 20.6569 7.65685 22 6 22C4.34315 22 3 20.6569 3 19C3.00001 17.3432 4.34315 16 6 16C6.351 16 6.68695 16.0631 7 16.1739V5.23635L18.7373 2.03518Z" fill="#000000"/>
</svg>
