<svg xmlns="http://www.w3.org/2000/svg" width="20" height="20" viewBox="0 0 20 20" fill="none"><rect width="20" height="20" fill="none"/>
<path d="M10.7505 3.0791C13.0249 3.49167 14.7503 5.48168 14.7505 7.875V10.1924C14.7506 10.3004 14.7709 10.4076 14.8111 10.5078L15.9224 13.2861C16.2505 14.107 15.6461 14.9996 14.7622 15H12.7495C12.7495 16.5188 11.5183 17.75 9.99953 17.75C8.48086 17.7499 7.24953 16.5187 7.24953 15H5.19386C4.34088 14.9998 3.73861 14.1638 4.00832 13.3545L4.95656 10.5098C4.98543 10.4231 5.0005 10.3316 5.0005 10.2402V7.875C5.00055 5.39451 6.85338 3.3479 9.2505 3.04102V1H10.7505V3.0791ZM8.74953 15C8.74953 15.6903 9.30929 16.2499 9.99953 16.25C10.6899 16.25 11.2495 15.6904 11.2495 15H8.74953ZM9.8755 4.5C8.0116 4.50005 6.50056 6.01114 6.5005 7.875V10.2402C6.50051 10.4927 6.45924 10.7438 6.37941 10.9834L5.54054 13.5H14.3931L13.4185 11.0645C13.3076 10.7871 13.2506 10.4911 13.2505 10.1924V7.875C13.2504 6.01131 11.7391 4.50029 9.8755 4.5Z" fill="#000000"/>
</svg>
