<svg xmlns="http://www.w3.org/2000/svg" width="20" height="20" viewBox="0 0 20 20" fill="none"><rect width="20" height="20" fill="none"/>
<path d="M7.5 3C7.66828 3 7.83494 3.00795 8 3.02051V5.02832C7.8358 5.01017 7.66904 5 7.5 5C5.01472 5 3 7.01472 3 9.5C3 11.9853 5.01472 14 7.5 14C9.06001 14 10.4339 13.2057 11.2412 12H13.5C13.3011 12.4755 13.0475 12.9224 12.7471 13.333L16.207 16.793L14.793 18.207L11.333 14.7471C10.2581 15.5336 8.93401 16 7.5 16C3.91015 16 1 13.0899 1 9.5C1 5.91015 3.91015 3 7.5 3ZM14.5 1C14.7761 1.00002 14.9968 1.22489 15.0205 1.5C15.1959 3.53675 16.4628 4.80303 18.5 4.97852C18.7751 5.00221 19.0001 5.22383 19 5.5C18.9999 5.77607 18.775 5.99684 18.5 6.02051C16.4629 6.19593 15.196 7.46311 15.0205 9.5C14.9969 9.77504 14.776 9.99986 14.5 10C14.2238 10 14.0022 9.77512 13.9785 9.5C13.8031 7.46326 12.5367 6.19604 10.5 6.02051C10.225 5.9968 10 5.77609 10 5.5C10.0001 5.22391 10.225 5.00221 10.5 4.97852C12.5365 4.80306 13.8031 3.53676 13.9785 1.5C14.0022 1.22487 14.2238 1.00001 14.5 1Z" fill="#000000"/>
</svg>
