<svg xmlns="http://www.w3.org/2000/svg" width="20" height="20" viewBox="0 0 20 20" fill="none"><rect width="20" height="20" fill="none"/>
<path d="M19 19H11V17.5H19V19Z" fill="#000000"/>
<path d="M10 2C13.7277 2 16.86 4.54954 17.748 8H16.1855C15.3419 5.38888 12.8919 3.5 10 3.5C6.41015 3.5 3.5 6.41015 3.5 10C3.5 13.2497 5.88496 15.9418 9 16.4229V17.9355C5.05384 17.4433 2 14.0795 2 10C2 5.58172 5.58172 2 10 2Z" fill="#000000"/>
<path d="M19 16.5H11V15H19V16.5Z" fill="#000000"/>
<path d="M18.7959 11.1895L11.7959 14.1895L11.2051 12.8105L18.2051 9.81055L18.7959 11.1895Z" fill="#000000"/>
<path d="M10.75 10.3105L8.53027 12.5303L7.46973 11.4697L9.25 9.68945V5H10.75V10.3105Z" fill="#000000"/>
</svg>
