<svg xmlns="http://www.w3.org/2000/svg" width="24" height="24" viewBox="0 0 24 24" fill="none"><rect width="24" height="24" fill="none"/>
<path d="M11 22C11.3375 22 11.6711 21.9833 12 21.9506V11.4363C11.8842 11.3895 11.7576 11.3636 11.625 11.3636H9.18182C8.80526 11.3636 8.5 11.0584 8.5 10.6818C8.5 10.3053 8.19474 10 7.81818 10H3.25203C3.43243 9.29913 3.70541 8.63542 4.05717 8.02271L4.07026 8H5.19718C5.36295 8 5.52612 7.95879 5.67201 7.88008L7.54087 6.87177C8.19188 6.52053 8.24941 5.60854 7.64771 5.17827L7.28029 4.91553C8.39153 4.33087 9.65713 4 11 4C11.1523 4 11.3037 4.00426 11.4539 4.01266L10.8495 4.95051C10.626 5.29727 10.6384 5.74565 10.8807 6.07953L12.7005 8.58732C12.8887 8.84656 13.1896 9 13.5099 9H15C15.5523 9 16 9.44772 16 10H19C19.728 10 20.3955 10.2593 20.9151 10.6907C20.2737 5.78653 16.0791 2 11 2C5.47715 2 1 6.47715 1 12C1 17.5228 5.47715 22 11 22Z" fill="black"/>
<path fill-rule="evenodd" clip-rule="evenodd" d="M14 12V23L22.9999 23L23 16C23 15.4477 22.5523 15 22 15H20V13C20 12.4477 19.5523 12 19 12H14ZM16 18.5H21V20H16V18.5Z" fill="black"/>
</svg>
