<svg xmlns="http://www.w3.org/2000/svg" width="24" height="24" viewBox="0 0 24 24" fill="none"><rect width="24" height="24" fill="none"/>
<path d="M22 12C22 6.47715 17.5228 2 12 2C6.47715 2 2 6.47715 2 12C2 17.5228 6.47715 22 12 22C12.0844 22 12.1686 21.999 12.2525 21.9969C11.463 20.8636 11 19.4859 11 18C11 15.7894 12.0247 13.8182 13.625 12.5353V12.3636C13.625 11.8114 13.1773 11.3636 12.625 11.3636H10.1818C9.80526 11.3636 9.5 11.0584 9.5 10.6818C9.5 10.3053 9.19474 10 8.81818 10H4.25204C4.43243 9.29913 4.70541 8.63542 5.05717 8.02271L5.07026 8H6.19718C6.36295 8 6.52612 7.95879 6.67201 7.88008L8.54087 6.87177C9.19188 6.52053 9.24941 5.60854 8.64771 5.17827L8.28029 4.91553C9.39153 4.33087 10.6571 4 12 4C12.1523 4 12.3037 4.00426 12.4539 4.01266L11.8495 4.95051C11.626 5.29727 11.6384 5.74565 11.8807 6.07953L13.7005 8.58732C13.8887 8.84656 14.1896 9 14.5099 9H16C16.5523 9 17 9.44772 17 10V11.0709C17.3266 11.0242 17.6605 11 18 11C19.4859 11 20.8636 11.463 21.9969 12.2525C21.999 12.1686 22 12.0844 22 12Z" fill="black"/>
<path d="M17 19V23H19V19H23V17H19V13H17V17H13V19H17Z" fill="black"/>
</svg>
