<svg xmlns="http://www.w3.org/2000/svg" width="24" height="24" viewBox="0 0 24 24" fill="none"><rect width="24" height="24" fill="none"/>
<path d="M16.9998 1.99972C13.5623 1.99949 10.4377 1.99944 7.0002 1.99963C5.34369 1.99973 4 3.34258 4 4.99961V21.7136C4 22.0702 4.18989 22.3998 4.49838 22.5786C4.80687 22.7575 5.18727 22.7586 5.49676 22.5814L11.5032 19.1435C11.811 18.9673 12.189 18.9673 12.4968 19.1435L18.5032 22.5814C18.8127 22.7586 19.1931 22.7575 19.5016 22.5786C19.8101 22.3998 20 22.0702 20 21.7136V4.99971C20 3.34268 18.6563 1.99983 16.9998 1.99972Z" fill="black"/>
</svg>
