<svg xmlns="http://www.w3.org/2000/svg" width="24" height="24" viewBox="0 0 24 24" fill="none"><rect width="24" height="24" fill="none"/>
<path fill-rule="evenodd" clip-rule="evenodd" d="M16.9997 3.99997C13.5623 3.99973 10.4377 3.99968 7.00031 3.99988C6.44781 3.99991 6 4.44787 6 4.99985V19.9892L10.5097 17.4079C11.433 16.8795 12.567 16.8795 13.4903 17.4079L18 19.9892V4.99995C18 4.44797 17.5522 4 16.9997 3.99997ZM7.0002 1.99988C10.4377 1.99968 13.5623 1.99973 16.9998 1.99997C18.6563 2.00008 20 3.34292 20 4.99995V21.7138C20 22.0704 19.8101 22.4 19.5016 22.5789C19.1931 22.7578 18.8127 22.7588 18.5032 22.5817L12.4968 19.1437C12.189 18.9676 11.811 18.9676 11.5032 19.1437L5.49676 22.5817C5.18727 22.7588 4.80687 22.7578 4.49838 22.5789C4.18989 22.4 4 22.0704 4 21.7138V4.99985C4 3.34282 5.34369 1.99997 7.0002 1.99988Z" fill="black"/>
</svg>
