<svg xmlns="http://www.w3.org/2000/svg" width="24" height="24" viewBox="0 0 24 24" fill="none"><rect width="24" height="24" fill="none"/>
<path d="M21 9.00018H18.4144L22 5.41421L20.5858 4L17 7.58618V5.00018H15V9.00018V11.0002H17H21V9.00018ZM5 7H12.083C12.0284 7.32521 12 7.65929 12 8C12 8.70127 12.1203 9.37444 12.3414 10H3V9C3 7.89543 3.89543 7 5 7ZM21 13.1973C20.1175 13.7078 19.0929 14 18 14C16.223 14 14.6264 13.2275 13.5278 12H3V17C3 18.1046 3.89543 19 5 19H19C20.1046 19 21 18.1046 21 17V13.1973Z" fill="#000000"/>
</svg>
