<svg xmlns="http://www.w3.org/2000/svg" width="24" height="24" viewBox="0 0 24 24" fill="none"><rect width="24" height="24" fill="none"/>
<path d="M2 6C2 4.89543 2.89543 4 4 4H20C21.1046 4 22 4.89543 22 6V9.17071C20.8348 9.58254 20 10.6938 20 12C20 13.3062 20.8348 14.4175 22 14.8293V18C22 19.1046 21.1046 20 20 20H4C2.89543 20 2 19.1046 2 18V14.8293C3.16519 14.4175 4 13.3062 4 12C4 10.6938 3.16519 9.58254 2 9.17071V6ZM6.5 9H5L7 15H8.5L10.5 9H9L7.75 12.75L6.5 9ZM13 9H11.5V15H13V9ZM16.5 13.5C17.7426 13.5 18.75 12.4926 18.75 11.25C18.75 10.0074 17.7426 9 16.5 9H14.5V13V13.5V15H16V13.5H16.5ZM16.5 10.5H16V12H16.5C16.9142 12 17.25 11.6642 17.25 11.25C17.25 10.8358 16.9142 10.5 16.5 10.5Z" fill="#000000"/>
</svg>
