<svg xmlns="http://www.w3.org/2000/svg" width="24" height="24" viewBox="0 0 24 24" fill="none"><rect width="24" height="24" fill="none"/>
<path d="M7 3.00001L17 3.00001L17 5.00001L19 5.00001C20 5.00001 21 5.80001 21 7.00001C21 8.86806 21 12.0447 16.9258 12.8632C16.5736 14.887 15.0045 16.4931 13 16.9L13 19L16 19L16 21L8 21L8 19L11 19L11 16.9C8.99547 16.4931 7.42641 14.887 7.07423 12.8632C2.99999 12.0447 2.99999 8.86806 3 7.00001C3 5.80001 4 5.00001 5 5.00001L7 5.00001L7 3.00001ZM17 10.8293L17 7.00001L19 7.00001L19 8.00001C19 9.30623 18.1652 10.4175 17 10.8293ZM7 7.00001L5 7.00001L5 8.00001C5 9.30623 5.83481 10.4175 7 10.8293L7 7.00001ZM11.2502 10L13 10C13.1381 10 13.25 10.1119 13.25 10.25L13.25 11.25C13.25 11.3881 13.1381 11.5 13 11.5L9.75 11.5L9.75 13L13 13C13.9665 13 14.75 12.2165 14.75 11.25L14.75 10.25C14.75 9.87827 14.6341 9.53361 14.4365 9.25018C14.6342 8.96669 14.7502 8.62189 14.7502 8.25L14.7502 7.25C14.7502 6.2835 13.9667 5.5 13.0002 5.5L9.75 5.5L9.75 7L13.0002 7C13.1383 7 13.2502 7.11193 13.2502 7.25L13.2502 8.25C13.2502 8.38807 13.1383 8.5 13.0002 8.5L11.2502 8.5L11.2502 10Z" fill="#000000"/>
</svg>
