<svg xmlns="http://www.w3.org/2000/svg" width="24" height="24" viewBox="0 0 24 24" fill="none"><rect width="24" height="24" fill="none"/>
<path d="M12.0002 4.1084L18.9706 6.43188C18.8849 7.91945 18.5962 10.3855 17.6752 12.8816C16.6561 15.6435 14.9321 18.2742 12.0002 19.7934C9.0682 18.2742 7.34415 15.6435 6.3251 12.8816C5.40412 10.3855 5.11547 7.91945 5.02972 6.43189L12.0002 4.1084ZM21.0012 5.68502C21.0093 5.26878 20.7387 4.91305 20.3437 4.7814L12.6326 2.21103C12.2221 2.07419 11.7783 2.07419 11.3677 2.21103L3.65661 4.7814C3.26166 4.91305 2.99107 5.26877 2.9992 5.68502C3.05257 8.41658 3.81097 18.5522 12.0002 22.0002C20.1893 18.5522 20.9478 8.4166 21.0012 5.68502ZM11.9783 8.65619L10.8913 11.6947H13.0543L12.0217 8.65619H11.9783ZM12.0652 7.00021C12.9457 7.00021 13.2011 7.48637 13.4239 8.1042L15.75 14.5002H14.0489L13.5054 12.981H10.4239L9.88043 14.5002H8.25L10.663 8.1042C10.8913 7.48637 11.1848 7.00021 12.0652 7.00021Z" fill="#000000"/>
</svg>
