<svg xmlns="http://www.w3.org/2000/svg" width="24" height="24" viewBox="0 0 24 24" fill="none"><rect width="24" height="24" fill="none"/>
<g clip-path="url(#clip0_117462_901)">
<path d="M23 5.00018H20.4144L24 1.41421L22.5858 0L19 3.58618V1.00018H17V5.00018V7.00018H19H23V5.00018ZM20 10C20.3263 10 20.6464 9.97396 20.9586 9.92385C20.8125 10.6297 20.2921 11.2154 19.5823 11.4315L9.5 14.5H16C17.1046 14.5 18 15.3954 18 16.5L18.0001 17H7.24999L4 5.5C2.61929 5.5 1.5 4.38071 1.5 3H5.25905C5.69919 3 6.08758 3.28778 6.21573 3.70885L6.60867 5H14.083C14.559 7.83771 17.027 10 20 10ZM8.25 21.5C9.2165 21.5 10 20.7165 10 19.75C10 18.7835 9.2165 18 8.25 18C7.2835 18 6.5 18.7835 6.5 19.75C6.5 20.7165 7.2835 21.5 8.25 21.5ZM19 19.75C19 20.7165 18.2165 21.5 17.25 21.5C16.2835 21.5 15.5 20.7165 15.5 19.75C15.5 18.7835 16.2835 18 17.25 18C18.2165 18 19 18.7835 19 19.75Z" fill="#000000"/>
</g>
<defs>
<clipPath id="clip0_117462_901">
<rect width="24" height="24" fill="white"/>
</clipPath>
</defs>
</svg>
