<svg xmlns="http://www.w3.org/2000/svg" width="24" height="24" viewBox="0 0 24 24" fill="none"><rect width="24" height="24" fill="none"/>
<path d="M23 5.00018H20.4144L24 1.41421L22.5858 0L19 3.58618V1.00018H17V5.00018V7.00018H19H23V5.00018ZM9 4H14C14 7.31371 16.6863 10 20 10C20.2761 10 20.5479 9.98135 20.8141 9.94523C20.3093 10.4821 20 11.2049 20 12C20 13.3062 20.8348 14.4175 22 14.8293V18C22 19.1046 21.1046 20 20 20H9V4ZM2 6C2 4.89543 2.89543 4 4 4H7V20H4C2.89543 20 2 19.1046 2 18V14.8293C3.16519 14.4175 4 13.3062 4 12C4 10.6938 3.16519 9.58254 2 9.17071V6Z" fill="#000000"/>
</svg>
