<svg xmlns="http://www.w3.org/2000/svg" width="24" height="24" viewBox="0 0 24 24" fill="none"><rect width="24" height="24" fill="none"/>
<path d="M17.6904 7C18.4307 6.52986 18.8933 5.6836 18.9858 4.74332C19.0784 3.89707 18.7082 3.14484 18.1531 2.58068C16.4876 1.26428 14.2669 2.20456 11.9537 5.21346C9.64055 2.20456 7.41989 1.26428 5.84692 2.58068C5.29175 3.14484 4.92164 3.89707 5.01417 4.74332C5.1067 5.6836 5.56933 6.52986 6.30956 7H17.6904ZM21 12H3V11C3 9.89543 3.89543 9 5 9H19C20.1046 9 21 9.89543 21 11V12ZM5 21C3.89543 21 3 20.1046 3 19V14H21V19C21 20.1046 20.1046 21 19 21H5ZM5 16V17.5H8V16H5Z" fill="#000000"/>
</svg>
