<svg xmlns="http://www.w3.org/2000/svg" width="24" height="24" viewBox="0 0 24 24" fill="none"><rect width="24" height="24" fill="none"/>
<path d="M23 5.00018H20.4144L24 1.41421L22.5858 0L19 3.58618V1.00018H17V5.00018V7.00018H19H23V5.00018ZM4 4H14C14 7.31371 16.6863 10 20 10C20.2761 10 20.5479 9.98135 20.8141 9.94523C20.3093 10.4821 20 11.2049 20 12C20 13.3062 20.8348 14.4175 22 14.8293V18C22 19.1046 21.1046 20 20 20H11.3027L12.5392 15.3853L17.9618 16.8383C17.9252 14.0874 16.3222 11.5965 13.8218 10.5983L13.9538 10.1057C14.061 9.70562 13.8236 9.29436 13.4235 9.18716C13.0234 9.07995 12.6121 9.31739 12.5049 9.71749L12.3729 10.2101C9.70844 9.82428 7.07475 11.18 5.66759 13.5441L11.0903 14.9971L9.74974 20H4C2.89543 20 2 19.1046 2 18V14.8293C3.16519 14.4175 4 13.3062 4 12C4 10.6938 3.16519 9.58254 2 9.17071V6C2 4.89543 2.89543 4 4 4Z" fill="#000000"/>
</svg>
