<svg xmlns="http://www.w3.org/2000/svg" width="24" height="24" viewBox="0 0 24 24" fill="none"><rect width="24" height="24" fill="none"/>
<path d="M2.91332 11.2602C2.23699 11.8751 2.67196 13.0002 3.586 13.0002H4.99939V19.5002C4.99939 20.3286 5.67096 21.0002 6.49939 21.0002H17.4994C18.3278 21.0002 18.9994 20.3286 18.9994 19.5002V13.0002H20.4128C21.3268 13.0002 21.7618 11.8751 21.0855 11.2602L13.0084 3.91743C12.4363 3.39731 11.5625 3.39731 10.9904 3.91743L2.91332 11.2602ZM17.9993 3.5449H15.9993V4.99998L17.9993 6.99998V3.5449ZM9.23684 13.4737C8.00147 13.4737 7 12.4722 7 11.2368C7 10.0015 8.00147 9 9.23684 9C10.4722 9 11.4737 10.0015 11.4737 11.2368C11.4737 12.4722 10.4722 13.4737 9.23684 13.4737ZM9.23684 12.1579C9.74553 12.1579 10.1579 11.7455 10.1579 11.2368C10.1579 10.7282 9.74553 10.3158 9.23684 10.3158C8.72816 10.3158 8.31579 10.7282 8.31579 11.2368C8.31579 11.7455 8.72816 12.1579 9.23684 12.1579ZM14.7632 19C13.5278 19 12.5263 17.9985 12.5263 16.7632C12.5263 15.5278 13.5278 14.5263 14.7632 14.5263C15.9985 14.5263 17 15.5278 17 16.7632C17 17.9985 15.9985 19 14.7632 19ZM14.7632 17.6842C15.2718 17.6842 15.6842 17.2718 15.6842 16.7632C15.6842 16.2545 15.2718 15.8421 14.7632 15.8421C14.2545 15.8421 13.8421 16.2545 13.8421 16.7632C13.8421 17.2718 14.2545 17.6842 14.7632 17.6842ZM16.0553 10.1881L8.95083 18.6549L7.94287 17.8091L15.0474 9.34231L16.0553 10.1881Z" fill="#000000"/>
</svg>
