<svg xmlns="http://www.w3.org/2000/svg" width="24" height="24" viewBox="0 0 24 24" fill="none"><rect width="24" height="24" fill="none"/>
<path d="M16 6H18.5856L15 9.58597L16.4142 11.0002L20 7.414V10H22V6V4L20 4L16 4L16 6ZM5 7H12.083C12.0284 7.32521 12 7.65929 12 8C12 8.70127 12.1203 9.37444 12.3414 10H3V9C3 7.89543 3.89543 7 5 7ZM21 13.1973C20.1175 13.7078 19.0929 14 18 14C16.223 14 14.6264 13.2275 13.5278 12H3V17C3 18.1046 3.89543 19 5 19H19C20.1046 19 21 18.1046 21 17V13.1973Z" fill="#000000"/>
</svg>
