<svg xmlns="http://www.w3.org/2000/svg" width="24" height="24" viewBox="0 0 24 24" fill="none"><rect width="24" height="24" fill="none"/>
<path d="M1 8.00003C0.999983 6.34317 2.34313 5 4 5H20C21.6568 5 22.9999 6.34315 22.9999 8V17C22.9999 18.6569 21.6568 20 19.9999 20H4.00009C2.34325 20 1.00011 18.6569 1.00009 17L1 8.00003ZM7.00011 18.0005L3.00011 14.0005L3.00014 18L7.00011 18.0005ZM21.0001 7H17.0001L21.0001 11.0005V7ZM12.0001 15.5C13.657 15.5 15.0001 14.1569 15.0001 12.5C15.0001 10.8431 13.657 9.5 12.0001 9.5C10.3433 9.5 9.00011 10.8431 9.00011 12.5C9.00011 14.1569 10.3433 15.5 12.0001 15.5Z" fill="#000000"/>
</svg>
