<svg xmlns="http://www.w3.org/2000/svg" width="24" height="24" viewBox="0 0 24 24" fill="none"><rect width="24" height="24" fill="none"/>
<path d="M22 5.00001C22 6.65687 20.6569 8.00001 19 8.00001C17.3431 8.00001 16 6.65687 16 5.00001C16 3.34316 17.3431 2.00001 19 2.00001C20.6568 2.00002 22 3.34316 22 5.00001ZM21.8626 9.09999C21.0517 9.66724 20.0647 10 19 10C17.9353 10 16.9483 9.66724 16.1374 9.09999C16.0481 9.38412 16 9.68646 16 10C16 11.6569 17.3431 13 19 13C20.6569 13 22 11.6569 22 10C22 9.68646 21.9519 9.38412 21.8626 9.09999ZM7.99999 2.00001L5.99999 2.00001L5.99998 4.00001L3 4.00001L3 7.99998L14 8L14 4.00001L7.99999 4.00001L7.99999 2.00001ZM3 10L14 10C14 12.7614 16.2386 15 19 15L21 15L21 20C21 21.6568 19.6569 23 18 23L6.00002 23C4.34318 23 2.99999 21.6569 3.00001 20L3 10ZM9 12L7 12L7 14L9 14L9 12ZM13 12L11 12L11 14L13 14L13 12ZM13 18L13 16L11 16L11 18L13 18ZM9 16L7 16L7 18L9 18L9 16Z" fill="#000000"/>
</svg>
