<svg xmlns="http://www.w3.org/2000/svg" width="24" height="24" viewBox="0 0 24 24" fill="none"><rect width="24" height="24" fill="none"/>
<path d="M15.8633 3.81823L18.4997 6.45463L22.1361 2.81823L20.8633 1.54543L18.4997 3.90903L17.1361 2.54543L15.8633 3.81823ZM12 2.00003C12.7944 2.00003 13.5673 2.09267 14.3082 2.26774C14.1089 2.80747 14 3.39103 14 4.00003C14 5.13717 14.3796 6.18565 15.019 7.02566L7.60184 16.2971L8.77314 17.2342L16.101 8.07432C16.9187 8.65718 17.9193 9.00003 19 9.00003C19.8454 9.00003 20.6418 8.7902 21.34 8.41979C21.7664 9.53136 22 10.7384 22 12C22 17.5229 17.5228 22 12 22C6.47714 22 1.99999 17.5229 1.99999 12C1.99999 6.47718 6.47714 2.00003 12 2.00003ZM10.9983 9.12421C10.9983 7.81298 9.93539 6.75003 8.62417 6.75003C7.31295 6.75003 6.24999 7.81298 6.24999 9.12421C6.24999 10.4354 7.31295 11.4984 8.62417 11.4984C9.93539 11.4984 10.9983 10.4354 10.9983 9.12421ZM15.373 17.25C16.6858 17.25 17.75 16.1858 17.75 14.8731C17.75 13.5603 16.6858 12.4961 15.373 12.4961C14.0603 12.4961 12.9961 13.5603 12.9961 14.8731C12.9961 16.1858 14.0603 17.25 15.373 17.25ZM8.62417 10.0984C9.16219 10.0984 9.59834 9.66223 9.59834 9.12421C9.59834 8.58618 9.16219 8.15003 8.62417 8.15003C8.08614 8.15003 7.64999 8.58618 7.64999 9.12421C7.64999 9.66223 8.08614 10.0984 8.62417 10.0984ZM16.35 14.8731C16.35 15.4126 15.9126 15.85 15.373 15.85C14.8335 15.85 14.3961 15.4126 14.3961 14.8731C14.3961 14.3335 14.8335 13.8961 15.373 13.8961C15.9126 13.8961 16.35 14.3335 16.35 14.8731Z" fill="#000000"/>
</svg>
