<svg xmlns="http://www.w3.org/2000/svg" width="24" height="24" viewBox="0 0 24 24" fill="none"><rect width="24" height="24" fill="none"/>
<path fill-rule="evenodd" clip-rule="evenodd" d="M17 3.00001L7 3.00001L7 5.00001L5 5.00001C4 5.00001 3 5.80001 3 7.00001C2.99999 8.86806 2.99999 12.0447 7.07423 12.8632C7.42641 14.887 8.99547 16.4931 11 16.9L11 19L8 19L8 21L16 21L16 19L13 19L13 16.9C15.0045 16.4931 16.5736 14.887 16.9258 12.8632C21 12.0447 21 8.86806 21 7.00001C21 5.80001 20 5.00001 19 5.00001L17 5.00001L17 3.00001ZM17 7.00001L17 10.8293C18.1652 10.4175 19 9.30623 19 8.00001L19 7.00001L17 7.00001ZM5 7.00001L7 7.00001L7 10.8293C5.83481 10.4175 5 9.30623 5 8.00001L5 7.00001Z" fill="#000000"/>
</svg>
