<svg xmlns="http://www.w3.org/2000/svg" width="24" height="24" viewBox="0 0 24 24" fill="none"><rect width="24" height="24" fill="none"/>
<path d="M23 6.00018H20.4144L24 2.41421L22.5858 1L19 4.58618V2.00018H17V6.00018V8.00018H19H23V6.00018ZM15 2.2321C14.5696 2.07582 14.0895 2 13.5681 2L6 2.00007V9.10002C6.73888 9.25 7.41859 9.56292 8 9.99963V3.99998L13.5681 4C14.1193 4 14.4303 4.1317 14.6128 4.26862C14.772 4.38813 14.9043 4.56487 15 4.82627V2.2321ZM11.514 22.0001L9.00027 22.0001C9.43703 21.4187 9.74998 20.7389 9.89998 20L15.1851 20L20.0001 20.0001V10.8149C20.0001 10.487 19.9678 10.2191 19.916 10H21.9472C21.9826 10.2592 22.0001 10.531 22.0001 10.8149V22.0001C18.2608 22.0002 14.957 22.0002 11.514 22.0001ZM7.86264 18.1C7.05172 18.6672 6.06473 19 5 19C3.93527 19 2.94828 18.6672 2.13736 18.1C2.04811 18.3841 2 18.6864 2 19C2 20.6569 3.34315 22 5 22C6.65685 22 8 20.6569 8 19C8 18.6864 7.95189 18.3841 7.86264 18.1ZM5 17C6.65685 17 8 15.6569 8 14C8 12.3431 6.65685 11 5 11C3.34315 11 2 12.3431 2 14C2 15.6569 3.34315 17 5 17ZM14.3639 18.0456L11.7275 15.4092L13.0003 14.1364L14.3639 15.5L16.7275 13.1364L18.0003 14.4092L14.3639 18.0456Z" fill="#000000"/>
</svg>
