<svg xmlns="http://www.w3.org/2000/svg" width="24" height="24" viewBox="0 0 24 24" fill="none"><rect width="24" height="24" fill="none"/>
<path d="M16.8633 3.81772L19.4997 6.45412L23.1361 2.81772L21.8633 1.54492L19.4997 3.90852L18.1361 2.54492L16.8633 3.81772ZM12.3203 2.10503L15.0941 3.02962C15.0324 3.34354 15 3.66799 15 4C15 6.76142 17.2386 9 20 9C20.2447 9 20.4853 8.98242 20.7206 8.94845C20.0931 13.1137 18.1227 19.4234 12.0041 21.9996C3.81487 18.5516 3.05648 8.41599 3.00311 5.68442C2.99498 5.26818 3.26556 4.91246 3.66052 4.78081L11.6879 2.10503C11.8931 2.03661 12.115 2.03661 12.3203 2.10503ZM11.9778 8.65559L10.8909 11.6941H13.0539L12.0213 8.65559H11.9778ZM12.0648 6.99962C11.1843 6.99962 10.8909 7.48578 10.6626 8.1036L8.24955 14.4996H9.87998L10.4235 12.9804H13.505L14.0485 14.4996H15.7495L13.4235 8.1036C13.2006 7.48578 12.9452 6.99962 12.0648 6.99962Z" fill="#000000"/>
</svg>
