<svg xmlns="http://www.w3.org/2000/svg" width="24" height="24" viewBox="0 0 24 24" fill="none"><rect width="24" height="24" fill="none"/>
<path d="M17.6904 5C18.4307 4.52986 18.8933 3.6836 18.9858 2.74332C19.0784 1.89707 18.7082 1.14484 18.1531 0.580676C16.4876 -0.735718 14.2669 0.204563 11.9537 3.21346C9.64055 0.204563 7.41989 -0.735718 5.84692 0.580676C5.29175 1.14484 4.92164 1.89707 5.01417 2.74332C5.1067 3.6836 5.56933 4.52986 6.30956 5H17.6904ZM4 7C2.89543 7 2 7.89543 2 9V12.1707C3.16519 12.5825 4 13.6938 4 15C4 16.3062 3.16519 17.4175 2 17.8293V21C2 22.1046 2.89543 23 4 23H7V7H4ZM20 23H9V7H20C21.1046 7 22 7.89543 22 9V12.1707C20.8348 12.5825 20 13.6938 20 15C20 16.3062 20.8348 17.4175 22 17.8293V21C22 22.1046 21.1046 23 20 23Z" fill="#000000"/>
</svg>
