<svg xmlns="http://www.w3.org/2000/svg" width="24" height="24" viewBox="0 0 24 24" fill="none"><rect width="24" height="24" fill="none"/>
<path d="M16.8633 3.81823L19.4997 6.45463L23.1361 2.81823L21.8633 1.54543L19.4997 3.90903L18.1361 2.54543L16.8633 3.81823ZM20 9.00002C20.3425 9.00002 20.6769 8.96559 21 8.90001L21 20C21 21.6568 19.6568 23 18 23L6.00002 23C4.34317 23 2.99999 21.6569 3.00001 20L3 4.00002L5.99998 4.00002L5.99998 2.00002L7.99998 2.00002L7.99998 4.00002L15 4.00002C15 6.76145 17.2386 9.00002 20 9.00002ZM19 9.00002L5 9.00002L5.00001 20C5 20.5523 5.44769 21 6.00002 21L18 21C18.5523 21 19 20.5523 19 20L19 9.00002ZM17 14L17 12L15 12L15 14L17 14ZM13 12L11 12L11 14L13 14L13 12ZM8.99998 12L8.99998 14L6.99998 14L6.99998 12L8.99998 12ZM8.99998 18L8.99998 16L6.99998 16L6.99998 18L8.99998 18ZM13 16L11 16L11 18L13 18L13 16Z" fill="#000000"/>
</svg>
