<svg xmlns="http://www.w3.org/2000/svg" width="24" height="24" viewBox="0 0 24 24" fill="none"><rect width="24" height="24" fill="none"/>
<path d="M12 6C12.3642 6 12.6829 5.80535 12.8577 5.51441L15.1429 6.88551C15.8742 7.32433 16.784 6.70493 16.6438 5.86362L16.4998 4.99965L16.6438 4.13568C16.784 3.29436 15.8742 2.67496 15.1429 3.11378L12.8574 4.48507C12.6825 4.19442 12.3639 4 12 4C11.6361 4 11.3175 4.19442 11.1426 4.48507L8.85712 3.11378C8.12575 2.67496 7.21601 3.29436 7.35623 4.13568L7.50023 4.99965L7.35623 5.86362C7.21601 6.70493 8.12575 7.32433 8.85712 6.88551L11.1423 5.51441C11.3171 5.80535 11.6358 6 12 6ZM2.34036 9.92798L6.00034 7L11.0003 21L4.82169 17.4693C4.36088 17.206 4.18605 16.6286 4.4234 16.1539L6.00034 13L2.59367 11.6373C1.88224 11.3528 1.74204 10.4066 2.34036 9.92798ZM21.6596 9.92798L17.9997 7L12.9997 21L19.1783 17.4693C19.6391 17.206 19.814 16.6286 19.5766 16.1539L17.9997 13L21.4063 11.6373C22.1178 11.3528 22.258 10.4066 21.6596 9.92798ZM12 8C11.4477 8 11 8.44772 11 9C11 9.55228 11.4477 10 12 10C12.5523 10 13 9.55228 13 9C13 8.44772 12.5523 8 12 8ZM11 13C11 12.4477 11.4477 12 12 12C12.5523 12 13 12.4477 13 13C13 13.5523 12.5523 14 12 14C11.4477 14 11 13.5523 11 13ZM12 16C11.4477 16 11 16.4477 11 17C11 17.5523 11.4477 18 12 18C12.5523 18 13 17.5523 13 17C13 16.4477 12.5523 16 12 16Z" fill="#000000"/>
</svg>
