<svg xmlns="http://www.w3.org/2000/svg" width="24" height="24" viewBox="0 0 24 24" fill="none"><rect width="24" height="24" fill="none"/>
<path d="M5 3C3.89543 3 3 3.89543 3 5V19C3 20.1046 3.89543 21 5 21H13C14.1046 21 15 20.1046 15 19V18.7813C14.6961 18.8521 14.3977 18.8941 14.1178 18.8941H12.5177V16.9631C9.55357 16.0873 7.22363 13.5997 7.22363 10.4117C7.22363 6.58481 10.5562 3.78356 14.3621 3.53549C14.005 3.20323 13.5262 3 13 3H5ZM15 5.11812C14.9707 5.11776 14.9413 5.11758 14.9119 5.11758C14.3602 5.11758 13.8257 5.18138 13.3176 5.30095C13.2468 5.3176 13.1766 5.33532 13.1069 5.3541C10.6256 6.0228 8.82324 8.03427 8.82324 10.4118C8.82324 13.1016 11.1301 15.3229 14.1174 15.6613V17.2941C14.2594 17.2941 14.431 17.2709 14.6259 17.2258C14.672 17.2152 14.7194 17.2033 14.768 17.1902C14.8426 17.1702 14.92 17.1473 15 17.1217V17.1216C17.1118 16.445 20.9997 13.8529 20.9997 10.6807C20.9997 10.6434 20.9988 10.607 20.997 10.5715C20.9988 10.5185 20.9997 10.4652 20.9997 10.4118C20.9997 7.51363 18.3216 5.15939 15 5.11822V5.11812ZM15 9.88238V9.88228H12.0001V8.82356H17.8232V9.88238H15ZM15 12V11.9999H12.0001V10.9412H17.8232V12H15ZM7.5 18.5C7.5 18.2239 7.72386 18 8 18H10C10.2761 18 10.5 18.2239 10.5 18.5C10.5 18.7761 10.2761 19 10 19H8C7.72386 19 7.5 18.7761 7.5 18.5Z" fill="#000000"/>
</svg>
