<svg xmlns="http://www.w3.org/2000/svg" width="24" height="24" viewBox="0 0 24 24" fill="none"><rect width="24" height="24" fill="none"/>
<path d="M2 6C2 4.89543 2.89543 4 4 4H20C21.1046 4 22 4.89543 22 6V9.17071C20.8348 9.58254 20 10.6938 20 12C20 13.3062 20.8348 14.4175 22 14.8293V18C22 19.1046 21.1046 20 20 20H4C2.89543 20 2 19.1046 2 18V14.8293C3.16519 14.4175 4 13.3062 4 12C4 10.6938 3.16519 9.58254 2 9.17071V6ZM14.5259 8.12386L13.3459 9.30398L8.05678 8.34236C7.39592 8.22217 7.19836 8.82982 7.0361 9.32888L7.03589 9.32952C7.02379 9.36674 7.01189 9.40335 7 9.439L10.9155 11.7343L9.43033 13.2194L8.21466 13.1384C7.7296 13.1061 7.27694 13.3834 7.08545 13.8302L7 14.0295L8.87545 15.1245L9.97039 16.9998L10.1697 16.9144C10.6166 16.7229 10.8939 16.2703 10.8615 15.7852L10.7805 14.5696L12.2657 13.0844L14.561 16.9998C14.5969 16.988 14.6337 16.9759 14.6711 16.9638L14.6712 16.9638C15.1702 16.8015 15.7779 16.604 15.6576 15.9431L14.696 10.6541L15.8762 9.47402C16.4285 8.92173 16.8144 8.22536 16.99 7.46433C17.0529 7.19152 16.8085 6.94703 16.5357 7.00999C15.7747 7.18561 15.0782 7.57158 14.5259 8.12386Z" fill="#000000"/>
</svg>
