<svg xmlns="http://www.w3.org/2000/svg" width="24" height="24" viewBox="0 0 24 24" fill="none"><rect width="24" height="24" fill="none"/>
<path d="M19.4997 6.45461L16.8633 3.81821L18.1361 2.54541L19.4997 3.90901L21.8633 1.54541L23.1361 2.81821L19.4997 6.45461ZM22.9999 8.0004V15C22.9999 16.6569 21.6568 18 19.9999 18H4.00009C2.34325 18 1.00011 16.6569 1.00009 15L1 6.00003C0.999983 4.34317 2.34313 3 4 3H15.1C15.0344 3.32311 15 3.65753 15 4C15 6.76142 17.2386 9 20 9C20.3129 9 20.619 8.97127 20.9159 8.9163L21.0001 8.89996C21.7389 8.74997 22.4186 8.43708 22.9999 8.0004ZM3.00014 16L7.00011 16.0005L3.00011 12.0005L3.00014 16ZM18.0001 22C19.1047 22 20.0001 21.1046 20.0001 20H4.00011C4.00011 21.1046 4.89554 22 6.00011 22H18.0001ZM12.0001 13.5C13.657 13.5 15.0001 12.1569 15.0001 10.5C15.0001 8.84315 13.657 7.5 12.0001 7.5C10.3433 7.5 9.00012 8.84315 9.00012 10.5C9.00012 12.1569 10.3433 13.5 12.0001 13.5Z" fill="#000000"/>
</svg>
