<svg xmlns="http://www.w3.org/2000/svg" width="24" height="24" viewBox="0 0 24 24" fill="none"><rect width="24" height="24" fill="none"/>
<path d="M16.8633 3.81823L19.4997 6.45463L23.1361 2.81823L21.8633 1.54543L19.4997 3.90903L18.1361 2.54543L16.8633 3.81823ZM5.10722 18.6795L15.5237 6.23029C15.8324 6.84857 16.2654 7.39394 16.7899 7.83365L6.6411 19.9629L5.10722 18.6795ZM7 11C9.20913 11 11 9.20916 11 7.00002C11 4.79088 9.20913 3.00002 7 3.00002C4.79086 3.00002 3 4.79088 3 7.00002C2.99999 9.20916 4.79085 11 7 11ZM9 7.00002C9 8.10459 8.10456 9.00002 6.99999 9.00002C5.89543 9.00002 5 8.10459 4.99999 7.00002C5 5.89545 5.89542 5.00002 6.99999 5.00002C8.10456 5.00002 9 5.89545 9 7.00002ZM13 17C13 14.7909 14.7909 13 17 13C19.2091 13 21 14.7909 21 17C21 19.2091 19.2091 21 17 21C14.7909 21 13 19.2091 13 17ZM17 15C15.8954 15 15 15.8954 15 17C15 18.1046 15.8954 19 17 19C18.1046 19 19 18.1046 19 17C19 15.8954 18.1046 15 17 15Z" fill="#000000"/>
</svg>
