<svg xmlns="http://www.w3.org/2000/svg" width="24" height="24" viewBox="0 0 24 24" fill="none"><rect width="24" height="24" fill="none"/>
<path d="M1 6.00003C0.999983 4.34317 2.34313 3 4 3H20C21.6568 3 22.9999 4.34315 22.9999 6V15C22.9999 15.2145 22.9774 15.4238 22.9346 15.6256L19.9717 13.169C18.4147 11.8781 16.063 12.9712 16.035 14.9827H15.2132C12.6721 14.9827 10.6757 16.2246 9.42854 18H4.00009C2.34325 18 1.00011 16.6569 1.00009 15L1 6.00003ZM7.00011 16.0005L3.00011 12.0005L3.00014 16L7.00011 16.0005ZM21.0001 5H17.0001L21.0001 9.00049V5ZM12.0001 13.5C13.657 13.5 15.0001 12.1569 15.0001 10.5C15.0001 8.84315 13.657 7.5 12.0001 7.5C10.3433 7.5 9.00011 8.84315 9.00011 10.5C9.00011 12.1569 10.3433 13.5 12.0001 13.5ZM23.5 18.6925C23.7325 18.8527 23.7325 19.1773 23.5 19.3374L18.6938 23.2926C18.4309 23.5091 18.0346 23.322 18.0346 22.9814V21.0136C17.6984 21.0136 17.3559 21.0079 17.0101 21.0022C14.6632 20.9635 12.1604 20.9222 10.376 22.6259H9.97297C9.97297 19.6685 12.0861 16.9827 15.213 16.9827H18.0346V15.019C18.0346 14.6777 18.4323 14.4908 18.695 14.7087L23.5 18.6925Z" fill="#000000"/>
</svg>
