<svg xmlns="http://www.w3.org/2000/svg" width="24" height="24" viewBox="0 0 24 24" fill="none"><rect width="24" height="24" fill="none"/>
<path d="M1 6.00003C0.999983 4.34317 2.34313 3 4 3H20C21.6568 3 22.9999 4.34315 22.9999 6V15C22.9999 16.6569 21.6568 18 19.9999 18H4.00009C2.34325 18 1.00011 16.6569 1.00009 15L1 6.00003ZM7.00011 16.0005L3.00011 12.0005L3.00014 16L7.00011 16.0005ZM21.0001 5H17.0001L21.0001 9.00049V5ZM12.0001 13.5C13.657 13.5 15.0001 12.1569 15.0001 10.5C15.0001 8.84315 13.657 7.5 12.0001 7.5C10.3433 7.5 9.00011 8.84315 9.00011 10.5C9.00011 12.1569 10.3433 13.5 12.0001 13.5Z" fill="#000000"/>
<path d="M20.0001 20C20.0001 21.1046 19.1047 22 18.0001 22H6.00011C4.89554 22 4.00011 21.1046 4.00011 20H20.0001Z" fill="#000000"/>
</svg>
