<svg xmlns="http://www.w3.org/2000/svg" width="24" height="24" viewBox="0 0 24 24" fill="none"><rect width="24" height="24" fill="none"/>
<path d="M4.5 4C4.5 2.34315 5.84315 1 7.5 1H16.5C18.1569 1 19.5 2.34315 19.5 4V21C19.5 22.6569 18.1569 24 16.5 24H7.5C5.84315 24 4.5 22.6569 4.5 21V4ZM11.4997 12.4546L15.1361 8.81821L13.8633 7.54541L11.4997 9.90901L10.1361 8.54541L8.86328 9.81821L11.4997 12.4546ZM9.5 20C9.22386 20 9 20.2239 9 20.5C9 20.7761 9.22386 21 9.5 21H14.5C14.7761 21 15 20.7761 15 20.5C15 20.2239 14.7761 20 14.5 20H9.5Z" fill="#000000"/>
</svg>
