<svg xmlns="http://www.w3.org/2000/svg" width="24" height="24" viewBox="0 0 24 24" fill="none"><rect width="24" height="24" fill="none"/>
<path d="M4 4C2.89543 4 2 4.89543 2 6V9.17071C3.16519 9.58254 4 10.6938 4 12C4 13.3062 3.16519 14.4175 2 14.8293V18C2 19.1046 2.89543 20 4 20H9.74974L11.0903 14.9971L5.66759 13.5441C7.07475 11.18 9.70844 9.82428 12.3729 10.2101L12.5049 9.71749C12.6121 9.31739 13.0234 9.07995 13.4235 9.18716C13.8236 9.29436 14.061 9.70562 13.9538 10.1057L13.8218 10.5983C16.3222 11.5965 17.9252 14.0874 17.9618 16.8383L12.5392 15.3853L11.3027 20H20C21.1046 20 22 19.1046 22 18V14.8293C20.8348 14.4175 20 13.3062 20 12C20 10.6938 20.8348 9.58254 22 9.17071V6C22 4.89543 21.1046 4 20 4H4ZM17.5 9C16.6716 9 16 8.32843 16 7.5C16 6.67157 16.6716 6 17.5 6C18.3284 6 19 6.67157 19 7.5C19 8.32843 18.3284 9 17.5 9Z" fill="#000000"/>
</svg>
