<svg xmlns="http://www.w3.org/2000/svg" width="24" height="24" viewBox="0 0 24 24" fill="none"><rect width="24" height="24" fill="none"/>
<path d="M21 7.0002L18.4144 7.0002L22 3.41423L20.5858 2.00002L17 5.58619L17 3.0002L15 3.0002L15 7.0002L15 9.0002L17 9.0002L21 9.0002L21 7.0002ZM5.10722 18.6795L12.9737 9.27793C13.3442 9.84492 13.8081 10.3454 14.3435 10.7575L6.6411 19.9629L5.10722 18.6795ZM7 11C9.20913 11 11 9.20916 11 7.00002C11 4.79088 9.20914 3.00002 7 3.00002C4.79086 3.00002 3 4.79088 3 7.00002C2.99999 9.20916 4.79086 11 7 11ZM9 7.00002C9 8.10459 8.10457 9.00002 7 9.00002C5.89543 9.00002 5 8.10459 5 7.00002C5 5.89545 5.89543 5.00002 7 5.00002C8.10456 5.00002 9 5.89545 9 7.00002ZM13 17C13 14.7909 14.7909 13 17 13C19.2091 13 21 14.7909 21 17C21 19.2091 19.2091 21 17 21C14.7909 21 13 19.2091 13 17ZM17 15C15.8954 15 15 15.8954 15 17C15 18.1046 15.8954 19 17 19C18.1046 19 19 18.1046 19 17C19 15.8954 18.1046 15 17 15Z" fill="#000000"/>
</svg>
