<svg xmlns="http://www.w3.org/2000/svg" width="24" height="24" viewBox="0 0 24 24" fill="none"><rect width="24" height="24" fill="none"/>
<path d="M21 7.0002L18.4144 7.0002L22 3.41423L20.5858 2.00002L17 5.58619L17 3.0002L15 3.0002L15 7.0002L15 9.0002L17 9.0002L21 9.0002L21 7.0002ZM12 2.00002C12.4883 2.00002 12.9684 2.03502 13.438 2.10265C12.5414 3.15111 12 4.51234 12 6.00002C12 7.281 12.4014 8.46822 13.0853 9.44275L7.60184 16.2971L8.77314 17.2342L14.1075 10.5662C15.1553 11.4603 16.5146 12 18 12C19.4877 12 20.8489 11.4586 21.8974 10.562C21.965 11.0316 22 11.5117 22 12C22 17.5229 17.5228 22 12 22C6.47714 22 1.99999 17.5229 1.99999 12C1.99999 6.47717 6.47714 2.00002 12 2.00002ZM10.9983 9.12421C10.9983 7.81298 9.93539 6.75003 8.62417 6.75003C7.31295 6.75003 6.24999 7.81298 6.24999 9.12421C6.24999 10.4354 7.31295 11.4984 8.62417 11.4984C9.93539 11.4984 10.9983 10.4354 10.9983 9.12421ZM15.373 17.25C16.6858 17.25 17.75 16.1858 17.75 14.8731C17.75 13.5603 16.6858 12.4961 15.373 12.4961C14.0603 12.4961 12.9961 13.5603 12.9961 14.8731C12.9961 16.1858 14.0603 17.25 15.373 17.25ZM8.62417 10.0984C8.08614 10.0984 7.64999 9.66223 7.64999 9.12421C7.64999 8.58618 8.08614 8.15003 8.62417 8.15003C9.16219 8.15003 9.59834 8.58618 9.59834 9.12421C9.59834 9.66223 9.16219 10.0984 8.62417 10.0984ZM16.35 14.8731C16.35 15.4126 15.9126 15.85 15.373 15.85C14.8335 15.85 14.3961 15.4126 14.3961 14.8731C14.3961 14.3335 14.8335 13.8961 15.373 13.8961C15.9126 13.8961 16.35 14.3335 16.35 14.8731Z" fill="#000000"/>
</svg>
