<svg xmlns="http://www.w3.org/2000/svg" width="24" height="24" viewBox="0 0 24 24" fill="none"><rect width="24" height="24" fill="none"/>
<path d="M23 6.00018H20.4144L24 2.41421L22.5858 1L19 4.58618V2.00018H17V6.00018V8.00018H19H23V6.00018ZM14.185 2C14.4681 2 14.7414 2.039 15 2.11171V8C15 9.10457 15.8954 10 17 10H22V21C22 21.5523 21.5523 22 21 22H9.00037C9.62806 21.1643 10 20.1256 10 19C10 18.0893 9.75651 17.2354 9.33109 16.5C9.75651 15.7646 10 14.9107 10 14C10 11.581 8.28224 9.56329 6 9.10002V3C6 2.44772 6.44772 2 7 2H14.185ZM12.7275 16.4092L15.3639 19.0456L19.0003 15.4092L17.7275 14.1364L15.3639 16.5L14.0003 15.1364L12.7275 16.4092ZM7.86264 18.1C7.05172 18.6672 6.06473 19 5 19C3.93527 19 2.94828 18.6672 2.13736 18.1C2.04811 18.3841 2 18.6864 2 19C2 20.6569 3.34315 22 5 22C6.65685 22 8 20.6569 8 19C8 18.6864 7.95189 18.3841 7.86264 18.1ZM5 17C6.65685 17 8 15.6569 8 14C8 12.3431 6.65685 11 5 11C3.34315 11 2 12.3431 2 14C2 15.6569 3.34315 17 5 17Z" fill="#000000"/>
</svg>
