<svg xmlns="http://www.w3.org/2000/svg" width="24" height="24" viewBox="0 0 24 24" fill="none"><rect width="24" height="24" fill="none"/>
<g clip-path="url(#clip0_117462_894)">
<path d="M23 5.00018H20.4144L24 1.41421L22.5858 0L19 3.58618V1.00018H17V5.00018V7.00018H19H23V5.00018ZM20 10C17.3876 10 15.1651 8.33038 14.3414 6H14H10V5C10 3.89543 10.8954 3 12 3C13.1046 3 14 3.89543 14 5V4C14 3.22685 14.1462 2.48786 14.4126 1.80917C13.7419 1.3013 12.9061 1 12 1C9.79086 1 8 2.79086 8 5V6H4L3 22H21L20.2497 9.9949C20.1669 9.99829 20.0836 10 20 10ZM9.23684 13.4737C8.00147 13.4737 7 12.4722 7 11.2368C7 10.0015 8.00147 9 9.23684 9C10.4722 9 11.4737 10.0015 11.4737 11.2368C11.4737 12.4722 10.4722 13.4737 9.23684 13.4737ZM9.23684 12.1579C9.74553 12.1579 10.1579 11.7455 10.1579 11.2368C10.1579 10.7282 9.74553 10.3158 9.23684 10.3158C8.72816 10.3158 8.31579 10.7282 8.31579 11.2368C8.31579 11.7455 8.72816 12.1579 9.23684 12.1579ZM14.7632 19C13.5278 19 12.5263 17.9985 12.5263 16.7632C12.5263 15.5278 13.5278 14.5263 14.7632 14.5263C15.9985 14.5263 17 15.5278 17 16.7632C17 17.9985 15.9985 19 14.7632 19ZM14.7632 17.6842C15.2718 17.6842 15.6842 17.2718 15.6842 16.7632C15.6842 16.2545 15.2718 15.8421 14.7632 15.8421C14.2545 15.8421 13.8421 16.2545 13.8421 16.7632C13.8421 17.2718 14.2545 17.6842 14.7632 17.6842ZM16.0553 10.1881L8.95083 18.6549L7.94287 17.8091L15.0474 9.34231L16.0553 10.1881Z" fill="#000000"/>
</g>
<defs>
<clipPath id="clip0_117462_894">
<rect width="24" height="24" fill="white"/>
</clipPath>
</defs>
</svg>
