<svg xmlns="http://www.w3.org/2000/svg" width="24" height="24" viewBox="0 0 24 24" fill="none"><rect width="24" height="24" fill="none"/>
<path d="M19 9C20.6569 9 22 7.65685 22 6C22 4.34315 20.6569 3 19 3C17.3431 3 16 4.34315 16 6C16 7.65685 17.3431 9 19 9ZM14 10H3V9C3 7.89543 3.89543 7 5 7H14V10ZM14.1 12H3V17C3 18.1046 3.89543 19 5 19H19C20.1046 19 21 18.1046 21 17V16H19C16.581 16 14.5633 14.2822 14.1 12ZM21.8626 10.1C21.0517 10.6672 20.0647 11 19 11C17.9353 11 16.9483 10.6672 16.1374 10.1C16.0481 10.3841 16 10.6864 16 11C16 12.6569 17.3431 14 19 14C20.6569 14 22 12.6569 22 11C22 10.6864 21.9519 10.3841 21.8626 10.1Z" fill="#000000"/>
</svg>
