<svg xmlns="http://www.w3.org/2000/svg" width="24" height="24" viewBox="0 0 24 24" fill="none"><rect width="24" height="24" fill="none"/>
<path d="M23 5.00018H20.4144L24 1.41421L22.5858 0L19 3.58618V1.00018H17V5.00018V7.00018H19H23V5.00018ZM14 4H4C2.89543 4 2 4.89543 2 6V9.17071C3.16519 9.58254 4 10.6938 4 12C4 13.3062 3.16519 14.4175 2 14.8293V18C2 19.1046 2.89543 20 4 20H20C21.1046 20 22 19.1046 22 18V14.8293C20.8348 14.4175 20 13.3062 20 12C20 11.2049 20.3093 10.4821 20.8141 9.94523C20.5479 9.98135 20.2761 10 20 10C18.6559 10 17.4151 9.55807 16.4149 8.81159C16.2592 9.04919 16.0789 9.27131 15.8762 9.47402L14.696 10.6541L15.6576 15.9431C15.7779 16.604 15.1702 16.8015 14.6712 16.9638L14.6711 16.9638C14.6337 16.9759 14.5969 16.988 14.561 16.9998L12.2657 13.0844L10.7805 14.5696L10.8615 15.7852C10.8939 16.2703 10.6166 16.7229 10.1697 16.9144L9.97039 16.9998L8.87545 15.1245L7 14.0295L7.08545 13.8302C7.27694 13.3834 7.7296 13.1061 8.21466 13.1384L9.43033 13.2194L10.9155 11.7343L7 9.439C7.01189 9.40335 7.02379 9.36674 7.03589 9.32952L7.0361 9.32888C7.19836 8.82982 7.39592 8.22217 8.05678 8.34236L13.3459 9.30398L14.5259 8.12386C14.7287 7.92114 14.9508 7.74084 15.1884 7.58511C14.4419 6.58488 14 5.34405 14 4Z" fill="#000000"/>
</svg>
