<svg xmlns="http://www.w3.org/2000/svg" width="24" height="24" viewBox="0 0 24 24" fill="none"><rect width="24" height="24" fill="none"/>
<path d="M5.63604 5.63604C8.13475 3.13733 11.7372 2.41502 14.874 3.46911L16.4195 1.92363C12.3907 0.157848 7.51974 0.923914 4.22183 4.22183C0.923914 7.51974 0.157849 12.3907 1.92363 16.4195L3.46911 14.874L3.4691 14.874L6.34305 12L4.92884 10.5858L3.00327 12.1958L3.00211 12.1956C2.95095 9.82757 3.82892 7.44316 5.63604 5.63604ZM19.7782 19.7782C16.4802 23.0761 11.6092 23.8422 7.58046 22.0763L9.12594 20.5309C12.2628 21.585 15.8652 20.8627 18.364 18.364C20.1711 16.5568 21.0491 14.1723 20.9979 11.8041L20.9967 11.8042L19.0712 13.4142L17.6569 12L20.5309 9.12604L20.5309 9.12594L22.0763 7.58046C23.8422 11.6092 23.0761 16.4802 19.7782 19.7782ZM8 6.99999V18C8 18.5523 8.44772 19 9 19H15C15.5523 19 16 18.5523 16 18V6.99999C16 6.4477 15.5523 5.99999 15 5.99999H9C8.44772 5.99999 8 6.4477 8 6.99999ZM11 17H13V18H11V17Z" fill="#000000"/>
</svg>
