<svg xmlns="http://www.w3.org/2000/svg" width="24" height="24" viewBox="0 0 24 24" fill="none"><rect width="24" height="24" fill="none"/>
<path d="M7 3.00001L17 3.00001L17 5.00001L19 5.00001C20 5.00001 21 5.80001 21 7.00001C21 8.86806 21 12.0447 16.9258 12.8632C16.5736 14.887 15.0045 16.4931 13 16.9L13 19L16 19L16 21L8 21L8 19L11 19L11 16.9C8.99547 16.4931 7.42641 14.887 7.07423 12.8632C2.99999 12.0447 2.99999 8.86806 3 7.00001C3 5.80001 4 5.00001 5 5.00001L7 5.00001L7 3.00001ZM17 10.8293C18.1652 10.4175 19 9.30623 19 8.00001L19 7.00001L17 7.00001L17 10.8293ZM7 7.00001L5 7.00001L5 8.00001C5 9.30623 5.83481 10.4175 7 10.8293L7 7.00001ZM11 5.5C10.0335 5.5 9.25 6.2835 9.25 7.25L9.25 8.25L10.75 8.25L10.75 7.25C10.75 7.11193 10.8619 7 11 7L13 7C13.1381 7 13.25 7.11193 13.25 7.25L13.25 7.6415C13.25 8.07249 13.028 8.47308 12.6625 8.7015L9.6025 10.614C9.38321 10.7511 9.25 10.9914 9.25 11.25L9.25 12.25C9.25 12.6642 9.58579 13 10 13L14.75 13L14.75 11.5L11.0151 11.5L13.4575 9.9735C14.2615 9.47097 14.75 8.58968 14.75 7.6415L14.75 7.25C14.75 6.2835 13.9665 5.5 13 5.5L11 5.5Z" fill="#000000"/>
</svg>
