<svg xmlns="http://www.w3.org/2000/svg" width="24" height="24" viewBox="0 0 24 24" fill="none"><rect width="24" height="24" fill="none"/>
<path d="M19 8.00001C20.6569 8.00001 22 6.65687 22 5.00001C22 3.34316 20.6569 2.00002 19 2.00001C17.3431 2.00001 16 3.34316 16 5.00001C16 6.65687 17.3431 8.00001 19 8.00001ZM19 10C20.0647 10 21.0517 9.66724 21.8626 9.09999C21.9519 9.38412 22 9.68646 22 10C22 11.6569 20.6569 13 19 13C17.3431 13 16 11.6569 16 10C16 9.68646 16.0481 9.38412 16.1374 9.09999C16.9483 9.66724 17.9353 10 19 10ZM7.99998 4.00002L14 4.00002L14 9.00002L5 9.00002L5.00001 20C5 20.5523 5.44769 21 6.00002 21L18 21C18.5523 21 19 20.5523 19 20L19 15L21 15L21 20C21 21.6568 19.6568 23 18 23L6.00002 23C4.34317 23 2.99999 21.6569 3.00001 20L3 4.00002L5.99998 4.00002L5.99998 2.00002L7.99998 2.00002L7.99998 4.00002ZM11 12L13 12L13 14L11 14L11 12ZM8.99998 14L8.99998 12L6.99998 12L6.99998 14L8.99998 14ZM8.99998 16L8.99998 18L6.99998 18L6.99998 16L8.99998 16ZM11 16L13 16L13 18L11 18L11 16Z" fill="#000000"/>
</svg>
