<svg xmlns="http://www.w3.org/2000/svg" width="24" height="24" viewBox="0 0 24 24" fill="none"><rect width="24" height="24" fill="none"/>
<path d="M16.8633 3.81821L19.4997 6.45461L23.1361 2.81821L21.8633 1.54541L19.4997 3.90901L18.1361 2.54541L16.8633 3.81821ZM7.99998 4H15C15 5.63559 15.7853 7.08776 16.9995 7.99999L3 7.99997L3 4H5.99998V2H7.99998V4ZM21 10L3 10L3.00001 20C3 21.6569 4.34318 23 6.00002 23H18C19.6568 23 21 21.6568 21 20L21 10ZM9 12V14H7V12H9ZM15 12H17V14H15V12ZM13 12V14H11V12H13ZM11 16H13V18H11V16ZM9 16V18H7V16H9Z" fill="#000000"/>
</svg>
