<svg xmlns="http://www.w3.org/2000/svg" width="24" height="24" viewBox="0 0 24 24" fill="none"><rect width="24" height="24" fill="none"/>
<path d="M3.66052 4.78081C3.26556 4.91246 2.99498 5.26818 3.00311 5.68442C3.05648 8.41599 3.81487 18.5516 12.0041 21.9996C20.1932 18.5516 20.9517 8.416 21.0051 5.68443C21.0132 5.26818 20.7426 4.91246 20.3476 4.78081L12.3203 2.10503C12.115 2.03661 11.8931 2.03661 11.6879 2.10503L3.66052 4.78081ZM11.9778 8.65559L10.8909 11.6941H13.0539L12.0213 8.65559H11.9778ZM12.0648 6.99962C12.9452 6.99962 13.2006 7.48578 13.4235 8.1036L15.7495 14.4996H14.0485L13.505 12.9804H10.4235L9.87998 14.4996H8.24955L10.6626 8.1036C10.8909 7.48578 11.1843 6.99962 12.0648 6.99962Z" fill="#000000"/>
</svg>
