<svg xmlns="http://www.w3.org/2000/svg" width="24" height="24" viewBox="0 0 24 24" fill="none"><rect width="24" height="24" fill="none"/>
<path d="M13.5681 2C14.4472 2 15.2089 2.21553 15.8131 2.66888C16.4168 3.12182 16.77 3.74223 16.959 4.38433C17.1795 5.13357 17.1936 5.9673 17.1038 6.76716C17.9425 6.68238 18.8257 6.71321 19.6177 6.9919C20.2913 7.2289 20.9133 7.65089 21.3555 8.32864C21.7918 8.99745 22.0001 9.83383 22.0001 10.8149V22.0001C18.2608 22.0002 14.957 22.0002 11.514 22.0001L9.00027 22.0001C9.43703 21.4187 9.74998 20.7389 9.89998 20L15.1851 20L20.0001 20.0001V10.8149C20.0001 10.1108 19.8512 9.68325 19.6804 9.42148C19.5155 9.16864 19.2804 8.99339 18.9539 8.87852C18.2394 8.6271 17.1936 8.70432 16.0934 8.97172C15.7521 9.05469 15.3922 8.95246 15.1455 8.70241C14.8987 8.45237 14.8013 8.09119 14.8888 7.75097C15.1608 6.69296 15.249 5.65808 15.0404 4.94902C14.9432 4.61889 14.7958 4.40596 14.6128 4.26862C14.4303 4.1317 14.1193 4 13.5681 4L8 3.99998V9.99963C7.41859 9.56292 6.73888 9.25 6 9.10002V2.00007L13.5681 2ZM5 19C6.06473 19 7.05172 18.6672 7.86264 18.1C7.95189 18.3841 8 18.6864 8 19C8 20.6569 6.65685 22 5 22C3.34315 22 2 20.6569 2 19C2 18.6864 2.04811 18.3841 2.13736 18.1C2.94828 18.6672 3.93527 19 5 19ZM8 14C8 15.6569 6.65685 17 5 17C3.34315 17 2 15.6569 2 14C2 12.3431 3.34315 11 5 11C6.65685 11 8 12.3431 8 14ZM11.7275 15.4092L13.0003 14.1364L14.3639 15.5L16.7275 13.1364L18.0003 14.4092L14.3639 18.0456L11.7275 15.4092Z" fill="#000000"/>
</svg>
