<svg xmlns="http://www.w3.org/2000/svg" width="24" height="24" viewBox="0 0 24 24" fill="none"><rect width="24" height="24" fill="none"/>
<path d="M15 6.75C15 4.2737 14 1.75 11 1.75C7.99997 1.75 6.99998 4.22747 6.99998 6.75C6.99998 9.27253 8.7725 11.25 11 11.25C13.2275 11.25 15 9.2263 15 6.75ZM14 19C14 20.1256 14.3719 21.1643 14.9996 22H2V19.7143C2.05899 18.7199 2.45203 18.1261 3.05402 17.405C4.32062 15.8877 6.9917 14 11 14C13.0246 14 14.6646 14.4264 15.9554 15.0335C14.7664 15.9476 14 17.3843 14 19ZM15.8633 18.8177L18.4997 21.4541L22.1361 17.8177L20.8633 16.5449L18.4997 18.9085L17.1361 17.5449L15.8633 18.8177Z" fill="#000000"/>
</svg>
