<svg xmlns="http://www.w3.org/2000/svg" width="24" height="24" viewBox="0 0 24 24" fill="none"><rect width="24" height="24" fill="none"/>
<path d="M2 6C2 4.89543 2.89543 4 4 4H20C21.1046 4 22 4.89543 22 6V9.17071C20.8348 9.58254 20 10.6938 20 12C20 13.3062 20.8348 14.4175 22 14.8293V18C22 19.1046 21.1046 20 20 20H4C2.89543 20 2 19.1046 2 18V14.8293C3.16519 14.4175 4 13.3062 4 12C4 10.6938 3.16519 9.58254 2 9.17071V6ZM7.5 15.2676C7.5 16.1573 8.27089 16.8873 9.04532 17H14.9548C15.7292 16.8873 16.5 16.1573 16.5 15.2676V10.0699C16.5 9.15152 15.8486 6.99851 14.1109 7L9.88914 7.00149C8.30599 7 7.5 9.15152 7.5 10.0699V15.2676ZM10.8493 15.5L9.02508 15.2199C8.88116 15.1978 8.78296 15.0668 8.80575 14.9272L8.83909 14.2127C8.86188 14.0731 8.99704 13.978 9.14097 14L9.9228 14.1201C10.2107 14.1643 10.8949 15.2209 10.8493 15.5ZM13.1514 15.5L14.9759 15.2198C15.1198 15.1978 15.218 15.0667 15.1952 14.9271L15.0635 14.2127C15.0406 14.0731 14.9055 13.9779 14.7616 14L13.9797 14.12C13.6919 14.1642 13.1058 15.2209 13.1514 15.5ZM9.88952 13H14.1113C14.6665 13 14.9809 12.343 14.9759 11.6048L14.976 10.0312C14.976 9.39278 14.7675 8.5 14.1113 8.5H9.88952C9.23328 8.5 9.02508 9.39278 9.02508 10.0312L9.02504 11.5289C9.01993 12.2671 9.33425 13 9.88952 13Z" fill="#000000"/>
</svg>
