<svg xmlns="http://www.w3.org/2000/svg" width="24" height="24" viewBox="0 0 24 24" fill="none"><rect width="24" height="24" fill="none"/>
<g clip-path="url(#clip0_117451_228)">
<path d="M14 3.66667C14 4.56669 13.5 5.5 12 5.5C10.5 5.5 10 4.56669 10 3.66667C10 2.44444 12 0 12 0C12 0 14 2.44444 14 3.66667ZM20 11.4577C19.5656 11.6672 19.1674 11.9423 18.8174 12.2693C18.3242 12.7303 17.6885 13 17 13C16.3115 13 15.6758 12.7303 15.1826 12.2693C14.3438 11.4857 13.2285 11.0001 12 11.0001C10.7715 11.0001 9.65625 11.4855 8.81738 12.2692C8.32422 12.7303 7.68848 12.9999 7 12.9999C6.31152 12.9999 5.67578 12.7303 5.18262 12.2692C4.83258 11.9422 4.43443 11.6671 4 11.4576V9H20V11.4577ZM2 11V13V21H22V13.0002V11.0002V9C22 7.89543 21.1046 7 20 7H4C2.89543 7 2 7.89543 2 9V11ZM20 19H4V13.8929C4.81503 14.5807 5.85862 14.9999 7 14.9999C8.22852 14.9999 9.34375 14.5143 10.1826 13.7307C10.6758 13.2697 11.3115 13.0001 12 13.0001C12.6885 13.0001 13.3242 13.2697 13.8174 13.7308C14.6562 14.5144 15.7715 15 17 15C18.1414 15 19.185 14.5808 20 13.893V19Z" fill="#000000"/>
</g>
<defs>
<clipPath id="clip0_117451_228">
<rect width="24" height="24" fill="white"/>
</clipPath>
</defs>
</svg>
