<svg xmlns="http://www.w3.org/2000/svg" width="24" height="24" viewBox="0 0 24 24" fill="none"><rect width="24" height="24" fill="none"/>
<path d="M23 5.00018H20.4144L24 1.41421L22.5858 0L19 3.58618V1.00018H17V5.00018V7.00018H19H23V5.00018ZM20 12C20 11.2049 20.3093 10.4821 20.8141 9.94523C20.5479 9.98135 20.2761 10 20 10C18.5446 10 17.2103 9.48184 16.1714 8.61995C16.3993 9.15678 16.5 9.70876 16.5 10.0699V15.2676C16.5 16.1573 15.7292 16.8873 14.9548 17H9.04532C8.27089 16.8873 7.5 16.1573 7.5 15.2676V10.0699C7.5 9.15152 8.30599 7 9.88914 7.00149L14.1109 7C14.4059 6.99975 14.6696 7.0616 14.9042 7.16898C14.3311 6.24938 14 5.16335 14 4H4C2.89543 4 2 4.89543 2 6V9.17071C3.16519 9.58254 4 10.6938 4 12C4 13.3062 3.16519 14.4175 2 14.8293V18C2 19.1046 2.89543 20 4 20H20C21.1046 20 22 19.1046 22 18V14.8293C20.8348 14.4175 20 13.3062 20 12ZM10.8493 15.5L9.02508 15.2199C8.88116 15.1978 8.78296 15.0668 8.80575 14.9272L8.83909 14.2127C8.86188 14.0731 8.99704 13.978 9.14097 14L9.9228 14.1201C10.2107 14.1643 10.8949 15.2209 10.8493 15.5ZM13.1514 15.5L14.9759 15.2198C15.1198 15.1978 15.218 15.0667 15.1952 14.9271L15.0635 14.2127C15.0406 14.0731 14.9055 13.9779 14.7616 14L13.9797 14.12C13.6919 14.1642 13.1058 15.2209 13.1514 15.5ZM9.88952 13H14.1113C14.6665 13 14.9809 12.343 14.9759 11.6048L14.976 10.0312C14.976 9.39278 14.7675 8.5 14.1113 8.5H9.88952C9.23328 8.5 9.02508 9.39278 9.02508 10.0312L9.02504 11.5289C9.01993 12.2671 9.33425 13 9.88952 13Z" fill="#000000"/>
</svg>
