<svg xmlns="http://www.w3.org/2000/svg" width="24" height="24" viewBox="0 0 24 24" fill="none"><rect width="24" height="24" fill="none"/>
<path d="M16.8633 3.81821L19.4997 6.45461L23.1361 2.81821L21.8633 1.54541L19.4997 3.90901L18.1361 2.54541L16.8633 3.81821ZM22.9999 15V8.0004C22.4186 8.43708 21.7389 8.74997 21.0001 8.89996V9.00049L20.9159 8.9163C20.619 8.97127 20.3129 9 20 9C17.2386 9 15 6.76142 15 4C15 3.65753 15.0344 3.32311 15.1 3H4C2.34313 3 0.999983 4.34317 1 6.00003L1.00009 15C1.00011 16.6569 2.34325 18 4.00009 18H19.9999C21.6568 18 22.9999 16.6569 22.9999 15ZM7.00011 16.0005L3.00014 16L3.00011 12.0005L7.00011 16.0005ZM12.0001 13.5C13.657 13.5 15.0001 12.1569 15.0001 10.5C15.0001 8.84315 13.657 7.5 12.0001 7.5C10.3433 7.5 9.00011 8.84315 9.00011 10.5C9.00011 12.1569 10.3433 13.5 12.0001 13.5ZM20.0001 20C20.0001 21.1046 19.1047 22 18.0001 22H6.00011C4.89554 22 4.00011 21.1046 4.00011 20H20.0001Z" fill="#000000"/>
</svg>
