<svg xmlns="http://www.w3.org/2000/svg" width="24" height="24" viewBox="0 0 24 24" fill="none"><rect width="24" height="24" fill="none"/>
<path d="M11.9997 2.00001C7.95635 1.99301 5.90847 5.20225 5.57845 7.2691C5.31608 8.91279 5.71669 10.5517 6.707 11.8838C8.02588 13.6575 8.77529 15.4728 9.00607 17.2941H14.9874C15.2064 15.4168 15.9335 13.6113 17.1846 12.0249C18.0451 10.9326 18.5 9.62975 18.5 8.25627C18.5 5.63116 16.3703 2.00757 11.9997 2.00001ZM10.9364 12L8.45455 9.68382L9.51818 8.69118L10.9364 10.0147L14.4818 6.70588L15.5455 7.69853L10.9364 12Z" fill="#000000"/>
<path d="M11.9975 22C13.6284 22 14.9545 20.6809 14.9545 19.0588H9.04545C9.07217 20.7118 10.3566 22 11.9975 22Z" fill="#000000"/>
</svg>
