<svg xmlns="http://www.w3.org/2000/svg" width="24" height="24" viewBox="0 0 24 24" fill="none"><rect width="24" height="24" fill="none"/>
<path d="M16.5 3C17.0523 3 17.5 3.44772 17.5 4V21C17.5 21.5523 17.0523 22 16.5 22H7.5C6.94772 22 6.5 21.5523 6.5 21V4C6.5 3.44772 6.94772 3 7.5 3H16.5ZM7.5 1C5.84315 1 4.5 2.34315 4.5 4V21C4.5 22.6569 5.84315 24 7.5 24H16.5C18.1569 24 19.5 22.6569 19.5 21V4C19.5 2.34315 18.1569 1 16.5 1H7.5ZM9 20.5C9 20.2239 9.22386 20 9.5 20H14.5C14.7761 20 15 20.2239 15 20.5C15 20.7761 14.7761 21 14.5 21H9.5C9.22386 21 9 20.7761 9 20.5ZM8.86328 9.81821L11.4997 12.4546L15.1361 8.81821L13.8633 7.54541L11.4997 9.90901L10.1361 8.54541L8.86328 9.81821Z" fill="#000000"/>
</svg>
