<svg xmlns="http://www.w3.org/2000/svg" width="24" height="24" viewBox="0 0 24 24" fill="none"><rect width="24" height="24" fill="none"/>
<path d="M16.4139 3.29257L15.7068 5.41389L17.8281 4.70678L18.5352 2.58546L16.4139 3.29257ZM8.41429 5.41389L7.70718 3.29257L5.58586 2.58546L6.29297 4.70678L8.41429 5.41389ZM18.1211 5.99994L16.1211 6.99994L18.1211 7.99994L20.1211 6.99994L18.1211 5.99994ZM8 6.99994L6 5.99994L4 6.99994L6 7.99994L8 6.99994ZM17.829 9.29276L15.7076 8.58565L16.4147 10.707L18.5361 11.4141L17.829 9.29276ZM8.41346 8.58565L6.29214 9.29276L5.58504 11.4141L7.70636 10.707L8.41346 8.58565ZM3 15.9999C2.44772 15.9999 2 16.4477 2 16.9999L2 21.9999L7.5 21.9999L7.5 16.9999C7.5 16.4477 7.05228 15.9999 6.5 15.9999L3 15.9999ZM10 11.9999C9.44772 11.9999 9 12.4477 9 12.9999L9 21.9999L15 21.9999L15 12.9999C15 12.4477 14.5523 11.9999 14 11.9999L10 11.9999ZM16.5 16.9999C16.5 16.4477 16.9477 15.9999 17.5 15.9999L21 15.9999C21.5523 15.9999 22 16.4477 22 16.9999L22 21.9999L16.5 21.9999L16.5 16.9999ZM13 3.99994L11.5 3.99994L10 4.99994L10 6.49994L11.5 5.49994L11.5 9.99994L13 9.99994L13 3.99994Z" fill="#000000"/>
</svg>
