<svg xmlns="http://www.w3.org/2000/svg" width="24" height="24" viewBox="0 0 24 24" fill="none"><rect width="24" height="24" fill="none"/>
<path d="M4.5 4C4.5 2.34315 5.84315 1 7.5 1H16.5C18.1569 1 19.5 2.34315 19.5 4V21C19.5 22.6569 18.1569 24 16.5 24H7.5C5.84315 24 4.5 22.6569 4.5 21V4ZM10.8913 9.69446L11.9783 6.65598H12.0217L13.0543 9.69446H10.8913ZM13.4239 6.10398C13.2011 5.48616 12.9457 5 12.0652 5C11.1848 5 10.8913 5.48616 10.663 6.10398L8.25 12.5H9.88043L10.4239 10.9808H13.5054L14.0489 12.5H15.75L13.4239 6.10398ZM9.5 20C9.22386 20 9 20.2239 9 20.5C9 20.7761 9.22386 21 9.5 21H14.5C14.7761 21 15 20.7761 15 20.5C15 20.2239 14.7761 20 14.5 20H9.5Z" fill="#000000"/>
</svg>
