<svg xmlns="http://www.w3.org/2000/svg" width="24" height="24" viewBox="0 0 24 24" fill="none"><rect width="24" height="24" fill="none"/>
<path d="M16.8633 3.81772L19.4997 6.45412L23.1361 2.81772L21.8633 1.54492L19.4997 3.90852L18.1361 2.54492L16.8633 3.81772ZM12.6326 2.21103L15.0937 3.0314C15.0322 3.34476 15 3.66862 15 4C15 4.39678 15.0462 4.78276 15.1336 5.15286L12.0002 4.1084L5.02972 6.43189C5.11547 7.91945 5.40412 10.3855 6.3251 12.8816C7.34415 15.6435 9.0682 18.2742 12.0002 19.7934C14.9321 18.2742 16.6561 15.6435 17.6752 12.8816C18.1982 11.4643 18.5172 10.0566 18.7111 8.83229C19.1223 8.94169 19.5543 9 20 9C20.2434 9 20.4827 8.98261 20.7167 8.94901C20.0892 13.1143 18.1188 19.4239 12.0002 22.0002C3.81097 18.5522 3.05257 8.41658 2.9992 5.68502C2.99107 5.26877 3.26166 4.91305 3.65661 4.7814L11.3677 2.21103C11.7783 2.07419 12.2221 2.07419 12.6326 2.21103ZM11.9783 8.65619L10.8913 11.6947H13.0543L12.0217 8.65619H11.9783ZM12.0652 7.00021C12.9457 7.00021 13.2011 7.48637 13.4239 8.1042L15.75 14.5002H14.0489L13.5054 12.981H10.4239L9.88043 14.5002H8.25L10.663 8.1042C10.8913 7.48637 11.1848 7.00021 12.0652 7.00021Z" fill="#000000"/>
</svg>
