<svg xmlns="http://www.w3.org/2000/svg" width="24" height="24" viewBox="0 0 24 24" fill="none"><rect width="24" height="24" fill="none"/>
<path d="M16.5 3C17.0523 3 17.5 3.44772 17.5 4V21C17.5 21.5523 17.0523 22 16.5 22H7.5C6.94772 22 6.5 21.5523 6.5 21V4C6.5 3.44772 6.94772 3 7.5 3H16.5ZM7.5 1C5.84315 1 4.5 2.34315 4.5 4V21C4.5 22.6569 5.84315 24 7.5 24H16.5C18.1569 24 19.5 22.6569 19.5 21V4C19.5 2.34315 18.1569 1 16.5 1H7.5ZM9 20.5C9 20.2239 9.22386 20 9.5 20H14.5C14.7761 20 15 20.2239 15 20.5C15 20.7761 14.7761 21 14.5 21H9.5C9.22386 21 9 20.7761 9 20.5ZM11.9783 6.65598L10.8913 9.69446H13.0543L12.0217 6.65598H11.9783ZM12.0652 5C12.9457 5 13.2011 5.48616 13.4239 6.10398L15.75 12.5H14.0489L13.5054 10.9808H10.4239L9.88043 12.5H8.25L10.663 6.10398C10.8913 5.48616 11.1848 5 12.0652 5Z" fill="#000000"/>
</svg>
