<svg xmlns="http://www.w3.org/2000/svg" width="24" height="24" viewBox="0 0 24 24" fill="none"><rect width="24" height="24" fill="none"/>
<path d="M18.9995 19.006L20.4995 17.506L20.8167 17.8232L20.8252 17.8193L14.0058 10.9999H13.9936L11.9936 8.99993H12.0058L9.00578 5.99993H8.99346L5.99948 3.00586L4.49951 4.50589L8.58122 8.58769L3.74615 10.7632C2.86867 11.158 3.00052 12.443 3.93989 12.6514L9.37931 13.8582C9.7585 13.9423 10.0547 14.2384 10.1389 14.6176L11.3482 20.0612C11.5569 21.0003 12.8417 21.132 13.2364 20.2546L15.4122 15.4186L18.9995 19.006Z" fill="#000000"/>
<path d="M19.918 5.40392L17.2779 11.2719L16.0059 10H15.9936L13.9936 8H14.0059L12.7279 6.72191L18.5957 4.08168C19.4349 3.70408 20.2955 4.56472 19.918 5.40392Z" fill="#000000"/>
</svg>
