<svg xmlns="http://www.w3.org/2000/svg" width="24" height="24" viewBox="0 0 24 24" fill="none"><rect width="24" height="24" fill="none"/>
<path d="M2 4C2 2.89543 2.89543 2 4 2H9.5C10.6046 2 11.5 2.89543 11.5 4V9.5C11.5 10.6046 10.6046 11.5 9.5 11.5H4C2.89543 11.5 2 10.6046 2 9.5V4ZM6.24675 9.19924L9.88315 5.56284L8.61035 4.29004L6.24675 6.65364L4.88315 5.29004L3.61035 6.56284L6.24675 9.19924ZM14.3955 14.2855L16 19.5C14.5 19 13.5 19 13 20C13.4647 20.4647 14.3343 21.061 15.1642 21.6301C15.5952 21.9256 16.0156 22.2139 16.363 22.4725C16.7884 22.7893 17.298 23 17.8284 23H20.6688C21.8945 23 22.8319 21.9074 22.6455 20.6959L22.1305 17.3479C22.0554 16.8601 21.6357 16.5 21.1421 16.5H17.5L16.258 13.6021C16.1015 13.2368 15.7424 13 15.345 13C14.6766 13 14.199 13.6467 14.3955 14.2855ZM14.5 2C13.3954 2 12.5 2.89543 12.5 4V9.5C12.5 10.6046 13.3954 11.5 14.5 11.5H20C21.1046 11.5 22 10.6046 22 9.5V4C22 2.89543 21.1046 2 20 2H14.5ZM14.1104 6.56284L15.3832 5.29004L16.7468 6.65364L19.1104 4.29004L20.3832 5.56284L16.7468 9.19924L14.1104 6.56284ZM2 14.5C2 13.3954 2.89543 12.5 4 12.5H9.5C10.6046 12.5 11.5 13.3954 11.5 14.5V20C11.5 21.1046 10.6046 22 9.5 22H4C2.89543 22 2 21.1046 2 20V14.5ZM4 14.5V20H9.5V14.5H4Z" fill="#000000"/>
</svg>
