<svg xmlns="http://www.w3.org/2000/svg" width="48" height="18" viewBox="0 0 48 18" fill="none"><rect width="48" height="18" fill="none"/>
<path d="M40.594 7.79466C37.524 7.79466 33.6384 5.38 33.6384 2.40039H43.3702C45.9268 2.40039 48 4.4117 48 6.89426C48 7.19682 47.9682 7.49858 47.9052 7.79466H40.594Z" fill="url(#paint0_linear_93349_25752)"/>
<path d="M32.8806 2.40039L28.6847 2.40041C28.1167 2.39785 27.5981 2.71937 27.3529 3.22611L24.0233 10.2107C23.8806 10.5108 23.4192 10.4117 23.4192 10.0817V2.52806C23.4192 2.45744 23.3588 2.40041 23.286 2.40041L19.222 2.40039V15.6036L23.5606 15.6036C24.1211 15.6058 24.634 15.2923 24.8828 14.7955L28.3332 7.81505C28.4183 7.64257 28.6847 7.70233 28.6847 7.89246V15.6036L32.8806 15.6036V2.40039Z" fill="#4DB45E"/>
<path d="M17.0801 2.40041H12.2334C11.5977 2.40041 11.0375 2.81733 10.859 3.42575L8.83661 10.3193C8.75149 10.614 8.32998 10.614 8.24348 10.3193L6.22105 3.42575C6.04394 2.81733 5.48238 2.40041 4.84668 2.40041H0V15.6036H4.09977V7.98888C4.09977 7.78245 4.39085 7.73899 4.45126 7.93591L6.83204 15.6036H10.2481L12.6288 7.93591C12.6892 7.73899 12.9803 7.78245 12.9803 7.98888V15.6036H17.0801V2.40041Z" fill="#4DB45E"/>
<path d="M47.7254 8.57014H34.3249V15.6036H38.5222V11.3881H43.4334C45.3093 11.3963 47.0045 10.2832 47.7254 8.57014Z" fill="#4DB45E"/>
<defs>
<linearGradient id="paint0_linear_93349_25752" x1="33.6396" y1="5.09752" x2="48" y2="5.09752" gradientUnits="userSpaceOnUse">
<stop offset="0.3" stop-color="#00B4E6"/>
<stop offset="1" stop-color="#088CCB"/>
</linearGradient>
</defs>
</svg>
