<svg xmlns="http://www.w3.org/2000/svg" width="24" height="24" viewBox="0 0 24 24" fill="none"><rect width="24" height="24" fill="none"/>
<path d="M17 2H20V19.5C20 20.3284 19.3284 21 18.5 21H5.5C4.67157 21 4 20.3284 4 19.5V2H7V3C7 3.65661 7.12933 4.30679 7.3806 4.91342C7.63188 5.52004 8.00017 6.07124 8.46447 6.53553C8.92876 6.99983 9.47995 7.36812 10.0866 7.6194C10.6932 7.87067 11.3434 8 12 8C12.6566 8 13.3068 7.87067 13.9134 7.6194C14.52 7.36812 15.0712 6.99983 15.5355 6.53553C15.9998 6.07124 16.3681 5.52005 16.6194 4.91342C16.8707 4.30679 17 3.65661 17 3V2Z" fill="#000000"/>
<path d="M15 2H9V3C9 3.39397 9.0776 3.78407 9.22836 4.14805C9.37913 4.51203 9.6001 4.84274 9.87868 5.12132C10.1573 5.3999 10.488 5.62087 10.8519 5.77164C11.2159 5.9224 11.606 6 12 6C12.394 6 12.7841 5.9224 13.1481 5.77164C13.512 5.62087 13.8427 5.3999 14.1213 5.12132C14.3999 4.84274 14.6209 4.51203 14.7716 4.14805C14.9224 3.78407 15 3.39397 15 3V2Z" fill="#000000"/>
</svg>
