<svg xmlns="http://www.w3.org/2000/svg" width="24" height="24" viewBox="0 0 24 24" fill="none"><rect width="24" height="24" fill="none"/>
<path d="M8.53076 2C7.70233 2 7.03076 2.67157 7.03076 3.5V6H20V14H22.5C23.3284 14 24 13.3284 24 12.5V3.5C24 2.67157 23.3284 2 22.5 2H8.53076Z" fill="#000000"/>
<path d="M1.5 8C0.671573 8 0 8.67157 0 9.5V16H18.0055V9.5C18.0055 8.67157 17.3339 8 16.5055 8H1.5Z" fill="#000000"/>
<path d="M18.0055 18H0V19.5C0 20.3284 0.671573 21 1.5 21H16.5055C17.3339 21 18.0055 20.3284 18.0055 19.5V18Z" fill="#000000"/>
</svg>
