<svg xmlns="http://www.w3.org/2000/svg" width="24" height="24" viewBox="0 0 24 24" fill="none"><rect width="24" height="24" fill="none"/>
<g clip-path="url(#clip0_55046_8858)">
<path d="M13.7882 5H19V10.2308C19.6554 10.0039 20.2918 9.75448 21 9.79946C22.6168 9.90214 24 11.2419 24 13C24 14.7581 22.6168 16.0979 21 16.2005C20.2918 16.2455 19.6554 15.9961 19 15.7692V22H2V15.9231L3.74756 16.528C5.82901 17.2485 8 15.7027 8 13.5C8 11.2974 5.82901 9.75154 3.74756 10.472L2 11.077V5H8.24978C8.02048 4.34479 7.77054 3.70912 7.8156 3C7.9183 1.38373 9.2574 0 11.0161 0C12.7737 0 14.114 1.38269 14.2166 3C14.2615 3.70729 14.0126 4.34448 13.7882 5Z" fill="#000000"/>
</g>
<defs>
<clipPath id="clip0_55046_8858">
<rect width="24" height="24" fill="white"/>
</clipPath>
</defs>
</svg>
