<svg xmlns="http://www.w3.org/2000/svg" width="16" height="16" viewBox="0 0 16 16" fill="none"><rect width="16" height="16" fill="none"/>
<path d="M6.25139 1.6346C6.25139 2.6659 5.85673 3.69652 5.14839 4.44608L3.90666 5.72164L3.90751 5.7236C3.0082 6.70876 2.46001 8.01966 2.46001 9.45868C2.46001 12.5193 4.94106 15 8.00167 15C11.0623 15 13.5433 12.5205 13.5433 9.45988C13.5238 7.76546 12.4016 5.87533 11.5017 5.08333C11.5017 5.84441 10.6853 6.96473 9.75167 6.96473C9.75342 6.90267 9.75173 6.83977 9.75173 6.77729C9.75173 4.26706 8.33199 2.08785 6.25167 1L6.25139 1.6346Z" fill="#000000"/>
</svg>
