<svg xmlns="http://www.w3.org/2000/svg" width="24" height="24" viewBox="0 0 24 24" fill="none"><rect width="24" height="24" fill="none"/>
<path d="M16.5024 3.55459C15.6185 3.18845 14.6711 3 13.7143 3V10.2857L21 10.2857C21 9.32894 20.8116 8.38154 20.4454 7.49759C20.0793 6.61365 19.5426 5.81048 18.8661 5.13394C18.1895 4.4574 17.3864 3.92073 16.5024 3.55459Z" fill="#000000"/>
<path d="M18.8262 16.4022C19.7157 15.071 20.1905 13.5058 20.1905 11.9048H12.0952V3.80952C10.4942 3.80952 8.92902 4.2843 7.59777 5.17382C6.26651 6.06333 5.22893 7.32764 4.61622 8.80685C4.00351 10.2861 3.84319 11.9137 4.15555 13.4841C4.46791 15.0544 5.2389 16.4968 6.37104 17.629C7.50318 18.7611 8.94562 19.5321 10.5159 19.8444C12.0863 20.1568 13.7139 19.9965 15.1932 19.3838C16.6724 18.7711 17.9367 17.7335 18.8262 16.4022Z" fill="#000000"/>
</svg>
