<svg xmlns="http://www.w3.org/2000/svg" width="24" height="24" viewBox="0 0 24 24" fill="none"><rect width="24" height="24" fill="none"/>
<path fill-rule="evenodd" clip-rule="evenodd" d="M4 9H10H4Z" fill="#000000"/>
<path d="M9 15.8699C9 13.5296 10.4375 11.7901 12.4613 11.1897C13.3893 10.9144 14.0027 9.97271 14.0027 9.00133C14.0027 7.89602 13.1066 7 12.0013 7C10.8965 7 10.0007 7.8953 10 9H4C4.00072 4.5816 7.58276 1 12.0013 1C16.4203 1 20.0027 4.58232 20.0027 9.00133C20.0027 12.1085 18.2349 14.7503 15.8406 15.9765C15.2965 16.2552 15 16.7123 15 17.3959V18H9V15.8699Z" fill="#000000"/>
<path d="M15 20H9V24H15V20Z" fill="#000000"/>
</svg>
