<svg xmlns="http://www.w3.org/2000/svg" width="24" height="24" viewBox="0 0 24 24" fill="none"><rect width="24" height="24" fill="none"/>
<path d="M15.1374 17.4172C14.4857 17.6639 14 18.2568 14 18.9536V24H10V18.9536C10 18.2568 9.51434 17.6639 8.86259 17.4172C7.52317 16.9103 6.33003 16.0944 5.37548 15.0569H18.6245C17.67 16.0944 16.4768 16.9103 15.1374 17.4172Z" fill="#000000"/>
<path d="M20.0495 13C20.6568 11.795 21 10.4368 21 9C21 4.02944 16.9706 0 12 0C7.02944 0 3 4.02944 3 9C3 10.4368 3.34317 11.795 3.95055 13H20.0495Z" fill="#000000"/>
</svg>
