<svg xmlns="http://www.w3.org/2000/svg" width="24" height="24" viewBox="0 0 24 24" fill="none"><rect width="24" height="24" fill="none"/>
<g clip-path="url(#clip0_91610_9471)">
<path d="M17 5C17 2.23857 14.7614 0 12 0C9.23857 0 7 2.23858 7 5C7 7.23882 8.47145 9.13397 10.5 9.7711L10.5 12.4572L8.11144 14.0858C7.25754 13.4061 6.1762 13 5 13C2.23857 13 0 15.2386 0 18C0 20.7614 2.23858 23 5 23C7.76142 23 10 20.7614 10 18C10 17.5032 9.92756 17.0234 9.79266 16.5705L12 15.0655L14.2073 16.5705C14.0724 17.0234 14 17.5032 14 18C14 20.7614 16.2386 23 19 23C21.7614 23 24 20.7614 24 18C24 15.2386 21.7614 13 19 13C17.8238 13 16.7425 13.4061 15.8886 14.0858L13.5 12.4572L13.5 9.7711C15.5286 9.13396 17 7.23882 17 5Z" fill="#000000"/>
</g>
<defs>
<clipPath id="clip0_91610_9471">
<rect width="24" height="24" fill="white"/>
</clipPath>
</defs>
</svg>
