<svg xmlns="http://www.w3.org/2000/svg" width="24" height="24" viewBox="0 0 24 24" fill="none"><rect width="24" height="24" fill="none"/>
<path d="M13.0221 0.120674C13.613 0.261319 14.1677 0.521619 14.6506 0.884964C15.1565 1.26978 15.574 1.75538 15.8759 2.30998C16.1778 2.86457 16.3573 3.47564 16.4026 4.1032C16.448 4.73077 16.358 5.36067 16.1388 5.95169C15.9196 6.54272 15.5761 7.08152 15.1306 7.53285C14.8711 7.79267 14.6117 8.05305 14.3521 8.31358C13.5681 9.1003 12.7829 9.88833 11.9924 10.6661L9.14959 7.82346C8.65834 7.38009 8.26017 6.84632 7.97735 6.25231C7.67396 5.57386 7.54387 4.83261 7.59862 4.09332C7.65338 3.35402 7.89107 2.63914 8.29132 2.01109C8.61511 1.50486 9.04273 1.07062 9.54682 0.73607C10.0508 0.401519 10.6202 0.174027 11.2185 0.0680641C11.4772 0.0222594 11.7388 -0.000395344 12.0002 5.21948e-06C12.3436 0.000531302 12.6866 0.0408256 13.0221 0.120674Z" fill="#000000"/>
<path d="M0.120674 10.9782C0.26132 10.3872 0.521619 9.83259 0.884964 9.34961C1.26978 8.84377 1.75538 8.42622 2.30998 8.12432C2.86457 7.8224 3.47564 7.64291 4.1032 7.59759C4.73077 7.55228 5.36067 7.64219 5.9517 7.8614C6.54272 8.08061 7.08153 8.42418 7.53285 8.86965C7.79269 9.12913 8.05308 9.3886 8.31363 9.64822C9.10034 10.4322 9.88835 11.2174 10.6661 12.0078L7.82347 14.8507C7.38009 15.3419 6.84632 15.7401 6.25231 16.0229C5.57386 16.3263 4.83261 16.4564 4.09332 16.4016C3.35402 16.3469 2.63914 16.1092 2.0111 15.7089C1.50486 15.3851 1.07062 14.9575 0.736071 14.4534C0.401519 13.9494 0.174027 13.3801 0.0680642 12.7817C0.0222595 12.523 -0.000395333 12.2614 5.21918e-06 12C0.000531287 11.6567 0.0408256 11.3137 0.120674 10.9782Z" fill="#000000"/>
<path d="M23.8793 10.9782C23.7387 10.3872 23.4784 9.83259 23.115 9.34961C22.7302 8.84376 22.2446 8.42622 21.69 8.12432C21.1354 7.8224 20.5244 7.64291 19.8968 7.59759C19.2692 7.55228 18.6393 7.64219 18.0483 7.8614C17.4573 8.08061 16.9185 8.42418 16.4672 8.86965C16.2073 9.12911 15.947 9.38857 15.6864 9.64817C14.8998 10.432 14.1116 11.2174 13.3339 12.0078L16.1765 14.8506C16.6199 15.3419 17.1537 15.7401 17.7477 16.0229C18.4261 16.3263 19.1674 16.4564 19.9067 16.4016C20.646 16.3469 21.3609 16.1092 21.9889 15.7089C22.4951 15.3851 22.9294 14.9575 23.2639 14.4534C23.5985 13.9494 23.826 13.3801 23.9319 12.7817C23.9777 12.523 24.0004 12.2614 24 12C23.9995 11.6567 23.9592 11.3137 23.8793 10.9782Z" fill="#000000"/>
<path d="M14.6506 23.115C14.1677 23.4784 13.613 23.7387 13.0221 23.8793C12.6866 23.9592 12.3436 23.9995 12.0002 24C11.7388 24.0004 11.4772 23.9777 11.2185 23.9319C10.6202 23.826 10.0508 23.5985 9.54682 23.2639C9.04273 22.9294 8.6151 22.4951 8.29132 21.9889C7.89107 21.3609 7.65337 20.646 7.59862 19.9067C7.54387 19.1674 7.67396 18.4261 7.97735 17.7477C8.26017 17.1537 8.65834 16.6199 9.14959 16.1765L11.9924 13.3339C12.7828 14.1116 13.568 14.8996 14.3519 15.6863L14.3528 15.6871C14.6121 15.9474 14.8714 16.2076 15.1306 16.4671C15.5761 16.9185 15.9196 17.4573 16.1388 18.0483C16.358 18.6393 16.448 19.2692 16.4026 19.8968C16.3573 20.5244 16.1778 21.1354 15.8759 21.69C15.574 22.2446 15.1565 22.7302 14.6506 23.115Z" fill="#000000"/>
</svg>
