<svg xmlns="http://www.w3.org/2000/svg" width="24" height="24" viewBox="0 0 24 24" fill="none"><rect width="24" height="24" fill="none"/>
<g clip-path="url(#clip0_91610_9533)">
<path d="M6.36228 12.9982L0 12.9982L5 7.99799L7 7.998L9.65789 5.34134C11.9219 3.07827 15.6326 2.0511 19 2.00013C19.9694 1.98546 20.9265 2.04844 21.7962 2.18102C21.9407 3.05166 22.0108 4.03153 22 5.00014C21.9623 8.36872 20.9295 12.0747 18.6582 14.3442L16 17.0001V19.0021L11.002 24.0001V17.6378L10.9013 17.5372C8.90896 19.1699 5.08118 21.1118 3 21.0001C2.87727 18.7147 4.74407 14.8101 6.43266 13.0685L6.36228 12.9982Z" fill="#000000"/>
</g>
<defs>
<clipPath id="clip0_91610_9533">
<rect width="24" height="24" fill="white"/>
</clipPath>
</defs>
</svg>
