<svg xmlns="http://www.w3.org/2000/svg" width="24" height="24" viewBox="0 0 24 24" fill="none"><rect width="24" height="24" fill="none"/>
<path d="M5 16.2769C5.5 20 8 23 13.5 23C19 23 21.5 20 22 16H16.5C16 17.5 15 18 13.5 18C12 18 11 17 11 16H14V13H11V11H14V8H11C11 7 12 6 13.5 6C15.0455 6 16 6.5 16.5 8H22C21.5 4 19 1 13.5 1C8 1 5.5 4 5.02924 7.51296C5.02924 7.51296 5.00462 7.68817 4.97 8H2V11H4.76443C4.7553 11.321 4.75 11.6557 4.75 12C4.75 12.3483 4.75485 12.6826 4.76321 13H2V16H4.96551C4.98638 16.1802 5 16.2769 5 16.2769Z" fill="#000000"/>
</svg>
