<svg xmlns="http://www.w3.org/2000/svg" width="24" height="24" viewBox="0 0 24 24" fill="none"><rect width="24" height="24" fill="none"/>
<path fill-rule="evenodd" clip-rule="evenodd" d="M23 12C23 18.0751 18.0751 23 12 23C5.92487 23 1 18.0751 1 12C1 5.92487 5.92487 1 12 1C18.0751 1 23 5.92487 23 12ZM19.0213 15.8373C17.6627 18.3179 15.0278 20 12 20C10.9391 20 9.92643 19.7935 9 19.4185V17.7698L13 14.4018L9 11.0003H4.06185C4.46277 7.78409 6.77287 5.16069 9.8223 4.29997L13 7.0001V10.8018L19.0213 15.8373Z" fill="#000000"/>
</svg>
