<svg xmlns="http://www.w3.org/2000/svg" width="24" height="24" viewBox="0 0 24 24" fill="none"><rect width="24" height="24" fill="none"/>
<path d="M0 7.70345L0.439529 7.52764C3.39585 6.34511 6.66124 6.17809 9.72279 7.05282C11.2112 7.47807 12.7888 7.47807 14.2772 7.05282C17.3388 6.17809 20.6041 6.34511 23.5605 7.52764L24 7.70345V14.3313C23.8312 15.8506 21.8435 17 20.3149 17H15.5811C14.9355 17 14.3623 16.5869 14.1581 15.9743L13.5369 14.1106C13.0446 12.6336 10.9554 12.6336 10.4631 14.1106L9.84188 15.9743C9.63771 16.5869 9.0645 17 8.41886 17H3.68513C2.15648 17 0.168811 15.8506 0 14.3313V7.70345Z" fill="#000000"/>
</svg>
