<svg xmlns="http://www.w3.org/2000/svg" width="24" height="24" viewBox="0 0 24 24" fill="none"><rect width="24" height="24" fill="none"/>
<path d="M17.4442 1.68508C16.3522 1.23279 15.1819 1 14 1V10L23 10C23 8.8181 22.7672 7.64778 22.3149 6.55585C21.8626 5.46392 21.1997 4.47177 20.364 3.63604C19.5282 2.80031 18.5361 2.13738 17.4442 1.68508Z" fill="#000000"/>
<path d="M20.3147 17.5557C21.4135 15.9112 22 13.9778 22 12H12V2C10.0222 2 8.08879 2.58649 6.4443 3.6853C4.79981 4.78412 3.51809 6.3459 2.76121 8.17317C2.00433 10.0004 1.8063 12.0111 2.19215 13.9509C2.578 15.8907 3.53041 17.6725 4.92894 19.0711C6.32746 20.4696 8.10929 21.422 10.0491 21.8079C11.9889 22.1937 13.9996 21.9957 15.8268 21.2388C17.6541 20.4819 19.2159 19.2002 20.3147 17.5557Z" fill="#000000"/>
</svg>
