<svg xmlns="http://www.w3.org/2000/svg" width="24" height="24" viewBox="0 0 24 24" fill="none"><rect width="24" height="24" fill="none"/>
<path fill-rule="evenodd" clip-rule="evenodd" d="M4.00151 1.00005L20 1V23L4.00134 23C4.00134 23 4 15.965 4 14.75L4.00151 1.00005ZM5.99995 5H17.9999L17.9999 8H5.99995V5ZM7.49995 14C8.32835 14 8.99995 13.3284 8.99995 12.5C8.99995 11.6716 8.32835 11 7.49995 11C6.67155 11 5.99995 11.6716 5.99995 12.5C5.99995 13.3284 6.67155 14 7.49995 14ZM13.5 17.5C13.5 18.1904 12.9403 18.75 12.25 18.75H7.24829C6.55793 18.75 5.99829 18.1904 5.99829 17.5C5.99829 16.8096 6.55793 16.25 7.24829 16.25H12.25C12.9403 16.25 13.5 16.8096 13.5 17.5ZM13.5 12.5C13.5 13.3284 12.8284 14 12 14C11.1716 14 10.4999 13.3284 10.4999 12.5C10.4999 11.6716 11.1716 11 12 11C12.8284 11 13.5 11.6716 13.5 12.5ZM16.5 14C17.3284 14 18 13.3284 18 12.5C18 11.6716 17.3284 11 16.5 11C15.6716 11 15 11.6716 15 12.5C15 13.3284 15.6716 14 16.5 14ZM16.4999 19C17.3284 19 17.9999 18.3284 17.9999 17.5C17.9999 16.6716 17.3284 16 16.4999 16C15.6715 16 15 16.6716 15 17.5C15 18.3284 15.6715 19 16.4999 19Z" fill="#000000"/>
</svg>
