<svg xmlns="http://www.w3.org/2000/svg" width="24" height="24" viewBox="0 0 24 24" fill="none"><rect width="24" height="24" fill="none"/>
<path d="M15 14.4998C15 15.3282 14.3284 15.9998 13.5 15.9998C12.6716 15.9998 12 15.3282 12 14.4998C12 13.6713 12.6716 12.9998 13.5 12.9998C14.3284 12.9998 15 13.6713 15 14.4998Z" fill="#000000"/>
<path fill-rule="evenodd" clip-rule="evenodd" d="M5 1.99976L5 21.9998H20L20 8.49976C20 7.67133 19.3284 6.99976 18.5 6.99976L14 6.99976V1.99976L5 1.99976ZM13.5 17.9998C15.433 17.9998 17 16.4328 17 14.4998C17 12.5668 15.433 10.9998 13.5 10.9998C11.567 10.9998 10 12.5668 10 14.4998C10 16.4328 11.567 17.9998 13.5 17.9998Z" fill="#000000"/>
</svg>
