<svg xmlns="http://www.w3.org/2000/svg" width="24" height="24" viewBox="0 0 24 24" fill="none"><rect width="24" height="24" fill="none"/>
<path d="M4.87464 10.9998C7.15303 10.9998 9.00002 9.15278 9.00002 6.8744C9.00002 4.59602 7.15303 2.74902 4.87464 2.74902C2.59626 2.74902 0.749268 4.59602 0.749268 6.8744C0.749268 9.15278 2.59626 10.9998 4.87464 10.9998Z" fill="#000000"/>
<path d="M8.64453 20.9998H2.35938L15.3594 3H21.6445L8.64453 20.9998Z" fill="#000000"/>
<path d="M19.1272 21.2545C21.4066 21.2545 23.2545 19.4066 23.2545 17.1272C23.2545 14.8478 21.4066 13 19.1272 13C16.8478 13 15 14.8478 15 17.1272C15 19.4066 16.8478 21.2545 19.1272 21.2545Z" fill="#000000"/>
</svg>
