<svg xmlns="http://www.w3.org/2000/svg" width="24" height="24" viewBox="0 0 24 24" fill="none"><rect width="24" height="24" fill="none"/>
<g clip-path="url(#clip0_55046_8882)">
<path d="M12 3.67725C12.6591 2.88471 13.5492 2.29116 14.5671 2H17V4.04152C15.5813 4.27966 14.5002 5.51359 14.5002 7C14.5002 7.36695 14.5661 7.7185 14.6867 8.04349L23.5957 2.8999C23.8594 3.88888 24 4.92813 24 6.00021C24 11.733 19.98 16.5269 14.6051 17.7167L17.4067 22.5692C15.8137 23.4797 13.969 24.0001 12.0027 24.0001C10.0359 24.0001 8.19075 23.4794 6.59747 22.5685L9.39828 17.7173C4.02172 16.5288 0 11.7341 0 6.00012C0 4.92648 0.140997 3.88578 0.405486 2.89551L9.31504 8.03944C9.43467 7.71558 9.5 7.36542 9.5 7C9.5 5.5135 8.41886 4.27952 7 4.04148V2H9.43294C10.4508 2.29116 11.3409 2.88471 12 3.67725Z" fill="#000000"/>
</g>
<defs>
<clipPath id="clip0_55046_8882">
<rect width="24" height="24" fill="white"/>
</clipPath>
</defs>
</svg>
