<svg xmlns="http://www.w3.org/2000/svg" width="24" height="24" viewBox="0 0 24 24" fill="none"><rect width="24" height="24" fill="none"/>
<path d="M8.99951 1.08789C8.99951 2.85584 8.32296 4.62261 7.10866 5.90756L4.97998 8.09424L4.98144 8.0976C3.43976 9.78644 2.5 12.0337 2.5 14.5006C2.5 19.7473 6.75324 24 12 24C17.2468 24 21.5 19.7494 21.5 14.5027C21.4665 11.5979 19.5428 8.35771 18 7C18 8.30471 16.6006 10.2253 15 10.2253C15.003 10.1189 15.0001 10.011 15.0001 9.90392C15.0001 5.60067 12.5663 1.86489 9 0L8.99951 1.08789Z" fill="#000000"/>
</svg>
