<svg xmlns="http://www.w3.org/2000/svg" width="24" height="24" viewBox="0 0 24 24" fill="none"><rect width="24" height="24" fill="none"/>
<path fill-rule="evenodd" clip-rule="evenodd" d="M23 2H1V6C1 9.08859 3.33369 11.6321 6.33397 11.9634C6.40045 12.1236 6.46845 12.2831 6.53775 12.4421C7.42267 14.4732 8.48375 16.3963 9.62105 18.2586C8.53362 19.7912 7.49907 21.3628 6.58212 23H17.4179C16.5009 21.3628 15.4664 19.7912 14.379 18.2586C15.5163 16.3963 16.5773 14.4732 17.4623 12.4421C17.5315 12.2831 17.5996 12.1236 17.666 11.9634C20.6663 11.6321 23 9.08859 23 6V2ZM18.8739 4.5C18.9563 4.96039 19 5.43463 19 5.91903C19 7.05182 18.8577 8.1034 18.6188 9.10394C19.7369 8.51964 20.5 7.34894 20.5 6V4.5H18.8739ZM3.5 6C3.5 7.34894 4.26312 8.51964 5.38119 9.10394C5.1423 8.1034 5 7.05182 5 5.91903C5 5.43463 5.04371 4.96039 5.12613 4.5H3.5V6Z" fill="#000000"/>
</svg>
