<svg xmlns="http://www.w3.org/2000/svg" width="24" height="24" viewBox="0 0 24 24" fill="none"><rect width="24" height="24" fill="none"/>
<g clip-path="url(#clip0_91610_9411)">
<path d="M15 12C15 13.6569 13.6569 15 12 15C10.3431 15 9 13.6569 9 12C9 10.3431 10.3431 9 12 9C13.6569 9 15 10.3431 15 12Z" fill="#000000"/>
<path fill-rule="evenodd" clip-rule="evenodd" d="M24 12C20.659 0 3.34095 0 0 12C3.34095 24 20.659 24 24 12ZM12 17C14.7614 17 17 14.7614 17 12C17 9.23858 14.7614 7 12 7C9.23858 7 7 9.23858 7 12C7 14.7614 9.23858 17 12 17Z" fill="#000000"/>
</g>
<defs>
<clipPath id="clip0_91610_9411">
<rect width="24" height="24" fill="white"/>
</clipPath>
</defs>
</svg>
