<svg xmlns="http://www.w3.org/2000/svg" width="24" height="24" viewBox="0 0 24 24" fill="none"><rect width="24" height="24" fill="none"/>
<path fill-rule="evenodd" clip-rule="evenodd" d="M3.51472 4.75736C1.26428 5.88258 0 7.4087 0 9L4 12.3347L4 21H20V12.3347L24 9C24 7.4087 22.7357 5.88258 20.4853 4.75736C18.2348 3.63214 15.1826 3 12 3C8.8174 3 5.76515 3.63214 3.51472 4.75736ZM12 17C13.1046 17 14 16.1046 14 15C14 13.8954 13.1046 13 12 13C10.8954 13 10 13.8954 10 15C10 16.1046 10.8954 17 12 17Z" fill="#000000"/>
</svg>
