<svg xmlns="http://www.w3.org/2000/svg" width="24" height="24" viewBox="0 0 24 24" fill="none"><rect width="24" height="24" fill="none"/>
<path fill-rule="evenodd" clip-rule="evenodd" d="M12 22C17.5228 22 22 17.5228 22 12C22 6.47715 17.5228 2 12 2C6.47715 2 2 6.47715 2 12C2 17.5228 6.47715 22 12 22ZM10 19C10 17.5 10 14 8.00599 14H5C5.65717 16.5533 7.44772 18.3403 10 19ZM5 10C6 7 8.93666 5 11.9998 5C15.0631 5 17.9564 7 19 10C16.8674 9.3905 14.3539 9 12 9C9.64625 9 7.13245 9.39057 5 10ZM19 14H16C14.023 14 14 17.5 14 19C16.5524 18.3404 18.3428 16.5533 19 14Z" fill="#000000"/>
</svg>
