<svg xmlns="http://www.w3.org/2000/svg" width="48" height="48" viewBox="0 0 48 48" fill="none"><rect width="48" height="48" fill="none"/>
<path fill-rule="evenodd" clip-rule="evenodd" d="M43.8996 5H4.09009V12.2381C4.09009 17.827 8.31296 22.4295 13.742 23.0291C13.8623 23.3189 13.9854 23.6075 14.1108 23.8953C15.7121 27.5705 17.6321 31.0505 19.6901 34.4203C17.7223 37.1937 15.8503 40.0375 14.1911 43H33.7986C32.1394 40.0375 30.2674 37.1937 28.2996 34.4203C30.3576 31.0505 32.2776 27.5705 33.8789 23.8953C34.0043 23.6075 34.1274 23.3189 34.2477 23.0291C39.6767 22.4295 43.8996 17.827 43.8996 12.2381V5ZM36.4333 9.52381C36.5824 10.3569 36.6615 11.215 36.6615 12.0916C36.6615 14.1414 36.404 16.0442 35.9717 17.8548C37.9949 16.7974 39.3758 14.679 39.3758 12.2381V9.52381H36.4333ZM8.6139 12.2381C8.6139 14.679 9.99477 16.7974 12.018 17.8548C11.5857 16.0442 11.3282 14.1414 11.3282 12.0916C11.3282 11.215 11.4073 10.3569 11.5564 9.52381H8.6139V12.2381Z" fill="#000000"/>
</svg>
