<svg xmlns="http://www.w3.org/2000/svg" width="24" height="24" viewBox="0 0 24 24" fill="none"><rect width="24" height="24" fill="none"/>
<path fill-rule="evenodd" clip-rule="evenodd" d="M16.6553 5.65633C19.451 5.65072 21.7206 6.75531 22.3415 8.68435C22.9698 10.6366 21.7404 12.9076 19.4222 14.5675C20.2393 17.2015 19.8852 19.6605 18.2858 20.8336C16.68 22.0114 14.241 21.5835 12.0048 19.9693C9.76854 21.5835 7.32958 22.0114 5.72381 20.8336C4.12438 19.6605 3.77024 17.2015 4.58739 14.5675C2.26915 12.9076 1.03977 10.6366 1.66811 8.68435C2.28888 6.75566 4.5577 5.65113 7.35269 5.65633C8.1958 2.89841 9.96186 1 12.004 1C14.0462 1 15.8122 2.89841 16.6553 5.65633ZM12.0009 15C13.6577 15 15.0009 13.6569 15.0009 12C15.0009 10.3431 13.6577 9 12.0009 9C10.344 9 9.00088 10.3431 9.00088 12C9.00088 13.6569 10.344 15 12.0009 15Z" fill="#000000"/>
</svg>
