<svg xmlns="http://www.w3.org/2000/svg" width="24" height="24" viewBox="0 0 24 24" fill="none"><rect width="24" height="24" fill="none"/>
<path d="M12 8.5C13.933 8.5 15.5 6.933 15.5 5C15.5 3.067 13.933 1.5 12 1.5C10.067 1.5 8.5 3.067 8.5 5C8.5 6.933 10.067 8.5 12 8.5Z" fill="#000000"/>
<path d="M15 22.9998C18 23 19 21.2594 19 18.6665C19 15.0766 15.866 10.4998 12 10.4998C8.13401 10.4998 5 15.0766 5 18.6665C5 21.2594 6 23 9 23C11 23 13 23.0002 15 22.9998Z" fill="#000000"/>
<path d="M23 8.49982C23 10.4328 21.433 11.9998 19.5 11.9998C17.567 11.9998 16 10.4328 16 8.49982C16 6.56682 17.567 4.99982 19.5 4.99982C21.433 4.99982 23 6.56682 23 8.49982Z" fill="#000000"/>
<path d="M4.5 11.9998C6.433 11.9998 8 10.4328 8 8.49982C8 6.56682 6.433 4.99982 4.5 4.99982C2.567 4.99982 1 6.56682 1 8.49982C1 10.4328 2.567 11.9998 4.5 11.9998Z" fill="#000000"/>
</svg>
