<svg xmlns="http://www.w3.org/2000/svg" width="24" height="24" viewBox="0 0 24 24" fill="none"><rect width="24" height="24" fill="none"/>
<g clip-path="url(#clip0_91610_9378)">
<path d="M14 0H10V1.68645C6.74443 2.28755 3.50248 4.35305 3.50248 8.04112C3.50248 11.9176 7.09733 14.0145 10.5037 14.4896C10.6069 14.5064 10.7145 14.5231 10.8247 14.5402C12.0073 14.724 13.5077 14.9571 13.5077 15.9586C13.5077 16.9483 12.9651 17.4521 11.9656 17.4521C11.049 17.4521 10.6226 16.9038 10.5256 15.9586H3.5C3.5 19.6461 6.74593 21.7115 10 22.313V24H14V22.3133C17.2557 21.7123 20.4978 19.6468 20.4978 15.9586C20.4978 12.0743 16.8884 9.97065 13.476 9.5012C13.3827 9.48616 13.2855 9.47111 13.1867 9.4558C12.0041 9.27255 10.5038 9.04008 10.5038 8.04117C10.5038 7.05149 11.0464 6.55206 12.0459 6.55206C12.9623 6.55206 13.3888 7.0987 13.4858 8.04112H20.5C20.5 4.35348 17.2541 2.28807 14 1.68667V0Z" fill="#000000"/>
</g>
<defs>
<clipPath id="clip0_91610_9378">
<rect width="24" height="24" fill="white"/>
</clipPath>
</defs>
</svg>
