<svg xmlns="http://www.w3.org/2000/svg" width="24" height="24" viewBox="0 0 24 24" fill="none"><rect width="24" height="24" fill="none"/>
<path d="M3.5 5C2.67157 5 2 5.67157 2 6.5V14H14.1379C15.422 12.4715 17.3475 11.5 19.5 11.5C20.3808 11.5 21.2236 11.6627 22 11.9596V6.5C22 5.67157 21.3284 5 20.5 5H3.5Z" fill="#000000"/>
<path d="M2 16H12.9596C12.6627 16.7764 12.5 17.6192 12.5 18.5C12.5 19.0149 12.5556 19.5168 12.6611 20H3.5C2.67157 20 2 19.3284 2 18.5V16Z" fill="#000000"/>
<path d="M18 23V20H15V17H18V14H21V17H24V20H21V23H18Z" fill="#000000"/>
</svg>
