<svg xmlns="http://www.w3.org/2000/svg" width="24" height="24" viewBox="0 0 24 24" fill="none"><rect width="24" height="24" fill="none"/>
<g clip-path="url(#clip0_91610_9413)">
<path fill-rule="evenodd" clip-rule="evenodd" d="M19.1494 18.8606L21.2911 21L23.4125 18.8787L5.5139 1L3.39258 3.12132L5.19115 4.9179C2.81148 6.40906 0.899338 8.76976 0 12C2.48493 20.9253 12.7021 23.2122 19.1494 18.8606ZM15.6751 15.3902L14.2583 13.975C13.7084 14.6032 12.9005 15 12 15C10.3431 15 9 13.6569 9 12C9 11.1007 9.39572 10.2938 10.0225 9.74392L8.60569 8.32864C7.61823 9.24202 7 10.5488 7 12C7 14.7614 9.23858 17 12 17C13.4532 17 14.7616 16.3801 15.6751 15.3902Z" fill="#000000"/>
<path d="M22.6032 15.2451C23.1903 14.2839 23.6653 13.2021 24 12C22.1619 5.3979 16.093 2.42811 10.4487 3.09063L22.6032 15.2451Z" fill="#000000"/>
</g>
<defs>
<clipPath id="clip0_91610_9413">
<rect width="24" height="24" fill="white"/>
</clipPath>
</defs>
</svg>
