<svg xmlns="http://www.w3.org/2000/svg" width="24" height="24" viewBox="0 0 24 24" fill="none"><rect width="24" height="24" fill="none"/>
<path d="M1 18.5442L5.00056 7.55272L5.00056 20.0002L1 18.5442Z" fill="#000000"/>
<path d="M15.5005 16.0002C16.3289 16.0002 17.0005 15.3287 17.0005 14.5002C17.0005 13.6718 16.3289 13.0002 15.5005 13.0002C14.6721 13.0002 14.0005 13.6718 14.0005 14.5002C14.0005 15.3287 14.6721 16.0002 15.5005 16.0002Z" fill="#000000"/>
<path fill-rule="evenodd" clip-rule="evenodd" d="M7.00049 22.0002L7.00049 2.00024L16.0005 2.00024V7.00024L20.5005 7.00025C21.3289 7.00025 22.0005 7.67182 22.0005 8.50024L22.0005 22.0002L7.00049 22.0002ZM19.0005 14.5002C19.0005 16.4332 17.4335 18.0002 15.5005 18.0002C13.5675 18.0002 12.0005 16.4332 12.0005 14.5002C12.0005 12.5672 13.5675 11.0002 15.5005 11.0002C17.4335 11.0002 19.0005 12.5672 19.0005 14.5002Z" fill="#000000"/>
</svg>
