<svg xmlns="http://www.w3.org/2000/svg" width="24" height="24" viewBox="0 0 24 24" fill="none"><rect width="24" height="24" fill="none"/>
<g clip-path="url(#clip0_91610_9419)">
<path fill-rule="evenodd" clip-rule="evenodd" d="M16.6667 7H7.33349L11 17C11 18.5913 10.4205 20.1174 9.38909 21.2426C8.35764 22.3679 6.95869 23 5.5 23C4.04131 23 2.64236 22.3679 1.61091 21.2426C0.579463 20.1174 0 18.5913 0 17L5.5 2.00063L6 2L18.5 2L24 17C24 17.7879 23.8577 18.5681 23.5813 19.2961C23.3049 20.0241 22.8998 20.6855 22.3891 21.2426C21.8784 21.7998 21.272 22.2417 20.6048 22.5433C19.9375 22.8448 19.2223 23 18.5 23C17.7777 23 17.0625 22.8448 16.3952 22.5433C15.728 22.2417 15.1216 21.7998 14.6109 21.2426C14.1002 20.6855 13.6951 20.0241 13.4187 19.2961C13.1423 18.5681 13 17.7879 13 17L16.6667 7ZM16.1953 17L18.5 10.7145L20.8047 17H16.1953ZM7.80471 17L5.50011 10.7145L3.19533 17H7.80471Z" fill="#000000"/>
</g>
<defs>
<clipPath id="clip0_91610_9419">
<rect width="24" height="24" fill="white"/>
</clipPath>
</defs>
</svg>
