<svg xmlns="http://www.w3.org/2000/svg" width="24" height="24" viewBox="0 0 24 24" fill="none"><rect width="24" height="24" fill="none"/>
<g clip-path="url(#clip0_91610_9465)">
<path d="M16.5 9.04555C16.5 11.5057 14.2091 13.5 12 13.5C9.79086 13.5 7.5 11.5057 7.5 9.04555C7.5 7.6657 7.92897 6.50009 8.48855 5.3763C9.23702 3.87316 10.1815 2.47511 11.1757 1.1219L12 0L12.8243 1.1219C13.8185 2.47511 14.763 3.87316 15.5115 5.37631C16.071 6.50009 16.5 7.66571 16.5 9.04555Z" fill="#000000"/>
<path d="M12 19.2569C12 16.7072 10.3886 14.436 7.9821 13.5937L2 11.5V17C2 20.3137 4.68629 23 8 23H16C19.3137 23 22 20.3137 22 17V11.5L16.0179 13.5937C13.6114 14.436 12 16.7072 12 19.2569Z" fill="#000000"/>
</g>
<defs>
<clipPath id="clip0_91610_9465">
<rect width="24" height="24" fill="white"/>
</clipPath>
</defs>
</svg>
