<svg xmlns="http://www.w3.org/2000/svg" width="48" height="48" viewBox="0 0 48 48" fill="none"><rect width="48" height="48" fill="none"/>
<path d="M18.9925 5.81315C18.9925 8.75973 17.8649 11.7044 15.8411 13.8459L12.2933 17.4904L12.2957 17.496C9.72627 20.3107 8.16 24.0562 8.16 28.1676C8.16 36.9122 15.2487 44 23.9933 44C32.7379 44 39.8267 36.9157 39.8267 28.1711C39.7708 23.3299 36.5647 17.9295 33.9933 15.6667C33.9933 17.8412 31.6609 21.0421 28.9933 21.0421C28.9983 20.8648 28.9935 20.6851 28.9935 20.5065C28.9935 13.3344 24.9371 7.10815 18.9933 4L18.9925 5.81315Z" fill="#000000"/>
</svg>
