<svg xmlns="http://www.w3.org/2000/svg" width="16" height="16" viewBox="0 0 16 16" fill="none"><rect width="16" height="16" fill="none"/>
<path fill-rule="evenodd" clip-rule="evenodd" d="M15.3266 1H0.659912V3.66667C0.659912 5.72572 2.21571 7.42141 4.21589 7.6423C4.26021 7.74906 4.30555 7.8554 4.35174 7.96142C4.94169 9.31546 5.64908 10.5976 6.40728 11.839C5.68232 12.8608 4.99262 13.9086 4.38133 15H11.6052C10.9939 13.9086 10.3042 12.8608 9.57921 11.839C10.3374 10.5976 11.0448 9.31546 11.6348 7.96142C11.6809 7.85539 11.7263 7.74905 11.7706 7.6423C13.7708 7.42141 15.3266 5.72572 15.3266 3.66667V1ZM12.5758 2.66667C12.6308 2.97359 12.6599 3.28975 12.6599 3.61268C12.6599 4.36788 12.565 5.06893 12.4058 5.73596C13.1512 5.34642 13.6599 4.56596 13.6599 3.66667V2.66667H12.5758ZM2.32658 3.66667C2.32658 4.56596 2.83532 5.34642 3.58071 5.73596C3.42145 5.06893 3.32658 4.36788 3.32658 3.61268C3.32658 3.28975 3.35572 2.97359 3.41066 2.66667H2.32658V3.66667Z" fill="#000000"/>
</svg>
