<svg xmlns="http://www.w3.org/2000/svg" width="24" height="24" viewBox="0 0 24 24" fill="none"><rect width="24" height="24" fill="none"/>
<path d="M12 6.10768C10.8274 4.34401 8.82215 3.18164 6.54545 3.18164C2.9305 3.18164 0 6.11214 0 9.7271C0 11.399 0.626868 12.9246 1.65839 14.0815L1.63636 14.0907L2.29014 14.8172C5.11126 17.9517 8.38384 20.6483 12 22.818C15.6162 20.6483 18.8887 17.9517 21.7099 14.8172L22.3636 14.0907L22.3416 14.0815C23.3731 12.9246 24 11.399 24 9.7271C24 6.11214 21.0695 3.18164 17.4545 3.18164C15.1778 3.18164 13.1726 4.34401 12 6.10768Z" fill="#000000"/>
</svg>
