<svg xmlns="http://www.w3.org/2000/svg" width="24" height="24" viewBox="0 0 24 24" fill="none"><rect width="24" height="24" fill="none"/>
<g clip-path="url(#clip0_91610_9441)">
<path d="M21.8061 6.41062C22.6963 5.52047 23.0014 4.5758 23 3.75542C22.9984 2.86325 22.6344 2.11806 22.266 1.74979C21.8976 1.38151 21.1443 1.00931 20.2445 0.999995C19.417 0.99143 18.4655 1.28973 17.5755 2.18012L13.7196 6.06296L3.06252 3.00007L0.5 6.51037L8.74063 11.0463L5.14326 14.6436L2.99902 13.5L-0.000976562 16.5L6.19702 22.0877L6.38365 21.8887L12.9697 15.287L17.5 23.5L21.0215 20.9819L17.9514 10.3072L21.8061 6.41062Z" fill="#000000"/>
</g>
<defs>
<clipPath id="clip0_91610_9441">
<rect width="24" height="24" fill="white"/>
</clipPath>
</defs>
</svg>
