<svg xmlns="http://www.w3.org/2000/svg" width="24" height="24" viewBox="0 0 24 24" fill="none"><rect width="24" height="24" fill="none"/>
<path d="M0.5 2H13.5L12 12.0034H9V21L7 23L5 21V12.0034L2 12.0034L0.5 2Z" fill="#000000"/>
<path d="M15.5 21C13.8116 21 12.2535 20.4421 11 19.5005V14.0034H13.7225L14.3636 9.72737C14.7046 9.90166 15.0908 9.99997 15.5 9.99997C16.8807 9.99997 18 8.88068 18 7.49997C18 6.11926 16.8807 4.99997 15.5 4.99997C15.3523 4.99997 15.2076 5.01278 15.0669 5.03735L15.5224 2C19.6542 2.01205 23 5.36528 23 9.49997V13.5C23 17.6421 19.6421 21 15.5 21Z" fill="#000000"/>
</svg>
