<svg xmlns="http://www.w3.org/2000/svg" width="24" height="24" viewBox="0 0 24 24" fill="none"><rect width="24" height="24" fill="none"/>
<path d="M13.4265 12.888H10.519L11.9863 8.44348H12.0406L13.4265 12.888Z" fill="#000000"/>
<path fill-rule="evenodd" clip-rule="evenodd" d="M12 22C17.5228 22 22 17.5228 22 12C22 6.47715 17.5228 2 12 2C6.47715 2 2 6.47715 2 12C2 17.5228 6.47715 22 12 22ZM13.9154 7.62288L17 17H14.7173L14.0242 14.7707H9.89404L9.14666 17H7L10.237 7.62288C10.5509 6.71332 10.9167 6 12.095 6C13.2729 6 13.6172 6.71632 13.9154 7.62288Z" fill="#000000"/>
</svg>
